<?xml version="1.0" encoding="UTF-8" standalone="no"?>
<svg
   xmlns:dc="http://purl.org/dc/elements/1.1/"
   xmlns:cc="http://creativecommons.org/ns#"
   xmlns:rdf="http://www.w3.org/1999/02/22-rdf-syntax-ns#"
   xmlns:svg="http://www.w3.org/2000/svg"
   xmlns="http://www.w3.org/2000/svg"
   version="1.1"
   id="svg2"
   viewBox="0 0 442.91339 265.74803"
   height="75mm"
   width="125mm">
  <defs
     id="defs4" />
  <metadata
     id="metadata7">
    <rdf:RDF>
      <cc:Work
         rdf:about="">
        <dc:format>image/svg+xml</dc:format>
        <dc:type
           rdf:resource="http://purl.org/dc/dcmitype/StillImage" />
        <dc:title></dc:title>
      </cc:Work>
    </rdf:RDF>
  </metadata>
  <g
     transform="translate(0,-786.61418)"
     id="layer1">
    <g
       transform="translate(-215.81401,131.73835)"
       id="g4199">
      <path
         id="rect4232"
         d="m 575.44794,760.49268 34.87943,0 0,17.64016 -34.87943,0 z"
         style="opacity:1;fill:#ffffff;fill-opacity:1;stroke:#000000;stroke-width:3.54330707;stroke-linecap:round;stroke-linejoin:round;stroke-miterlimit:4;stroke-dasharray:none;stroke-dashoffset:0;stroke-opacity:1" />
      <path
         style="fill:none;fill-rule:evenodd;stroke:#404040;stroke-width:3.54330707;stroke-linecap:round;stroke-linejoin:round;stroke-miterlimit:4;stroke-dasharray:none;stroke-dashoffset:0;stroke-opacity:1"
         d="m 465.99866,778.13282 0,-44.10042 71.36251,0 0,0"
         id="path4196" />
      <path
         style="fill:none;fill-rule:evenodd;stroke:#808080;stroke-width:3.54330707;stroke-linecap:round;stroke-linejoin:round;stroke-miterlimit:4;stroke-dasharray:none;stroke-opacity:1"
         d="m 313.65173,778.13282 0,-43.69951 135.50858,0 0,44.90225 -0.40091,-0.40091"
         id="path4188" />
      <path
         id="rect4136"
         d="m 236.29254,778.1499 141.48825,0 0,88.16683 -141.48825,0 z"
         style="opacity:1;fill:none;fill-opacity:1;stroke:#000000;stroke-width:5.31496048;stroke-linecap:round;stroke-linejoin:bevel;stroke-miterlimit:4;stroke-dasharray:none;stroke-dashoffset:0;stroke-opacity:1" />
      <path
         id="rect4138"
         d="m 395.8374,778.13135 123.88508,0 0,124.286 -123.88508,0 z"
         style="opacity:1;fill:#ffffff;fill-opacity:1;stroke:#000000;stroke-width:5.31496048;stroke-linecap:round;stroke-linejoin:bevel;stroke-miterlimit:4;stroke-dasharray:none;stroke-dashoffset:0;stroke-opacity:1" />
      <path
         id="rect4140"
         d="m 537.66467,778.43628 105.63498,0 0,35.0743 -105.63498,0 z"
         style="opacity:1;fill:none;fill-opacity:1;stroke:#000000;stroke-width:5.31496048;stroke-linecap:round;stroke-linejoin:bevel;stroke-miterlimit:4;stroke-dasharray:none;stroke-dashoffset:0;stroke-opacity:1" />
      <path
         id="rect4142"
         d="m 537.75079,673.08234 106.26452,0 0,87.82251 -106.26452,0 z"
         style="opacity:1;fill:none;fill-opacity:1;stroke:#000000;stroke-width:5.31496048;stroke-linecap:round;stroke-linejoin:bevel;stroke-miterlimit:4;stroke-dasharray:none;stroke-dashoffset:0;stroke-opacity:1" />
      <g
         id="text4148"
         style="font-style:normal;font-weight:normal;font-size:36px;line-height:125%;font-family:Sans;letter-spacing:0px;word-spacing:0px;fill:#000000;fill-opacity:1;stroke:none;stroke-width:10.62992096;stroke-linecap:butt;stroke-linejoin:miter;stroke-miterlimit:4;stroke-dasharray:none;stroke-opacity:1" />
      <g
         id="flowRoot4152"
         style="font-style:normal;font-weight:normal;font-size:36px;line-height:125%;font-family:Sans;letter-spacing:0px;word-spacing:0px;fill:#000000;fill-opacity:1;stroke:none;stroke-width:10.62992096;stroke-linecap:butt;stroke-linejoin:miter;stroke-miterlimit:4;stroke-dasharray:none;stroke-opacity:1" />
      <g
         id="text4198"
         style="font-style:normal;font-weight:normal;font-size:36px;line-height:125%;font-family:Sans;letter-spacing:0px;word-spacing:0px;fill:#000000;fill-opacity:1;stroke:none;stroke-width:1px;stroke-linecap:butt;stroke-linejoin:miter;stroke-opacity:1">
        <path
           id="path4249"
           style="font-style:normal;font-variant:normal;font-weight:600;font-stretch:normal;font-size:40px;font-family:'Latin Modern Sans Demi Cond';-inkscape-font-specification:'Latin Modern Sans Demi Cond Semi-Bold'"
           d="m 271.63295,833.26244 c 0,-0.92 0,-1.84 -1.68,-1.84 l -9.12,0.16 0,-22.52 c 0,-1.24 -0.24,-1.76 -1.76,-1.76 l -1.32,0 c -1.4,0 -1.8,0.36 -1.8,1.8 l 0,24.16 c 0,1.4 0.36,1.8 1.8,1.8 l 12.12,0 c 1.6,0 1.76,-0.6 1.76,-1.8 z" />
        <path
           id="path4251"
           style="font-style:normal;font-variant:normal;font-weight:600;font-stretch:normal;font-size:40px;font-family:'Latin Modern Sans Demi Cond';-inkscape-font-specification:'Latin Modern Sans Demi Cond Semi-Bold'"
           d="m 295.57983,832.74244 -0.24,-2.56 c -0.04,-0.2 -0.2,-0.4 -0.44,-0.4 0,0 -0.2,0.04 -0.28,0.08 -0.96,0.72 -1.96,1.36 -3.08,1.72 -1.16,0.36 -2.36,0.44 -3.56,0.44 -2.24,0 -4.36,-0.96 -5.68,-2.76 -1.68,-2.32 -2.04,-5.24 -2.04,-8.08 0,-2.88 0.36,-5.8 2.04,-8.08 1.32,-1.8 3.44,-2.76 5.68,-2.76 1.08,0 2.12,0.12 3.12,0.44 1,0.32 1.92,0.88 2.76,1.48 0.08,0.08 0.16,0.12 0.28,0.12 0.2,0 0.4,-0.16 0.44,-0.4 l 0.56,-3.16 c 0,-0.28 -0.12,-0.44 -0.28,-0.52 -1.08,-0.44 -2.2,-0.84 -3.36,-1.08 -1.16,-0.24 -2.32,-0.32 -3.52,-0.32 -3.52,0 -7,1.12 -9.32,3.76 -2.52,2.84 -3.28,6.72 -3.28,10.52 0,3.8 0.76,7.68 3.28,10.52 2.32,2.64 5.8,3.76 9.32,3.76 1.32,0 2.64,-0.08 3.92,-0.48 1.24,-0.36 2.4,-1.08 3.48,-1.84 0.12,-0.08 0.2,-0.2 0.2,-0.4 z" />
        <path
           id="path4253"
           style="font-style:normal;font-variant:normal;font-weight:600;font-stretch:normal;font-size:40px;font-family:'Latin Modern Sans Demi Cond';-inkscape-font-specification:'Latin Modern Sans Demi Cond Semi-Bold'"
           d="m 314.6367,833.30244 0,-0.24 c 0,-1.76 -0.56,-1.76 -2.8,-1.76 l -2.48,0.04 -4.88,0 c -0.44,0 -0.52,0 -0.8,0.04 l 3.88,-4.4 c 5.04,-5.4 7.08,-7.6 7.08,-11.52 0,-4.68 -2.92,-8.92 -8.12,-8.92 -2.12,0 -3.84,0.72 -5.12,2.08 -1.64,1.8 -2.24,4.28 -2.24,4.4 0,0.24 0.6,1.08 1.28,2.08 0.28,0.36 0.36,0.48 0.6,0.48 0.36,0 0.4,-0.2 0.56,-0.76 0.56,-2.36 1.52,-4.84 4.36,-4.84 3.96,0 4.08,4.88 4.08,5.52 0,2.88 -1.56,5.64 -3.4,7.96 l -6.84,8.6 c -0.36,0.4 -0.36,0.48 -0.36,1.2 0,1.4 0.36,1.8 1.8,1.8 l 11.64,0 c 1.4,0 1.76,-0.4 1.76,-1.76 z" />
        <path
           id="path4255"
           style="font-style:normal;font-variant:normal;font-weight:600;font-stretch:normal;font-size:40px;font-family:'Latin Modern Sans Demi Cond';-inkscape-font-specification:'Latin Modern Sans Demi Cond Semi-Bold'"
           d="m 334.46108,826.82244 c 0,-1.64 -0.92,-1.64 -1.76,-1.64 l -1.44,0 0,-16.12 c 0,-1.36 -0.36,-1.76 -1.76,-1.76 l -2.08,0 c -0.96,0 -1.24,0.04 -1.68,0.96 l -7.88,16.36 c -0.28,0.56 -0.28,0.64 -0.28,1.32 l 0,0.72 c 0,1.24 0.24,1.76 1.76,1.76 l 7.72,0 0,4.88 c 0,1.24 0.24,1.76 1.76,1.76 l 0.68,0 c 1.4,0 1.76,-0.4 1.76,-1.76 l 0,-4.88 1.44,0 c 0.8,0 1.76,0 1.76,-1.6 z m -7.16,-1.64 -6.2,0 c 0.64,-1.4 3.12,-6.32 4.96,-10.8 0.52,-1.24 1.2,-3 1.24,-3.48 l 0,14.28 z" />
        <path
           id="path4257"
           style="font-style:normal;font-variant:normal;font-weight:600;font-stretch:normal;font-size:40px;font-family:'Latin Modern Sans Demi Cond';-inkscape-font-specification:'Latin Modern Sans Demi Cond Semi-Bold'"
           d="m 351.84545,833.78244 c 0,-1.28 -1.24,-1.28 -1.76,-1.28 l -2.44,0 0,-24.2 c 0,-0.72 0,-1.76 -1.52,-1.76 -0.84,0 -1.04,0.24 -1.4,0.68 -1.68,2 -4.28,2.04 -5.12,2.08 -1.12,0.04 -1.4,0.84 -1.4,1.28 0,1.28 1.2,1.28 1.64,1.28 1.08,0 2.28,-0.24 3.32,-0.6 l 0,21.24 -2.68,0 c -0.52,0 -1.8,0 -1.8,1.28 0,1.28 1.28,1.28 1.8,1.28 l 9.6,0 c 0.52,0 1.76,0 1.76,-1.28 z" />
        <path
           id="path4259"
           style="font-style:normal;font-variant:normal;font-weight:600;font-stretch:normal;font-size:40px;font-family:'Latin Modern Sans Demi Cond';-inkscape-font-specification:'Latin Modern Sans Demi Cond Semi-Bold'"
           d="m 371.58983,833.30244 0,-0.24 c 0,-1.76 -0.56,-1.76 -2.8,-1.76 l -2.48,0.04 -4.88,0 c -0.44,0 -0.52,0 -0.8,0.04 l 3.88,-4.4 c 5.04,-5.4 7.08,-7.6 7.08,-11.52 0,-4.68 -2.92,-8.92 -8.12,-8.92 -2.12,0 -3.84,0.72 -5.12,2.08 -1.64,1.8 -2.24,4.28 -2.24,4.4 0,0.24 0.6,1.08 1.28,2.08 0.28,0.36 0.36,0.48 0.6,0.48 0.36,0 0.4,-0.2 0.56,-0.76 0.56,-2.36 1.52,-4.84 4.36,-4.84 3.96,0 4.08,4.88 4.08,5.52 0,2.88 -1.56,5.64 -3.4,7.96 l -6.84,8.6 c -0.36,0.4 -0.36,0.48 -0.36,1.2 0,1.4 0.36,1.8 1.8,1.8 l 11.64,0 c 1.4,0 1.76,-0.4 1.76,-1.76 z" />
      </g>
      <g
         id="text4202"
         style="font-style:normal;font-weight:normal;font-size:36px;line-height:125%;font-family:Sans;text-align:center;letter-spacing:0px;word-spacing:0px;text-anchor:middle;fill:#000000;fill-opacity:1;stroke:none;stroke-width:1px;stroke-linecap:butt;stroke-linejoin:miter;stroke-opacity:1">
        <path
           id="path4262"
           style="font-style:normal;font-variant:normal;font-weight:600;font-stretch:normal;font-size:40px;font-family:'Latin Modern Sans Demi Cond';-inkscape-font-specification:'Latin Modern Sans Demi Cond Semi-Bold';text-align:center;text-anchor:middle"
           d="m 442.48841,821.76965 c 0,-2.92 -1.52,-6 -6.52,-6.84 3.32,-0.76 5.48,-2.92 5.48,-6.12 0,-3.64 -2.4,-7.12 -9.16,-7.12 l -8,0 c -1.4,0 -1.8,0.36 -1.8,1.8 l 0,24.16 c 0,1.4 0.36,1.8 1.8,1.8 l 9,0 c 7,0 9.2,-3.96 9.2,-7.68 z m -5.48,-12.88 c 0,2.52 -1.52,4.84 -5.92,4.84 l -3.96,0 0,-9.04 3.96,0 c 0.88,0 5.92,0 5.92,4.2 z m 0.92,12.8 c 0,3.12 -2.12,4.76 -5.84,4.76 l -4.96,0 0,-10.16 4.32,0 c 1.12,0 6.48,0 6.48,5.4 z" />
        <path
           id="path4264"
           style="font-style:normal;font-variant:normal;font-weight:600;font-stretch:normal;font-size:40px;font-family:'Latin Modern Sans Demi Cond';-inkscape-font-specification:'Latin Modern Sans Demi Cond Semi-Bold';text-align:center;text-anchor:middle"
           d="m 466.95904,827.12965 -0.24,-2.56 c -0.04,-0.2 -0.2,-0.4 -0.44,-0.4 0,0 -0.2,0.04 -0.28,0.08 -0.96,0.72 -1.96,1.36 -3.08,1.72 -1.16,0.36 -2.36,0.44 -3.56,0.44 -2.24,0 -4.36,-0.96 -5.68,-2.76 -1.68,-2.32 -2.04,-5.24 -2.04,-8.08 0,-2.88 0.36,-5.8 2.04,-8.08 1.32,-1.8 3.44,-2.76 5.68,-2.76 1.08,0 2.12,0.12 3.12,0.44 1,0.32 1.92,0.88 2.76,1.48 0.08,0.08 0.16,0.12 0.28,0.12 0.2,0 0.4,-0.16 0.44,-0.4 l 0.56,-3.16 c 0,-0.28 -0.12,-0.44 -0.28,-0.52 -1.08,-0.44 -2.2,-0.84 -3.36,-1.08 -1.16,-0.24 -2.32,-0.32 -3.52,-0.32 -3.52,0 -7,1.12 -9.32,3.76 -2.52,2.84 -3.28,6.72 -3.28,10.52 0,3.8 0.76,7.68 3.28,10.52 2.32,2.64 5.8,3.76 9.32,3.76 1.32,0 2.64,-0.08 3.92,-0.48 1.24,-0.36 2.4,-1.08 3.48,-1.84 0.12,-0.08 0.2,-0.2 0.2,-0.4 z" />
        <path
           id="path4266"
           style="font-style:normal;font-variant:normal;font-weight:600;font-stretch:normal;font-size:40px;font-family:'Latin Modern Sans Demi Cond';-inkscape-font-specification:'Latin Modern Sans Demi Cond Semi-Bold';text-align:center;text-anchor:middle"
           d="m 488.89591,803.60965 c 0,-1.12 -0.12,-1.8 -1.76,-1.8 l -13.16,0 c -1.4,0 -1.8,0.36 -1.8,1.8 l 0,24.04 c 0,1.4 0.36,1.8 1.8,1.8 l 1.32,0 c 1.4,0 1.76,-0.4 1.76,-1.76 l 0,-10.44 8.52,0 c 0.8,0 1.76,0 1.76,-1.6 0,-1.64 -0.92,-1.64 -1.76,-1.64 l -8.52,0 0,-8.72 1.6,0 8.2,0.12 c 1.32,0 2.04,0 2.04,-1.8 z" />
        <path
           id="path4268"
           style="font-style:normal;font-variant:normal;font-weight:600;font-stretch:normal;font-size:40px;font-family:'Latin Modern Sans Demi Cond';-inkscape-font-specification:'Latin Modern Sans Demi Cond Semi-Bold';text-align:center;text-anchor:middle"
           d="m 433.98466,877.68965 0,-0.24 c 0,-1.76 -0.56,-1.76 -2.8,-1.76 l -2.48,0.04 -4.88,0 c -0.44,0 -0.52,0 -0.8,0.04 l 3.88,-4.4 c 5.04,-5.4 7.08,-7.6 7.08,-11.52 0,-4.68 -2.92,-8.92 -8.12,-8.92 -2.12,0 -3.84,0.72 -5.12,2.08 -1.64,1.8 -2.24,4.28 -2.24,4.4 0,0.24 0.6,1.08 1.28,2.08 0.28,0.36 0.36,0.48 0.6,0.48 0.36,0 0.4,-0.2 0.56,-0.76 0.56,-2.36 1.52,-4.84 4.36,-4.84 3.96,0 4.08,4.88 4.08,5.52 0,2.88 -1.56,5.64 -3.4,7.96 l -6.84,8.6 c -0.36,0.4 -0.36,0.48 -0.36,1.2 0,1.4 0.36,1.8 1.8,1.8 l 11.64,0 c 1.4,0 1.76,-0.4 1.76,-1.76 z" />
        <path
           id="path4270"
           style="font-style:normal;font-variant:normal;font-weight:600;font-stretch:normal;font-size:40px;font-family:'Latin Modern Sans Demi Cond';-inkscape-font-specification:'Latin Modern Sans Demi Cond Semi-Bold';text-align:center;text-anchor:middle"
           d="m 453.36904,865.72965 c 0,-4.92 0,-14.8 -8,-14.8 -8,0 -8,9.88 -8,14.8 0,4.92 0,14.48 8,14.48 8,0 8,-9.56 8,-14.48 z m -4.44,-0.56 c 0,6.4 0,12.48 -3.56,12.48 -3.56,0 -3.56,-6.08 -3.56,-12.48 0,-2.44 0,-5 0.24,-7.12 0.12,-0.88 0.56,-4.56 3.32,-4.56 3.56,0 3.56,5.52 3.56,11.68 z" />
        <path
           id="path4272"
           style="font-style:normal;font-variant:normal;font-weight:600;font-stretch:normal;font-size:40px;font-family:'Latin Modern Sans Demi Cond';-inkscape-font-specification:'Latin Modern Sans Demi Cond Semi-Bold';text-align:center;text-anchor:middle"
           d="m 472.35341,865.72965 c 0,-4.92 0,-14.8 -8,-14.8 -8,0 -8,9.88 -8,14.8 0,4.92 0,14.48 8,14.48 8,0 8,-9.56 8,-14.48 z m -4.44,-0.56 c 0,6.4 0,12.48 -3.56,12.48 -3.56,0 -3.56,-6.08 -3.56,-12.48 0,-2.44 0,-5 0.24,-7.12 0.12,-0.88 0.56,-4.56 3.32,-4.56 3.56,0 3.56,5.52 3.56,11.68 z" />
        <path
           id="path4274"
           style="font-style:normal;font-variant:normal;font-weight:600;font-stretch:normal;font-size:40px;font-family:'Latin Modern Sans Demi Cond';-inkscape-font-specification:'Latin Modern Sans Demi Cond Semi-Bold';text-align:center;text-anchor:middle"
           d="m 491.33779,865.72965 c 0,-4.92 0,-14.8 -8,-14.8 -8,0 -8,9.88 -8,14.8 0,4.92 0,14.48 8,14.48 8,0 8,-9.56 8,-14.48 z m -4.44,-0.56 c 0,6.4 0,12.48 -3.56,12.48 -3.56,0 -3.56,-6.08 -3.56,-12.48 0,-2.44 0,-5 0.24,-7.12 0.12,-0.88 0.56,-4.56 3.32,-4.56 3.56,0 3.56,5.52 3.56,11.68 z" />
      </g>
      <g
         id="text4208"
         style="font-style:normal;font-weight:normal;font-size:36px;line-height:125%;font-family:Sans;letter-spacing:0px;word-spacing:0px;fill:#000000;fill-opacity:1;stroke:none;stroke-width:1px;stroke-linecap:butt;stroke-linejoin:miter;stroke-opacity:1">
        <path
           id="path4277"
           style="font-style:normal;font-variant:normal;font-weight:600;font-stretch:normal;font-size:35px;font-family:'Latin Modern Sans Demi Cond';-inkscape-font-specification:'Latin Modern Sans Demi Cond Semi-Bold'"
           d="m 569.08721,718.05325 c 0,-1.505 -0.07,-5.53 -1.995,-8.61 -2.415,-3.85 -6.265,-4.375 -8.33,-4.375 -3.325,0 -6.3,1.365 -8.015,3.85 -1.295,1.925 -2.31,4.515 -2.31,9.135 0,3.045 0.42,6.755 2.87,9.59 1.575,1.82 4.235,3.045 7.455,3.045 0.98,0 1.19,0 2.345,-0.21 l 1.26,2.135 c 0.805,1.26 0.805,1.295 1.89,1.295 l 2.1,0 c 0.49,0 1.155,0 1.155,-0.735 0,-0.14 0,-0.21 -0.49,-0.98 l -2.24,-3.29 c 1.225,-0.805 2.415,-2.205 3.255,-4.34 0.98,-2.485 1.05,-5.285 1.05,-6.51 z m -4.165,-0.035 c 0,1.89 0,5.95 -1.995,8.26 l -1.75,-2.625 c -0.315,-0.42 -0.42,-0.42 -1.12,-0.42 l -1.61,0 c -0.49,0 -1.19,0 -1.19,0.735 0,0.21 0.35,0.84 0.595,1.225 l 0.84,1.365 0.91,1.54 c 0,0.14 -0.84,0.14 -0.84,0.14 -1.505,0 -3.78,-0.595 -5.075,-3.43 -0.98,-2.1 -1.085,-4.55 -1.085,-6.79 0,-2.52 0.105,-5.39 1.505,-7.805 0.98,-1.645 2.73,-2.695 4.655,-2.695 1.995,0 3.92,1.12 4.935,3.185 1.05,2.24 1.225,4.655 1.225,7.315 z" />
        <path
           id="path4279"
           style="font-style:normal;font-variant:normal;font-weight:600;font-stretch:normal;font-size:35px;font-family:'Latin Modern Sans Demi Cond';-inkscape-font-specification:'Latin Modern Sans Demi Cond Semi-Bold'"
           d="m 587.54151,728.44825 c 0,-0.805 0,-1.61 -1.47,-1.61 l -7.98,0.14 0,-19.705 c 0,-1.085 -0.21,-1.54 -1.54,-1.54 l -1.155,0 c -1.225,0 -1.575,0.315 -1.575,1.575 l 0,21.14 c 0,1.225 0.315,1.575 1.575,1.575 l 10.605,0 c 1.4,0 1.54,-0.525 1.54,-1.575 z" />
        <path
           id="path4281"
           style="font-style:normal;font-variant:normal;font-weight:600;font-stretch:normal;font-size:35px;font-family:'Latin Modern Sans Demi Cond';-inkscape-font-specification:'Latin Modern Sans Demi Cond Semi-Bold'"
           d="m 608.49503,727.99325 -0.21,-2.24 c -0.035,-0.175 -0.175,-0.35 -0.385,-0.35 0,0 -0.175,0.035 -0.245,0.07 -0.84,0.63 -1.715,1.19 -2.695,1.505 -1.015,0.315 -2.065,0.385 -3.115,0.385 -1.96,0 -3.815,-0.84 -4.97,-2.415 -1.47,-2.03 -1.785,-4.585 -1.785,-7.07 0,-2.52 0.315,-5.075 1.785,-7.07 1.155,-1.575 3.01,-2.415 4.97,-2.415 0.945,0 1.855,0.105 2.73,0.385 0.875,0.28 1.68,0.77 2.415,1.295 0.07,0.07 0.14,0.105 0.245,0.105 0.175,0 0.35,-0.14 0.385,-0.35 l 0.49,-2.765 c 0,-0.245 -0.105,-0.385 -0.245,-0.455 -0.945,-0.385 -1.925,-0.735 -2.94,-0.945 -1.015,-0.21 -2.03,-0.28 -3.08,-0.28 -3.08,0 -6.125,0.98 -8.155,3.29 -2.205,2.485 -2.87,5.88 -2.87,9.205 0,3.325 0.665,6.72 2.87,9.205 2.03,2.31 5.075,3.29 8.155,3.29 1.155,0 2.31,-0.07 3.43,-0.42 1.085,-0.315 2.1,-0.945 3.045,-1.61 0.105,-0.07 0.175,-0.175 0.175,-0.35 z" />
        <path
           id="path4283"
           style="font-style:normal;font-variant:normal;font-weight:600;font-stretch:normal;font-size:35px;font-family:'Latin Modern Sans Demi Cond';-inkscape-font-specification:'Latin Modern Sans Demi Cond Semi-Bold'"
           d="m 634.19979,720.78325 c 0,-1.225 -1.225,-1.225 -1.645,-1.225 l -8.19,0 0,-8.225 c 0,-0.42 0,-1.645 -1.225,-1.645 -1.225,0 -1.225,1.225 -1.225,1.645 l 0,8.225 -8.19,0 c -0.42,0 -1.645,0 -1.645,1.225 0,1.225 1.225,1.225 1.645,1.225 l 8.19,0 0,8.225 c 0,0.42 0,1.645 1.225,1.645 1.225,0 1.225,-1.225 1.225,-1.645 l 0,-8.225 8.19,0 c 0.42,0 1.645,0 1.645,-1.225 z" />
      </g>
      <g
         id="text4212"
         style="font-style:normal;font-weight:normal;font-size:36px;line-height:125%;font-family:Sans;letter-spacing:0px;word-spacing:0px;fill:#000000;fill-opacity:1;stroke:none;stroke-width:1px;stroke-linecap:butt;stroke-linejoin:miter;stroke-opacity:1">
        <path
           id="path4286"
           style="font-style:normal;font-variant:normal;font-weight:600;font-stretch:normal;font-size:15px;font-family:'Latin Modern Sans Demi Cond';-inkscape-font-specification:'Latin Modern Sans Demi Cond Semi-Bold'"
           d="m 237.96361,770.65732 0,-9.09 c 0,-0.465 -0.09,-0.66 -0.66,-0.66 l -0.96,0 c -0.675,0 -0.765,0.27 -0.885,0.63 l -1.455,4.215 -0.6,1.845 c -0.285,0.96 -0.45,1.515 -0.495,1.83 l -0.015,0 c -0.045,-0.345 -0.21,-0.945 -0.525,-1.95 l -0.66,-2.04 -1.35,-3.945 c -0.195,-0.585 -0.585,-0.585 -0.885,-0.585 l -0.93,0 c -0.525,0 -0.675,0.135 -0.675,0.675 l 0,9.06 c 0,0.525 0.135,0.675 0.675,0.675 l 0.225,0 c 0.525,0 0.66,-0.15 0.66,-0.66 l 0,-8.1 0.015,0 c 0.06,0.465 0.36,1.395 0.525,1.95 l 0.63,1.98 1.35,3.96 c 0.195,0.585 0.57,0.585 0.945,0.585 0.585,0 0.765,-0.09 0.945,-0.63 l 1.44,-4.17 c 0.06,-0.15 1.11,-3.405 1.125,-3.675 l 0,8.1 c 0,0.465 0.09,0.66 0.66,0.66 l 0.24,0 c 0.525,0 0.66,-0.15 0.66,-0.66 z" />
        <path
           id="path4288"
           style="font-style:normal;font-variant:normal;font-weight:600;font-stretch:normal;font-size:15px;font-family:'Latin Modern Sans Demi Cond';-inkscape-font-specification:'Latin Modern Sans Demi Cond Semi-Bold'"
           d="m 242.22267,770.65732 0,-9.09 c 0,-0.465 -0.09,-0.66 -0.66,-0.66 l -0.495,0 c -0.525,0 -0.675,0.135 -0.675,0.675 l 0,9.06 c 0,0.525 0.135,0.675 0.675,0.675 l 0.495,0 c 0.525,0 0.66,-0.15 0.66,-0.66 z" />
        <path
           id="path4290"
           style="font-style:normal;font-variant:normal;font-weight:600;font-stretch:normal;font-size:15px;font-family:'Latin Modern Sans Demi Cond';-inkscape-font-specification:'Latin Modern Sans Demi Cond Semi-Bold'"
           d="m 252.93572,766.18732 c 0,-1.56 -0.3,-2.73 -0.96,-3.675 -0.765,-1.11 -2.07,-1.605 -3.375,-1.605 l -3.27,0 c -0.525,0 -0.675,0.135 -0.675,0.675 l 0,9.06 c 0,0.525 0.135,0.675 0.675,0.675 l 3.285,0 c 1.05,0 2.31,-0.315 3.135,-1.275 0.93,-1.05 1.185,-2.445 1.185,-3.855 z m -1.785,0 c 0,1.2 0,4.005 -3.03,4.005 l -1.68,0 0,-8.16 1.665,0 c 3.045,0 3.045,2.94 3.045,4.155 z" />
        <path
           id="path4292"
           style="font-style:normal;font-variant:normal;font-weight:600;font-stretch:normal;font-size:15px;font-family:'Latin Modern Sans Demi Cond';-inkscape-font-specification:'Latin Modern Sans Demi Cond Semi-Bold'"
           d="m 256.78322,770.65732 0,-9.09 c 0,-0.465 -0.09,-0.66 -0.66,-0.66 l -0.495,0 c -0.525,0 -0.675,0.135 -0.675,0.675 l 0,9.06 c 0,0.525 0.135,0.675 0.675,0.675 l 0.495,0 c 0.525,0 0.66,-0.15 0.66,-0.66 z" />
        <path
           id="path4294"
           style="font-style:normal;font-variant:normal;font-weight:600;font-stretch:normal;font-size:15px;font-family:'Latin Modern Sans Demi Cond';-inkscape-font-specification:'Latin Modern Sans Demi Cond Semi-Bold'"
           d="m 272.39236,766.18732 c 0,-0.645 -0.03,-2.37 -0.855,-3.69 -1.035,-1.65 -2.685,-1.875 -3.57,-1.875 -1.425,0 -2.7,0.585 -3.435,1.65 -0.555,0.825 -0.99,1.935 -0.99,3.915 0,1.305 0.18,2.895 1.23,4.11 0.675,0.78 1.815,1.305 3.195,1.305 1.05,0 2.355,-0.315 3.24,-1.365 1.005,-1.185 1.185,-2.79 1.185,-4.05 z m -1.83,-0.24 c 0,0.945 -0.03,2.04 -0.45,3.03 -0.57,1.32 -1.59,1.545 -2.145,1.545 -0.57,0 -1.59,-0.24 -2.145,-1.56 -0.375,-0.885 -0.45,-1.815 -0.45,-3.015 0,-0.735 0,-2.07 0.555,-3.045 0.54,-0.975 1.41,-1.23 2.04,-1.23 0.465,0 1.485,0.15 2.085,1.305 0.495,0.96 0.51,2.115 0.51,2.97 z" />
        <path
           id="path4296"
           style="font-style:normal;font-variant:normal;font-weight:600;font-stretch:normal;font-size:15px;font-family:'Latin Modern Sans Demi Cond';-inkscape-font-specification:'Latin Modern Sans Demi Cond Semi-Bold'"
           d="m 281.83134,767.89732 0,-6.33 c 0,-0.465 -0.09,-0.66 -0.66,-0.66 l -0.345,0 c -0.525,0 -0.66,0.15 -0.66,0.66 l 0,6.33 c 0,0.84 -0.105,2.58 -1.995,2.58 -1.815,0 -1.92,-1.71 -1.92,-2.565 l 0,-6.345 c 0,-0.465 -0.09,-0.66 -0.66,-0.66 l -0.495,0 c -0.525,0 -0.675,0.135 -0.675,0.675 l 0,6.315 c 0,2.1 1.215,3.705 3.735,3.705 2.535,0 3.675,-1.65 3.675,-3.705 z" />
        <path
           id="path4298"
           style="font-style:normal;font-variant:normal;font-weight:600;font-stretch:normal;font-size:15px;font-family:'Latin Modern Sans Demi Cond';-inkscape-font-specification:'Latin Modern Sans Demi Cond Semi-Bold'"
           d="m 292.18509,761.67232 c 0,-0.42 -0.045,-0.675 -0.66,-0.675 l -7.29,0 c -0.525,0 -0.675,0.135 -0.675,0.675 0,0.585 0.18,0.675 0.705,0.675 l 2.7,-0.045 0,8.34 c 0,0.525 0.135,0.675 0.675,0.675 l 0.495,0 c 0.525,0 0.66,-0.15 0.66,-0.66 l 0,-8.355 2.7,0.045 c 0.525,0 0.69,-0.105 0.69,-0.675 z" />
      </g>
      <g
         id="text4216"
         style="font-style:normal;font-weight:normal;font-size:36px;line-height:125%;font-family:Sans;letter-spacing:0px;word-spacing:0px;fill:#000000;fill-opacity:1;stroke:none;stroke-width:1px;stroke-linecap:butt;stroke-linejoin:miter;stroke-opacity:1">
        <path
           id="path4301"
           style="font-style:normal;font-variant:normal;font-weight:600;font-stretch:normal;font-size:15px;font-family:'Latin Modern Sans Demi Cond';-inkscape-font-specification:'Latin Modern Sans Demi Cond Semi-Bold'"
           d="m 478.63278,767.0955 0,-6.33 c 0,-0.465 -0.09,-0.66 -0.66,-0.66 l -0.345,0 c -0.525,0 -0.66,0.15 -0.66,0.66 l 0,6.33 c 0,0.84 -0.105,2.58 -1.995,2.58 -1.815,0 -1.92,-1.71 -1.92,-2.565 l 0,-6.345 c 0,-0.465 -0.09,-0.66 -0.66,-0.66 l -0.495,0 c -0.525,0 -0.675,0.135 -0.675,0.675 l 0,6.315 c 0,2.1 1.215,3.705 3.735,3.705 2.535,0 3.675,-1.65 3.675,-3.705 z" />
        <path
           id="path4303"
           style="font-style:normal;font-variant:normal;font-weight:600;font-stretch:normal;font-size:15px;font-family:'Latin Modern Sans Demi Cond';-inkscape-font-specification:'Latin Modern Sans Demi Cond Semi-Bold'"
           d="m 486.96153,767.5905 c 0,-0.48 -0.06,-1.335 -0.81,-2.22 -0.615,-0.72 -1.275,-0.885 -2.07,-1.095 -0.915,-0.24 -1.11,-0.3 -1.365,-0.54 -0.15,-0.165 -0.495,-0.495 -0.495,-1.125 0,-1.065 0.69,-1.485 1.62,-1.485 1.05,0 1.635,0.42 2.085,0.84 0.09,0.09 0.105,0.105 0.18,0.105 0.135,0 0.165,-0.135 0.18,-0.21 0.045,-0.195 0.195,-0.96 0.195,-1.11 0,-0.12 -0.015,-0.135 -0.36,-0.33 -0.51,-0.3 -1.155,-0.6 -2.295,-0.6 -2.325,0 -3.18,1.41 -3.18,3.015 0,1.2 0.69,1.935 0.765,2.01 0.69,0.72 1.155,0.84 1.995,1.05 0.315,0.09 0.855,0.225 0.975,0.27 0.45,0.18 1.005,0.72 1.005,1.59 0,0.72 -0.27,1.65 -1.605,1.65 -0.48,0 -1.62,-0.105 -2.685,-1.005 -0.165,-0.15 -0.195,-0.15 -0.24,-0.15 -0.135,0 -0.165,0.135 -0.18,0.21 -0.045,0.195 -0.195,0.96 -0.195,1.11 0,0.135 0.015,0.15 0.435,0.405 1.005,0.615 1.995,0.825 2.88,0.825 2.19,0 3.165,-1.38 3.165,-3.21 z" />
        <path
           id="path4305"
           style="font-style:normal;font-variant:normal;font-weight:600;font-stretch:normal;font-size:15px;font-family:'Latin Modern Sans Demi Cond';-inkscape-font-specification:'Latin Modern Sans Demi Cond Semi-Bold'"
           d="m 496.47669,767.6355 c 0,-1.095 -0.57,-2.25 -2.445,-2.565 1.245,-0.285 2.055,-1.095 2.055,-2.295 0,-1.365 -0.9,-2.67 -3.435,-2.67 l -3,0 c -0.525,0 -0.675,0.135 -0.675,0.675 l 0,9.06 c 0,0.525 0.135,0.675 0.675,0.675 l 3.375,0 c 2.625,0 3.45,-1.485 3.45,-2.88 z m -2.055,-4.83 c 0,0.945 -0.57,1.815 -2.22,1.815 l -1.485,0 0,-3.39 1.485,0 c 0.33,0 2.22,0 2.22,1.575 z m 0.345,4.8 c 0,1.17 -0.795,1.785 -2.19,1.785 l -1.86,0 0,-3.81 1.62,0 c 0.42,0 2.43,0 2.43,2.025 z" />
      </g>
      <g
         id="text4224"
         style="font-style:normal;font-weight:normal;font-size:36px;line-height:125%;font-family:Sans;letter-spacing:0px;word-spacing:0px;fill:#000000;fill-opacity:1;stroke:none;stroke-width:1px;stroke-linecap:butt;stroke-linejoin:miter;stroke-opacity:1">
        <path
           id="path4308"
           style="font-style:normal;font-variant:normal;font-weight:600;font-stretch:normal;font-size:15px;font-family:'Latin Modern Sans Demi Cond';-inkscape-font-specification:'Latin Modern Sans Demi Cond Semi-Bold'"
           d="m 391.91419,771.0582 0,-9.09 c 0,-0.465 -0.09,-0.66 -0.66,-0.66 l -0.96,0 c -0.675,0 -0.765,0.27 -0.885,0.63 l -1.455,4.215 -0.6,1.845 c -0.285,0.96 -0.45,1.515 -0.495,1.83 l -0.015,0 c -0.045,-0.345 -0.21,-0.945 -0.525,-1.95 l -0.66,-2.04 -1.35,-3.945 c -0.195,-0.585 -0.585,-0.585 -0.885,-0.585 l -0.93,0 c -0.525,0 -0.675,0.135 -0.675,0.675 l 0,9.06 c 0,0.525 0.135,0.675 0.675,0.675 l 0.225,0 c 0.525,0 0.66,-0.15 0.66,-0.66 l 0,-8.1 0.015,0 c 0.06,0.465 0.36,1.395 0.525,1.95 l 0.63,1.98 1.35,3.96 c 0.195,0.585 0.57,0.585 0.945,0.585 0.585,0 0.765,-0.09 0.945,-0.63 l 1.44,-4.17 c 0.06,-0.15 1.11,-3.405 1.125,-3.675 l 0,8.1 c 0,0.465 0.09,0.66 0.66,0.66 l 0.24,0 c 0.525,0 0.66,-0.15 0.66,-0.66 z" />
        <path
           id="path4310"
           style="font-style:normal;font-variant:normal;font-weight:600;font-stretch:normal;font-size:15px;font-family:'Latin Modern Sans Demi Cond';-inkscape-font-specification:'Latin Modern Sans Demi Cond Semi-Bold'"
           d="m 396.17325,771.0582 0,-9.09 c 0,-0.465 -0.09,-0.66 -0.66,-0.66 l -0.495,0 c -0.525,0 -0.675,0.135 -0.675,0.675 l 0,9.06 c 0,0.525 0.135,0.675 0.675,0.675 l 0.495,0 c 0.525,0 0.66,-0.15 0.66,-0.66 z" />
        <path
           id="path4312"
           style="font-style:normal;font-variant:normal;font-weight:600;font-stretch:normal;font-size:15px;font-family:'Latin Modern Sans Demi Cond';-inkscape-font-specification:'Latin Modern Sans Demi Cond Semi-Bold'"
           d="m 406.8863,766.5882 c 0,-1.56 -0.3,-2.73 -0.96,-3.675 -0.765,-1.11 -2.07,-1.605 -3.375,-1.605 l -3.27,0 c -0.525,0 -0.675,0.135 -0.675,0.675 l 0,9.06 c 0,0.525 0.135,0.675 0.675,0.675 l 3.285,0 c 1.05,0 2.31,-0.315 3.135,-1.275 0.93,-1.05 1.185,-2.445 1.185,-3.855 z m -1.785,0 c 0,1.2 0,4.005 -3.03,4.005 l -1.68,0 0,-8.16 1.665,0 c 3.045,0 3.045,2.94 3.045,4.155 z" />
        <path
           id="path4314"
           style="font-style:normal;font-variant:normal;font-weight:600;font-stretch:normal;font-size:15px;font-family:'Latin Modern Sans Demi Cond';-inkscape-font-specification:'Latin Modern Sans Demi Cond Semi-Bold'"
           d="m 410.7338,771.0582 0,-9.09 c 0,-0.465 -0.09,-0.66 -0.66,-0.66 l -0.495,0 c -0.525,0 -0.675,0.135 -0.675,0.675 l 0,9.06 c 0,0.525 0.135,0.675 0.675,0.675 l 0.495,0 c 0.525,0 0.66,-0.15 0.66,-0.66 z" />
        <path
           id="path4316"
           style="font-style:normal;font-variant:normal;font-weight:600;font-stretch:normal;font-size:15px;font-family:'Latin Modern Sans Demi Cond';-inkscape-font-specification:'Latin Modern Sans Demi Cond Semi-Bold'"
           d="m 419.72794,771.0582 0,-9.09 c 0,-0.465 -0.09,-0.66 -0.66,-0.66 l -0.495,0 c -0.525,0 -0.675,0.135 -0.675,0.675 l 0,9.06 c 0,0.525 0.135,0.675 0.675,0.675 l 0.495,0 c 0.525,0 0.66,-0.15 0.66,-0.66 z" />
        <path
           id="path4318"
           style="font-style:normal;font-variant:normal;font-weight:600;font-stretch:normal;font-size:15px;font-family:'Latin Modern Sans Demi Cond';-inkscape-font-specification:'Latin Modern Sans Demi Cond Semi-Bold'"
           d="m 429.88598,771.0582 0,-9.09 c 0,-0.465 -0.09,-0.66 -0.66,-0.66 l -0.24,0 c -0.525,0 -0.66,0.15 -0.66,0.66 l 0,8.16 -0.015,0 c -0.18,-0.585 -0.3,-0.84 -0.615,-1.59 l -2.835,-6.63 c -0.21,-0.495 -0.42,-0.6 -0.945,-0.6 l -1.08,0 c -0.525,0 -0.675,0.135 -0.675,0.675 l 0,9.06 c 0,0.525 0.135,0.675 0.675,0.675 l 0.225,0 c 0.525,0 0.66,-0.15 0.66,-0.66 l 0,-8.16 0.015,0 c 0.18,0.585 0.3,0.84 0.615,1.59 l 2.835,6.63 c 0.21,0.495 0.42,0.6 0.945,0.6 l 1.095,0 c 0.525,0 0.66,-0.15 0.66,-0.66 z" />
      </g>
      <g
         id="g4246"
         transform="matrix(0.17347225,0,0,0.17347226,277.89235,654.55755)"
         style="stroke-width:5.10644627;stroke-miterlimit:4;stroke-dasharray:none">
        <path
           id="path4234"
           d="m 176.40171,643.03003 a 37.284908,37.284908 0 0 1 -37.2849,37.28491 37.284908,37.284908 0 0 1 -37.28491,-37.28491 37.284908,37.284908 0 0 1 37.28491,-37.28491 37.284908,37.284908 0 0 1 37.2849,37.28491 z"
           style="opacity:1;fill:#ffffff;fill-opacity:1;stroke:#000000;stroke-width:5.10644627;stroke-linecap:round;stroke-linejoin:round;stroke-miterlimit:4;stroke-dasharray:none;stroke-dashoffset:0;stroke-opacity:1" />
        <path
           id="path4236"
           d="m 119.47208,645.43549 a 6.8155208,6.8155208 0 0 1 -6.81552,6.81552 6.8155208,6.8155208 0 0 1 -6.81552,-6.81552 6.8155208,6.8155208 0 0 1 6.81552,-6.81552 6.8155208,6.8155208 0 0 1 6.81552,6.81552 z"
           style="opacity:1;fill:#ffffff;fill-opacity:1;stroke:#000000;stroke-width:5.10644627;stroke-linecap:round;stroke-linejoin:round;stroke-miterlimit:4;stroke-dasharray:none;stroke-dashoffset:0;stroke-opacity:1" />
        <path
           id="circle4238"
           d="m 171.59076,645.43555 a 6.8155208,6.8155208 0 0 1 -6.81552,6.81552 6.8155208,6.8155208 0 0 1 -6.81552,-6.81552 6.8155208,6.8155208 0 0 1 6.81552,-6.81552 6.8155208,6.8155208 0 0 1 6.81552,6.81552 z"
           style="opacity:1;fill:#ffffff;fill-opacity:1;stroke:#000000;stroke-width:5.10644627;stroke-linecap:round;stroke-linejoin:round;stroke-miterlimit:4;stroke-dasharray:none;stroke-dashoffset:0;stroke-opacity:1" />
        <path
           id="circle4240"
           d="m 162.77068,625.38989 a 6.8155208,6.8155208 0 0 1 -6.81553,6.81552 6.8155208,6.8155208 0 0 1 -6.81552,-6.81552 6.8155208,6.8155208 0 0 1 6.81552,-6.81552 6.8155208,6.8155208 0 0 1 6.81553,6.81552 z"
           style="opacity:1;fill:#ffffff;fill-opacity:1;stroke:#000000;stroke-width:5.10644627;stroke-linecap:round;stroke-linejoin:round;stroke-miterlimit:4;stroke-dasharray:none;stroke-dashoffset:0;stroke-opacity:1" />
        <path
           id="circle4242"
           d="m 126.68851,627.79535 a 6.8155208,6.8155208 0 0 1 -6.81552,6.81552 6.8155208,6.8155208 0 0 1 -6.81552,-6.81552 6.8155208,6.8155208 0 0 1 6.81552,-6.81552 6.8155208,6.8155208 0 0 1 6.81552,6.81552 z"
           style="opacity:1;fill:#ffffff;fill-opacity:1;stroke:#000000;stroke-width:5.10644627;stroke-linecap:round;stroke-linejoin:round;stroke-miterlimit:4;stroke-dasharray:none;stroke-dashoffset:0;stroke-opacity:1" />
        <path
           id="circle4244"
           d="m 144.32867,618.97528 a 6.8155208,6.8155208 0 0 1 -6.81552,6.81552 6.8155208,6.8155208 0 0 1 -6.81552,-6.81552 6.8155208,6.8155208 0 0 1 6.81552,-6.81552 6.8155208,6.8155208 0 0 1 6.81552,6.81552 z"
           style="opacity:1;fill:#ffffff;fill-opacity:1;stroke:#000000;stroke-width:5.10644627;stroke-linecap:round;stroke-linejoin:round;stroke-miterlimit:4;stroke-dasharray:none;stroke-dashoffset:0;stroke-opacity:1" />
      </g>
      <g
         style="stroke-width:5.10644627;stroke-miterlimit:4;stroke-dasharray:none"
         transform="matrix(0.17347225,0,0,0.17347226,415.4055,654.55755)"
         id="g4254">
        <path
           id="circle4256"
           d="m 176.40171,643.03003 a 37.284908,37.284908 0 0 1 -37.2849,37.28491 37.284908,37.284908 0 0 1 -37.28491,-37.28491 37.284908,37.284908 0 0 1 37.28491,-37.28491 37.284908,37.284908 0 0 1 37.2849,37.28491 z"
           style="opacity:1;fill:#ffffff;fill-opacity:1;stroke:#000000;stroke-width:5.10644627;stroke-linecap:round;stroke-linejoin:round;stroke-miterlimit:4;stroke-dasharray:none;stroke-dashoffset:0;stroke-opacity:1" />
        <path
           id="circle4258"
           d="m 119.47208,645.43549 a 6.8155208,6.8155208 0 0 1 -6.81552,6.81552 6.8155208,6.8155208 0 0 1 -6.81552,-6.81552 6.8155208,6.8155208 0 0 1 6.81552,-6.81552 6.8155208,6.8155208 0 0 1 6.81552,6.81552 z"
           style="opacity:1;fill:#ffffff;fill-opacity:1;stroke:#000000;stroke-width:5.10644627;stroke-linecap:round;stroke-linejoin:round;stroke-miterlimit:4;stroke-dasharray:none;stroke-dashoffset:0;stroke-opacity:1" />
        <path
           id="circle4260"
           d="m 171.59076,645.43555 a 6.8155208,6.8155208 0 0 1 -6.81552,6.81552 6.8155208,6.8155208 0 0 1 -6.81552,-6.81552 6.8155208,6.8155208 0 0 1 6.81552,-6.81552 6.8155208,6.8155208 0 0 1 6.81552,6.81552 z"
           style="opacity:1;fill:#ffffff;fill-opacity:1;stroke:#000000;stroke-width:5.10644627;stroke-linecap:round;stroke-linejoin:round;stroke-miterlimit:4;stroke-dasharray:none;stroke-dashoffset:0;stroke-opacity:1" />
        <path
           id="circle4262"
           d="m 162.77068,625.38989 a 6.8155208,6.8155208 0 0 1 -6.81553,6.81552 6.8155208,6.8155208 0 0 1 -6.81552,-6.81552 6.8155208,6.8155208 0 0 1 6.81552,-6.81552 6.8155208,6.8155208 0 0 1 6.81553,6.81552 z"
           style="opacity:1;fill:#ffffff;fill-opacity:1;stroke:#000000;stroke-width:5.10644627;stroke-linecap:round;stroke-linejoin:round;stroke-miterlimit:4;stroke-dasharray:none;stroke-dashoffset:0;stroke-opacity:1" />
        <path
           id="circle4264"
           d="m 126.68851,627.79535 a 6.8155208,6.8155208 0 0 1 -6.81552,6.81552 6.8155208,6.8155208 0 0 1 -6.81552,-6.81552 6.8155208,6.8155208 0 0 1 6.81552,-6.81552 6.8155208,6.8155208 0 0 1 6.81552,6.81552 z"
           style="opacity:1;fill:#ffffff;fill-opacity:1;stroke:#000000;stroke-width:5.10644627;stroke-linecap:round;stroke-linejoin:round;stroke-miterlimit:4;stroke-dasharray:none;stroke-dashoffset:0;stroke-opacity:1" />
        <path
           id="circle4266"
           d="m 144.32867,618.97528 a 6.8155208,6.8155208 0 0 1 -6.81552,6.81552 6.8155208,6.8155208 0 0 1 -6.81552,-6.81552 6.8155208,6.8155208 0 0 1 6.81552,-6.81552 6.8155208,6.8155208 0 0 1 6.81552,6.81552 z"
           style="opacity:1;fill:#ffffff;fill-opacity:1;stroke:#000000;stroke-width:5.10644627;stroke-linecap:round;stroke-linejoin:round;stroke-miterlimit:4;stroke-dasharray:none;stroke-dashoffset:0;stroke-opacity:1" />
      </g>
    </g>
  </g>
</svg>
