<?xml version="1.0" encoding="UTF-8" standalone="no"?>
<!-- Created with Inkscape (http://www.inkscape.org/) -->

<svg
   xmlns:dc="http://purl.org/dc/elements/1.1/"
   xmlns:cc="http://creativecommons.org/ns#"
   xmlns:rdf="http://www.w3.org/1999/02/22-rdf-syntax-ns#"
   xmlns:svg="http://www.w3.org/2000/svg"
   xmlns="http://www.w3.org/2000/svg"
   xmlns:sodipodi="http://sodipodi.sourceforge.net/DTD/sodipodi-0.dtd"
   xmlns:inkscape="http://www.inkscape.org/namespaces/inkscape"
   width="297mm"
   height="210mm"
   viewBox="0 0 1052.3622 744.09448"
   id="svg2"
   version="1.1"
   inkscape:version="0.91 r13725"
   sodipodi:docname="bcf2000-lc2412a.svg"
   inkscape:export-filename="/home/janek/work/open-source/qlc/jano-qlcplus/resources/docs/images/bcf2000-lc2412.png"
   inkscape:export-xdpi="42.98"
   inkscape:export-ydpi="42.98">
  <defs
     id="defs4" />
  <sodipodi:namedview
     id="base"
     pagecolor="#ffffff"
     bordercolor="#666666"
     borderopacity="1.0"
     inkscape:pageopacity="0.0"
     inkscape:pageshadow="2"
     inkscape:zoom="1.2471534"
     inkscape:cx="493.55189"
     inkscape:cy="331.408"
     inkscape:document-units="mm"
     inkscape:current-layer="text4202"
     showgrid="false"
     showguides="false"
     inkscape:guide-bbox="true"
     inkscape:window-width="1920"
     inkscape:window-height="1135"
     inkscape:window-x="0"
     inkscape:window-y="0"
     inkscape:window-maximized="1">
    <sodipodi:guide
       position="72.966163,524.39417"
       orientation="0,1"
       id="guide4160" />
    <sodipodi:guide
       position="637.45165,236.53866"
       orientation="1,0"
       id="guide4162" />
    <sodipodi:guide
       position="850.73735,283.84639"
       orientation="1,0"
       id="guide4164" />
    <sodipodi:guide
       position="544.43983,659.90276"
       orientation="0,1"
       id="guide4166" />
    <sodipodi:guide
       position="16.036519,212.48388"
       orientation="0,1"
       id="guide4168" />
    <sodipodi:guide
       position="35.280343,382.47098"
       orientation="1,0"
       id="guide4170" />
    <sodipodi:guide
       position="318.32491,282.24274"
       orientation="1,0"
       id="guide4172" />
    <sodipodi:guide
       position="141.12137,35.280342"
       orientation="0,1"
       id="guide4174" />
    <sodipodi:guide
       position="354.40708,289.45917"
       orientation="1,0"
       id="guide4176" />
    <sodipodi:guide
       position="276.62996,283.84639"
       orientation="0,1"
       id="guide4178" />
    <sodipodi:guide
       position="602.1713,367.23629"
       orientation="1,0"
       id="guide4180" />
    <sodipodi:guide
       position="703.20138,177.20354"
       orientation="0,1"
       id="guide4182" />
    <sodipodi:guide
       position="683.15573,319.12673"
       orientation="0,1"
       id="guide4184" />
    <sodipodi:guide
       position="696.78677,497.13209"
       orientation="0,1"
       id="guide4186" />
    <sodipodi:guide
       position="436.19333,372.04724"
       orientation="0,1"
       id="guide4190" />
    <sodipodi:guide
       position="459.44628,448.22071"
       orientation="1,0"
       id="guide4192" />
    <sodipodi:guide
       position="494.72662,524.39417"
       orientation="1,0"
       id="guide4194" />
  </sodipodi:namedview>
  <metadata
     id="metadata7">
    <rdf:RDF>
      <cc:Work
         rdf:about="">
        <dc:format>image/svg+xml</dc:format>
        <dc:type
           rdf:resource="http://purl.org/dc/dcmitype/StillImage" />
        <dc:title></dc:title>
      </cc:Work>
    </rdf:RDF>
  </metadata>
  <g
     inkscape:label="Layer 1"
     inkscape:groupmode="layer"
     id="layer1"
     transform="translate(0,-308.26772)">
    <rect
       style="opacity:1;fill:#ffffff;fill-opacity:1;stroke:#000000;stroke-width:7.08661413;stroke-linecap:round;stroke-linejoin:round;stroke-miterlimit:4;stroke-dasharray:none;stroke-dashoffset:0;stroke-opacity:1"
       id="rect4232"
       width="69.758858"
       height="35.280338"
       x="713.62512"
       y="733.23547" />
    <path
       style="fill:none;fill-rule:evenodd;stroke:#404040;stroke-width:7.08661413;stroke-linecap:round;stroke-linejoin:round;stroke-opacity:1;stroke-miterlimit:4;stroke-dasharray:none;stroke-dashoffset:0"
       d="m 494.72661,768.51581 0,-88.20085 142.72503,0 0,0"
       id="path4196"
       inkscape:connector-curvature="0" />
    <path
       style="fill:none;fill-rule:evenodd;stroke:#808080;stroke-width:7.08661417;stroke-linecap:round;stroke-linejoin:round;stroke-opacity:1;stroke-miterlimit:4;stroke-dasharray:none"
       d="m 190.03275,768.51581 0,-87.39902 271.01717,0 0,89.8045 -0.80183,-0.80183"
       id="path4188"
       inkscape:connector-curvature="0"
       sodipodi:nodetypes="ccccc" />
    <rect
       style="opacity:1;fill:none;fill-opacity:1;stroke:#000000;stroke-width:10.62992126;stroke-linecap:round;stroke-linejoin:bevel;stroke-miterlimit:4;stroke-dasharray:none;stroke-dashoffset:0;stroke-opacity:1"
       id="rect4136"
       width="282.9765"
       height="176.33365"
       x="35.314373"
       y="768.54993" />
    <rect
       style="opacity:1;fill:#ffffff;fill-opacity:1;stroke:#000000;stroke-width:10.62992126;stroke-linecap:round;stroke-linejoin:bevel;stroke-miterlimit:4;stroke-dasharray:none;stroke-dashoffset:0;stroke-opacity:1"
       id="rect4138"
       width="247.77016"
       height="248.57199"
       x="354.40411"
       y="768.51282" />
    <rect
       style="opacity:1;fill:none;fill-opacity:1;stroke:#000000;stroke-width:10.62992126;stroke-linecap:round;stroke-linejoin:bevel;stroke-miterlimit:4;stroke-dasharray:none;stroke-dashoffset:0;stroke-opacity:1"
       id="rect4140"
       width="211.26996"
       height="70.148598"
       x="638.05859"
       y="769.12274" />
    <rect
       style="opacity:1;fill:none;fill-opacity:1;stroke:#000000;stroke-width:10.62992126;stroke-linecap:round;stroke-linejoin:bevel;stroke-miterlimit:4;stroke-dasharray:none;stroke-dashoffset:0;stroke-opacity:1"
       id="rect4142"
       width="212.52904"
       height="175.64503"
       x="638.2309"
       y="558.41486" />
    <text
       xml:space="preserve"
       style="font-style:normal;font-weight:normal;font-size:72px;line-height:125%;font-family:Sans;letter-spacing:0px;word-spacing:0px;fill:#000000;fill-opacity:1;stroke:none;stroke-width:10.62992126;stroke-linecap:butt;stroke-linejoin:miter;stroke-opacity:1;stroke-miterlimit:4;stroke-dasharray:none"
       x="184.41997"
       y="496.69681"
       id="text4148"
       sodipodi:linespacing="125%"><tspan
         sodipodi:role="line"
         id="tspan4150"
         x="184.41997"
         y="496.69681"
         style="-inkscape-font-specification:FontAwesome;font-family:FontAwesome;font-weight:normal;font-style:normal;font-stretch:normal;font-variant:normal;stroke:#000000;stroke-width:10.62992126;stroke-miterlimit:4;stroke-dasharray:none"></tspan></text>
    <flowRoot
       xml:space="preserve"
       id="flowRoot4152"
       style="fill:black;stroke:none;stroke-opacity:1;stroke-width:10.62992126;stroke-linejoin:miter;stroke-linecap:butt;fill-opacity:1;font-family:Sans;font-style:normal;font-weight:normal;font-size:72px;line-height:125%;letter-spacing:0px;word-spacing:0px;stroke-miterlimit:4;stroke-dasharray:none"><flowRegion
         id="flowRegion4154"><rect
           id="rect4156"
           width="194.04189"
           height="99.426422"
           x="117.86842"
           y="136.31041"
           style="stroke-width:10.62992126;stroke-miterlimit:4;stroke-dasharray:none" /></flowRegion><flowPara
         id="flowPara4158"></flowPara></flowRoot>    <g
       style="font-style:normal;font-weight:normal;font-size:72px;line-height:125%;font-family:Sans;letter-spacing:0px;word-spacing:0px;fill:#000000;fill-opacity:1;stroke:none;stroke-width:1px;stroke-linecap:butt;stroke-linejoin:miter;stroke-opacity:1"
       id="text4198">
      <path
         d="m 105.9952,878.77506 c 0,-1.84 0,-3.68 -3.36,-3.68 l -18.239995,0.32 0,-45.04 c 0,-2.48 -0.48,-3.52 -3.52,-3.52 l -2.64,0 c -2.8,0 -3.6,0.72 -3.6,3.6 l 0,48.32 c 0,2.8 0.72,3.6 3.6,3.6 l 24.239995,0 c 3.2,0 3.52,-1.2 3.52,-3.6 z"
         style="font-style:normal;font-variant:normal;font-weight:600;font-stretch:normal;font-size:80px;font-family:'Latin Modern Sans Demi Cond';-inkscape-font-specification:'Latin Modern Sans Demi Cond Semi-Bold'"
         id="path4303" />
      <path
         d="m 153.88895,877.73506 -0.48,-5.12 c -0.08,-0.4 -0.4,-0.8 -0.88,-0.8 0,0 -0.4,0.08 -0.56,0.16 -1.92,1.44 -3.92,2.72 -6.16,3.44 -2.32,0.72 -4.72,0.88 -7.12,0.88 -4.48,0 -8.72,-1.92 -11.36,-5.52 -3.36,-4.64 -4.08,-10.48 -4.08,-16.16 0,-5.76 0.72,-11.6 4.08,-16.16 2.64,-3.6 6.88,-5.52 11.36,-5.52 2.16,0 4.24,0.24 6.24,0.88 2,0.64 3.84,1.76 5.52,2.96 0.16,0.16 0.32,0.24 0.56,0.24 0.4,0 0.8,-0.32 0.88,-0.8 l 1.12,-6.32 c 0,-0.56 -0.24,-0.88 -0.56,-1.04 -2.16,-0.88 -4.4,-1.68 -6.72,-2.16 -2.32,-0.48 -4.64,-0.64 -7.04,-0.64 -7.04,0 -14,2.24 -18.64,7.52 -5.04,5.68 -6.56,13.44 -6.56,21.04 0,7.6 1.52,15.36 6.56,21.04 4.64,5.28 11.6,7.52 18.64,7.52 2.64,0 5.28,-0.16 7.84,-0.96 2.48,-0.72 4.8,-2.16 6.96,-3.68 0.24,-0.16 0.4,-0.4 0.4,-0.8 z"
         style="font-style:normal;font-variant:normal;font-weight:600;font-stretch:normal;font-size:80px;font-family:'Latin Modern Sans Demi Cond';-inkscape-font-specification:'Latin Modern Sans Demi Cond Semi-Bold'"
         id="path4305" />
      <path
         d="m 192.0027,878.85506 0,-0.48 c 0,-3.52 -1.12,-3.52 -5.6,-3.52 l -4.96,0.08 -9.76,0 c -0.88,0 -1.04,0 -1.6,0.08 l 7.76,-8.8 c 10.08,-10.8 14.16,-15.2 14.16,-23.04 0,-9.36 -5.84,-17.84 -16.24,-17.84 -4.24,0 -7.68,1.44 -10.24,4.16 -3.28,3.6 -4.48,8.56 -4.48,8.8 0,0.48 1.2,2.16 2.56,4.16 0.56,0.72 0.72,0.96 1.2,0.96 0.72,0 0.8,-0.4 1.12,-1.52 1.12,-4.72 3.04,-9.68 8.72,-9.68 7.92,0 8.16,9.76 8.16,11.04 0,5.76 -3.12,11.28 -6.8,15.92 l -13.68,17.2 c -0.72,0.8 -0.72,0.96 -0.72,2.4 0,2.8 0.72,3.6 3.6,3.6 l 23.28,0 c 2.8,0 3.52,-0.8 3.52,-3.52 z"
         style="font-style:normal;font-variant:normal;font-weight:600;font-stretch:normal;font-size:80px;font-family:'Latin Modern Sans Demi Cond';-inkscape-font-specification:'Latin Modern Sans Demi Cond Semi-Bold'"
         id="path4307" />
      <path
         d="m 231.65145,865.89506 c 0,-3.28 -1.84,-3.28 -3.52,-3.28 l -2.88,0 0,-32.24 c 0,-2.72 -0.72,-3.52 -3.52,-3.52 l -4.16,0 c -1.92,0 -2.48,0.08 -3.36,1.92 l -15.76,32.72 c -0.56,1.12 -0.56,1.28 -0.56,2.64 l 0,1.44 c 0,2.48 0.48,3.52 3.52,3.52 l 15.44,0 0,9.76 c 0,2.48 0.48,3.52 3.52,3.52 l 1.36,0 c 2.8,0 3.52,-0.8 3.52,-3.52 l 0,-9.76 2.88,0 c 1.6,0 3.52,0 3.52,-3.2 z m -14.32,-3.28 -12.4,0 c 1.28,-2.8 6.24,-12.64 9.92,-21.6 1.04,-2.48 2.4,-6 2.48,-6.96 l 0,28.56 z"
         style="font-style:normal;font-variant:normal;font-weight:600;font-stretch:normal;font-size:80px;font-family:'Latin Modern Sans Demi Cond';-inkscape-font-specification:'Latin Modern Sans Demi Cond Semi-Bold'"
         id="path4309" />
      <path
         d="m 266.4202,879.81506 c 0,-2.56 -2.48,-2.56 -3.52,-2.56 l -4.88,0 0,-48.4 c 0,-1.44 0,-3.52 -3.04,-3.52 -1.68,0 -2.08,0.48 -2.8,1.36 -3.36,4 -8.56,4.08 -10.24,4.16 -2.24,0.08 -2.8,1.68 -2.8,2.56 0,2.56 2.4,2.56 3.28,2.56 2.16,0 4.56,-0.48 6.64,-1.2 l 0,42.48 -5.36,0 c -1.04,0 -3.6,0 -3.6,2.56 0,2.56 2.56,2.56 3.6,2.56 l 19.2,0 c 1.04,0 3.52,0 3.52,-2.56 z"
         style="font-style:normal;font-variant:normal;font-weight:600;font-stretch:normal;font-size:80px;font-family:'Latin Modern Sans Demi Cond';-inkscape-font-specification:'Latin Modern Sans Demi Cond Semi-Bold'"
         id="path4311" />
      <path
         d="m 305.90895,878.85506 0,-0.48 c 0,-3.52 -1.12,-3.52 -5.6,-3.52 l -4.96,0.08 -9.76,0 c -0.88,0 -1.04,0 -1.6,0.08 l 7.76,-8.8 c 10.08,-10.8 14.16,-15.2 14.16,-23.04 0,-9.36 -5.84,-17.84 -16.24,-17.84 -4.24,0 -7.68,1.44 -10.24,4.16 -3.28,3.6 -4.48,8.56 -4.48,8.8 0,0.48 1.2,2.16 2.56,4.16 0.56,0.72 0.72,0.96 1.2,0.96 0.72,0 0.8,-0.4 1.12,-1.52 1.12,-4.72 3.04,-9.68 8.72,-9.68 7.92,0 8.16,9.76 8.16,11.04 0,5.76 -3.12,11.28 -6.8,15.92 l -13.68,17.2 c -0.72,0.8 -0.72,0.96 -0.72,2.4 0,2.8 0.72,3.6 3.6,3.6 l 23.28,0 c 2.8,0 3.52,-0.8 3.52,-3.52 z"
         style="font-style:normal;font-variant:normal;font-weight:600;font-stretch:normal;font-size:80px;font-family:'Latin Modern Sans Demi Cond';-inkscape-font-specification:'Latin Modern Sans Demi Cond Semi-Bold'"
         id="path4313" />
    </g>
    <g
       style="font-style:normal;font-weight:normal;font-size:72px;line-height:125%;font-family:Sans;text-align:center;letter-spacing:0px;word-spacing:0px;text-anchor:middle;fill:#000000;fill-opacity:1;stroke:none;stroke-width:1px;stroke-linecap:butt;stroke-linejoin:miter;stroke-opacity:1"
       id="text4202">
      <path
         d="m 447.70614,855.78948 c 0,-5.84 -3.04,-12 -13.04,-13.68 6.64,-1.52 10.96,-5.84 10.96,-12.24 0,-7.28 -4.8,-14.24 -18.32,-14.24 l -16,0 c -2.8,0 -3.6,0.72 -3.6,3.6 l 0,48.32 c 0,2.8 0.72,3.6 3.6,3.6 l 18,0 c 14,0 18.4,-7.92 18.4,-15.36 z m -10.96,-25.76 c 0,5.04 -3.04,9.68 -11.84,9.68 l -7.92,0 0,-18.08 7.92,0 c 1.76,0 11.84,0 11.84,8.4 z m 1.84,25.6 c 0,6.24 -4.24,9.52 -11.68,9.52 l -9.92,0 0,-20.32 8.64,0 c 2.24,0 12.96,0 12.96,10.8 z"
         style="font-style:normal;font-variant:normal;font-weight:600;font-stretch:normal;font-size:80px;font-family:'Latin Modern Sans Demi Cond';-inkscape-font-specification:'Latin Modern Sans Demi Cond Semi-Bold';text-align:center;text-anchor:middle"
         id="path4338" />
      <path
         d="m 496.64739,866.50948 -0.48,-5.12 c -0.08,-0.4 -0.4,-0.8 -0.88,-0.8 0,0 -0.4,0.08 -0.56,0.16 -1.92,1.44 -3.92,2.72 -6.16,3.44 -2.32,0.72 -4.72,0.88 -7.12,0.88 -4.48,0 -8.72,-1.92 -11.36,-5.52 -3.36,-4.64 -4.08,-10.48 -4.08,-16.16 0,-5.76 0.72,-11.6 4.08,-16.16 2.64,-3.6 6.88,-5.52 11.36,-5.52 2.16,0 4.24,0.24 6.24,0.88 2,0.64 3.84,1.76 5.52,2.96 0.16,0.16 0.32,0.24 0.56,0.24 0.4,0 0.8,-0.32 0.88,-0.8 l 1.12,-6.32 c 0,-0.56 -0.24,-0.88 -0.56,-1.04 -2.16,-0.88 -4.4,-1.68 -6.72,-2.16 -2.32,-0.48 -4.64,-0.64 -7.04,-0.64 -7.04,0 -14,2.24 -18.64,7.52 -5.04,5.68 -6.56,13.44 -6.56,21.04 0,7.6 1.52,15.36 6.56,21.04 4.64,5.28 11.6,7.52 18.64,7.52 2.64,0 5.28,-0.16 7.84,-0.96 2.48,-0.72 4.8,-2.16 6.96,-3.68 0.24,-0.16 0.4,-0.4 0.4,-0.8 z"
         style="font-style:normal;font-variant:normal;font-weight:600;font-stretch:normal;font-size:80px;font-family:'Latin Modern Sans Demi Cond';-inkscape-font-specification:'Latin Modern Sans Demi Cond Semi-Bold';text-align:center;text-anchor:middle"
         id="path4340" />
      <path
         d="m 540.52114,819.46948 c 0,-2.24 -0.24,-3.6 -3.52,-3.6 l -26.32,0 c -2.8,0 -3.6,0.72 -3.6,3.6 l 0,48.08 c 0,2.8 0.72,3.6 3.6,3.6 l 2.64,0 c 2.8,0 3.52,-0.8 3.52,-3.52 l 0,-20.88 17.04,0 c 1.6,0 3.52,0 3.52,-3.2 0,-3.28 -1.84,-3.28 -3.52,-3.28 l -17.04,0 0,-17.44 3.2,0 16.4,0.24 c 2.64,0 4.08,0 4.08,-3.6 z"
         style="font-style:normal;font-variant:normal;font-weight:600;font-stretch:normal;font-size:80px;font-family:'Latin Modern Sans Demi Cond';-inkscape-font-specification:'Latin Modern Sans Demi Cond Semi-Bold';text-align:center;text-anchor:middle"
         id="path4342" />
      <path
         d="m 430.69864,967.62948 0,-0.48 c 0,-3.52 -1.12,-3.52 -5.6,-3.52 l -4.96,0.08 -9.76,0 c -0.88,0 -1.04,0 -1.6,0.08 l 7.76,-8.8 c 10.08,-10.8 14.16,-15.2 14.16,-23.04 0,-9.36 -5.84,-17.84 -16.24,-17.84 -4.24,0 -7.68,1.44 -10.24,4.16 -3.28,3.6 -4.48,8.56 -4.48,8.8 0,0.48 1.2,2.16 2.56,4.16 0.56,0.72 0.72,0.96 1.2,0.96 0.72,0 0.8,-0.4 1.12,-1.52 1.12,-4.72 3.04,-9.68 8.72,-9.68 7.92,0 8.16,9.76 8.16,11.04 0,5.76 -3.12,11.28 -6.8,15.92 l -13.68,17.2 c -0.72,0.8 -0.72,0.96 -0.72,2.4 0,2.8 0.72,3.6 3.6,3.6 l 23.28,0 c 2.8,0 3.52,-0.8 3.52,-3.52 z"
         style="font-style:normal;font-variant:normal;font-weight:600;font-stretch:normal;font-size:80px;font-family:'Latin Modern Sans Demi Cond';-inkscape-font-specification:'Latin Modern Sans Demi Cond Semi-Bold';text-align:center;text-anchor:middle"
         id="path4344" />
      <path
         d="m 469.46739,943.70948 c 0,-9.84 0,-29.6 -16,-29.6 -16,0 -16,19.76 -16,29.6 0,9.84 0,28.96 16,28.96 16,0 16,-19.12 16,-28.96 z m -8.88,-1.12 c 0,12.8 0,24.96 -7.12,24.96 -7.12,0 -7.12,-12.16 -7.12,-24.96 0,-4.88 0,-10 0.48,-14.24 0.24,-1.76 1.12,-9.12 6.64,-9.12 7.12,0 7.12,11.04 7.12,23.36 z"
         style="font-style:normal;font-variant:normal;font-weight:600;font-stretch:normal;font-size:80px;font-family:'Latin Modern Sans Demi Cond';-inkscape-font-specification:'Latin Modern Sans Demi Cond Semi-Bold';text-align:center;text-anchor:middle"
         id="path4346" />
      <path
         d="m 507.43614,943.70948 c 0,-9.84 0,-29.6 -16,-29.6 -16,0 -16,19.76 -16,29.6 0,9.84 0,28.96 16,28.96 16,0 16,-19.12 16,-28.96 z m -8.88,-1.12 c 0,12.8 0,24.96 -7.12,24.96 -7.12,0 -7.12,-12.16 -7.12,-24.96 0,-4.88 0,-10 0.48,-14.24 0.24,-1.76 1.12,-9.12 6.64,-9.12 7.12,0 7.12,11.04 7.12,23.36 z"
         style="font-style:normal;font-variant:normal;font-weight:600;font-stretch:normal;font-size:80px;font-family:'Latin Modern Sans Demi Cond';-inkscape-font-specification:'Latin Modern Sans Demi Cond Semi-Bold';text-align:center;text-anchor:middle"
         id="path4348" />
      <path
         d="m 545.40489,943.70948 c 0,-9.84 0,-29.6 -16,-29.6 -16,0 -16,19.76 -16,29.6 0,9.84 0,28.96 16,28.96 16,0 16,-19.12 16,-28.96 z m -8.88,-1.12 c 0,12.8 0,24.96 -7.12,24.96 -7.12,0 -7.12,-12.16 -7.12,-24.96 0,-4.88 0,-10 0.48,-14.24 0.24,-1.76 1.12,-9.12 6.64,-9.12 7.12,0 7.12,11.04 7.12,23.36 z"
         style="font-style:normal;font-variant:normal;font-weight:600;font-stretch:normal;font-size:80px;font-family:'Latin Modern Sans Demi Cond';-inkscape-font-specification:'Latin Modern Sans Demi Cond Semi-Bold';text-align:center;text-anchor:middle"
         id="path4350" />
    </g>
    <g
       style="font-style:normal;font-weight:normal;font-size:72px;line-height:125%;font-family:Sans;letter-spacing:0px;word-spacing:0px;fill:#000000;fill-opacity:1;stroke:none;stroke-width:1px;stroke-linecap:butt;stroke-linejoin:miter;stroke-opacity:1"
       id="text4208">
      <path
         d="m 700.90368,648.35669 c 0,-3.01 -0.14,-11.06 -3.99,-17.22 -4.83,-7.7 -12.53,-8.75 -16.66,-8.75 -6.65,0 -12.6,2.73 -16.03,7.7 -2.59,3.85 -4.62,9.03 -4.62,18.27 0,6.09 0.84,13.51 5.74,19.18 3.15,3.64 8.47,6.09 14.91,6.09 1.96,0 2.38,0 4.69,-0.42 l 2.52,4.27 c 1.61,2.52 1.61,2.59 3.78,2.59 l 4.2,0 c 0.98,0 2.31,0 2.31,-1.47 0,-0.28 0,-0.42 -0.98,-1.96 l -4.48,-6.58 c 2.45,-1.61 4.83,-4.41 6.51,-8.68 1.96,-4.97 2.1,-10.57 2.1,-13.02 z m -8.33,-0.07 c 0,3.78 0,11.9 -3.99,16.52 l -3.5,-5.25 c -0.63,-0.84 -0.84,-0.84 -2.24,-0.84 l -3.22,0 c -0.98,0 -2.38,0 -2.38,1.47 0,0.42 0.7,1.68 1.19,2.45 l 1.68,2.73 1.82,3.08 c 0,0.28 -1.68,0.28 -1.68,0.28 -3.01,0 -7.56,-1.19 -10.15,-6.86 -1.96,-4.2 -2.17,-9.1 -2.17,-13.58 0,-5.04 0.21,-10.78 3.01,-15.61 1.96,-3.29 5.46,-5.39 9.31,-5.39 3.99,0 7.84,2.24 9.87,6.37 2.1,4.48 2.45,9.31 2.45,14.63 z"
         style="font-style:normal;font-variant:normal;font-weight:600;font-stretch:normal;font-size:70px;font-family:'Latin Modern Sans Demi Cond';-inkscape-font-specification:'Latin Modern Sans Demi Cond Semi-Bold'"
         id="path4329" />
      <path
         d="m 737.81227,669.14669 c 0,-1.61 0,-3.22 -2.94,-3.22 l -15.96,0.28 0,-39.41 c 0,-2.17 -0.42,-3.08 -3.08,-3.08 l -2.31,0 c -2.45,0 -3.15,0.63 -3.15,3.15 l 0,42.28 c 0,2.45 0.63,3.15 3.15,3.15 l 21.21,0 c 2.8,0 3.08,-1.05 3.08,-3.15 z"
         style="font-style:normal;font-variant:normal;font-weight:600;font-stretch:normal;font-size:70px;font-family:'Latin Modern Sans Demi Cond';-inkscape-font-specification:'Latin Modern Sans Demi Cond Semi-Bold'"
         id="path4331" />
      <path
         d="m 779.7193,668.23669 -0.42,-4.48 c -0.07,-0.35 -0.35,-0.7 -0.77,-0.7 0,0 -0.35,0.07 -0.49,0.14 -1.68,1.26 -3.43,2.38 -5.39,3.01 -2.03,0.63 -4.13,0.77 -6.23,0.77 -3.92,0 -7.63,-1.68 -9.94,-4.83 -2.94,-4.06 -3.57,-9.17 -3.57,-14.14 0,-5.04 0.63,-10.15 3.57,-14.14 2.31,-3.15 6.02,-4.83 9.94,-4.83 1.89,0 3.71,0.21 5.46,0.77 1.75,0.56 3.36,1.54 4.83,2.59 0.14,0.14 0.28,0.21 0.49,0.21 0.35,0 0.7,-0.28 0.77,-0.7 l 0.98,-5.53 c 0,-0.49 -0.21,-0.77 -0.49,-0.91 -1.89,-0.77 -3.85,-1.47 -5.88,-1.89 -2.03,-0.42 -4.06,-0.56 -6.16,-0.56 -6.16,0 -12.25,1.96 -16.31,6.58 -4.41,4.97 -5.74,11.76 -5.74,18.41 0,6.65 1.33,13.44 5.74,18.41 4.06,4.62 10.15,6.58 16.31,6.58 2.31,0 4.62,-0.14 6.86,-0.84 2.17,-0.63 4.2,-1.89 6.09,-3.22 0.21,-0.14 0.35,-0.35 0.35,-0.7 z"
         style="font-style:normal;font-variant:normal;font-weight:600;font-stretch:normal;font-size:70px;font-family:'Latin Modern Sans Demi Cond';-inkscape-font-specification:'Latin Modern Sans Demi Cond Semi-Bold'"
         id="path4333" />
      <path
         d="m 831.12883,653.81669 c 0,-2.45 -2.45,-2.45 -3.29,-2.45 l -16.38,0 0,-16.45 c 0,-0.84 0,-3.29 -2.45,-3.29 -2.45,0 -2.45,2.45 -2.45,3.29 l 0,16.45 -16.38,0 c -0.84,0 -3.29,0 -3.29,2.45 0,2.45 2.45,2.45 3.29,2.45 l 16.38,0 0,16.45 c 0,0.84 0,3.29 2.45,3.29 2.45,0 2.45,-2.45 2.45,-3.29 l 0,-16.45 16.38,0 c 0.84,0 3.29,0 3.29,-2.45 z"
         style="font-style:normal;font-variant:normal;font-weight:600;font-stretch:normal;font-size:70px;font-family:'Latin Modern Sans Demi Cond';-inkscape-font-specification:'Latin Modern Sans Demi Cond Semi-Bold'"
         id="path4335" />
    </g>
    <g
       style="font-style:normal;font-weight:normal;font-size:72px;line-height:125%;font-family:Sans;letter-spacing:0px;word-spacing:0px;fill:#000000;fill-opacity:1;stroke:none;stroke-width:1px;stroke-linecap:butt;stroke-linejoin:miter;stroke-opacity:1"
       id="text4212">
      <path
         d="m 38.656518,753.56477 0,-18.18 c 0,-0.93 -0.18,-1.32 -1.32,-1.32 l -1.92,0 c -1.35,0 -1.53,0.54 -1.77,1.26 l -2.91,8.43 -1.2,3.69 c -0.57,1.92 -0.9,3.03 -0.99,3.66 l -0.03,0 c -0.09,-0.69 -0.42,-1.89 -1.05,-3.9 l -1.32,-4.08 -2.7,-7.89 c -0.39,-1.17 -1.17,-1.17 -1.77,-1.17 l -1.86,0 c -1.05,0 -1.35,0.27 -1.35,1.35 l 0,18.12 c 0,1.05 0.27,1.35 1.35,1.35 l 0.45,0 c 1.05,0 1.32,-0.3 1.32,-1.32 l 0,-16.2 0.03,0 c 0.12,0.93 0.72,2.79 1.05,3.9 l 1.26,3.96 2.7,7.92 c 0.39,1.17 1.14,1.17 1.89,1.17 1.17,0 1.53,-0.18 1.89,-1.26 l 2.88,-8.34 c 0.12,-0.3 2.22,-6.81 2.25,-7.35 l 0,16.2 c 0,0.93 0.18,1.32 1.32,1.32 l 0.48,0 c 1.05,0 1.32,-0.3 1.32,-1.32 z"
         style="font-style:normal;font-variant:normal;font-weight:600;font-stretch:normal;font-size:30px;font-family:'Latin Modern Sans Demi Cond';-inkscape-font-specification:'Latin Modern Sans Demi Cond Semi-Bold'"
         id="path4288" />
      <path
         d="m 47.174643,753.56477 0,-18.18 c 0,-0.93 -0.18,-1.32 -1.32,-1.32 l -0.99,0 c -1.05,0 -1.35,0.27 -1.35,1.35 l 0,18.12 c 0,1.05 0.27,1.35 1.35,1.35 l 0.99,0 c 1.05,0 1.32,-0.3 1.32,-1.32 z"
         style="font-style:normal;font-variant:normal;font-weight:600;font-stretch:normal;font-size:30px;font-family:'Latin Modern Sans Demi Cond';-inkscape-font-specification:'Latin Modern Sans Demi Cond Semi-Bold'"
         id="path4290" />
      <path
         d="m 68.600737,744.62477 c 0,-3.12 -0.6,-5.46 -1.92,-7.35 -1.53,-2.22 -4.14,-3.21 -6.75,-3.21 l -6.54,0 c -1.05,0 -1.35,0.27 -1.35,1.35 l 0,18.12 c 0,1.05 0.27,1.35 1.35,1.35 l 6.57,0 c 2.1,0 4.62,-0.63 6.27,-2.55 1.86,-2.1 2.37,-4.89 2.37,-7.71 z m -3.57,0 c 0,2.4 0,8.01 -6.06,8.01 l -3.36,0 0,-16.32 3.33,0 c 6.09,0 6.09,5.88 6.09,8.31 z"
         style="font-style:normal;font-variant:normal;font-weight:600;font-stretch:normal;font-size:30px;font-family:'Latin Modern Sans Demi Cond';-inkscape-font-specification:'Latin Modern Sans Demi Cond Semi-Bold'"
         id="path4292" />
      <path
         d="m 76.295737,753.56477 0,-18.18 c 0,-0.93 -0.18,-1.32 -1.32,-1.32 l -0.99,0 c -1.05,0 -1.35,0.27 -1.35,1.35 l 0,18.12 c 0,1.05 0.27,1.35 1.35,1.35 l 0.99,0 c 1.05,0 1.32,-0.3 1.32,-1.32 z"
         style="font-style:normal;font-variant:normal;font-weight:600;font-stretch:normal;font-size:30px;font-family:'Latin Modern Sans Demi Cond';-inkscape-font-specification:'Latin Modern Sans Demi Cond Semi-Bold'"
         id="path4294" />
      <path
         d="m 107.51402,744.62477 c 0,-1.29 -0.06,-4.74 -1.71,-7.38 -2.07,-3.3 -5.37,-3.75 -7.140002,-3.75 -2.85,0 -5.4,1.17 -6.87,3.3 -1.11,1.65 -1.98,3.87 -1.98,7.83 0,2.61 0.36,5.79 2.46,8.22 1.35,1.56 3.63,2.61 6.39,2.61 2.100002,0 4.710002,-0.63 6.480002,-2.73 2.01,-2.37 2.37,-5.58 2.37,-8.1 z m -3.66,-0.48 c 0,1.89 -0.06,4.08 -0.9,6.06 -1.14,2.64 -3.180002,3.09 -4.290002,3.09 -1.14,0 -3.18,-0.48 -4.29,-3.12 -0.75,-1.77 -0.9,-3.63 -0.9,-6.03 0,-1.47 0,-4.14 1.11,-6.09 1.08,-1.95 2.82,-2.46 4.08,-2.46 0.93,0 2.970002,0.3 4.170002,2.61 0.99,1.92 1.02,4.23 1.02,5.94 z"
         style="font-style:normal;font-variant:normal;font-weight:600;font-stretch:normal;font-size:30px;font-family:'Latin Modern Sans Demi Cond';-inkscape-font-specification:'Latin Modern Sans Demi Cond Semi-Bold'"
         id="path4296" />
      <path
         d="m 126.39199,748.04477 0,-12.66 c 0,-0.93 -0.18,-1.32 -1.32,-1.32 l -0.69,0 c -1.05,0 -1.32,0.3 -1.32,1.32 l 0,12.66 c 0,1.68 -0.21,5.16 -3.99,5.16 -3.63,0 -3.84,-3.42 -3.84,-5.13 l 0,-12.69 c 0,-0.93 -0.18,-1.32 -1.32,-1.32 l -0.99,0 c -1.05,0 -1.35,0.27 -1.35,1.35 l 0,12.63 c 0,4.2 2.43,7.41 7.47,7.41 5.07,0 7.35,-3.3 7.35,-7.41 z"
         style="font-style:normal;font-variant:normal;font-weight:600;font-stretch:normal;font-size:30px;font-family:'Latin Modern Sans Demi Cond';-inkscape-font-specification:'Latin Modern Sans Demi Cond Semi-Bold'"
         id="path4298" />
      <path
         d="m 147.09949,735.59477 c 0,-0.84 -0.09,-1.35 -1.32,-1.35 l -14.58,0 c -1.05,0 -1.35,0.27 -1.35,1.35 0,1.17 0.36,1.35 1.41,1.35 l 5.4,-0.09 0,16.68 c 0,1.05 0.27,1.35 1.35,1.35 l 0.99,0 c 1.05,0 1.32,-0.3 1.32,-1.32 l 0,-16.71 5.4,0.09 c 1.05,0 1.38,-0.21 1.38,-1.35 z"
         style="font-style:normal;font-variant:normal;font-weight:600;font-stretch:normal;font-size:30px;font-family:'Latin Modern Sans Demi Cond';-inkscape-font-specification:'Latin Modern Sans Demi Cond Semi-Bold'"
         id="path4300" />
    </g>
    <text
       sodipodi:linespacing="125%"
       id="text4216"
       y="753.28113"
       x="502.74487"
       style="font-style:normal;font-weight:normal;font-size:72px;line-height:125%;font-family:Sans;letter-spacing:0px;word-spacing:0px;fill:#000000;fill-opacity:1;stroke:none;stroke-width:1px;stroke-linecap:butt;stroke-linejoin:miter;stroke-opacity:1"
       xml:space="preserve"><tspan
         style="font-style:normal;font-variant:normal;font-weight:600;font-stretch:normal;font-size:30px;font-family:'Latin Modern Sans Demi Cond';-inkscape-font-specification:'Latin Modern Sans Demi Cond Semi-Bold'"
         y="753.28113"
         x="502.74487"
         sodipodi:role="line"
         id="tspan4220">USB</tspan></text>
    <g
       style="font-style:normal;font-weight:normal;font-size:72px;line-height:125%;font-family:Sans;letter-spacing:0px;word-spacing:0px;fill:#000000;fill-opacity:1;stroke:none;stroke-width:1px;stroke-linecap:butt;stroke-linejoin:miter;stroke-opacity:1"
       id="text4224">
      <path
         d="m 346.55768,754.36658 0,-18.18 c 0,-0.93 -0.18,-1.32 -1.32,-1.32 l -1.92,0 c -1.35,0 -1.53,0.54 -1.77,1.26 l -2.91,8.43 -1.2,3.69 c -0.57,1.92 -0.9,3.03 -0.99,3.66 l -0.03,0 c -0.09,-0.69 -0.42,-1.89 -1.05,-3.9 l -1.32,-4.08 -2.7,-7.89 c -0.39,-1.17 -1.17,-1.17 -1.77,-1.17 l -1.86,0 c -1.05,0 -1.35,0.27 -1.35,1.35 l 0,18.12 c 0,1.05 0.27,1.35 1.35,1.35 l 0.45,0 c 1.05,0 1.32,-0.3 1.32,-1.32 l 0,-16.2 0.03,0 c 0.12,0.93 0.72,2.79 1.05,3.9 l 1.26,3.96 2.7,7.92 c 0.39,1.17 1.14,1.17 1.89,1.17 1.17,0 1.53,-0.18 1.89,-1.26 l 2.88,-8.34 c 0.12,-0.3 2.22,-6.81 2.25,-7.35 l 0,16.2 c 0,0.93 0.18,1.32 1.32,1.32 l 0.48,0 c 1.05,0 1.32,-0.3 1.32,-1.32 z"
         style="font-style:normal;font-variant:normal;font-weight:600;font-stretch:normal;font-size:30px;font-family:'Latin Modern Sans Demi Cond';-inkscape-font-specification:'Latin Modern Sans Demi Cond Semi-Bold'"
         id="path4316" />
      <path
         d="m 355.07581,754.36658 0,-18.18 c 0,-0.93 -0.18,-1.32 -1.32,-1.32 l -0.99,0 c -1.05,0 -1.35,0.27 -1.35,1.35 l 0,18.12 c 0,1.05 0.27,1.35 1.35,1.35 l 0.99,0 c 1.05,0 1.32,-0.3 1.32,-1.32 z"
         style="font-style:normal;font-variant:normal;font-weight:600;font-stretch:normal;font-size:30px;font-family:'Latin Modern Sans Demi Cond';-inkscape-font-specification:'Latin Modern Sans Demi Cond Semi-Bold'"
         id="path4318" />
      <path
         d="m 376.5019,745.42658 c 0,-3.12 -0.6,-5.46 -1.92,-7.35 -1.53,-2.22 -4.14,-3.21 -6.75,-3.21 l -6.54,0 c -1.05,0 -1.35,0.27 -1.35,1.35 l 0,18.12 c 0,1.05 0.27,1.35 1.35,1.35 l 6.57,0 c 2.1,0 4.62,-0.63 6.27,-2.55 1.86,-2.1 2.37,-4.89 2.37,-7.71 z m -3.57,0 c 0,2.4 0,8.01 -6.06,8.01 l -3.36,0 0,-16.32 3.33,0 c 6.09,0 6.09,5.88 6.09,8.31 z"
         style="font-style:normal;font-variant:normal;font-weight:600;font-stretch:normal;font-size:30px;font-family:'Latin Modern Sans Demi Cond';-inkscape-font-specification:'Latin Modern Sans Demi Cond Semi-Bold'"
         id="path4320" />
      <path
         d="m 384.1969,754.36658 0,-18.18 c 0,-0.93 -0.18,-1.32 -1.32,-1.32 l -0.99,0 c -1.05,0 -1.35,0.27 -1.35,1.35 l 0,18.12 c 0,1.05 0.27,1.35 1.35,1.35 l 0.99,0 c 1.05,0 1.32,-0.3 1.32,-1.32 z"
         style="font-style:normal;font-variant:normal;font-weight:600;font-stretch:normal;font-size:30px;font-family:'Latin Modern Sans Demi Cond';-inkscape-font-specification:'Latin Modern Sans Demi Cond Semi-Bold'"
         id="path4322" />
      <path
         d="m 402.18518,754.36658 0,-18.18 c 0,-0.93 -0.18,-1.32 -1.32,-1.32 l -0.99,0 c -1.05,0 -1.35,0.27 -1.35,1.35 l 0,18.12 c 0,1.05 0.27,1.35 1.35,1.35 l 0.99,0 c 1.05,0 1.32,-0.3 1.32,-1.32 z"
         style="font-style:normal;font-variant:normal;font-weight:600;font-stretch:normal;font-size:30px;font-family:'Latin Modern Sans Demi Cond';-inkscape-font-specification:'Latin Modern Sans Demi Cond Semi-Bold'"
         id="path4324" />
      <path
         d="m 422.50128,754.36658 0,-18.18 c 0,-0.93 -0.18,-1.32 -1.32,-1.32 l -0.48,0 c -1.05,0 -1.32,0.3 -1.32,1.32 l 0,16.32 -0.03,0 c -0.36,-1.17 -0.6,-1.68 -1.23,-3.18 l -5.67,-13.26 c -0.42,-0.99 -0.84,-1.2 -1.89,-1.2 l -2.16,0 c -1.05,0 -1.35,0.27 -1.35,1.35 l 0,18.12 c 0,1.05 0.27,1.35 1.35,1.35 l 0.45,0 c 1.05,0 1.32,-0.3 1.32,-1.32 l 0,-16.32 0.03,0 c 0.36,1.17 0.6,1.68 1.23,3.18 l 5.67,13.26 c 0.42,0.99 0.84,1.2 1.89,1.2 l 2.19,0 c 1.05,0 1.32,-0.3 1.32,-1.32 z"
         style="font-style:normal;font-variant:normal;font-weight:600;font-stretch:normal;font-size:30px;font-family:'Latin Modern Sans Demi Cond';-inkscape-font-specification:'Latin Modern Sans Demi Cond Semi-Bold'"
         id="path4326" />
    </g>
    <g
       id="g4246"
       transform="matrix(0.34694451,0,0,0.34694451,118.51399,521.36527)"
       style="stroke-width:5.10644627;stroke-miterlimit:4;stroke-dasharray:none">
      <circle
         r="37.284908"
         cy="643.03003"
         cx="139.11681"
         id="path4234"
         style="opacity:1;fill:#ffffff;fill-opacity:1;stroke:#000000;stroke-width:5.10644627;stroke-linecap:round;stroke-linejoin:round;stroke-miterlimit:4;stroke-dasharray:none;stroke-dashoffset:0;stroke-opacity:1" />
      <circle
         r="6.8155208"
         cy="645.43549"
         cx="112.65656"
         id="path4236"
         style="opacity:1;fill:#ffffff;fill-opacity:1;stroke:#000000;stroke-width:5.10644627;stroke-linecap:round;stroke-linejoin:round;stroke-miterlimit:4;stroke-dasharray:none;stroke-dashoffset:0;stroke-opacity:1" />
      <circle
         style="opacity:1;fill:#ffffff;fill-opacity:1;stroke:#000000;stroke-width:5.10644627;stroke-linecap:round;stroke-linejoin:round;stroke-miterlimit:4;stroke-dasharray:none;stroke-dashoffset:0;stroke-opacity:1"
         id="circle4238"
         cx="164.77524"
         cy="645.43555"
         r="6.8155208" />
      <circle
         r="6.8155208"
         cy="625.38989"
         cx="155.95515"
         id="circle4240"
         style="opacity:1;fill:#ffffff;fill-opacity:1;stroke:#000000;stroke-width:5.10644627;stroke-linecap:round;stroke-linejoin:round;stroke-miterlimit:4;stroke-dasharray:none;stroke-dashoffset:0;stroke-opacity:1" />
      <circle
         style="opacity:1;fill:#ffffff;fill-opacity:1;stroke:#000000;stroke-width:5.10644627;stroke-linecap:round;stroke-linejoin:round;stroke-miterlimit:4;stroke-dasharray:none;stroke-dashoffset:0;stroke-opacity:1"
         id="circle4242"
         cx="119.87299"
         cy="627.79535"
         r="6.8155208" />
      <circle
         r="6.8155208"
         cy="618.97528"
         cx="137.51315"
         id="circle4244"
         style="opacity:1;fill:#ffffff;fill-opacity:1;stroke:#000000;stroke-width:5.10644627;stroke-linecap:round;stroke-linejoin:round;stroke-miterlimit:4;stroke-dasharray:none;stroke-dashoffset:0;stroke-opacity:1" />
    </g>
    <g
       style="stroke-width:5.10644627;stroke-miterlimit:4;stroke-dasharray:none"
       transform="matrix(0.34694451,0,0,0.34694451,393.54029,521.36527)"
       id="g4254">
      <circle
         style="opacity:1;fill:#ffffff;fill-opacity:1;stroke:#000000;stroke-width:5.10644627;stroke-linecap:round;stroke-linejoin:round;stroke-miterlimit:4;stroke-dasharray:none;stroke-dashoffset:0;stroke-opacity:1"
         id="circle4256"
         cx="139.11681"
         cy="643.03003"
         r="37.284908" />
      <circle
         style="opacity:1;fill:#ffffff;fill-opacity:1;stroke:#000000;stroke-width:5.10644627;stroke-linecap:round;stroke-linejoin:round;stroke-miterlimit:4;stroke-dasharray:none;stroke-dashoffset:0;stroke-opacity:1"
         id="circle4258"
         cx="112.65656"
         cy="645.43549"
         r="6.8155208" />
      <circle
         r="6.8155208"
         cy="645.43555"
         cx="164.77524"
         id="circle4260"
         style="opacity:1;fill:#ffffff;fill-opacity:1;stroke:#000000;stroke-width:5.10644627;stroke-linecap:round;stroke-linejoin:round;stroke-miterlimit:4;stroke-dasharray:none;stroke-dashoffset:0;stroke-opacity:1" />
      <circle
         style="opacity:1;fill:#ffffff;fill-opacity:1;stroke:#000000;stroke-width:5.10644627;stroke-linecap:round;stroke-linejoin:round;stroke-miterlimit:4;stroke-dasharray:none;stroke-dashoffset:0;stroke-opacity:1"
         id="circle4262"
         cx="155.95515"
         cy="625.38989"
         r="6.8155208" />
      <circle
         r="6.8155208"
         cy="627.79535"
         cx="119.87299"
         id="circle4264"
         style="opacity:1;fill:#ffffff;fill-opacity:1;stroke:#000000;stroke-width:5.10644627;stroke-linecap:round;stroke-linejoin:round;stroke-miterlimit:4;stroke-dasharray:none;stroke-dashoffset:0;stroke-opacity:1" />
      <circle
         style="opacity:1;fill:#ffffff;fill-opacity:1;stroke:#000000;stroke-width:5.10644627;stroke-linecap:round;stroke-linejoin:round;stroke-miterlimit:4;stroke-dasharray:none;stroke-dashoffset:0;stroke-opacity:1"
         id="circle4266"
         cx="137.51315"
         cy="618.97528"
         r="6.8155208" />
    </g>
  </g>
</svg>
