<svg xmlns="http://www.w3.org/2000/svg" height="80" width="80"><path d="M40.692.006C18.605-.379.387 17.211.006 39.3c-.383 22.088 17.211 40.31 39.298 40.695 22.09.385 40.307-17.208 40.69-39.297C80.377 18.61 62.779.392 40.692.007zm-5.077 6.767c-6.017.48-10.162 3.605-12.643 9.53-1.923 4.593-1.206 8.812-.233 12.963.97 4.15-1.345 8.336-5.178 9.355-3.832 1.02-7.725-1.52-8.698-5.672-1.946-8.299 4.851-17.224 13.144-22.376 4.744-2.948 8.114-3.89 13.608-3.8zm14.428 1.66c7.34.112 14.74 6.225 19.248 13.482 2.949 4.746 3.891 8.117 3.804 13.608-.484-6.015-3.61-10.166-9.538-12.647-4.591-1.923-8.805-1.206-12.954-.233-4.152.973-8.34-1.345-9.359-5.178-1.019-3.832 1.514-7.73 5.665-8.702a12.838 12.838 0 0 1 3.134-.33zM64.056 41.16c3.325-.14 6.413 2.259 7.264 5.891 1.946 8.301-4.851 17.226-13.145 22.376-4.743 2.948-8.116 3.894-13.607 3.804 6.015-.482 10.162-3.611 12.643-9.534 1.923-4.593 1.206-8.808.233-12.96-.973-4.15 1.345-8.34 5.178-9.358.478-.128.959-.199 1.434-.219zM6.9 44.742c.482 6.017 3.61 10.164 9.534 12.647 4.592 1.923 8.808 1.21 12.959.237 4.149-.97 8.342 1.347 9.358 5.178 1.021 3.832-1.517 7.726-5.669 8.699-8.298 1.946-17.23-4.853-22.381-13.15-2.949-4.743-3.89-8.117-3.8-13.61z" fill="#df0071"/></svg>