<?xml version="1.0" encoding="utf-8"?>
<!-- Generator: Adobe Illustrator 27.9.0, SVG Export Plug-In . SVG Version: 6.00 Build 0)  -->
<svg version="1.1" id="Layer_2_00000011743469697914513040000000886858686760551314_"
	 xmlns="http://www.w3.org/2000/svg" xmlns:xlink="http://www.w3.org/1999/xlink" x="0px" y="0px" viewBox="0 0 256 256"
	 style="enable-background:new 0 0 256 256;" xml:space="preserve">
<style type="text/css">
	.st0{opacity:0.56;fill:#FFFFFF;}
</style>
<path class="st0" d="M124.7,19.1c2.1-1.1,4.5-1.1,6.6,0L213,63.7c2.2,1.2,3.6,3.5,3.6,6s-1.4,4.8-3.6,6l-81.7,44.6
	c-2.1,1.1-4.5,1.1-6.6,0L43,75.7c-2.2-1.2-3.6-3.5-3.6-6s1.4-4.8,3.6-6L124.7,19.1z M42.2,91.1l75.4,41.1c2.2,1.2,3.6,3.5,3.6,6
	v92.6c0,2.4-1.3,4.7-3.3,5.9s-4.7,1.3-6.8,0.1l-75.5-41.2c-2.2-1.2-3.6-3.5-3.6-6V97.1c0-2.4,1.3-4.7,3.3-5.9S40,89.9,42.2,91.1
	L42.2,91.1z M213.9,91.1c2.1-1.2,4.7-1.1,6.8,0.1s3.3,3.5,3.3,5.9v92.5c0,2.5-1.4,4.8-3.6,6L145,236.8c-2.1,1.2-4.7,1.1-6.8-0.1
	c-2.1-1.2-3.3-3.5-3.3-5.9v-92.5c0-2.5,1.4-4.8,3.6-6L213.9,91.1z"/>
</svg>
