<?xml version="1.0" encoding="utf-8"?>
<!-- Generator: Adobe Illustrator 27.3.1, SVG Export Plug-In . SVG Version: 6.00 Build 0)  -->
<svg version="1.1" id="svg3257" xmlns:svg="http://www.w3.org/2000/svg"
	 xmlns="http://www.w3.org/2000/svg" xmlns:xlink="http://www.w3.org/1999/xlink" x="0px" y="0px" viewBox="0 0 256 256"
	 style="enable-background:new 0 0 256 256;" xml:space="preserve">
<style type="text/css">
	
		.st0{fill-rule:evenodd;clip-rule:evenodd;fill:url(#path2262_00000068641955479697855050000010364265307027032239_);stroke:#699536;stroke-linejoin:round;}
	
		.st1{opacity:0.4;fill:none;stroke:url(#path3253_00000005954617829270361620000016959927539465393330_);enable-background:new    ;}
	.st2{fill:none;stroke:#F15A24;stroke-width:0.1;stroke-miterlimit:10;}
	.st3{fill:none;stroke:#1A1A1A;stroke-width:0.3;stroke-miterlimit:10;}
	.st4{fill:#224458;}
	.st5{fill:#FFD42A;}
</style>
<linearGradient id="path2262_00000072265432004807054970000004367145499791732875_" gradientUnits="userSpaceOnUse" x1="-44.6997" y1="228.6992" x2="-44.6997" y2="209.6492" gradientTransform="matrix(1.372 0 0 -1.3637 189.328 429.1881)">
	<stop  offset="0" style="stop-color:#D7E866"/>
	<stop  offset="1" style="stop-color:#8CAB2A"/>
</linearGradient>
<path id="path2262" style="fill-rule:evenodd;clip-rule:evenodd;fill:url(#path2262_00000072265432004807054970000004367145499791732875_);stroke:#699536;stroke-linejoin:round;" d="
	M122.5,122.5v-9h11v9h9v11h-9v9h-11v-9h-9v-11H122.5z"/>
<linearGradient id="path3253_00000095336843584646088660000002673440631506207637_" gradientUnits="userSpaceOnUse" x1="128" y1="145" x2="128" y2="114.93" gradientTransform="matrix(1 0 0 -1 0 258)">
	<stop  offset="0" style="stop-color:#FFFFFF"/>
	<stop  offset="1" style="stop-color:#FFFFFF;stop-opacity:0"/>
</linearGradient>
<path id="path3253" style="opacity:0.4;fill:none;stroke:url(#path3253_00000095336843584646088660000002673440631506207637_);enable-background:new    ;" d="
	M123.5,114.5v8c0,0.6-0.4,1-1,1h-8v9h8c0.6,0,1,0.4,1,1v8h9v-8c0-0.6,0.4-1,1-1h8v-9h-8c-0.6,0-1-0.4-1-1v-8H123.5z"/>
<g>
	<circle class="st2" cx="163.9" cy="137.1" r="20"/>
	<path class="st2" d="M180.9,155.1h-34c-0.6,0-1-0.5-1-1v-34c0-0.6,0.5-1,1-1h34c0.6,0,1,0.5,1,1v34
		C181.9,154.6,181.5,155.1,180.9,155.1z"/>
	<path class="st2" d="M182.9,153.1h-38c-0.6,0-1-0.5-1-1v-30c0-0.6,0.5-1,1-1h38c0.6,0,1,0.5,1,1v30
		C183.9,152.6,183.5,153.1,182.9,153.1z"/>
	<path class="st2" d="M147.9,156.1v-38c0-0.6,0.5-1,1-1h30c0.6,0,1,0.5,1,1v38c0,0.6-0.5,1-1,1h-30
		C148.4,157.1,147.9,156.6,147.9,156.1z"/>
	<path class="st2" d="M182.9,157.1h-38c-0.6,0-1-0.5-1-1v-38c0-0.6,0.5-1,1-1h38c0.6,0,1,0.5,1,1v38
		C183.9,156.6,183.5,157.1,182.9,157.1z"/>
	<rect x="139.9" y="113.1" class="st3" width="48" height="48"/>
</g>
<rect x="67.9" y="98.1" class="st4" width="31" height="24"/>
<g id="C">
	<path id="path102" class="st5" d="M88.8,118.5c-0.6-0.6-1.6-0.9-2.4-0.6c-1,0.3-2.1,0.4-3.2,0.4c-4.9-0.3-8.7-4.3-8.8-9.2
		c-0.1-5.2,4.1-9.4,9.3-9.4c5.1,0,9.3,4.2,9.4,9.3c0,0.8-0.1,1.7-0.3,2.4c-0.2,0.9,0,1.8,0.7,2.4l1.6,1.5c0.1,0.1,0.2,0.1,0.3,0
		c0-0.1,0.1-0.2,0.2-0.3c1-1.9,1.5-4,1.5-6.1c0-1.8-0.4-3.5-1.1-5.1c-0.7-1.6-1.6-3-2.8-4.2c-1.2-1.2-2.6-2.1-4.2-2.8
		c-1.6-0.7-3.3-1-5.1-1s-3.5,0.4-5.1,1.1c-1.6,0.7-3,1.6-4.2,2.8c-1.2,1.2-2.1,2.6-2.8,4.2c-0.7,1.6-1,3.3-1,5.1
		c0,1.8,0.4,3.5,1,5.1c0.7,1.6,1.6,3,2.8,4.2c1.2,1.2,2.6,2.1,4.2,2.8c1.6,0.7,3.3,1,5.1,1c2.3,0,4.5-0.6,6.5-1.7
		c0.1-0.1,0.1-0.2,0-0.3L88.8,118.5z"/>
</g>
</svg>
