<?xml version="1.0" encoding="utf-8"?>
<!-- Generator: Adobe Illustrator 27.9.0, SVG Export Plug-In . SVG Version: 6.00 Build 0)  -->
<svg version="1.1" id="Layer_1" xmlns="http://www.w3.org/2000/svg" xmlns:xlink="http://www.w3.org/1999/xlink" x="0px" y="0px"
	 viewBox="0 0 256 256" style="enable-background:new 0 0 256 256;" xml:space="preserve">
<style type="text/css">
	.st0{fill:#FF6F00;}
</style>
<g id="Layer_1_00000070112112768983345580000004384393531494159540_">
</g>
<g id="Layer_2_00000158745744873643745580000001441104016632524720_">
	<path class="st0" d="M201.1,30.5c6.7,0,12.2,5.4,12.2,12.2c0,22.8-11.5,41-26.4,55.8c-10.7,10.7-23.8,20.4-37.1,29.5l-1,0.6
		c-4.5,3.1-9.1,6.1-13.5,9.1l0,0l0,0l0,0l-0.6,0.4c-2.3,1.5-4.5,3-6.8,4.5c-8,5.3-15.5,10.6-22.6,15.8h45.2
		c-3.7-2.8-7.7-5.6-11.7-8.4l2.7-1.8l1.1-0.8c5.8-3.8,11.8-7.8,17.8-12c9.5,6.9,18.6,14.2,26.4,22c14.9,14.9,26.4,33.1,26.4,55.9
		c0,6.7-5.4,12.2-12.2,12.2s-12.2-5.4-12.2-12.2H67c0,6.7-5.4,12.2-12.2,12.2s-12.2-5.4-12.2-12.2c0-22.8,11.5-41,26.4-55.8
		c10.7-10.7,23.8-20.4,37.1-29.5c-13.3-9.1-26.4-18.8-37.1-29.5C54.2,83.6,42.7,65.4,42.7,42.7c0-6.7,5.4-12.2,12.2-12.2
		S67,35.9,67,42.7h122C189,35.9,194.4,30.5,201.1,30.5z M171.7,176.8H84.3c-3.8,4-7.1,8.1-9.7,12.2h106.7
		C178.8,184.9,175.5,180.8,171.7,176.8z M84.3,79.2h87.3c3.8-4.1,7.1-8.1,9.7-12.2H74.6C77.2,71.1,80.5,75.2,84.3,79.2z M105.4,97.5
		c7,5.3,14.6,10.5,22.6,15.8c8-5.3,15.5-10.6,22.6-15.8H105.4L105.4,97.5z"/>
</g>
</svg>
