<?xml version="1.0" encoding="UTF-8" standalone="no"?>
<!-- Created with Inkscape (http://www.inkscape.org/) -->

<svg
   xmlns:dc="http://purl.org/dc/elements/1.1/"
   xmlns:cc="http://creativecommons.org/ns#"
   xmlns:rdf="http://www.w3.org/1999/02/22-rdf-syntax-ns#"
   xmlns:svg="http://www.w3.org/2000/svg"
   xmlns="http://www.w3.org/2000/svg"
   xmlns:sodipodi="http://sodipodi.sourceforge.net/DTD/sodipodi-0.dtd"
   xmlns:inkscape="http://www.inkscape.org/namespaces/inkscape"
   width="48px"
   height="48px"
   id="svg2985"
   version="1.1"
   inkscape:version="0.48.4 r9939"
   sodipodi:docname="Nuovo documento 2">
  <defs
     id="defs2987" />
  <sodipodi:namedview
     id="base"
     pagecolor="#ffffff"
     bordercolor="#666666"
     borderopacity="1.0"
     inkscape:pageopacity="0.0"
     inkscape:pageshadow="2"
     inkscape:zoom="7"
     inkscape:cx="-3.850965"
     inkscape:cy="27.544845"
     inkscape:current-layer="layer1"
     showgrid="true"
     inkscape:grid-bbox="true"
     inkscape:document-units="px"
     inkscape:window-width="1366"
     inkscape:window-height="698"
     inkscape:window-x="-4"
     inkscape:window-y="-4"
     inkscape:window-maximized="1" />
  <metadata
     id="metadata2990">
    <rdf:RDF>
      <cc:Work
         rdf:about="">
        <dc:format>image/svg+xml</dc:format>
        <dc:type
           rdf:resource="http://purl.org/dc/dcmitype/StillImage" />
        <dc:title></dc:title>
      </cc:Work>
    </rdf:RDF>
  </metadata>
  <g
     id="layer1"
     inkscape:label="Layer 1"
     inkscape:groupmode="layer">
    <g
       id="g3868"
       transform="translate(0.01171733,2.8451478)">
      <g
         id="text3828"
         style="font-size:21.20495796px;font-style:normal;font-weight:normal;line-height:125%;letter-spacing:0px;word-spacing:0px;fill:#000000;fill-opacity:1;stroke:none;font-family:Sans"
         transform="scale(1.0627917,0.94091816)">
        <path
           style="fill:#000000"
           sodipodi:nodetypes="ccccccccccccc"
           inkscape:connector-curvature="0"
           id="path3844"
           d="m 8.5859162,5.7167565 -3.3073654,7.5872695 6.3427292,0 -3.0353638,-7.5872695 m -1.1803541,-1.741349 2.3710622,0 5.8914167,15.4584975 -1.703875,0 -1.878603,-4.816268 -7.2501846,0 -1.9731054,4.816268 -1.6409612,0 6.1842503,-15.4584975" />
      </g>
      <g
         id="text3832"
         style="font-size:36.38860321px;font-style:normal;font-weight:normal;line-height:125%;letter-spacing:0px;word-spacing:0px;fill:#000000;fill-opacity:1;stroke:none;font-family:Sans"
         transform="scale(0.75230103,1.3292551)">
        <path
           style="fill:#000000"
           sodipodi:nodetypes="ccccccccc"
           inkscape:connector-curvature="0"
           id="path3837"
           d="m 40.101671,2.6510997 22.440824,0 0,1.8168162 -9.816261,0 0,24.7106181 -3.20759,0 9.7e-5,-24.7106181 -9.41707,0 0,-1.8168162" />
      </g>
      <g
         id="text3839"
         style="font-size:21.48373032px;font-style:normal;font-weight:normal;line-height:125%;letter-spacing:0px;word-spacing:0px;fill:#000000;fill-opacity:1;stroke:none;font-family:Sans"
         transform="scale(1.0758595,0.92948938)">
        <path
           style="fill:#000000"
           sodipodi:nodetypes="ccccccccsccccccccc"
           inkscape:connector-curvature="0"
           id="path3847"
           transform="scale(0.9294894,1.0758595)"
           d="m 26.78125,18.28125 1.84375,0 -4.15625,-5.75 c 0,0 1.864044,-0.138237 1.375,-0.28125 l 1,-0.4375 c 0.940479,-0.234004 0.823434,-0.707966 1.3125,-1.3125 0.496564,-0.6045185 0.531237,-1.6771993 0.53125,-2.59375 -1.3e-5,-1.4040514 -0.958249,-2.4294559 -1.90625,-3.125 -0.948024,-0.6955171 -2.011387,-1.0624855 -3.9375,-1.0625 l -5.125,0 0,14.5625 1.6875,0 -2.5e-4,-13.0569197 3.43775,0.01967 c 1.098484,1.29e-5 2.34947,0.2204931 2.90625,0.656 0.564283,0.4290312 1.124989,1.1547228 1.125,2.0062499 -1.1e-5,0.8515479 -0.462508,2.0758468 -1.026786,2.5178568 -0.55678,0.435528 -2.620726,1.201441 -4.317059,0.74581" />
      </g>
      <g
         id="text3854"
         style="font-size:30.06591797px;font-style:normal;font-weight:normal;line-height:125%;letter-spacing:0px;word-spacing:0px;fill:#000000;fill-opacity:1;stroke:none;font-family:Sans"
         transform="scale(1.1108167,0.90023857)">
        <path
           style="fill:#000000"
           sodipodi:nodetypes="ccccccccccc"
           inkscape:connector-curvature="0"
           id="path3859"
           d="m 0.83342457,21.165649 2.64239643,0 11.789524,19.002592 0,-19.002592 2.157185,0 0,21.918171 -2.642414,0 -11.7895236,-19.113507 0,19.113507 -2.15716783,0 0,-21.918171" />
      </g>
      <g
         id="text3861"
         style="font-size:26.68771362px;font-style:normal;font-weight:normal;line-height:125%;letter-spacing:0px;word-spacing:0px;fill:#000000;fill-opacity:1;stroke:none;font-family:Sans"
         transform="scale(0.98600529,1.0141933)">
        <path
           style="fill:#000000"
           sodipodi:nodetypes="ccccccccccccc"
           inkscape:connector-curvature="0"
           id="path3866"
           d="m 22.816519,18.787472 12.503778,0 0,2.215289 -10.073982,0 0,6.449599 10.076011,0 0,2.018353 -10.076011,0 0,6.951338 10.106132,0 0,1.820869 -12.535928,0 0,-19.455448" />
      </g>
    </g>
  </g>
</svg>
