<?xml version="1.0" encoding="utf-8"?>
<!-- Generator: Adobe Illustrator 27.3.1, SVG Export Plug-In . SVG Version: 6.00 Build 0)  -->
<svg version="1.1" id="Layer_1" xmlns="http://www.w3.org/2000/svg" xmlns:xlink="http://www.w3.org/1999/xlink" x="0px" y="0px"
	 viewBox="0 0 256 256" style="enable-background:new 0 0 256 256;" xml:space="preserve">
<style type="text/css">
	.st0{fill:#FFD42A;}
</style>
<path class="st0" d="M219.2,34.3c2.9,2.1,4.8,5.9,4.8,9.6v27v99c0,16.5-16.1,29.9-36,29.9s-36-13.4-36-29.9s16.1-29.9,36-29.9
	c4.2,0,8.2,0.6,11.9,1.7V87.1L104,116v78.1c0,16.5-16.1,29.9-36,29.9s-36-13.4-36-29.9s16.1-29.9,36-29.9c4.2,0,8.2,0.6,11.9,1.7
	v-58.6v-27c0-5.2,3.3-10,8.6-11.5l120-36C212.5,31.4,216.2,32,219.2,34.3L219.2,34.3z"/>
</svg>
