<?xml version="1.0" encoding="utf-8"?>
<!-- Generator: Adobe Illustrator 27.3.1, SVG Export Plug-In . SVG Version: 6.00 Build 0)  -->
<svg version="1.1"
	 id="svg3049" xmlns:cc="http://creativecommons.org/ns#" xmlns:sodipodi="http://sodipodi.sourceforge.net/DTD/sodipodi-0.dtd" xmlns:svg="http://www.w3.org/2000/svg" xmlns:dc="http://purl.org/dc/elements/1.1/" xmlns:inkscape="http://www.inkscape.org/namespaces/inkscape" xmlns:rdf="http://www.w3.org/1999/02/22-rdf-syntax-ns#" sodipodi:docname="flag-green.svg"
	 xmlns="http://www.w3.org/2000/svg" xmlns:xlink="http://www.w3.org/1999/xlink" x="0px" y="0px" viewBox="0 0 256 256"
	 style="enable-background:new 0 0 256 256;" xml:space="preserve">
<style type="text/css">
	.st0{fill:#A9DC76;}
</style>
<sodipodi:namedview  bordercolor="#666666" borderlayer="true" borderopacity="1.0" fit-margin-bottom="0" fit-margin-left="0" fit-margin-right="0" fit-margin-top="0" id="base" inkscape:current-layer="layer1" inkscape:cx="5.6654844" inkscape:cy="8.6425719" inkscape:document-units="px" inkscape:object-nodes="true" inkscape:pageopacity="0.0" inkscape:pageshadow="2" inkscape:showpageshadow="false" inkscape:snap-bbox="true" inkscape:snap-smooth-nodes="false" inkscape:window-height="957" inkscape:window-maximized="1" inkscape:window-width="1920" inkscape:window-x="-4" inkscape:window-y="0" inkscape:zoom="24.411306" pagecolor="#ffffff" showgrid="true">
	<inkscape:grid  id="grid4085" type="xygrid"></inkscape:grid>
	<sodipodi:guide  id="guide4075" orientation="12,0" position="2.0000044,14.00003"></sodipodi:guide>
	<sodipodi:guide  id="guide4077" orientation="0,12" position="2.0000044,2.0000296"></sodipodi:guide>
	<sodipodi:guide  id="guide4079" orientation="-12,0" position="14.000004,2.0000296"></sodipodi:guide>
	<sodipodi:guide  id="guide4081" orientation="0,-12" position="7,14"></sodipodi:guide>
</sodipodi:namedview>
<path class="st0" d="M62.6,41.8c0-4.9-4-8.9-8.9-8.9s-8.9,4-8.9,8.9v14.9v106.4v18.4v32.7c0,4.9,4,8.9,8.9,8.9s8.9-4,8.9-8.9V177
	l29.8-7.5c15.3-3.8,31.4-2,45.5,5c16.4,8.2,35.5,9.2,52.6,2.7l12.9-4.8c4.6-1.7,7.7-6.2,7.7-11.1V57.5c0-8.5-9-14.1-16.6-10.3
	L191,49c-17.2,8.6-37.4,8.6-54.6,0c-13-6.5-28-8.2-42.2-4.6l-31.6,7.9V41.8z M62.6,70.6l35.9-9c10-2.5,20.6-1.3,29.9,3.3
	c20.4,10.2,44.1,11,65,2.5v89.8l-9.1,3.4c-12.5,4.7-26.4,4-38.4-2c-17.9-9-38.4-11.2-57.8-6.4l-25.5,6.4V70.6z"/>
</svg>
