<?xml version="1.0" encoding="utf-8"?>
<!-- Generator: Adobe Illustrator 27.9.0, SVG Export Plug-In . SVG Version: 6.00 Build 0)  -->
<svg version="1.1" id="svg2228" xmlns:svg="http://www.w3.org/2000/svg"
	 xmlns="http://www.w3.org/2000/svg" xmlns:xlink="http://www.w3.org/1999/xlink" x="0px" y="0px" viewBox="0 0 256 256"
	 style="enable-background:new 0 0 256 256;" xml:space="preserve">
<style type="text/css">
	.st0{opacity:0.56;fill:#FFFFFF;}
</style>
<path class="st0" d="M200.1,43.9H55.9c-13.3,0-24,10.8-24,24V188c0,13.3,10.8,24,24,24h144.2c13.3,0,24-10.8,24-24V67.9
	C224.1,54.7,213.3,43.9,200.1,43.9z M206.1,188l-1.9-2.4l-51.1-66.1c-1.7-2.2-4.4-3.5-7.1-3.5s-5.4,1.3-7.1,3.5l-31.2,40.3l-11.4-16
	c-1.7-2.4-4.4-3.8-7.3-3.8s-5.6,1.4-7.3,3.8l-30,42l-1.7,2.3V188V67.9c0-3.3,2.7-6,6-6h144.2c3.3,0,6,2.7,6,6L206.1,188L206.1,188z"
	/>
<circle class="st0" cx="86" cy="98" r="18"/>
</svg>
