<?xml version="1.0" encoding="utf-8"?>
<!-- Generator: Adobe Illustrator 27.3.1, SVG Export Plug-In . SVG Version: 6.00 Build 0)  -->
<svg version="1.1" id="svg11300" xmlns:svg="http://www.w3.org/2000/svg"
	 xmlns="http://www.w3.org/2000/svg" xmlns:xlink="http://www.w3.org/1999/xlink" x="0px" y="0px" viewBox="0 0 256 256"
	 style="enable-background:new 0 0 256 256;" xml:space="preserve">
<style type="text/css">
	.st0{fill:#224458;}
</style>
<g>
	<path class="st0" d="M137.1,91.4c8.4,0,15.2-6.8,15.2-15.2V57.9c0-8.4-6.8-15.2-15.2-15.2h-18.3c-8.4,0-15.2,6.8-15.2,15.2v18.3
		c0,8.4,6.8,15.2,15.2,15.2H137.1z M64,91.4c8.4,0,15.2-6.8,15.2-15.2V57.9c0-8.4-6.8-15.2-15.2-15.2H45.7
		c-8.4,0-15.2,6.8-15.2,15.2v18.3c0,8.4,6.8,15.2,15.2,15.2H64z M137.1,103.6h-18.3c-8.4,0-15.2,6.8-15.2,15.2v18.3
		c0,8.4,6.8,15.2,15.2,15.2h18.3c8.4,0,15.2-6.8,15.2-15.2v-18.3C152.4,110.4,145.6,103.6,137.1,103.6z M64,152.4
		c8.4,0,15.2-6.8,15.2-15.2v-18.3c0-8.4-6.8-15.2-15.2-15.2H45.7c-8.4,0-15.2,6.8-15.2,15.2v18.3c0,8.4,6.8,15.2,15.2,15.2H64z
		 M137.1,164.6h-18.3c-8.4,0-15.2,6.8-15.2,15.2v18.3c0,8.4,6.8,15.2,15.2,15.2h18.3c8.4,0,15.2-6.8,15.2-15.2v-18.3
		C152.4,171.4,145.6,164.6,137.1,164.6z M64,213.4c8.4,0,15.2-6.8,15.2-15.2v-18.3c0-8.4-6.8-15.2-15.2-15.2H45.7
		c-8.4,0-15.2,6.8-15.2,15.2v18.3c0,8.4,6.8,15.2,15.2,15.2H64z"/>
	<path class="st0" d="M210.3,91.4c8.4,0,15.2-6.8,15.2-15.2V57.9c0-8.4-6.8-15.2-15.2-15.2h-18.3c-8.4,0-15.2,6.8-15.2,15.2v18.3
		c0,8.4,6.8,15.2,15.2,15.2H210.3z M210.3,103.6h-18.3c-8.4,0-15.2,6.8-15.2,15.2v18.3c0,8.4,6.8,15.2,15.2,15.2h18.3
		c8.4,0,15.2-6.8,15.2-15.2v-18.3C225.6,110.4,218.8,103.6,210.3,103.6z M210.3,164.6h-18.3c-8.4,0-15.2,6.8-15.2,15.2v18.3
		c0,8.4,6.8,15.2,15.2,15.2h18.3c8.4,0,15.2-6.8,15.2-15.2v-18.3C225.6,171.4,218.8,164.6,210.3,164.6z"/>
</g>
</svg>
