<svg xmlns:svg="http://www.w3.org/2000/svg" xmlns="http://www.w3.org/2000/svg" xmlns:xlink="http://www.w3.org/1999/xlink" id="svg2" height="48" width="48" version="1"><defs id="defs4"><linearGradient id="linearGradient8074"><stop offset="0" id="stop8076" style="stop-color:#e4d915;stop-opacity:1"/><stop offset="1" id="stop8078" style="stop-color:#e49f14;stop-opacity:1"/></linearGradient><radialGradient id="radialGradient4354" gradientUnits="userSpaceOnUse" cy="19.03" cx="11.25" gradientTransform="matrix(1,0,0,0.28295,0,13.646)" r="8.06"><stop id="stop5107" offset="0"/><stop id="stop5109" stop-opacity="0" offset="1"/></radialGradient><linearGradient id="linearGradient5315" y2="40.23" gradientUnits="userSpaceOnUse" x2="34.74" gradientTransform="matrix(1.0046,0,0,1,-1.0377,0.047681)" y1="10.45" x1="17.5"><stop id="stop5115" stop-color="#fff" offset="0"/><stop id="stop5117" stop-color="#fff" stop-opacity="0" offset="1"/></linearGradient><linearGradient xlink:href="#linearGradient8074" id="linearGradient8082" x1="22.57" y1="19.37" x2="45.75" y2="19.37" gradientUnits="userSpaceOnUse"/></defs><metadata id="metadata7"/><path id="path8072" d="m45.62 19.37a11.47 10.57 0 1 1-22.93 0 11.47 10.57 0 1 1 22.93 0z" transform="matrix(0.99366507,0,0,0.99595255,0.21399199,4.7120477)" style="fill:url(#linearGradient8082);stroke-width:1.36;stroke:#ab4900"/><path d="m18.2 10.53 15.85 13.51-15.85 13.44 0-6.44-15.99 0 0-13.96 15.99 0 0-6.55z" id="path4348" style="fill:#008000;stroke-linecap:round;stroke-linejoin:round;stroke-width:0.87;stroke:#004b00"/><path d="m19.2 12.28 13.52 11.77-13.52 11.62 0-5.51-16.06 0 0-12.26 16.06 0 0-5.62z" id="path4360" style="fill:#008000;opacity:0.35;stroke-linecap:round;stroke-width:0.88;stroke:#00ad00"/><path d="m33.12 24.02c-22.89 0.41-7.91 0.01-30.49 0.18l0.01-6.52 15.99 0 0-6.02c8.22 6.93 5.78 4.78 14.5 12.36z" id="path4348-8" style="fill-opacity:0.45;fill:#00ef3f"/></svg>