<svg xmlns:svg="http://www.w3.org/2000/svg" xmlns="http://www.w3.org/2000/svg" xmlns:xlink="http://www.w3.org/1999/xlink" id="svg2" version="1.1" xml:space="preserve" width="320" height="320" viewBox="0 0 320 320"><metadata id="metadata8"/><defs id="defs6"><linearGradient id="linearGradient4639"><stop offset="0" id="stop4641" style="stop-color:#ffffff;stop-opacity:1"/><stop id="stop4647" offset="0.22" style="stop-color:#ffffff;stop-opacity:0.5"/><stop offset="1" id="stop4643" style="stop-color:#ffffff;stop-opacity:0"/></linearGradient><clipPath clipPathUnits="userSpaceOnUse" id="clipPath16"><path d="M0 256 256 256 256 0 0 0 0 256Z" id="path18"/></clipPath><clipPath clipPathUnits="userSpaceOnUse" id="clipPath28"><path d="M18.28 121.18C18.28 60.58 67.41 11.46 128 11.46l0 0c60.59 0 109.72 49.12 109.72 109.72l0 0c0 60.59-49.12 109.72-109.72 109.72l0 0C67.41 230.89 18.28 181.77 18.28 121.18" id="path30"/></clipPath><linearGradient x1="0" y1="0" x2="1" y2="0" gradientUnits="userSpaceOnUse" gradientTransform="matrix(219.43164,0,0,-219.43164,18.28418,121.17383)" spreadMethod="pad" id="linearGradient36"><stop offset="0" id="stop38" style="stop-color:#6e7f8f;stop-opacity:1"/><stop offset="1" id="stop40" style="stop-color:#eceef0;stop-opacity:1"/></linearGradient><clipPath clipPathUnits="userSpaceOnUse" id="clipPath48"><path d="M23.01 121.18C23.01 63.19 70.02 16.19 128 16.19l0 0c57.98 0 104.99 47 104.99 104.99l0 0c0 57.98-47 104.99-104.99 104.99l0 0C70.02 226.16 23.01 179.16 23.01 121.18" id="path50"/></clipPath><linearGradient x1="0" y1="0" x2="1" y2="0" gradientUnits="userSpaceOnUse" gradientTransform="matrix(-1.53e-5,207.13524,207.13524,1.53e-5,128.00049,17.133789)" spreadMethod="pad" id="linearGradient56"><stop offset="0" id="stop58" style="stop-color:#6e7f8f;stop-opacity:1"/><stop offset="1" id="stop60" style="stop-color:#eceef0;stop-opacity:1"/></linearGradient><clipPath clipPathUnits="userSpaceOnUse" id="clipPath68"><path d="m37.2 121.18c0-50.15 40.65-90.8 90.8-90.8l0 0c50.15 0 90.8 40.65 90.8 90.8l0 0c0 50.15-40.65 90.8-90.8 90.8l0 0c-50.15 0-90.8-40.65-90.8-90.8" id="path70"/></clipPath><linearGradient x1="0" y1="0" x2="1" y2="0" gradientUnits="userSpaceOnUse" gradientTransform="matrix(-1.53e-5,-180.44905,-180.44905,1.53e-5,127.99951,210.17578)" spreadMethod="pad" id="linearGradient76"><stop offset="0" id="stop78" style="stop-color:#6e7f8f;stop-opacity:1"/><stop offset="1" id="stop80" style="stop-color:#eceef0;stop-opacity:1"/></linearGradient><clipPath clipPathUnits="userSpaceOnUse" id="clipPath88"><path d="M0 256 256 256 256 0 0 0 0 256Z" id="path90"/></clipPath><clipPath clipPathUnits="userSpaceOnUse" id="clipPath100"><path d="M45.24 121.18C45.24 75.47 82.29 38.41 128 38.41l0 0c45.71 0 82.76 37.05 82.76 82.76l0 0c0 45.71-37.05 82.76-82.76 82.76l0 0c-45.71 0-82.76-37.05-82.76-82.76" id="path102"/></clipPath><radialGradient fx="0" fy="0" cx="0" cy="0" r="1" gradientUnits="userSpaceOnUse" gradientTransform="matrix(0,139.29678,139.29678,0,128,61.586914)" spreadMethod="pad" id="radialGradient108"><stop offset="0" id="stop110" style="stop-color:#01fafd;stop-opacity:1"/><stop offset="0.53" id="stop112" style="stop-color:#29abe2;stop-opacity:1"/><stop offset="0.69" id="stop114" style="stop-color:#29abe2;stop-opacity:1"/><stop offset="1" id="stop116" style="stop-color:#0071bc;stop-opacity:1"/></radialGradient><clipPath clipPathUnits="userSpaceOnUse" id="clipPath124"><path d="M0 256 256 256 256 0 0 0 0 256Z" id="path126"/></clipPath><clipPath clipPathUnits="userSpaceOnUse" id="clipPath132"><path d="m79.77 126.2 54.85 0 0-13.3-54.85 0 0 13.3z" id="path134"/></clipPath><clipPath clipPathUnits="userSpaceOnUse" id="clipPath148"><path d="m79.77 122.3 0-2.25 48.2-5.52c3.67 0 6.65 2.98 6.65 6.65l0 0c0 3.67-2.98 6.65-6.65 6.65l0 0-48.2-5.52z" id="path150"/></clipPath><linearGradient x1="0" y1="0" x2="1" y2="0" gradientUnits="userSpaceOnUse" gradientTransform="matrix(0,-23.025818,-23.025818,0,107.19727,139.85254)" spreadMethod="pad" id="linearGradient156"><stop offset="0" id="stop158" style="stop-color:#6e7f8f;stop-opacity:1"/><stop offset="1" id="stop160" style="stop-color:#eceef0;stop-opacity:1"/></linearGradient><clipPath clipPathUnits="userSpaceOnUse" id="clipPath168"><path d="M0 256 256 256 256 0 0 0 0 256Z" id="path170"/></clipPath><clipPath clipPathUnits="userSpaceOnUse" id="clipPath176"><path d="m121.35 176.42 13.3 0 0-63.35-13.3 0 0 63.35z" id="path178"/></clipPath><clipPath clipPathUnits="userSpaceOnUse" id="clipPath192"><path d="m121.35 121.35c0-3.67 2.98-6.65 6.65-6.65l0 0c3.67 0 6.65 2.98 6.65 6.65l0 0-5.53 56.7-2.25 0-5.52-56.7z" id="path194"/></clipPath><linearGradient x1="0" y1="0" x2="1" y2="0" gradientUnits="userSpaceOnUse" gradientTransform="matrix(0,-59.361511,-59.361511,0,128,179.76855)" spreadMethod="pad" id="linearGradient200"><stop offset="0" id="stop202" style="stop-color:#6e7f8f;stop-opacity:1"/><stop offset="1" id="stop204" style="stop-color:#eceef0;stop-opacity:1"/></linearGradient><clipPath clipPathUnits="userSpaceOnUse" id="clipPath262"><path d="m124.16 121.18c0-2.12 1.72-3.84 3.84-3.84l0 0c2.12 0 3.84 1.72 3.84 3.84l0 0c0 2.12-1.72 3.84-3.84 3.84l0 0c-2.12 0-3.84-1.72-3.84-3.84" id="path264"/></clipPath><linearGradient x1="0" y1="0" x2="1" y2="0" gradientUnits="userSpaceOnUse" gradientTransform="matrix(0,7.8104858,7.8104858,0,128.00049,117.33594)" spreadMethod="pad" id="linearGradient270"><stop offset="0" id="stop272" style="stop-color:#6e7f8f;stop-opacity:1"/><stop offset="0.18" id="stop274" style="stop-color:#6e7f8f;stop-opacity:1"/><stop offset="1" id="stop276" style="stop-color:#eceef0;stop-opacity:1"/></linearGradient><clipPath clipPathUnits="userSpaceOnUse" id="clipPath364"><path d="M179.87 233.53 233.06 180.33c14.69 14.69 14.69 38.51 0 53.2l0 0c-7.34 7.34-16.97 11.02-26.6 11.02l0 0c-9.63 0-19.25-3.67-26.6-11.02" id="path366"/></clipPath><linearGradient x1="0" y1="0" x2="1" y2="0" gradientUnits="userSpaceOnUse" gradientTransform="matrix(55.18898,-55.18898,-55.18898,-55.18898,191.98828,247.99951)" spreadMethod="pad" id="linearGradient372"><stop offset="0" id="stop374" style="stop-color:#6e7f8f;stop-opacity:1"/><stop offset="0.5" id="stop376" style="stop-color:#eceef0;stop-opacity:1"/><stop offset="0.64" id="stop378" style="stop-color:#eceef0;stop-opacity:1"/><stop offset="1" id="stop380" style="stop-color:#8896a3;stop-opacity:1"/></linearGradient><clipPath clipPathUnits="userSpaceOnUse" id="clipPath388"><path d="M22.94 233.53C8.25 218.84 8.25 195.02 22.94 180.33l0 0 53.2 53.2c-7.35 7.34-16.97 11.02-26.6 11.02l0 0c-9.63 0-19.25-3.67-26.6-11.02" id="path390"/></clipPath><linearGradient x1="0" y1="0" x2="1" y2="0" gradientUnits="userSpaceOnUse" gradientTransform="matrix(-55.18898,-55.18898,55.18898,-55.18898,64.012695,247.99951)" spreadMethod="pad" id="linearGradient396"><stop offset="0" id="stop398" style="stop-color:#6e7f8f;stop-opacity:1"/><stop offset="0.5" id="stop400" style="stop-color:#eceef0;stop-opacity:1"/><stop offset="0.64" id="stop402" style="stop-color:#eceef0;stop-opacity:1"/><stop offset="1" id="stop404" style="stop-color:#8896a3;stop-opacity:1"/></linearGradient><linearGradient xlink:href="#linearGradient4639" id="linearGradient4645" x1="-179.91" y1="151.71" x2="-150.41" y2="58.78" gradientUnits="userSpaceOnUse"/></defs><g id="g10" transform="matrix(1.25,0,0,-1.25,0,320)"><g id="g12"><g id="g14" clip-path="url(#clipPath16)"><g id="g20" transform="translate(241.4902,171.9004)"><path d="m0 0c9.36 9.36 14.51 21.8 14.51 35.03 0 13.23-5.15 25.67-14.51 35.03-9.36 9.36-21.8 14.51-35.03 14.51-13.23 0-25.67-5.15-35.03-14.51l-5.28-5.28c-12.01 3.98-24.83 6.14-38.15 6.14-13.32 0-26.15-2.16-38.15-6.14l-5.28 5.28c-9.36 9.36-21.8 14.51-35.03 14.51-13.23 0-25.67-5.15-35.03-14.51-9.36-9.36-14.51-21.8-14.51-35.03 0-13.23 5.15-25.67 14.51-35.03l2.04-2.03c-6.54-14.92-10.18-31.39-10.18-48.69 0-67.07 54.57-121.64 121.64-121.64 67.07 0 121.64 54.57 121.64 121.64 0 17.31-3.64 33.77-10.18 48.69L0 0Z" id="path22" fill="#000"/></g></g></g><g id="g24"><g id="g26" clip-path="url(#clipPath28)"><g id="g32"><g id="g34"><path d="M18.28 121.18C18.28 60.58 67.41 11.46 128 11.46l0 0c60.59 0 109.72 49.12 109.72 109.72l0 0c0 60.59-49.12 109.72-109.72 109.72l0 0C67.41 230.89 18.28 181.77 18.28 121.18" id="path42" fill="url(#linearGradient36)"/></g></g></g></g><g id="g44"><g id="g46" clip-path="url(#clipPath48)"><g id="g52"><g id="g54"><path d="M23.01 121.18C23.01 63.19 70.02 16.19 128 16.19l0 0c57.98 0 104.99 47 104.99 104.99l0 0c0 57.98-47 104.99-104.99 104.99l0 0C70.02 226.16 23.01 179.16 23.01 121.18" id="path62" fill="url(#linearGradient56)"/></g></g></g></g><g id="g64"><g id="g66" clip-path="url(#clipPath68)"><g id="g72"><g id="g74"><path d="m37.2 121.18c0-50.15 40.65-90.8 90.8-90.8l0 0c50.15 0 90.8 40.65 90.8 90.8l0 0c0 50.15-40.65 90.8-90.8 90.8l0 0c-50.15 0-90.8-40.65-90.8-90.8" id="path82" fill="url(#linearGradient76)"/></g></g></g></g><g id="g84"><g id="g86" clip-path="url(#clipPath88)"><g id="g92" transform="translate(213.124,121.1748)"><path d="m0 0c0-47.01-38.11-85.12-85.12-85.12-47.01 0-85.12 38.11-85.12 85.13 0 47.01 38.11 85.12 85.12 85.12C-38.11 85.12 0 47.01 0 0" id="path94" fill="#6e7f8f"/></g></g></g><g id="g96"><g id="g98" clip-path="url(#clipPath100)"><g id="g104"><g id="g106"><path d="M45.24 121.18C45.24 75.47 82.29 38.41 128 38.41l0 0c45.71 0 82.76 37.05 82.76 82.76l0 0c0 45.71-37.05 82.76-82.76 82.76l0 0c-45.71 0-82.76-37.05-82.76-82.76" id="path118" fill="url(#radialGradient108)"/></g></g></g></g><g id="g120"><g id="g122" clip-path="url(#clipPath124)"><g id="g128"><g id="g130"/><g id="g136"><g clip-path="url(#clipPath132)" id="g138" opacity="0.5"><g transform="translate(79.7739,120.6768)" id="g140"><path d="m0 0 48.2 5.52c3.67 0 6.65-2.98 6.65-6.65 0-3.67-2.98-6.65-6.65-6.65L0-2.25 0 0Z" id="path142" fill="#000"/></g></g></g></g></g></g><g id="g144"><g id="g146" clip-path="url(#clipPath148)"><g id="g152"><g id="g154"><path d="m79.77 122.3 0-2.25 48.2-5.52c3.67 0 6.65 2.98 6.65 6.65l0 0c0 3.67-2.98 6.65-6.65 6.65l0 0-48.2-5.52z" id="path162" fill="url(#linearGradient156)"/></g></g></g></g><g id="g164"><g id="g166" clip-path="url(#clipPath168)"><g id="g172"><g id="g174"/><g id="g180"><g clip-path="url(#clipPath176)" id="g182" opacity="0.5"><g transform="translate(129.124,176.418)" id="g184"><path d="m0 0 5.53-56.69c0-3.67-2.98-6.65-6.65-6.65-3.67 0-6.65 2.98-6.65 6.65L-2.25 0 0 0Z" id="path186" fill="#000"/></g></g></g></g></g></g><g id="g188"><g id="g190" clip-path="url(#clipPath192)"><g id="g196"><g id="g198"><path d="m121.35 121.35c0-3.67 2.98-6.65 6.65-6.65l0 0c3.67 0 6.65 2.98 6.65 6.65l0 0-5.53 56.7-2.25 0-5.52-56.7z" id="path206" fill="url(#linearGradient200)"/></g></g></g></g><g id="g258"><g id="g260" clip-path="url(#clipPath262)"><g id="g266"><g id="g268"><path d="m124.16 121.18c0-2.12 1.72-3.84 3.84-3.84l0 0c2.12 0 3.84 1.72 3.84 3.84l0 0c0 2.12-1.72 3.84-3.84 3.84l0 0c-2.12 0-3.84-1.72-3.84-3.84" id="path278" fill="url(#linearGradient270)"/></g></g></g></g><g id="g360"><g id="g362" clip-path="url(#clipPath364)"><g id="g368"><g id="g370"><path d="M179.87 233.53 233.06 180.33c14.69 14.69 14.69 38.51 0 53.2l0 0c-7.34 7.34-16.97 11.02-26.6 11.02l0 0c-9.63 0-19.25-3.67-26.6-11.02" id="path382" fill="url(#linearGradient372)"/></g></g></g></g><path id="path4611" transform="matrix(-0.95660726,-0.29138042,-0.29138042,0.95660726,0,0)" d="m-82.4 79.6a75.17 75.17 0 0 1-37.58 65.1 75.17 75.17 0 0 1-75.17 0 75.17 75.17 0 0 1-37.58-65.1l75.17 0z" fill="url(#linearGradient4645)"/><g id="g384"><g id="g386" clip-path="url(#clipPath388)"><g id="g392"><g id="g394"><path d="M22.94 233.53C8.25 218.84 8.25 195.02 22.94 180.33l0 0 53.2 53.2c-7.35 7.34-16.97 11.02-26.6 11.02l0 0c-9.63 0-19.25-3.67-26.6-11.02" id="path406" fill="url(#linearGradient396)"/></g></g></g></g></g></svg>