<?xml version="1.0" encoding="utf-8"?>
<!-- Generator: Adobe Illustrator 27.3.1, SVG Export Plug-In . SVG Version: 6.00 Build 0)  -->
<svg version="1.1" id="Layer_2_00000034793775180234407530000002257300984734935977_"
	 xmlns="http://www.w3.org/2000/svg" xmlns:xlink="http://www.w3.org/1999/xlink" x="0px" y="0px" viewBox="0 0 256 256"
	 style="enable-background:new 0 0 256 256;" xml:space="preserve">
<style type="text/css">
	.st0{fill:#43BCCD;}
	.st1{fill:#FF595E;}
	.st2{fill:#8AC926;}
	.st3{fill:#EBA25C;}
</style>
<rect x="66.6" y="128.5" class="st0" width="26.7" height="32"/>
<rect x="162.7" y="128.5" class="st1" width="26.6" height="32"/>
<rect x="114.7" y="43.2" class="st2" width="26.7" height="32"/>
<path class="st3" d="M114.7,43.2h-13.3c-8.8,0-16,7.2-16,16v37.3c0,11.8,9.6,21.3,21.3,21.3h42.7c11.8,0,21.3-9.6,21.3-21.3V59.2
	c0-8.8-7.2-16-16-16h-13.3v26.7c0,2.9-2.4,5.3-5.3,5.3h-16c-2.9,0-5.3-2.4-5.3-5.3L114.7,43.2L114.7,43.2z M53.3,128.5
	c-11.8,0-21.3,9.6-21.3,21.3v42.7c0,11.8,9.6,21.3,21.3,21.3h53.3c11.8,0,21.3-9.6,21.3-21.3v-42.7c0-11.8-9.6-21.3-21.3-21.3H93.3
	v26.7c0,2.9-2.4,5.3-5.3,5.3H72c-2.9,0-5.3-2.4-5.3-5.3v-26.7H53.3z M149.3,213.8h53.3c11.8,0,21.3-9.6,21.3-21.3v-42.7
	c0-11.8-9.6-21.3-21.3-21.3h-13.3v26.7c0,2.9-2.4,5.3-5.3,5.3h-16c-2.9,0-5.3-2.4-5.3-5.3v-26.7h-13.3c-5,0-9.6,1.7-13.2,4.6
	c1.6,3.5,2.6,7.3,2.6,11.4v53.3c0,4.1-0.9,7.9-2.6,11.4C139.7,212.1,144.3,213.8,149.3,213.8z"/>
</svg>
