<svg xmlns:svg="http://www.w3.org/2000/svg" xmlns="http://www.w3.org/2000/svg" xmlns:xlink="http://www.w3.org/1999/xlink" width="48" height="48" id="svg2" version="1"><defs id="defs4"><linearGradient id="linearGradient3310"><stop offset="0" id="stop3312" style="stop-color:#c17d11;stop-opacity:1"/><stop offset="1" id="stop3314" style="stop-color:#e9b96e;stop-opacity:1"/></linearGradient><linearGradient id="linearGradient3301"><stop offset="0" id="stop3304" style="stop-color:#ffffff;stop-opacity:1"/><stop offset="1" id="stop3306" style="stop-color:#ffffff;stop-opacity:0"/></linearGradient><linearGradient id="linearGradient3299"><stop id="stop3301" offset="0" style="stop-color:white;stop-opacity:1"/><stop id="stop3303" offset="1" style="stop-color:#ffffff;stop-opacity:0.52"/></linearGradient><linearGradient id="linearGradient3266"><stop offset="0" id="stop3268" style="stop-color:#000000;stop-opacity:1"/><stop offset="1" id="stop3270" style="stop-color:#000000;stop-opacity:0"/></linearGradient><linearGradient id="linearGradient3222"><stop offset="0" id="stop3224" style="stop-color:#eac586;stop-opacity:1"/><stop offset="1" id="stop3226" style="stop-color:#eac586;stop-opacity:0"/></linearGradient><linearGradient id="linearGradient2911"><stop offset="0" id="stop2913" style="stop-color:#8ae234;stop-opacity:1"/><stop offset="1" id="stop2915" style="stop-color:#73d216;stop-opacity:1"/></linearGradient><linearGradient id="linearGradient2880"><stop id="stop2882" offset="0" style="stop-color:#729fcf;stop-opacity:1"/><stop id="stop2884" offset="1" style="stop-color:#3465a4;stop-opacity:1"/></linearGradient><linearGradient id="linearGradient2866"><stop offset="0" id="stop2868" style="stop-color:#ef2929;stop-opacity:1"/><stop offset="1" id="stop2870" style="stop-color:#cc0000;stop-opacity:1"/></linearGradient><linearGradient id="linearGradient3235"><stop id="stop3237" offset="0" style="stop-color:#eeeeec;stop-opacity:1"/><stop id="stop3239" offset="1" style="stop-color:#888a85;stop-opacity:1"/></linearGradient><linearGradient id="linearGradient3201"><stop offset="0" id="stop3203" style="stop-color:#e7ce79;stop-opacity:1"/><stop offset="1" id="stop3205" style="stop-color:#c17d11;stop-opacity:1"/></linearGradient><linearGradient id="linearGradient3171"><stop id="stop3173" offset="0" style="stop-color:white;stop-opacity:1"/><stop id="stop3175" offset="1" style="stop-color:white;stop-opacity:0.07"/></linearGradient><linearGradient id="linearGradient3126"><stop offset="0" id="stop3128" style="stop-color:#555753;stop-opacity:1"/><stop offset="1" id="stop3130" style="stop-color:#1f2324;stop-opacity:1"/></linearGradient><linearGradient id="linearGradient3088"><stop offset="0" id="stop3090" style="stop-color:white;stop-opacity:1"/><stop offset="1" id="stop3092" style="stop-color:white;stop-opacity:0.35"/></linearGradient><radialGradient xlink:href="#linearGradient2866" id="radialGradient2872" cx="32.45" cy="33.61" fx="32.45" fy="33.61" r="5.04" gradientTransform="matrix(0.636942,0.6968413,0.5532571,-0.5101348,-4.9862652,25.317534)" gradientUnits="userSpaceOnUse"/><radialGradient xlink:href="#linearGradient2880" id="radialGradient2878" gradientUnits="userSpaceOnUse" gradientTransform="matrix(-0.8570757,0.7036892,-0.6305522,-0.6305522,89.190904,19.069945)" cx="33.29" cy="36.07" fx="33.29" fy="36.07" r="5.04"/><radialGradient xlink:href="#linearGradient2911" id="radialGradient2917" cx="23.54" cy="36.03" fx="23.54" fy="36.03" r="4.24" gradientTransform="matrix(0.9409277,0,0,1.0482489,1.6970076,-3.1482574)" gradientUnits="userSpaceOnUse"/><linearGradient xlink:href="#linearGradient3088" id="linearGradient3236" gradientUnits="userSpaceOnUse" x1="21.42" y1="14.77" x2="16.64" y2="5.5" gradientTransform="translate(1.07897,0.05387815)"/><linearGradient xlink:href="#linearGradient3299" id="linearGradient3238" gradientUnits="userSpaceOnUse" x1="15.3" y1="9.14" x2="51.57" y2="83.08" gradientTransform="translate(1.07897,0.05387815)"/><radialGradient xlink:href="#linearGradient3266" id="radialGradient3274" cx="28.47" cy="23.21" fx="28.47" fy="23.21" r="12.37" gradientTransform="matrix(0.1675436,0.1340677,-0.9393554,1.1739072,44.390109,-8.4325029)" gradientUnits="userSpaceOnUse"/><radialGradient xlink:href="#linearGradient3201" id="radialGradient3297" cx="28.66" cy="33.99" fx="28.66" fy="33.99" r="18.57" gradientTransform="matrix(6.0429881,0,0,5.537076,-142.77945,-152.2092)" gradientUnits="userSpaceOnUse"/><linearGradient xlink:href="#linearGradient3171" id="linearGradient3237" gradientUnits="userSpaceOnUse" gradientTransform="matrix(0.6424152,0,0,0.7146281,3.4607417,6.8166794)" x1="9.34" y1="38.81" x2="10.92" y2="46.82"/><linearGradient xlink:href="#linearGradient3126" id="linearGradient3240" gradientUnits="userSpaceOnUse" gradientTransform="matrix(1,0,0,1.2675301,-0.98505833,-14.824336)" x1="10.59" y1="38.58" x2="10.17" y2="43.38"/><linearGradient xlink:href="#linearGradient3171" id="linearGradient3252" gradientUnits="userSpaceOnUse" x1="12.19" y1="38.01" x2="12.19" y2="39.53" gradientTransform="matrix(2.6362041,0,0,2.180959,-21.111279,-49.391697)"/><linearGradient xlink:href="#linearGradient3222" id="linearGradient3270" gradientUnits="userSpaceOnUse" gradientTransform="matrix(0.8048011,-0.08405894,-0.2587753,0.8411918,10.641661,5.9054014)" x1="38.29" y1="5.25" x2="36.61" y2="7.33"/><linearGradient xlink:href="#linearGradient3235" id="linearGradient3276" gradientUnits="userSpaceOnUse" gradientTransform="matrix(0.8048011,-0.08405894,-0.2587753,0.8411918,10.738301,3.5397603)" x1="19.64" y1="29.59" x2="23.53" y2="33.49"/><linearGradient xlink:href="#linearGradient3310" id="linearGradient3279" gradientUnits="userSpaceOnUse" gradientTransform="matrix(0.8048011,-0.08405894,-0.2587753,0.8411918,10.738301,3.5397603)" x1="33.18" y1="18.66" x2="31.18" y2="17.18"/><linearGradient xlink:href="#linearGradient3301" id="linearGradient3308" x1="18.19" y1="28.63" x2="41.44" y2="6.19" gradientUnits="userSpaceOnUse" gradientTransform="translate(0.01493667,-0.97075555)"/></defs><metadata id="metadata7"/><path id="path2193" d="m23.04 4.53c-5.87 0.08-13.73 2.08-13.59 8.53 0.14 6.88 8.49 4.16 8.81 7.22 0.51 4.94-10.17 19.96 6.06 22.91 10.84 1.96 22.35-4.79 21.19-18.41-1.04-12.25-11.18-19.94-21.31-20.25-0.37-0.01-0.77-0.01-1.16 0zm-2.53 4c2.76 0 5 1.57 5 3.5 0 1.93-2.24 3.5-5 3.5-2.76 0-5-1.57-5-3.5 0-1.93 2.24-3.5 5-3.5z" style="fill:url(#radialGradient3297);stroke:#c17d11"/><path id="path3230" d="m23.11 5.55c-2.83 0.04-6.13 0.57-8.6 1.79-2.47 1.21-4.06 2.9-4 5.71 0.03 1.52 0.48 2.33 1.1 2.91 0.61 0.58 1.49 0.92 2.5 1.19 1 0.26 2.09 0.42 3.06 0.75 0.48 0.16 0.96 0.38 1.37 0.75 0.42 0.37 0.72 0.95 0.78 1.56 0.17 1.65-0.47 3.5-1.15 5.66-0.68 2.15-1.45 4.51-1.72 6.75-0.27 2.23-0.04 4.28 1.06 5.9 1.11 1.63 3.17 2.98 7.06 3.69 5.16 0.94 10.45-0.21 14.29-3.16 3.83-2.94 6.27-7.64 5.71-14.15-0.99-11.74-10.69-19.05-20.34-19.35-0.34-0.01-0.73 0-1.12 0z" style="fill:none;opacity:0.67;stroke:url(#linearGradient3238)"/><path d="m35.95 7.46c-0.08 0.02-0.16 0.07-0.22 0.13-8.99 7.02-13.62 12.35-16.19 15.78-1.71 2.11-3.6 5.27-5.15 8.22-0.03 0.05-0.05 0.1-0.06 0.15-0.22 2-0.08 4.02 0.78 5.79 0.05 0.12 0.16 0.21 0.29 0.25 0.13 0.04 0.27 0.03 0.39-0.04 4.02-2.31 9.16-7.18 10.54-8.78 2.93-3.35 7.64-9.29 12.59-18.68 0.09-0.19 0.05-0.42-0.09-0.57-0.78-0.76-1.62-1.51-2.5-2.15-0.11-0.08-0.25-0.12-0.38-0.1z" id="path3260" style="fill:url(#radialGradient3274);opacity:0.16"/><path id="path3096" d="m24.39 26.25c3.74-3.56 10.29-10.4 18.12-21.22 0.32-0.35-0.21-0.65-0.5-0.5-11.83 8.29-17.78 14.48-21.16 18.02" style="fill:url(#linearGradient3279);stroke-linejoin:round;stroke:#8f5902"/><path id="path3316" d="m21.45 21.95c1.48 0.6 2.79 1.54 3.53 3.7-1.5 1.44-7.46 6.43-11.18 8.5l-1.09-1.52c2.11-3.07 5.97-7.92 8.74-10.68z" style="fill:#000;opacity:0.15;stroke-linejoin:round;stroke:#000"/><path id="path3086" d="m20.57 7.55c1.58 0 3.03 0.42 4.13 1.19 1.1 0.77 1.87 1.96 1.87 3.31 0 1.36-0.77 2.55-1.87 3.32-1.1 0.77-2.55 1.18-4.13 1.18-1.57 0-3.02-0.41-4.12-1.18-1.1-0.77-1.88-1.96-1.88-3.32 0-1.35 0.78-2.54 1.88-3.31 1.1-0.77 2.55-1.19 4.12-1.19z" style="fill:none;opacity:0.74;stroke:url(#linearGradient3236)"/><path id="path3098" d="m20.85 22.55c1.48 0.59 2.8 1.53 3.54 3.7-1.5 1.44-7.47 6.42-11.18 8.49l-1.1-1.51c2.12-3.07 5.98-7.92 8.74-10.68z" style="fill:url(#linearGradient3276);stroke:#888a85"/><g transform="translate(1.2359076,0.45472025)" id="g3292" opacity="0.13"><path d="m26.82 37.5c-0.98 0.59 0.08 1.27 0.55 1.67 0.37 0.31-0.19 1.83-0.86 1.16-0.78-0.77-1.28-1.85-1.58-1.88-1.75-0.16-0.4 2.15-1.81 1.64-0.84-0.3 0.21-1.58-0.91-1.97-0.9-0.31-0.81 0.65-1.32 0.18-2.43-2.19-1.16-4.09-0.03-5.58 1.12-1.48 3.34-1.64 4.99-0.32 1.65 1.31 2.08 3.6 0.97 5.1zM35.47 34.48 35.47 34.48c0.9 0 2.4 0.15 2.8 0.62 0.92 1.09 1.74-0.34 1.04-0.96-0.81-0.71-1.89-1.12-1.94-1.42-0.31-1.74 2.02-0.59 1.41-1.95-0.36-0.82-1.49 0.34-1.96-0.75-0.38-0.87 0.54-0.86 0.05-1.34-2.31-2.25-4.02-0.81-5.35 0.44-1.33 1.25-1.29 3.49 0.12 5.03 0.58 0.63 0.86 2.15 1.6 2.33 1.06 0.26-0.02-2 2.23-2zM37.02 23.5c-0.88 0-1.06 0.61-1.47 1-0.33 0.31-1.72-0.3-1.03-0.85 0.8-0.63 0.98-1.38 1.03-1.65 0.3-1.54-2.66-0.79-2.05-2 0.44-0.88 2.05-0.04 2.05-0.5-0.01-0.7-0.42-1.76 0.46-1.94 1.85-0.36 3.99 0.92 4.99 1.94 0.96 0.98 0.43 2.69-0.14 3.91-0.35 0.74-1.14 2.25-2.06 2.07-1.05-0.21 0.44-1.98-1.78-1.98z" id="path3286" style="fill:#000;stroke-linejoin:round;stroke:#000"/></g><path id="path3299" d="m12.95 33.47c5.61-8.51 23.68-24.21 27.56-26.82-8.26 8.81-18.61 18.65-27.56 26.82z" style="fill:url(#linearGradient3308);opacity:0.68"/><path id="path1937" d="m27.83 37.53c-0.98 0.59 0.08 1.27 0.55 1.67 0.37 0.31-0.19 1.83-0.86 1.16-0.78-0.77-1.28-1.85-1.58-1.88-1.75-0.16-0.4 2.15-1.81 1.64-0.84-0.3 0.21-1.58-0.91-1.97-0.9-0.31-0.81 0.65-1.32 0.18-2.43-2.19-1.16-4.09-0.03-5.58 1.12-1.48 3.34-1.64 4.99-0.32 1.65 1.31 2.08 3.6 0.97 5.1z" style="fill:url(#radialGradient2917);stroke-linejoin:round;stroke:#4e9a06"/><path id="path2836" d="m25.73 32.78c-1.33-0.78-2.84 0.05-3.38 0.72-0.53 0.67-1.26 1.98-0.68 3.22 0.37-1.19 0.91-1.98 1.47-2.6 0.55-0.61 1.19-1.27 2.59-1.34z" style="fill:#eeeeec;opacity:0.77"/><path id="path3100" d="m2.51 39.56c4.69 0.01 4.22-4.89 6.5-6.39 2.64-1.74 4.95 0.42 5.42 2.19 0.58 2.24-0.42 4.7-3.42 5.68-3.36 1.1-8.11 0.47-8.5-1.48z" style="fill:url(#linearGradient3240);stroke:#000"/><path id="path3161" d="m4.01 40.15c2.04-0.03 3.44-2.45 3.97-3.98 1.6-4.63 6.41-2.43 5.53 0.79-1.05 5.18-6.46 3.2-9.5 3.19z" style="fill:none;opacity:0.29;stroke-linejoin:round;stroke:url(#linearGradient3237)"/><path d="m14 35.03a3.01 2.01 0 1 1-5.98 0 3.01 2.01 0 1 1 5.98 0z" id="path3177" style="fill:url(#linearGradient3252);opacity:0.5"/><path id="path2852" d="m36.48 34.51c0.9 0 2.4 0.15 2.8 0.62 0.92 1.09 1.74-0.34 1.04-0.96-0.81-0.71-1.89-1.12-1.94-1.42-0.31-1.74 2.02-0.59 1.41-1.95-0.36-0.82-1.49 0.34-1.96-0.75-0.38-0.87 0.54-0.86 0.05-1.34-2.31-2.25-4.02-0.81-5.35 0.44-1.33 1.25-1.29 3.49 0.12 5.03 0.58 0.63 0.86 2.15 1.6 2.33 1.06 0.26-0.02-2 2.23-2z" style="fill:url(#radialGradient2872);stroke-linejoin:round;stroke:#a40000"/><path id="path3212" d="m41.52 5.53-3.01 3.01" style="fill:none;stroke-linecap:round;stroke:url(#linearGradient3270)"/><path id="path2876" d="m38.03 23.53c-0.88 0-1.06 0.61-1.47 1-0.33 0.31-1.72-0.3-1.03-0.85 0.8-0.63 0.98-1.38 1.03-1.65 0.3-1.54-2.66-0.79-2.05-2 0.44-0.88 2.05-0.04 2.05-0.5-0.01-0.7-0.42-1.76 0.46-1.94 1.85-0.36 3.99 0.92 4.99 1.94 0.96 0.98 0.43 2.69-0.14 3.91-0.35 0.74-1.14 2.25-2.06 2.07-1.05-0.21 0.44-1.98-1.78-1.98z" style="fill:url(#radialGradient2878);stroke-linejoin:round;stroke:#204a87"/><path id="path2886" d="m38.01 18.53c-0.86 0.39-1 1.5-0.5 2.5 0.53-1.45 2-1 3.5-1-0.5-1-2.4-1.7-3-1.5zM36.78 28.76 36.78 28.76c-1.34-0.78-2.84 0.05-3.38 0.72-0.53 0.67-1.26 1.98-0.68 3.22 0.37-1.19 0.91-1.98 1.46-2.59 0.56-0.62 1.2-1.28 2.6-1.35z" style="fill:#eeeeec;opacity:0.77"/></svg>