<svg xmlns="http://www.w3.org/2000/svg" xmlns:xlink="http://www.w3.org/1999/xlink" version="1" width="48" height="48">
  <defs>
    <linearGradient id="c">
      <stop offset="0"/>
      <stop offset="1" stop-opacity="0"/>
    </linearGradient>
    <linearGradient x1="45.45" y1="92.54" x2="45.45" y2="7.02" id="e" gradientUnits="userSpaceOnUse" gradientTransform="scale(1.00587 .99417)">
      <stop offset="0"/>
      <stop offset="1" stop-opacity=".59"/>
    </linearGradient>
    <linearGradient id="a">
      <stop offset="0" stop-color="#fff"/>
      <stop offset="1" stop-color="#fff" stop-opacity="0"/>
    </linearGradient>
    <filter color-interpolation-filters="sRGB" id="f">
      <feGaussianBlur stdDeviation="1.71"/>
    </filter>
    <filter x="-.19" y="-.19" width="1.38" height="1.38" color-interpolation-filters="sRGB" id="r">
      <feGaussianBlur stdDeviation="5.28"/>
    </filter>
    <clipPath id="p">
      <rect width="84" height="84" rx="6" ry="6" x="6" y="6" fill="#fff"/>
    </clipPath>
    <linearGradient id="b">
      <stop offset="0" stop-opacity=".2"/>
      <stop offset=".5" stop-color="gray" stop-opacity="0"/>
      <stop offset="1" stop-color="#fff" stop-opacity=".39"/>
    </linearGradient>
    <clipPath id="n">
      <rect width="84" height="84" rx="6" ry="6" x="6" y="6" fill="#fff"/>
    </clipPath>
    <linearGradient x1="45.45" y1="92.54" x2="45.45" y2="7.02" id="d" gradientUnits="userSpaceOnUse" gradientTransform="matrix(1.00587 0 0 .99417 100 0)">
      <stop offset="0"/>
      <stop offset="1" stop-opacity=".59"/>
    </linearGradient>
    <linearGradient xlink:href="#d" id="g" gradientUnits="userSpaceOnUse" gradientTransform="matrix(1.0238 0 0 1.0119 -1.143 -98.071)" x1="32.25" y1="6.13" x2="32.25" y2="90.24"/>
    <linearGradient xlink:href="#d" id="h" gradientUnits="userSpaceOnUse" gradientTransform="matrix(1.0238 0 0 1.0119 -1.143 -98.071)" x1="32.25" y1="6.13" x2="32.25" y2="90.24"/>
    <linearGradient xlink:href="#d" id="i" gradientUnits="userSpaceOnUse" gradientTransform="matrix(1.0238 0 0 1.0119 -1.143 -98.071)" x1="32.25" y1="6.13" x2="32.25" y2="90.24"/>
    <linearGradient xlink:href="#d" id="j" gradientUnits="userSpaceOnUse" gradientTransform="matrix(1.0238 0 0 1.0119 -1.143 -98.071)" x1="32.25" y1="6.13" x2="32.25" y2="90.24"/>
    <linearGradient xlink:href="#d" id="k" gradientUnits="userSpaceOnUse" gradientTransform="translate(0 -97)" x1="32.25" y1="6.13" x2="32.25" y2="90.24"/>
    <linearGradient xlink:href="#a" id="l" gradientUnits="userSpaceOnUse" gradientTransform="translate(0 -48)" x1="36.36" y1="6" x2="36.36" y2="63.89"/>
    <radialGradient xlink:href="#a" id="m" gradientUnits="userSpaceOnUse" gradientTransform="matrix(1.15731 0 0 .9959 -7.551 -47.803)" cx="48" cy="90.17" fx="48" fy="90.17" r="42"/>
    <radialGradient xlink:href="#c" id="o" gradientUnits="userSpaceOnUse" cx="47.84" cy="47.91" fx="47.84" fy="47.91" r="59.41"/>
    <linearGradient xlink:href="#a" id="q" gradientUnits="userSpaceOnUse" x1="48" y1="20.22" x2="48" y2="138.66"/>
    <linearGradient xlink:href="#b" id="s" gradientUnits="userSpaceOnUse" gradientTransform="translate(-96 -96)" x1="6" y1="48" x2="90" y2="48"/>
  </defs>
  <g transform="matrix(.49966 0 0 -.50515 .016 -1.005)">
    <path d="M12-95.03C6.49-95.03 1.97-90.51 1.97-85v71C1.97-8.49 6.49-3.97 12-3.97h72c5.51 0 10.03-4.52 10.03-10.03v-71c0-5.51-4.52-10.03-10.03-10.03H12z" fill="url(#g)" opacity=".08"/>
    <path d="M12-94.03c-4.97 0-9.03 4.06-9.03 9.03v71c0 4.97 4.06 9.03 9.03 9.03h72c4.97 0 9.03-4.06 9.03-9.03v-71c0-4.97-4.06-9.03-9.03-9.03H12z" fill="url(#h)" opacity=".1"/>
    <path d="M12-93c-4.41 0-8 3.59-8 8v71c0 4.41 3.59 8 8 8h72c4.41 0 8-3.59 8-8v-71c0-4.41-3.59-8-8-8H12z" fill="url(#i)" opacity=".2"/>
    <rect y="-92" x="5" ry="7" rx="7" height="85" width="86" fill="url(#j)" opacity=".3"/>
    <rect y="-91" x="6" ry="6" rx="6" height="84" width="84" fill="url(#k)" opacity=".45"/>
  </g>
  <path d="M24.08 23.242c-3.812 6.678-4.817 14.21-3.403 21.216H32.65a30.38 30.38 0 0 1-8.57-21.216z" fill="#00df16"/>
  <path d="M24.08 23.288c-8.05 4.698-13.131 12.583-14.585 21.17h11.147a30.45 30.45 0 0 1 3.438-21.17z" fill="#04abcf"/>
  <path d="M24.045 23.323c-8.19 0-15.614 3.304-21.03 8.679v9.426c0 1.677 1.338 3.03 2.997 3.03H9.48c1.459-8.572 6.53-16.447 14.565-21.135z" fill="#1a36d8"/>
  <path d="M8.745 19.267a29.838 29.838 0 0 0-5.73.611v12.108c5.41-5.36 12.81-8.663 20.985-8.663a29.585 29.585 0 0 0-15.255-4.056z" fill="#370099"/>
  <path d="M3.014 8.578v11.27c6.916-1.42 14.346-.38 20.941 3.475-4.647-8.138-12.447-13.275-20.94-14.745z" fill="#650199"/>
  <path d="M6.012 2.026c-1.659 0-2.998 1.354-2.998 3.031v3.506c8.48 1.475 16.27 6.602 20.906 14.73 0-8.28-3.268-15.791-8.59-21.262l-9.318-.005z" fill="#9c009b"/>
  <path d="M15.35 2.026a30.385 30.385 0 0 1 8.575 21.216c3.812-6.678 4.817-14.21 3.403-21.216H15.35z" fill="#d10737"/>
  <path d="M27.358 2.026a30.474 30.474 0 0 1-3.433 21.17c8.045-4.697 13.126-12.582 14.58-21.17H27.358z" fill="#fd0005"/>
  <path d="M38.52 2.026c-1.459 8.572-6.53 16.448-14.565 21.135 8.19 0 15.614-3.303 21.03-8.678V5.057c0-1.677-1.338-3.03-2.997-3.03H38.52z" fill="#ff6500"/>
  <path d="M44.986 14.498c-5.412 5.36-12.812 8.663-20.986 8.663 6.606 3.86 14.055 4.87 20.986 3.446V14.498z" fill="#fdad00"/>
  <path d="M24.045 23.161c4.647 8.138 12.447 13.276 20.94 14.746v-11.27c-6.915 1.42-14.345.379-20.94-3.476z" fill="#fffd01"/>
  <path d="M24.08 23.197c0 8.28 3.268 15.79 8.59 21.261h9.318c1.659 0 2.998-1.353 2.998-3.03v-3.506c-8.48-1.475-16.27-6.602-20.906-14.725z" fill="#b6fd00"/>
  <path d="M12-42c-3.32 0-6 2.68-6 6v72c0 .33.04.65.09.97.05.3.1.6.19.88l.03.09c.1.29.23.55.38.81.14.27.32.54.5.78.18.25.37.47.59.69.44.43.94.81 1.5 1.09.28.14.57.25.88.34-.26-.1-.49-.24-.72-.37h-.03l-.09-.06c-.12-.08-.23-.16-.34-.25-.11-.08-.21-.16-.31-.25-.19-.16-.36-.35-.51-.53-.11-.13-.22-.27-.32-.41-.02-.04-.03-.08-.06-.12-.06-.11-.13-.21-.19-.32-.1-.19-.2-.41-.28-.62l-.03-.06c-.03-.1-.03-.19-.06-.28-.03-.11-.07-.21-.09-.32-.08-.34-.13-.7-.13-1.06v-72c0-2.78 2.22-5 5-5h72c2.78 0 5 2.22 5 5v72c0 .36-.05.72-.12 1.06-.04.21-.09.4-.16.59l-.03.06c-.06.17-.14.37-.22.53-.04.08-.08.17-.12.25-.05.1-.13.19-.19.28-.09.14-.2.28-.31.41-.14.17-.3.35-.47.5l-.03.03c-.14.13-.29.23-.44.34-.1.07-.2.15-.31.22h-.03c-.23.14-.46.27-.72.38.3-.1.6-.2.88-.34.56-.28 1.06-.67 1.5-1.09.22-.21.41-.44.59-.69.18-.25.36-.51.5-.78s.28-.52.38-.81l.03-.09c.09-.28.14-.58.19-.87.04-.33.08-.65.08-.98v-72c0-3.32-2.68-6-6-6H12z" fill="url(#l)" opacity=".5" transform="matrix(.49966 0 0 .50515 .016 23.242)"/>
  <path d="M12 42c-3.32 0-6-2.68-6-6v-72c0-.33.04-.65.09-.97.05-.3.1-.6.19-.87l.03-.09c.1-.29.23-.55.38-.81.14-.27.32-.54.5-.78.18-.25.37-.47.59-.69.44-.43.94-.81 1.5-1.09.28-.14.57-.25.88-.34-.26.1-.49.24-.72.38h-.03l-.09.06c-.12.08-.23.16-.34.25-.11.08-.21.16-.31.25-.18.16-.35.35-.5.53-.11.13-.22.27-.31.41-.03.04-.04.09-.06.13-.06.1-.13.2-.19.31-.1.19-.21.42-.28.63l-.03.06c-.03.09-.04.19-.06.28-.03.11-.07.2-.09.31-.1.32-.15.68-.15 1.04v72c0 2.78 2.22 5 5 5h72c2.78 0 5-2.22 5-5v-72c0-.36-.05-.72-.12-1.06-.04-.21-.09-.4-.16-.59l-.03-.06c-.06-.17-.14-.37-.22-.53-.04-.08-.08-.17-.12-.25-.05-.1-.13-.19-.19-.28-.09-.14-.2-.28-.31-.41-.14-.17-.3-.35-.47-.5l-.03-.03c-.14-.13-.29-.23-.44-.34-.1-.07-.2-.15-.31-.22h-.03a4.44 4.44 0 0 0-.72-.37c.3.1.6.2.88.34.56.28 1.06.67 1.5 1.09.22.21.41.44.59.69.18.25.36.51.5.78s.28.52.38.81l.03.09c.09.28.14.58.19.88.04.31.08.63.08.96v72c0 3.32-2.68 6-6 6H12z" fill="url(#m)" opacity=".3" transform="matrix(.49966 0 0 .50515 .016 23.242)"/>
  <path transform="matrix(.49966 0 0 .50515 .016 -1.005)" d="M48.09-11.5c11.43 22.58 4.89 45.95.54 57.03C46.64 25.47 35.47 5.95 18.34-3.66 39.55 10.2 45.61 33.74 47.38 45.5 35.63 29.09 16.18 17.75-3.47 18c25.27 1.4 42.24 18.72 49.66 28.03-18.37-8.32-40.87-8.37-57.75 1.66 22.6-11.43 45.99-4.92 57.06-.56C25.43 49.1 5.89 60.27-3.72 77.41c13.87-21.23 37.44-27.27 49.19-29.03-16.42 11.73-27.78 31.17-27.53 50.84 1.4-25.27 18.72-42.24 28.03-49.66-8.32 18.37-8.38 40.87 1.66 57.75-11.44-22.6-4.92-45.99-.57-57.06 1.97 20.07 13.15 39.61 30.28 49.22C56.1 85.59 50.07 62.02 48.31 50.28c11.74 16.43 31.18 27.78 50.85 27.53-25.29-1.4-42.28-18.72-49.69-28.03 18.37 8.33 40.89 8.41 57.78-1.62-22.58 11.42-45.95 4.88-57.03.53 20.06-1.98 39.58-13.16 49.19-30.28C85.53 39.63 62 45.68 50.25 47.44 66.66 35.7 78 16.25 77.75-3.41c-1.4 25.29-18.73 42.28-28.03 49.69 8.33-18.37 8.41-40.89-1.63-57.78zm-.28 59.28h.09c.03.02.03.07.06.09 0 .04-.03.06-.03.09l-.03.06c-.05 0-.08-.02-.12-.03-.01 0-.02.01-.03 0l-.03-.06c0-.04.03-.06.03-.09v-.03l.06-.03zm.19.19c.03.11.07.21.06.31-.01-.1-.05-.21-.06-.31z" clip-path="url(#n)" fill="url(#o)"/>
  <g transform="matrix(.49966 0 0 .50515 .016 -1.005)">
    <rect clip-path="url(#p)" y="15" x="15" ry="12" rx="12" height="66" width="66" fill="url(#q)" filter="url(#r)" opacity=".1" stroke-linecap="round" stroke-width=".5" stroke="#fff"/>
    <rect transform="matrix(0 -1 -1 0 0 0)" y="-90" x="-90" ry="6" rx="6" height="84" width="84" fill="url(#s)"/>
  </g>
</svg>
