<?xml version="1.0" encoding="utf-8"?>
<!-- Generator: Adobe Illustrator 27.9.0, SVG Export Plug-In . SVG Version: 6.00 Build 0)  -->
<svg version="1.1" id="svg11300" xmlns:svg="http://www.w3.org/2000/svg"
	 xmlns="http://www.w3.org/2000/svg" xmlns:xlink="http://www.w3.org/1999/xlink" x="0px" y="0px" viewBox="0 0 256 256"
	 style="enable-background:new 0 0 256 256;" xml:space="preserve">
<style type="text/css">
	.st0{fill:#EBA25C;}
	.st1{opacity:0.56;fill:#FFFFFF;}
</style>
<path class="st0" d="M61.2,34.2c-3.6-2.8-8.6-2.4-11.8,0.7l-15,15c-3.2,3.2-3.5,8.2-0.8,11.8l30,38.9c1.7,2.2,4.3,3.5,7.1,3.5H91
	l40.8,40.8c-5.5,10.9-3.7,24.5,5.4,33.5l41.9,41.9c4.7,4.7,12.3,4.7,17,0l24-24c4.7-4.7,4.7-12.3,0-17L178,137.6
	c-9.1-9.1-22.7-10.9-33.5-5.4l-40.8-40.8V71.2c0-2.8-1.3-5.4-3.5-7.1L61.2,34.2z"/>
<path class="st1" d="M223.5,86.2c0-3.9-0.4-7.8-1.2-11.4c-0.9-4.2-6-5.3-9.1-2.2l-23.9,23.9c-1.1,1.1-2.7,1.8-4.2,1.8h-21.5
	c-3.3,0-6-2.7-6-6V70.7c0-1.6,0.6-3.1,1.8-4.2l23.9-23.9c3-3,1.9-8.2-2.2-9.1c-3.7-0.8-7.5-1.2-11.5-1.2
	c-29.8,0-53.9,24.2-53.9,53.9v0.3l31.9,31.9c13.5-3.4,28.4,0.2,38.9,10.7l5.9,5.9C210.8,126.5,223.5,107.8,223.5,86.2z"/>
<path class="st1" d="M117.9,148.1L94.8,125l-55.6,55.6c-4.8,4.8-7.5,11.2-7.5,18c0,14,11.4,25.4,25.4,25.4c6.7,0,13.2-2.7,18-7.5
	l44.1-44.1C116.4,164.6,115.9,156.1,117.9,148.1z M61.7,203c-5,0-9-4-9-9s4-9,9-9s9,4,9,9S66.7,203,61.7,203z"/>
</svg>
