<?xml version="1.0" encoding="utf-8"?>
<!-- Generator: Adobe Illustrator 27.9.0, SVG Export Plug-In . SVG Version: 6.00 Build 0)  -->
<svg version="1.1" id="Layer_1" xmlns="http://www.w3.org/2000/svg" xmlns:xlink="http://www.w3.org/1999/xlink" x="0px" y="0px"
	 viewBox="0 0 256 256" style="enable-background:new 0 0 256 256;" xml:space="preserve">
<style type="text/css">
	.st0{fill:#FF6F00;}
</style>
<path class="st0" d="M211,45H45c-13,0-23.7,10.7-23.7,23.7v118.5C21.3,200.3,32,211,45,211h166c13.1,0,23.7-10.6,23.7-23.7V68.7
	C234.7,55.7,224,45,211,45z M216.9,187.3c0,3.3-2.7,5.9-5.9,5.9H45c-3.3,0-5.9-2.7-5.9-5.9V68.7c0-3.3,2.7-5.9,5.9-5.9h166
	c3.3,0,5.9,2.7,5.9,5.9V187.3z"/>
<circle class="st0" cx="68.7" cy="92.4" r="11.9"/>
<path class="st0" d="M95.4,92.4c0-4.9,4-8.9,8.9-8.9h83c4.9,0,8.9,4,8.9,8.9s-4,8.9-8.9,8.9h-83C99.4,101.3,95.4,97.4,95.4,92.4z"/>
<path class="st0" d="M95.4,128c0-4.9,4-8.9,8.9-8.9h83c4.9,0,8.9,4,8.9,8.9c0,4.9-4,8.9-8.9,8.9h-83C99.4,136.9,95.4,132.9,95.4,128
	z"/>
<path class="st0" d="M95.4,163.6c0-4.9,4-8.9,8.9-8.9h83c4.9,0,8.9,4,8.9,8.9s-4,8.9-8.9,8.9h-83C99.4,172.4,95.4,168.5,95.4,163.6z
	"/>
<circle class="st0" cx="68.7" cy="128" r="11.9"/>
<circle class="st0" cx="68.7" cy="163.6" r="11.9"/>
</svg>
