<?xml version="1.0" encoding="utf-8"?>
<!-- Generator: Adobe Illustrator 27.9.0, SVG Export Plug-In . SVG Version: 6.00 Build 0)  -->
<svg version="1.1" id="Layer_1" xmlns="http://www.w3.org/2000/svg" xmlns:xlink="http://www.w3.org/1999/xlink" x="0px" y="0px"
	 viewBox="0 0 256 256" style="enable-background:new 0 0 256 256;" xml:space="preserve">
<style type="text/css">
	.st0{fill:#42A5F5;}
	.st1{fill:#FFFFFF;}
	.st2{fill:none;stroke:#000000;stroke-width:0.735;}
</style>
<path class="st0" d="M32,59.4C32,44.3,44.3,32,59.4,32h137.1c15.1,0,27.4,12.3,27.4,27.4v137.1c0,15.1-12.3,27.4-27.4,27.4H59.4
	C44.3,224,32,211.7,32,196.6V59.4z"/>
<g>
	<g>
		<path class="st1" d="M68.5,215h-3.6v-23.3c-0.9,0.8-2,1.7-3.5,2.5c-1.4,0.8-2.7,1.5-3.8,1.9v-3.5c2-1,3.8-2.1,5.4-3.5
			c1.5-1.4,2.6-2.7,3.2-4h2.4C68.5,185.1,68.5,215,68.5,215z"/>
	</g>
	<g>
		<path class="st1" d="M134.4,210.8v3.5h-19.7c0-0.9,0.1-1.7,0.4-2.5c0.5-1.3,1.3-2.7,2.4-4s2.7-2.8,4.8-4.5
			c3.2-2.7,5.4-4.8,6.6-6.3c1.2-1.5,1.7-3,1.7-4.4s-0.5-2.7-1.6-3.7c-1-1-2.4-1.5-4-1.5c-1.8,0-3.2,0.5-4.2,1.6
			c-1.1,1.1-1.6,2.5-1.6,4.4l-3.8-0.4c0.3-2.8,1.2-4.9,2.9-6.4c1.7-1.5,3.9-2.2,6.8-2.2c2.9,0,5.1,0.8,6.8,2.4
			c1.7,1.6,2.5,3.5,2.5,5.9c0,1.2-0.2,2.4-0.7,3.5s-1.3,2.4-2.4,3.6c-1.1,1.3-3,3-5.6,5.2c-2.2,1.8-3.6,3.1-4.2,3.7
			c-0.6,0.7-1.1,1.3-1.5,2L134.4,210.8L134.4,210.8z"/>
	</g>
	<g>
		<rect x="48.5" y="96" class="st1" width="37.7" height="76"/>
		<rect x="48.5" y="96" class="st2" width="37.7" height="76"/>
		<rect x="48.5" y="96" width="37.7" height="54"/>
		<rect x="109.1" y="96" class="st1" width="37.7" height="76"/>
		<rect x="109.1" y="96" class="st2" width="37.7" height="76"/>
		<rect x="109.1" y="96" width="37.7" height="54"/>
		<rect x="169.8" y="96" class="st1" width="37.7" height="76"/>
		<rect x="169.8" y="96" class="st2" width="37.7" height="76"/>
		<rect x="169.8" y="96" width="37.7" height="54"/>
	</g>
	<g>
		<path class="st1" d="M180.6,207.5l3.7-0.5c0.4,2.1,1.1,3.6,2.1,4.5s2.2,1.4,3.7,1.4c1.7,0,3.2-0.6,4.4-1.8s1.8-2.7,1.8-4.4
			s-0.5-3.1-1.6-4.1c-1.1-1.1-2.5-1.6-4.2-1.6c-0.7,0-1.5,0.1-2.6,0.4l0.4-3.2c0.2,0,0.4,0,0.6,0c1.6,0,3-0.4,4.2-1.2
			s1.9-2.1,1.9-3.8c0-1.3-0.5-2.4-1.4-3.3c-0.9-0.9-2.1-1.3-3.5-1.3s-2.6,0.4-3.6,1.3c-1,0.9-1.6,2.2-1.8,4l-3.7-0.6
			c0.4-2.4,1.5-4.3,3-5.7c1.6-1.3,3.6-2,5.9-2c1.6,0,3.1,0.3,4.5,1s2.4,1.6,3.1,2.9s1.1,2.5,1.1,3.8s-0.3,2.5-1,3.5
			c-0.7,1.1-1.7,1.9-3.1,2.5c1.8,0.4,3.1,1.2,4.1,2.5s1.5,2.9,1.5,4.8c0,2.6-0.9,4.8-2.8,6.6c-1.9,1.8-4.3,2.7-7.2,2.7
			c-2.6,0-4.8-0.8-6.5-2.3C181.8,212,180.8,210,180.6,207.5z"/>
	</g>
</g>
<g>
	<path class="st1" d="M47.2,67.1c0-6.7,1.8-11.9,5.4-15.7c3.6-3.8,8.2-5.7,13.9-5.7c3.7,0,7.1,0.9,10.1,2.7s5.3,4.3,6.8,7.4
		c1.6,3.2,2.4,6.8,2.4,10.8c0,4.1-0.8,7.7-2.5,11c-1.6,3.2-4,5.7-7,7.3s-6.3,2.5-9.8,2.5c-3.8,0-7.2-0.9-10.2-2.7
		c-3-1.8-5.2-4.3-6.8-7.5C48,74,47.2,70.6,47.2,67.1z M52.7,67.2c0,4.8,1.3,8.7,3.9,11.5c2.6,2.8,5.9,4.2,9.8,4.2
		c4,0,7.3-1.4,9.9-4.2c2.6-2.8,3.9-6.8,3.9-12c0-3.3-0.6-6.1-1.7-8.6c-1.1-2.4-2.7-4.3-4.9-5.7c-2.1-1.3-4.5-2-7.2-2
		c-3.8,0-7,1.3-9.7,3.9C54.1,56.8,52.7,61.1,52.7,67.2z"/>
	<path class="st1" d="M92.5,86.7V46.4H98L119.2,78V46.4h5.1v40.3h-5.5L97.6,55.1v31.6H92.5z"/>
</g>
</svg>
