<?xml version="1.0" encoding="UTF-8"?>
<svg id="Layer_1" data-name="Layer 1" xmlns="http://www.w3.org/2000/svg" version="1.1" viewBox="0 0 256 256">
  <defs>
    <style>
      .cls-1 {
        fill: #000;
      }

      .cls-1, .cls-2, .cls-3 {
        stroke-width: 0px;
      }

      .cls-2 {
        fill: #42a5f5;
        opacity: .6;
      }

      .cls-3 {
        fill: #fff;
      }

      .cls-4 {
        fill: none;
        stroke: #000;
        stroke-width: .7px;
      }
    </style>
  </defs>
  <path class="cls-2" d="M32,59.4c0-15.1,12.3-27.4,27.4-27.4h137.1c15.1,0,27.4,12.3,27.4,27.4v137.1c0,15.1-12.3,27.4-27.4,27.4H59.4c-15.1.1-27.4-12.2-27.4-27.3V59.4Z"/>
  <g>
    <path class="cls-3" d="M68.5,215h-3.6v-23.3c-.9.8-2,1.7-3.5,2.5-1.4.8-2.7,1.5-3.8,1.9v-3.5c2-1,3.8-2.1,5.4-3.5,1.5-1.4,2.6-2.7,3.2-4h2.4c-.1,0-.1,29.9-.1,29.9Z"/>
    <path class="cls-3" d="M134.4,210.8v3.5h-19.7c0-.9,0-1.7.4-2.5.5-1.3,1.3-2.7,2.4-4s2.7-2.8,4.8-4.5c3.2-2.7,5.4-4.8,6.6-6.3,1.2-1.5,1.7-3,1.7-4.4s-.5-2.7-1.6-3.7c-1-1-2.4-1.5-4-1.5s-3.2.5-4.2,1.6c-1.1,1.1-1.6,2.5-1.6,4.4l-3.8-.4c.3-2.8,1.2-4.9,2.9-6.4,1.7-1.5,3.9-2.2,6.8-2.2s5.1.8,6.8,2.4c1.7,1.6,2.5,3.5,2.5,5.9s-.2,2.4-.7,3.5-1.3,2.4-2.4,3.6c-1.1,1.3-3,3-5.6,5.2-2.2,1.8-3.6,3.1-4.2,3.7-.6.7-1.1,1.3-1.5,2h14.4Z"/>
    <g>
      <rect class="cls-3" x="48.5" y="96" width="37.7" height="76"/>
      <rect class="cls-4" x="48.5" y="96" width="37.7" height="76"/>
      <rect class="cls-1" x="48.5" y="96" width="37.7" height="54"/>
      <rect class="cls-3" x="109.1" y="96" width="37.7" height="76"/>
      <rect class="cls-4" x="109.1" y="96" width="37.7" height="76"/>
      <rect class="cls-1" x="109.1" y="96" width="37.7" height="54"/>
      <rect class="cls-3" x="169.8" y="96" width="37.7" height="76"/>
      <rect class="cls-4" x="169.8" y="96" width="37.7" height="76"/>
      <rect class="cls-1" x="169.8" y="96" width="37.7" height="54"/>
    </g>
    <path class="cls-3" d="M180.6,207.5l3.7-.5c.4,2.1,1.1,3.6,2.1,4.5s2.2,1.4,3.7,1.4,3.2-.6,4.4-1.8,1.8-2.7,1.8-4.4-.5-3.1-1.6-4.1c-1.1-1.1-2.5-1.6-4.2-1.6s-1.5.1-2.6.4l.4-3.2h.6c1.6,0,3-.4,4.2-1.2s1.9-2.1,1.9-3.8-.5-2.4-1.4-3.3c-.9-.9-2.1-1.3-3.5-1.3s-2.6.4-3.6,1.3c-1,.9-1.6,2.2-1.8,4l-3.7-.6c.4-2.4,1.5-4.3,3-5.7,1.6-1.3,3.6-2,5.9-2s3.1.3,4.5,1,2.4,1.6,3.1,2.9,1.1,2.5,1.1,3.8-.3,2.5-1,3.5c-.7,1.1-1.7,1.9-3.1,2.5,1.8.4,3.1,1.2,4.1,2.5s1.5,2.9,1.5,4.8-.9,4.8-2.8,6.6c-1.9,1.8-4.3,2.7-7.2,2.7s-4.8-.8-6.5-2.3c-1.8-1.6-2.8-3.6-3-6.1Z"/>
  </g>
  <g>
    <path class="cls-3" d="M47.2,67.1c0-6.7,1.8-11.9,5.4-15.7,3.6-3.8,8.2-5.7,13.9-5.7s7.1.9,10.1,2.7,5.3,4.3,6.8,7.4c1.6,3.2,2.4,6.8,2.4,10.8s-.8,7.7-2.5,11c-1.6,3.2-4,5.7-7,7.3s-6.3,2.5-9.8,2.5-7.2-.9-10.2-2.7c-3-1.8-5.2-4.3-6.8-7.5-1.5-3.2-2.3-6.6-2.3-10.1ZM52.7,67.2c0,4.8,1.3,8.7,3.9,11.5,2.6,2.8,5.9,4.2,9.8,4.2s7.3-1.4,9.9-4.2c2.6-2.8,3.9-6.8,3.9-12s-.6-6.1-1.7-8.6c-1.1-2.4-2.7-4.3-4.9-5.7-2.1-1.3-4.5-2-7.2-2s-7,1.3-9.7,3.9c-2.6,2.5-4,6.8-4,12.9Z"/>
    <path class="cls-3" d="M92.5,86.7v-40.3h5.5l21.2,31.6v-31.6h5.1v40.3h-5.5l-21.2-31.6v31.6h-5.1Z"/>
  </g>
</svg>