<svg xmlns:svg="http://www.w3.org/2000/svg" xmlns="http://www.w3.org/2000/svg" width="48" height="48" id="svg2" version="1.1" display="inline"><defs id="defs4"/><metadata id="metadata7"/><g id="layer8" transform="translate(0,-206)" display="inline"><g id="g3155" transform="translate(1.6503725,-2.2728432)"><path transform="matrix(1.6508582,0,0,-1.6508582,51.121728,266.08458)" d="m-7 23c0 5.76-4.67 10.43-10.43 10.43-5.76 0-10.43-4.67-10.43-10.43 0-5.76 4.67-10.43 10.43-10.43C-11.67 12.57-7 17.24-7 23z" id="path3058" style="fill:none;stroke-miterlimit:4;stroke-width:1.94;stroke:#000"/><path transform="matrix(0.84937333,0,0,-0.84937333,3.6900672,246.70986)" d="m12.57 20.61c0 0.93-0.75 1.68-1.68 1.68-0.93 0-1.68-0.75-1.68-1.68 0-0.93 0.75-1.68 1.68-1.68 0.93 0 1.68 0.75 1.68 1.68z" id="path3844" style="fill:#000;stroke-linecap:round;stroke-miterlimit:4;stroke-width:1.63;stroke:#000"/><path transform="matrix(0.84937333,0,0,-0.84937333,21.697207,246.71044)" d="m12.57 20.61c0 0.93-0.75 1.68-1.68 1.68-0.93 0-1.68-0.75-1.68-1.68 0-0.93 0.75-1.68 1.68-1.68 0.93 0 1.68 0.75 1.68 1.68z" id="path3844-8" style="fill:#000;stroke-linecap:round;stroke-miterlimit:4;stroke-width:1.63;stroke:#000"/><path transform="matrix(0.84937333,0,0,-0.84937333,6.1732826,239.54402)" d="m12.57 20.61c0 0.93-0.75 1.68-1.68 1.68-0.93 0-1.68-0.75-1.68-1.68 0-0.93 0.75-1.68 1.68-1.68 0.93 0 1.68 0.75 1.68 1.68z" id="path3844-9" style="fill:#000;stroke-linecap:round;stroke-miterlimit:4;stroke-width:1.63;stroke:#000"/><path transform="matrix(0.84937333,0,0,-0.84937333,19.5117,239.54488)" d="m12.57 20.61c0 0.93-0.75 1.68-1.68 1.68-0.93 0-1.68-0.75-1.68-1.68 0-0.93 0.75-1.68 1.68-1.68 0.93 0 1.68 0.75 1.68 1.68z" id="path3844-9-8" style="fill:#000;stroke-linecap:round;stroke-miterlimit:4;stroke-width:1.63;stroke:#000"/><path transform="matrix(0.84937333,0,0,-0.84937333,12.700581,236.28036)" d="m12.57 20.61c0 0.93-0.75 1.68-1.68 1.68-0.93 0-1.68-0.75-1.68-1.68 0-0.93 0.75-1.68 1.68-1.68 0.93 0 1.68 0.75 1.68 1.68z" id="path3844-9-3" style="fill:#000;stroke-linecap:round;stroke-miterlimit:4;stroke-width:1.63;stroke:#000"/></g><path d="m0.82 237.61 21.28 0-3.24 13.13-18.04 0z" id="rect3163" fill="#004878"/></g><g id="layer2" transform="translate(0,-206)" display="inline"><path d="m43.21 237.48-0.44 2.02c0.79 0 1.6 0.01 2.16 0.01 3.55 0.54 2.81 3.15 1.53 4.27 1.44 1.84 0 4.73-2.98 4.98l-2.8 0-0.37 1.85-12.38 0c-2.38-0.24-4.66-0.96-6.4-4.47l-12.77 0 0.97-4.05 12.2 0c1.14-2.6 3.38-4.18 6.89-4.61z" id="path3035" fill="#004878"/></g><g id="layer4" transform="translate(0,-206)" display="inline"><path d="m24.81 240.09 2.61 0-1.06 5.42c-0.04 0.42 0.05 0.83 0.97 0.86 0.55 0.09 1.08 0.01 1.4-0.86l1.13-5.42 2.68 0c-0.38 1.79-0.67 3.57-1.13 5.36-0.7 1.83-1.81 3-4.41 2.95-2.91-0.06-3.15-1.28-3.3-2.54z" id="path3823" fill="#fff"/><path d="m36.8 242.43 2.43 0.01c0.13-4.18-7.3-2.79-6.95 0.46-0.01 0.75 0.12 1.49 2.26 2.1 1.17 0.24 1.7 0.53 1.71 0.85-0.05 0.81-2.14 1.03-2.26-0.11l-2.52-0.01c-0.01 0.33-0.03 0.69 0.05 0.92 0.26 0.95 1.25 1.74 3.07 1.76 4.07-0.2 4.18-2.52 4.3-3.25-0.03-1.56-1.63-1.81-1.88-1.92-2.13-0.54-2.07-0.75-2.11-1.01 0.1-0.75 2.02-0.65 1.9 0.2z" id="path3825" fill="#fff"/><path d="m40.19 240.09-1.6 8.09 4.98 0c3.69-0.62 3.19-4.02 1.94-4.37 1.06-0.3 2.89-3.35-0.66-3.72l-4.67 0zm3.49 1.86c0.98 0.03 0.66 1.36-0.25 1.38l-1.42-0.01 0.25-1.35 1.42-0.01zm-2.05 2.89 1.75 0c0.93 0 0.92 1.3-0.31 1.47l-1.7 0 0.26-1.47z" id="path3827" style="fill:#fff;stroke-miterlimit:4;stroke-width:0.01;stroke:#000"/></g><g id="layer6" transform="translate(0,-206)"><g id="text3859" transform="matrix(0.07222223,0,0,0.07222223,8.7605279,237.4829)" style="-inkscape-font-specification:Arial Italic;fill:#fff;font-family:Arial;font-size:21;font-style:italic;letter-spacing:0;line-height:125;word-spacing:0"><path d="m399.93 174.13 2.78-13.32-4.93 0 0.36-1.71 11.83 0-0.36 1.71-4.89 0-2.78 13.32-2.01 0" id="path3864"/><path d="m408.92 174.13 3.14-15.03 2.47 0 1.52 9.74c0.2 1.28 0.33 2.51 0.39 3.68 0.42-1.01 1.11-2.38 2.09-4.11l5.27-9.31 2.51 0-3.14 15.03-1.98 0 1.57-7.31c0.36-1.69 0.88-3.58 1.56-5.68-0.43 0.98-0.96 2.03-1.6 3.16l-5.6 9.83-1.94 0-1.51-9.64c-0.14-0.88-0.24-1.91-0.3-3.09-0.17 1.32-0.34 2.37-0.5 3.14l-2 9.59-1.96 0" id="path3866"/></g><text xml:space="preserve" x="1.32" y="189.5" id="text3934" transform="scale(0.76276598,1.3110181)" style="display:inline;fill:#fff;font-family:Sans;font-size:8.92;letter-spacing:0;line-height:125;stroke-miterlimit:4;stroke-width:0.3;stroke:#fff;word-spacing:0"><tspan id="tspan3936" x="1.32" y="189.5" style="-inkscape-font-specification:Sans Bold;font-weight:bold;stroke-miterlimit:4;stroke-width:0.3;stroke:#fff">DMX</tspan></text></g></svg>