<?xml version="1.0" encoding="UTF-8" standalone="no"?>
<!-- Created with Inkscape (http://www.inkscape.org/) -->

<svg
   xmlns:dc="http://purl.org/dc/elements/1.1/"
   xmlns:cc="http://creativecommons.org/ns#"
   xmlns:rdf="http://www.w3.org/1999/02/22-rdf-syntax-ns#"
   xmlns:svg="http://www.w3.org/2000/svg"
   xmlns="http://www.w3.org/2000/svg"
   xmlns:sodipodi="http://sodipodi.sourceforge.net/DTD/sodipodi-0.dtd"
   xmlns:inkscape="http://www.inkscape.org/namespaces/inkscape"
   width="48"
   height="48"
   id="svg2"
   version="1.1"
   inkscape:version="0.48.4 r9939"
   style="display:inline"
   sodipodi:docname="dmxusbplugin.svg">
  <defs
     id="defs4" />
  <sodipodi:namedview
     id="base"
     pagecolor="#ffffff"
     bordercolor="#666666"
     borderopacity="1.0"
     inkscape:pageopacity="0.0"
     inkscape:pageshadow="2"
     inkscape:zoom="4"
     inkscape:cx="-35.316105"
     inkscape:cy="39.203889"
     inkscape:document-units="px"
     inkscape:current-layer="layer8"
     showgrid="false"
     showguides="true"
     inkscape:guide-bbox="true"
     inkscape:window-width="1366"
     inkscape:window-height="698"
     inkscape:window-x="-4"
     inkscape:window-y="-4"
     inkscape:window-maximized="1" />
  <metadata
     id="metadata7">
    <rdf:RDF>
      <cc:Work
         rdf:about="">
        <dc:format>image/svg+xml</dc:format>
        <dc:type
           rdf:resource="http://purl.org/dc/dcmitype/StillImage" />
        <dc:title />
      </cc:Work>
    </rdf:RDF>
  </metadata>
  <g
     inkscape:groupmode="layer"
     id="layer8"
     inkscape:label="Certified"
     style="display:inline"
     transform="translate(0,-206)">
    <g
       id="g3155"
       transform="translate(1.6503725,-2.2728432)">
      <path
         transform="matrix(1.6508582,0,0,-1.6508582,51.121728,266.08458)"
         d="m -7,23 c 0,5.759541 -4.669031,10.428572 -10.428572,10.428572 -5.759541,0 -10.428571,-4.669031 -10.428571,-10.428572 0,-5.759541 4.66903,-10.428572 10.428571,-10.428572 C -11.669031,12.571428 -7,17.240459 -7,23 z"
         sodipodi:ry="10.428572"
         sodipodi:rx="10.428572"
         sodipodi:cy="23"
         sodipodi:cx="-17.428572"
         id="path3058"
         style="fill:none;stroke:#000000;stroke-width:1.93706739;stroke-miterlimit:4;stroke-opacity:1;stroke-dasharray:none"
         sodipodi:type="arc" />
      <path
         transform="matrix(0.84937333,0,0,-0.84937333,3.6900672,246.70986)"
         d="m 12.571429,20.607143 c 0,0.92705 -0.751522,1.678572 -1.678571,1.678572 -0.9270499,0 -1.6785719,-0.751522 -1.6785719,-1.678572 0,-0.927049 0.751522,-1.678571 1.6785719,-1.678571 0.927049,0 1.678571,0.751522 1.678571,1.678571 z"
         sodipodi:ry="1.6785715"
         sodipodi:rx="1.6785715"
         sodipodi:cy="20.607143"
         sodipodi:cx="10.892858"
         id="path3844"
         style="fill:#000000;fill-opacity:1;stroke:#000000;stroke-width:1.63399994;stroke-linecap:round;stroke-linejoin:miter;stroke-miterlimit:4;stroke-opacity:1;stroke-dasharray:none"
         sodipodi:type="arc" />
      <path
         transform="matrix(0.84937333,0,0,-0.84937333,21.697207,246.71044)"
         d="m 12.571429,20.607143 c 0,0.92705 -0.751522,1.678572 -1.678571,1.678572 -0.9270499,0 -1.6785719,-0.751522 -1.6785719,-1.678572 0,-0.927049 0.751522,-1.678571 1.6785719,-1.678571 0.927049,0 1.678571,0.751522 1.678571,1.678571 z"
         sodipodi:ry="1.6785715"
         sodipodi:rx="1.6785715"
         sodipodi:cy="20.607143"
         sodipodi:cx="10.892858"
         id="path3844-8"
         style="fill:#000000;fill-opacity:1;stroke:#000000;stroke-width:1.63399994;stroke-linecap:round;stroke-linejoin:miter;stroke-miterlimit:4;stroke-opacity:1;stroke-dasharray:none"
         sodipodi:type="arc" />
      <path
         transform="matrix(0.84937333,0,0,-0.84937333,6.1732826,239.54402)"
         d="m 12.571429,20.607143 c 0,0.92705 -0.751522,1.678572 -1.678571,1.678572 -0.9270499,0 -1.6785719,-0.751522 -1.6785719,-1.678572 0,-0.927049 0.751522,-1.678571 1.6785719,-1.678571 0.927049,0 1.678571,0.751522 1.678571,1.678571 z"
         sodipodi:ry="1.6785715"
         sodipodi:rx="1.6785715"
         sodipodi:cy="20.607143"
         sodipodi:cx="10.892858"
         id="path3844-9"
         style="fill:#000000;fill-opacity:1;stroke:#000000;stroke-width:1.63399994;stroke-linecap:round;stroke-linejoin:miter;stroke-miterlimit:4;stroke-opacity:1;stroke-dasharray:none"
         sodipodi:type="arc" />
      <path
         transform="matrix(0.84937333,0,0,-0.84937333,19.5117,239.54488)"
         d="m 12.571429,20.607143 c 0,0.92705 -0.751522,1.678572 -1.678571,1.678572 -0.9270499,0 -1.6785719,-0.751522 -1.6785719,-1.678572 0,-0.927049 0.751522,-1.678571 1.6785719,-1.678571 0.927049,0 1.678571,0.751522 1.678571,1.678571 z"
         sodipodi:ry="1.6785715"
         sodipodi:rx="1.6785715"
         sodipodi:cy="20.607143"
         sodipodi:cx="10.892858"
         id="path3844-9-8"
         style="fill:#000000;fill-opacity:1;stroke:#000000;stroke-width:1.63399994;stroke-linecap:round;stroke-linejoin:miter;stroke-miterlimit:4;stroke-opacity:1;stroke-dasharray:none"
         sodipodi:type="arc" />
      <path
         transform="matrix(0.84937333,0,0,-0.84937333,12.700581,236.28036)"
         d="m 12.571429,20.607143 c 0,0.92705 -0.751522,1.678572 -1.678571,1.678572 -0.9270499,0 -1.6785719,-0.751522 -1.6785719,-1.678572 0,-0.927049 0.751522,-1.678571 1.6785719,-1.678571 0.927049,0 1.678571,0.751522 1.678571,1.678571 z"
         sodipodi:ry="1.6785715"
         sodipodi:rx="1.6785715"
         sodipodi:cy="20.607143"
         sodipodi:cx="10.892858"
         id="path3844-9-3"
         style="fill:#000000;fill-opacity:1;stroke:#000000;stroke-width:1.63399994;stroke-linecap:round;stroke-linejoin:miter;stroke-miterlimit:4;stroke-opacity:1;stroke-dasharray:none"
         sodipodi:type="arc" />
    </g>
    <path
       style="fill:#004878;fill-opacity:1;stroke:none"
       d="m 0.817,237.60533 21.2805,0 -3.243989,13.13199 -18.036511,0 z"
       id="rect3163"
       inkscape:connector-curvature="0"
       sodipodi:nodetypes="ccccc" />
  </g>
  <g
     inkscape:groupmode="layer"
     id="layer2"
     inkscape:label="Pin"
     style="display:inline"
     transform="translate(0,-206)">
    <path
       style="fill:#004878;fill-opacity:1;stroke:none"
       d="m 43.207951,237.47905 -0.438492,2.02092 c 0.785815,0 1.597629,0.007 2.156044,0.007 3.547903,0.54273 2.809483,3.15097 1.532448,4.27473 1.439729,1.84493 -0.0045,4.7345 -2.979167,4.97818 l -2.798611,0 -0.374008,1.85114 -12.380954,0 c -2.37901,-0.24285 -4.663453,-0.9635 -6.396826,-4.46852 l -12.7678571,0 0.967262,-4.04903 12.2003971,0 c 1.135474,-2.59742 3.378654,-4.18346 6.886905,-4.61443 z"
       id="path3035"
       inkscape:connector-curvature="0"
       sodipodi:nodetypes="cccccccccccccc" />
  </g>
  <g
     inkscape:groupmode="layer"
     id="layer4"
     inkscape:label="USB"
     style="display:inline"
     transform="translate(0,-206)">
    <path
       style="fill:#ffffff;fill-opacity:1;stroke:none"
       d="m 24.81073,240.08721 2.608158,0 -1.057854,5.41694 c -0.04373,0.41799 0.05461,0.83363 0.966659,0.85723 0.546812,0.0858 1.083065,0.007 1.404394,-0.85723 l 1.130809,-5.41694 2.681114,0 c -0.375245,1.78741 -0.667239,3.57482 -1.13081,5.36222 -0.701236,1.82921 -1.812634,3.00156 -4.413806,2.9547 -2.912966,-0.0638 -3.149704,-1.28113 -3.301235,-2.5352 z"
       id="path3823"
       inkscape:connector-curvature="0"
       sodipodi:nodetypes="ccccccccccc" />
    <path
       style="fill:#ffffff;fill-opacity:1;stroke:none"
       d="m 36.802786,242.4309 2.434888,0.009 c 0.134547,-4.18134 -7.29935,-2.79432 -6.949008,0.45597 -0.01074,0.75013 0.122983,1.49063 2.261619,2.09747 1.169299,0.24107 1.699483,0.53414 1.705334,0.84811 -0.0488,0.81431 -2.142901,1.02781 -2.26162,-0.10943 l -2.52074,-0.009 c -0.01075,0.32547 -0.03439,0.68964 0.04514,0.91839 0.259621,0.95247 1.253593,1.73872 3.068365,1.76272 4.068083,-0.20441 4.176383,-2.51605 4.304371,-3.24652 -0.02603,-1.55862 -1.634313,-1.81342 -1.878603,-1.91508 -2.125536,-0.53972 -2.066046,-0.75024 -2.106589,-1.01226 0.103269,-0.75282 2.024317,-0.64746 1.896843,0.20063 z"
       id="path3825"
       inkscape:connector-curvature="0"
       sodipodi:nodetypes="ccccccccccccc" />
    <path
       style="fill:#ffffff;fill-opacity:1;stroke:#000000;stroke-width:0.00722222;stroke-linecap:butt;stroke-linejoin:miter;stroke-miterlimit:4;stroke-opacity:1;stroke-dasharray:none"
       d="m 40.186224,240.08742 -1.59566,8.08889 4.97882,0 c 3.691619,-0.61855 3.191862,-4.02142 1.94323,-4.36945 1.056336,-0.30234 2.894276,-3.34931 -0.656771,-3.71944 l -4.669619,0 z m 3.48698,1.86198 c 0.983045,0.034 0.659524,1.35655 -0.246007,1.38125 l -1.419618,-0.0135 0.246007,-1.35416 1.419618,-0.0135 z m -2.051563,2.88889 1.753646,0 c 0.927844,0.001 0.920977,1.3026 -0.309201,1.47152 l -1.701737,0 0.257292,-1.47152 z"
       id="path3827"
       inkscape:connector-curvature="0" />
  </g>
  <g
     inkscape:groupmode="layer"
     id="layer6"
     inkscape:label="TM"
     transform="translate(0,-206)">
    <g
       style="font-size:21px;font-style:italic;font-variant:normal;font-weight:normal;font-stretch:normal;line-height:125%;letter-spacing:0px;word-spacing:0px;fill:#ffffff;fill-opacity:1;stroke:none;font-family:Arial;-inkscape-font-specification:Arial Italic"
       id="text3859"
       transform="matrix(0.07222223,0,0,0.07222223,8.7605279,237.4829)">
      <path
         d="m 399.92709,174.13481 2.77881,-13.31982 -4.93213,0 0.35889,-1.71241 11.83301,0 -0.35889,1.71241 -4.89111,0 -2.77881,13.31982 -2.00977,0"
         id="path3864"
         inkscape:connector-curvature="0" />
      <path
         d="m 408.91977,174.13481 3.13769,-15.03223 2.4712,0 1.51757,9.74122 c 0.19824,1.27832 0.32812,2.50537 0.38965,3.68115 0.41699,-1.01172 1.11425,-2.38232 2.0918,-4.11182 l 5.27051,-9.31055 2.5122,0 -3.13769,15.03223 -1.979,0 1.56884,-7.31103 c 0.36229,-1.68847 0.88182,-3.58202 1.5586,-5.68067 -0.43068,0.97755 -0.96389,2.03029 -1.59961,3.15821 l -5.59864,9.83349 -1.93798,0 -1.50733,-9.63867 c -0.13672,-0.88183 -0.23584,-1.91063 -0.29736,-3.08643 -0.17091,1.31935 -0.33839,2.36525 -0.50244,3.1377 l -1.99951,9.5874 -1.9585,0"
         id="path3866"
         inkscape:connector-curvature="0" />
    </g>
    <text
       xml:space="preserve"
       style="font-size:8.91554928px;font-style:normal;font-weight:normal;line-height:125%;letter-spacing:0px;word-spacing:0px;fill:#ffffff;fill-opacity:1;stroke:#ffffff;stroke-width:0.29665574;stroke-miterlimit:4;stroke-opacity:1;stroke-dasharray:none;display:inline;font-family:Sans"
       x="1.3206451"
       y="189.49532"
       id="text3934"
       sodipodi:linespacing="125%"
       transform="scale(0.76276598,1.3110181)"><tspan
         sodipodi:role="line"
         id="tspan3936"
         x="1.3206451"
         y="189.49532"
         style="font-weight:bold;stroke:#ffffff;stroke-width:0.29665574;stroke-miterlimit:4;stroke-opacity:1;stroke-dasharray:none;-inkscape-font-specification:Sans Bold">DMX</tspan></text>
  </g>
</svg>
