<?xml version="1.0" encoding="utf-8"?>
<!-- Generator: Adobe Illustrator 27.9.0, SVG Export Plug-In . SVG Version: 6.00 Build 0)  -->
<svg version="1.1" id="svg3769" xmlns:svg="http://www.w3.org/2000/svg"
	 xmlns="http://www.w3.org/2000/svg" xmlns:xlink="http://www.w3.org/1999/xlink" x="0px" y="0px" viewBox="0 0 256 256"
	 style="enable-background:new 0 0 256 256;" xml:space="preserve">
<style type="text/css">
	.st0{opacity:0.56;fill:#FFFFFF;}
</style>
<path class="st0" d="M64,64c0-5.9,4.8-10.7,10.7-10.7H128c5.9,0,10.7,4.8,10.7,10.7v117.4h32V128c0-5.9,4.8-10.7,10.7-10.7H224
	c5.9,0,10.7,4.8,10.7,10.7s-4.8,10.7-10.7,10.7h-32V192c0,5.9-4.8,10.7-10.7,10.7H128c-5.9,0-10.7-4.8-10.7-10.7V74.7h-32V128
	c0,5.9-4.8,10.7-10.7,10.7H32c-5.9,0-10.7-4.8-10.7-10.7c0-5.9,4.8-10.7,10.7-10.7h32V64z"/>
</svg>
