<?xml version="1.0" encoding="UTF-8"?>
<svg xmlns="http://www.w3.org/2000/svg" version="1.1" xmlns:cc="http://creativecommons.org/ns#" xmlns:dc="http://purl.org/dc/elements/1.1/" xmlns:inkscape="http://www.inkscape.org/namespaces/inkscape" xmlns:rdf="http://www.w3.org/1999/02/22-rdf-syntax-ns#" xmlns:sodipodi="http://sodipodi.sourceforge.net/DTD/sodipodi-0.dtd" xmlns:svg="http://www.w3.org/2000/svg" viewBox="0 0 256 256">
  <defs>
    <style>
      .cls-1, .cls-2 {
        isolation: isolate;
      }

      .cls-3 {
        fill: #fff;
        stroke-width: 0px;
      }

      .cls-2 {
        opacity: .6;
      }
    </style>
  </defs>
  <g id="svg2985" sodipodi:docname="e131plugin.svg">
    <sodipodi:namedview id="base" bordercolor="#666666" borderopacity="1.0" inkscape:current-layer="layer1" inkscape:cx="15.462053" inkscape:cy="23.928571" inkscape:document-units="px" inkscape:grid-bbox="true" inkscape:pageopacity="0.0" inkscape:pageshadow="2" inkscape:window-height="1001" inkscape:window-maximized="1" inkscape:window-width="1920" inkscape:window-x="0" inkscape:window-y="0" inkscape:zoom="7" pagecolor="#ffffff" showgrid="true"/>
    <g id="layer1" class="cls-2" inkscape:groupmode="layer" inkscape:label="Layer 1">
      <g class="cls-1">
        <path class="cls-3" d="M67.3,132.7h-23.3v14.7h27.6v11.4H29.2v-61.6h42.5v11.5h-27.7v13h23.3v11Z"/>
        <path class="cls-3" d="M108.3,158.8h-14.3v-45.5l-14,4.1v-10.8l27-9.3h1.3v61.5Z"/>
        <path class="cls-3" d="M135.9,145c2.3,0,4.1.7,5.6,2s2.2,3,2.2,5.1-.7,3.8-2.2,5.1-3.4,2-5.6,2-4.2-.7-5.6-2c-1.5-1.4-2.2-3.1-2.2-5.1s.7-3.8,2.2-5.1c1.4-1.4,3.3-2,5.6-2Z"/>
        <path class="cls-3" d="M166,122.1h6.7c5.3,0,8-2.6,8-7.8s-.6-3.7-1.9-5c-1.3-1.3-3.1-1.9-5.4-1.9s-3.5.5-4.9,1.6-2.1,2.5-2.1,4.1h-14.2c0-3.2.9-6.1,2.7-8.7s4.3-4.5,7.5-5.9,6.7-2.1,10.5-2.1c6.9,0,12.2,1.6,16.1,4.7,3.9,3.1,5.9,7.4,5.9,12.9s-.8,5.2-2.4,7.5c-1.6,2.4-4,4.3-7.1,5.7,3.3,1.2,5.8,3,7.7,5.4,1.9,2.4,2.8,5.4,2.8,8.9,0,5.5-2.1,9.9-6.3,13.2s-9.8,4.9-16.7,4.9-7.8-.8-11.2-2.3c-3.5-1.5-6.1-3.7-7.8-6.4-1.8-2.7-2.7-5.8-2.7-9.3h14.3c0,1.9.8,3.5,2.3,4.9s3.4,2.1,5.6,2.1,4.5-.7,6-2.1c1.5-1.4,2.2-3.2,2.2-5.3,0-3.1-.8-5.3-2.3-6.6-1.6-1.3-3.7-1.9-6.4-1.9h-6.9v-10.6Z"/>
        <path class="cls-3" d="M234.7,158.8h-14.3v-45.5l-14,4.1v-10.8l27-9.3h1.3v61.5Z"/>
      </g>
    </g>
  </g>
</svg>