<?xml version="1.0" encoding="utf-8"?>
<!-- Generator: Adobe Illustrator 27.3.1, SVG Export Plug-In . SVG Version: 6.00 Build 0)  -->
<svg version="1.1"
	 id="svg2985" xmlns:cc="http://creativecommons.org/ns#" xmlns:sodipodi="http://sodipodi.sourceforge.net/DTD/sodipodi-0.dtd" xmlns:svg="http://www.w3.org/2000/svg" xmlns:dc="http://purl.org/dc/elements/1.1/" xmlns:inkscape="http://www.inkscape.org/namespaces/inkscape" xmlns:rdf="http://www.w3.org/1999/02/22-rdf-syntax-ns#" sodipodi:docname="e131plugin.svg"
	 xmlns="http://www.w3.org/2000/svg" xmlns:xlink="http://www.w3.org/1999/xlink" x="0px" y="0px" viewBox="0 0 256 256"
	 style="enable-background:new 0 0 256 256;" xml:space="preserve">
<style type="text/css">
	.st0{enable-background:new    ;}
	.st1{fill:#224458;}
</style>
<sodipodi:namedview  bordercolor="#666666" borderopacity="1.0" id="base" inkscape:current-layer="layer1" inkscape:cx="15.462053" inkscape:cy="23.928571" inkscape:document-units="px" inkscape:grid-bbox="true" inkscape:pageopacity="0.0" inkscape:pageshadow="2" inkscape:window-height="1001" inkscape:window-maximized="1" inkscape:window-width="1920" inkscape:window-x="0" inkscape:window-y="0" inkscape:zoom="7" pagecolor="#ffffff" showgrid="true">
	</sodipodi:namedview>
<g id="layer1" inkscape:groupmode="layer" inkscape:label="Layer 1">
	<g class="st0">
		<path class="st1" d="M67.3,132.7H44v14.7h27.6v11.4H29.2V97.2h42.5v11.5H44v13h23.3V132.7z"/>
		<path class="st1" d="M108.3,158.8H94v-45.5l-14,4.1v-10.8l27-9.3h1.3V158.8z"/>
		<path class="st1" d="M135.9,145c2.3,0,4.1,0.7,5.6,2c1.5,1.3,2.2,3,2.2,5.1c0,2.1-0.7,3.8-2.2,5.1c-1.5,1.3-3.4,2-5.6,2
			c-2.3,0-4.2-0.7-5.6-2c-1.5-1.4-2.2-3.1-2.2-5.1s0.7-3.8,2.2-5.1C131.7,145.6,133.6,145,135.9,145z"/>
		<path class="st1" d="M166,122.1h6.7c5.3,0,8-2.6,8-7.8c0-2-0.6-3.7-1.9-5c-1.3-1.3-3.1-1.9-5.4-1.9c-1.9,0-3.5,0.5-4.9,1.6
			c-1.4,1.1-2.1,2.5-2.1,4.1h-14.2c0-3.2,0.9-6.1,2.7-8.7s4.3-4.5,7.5-5.9s6.7-2.1,10.5-2.1c6.9,0,12.2,1.6,16.1,4.7
			c3.9,3.1,5.9,7.4,5.9,12.9c0,2.6-0.8,5.2-2.4,7.5c-1.6,2.4-4,4.3-7.1,5.7c3.3,1.2,5.8,3,7.7,5.4c1.9,2.4,2.8,5.4,2.8,8.9
			c0,5.5-2.1,9.9-6.3,13.2c-4.2,3.3-9.8,4.9-16.7,4.9c-4,0-7.8-0.8-11.2-2.3c-3.5-1.5-6.1-3.7-7.8-6.4c-1.8-2.7-2.7-5.8-2.7-9.3
			h14.3c0,1.9,0.8,3.5,2.3,4.9c1.5,1.4,3.4,2.1,5.6,2.1c2.5,0,4.5-0.7,6-2.1c1.5-1.4,2.2-3.2,2.2-5.3c0-3.1-0.8-5.3-2.3-6.6
			c-1.6-1.3-3.7-1.9-6.4-1.9H166V122.1z"/>
		<path class="st1" d="M234.7,158.8h-14.3v-45.5l-14,4.1v-10.8l27-9.3h1.3V158.8z"/>
	</g>
</g>
</svg>
