<svg xmlns:svg="http://www.w3.org/2000/svg" xmlns="http://www.w3.org/2000/svg" xmlns:xlink="http://www.w3.org/1999/xlink" id="svg4486" height="48" width="48" version="1"><metadata id="metadata51"/><defs id="defs4488"><linearGradient id="linearGradient5060"><stop id="stop5062" offset="0"/><stop id="stop5064" offset="1" stop-opacity="0"/></linearGradient><linearGradient id="linearGradient3312" y2="5.46" gradientUnits="userSpaceOnUse" x2="36.36" gradientTransform="matrix(.99770 0 0 1.0407 .16380 -1.1058)" y1="8.06" x1="32.89"><stop id="stop8591" offset="0" stop-color="#fefefe"/><stop id="stop8593" offset="1" stop-color="#cbcbcb"/></linearGradient><linearGradient id="linearGradient3316" y2="46.02" gradientUnits="userSpaceOnUse" x2="24" gradientTransform="matrix(1 0 0 .97778 0 -.96667)" y1="2" x1="24"><stop id="stop3213" offset="0" stop-color="#fff"/><stop id="stop3215" offset="1" style="stop-color:#fff;stop-opacity:0"/></linearGradient><radialGradient id="radialGradient3319" gradientUnits="userSpaceOnUse" cy="112.3" cx="102" gradientTransform="matrix(.36170 0 0 -.39078 .85106 47.517)" r="139.56"><stop id="stop41" offset="0" stop-color="#b7b8b9"/><stop id="stop47" offset="0.19" stop-color="#ececec"/><stop id="stop49" offset="0.26" style="stop-color:#fafafa;stop-opacity:0"/><stop id="stop51" offset="0.3" style="stop-color:#fff;stop-opacity:0"/><stop id="stop53" offset="0.53" style="stop-color:#fafafa;stop-opacity:0"/><stop id="stop55" offset="0.84" style="stop-color:#ebecec;stop-opacity:0"/><stop id="stop57" offset="1" style="stop-color:#e1e2e3;stop-opacity:0"/></radialGradient><linearGradient id="linearGradient3322" y2="47.01" gradientUnits="userSpaceOnUse" x2="25.13" gradientTransform="matrix(1 0 0 .95617 -1.0065e-7 -1.9149)" y1="0.99" x1="25.13"><stop id="stop3602" offset="0" stop-color="#f4f4f4"/><stop id="stop3604" offset="1" stop-color="#dbdbdb"/></linearGradient><linearGradient id="linearGradient3324" y2="2.91" gradientUnits="userSpaceOnUse" x2="-51.79" gradientTransform="matrix(.80750 0 0 .89483 59.41 -2.9806)" y1="50.79" x1="-51.79"><stop id="stop3106" offset="0" stop-color="#aaa"/><stop id="stop3108" offset="1" stop-color="#c8c8c8"/></linearGradient><radialGradient id="radialGradient3327" xlink:href="#linearGradient5060" gradientUnits="userSpaceOnUse" cy="486.65" cx="605.71" gradientTransform="matrix(0.03357313,0,0,0.02142035,16.925524,32.48661)" r="117.14"/><radialGradient id="radialGradient3330" xlink:href="#linearGradient5060" gradientUnits="userSpaceOnUse" cy="486.65" cx="605.71" gradientTransform="matrix(-.023040 0 0 0.0147 21.623 37.04)" r="117.14"/><linearGradient id="linearGradient3333" y2="609.51" gradientUnits="userSpaceOnUse" x2="302.86" gradientTransform="matrix(.067325 0 0 0.0147 -.34114 37.04)" y1="366.65" x1="302.86"><stop id="stop5050" offset="0" stop-opacity="0"/><stop id="stop5056" offset="0.5"/><stop id="stop5052" offset="1" stop-opacity="0"/></linearGradient><filter id="filter3212" height="1.33" width="1.3" y="-0.16" x="-0.15"><feGaussianBlur id="feGaussianBlur3214" stdDeviation="0.77"/></filter><linearGradient id="linearGradient5530" y2="38.27" gradientUnits="userSpaceOnUse" x2="22.37" gradientTransform="matrix(0.87258074,0,0,0.8673058,12.909572,12.347106)" y1="8.03" x1="22.37"><stop id="stop3945" offset="0" stop-color="#fff"/><stop id="stop3947" offset="1" style="stop-color:#fff;stop-opacity:0"/></linearGradient><radialGradient id="radialGradient3144" gradientUnits="userSpaceOnUse" cx="69.45" cy="51.7" r="31" gradientTransform="matrix(0,0.98976611,-1.0767298,0,84.744991,-46.972706)"><stop id="stop3244-5" offset="0" stop-color="#eef87e"/><stop id="stop3246-9" offset="0.26" stop-color="#cde34f"/><stop id="stop3248-7" offset="0.66" stop-color="#93b723"/><stop id="stop3250-8" offset="1" stop-color="#5a7e0d"/></radialGradient><linearGradient id="linearGradient3146" y2="52.81" gradientUnits="userSpaceOnUse" y1="123.19" gradientTransform="matrix(0.4111251,0,0,0.41449115,-3.7516754,-4.062052)" x2="72.42" x1="72.42"><stop id="stop2492-3" offset="0" stop-color="#365f0e"/><stop id="stop2494-8" offset="1" stop-color="#84a718"/></linearGradient><radialGradient id="radialGradient7860" gradientUnits="userSpaceOnUse" cy="33.19" cx="37.38" gradientTransform="matrix(1,0,0,0.2265,0,25.671)" r="14.63"><stop id="stop4335" offset="0"/><stop id="stop4337" stop-opacity="0" offset="1"/></radialGradient><linearGradient id="linearGradient7862" y2="18.39" gradientUnits="userSpaceOnUse" x2="32.94" gradientTransform="matrix(1,0,0,0.41501,6.5485,26.767)" y1="18.54" x1="18.19"><stop id="stop1815" offset="0"/><stop id="stop1817" stop-opacity="0" offset="1"/></linearGradient><linearGradient id="linearGradient7864" y2="14.69" gradientUnits="userSpaceOnUse" x2="30.43" gradientTransform="translate(6.3922,12.185)" y1="12.34" x1="28.08"><stop id="stop6447" stop-color="#fcaf3e" offset="0"/><stop id="stop6449" stop-color="#ce5c00" offset="1"/></linearGradient><linearGradient id="linearGradient7866" y2="22.12" gradientUnits="userSpaceOnUse" x2="22.81" gradientTransform="translate(6.3922,12.185)" y1="21.48" x1="23.45"><stop id="stop2303" stop-color="#ce5c00" offset="0"/><stop id="stop2305" stop-color="#ce5c00" offset="1"/></linearGradient><linearGradient id="linearGradient7868" y2="32.71" gradientUnits="userSpaceOnUse" x2="25.49" y1="34.39" x1="26.38"><stop id="stop6439" stop-color="#e9b96e" offset="0"/><stop id="stop6441" stop-color="#fff" offset="1"/></linearGradient><radialGradient id="radialGradient7870" gradientUnits="userSpaceOnUse" cy="128" cx="-138.84" gradientTransform="matrix(0.32039,-0.32039,0.32241,0.32241,50.518,-74.158)" r="9.13"><stop id="stop4121-0-5" stop-color="#f9a9a9" offset="0"/><stop id="stop4119-1-6" stop-color="#ab5f5f" offset="1"/></radialGradient><linearGradient id="linearGradient7872" y2="134.25" gradientUnits="userSpaceOnUse" x2="-158.75" gradientTransform="matrix(0.18921,-0.18923,0.18921,0.18923,49.739,-37.732)" y1="115.94" x1="-158.75"><stop id="stop4101-1-8" stop-color="#ddd" offset="0"/><stop id="stop4107-2-2" stop-color="#fff" offset="0.34"/><stop id="stop4109-5-7" stop-color="#737373" offset="0.73"/><stop id="stop4103-9-2" stop-color="#bbb" offset="1"/></linearGradient></defs><rect id="rect2879" height="3.57" width="32.51" y="42.43" x="7.74" style="fill:url(#linearGradient3333);opacity:0.3"/><path id="path2881" d="m7.74 42.43v3.57c-1.19 0.01-2.87-0.8-2.87-1.78 0-0.99 1.32-1.78 2.87-1.78z" style="fill:url(#radialGradient3330);opacity:0.3"/><path id="path2883" d="m37.16 40.34v5.2c1.73 0.01 4.18-1.17 4.18-2.6 0-1.44-1.93-2.6-4.18-2.6z" style="fill:url(#radialGradient3327);opacity:0.3"/><path id="path4160" d="m6.5 0.5h24.06c1.41 0.47 8.97 5.88 10.94 9.63v34.38h-35v-44.01z" style="fill:url(#linearGradient3322);stroke-linejoin:round;stroke-width:1;stroke:url(#linearGradient3324)"/><path id="path4191" d="m7.36 44c-0.2 0-0.36-0.17-0.36-0.39v-42.2c0-0.22 0.16-0.39 0.36-0.39 7.48 0.11 15.78-0.16 23.25 0.03l10.28 8.87 0.11 33.7c0 0.22-0.16 0.39-0.36 0.39h-33.28z" fill="url(#radialGradient3319)"/><path id="path2435" d="m40.5 10.26v33.26h-33v-42.04c7.56 0 15.3 0 22.87 0" style="fill:none;opacity:0.6;stroke-linejoin:round;stroke-width:1;stroke:url(#linearGradient3316)"/><path id="path12038" d="m28.62 0.92c4.28 0 2.15 8.48 2.15 8.48s10.36-1.8 10.36 2.82c0-2.61-11.3-10.73-12.51-11.3z" style="filter:url(#filter3212);opacity:0.4"/><path id="path4474" d="m28.62 0.92c3.19 0 2.34 7.66 2.34 7.66s10.18-0.98 10.18 3.64c0-1.13 0.09-1.93-0.13-2.28-1.58-2.52-8.39-8.19-10.86-8.93-0.18-0.06-0.59-0.09-1.52-0.09z" fill="url(#linearGradient3312)"/><g transform="matrix(1.2156163,0,0,1.2156163,-15.194106,-0.19649518)" id="g10273"><path transform="matrix(0.89744,0,0,0.98113,1.3333,1.6887)" d="m52 33.19a14.63 3.31 0 1 1-29.25 0 14.63 3.31 0 1 1 29.25 0z" id="path4331" style="fill:url(#radialGradient7860);opacity:0.07"/><g id="g10286"><path d="m41.08 28.47-15 4.47-0.12 0.07-0.09 0.08-2.75 2.85 7.44-0.84 0.28-0.03 0.19-0.08 10.06-2.68 0-3.84z" id="path2334" style="fill:url(#linearGradient7862);opacity:0.4"/><g id="g10289"><g id="g10291"><path d="m25.89 30.19 19-19c2.17 0.36 3.09 1.73 3.5 3.5l-19 19-4.62 0.7 1.12-4.2z" id="path2273" style="fill:url(#linearGradient7864);stroke-linejoin:round;stroke:url(#linearGradient7866)"/><path d="M26.79 30.69 45.29 12.29c1.09 0.18 1.52 0.99 2 2l-18.4 18.5-3.3 0.9 1.2-3z" id="path2313" style="fill:none;opacity:0.28;stroke:#fff"/></g><g id="g10295"><path d="m24.55 34.63 1.67-4.18c0 0 1.2 0.25 1.93 0.98 0.73 0.73 1 1.94 1 1.94l-4.6 1.26z" id="path2298" fill="url(#linearGradient7868)"/><path transform="translate(6.3922,12.185)" d="m23 21.5-5.5 1.5 2-5" id="path5446" style="fill:none;stroke-linecap:round;stroke-linejoin:round;stroke:#e9b96e"/><path d="m23.96 33.69-0.91 2.25 2.34-0.66c0-0.03 0-0.06 0-0.09 0-0.8-0.64-1.46-1.44-1.5z" id="path2283"/></g></g></g><path d="m42.82 13.15c1.83-0.5 3.89 1.65 3.45 3.45l2.19-2.19c1.07-2.47-1.13-4.41-3.49-3.49l-2.15 2.24z" id="path4113-1" style="fill:url(#radialGradient7870);stroke:#ef2929"/><path d="m40.56 15.25c1.94-0.53 4.1 1.74 3.64 3.64l2.32-2.32c0.76-1.59-2.04-4.34-3.69-3.69l-2.27 2.37z" id="path4095-8" style="fill:url(#linearGradient7872);stroke:#888a85"/></g></svg>