<?xml version="1.0" encoding="utf-8"?>
<!-- Generator: Adobe Illustrator 27.9.0, SVG Export Plug-In . SVG Version: 6.00 Build 0)  -->
<svg version="1.1"
	 id="svg11300" xmlns:sodipodi="http://sodipodi.sourceforge.net/DTD/sodipodi-0.dtd" xmlns:dc="http://purl.org/dc/elements/1.1/" xmlns:cc="http://creativecommons.org/ns#" xmlns:svg="http://www.w3.org/2000/svg" xmlns:inkscape="http://www.inkscape.org/namespaces/inkscape" xmlns:rdf="http://www.w3.org/1999/02/22-rdf-syntax-ns#" sodipodi:docname="efx.svg"
	 xmlns="http://www.w3.org/2000/svg" xmlns:xlink="http://www.w3.org/1999/xlink" x="0px" y="0px" viewBox="0 0 256 256"
	 style="enable-background:new 0 0 256 256;" xml:space="preserve">
<style type="text/css">
	.st0{fill:#42A5F5;}
	.st1{fill:#FFD42A;}
</style>
<sodipodi:namedview  bordercolor="#666666" borderopacity="1" gridtolerance="10" guidetolerance="10" id="namedview34" inkscape:current-layer="g10167" inkscape:cx="8.7" inkscape:cy="22" inkscape:pageopacity="0" inkscape:pageshadow="2" inkscape:window-height="702" inkscape:window-maximized="1" inkscape:window-width="1366" inkscape:window-x="-4" inkscape:window-y="-4" inkscape:zoom="7" objecttolerance="10" pagecolor="#ffffff" showgrid="false" showguides="false">
	</sodipodi:namedview>
<g id="g10167" transform="matrix(4.4,0,0,4.4,-74,-21)">
</g>
<path class="st0" d="M55.4,55.4c0-6.7-5.4-12.1-12.1-12.1s-12.1,5.4-12.1,12.1v127.1c0,16.7,13.5,30.3,30.3,30.3h151.3
	c6.7,0,12.1-5.4,12.1-12.1s-5.4-12.1-12.1-12.1H61.4c-3.3,0-6.1-2.7-6.1-6.1L55.4,55.4L55.4,55.4z"/>
<path class="st1" d="M172.7,107.5c3.5-3.5,9.2-3.5,12.7,0l11.6,11.6l11.6-11.6c3.5-3.5,9.2-3.5,12.7,0s3.5,9.2,0,12.7l-11.6,11.6
	l11.6,11.6c3.5,3.5,3.5,9.2,0,12.7s-9.2,3.5-12.7,0L197,144.5l-11.6,11.6c-3.5,3.5-9.2,3.5-12.7,0s-3.5-9.2,0-12.7l11.6-11.6
	l-11.6-11.6C169.2,116.7,169.2,111,172.7,107.5L172.7,107.5z"/>
<path class="st1" d="M215.1,50.9h-56.2c-8,0-15,5.3-17.3,13L135,86.3h-9.2c-5,0-9,4-9,9s4,9,9,9h4l-11.9,40.9l-18.3-31.4
	c-3.2-5.5-9.1-8.9-15.5-8.9h-13c-5,0-9,4-9,9s4,9,9,9H84l28.9,49.5c1.8,3.1,5.3,4.8,8.9,4.4c3.6-0.4,6.5-3,7.5-6.4l19.3-66h11.9
	c5,0,9-4,9-9s-4-9-9-9h-6.7l5.1-17.5h56.2c5,0,9-4,9-9C224.1,54.9,220.1,50.9,215.1,50.9z"/>
</svg>
