<svg xmlns="http://www.w3.org/2000/svg" version="1.1" x="0" y="0" viewBox="0 0 512 512" xml:space="preserve"><style>.s0{fill:#FFA600;}.s1{fill:#FF902C;}.s2{fill:#B6E4EA;}.s3{fill:#6FC8F1;}</style><path d="M334 454.5h-39.2v-43.4c0-2.4-3.4-4.4-7.5-4.4H224.7c-4.2 0-7.5 2-7.5 4.4v43.4h-31c-0.1 0-0.2 0-0.3 0 -0.1 0-0.2 0-0.3 0h-7.5c-21.4 0-38.7 17.4-38.7 38.7v11.2c0 4.2 3.4 7.5 7.5 7.5h218.4c4.2 0 7.5-3.4 7.5-7.5v-11.2C372.7 471.9 355.4 454.5 334 454.5z" fill="#FFA600"/><path d="M287.3 406.8h-23.1c4.2 0 7.5 2 7.5 4.4v45.9h23.1v-45.9C294.9 408.7 291.5 406.8 287.3 406.8z" fill="#FF902C"/><path d="M334 454.5H186.1c-0.1 0-0.2 0-0.3 0 -0.1 0-0.2 0-0.3 0h-7.5c-21.4 0-38.7 17.4-38.7 38.7v11.2c0 4.2 3.4 7.5 7.5 7.5h218.4c4.2 0 7.5-3.4 7.5-7.5v-11.2C372.7 471.9 355.4 454.5 334 454.5z" fill="#FFA600"/><path d="M334 454.5h-23.1c21.4 0 38.7 17.4 38.7 38.7v11.2c0 4.2-3.4 7.5-7.5 7.5h23.1c4.2 0 7.5-3.4 7.5-7.5v-11.2C372.7 471.9 355.4 454.5 334 454.5z" fill="#FF902C"/><path d="M256 0c-25.6 0-52.4 5.4-77.6 15.6 -28.2 11.4-52.7 28-72.8 49.4 -37.4 37.9-56.3 85.6-56.3 141.8 0 19.1 2.6 37.6 7.5 55.1 0.1 0.3 0.1 0.6 0.2 1 0 0.1 0.1 0.2 0.1 0.3C81.7 349.8 161.6 413.5 256 413.5c114 0 206.8-92.7 206.8-206.8S370 0 256 0zM431.8 130.4l-30.2 14.5C377.5 88.3 321.3 48.5 256 48.5c-19.4 0-37.9 3.5-55.1 9.9l-15.9-29.3c23.1-9.2 47.6-14.1 71-14.1C334.6 15.1 402.2 62.6 431.8 130.4zM306.3 199c1.3 2.7 4 4.3 6.8 4.3 1.1 0 2.2-0.2 3.3-0.7l76.7-36.8c3.9 13 6 26.8 6 41.1 0 60.9-38.3 113.1-92 133.7l-30.2-82.4c-1.4-3.9-5.8-5.9-9.7-4.5 -3.9 1.4-5.9 5.8-4.5 9.7l30 81.8c-11.7 3.1-24 4.8-36.7 4.8 -63.3 0-117.2-41.3-136-98.4l89.9-27.6c4-1.2 6.2-5.4 5-9.4 -1.2-4-5.4-6.2-9.4-5l-89.5 27.4c-2.1-9.7-3.2-19.8-3.2-30.1 0-56.8 33.2-105.9 81.3-129.1l46.2 85.2c1.4 2.5 4 3.9 6.6 3.9 1.2 0 2.4-0.3 3.6-0.9 3.7-2 5-6.6 3-10.2L208.2 71.9c15-5.3 31.1-8.2 47.8-8.2 59.3 0 110.3 36.3 132 87.8l-78.1 37.5C306.1 190.7 304.5 195.2 306.3 199zM116.4 75.5c0 0 0.1-0.1 0.1-0.1 15.5-16.5 33.8-29.9 54.7-40l15.8 29.1c-52.7 25.7-89.2 79.8-89.2 142.3 0 11.9 1.3 23.4 3.8 34.5l-32.1 9.8c-3.4-14.2-5.2-29.1-5.2-44.4C64.3 154.6 81.8 110.4 116.4 75.5zM73.6 265.6l32-9.8c20.7 63.3 80.3 109.1 150.4 109.1 14.5 0 28.6-2 42-5.7l11.5 31.5c-17 4.9-34.9 7.6-53.5 7.6C170.9 398.4 98.5 342.6 73.6 265.6zM323.8 386l-11.5-31.4c59.5-22.7 101.9-80.4 101.9-147.8 0-16.6-2.6-32.6-7.3-47.7l30.4-14.6c6.7 19.5 10.4 40.5 10.4 62.3C447.7 288.6 396.1 358.6 323.8 386z" fill="#D2D2D2"/><path d="M454.8 201.6c-1.4-1.5-3.4-2.4-5.5-2.4H256.7c-2.1 0-4.1 0.9-5.5 2.4 -1.4 1.5-2.1 3.6-2 5.7 2 25.1 13.8 48.4 33 65.5 19.3 17.2 44.4 26.7 70.7 26.7 26.3 0 51.4-9.5 70.7-26.6 19.3-17.2 31-40.4 33-65.5C456.9 205.3 456.2 203.2 454.8 201.6z" fill="#B6E4EA"/><path d="M453.9 200.8c-4.9 18.6-15.2 35.6-30.2 48.9 -19.3 17.2-44.4 26.7-70.7 26.7 -26.3 0-51.4-9.5-70.7-26.6 -14.9-13.3-25.3-30.3-30.2-48.9 -0.3 0.2-0.6 0.5-0.9 0.8 -1.4 1.5-2.1 3.6-2 5.7 2 25.1 13.8 48.4 33 65.5 19.3 17.2 44.4 26.7 70.7 26.7 26.3 0 51.4-9.5 70.7-26.6 19.3-17.2 31-40.4 33-65.5 0.2-2.1-0.5-4.2-2-5.7C454.5 201.3 454.2 201.1 453.9 200.8z" fill="#6FC8F1"/><path d="M263.7 402.9c1.5-1.5 2.4-3.5 2.3-5.6l-3-192.5c0-2.1-0.9-4.1-2.5-5.5 -1.6-1.4-3.7-2.1-5.8-1.9 -25.1 2.4-48.1 14.5-65 34 -16.9 19.6-26 44.8-25.5 71.1 0.4 26.3 10.3 51.3 27.7 70.3 17.5 19 40.9 30.4 66 32C260.1 405.1 262.2 404.4 263.7 402.9z" fill="#B6E4EA"/><path d="M212.1 373c-17.5-19-27.3-44-27.7-70.3 -0.4-26.3 8.7-51.6 25.5-71.1 13.7-15.9 31.5-26.8 51.1-31.7 -0.2-0.2-0.3-0.3-0.5-0.5 -1.6-1.4-3.7-2.1-5.8-1.9 -25.1 2.4-48.1 14.5-65 34 -16.9 19.6-26 44.8-25.5 71.1 0.4 26.3 10.3 51.3 27.7 70.3 17.5 19 40.9 30.4 66 32 2.1 0.1 4.2-0.6 5.7-2.1C244.1 398.6 226.2 388.3 212.1 373z" fill="#6FC8F1"/><path d="M59.5 215c1.5 1.5 3.5 2.3 5.6 2.3l192.4-6c2.1-0.1 4.1-1 5.5-2.6 1.4-1.6 2-3.7 1.8-5.8 -2.8-25-15.3-47.9-35-64.5 -19.8-16.6-45.2-25.3-71.5-24.4s-51.1 11.1-69.9 28.8C69.5 160.6 58.6 184.2 57.3 209.4 57.2 211.5 58 213.5 59.5 215z" fill="#B6E4EA"/><path d="M59.7 215.3c4.4-18.6 14.2-35.7 28.5-49.3 18.7-17.8 43.6-28 69.9-28.8s51.7 7.9 71.5 24.4c15.5 12.9 26.4 29.7 31.8 48.4 0.5-0.4 1-0.8 1.4-1.3 1.4-1.6 2-3.7 1.8-5.8 -2.8-25-15.3-47.9-35-64.5 -19.8-16.6-45.2-25.3-71.5-24.4 -26.3 0.8-51.1 11.1-69.9 28.8 -18.7 17.8-29.7 41.4-31 66.5 -0.1 2.1 0.7 4.2 2.2 5.7C59.5 215.1 59.6 215.2 59.7 215.3z" fill="#6FC8F1"/><path d="M244.2 7.9c-1.5 1.5-2.3 3.5-2.2 5.7l9 192.3c0.1 2.1 1.1 4.1 2.7 5.4 1.6 1.4 3.7 2 5.8 1.7 25-3.2 47.7-16 63.9-36 16.3-20.1 24.5-45.6 23.3-71.9 -1.2-26.3-11.9-50.9-29.9-69.4 -18-18.4-41.8-29.1-67-29.9C247.7 5.6 245.6 6.4 244.2 7.9z" fill="#B6E4EA"/><path d="M346.7 105c-1.2-26.3-11.9-50.9-29.9-69.4C298.7 17.1 274.9 6.5 249.8 5.7c-2.1-0.1-4.1 0.7-5.6 2.2 18.5 4.1 35.7 13.6 49.5 27.7 18.1 18.5 28.7 43.1 29.9 69.4 1.2 26.3-7.1 51.8-23.3 71.9 -12.7 15.7-29.4 27-48.1 32.6 0.4 0.6 0.9 1.2 1.5 1.7 1.6 1.4 3.7 2 5.8 1.7 25-3.2 47.7-16 63.9-36C339.7 156.8 347.9 131.3 346.7 105z" fill="#6FC8F1"/><path d="M259.5 151.8c-31.1 0-56.4 25.3-56.4 56.4s25.3 56.4 56.4 56.4 56.4-25.3 56.4-56.4S290.6 151.8 259.5 151.8z" fill="#F7F5F5"/><circle cx="259.5" cy="208.2" r="40.8" fill="#6FC8F1"/><path d="M262.3 187.3c-13.3-1.3-24.4 9.8-23.1 23.1 1 9.8 8.9 17.8 18.8 18.8 13.3 1.3 24.4-9.8 23.1-23.1C280.1 196.2 272.1 188.3 262.3 187.3z" fill="#606673"/></svg>