<?xml version="1.0" encoding="utf-8"?>
<!-- Generator: Adobe Illustrator 27.3.1, SVG Export Plug-In . SVG Version: 6.00 Build 0)  -->
<svg version="1.1" id="Layer_1" xmlns="http://www.w3.org/2000/svg" xmlns:xlink="http://www.w3.org/1999/xlink" x="0px" y="0px"
	 viewBox="0 0 256 256" style="enable-background:new 0 0 256 256;" xml:space="preserve">
<style type="text/css">
	.st0{fill:#224458;}
</style>
<path class="st0" d="M128.1,19.8c-0.7,0-1.4,0-2.1,0.2C90,27,68,62.9,74.2,99.4c1.2,7.1,3.5,13.8,6.7,19.9L32.8,114h-1.1
	c-6.8,0-12.4,5.6-12.4,12.4c0,0.7,0,1.4,0.2,2.1c6.9,36,42.8,58,79.4,51.7c7.1-1.2,13.8-3.5,19.9-6.7l-5.3,48.1v1.1
	c0,6.8,5.6,12.4,12.4,12.4c0.7,0,1.4,0,2.1-0.2c36-6.9,58-42.8,51.7-79.4c-1.2-7.1-3.5-13.8-6.7-19.9l48.1,5.3h1.1
	c6.8,0,12.4-5.6,12.4-12.4c0-0.7,0-1.4-0.2-2.1c-6.9-36-42.8-58-79.4-51.7c-7.1,1.2-13.8,3.5-19.9,6.7l5.3-48.1v-1.1
	C140.5,25.4,134.9,19.8,128.1,19.8z M127,114c7.4,0,13.5,6,13.5,13.5s-6,13.5-13.5,13.5s-13.5-6-13.5-13.5S119.6,114,127,114z"/>
</svg>
