<?xml version="1.0" encoding="utf-8"?>
<!-- Generator: Adobe Illustrator 27.9.0, SVG Export Plug-In . SVG Version: 6.00 Build 0)  -->
<svg version="1.1" id="Layer_1" xmlns:svg="http://www.w3.org/2000/svg"
	 xmlns="http://www.w3.org/2000/svg" xmlns:xlink="http://www.w3.org/1999/xlink" x="0px" y="0px" viewBox="0 0 256 256"
	 style="enable-background:new 0 0 256 256;" xml:space="preserve">
<style type="text/css">
	.st0{opacity:0.55;}
	.st1{fill:#FFFFFF;}
	.st2{fill:#D6D6D6;}
</style>
<g transform="matrix(-1.0164259,0.51582431,0.51582431,1.0164259,233.18644,-115.04188)" class="st0">
	<path class="st1" d="M170.1,76.2c-37.9,0-73.6,20.2-93.1,52.8l-1.5,2.4l64.7,38.6l27.7,17.4l110.5,0v-2.8
		C278.6,124.8,229.9,76.2,170.1,76.2z M272.9,181.8l-66.5,0c0-0.3,0.1-0.5,0.1-0.8l65.6-9.8C272.5,174.8,272.8,178.4,272.9,181.8
		L272.9,181.8z M141.9,159.6c-0.7,1.3-1.2,2.6-1.7,3.8l-56.8-33.9c2.7-4.3,5.9-8.5,9.4-12.4L141.9,159.6L141.9,159.6z M172.5,146.5
		c15.9,0,28.9,12.9,28.9,28.9c0,2.1-0.3,4.2-0.8,6.4h-30.9l-24.5-15.4C149,154.5,159.9,146.5,172.5,146.5L172.5,146.5z M96.6,112.9
		c4-4.1,8.4-7.9,13.1-11.3l38.4,49.5c-1.2,1.2-2.2,2.4-3.2,3.7L96.6,112.9L96.6,112.9z M152.4,147.4l-38-49
		c4.2-2.7,8.8-5.2,13.4-7.3l29.7,53.2C155.7,145.2,154,146.2,152.4,147.4L152.4,147.4z M162.8,142.3L133,88.9c5.5-2.1,11.2-3.8,17-5
		l16.8,57.5C165.4,141.6,164.1,141.9,162.8,142.3L162.8,142.3z M174.8,140.9c-0.8-0.1-1.5-0.1-2.3-0.1h-0.1l-16.9-58
		c6.7-1,13.1-1.3,19.3-1L174.8,140.9L174.8,140.9z M199.1,153.4c-0.5-0.6-1-1.1-1.4-1.6l26.7-54.5c5.3,3.3,10.3,7.1,15,11.4
		L199.1,153.4L199.1,153.4z M203.8,160.9c-0.4-0.9-0.9-1.8-1.4-2.7l41-45.6c3.5,3.5,6.7,7.4,9.7,11.4L203.8,160.9L203.8,160.9z
		 M205.8,166.4l50.5-37.8c3.2,4.9,6,10.2,8.4,15.6L206.2,168C206.1,167.5,205.9,166.9,205.8,166.4L205.8,166.4z M206.9,173.8
		l59.8-24.4c1.9,5.2,3.4,10.7,4.5,16.3l-64.2,9.6C207,174.8,207,174.3,206.9,173.8L206.9,173.8z M190.7,146.1l12.9-58.7
		c5.4,1.9,10.8,4.2,15.8,7l-26.1,53.4C192.5,147.2,191.6,146.6,190.7,146.1L190.7,146.1z M180.4,141.8l0-59.5c6,0.6,12,1.7,17.8,3.4
		l-12.7,57.7C183.8,142.7,182.1,142.2,180.4,141.8L180.4,141.8z"/>
</g>
<path class="st2" d="M48.2,207c-1.2-2.9-3-7.3-3-7.5c0,0,11.4-3.9,25.3-8.5s30-9.9,35.7-11.9c5.7-1.9,10.5-3.4,10.6-3.2
	s-65.3,33.7-67,34.3C49.7,210.2,48.9,208.8,48.2,207L48.2,207z M42.8,191.9c-1.2-3.6-3.4-14.6-3.4-16.7c0-0.6,0.1-0.8,0.6-0.8
	c0.3,0,16.4-1.3,35.8-2.9c19.4-1.6,35.5-2.9,35.9-2.9s0.8,0.3,1,0.6c0.3,0.5-1.8,1.3-34.4,12.2C59.2,187.8,43.5,193,43.4,193
	C43.2,192.9,43,192.5,42.8,191.9L42.8,191.9z"/>
<path class="st2" d="M38.7,167.5c-0.5-0.5,0-19,0.5-19.4c0,0,1.1,0.1,2.4,0.3c1.3,0.2,16.9,2.9,34.7,6.1c17.8,3.1,32.7,5.8,33.1,5.9
	c1.1,0.5,0.9,1.5-0.3,1.7c-0.5,0.1-8.7,0.8-18.2,1.5c-31.4,2.5-39.6,3.2-44.7,3.7C40.5,167.8,39,167.8,38.7,167.5L38.7,167.5z
	 M74.3,147.4c-18.7-3.3-34-6-34.1-6.1c-0.4-0.4,3.1-15.2,3.7-15.9c0.1-0.1,8.2,2.9,18,6.6s24.3,9.4,32.4,12.5
	c8,3.1,14.6,5.7,14.7,5.7c0.2,0.1-0.3,3.2-0.5,3.2C108.4,153.4,93,150.7,74.3,147.4L74.3,147.4z"/>
<path class="st2" d="M96.9,138.3c-18.3-7.1-43.7-16.9-47.5-18.3l-3.2-1.2l1.1-2.7c2.2-5.4,7.7-16.2,8.3-16.2
	c0.1,0,6.4,4.7,13.9,10.3c7.5,5.7,19.8,14.9,27.3,20.6c10.2,7.7,13.6,10.4,13.6,10.9C110.2,143.5,110.6,143.6,96.9,138.3L96.9,138.3
	z M110.7,133.1c-1-0.8-12.9-9.8-26.5-20.1c-13.6-10.2-24.8-18.7-24.8-18.9c-0.3-0.5,6-8.7,10-13c1.7-1.9,2-2.1,2.4-1.7
	c0.2,0.2,10,12.1,21.6,26.4l21.2,25.9l-0.8,1.4c-0.4,0.7-0.9,1.4-1,1.4C112.6,134.5,111.7,133.9,110.7,133.1L110.7,133.1z
	 M97.3,100.2L76.1,74.3l1.2-1c4.8-4.1,14.6-11.6,14.9-11.3c0,0.1,15,29.5,29.9,58.9l0.6,1.1l-2.1,2.1l-2.1,2.1L97.3,100.2
	L97.3,100.2z"/>
<path class="st2" d="M125.7,113c-1.4-2.8-8.2-16.2-15-29.7c-6.9-13.5-12.5-24.7-12.5-24.9c0-0.7,19.1-9.2,19.6-8.7
	c0.1,0.1,12.6,66.5,12.6,67c0,0.2-0.5,0.5-1.1,0.8l-1.1,0.5L125.7,113L125.7,113z M136.5,112.9c-1.5-7.6-12.2-65.1-12.1-65.2
	c0.7-0.7,18.8-4.1,19.2-3.6c0.1,0.1-2.6,69.3-2.7,69.4c0,0-0.8,0.2-1.6,0.4c-0.8,0.2-1.7,0.4-2,0.5
	C136.9,114.5,136.7,114.2,136.5,112.9L136.5,112.9z M150.8,112.9l-3.1-0.3l0.2-3.4c0.2-3.1,2.6-63.7,2.6-64.9c0-0.5,0.3-0.6,2.4-0.7
	c2.2-0.2,14.3,0.3,14.6,0.6c0.2,0.2-13.1,69.2-13.3,69.1C154,113.2,152.5,113.1,150.8,112.9L150.8,112.9z"/>
<path class="st2" d="M162.9,115.6c-1.9-0.8-2.2-1-2.1-1.6c0.2-0.9,13.3-68.7,13.3-68.9c0-0.2,5,0.7,8.7,1.5
	c2.9,0.7,9.9,2.7,10.1,2.9c0.2,0.2-27.2,67-27.5,67C165.3,116.6,164.1,116.1,162.9,115.6L162.9,115.6z M173.3,121.7
	c-0.9-0.7-1.6-1.4-1.6-1.6c0-0.5,27.3-67.4,27.7-67.8c0.6-0.6,15.4,6.6,15.3,7.5c0,0.4-38.8,62.1-39.5,62.8
	C175,122.9,174.5,122.7,173.3,121.7z"/>
</svg>
