<svg xmlns:svg="http://www.w3.org/2000/svg" xmlns="http://www.w3.org/2000/svg" id="svg2" version="1.1" xml:space="preserve" width="375" height="375" viewBox="0 0 375 375"><metadata id="metadata8"/><defs id="defs6"><clipPath clipPathUnits="userSpaceOnUse" id="clipPath16"><path d="M0 300 300 300 300 0 0 0 0 300Z" id="path18"/></clipPath><clipPath clipPathUnits="userSpaceOnUse" id="clipPath26"><path d="M0 300 300 300 300 0 0 0 0 300Z" id="path28"/></clipPath><clipPath clipPathUnits="userSpaceOnUse" id="clipPath34"><path d="m38.12 57.92c0 0-12.33 0-12.33 12.33l0 148.01c0 0 0 12.33 12.33 12.33l98.67 0c0 0 12.33 0 12.33-12.33 0-12.33 12.34-12.33 12.34-12.33l100.43 0c0 0 12.33 0 12.33-12.33 0-12.33 0-123.34 0-123.34 0 0 0-12.33-12.33-12.33l-223.77 0z" id="path36"/></clipPath><linearGradient x1="0" y1="0" x2="1" y2="0" gradientUnits="userSpaceOnUse" gradientTransform="matrix(248.43848,0,0,-248.43848,25.78125,144.25488)" spreadMethod="pad" id="linearGradient42"><stop offset="0" id="stop44" style="stop-color:#ffa000;stop-opacity:1"/><stop offset="0.17" id="stop46" style="stop-color:#ffff00;stop-opacity:1"/><stop offset="0.22" id="stop48" style="stop-color:#ffff00;stop-opacity:1"/><stop offset="0.59" id="stop50" style="stop-color:#ffa000;stop-opacity:1"/><stop offset="0.9" id="stop52" style="stop-color:#ffa000;stop-opacity:1"/><stop offset="0.97" id="stop54" style="stop-color:#ffa000;stop-opacity:1"/><stop offset="1" id="stop56" style="stop-color:#ffa000;stop-opacity:1"/></linearGradient><clipPath clipPathUnits="userSpaceOnUse" id="clipPath66"><path d="m38.12 55.65c0 0-12.33 0-12.33 12.34l0 148c0 0 0 12.33 12.33 12.33l98.67 0c0 0 12.33 0 12.33-12.33 0-12.33 12.34-12.33 12.34-12.33l100.43 0c0 0 12.33 0 12.33-12.33 0-12.33 0-123.34 0-123.34 0 0 0-12.33-12.33-12.33l-223.77 0z" id="path68"/></clipPath><linearGradient x1="0" y1="0" x2="1" y2="0" gradientUnits="userSpaceOnUse" gradientTransform="matrix(0,-104.60739,-104.60739,0,150.00049,228.32471)" spreadMethod="pad" id="linearGradient74"><stop offset="0" id="stop76" style="stop-color:#fff300;stop-opacity:1"/><stop offset="0.17" id="stop78" style="stop-color:#fff300;stop-opacity:1"/><stop offset="0.74" id="stop80" style="stop-color:#ffa100;stop-opacity:1"/><stop offset="1" id="stop82" style="stop-color:#ffa100;stop-opacity:1"/></linearGradient><clipPath clipPathUnits="userSpaceOnUse" id="clipPath90"><path d="m53.63 274.65 192.86 0 0-149.61-192.86 0 0 149.61z" id="path92"/></clipPath><clipPath clipPathUnits="userSpaceOnUse" id="clipPath94"><path d="m53.63 125.04 0 124.23c0 14.02 11.41 25.38 25.49 25.38l101.04 0 66.33-66.04 0-83.57-192.86 0z" id="path96"/></clipPath><linearGradient x1="0" y1="0" x2="1" y2="0" gradientUnits="userSpaceOnUse" gradientTransform="matrix(0,-150.73886,-150.73886,0,150.06201,274.37402)" spreadMethod="pad" id="linearGradient98"><stop offset="0" id="stop100" style="stop-color:#ffffff;stop-opacity:1"/><stop offset="0.03" id="stop102" style="stop-color:#ffffff;stop-opacity:1"/><stop offset="0.25" id="stop104" style="stop-color:#ffffff;stop-opacity:1"/><stop offset="0.65" id="stop106" style="stop-color:#b2b2b2;stop-opacity:1"/><stop offset="1" id="stop108" style="stop-color:#b2b2b2;stop-opacity:1"/></linearGradient><clipPath clipPathUnits="userSpaceOnUse" id="clipPath128"><path d="m81.49 270.65c-13.61 0-24.64-10.99-24.64-24.54l0-182.92c0-13.55 11.03-24.54 24.64-24.54l137.14 0c13.61 0 24.64 10.99 24.64 24.54l0 143.62-64.11 63.84-97.67 0z" id="path130"/></clipPath><linearGradient x1="0" y1="0" x2="1" y2="0" gradientUnits="userSpaceOnUse" gradientTransform="matrix(-1.53e-5,-233.74512,-233.74512,1.53e-5,150.06201,270.21924)" spreadMethod="pad" id="linearGradient136"><stop offset="0" id="stop138" style="stop-color:#ffffff;stop-opacity:1"/><stop offset="0.03" id="stop140" style="stop-color:#ffffff;stop-opacity:1"/><stop offset="0.16" id="stop142" style="stop-color:#ffffff;stop-opacity:1"/><stop offset="1" id="stop144" style="stop-color:#dadee2;stop-opacity:1"/></linearGradient><clipPath clipPathUnits="userSpaceOnUse" id="clipPath152"><path d="m216.94 47.93-133.75 0c-10.03 0-18.19 8.13-18.19 18.11l0 177.23c0 9.99 8.16 18.11 18.19 18.11l94.98 0 56.96-56.21 0-139.13c0-9.99-8.16-18.11-18.19-18.11" id="path154"/></clipPath><linearGradient x1="0" y1="0" x2="1" y2="0" gradientUnits="userSpaceOnUse" gradientTransform="matrix(-1.53e-5,213.77068,213.77068,1.53e-5,150.06299,48.598633)" spreadMethod="pad" id="linearGradient160"><stop offset="0" id="stop162" style="stop-color:#ffffff;stop-opacity:1"/><stop offset="0.01" id="stop164" style="stop-color:#ffffff;stop-opacity:1"/><stop offset="0.5" id="stop166" style="stop-color:#ffffff;stop-opacity:1"/><stop offset="1" id="stop168" style="stop-color:#dadee2;stop-opacity:1"/></linearGradient><clipPath clipPathUnits="userSpaceOnUse" id="clipPath176"><path d="m98.32 270.65 144.95 0 0-144.41-144.95 0 0 144.41z" id="path178"/></clipPath><clipPath clipPathUnits="userSpaceOnUse" id="clipPath180"><path d="m98.32 270.65 80.84 0 64.11-63.84 0-80.57-144.61 144.1-0.34 0.31z" id="path182"/></clipPath><linearGradient x1="0" y1="0" x2="1" y2="0" gradientUnits="userSpaceOnUse" gradientTransform="matrix(39.331924,39.331924,39.331924,-39.331924,172.91504,200.56445)" spreadMethod="pad" id="linearGradient184"><stop offset="0" id="stop186" style="stop-color:#ffffff;stop-opacity:1"/><stop offset="0.36" id="stop188" style="stop-color:#ffffff;stop-opacity:1"/><stop offset="0.74" id="stop190" style="stop-color:#ffffff;stop-opacity:1"/><stop offset="0.96" id="stop192" style="stop-color:#2a4a68;stop-opacity:1"/><stop offset="1" id="stop194" style="stop-color:#2a4a68;stop-opacity:1"/></linearGradient><clipPath clipPathUnits="userSpaceOnUse" id="clipPath214"><path d="m98.32 270.65 144.95 0 0-144.41-144.95 0 0 144.41z" id="path216"/></clipPath><clipPath clipPathUnits="userSpaceOnUse" id="clipPath218"><path d="m98.32 270.65 80.84 0 64.11-63.84 0-80.57-144.61 144.1-0.34 0.31z" id="path220"/></clipPath><linearGradient x1="0" y1="0" x2="1" y2="0" gradientUnits="userSpaceOnUse" gradientTransform="matrix(39.331924,39.331924,39.331924,-39.331924,172.91504,200.56445)" spreadMethod="pad" id="linearGradient222"><stop offset="0" id="stop224" style="stop-color:#ffffff;stop-opacity:1"/><stop offset="0.57" id="stop226" style="stop-color:#ffffff;stop-opacity:1"/><stop offset="1" id="stop228" style="stop-color:#2a4a68;stop-opacity:1"/></linearGradient><clipPath clipPathUnits="userSpaceOnUse" id="clipPath248"><path d="m174.98 270.65 68.3 0 0-68.02-68.3 0 0 68.02z" id="path250"/></clipPath><clipPath clipPathUnits="userSpaceOnUse" id="clipPath252"><path d="m172 273 74 0 0-73-74 0 0 73z" id="path254"/></clipPath><clipPath clipPathUnits="userSpaceOnUse" id="clipPath256"><path d="m171 274 76 0 0-75-76 0 0 75z" id="path258"/></clipPath><clipPath clipPathUnits="userSpaceOnUse" id="clipPath260"><path d="m172 200 74 0 0 73-74 0 0-73z" id="path262"/></clipPath><mask maskUnits="userSpaceOnUse" x="0" y="0" width="1" height="1" id="mask264"><g id="g266"><g clip-path="url(#clipPath252)" id="g268"><g id="g270"><g id="g272"/><g id="g274"><g clip-path="url(#clipPath256)" id="g276"><g id="g278"><g clip-path="url(#clipPath260)" id="g280"><g id="g282"><g transform="matrix(74,0,0,73,172,200)" id="g284"><image width="1" height="1" preserveAspectRatio="none" transform="matrix(1,0,0,-1,0,1)" id="image286"/></g></g></g></g></g></g></g></g></g></mask><clipPath clipPathUnits="userSpaceOnUse" id="clipPath288"><path d="m174.98 270.65 68.3 0 0-68.02-68.3 0 0 68.02z" id="path290"/></clipPath><clipPath clipPathUnits="userSpaceOnUse" id="clipPath314"><path d="m179.17 231.9c0-13.85 11.28-25.08 25.19-25.08l38.92 0-64.11 63.83 0-38.75z" id="path316"/></clipPath><linearGradient x1="0" y1="0" x2="1" y2="0" gradientUnits="userSpaceOnUse" gradientTransform="matrix(64.106445,0,0,-64.106445,179.1709,238.73877)" spreadMethod="pad" id="linearGradient322"><stop offset="0" id="stop324" style="stop-color:#ffffff;stop-opacity:1"/><stop offset="0.39" id="stop326" style="stop-color:#ffffff;stop-opacity:1"/><stop offset="0.88" id="stop328" style="stop-color:#ffffff;stop-opacity:1"/><stop offset="1" id="stop330" style="stop-color:#dadee2;stop-opacity:1"/></linearGradient><clipPath clipPathUnits="userSpaceOnUse" id="clipPath338"><path d="m185.98 231.51 0 23.35 41.9-41.72-23.45 0c-10.17 0-18.45 8.24-18.45 18.38" id="path340"/></clipPath><linearGradient x1="0" y1="0" x2="1" y2="0" gradientUnits="userSpaceOnUse" gradientTransform="matrix(-1.53e-5,188.00262,188.00262,1.53e-5,206.93359,71.179687)" spreadMethod="pad" id="linearGradient346"><stop offset="0" id="stop348" style="stop-color:#ffffff;stop-opacity:1"/><stop offset="0.2" id="stop350" style="stop-color:#dadee2;stop-opacity:1"/><stop offset="1" id="stop352" style="stop-color:#dadee2;stop-opacity:1"/></linearGradient><clipPath clipPathUnits="userSpaceOnUse" id="clipPath1288"><path d="m25.73 147.08 248.49 0 0-27.76-248.49 0 0 27.76z" id="path1290"/></clipPath><clipPath clipPathUnits="userSpaceOnUse" id="clipPath1292"><path d="m23 150 254 0 0-33-254 0 0 33z" id="path1294"/></clipPath><clipPath clipPathUnits="userSpaceOnUse" id="clipPath1296"><path d="m22 151 256 0 0-35-256 0 0 35z" id="path1298"/></clipPath><clipPath clipPathUnits="userSpaceOnUse" id="clipPath1300"><path d="m23 117 254 0 0 33-254 0 0-33z" id="path1302"/></clipPath><mask maskUnits="userSpaceOnUse" x="0" y="0" width="1" height="1" id="mask1304"><g id="g1306"><g clip-path="url(#clipPath1292)" id="g1308"><g id="g1310"><g id="g1312"/><g id="g1314"><g clip-path="url(#clipPath1296)" id="g1316"><g id="g1318"><g clip-path="url(#clipPath1300)" id="g1320"><g id="g1322"><g transform="matrix(254,0,0,33,23,117)" id="g1324"><image width="1" height="1" preserveAspectRatio="none" transform="matrix(1,0,0,-1,0,1)" id="image1326"/></g></g></g></g></g></g></g></g></g></mask><clipPath clipPathUnits="userSpaceOnUse" id="clipPath1328"><path d="m25.73 147.08 248.49 0 0-27.76-248.49 0 0 27.76z" id="path1330"/></clipPath><clipPath clipPathUnits="userSpaceOnUse" id="clipPath1354"><path d="m56.56 167.67 186.5 0 0-40.01-186.5 0 0 40.01z" id="path1356"/></clipPath><clipPath clipPathUnits="userSpaceOnUse" id="clipPath1358"><path d="m243.06 127.66-186.5 0 0 40.01 186.5 0 0-40.01z" id="path1360"/></clipPath><linearGradient x1="0" y1="0" x2="1" y2="0" gradientUnits="userSpaceOnUse" gradientTransform="matrix(10.257813,-61.697754,-61.697754,-10.257813,145.84131,171.54541)" spreadMethod="pad" id="linearGradient1362"><stop offset="0" id="stop1364" style="stop-color:#ffffff;stop-opacity:1"/><stop offset="0.22" id="stop1366" style="stop-color:#ffffff;stop-opacity:1"/><stop offset="0.5" id="stop1368" style="stop-color:#ffffff;stop-opacity:1"/><stop offset="0.85" id="stop1370" style="stop-color:#2a4a68;stop-opacity:1"/><stop offset="1" id="stop1372" style="stop-color:#2a4a68;stop-opacity:1"/></linearGradient><clipPath clipPathUnits="userSpaceOnUse" id="clipPath1392"><path d="m261.8 31.53c0 0 12.33 0 12.33 8 0 8 16.49 96.04 16.49 96.04 0 0 0 8-12.33 8l-116.93 0c0 0-12.33 0-12.33-8 0-8-12.33-8-12.33-8l-114.99 0c0 0-12.33 0-12.33-8 0-8 16.32-80.03 16.32-80.03 0 0 0-8 12.33-8l223.77 0z" id="path1394"/></clipPath><linearGradient x1="0" y1="0" x2="1" y2="0" gradientUnits="userSpaceOnUse" gradientTransform="matrix(282.50427,0,0,-282.50427,8.1791992,87.555664)" spreadMethod="pad" id="linearGradient1400"><stop offset="0" id="stop1402" style="stop-color:#ffa000;stop-opacity:1"/><stop offset="0.22" id="stop1404" style="stop-color:#ffff00;stop-opacity:1"/><stop offset="0.29" id="stop1406" style="stop-color:#ffff00;stop-opacity:1"/><stop offset="0.55" id="stop1408" style="stop-color:#ffa000;stop-opacity:1"/><stop offset="1" id="stop1410" style="stop-color:#ffa000;stop-opacity:1"/></linearGradient><clipPath clipPathUnits="userSpaceOnUse" id="clipPath1420"><path d="m261.8 28.72c0 0 12.33 0 12.33 8 0 8 16.49 96.04 16.49 96.04 0 0 0 8-12.33 8l-116.93 0c0 0-12.33 0-12.33-8 0-8-12.33-8-12.33-8l-114.99 0c0 0-12.33 0-12.33-8 0-8 16.32-80.03 16.32-80.03 0 0 0-8 12.33-8l223.77 0z" id="path1422"/></clipPath><linearGradient x1="0" y1="0" x2="1" y2="0" gradientUnits="userSpaceOnUse" gradientTransform="matrix(0,-110.69817,-110.69817,0,149.99951,139.85645)" spreadMethod="pad" id="linearGradient1428"><stop offset="0" id="stop1430" style="stop-color:#fff600;stop-opacity:1"/><stop offset="1" id="stop1432" style="stop-color:#ffbf00;stop-opacity:1"/></linearGradient><clipPath clipPathUnits="userSpaceOnUse" id="clipPath1440"><path d="m26.94 39.36 245.76 0 0-1.33-245.76 0 0 1.33z" id="path1442"/></clipPath></defs><g id="g10" transform="matrix(1.25,0,0,-1.25,0,375)"><g id="g12"><g id="g14" clip-path="url(#clipPath16)"><path d="m300 135.58c0 6.15-4.48 14.93-16.41 16.95l0 41.06c0 15.93-12.98 21.71-21.71 21.71l-12.95 0-62.71 62.45-2.93 2.91-4.13 0-97.67 0c-19.1 0-34.64-15.49-34.64-34.54l0-6.15-8.73 0c-15.93 0-21.71-12.98-21.71-21.71l0-1.84 0-0.43 0-79.52C7.78 134.92 0 129.49 0 119.57 0 119.33 0.01 119.05 0.03 118.74 0.01 118.4 0 118.05 0 117.69 0 117.55 0.01 117.38 0.01 117.2 0.01 117.05 0 116.91 0 116.76 0 108.47 12.33 53.3 16.39 35.36 17.09 28.47 23.11 19.35 38.03 19.35l223.77 0c10.46 0 21.71 5.44 21.71 17.38 0-0.04 0-0.06 0-0.06 0.16 5.53 8.54 52.75 16.33 94.37l0.16 0.86 0 0.87c0 0.02 0 0.04 0 0.06l0 0.01 0 0.87c0 0.28-0.01 0.56-0.03 0.84l0.03 0.16 0 0.87z" id="path20" style="fill-rule:nonzero;fill:#000"/></g></g><g id="g30"><g id="g32" clip-path="url(#clipPath34)"><g id="g38"><g id="g40"><path d="m38.12 57.92c0 0-12.33 0-12.33 12.33l0 148.01c0 0 0 12.33 12.33 12.33l98.67 0c0 0 12.33 0 12.33-12.33 0-12.33 12.34-12.33 12.34-12.33l100.43 0c0 0 12.33 0 12.33-12.33 0-12.33 0-123.34 0-123.34 0 0 0-12.33-12.33-12.33l-223.77 0z" id="path58" fill="url(#linearGradient42)"/></g></g></g></g><path d="m38.12 50.86c0 0-12.33 0-12.33 12.74l0 152.82c0 0 0 12.74 12.33 12.74l98.67 0c0 0 12.33 0 12.33-12.74 0-12.73 12.34-12.73 12.34-12.73l100.43 0c0 0 12.33 0 12.33-12.73 0-12.74 0-127.35 0-127.35 0 0 0-12.74-12.33-12.74l-223.77 0z" id="path60" style="fill-rule:nonzero;fill:#ff0"/><g id="g62"><g id="g64" clip-path="url(#clipPath66)"><g id="g70"><g id="g72"><path d="m38.12 55.65c0 0-12.33 0-12.33 12.34l0 148c0 0 0 12.33 12.33 12.33l98.67 0c0 0 12.33 0 12.33-12.33 0-12.33 12.34-12.33 12.34-12.33l100.43 0c0 0 12.33 0 12.33-12.33 0-12.33 0-123.34 0-123.34 0 0 0-12.33-12.33-12.33l-223.77 0z" id="path84" fill="url(#linearGradient74)"/></g></g></g></g><g id="g86"><g id="g88"/><g id="g110"><g clip-path="url(#clipPath90)" id="g112"><g id="g114"><g clip-path="url(#clipPath94)" id="g116"><g id="g118"><g id="g120"><path d="m53.63 125.04 0 124.23c0 14.02 11.41 25.38 25.49 25.38l101.04 0 66.33-66.04 0-83.57-192.86 0z" id="path122" fill="url(#linearGradient98)"/></g></g></g></g></g></g></g><g id="g124"><g id="g126" clip-path="url(#clipPath128)"><g id="g132"><g id="g134"><path d="m81.49 270.65c-13.61 0-24.64-10.99-24.64-24.54l0-182.92c0-13.55 11.03-24.54 24.64-24.54l137.14 0c13.61 0 24.64 10.99 24.64 24.54l0 143.62-64.11 63.84-97.67 0z" id="path146" fill="url(#linearGradient136)"/></g></g></g></g><g id="g148"><g id="g150" clip-path="url(#clipPath152)"><g id="g156"><g id="g158"><path d="m216.94 47.93-133.75 0c-10.03 0-18.19 8.13-18.19 18.11l0 177.23c0 9.99 8.16 18.11 18.19 18.11l94.98 0 56.96-56.21 0-139.13c0-9.99-8.16-18.11-18.19-18.11" id="path170" fill="url(#linearGradient160)"/></g></g></g></g><g id="g172"><g id="g174"/><g id="g196"><g clip-path="url(#clipPath176)" id="g198" opacity="0.5"><g id="g200"><g clip-path="url(#clipPath180)" id="g202"><g id="g204"><g id="g206"><path d="m98.32 270.65 80.84 0 64.11-63.84 0-80.57-144.61 144.1-0.34 0.31z" id="path208" fill="url(#linearGradient184)"/></g></g></g></g></g></g></g><g id="g210"><g id="g212"/><g id="g230"><g clip-path="url(#clipPath214)" id="g232" opacity="0.5"><g id="g234"><g clip-path="url(#clipPath218)" id="g236"><g id="g238"><g id="g240"><path d="m98.32 270.65 80.84 0 64.11-63.84 0-80.57-144.61 144.1-0.34 0.31z" id="path242" fill="url(#linearGradient222)"/></g></g></g></g></g></g></g><g id="g244"><g id="g246"/><g id="g292"><g clip-path="url(#clipPath248)" id="g294" opacity="0.5"><g id="g296"><g id="g298"/><g mask="url(#mask264)" id="g300"><g id="g302"/><g id="g304"><g clip-path="url(#clipPath288)" id="g306"><path d="m243.28 202.64-41.46 0c-14.82 0-26.84 11.97-26.84 26.73l0 41.29 4.13 0 64.17-63.9 0-4.12z" id="path308" style="fill-rule:nonzero;fill:#2a4a68"/></g></g></g></g></g></g></g><g id="g310"><g id="g312" clip-path="url(#clipPath314)"><g id="g318"><g id="g320"><path d="m179.17 231.9c0-13.85 11.28-25.08 25.19-25.08l38.92 0-64.11 63.83 0-38.75z" id="path332" fill="url(#linearGradient322)"/></g></g></g></g><g id="g334"><g id="g336" clip-path="url(#clipPath338)"><g id="g342"><g id="g344"><path d="m185.98 231.51 0 23.35 41.9-41.72-23.45 0c-10.17 0-18.45 8.24-18.45 18.38" id="path354" fill="url(#linearGradient346)"/></g></g></g></g><path d="m85.27 228.99 8.75 0 0-2.47-5.19 0 0-2 4.44 0 0-2.31-4.44 0 0-4.67-3.56 0 0 11.45zM95.83 225.83l3.19 0 0-8.3-3.19 0 0 8.3M95.83 225.83l3.19 0 0-8.3-3.19 0 0 8.3M95.83 225.83l3.19 0 0-8.3-3.19 0 0 8.3zm0 3.16 3.19 0 0-2.16-3.19 0 0 2.16zM101.16 228.99l3.19 0 0-11.45-3.19 0 0 11.45zM112.35 222.42c-0.06 0.61-0.23 1.05-0.5 1.31-0.27 0.26-0.62 0.4-1.06 0.4-0.5 0-0.91-0.2-1.21-0.6-0.19-0.25-0.31-0.62-0.37-1.11l3.13 0zm3.23-1.53-6.37 0c0.06-0.51 0.2-0.89 0.41-1.13 0.31-0.36 0.71-0.54 1.2-0.54 0.31 0 0.61 0.08 0.89 0.23 0.17 0.1 0.36 0.27 0.56 0.52l3.14-0.28c-0.48-0.84-1.06-1.44-1.74-1.8-0.68-0.36-1.65-0.55-2.92-0.55-1.1 0-1.96 0.16-2.6 0.47-0.63 0.31-1.15 0.8-1.57 1.48-0.41 0.67-0.62 1.47-0.62 2.38 0 1.3 0.42 2.35 1.25 3.15 0.83 0.8 1.98 1.2 3.44 1.2 1.19 0 2.13-0.18 2.81-0.54 0.69-0.36 1.21-0.88 1.57-1.56 0.36-0.68 0.54-1.57 0.54-2.66l0-0.36zM116.49 219.85l3.16 0.3c0.13-0.37 0.31-0.64 0.55-0.8 0.24-0.16 0.55-0.24 0.94-0.24 0.43 0 0.76 0.09 0.99 0.27 0.18 0.14 0.27 0.3 0.27 0.51 0 0.23-0.12 0.4-0.36 0.53-0.17 0.09-0.63 0.2-1.37 0.33-1.11 0.19-1.87 0.37-2.31 0.53-0.43 0.16-0.79 0.44-1.09 0.83-0.29 0.39-0.44 0.84-0.44 1.33 0 0.55 0.16 1.02 0.48 1.41 0.32 0.4 0.76 0.69 1.32 0.89 0.56 0.19 1.31 0.29 2.25 0.29 0.99 0 1.72-0.08 2.19-0.23 0.47-0.15 0.87-0.39 1.18-0.7 0.32-0.32 0.58-0.75 0.79-1.29l-3.01-0.3c-0.08 0.26-0.21 0.46-0.39 0.58-0.25 0.17-0.56 0.25-0.91 0.25-0.36 0-0.62-0.06-0.79-0.19-0.17-0.13-0.25-0.28-0.25-0.46 0-0.2 0.11-0.35 0.32-0.46 0.21-0.1 0.67-0.2 1.37-0.28 1.06-0.12 1.85-0.29 2.36-0.5 0.52-0.21 0.91-0.52 1.19-0.91 0.28-0.39 0.41-0.83 0.41-1.3 0-0.48-0.14-0.94-0.43-1.4-0.29-0.45-0.74-0.81-1.37-1.08-0.62-0.27-1.47-0.4-2.54-0.4-1.52 0-2.6 0.22-3.24 0.65-0.64 0.43-1.06 1.05-1.24 1.85" id="path1274" style="fill-rule:nonzero;fill:#000"/><g id="g1284"><g id="g1286"/><g id="g1332"><g clip-path="url(#clipPath1288)" id="g1334"><g id="g1336"><g id="g1338"/><g mask="url(#mask1304)" id="g1340"><g id="g1342"/><g id="g1344"><g clip-path="url(#clipPath1328)" id="g1346"><path d="m25.78 131.07 110.92 0c0.1 0 9.84 0.15 9.84 5.5 0 8.31 9.7 10.5 14.83 10.5l112.85 0 0-27.76-248.49 0 0.05 11.75z" id="path1348" style="fill-rule:nonzero;fill:#d59758"/></g></g></g></g></g></g></g><g id="g1388"><g id="g1390" clip-path="url(#clipPath1392)"><g id="g1396"><g id="g1398"><path d="m261.8 31.53c0 0 12.33 0 12.33 8 0 8 16.49 96.04 16.49 96.04 0 0 0 8-12.33 8l-116.93 0c0 0-12.33 0-12.33-8 0-8-12.33-8-12.33-8l-114.99 0c0 0-12.33 0-12.33-8 0-8 16.32-80.03 16.32-80.03 0 0 0-8 12.33-8l223.77 0z" id="path1412" fill="url(#linearGradient1400)"/></g></g></g></g><path d="m261.8 29.66c0 0 12.33 0 12.33 8 0 8 16.49 96.04 16.49 96.04 0 0 0 8-12.33 8l-116.93 0c0 0-12.33 0-12.33-8 0-8-12.33-8-12.33-8l-114.99 0c0 0-12.33 0-12.33-8 0-8 16.32-80.03 16.32-80.03 0 0 0-8 12.33-8l223.77 0z" id="path1414" style="fill-rule:nonzero;fill:#ff0"/><g id="g1416"><g id="g1418" clip-path="url(#clipPath1420)"><g id="g1424"><g id="g1426"><path d="m261.8 28.72c0 0 12.33 0 12.33 8 0 8 16.49 96.04 16.49 96.04 0 0 0 8-12.33 8l-116.93 0c0 0-12.33 0-12.33-8 0-8-12.33-8-12.33-8l-114.99 0c0 0-12.33 0-12.33-8 0-8 16.32-80.03 16.32-80.03 0 0 0-8 12.33-8l223.77 0z" id="path1434" fill="url(#linearGradient1428)"/></g></g></g></g><g id="g1436"><g id="g1438"/><g id="g1444"><g clip-path="url(#clipPath1440)" id="g1446" opacity="0.5"><path d="m272.71 38.03c0 0.74-0.9 1.33-2.01 1.33l-241.74 0c-1.11 0-2.01-0.59-2.01-1.33" id="path1448" style="fill-rule:nonzero;fill:#ff0"/></g></g></g><path d="m26.94 38.3c0-0.73 0.9-1.33 2.01-1.33l241.74 0c1.11 0 2.01 0.59 2.01 1.33" id="path1450" style="fill-rule:nonzero;fill:#f28f00"/><rect id="rect7917" width="103.6" height="4.45" x="85.17" y="-204.66" transform="scale(1,-1)" fill="#000"/><rect id="rect7917-0" width="103.6" height="4.45" x="85.17" y="-195.13" transform="scale(1,-1)" fill="#000"/><rect id="rect7917-3" width="103.6" height="4.45" x="85.17" y="-185.91" transform="scale(1,-1)" fill="#000"/><rect id="rect7917-1" width="103.6" height="4.45" x="85.01" y="-176.38" transform="scale(1,-1)" fill="#000"/></g></svg>