<?xml version="1.0" encoding="utf-8"?>
<!-- Generator: Adobe Illustrator 27.3.1, SVG Export Plug-In . SVG Version: 6.00 Build 0)  -->
<svg version="1.1" id="Layer_1" xmlns="http://www.w3.org/2000/svg" xmlns:xlink="http://www.w3.org/1999/xlink" x="0px" y="0px"
	 viewBox="0 0 256 256" style="enable-background:new 0 0 256 256;" xml:space="preserve">
<style type="text/css">
	.st0{fill:#224458;}
</style>
<path class="st0" d="M140,43.9c0-6.6-5.4-12-12-12c-6.6,0-12,5.4-12,12V135l-27.6-27.6c-4.7-4.7-12.3-4.7-17,0s-4.7,12.3,0,17
	l48.1,48.1c4.7,4.7,12.3,4.7,17,0l48.1-48.1c4.7-4.7,4.7-12.3,0-17s-12.3-4.7-17,0L140,135V43.9z M55.9,164c-13.3,0-24,10.8-24,24
	v12c0,13.3,10.8,24,24,24h144.2c13.3,0,24-10.8,24-24v-12c0-13.3-10.8-24-24-24H162l-17,17c-9.4,9.4-24.6,9.4-34,0l-17-17H55.9z
	 M194.1,185.1c5,0,9,4,9,9s-4,9-9,9s-9-4-9-9S189.1,185.1,194.1,185.1z"/>
</svg>
