<svg xmlns:svg="http://www.w3.org/2000/svg" xmlns="http://www.w3.org/2000/svg" id="svg4486" height="48" width="48" version="1"><metadata id="metadata51"/><defs id="defs4488"><linearGradient id="linearGradient3312" y2="5.46" gradientUnits="userSpaceOnUse" x2="36.36" gradientTransform="matrix(.99770 0 0 1.0407 .16380 -1.1058)" y1="8.06" x1="32.89"><stop id="stop8591" offset="0" stop-color="#fefefe"/><stop id="stop8593" offset="1" stop-color="#cbcbcb"/></linearGradient><linearGradient id="linearGradient3316" y2="46.02" gradientUnits="userSpaceOnUse" x2="24" gradientTransform="matrix(1 0 0 .97778 0 -.96667)" y1="2" x1="24"><stop id="stop3213" offset="0" stop-color="#fff"/><stop id="stop3215" offset="1" style="stop-color:#fff;stop-opacity:0"/></linearGradient><radialGradient id="radialGradient3319" gradientUnits="userSpaceOnUse" cy="112.3" cx="102" gradientTransform="matrix(.36170 0 0 -.39078 .85106 47.517)" r="139.56"><stop id="stop41" offset="0" stop-color="#b7b8b9"/><stop id="stop47" offset="0.19" stop-color="#ececec"/><stop id="stop49" offset="0.26" style="stop-color:#fafafa;stop-opacity:0"/><stop id="stop51" offset="0.3" style="stop-color:#fff;stop-opacity:0"/><stop id="stop53" offset="0.53" style="stop-color:#fafafa;stop-opacity:0"/><stop id="stop55" offset="0.84" style="stop-color:#ebecec;stop-opacity:0"/><stop id="stop57" offset="1" style="stop-color:#e1e2e3;stop-opacity:0"/></radialGradient><linearGradient id="linearGradient3322" y2="47.01" gradientUnits="userSpaceOnUse" x2="25.13" gradientTransform="matrix(1 0 0 .95617 -1.0065e-7 -1.9149)" y1="0.99" x1="25.13"><stop id="stop3602" offset="0" stop-color="#f4f4f4"/><stop id="stop3604" offset="1" stop-color="#dbdbdb"/></linearGradient><linearGradient id="linearGradient3324" y2="2.91" gradientUnits="userSpaceOnUse" x2="-51.79" gradientTransform="matrix(.80750 0 0 .89483 59.41 -2.9806)" y1="50.79" x1="-51.79"><stop id="stop3106" offset="0" stop-color="#aaa"/><stop id="stop3108" offset="1" stop-color="#c8c8c8"/></linearGradient><filter id="filter3212" height="1.33" width="1.3" y="-0.16" x="-0.15"><feGaussianBlur id="feGaussianBlur3214" stdDeviation="0.77"/></filter><linearGradient id="linearGradient5530" y2="38.27" gradientUnits="userSpaceOnUse" x2="22.37" gradientTransform="matrix(0.87258074,0,0,0.8673058,12.909572,12.347106)" y1="8.03" x1="22.37"><stop id="stop3945" offset="0" stop-color="#fff"/><stop id="stop3947" offset="1" style="stop-color:#fff;stop-opacity:0"/></linearGradient><radialGradient id="radialGradient3144" gradientUnits="userSpaceOnUse" cx="69.45" cy="51.7" r="31" gradientTransform="matrix(0,0.98976611,-1.0767298,0,84.744991,-46.972706)"><stop id="stop3244-5" offset="0" stop-color="#eef87e"/><stop id="stop3246-9" offset="0.26" stop-color="#cde34f"/><stop id="stop3248-7" offset="0.66" stop-color="#93b723"/><stop id="stop3250-8" offset="1" stop-color="#5a7e0d"/></radialGradient><linearGradient id="linearGradient3146" y2="52.81" gradientUnits="userSpaceOnUse" y1="123.19" gradientTransform="matrix(0.4111251,0,0,0.41449115,-3.7516754,-4.062052)" x2="72.42" x1="72.42"><stop id="stop2492-3" offset="0" stop-color="#365f0e"/><stop id="stop2494-8" offset="1" stop-color="#84a718"/></linearGradient></defs><path id="path4160" d="m6.5 0.5h24.06c1.41 0.47 8.97 5.88 10.94 9.63v34.38h-35v-44.01z" style="fill:url(#linearGradient3322);stroke-linejoin:round;stroke:url(#linearGradient3324)"/><path id="path4191" d="m7.36 44c-0.2 0-0.36-0.17-0.36-0.39v-42.2c0-0.22 0.16-0.39 0.36-0.39 7.48 0.11 15.78-0.16 23.25 0.03l10.28 8.87 0.11 33.7c0 0.22-0.16 0.39-0.36 0.39h-33.28z" fill="url(#radialGradient3319)"/><path id="path2435" d="m40.5 10.26v33.26h-33v-42.04c7.56 0 15.3 0 22.87 0" style="fill:none;opacity:0.6;stroke-linejoin:round;stroke:url(#linearGradient3316)"/><path id="path12038" d="m28.62 0.92c4.28 0 2.15 8.48 2.15 8.48s10.36-1.8 10.36 2.82c0-2.61-11.3-10.73-12.51-11.3z" style="filter:url(#filter3212);opacity:0.4"/><path id="path4474" d="m28.62 0.92c3.19 0 2.34 7.66 2.34 7.66s10.18-0.98 10.18 3.64c0-1.13 0.09-1.93-0.13-2.28-1.58-2.52-8.39-8.19-10.86-8.93-0.18-0.06-0.59-0.09-1.52-0.09z" fill="url(#linearGradient3312)"/><path id="path2262" d="m27.33 27.33v-8.78h10.2v8.78h8.75v10.2h-8.75v8.75H27.33V37.53H18.57V27.33h8.75z" style="fill:url(#radialGradient3144);stroke-linecap:round;stroke-linejoin:round;stroke-width:1.44;stroke:url(#linearGradient3146)"/><path id="path2272" d="m28.79 28.79v-8.74h7.29v8.74h8.74v7.29h-8.74v8.74h-7.29v-8.74h-8.74v-7.29h8.74z" style="fill:none;opacity:0.4;stroke-width:1.46;stroke:url(#linearGradient5530)"/></svg>