<?xml version="1.0" encoding="UTF-8"?>
<svg id="Layer_1" data-name="Layer 1" xmlns="http://www.w3.org/2000/svg" version="1.1" viewBox="0 0 256 256">
  <defs>
    <style>
      .cls-1, .cls-2 {
        fill: #fff;
        stroke-width: 0px;
      }

      .cls-3, .cls-2 {
        isolation: isolate;
        opacity: .6;
      }
    </style>
  </defs>
  <path class="cls-2" d="M71.1,56.1v120.8c0,3.3,2.7,6.1,6.1,6.1h120.8c3.3,0,6.1-2.7,6.1-6.1v-92.7c0-1.6-.6-3.2-1.8-4.2l12.7-12.8c4.5,4.5,7,10.7,7,17.1v92.6c0,13.3-10.8,24.1-24.1,24.1h-120.8c-13.3,0-24.1-10.8-24.1-24.1V56.1c0-13.3,10.8-24.1,24.1-24.1h92.6c6.4,0,12.6,2.6,17.1,7l28.2,28.1-12.8,12.8-28.2-28.1c-.1,0-.2-.2-.3-.3v37.8c0,5-4,9.1-9.1,9.1h-72.3c-5,0-9.1-4-9.1-9.1v-39.2h-6.1c-3.2,0-6,2.7-6,6ZM101.3,50.1v30.2h54.3v-30.2h-54.3ZM113.4,140.6c0-13.4,10.8-24.1,24.1-24.1s24.1,10.8,24.1,24.1-10.8,24.1-24.1,24.1c-13.3,0-24.1-10.7-24.1-24.1Z"/>
  <g class="cls-3">
    <path class="cls-1" d="M206,227H53.5c-13.5,0-24.5-11-24.5-24.5V67.2c0-5,4-9,9-9s9,4,9,9v135.3c0,3.6,2.9,6.5,6.5,6.5h152.5c5,0,9,4,9,9s-4,9-9,9Z"/>
  </g>
</svg>