<?xml version="1.0" encoding="utf-8"?>
<!-- Generator: Adobe Illustrator 27.3.1, SVG Export Plug-In . SVG Version: 6.00 Build 0)  -->
<svg version="1.1"
	 id="svg3404" xmlns:cc="http://creativecommons.org/ns#" xmlns:sodipodi="http://sodipodi.sourceforge.net/DTD/sodipodi-0.dtd" xmlns:svg="http://www.w3.org/2000/svg" xmlns:dc="http://purl.org/dc/elements/1.1/" xmlns:inkscape="http://www.inkscape.org/namespaces/inkscape" xmlns:rdf="http://www.w3.org/1999/02/22-rdf-syntax-ns#" sodipodi:docname="fixture.svg"
	 xmlns="http://www.w3.org/2000/svg" xmlns:xlink="http://www.w3.org/1999/xlink" x="0px" y="0px" viewBox="0 0 256 256"
	 style="enable-background:new 0 0 256 256;" xml:space="preserve">
<style type="text/css">
	.st0{fill:#224458;}
	.st1{fill:#FFD42A;}
</style>
<sodipodi:namedview  bordercolor="#666666" borderopacity="1" gridtolerance="10" guidetolerance="10" id="namedview3406" inkscape:current-layer="svg3404" inkscape:cx="16.474576" inkscape:cy="15.322034" inkscape:pageopacity="0" inkscape:pageshadow="2" inkscape:window-height="690" inkscape:window-maximized="1" inkscape:window-width="1366" inkscape:window-x="-2" inkscape:window-y="-3" inkscape:zoom="14.921512" objecttolerance="10" pagecolor="#ffffff" showgrid="false">
	</sodipodi:namedview>
<g>
	<g>
		<path class="st0" d="M54.5,25.8L50,26.5c-4.5,0.7-7.5,4.9-6.8,9.4l18,114.9c0.7,4.5,4.9,7.5,9.4,6.8l4.5-0.7
			c4.5-0.7,7.5-4.9,6.8-9.4l-18-114.9C63.1,28.1,58.9,25.1,54.5,25.8z"/>
		<path class="st0" d="M125.5,14.7l-4.5,0.7c-4.5,0.7-7.5,4.9-6.8,9.4l18,114.9c0.7,4.5,4.9,7.5,9.4,6.8l4.5-0.7
			c4.5-0.7,7.5-4.9,6.8-9.4l-18-114.9C134.2,17,130,14,125.5,14.7z"/>
		<path class="st0" d="M128.1,30.8L52.5,42.7c-4.5,0.7-8.7-2.4-9.4-6.8l0,0c-0.7-4.5,2.4-8.7,6.8-9.4l75.5-11.8
			c4.5-0.7,8.7,2.4,9.4,6.8v0C135.6,25.9,132.5,30.1,128.1,30.8z"/>
	</g>
	<path class="st0" d="M203.9,129.2l-96.7-47.9c-27.4-13.6-60.5-2.4-74.1,25c-13.6,27.4-2.4,60.5,25,74.1l96.7,47.9
		c7,3.5,15.5,0.6,19-6.4l36.5-73.7C213.8,141.2,210.9,132.7,203.9,129.2z"/>
	
		<ellipse transform="matrix(0.4442 -0.8959 0.8959 0.4442 -59.825 266.7627)" class="st0" cx="185.1" cy="181.6" rx="64.3" ry="36.7"/>
	<ellipse transform="matrix(0.4442 -0.8959 0.8959 0.4442 -59.4195 262.1812)" class="st1" cx="181.6" cy="179" rx="51" ry="29.1"/>
</g>
</svg>
