<?xml version="1.0" encoding="utf-8"?>
<!-- Generator: Adobe Illustrator 27.9.0, SVG Export Plug-In . SVG Version: 6.00 Build 0)  -->
<svg version="1.1"
	 id="svg3404" xmlns:sodipodi="http://sodipodi.sourceforge.net/DTD/sodipodi-0.dtd" xmlns:dc="http://purl.org/dc/elements/1.1/" xmlns:cc="http://creativecommons.org/ns#" xmlns:svg="http://www.w3.org/2000/svg" xmlns:inkscape="http://www.inkscape.org/namespaces/inkscape" xmlns:rdf="http://www.w3.org/1999/02/22-rdf-syntax-ns#"
	 xmlns="http://www.w3.org/2000/svg" xmlns:xlink="http://www.w3.org/1999/xlink" x="0px" y="0px" viewBox="0 0 256 256"
	 style="enable-background:new 0 0 256 256;" xml:space="preserve">
<style type="text/css">
	.st0{fill:#3465A4;enable-background:new    ;}
	.st1{fill:#FFD42A;}
</style>
<sodipodi:namedview  bordercolor="#666666" borderopacity="1" gridtolerance="10" guidetolerance="10" id="namedview3406" inkscape:current-layer="svg3404" inkscape:cx="16.474576" inkscape:cy="15.322034" inkscape:pageopacity="0" inkscape:pageshadow="2" inkscape:window-height="690" inkscape:window-maximized="1" inkscape:window-width="1366" inkscape:window-x="-2" inkscape:window-y="-3" inkscape:zoom="14.921512" objecttolerance="10" pagecolor="#ffffff" showgrid="false">
	</sodipodi:namedview>
<path class="st0" d="M208.6,107.9c-6.5-2.2-13.6-1.2-20.7,2.4L146.6,96l-11.7-74.5c-0.7-4.2-4.4-7.1-8.6-6.9c-0.3,0-0.6,0-0.9,0.1
	L49.9,26.5c-4.4,0.7-7.5,4.9-6.8,9.4c0.1,0.4,0.2,0.8,0.3,1.1l7.4,47.1c-10.6,6.5-19.1,16.5-23.5,29.2c-10,28.9,5.3,60.3,34.2,70.3
	l90.3,31.2c3.3,7.2,8.3,12.4,14.8,14.6c19.2,6.6,44.1-15.2,55.7-48.8C233.9,147.1,227.8,114.5,208.6,107.9z M97.6,79.1
	c-8.9-3.1-18.1-3.8-26.8-2.4l-5.6-36l50.3-7.9l8.7,55.5L97.6,79.1z M211.3,176c-9.2,26.6-29,43.9-44.2,38.7s-20-31.1-10.8-57.7
	s29-43.9,44.2-38.7C215.6,123.5,220.5,149.4,211.3,176z"/>
<g>
	
		<ellipse transform="matrix(0.3266 -0.9452 0.9452 0.3266 -33.5466 285.7344)" class="st1" cx="183.7" cy="166.4" rx="51" ry="29.1"/>
</g>
</svg>
