<?xml version="1.0" encoding="utf-8"?>
<!-- Generator: Adobe Illustrator 27.9.0, SVG Export Plug-In . SVG Version: 6.00 Build 0)  -->
<svg version="1.1" id="Layer_2_00000083061987991987505870000015376963720749015965_"
	 xmlns="http://www.w3.org/2000/svg" xmlns:xlink="http://www.w3.org/1999/xlink" x="0px" y="0px" viewBox="0 0 256 256"
	 style="enable-background:new 0 0 256 256;" xml:space="preserve">
<style type="text/css">
	.st0{opacity:0.56;}
	.st1{fill:#FFFFFF;}
</style>
<g id="path3822" class="st0">
	<path class="st1" d="M128,234.2c-28.2,0-54.7-10.9-74.7-30.7c-20.2-20-31.3-46.6-31.5-74.9s10.8-55.1,30.7-75.2
		c20-20.2,46.6-31.3,74.9-31.5h1.1c28.2,0.1,54.7,11.2,74.6,31.1s31,46.4,31.1,74.5c0.3,58.5-47.1,106.4-105.6,106.7
		C128.4,234.2,128.2,234.2,128,234.2z M133.2,172.1v51.6c0.2,0,0.5,0,0.7,0c14.2-14.2,25-29.7,32.3-45.9
		C155.4,174.4,144.3,172.6,133.2,172.1z M91.2,177.4c7.1,16.1,17.7,31.5,31.6,45.7v-50.9C112.1,172.6,101.5,174.3,91.2,177.4z
		 M57.5,192.9c1,1.1,2.1,2.2,3.1,3.2c13.1,13,29.3,21.7,46.9,25.5c-11.2-12.9-20-26.6-26.2-41C73.1,183.9,65.1,188,57.5,192.9z
		 M175.9,181.2c-6.1,14-14.7,27.4-25.7,40.1c18.8-4.5,35.5-14.6,48.2-28.4C191.3,188.2,183.7,184.3,175.9,181.2z M32.3,133.2
		c1,18.8,7.4,36.7,18.5,51.6c8.5-5.6,17.5-10.2,26.7-13.8c-4.3-12.3-6.7-25-7.2-37.8L32.3,133.2L32.3,133.2z M179.7,171.6
		c8.8,3.5,17.3,7.9,25.4,13.3c10.8-14.6,17.5-32.4,18.6-51.6h-36.6C186.6,146.3,184.1,159.1,179.7,171.6z M133.2,161.8
		c12.4,0.5,24.8,2.6,36.8,6.3c4-11.3,6.3-23,6.8-34.9h-43.6L133.2,161.8L133.2,161.8z M80.7,133.2c0.5,11.7,2.8,23.2,6.7,34.5
		c11.6-3.5,23.5-5.5,35.5-5.9v-28.5H80.7V133.2z M187.1,122.9h36.6c-1-18.3-7.2-35.3-17.1-49.5c-8.3,5.6-17,10.2-26,13.9
		C184.4,98.8,186.6,110.8,187.1,122.9z M133.2,122.9h43.6c-0.5-10.9-2.5-21.6-5.9-32.1c-12.2,3.9-24.9,6.1-37.6,6.6L133.2,122.9
		L133.2,122.9z M80.7,122.9h42.1V97.4c-12.3-0.5-24.6-2.5-36.5-6.2C83,101.5,81.1,112.1,80.7,122.9z M32.3,122.9h38
		c0.5-11.9,2.6-23.7,6.3-35.2C67.1,84,58,79.2,49.3,73.3C39.2,87.9,33.3,104.9,32.3,122.9z M89.9,81.4c10.7,3.3,21.8,5.2,32.9,5.6
		V32.8C108.1,47.9,97,64.2,89.9,81.4z M133.2,32.4V87c11.5-0.5,22.9-2.4,34-6c-7.3-17.2-18.6-33.6-33.6-48.7
		C133.4,32.4,133.3,32.4,133.2,32.4z M55.7,65.1c7.8,5.2,15.9,9.5,24.4,12.9c6.2-15.2,15.3-29.8,27.1-43.5
		C89.4,38.4,73,47.4,59.9,60.6C58.5,62.1,57.1,63.6,55.7,65.1z M150,34.8c11.7,13.4,20.7,27.8,27,42.7c8-3.3,15.8-7.4,23.2-12.4
		C187.2,50.3,169.7,39.5,150,34.8z"/>
</g>
</svg>
