<?xml version="1.0" encoding="utf-8"?>
<!-- Generator: Adobe Illustrator 27.9.0, SVG Export Plug-In . SVG Version: 6.00 Build 0)  -->
<svg version="1.1" id="svg2" xmlns:svg="http://www.w3.org/2000/svg"
	 xmlns="http://www.w3.org/2000/svg" xmlns:xlink="http://www.w3.org/1999/xlink" x="0px" y="0px" viewBox="0 0 256 256"
	 style="enable-background:new 0 0 256 256;" xml:space="preserve">
<style type="text/css">
	.st0{opacity:0.56;}
	.st1{fill:#FFFFFF;}
</style>
<g id="layer1" transform="translate(0,-1004.3622)" class="st0">
	<path id="rect4136" class="st1" d="M186.3,1036.4v24.2h-29.8v-23h-13.6v23h-29.8v-21.9H99.6v21.9H69.8V1037H56.2v23.6H33.8v13.6
		h22.5v29.8H32v13.6h24.2v29.8H33.1v13.6h23.1v29.8h-22v13.6h22v22.5h13.6v-22.5h29.8v24.2h13.6v-24.2H143v23h13.6v-23h29.8v21.9
		H200v-21.9h24v-13.6h-24.1V1161h23v-13.6h-23v-29.8h21.9V1104h-21.9v-29.8h23.6v-13.6h-23.6v-24.2H186.3z M69.8,1074.1h29.8v29.8
		H69.8V1074.1z M113.1,1074.1h29.8v29.8h-29.8C113.1,1103.9,113.1,1074.1,113.1,1074.1z M156.5,1074.1h29.8v29.8h-29.8V1074.1z
		 M69.8,1117.5h29.8v29.8H69.8V1117.5z M113.1,1117.5h29.8v29.8h-29.8C113.1,1147.3,113.1,1117.5,113.1,1117.5z M156.5,1117.5h29.8
		v29.8h-29.8V1117.5z M69.8,1160.8h29.8v29.8H69.8V1160.8z M113.1,1160.8h29.8v29.8h-29.8C113.1,1190.6,113.1,1160.8,113.1,1160.8z
		 M156.5,1160.8h29.8v29.8h-29.8V1160.8z"/>
</g>
</svg>
