<svg xmlns:svg="http://www.w3.org/2000/svg" xmlns="http://www.w3.org/2000/svg" xmlns:xlink="http://www.w3.org/1999/xlink" width="48" height="48" viewBox="0 0 48 48" id="svg2" version="1.1"><defs id="defs4"><linearGradient id="linearGradient4206"><stop offset="0" id="stop4208" style="stop-color:#afb0c5;stop-opacity:1"/><stop offset="1" id="stop4210" style="stop-color:#808298;stop-opacity:1"/></linearGradient><linearGradient xlink:href="#linearGradient4206" id="linearGradient4212" x1="2.99" y1="3.04" x2="44.74" y2="44.83" gradientUnits="userSpaceOnUse"/></defs><metadata id="metadata7"/><g id="layer1" transform="translate(0,-1004.3622)"><path d="M36.9 2.75L36.9 8.1 30.3 8.1 30.3 3 27.3 3 27.3 8.1 20.7 8.1 20.7 3.25 17.7 3.25 17.7 8.1 11.1 8.1 11.1 2.87 8.1 2.87 8.1 8.1 3.13 8.1 3.13 11.1 8.1 11.1 8.1 17.7 2.74 17.7 2.74 20.7 8.1 20.7 8.1 27.3 2.99 27.3 2.99 30.3 8.1 30.3 8.1 36.9 3.24 36.9 3.24 39.9 8.1 39.9 8.1 44.87 11.1 44.87 11.1 39.9 17.7 39.9 17.7 45.25 20.7 45.25 20.7 39.9 27.3 39.9 27.3 45 30.3 45 30.3 39.9 36.9 39.9 36.9 44.75 39.9 44.75 39.9 39.9 45.24 39.9 45.24 36.9 39.9 36.9 39.9 30.3 44.99 30.3 44.99 27.3 39.9 27.3 39.9 20.7 44.74 20.7 44.74 17.7 39.9 17.7 39.9 11.1 45.13 11.1 45.13 8.1 39.9 8.1 39.9 2.75 36.9 2.75zM11.1 11.1L17.7 11.1 17.7 17.7 11.1 17.7 11.1 11.1zM20.7 11.1L27.3 11.1 27.3 17.7 20.7 17.7 20.7 11.1zM30.3 11.1L36.9 11.1 36.9 17.7 30.3 17.7 30.3 11.1zM11.1 20.7L17.7 20.7 17.7 27.3 11.1 27.3 11.1 20.7zM20.7 20.7L27.3 20.7 27.3 27.3 20.7 27.3 20.7 20.7zM30.3 20.7L36.9 20.7 36.9 27.3 30.3 27.3 30.3 20.7zM11.1 30.3L17.7 30.3 17.7 36.9 11.1 36.9 11.1 30.3zM20.7 30.3L27.3 30.3 27.3 36.9 20.7 36.9 20.7 30.3zM30.3 30.3L36.9 30.3 36.9 36.9 30.3 36.9 30.3 30.3z" transform="translate(0,1004.3622)" id="rect4136" fill="url(#linearGradient4212)"/></g></svg>