<?xml version="1.0" encoding="utf-8"?>
<!-- Generator: Adobe Illustrator 27.3.1, SVG Export Plug-In . SVG Version: 6.00 Build 0)  -->
<svg version="1.1" id="svg4030" xmlns:svg="http://www.w3.org/2000/svg"
	 xmlns="http://www.w3.org/2000/svg" xmlns:xlink="http://www.w3.org/1999/xlink" x="0px" y="0px" viewBox="0 0 256 256"
	 enable-background="new 0 0 256 256" xml:space="preserve">
<path fill="#EBA25C" d="M200.8,212.9H55.2C41.9,212.9,31,202,31,188.6V67.4C31,54,41.9,43.1,55.2,43.1h48.5c7.6,0,14.8,3.6,19.4,9.7
	l7.3,9.7c2.3,3.1,5.9,4.9,9.7,4.9h60.6c13.4,0,24.2,10.9,24.2,24.2v97C225,202,214.1,212.9,200.8,212.9z"/>
<g id="g3155" transform="translate(1.6503725,-2.2728432)">
	<path id="path3058" fill="none" stroke="#224458" stroke-width="9.0314" stroke-miterlimit="6.6034" d="M174.9,144.1
		c0-26.8-21.7-48.6-48.6-48.6s-48.6,21.7-48.6,48.6s21.7,48.6,48.6,48.6S174.9,170.9,174.9,144.1z"/>
	<path id="path3844" fill="#224458" stroke="#224458" stroke-width="3.9042" stroke-linecap="round" stroke-miterlimit="3.3975" d="
		M103.8,147.2c0-2.2-1.8-4-4-4s-4,1.8-4,4s1.8,4,4,4S103.8,149.4,103.8,147.2z"/>
	
		<path id="path3844-8" fill="#224458" stroke="#224458" stroke-width="3.9042" stroke-linecap="round" stroke-miterlimit="3.3975" d="
		M154.6,147.2c0-2.2-1.8-4-4-4c-2.2,0-4,1.8-4,4c0,2.2,1.8,4,4,4C152.8,151.2,154.6,149.4,154.6,147.2z"/>
	
		<path id="path3844-9" fill="#224458" stroke="#224458" stroke-width="3.9042" stroke-linecap="round" stroke-miterlimit="3.3975" d="
		M110.8,127c0-2.2-1.8-4-4-4c-2.2,0-4,1.8-4,4s1.8,4,4,4C109.1,131,110.8,129.2,110.8,127z"/>
	
		<path id="path3844-9-8" fill="#224458" stroke="#224458" stroke-width="3.9042" stroke-linecap="round" stroke-miterlimit="3.3975" d="
		M148.5,127c0-2.2-1.8-4-4-4c-2.2,0-4,1.8-4,4s1.8,4,4,4C146.7,131,148.5,129.2,148.5,127z"/>
	
		<path id="path3844-9-3" fill="#224458" stroke="#224458" stroke-width="3.9042" stroke-linecap="round" stroke-miterlimit="3.3975" d="
		M129.3,117.8c0-2.2-1.8-4-4-4c-2.2,0-4,1.8-4,4c0,2.2,1.8,4,4,4C127.5,121.8,129.3,120,129.3,117.8z"/>
</g>
</svg>
