<?xml version="1.0" encoding="utf-8"?>
<!-- Generator: Adobe Illustrator 27.3.1, SVG Export Plug-In . SVG Version: 6.00 Build 0)  -->
<svg version="1.1" id="svg6361" xmlns:svg="http://www.w3.org/2000/svg"
	 xmlns="http://www.w3.org/2000/svg" xmlns:xlink="http://www.w3.org/1999/xlink" x="0px" y="0px" viewBox="0 0 256 256"
	 style="enable-background:new 0 0 256 256;" xml:space="preserve">
<style type="text/css">
	.st0{fill:#224458;}
</style>
<path class="st0" d="M214.7,128c0-47.9-38.8-86.7-86.7-86.7S41.3,80.1,41.3,128s38.8,86.7,86.7,86.7S214.7,175.9,214.7,128z
	 M21.3,128C21.3,69.1,69.1,21.3,128,21.3S234.7,69.1,234.7,128S186.9,234.7,128,234.7S21.3,186.9,21.3,128z M92.1,90.2
	c3.3-9.3,12.1-15.5,22-15.5h24.3c14.5,0,26.3,11.8,26.3,26.3c0,9.4-5,18.1-13.2,22.8l-13.5,7.7c-0.1,5.4-4.5,9.8-10,9.8
	c-5.5,0-10-4.5-10-10v-5.6c0-3.6,1.9-6.9,5-8.7l18.5-10.6c2-1.1,3.2-3.2,3.2-5.5c0-3.5-2.8-6.3-6.3-6.3h-24.3
	c-1.4,0-2.7,0.9-3.1,2.2l-0.2,0.5c-1.8,5.2-7.6,7.9-12.8,6.1c-5.2-1.8-7.9-7.6-6.1-12.8L92.1,90.2L92.1,90.2z M114.7,168
	c0-7.4,6-13.3,13.3-13.3c7.4,0,13.3,6,13.3,13.3s-6,13.3-13.3,13.3C120.6,181.4,114.7,175.4,114.7,168z"/>
</svg>
