<svg xmlns:svg="http://www.w3.org/2000/svg" xmlns="http://www.w3.org/2000/svg" xmlns:xlink="http://www.w3.org/1999/xlink" width="48" height="48" id="svg6361"><defs id="defs3"><linearGradient id="linearGradient2431"><stop offset="0" id="stop2433" style="stop-color:#ffffff;stop-opacity:1"/><stop offset="1" id="stop2435" style="stop-color:#b8b8b8;stop-opacity:1"/></linearGradient><linearGradient id="linearGradient21644"><stop offset="0" id="stop21646" style="stop-color:#000000;stop-opacity:1"/><stop offset="1" id="stop21648" style="stop-color:#000000;stop-opacity:0"/></linearGradient><radialGradient xlink:href="#linearGradient21644" id="radialGradient21650" cx="25.13" cy="36.75" fx="25.13" fy="36.75" r="15.75" gradientTransform="matrix(1.000000,0.000000,0.000000,0.595238,3.369686e-16,14.87500)" gradientUnits="userSpaceOnUse"/><linearGradient id="linearGradient2933"><stop id="stop2935" offset="0" style="stop-color:#9cbcde;stop-opacity:1"/><stop id="stop2937" offset="1" stop-color="#204a87"/></linearGradient><radialGradient xlink:href="#linearGradient2933" id="radialGradient2207" cx="26.54" cy="28.46" fx="26.54" fy="28.46" r="22.38" gradientUnits="userSpaceOnUse" gradientTransform="matrix(1.238342,5.954846e-3,-6.507762e-3,1.351272,-6.992513,-9.744842)"/><radialGradient xlink:href="#linearGradient2431" id="radialGradient2437" cx="-19.52" cy="16.86" fx="-19.52" fy="16.86" r="8.75" gradientTransform="matrix(4.445991,-8.852599e-16,1.367217e-15,6.8665,67.25071,-104.6679)" gradientUnits="userSpaceOnUse"/></defs><metadata id="metadata4"/><g id="layer1"><path id="path21642" d="M40.88 36.75A15.75 9.38 0 1 1 9.38 36.75 15.75 9.38 0 1 1 40.88 36.75z" transform="matrix(1.173803,0.000000,0.000000,0.600000,-5.004403,20.32500)" style="fill-opacity:1;fill:url(#radialGradient21650);opacity:0.63"/><path id="path2093" d="M45.79 23.83A21.88 21.88 0 1 1 2.03 23.83 21.88 21.88 0 1 1 45.79 23.83z" transform="matrix(0.938442,0.000000,0.000000,0.938680,1.564075,1.633906)" style="fill-opacity:1;fill:url(#radialGradient2207);stroke:#204a87"/><path transform="matrix(0.855103,0.000000,0.000000,0.855213,3.555288,3.625019)" d="M45.79 23.83A21.88 21.88 0 1 1 2.03 23.83 21.88 21.88 0 1 1 45.79 23.83z" id="path2209" style="fill:none;opacity:0.96;stroke-opacity:1;stroke-width:3.03;stroke:#fff"/><path xlink:href="#text2215" id="path1554" d="M-20.25 5.88C-21.31 5.88-22.4 6-23.53 6.22 -24.66 6.44-25.91 6.76-27.28 7.22 -27.29 7.22-27.3 7.22-27.31 7.22 -27.32 7.23-27.34 7.24-27.34 7.25 -27.36 7.26-27.37 7.27-27.37 7.28 -27.38 7.29-27.38 7.3-27.37 7.31 -27.38 7.32-27.38 7.33-27.37 7.34L-27.37 12.5C-27.38 12.51-27.38 12.52-27.37 12.53 -27.38 12.54-27.38 12.55-27.37 12.56 -27.37 12.57-27.36 12.59-27.34 12.59 -27.34 12.61-27.32 12.62-27.31 12.63 -27.3 12.63-27.29 12.63-27.28 12.63 -27.27 12.63-27.26 12.63-27.25 12.63 -27.24 12.63-27.23 12.63-27.22 12.63 -27.21 12.63-27.2 12.63-27.19 12.63 -26.05 11.91-24.95 11.36-23.91 11 -22.86 10.63-21.86 10.44-20.97 10.44 -20.02 10.44-19.32 10.65-18.81 11.06 -18.3 11.46-18.03 12.05-18.03 12.78 -18.03 13.26-18.18 13.73-18.47 14.22 -18.75 14.71-19.21 15.25-19.84 15.81L-20.94 16.75C-22.14 17.83-22.93 18.74-23.31 19.47 -23.7 20.18-23.88 20.99-23.87 21.91L-23.87 22.72C-23.88 22.73-23.88 22.74-23.87 22.75 -23.88 22.76-23.88 22.77-23.87 22.78 -23.87 22.79-23.86 22.8-23.84 22.81 -23.84 22.82-23.82 22.84-23.81 22.84 -23.8 22.84-23.79 22.84-23.78 22.84 -23.77 22.84-23.76 22.84-23.75 22.84L-17.66 22.84C-17.65 22.84-17.64 22.84-17.62 22.84 -17.61 22.84-17.6 22.84-17.59 22.84 -17.58 22.84-17.57 22.82-17.56 22.81 -17.55 22.8-17.54 22.79-17.53 22.78 -17.53 22.77-17.53 22.76-17.53 22.75 -17.53 22.74-17.53 22.73-17.53 22.72L-17.53 21.97C-17.53 21.5-17.38 21.08-17.16 20.69 -16.93 20.3-16.45 19.74-15.69 19.06L-14.62 18.13C-13.56 17.14-12.79 16.24-12.34 15.38 -11.89 14.5-11.66 13.5-11.66 12.41 -11.66 10.28-12.4 8.67-13.87 7.56 -15.35 6.44-17.48 5.88-20.25 5.88zM-23.81 25.03C-23.82 25.04-23.84 25.05-23.84 25.06 -23.86 25.07-23.87 25.08-23.87 25.09 -23.88 25.1-23.88 25.11-23.87 25.13 -23.88 25.14-23.88 25.15-23.87 25.16L-23.87 31C-23.88 31.01-23.88 31.02-23.87 31.03 -23.88 31.04-23.88 31.05-23.87 31.06 -23.87 31.07-23.86 31.09-23.84 31.09 -23.84 31.11-23.82 31.12-23.81 31.13 -23.8 31.13-23.79 31.13-23.78 31.13 -23.77 31.13-23.76 31.13-23.75 31.13L-17.66 31.13C-17.65 31.13-17.64 31.13-17.62 31.13 -17.61 31.13-17.6 31.13-17.59 31.13 -17.58 31.12-17.57 31.11-17.56 31.09 -17.55 31.09-17.54 31.07-17.53 31.06 -17.53 31.05-17.53 31.04-17.53 31.03 -17.53 31.02-17.53 31.01-17.53 31L-17.53 25.16C-17.53 25.15-17.53 25.14-17.53 25.13 -17.53 25.11-17.53 25.1-17.53 25.09 -17.54 25.08-17.55 25.07-17.56 25.06 -17.57 25.05-17.58 25.04-17.59 25.03 -17.6 25.03-17.61 25.03-17.62 25.03 -17.64 25.03-17.65 25.03-17.66 25.03L-23.75 25.03C-23.76 25.03-23.77 25.03-23.78 25.03 -23.79 25.03-23.8 25.03-23.81 25.03z" transform="matrix(0.849895,0,0,0.835205,41.72981,8.548327)" style="fill:url(#radialGradient2437);font-family:Bitstream Vera Sans;font-size:34.15;font-weight:bold;line-height:125;stroke-opacity:0.79;stroke-width:1.1;stroke:#fff;text-align:start;text-anchor:start;writing-mode:lr-tb"/></g></svg>