<svg xmlns:svg="http://www.w3.org/2000/svg" xmlns="http://www.w3.org/2000/svg" xmlns:xlink="http://www.w3.org/1999/xlink" width="48" height="48" id="svg6361" version="1.1"><defs id="defs3"><linearGradient id="linearGradient2431"><stop offset="0" id="stop2433" style="stop-color:#ffffff;stop-opacity:1"/><stop offset="1" id="stop2435" style="stop-color:#b8b8b8;stop-opacity:1"/></linearGradient><linearGradient id="linearGradient2933"><stop id="stop2935" offset="0" style="stop-color:#9cbcde;stop-opacity:1"/><stop id="stop2937" offset="1" stop-color="#204a87"/></linearGradient><radialGradient xlink:href="#linearGradient2933" id="radialGradient2207" cx="26.54" cy="28.46" fx="26.54" fy="28.46" r="22.38" gradientUnits="userSpaceOnUse" gradientTransform="matrix(1.1621121,0.0055897,-0.00610716,1.268412,-4.9979929,-7.5133823)"/><radialGradient xlink:href="#linearGradient2431" id="radialGradient2437" cx="-19.52" cy="16.86" fx="-19.52" fy="16.86" r="8.75" gradientTransform="matrix(3.7786255,0,0,5.7349351,98.885852,-78.870826)" gradientUnits="userSpaceOnUse"/></defs><metadata id="metadata4"/><path d="m44.54 24a20.53 20.54 0 0 1-41.07 0 20.53 20.54 0 1 1 41.07 0z" id="path2093" style="fill:url(#radialGradient2207);stroke-width:0.94;stroke:#204a87"/><path id="path2209" d="m42.71 24a18.71 18.71 0 0 1-37.42 0 18.71 18.71 0 1 1 37.42 0z" style="fill:none;opacity:0.96;stroke-width:2.59;stroke:#fff"/><path d="m24.52 13.46c-0.9 0-1.83 0.1-2.79 0.28-0.96 0.18-2.02 0.45-3.19 0.84-0.01 0-0.02 0-0.03 0-0.01 0.01-0.03 0.02-0.03 0.03-0.02 0.01-0.03 0.02-0.03 0.03-0.01 0.01-0.01 0.02 0 0.03-0.01 0.01-0.01 0.02 0 0.03l0 4.31c-0.01 0.01-0.01 0.02 0 0.03-0.01 0.01-0.01 0.02 0 0.03 0 0.01 0.01 0.03 0.03 0.03 0 0.02 0.02 0.03 0.03 0.03 0.01 0 0.02 0 0.03 0 0.01 0 0.02 0 0.03 0 0.01 0 0.02 0 0.03 0 0.01 0 0.02 0 0.03 0 0.97-0.6 1.9-1.06 2.79-1.36 0.89-0.31 1.74-0.47 2.5-0.47 0.81 0 1.4 0.18 1.84 0.52 0.43 0.33 0.66 0.83 0.66 1.44 0 0.4-0.13 0.79-0.37 1.2-0.24 0.41-0.63 0.86-1.16 1.33l-0.93 0.79c-1.02 0.9-1.69 1.66-2.01 2.27-0.33 0.59-0.48 1.27-0.48 2.04l0 0.68c-0.01 0.01-0.01 0.02 0 0.03-0.01 0.01-0.01 0.02 0 0.03 0 0.01 0.01 0.02 0.03 0.03 0 0.01 0.02 0.03 0.03 0.03 0.01 0 0.02 0 0.03 0 0.01 0 0.02 0 0.03 0l5.18 0c0.01 0 0.02 0 0.03 0 0.01 0 0.02 0 0.03 0 0.01 0 0.02-0.02 0.03-0.03 0.01-0.01 0.02-0.02 0.03-0.03 0-0.01 0-0.02 0-0.03 0-0.01 0-0.02 0-0.03l0-0.63c0-0.39 0.13-0.74 0.31-1.07 0.2-0.33 0.6-0.79 1.25-1.36l0.91-0.78c0.9-0.83 1.56-1.58 1.94-2.3 0.38-0.73 0.58-1.57 0.58-2.48 0-1.78-0.63-3.12-1.88-4.05-1.26-0.94-3.07-1.4-5.42-1.4zM21.49 29.45c-0.01 0.01-0.03 0.02-0.03 0.03-0.02 0.01-0.03 0.02-0.03 0.03-0.01 0.01-0.01 0.02 0 0.03-0.01 0.01-0.01 0.02 0 0.03l0 4.88c-0.01 0.01-0.01 0.02 0 0.03-0.01 0.01-0.01 0.02 0 0.03 0 0.01 0.01 0.03 0.03 0.03 0 0.02 0.02 0.03 0.03 0.03 0.01 0 0.02 0 0.03 0 0.01 0 0.02 0 0.03 0l5.18 0c0.01 0 0.02 0 0.03 0 0.01 0 0.02 0 0.03 0 0.01-0.01 0.02-0.02 0.03-0.03 0.01 0 0.02-0.02 0.03-0.03 0-0.01 0-0.02 0-0.03 0-0.01 0-0.02 0-0.03l0-4.88c0-0.01 0-0.02 0-0.03 0-0.02 0-0.03 0-0.03-0.01-0.01-0.02-0.02-0.03-0.03-0.01-0.01-0.02-0.02-0.03-0.03-0.01 0-0.02 0-0.03 0-0.02 0-0.03 0-0.03 0l-5.18 0c-0.01 0-0.02 0-0.03 0-0.01 0-0.02 0-0.03 0z" id="path1554" xlink:href="#text2215" style="fill:url(#radialGradient2437);font-family:'Bitstream Vera Sans';font-size:34.15;font-weight:bold;line-height:125;stroke-opacity:0.79;stroke-width:0.93;stroke:#fff;text-align:start;text-anchor:start;writing-mode:lr-tb"/></svg>