<svg xmlns="http://www.w3.org/2000/svg" viewBox="-3.33 -14.635 84 84" width="84" height="84"><defs/><g fill="#000000"><g transform="translate(0, 0)"><path d="M0 45.26L0 9.47L4.74 9.47L4.74 45.26L0 45.26ZM13.09 45.26L13.09 9.47L25.42 9.47Q29.59 9.47 31.79 9.99Q34.86 10.69 37.04 12.55Q39.87 14.94 41.27 18.66Q42.68 22.39 42.68 27.17Q42.68 31.25 41.72 34.40Q40.77 37.55 39.28 39.61Q37.79 41.67 36.02 42.86Q34.25 44.04 31.75 44.65Q29.25 45.26 26.00 45.26L13.09 45.26M17.82 41.04L25.46 41.04Q29.00 41.04 31.02 40.38Q33.03 39.72 34.23 38.53Q35.91 36.84 36.85 34.00Q37.79 31.15 37.79 27.10Q37.79 21.48 35.95 18.47Q34.11 15.45 31.47 14.43Q29.57 13.70 25.34 13.70L17.82 13.70L17.82 41.04ZM49.15 45.26L49.15 9.47L54.00 9.47L72.80 37.57L72.80 9.47L77.34 9.47L77.34 45.26L72.49 45.26L53.69 17.14L53.69 45.26L49.15 45.26Z"/></g></g></svg>