<svg xmlns:svg="http://www.w3.org/2000/svg" xmlns="http://www.w3.org/2000/svg" xmlns:xlink="http://www.w3.org/1999/xlink" width="48" height="48" id="svg6361" version="1.1"><defs id="defs3"><linearGradient id="linearGradient2431"><stop offset="0" id="stop2433" style="stop-color:#ffffff;stop-opacity:1"/><stop offset="1" id="stop2435" style="stop-color:#b8b8b8;stop-opacity:1"/></linearGradient><linearGradient id="linearGradient21644"><stop offset="0" id="stop21646" style="stop-color:#000000;stop-opacity:1"/><stop offset="1" id="stop21648" style="stop-color:#000000;stop-opacity:0"/></linearGradient><radialGradient xlink:href="#linearGradient21644" id="radialGradient21650" cx="25.13" cy="36.75" fx="25.13" fy="36.75" r="15.75" gradientTransform="matrix(1.000000,0.000000,0.000000,0.595238,3.369686e-16,14.87500)" gradientUnits="userSpaceOnUse"/><linearGradient id="linearGradient2933"><stop id="stop2935" offset="0" style="stop-color:#9cbcde;stop-opacity:1"/><stop id="stop2937" offset="1" stop-color="#204a87"/></linearGradient><radialGradient xlink:href="#linearGradient2933" id="radialGradient2207" cx="26.54" cy="28.46" fx="26.54" fy="28.46" r="22.38" gradientUnits="userSpaceOnUse" gradientTransform="matrix(1.238342,5.954846e-3,-6.507762e-3,1.351272,-6.992513,-9.744842)"/><radialGradient xlink:href="#linearGradient2431" id="radialGradient2437" cx="-19.52" cy="16.86" fx="-19.52" fy="16.86" r="8.75" gradientTransform="matrix(4.445991,-8.852599e-16,1.367217e-15,6.8665,67.25071,-104.6679)" gradientUnits="userSpaceOnUse"/><radialGradient id="SVGID_1_" gradientUnits="userSpaceOnUse" cy="14.72" cx="15.96" gradientTransform="matrix(1,0,0,1.04,0,-0.5886)" r="5.97"><stop stop-color="#fff" offset="0" id="stop3153"/><stop stop-color="#E9E9E9" offset="1" id="stop3155"/></radialGradient><radialGradient r="5.97" cy="14.72" cx="15.96" gradientTransform="matrix(1.4602067,0,0,1.5186149,0.9035745,1.4042417)" gradientUnits="userSpaceOnUse" id="radialGradient3179" xlink:href="#SVGID_1_"/></defs><metadata id="metadata4"/><g id="layer1"><path id="path21642" d="M40.88 36.75A15.75 9.38 0 1 1 9.38 36.75 15.75 9.38 0 1 1 40.88 36.75z" transform="matrix(1.173803,0.000000,0.000000,0.600000,-5.004403,20.32500)" style="fill-opacity:1;fill:url(#radialGradient21650);opacity:0.63"/><path id="path2093" d="M45.79 23.83A21.88 21.88 0 1 1 2.03 23.83 21.88 21.88 0 1 1 45.79 23.83z" transform="matrix(0.938442,0.000000,0.000000,0.938680,1.564075,1.633906)" style="fill-opacity:1;fill:url(#radialGradient2207);stroke:#204a87"/><path transform="matrix(0.855103,0.000000,0.000000,0.855213,3.555288,3.625019)" d="M45.79 23.83A21.88 21.88 0 1 1 2.03 23.83 21.88 21.88 0 1 1 45.79 23.83z" id="path2209" style="fill:none;opacity:0.96;stroke-opacity:1;stroke-width:3.03;stroke:#fff"/><path d="m21.44 11.74h5.53v4.51H21.44V11.74zm0 6.73h5.53V35.77H21.44V18.47z" id="path3157" fill="url(#radialGradient3179)"/></g></svg>