<svg xmlns:svg="http://www.w3.org/2000/svg" xmlns="http://www.w3.org/2000/svg" xmlns:xlink="http://www.w3.org/1999/xlink" width="48" height="48" id="svg6361" version="1.1"><defs id="defs3"><linearGradient id="linearGradient2933"><stop id="stop2935" offset="0" style="stop-color:#9cbcde;stop-opacity:1"/><stop id="stop2937" offset="1" stop-color="#204a87"/></linearGradient><radialGradient xlink:href="#linearGradient2933" id="radialGradient2207" cx="26.54" cy="28.46" fx="26.54" fy="28.46" r="22.38" gradientUnits="userSpaceOnUse" gradientTransform="matrix(1.1621121,0.0055897,-0.00610716,1.268412,-4.9979929,-7.5133823)"/><radialGradient id="SVGID_1_" gradientUnits="userSpaceOnUse" cy="14.72" cx="15.96" gradientTransform="matrix(1,0,0,1.04,0,-0.5886)" r="5.97"><stop stop-color="#fff" offset="0" id="stop3153"/><stop stop-color="#E9E9E9" offset="1" id="stop3155"/></radialGradient><radialGradient r="5.97" cy="14.72" cx="15.96" gradientTransform="matrix(1.4602067,0,0,1.5186149,0.9035745,1.4042417)" gradientUnits="userSpaceOnUse" id="radialGradient3179" xlink:href="#SVGID_1_"/></defs><metadata id="metadata4"/><path d="m44.54 24a20.53 20.54 0 0 1-41.07 0 20.53 20.54 0 1 1 41.07 0z" id="path2093" style="fill:url(#radialGradient2207);stroke-width:0.94;stroke:#204a87"/><path id="path2209" d="m42.71 24a18.71 18.71 0 0 1-37.42 0 18.71 18.71 0 1 1 37.42 0z" style="fill:none;opacity:0.96;stroke-width:2.59;stroke:#fff"/><path id="path3157" d="m21.44 11.74 5.53 0 0 4.51-5.53 0 0-4.51zm0 6.73 5.53 0 0 17.3-5.53 0 0-17.3z" fill="url(#radialGradient3179)"/></svg>