<?xml version="1.0" encoding="UTF-8"?>
<svg id="svg2" xmlns="http://www.w3.org/2000/svg" version="1.1" xmlns:svg="http://www.w3.org/2000/svg" viewBox="0 0 256 256">
  <defs>
    <style>
      .cls-1 {
        fill: #e5b567;
      }

      .cls-1, .cls-2 {
        stroke-width: 0px;
      }

      .cls-2 {
        fill: #fff;
      }

      .cls-3 {
        isolation: isolate;
        opacity: .6;
      }
    </style>
  </defs>
  <path class="cls-1" d="M104.5,180.5v-11.8c0-6.5-3.6-12.6-9.3-15.7-1.8-1-3.6-2.1-5.3-3.3v-.2c-14.3-9.7-24.7-24.7-28.4-42.1,0-.6-.2-1.2-.3-1.8h0c0-.6-.2-1.2-.3-1.8,0-.6-.2-1.2-.3-1.8,0-.4,0-.8,0-1.1-.3-2.5-.4-5-.4-7.6,0-37.5,30.4-68,68-68s43.5,11.5,55.8,29.1c.4.6.9,1.3,1.3,2,.4.7.9,1.3,1.3,2,.4.7.8,1.3,1.2,2,.4.8.9,1.6,1.3,2.4.3.5.5,1.1.8,1.6.2.5.5,1.1.7,1.6s.4.9.6,1.4c.3.6.5,1.2.7,1.9.1.2.2.5.3.7.2.5.3.9.5,1.4.1.4.2.7.4,1.1.1.4.2.8.4,1.2.2.8.5,1.6.7,2.4.3,1.2.6,2.4.9,3.7h0c.2,1,.3,1.9.5,2.7.2.9.3,1.8.4,2.8.1.5.1,1,.2,1.5v.3c0,.4.1.9.1,1.3.1,1,.1,2.1.2,3.1v1.8c0,23.6-12.1,44.5-30.4,56.7v.2c-1.2.8-2.4,1.5-3.6,2.2-5.6,3.3-9,9.3-9,15.8v12.4"/>
  <g id="L" class="cls-3">
    <path class="cls-2" d="M117.7,238.1l-4.6-6.3c-.4-.5,0-1.2.7-1.3h28.5c.7,0,1.1.8.7,1.3l-4.6,6.3c-.1.2-.4.3-.7.4h-19.2c-.4,0-.7-.2-.8-.4Z"/>
    <path class="cls-2" d="M151.6,196.3h-47.2c-2.4,0-4.3-1.8-4.3-4h0c0-2.2,1.9-4,4.3-4h47.2c2.4,0,4.3,1.8,4.3,4h0c0,2.2-1.9,4-4.3,4Z"/>
    <path class="cls-2" d="M151.6,224.6h-47.2c-2.4,0-4.3-1.8-4.3-4h0c0-2.2,1.9-4,4.3-4h47.2c2.4,0,4.3,1.8,4.3,4h0c0,2.2-2,4-4.3,4Z"/>
    <path class="cls-2" d="M151.6,210.4h-47.2c-2.4,0-4.3-1.8-4.3-4h0c0-2.2,1.9-4,4.3-4h47.2c2.4,0,4.3,1.8,4.3,4h0c0,2.2-2,4-4.3,4Z"/>
  </g>
</svg>