<svg xmlns:svg="http://www.w3.org/2000/svg" xmlns="http://www.w3.org/2000/svg" xmlns:xlink="http://www.w3.org/1999/xlink" width="128" height="128" id="svg2" version="1.1"><defs id="defs4"><linearGradient id="linearGradient3972"><stop offset="0" id="stop3974" style="stop-color:#f4e7ca;stop-opacity:1"/><stop offset="1" id="stop3976" style="stop-color:#948667;stop-opacity:1"/></linearGradient><linearGradient id="linearGradient3956"><stop offset="0" id="stop3958" style="stop-color:#f4f4f3;stop-opacity:1"/><stop offset="1" id="stop3960" style="stop-color:#878787;stop-opacity:1"/></linearGradient><linearGradient id="linearGradient3934"><stop offset="0" id="stop3936" style="stop-color:#9c9588;stop-opacity:1"/><stop id="stop3942" offset="0.5" style="stop-color:#f5f3ee;stop-opacity:1"/><stop offset="1" id="stop3938" style="stop-color:#aeb1b4;stop-opacity:1"/></linearGradient><linearGradient id="linearGradient3859"><stop offset="0" id="stop3861" style="stop-color:#ffd992;stop-opacity:1"/><stop id="stop3867" offset="0.22" style="stop-color:#fff2cb;stop-opacity:1"/><stop offset="0.4" id="stop3869" style="stop-color:#ffe151;stop-opacity:1"/><stop id="stop3871" offset="0.52" style="stop-color:#ffdb1d;stop-opacity:1"/><stop offset="1" id="stop3863" style="stop-color:#ffb700;stop-opacity:1"/></linearGradient><linearGradient id="linearGradient3844"><stop offset="0" id="stop3846" style="stop-color:#ffffff;stop-opacity:1"/><stop offset="1" id="stop3848" style="stop-color:#ffffff;stop-opacity:0"/></linearGradient><linearGradient id="linearGradient3821"><stop offset="0" id="stop3823" style="stop-color:#ffffff;stop-opacity:1"/><stop offset="1" id="stop3825" style="stop-color:#ffffff;stop-opacity:0"/></linearGradient><linearGradient id="linearGradient3038"><stop offset="0" id="stop3040" style="stop-color:#ffff00;stop-opacity:1"/><stop id="stop3816" offset="0.4" style="stop-color:#fee30b;stop-opacity:1"/><stop offset="1" id="stop3042" style="stop-color:#fda202;stop-opacity:1"/></linearGradient><filter id="filter4065" x="-0.2" width="1.39" y="-0.17" height="1.33" color-interpolation-filters="sRGB"><feGaussianBlur stdDeviation="6.09" id="feGaussianBlur4067"/></filter><radialGradient xlink:href="#linearGradient3038" id="radialGradient4090" gradientUnits="userSpaceOnUse" gradientTransform="matrix(1.268868,0,0,1.5100243,-149.37297,-315.89028)" cx="555.56" cy="618.98" fx="555.56" fy="618.98" r="37.57"/><linearGradient xlink:href="#linearGradient3844" id="linearGradient4092" gradientUnits="userSpaceOnUse" x1="475.5" y1="655.11" x2="475.5" y2="662.49"/><linearGradient xlink:href="#linearGradient3859" id="linearGradient4094" gradientUnits="userSpaceOnUse" gradientTransform="translate(80,-16)" x1="469.31" y1="665.24" x2="480.07" y2="665.24"/><linearGradient xlink:href="#linearGradient3821" id="linearGradient4096" gradientUnits="userSpaceOnUse" x1="555.08" y1="578.78" x2="555.08" y2="628.26"/><linearGradient xlink:href="#linearGradient3844" id="linearGradient4098" gradientUnits="userSpaceOnUse" x1="556.67" y1="653.2" x2="556.67" y2="619.15"/><linearGradient xlink:href="#linearGradient3934" id="linearGradient4100" gradientUnits="userSpaceOnUse" x1="538.5" y1="674.49" x2="573.5" y2="674.49"/><linearGradient xlink:href="#linearGradient3972" id="linearGradient4102" gradientUnits="userSpaceOnUse" gradientTransform="translate(80,-20)" x1="458.38" y1="688.03" x2="484.57" y2="688.03"/><linearGradient xlink:href="#linearGradient3956" id="linearGradient4104" gradientUnits="userSpaceOnUse" gradientTransform="translate(80,-20)" x1="459.54" y1="695.06" x2="486.09" y2="695.06"/><linearGradient xlink:href="#linearGradient3956" id="linearGradient4106" gradientUnits="userSpaceOnUse" gradientTransform="translate(80,-20)" x1="459.44" y1="699.6" x2="486.67" y2="699.6"/></defs><metadata id="metadata7"/><g id="layer1" transform="translate(0,-924.36218)"><g id="g4069" transform="translate(-491,357.5)"><path d="m555.56 575.81c-20.47 0-37.06 16.59-37.06 37.06 0 6.7 1.8 12.98 4.91 18.41 5.52 9.04 13.24 19.67 14.81 29.06 0 0 2.29 3.88 17.53 3.88 15.24 0 17.5-3.87 17.5-3.87 1.16-10.48 11.25-21.34 14.47-29.06 3.11-5.42 4.91-11.71 4.91-18.41 0-20.47-16.59-37.06-37.06-37.06z" id="path3995" style="fill:#fcac00;filter:url(#filter4065)"/><path id="path3986" d="m544.99 686.36c0.18 0.26 1.92 4.6 4.83 5.8 2.6 1.08 7.91 1.43 10.47 0.27 3.03-1.37 5.63-6 5.63-6z" fill="#000"/><path id="path3990" d="m548.03 690.94c0.27 0.26 0.54 0.51 0.84 0.72 0.86 0.45 1.25 0.97 3.44 1.19 2.69 0.48 6.08 0.45 7.97-0.41 0.74-0.34 1.46-0.89 2.13-1.5z" fill="#aeaeae"/><path id="path3028" d="m555.56 575.81c-20.47 0-37.06 16.59-37.06 37.06 0 6.7 1.8 12.98 4.91 18.41 5.52 9.04 13.24 19.67 14.81 29.06 0 0 2.29 3.88 17.53 3.88 15.24 0 17.5-3.87 17.5-3.87 1.16-10.48 11.25-21.34 14.47-29.06 3.11-5.42 4.91-11.71 4.91-18.41 0-20.47-16.59-37.06-37.06-37.06z" style="fill:url(#radialGradient4090);stroke-width:1.02;stroke:#f99937"/><path transform="translate(80,0)" d="m488.63 658.86c0 2-5.9 3.63-13.19 3.63-7.28 0-13.19-1.62-13.19-3.62 0-2 5.9-3.62 13.19-3.62 7.28 0 13.19 1.62 13.19 3.63z" id="path3873" style="fill-rule:evenodd;fill:url(#linearGradient4092);opacity:0.45"/><path id="rect3856" d="m549.5 647.36 10.38 0 0 14-10.37 0z" style="fill-rule:evenodd;fill:url(#linearGradient4094);stroke:#ffae00"/><path id="path3833" d="m548.88 645.99-7.37-26.12" style="fill:none;stroke-width:2;stroke:#ffb000"/><path d="m561.25 645.99 7.38-26.12" id="path3835" style="fill:none;stroke-width:2;stroke:#ffb000"/><path id="path3837" d="m541.88 619.86c1.88 1.75 3.38 0.5 4.25-0.5 1.88 0 1.88 1.63 3 1.63 1.13 0 1.88-1.5 3.13-1.5 1.25 0 0.88 1.5 2.75 1.38 1.88-0.12 1.5-1.37 3.13-1.37 1.63 0 1.5 1.5 3 1.5 1.5 0 1.5-2 3.13-1.75 1.63 0.25 0.38 1.5 2.25 1.5 1.88 0 2.25-0.62 2.25-0.62" style="fill:none;stroke:#ffb000"/><path id="path3818" d="m587.4 605.31c0 15-14.26 27.87-31.85 27.87-17.59 0-31.85-12.87-31.85-27.87 0-15 14.26-27.36 31.85-27.36 17.59 0 31.85 12.36 31.85 27.36z" style="fill-rule:evenodd;fill:url(#linearGradient4096)"/><path transform="translate(79.875,0.125)" d="m482 645.42c0 1-3.22 1.81-7.19 1.81-3.97 0-7.19-0.81-7.19-1.81 0-1 3.22-1.81 7.19-1.81 3.97 0 7.19 0.81 7.19 1.81z" id="path3854" style="fill-rule:evenodd;fill:#ffdc45;stroke:#ffa900"/><path id="path3839" d="m522.28 618.72c0 0 4.24 33.98 33.06 34.13 0.06 0 0.12 0 0.19 0 28.82-0.15 33.06-34.12 33.06-34.12-7.61 12.78-20.58 18.42-33.25 18.41-12.61-0.02-23.56-3.73-33.06-18.41z" style="fill:url(#linearGradient4098);opacity:0.56"/><path id="path3929" d="M537.86 660.25 539.5 665.25c0 0-1.34 0.27-1.34 2.31 0 2.04 1.97 1.94 1.97 3.19 0 1.25-1.75 0.38-1.75 3.38 0 3 1.5 0.88 1.5 3.38 0 2.5-1-0.62-1 2.63 0 3.25 1.25-0.87 1.25 2.75 0 3.63 5.38 4.38 5.38 4.38 0 0 4.85 0.59 8.91 0.72l0 0.03c0.23 0 0.48 0 0.72 0 0.25 0.01 0.51 0 0.75 0l0-0.03c4.06-0.13 8.91-0.72 8.91-0.72 0 0 5.38-0.75 5.38-4.37 0-3.62 0.25 0.13 0.25-3.12 0-3.25 1.75-0.62 1.75-3.12 0-2.5-1.25 0.38-1.25-2.62 0-3 1.5-2.62 1.5-3.87 0-1.25-1.28-1.02-1.28-3.06 0-2.04 1.96-1.86 1.91-3.06-0.06-1.25 0.58-4.02 0.58-4.02-0.92 4.49-13.4 5.13-17.16 5.07-0.22 0-0.49 0.01-0.66 0-0.04 0-0.12 0-0.16 0-0.42-0.01-0.66 0-0.66 0-3.76 0.06-16.2-0.31-17.12-4.8z" fill="url(#linearGradient4100)"/><path id="path3946" d="m539.48 665.05c3.67 5.83 17.06 6.96 25.46 4.89 0 0-20.89 4.61-25.52-0.64-1.99-1.71-0.61-3.77 0.06-4.25z" fill="url(#linearGradient4102)"/><path d="m540.63 671.68c3.67 5.83 17.06 6.96 25.46 4.89 0 0-20.89 4.61-25.52-0.64-1.99-1.71-0.61-3.77 0.06-4.25z" id="path3952" fill="url(#linearGradient4104)"/><path id="path3954" d="m540.63 677.25c3.67 5.83 17.06 6.96 25.46 4.89 0 0-20.89 4.61-25.52-0.64-1.99-1.71-0.61-3.77 0.06-4.25z" fill="url(#linearGradient4106)"/><path id="path3980" d="m571.13 666.61c-3 5.38-12.62 7.38-12.62 7.38 0 0 9-0.62 12.63-5.25z" fill="#bcb29b"/><path d="m571.13 672.99c-3 5.38-12.62 7.38-12.62 7.38 0 0 9-0.62 12.63-5.25z" id="path3982" fill="#b1afab"/><path id="path3984" d="m571.13 678.61c-3 5.38-8.5 5.38-8.5 5.38 0 0 4.88 1.38 8.5-3.25z" fill="#ababab"/></g></g></svg>