<svg xmlns="http://www.w3.org/2000/svg" xmlns:xlink="http://www.w3.org/1999/xlink" width="48" height="48">
  <defs>
    <linearGradient id="j">
      <stop offset="0" stop-color="#f8f8f7"/>
      <stop offset="1" stop-color="#babdb6"/>
    </linearGradient>
    <linearGradient id="i">
      <stop offset="0" stop-color="#fff" stop-opacity="0"/>
      <stop offset=".5" stop-color="#fff"/>
      <stop offset="1" stop-color="#fff" stop-opacity="0"/>
    </linearGradient>
    <linearGradient id="h">
      <stop offset="0" stop-color="#eeeeec"/>
      <stop offset="1" stop-color="#fff"/>
    </linearGradient>
    <linearGradient id="f">
      <stop offset="0"/>
      <stop offset="1" stop-opacity="0"/>
    </linearGradient>
    <linearGradient id="g">
      <stop offset="0" stop-color="#f2f4f1"/>
      <stop offset="1" stop-color="#d3d7cf"/>
    </linearGradient>
    <linearGradient id="e">
      <stop offset="0" stop-color="#fff"/>
      <stop offset="1" stop-color="#dcdcdc"/>
    </linearGradient>
    <linearGradient id="d">
      <stop offset="0"/>
      <stop offset="1" stop-opacity="0"/>
    </linearGradient>
    <linearGradient id="c">
      <stop offset="0" stop-color="#ef2929"/>
      <stop offset="1" stop-color="#ef2929" stop-opacity="0"/>
    </linearGradient>
    <linearGradient id="a">
      <stop offset="0" stop-color="#204a87" stop-opacity="0"/>
      <stop offset=".5" stop-color="#204a87"/>
      <stop offset="1" stop-color="#204a87" stop-opacity="0"/>
    </linearGradient>
    <linearGradient id="b">
      <stop offset="0"/>
      <stop offset="1" stop-opacity="0"/>
    </linearGradient>
    <radialGradient xlink:href="#f" id="q" gradientUnits="userSpaceOnUse" gradientTransform="matrix(1 0 0 .39928 0 23.916)" cx="24.25" cy="39.81" fx="24.25" fy="39.81" r="17.38"/>
    <radialGradient xlink:href="#g" id="r" gradientUnits="userSpaceOnUse" gradientTransform="matrix(1.04521 0 0 .98974 -41.108 -11.647)" cx="24.5" cy="29.5" fx="24.5" fy="29.5" r="15.1"/>
    <linearGradient xlink:href="#h" id="s" gradientUnits="userSpaceOnUse" gradientTransform="matrix(.48215 0 0 .45656 -27.118 4.267)" x1="24.1" y1="12.6" x2="24.1" y2="34.1"/>
    <linearGradient xlink:href="#i" id="t" gradientUnits="userSpaceOnUse" gradientTransform="matrix(.52416 0 0 .52416 2.41 3.28)" x1="38.29" y1="6.72" x2="39.44" y2="8.16"/>
    <linearGradient xlink:href="#i" id="u" gradientUnits="userSpaceOnUse" gradientTransform="matrix(.52416 0 0 .52416 3.53 3.248)" x1="8.12" y1="7.93" x2="9.07" y2="6.78"/>
    <radialGradient xlink:href="#f" id="k" gradientUnits="userSpaceOnUse" gradientTransform="matrix(1 0 0 .39928 0 23.916)" cx="24.25" cy="39.81" fx="24.25" fy="39.81" r="17.38"/>
    <radialGradient xlink:href="#g" id="m" gradientUnits="userSpaceOnUse" gradientTransform="matrix(1.04521 0 0 .98974 -41.108 -11.647)" cx="24.5" cy="29.5" fx="24.5" fy="29.5" r="15.1"/>
    <linearGradient xlink:href="#h" id="n" gradientUnits="userSpaceOnUse" gradientTransform="matrix(.48215 0 0 .45656 -27.118 4.267)" x1="24.1" y1="12.6" x2="24.1" y2="34.1"/>
    <linearGradient xlink:href="#i" id="o" gradientUnits="userSpaceOnUse" gradientTransform="matrix(.52416 0 0 .52416 2.41 3.28)" x1="38.29" y1="6.72" x2="39.44" y2="8.16"/>
    <linearGradient xlink:href="#i" id="p" gradientUnits="userSpaceOnUse" gradientTransform="matrix(.52416 0 0 .52416 3.53 3.248)" x1="8.12" y1="7.93" x2="9.07" y2="6.78"/>
    <radialGradient xlink:href="#f" id="v" gradientUnits="userSpaceOnUse" gradientTransform="matrix(1 0 0 .39928 0 23.916)" cx="24.25" cy="39.81" fx="24.25" fy="39.81" r="17.38"/>
    <radialGradient xlink:href="#g" id="w" gradientUnits="userSpaceOnUse" gradientTransform="matrix(.95075 0 0 .98974 -7.702 -11.432)" cx="32.12" cy="31.89" fx="32.12" fy="31.89" r="15.1"/>
    <linearGradient xlink:href="#h" id="x" gradientUnits="userSpaceOnUse" gradientTransform="matrix(.43857 0 0 .45656 5.024 4.482)" x1="24.1" y1="12.6" x2="24.1" y2="34.1"/>
    <linearGradient xlink:href="#i" id="y" gradientUnits="userSpaceOnUse" gradientTransform="matrix(.52416 0 0 .52416 16.24 3.168)" x1="38.29" y1="6.72" x2="39.44" y2="8.16"/>
    <linearGradient xlink:href="#i" id="z" gradientUnits="userSpaceOnUse" gradientTransform="matrix(.52416 0 0 .52416 4.61 3.198)" x1="8.12" y1="7.93" x2="9.07" y2="6.78"/>
    <radialGradient xlink:href="#j" id="l" cx="15.49" cy="6.25" fx="15.49" fy="6.25" r="10.49" gradientTransform="matrix(2.20327 0 0 .98135 -18.638 -.28)" gradientUnits="userSpaceOnUse"/>
  </defs>
  <g transform="translate(-3 -2.994)">
    <path transform="matrix(.52416 0 0 .27388 2.448 12.696)" d="M41.63 39.81a17.38 6.94 0 1 1-34.75 0 17.38 6.94 0 1 1 34.75 0z" fill="url(#k)" opacity=".39"/>
    <rect ry="2.57" rx="2.45" y="4.51" x="5.5" height="20.94" width="19.99" fill="url(#l)" stroke="#888a85"/>
    <rect transform="scale(-1 1)" width="14.07" height="13.33" x="-22.54" y="7.23" rx="1.72" ry="1.63" fill="url(#m)" stroke="url(#n)"/>
    <rect width="18.02" height="19" x="6.49" y="5.5" rx="1.56" ry="1.56" fill="none" opacity=".49" stroke="#fff"/>
    <path d="M6.98 22.77c-.06.83.48 1.32 1.4 1.25l.89-3.17-.65-.38-1.64 2.3zM24.05 23c-.18.94-.88 1.05-1.71 1.05l-.82-3.08.67-.41L24.05 23z" fill="#fff" opacity=".49"/>
    <path d="M24.03 7.08c-.05-.58-.38-1.03-1.01-1.08l-.87 1.14.61.64 1.27-.7z" fill="url(#o)"/>
    <path d="M6.9 6.98c.14-.51.55-.95 1.12-.98l.76 1.19-.56.63-1.32-.84z" fill="url(#p)"/>
  </g>
  <path d="M42.44 25.373a5.23 5.23 0 1 1-10.459 0 5.23 5.23 0 1 1 10.459 0z" fill="none" stroke-width="2.0018383" stroke="#204a87"/>
  <g transform="translate(20.005 -2.943)">
    <path d="M41.63 39.81a17.38 6.94 0 1 1-34.75 0 17.38 6.94 0 1 1 34.75 0z" transform="matrix(.52416 0 0 .27388 2.448 12.696)" fill="url(#q)" opacity=".39"/>
    <rect width="19.99" height="20.94" x="5.5" y="4.51" rx="2.45" ry="2.57" fill="#babdb6" stroke="#888a85"/>
    <rect ry="1.63" rx="1.72" y="7.23" x="-22.54" height="13.33" width="14.07" transform="scale(-1 1)" fill="url(#r)" stroke="url(#s)"/>
    <rect ry="1.56" rx="1.56" y="5.5" x="6.49" height="19" width="18.02" fill="none" opacity=".49" stroke="#fff"/>
    <path d="M6.98 22.77c-.06.83.48 1.32 1.4 1.25l.89-3.17-.65-.38-1.64 2.3zM24.05 23c-.18.94-.88 1.05-1.71 1.05l-.82-3.08.67-.41L24.05 23z" fill="#fff" opacity=".49"/>
    <path d="M24.03 7.08c-.05-.58-.38-1.03-1.01-1.08l-.87 1.14.61.64 1.27-.7z" fill="url(#t)"/>
    <path d="M6.9 6.98c.14-.51.55-.95 1.12-.98l.76 1.19-.56.63-1.32-.84z" fill="url(#u)"/>
  </g>
  <g transform="matrix(1 0 0 1.00541 -2.985 19.973)">
    <path d="M41.63 39.81a17.38 6.94 0 1 1-34.75 0 17.38 6.94 0 1 1 34.75 0z" transform="matrix(.52416 0 0 .27388 2.448 12.696)" fill="url(#v)" opacity=".39"/>
    <rect width="33.16" height="20.94" x="6.37" y="4.51" rx="2.57" ry="2.55" fill="#babdb6" stroke="#888a85"/>
    <rect ry="1.31" rx="1.32" y="7.45" x="9.19" height="13.05" width="27.3" fill="url(#w)" stroke="url(#x)"/>
    <rect ry="1.55" rx="1.56" y="5.44" x="7.36" height="19" width="31.22" fill="none" opacity=".49" stroke="#fff"/>
    <path d="M7.96 22.93c-.04.67.77 1.05 1.13 1.01l1.03-3.06-.77-.58-1.39 2.63zM38.52 22.84c-.19.94-.89 1.05-1.72 1.05l-.82-3.08.67-.41 1.87 2.44z" fill="#fff" opacity=".49"/>
    <path d="M37.86 6.97c-.05-.58-.38-1.03-1.01-1.08l-.87 1.14.61.64 1.27-.7z" fill="url(#y)"/>
    <path d="M7.98 6.93c.15-.51.55-.95 1.12-.98l.76 1.19-.56.63-1.32-.84z" fill="url(#z)"/>
  </g>
  <path d="M17.62 8.94l-2.24 5.7c-.22.55-.49.96-.81 1.23-.32.28-.7.42-1.12.42-.16 0-.32-.02-.49-.06v-.9c.19.06.36.09.52.09.19 0 .36-.06.52-.17.16-.11.28-.28.38-.51l.35-.8-1.98-5h1.05l1.29 3.75c.02.06.05.19.09.39h.03c.05-.21.08-.34.1-.39l1.33-3.75h.98M39.71 8.94l-1.67 2.52 1.67 2.48h-1.1l-1.16-1.95-1.19 1.95h-1.08l1.73-2.46-1.62-2.54h1.09l1.11 2.04 1.19-2.04h1.03M14.39 38.05c-.54.3-1.2.45-1.99.45-.99 0-1.79-.32-2.39-.96-.59-.65-.89-1.49-.89-2.53 0-1.11.34-2.02 1.02-2.71.69-.7 1.54-1.04 2.56-1.04.68 0 1.25.1 1.69.29v1.03c-.52-.3-1.09-.45-1.7-.45-.77 0-1.39.25-1.86.77-.48.51-.72 1.19-.72 2.06 0 .81.22 1.47.66 1.95.45.48 1.03.72 1.77.72.7 0 1.32-.17 1.85-.5v.92m3.74.26c-.2.1-.47.15-.79.15-.47 0-.81-.12-1.05-.37-.23-.26-.34-.64-.34-1.15v-2.81h-.84v-.75h.84v-1.2l.94-.29v1.49h1.24v.75h-1.24v2.63c0 .33.06.56.17.7.11.14.3.21.58.21.18 0 .34-.06.49-.16v.8m3.88-3.97c-.17-.12-.38-.17-.65-.17-.31 0-.86.14-1.07.43-.21.28-.32.66-.32 1.13v2.65h-.94v-5h.94v.99c.12-.36.29-.62.53-.8.23-.19.76-.28 1.03-.28.21 0 .37.02.48.07v.98m2 4.04h-.95v-7.41h.95v7.41" style="line-height:100" font-family="Segoe" font-size="10"/>
  <rect width="33.7" height="22.14" x="3.15" y="23.93" rx="2.9" ry="2.9" fill="none" stroke-width="2" stroke="#204a87"/>
  <rect ry="2.72" rx="2.72" y="1.12" x="25.06" height="21.78" width="20.88" fill="none" stroke-width="2" stroke="#204a87"/>
</svg>
