<?xml version="1.0" encoding="UTF-8" standalone="no"?>
<!-- Created with Inkscape (http://www.inkscape.org/) -->

<svg
   xmlns:dc="http://purl.org/dc/elements/1.1/"
   xmlns:cc="http://creativecommons.org/ns#"
   xmlns:rdf="http://www.w3.org/1999/02/22-rdf-syntax-ns#"
   xmlns:svg="http://www.w3.org/2000/svg"
   xmlns="http://www.w3.org/2000/svg"
   xmlns:xlink="http://www.w3.org/1999/xlink"
   xmlns:sodipodi="http://sodipodi.sourceforge.net/DTD/sodipodi-0.dtd"
   xmlns:inkscape="http://www.inkscape.org/namespaces/inkscape"
   width="48"
   height="48"
   id="svg2"
   sodipodi:version="0.32"
   inkscape:version="0.91 r"
   sodipodi:docname="label2.svg"
   inkscape:output_extension="org.inkscape.output.svg.inkscape"
   version="1.0"
   inkscape:export-filename="/home/roger/mis-dibujos/open/key_tag.png"
   inkscape:export-xdpi="90"
   inkscape:export-ydpi="90">
  <defs
     id="defs4">
    <linearGradient
       inkscape:collect="always"
       id="linearGradient3298">
      <stop
         style="stop-color:#000000;stop-opacity:1;"
         offset="0"
         id="stop3300" />
      <stop
         style="stop-color:#000000;stop-opacity:0;"
         offset="1"
         id="stop3302" />
    </linearGradient>
    <linearGradient
       id="linearGradient3248">
      <stop
         style="stop-color:#869b7a;stop-opacity:1;"
         offset="0"
         id="stop3250" />
      <stop
         style="stop-color:#ebedeb;stop-opacity:1;"
         offset="1"
         id="stop3252" />
    </linearGradient>
    <linearGradient
       id="linearGradient3222">
      <stop
         style="stop-color:#000000;stop-opacity:0.29411766;"
         offset="0"
         id="stop3224" />
      <stop
         style="stop-color:#ffffff;stop-opacity:0.29411766;"
         offset="1"
         id="stop3226" />
    </linearGradient>
    <linearGradient
       id="linearGradient3204">
      <stop
         style="stop-color:#ffffff;stop-opacity:1;"
         offset="0"
         id="stop3206" />
      <stop
         style="stop-color:#ffffff;stop-opacity:0;"
         offset="1"
         id="stop3208" />
    </linearGradient>
    <linearGradient
       inkscape:collect="always"
       id="linearGradient3196">
      <stop
         style="stop-color:#000000;stop-opacity:1;"
         offset="0"
         id="stop3198" />
      <stop
         style="stop-color:#000000;stop-opacity:0;"
         offset="1"
         id="stop3200" />
    </linearGradient>
    <linearGradient
       inkscape:collect="always"
       id="linearGradient3476">
      <stop
         style="stop-color:#ffffff;stop-opacity:1;"
         offset="0"
         id="stop3478" />
      <stop
         style="stop-color:#ffffff;stop-opacity:0;"
         offset="1"
         id="stop3480" />
    </linearGradient>
    <linearGradient
       id="linearGradient3446">
      <stop
         style="stop-color:#2e3436;stop-opacity:0.49006623;"
         offset="0"
         id="stop3448" />
      <stop
         style="stop-color:#2e3436;stop-opacity:0;"
         offset="1"
         id="stop3450" />
    </linearGradient>
    <linearGradient
       id="linearGradient3418">
      <stop
         style="stop-color:#ffffff;stop-opacity:1;"
         offset="0"
         id="stop3420" />
      <stop
         style="stop-color:#ffffff;stop-opacity:0;"
         offset="1"
         id="stop3422" />
    </linearGradient>
    <inkscape:perspective
       sodipodi:type="inkscape:persp3d"
       inkscape:vp_x="0 : 526.18109 : 1"
       inkscape:vp_y="0 : 1000 : 0"
       inkscape:vp_z="744.09448 : 526.18109 : 1"
       inkscape:persp3d-origin="372.04724 : 350.78739 : 1"
       id="perspective10" />
    <inkscape:perspective
       id="perspective2620"
       inkscape:persp3d-origin="372.04724 : 350.78739 : 1"
       inkscape:vp_z="744.09448 : 526.18109 : 1"
       inkscape:vp_y="0 : 1000 : 0"
       inkscape:vp_x="0 : 526.18109 : 1"
       sodipodi:type="inkscape:persp3d" />
    <linearGradient
       inkscape:collect="always"
       xlink:href="#linearGradient3418"
       id="linearGradient3424"
       x1="390.54507"
       y1="675.73193"
       x2="374.08527"
       y2="675.73193"
       gradientUnits="userSpaceOnUse"
       gradientTransform="translate(138.06066,-2.5606602)" />
    <linearGradient
       inkscape:collect="always"
       xlink:href="#linearGradient3476"
       id="linearGradient3482"
       x1="426"
       y1="672.40094"
       x2="399.15915"
       y2="672.40094"
       gradientUnits="userSpaceOnUse"
       gradientTransform="matrix(0.15551596,-0.08221812,0.08221812,0.15551596,137.97013,639.31619)" />
    <linearGradient
       inkscape:collect="always"
       xlink:href="#linearGradient3196"
       id="linearGradient3202"
       x1="218.875"
       y1="673.67468"
       x2="234.63577"
       y2="673.67468"
       gradientUnits="userSpaceOnUse"
       gradientTransform="matrix(0.15551596,-0.08221812,0.08221812,0.15551596,138.01123,639.39395)" />
    <linearGradient
       inkscape:collect="always"
       xlink:href="#linearGradient3204"
       id="linearGradient3210"
       x1="384.89655"
       y1="664.67468"
       x2="366.89655"
       y2="665.17468"
       gradientUnits="userSpaceOnUse"
       gradientTransform="matrix(0.15551596,-0.08221812,0.08221812,0.15551596,138.01123,639.39395)" />
    <radialGradient
       inkscape:collect="always"
       xlink:href="#linearGradient3248"
       id="radialGradient3282"
       gradientUnits="userSpaceOnUse"
       gradientTransform="matrix(0.1257111,-9.2806661e-8,1.3101233e-7,0.1782947,431.96907,436.64723)"
       spreadMethod="reflect"
       cx="498.12442"
       cy="542.14819"
       fx="498.12442"
       fy="542.14819"
       r="33.96875" />
    <radialGradient
       inkscape:collect="always"
       xlink:href="#linearGradient3248"
       id="radialGradient3284"
       gradientUnits="userSpaceOnUse"
       gradientTransform="matrix(0.1257111,-9.2806661e-8,1.3101233e-7,0.1782947,427.72643,436.29368)"
       spreadMethod="reflect"
       cx="498.12442"
       cy="542.14819"
       fx="498.12442"
       fy="542.14819"
       r="33.96875" />
    <radialGradient
       inkscape:collect="always"
       xlink:href="#linearGradient3248"
       id="radialGradient3292"
       gradientUnits="userSpaceOnUse"
       gradientTransform="matrix(0.02203894,0.00182164,-0.0025836,0.03125759,248.4996,684.87745)"
       spreadMethod="reflect"
       cx="498.12442"
       cy="542.14819"
       fx="498.12442"
       fy="542.14819"
       r="33.96875" />
    <linearGradient
       inkscape:collect="always"
       xlink:href="#linearGradient3298"
       id="linearGradient3304"
       x1="400"
       y1="631.48718"
       x2="403.375"
       y2="626.98718"
       gradientUnits="userSpaceOnUse"
       gradientTransform="matrix(0.15551595,-0.08221812,0.08221812,0.15551595,138.01122,639.39394)" />
    <linearGradient
       inkscape:collect="always"
       xlink:href="#linearGradient3222"
       id="linearGradient3426"
       gradientUnits="userSpaceOnUse"
       x1="397.75"
       y1="671.48718"
       x2="411"
       y2="671.48718" />
    <radialGradient
       inkscape:collect="always"
       xlink:href="#linearGradient3248"
       id="radialGradient3428"
       gradientUnits="userSpaceOnUse"
       gradientTransform="matrix(0.105918,0.06771017,-0.09603261,0.1502223,318.2011,-271.76854)"
       spreadMethod="reflect"
       cx="498.12442"
       cy="542.14819"
       fx="498.12442"
       fy="542.14819"
       r="33.96875" />
    <radialGradient
       inkscape:collect="always"
       xlink:href="#linearGradient3248"
       id="radialGradient3430"
       gradientUnits="userSpaceOnUse"
       gradientTransform="matrix(0.105918,0.06771017,-0.09603261,0.1502223,536.03564,318.55428)"
       spreadMethod="reflect"
       cx="498.12442"
       cy="542.14819"
       fx="498.12442"
       fy="542.14819"
       r="33.96875" />
    <linearGradient
       inkscape:collect="always"
       xlink:href="#linearGradient3298"
       id="linearGradient3432"
       gradientUnits="userSpaceOnUse"
       x1="400"
       y1="631.48718"
       x2="403.375"
       y2="626.98718"
       gradientTransform="translate(105,-201)" />
    <radialGradient
       inkscape:collect="always"
       xlink:href="#linearGradient3248"
       id="radialGradient3434"
       gradientUnits="userSpaceOnUse"
       gradientTransform="matrix(0.105918,0.06771017,-0.09603261,0.1502223,536.03564,318.55428)"
       spreadMethod="reflect"
       cx="498.12442"
       cy="542.14819"
       fx="498.12442"
       fy="542.14819"
       r="33.96875" />
    <radialGradient
       inkscape:collect="always"
       xlink:href="#linearGradient3248"
       id="radialGradient4197"
       gradientUnits="userSpaceOnUse"
       gradientTransform="matrix(0.02203894,0.00182164,-0.0025836,0.03125759,247.76094,684.75398)"
       spreadMethod="reflect"
       cx="498.12442"
       cy="542.14819"
       fx="498.12442"
       fy="542.14819"
       r="33.96875" />
  </defs>
  <sodipodi:namedview
     id="base"
     pagecolor="#ffffff"
     bordercolor="#666666"
     borderopacity="1.0"
     inkscape:pageopacity="0.0"
     inkscape:pageshadow="2"
     inkscape:zoom="8"
     inkscape:cx="36.566241"
     inkscape:cy="31.574856"
     inkscape:document-units="px"
     inkscape:current-layer="layer1"
     showgrid="false"
     inkscape:window-width="1272"
     inkscape:window-height="690"
     inkscape:window-x="0"
     inkscape:window-y="0"
     inkscape:window-maximized="0" />
  <g
     inkscape:label="Capa 1"
     inkscape:groupmode="layer"
     id="layer1"
     transform="translate(-221.21875,-693.28124)">
    <path
       style="opacity:1;fill:#1e1e1e;fill-opacity:1;fill-rule:nonzero;stroke:none;stroke-width:0.1;stroke-linecap:round;stroke-linejoin:bevel;stroke-miterlimit:4;stroke-dashoffset:0;stroke-opacity:1"
       d="m 226.10161,714.68699 c -1.8462,0.97606 -2.54737,3.25024 -1.57132,5.09644 l 6.57744,12.44128 c 0.97606,1.8462 3.24767,2.54251 5.09387,1.56645 l 20.77109,-10.98125 c 0.85676,-0.49486 1.48292,-1.92385 1.9472,-3.70328 0.004,-0.0128 0.007,-0.0251 0.0114,-0.0371 1.2423,-3.32376 2.5819,-7.88634 1.30302,-10.20276 -1.13267,-2.16763 -5.71609,-3.74336 -9.11569,-4.65729 -1.76783,-0.64014 -3.33954,-0.94031 -4.24596,-0.50369 l -20.7711,10.98124 z m 30.01496,-5.55227 c 0.67128,-0.35488 1.50498,-0.0937 1.85987,0.5775 0.3549,0.67128 0.0987,1.50242 -0.57264,1.85731 -0.67127,0.35489 -1.50239,0.0987 -1.85729,-0.57264 -0.35489,-0.67128 -0.10119,-1.50728 0.57006,-1.86217 z"
       id="rect2630"
       inkscape:connector-curvature="0" />
    <rect
       ry="2.5712976"
       y="739.06866"
       x="-136.70457"
       height="18.5163"
       width="27.611931"
       id="rect3454"
       style="opacity:1;fill:#232323;fill-opacity:1;fill-rule:nonzero;stroke:none;stroke-width:0.1;stroke-linecap:round;stroke-linejoin:bevel;stroke-miterlimit:4;stroke-dasharray:none;stroke-dashoffset:0;stroke-opacity:1"
       transform="matrix(0.88405541,-0.4673821,0.4673821,0.88405541,0,0)" />
    <rect
       style="opacity:1;fill:#eeeeec;fill-opacity:1;fill-rule:nonzero;stroke:none;stroke-width:0.1;stroke-linecap:round;stroke-linejoin:bevel;stroke-miterlimit:4;stroke-dasharray:none;stroke-dashoffset:0;stroke-opacity:1"
       id="rect2636"
       width="23.917778"
       height="14.688652"
       x="-134.85751"
       y="741.09167"
       ry="0.48063433"
       transform="matrix(0.88405541,-0.4673821,0.4673821,0.88405541,0,0)" />
    <path
       style="opacity:1;fill:#141414;fill-opacity:1;fill-rule:nonzero;stroke:none;stroke-width:0.1;stroke-linecap:round;stroke-linejoin:bevel;stroke-miterlimit:4;stroke-dashoffset:0;stroke-opacity:1"
       d="m 251.56753,705.89357 6.00194,11.35266 c 0.0862,-0.25205 0.1662,-0.52203 0.23995,-0.80464 0.002,-0.008 0.004,-0.0142 0.007,-0.0223 0.85669,-2.29204 1.78218,-5.43878 0.90026,-7.03617 -0.78175,-1.49442 -3.94259,-2.58133 -6.28693,-3.21157 -0.29756,-0.10776 -0.58533,-0.20216 -0.86207,-0.27799 z m 4.54904,3.24115 c 0.67128,-0.35488 1.50498,-0.0937 1.85987,0.5775 0.3549,0.67128 0.0987,1.50242 -0.57264,1.85731 -0.67127,0.35489 -1.50239,0.0987 -1.85729,-0.57264 -0.35489,-0.67128 -0.10119,-1.50728 0.57006,-1.86217 z"
       id="path3469"
       inkscape:connector-curvature="0" />
    <path
       id="path3474"
       d="m 251.52643,705.81581 6.00104,11.35101 c 0.0862,-0.25207 0.16756,-0.51819 0.24129,-0.80081 0.002,-0.008 0.004,-0.017 0.007,-0.0255 0.85668,-2.29206 1.78047,-5.43839 0.89855,-7.03579 -0.78175,-1.49441 -3.94178,-2.58139 -6.28614,-3.21163 -0.29755,-0.10775 -0.58591,-0.20136 -0.86265,-0.27719 z"
       style="opacity:1;fill:none;fill-opacity:1;fill-rule:nonzero;stroke:url(#linearGradient3482);stroke-width:0.35182402;stroke-linecap:round;stroke-linejoin:bevel;stroke-miterlimit:4;stroke-dasharray:none;stroke-dashoffset:0;stroke-opacity:1"
       inkscape:connector-curvature="0" />
    <path
       style="fill:none;fill-rule:evenodd;stroke:url(#linearGradient3210);stroke-width:0.17591201px;stroke-linecap:butt;stroke-linejoin:miter;stroke-opacity:1"
       d="m 247.23172,705.26693 c 0,0 1.01981,-0.44073 2.33622,0.65522 0.28312,0.30297 6.86046,12.74795 6.95441,13.01304 0.64661,1.30774 -0.4108,2.70447 -0.4108,2.70447"
       id="path2414"
       sodipodi:nodetypes="cccc"
       inkscape:connector-curvature="0" />
    <path
       sodipodi:nodetypes="cccc"
       id="path2416"
       d="m 226.35482,716.20463 c 0,0 -0.93849,0.59459 -0.77409,2.2996 0.0909,0.40455 6.67151,12.84782 6.83776,13.07469 0.71658,1.27074 2.46626,1.18344 2.46626,1.18344"
       style="fill:none;fill-opacity:1;fill-rule:evenodd;stroke:url(#linearGradient3202);stroke-width:0.17591201px;stroke-linecap:butt;stroke-linejoin:miter;stroke-opacity:1"
       inkscape:connector-curvature="0" />
    <path
       style="fill:url(#radialGradient3292);fill-opacity:1;fill-rule:nonzero;stroke:none;stroke-width:3.3786025;stroke-linecap:round;stroke-linejoin:bevel;stroke-miterlimit:4;stroke-dasharray:none;stroke-dashoffset:0;stroke-opacity:1"
       d="m 255.97976,695.51455 c -2.03973,1.09166 -3.60354,3.64036 -3.85827,6.72211 -0.0669,0.80832 -0.0403,1.59785 0.0703,2.34435 l 0.97324,0.30007 c -0.1376,-0.80363 -0.17406,-1.66909 -0.10004,-2.56502 0.31552,-3.81717 2.53443,-6.76621 5.40942,-6.52859 2.87499,0.23764 4.93336,3.54138 4.61784,7.35856 -0.3155,3.81717 -2.88677,6.73486 -5.76178,6.49723 -0.48506,-0.0401 -0.9366,-0.16685 -1.35099,-0.36771 l -0.38773,0.36044 -0.0924,0.15453 0.003,0.13525 -0.007,0.009 c 0.54598,0.29632 1.13567,0.48358 1.76301,0.53544 3.18098,0.26293 6.42065,-2.96293 6.77505,-7.25058 0.3544,-4.28764 -2.31057,-7.99549 -5.49157,-8.25842 -0.89464,-0.074 -1.76393,0.12526 -2.56211,0.55239 z"
       id="path3230"
       inkscape:connector-curvature="0" />
    <path
       style="fill:url(#radialGradient4197);fill-opacity:1;fill-rule:nonzero;stroke:none;stroke-width:3.3786025;stroke-linecap:round;stroke-linejoin:bevel;stroke-miterlimit:4;stroke-dasharray:none;stroke-dashoffset:0;stroke-opacity:1"
       d="m 255.23936,695.39608 c -2.03975,1.09168 -3.5987,3.63779 -3.85343,6.71954 -0.0637,0.77044 -0.0425,1.51899 0.0556,2.23405 l 0.9658,0.29776 c -0.12227,-0.7717 -0.1558,-1.60043 -0.0852,-2.45467 0.31552,-3.81719 2.537,-6.76138 5.412,-6.52376 2.87498,0.23765 4.93079,3.53654 4.61528,7.3537 -0.31551,3.81717 -2.8868,6.73489 -5.76178,6.49725 -0.25347,-0.021 -0.4937,-0.0647 -0.72841,-0.13102 l -0.26737,0.24703 -0.0924,0.15453 0.003,0.13522 -0.0769,0.18372 c 0.35156,0.12384 0.71797,0.20935 1.09728,0.24069 3.18099,0.26293 6.41579,-2.96036 6.77019,-7.248 0.3544,-4.28765 -2.30827,-8.00292 -5.48926,-8.26586 -0.89467,-0.074 -1.76625,0.13268 -2.56442,0.55981 z m -2.15457,12.991 c 0.43474,0.54369 0.93736,0.99824 1.49335,1.33092 l -1.49335,-1.33092 z"
       id="path3262"
       inkscape:connector-curvature="0" />
    <path
       style="opacity:0.35915491;fill:url(#linearGradient3304);fill-opacity:1;fill-rule:evenodd;stroke:none;stroke-width:1px;stroke-linecap:butt;stroke-linejoin:miter;stroke-opacity:1"
       d="m 251.43908,704.28623 c 0.1497,0.095 1.80357,0.58861 1.80357,0.58861 l -0.23838,-0.96838 -1.60135,-0.3473 0.0361,0.72707 z"
       id="path3296"
       inkscape:connector-curvature="0" />
  </g>
  <metadata
     id="metadata69">
    <rdf:RDF>
      <cc:Work>
        <dc:format>image/svg+xml</dc:format>
        <dc:type
           rdf:resource="http://purl.org/dc/dcmitype/StillImage" />
        <cc:license
           rdf:resource="http://creativecommons.org/publicdomain/zero/1.0/" />
        <dc:publisher>
          <cc:Agent
             rdf:about="http://openclipart.org/">
            <dc:title>Open Clip Art Library</dc:title>
          </cc:Agent>
        </dc:publisher>
        <dc:title></dc:title>
        <dc:date>2008-11-12T18:13:25</dc:date>
        <dc:description />
        <dc:source>http://openclipart.org/detail/20131/key-tag-by-rg1024</dc:source>
        <dc:creator>
          <cc:Agent>
            <dc:title>rg1024</dc:title>
          </cc:Agent>
        </dc:creator>
        <dc:subject>
          <rdf:Bag>
            <rdf:li>clip art</rdf:li>
            <rdf:li>clipart</rdf:li>
            <rdf:li>color</rdf:li>
            <rdf:li>color</rdf:li>
            <rdf:li>image</rdf:li>
            <rdf:li>key</rdf:li>
            <rdf:li>key</rdf:li>
            <rdf:li>media</rdf:li>
            <rdf:li>png</rdf:li>
            <rdf:li>public domain</rdf:li>
            <rdf:li>svg</rdf:li>
            <rdf:li>tag</rdf:li>
            <rdf:li>tag</rdf:li>
          </rdf:Bag>
        </dc:subject>
      </cc:Work>
      <cc:License
         rdf:about="http://creativecommons.org/publicdomain/zero/1.0/">
        <cc:permits
           rdf:resource="http://creativecommons.org/ns#Reproduction" />
        <cc:permits
           rdf:resource="http://creativecommons.org/ns#Distribution" />
        <cc:permits
           rdf:resource="http://creativecommons.org/ns#DerivativeWorks" />
      </cc:License>
    </rdf:RDF>
  </metadata>
</svg>
