<?xml version="1.0" encoding="utf-8"?>
<!-- Generator: Adobe Illustrator 27.9.0, SVG Export Plug-In . SVG Version: 6.00 Build 0)  -->
<svg version="1.1" id="svg2" xmlns:svg="http://www.w3.org/2000/svg"
	 xmlns="http://www.w3.org/2000/svg" xmlns:xlink="http://www.w3.org/1999/xlink" x="0px" y="0px" viewBox="0 0 256 256"
	 style="enable-background:new 0 0 256 256;" xml:space="preserve">
<style type="text/css">
	.st0{fill:#7E57C2;}
</style>
<path class="st0" d="M32,53v65.6c0,7.5,2.9,14.6,8.2,19.9l77.2,77.2c11,11,28.7,11,39.7,0l58.6-58.6c11-11,11-28.7,0-39.7
	l-77.2-77.2c-5.3-5.3-12.4-8.2-19.9-8.2H53.1C41.4,32,32,41.4,32,53z M81.2,67.1c7.8,0,14,6.3,14,14s-6.3,14-14,14s-14-6.3-14-14
	S73.4,67.1,81.2,67.1z"/>
</svg>
