<?xml version="1.0" encoding="utf-8"?>
<!-- Generator: Adobe Illustrator 27.3.1, SVG Export Plug-In . SVG Version: 6.00 Build 0)  -->
<svg version="1.1"
	 id="svg2" xmlns:sodipodi="http://sodipodi.sourceforge.net/DTD/sodipodi-0.dtd" xmlns:inkscape="http://www.inkscape.org/namespaces/inkscape" xmlns:svg="http://www.w3.org/2000/svg" xmlns:dc="http://purl.org/dc/elements/1.1/" xmlns:cc="http://creativecommons.org/ns#" xmlns:rdf="http://www.w3.org/1999/02/22-rdf-syntax-ns#" inkscape:version="1.1.2 (1:1.1+202202050852+0a00cf5339)" sodipodi:docname="layout-btf.svg"
	 xmlns="http://www.w3.org/2000/svg" xmlns:xlink="http://www.w3.org/1999/xlink" x="0px" y="0px" viewBox="0 0 250 250"
	 style="enable-background:new 0 0 250 250;" xml:space="preserve">
<style type="text/css">
	.st0{fill:#224458;}
</style>
<sodipodi:namedview  bordercolor="#666666" borderopacity="1.0" id="base" inkscape:current-layer="layer1" inkscape:cx="21.383929" inkscape:cy="20.803571" inkscape:document-units="px" inkscape:pagecheckerboard="0" inkscape:pageopacity="0.0" inkscape:pageshadow="2" inkscape:window-height="1123" inkscape:window-maximized="1" inkscape:window-width="1600" inkscape:window-x="0" inkscape:window-y="0" inkscape:zoom="11.2" pagecolor="#ffffff" showgrid="false" units="px">
	</sodipodi:namedview>
<g id="layer1" transform="translate(0,-1004.3622)" inkscape:groupmode="layer" inkscape:label="Layer 1">
	<g id="rect4138">
		<path class="st0" d="M77.1,1201.6H21.2v-55.9h55.9V1201.6z M32.9,1190h32.5v-32.5H32.9V1190z"/>
	</g>
	<g id="rect4138-3">
		<path class="st0" d="M129.5,1141.5H73.6v-55.9h55.9V1141.5z M85.3,1129.8h32.5v-32.5H85.3V1129.8z"/>
	</g>
	<g id="rect4138-6">
		<path class="st0" d="M181.8,1081.4h-55.9v-55.9h55.9V1081.4z M137.6,1069.7h32.5v-32.5h-32.5V1069.7z"/>
	</g>
	<g id="g1122" transform="rotate(174.90084,30.517688,1034.0581)">
		<g id="path4163">
			
				<rect x="-179.3" y="905.9" transform="matrix(0.6434 -0.7656 0.7656 0.6434 -733.9053 252.708)" class="st0" width="167.2" height="16.3"/>
		</g>
		<g id="path4165">
			
				<path inkscape:flatsided="true" inkscape:randomized="0" inkscape:rounded="0" inkscape:transform-center-x="0.55328227" inkscape:transform-center-y="0.56292633" sodipodi:arg1="2.0943951" sodipodi:arg2="3.1415927" sodipodi:cx="-31.500866" sodipodi:cy="1027.5585" sodipodi:r1="4.3126016" sodipodi:r2="2.1563008" sodipodi:sides="3" sodipodi:type="star" class="st0" d="
				M-29.4,872.3L-54,847.6l33.7-9L-29.4,872.3z"/>
			<path class="st0" d="M-12,830.4l-14.4,53.2l-38.9-39.1L-12,830.4z M-32.4,861l3.8-14.2l-14.2,3.8L-32.4,861z"/>
		</g>
	</g>
</g>
</svg>
