<?xml version="1.0" encoding="utf-8"?>
<!-- Generator: Adobe Illustrator 27.3.1, SVG Export Plug-In . SVG Version: 6.00 Build 0)  -->
<svg version="1.1"
	 id="svg2" xmlns:cc="http://creativecommons.org/ns#" xmlns:sodipodi="http://sodipodi.sourceforge.net/DTD/sodipodi-0.dtd" xmlns:svg="http://www.w3.org/2000/svg" xmlns:dc="http://purl.org/dc/elements/1.1/" xmlns:inkscape="http://www.inkscape.org/namespaces/inkscape" xmlns:rdf="http://www.w3.org/1999/02/22-rdf-syntax-ns#" sodipodi:docname="layout-rtl.svg"
	 xmlns="http://www.w3.org/2000/svg" xmlns:xlink="http://www.w3.org/1999/xlink" x="0px" y="0px" viewBox="0 0 250 250"
	 style="enable-background:new 0 0 250 250;" xml:space="preserve">
<style type="text/css">
	.st0{fill:#224458;}
</style>
<sodipodi:namedview  bordercolor="#666666" borderopacity="1.0" id="base" inkscape:current-layer="layer1" inkscape:cx="-2.4338283" inkscape:cy="20.761969" inkscape:document-units="px" inkscape:pageopacity="0.0" inkscape:pageshadow="2" inkscape:window-height="1123" inkscape:window-maximized="1" inkscape:window-width="1600" inkscape:window-x="0" inkscape:window-y="0" inkscape:zoom="11.2" pagecolor="#ffffff" showgrid="false" units="px">
	</sodipodi:namedview>
<g id="layer1" transform="translate(0,-1004.3622)" inkscape:groupmode="layer" inkscape:label="Layer 1">
	<g id="rect4138">
		<path class="st0" d="M85.4,1132.2H28v-57.4h57.4V1132.2z M40,1120.2h33.4v-33.4H40V1120.2z"/>
	</g>
	<g id="rect4138-3">
		<path class="st0" d="M153.7,1133H96.3v-57.4h57.4L153.7,1133L153.7,1133z M108.3,1121.1h33.4v-33.4h-33.4
			C108.3,1087.7,108.3,1121.1,108.3,1121.1z"/>
	</g>
	<g id="rect4138-6">
		<path class="st0" d="M222,1132.2h-57.4v-57.4H222V1132.2z M176.6,1120.2H210v-33.4h-33.4V1120.2z"/>
	</g>
	<g id="path4163">
		<polygon class="st0" points="228.7,1173.8 228.7,1190.6 70.3,1190.6 70.3,1210.2 21.3,1181.9 70.3,1153.6 70.3,1173.8 		"/>
	</g>
</g>
</svg>
