<svg xmlns:svg="http://www.w3.org/2000/svg" xmlns="http://www.w3.org/2000/svg" xmlns:xlink="http://www.w3.org/1999/xlink" version="1" x="0" y="0" viewBox="0 0 256 256" enable-background="new 0 0 256 256" xml:space="preserve" id="svg2"><metadata id="metadata100"/><defs id="defs98"><linearGradient id="linearGradient4460" gradientUnits="userSpaceOnUse" x1="128" y1="5.06" x2="128" y2="160"><stop offset="0.01" id="stop4462" style="fill-opacity:1;fill:url(#radialGradient4363);stop-color:#FFFFFF"/><stop offset="0.57" id="stop4464" style="fill-opacity:1;fill:url(#radialGradient4363);stop-color:#9CA8B2"/><stop offset="1" id="stop4466" style="fill-opacity:1;fill:url(#radialGradient4363);stop-color:#596D7F"/></linearGradient><linearGradient y2="108.62" x2="128" y1="244.53" x1="128" gradientUnits="userSpaceOnUse" id="SVGID_3_"><stop id="stop42" offset="0" stop-color="#F7931E"/><stop id="stop44" offset="0.53" stop-color="#FFBF00"/><stop id="stop46" offset="0.7" stop-color="#FFC200"/><stop id="stop48" offset="0.81" stop-color="#FFCB00"/><stop id="stop50" offset="0.91" stop-color="#FFDA00"/><stop id="stop52" offset="1" stop-color="#FFEF00"/><stop id="stop54" offset="1" stop-color="#FFF000"/></linearGradient><linearGradient y2="106.94" x2="128" y1="232.27" x1="128" gradientUnits="userSpaceOnUse" id="SVGID_4_"><stop id="stop59" offset="0" stop-color="#FBA90F"/><stop id="stop61" offset="0.53" stop-color="#FFBF00"/><stop id="stop63" offset="0.7" stop-color="#FFC200"/><stop id="stop65" offset="0.81" stop-color="#FFCB00"/><stop id="stop67" offset="0.91" stop-color="#FFDA00"/><stop id="stop69" offset="1" stop-color="#FFEF00"/><stop id="stop71" offset="1" stop-color="#FFF000"/></linearGradient><radialGradient xlink:href="#SVGID_1_" id="radialGradient4415" gradientUnits="userSpaceOnUse" gradientTransform="matrix(1.27,0,0,0.996,-34.6,0.333)" cx="128" cy="63.2" fx="128" fy="63.2" r="77"/><radialGradient xlink:href="#SVGID_1_" id="radialGradient4417" gradientUnits="userSpaceOnUse" gradientTransform="matrix(1.27,0,0,0.996,-34.6,0.333)" cx="128" cy="63.2" fx="128" fy="63.2" r="77"/><radialGradient xlink:href="#linearGradient4460" id="radialGradient4419" gradientUnits="userSpaceOnUse" gradientTransform="matrix(1.34,0,0,0.996,-43.8,0.333)" cx="128" cy="63.2" fx="128" fy="63.2" r="77"/></defs><g id="outline"><path d="M215.12 98.8V81.52c0-44.14-36.71-80.06-81.82-80.06h-10.6c-45.12 0-81.82 35.91-81.82 80.06V98.8C29.13 100.24 20 110.27 20 122.4v108.34c0 13.12 10.67 23.79 23.79 23.79h168.42c13.12 0 23.79-10.67 23.79-23.79V122.4C236 110.27 226.87 100.24 215.12 98.8zM87.95 81.52c0-18.56 15.59-33.65 34.75-33.65h10.6c19.16 0 34.75 15.1 34.75 33.65v17.09H87.95V81.52z" id="path5"/></g><g id="g12" fill="url(#radialGradient4419)"><g id="g14" fill="url(#radialGradient4417)"><linearGradient y2="160" x2="128" y1="5.06" x1="128" gradientUnits="userSpaceOnUse" id="SVGID_1_"><stop id="stop17" offset="0.01" style="fill-opacity:1;fill:url(#radialGradient4363);stop-color:#FFFFFF"/><stop id="stop19" offset="0.56" style="fill-opacity:1;fill:url(#radialGradient4363);stop-color:#9CA8B2"/><stop id="stop21" offset="1" style="fill-opacity:1;fill:url(#radialGradient4363);stop-color:#596D7F"/></linearGradient><path id="path23" d="M78 115 78 81.5C78 57.4 98 37.9 123 37.9l10 0c25 0 45 19.5 45 43.6l0 33.5 27 0 0-33.5c0-38.6-32-70-72-70l-10 0c-39.9 0-72.1 31.4-72.1 70l0 33.5 27.1 0z" fill="url(#radialGradient4415)"/></g></g><path id="path56" d="m226 231c0 7-6 14-14 14L43.8 245C36.2 245 30 238 30 231l0-109c0-7 6.2-13 13.8-13l168.2 0c8 0 14 6 14 13l0 109z" fill="url(#SVGID_3_)"/><path id="path73" d="m212 119-168.2 0c-2 0-3.6 1-3.6 3l0 109c0 2 1.6 3 3.6 3l168.2 0c2 0 4-1 4-3l0-109c0-2-2-3-4-3z" fill="url(#SVGID_4_)"/><g id="g75"><linearGradient y2="155" x2="128" y1="209" x1="128" gradientUnits="userSpaceOnUse" id="SVGID_5_"><stop id="stop78" offset="0" stop-color="#F7931E"/><stop id="stop80" offset="0.28" stop-color="#F7961D"/><stop id="stop82" offset="0.48" stop-color="#F89F1A"/><stop id="stop84" offset="0.64" stop-color="#F9AE15"/><stop id="stop86" offset="0.79" stop-color="#FBC30E"/><stop id="stop88" offset="0.93" stop-color="#FEDF06"/><stop id="stop90" offset="1" stop-color="#FFF000"/></linearGradient><path id="path92" d="m128 153c-10 0-18 8-18 18 0 5 3 11 8 14l0 24 20 0 0-24c5-3 8-9 8-14 0-10-8-18-18-18z" fill="url(#SVGID_5_)"/><path id="path94" d="m141 171c0-7-6-13-13-13-7 0-13 6-13 13 0 5 4 9 8 11l0 22 10 0 0-22c4-2 8-6 8-11z"/></g></svg>