<?xml version="1.0" encoding="utf-8"?>
<!-- Generator: Adobe Illustrator 27.9.0, SVG Export Plug-In . SVG Version: 6.00 Build 0)  -->
<svg version="1.1"
	 id="svg2" xmlns:svg="http://www.w3.org/2000/svg" xmlns:sodipodi="http://sodipodi.sourceforge.net/DTD/sodipodi-0.dtd" xmlns:cc="http://creativecommons.org/ns#" xmlns:rdf="http://www.w3.org/1999/02/22-rdf-syntax-ns#" xmlns:dc="http://purl.org/dc/elements/1.1/" xmlns:inkscape="http://www.inkscape.org/namespaces/inkscape"
	 xmlns="http://www.w3.org/2000/svg" xmlns:xlink="http://www.w3.org/1999/xlink" x="0px" y="0px" viewBox="0 0 256 256"
	 style="enable-background:new 0 0 256 256;" xml:space="preserve">
<style type="text/css">
	.st0{opacity:0.56;fill:#FFFFFF;}
</style>
<sodipodi:namedview  bordercolor="#666666" borderopacity="1" gridtolerance="10" guidetolerance="10" id="namedview5" inkscape:current-layer="svg2" inkscape:cx="25" inkscape:cy="25" inkscape:pageopacity="0" inkscape:pageshadow="2" inkscape:window-height="702" inkscape:window-maximized="1" inkscape:window-width="1366" inkscape:window-x="-4" inkscape:window-y="-4" inkscape:zoom="9.8" objecttolerance="10" pagecolor="#ffffff" showgrid="false">
	</sodipodi:namedview>
<path class="st0" d="M32,116c0,6.6,5.4,12,12,12s12-5.4,12-12c0-19.9,16.1-36,36-36h60v12c0,4.8,2.9,9.2,7.4,11.1s9.6,0.8,13.1-2.6
	l24-24c4.7-4.7,4.7-12.3,0-17l-24-24c-3.5-3.5-8.6-4.5-13.1-2.6S152,39.2,152,44v12H92C58.8,56,32,82.9,32,116z M224,140
	c0-6.6-5.4-12-12-12s-12,5.4-12,12c0,19.9-16.1,36-36,36h-60v-12c0-4.8-2.9-9.2-7.4-11.1s-9.6-0.8-13.1,2.6l-24,24
	c-4.7,4.7-4.7,12.3,0,17l24,24c3.4,3.5,8.6,4.5,13.1,2.6s7.4-6.2,7.4-11.1v-12h60C197.1,200,224,173.1,224,140z"/>
</svg>
