<?xml version="1.0" encoding="utf-8"?>
<!-- Generator: Adobe Illustrator 27.3.1, SVG Export Plug-In . SVG Version: 6.00 Build 0)  -->
<svg version="1.1" id="svg2" xmlns:svg="http://www.w3.org/2000/svg"
	 xmlns="http://www.w3.org/2000/svg" xmlns:xlink="http://www.w3.org/1999/xlink" x="0px" y="0px" viewBox="0 0 256 256"
	 style="enable-background:new 0 0 256 256;" xml:space="preserve">
<style type="text/css">
	.st0{fill:#224458;}
</style>
<g id="g10" transform="matrix(1.25,0,0,-1.25,-355.38125,563.72125)">
	<path id="path20" class="st0" d="M388.9,387.9h-14.6v-53.8h14.6V387.9z"/>
	<path id="path22" class="st0" d="M463.6,387.9h-14.6v-53.8h14.6V387.9z"/>
	<path id="path24" class="st0" d="M409.2,347h19.3v28h-34v12.9H438c2.8,0,5.1-2.3,5.1-5.1v-43.6c0-2.8-2.3-5.1-5.1-5.1h-43.5v33.5
		h14.6L409.2,347L409.2,347z"/>
	<path id="path26" class="st0" d="M363.3,387.9h-9.5h-44v-53.8h14.6V375h7.4v-40.9h14.6V375h7.4v-40.9h14.6v48.7
		C368.5,385.6,366.2,387.9,363.3,387.9"/>
	<path id="path28" class="st0" d="M463.6,328.6H309.8v-19.4h153.8V328.6z"/>
</g>
</svg>
