<svg xmlns:svg="http://www.w3.org/2000/svg" xmlns="http://www.w3.org/2000/svg" id="svg2" version="1.1" width="48" height="48" xml:space="preserve"><metadata id="metadata8"/><defs id="defs6"><clipPath clipPathUnits="userSpaceOnUse" id="clipPath16"><path d="M0 842 595 842 595 0 0 0 0 842z" id="path18"/></clipPath></defs><g id="g10" transform="matrix(1.25,0,0,-1.25,-355.38125,563.72125)"><path d="m304.02 438.27-3.54 0 0-13.01 3.54 0 0 13.01z" id="path20" fill="#000"/><path d="m322.09 438.27-3.54 0 0-13.01 3.54 0 0 13.01z" id="path22" fill="#000"/><path d="m308.94 428.38 4.67 0 0 6.76-8.21 0 0 3.13 10.51 0c0.68 0 1.24-0.56 1.24-1.24l0-10.54c0-0.68-0.55-1.24-1.24-1.24l-10.51 0 0 8.1 3.54 0 0-4.98z" id="path24" fill="#000"/><path d="m297.85 438.27-2.3 0-10.64 0 0-13.01 3.54 0 0 9.89 1.79 0 0-9.89 3.54 0 0 9.89 1.78 0 0-9.89 3.54 0 0 11.77c0 0.68-0.56 1.24-1.24 1.24" id="path26" fill="#000"/><path d="m322.09 423.93-37.18 0 0-4.68 37.18 0 0 4.68z" id="path28" fill="#000"/><path d="m287.77 442.09 2.31 0 0-2.45-0.77 0-0.11 0.57c-0.29-0.28-0.72-0.69-1.72-0.69-1.33 0-2.54 0.79-2.54 2.38 0 1.24 0.84 2.41 2.7 2.4 1.69 0 2.36-0.9 2.42-1.53l-1.15 0c0 0.18-0.39 0.75-1.21 0.75-0.82 0-1.59-0.47-1.59-1.63 0-1.24 0.82-1.56 1.61-1.56 0.25 0 1.1 0.08 1.34 1l-1.29 0 0 0.76z" id="path30" fill="#000"/><path d="m295.25 443.38-2.93 0 0-0.95 2.69 0 0-0.81-2.69 0 0-1.17 3.06 0 0-0.8-4.19 0 0 4.54 4.07 0 0-0.8z" id="path32" fill="#000"/><path d="m299.7 444.18 1.08 0 0-4.54-1.16 0-2.25 3.24-0.01 0 0-3.24-1.08 0 0 4.54 1.22 0 2.19-3.16 0.02 0 0 3.16z" id="path34" fill="#000"/><path d="m305.97 443.38-2.93 0 0-0.95 2.7 0 0-0.81-2.7 0 0-1.17 3.06 0 0-0.8-4.19 0 0 4.54 4.06 0 0-0.8z" id="path36" fill="#000"/><path d="m309.54 442.18c0.6 0 0.89 0.17 0.89 0.62 0 0.24-0.13 0.59-0.81 0.59l-1.44 0 0-1.21 1.35 0zm-2.49 2 2.79 0c1.47 0 1.74-0.89 1.74-1.28 0-0.5-0.31-0.93-0.85-1.08 0.46-0.16 0.7-0.3 0.7-1.15 0-0.67 0-0.83 0.25-0.91l0-0.12-1.28 0c-0.07 0.22-0.12 0.45-0.12 0.92 0 0.62-0.05 0.86-0.9 0.86l-1.19 0 0-1.78-1.13 0 0 4.54z" id="path38" fill="#000"/><path d="m314.11 441.36 1.41 0-0.68 1.8-0.02 0-0.71-1.8zm-0.69-1.72-1.22 0 1.97 4.54 1.33 0 1.95-4.54-1.26 0-0.35 0.94-2.04 0-0.38-0.94z" id="path40" fill="#000"/><path d="m319.35 440.46 2.75 0 0-0.82-3.9 0 0 4.54 1.15 0 0-3.71z" id="path42" fill="#000"/></g></svg>