<?xml version="1.0" encoding="utf-8"?>
<!-- Generator: Adobe Illustrator 27.3.1, SVG Export Plug-In . SVG Version: 6.00 Build 0)  -->
<svg version="1.1" id="Layer_4" xmlns="http://www.w3.org/2000/svg" xmlns:xlink="http://www.w3.org/1999/xlink" x="0px" y="0px"
	 viewBox="0 0 256 256" style="enable-background:new 0 0 256 256;" xml:space="preserve">
<style type="text/css">
	.st0{fill:#224458;}
	.st1{fill:#FFD42A;}
</style>
<g>
	<path class="st0" d="M174.8,229.4H81.2c-7.4,0-13.4-6-13.4-13.4v-9.1c0-7.4,6-13.4,13.4-13.4h93.6c7.4,0,13.4,6,13.4,13.4v9.1
		C188.2,223.4,182.2,229.4,174.8,229.4z"/>
	<path class="st0" d="M192.8,86.9c0,15.4,0,33.5,0,42.4c0,3.6-1.4,7-3.9,9.5l-11,11c-2.5,2.5-5.9,3.9-9.5,3.9H128H87.7
		c-3.6,0-7-1.4-9.5-3.9l-11-11c-2.5-2.5-3.9-5.9-3.9-9.5l0-42.4c0-17.3-26-18.3-26.9-1c0,0.5,0,0.9,0,1.4v63.5
		c0,19.8,16,35.8,35.8,35.8H128h55.8c19.8,0,35.8-16,35.8-35.8V87.3c0-0.5,0-0.9,0-1.4C218.8,68.7,192.8,69.7,192.8,86.9z"/>
	<circle class="st0" cx="128" cy="84.3" r="60.2"/>
	<circle class="st1" cx="128" cy="84.3" r="15"/>
	<circle class="st1" cx="163.8" cy="84.5" r="15"/>
	<circle class="st1" cx="92.2" cy="84.5" r="15"/>
	<circle class="st1" cx="145.9" cy="115.5" r="15"/>
	<circle class="st1" cx="110.1" cy="53.5" r="15"/>
	<circle class="st1" cx="145.9" cy="53.5" r="15"/>
	<circle class="st1" cx="110.1" cy="115.5" r="15"/>
</g>
</svg>
