<?xml version="1.0" encoding="utf-8"?>
<!-- Generator: Adobe Illustrator 27.9.0, SVG Export Plug-In . SVG Version: 6.00 Build 0)  -->
<svg version="1.1" id="Layer_1" xmlns="http://www.w3.org/2000/svg" xmlns:xlink="http://www.w3.org/1999/xlink" x="0px" y="0px"
	 viewBox="0 0 256 256" style="enable-background:new 0 0 256 256;" xml:space="preserve">
<style type="text/css">
	.st0{opacity:0.56;fill:#FFFFFF;}
</style>
<path class="st0" d="M122.8,163.9c-4.7,4.7-12.3,4.7-17,0l-27.4-27.4c-4.7-4.7-4.7-12.3,0-17s12.3-4.7,17,0l18.9,18.9L160.7,92
	c4.7-4.7,12.3-4.7,17,0s4.7,12.3,0,17L122.8,163.9z M32,59.4C32,44.3,44.3,32,59.4,32h137.1c15.1,0,27.4,12.3,27.4,27.4v137.1
	c0,15.1-12.3,27.4-27.4,27.4H59.4C44.3,224,32,211.7,32,196.6V59.4z M52.6,59.4v137.1c0,3.8,3.1,6.9,6.9,6.9h137.1
	c3.8,0,6.9-3.1,6.9-6.9V59.4c0-3.8-3.1-6.9-6.9-6.9H59.4C55.6,52.6,52.6,55.6,52.6,59.4z"/>
</svg>
