<svg xmlns="http://www.w3.org/2000/svg" width="48" height="48">
  <path d="M2.9 2.9v18.462h18.462V2.9H2.9zm2.637 2.637h13.188v13.188H5.537V5.537zm21.101 0H45.1v2.638H26.638zm0 23.738h10.55v2.638h-10.55zm0 10.55h10.55v2.638h-10.55zm0-23.739H45.1v2.638H26.638zM2.9 26.638V45.1h18.462V26.638H2.9zm2.637 2.637h13.188v13.188H5.537V29.275z"/>
  <path d="M6.868 13.385l2.505 2.738 8.04-6.991-.888-.988-6.977 6.144-1.632-1.731zm0 23.738l2.505 2.739 8.04-6.992-.888-.988-6.977 6.144-1.632-1.731z" fill-rule="evenodd" stroke="#4d4d4d"/>
</svg>
