<?xml version="1.0" encoding="utf-8"?>
<!-- Generator: Adobe Illustrator 27.9.0, SVG Export Plug-In . SVG Version: 6.00 Build 0)  -->
<svg version="1.1" id="Layer_2_00000012465045866614875780000007564693237118781363_"
	 xmlns="http://www.w3.org/2000/svg" xmlns:xlink="http://www.w3.org/1999/xlink" x="0px" y="0px" viewBox="0 0 256 256"
	 style="enable-background:new 0 0 256 256;" xml:space="preserve">
<style type="text/css">
	.st0{opacity:0.56;fill:#FFFFFF;}
</style>
<path class="st0" d="M106.7,64h42.7v21.3h-42.7V64z M101.3,42.7c-8.8,0-16,7.2-16,16v32c0,8.8,7.2,16,16,16h16v10.7H32
	c-5.9,0-10.7,4.8-10.7,10.7s4.8,10.7,10.7,10.7h32v10.7H48c-8.8,0-16,7.2-16,16v32c0,8.8,7.2,16,16,16h53.3c8.8,0,16-7.2,16-16v-32
	c0-8.8-7.2-16-16-16h-16v-10.7h85.3v10.7h-16c-8.8,0-16,7.2-16,16v32c0,8.8,7.2,16,16,16H208c8.8,0,16-7.2,16-16v-32
	c0-8.8-7.2-16-16-16h-16v-10.7h32c5.9,0,10.7-4.8,10.7-10.7c0-5.9-4.8-10.7-10.7-10.7h-85.3v-10.7h16c8.8,0,16-7.2,16-16v-32
	c0-8.8-7.2-16-16-16C154.7,42.7,101.3,42.7,101.3,42.7z M53.3,192v-21.3H96V192H53.3z M160,170.7h42.7V192H160V170.7z"/>
</svg>
