<?xml version="1.0" encoding="UTF-8"?>
<svg id="Layer_1" data-name="Layer 1" xmlns="http://www.w3.org/2000/svg" version="1.1" viewBox="0 0 256 256">
  <defs>
    <style>
      .cls-1 {
        fill: #fff;
        stroke-width: 0px;
      }

      .cls-2 {
        isolation: isolate;
        opacity: .6;
      }
    </style>
  </defs>
  <g class="cls-2">
    <path class="cls-1" d="M66.1,172.8c-24.7,0-44.8-20.1-44.8-44.7s4.7-23.2,13.1-31.7c8.5-8.4,19.7-13.1,31.6-13.1h0c24.7,0,44.7,20.1,44.7,44.7s-4.7,23.2-13.1,31.6c-8.3,8.5-19.6,13.2-31.5,13.2h0ZM66.1,90.9c-20.5,0-37.1,16.7-37.1,37.1s16.7,37.2,37.1,37.2h0c9.9,0,19.3-3.9,26.3-10.9s10.9-16.3,10.9-26.3c0-20.5-16.8-37.1-37.2-37.1h0Z"/>
    <path class="cls-1" d="M114.4,84h8.4v79.1h28.1l-3.3,8h-33.2v-87.1"/>
    <path class="cls-1" d="M192.9,102.8l-13.5,31.7h31.2l-13.5-31.7M196.2,84.6l38.5,86.5h-8.8l-11.6-28.8h-38.4l-12.1,28.8h-8l37.2-86.5h3.2Z"/>
    <circle class="cls-1" cx="43.7" cy="125.4" r="3.4"/>
    <circle class="cls-1" cx="49.6" cy="142.4" r="3.4"/>
    <circle class="cls-1" cx="65.1" cy="150.3" r="3.4"/>
    <circle class="cls-1" cx="81.3" cy="142.6" r="3.4"/>
    <circle class="cls-1" cx="86.5" cy="125.4" r="3.4"/>
  </g>
</svg>