<?xml version="1.0" encoding="utf-8"?>
<!-- Generator: Adobe Illustrator 27.3.1, SVG Export Plug-In . SVG Version: 6.00 Build 0)  -->
<svg version="1.1" id="Layer_2_00000091009038276047905990000006009805743298793114_"
	 xmlns="http://www.w3.org/2000/svg" xmlns:xlink="http://www.w3.org/1999/xlink" x="0px" y="0px" viewBox="0 0 256 256"
	 style="enable-background:new 0 0 256 256;" xml:space="preserve">
<style type="text/css">
	.st0{fill:#AB9DF2;}
</style>
<path class="st0" d="M42.6,67c0-20.2,16.4-36.6,36.6-36.6h36.6v72.7c0,5.1,5.9,8,9.9,4.8l20.6-16.5l20.6,16.5c4,3.2,9.9,0.3,9.9-4.8
	V30.4H189h12.2c6.7,0,12.2,5.5,12.2,12.2v122c0,6.7-5.5,12.2-12.2,12.2v24.4c6.7,0,12.2,5.5,12.2,12.2s-5.5,12.2-12.2,12.2H189H79.2
	c-20.2,0-36.6-16.4-36.6-36.6V67z M67,189c0,6.7,5.5,12.2,12.2,12.2h97.6v-24.4H79.2C72.5,176.8,67,182.3,67,189z"/>
</svg>
