<?xml version="1.0" encoding="utf-8"?>
<!-- Generator: Adobe Illustrator 27.3.1, SVG Export Plug-In . SVG Version: 6.00 Build 0)  -->
<svg version="1.1" id="Layer_2" xmlns="http://www.w3.org/2000/svg" xmlns:xlink="http://www.w3.org/1999/xlink" x="0px" y="0px"
	 viewBox="0 0 256 256" style="enable-background:new 0 0 256 256;" xml:space="preserve">
<style type="text/css">
	.st0{fill:#224458;}
</style>
<path class="st0" d="M221.1,36.2c-4.1-4.8-11.2-5.5-16.2-1.8L126.6,92H181l39.5-39.5C224.9,48.1,225.2,40.9,221.1,36.2L221.1,36.2z
	 M44,104c-6.6,0-12,5.4-12,12c0,6.6,5.4,12,12,12c0,30.9,16.3,55.4,46.5,66.1c-4.2,5.2-7.3,11.4-9,18C79.9,218.5,85.4,224,92,224h72
	c6.6,0,12.1-5.5,10.5-11.9c-1.7-6.7-4.8-12.8-9-18c30.1-10.7,46.4-35.1,46.4-66.1c6.6,0,12-5.4,12-12c0-6.6-5.4-12-12-12H44z"/>
</svg>
