<?xml version="1.0" encoding="utf-8"?>
<!-- Generator: Adobe Illustrator 27.3.1, SVG Export Plug-In . SVG Version: 6.00 Build 0)  -->
<svg version="1.1" id="svg2" xmlns:svg="http://www.w3.org/2000/svg"
	 xmlns="http://www.w3.org/2000/svg" xmlns:xlink="http://www.w3.org/1999/xlink" x="0px" y="0px" viewBox="0 0 256 256"
	 style="enable-background:new 0 0 256 256;" xml:space="preserve">
<style type="text/css">
	.st0{fill:#78DCE8;}
</style>
<path class="st0" d="M190.8,177.4l40-40c5.2-5.2,5.2-13.7,0-18.9l-40-40c-5.2-5.2-13.7-5.2-18.9,0s-5.2,13.7,0,18.9l17.2,17.2H66.9
	l17.2-17.2c5.2-5.2,5.2-13.7,0-18.9s-13.7-5.2-18.9,0l-40,40c-5.2,5.2-5.2,13.7,0,18.9l40,40c5.2,5.2,13.7,5.2,18.9,0
	s5.2-13.7,0-18.9l-17.2-17.2h122.3L172,158.5c-5.2,5.2-5.2,13.7,0,18.9S185.6,182.7,190.8,177.4L190.8,177.4z"/>
</svg>
