<?xml version="1.0" encoding="utf-8"?>
<!-- Generator: Adobe Illustrator 27.3.1, SVG Export Plug-In . SVG Version: 6.00 Build 0)  -->
<svg version="1.1" id="svg1307" xmlns:svg="http://www.w3.org/2000/svg"
	 xmlns="http://www.w3.org/2000/svg" xmlns:xlink="http://www.w3.org/1999/xlink" x="0px" y="0px" viewBox="0 0 256 256"
	 style="enable-background:new 0 0 256 256;" xml:space="preserve">
<style type="text/css">
	.st0{fill:#224458;}
</style>
<path class="st0" d="M68.2,25.5c-14.1,0-25.6,11.5-25.6,25.6v153.7c0,14.1,11.5,25.6,25.6,25.6h17.1c14.1,0,25.6-11.5,25.6-25.6
	V51.1c0-14.1-11.5-25.6-25.6-25.6H68.2z M170.7,25.5c-14.1,0-25.6,11.5-25.6,25.6v153.7c0,14.1,11.5,25.6,25.6,25.6h17.1
	c14.1,0,25.6-11.5,25.6-25.6V51.1c0-14.1-11.5-25.6-25.6-25.6H170.7z"/>
</svg>
