<?xml version="1.0" encoding="utf-8"?>
<!-- Generator: Adobe Illustrator 27.3.1, SVG Export Plug-In . SVG Version: 6.00 Build 0)  -->
<svg version="1.1" id="Layer_2" xmlns="http://www.w3.org/2000/svg" xmlns:xlink="http://www.w3.org/1999/xlink" x="0px" y="0px"
	 viewBox="0 0 256 256" style="enable-background:new 0 0 256 256;" xml:space="preserve">
<style type="text/css">
	.st0{fill:#224458;}
</style>
<path class="st0" d="M128,21.8c7.3,0,13.3,5.9,13.3,13.3v14.4c33.3,5.6,59.7,31.9,65.2,65.2h14.4c7.3,0,13.3,5.9,13.3,13.3
	c0,7.3-5.9,13.3-13.3,13.3h-14.4c-5.6,33.3-31.9,59.7-65.2,65.2v14.4c0,7.3-5.9,13.3-13.3,13.3c-7.3,0-13.3-5.9-13.3-13.3v-14.4
	c-33.3-5.6-59.7-31.9-65.2-65.2H35.1c-7.3,0-13.3-5.9-13.3-13.3c0-7.3,5.9-13.3,13.3-13.3h14.4c5.6-33.3,31.9-59.7,65.2-65.2V35.1
	C114.7,27.8,120.7,21.8,128,21.8z M74.9,128c0,29.3,23.8,53.1,53.1,53.1s53.1-23.8,53.1-53.1S157.3,74.9,128,74.9
	S74.9,98.7,74.9,128z M128,94.8c18.3,0,33.2,14.9,33.2,33.2s-14.9,33.2-33.2,33.2S94.8,146.3,94.8,128S109.7,94.8,128,94.8z"/>
</svg>
