<?xml version="1.0" encoding="utf-8"?>
<!-- Generator: Adobe Illustrator 27.9.0, SVG Export Plug-In . SVG Version: 6.00 Build 0)  -->
<svg version="1.1" id="Layer_2_00000168104786892121006280000007045816515405475984_"
	 xmlns="http://www.w3.org/2000/svg" xmlns:xlink="http://www.w3.org/1999/xlink" x="0px" y="0px" viewBox="0 0 256 256"
	 style="enable-background:new 0 0 256 256;" xml:space="preserve">
<style type="text/css">
	.st0{opacity:0.56;}
	.st1{fill:#FFFFFF;}
</style>
<g class="st0">
	<path class="st1" d="M220.9,114.7h-14.4c-5.5-33.3-31.9-59.6-65.2-65.2V35.1c0-7.4-6-13.3-13.3-13.3s-13.3,6-13.3,13.3v14.4
		C81.4,55,55.1,81.4,49.5,114.7H35.1c-7.4,0-13.3,6-13.3,13.3c0,7.4,6,13.3,13.3,13.3h14.4c5.5,33.3,31.9,59.6,65.2,65.2v14.4
		c0,7.4,6,13.3,13.3,13.3c7.4,0,13.3-6,13.3-13.3v-14.4c33.3-5.5,59.6-31.9,65.2-65.2h14.4c7.4,0,13.3-6,13.3-13.3
		C234.2,120.6,228.2,114.7,220.9,114.7z M128,181.1c-29.3,0-53.1-23.8-53.1-53.1S98.7,74.9,128,74.9s53.1,23.8,53.1,53.1
		S157.3,181.1,128,181.1z"/>
	<circle class="st1" cx="128" cy="128" r="33.2"/>
</g>
</svg>
