<?xml version="1.0" encoding="utf-8"?>
<!-- Generator: Adobe Illustrator 27.9.0, SVG Export Plug-In . SVG Version: 6.00 Build 0)  -->
<svg version="1.1" id="Layer_1" xmlns="http://www.w3.org/2000/svg" xmlns:xlink="http://www.w3.org/1999/xlink" x="0px" y="0px"
	 viewBox="0 0 256 256" style="enable-background:new 0 0 256 256;" xml:space="preserve">
<style type="text/css">
	.st0{opacity:0.56;fill:#FFFFFF;}
</style>
<path class="st0" d="M186.7,42.6H69.3c-1.3,0-2.6,0.7-3.3,1.8L32.6,93.5c-1,1.5-0.9,3.4,0.2,4.7L124.9,212c1.6,2,4.6,2,6.2,0
	l92.1-113.7c1.1-1.4,1.2-3.3,0.2-4.7l-33.3-49.1C189.3,43.2,188.1,42.6,186.7,42.6z M180.3,58.6l21.1,32h-22.8l-17.3-32H180.3
	L180.3,58.6z M112.9,58.6h30.3l17.3,32H95.6L112.9,58.6z M75.7,58.6h19l-17.3,32H54.6L75.7,58.6z M61.4,106.6h17.2l22.8,53.4
	L61.4,106.6z M95.7,106.6h64.6L128,187.8L95.7,106.6L95.7,106.6z M154.7,160l22.8-53.4h17.2L154.7,160z"/>
</svg>
