<?xml version="1.0" encoding="utf-8"?>
<!-- Generator: Adobe Illustrator 27.3.1, SVG Export Plug-In . SVG Version: 6.00 Build 0)  -->
<svg version="1.1" id="Layer_1" xmlns="http://www.w3.org/2000/svg" xmlns:xlink="http://www.w3.org/1999/xlink" x="0px" y="0px"
	 viewBox="0 0 512 512" style="enable-background:new 0 0 512 512;" xml:space="preserve">
<style type="text/css">
	.st0{fill:#224458;}
	.st1{fill:#FFD42A;}
	.st2{fill:#FFFFFF;}
</style>
<g id="Q">
	<path class="st0" d="M474,390.4c24.3-39.3,38.3-85.6,38.1-135.2C511.7,113.7,396.7-0.6,255.2-0.2S-0.6,115.2-0.2,256.7
		c0.4,141.4,115.4,255.8,256.9,255.4c48.8-0.1,94.4-13.9,133.1-37.7l20.3,20.3c23.1,23.1,60.4,23.2,83.7,0.4l0,0
		c23.6-23.1,23.8-61.1,0.4-84.5L474,390.4z"/>
</g>
<g id="L">
	<path class="st1" d="M470.2,496.6l-14.4-2.8c-1.2-0.2-1.7-1.7-0.8-2.6l35.7-35.7c0.9-0.9,2.4-0.4,2.6,0.8l2.8,14.4
		c0.1,0.5-0.1,1-0.4,1.4l-24,24C471.3,496.6,470.7,496.7,470.2,496.6z"/>
	<path class="st1" d="M455.8,397.2l-59.2,59.1c-3,3-7.8,3-10.8,0l0,0c-3-3-3-7.8,0-10.8l59.1-59.1c3-3,7.8-3,10.8,0l0,0
		C458.8,389.4,458.8,394.2,455.8,397.2z"/>
	<path class="st1" d="M494.3,435.7l-59.1,59.1c-3,3-7.8,3-10.8,0l0,0c-3-3-3-7.8,0-10.8l59.1-59.1c3-3,7.8-3,10.8,0l0,0
		C497.3,427.9,497.3,432.8,494.3,435.7z"/>
	<path class="st1" d="M475.1,416.4L416,475.5c-3,3-7.8,3-10.8,0l0,0c-3-3-3-7.8,0-10.8l59.1-59.1c3-3,7.8-3,10.8,0l0,0
		C478,408.6,478,413.5,475.1,416.4z"/>
</g>
<g id="C">
	<path id="path102" class="st1" d="M342.1,423.1c-11.1-11.1-27.4-15.3-42.5-11c-17.6,5.1-36.3,7.2-55.4,6.1
		c-85.1-5-152.5-75.9-153.6-161.1c-1.1-90.7,72.4-165.2,163-165.5c90.1-0.3,163.6,72.9,163.9,163c0,14.7-1.8,29-5.5,42.8
		c-4,15.1,0.5,31.1,11.5,42.1l27.3,27.1c1.6,1.5,4.2,1.2,5.2-0.7c0.9-1.6,1.8-3.3,2.6-4.9c16.9-32.7,25.8-69.5,25.7-106.5
		c-0.1-31.1-6.3-61.2-18.4-89.6c-11.7-27.4-28.3-52-49.5-73.1s-45.8-37.6-73.3-49.1c-28.4-11.9-58.6-18-89.7-17.9
		s-61.2,6.3-89.6,18.4c-27.4,11.7-52,28.3-73.1,49.5S53.1,138.6,41.6,166c-11.9,28.4-18,58.6-17.9,89.7s6.3,61.2,18.4,89.6
		c11.7,27.4,28.3,52,49.5,73.1s45.9,37.6,73.3,49.1c28.4,11.9,58.6,18,89.7,17.9c40-0.1,79.1-10.6,113.6-30.3
		c1.9-1.1,2.2-3.7,0.7-5.2L342.1,423.1z"/>
</g>
<g id="Plus">
	<polygon id="polygon100" class="st2" points="230.3,326.3 280.2,326.3 280.2,376.3 329.7,376.3 329.7,326.3 379.6,326.3 
		379.6,276.9 329.7,276.9 329.7,227 280.2,227 280.2,276.9 230.3,276.9 	"/>
</g>
</svg>
