<?xml version="1.0" encoding="utf-8"?>
<!-- Generator: Adobe Illustrator 27.3.1, SVG Export Plug-In . SVG Version: 6.00 Build 0)  -->
<svg version="1.1" id="svg2" xmlns:svg="http://www.w3.org/2000/svg"
	 xmlns="http://www.w3.org/2000/svg" xmlns:xlink="http://www.w3.org/1999/xlink" x="0px" y="0px" viewBox="0 0 256 256"
	 style="enable-background:new 0 0 256 256;" xml:space="preserve">
<style type="text/css">
	.st0{fill:#364E5E;}
	.st1{fill-rule:evenodd;clip-rule:evenodd;fill:#FFFFFF;stroke:#000000;stroke-width:2.5309;stroke-miterlimit:10;}
	.st2{fill:none;stroke:#000000;stroke-width:2.4137;stroke-miterlimit:10;}
	.st3{fill:#FFD42A;}
</style>
<g>
	<ellipse class="st0" cx="220.2" cy="199.7" rx="29.4" ry="29.4"/>
	<circle class="st0" cx="128" cy="128" r="123.5"/>
	<path class="st1" d="M179.4,147.8"/>
	<path class="st2" d="M158.4,179.8"/>
	<polygon class="st3" points="186.8,127.7 159.6,127.7 159.6,100.4 132.6,100.4 132.6,127.7 105.4,127.7 105.4,154.6 132.6,154.6 
		132.6,181.9 159.6,181.9 159.6,154.6 186.8,154.6 	"/>
	<path class="st3" d="M179.6,202.6c-6-4.6-14-5.7-21-2.7c-8.1,3.5-16.9,5.7-26.1,6.3c-41,2.7-77.5-27.1-83.2-67.8
		c-6-43.3,24.7-83.4,68-89c43.1-5.6,82.7,25,88.2,68.1c0.9,7,0.9,14,0,20.8c-1,7.4,2.1,14.8,8,19.4l14.7,11.3
		c0.8,0.6,2.1,0.3,2.4-0.7c0.3-0.8,0.7-1.7,1-2.5c6.1-16.6,8.2-34.8,5.9-52.5c-1.9-14.9-6.7-28.9-14.2-41.8
		c-7.2-12.4-16.7-23.2-28.1-32c-11.4-8.8-24.2-15.2-38-19.1c-14.3-4-29.1-5.1-44-3.1S84.3,24,71.4,31.5c-12.4,7.2-23.2,16.7-32,28.1
		s-15.2,24.2-19.1,38c-4,14.3-5.1,29.1-3.1,44s6.7,28.9,14.2,41.8c7.2,12.4,16.7,23.2,28.1,32s24.2,15.2,38,19.1
		c14.3,4,29.1,5.1,44,3.1c19.1-2.5,37.2-9.8,52.5-21.3c0.8-0.6,0.8-1.9,0-2.5L179.6,202.6z"/>
	<path class="st3" d="M217.5,170.3l-25.1,32.5c-1.1,1.4-3.2,1.7-4.6,0.6l-0.6-0.5c-1.4-1.1-1.7-3.2-0.6-4.6l25.1-32.5
		c1.1-1.4,3.2-1.7,4.6-0.6l0.6,0.5C218.3,166.8,218.6,168.9,217.5,170.3z"/>
	<path class="st3" d="M227.9,178.4l-25.1,32.5c-1.1,1.4-3.2,1.7-4.6,0.6l-0.6-0.5c-1.4-1.1-1.7-3.2-0.6-4.6l25.1-32.5
		c1.1-1.4,3.2-1.7,4.6-0.6l0.6,0.5C228.7,174.9,229,177,227.9,178.4z"/>
	<path class="st3" d="M238.3,186.4l-25.1,32.5c-1.1,1.4-3.2,1.7-4.6,0.6L208,219c-1.4-1.1-1.7-3.2-0.6-4.6l25.1-32.5
		c1.1-1.4,3.2-1.7,4.6-0.6l0.6,0.5C239.1,182.9,239.4,185,238.3,186.4z"/>
	<polygon class="st3" points="237.5,194.9 221.2,216.1 229.9,216.7 240.3,203.1 	"/>
</g>
</svg>
