<svg xmlns:svg="http://www.w3.org/2000/svg" xmlns="http://www.w3.org/2000/svg" version="1.1" x="0" y="0" width="48" height="48" id="svg2"><metadata id="metadata39"/><defs id="defs4"/><path d="m41.07 10.77c1.37 0.82 3.02 2.75 3.02 4.12L26.42 45.5c-0.73 0.45-2.32 1.36-4.57 0.58L3.99 15.98c-0.27-0.82 0-4.39 2.75-5.49L41.07 10.77Z" id="path3590" style="fill:#404040;stroke-linecap:round;stroke-linejoin:round;stroke-width:0.22;stroke:#404040"/><path id="path3594" d="M6.08 13.74C4.72 12.96 4.72 11.67 6.08 10.89L21.17 2.19c1.36-0.78 3.59-0.78 4.95 0l15.09 8.69c1.36 0.78 1.36 2.07 0 2.85l-15.09 8.69c-1.36 0.78-3.59 0.78-4.95 0L6.08 13.74Z" style="fill:#fff;stroke-width:0.67;stroke:#000"/><circle id="circle3602" r="2.4" cy="-1.31" cx="25.98" transform="matrix(0.86650227,0.49917313,-0.86650227,0.49917313,0,0)" style="fill:#000;stroke-width:0.21;stroke:#000"/><path id="path3608" d="m24 44.47c0 1.57-1.11 2.21-2.47 1.43L6.46 37.17C5.1 36.39 3.98 34.45 3.98 32.88L3.96 15.47c0-1.57 1.11-2.21 2.47-1.43l15.07 8.72c1.36 0.79 2.48 2.72 2.48 4.29l0.02 17.42z" style="fill:#fff;stroke-width:0.67;stroke:#000"/><ellipse id="circle3610" cy="22.92" cx="-28.68" transform="matrix(-9.5444094e-4,-0.99999954,0.86554776,0.50082639,0,0)" rx="2.4" ry="2.4" style="fill:#000;stroke-width:0.21;stroke:#000"/><ellipse id="circle3614" cy="9.34" cx="-15.1" transform="matrix(-9.5444094e-4,-0.99999954,0.86554776,0.50082639,0,0)" rx="2.4" ry="2.4" style="fill:#000;stroke-width:0.21;stroke:#000"/><path id="path3622" d="m41.59 13.58c1.36-0.79 2.47-0.15 2.47 1.43l-0.02 17.42c0 1.57-1.12 3.5-2.48 4.29l-15.07 8.72c-1.36 0.79-2.47 0.15-2.47-1.43l0.02-17.42c0-1.57 1.12-3.5 2.48-4.29l15.07-8.72z" style="fill:#fff;stroke-width:0.67;stroke:#000"/><ellipse id="circle3624" cy="-42.44" cx="-46.17" transform="matrix(-0.86554776,0.50082639,9.5444094e-4,-0.99999954,0,0)" rx="2.4" ry="2.4" style="fill:#000;stroke-width:0.21;stroke:#000"/><ellipse id="circle3628" cy="-56.02" cx="-32.59" transform="matrix(-0.86554776,0.50082639,9.5444094e-4,-0.99999954,0,0)" rx="2.4" ry="2.4" style="fill:#000;stroke-width:0.21;stroke:#000"/><ellipse id="circle3630" cy="-49.23" cx="-39.38" transform="matrix(-0.86554776,0.50082639,9.5444094e-4,-0.99999954,0,0)" rx="2.4" ry="2.4" style="fill:#000;stroke-width:0.21;stroke:#000"/></svg>