<?xml version="1.0" encoding="utf-8"?>
<!-- Generator: Adobe Illustrator 27.9.0, SVG Export Plug-In . SVG Version: 6.00 Build 0)  -->
<svg version="1.1" id="svg7854" xmlns:svg="http://www.w3.org/2000/svg"
	 xmlns="http://www.w3.org/2000/svg" xmlns:xlink="http://www.w3.org/1999/xlink" x="0px" y="0px" viewBox="0 0 256 256"
	 style="enable-background:new 0 0 256 256;" xml:space="preserve">
<style type="text/css">
	.st0{fill:#42A5F5;}
</style>
<path class="st0" d="M183.4,45c4.5-1.9,9.6-0.8,13.1,2.6l24,24c2.2,2.2,3.5,5.3,3.5,8.5s-1.3,6.2-3.5,8.5l-24,24
	c-3.4,3.4-8.6,4.5-13.1,2.6s-7.4-6.2-7.4-11.1V92h-12c-3.8,0-7.3,1.8-9.6,4.8L138.5,118l-15-20l11.7-15.6C142,73.4,152.6,68,164,68
	h12V56C175.9,51.2,178.9,46.8,183.4,45z M93.5,138l15,20l-11.7,15.6C90,182.6,79.3,188,68,188H44c-6.6,0-12-5.4-12-12s5.4-12,12-12
	h24c3.8,0,7.3-1.8,9.6-4.8L93.5,138z M196.4,208.5c-3.4,3.4-8.6,4.5-13.1,2.6s-7.4-6.2-7.4-11.1v-12h-12c-11.3,0-22-5.3-28.8-14.4
	L77.6,96.8c-2.2-3-5.8-4.8-9.6-4.8H44c-6.6,0-12-5.4-12-12s5.4-12,12-12h24c11.3,0,22,5.3,28.8,14.4l57.6,76.7
	c2.2,3,5.8,4.8,9.6,4.8h12v-12c0-4.8,2.9-9.2,7.4-11.1c4.5-1.9,9.6-0.8,13.1,2.6l24,24c2.2,2.2,3.5,5.3,3.5,8.5s-1.3,6.2-3.5,8.5
	L196.4,208.5L196.4,208.5z"/>
</svg>
