<svg xmlns:svg="http://www.w3.org/2000/svg" xmlns="http://www.w3.org/2000/svg" id="svg2405" height="48" width="48" version="1.1"><metadata id="metadata19"/><defs id="defs2407"><linearGradient id="linearGradient2181" y2="32.85" gradientUnits="userSpaceOnUse" x2="16.15" gradientTransform="matrix(1.0318,-1.0287,1.0318,1.0287,-26.553,23.964)" y1="17.13" x1="31.87"><stop id="stop7918" offset="0" stop-color="#fff"/><stop id="stop7920" offset="1" style="stop-color:#fff;stop-opacity:0.34"/></linearGradient><linearGradient id="linearGradient2179" y2="46.42" gradientUnits="userSpaceOnUse" x2="34.16" gradientTransform="matrix(1.0318,-1.0287,1.0318,1.0287,-59.146,28.538)" y1="30.7" x1="49.88"><stop id="stop1324" offset="0" stop-color="#b4b4b4"/><stop id="stop1326" offset="1" stop-color="#505050"/></linearGradient></defs><path d="M41.89 35.01 31.5 24.99 41.5 14.5 34.29 8 24 18 13.5 8 6 14.74 16.5 24.95 6 35 13.5 42 23.99 31.5 34.5 42 41.89 35.01Z" id="text1314" style="fill:#555753;stroke-linejoin:round;stroke-width:0.98;stroke:#4d4d4d"/><path d="M40.5 35 30 25 40 14.5 34.29 9.54 24 19.5 13.5 9.5 7.5 15 18 24.95 7.5 35 13.5 40.5 24 30 34.5 40.5 40.5 35Z" id="path7076" style="fill:url(#linearGradient2179);opacity:0.41;stroke-linejoin:round;stroke-width:0.98;stroke:url(#linearGradient2181)"/></svg>