<svg xmlns="http://www.w3.org/2000/svg" width="48" height="48">
  <g fill-rule="evenodd" stroke="#000" stroke-width=".058">
    <path d="M14.396 11.446L9.21 22.462 5.92 26.727l-4.283-.172.868-3.97 5.42-10.15z" fill="#4d4d4d"/>
    <path d="M14.396 11.446l31.966 20.43-4.137 9.985-3.269 3.438-15.618-8.615 3.537-3.745 1.2-2.414-12.826-7.367-1.075 2.046-.745.778-2.896 3.315-4.612-2.57 3.288-4.265z" fill="#333"/>
    <path d="M1.638 26.555l4.799 2.537 4.096.205-4.612-2.57z" fill="#999"/>
    <path d="M13.429 25.981l7.033 4.134-1.365 2.006-.33 4.01 4.57.553 3.538-3.745 1.2-2.415-12.826-7.367-1.075 2.047z" fill="#1a1a1a"/>
    <path d="M18.766 36.132l14.866 8.143 5.324 1.024-15.618-8.615z" fill="#999"/>
  </g>
  <g fill-rule="evenodd">
    <path d="M13.698 25.552l-2.872 3.416.619.317 4.307-.366-2.778-1.484z" fill="#1a1a1a"/>
    <path d="M20.649 30.054c-1.413-.324-4.707-1.085-6.951-1.269-1.908-.156-5.763 1.291-3.89 1.903 1.354.442 4.298.891 6.041 1.105 3.706.455 5.784-1.514 4.8-1.74z" fill="#f9f9f9" stroke="#bebebe" stroke-width=".202"/>
    <path d="M19.925 14.972l3.103 1.924.248-11.583 5.254-1.269-.662 24.148 3.434.204.62-25.211-3.764-.491-8.027 1.964z" fill="#1a1a1a" stroke="#000" stroke-width=".058"/>
    <path d="M14.38 24.799l2.524 1.367-1.152 2.753-2.778-1.484.724-1.883.393-.287z" fill="#666"/>
  </g>
</svg>
