<?xml version="1.0" encoding="UTF-8" standalone="no"?>
<!-- Created with Inkscape (http://www.inkscape.org/) -->

<svg
   xmlns:dc="http://purl.org/dc/elements/1.1/"
   xmlns:cc="http://creativecommons.org/ns#"
   xmlns:rdf="http://www.w3.org/1999/02/22-rdf-syntax-ns#"
   xmlns:svg="http://www.w3.org/2000/svg"
   xmlns="http://www.w3.org/2000/svg"
   xmlns:xlink="http://www.w3.org/1999/xlink"
   xmlns:sodipodi="http://sodipodi.sourceforge.net/DTD/sodipodi-0.dtd"
   xmlns:inkscape="http://www.inkscape.org/namespaces/inkscape"
   version="1.1"
   width="128"
   height="128"
   viewBox="0 0 128 128"
   id="Layer_1"
   xml:space="preserve"
   inkscape:version="0.48.4 r9939"
   sodipodi:docname="scene.svg"><metadata
     id="metadata65"><rdf:RDF><cc:Work
         rdf:about=""><dc:format>image/svg+xml</dc:format><dc:type
           rdf:resource="http://purl.org/dc/dcmitype/StillImage" /></cc:Work></rdf:RDF></metadata><sodipodi:namedview
     pagecolor="#ffffff"
     bordercolor="#666666"
     borderopacity="1"
     objecttolerance="10"
     gridtolerance="10"
     guidetolerance="10"
     inkscape:pageopacity="0"
     inkscape:pageshadow="2"
     inkscape:window-width="1366"
     inkscape:window-height="700"
     id="namedview63"
     showgrid="false"
     inkscape:zoom="1.84375"
     inkscape:cx="-28.373366"
     inkscape:cy="57.074473"
     inkscape:window-x="-4"
     inkscape:window-y="-4"
     inkscape:window-maximized="1"
     inkscape:current-layer="Layer_1" /><defs
     id="defs107"><linearGradient
       x1="5"
       y1="52.5"
       x2="64"
       y2="52.5"
       id="linearGradient2935"
       xlink:href="#SVGID_2_"
       gradientUnits="userSpaceOnUse" /><linearGradient
       x1="34.700699"
       y1="14.5"
       x2="34.700699"
       y2="53.512699"
       id="linearGradient2937"
       xlink:href="#SVGID_1_"
       gradientUnits="userSpaceOnUse" /><linearGradient
       x1="64"
       y1="51.959999"
       x2="123.5"
       y2="51.959999"
       id="linearGradient2939"
       xlink:href="#SVGID_6_"
       gradientUnits="userSpaceOnUse" /><linearGradient
       x1="93.458"
       y1="14.5"
       x2="93.458"
       y2="53.494099"
       id="linearGradient2941"
       xlink:href="#SVGID_5_"
       gradientUnits="userSpaceOnUse" /><linearGradient
       x1="34.700699"
       y1="14.5"
       x2="34.700699"
       y2="53.512699"
       id="SVGID_1_"
       gradientUnits="userSpaceOnUse"><stop
         id="stop16"
         style="stop-color:#dea4a5;stop-opacity:1"
         offset="0" /><stop
         id="stop18"
         style="stop-color:#ec7346;stop-opacity:1"
         offset="1" /></linearGradient><linearGradient
       x1="5"
       y1="52.5"
       x2="64"
       y2="52.5"
       id="SVGID_2_"
       gradientUnits="userSpaceOnUse"><stop
         id="stop23"
         style="stop-color:#d83600;stop-opacity:1"
         offset="0" /><stop
         id="stop25"
         style="stop-color:#f54c00;stop-opacity:1"
         offset="1" /></linearGradient><linearGradient
       x1="93.458"
       y1="14.5"
       x2="93.458"
       y2="53.494099"
       id="SVGID_5_"
       gradientUnits="userSpaceOnUse"><stop
         id="stop58"
         style="stop-color:#8fb4ec;stop-opacity:1"
         offset="0" /><stop
         id="stop60"
         style="stop-color:#51c8ff;stop-opacity:1"
         offset="1" /></linearGradient><linearGradient
       x1="64"
       y1="51.959999"
       x2="123.5"
       y2="51.959999"
       id="SVGID_6_"
       gradientUnits="userSpaceOnUse"><stop
         id="stop65"
         style="stop-color:#2bc6ff;stop-opacity:1"
         offset="0" /><stop
         id="stop67"
         style="stop-color:#1d9ef5;stop-opacity:1"
         offset="1" /></linearGradient><linearGradient
       x1="93.458"
       y1="14.5"
       x2="93.458"
       y2="53.494099"
       id="linearGradient2972"
       xlink:href="#SVGID_5_"
       gradientUnits="userSpaceOnUse" /><linearGradient
       x1="64"
       y1="51.959999"
       x2="123.5"
       y2="51.959999"
       id="linearGradient2975"
       xlink:href="#SVGID_6_"
       gradientUnits="userSpaceOnUse" /><linearGradient
       x1="34.700699"
       y1="14.5"
       x2="34.700699"
       y2="53.512699"
       id="linearGradient2993"
       xlink:href="#SVGID_1_"
       gradientUnits="userSpaceOnUse" /><linearGradient
       x1="5"
       y1="52.5"
       x2="64"
       y2="52.5"
       id="linearGradient2996"
       xlink:href="#SVGID_2_"
       gradientUnits="userSpaceOnUse" /><radialGradient
       cx="60.824699"
       cy="107.7041"
       r="48.575199"
       id="radialGradient3003"
       xlink:href="#SVGID_4_"
       gradientUnits="userSpaceOnUse" /><radialGradient
       cx="60.824699"
       cy="107.7041"
       r="48.575199"
       id="SVGID_3_"
       gradientUnits="userSpaceOnUse"><stop
         id="stop32"
         style="stop-color:#ffe791;stop-opacity:1"
         offset="0" /><stop
         id="stop34"
         style="stop-color:#e7be00;stop-opacity:1;"
         offset="1" /></radialGradient><radialGradient
       cx="34.716801"
       cy="109.125"
       r="21.6693"
       id="radialGradient3010"
       xlink:href="#SVGID_4_"
       gradientUnits="userSpaceOnUse" /><radialGradient
       cx="34.716801"
       cy="109.125"
       r="21.6693"
       id="SVGID_4_"
       gradientUnits="userSpaceOnUse"><stop
         id="stop43"
         style="stop-color:#fff47a;stop-opacity:1;"
         offset="0.0934" /><stop
         id="stop45"
         style="stop-color:#f7dc46;stop-opacity:1;"
         offset="0.3547" /><stop
         id="stop47"
         style="stop-color:#eede1a;stop-opacity:1;"
         offset="0.6573" /><stop
         id="stop49"
         style="stop-color:#e9d311;stop-opacity:1;"
         offset="0.88129997" /><stop
         id="stop51"
         style="stop-color:#e7e300;stop-opacity:1;"
         offset="1" /></radialGradient><radialGradient
       cx="68.1436"
       cy="108.8955"
       r="60.0242"
       id="radialGradient3020"
       xlink:href="#SVGID_7_"
       gradientUnits="userSpaceOnUse" /><radialGradient
       cx="68.1436"
       cy="108.8955"
       r="60.0242"
       id="SVGID_7_"
       gradientUnits="userSpaceOnUse"><stop
         id="stop74"
         style="stop-color:#d3fe96;stop-opacity:1"
         offset="0" /><stop
         id="stop76"
         style="stop-color:#67da00;stop-opacity:1"
         offset="1" /></radialGradient><radialGradient
       cx="94.75"
       cy="108.5"
       r="21.33"
       id="radialGradient3027"
       xlink:href="#SVGID_8_"
       gradientUnits="userSpaceOnUse" /><radialGradient
       cx="94.75"
       cy="108.5"
       r="21.33"
       id="SVGID_8_"
       gradientUnits="userSpaceOnUse"><stop
         id="stop85"
         style="stop-color:#d3fe96;stop-opacity:1"
         offset="0" /><stop
         id="stop87"
         style="stop-color:#67da00;stop-opacity:1"
         offset="1" /></radialGradient></defs><filter
     color-interpolation-filters="sRGB"
     id="light"><feGaussianBlur
       id="feGaussianBlur4"
       stdDeviation="1.3"
       in="SourceGraphic" /></filter><filter
     color-interpolation-filters="sRGB"
     id="Gaussian_Blur"><feGaussianBlur
       id="feGaussianBlur7"
       stdDeviation="2"
       in="SourceGraphic" /></filter><polygon
     points="125.5,117 125.5,105 120.5,18 7.5,18 3.5,105 3.5,117 "
     id="polygon11"
     style="filter:url(#Gaussian_Blur)" /><path
     d="m 6.5,14.5 -1.09375,32.125 0,0.09375 L 5,58.375 l 59,0 0,-4.875 0,-0.125 0,-38.875 -57.5,0 z"
     id="path27"
     style="fill:url(#linearGradient2996)" /><path
     d="M 64,53.494 V 14.5 H 6.5 L 5.401,46.728 C 24.141,51.564 44.07,53.739 64,53.494 z"
     id="path20"
     style="fill:url(#linearGradient2993)" /><polygon
     points="62.999,101.5 4.536,101.5 5.966,59.5 62.999,59.5 62.999,101.5 "
     id="polygon36"
     style="fill:url(#radialGradient3003);fill-opacity:1.0" /><path
     d="m 64,58.5 v 44 H 3.5 L 5,58.5 h 59 m -2,2 H 6.933 l -1.364,40 H 62 v -40 l 0,0 z"
     id="path38"
     style="fill:#cf8700;fill-opacity:1" /><polygon
     points="63,113.501 4.5,113.501 4.5,103.499 63,103.499 63,113.501 "
     id="polygon53"
     style="fill:url(#radialGradient3010)" /><path
     d="m 64,102.5 v 12 H 3.5 v -12 H 64 m -2,2 H 5.5 v 8 H 62 v -8 l 0,0 z"
     id="path55"
     style="fill:#b27708;fill-opacity:1" /><path
     d="m 64,14.5 0,38.875 0,0.125 0,4.875 59.5,0 -0.59375,-12.71875 0,-0.125 L 121.5,14.5 64,14.5 z"
     id="path69"
     style="fill:url(#linearGradient2975)" /><path
     d="M 122.916,45.649 121.5,14.5 H 64 v 38.994 c 20.042,-0.247 40.085,-2.942 58.916,-7.845 z"
     id="path62"
     style="fill:url(#linearGradient2972)" /><polygon
     points="124.452,101.498 65.002,101.498 65.002,59.502 122.544,59.502 124.452,101.498 "
     id="polygon78"
     style="fill:url(#radialGradient3020)" /><path
     d="m 123.5,58.5 2,44 H 64 v -44 h 59.5 m -1.911,2 H 66 v 40 h 57.407 l -1.818,-40 0,0 z"
     id="path80"
     style="fill:#009400" /><polygon
     points="124.498,113.499 65.002,113.499 65.002,103.5 124.498,103.5 124.498,113.499 "
     id="polygon89"
     style="fill:url(#radialGradient3027)" /><path
     d="m 125.5,102.5 v 12 H 64 v -12 h 61.5 m -2,2 H 66 v 8 h 57.5 v -8 l 0,0 z"
     id="path91"
     style="fill:#009400" /><path
     d="m 64,14.5 v 44 H 5 l 1.5,-44 H 64 m -2,2 H 8.433 l -1.364,40 H 62 v -40 l 0,0 z"
     id="path95"
     style="fill:#cf3900" /><path
     d="m 121.5,14.5 2,44 H 64 v -44 h 57.5 m -1.911,2 H 66 v 40 h 55.407 l -1.818,-40 0,0 z"
     id="path99"
     style="fill:#262db2" /><path
     d="m 122.5,102.564 c -1,-4.687 -113.333,-2.343 -116,0 32.333,1.171 81,0.912 116,0 z"
     id="path103"
     style="opacity:0.82999998;fill:#ffffff;filter:url(#light)" /></svg>