<?xml version="1.0" encoding="utf-8"?>
<!-- Generator: Adobe Illustrator 27.3.1, SVG Export Plug-In . SVG Version: 6.00 Build 0)  -->
<svg version="1.1" id="svg3055" xmlns:svg="http://www.w3.org/2000/svg"
	 xmlns="http://www.w3.org/2000/svg" xmlns:xlink="http://www.w3.org/1999/xlink" x="0px" y="0px" viewBox="0 0 256 256"
	 style="enable-background:new 0 0 256 256;" xml:space="preserve">
<style type="text/css">
	.st0{fill:url(#SVGID_1_);}
</style>
<linearGradient id="SVGID_1_" gradientUnits="userSpaceOnUse" x1="19.3889" y1="128" x2="236.6111" y2="128">
	<stop  offset="0" style="stop-color:#FF3C3C"/>
	<stop  offset="1" style="stop-color:#820000"/>
</linearGradient>
<path class="st0" d="M43.8,71c0-10.5,8.5-19,19-19s19,8.5,19,19s-8.5,19-19,19S43.8,81.5,43.8,71z M41.1,124.5
	c-3.4,3.8-5.4,8.9-5.4,14.4s2,10.6,5.4,14.4V124.5z M90.1,107.8c-10.1,8.9-16.4,22-16.4,36.5c0,11.6,4.1,22.3,10.9,30.7v7.3
	c0,6-4.9,10.9-10.9,10.9H52c-6,0-10.9-4.9-10.9-10.9v-9.1c-12.8-6.1-21.7-19.2-21.7-34.3c0-21,17-38,38-38h10.9
	C76.4,100.8,83.9,103.4,90.1,107.8L90.1,107.8z M171.4,182.3V175c6.8-8.4,10.9-19.1,10.9-30.7c0-14.5-6.3-27.6-16.4-36.6
	c6.2-4.3,13.7-6.9,21.9-6.9h10.9c21,0,38,17,38,38c0,15.2-8.9,28.2-21.7,34.3v9.1c0,6-4.9,10.9-10.9,10.9h-21.7
	C176.3,193.2,171.4,188.3,171.4,182.3z M174.2,71c0-10.5,8.5-19,19-19c10.5,0,19,8.5,19,19s-8.5,19-19,19
	C182.7,90,174.2,81.5,174.2,71z M214.9,124.5v28.7c3.4-3.8,5.4-8.9,5.4-14.4S218.3,128.3,214.9,124.5L214.9,124.5z M128,52
	c12,0,21.7,9.7,21.7,21.7S140,95.4,128,95.4s-21.7-9.7-21.7-21.7S116,52,128,52z M100.8,144.3c0,5.5,2,10.5,5.4,14.4v-28.7
	C102.9,133.8,100.8,138.8,100.8,144.3z M149.7,129.9v28.7c3.4-3.8,5.4-8.9,5.4-14.4S153.1,133.8,149.7,129.9L149.7,129.9z
	 M171.4,144.3c0,15.2-8.9,28.2-21.7,34.3v14.5c0,6-4.9,10.9-10.9,10.9h-21.7c-6,0-10.9-4.9-10.9-10.9v-14.5
	c-12.8-6.1-21.7-19.2-21.7-34.3c0-21,17-38,38-38h10.9C154.4,106.3,171.4,123.3,171.4,144.3z"/>
</svg>
