<?xml version="1.0" encoding="UTF-8"?>
<svg id="Layer_1" data-name="Layer 1" xmlns="http://www.w3.org/2000/svg" version="1.1" viewBox="0 0 256 256">
  <defs>
    <style>
      .cls-1 {
        fill: #20e700;
      }

      .cls-1, .cls-2 {
        stroke-width: 0px;
      }

      .cls-2 {
        fill: #fff;
        isolation: isolate;
        opacity: .6;
      }
    </style>
  </defs>
  <path class="cls-2" d="M74.7,21.3c-14.7,0-26.7,12-26.7,26.7v160c0,14.7,12,26.7,26.7,26.7h106.7c14.7,0,26.7-12,26.7-26.7v-120h-53.3c-7.4,0-13.3-6-13.3-13.3V21.3h-66.8Z"/>
  <polygon class="cls-2" points="154.7 21.3 154.7 74.6 208 74.6 154.7 21.3"/>
  <path class="cls-1" d="M111.8,141.8l-12.9,12.9,12.9,12.9c3.9,3.9,3.9,10.3,0,14.1-3.9,3.9-10.2,3.9-14.1,0l-20-20c-3.9-3.9-3.9-10.2,0-14.1l20-20c3.9-3.9,10.2-3.9,14.1,0,3.8,3.9,3.8,10.3,0,14.2h0Z"/>
  <path class="cls-1" d="M158.4,127.6l20,20c3.9,3.9,3.9,10.3,0,14.1l-20,20c-3.9,3.9-10.3,3.9-14.1,0-3.9-3.9-3.9-10.2,0-14.1l12.9-12.9-12.9-12.9c-3.9-3.9-3.9-10.2,0-14.1,3.9-3.9,10.2-4,14.1-.1h0Z"/>
</svg>