<?xml version="1.0" encoding="utf-8"?>
<!-- Generator: Adobe Illustrator 27.9.0, SVG Export Plug-In . SVG Version: 6.00 Build 0)  -->
<svg version="1.1" id="svg3815" xmlns:svg="http://www.w3.org/2000/svg"
	 xmlns="http://www.w3.org/2000/svg" xmlns:xlink="http://www.w3.org/1999/xlink" x="0px" y="0px" viewBox="0 0 256 256"
	 style="enable-background:new 0 0 256 256;" xml:space="preserve">
<style type="text/css">
	.st0{opacity:0.56;fill:#FFFFFF;}
</style>
<path class="st0" d="M56,92c-13.2,0-24,10.8-24,24v84c0,13.2,10.8,24,24,24h84c13.2,0,24-10.8,24-24v-24h-18v24c0,3.3-2.7,6-6,6H56
	c-3.3,0-6-2.7-6-6v-84c0-3.3,2.7-6,6-6h24V92H56z"/>
<path class="st0" d="M154.4,123c-3.2,3.2-8.6,3.2-11.8,0l-19.1-19.1c-3.3-3.2-3.3-8.6,0-11.8c3.2-3.2,8.6-3.2,11.8,0l13.2,13.2
	L180.7,73c3.2-3.2,8.6-3.2,11.8,0s3.2,8.6,0,11.8L154.4,123z M91.2,50.3c0-10.5,8.5-19.1,19.1-19.1h95.4c10.5,0,19.1,8.5,19.1,19.1
	v95.4c0,10.5-8.6,19.1-19.1,19.1h-95.4c-10.5,0-19.1-8.6-19.1-19.1V50.3z M109.3,53.8v88.5c0,2.4,2,4.4,4.4,4.4h88.5
	c2.4,0,4.4-2,4.4-4.4V53.8c0-2.4-2-4.4-4.4-4.4h-88.5C111.3,49.3,109.3,51.3,109.3,53.8z"/>
</svg>
