<svg xmlns:svg="http://www.w3.org/2000/svg" xmlns="http://www.w3.org/2000/svg" version="1.1" id="Capa_1" x="0" y="0" width="48" height="48" viewBox="0 0 48 48" xml:space="preserve"><metadata id="metadata41"/><defs id="defs39"/><circle id="path4170" cx="24" cy="24" r="21" fill="#6e6e6e"/><path id="path4184" d="M19.36 32.03 14.73 24l4.64-8.03 9.27 0L33.27 24 28.64 32.03Z" fill="#fff"/><path id="path5" d="m24 1.45c-12.43 0-22.55 10.12-22.55 22.55 0 12.43 10.12 22.55 22.55 22.55 12.43 0 22.55-10.12 22.55-22.55 0-12.43-10.12-22.55-22.55-22.55zm2.7 29.28c0 0-0.01 0-0.01 0l-6.58 0-3.88-6.73 3.88-6.73 1.19 0 6.58 0 3.88 6.73-3.88 6.73-1.19 0zM5.28 29.2C4.82 27.54 4.56 25.8 4.56 24c0-2.37 0.43-4.63 1.2-6.73l10.75 0L15.52 19 5.28 29.2ZM32.47 29.03 42.72 18.8c0.46 1.66 0.71 3.4 0.71 5.2 0 2.37-0.43 4.63-1.2 6.73l-10.75 0 0.98-1.7zm9.06-13.43-6.99 6.96-0.97-1.68 0-13.79c3.44 1.96 6.23 4.93 7.96 8.51zm-11.07-9.93 0 9.82-0.32-0.55c-0.01-0.02-0.03-0.03-0.04-0.05-0.05-0.08-0.1-0.15-0.17-0.22-0.03-0.03-0.05-0.06-0.08-0.08-0.02-0.02-0.03-0.03-0.05-0.05L18.99 5.22c1.6-0.43 3.28-0.66 5.01-0.66 2.26 0 4.43 0.39 6.45 1.11zm-14.81 0.78 8.94 7.7-3.29 0-2.09 0-11.96 0C9.22 10.83 12.14 8.13 15.65 6.45ZM6.47 32.4 13.46 25.44l0.97 1.67 0 13.79C10.99 38.95 8.2 35.98 6.47 32.4Zm11.07 9.93 0-9.82 0.32 0.56c0.01 0.02 0.03 0.03 0.04 0.05 0.05 0.08 0.11 0.15 0.17 0.22 0.03 0.03 0.05 0.06 0.08 0.08 0.02 0.02 0.03 0.03 0.05 0.05l10.81 9.31c-1.6 0.43-3.28 0.66-5.01 0.66-2.26 0-4.43-0.39-6.45-1.11zm14.81-0.78-8.94-7.7 5.37 0c0 0 0 0 0.01 0l11.96 0c-1.96 3.33-4.89 6.03-8.4 7.7z" fill="#000"/><g id="g7" transform="translate(0,-279.51199)"/><g id="g9" transform="translate(0,-279.51199)"/><g id="g11" transform="translate(0,-279.51199)"/><g id="g13" transform="translate(0,-279.51199)"/><g id="g15" transform="translate(0,-279.51199)"/><g id="g17" transform="translate(0,-279.51199)"/><g id="g19" transform="translate(0,-279.51199)"/><g id="g21" transform="translate(0,-279.51199)"/><g id="g23" transform="translate(0,-279.51199)"/><g id="g25" transform="translate(0,-279.51199)"/><g id="g27" transform="translate(0,-279.51199)"/><g id="g29" transform="translate(0,-279.51199)"/><g id="g31" transform="translate(0,-279.51199)"/><g id="g33" transform="translate(0,-279.51199)"/><g id="g35" transform="translate(0,-279.51199)"/></svg>