<svg xmlns:svg="http://www.w3.org/2000/svg" xmlns="http://www.w3.org/2000/svg" xmlns:xlink="http://www.w3.org/1999/xlink" width="48" height="48" id="svg2" version="1.1"><defs id="defs4"><linearGradient id="linearGradient4206"><stop offset="0" id="stop4208" style="stop-color:#878787;stop-opacity:1"/><stop offset="1" id="stop4210" style="stop-color:#b0b0b0;stop-opacity:1"/></linearGradient><radialGradient xlink:href="#linearGradient4209" id="radialGradient4217" cx="385.35" cy="495.54" fx="385.35" fy="495.54" r="205.64" gradientTransform="matrix(-1.7174909,-0.22708156,0.17381835,-1.314644,961.04115,1140.4252)" gradientUnits="userSpaceOnUse"/><filter id="filter4226" x="-0.3" width="1.6" y="-0.3" height="1.6" color-interpolation-filters="sRGB"><feGaussianBlur stdDeviation="25.86" id="feGaussianBlur4228"/></filter><filter id="filter4230" x="-0.6" width="2.2" y="-0.6" height="2.2" color-interpolation-filters="sRGB"><feGaussianBlur stdDeviation="12" id="feGaussianBlur4232"/></filter><linearGradient xlink:href="#linearGradient4163" id="linearGradient3885" gradientUnits="userSpaceOnUse" x1="372.86" y1="593.39" x2="318.3" y2="726.39" gradientTransform="translate(1.8752155,-533.76621)"/><linearGradient xlink:href="#linearGradient4153" id="linearGradient3888" gradientUnits="userSpaceOnUse" x1="179.05" y1="580.06" x2="180.17" y2="752.06" gradientTransform="translate(1.8752155,-533.76621)"/><linearGradient xlink:href="#linearGradient4143" id="linearGradient3891" gradientUnits="userSpaceOnUse" x1="108.8" y1="721.61" x2="54.77" y2="857.61" gradientTransform="translate(1.8752155,-533.76621)"/><linearGradient xlink:href="#linearGradient4133" id="linearGradient3894" gradientUnits="userSpaceOnUse" x1="186.77" y1="873.54" x2="170.55" y2="997.54" gradientTransform="translate(1.8752155,-533.76621)"/><linearGradient xlink:href="#linearGradient4123" id="linearGradient3897" gradientUnits="userSpaceOnUse" x1="317.07" y1="815.92" x2="343.89" y2="1000.92" gradientTransform="translate(1.8752155,-533.76621)"/><linearGradient xlink:href="#linearGradient4105" id="linearGradient3900" gradientUnits="userSpaceOnUse" x1="393.14" y1="738.92" x2="444.45" y2="904.92" gradientTransform="translate(1.8752155,-533.76621)"/><linearGradient xlink:href="#linearGradient4206" id="linearGradient3907" gradientUnits="userSpaceOnUse" gradientTransform="matrix(0.5,0.8660254,-0.8660254,0.5,812.8952,-358.96163)" x1="277.63" y1="637.06" x2="454.05" y2="683.49"/><linearGradient xlink:href="#linearGradient4206" id="linearGradient3911" gradientUnits="userSpaceOnUse" gradientTransform="matrix(-0.5,0.8660254,-0.8660254,-0.5,1067.02,430.80457)" x1="253.84" y1="725.27" x2="401.19" y2="612.48"/><linearGradient xlink:href="#linearGradient4206" id="linearGradient3915" gradientUnits="userSpaceOnUse" gradientTransform="matrix(-1,0,0,-1,510.1248,1045.7662)" x1="326.12" y1="701.77" x2="342.12" y2="581.77"/><linearGradient xlink:href="#linearGradient4143" id="linearGradient3919" gradientUnits="userSpaceOnUse" gradientTransform="matrix(-0.5,-0.8660254,0.8660254,-0.5,-300.8952,870.96163)" x1="456.98" y1="694.42" x2="273.63" y2="643.99"/><linearGradient xlink:href="#linearGradient4206" id="linearGradient3923" gradientUnits="userSpaceOnUse" gradientTransform="matrix(0.5,-0.8660254,0.8660254,0.5,-555.02,81.195422)" x1="432.11" y1="650.05" x2="263.69" y2="710.34"/><linearGradient xlink:href="#linearGradient4105" id="linearGradient3939" gradientUnits="userSpaceOnUse" gradientTransform="translate(518.20335,-554.74741)" x1="393.14" y1="738.92" x2="444.45" y2="904.92"/><linearGradient xlink:href="#linearGradient4123" id="linearGradient3941" gradientUnits="userSpaceOnUse" gradientTransform="translate(518.20335,-554.74741)" x1="317.07" y1="815.92" x2="343.89" y2="1000.92"/><linearGradient xlink:href="#linearGradient4133" id="linearGradient3943" gradientUnits="userSpaceOnUse" gradientTransform="translate(518.20335,-554.74741)" x1="186.77" y1="873.54" x2="170.55" y2="997.54"/><linearGradient xlink:href="#linearGradient4143" id="linearGradient3945" gradientUnits="userSpaceOnUse" gradientTransform="translate(518.20335,-554.74741)" x1="108.8" y1="721.61" x2="54.77" y2="857.61"/><linearGradient xlink:href="#linearGradient4153" id="linearGradient3947" gradientUnits="userSpaceOnUse" gradientTransform="translate(518.20335,-554.74741)" x1="179.05" y1="580.06" x2="180.17" y2="752.06"/><linearGradient xlink:href="#linearGradient4163" id="linearGradient3949" gradientUnits="userSpaceOnUse" gradientTransform="translate(518.20335,-554.74741)" x1="372.86" y1="593.39" x2="318.3" y2="726.39"/><linearGradient xlink:href="#linearGradient4206" id="linearGradient4212" x1="256" y1="224" x2="256" y2="288" gradientUnits="userSpaceOnUse"/><linearGradient xlink:href="#linearGradient4206" id="linearGradient3908" gradientUnits="userSpaceOnUse" gradientTransform="matrix(-0.5,-0.8660254,0.8660254,-0.5,-300.8952,870.96163)" x1="456.98" y1="694.42" x2="273.63" y2="643.99"/><linearGradient xlink:href="#linearGradient4206" id="linearGradient3910" gradientUnits="userSpaceOnUse" gradientTransform="translate(1.8752155,-533.76621)" x1="372.86" y1="593.39" x2="318.3" y2="726.39"/><linearGradient xlink:href="#linearGradient4206" id="linearGradient3902" gradientUnits="userSpaceOnUse" gradientTransform="matrix(0.5,0.8660254,-0.8660254,0.5,812.8952,-358.96163)" x1="277.63" y1="637.06" x2="454.05" y2="683.49"/><linearGradient xlink:href="#linearGradient4206" id="linearGradient3038" gradientUnits="userSpaceOnUse" gradientTransform="translate(1.8752155,-533.76621)" x1="372.86" y1="593.39" x2="318.3" y2="726.39"/><linearGradient xlink:href="#linearGradient4206" id="linearGradient3040" gradientUnits="userSpaceOnUse" gradientTransform="matrix(0.5,0.8660254,-0.8660254,0.5,812.8952,-358.96163)" x1="277.63" y1="637.06" x2="454.05" y2="683.49"/><linearGradient xlink:href="#linearGradient4206" id="linearGradient3042" gradientUnits="userSpaceOnUse" gradientTransform="matrix(-0.5,0.8660254,-0.8660254,-0.5,1067.02,430.80457)" x1="253.84" y1="725.27" x2="401.19" y2="612.48"/><linearGradient xlink:href="#linearGradient4206" id="linearGradient3044" gradientUnits="userSpaceOnUse" gradientTransform="matrix(-1,0,0,-1,510.1248,1045.7662)" x1="326.12" y1="701.77" x2="342.12" y2="581.77"/><linearGradient xlink:href="#linearGradient4206" id="linearGradient3046" gradientUnits="userSpaceOnUse" gradientTransform="matrix(-0.5,-0.8660254,0.8660254,-0.5,-300.8952,870.96163)" x1="456.98" y1="694.42" x2="273.63" y2="643.99"/><linearGradient xlink:href="#linearGradient4206" id="linearGradient3048" gradientUnits="userSpaceOnUse" gradientTransform="matrix(0.5,-0.8660254,0.8660254,0.5,-555.02,81.195422)" x1="432.11" y1="650.05" x2="263.69" y2="710.34"/><linearGradient xlink:href="#linearGradient4206" id="linearGradient3050" gradientUnits="userSpaceOnUse" x1="256" y1="224" x2="256" y2="288"/></defs><metadata id="metadata7"/><g id="layer3" transform="translate(0,-464)" display="inline"/><g id="layer2" transform="translate(0,-464)" display="inline"><g id="g3028" transform="matrix(0.1043289,0,0,0.10286251,-2.7081989,461.6672)"><path id="path3021" d="M510 287C510 411.26 409.26 512 285 512 160.74 512 60 411.26 60 287 60 162.74 160.74 62 285 62c118.86 0 217.22 92.45 224.57 211.08" transform="matrix(0.95555556,0,0,0.95555556,-17.333333,-17.24444)" style="display:inline;fill:#1a1a1a;stroke-miterlimit:4;stroke-width:25.12;stroke:#323232"/><path id="path3902" d="m303.2 32.67-55.47 157.91 218.44-36.75C433.82 91.69 374.21 46.03 303.2 32.67z" style="display:inline;fill-rule:nonzero;fill:url(#linearGradient3038);filter:url(#filter3903)"/><path d="m473.01 185.21-164.49 30.92 141.05 170.8c37.63-59.09 47.37-133.54 23.44-201.71z" id="path3905" style="display:inline;fill-rule:nonzero;fill:url(#linearGradient3040);filter:url(#filter3903)"/><path id="path3909" d="M425.81 408.54 316.79 281.55 239.4 489.1c69.99 3.05 139.33-25.74 186.41-80.56z" style="display:inline;fill-rule:nonzero;fill:url(#linearGradient3042);filter:url(#filter3903)"/><path d="M208.8 479.33 264.27 321.43 45.83 358.18c32.35 62.13 91.96 107.79 162.97 121.16z" id="path3913" style="display:inline;fill-rule:nonzero;fill:url(#linearGradient3044);filter:url(#filter3903)"/><path id="path3917" d="M38.99 326.79 203.47 295.87 62.43 125.07C24.79 184.16 15.06 258.61 38.99 326.79z" style="display:inline;fill-rule:nonzero;fill:url(#linearGradient3046);filter:url(#filter3903)"/><path d="M86.19 103.46 195.21 230.45 272.6 22.9C202.61 19.85 133.27 48.64 86.19 103.46z" id="path3921" style="display:inline;fill-rule:nonzero;fill:url(#linearGradient3048);filter:url(#filter3903)"/><path transform="matrix(1.25,0,0,1.25,-63.504587,-62.825688)" d="m288 256c0 17.67-14.33 32-32 32-17.67 0-32-14.33-32-32 0-17.67 14.33-32 32-32 17.67 0 32 14.33 32 32z" id="path4204" fill="url(#linearGradient3050)"/></g></g><g id="layer8" transform="translate(0,-464)" display="none"><path id="path4222" d="m359.46 256c0 57.14-46.32 103.46-103.46 103.46-57.14 0-103.46-46.32-103.46-103.46 0-57.14 46.32-103.46 103.46-103.46 54.65 0 99.88 42.51 103.26 97.06" style="fill:#fff;filter:url(#filter4226);opacity:0.59"/><path id="path4220" d="m280 256c0 13.25-10.75 24-24 24-13.25 0-24-10.75-24-24 0-13.25 10.75-24 24-24 12.68 0 23.17 9.86 23.95 22.52" style="fill:#fff;filter:url(#filter4230);opacity:0.59"/><path d="m280 256c0 13.25-10.75 24-24 24-13.25 0-24-10.75-24-24 0-13.25 10.75-24 24-24 12.68 0 23.17 9.86 23.95 22.52" id="path4234" style="fill:#fff;filter:url(#filter4230);opacity:0.59"/></g></svg>