<?xml version="1.0" encoding="utf-8"?>
<!-- Generator: Adobe Illustrator 27.9.0, SVG Export Plug-In . SVG Version: 6.00 Build 0)  -->
<svg version="1.1" id="Capa_1" xmlns:svg="http://www.w3.org/2000/svg"
	 xmlns="http://www.w3.org/2000/svg" xmlns:xlink="http://www.w3.org/1999/xlink" x="0px" y="0px" viewBox="0 0 256 256"
	 style="enable-background:new 0 0 256 256;" xml:space="preserve">
<style type="text/css">
	.st0{opacity:0.56;}
	.st1{fill:#FFFFFF;}
</style>
<g class="st0">
	<path class="st1" d="M210.9,88.3c-8.2-17-21.4-31-37.7-40.3v65.3l4.6,7.9L210.9,88.3z"/>
	<path class="st1" d="M115.2,81.4h15.6L88.5,45c-16.6,7.9-30.4,20.7-39.7,36.4h56.5H115.2z"/>
	<path class="st1" d="M155.7,83.6c0.2,0.1,0.3,0.3,0.4,0.4c0.3,0.3,0.6,0.6,0.8,1c0.1,0.1,0.2,0.1,0.2,0.2l1.5,2.6V41.3
		c-9.6-3.4-19.9-5.3-30.5-5.1c-8.2,0-16.1,1.1-23.7,3.1l51.1,44.1C155.6,83.5,155.6,83.5,155.7,83.6z"/>
	<path class="st1" d="M214.3,159.8c3.7-9.9,5.7-20.6,5.7-31.8c0-8.5-1.2-16.7-3.4-24.6l-48.5,48.4l-4.6,8H214.3z"/>
	<path class="st1" d="M150.6,174.6h-25.4l42.3,36.4c16.6-7.9,30.5-20.7,39.7-36.4H150.6z"/>
	<path class="st1" d="M100.3,172.4c-0.2-0.1-0.3-0.3-0.4-0.4c-0.3-0.3-0.6-0.6-0.8-1c-0.1-0.1-0.2-0.1-0.2-0.2l-1.5-2.6v46.5
		c9.6,3.4,19.9,5.3,30.5,5c8.2,0,16.1-1.1,23.7-3.1l-51.1-44C100.4,172.5,100.4,172.5,100.3,172.4z"/>
	<path class="st1" d="M45.1,167.7c8.2,17,21.4,31,37.7,40.2v-65.2l-4.6-7.9L45.1,167.7z"/>
	<path class="st1" d="M41.8,96.2c-3.7,9.9-5.7,20.6-5.7,31.8c0,8.5,1.2,16.7,3.4,24.6l48.4-48.2l4.7-8.2H41.8z"/>
</g>
<g id="g7" transform="translate(0,-279.51199)">
</g>
<g id="g9" transform="translate(0,-279.51199)">
</g>
<g id="g11" transform="translate(0,-279.51199)">
</g>
<g id="g13" transform="translate(0,-279.51199)">
</g>
<g id="g15" transform="translate(0,-279.51199)">
</g>
<g id="g17" transform="translate(0,-279.51199)">
</g>
<g id="g19" transform="translate(0,-279.51199)">
</g>
<g id="g21" transform="translate(0,-279.51199)">
</g>
<g id="g23" transform="translate(0,-279.51199)">
</g>
<g id="g25" transform="translate(0,-279.51199)">
</g>
<g id="g27" transform="translate(0,-279.51199)">
</g>
<g id="g29" transform="translate(0,-279.51199)">
</g>
<g id="g31" transform="translate(0,-279.51199)">
</g>
<g id="g33" transform="translate(0,-279.51199)">
</g>
<g id="g35" transform="translate(0,-279.51199)">
</g>
</svg>
