<?xml version="1.0" encoding="UTF-8" standalone="no"?>
<svg
   width="48"
   height="48"
   id="svg2985"
   version="1.1"
   sodipodi:docname="signetplugin.svg"
   xml:space="preserve"
   inkscape:version="1.2.2 (b0a8486541, 2022-12-01)"
   xmlns:inkscape="http://www.inkscape.org/namespaces/inkscape"
   xmlns:sodipodi="http://sodipodi.sourceforge.net/DTD/sodipodi-0.dtd"
   xmlns="http://www.w3.org/2000/svg"
   xmlns:svg="http://www.w3.org/2000/svg"><sodipodi:namedview
     id="namedview123"
     pagecolor="#ffffff"
     bordercolor="#666666"
     borderopacity="1.0"
     inkscape:showpageshadow="2"
     inkscape:pageopacity="0.0"
     inkscape:pagecheckerboard="0"
     inkscape:deskcolor="#d1d1d1"
     showgrid="false"
     inkscape:zoom="8.2348477"
     inkscape:cx="3.2787492"
     inkscape:cy="18.883166"
     inkscape:window-width="1366"
     inkscape:window-height="690"
     inkscape:window-x="0"
     inkscape:window-y="156"
     inkscape:window-maximized="1"
     inkscape:current-layer="svg2985" /><defs
     id="defs2987" /><metadata
     id="metadata2990" /><ellipse
     style="fill:#ffffff;stroke-width:7.02516;stroke-linecap:round"
     id="path345"
     cx="24"
     cy="24"
     rx="23.0005"
     ry="13.931" /><path
     style="fill:#000000;stroke-width:0.0243377"
     d="M 22.469204,37.900686 C 13.515895,37.545741 5.7111646,34.048169 2.4954635,28.949753 2.1681868,28.430861 1.9439901,27.99985 1.7061228,27.432259 1.2327458,26.302708 1.0203459,25.312617 1.0009644,24.1452 0.9882978,23.382131 1.0471814,22.796429 1.2096123,22.070007 1.3289918,21.536107 1.4484578,21.173988 1.7143671,20.54002 2.1717308,19.449585 2.6980801,18.605052 3.5376988,17.614449 6.8811359,13.669776 13.15599,10.910958 20.35698,10.219638 c 1.336441,-0.128283 1.874833,-0.150527 3.644885,-0.150575 1.770566,-3.1e-5 2.2932,0.02165 3.629107,0.15036 8.208544,0.791068 15.138621,4.253637 17.977873,8.982536 1.199489,1.9978 1.632851,4.14226 1.264469,6.257122 -0.116542,0.669059 -0.270452,1.197926 -0.544555,1.871187 -0.601793,1.47816 -1.536547,2.812728 -2.857153,4.079217 -4.539794,4.353759 -12.540879,6.826645 -21.002402,6.491201 z M 18.98643,32.497794 c 0.830078,-0.103872 1.256264,-0.467242 1.39925,-1.19305 l 0.0423,-0.214715 v -4.973982 -4.973982 l -2.201131,-0.01094 c -2.295653,-0.01142 -2.624748,0.0045 -2.948717,0.143247 -0.608708,0.26077 -0.935186,0.831543 -1.01946,1.782301 -0.03361,0.379127 -0.03412,3.895184 -6.22e-4,4.271256 0.07584,0.851561 0.396101,1.395131 0.955062,1.621026 0.291008,0.1176 0.511856,0.132541 1.960507,0.132659 l 1.463476,1.31e-4 v 0.900947 0.900949 h -0.61451 c -0.900559,0 -1.184821,0.07409 -1.448263,0.377452 -0.09586,0.110391 -0.164135,0.222186 -0.226956,0.371647 -0.09856,0.234462 -0.124183,0.379893 -0.124328,0.705555 l -8.8e-5,0.197062 1.234686,-3.38e-4 c 0.679077,-1.88e-4 1.367032,-0.01689 1.52879,-0.03713 z m -2.95282,-7.339027 v -2.383762 h 1.301745 1.301744 v 2.383762 2.383755 H 17.335355 16.03361 Z m -6.3036017,3.872138 c 0.6628287,-0.223566 1.0175407,-0.674145 1.1299967,-1.435364 0.02922,-0.197777 0.03095,-0.295401 0.02655,-1.493127 l -0.0047,-1.281505 -0.04251,-0.191734 c -0.05928,-0.267311 -0.112483,-0.407624 -0.221104,-0.583116 -0.176719,-0.285513 -0.439981,-0.4873 -0.8132659,-0.623351 -0.1503632,-0.05479 -0.4308722,-0.06326 -2.4693817,-0.07453 L 5.0358443,23.33533 v -0.880874 -0.880867 h 2.9291446 2.9291431 l -0.0083,-0.218784 c -0.03943,-1.033337 -0.535757,-1.636411 -1.4584422,-1.771992 -0.1910163,-0.02805 -1.0402044,-0.03681 -2.6480009,-0.02719 -2.5613521,0.01523 -2.4934961,0.01 -2.8461194,0.219378 -0.4012021,0.238189 -0.718447,0.746217 -0.8347409,1.336733 l -0.042919,0.217928 -0.00479,1.128838 c -0.00585,1.383313 -0.00278,1.415538 0.1771867,1.838796 0.1842582,0.433406 0.4736538,0.722081 0.9255866,0.923286 l 0.1958643,0.0872 2.3036928,0.01951 2.303694,0.01951 0.00422,0.891563 0.00422,0.891563 H 6.0042874 3.0432932 l 0.0094,0.189045 c 0.029265,0.587902 0.2950913,1.106141 0.7286954,1.420635 0.2349552,0.170393 0.542741,0.304958 0.8126047,0.355219 0.039054,0.0074 1.1680201,0.01023 2.5088169,0.0069 2.2011118,-0.006 2.4561974,-0.01285 2.6271581,-0.07033 z m 2.6271577,-0.0043 c 0.243434,-0.07889 0.396609,-0.185952 0.595841,-0.416474 0.27646,-0.319863 0.421952,-0.704101 0.485134,-1.281209 0.01992,-0.18186 0.02354,-0.67637 0.02354,-3.210563 V 21.12269 l -0.895442,0.0095 -0.895443,0.0098 -0.004,3.969797 -0.004,3.969803 0.264365,-7.31e-4 c 0.145403,-4.02e-4 0.338922,-0.02488 0.430043,-0.05443 z m 25.829772,-0.03371 c 0.347142,-0.138298 0.57763,-0.308696 0.816805,-0.603776 0.224977,-0.27756 0.3666,-0.5777 0.3666,-0.776925 0,-0.06733 -0.06911,-0.06954 -2.201459,-0.06954 h -2.201459 l 0.0043,-0.760176 0.0043,-0.760172 1.61732,-0.02165 c 1.702103,-0.0226 1.714496,-0.02389 2.062678,-0.200679 0.336076,-0.17063 0.563596,-0.477175 0.659151,-0.888085 l 0.04734,-0.203558 0.0049,-1.01154 c 0.0057,-1.167667 0.0012,-1.222694 -0.122798,-1.517726 -0.176816,-0.420664 -0.587545,-0.763743 -1.160187,-0.969087 -0.17322,-0.06212 -0.326398,-0.06788 -1.798774,-0.06788 -1.775434,0 -1.799067,0.0026 -2.213454,0.243636 -0.461678,0.268539 -0.715139,0.614739 -0.81921,1.11895 l -0.04418,0.214074 v 2.346219 2.346215 l 0.04158,0.210956 c 0.09984,0.506586 0.299885,0.825552 0.70002,1.116158 0.213869,0.155332 0.462243,0.266992 0.710043,0.319208 0.03471,0.0074 0.805109,0.01047 1.711991,0.0074 1.492698,-0.0054 1.664569,-0.01237 1.814553,-0.07202 z m -3.211797,-4.576362 c -0.0042,-0.02633 -0.0058,-0.402207 -0.0035,-0.835252 l 0.0043,-0.78736 1.2978,-0.0095 1.297801,-0.0095 v 0.844856 0.844857 h -1.294288 c -1.034907,0 -1.295899,-0.0095 -1.302077,-0.04789 z m 8.158428,4.626204 c 0.378089,-0.07642 0.677537,-0.245348 0.843165,-0.475634 0.158581,-0.220472 0.258044,-0.540502 0.271736,-0.874278 l 0.0054,-0.131399 -0.642983,-0.0098 -0.642983,-0.0098 v -2.364574 -2.364565 h 0.125423 c 0.162008,0 0.450522,-0.09084 0.597695,-0.188189 0.234096,-0.154833 0.423687,-0.468339 0.500047,-0.826841 0.03642,-0.170964 0.07447,-0.554226 0.06042,-0.608348 -0.004,-0.01546 -0.293993,-0.02836 -0.644314,-0.02836 h -0.636981 l -0.0052,-0.985415 c -0.0049,-0.943609 -0.0067,-0.993799 -0.04269,-1.183248 -0.04751,-0.250446 -0.174883,-0.531518 -0.310777,-0.68582 -0.22886,-0.259862 -0.519186,-0.359852 -1.11507,-0.384043 l -0.295851,-0.01213 v 1.605975 1.605973 l -0.524642,0.0098 -0.524643,0.0098 -0.0042,0.815977 -0.0042,0.815973 0.524949,0.0098 0.52495,0.0098 0.0079,2.496377 0.0079,2.496375 0.04428,0.214526 c 0.12489,0.605064 0.48779,0.955459 1.091791,1.054167 0.182437,0.02981 0.613084,0.02284 0.788936,-0.01261 z m -15.782774,-2.67612 0.004,-2.677626 0.410247,0.625302 c 0.225635,0.343916 0.868223,1.332141 1.427974,2.196054 0.55975,0.863914 1.083095,1.653225 1.162988,1.754028 0.431253,0.544123 0.950546,0.779461 1.720575,0.779742 l 0.351076,1.29e-4 V 24.295515 19.54677 l -0.161732,5.8e-4 c -0.224363,7.87e-4 -0.605905,0.06535 -0.784991,0.132779 -0.504536,0.189997 -0.810514,0.574144 -0.93451,1.173199 l -0.05166,0.249589 -0.0045,1.88722 c -0.0025,1.03797 -0.0075,1.887221 -0.01118,1.887221 -0.0098,0 -0.618192,-0.903997 -0.82059,-1.219276 -1.035395,-1.612858 -2.095286,-3.225199 -2.212496,-3.36573 -0.409737,-0.491254 -0.906499,-0.7099 -1.637512,-0.720747 l -0.410247,-0.0062 -0.004,4.73936 -0.004,4.73936 h 0.978236 0.978239 z M 23.47616,25.307233 c 0.317225,-0.112056 0.587235,-0.353682 0.816362,-0.730525 0.217566,-0.357824 0.32368,-0.705233 0.324367,-1.061921 l 3.47e-4,-0.180123 -1.147903,0.01427 c -1.258153,0.01571 -1.229544,0.01094 -1.581816,0.255439 -0.32084,0.222567 -0.531405,0.540287 -0.622769,0.93967 -0.03741,0.163541 -0.04726,0.258858 -0.05283,0.511187 l -0.0068,0.310166 h 1.053174 c 0.869928,0 1.081845,-0.01 1.217903,-0.05819 z M 13.461677,18.739261 v -0.84495 l -0.895441,0.0095 -0.895444,0.0095 -0.0043,0.787361 c -0.0024,0.433047 -8.01e-4,0.808912 0.0035,0.835252 0.0061,0.03804 0.191044,0.04789 0.899719,0.04789 h 0.891993 z"
     id="path1698" /></svg>
