<svg xmlns:svg="http://www.w3.org/2000/svg" xmlns="http://www.w3.org/2000/svg" xmlns:xlink="http://www.w3.org/1999/xlink" version="1" width="96" height="96" id="svg2408"><defs id="defs2410"><linearGradient id="linearGradient4519"><stop id="stop4521" offset="0" style="stop-color:#ffe35f;stop-opacity:1"/><stop id="stop4523" offset="1" style="stop-color:#e20000;stop-opacity:1"/></linearGradient><linearGradient id="linearGradient4193"><stop id="stop4195" offset="0" style="stop-color:#e2e2e2;stop-opacity:1"/><stop id="stop4197" offset="1" style="stop-color:#bfbfbf;stop-opacity:1"/></linearGradient><linearGradient id="linearGradient4145"><stop id="stop4147" offset="0" style="stop-color:#818181;stop-opacity:1"/><stop id="stop4149" offset="0.14" style="stop-color:#bebebe;stop-opacity:1"/><stop id="stop4151" offset="0.5" style="stop-color:#c8c8c8;stop-opacity:1"/><stop id="stop4153" offset="0.75" style="stop-color:#bebebe;stop-opacity:1"/><stop id="stop4155" offset="1" style="stop-color:#ffffff;stop-opacity:1"/></linearGradient><linearGradient id="linearGradient4133"><stop id="stop4135" offset="0" style="stop-color:#818181;stop-opacity:1"/><stop id="stop4137" offset="0.14" style="stop-color:#bebebe;stop-opacity:1"/><stop id="stop4139" offset="0.5" style="stop-color:#c8c8c8;stop-opacity:1"/><stop id="stop4141" offset="0.76" style="stop-color:#bebebe;stop-opacity:1"/><stop id="stop4143" offset="1" style="stop-color:#ffffff;stop-opacity:1"/></linearGradient><linearGradient id="linearGradient4090"><stop id="stop4092" offset="0" style="stop-color:#000000;stop-opacity:1"/><stop id="stop4094" offset="1" style="stop-color:#000000;stop-opacity:0"/></linearGradient><linearGradient id="linearGradient4049"><stop id="stop4051" offset="0" style="stop-color:#e2e2e2;stop-opacity:1"/><stop id="stop4053" offset="1" style="stop-color:#e2e2e2;stop-opacity:1"/></linearGradient><linearGradient x1="45.45" y1="92.54" x2="45.45" y2="7.02" id="ButtonShadow" gradientUnits="userSpaceOnUse" gradientTransform="scale(1.0058652,0.994169)"><stop id="stop3750" offset="0" style="stop-color:#000000;stop-opacity:1"/><stop id="stop3752" offset="1" style="stop-color:#000000;stop-opacity:0.59"/></linearGradient><linearGradient id="linearGradient3737"><stop id="stop3739" offset="0" style="stop-color:#ffffff;stop-opacity:1"/><stop id="stop3741" offset="1" style="stop-color:#ffffff;stop-opacity:0"/></linearGradient><filter color-interpolation-filters="sRGB" id="filter3174"><feGaussianBlur id="feGaussianBlur3176" stdDeviation="1.71"/></filter><linearGradient x1="36.36" y1="6" x2="36.36" y2="63.89" id="linearGradient3188" xlink:href="#linearGradient3737" gradientUnits="userSpaceOnUse"/><filter x="-0.19" y="-0.19" width="1.38" height="1.38" color-interpolation-filters="sRGB" id="filter3794"><feGaussianBlur id="feGaussianBlur3796" stdDeviation="5.28"/></filter><linearGradient x1="48" y1="20.22" x2="48" y2="138.66" id="linearGradient3613" xlink:href="#linearGradient3737" gradientUnits="userSpaceOnUse"/><radialGradient cx="48" cy="90.17" r="42" fx="48" fy="90.17" id="radialGradient3619" xlink:href="#linearGradient3737" gradientUnits="userSpaceOnUse" gradientTransform="matrix(1.1573129,0,0,0.99590774,-7.5510206,0.19713193)"/><clipPath id="clipPath3613"><rect width="84" height="84" rx="6" ry="6" x="6" y="6" id="rect3615" style="fill-rule:nonzero;fill:#fff"/></clipPath><linearGradient x1="48" y1="90" x2="48" y2="5.99" id="linearGradient3617" xlink:href="#linearGradient3187" gradientUnits="userSpaceOnUse"/><linearGradient id="linearGradient3187"><stop id="stop3189" offset="0" style="stop-color:#a0a0a0;stop-opacity:1"/><stop id="stop3191" offset="1" style="stop-color:#dcdcdc;stop-opacity:1"/></linearGradient><linearGradient id="linearGradient3660"><stop id="stop3662" offset="0" style="stop-color:#b4b4b4;stop-opacity:1"/><stop id="stop3664" offset="0.45" style="stop-color:#c8c8c8;stop-opacity:1"/><stop id="stop3666" offset="0.5" style="stop-color:#d2d2d2;stop-opacity:1"/><stop id="stop3668" offset="0.55" style="stop-color:#dcdcdc;stop-opacity:1"/><stop id="stop3670" offset="1" style="stop-color:#ffffff;stop-opacity:1"/></linearGradient><linearGradient id="linearGradient3268"><stop id="stop3270" offset="0" style="stop-color:#252525;stop-opacity:1"/><stop id="stop3272" offset="1" style="stop-color:#5f5f5f;stop-opacity:1"/></linearGradient><linearGradient id="linearGradient3298"><stop id="stop3300" offset="0" style="stop-color:#cecece;stop-opacity:1"/><stop id="stop3302" offset="1" style="stop-color:#d6d6d6;stop-opacity:1"/></linearGradient><linearGradient x1="51.48" y1="23" x2="51.48" y2="105" id="linearGradient3956" xlink:href="#linearGradient3268" gradientUnits="userSpaceOnUse" gradientTransform="matrix(0.5625,0,0,0.73125,31.000001,1.1999987)"/><linearGradient x1="45.99" y1="105" x2="45.99" y2="22.99" id="linearGradient3958" xlink:href="#linearGradient4049" gradientUnits="userSpaceOnUse" gradientTransform="matrix(0.5625,0,0,0.73125,31.000001,1.1999987)"/><filter x="-0.12" y="-0.08" width="1.24" height="1.16" color-interpolation-filters="sRGB" id="filter4036"><feGaussianBlur id="feGaussianBlur4038" stdDeviation="0.66"/></filter><linearGradient x1="51.48" y1="23" x2="51.48" y2="105" id="linearGradient4109" xlink:href="#linearGradient3268" gradientUnits="userSpaceOnUse" gradientTransform="matrix(0.56249993,0,0,0.73125,5.000003,-4.8000013)"/><linearGradient x1="45.99" y1="105" x2="45.99" y2="22.99" id="linearGradient4111" xlink:href="#linearGradient3298" gradientUnits="userSpaceOnUse" gradientTransform="matrix(0.56249993,0,0,0.73125,5.000003,-4.8000013)"/><linearGradient x1="21.5" y1="57.58" x2="21.5" y2="17.04" id="linearGradient4121" xlink:href="#linearGradient4090" gradientUnits="userSpaceOnUse"/><linearGradient x1="29.25" y1="41.25" x2="29.25" y2="62.26" id="linearGradient4123" xlink:href="#linearGradient3660" gradientUnits="userSpaceOnUse" gradientTransform="matrix(0.71428572,0,0,0.81818185,23.142857,-0.5454613)"/><linearGradient x1="34" y1="64.02" x2="34" y2="40" id="linearGradient4125" xlink:href="#linearGradient4133" gradientUnits="userSpaceOnUse" gradientTransform="matrix(0.71428572,0,0,0.81818185,23.142857,-0.5454613)"/><linearGradient x1="21.5" y1="57.58" x2="21.5" y2="17.04" id="linearGradient4127" xlink:href="#linearGradient4090" gradientUnits="userSpaceOnUse"/><linearGradient x1="29.25" y1="41.25" x2="29.25" y2="62.26" id="linearGradient4129" xlink:href="#linearGradient3660" gradientUnits="userSpaceOnUse" gradientTransform="matrix(0.71428572,0,0,0.81818185,23.142857,-0.5454613)"/><linearGradient x1="34" y1="64.02" x2="34" y2="40" id="linearGradient4131" xlink:href="#linearGradient4145" gradientUnits="userSpaceOnUse" gradientTransform="matrix(0.71428572,0,0,0.81818185,23.142857,-0.5454613)"/><linearGradient x1="21.5" y1="57.58" x2="21.5" y2="17.04" id="linearGradient4171" xlink:href="#linearGradient4090" gradientUnits="userSpaceOnUse"/><linearGradient x1="29.25" y1="41.25" x2="29.25" y2="62.26" id="linearGradient4173" xlink:href="#linearGradient3660" gradientUnits="userSpaceOnUse" gradientTransform="matrix(0.71428572,0,0,0.81818185,23.142857,-0.5454613)"/><linearGradient x1="34" y1="64.02" x2="34" y2="40" id="linearGradient4175" xlink:href="#linearGradient4145" gradientUnits="userSpaceOnUse" gradientTransform="matrix(0.71428572,0,0,0.81818185,23.142857,-0.5454613)"/><linearGradient x1="51.48" y1="23" x2="51.48" y2="105" id="linearGradient4385" xlink:href="#linearGradient3268" gradientUnits="userSpaceOnUse" gradientTransform="matrix(0.74999991,0,0,0.72499999,87.000004,1.6000027)"/><linearGradient x1="45.99" y1="105" x2="45.99" y2="22.99" id="linearGradient4387" xlink:href="#linearGradient4049" gradientUnits="userSpaceOnUse" gradientTransform="matrix(0.74999991,0,0,0.72499999,87.000004,1.6000027)"/><linearGradient x1="51.48" y1="23" x2="51.48" y2="105" id="linearGradient4391" xlink:href="#linearGradient3268" gradientUnits="userSpaceOnUse" gradientTransform="matrix(0.5625,0,0,0.73125,53.000001,1.1999987)"/><linearGradient x1="45.99" y1="105" x2="45.99" y2="22.99" id="linearGradient4393" xlink:href="#linearGradient4049" gradientUnits="userSpaceOnUse" gradientTransform="matrix(0.5625,0,0,0.73125,53.000001,1.1999987)"/><linearGradient x1="60" y1="12" x2="60" y2="84.19" id="linearGradient4419" xlink:href="#linearGradient4193" gradientUnits="userSpaceOnUse"/><linearGradient x1="60" y1="12" x2="60" y2="64.31" id="linearGradient4432" xlink:href="#linearGradient3737" gradientUnits="userSpaceOnUse"/><filter color-interpolation-filters="sRGB" id="filter4454"><feGaussianBlur id="feGaussianBlur4456" stdDeviation="0.62"/></filter><linearGradient x1="60" y1="86.48" x2="60" y2="-38.11" id="linearGradient4464" xlink:href="#linearGradient4090" gradientUnits="userSpaceOnUse"/><linearGradient x1="16" y1="85.06" x2="20.18" y2="85.06" id="linearGradient3556" xlink:href="#linearGradient3376" gradientUnits="userSpaceOnUse"/><linearGradient id="linearGradient3376"><stop id="stop3378" offset="0" style="stop-color:#767676;stop-opacity:1"/><stop id="stop3380" offset="1" style="stop-color:#fdfdfd;stop-opacity:1"/></linearGradient><linearGradient id="linearGradient3366"><stop id="stop3368" offset="0" style="stop-color:#c1ff97;stop-opacity:1"/><stop id="stop3370" offset="1" style="stop-color:#30c700;stop-opacity:1"/></linearGradient><radialGradient cx="18.09" cy="85.06" r="2.09" fx="18.09" fy="85.06" id="radialGradient2988" xlink:href="#linearGradient3366" gradientUnits="userSpaceOnUse" gradientTransform="matrix(1,0,0,1.0042736,0,-0.3635233)"/><linearGradient x1="16" y1="85.06" x2="20.18" y2="85.06" id="linearGradient4551" xlink:href="#linearGradient3376" gradientUnits="userSpaceOnUse"/><radialGradient cx="18.09" cy="85.06" r="2.09" fx="18.09" fy="85.06" id="radialGradient4553" xlink:href="#linearGradient4519" gradientUnits="userSpaceOnUse" gradientTransform="matrix(1,0,0,1.0042736,0,-0.3635233)"/><filter x="-0.12" y="-0.08" width="1.24" height="1.16" color-interpolation-filters="sRGB" id="filter4575"><feGaussianBlur id="feGaussianBlur4577" stdDeviation="0.66"/></filter><linearGradient x1="45.45" y1="92.54" x2="45.45" y2="7.02" id="ButtonShadow-0" gradientUnits="userSpaceOnUse" gradientTransform="matrix(1.0058652,0,0,0.994169,100,0)"><stop id="stop3750-8" offset="0" style="stop-color:#000000;stop-opacity:1"/><stop id="stop3752-5" offset="1" style="stop-color:#000000;stop-opacity:0.59"/></linearGradient><linearGradient x1="32.25" y1="6.13" x2="32.25" y2="90.24" id="linearGradient3780" xlink:href="#ButtonShadow-0" gradientUnits="userSpaceOnUse" gradientTransform="matrix(1.0238095,0,0,1.0119048,-1.1428571,-98.071429)"/><linearGradient x1="32.25" y1="6.13" x2="32.25" y2="90.24" id="linearGradient3772" xlink:href="#ButtonShadow-0" gradientUnits="userSpaceOnUse" gradientTransform="matrix(1.0238095,0,0,1.0119048,-1.1428571,-98.071429)"/><linearGradient x1="32.25" y1="6.13" x2="32.25" y2="90.24" id="linearGradient3725" xlink:href="#ButtonShadow-0" gradientUnits="userSpaceOnUse" gradientTransform="matrix(1.0238095,0,0,1.0119048,-1.1428571,-98.071429)"/><linearGradient x1="32.25" y1="6.13" x2="32.25" y2="90.24" id="linearGradient3721" xlink:href="#ButtonShadow-0" gradientUnits="userSpaceOnUse" gradientTransform="translate(0,-97)"/><linearGradient x1="32.25" y1="6.13" x2="32.25" y2="90.24" id="linearGradient3811" xlink:href="#ButtonShadow-0" gradientUnits="userSpaceOnUse" gradientTransform="matrix(1.0238095,0,0,1.0119048,-1.1428571,-98.071429)"/><linearGradient xlink:href="#linearGradient3737" id="linearGradient3136" gradientUnits="userSpaceOnUse" x1="60" y1="12" x2="60" y2="64.31"/><linearGradient xlink:href="#linearGradient4193" id="linearGradient3139" gradientUnits="userSpaceOnUse" x1="60" y1="12" x2="60" y2="84.19"/><radialGradient xlink:href="#linearGradient3737" id="radialGradient3143" gradientUnits="userSpaceOnUse" gradientTransform="matrix(1.1573129,0,0,0.99590774,-7.5510206,0.19713193)" cx="48" cy="90.17" fx="48" fy="90.17" r="42"/><linearGradient xlink:href="#linearGradient3737" id="linearGradient3146" gradientUnits="userSpaceOnUse" x1="36.36" y1="6" x2="36.36" y2="63.89"/><linearGradient xlink:href="#linearGradient3187" id="linearGradient3151" gradientUnits="userSpaceOnUse" x1="48" y1="90" x2="48" y2="5.99"/><linearGradient xlink:href="#linearGradient3268" id="linearGradient3154" gradientUnits="userSpaceOnUse" gradientTransform="matrix(0.74999991,0,0,0.72499999,87.000004,1.6000027)" x1="51.48" y1="23" x2="51.48" y2="105"/><linearGradient xlink:href="#linearGradient4049" id="linearGradient3156" gradientUnits="userSpaceOnUse" gradientTransform="matrix(0.74999991,0,0,0.72499999,87.000004,1.6000027)" x1="45.99" y1="105" x2="45.99" y2="22.99"/><linearGradient xlink:href="#linearGradient3268" id="linearGradient3167" gradientUnits="userSpaceOnUse" gradientTransform="matrix(0.56249993,0,0,0.73125,5.000003,-4.8000013)" x1="51.48" y1="23" x2="51.48" y2="105"/><linearGradient xlink:href="#linearGradient3298" id="linearGradient3169" gradientUnits="userSpaceOnUse" gradientTransform="matrix(0.56249993,0,0,0.73125,5.000003,-4.8000013)" x1="45.99" y1="105" x2="45.99" y2="22.99"/><linearGradient xlink:href="#linearGradient3268" id="linearGradient3176" gradientUnits="userSpaceOnUse" gradientTransform="matrix(0.5625,0,0,0.73125,31.000001,1.1999987)" x1="51.48" y1="23" x2="51.48" y2="105"/><linearGradient xlink:href="#linearGradient4049" id="linearGradient3178" gradientUnits="userSpaceOnUse" gradientTransform="matrix(0.5625,0,0,0.73125,31.000001,1.1999987)" x1="45.99" y1="105" x2="45.99" y2="22.99"/><linearGradient xlink:href="#linearGradient3268" id="linearGradient3181" gradientUnits="userSpaceOnUse" gradientTransform="matrix(0.5625,0,0,0.73125,53.000001,1.1999987)" x1="51.48" y1="23" x2="51.48" y2="105"/><linearGradient xlink:href="#linearGradient4049" id="linearGradient3183" gradientUnits="userSpaceOnUse" gradientTransform="matrix(0.5625,0,0,0.73125,53.000001,1.1999987)" x1="45.99" y1="105" x2="45.99" y2="22.99"/></defs><metadata id="metadata2413"/><g id="layer2" display="none"><rect width="86" height="85" rx="6" ry="6" x="5" y="7" id="rect3745" style="fill-rule:nonzero;fill:url(#ButtonShadow);filter:url(#filter3174);opacity:0.9"/></g><g id="layer4" display="inline"><path d="m12-95.03c-5.51 0-10.03 4.52-10.03 10.03l0 71c0 5.51 4.52 10.03 10.03 10.03l72 0c5.51 0 10.03-4.52 10.03-10.03l0-71c0-5.51-4.52-10.03-10.03-10.03l-72 0z" transform="scale(1,-1)" id="path3786" style="display:inline;fill-rule:nonzero;fill:url(#linearGradient3811);opacity:0.08"/><path d="m12-94.03c-4.97 0-9.03 4.06-9.03 9.03l0 71c0 4.97 4.06 9.03 9.03 9.03l72 0c4.97 0 9.03-4.06 9.03-9.03l0-71c0-4.97-4.06-9.03-9.03-9.03l-72 0z" transform="scale(1,-1)" id="path3778" style="display:inline;fill-rule:nonzero;fill:url(#linearGradient3780);opacity:0.1"/><path d="m12-93c-4.41 0-8 3.59-8 8l0 71c0 4.41 3.59 8 8 8l72 0c4.41 0 8-3.59 8-8l0-71c0-4.41-3.59-8-8-8l-72 0z" transform="scale(1,-1)" id="path3770" style="display:inline;fill-rule:nonzero;fill:url(#linearGradient3772);opacity:0.2"/><rect width="86" height="85" rx="7" ry="7" x="5" y="-92" transform="scale(1,-1)" id="rect3723" style="display:inline;fill-rule:nonzero;fill:url(#linearGradient3725);opacity:0.3"/><rect width="84" height="84" rx="6" ry="6" x="6" y="-91" transform="scale(1,-1)" id="rect3716" style="display:inline;fill-rule:nonzero;fill:url(#linearGradient3721);opacity:0.45"/></g><rect id="rect2419" y="6" x="6" ry="6" rx="6" height="84" width="84" style="fill-rule:nonzero;fill:url(#linearGradient3151)"/><path id="rect3728" d="M12 6C8.68 6 6 8.68 6 12l0 2 0 68 0 2c0 0.33 0.04 0.65 0.09 0.97 0.05 0.3 0.1 0.6 0.19 0.88 0.01 0.03 0.02 0.06 0.03 0.09 0.1 0.29 0.23 0.55 0.38 0.81 0.14 0.27 0.32 0.54 0.5 0.78 0.18 0.25 0.37 0.47 0.59 0.69 0.44 0.43 0.94 0.81 1.5 1.09 0.28 0.14 0.57 0.25 0.88 0.34-0.26-0.1-0.49-0.24-0.72-0.37-0.01 0-0.02 0-0.03 0-0.03-0.02-0.06-0.04-0.09-0.06-0.12-0.08-0.23-0.16-0.34-0.25-0.11-0.08-0.21-0.16-0.31-0.25C8.48 88.56 8.31 88.37 8.16 88.19 8.05 88.06 7.94 87.92 7.84 87.78 7.82 87.74 7.81 87.7 7.78 87.66 7.72 87.55 7.65 87.45 7.59 87.34 7.49 87.15 7.39 86.93 7.31 86.72 7.3 86.7 7.29 86.68 7.28 86.66 7.25 86.56 7.25 86.47 7.22 86.38 7.19 86.27 7.15 86.17 7.13 86.06 7.05 85.72 7 85.36 7 85L7 83 7 15 7 13C7 10.22 9.22 8 12 8l2 0 68 0 2 0c2.78 0 5 2.22 5 5l0 2 0 68 0 2c0 0.36-0.05 0.72-0.12 1.06-0.04 0.21-0.09 0.4-0.16 0.59-0.01 0.02-0.02 0.04-0.03 0.06-0.06 0.17-0.14 0.37-0.22 0.53-0.04 0.08-0.08 0.17-0.12 0.25-0.05 0.1-0.13 0.19-0.19 0.28-0.09 0.14-0.2 0.28-0.31 0.41-0.14 0.17-0.3 0.35-0.47 0.5-0.01 0.01-0.02 0.02-0.03 0.03-0.14 0.13-0.29 0.23-0.44 0.34-0.1 0.07-0.2 0.15-0.31 0.22-0.01 0-0.02 0-0.03 0-0.23 0.14-0.46 0.27-0.72 0.38 0.3-0.1 0.6-0.2 0.88-0.34 0.56-0.28 1.06-0.67 1.5-1.09 0.22-0.21 0.41-0.44 0.59-0.69 0.18-0.25 0.36-0.51 0.5-0.78 0.14-0.27 0.28-0.52 0.38-0.81 0.01-0.03 0.02-0.06 0.03-0.09 0.09-0.28 0.14-0.58 0.19-0.87C89.96 84.65 90 84.33 90 84l0-2 0-68 0-2C90 8.68 87.32 6 84 6L12 6z" style="fill-rule:nonzero;fill:url(#linearGradient3146);opacity:0.5"/><path id="path3615" d="M12 90C8.68 90 6 87.32 6 84L6 82 6 14 6 12c0-0.33 0.04-0.65 0.09-0.97 0.05-0.3 0.1-0.6 0.19-0.87C6.29 10.13 6.3 10.09 6.31 10.06 6.41 9.77 6.55 9.52 6.69 9.25 6.83 8.98 7 8.71 7.19 8.47 7.37 8.22 7.56 8 7.78 7.78 8.22 7.35 8.72 6.97 9.28 6.69 9.56 6.55 9.85 6.44 10.16 6.34 9.9 6.44 9.67 6.58 9.44 6.72c-0.01 0-0.02 0-0.03 0-0.03 0.02-0.06 0.04-0.09 0.06-0.12 0.08-0.23 0.16-0.34 0.25-0.11 0.08-0.21 0.16-0.31 0.25C8.48 7.44 8.31 7.63 8.16 7.81 8.05 7.94 7.94 8.08 7.84 8.22 7.82 8.26 7.81 8.3 7.78 8.34 7.72 8.45 7.65 8.55 7.59 8.66 7.49 8.85 7.39 9.07 7.31 9.28 7.3 9.3 7.29 9.32 7.28 9.34 7.25 9.44 7.25 9.53 7.22 9.63 7.19 9.73 7.15 9.83 7.13 9.94 7.05 10.28 7 10.64 7 11l0 2 0 68 0 2c0 2.78 2.22 5 5 5l2 0 68 0 2 0c2.78 0 5-2.22 5-5l0-2 0-68 0-2C89 10.64 88.95 10.28 88.88 9.94 88.83 9.73 88.79 9.54 88.72 9.34 88.71 9.32 88.7 9.3 88.69 9.28 88.62 9.11 88.55 8.91 88.47 8.75 88.43 8.67 88.39 8.58 88.34 8.5 88.29 8.4 88.22 8.31 88.16 8.22 88.06 8.08 87.95 7.94 87.84 7.81 87.7 7.64 87.54 7.47 87.38 7.31 87.36 7.3 87.36 7.29 87.34 7.28 87.21 7.16 87.06 7.05 86.91 6.94 86.8 6.86 86.7 6.78 86.59 6.72c-0.01 0-0.02 0-0.03 0-0.23-0.14-0.46-0.27-0.72-0.37 0.3 0.1 0.6 0.2 0.88 0.34 0.56 0.28 1.06 0.67 1.5 1.09 0.22 0.21 0.41 0.44 0.59 0.69 0.18 0.25 0.36 0.51 0.5 0.78 0.14 0.27 0.28 0.52 0.38 0.81 0.01 0.03 0.02 0.06 0.03 0.09 0.09 0.28 0.14 0.58 0.19 0.88C89.96 11.35 90 11.67 90 12l0 2 0 68 0 2c0 3.32-2.68 6-6 6l-72 0z" style="fill-rule:nonzero;fill:url(#radialGradient3143);opacity:0.2"/><rect id="rect4442" y="12" x="35" ry="4" rx="4" height="73" width="50" style="display:inline;fill-rule:evenodd;fill:url(#linearGradient4464);filter:url(#filter4454);opacity:0.4"/><rect id="rect3612" y="12" x="36" ry="4.09" rx="3.96" height="72" width="48" style="display:inline;fill-rule:evenodd;fill:url(#linearGradient3139)"/><path id="rect4421" d="M39.97 12C37.78 12 36 13.83 36 16.09l0 63.81c0 1.07 0.41 2.05 1.06 2.78C37.02 82.44 37 82.17 37 81.91l0-63.81C37 15.83 38.68 14 40.78 14l38.44 0C81.32 14 83 15.83 83 18.09l0 63.81c0 0.26-0.02 0.53-0.06 0.78C83.59 81.96 84 80.98 84 79.91l0-63.81C84 13.83 82.22 12 80.03 12l-40.06 0z" style="display:inline;fill-rule:evenodd;fill:url(#linearGradient3136);opacity:0.8"/><g id="g4545" transform="translate(3,-4)"><path id="path4547" transform="matrix(0,1.6709402,1.6638297,0,-122.03844,53.282815)" d="m20.18 85.06a2.09 2.1 0 1 1-4.18 0 2.09 2.1 0 1 1 4.18 0z" style="fill-rule:nonzero;fill:url(#linearGradient4551)"/><path id="path4549" transform="matrix(1.1923077,0,0,1.1872339,-2.0769275,-17.480158)" d="m20.18 85.06a2.09 2.1 0 1 1-4.18 0 2.09 2.1 0 1 1 4.18 0z" style="fill-rule:nonzero;fill:url(#radialGradient4553);stroke-linecap:square;stroke-miterlimit:4;stroke-opacity:0.53;stroke-width:0.84;stroke:#000"/></g><g id="text4579" transform="matrix(0,-1,1,0,0,0)" style="-inkscape-font-specification:'Arial Black, Bold';fill:#333;font-family:Arial Black;font-size:3;font-weight:bold;line-height:125;text-align:start;text-anchor:start;writing-mode:lr-tb"/><path id="path4389" d="m69.88 18.75 2.25 0c0.62 0 1.13 0.65 1.13 1.46l0 55.58c0 0.81-0.5 1.46-1.12 1.46l-2.25 0c-0.62 0-1.12-0.65-1.12-1.46l0-55.58c0-0.81 0.5-1.46 1.13-1.46z" style="display:inline;fill-rule:evenodd;fill:url(#linearGradient3181);stroke-linejoin:round;stroke-miterlimit:4;stroke-width:1.5;stroke:url(#linearGradient3183)"/><path id="path3954" d="m47.88 18.75 2.25 0c0.62 0 1.13 0.65 1.13 1.46l0 55.58c0 0.81-0.5 1.46-1.12 1.46l-2.25 0c-0.62 0-1.12-0.65-1.12-1.46l0-55.58c0-0.81 0.5-1.46 1.13-1.46z" style="display:inline;fill-rule:evenodd;fill:url(#linearGradient3176);stroke-linejoin:round;stroke-miterlimit:4;stroke-width:1.5;stroke:url(#linearGradient3178)"/><g id="g4102" transform="translate(3,16)"><path id="path4057" transform="matrix(1.0514597,0,0,1.0359116,23.393617,-4.6519336)" d="M17.56 36C16.13 36 15 37.2 15 38.63l0 14.75C15 54.8 16.13 56 17.56 56l7.88 0C26.87 56 28 54.8 28 53.38l0-14.75C28 37.2 26.87 36 25.44 36l-7.87 0z" style="-inkscape-font-specification:Abandoned Bitplane;block-progression:tb;color:#000000;direction:ltr;display:inline;enable-background:accumulate;fill-rule:evenodd;fill:url(#linearGradient4127);filter:url(#filter4575);font-family:Abandoned Bitplane;font-size:medium;letter-spacing:normal;line-height:normal;opacity:0.8;overflow:visible;text-align:start;text-anchor:start;text-decoration:none;text-indent:0;text-transform:none;word-spacing:normal;writing-mode:lr-tb"/><rect id="rect4059" y="33" x="41" ry="1.64" rx="1.43" height="18" width="10" style="fill-rule:evenodd;fill:url(#linearGradient4129);stroke-linejoin:round;stroke-miterlimit:4;stroke-width:2;stroke:url(#linearGradient4131)"/><path id="path4061" d="m42 41 0 2 8 0 0-2-8 0z" style="-inkscape-font-specification:Abandoned Bitplane;block-progression:tb;color:#000000;direction:ltr;display:inline;enable-background:accumulate;fill:#000;font-family:Abandoned Bitplane;font-size:medium;letter-spacing:normal;line-height:normal;opacity:0.2;overflow:visible;text-align:start;text-anchor:start;text-decoration:none;text-indent:0;text-transform:none;word-spacing:normal;writing-mode:lr-tb"/></g><path id="path4107" d="m21.88 12.75 2.25 0c0.62 0 1.13 0.65 1.13 1.46l0 55.58c0 0.81-0.5 1.46-1.12 1.46l-2.25 0c-0.62 0-1.12-0.65-1.12-1.46l0-55.58c0-0.81 0.5-1.46 1.13-1.46z" style="display:inline;fill-rule:evenodd;fill:url(#linearGradient3167);stroke-linejoin:round;stroke-miterlimit:4;stroke-width:1.5;stroke:url(#linearGradient3169)"/><g id="g4113" transform="translate(-23,-12)"><path id="path4115" transform="matrix(1.0514597,0,0,1.0359116,23.393617,-4.6519336)" d="M17.56 36C16.13 36 15 37.2 15 38.63l0 14.75C15 54.8 16.13 56 17.56 56l7.88 0C26.87 56 28 54.8 28 53.38l0-14.75C28 37.2 26.87 36 25.44 36l-7.87 0z" style="-inkscape-font-specification:Abandoned Bitplane;block-progression:tb;color:#000000;direction:ltr;display:inline;enable-background:accumulate;fill-rule:evenodd;fill:url(#linearGradient4121);filter:url(#filter4036);font-family:Abandoned Bitplane;font-size:medium;letter-spacing:normal;line-height:normal;opacity:0.8;overflow:visible;text-align:start;text-anchor:start;text-decoration:none;text-indent:0;text-transform:none;word-spacing:normal;writing-mode:lr-tb"/><rect id="rect4117" y="33" x="41" ry="1.64" rx="1.43" height="18" width="10" style="fill-rule:evenodd;fill:url(#linearGradient4123);stroke-linejoin:round;stroke-miterlimit:4;stroke-width:2;stroke:url(#linearGradient4125)"/><path id="path4119" d="m42 41 0 2 8 0 0-2-8 0z" style="-inkscape-font-specification:Abandoned Bitplane;block-progression:tb;color:#000000;direction:ltr;display:inline;enable-background:accumulate;fill:#000;font-family:Abandoned Bitplane;font-size:medium;letter-spacing:normal;line-height:normal;opacity:0.2;overflow:visible;text-align:start;text-anchor:start;text-decoration:none;text-indent:0;text-transform:none;word-spacing:normal;writing-mode:lr-tb"/></g><g id="g4163" transform="translate(25,4)"><path id="path4165" transform="matrix(1.0514597,0,0,1.0359116,23.393617,-4.6519336)" d="M17.56 36C16.13 36 15 37.2 15 38.63l0 14.75C15 54.8 16.13 56 17.56 56l7.88 0C26.87 56 28 54.8 28 53.38l0-14.75C28 37.2 26.87 36 25.44 36l-7.87 0z" style="-inkscape-font-specification:Abandoned Bitplane;block-progression:tb;color:#000000;direction:ltr;display:inline;enable-background:accumulate;fill-rule:evenodd;fill:url(#linearGradient4171);filter:url(#filter4036);font-family:Abandoned Bitplane;font-size:medium;letter-spacing:normal;line-height:normal;opacity:0.8;overflow:visible;text-align:start;text-anchor:start;text-decoration:none;text-indent:0;text-transform:none;word-spacing:normal;writing-mode:lr-tb"/><rect id="rect4167" y="33" x="41" ry="1.64" rx="1.43" height="18" width="10" style="fill-rule:evenodd;fill:url(#linearGradient4173);stroke-linejoin:round;stroke-miterlimit:4;stroke-width:2;stroke:url(#linearGradient4175)"/><path id="path4169" d="m42 41 0 2 8 0 0-2-8 0z" style="-inkscape-font-specification:Abandoned Bitplane;block-progression:tb;color:#000000;direction:ltr;display:inline;enable-background:accumulate;fill:#000;font-family:Abandoned Bitplane;font-size:medium;letter-spacing:normal;line-height:normal;opacity:0.2;overflow:visible;text-align:start;text-anchor:start;text-decoration:none;text-indent:0;text-transform:none;word-spacing:normal;writing-mode:lr-tb"/></g></svg>