<svg xmlns:svg="http://www.w3.org/2000/svg" xmlns="http://www.w3.org/2000/svg" xmlns:xlink="http://www.w3.org/1999/xlink" width="48" height="48" id="svg7854" version="1"><defs id="defs7856"><linearGradient id="linearGradient24230"><stop id="stop24232" offset="0" style="stop-color:#677579;stop-opacity:1"/><stop id="stop24234" offset="1" style="stop-color:#333333;stop-opacity:1"/></linearGradient><linearGradient id="linearGradient4228"><stop offset="0" id="stop4230" style="stop-color:#d9d9d9;stop-opacity:1"/><stop offset="1" id="stop4232" style="stop-color:#c7c7c7;stop-opacity:1"/></linearGradient><linearGradient id="linearGradient4244"><stop offset="0" id="stop4246" style="stop-color:#f0f0f0;stop-opacity:1"/><stop offset="1" id="stop4248" style="stop-color:#e0e0e0;stop-opacity:1"/></linearGradient><linearGradient xlink:href="#linearGradient4228" id="linearGradient6613" gradientUnits="userSpaceOnUse" gradientTransform="matrix(1.0039034,0,0,1,-0.29620283,4.059141)" x1="7.6" y1="28.48" x2="36.18" y2="40.94"/><radialGradient xlink:href="#linearGradient4244" id="radialGradient6615" gradientUnits="userSpaceOnUse" gradientTransform="matrix(1.2901853,0.7884154,-0.7129611,1.1796023,-2.6420701,-1.1028807)" cx="15.57" cy="2.96" fx="15.57" fy="2.96" r="20.94"/><linearGradient xlink:href="#linearGradient24230" id="linearGradient6626" gradientUnits="userSpaceOnUse" gradientTransform="matrix(-1,0,0,0.587604,48.508517,9.782973)" x1="12.51" y1="30.59" x2="12.51" y2="16.89"/><linearGradient xlink:href="#linearGradient24230" id="linearGradient6628" gradientUnits="userSpaceOnUse" gradientTransform="matrix(1,0,0,0.587604,-1.1501119,9.782973)" x1="12.51" y1="30.59" x2="12.51" y2="16.89"/><linearGradient xlink:href="#linearGradient24230" id="linearGradient6635" gradientUnits="userSpaceOnUse" gradientTransform="translate(10.990165,-3.9992796)" x1="12.51" y1="30.59" x2="12.51" y2="23.64"/><filter x="-0.07" width="1.14" y="-0.26" height="1.52" id="filter7681"><feGaussianBlur stdDeviation="0.46" id="feGaussianBlur7683"/></filter></defs><metadata id="metadata7859"/><g id="layer1"><path d="m9.01 8.97c-0.63 0-1.04 0.29-1.29 0.85 0 0-4.49 20.02-4.49 20.02 0 0-0.25 0.68-0.25 1.8 0 0 0 5.72 0 5.72 0 1.1 0.66 1.65 1.66 1.65l38.71 0c0.99 0 1.6-0.73 1.6-1.87l0-5.72c0 0 0.11-0.78-0.09-1.33L40.13 9.99C39.95 9.47 39.49 8.99 39 8.97l-29.99 0z" id="path6597" style="fill:none;stroke-linecap:round;stroke-linejoin:round;stroke-width:2;stroke:#888a85"/><path d="m2.99 31.06 0.77-0.69 37.76 0.06 3.48 0.32 0 6.44c0 1.13-0.61 1.84-1.6 1.84l-38.73 0c-1 0-1.67-0.54-1.67-1.62l0-6.34z" id="path6599" fill="url(#linearGradient6613)"/><path d="m3.28 29.95c-0.72 1.48 0 2.41 1.04 2.41 0 0 39.12 0 39.12 0 1.12-0.02 1.85-1.02 1.43-2.16L40.14 9.98C39.96 9.47 39.49 8.99 39 8.97l-29.95 0c-0.63 0-1.04 0.31-1.29 0.86 0 0-4.48 20.11-4.48 20.11z" id="path6601" fill="url(#radialGradient6615)"/><path d="m44.84 29.69c0.06 1.25-0.42 2.32-1.33 2.34 0 0-38.42 0-38.42 0-1.3 0-1.88-0.32-2.1-0.87 0.09 0.94 0.83 1.65 2.1 1.65 0 0 38.42 0 38.42 0 1.08-0.03 1.77-1.42 1.36-2.99l-0.03-0.13z" id="path6603" fill="#fff"/><path d="m10.97 11.94 5.03 0-1.41 17.22-6.44 0 2.83-17.22z" id="rect6619" fill="url(#linearGradient6628)"/><path id="path6624" d="m36.39 11.94-5.03 0 1.41 17.22 6.44 0-2.83-17.22z" fill="url(#linearGradient6626)"/><path d="m20.99 12 5.03 0 0.94 16.97-6.9 0 0.94-16.97z" id="rect6630" fill="url(#linearGradient6635)"/><rect id="rect7619" width="12.88" height="3.5" x="18.13" y="28.63" rx="1.75" ry="1.75" transform="matrix(1.0873786,0,0,1.0873786,-3.1560708,-4.6794242)" style="fill:#000;filter:url(#filter7681);opacity:0.36"/><path d="m27.05 20.97-7.56 0.09-0.37 0.63-1.25 7.22 0.03 0.06 11.16 0-1.41-6.25-0.59-1.75z" id="path7612" style="fill:#babdb6;stroke:#555753"/><path d="m17.91 28.96 11.14 0-1.41-6.05-8.49 0.09-1.24 5.97z" id="path6637" fill="#7eee7e"/><path d="m19.5 21.06-0.44 1.94 8.55 0.02-0.56-2.06-7.55 0.1z" id="path7608" fill="#b4ffb4"/><path d="m19.45 21.09-0.33 0.6-1.26 7.22 1.07-4.94 8.96 0.01-0.21-1.02-8.51-0.02 0.28-1.85z" id="path7610" fill="#e6ffe6"/><rect transform="matrix(1.0485436,0,0,1.0485436,-12.470492,-14.397801)" ry="1.75" rx="1.75" y="28.63" x="18.13" height="3.5" width="12.88" id="rect7694" style="fill:#000;filter:url(#filter7681);opacity:0.36"/><path id="path7696" d="m16.66 10.52-7.29-0.09-0.36 0.6-1.21 6.96 0.03 0.06 10.76 0-1.36-6.03-0.57-1.51z" style="fill:#babdb6;stroke-width:1;stroke:#555753"/><path id="path7698" d="m7.84 18.04 10.74 0-1.36-5.84-8.18 0.09-1.19 5.75z" fill="#7eee7e"/><path id="path7700" d="m9.38 10.43-0.43 1.87 8.25 0.02-0.54-1.8-7.28-0.08z" fill="#b4ffb4"/><path id="path7702" d="m9.33 10.45-0.31 0.58-1.22 6.97 1.03-4.76 8.64 0.01-0.2-0.98-8.21-0.02 0.27-1.78z" fill="#e6ffe6"/><rect id="rect7706" width="12.88" height="3.5" x="18.13" y="28.63" rx="1.75" ry="1.75" transform="matrix(1.0873786,0,0,1.0873786,9.0939292,-7.6169242)" style="fill:#000;filter:url(#filter7681);opacity:0.36"/><path d="m39.3 18.04-7.56 0.09-0.37 0.63-1.25 7.22 0.03 0.06 11.16 0-1.41-6.25-0.59-1.75z" id="path7708" style="fill:#babdb6;stroke:#555753"/><path d="m30.16 26.02 11.14 0-1.41-6.05-8.49 0.09-1.24 5.97z" id="path7710" fill="#7eee7e"/><path d="m31.75 18.13-0.44 1.94 8.55 0.02-0.56-2.06-7.55 0.1z" id="path7712" fill="#b4ffb4"/><path d="m31.7 18.16-0.33 0.6-1.26 7.22 1.07-4.94 8.96 0.01-0.21-1.02-8.51-0.02 0.28-1.85z" id="path7714" fill="#e6ffe6"/></g></svg>