<svg xmlns:svg="http://www.w3.org/2000/svg" xmlns="http://www.w3.org/2000/svg" xmlns:xlink="http://www.w3.org/1999/xlink" width="48" height="48" id="svg7854" version="1"><defs id="defs7856"><linearGradient id="linearGradient24230"><stop id="stop24232" offset="0" style="stop-color:#677579;stop-opacity:1"/><stop id="stop24234" offset="1" style="stop-color:#333333;stop-opacity:1"/></linearGradient><linearGradient id="linearGradient4228"><stop offset="0" id="stop4230" style="stop-color:#d9d9d9;stop-opacity:1"/><stop offset="1" id="stop4232" style="stop-color:#c7c7c7;stop-opacity:1"/></linearGradient><linearGradient id="linearGradient4244"><stop offset="0" id="stop4246" style="stop-color:#f0f0f0;stop-opacity:1"/><stop offset="1" id="stop4248" style="stop-color:#e0e0e0;stop-opacity:1"/></linearGradient><linearGradient xlink:href="#linearGradient4228" id="linearGradient6613" gradientUnits="userSpaceOnUse" gradientTransform="matrix(0.65757044,0,0,1.1432584,8.23906,1.1136797)" x1="7.6" y1="28.48" x2="36.18" y2="40.94"/><radialGradient xlink:href="#linearGradient4244" id="radialGradient6615" gradientUnits="userSpaceOnUse" gradientTransform="matrix(0.84508901,0.90136249,-0.46699927,1.3485902,6.702484,-4.7878447)" cx="15.57" cy="2.96" fx="15.57" fy="2.96" r="20.94"/><linearGradient xlink:href="#linearGradient24230" id="linearGradient6635" gradientUnits="userSpaceOnUse" gradientTransform="matrix(1.1432584,0,0,1.1432584,9.685379,-8.099177)" x1="12.51" y1="30.59" x2="12.51" y2="23.64"/><filter x="-0.07" width="1.14" y="-0.26" height="1.52" id="filter7681"><feGaussianBlur stdDeviation="0.46" id="feGaussianBlur7683"/></filter></defs><metadata id="metadata7859"/><g id="layer1"><path d="m14.34 6.73c-0.41 0-0.68 0.34-0.84 0.98 0 0-2.94 22.89-2.94 22.89 0 0-0.16 0.78-0.16 2.06 0 0 0 6.54 0 6.54 0 1.25 0.43 1.88 1.09 1.88l25.36 0c0.65 0 1.05-0.83 1.05-2.14l0-6.54c0 0 0.07-0.89-0.06-1.52L34.72 7.89C34.6 7.3 34.3 6.75 33.98 6.73l-19.64 0z" id="path6597" style="fill:none;stroke-linecap:round;stroke-linejoin:round;stroke-width:1.73;stroke:#888a85"/><path d="m10.39 31.98 0.5-0.79 24.73 0.07 2.28 0.36 0 7.36c0 1.29-0.4 2.11-1.05 2.11l-25.37 0c-0.66 0-1.09-0.62-1.09-1.86l0-7.25z" id="path6599" fill="url(#linearGradient6613)"/><path d="m10.58 30.72c-0.47 1.69 0 2.76 0.68 2.76 0 0 25.62 0 25.62 0 0.74-0.03 1.21-1.17 0.94-2.47L34.73 7.89C34.61 7.3 34.3 6.75 33.98 6.73l-19.62 0c-0.41 0-0.68 0.35-0.84 0.99 0 0-2.93 23-2.93 23z" id="path6601" fill="url(#radialGradient6615)"/><path d="m37.81 30.41c0.04 1.43-0.27 2.65-0.87 2.68 0 0-25.17 0-25.17 0-0.85 0-1.23-0.37-1.38-0.99 0.06 1.08 0.55 1.89 1.38 1.89 0 0 25.17 0 25.17 0 0.71-0.04 1.16-1.63 0.89-3.42l-0.02-0.15z" id="path6603" fill="#fff"/><path d="m21.12 10.19 5.75 0 1.07 19.41-7.89 0 1.07-19.41z" id="rect6630" fill="url(#linearGradient6635)"/><rect id="rect7619" width="12.88" height="3.5" x="18.13" y="28.63" rx="1.75" ry="1.75" transform="matrix(1.0607448,0,0,1.0607448,-2.0545438,-11.072192)" style="fill:#000;filter:url(#filter7681);opacity:0.36"/><path d="m27.19 14.33-6.81 0.08-0.34 0.56-1.13 6.5 0.03 0.06 10.04 0-1.27-5.63-0.53-1.58z" id="path7612" style="fill:#babdb6;stroke-width:0.9;stroke:#555753"/><path d="m18.95 21.52 10.02 0-1.27-5.45-7.64 0.08-1.11 5.37z" id="path6637" fill="#7eee7e"/><path d="m20.39 14.41-0.4 1.74 7.7 0.02-0.51-1.85-6.79 0.09z" id="path7608" fill="#b4ffb4"/><path d="m20.35 14.44-0.29 0.54-1.14 6.5 0.96-4.44 8.06 0-0.19-0.92-7.66-0.02 0.26-1.66z" id="path7610" fill="#e6ffe6"/></g></svg>