<svg xmlns:svg="http://www.w3.org/2000/svg" xmlns="http://www.w3.org/2000/svg" xmlns:xlink="http://www.w3.org/1999/xlink" version="1" width="48" height="48" id="svg1307"><metadata id="metadata36"/><defs id="defs1309"><linearGradient id="linearGradient4867"><stop offset="0" id="stop4869" style="stop-color:#0079ff;stop-opacity:1"/><stop offset="1" id="stop4871" style="stop-color:#00afff;stop-opacity:1"/></linearGradient><linearGradient id="linearGradient4861"><stop offset="0" id="stop4863" style="stop-color:#787878;stop-opacity:1"/><stop offset="1" id="stop4865" style="stop-color:#323232;stop-opacity:1"/></linearGradient><linearGradient x1="21.35" y1="45.17" x2="21.35" y2="4.32" id="linearGradient5969" xlink:href="#linearGradient2789" gradientUnits="userSpaceOnUse" gradientTransform="matrix(0.9159027,0,0,0.9159027,2.4450561,0.3626785)"/><linearGradient x1="25.59" y1="20.93" x2="26.14" y2="51.03" id="linearGradient5971" xlink:href="#linearGradient2789" gradientUnits="userSpaceOnUse" gradientTransform="matrix(1.029875,0,0,1.029875,-0.233294,-2.458137)"/><linearGradient x1="7.27" y1="7.14" x2="9.81" y2="5.66" id="linearGradient5978" xlink:href="#linearGradient4867" gradientUnits="userSpaceOnUse" gradientTransform="matrix(2.742212,0,0,2.838566,-4.403543,-5.255819)"/><radialGradient cx="10.5" cy="10.5" r="10.5" fx="10.5" fy="10.5" id="radialGradient5981" xlink:href="#linearGradient2276" gradientUnits="userSpaceOnUse" gradientTransform="matrix(2.147084,4.691471e-7,-4.692465e-7,2.147071,1.426465,0.43105)"/><linearGradient id="linearGradient6917"><stop id="stop6919" offset="0" style="stop-color:#000000;stop-opacity:1"/><stop id="stop6921" offset="1" style="stop-color:#000000;stop-opacity:0"/></linearGradient><linearGradient id="linearGradient2789"><stop id="stop2791" offset="0" style="stop-color:#ffffff;stop-opacity:1"/><stop id="stop2793" offset="1" style="stop-color:#ffffff;stop-opacity:0"/></linearGradient><linearGradient id="linearGradient2322"><stop id="stop2324" offset="0" style="stop-color:#ffffff;stop-opacity:1"/><stop id="stop2326" offset="1" style="stop-color:#c1c7bc;stop-opacity:1"/></linearGradient><linearGradient id="linearGradient2276"><stop id="stop2278" offset="0" style="stop-color:#f57900;stop-opacity:1"/><stop id="stop2280" offset="1" style="stop-color:#fcaf3e;stop-opacity:1"/></linearGradient><radialGradient cx="16" cy="27.88" r="12.13" fx="16" fy="27.88" id="radialGradient6175" xlink:href="#linearGradient2276" gradientUnits="userSpaceOnUse" gradientTransform="matrix(1.7319588,0,0,0.57731957,-3.7113407,23.907216)"/><radialGradient cx="10.78" cy="15.49" r="17.71" fx="10.78" fy="15.49" id="radialGradient6177" xlink:href="#linearGradient2322" gradientUnits="userSpaceOnUse" gradientTransform="matrix(1.0964208,0,0,1.0539452,12.107599,4.2630399)"/><radialGradient xlink:href="#linearGradient4861" id="radialGradient4195" cx="23.97" cy="22.97" fx="23.97" fy="22.97" r="21.97" gradientTransform="matrix(1,0,0,1.0000026,0,-5.9565347e-5)" gradientUnits="userSpaceOnUse"/></defs><path d="M41.36 23A17.43 17.5 0 1 1 6.5 23 17.43 17.5 0 1 1 41.36 23Z" id="path6158" style="fill:url(#radialGradient6177);stroke-linecap:round;stroke-linejoin:round;stroke-width:1;stroke:#babdb6"/><path d="M23.97 5.34C14.46 5.34 6.75 13.02 6.75 22.53c0 0.39 0.04 0.78 0.06 1.16 0.6-8.96 8.04-16.03 17.16-16.03 9.11 0 16.56 7.07 17.16 16.03 0.02-0.38 0.06-0.77 0.06-1.16 0-9.5-7.71-17.19-17.22-17.19z" id="path6160" style="fill:#000;opacity:0.12"/><path d="M23.17 1.51C11.7 1.94 2.5 11.41 2.5 22.98c0 11.85 9.62 21.47 21.47 21.47 11.85 0 21.47-9.62 21.47-21.47 0-11.85-9.62-21.47-21.47-21.47-0.28 0-0.53-0.01-0.81 0zm-0.07 4.29c0.29-0.01 0.58 0 0.87 0 9.49 0 17.18 7.7 17.18 17.17 0 9.48-7.69 17.17-17.18 17.17-9.49 0-17.18-7.7-17.18-17.17 0-9.18 7.23-16.71 16.3-17.17z" id="path6162" style="fill:url(#radialGradient4195);stroke-linecap:round;stroke-linejoin:round;stroke-width:1;stroke:#5a5a5a"/><path d="m24.49 24.49 0.01-15.95C19.06 8.74 15.1 10.66 11.95 14.99l12.54 9.5z" id="path6164" style="fill:url(#linearGradient5978);stroke:#005cff"/><path d="m44.44 23.03a20.47 20.47 0 0 1-40.94 0 20.47 20.47 0 1 1 40.94 0z" id="path6166" style="fill:none;opacity:0.51;stroke-linecap:round;stroke-linejoin:round;stroke-width:1;stroke:url(#linearGradient5971)"/><path d="m11.62 14.88 11.58 11.93 12.36-1.37L24.36 23.76 11.62 14.88Z" id="path6168" style="fill:#555753;stroke-linecap:round;stroke-linejoin:round;stroke:#2e3436"/><path d="m26.25 25.06a2.69 2.69 0 0 1-5.37 0 2.69 2.69 0 1 1 5.38 0z" id="path6170" style="fill:#555753;stroke-linecap:round;stroke-linejoin:round;stroke:#2e3436"/><path d="m22.4 24.47a0.75 0.75 0 1 1 1.5 0 0.75 0.75 0 0 1-1.5 0z" id="path6172" style="fill:#fff;opacity:0.47"/><path d="m42.17 23.03a18.2 18.2 0 0 1-36.41 0 18.2 18.2 0 1 1 36.41 0z" id="path5967" style="fill:none;opacity:0.51;stroke-linecap:round;stroke-linejoin:round;stroke-width:1;stroke:url(#linearGradient5969)"/></svg>