<svg xmlns:svg="http://www.w3.org/2000/svg" xmlns="http://www.w3.org/2000/svg" id="svg3692" height="48" width="48" version="1.1"><defs id="defs3694"><linearGradient id="linearGradient3619" y2="33.96" gradientUnits="userSpaceOnUse" x2="15.22" gradientTransform="translate(2.9799,-3.1217)" y1="22.29" x1="11.57"><stop id="stop2687" offset="0" style="stop-color:#fff;stop-opacity:0.27"/><stop id="stop2689" offset="1" style="stop-color:#fff;stop-opacity:0"/></linearGradient><linearGradient id="linearGradient3648" y2="43.44" gradientUnits="userSpaceOnUse" x2="29.65" y1="2" x1="29.65"><stop id="stop3644" offset="0" stop-color="#fff"/><stop id="stop3646" offset="1" style="stop-color:#fff;stop-opacity:0"/></linearGradient><radialGradient id="radialGradient3627" gradientUnits="userSpaceOnUse" cy="25.63" cx="13.14" gradientTransform="matrix(0,2.6541,-3.1628,0,97.183,-26.676)" r="13.93"><stop id="stop3692" offset="0" stop-color="#ffeb9f"/><stop id="stop3694" offset="0.26" stop-color="#ffd57e"/><stop id="stop3696" offset="0.66" stop-color="#ffbc43"/><stop id="stop3698" offset="1" stop-color="#ff921a"/></radialGradient><linearGradient id="linearGradient3629" y2="9.58" gradientUnits="userSpaceOnUse" x2="21.48" gradientTransform="matrix(1.6509,0,0,1.6568,-11.466,-15.046)" y1="36.26" x1="21.48"><stop id="stop3605" offset="0" stop-color="#a7651c"/><stop id="stop3607" offset="1" stop-color="#c8a700"/></linearGradient></defs><metadata id="metadata3697"/><path d="m24 1.5c1.52 0 6.42 12.28 7.64 13.17 1.23 0.9 14.38 1.78 14.84 3.23 0.47 1.45-9.65 9.92-10.12 11.37-0.47 1.45 2.76 14.27 1.53 15.17-1.23 0.9-12.38-6.15-13.9-6.15-1.52 0-12.67 7.04-13.9 6.15-1.23-0.89 2-13.71 1.53-15.16-0.47-1.45-10.59-9.92-10.12-11.37 0.47-1.45 13.62-2.33 14.84-3.23 1.23-0.9 6.13-13.17 7.64-13.17z" id="path1307" style="fill:url(#radialGradient3627);stroke-linejoin:round;stroke-width:0.99;stroke:url(#linearGradient3629)"/><path d="m36.46 42.86c0 0-4.32-3.74-10.08-4.89" id="path11014" style="fill:none;opacity:0.3;stroke:#fff"/><path d="m11.18 42.86c0 0 4.32-3.74 10.08-4.89" id="path11985" style="fill:none;opacity:0.3;stroke:#fff"/><path d="m24 2.5c2.26 4.32 4.48 8.95 6.73 13.27 4.84 0.79 10.26 1.38 14.77 2.51-3.45 3.46-6.88 7.13-10.33 10.59 0.74 4.81 1.21 9.26 1.95 14.07-4.39-2.18-8.77-4.36-13.16-6.54-4.39 2.18-8.77 4.36-13.16 6.54 0.74-4.8 1.13-9.35 1.86-14.15-3.45-3.46-6.73-7.08-10.18-10.54 4.84-0.79 9.87-1.67 14.71-2.46 2.26-4.32 4.54-8.95 6.8-13.27z" id="path1309" style="fill:none;opacity:0.4;stroke-linejoin:round;stroke:url(#linearGradient3648)"/><path d="m24.02 2.02c0 0 4.5 7.47 7.02 13.32 4.84 0.79 10.31 1.4 14.92 2.72 0 0-2.46 2.47-3.48 3.49 0 0-31.78 5.71-31.78 5.71-2.9-2.98-6.18-5.86-8.74-9.21 3.55-1.08 10.13-1.94 14.98-2.73 3.36-7.9 7.09-13.29 7.09-13.29z" id="path3382" style="fill:url(#linearGradient3619);opacity:0.8"/></svg>