<svg xmlns="http://www.w3.org/2000/svg" width="48" height="48"><g fill-rule="evenodd" stroke="#000" stroke-width=".032"><path d="M12.851 16.4l.917 25.403 32.343-11.13L47.42 9.591z" fill="#4d4d4d"/><path d="M12.851 16.4l-5.958-1.964-2.226 3.634.884 13.552L8.3 37.68l5.467 4.124L12.85 16.4z" fill="#333"/><path d="M8.356 27.703L6.76 29 .58 15.736s.003-1.066.046-1.597c.143-1.754 1.551-2.824 1.551-2.824s20.985-3.471 31.458-5.116c.825-.13 2.092.408 2.662 1.018.476.51 1.11 1.575 1.11 1.575l-3.032.67s-1.028-1.116-2.384-.879C27.217 9.42 2.2 13.815 2.2 13.815z" fill="#4d4d4d"/><path d="M12.851 16.4L47.42 9.591l-6.613-1.473-33.914 6.318 5.958 1.964z" fill="gray"/></g><path d="M16.435 36.73l27.638-8.934.741-14.074-28.953 6.574z" fill="#ececec" fill-rule="evenodd" stroke="#000" stroke-width=".032"/></svg>