<?xml version="1.0" encoding="utf-8"?>
<!-- Generator: Adobe Illustrator 27.3.1, SVG Export Plug-In . SVG Version: 6.00 Build 0)  -->
<svg version="1.1" id="Layer_1" xmlns="http://www.w3.org/2000/svg" xmlns:xlink="http://www.w3.org/1999/xlink" x="0px" y="0px"
	 viewBox="0 0 256 256" style="enable-background:new 0 0 256 256;" xml:space="preserve">
<style type="text/css">
	.st0{fill:#EA5E5E;}
</style>
<path class="st0" d="M174.3,193.2L62.8,81.7c-9.3,13-14.8,29-14.8,46.3c0,44.2,35.8,80,80,80C145.3,208,161.3,202.5,174.3,193.2z
	 M193.2,174.3c9.3-13,14.8-29,14.8-46.3c0-44.2-35.8-80-80-80c-17.3,0-33.3,5.5-46.3,14.8L193.2,174.3z M21.3,128
	C21.3,69.1,69.1,21.3,128,21.3S234.7,69.1,234.7,128S186.9,234.7,128,234.7S21.3,186.9,21.3,128z"/>
</svg>
