<?xml version="1.0" encoding="utf-8"?>
<!-- Generator: Adobe Illustrator 27.3.1, SVG Export Plug-In . SVG Version: 6.00 Build 0)  -->
<svg version="1.1" id="svg11300" xmlns:svg="http://www.w3.org/2000/svg"
	 xmlns="http://www.w3.org/2000/svg" xmlns:xlink="http://www.w3.org/1999/xlink" x="0px" y="0px" viewBox="0 0 256 256"
	 style="enable-background:new 0 0 256 256;" xml:space="preserve">
<style type="text/css">
	.st0{fill:#EBA25C;}
</style>
<path class="st0" d="M208,148c0-7.4-6-13.3-13.3-13.3H66.9l30.6,30.5c5.2,5.2,5.2,13.7,0,18.9s-13.7,5.2-18.9,0l-53.3-53.3
	c-5.2-5.2-5.2-13.7,0-18.9l53.3-53.3c5.2-5.2,13.7-5.2,18.9,0s5.2,13.7,0,18.9L66.9,108h127.8c22.1,0,40,17.9,40,40v40
	c0,7.4-6,13.3-13.3,13.3c-7.4,0-13.3-6-13.3-13.3V148z"/>
</svg>
