<?xml version="1.0" encoding="utf-8"?>
<!-- Generator: Adobe Illustrator 27.3.1, SVG Export Plug-In . SVG Version: 6.00 Build 0)  -->
<svg version="1.1" id="Layer_2" xmlns="http://www.w3.org/2000/svg" xmlns:xlink="http://www.w3.org/1999/xlink" x="0px" y="0px"
	 viewBox="0 0 256 256" style="enable-background:new 0 0 256 256;" xml:space="preserve">
<style type="text/css">
	.st0{fill:#d6d6d6;}
</style>
<g id="g3155" transform="translate(1.6503725,-2.2728432)">
	<g id="path3058">
		<path class="st0" d="M126.4,236.9c-58.8,0-106.7-47.8-106.7-106.7S67.5,23.6,126.4,23.6S233,71.5,233,130.3
			S185.2,236.9,126.4,236.9z M126.4,41.7c-48.8,0-88.5,39.7-88.5,88.5c0,48.8,39.7,88.5,88.5,88.5c48.8,0,88.5-39.7,88.5-88.5
			C214.9,81.5,175.2,41.7,126.4,41.7z"/>
	</g>
	<g id="path3844">
		<path class="st0" d="M81.2,136.5c0-4.4-3.6-8-8-8s-8,3.6-8,8c0,4.4,3.6,8,8,8S81.2,140.9,81.2,136.5z"/>
		<path class="st0" d="M73.1,148.5c-6.6,0-12-5.4-12-12c0-6.6,5.4-12,12-12s12,5.4,12,12C85.1,143.1,79.7,148.5,73.1,148.5z
			 M73.1,132.4c-2.3,0-4.1,1.8-4.1,4.1c0,2.3,1.8,4.1,4.1,4.1s4.1-1.8,4.1-4.1C77.2,134.2,75.4,132.4,73.1,132.4z"/>
	</g>
	<g id="path3844-8">
		<path class="st0" d="M183.2,136.5c0-4.4-3.6-8-8-8s-8,3.6-8,8c0,4.4,3.6,8,8,8S183.2,140.9,183.2,136.5z"/>
		<path class="st0" d="M175.1,148.5c-6.6,0-12-5.4-12-12c0-6.6,5.4-12,12-12c6.6,0,12,5.4,12,12
			C187.1,143.1,181.7,148.5,175.1,148.5z M175.1,132.4c-2.3,0-4.1,1.8-4.1,4.1c0,2.3,1.8,4.1,4.1,4.1s4.1-1.8,4.1-4.1
			C179.3,134.2,177.4,132.4,175.1,132.4z"/>
	</g>
	<g id="path3844-9">
		<path class="st0" d="M95.2,95.9c0-4.4-3.6-8-8-8c-4.4,0-8,3.6-8,8c0,4.4,3.6,8,8,8C91.8,104,95.2,100.4,95.2,95.9z"/>
		<path class="st0" d="M87.2,107.9c-6.6,0-12-5.4-12-12s5.4-12,12-12s12,5.4,12,12C99.1,102.6,93.9,107.9,87.2,107.9z M87.2,91.8
			c-2.3,0-4.1,1.8-4.1,4.1c0,2.3,1.8,4.1,4.1,4.1c2.3,0,4.1-1.8,4.1-4.1C91.3,93.7,89.5,91.8,87.2,91.8z"/>
	</g>
	<g id="path3844-9-8">
		<path class="st0" d="M170.9,95.9c0-4.4-3.6-8-8-8c-4.4,0-8,3.6-8,8c0,4.4,3.6,8,8,8C167.3,104,170.9,100.4,170.9,95.9z"/>
		<path class="st0" d="M162.9,107.9c-6.6,0-12-5.4-12-12s5.4-12,12-12c6.6,0,12,5.4,12,12S169.5,107.9,162.9,107.9z M162.9,91.8
			c-2.3,0-4.1,1.8-4.1,4.1c0,2.3,1.8,4.1,4.1,4.1s4.1-1.8,4.1-4.1C167,93.7,165.2,91.8,162.9,91.8z"/>
	</g>
	<g id="path3844-9-3">
		<path class="st0" d="M132.4,77.5c0-4.4-3.6-8-8-8s-8,3.6-8,8c0,4.4,3.6,8,8,8S132.4,81.9,132.4,77.5z"/>
		<path class="st0" d="M124.3,89.4c-6.6,0-12-5.4-12-12s5.4-12,12-12s12,5.4,12,12S130.9,89.4,124.3,89.4z M124.3,73.3
			c-2.3,0-4.1,1.8-4.1,4.1s1.8,4.1,4.1,4.1c2.3,0,4.1-1.8,4.1-4.1S126.6,73.3,124.3,73.3z"/>
	</g>
</g>
</svg>
