<svg xmlns:svg="http://www.w3.org/2000/svg" xmlns="http://www.w3.org/2000/svg" xmlns:xlink="http://www.w3.org/1999/xlink" version="1" x="0" y="0" viewBox="0 0 256 256" enable-background="new 0 0 256 256" xml:space="preserve" id="svg2"><metadata id="metadata100"/><defs id="defs98"><linearGradient id="linearGradient4410" gradientUnits="userSpaceOnUse" x1="184" y1="28.8" x2="184" y2="153"><stop offset="0.01" id="stop4412" style="fill-opacity:1;fill:url(#radialGradient4380);stop-color:#FFFFFF"/><stop offset="0.59" id="stop4414" style="fill-opacity:1;fill:url(#radialGradient4380);stop-color:#9CA8B2"/><stop offset="1" id="stop4416" style="fill:url(#radialGradient4380);stop-color:#758b9e;stop-opacity:1"/></linearGradient><linearGradient y2="112.37" x2="89.24" y1="221.98" x1="89.24" gradientUnits="userSpaceOnUse" id="SVGID_3_"><stop id="stop42" offset="0" stop-color="#F7931E"/><stop id="stop44" offset="0.53" stop-color="#FFBF00"/><stop id="stop46" offset="0.7" stop-color="#FFC200"/><stop id="stop48" offset="0.81" stop-color="#FFCB00"/><stop id="stop50" offset="0.91" stop-color="#FFDA00"/><stop id="stop52" offset="1" stop-color="#FFEF00"/><stop id="stop54" offset="1" stop-color="#FFF000"/></linearGradient><linearGradient y2="111.01" x2="89.24" y1="212.09" x1="89.24" gradientUnits="userSpaceOnUse" id="SVGID_4_"><stop id="stop59" offset="0" stop-color="#FBA90F"/><stop id="stop61" offset="0.53" stop-color="#FFBF00"/><stop id="stop63" offset="0.7" stop-color="#FFC200"/><stop id="stop65" offset="0.81" stop-color="#FFCB00"/><stop id="stop67" offset="0.91" stop-color="#FFDA00"/><stop id="stop69" offset="1" stop-color="#FFEF00"/><stop id="stop71" offset="1" stop-color="#FFF000"/></linearGradient><radialGradient xlink:href="#linearGradient4410" id="radialGradient4382" gradientUnits="userSpaceOnUse" gradientTransform="matrix(1.28,0,0,0.898,-51.6,9.47)" cx="184" cy="75.5" fx="184" fy="75.5" r="62.5"/><radialGradient xlink:href="#SVGID_1_" id="radialGradient4384" gradientUnits="userSpaceOnUse" gradientTransform="matrix(1.28,0,0,0.898,-51.6,9.47)" cx="184" cy="75.5" fx="184" fy="75.5" r="62.5"/><radialGradient xlink:href="#SVGID_1_" id="radialGradient4386" gradientUnits="userSpaceOnUse" gradientTransform="matrix(1.28,0,0,0.898,-51.6,9.47)" cx="184" cy="75.5" fx="184" fy="75.5" r="62.5"/></defs><g id="outline"><path d="M187.87 24.82h-8.55c-37.01 0-67.13 29.47-67.13 65.7v12.65H21.32C10.12 103.16 1 112.28 1 123.49v87.37c0 11.21 9.12 20.32 20.32 20.32h135.83c11.21 0 20.32-9.12 20.32-20.32v-87.37c0-11.21-9.12-20.32-20.32-20.32h-4.72V90.52c0-14.34 12.06-26 26.89-26h8.55c14.83 0 26.89 11.66 26.89 26v35.9H255v-35.9C255 54.29 224.89 24.82 187.87 24.82z" id="path5"/></g><g id="g12" fill="url(#radialGradient4386)"><g id="g14" fill="url(#radialGradient4384)"><linearGradient y2="153" x2="184" y1="28.8" x1="184" gradientUnits="userSpaceOnUse" id="SVGID_1_"><stop id="stop17" offset="0.01" style="fill-opacity:1;fill:url(#radialGradient4380);stop-color:#FFFFFF"/><stop id="stop19" offset="0.59" style="fill-opacity:1;fill:url(#radialGradient4380);stop-color:#9CA8B2"/><stop id="stop21" offset="1" style="fill-opacity:1;fill:url(#radialGradient4380);stop-color:#596D7F"/></linearGradient><path id="path23" d="m143 117 0-26.5c0-19.4 16-35.2 36-35.2l9 0c20 0 36 15.8 36 35.2l0 26.5 22 0 0-26.5C246 59.4 220 34 188 34l-9 0c-32 0-58 25.4-58 56.5l0 26.5 22 0z" fill="url(#radialGradient4382)"/></g></g><path id="path56" d="m168 211c0 6-5 11-11 11l-135.7 0c-6.1 0-11.1-5-11.1-11l0-88c0-6 5-11 11.1-11l135.7 0c6 0 11 5 11 11l0 88z" fill="url(#SVGID_3_)"/><path id="path73" d="m157 121-135.7 0c-1.6 0-2.9 1-2.9 2l0 88c0 1 1.3 3 2.9 3l135.7 0c2 0 3-2 3-3l0-88c0-1-1-2-3-2z" fill="url(#SVGID_4_)"/><g id="g75"><linearGradient y2="150" x2="89.2" y1="193" x1="89.2" gradientUnits="userSpaceOnUse" id="SVGID_5_"><stop id="stop78" offset="0" stop-color="#F7931E"/><stop id="stop80" offset="0.28" stop-color="#F7961D"/><stop id="stop82" offset="0.48" stop-color="#F89F1A"/><stop id="stop84" offset="0.64" stop-color="#F9AE15"/><stop id="stop86" offset="0.79" stop-color="#FBC30E"/><stop id="stop88" offset="0.93" stop-color="#FEDF06"/><stop id="stop90" offset="1" stop-color="#FFF000"/></linearGradient><path id="path92" d="m89.2 148c-7.9 0-14.4 7-14.4 14 0 5 2.5 9 6.5 12l0 19 15.9 0 0-19c3.8-3 6.8-7 6.8-12 0-7-6.8-14-14.8-14z" fill="url(#SVGID_5_)"/><path id="path94" d="m99.5 162c0-5-4.6-10-10.3-10-5.6 0-10.2 5-10.2 10 0 4 2.7 8 6.5 9l0 18 7.5 0 0-18c3.8-1 6.5-5 6.5-9z"/></g></svg>