<svg xmlns:svg="http://www.w3.org/2000/svg" xmlns="http://www.w3.org/2000/svg" xmlns:xlink="http://www.w3.org/1999/xlink" width="548" height="634" viewBox="100 160 548 634" version="1.1" id="svg2"><title id="title4">media film</title><defs id="defs6"><linearGradient id="linearGradient3759"><stop offset="0" id="stop3761" style="stop-color:#ffffff;stop-opacity:1"/><stop id="stop4037" offset="0.5" style="stop-color:#ffffff;stop-opacity:0.5"/><stop offset="1" id="stop3763" style="stop-color:#ffffff;stop-opacity:0"/></linearGradient><linearGradient xlink:href="#linearGradient3759" id="linearGradient3955" gradientUnits="userSpaceOnUse" x1="398.16" y1="105.22" x2="600.7" y2="276.78" gradientTransform="translate(-62.857143,25.714286)"/><linearGradient xlink:href="#linearGradient3759" id="linearGradient3999" gradientUnits="userSpaceOnUse" x1="388.16" y1="335.08" x2="529.27" y2="518.76" gradientTransform="translate(-62.857143,25.714286)"/><linearGradient xlink:href="#linearGradient3759" id="linearGradient4035" gradientUnits="userSpaceOnUse" x1="379.59" y1="601.36" x2="558.13" y2="708.51" gradientTransform="translate(-62.857143,25.714286)"/></defs><metadata id="metadata7"/><g transform="matrix(0.68145555,0,0,0.68145555,121.86145,182.42039)" id="g4074"><path d="m130.08 66.73 479.84 0 0 731.27-479.84 0 0-731.27z" id="rect3600" style="fill:#fff;stroke-linejoin:round;stroke-width:26.01;stroke:#000"/><path id="path3674" d="m565.2 66.99 0 734.34" style="fill:none;stroke-width:114.99;stroke:#000"/><path id="path3676" d="m528.53 249.51 71.66 0 0 69.93-71.66 0 0-69.93zM529.26 141.39l71.66 0 0 69.93-71.66 0 0-69.93zM528.66 52.27l71.66 0 0 49.93-71.66 0 0-49.93zM529.37 357.63l71.66 0 0 69.93-71.66 0 0-69.93zM529.12 465.71l71.66 0 0 69.93-71.66 0 0-69.93zM528.09 573.71l71.66 0 0 69.93-71.66 0 0-69.93zM529.37 680.13l71.66 0 0 69.93-71.66 0 0-69.93zM528.17 788.79l71.66 0 0 24.22-71.66 0 0-24.22z" fill="#fff"/><rect id="rect3694" width="267.36" height="231.65" x="236.46" y="77.97" style="fill:#3465a4;stroke-width:13.75;stroke:#000"/><rect y="321.37" x="236.44" height="230.26" width="267.4" id="rect3696" style="fill:#3465a4;stroke-width:13.71;stroke:#000"/><rect id="rect3698" width="264.62" height="230.33" x="237.83" y="563.34" style="fill:#3465a4;stroke-width:13.64;stroke:#000"/><path d="m175.2 64.33 0 736.81" id="path3735" style="fill:none;stroke-width:115.19;stroke:#000"/><path d="m138.53 249.51 71.66 0 0 69.93-71.66 0 0-69.93zM139.26 141.39l71.66 0 0 69.93-71.66 0 0-69.93zM138.66 51.55l71.66 0 0 50.65-71.66 0 0-50.65zM139.37 357.63l71.66 0 0 69.93-71.66 0 0-69.93zM139.12 465.71l71.66 0 0 69.93-71.66 0 0-69.93zM138.09 573.71l71.66 0 0 69.93-71.66 0 0-69.93zM139.37 680.13l71.66 0 0 69.93-71.66 0 0-69.93zM138.17 788.79l71.66 0 0 23.5-71.66 0 0-23.5z" id="path3737" fill="#fff"/><path d="m250.46 93.96c0 67.22 0 134.44 0 201.66 79.79 0 159.58 0 239.38 0 0-67.89 0-135.77 0-203.66-79.79 0-159.58 0-239.37 0l0 1 0 1z" id="rect3753" style="fill:url(#linearGradient3955);opacity:0.67;stroke-width:13.75;stroke:#fff"/><path d="m250.46 337.37c0 66.75 0 133.5 0 200.25 79.79 0 159.58 0 239.38 0 0-67.42 0-134.83 0-202.25-79.79 0-159.58 0-239.37 0l0 1 0 1z" id="rect3755" style="fill:url(#linearGradient3999);opacity:0.67;stroke-width:13.71;stroke:#fff"/><path d="m251.83 579.34c0 66.78 0 133.56 0 200.34 78.88 0 157.75 0 236.63 0 0-67.45 0-134.9 0-202.34-78.87 0-157.75 0-236.62 0l0 1 0 1z" id="rect3757" style="fill:url(#linearGradient4035);opacity:0.67;stroke-width:13.64;stroke:#fff"/><path id="path4047" d="m250.46 93.96c0 67.22 0 134.44 0 201.66 79.79 0 159.58 0 239.38 0 0-67.89 0-135.77 0-203.66-79.79 0-159.58 0-239.37 0l0 1 0 1z" style="fill:none;opacity:0.67;stroke-width:13.75;stroke:#fff"/><path id="path4049" d="m250.46 337.37c0 66.75 0 133.5 0 200.25 79.79 0 159.58 0 239.38 0 0-67.42 0-134.83 0-202.25-79.79 0-159.58 0-239.37 0l0 1 0 1z" style="fill:none;opacity:0.67;stroke-width:13.71;stroke:#fff"/><path id="path4051" d="m251.83 579.34c0 66.78 0 133.56 0 200.34 78.88 0 157.75 0 236.63 0 0-67.45 0-134.9 0-202.34-78.87 0-157.75 0-236.62 0l0 1 0 1z" style="fill:none;opacity:0.67;stroke-width:13.64;stroke:#fff"/></g></svg>