<?xml version="1.0" encoding="UTF-8" standalone="no"?>
<svg xmlns:dc="http://purl.org/dc/elements/1.1/" xmlns:cc="http://creativecommons.org/ns#" xmlns:rdf="http://www.w3.org/1999/02/22-rdf-syntax-ns#" xmlns:svg="http://www.w3.org/2000/svg" xmlns="http://www.w3.org/2000/svg" xmlns:xlink="http://www.w3.org/1999/xlink" xmlns:sodipodi="http://sodipodi.sourceforge.net/DTD/sodipodi-0.dtd" xmlns:inkscape="http://www.inkscape.org/namespaces/inkscape" width="548" height="634" viewBox="100 160 548 634" version="1.1" inkscape:version="0.47 r22583">
  <title>media film</title>
  <defs>
    <linearGradient inkscape:collect="always" id="linearGradient4115">
      <stop style="stop-color:#2e3436;stop-opacity:1;" offset="0" id="stop4117"/>
      <stop style="stop-color:#2e3436;stop-opacity:0;" offset="1" id="stop4119"/>
    </linearGradient>
    <linearGradient id="linearGradient3759">
      <stop style="stop-color:#ffffff;stop-opacity:1;" offset="0" id="stop3761"/>
      <stop id="stop4037" offset="0.5" style="stop-color:#ffffff;stop-opacity:0.49803922;"/>
      <stop style="stop-color:#ffffff;stop-opacity:0;" offset="1" id="stop3763"/>
    </linearGradient>
    <inkscape:perspective sodipodi:type="inkscape:persp3d" inkscape:vp_x="0 : 526.18109 : 1" inkscape:vp_y="0 : 1000 : 0" inkscape:vp_z="744.09448 : 526.18109 : 1" inkscape:persp3d-origin="372.04724 : 350.78739 : 1" id="perspective10"/>
    <linearGradient inkscape:collect="always" xlink:href="#linearGradient3759" id="linearGradient3955" gradientUnits="userSpaceOnUse" x1="398.15942" y1="105.21934" x2="600.69775" y2="276.77927" gradientTransform="translate(-62.857143,25.714286)"/>
    <linearGradient inkscape:collect="always" xlink:href="#linearGradient3759" id="linearGradient3999" gradientUnits="userSpaceOnUse" x1="388.15942" y1="335.07645" x2="529.26917" y2="518.75916" gradientTransform="translate(-62.857143,25.714286)"/>
    <linearGradient inkscape:collect="always" xlink:href="#linearGradient3759" id="linearGradient4035" gradientUnits="userSpaceOnUse" x1="379.58801" y1="601.36212" x2="558.13062" y2="708.505" gradientTransform="translate(-62.857143,25.714286)"/>
    <radialGradient inkscape:collect="always" xlink:href="#linearGradient4115" id="radialGradient4121" cx="-532.85711" cy="6.647897" fx="-532.85711" fy="6.647897" r="272.85715" gradientTransform="matrix(1,0,0,0.21989529,914.28571,730.90034)" gradientUnits="userSpaceOnUse"/>
  </defs>
  <metadata id="metadata7">
    <rdf:RDF>
      <cc:Work rdf:about="">
        <dc:format>image/svg+xml</dc:format>
        <dc:type rdf:resource="http://purl.org/dc/dcmitype/StillImage"/>
        <dc:title>media film</dc:title>
        <dc:date>April 2010</dc:date>
        <dc:creator>
          <cc:Agent>
            <dc:title>Franziska Sponsel</dc:title>
          </cc:Agent>
        </dc:creator>
        <dc:rights>
          <cc:Agent>
            <dc:title>Franziska Sponsel</dc:title>
          </cc:Agent>
        </dc:rights>
        <dc:publisher>
          <cc:Agent>
            <dc:title>RRZE</dc:title>
          </cc:Agent>
        </dc:publisher>
        <dc:subject>
          <rdf:Bag>
            <rdf:li>film</rdf:li>
            <rdf:li>movie</rdf:li>
            <rdf:li>media</rdf:li>
            <rdf:li>filmstrip</rdf:li>
          </rdf:Bag>
        </dc:subject>
        <cc:license rdf:resource="http://creativecommons.org/licenses/by-sa/3.0/"/>
        <dc:contributor>
          <cc:Agent>
            <dc:title>Beate Kaspar, Hendrik Eggers</dc:title>
          </cc:Agent>
        </dc:contributor>
      </cc:Work>
      <cc:License rdf:about="http://creativecommons.org/licenses/by-sa/3.0/">
        <cc:permits rdf:resource="http://creativecommons.org/ns#Reproduction"/>
        <cc:permits rdf:resource="http://creativecommons.org/ns#Distribution"/>
        <cc:requires rdf:resource="http://creativecommons.org/ns#Notice"/>
        <cc:requires rdf:resource="http://creativecommons.org/ns#Attribution"/>
        <cc:permits rdf:resource="http://creativecommons.org/ns#DerivativeWorks"/>
        <cc:requires rdf:resource="http://creativecommons.org/ns#ShareAlike"/>
      </cc:License>
    </rdf:RDF>
  </metadata>
  <g inkscape:label="Ebene 1" inkscape:groupmode="layer" id="layer1">
    <g id="g4123">
      <path id="path4104" d="m 654.28574,732.36218 c 0,33.13709 -122.16231,60 -272.85715,60 -150.69484,0 -272.85714,-26.86291 -272.85714,-60 0,-33.13708 122.1623,-60 272.85714,-60 150.69484,0 272.85715,26.86292 272.85715,60 z" style="opacity:0.47594987;fill:url(#radialGradient4121);fill-opacity:1;fill-rule:evenodd;stroke:none"/>
      <rect y="152.36218" x="11.428572" height="720" width="720" id="rect2816" style="color:#000000;fill:none;fill-opacity:1;fill-rule:evenodd;stroke:none;stroke-width:1px;stroke-linecap:butt;stroke-linejoin:miter;stroke-miterlimit:4;stroke-opacity:1;stroke-dasharray:none;stroke-dashoffset:0;marker:none;visibility:visible;display:inline;overflow:visible;enable-background:accumulate"/>
      <g transform="matrix(0.68145555,0,0,0.68145555,121.28758,170.7168)" id="g4074">
        <path style="color:#000000;fill:#ffffff;fill-opacity:1;fill-rule:evenodd;stroke:#000000;stroke-width:26.0126133;stroke-linecap:butt;stroke-linejoin:round;stroke-miterlimit:4;stroke-opacity:1;stroke-dasharray:none;stroke-dashoffset:0;marker:none;visibility:visible;display:inline;overflow:visible;enable-background:accumulate" d="m 130.07773,66.725633 479.84453,0 0,731.273117 -479.84453,0 0,-731.273117 z" id="rect3600"/>
        <path id="path3674" d="m 565.19921,66.992517 0,734.336403" style="fill:none;stroke:#000000;stroke-width:114.99221039;stroke-linecap:butt;stroke-linejoin:miter;stroke-miterlimit:4;stroke-opacity:1;stroke-dasharray:none"/>
        <path id="path3676" d="m 528.529,249.50602 71.66058,0 0,69.93263 -71.66058,0 0,-69.93263 z" style="color:#000000;fill:#ffffff;fill-opacity:1;fill-rule:evenodd;stroke:none;stroke-width:1px;marker:none;visibility:visible;display:inline;overflow:visible;enable-background:accumulate"/>
        <path style="color:#000000;fill:#ffffff;fill-opacity:1;fill-rule:evenodd;stroke:none;stroke-width:1px;marker:none;visibility:visible;display:inline;overflow:visible;enable-background:accumulate" d="m 529.25745,141.38579 71.66058,0 0,69.93263 -71.66058,0 0,-69.93263 z" id="path3678"/>
        <path id="path3680" d="m 528.66354,52.266586 71.66058,0 0,49.932634 -71.66058,0 0,-49.932634 z" style="color:#000000;fill:#ffffff;fill-opacity:1;fill-rule:evenodd;stroke:none;stroke-width:1px;marker:none;visibility:visible;display:inline;overflow:visible;enable-background:accumulate"/>
        <path style="color:#000000;fill:#ffffff;fill-opacity:1;fill-rule:evenodd;stroke:none;stroke-width:1px;marker:none;visibility:visible;display:inline;overflow:visible;enable-background:accumulate" d="m 529.3689,357.63262 71.66058,0 0,69.93263 -71.66058,0 0,-69.93263 z" id="path3682"/>
        <path id="path3684" d="m 529.12289,465.7112 71.66059,0 0,69.93262 -71.66059,0 0,-69.93262 z" style="color:#000000;fill:#ffffff;fill-opacity:1;fill-rule:evenodd;stroke:none;stroke-width:1px;marker:none;visibility:visible;display:inline;overflow:visible;enable-background:accumulate"/>
        <path style="color:#000000;fill:#ffffff;fill-opacity:1;fill-rule:evenodd;stroke:none;stroke-width:1px;marker:none;visibility:visible;display:inline;overflow:visible;enable-background:accumulate" d="m 528.08921,573.70649 71.66059,0 0,69.93264 -71.66059,0 0,-69.93264 z" id="path3686"/>
        <path id="path3688" d="m 529.3689,680.12961 71.66058,0 0,69.93263 -71.66058,0 0,-69.93263 z" style="color:#000000;fill:#ffffff;fill-opacity:1;fill-rule:evenodd;stroke:none;stroke-width:1px;marker:none;visibility:visible;display:inline;overflow:visible;enable-background:accumulate"/>
        <path style="color:#000000;fill:#ffffff;fill-opacity:1;fill-rule:evenodd;stroke:none;stroke-width:1px;marker:none;visibility:visible;display:inline;overflow:visible;enable-background:accumulate" d="m 528.17457,788.79414 71.66058,0 0,24.21835 -71.66058,0 0,-24.21835 z" id="path3690"/>
        <rect style="color:#000000;fill:#3465a4;fill-opacity:1;fill-rule:evenodd;stroke:#000000;stroke-width:13.74602985;stroke-linecap:butt;stroke-linejoin:miter;stroke-miterlimit:4;stroke-opacity:1;stroke-dasharray:none;stroke-dashoffset:0;marker:none;visibility:visible;display:inline;overflow:visible;enable-background:accumulate" id="rect3694" width="267.36371" height="231.6494" x="236.461" y="77.966057"/>
        <rect y="321.37451" x="236.44089" height="230.26105" width="267.40393" id="rect3696" style="color:#000000;fill:#3465a4;fill-opacity:1;fill-rule:evenodd;stroke:#000000;stroke-width:13.70580673;stroke-linecap:butt;stroke-linejoin:miter;stroke-miterlimit:4;stroke-opacity:1;stroke-dasharray:none;stroke-dashoffset:0;marker:none;visibility:visible;display:inline;overflow:visible;enable-background:accumulate"/>
        <rect style="color:#000000;fill:#3465a4;fill-opacity:1;fill-rule:evenodd;stroke:#000000;stroke-width:13.63624096;stroke-linecap:butt;stroke-linejoin:miter;stroke-miterlimit:4;stroke-opacity:1;stroke-dasharray:none;stroke-dashoffset:0;marker:none;visibility:visible;display:inline;overflow:visible;enable-background:accumulate" id="rect3698" width="264.61636" height="230.33063" x="237.83469" y="563.33972"/>
        <path style="fill:none;stroke:#000000;stroke-width:115.18562317;stroke-linecap:butt;stroke-linejoin:miter;stroke-miterlimit:4;stroke-opacity:1;stroke-dasharray:none" d="m 175.19921,64.327745 0,736.808805" id="path3735"/>
        <path style="color:#000000;fill:#ffffff;fill-opacity:1;fill-rule:evenodd;stroke:none;stroke-width:1px;marker:none;visibility:visible;display:inline;overflow:visible;enable-background:accumulate" d="m 138.529,249.50602 71.66058,0 0,69.93263 -71.66058,0 0,-69.93263 z" id="path3737"/>
        <path id="path3739" d="m 139.25745,141.38579 71.66058,0 0,69.93263 -71.66058,0 0,-69.93263 z" style="color:#000000;fill:#ffffff;fill-opacity:1;fill-rule:evenodd;stroke:none;stroke-width:1px;marker:none;visibility:visible;display:inline;overflow:visible;enable-background:accumulate"/>
        <path style="color:#000000;fill:#ffffff;fill-opacity:1;fill-rule:evenodd;stroke:none;stroke-width:1px;marker:none;visibility:visible;display:inline;overflow:visible;enable-background:accumulate" d="m 138.66354,51.552301 71.66058,0 0,50.646919 -71.66058,0 0,-50.646919 z" id="path3741"/>
        <path id="path3743" d="m 139.3689,357.63262 71.66058,0 0,69.93263 -71.66058,0 0,-69.93263 z" style="color:#000000;fill:#ffffff;fill-opacity:1;fill-rule:evenodd;stroke:none;stroke-width:1px;marker:none;visibility:visible;display:inline;overflow:visible;enable-background:accumulate"/>
        <path style="color:#000000;fill:#ffffff;fill-opacity:1;fill-rule:evenodd;stroke:none;stroke-width:1px;marker:none;visibility:visible;display:inline;overflow:visible;enable-background:accumulate" d="m 139.12289,465.7112 71.66059,0 0,69.93262 -71.66059,0 0,-69.93262 z" id="path3745"/>
        <path id="path3747" d="m 138.08921,573.70649 71.66059,0 0,69.93264 -71.66059,0 0,-69.93264 z" style="color:#000000;fill:#ffffff;fill-opacity:1;fill-rule:evenodd;stroke:none;stroke-width:1px;marker:none;visibility:visible;display:inline;overflow:visible;enable-background:accumulate"/>
        <path style="color:#000000;fill:#ffffff;fill-opacity:1;fill-rule:evenodd;stroke:none;stroke-width:1px;marker:none;visibility:visible;display:inline;overflow:visible;enable-background:accumulate" d="m 139.3689,680.12961 71.66058,0 0,69.93263 -71.66058,0 0,-69.93263 z" id="path3749"/>
        <path id="path3751" d="m 138.17457,788.79414 71.66058,0 0,23.50407 -71.66058,0 0,-23.50407 z" style="color:#000000;fill:#ffffff;fill-opacity:1;fill-rule:evenodd;stroke:none;stroke-width:1px;marker:none;visibility:visible;display:inline;overflow:visible;enable-background:accumulate"/>
        <path style="opacity:0.67383543;color:#000000;fill:url(#linearGradient3955);fill-opacity:1;fill-rule:evenodd;stroke:#ffffff;stroke-width:13.74602985;stroke-linecap:butt;stroke-linejoin:miter;stroke-miterlimit:3.79999995;stroke-opacity:1;stroke-dasharray:none;stroke-dashoffset:0;marker:none;visibility:visible;display:inline;overflow:visible;enable-background:accumulate" d="m 250.45536,93.964286 c 0,67.218754 0,134.437504 0,201.656254 79.79167,0 159.58333,0 239.375,0 0,-67.88542 0,-135.77083 0,-203.656254 -79.79167,0 -159.58333,0 -239.375,0 l 0,1 0,1 z" id="rect3753"/>
        <path style="opacity:0.67383543;color:#000000;fill:url(#linearGradient3999);fill-opacity:1;fill-rule:evenodd;stroke:#ffffff;stroke-width:13.70580673;stroke-linecap:butt;stroke-linejoin:miter;stroke-miterlimit:3.79999995;stroke-opacity:1;stroke-dasharray:none;stroke-dashoffset:0;marker:none;visibility:visible;display:inline;overflow:visible;enable-background:accumulate" d="m 250.45536,337.37054 c 0,66.75 0,133.5 0,200.25 79.79167,0 159.58333,0 239.375,0 0,-67.41667 0,-134.83333 0,-202.25 -79.79167,0 -159.58333,0 -239.375,0 l 0,1 0,1 z" id="rect3755"/>
        <path style="opacity:0.67383543;color:#000000;fill:url(#linearGradient4035);fill-opacity:1;fill-rule:evenodd;stroke:#ffffff;stroke-width:13.63624096;stroke-linecap:butt;stroke-linejoin:miter;stroke-miterlimit:3.79999995;stroke-opacity:1;stroke-dasharray:none;stroke-dashoffset:0;marker:none;visibility:visible;display:inline;overflow:visible;enable-background:accumulate" d="m 251.83036,579.33929 c 0,66.78125 0,133.5625 0,200.34375 78.875,0 157.75,0 236.625,0 0,-67.44792 0,-134.89583 0,-202.34375 -78.875,0 -157.75,0 -236.625,0 l 0,1 0,1 z" id="rect3757"/>
        <path id="path4047" d="m 250.45536,93.964286 c 0,67.218754 0,134.437504 0,201.656254 79.79167,0 159.58333,0 239.375,0 0,-67.88542 0,-135.77083 0,-203.656254 -79.79167,0 -159.58333,0 -239.375,0 l 0,1 0,1 z" style="opacity:0.67383543;color:#000000;fill:none;stroke:#ffffff;stroke-width:13.74602985;stroke-linecap:butt;stroke-linejoin:miter;stroke-miterlimit:3.79999995;stroke-opacity:1;stroke-dasharray:none;stroke-dashoffset:0;marker:none;visibility:visible;display:inline;overflow:visible;enable-background:accumulate"/>
        <path id="path4049" d="m 250.45536,337.37054 c 0,66.75 0,133.5 0,200.25 79.79167,0 159.58333,0 239.375,0 0,-67.41667 0,-134.83333 0,-202.25 -79.79167,0 -159.58333,0 -239.375,0 l 0,1 0,1 z" style="opacity:0.67383543;color:#000000;fill:none;stroke:#ffffff;stroke-width:13.70580673;stroke-linecap:butt;stroke-linejoin:miter;stroke-miterlimit:3.79999995;stroke-opacity:1;stroke-dasharray:none;stroke-dashoffset:0;marker:none;visibility:visible;display:inline;overflow:visible;enable-background:accumulate"/>
        <path id="path4051" d="m 251.83036,579.33929 c 0,66.78125 0,133.5625 0,200.34375 78.875,0 157.75,0 236.625,0 0,-67.44792 0,-134.89583 0,-202.34375 -78.875,0 -157.75,0 -236.625,0 l 0,1 0,1 z" style="opacity:0.67383543;color:#000000;fill:none;stroke:#ffffff;stroke-width:13.63624096;stroke-linecap:butt;stroke-linejoin:miter;stroke-miterlimit:3.79999995;stroke-opacity:1;stroke-dasharray:none;stroke-dashoffset:0;marker:none;visibility:visible;display:inline;overflow:visible;enable-background:accumulate"/>
      </g>
    </g>
  </g>
</svg>