<?xml version="1.0" encoding="utf-8"?>
<!-- Generator: Adobe Illustrator 27.9.0, SVG Export Plug-In . SVG Version: 6.00 Build 0)  -->
<svg version="1.1" id="Layer_2_00000156566228608193127490000000686839219816869548_"
	 xmlns="http://www.w3.org/2000/svg" xmlns:xlink="http://www.w3.org/1999/xlink" x="0px" y="0px" viewBox="0 0 256 256"
	 style="enable-background:new 0 0 256 256;" xml:space="preserve">
<style type="text/css">
	.st0{fill:#42A5F5;}
</style>
<path class="st0" d="M21.3,61.3c0-14.7,12-26.7,26.7-26.7h160c14.7,0,26.7,12,26.7,26.7v133.3c0,14.7-12,26.7-26.7,26.7H48
	c-14.7,0-26.7-12-26.7-26.7V61.3z M41.3,174.7V188c0,3.7,3,6.7,6.7,6.7h13.3c3.7,0,6.7-3,6.7-6.7v-13.3c0-3.7-3-6.7-6.7-6.7H48
	C44.3,168,41.3,171,41.3,174.7z M194.7,168c-3.7,0-6.7,3-6.7,6.7V188c0,3.7,3,6.7,6.7,6.7H208c3.7,0,6.7-3,6.7-6.7v-13.3
	c0-3.7-3-6.7-6.7-6.7H194.7z M41.3,121.3v13.3c0,3.7,3,6.7,6.7,6.7h13.3c3.7,0,6.7-3,6.7-6.7v-13.3c0-3.7-3-6.7-6.7-6.7H48
	C44.3,114.7,41.3,117.7,41.3,121.3z M194.7,114.7c-3.7,0-6.7,3-6.7,6.7v13.3c0,3.7,3,6.7,6.7,6.7H208c3.7,0,6.7-3,6.7-6.7v-13.3
	c0-3.7-3-6.7-6.7-6.7H194.7z M41.3,68v13.3c0,3.7,3,6.7,6.7,6.7h13.3c3.7,0,6.7-3,6.7-6.7V68c0-3.7-3-6.7-6.7-6.7H48
	C44.3,61.3,41.3,64.3,41.3,68z M194.7,61.3c-3.7,0-6.7,3-6.7,6.7v13.3c0,3.7,3,6.7,6.7,6.7H208c3.7,0,6.7-3,6.7-6.7V68
	c0-3.7-3-6.7-6.7-6.7H194.7z M88,74.7v26.7c0,7.4,6,13.3,13.3,13.3h53.3c7.4,0,13.3-6,13.3-13.3V74.7c0-7.4-6-13.3-13.3-13.3h-53.3
	C94,61.3,88,67.3,88,74.7z M101.3,141.3c-7.4,0-13.3,6-13.3,13.3v26.7c0,7.4,6,13.3,13.3,13.3h53.3c7.4,0,13.3-6,13.3-13.3v-26.7
	c0-7.4-6-13.3-13.3-13.3H101.3z"/>
</svg>
