<svg xmlns:svg="http://www.w3.org/2000/svg" xmlns="http://www.w3.org/2000/svg" xmlns:xlink="http://www.w3.org/1999/xlink" width="548" height="634" viewBox="100 160 548 634" version="1.1"><title>media film</title><defs><linearGradient id="linearGradient4115"><stop offset="0" id="stop4117" style="stop-color:#2e3436;stop-opacity:1"/><stop offset="1" id="stop4119" style="stop-color:#2e3436;stop-opacity:0"/></linearGradient><linearGradient id="linearGradient3759"><stop offset="0" id="stop3761" style="stop-color:#ffffff;stop-opacity:1"/><stop id="stop4037" offset="0.5" style="stop-color:#ffffff;stop-opacity:0.5"/><stop offset="1" id="stop3763" style="stop-color:#ffffff;stop-opacity:0"/></linearGradient><linearGradient xlink:href="#linearGradient3759" id="linearGradient3955" gradientUnits="userSpaceOnUse" x1="398.16" y1="105.22" x2="600.7" y2="276.78" gradientTransform="translate(-62.857143,25.714286)"/><linearGradient xlink:href="#linearGradient3759" id="linearGradient3999" gradientUnits="userSpaceOnUse" x1="388.16" y1="335.08" x2="529.27" y2="518.76" gradientTransform="translate(-62.857143,25.714286)"/><linearGradient xlink:href="#linearGradient3759" id="linearGradient4035" gradientUnits="userSpaceOnUse" x1="379.59" y1="601.36" x2="558.13" y2="708.51" gradientTransform="translate(-62.857143,25.714286)"/><radialGradient xlink:href="#linearGradient4115" id="radialGradient4121" cx="-532.86" cy="6.65" fx="-532.86" fy="6.65" r="272.86" gradientTransform="matrix(1,0,0,0.21989529,914.28571,730.90034)" gradientUnits="userSpaceOnUse"/></defs><metadata id="metadata7"/><g id="layer1"><g id="g4123"><path id="path4104" d="m654.29 732.36c0 33.14-122.16 60-272.86 60-150.69 0-272.86-26.86-272.86-60 0-33.14 122.16-60 272.86-60 150.69 0 272.86 26.86 272.86 60z" style="fill-rule:evenodd;fill:url(#radialGradient4121);opacity:0.48"/><rect y="152.36" x="11.43" height="720" width="720" id="rect2816" style="color:#000000;display:inline;enable-background:accumulate;fill:none;overflow:visible"/><g transform="matrix(0.68145555,0,0,0.68145555,121.28758,170.7168)" id="g4074"><path d="m130.08 66.73 479.84 0 0 731.27-479.84 0 0-731.27z" id="rect3600" style="color:#000000;display:inline;enable-background:accumulate;fill-rule:evenodd;fill:#fff;overflow:visible;stroke-linejoin:round;stroke-miterlimit:4;stroke-width:26.01;stroke:#000"/><path id="path3674" d="m565.2 66.99 0 734.34" style="fill:none;stroke-miterlimit:4;stroke-width:114.99;stroke:#000"/><path id="path3676" d="m528.53 249.51 71.66 0 0 69.93-71.66 0 0-69.93z" style="color:#000000;display:inline;enable-background:accumulate;fill-rule:evenodd;fill:#fff;overflow:visible"/><path d="m529.26 141.39 71.66 0 0 69.93-71.66 0 0-69.93z" id="path3678" style="color:#000000;display:inline;enable-background:accumulate;fill-rule:evenodd;fill:#fff;overflow:visible"/><path id="path3680" d="m528.66 52.27 71.66 0 0 49.93-71.66 0 0-49.93z" style="color:#000000;display:inline;enable-background:accumulate;fill-rule:evenodd;fill:#fff;overflow:visible"/><path d="m529.37 357.63 71.66 0 0 69.93-71.66 0 0-69.93z" id="path3682" style="color:#000000;display:inline;enable-background:accumulate;fill-rule:evenodd;fill:#fff;overflow:visible"/><path id="path3684" d="m529.12 465.71 71.66 0 0 69.93-71.66 0 0-69.93z" style="color:#000000;display:inline;enable-background:accumulate;fill-rule:evenodd;fill:#fff;overflow:visible"/><path d="m528.09 573.71 71.66 0 0 69.93-71.66 0 0-69.93z" id="path3686" style="color:#000000;display:inline;enable-background:accumulate;fill-rule:evenodd;fill:#fff;overflow:visible"/><path id="path3688" d="m529.37 680.13 71.66 0 0 69.93-71.66 0 0-69.93z" style="color:#000000;display:inline;enable-background:accumulate;fill-rule:evenodd;fill:#fff;overflow:visible"/><path d="m528.17 788.79 71.66 0 0 24.22-71.66 0 0-24.22z" id="path3690" style="color:#000000;display:inline;enable-background:accumulate;fill-rule:evenodd;fill:#fff;overflow:visible"/><rect id="rect3694" width="267.36" height="231.65" x="236.46" y="77.97" style="color:#000000;display:inline;enable-background:accumulate;fill-rule:evenodd;fill:#3465a4;overflow:visible;stroke-miterlimit:4;stroke-width:13.75;stroke:#000"/><rect y="321.37" x="236.44" height="230.26" width="267.4" id="rect3696" style="color:#000000;display:inline;enable-background:accumulate;fill-rule:evenodd;fill:#3465a4;overflow:visible;stroke-miterlimit:4;stroke-width:13.71;stroke:#000"/><rect id="rect3698" width="264.62" height="230.33" x="237.83" y="563.34" style="color:#000000;display:inline;enable-background:accumulate;fill-rule:evenodd;fill:#3465a4;overflow:visible;stroke-miterlimit:4;stroke-width:13.64;stroke:#000"/><path d="m175.2 64.33 0 736.81" id="path3735" style="fill:none;stroke-miterlimit:4;stroke-width:115.19;stroke:#000"/><path d="m138.53 249.51 71.66 0 0 69.93-71.66 0 0-69.93z" id="path3737" style="color:#000000;display:inline;enable-background:accumulate;fill-rule:evenodd;fill:#fff;overflow:visible"/><path id="path3739" d="m139.26 141.39 71.66 0 0 69.93-71.66 0 0-69.93z" style="color:#000000;display:inline;enable-background:accumulate;fill-rule:evenodd;fill:#fff;overflow:visible"/><path d="m138.66 51.55 71.66 0 0 50.65-71.66 0 0-50.65z" id="path3741" style="color:#000000;display:inline;enable-background:accumulate;fill-rule:evenodd;fill:#fff;overflow:visible"/><path id="path3743" d="m139.37 357.63 71.66 0 0 69.93-71.66 0 0-69.93z" style="color:#000000;display:inline;enable-background:accumulate;fill-rule:evenodd;fill:#fff;overflow:visible"/><path d="m139.12 465.71 71.66 0 0 69.93-71.66 0 0-69.93z" id="path3745" style="color:#000000;display:inline;enable-background:accumulate;fill-rule:evenodd;fill:#fff;overflow:visible"/><path id="path3747" d="m138.09 573.71 71.66 0 0 69.93-71.66 0 0-69.93z" style="color:#000000;display:inline;enable-background:accumulate;fill-rule:evenodd;fill:#fff;overflow:visible"/><path d="m139.37 680.13 71.66 0 0 69.93-71.66 0 0-69.93z" id="path3749" style="color:#000000;display:inline;enable-background:accumulate;fill-rule:evenodd;fill:#fff;overflow:visible"/><path id="path3751" d="m138.17 788.79 71.66 0 0 23.5-71.66 0 0-23.5z" style="color:#000000;display:inline;enable-background:accumulate;fill-rule:evenodd;fill:#fff;overflow:visible"/><path d="m250.46 93.96c0 67.22 0 134.44 0 201.66 79.79 0 159.58 0 239.38 0 0-67.89 0-135.77 0-203.66-79.79 0-159.58 0-239.37 0l0 1 0 1z" id="rect3753" style="color:#000000;display:inline;enable-background:accumulate;fill-rule:evenodd;fill:url(#linearGradient3955);opacity:0.67;overflow:visible;stroke-miterlimit:3.8;stroke-width:13.75;stroke:#fff"/><path d="m250.46 337.37c0 66.75 0 133.5 0 200.25 79.79 0 159.58 0 239.38 0 0-67.42 0-134.83 0-202.25-79.79 0-159.58 0-239.37 0l0 1 0 1z" id="rect3755" style="color:#000000;display:inline;enable-background:accumulate;fill-rule:evenodd;fill:url(#linearGradient3999);opacity:0.67;overflow:visible;stroke-miterlimit:3.8;stroke-width:13.71;stroke:#fff"/><path d="m251.83 579.34c0 66.78 0 133.56 0 200.34 78.88 0 157.75 0 236.63 0 0-67.45 0-134.9 0-202.34-78.87 0-157.75 0-236.62 0l0 1 0 1z" id="rect3757" style="color:#000000;display:inline;enable-background:accumulate;fill-rule:evenodd;fill:url(#linearGradient4035);opacity:0.67;overflow:visible;stroke-miterlimit:3.8;stroke-width:13.64;stroke:#fff"/><path id="path4047" d="m250.46 93.96c0 67.22 0 134.44 0 201.66 79.79 0 159.58 0 239.38 0 0-67.89 0-135.77 0-203.66-79.79 0-159.58 0-239.37 0l0 1 0 1z" style="color:#000000;display:inline;enable-background:accumulate;fill:none;opacity:0.67;overflow:visible;stroke-miterlimit:3.8;stroke-width:13.75;stroke:#fff"/><path id="path4049" d="m250.46 337.37c0 66.75 0 133.5 0 200.25 79.79 0 159.58 0 239.38 0 0-67.42 0-134.83 0-202.25-79.79 0-159.58 0-239.37 0l0 1 0 1z" style="color:#000000;display:inline;enable-background:accumulate;fill:none;opacity:0.67;overflow:visible;stroke-miterlimit:3.8;stroke-width:13.71;stroke:#fff"/><path id="path4051" d="m251.83 579.34c0 66.78 0 133.56 0 200.34 78.88 0 157.75 0 236.63 0 0-67.45 0-134.9 0-202.34-78.87 0-157.75 0-236.62 0l0 1 0 1z" style="color:#000000;display:inline;enable-background:accumulate;fill:none;opacity:0.67;overflow:visible;stroke-miterlimit:3.8;stroke-width:13.64;stroke:#fff"/></g></g></g></svg>