<?xml version="1.0" encoding="utf-8"?>
<!-- Generator: Adobe Illustrator 27.3.1, SVG Export Plug-In . SVG Version: 6.00 Build 0)  -->
<svg version="1.1" xmlns="http://www.w3.org/2000/svg" xmlns:xlink="http://www.w3.org/1999/xlink" x="0px" y="0px"
	 viewBox="0 0 256 256" style="enable-background:new 0 0 256 256;" xml:space="preserve">
<style type="text/css">
	.st0{fill:#364E5E;}
	.st1{fill:none;stroke:#364E5E;stroke-width:11.7444;stroke-linejoin:round;stroke-miterlimit:10;}
	.st2{fill:#FFD42A;stroke:#364E5E;stroke-width:8.6125;stroke-linejoin:round;stroke-miterlimit:10;}
	.st3{display:none;}
	.st4{display:inline;}
	.st5{fill:none;stroke:#F15A24;stroke-width:0.5331;stroke-miterlimit:10;}
	.st6{fill:none;stroke:#1A1A1A;stroke-width:1.5994;stroke-miterlimit:10;}
</style>
<g id="Layer_1">
	<g>
		<path class="st0" d="M149,115c0,3.3-2.6,5.9-5.9,5.9h-10.1c-2.3,5.2-7.5,8.9-13.5,8.9c-6,0-11.3-3.6-13.6-8.9H60.6
			c-3.3,0-5.9-2.6-5.9-5.9s2.6-5.9,5.9-5.9H106c2.3-5.2,7.5-8.9,13.5-8.9s11.2,3.6,13.5,8.9h10.1C146.4,109.1,149,111.7,149,115z
			 M113.7,115c0,3.3,2.6,5.9,5.9,5.9s5.9-2.6,5.9-5.9s-2.6-5.9-5.9-5.9S113.7,111.7,113.7,115z M78.3,144.5c0,3.3,2.6,5.9,5.9,5.9
			c3.3,0,5.9-2.6,5.9-5.9c0-3.3-2.6-5.9-5.9-5.9S78.3,141.2,78.3,144.5z M84.2,159.2c-6.1,0-11.2-3.6-13.5-8.9H60.6
			c-3.3,0-5.9-2.6-5.9-5.9c0-3.3,2.6-5.9,5.9-5.9h10.1c2.3-5.2,7.5-8.9,13.5-8.9c6,0,11.3,3.7,13.6,8.9h45.4c3.3,0,5.9,2.6,5.9,5.9
			c0,3.3-2.6,5.9-5.9,5.9H97.7C95.4,155.6,90.2,159.2,84.2,159.2z M113.7,179.9c3.3,0,5.9-2.6,5.9-5.9c0-3.3-2.6-5.9-5.9-5.9
			s-5.9,2.6-5.9,5.9C107.8,177.2,110.4,179.9,113.7,179.9z M100.1,179.9H60.5c-3.3,0-5.9-2.6-5.9-5.9c0-3.3,2.6-5.9,5.9-5.9h39.6
			c2.3-5.2,7.5-8.9,13.5-8.9s11.2,3.6,13.5,8.9h16c3.3,0,5.9,2.6,5.9,5.9c0,3.3-2.6,5.9-5.9,5.9h-16c-2.3,5.2-7.5,8.9-13.5,8.9
			C107.6,188.7,102.4,185.1,100.1,179.9z"/>
		<path class="st1" d="M202.2,219H53.8c-9.3,0-16.8-7.6-16.8-16.8V53.8C37,44.5,44.6,37,53.8,37h148.4c9.3,0,16.8,7.6,16.8,16.8
			v148.4C219,211.5,211.5,219,202.2,219z"/>
		<line class="st1" x1="37" y1="70.6" x2="219" y2="70.6"/>
		<g>
			<circle class="st2" cx="184.9" cy="109.1" r="10.6"/>
			<circle class="st2" cx="184.9" cy="144.5" r="10.6"/>
			<circle class="st2" cx="184.9" cy="179.9" r="10.6"/>
		</g>
		<circle class="st2" cx="113.7" cy="174" r="10.6"/>
		<circle class="st2" cx="84.2" cy="144.5" r="10.6"/>
		<circle class="st2" cx="119.6" cy="115" r="10.6"/>
	</g>
</g>
<g id="Layer_2" class="st3">
	<g class="st4">
		<circle class="st5" cx="128.5" cy="128.1" r="106.6"/>
		<path class="st5" d="M219.1,224H37.9c-3,0-5.4-2.4-5.4-5.4V37.5c0-3,2.4-5.4,5.4-5.4h181.2c3,0,5.4,2.4,5.4,5.4v181.2
			C224.5,221.6,222.1,224,219.1,224z"/>
		<path class="st5" d="M229.8,213.4H27.2c-3,0-5.4-2.4-5.4-5.4V48.1c0-3,2.4-5.4,5.4-5.4h202.5c3,0,5.4,2.4,5.4,5.4V208
			C235.1,210.9,232.7,213.4,229.8,213.4z"/>
		<path class="st5" d="M43.2,229.3V26.8c0-3,2.4-5.4,5.4-5.4h159.9c3,0,5.4,2.4,5.4,5.4v202.5c0,3-2.4,5.4-5.4,5.4H48.6
			C45.6,234.7,43.2,232.3,43.2,229.3z"/>
		<path class="st5" d="M229.8,234.7H27.2c-3,0-5.4-2.4-5.4-5.4V26.8c0-3,2.4-5.4,5.4-5.4h202.5c3,0,5.4,2.4,5.4,5.4v202.5
			C235.1,232.3,232.7,234.7,229.8,234.7z"/>
		<rect x="0.6" y="0.1" class="st6" width="255.9" height="255.9"/>
	</g>
</g>
</svg>
