<?xml version="1.0" encoding="utf-8"?>
<!-- Generator: Adobe Illustrator 27.9.0, SVG Export Plug-In . SVG Version: 6.00 Build 0)  -->
<svg version="1.1" id="Layer_1" xmlns="http://www.w3.org/2000/svg" xmlns:xlink="http://www.w3.org/1999/xlink" x="0px" y="0px"
	 viewBox="0 0 256 256" style="enable-background:new 0 0 256 256;" xml:space="preserve">
<style type="text/css">
	.st0{opacity:0.56;fill:#FFFFFF;}
</style>
<path class="st0" d="M42.6,64v96h170.7V64H42.6z M21.3,64c0-11.8,9.6-21.3,21.3-21.3h170.7c11.8,0,21.3,9.6,21.3,21.3v96
	c0,11.8-9.6,21.3-21.3,21.3H42.6c-11.8,0-21.3-9.6-21.3-21.3V64z M64,192h128c5.9,0,10.7,4.8,10.7,10.7s-4.8,10.7-10.7,10.7H64
	c-5.9,0-10.7-4.8-10.7-10.7S58.1,192,64,192z"/>
</svg>
