<?xml version="1.0" encoding="utf-8"?>
<!-- Generator: Adobe Illustrator 27.3.1, SVG Export Plug-In . SVG Version: 6.00 Build 0)  -->
<svg version="1.1" xmlns="http://www.w3.org/2000/svg" xmlns:xlink="http://www.w3.org/1999/xlink" x="0px" y="0px"
	 viewBox="0 0 256 256" style="enable-background:new 0 0 256 256;" xml:space="preserve">
<style type="text/css">
	.st0{fill:none;stroke:#364E5E;stroke-width:11.8974;stroke-linejoin:round;stroke-miterlimit:10;}
	.st1{fill:none;stroke:#364E5E;stroke-width:12;stroke-linejoin:round;stroke-miterlimit:10;}
	.st2{fill:#FFD42A;stroke:#364E5E;stroke-width:8;stroke-linejoin:round;stroke-miterlimit:10;}
	.st3{fill:#364E5E;}
</style>
<g id="Frame_00000129192822635458020410000007051124584436557717_">
	<path class="st0" d="M203.2,218.2H54.4c-9.2,0-16.7-7.5-16.7-16.7V54.4c0-9.2,7.5-16.7,16.7-16.7h147.1c9.2,0,16.7,7.5,16.7,16.7
		v148.8C218.2,211.5,211.5,218.2,203.2,218.2z"/>
	<line class="st1" x1="37" y1="70.6" x2="219" y2="70.6"/>
</g>
<g id="Knobs">
	<circle class="st2" cx="184.9" cy="109.1" r="10.6"/>
	<circle class="st2" cx="184.9" cy="144.5" r="10.6"/>
	<circle class="st2" cx="184.9" cy="179.9" r="10.6"/>
</g>
<g id="Faders">
	<path class="st3" d="M149,115c0,3.3-2.6,5.9-5.9,5.9H133c-2.3,5.2-7.5,8.9-13.5,8.9s-11.3-3.6-13.6-8.9H60.6
		c-3.3,0-5.9-2.6-5.9-5.9s2.6-5.9,5.9-5.9H106c2.3-5.2,7.5-8.9,13.5-8.9s11.2,3.6,13.5,8.9h10.1C146.4,109.1,149,111.7,149,115z
		 M113.7,115c0,3.3,2.6,5.9,5.9,5.9s5.9-2.6,5.9-5.9s-2.6-5.9-5.9-5.9S113.7,111.7,113.7,115z M78.3,144.5c0,3.3,2.6,5.9,5.9,5.9
		s5.9-2.6,5.9-5.9c0-3.3-2.6-5.9-5.9-5.9S78.3,141.2,78.3,144.5z M84.2,159.2c-6.1,0-11.2-3.6-13.5-8.9H60.6c-3.3,0-5.9-2.6-5.9-5.9
		c0-3.3,2.6-5.9,5.9-5.9h10.1c2.3-5.2,7.5-8.9,13.5-8.9s11.3,3.7,13.6,8.9h45.4c3.3,0,5.9,2.6,5.9,5.9c0,3.3-2.6,5.9-5.9,5.9H97.7
		C95.4,155.6,90.2,159.2,84.2,159.2z M113.7,179.9c3.3,0,5.9-2.6,5.9-5.9c0-3.3-2.6-5.9-5.9-5.9s-5.9,2.6-5.9,5.9
		C107.8,177.2,110.4,179.9,113.7,179.9z M100.1,179.9H60.5c-3.3,0-5.9-2.6-5.9-5.9c0-3.3,2.6-5.9,5.9-5.9h39.6
		c2.3-5.2,7.5-8.9,13.5-8.9s11.2,3.6,13.5,8.9h16c3.3,0,5.9,2.6,5.9,5.9c0,3.3-2.6,5.9-5.9,5.9h-16c-2.3,5.2-7.5,8.9-13.5,8.9
		C107.6,188.7,102.4,185.1,100.1,179.9z"/>
	<circle class="st2" cx="113.7" cy="174" r="10.6"/>
	<circle class="st2" cx="84.2" cy="144.5" r="10.6"/>
	<circle class="st2" cx="119.6" cy="115" r="10.6"/>
</g>
</svg>
