<?xml version="1.0" encoding="utf-8"?>
<!-- Generator: Adobe Illustrator 27.3.1, SVG Export Plug-In . SVG Version: 6.00 Build 0)  -->
<svg version="1.1" xmlns="http://www.w3.org/2000/svg" xmlns:xlink="http://www.w3.org/1999/xlink" x="0px" y="0px"
	 viewBox="0 0 256 256" style="enable-background:new 0 0 256 256;" xml:space="preserve">
<style type="text/css">
	.st0{fill:#364E5E;}
	.st1{fill:none;stroke:#364E5E;stroke-width:13.0743;stroke-linejoin:round;stroke-miterlimit:10;}
	.st2{fill:#FFD42A;stroke:#364E5E;stroke-width:9.5878;stroke-linejoin:round;stroke-miterlimit:10;}
	.st3{display:none;}
	.st4{display:inline;}
	.st5{fill:none;stroke:#F15A24;stroke-width:0.5331;stroke-miterlimit:10;}
	.st6{fill:none;stroke:#1A1A1A;stroke-width:1.5994;stroke-miterlimit:10;}
</style>
<g id="Layer_1">
	<g>
		<path class="st0" d="M151.4,113.5c0,3.6-2.9,6.6-6.6,6.6h-11.2c-2.5,5.8-8.3,9.9-15,9.9c-6.7,0-12.6-4-15.1-9.9H53
			c-3.6,0-6.6-2.9-6.6-6.6c0-3.6,2.9-6.6,6.6-6.6h50.6c2.5-5.8,8.3-9.9,15-9.9c6.7,0,12.5,4,15,9.9h11.2
			C148.5,106.9,151.4,109.9,151.4,113.5z M112.1,113.5c0,3.6,2.9,6.6,6.6,6.6c3.6,0,6.6-2.9,6.6-6.6c0-3.6-2.9-6.6-6.6-6.6
			C115,106.9,112.1,109.9,112.1,113.5z M72.6,146.4c0,3.6,2.9,6.6,6.6,6.6s6.6-2.9,6.6-6.6c0-3.6-2.9-6.6-6.6-6.6
			C75.6,139.8,72.6,142.7,72.6,146.4z M79.2,162.7c-6.7,0-12.5-4-15-9.9H53c-3.6,0-6.6-2.9-6.6-6.6s2.9-6.6,6.6-6.6h11.2
			c2.5-5.8,8.3-9.9,15-9.9s12.6,4.1,15.1,9.9h50.6c3.6,0,6.6,2.9,6.6,6.6c0,3.6-2.9,6.6-6.6,6.6H94.3
			C91.8,158.7,85.9,162.7,79.2,162.7z M112.1,185.7c3.6,0,6.6-2.9,6.6-6.6c0-3.6-2.9-6.6-6.6-6.6c-3.6,0-6.6,2.9-6.6,6.6
			C105.5,182.8,108.4,185.7,112.1,185.7z M97,185.7H52.9c-3.6,0-6.6-2.9-6.6-6.6c0-3.6,2.9-6.6,6.6-6.6H97c2.5-5.8,8.3-9.9,15-9.9
			s12.5,4,15,9.9h17.8c3.6,0,6.6,2.9,6.6,6.6c0,3.6-2.9,6.6-6.6,6.6H127c-2.5,5.8-8.3,9.9-15,9.9C105.3,195.6,99.5,191.5,97,185.7z"
			/>
		<path class="st1" d="M210.6,229.3H45.4c-10.4,0-18.7-8.4-18.7-18.7V45.4c0-10.4,8.4-18.7,18.7-18.7h165.2
			c10.4,0,18.7,8.4,18.7,18.7v165.2C229.3,221,221,229.3,210.6,229.3z"/>
		<line class="st1" x1="26.7" y1="64.1" x2="229.3" y2="64.1"/>
		<g>
			<circle class="st2" cx="191.3" cy="106.9" r="11.8"/>
			<circle class="st2" cx="191.3" cy="146.4" r="11.8"/>
			<circle class="st2" cx="191.3" cy="185.7" r="11.8"/>
		</g>
	</g>
	<circle class="st2" cx="112.1" cy="179.2" r="11.8"/>
	<circle class="st2" cx="79.2" cy="146.3" r="11.8"/>
	<circle class="st2" cx="118.6" cy="113.5" r="11.8"/>
</g>
<g id="Layer_2" class="st3">
	<g class="st4">
		<circle class="st5" cx="128.5" cy="128.1" r="106.6"/>
		<path class="st5" d="M219.1,224H37.9c-3,0-5.4-2.4-5.4-5.4V37.5c0-3,2.4-5.4,5.4-5.4h181.2c3,0,5.4,2.4,5.4,5.4v181.2
			C224.5,221.6,222.1,224,219.1,224z"/>
		<path class="st5" d="M229.8,213.4H27.2c-3,0-5.4-2.4-5.4-5.4V48.1c0-3,2.4-5.4,5.4-5.4h202.5c3,0,5.4,2.4,5.4,5.4V208
			C235.1,210.9,232.7,213.4,229.8,213.4z"/>
		<path class="st5" d="M43.2,229.3V26.8c0-3,2.4-5.4,5.4-5.4h159.9c3,0,5.4,2.4,5.4,5.4v202.5c0,3-2.4,5.4-5.4,5.4H48.6
			C45.6,234.7,43.2,232.3,43.2,229.3z"/>
		<path class="st5" d="M229.8,234.7H27.2c-3,0-5.4-2.4-5.4-5.4V26.8c0-3,2.4-5.4,5.4-5.4h202.5c3,0,5.4,2.4,5.4,5.4v202.5
			C235.1,232.3,232.7,234.7,229.8,234.7z"/>
		<rect x="0.6" y="0.1" class="st6" width="255.9" height="255.9"/>
	</g>
</g>
</svg>
