<?xml version="1.0" encoding="utf-8"?>
<!-- Generator: Adobe Illustrator 27.3.1, SVG Export Plug-In . SVG Version: 6.00 Build 0)  -->
<svg version="1.1" id="Layer_1" xmlns="http://www.w3.org/2000/svg" xmlns:xlink="http://www.w3.org/1999/xlink" x="0px" y="0px"
	 viewBox="0 0 256 256" style="enable-background:new 0 0 256 256;" xml:space="preserve">
<style type="text/css">
	.st0{fill:#364E5E;}
	.st1{fill:none;stroke:#364E5E;stroke-width:15.5129;stroke-linejoin:round;stroke-miterlimit:10;}
	.st2{fill:none;stroke:#364E5E;stroke-width:11.3761;stroke-linejoin:round;stroke-miterlimit:10;}
</style>
<g>
	<path class="st0" d="M155.8,110.8c0,4.3-3.5,7.8-7.8,7.8h-13.3c-3,6.9-9.9,11.7-17.8,11.7S102,125.5,99,118.6l-60,0
		c-4.3,0-7.8-3.5-7.8-7.8c0-4.3,3.5-7.8,7.8-7.8l60,0c3-6.9,9.9-11.7,17.8-11.7s14.8,4.8,17.8,11.7l13.3,0
		C152.3,103,155.8,106.5,155.8,110.8z M109.1,110.8c0,4.3,3.5,7.8,7.8,7.8c4.3,0,7.8-3.5,7.8-7.8c0-4.3-3.5-7.8-7.8-7.8
		C112.6,103,109.1,106.5,109.1,110.8z M62.3,149.8c0,4.3,3.5,7.8,7.8,7.8s7.8-3.5,7.8-7.8c0-4.3-3.5-7.8-7.8-7.8
		C65.8,142,62.3,145.5,62.3,149.8z M70.1,169.2c-8,0-14.8-4.8-17.8-11.7H39c-4.3,0-7.8-3.5-7.8-7.8s3.5-7.8,7.8-7.8h13.3
		c3-6.9,9.9-11.7,17.8-11.7S85,135.1,88,142l60,0c4.3,0,7.8,3.5,7.8,7.8c0,4.3-3.5,7.8-7.8,7.8l-60,0
		C85,164.4,78.1,169.2,70.1,169.2z M109.1,196.5c4.3,0,7.8-3.5,7.8-7.8c0-4.3-3.5-7.8-7.8-7.8c-4.3,0-7.8,3.5-7.8,7.8
		S104.8,196.5,109.1,196.5z M91.2,196.5l-52.3,0c-4.3,0-7.8-3.5-7.8-7.8c0-4.3,3.5-7.8,7.8-7.8l52.3,0c3-6.9,9.9-11.7,17.8-11.7
		s14.8,4.8,17.8,11.7l21.1,0c4.3,0,7.8,3.5,7.8,7.8s-3.5,7.8-7.8,7.8h-21.1c-3,6.9-9.9,11.7-17.8,11.7S94.2,203.4,91.2,196.5z"/>
	<path class="st1" d="M226,248.2H30c-12.3,0-22.2-10-22.2-22.2V30c0-12.3,10-22.2,22.2-22.2h196c12.3,0,22.2,10,22.2,22.2v196
		C248.2,238.3,238.3,248.2,226,248.2z"/>
	<line class="st1" x1="7.8" y1="52.2" x2="248.2" y2="52.2"/>
	<g>
		<circle class="st2" cx="203.1" cy="103" r="14"/>
		<circle class="st2" cx="203.1" cy="149.8" r="14"/>
		<circle class="st2" cx="203.1" cy="196.5" r="14"/>
	</g>
</g>
</svg>
