<?xml version="1.0" encoding="utf-8"?>
<!-- Generator: Adobe Illustrator 27.3.1, SVG Export Plug-In . SVG Version: 6.00 Build 0)  -->
<svg version="1.1" id="Layer_2" xmlns="http://www.w3.org/2000/svg" xmlns:xlink="http://www.w3.org/1999/xlink" x="0px" y="0px"
	 viewBox="0 0 256 256" style="enable-background:new 0 0 256 256;" xml:space="preserve">
<style type="text/css">
	.st0{fill:#224458;}
</style>
<path class="st0" d="M56,188l39.2-88.2c5.7-12.9,15.1-23.8,27-31.4l55.1-35.2c1.1-0.7,2.4-1.1,3.8-1.1c3.8,0,6.9,3.1,6.9,6.9v0.6
	c0,1-0.2,1.9-0.5,2.8L165,98.3c-0.7,1.8-1,3.6-1,5.5c0,2.1,0.5,4.1,1.3,6L200,188h-77.7l4.4-13.3l15.2-5.1c2.4-0.8,4.1-3.1,4.1-5.7
	s-1.6-4.9-4.1-5.7l-15.2-5.1l-5.1-15.1c-0.8-2.4-3.1-4.1-5.7-4.1c-2.6,0-4.9,1.6-5.7,4.1l-5.1,15.2l-15.2,5.1
	c-2.4,0.8-4.1,3.1-4.1,5.7s1.7,4.9,4.1,5.7l15.2,5.1l4.4,13.2H56z M136.9,85c-0.4-1.2-1.5-2.1-2.9-2.1s-2.4,0.8-2.9,2.1l-2.5,7.6
	l-7.6,2.5c-1.2,0.4-2.1,1.5-2.1,2.8s0.8,2.4,2.1,2.9l7.6,2.5l2.5,7.6c0.4,1.2,1.5,2.1,2.9,2.1s2.4-0.8,2.9-2.1l2.5-7.6l7.6-2.5
	c1.2-0.4,2.1-1.5,2.1-2.9s-0.8-2.4-2.1-2.8l-7.6-2.5L136.9,85z M44,200h168c6.6,0,12,5.4,12,12c0,6.6-5.4,12-12,12H44
	c-6.6,0-12-5.4-12-12C32,205.3,37.4,200,44,200z"/>
</svg>
