<?xml version="1.0" encoding="utf-8"?>
<!-- Generator: Adobe Illustrator 27.3.1, SVG Export Plug-In . SVG Version: 6.00 Build 0)  -->
<svg version="1.1" id="Layer_2_00000049188355404453284020000001192288523451774081_"
	 xmlns="http://www.w3.org/2000/svg" xmlns:xlink="http://www.w3.org/1999/xlink" x="0px" y="0px" viewBox="0 0 256 256"
	 style="enable-background:new 0 0 256 256;" xml:space="preserve">
<style type="text/css">
	.st0{fill:#224458;}
</style>
<path class="st0" d="M113.5,45.3l-14.6,5.5c-1.2,0.4-1.9,1.6-1.9,2.8c0,1.2,0.8,2.4,1.9,2.8l14.6,5.5l5.5,14.6
	c0.4,1.2,1.6,1.9,2.8,1.9c1.2,0,2.4-0.8,2.8-1.9l5.5-14.6l14.6-5.5c1.2-0.4,1.9-1.6,1.9-2.8c0-1.2-0.8-2.4-1.9-2.8l-14.6-5.5
	l-5.5-14.6c-0.4-1.2-1.6-1.9-2.8-1.9c-1.2,0-2.4,0.8-2.8,1.9L113.5,45.3z M40.4,182.1c-7.3,7.3-7.3,19,0,26.3l13.4,13.4
	c7.3,7.3,19,7.3,26.3,0L228,73.9c7.3-7.3,7.3-19,0-26.3l-13.4-13.4c-7.3-7.3-19-7.3-26.3,0L40.4,182.1z M210.4,60.8l-40.7,40.7l-9-9
	l40.7-40.7C201.4,51.7,210.4,60.8,210.4,60.8z M25.4,74.2c-1.7,0.7-2.9,2.3-2.9,4.2s1.2,3.5,2.9,4.2l21.9,8.2l8.2,21.9
	c0.7,1.7,2.3,2.9,4.2,2.9c1.9,0,3.5-1.2,4.2-2.9l8.2-21.9l21.9-8.2c1.7-0.7,2.9-2.3,2.9-4.2s-1.2-3.5-2.9-4.2L72.2,66l-8.2-21.9
	c-0.7-1.7-2.3-2.9-4.2-2.9c-1.9,0-3.5,1.2-4.2,2.9L47.4,66L25.4,74.2z M161.9,173.5c-1.7,0.7-2.9,2.3-2.9,4.2s1.2,3.5,2.9,4.2
	l21.9,8.2l8.2,21.9c0.7,1.7,2.3,2.9,4.2,2.9s3.5-1.2,4.2-2.9l8.2-21.9l21.9-8.2c1.7-0.7,2.9-2.3,2.9-4.2s-1.2-3.5-2.9-4.2l-21.9-8.2
	l-8.2-21.9c-0.7-1.7-2.3-2.9-4.2-2.9s-3.5,1.2-4.2,2.9l-8.2,21.9L161.9,173.5z"/>
</svg>
