<svg xmlns="http://www.w3.org/2000/svg" width="64pt" height="64pt" viewBox="0 0 64 64"><path d="M30.48 64.367a32.128 32.128 0 0 1-16.156-5.37A32.493 32.493 0 0 1 4.551 48.73C.85 42.55-.652 35.344.258 28.113c1.156-9.218 6.293-17.5 14.066-22.699C20.793 1.086 28.512-.719 36.31.258c7.046.887 13.601 4.11 18.671 9.172 4.133 4.136 7.063 9.297 8.461 14.894a32.366 32.366 0 0 1 0 15.75c-2.273 9.086-8.527 16.836-16.945 21a32.232 32.232 0 0 1-16.016 3.293zm-3.585-1.52v-.343l.265-.133c.152-.074.274-.148.274-.164 0-.016-.13-.094-.29-.168l-.285-.137-.117-.402a2.581 2.581 0 0 0-.148-.441c-.02-.02-.13.097-.242.265l-.207.301-.227-.031c-.129-.016-.25-.035-.375-.055l-.14-.031.175.32.18.317-.113.402c-.067.219-.106.398-.086.398.015 0 .183-.043.37-.097l.337-.098.277.219c.152.12.289.218.312.218.02 0 .04-.148.04-.34zm5.421-1.472c.188-.066.286-.078.293-.04.012.032.07.017.164-.05.079-.05 1.348-.469 2.825-.918 1.476-.449 4.218-1.289 6.101-1.867 1.88-.574 3.438-1.031 3.465-1.008.031.02.324-.054.668-.16.336-.105.977-.258 1.422-.34.45-.082.832-.152.855-.164.02-.004-.074-.156-.21-.34l-.254-.328h-.364c-.203 0-.37.02-.37.043 0 .031-.095.074-.208.106-.246.07-.496.148-.742.226-.293.086-.547.164-.574.164-.02 0-.176-.113-.352-.25l-.312-.254-.032.145c-.02.105-.035.215-.039.324-.004.102-.023.184-.047.184-.027 0-.054.05-.066.109-.016.117.234.04-4.637 1.512l-4.304 1.304c-1.743.528-3.29.977-3.43.993l-.258.027v.305c0 .418-.004.418.406.277zm-.75-.313v-.359l-.171-.062c-.418-.149-.938-.668-1.254-1.262l-.16-.293.273.281.281.274.23-.243c.126-.136.262-.293.297-.343.067-.09.079-.082.239.187.094.153.297.422.453.594.152.176.324.375.379.445.129.153.285.125.535-.093l.172-.153-.203-.305c-1.274-1.875-1.293-5.507-.035-7.43l.234-.362-.16-.145a1.43 1.43 0 0 0-.27-.211c-.113-.055-.133-.047-.265.105-.192.227-.45.696-.633 1.149-.149.371-.16.383-.453.527-.168.086-.559.32-.864.528l-.625.41c-.128.082.207-1.008.477-1.555.34-.684.742-1.14 1.223-1.383l.25-.125v-.343c0-.329-.008-.344-.118-.344-.25 0-.832.355-1.207.734-.992 1-1.539 2.68-1.539 4.7 0 1.945.508 3.558 1.434 4.558.36.39.648.605 1.031.762.438.18.45.175.45-.242zm-8.902-.921c.14-.063.262-.133.273-.153.012-.02-.105-.105-.265-.183l-.285-.145-.14-.45c-.036-.151-.09-.3-.145-.444-.012 0-.11.136-.223.312l-.203.309-.23-.035a3 3 0 0 0-.372-.043l-.133-.004.34.617-.117.383c-.133.433-.133.433.29.304.132-.043.265-.074.3-.074.035 0 .187.102.348.223l.289.226.015-.363.012-.367zm12.043-.457c1.531-.465 1.383-.364 1.637-1.11.258-.761.34-1.277.37-2.3.044-1.317-.077-2.153-.425-3.122l-.152-.422-1.461-.445a39.792 39.792 0 0 0-1.477-.433c.063.168.133.332.211.488.477 1.023.645 1.555.781 2.496a8.788 8.788 0 0 1-.093 2.871c-.157.754-.504 1.773-.801 2.348-.031.062.027.05 1.41-.371zm4.742-1.438c.192-.05.38-.117.567-.191.047-.051-.098-.938-.215-1.293-.262-.782-.832-1.723-1.574-2.578-.41-.477-.934-.961-.985-.918-.012.015.008.18.051.367.102.46.164.855.219 1.32.035.363.074.453.367.988.488.875.719 1.528.797 2.246.027.266.035.286.133.25zm3.48-1.055c.356-.109.66-.199.669-.199.054 0-.004-.246-.157-.695-.214-.613-.257-.692-.597-1.207l-.274-.406-.496-.157c-.984-.304-1.43-.433-1.441-.418-.008.008.039.09.11.184.269.363.968 1.586 1.128 1.977.09.222.2.562.246.761.051.196.102.36.117.36.02 0 .332-.09.696-.2zm-17.605-.601l.153-.5-.239-.215c-.273-.242-.457-.379-.48-.352-.059.079-.426 1.192-.399 1.22.032.03.711.335.774.347.02 0 .105-.223.191-.5zM13.2 56.133c.211-.07.535-.207.707-.305l.696-.387c.468-.254.683-.43.93-.754.19-.257.218-.328.464-1.265.18-.664.16-1.082-.066-1.531-.153-.297-.309-.477-.895-1.02-.254-.234-.258-.242-.14-.273.062-.024.218-.04.343-.043.196-.004.278.027.602.258.672.46 1.598 1.585 1.715 2.09.039.14.074.253.09.253.011 0 .105-.129.203-.285.172-.27.203-.293.664-.5.433-.191.523-.215.855-.215.613-.004.813.047 1.035.266.278.281.391.687.434 1.543l.031.68.336-.372c.305-.343.352-.378.524-.378.25 0 .406.187.539.628.125.403.203 1.157.164 1.504l-.032.25.266-.195c.816-.59.984-.723.984-.773 0-.09-.332-.996-.437-1.207a1.254 1.254 0 0 0-.543-.524c-.121-.062-.258-.082-.55-.066l-.391.015v-.422c0-.593-.102-.902-.387-1.18-.266-.253-.887-.585-1.098-.585-.203 0-.746.191-1.465.515-.547.243-.62.266-.664.196a18.527 18.527 0 0 0-.199-.29 5.125 5.125 0 0 1-.27-.44c-.164-.333-.53-.72-.82-.88-.273-.148-.879-.285-1.258-.285-.52.004-1.453.196-1.394.29.012.015 0 .218-.02.449l-.07.671-.027.25.222.032c.47.062.809.347 1.008.859.082.215.117.418.137.855.02.551.015.586-.106.793-.14.235-.437.528-.664.641-.367.195-1.527.223-2.172.055-.789-.203-1.449-.707-1.75-1.336-.078-.172-.16-.309-.18-.309-.015 0-.046.106-.066.235-.078.492-.18.984-.293 1.472-.03.094.02.168.286.426.355.344.859.625 1.289.715.386.078.996.027 1.433-.121zm34.656-.656c.106-.172.188-.32.18-.329-.27-.058-.535-.117-.805-.164a14.62 14.62 0 0 1-1.398-.347c-.414-.133-.629-.18-.672-.145-.039.031-1.012-.246-3.101-.887l-6.59-2.02a478.225 478.225 0 0 0-3.578-1.081c-.016 0-.028.152-.028.344v.34h.242c.133 0 .329.039.43.074.102.043.695.226 1.32.414.622.191 3.075.933 5.458 1.656 2.382.723 4.554 1.379 4.835 1.465.485.144.5.152.5.289 0 .133.168.531.223.531.02 0 .133-.078.254-.172.125-.097.246-.175.273-.175.09 0 1.493.457 1.536.5.03.023.203.042.39.035l.34-.016zm-28.054.113c.242-.024.351-.05.34-.086-.043-.133-.09-.262-.133-.39-.063-.184-.121-.333-.145-.333-.015 0-.304-.043-.633-.09l-.601-.09v1.07l.402-.026zm31.785-1.445l.5-.192.133-.055-.149-.441-.148-.437-.473.21-.48.211-.012.473-.016.473.137-.055zm3.059-1.836c.183-.438.335-.825.335-.856 0-.035-.261-.3-.578-.601l-.582-.543-.379.375c-.207.207-.382.402-.382.421 0 .06 1.199 2 1.23 2.004.016 0 .176-.363.356-.8zm-26.52.156l.36-.45-.22-.175a14.124 14.124 0 0 1-.511-.453c-.48-.446-.402-.453-.856.074-.218.254-.398.477-.398.504.004.05 1.14.941 1.207.945.031 0 .219-.2.418-.445zm20.39-.27c.91-.16 1.883-.558 2.547-1.062.641-.485 1.176-1.301 1.31-1.996.054-.266.073-.305.151-.282.141.043.426-.113.54-.3.09-.145.117-.164.207-.114.183.098.433-.023.757-.363.246-.262.34-.324.594-.398.29-.086.309-.09.43-.012.172.113.304.34.402.672.043.144.086.277.094.289.012.008.191-.086.406-.211.274-.164.442-.23.57-.23.395 0 .59-.227.836-.985.16-.492.68-1.723.786-1.86.148-.19.761-.402 1.605-.542.3-.055.563-.106.574-.117.031-.04-.707-.965-.793-1-.18-.067-1.629.562-1.886.812-.38.383-.586 1.055-.645 2.117-.04.766-.129 1.07-.348 1.188-.21.11-.382-.012-.765-.524-.332-.453-.52-.586-.813-.586-.168 0-.265.032-.43.153-.19.14-.285.246-.64.707-.2.265-.48.543-.547.543-.086 0-.035-.715.074-1.133.125-.5.047-.7-.336-.863-.277-.114-.418-.086-.922.172l-.468.238.148.054c.508.192.668.278.824.438.274.277.297.387.184.824-.176.692-.45.856-.676.414-.039-.07-.305-.379-.594-.68-.476-.495-.539-.55-.699-.55-.23.004-.527.148-.75.367-.347.344-.34.324-.246 1.082.07.594.098.688.188.746.144.094.304.055.535-.133l.172-.144-.098-.16c-.137-.227-.125-.446.039-.57.164-.133.281-.133.676.015.465.164.527.258.504.719l-.02.363-.281.258c-.336.304-.902.61-1.406.758-.516.148-1.657.187-2.36.078a3.306 3.306 0 0 0-.523-.067c-.008.008.066.442.156.97.094.523.172.956.172.972 0 .035.371.004.766-.067zm-5.41-.93l.125-.1-.136-.77c-.07-.426-.153-.778-.176-.778-.027 0-.234.113-.465.258-.305.184-.41.27-.383.328l.278.727.254.648.191-.11c.098-.058.242-.148.312-.202zm-6.218-2.445l.332-.797-.16-.168a11.498 11.498 0 0 0-.59-.562l-.434-.398-.789.789.578.93c.625 1.007.66 1.066.696 1.027.015-.012.18-.383.367-.82zm-29.242.47l.59-.22.109-.039-.153-.441-.144-.442-.207.09c-.164.07-.324.14-.488.215l-.282.125v.45c0 .253.02.44.047.44.024 0 .266-.081.528-.179zm15.335-.118c.497-.04.985-.121 1.465-.246l.184-.051v-.422c0-.355-.012-.418-.078-.394-.516.199-1.399.324-2.258.324-1.14 0-2.156-.207-2.867-.586l-.356-.192v.887l.367.168c.606.281 1.356.45 2.364.531.41.032.61.028 1.176-.02zm2.29-.567l.246-.125v-.882l-.262.144-.254.153-.016.417c-.011.231 0 .418.016.418.012 0 .137-.054.27-.125zm-12.727-.394c.105-.04.207-.078.23-.094.043-.023-.171-.746-.25-.832-.02-.023-.234.043-.496.156l-.457.204-.03.937.41-.152c.226-.082.491-.184.593-.22zm29.5.133l.414-.137-.016-.441c0-.149-.011-.301-.027-.453-.008-.008-.305.144-.66.343l-.645.364.23.23c.13.129.247.234.259.234.015 0 .218-.062.445-.14zm-23.219-1.27c.055-.011.098-.062.098-.101 0-.13.379-.442.762-.625.37-.184 1.203-.418 1.46-.418h.141v-.371c0-.434.027-.422-.664-.27-1.195.254-2.031.73-2.336 1.316-.21.422-.098 1.06.262 1.43l.156.164.012-.554c.015-.497.023-.547.11-.57zm7.457.602c.149-.313.164-.875.032-1.149-.274-.586-1.305-1.097-2.63-1.304l-.43-.07v.363c0 .41-.066.355.563.464.82.145 1.528.461 1.844.833l.2.242v1.156l.152-.148a1.41 1.41 0 0 0 .27-.387zm-2.535.242c.57-.05.461-.105-.281-.14-1.004-.051-1.977-.266-2.235-.5a.346.346 0 0 1-.093-.212c0-.152.203-.504.234-.41.035.11.293.207.54.207h.234l-.165-.101c-.152-.09-.16-.11-.09-.184.165-.191.18-.45.18-3.238v-2.762l-.234-.031a1.41 1.41 0 0 1-.79-.395c-.206-.183-.573-.742-.765-1.144-.152-.328-.324-.461-1.133-.903-.53-.285-.851-.53-1.07-.82-.484-.637-.598-1.472-.34-2.547l.098-.394-.133-.106c-.074-.058-.148-.093-.164-.074-.086.094-.254.977-.277 1.438-.028.628.039.996.254 1.449.28.582.683.965 1.53 1.422.747.406.786.441 1.005.879.398.8.953 1.37 1.48 1.511l.196.055v2.11c0 1.374-.016 2.113-.047 2.113-.07 0-.067.652.004.722.109.11-.036.223-.391.313-.672.172-1.535.707-1.535.953 0 .172.305.398.715.535.55.18.922.238 1.77.277.734.032.89.028 1.503-.023zm9.129-.797a14.87 14.87 0 0 1-.082-.824 10.83 10.83 0 0 0-.078-.758c-.02-.07-.793 1.02-.84 1.18-.027.093.102.183.555.383.433.187.48.191.445.02zm-28.23-.71l.148-.477-.25-.211c-.516-.438-.43-.47-.688.238-.125.344-.222.629-.214.637.05.054.8.34.832.316.015-.016.097-.242.172-.504zm18.332.03l.148-.113-.11-.121c-.097-.11-.105-.16-.105-.762 0-.543.012-.648.07-.648.067 0 .075-.238.075-1.867v-1.864l.28-.129c.544-.25.95-.69 1.352-1.472.208-.406.223-.426.579-.625.972-.547 1.156-.672 1.476-1.012.594-.621.817-1.266.774-2.226-.02-.5-.207-1.465-.309-1.633-.016-.024-.09.039-.168.144-.078.11-.176.211-.281.297l-.149.102.075.261c.039.141.082.52.097.836.032.7-.07 1.102-.383 1.52-.246.34-.52.547-1.18.906-.823.445-.85.477-1.16 1.063-.308.59-.66 1.015-.937 1.148a1.598 1.598 0 0 1-.484.117l-.297.032v2.925c0 2.922 0 2.93.11 3.164l.109.235.14-.078c.098-.063.188-.13.278-.196zm-7.207-.836c.253-.046.55-.105.66-.14l.203-.059.02-.402c.007-.223 0-.402-.02-.402-.137.023-.27.058-.41.093-.614.153-1.118.211-1.903.207-1.125 0-2.093-.199-2.8-.566a19.04 19.04 0 0 1-.332-.172c-.024-.008-.032.18-.028.418l.016.434.199.109c.223.125.992.379 1.402.457.828.16 2.149.172 2.993.023zm1.554-.476c.145-.07.215-.129.2-.176-.024-.144-.032-.285-.024-.433v-.364l-.2.125a.962.962 0 0 1-.245.121c-.032 0-.051.168-.051.418 0 .239.02.418.047.418.031 0 .152-.047.273-.11zm-6.453-1.66c.035 0 .168-.098.293-.215.16-.145.34-.274.535-.367.59-.285 1.758-.555 1.903-.442.046.043-.028.078-.282.145-.625.156-1.312.55-1.46.84-.067.129-.067.156.007.265.113.176.621.399 1.164.516.606.133 2.567.184 2.992.078l.27-.066-.715-.035c-1.066-.051-2.055-.27-2.316-.504-.121-.11-.117-.29.008-.489.097-.164.101-.164.195-.07.117.117.273.156.52.137l.19-.02-.136-.058c-.156-.067-.164-.133-.047-.461.067-.192.106-.239.195-.239h.114V36.88h-.274c-.574 0-1.004-.39-1.488-1.356-.23-.468-.305-.527-1.144-.992-1.41-.773-1.77-1.558-1.442-3.152l.074-.356-.285-.27c-.152-.144-.289-.26-.297-.253-.05.156-.097.316-.136.477-.246.933-.246 1.78 0 2.445.07.18.144.351.175.379.09.09.043.11-.289.148-1.238.121-6.988 1.02-7.918 1.235-.078.015-.113.058-.109.132 0 .254.016.254 1.062.067 1.961-.356 5.051-.824 6.817-1.043l.719-.086.222.2c.262.241.578.452 1.25.823.504.278.504.278.684.633.394.778.91 1.352 1.414 1.563l.273.113v1.906c0 1.242.02 1.91.051 1.91.027 0 .047.188.047.47v.464h-.344v-.648l-.254.035a7.163 7.163 0 0 0-1.5.406c-.62.266-1.015.566-1.234.937-.113.196-.133.286-.129.575.004.39.121.675.383.949l.152.16.012-.64c.012-.485.035-.641.082-.641zm7.258 1.054c.238-.27.351-.582.351-.957 0-.843-.855-1.464-2.445-1.77-.754-.144-.707-.16-.691.231l.011.336.2.055c.105.031.406.105.66.164.57.129 1.219.434 1.41.652.074.09.152.153.176.149.023-.008.039.297.039.676 0 .386.02.687.043.687.027 0 .14-.101.246-.223zm30.355.102c3.895-.473 6.97-2.031 7.875-3.984.196-.418.293-.758.293-1.008 0-.14-.011-.149-.195-.149-.2 0-.2 0-.2.196 0 .453-.355 1.05-1.007 1.699-1.254 1.242-3.168 2.156-5.535 2.629-2.895.586-6.008.476-8.715-.301-1.195-.344-2.184-.781-2.984-1.328-.18-.121-.36-.246-.543-.363-.36-.22-1.024-.961-1.258-1.399-.203-.394-.32-.785-.32-1.066v-.211h-.41l.038.3c.075.696.43 1.403 1.02 2.032 1.531 1.64 4.39 2.719 8.059 3.043.562.055 3.25-.012 3.882-.09zm-.578-.684c1.77-.195 3.278-.574 4.602-1.152 1.512-.672 2.804-1.719 3.265-2.652.215-.434.18-.668-.238-1.575l-.324-.703-.469.496c-1.254 1.333-3.222 2.567-5.137 3.227-1.148.395-2.46.652-3.875.758-.988.074-3.656.035-4.625-.07-1.234-.141-2.949-.422-3.332-.56-.16-.054.09.161.528.454 1.515 1 3.625 1.645 6.027 1.844.734.058 2.754.023 3.578-.067zm-32.984-.898c.285-.195.324-.309.168-.445-.086-.075-.102-.149-.102-.516 0-.355.016-.434.07-.434.067 0 .079-.257.079-2.03v-2.032l.238-.11c.492-.226.887-.624 1.254-1.28.098-.169.195-.387.223-.489.066-.262.164-.95.14-.977-.012-.007-.156.07-.316.18-.274.18-.32.242-.535.66-.282.559-.567.934-.856 1.133-.172.117-.273.152-.55.168l-.34.02.011 2.98c.016 2.836.02 2.992.11 3.168.054.102.105.184.12.184.012 0 .145-.082.286-.18zm-7.492-.719l.375-.453-.16-.121c-.192-.164-.383-.324-.567-.496-.23-.203-.43-.371-.453-.371-.047 0-.848.918-.824.941.082.082 1.203.957 1.226.957.016 0 .2-.203.403-.457zm14.468-2.535c.04-.129.247-.227.48-.227.153 0 .224.028.313.133.059.075.133.133.157.133.023 0 .129-.062.234-.137.238-.171.434-.527.516-.921.09-.446.215-.575.851-.88 1.145-.554 1.672-1.152 1.735-1.984.03-.426-.008-.492-.23-.379-1.634.844-5.958.809-7.47-.066l-.214-.121.027.465c.035.53.144.863.367 1.113.133.152.156.164.156.082.008-.094.032-.191.055-.281.055-.2.176-.262.371-.215.113.031.121.055.121.34 0 .46.094.593.63.89.241.137.507.305.573.375.075.063.262.383.418.711.219.461.336.64.532.82.277.262.332.282.375.15zm24.793-.277c2.422-.34 4.813-1.172 6.641-2.305.48-.3 1.164-.828 1.14-.883-.175-.386-.35-.77-.527-1.148l-.508-1.09-.398.352c-1.484 1.316-3.2 2.164-5.465 2.714-1.594.383-2.75.512-4.75.547-1.98.031-3.281-.058-4.758-.332l-.671-.129c-.153-.027-.157-.02-.336.383a3.31 3.31 0 0 0-.18.461c0 .063.11.105.957.39 1.594.54 3.723.954 5.777 1.13.504.043 2.563-.016 3.078-.09zm9.899-.434c-.016-.031-.54-1.144-1.164-2.469-.625-1.32-1.133-2.406-1.125-2.414.02-.015 2.3.285 3.73.496 1.29.188 3.688.579 4.77.778.36.07.664.12.668.113.008-.004.023-.086.043-.18l.035-.175-.484-.086c-2.637-.47-5.602-.93-7.829-1.207-.601-.079-1.117-.16-1.14-.184-.024-.023-.446-.898-.938-1.941a3345.646 3345.646 0 0 1-6.172-13.141c-.324-.7-.601-1.266-.613-1.266a.705.705 0 0 0-.156.11l-.13.11.274.589c.149.324.54 1.156.86 1.844.324.691.73 1.554.898 1.918.168.367.672 1.441 1.117 2.386 1.036 2.196 2.07 4.395 3.102 6.59.18.383.512 1.086.746 1.574.238.489.48 1.008.547 1.157.059.152.39.855.738 1.574.563 1.18 1.113 2.363 1.66 3.55l.149.337h.215c.16 0 .214-.02.199-.063zm-20.352-.562a4.32 4.32 0 0 1 .27-.559c.074-.086.347-.707.387-.883.039-.18 1.449-3.355 1.496-3.39.062-.036.457-.93.457-1.024 0-.086 1.468-3.422 1.52-3.457.062-.035.398-.789.417-.933.02-.153 1.496-3.497 1.57-3.567.075-.066.43-.855.45-.996.02-.129 1.097-2.562 1.183-2.668.075-.086.461-.96.461-1.043 0-.047.813-1.867.942-2.113.043-.078.027-.09-.164-.086h-.207l-.22.476c-1.515 3.375-3.015 6.75-4.507 10.133-.961 2.168-1.77 4.004-1.805 4.078l-.058.13-1.575-.036c-2.035-.047-7.152-.047-8.843 0l-1.32.035.488.325 3.558-.028c3.028-.023 7.434.031 7.496.094.012.012-.57 1.351-1.285 2.976-.715 1.63-1.3 2.973-1.3 2.985 0 .015.085.027.187.027h.191zm21.352-1.98v-.837h-.938v1.672h.938zm-43.543-.298a.555.555 0 0 1 .738-.027c.074.07.164.129.188.129.093 0 .464-.363.558-.55.051-.102.13-.325.164-.485.121-.504.172-.559.989-.957l.496-.25.078-.414c.047-.23.113-.47.152-.536.074-.14.461-.441.766-.597l.215-.11-.032-.226a1.337 1.337 0 0 0-.05-.242 1.81 1.81 0 0 0-.325.129c-.449.203-1.214.382-2.027.476-.996.117-2.906.074-3.773-.074-.68-.121-1.391-.336-1.711-.524l-.207-.12v.257c.004.57.21 1.192.488 1.438.101.093.101.093.101-.086 0-.352.149-.516.415-.45.12.032.128.047.128.364 0 .449.102.594.614.87.613.329.683.403 1.015 1.063.215.43.364.657.543.832.133.13.266.239.29.239.019 0 .105-.063.187-.149zm32.508-1.304c1.93-.254 4.035-1.008 5.472-1.97.676-.448.668-.44.602-.577l-.504-1.086-.453-.961-.371.34c-2.399 2.242-7.73 3.27-11.614 2.238-.257-.07-.476-.113-.488-.098-.047.047-.449.977-.433.992.058.063 1.214.434 1.863.602 1.164.305 2.613.55 3.652.613.512.032 1.672-.015 2.274-.093zm-22.59-.274c.77-.066 1.539-.207 1.996-.363.2-.074.43-.145.512-.164.16-.043.465-.399.465-.555 0-.078-.032-.094-.165-.094-.101 0-.175.032-.195.075-.015.039-.05.074-.078.074-.027 0-.094.043-.145.097-.054.051-.285.153-.515.227-.418.129-.422.129-.828.047-.903-.168-1.305-.203-2.719-.203-1.41 0-1.895.043-2.715.203-.32.066-.387.066-.668-.008-.402-.101-.812-.3-.875-.418-.031-.062-.101-.094-.219-.094-.148 0-.171.016-.171.118 0 .148.277.398.613.55 1.066.489 3.449.7 5.707.508zM19.027 33c1.805-.465 4.836-.457 6.625.02.278.074.594.12.79.117h.328l-.137-.117c-.246-.22-1-.434-2.078-.602-.68-.102-2.985-.14-3.797-.07-.89.086-1.504.187-1.922.332-.395.129-.82.332-.871.414-.063.093.512.047 1.062-.094zm.371-.84l.204-.055-.02-.207a7.937 7.937 0 0 0-.223-1.082l-.101-.378-.133.132a3.248 3.248 0 0 1-.3.266l-.169.125.086.367c.047.2.098.496.113.66l.032.305.152-.043zm-3.222-.812c.66-.07 1.547-.23 1.785-.32.078-.032.113-.075.098-.118-.02-.05.07-.117.289-.215.18-.086.347-.199.5-.332.105-.11.21-.172.25-.156.039.016.07 0 .07-.047 0-.055-.074-.07-.355-.066-.274 0-.47.035-.856.164-.676.234-.867.254-1.613.148-.93-.133-2.98-.125-3.996 0l-.75.098-.43-.117a5.625 5.625 0 0 1-.629-.203c-.258-.114-.816-.13-.816-.02 0 .133.34.453.593.563.133.054.243.136.243.171 0 .122.816.313 1.726.422l.613.067c.438.054 2.672.023 3.278-.04zm43.676-2.094c.164-.082.285-.168.27-.192-.013-.023-.192-.132-.392-.253l-.363-.207-.054-.309a3.109 3.109 0 0 1-.051-.383c0-.148-.09-.09-.407.258l-.308.348-.406-.036c-.223-.015-.407-.011-.407.008 0 .024.114.192.246.383l.254.34-.156.379a4.47 4.47 0 0 0-.148.414c0 .016.195-.047.43-.137.238-.094.449-.168.476-.168.02 0 .184.13.363.293l.328.297.016-.445.012-.442zm-13.387.863c1.508-.226 2.84-.664 3.976-1.316.196-.113.356-.23.356-.262 0-.05-.817-1.832-.98-2.133-.044-.078-.067-.07-.286.14-1.027.99-2.851 1.692-5.02 1.923-.695.078-2.495.031-2.988-.07a2.75 2.75 0 0 0-.351-.06c-.008.009-.113.24-.234.516l-.22.504.122.043c.066.024.426.133.797.239 1.02.293 1.933.472 2.941.57.352.031 1.371-.016 1.887-.094zM11.07 29.7c1.867-.449 4.594-.457 6.485-.023.53.12 1.562.172 1.562.074 0-.215-.726-.613-1.422-.785-2.191-.535-6.008-.402-7.46.262-.278.128-.676.457-.63.523.051.086 1.047.05 1.465-.05zm23.29-1.168l.257-.238-.297-.508a24.76 24.76 0 0 0-.32-.543c-.04-.039-1.012.363-.996.41.008.032.176.356.379.723l.367.676.172-.145c.098-.078.293-.246.437-.375zm-27.27-.164l.281-.39-.18-.555a6.53 6.53 0 0 0-.218-.598c-.04-.039-1.035.54-1.035.598 0 .031.84 1.34.855 1.34.008 0 .14-.176.297-.395zm19.297-1.176l.144-.492-.246-.21c-.515-.434-.43-.466-.691.25-.125.34-.211.628-.188.636l.356.156c.175.078.351.145.398.149.05 0 .117-.133.227-.489zm26.625-.273c.25-.094.472-.188.492-.207.023-.02.05-.25.066-.512l.032-.469-.497-.062c-.273-.031-.503-.05-.52-.035-.03.027-.085 1.457-.054 1.457a9.3 9.3 0 0 0 .48-.172zm-6.93-1.473a8.766 8.766 0 0 0 1.79-.422c.464-.168.983-.41 1.026-.484.02-.035-.859-1.996-.933-2.066-.012-.016-.125.078-.258.207-.863.8-2.32 1.265-3.805 1.199a9.543 9.543 0 0 1-.672-.04c-.042-.01-.144.153-.28.47a7.479 7.479 0 0 0-.22.523c0 .031.2.113.715.305.285.105 1.078.285 1.453.328.48.058.618.055 1.184-.02zm-30.75-.308c.16-.387.535-.942.754-1.133.219-.192.594-.309.992-.309.41 0 .79.188.945.465.125.23.27.32.52.32.219.004.379-.132.379-.316 0-.102.027-.121.137-.121.343 0 .785-.176.87-.348.09-.168.016-.324-.218-.472a2.191 2.191 0 0 1-.215-.16c-.058-.063-.113-.125-.172-.188-.066-.074-.12-.176-.113-.223.047-.285-.59-1.078-.945-1.175-.282-.075-.59-.02-.965.168l-.36.175c-.02.008-.011-.043.012-.117.18-.465.176-.91-.008-1.105l-.105-.11.144-.125c.235-.195 1.293-.687 1.739-.812.699-.203 1.32-.29 1.78-.25l.403.031-.437-.39c-.727-.657-1.332-1.305-1.39-1.493-.099-.304-.302-1.383-.302-1.597 0-.258.239-.758.45-.938.085-.07.418-.258.742-.422.328-.164.672-.347.77-.41a1.94 1.94 0 0 1 .35-.172c.231-.07.438-.289.474-.496.062-.406-.297-.644-1.86-1.207-1.351-.492-1.504-.586-1.98-1.223-.582-.77-.88-1.882-.723-2.695.121-.61.563-1.297.98-1.508.454-.23 1.114-.246 1.774-.043.496.149 1.078.5 1.59.965.105.094.199.16.207.149.07-.094.367-.797.347-.832-.011-.024-.261-.133-.546-.243-.684-.27-1.95-.539-2.5-.539-.45 0-.926.117-1.184.297a7.438 7.438 0 0 1-.488.274c-.903.46-1.438 1.132-1.633 2.043-.09.425-.063.835.082 1.156.422.953 1.492 1.644 3.96 2.547.778.285.845.316.974.5.078.11.152.285.164.39l.027.196-.387.226c-.215.125-.734.399-1.16.606-.672.328-.805.414-1.039.664-.348.379-.422.636-.305 1.086.14.539.39.937 1.094 1.722l.66.735h-.172c-.593 0-2.12.511-2.996 1.004-.531.296-.82.683-.82 1.097 0 .157.031.227.191.375.235.23.32.215.66-.11l.239-.226-.024.325c-.023.367-.254.867-.457 1-.144.093-.152.18-.027.293.09.078.11.078.406-.02.656-.215 1.25-.355 1.535-.36.285-.007.297-.003.485.208.254.285.25.414-.024.539a3.829 3.829 0 0 0-.43.226l-.222.133.258-.027c.191-.02.258-.008.277.043.016.043.09.074.168.074.191.004.813.21.836.277.016.055-.285.121-.945.207-.274.032-.313.024-.496-.097-.407-.274-.696-.36-1.227-.364-.457 0-.516.012-.836.164-.187.09-.434.235-.547.332-.242.2-.804.883-.804.977 0 .066.488.668.539.668.015 0 .078-.125.148-.281zm40.645-1.7c.183-.437.328-.812.328-.828 0-.039-1.075-1.101-1.137-1.12-.063-.02-.777.683-.777.769 0 .07 1.175 1.98 1.222 1.98.016 0 .176-.363.364-.8zm-44.223.5l.297-.25.52.04.519.03-.07-.1-.31-.442-.237-.34.152-.328c.082-.184.121-.328.09-.328s-.195.023-.371.058c-.313.051-.313.051-.567-.113l-.386-.258-.13-.082.009.453.003.453-.304.176c-.172.098-.309.192-.309.207 0 .016.13.082.293.14.317.118.317.114.399.602.03.184.062.332.078.332.011 0 .156-.113.324-.25zm17.43-.859l.359-.441-.11-.09a21.291 21.291 0 0 1-.566-.488 8.122 8.122 0 0 0-.492-.414c-.035-.02-.781.832-.809.91-.011.054 1.149.996 1.211.98.024-.008.203-.21.407-.457zm11.433-1.441c.227-.43.707-.922 1.934-1.996a33.146 33.146 0 0 0 1.508-1.383c.37-.399.402-.442.296-.453-.246-.04-1.039.16-1.628.41-1.204.504-2.582 1.672-3.043 2.57l-.106.215.184.203c.343.371.68.723.687.723.008 0 .082-.133.168-.29zm5.063-.594l.875-.129c.332-.05.601-.11.601-.137 0-.023-.18-.43-.398-.902l-.406-.863-.141.172c-.219.277-.645.578-1.02.722l-.355.133-.215.488c-.082.168-.152.34-.219.52 0 .05.918.047 1.278-.004zM28.44 19.715c.317-.152.782-.59 1.09-1.012.098-.137.282-.457.403-.71.203-.419.226-.5.222-.79-.004-.176-.008-.86-.008-1.52-.007-1.09 0-1.21.09-1.382.121-.242.29-.367.582-.442.203-.046.27-.046.426.02l.18.078-.153.176c-.25.289-.214.398.239.722.215.157.41.282.437.282.106 0 .203-.16.203-.328 0-.094-.03-.305-.07-.461l-.078-.29.152-.3c.453-.899 1.176-1.965 1.645-2.434.363-.363 1.043-.601 1.219-.43.042.051.015.102-.122.25-.101.102-.195.25-.207.333-.03.132-.004.164.364.425.215.16.425.286.468.286.145 0 .23-.22.2-.504-.035-.258-.032-.274.32-.875.762-1.317 1.45-2.153 1.84-2.258.262-.07.652-.07.695.004.02.03-.047.125-.172.226-.207.172-.347.387-.347.524 0 .093.785.675.882.66.2-.043.235-.438.07-.895l-.07-.203.23-.215c.274-.25.954-1 .954-1.05 0-.02.094-.122.207-.223.117-.098.488-.453.824-.781.59-.57 1.047-.914 1.535-1.145.13-.062.364-.25.54-.437.519-.563.84-1.286.906-2.051l.035-.371h-.223c-.25 0-.87.113-1.082.195-.125.043-.129.059-.082.203.133.371-.039 1.254-.363 1.899l-.129.25-.406.02c-.52.03-.946.206-1.215.51-.25.29-.613.915-.883 1.532-.184.41-.293.594-.531.844-.356.383-.403.375-.535-.094-.09-.332-.16-.371-.575-.324-.558.066-1.03.484-1.437 1.266-.285.543-1.106 1.953-1.16 1.988-.024.012-.09-.156-.145-.38-.043-.16-.082-.312-.129-.468-.011-.035-.07-.062-.14-.062-.145 0-.793.214-1.192.394-.363.164-.527.367-.91 1.106-.144.273-.37.683-.512.914-.14.226-.367.601-.492.828l-.234.41-.195-.23a1.405 1.405 0 0 0-.332-.297c-.188-.098-.508-.094-.715.004-.235.113-.535.453-.625.71-.184.536-.188.575-.153 1.258.028.672-.035 1.617-.132 1.992-.063.231-.56.77-1.036 1.122-.41.304-1.039.652-1.363.746-.113.035-.203.074-.2.093a8.1 8.1 0 0 0 .388.457c.347.407.378.426.539.407.093-.012.304-.09.468-.172zm21.633-.235c.227-.18.41-.332.418-.335.055-.04-.27-1.11-.449-1.477-.383-.785-1.125-1.586-1.785-1.918-.39-.195-.946-.203-1.492-.023l-.371.117.335.066c.188.031.477.125.641.203.363.168 1.02.688 1.223.965.386.527.722 1.41.996 2.598.015.074.043.133.055.133.015 0 .21-.145.43-.329zm-8.82-1.554c1.012-1.067 2.633-1.621 3.894-1.332.399.09.395.082.172.574l-.129.281h.16a1.03 1.03 0 0 0 .372-.101c.074-.04.156-.07.238-.098a.431.431 0 0 0 .16-.102l.121-.097-.113-.23c-.106-.223-.113-.27-.133-2.247-.004-.777-.02-1.55-.047-2.332l-.027-.308-1.524-1.141-.296.082c-.57.16-1.5.703-2.086 1.215-.274.238-.809.828-.809.883 0 .015.285.195.625.406l.625.383.035-.262c.031-.285.11-.46.336-.75.356-.45 1.102-.93 1.547-.988l.21-.032.114.61.395 2.11c.152.827.273 1.503.27 1.51a3.87 3.87 0 0 1-.4-.12c-.558-.184-1.644-.215-2.343-.07a3.59 3.59 0 0 0-2.082 1.273c-.375.469-.375.437-.047.98.29.47.29.473.367.356.04-.063.22-.27.395-.453zm-30.73-1.363a9.076 9.076 0 0 0-.044-.797l-.027-.188h-.277c-.153 0-.426.02-.598.035l-.32.028.012.746c.003.406.007.758.011.781 0 .023.285.031.63.027l.624-.015-.012-.614zm5.007-.86c.04-.027-.176-.75-.25-.828-.02-.023-.25.05-.508.164l-.472.211v.426c0 .238.011.441.023.457.024.023 1.09-.36 1.207-.43zm35.239-1.207c.003-.64 0-.668-.149-.98a2.87 2.87 0 0 0-.25-.438l-.094-.113-.011.555a6.377 6.377 0 0 1-.059.77c-.05.206-.047.226.098.37.078.082.199.277.258.438.101.254.113.273.156.172.027-.06.047-.403.05-.774zm-2.61-1.012c.219-.171.61-.425.86-.55.46-.227.472-.23.945-.23h.484l-.398-.372c-.543-.504-.578-.523-.813-.45-.66.196-1.734 1.153-2.62 2.329l-.298.39v.7l.72-.746c.394-.41.901-.89 1.12-1.07zm-20.246-2.976l.34-.82-1.164-1.165-.395.391c-.215.219-.394.406-.394.43 0 .015.25.426.543.906.703 1.129.691 1.113.71 1.094.009-.008.173-.387.36-.836zm5.809-3.719l-.012-.43.277-.152c.149-.078.29-.16.305-.176.016-.015-.145-.136-.363-.261-.414-.243-.418-.243-.473-.727-.02-.156-.05-.281-.07-.281-.02 0-.176.156-.348.347l-.312.352-.41-.031c-.223-.016-.407-.012-.407.008 0 .019.11.19.242.378.274.375.274.348.047.848-.074.168-.125.309-.113.309.012 0 .227-.078.469-.172.504-.196.43-.207.87.183.145.13.274.235.286.235.012 0 .02-.196.012-.43zm0 0"/></svg>