<svg xmlns="http://www.w3.org/2000/svg" width="64pt" height="64pt" viewBox="0 0 64 64"><path d="M40.352 2.14l-3.57 1.4 1.394 3.57 3.574-1.43zM22.949 4.286l-3.734.875.91 3.735 3.703-.91zm7.531.52l-3.73.875.906 3.734 3.735-.91zm18.442 2.011l-.453 3.801 3.8.453.454-3.797zM33.5 8.02l-1.652 3.44 3.441 1.657 1.688-3.441zM16.941 9.87l-3.699.906.875 3.703 3.735-.878zm-7.336.809L8.47 14.316l3.636 1.168 1.168-3.668zm20.454.488l-3.829.258.258 3.8 1.168-.066-1.07 1.074.031-.328-3.797-.55-.36 2.628-1.62.098.258 3.8 3.832-.26-.13-2.142 1.298.196.195-1.528L28.211 20l1.328-1.332.328 2.078.387-.066-1.266.976-2.304-1.105-1.657 3.441 3.442 1.656.781-1.625 1.07 1.399.032-.035.035.035h-.067l-1.527.098.227 3.539-.387.062-1.399-1.816-2.464 1.851-.555-3.281-3.766.648.52 3.25-.032-.035-2.664 2.727 1.688 1.656.098 1.691-3.149-1.496-1.656 3.442 3.476 1.656 1.395-2.89.031.652 3.508-.196.164 2.465 3.73-.258-2.597 2.63 2.762 2.663.52-.52-.294.583 3.442 1.656 1.3-2.629 2.043-.129-.129-1.949.422-.031.453 2.758.653-.098-1.137 1.137 1.816 1.785-2.078.133.262 3.797 3.832-.258-.262-3.606 1.852-1.882-1.59-1.59.453-.067-.52-2.988.067.066 1.328-1.332.746 2.922 1.723-.422 2.336 2.305 1.367-1.394L46 45.129l3.313.488-1.07 2.238 3.44 1.657 1.688-3.442-3.41-1.625.36-2.562-2.762-.39.097-.098-1.492-1.493h.066l-.652-3.765-3.766.648.196 1.235-.778.195.29-.293-1.395-1.363.941-.164-.617-3.766-1.332.226v-1.492l2.403-.422.617 2.403 1.656-.39.422 2.566 3.765-.618-.613-3.765-1.754.289-.652-2.594.328-.328-2.73-2.692-1.297 1.329-1.04.164-.195-3.473-.843.063-.196-1.2.746-.78.293 1.917.032.129 2.242-.36-.196 1.56 3.086.421-.195.422 3.441 1.656 1.688-3.441-3.473-1.657-.457.91.227-1.558-1.945-.258 1.136-1.172-.226-.191 1.46-1.496 3.7.324.324-3.797L47.04 15l-.129 1.621L45.254 15l-2.695 2.727.195.195L40.71 20l-.75.098-1.492-1.43.453-3.246-3.766-.52-.55 3.766 2.597.355-1.883 1.918.258.227-.71.129.612 3.765.782-.128.16 2.953 1.332-.094.39 2.172L36.36 30l-.52-3.117-3.116.52-.098-1.626 1.816-1.363-2.304-3.05-.063.03-.683-.91 2.273-.355-.648-3.766-2.598.422-1.754-1.723 1.656-.097zm11.691 1.008l-3.152 2.207 2.21 3.117 3.149-2.176zm16.266 1.328L54.508 15 56 18.504l3.54-1.492zM15.027 15.68l.032 3.832 3.832-.032-.032-3.8zm-7.14 3.054l-3.54 1.493 1.493 3.507 3.539-1.496zm45.355.809l-2.664 2.73 2.73 2.66L56 22.208zm7.567.133l-3.575 1.394 1.43 3.54 3.57-1.395zM18.664 21.59l-3.148 2.176.421.617-2.109 1.46.129-.421-3.637-1.137-1.168 3.637 3.668 1.137.551-1.754 1.625 2.336 3.149-2.176-.422-.582 3.117-2.145zM4.867 26.363l-3.539 1.461 1.492 3.54 3.54-1.493zm55.192 2.403l-3.54 1.492 1.528 3.508 3.508-1.493zm-27.727.355l.36 2.145 2.597-.422v2.988h1.461l.484 2.953-1.136 1.168 1.98 1.95-2.691.452-.196-2.757-2.37.16-.032-.617 1.621-.258-.617-3.766-3.766.617.227 1.395-1.426.098.258 3.832 2.371-.164.063.878-.844.063.097 1.82-.941-.457-2.176-2.11-.195-2.952 1.3-.098-.195-3.02 2.243-.39-.555-3.375zm-8.05.617l2.011 2.633-1.59.094.195 3.086-1.007.031-.16-2.434-.813.067.777-.813-2.238-2.175zm29.155.649l-3.832.261.262 3.832 3.828-.261zm-40.683.52l-2.695 2.73 2.73 2.66 2.691-2.727zm-4.383 4.19l-3.832.423.457 3.796 3.797-.421zm43.606 1.005l-3.832.23.257 3.828 3.832-.258zm7.597 1.332l-.164 1.82-3.765-.328-.356 3.8 3.828.325.164-1.817 3.766.325.355-3.801zm-37.633 1.332l-2.691 2.726 1.168 1.168.227 3.246-2.176-2.14-2.696 2.726 2.762 2.664 2.66-2.73-.226-.227 3.508-.195-.227-3.828-.293.031.715-.746zm-7.207.617l-3.832.031.036 3.8h3.832zm-7.238 3.601l-3.312 1.95 1.949 3.28 3.308-1.917zm17.856 2.34l-2.696 2.727 2.762 2.695.746-.781 1.008 1.43 1.656-1.137 2.465 2.437 2.695-2.73-2.758-2.692-1.332 1.364-1.785-2.567-1.172.813zm19.87.582l-3.831.262.261 3.797 3.828-.258zm-31.394.328l-3.312 1.946 1.945 3.28 3.312-1.948zm8.149 2.66l-3.149 2.176 2.207 3.117 3.117-2.175zm12.53 4.84l-3.734.907.91 3.703 3.704-.88zm14.223.711l-3.832.426.422 3.797 3.797-.422zm-31.558.91l-.457 3.801 3.8.453.454-3.797zm26.426.458l-3.797.421.39 3.797 3.797-.422zm-18.082 2.335l-.457 3.797 3.8.457.453-3.8zM26.867.445C44.391-2.48 60.973 9.316 63.902 26.79c2.93 17.477-8.898 34.008-26.418 36.93C19.957 66.645 3.375 54.848.445 37.379-2.485 19.902 9.34 3.367 26.867.445zm0 0"/></svg>