<svg xmlns="http://www.w3.org/2000/svg" width="64pt" height="64pt" viewBox="0 0 64 64"><path d="M31.852 0C14.258 0 0 14.258 0 31.852c0 17.593 14.258 31.851 31.852 31.851 17.593 0 31.851-14.258 31.851-31.851C63.703 14.258 49.445 0 31.852 0zm8.05 2.012c3.98.043 9.84 3.992 13.668 8.41 4.551 5.258 8.785 10.488 5.586 15.262-4.191 6.253-23.82 8.336-19.804 6.847 7.683-2.84 9.488-6.699 10.226-7.367-.594.48-18.965 9.895-10.195 4.09 5.699-3.77 9.113-9.961 10.617-13.246-3.184 4.789-16.066 11.5-14.059 9.61 2.184-2.06 7.22-18.516 5.293-19.286-1.93-.773-6.656 16.883-6.656 16.883s-.656-18.16 2.922-20.55c.668-.454 1.484-.661 2.402-.653zm-18.02 1.593c1.247-.02 2.446.336 3.638 1.137 6.253 4.192 8.335 23.785 6.851 19.77-2.844-7.684-6.703-9.489-7.371-10.227.484.594 9.895 18.965 4.09 10.195-3.77-5.699-9.957-9.109-13.246-10.617 4.793 3.184 11.504 16.067 9.61 14.059-2.056-2.184-18.513-7.219-19.286-5.293-.77 1.93 16.883 6.656 16.883 6.656S4.895 29.941 2.5 26.363c-2.39-3.574 2.316-11.355 7.758-16.07 3.941-3.414 7.89-6.637 11.625-6.688zM23.54 31.04c1.34-.086 1.813.086.813.453-7.688 2.844-9.489 6.707-10.227 7.371.59-.484 18.965-9.894 10.191-4.09-5.695 3.77-9.109 9.957-10.613 13.247 3.18-4.79 16.067-11.5 14.055-9.61-2.18 2.055-7.219 18.512-5.29 19.285 1.927.77 6.657-16.883 6.657-16.883s.656 18.16-2.922 20.551c-3.582 2.395-11.355-2.316-16.074-7.758-4.547-5.257-8.781-10.488-5.582-15.261 3.144-4.692 14.969-7.051 18.992-7.305zm20 3.668c5.215-.02 15.867.273 17.664 2.957 2.387 3.578-2.32 11.36-7.762 16.07-5.254 4.551-10.488 8.75-15.257 5.551-6.254-4.191-8.336-23.785-6.852-19.773 2.84 7.687 6.703 9.492 7.371 10.23-.484-.594-9.894-18.969-4.094-10.195 3.77 5.695 9.961 9.11 13.246 10.617-4.789-3.18-11.5-16.07-9.609-14.059 2.059 2.184 18.516 7.22 19.285 5.29.774-1.922-16.883-6.653-16.883-6.653s1.153-.027 2.891-.035zm0 0" fill="#211e1e"/></svg>