<svg xmlns="http://www.w3.org/2000/svg" width="64" height="64"><path d="M30.743 62.971c-4.567-.214-8.819-1.322-12.754-3.324a31.163 31.163 0 0 1-12.57-11.7C1.28 41.078-.02 32.793 1.81 24.914c1.777-7.649 6.482-14.407 13.06-18.76 4.09-2.708 8.56-4.36 13.365-4.941C29.639 1.042 30.393 1 32.009 1c1.623 0 2.395.043 3.775.21 8.874 1.068 16.892 5.978 21.918 13.418 2.997 4.438 4.732 9.355 5.216 14.78.098 1.103.111 3.839.023 4.877-.363 4.294-1.421 8.089-3.268 11.721-3.9 7.672-10.826 13.406-19.059 15.776-3.154.909-6.715 1.337-9.87 1.19zm-2.187-16.097c2.32-7.492 4.225-13.656 4.234-13.698.014-.065-2.208-3.648-2.374-3.829-.046-.05-.083.012-.186.302-.417 1.173-1.355 3.065-2.604 5.248-1.846 3.227-4.926 8.098-7.776 12.296a71.884 71.884 0 0 0-.806 1.2c0 .007.11-.025.246-.072.702-.242 1.401.07 1.929.863.9 1.352 2.059 5.571 2.817 10.255.094.58.183 1.108.198 1.172l.026.117.04-.117c.021-.064 1.937-6.246 4.256-13.737zm19.324 8.388c-.224-1.334-.245-2.895-.049-3.63.242-.906.685-1.544 1.53-2.205.207-.162.924-.65 1.594-1.087.67-.435 1.38-.909 1.578-1.051l.36-.26-1.697-1.127c-3.84-2.551-6.52-4.555-8.125-6.074-.594-.562-2.756-2.946-4.261-4.7-4.54-5.287-7.54-9.828-9.465-14.324-1.72-4.02-2.45-8.006-1.91-10.449.116-.528.432-1.476.605-1.82.298-.591.946-1.29 1.608-1.738 2.02-1.362 4.397-1.314 6.511.133.456.312 1.278 1.028 1.473 1.284.072.095.14.163.152.152.05-.05-.601-1.471-.96-2.096-.81-1.412-2.035-2.694-3.227-3.376-1.198-.685-2.377-.97-3.815-.923-.793.026-1.185.082-2.04.288-2.048.493-3.536 1.681-4.21 3.36-.363.902-.502 1.713-.504 2.933-.003 1.83.334 3.586 1.174 6.111.637 1.915 1.304 3.535 2.616 6.353.36.774.765 1.65.9 1.946 1.588 3.478 5.955 10.411 13.496 21.427 1.923 2.808 3.94 6.189 6.08 10.187.356.665.652 1.203.659 1.196a5.139 5.139 0 0 0-.073-.51zM34.848 27.088c2.11-5.057 3.477-9.383 3.822-12.094.107-.847.075-2.602-.064-3.496a18.342 18.342 0 0 0-.409-1.922c-.18-.622-1.56-1.995-2.673-2.662-1.362-.816-2.942-.99-4.41-.487-.291.1-.747.315-.52.245.346-.106.852-.214 1.005-.214.274 0 .853.16 1.19.331.73.367 1.501 1.055 1.97 1.758 1.493 2.24 1.74 5.652.717 9.914-.31 1.293-.45 1.689-1.592 4.527-.631 1.567-1.148 2.877-1.148 2.91 0 .034.352.602.781 1.263.517.794.794 1.18.817 1.138.019-.034.25-.58.514-1.211z"/></svg>