<svg xmlns="http://www.w3.org/2000/svg" width="64pt" height="64pt" viewBox="0 0 64 64"><path d="M30.664 64.32c-7.676-.379-14.871-3.414-20.469-8.636a31.767 31.767 0 0 1-6.875-9.239c-.343-.687-.656-1.258-.703-1.261-.047-.004-.097-.008-.14-.016-.09-.012-.086-1.078 0-1.238.07-.133.316-.168.515-.063.11.063.117.04.106-.344-.008-.367.011-.445.222-.785.13-.207.266-.39.305-.398.043-.016.05.164.027.555-.03.48-.02.613.07.746.141.21.208.207.286-.032.09-.246.16-.242.258.02.039.113.183.383.316.594l.242.39.043-.68c.059-1.046.125-1.558.223-1.82.047-.133.078-.242.058-.242-.015 0-.191.113-.394.258-.203.14-.379.246-.39.234-.012-.011.019-.203.07-.425.05-.22.078-.438.062-.485-.047-.117.274-.723.418-.8.156-.083.234.007.293.316.035.187.27.797.344.898.05.07.14-.168.18-.472.066-.465.12-.583.355-.754l.207-.145-.04.375c-.038.328-.026.406.118.649.09.152.164.347.164.437 0 .246-.254.996-.492 1.473-.227.457-.273.738-.14.976.038.074.105.27.144.43.043.156.11.293.156.293.102 0 .094-.066-.031-.54l-.11-.405.165-.172c.183-.192.304-.563.308-.918a.77.77 0 0 1 .125-.387c.086-.105.13-.262.13-.469 0-.168.05-.398.105-.508a.641.641 0 0 0 .07-.363c-.016-.086.008-.293.05-.457.048-.164.098-.562.114-.887.035-.617.027-.636-.223-.425-.176.156-.261.039-.215-.293l.079-.547c.039-.281.128-.297.316-.063.195.239.348.164.348-.172 0-.191.035-.277.132-.324.172-.094.16-.222-.05-.558-.207-.332-.301-.352-.434-.09a.506.506 0 0 1-.344.258.928.928 0 0 0-.367.195c-.125.144-.418.18-.418.05.004-.046.047-.257.09-.476.086-.402.125-.465.629-.98.402-.414.437-.621.219-1.27-.032-.082.015-.058.148.086l.184.215.336-.649c.332-.644.34-.765.023-.52-.203.161-.277.165-.277.009a.318.318 0 0 0-.102-.211c-.094-.074-.137-.051-.332.172l-.226.254.035-.192c.023-.14-.004-.238-.121-.37-.125-.153-.157-.263-.157-.567 0-.258-.039-.461-.132-.64-.114-.216-.137-.38-.145-1.013l-.008-.761.266-.532c.183-.363.281-.652.312-.933.028-.223.098-.61.164-.856.063-.246.149-.633.192-.86.05-.284.152-.538.332-.82.316-.503.469-.542.535-.136.082.531.11.555.219.215.164-.5.265-.461.265.105 0 .297.047.61.121.828.082.243.133.653.168 1.317.051.953.106 1.066.196.398.023-.187.07-.305.11-.289.097.035.226.45.276.906.04.371.043.375.22.336.198-.043.277.024.37.317a.53.53 0 0 0 .184.258c.172.101.336.285.496.585l.145.258.035-.293.03-.289.118.176c.184.273.434 1.137.434 1.512 0 .332.07.48.164.336.023-.043.039-.36.031-.711-.008-.59 0-.633.121-.633.168 0 .344.238.527.723l.153.406.031-.29c.027-.222.07-.308.188-.37.222-.11.332-.336.25-.504-.102-.188-.176-.223-.543-.223-.293-.004-.375-.035-.801-.348-.2-.144-.406-.289-.617-.418-.22-.113-1.032-1.238-1.106-1.527a6.434 6.434 0 0 1-.113-.61 2.345 2.345 0 0 0-.188-.644 3.412 3.412 0 0 1-.226-.644 9.342 9.342 0 0 0-.293-.903c-.113-.3-.227-.652-.246-.777a1.127 1.127 0 0 0-.133-.352c-.078-.109-.113-.113-.207-.046-.09.058-.184.105-.281.144-.09.035-.211.094-.274.129-.18.105-.226.078-.27-.16-.09-.477-.324-.332-.39.246a5.732 5.732 0 0 1-.2.898c-.085.282-.155.614-.155.747 0 .304-.16.93-.332 1.28-.102.22-.2.305-.473.43-.422.196-.625.493-.457.68.066.074.101.238.098.492 0 .211.05.867.117 1.465.082.871.09 1.098.023 1.137-.047.027-.098.176-.117.328-.027.191-.02.266.031.23.18-.113.223.243.192 1.504-.047 1.602-.164 2.293-.473 2.774a8.975 8.975 0 0 0-.441.804c-.16.333-.31.536-.575.758a2.148 2.148 0 0 0-.535.676 3.19 3.19 0 0 1-.36.57c-.284.325-.886 1.387-.984 1.735-.062.289-.113.578-.132.87l-.047.552-.094-.23c-.438-1.02-1.113-3.243-1.43-4.688C.195 36.7 0 34.848 0 32.172c0-3.262.36-5.906 1.219-8.879C4.594 11.535 14.406 2.672 26.445.503A32.878 32.878 0 0 1 37.68.466c9.941 1.683 18.668 8.129 23.238 17.168 1.824 3.617 2.887 7.242 3.332 11.445.21 1.988.148 5.113-.145 7.367-1.335 10.313-7.793 19.477-17.132 24.317a32.354 32.354 0 0 1-16.309 3.558zM12.148 50.223a.293.293 0 0 0-.003-.29c-.145-.265-.317-.046-.235.29.05.195.149.199.238 0zm-1.425-.32a.69.69 0 0 1 .129-.38.637.637 0 0 0 .125-.363c0-.164.046-.219.261-.328.23-.117.25-.148.215-.32-.031-.168-.012-.203.133-.254.258-.098.348-.086.394.058.047.168.235.266.352.192.078-.043.074-.074-.02-.176-.136-.152-.136-.328-.003-.477.148-.164.296-.148.48.043.149.164.152.164.203.032.024-.07.074-.13.113-.13.075 0 .094.048.157.337.05.222.234.242.234.027 0-.086.035-.172.094-.238.098-.078.133-.07.488.12.086.04.2-.37.16-.562-.043-.168-.027-.199.125-.238a.624.624 0 0 1 .328.031c.09.043.204.075.254.075.145 0 .114-.176-.039-.215-.086-.02-.117-.067-.09-.11.024-.043.098-.062.168-.047.075.028.196-.035.32-.152.169-.156.188-.203.122-.285-.114-.133-.031-.29.16-.29.156 0 .289-.155.289-.343 0-.047-.082-.11-.188-.129-.175-.035-.195-.066-.195-.27 0-.144-.039-.241-.101-.265-.086-.035-.086-.055.02-.176a1.63 1.63 0 0 0 .19-.3c.047-.122.16-.192.434-.278.352-.113.5-.25.387-.363-.035-.027-.305.09-.606.262-.3.175-.597.32-.664.32-.07 0-.113.047-.113.129 0 .125-.086.183-.547.347-.129.047-.129.047-.004.137.09.059.188.09.293.09.094 0 .203.04.246.082.106.102.098.707-.011.856-.086.113-.094.113-.204.007-.167-.168-.367-.109-.44.141-.083.293-.298.336-.587.117-.203-.156-.422-.222-.422-.129 0 .02.075.125.164.23.243.294.203.512-.066.337-.137-.09-.145-.086-.184.101-.047.223-.195.254-.3.063-.09-.168-.235-.13-.204.054.016.11-.015.145-.128.145-.075 0-.25.07-.383.164-.133.09-.293.156-.36.14-.14-.023-.207-.37-.07-.37.156-.004.254-.11.309-.348.062-.29-.04-.29-.196 0-.066.113-.16.187-.254.191-.171.008-.257.125-.257.352 0 .203-.11.32-.301.32-.188 0-.25.098-.258.418-.012.426-.102.762-.258.973a.78.78 0 0 0-.156.375c0 .125-.035.191-.125.21-.168.044-.164.137.016.212.289.117.37.086.37-.153zm4.086.113c.125-.047.132-.188.011-.239-.086-.03-.297.141-.297.235 0 .054.149.058.286.004zM8.66 49.62c0-.094.059-.293.117-.437.137-.293.118-.418-.058-.418-.188 0-.274.261-.223.675.047.368.164.496.164.18zm-1.285-.82c.14-.176-.094-.114-.262.062-.086.09-.125.164-.097.164.035 0 .027.032-.02.075-.055.058-.047.105.031.199.106.113.118.11.188-.145.047-.144.113-.308.16-.355zm5.54.441c0-.05-.028-.078-.067-.058a.19.19 0 0 0-.063.14c0 .051.027.078.063.055.039-.02.066-.078.066-.137zm2.898-.101c.003-.168-.114-.2-.196-.047-.086.164.043.39.14.242a.432.432 0 0 0 .056-.195zm-2.016.097c.039-.105-.235-.242-.32-.16-.106.106 0 .281.156.258.078-.012.152-.055.164-.098zM16.633 49c-.028-.059-.07-.102-.11-.102-.07 0-.09.211-.023.278.07.07.172-.067.133-.176zm-1.692-.293c.047-.078-.168-.2-.347-.2-.149 0-.172.071-.055.184.09.094.348.102.402.016zm-7.89-.406c0-.035-.055-.106-.114-.149-.183-.136-.074-.148.368-.054.668.136 1.113.109 2.078-.133 1.012-.254 1.066-.281 1.308-.563.149-.175.164-.242.13-.465-.02-.14-.083-.308-.137-.367-.055-.058-.477-.234-.938-.383-.941-.308-1.215-.5-1.336-.933-.078-.285-.094-.61-.031-.774.023-.054.254-.246.512-.421.472-.32.738-.598.855-.899.031-.09.59-.762 1.246-1.484 1.914-2.14 1.805-1.996 1.746-2.344l-.05-.3-.493.6a68.229 68.229 0 0 1-1.601 1.821c-.61.676-1.164 1.344-1.23 1.492-.134.293-.38.532-.915.887-.469.309-.594.566-.543 1.11.043.476.285.984.551 1.175.246.176.672.352 1.07.453.82.196.809.192.805.38a.602.602 0 0 1-.05.26c-.048.071-.72.274-1.59.47-.907.207-2.29-.168-3.399-.926-.563-.375-1.648-1.45-1.867-1.836-.106-.188-.223-.34-.262-.34-.039 0-.14-.062-.23-.144l-.153-.149.031.266c.055.433.489 1.031 1.27 1.758.395.359.813.718.93.8.242.157.304.336.32.965.004.207.027.371.059.371.058 0 .066-.07.046-.527-.003-.203.004-.395.024-.426.023-.031.2.02.402.125.203.102.477.219.61.258.21.059.254.11.32.352.066.234.098.27.168.21.047-.039.09-.105.09-.136zm42.277-.496c-.039-.067-.047-.14-.016-.16.036-.016.075-.122.098-.227.059-.3.262-.262.36.066.078.254.085.262.164.145.078-.113.074-.18-.043-.492-.075-.203-.176-.367-.22-.367-.054 0-.07-.04-.046-.106.035-.09.008-.102-.133-.07l-.172.031.13-.203a.981.981 0 0 1 .323-.309c.309-.16.32-.203.032-.16-.14.024-.305.098-.364.172a1.828 1.828 0 0 1-.402.293l-.293.152-.101-.191c-.09-.172-.09-.219-.004-.383.117-.234.027-.254-.149-.023-.187.238-.137.578.13.82.167.152.237.176.429.14l.222-.042-.035.214c-.023.133-.05.262-.078.391-.031.133-.012.215.07.305.145.164.18.164.098.004zm-32.703-.332a.113.113 0 0 0-.02-.133c-.085-.086-.273.004-.234.113a.144.144 0 0 0 .254.02zm-7.68-.164c.13-.047.133-.305.004-.41-.12-.102-.14-.083-.16.16-.02.316-.02.316.156.25zm-.93-.579c0-.199-.093-.34-.175-.261-.02.023-.05.191-.067.379l-.035.34.14-.122c.095-.09.142-.21.138-.336zm28.645-.195c0-.344-.008-.375-.293-.629-.16-.144-.316-.343-.34-.437-.023-.094-.148-.309-.273-.473-.125-.164-.215-.316-.2-.332.087-.086.56.34.641.574.063.172.102 0 .051-.23a.784.784 0 0 0-.219-.371.782.782 0 0 1-.234-.383c-.074-.27-.281-.516-.45-.516a.527.527 0 0 1-.238-.082c-.152-.082-.308-.172-.46-.254-.239-.125-.372-.25-.465-.433-.075-.145-.14-.262-.153-.262-.011 0-.007.14.008.309.035.382.242.832.48 1.054.098.094.2.266.22.375.038.133.12.25.23.332.328.235.527.625.515.993-.003.144-.023.289-.05.437-.028.094.008.113.215.113.3 0 .683.239.8.512.121.273.215.14.215-.297zm14.34.121c.105-.168.188-.394.188-.5 0-.172-.028-.14-.254.258-.27.477-.293.547-.192.547.031 0 .153-.137.258-.305zm-32.258.203c.168-.062.113-.152-.09-.152-.144 0-.183.023-.152.098.04.101.086.113.242.054zM6.13 46.312c.133-.152.14-.175.05-.21-.25-.094-.425.152-.312.449.04.09.055.094.074.02a.95.95 0 0 1 .188-.258zm28.777-.062c-.328-.21-.613-.383-.636-.383-.024 0-.11-.074-.192-.16a.506.506 0 0 0-.308-.16c-.09 0-.18-.031-.2-.063-.02-.03-.129-.078-.246-.101-.594-.13-.742-.426-.336-.68.285-.172.282-.215-.008-.16-.238.043-.238.043-.195-.156.031-.145.016-.192-.055-.192-.05 0-.113-.078-.136-.172-.035-.14-.067-.164-.227-.128-.238.046-.234-.036.02-.352.113-.14.187-.27.168-.29-.024-.023-.16.024-.305.102-.152.075-.281.13-.29.118-.065-.09-.167-.645-.128-.703.031-.055.023-.067-.027-.032-.125.075-.41.606-.47.89-.07.294-.019.692.08.692.03 0 .116-.113.187-.258.074-.14.16-.257.195-.257.086 0 .082.062-.027.367-.09.258-.047.46.078.383.039-.024.09.015.113.093.023.079.078.118.129.098.055-.02.094.004.094.05 0 .142.379.614.59.747.109.066.456.184.773.262.312.078.64.199.73.27.207.16 1 .558 1.125.562.051 0-.172-.172-.496-.387zm15.758-.125a.554.554 0 0 0 .176-.25c.035-.121-.031-.078-.317.2-.199.19-.359.39-.359.44 0 .051.074.012.184-.1.101-.106.246-.235.316-.29zm-43.418.14c.117-.093.133-.152.094-.328l-.047-.214-.36.047c-.265.03-.398.085-.476.18-.144.187-.121.245.145.343.312.113.476.11.644-.027zm9.922-.078c0-.132-.094-.171-.16-.07-.051.086.035.274.101.227.032-.016.059-.09.059-.157zm1.535-.21c.027-.153-.191-.145-.379.011-.101.078-.133.153-.105.227.039.11.054.11.25-.008.117-.066.218-.172.234-.23zm-7.562-.47c.023-.26.074-.476.109-.476.031 0 .191-.136.348-.293.386-.398.476-.324.312.235-.023.074.024.113.16.14a.435.435 0 0 1 .293.235.68.68 0 0 0 .23.261c.118.063.165.04.372-.183.117-.125.242-.235.383-.328.12-.059.132-.098.082-.2-.063-.113-.024-.156.293-.355.37-.242.57-.516.425-.602-.082-.05.133-.285.457-.48.188-.117.254-.43.094-.43s-.785.801-.715.914c.016.028-.02.075-.086.094-.156.063-.843.77-.87.91-.016.086-.083.11-.262.098-.133-.008-.239.016-.239.047 0 .039-.043.066-.097.066-.157 0-.117-.445.066-.742.086-.145.156-.324.156-.402 0-.262-.277-.145-.457.191-.074.137-.074.137-.156-.031-.05-.086-.133-.176-.184-.196-.128-.05-.402.172-.453.372-.02.09-.066.164-.093.164-.114 0-.145-.13-.07-.258.113-.215.038-.153-.313.25l-.328.379.12.25c.122.246.122.246-.007.277-.121.035-.125.047-.027.121.148.13.129.235-.063.324-.191.082-.156.2.07.2.082 0 .172.035.2.074.086.148.207-.137.25-.625zm37.054.102c.043-.254.012-.386-.097-.386-.035 0-.063.144-.063.324 0 .383.098.426.16.062zm-30.578-.093c0-.012.016-.07.043-.13.05-.132-.039-.124-.238.028l-.156.129.172.004c.097 0 .18-.016.18-.031zm1.215-.192c-.016-.066-.055-.078-.11-.043-.058.035-.074.102-.05.172.055.14.191.031.16-.129zm28.684-.082c-.028-.156-.063-.308-.098-.46-.027-.134-.02-.235.016-.259.039-.02.09-.16.113-.3.035-.211.02-.293-.086-.414-.16-.18-.184-.676-.047-.88.129-.199.18-.449.133-.683l-.04-.191-.155.226c-.086.125-.157.293-.16.375a.818.818 0 0 1-.06.278.412.412 0 0 0 .044.308c.047.098.078.203.054.235-.015.027 0 .238.04.46.042.29.042.418-.004.434-.114.043-.075.379.09.75.081.2.167.36.183.36.016 0 .004-.11-.023-.239zm3.902.059a.916.916 0 0 1-.066-.207c-.157-.766-.196-.883-.368-1.055-.214-.219-.222-.277-.054-.328a.296.296 0 0 0 .168-.168c.02-.066.066-.125.097-.125.035 0 .063-.047.063-.105 0-.079-.035-.06-.13.062a.751.751 0 0 1-.26.207c-.196.059-.169.418.038.613.114.11.153.196.13.297-.02.078-.009.16.026.184.04.02.067.125.067.23 0 .203.16.508.27.508.038 0 .046-.047.019-.113zm-2.297-.215c-.016-.086-.066-.152-.121-.152-.09 0-.105.129-.027.347.05.145.172-.02.148-.199zm1.399-.352c-.06-.226-.168-.125-.137.121.015.114.031.25.035.305.008.05.039.012.078-.086a.716.716 0 0 0 .024-.34zm-1.883.012c.254-.242.297-.422.129-.562-.098-.079-.106-.07-.063.078.027.129-.008.226-.152.414a1.859 1.859 0 0 0-.196.265c0 .051.06.012.282-.199zm-41.235-.094c0-.18-.03-.226-.207-.3-.207-.09-.21-.09-.21.086 0 .226.175.472.312.449.074-.016.105-.086.105-.235zm42.618-.254c.011-.117-.008-.203-.047-.203-.04 0-.07.051-.07.121a.796.796 0 0 1-.04.235c-.035.078-.015.101.047.082.05-.02.098-.121.11-.235zm-31.344.036a.645.645 0 0 0 .101-.317c0-.203-.125-.508-.203-.508-.101 0-.312.254-.312.375 0 .078.027.067.082-.05.105-.207.281-.243.336-.07.03.093-.008.195-.125.335-.09.11-.164.239-.164.285 0 .145.172.11.285-.05zm28.11-.567c-.04-.23-.095-.449-.122-.492-.023-.043-.008-.113.035-.164.067-.059.078-.195.043-.52-.058-.562-.125-.632-.125-.132 0 .214-.02.605-.039.867-.027.414-.016.504.102.691.078.121.148.207.156.196.012-.012-.008-.211-.05-.446zm-21.434.188c.125-.04.382-.2.578-.348.195-.148.55-.379.793-.508.43-.234.433-.234.437-.09.004.13.016.121.098-.054.133-.313.21-.317.176-.004l-.028.27.164-.29c.09-.16.16-.347.164-.422.004-.164.125-.347.168-.246.016.035.075.125.125.192.09.11.094.09.063-.23-.035-.337-.027-.372.195-.641.317-.391.336-.524.133-.883a1.243 1.243 0 0 1-.168-.551c0-.262-.04-.316-.527-.707-.215-.172-.875-.398-1.391-.48l-.281-.043.113.234c.106.215.36.363.633.363.035 0 .133.078.215.176.093.11.14.137.117.066-.047-.156.105-.144.246.008.102.11.102.121.004.16-.059.024-.133.024-.168.004-.027-.023-.055-.004-.055.032 0 .039-.152.07-.355.07-.274 0-.356.02-.356.094 0 .062.082.12.196.14.265.051.238.172-.07.317-.141.058-.29.168-.325.234-.058.105-.043.113.117.078.098-.023.196-.043.211-.043.285.008.387.027.387.078 0 .04-.05.067-.113.067-.118 0-.66.32-.66.39 0 .02.093.024.207.012a.546.546 0 0 1 .343.074c.117.09.098.098-.293.086-.285-.004-.484.031-.625.106-.23.117-.285.242-.086.187.164-.039.453.027.453.11 0 .03-.113.097-.253.136-.262.078-.52.27-.52.383 0 .086.008.082.398-.098.372-.175 1.094-.238.883-.082-.133.102-.148.184-.054.243.043.027-.059.12-.27.242-.223.125-.437.27-.64.418-.45.343-.547.383-1.079.418-1 .062-2.289-.258-3.656-.918-.719-.348-1.691-1.016-1.871-1.29-.125-.187-.273-.25-.387-.156-.164.137-.093.293.282.653.73.687 1.937 1.36 3.242 1.789 1.11.363 2.457.472 3.086.254zm-5.739-.121c0-.028-.039-.07-.097-.09-.067-.024-.094.008-.094.129 0 .144.015.156.094.09.054-.043.097-.106.097-.13zm26.102-.356c0-.402-.008-.418-.13-.355-.16.086-.167.332-.019.59.063.101.121.187.133.187.008 0 .016-.191.016-.422zm3.52.328c.019-.05-.008-.18-.067-.285a.62.62 0 0 1-.063-.402c.036-.149.024-.196-.03-.16-.079.046-.102.66-.036.84.047.124.148.128.195.007zm-18.747-.215c-.008-.414.149-1.004.352-1.324.11-.168.187-.32.172-.336-.016-.015-.137.043-.27.133-.285.195-.297.145-.047-.23.246-.383.543-.711.492-.555-.101.312-.113.43-.046.43.039 0 .113-.082.168-.184a.654.654 0 0 1 .257-.258c.125-.054.164-.12.164-.27 0-.23.125-.495.317-.671.258-.23.098-.317-.254-.133-.234.121-.246.047-.027-.16a.545.545 0 0 1 .379-.156c.14 0 .207-.028.183-.079-.039-.113.207-.32.5-.406.145-.039.242-.101.227-.129-.063-.105-.657-.226-1.051-.222-.223.004-.402-.016-.402-.047 0-.094.418-.254.675-.254.18 0 .227-.024.227-.121 0-.07.016-.172.039-.227.035-.086-.027-.101-.402-.105-.36 0-.41-.016-.286-.067.22-.086.227-.105.133-.218-.07-.086-.039-.098.246-.098.418 0 .473-.09.125-.215l-.273-.098.238-.004c.324-.007.305-.109-.047-.261-.285-.125-.386-.258-.191-.258.059 0 .207-.047.34-.102l.242-.101-.246-.125c-.133-.07-.238-.16-.238-.2 0-.042.078-.05.238-.019.46.098.57.082.543-.082-.012-.094.015-.144.078-.144.129 0 .309-.188.262-.27-.032-.04-.176-.047-.387-.023-.445.054-.563-.012-.281-.168l.218-.118-.285-.004-.293-.003.371-.149c.723-.297.887-.5.301-.367-.406.09-.39.031.04-.156.218-.098.347-.192.316-.227-.075-.066-.668.05-.801.16a2.356 2.356 0 0 1-.293.192c-.152.09-.16.105-.04.078.356-.074-.167.281-.757.515-.227.086-.223.086.207.055l.434-.035v.191c0 .102.035.2.078.22.062.023.062.05 0 .148-.055.086-.098.175-.145.265a.62.62 0 0 1-.191.227c-.172.105-.164.18.012.18.12.003.097.03-.11.14-.156.082-.32.152-.484.219l-.223.078.18.07c.098.04.273.07.387.075.203.003.199.007-.106.156-.32.152-.496.281-.273.203.18-.067.086.016-.164.14-.313.157-.305.254.02.282l.276.02-.289.179-.293.172h.512l-.222.168c-.122.09-.223.21-.223.27 0 .062-.11.206-.242.331-.235.211-.325.457-.164.457.039 0-.024.11-.157.243-.214.226-.37.468-.37.57 0 .023.14-.09.32-.258.27-.254.355-.297.582-.297h.265l-.32.254c-.371.297-.527.496-.527.676 0 .11.027.098.214-.078.114-.117.23-.207.254-.207.028 0-.054.164-.18.37-.124.204-.242.466-.261.575-.04.207-.324.52-.402.441-.024-.023-.04-.218-.036-.437.004-.367 0-.387-.09-.254-.234.356-.378.066-.308-.617.035-.352.031-.418-.035-.352-.113.114-.254.102-.356-.03-.07-.099-.086-.044-.082.378 0 .277-.015.535-.039.582-.023.047.004.027.063-.047.09-.11.113-.113.164-.027.11.172.066.48-.106.73-.203.293-.172.356.075.157.171-.137.18-.137.128-.016-.109.262-.117.418-.023.418a.32.32 0 0 0 .164-.07c.043-.051.074.003.106.18.02.136.113.347.199.464l.164.223v-.172c0-.172.004-.172.133-.063.074.063.23.207.34.32.113.118.21.212.214.212.008 0 .008-.11.004-.243zm-11.144-.246c-.043-.14-.086-.207-.098-.152-.023.113.098.484.145.437.015-.015-.008-.144-.047-.285zm-1.598-.394c0-.153-.187-.34-.293-.297-.125.043-.121.277.004.277.07 0 .078.035.031.168a.896.896 0 0 0-.062.239c.004.113.32-.27.32-.387zm-9.172.27c.024-.06-.023-.165-.097-.243a1.178 1.178 0 0 1-.192-.305c-.047-.113-.07-.125-.07-.05a.99.99 0 0 0 0 .156c.004.023-.027.066-.074.09-.141.09.054.449.238.449.086 0 .172-.043.195-.102zm36.09-.239c-.215-.3-.289-.375-.39-.375-.063 0-.106-.05-.106-.133 0-.07-.027-.113-.066-.09-.106.067-.07.29.05.328.262.086.422.196.489.329.035.082.074.136.093.12.02-.019-.015-.097-.07-.179zm3.79-.117c.023-.11.007-.195-.056-.25-.082-.067-.105-.043-.14.148-.07.383.101.473.195.102zm-35.61-.348c.039-.09.054-.164.039-.164-.04 0-.293.492-.293.559 0 .078.187-.207.254-.395zm3.34.207c.128-.125.09-.187-.047-.101-.13.082-.176.18-.078.18.027 0 .086-.036.125-.079zm29.164-.367c-.02-.074-.055-.133-.082-.133-.082 0-.118.297-.047.426.062.105.07.105.113-.02a.543.543 0 0 0 .016-.273zm-29.25.023c.02-.054.066-.085.105-.058.031.02.059.008.059-.031 0-.075-.07-.09-.219-.028-.059.02-.102.078-.102.125 0 .121.106.117.157-.008zm29.98-.207c-.008-.222-.035-.304-.11-.304-.097 0-.116.304-.034.515.074.2.152.086.144-.21zm-10.46.051c-.02-.07-.048-.133-.063-.133-.012 0-.024.063-.024.133 0 .067.028.13.063.13.027 0 .039-.063.023-.13zm-26.888-.34a.957.957 0 0 1 .06-.824c.155-.305.16-.379.019-.484-.106-.078-.106-.09.007-.215.184-.207.434-.176.575.07.105.192.12.196.183.09.047-.09.035-.23-.039-.52-.094-.351-.098-.43-.023-.62.09-.22.093-.22.172-.075.039.078.132.145.207.145.164 0 .73-.371.988-.64.121-.122.328-.24.535-.302.184-.054.352-.125.375-.16.047-.074.512-.074.656-.004.063.035.239.098.387.145.152.043.277.097.281.117.004.02.016.117.028.211.02.121.066.234.129.34.09.133.101.25.066.601-.063.575-.063.594-.004.828.035.168.012.235-.172.442-.2.226-.219.289-.238.75-.012.305.004.508.039.508.144 0 .21-.2.203-.559-.012-.312.02-.418.16-.625.098-.148.168-.336.168-.45-.012-.386.047-.858.121-.991.078-.149.035-.512-.086-.66a2.62 2.62 0 0 1-.222-.41c-.153-.313-.153-.313-.04-.794.079-.328.094-.503.051-.546-.046-.047-.109.07-.207.355-.16.48-.222.547-.379.402a.462.462 0 0 0-.168-.101c-.292-.024-.394-.2-.32-.54l.043-.206-.168.156a.935.935 0 0 0-.219.383c-.043.187-.128.289-.453.508-.218.152-.402.261-.402.238 0-.055-.383.164-.672.387-.336.25-.57.324-.754.222-.11-.054-.129-.113-.101-.285.027-.137.007-.226-.04-.242-.039-.016.075-.18.258-.363.371-.375.375-.391.227-1.13a8.348 8.348 0 0 1-.11-.824c-.042-.488-.101-.613-.187-.386-.031.062-.074.43-.101.82-.055.656-.098.899-.231 1.223-.035.086-.027.105.027.078.121-.078.09.277-.058.594-.07.16-.227.422-.348.593-.344.48-.445 1.047-.105.594.12-.172.129-.172.132-.043 0 .078-.105.278-.23.45-.121.152-.223.32-.3.495a.95.95 0 0 1-.25.356c-.243.2-.24.418.01.695.106.125.192.266.192.313 0 .054.078.136.176.187.156.082.18.082.2 0a.764.764 0 0 0-.048-.297zm42.684.274c.086-.031.285-.176.438-.313.152-.136.382-.289.523-.328.383-.125.684-.426.684-.687 0-.149.043-.235.132-.282.106-.058.118-.093.063-.195-.063-.117-.047-.133.195-.133.29 0 .469.075.692.282l.144.128v-.261c0-.207-.043-.32-.191-.489-.254-.289-.614-.39-1.145-.316-.219.031-.437.031-.48.004-.16-.098-.48-.055-.602.082-.12.129-.117.133.184.41.164.153.304.309.304.344 0 .039.055.09.125.11.09.027.13.097.13.222 0 .144-.044.203-.22.285a1.058 1.058 0 0 1-.32.106c-.058 0-.265.144-.46.32-.524.476-.708.45-2.344-.285a5.754 5.754 0 0 0-1.207-.399c-.614-.117-.801-.238-1-.625-.243-.476-.38-.484-.38-.035 0 .262.044.383.169.55.218.282.433.388 1.109.536.313.066.879.262 1.277.445 1.25.563 1.758.688 2.18.524zm-36.656-.164a.556.556 0 0 0 .004-.254c-.02-.055-.008-.11.023-.133.078-.047.082-.16.008-.16-.07 0-.27.426-.27.586 0 .183.184.152.235-.04zm20.87-.028c.032-.054-.167-.738-.237-.812-.016-.016-.032.152-.032.375.008.363.055.496.184.5.023 0 .066-.031.086-.063zm-1.843-.5c.043-.254.168-.671.285-.933.117-.258.297-.688.399-.953.101-.266.25-.575.332-.68.086-.113.152-.223.152-.25 0-.066.477-1.094.777-1.664l.262-.496h-.219c-.273 0-1.296.277-1.5.414a.664.664 0 0 0-.222.242l-.074.145.117-.141c.066-.078.25-.176.406-.215.52-.125.805-.187.93-.187.11-.004.105.011-.035.199-.106.137-.278.242-.5.316-.329.106-.657.32-.352.227.148-.043.473.074.473.176 0 .09-.371.511-.57.64a1.762 1.762 0 0 1-.493.246l-.195.075.18.066c.25.086.222.25-.079.488-.324.262-.363.457-.062.297.113-.055.21-.094.226-.082.012.02-.05.18-.136.371-.09.188-.157.38-.157.418 0 .043-.074.149-.164.23-.203.192-.203.262 0 .262h.16l-.105.239a2.83 2.83 0 0 1-.348.629c-.195.304-.156.343.204.199.074-.032.113-.004.144.101.055.211.086.14.164-.379zm-16.14-.289c-.043-.265-.157-.394-.157-.183 0 .074-.02.133-.05.133-.051 0-.032.472.027.64.062.192.226-.336.18-.59zm26.296.043c-.011-.488 0-.61.075-.61a.083.083 0 0 0 .086-.081c0-.172-.137-.563-.23-.66-.079-.074-.095-.196-.075-.5.02-.219.055-.473.082-.563.047-.14.043-.152-.043-.082-.055.043-.133.2-.176.34-.05.18-.129.281-.234.32-.09.04-.16.075-.16.09a.838.838 0 0 1-.043.14c-.032.087-.012.102.097.063.114-.03.137-.015.137.09 0 .078.043.133.098.133.093 0 .148.305.101.582-.027.191-.039.742-.015.82.02.047.066.082.113.082.059 0 .094.067.094.18 0 .156.039.273.097.273.008 0 .008-.277-.004-.617zm-6.242.035c-.011-.187-.05-.359-.09-.37-.12-.044-.14.09-.07.5.086.48.184.398.16-.13zm7.246-.453c.035 0 .059.043.059.098 0 .05.031.098.066.098s.063.05.063.12c0 .067.039.15.082.188.062.051.082.012.086-.172 0-.129.023-.32.05-.425.036-.121.032-.16-.007-.11-.094.13-.2-.043-.223-.379l-.02-.285-.148.238c-.172.282-.293.989-.226 1.332.046.215.054.196.105-.234.031-.258.082-.469.113-.469zm-28.98.657c.058-.063.09-.133.07-.157-.023-.02.02-.07.094-.109.09-.047.137-.137.137-.25 0-.219.117-.355.226-.266.059.047.063.141.016.348-.04.195-.035.328.012.418.125.227.175.152.218-.32.035-.387.09-.524.34-.942.164-.273.3-.566.309-.664a.527.527 0 0 1 .078-.265c.078-.106.094-.899.012-.899-.086 0-.059-.176.035-.21.062-.024.082-.161.078-.473l-.004-.442-.203.02c-.156.011-.223-.02-.309-.153-.062-.09-.152-.152-.199-.133-.047.016-.098-.003-.113-.042-.02-.06-.059-.055-.14.02-.118.093-.122.077-.075-.356l.047-.45-.16.153c-.16.144-.16.144-.125.015.046-.18-.055-.175-.168.008l-.094.145-.082-.196a1.685 1.685 0 0 1-.09-.48c0-.156-.031-.309-.098-.453-.097-.184-.12-.145-.035.082.043.11.028.215-.039.363-.086.168-.09.246-.02.469.087.297.016.457-.152.316-.129-.11-.601.086-.656.274a.79.79 0 0 1-.148.254c-.094.109-.102.109-.176-.032a1.67 1.67 0 0 1-.133-.437l-.047-.29-.059.255a6.854 6.854 0 0 0-.078.484c-.007.125-.039.3-.058.39-.02.087-.012.204.027.255.059.086.078.082.16-.024.09-.117.098-.113.16.067.043.101.059.316.043.472-.02.164-.062.582-.097.938-.067.672-.203 1.168-.406 1.457-.13.187-.145.3-.067.426.078.12.39-.387.441-.715.024-.149.126-.426.227-.625.2-.38.223-.551.11-.793-.06-.13-.051-.215.03-.422a.894.894 0 0 0 .067-.461c-.039-.164-.012-.23.129-.36a.482.482 0 0 0 .172-.378c0-.278.277-.637.379-.48a.522.522 0 0 1 .058.288.612.612 0 0 0 .036.278c.027.046.007.144-.04.222a.63.63 0 0 0-.066.387.605.605 0 0 1-.074.402.423.423 0 0 0-.063.32c.024.098.004.208-.047.266-.078.098-.183.653-.187.992-.004.309.074.836.125.836.113 0 .219-.52.18-.898-.04-.348-.032-.39.09-.457.109-.063.132-.113.097-.305-.031-.207-.012-.25.238-.476.165-.153.243-.266.204-.293-.04-.032-.102-.168-.149-.313-.062-.23-.055-.312.04-.57.12-.336.23-.352.26-.04.013.138.063.22.138.243.18.047.289.36.207.594-.043.129-.043.199 0 .21.043.016.039.122-.02.313-.058.219-.09.25-.105.14-.012-.081-.055-.144-.102-.14-.16.004-.281.176-.387.547-.148.535-.14.61.055.61s.195.003.031.324c-.07.14-.105.257-.07.257.031 0 .004.098-.063.23-.066.126-.101.267-.082.317.016.043-.015.172-.07.285-.082.16-.086.196-.015.196.05 0 .136-.051.195-.117zm6.71-.141c1.923.086 2.618-.11 2.977-.84.211-.418.243-.91.078-1.262-.171-.382-.265-1.222-.19-1.742.03-.23.17-.648.315-.969.266-.582.399-1.113.282-1.113-.098 0-.551.567-.723.903a5.842 5.842 0 0 0-.305.77c-.132.433-.144.452-.117.187.016-.168.106-.47.195-.672.09-.2.16-.399.16-.438 0-.133-.46.38-.617.684-.168.332-.39.433-.32.144.043-.172-.02-.21-.14-.086-.063.063-.079.047-.079-.058 0-.211-.12-.242-.3-.074-.137.128-.13.093.07-.23.137-.231.23-.466.23-.599 0-.113-.011-.21-.027-.21-.125 0-.281.148-.562.539-.563.773-.723.812-.325.082.285-.516.551-1.137.485-1.137-.02 0-.184.117-.36.258-.18.14-.351.258-.379.258-.03 0-.058-.102-.058-.227 0-.234-.05-.277-.18-.145-.101.106-.094.04.031-.28.079-.2.09-.282.032-.302-.055-.015-.055-.058-.004-.156.054-.105.043-.156-.07-.277-.133-.133-.141-.196-.102-.567.027-.226.121-.566.21-.757.102-.223.169-.5.188-.77.035-.508-.062-.352-.172.29-.09.519-.285.831-.539.862l-.183.02.031-.328c.023-.262.016-.305-.043-.223-.066.094-.094.078-.242-.094-.14-.168-.219-.199-.488-.21-.188-.008-.372.019-.422.062-.145.117-.18.012-.239-.691-.046-.606-.18-1.04-.324-1.04-.12 0-.133.172-.078.91.047.68.031 1.098-.078 2.083l-.043.39.152-.16.145-.16.035.387c.02.21 0 .543-.047.738-.117.535-.101.566.117.223.114-.176.266-.383.344-.453.246-.254.426-.489.426-.57 0-.118.254-.368.332-.321.031.02.043.117.023.21l-.039.173.317-.39.043.187c.082.316-.012 1.144-.188 1.668a6.334 6.334 0 0 0-.168.546c0 .024.106-.125.235-.332.207-.332.242-.363.3-.254.04.063.11.157.153.204a.41.41 0 0 1 .086.257c0 .098.058.27.129.387.082.149.128.324.128.496 0 .317.008.328.2.207.172-.11.234-.004.285.528.047.441.187.828.406 1.097l.125.16.043-.386c.023-.211.059-.492.082-.625l.031-.25.383.812.133-.293.133-.285.164.516.015-.45.16.168c.13.125.176.25.204.543.023.211.078.465.129.555.148.3.109.477-.168.695-.141.11-.274.262-.297.332-.035.118-.051.125-.149.036-.097-.09-.117-.075-.222.183l-.121.285-.172-.332c-.223-.425-.309-.445-.383-.101-.031.16-.09.273-.133.261-.047-.011-.094.028-.113.079-.067.164-.14.109-.18-.121-.043-.223-.262-.551-.367-.551-.027 0-.063.207-.07.465l-.02.468h-.582c-.562 0-.582.004-.602.153-.019.152-.011.156.29.101.23-.027.464-.039.699-.031zm-1.366-7.992c0-.121.011-.172.027-.11a.535.535 0 0 1 0 .223c-.016.066-.027.012-.027-.113zm15.488 7.719c.031-.043.074-.239.098-.434.023-.195.066-.422.09-.5.03-.11.019-.145-.051-.145-.149 0-.2.114-.25.547a2.444 2.444 0 0 1-.09.5c-.051.133.129.164.203.032zm13.383-.63c.261-.038.433-.03.566.028.211.086.723.043.84-.07.043-.047-.078-.18-.356-.41-.398-.317-.511-.516-.363-.61.04-.02.059-.129.051-.242-.012-.191.012-.219.3-.36l.317-.148-.187-.156c-.153-.125-.172-.164-.098-.215.07-.043-.008-.11-.316-.266l-.41-.203.16-.125c.132-.11.136-.125.027-.097-.074.02-.23.05-.356.074-.421.082-.55.332-.359.672.098.18.074.297-.105.496-.098.11-.11.164-.055.308.059.157.039.2-.215.477-.36.387-.437.543-.39.766.074.347.07.347.331.234a3.31 3.31 0 0 1 .618-.152zm-31.516-1.238c.258-.433.305-.433.313-.007 0 .308.011.355.07.242.086-.18.43-.242.578-.11.063.051.164.078.23.059.106-.035.118 0 .118.371 0 .258.03.445.09.52.125.148.19.023.195-.344 0-.176.055-.363.148-.516l.14-.23.02.191c.028.29.145.68.204.68.03 0 .07-.082.09-.18a.969.969 0 0 1 .105-.273c.062-.09.074-.09.133 0a.672.672 0 0 1 .062.297c0 .214.152.406.223.289.027-.036.058-.22.074-.407.059-.554.086-.625.355-.922.149-.156.254-.324.239-.367-.016-.047-.121.047-.246.223-.121.168-.239.309-.266.309-.102 0-.129-.32-.055-.563.047-.137.215-.508.38-.828.378-.734.37-.727.234-.613-.059.054-.25.3-.422.55-.172.247-.45.614-.625.805-.285.313-.32.336-.313.192.004-.13-.023-.153-.14-.137-.192.027-.188-.117.023-.567.219-.464.418-.968.387-.968-.016 0-.258.336-.531.746-.434.64-.508.726-.543.597-.028-.125-.043-.132-.098-.05-.043.062-.07-.051-.094-.391-.035-.434-.027-.508.11-.715.175-.262.183-.316.054-.316-.047 0-.176.105-.273.234-.313.406-.551.676-.574.645-.016-.016.03-.176.105-.36.117-.3.125-.379.059-.703-.067-.316-.063-.394.03-.57.09-.18.095-.25.028-.496-.054-.219-.058-.344-.004-.528.04-.132.059-.27.04-.3-.083-.133-.297.214-.602.992-.3.762-.324.863-.29 1.199.032.328.005.469-.257 1.227-.16.468-.293.921-.293 1 0 .078.086.32.191.53.102.212.192.423.192.47a.552.552 0 0 0 .086.222c.07.125.082.086.11-.34.023-.375.073-.55.21-.789zm10.613.672c.008.332.133.262.133-.074 0-.184.074-.535.168-.813.094-.265.152-.503.133-.523-.02-.02-.063.066-.106.184-.05.183-.058.132-.043-.301.012-.34.06-.594.137-.742.094-.18.098-.207.016-.14a.566.566 0 0 0-.137.245c-.055.2-.176.176-.234-.047-.032-.117.023-.375.168-.804.12-.356.21-.75.207-.899-.004-.14.058-.45.136-.68.118-.355.13-.457.063-.613l-.07-.187-.059.195c-.031.105-.113.535-.187.953-.09.54-.184.867-.325 1.14-.183.344-.199.43-.187.919.008.332-.016.613-.07.742-.075.18-.075.215.015.289.149.121.2.64.086.91a1.254 1.254 0 0 0-.094.406c0 .172.008.168.125-.074.11-.242.121-.246.125-.086zm8.961.2c0-.032-.054-.145-.129-.262a.856.856 0 0 1-.125-.371c0-.207-.117-.43-.199-.383-.094.062-.07.394.035.484.055.043.098.117.098.164 0 .157.145.414.234.414.051 0 .086-.02.086-.047zm8.145-1.094c.02-.024.172.082.324.23.184.18.32.27.387.246.086-.035.082-.082-.028-.406a2.26 2.26 0 0 1-.125-.602c-.004-.234-.093-.449-.164-.382-.02.023-.074.18-.117.355-.043.188-.113.32-.176.332-.144.027-.636-.348-.714-.55a5.866 5.866 0 0 1-.16-.626c-.098-.468-.153-.578-.2-.433-.02.054-.086.031-.219-.082a1.364 1.364 0 0 0-.464-.23c-.579-.157-.88-.493-.88-.993 0-.258.087-.3.196-.094.102.188.168.067.227-.394.023-.192.07-.414.093-.48.043-.114.059-.102.098.077.062.293.152.262.113-.043-.02-.132-.004-.3.028-.359.046-.082.011-.273-.114-.684-.172-.546-.16-.601.075-.402.093.082.101.059.07-.219-.008-.25.023-.507.078-.75.059-.246.09-.457.074-.476-.031-.031-.176.191-.305.469-.105.234-.257.25-.316.03-.035-.14-.07-.1-.289.352-.188.387-.254.618-.285.961-.031.403-.043.438-.13.336-.05-.062-.108-.32-.132-.57l-.039-.465-.11.242c-.128.282-.234.79-.242 1.133-.007.36-.113.059-.117-.336-.004-.246-.023-.304-.101-.277-.082.035-.098-.035-.106-.36 0-.199-.015-.394-.047-.59-.066-.296-.187-.081-.285.512-.05.285-.113.508-.148.5-.031-.004-.149-.28-.258-.609l-.203-.602-.082.29c-.07.269-.086.28-.168.164a.48.48 0 0 1-.09-.223c0-.195-.309-.758-.562-1.031-.27-.293-.403-.305-.403-.036 0 .192-.133.204-.289.032-.148-.164-.223-.168-.183-.008.023.094-.012.133-.168.164-.215.05-.262.2-.106.316.05.043.137.22.188.395l.097.324.004-.375c.004-.371.043-.43.192-.285.07.062.093.062.117 0 .066-.176.148-.063.218.309.098.52.188.546.188.062 0-.215.02-.387.047-.387.07 0 .305.75.406 1.282.07.359.086.394.156.27.063-.122.086-.126.196-.048.066.055.156.078.199.067.062-.032.262.359.375.734.023.078.07.133.094.117.027-.015.101.13.164.328.062.196.183.426.27.504.116.11.156.211.156.434 0 .21.035.332.148.45.082.085.25.355.371.589.121.234.254.414.297.402.039-.015.113.059.156.172.16.379.992 1.09 1.3 1.102.102.004.145.054.161.172.05.445.063.46.344.414l.265-.043-.039.23c-.062.305 0 .297.13-.023.132-.332.218-.328.218.008 0 .167.04.316.11.398.109.117.113.102.156-.434.02-.304.054-.574.078-.597zm-10.418.597c-.137-.105-.145-.472-.016-.785.078-.183.121-.222.227-.187.097.03.148.004.191-.125.035-.09.106-.164.16-.164.121 0 .145-.043.2-.34.039-.203.03-.239-.059-.2-.117.044-.145-.074-.031-.14.047-.031.047-.063 0-.117-.043-.035-.078-.227-.082-.426-.004-.195-.02-.29-.035-.207a.654.654 0 0 1-.16.281c-.07.067-.11.168-.09.219l.074.191c.027.059.004.094-.063.094-.058 0-.105.04-.105.09 0 .047-.043.125-.098.168-.074.066-.078.101-.016.18.063.074.055.109-.042.183-.293.211-.387.985-.157 1.278.075.093.153.152.176.128.023-.023-.008-.078-.074-.12zm19.254-.312c-.086-.531-.36-.75-1.051-.824-.281-.032-.45-.086-.547-.184a1.557 1.557 0 0 0-.402-.223l-.258-.09.281-.074c.305-.086.68-.05 1.028.098.273.11.265.023-.016-.223-.36-.316-.629-.355-1.766-.277-.933.062-1.097.105-1.101.273 0 .024.113.09.261.157.36.164.598.453.543.668a.8.8 0 0 1-.136.277c-.09.094-.086.11.039.148.101.036.203-.02.426-.222.23-.219.328-.262.496-.246.172.015.21.047.226.195.012.098.078.21.149.246.066.035.109.09.09.121-.016.031.062.07.175.09.117.02.309.059.43.082.164.031.242.016.293-.059.062-.082.105-.082.32-.011.137.05.309.148.387.218a.91.91 0 0 0 .152.137c.012 0 .004-.129-.02-.277zm-16.703-.809c.015-.254.007-.476-.012-.488-.121-.074-.168.105-.168.586 0 .676.129.601.18-.098zm3.691.188c-.055-.074-.074-.067-.094.054a.553.553 0 0 0 .032.25c.035.09.05.082.085-.054.032-.086.02-.203-.023-.25zm.828.148c.024-.09.012-.207-.027-.254-.047-.054-.059-.195-.028-.375.047-.343-.015-.605-.12-.496-.067.067-.07 1.2-.005 1.309.055.082.137-.004.18-.184zm6.05-.027c.102-.106.208-.192.235-.192.067 0 .262-.52.262-.703 0-.082-.121-.367-.266-.629-.242-.441-.48-1.039-.843-2.117a43.26 43.26 0 0 0-.63-1.676 2.158 2.158 0 0 1-.097-.304c-.047-.227-.16-.23-.16-.008 0 .094-.063.402-.125.691-.16.657-.16 1.164.004 1.438a.905.905 0 0 1 .12.344.59.59 0 0 0 .13.308c.097.106.129.25.094.387-.028.156-.004.258.097.402.16.227.235.242.29.063.023-.074.093-.13.156-.13.132 0 .21.255.207.677 0 .144.027.367.062.496.031.129.063.422.063.644.004.223.023.426.039.457.054.098.187.043.363-.148zm-21.077-.418a3.485 3.485 0 0 1-.086-.727c-.008-.332-.02-.39-.055-.238-.12.457-.008 1.477.145 1.328.05-.055.05-.152-.004-.363zm14.008-.758a4.565 4.565 0 0 0-.114-.559c-.054-.218-.058-.292-.004-.308.051-.02.079-.172.079-.399 0-.285-.032-.418-.145-.57l-.34-.457c-.105-.148-.21-.266-.234-.266-.024 0-.051.13-.067.286-.015.23 0 .293.09.316.082.02.114.094.114.242 0 .121.074.39.16.602.113.277.136.41.09.469-.051.054-.028.16.066.359.074.156.137.309.137.34 0 .062.129.222.175.222.02 0 .016-.129-.007-.277zm-13.024-.785c.145-.617.297-1.844.25-1.996-.039-.11-.055-.102-.156.097-.102.196-.223.958-.277 1.735-.016.125-.043.383-.067.578-.047.344-.047.352.051.184.059-.098.148-.364.2-.598zm9.813-.39c0-.41-.032-.762-.059-.778-.031-.02-.059-.293-.059-.61 0-.312-.027-.585-.062-.613-.074-.039-.094 2.758-.02 2.828.024.024.075.012.122-.023.05-.043.078-.3.078-.805zm-26.297.05c.015-.484.004-.547-.074-.465-.051.051-.114.305-.137.559-.04.43-.035.472.078.472.105-.007.121-.066.133-.566zm33.617-.102c.055-.148.105-.398.105-.546 0-.157.043-.48.106-.73.05-.25.09-.47.066-.481-.015-.016-.078.117-.148.304-.066.184-.149.344-.188.36-.062.02-.234-.563-.32-1.106-.078-.46-.133-.117-.117.719.02 1.184.008 1.113.11.934.077-.137.085-.121.156.242.039.219.054.437.035.488-.02.05-.008.094.027.094s.11-.121.168-.278zM17.57 35.84c.02-.024.059.07.082.207.082.453.137.426.207-.102.098-.672.254-.968.645-1.218a2.88 2.88 0 0 0 .469-.372l.16-.171-.297.03c-.281.032-.48.141-1.031.563l-.172.13.035-.29c.027-.262.016-.297-.105-.332-.106-.027-.141-.082-.141-.258 0-.226 0-.226-.156-.12a.815.815 0 0 1-.192.1c-.015 0-.09-.194-.168-.433-.07-.238-.183-.492-.254-.562-.066-.07-.18-.36-.25-.637a4.408 4.408 0 0 0-.16-.54c-.02-.015-.105.087-.195.227-.067.11-.137.208-.223.297-.105.067-.289-.449-.242-.699.066-.355-.078-.293-.625.281-.539.559-.61.735-.535 1.301.043.317.043.324-.106.246a1.975 1.975 0 0 1-.34-.254 1.513 1.513 0 0 0-.535-.273c-.324-.094-.34-.094-.406.027-.055.106-.031.203.125.496.106.2.246.551.305.782.168.656.156.629.223.511.03-.054.085-.343.124-.64.036-.293.079-.551.102-.567.047-.054.352.254.469.47.055.108.152.37.21.581l.11.387.04-.29c.019-.16.058-.597.093-.976.039-.433.105-.762.18-.898.113-.215.117-.215.136-.059.051.375.23 1.098.278 1.13.03.019.101-.06.16-.169.152-.3.402-.246.613.14.086.16.238.387.336.5a.676.676 0 0 1 .176.45c0 .172.02.21.062.14.11-.171.246.051.391.63.074.292.164.609.21.706.079.172.079.168.114-.128.02-.168.051-.32.078-.344zm20.153.215c0-.09-.032-.188-.07-.215-.048-.028-.055-.149-.028-.34.035-.219.023-.281-.027-.23-.098.093-.16.667-.102.96.04.223.047.23.133.122a.579.579 0 0 0 .094-.297zm-9.676-.34c-.004-.254-.012-.29-.055-.16-.078.242-.078.699 0 .578.035-.051.059-.238.055-.418zm7.96.246c.102-.055.165-.063.141-.027-.023.043-.015.074.02.074.078 0 .844-.778.844-.856 0-.03.144-.23.312-.457.172-.218.328-.445.352-.504.023-.062.156-.187.304-.277.141-.09.258-.207.258-.262 0-.066.078-.097.293-.097.223 0 .29-.024.29-.102 0-.074.038-.094.144-.066a.38.38 0 0 0 .234-.016c.07-.047.063-.07-.039-.129-.203-.11-1.203.02-1.476.188-.121.078-.211.18-.196.222.02.051-.07.11-.234.16-.395.118-.7.29-.883.493l-.16.175.23-.14a.962.962 0 0 1 .387-.137c.145 0 .14.004-.058.211-.215.227-.274.387-.11.328.05-.02.098-.015.098.008 0 .105-.813 1.023-1.04 1.172-.136.09-.245.176-.245.191 0 .04.343-.058.535-.152zm-7.823-.922c-.004-.148-.012-.152-.063-.031a.826.826 0 0 0-.058.258c-.004.105.007.113.058.03a.597.597 0 0 0 .063-.257zm-2.352-.926c.238-.668.281-.914.148-.957-.046-.02-.003-.129.125-.308.391-.582.57-1.063.477-1.313-.039-.098-.094-.055-.332.258l-.29.367-.038-.476a5.4 5.4 0 0 0-.235-1.024l-.187-.55-.05.46c-.028.293-.098.54-.18.676-.141.215-.141.215-.165.055a3.529 3.529 0 0 0-.125-.485c-.093-.293-.109-.304-.152-.156-.023.082-.05.32-.058.516-.012.36-.106.836-.118.617-.011-.168-.16-.043-.316.281l-.125.246-.148-.492-.145-.496-.113.84c-.117.86-.25 1.348-.305 1.098a.508.508 0 0 0-.082-.188c-.07-.074-.234.254-.29.57a3.39 3.39 0 0 1-.073.368c-.02.066.023.136.093.18.106.05.192.019.485-.2.199-.148.433-.379.523-.516.297-.453.39-.238.176.403a6.318 6.318 0 0 0-.168.543c-.043.191-.043.191.059.047.054-.079.199-.407.32-.723.234-.633.426-1.004.5-.965.031.016.105-.07.18-.184.07-.113.156-.21.183-.21.14 0 .125.261-.062 1.054-.2.856-.211 1.242-.043 1.446.12.148.281-.086.527-.782zm1.574.38l.266-.286v.465l.183-.25c.106-.145.223-.277.348-.402l.16-.153-.023.313c-.024.285-.016.297.058.152.27-.547.586-1.031.688-1.062.066-.024.168-.137.223-.258.132-.278.132-.317-.028-.274-.222.059-.144-.129.164-.383.317-.265.36-.351.157-.3-.247.07-.762.605-1.063 1.117-.281.48-.48.676-.387.383.067-.207-.129-.157-.316.082-.148.191-.164.195-.164.07 0-.078.027-.219.062-.316.106-.27.032-.258-.093.02-.059.132-.207.433-.32.66-.391.777-.364.91.085.421zm-7.222-.005c-.02-.02-.059.02-.082.082-.032.09-.028.098.035.035.047-.042.066-.093.047-.117zm35.05-.351c0-.211-.007-.387-.023-.387-.074 0-.152.379-.121.566.062.336.14.239.144-.18zm-25.148.004c.059-.262.422-.754.48-.653.036.055.122-.008.262-.187.149-.192.246-.258.332-.235.082.02.281-.109.63-.41.276-.238.616-.472.753-.515.14-.047.316-.121.402-.176.125-.082.184-.082.301-.016.309.164.887-.14 1.16-.617.184-.309.188-.469.004-.195a.732.732 0 0 1-.242.234c-.145.078-.145.09-.016-.23.086-.203-.105-.086-.28.172-.204.312-.27.207-.114-.176.058-.133.086-.254.07-.274-.058-.054-.305.203-.394.403-.063.14-.09.164-.09.074-.004-.117-.008-.117-.125-.012-.168.156-.227.024-.106-.215.188-.355.102-.355-.254-.004-.195.192-.386.45-.43.575-.07.234-.23.457-.316.457-.023 0 .02-.168.102-.371.086-.204.14-.38.125-.391-.05-.059-.61.535-.88.926-.253.383-.437.547-.35.316.05-.137-.008-.121-.235.07-.242.204-.387.18-.438-.07l-.035-.191-.191.308c-.152.246-.238.317-.457.375-.305.078-.512.254-.305.254.094 0 .059.055-.14.266-.239.258-.243.262-.047.125.117-.078.226-.168.246-.207.094-.153.156-.04.066.133a.793.793 0 0 0-.097.308c0 .067.039.028.109-.105.121-.242.305-.364.234-.157-.027.083.012.063.137-.062.098-.102.188-.172.203-.156.016.011-.035.156-.101.308-.137.297-.176.61-.075.547.036-.023.082-.125.102-.226zm15.824-1.649c.04-.125.098-.21.125-.195.063.043.13-.117.13-.305 0-.133.003-.133.16.02.09.078.218.265.292.414.172.351.164.172-.035-.7-.086-.39-.145-.718-.125-.734.016-.015.07.004.121.047.078.066.098.043.113-.133.02-.21.024-.21.246.203.122.23.254.563.297.743l.078.32.008-.442c.004-.402.016-.433.11-.359.074.063.066.024-.032-.137-.183-.297-.187-.445-.007-.289.113.102.129.106.129.02 0-.059-.028-.125-.055-.14-.035-.02-.125-.165-.195-.329-.118-.246-.141-.406-.141-1.152v-.864l-.3-.37-.446-.536c-.13-.156-.149-.164-.324-.074-.102.05-.336.094-.528.094-.328 0-.36.015-.597.285-.27.308-.325.437-.125.332.183-.098.195-.09.195.156 0 .266.11.36.168.14.047-.19.383-.527.625-.616.164-.063.172-.051.172.101 0 .121.031.156.101.125l.192-.074c.113-.047.129.113.027.297-.043.086-.043.129 0 .129.086 0 .09.64.008.765-.047.078-.074.082-.16.008-.094-.078-.102-.062-.063.188l.047.27-.25-.048c-.21-.035-.234-.027-.2.063l.087.215c.035.082.015.097-.078.054a2.858 2.858 0 0 0-.352-.082l-.226-.03.203.167c.11.09.261.313.34.488.125.297.14.418.12 1.29-.011.527 0 .945.028.93.023-.02.074-.134.117-.255zm-7.105-.558c.035.203.16.144.222-.102.035-.133.082-.191.141-.172.047.02.148-.043.223-.137.078-.097.136-.14.136-.101 0 .125.114.086.309-.117.195-.196.336-.168.336.062 0 .195.086.195.293-.008.168-.156.215-.175.246-.097.02.058.082.101.137.101.054 0 .101.04.101.082.016.215.184-.343.188-.613.004-.262.023-.316.156-.363a.54.54 0 0 0 .195-.125c.02-.035.145-.098.274-.14.18-.06.242-.06.281 0 .027.05.07.003.129-.126.082-.2.43-.515.562-.515.04 0 .176-.122.301-.27.153-.176.23-.234.23-.16 0 .176.087.12.29-.18.105-.152.273-.332.367-.383a.51.51 0 0 0 .219-.312 1.83 1.83 0 0 1 .175-.438c.079-.125.204-.468.278-.77.074-.304.156-.609.18-.679.019-.07-.098.149-.266.488-.317.633-.969 1.512-1.176 1.575a.638.638 0 0 0-.227.164c-.175.191-.218.152-.18-.13.04-.308-.007-.331-.14-.066-.062.114-.156.192-.226.192-.13 0-.2.12-.489.808l-.11.258-.054-.191c-.066-.235-.164-.301-.363-.223-.25.094-.332.07-.379-.101-.023-.098-.086-.16-.152-.16a.184.184 0 0 1-.157-.098c-.046-.13-.37-.067-.73.136-.379.22-.395.286-.02.168.18-.058.336-.086.356-.07.023.02.004.117-.031.215-.063.176-.063.176.16.133.265-.047.285-.004.07.168a.941.941 0 0 0-.238.343c-.07.188-.113.227-.27.227-.168 0-.18-.02-.148-.16.05-.192-.05-.215-.262-.067-.137.094-.144.09-.16-.105-.027-.285-.145-.297-.379-.043-.18.203-.187.207-.187.059 0-.125-.02-.137-.094-.07-.11.085-.262.503-.207.562.02.02.078 0 .137-.043.109-.098.132 0 .023.11-.082.077-.191.593-.121.593.023 0 .11-.07.195-.16.153-.164.254-.203.254-.106 0 .028-.14.196-.316.364-.242.246-.325.37-.352.582-.023.144-.023.316 0 .382.035.09.063.075.14-.101.095-.203.102-.207.13-.07zm-10.59-.262c.055-.293.297-2.215.297-2.395 0-.18-.004-.18-.168-.07-.215.137-.328.094-.383-.152-.023-.11-.148-.309-.281-.442a3.55 3.55 0 0 1-.387-.449c-.078-.11-.207-.21-.285-.223-.094-.015-.235-.164-.41-.433-.352-.54-.38-.563-.512-.457-.086.078-.14.043-.398-.246-.168-.184-.387-.364-.485-.399a.43.43 0 0 1-.246-.261c-.082-.223-.242-.25-.41-.063-.156.168-.281.16-.352-.016-.164-.437-.597-1.273-.66-1.273-.043 0-.058.137-.027.402.062.61.058.617-.16.957-.176.274-.196.348-.133.477.047.113.113.148.238.14.117-.007.211.044.297.157l.125.16-.23.379c-.122.21-.227.422-.227.476 0 .137.293.04.582-.191.43-.348.45-.176.031.242-.293.293-.41.461-.488.719-.094.297-.094.336-.008.336.125 0 .621-.293.953-.559.371-.3.801-.441 1.067-.351.11.043.265.07.347.07.075 0 .176.047.223.098.05.066.11.078.191.035.11-.059.258.023.258.14 0 .028.086.192.196.36.164.27.19.383.19.73 0 .27.036.465.095.54.09.12.097.081.105-.387.016-.903.172-1.215.266-.532.09.653.12.754.273.93.16.195.293.703.297 1.133 0 .324.055.566.133.566.027 0 .07-.07.082-.148zm7.062-.246c.157-.074.45-.285.641-.473.2-.183.484-.418.645-.512.164-.093.343-.207.414-.253.097-.06.125-.06.148.007.023.063.184-.066.465-.367.3-.324.469-.46.578-.46h.16l-.133.148a.87.87 0 0 0-.18.3c-.05.149-.038.149.215-.054a3.53 3.53 0 0 0 .442-.422c.098-.117.273-.262.387-.317.343-.175.293-.218-.164-.128a6.736 6.736 0 0 1-.754.093c-.45.012-.582.059-.84.313-.239.234-.274.222-.13-.047.15-.285.56-.637.938-.813.54-.242.16-.214-.433.04-.426.171-.586.285-1.11.804-.336.34-.664.64-.726.672-.2.105-.133-.094.11-.328.32-.309.28-.363-.11-.152-.465.25-.985.777-1.07 1.09-.079.265-.06.335.066.238a.974.974 0 0 1 .187-.102c.082-.027.098-.004.075.09-.04.156.035.156.21-.008.133-.125.805-.418.805-.355 0 .054-.566.558-.914.816-.18.137-.34.262-.363.277-.078.082.168.024.441-.097zm21.098-.485c-.004-.32-.07-.78-.125-.867-.027-.043-.07-.043-.121-.004-.059.047-.063.188-.016.535.07.594.09.649.184.614.05-.012.082-.13.078-.278zm-3.32-.285c-.043-.207-.106-.363-.133-.347-.078.046-.07.332.008.382.035.02.066.118.066.215 0 .102.02.203.047.227.09.09.094-.102.012-.477zm-28.176-.398c-.02-.051-.04-.035-.04.039-.003.07.016.105.036.086.02-.02.023-.078.004-.125zm4.66-.34c0-.04-.031-.023-.062.031a.411.411 0 0 0-.067.16c0 .036.031.024.067-.03a.472.472 0 0 0 .062-.161zm22.5-.559a.656.656 0 0 1-.074-.28c0-.087-.028-.161-.07-.161-.067 0-.036.5.054.805.031.117.043.109.102-.059.043-.129.039-.223-.012-.305zm2.227.223c.027-.07-.004-.14-.098-.203-.078-.05-.137-.129-.137-.18 0-.05-.035-.086-.066-.086-.09 0-.082.094.027.356.102.242.207.285.274.113zm-24.43-.598c.023-.16.105-.496.187-.746.106-.32.16-.668.184-1.218.04-.825.117-1.247.2-1.055.023.055.034.582.023 1.172-.012.582-.004 1.047.02 1.023.077-.086.378-1.156.378-1.34 0-.215.07-.164.168.121.067.196.07.184.117-.246.059-.57.239-1.34.524-2.258.277-.898.281-1.042.011-.414a10.53 10.53 0 0 1-.437.868c-.203.359-.227.37-.242.207-.02-.176-.102-.23-.172-.114-.024.04-.07.067-.106.067-.043 0-.05-.184-.023-.516.031-.285.031-.515.012-.515-.024 0-.102.125-.18.277-.074.144-.16.281-.258.418-.11.14-.113.133-.152-.485a10.39 10.39 0 0 0-.082-.855c-.04-.219-.04-.215-.098.129-.086.512-.164.687-.176.36a5.356 5.356 0 0 0-.074-.657c-.062-.32-.062-.504.008-.86.047-.253.062-.476.039-.5-.066-.07-.289.235-.352.497-.093.34-.164 1.699-.09 1.652.036-.023.083.106.102.285.043.387.078.45.238.45.098 0 .137.058.168.25.02.14.082.273.13.289.109.043.113.37.015 1.039-.07.472-.254.847-.383.77-.035-.02-.062-.333-.066-.692-.008-.582-.016-.617-.063-.317-.066.48-.148.516-.093.035.03-.261.023-.41-.028-.437-.039-.031-.07.016-.07.105 0 .118-.012.13-.063.051-.03-.05-.062-.25-.066-.437 0-.2-.047-.457-.121-.617a2.776 2.776 0 0 1-.172-.61c-.055-.418-.156-.437-.16-.027-.004.426-.113.168-.117-.293-.004-.184-.036-.336-.067-.336-.058 0-.133.152-.133.293 0 .187-.132.437-.199.371-.12-.121-.191-.828-.125-1.285.031-.238.047-.445.035-.457-.023-.028-.187.465-.257.789l-.047.191-.063-.16c-.05-.125-.07-.14-.12-.062-.114.183-.204-.27-.177-.883.012-.328.004-.578-.023-.563-.027.016-.094.168-.156.332a1.978 1.978 0 0 1-.2.403c-.074.078-.086.039-.086-.239 0-.183-.027-.351-.062-.37-.086-.055-.328-.606-.328-.75 0-.153-.098-.16-.156-.009-.04.102-.047.102-.118-.015-.047-.078-.074-.371-.066-.735.008-.515-.004-.585-.078-.48a1.81 1.81 0 0 0-.168.41l-.086.29-.02-.227a.627.627 0 0 0-.152-.344c-.062-.059-.121-.152-.121-.207 0-.059-.035-.074-.105-.05-.114.042-.114.003.019-.88l.043-.285-.332.281c-.188.157-.441.317-.566.364-.204.07-.243.066-.356-.055-.098-.094-.121-.176-.094-.32.02-.102.012-.172-.02-.153-.034.02-.07 0-.089-.047-.016-.043-.113-.078-.215-.07-.488.02-.476.012-.476.25s.085.297.168.113c.039-.082.062-.008.09.239l.035.355.132-.215.141-.215.043.297c.047.328.113.371.21.153.063-.133.071-.122.11.125.028.152.074.289.102.308.031.016.16-.137.285-.344.129-.21.277-.421.34-.472.097-.074.101-.07.062.074-.093.309-.129 1.098-.05 1.098.043 0 .074-.04.078-.082.004-.047.035.015.07.136l.059.215.16-.144.156-.153v.328c0 .176.035.418.074.532.067.183.078.191.156.086.082-.11.086-.106.09.03.004.224.145.47.258.45.07-.008.106.05.121.23.008.141.063.262.11.282.07.023.093.14.093.387 0 .367.032.414.172.23.07-.098.082-.078.086.18 0 .156.031.332.063.383.05.085.078.078.152-.028.09-.12.098-.117.145.125.023.145.07.328.105.414.05.145.059.149.14.04.075-.102.09-.087.16.179.04.164.075.348.075.41 0 .11.27.473.352.473.02 0 .035-.059.035-.121 0-.215.113-.211.164 0 .023.11.11.347.183.53.082.18.168.446.196.587a1.3 1.3 0 0 0 .101.332c.14.16.574 1.648.649 2.203.078.629.132.656.3.172l.07-.188.005.188c.023.68.156.805.238.23zm25.352.047c0-.101-.13-.308-.196-.308-.074 0-.086.476-.015.543.046.05.21-.133.21-.235zm-49.333.04c.196-.126.262-.325.391-1.25.102-.712.32-1.743.512-2.419.086-.297.12-.336.347-.414.223-.07.266-.117.325-.37.097-.38.363-.895.562-1.095.09-.09.172-.148.188-.132.015.011-.02.183-.067.375-.133.488-.117.53.07.175.087-.168.196-.308.247-.308.047 0 .152-.102.23-.223.078-.125.168-.226.2-.226.03 0 .062.183.062.402 0 .734.14.945.215.328.035-.297.379-1.18.46-1.18.012 0 .094.032.18.07.13.06.192.051.309-.03a.8.8 0 0 1 .398-.106c.32 0 .258-.094-.132-.195-.2-.051-.262-.094-.176-.106.066-.015.23-.058.351-.094a.627.627 0 0 1 .414.004c.235.09.29.043.133-.125-.113-.125-.113-.129.008-.125.066 0 .246.055.398.125.29.13.36.075.168-.14-.101-.11-.101-.114.008-.114.18 0 0-.18-.23-.23-.235-.05-.246-.211-.035-.461.082-.102.27-.352.414-.559a4.37 4.37 0 0 1 .703-.726c.238-.192.437-.387.441-.43l.016-.16c.012-.039.191-.273.414-.512.226-.238.45-.496.5-.558.094-.125.09-.125-.11-.02-.226.121-.406.14-.406.051 0-.031.27-.313.594-.621.328-.313.566-.555.531-.54-.445.188-.68.263-.715.231-.085-.086.063-.36.461-.847.23-.286.438-.567.454-.625.019-.063.16-.18.308-.27.25-.144.563-.43.477-.43-.024 0-.25.047-.508.098-.73.156-1.922.941-2.574 1.7-.157.183-.426.429-.606.546-.45.3-.969.785-1.418 1.328-.265.313-.57.586-.91.809-.809.535-1.578 1.465-2.145 2.594-.316.629-.761 1.882-.867 2.437-.054.281-.199.93-.324 1.442-.187.785-.488 2.59-.488 2.933 0 .125.027.125.222-.008zm44.59-.204c-.074-.539-.242-.566-.175-.027.027.226.066.336.132.336.07 0 .082-.063.043-.309zm9.196-.34c.222-.09.394-.394.343-.605-.023-.094-.254-.356-.504-.586-.453-.418-.453-.422-.23-.387.121.024.543.2.938.395.39.191.785.351.878.351.094 0 .36-.105.594-.226.23-.125.555-.254.719-.293.39-.086.57-.215.707-.496.168-.356.086-.653-.523-1.852-.305-.605-.598-1.23-.649-1.398-.094-.309-.512-.762-.7-.762-.151 0-.116.09.099.285.257.227.332.438.277.82-.04.313-.04.313.195.407.293.125.469.453.528.992.035.285.097.484.226.672.336.488.207.812-.367.933a2.373 2.373 0 0 0-.64.27c-.173.11-.364.195-.423.195-.062 0-.39-.144-.73-.316-.734-.38-1.219-.5-1.55-.39-.263.085-.356.308-.224.542.04.082.278.317.524.52.242.203.441.398.441.425 0 .036-.07.09-.156.133-.332.149-1.574-.27-1.988-.676-.176-.175-.281-.234-.371-.203-.172.055-.168-.105.004-.215.07-.042.117-.109.097-.14-.043-.063-.601.148-.71.27-.048.05-.044.054.023.023.093-.055.215.078.164.168-.043.062-.36.07-.504.012-.059-.02-.102-.075-.102-.122 0-.05-.086-.082-.242-.078-.351.004-.918-.09-.918-.152 0-.027-.09-.035-.199-.016-.125.028-.219.012-.25-.035-.031-.055-.098-.055-.254 0-.14.051-.23.055-.254.012-.027-.035-.152-.082-.289-.113-.137-.024-.262-.078-.277-.13-.051-.132-.383-.07-.606.118-.246.203-.265.207-.386.039-.262-.375-.243-.371-.434-.145-.168.2-.34.278-.34.157 0-.028.059-.106.129-.172.184-.164.16-.242-.062-.211-.168.023-.196.008-.196-.121 0-.25-.168-.172-.476.238-.16.211-.262.387-.227.387.04 0 .05.027.02.07-.028.047.004.055.093.027.125-.039.137-.027.075.125l-.063.168.227-.171c.254-.196.293-.145.078.09l-.145.156.14-.07a.59.59 0 0 0 .184-.141.608.608 0 0 1 .176-.137c.137-.074.137-.074.028.098-.063.093-.082.172-.051.172.035 0 .082-.032.101-.067.024-.035.098-.066.168-.066.106 0 .118.023.063.129-.11.203-.078.218.16.07.285-.164.29-.164.29 0 0 .125.007.129.14.035.21-.152.324-.133.273.043-.035.117-.027.129.04.063.05-.047.109-.07.179-.079.074 0 .07.028-.02.168-.168.254-.07.254.16 0 .258-.28.41-.312.317-.066-.09.242-.074.258.094.094.172-.157.312-.13.257.047-.023.07.012.05.098-.051l.133-.16.008.16c.004.09.004.219 0 .293-.008.11.02.097.172-.074.097-.11.254-.25.343-.309l.172-.105-.031.464-.023.473.168-.305c.171-.328.32-.41.25-.144-.051.21 0 .203.308-.043.207-.164.27-.188.317-.117a.502.502 0 0 1 .058.183c0 .067.02.074.098.008a.221.221 0 0 1 .203-.043c.062.023.14.012.2-.035.066-.059.1-.055.144.012.043.074.074.074.152.004.059-.043.14-.067.184-.051a.313.313 0 0 0 .199-.028c.086-.046.277.012.742.227 1.012.46 1.523.55 2.016.36zm-10.028-.34c0-.417-.125-.406-.148.012-.012.266 0 .336.062.317.055-.016.086-.137.086-.328zm2.48.188c0-.195-.058-.36-.132-.36-.07 0-.078.262-.02.415.059.156.153.12.153-.055zm-15.3-.488c.39-.41.379-.403 1.574-.735a3.15 3.15 0 0 0 .664-.293c.336-.214.367-.226.367-.136 0 .07-.421.375-.894.66-.399.238-.207.308.234.086.262-.13.852-.297 1.04-.29.023 0-.102.137-.282.294l-.324.293.226-.047c.356-.063.63-.266.817-.594.094-.168.363-.496.597-.738l.426-.438-.293.102a1.6 1.6 0 0 0-.433.238c-.188.176-.235.129-.094-.102.062-.101.312-.304.559-.457.425-.253.468-.3.757-.843.32-.61.344-.672.246-.672-.03 0-.16.164-.285.367-.27.45-.445.617-.765.754-.133.05-.242.086-.242.074 0-.012.078-.16.171-.336.207-.375.465-.719.84-1.133.153-.164.278-.363.278-.445 0-.121-.024-.11-.223.11-.121.14-.223.273-.223.296-.004.07-1.101.782-1.144.739-.094-.094.539-.965 1.172-1.618.277-.28.418-.48.418-.578 0-.129-.059-.093-.403.266-.465.492-1.195 1.066-1.281 1.012-.04-.02-.11.004-.172.054-.101.075-.101.07-.012-.047.055-.074.23-.293.395-.496.164-.203.406-.527.535-.718a3.78 3.78 0 0 1 .52-.614c.23-.21.261-.265.152-.265-.34 0-1.07.617-1.504 1.273-.102.152-.195.266-.21.25-.063-.066.382-.98.632-1.305.144-.195.254-.363.234-.386-.015-.02-.25.152-.523.375-.875.722-1.012.824-1.106.824-.105 0 .453-.887.856-1.348.207-.238.219-.273.082-.199-.266.137-.942.695-1.055.867-.082.13-.144.157-.262.13a.58.58 0 0 0-.351.062c-.246.125-.258.07-.027-.168l.171-.18h-.152c-.152 0-.152-.008.043-.125.2-.121.488-.488.691-.89.055-.114.106-.215.106-.231 0-.012-.133.102-.29.254-.343.332-.675.504-1.062.566a2.9 2.9 0 0 0-.574.168c-.156.07-.297.121-.312.106-.078-.078.101-.235.449-.387.41-.18.86-.492.703-.496-.043 0-.195.062-.332.129-.293.152-.457.176-.336.054.121-.12.094-.183-.082-.183-.09 0-.164-.016-.164-.035 0-.133.164-.285.402-.38.422-.167.82-.374.82-.425 0-.027-.054-.031-.124-.012-.22.051-.149-.027.3-.37.328-.247.395-.321.286-.321a.73.73 0 0 0-.286.07l-.144.074.148-.16c.184-.195.184-.242.008-.242-.133 0-.133-.004-.027-.125a.29.29 0 0 0 .062-.289c-.035-.152.016-.234.48-.687.286-.282.509-.512.489-.512-.02 0-.293.133-.61.3-.316.169-.593.286-.613.27-.02-.023.125-.223.32-.45.2-.226.356-.429.356-.448 0-.02-.07-.028-.156-.008-.18.031-.207-.043-.094-.25.05-.102.043-.16-.031-.246-.059-.059-.102-.133-.102-.156 0-.11.672-.754.782-.754.164 0 1.136-.524 1.183-.637.05-.125-.02-.313-.133-.352-.05-.02-.164-.007-.254.024-.148.058-.507.086-1.933.16-.176.008-.403-.027-.5-.074-.14-.07-.235-.075-.465-.016-.184.04-.375.05-.563.035l-.468-.066c-.504-.074-1.578-.164-1.84-.156a3.57 3.57 0 0 1-.676-.067 4.672 4.672 0 0 0-.66-.07 1.41 1.41 0 0 1-.523-.125c-.333-.172-.993-.164-.903.008a.832.832 0 0 1 .055.293c0 .105.05.23.105.277.121.102.754.113 1.328.027.586-.078.477.078-.3.446-.367.168-.739.379-.82.468l-.145.157.285-.16c.16-.09.473-.208.703-.262.223-.059.547-.164.727-.235.36-.144.398-.148.343-.058-.023.035.04.062.157.062.25 0 .265.176.035.375-.2.176-.305.434-.254.61.039.113.078.09.332-.203.277-.32.473-.461.773-.547l.137-.047-.117.332c-.09.226-.207.437-.352.625-.129.164-.214.305-.203.316.012.02.13-.023.254-.082.13-.062.254-.094.274-.074.02.02-.094.207-.25.414-.387.516-.625.902-.625 1.023 0 .055-.094.184-.211.293-.16.145-.18.188-.094.188a.678.678 0 0 0 .246-.066c.102-.059.125-.047.125.066 0 .078-.148.281-.344.477-.347.34-.539.765-.484 1.046.02.098.055.075.144-.105.067-.125.418-.531.79-.91.652-.672.808-.871.523-.672-.188.129-.242.125-.242-.02 0-.07.101-.218.226-.328.145-.125.192-.195.125-.195-.156 0-.015-.227.457-.719.438-.457.492-.574.285-.574-.164 0-.16-.027.036-.29.25-.323.8-.546.8-.323 0 .054-.07.261-.16.465-.113.253-.144.382-.093.44.093.114-.02.38-.258.587-.2.176-.352.523-.422.953-.031.203-.125.332-.453.645-.414.39-.57.62-.246.363.171-.133.343-.172.343-.074 0 .027-.125.214-.28.414-.411.53-.72 1.011-.806 1.265-.07.211-.066.215.047.11.157-.145.297-.137.235.007-.227.56-.575 1.758-.512 1.758.012 0 .066-.082.117-.183.055-.098.215-.325.363-.5.243-.293.567-.848.707-1.215.047-.133.04-.149-.066-.121-.172.047-.16-.035.063-.371.25-.391.539-.649.855-.77.344-.125.41-.277.11-.25-.188.02-.215.004-.196-.105.035-.125.098-.246.176-.356.18-.265.195-.332.058-.277-.308.117.153-.524.891-1.25.574-.559.8-.707.578-.367-.097.156-.097.156.137.156.18 0 .23.023.23.117 0 .07-.058.176-.125.238-.074.063-.132.16-.132.215 0 .055-.11.211-.243.352-.234.242-.238.246-.05.176.101-.04.195-.055.218-.036.02.016.004.032-.03.032-.036 0-.13.09-.212.199l-.144.195.199-.101c.265-.137.25-.036-.024.152-.257.168-.398.367-.46.633l-.044.183.153-.136c.086-.075.2-.16.254-.192.05-.027-.059.082-.242.254-.368.336-.762.805-.711.848.015.015.164-.043.328-.133.414-.234.629-.188.226.047-.164.098-.34.246-.394.328a5.67 5.67 0 0 1-.364.46c-.156.173-.265.364-.265.458 0 .086.012.16.023.16.012 0 .168-.082.34-.176l.313-.175-.13.214a.602.602 0 0 1-.398.297c-.386.114-.824.387-.984.61-.078.105-.11.195-.07.195.039 0 .027.094-.04.223-.16.332-.042.363.227.058.285-.32.578-.539 1.02-.762.437-.218.492-.21.16.032-.149.105-.266.234-.266.289 0 .12-.012.12.328-.004.16-.055.395-.125.528-.156.332-.075.289.035-.118.304-.37.239-.804.633-.804.723 0 .035.136-.031.297-.14.406-.27.875-.438 1.23-.438.363 0 .336.031-.187.226-.223.086-.364.157-.317.157.055.004-.008.11-.144.258-.125.148-.235.277-.235.292 0 .047.285-.105.551-.289.106-.066.238-.128.297-.128.102 0-.266.402-.68.75-.093.078-.168.187-.168.246 0 .07.082.039.313-.13.304-.218.84-.449.898-.386.016.016-.113.117-.285.223-.172.105-.371.289-.45.406-.339.531-.538.898-.581 1.062-.04.18-.04.18.18-.054.226-.242.722-.532.843-.489.043.012-.066.122-.238.243-.281.203-.809.84-.809.976 0 .035.079 0 .172-.07.317-.254.301-.14-.035.219-.32.336-.656.937-.754 1.351-.039.16.024.113.446-.32.27-.281.503-.492.53-.473.02.02-.062.195-.183.387-.332.52-.562 1.02-.476 1.02.023 0 .199-.176.402-.387zm.996-8.5c.148-.121.383-.219.383-.16 0 .011-.121.085-.27.156-.265.133-.27.133-.113.004zm-18.496 8.418c.14-.14.285-.367.242-.367-.02 0-.12.117-.234.257-.223.278-.227.348-.008.11zm28.398-.325c.051-.144.079-.171.082-.078.004.106.016.114.067.035a.552.552 0 0 0 .066-.246c0-.078.04-.14.094-.14.047 0 .125-.106.164-.235.059-.171.094-.21.137-.148.031.05.054.156.054.238 0 .18.102.184.196.016.035-.074.097-.117.125-.098.035.02.09-.015.12-.078.063-.11.067-.11.114 0a.98.98 0 0 1 .016.336c-.04.297.023.285.164-.031.12-.281.23-.34.23-.13 0 .067.028.13.051.13.027 0 .086-.063.129-.13.105-.171.234-.167.191.005-.027.11-.02.117.059.054.07-.058.086-.043.09.11 0 .176.027.16.45-.297.241-.266.433-.492.42-.504-.007-.008-.124.055-.26.145-.134.093-.25.16-.263.152-.007-.016.036-.18.106-.375.133-.398.227-1.203.16-1.41-.023-.074-.082-.137-.137-.137-.062 0-.09-.07-.09-.195 0-.164-.023-.192-.12-.16-.102.03-.13-.008-.169-.239l-.046-.273-.09.289c-.106.348-.117.883-.02.914.04.012.11.168.157.344.046.176.085.281.09.238 0-.039.035-.078.07-.078.078 0 .086.578.007.695a.13.13 0 0 1-.14.047c-.059-.02-.14.047-.215.176l-.125.207-.074-.29c-.078-.288-.25-.663-.371-.82-.13-.156-.172-.007-.082.29.054.171.093.355.093.418 0 .101-.015.105-.132.03-.114-.062-.145-.062-.168 0-.024.063-.078.044-.203-.058-.258-.219-.77-.476-.829-.414-.027.027.043.133.16.238.133.118.176.188.114.188-.055.004-.102.047-.098.105 0 .055-.058.118-.129.133-.074.02-.129.067-.129.106 0 .039-.082-.012-.18-.106-.1-.097-.214-.172-.257-.172-.153 0-.149.141.015.29.168.16.227.484.083.484-.047 0-.086.11-.102.289-.012.238 0 .277.082.25.066-.024.102 0 .102.078 0 .148.078.066.171-.188zm-26.402.02c.04-.066.059-.129.04-.129-.017 0-.063.063-.102.129-.04.07-.055.133-.04.133.02 0 .063-.063.102-.133zm-6.559-.727c.036-.492.235-.996.497-1.23.168-.152.168-.148.003.43-.148.543-.16.941-.035 1.109.086.117.098.113.235-.121.101-.168.16-.219.195-.16.04.062.078.062.168-.02.145-.125.453-.207.496-.129.05.082.27.051.398-.054a.529.529 0 0 1 .282-.106c.43-.039.492-.066.62-.308.188-.364.286-.368.286-.016 0 .312.11.687.203.687.027 0 .055-.02.055-.05 0-.028.086-.153.187-.274l.192-.222.058.16c.059.14.07.148.11.05.027-.066.093-.113.156-.113a.335.335 0 0 0 .187-.078c.059-.062.075-.05.075.04 0 .097.02.1.105.034a.72.72 0 0 0 .168-.254l.07-.16.098.223c.05.125.102.41.102.629.004.223.015.402.023.402.004 0 .094-.137.191-.305.125-.214.184-.273.2-.19.035.179.125.124.246-.145.066-.153.156-.262.215-.262a.293.293 0 0 0 .187-.082c.059-.059.09-.059.129.008.04.066.086.047.188-.078.07-.094.14-.168.16-.168.015 0 .047.128.062.296.043.391.156.504.149.145-.004-.34.136-.41.191-.094.047.227.035.324-.066.684-.067.222.53-.535.683-.867l.113-.258.043.64.223-.324c.215-.308.223-.344.235-.965.015-.77-.04-.933-.211-.62-.07.124-.145.241-.227.35l-.113.141v-.171c-.004-.25-.117-.286-.317-.098-.152.148-.18.152-.265.062-.075-.082-.078-.152-.012-.39.094-.34.066-.39-.14-.25-.208.133-.41.469-.528.87-.098.325-.227.497-.227.306 0-.118-.027-.125-.195-.036-.09.047-.125.047-.125-.011 0-.047-.043-.04-.117.03-.09.08-.133.09-.195.028-.133-.133-.078-.304.195-.617l.273-.305-.32.301a3.11 3.11 0 0 1-.531.41c-.238.114-.438.086-.38-.058.024-.067-.026-.086-.233-.074-.254.011-.274.027-.329.25-.062.253-.234.328-.234.105 0-.36.516-1.023 1.313-1.684.203-.171.335-.308.296-.308-.12 0-.793.375-.98.547-.09.09-.195.16-.234.16-.032 0-.122.082-.2.176-.105.132-.129.144-.097.05.093-.293.11-.488.043-.488-.043 0-.188.106-.328.238-.149.13-.29.207-.332.18-.07-.043-.051-.398.039-.625.093-.226-.098-.11-.223.14a1.38 1.38 0 0 1-.324.4c-.114.085-.36.292-.555.46-.191.164-.363.309-.383.309-.05 0 .086-.246.164-.293.121-.078.063-.176-.093-.145-.13.024-.16-.008-.223-.21-.07-.227-.496-.692-.563-.622-.023.016.055.184.164.38.215.382.258.628.098.628a.152.152 0 0 1-.133-.098c-.02-.05-.11-.097-.191-.097-.117 0-.152.039-.152.144 0 .14-.004.14-.18-.02-.14-.124-.301-.226-.469-.304-.273-.137-.293-.137-.367-.031-.266.39-.27.394-.235.086.02-.16.06-.368.086-.47.059-.171.055-.175-.101-.07a1.26 1.26 0 0 0-.29.325c-.105.168-.155.203-.194.14-.09-.14-.067-.273.101-.605.09-.172.149-.32.137-.332-.012-.016-.145.121-.297.297-.145.18-.297.328-.328.328-.09 0-.07-.367.035-.617.055-.133.25-.422.437-.657.45-.562.192-.43-.484.258-.367.367-.539.504-.625.48-.07-.019-.137.009-.16.063-.02.051-.063.078-.102.051-.086-.055-.078-.312.02-.41.082-.09.058-.086-.254.035-.086.035-.098.012-.07-.121l.03-.168-.23.125c-.5.27-.605.074-.226-.426l.238-.308-.383.3c-.207.164-.406.297-.433.297-.031 0-.04-.074-.024-.16.016-.086.012-.16-.011-.16-.082 0-.2.152-.2.262 0 .058-.062.183-.136.277l-.133.172.23-.137c.274-.16.282-.137.078.223-.148.262-.27.62-.203.62.02 0 .098-.093.172-.206.07-.121.121-.164.102-.113a3.847 3.847 0 0 0-.078.472c-.059.434.03.485.218.117a1.4 1.4 0 0 1 .227-.332c.09-.074.101-.062.101.07 0 .083-.058.368-.128.634-.211.796-.157 1.093.093.453.188-.485.422-.668.426-.336v.172l.125-.157c.07-.09.125-.125.125-.082.004.059.059.07.156.047.2-.05.235.051.27.703.016.282.039.52.055.54.015.015.105-.145.199-.352.164-.363.39-.66.496-.66.031 0 .055.14.055.32 0 .176.027.32.062.32s.086.082.11.18c.054.238.265.512.304.39l.102-.374c.074-.282.226-.516.328-.516.027 0 .031.266.012.602-.032.582.062 1.265.175 1.265.028 0 .059-.21.078-.469zm32.075.082a8.054 8.054 0 0 1-.055-.753c-.004-.418-.082-.57-.172-.325-.035.11-.055.055-.074-.222-.024-.403-.074-.453-.23-.23-.118.171-.133.077-.047-.29.066-.297 0-.308-.149-.031l-.11.207.036-.48.035-.485-.137.258c-.132.234-.144.246-.23.129a.472.472 0 0 1-.086-.203c0-.2-.121-.063-.188.218l-.125.5-.05.196-.106-.196c-.058-.105-.11-.164-.11-.12-.003.163.204.734.329.89l.144.18.079-.188c.078-.18.082-.18.086.125.003.328.117.883.199.973.023.027.082-.14.125-.375.078-.399.195-.63.195-.38 0 .196.133.602.191.602.032 0 .07-.082.083-.175.019-.164.039-.149.21.191.102.203.196.363.2.356a2.002 2.002 0 0 0-.043-.372zm10.453-1.136c.441-.469.8-.461 1.62.039.59.355.614.367.466.168-.207-.27-.203-.36.027-.36a.592.592 0 0 0 .336-.125l.152-.128h-.261c-.364-.004-.512-.122-.457-.38.035-.187.027-.199-.082-.14-.188.098-.329.082-.286-.031.04-.106.008-.094-.78.215a4.82 4.82 0 0 1-.614.18l-.29.046.224.047.226.035-.191.082c-.106.04-.282.117-.387.168-.188.09-.188.094-.04.094.157 0 .157.008-.077.25-.25.25-.336.441-.11.234.125-.113.13-.11.13.063 0 .097.034.238.081.316.067.125.078.102.117-.238.028-.262.09-.418.196-.535zm-4.067-.668c-.062-.207-.054-.235.121-.387.192-.16.747-.527.872-.57.039-.016-.086.125-.266.304-.39.375-.45.536-.129.348.16-.094.293-.117.531-.098.176.016.332.04.344.051.016.02-.016.188-.074.383-.102.36-.102.36.035.328.078-.015.25-.043.383-.066.129-.024.508-.164.836-.317a5.925 5.925 0 0 1 1.09-.386c.48-.106.882-.282 1.109-.48.11-.099.11-.106-.023-.153-.11-.043-.13-.086-.098-.211.023-.102.012-.164-.035-.164-.13 0-.508.27-.473.328.02.035-.016.082-.082.105-.09.04-.078.055.078.086l.195.032-.292.105a5.75 5.75 0 0 1-.825.203c-.37.07-.66.172-.965.348-.234.133-.457.254-.492.27-.031.011.016-.11.11-.27.195-.332.21-.38.093-.332-.043.015-.12 0-.172-.035-.082-.051-.074-.082.04-.207.078-.086.136-.188.183-.297.04-.14.028-.145-.367-.137-.477.008-.648-.016-.707-.098-.047-.062-.387.059-.652.239l-.176.12.062-.167c.082-.207.082-.227.012-.227-.098 0-.648.45-.723.586-.066.13-.066.13.102.02l.172-.11-.106.25c-.132.32-.414.617-.547.578-.14-.046-.52.524-.515.77v.195l.246-.285.246-.289.04.191c.019.102.007.215-.024.25-.035.036-.059.125-.059.204 0 .125.078.07.484-.32.477-.462.48-.466.414-.688zm-.746.578a.775.775 0 0 1 .184-.137c.14-.074.14-.074.02.067-.126.136-.274.195-.204.07zm-.914-2.14c.086-.223.207-.43.278-.47.234-.113.734-.558.699-.617-.04-.062-.387-.007-.617.11-.094.05-.243.175-.336.285-.18.21-.215.207-.098-.012.05-.098.05-.12 0-.09-.039.024-.129.153-.203.285l-.129.235.023-.531c.012-.293.008-.532-.003-.532a.565.565 0 0 0-.145.145c-.184.226-.23.086-.07-.215.078-.145.129-.277.113-.297-.063-.058-.426.32-.55.57-.114.235-.141.25-.18.145-.137-.34-.196.965-.063 1.328l.086.223.066-.227c.035-.125.157-.387.27-.582l.207-.347-.043.257c-.027.141-.059.371-.07.516-.012.14-.055.375-.098.523-.043.145-.059.313-.035.372.07.18.71-.59.898-1.075zm7.035.148c.024-.07.121-.11.336-.117.309-.012.657-.184.563-.274-.031-.027-.211-.027-.403.008-.195.027-.378.039-.406.02-.105-.067-.05-.235.133-.419.27-.265.652-.265.898 0 .122.133.25.196.461.223.16.016.387.05.504.078l.211.043-.164-.246c-.101-.148-.156-.3-.14-.379a.651.651 0 0 0-.047-.324l-.082-.195-.043.28c-.04.216-.07.27-.157.255-.09-.016-.113-.094-.117-.34-.004-.18-.039-.395-.086-.477-.074-.136-.117-.148-.406-.12-.437.042-.559.171-.144.156.289-.008.316.003.378.164.067.199.012.304-.105.191-.09-.094-.434-.098-.566-.012-.079.047-.059.063.074.063.207.004.375.058.375.129 0 .027-.192.07-.434.097-.414.043-.453.063-.77.375-.21.204-.308.348-.269.375.055.028.055.102 0 .25-.082.247-.055.309.086.192.086-.067.098-.059.098.055 0 .07-.028.148-.067.171a.158.158 0 0 0-.062.11c0 .093.312-.196.351-.332zm-37.632-.399c.035-.031-.028-.027-.141.016-.121.039-.211.082-.211.101 0 .043.277-.046.352-.117zm25.152-.527c-.023-.488-.012-.703.05-.82.098-.172.114-.66.036-.868-.047-.117-.059-.113-.145.067-.168.328-.265.926-.218 1.308.043.383.214.98.273.98.023 0 .023-.3.004-.667zm12.309-.316c.05-.04.156-.211.242-.375.133-.266.207-.325.574-.485.234-.101.414-.2.402-.219-.035-.082-.07-.164-.105-.242-.074-.203-.094-.21-.446-.21h-.367l-.511.527-.512.523.383-.21.386-.208-.32.332a3.23 3.23 0 0 1-.613.492l-.293.16.258-.043c.254-.039.449-.128.73-.324.223-.164.168-.054-.133.274l-.27.293.25-.102c.122-.047.24-.11.345-.183zm-3.665.011c.23-.082.38-.16.34-.176-.164-.054-.062-.195.23-.324.29-.129.294-.136.114-.14a.994.994 0 0 0-.398.109c-.239.137-.934.762-.793.71.05-.015.28-.097.507-.183zm6.41-.64c.005-.22-.042-.368-.203-.606a3.272 3.272 0 0 1-.3-.61 2.134 2.134 0 0 0-.371-.597 69.707 69.707 0 0 1-1.243-1.41 34.43 34.43 0 0 0-1.82-1.879c-.14-.129-.27-.266-.289-.309-.027-.097-.242-.02-.242.09 0 .043.129.211.289.38.156.163.289.347.289.402 0 .046.027.093.063.093.035 0 .132.125.222.278.09.156.235.312.317.351.082.035.21.176.28.317.09.172.173.242.282.242.113 0 .16.05.203.21.031.118.098.212.145.212.054 0 .136.097.195.218.059.118.176.286.258.368.09.078.16.199.16.261 0 .067.043.118.098.118.05 0 .136.101.191.226.05.129.125.227.156.227.106 0 .325.21.29.27-.016.03.011.07.074.093.074.027.093.086.058.223-.027.14-.012.195.067.226.105.043.355.473.355.606 0 .043.082.172.176.289.156.195.183.21.238.113.035-.059.063-.242.063-.402zm-16.956-.25c.125-.137.273-.325.32-.407.383-.625.676-1.07.785-1.199.238-.27-.035-.152-.305.133-.148.148-.242.223-.218.16.058-.152-.008-.14-.203.031l-.16.145.144-.246c.246-.438.101-.332-.309.219-.363.48-.52.82-.312.656.058-.04.125-.074.195-.102.102-.035.102-.011-.027.23-.098.192-.211.376-.328.555l-.192.278.188-.098c.105-.05.293-.215.422-.351zm10.464.144c.137-.055.551-.129.918-.156.645-.055 1.008-.16.575-.168a1.169 1.169 0 0 1-.383-.074l-.164-.067.289-.32.293-.316.199.12c.277.165.805.16 1.023-.011a.877.877 0 0 0 .243-.375l.074-.238.363.035c.2.02.43.074.504.113a.6.6 0 0 0 .273.078.4.4 0 0 1 .243.121c.066.067.187.16.277.203.133.067.117.032-.082-.175-.16-.168-.23-.29-.203-.36.031-.078-.024-.144-.192-.242-.148-.09-.23-.183-.23-.277 0-.098-.09-.188-.316-.313-.168-.097-.348-.218-.395-.277a.343.343 0 0 0-.219-.098.484.484 0 0 1-.457-.398c-.066-.293-.265-.61-.418-.652-.074-.016-.129-.075-.129-.133 0-.168-.32-.121-.629.086-.156.105-.312.203-.359.214-.039.016-.059.047-.039.07.02.02.14.005.273-.034.18-.055.278-.055.403 0 .199.09.18.218-.04.27-.085.023-.16.081-.16.132a.203.203 0 0 1-.074.148c-.172.106-.07.164.235.13.261-.036.347-.016.492.097.098.074.148.137.113.137-.035 0-.16.086-.281.191l-.223.188.387-.04c.375-.035.383-.03.277.086-.105.118-.097.122.239.102.187-.012.394.004.46.04.106.062.09.081-.124.171-.246.102-.32.227-.145.227.14 0 .121.085-.055.25-.328.312-.734.3-1.09-.04-.183-.175-.222-.156-.109.055s-.043.14-.262-.117l-.203-.246.04.195c.035.168-.005.246-.25.524-.31.355-.653.504-1.055.464l-.211-.02.316-.648c.41-.824.528-.94.95-.902.175.012.367.043.433.067.215.09.11-.094-.129-.22-.137-.073-.207-.128-.164-.132.16-.004.078-.11-.168-.23-.14-.07-.242-.145-.227-.168.016-.024 0-.067-.035-.086-.03-.02-.078-.008-.101.03-.059.106-.18.075-.137-.034.05-.137-.11-.117-.25.035-.113.125-.117.125-.332-.067-.246-.214-.293-.234-.238-.093a.54.54 0 0 1-.004.261c-.031.125-.07.157-.16.125-.082-.027-.13 0-.153.094-.027.11-.062.117-.234.067a.714.714 0 0 0-.34-.012c-.117.047-.117.058-.027.133.058.05.101.117.101.152 0 .031-.093-.02-.207-.113-.172-.149-.215-.16-.23-.074-.016.082-.086.054-.348-.137-.332-.23-.344-.215-.101.125.148.215.144.242-.016.203-.066-.02-.129-.008-.129.027s.063.114.129.18c.176.152.164.21-.047.242-.172.031-.172.031-.031.078.2.067.18.13-.05.227-.317.129-.286.191.081.156.379-.039.39-.074-.098.313-.128.101-.132.109-.011.074.078-.024.054.004-.051.066-.277.164-.223.25.129.2l.308-.04-.195.164-.191.172.207-.039c.23-.035.242-.023.136.168-.078.149-.097.16.442-.12.531-.278.558-.427.05-.243-.081.027-.023-.059.145-.223.305-.293.324-.355.16-.445-.105-.063-.105-.07 0-.11.063-.023.114-.074.114-.109s-.055-.105-.114-.152c-.101-.078-.101-.086.035-.086a.67.67 0 0 1 .278.062c.11.059.125.047.125-.125 0-.136.05-.226.187-.324.223-.164.29-.168.235-.027a.223.223 0 0 0 .031.191c.082.102.027.219-.105.219-.051 0-.09.04-.09.09 0 .047-.063.164-.141.262-.094.117-.113.195-.066.238.043.047.03.148-.051.324-.2.442-.012.692.512.7.218.003.257.019.164.058-.125.05-.348.262-.274.262.016 0 .145-.047.281-.106zm-6.113-1.676c.192-.043.66-.453.66-.574 0-.043.059-.152.133-.246.168-.215.504-.238.559-.039.039.168.093.16.277-.031.18-.196.383-.215.383-.04 0 .188.094.212.266.063.148-.129.273-.133.613-.027.101.035.16 0 .246-.133.113-.172.113-.176-.035-.289l-.153-.117.157-.164c.086-.09.222-.168.304-.168.078 0 .149-.028.149-.063s-.043-.062-.098-.062c-.05 0-.098-.032-.098-.067s.032-.062.059-.062c.031 0 .027-.137-.004-.305-.066-.297-.062-.308.14-.48l.212-.172-.153-.195c-.113-.145-.21-.196-.367-.2a.834.834 0 0 1-.37-.11c-.142-.089-.196-.093-.407-.023-.266.086-.383.051-.707-.199-.153-.12-.485-.11-.621.016-.106.101-.266.058-.555-.137-.316-.219-.55-.258-.484-.09.035.09.007.102-.203.051-.313-.066-.977-.074-1.145-.012-.102.036-.16.008-.238-.129l-.11-.175-.004.215c0 .171-.027.207-.101.18-.055-.02-.172.007-.258.062a.865.865 0 0 1-.375.11c-.129 0-.207.034-.191.066.023.03 0 .085-.051.113-.07.047-.063.058.027.058.184.004.125.13-.082.172-.191.04-.273.149-.113.153.043 0 .016.039-.067.086-.187.101-.12.171.114.128a.547.547 0 0 1 .297.028c.082.047.156.047.246 0a.789.789 0 0 1 .316-.063c.234.008.156-.082-.148-.172-.192-.054-.203-.062-.067-.07a.64.64 0 0 0 .254-.062c.051-.036.153-.036.246.003.207.075.278.008.117-.109-.16-.117-.03-.117.258 0 .203.086.317.04.149-.066-.047-.032-.035-.067.035-.106.133-.074.371.074.539.32.086.137.082.145-.098.145-.105 0-.222.035-.261.078-.051.067.058.082.523.074a7.72 7.72 0 0 0 .816-.05c.125-.024.188-.024.145 0-.043.023-.078.09-.078.152 0 .152-.13.25-.38.305-.284.054-.32.148-.066.148.34.004.7.078.7.145 0 .03-.047.109-.106.168-.101.097-.101.109-.004.125a.386.386 0 0 0 .23-.043c.294-.157.325-.067.075.187-.14.14-.297.258-.34.258-.172 0-.5.266-.59.477-.07.16-.199.289-.355.359-.262.133-.32.203-.352.41a.582.582 0 0 1-.133.234c-.117.13-.058.188.07.067.04-.043.052.012.036.172l-.027.234.234-.234c.129-.13.313-.254.41-.278zm-7.37-.668c.362-.558.398-.695.148-.578-.079.043-.032-.031.113-.16.336-.305.969-.613 1.254-.613a.814.814 0 0 0 .328-.067c.062-.039-.016-.046-.254-.02-.27.032-.336.02-.293-.038.066-.117.547-.328.746-.328.219-.004.273-.063.145-.16-.098-.07-.09-.102.074-.313.203-.273.203-.273-.27-.133-.433.125-.886.074-1.101-.125-.192-.176-.582-.152-.98.063l-.286.16.32-.043c.344-.043.344.008 0 .2l-.195.105.254-.043c.223-.04.246-.032.172.054a1.828 1.828 0 0 1-.375.27c-.348.207-.332.258.035.117.148-.062.29-.09.313-.066.023.023-.055.148-.176.273l-.223.23.176-.042c.238-.059.226.003-.067.386-.132.18-.265.371-.285.434-.023.055-.144.137-.273.176-.246.086-.305.195-.098.195.145 0 .164.066.047.191-.082.09-.035.082.36-.039.101-.035.117-.015.078.118-.149.515-.157.52.308-.204zm-20.126-.093c.07-.258.352-.809.418-.809.02 0 .016.035-.008.082-.02.043.035-.004.13-.105.116-.125.151-.203.1-.23-.077-.052.313-.446.575-.583.148-.078.176-.012.05.129-.042.05-.019.043.055-.02.215-.18.305-.14.27.118l-.024.226.344-.36c.211-.222.387-.35.457-.339.133.027.375-.523.262-.598-.05-.03-.047-.082.004-.183.058-.11.012-.09-.223.09-.34.261-.457.289-.351.093.062-.12.058-.129-.059-.066-.309.168-.36-.031-.105-.41.09-.13.125-.219.082-.188-.067.04-.063.028 0-.054.047-.055.308-.254.586-.442.628-.43.668-.469.394-.375-.242.086-.55.262-1.258.711-.66.422-.636.414-.515.223.148-.215.043-.215-.29.004-.28.187-.37.172-.257-.035l.074-.137-.215.129c-.27.164-.504.168-.504.011 0-.164.117-.293.45-.496.16-.097.378-.273.492-.394.234-.25.16-.277-.297-.121-.36.129-.39.086-.09-.121.332-.223.172-.274-.363-.106-.438.137-1.063.18-.996.07.058-.09.043-.09-.407.094-.218.086-.468.16-.558.16-.145 0-.16-.015-.098-.125.04-.078.164-.14.309-.168.593-.101.64-.222.093-.226-.367-.004-.367-.004-.175-.094.359-.144.726-.254 1.105-.324.277-.043.57.059.5.176-.031.043.027.047.172.011.281-.07.895-.07 1.348 0 .289.043.336.04.273-.027-.047-.047-.082-.105-.082-.137 0-.109.434-.261.969-.347.312-.051.691-.133.84-.192.164-.05.336-.086.504-.093.32-.004.394-.063.378-.317l-.015-.215-1.45.04c-.894.023-1.824.085-2.413.167-.536.07-1.36.18-1.84.23-1.262.153-3.61.782-3.942 1.063l-.148.125h.32c.434.004.613.059.567.168-.02.059.007.09.074.09.226 0-.227.426-.649.61-.425.187-.464.242-.34.515.09.192.153.203.47.07.355-.152.39-.117.206.196-.148.242-.156.285-.066.285.07 0 .094.039.066.101-.058.153.313-.125.696-.511.296-.309.652-.453.57-.242-.02.05.117-.016.305-.141.187-.133.41-.238.496-.238.086 0 .27-.055.414-.13.136-.07.25-.105.25-.077 0 .03-.13.183-.293.343-.164.16-.313.344-.43.543l-.133.254.301-.273c.324-.297.594-.446.668-.375.027.027-.008.094-.082.144-.336.25-.363.282-.133.157.133-.079.262-.125.278-.114.05.055-.106.36-.305.59-.113.125-.192.23-.172.23.016 0 .242-.163.492-.355.25-.195.473-.355.496-.355.02 0 .028.09.012.195-.023.168-.012.187.09.152.117-.035.117-.027.02.207-.06.137-.145.29-.188.348-.047.05-.121.164-.16.246l-.078.145.246-.125c.234-.118.668-.54.836-.82.07-.114.078-.106.078.077.004.133-.082.329-.254.582-.14.207-.254.422-.254.47 0 .054.094-.048.207-.223.184-.282.207-.301.227-.172.011.082-.008.293-.043.468-.118.555-.067.602.203.157.113-.188.218-.29.304-.29.07 0 .13.024.13.051 0 .082-.348.403-.438.403-.047 0-.07.02-.051.047.016.035-.027.152-.098.27-.164.269-.11.323.145.136.226-.168.293-.145.18.066-.043.082-.082.38-.09.657l-.02.507.156-.144a.98.98 0 0 0 .223-.41zm-7.773.027c.066-.07.101-.125.086-.125a.507.507 0 0 0-.149.125c-.066.074-.101.129-.082.129a.416.416 0 0 0 .145-.129zm2.03-1.184c0-.046.075-.222.161-.398.191-.375.188-.348.07-.348-.05 0-.101-.05-.113-.117-.016-.082-.055-.062-.172.102-.133.187-.144.261-.11.566.028.195.075.336.106.317a.152.152 0 0 0 .059-.122zm8.927-1.71c.097-.11.156-.2.12-.2-.034 0-.175.125-.316.27-.14.144-.195.234-.129.199.075-.035.22-.16.325-.27zm3.468-.77c.286-.434.403-.55 1.043-1.012.27-.199.293-.226.137-.191-.191.043-.191-.004.004-.23.082-.098.063-.098-.277-.02-.207.047-.387.078-.399.062-.054-.054.074-.18.274-.261a.861.861 0 0 1 .882.16c.094.086.215.203.27.246.063.043.105.105.105.133 0 .023-.156.289-.351.586-.195.296-.352.597-.352.671.004.118.028.11.176-.09.465-.605 1.004-.964 1.453-.964.215 0 .621-.149.621-.227a1.3 1.3 0 0 0-.125-.234c-.101-.172-.203-.23-.53-.32a3.348 3.348 0 0 0-.704-.118c-.172 0-.348-.035-.516-.09-.12-.05-.449-.109-.734-.136-.285-.024-.84-.098-1.242-.168-.399-.07-.797-.106-.89-.082-.145.031-.161.07-.134.219.032.152.012.19-.14.253-.16.063-.532.446-.684.707-.047.075-.023.075.102-.015.226-.16 1.164-.625 1.265-.625.043 0-.03.11-.168.25-.215.215-.453.652-.351.652.02 0 .117-.09.215-.195.308-.328.41-.238.152.137-.29.43-.293.605-.008.332.297-.278.914-.579.98-.473.016.023-.054.16-.156.3a1.827 1.827 0 0 0-.257.536c-.196.73-.223 1.441-.028.887.102-.235.223-.465.367-.68zm-2.918.344c0-.02-.062-.004-.128.039-.075.035-.133.078-.133.101 0 .016.058 0 .133-.043.066-.035.128-.082.128-.097zm26.239-.309c.058.066.14.191.175.281.063.137.067.125.04-.097l-.04-.258.247.308.046-.187c.028-.102.063-.148.083-.102.019.063.054.055.12-.035.075-.082.106-.09.13-.031.03.066.058.066.128.008.075-.063.13-.043.282.105.183.176.191.176.191.047 0-.133.027-.14.277-.11.149.016.461.005.692-.03.476-.063.664.003.785.3l.07.176.059-.215c.043-.156.086-.203.16-.176.05.02.195.036.32.036.176 0 .243.043.34.199.098.164.125.176.16.09.032-.082.063-.09.125-.035.047.035.106.05.125.03.02-.019.106.009.188.067a.939.939 0 0 0 .43.106c.242 0 .273-.016.203-.102a.281.281 0 0 0-.192-.094c-.066 0-.218-.074-.347-.164-.13-.086-.27-.16-.305-.16-.031 0-.18-.058-.32-.129-.297-.152-1.098-.226-1.168-.105-.032.047-.082.035-.16-.035-.145-.125-.817-.086-.93.054-.067.078-.094.078-.18-.004-.074-.066-.336-.101-.953-.12-.461-.02-.879-.055-.93-.083a1.124 1.124 0 0 0-.363-.07 2.494 2.494 0 0 1-.422-.059c-.125-.043-.133-.035-.055.059.137.16-.007.297-.183.187-.176-.113-.223.008-.086.239.121.207.18.242.25.125.023-.04.101-.055.18-.035.07.02.168.003.21-.028.06-.05.13.016.262.242l.18.309.031-.313c.035-.3.04-.308.145-.19zm-6.219-.113c-.047-.188.125-.235.36-.102.179.102.195.102.269 0 .082-.105.242-.101.808.02.145.031.137.02-.054-.11-.156-.105-.192-.156-.13-.199.102-.058.356-.008.532.113.078.055.227.07.43.047.21-.023.394-.004.578.07.234.094.281.098.402.008a.615.615 0 0 1 .317-.097c.097 0 .254-.035.355-.074.156-.067.164-.082.05-.102a3.61 3.61 0 0 1-.355-.082c-.878-.227-1.183-.266-2.351-.285-.422-.012-.875-.05-.996-.09a1.44 1.44 0 0 0-.406-.078.628.628 0 0 1-.301-.078c-.102-.059-.16-.055-.297.011-.152.086-.176.082-.23-.015-.036-.063-.141-.113-.254-.113-.188 0-.192.007-.153.261.055.317-.015.328-.328.055-.203-.18-.246-.195-.39-.129-.13.055-.192.05-.301-.02-.078-.05-.297-.113-.489-.14-.308-.04-.343-.031-.375.09-.023.086-.109.152-.238.18l-.2.042.286.106c.324.125.348.21.066.281-.222.063-.27.211-.05.164.62-.144.566-.152.523.07-.043.227.047.266.262.102a.633.633 0 0 1 .3-.094c.098 0 .36-.058.587-.129.535-.164.656-.168.566-.004a.73.73 0 0 0-.059.274v.148l.11-.136c.238-.293.36-.301.77-.059.202.121.382.223.398.227.011 0 .008-.059-.012-.133zm0 0"/></svg>