<svg xmlns="http://www.w3.org/2000/svg" width="80" height="80"><path d="M30.755 79.002c-.762-.24-2.228-.692-3.26-1.003-2.017-.609-6.22-2.567-8.752-4.078-2.573-1.536-6.105-4.585-8.596-7.422a364.956 364.956 0 0 0-2.693-3.046c-.377-.59-.659-1.26-1.009-1.775-.122 0-.909-1.391-1.749-3.092l-1.945-3.934c-.352-.894-.566-1.877-.885-2.69-.257-.5-.468-1.273-.469-1.718C.645 46.904.027 43.412 0 39.952c.01-5.723 1.709-12.737 4.339-17.92 3.178-6.264 9.5-13.2 14.56-15.976.602-.33 2.02-1.13 3.15-1.78 1.13-.648 2.396-1.259 2.813-1.356.416-.097 1.531-.459 2.477-.804 7.177-2.622 16.139-2.82 23.485-.52 1.525.283 3.094.844 4.347 1.406.767 0 6.73 3.376 8.895 5.035 3.97 3.484 8.093 7.435 10.458 11.775.398.293 3.02 6.169 3.537 7.929.966 3.284 1.477 5.592 1.48 6.681.773 6.592.422 7.333.016 10.868-.655 4.853-.96 5.801-2.777 10.688-.174.663-1.746 3.498-3.585 6.469-3.383 4.601-7.156 8.041-11.885 11.407-3.385 2.252-9.27 4.77-14.638 5.872-5.418.428-11.256.47-15.917-.724zm18.765-7.01c4.094-1.15 8.027-2.952 11.088-5.078 3.573-2.483 7.678-6.327 7.678-7.192 0-.702-1.721-1.847-2.78-1.848-.516-.001-1.389.672-2.813 2.17-2.71 2.85-6.398 5.582-9.88 7.318-3.47 1.73-3.726 1.835-5.47 2.258-.773.187-1.969.492-2.656.677-.695.187-3.994.329-7.417.318-5.514-.017-7.56.222-5.95.695 1.338.393 4.71 1.144 5.708 1.272 2.26.29 10.793-.114 12.492-.59zm-5.146-3.614c5.752-1.252 9.564-3.174 14.847-7.489 2.544-2.077 7.19-7.446 7.19-8.308 0-.482-2.213-1.686-3.1-1.686-.342 0-.875.369-1.184.82-2.345 3.429-7.701 8.709-10.659 10.507-5.793 3.523-11.73 5.166-18.67 5.166-1.79 0-2.02.07-2.02.613 0 .424.265.656.859.752 1.773.287 10.934.018 12.737-.375zm-4.71-3.383c10.056-2.595 16.824-7.398 22.462-15.94 2.202-3.336 2.243-4.045.269-4.719-.747-.255-1.54-.393-1.762-.306-.222.086-1.152 1.416-2.065 2.956-.914 1.539-1.809 2.956-1.989 3.148-.18.192-.89 1.049-1.576 1.903-1.85 2.301-3.223 3.653-5.315 5.232-3.314 2.5-4.008 2.903-8.127 4.72-.635.28-2.671.88-5.783 1.703-.945.25-2.61.54-3.7.646-2.228.215-2.833.453-2.194.864.735.473 7.72.325 9.78-.207zM34.84 62.02c1.118-.195 2.314-.474 2.657-.62.344-.147 1.47-.53 2.5-.852 2.399-.748 6.699-3.006 8.91-4.678 2.267-1.716 6.189-5.839 7.695-8.091.662-.99 1.276-1.872 1.365-1.96.219-.216 1.114-1.938 2.692-5.179.976-2.004.4-3.067-1.661-3.067-1.185 0-1.425.126-1.976 1.031-.345.567-.704 1.388-.797 1.824-.094.436-.384 1.19-.644 1.677-.26.487-.64 1.2-.844 1.586-2.095 3.956-7.199 9.766-10.569 12.032-3.808 2.561-9.1 4.706-15.11 6.124-.85.2-.879.247-.313.497.719.317 3.159.187 6.095-.324zm-3.6-4.254c.546-1.029.543-1.066-.214-2.293-1.894-3.075-3.57-7.203-4.822-11.873-.631-2.356-.927-11.636-.445-13.956.2-.96.475-2.315.612-3.013s.397-1.626.576-2.062c.18-.436.507-1.435.727-2.22.22-.785.594-1.827.83-2.315.237-.489.34-1.177.23-1.53-.185-.588-.245-.56-.72.325-2.13 3.971-3.801 7.762-3.801 8.626 0 .355-.155.94-.345 1.299-.622 1.179-.987 4.14-1.127 9.136-.138 4.94-.054 5.704 1.173 10.626.896 3.592 3.788 9.97 4.893 10.79.702.521 1.661-.086 2.433-1.54zm-6.919-.385c.628-.619 1.142-1.246 1.142-1.394 0-.149-.422-1.133-.937-2.188-.516-1.054-.938-2.11-.938-2.347 0-.237-.116-.566-.257-.732-.33-.385-1.144-3.163-1.763-6.01-.658-3.028-.654-11.163.006-14.05 1.097-4.794 1.606-6.248 3.782-10.804.886-1.856 1.567-3.42 1.513-3.477-.205-.216-1.83 1.426-2.61 2.64-2.43 3.78-4.794 9.102-5.355 12.052-.133.698-.417 2.044-.63 2.991-.467 2.074-.253 11.874.303 13.82.199.697.582 2.053.852 3.013.683 2.43 1.343 4.431 1.83 5.55.227.523.489 1.201.58 1.507.263.876 1.242.651 2.482-.57zm-6.954-1.639c.5-.3.989-.802 1.087-1.118.16-.509-.72-4.088-1.424-5.791-.264-.641-.883-5.196-1.142-8.405-.2-2.478.962-9.394 2.223-13.231.412-1.254 3.132-6.545 4.32-8.4.636-.996 1.157-1.959 1.157-2.142 0-.183.14-.332.312-.332s.306-.321.298-.714c-.012-.59-.393-.303-2.188 1.643-2.93 3.517-5.379 7.525-7.054 11.924-2.46 6.664-2.829 16.4-.87 23.047.24.818.437 1.79.437 2.162 0 1.805 1.167 2.362 2.844 1.357zm-5.759-2.673c.486-.409.542-1.835.115-2.873-.619-1.5-.944-8.142-.608-12.424.179-2.29.457-4.299.617-4.465.16-.165.29-.54.29-.83 0-1.46 1.978-6.352 3.965-9.81.713-1.242 3.346-4.941 3.837-5.393.35-.32 1.888-2.5 1.888-2.675 0-.994-3.05 1.642-6.502 5.617-2.03 2.338-6 9.532-6 10.87 0 .276-.134.756-.297 1.064-.163.31-.585 2-.937 3.756-.808 4.023-.9 11.943-.173 14.779.258 1.004.469 2.076.469 2.382 0 1.048.62 1.327 1.82.818.606-.257 1.288-.624 1.516-.816zm54.177-17.41c0-.143-1.174-1.452-2.609-2.908-2.8-2.842-6.711-5.687-9.737-7.084a128.223 128.223 0 0 1-2.412-1.137c-1.413-.712-8.794-2.168-11.03-2.176-1.884-.007-8.813.9-9.689 1.269-.344.144-1.012.348-1.485.452-1.04.229-1.062.59-.137 2.239.645 1.151.825 1.267 1.948 1.252.68-.01 2.948-.33 5.038-.714 2.09-.383 4.796-.697 6.01-.697 3.796 0 9.668 1.328 12.934 2.925.99.485 1.877.881 1.97.881.222 0 5.359 3.472 6.334 4.282.42.349 1.055.94 1.41 1.313.602.633 1.455.694 1.455.103zm1.513-2.526a36.891 36.891 0 0 0-8.04-8.848c-3.518-2.711-7.318-4.627-11.915-6.006-2.334-.7-7.317-1.094-11.18-.885-4.61.25-5.22.482-4.946 1.875.107.542.418 1.332.692 1.756.47.728.614.76 2.574.567 5.553-.546 7.205-.557 10.618-.066 2.212.23 3.592.485 6.544 1.438.299.164 1.778.898 3.288 1.63 3.223 1.565 6.127 3.687 9.408 6.874.887.737 2.845 2.62 3.214 3.013.087-.218-.029-.825-.257-1.348zm1.796-2.495c-.422-.777-.57-1.015-.808-1.476-.088-.17-1.288-2.111-1.591-2.373-.102-.087-.634-.8-1.183-1.585-1.318-1.884-5.147-5.8-6.742-6.897-.697-.48-1.338-.964-1.424-1.076-.086-.113-.72-.513-1.407-.89-.688-.377-1.461-.805-1.719-.951-.258-.146-1.032-.517-1.72-.823-.687-.307-1.46-.657-1.718-.777-2.53-1.184-8.235-2.225-12.19-2.225-3.726 0-3.895.095-3.544 1.986.347 1.87.695 2.032 4.405 2.057 5.09.034 10.68 1.187 14.142 2.917 4.848 2.422 8.939 5.714 12.441 10.011 2.472 3.033 3.348 3.927 3.599 3.672.147-.15-.137-.826-.541-1.57zm1.692-2.046c0-.947-2.498-5.812-4.346-8.463-3.644-5.23-9.525-9.933-14.877-11.9-1.509-.836-3.267-1.163-4.786-1.549-2.612-.792-6.693-1.416-7.422-1.134-.673.26-.68.316-.275 2.083.228.999.575 1.916.77 2.039.195.122 1.715.305 3.377.406 1.662.101 3.444.323 3.96.493.516.17 1.782.56 2.813.866 2.579.766 6.886 2.94 9.067 4.574 4.087 3.318 6.551 5.108 10.156 11.575.408.616.754 1.32 1.094 1.745.282 0 .47-.293.47-.735z"/></svg>