<svg xmlns="http://www.w3.org/2000/svg" width="64" height="64"><path d="M40.188 3.188L36.75 4.53l1.344 3.438 3.437-1.375-1.343-3.407zM23.438 5.25l-3.594.844.875 3.593 3.562-.874-.843-3.563zm7.25.5l-3.594.844.875 3.593 3.593-.874-.875-3.563zm17.75 1.938L48 11.344l3.656.437.438-3.656-3.657-.438zM33.593 8.844L32 12.156l3.313 1.594 1.624-3.313-3.343-1.593zm-15.938 1.781l-3.562.875.844 3.563 3.593-.844-.875-3.594zm-7.062.781l-1.094 3.5 3.5 1.125 1.125-3.531-3.531-1.094zm19.687.469l-3.687.25.25 3.656 1.125-.062-1.032 1.031.032-.313-3.657-.53-.343 2.53-1.563.094.25 3.657 3.688-.25-.125-2.063 1.25.188.187-1.47 1.844 1.782 1.281-1.281.313 2 .375-.063-1.219.938-2.219-1.063-1.593 3.313 3.312 1.593.75-1.562 1.031 1.344.032-.032.03.032h-.062l-1.468.093.218 3.407-.375.062-1.343-1.75-2.375 1.782-.532-3.157-3.625.625.5 3.125-.031-.031-2.563 2.625 1.625 1.594.094 1.625-3.031-1.438-1.594 3.313 3.344 1.593 1.344-2.78.031.624 3.375-.187.156 2.375 3.594-.25-2.5 2.531 2.656 2.563.5-.5-.281.562 3.313 1.594 1.25-2.532 1.968-.124-.125-1.876.407-.03.437 2.656.625-.094-1.094 1.093 1.75 1.72-2 .124.25 3.657 3.688-.25-.25-3.47 1.781-1.812-1.531-1.531.437-.063-.5-2.874.063.062L40 38.969l.719 2.812 1.656-.406 2.25 2.219 1.313-1.344-.313 2.313 3.188.468-1.032 2.157 3.313 1.593 1.625-3.312-3.282-1.563.344-2.468-2.656-.376.094-.093-1.438-1.438h.063l-.625-3.625-3.625.625.187 1.188-.75.187.282-.281-1.344-1.313.906-.156-.594-3.625L39 32.75v-1.438l2.313-.406.593 2.313 1.594-.375.406 2.468 3.625-.593-.593-3.625-1.688.281-.625-2.5.313-.313-2.626-2.593-1.25 1.281-1 .156-.187-3.343-.813.062-.187-1.156.719-.75.281 1.843.031.125 2.157-.343-.188 1.5 2.969.406-.188.406 3.313 1.594 1.625-3.313-3.344-1.593-.438.875.22-1.5-1.876-.25 1.094-1.125-.219-.188 1.407-1.437L50 19.53l.313-3.656-3.688-.313-.125 1.563-1.594-1.563-2.593 2.626.187.187-1.969 2-.718.094-1.438-1.375.438-3.125-3.626-.5-.53 3.625 2.5.343-1.813 1.844.25.219-.688.125.594 3.625.75-.125.156 2.844 1.282-.094.374 2.094-1.718.031-.5-3-3 .5-.094-1.563 1.75-1.312-2.219-2.938-.062.032-.657-.875 2.188-.344-.625-3.625-2.5.406-1.688-1.656 1.594-.094-.25-3.656zm11.25.969L38.5 14.969l2.125 3 3.031-2.094-2.125-3.031zm15.657 1.281l-3.376 1.438 1.438 3.374 3.406-1.437-1.468-3.375zm-41.376 2.094l.032 3.687 3.687-.031-.031-3.656h-3.688zm-6.874 2.937L5.53 20.594l1.438 3.375 3.406-1.438-1.438-3.375zm43.656.782l-2.563 2.625 2.625 2.562L55.25 22.5l-2.656-2.563zm7.281.125l-3.438 1.343 1.376 3.407 3.437-1.344-1.375-3.407zm-40.563 1.843L16.282 24l.405.594L14.658 26l.124-.406-3.5-1.094-1.125 3.5 3.531 1.094.532-1.688 1.562 2.25 3.031-2.093-.406-.563 3-2.063-2.093-3.03zM6.033 26.5l-3.407 1.406 1.438 3.407 3.406-1.438L6.03 26.5zm53.124 2.313L55.75 30.25l1.469 3.375 3.375-1.438-1.438-3.374zm-26.687.343l.343 2.063 2.5-.407v2.875h1.407l.468 2.844-1.093 1.125L38 39.531l-2.594.438-.187-2.657-2.282.157-.03-.594 1.562-.25L33.875 33l-3.625.594.219 1.343-1.375.094.25 3.688 2.281-.157.063.844-.813.063.094 1.75-.907-.438-2.093-2.031-.188-2.844 1.25-.093-.187-2.907L31 32.531l-.531-3.25 2-.125zm-7.75.594l1.937 2.531-1.531.094.188 2.969-.97.031-.155-2.344-.782.063.75-.782L22 30.22l2.719-.469zm28.062.625l-3.687.25.25 3.688 3.687-.25-.25-3.688zm-39.156.5L11.031 33.5l2.625 2.563 2.594-2.626-2.625-2.562zm-4.219 4.031l-3.687.407.437 3.656 3.657-.407-.407-3.656zm41.969.969l-3.688.219.25 3.687 3.688-.25-.25-3.656zm7.313 1.281l-.157 1.75-3.625-.312-.343 3.656 3.687.313.156-1.75 3.625.312.344-3.656-3.688-.313zm-36.22 1.282l-2.593 2.624L21 42.188l.219 3.124-2.094-2.062-2.594 2.625 2.657 2.563 2.562-2.626-.219-.218 3.375-.188-.218-3.687-.282.031.688-.719-2.625-2.593zm-6.937.593l-3.687.032.031 3.656h3.688l-.032-3.688zM8.562 42.5l-3.187 1.875 1.875 3.156 3.188-1.843L8.562 42.5zm17.188 2.25l-2.594 2.625 2.657 2.594.718-.75.969 1.375 1.594-1.094 2.375 2.344 2.593-2.625-2.656-2.594-1.281 1.313-1.719-2.47-1.125.782-1.531-1.5zm19.125.563l-3.688.25.25 3.656 3.688-.25-.25-3.657zm-30.219.312L11.47 47.5l1.875 3.156 3.187-1.875-1.875-3.156zm7.844 2.563l-3.031 2.093 2.125 3 3-2.093-2.094-3zm12.063 4.656l-3.594.875.875 3.562 3.562-.843-.843-3.594zm13.687.687l-3.688.407.407 3.656 3.656-.407-.375-3.656zm-30.375.875l-.438 3.657 3.657.437.437-3.656-3.656-.438zm25.438.438l-3.657.406.375 3.656 3.657-.406-.376-3.656zm-17.407 2.25l-.437 3.656 3.656.438.438-3.657-3.657-.437zm1.3-55.54c16.868-2.814 32.828 8.539 35.65 25.357 2.82 16.82-8.565 32.733-25.432 35.547C20.557 65.27 4.596 53.918 1.776 37.1c-2.82-16.82 8.565-32.733 25.43-35.547z"/></svg>