<svg xmlns="http://www.w3.org/2000/svg" width="64" height="64"><path d="M32 1.344C15.066 1.344 1.344 15.067 1.344 32S15.066 62.656 32 62.656c16.933 0 30.656-13.723 30.656-30.656S48.933 1.344 32 1.344zm-5.938 2.75c2.735-.116 4.979.344 5.782 1.531 1.833 2.708 2.002 20.789-1.625 23.594-3.627 2.804-11.503-4.456-12.938-5.969 0 0-6.384-4.78-5.906-11.313.33-4.495 8.673-7.589 14.688-7.843zm24.813 7.437c.394-.02.78.002 1.188.031 6.538.479 10.112 17.9 6.312 20.47-2.708 1.832-20.789 2.002-23.594-1.626-2.805-3.627 4.456-11.534 5.969-12.968 0 0 4.218-5.6 10.125-5.907zm-37.5 19.375c6.206-.175 13.935.608 15.688 2.875 2.805 3.628-4.487 11.535-6 12.969 0 0-4.78 6.353-11.313 5.875-6.539-.478-10.112-17.898-6.313-20.469 1.016-.687 4.214-1.145 7.938-1.25zm21.781 3.438c3.959-.464 10.152 5.27 11.407 6.593 0 0 6.353 4.781 5.874 11.313-.478 6.54-17.898 10.112-20.468 6.313-1.832-2.71-2.002-20.79 1.625-23.594.453-.35.997-.559 1.562-.625z" fill="#231f20" stroke="#231f20" stroke-width=".68"/></svg>