<svg xmlns="http://www.w3.org/2000/svg" width="64" height="64"><path d="M30.74 62.972a31.718 31.718 0 0 1-6.256-.899C14.5 59.597 6.324 52.207 2.826 42.498a31.138 31.138 0 0 1-.89-18.087 31.022 31.022 0 0 1 3.944-9.119c2.434-3.816 5.784-7.132 9.665-9.57C22.206 1.539 30.231.062 38.02 1.585c4.65.91 9.192 2.974 12.917 5.871 2.01 1.562 4.026 3.57 5.527 5.505 6.256 8.062 8.166 18.684 5.1 28.351-3.129 9.867-11.023 17.595-20.89 20.45-3.182.921-6.77 1.358-9.934 1.21zM17.63 48.92c4.216-.174 8.282-.507 13.324-1.092 8.187-.951 14.447-1.341 21.584-1.346 1.897-.002 3.449-.016 3.449-.032 0-.017-.014-.1-.031-.184l-.03-.155-3.893.027c-3.372.024-5.64.082-7.686.198-5.076.286-8.634.589-13.109 1.115-4.532.532-8.093.846-11.805 1.042-3.82.2-8.543.2-10.881 0a23.788 23.788 0 0 0-.574-.046c-.03 0-.132.063-.23.14-.17.136-.172.141-.065.165.281.063 2.3.187 3.832.236.856.027 4.896-.018 6.115-.068zM7.7 48.3c.089-.08.093-.12.059-.574l-.156-2.1A212.946 212.946 0 0 0 7.2 40.98c-.218-2.248-1.178-8.814-1.756-11.995-.144-.794-.119-.735-.306-.735a.585.585 0 0 0-.166.012 167.276 167.276 0 0 1 1.56 9.897c.34 2.759.752 7.16.882 9.41.054.925.057.935.285.73zm50.143-2.485c.023-.489.015-.71-.03-.842-.034-.098-.045-.188-.025-.2a3.06 3.06 0 0 1 .358-.098c.177-.04.38-.104.451-.141.274-.142.604-.559.734-.929.06-.171.06-.184-.024-.184a.538.538 0 0 1-.16-.027c-.052-.02-.109.047-.202.239-.19.386-.461.619-.807.69-.646.133-1.103.418-1.479.924-.357.48-.5.88-.415 1.15.034.107.04.108.801.095l.767-.013.031-.664zm-35.4.393c1.956-.029 4.644-.057 5.974-.063 1.33-.005 3.25-.034 4.267-.064 4.569-.134 6.523-.2 7.515-.252.587-.031 2.155-.058 3.485-.06 2.312-.004 2.433-.008 2.773-.104.196-.055.43-.131.522-.17.162-.067.156-.069-.332-.087-1.082-.041-4.548-.005-6.638.069-6.146.217-9.884.287-15.266.287-4.433 0-6.138-.031-9.198-.163-2.636-.114-5.458-.306-7.357-.5l-.317-.033.027.469c.014.257.04.482.055.499.017.017 1.086.065 2.377.108 1.29.042 2.475.083 2.631.09.759.036 6.315.02 9.482-.026zm28.035-1.943c.023-.12-.128-.174-.657-.235-.37-.042-.57-.041-.853.002-.305.047-.422.045-.67-.012a5.979 5.979 0 0 0-.584-.099 8.707 8.707 0 0 1-.617-.095c-.38-.074-1.2-.2-1.598-.245l-.27-.03-.014-.314-.014-.314h-.285l-.014.314-.013.314-.224-.021c-.308-.03-1.049-.141-1.503-.225-.208-.039-1.243-.124-2.3-.19a72.306 72.306 0 0 1-2.939-.24c-.56-.066-1.158-.12-1.327-.12-.17 0-.53-.05-.8-.114-.45-.104-.528-.11-.888-.062-.312.042-.433.04-.583-.01a.894.894 0 0 0-.367-.033 1.302 1.302 0 0 1-.466-.048c-.358-.095-.737-.056-.737.075 0 .267.672.432 1.76.432.32 0 .967.041 1.438.092 1.668.179 2.19.216 2.833.2.357-.009.762.007.9.035.139.028.562.084.94.123.378.04.804.092.948.118.143.025.74.068 1.327.096.587.028 1.27.077 1.518.108l.45.058.015.15c.008.083.044.175.08.205.1.083.26-.023.26-.174 0-.124.001-.124.297-.092.163.017.554.051.87.076.315.024.859.09 1.208.145.46.072.847.1 1.395.098.476-.001.864.023 1.043.063.344.078.42.073.44-.03zm7.591-.958c.031-.037.039-.077.018-.09-.076-.047-2.962-.95-3.973-1.242a462.48 462.48 0 0 0-3.271-.924c-1.226-.341-2.266-.632-2.312-.646-.048-.014-.083-.07-.083-.134 0-.224-.263-.283-.318-.071-.014.053-.05.087-.079.077-.029-.01-2.64-.742-5.8-1.626l-5.749-1.606v-.34c0-.246-.022-.362-.076-.416-.172-.172-.304-.016-.304.36 0 .248-.01.28-.083.259-.046-.014-1.85-.519-4.009-1.122-4.106-1.147-4.063-1.138-4.063-.892 0 .05.048.11.107.135.058.025 1.6.461 3.425.97l3.959 1.104.64.18.024.307c.026.348.061.426.19.426.123 0 .189-.14.189-.403 0-.187.012-.216.083-.194.045.013 1.96.55 4.255 1.19 7.776 2.174 7.278 2.028 7.278 2.118 0 .132.145.185.284.103.114-.068.35-.008 4.22 1.075 2.256.631 4.346 1.218 4.646 1.304.621.179.725.191.802.098zm-9.014-.037c.142-.142-.019-.366-.193-.27-.137.078-.073.326.084.326.029 0 .078-.025.11-.056zm10.393-.201c0-.27-.067-.336-.458-.449a49.357 49.357 0 0 1-.976-.298l-.605-.19v-.558l-.118.054c-.08.036-.119.093-.119.17 0 .1-.016.112-.116.087-.133-.033-.264-.091-.498-.22-.09-.05-.176-.071-.19-.048-.033.053-.334-.07-.334-.138 0-.028-.055-.076-.122-.107-.094-.043-.13-.042-.158.003-.055.09-.289-.015-.289-.129 0-.06-.05-.11-.147-.142-.128-.045-.15-.04-.17.038-.02.077-.043.083-.161.042-.11-.038-.132-.068-.111-.153.02-.08-.002-.118-.097-.161-.173-.078-.214-.071-.214.038 0 .107-.036.115-.21.049-.094-.036-.122-.08-.122-.189 0-.12-.029-.155-.172-.215a2.343 2.343 0 0 0-.184-.071.476.476 0 0 0-.04.14c-.028.14-.028.14-.207.078-.168-.059-.179-.074-.164-.233.014-.157.001-.176-.16-.244a1.794 1.794 0 0 0-.193-.073c-.01 0-.018.077-.018.17 0 .159-.01.17-.117.143-.341-.086-.371-.113-.344-.315.023-.172.013-.196-.11-.26-.203-.105-.235-.088-.235.12 0 .21-.023.22-.269.118-.166-.07-.17-.076-.146-.286.022-.199.014-.22-.11-.284-.195-.102-.234-.088-.235.084 0 .257-.053.3-.267.214l-.182-.074.015-.255c.016-.25.013-.256-.149-.333-.195-.094-.222-.076-.222.148-.002.267-.046.304-.259.215l-.18-.076.029-.275.028-.276-.224-.097-.223-.097-.035.265c-.02.145-.045.274-.057.286-.011.012-.119-.016-.238-.061l-.217-.083.028-.242c.016-.134.037-.27.048-.305.018-.058-.39-.279-.434-.234-.01.01-.034.152-.05.315-.026.245-.044.29-.107.263a7.356 7.356 0 0 0-.213-.08l-.137-.05.03-.342.028-.343-.202-.077a1.607 1.607 0 0 0-.236-.077c-.019 0-.036.101-.039.225-.002.124-.018.27-.035.324l-.03.1-.246-.11-.246-.107.027-.35.026-.351-.202-.08c-.11-.045-.21-.073-.22-.063-.01.01-.033.162-.049.336-.016.174-.042.31-.058.303a12.65 12.65 0 0 0-.26-.105l-.23-.092.031-.358.031-.36-.204-.082a1.688 1.688 0 0 0-.233-.083c-.016 0-.038.137-.05.306-.01.168-.03.318-.044.331-.013.014-.137-.022-.274-.08l-.25-.105.032-.36.032-.36-.248-.104c-.137-.057-.257-.096-.267-.086a2 2 0 0 0-.046.332c-.017.174-.046.315-.066.315-.02 0-.178-.064-.352-.141-.248-.112-.31-.16-.292-.226.013-.046.03-.2.039-.343l.015-.26-.214-.105c-.3-.147-.331-.14-.331.074 0 .1-.014.25-.03.333-.024.12-.048.144-.12.12a92.6 92.6 0 0 1-1.655-.706c-1.518-.658-1.564-.674-1.59-.568a.38.38 0 0 1-.54.241l-.141-.07-.128.286-.128.285-.193-.027c-.193-.027-.96-.288-2.255-.767-.378-.14-1.055-.382-1.505-.54-.875-.305-1.04-.377-1.28-.557l-.155-.115V32.763l-1.173-.498c-9.332-3.964-16.508-6.309-21.49-7.023-1.916-.274-3.803-.34-5.47-.189-.827.075-1.68.188-1.72.228-.013.012.04.221.118.465.155.486.36 1.36.449 1.92l.057.359.26-.03c1.018-.116 1.613-.14 3.51-.143 2.5-.003 3.92.087 5.973.38 2.638.374 4.25.791 7.419 1.92l2.016.719v1.106c0 1.029.006 1.11.088 1.153a.537.537 0 0 1 .165.204c.073.148.077.092.078-1.089 0-.684.008-1.244.016-1.244s1.699.61 3.757 1.355c2.058.746 4.079 1.477 4.489 1.624l.746.268v.552c.001.444.016.563.076.613.055.045.097.049.154.013.063-.04.084-.153.103-.56l.024-.512.213.179c.292.244.502.336 1.897.833l2.271.81c.855.304 1.125.38 1.375.39.273.01.665.14 3.078 1.017 3.914 1.424 5.242 1.893 7.641 2.7 3.628 1.222 8.133 2.677 8.75 2.826.408.099.448.095.448-.04zm-13.035-.17c.178-.096.087-.379-.122-.379-.2 0-.282.21-.139.353.088.087.136.092.26.025zm-27.976-.854c0-.399.015-.52.063-.52.034 0 .85.041 1.813.092 3.009.158 3.055.16 3.055.107 0-.122-2.287-.507-4.135-.697-.384-.039-.72-.071-.747-.071-.031 0-.049-.261-.049-.73 0-.607-.012-.739-.075-.79-.054-.046-.097-.05-.154-.013-.067.042-.08.158-.092.768-.012.652-.02.717-.098.717a64 64 0 0 1-1.124-.07c-2.02-.136-3.16-.172-6.291-.2-3.104-.027-3.165-.025-3.165.064 0 .05.032.347.07.659.04.312.071.582.072.601 0 .02.056.014.123-.012.227-.086 1.363-.275 2.105-.349 1.087-.108 2.132-.169 3.697-.214 1.291-.038 1.847-.026 3.937.081l.64.033.013.522c.01.414.028.533.09.579.052.04.102.043.164.01.078-.042.088-.109.088-.567zm5.568.512c.061-.086.074-.271.074-1.046 0-.972-.026-1.124-.19-1.124s-.19.152-.19 1.155c0 .82.012.983.075 1.046.1.1.144.094.231-.03zm19.426-.115c.162-.147.051-.443-.166-.443-.127 0-.269.133-.269.252 0 .228.266.344.435.191zm15.31-.325c-.243-.264-.653-.889-.863-1.316-.087-.176-.18-.313-.207-.304-.029.01-.042.14-.033.32.013.252.048.359.198.613.347.59.443.693.743.797.381.133.384.13.162-.11zm-17.044.048c.152-.233-.05-.503-.325-.434-.147.037-.237.23-.18.381.079.206.383.238.505.053zm-4.513-.636c.12-.132.082-.375-.076-.492-.113-.085-.144-.088-.276-.033-.349.144-.26.616.115.616a.337.337 0 0 0 .237-.09zm11.948.062c.092-.036.099-.225.01-.298-.142-.118-.338.113-.217.258.063.076.096.082.207.04zm8.04-.183c.115-.065.098-.077-.626-.423-.41-.196-1.124-.531-1.588-.745a424.409 424.409 0 0 1-8.09-3.843c-2.17-1.06-4.112-2.002-6.357-3.083-1.197-.576-1.38-.651-1.44-.591-.06.06-.03.129.224.543.16.262.318.497.35.524.032.026.495.239 1.03.472 1.86.813 4.83 2.142 5.906 2.644 2.368 1.102 3.933 1.795 8.173 3.617 1.213.522 2.226.949 2.252.95.026 0 .101-.029.166-.065zm.069-.4a74.42 74.42 0 0 0-1.823-1c-5.962-3.219-7.995-4.482-13.416-8.338-.81-.577-.952-.695-.86-.716l.108-.026-.099-.126c-.054-.069-.323-.256-.596-.416l-.497-.29-1.305.032c-.717.018-1.304.05-1.304.07 0 .02.142.272.314.56l.315.526h.699v.58c.001.67.033.77.183.58.088-.113.101-.19.101-.617v-.487l2.288 1.268c2.253 1.248 3.538 1.966 6.673 3.726 1.88 1.055 2.922 1.625 3.603 1.97.58.293 5.608 2.74 5.64 2.744.011.002 0-.016-.024-.04zM46.62 40.9c.062-.088.064-.118.009-.2a.234.234 0 0 0-.172-.098.234.234 0 0 0-.171.097c-.055.083-.054.113.009.202.04.057.113.104.162.104.05 0 .123-.047.163-.104zm10.687-.39a14.59 14.59 0 0 0-.751-.462 478.735 478.735 0 0 1-2.245-1.337l-.588-.345-.439-.257v-2.972l-.195-.176c-.32-.29-.65-.413-1.2-.45-.42-.028-.517-.052-.815-.203-.45-.23-1.02-.665-1.408-1.076l-.317-.336v.515l.339.313c.186.172.485.41.663.53.226.15.326.246.326.313 0 .08.012.087.07.038.057-.047.101-.047.21-.002l.138.057-.185.168-.186.167v1.967l1.292.784c1.288.781 1.646.984 1.742.984.027 0 .14.057.25.127.11.07.905.529 1.766 1.02 1.414.809 1.566.885 1.58.792.009-.056-.013-.128-.047-.158zm-18.104.163c.057-.036.047-.046-.046-.046-.065 0-.24-.076-.389-.168-.245-.152-.33-.174-.878-.24a15.73 15.73 0 0 1-1.057-.162 23.541 23.541 0 0 0-2.063-.309 9.911 9.911 0 0 1-.83-.119 27.597 27.597 0 0 0-.995-.165c-.57-.083-1.464-.263-2.466-.498a18.096 18.096 0 0 0-1.27-.237c-1.129-.163-3.207-.697-3.68-.946-.384-.201-.61-.19-.696.035a.219.219 0 0 0 .025.226c.058.088.129.112.416.138.66.06 1.392.214 2.03.424.52.172.83.239 1.659.357a35.3 35.3 0 0 1 2.204.41c1.262.28 2.289.466 2.869.518.195.017.611.092.924.167.313.074.761.149.996.166.234.017.672.083.972.148.779.168 1.793.341 2.015.345a.616.616 0 0 0 .26-.044zm6.03-.03c.107-.098.11-.197.008-.31-.156-.172-.396-.08-.396.15 0 .228.214.316.388.16zm3.972-.275c.099-.12.04-.24-.116-.24-.098 0-.146.026-.158.085-.019.098.07.223.158.223.032 0 .085-.03.116-.068zm-19.247-.074c.195-.195.034-.569-.245-.569-.124 0-.324.21-.324.339 0 .27.377.422.57.23zm27.604-.027c.015-.014-.077-.281-.203-.592a23.64 23.64 0 0 1-.498-1.408l-.33-1.03c-.059-.18-.063-.158-.066.378-.004.562 0 .579.23 1.257.33.97.446 1.215.63 1.328.166.1.196.109.237.067zm-15.61-.459c.065-.117.065-.143 0-.26-.18-.32-.683-.084-.513.24.076.144.137.177.3.163a.252.252 0 0 0 .213-.143zm5.809-.012c0-.118-.02-.144-.126-.156-.094-.011-.135.01-.158.085-.04.127.056.246.185.228.075-.011.099-.049.099-.157zm-1.076-.222c.1-.1.067-.273-.064-.332-.103-.047-.135-.04-.222.046-.087.087-.093.119-.046.222.06.13.232.164.332.064zm-24.606-.055c.152-.084.293-.312.293-.474 0-.2-.136-.452-.288-.53a.587.587 0 0 0-.686.084c-.4.37-.161.982.382.981a.754.754 0 0 0 .299-.061zm34.131-3.19c-.008-.008-.077.003-.154.023l-.14.038-.013 1.478-.012 1.479.154.094.155.094.013-1.595c.007-.878.006-1.602-.003-1.61zM39.68 39.4c.125-.101.147-.353.04-.457-.136-.134-.313-.137-.443-.008-.157.157-.156.328.004.454.154.121.26.124.4.01zm5.7-.25c.068-.107.004-.315-.108-.35-.231-.074-.401.137-.285.354.065.121.317.12.394-.003zm-7.883-.327c.128-.128.119-.311-.022-.452-.142-.142-.258-.147-.422-.018-.242.19-.104.565.206.565a.381.381 0 0 0 .238-.095zm6.283-.163c.17-.17.07-.405-.172-.405-.273 0-.344.329-.102.47.12.07.146.064.274-.065zm11.19-.275a6.02 6.02 0 0 0 .44-.572c.18-.27.219-.37.235-.596.034-.47.004-.49-.2-.124-.262.473-.608.965-.83 1.182l-.191.187.13.086a.645.645 0 0 0 .16.085c.017 0 .132-.111.256-.248zm-20.398-.138c.138-.072.173-.132.174-.297.002-.311-.372-.432-.568-.184-.118.15-.097.325.054.453.115.097.197.104.34.028zm7.499-.057c.054-.04.088-.123.088-.22 0-.267-.298-.382-.49-.19-.259.26.103.628.402.41zm-2.187-.65a.31.31 0 0 0 .03-.47c-.195-.196-.521-.05-.521.233 0 .139.18.335.308.335a.46.46 0 0 0 .183-.098zm-21.152-.557c.03-.03.043-.056.026-.056-.016 0-.538-.105-1.159-.233-1.017-.21-1.283-.244-2.67-.354l-2.276-.18c-.826-.067-5.003-.084-5.504-.024l-.312.038.032.21c.037.242.14.373.39.5.21.108.283.11.542.02.274-.095 1.368-.248 2.244-.313.7-.052.83-.046 2.68.116 1.735.153 3.408.282 4.29.332.626.036 1.659.002 1.717-.056zm18.928-.085c.107-.041.221-.28.185-.383-.058-.163-.173-.252-.325-.252a.317.317 0 0 0-.285.473c.092.177.239.233.425.162zm12.826-.315v-.201l-.685-.427-.685-.427-.008-.71c-.034-3.336-.029-3.203-.145-3.327-.193-.206-.646-.39-1.069-.437-.63-.069-1.232-.438-2.145-1.314-.25-.24-.603-.618-.785-.84l-.332-.406-.015.238c-.012.198.008.267.115.412.254.342 1.347 1.379 1.752 1.661.333.232.396.294.324.319-.175.06-.565.251-.646.317-.072.058-.084.184-.095 1.039l-.013.972-.735-.518c-.653-.46-1.575-.985-1.731-.985-.098 0-.022.223.136.398.151.167 1.466 1.071 3.492 2.4 1.175.771 3.175 2.029 3.236 2.034.02.002.035-.087.034-.198zm-26.988-.027c.089-.056.245-.55.2-.63-.022-.039-.153-.122-.291-.185a7.844 7.844 0 0 1-.27-.125c-.01-.007.06-.103.157-.215.095-.112.248-.351.338-.532.194-.388.244-.455.343-.455.146 0 .246-.148.246-.365 0-.268-.086-.612-.17-.682-.076-.063-.073-.065-.586.353-.315.256-.335.283-.266.359.107.118.092.232-.066.507a1.412 1.412 0 0 1-.782.655c-.237.075-.266.075-.405.003-.1-.052-.141-.101-.123-.15a.552.552 0 0 0 .028-.164c0-.05.104-.193.23-.316.393-.38.718-1.194.718-1.796 0-.225.01-.253.1-.253.172 0 .423-.15.5-.297.156-.303.047-.675-.238-.81-.246-.118-.488-.087-.657.082-.066.065-.091.063-.255-.02-.298-.152-.65-.126-1.06.079-.451.226-.558.443-.343.694.102.118.314.102.528-.04.23-.152.512-.196.642-.1.181.137.147.911-.064 1.465l-.05.127-.163-.163c-.09-.09-.186-.163-.214-.163-.058 0-.058 0-.266.92-.146.646-.155.668-.28.683-.094.011-.164-.025-.272-.14-.163-.174-.472-.763-.566-1.077-.06-.196-.057-.21.049-.29.122-.093.123-.081-.07-.594-.12-.319-.233-.498-.313-.498-.084 0-.294.348-.402.666-.15.445-.146.54.028.669.078.058.142.142.142.187 0 .076.135.533.213.718.03.073.004.083-.226.083-.294 0-.32.022-.43.353-.077.228-.076.236.024.343.15.159.585.307.948.322.258.01.346.037.484.142.246.188.702.32 1.15.335.267.009.424.038.51.093.299.197 1.074.334 1.25.222zm32.278-.396l.448-.102v-.342c0-.254-.02-.358-.075-.404-.125-.104-.23.005-.257.268l-.024.231-.26.062c-.331.08-1.342.045-1.707-.057-.347-.097-.34-.1-.323.104l.015.177.379.08c.554.115 1.26.109 1.804-.017zM24.4 35.261l.013-.836-.167.157-.167.158v.659c0 .362.015.674.034.693.019.018.088.027.154.02l.12-.015.013-.836zm10.569.71c.138-.13.14-.309.007-.451-.13-.138-.31-.14-.451-.007-.138.13-.14.308-.007.45.13.139.308.141.45.008zm5.221-.618c.011-.1-.263-.58-1.19-2.086-2.66-4.326-3.196-5.28-5.32-9.473a461.469 461.469 0 0 0-2.3-4.48c-1.751-3.342-3.419-6.85-4.235-8.912l-.15-.38-.013.727c-.013.726-.013.727.158 1.228.534 1.562 2.334 5.225 4.668 9.498.286.524.52.96.52.97 0 .016.46.816 2.147 3.744 1.941 3.366 4.307 7.392 5.05 8.595.374.604.466.723.55.711.07-.01.105-.054.115-.142zm-.609.021a.34.34 0 0 0-.064-.118c-.092-.12-1.233-.124-1.365-.005-.048.043-.087.097-.087.119 0 .022.342.04.759.04s.758-.016.757-.036zm-1.693-.198c.123-.174.13-.213.13-.71v-.526h.314c.387 0 .39.027-.084-.788l-.348-.599-.664.03a48.96 48.96 0 0 1-1.719.03c-.58 0-1.054.016-1.054.035 0 .02.115.085.255.146.239.103.302.108 1.09.094l.835-.015v2.134l.486.175c.267.096.518.175.557.176.04.001.13-.08.202-.182zm15.262-2.009l-.138-.137.022.775c.02.72.03.781.124.864l.103.088.013-.726.013-.727-.137-.137zm-34.315 1.457c.052-.135.033-3.575-.02-3.674-.055-.103-.188-.12-.273-.035-.04.04-.057.308-.057.901 0 .464-.008.844-.018.844-.009 0-.277-.053-.595-.118-1.052-.214-2.154-.35-3.865-.475-.819-.06-1.562-.168-4.22-.612-2.088-.35-3.316-.575-3.481-.64-.14-.057-.265-.093-.277-.08-.024.024.12.972.158 1.033.065.106.326.17.8.198.528.03.61.046 1.589.307.834.223 1.266.265 2.02.197.74-.067 1.057-.042 1.831.147.95.232 2.492.424 4.54.566.43.03.953.079 1.162.109l.38.056.012.616c.007.339.022.643.034.675.031.086.246.074.28-.015zm-11.587-.261c.196-.026 1.105-.042 2.02-.036 1.51.01 1.677.004 1.79-.07.146-.096.165-.267.042-.376-.13-.117-1.049-.196-2.264-.196-.91 0-2.28.079-2.336.134-.008.008.01.159.04.334l.056.318.148-.03c.082-.017.309-.052.504-.078zm45.515-.708v-.76l-.13-.056c-.076-.032-.38-.057-.723-.058-.524-.002-.616.01-.789.102-.317.17-.444.356-.444.652 0 .216.017.263.117.329a.602.602 0 0 0 .142.076c.014 0 .025-.135.025-.3 0-.339.042-.4.358-.534.188-.08.954-.111 1.063-.044.03.018.049.27.049.64v.61l.13.047c.072.026.147.05.166.052.02.002.036-.339.036-.756zm-18.68-1.639v-.454l-.154.01a1.035 1.035 0 0 1-.285-.024l-.13-.036.107-.083a.784.784 0 0 1 .284-.115c.123-.023.178-.058.178-.114 0-.062-.408-.242-1.768-.78-.973-.385-1.783-.7-1.802-.7-.018 0-.033.073-.033.161 0 .157.01.165.39.32l.392.16-.276.014c-.307.016-.673-.096-.742-.226a.584.584 0 0 1-.017-.268c.02-.142.005-.212-.056-.273-.075-.075-.089-.075-.165-.006a.533.533 0 0 0-.114.262l-.03.187-.32-.122c-.599-.23-.714-.262-.896-.247-.14.012-.181.035-.181.104 0 .07.123.137.569.311.83.325.8.303.483.333l-.276.025 1.319.539 1.318.538.324-.026c.432-.035.543.01.562.232.013.143.04.183.17.237l.153.064v-.169c0-.14.014-.163.083-.138.652.241.628.225.628.433 0 .166.018.2.13.244l.143.056c.007.003.012-.199.012-.449zm10.288-2.512v-2.492l-.249-.249c-.393-.392-1.046-.643-1.682-.645-.278 0-.578-.16-1.245-.659-.592-.443-2.132-1.989-2.84-2.85l-.097-.119-.001.27-.002.269.462.512c.858.951 1.778 1.803 2.567 2.379.324.236.382.296.309.32-.28.096-.59.262-.744.397-.175.153-.176.156-.176.528 0 .34-.04.453-.118.328a.403.403 0 0 0-.126-.1c-.091-.048-.095-.042-.063.107.044.21.07.237.504.543l.372.262v1.099c0 1.097 0 1.1.117 1.241l.117.142.001-.136c.002-.125.01-.13.094-.07.05.035.436.316.858.624.827.606.874.634.92.557.059-.093.38-.05.667.089.156.076.3.14.32.142.02.002.035-1.118.035-2.489zm-7.6 1.834l.39-.03-.3-.512a8.09 8.09 0 0 0-.343-.556c-.026-.026-.769-.02-1.88.013-1.009.03-1.82.07-1.8.086.02.017.345.154.723.304s.715.294.747.32c.033.027.06.144.06.26v.21l1.007-.033a47.279 47.279 0 0 0 1.396-.062zm12.341-.897v-.797l-.158-.153-.158-.153.022.864c.022.808.03.87.123.949a.418.418 0 0 0 .136.085c.02.001.035-.357.035-.795zm-2.824.555a.383.383 0 0 0-.118-.092c-.083-.044-.092-.033-.092.12v.169l.118-.078c.065-.042.107-.096.092-.12zm2.255-.946v-.856l-.154-.064c-.238-.099-.87-.18-1.142-.145-.466.059-.74.163-.96.365-.236.218-.254.293-.106.45.136.145.181.139.181-.024 0-.345.638-.584 1.356-.507l.304.032V30.794l.178.05c.368.103.343.16.343-.794zM28.6 29.446c.316-.012.425.006.705.116.323.127.334.128.398.04a.334.334 0 0 0 .065-.142c0-.044-1.99-.877-2.093-.877-.017 0-.08.117-.14.26-.118.288-.093.283-.516.119-.206-.08-.219-.096-.356-.468l-.142-.386-.611-.238c-.336-.13-.621-.228-.633-.216-.012.011-.007.088.01.169.026.115.075.164.219.222.102.04.188.093.191.116.003.023.009.233.012.465.003.233.02.437.036.453.017.017.28.126.586.241.466.177.608.211.89.211.46 0 .651.073.651.249 0 .107.032.148.154.2l.154.065.024-.293.024-.292.372-.014zm11.587-.685c-.012-.721-.04-1.168-.08-1.29l-.06-.188-.065.117c-.049.088-.065.387-.066 1.262-.001 1.053.005 1.148.081 1.168.216.056.21.093.19-1.07zm.57-.378a.781.781 0 0 0-.19-.13c-.02-.002-.036.231-.036.516v.518l.178.147.177.146.014-.534.013-.534-.155-.13zm-8.62.865c3.583-.189 3.653-.194 3.653-.282a.317.317 0 0 0-.06-.115c-.054-.074-.118-.077-.723-.034-.365.026-1.186.07-1.825.098-.639.029-1.46.072-1.825.096-.365.025-.872.045-1.126.045-.254 0-.463.02-.463.042 0 .038.442.233.543.24.025.002.846-.039 1.825-.09zm7.209-.76v-.664h-.901v1.328h.9v-.664zm-9.453.332h.35v-1.162l-.415.031c-.228.018-.463.034-.522.036-.104.004-.106.017-.106.542 0 .295.015.553.035.572.02.02.097.023.172.008.075-.015.294-.027.486-.027zm-4.866-.119c0-.139 0-.14.221-.047.094.039.178.071.188.071.01 0 .018-.082.018-.182 0-.17-.012-.186-.188-.244-.175-.058-.19-.077-.217-.28-.069-.513-.19-.605-.303-.23-.048.16-.092.225-.153.225-.047 0-.377-.106-.732-.236-.497-.18-.668-.224-.736-.188-.049.026-.089.064-.089.085 0 .099.217.244.541.363.329.12.36.142.36.26 0 .122.032.142.51.32.28.106.525.194.545.197.02.002.035-.049.035-.114zm11.974.001c.172-.065.373-.16.448-.214.21-.15.438-.465.528-.73l.081-.242.277-.03c.151-.017.515-.033.808-.036l.532-.005.076-.148.077-.148-.905.035-.905.035V19.688l-.145-.196c-.307-.418-.945-.766-1.69-.922-.488-.102-1.53-.14-1.962-.07l-.218.035-.57-.535c-.94-.88-1.483-1.536-2.442-2.953-1.343-1.983-2.722-4.579-3.81-7.176l-.186-.443-.013.614-.013.614.598 1.252c1.247 2.607 1.794 3.64 2.44 4.606 1.304 1.95 2.513 3.284 3.53 3.897l.261.157-.213.054c-.492.123-1.036.475-1.186.766-.05.095-.07.29-.07.658v.522l1.262 2.502a297.316 297.316 0 0 0 1.64 3.213c.663 1.251 1.383 2.537 1.421 2.537.02 0 .177-.053.349-.118zm-5.395.04l.39-.031v-1.177l-.461.03a5.785 5.785 0 0 0-.522.049c-.043.014-.06.174-.06.589v.57h.131c.072 0 .307-.014.522-.03zm-4.257-.109a.412.412 0 0 0 .049-.135c0-.035-.471-.247-.547-.247-.01 0 .006.066.034.147.044.126.277.326.38.327.02 0 .057-.041.084-.092zm5.501-1.143c0-.792-.016-1.179-.048-1.159a.802.802 0 0 0-.142.214c-.085.167-.094.28-.094 1.159v.974h.284V27.49zm-4.362.713v-.426h-.201c-.11 0-.347.014-.524.03l-.322.031.014.188.014.188.498.204.51.208a3.73 3.73 0 0 0 .011-.423zm-5.6-.282c-.084-.113-.12-.13-.191-.093-.121.065-.11.111.043.172.225.089.259.07.148-.079zm3.855-4.833l-.016-4.83.276-.033c.152-.018.34-.06.419-.092l.142-.06-.285-.107c-.523-.2-1.268-.184-1.778.036l-.165.072.19.058c.104.032.304.074.445.093l.256.035-.035 4.712-.034 4.712.252.115c.14.063.274.116.3.117.032.002.043-1.623.033-4.828zm7.136 2.575c-.66-1.145-1.279-2.22-1.375-2.39l-.174-.308v1.41l-.001 1.41h.31c.353 0 .329-.027.443.51l.076.361.949.555c.521.305.953.55.96.544.007-.006-.528-.947-1.188-2.092zm-11.302 1.941c.016-.016-.033-.11-.11-.206-.243-.307-1.233-.595-1.233-.358 0 .11.169.21.665.398.508.19.624.22.678.166zm1.998-.092c.045-.068.074-.128.065-.135a26.181 26.181 0 0 0-1.284-.501c-.02 0-.035.085-.035.19 0 .148.018.19.083.191.045.002.296.086.557.188.26.102.487.186.504.187.016.002.066-.053.11-.12zm-1.56-.182c.048-.075.069-.193.06-.343-.02-.303-.14-.324-.363-.063l-.157.185.134.168c.158.198.223.209.325.053zm-1.918-.02c-.094-.174-.167-.201-.364-.133l-.184.063.213.075c.3.106.393.105.335-.004zm-.738-.19c-.023-.073.01-.1.187-.149.118-.033.214-.07.214-.084 0-.013-.073-.126-.163-.25-.131-.184-.151-.238-.1-.28a.384.384 0 0 0 .09-.181 4.61 4.61 0 0 1 .058-.231c.032-.111.052-.1-.963-.47l-.439-.16v.362l.628.228c.346.125.635.232.643.237.036.028-.158.355-.21.355a5.8 5.8 0 0 1-.596-.19c-.295-.104-.572-.189-.616-.19-.135 0-.14.08-.014.23.089.105.236.181.558.29.539.18.6.214.52.294-.115.114-.04.21.216.273.009.002.003-.036-.013-.084zm5.083-.032l.486-.033v-.208c0-.247.092-.234-.995-.137-.43.039-.836.072-.901.075-.1.003-.084.02.095.102.345.16.682.27.758.251.04-.01.29-.033.557-.05zm4.35-.356c1.33-.106 2.46-.202 2.513-.212.052-.011.143-.11.202-.223.128-.244.13-.27.023-.247-.045.01-.36.04-.7.067-1.385.11-4.514.384-4.657.407-.147.023-.154.034-.154.236v.212l.177-.024c.098-.013 1.266-.11 2.596-.216zm-7.235-.017l.107-.113-.466-.178c-.256-.098-.644-.25-.863-.34-.218-.088-.402-.154-.41-.147a2.413 2.413 0 0 0-.084.258c-.071.24-.07.246.05.415.139.195.249.223.249.062a.35.35 0 0 1 .059-.185c.053-.068.112-.055.58.128.288.112.556.206.597.209.041.002.123-.046.181-.109zm-3.598-.04c0-.033-.052-.124-.115-.202-.087-.107-.129-.129-.17-.088-.092.09-.036.27.095.307.176.048.19.047.19-.017zm25.412-1.128v-1.044l-.142.074-.142.073v1.745l.125.098a.814.814 0 0 0 .142.099c.01 0 .017-.47.017-1.045zm-3.53.778c.167-.11.156-.303-.026-.437l-.142-.105v.31c0 .17.011.309.025.309a.602.602 0 0 0 .143-.077zm-22.285-.161c.017-.027-.011-.105-.062-.174-.075-.104-.253-.177-1.027-.423-.891-.282-1.07-.314-1.067-.191.005.173.208.28 1.05.55.893.286 1.055.321 1.106.238zm25.3-1.797c.075.04.13.04.218 0 .102-.047.109-.064.053-.131-.102-.124-.599-.338-.978-.423-.503-.111-1.398-.074-1.785.075-.371.144-.69.436-.69.632 0 .136.153.365.244.365.022 0 .04-.093.04-.205 0-.152.027-.232.107-.306.29-.273.984-.414 1.67-.34.21.021.406.04.439.042.045.002.06.224.06.945v.941l.248.095.25.095.012-.92c.013-.917.013-.918.113-.865zM16.35 25.869c-.001-.153-.159-.342-.254-.306-.11.043-.106.35.006.38.192.05.25.032.248-.074zm2.618-.19c.029-.286-.02-.482-.124-.502-.112-.022-.156.053-.194.331-.025.178-.013.25.056.341.123.164.237.09.262-.17zm2.526.071c1.156-2.908 2.803-8.14 4.19-13.31.315-1.18.33-1.262.355-1.897.013-.365.007-.631-.014-.592-.022.039-.236.732-.476 1.54-1.082 3.647-2.731 8.735-3.595 11.094a90.655 90.655 0 0 1-1.13 2.904c-.015.033.006.06.047.06s.092.03.113.068c.038.068.32.21.423.214.03.001.07-.035.087-.081zm-7.608-.48a.505.505 0 0 0-.1-.262c-.129-.164-.232-.091-.232.164 0 .15.018.184.107.2.21.041.225.035.225-.102zm2.07.061c.064-.166-.172-.286-.96-.488-.836-.214-1.004-.233-1.047-.12-.058.15.146.248.956.46.91.24 1.01.254 1.051.148zm2.482-.031c0-.033.012-.103.026-.155.023-.086-.062-.124-.9-.401-.508-.168-.934-.296-.947-.284-.012.012-.007.093.01.179.032.155.04.159.838.432.866.295.972.32.973.229zm-2.08-.553c.002-.221-.017-.32-.076-.377-.074-.072-.086-.07-.171.034-.125.152-.12.45.01.632.145.204.23.1.236-.29zm-11.868.207c.008-.007-.019-.125-.06-.263a2.777 2.777 0 0 1-.074-.283c0-.019.25-.06.557-.094.307-.033.595-.079.64-.102.118-.06.103-.154-.038-.23-.1-.053-.209-.054-.63-.007-.695.077-.66.083-.717-.121-.038-.136-.1-.209-.263-.307-.117-.07-.213-.115-.213-.099 0 .017.098.341.217.722l.24.772c.018.064.056.075.174.053a.965.965 0 0 0 .167-.041zm6.93-.11c0-.167-.166-.392-.262-.355-.046.018-.07.095-.07.232 0 .174.016.208.107.225.211.04.225.034.225-.102zm-5.215-.201c0-.103-.044-.188-.147-.284-.08-.076-.166-.126-.19-.111-.05.03-.054.185-.013.394.027.13.049.148.19.148.147 0 .16-.012.16-.147zm7.256.073c.051-.061.046-.09-.033-.168-.072-.072-.286-.13-.868-.235-.887-.16-1.01-.167-1.094-.066-.128.154.07.24.879.376.417.071.767.137.778.148.051.049.284.011.338-.055zm-4.506-.138c0-.123-.03-.185-.116-.241-.155-.102-.216-.054-.216.168 0 .185.035.218.249.232.064.004.083-.032.083-.16zm4.872-.112c.083-.052.094-.596.014-.692-.093-.112-.143-.091-.218.09-.09.213-.088.404.005.536.08.114.108.124.199.066zm1.997-.087c.046-.1.045-.133-.004-.164-.072-.045-1.653-.433-1.675-.411a.53.53 0 0 0 .018.178l.034.163.686.176c.845.216.869.218.941.058zm-4.88-.052l.103-.084-.11-.102c-.095-.089-.218-.112-.98-.182-.852-.079-.872-.078-.962.01-.089.09-.089.094-.002.172.067.06.277.098.867.152.428.04.81.08.85.09.038.009.084.02.1.022.017.003.077-.032.134-.078zm-2.44-.2c.017-.027-.03-.1-.103-.165-.133-.117-.139-.117-1.13-.119-.84-.001-1.014.01-1.106.075-.103.072-.104.08-.027.166.076.083.162.09 1.21.09.699 0 1.138-.018 1.157-.048zm2.825-.097c.129-.07.13-.47.001-.587-.085-.077-.093-.076-.166.027a.59.59 0 0 0-.026.517c.056.106.068.109.19.043zm2.031-.197c.04-.112.039-.16 0-.184-.055-.033-1.522-.281-1.665-.281-.065 0-.069.024-.025.166.028.09.063.167.078.17.044.006 1.494.265 1.529.273.017.004.054-.061.083-.144zm-7.388-.31c-.06-.219-.235-.465-.291-.408-.104.106-.067.563.055.685.1.1.1.1.194.006.081-.081.087-.116.042-.283zm2.888.053c0-.271-.158-.5-.289-.42-.078.05-.05.552.036.647.074.081.085.082.166.008.051-.046.087-.144.087-.235zm2.004-.054a1.85 1.85 0 0 1 .057-.162c.024-.06 0-.085-.102-.106-.201-.04-1.775-.18-1.796-.16-.01.01.007.088.039.172.067.177.03.167.96.257l.765.075c.03.004.064-.03.077-.076zm-5.766-.202c.232 0 .247-.008.297-.15.028-.082.043-.159.031-.17-.035-.035-1.516.131-1.56.175-.024.024.016.075.094.119.106.06.218.071.515.052.208-.014.489-.025.623-.026zm3.183-.106l.04-.155-.287-.03c-.375-.039-2.018-.05-2.018-.012 0 .015.043.09.097.164l.097.137.673.014c.37.008.827.02 1.016.025l.342.01.04-.154zm-1.953-.51h.25l4.33-3.613c5.875-4.903 10.956-9.16 13.254-11.104l1.908-1.615v-.707l-.154.143c-3.01 2.806-10.474 8.847-19.26 15.59-.913.7-1.681 1.293-1.707 1.319-.031.03.157.036.54.017.324-.017.701-.03.84-.03zm31.525-6.588l-.167-.167v2.981l.154.16.154.158.013-1.483.012-1.482-.166-.167zm-5.192 2.325c0-.3-.01-.326-.166-.478l-.166-.161v1.209l.166-.127c.16-.122.166-.137.166-.443zm4.551-1.104c0-1.003.013-1.277.057-1.233.098.098.133.064.133-.131 0-.17-.018-.198-.178-.28-.618-.313-1.487-.456-2.557-.42-1.048.036-1.654.223-2.122.653-.28.26-.294.45-.05.733l.164.19v-.288c.001-.251.018-.303.132-.412.157-.15.55-.335.936-.44.573-.155 1.955-.14 2.596.03l.178.047v2.588l.201.06c.111.033.255.09.32.125a.655.655 0 0 0 .154.066c.02 0 .036-.579.036-1.288zm-11.372.293c.423-.094 1.182-.042 1.546.106l.296.12V16.41l-.239-.103a3.861 3.861 0 0 0-.618-.179c-.343-.069-.414-.069-.745-.004-.202.04-.479.12-.615.18l-.248.106v1.46l.178-.09c.098-.05.298-.117.445-.15zm.873-6.103c-.01-2.367-.02-5.247-.023-6.4l-.003-2.099h-.332l-.001.676c-.003 1.328-.045 6.98-.072 9.53l-.027 2.595h.477l-.02-4.302z"/></svg>