<svg xmlns="http://www.w3.org/2000/svg" width="64pt" height="64pt" viewBox="0 0 64 64"><path d="M30.21 63.531a32.463 32.463 0 0 1-17.3-6.277c-1.746-1.293-4.101-3.492-5.394-5.035-3.188-3.801-5.356-7.992-6.532-12.61-1.398-5.515-1.304-11.129.27-16.625C2.28 19.41 4.102 15.79 6.39 12.777c1.73-2.28 4.21-4.734 6.52-6.441 10.257-7.598 24.206-8.438 35.35-2.113 2.505 1.422 4.528 2.96 6.704 5.113 1.316 1.3 2.11 2.191 3.035 3.406 5.816 7.653 7.813 17.512 5.434 26.863-1.168 4.598-3.352 8.813-6.532 12.614-1.289 1.539-3.699 3.793-5.425 5.062-6.094 4.496-13.61 6.707-21.266 6.25zm3.778-5.5c.547-.14.684-.152.957-.093.18.035.457.082.614.105.164.02.343.07.398.098.078.039.18.015.332-.075.281-.164 1.422-.343 1.594-.25.164.086.402.079.758-.023.867-.262 1.586-.281 2.222-.066.356.117.578.093 1.043-.125.223-.102.364-.22.446-.368.113-.203.156-.226.535-.293.468-.078 1.07-.34 1.61-.699.355-.238.41-.254.972-.285.41-.023.633-.066.71-.133a.694.694 0 0 1 .653-.12c.148.054.207.05.262-.02.129-.149.508-.29 1.039-.383.715-.121.96-.254 1.12-.582.09-.18.169-.274.259-.274.156-.004.742-.265 1.004-.449.101-.07.28-.164.398-.203a1.65 1.65 0 0 0 .402-.223c.168-.14.227-.152.547-.113.637.078.668.074.754-.098.04-.082.192-.261.328-.394l.25-.242.336.078c.258.058.352.058.41 0 .059-.059.043-.11-.066-.219-.125-.121-.168-.133-.352-.062l-.207.074.153-.125c.086-.07.43-.282.773-.469.34-.191.735-.46.875-.605.188-.192.305-.258.45-.258.257 0 .722-.278 1.343-.79.336-.285.559-.421.672-.421.094 0 .29-.07.445-.16.29-.168.403-.38.309-.586a.48.48 0 0 1-.035-.184c.004-.039-.035-.105-.086-.152-.082-.063-.133-.043-.285.12-.106.11-.23.2-.285.2-.211 0-1.395.645-1.528.832-.164.223-.367.332-.816.438-.184.043-.406.14-.496.222a.902.902 0 0 1-.395.188c-.172.031-.375.18-.797.574-.531.492-.59.531-.914.578-.418.055-.722.2-1.289.602-.226.164-.488.316-.582.343-.09.02-.281.125-.418.235-.222.16-.46.3-.703.426-.41.207-.516.23-1.145.27l-.69.034-.224.258c-.375.434-.734.547-1.937.602-1.207.058-1.434.113-1.797.437-.348.313-.535.406-.723.36-.109-.028-.218.003-.343.093-.121.094-.352.157-.688.2a7.08 7.08 0 0 0-.797.148c-.261.078-.308.074-.547-.055-.222-.117-.363-.136-.972-.133-.645.004-.75.02-1.207.204-.535.218-.914.257-1.11.117-.086-.055-.191-.07-.351-.035-.461.097-1.082.125-1.68.07-.555-.05-.66-.04-1.098.094-.414.125-.593.144-1.191.125-.648-.02-.77-.051-1.41-.29-.738-.277-1.293-.347-1.578-.195-.098.047-.176.051-.262.004-.16-.086-.516-.086-.875.008-.379.09-.59.031-.738-.219-.106-.172-.164-.199-.336-.187-.149.011-.387-.067-.762-.25-.46-.223-.625-.266-1.02-.285-.515-.028-.597-.059-1.081-.414-.176-.137-.356-.247-.391-.247-.04 0-.176-.086-.309-.191-.207-.164-.3-.191-.64-.195-.547-.012-.696-.067-.844-.309a4.22 4.22 0 0 0-.363-.473l-.239-.265h-.957c-1.039 0-1.164-.031-1.414-.38-.27-.366-.906-.98-1.039-1.003a.826.826 0 0 1-.32-.184 3.82 3.82 0 0 0-.371-.277c-.23-.133-.313-.25-.352-.504-.043-.222-.277-.312-.691-.25-.25.035-.297.016-.598-.242a3.618 3.618 0 0 1-.496-.512c-.133-.187-.207-.242-.371-.242a.743.743 0 0 1-.36-.11c-.19-.128-.835-.804-.835-.87 0-.137-.313-.442-.664-.641l-.395-.23-1.082 1.07c-.973.957-1.074 1.078-.973 1.152.11.059.23.098.356.117.308.051.504.246.648.645.164.441.297.543.79.59.593.066.831.242 1.34 1.004.226.343.554.742.722.886l.308.27h.79c.558 0 .816.023.863.082l.238.285c.102.125.399.328.73.492.36.18.63.36.75.512l.192.23.355-.074c.36-.082.633-.023.633.125 0 .156.223.254.559.254.289 0 .41.043.683.215l.618.383c.156.097.336.273.41.394.105.176.172.22.332.22.215 0 .305.038.906.405.512.309.742.344 1.07.172.383-.195.524-.168.91.156.258.211.395.286.551.286.133 0 .332.07.485.175.27.172.277.172 1.379.172h1.109l.305.219c.422.297.75.32 1.441.105.695-.218.992-.214 1.5.028.504.234.75.238 1.578.023zm6.461-5.617c.074-.043.059-.07-.062-.137a3.61 3.61 0 0 1-.485-.324c-.18-.137-.367-.242-.418-.246-.199-.004-.636-.258-1.129-.648-.57-.461-.968-.688-1.21-.688-.114 0-.512-.289-1.34-.965-1.356-1.117-2.61-2.324-3.227-3.113-.394-.5-.426-.57-.371-.723.11-.28.078-.535-.086-.687-.082-.074-.3-.469-.484-.875a13.804 13.804 0 0 0-.559-1.098c-.398-.664-.504-1.305-.25-1.512.063-.054.094-.218.094-.562 0-.59-.09-.941-.297-1.156-.297-.309-.277-1.567.047-2.825.11-.433.176-.554.43-.828.168-.175.441-.492.605-.699.438-.555.691-.703 1.176-.7.265 0 .445.044.566.118.168.11.196.11.485.012.285-.094.312-.094.46.015.301.223.407.536.465 1.395.059.957.098 1.156.254 1.324.157.172.223.36.317.922.074.43.105.5.351.734.262.25.278.286.305.704.027.308.09.543.215.789.258.5 1.11 1.562 1.597 1.984.227.195.45.441.489.547.054.125.164.219.328.281.254.102.332.234.418.754.05.313.164.445.422.496.168.031.23.086.289.258.12.344.433.652 1.004.988.297.172.64.403.765.512.13.11.418.289.653.394.226.106.68.348 1 .536.32.191.714.386.87.43.157.046.446.156.641.238.196.086.61.195.918.246.39.058.668.144.907.28.636.36.793.388 3.125.599.175.015.308-.141.25-.297-.028-.067-.114-.106-.25-.106-.11 0-.524-.058-.907-.133-.39-.07-.812-.12-.941-.105-.18.023-.352-.027-.738-.219-.774-.379-1.149-.511-1.457-.504-.336.004-.551-.082-1.102-.433-.371-.239-.45-.27-.703-.239-.254.028-.324.004-.613-.21-.176-.137-.66-.438-1.067-.668-.972-.563-1.039-.61-1.125-.864-.047-.156-.18-.285-.449-.472-.207-.141-.402-.301-.43-.352a9.596 9.596 0 0 1-.222-.45c-.094-.194-.414-.683-.715-1.081-.602-.797-.762-1.059-.828-1.395-.04-.168-.2-.367-.68-.828-.688-.66-.836-.883-.836-1.258 0-.16-.043-.285-.121-.355-.41-.367-.848-2.285-.75-3.285.023-.282-.004-.672-.09-1.207a43.234 43.234 0 0 1-.238-1.72c-.078-.636-.145-.944-.211-1-.137-.108-.555-.1-.652.017-.11.132-.278.117-.579-.036-.289-.14-.457-.16-.57-.05-.039.043-.289.082-.574.086-.3.003-.781.074-1.195.18-.82.202-1.094.21-1.329.046-.097-.066-.476-.238-.835-.375l-.66-.254-.169.153a1.29 1.29 0 0 1-.41.23c-.218.063-.281.05-.59-.098-.187-.093-.597-.398-.914-.675-.312-.282-.59-.512-.62-.512-.028 0-.067-.098-.087-.219-.054-.262-.343-.586-.578-.644-.117-.028-.281.003-.496.093-.234.102-.351.121-.437.075-.149-.079-.47-.438-.625-.692a1.01 1.01 0 0 0-.297-.293c-.219-.129-.356-.375-.414-.73-.024-.145-.055-.262-.067-.262-.05 0-2.316 1.039-2.367 1.082-.031.027.031.18.145.34.109.156.199.36.199.445 0 .219-.336.59-.621.68-.172.058-.293.172-.512.515-.293.454-.512.606-.75.528-.086-.028-.156.004-.219.094-.054.07-.383.332-.726.57-.715.504-1.004.8-1.09 1.117-.04.121-.192.387-.352.59-.777 1.008-1.277 1.926-1.422 2.629a3.403 3.403 0 0 1-.257.715c-.192.351-.262.691-.356 1.687-.039.39-.098.766-.137.836a.544.544 0 0 0-.03.305c.019.101-.009.355-.067.574-.121.469-.121.7-.004.906.082.145.074.172-.074.332-.164.168-.164.188-.094.535.039.2.07.559.07.797 0 .473.133.875.317.989.113.07.132.05.195-.204.098-.386.09-.886-.027-1.156-.09-.215-.09-.242.015-.355.117-.125.13-.317.09-1.477a3.63 3.63 0 0 1 .09-.89c.055-.247.133-.66.172-.926.039-.309.172-.73.37-1.203.173-.407.36-.957.411-1.227.078-.367.223-.726.59-1.422.265-.515.484-.969.484-1.011 0-.043.11-.165.246-.262a20.05 20.05 0 0 0 1.047-.946c1.281-1.218 1.68-1.437 2.711-1.476.602-.024.742-.008 1.184.137.277.086.531.16.57.16.035 0 .156.094.27.21.113.118.378.274.585.352.211.078.493.215.625.301.22.14.239.184.239.441a4.676 4.676 0 0 1-.106.81c-.093.452-.14.57-.379.839-.152.168-.445.629-.648 1.016-.203.39-.469.847-.594 1.015-.129.172-.262.461-.304.656-.051.192-.137.407-.192.47-.078.085-.18.53-.328 1.472-.18 1.086-.234 1.62-.262 2.68-.039 1.292-.035 1.324.098 1.468.187.192.27.492.27.973 0 .223.039.492.093.605.051.118.137.45.192.743.058.293.234.878.386 1.304.157.426.301.84.325.914.02.082.156.203.293.274.304.152.398.32.539.968.117.516.343.876.554.876.059 0 .188-.063.285-.137l.176-.137-.187-.195c-.356-.39-.414-.485-.473-.746a1.512 1.512 0 0 0-.254-.493c-.105-.128-.191-.3-.191-.386 0-.086-.117-.332-.254-.543-.477-.723-.82-1.836-.945-3.04-.036-.37-.024-.445.093-.597.114-.137.133-.242.121-.566-.011-.309.012-.43.098-.528.2-.21.14-.394-.23-.742-.575-.539-.61-.75-.153-.96.367-.173.375-.306.047-.99-.226-.464-.258-.581-.2-.687.06-.109.138-.132.384-.132.445 0 .52-.137.52-.914 0-.57.015-.606.198-.84a1.41 1.41 0 0 0 .239-.426c.043-.23.433-.656 1.097-1.211.301-.246.625-.574.72-.73.292-.497.566-.762.898-.868.554-.172.808-.183 1.082-.047.136.067.496.172.796.23.63.126.86.231.997.438.105.16.085.286-.098.551-.164.242-.203.54-.258 2.29-.031.89-.074 1.777-.098 1.96-.035.297-.015.383.192.813.125.27.23.582.23.699 0 .117.117.52.258.883.145.367.258.726.258.793 0 .183.07.32.16.32.14 0 .399.355.45.617.066.348.206.578.417.688.149.074.188.14.215.386.016.16.14.508.274.774.199.394.398.64 1.125 1.383.582.586.945 1.011 1.058 1.238.242.46.438.64.695.644.18 0 .329.106.922.641.938.84 1.328 1.102 1.801 1.2.27.054.438.132.574.265.102.102.309.246.453.316.149.078.352.2.461.27.473.332.97.547 1.258.55.156 0 .328-.027.375-.058zm-27.453-5.43a1.373 1.373 0 0 0-.375-.343c-.375-.2-1.164-1.02-1.95-2.028-.41-.523-.862-1.066-1.003-1.199-.184-.172-.277-.32-.305-.496-.054-.316-.312-.629-.523-.629-.52 0-1.09-.75-1.149-1.52-.02-.308-.097-.515-.418-1.113-.214-.406-.39-.773-.39-.82 0-.047-.074-.152-.168-.234-.219-.204-.274-.368-.356-.973-.082-.652-.18-.836-.535-.988-.418-.188-.488-.36-.488-1.266 0-.75 0-.754-.219-1.09-.187-.285-.23-.418-.265-.824-.067-.828-.075-.856-.606-1.297-.187-.156-.172-.465.035-.762.317-.449.313-.933-.011-1.261-.168-.172-.172-.211-.18-.942-.008-.699 0-.777.133-.953.132-.18.14-.226.082-.527-.098-.504-.078-1.778.039-2.336.136-.676.363-1.133.75-1.516.316-.324.324-.34.246-.527-.078-.18-.07-.2.117-.356.238-.195.258-.379.074-.73-.18-.344-.168-.582.035-.77.094-.082.258-.324.368-.535.246-.488.52-.879.859-1.238.262-.277.27-.3.266-.703-.004-.52.136-.848.668-1.543.402-.527.703-1.067.703-1.274 0-.058.113-.175.246-.257.3-.188.398-.332.594-.86.16-.445.367-.676.91-1.043.187-.133.703-.59 1.14-1.023l.785-.781-1.414-.559c-.78-.309-1.48-.574-1.55-.59-.266-.07-1.477 1.16-1.93 1.961-.137.242-.254.375-.363.402-.403.094-.86.704-1.153 1.532-.09.25-.18.359-.43.53-.421.286-.597.579-.597.985 0 .282-.027.348-.191.48-.239.204-.403.56-.532 1.188-.078.364-.148.528-.254.614a.955.955 0 0 0-.246.382c-.14.41-.367 1.395-.367 1.633 0 .219-.164.598-.5 1.117-.113.172-.203.36-.203.422 0 .063-.129.184-.293.274-.437.257-.508.445-.445 1.18.086 1.042.066 1.19-.227 1.554-.125.156-.207.34-.234.535-.074.54-.16.781-.352.985-.105.101-.191.242-.191.304 0 .059.101.258.226.434l.23.328-.132.168c-.168.21-.168.477 0 .95.082.226.121.476.106.632-.016.16.07.613.222 1.223.203.8.25 1.082.25 1.597 0 .54.016.64.125.735.195.175.258.46.242 1.027-.011.406.008.543.098.664.36.492.34.426.32 1.262-.015.789-.015.793.164.984.098.098.348.3.555.442.367.257.555.507.555.726 0 .059.094.2.203.317.16.156.246.351.39.894.125.457.247.762.372.91.097.121.218.336.261.477.047.14.293.668.543 1.176.496.984.696 1.453.813 1.906.05.195.168.379.351.558.235.23.317.274.54.274.206 0 .308.043.488.21.129.122.23.266.23.325 0 .063.156.25.352.426.195.172.582.652.86 1.062.5.723.983 1.282 1.108 1.282.051 0 .192.171.762.945l.16.215 2.118-2.09zM8.97 35.348c.39-.438.722-1.07.808-1.54.067-.37.164-.581.59-1.242.184-.289.223-.41.23-.73.005-.215.028-.438.051-.496.024-.055.223-.195.442-.313.254-.129.664-.46 1.11-.882.39-.372.812-.715.933-.762.125-.047.336-.184.469-.301.273-.242.5-.266 1.257-.137.528.09.739.016.961-.328.403-.625.465-.652 1.11-.523.379.074.437.066.68-.051.148-.07.328-.129.406-.129.074 0 .343-.086.601-.195.492-.207.75-.215.969-.02.059.055.273.121.473.149.437.054.496.109.53.449.048.562 0 .57 1.458-.098.98-.453 1.305-.629 1.32-.722.028-.168-.148-.493-.332-.61-.168-.105-.23-.34-.398-1.398a7.895 7.895 0 0 0-.227-1.035c-.168-.516-.164-.622.07-1.63.141-.624.192-1.019.192-1.468 0-.68.012-.707.52-1.477.171-.27.32-.52.32-.566 0-.043.265-.266.593-.5.329-.23.672-.477.758-.543l.16-.125-.683-.68c-.672-.664-.688-.675-.836-.578a1.443 1.443 0 0 1-.395.14c-.402.071-.738-.136-1.304-.827-.52-.633-.664-.75-1.082-.895a2.44 2.44 0 0 1-.528-.305 2.075 2.075 0 0 0-.62-.316c-.223-.066-.563-.25-.903-.496-.735-.527-.996-.64-1.496-.629-.25.008-.492-.027-.64-.09-.333-.14-.567-.082-.567.149 0 .195.144.414.332.52.094.046.215.046.441-.009.48-.113.973.04 1.88.582.41.243.917.512 1.124.598 1.067.422 1.668 1.305 1.922 2.805.176 1.031.184.988-.188 1.168-.3.148-.386.156-1.14.148-.672-.012-.856-.035-1.063-.14-.261-.137-1.39-.383-1.75-.387a.947.947 0 0 1-.687-.32c-.235-.258-.625-.508-.805-.508a.592.592 0 0 0-.34.152c-.207.191-.36.215-1.875.293-.672.035-1.441.11-1.71.164-.59.117-1.29.43-1.672.75-.157.129-.348.234-.438.234-.195 0-.41.102-.41.2 0 .12.215.238.43.242.144 0 .3-.074.539-.27.707-.566.8-.62 1.144-.664.184-.02.367-.074.406-.12.047-.056.207-.09.414-.09.188 0 .57-.044.844-.098.711-.13 1.278-.118 1.63.039.19.082.421.12.737.12.598.005 1.266.145 1.637.352.156.086.367.16.465.16.297 0 .914.36 1.516.887.32.282.593.512.62.512.02 0 .118.148.22.328.226.41.296 1.074.14 1.36-.082.156-.184.214-.617.343-.488.14-.527.145-.68.043-.137-.086-.355-.101-1.297-.101-.855 0-1.172-.024-1.308-.09-.317-.164-1.492-.078-2.575.183-.511.125-1.027.27-1.152.32-.125.051-.379.098-.562.098-.461 0-.899.22-1.438.723-.27.25-.508.422-.59.422-.254 0-.554.168-.949.527-.277.25-.582.442-1.031.645-.668.308-.88.46-1.031.746-.122.238-.118.242.125.242.175 0 .246-.043.37-.234.192-.285.43-.407 1.184-.63.637-.179.957-.378 1.11-.687.09-.183.14-.215.609-.308.52-.106 1.496-.543 2.172-.965.242-.14.5-.25.77-.32.238-.063.636-.172.882-.247l.453-.14.293.144c.25.13.367.145.899.13.504-.016.785.019 1.574.195 1.496.328 1.969.554 2.336 1.09.14.214.168.331.172.718.008.66-.086.805-.754 1.129-.61.3-1.043.344-1.488.156-.352-.148-.93-.156-1.149-.011-.105.066-.297.109-.512.109-.464 0-1.02.266-1.453.703-.183.184-.336.36-.336.39 0 .028-.148.051-.328.051-.476 0-.683.125-1.355.82-.418.427-.727.68-1.008.829-.422.223-.547.36-.945 1.008a2.708 2.708 0 0 1-.485.593c-.16.145-.297.317-.39.512-.086.2-.23.375-.407.508-.351.25-.37.297-.289.621.059.242.051.313-.097.633-.094.195-.328.762-.52 1.25l-.355.89.203.211.207.211.043-.191c.02-.102.168-.34.336-.527zm27.828-.84c.082-.055.367-.188.629-.293a3.99 3.99 0 0 0 .582-.278c.05-.046.226-.12.379-.164.46-.128.77-.355 1.554-1.152.528-.535.844-.805 1.098-.922.211-.105.535-.36.805-.62.242-.25.574-.52.742-.599.16-.082.41-.253.547-.386.488-.465 1.426-1.574 1.508-1.793.175-.438.754-1.29 1.23-1.82.191-.208.266-.372.387-.852.117-.477.195-.645.375-.844.137-.152.281-.418.375-.691.125-.34.273-.672.433-.996.41-.82.508-1.16.48-1.676-.015-.317-.003-.445.056-.469.05-.015.12-.105.16-.191.066-.14.047-.219-.102-.535l-.183-.372.203-.273c.277-.375.355-.687.351-1.414 0-.445-.031-.656-.101-.766-.075-.109-.098-.332-.102-.875a7.3 7.3 0 0 0-.098-1.18 14.078 14.078 0 0 0-.664-2.054c-.082-.188-.152-.434-.152-.547 0-.578-.367-1.234-1.215-2.176-.289-.32-.527-.61-.527-.652 0-.035-.016-.066-.035-.066-.02 0-.457.289-.973.64-.66.457-.922.668-.894.738.02.047.035.278.035.508 0 .383.015.43.218.63.118.12.215.253.215.296-.011.305.063.484.418 1.004.38.555.407.61.407.957 0 .285.035.402.14.52.172.187.242.32.445.882.153.418.168.524.13 1.008-.024.328-.012.633.027.766.11.347.082.691-.106 1.207-.183.527-.183.937-.004 1.14.09.09.106.274.106 1.04v.933l-.45.527c-.503.598-.804 1.106-.87 1.48-.032.169-.133.34-.29.509-.273.285-.43.574-.707 1.281-.343.883-.672 1.297-1.03 1.297a.533.533 0 0 0-.31.129c-.132.12-.187.258-.335.86a1.33 1.33 0 0 1-.153.378c-.086.113-.097.113-.258.016-.23-.153-.445-.137-.617.047-.125.128-.16.246-.195.62-.008.094-.211.047-.371-.078-.238-.183-.395-.171-.36.032.055.265-.218.703-.648 1.043-.219.172-.45.37-.516.441-.097.106-.148.121-.28.074a1.127 1.127 0 0 0-.837.051c-.113.059-.484.379-.82.711l-.621.594.16 1.183.207 1.5.047.317.113-.266a.922.922 0 0 1 .262-.36zm-4.328-5.004c0-.035-.172-.293-.38-.586-.421-.598-.413-.578-.558-1.54-.058-.382-.144-.796-.195-.913-.172-.402-.098-.527.504-.867l.305-.18.289.238c.16.125.578.567.925.977.676.781 1.036 1.082 1.461 1.219.137.046.57.218.946.39.379.172.804.328.941.348.234.035.258.027.285-.117.028-.145-.004-.168-.332-.27a4.193 4.193 0 0 1-.84-.41c-.27-.164-.695-.41-.953-.543-.562-.29-1.031-.684-1.152-.969a1.536 1.536 0 0 1-.086-.515c0-.309.004-.313.48-.715.266-.223.578-.457.688-.512l.207-.105.336.27c.664.53 1.172.694 2.957.956.637.094 1.18.18 1.207.195.027.016.055.016.055 0 0-.015.015-.074.035-.132.031-.075-.008-.098-.196-.098-.128 0-.324-.047-.433-.102-.11-.054-.645-.21-1.195-.343-1.153-.29-1.493-.438-1.825-.813-.433-.484-.445-.754-.043-1.055.215-.164.227-.164.489-.07.398.133 1.289.274 2.246.352.797.062.847.058 1.066-.07.145-.083.477-.169.887-.223.355-.047.676-.106.703-.125.031-.016.039-.09.016-.168-.032-.125-.059-.133-.477-.094-.23.023-.465.066-.684.137-.14.062-.539.117-.98.137-1.238.062-2.117-.16-2.625-.66-.281-.278-.313-.29-.973-.41-.949-.169-.953-.169-1 .12-.058.352-.304.664-.695.871a5.74 5.74 0 0 0-.68.457c-.379.301-.62.38-.875.286-.14-.055-.183-.043-.265.093-.14.2-.399.2-.813-.004-.426-.214-.578-.203-.836.059-.12.125-.27.227-.328.227-.058 0-.183-.11-.273-.239-.149-.199-.309-.39-.477-.57l-.308-.336-.434.258c-.41.242-.43.262-.36.41.06.137.036.188-.288.54-.63.687-.567 1.042.082.472.355-.313.43-.352.605-.32a.83.83 0 0 1 .313.148c.152.137.12.293-.247 1.2-.289.722-.351 1.116-.222 1.452.039.094.11.164.164.164.074 0 .097-.078.097-.347 0-.41.153-.84.45-1.278.285-.418.367-.472.691-.472.45 0 .508.097.73 1.23.047.234.137.438.25.57a.978.978 0 0 1 .223.504c.063.399.473 1.188.883 1.688.266.328.344.39.418.328.05-.04.094-.098.094-.125zm-4.067-6.527c.16-.094.301-.172.317-.184.008-.004-.043-.11-.117-.23-.247-.399-.13-.926.328-1.47.18-.218.215-.234.441-.202.3.05.363-.032.234-.278-.113-.218-.214-.265-.55-.265-.258 0-.817.312-.91.507-.2.422-.282.575-.422.81l-.164.273.203.605c.11.332.238.602.273.602.04 0 .203-.079.367-.168zm8.27-1.23c.277 0 .57-.145 1.09-.536.492-.375.535-.383.941-.219.188.074.238.074.418-.035.254-.145 1.113-.57 1.852-.918.3-.14.675-.344.828-.457.258-.18.273-.21.183-.3-.086-.083-.129-.083-.41.019a3.19 3.19 0 0 0-.578.316c-.25.192-1.094.473-1.414.477-.066 0-.324.074-.574.16a3.545 3.545 0 0 1-.805.187 2.187 2.187 0 0 0-.648.153c-.403.187-.73.176-.887-.024l-.125-.16.21-.57c.267-.735.36-.867.63-.918.23-.043.515-.305.75-.688.094-.148.21-.285.344-.406.109-.094.253-.277.312-.414.063-.133.324-.469.59-.746.258-.273.527-.61.594-.746.168-.352.203-.742.074-.848-.137-.11-.188-.066-.457.418-.445.801-1.3 1.738-1.578 1.738-.219 0-.465.157-.84.543-.54.551-.957.676-1.258.383-.129-.129-.16-.222-.16-.484 0-.176-.027-.379-.063-.445-.054-.098-.027-.207.133-.516.11-.215.297-.64.414-.945.117-.309.274-.676.348-.82.094-.176.133-.38.133-.637 0-.418.187-1.446.386-2.137.165-.555.165-.606.004-.606-.203 0-.324.258-.453.98-.183 1.02-.59 1.985-.949 2.24-.105.081-.328.41-.531.784-.395.746-.555.895-.93.895-.324 0-.926-.328-1.05-.574-.048-.086-.083-.383-.083-.668 0-.442.016-.516.125-.59.153-.09.168-.352.032-.582-.145-.262-.118-.442.097-.563.23-.129.246-.27.059-.566l-.14-.219.202-.191c.254-.246.301-.504.18-.98-.078-.317-.14-.634-.195-.958-.145-.836-.36-1.27-.758-1.515l-.172-.106.012.242c.015.145.101.367.226.559.32.492.418.906.375 1.621-.027.57-.082.832-.468 2.473-.165.687-.477 1.312-.758 1.504-.176.128-.426.125-.567-.008-.066-.055-.328-.153-.59-.207l-.464-.106-.047-.308c-.024-.168-.16-.551-.305-.844l-.258-.54.137-.183c.16-.215.137-.293-.238-.75-.121-.152-.223-.344-.223-.43 0-.078-.043-.171-.09-.199-.168-.09-.351-.488-.46-.972-.137-.59-.223-.758-.548-1.075-.156-.152-.257-.312-.257-.402 0-.187-.168-.43-.293-.43-.114 0-.188.262-.13.485.024.09.153.328.29.523.14.203.277.5.32.7.04.183.14.484.223.664.086.18.25.62.367.976.207.617.215.664.133.953-.047.168-.14.543-.203.832-.133.574-.23.793-.48 1.047-.231.246-.407.274-.798.117-.394-.152-.582-.164-.754-.035-.199.149-.316.117-.61-.168-.179-.183-.394-.535-.675-1.105-.426-.875-.664-1.153-1.12-1.309-.11-.039-.2-.098-.2-.137 0-.144-.348-.504-.828-.867-.274-.203-.575-.488-.672-.636-.188-.278-.305-.32-.434-.165-.062.075-.058.125.028.254.05.086.12.153.203.203.05.02.23.239.394.489.16.246.5.695.758.992.984 1.148 1.328 1.77 1.375 2.516.035.562-.078 1.078-.27 1.207a.713.713 0 0 1-.343.097c-.117 0-.211.024-.211.047 0 .027.297.34.664.7.457.452.703.652.808.652.157 0 .407-.227.735-.657.144-.183.23-.234.39-.234.114 0 .32-.055.465-.113.196-.086.364-.106.743-.074.59.043 1.644-.036 2.125-.157l.351-.093.195.183c.274.258.477.317 1.114.32.32 0 .62.036.699.079.309.175 1.594 1.378 1.953 1.824.203.254.23.332.277.887.032.335.055.847.051 1.128l-.015.528.218.035.86.152c.351.059.668.086.707.059.03-.027.14-.05.242-.05zM13.39 11.202c.98-.824 1.304-1.05 1.863-1.316.258-.125.617-.36.8-.532.184-.171.626-.5.977-.726.356-.227.688-.461.735-.52.05-.058.125-.105.16-.105.32-.004.625-.18 1.105-.637.621-.594.696-.637 1.14-.637.427 0 1.25-.207 1.466-.37a.783.783 0 0 0 .234-.368c.125-.437.7-.668 1.399-.562.261.035.324.023.523-.133.289-.215.477-.192.965.133.406.265.676.293.945.101a.823.823 0 0 1 .461-.14c.156 0 .469-.043.7-.09.593-.133.937-.121 1.218.039.234.125.258.129.395.031.214-.148.52-.129 1.128.07.5.157.551.164.887.082.442-.105.625-.07 1.414.266.617.258.637.266.817.16.238-.14.414-.136.875.02.21.07.504.125.656.117.203-.012.312.02.418.113.285.262.418.29 1.047.242.738-.05.832-.011 1.406.622l.418.464.34-.023c.32-.02.336-.012.566.246.645.742.696.777.996.734.598-.093.633-.078 1.012.329.39.414.559.527.793.527.207 0 .746.473.863.758.215.52.817.922 1.13.761a64.13 64.13 0 0 0 2.136-1.457c.027-.027-.035-.144-.137-.265a1.136 1.136 0 0 1-.234-.387c-.078-.324-.473-.664-1.102-.965-.64-.297-.98-.555-1.191-.89-.125-.204-.137-.207-.387-.145-.406.11-.625-.031-1.094-.71-.218-.317-.472-.622-.562-.677-.18-.12-.844-.328-1.344-.426-.77-.148-.945-.207-1.738-.593-.488-.246-.996-.446-1.223-.492-.21-.04-.418-.11-.605-.22-.192-.128-.301-.148-.82-.148h-.594l-.399-.27c-.383-.257-.418-.269-.91-.273-.445-.007-.535-.03-.676-.16-.133-.12-.226-.148-.465-.14-.984.039-4.21.007-5.187-.055-.633-.035-1.223-.043-1.32-.02-.094.028-.621.059-1.172.063-1.403.016-2.223.242-3.055.84l-.328.242-.84.039c-1.465.074-1.644.14-2.219.844-.375.449-.757.687-1.52.93-.515.163-.878.335-1.16.542-.105.082-.429.247-.726.372-.637.273-.918.468-1.086.773-.07.137-.18.238-.277.262-.094.02-.184.039-.274.062-.058.016-.34.285-.632.594-.325.355-.602.594-.73.633a.69.69 0 0 0-.329.277c-.07.11-.465.54-.883.945l-.754.739 1.528.601c.96.383 1.558.582 1.62.555.055-.027.43-.328.837-.676zm0 0"/></svg>