<svg xmlns="http://www.w3.org/2000/svg" width="64pt" height="64pt" viewBox="0 0 64 64"><path d="M30.496 64.387c-3.625-.168-7.012-.883-10.219-2.149-10.87-4.293-18.57-14.25-20.03-25.906C.05 34.816 0 33.918 0 32.207c0-1.707.05-2.613.246-4.121A32.154 32.154 0 0 1 9.02 9.73C16.188 2.3 26.27-1.152 36.434.34c5.324.785 10.554 3.039 14.793 6.379 1.156.906 1.89 1.57 3.035 2.73 1.761 1.778 3.074 3.426 4.32 5.406 4.172 6.614 5.797 14.387 4.652 22.204a32.374 32.374 0 0 1-3.832 11.132c-4.617 8.168-12.527 13.887-21.656 15.657-2.238.437-5.047.644-7.25.539zM55.43 51.539a3.556 3.556 0 0 0-.246-.352l-.243-.332.239-.25-.278-.148c-.312-.168-.64-.445-.64-.547 0-.035.05-.066.11-.07.058 0 .253-.031.425-.063l.316-.066-.41-.238a5.88 5.88 0 0 1-.691-.477l-.282-.238h-.597c-.547.004-1.207.039-3.809.199-.91.059-.926.063-1.191.219-.246.148-.363.176-1.356.32l-1.082.164-1.054-.086c-.582-.043-1.512-.113-2.067-.148-.68-.051-1.12-.102-1.36-.168a20.741 20.741 0 0 0-1.206-.281c-.89-.188-1.39-.235-3.528-.293-.722-.028-.87-.02-1.19.07l-.364.098-.196-.215c-.187-.207-.203-.215-.425-.188-.13.012-.246.047-.262.07-.02.036.43 1.497.5 1.63.008.015.207-.028.441-.09.516-.145.825-.149 1.18-.016.648.238.723.25 2.07.289 1.395.047 1.758.09 2.114.27.402.207.945.418 1.265.496.516.117 1.516.168 4.43.222 2.719.051 5.559.125 7.492.196 1.367.047 1.895.054 1.895.023zm-20.84-.492c.039-.133.066-.274.066-.313 0-.054-.414-.058-2.613-.03-1.438.019-2.621.038-2.625.042-.008.004.039.14.094.293l.101.281 4.914-.023zm-19.5-.024c.234-.058.48-.136.547-.183.101-.067.289-.086 1.047-.102.875-.02.996-.011 2.359.184l1.434.207.753-.367c.418-.196.84-.375.95-.39.11-.017.773-.013 1.476.007l1.29.031.35.406.231-.203c.223-.187.262-.199.61-.226.32-.024.425-.059.761-.242.684-.383.72-.399 1.192-.45.488-.05 1.558-.066 1.558-.023 0 .012-.035.105-.074.203-.039.098-.074.184-.074.195 0 .028.352.02.469-.011.078-.02.199-.239.488-.84.207-.453.387-.832.395-.848.011-.027-.075-.066-.188-.098-.086-.03-.176-.058-.262-.086-.043-.015-.093.06-.148.227-.047.137-.113.262-.152.281-.043.016-.645-.023-1.348-.086-.899-.078-1.918-.12-3.461-.152l-2.188-.039-1.28.152c-1.087.133-1.321.149-1.5.098-.274-.07-.766-.07-1.509 0-.488.05-.757.047-1.648-.023-2.02-.157-2.04-.157-3.234-.012-.727.09-1.204.125-1.41.105l-1.313-.12c-.55-.06-1.43-.126-1.957-.161l-.957-.062-.574.136c-.743.18-1.602.29-2.047.27-.196-.012-.352-.012-.352 0 0 .008.063.105.14.219.235.347.337.414.684.453.305.03.633.199.633.32 0 .02-.187.102-.422.176l-.421.129.117.09c.129.097.316.144.55.144a.56.56 0 0 1 .27.082c.098.07.11.11.09.277l-.027.192.59-.031 1.663-.075c.59-.03 1.102-.066 1.141-.082.098-.039 1.902-.129 2.422-.125.355.004.473.032 1.043.246l.746.274c.05.012.102.023.105.027.008.004.204-.043.442-.094zm20.066-3.359a.966.966 0 0 0 .305-.168l.121-.113v-4.254l-.11.035a1.07 1.07 0 0 1-.195.027c-.082 0-.086.13-.086 2.036v2.043l-.152.027a2.283 2.283 0 0 1-.36.035c-.202 0-.206.004-.23.18a.553.553 0 0 0 0 .226c.028.047.434 0 .707-.074zm-5.37-.152c-.013-.176-.036-.211-.138-.223a2.256 2.256 0 0 1-.234-.035l-.105-.024v-4.035l-.11-.023a1.973 1.973 0 0 0-.328-.04l-.223-.015-.011 2.098-.016 2.094.137.132c.144.141.555.274.855.278l.188.004zm3.62-.016l.133-.031V43.71h-2.582l.012 1.871.015 1.875.266.055c.273.062 1.863.05 2.156-.016zm-25.02-.59c.79-.133 1.579-.277 2.364-.437 1.273-.254 1.766-.332 2.723-.418.468-.04.937-.086 1.406-.133l.246-.031-.973-.328c-.43-.145-.855-.297-1.277-.465-.344-.145-.414-.149-1.36-.07-.769.066-1.296.023-1.855-.157-.441-.14-.601-.125-.973.082-.406.227-.695.418-.671.442.007.011.484.086 1.058.168a43.39 43.39 0 0 1 1.09.164c.027.007-.605.23-1.398.492-1.465.484-1.82.648-1.641.77.113.078.39.058 1.262-.079zm9.571-.43c.262-.246.445-.378.586-.421.11-.032.363-.121.55-.203l.352-.145 1.735.988.625-.508c.398-.332.758-.578 1.02-.703.218-.105.402-.21.402-.226 0-.024-.137-.051-.305-.07a2.296 2.296 0 0 1-.676-.208l-.371-.171-.578.414c-.317.226-.606.43-.64.453-.036.02-.31-.063-.634-.188l-.574-.218-1.547.437c-.855.238-1.57.445-1.601.453-.047.016 1.125.668 1.215.676.03 0 .23-.16.441-.36zm27.57.208c.035-.032.035-.067 0-.114-.246-.34-.242-.332-.144-.406.148-.11.336-.074.758.133.742.36 1.027.215.66-.34l-.168-.25.226-.14c.141-.09.438-.196.774-.282.422-.101.547-.156.547-.215a4.952 4.952 0 0 0-.117-.582c-.02-.039-.168-.008-.5.11-.872.312-.864.308-.958.484-.085.168-.085.168-.312.117a.667.667 0 0 0-.39.012c-.126.047-.56.059-1.688.047-.836-.012-1.54-.004-1.555.012-.02.02.082.203.219.414.23.34.262.37.383.343.375-.086.636-.09.758-.011.093.066.125.136.152.379.035.328.035.328.46.363.306.023.84-.02.895-.074zm-19.105-.051c.129-.059.363-.117.523-.133l.293-.035.07-.258c.036-.145.06-.266.047-.273-.253-.004-.5.004-.75.023a9.263 9.263 0 0 1-2.18-.094c-.288-.039-.534-.058-.554-.043-.062.063.137.567.258.668.187.145.75.23 1.61.246.359.004.491-.015.679-.101zm11.398-.051c.114-.035.223-.074.332-.121.012-.008-.015-.074-.058-.137l-.16-.258-.086-.125.242.036c.133.02.566.175.969.351.703.305.75.317 1.242.344l.508.027.62-.437c.34-.239.618-.45.622-.469 0-.016-.117-.137-.262-.258l-.258-.226-.812.343c-1.055.446-1.172.453-1.836.133l-.465-.226h-1.91v1.066l.129-.02c.105-.015.668.04.843.079.016 0 .168-.043.34-.102zm14.43-.71c.02-.048-.004-.153-.047-.235-.11-.219-.14-.364-.09-.399.024-.011.211.082.414.219l.38.238.788.035c.735.032.817.024 1.153-.078a5 5 0 0 0 .437-.144c.09-.047.121-.196.04-.215-.368-.113-1.02-.238-1.192-.234-.219.004-.809-.121-1.688-.36-.265-.07-.574-.129-.691-.129-.156 0-.29-.043-.492-.172-.39-.238-.426-.23-.383.094.031.262.031.266-.117.317-.133.05-.153.039-.25-.094a.911.911 0 0 0-.297-.246c-.18-.094-.219-.094-.676-.035-.266.03-.508.074-.539.097-.082.047.36.559.637.739a.796.796 0 0 0 .414.14c.367 0 .734.121.953.309.219.187.305.21.863.222.29.008.36-.007.383-.07zm-19.512-3.048c1.012-.152 1.825-.43 1.864-.636.015-.083-.008-.09-.122-.06-1.175.27-3.43.298-4.238.052-.082-.028-.16-.047-.246-.075-.016 0 .043.61.063.633.007.008.152.047.32.082.426.094 1.742.094 2.36.004zm-3.375-.972c-.02-.852.024-1.141.36-2.5.453-1.836.507-2.25.55-4.067l.032-1.43.32-.105a4.9 4.9 0 0 1 3.797.285c.273.14.527.188.527.098 0-.098-.52-.508-.844-.672-.628-.309-1.011-.383-1.953-.387-.703 0-.886.016-1.218.106-.797.222-1.563.601-1.504.75.015.039.043.597.058 1.234.04 1.7-.05 2.34-.539 4.07a33.37 33.37 0 0 0-.328 1.227c-.07.328-.09 1.496-.027 1.855l.035.235h.75zm6.317.613c.004-.047.02-.285.043-.524.07-.789 0-1.199-.407-2.414-.527-1.59-.535-1.632-.539-3.476v-1.547l-.304-.125-.04.527c-.042.684.008 2.399.098 3.067.094.683.172 1.015.461 1.925.278.872.36 1.457.313 2.196l-.028.457h.2c.156 0 .199-.02.203-.086zm-3.907-3.227l.012-1.12h-.777v2.269l.379-.012.375-.016zm1.864.012v-1.133h-.782v2.266h.782zM4.594 37.7v-.915h-.438v1.824h.438zm3.308 0v-.915h-.488v1.824h.488zm3.258 0v-.915h-.437v1.824h.437zm3.309 0v-.915h-.489v1.824h.489zm3.492-.013l.012-.902h-.489v1.832l.23-.015.231-.012zm3.355 0l.016-.902h-.492v1.832l.234-.015.227-.012zm3.414.012v-.914h-.484v.883c0 .48.016.89.031.914a.735.735 0 0 0 .246.027h.207zm15.032 0v-.914h-.434v1.824h.434zm3.457 0v-.914h-.489v1.824h.489zm3.343-.011l.016-.903h-.488v1.832l.226-.015.235-.012zm3.504 0l.016-.903h-.492v1.832l.234-.015.227-.012zm3.27.011v-.914h-.484v.883c0 .48.011.89.03.914.02.016.126.027.243.027h.21zm3.297-.011l.015-.903h-.492v1.832l.235-.015.226-.012zm3.27.011v-.914h-.485v.883c0 .48.012.89.031.914.02.016.13.027.242.027h.211zM32.71 35.56v-1.133h-.781v2.261h.78zm-29.043-.446v-.636l.766-.016.765-.012-.465-.36-.468-.355H2.793v1.43H1.77v.59h1.898zm3.312 0v-.64h.727c.402 0 .73-.016.727-.035 0-.02-.2-.188-.446-.372l-.445-.332H6.055v1.43h-.973v.59H6.98zm3.258 0v-.64h.727c.406 0 .73-.016.73-.035-.004-.02-.199-.188-.437-.372-.317-.238-.473-.332-.582-.332h-.149v-4.48l1.532-.024.015-.726.012-.727.73-.011.73-.016-.448-.285-.453-.285-.73.015-.727.012-.012.727-.02.726h-.629v-8.762l-.18-.03c-.09-.016-.179-.032-.265-.06-.086-.019-.09.337-.09 6.954v6.972h-.68v1.43h-.921v.59h1.847zm3.258 0v-.636l.766-.016.765-.012-.464-.36-.47-.355h-1.472v1.43h-1.023v.59h1.898zm3.453 0v-.64h.73c.403 0 .731-.016.731-.035-.004-.02-.203-.188-.45-.372l-.444-.332h-1.489v1.43h-.976v.59h1.898zm3.406 0v-.636l.762-.016.762-.012-.938-.715h-1.457l-.015.703-.012.7-1 .031v.586h1.898zm3.403 0v-.636l.77-.016.765-.012-.465-.36-.469-.355h-1.476v1.43h-1.02v.59h1.895zm3.457 0v-.636l.762-.016.761-.012-.937-.715h-1.028V18.72L27.898 18l-.378-.21c-.207-.114-.403-.212-.434-.212-.066 0-.59.344-.953.625l-.281.219v8.785l-.782-.016-.777-.015v1.484H23.27l.015.285.012.285 1.875.024V27.77l.656.03v7.337l-.25.02-.254.011-.015.297-.016.289h1.922zm10.555 0v-.64h.73c.402 0 .727-.016.727-.035 0-.02-.196-.188-.434-.372-.316-.242-.473-.332-.578-.332h-.153v-4.48l1.438-.024.012-.73.011-.727H41l-.473-.293-.476-.296h-1.453v1.476h-.535v-8.762l-.184-.03a3.153 3.153 0 0 1-.266-.048c-.082-.015-.086.344-.086 6.95v6.964h-.68v1.43h-.925v.59h1.848zm3.261 0v-.636l.758-.016.766-.012-.473-.36-.469-.355h-1.46v1.43h-1.024v.59h1.902zm3.403 0v-.64h.73c.402 0 .73-.016.73-.035-.003-.02-.206-.188-.449-.372L45 33.734h-1.492v1.43h-.973v.59h1.899zm3.164 0v-.636l.754-.016.757-.012-.953-.719-.726.016-.73.012-.016.703-.012.703h-.973v.59h1.899zm3.402 0v-.636l.766-.016.761-.012-.937-.715h-1.465v1.43h-1.02v.59H51zm3.457 0v-.636l.754-.016.758-.012-.473-.36-.476-.355h-.805v-6.968c0-3.852-.02-6.977-.043-6.993-.024-.011-.176 0-.34.028l-.297.054-.012 3.813-.015 3.812-.172-.144-.168-.148-.742-.004h-.742v1.476h-.973v.594l1.875-.024.012-.73.015-.73.446.015.449.016v7.336l-.477.02-.472.011v.586h1.898zm3.402 0v-.64h.73c.407 0 .731-.016.731-.035 0-.02-.207-.188-.449-.372l-.445-.336-.735.016-.73.012-.027 1.406h-.97v.59h1.895zm3.407 0v-.64h.73c.402 0 .727-.016.727-.035 0-.02-.196-.188-.43-.372l-.438-.332h-1.511v1.43h-.973v.59h1.895zM34.98 31.488c-.035-.086-.714-.425-1.148-.566l-.414-.133-.016.465-.011.469-.207-.016c-.204-.02-.207-.016-.22.164l-.015.18.281.058a6 6 0 0 1 .536.149l.261.086v-.418c0-.469-.027-.453.414-.254l.215.098v1.671l.16.145.157.14.015-1.093c.004-.594.004-1.11-.008-1.145zm-5.117 1.61l.34-.137.027-.734.024-.73.32-.087.34-.09c.012 0-.14-.09-.34-.191-.402-.211-.418-.207-.96.02l-.212.085v1.004c0 .77.016 1 .063 1 .035 0 .215-.062.398-.14zm1.88-1.09h.335v-.797l.414.02c.227.007.414.003.414-.008a3.867 3.867 0 0 0-.332-.285l-.328-.254h-.371c-.54-.004-.523-.016-.523.492 0 .43-.004.441-.125.469-.106.027-.122.062-.122.23 0 .195 0 .195.153.168.086-.016.3-.035.484-.035zm-18.735-1.106v-.914h-.485v1.828h.485zm3.347.012l-.011-.898-.235-.016-.226-.016v1.832h.488zm3.32-.012v-.914h-.44v1.828h.44zm3.352-.004v-.914l-.226.016-.235.016-.011.898-.016.902h.488zm17.371.004v-.914h-.437v1.828h.437zm3.356-.004v-.914l-.461.032-.016.898-.011.902h.488zm3.36.004v-.914h-.493v1.828h.492zm3.206-.004v-.914l-.226.016-.235.016-.011.898-.016.902h.488zM35.63 28.492c0-1.527 0-1.55-.102-1.61-.101-.054-.847-.195-1.05-.195h-.11v3.2l.281.027c.153.02.387.05.52.074.137.02.293.04.352.043l.109.012zm-6.113 1.356l.226-.004v-3.215l-.351.027a5.366 5.366 0 0 0-.606.086l-.254.055v3.176l.375-.063c.2-.031.407-.055.61-.062zm-14.172-1.332v-.739l.742-.011.746-.016-.457-.281-.457-.285h-1.45v1.472l-.5.016-.495.015-.016.215c-.027.364-.066.348.961.348h.926zm3.297-.016l.015-.727h1.477l-.461-.293-.457-.296h-1.488v1.476h-.973v.594l1.875-.024zm3.261.004l.012-.727.73-.011.727-.016-.453-.281-.457-.285h-1.473v1.476h-.972v.594l.937-.012.934-.012zm20.883.012v-.739l.723-.011.73-.016-.46-.285-.458-.285-.718.015-.72.012-.015.727-.012.726h-.968v.59h1.898zm3.258 0v-.739l.727-.011.734-.016-.45-.281-.452-.285h-1.438v1.472l-.496.016-.5.015-.012.282-.02.281h1.907zm3.27.007l.015-.726.723-.024.73-.023-.46-.281-.466-.285h-1.43v1.472l-.5.016-.495.015-.02.215c-.027.364-.066.348.965.348h.926zm-1.325-1.515c0-.192.02-.238.196-.399.246-.23.421-.52.46-.789.036-.199.024-.215-.124-.308l-.168-.102-.055.188c-.11.367-.328.675-.617.867-.121.082-.133.117-.133.398 0 .336.012.348.305.364.128.007.132-.008.132-.22zm-27.925-.067c0-.109.039-.168.164-.242.218-.129.418-.402.527-.715l.086-.254-.121-.113c-.164-.144-.266-.14-.266.016 0 .254-.308.691-.594.84-.125.066-.136.097-.136.343v.27h.172c.152 0 .168-.016.168-.145zm-11.77-1.55v-1.153l-.445-.105a5.076 5.076 0 0 0-.485-.102c-.027 0-.043.5-.043 1.2v1.203l.375.046c.207.028.426.051.485.055l.113.008zm47.902 1.093l.403-.054v-2.41l-.11.027-.488.105-.375.086v1.153c0 1.062.004 1.152.086 1.152.047 0 .262-.023.484-.059zm-39.82-.433a8.637 8.637 0 0 0-.078-.63c-.02-.132-.04-.269-.055-.405l.442-.153c.375-.129.546-.16 1.234-.199.965-.059 1.328-.012 1.879.238.457.207.707.254.793.149.047-.059.035-.102-.067-.227-.41-.488-2.03-.867-3.218-.75-.844.086-1.774.38-2.133.668l-.145.117.09.336c.051.188.156.508.235.723l.148.383.445-.012.446-.02zm8.016-4.11v-4.355l-.258-.266c-.172-.172-.34-.425-.512-.77-.289-.566-.234-.546-.715-.277-.43.243-.445.27-.34.606.196.629.461 1.058.84 1.34l.207.156v7.922h.778zm27.972.817v-3.496l-.125-.082c-.281-.184-.527-1-.496-1.657l.012-.316.312-.113c.579-.207 1.11-.266 2.07-.242.692.02.954.046 1.22.125.41.12.925.347 1.18.523.179.125.35.168.35.082 0-.078-.511-.527-.777-.684-.37-.214-1.047-.433-1.648-.53-.871-.145-2.02-.044-2.91.257-.422.14-.86.352-1.024.488-.113.102-.117.063.07.832.153.621.747 1.582 1.036 1.68.097.027.097.086.097 3.324v3.297h.633zm-7.785 3.203a9.722 9.722 0 0 0-.086-.738l-.086-.555.39-.125c1.04-.332 2.321-.242 3.462.254.21.094.43.172.472.172.137 0 .094-.13-.105-.313-.902-.82-2.848-1.07-4.293-.547-.45.16-1.02.457-1.05.547-.028.074.288 1.125.41 1.356.062.133.078.136.476.136h.41zm-3.84-3.727c0-3.64.004-3.765.09-3.797.176-.05.594-.558.762-.921.191-.418.297-.778.254-.887-.028-.074-.383-.332-.45-.332-.011 0-.023.09-.023.21 0 .419-.473 1.204-.898 1.49l-.22.144V26h.485zm-28.117.371c0-3.054.004-3.152.09-3.18.266-.085.777-.902.86-1.363.03-.171.023-.187-.157-.3l-.184-.125-.054.23c-.102.465-.5 1.063-.817 1.235l-.129.066v3.266c0 3.593-.023 3.296.282 3.312l.11.004zm21.016 1.829v-.528l-.27-.273c-.554-.547-.898-1.102-1.09-1.758-.066-.219-.129-.355-.172-.355-.039 0-.105.14-.171.355-.2.676-.739 1.496-1.192 1.813l-.222.148v1.129h3.117zm15.273-1.215V22.16l-.207-.133c-.23-.152-.992-.457-1.238-.496l-.16-.027v.91l-.192-.023-.199-.028v.196c0 .164.016.195.133.218.23.051.766.203.855.239.075.035.082-.004.082-.438 0-.535-.027-.515.422-.312l.211.093v.844c0 .8.008.852.11.957.054.067.125.113.144.113.024 0 .04-.472.04-1.054zm-28.262.023v-.933l-.324-.18c-.328-.188-1.043-.461-1.199-.465-.074 0-.082.059-.082.465v.457l-.191-.031c-.235-.047-.247-.035-.247.175 0 .141.02.168.133.192.07.015.313.082.532.144l.406.114v-.465c0-.25.02-.457.043-.457.023 0 .164.047.316.105l.274.106v.715c0 .71 0 .718.128.855.07.078.149.137.172.137.02 0 .04-.418.04-.934zm-5.18.695l.387-.14.028-.785.023-.778.254-.074c.137-.039.254-.09.254-.101 0-.016-.121-.082-.27-.141-.296-.129-.378-.125-.812.043l-.281.105v1.008c0 .551.008 1.004.015 1.004.008 0 .192-.062.403-.14zm28.345-.18l.378-.136v-1.555l.27-.058c.144-.031.266-.063.266-.078 0-.012-.133-.086-.297-.164l-.297-.141-.34.117a1.91 1.91 0 0 0-.41.176c-.094.078-.098 2.035-.004 2.004zm-13-1.288v-.653h.312c.344 0 .48-.086.371-.226-.047-.055-.176-.07-.52-.07h-.456v1.89l.148-.14.145-.145zm2.82-.016v-.933h-1.11l.051.144c.051.148.055.148.41.148h.36v.653c0 .637 0 .648.133.785a1.2 1.2 0 0 0 .144.14c.008 0 .016-.421.016-.937zm-16.156.39h.27l-.04-.472-.031-.473.453.036.45.03-.34-.222c-.321-.207-.36-.222-.684-.222-.563 0-.551-.012-.567.507-.011.426-.02.453-.125.465-.093.012-.11.051-.11.215v.203l.227-.031a4.78 4.78 0 0 1 .497-.035zm28.21-.144h.305v-.883l.738-.027-.285-.21c-.265-.204-.297-.212-.629-.212-.52 0-.504-.012-.504.5v.442l-.148.03c-.133.024-.144.044-.144.227v.196l.18-.032c.16-.02.323-.03.487-.03zm10.083-2.722l.218-.067v-1.066l.922-.215 1-.227c.07-.015-.066-.117-.469-.359-.156-.086-.168-.086-.902.047-.41.074-.852.156-.973.187l-.234.047v1.016l-.137.031c-.129.035-.258.07-.386.11l-.254.074v.722l.496-.12c.273-.067.597-.15.719-.18zm-47.188-.332v-.551l.133.031c.289.059 1.648.273 1.738.273.07 0 .016-.078-.234-.335l-.328-.336-.883-.188c-.488-.102-.934-.195-1-.207-.106-.027-.106-.023-.106.484v.516l-.28-.039c-.544-.066-.505-.094-.49.312l.016.36.633.105c.348.055.668.11.715.114.078.003.086-.055.086-.543zm28.39-1.282c.028 0 .645.43.856.594l.137.105-.082-.19c-.04-.102-.153-.333-.238-.517-.153-.304-.192-.343-.567-.57-.219-.137-.539-.316-.707-.402l-.305-.149v1.72l-.539-.196a13.8 13.8 0 0 0-.558-.2c-.008 0-.02.118-.02.262v.258l.489.168c.269.094.71.281.984.422l.496.246.012-.773c.008-.426.027-.778.043-.778zm21.532 1.121l.672-.156v-1.094l.508-.113c.285-.062.511-.129.511-.144 0-.059-.593-.399-.687-.399-.059 0-.297.024-.535.055l-.426.058-.016.52-.011.52-.38.097-.374.102v.355c0 .2.015.36.035.36.02 0 .336-.07.703-.16zM5.375 18.98c-.008-.328.008-.52.043-.52.027 0 .46.071.96.153.497.082.927.14.95.133.02-.008-.11-.16-.289-.34l-.328-.332-.95-.199c-.519-.11-.964-.2-.984-.2-.023 0-.039.223-.039.5v.493l-.39-.031-.391-.035.012.359.02.363.679.102c.371.054.687.097.695.086.012-.004.016-.242.012-.532zm23.3.204c.278-.098.602-.2.716-.227l.207-.055v-.808c0-.742.004-.809.09-.836.359-.086.722-.145 1.09-.176.1 0 .183-.016.183-.039 0-.02-.145-.156-.32-.3l-.317-.263-.469.086a6.336 6.336 0 0 0-1.195.348c-.074.031-.082.121-.082.887v.851l-.539.25v.25c0 .184.02.246.063.23.035-.015.293-.105.574-.198zm4.52-1.332v-.864l.133.02c.36.062 1.2.176 1.211.164a1.633 1.633 0 0 0-.168-.281c-.121-.184-.219-.278-.32-.309-.133-.035-.801-.129-1.446-.207l-.234-.027-.023 1.746-.5.015-.496.012v.535l.691.016.922.027.23.012zm-24.465.082c0-.02-.054-.247-.125-.497a4.19 4.19 0 0 1-.109-.476c.043-.035.785-.27 1.035-.324.442-.094 2.004-.086 2.418.02.477.116 1.043.347 1.352.55.144.094.293.172.324.172.133 0 .059-.145-.176-.352-.734-.652-1.754-.98-3.062-.98-1.043 0-1.965.203-2.715.59-.496.254-.484.234-.317.57.262.52.422.703.63.727.343.039.745.039.745 0zm48.172-3.739c-.21-.16-.855-.465-1.289-.601-.168-.059-.332-.106-.5-.156-.011 0-.023.257-.023.566v.566l-.156-.027c-.086-.012-.164-.031-.246-.047-.07-.012-.086.027-.086.215v.23l.523.133c.29.074.57.145.633.164.11.035.11.032.11-.492 0-.601-.04-.57.476-.344l.254.118v2.085l.18.16.183.16.016-1.327c.011-1.227.003-1.34-.075-1.403zm-43.18-.043c-.034-.09-.874-.504-1.284-.632-.63-.2-.594-.223-.594.414v.543l-.489-.063v.45l.278.05c.152.035.441.106.637.168l.351.113v-.535c0-.293.012-.531.027-.531.016 0 .192.066.387.152l.363.153v2.082l.16.164.157.164.015-1.32c.004-.727.004-1.344-.007-1.372zM36.02 16.61c0-.047-.06-.3-.13-.57-.081-.305-.113-.504-.085-.531.07-.07.699-.285 1.082-.375.449-.106 2.113-.149 2.64-.07.684.101 1.528.421 2.16.816.415.258.43.086.024-.29-.629-.589-1.602-.995-2.793-1.16-1.355-.19-3.18.13-4.281.75-.41.231-.426.266-.23.637.222.426.476.77.605.825.058.023.308.043.558.047.387 0 .45-.008.45-.079zm14.886-.457l.41-.148.016-.906.016-.91.129-.051c.074-.028.23-.078.351-.11l.219-.058-.363-.168c-.336-.16-.383-.168-.59-.125a3.182 3.182 0 0 0-.496.176l-.278.12v1.196c0 1.11.008 1.187.086 1.164a21.3 21.3 0 0 0 .5-.18zm-42.894-.195l.133-.05v-1.864l.378-.063.375-.062-.41-.195-.406-.2-.27.086c-.16.051-.32.114-.476.18l-.211.09v2.418l.375-.145c.172-.062.34-.129.512-.195zm15.664-.52c1.027-.34 1.398-.394 2.543-.394.894 0 1.074.012 1.449.11a5.954 5.954 0 0 1 1.543.652c.172.11.34.195.375.195.137 0 .043-.156-.281-.46-.825-.77-2.344-1.216-3.918-1.15-.985.044-1.907.247-2.696.587-.347.148-.78.433-.78.511 0 .075.167.438.25.543.03.035.187-.02.515-.183.324-.153.656-.29 1-.41zm5.996-3.328c-.195-.218-1.434-.757-2.078-.906l-.137-.035v1.34l-.293-.031-.289-.036v.54l.41.085c.223.043.563.133.75.196l.348.125.012-.688.011-.68.875.36.012 1.309.016 1.3.203.184.207.18.011-1.582c.012-1.348.004-1.59-.058-1.66zm12.379 1.606v-1.602l-.328-.191a6.06 6.06 0 0 0-1.418-.606c-.157-.05-.317-.097-.473-.144-.012 0-.02.305-.02.672v.668l-.289-.032-.293-.035v.528l.594.152c.328.086.649.172.707.191l.11.036v-.692c0-.387.011-.7.027-.7s.238.095.488.208l.457.203v2.57l.18.184c.098.102.2.188.219.188.023 0 .039-.72.039-1.598zm11.226 1.156l.258-.004V13.77l.434.03c.246.02.433.016.422-.003a3.917 3.917 0 0 0-.36-.27c-.324-.222-.351-.234-.676-.234-.183 0-.417.016-.515.031l-.184.031v1.063l-.148.031c-.137.031-.145.047-.145.266v.234l.328-.039c.18-.02.446-.039.586-.039zm-43.37-.082l.378-.027v-1.09l.41.039c.23.02.418.023.418.012 0-.012-.148-.137-.324-.278-.348-.273-.375-.277-1-.218l-.328.027-.027 1.098-.133.015c-.125.016-.133.028-.133.262v.242l.18-.023a9.31 9.31 0 0 1 .558-.055zm12.257-.258c.195-.078.422-.164.5-.191l.148-.047.012-1.164.012-1.16.27-.082c.148-.04.402-.106.574-.14.336-.075.336-.075-.305-.247l-.457-.129-.445.156a6.295 6.295 0 0 0-.575.223l-.132.066v1.426c0 .79.007 1.43.02 1.43.015 0 .183-.067.378-.14zm12.508-.105l.473-.219v-2.14l.277-.106c.156-.059.34-.117.414-.129.074-.016.133-.047.133-.062 0-.016-.16-.114-.356-.211l-.36-.18-.421.144a5.846 5.846 0 0 0-.566.22l-.145.073v1.43c0 .79.016 1.426.043 1.418l.508-.234zM25 12.91l.586-.035-.016-.734-.02-.735.63.028.625.027-.465-.227-.461-.226-.563.012a5.723 5.723 0 0 0-.644.035c-.078.027-.086.097-.086.664v.636l-.195.032-.192.027v.293c0 .277.004.29.11.266.23-.036.46-.055.691-.063zm12.32 0l.598-.027v-1.465l.105.023c.168.036.942.09.914.067-.015-.012-.199-.14-.414-.274l-.398-.246-.504.024c-.8.035-.726-.043-.726.703 0 .672-.008.691-.247.691-.082 0-.093.04-.093.301 0 .266.008.297.082.27.05-.02.355-.051.683-.067zM26.336 5.527c-.106-.125-.195-.02-.195.243 0 .242 0 .242-.133.199a1.703 1.703 0 0 0-.399-.04c-.242 0-.297.02-.496.188-.203.16-.273.196-.648.246-.367.055-.442.086-.543.2-.098.117-.113.187-.113.515v.383l.39.441c.215.243.434.446.485.453.054.016.125-.03.171-.105.075-.117.075-.137-.027-.367-.055-.137-.09-.278-.07-.309.07-.11.5-.02.926.2l.41.203v2.945l.136.015.133.012.012-2.672c.012-1.867 0-2.703-.04-2.746zM38.21 8.25c0-1.91-.02-2.688-.059-2.727-.109-.113-.187-.011-.187.247 0 .242 0 .242-.133.199a1.757 1.757 0 0 0-.402-.04c-.242 0-.293.02-.5.188-.192.16-.274.196-.578.235-.653.085-.723.164-.723.753v.364l.406.445c.219.25.434.45.485.45.042 0 .113-.052.16-.118.07-.11.066-.137-.028-.363-.062-.137-.09-.278-.074-.309.07-.11.496-.02.926.2l.414.203v2.949h.293zm-14.402.238a2.63 2.63 0 0 0-.149-.32c-.098-.203-.297-.453-.629-.785-.261-.27-.523-.512-.578-.54a1.07 1.07 0 0 0-.363-.054c-.285 0-.34.031-.867.488-.168.145-.383.297-.47.332-.132.059-.151.086-.105.145.079.09.536.32.641.32.055 0 .242-.082.422-.176.55-.293.789-.246 1.418.25.305.247.68.434.68.34zm11.82 0c0-.011-.063-.156-.145-.316-.097-.195-.304-.453-.632-.785-.27-.274-.528-.52-.582-.547-.125-.067-.567-.063-.696.008a4.72 4.72 0 0 0-.465.37c-.195.177-.437.352-.527.391-.137.059-.156.086-.113.145.074.09.531.32.644.32.047 0 .235-.082.418-.176.555-.293.793-.246 1.418.25.309.247.68.434.68.34zm0 0"/></svg>