<svg xmlns="http://www.w3.org/2000/svg" width="64pt" height="64pt" viewBox="0 0 64 64"><path d="M30.45 64.367A32.182 32.182 0 0 1 7.452 52.812 31.99 31.99 0 0 1 .993 40.16a32.406 32.406 0 0 1-.364-14.308c1.808-9.079 7.484-16.95 15.59-21.61.828-.48 2.597-1.355 3.445-1.715 7.492-3.144 15.926-3.363 23.52-.609a32.28 32.28 0 0 1 16.988 14.305c3.855 6.718 5.144 14.68 3.613 22.343C61.59 49.555 53.742 58.66 43.172 62.5a32.394 32.394 0 0 1-12.719 1.867zm-1.704-1.332c0-.55-.02-1-.035-1-.023 0-.25.102-.516.23l-.472.227v.7c0 .382.007.695.011.699.418.082.95.172.977.156.016-.008.035-.469.035-1.012zm5.559-.558v-1.32l-1.309.015-1.3.012-.012 1.242c-.008.683-.004 1.27.011 1.304.016.047.317.06 1.313.06h1.297v-1.317zm3.238 1.265c.187-.023.414-.058.5-.074l.156-.027v-2.485l-1.3.016-1.305.012-.012 1.242c-.008.683-.004 1.27.008 1.304.027.075 1.43.086 1.953.012zm4.484-1.137c.063-.023.075-.148.075-.738v-.71l-1.305.015-1.3.012-.013 1.023c-.011.563-.011 1.047.008 1.074.012.043.414-.054 1.242-.293.43-.125.864-.254 1.293-.383zm2.45-.93a22.09 22.09 0 0 0 1.074-.487c.015-.016-.461-.028-1.051-.028h-1.086v.488c0 .266.008.485.016.485.004 0 .48-.207 1.047-.457zM29.77 60.77l.488-.243v-2.332l-.5.235-.504.234-.012 1.172c-.004.648 0 1.176.012 1.176.016 0 .25-.11.516-.246zm4.523-1.915l.012-1.304h-2.633v1.285c0 .707.015 1.297.031 1.316.02.02.606.032 1.305.024l1.273-.016zm3.898 0l.012-1.304H35.57v1.285c0 .707.016 1.297.032 1.316.02.02.605.032 1.304.024l1.27-.016zm3.899 0l.015-1.304-1.308.015-1.3.012-.013 1.242c-.011.68-.007 1.27.008 1.301.02.055.297.063 1.305.055l1.277-.016zm6.625.63l1.16-.704.012-.617.02-.613h-2.59v2.636h.117c.07 0 .636-.312 1.28-.703zM18.754 58.16v-1.144l-.184-.114a16.643 16.643 0 0 0-.465-.27l-.277-.16.024 2.364.418.234c.226.13.425.235.445.235.02 0 .039-.512.039-1.145zm-1.465-.844v-1.16l-.156-.082a7.388 7.388 0 0 1-.461-.254l-.305-.175.012 1.175.012 1.184.414.234c.226.13.43.239.449.239.02 0 .035-.524.035-1.16zm10.973.09l.484-.242V56.02c0-.723-.02-1.145-.047-1.145s-.258.102-.512.227l-.464.23v1.156c0 .64.011 1.16.027 1.16.012 0 .242-.109.512-.242zm1.508-.722l.464-.227.012-1.156c.008-.75-.004-1.16-.039-1.16-.023 0-.254.105-.508.23l-.465.23v1.16c0 .634.016 1.153.036 1.153.023 0 .246-.105.5-.23zm4.535-1.45v-1.289h-2.633v2.586h2.633zm3.894 0v-1.289H35.57v2.586h2.63zm3.903 0v-1.289h-2.637v2.586h2.637zm3.898 0v-1.289h-2.586v2.586H46zm3.902 0v-1.289h-2.586v2.586h2.586zm-32.695-2.449c-.113-.082-.773-.45-.812-.45-.016 0-.028.52-.028 1.157v1.16l.45.254.449.25.011-1.156c.012-1.055.008-1.156-.07-1.215zm-6.652.418l.011-1.156H9.148v1.133c0 .625.016 1.156.04 1.175.015.016.328.028.69.02l.665-.016zm4.433 0l.016-1.156h-1.418v2.34l.695-.012.692-.016zm13.274.547l.484-.242v-1.145c0-.722-.02-1.144-.047-1.144s-.258.101-.512.23l-.464.227v1.16c0 .637.011 1.156.027 1.156.012 0 .242-.11.512-.242zm1.523-.727l.473-.214v-1.16c0-.731-.02-1.16-.051-1.16-.027 0-.254.1-.508.226l-.465.23v1.164c0 .637.016 1.153.043 1.145zm4.52-1.441v-1.289h-2.633v2.582h2.633zm11.695 0v-1.289h-2.586v2.582H46zm3.902 0v-1.289h-2.586v2.582h2.586zm-31.148-.047v-1.148l-.184-.114a23.142 23.142 0 0 0-.465-.273l-.28-.16.015 1.183.012 1.176.414.239c.226.132.43.238.449.238.02 0 .039-.512.039-1.14zm19.433-.43l.016-.816h-2.637v.793c0 .441.016.813.036.832.015.016.605.027 1.304.023l1.27-.019zm3.903 0l.012-.816h-2.637v.793c0 .441.02.813.039.832.016.016.605.027 1.3.023l1.27-.019zm-24.805-.414v-1.16l-.133-.074c-.152-.09-.312-.176-.465-.262l-.32-.183v2.34l.422.246c.234.136.445.25.465.25.02 0 .035-.52.035-1.157zm-8.965-.793V48.73H6.957v2.336H8.32zm2.242 0V48.73H9.149v2.336h1.418v-1.168zm2.192 0V48.73h-1.36v2.336h1.364v-1.168zm2.242 0V48.73h-1.41v2.336h1.41zm13.277.59l.47-.215V49.11c0-.73-.016-1.16-.048-1.16-.023 0-.254.102-.511.227l-.461.234v1.164c0 .637.015 1.153.039 1.145.02-.008.25-.114.511-.23zm1.532-.734l.449-.211v-1.164c0-.64-.012-1.164-.027-1.164-.02 0-.25.105-.512.226l-.485.23v1.169c0 .914.012 1.164.063 1.144l.512-.23zm4.496-1.906v-1.313l-1.305.012-1.3.016-.016 1.242c-.004.68 0 1.27.011 1.3.016.051.317.063 1.313.063H34.3zm3.898 0v-1.313l-1.3.012-1.31.016-.01 1.242c-.009.68-.005 1.27.01 1.3.016.051.317.063 1.317.063H38.2zm3.903 0v-1.313l-1.309.012-1.3.016-.016 1.242c-.008.68-.004 1.27.015 1.3.016.051.317.063 1.313.063h1.297zm3.898.004v-1.317h-2.586v2.633H46zm3.895 0v-1.317h-2.579v2.633h2.579zm-26.72-.594a.736.736 0 0 0-.195-.137c-.02 0-.035.293-.035.656v.653l.184.175.18.168.011-.695.02-.691zm-5.886.07v-1.156l-.137-.082a27.573 27.573 0 0 1-.465-.258l-.32-.184v2.344l.422.246c.234.133.445.242.465.246.02 0 .035-.52.035-1.156zm5.313.094v-.676l-.192-.156-.195-.156v1.37l.156.141c.086.082.176.149.195.149.02 0 .036-.301.036-.672zm-9.844-.887v-1.172H11.39v2.34h1.367zm2.238 0v-1.172h-1.41v2.34h1.41zm6.438.442v-.688h-.832v1.367h.832zm2.449-1.125l-.184-.172-.012.683-.015.684.187.168.18.172.012-.684.02-.68zm-.703-.567c-.09-.09-.176-.164-.2-.164-.02 0-.035.305-.035.68v.676l.184.16.18.16.011-.672.02-.68zm2.687.64v-.609h-.73v1.22h.73zm1.172 0v-.609h-.734v1.22h.734zm-4.59-1.273c-.09-.09-.176-.164-.199-.164-.02 0-.035.305-.035.68v.68l.363.3.024-1.336zm-3.695.18v-1.164l-.438-.246a4.39 4.39 0 0 0-.46-.25c-.016 0-.028.52-.028 1.16v1.156l.45.254c.245.14.452.258.46.258.008 0 .016-.527.016-1.168zm9.16.328v-.644l-.156-.16c-.086-.086-.172-.16-.195-.16-.02 0-.036.3-.036.671v.668l.157.133a.761.761 0 0 0 .195.137c.02 0 .035-.29.035-.645zm-6.492-.172l.012-.695h-.832v1.418l.402-.012.402-.02zm2.644-.254v-.675l-.39-.309v1.344l.152.16c.086.09.176.16.195.16.024 0 .043-.305.043-.68zm-6.859-1.941c-.117-.086-.777-.45-.812-.45-.016 0-.028.52-.028 1.16v1.157l.45.25.445.25.015-1.152c.012-1.055.004-1.16-.07-1.215zm12.074 1.555v-.676l-.168-.129a.871.871 0 0 0-.195-.125c-.016 0-.027.3-.027.664v.668l.156.133a.95.95 0 0 0 .195.14c.02 0 .04-.304.04-.675zm-5.949-.196v-.68l-.18-.152-.183-.152-.016.672-.012.664.157.164c.086.09.175.16.195.16.02 0 .039-.305.039-.676zm2.535-.004v-.632h-.73v1.265h.73zm1.172 0v-.632h-.734v1.265h.734zm6.68.364l.144-.075v-1.464l-.195.101-.195.098v.707c0 .465.015.707.05.707a.63.63 0 0 0 .192-.074zm-5.278-1.547a.909.909 0 0 0-.195-.133c-.023 0-.039.293-.039.652v.657l.367.343.012-.691.016-.691zm9.711.746v-.73h-.879v1.46h.88zm1.364 0v-.73h-.88v1.46h.88zm1.367-.004v-.734l-.43.015-.426.016-.011.652c-.008.364-.004.688.007.719.02.047.145.066.442.066h.414v-.734zm1.363.004v-.73h-.828v1.46h.828zm1.414 0v-.73h-.879v1.46h.88zm-37.558-.512v-1.176H4.738l-.011 1.122c-.008.617 0 1.148.011 1.187.016.047.18.059.696.047l.671-.012V43.2zm2.218 0V42H6.957v2.39H8.32zm2.22 0v-1.176H9.175l-.016 1.125c-.008.614-.004 1.149.012 1.184.02.047.18.059.695.05l.672-.015zm2.218 0V42H11.39v2.39h1.367zm2.215 0v-1.176h-1.364l-.023 2.372.695-.016.692-.012zm7.449-.511l-.184-.172-.015.683-.012.68.18.172.187.168.012-.68.02-.684zm23.176.886l.011-.5h-.636v1.028l.308-.016.305-.012zm-10.59.297l.168-.086v-.722c0-.391-.008-.72-.02-.72-.07.024-.133.052-.195.083l-.176.082v.722c0 .399.016.723.028.723.011 0 .101-.035.195-.082zm-7.246-1.465c-.09-.09-.176-.164-.2-.164-.019 0-.035.309-.035.684v.68l.364.296.011-.664.012-.668zm-6.356.645v-.684l-.804-.027v1.422l.402-.016.402-.012zm8.34-.899l-.176-.172v1.43l.16.125.157.121.015-.664.016-.668zm-5.68.59v-.676l-.39-.312v1.387l.156.132a.778.778 0 0 0 .195.141c.02 0 .04-.3.04-.672zm12.352.297l.176-.082v-.723c0-.394-.02-.722-.04-.714a.737.737 0 0 0-.195.09l-.156.097v.707c0 .39.008.711.02.711.011 0 .101-.035.195-.086zm-10.55-.672v-.61h-.731v1.223h.73zm1.171 0v-.61h-.734v1.223h.734zm20.734.43l.176-.082v-.723c0-.398-.011-.722-.023-.722a1.741 1.741 0 0 0-.196.085l-.171.083v.722c0 .395.007.723.023.723.012 0 .098-.043.191-.086zm-29.02-1.254v-1.145l-.183-.117a23.142 23.142 0 0 0-.465-.273l-.28-.16.015 1.183.012 1.18.414.234c.226.133.43.242.449.242.02 0 .039-.515.039-1.148zm9.688-.563a.767.767 0 0 0-.195-.144c-.023 0-.039.297-.039.66v.664l.184.164.183.172.012-.687.016-.68zm9.711.68v-.73h-.879v1.465h.88zm2.73 0v-.734l-.429.015-.426.012-.011.719-.012.723h.879zm7.802.656l.14-.074v-.703c0-.46-.015-.707-.05-.707a.672.672 0 0 0-.192.074l-.148.074v.708c0 .46.02.707.054.707a.603.603 0 0 0 .196-.079zm-3.079-.484v-.512h-.632v1.024h.632zm-23.003-.309v-.683l-.387-.309v1.344l.152.16c.086.09.176.16.195.16.02 0 .04-.304.04-.675zm27.882-.203v-.73h-.879v1.46h.88zm1.364 0v-.73h-.875v1.46h.875zm1.363 0v-.73h-.875v1.46h.875zm-25.297-.093v-.676l-.18-.16-.183-.16-.016.675-.012.672.157.168c.086.086.175.16.195.16.02 0 .04-.308.04-.676zm-10.625-.528v-1.156l-.137-.078c-.152-.09-.312-.176-.465-.262l-.32-.18v2.336l.422.246c.234.137.445.25.465.25.02 0 .035-.52.035-1.156zm17.719 1.074l.168-.082v-.722c0-.399-.016-.723-.035-.723a1.14 1.14 0 0 0-.196.098l-.16.097v.707c0 .391.016.707.028.707.011 0 .101-.039.195-.082zm-13.586-.71l-.016-.696-.402-.012-.402-.015v1.418h.832zm2.488-1.09c-.086-.09-.176-.164-.2-.164-.019 0-.034.304-.034.68v.675l.183.16.18.16.012-.675.02-.676zm11.95.609c0-.398-.008-.723-.028-.723-.059.02-.117.043-.168.07l-.148.079v1.457l.343-.164zm11.21-.148c0-.399-.008-.723-.02-.723-.007 0-.097.031-.195.074l-.171.074v1.457l.386-.156zm-21.203.18v-.61h-.73v1.219h.73zm1.172 0v-.61h-.734v1.219h.734zm-20.914-.708v-1.168h-1.41v2.336h1.41zm4.441 0v-1.168H9.148v2.336h1.418zm2.192 0v-1.168h-1.363v2.336h1.363zm2.238 0v-1.168h-1.41v2.336h1.41zm21.422 1.04l.176-.083v-.722c0-.399-.016-.723-.04-.723a1.103 1.103 0 0 0-.19.098l-.16.097v.707c0 .39.007.707.019.707.015 0 .101-.039.195-.082zm-13.238-1.56c-.086-.09-.176-.163-.2-.163-.02 0-.035.304-.035.68v.679l.184.148.18.153.011-.668.02-.664zm24.66 1.333c.043-.032.058-.239.058-.742 0-.387-.007-.704-.02-.704a.861.861 0 0 0-.194.082l-.172.086v1.438l.133-.059a.887.887 0 0 0 .195-.101zm-2.242-.63l-.012-.5-.305-.015-.308-.011v1.027h.64zm-17-.276v-.676l-.149-.13c-.082-.066-.172-.124-.195-.124-.027 0-.047.281-.047.644v.645l.16.16c.086.086.168.16.192.16.023 0 .039-.304.039-.68zm19.96.546l.169-.078v-1.445l-.172.066a1.267 1.267 0 0 1-.196.078c-.011 0-.02.329-.02.73 0 .403.013.731.024.731.012 0 .102-.035.196-.082zm-10.413-.78l-.016-.72H37.3l-.031 1.438h.886zm1.37-.017v-.73l-.421.012-.43.015-.027 1.438h.879zm1.368 0v-.73l-.426.012-.426.015-.015.72-.012.718h.879zm1.363.004v-.73h-.828v1.46h.828zm1.406.012l-.02-.719-.425-.015-.426-.012v1.465h.883zm-21.203-.824c-.086-.09-.176-.164-.195-.164-.02 0-.04.305-.04.68v.675l.364.293.012-.66.02-.66zm11.942 1.297l.156-.09v-.711c0-.39-.012-.707-.024-.707a1.04 1.04 0 0 0-.195.082l-.172.082v.719c0 .398.02.722.04.722.019 0 .105-.043.195-.097zm16.093-.778v-.73h-.875v1.46h.875zm1.364 0v-.73h-.875v1.46h.875zm4.097 0v-.73h-.828v1.46h.828zm-28.03-.035v-.672l-.165-.132a.909.909 0 0 0-.195-.133c-.016 0-.028.297-.028.668v.668l.157.136c.09.07.175.13.195.133.02 0 .035-.3.035-.668zm-6.481-.16v-.68h-.829v1.364h.829zm8.324-.832l-.156-.133-.02.684-.012.687.32.266.016-.684.012-.687zm5.281 1.441l.14-.078v-1.46l-.195.101-.195.098v.707c0 .457.02.707.05.707.071-.02.134-.043.196-.075zm-10.973-.847v-.684l-.367-.3-.023 1.335.152.164c.09.09.18.16.2.16.019 0 .038-.304.038-.675zm1.805-.004v-.633h-.73v1.266h.73zm1.168 0v-.633h-.73v1.266h.73zm8.68.46l.144-.077v-1.45l-.343.16v.72c0 .402.015.722.03.722a.632.632 0 0 0 .169-.074zm-16.965-1.12V37.03l-.184-.113c-.101-.059-.308-.184-.465-.27l-.28-.16.015 1.18.012 1.18.414.238c.226.129.43.234.449.234.02 0 .039-.515.039-1.144zm28.144.969l.172-.083v-.722c0-.399-.011-.723-.023-.723-.063.02-.129.051-.195.082l-.168.082v.723c0 .394.007.719.02.719.01 0 .1-.035.194-.078zm-17.617-.696v-.672l-.168-.132c-.062-.047-.125-.094-.195-.125-.016 0-.027.289-.027.64v.645l.156.164c.082.086.172.16.191.16.02 0 .043-.305.043-.68zm-6.129-1.027l-.183-.168-.016.68-.012.683.18.168.188.172.011-.684.02-.68zm13.293 1.437l.149-.078v-1.46l-.2.1-.19.099v.707c0 .46.015.707.05.707a.81.81 0 0 0 .191-.075zm9.153-.523l-.012-.5h-.59l-.012.5-.015.5h.64zm2.132.371l.168-.082v-.723c0-.398-.011-.722-.023-.722a1.04 1.04 0 0 0-.195.082l-.168.078v.722c0 .399.008.723.023.723.012 0 .098-.035.192-.078zM28.441 37.07a.786.786 0 0 0-.195-.133c-.023 0-.039.286-.039.645v.64l.367.372.012-.692.016-.699zm20.118 1.207l.168-.07v-1.469l-.196.102-.191.097v.704c0 .39.012.707.023.707.016 0 .106-.032.196-.07zM22.426 36.79l-.188-.172-.015.684-.012.683.18.168.187.172.012-.683.02-.68-.188-.172zm15.726.73v-.73h-.879v1.461h.88zm1.364 0v-.73h-.88v1.461h.88zm2.73 0v-.73h-.828v1.461h.828zm1.406-.011l.012-.719h-.883v1.465l.426-.012.426-.015zm-15.89-.996c-.086-.086-.176-.16-.2-.16-.019 0-.035.304-.035.675v.68l.364.293.011-.664.02-.66zm22.71.68l-.011-.72-.426-.015-.426-.012v1.465h.875zm1.376-.012v-.73h-.875v1.46h.875zm1.363-.004v-.73l-.426.011-.426.016-.011.718-.016.72h.879zm1.367 0v-.73l-.43.011-.421.016-.016.718-.012.72h.88zm1.367.004v-.73h-.828v1.46h.828zm-34.535-.024v-.683l-.402-.016-.403-.012v1.418l.403-.011.402-.016zm8.336-.898l-.176-.176v1.43l.317.25.02-.668.011-.664zm5.277 1.41l.157-.098v-.707c0-.39-.012-.707-.024-.707a.861.861 0 0 0-.195.082l-.176.082v.723c0 .395.024.719.04.719.019 0 .109-.043.198-.094zM6.125 36.547v-1.172h-1.41v2.34h1.41zm2.195 0v-1.172H6.957v2.34H8.32zm2.246 0v-1.172H9.148v2.34h1.418zm2.192 0v-1.172h-1.363v2.34h1.363zm13.11.558v-.609h-.731v1.219h.734v-.61zm1.171 0v-.609h-.73v1.219h.73zm-2.973-.257v-.68l-.39-.309v1.368l.156.148c.09.074.176.14.195.14.02 0 .04-.3.04-.667zm11.649.406l.148-.078v-1.457l-.343.16v.723c0 .398.015.722.027.722a.813.813 0 0 0 .168-.074zm-6.59-1.586a.723.723 0 0 0-.2-.145c-.019 0-.034.301-.034.668v.672l.183.153.18.152.016-.68.015-.672zm16.473.934l.015-.493h-.64v.477c0 .266.015.496.039.512.02.02.156.027.304.02l.27-.013.012-.5zm1.332.453l.14-.075v-1.46l-.191.097-.195.102v.707c0 .457.015.703.05.703a.744.744 0 0 0 .196-.074zm-23.598-.801v-.68l-.16-.125c-.063-.047-.125-.094-.195-.125-.016 0-.032.293-.032.645v.644l.153.16c.086.09.175.164.199.164.02 0 .035-.308.035-.683zm13.102.586l.16-.098v-.707c0-.39-.012-.71-.024-.71a1.741 1.741 0 0 0-.195.085l-.172.082v.723c0 .394.016.722.035.722.024 0 .106-.046.196-.097zm11.464-1.004c0-.457-.015-.707-.046-.707a.73.73 0 0 0-.2.078l-.14.074v1.461l.191-.097.195-.102zm-15.304.027v-.586h-.828v1.168h.828zm-9.992-.242v-.68l-.387-.308v1.344l.152.164c.086.09.176.16.195.16.02 0 .04-.309.04-.68zm25.976.574l.149-.05v-.727c0-.398-.008-.727-.02-.727-.07.024-.133.051-.195.086l-.172.082v.696c0 .383.02.699.039.699a.84.84 0 0 0 .2-.059zm-10.426-.726v-.73h-.879v1.464h.88zm1.364 0v-.73h-.88v1.464h.88zm4.144 0v-.73h-.879v1.464h.88zm-15.926-.973l-.183-.172-.012.684-.016.683.184.168.184.172.011-.683.02-.68zm-8.996.313l-.011-1.153-.415-.238a4.938 4.938 0 0 0-.449-.238c-.02 0-.035.52-.035 1.16v1.156l.399.23c.226.126.433.227.464.231.047 0 .063-.242.047-1.148zm7.13.539v-.61h-.731v1.219h.734v-.61zm1.171 0v-.61h-.73v1.219h.73zm-5.617-.18l-.012-.695-.402-.012-.403-.016v1.418h.829zm29.062-.04v-.73h-.879v1.465h.88zm1.364 0v-.73h-.875v1.465h.875zm1.363 0v-.73h-.875v.7c0 .386.016.715.031.73.02.02.215.035.438.035h.406zm1.367 0v-.73H53.7v.7c0 .386.016.715.031.73.024.02.22.035.446.035h.398v-.734zm1.367 0v-.73h-.828v1.465h.828zm-10.347-.28l.015-.496h-.64v1.03l.308-.019.305-.015.012-.493zM17.207 32.8c-.113-.086-.773-.446-.812-.446-.016 0-.028.52-.028 1.157v1.156l.899.504.011-1.152c.012-1.06.008-1.16-.07-1.22zm29.863 1.43c0-.391-.011-.708-.023-.708-.016 0-.102.032-.195.07l-.168.071v1.469l.195-.102.191-.097zm-23.89-.743c-.086-.086-.176-.16-.2-.16-.02 0-.035.305-.035.676v.68l.364.293.011-.664.02-.66zm9.414.668v-.586h-.828v1.168h.828zm1.27 0v-.586h-.829v1.168h.828zm-5.266-.238v-.68l-.149-.125a.603.603 0 0 0-.195-.125c-.027 0-.047.282-.047.64v.645l.16.164c.086.083.168.157.192.157.023 0 .039-.305.039-.676zm-22.493-.711v-1.172H4.738l-.011 1.121c-.008.617 0 1.149.011 1.184.016.047.18.058.696.05l.671-.015zm2.215 0v-1.195H6.957v2.386H8.32zm4.438 0v-1.195h-1.363v2.386h1.363zm2.215 0v-1.172h-1.364l-.011 1.121c-.008.617-.004 1.149.011 1.184.016.047.18.058.696.05l.668-.015zm7.476-.352c-.086-.085-.176-.16-.195-.16-.024 0-.04.305-.04.676v.68l.364.293.012-.664.02-.66zm26.11 1.317l.168-.082v-.723c0-.398-.008-.722-.02-.722-.07.023-.133.05-.195.082l-.172.082v.722c0 .399.012.723.023.723.012 0 .102-.04.196-.082zM25.87 33.57v-.633h-.734v1.266h.734zm1.168 0v-.633h-.73v1.266h.73zm17.344-.316c.008-.3-.004-.516-.035-.504a1.678 1.678 0 0 0-.243.2l-.203.183v.984l.461-.344zm-16.469.086v-.668l-.164-.137a1.077 1.077 0 0 0-.195-.133c-.016 0-.028.301-.028.664v.668l.157.137a.764.764 0 0 0 .195.137c.02 0 .035-.297.035-.668zm-6.48-.16v-.68h-.829v1.363h.829zm8.324-.832l-.16-.133-.028 1.355.317.285.02-.687.011-.684zm22.09.738v-.73h-.875v1.46h.875zm1.363 0v-.73h-.875v1.46h.875zm-29.145-.145v-.675l-.367-.32-.012.675-.015.676.156.16c.086.09.176.164.2.164.019 0 .038-.305.038-.68zm21.543.168v-.511h-.636v1.023h.636zm-16.328-.562v-.676l-.164-.125a.777.777 0 0 0-.195-.121c-.016 0-.031.285-.031.64v.645l.156.156c.086.09.172.164.195.164.02 0 .04-.304.04-.683zm3.313-.098v-.582h-.828v1.168h.828zm1.27 0v-.582h-.829v1.168h.828zm1.269 0v-.582H34.3v1.168h.832zm8.101.297c.13-.117.133-.133.133-.629v-.508l-.215.188-.215.191-.003.504c-.004.559-.024.547.3.254zm-24.48-1.191V30.41l-.137-.094c-.148-.097-.305-.187-.46-.277l-.329-.18v2.34l.426.246c.234.137.441.25.46.25.02 0 .04-.511.04-1.14zm28.976.96l.168-.081v-.723c0-.395-.011-.723-.023-.723-.066.024-.129.051-.195.082l-.168.082v.723c0 .398.008.723.023.723.012 0 .098-.035.192-.082zM22.45 30.91c-.09-.09-.177-.164-.2-.164-.02 0-.035.305-.035.68v.676l.18.156.183.148.024-1.336zm3.417.883v-.61h-.73v1.22h.73zm1.172 0v-.61h-.734v1.22h.734zm17.352-.441c0-.282-.008-.508-.028-.508-.015 0-.125.09-.242.199l-.219.203v1.02l.489-.407zm4.164.734l.172-.074V30.55l-.133.058c-.254.11-.254.106-.254.848 0 .387.008.7.02.7.007 0 .097-.036.195-.071zm-20.64-.668v-.645l-.157-.16c-.086-.086-.172-.16-.195-.16-.02 0-.036.305-.036.68v.676l.157.128a.816.816 0 0 0 .195.125c.02 0 .035-.289.035-.644zm-6.493-.172l.012-.695h-.832v1.418l.402-.012.402-.016zm21.02-.254v-.508l-.438.43v1.023l.437-.433zm-25.153-.281v-1.16l-.137-.078-.465-.262-.32-.18v2.34l.422.242c.234.14.445.25.465.25.02.004.035-.515.035-1.152zm12.457-.356l-.176-.168v1.41l.317.262.015-.668.016-.66zm15.863.88v-.489h-.636v.973h.632v-.485zm4.871-.247v-.73h-.875v1.46h.88v-.73zm1.368 0v-.73h-.875v1.46h.875zm1.363-.004v-.73l-.852.031-.011.719-.016.715h.879zm1.363 0v-.73l-.851.031-.024 1.434h.875zm1.371.004v-.73h-.828v1.46h.828zm-23.351-.191v-.586h-.828v1.168h.828zm2.535 0v-.586H34.3v1.168h.828zm1.27 0v-.586h-.833v1.168h.829v-.582zm-7.278-1.031a.806.806 0 0 0-.195-.141c-.02 0-.035.3-.035.672v.668l.183.156.18.149.012-.68.02-.688zm14.246.445v-.508l-.437.43v1.023l.437-.43zm-37.242-.293v-1.172h-1.41v2.34h1.41zm4.441 0v-1.172H9.148v2.34h1.418zm2.192 0v-1.172h-1.363v2.34h1.363zm2.238 0v-1.172h-1.41v2.34h1.41zm8.336.437v-.675l-.16-.125a1.056 1.056 0 0 0-.195-.13c-.016 0-.032.294-.032.65v.644l.153.156c.086.09.175.164.199.164.02 0 .035-.309.035-.684zm5.113-1.175a.952.952 0 0 0-.199-.137c-.023 0-.039.297-.039.656v.66l.184.168.183.172.016-.691.012-.692zm-2.574.855v-.61h-.734v1.223h.734zm1.168 0v-.61h-.73v1.223h.73zm-4.437-.312v-.676l-.364-.3-.011.663-.016.672.156.16c.086.09.176.164.195.164.02 0 .04-.308.04-.683zm21.78-.215c.009-.285-.003-.516-.027-.516-.02 0-.132.086-.242.192l-.21.187v.992l.23-.168.23-.175.02-.516zm3.567-.055c0-.46-.015-.707-.054-.707a.681.681 0 0 0-.196.078l-.14.07v1.461l.195-.097.195-.102zm-20.187-.836c-.086-.09-.176-.164-.2-.164-.019 0-.035.305-.035.68v.676l.18.164.184.156.011-.672.02-.68zm-6.352.64v-.683l-.402-.012-.403-.015v1.426l.403-.02.402-.012zm24.2.102v-.515h-.637v1.023h.636zm3.046.426l.168-.082v-.723c0-.398-.008-.722-.02-.722-.07.023-.132.055-.195.086l-.175.082v.722c0 .395.015.72.027.72s.102-.036.195-.083zm-16.062-.644v-.59h-.828v1.172h.828zm1.27 0v-.59h-.829v1.172h.828zm1.269 0v-.59H34.3v1.172h.832zm2.531 0v-.59h-.828v1.172h.828zm1.219 0v-.59h-.828v1.172h.828zm-14.817-.27v-.652l-.183-.176-.184-.168-.012.684-.015.691.16.137a.761.761 0 0 0 .195.136c.02 0 .04-.289.04-.652zm26.407-.09l.011-.718h-.879v.699c0 .386.016.715.036.734.02.016.21.027.425.02l.395-.016zm1.363 0l.016-.718h-.88v.699c0 .386.016.715.032.734.02.016.21.027.426.02l.394-.016zm1.375.012v-.73h-.875v.699c0 .386.016.715.031.734.02.016.215.027.438.027h.406zm1.367 0v-.73H53.7v.699c0 .386.016.715.031.734.024.016.22.027.446.027h.398v-.73zm-25.453-1.102c-.086-.09-.176-.164-.195-.164-.02 0-.04.305-.04.68v.676l.364.293.016-.66.015-.664zm-5.793.575v-.676l-.164-.125a1.077 1.077 0 0 0-.195-.133c-.016 0-.028.297-.028.656v.657l.157.148c.085.082.175.148.195.148.02 0 .035-.304.035-.675zm2.54-.008v-.633h-.735v1.266h.734zm1.167 0v-.633h-.73v1.266h.73zm19.89.414l.141-.074v-1.465l-.386.203v.703c0 .465.015.711.05.711a.64.64 0 0 0 .196-.078zm-18.484-1.567c-.086-.09-.175-.16-.195-.16-.023 0-.043.305-.043.676v.68l.367.289.016-.66.012-.66zm15.946.493c0-.282-.012-.508-.036-.508-.02 0-.128.094-.242.207l-.207.203v1.012l.239-.203.246-.204zm3.507-.141c0-.465-.015-.707-.046-.707a.712.712 0 0 0-.2.07l-.14.078v1.461l.191-.101.195-.098zm-25.296.176v-.672l-.192-.156-.195-.157v1.372l.156.14c.086.082.176.149.195.149.02 0 .036-.305.036-.676zm19.84-.395v-.508l-.438.43v1.02l.437-.43zm-9.848.242v-.585h-.828v1.168h.828zm1.27 0v-.585h-.829v1.168h.828zm1.269 0v-.585H34.3v1.168h.832zm1.265 0v-.585h-.828v1.168h.828zm1.266 0v-.585h-.828v1.168h.828zm1.219 0v-.585h-.828v1.168h.828zm6.715-.011l-.012-.5h-.582l-.02.5-.011.496h.64zm-24.164-.282v-.683h-.829v1.363h.829zm27.144.63l.149-.055v-.727c0-.398-.008-.723-.02-.723-.07.02-.133.047-.195.079l-.172.082v.699c0 .383.02.695.039.695a1.2 1.2 0 0 0 .2-.05zm-24.691-1.75l-.188-.169-.012.68-.015.684.187.168.18.172.016-.684.015-.68zm26.597.683v-.73h-.879v1.46h.88zm2.727 0v-.73h-.875v.695c0 .387.016.715.031.73.02.02.215.035.438.035h.406zm1.367 0v-.73H53.7v.695c0 .387.016.715.031.73.024.02.22.035.446.035h.398v-.73zm1.367 0v-.73h-.828v1.46h.828zm-12.578-.29v-.51l-.437.429v1.023l.437-.43zm-14.086.048v-.676l-.39-.309v1.344l.156.156c.086.09.172.165.195.165.02 0 .04-.305.04-.68zm-3.41-.028v-.613h-.734v1.223h.734zm1.168 0v-.613h-.73v1.223h.73zm-3.86-.984c-.085-.086-.175-.16-.199-.16-.02 0-.035.305-.035.68v.675l.364.301.011-.664.02-.668zm23.891.317c0-.395-.011-.72-.023-.72-.016 0-.102.028-.195.067l-.168.07v1.461l.195-.086.191-.078v-.718zm-18.472.109v-.68l-.164-.125a1.007 1.007 0 0 0-.192-.125c-.02 0-.035.293-.035.645v.644l.16.16c.086.09.168.16.192.16.023 0 .039-.304.039-.68zm15.793-.211v-.527l-.489.421v.997l.243-.176.246-.184zm-11.797.16v-.582h-.828v1.168h.828v-.59zm1.27 0v-.582h-.829v1.168h.828v-.59zm3.8 0v-.582h-.828v1.168h.828v-.59zm1.219 0v-.582h-.828v1.168h.828v-.59zm-16.434-1.008c-.086-.086-.176-.164-.195-.164-.024 0-.04.309-.04.684v.676l.364.3.012-.664.02-.668-.16-.16zm19.992.528v-.508l-.207.168-.207.176-.011.52-.016.523.438-.372zm3.157.203l.015-.5h-.64v1.027l.308-.016.305-.015zm-17.684-.219v-.645l-.152-.16c-.086-.09-.176-.164-.196-.164-.023 0-.039.305-.039.676v.668l.157.129a.761.761 0 0 0 .195.137c.02 0 .035-.29.035-.641zm-11.742-.16v-.707h-.832v.676c0 .367.015.683.035.703.016.02.203.035.41.035h.387zm1.312 0v-.707h-.828v.676c0 .367.016.683.035.703.016.02.204.035.414.035h.38zm1.309-.012l.012-.695h-.832v1.418l.402-.016.402-.012zm1.316 0l.012-.695h-.832v1.418l.402-.016.399-.012zm1.313 0l.012-.695h-.829v1.418l.403-.016.402-.012zm8.336-.84l-.16-.144-.028 1.375.317.265.02-.675.011-.676zm13.61.246v-.515l-.438.43v1.027l.437-.43zm-17.509.13l.012-.622h-.734v1.27l.351-.012.36-.02.011-.62zm1.18.011v-.637h-.73v1.274h.73zm23.445-.094v-.734h-.879v1.465h.88zm1.364 0v-.734h-.875v1.465h.875zm1.363 0v-.734h-.875v1.465h.875zm1.367-.004v-.734l-.43.016-.421.011-.016.657c-.008.363-.004.687.012.718.015.043.144.067.437.067h.414v-.735zm1.367.004v-.734h-.828v1.465h.828zm-26.664-.093v-.68l-.168-.125a1.056 1.056 0 0 0-.195-.13c-.016 0-.027.302-.027.669v.668l.156.133c.062.054.129.101.195.136.02 0 .04-.304.04-.672zm-5.949-.2v-.68l-.363-.3-.012.668-.016.668.157.164c.086.09.175.16.199.16.02 0 .035-.309.035-.68zm9.262-.152v-.582h-.828v1.168h.828zm1.27 0v-.582h-.829v1.168h.828zm1.269 0v-.582H34.3v1.168h.832zm1.265 0v-.582h-.828v1.168h.828zm1.266 0v-.582h-.828v1.168h.828zm1.219 0v-.582h-.828v1.168h.828zm8.02.309l.167-.079v-1.445l-.172.07a1.304 1.304 0 0 1-.199.075c-.008 0-.015.328-.015.73 0 .402.007.734.02.734.015 0 .1-.039.198-.085zm-24.481-1.622l-.184-.171-.015.683-.012.68.18.172.187.168.012-.68.02-.684zm19.832 1.282l.187-.18v-1.027l-.437.433v.477c0 .262.016.48.035.48.016 0 .113-.086.215-.183zm3.344-.465l-.012-.5h-.582l-.02.5-.011.496h.64zm2.132.367l.168-.082v-1.445l-.171.074a1.542 1.542 0 0 1-.196.074c-.011 0-.02.328-.02.73 0 .403.012.731.024.731s.098-.035.195-.082zm-19.968-1.46c-.086-.09-.176-.161-.2-.161-.019 0-.035.3-.035.676v.68l.364.288.011-.66.02-.66zm-10.278.64v-.707h-.828v1.414h.828zm1.317 0v-.707h-.828v1.414h.828zm1.316 0v-.707h-.828v1.414h.828zm1.293 0v-.68l-.402-.012-.403-.02v1.423l.403-.012.402-.016zm27.176.39l.14-.074v-1.465l-.386.203v.704c0 .46.02.71.05.71a.705.705 0 0 0 .196-.078zm-24.52-.699v-.672l-.39-.312v1.386l.156.133a.992.992 0 0 0 .195.14c.02 0 .04-.304.04-.675zm19.301-.246v-.512l-.437.43v1.023l.437-.43zm-17.496.238v-.633h-.734v1.266h.734zm1.168 0v-.633h-.73v1.266h.73zm23.434-.375l-.012-.718h-.828l-.016.718-.012.715h.88zm1.363 0l-.012-.718h-.828l-.016.718-.011.715h.883zm1.375-.015v-.735l-.426.02-.426.012-.011.718-.016.715h.879zm-21.844-.012l.012-.57H30.5v1.172l.426-.012.426-.016zm1.227.012v-.582h-.828v1.168h.828zm1.27 0v-.582h-.829v1.168h.828zm5.019 0v-.582h-.828v1.168h.828zm-15.551-.188v-.676l-.164-.128a.871.871 0 0 0-.195-.125c-.016 0-.028.285-.028.644v.64l.153.165c.086.082.175.156.199.156.02 0 .035-.305.035-.672zm21.059-.406v-.527l-.246.207-.243.21v1l.489-.363zm2.539.523l.14-.078v-1.46l-.191.1-.195.099v.707c0 .457.015.703.05.703a.9.9 0 0 0 .196-.07zm-4.492-.847c.003-.563.019-.547-.301-.258-.13.117-.133.137-.133.633v.508l.215-.188.215-.191zm-19.836.097v-.68l-.387-.308v1.344l.152.16c.086.086.176.16.195.16.02 0 .04-.305.04-.676zm22.996.106l.015-.5h-.64v1.027l.308-.012.305-.02zm2.16.207l.14-.078v-1.453l-.195.086-.191.078v.718c0 .473.015.72.05.72a.831.831 0 0 0 .196-.071zm-31.586-.785v-.707l-.402.011-.407.02-.023 1.387h.832zm1.312 0v-.707l-.402.011-.398.02-.02.691-.012.696h.832zm2.625.015l-.02-.691-.398-.02-.402-.011v1.418h.832zm1.313 0l-.012-.691-.402-.02-.403-.011v1.418h.829zm27.144.34l.16-.055v-.722c0-.395-.007-.719-.023-.719a.928.928 0 0 0-.195.07l-.168.07v.708c0 .39.015.71.031.71.02 0 .106-.023.195-.054zm-13.433-.668v-.586H34.3v1.172h.832zm1.265 0v-.586h-.828v1.172h.828zm2.485 0v-.586h-.828v1.172h.828zm11.59-.402l.011-.719h-.879v1.465l.426-.016.43-.011zm1.375.012v-.73h-.875v.698c0 .387.011.711.03.73.017.016.216.032.438.032h.407zm1.363 0v-.73h-.875v.698c0 .387.016.711.031.73.02.016.215.032.438.032h.406zm1.367 0v-.73H53.7v.698c0 .387.016.711.031.73.024.016.22.032.446.032h.398v-.73zm1.367 0v-.73h-.828v1.46h.828zm-11.765.214l.21-.171v-.508c0-.282-.011-.512-.035-.512-.02 0-.128.094-.242.207l-.207.203v.477c0 .265.012.48.028.48.015 0 .125-.078.246-.176zM22.45 18.97c-.087-.094-.177-.168-.196-.168-.024 0-.04.308-.04.68v.675l.18.153.184.14.012-.656.02-.664-.16-.164zm23.148.996l-.012-.5h-.582l-.02.5-.011.496h.64zm2.3-.797c0-.457-.015-.707-.046-.707a.73.73 0 0 0-.2.078l-.14.074v1.461l.191-.097.195-.102zm-30.414.121v-.68h-.828v1.368h.828zm1.317 0v-.68h-.828v1.368h.828zm1.316 0v-.68h-.828v1.368h.828zm1.317 0v-.68h-.829v1.368h.829zm9.933-.012l.012-.566H30.5v.547c0 .305.012.566.035.586.02.023.211.031.426.023l.39-.012zm1.227.012v-.582h-.828v.55c0 .305.02.567.035.587.015.02.203.035.414.035h.379zm1.27 0v-.582h-.829v.55c0 .305.016.567.031.587.02.02.204.035.414.035h.383zm1.269 0v-.582H34.3v1.172h.832zm1.265 0v-.582h-.828v1.172h.828zm1.266 0v-.582h-.828v1.172h.828zm1.219 0v-.582h-.828v1.172h.828zm4.484-.336v-.512l-.437.43v1.027l.218-.218.22-.215zm-19.3.098v-.68l-.368-.3-.012.667-.015.668.156.164c.086.09.176.157.2.157.019 0 .038-.305.038-.676zm24.492.5l.168-.082v-.723c0-.398-.008-.723-.02-.723-.07.024-.133.051-.195.086l-.172.082v.72c0 .398.012.722.023.722.012 0 .102-.04.196-.082zm1.925-1.09v-.73h-.879v1.46h.88zm1.364 0v-.73h-.875v1.46h.875zm1.363 0v-.73h-.875v1.46h.875zm1.367 0v-.734l-.43.015-.421.012-.016.66c-.008.356-.004.68.012.719.015.043.144.058.437.058h.414v-.73zm1.367 0v-.73h-.828v1.46h.828zm-32.793-.828l-.183-.168-.012.68-.016.683.188.168.18.172.011-.684.02-.68zm21.239.57v-.527l-.489.406v1.016l.243-.188.242-.18zm-1.95-.273v-.512l-.437.43v1.023l.437-.43zm3.157.156l.015-.5h-.64v.477c0 .265.015.496.039.515.02.016.156.031.304.02l.27-.016zM22.426 17l-.188-.168-.015.68-.012.683.18.168.187.172.012-.683.02-.68-.188-.172zm8.941.621l.012-.57H30.5v1.172l.426-.012.426-.016zm1.227.012v-.582h-.828v1.168h.828zm-16.422-.266v-.707h-.832v.672c0 .371.015.691.035.707.016.02.203.031.41.031h.387zm1.312 0v-.707h-.828v1.41h.828zm1.317 0v-.707h-.828v1.41h.828zm1.308-.012l.012-.695h-.832v1.414l.402-.012.399-.015zm1.301.012v-.683l-.402-.012-.403-.016v1.418l.403-.012.402-.015zm2.656-.308v-.676l-.39-.313v1.367l.156.149c.09.082.176.144.195.144.02 0 .04-.304.04-.671zm20.141.027l.184-.14v-.512c0-.282-.02-.508-.043-.497a1.639 1.639 0 0 0-.243.2l-.203.183v.489c0 .535-.011.523.305.277zm-20.875-.617v-.684l-.16-.125a1.275 1.275 0 0 0-.195-.125c-.016 0-.032.293-.032.645v.644l.153.16c.086.09.175.164.199.164.02 0 .035-.304.035-.68zm19.11-.293c0-.559.015-.543-.305-.254-.13.117-.133.137-.133.629v.508l.219-.188.215-.187zm3.167.117v-.512h-.636v1.024h.636zm1.27 0v-.512h-.586v1.024h.586zm1.312 0v-.512h-.582v1.024h.582zm2.633-.004v-.512l-.304.016-.301.016-.02.433c-.008.238-.004.461.016.5.015.043.117.063.316.063h.293zm1.317.004v-.512h-.586v1.024h.586zm-20.774-.305l-.015-.57-.426-.016-.426-.011v1.171h.879zm1.227-.011v-.582h-.828v1.168h.828zm1.27 0v-.582h-.829v1.168h.828zm2.534 0v-.582h-.828v1.168h.828zm1.266 0v-.582h-.828v1.168h.828zm1.219 0v-.582h-.828v1.168h.828zm-16.281-.141v-.68l-.192-.152-.195-.16v1.347l.152.16c.086.09.176.16.195.16.02 0 .04-.3.04-.675zm20.765-.426v-.512l-.219.188-.218.184v1.003l.437-.355v-.512zm-28.476-.027l-.016-.695-.402-.016-.399-.012v1.414h.832zm5.218 0l-.02-.695-.398-.016-.402-.012v1.414h.832zm1.301-.016v-.68l-.402-.015-.403-.012v1.418l.403-.015.402-.012zm22.77-.05l.21-.176v-.508c0-.278-.011-.508-.035-.508-.02 0-.128.09-.242.207l-.207.2v.48c0 .265.012.48.028.48.015 0 .125-.078.246-.176zm-21-1.618c-.086-.086-.176-.16-.2-.16-.02 0-.035.305-.035.676v.68l.364.293.011-.665.02-.66zm22.418.805l-.012-.5h-.582l-.02.5-.011.496h.64zm5.226-.016v-.515l-.304.015-.301.012-.02.504-.011.496h.636zm1.317 0v-.511h-.586v1.027h.586zm-20.774-.324l.012-.578H30.5v.555c0 .304.012.566.035.586.02.023.211.03.426.023l.39-.016zm2.496.008v-.586h-.828v1.172h.828zm1.27 0v-.586H34.3v1.172h.832zm1.265 0v-.586h-.828v1.172h.828zm1.266 0v-.586h-.828v1.172h.828zm1.219 0v-.586h-.828v1.172h.828zm-16.434-1.106c-.086-.086-.176-.16-.195-.16-.024 0-.04.305-.04.676v.68l.364.293.012-.664.02-.66zm20.91.551l.012-.523-.437.37v.509l-.004.507.207-.175.207-.168zm-29.773-.226v-.68h-.828v1.363h.828zm1.316 0v-.68h-.828v1.363h.832v-.683zm1.27 0v-.68h-.832v1.363h.832zm1.312 0v-.68h-.828v1.363h.828zm2.633 0v-.68h-.828v1.363h.828zm1.317 0v-.68h-.829v1.363h.829zm2.453-1.07l-.188-.169-.012.68-.015.684.187.168.18.171.016-.683.015-.68zm20.504.519v-.527l-.489.406v1.02l.243-.184.242-.188zm-1.95-.27v-.511l-.437.43v1.023l.437-.434zm-19.261-.816c-.086-.09-.176-.164-.196-.164-.023 0-.039.305-.039.68v.675l.184.16.18.16.011-.675.02-.676zm22.418.969l.015-.5h-.64v.48c0 .262.015.496.039.516.02.015.156.027.304.02l.27-.016zm1.28.011v-.511h-.585v1.023h.586zm1.313 0v-.511h-.582v1.023h.582zm1.317 0v-.511h-.586v1.023h.586zm1.316 0v-.511h-.633v.48c0 .262.012.496.036.512.015.02.156.031.316.031h.281zm1.317 0v-.511h-.586v1.023h.586zm-8.782-.925l-.015-.485-.207.184-.207.191v1.035l.441-.441zm-20.91-.692c-.086-.09-.176-.164-.195-.164-.02 0-.04.309-.04.68v.68l.364.3.012-.664.02-.672zm-8.863.348v-.707h-.828v.676c0 .37.015.687.031.703.016.023.207.039.414.039h.383zm3.898 0v-.707h-.828v.676c0 .37.02.687.035.703.016.023.204.039.414.039h.38zm1.309-.012l.012-.695h-.832v1.422l.402-.016.402-.012.016-.695zm1.316 0l.012-.695h-.828v1.422l.398-.016.403-.012.015-.695zm1.313 0l.015-.695h-.832v1.422l.403-.016.402-.012.012-.695zm22.789.266l.184-.14v-.513c0-.28-.024-.504-.047-.496a2.983 2.983 0 0 0-.243.2l-.199.183v.492c0 .54-.015.524.305.274zm-1.77-.903v-.507l-.414.34-.011.523-.016.52.223-.184.218-.184zm4.438.114v-.512h-.586v1.023h.586zm2.633 0v-.512h-.586v1.023h.586zm2.629 0v-.512h-.586v1.023h.586zm-28.809-.364v-.68l-.16-.12a.806.806 0 0 0-.195-.13c-.016 0-.032.294-.032.65v.64l.157.16c.085.09.171.16.195.16.02 0 .035-.305.035-.68zm-.73-.632v-.676l-.364-.301-.011.664-.016.668.156.164c.086.086.176.164.2.164.019 0 .035-.308.035-.683zm-7.696-.465v-.707h-.828v1.414h.828zm1.266-.004v-.707l-.402.015-.403.012-.015.695-.012.696h.832zm1.312.004v-.707h-.828v1.414h.828zm1.317 0v-.707h-.828v1.414h.832v-.707zm2.61 0v-.684l-.403-.015-.403-.012v1.422l.403-.012.402-.02zm22.984-.2c0-.28-.016-.507-.04-.507a1.4 1.4 0 0 0-.242.203l-.207.207v1.012l.489-.407zm-2.137.434l.183-.183V8.5l-.437.43v.476c0 .262.016.477.035.477.016 0 .117-.082.219-.18zm3.34-.562l-.012-.5h-.582l-.02.5-.011.496h.64zm1.28-.016v-.512l-.28.016-.282.012-.011.5-.016.496h.59zm1.317.004v-.512h-.586v1.02h.586zm1.317 0v-.512h-.586v1.02h.586zm2.629 0v-.512h-.586v1.02h.586zm-8.774-.899V7.72l-.215.215-.222.214v1.024l.437-.43zm1.028-.75v-.527l-.247.207-.242.203v1.004l.242-.18.247-.18zm1.203-.117l.015-.5h-.636v1.028l.609-.032zm3.914.012v-.516h-.586v1.028h.586zm1.312 0v-.516h-.633v.48c0 .263.012.493.036.513.015.015.156.035.316.035h.281zm0 0"/></svg>