<svg xmlns="http://www.w3.org/2000/svg" width="64pt" height="64pt" viewBox="0 0 64 64"><path d="M31.793 0C14.234 0 0 14.234 0 31.793 0 49.355 14.234 63.59 31.793 63.59c17.562 0 31.797-14.235 31.797-31.797C63.59 14.234 49.355 0 31.793 0zm7.895 22.375c.054.012.109.035.148.074.082.137-.05.38-.191.375.05.059.082.367-.16.59-.102.18.3.113-.16.422-.083.09-.294.133-.321.285.207.219.5.453.707.723.36.453.457.832.605 1.32-.77.313-1.39-.367-2.046-.66.207-.367-.055-.766-.278-1.024-.226.18-.375.434-.644.524-.118.039-.332.117-.176-.137.043-.234.027-.547.176-.77-.48.13-1.23-.179-1.375-.257-.325.273-.657.734-1.082.883-.164.058-.328.047-.536-.024-.093.07-.242.45-.796.258-.383-.148-.598-.281-.942-.484-.133-.09-.183-.153-.14-.266.07-.145.222-.027.343.035.2.113.414.223.528.274.215.062.433.222.664.004-.399-.22-.801-.637-1.016-.868-.094-.101-.238-.312-.164-.496.074-.07.125-.07.211-.05.129.136-.016.23.305.5.543.44 1.07.89 1.422.746.328-.141.617-.407.875-.696-.258-.183-.934-.605-.891-.87 0-.145.195-.102.3-.044.301.184.423.434.938.645.485.191.668.27 1.18.27-.094-.071-.274-.16-.234-.458.265-.144.476.29.84.133.456-.281.91-.926 1.605-.746.05-.11.164-.23.304-.211zm-23.88.723c.133-.004.266.004.399.03l.648.24c.266.132.27.175.438.445-.008.113-.16.136-.25.07a4.034 4.034 0 0 0-1.09-.324c-.144.023-1.094.148-2.687.949-.735-.324-2.239.14-2.262.129 0 .082.14.3-.211.71-.125-.265-.293-.292-.586.137-.11-.261.152-.64-.402-.43.53-.523.054-.359-.098-.585.461.086.094-.352.246-.387.215-.07.383.211.457-.129.309.434.332.14.594.219.703-.043 1.43-.418 2.187-.125.735-.211 1.688-.922 2.614-.95zm-9.39.511a.933.933 0 1 1-.006 1.866.933.933 0 0 1 .006-1.866zm22.492.086c.899-.035 1.652.028 2.094.203.07.047.031.125-.05.157-2.118-.078-7.044.129-9.376 1.949-.137-.043-.117-.168-.066-.223.738-1.082 4.71-1.996 7.398-2.086zm-11.105.504c.074-.015.156 0 .246.074l.117.141v.004c.11.172.086.336.129.535-.184.133-.098-.035-.238.102.062.218.14.539.453.601.133.032.312.063.238.207-.016.082-.145.133-.184.207.305.012.223.29.157.32.27.29.601.376.941.243.164-.051.328-.395.39-.473.227.363-.046.711-.144.785-.168.196-.43.27-.637.39-.144.02-.296.02-.425.071.047.164.004.324-.145.407-.2.144-.164.132-.566.128-.219-.007-.34.028-.39-.09-.005.266-.212.31-.411.317h-.191c-.075-.004-.157-.105-.204-.18a.573.573 0 0 1-.015-.386c-.164-.059-.485.152-.531-.122-.028-.246.171-.347.23-.558-.113-.117-.348-.02-.39-.227-.028-.144.058-.375.19-.41-.382-.25-.503.332-.76.145-.099.261-.317 0-.337-.145-.11-.14.05-.32 0-.484.004-.418.465-.418.586-.793.25-.024.305-.309.531-.344.137.012.242.14.375.094.09-.113.172-.301.34-.301.235.113.422-.215.645-.258zm13.988.73c.156-.011.168.051.293.184.293.317.633.403.977.551 1.386-.27 2.644.633 4.644.34.336.055.563.36.883.476.488.38 1.156.536 1.836.48.133.34.008.661-.094.821.445.074.848.149 1.246.27.176.265-.144.515-.246.676-.281.16-.25.488-.46.722-.184.344-.329.7-.485 1.051-.114.133-.23.18-.422.234-.387-.023-.473-.047-.89-.144-.352-.207.109-.918.394-.875.183.101.308.117.496.148.133-.16.398-.972.46-1.175-.507.035-1.01.156-1.495.285-.344.254-.852.152-1.211.336-.918.152-1.938.086-2.774-.356-.46.418-1.18.387-1.722.379-.457-.031-1.254-.133-1.688-.5-.437.426-.734.984-1.21 1.453-.204.352-.65.285-1.036.219a1.299 1.299 0 0 1-.387-.149c-.113-.289.02-.652.227-.847.387.02.508.328.86.3.515-.609.698-1.363 1.226-1.898.316-.105.598.242.957.176-.094-.34-.246-.637-.121-1.156.047-.25.234-.594.355-.844-.039-.203-.59-.492-.77-.824-.081-.16-.034-.325.157-.332zm18.82.048c.051.011.106.035.149.074.078.133-.055.379-.196.375.051.062.082.367-.16.586-.101.18.301.113-.16.418-.086.097-.293.14-.32.293.207.215.5.453.707.726.355.45.457.828.605 1.317-.77.312-1.39-.368-2.047-.66.204-.368-.058-.766-.277-1.032-.23.18-.375.442-.644.531-.122.04-.333.118-.176-.136.043-.239.027-.551.176-.77-.485.13-1.23-.18-1.375-.262-.325.278-.657.735-1.083.887-.16.055-.328.043-.53-.027-.098.07-.247.453-.802.258-.382-.149-.593-.278-.94-.485-.134-.086-.188-.152-.142-.261.067-.149.223-.032.344.035.203.117.414.218.524.277.218.059.437.219.672 0-.403-.219-.813-.633-1.02-.867-.098-.106-.238-.313-.168-.492.07-.075.129-.075.215-.055.129.133-.016.23.3.496.547.442 1.075.89 1.422.746.333-.137.622-.402.88-.691-.258-.184-.938-.61-.891-.875 0-.14.195-.094.3-.043.301.183.422.437.938.644.484.196.668.274 1.18.274-.094-.067-.278-.16-.235-.457.266-.149.477.289.84.133.457-.286.906-.926 1.602-.75.054-.11.172-.227.312-.207zm-37.343.175c.48.285 1.21.524 1.59.301-.083.07-.087.5-.196.559-.473.027-1.152-.172-1.398-.29-1.137.368-1.508-.39-1.547-.413.258-.102 1.344.046 1.55-.157zm-10.72.301l.723.613-.593.692-.715-.617zm18.384.758c.18.035-.188.906.402.398.184-.207.379-.398.602-.324.152.074.21.137.269.336.02.223.043.442-.125.606-.133.156-.324.257-.5.34-.344.163-.738.292-1.066.085-.137-.082-.203-.218-.246-.355.128-.195.285-.383.34-.625.113-.418.187-.473.324-.461zm-14.914.246c.125.207 1.105 1.32 1.183 1.836-.277.21-.848.664-1.055.785-.175-.23-.343-.469-.503-.71-.012-.02-.145.57-.27.53-.074-.027-.113-.168-.195-.195-.086-.027.183-.246.265-.45-.136-.007-.554.024-.562.013-.02-.032-.11-.266-.133-.297-.031-.043.668.058.637.015a11.59 11.59 0 0 1-.39-.617c.026-.14.796-.793 1.026-.91zm3.043.105a.258.258 0 0 1 .187.067c.035.05.063.223.078.285l.082.043c.11-.246.235-.273.262-.258.023.016.203.043.18.192-.18.015-.332.125-.317.132.14.07.348.16.488.239-.273.808-.511 1.293-.78 1.601-.407-.047-.598-.125-1.513-.535.122-.312.543-1.41.813-1.691.21.078.398.129.59.195.086.027-.031-.11-.184-.227.008-.02.055-.039.114-.043zm52.53.672c.06.012.11.04.15.078.085.133-.052.375-.192.372.05.066.082.37-.164.59-.098.18.3.113-.157.417-.085.094-.292.141-.32.29.207.218.496.453.703.726.364.45.461.828.606 1.32-.766.313-1.39-.37-2.043-.664.203-.367-.055-.765-.278-1.027-.23.18-.375.441-.644.527-.121.043-.332.117-.176-.136.043-.235.027-.547.176-.77-.484.129-1.23-.18-1.375-.258-.324.274-.656.73-1.078.883-.168.059-.332.047-.535-.027-.098.074-.243.453-.805.261-.375-.148-.594-.28-.938-.484-.136-.09-.183-.152-.144-.266.07-.148.223-.027.344.036.207.113.418.222.53.273.216.063.434.223.665.008-.398-.219-.805-.637-1.016-.871-.093-.102-.242-.317-.168-.496.075-.07.13-.07.22-.051.12.137-.02.23.3.5.543.441 1.07.89 1.418.746.328-.14.625-.406.879-.691-.258-.192-.938-.61-.89-.875 0-.141.194-.098.304-.043.293.183.418.433.937.644.485.192.664.274 1.176.274-.09-.075-.273-.165-.23-.457.261-.149.476.285.836.128.457-.28.91-.921 1.601-.746.059-.11.172-.23.309-.21zm-18.878.293c.156-.007.164.055.293.184.293.316.633.406.972.555 1.391-.278 2.645.632 4.645.34.34.054.57.355.887.476.488.375 1.156.535 1.836.477.132.34.007.66-.094.82.445.078.844.148 1.246.273.176.266-.145.512-.246.672-.277.156-.254.492-.465.727-.18.34-.324.699-.48 1.05-.114.133-.23.18-.422.231-.387-.023-.477-.043-.895-.145-.347-.203.117-.914.39-.867.188.094.313.114.505.145.133-.16.398-.973.46-1.176-.507.031-1.011.152-1.495.285-.344.254-.848.153-1.207.332-.926.153-1.942.09-2.774-.347-.465.41-1.184.378-1.726.37-.458-.03-1.258-.128-1.688-.5-.434.43-.734.985-1.21 1.454-.204.355-.653.285-1.036.219a1.359 1.359 0 0 1-.387-.145c-.11-.289.02-.652.23-.852.387.028.508.333.856.301.516-.605.7-1.36 1.23-1.902.317-.102.587.25.954.176-.094-.336-.246-.633-.121-1.153.047-.254.234-.593.355-.84-.039-.207-.59-.496-.77-.832-.081-.156-.035-.32.157-.328zm-23.031.098c.132-.012.152.047.152.207a.94.94 0 0 1 .809.254c.168.25-.024.402-.207.59-.387.183-.485.402-.758.37-.125-.058-.426-.136-.465-.284-.027-.012.07-.836.297-1.098a1.9 1.9 0 0 1 .172-.039zm-4.09.098c.441.039.355.355.054.59-.261.21-.25.585-.214.87.3.747.968.915 1.902.864.648.05 1.547-.899 1.547-.899.137.278.402.313.762.301-.028.082-.375.696-.645.801 3.371.328 3.738-.074 7.012-1.816.21.043.324.285.312.441 0 .34-.328.395-.527.61.043.183.371.12.281.46-.09.207-.39.301-.488.47-.41.089-.371 1.179-.66 1.687-.188.285-.59.441-1.078.55-1.622.368-7.602 2.278-8.856 1.864-1.394-.504-.898-1.88-1.504-2.637-.457-.5-1.058-.668-1.594-.477-.656.192-.308-.039-.933.23-.695.243-.934-.64-.75-.804.476-.371.617-.27 1.21-.328-.16-.223-.421-.54-.421-.54-.54-.148-1.055.083-1.484.321-.149.047-.22.227-.66.137-.212-.133-.31-.375-.212-.664.567-.512 1.434-.684 2.133-.742l.836-.02c1.028.2 2.547.653 3.2.738a1.969 1.969 0 0 1 .171-1.62c.149-.2.297-.348.606-.387zm6.054.609c.356-.016.86.133 1.055.516.063.238.16.535.063.765-.082.117-.371.192-.485.192-.027-.309.117-1.09-.922-.98-.23.042-.472.238-.613 0 .14-.13.461-.333.606-.423a.64.64 0 0 1 .296-.07zm32.055 1.457c.156-.008.164.05.293.184.29.32.633.402.973.55 1.386-.27 2.644.633 4.644.344.34.055.563.356.883.48.488.372 1.16.528 1.836.473.133.34.008.66-.094.82.446.075.848.15 1.246.27.172.266-.144.516-.246.676-.277.16-.254.488-.46.727-.18.34-.325.695-.485 1.046-.117.133-.23.18-.422.23-.39-.019-.476-.038-.894-.14-.352-.203.113-.914.394-.87.184.097.313.112.5.144.133-.16.402-.973.461-1.176-.504.031-1.016.156-1.496.289-.348.25-.852.152-1.207.332-.926.148-1.941.086-2.774-.355-.464.414-1.183.386-1.726.378-.457-.03-1.254-.132-1.688-.5-.437.426-.734.985-1.21 1.457-.204.348-.653.282-1.032.215a1.383 1.383 0 0 1-.39-.144c-.114-.29.02-.657.23-.852.383.02.504.328.856.301.515-.61.699-1.363 1.226-1.898.32-.106.594.242.957.175-.09-.343-.242-.64-.121-1.16.05-.25.234-.59.36-.84-.04-.203-.594-.492-.77-.828-.086-.156-.04-.32.156-.328zm-50.875.336c.973.035 1.942.707 2.04 1.809-.028.023-.028.125-.06.14-1.206.707-2.98.477-3.62-1.129.03-.039.027-.125.058-.164.41-.476.996-.68 1.582-.656zm23.879 1.133c.426.156.703.308.969.808.195.438 0 .829-.227 1.121-.633.688-1.41.868-2.246 1.133-2.633.778-6.613 2.149-9.594 3.02a5.768 5.768 0 0 1-1.941.226c-1.012-.039-1.734-.62-2.16-1.304-.39-.735.351-.762.547-.39.386.483.816.952 1.586 1.019.93.039 1.543-.082 2.054-.282.067-.265.047-.605.117-.96.098-.133.422-.114.512-.044a30.46 30.46 0 0 0-.039.813c.285-.05 5.88-1.848 6.55-2.055.075-.312.106-.476.204-.937.148-.2.527-.235.52-.035-.051.226-.122.547-.168.793.644-.223 2.902-.82 3.457-1.387.437-.457-.196-1.297-.141-1.54zM6.578 32.516c.094.011.18.035.27.074.191.125.34.437.234.691.223-.015.344-.191.547-.258.05-.242.16-.355.309-.191.386-.242.386.332.042.418-.195.176-.41.336-.632.48.39.286.617.215.879.293.023.149-.082.32-.211.395.12.078.34.25.507.234.13-.097.067-.03.168-.125.149-.117.317.04.329.118-.133.546-.297.558-.442.562-.336-.098-.582-.18-.875-.379-.137.137-.25.242-.41.242-.16.375-.117.707-.379 1.02-.055.078-.617.117-.754-.16-.015-.121.106-.203.23-.211l.137-.07c.07-.09.102-.446.203-.528-.16.004-.543-.05-.652-.187.23-.25.383-.563.438-.797-.301.203-.36.168-.723.238-.336.258-.926-.207-.313-.297-.238-.27.211-.176.258-.066.297-.02.489-.246.66-.328-.117-.102-.394-.11-.449-.504.024-.274.102-.508.364-.625a.686.686 0 0 1 .265-.04zm-5.2.402l2.075 2.035-.707.727-2.082-2.035zm2.075 3.332c.082-.047.067.3.168.492.098-.097.344-.437.356-.433.039.004.273.086.308.09.059.007-.476.468-.418.472.278.035.54.066.719.106.094.109.09 1.12.035 1.367-.242-.035-1.723-.016-2.164-.285.016-.352.043-1.079.082-1.313.063-.004.441.027.871.078.02 0-.344-.48-.234-.55.07-.04.207.023.277-.024zm5.813 1.035l.57.555-.816.836-.57-.567zm-3.032.828l1.047.512-.355.719-1.043-.508zm2.707 2.313l.61.52-.754.886-.61-.52zm0 0" fill="#211e1e"/></svg>