<svg xmlns="http://www.w3.org/2000/svg" width="64pt" height="64pt" viewBox="0 0 64 64"><path d="M30.504 63.563c-5.68-.27-10.91-1.887-15.586-4.825C7.941 54.355 2.902 47.422.945 39.5a31.969 31.969 0 0 1 .016-15.488c.582-2.313 1.293-4.227 2.414-6.469a28.674 28.674 0 0 1 1.941-3.355C10.367 6.585 18.574 1.448 27.543.28c6.496-.844 12.812.219 18.594 3.14 11.55 5.829 18.433 18.142 17.34 31.02A31.627 31.627 0 0 1 57.21 50.88c-4.113 5.48-10 9.555-16.52 11.441-3.261.946-6.941 1.395-10.187 1.242zm-.098-4.907c.508-.093.625-.183.645-.472.023-.297-.047-.414-.317-.536-.199-.082-.28-.09-.714-.062a5.923 5.923 0 0 1-1.758-.168c-.196-.05-.903-.336-1.578-.625a347.702 347.702 0 0 1-7.512-3.266c-.238-.113-.672-.3-.957-.418-.29-.117-.715-.304-.95-.422-.495-.234-.753-.261-.968-.101-.309.227-.332.496-.059.734.153.14 1.48.762 6.192 2.907 4.492 2.039 4.89 2.203 5.758 2.378.808.168 1.472.18 2.218.051zm-3.86-2.941c.106-.254.34-.844.517-1.313.351-.933.48-1.16.832-1.457a23.443 23.443 0 0 1 1.863-1.34c.207-.117.441-.292.523-.39.375-.43.024-.824-.699-.793-.465.023-.922.25-1.59.789-.933.75-1.441 1.328-1.816 2.074-.203.406-1.063 2.438-1.035 2.453.086.059 1.101.457 1.148.45.035-.004.152-.22.258-.47zm16.517.172c.554-.106.906-.239 1.187-.446.457-.336.645-.73.445-.949-.113-.125-.25-.113-.851.082-.707.227-1.344.301-1.973.23-.664-.081-4.488-.952-9.398-2.152-2.696-.656-2.465-.609-2.555-.535-.094.078-.09.36.008.461.183.188-.32.043 7.36 2.098l4.28 1.14c.586.157.942.172 1.496.07zm-4.415-2.262c0-.113-.289-.926-.332-.93l-.437-.035c-.387-.031-.402-.031-.371.067.015.05.054.242.086.418.035.18.074.34.09.359.039.039.707.207.855.21.078.009.11-.019.11-.089zm-18.851-1.094c.691-1.535 1.281-2.539 2.047-3.468.203-.25.383-.508.398-.579.074-.28-.129-.648-.355-.648-.184 0-.356.117-.703.473-.848.879-.903.96-1.817 2.793-.469.937-.847 1.714-.84 1.722.047.047.895.41.926.399.02-.008.176-.317.344-.696zm13.785-.156l-.012-.18-.562-.086c-.715-.109-.672-.109-.645.036.016.078.063.128.153.148.07.016.324.078.562.14.242.063.457.114.48.114.024.004.036-.074.024-.172zm7.5.031c.75-.117 1.262-.285 1.992-.656.406-.2.977-.465 1.27-.582.777-.316.976-.43 1.258-.703.293-.285.523-.738.597-1.188.031-.18.047-.328.035-.34-.011-.011-.504.012-1.093.055-1.399.09-4.739.106-5.59.024a26.082 26.082 0 0 1-2.727-.426c-.219-.05-.437-.102-.664-.153-.12-.023-.148.004-.375.399-.566.953-.969 2.004-1.012 2.598-.035.539-.023.546.84.64 1.485.172 3.61.332 4.957.375.106.004.34-.015.512-.039zm2.781-.101c.969-.188 2.13-.606 2.742-.973.946-.57 1.41-1.242 1.465-2.129l.028-.41-.118.035c-.074.02-.144.027-.222.031-.082 0-.102.04-.13.254-.046.403-.312.887-.698 1.262a6.226 6.226 0 0 1-3.067 1.621c-.289.059-1.195.371-1.265.434-.043.043.879-.047 1.265-.121zm-9.445-.664v-.286l-.938-.109c-1.734-.2-2.05-.242-2.34-.32a1.498 1.498 0 0 0-.292-.059c-.051.121-.168.496-.157.508.032.031 3.352.531 3.594.54.13.007.133 0 .133-.274zm.094-.856c.058-.129.031-.25-.434-1.797-.691-2.297-.676-2.27-.73-2.27a1.515 1.515 0 0 1-.301-.12 1.503 1.503 0 0 0-.258-.11c-.008.012.969 3.403 1.191 4.137l.102.332.18-.016c.144-.011.191-.043.25-.156zm-1.328-.02c-.016-.042-.684-2.566-1.489-5.6-.808-3.036-1.492-5.618-1.523-5.731l-.059-.22-.277.427.441 1.8c.239.993.563 2.403.715 3.137.317 1.555.715 2.957 1.336 4.766.242.715.457 1.324.473 1.375.02.07.094.097.344.129.039.004.054-.028.039-.082zm-5.047-.14l.273-.18-.344-.054c-.554-.102-1.445-.344-2.468-.68-.918-.3-2.082-.824-2.715-1.223a.799.799 0 0 0-.223-.113c-.055 0-.12.371-.082.438.055.09 1.008.593 1.606.855.34.145.941.371 1.336.504.73.246 2.082.621 2.257.629.051 0 .211-.078.364-.176zm-.606-1.512a29.955 29.955 0 0 1-.457-3.441c-.047-.781-.144-4.192-.144-5.215v-.543h-.375l-.035 1.856c-.036 1.988.02 3.863.14 5.05.113 1.067.371 2.883.418 2.934.035.043.445.168.563.172.03.004-.008-.293-.11-.813zm18.703-.617c0-.156-.207-.684-.375-.945-.492-.774-1.5-1.637-2.734-2.336-.328-.188-.39-.207-.61-.184a2.41 2.41 0 0 0-.39.082l-.14.055.355.191c.457.25 1.707 1.032 2.023 1.27.543.402.98 1 1.157 1.586l.109.351h.305c.238 0 .3-.011.3-.07zm1.778-.21c-.09-.505-.555-1.134-1.27-1.708-.426-.34-1.203-.86-1.558-1.039-.282-.14-1.098-.394-1.43-.441l-.219-.032.293.114c1.64.648 3.246 1.972 3.672 3.023l.105.266h.438zM22.699 47.3c-.316-1.563-.383-2.371-.387-4.567 0-1.59.043-2.242.176-2.644l.075-.235-.16-.167c-.087-.09-.188-.165-.22-.165-.085 0-.156.243-.226.75-.09.66-.07 3.563.027 4.72.09 1.01.266 2.421.317 2.566.035.078.5.484.531.453a9.397 9.397 0 0 0-.133-.711zm-1.297.312c.082-.043.164-.086.172-.097.012-.008-.129-.176-.308-.368-.63-.683-1.246-1.73-1.567-2.64-.129-.363-.137-.438-.137-1.184 0-.43-.011-.789-.027-.789-.074 0-.473.293-.586.43l-.129.148.117.512c.278 1.234.497 1.719 1.223 2.71.508.696 1.027 1.356 1.067 1.356.011 0 .085-.035.175-.078zm14.426-1.355c.418-.04.992-.106 1.29-.153.734-.101 2.573-.445 2.874-.53.547-.16 1.77-.68 1.77-.75 0-.06-1.215-1.805-1.848-2.653-.863-1.16-1.379-1.75-2.5-2.871-.539-.54-1.035-1.078-1.11-1.2-.183-.32-.429-.433-.992-.464-.5-.024-1.68.113-1.843.21-.168.11-.774.255-1.418.344-.485.063-.649.106-.739.184-.34.309-.43.906-.25 1.738.16.77 1.055 4.114 1.438 5.375.11.367.14.41.355.57.438.32.473.329 1.395.301.523-.02 1.055-.05 1.578-.101zm-6.226-.192v-.265l-.204-.028a74.401 74.401 0 0 0-1.855-.171c-.02 0-.027.128-.02.28l.016.282.848.074c.468.043.933.082 1.035.086l.18.008zm-4.77-.261l-.016-.274-.878-.086c-.481-.043-.946-.082-1.032-.086l-.16-.004v.27c0 .148.016.27.04.273l.937.086c.492.051.949.094 1.007.098.11.004.114-.008.102-.277zm5.379-.7l-.387-1.687a72.021 72.021 0 0 0-.379-1.586c-.324-.02-.648-.035-.972-.043l-.961-.035v1.61c0 1.495.008 1.605.086 1.609.047.004.609.054 1.25.117 1.53.148 1.394.144 1.363.015zm-4.328-1.765v-1.606l-1.36-.101a53.733 53.733 0 0 0-1.566-.113l-.21-.004v3.207l.179.004c.101.003.789.058 1.523.117.735.062 1.36.105 1.387.101.027-.004.047-.582.047-1.605zm18.844 1.605c0-.117-1.91-3.02-2.567-3.89-1.23-1.649-2.8-2.57-5.047-2.961a2.704 2.704 0 0 0-.398-.051c-.012.008.031.082.09.168.09.11.199.172.508.266.316.097.464.18.777.43.914.73 1.894 1.925 4.035 4.956l.535.754.461.031c.453.032 1.172.168 1.414.27.14.055.192.062.192.027zm-24.989-2.867c.211-.066.59-.156.828-.195.461-.074.575-.13.575-.27 0-.168-.23-.203-1.078-.172-.872.04-1.016.004-1.223-.27-.133-.187-.168-.6-.059-.722.074-.086.074-.101.008-.242-.047-.082-.105-.133-.144-.117-.036.012-.415 0-.836-.024-.579-.043-.922-.09-1.36-.203-.32-.078-.601-.144-.62-.144-.075 0-.184.351-.157.484.039.192.148.27.484.363.535.149 1.348.418 1.621.54.559.25.692.425.86 1.148l.09.367.308-.207c.176-.117.485-.266.703-.336zm-10.367-.363c.137-.344.383-1.031.55-1.531.227-.668.325-.903.392-.922.078-.02 1.628.293 4.07.82.441.094.828.172.855.172.032 0 .067-.094.082-.211.035-.332.176-.566.559-.945a2.6 2.6 0 0 1 .809-.57c.488-.239 1.132-.415 1.519-.415.242 0 .258-.008.52-.285.144-.16.488-.644.757-1.082l.5-.789-.086-.187c-.046-.102-.097-.184-.113-.18-.015 0-.336.437-.707.969-.375.535-.73 1.02-.789 1.078l-.113.105-2.297-.035a171.13 171.13 0 0 1-3.461-.078c-1.16-.05-1.164-.05-1.29-.18a.887.887 0 0 0-.628-.258c-.223 0-.195.141-.344-1.703a56.042 56.042 0 0 0-.152-1.629 14.979 14.979 0 0 1-.078-.898c-.043-.77-.051-.79-.364-.77l-.25.012-.015 1.899c-.024 3.148-.047 3.625-.266 5.253-.11.801-.219 1.497-.246 1.543-.035.067-.137 1.004-.14 1.309 0 .055.046.09.136.105.352.051.324.079.59-.597zm1.274.187c.52-.172.925-.488 1.28-.988.204-.293.466-.762.466-.844 0-.03-.114-.07-.25-.093l-.243-.047-.101.195c-.41.82-1.035 1.316-1.711 1.367-.211.016-.246.035-.3.16-.157.368-.165.352.222.352.215 0 .449-.035.637-.102zm-2.239-1.05c.043-.29.043-.301-.176-.75-.367-.766-.43-1.086-.43-2.133 0-.774.016-.953.106-1.29.14-.511.489-1.218.754-1.515.195-.215.219-.262.242-.562.02-.23.016-.332-.023-.332-.031 0-.234.183-.45.402-.327.336-.437.488-.644.914-.422.852-.582 1.648-.535 2.672.035.785.191 1.422.516 2.066.222.45.523.887.57.84.012-.012.039-.152.07-.312zm12.688-.149c.195-.098.254-.285.125-.383-.067-.047-.133-.039-.356.035-.18.067-.328.09-.449.07-.262-.046-.898-.378-.914-.48-.027-.125.293-.402.813-.71.34-.2.44-.29.46-.383.094-.512.094-.5-.054-.465a4.6 4.6 0 0 0-1 .347c-.418.223-.715.641-.719.996 0 .32.617.958 1.04 1.063.226.059.855.004 1.054-.09zm5.285-1.16l3.117-.035.149-.246c.082-.13.144-.25.132-.258-.007-.012-1.578.008-3.484.035-3.152.047-3.84.082-3.84.18 0 .02.094.117.211.222.184.164.227.18.398.16.11-.011 1.602-.042 3.317-.058zm-9.246-.574c.265-.043.789-.094 1.168-.117l.683-.04.239-.187c.32-.238.32-.234.101-.2a15.1 15.1 0 0 1-.945.079c-.817.047-1.047.098-1.59.379-.336.172-.309.18.344.086zm4.394-.274c.813-.254 1.836-.367 4.262-.457 3.191-.129 7.023-.433 7.023-.566 0-.024-.03-.043-.074-.043-.144 0-.633-.285-.804-.473a3 3 0 0 1-.383-.574c-.117-.215-.238-.402-.266-.422-.07-.055-.613-.05-.613.004 0 .023.113.336.246.691.129.356.23.649.227.653-.004.008-1.29.05-2.856.094-2.113.062-2.898.07-3.039.03-.27-.073-1.309-.062-1.938.02-.62.082-1.53.32-1.808.477-.2.113-.29.254-.344.512-.035.183-.035.183.367.054zm5.176-1.52c.235-.316.117-1.01-.172-1.046-.12-.016-.148.012-.234.195-.149.332-.117.707.086.93.101.11.195.09.32-.074zm8.98.016c-.288-.402-1.37-1.218-2-1.5-.417-.195-.75-.25-1.831-.3a205.822 205.822 0 0 1-3.465-.192c-.57-.039-.664-.035-.739.031-.105.094-.183.364-.148.504.027.098.04.098.836.063.441-.02 1.57-.04 2.508-.04 1.836 0 1.972.013 2.531.266.383.172.953.704 1.102 1.024l.109.238.34-.023c.27-.024.699.015.847.066a.636.636 0 0 0-.09-.137zm-22.953-.066c0-.242-.246-1.082-.433-1.46-.363-.747-.86-1.278-1.465-1.56-.41-.19-.453-.18-.414.13l.043.265.254.129c.644.324 1.234 1.23 1.43 2.195.035.164.07.32.078.352.011.039.109.062.265.062.223 0 .242-.011.242-.113zm9.543.02c.051-.04.532-1.329.508-1.348-.011-.008-.508.082-1.105.2l-1.094.206-.137.313-.234.52-.09.214 1.055-.04c.586-.015 1.078-.046 1.097-.065zm3.696-1.297l1.152-.032v-.175c.004-.207.14-.528.285-.657.102-.093.102-.093.008-.273-.066-.137-.133-.191-.25-.215a.919.919 0 0 1-.625-.492l-.11-.23-.355.027c-.496.043-.722.144-.898.406-.2.293-.422.773-.492 1.078l-.063.254h-.238c-.184 0-.297.035-.524.172a2.241 2.241 0 0 0-.285.187c0 .008.278.004.621-.003.34-.008 1.137-.032 1.774-.047zm-3.633-.618c.586-.14 1.078-.242 1.086-.222.008.015-.02.16-.063.316-.039.153-.066.285-.062.293.098-.047.195-.101.285-.16.223-.14.277-.203.309-.336.027-.164.035-.168.261-.168h.235l.11-.258.128-.308c.016-.04-.188-.063-.684-.086l-.707-.04-.367-.402c-.328-.363-.39-.414-.61-.457a1.264 1.264 0 0 0-.835.125c-.238.118-.625.512-.723.72-.12.265-.117.405.031.683.145.273.141.285-.304.363-.168.035-.305.066-.305.078 0 .012.035.09.078.184l.082.164.492-.117c.266-.063.973-.23 1.563-.372zM35.488 35c12.77-.402 22.996-2.594 26.25-5.617.63-.586 1.078-1.371 1.078-1.88 0-.14 0-.14-.254-.128l-.25.016-.042.222c-.172 1.032-1.598 2.203-3.848 3.157-4.117 1.742-11.086 3.039-18.996 3.527-2.336.144-3.266.176-5.848.203l-2.617.027.016.2.011.203.961.03c.535.017.977.044.996.06.043.046.77.039 2.543-.02zm-4.89-.086c.015-.027.011-.121-.004-.223-.035-.199-.121-.222-.36-.097-.109.054-.144.101-.144.215 0 .14.004.144.242.144.133 0 .25-.016.266-.039zM20.3 34.285c.027-.125.043-.242.035-.25-.012-.012-.29-.047-.617-.086-.637-.066-1.27-.136-1.907-.215l-1.316-.156-.531.172c-.418.133-.508.18-.414.2.375.09 4.12.55 4.523.562.164.004.172-.004.227-.227zm9.762-.023c.07-.028.125-.07.125-.086 0-.07-.133-.145-.297-.176a.706.706 0 0 1-.211-.07c-.059-.04-.492-.07-1.871-.145-.52-.027-.954-.039-.965-.027-.047.043.133.27.265.336.102.05.45.078 1.305.097.64.016 1.23.047 1.313.07.195.067.195.067.335 0zm-14.59-.739c.62-.21 4.668-1.523 9.742-3.164l.496-.164.281.14c.324.161.563.177.942.067.312-.093.496-.218.609-.406.078-.129.102-.137.648-.187.696-.07 1.141-.2 1.426-.422.16-.121.25-.157.348-.137.41.082 1.3-.277 1.644-.664l.215-.238 9.82-3.262c5.403-1.797 9.856-3.262 9.895-3.262.04 0 .273-.074.527-.164.32-.113.434-.172.364-.191-.352-.106-2.684-.543-3.946-.739l-.789-.125-.293.125c-1.746.766-3.496 1.528-5.25 2.286l-7.535 3.27-3.082 1.339-.351-.031c-.664-.059-1.47.097-1.727.336-.062.05-.113.054-.266.015-.472-.133-1.171.082-1.578.48-.27.27-.27.27-.593.278-.415.012-.739.168-1.16.563l-.317.297-1.29.453c-.706.254-3.026 1.07-5.151 1.828-1.73.613-3.461 1.222-5.196 1.824-.031.027.399.105.594.113.105 0 .508-.101.973-.258zm-1.856-.132c.235-.086.418-.164.399-.18-.016-.016-.422-.102-.907-.191-.828-.145-2.582-.516-2.777-.575-.082-.023-.086-.004-.05.23.015.141.042.274.058.294.027.027.68.168 2.265.492.493.102.54.098 1.012-.07zm16.086-1.715v-1.867l-.539.207v3.472l.188.02.261.027c.082.008.09-.11.09-1.86zm-1.219.113v-1.66l-.109.027c-.086.02-.176.032-.266.032h-.156v1.601c0 1.23.012 1.606.059 1.625.031.012.152.023.27.027l.202.004zm-1.129.234c.008-.742-.003-1.351-.023-1.351s-.137.035-.258.07l-.215.063-.015 1.3-.016 1.297.258-.015.258-.012zm-18.418.336v-.257l-.5-.137c-1.519-.418-3.261-1.055-4.386-1.61-1.156-.558-2.207-1.347-2.617-1.949-.176-.261-.371-.734-.371-.906 0-.129-.012-.133-.278-.133H.512l.035.23c.277 1.852 2.82 3.442 7.805 4.891.601.176.585.176.585-.129zm-7.824-5.515c.297-.926 1.168-1.711 2.84-2.563 3.598-1.836 10.453-3.277 18.477-3.886 3.062-.235 5.675-.325 9.265-.325 5.082 0 9.024.211 13.317.715l1.035.121.441-.183c.34-.141.422-.188.352-.22-.211-.085-3.387-.433-5.442-.597-3.48-.277-5.293-.343-9.8-.343-4.621.003-6.184.062-9.895.37-9.957.817-17.605 2.844-20.152 5.337C1 25.8.57 26.523.57 26.906c0 .114.019.121.242.121.23 0 .238-.004.296-.183zm61.703.14c0-.175-.238-.746-.437-1.047-.98-1.464-3.574-2.796-7.594-3.894-1.515-.414-1.465-.406-1.984-.242-.242.074-.422.152-.403.172.02.015.309.09.645.168 1.566.347 3.535.945 4.863 1.468 2.438.957 3.977 2.09 4.313 3.153l.078.265h.262c.144 0 .257-.02.257-.043zm0 0"/></svg>