<svg xmlns="http://www.w3.org/2000/svg" height="80" width="80"><path d="M38.826 79.995l-.813-.038a39.839 39.839 0 0 1-22.156-8.05 40.243 40.243 0 0 1-9.837-10.77A39.733 39.733 0 0 1 .213 44.27C.051 42.74 0 41.725 0 40.004c0-1.722.05-2.737.213-4.268a39.726 39.726 0 0 1 7.754-19.705A40.085 40.085 0 0 1 26.42 2.362 40.168 40.168 0 0 1 44.268.226a39.766 39.766 0 0 1 16.42 5.528 40.169 40.169 0 0 1 15.953 18.153 39.796 39.796 0 0 1 3.253 13.003c.087 1.14.106 1.682.106 3.094 0 1.41-.019 1.952-.106 3.093-.883 11.525-6.701 22.061-16.018 29.01a39.841 39.841 0 0 1-17.344 7.37c-1.475.24-2.883.392-4.465.481-.48.027-2.812.054-3.24.037zm1.75-10.467c.348-.089.651-.295.651-.443 0-.077-.18-.235-.36-.318-.296-.135-.433-.159-.907-.157-.389.002-.446.008-.645.074-.236.078-.44.202-.526.32l-.055.074.053.098c.095.178.461.349.868.405.242.034.68.008.922-.053zm.122-2.159c.79-.136 1.38-.49 1.452-.873.077-.41-.623-.87-1.536-1.01-1.298-.196-2.775.308-2.775.949 0 .41.685.831 1.557.956.315.046.975.035 1.302-.022zm.41-3.17c1.238-.215 2.147-.7 2.445-1.304a.671.671 0 0 0 .088-.394c0-.181-.011-.238-.077-.374-.104-.214-.466-.57-.752-.74-.452-.269-1.15-.495-1.842-.598-.444-.065-1.5-.066-1.93 0-1.313.2-2.294.707-2.596 1.344a.664.664 0 0 0-.083.381.784.784 0 0 0 .062.333c.278.624 1.243 1.15 2.47 1.347.465.075.47.075 1.214.067.542-.006.745-.019 1-.063zm19.073-2.614c.552-.265 1.058-.856 1.162-1.358.038-.181-.002-.32-.098-.343-.437-.11-1.244.455-1.579 1.105-.178.346-.205.593-.076.687.093.068.337.03.591-.091zm-40.038.036c.079-.055.097-.188.05-.368-.176-.674-1.016-1.433-1.585-1.433-.111 0-.141.012-.188.07-.066.085-.069.167-.012.359.135.456.54.941 1.019 1.222.288.17.597.234.716.15zm37.789-1.143c.472-.163.926-.47 1.356-.915.32-.33.494-.566.662-.889.396-.76.343-1.313-.132-1.412-.367-.076-.946.132-1.498.537a5.01 5.01 0 0 0-.949.976c-.54.791-.645 1.53-.245 1.732.188.095.476.084.806-.03zm-35.385-.005c.148-.062.217-.14.264-.302.173-.595-.486-1.746-1.378-2.407-.558-.414-1.16-.637-1.517-.562-.188.039-.268.096-.344.245-.124.243-.058.654.182 1.133.5 1 1.702 1.924 2.513 1.932a.825.825 0 0 0 .28-.04zm18.486-.867c2.845-.258 4.999-1.538 5.005-2.973.003-.742-.505-1.421-1.5-2.007-.822-.484-1.974-.83-3.27-.984-.57-.068-1.976-.068-2.522 0-1.166.144-2.069.388-2.872.776-.525.254-.884.493-1.212.808-.46.442-.661.822-.685 1.296-.016.322.018.493.156.783.273.57.86 1.078 1.732 1.499.956.46 2.136.745 3.441.83.406.025 1.295.012 1.727-.028zm13.528-.69c1.567-.406 3.325-2.072 3.884-3.68.416-1.197.07-1.95-.896-1.95-1.228 0-2.96 1.184-3.943 2.694-.198.305-.455.82-.545 1.093-.177.54-.2 1.065-.057 1.38.115.257.31.417.607.501.197.055.66.037.95-.038zm-28.413-.052c.44-.137.647-.463.647-1.02 0-.435-.107-.83-.372-1.37-.288-.589-.682-1.123-1.241-1.681-1.205-1.204-2.737-1.841-3.555-1.48a1.002 1.002 0 0 0-.431.425c-.152.354-.136.811.048 1.362.565 1.689 2.42 3.43 4.017 3.77.273.058.692.055.887-.005zm23.313-2.206c2.298-.454 5.012-2.723 6.25-5.226.266-.536.382-.837.496-1.28.122-.477.155-.758.139-1.173-.017-.402-.059-.583-.208-.887-.2-.407-.574-.694-1.079-.824-.25-.065-.913-.067-1.254-.003-1.907.354-4.148 1.971-5.626 4.06-.695.982-1.18 2.083-1.312 2.98-.053.36-.039.931.03 1.182.068.253.218.53.385.712.452.492 1.206.651 2.18.46zm-17.855-.063c.335-.087.538-.2.767-.427.22-.218.358-.46.44-.762.058-.216.079-.795.04-1.093-.253-1.897-1.892-4.252-4.013-5.765-1.607-1.146-3.261-1.643-4.338-1.302-.544.173-.924.575-1.082 1.146-.07.25-.083.845-.027 1.2.214 1.368 1.117 2.956 2.468 4.344 1.443 1.481 3.173 2.488 4.638 2.698.341.05.833.032 1.107-.04zm-7.664-10.661c.294-.116.484-.25.8-.568 1.087-1.091 1.726-3.244 1.671-5.629-.034-1.5-.312-2.787-.835-3.866-.273-.566-.49-.884-.85-1.244-.465-.468-.844-.654-1.333-.653-.48 0-.867.175-1.3.584-1.538 1.45-2.184 5.103-1.433 8.095.445 1.774 1.31 3.026 2.297 3.326.134.041.23.05.475.043.265-.007.333-.02.508-.088zm33.059.055c.732-.19 1.438-.96 1.927-2.105.985-2.304.964-5.602-.05-7.878-.524-1.174-1.314-1.944-2.076-2.024-.579-.06-1.064.15-1.576.685-1.545 1.61-2.103 5.34-1.244 8.31.462 1.6 1.303 2.735 2.224 3.004.206.06.581.064.795.009zm-39.136-2.431c.648-.303 1.168-1.339 1.358-2.7.052-.38.045-1.402-.014-1.801-.09-.616-.23-1.105-.441-1.549-.169-.354-.295-.547-.49-.75-.47-.489-.949-.533-1.438-.133-.527.432-.965 1.483-1.088 2.61a9.862 9.862 0 0 0 .013 1.623c.111.903.387 1.68.785 2.207.407.54.855.708 1.315.493zm45.047-.01c.515-.253.992-1.058 1.214-2.054.114-.507.153-.895.153-1.49 0-.596-.04-.983-.153-1.49-.226-1.014-.694-1.799-1.227-2.061a.665.665 0 0 0-.383-.09.683.683 0 0 0-.374.083c-.645.307-1.16 1.303-1.351 2.61-.059.4-.066 1.423-.014 1.801.155 1.114.526 2.007 1.024 2.468.363.336.73.41 1.11.223zm-49.105-1.46c.642-.408.943-2.01.596-3.182-.205-.693-.612-1.14-.948-1.039-.335.1-.641.59-.803 1.283-.068.292-.097 1.094-.051 1.418.102.724.413 1.367.746 1.543a.45.45 0 0 0 .46-.023zm52.84.024c.322-.164.62-.742.736-1.425.052-.308.06-.969.014-1.27-.112-.742-.412-1.338-.76-1.508-.23-.113-.392-.065-.618.183-.23.25-.43.72-.52 1.218-.048.266-.047 1.122 0 1.387.12.659.375 1.174.681 1.38.154.104.31.115.468.035zm-55.611-.933c.118-.103.216-.29.29-.55.089-.306.09-.917.002-1.22-.132-.461-.328-.688-.513-.592-.28.145-.478.862-.406 1.473.052.442.227.841.408.933.094.048.12.043.219-.044zm58.21-.001a.971.971 0 0 0 .174-.248c.134-.272.175-.489.175-.913 0-.423-.041-.64-.173-.909-.105-.212-.209-.313-.322-.313-.183 0-.383.347-.462.799-.104.594.023 1.266.293 1.547.131.137.193.145.315.037zm-43.265-8.003c.927-.193 2.058-.742 3.028-1.471.912-.685 1.867-1.667 2.49-2.56.705-1.012 1.17-2.067 1.312-2.969.056-.355.043-.95-.027-1.2-.113-.412-.387-.79-.71-.981-1.345-.796-3.978.208-6.108 2.327-1.338 1.332-2.211 2.774-2.551 4.212-.066.277-.073.36-.074.802 0 .444.006.514.062.694.209.669.643 1.056 1.334 1.187.28.053.888.033 1.244-.04zm29.131-.063c.863-.234 1.316-.95 1.26-1.99-.164-3.006-3.986-6.984-7.138-7.429-1.593-.225-2.521.609-2.379 2.137.113 1.21.796 2.636 1.896 3.959 1.227 1.473 2.86 2.656 4.34 3.143.237.078.752.202.941.226.21.027.922-.003 1.08-.046zm-32.538-5.98c.801-.163 1.705-.688 2.493-1.448.719-.692 1.235-1.445 1.522-2.217a2.38 2.38 0 0 0 .174-.998c-.013-.368-.09-.565-.294-.748-.657-.59-2.237-.1-3.542 1.1-.824.757-1.408 1.587-1.693 2.407-.352 1.01-.158 1.72.519 1.909.17.047.58.045.821-.004zm35.396-.079a.892.892 0 0 0 .613-.618c.055-.187.054-.597 0-.856-.178-.832-.739-1.766-1.55-2.579-.867-.87-1.874-1.447-2.75-1.576-.904-.134-1.436.331-1.36 1.187.036.391.138.728.362 1.196.647 1.346 2.005 2.613 3.335 3.109.515.192.985.24 1.35.137zm-16.69-.69c2.456-.293 4.29-1.276 4.686-2.509.236-.737-.1-1.49-.953-2.132-.93-.701-2.343-1.168-4.013-1.325a15.86 15.86 0 0 0-2 0c-1.57.148-2.878.558-3.83 1.2-.509.342-.842.698-1.037 1.106-.138.29-.172.46-.156.782.024.475.224.854.685 1.297.903.866 2.505 1.45 4.444 1.619.41.035 1.755.012 2.174-.038zM20.366 23.16c.235-.055.713-.294.979-.489.846-.623 1.451-1.549 1.459-2.23.003-.261-.063-.4-.234-.498-.093-.053-.144-.062-.337-.06-.545.006-1.256.402-1.864 1.039-.556.583-.884 1.225-.884 1.734 0 .463.306.637.88.504zm39.514-.04a.502.502 0 0 0 .305-.257c.048-.116.046-.413-.004-.606-.12-.457-.424-.955-.863-1.41-.337-.349-.637-.58-.987-.76-.383-.199-.583-.258-.873-.26-.218 0-.252.007-.35.07-.154.103-.207.23-.205.49.004.53.428 1.3 1.025 1.864.671.633 1.49.997 1.952.869zm-40.952-2.626c.609-.247 1.248-1.02 1.25-1.512.001-.237-.109-.299-.398-.225-.295.076-.557.24-.864.543-.492.484-.735 1.146-.465 1.26.086.037.297.008.477-.066zm42.37-.016c.058-.046.07-.076.07-.18-.003-.635-.955-1.597-1.597-1.612-.122-.003-.151.006-.196.062-.173.212.146.894.608 1.302.435.384.93.574 1.115.428zm-20.31-1.265c.686-.102 1.374-.325 1.824-.592.286-.17.648-.526.752-.741.066-.136.077-.193.077-.374a.675.675 0 0 0-.09-.397c-.33-.67-1.468-1.211-2.84-1.35-.41-.042-1.405-.02-1.751.038-1.277.216-2.212.705-2.512 1.314a.67.67 0 0 0-.089.381c0 .182.01.225.1.406.333.674 1.469 1.21 2.874 1.355.346.036 1.3.013 1.654-.04zm-.438-4.683c.753-.104 1.4-.427 1.559-.779.068-.15.065-.222-.018-.39-.223-.446-1.106-.775-2.078-.775-.63 0-1.118.096-1.547.304-.642.313-.802.723-.422 1.087.245.236.782.46 1.291.538.304.047.93.055 1.215.015zm-.119-3.156c.365-.07.652-.213.76-.378.044-.067.044-.075-.006-.167-.15-.28-.859-.478-1.459-.407-.45.053-.828.213-.934.396-.044.074-.045.095-.015.158.078.162.38.323.742.396.235.047.673.048.912.002z"/></svg>