<svg xmlns="http://www.w3.org/2000/svg" width="64pt" height="64pt" viewBox="0 0 64 64"><path d="M29.785 30.96L3.883 17.677l1.629-2.824L30 30.582l-.215.379m.516-.742L10.51 8.87l2.493-2.09 17.629 23.157-.332.28m.742-.519l-11.3-26.828 3.058-1.11 8.648 27.79-.406.148m.871-.234L30.473.39l3.254.004-1.38 29.07h-.437m.906.074l8.586-27.812 3.063 1.113L33.223 29.69l-.407-.152m.82.383l17.583-23.2 2.488 2.09L33.965 30.2l-.328-.277m.636.637l24.461-15.782 1.621 2.817-25.867 13.343-.215-.378m.387.82l28.38-6.469.562 3.207-28.872 3.688-.07-.426m.078.902l28.883 3.63-.566 3.198-28.39-6.402.073-.426m-.234.871l25.902 13.29-1.629 2.816-24.488-15.73.215-.376m-.516.743l19.793 21.347-2.492 2.09-17.633-23.156.332-.281m-.738.52l11.3 26.827-3.058 1.117-8.652-27.793.41-.152m-.875.238l1.445 29.075h-3.254l1.38-29.075h.429m-.898-.078l-8.59 27.817-3.055-1.114 11.234-26.851.41.148m-.82-.383l-17.586 23.2-2.492-2.09 19.746-21.387.332.277m-.64-.636L5.559 49.344 3.934 46.52l25.863-13.344.219.379m-.387-.82L1.25 39.202.684 36l28.875-3.691.07.425m-.074-.902L.668 28.211l.566-3.207 28.391 6.402-.07.426m34.367 5.969C67.008 20.3 55.3 3.578 37.8.496 20.285-2.594 3.582 9.102.496 26.613c-3.09 17.52 8.606 34.219 26.117 37.309 17.52 3.086 34.223-8.61 37.309-26.121zm0 0"/></svg>