<svg xmlns="http://www.w3.org/2000/svg" width="64pt" height="64pt" viewBox="0 0 64 64"><path d="M30.086 64.367c-7.856-.418-15.273-3.777-20.824-9.422C3.879 49.477.676 42.402.059 34.594c-.079-1.012-.079-3.758 0-4.774.449-5.672 2.214-10.863 5.27-15.492A32.043 32.043 0 0 1 19.96 2.301a31.574 31.574 0 0 1 20.602-1.059A31.511 31.511 0 0 1 54.27 9.437a32.142 32.142 0 0 1 8.359 14.891 32.698 32.698 0 0 1 .601 12.723 32.363 32.363 0 0 1-3.035 9.64A32.103 32.103 0 0 1 51.36 57.59a31.468 31.468 0 0 1-21.27 6.777zm13.285-4.77a16.79 16.79 0 0 0 5.05-1.16c5.09-2.042 8.907-6.44 10.247-11.82.277-1.11.5-2.597.395-2.633-.141-.039-.66-.058-.66-.02 0 .188-.173 1.317-.294 1.884a16.493 16.493 0 0 1-3.484 7.215c-.5.597-1.648 1.73-2.27 2.238a16.368 16.368 0 0 1-7.066 3.312c-1.098.219-1.672.27-3.047.274h-1.316l-.031.226a5.445 5.445 0 0 1-.06.352c-.023.129-.019.133.286.148.688.043 1.606.035 2.25-.015zm-2.77-.359c.02-.175.02-.34.004-.37-.02-.028-.105-.052-.19-.052-.259 0-1.567-.23-2.192-.39-3.946-.985-7.403-3.477-9.672-6.965-.27-.414-.52-.836-.75-1.27-.332-.636-.332-.59.012-.77.101-.054.378-.222.62-.37.247-.145.45-.27.462-.27.007 0 .171.297.355.664.676 1.309 1.477 2.407 2.578 3.52.836.844 1.277 1.21 2.262 1.875a14.2 14.2 0 0 0 5.027 2.11c.746.152 1.684.28 1.727.234.047-.043.125-.633.093-.68-.011-.027-.105-.05-.199-.05-.261 0-1.14-.138-1.765-.278-3.766-.84-7.13-3.414-9.008-6.903a9.697 9.697 0 0 1-.352-.699l-.101-.23.457-.348c1.426-1.086 2.883-2.61 3.945-4.121a18.792 18.792 0 0 0 3.36-9.64v-.208h-.868l-.027.332c-.16 1.715-.383 2.848-.84 4.254-.66 2.063-1.625 3.864-3.02 5.64-.789 1.009-3.05 3.15-3.347 3.173-.121.015-.64.375-.64.449 0 .031-.235.203-.524.375-.77.473-.883.531-.883.48 0-.023-.145.024-.316.114-.18.086-.317.183-.317.215 0 .082-1.25.613-2.125.902-1.25.418-2.457.672-3.754.8l-.605.063-.016.414c-.008.227.004.43.028.453.054.059 1.32-.078 2.14-.234 1.395-.258 2.832-.7 4.067-1.246l.632-.281.254.496c2.387 4.668 6.946 8.039 12.106 8.949.808.145.93.164 1.176.172l.175.008zm3.087-2.074c5.289-.61 9.816-4.144 11.75-9.172.484-1.258.859-2.875.933-3.98l.016-.219-.34-.031a5.31 5.31 0 0 0-.352-.024 16.33 16.33 0 0 0-.086.645 13.825 13.825 0 0 1-3.738 7.883 13.56 13.56 0 0 1-2.336 1.972 13.346 13.346 0 0 1-7.437 2.27c-.461 0-.844.015-.856.035-.015.02-.039.187-.058.363l-.04.336h.942c.539 0 1.227-.035 1.602-.078zM19.34 51.75l.398-.027v-.864l-1.199-.023c-1.621-.035-2.617-.176-4.121-.563-2.297-.593-4.621-1.777-6.555-3.34-.683-.554-2.113-2.003-2.668-2.699a23.534 23.534 0 0 1-1.699-2.566 18.68 18.68 0 0 1-1.629-4.176l-.05-.203-.419.063c-.23.035-.43.07-.441.086-.035.035.172.796.426 1.574a19.019 19.019 0 0 0 3.11 5.761c.624.801 2.019 2.215 2.788 2.836 3.098 2.5 6.73 3.918 10.563 4.121 1.023.055 1.054.055 1.496.02zm.2-3.047l.151-.031v-.707l-1.035-.035c-1.11-.032-1.793-.11-2.722-.309-2.157-.46-4.282-1.492-6.079-2.945-.628-.508-1.789-1.68-2.296-2.324A15.366 15.366 0 0 1 5 37.52l-.191-.622c-.016-.039-.13-.039-.418.008a3.67 3.67 0 0 0-.422.09c-.043.043.32 1.215.578 1.875 2.148 5.535 7.324 9.379 13.207 9.809.707.05 1.59.062 1.785.023zm1.12-.09c1.54-.18 3.043-.597 4.457-1.23.383-.172.692-.293.692-.27 0 .067.586-.242.617-.324.012-.035.191-.172.398-.3.203-.126.512-.329.684-.45.172-.121.36-.223.422-.23.136-.016.597-.375.601-.47.004-.038.114-.16.254-.269.43-.336 1.652-1.601 2.098-2.164 2.492-3.172 3.64-6.89 3.379-10.949a13.94 13.94 0 0 0-.492-2.945c-.079-.313-.157-.606-.168-.66a3.671 3.671 0 0 0-.215-.645 15.122 15.122 0 0 1-.293-.687c-.766-1.864-1.852-3.485-3.348-4.993-2.453-2.48-5.488-3.945-8.988-4.347-.953-.11-2.262-.16-2.305-.086-.02.031-.02.222 0 .422l.031.359.98.027c2.122.059 4.02.555 5.99 1.563 2.886 1.476 5.077 3.726 6.456 6.61.371.777.649 1.472.649 1.624 0 .153.148.63.222.715.14.156.489 1.82.446 2.11-.04.234.043.843.113.886.09.059.074 2.047-.024 2.856-.57 4.898-3.234 8.98-7.402 11.363-1.602.914-3.707 1.57-5.582 1.75l-.352.031v.387c0 .215.016.39.04.39.02 0 .308-.035.64-.074zm5.176-2.832c.144-.086.277-.176.293-.195.012-.023-.02-.352-.074-.723-.149-1.039-.215-2.312-.153-3.226.024-.43.051-.79.063-.797.02-.02 1.656.117 1.68.144.007.008-.008.387-.032.848-.039.547-.039 1.094-.004 1.637.047.808.07.988.137.984.02 0 .16-.113.317-.254l.277-.246-.031-.797c-.028-.648.03-2.082.09-2.12.007-.005.316.019.69.058.919.078.852.082.852-.051 0-.125-.035-.133-1.058-.211-.38-.023-.45-.043-.45-.113 0-.196.204-1.207.36-1.778a13.906 13.906 0 0 1 3.805-6.363l.363-.344-.035-.433c-.016-.235-.055-.43-.074-.43-.059 0-.914.785-1.286 1.188a14.631 14.631 0 0 0-3.765 7.543 8.399 8.399 0 0 1-.121.609c-.028.023-1.54-.102-1.63-.133-.07-.031-.07-.082-.01-.476.57-4.043 2.624-7.786 5.679-10.336.285-.239.57-.48.629-.532l.109-.101-.102-.328c-.054-.184-.117-.336-.136-.336-.102 0-1.219.949-1.86 1.578-2.343 2.3-3.914 5.047-4.699 8.215-.148.605-.383 1.918-.383 2.144 0 .125-.004.125-.28.098a45.315 45.315 0 0 0-.708-.063l-.422-.035v.125c0 .121.008.121.5.157.274.019.574.046.668.058l.168.031-.015 1.246c-.024 1.32.027 2.122.187 3.133.102.621.133.774.176.774.012 0 .137-.07.281-.149zm33.324-2.343c.05-.426-.012-2.52-.101-3.165a18.291 18.291 0 0 0-1.176-4.472c-.328-.805-1.012-2.098-1.528-2.88a15.179 15.179 0 0 0-2.152-2.655 16.522 16.522 0 0 0-3.621-2.825c-.559-.324-.605-.363-.594-.484l.207-2.047c.11-1.055.188-1.945.18-1.988-.008-.043-.566.648-1.27 1.566-.69.907-1.28 1.645-1.308 1.64a21.45 21.45 0 0 1-.809-.226 70.182 70.182 0 0 0-.883-.254c-.125-.03-.132-.046-.156-.437-.015-.223-.074-1.711-.129-3.309a263.726 263.726 0 0 0-.11-3.023c-.01-.094-1.698 4.976-2.03 6.098a.967.967 0 0 1-.094.214c-.02.024-.45.024-.953.008l-.918-.035-.672-1.777c-.371-.98-.688-1.797-.707-1.82-.02-.02-.254.835-.516 1.906l-.48 1.945-.27.055c-.883.175-2.625.66-2.625.73 0 .016.059.16.121.324.09.211.145.297.207.293.051-.004.352-.09.672-.191 3.508-1.102 7.47-.914 10.899.516 1.46.609 2.746 1.375 4.05 2.421.614.493 1.981 1.872 2.473 2.497 1.977 2.515 3.192 5.496 3.512 8.617.043.43.07 1.183.07 1.851v1.13l.281.019c.153.011.305.023.336.027.036.008.07-.098.094-.27zm-2.73-.372c.039-.515-.035-1.773-.145-2.546-.379-2.575-1.426-5-3.027-7.032-.496-.633-1.567-1.718-2.192-2.222a14.275 14.275 0 0 0-4.375-2.442c-.62-.215-1.648-.488-2.14-.574l-.176-.027-.031.285a2.37 2.37 0 0 1-.055.355c-.02.063.094.098.527.188 2.672.547 5.149 1.941 7.079 3.972a14.03 14.03 0 0 1 3.714 7.817c.043.324.09 1.043.102 1.601l.023 1.004.25.028.332.039c.07.008.09-.067.118-.446zM1.422 37.07l.328-.05-.113-.575c-.227-1.18-.278-1.816-.282-3.328 0-.879.024-1.625.063-1.941.246-2.024.68-3.625 1.484-5.461.496-1.149.664-1.895.903-4.059.234-2.074.406-2.902.757-3.629.149-.324.348-.625.598-.879.094-.101.16-.195.149-.203-.028-.027-.848-.28-.91-.28-.075 0-.56.773-.731 1.16-.348.808-.512 1.616-.734 3.613-.254 2.25-.383 2.843-.86 3.933a19.06 19.06 0 0 0-1.32 4.23c-.418 2.212-.418 4.735 0 6.97.117.632.07.6.668.5zm2.965-.437a3.3 3.3 0 0 0 .332-.067c.008-.007-.024-.168-.063-.355-.27-1.16-.394-3.238-.27-4.473.255-2.508 1.055-4.8 2.368-6.793a15.178 15.178 0 0 1 4.164-4.187c2.035-1.34 4.441-2.172 6.82-2.352l.446-.031v-.79l-.485.036c-1.476.102-3.144.5-4.582 1.094-4.933 2.031-8.527 6.547-9.402 11.82-.168 1-.215 1.574-.215 2.68.004 1.137.074 1.914.262 2.914.12.629.074.594.625.504zm32.937-3.38c0-.757-.094-2.042-.195-2.765-.04-.238-.07-.48-.098-.722 0-.063.965-.399 1.676-.578a14.07 14.07 0 0 1 3.352-.422c.59 0 1.535.066 1.828.129.125.023.129.015.18-.336.027-.196.046-.36.038-.364a4.43 4.43 0 0 0-.445-.078c-.27-.039-.902-.066-1.676-.062-1.043 0-1.355.02-1.992.117-.863.129-1.84.363-2.574.613a7.43 7.43 0 0 1-.535.176c-.02 0-.051-.082-.067-.184-.078-.32-.164-.636-.257-.949-.121-.418-.215-.8-.215-.851.004-.11-.168-.567-.254-.668a3.959 3.959 0 0 1-.25-.52c-.57-1.383-1.344-2.723-2.356-4.082-.64-.867-.793-1.234-1.46-3.488-.477-1.625-.805-2.508-1.141-3.086-.32-.555-.309-.555-.606-.113l-.254.378.2.399c.312.64.472 1.094.957 2.715.687 2.312.898 2.812 1.558 3.687a18.576 18.576 0 0 1 2.297 3.977c.16.383.192.496.14.531-.1.059.138.723.247.695.066-.015.11.082.234.512.09.293.207.73.266.969.09.39.098.449.031.488-.055.035-.066.09-.039.223.02.097.05.261.066.36.02.112.067.183.122.202.074.02.101.11.144.461.113.836.152 1.426.152 2.27v.847h.926zM49.691 20.97c1.102-1.785 1.989-3.262 1.97-3.278-.067-.062-4.423-1.222-4.599-1.222-.07 0-.078.039-.05.258.035.367.316 6.628.316 7.18 0 .288.035.335.266.316.074-.004.597-.82 2.097-3.254zm-6.898 2.484c.039 0 .457-1.21 1.234-3.594.645-1.976 1.164-3.601 1.157-3.609-.028-.023-4.551.05-4.575.074-.015.012.387 1.613.895 3.563.504 1.949.914 3.558.914 3.582 0 .027.074.031.156.015.082-.02.184-.03.219-.03zm17.625-1.715c-.293-.293-5.05-4.976-6.813-6.718l-.207-.204.88-1.71c.581-1.13.867-1.727.835-1.758-.031-.032-.441.398-1.207 1.261l-1.156 1.313-.09-.242c-.734-1.953-1.535-3.973-1.578-3.989-.082-.023-.082.454-.008 2.387.028.797.04 1.457.028 1.469-.012.012-.633-.352-1.383-.809-.907-.558-1.375-.816-1.41-.785-.032.031.199.36.703.988.406.516.742.957.742.97 0 .015-.5.312-1.117.663-.614.348-1.098.649-1.082.668.027.02.879.242 1.902.492 1.02.254 1.879.473 1.902.489.024.015.493.855 1.04 1.87.558 1.032 1.03 1.852 1.07 1.86.039.008.078.004.078-.012 0-.02-.164-.93-.367-2.03-.203-1.099-.36-2.016-.352-2.044.008-.023 1.785 1.399 3.945 3.156 2.532 2.051 3.954 3.176 3.985 3.149.027-.031-.094-.188-.34-.434zM10.09 16.07l2.37-2.265 2.466.449c1.347.246 2.492.457 2.543.476.054.016.082 0 .082-.046 0-.047-.531-.278-1.649-.7-.91-.343-1.664-.644-1.675-.66-.047-.082 2.171-.441 3.3-.539.743-.066 2.801-.07 3.72-.004 2.452.168 4.741.594 6.44 1.184.825.289 1.63.691 1.918.965l.247.234.09-.121c.046-.066.16-.242.245-.387l.16-.27-.23-.21c-.504-.461-2.09-1.121-3.652-1.512-2.469-.625-6-.973-8.375-.82-.926.054-2.18.203-2.817.324-.199.035-.367.066-.378.059-.008-.016 1.234-.77 2.753-1.688 2.356-1.418 2.954-1.812 2.688-1.762-.031.012-3.438 1.528-6.668 2.973-.355.164-.652.29-.664.277-.008-.007.258-1.02.59-2.25.34-1.273.582-2.257.562-2.28-.054-.052-.066-.028-1.215 2.526l-.914 2.043-.164-.007a57.042 57.042 0 0 1-2.148-.332c-1.094-.18-2-.313-2.016-.301-.011.015-.004.047.02.074.027.023.879.355 1.894.742l1.934.73c.062.024-.102.098-.559.247-1.992.644-3.707 1.418-5.105 2.281-.66.41-1.27.867-1.219.918.05.05.82.297.93.297.043 0 .222-.098.394-.215.77-.52 1.946-1.14 2.992-1.582.633-.262 1.735-.672 1.758-.648.008.007-.695.918-1.562 2.015a97.313 97.313 0 0 0-1.578 2.027c0 .118.418-.265 2.492-2.242zm37.418-1.86c1.27-.698 1.273-.702 1.199-.812-.086-.14.047-.12-2.57-.347a134.36 134.36 0 0 1-2.16-.196c-.16-.023-.09.06.933 1.09 1.07 1.07 1.11 1.11 1.215 1.04.063-.04.684-.391 1.383-.774zm-3.102.704c.016-.012-.355-.41-.824-.883l-.855-.863-1.012.895c-.563.492-1.028.906-1.043.921-.012.012.82.008 1.844-.007 1.027-.02 1.879-.047 1.89-.063zm0 0"/></svg>