<svg xmlns="http://www.w3.org/2000/svg" width="64" height="64"><path d="M26.587 62.713C14.613 60.653 4.812 51.44 1.759 39.375c-.927-3.664-1.022-10.77-.19-14.2C4.555 12.889 13.748 4.008 26.2 1.383c2.984-.63 9.72-.455 12.897.334 5.603 1.39 10.33 3.942 14.262 7.7 3.655 3.492 6.921 8.478 8.079 12.333C62.814 26.332 63 27.556 63 32.03c0 4.482-.156 5.513-1.556 10.281-.158.539-.832 2.081-1.498 3.428-4.26 8.613-12.257 14.78-21.775 16.792-2.526.534-8.952.634-11.584.181zm4.576-5.743c.32-.555.783-1.69 1.03-2.522l.45-1.513-1.281-1.473c-.704-.81-2.46-2.43-3.902-3.598-2.457-1.991-2.722-2.124-4.244-2.113-1.43.01-2.97.315-6.457 1.277-1.628.45-2.546.903-3.306 1.634-.907.871-.68 1.389 1.655 3.769 2.523 2.572 6.364 4.353 10.972 5.088 1.05.168 1.988.384 2.083.48.095.096.679.132 1.297.078.864-.074 1.257-.33 1.703-1.107zm5.962.653c1.027-.286 2.484-.665 3.238-.842.753-.178 1.37-.47 1.37-.651 0-.36-2.512-.049-3.062.38-.356.276-1.93.562-4.753.862-1.02.108-1.853.326-1.853.484 0 .468 3.046.328 5.06-.233zm8.382-2.957c1.908-1.072 4.753-3.279 6.101-4.732 1.74-1.875 3.658-4.917 3.657-5.799-.003-1.067-3.904-5.25-4.897-5.25-.698 0-6.456 2.98-7.427 3.843-.31.276-.564.75-.564 1.056 0 .304-.379 2.073-.84 3.93l-.841 3.376.906 1.813c1.544 3.086 1.548 3.087 3.905 1.763zm-9.748-2.12c3.284-.634 3.834-.794 3.95-1.148.14-.425-2.249-.229-3.192.261-.299.156-1.051.283-1.673.283-.621 0-1.22.146-1.329.326-.287.47.139 1.032.574.759.203-.127.955-.344 1.67-.482zM12.21 47.942c-.13-.224-.804-1.264-1.497-2.31-1.307-1.969-2.816-5.132-2.816-5.901 0-.591-.856-1.293-1.096-.899-.225.37.935 3.335 1.965 5.023.408.67.742 1.305.742 1.41 0 .532 2.03 3.085 2.452 3.085.3 0 .396-.156.25-.408zm12.896-4.107c.574-2.944.599-3.402.175-3.259-.366.124-1.217 2.89-1.258 4.092-.026.757.914.034 1.083-.833zm31.926-4.647c1.027-4.77 1.118-5.392 1.12-7.648.002-4.078-.35-6.206-1.503-9.082-1.16-2.893-1.98-4.442-3.092-5.845-1.043-1.314-1.776-1.501-3.22-.822-.842.396-1.122 1.008-2.125 4.651-.149.539-.453 1.59-.677 2.335-.403 1.341-.391 1.38 1.078 3.59 2.018 3.036 3.523 4.683 4.28 4.683.347 0 1.422-.51 2.388-1.134.967-.624 1.866-1.138 2-1.142.556-.02-.053 6.295-.96 9.947-.266 1.077-.554 2.472-.638 3.1-.146 1.09-.13 1.112.337.468.27-.372.725-1.768 1.012-3.101zm-16.78.798c-1.224-1.132-2.49-2.15-2.814-2.263-.957-.332-1.086.188-.217.88.739.589 2.276 1.875 3.934 3.294.363.31.81.47.992.356.183-.114-.67-1.134-1.894-2.267zm-10.12-.902c1.152-.248 2.892-.734 3.866-1.08 2.163-.764 2.519-1.411 3.47-6.3 1.273-6.557 1.415-5.63-1.272-8.31-2.978-2.968-4.96-4.42-6.034-4.42-1.04 0-6.752 2.847-8.78 4.377-.825.622-1.885 1.643-2.356 2.269-.837 1.112-.846 1.173-.392 2.713 1.116 3.782 4.201 9.318 6.012 10.786.658.532 2.928.518 5.486-.035zm22.029-3.954c.603-2.604.642-3.1.244-3.1-.47 0-1.65 4.022-1.65 5.623 0 1.397.851-.13 1.406-2.523zm-43.741.344a116.44 116.44 0 0 0 1.985-2.366c.404-.504 1.762-2.139 3.018-3.635 2.528-3.01 2.413-2.461 1.446-6.915-.419-1.927-.72-3.974-.986-6.686-.147-1.506-.915-1.343-2.595.55-2.164 2.439-3.371 4.305-4.493 6.947-.934 2.2-.975 2.491-.98 7.028-.01 6.999.35 7.698 2.605 5.077zm9.466-8.667c0-.18-.362-.326-.805-.326-.443 0-.806.146-.806.326 0 .18.363.326.806.326.443 0 .805-.147.805-.326zm25.619-1.306a283.25 283.25 0 0 1 2.213-.487c.508-.108.835-.287.726-.398-.284-.288-2.315-.167-4.38.26-2.476.512-2.653.58-2.44.928.192.316 1.614.205 3.88-.303zM31.42 16.975c0-.54.144-1.255.32-1.59.177-.333.226-.858.11-1.166-.197-.52-.242-.517-.643.039-.505.698-.603 4.209-.11 3.9.178-.11.323-.643.323-1.183zm17.723-1.906c0-.174-.455-.84-1.01-1.48-1.443-1.665-.825-1.88.663-.231 1.184 1.312 1.958 1.731 1.958 1.061 0-.172-.8-1.142-1.777-2.156-1.556-1.613-1.888-1.816-2.658-1.62-.484.123-.93.274-.991.336-.179.18.335.932 1.86 2.725 1.383 1.624 1.955 2.023 1.955 1.365zm-32.628-2.413c1.601-1.45 3.476-2.59 5.157-3.135 1.39-.45 1.835-.996.805-.987-.691.006-2.48.65-3.812 1.374-1.186.644-3.736 2.754-4.098 3.39-.496.872.72.47 1.948-.642zm21.042-.68c6.697-1.446 7.067-1.54 7.236-1.815.462-.759-2.714-2.664-5.948-3.568-3.273-.914-6.881-1.18-9.403-.694-2.148.415-4.846 1.573-5.02 2.155-.055.187.445.54 1.112.783 1.468.536 3.418 1.744 4.85 3.004 1.33 1.17 2.294 1.188 7.173.135z"/></svg>