<svg xmlns="http://www.w3.org/2000/svg" width="64" height="64"><path d="M30.032 62.942c-4.324-.258-8.823-1.54-12.648-3.602-7.048-3.8-12.293-10.039-14.817-17.625C.73 36.187.501 30.114 1.92 24.408a31.283 31.283 0 0 1 5.196-10.982C11.53 7.51 17.7 3.443 24.855 1.731 30.335.42 36.387.68 41.69 2.456c3.206 1.074 6.12 2.586 8.745 4.537 2.335 1.737 4.64 4.046 6.422 6.433 2.825 3.787 4.81 8.374 5.63 13.006 1.187 6.706.195 13.499-2.851 19.53-1.523 3.016-3.318 5.494-5.73 7.91-1.663 1.666-3.002 2.77-4.807 3.965-5.669 3.752-12.247 5.513-19.066 5.105zm18.001-6.323c.84-.482 1.576-.989 2.863-1.97.562-.43 1.288-.978 1.612-1.22.93-.697 1.427-1.284 1.838-2.174.51-1.104.57-1.945.27-3.805-.174-1.075-.233-2.019-.147-2.34.023-.086.085-.14.16-.14.098 0 .117-.03.09-.14-.094-.378-.17-1.07-.258-2.34-.152-2.222-.272-2.714-1.034-4.236-.556-1.111-.635-1.319-.925-2.42a13.263 13.263 0 0 0-.515-1.55c-.15-.346-.377-.908-.504-1.249-.326-.875-.593-1.382-1.143-2.168-.477-.68-.652-.983-.962-1.657-.15-.326-.194-.369-.562-.542-.272-.13-.443-.258-.539-.406-.077-.119-.161-.217-.187-.217-.026 0-.145.107-.264.24-.279.308-.51.402-.9.365-.334-.032-.376.015-.215.244.117.166.087.184-.39.238-.212.024-.385.067-.385.095 0 .105.429.368 1.245.764 1.19.578 1.57.984 1.82 1.941.112.435.123.721.034.887-.072.134-.417.246-.759.247-.128 0-.232.014-.232.03 0 .096.528 1.413.765 1.905.494 1.03 1.139 1.874 1.797 2.35l.246.18-.242-.001c-.536-.001-.7-.096-1.42-.827-.651-.662-.682-.684-.701-.516-.032.27.155 1.092.361 1.592.23.559.474.962.91 1.504l.337.42-.67-.412a17.706 17.706 0 0 1-.878-.567c-.246-.185-.279-.255.449.973.291.492.52.905.508.918-.013.012-.148-.066-.302-.175-.154-.108-.31-.186-.348-.174-.1.034.143.49.445.834.182.207.22.28.135.254-.315-.094-.475-.114-.618-.078-.15.037-.152.046-.065.215.095.184.414.408 1.068.749.475.248.599.38.958 1.014l.287.507h.295c.207 0 .314.03.36.103.101.158-.044.29-.621.56-.458.216-.67.36-.533.36.178.002.865.14.908.183.03.03-.174.17-.45.315-.278.144-.562.335-.633.424l-.129.163.208.016c.114.008.487.048.828.087l.62.072-.651.205c-.674.211-1.048.386-1.285.6-.176.158-.147.197.211.288l.292.073-.802.471c-1.5.88-2.028 1.402-2.162 2.142-.037.202-.025.24.09.282.119.044.122.058.035.13-.12.1-.074.191.098.191.113 0 .102.028-.094.245-.258.285-.413.565-.413.744 0 .104.04.127.22.127.301 0 .522.225.53.54.03 1.234-.251 1.88-1.211 2.79-.41.388-.57.575-.47.543.086-.026.284-.081.44-.123l.284-.075-.077.224c-.042.123-.097.58-.122 1.016l-.045.792.292-.125c.161-.07.59-.296.954-.505zm-25.219.166a9.596 9.596 0 0 0 1.927-.444c.463-.151.477-.161.604-.458.131-.305.17-.527.084-.483-1.585.811-2.499 1.019-4.224.96-3.349-.115-6.453-1.724-8.17-4.233a13.881 13.881 0 0 1-.766-1.329c-.453-.904-.738-1.34-1.206-1.846a2.811 2.811 0 0 1-.49-.732c-.522-1.256-.628-1.586-.608-1.893.021-.32-.365-.625-1.354-1.066-.494-.22-1.05-.446-1.235-.501-.882-.261-1.657.022-1.404.512.174.337.689.674 2.474 1.621 1.427.757 1.45.779 1.969 1.846.5 1.03 1.534 2.862 1.987 3.52 2.181 3.173 6.494 5.047 10.412 4.526zm15.776-.908c-.298-.19-1.272-1.135-1.272-1.236 0-.029.23.033.511.138 1.102.409 2.148.747 2.668.861.7.154 1.395.21 1.595.128l.155-.064-.189-.004c-.283-.006-.887-.174-1.243-.346-.183-.089-.534-.369-.839-.67l-.524-.517.405.085c1.165.245 1.98.34 2.855.335.494-.003.996-.031 1.116-.062.2-.052.19-.056-.158-.062-.446-.008-1.03-.15-1.302-.318-.108-.067-.294-.27-.415-.45l-.218-.33 1.093-.071c1.243-.081 1.846-.212 2.532-.552.25-.123.445-.235.432-.248-.013-.013-.272.035-.576.107-.924.22-1.45.176-1.45-.12a.721.721 0 0 0-.082-.257l-.08-.155.336-.019c.743-.041 1.74-.486 2.295-1.023.266-.257.482-.584.424-.642-.055-.055-.38.155-.774.502-.215.19-.466.36-.558.38-.091.02-.231.048-.31.064-.08.017-.434-.003-.79-.043-.732-.082-1.2-.023-1.735.219-.36.162-.803.526-.73.599.028.027.288.135.578.24.29.106.568.208.62.229.15.06-.862.265-1.321.267-.321.002-.577-.05-1.07-.215-.73-.244-.948-.265-1.137-.108-.13.107-.12.115.71.633.464.29.856.546.871.57.046.075-.4.133-.725.094-.168-.02-.596-.163-.952-.318-.843-.367-.906-.367-.629-.004l.15.197-.333-.028a2.59 2.59 0 0 0-.557.014l-.223.042.12.206.122.205-.457-.176c-.547-.21-1.203-.387-1.253-.336-.02.02.039.189.13.376.092.188.168.354.168.37 0 .015-.127-.053-.281-.15-.561-.356-.905-.314-2.097.259-.724.347-.782.386-.626.428.095.025.19.035.212.021.023-.014.262-.053.533-.087.914-.114 1.542.03 2.939.677 1.102.51 1.915.732 1.336.365zm-11.844-.509c.205-.136.438-.306.517-.378l.145-.13-.043.17c-.039.153-.02.18.181.265.716.299 1.78.09 2.424-.475l.22-.193-.064.17c-.063.163-.059.168.107.128.46-.112 1.104-.734 1.527-1.476a.606.606 0 0 1 .35-.302c.323-.103.77-.403 1.03-.692.128-.141.217-.216.199-.166-.112.295-.119.37-.035.37.13 0 .362-.275.539-.638.146-.3.173-.323.375-.32.119.002.258.016.31.031.064.02.093-.02.093-.128.001-.114.039-.16.145-.175.079-.011.13-.053.116-.093-.134-.356-.13-.368.088-.338.115.016.258.05.319.077.098.043.106.021.075-.192a1.165 1.165 0 0 1 .014-.406l.049-.167.302.147.303.146-.037-.357a2.85 2.85 0 0 0-.077-.46c-.03-.08-.004-.104.118-.104.087 0 .229.027.317.06.134.052.159.044.159-.052 0-.062-.072-.247-.159-.41l-.158-.298.417.039c.23.021.446.067.481.102.127.127.163.055.163-.326 0-.245-.035-.438-.093-.522-.092-.13-.088-.133.387-.17.695-.054 1.103-.148 1.223-.281.14-.156.071-.36-.142-.42-.246-.07-1.717-.04-2.181.042-.482.086-.992.244-.992.308 0 .025.097.092.217.149.345.164.256.551-.252 1.094-.198.212-.277.343-.25.414.077.202-.023.331-.29.374-.21.034-.353.132-.785.538-.442.417-.525.525-.51.667.013.125-.015.18-.11.21-.07.022-.156.023-.19.002-.036-.023-.062.03-.062.123 0 .355-.34.713-.674.713-.092 0-.148.077-.224.304-.17.51-1.089 1.488-1.691 1.799-.168.087-.168.089-.024-.216.105-.221.23-.709.18-.709-.011 0-.284.196-.607.435-.902.668-1.066.734-2.215.894l-.202.028.263-.313c.154-.182.549-.501.946-.765 1.168-.774 2.007-1.73 2.323-2.649.12-.35.29-1.827.218-1.9-.014-.013-.09.018-.17.07-.11.072-.17.21-.249.574-.086.397-.172.581-.504 1.076-.819 1.223-1.3 1.678-2.042 1.93-.462.156-.496.182-.842.651-.15.205-.544.651-.875.992-.588.606-.602.628-.64.971a2.853 2.853 0 0 1-.08.457c-.036.094-.024.097.109.027a8.94 8.94 0 0 0 .52-.326zm-3.554-1.94c.606-.314 1.415-1.433 1.415-1.958 0-.175-.277-.424-.471-.424-.092 0-.342.098-.556.217-.444.249-.627.269-.85.092-.24-.188-.257-.406-.079-.965.086-.27.157-.526.158-.57.001-.179-.743.122-1.1.445-.734.663-.718 2.001.034 2.788.419.438 1.024.595 1.449.375zm4.385-1.818c.142-.273.254-.577.254-.687 0-.484-.683-1.773-1.42-2.68-.242-.298-.44-.556-.44-.574 0-.072.223-.026.48.099.203.097.38.275.696.697.367.49.683.783.841.783.024 0 .033-.163.018-.362-.061-.85-.6-1.48-2.144-2.51-.973-.647-1.571-1.125-1.69-1.347-.055-.102-.038-.11.172-.081.793.109 1.92.62 3.164 1.434.138.09.14.089.077-.075-.1-.264-.397-.666-.693-.938-.646-.596-1.511-1.067-3.463-1.885-1.592-.668-2.087-.811-2.945-.852-.825-.04-1.236.035-1.84.338-.504.252-.498.26.244.386.247.041.463.098.48.127.042.066-.12.098-1.209.242-1.077.143-1.526.297-1.896.652-.29.278-.342.406-.165.41.06.001.205.054.324.117l.215.115-.452.134c-1.736.517-2.872 1.272-3.605 2.396-.368.563-.396.644-.344.992.039.258.049.27.177.202.074-.039.498-.438.941-.888.444-.449.96-.931 1.148-1.072.504-.376 1.281-.744 1.967-.93.557-.15.705-.163 1.845-.166 1.349-.004 1.671.042 2.821.407 2.4.761 4.638 2.683 5.49 4.712.292.694.59 1.294.644 1.294.03 0 .167-.22.308-.49zm-9.945.066c1.023-.484 1.487-1.47 1.03-2.19-.099-.156-.242-.327-.318-.38-.136-.096-.145-.088-.442.41-.167.279-.361.556-.433.616-.213.178-.449.135-.767-.14-.327-.283-.603-.325-.845-.13-.294.239-.13 1.005.325 1.523.449.512.825.587 1.45.291zm14.53-3.792c.41-.204.78-.372.818-.372.039 0 .242-.096.452-.213.47-.262 1.507-.67 2.048-.805.221-.056.997-.213 1.724-.35 2.14-.401 3.009-.674 3.773-1.185.35-.234.68-.56.68-.672 0-.174-1.865-.195-3.214-.035-.454.054-1.105.155-1.446.224-.809.165-2.797.923-3.994 1.522-1.418.71-1.288.588-1.476 1.374-.153.642-.191.884-.138.884.014 0 .361-.167.772-.372zm.428-2.776l.233-.479.682-.204a87.875 87.875 0 0 1 2.2-.602c1.894-.495 2.806-.807 3.73-1.279.91-.463 1.64-1.005 2.674-1.983 1.442-1.364 2.019-2.25 2.4-3.688.133-.502.317-1.587.276-1.63-.012-.012-.212.117-.443.287-.232.17-.767.539-1.19.82-.93.62-1.179.807-1.89 1.42-1.11.955-1.252 1.066-1.66 1.28-.23.12-.704.313-1.056.428-.645.21-2.641.69-2.687.645-.013-.014.07-.241.185-.505.167-.385.188-.475.106-.45-.057.017-.236.063-.399.103a.735.735 0 0 0-.468.297c-.328.426-.836 1.306-1.687 2.922-.35.665-.756 1.404-.902 1.643-.237.387-.708 1.445-.708 1.59 0 .031.083.013.185-.04.134-.069.252-.231.419-.575zm-22.771-.277a5.477 5.477 0 0 0-.19-.473c-.083-.183-.15-.38-.15-.436 0-.09-.079-.417-.222-.92-.034-.12-.017-.14.124-.14h.165l-.159-.232-.159-.233.333-.062c.21-.04.323-.089.307-.136-.014-.043.082-.103.235-.144a5.43 5.43 0 0 0 .4-.123c.121-.046.136-.036.108.07-.025.098.006.084.157-.067.172-.17.227-.189.582-.189.216 0 .49-.028.61-.062.119-.035.419-.105.666-.156.401-.083.475-.083.674 0 .318.133.373.123.794-.15.207-.133.641-.347.965-.474.715-.28.729-.29.701-.505a.461.461 0 0 1 .037-.262c.083-.125.452-.103.75.045l.246.121.035-.224c.127-.822.293-.964 1.065-.91l.508.035-.084-.201a2.483 2.483 0 0 1-.126-.483c-.034-.227-.019-.31.077-.428.098-.121.154-.139.334-.105.118.022.323.095.456.163.132.067.25.112.262.1.012-.012-.145-.241-.348-.51-.203-.268-.36-.497-.347-.51.044-.044.5.137.773.306.153.095.289.161.303.147.014-.014-.118-.211-.293-.438-.3-.39-.388-.583-.264-.583.132 0 .57.193.967.427.239.14.483.255.544.255.103 0 .104-.014.013-.232a2.593 2.593 0 0 0-.346-.527l-.248-.295h.186c.288 0 .46.09.911.472l.418.354-.036-.35c-.045-.429-.256-.83-.738-1.403-.199-.236-.362-.445-.362-.464 0-.075.323-.028.65.094.436.163.919.544 1.159.915.103.159.173.233.156.165a27.48 27.48 0 0 1-.137-.62c-.124-.58-.247-.845-.65-1.395-.296-.406-.496-.75-.496-.858 0-.11.266-.126.507-.03.168.068.384.264.709.648.405.477.617.674.727.674.06 0-.094-.54-.239-.84-.083-.173-.43-.62-.771-.993-.34-.373-.62-.712-.621-.754-.002-.116.281-.163.508-.083.111.038.412.206.668.372.256.166.535.322.62.347l.155.044-.13-.147a7.412 7.412 0 0 1-.42-.58c-.206-.31-.263-.44-.2-.454.081-.017.71.127.946.217.204.079-.209-.38-.85-.942-.526-.461-.608-.558-.52-.607.192-.107.714.008 1.271.28.3.146.525.232.503.192-.13-.231-.747-.906-.981-1.074-.272-.195-.851-.434-1.053-.434-.058 0-.089-.017-.068-.037.061-.061 1.3.094 1.731.218.222.063.538.174.702.247.163.072.307.123.317.112.029-.029-.276-.478-.466-.687-.178-.197-.484-.349-.702-.35-.093 0-.168-.057-.218-.165-.043-.091-.064-.18-.048-.196.017-.016.344-.134.728-.263l.698-.233.072-.3c.128-.535.106-.577-.15-.289l-.232.259-.532.024c-.376.018-.603.062-.775.15l-.49.258c-.211.112-1.404.694-1.422.694a3.17 3.17 0 0 1 .016-.271c.035-.436-.107-.637-.533-.755-.448-.124-1.153-.425-1.455-.622-.29-.189-.388-.193-.27-.01.048.076.136.306.193.511.057.205.14.43.185.5.078.124.063.13-.445.204-.967.14-1.846.476-2.18.835l-.146.155.641-.028.641-.029-.54.182c-.73.245-1.609.683-2.082 1.036-.214.16-.377.304-.362.32.015.015.498-.125 1.072-.312.94-.305 2.296-.64 2.354-.582.012.012-.319.158-.737.323-1.522.601-2.642 1.201-3.239 1.736l-.186.167.217-.135c.963-.597 2.555-1.066 3.565-1.05.292.006.25.026-.683.333-.99.327-1.72.655-2.014.905-.09.077-.112.119-.053.1 1.06-.335 1.6-.442 2.564-.509.732-.05.73-.01-.03.395-.445.237-.753.52-.663.609.023.023.314.014.646-.02.333-.033.616-.052.63-.042.064.05-.178.231-.628.471-.273.145-.55.332-.616.415-.113.144-.114.154-.008.213.061.034.247.06.413.058.175-.003.27.016.223.045-.065.04-.059.107.03.34.07.182.1.378.08.527-.03.214-.017.24.127.277.14.035.103.064-.317.246-.462.201-1.435.77-1.391.813.012.012.334-.034.717-.103.382-.068.84-.116 1.017-.106l.322.02-.705.203c-.77.222-1.485.488-1.583.588-.042.043-.024.05.055.022.22-.078 1.247-.156 1.458-.112l.21.045-.365.114c-.726.226-1.697.68-1.62.757.014.015.146-.016.293-.068a2.391 2.391 0 0 1 1.11-.063c.238.052.198.11-.149.218-.437.136-1.302.613-1.52.84l-.213.219.27-.096c.31-.109 1.044-.125 1.387-.03l.234.066-.544.399c-1.055.774-1.803 1.255-2.164 1.391-.32.121-.427.132-.89.092-1.232-.109-1.504-.015-2.297.792-.387.394-.538.503-.84.607-.483.167-.986.215-1.315.126-.147-.04-.747-.111-1.334-.159-1.004-.081-1.104-.101-1.694-.338-.834-.334-1.122-.334-1.296.002-.235.454.051 1.037.821 1.674.488.403.637.449 1.615.499.522.026 1.005.085 1.178.143.367.122.847.527 1.014.855.122.239.403.538.509.542.028.001.032-.06.01-.137zm38.876-.41c.226-.042.205-.05-.248-.088-.981-.082-1.884-.435-2.429-.95-.165-.156-.251-.268-.192-.25.528.166 1.94.191 2.435.043.145-.043.07-.056-.347-.06a4.317 4.317 0 0 1-1.935-.485c-.488-.256-1.132-.85-1.196-1.1-.055-.22-.137-.195-.184.057-.06.324.125.652.466.825l.277.14h-.289c-.158 0-.303.023-.321.053-.019.03.09.12.242.2.19.101.287.198.312.31.045.206.33.482.563.545.164.044.15.052-.151.092-.265.036-.317.061-.263.127.125.15.784.405 1.28.494.532.096 1.58.121 1.98.047zm-2.18-3.005c-.697-.514-1.359-1.38-1.563-2.046-.113-.366-.114-.367-.155-.163-.148.74.578 1.746 1.666 2.31.45.234.465.203.053-.1zm-1.784-8.472c.224-.17.285-.185.755-.186l.512-.002v-.213c0-.255-.065-.31-.224-.19-.14.106-.446.118-.686.027-.161-.061-.19-.047-.4.198l-.224.264-.768-.077c-.422-.042-1.458-.16-2.301-.26-.844-.1-1.556-.184-1.582-.184-.025-.001.134-.1.355-.218.221-.12.442-.257.492-.306.104-.105.175-.069-.676-.34-.448-.144-.682-.262-.974-.491l-.385-.302.273.03c.15.018.35.011.446-.013l.175-.045-.269-.239c-.312-.279-1.593-.953-1.693-.89-.041.025-.056.161-.038.349.022.228.093.397.277.658.259.368.508.545 1.066.757.525.199.688.34.688.594 0 .119.03.335.066.481.125.494.455.573 2.75.66.883.033 1.62.074 1.637.09.1.102.505.017.728-.152zm-.44-2.2l.804-.518.359.181c.27.137.358.159.358.091 0-.18-.126-.412-.361-.671a2.972 2.972 0 0 1-.301-.376c-.054-.1-.078-.086-.222.13-.088.134-.249.31-.357.392-.108.081-.355.29-.548.465-.352.318-.792.52-1.132.52-.18 0-.365-.14-.365-.276 0-.165-.213-.244-.95-.35-.415-.06-.811-.127-.88-.15-.068-.021.281.176.776.438.494.263 1.052.514 1.24.558.638.15.702.132 1.579-.433zm-.697-1.282c.128-.065.363-.201.524-.303.285-.18.287-.185.11-.186-.101 0-.248-.018-.328-.04-.136-.036-.132-.045.09-.17.462-.258.818-1.02.647-1.381l-.082-.175-.105.23c-.136.302-.963 1.165-1.115 1.165-.064 0-.127-.029-.138-.064-.014-.04-.16-.016-.387.062-.201.07-.48.126-.62.125-.241 0-.862-.124-1.117-.223-.095-.036-.11-.024-.08.058.056.144-.059.132-.39-.042a5.026 5.026 0 0 0-.721-.279c-.244-.073-.458-.17-.475-.217-.043-.11-.817-.536-.976-.536-.067 0-.121.041-.121.091 0 .067-.048.083-.17.06a.541.541 0 0 0-.373.094c-.346.215-.251.331.406.5.217.055.26.089.23.18-.027.09.021.137.227.219.144.057.337.158.43.224.306.219 1.978.59 1.978.439 0-.036-.05-.095-.109-.132-.08-.05.037-.057.45-.03.66.045.983.13.938.248-.108.28.775.338 1.277.083zm3.716-1.583c.119-.107.154-.269.058-.269-.09 0-.14-.203-.062-.252.04-.025.184-.063.321-.085l.248-.04-.14-.148a.745.745 0 0 1-.166-.417c-.045-.446.017-.461.594-.142.603.334 1.127.482 1.61.457.19-.01.508.004.703.032.354.05.792.01.791-.074 0-.024-.178-.136-.395-.248l-.395-.205.244-.694c.134-.382.283-.754.33-.826.046-.073.244-.222.438-.331.195-.11.529-.372.743-.582.452-.444.523-.633.523-1.387v-.509l.282-.165c.155-.09.399-.203.542-.251.254-.084.245-.086-.28-.052-.308.02-.543.011-.543-.02 0-.095.341-.525.65-.82.842-.804 1.393-2.168 1.492-3.692.051-.807.107-.962.503-1.399.165-.183.38-.436.475-.56l.173-.229-.123-.241c-.185-.363-.592-.852-.825-.992-.113-.069-.488-.187-.832-.264l-.627-.14.332-.32c.182-.178.332-.356.332-.397 0-.045-.175.013-.435.144-.239.12-.61.26-.826.31-.377.087-.436.083-1.442-.1-.887-.161-1.256-.196-2.397-.224a61.415 61.415 0 0 1-1.347-.04c0-.005.04-.12.09-.256.049-.137.089-.416.089-.62l-.001-.372-.11.34c-.06.188-.17.456-.241.596-.142.274-.523.645-.664.645-.047 0-.27.125-.493.278a4.418 4.418 0 0 1-.408.264c-.036-.486-.133-1.114-.195-1.255-.075-.17-.085-.118-.114.594-.036.903-.066.967-.801 1.76-.381.412-.682.816-1.769 2.377-.197.283-.368.505-.38.493-.038-.038.157-.792.254-.98.123-.238.051-.23-.342.034-.365.245-.372.248-.372.135 0-.046-.07-.148-.155-.228-.086-.08-.155-.167-.155-.192 0-.025.18-.18.402-.341.22-.163.392-.305.38-.317-.011-.012-.153.035-.314.104-.16.07-.367.126-.458.126-.257 0-.816.397-.816.578 0 .042-.21.238-.466.435-.417.321-.458.371-.397.485.038.07.058.235.045.367-.022.23-.018.236.103.146.338-.25.953-.634 1.127-.703.556-.222.66.121.3 1.001-.04.099.006.109.505.106l.55-.003.34-.54c.508-.804 1.233-1.682 2.138-2.59.936-.939 1.56-1.402 2.126-1.577 1.279-.395 4.095-.225 5.502.332.452.179.55.195 1.108.183.431-.01.678.014.836.08.491.206.633.529.374.857-.071.091-.335.304-.584.472-.25.169-.477.342-.505.385-.028.044-.052.581-.054 1.195-.004.972-.022 1.168-.14 1.523-.158.478-.52 1.06-.935 1.507-1.115 1.196-1.247 1.483-1.247 2.698 0 .789-.012.873-.142 1.067a.698.698 0 0 1-.418.293 3.593 3.593 0 0 0-.41.147c-.124.06-.628.986-.953 1.754-.156.368-.201.402-.536.403-.196 0-.45-.096-1.054-.402-.936-.473-1.223-.519-1.448-.232-.166.21-.136.485.088.823l.154.233-.203.039c-.28.052-.489.256-.437.428.037.123.446.6.515.6.016 0 .08-.046.142-.103zm-4.657-.27c.263-.133.434-.276.587-.49.12-.165.297-.334.395-.374.098-.04.267-.197.375-.348.108-.151.25-.303.316-.338.113-.06.104-.094-.171-.65-.304-.61-.387-.714-.245-.304.184.527.182.552-.073.874-.137.173-.348.35-.493.416-.248.112-.446.388-.446.62 0 .134-.082.125-.218-.025-.11-.123-.113-.122-.221.119-.114.254-.272.377-.485.377-.226 0-.714-.197-.948-.382-.222-.175-.247-.18-.837-.163l-.608.018.609.145c.482.115.601.164.573.238-.02.052-.053.163-.075.249l-.039.155.396-.04c.218-.02.48-.012.582.02.347.11.64.077 1.026-.117zm-22.448-.82c-.088-.145-.123-.313-.123-.592v-.391l.274.189c.243.167.407.231.631.246.038.003.204.124.368.269.296.26.305.263.769.263.373 0 .525-.03.747-.147a3.72 3.72 0 0 1 .59-.236c.508-.145.483-.127.378-.277-.126-.18-.045-.32.323-.56l.29-.189-.3.037c-.164.021-.394.083-.51.138-.252.12-.498.075-.554-.1-.047-.147-.232-.161-.344-.025-.1.12-.515.336-.645.336-.108 0-.12.053-.039.18.041.065.136.077.371.05l.316-.038v.207c0 .36-.403.399-.714.068l-.203-.214-.076.185-.077.185-.136-.198c-.127-.185-.18-.207-.752-.304-.338-.058-.72-.126-.847-.151l-.233-.046v.4c0 .55.083.76.33.84.295.095.298.092.166-.125zm25.133-1.187l.223-.273-.12-.152c-.066-.085-.176-.41-.245-.722a6.215 6.215 0 0 0-.154-.619c-.017-.027-.2-.1-.406-.162-.342-.104-.388-.139-.514-.39-.165-.33-.582-.715-.866-.799-.18-.053-.202-.082-.188-.257.018-.22-.015-.232-.375-.132-.267.074-.267.075.006.668.145.317.165.336.198.196.095-.401.805.002.9.511.036.186.12.294.428.543.362.294.393.34.547.822.09.281.195.63.232.774.038.145.078.264.09.264.011 0 .121-.123.244-.272zm-7.639-.533c.152-.296.315-.535.373-.546.099-.02.155.116.405.979.016.052.12-.105.235-.354.171-.37.238-.454.383-.485a4.22 4.22 0 0 0 .455-.141c.153-.057.326-.104.384-.104.136-.001.67-.446.67-.559 0-.125.248-.279.45-.279.11 0 .232.061.329.166l.153.165-.168.176c-.133.14-.173.249-.194.539-.015.203 0 .38.035.402.034.02.201-.004.372-.054.412-.123.759-.492.759-.81 0-.252-.092-.454-.26-.573-.09-.064-.108-.129-.077-.29.049-.26-.01-.449-.154-.494-.168-.054-1.088.257-1.307.441a1.59 1.59 0 0 0-.328.447 1.226 1.226 0 0 1-.341.423c-.184.121-.756.29-.808.238-.011-.011.02-.1.072-.199.05-.098.197-.498.325-.889.291-.888.41-1.019 1.172-1.294.54-.194.565-.197.767-.1.257.122.296.091.195-.152-.104-.251-.422-.522-.753-.643-.29-.105-2.1-.18-2.1-.086 0 .027.04.143.087.257l.087.208-.226.037c-.336.055-.6.244-.786.563-.163.278-.165.292-.085.693.072.365.069.452-.034.82-.33 1.18-.4 1.492-.403 1.77-.002.168.008.294.022.28.014-.014.146-.263.294-.552zm-21.624-.055c.635-.381.777-.442 1.029-.442.36 0 1.094.184 1.563.392.31.137.363.145.43.064.062-.075.05-.185-.063-.568-.077-.262-.173-.496-.213-.522-.14-.09-1.193-.046-1.77.074l-.583.12-.362-.147c-.198-.08-.597-.3-.885-.488l-.523-.341.034-.253c.041-.308-.037-.416-.367-.504-.195-.053-.237-.088-.203-.171.117-.285.1-.321-.362-.785-.256-.257-.527-.594-.601-.748-.14-.286-.14-.285-.027-1.13.037-.278.015-.403-.148-.837-.105-.281-.288-.902-.408-1.38-.119-.476-.441-1.656-.716-2.62-.274-.963-.499-1.844-.499-1.957 0-.257.188-.443.59-.587.44-.158.465-.238.232-.738-.215-.46-.388-1.032-.388-1.282 0-.324.471-.265 2.256.282 1.542.473 3.932 1.514 6.695 2.919 2.161 1.098 2.502 1.424 3.016 2.884.127.363.258.67.29.68.085.028 1.321-.59 1.321-.66 0-.142-.151-.377-.242-.376-.054.001-.264.07-.465.153-.202.083-.389.137-.415.121-.07-.043-.416-.965-.53-1.409a2.982 2.982 0 0 1-.07-.909l.028-.527-.34.384-.34.384-.136-.293c-.075-.16-.297-.69-.495-1.177-.198-.487-.37-.876-.382-.864-.012.012.005.299.038.637.033.339.06.709.062.822l.001.206-.159-.125a1.76 1.76 0 0 0-.483-.22c-.514-.15-2.016-.896-2.119-1.054a1.872 1.872 0 0 1-.168-.46c-.042-.176-.095-.32-.117-.32-.023 0-.061.14-.085.31-.023.17-.058.31-.077.31-.019 0-.243-.077-.499-.17-.458-.17-.467-.177-.771-.652-.17-.264-.317-.48-.328-.48-.01 0 .008.1.042.223.034.122.05.235.035.25-.015.014-.164-.033-.33-.105-1.042-.451-4.217-1.423-4.637-1.42-.286.002-.344.043-.86.607-.302.332-.356.425-.356.626 0 .265.208.623.51.879.24.202.202.268-.286.487a1.794 1.794 0 0 0-.89.844c-.095.201-.092.218.093.567.3.564.53 1.19.976 2.656.228.749.551 1.803.719 2.343.327 1.055.36 1.326.205 1.714-.055.137-.086.284-.07.326.017.043.275.425.574.85.496.704.538.786.48.939-.081.215-.052.254.34.452.362.183.419.336.186.503l-.14.1.155.127c.186.153.82.473 1.333.671.205.08.396.165.425.19.029.026-.09.288-.265.584-.175.296-.296.526-.27.51.027-.015.38-.226.785-.47zm4.413.025c.115-.088.106-.106-.227-.427-.345-.333-.348-.34-.453-.916a79.74 79.74 0 0 0-.13-.697c-.013-.064.057-.318.154-.563.147-.37.172-.51.148-.814-.033-.396.086-.727.307-.858.09-.054.136-.038.24.088l.127.155-.045-.527a9.157 9.157 0 0 0-.055-.538 1.94 1.94 0 0 0-.303.051c-.29.062-.388.19-.2.261.14.054.111.224-.059.358-.199.156-.404.716-.39 1.066.01.254-.016.308-.284.594-.334.357-.336.41-.033.985.155.294.349.868.528 1.563.044.17.095.225.24.256.287.061.307.06.435-.037zm5.095-.824a7.65 7.65 0 0 0-.17-1.1c-.134-.552-.137-.716-.024-1.501a.601.601 0 0 0-.1-.482c-.17-.275-.465-.501-.728-.557-.227-.048-.233-.064-.109-.281a.72.72 0 0 0 .091-.223c.004-.116-1.75-.156-2.112-.048-.342.101-.638.328-.775.594-.116.224-.077.279.133.183a.837.837 0 0 1 .28-.072c.199 0 1.225.545 1.33.706.054.081.178.465.277.852.099.388.237.87.308 1.071.07.202.127.388.127.414 0 .09-.768-.253-.944-.422-.1-.096-.217-.309-.27-.493-.106-.364-.292-.553-.793-.807-.467-.237-.626-.27-.777-.165-.1.07-.13.157-.13.372 0 .19-.044.344-.135.472a1.111 1.111 0 0 0-.162.514c-.025.3-.01.342.185.555.171.187.259.233.456.24l.243.008.045-.341c.038-.29.025-.368-.081-.516-.146-.201-.124-.304.095-.447.227-.15.56-.031.651.231.087.25.494.745.586.713.039-.013.21.052.38.146.17.093.418.204.549.245.19.06.262.129.353.331.074.166.126.223.147.164.387-1.098.44-1.133.742-.503.114.24.223.493.242.563.077.295.121.09.09-.415zm5.89-.998c.144-.214.32-.575.39-.803.194-.619.28-1.64.21-2.508-.03-.4-.036-.728-.012-.728.088 0 .54.66.728 1.06.235.503.397 1.238.35 1.59-.02.145-.022.264-.006.264.07 0 .412-.778.523-1.19.067-.25.208-.927.312-1.507.105-.58.265-1.277.356-1.55l.166-.496.072.527c.04.29.147.775.24 1.078.093.304.19.722.214.93l.044.379.254-.496c.14-.273.422-.873.628-1.333.38-.85.82-1.691.863-1.65.012.013-.06.382-.16.821-.1.439-.2.923-.223 1.077l-.04.279.162-.186c.09-.102.404-.674.7-1.271.512-1.036.538-1.074.554-.837.01.136-.035.555-.098.93s-.105.694-.093.708c.04.05.403-.331.764-.801.197-.256.431-.533.52-.615l.163-.15v.17c0 .141.078.368.16.463.011.013.224-.156.473-.376.248-.22.558-.48.689-.577l.237-.177-.392-.18a3.052 3.052 0 0 0-.764-.221l-.372-.042.279-.273c.595-.582 1.409-.817 3.193-.92l.868-.05-.372-.084c-1.66-.372-3.785-.029-4.863.786-.183.14-.206.145-.168.041.124-.33.483-.822.833-1.145.767-.706 1.838-1.126 3.81-1.494.435-.08.79-.172.79-.203 0-.082-1.366.004-2.36.15-.941.137-1.271.255-2.933 1.047-.508.242-.93.44-.937.44-.007 0 .012-.156.042-.347.073-.47.242-.778.663-1.211.224-.23.308-.35.228-.326-.434.134-1.185.644-3.182 2.16l-.16.121.042-.214c.023-.118.157-.451.3-.741.42-.856 1.527-1.895 2.687-2.524.204-.11.348-.202.32-.203-.137-.003-2.033.588-2.324.725-.425.2-.794.569-1.78 1.782-.443.544-.841 1.032-.886 1.085-.13.154-.039-.277.271-1.275.498-1.605 1.277-3.549 1.924-4.798l.337-.651-.349.372c-.585.624-1.452 1.828-2.039 2.83-.644 1.101-1.697 3.166-1.845 3.618-.083.255-.102.279-.105.132-.007-.33.299-1.67.8-3.508.51-1.87.83-3.195.796-3.296-.01-.032-.101.187-.2.486-.169.502-.97 2.143-2.083 4.26-.25.476-.575 1.16-.722 1.52-.29.709-.32.668-.175-.23.163-1.003.639-2.75 1.252-4.595.075-.226-.323.414-.662 1.064-.963 1.849-1.497 3.838-1.311 4.884.038.22.089.467.111.55.038.139.01.13-.357-.125-.54-.372-1.046-.886-1.28-1.297-.266-.467-.508-1.34-.555-1.999-.02-.3-.059-.56-.084-.576-.153-.094-.173 1.649-.027 2.358.162.79.406 1.292 1.027 2.11.641.844.922 1.33.77 1.33-.053 0-.382-.29-.73-.646-.674-.686-1.175-1-1.72-1.072-.423-.057-.297.186.168.324.397.118 1.01.524 1.252.828l.184.233-.55-.027c-.449-.021-.631 0-1.003.116l-.454.141.496.086c.368.063.605.15.915.334.23.136.418.257.418.27 0 .011-.118-.006-.263-.04-.145-.033-.557-.05-.915-.036-.57.02-.693.045-.992.202l-.34.178.185.045c.103.025.368.078.59.118.757.138 1.392.587 1.893 1.342.263.396.475.875.875 1.973.149.408.296.768.328.8.036.035.196-.081.422-.308.448-.45.544-.732.495-1.452-.019-.272-.011-.494.016-.494.07 0 .415.402.52.605.133.259.276.784.384 1.406.162.937.22 1.159.296 1.135.04-.012.19-.196.334-.41zm16.037-.342c-.905-.373-1.888-1.119-2.155-1.635l-.1-.192.313.21c.171.115.61.306.975.423.606.195 2.278.6 2.451.594.04 0-.29-.123-.734-.27-.986-.328-1.386-.526-2.107-1.044-.837-.601-1.04-.693-1.54-.696l-.425-.002.225-.194c.254-.22.442-.271.997-.271.698 0 1.418.232 3.936 1.267.837.345 1.241.454.775.21a103.03 103.03 0 0 1-1.446-.807c-1.683-.951-2.388-1.256-3.262-1.41-.985-.175-2.032.068-2.916.676-.272.187-.284.19-.472.093-.106-.055-.207-.086-.223-.07-.045.045.157.142.672.326.855.305 1.114.483 1.871 1.288.98 1.04 1.508 1.334 2.852 1.584.865.161.886.156.313-.08zM21.48 18.63c.537-.261.677-.361.897-.64.308-.392.392-.448.592-.397.083.02.15.022.15.004 0-.051-.977-.675-1.351-.863a5.885 5.885 0 0 0-.922-.32c-.716-.185-.682-.168-1.33-.684-.285-.228-.69-.493-.897-.588-1.186-.541-2.905-.46-4.293.202-.216.103-.383.196-.372.207.011.01.23-.038.485-.108.386-.106.661-.128 1.612-.133 1.093-.006 1.17.002 1.612.159.256.09.598.24.76.33.352.198.944.734.76.688-.363-.09-1.182-.161-1.85-.16-.885 0-1.715.15-2.201.397-.307.155-.847.585-.797.634.012.013.23-.072.482-.189.827-.38 1.296-.491 1.942-.457.503.026.655.064 1.28.323.39.162.96.386 1.267.499l.557.204-.62.043c-.881.06-1.852.206-2.34.349-.23.068-.418.134-.418.147 0 .013.51.022 1.132.02 1.328-.004 1.668.054 2.179.375.208.131.42.256.471.277.2.084.602-.022 1.213-.32z"/></svg>