<svg xmlns="http://www.w3.org/2000/svg" width="64pt" height="64pt" viewBox="0 0 64 64"><path d="M30.063 64.371c-8.825-.488-17.055-4.676-22.704-11.558A32.133 32.133 0 0 1 .98 40.16a32.878 32.878 0 0 1-.363-14.308c2.008-10.168 8.828-18.813 18.2-23.055a31.538 31.538 0 0 1 23.816-.879c10.75 3.95 18.61 13.488 20.508 24.879 1.207 7.242-.028 14.617-3.504 20.98-3.711 6.793-9.711 12.004-16.91 14.68-3.973 1.484-8.368 2.145-12.664 1.914zm-11.356-4.984c0-.121-.031-.188-.14-.27-.196-.144-.294-.488-.294-1.078 0-.59.094-.934.293-1.078.11-.086.145-.148.145-.273 0-.208-.11-.211-.375-.02-.344.25-.535.895-.48 1.61.046.593.226.988.535 1.179.226.14.316.125.316-.07zm.61.07c.37-.23.546-.684.546-1.418 0-.734-.175-1.187-.547-1.418-.214-.133-.27-.117-.27.059 0 .105.048.21.161.332.207.234.297.672.258 1.246-.035.46-.117.703-.297.86a.326.326 0 0 0-.121.269c0 .187.05.203.27.07zm4.156-.074c0-.121-.032-.188-.102-.223-.058-.035-.144-.16-.207-.285-.086-.195-.102-.316-.102-.836 0-.523.016-.64.102-.836.063-.125.148-.25.207-.285.07-.035.102-.102.102-.223 0-.195-.043-.207-.285-.07-.364.207-.54.652-.547 1.367-.008.543.066.883.254 1.18.117.195.367.371.515.379.04 0 .063-.067.063-.168zm.683.043c.512-.352.676-1.621.305-2.387-.133-.273-.3-.434-.523-.488-.125-.031-.13-.024-.13.14 0 .125.028.188.098.227a.84.84 0 0 1 .203.258c.098.187.11.273.11.863s-.012.68-.11.863c-.058.114-.152.23-.207.258-.062.035-.093.102-.093.223 0 .207.093.219.347.043zm3.84-.02a.24.24 0 0 0-.121-.222.987.987 0 0 1-.227-.309c-.097-.2-.113-.3-.113-.813 0-.671.055-.863.293-1.097.113-.11.168-.207.168-.3 0-.165-.098-.18-.32-.044-.403.25-.57.723-.535 1.559.027.644.109.902.379 1.16.277.258.476.285.476.066zm.578.07c.426-.222.668-1.093.531-1.898-.097-.574-.343-.937-.69-1.027-.122-.035-.134-.02-.134.12 0 .11.047.2.164.317.203.207.27.469.27 1.063 0 .574-.094.922-.29 1.066-.109.082-.144.149-.144.27 0 .187.067.207.293.09zm2.164-.07c0-.093-.054-.195-.164-.304-.215-.22-.289-.497-.289-1.063 0-.574.074-.852.29-1.055.187-.183.234-.453.073-.453-.132 0-.398.192-.523.383-.18.27-.23.523-.23 1.176 0 .527.015.64.113.851.125.278.215.391.418.52.215.133.312.117.312-.055zm.63.032c.37-.25.5-.614.5-1.399 0-.602-.052-.863-.231-1.125-.114-.172-.387-.383-.5-.383-.117 0-.07.29.082.465.191.223.258.496.258 1.043 0 .547-.067.82-.258 1.043a.487.487 0 0 0-.145.316c0 .184.067.192.293.04zm1.968-.04a.507.507 0 0 0-.145-.316c-.191-.223-.257-.492-.257-1.043 0-.555.07-.844.257-1.035.106-.102.145-.191.145-.309 0-.199-.066-.21-.293-.054-.371.25-.5.609-.5 1.398 0 .785.129 1.148.5 1.398.223.153.293.145.293-.039zm.613.082c.188-.097.328-.265.453-.539.098-.21.11-.32.114-.851 0-.653-.051-.906-.23-1.176-.126-.191-.391-.383-.524-.383-.16 0-.117.27.074.453.215.203.285.48.285 1.055 0 .574-.07.844-.281 1.063-.113.109-.164.21-.164.304 0 .164.07.184.273.074zm2.082-.093a.365.365 0 0 0-.12-.278c-.212-.199-.29-.504-.286-1.093 0-.586.102-.93.305-1.059.07-.047.101-.11.101-.246 0-.203-.039-.219-.234-.113-.184.097-.324.265-.45.539-.097.215-.109.316-.109.902 0 .582.012.688.11.902.129.278.218.391.418.52.207.129.265.113.265-.074zm.676.05c.34-.234.473-.55.512-1.253.039-.746-.157-1.329-.528-1.563-.23-.14-.324-.125-.324.059 0 .105.047.191.164.304.211.203.29.473.29 1.055 0 .574-.079.848-.29 1.063-.113.109-.164.21-.164.304 0 .18.11.188.34.032zm-15.062-1.445V56.48h-.141c-.117 0-.149.024-.2.168-.07.23-.245.36-.53.395-.22.031-.239.043-.239.172 0 .137 0 .137.352.152l.347.016.024 2.117h.387zm4.664 0V56.48h-.13c-.113 0-.148.028-.199.168-.078.223-.25.352-.515.395-.195.031-.211.043-.211.172v.14h.672V59.5h.383zm12.511 0V56.48h-.14c-.121 0-.157.028-.239.215-.105.242-.199.309-.507.356-.204.023-.22.039-.22.164 0 .137 0 .137.352.152l.348.016.023 2.117h.383zm1.817.012l-.012-1.5-.129-.016c-.117-.011-.144.012-.23.203-.082.168-.149.235-.293.297-.106.04-.246.078-.309.078-.102 0-.121.02-.121.145v.144h.672V59.5h.437zm1.793-.012V56.48h-.14c-.118 0-.15.024-.196.168-.07.223-.242.352-.508.395-.195.031-.215.043-.215.172v.14h.672V59.5h.387zm2.008.012l-.012-1.5-.125-.016c-.11-.011-.14.016-.23.203-.079.168-.15.235-.298.297-.097.04-.203.067-.308.078-.102 0-.121.02-.121.145v.144h.676V59.5h.43zm-32.153-3.277c-.18-.192-.265-.532-.265-1.051 0-.52.093-.88.265-1.047a.365.365 0 0 0 .117-.297c0-.16-.007-.176-.101-.152-.211.05-.512.422-.602.726-.113.375-.113 1.16-.004 1.524.09.312.325.62.535.71l.149.063.016-.172c.011-.133-.016-.203-.11-.304zm.711.418c.332-.141.543-.52.613-1.106.118-.918-.207-1.742-.738-1.871-.121-.035-.129-.027-.129.117 0 .113.047.2.188.332.215.211.293.488.293 1.059 0 .574-.078.847-.293 1.058-.137.133-.188.22-.188.328 0 .168.031.176.254.083zm2.297-.09c0-.11-.047-.192-.164-.313-.2-.191-.29-.523-.29-1.066s.09-.867.29-1.067c.117-.113.164-.203.164-.312 0-.18 0-.18-.211-.086-.219.09-.355.242-.508.566-.113.246-.125.317-.125.899 0 .586.012.652.125.902.149.317.29.473.492.563.215.093.227.09.227-.082zm.574.062c.38-.199.578-.699.578-1.441 0-.785-.242-1.328-.668-1.477-.148-.054-.148-.054-.148.114 0 .113.039.203.14.304.192.196.266.485.266 1.059 0 .578-.074.863-.265 1.058-.102.102-.141.192-.141.309 0 .094.012.168.023.168.016 0 .114-.043.215-.094zm2.215-.07c0-.125-.027-.184-.125-.246-.238-.16-.328-.473-.328-1.125 0-.653.09-.961.328-1.121.098-.063.125-.125.125-.25 0-.153-.008-.168-.11-.137-.359.113-.57.36-.683.809-.086.308-.094 1.011-.02 1.347.067.332.286.668.512.785.254.137.301.13.301-.062zm.738-.07c.36-.344.504-1.075.364-1.84-.086-.477-.32-.825-.63-.942-.132-.05-.136-.05-.136.145 0 .133.023.203.074.222.223.086.38.82.309 1.465-.04.364-.18.711-.309.762-.05.02-.07.094-.07.227 0 .191 0 .195.133.14a.996.996 0 0 0 .265-.18zm5.711.082c0-.106-.047-.188-.164-.301-.215-.203-.289-.48-.289-1.082 0-.602.074-.871.29-1.078.155-.153.218-.368.124-.426-.074-.047-.441.172-.547.32-.379.54-.375 1.832.004 2.375.102.145.395.34.524.344.035 0 .058-.063.058-.152zm.696-.024c.066-.039.187-.215.265-.379.254-.515.254-1.484 0-1.976-.144-.285-.547-.598-.644-.5-.078.078-.016.277.132.43.2.195.29.519.293 1.066 0 .539-.09.867-.293 1.066-.148.153-.21.356-.132.438.035.03.215-.035.379-.145zm3.835-.258c-.156-.125-.253-.379-.292-.75-.07-.644.085-1.379.304-1.465.051-.019.078-.09.078-.222 0-.195-.004-.195-.136-.145-.422.16-.688.727-.688 1.48 0 .747.266 1.325.68 1.477.11.047.117.04.129-.125.015-.129-.008-.195-.075-.25zm.72.336c.23-.12.448-.445.519-.789.07-.336.062-1.039-.016-1.347-.12-.45-.328-.696-.691-.805-.094-.035-.106-.02-.106.117 0 .11.043.195.164.309.211.207.29.476.29 1.078 0 .601-.079.875-.29 1.082-.117.113-.164.195-.164.3 0 .18.035.188.293.055zm3.917-.39c-.18-.188-.265-.528-.265-1.047 0-.52.093-.88.261-1.047a.368.368 0 0 0 .121-.297c0-.16-.011-.176-.105-.152-.207.05-.512.422-.602.726-.113.38-.113 1.157 0 1.54.09.312.32.6.536.695.148.066.148.066.164-.11a.36.36 0 0 0-.11-.308zm.88.308c.472-.363.612-1.586.276-2.332-.12-.265-.347-.48-.57-.531-.12-.035-.129-.027-.129.117 0 .113.047.2.184.332.219.211.297.488.297 1.059 0 .574-.078.847-.297 1.058-.137.137-.184.22-.184.336 0 .14.008.149.13.121.073-.023.206-.09.292-.16zm2.124.008c0-.137-.023-.184-.125-.227-.273-.124-.43-.777-.351-1.468.043-.426.175-.719.351-.801.102-.047.125-.094.125-.23 0-.188-.02-.2-.226-.118-.317.117-.547.465-.637.946-.172.937.097 1.804.62 2.015.212.086.243.067.243-.117zm.863-.246c.18-.281.246-.594.243-1.133 0-.476-.082-.844-.243-1.11-.105-.171-.347-.359-.468-.359-.094 0-.07.313.039.414.183.165.265.497.265 1.07 0 .579-.082.907-.265 1.075-.067.059-.098.152-.098.277v.188l.195-.102a.901.901 0 0 0 .332-.32zm1.977.242c0-.125-.031-.203-.117-.265-.203-.165-.293-.493-.293-1.094 0-.598.09-.93.293-1.09.086-.066.117-.14.117-.27 0-.097-.012-.175-.027-.175-.067 0-.391.191-.465.277-.457.516-.442 2.098.027 2.539.106.102.36.254.43.254.02 0 .035-.078.035-.176zm.531.125c.121 0 .434-.367.531-.625.145-.367.157-1.207.032-1.625-.098-.32-.32-.605-.547-.703-.215-.09-.211-.09-.211.11 0 .128.031.203.144.296.196.168.29.512.29 1.063 0 .539-.094.883-.29 1.07-.105.106-.144.188-.144.309 0 .133.016.16.078.14.04-.015.078-.03.117-.035zm4.04-.14c0-.149-.02-.2-.094-.223-.461-.145-.461-2.094 0-2.242.074-.024.093-.07.093-.227 0-.156-.015-.191-.074-.164a.451.451 0 0 1-.121.027c-.082 0-.387.309-.477.485-.254.5-.254 1.5 0 2 .133.261.434.515.637.535.02 0 .035-.086.035-.191zm.581.093c.242-.125.453-.453.528-.82.035-.156.05-.496.039-.797-.02-.457-.043-.559-.164-.8-.145-.286-.387-.505-.559-.505-.14 0-.121.278.027.395.207.16.293.492.293 1.09 0 .601-.086.93-.293 1.094-.082.062-.117.14-.117.265 0 .098.016.18.028.18.015 0 .113-.05.218-.102zm4.184-.093c0-.141-.024-.2-.09-.22-.047-.015-.14-.12-.203-.234-.102-.18-.117-.285-.133-.77-.02-.675.035-.929.262-1.16.125-.124.164-.206.164-.335 0-.133-.016-.164-.078-.14a.435.435 0 0 1-.117.03c-.121 0-.434.368-.536.625-.144.38-.16 1.266-.023 1.657.105.3.324.578.535.672.211.09.219.085.219-.125zm.582.093c.383-.199.57-.668.57-1.437 0-.781-.195-1.258-.593-1.442l-.2-.09-.015.172c-.012.133.011.192.105.27.207.16.297.488.297 1.09 0 .601-.09.93-.293 1.094-.086.062-.117.14-.117.265 0 .098.012.18.027.18.012 0 .11-.05.215-.102zm-38.512-1.472l.012-1.5h-.164c-.145 0-.168.02-.195.14-.043.211-.223.348-.489.387-.222.031-.238.043-.25.191l-.015.16h.68v1.04c0 .57.015 1.054.034 1.074.02.02.11.027.204.02l.171-.016zm9.961 0l.012-1.5h-.16c-.137 0-.164.023-.223.172-.07.207-.234.324-.504.363-.18.023-.2.039-.21.183l-.016.16h.68v1.04c0 .57.015 1.054.034 1.074.016.02.11.027.207.02l.168-.016zm1.742.011v-1.511h-.14c-.117 0-.149.03-.196.175-.07.211-.293.364-.543.364-.171 0-.18.004-.18.168v.172h.677v2.14h.382zm4.852-.011l.012-1.5h-.16c-.141 0-.169.023-.22.172-.077.207-.241.324-.507.363-.184.023-.2.039-.215.183l-.012.16h.676v1.04c0 .57.016 1.054.04 1.074.015.02.109.027.202.02l.168-.016zm4.531.011v-1.511h-.144c-.118 0-.157.03-.207.16-.098.23-.235.328-.497.367-.222.035-.234.043-.25.191l-.011.16h.726v2.141h.383zm10.442 0v-1.511h-.137c-.113 0-.153.035-.223.199-.101.23-.191.285-.5.328-.207.035-.222.047-.222.18v.148l.347.012.348.015v2.137h.387zm4.66-.011l.011-1.5h-.16c-.136 0-.168.023-.222.172-.075.207-.239.324-.504.363-.184.023-.2.039-.211.183l-.016.16h.68v1.04c0 .57.012 1.054.031 1.074.02.02.113.027.203.02l.172-.016zm4.715 0l.011-1.5H51.7c-.144 0-.172.02-.195.14-.047.211-.227.348-.492.387-.219.031-.235.043-.25.191l-.012.16h.676v1.04c0 .57.015 1.054.035 1.074.02.02.113.027.207.02l.168-.016zm-23.758-2.965c0-.125-.024-.188-.067-.188-.097 0-.304-.254-.375-.468-.035-.114-.062-.403-.062-.708 0-.3.027-.59.062-.707.07-.21.278-.46.375-.46.043 0 .067-.067.067-.192v-.191l-.16.047c-.536.152-.782.691-.747 1.62.02.606.125.934.372 1.176.105.102.382.243.523.266.012-.062.016-.129.012-.195zm-17.227 0c0-.102-.05-.196-.16-.313-.207-.203-.273-.468-.273-1.05 0-.575.066-.844.273-1.051.184-.188.227-.457.074-.457-.16 0-.445.242-.566.484-.211.43-.266 1.2-.117 1.758.066.27.304.605.484.695.23.117.285.106.285-.066zm.625.047c.09-.059.195-.141.23-.184.243-.3.364-.96.294-1.598-.07-.605-.325-1.023-.692-1.117-.113-.027-.12-.02-.12.14 0 .13.026.192.097.235.058.028.148.153.207.278.086.195.101.316.101.836 0 .539-.011.636-.109.843-.066.13-.156.254-.207.282-.063.03-.09.101-.09.218 0 .2.05.211.29.067zm3.559-.075c0-.125-.031-.199-.117-.273-.176-.133-.266-.508-.266-1.063 0-.55.09-.925.266-1.062.086-.07.117-.14.117-.273 0-.2-.051-.215-.274-.075-.363.223-.574.86-.527 1.586.04.633.223 1.051.531 1.246.219.133.27.118.27-.086zm.66.082c.367-.226.543-.683.543-1.417 0-.731-.176-1.188-.547-1.415-.23-.144-.32-.128-.32.067 0 .117.031.18.113.222.305.168.46.977.316 1.676-.066.313-.168.496-.316.578-.082.047-.113.102-.113.223 0 .191.09.211.32.066zm3.527-.058c0-.106-.05-.211-.164-.332-.203-.23-.297-.668-.258-1.215.043-.492.106-.703.278-.867.101-.098.144-.184.144-.297 0-.168-.043-.191-.207-.106-.418.215-.61.684-.61 1.454 0 .738.173 1.195.544 1.421.215.133.273.122.273-.058zm.707.012c.692-.504.637-2.43-.082-2.809-.222-.117-.289-.094-.289.09 0 .125.031.187.14.27.196.144.294.495.294 1.078 0 .59-.098.933-.293 1.085-.11.079-.14.145-.14.266 0 .207.105.211.37.02zm3.766-.024c0-.12-.023-.172-.113-.215-.063-.027-.164-.156-.227-.289-.105-.207-.113-.3-.113-.843 0-.543.012-.633.113-.844.063-.13.164-.258.227-.29.09-.038.113-.085.113-.222 0-.16-.004-.164-.152-.133-.211.04-.497.336-.602.61-.125.324-.125 1.449 0 1.757.102.25.23.41.441.543.223.141.313.121.313-.074zm.64.043c.676-.469.672-2.328-.007-2.789-.235-.156-.293-.144-.293.063 0 .132.027.203.117.273.172.133.266.512.266 1.05 0 .567-.067.848-.247 1.044a.437.437 0 0 0-.136.316c0 .2.058.207.3.043zm4.27.05c.172-.093.356-.335.465-.612.062-.16.082-.371.082-.828 0-.66-.059-.895-.285-1.2-.106-.14-.34-.308-.43-.308-.012 0-.023.082-.023.172 0 .12.039.23.117.324.168.195.23.476.23 1.011 0 .536-.062.817-.23 1.02a.467.467 0 0 0-.117.316c0 .204 0 .204.191.106zm3.848-.097c0-.117-.02-.168-.067-.168-.101 0-.308-.273-.363-.48-.203-.735-.035-1.676.324-1.84.082-.035.106-.09.106-.207 0-.133-.016-.156-.114-.156-.152 0-.414.183-.542.383-.18.265-.235.53-.235 1.124 0 .602.055.868.235 1.126.128.203.39.39.542.39.098 0 .114-.023.114-.172zm.52.102c.187-.102.327-.266.452-.543.098-.215.114-.317.114-.903 0-.582-.016-.683-.114-.898-.125-.277-.265-.445-.453-.543-.18-.09-.183-.09-.183.106 0 .12.043.23.12.324.173.207.235.484.235 1.011 0 .528-.062.813-.234 1.02a.49.49 0 0 0-.121.316c0 .2.004.204.183.11zm2.03-.086c0-.106-.05-.211-.16-.332-.207-.23-.3-.668-.257-1.215.039-.492.101-.703.273-.867.105-.098.145-.184.145-.297 0-.168-.04-.191-.208-.106-.414.215-.609.684-.609 1.454 0 .738.172 1.195.543 1.421.215.133.274.122.274-.058zm.708.012c.68-.496.648-2.356-.047-2.782-.235-.148-.325-.132-.325.063 0 .125.04.187.145.27.195.144.29.495.29 1.078 0 .59-.095.933-.29 1.085-.105.079-.145.145-.145.266 0 .207.11.211.372.02zm3.77-.024a.457.457 0 0 0-.142-.316c-.175-.196-.246-.477-.246-1.032 0-.55.07-.835.246-1.03a.44.44 0 0 0 .141-.313c0-.203-.062-.207-.3-.04-.383.258-.59 1.024-.481 1.774.078.578.308.961.637 1.086.128.05.144.04.144-.129zm.62.094c.403-.211.594-.684.59-1.461-.008-.852-.266-1.379-.727-1.473-.14-.027-.148-.02-.148.137 0 .137.023.184.113.223.063.03.168.16.23.289.102.21.114.3.114.843 0 .543-.012.633-.113.844-.063.133-.168.262-.23.29-.087.042-.114.093-.114.214 0 .188.066.207.285.094zm1.973-.094c0-.12-.024-.172-.11-.215-.066-.027-.164-.156-.23-.289-.102-.207-.117-.3-.117-.843 0-.524.02-.641.11-.84.062-.137.155-.254.23-.29.093-.042.117-.09.117-.226 0-.156-.004-.164-.145-.137-.465.094-.722.621-.726 1.473-.004.77.16 1.2.558 1.441.227.141.313.121.313-.074zm.68.016c.48-.344.628-1.66.261-2.383-.113-.23-.398-.488-.539-.488-.125 0-.074.32.078.48.196.207.262.555.235 1.18-.016.406-.04.55-.13.719-.054.113-.136.222-.175.234-.043.02-.07.098-.07.223 0 .175.011.191.11.16.081-.035.155-.074.23-.125zm3.605-.02c0-.117-.02-.168-.07-.168-.098 0-.305-.273-.36-.48-.199-.735-.035-1.676.325-1.84.082-.035.105-.09.105-.227 0-.18 0-.18-.156-.132-.309.09-.559.363-.676.746-.031.11-.055.449-.055.758 0 .601.051.867.227 1.124.133.204.394.391.547.391.097 0 .113-.023.113-.172zm.582.059c.379-.262.504-.613.5-1.45 0-.527-.012-.64-.11-.85-.124-.278-.265-.446-.452-.544-.176-.09-.18-.09-.18.106 0 .12.039.23.117.324.172.207.234.484.234 1.011 0 .528-.062.813-.234 1.02a.467.467 0 0 0-.117.316c0 .207.023.215.242.067zm3.941-.05c0-.126-.023-.169-.14-.22-.094-.039-.18-.144-.254-.293-.098-.203-.11-.3-.11-.84 0-.53.016-.636.106-.828a.884.884 0 0 1 .254-.308c.11-.063.144-.121.144-.23 0-.11-.02-.141-.097-.141-.242 0-.563.285-.692.613-.18.453-.172 1.395.012 1.828.137.309.441.574.668.578.094 0 .11-.023.11-.16zm.614.019c.675-.496.644-2.356-.051-2.782-.211-.132-.227-.125-.227.09 0 .125.032.215.102.274.144.14.234.527.234 1.047 0 .519-.09.91-.234 1.046-.102.09-.145.47-.059.47.086-.04.16-.087.235-.145zm3.765-.024c0-.12-.027-.172-.113-.215-.062-.027-.168-.156-.227-.289-.105-.207-.117-.297-.117-.843 0-.543.012-.633.117-.844.06-.13.165-.258.227-.29.09-.038.113-.085.113-.222 0-.156-.004-.164-.144-.137-.469.094-.727.617-.727 1.48-.004.778.157 1.192.559 1.434.222.141.312.121.312-.074zm.676.016c.48-.344.625-1.66.266-2.38-.117-.233-.403-.491-.547-.491-.11 0-.063.289.082.476.187.242.242.48.242 1.032 0 .558-.055.792-.242 1.035a.578.578 0 0 0-.14.332c0 .136.011.148.109.12a1.19 1.19 0 0 0 .23-.124zm-48.312-1.41v-1.512H7.5c-.121 0-.156.035-.242.21-.106.231-.227.306-.535.36-.168.024-.188.043-.188.168v.14h.672v2.141h.434zm1.632 0v-1.512h-.14c-.113 0-.156.035-.238.21-.11.231-.23.306-.532.36-.175.024-.195.043-.195.168v.14h.676v2.141h.43zm4.235 0v-1.512h-.137c-.125 0-.156.035-.238.215-.11.25-.184.297-.5.347-.215.032-.23.043-.23.172 0 .14 0 .14.35.157l.349.011.011 1.059.016 1.058h.379zm4.187 0v-1.512h-.14c-.114 0-.149.031-.196.172-.07.219-.242.351-.507.394-.196.028-.215.043-.215.172v.14h.675v2.141h.383zm4.418.011l-.015-1.496-.149-.02c-.125-.011-.148.009-.203.16-.078.224-.25.356-.516.4-.195.027-.21.042-.21.171v.14h.671v2.141h.434zm4.414-.011V47.78l-.144-.02c-.13-.011-.156.009-.207.16-.082.224-.254.356-.52.4-.195.027-.21.042-.21.171v.14h.671v2.15l.203-.016.207-.012zm4.344.011l-.016-1.496-.132-.02c-.114-.011-.141.016-.203.157-.09.227-.274.36-.532.402-.195.028-.21.043-.21.172v.14h.671v2.141h.434zm7.027 0l-.02-1.496-.14-.02c-.129-.011-.152.009-.21.16-.079.224-.25.356-.516.4-.192.027-.211.042-.211.171v.14h.672v2.141h.437l-.02-1.496zm6.84-.011v-1.512h-.144c-.121 0-.157.031-.223.195-.086.219-.238.32-.539.371-.184.028-.203.047-.203.172v.14h.68v2.141h.43zm4.43 0v-1.512h-.145c-.125 0-.156.031-.226.195-.086.219-.23.32-.54.371-.179.028-.198.047-.198.172v.14h.675v2.141h.434zm4.512.011l-.016-1.496-.144-.02c-.13-.011-.153.009-.208.16-.078.224-.253.356-.515.4-.195.027-.215.042-.215.171v.14h.676v2.141h.433zM6.387 46.324c0-.129-.04-.207-.164-.336-.227-.226-.282-.476-.262-1.156.016-.484.031-.586.129-.754a.955.955 0 0 1 .207-.258c.117-.086.133-.43.012-.383a.368.368 0 0 1-.118.028c-.117 0-.433.37-.535.625-.144.379-.156 1.265-.023 1.66.105.297.328.578.535.668.21.09.219.086.219-.094zm.781-.066c.047-.04.148-.203.219-.348.125-.262.129-.312.129-.96 0-.634-.008-.696-.125-.954-.121-.27-.344-.484-.559-.55-.098-.032-.11-.02-.11.14 0 .137.032.207.122.277.203.164.289.492.289 1.086 0 .602-.09.93-.29 1.094-.09.07-.12.14-.12.27v.175l.18-.078c.097-.039.218-.11.265-.152zm5.91.183c.082 0 .39-.312.477-.484.187-.379.246-1.059.144-1.574-.105-.5-.355-.832-.707-.938-.097-.03-.11-.02-.11.153 0 .156.024.203.114.246.453.21.441 2.082-.016 2.23-.074.02-.097.07-.097.227 0 .16.015.191.078.168a.368.368 0 0 1 .117-.028zm2.067-.129c0-.132-.032-.199-.145-.292-.219-.192-.305-.551-.277-1.211.02-.582.082-.77.3-.946.094-.07.122-.136.122-.277 0-.145-.012-.172-.079-.148a.395.395 0 0 1-.117.027c-.117 0-.433.37-.531.625-.156.398-.156 1.324-.004 1.719.11.285.274.476.516.601.203.106.215.098.215-.097zm.8-.074c.387-.367.492-1.601.192-2.258-.114-.253-.336-.468-.547-.535-.098-.03-.11-.02-.11.14 0 .142.032.208.125.282.215.172.278.395.282 1.04.004.648-.078.964-.29 1.136-.085.07-.117.14-.117.27v.175l.18-.078c.102-.039.23-.12.285-.172zm3.867.063c0-.13-.027-.2-.101-.242-.172-.11-.297-.48-.32-.961-.032-.606.047-.973.257-1.188.125-.12.165-.207.165-.332 0-.148-.008-.164-.11-.133-.512.157-.82.961-.703 1.864.07.586.246.914.594 1.097.207.11.218.102.218-.105zm.543.117c.415-.172.633-.68.633-1.469 0-.781-.218-1.293-.633-1.469-.207-.09-.207-.09-.207.11 0 .137.036.203.145.297.195.168.289.511.289 1.062 0 .555-.094.903-.289 1.07-.11.094-.145.16-.145.294 0 .199 0 .195.207.105zm4.172-.082c0-.117-.043-.2-.164-.309-.21-.203-.289-.472-.289-1.078 0-.594.078-.87.29-1.078.116-.11.163-.2.163-.305 0-.18-.035-.183-.289-.05-.379.191-.578.687-.578 1.441 0 .75.203 1.23.59 1.426.266.133.277.133.277-.047zm.743-.082c.304-.297.445-.824.398-1.531-.04-.586-.223-.996-.531-1.184a1.17 1.17 0 0 0-.242-.121c-.016 0-.032.074-.032.172 0 .129.04.21.14.316.177.18.27.532.267 1.043 0 .524-.09.875-.266 1.047-.102.102-.14.188-.14.313 0 .171.003.175.132.129.102-.051.192-.11.274-.184zm1.57.043c0-.082-.055-.18-.149-.274-.195-.191-.285-.527-.285-1.074 0-.539.086-.86.29-1.07.113-.117.148-.195.136-.3-.02-.173-.137-.165-.379.026-.36.29-.535.98-.441 1.708.082.593.258.914.605 1.093.168.09.223.067.223-.11zm.715-.004c.562-.441.64-1.941.14-2.55-.156-.192-.441-.356-.523-.302-.11.07-.043.293.121.426.219.18.316.504.316 1.082 0 .586-.097.91-.316 1.086-.156.13-.223.332-.133.422.05.05.215-.016.395-.164zm1.64.027c0-.125-.027-.191-.101-.234-.254-.156-.399-.816-.328-1.484.043-.41.148-.657.312-.766.09-.059.117-.121.117-.25 0-.2-.004-.2-.261-.07-.47.23-.707 1.058-.559 1.922.086.511.313.867.629.996.183.07.191.066.191-.114zm.754-.035c.242-.203.399-.722.399-1.316 0-.543-.063-.852-.239-1.13-.117-.187-.425-.421-.55-.421-.016 0-.028.074-.028.176 0 .129.032.199.117.27.204.156.293.491.293 1.062-.003.605-.078.898-.27 1.074-.105.102-.14.18-.14.313v.175l.176-.074c.102-.043.203-.102.242-.129zm1.442-.238c-.203-.168-.293-.492-.293-1.098 0-.594.09-.922.293-1.086.082-.07.117-.14.117-.277 0-.16-.012-.172-.11-.14-.21.066-.418.269-.55.538-.11.23-.133.356-.153.793-.035.883.157 1.418.582 1.614l.203.093.02-.175c.008-.133-.012-.188-.11-.262zm.644.394c.086 0 .395-.312.48-.492.133-.265.208-.789.176-1.219-.046-.64-.242-1.046-.59-1.214-.253-.13-.257-.13-.257.07 0 .121.027.191.113.246.219.145.32.484.324 1.105 0 .594-.066.84-.273 1.051-.125.13-.164.207-.164.34 0 .137.015.164.074.14a.425.425 0 0 1 .117-.027zm4.188-.14c0-.149-.024-.2-.114-.239-.32-.148-.46-1.152-.261-1.84.047-.128.12-.25.215-.35.113-.11.16-.204.16-.306 0-.183-.055-.187-.32-.027-.16.098-.243.195-.368.45-.156.32-.16.343-.156.96 0 .586.008.66.125.906.148.313.289.473.492.567.219.09.227.086.227-.121zm.793-.094c.222-.23.316-.535.347-1.11.04-.808-.16-1.37-.562-1.581a1.38 1.38 0 0 0-.219-.098c-.012 0-.023.074-.023.164 0 .121.039.207.14.309.192.195.266.488.266 1.058 0 .582-.078.875-.266 1.051-.105.102-.14.18-.14.309 0 .171 0 .171.148.125.117-.059.219-.133.309-.227zm1.402-.16c-.207-.168-.297-.492-.297-1.098 0-.594.09-.922.293-1.086.082-.07.117-.14.117-.277 0-.16-.008-.172-.11-.14-.21.066-.433.28-.558.55-.105.23-.125.356-.144.84-.028.871.14 1.32.57 1.543l.215.11.02-.176c.011-.137-.012-.192-.106-.266zm.645.394c.023 0 .132-.082.238-.175.3-.282.402-.606.402-1.317 0-.703-.101-1.035-.402-1.308-.106-.098-.215-.176-.239-.176a.451.451 0 0 1-.12-.028c-.118-.046-.102.297.015.383.086.07.152.16.207.258.094.168.113.27.129.754.023.68-.04.93-.262 1.156-.125.13-.164.207-.164.34 0 .137.016.164.074.14a.451.451 0 0 1 .121-.027zm1.828-.132c0-.13-.036-.196-.125-.27-.246-.2-.286-.344-.286-1.09 0-.629.008-.691.114-.87a.942.942 0 0 1 .203-.259c.121-.086.133-.43.016-.383a.42.42 0 0 1-.122.028c-.117 0-.43.37-.53.625-.145.379-.157 1.265-.024 1.66.105.297.324.578.531.668.21.094.223.086.223-.11zm.777-.051c.168-.156.332-.582.367-.95.09-.984-.18-1.706-.7-1.863-.1-.03-.108-.02-.108.14 0 .138.027.208.117.278.203.164.289.492.289 1.086 0 .602-.086.93-.29 1.094-.085.07-.116.14-.116.27v.175l.175-.078c.102-.039.22-.11.27-.152zm3.887.043c0-.125-.028-.2-.094-.239-.191-.12-.305-.445-.328-.94-.028-.63.047-.997.262-1.212.12-.12.164-.207.164-.332 0-.148-.016-.164-.11-.133-.515.157-.832.985-.715 1.864.086.597.258.914.606 1.097.2.11.215.102.215-.105zm.843-.121c.235-.278.332-.633.332-1.23 0-.782-.214-1.294-.632-1.47-.207-.085-.203-.09-.203.098 0 .113.039.2.144.3.195.192.285.532.285 1.071 0 .555-.094.903-.285 1.07-.137.114-.203.348-.117.434.058.059.32-.086.476-.273zm3.692-.168c-.211-.2-.274-.45-.274-1.063 0-.594.082-.922.293-1.086.082-.07.114-.14.114-.273 0-.098-.012-.172-.028-.172-.125 0-.433.234-.547.422-.175.277-.242.586-.242 1.129 0 .75.211 1.25.59 1.422l.203.093.016-.172c.008-.136-.016-.195-.125-.3zm.664.43c.082 0 .39-.313.476-.485.188-.379.247-1.059.145-1.574-.105-.5-.352-.832-.707-.938-.098-.03-.105-.015-.105.137 0 .133.027.191.113.25.164.113.27.36.312.766.075.68-.07 1.332-.328 1.488-.129.078-.152.43-.023.383a.395.395 0 0 1 .117-.028zm4-.442c-.184-.184-.266-.531-.266-1.078.004-.516.086-.836.266-1.02a.397.397 0 0 0 .137-.312c0-.098-.016-.172-.032-.172-.02 0-.125.055-.238.121-.309.188-.5.598-.535 1.184-.055.875.2 1.535.66 1.707.113.043.121.035.133-.121.012-.13-.016-.192-.125-.309zm.844.336c.32-.195.496-.695.496-1.39 0-.739-.203-1.239-.582-1.43-.246-.133-.285-.125-.285.05 0 .106.046.196.168.305.21.207.285.484.285 1.078 0 .606-.07.875-.285 1.078-.125.114-.168.192-.168.309 0 .14.007.152.109.125.062-.016.176-.078.262-.125zM4.934 44.914l.015-1.496h-.156c-.14 0-.168.023-.242.2-.086.21-.301.335-.563.335-.136 0-.148.012-.148.168v.172h.672v1.039c0 .574.015 1.055.035 1.074.02.024.113.032.203.024l.176-.016.011-1.5zm4.183 0l.012-1.496h-.156c-.137 0-.168.023-.22.172-.073.21-.304.363-.546.363-.176 0-.184.008-.184.168v.172H8.7v1.039c0 .574.016 1.055.035 1.074.02.024.11.032.204.024l.171-.016.012-1.5zm1.844.012v-1.508h-.14c-.11 0-.153.031-.223.2-.102.226-.188.284-.496.331-.211.028-.227.04-.227.172v.149l.348.015.351.012v2.144h.387zm1.586 1.36c0-.102-.043-.192-.14-.286-.192-.176-.262-.469-.262-1.05 0-.571.07-.864.261-1.06.102-.1.14-.187.14-.308 0-.09-.01-.164-.023-.164-.128 0-.437.234-.55.422-.196.305-.258.668-.235 1.293.02.46.04.554.164.804.145.286.387.504.559.504.066 0 .086-.039.086-.156zm5.437-1.36v-1.508h-.144c-.117 0-.156.031-.207.156-.098.23-.235.332-.496.371-.223.032-.235.043-.235.176v.149l.348.015.352.012v2.144h.382zm4.668 0v-1.508h-.136c-.114 0-.149.031-.22.2-.097.218-.292.335-.558.335-.133 0-.144.012-.144.168v.172h.676v1.039c0 .574.015 1.055.03 1.074.016.02.102.032.192.032h.16zm11.73-.012l.013-1.496h-.157c-.14 0-.168.023-.238.2-.09.21-.297.335-.566.335-.137 0-.149.012-.149.168v.172h.672v1.039c0 .574.016 1.055.04 1.074.019.024.108.032.202.024l.172-.016zm9.348.012v-1.508h-.144c-.117 0-.156.031-.211.156-.098.23-.234.332-.496.371-.219.032-.234.043-.234.176v.149l.347.015.348.012v2.144h.39zm4.665 0v-1.508h-.133c-.114 0-.153.031-.227.2-.09.218-.285.335-.55.335-.137 0-.15.012-.15.168v.172h.673v1.039c0 .574.015 1.055.035 1.074.02.02.102.032.191.032h.164v-1.512zm4.707-.012l.011-1.496h-.156c-.14 0-.168.023-.242.2-.086.21-.297.335-.563.335-.136 0-.148.012-.148.168v.172h.672v1.039c0 .574.015 1.055.035 1.074.02.024.113.032.207.024l.172-.016zm4.668 0l.011-1.496h-.168c-.14 0-.168.02-.168.098 0 .05-.062.16-.136.242-.102.117-.188.156-.375.187-.227.032-.239.04-.254.192l-.012.156h.676v1.039c0 .574.015 1.055.035 1.074.02.024.113.032.207.024l.172-.016zM5.664 41.945c0-.129-.035-.183-.156-.258-.227-.144-.328-.468-.332-1.07 0-.637.066-.883.304-1.11.211-.206.262-.429.09-.429-.261 0-.554.285-.707.688-.113.304-.113 1.347 0 1.648.114.29.282.508.473.602.254.129.328.109.328-.07zm.586.043c.355-.242.523-.683.523-1.39 0-.621-.097-.977-.355-1.25-.11-.121-.25-.23-.305-.246-.101-.028-.11-.016-.11.156 0 .133.036.219.122.3.168.165.238.45.238 1.008.004.555-.078.895-.246 1.051a.38.38 0 0 0-.113.297c0 .215.027.223.246.074zm1.871-.035c0-.105-.043-.195-.14-.285-.22-.211-.31-.598-.286-1.223.024-.55.133-.867.328-.976.07-.04.098-.102.098-.219 0-.21-.094-.223-.344-.05-.343.234-.562.933-.496 1.6.055.634.23 1.013.551 1.2.234.137.29.125.29-.047zm.625.043c.309-.191.457-.488.531-1.059.102-.73-.105-1.484-.476-1.738-.242-.168-.344-.156-.344.031 0 .102.043.192.14.282.188.18.294.562.294 1.078 0 .515-.106.894-.293 1.078-.098.09-.141.18-.141.285 0 .176.063.184.29.043zm4.043-.047c0-.101-.05-.207-.16-.336-.129-.136-.176-.254-.227-.511-.12-.657.032-1.493.293-1.633.067-.04.094-.106.094-.227 0-.164-.008-.172-.129-.14-.45.113-.687.632-.687 1.492 0 .73.175 1.183.543 1.414.21.129.273.117.273-.059zm.734 0c.504-.367.625-1.844.204-2.488-.13-.2-.38-.383-.516-.383-.149 0-.11.281.059.422.195.168.289.512.289 1.074 0 .594-.07.864-.274 1.07-.113.114-.16.208-.16.317 0 .14.012.148.129.117.094-.027.184-.074.27-.129zm1.622-.02c0-.117-.028-.179-.094-.218-.207-.113-.309-.426-.328-1.004-.024-.672.062-1.031.28-1.2.11-.081.145-.144.145-.265 0-.199-.105-.215-.343-.05-.715.484-.68 2.43.05 2.82.243.125.29.113.29-.082zm.57.102c.332-.172.512-.511.578-1.078.098-.766-.098-1.5-.465-1.754-.25-.172-.344-.16-.344.051 0 .121.024.18.102.223.05.027.148.152.203.277.086.195.102.324.102.816 0 .66-.055.88-.266 1.086-.102.094-.14.176-.14.293 0 .172.035.188.23.086zm1.742-.082a.514.514 0 0 0-.14-.316c-.196-.227-.266-.496-.27-1.067 0-.546.086-.855.289-1.05.125-.118.172-.438.066-.438-.195 0-.476.27-.632.61-.09.214-.106.324-.106.851 0 .836.121 1.191.5 1.45.223.152.293.144.293-.04zm.676.04c.379-.259.5-.614.5-1.45 0-.527-.016-.64-.11-.855-.128-.297-.296-.473-.55-.579l-.18-.074v.164c0 .125.039.207.164.332.211.215.29.493.29 1.063 0 .574-.079.851-.29 1.058-.117.11-.164.2-.164.305 0 .184.11.2.34.035zm1.726-.051c0-.126-.027-.176-.12-.227-.063-.035-.165-.164-.227-.285-.094-.2-.11-.301-.11-.836 0-.528.016-.645.11-.844.058-.133.156-.25.226-.285.098-.047.121-.09.121-.219 0-.137-.015-.164-.109-.164-.188 0-.445.223-.582.5-.305.637-.238 1.817.133 2.223.133.156.37.3.476.3.063 0 .082-.038.082-.163zm.684.011c.191-.136.379-.566.437-.992.102-.734-.109-1.508-.488-1.766-.23-.156-.293-.144-.293.063 0 .129.028.203.117.27.196.156.282.546.258 1.183-.012.441-.039.578-.125.75-.062.117-.14.223-.18.238-.046.016-.07.094-.07.22 0 .179.008.19.11.16.054-.02.164-.079.234-.126zm1.629-.011c0-.122-.035-.184-.145-.266-.195-.145-.289-.496-.289-1.078 0-.582.094-.922.29-1.094.16-.137.206-.422.066-.422-.13 0-.348.14-.473.309-.473.625-.379 2.18.152 2.558.286.2.399.2.399-.008zm.61.07c.37-.23.542-.684.542-1.418 0-.774-.226-1.317-.613-1.469-.18-.066-.203-.05-.203.129 0 .113.027.18.094.219.261.14.414.976.293 1.633-.051.257-.098.375-.227.511-.11.13-.16.23-.16.336 0 .176.058.188.273.059zm4.007-.078a.368.368 0 0 0-.113-.282c-.2-.199-.285-.605-.258-1.203.02-.53.137-.894.305-.96.09-.032.097-.407.007-.407-.144 0-.421.254-.535.5-.312.649-.25 1.774.121 2.234.07.086.38.29.438.29.02 0 .035-.079.035-.172zm.672.07c.32-.184.5-.563.555-1.2.082-.847-.23-1.573-.743-1.722-.144-.039-.144-.039-.144.14 0 .153.023.196.117.243.067.027.164.144.227.262.097.187.113.277.113.84 0 .554-.016.667-.106.87-.066.133-.156.25-.23.286-.094.043-.121.09-.121.215 0 .199.074.21.332.066zm1.738-.063c0-.12-.035-.183-.144-.265-.203-.152-.301-.504-.301-1.074 0-.59.066-.86.281-1.07.176-.18.227-.45.086-.45-.234 0-.531.3-.68.688-.113.304-.113 1.347 0 1.648.114.29.282.508.477.602.234.117.281.105.281-.078zm.563.094c.379-.199.55-.593.578-1.32.031-.813-.137-1.293-.535-1.54-.215-.128-.27-.116-.27.067 0 .114.04.196.137.29.187.179.273.507.273 1.09 0 .538-.09.85-.293 1.046a.347.347 0 0 0-.117.273c0 .18.035.196.227.094zm1.793-.074c0-.105-.047-.191-.168-.305-.125-.117-.184-.238-.242-.453-.176-.691-.004-1.656.316-1.754.07-.027.094-.074.094-.203 0-.172-.004-.176-.157-.144-.101.015-.23.105-.351.246-.258.277-.36.633-.36 1.254 0 .707.165 1.148.528 1.39.23.157.34.149.34-.031zm.703-.031c.308-.235.484-.832.433-1.528-.039-.64-.234-1.078-.558-1.246-.203-.101-.242-.09-.242.082 0 .094.047.203.144.317.184.215.246.46.25 1.015 0 .551-.101.95-.273 1.09-.09.067-.121.14-.121.27 0 .168.011.18.109.148.059-.015.176-.086.258-.148zm3.918.008c0-.121-.043-.211-.14-.313-.192-.184-.263-.473-.263-1.031 0-.55.063-.82.262-1.04.149-.179.195-.472.074-.472-.109 0-.382.211-.5.387-.156.234-.207.453-.242.98-.039.742.156 1.328.531 1.559.223.137.278.121.278-.07zm.676.054c.378-.258.5-.613.5-1.449 0-.527-.016-.64-.114-.852-.16-.359-.43-.609-.652-.609-.148 0-.09.285.09.438.215.199.293.492.289 1.12-.004.583-.106.907-.332 1.051-.09.063-.121.126-.121.247 0 .203.097.222.34.054zm4.039-.035c0-.101-.051-.195-.16-.312-.208-.203-.274-.473-.274-1.067 0-.57.094-.918.29-1.066.105-.082.144-.145.144-.266 0-.183-.07-.203-.29-.09-.757.399-.757 2.453 0 2.86.231.125.29.113.29-.059zm.609.055c.355-.223.547-.707.55-1.387 0-.531-.073-.902-.241-1.152-.145-.219-.364-.39-.5-.39-.125 0-.114.32.015.394.059.027.149.152.207.277.086.195.102.32.102.816 0 .66-.051.868-.262 1.075-.105.101-.144.183-.144.297 0 .187.054.203.273.07zm4.059-.063c0-.117-.043-.199-.141-.293-.219-.207-.27-.425-.27-1.086 0-.492.016-.62.106-.816.055-.121.148-.25.203-.277.07-.043.102-.102.102-.223 0-.21-.094-.223-.348-.05-.363.253-.566.991-.477 1.734.075.586.22.863.559 1.074.207.129.266.117.266-.063zm.726.008c.477-.348.617-1.707.246-2.402-.136-.254-.39-.473-.55-.473-.157 0-.11.274.078.461.218.227.289.547.257 1.203-.023.543-.132.863-.328.969-.066.039-.093.102-.093.223 0 .168.007.175.128.144.09-.027.18-.07.262-.125zm4.035.012c0-.098-.043-.172-.148-.25-.309-.23-.453-.914-.336-1.59.066-.39.156-.563.348-.676.097-.062.136-.12.136-.219 0-.18-.027-.195-.222-.136-.258.078-.524.414-.621.789-.168.633-.043 1.601.253 1.941.125.145.36.278.48.278.087 0 .11-.028.11-.137zm.727-.11c.266-.273.355-.59.355-1.265 0-.621-.086-.965-.297-1.223-.12-.144-.343-.289-.445-.289-.11 0-.05.305.094.465.187.223.25.488.25 1.055 0 .539-.09.89-.274 1.066-.109.106-.16.328-.093.398.054.06.238-.035.41-.207zm3.844.079c0-.121-.04-.211-.141-.313-.188-.184-.258-.473-.258-1.031 0-.555.067-.82.254-1.04.145-.167.207-.472.094-.472-.102 0-.324.145-.445.29-.22.265-.297.6-.293 1.25.007.773.152 1.163.523 1.39.21.133.266.117.266-.074zm.613.097c.191-.101.328-.261.457-.539.098-.219.11-.32.11-.902 0-.582-.012-.688-.11-.903-.129-.277-.266-.44-.453-.539-.211-.113-.281-.09-.281.094 0 .121.03.176.12.227.243.129.391.71.344 1.32-.03.45-.132.738-.324.895-.097.082-.14.164-.14.27 0 .167.074.187.28.077zm4.101-.101c0-.117-.027-.18-.093-.22-.203-.112-.309-.425-.328-1.003-.024-.672.058-1.031.28-1.2.106-.081.141-.144.141-.265 0-.199-.101-.215-.34-.05-.706.48-.667 2.464.063 2.824.234.12.277.105.277-.086zm.57.101c.337-.176.52-.52.583-1.082.086-.781-.106-1.5-.469-1.75-.254-.172-.344-.16-.344.051 0 .121.028.18.098.223.059.027.148.152.207.277.086.195.102.324.102.816 0 .66-.055.88-.266 1.086-.102.094-.14.176-.14.293 0 .172.038.188.23.086zM3.935 40.54v-1.508h-.141c-.113 0-.148.028-.191.168-.075.219-.239.352-.508.39-.2.028-.219.04-.219.177v.14h.676v2.149h.383zm7.027 0v-1.508h-.14c-.122 0-.153.028-.196.168-.074.227-.246.352-.531.39-.227.032-.242.044-.242.177v.14h.726v2.149h.383zm14.05 0v-1.508h-.14c-.121 0-.156.035-.25.23-.11.223-.129.235-.418.305-.277.067-.3.086-.3.207v.133h.726v2.149h.383zm9.372.012l-.012-1.496-.148-.012c-.13-.016-.153.004-.207.152-.078.227-.246.356-.516.395-.2.027-.215.039-.215.176v.14h.672v2.149h.438zm4.68-.012v-1.508h-.141c-.121 0-.156.035-.242.211-.11.227-.227.301-.535.356-.172.027-.192.043-.192.172v.136h.672v1.04c0 .57.016 1.054.031 1.074a.556.556 0 0 0 .219.035h.188zm4.667 0v-1.508h-.14c-.113 0-.153.035-.223.2-.11.242-.219.32-.52.363-.21.027-.226.039-.226.176v.136h.723v2.149h.386zm4.665 0v-1.508h-.137c-.121 0-.153.028-.196.168-.074.219-.238.352-.511.39-.196.028-.215.04-.215.177v.14h.672v2.149h.39v-1.516zm4.714 0v-1.508h-.164c-.14 0-.164.02-.191.145-.047.199-.266.375-.531.414-.203.027-.22.039-.22.176v.14h.673v2.149h.433zm4.672 0v-1.508h-.148c-.125 0-.156.028-.223.196-.086.222-.234.316-.539.367-.18.031-.2.047-.2.176v.136h.673v1.04c0 .57.015 1.054.031 1.074a.54.54 0 0 0 .219.035h.187zM1.973 37.281c-.192-.195-.274-.523-.27-1.078 0-.558.074-.848.266-1.035a.405.405 0 0 0 .136-.313c0-.085-.011-.164-.027-.164-.012 0-.11.043-.215.102-.402.207-.601.766-.566 1.582.035.695.25 1.145.64 1.32.141.059.145.059.16-.105.008-.137-.015-.2-.124-.309zm.738.38c.383-.184.598-.704.598-1.43 0-.833-.278-1.399-.739-1.516-.117-.031-.125-.02-.125.12 0 .114.043.2.164.313.207.2.286.477.29 1.055.003.574-.083.887-.294 1.094-.117.113-.16.203-.16.312 0 .184.004.184.266.055zm4.434-.052c.351-.214.515-.738.488-1.527-.02-.473-.04-.582-.156-.824-.141-.285-.348-.485-.57-.543-.13-.031-.134-.024-.134.137 0 .132.032.191.125.253.278.188.426.915.313 1.56-.066.405-.164.597-.32.667-.098.047-.118.09-.118.25 0 .172.008.184.11.152.058-.015.176-.074.262-.125zm5.69-.039c0-.093-.038-.164-.124-.222-.238-.157-.328-.465-.332-1.118 0-.5.016-.62.105-.812a.859.859 0 0 1 .227-.313c.094-.062.125-.12.125-.253 0-.16-.008-.168-.133-.141-.476.117-.73.648-.73 1.52 0 .777.195 1.257.586 1.433.234.106.277.094.277-.094zm2.95.063c.317-.16.52-.696.524-1.383.007-.852-.266-1.422-.739-1.54-.125-.026-.136-.019-.136.122 0 .117.046.203.187.336.234.23.316.57.285 1.215-.027.5-.168.879-.367.965-.082.039-.101.086-.101.238 0 .168.007.18.101.148.066-.015.172-.066.246-.101zm3.918-.313c-.18-.14-.285-.457-.312-.945-.032-.605.047-.973.261-1.184.121-.129.164-.207.164-.34 0-.148-.011-.163-.109-.132-.465.136-.727.68-.727 1.511 0 .75.2 1.22.594 1.422l.215.114.016-.172c.011-.14-.008-.196-.102-.274zm.965.114c.23-.258.32-.618.32-1.23 0-.759-.199-1.227-.601-1.438-.203-.106-.235-.09-.235.117 0 .144.02.203.086.222.047.016.137.118.203.23.094.177.118.294.133.747.028.664-.058 1.02-.281 1.211-.11.094-.14.16-.14.297v.172l.179-.07c.098-.044.25-.157.336-.258zm3.86.175c0-.109-.044-.199-.165-.316-.218-.215-.285-.469-.285-1.063 0-.601.074-.878.29-1.085.116-.114.16-.196.16-.31 0-.144-.008-.151-.13-.12-.472.117-.734.66-.738 1.515 0 .743.207 1.239.598 1.43.258.133.27.133.27-.05zm.742-.082c.308-.297.445-.824.398-1.535-.035-.574-.234-1.012-.535-1.187a1.28 1.28 0 0 0-.235-.11c-.015 0-.035.082-.035.18 0 .125.032.203.094.238.43.278.414 1.973-.023 2.223-.043.027-.07.117-.07.234 0 .188.003.188.136.14a1.03 1.03 0 0 0 .27-.183zm1.41-.257c-.2-.2-.274-.5-.274-1.086 0-.508.102-.86.29-1.024.113-.09.144-.16.144-.293 0-.199.004-.195-.211-.11-.473.2-.73.981-.61 1.848.051.387.208.774.372.922.047.047.164.118.257.16l.168.067.012-.156c.016-.13-.015-.196-.148-.328zm1.004.175c.23-.254.328-.64.328-1.215 0-.792-.215-1.3-.63-1.472-.206-.086-.206-.086-.206.094 0 .12.039.203.144.304.196.192.29.528.29 1.07 0 .555-.098.899-.29 1.067-.113.094-.144.16-.144.297v.172l.18-.07c.101-.044.25-.153.328-.247zm1.328-.199c-.192-.215-.258-.469-.258-.992-.008-.535.078-.887.258-1.078.093-.106.14-.203.14-.32 0-.086-.02-.165-.035-.165-.02 0-.12.051-.23.121-.45.266-.66 1.094-.504 1.954.086.468.324.828.62.941.114.04.122.031.134-.121.015-.133-.016-.207-.125-.34zm.843.363c.348-.214.516-.738.489-1.527-.02-.473-.04-.582-.157-.824-.14-.285-.347-.485-.566-.543-.129-.031-.137-.024-.137.137 0 .132.032.191.13.253.273.188.417.915.312 1.56-.074.405-.168.597-.324.667-.094.047-.118.09-.118.25 0 .172.012.184.11.152a1.29 1.29 0 0 0 .261-.125zm1.52-.324c-.215-.195-.277-.445-.277-1.055 0-.601.09-.93.293-1.093.082-.067.117-.14.117-.27 0-.164-.008-.18-.11-.148-.214.066-.433.285-.558.55-.102.231-.125.364-.145.794-.03.882.149 1.378.575 1.593l.21.106.02-.168c.012-.145-.012-.203-.125-.309zm.664.43c.023 0 .129-.078.238-.176.633-.578.555-2.324-.12-2.727-.262-.156-.313-.148-.313.032 0 .11.043.199.16.312.203.203.277.48.277 1.078 0 .575-.066.82-.273 1.032-.125.125-.164.207-.164.336 0 .136.015.164.074.14a.487.487 0 0 1 .121-.027zm4.738-.05c.383-.188.598-.708.598-1.435 0-.847-.29-1.421-.766-1.52-.14-.026-.148-.023-.148.134 0 .133.031.183.14.246.192.113.29.316.356.77.098.687-.07 1.363-.375 1.507-.086.04-.121.09-.121.192 0 .234.039.246.316.101zm1.645-.345c-.41-.324-.434-1.785-.031-2.152.105-.098.14-.176.14-.305 0-.16-.008-.175-.105-.148-.465.137-.715.668-.715 1.515 0 .778.203 1.258.594 1.434l.203.094.015-.168c.012-.137-.011-.195-.101-.27zm.871.215c.297-.254.406-.59.414-1.281.004-.645-.078-.969-.324-1.25-.14-.168-.36-.313-.465-.313-.027 0-.05.079-.05.172 0 .121.03.184.097.23.215.13.305.415.324.993.027.664-.055 1.02-.277 1.207-.11.094-.14.164-.14.293 0 .148.007.16.116.14.063-.011.203-.097.305-.19zm2.234.098c.328-.164.52-.696.52-1.403 0-.863-.266-1.402-.738-1.52-.121-.026-.13-.019-.13.13 0 .117.04.195.169.308.23.207.332.622.3 1.227-.027.5-.144.844-.347.973-.09.066-.121.129-.121.254 0 .152.008.164.105.132.063-.015.168-.066.242-.101zm4.68-.012c.48-.277.688-1.324.43-2.187-.078-.278-.293-.559-.508-.668-.219-.121-.285-.094-.285.101 0 .133.027.18.12.223.22.101.333.437.352 1.023.028.664-.062 1-.304 1.196-.13.109-.168.175-.168.3 0 .145.011.157.11.125a1.23 1.23 0 0 0 .253-.113zm3.883-.336c-.2-.191-.274-.48-.274-1.082 0-.574.086-.906.293-1.066.082-.067.114-.14.114-.27 0-.164-.008-.18-.106-.148-.21.066-.418.27-.55.539-.11.242-.137.351-.153.82-.031.852.156 1.367.578 1.578l.207.106.016-.168c.012-.145-.012-.203-.125-.309zm.918.242c.469-.449.566-1.652.187-2.363-.117-.223-.425-.473-.578-.473-.125 0-.054.297.106.461.203.203.28.512.277 1.094 0 .543-.066.793-.273 1.027-.149.168-.215.375-.137.454.047.05.277-.059.418-.2zm4.488.137c.395-.191.598-.687.598-1.434 0-.855-.266-1.398-.739-1.515-.117-.031-.128-.024-.128.137 0 .132.035.191.125.253.476.317.449 2.09-.032 2.243-.07.027-.093.074-.093.226 0 .106.02.188.035.188.02 0 .12-.043.234-.098zm4.762-.043c.328-.191.512-.687.515-1.387.004-.851-.27-1.402-.746-1.52-.125-.03-.132-.023-.132.134 0 .132.035.191.148.277.246.188.305.39.309 1.078 0 .524-.016.645-.102.836a.823.823 0 0 1-.23.309c-.09.066-.125.129-.125.254 0 .152.007.164.109.132a1.66 1.66 0 0 0 .254-.113zm-53.82-.074c0-.094-.032-.184-.067-.211-.434-.246-.45-1.95-.02-2.219.055-.039.087-.117.087-.238 0-.102-.016-.188-.032-.188-.02 0-.129.055-.242.125-.309.184-.496.598-.531 1.18-.047.742.101 1.262.441 1.563.235.21.364.207.364-.012zm7.12-.008c.297-.273.399-.605.403-1.285 0-.617-.047-.848-.238-1.156-.137-.207-.461-.434-.551-.383-.086.058-.055.312.055.379.214.133.304.414.324 1.015.02.668-.031.907-.258 1.164-.348.383-.121.618.266.266zm1.544.012a.362.362 0 0 0-.125-.274c-.196-.191-.278-.57-.254-1.199.015-.453.035-.57.129-.734.058-.102.14-.207.18-.227.066-.035.1-.426.038-.426-.066 0-.25.121-.394.258-.207.2-.34.582-.375 1.074-.055.73.16 1.372.523 1.594.215.137.278.121.278-.066zm21.074.011c0-.097-.047-.19-.137-.285-.195-.195-.273-.523-.27-1.074.004-.555.07-.82.266-1.043.125-.152.184-.36.106-.433-.016-.016-.11.011-.215.066-.399.207-.598.773-.559 1.582.031.586.149.914.426 1.168.242.219.383.227.383.02zm4.664-.011a.358.358 0 0 0-.121-.274c-.196-.191-.274-.566-.254-1.191.015-.434.039-.578.125-.742.055-.11.137-.215.176-.23.05-.02.074-.094.074-.223 0-.11-.012-.2-.028-.2-.078 0-.312.168-.44.313-.24.277-.325.605-.321 1.25.004.695.113 1.023.418 1.289.258.223.37.227.37.008zm4.668-.004c0-.09-.031-.188-.074-.227-.176-.148-.278-.449-.297-.922-.032-.59.043-.976.23-1.191.09-.09.14-.21.14-.336 0-.172-.003-.172-.144-.125-.172.063-.402.324-.508.57-.3.727-.105 1.977.36 2.29.23.152.293.14.293-.06zm9.383-.004c0-.113-.028-.18-.075-.203-.12-.047-.257-.375-.308-.746-.086-.598.039-1.278.27-1.457.081-.067.113-.14.113-.266 0-.098-.016-.18-.04-.18-.019 0-.136.067-.253.141-.305.195-.473.582-.512 1.176-.043.73.105 1.25.441 1.55.243.212.364.208.364-.015zm4.668.008a.349.349 0 0 0-.125-.274c-.192-.187-.27-.562-.254-1.191.015-.461.035-.57.133-.738a.854.854 0 0 1 .18-.23c.062-.036.097-.427.038-.427-.082 0-.312.168-.441.313-.23.262-.32.61-.32 1.2.003.757.164 1.198.511 1.413.223.137.278.121.278-.066zM4.895 36.18V34.69h-.141c-.117 0-.16.032-.215.168-.082.203-.234.313-.512.36-.195.031-.215.047-.23.195l-.012.152h.727v2.098h.383zm4.332 0V34.69H9.07c-.136 0-.164.024-.234.2-.09.21-.3.336-.57.336-.133 0-.145.015-.145.171v.168h.672v2.098h.434zm2.023 0V34.69h-.156c-.14 0-.168.024-.242.2-.086.21-.297.336-.563.336-.137 0-.148.015-.148.171v.168h.675v2.098h.434zm6.734 0V34.69h-.144c-.117 0-.156.032-.207.157-.098.234-.235.336-.496.37-.223.032-.235.044-.235.184v.145l.7.023v2.094h.382zm4.668 0V34.69h-.136c-.114 0-.149.036-.22.204-.097.214-.292.332-.558.332-.133 0-.144.015-.144.171v.168h.676v2.098h.382zm11.739 0V34.69h-.153c-.14 0-.168.024-.238.2-.09.21-.297.336-.566.336-.137 0-.149.015-.149.171v.168h.672v2.098h.434zm9.34 0V34.69h-.145c-.117 0-.156.032-.211.157-.098.234-.234.336-.496.37-.219.032-.234.044-.234.184v.145l.695.023v2.094h.39zm4.664 0V34.69h-.137c-.113 0-.153.036-.227.204-.097.218-.285.332-.547.332-.136 0-.148.015-.148.171v.168h.672v2.098h.39V36.18zm4.714 0V34.69h-.152c-.14 0-.168.024-.242.2-.086.21-.297.336-.563.336-.136 0-.148.015-.148.171v.168h.672v2.098h.433zm4.672 0V34.69h-.16c-.137 0-.164.02-.207.153-.059.207-.246.343-.52.37-.214.024-.222.032-.222.192v.16h.672v2.098h.437zM1.914 33.246c0-.082-.066-.203-.187-.332-.239-.266-.317-.602-.282-1.219.028-.511.133-.816.328-.957.184-.129.204-.386.036-.386-.196 0-.454.226-.59.503-.219.446-.25 1.387-.07 1.864.128.324.464.656.683.656.055 0 .082-.04.082-.129zm.606.008c.734-.438.714-2.438-.028-2.828-.215-.113-.289-.094-.289.078 0 .105.04.18.14.27.223.19.31.55.282 1.206-.023.579-.125.895-.324 1.008-.07.035-.098.102-.098.219 0 .203.043.207.317.047zm3.433-.055c0-.129-.027-.199-.117-.27-.2-.163-.293-.492-.285-1.062 0-.605.066-.87.261-1.066.098-.098.145-.196.145-.297 0-.234-.164-.195-.437.086-.31.328-.403.68-.372 1.406.028.707.176 1.059.54 1.285.218.137.269.121.269-.082zm.754.004c.43-.332.586-1.473.313-2.223-.13-.343-.422-.628-.649-.628-.144 0-.094.27.086.453.211.21.281.476.281 1.062 0 .567-.101.926-.308 1.078-.106.082-.137.149-.137.274 0 .156.004.164.133.133a.972.972 0 0 0 .281-.149zm1.895.012c0-.125-.028-.18-.118-.219-.226-.105-.332-.41-.355-1.016-.024-.69.059-1.023.305-1.222.132-.106.168-.168.168-.301 0-.14-.008-.156-.11-.125-.344.11-.543.316-.687.727-.133.378-.121 1.273.023 1.648.149.387.43.656.692.664.062.004.082-.035.082-.156zm.523.09c.176-.09.375-.328.465-.551.2-.473.168-1.441-.05-1.899-.122-.246-.392-.503-.54-.503-.094 0-.082.375.016.41.144.054.273.468.296.93.032.57-.05.953-.234 1.167a.496.496 0 0 0-.14.34c0 .203.003.203.187.106zm3.953-.078c0-.106-.05-.196-.164-.305-.21-.203-.285-.473-.285-1.055 0-.57.066-.828.285-1.074.184-.203.223-.441.074-.441-.133 0-.394.199-.523.386-.156.235-.211.453-.238.977-.043.773.164 1.355.562 1.566.23.133.29.121.29-.054zm.567.082c.19-.098.324-.266.449-.543.101-.22.113-.32.113-.899 0-.586-.012-.687-.113-.91-.137-.305-.367-.543-.57-.586-.149-.027-.157-.023-.157.11 0 .097.051.19.16.296.215.203.293.508.29 1.09 0 .574-.075.848-.286 1.055-.117.11-.164.2-.164.305 0 .168.07.191.278.082zm1.793-.075c0-.097-.063-.195-.188-.328-.156-.16-.195-.242-.246-.523-.129-.688.027-1.52.309-1.645.101-.05.124-.093.124-.242 0-.18-.003-.183-.144-.144-.25.074-.426.238-.566.527-.122.25-.137.344-.153.844-.023.84.137 1.312.543 1.558.219.137.317.125.317-.047zm.675-.007c.266-.192.477-.805.477-1.383-.004-.375-.13-.899-.27-1.114-.117-.183-.37-.378-.488-.378-.113 0-.07.316.063.445.171.16.261.523.261 1.055 0 .562-.066.847-.246 1.043a.431.431 0 0 0-.137.32c0 .148.008.164.11.133a.908.908 0 0 0 .226-.121zm1.633-.02c0-.117-.031-.184-.098-.219-.203-.117-.308-.43-.328-1.008-.023-.652.055-.996.278-1.21.168-.16.207-.418.062-.418-.14 0-.383.183-.515.382-.137.211-.266.735-.266 1.11-.004.71.27 1.324.648 1.484.176.078.22.05.22-.121zm.606.074c.375-.23.554-.703.554-1.437 0-.516-.054-.79-.226-1.086-.125-.215-.38-.406-.543-.406-.168 0-.14.261.035.39.23.164.316.477.316 1.125 0 .649-.054.86-.293 1.067-.117.105-.164.187-.164.293 0 .18.098.195.32.054zm1.753-.054c0-.106-.05-.196-.164-.305-.214-.203-.289-.48-.293-1.055-.003-.582.079-.887.293-1.09.11-.105.164-.199.164-.293 0-.136-.011-.14-.156-.113-.21.043-.441.281-.578.586-.101.219-.113.324-.113.91 0 .578.012.68.113.895.129.285.219.398.422.52.215.14.312.124.312-.055zm.66.02c.325-.208.516-.825.477-1.532-.027-.524-.086-.742-.242-.977-.113-.172-.387-.386-.496-.386-.125 0-.074.293.078.468.195.227.262.5.258 1.047 0 .555-.074.844-.258 1.031-.105.106-.14.192-.14.313 0 .152.007.168.109.137a.805.805 0 0 0 .21-.102zm1.645-.028c0-.114-.039-.2-.137-.297-.214-.203-.27-.422-.27-1.078 0-.496.017-.621.102-.817.06-.12.149-.254.207-.28.07-.04.098-.102.098-.224 0-.207-.09-.222-.344-.05-.363.254-.566.992-.476 1.738.074.582.219.855.558 1.07.207.133.262.121.262-.062zm.656.035c.704-.418.72-2.316.024-2.79-.235-.16-.34-.148-.34.04 0 .105.04.183.145.27.218.19.3.55.277 1.206-.024.579-.129.895-.328 1.008-.067.035-.094.102-.094.219 0 .203.043.207.316.047zm3.774-.035c0-.117-.04-.196-.14-.29-.223-.195-.31-.581-.286-1.21.023-.551.133-.871.328-.977.133-.074.14-.39.008-.39-.309 0-.645.511-.734 1.117-.118.808.101 1.539.554 1.812.211.133.27.121.27-.062zm.57.086c.211-.11.426-.39.508-.66.176-.61.137-1.313-.105-1.801-.133-.274-.375-.492-.551-.492-.13 0-.121.32.011.39.196.11.301.426.329.977.023.629-.067 1.015-.286 1.21-.101.094-.14.173-.14.29 0 .172.039.191.234.086zm1.785-.09c0-.121-.03-.188-.14-.27-.196-.148-.305-.535-.301-1.101 0-.57.07-.828.281-1.04.176-.183.227-.452.086-.452-.246 0-.543.308-.68.695-.117.348-.117 1.324 0 1.644.114.286.282.508.477.602.234.117.281.102.281-.078zm.567.094c.375-.2.55-.598.578-1.313.031-.726-.063-1.078-.371-1.406-.274-.281-.434-.32-.434-.086 0 .101.043.2.14.297.196.195.262.46.266 1.066.004.57-.09.899-.289 1.063-.09.07-.117.14-.117.27 0 .19.035.21.227.109zm1.793-.086c0-.114-.043-.192-.168-.305-.239-.211-.336-.621-.297-1.238.027-.508.156-.86.348-.95.09-.043.117-.09.117-.214 0-.145-.016-.164-.121-.164-.075 0-.204.078-.336.203-.293.273-.41.644-.41 1.304 0 .723.164 1.16.527 1.407.234.16.34.148.34-.043zm.683-.004c.434-.305.606-1.492.328-2.239-.117-.324-.418-.628-.625-.628-.109 0-.05.304.094.468.184.22.246.465.25 1.024 0 .547-.101.949-.273 1.086-.09.07-.121.14-.121.273 0 .16.011.176.109.145a1.08 1.08 0 0 0 .238-.13zm3.938-.008c0-.121-.043-.207-.14-.313-.192-.187-.263-.476-.263-1.03-.003-.548.063-.821.262-1.048.149-.175.195-.468.074-.468-.109 0-.382.214-.5.386-.156.235-.207.453-.242.977-.043.773.168 1.355.567 1.566.222.125.242.121.242-.07zm.66.066c.379-.234.566-.8.531-1.593-.035-.723-.281-1.176-.699-1.32l-.156-.052v.184c0 .145.023.192.11.234.241.114.401.723.35 1.352-.038.445-.156.762-.34.879-.089.062-.12.129-.12.25 0 .2.086.215.324.066zm4.055-.07c0-.117-.028-.184-.098-.219-.203-.117-.309-.43-.328-1.008-.024-.66.058-1.015.281-1.207.098-.085.145-.164.145-.27 0-.179-.094-.194-.325-.054-.57.352-.726 1.754-.285 2.492.14.235.39.434.547.434.04 0 .063-.063.063-.168zm.609.074c.367-.23.55-.703.55-1.437-.003-.516-.058-.79-.226-1.086-.117-.203-.375-.406-.52-.406-.124 0-.105.324.02.394.059.027.149.156.207.281.086.196.102.317.102.817 0 .652-.051.863-.262 1.07-.105.098-.144.188-.144.3 0 .188.054.2.273.067zm4.059-.062c0-.114-.043-.2-.141-.297-.219-.203-.27-.422-.27-1.078 0-.496.016-.621.106-.817.055-.12.148-.254.203-.28.07-.04.102-.102.102-.224 0-.207-.094-.222-.348-.05-.363.254-.566.992-.477 1.738.075.582.22.855.559 1.07.207.133.266.121.266-.062zm.652.035c.7-.418.719-2.316.023-2.79-.234-.16-.34-.148-.34.04 0 .105.04.183.145.27.219.19.305.55.277 1.206-.023.579-.125.895-.328 1.008-.066.035-.093.102-.093.219 0 .203.042.207.316.047zm4.062-.043c0-.121-.03-.188-.125-.25-.476-.316-.453-2.09.032-2.242.07-.02.093-.074.093-.219v-.188l-.156.043c-.09.028-.25.145-.36.266-.277.309-.37.676-.343 1.375.031.707.18 1.059.547 1.285.223.145.312.125.312-.07zm.704-.008c.425-.328.586-1.469.308-2.223-.12-.324-.418-.628-.625-.628-.11 0-.05.304.094.468.184.215.246.477.25 1.024 0 .531-.102.949-.274 1.086-.09.07-.12.136-.12.273 0 .16.011.176.109.145.058-.016.176-.086.258-.145zm3.964.024c0-.106-.05-.196-.164-.305-.215-.203-.285-.477-.285-1.055 0-.582.07-.847.285-1.062.121-.13.164-.207.164-.336v-.164l-.183.078c-.496.21-.727.785-.672 1.668.043.664.234 1.074.574 1.242.23.117.281.102.281-.066zm.567.082c.187-.098.324-.266.449-.543.102-.22.113-.32.113-.899 0-.586-.011-.687-.113-.91-.129-.289-.36-.535-.547-.582-.125-.031-.133-.023-.133.125 0 .105.043.2.145.3.195.196.258.462.258 1.067.004.57-.082.899-.285 1.063-.086.07-.118.14-.118.27 0 .19.035.21.23.109zm3.762-.086a.477.477 0 0 0-.145-.313c-.191-.222-.258-.496-.258-1.043-.004-.555.074-.875.262-1.055.101-.097.14-.183.14-.296 0-.18-.039-.196-.23-.094-.355.191-.547.598-.578 1.262-.035.812.168 1.406.57 1.605.223.117.239.113.239-.066zm.71.027c.333-.219.516-.824.48-1.559-.034-.742-.237-1.128-.67-1.308l-.185-.078v.172c0 .136.036.203.141.293.227.19.316.503.313 1.074 0 .593-.075.87-.286 1.078-.12.113-.168.195-.168.308 0 .145.012.153.133.122a.82.82 0 0 0 .242-.102zM4.56 31.812V30.31h-.145c-.113 0-.156.027-.207.156-.094.223-.277.36-.539.398-.2.028-.215.047-.215.176v.145h.672v1.039c0 .574.02 1.054.035 1.07.016.02.113.035.215.035h.184zm6.836 0V30.31h-.133c-.114 0-.157.039-.254.23-.113.219-.133.23-.418.3-.285.067-.305.079-.305.208v.137h.723v2.144h.387zm13.617 0V30.31h-.149c-.125 0-.152.023-.218.195-.09.219-.223.308-.54.36-.183.03-.203.05-.203.179v.14h.727v2.145h.383zm9.379 0V30.31h-.157c-.136 0-.168.02-.218.164-.078.226-.246.351-.516.39-.2.032-.215.047-.215.18v.14h.672v2.145h.434zm4.672 0V30.31h-.141c-.121 0-.156.03-.242.21-.11.223-.215.294-.547.352-.16.024-.18.047-.18.172v.14h.672v1.04c0 .574.016 1.054.031 1.074a.58.58 0 0 0 .219.031h.188zm4.667 0V30.31h-.148c-.125 0-.152.023-.219.195-.09.219-.222.308-.539.36-.183.03-.203.05-.203.179v.14h.723v2.145h.386zm4.665 0V30.31h-.137c-.121 0-.153.023-.196.164-.074.226-.238.351-.511.39-.196.032-.215.047-.215.18v.14h.672v2.145h.39v-1.512zm4.714 0V30.31h-.164c-.14 0-.164.015-.191.14-.047.203-.266.375-.531.414-.203.028-.22.047-.22.176v.145h.673v2.144h.433zm4.672 0V30.31h-.148c-.125 0-.156.023-.223.195-.086.219-.219.308-.535.36-.184.03-.203.05-.203.179v.14h.672v1.04c0 .574.015 1.054.031 1.074.02.016.117.031.219.031h.187zm4.282 0V30.31h-.145c-.117 0-.156.027-.211.156-.094.223-.277.36-.539.398-.2.028-.215.047-.215.176v.145h.672v2.144h.438zM5.84 28.544c-.215-.219-.285-.488-.285-1.063 0-.57.101-.93.312-1.085.102-.082.137-.145.137-.27 0-.16-.008-.168-.129-.137a.865.865 0 0 0-.492.387c-.301.496-.328 1.574-.047 2.137.101.195.363.437.535.48.094.02.11.004.121-.129.012-.12-.02-.187-.152-.32zm.863.309c.3-.258.457-.723.457-1.372-.004-.808-.258-1.343-.71-1.488-.098-.031-.106-.015-.106.14 0 .122.035.208.136.31.196.199.262.484.262 1.062 0 .574-.062.844-.262 1.039a.41.41 0 0 0-.136.316c0 .168.004.172.129.125a.907.907 0 0 0 .23-.132zm5.75 0c0-.157-.023-.2-.121-.247-.469-.214-.473-1.914-.004-2.226.09-.059.125-.125.125-.246 0-.184-.035-.195-.258-.098-.383.164-.57.574-.601 1.328-.031.844.16 1.364.586 1.575.11.054.215.101.234.101.024 0 .04-.086.04-.187zm2.55-.282c-.222-.195-.308-.547-.28-1.207.023-.582.117-.867.324-.996.113-.07.144-.402.043-.402-.094 0-.38.187-.477.308-.273.329-.398 1.16-.265 1.79.09.449.265.714.554.867l.22.113.015-.176c.011-.14-.008-.195-.133-.297zm.923.239c.363-.336.508-1.461.277-2.16a1.198 1.198 0 0 0-.45-.587c-.218-.136-.269-.12-.269.07 0 .126.04.212.16.333.211.21.293.578.262 1.183-.023.485-.152.852-.32.946-.078.043-.102.101-.102.254v.191l.176-.074a.915.915 0 0 0 .266-.16zm4.742-.102c.23-.258.32-.613.32-1.227 0-.761-.199-1.23-.601-1.44-.203-.106-.235-.09-.235.12 0 .145.02.195.098.223.191.062.3.39.324.98.028.657-.058 1.012-.281 1.203-.11.094-.14.164-.14.297v.176l.179-.074c.098-.04.25-.156.336-.258zm3.86.14c0-.152-.02-.199-.094-.222-.247-.082-.422-.738-.364-1.387.035-.433.157-.742.332-.86.098-.058.125-.124.125-.25 0-.163-.004-.171-.132-.14-.207.055-.344.164-.493.399-.172.281-.242.593-.242 1.133 0 .718.215 1.222.602 1.421.11.051.21.098.234.098.016 0 .031-.086.031-.191zm2.152-.304c-.2-.2-.274-.5-.274-1.086 0-.504.102-.86.29-1.02.113-.093.144-.164.144-.296 0-.192-.035-.207-.238-.102-.407.215-.606.7-.598 1.488.004.774.207 1.23.613 1.418l.2.09.011-.164c.016-.129-.015-.195-.148-.328zm2.355 0c-.21-.211-.281-.469-.285-1.016-.004-.57.082-.89.285-1.097.117-.121.164-.211.164-.317 0-.148-.012-.156-.133-.125-.234.063-.41.235-.562.559-.14.308-.152.348-.149.933.008.743.106 1.063.418 1.332.266.235.395.25.415.051.011-.12-.02-.187-.153-.32zm2.34.016c-.215-.196-.277-.446-.277-1.055 0-.602.09-.93.293-1.094.082-.066.117-.14.117-.27 0-.163-.008-.18-.11-.148-.453.133-.71.664-.71 1.465 0 .82.183 1.273.582 1.477l.21.105.02-.176c.012-.136-.012-.195-.125-.304zm.96.199c.185-.18.33-.598.36-1.067.063-.875-.238-1.578-.722-1.703-.121-.031-.13-.02-.13.125 0 .106.048.196.16.313.204.21.278.488.278 1.082 0 .57-.066.82-.273 1.031-.125.125-.164.211-.164.332v.168l.18-.074c.117-.055.218-.121.312-.207zm3.727-.207c-.218-.192-.296-.488-.292-1.07.003-.586.074-.86.289-1.055.12-.121.164-.2.164-.313 0-.148-.008-.156-.13-.125a.878.878 0 0 0-.491.387c-.305.496-.329 1.574-.047 2.137.097.195.367.437.535.48.094.02.113.004.125-.133.012-.129-.016-.187-.153-.308zm2.516.3c0-.156-.02-.199-.121-.246-.191-.085-.32-.44-.348-.957-.03-.605.07-1.015.301-1.222.13-.117.168-.192.168-.305 0-.187-.105-.203-.34-.043-.367.25-.527.684-.527 1.426 0 .777.187 1.23.586 1.43.117.054.23.105.246.105.023 0 .035-.086.035-.187zm2.36.028c0-.121-.036-.192-.168-.293-.247-.203-.329-.531-.305-1.223.02-.601.117-.879.347-1.004.098-.054.126-.105.126-.23 0-.195-.09-.211-.333-.063-.226.137-.32.27-.445.586-.094.223-.11.356-.105.852 0 .828.175 1.242.61 1.441.265.121.273.117.273-.066zm5.253.027c.176-.086.348-.328.454-.625.117-.347.12-1.222.003-1.578-.101-.285-.308-.558-.52-.664-.218-.117-.284-.094-.284.102 0 .132.027.183.12.226.212.094.333.438.352.985.016.277-.004.593-.035.746-.058.265-.246.55-.367.55-.047 0-.07.059-.07.2 0 .183.008.195.11.16.058-.016.167-.063.237-.102zm3.895-.36c-.203-.202-.27-.468-.27-1.066 0-.578.086-.91.293-1.07.141-.113.176-.476.04-.426a.394.394 0 0 1-.122.032c-.101 0-.379.316-.48.547-.082.203-.117.375-.133.8-.031.844.16 1.364.586 1.575l.2.101.015-.172c.012-.137-.016-.203-.13-.32zm4.695-.003c-.218-.219-.289-.484-.289-1.066 0-.567.102-.926.309-1.082.105-.082.14-.145.14-.27 0-.16-.007-.168-.132-.137-.211.055-.426.25-.54.48-.257.548-.257 1.52 0 2.044.102.195.372.437.54.48.09.02.109.004.125-.129.007-.12-.028-.187-.157-.32zm4.875.336c0-.121-.035-.192-.168-.293-.246-.2-.328-.531-.304-1.223.02-.601.117-.879.347-1.004.098-.054.125-.105.125-.23 0-.195-.09-.211-.332-.063-.226.137-.32.27-.445.586-.125.32-.152 1.137-.047 1.547.082.336.297.63.55.746.266.121.274.117.274-.066zm-46.66.058c.348-.183.555-.601.598-1.242.05-.765-.18-1.43-.567-1.629a1.354 1.354 0 0 0-.214-.101c-.012 0-.024.078-.024.168 0 .113.04.21.14.316.176.196.255.524.25 1.07 0 .528-.062.79-.25 1.004a.493.493 0 0 0-.14.317c0 .16.043.18.207.098zm6.816-.117c0-.125-.027-.183-.101-.226-.168-.094-.297-.461-.32-.946-.028-.593.047-.957.257-1.191.114-.125.165-.23.165-.336 0-.172-.04-.183-.239-.082-.316.164-.512.531-.578 1.086-.094.734.113 1.508.477 1.754.242.164.34.148.34-.059zm5.415.016c.3-.27.457-.719.457-1.328 0-.809-.266-1.375-.707-1.516-.102-.031-.114-.015-.114.149 0 .129.032.203.121.27.18.148.286.534.286 1.07-.004.55-.07.82-.262 1.042-.172.2-.2.465-.047.465.05 0 .172-.07.266-.152zm2.289.043c.46-.313.644-1.3.402-2.168-.078-.273-.29-.559-.508-.672-.195-.105-.234-.09-.234.086 0 .113.039.2.144.293.192.187.29.543.29 1.086 0 .55-.098.898-.29 1.062-.105.086-.144.168-.144.274 0 .187.11.2.34.039zm2.32.02c.371-.25.539-.758.504-1.555-.016-.399-.047-.582-.133-.782-.098-.23-.375-.546-.48-.546a.504.504 0 0 1-.122-.032c-.128-.05-.097.313.047.426.2.164.293.492.29 1.07-.005.598-.07.864-.266 1.063-.098.098-.14.195-.14.297 0 .176.097.2.3.058zm7.102-.079c.277-.258.398-.59.43-1.168.042-.902-.208-1.504-.7-1.66-.098-.031-.11-.015-.11.14 0 .122.04.208.141.31.192.199.266.484.266 1.062 0 .574-.07.844-.262 1.039-.098.098-.144.195-.144.297 0 .207.14.2.379-.02zm2.222.094c.317-.164.512-.586.555-1.21.058-.747-.156-1.395-.528-1.618a1.52 1.52 0 0 0-.238-.121c-.02 0-.035.09-.035.2 0 .128.027.206.078.222.04.015.117.12.18.23.078.164.105.309.117.746.027.63-.055 1-.25 1.188a.362.362 0 0 0-.125.277c0 .18.04.192.246.086zm2.387-.027c.336-.211.5-.676.5-1.399 0-.718-.168-1.16-.527-1.41-.22-.148-.247-.14-.247.07 0 .122.036.22.122.305.18.192.28.668.253 1.195-.023.465-.156.88-.296.93-.09.04-.11.41-.02.41a.718.718 0 0 0 .215-.101zm3.96-.047a.5.5 0 0 0-.12-.297c-.168-.203-.262-.582-.262-1.023 0-.52.074-.844.242-1.04.09-.09.14-.21.14-.335 0-.2-.003-.204-.187-.106-.32.164-.511.535-.586 1.102-.09.726.121 1.5.48 1.738.227.152.294.14.294-.04zm5.485-.027c.305-.278.406-.602.406-1.333.004-.585 0-.625-.144-.933-.156-.324-.328-.496-.566-.559-.118-.031-.126-.02-.126.125 0 .106.047.196.16.317.204.207.282.508.278 1.09 0 .55-.07.812-.273 1.02-.211.21-.235.448-.047.448.074 0 .203-.074.312-.175zm4.598.07c.332-.23.504-.715.504-1.403 0-.808-.262-1.351-.711-1.488-.098-.031-.106-.015-.106.156 0 .133.028.204.098.247.207.132.3.476.305 1.058 0 .621-.059.89-.258 1.09-.098.098-.145.195-.145.297 0 .18.094.2.313.043zm4.695-.004c.363-.25.563-1.004.473-1.766-.07-.55-.262-.91-.578-1.074-.184-.098-.188-.098-.188.113 0 .137.031.22.121.301.188.18.239.41.239 1.05 0 .5-.016.618-.102.817-.063.13-.14.242-.184.258-.05.02-.074.094-.074.219 0 .223.059.242.293.082zM2.637 27.453V25.97h-.145c-.12 0-.156.027-.21.168-.087.203-.243.308-.52.36-.192.034-.207.046-.207.179v.144l.347.012.348.02v2.09h.387zm1.828 0V25.97h-.156c-.137 0-.172.023-.239.195-.09.215-.3.34-.57.34-.129 0-.145.012-.145.172v.172h.676v2.093h.434zm4.426 0V25.97h-.16c-.137 0-.168.023-.247.199-.093.215-.293.336-.554.336-.133 0-.145.012-.145.172v.172h.672v2.093h.434zm1.828 0V25.97h-.133c-.113 0-.152.031-.223.191a.593.593 0 0 1-.55.344c-.141 0-.153.012-.153.172v.172h.672v2.093h.387zm7.265 0V25.97h-.144c-.117 0-.156.027-.211.168-.086.203-.242.308-.516.36-.195.034-.21.046-.21.179v.144l.347.012.352.02v2.09h.382zm4.668 0V25.97h-.136c-.11 0-.149.031-.215.191a.604.604 0 0 1-.559.344c-.137 0-.148.012-.148.172v.172h.676v2.093h.382zm11.739 0V25.97h-.157c-.14 0-.168.023-.246.199-.093.215-.289.336-.554.336-.137 0-.149.012-.149.172v.172h.672v2.093h.434zm9.34 0V25.97h-.145c-.121 0-.156.027-.211.168-.09.203-.242.308-.52.36-.19.034-.21.046-.21.179v.144l.347.012.348.02v2.09h.39zm4.664 0V25.97h-.137c-.113 0-.153.031-.223.191a.591.591 0 0 1-.547.344c-.14 0-.152.012-.152.172v.172h.672v2.093h.39v-1.488zm4.714 0V25.97h-.152c-.14 0-.168.023-.242.195-.086.215-.297.34-.563.34-.136 0-.148.012-.148.172v.172h.672v2.093h.433zm4.672 0V25.97h-.164c-.14 0-.164.02-.207.152-.055.207-.242.34-.515.371-.215.024-.223.028-.223.188v.168h.672v2.093h.437zm-52.164-2.95c0-.108-.047-.198-.183-.327-.239-.227-.317-.574-.286-1.207.028-.516.157-.867.348-.957.102-.047.121-.09.121-.246 0-.176-.008-.188-.11-.157-.527.168-.765.633-.765 1.532 0 .738.172 1.18.559 1.418.222.14.316.125.316-.055zm.524.079c.21-.11.421-.383.52-.672.116-.351.112-1.223-.005-1.574-.133-.383-.43-.703-.652-.703-.102 0-.05.32.074.437.172.16.266.528.266 1.047 0 .52-.102.914-.27 1.07a.354.354 0 0 0-.117.29c0 .199 0 .203.184.105zm1.98-.09c0-.11-.039-.195-.144-.297-.188-.18-.29-.539-.29-1.039 0-.574.075-.86.27-1.07.121-.129.164-.219.164-.34v-.168l-.18.078c-.242.102-.34.2-.472.469-.305.605-.246 1.762.113 2.188.133.167.379.34.48.34.036 0 .06-.067.06-.16zm.574.09c.461-.238.707-1.035.582-1.855-.09-.598-.422-1.094-.73-1.094-.129 0-.121.293.008.375.187.12.304.441.328.937.027.621-.047.98-.262 1.22-.113.124-.164.23-.164.335 0 .172.04.184.238.082zm3.805-.094c0-.12-.027-.18-.121-.226-.211-.114-.332-.453-.352-.996a3.702 3.702 0 0 1 .036-.743c.062-.265.25-.55.37-.55.047 0 .067-.063.067-.196 0-.109-.012-.195-.027-.195-.067 0-.391.16-.47.23-.269.25-.456.985-.394 1.56.067.632.235.98.575 1.19.226.137.316.122.316-.074zm.52.094c.074-.039.19-.129.257-.207.536-.574.446-2.242-.148-2.633a.556.556 0 0 0-.227-.11c-.093 0-.09.368.008.403.156.063.277.434.3.91.028.594-.046.973-.233 1.196a.47.47 0 0 0-.141.336c0 .199.004.203.184.105zm1.925-.098c.012-.097-.027-.18-.129-.289-.214-.222-.312-.664-.285-1.226.028-.48.125-.782.305-.946.144-.125.168-.39.031-.39-.172 0-.433.238-.566.52-.121.242-.137.343-.156.843-.032.824.12 1.277.52 1.543.194.14.26.125.28-.055zm.657.047c.382-.226.601-.883.535-1.636-.051-.657-.254-1.051-.621-1.22-.23-.1-.274-.09-.274.09 0 .094.051.172.168.266.246.2.328.532.305 1.227-.024.601-.13.91-.356 1.015-.09.04-.117.09-.117.215 0 .203.078.211.36.043zm1.902-.027c0-.11-.047-.195-.164-.309a.945.945 0 0 1-.215-.347c-.195-.703-.059-1.657.258-1.832.097-.047.12-.102.12-.246 0-.184 0-.184-.155-.137-.41.12-.664.605-.7 1.336-.039.804.168 1.379.567 1.593.234.125.289.118.289-.058zm.68-.008c.328-.23.5-.793.464-1.527-.027-.582-.148-.91-.425-1.168-.246-.223-.383-.227-.383-.012 0 .11.039.195.137.29.187.179.273.51.27 1.062 0 .554-.079.843-.267 1.035a.407.407 0 0 0-.14.312c0 .153.012.168.11.133a.897.897 0 0 0 .234-.121zm1.628.004c0-.105-.05-.21-.164-.336-.21-.234-.285-.598-.257-1.195.023-.485.152-.856.32-.95.137-.07.148-.386.012-.386-.317 0-.653.52-.727 1.129-.101.832.11 1.527.547 1.8.21.13.27.118.27-.062zm.625.055c.387-.246.543-.637.551-1.39.004-.837-.207-1.325-.656-1.509l-.18-.074v.172c0 .133.032.203.141.3.223.184.305.54.281 1.204-.02.582-.113.863-.324.992-.07.043-.098.113-.098.23 0 .2.051.215.285.07zm1.735-.051c0-.106-.047-.2-.16-.313-.203-.207-.274-.472-.274-1.082 0-.593.063-.82.27-1.03.113-.11.164-.212.164-.31 0-.156-.078-.18-.258-.085-.344.183-.543.593-.598 1.214-.054.75.16 1.403.54 1.633.261.157.316.153.316-.027zm.629.035c.355-.242.523-.684.523-1.383 0-.816-.18-1.265-.578-1.468l-.215-.106-.015.18c-.012.14.011.195.109.277.18.152.273.438.305.926.03.574-.07 1.02-.278 1.21-.109.102-.144.18-.144.305 0 .204.062.22.293.06zm4.039-.047c0-.11-.04-.195-.145-.297-.187-.18-.289-.539-.289-1.039 0-.574.07-.86.27-1.07.117-.129.164-.219.164-.34v-.168l-.18.078c-.433.176-.652.653-.656 1.438-.008.781.16 1.215.566 1.468.211.13.27.114.27-.07zm.57.09c.469-.242.715-1.039.586-1.879-.086-.582-.426-1.07-.734-1.07-.157 0-.11.254.074.445.195.2.273.5.273 1.078 0 .5-.101.86-.289 1.04-.105.1-.144.187-.144.296 0 .18.039.192.234.09zm1.785-.078c0-.106-.047-.2-.16-.313-.203-.207-.289-.53-.285-1.097.004-.551.082-.809.285-1.016.121-.121.164-.207.164-.332v-.168l-.183.078c-.262.11-.43.297-.551.606-.086.226-.11.37-.11.879-.003.586.008.62.149.93.137.292.297.468.5.546.152.059.195.035.195-.113zm.532.098c.105 0 .382-.313.48-.547.156-.36.195-1.18.074-1.621-.12-.446-.414-.801-.66-.801-.144 0-.11.273.055.441.195.2.262.461.265 1.067.004.574-.09.906-.289 1.066-.144.11-.175.48-.047.426a.504.504 0 0 1 .122-.031zm1.828-.114c0-.125-.032-.187-.125-.246-.239-.16-.332-.472-.332-1.125 0-.496.015-.62.109-.816.059-.137.152-.254.223-.29.101-.042.125-.09.125-.238 0-.183-.004-.183-.137-.148-.52.152-.754.684-.723 1.629.02.433.043.594.13.789.128.289.269.453.464.539.227.102.266.086.266-.094zm.683.008c.434-.308.606-1.488.325-2.246-.106-.29-.415-.617-.583-.617-.148 0-.113.27.055.465.184.215.246.465.25 1.011 0 .551-.078.868-.254 1.063-.09.082-.14.2-.14.316 0 .153.011.168.109.137a.939.939 0 0 0 .238-.129zm3.985.008c0-.11-.047-.195-.164-.309-.215-.203-.286-.468-.29-1.054 0-.567.07-.844.29-1.063.125-.121.164-.207.164-.332v-.168l-.18.078c-.465.2-.688.684-.688 1.5 0 .676.223 1.215.579 1.407.23.125.289.113.289-.06zm.683-.008c.18-.129.352-.445.426-.777.086-.41.04-1.176-.098-1.492-.117-.278-.425-.594-.578-.594-.152 0-.129.262.04.437.19.192.273.524.269 1.07-.004.555-.078.844-.266 1.036a.407.407 0 0 0-.14.312c0 .153.011.168.109.133a.82.82 0 0 0 .238-.125zm3.985-.012c0-.12-.028-.187-.098-.222-.203-.11-.309-.422-.328-1.008-.024-.66.058-1.016.281-1.2.168-.148.207-.421.059-.421-.14 0-.387.176-.516.375-.277.422-.336 1.398-.125 1.965.121.308.215.437.441.578.23.14.286.129.286-.067zm.629.055c.363-.246.527-.687.527-1.422 0-.773-.188-1.23-.59-1.433l-.207-.102-.016.18c-.011.14.012.195.11.277.176.148.273.438.304.89.036.583-.058 1.024-.261 1.231-.121.117-.16.203-.16.324 0 .2.062.211.293.055zm4.085-.035c0-.11-.05-.2-.187-.328-.219-.215-.293-.488-.293-1.074 0-.504.105-.868.316-1.059.11-.098.164-.195.164-.281 0-.176-.042-.188-.28-.082-.395.18-.61.715-.602 1.508.007.69.191 1.14.562 1.37.223.141.32.126.32-.054zm.524.078c.21-.11.418-.383.52-.672.113-.351.113-1.223-.004-1.574-.141-.406-.43-.703-.676-.703-.137 0-.09.258.074.41.219.223.3.566.273 1.215-.023.582-.113.863-.324.992-.07.043-.097.113-.097.23 0 .192.035.207.234.102zm4.094-.105c0-.125-.032-.204-.114-.27-.207-.16-.293-.492-.293-1.066 0-.598.067-.864.266-1.067.094-.097.14-.191.14-.293 0-.18-.093-.199-.296-.062-.38.25-.543.758-.512 1.55.031.731.219 1.145.594 1.313.207.094.215.09.215-.105zm.738.02c.082-.063.203-.243.293-.427.14-.308.148-.343.144-.93 0-.511-.02-.652-.109-.89-.121-.313-.426-.617-.617-.617-.18 0-.152.242.055.445.203.207.273.465.273 1.02.004.582-.074.886-.277 1.093-.114.118-.16.207-.16.317 0 .144.011.152.124.12a.898.898 0 0 0 .274-.136zm3.64-.02c0-.125-.03-.204-.113-.27-.21-.164-.293-.488-.293-1.113.004-.614.106-.961.309-1.074.133-.067.144-.387.016-.387-.172 0-.438.238-.575.52-.113.242-.136.343-.152.843-.027.824.125 1.277.52 1.543.23.16.289.145.289-.062zm.649.054c.383-.226.598-.883.54-1.633-.056-.671-.282-1.085-.669-1.242l-.18-.078v.176c0 .133.032.203.145.3.195.165.285.509.285 1.075 0 .594-.066.855-.27 1.062-.113.114-.16.207-.16.313 0 .18.051.183.309.027zm3.637-.043c0-.125-.032-.187-.125-.25-.477-.312-.453-2.086.027-2.242.074-.023.098-.078.098-.219v-.191l-.157.047c-.09.023-.25.14-.355.262-.281.312-.375.683-.348 1.375.035.73.22 1.144.594 1.312.223.102.266.086.266-.094zm.703-.011c.465-.356.605-1.657.254-2.364-.11-.215-.403-.48-.524-.48-.156 0-.129.265.043.465.192.218.258.488.258 1.043.004.535-.101.922-.281 1.066-.086.07-.117.14-.117.273 0 .16.011.176.109.145.059-.02.176-.086.258-.148zM3.934 23.094v-1.512h-.141c-.113 0-.148.027-.191.164-.075.227-.18.313-.473.371-.23.055-.254.067-.254.2v.14h.676v2.145h.383zm7.027 0v-1.512h-.14c-.122 0-.153.027-.2.176-.066.207-.262.336-.559.379-.195.035-.21.047-.21.18v.14h.726v2.145h.383zm14.05 0v-1.512h-.144c-.12 0-.156.027-.23.211-.098.219-.211.289-.555.344-.16.031-.18.05-.18.175v.145h.727v2.145h.383zm9.372-.016l.012-1.496h-.165c-.132 0-.167.02-.19.113-.06.227-.216.364-.49.422-.245.055-.265.067-.265.2v.14h.672v2.152l.211-.015.203-.016zm4.68.016v-1.512h-.145c-.121 0-.156.027-.211.164-.082.188-.289.371-.434.371-.234 0-.316.059-.316.2v.14h.668v1.04c0 .573.016 1.058.031 1.073.024.02.117.032.219.032h.188zm4.667 0v-1.512h-.144c-.121 0-.156.027-.234.211-.094.219-.207.289-.551.344-.16.031-.18.05-.18.175v.145h.723v2.145h.386zm4.665 0v-1.512h-.137c-.121 0-.153.027-.196.164-.078.227-.183.313-.472.371-.235.055-.254.067-.254.2v.14h.672v2.145h.39v-1.508zm4.714 0v-1.512h-.152c-.137 0-.172.027-.254.207-.101.219-.23.309-.52.352-.16.027-.18.047-.18.172v.144h.673v2.145h.433zm4.188 0v-1.512h-.14c-.118 0-.157.031-.243.211-.105.223-.21.293-.543.344-.16.031-.18.05-.18.175v.145h.672v1.04c0 .573.016 1.058.032 1.073.02.02.117.032.218.032h.184zM12.5 20.117c0-.137-.02-.195-.07-.195-.106 0-.301-.29-.367-.547-.079-.32-.036-1.172.074-1.438a.662.662 0 0 1 .222-.292c.11-.063.141-.118.141-.243 0-.18-.066-.203-.285-.09-.34.18-.547.594-.61 1.22-.058.566.133 1.304.399 1.55.082.074.379.227.46.23.02 0 .036-.085.036-.195zm8.16-.12c.238-.27.332-.638.328-1.267-.008-.757-.164-1.14-.554-1.386-.23-.14-.282-.13-.282.07 0 .121.028.188.098.23.21.133.305.415.324.997.024.66-.058 1.015-.281 1.203-.11.093-.14.164-.14.297v.175l.179-.074a1.13 1.13 0 0 0 .328-.246zm4.633.058c.547-.524.512-2.2-.063-2.637a.856.856 0 0 0-.28-.152c-.126-.032-.134-.024-.134.132 0 .13.036.196.145.27.203.156.309.52.309 1.086-.004.578-.079.848-.29 1.062-.12.125-.164.207-.164.332v.168l.18-.078c.102-.039.23-.125.297-.183zm2.371-.028c.234-.257.344-.652.348-1.226.004-.79-.192-1.274-.602-1.488-.215-.114-.281-.094-.281.093 0 .121.027.18.117.227.067.035.168.168.23.289.094.2.11.297.11.855 0 .563-.016.657-.106.836a.936.936 0 0 1-.23.282c-.117.078-.172.304-.09.386.05.051.371-.113.504-.254zm1.371-.21c-.21-.212-.281-.47-.281-1.04-.004-.566.101-.957.3-1.101.11-.086.145-.149.145-.278 0-.156-.008-.164-.133-.132-.234.058-.41.23-.562.558-.14.305-.152.352-.152.906 0 .868.18 1.29.625 1.493l.199.09.012-.165c.011-.128-.016-.195-.153-.332zm7.027 0c-.222-.22-.292-.493-.289-1.063 0-.582.07-.852.286-1.055.12-.113.164-.199.164-.312 0-.145-.008-.153-.13-.121-.452.117-.738.683-.738 1.472 0 .813.223 1.301.676 1.496l.168.075.016-.164c.008-.125-.02-.192-.153-.329zm2.516.308c0-.148-.02-.195-.121-.242-.07-.035-.168-.153-.227-.29-.093-.198-.105-.312-.105-.84.004-.687.059-.894.305-1.073.117-.086.148-.153.148-.274 0-.195-.09-.21-.316-.07-.407.25-.567.719-.543 1.555.02.507.035.601.152.847.137.285.316.457.555.528.07.023.136.043.14.047a.746.746 0 0 0 .012-.188zm2.172-.281c-.227-.188-.309-.543-.285-1.203.02-.586.125-.899.328-1.008.07-.035.098-.102.098-.219 0-.203-.047-.21-.313-.05-.379.222-.598.886-.539 1.605.059.683.258 1.082.625 1.25l.203.093.016-.171c.012-.137-.012-.196-.133-.297zm5.594.238c.386-.36.527-1.488.265-2.176-.109-.293-.21-.426-.43-.562-.245-.149-.335-.133-.335.062 0 .125.031.18.125.227.23.125.324.402.347 1.004.028.687-.054 1.027-.304 1.226-.157.125-.223.328-.133.418.035.04.348-.093.465-.199zm4.71-.05c.395-.38.493-1.622.176-2.29-.117-.238-.343-.437-.566-.48-.148-.032-.152-.028-.148.133 0 .132.035.187.152.261.227.145.332.504.332 1.098.004.613-.066.855-.3 1.082-.177.168-.24.36-.16.445.05.047.37-.105.515-.25zm-45.292.081c0-.097-.043-.195-.14-.293-.196-.199-.263-.46-.267-1.066-.003-.574.09-.906.29-1.067.09-.066.117-.14.117-.269 0-.207-.063-.223-.29-.066-.363.25-.527.687-.527 1.406 0 .656.117 1.035.407 1.305.27.25.41.265.41.054zm.593.098c.356-.188.555-.606.594-1.262.059-.898-.222-1.558-.715-1.683-.129-.032-.136-.024-.136.132 0 .13.035.196.144.278.196.144.305.535.301 1.101 0 .567-.074.828-.281 1.04-.11.113-.164.21-.164.308 0 .156.078.18.257.086zm6.774-.059c.594-.402.684-2.058.148-2.632-.117-.125-.343-.278-.418-.278-.062 0-.02.395.047.422.04.016.117.133.18.254.098.203.11.3.11.86 0 .57-.012.656-.11.843-.063.113-.14.223-.18.234-.094.04-.097.41-.004.41a.619.619 0 0 0 .227-.113zm2.016-.035c0-.105-.04-.187-.145-.273-.219-.184-.305-.543-.281-1.203.02-.582.125-.895.328-1.008.07-.035.098-.102.098-.219 0-.2-.051-.21-.286-.07-.394.25-.546.633-.546 1.41-.004.77.152 1.195.515 1.422.223.137.317.12.317-.059zm.683.028c.367-.25.559-.985.465-1.754-.066-.551-.254-.91-.57-1.075-.203-.105-.243-.09-.243.094 0 .125.043.207.165.328.207.215.289.586.261 1.192-.027.48-.152.851-.324.945-.074.04-.102.102-.102.223 0 .21.094.222.348.047zm3.985-.047c0-.121-.028-.184-.102-.223-.172-.094-.297-.465-.32-.945-.032-.598.047-.961.257-1.196.11-.129.165-.23.165-.336 0-.171-.04-.187-.239-.082-.316.164-.512.532-.578 1.086-.094.743.11 1.496.473 1.743.25.175.343.164.343-.047zm4.667.02a.41.41 0 0 0-.136-.29c-.188-.195-.274-.523-.274-1.098 0-.543.09-.855.293-1.046.14-.137.176-.473.04-.418a.368.368 0 0 1-.118.027c-.101 0-.379.312-.484.547-.098.223-.11.332-.113.867 0 .777.062 1.012.359 1.324.27.285.433.317.433.086zm2.36.003a.296.296 0 0 0-.102-.23c-.215-.184-.3-.446-.324-.993-.023-.625.059-.988.281-1.199.14-.14.196-.367.094-.43-.07-.046-.309.102-.473.29-.511.59-.398 2.21.184 2.597.23.157.34.145.34-.035zm3.004.04c.367-.255.527-.743.496-1.524-.016-.422-.047-.598-.133-.797-.098-.23-.375-.547-.48-.547a.487.487 0 0 1-.122-.027c-.128-.055-.093.28.047.418.207.199.29.5.29 1.07-.005.605-.07.867-.266 1.066-.098.098-.145.196-.145.297 0 .184.098.195.313.043zm1.664-.063c0-.118-.031-.184-.094-.22-.05-.026-.144-.155-.203-.28-.102-.207-.117-.301-.113-.82 0-.493.015-.622.105-.813.055-.125.149-.254.203-.29.117-.073.149-.433.032-.433-.106 0-.38.211-.497.387-.27.406-.343 1.316-.156 1.91.102.328.172.438.402.617.211.168.32.149.32-.058zm.59.113c.351-.184.55-.602.597-1.242.063-.88-.234-1.578-.722-1.7-.121-.035-.13-.027-.13.118 0 .11.048.203.16.316.204.207.282.5.282 1.086-.004.57-.074.816-.277 1.027-.113.114-.164.211-.164.309 0 .156.074.18.254.086zm4.836-.113c.277-.258.402-.59.43-1.16.046-.915-.208-1.52-.696-1.668-.102-.032-.11-.02-.11.152 0 .137.028.207.102.254.195.125.3.472.305 1.031.004.602-.074.922-.27 1.11-.097.093-.136.18-.136.292 0 .215.132.211.379-.011zm2.257.07c.223-.137.387-.422.473-.805.18-.875-.023-1.726-.484-2a1.66 1.66 0 0 0-.235-.12c-.066 0-.03.382.043.405.035.016.114.122.176.243.086.168.11.308.125.75.023.625-.055.996-.25 1.183a.37.37 0 0 0-.125.281c0 .188.055.204.277.063zm2.356-.004c.332-.207.5-.676.5-1.387.004-.734-.18-1.207-.55-1.441-.22-.133-.27-.117-.27.07 0 .114.039.2.144.301.211.207.262.414.262 1.07 0 .5-.016.621-.102.817-.058.12-.148.25-.207.281-.07.04-.097.102-.097.223 0 .203.074.218.32.066zm3.96-.086c0-.129-.023-.2-.073-.223-.145-.054-.278-.464-.301-.925-.028-.57.05-.957.234-1.172.09-.09.14-.211.14-.336 0-.203-.003-.203-.183-.11-.34.18-.515.508-.59 1.098-.09.746.114 1.485.473 1.735.246.171.3.156.3-.067zm4.716.04c0-.102-.047-.2-.141-.298-.2-.199-.262-.46-.266-1.062-.004-.574.079-.875.29-1.074.109-.106.16-.336.085-.403-.043-.05-.273.055-.41.192-.234.23-.343.566-.367 1.168-.027.734.082 1.129.398 1.422.27.253.41.269.41.054zm5.004-.013c0-.128-.028-.175-.122-.218-.199-.094-.324-.45-.351-.961-.027-.637.055-.977.285-1.211.203-.203.266-.473.113-.473-.21 0-.547.301-.668.602-.214.511-.183 1.453.059 1.933.14.282.383.489.57.489.094 0 .114-.024.114-.16zm.628.047c.618-.418.7-2.105.13-2.648-.145-.137-.329-.262-.391-.262-.016 0-.028.09-.028.2 0 .132.024.203.07.222.173.07.282.41.301.973.028.625-.05 1-.253 1.187a.363.363 0 0 0-.118.281c0 .196.063.207.29.047zM8.648 18.734v-1.492h-.164c-.136 0-.168.024-.191.13-.055.214-.234.35-.504.386-.242.035-.25.039-.25.199v.164h.68v2.098h.43zm1.973 0v-1.492h-.156c-.137 0-.164.024-.203.156-.067.207-.254.336-.528.368-.218.027-.222.035-.21.18l.015.152.348.015.351.012v2.094h.383zm7.363 0v-1.492h-.144c-.121 0-.156.035-.211.168-.086.203-.242.313-.516.36-.195.035-.21.05-.21.183v.149l.699.023v2.094h.382zm4.668 0v-1.492h-.14c-.11 0-.153.035-.2.156-.093.227-.23.329-.488.364-.226.031-.23.039-.23.195v.164h.676v2.098h.382zm11.739 0v-1.492h-.164c-.137 0-.168.028-.211.145-.078.226-.223.34-.485.37-.238.036-.246.04-.246.2v.164h.672v2.098h.434zm9.336 0v-1.492h-.145c-.117 0-.152.035-.21.168-.087.203-.24.313-.517.36-.195.035-.21.05-.21.183v.149l.695.023v2.094h.387zm4.668 0v-1.492h-.141c-.102 0-.149.031-.172.098a.605.605 0 0 1-.512.422c-.226.031-.234.035-.234.195v.164h.672v2.098h.387zm4.863 0v-1.492h-.149c-.113 0-.156.031-.195.137-.09.234-.238.348-.484.383-.227.031-.235.039-.235.195v.164h.672v2.098h.387v-1.485zm5.238 0v-1.492h-.16c-.14 0-.172.028-.211.145-.074.215-.246.34-.5.375-.227.031-.234.039-.234.195v.164h.675v2.098h.43zM9.754 15.75c0-.129-.031-.2-.113-.27-.204-.16-.293-.492-.29-1.066 0-.601.07-.89.266-1.074a.377.377 0 0 0 .137-.305c0-.176 0-.176-.149-.12-.418.144-.668.687-.668 1.452 0 .563.07.875.258 1.156.133.196.403.403.524.403.02 0 .035-.078.035-.176zm.652.059c.442-.266.66-1.094.504-1.954-.094-.5-.34-.855-.664-.945-.148-.047-.152-.047-.152.113 0 .122.043.207.164.329.203.21.277.476.281 1.015.004.567-.082.89-.281 1.098-.113.113-.164.21-.164.312 0 .18.05.184.312.032zm3.68-.051c0-.11-.031-.192-.09-.23a1.076 1.076 0 0 1-.203-.258c-.09-.157-.11-.274-.133-.735-.023-.66.063-1.02.281-1.207.114-.098.145-.168.145-.3v-.176l-.18.074c-.437.183-.656.672-.656 1.465-.004.757.172 1.199.57 1.445.215.129.266.117.266-.078zm.66.043c.328-.207.508-.684.512-1.364.004-.792-.188-1.265-.594-1.476l-.215-.11-.02.18c-.007.133.012.196.09.246.196.141.305.45.329.942.027.633-.047.996-.262 1.21-.121.126-.164.208-.164.333 0 .156.012.168.11.14.073-.027.148-.062.214-.101zm3.91-.047c0-.117-.027-.188-.097-.23-.211-.126-.301-.41-.325-.997-.02-.656.059-1.011.278-1.203.113-.094.144-.164.144-.297v-.175l-.18.078c-.468.199-.648.601-.656 1.437-.004.797.157 1.211.575 1.469.21.129.261.117.261-.082zm.676.027c.352-.246.5-.719.477-1.508-.016-.523-.032-.597-.164-.859-.145-.289-.391-.508-.56-.508-.136 0-.128.317.009.395.418.222.445 1.742.043 2.164-.098.101-.14.195-.14.308 0 .145.01.157.105.13a.924.924 0 0 0 .23-.122zm3.992-.02c0-.124-.039-.21-.16-.331-.21-.215-.293-.578-.258-1.211.024-.492.13-.801.328-.942.075-.05.094-.113.082-.246l-.015-.18-.215.11c-.402.207-.59.68-.594 1.457 0 .738.227 1.266.613 1.437.211.094.22.09.22-.093zm.574.094c.407-.21.606-.699.606-1.464-.004-.793-.227-1.282-.66-1.461l-.184-.078v.175c0 .133.04.203.145.301.222.184.304.543.28 1.18-.019.566-.144.945-.331 1.008-.067.02-.094.074-.094.218 0 .211.04.227.238.121zm4.141-.093c0-.125-.027-.188-.121-.246-.234-.157-.328-.477-.328-1.079 0-.648.066-.914.285-1.117.11-.101.164-.199.164-.28 0-.18-.05-.196-.281-.08-.418.208-.606.727-.57 1.571.027.762.183 1.106.59 1.32.214.114.261.094.261-.09zm.602.047c.511-.301.718-1.454.414-2.282-.114-.297-.414-.62-.582-.62-.153 0-.13.265.05.464.184.211.25.484.254.996 0 .535-.082.883-.257 1.074-.098.11-.141.204-.141.32 0 .09.016.165.031.165.02 0 .125-.055.23-.117zm4.066-.043c0-.121-.031-.192-.14-.266-.204-.156-.31-.516-.305-1.082 0-.582.074-.852.281-1.066.121-.122.164-.207.164-.329 0-.16 0-.16-.152-.117-.48.14-.754.813-.696 1.707.036.594.203.98.508 1.172.285.184.34.18.34-.02zm.688.007c.304-.218.468-.703.468-1.39 0-.77-.25-1.324-.672-1.469-.14-.055-.148-.055-.148.117 0 .125.043.211.145.317.199.199.261.464.261 1.043 0 .578-.07.863-.265 1.058-.098.102-.141.192-.141.313 0 .156.016.168.11.14.062-.023.167-.078.242-.129zm3.644-.015c0-.117-.039-.207-.14-.309-.188-.191-.266-.476-.266-1.035-.004-.547.082-.879.27-1.07a.401.401 0 0 0 .136-.313c0-.168-.004-.172-.133-.12-.402.152-.64.62-.672 1.335-.039.8.164 1.375.567 1.59.222.121.238.117.238-.078zm.629.07c.402-.207.602-.773.566-1.582-.027-.562-.14-.894-.394-1.137-.156-.156-.383-.27-.438-.218-.074.078-.015.285.133.43.219.21.3.519.293 1.093-.004.586-.074.856-.289 1.055-.113.113-.164.199-.164.308 0 .176.035.18.293.051zm3.797-.078c0-.129-.031-.2-.113-.27-.207-.16-.293-.488-.293-1.09 0-.609.066-.859.277-1.058.11-.105.133-.168.121-.305l-.016-.175-.21.109c-.426.215-.606.715-.575 1.598.028.726.188 1.078.594 1.293.2.105.215.097.215-.102zm.652.059c.38-.23.594-.883.54-1.637-.052-.672-.321-1.156-.7-1.266-.148-.043-.152-.043-.152.117 0 .122.043.207.164.329.207.21.27.457.27 1.035 0 .593-.071.87-.274 1.078-.113.113-.16.21-.16.312 0 .18.05.184.312.032zm3.824-.075c0-.113-.027-.207-.066-.23a.815.815 0 0 1-.18-.234c-.09-.157-.11-.274-.129-.735-.027-.629.055-1.004.254-1.191a.372.372 0 0 0 .121-.278c0-.191-.054-.203-.277-.066-.363.227-.57.867-.52 1.598.044.64.254 1.062.63 1.27.152.085.167.073.167-.134zm.707.07c.332-.214.504-.687.512-1.367.004-.894-.246-1.394-.773-1.554-.098-.031-.11-.02-.11.133 0 .125.032.191.121.25.215.144.325.441.348.953.031.664-.043 1-.281 1.23-.14.133-.188.219-.188.332 0 .145.012.153.133.125.086-.027.164-.058.238-.101zm2.086-.05c0-.117-.03-.188-.105-.23-.211-.13-.3-.41-.32-1.012-.024-.676.03-.93.261-1.16.2-.204.227-.446.051-.446-.187 0-.496.313-.617.621-.086.23-.106.375-.106.84-.003.617.043.848.239 1.153.12.19.406.402.531.406.043 0 .066-.067.066-.172zm.711-.012c.278-.207.41-.582.434-1.183.027-.883-.149-1.383-.574-1.598l-.211-.11-.016.176c-.012.137.012.2.125.305.207.2.274.45.274 1.059.003.601-.086.93-.29 1.09-.09.07-.117.14-.117.273 0 .164.008.176.11.148.058-.023.18-.09.265-.16zm2.028.024c0-.121-.032-.172-.133-.235-.184-.101-.29-.351-.344-.785-.05-.402.004-.988.117-1.203a.893.893 0 0 1 .223-.262c.113-.094.14-.148.129-.258-.012-.12-.031-.14-.133-.125-.168.02-.437.247-.562.47-.153.277-.227.745-.192 1.257.035.578.219.992.527 1.18.282.168.368.16.368-.04zm.672-.024c.27-.207.402-.578.425-1.21.028-.579-.047-.962-.234-1.274-.102-.164-.363-.352-.492-.352-.137 0-.098.258.062.426.196.211.266.492.266 1.082 0 .57-.082.879-.29 1.074-.112.106-.16.332-.093.403.047.043.168-.012.356-.149zm1.921.024c.008-.094-.03-.172-.152-.297-.207-.211-.285-.516-.285-1.094.004-.547.07-.797.277-1.027.332-.375.145-.606-.23-.293-.227.187-.348.422-.414.8-.157.852.05 1.68.496 1.954.234.136.289.132.308-.043zm.723-.02c.273-.215.406-.582.43-1.215.035-.844-.157-1.36-.57-1.57-.235-.117-.286-.102-.286.078 0 .082.055.18.164.281.223.207.293.473.29 1.117 0 .606-.102.922-.329 1.079-.097.058-.125.12-.125.25 0 .164.008.171.133.14.07-.023.203-.09.293-.16zM8.168 14.367v-1.512h-.145c-.117 0-.152.036-.23.211-.098.22-.203.293-.55.352-.161.023-.18.043-.18.172v.144h.722v2.141h.383zm4.32-.012l.012-1.5h-.164c-.137 0-.168.02-.195.137-.055.215-.211.344-.489.399-.242.054-.257.066-.257.199v.144h.671v1.04c0 .57.016 1.054.032 1.074.023.02.113.027.207.02l.172-.013zm4.344.012v-1.512h-.145c-.117 0-.156.032-.214.165-.075.19-.285.37-.43.37-.234.005-.316.06-.316.204v.14h.671v1.04c0 .57.012 1.054.032 1.074.015.015.117.027.218.027h.184zm4.668 0v-1.512h-.145c-.12 0-.152.036-.234.211-.094.22-.203.293-.547.352-.164.023-.18.043-.18.172v.144h.72v2.141h.386zm4.664 0v-1.512h-.137c-.117 0-.152.032-.199.165-.062.203-.172.308-.348.343-.07.016-.187.043-.253.055-.094.02-.118.055-.118.168v.148h.672v2.141h.383zm4.707-.012l.012-1.5h-.164c-.133 0-.168.02-.196.114a.53.53 0 0 1-.402.402c-.324.055-.344.07-.344.219v.144h.672v2.149l.203-.016.203-.012zm4.68.012v-1.512h-.145c-.117 0-.156.032-.215.165-.074.19-.289.37-.433.37-.23.005-.317.06-.317.204v.14h.676v1.04c0 .57.012 1.054.031 1.074.016.015.118.027.215.027h.188zm4.379 0v-1.512h-.172c-.133 0-.168.02-.168.094 0 .188-.227.387-.508.442-.242.054-.262.066-.262.199v.144h.676v1.04c0 .57.012 1.054.031 1.074.016.015.114.027.211.027h.192zm4.472 0v-1.512h-.14c-.117 0-.153.032-.196.165-.062.203-.171.308-.351.343-.07.016-.184.043-.25.055-.094.02-.121.055-.121.168v.148h.672v2.141h.386zm-29.304-2.949c0-.117-.032-.18-.098-.219-.05-.027-.145-.144-.203-.258-.098-.183-.11-.273-.11-.863s.012-.68.11-.863c.058-.113.152-.23.203-.258.066-.039.098-.102.098-.227 0-.164-.004-.171-.13-.14-.366.09-.605.484-.698 1.129-.098.738.105 1.488.48 1.75.254.176.348.164.348-.051zm.683.05c.61-.421.676-2.1.106-2.675-.13-.129-.301-.227-.407-.227-.027 0-.046.07-.046.153 0 .105.043.191.14.281.192.184.293.563.293 1.078 0 .52-.101.895-.293 1.078-.097.09-.14.18-.14.285 0 .184.097.196.347.028zm-3.426-.097c0-.121-.027-.184-.105-.223-.05-.03-.145-.16-.203-.28-.082-.196-.102-.321-.102-.813 0-.66.055-.88.266-1.082.101-.098.144-.184.144-.297 0-.176-.039-.192-.23-.09-.344.18-.527.52-.586 1.086-.09.773.11 1.5.469 1.746.25.176.347.164.347-.047zm.676.059c.52-.352.684-1.63.309-2.399-.13-.277-.3-.437-.52-.488-.12-.031-.129-.023-.129.137 0 .125.028.191.098.226.203.114.305.426.324 1.008.024.668-.058 1.031-.281 1.2-.11.077-.145.144-.145.265 0 .2.106.21.344.05zm6.828-.055c0-.125-.023-.176-.125-.215-.07-.035-.164-.152-.226-.289-.09-.2-.106-.316-.106-.844 0-.53.012-.636.11-.832a.835.835 0 0 1 .226-.289c.094-.047.121-.101.121-.226 0-.184-.066-.207-.277-.094a1.15 1.15 0 0 0-.469.531c-.203.5-.18 1.442.055 1.926.133.27.395.5.582.5.094 0 .11-.031.11-.164zm.633.055c.38-.258.59-1.024.488-1.758-.082-.61-.328-1.016-.675-1.125-.102-.031-.11-.02-.11.156 0 .129.028.203.075.223.035.015.117.12.175.238.086.168.114.309.13.75.023.637-.063 1.024-.259 1.18-.09.07-.12.144-.12.27 0 .21.066.222.296.066zm3.988-.051c0-.113-.043-.2-.14-.297-.188-.187-.27-.504-.27-1.074 0-.551.098-.89.293-1.043.082-.07.117-.14.117-.274 0-.191-.039-.207-.23-.105-.188.098-.328.266-.453.539-.098.219-.11.324-.11.902 0 .586.012.688.106.903.129.277.223.398.422.52.207.128.265.116.265-.071zm.59.105c.364-.187.563-.609.598-1.257.055-.907-.227-1.559-.719-1.684-.125-.031-.133-.023-.133.121 0 .11.043.195.164.309.211.203.286.476.286 1.054 0 .582-.075.848-.286 1.063-.113.113-.164.21-.164.308 0 .157.075.18.254.086zm1.766-.113c0-.117-.023-.184-.094-.219-.195-.109-.305-.425-.328-.984-.023-.617.063-1.008.285-1.215.145-.14.2-.433.078-.433-.078 0-.379.183-.46.285-.508.629-.399 2.218.175 2.613.25.176.348.164.348-.047zm.684.05c.558-.386.69-1.855.226-2.538-.105-.156-.402-.363-.52-.363-.113 0-.054.3.09.433.22.207.309.598.282 1.215-.024.559-.13.879-.325.984-.07.036-.097.102-.097.22 0 .206.094.222.344.046zm1.675-.023c0-.097-.05-.195-.164-.308-.21-.211-.281-.473-.281-1.07 0-.567.102-.922.305-1.075.11-.078.14-.144.14-.27 0-.155-.004-.163-.133-.132-.492.125-.773.781-.718 1.684.043.644.234 1.058.586 1.257.175.098.265.07.265-.086zm.61.051c.398-.25.566-.73.535-1.539-.027-.726-.2-1.125-.578-1.324-.196-.102-.23-.086-.23.105 0 .133.03.204.116.274.2.152.293.492.293 1.043 0 .574-.082.906-.27 1.082-.097.094-.14.18-.14.293 0 .183.055.195.274.066zm1.703-.058c0-.102-.051-.2-.145-.297-.175-.176-.242-.387-.277-.914-.031-.535.07-.985.277-1.2.098-.101.145-.199.145-.304 0-.188-.07-.2-.293-.047-.367.246-.527.684-.527 1.402 0 .625.117 1.028.37 1.274.29.277.45.308.45.086zm.625.078c.324-.172.52-.606.558-1.242.059-.903-.222-1.559-.714-1.684-.125-.031-.133-.023-.133.133 0 .125.031.191.144.273.196.149.297.52.297 1.102-.004.578-.07.828-.277 1.039-.113.113-.164.21-.164.308 0 .165.07.18.289.07zm4.043-.082a.563.563 0 0 0-.145-.317c-.195-.222-.261-.496-.261-1.043.003-.554.074-.843.265-1.035.098-.101.14-.187.14-.308 0-.192-.058-.207-.277-.067-.375.23-.57.813-.53 1.563.042.695.167 1.015.515 1.254.219.148.293.14.293-.047zm.61.086c.194-.102.331-.27.452-.54.098-.214.11-.324.114-.855 0-.832-.125-1.191-.5-1.45-.243-.163-.34-.148-.34.056 0 .12.031.183.12.25.227.144.329.468.333 1.046.004.637-.074.926-.293 1.118-.117.105-.16.187-.16.293 0 .171.07.191.273.082zm2.03-.102c0-.113-.027-.184-.09-.219-.265-.14-.413-.976-.292-1.636.046-.254.101-.368.222-.512.114-.125.16-.227.16-.332 0-.188-.066-.195-.289-.04-.363.243-.527.68-.527 1.4 0 .624.117 1.027.375 1.273.293.285.441.308.441.066zm.625.098c.317-.168.52-.598.567-1.2.062-.882-.235-1.605-.723-1.726-.117-.031-.129-.023-.129.117 0 .11.047.203.164.317.2.207.266.476.266 1.062 0 .57-.09.914-.285 1.082-.102.082-.145.164-.145.27 0 .171.07.191.285.078zm2.121-.078c0-.106-.039-.188-.144-.27-.195-.168-.29-.512-.29-1.082 0-.586.071-.855.274-1.062.114-.114.16-.207.16-.317 0-.14-.011-.148-.128-.117-.493.121-.793.848-.72 1.734.052.602.22.98.532 1.172.223.137.316.121.316-.058zm.645.058c.2-.136.398-.457.457-.738.082-.367.063-1.11-.023-1.418-.09-.305-.258-.547-.47-.68-.214-.133-.273-.12-.273.059 0 .101.051.207.16.332.13.144.176.258.227.512.121.66-.031 1.496-.293 1.636-.066.036-.094.106-.094.22 0 .198.09.218.309.077zm4.023-.058c0-.106-.042-.196-.14-.286-.215-.203-.309-.597-.285-1.195.027-.535.105-.789.3-.957a.337.337 0 0 0 .125-.273c0-.18-.039-.196-.238-.09-.215.113-.426.394-.504.672-.234.86-.054 1.851.399 2.156.242.168.343.16.343-.027zm.676.043c.375-.254.594-1.07.485-1.79-.094-.617-.344-1.011-.7-1.105-.117-.027-.125-.02-.125.14 0 .126.028.192.098.227.05.031.145.149.203.262.098.184.11.27.11.86 0 .593-.012.683-.11.863a.774.774 0 0 1-.203.261c-.07.036-.098.102-.098.22 0 .206.098.222.34.062zm3.895-.055a.372.372 0 0 0-.121-.277c-.203-.192-.285-.504-.285-1.051.003-.574.074-.864.265-1.059.102-.101.14-.187.14-.308 0-.192-.054-.207-.277-.067-.378.235-.574.844-.53 1.64.034.614.198.981.542 1.192.211.133.266.117.266-.07zm.617.094c.469-.246.7-1.086.543-1.98-.094-.516-.441-.973-.738-.973-.157 0-.11.277.078.453.215.207.289.48.289 1.054 0 .575-.074.848-.29 1.063-.109.113-.163.21-.163.308 0 .165.078.18.281.075zM17.984 9.98V8.47h-.136c-.118 0-.153.031-.211.191-.09.227-.239.336-.524.387-.195.031-.21.047-.21.18v.144l.347.016.352.011v2.094h.382zm4.668 0V8.47h-.12c-.09 0-.145.05-.216.195a.628.628 0 0 1-.53.379c-.184.023-.192.035-.192.187v.165h.676v2.097h.382zm11.727.012l-.012-1.5-.133-.015c-.113-.012-.144.011-.203.16-.105.25-.25.363-.511.402-.227.027-.235.031-.235.191v.165h.672v2.097h.438zm10.02-.012V8.47h-.141c-.113 0-.149.027-.192.172-.074.226-.254.355-.539.398-.23.027-.238.031-.222.18l.011.152.348.016.352.011v2.094h.382zm4.667 0V8.47h-.129c-.113 0-.148.039-.21.191-.098.227-.258.344-.52.383-.187.023-.2.035-.2.187v.165h.677v2.097h.386V9.98zm-29.93-2.953c0-.129-.03-.203-.12-.27-.22-.175-.278-.402-.282-1.038-.004-.657.075-.977.29-1.14.081-.071.113-.145.113-.274v-.172l-.18.074c-.246.106-.371.238-.492.516-.281.668-.176 1.812.203 2.23.098.106.34.242.434.25.02 0 .035-.082.035-.176zm.536.13c.121 0 .433-.372.531-.626.14-.37.152-1.215.027-1.629-.093-.32-.32-.609-.546-.707-.211-.086-.207-.09-.207.11 0 .133.035.203.144.297.219.191.305.546.277 1.21-.015.454-.039.57-.128.747-.067.113-.157.218-.207.23-.063.024-.086.082-.086.227 0 .16.015.191.074.168a.451.451 0 0 1 .12-.028zm1.922-.122c0-.117-.032-.18-.117-.238-.157-.106-.258-.352-.317-.754-.086-.633.09-1.418.336-1.492.074-.031.098-.078.098-.235 0-.156-.016-.191-.074-.164a.487.487 0 0 1-.122.028c-.085 0-.39.312-.476.484-.145.285-.211.746-.18 1.238.035.575.223.993.528 1.176.273.164.324.156.324-.043zm.683.016c.305-.223.473-.703.473-1.39 0-.778-.246-1.321-.672-1.473-.148-.047-.148-.047-.148.12 0 .13.039.208.14.305.188.184.266.477.266 1.051 0 .582-.074.871-.266 1.063-.101.101-.14.187-.14.308 0 .16.008.172.11.14.058-.015.163-.073.237-.124zm1.664-.028c.008-.113-.015-.164-.109-.234a.823.823 0 0 1-.234-.309c-.09-.195-.106-.316-.106-.816.004-.652.094-.96.332-1.121.125-.078.18-.324.09-.379-.102-.066-.45.168-.586.387-.2.316-.258.64-.234 1.265.027.747.187 1.094.593 1.309.188.098.235.078.254-.102zm.536.106c.207-.106.414-.375.515-.664.067-.2.09-.395.082-.82-.004-.653-.101-1-.367-1.258-.16-.16-.387-.274-.441-.219-.075.078-.012.285.14.453.227.258.278.496.258 1.164-.02.606-.11.887-.324 1.016-.074.047-.102.11-.102.23 0 .188.035.203.239.098zm11.117-.094c0-.12-.04-.207-.14-.308-.188-.192-.263-.48-.263-1.063 0-.574.075-.867.266-1.05.102-.098.137-.176.137-.305 0-.168 0-.168-.149-.122-.422.153-.668.696-.668 1.473.004.746.203 1.25.575 1.453.23.121.242.114.242-.078zm.656.047c.309-.187.496-.598.531-1.18.035-.492-.035-.953-.18-1.238-.081-.172-.39-.484-.476-.484a.425.425 0 0 1-.117-.028c-.063-.027-.074.008-.074.16 0 .157.02.204.113.247.457.21.457 1.933 0 2.238-.086.058-.113.121-.113.238 0 .2.043.207.316.047zm2.04-.043c0-.117-.04-.195-.145-.3-.192-.184-.29-.532-.29-1.028 0-.574.075-.871.27-1.094.184-.207.223-.437.074-.437-.16 0-.41.218-.547.472-.254.473-.28 1.395-.062 1.926.097.238.305.48.48.555.207.09.22.086.22-.094zm.546.094c.473-.196.73-.985.61-1.848a2.35 2.35 0 0 0-.16-.605c-.122-.25-.384-.485-.563-.508-.102-.012-.121.008-.137.117-.012.102.031.18.176.316.226.22.297.489.297 1.106 0 .539-.102.867-.313 1.039-.129.105-.168.172-.168.293 0 .176.031.187.258.09zm3.93-.125c0-.145-.02-.196-.098-.219-.2-.066-.309-.394-.328-1.004-.02-.672.035-.93.262-1.156.12-.125.164-.207.164-.336 0-.133-.016-.168-.078-.14a.42.42 0 0 1-.122.027c-.023 0-.125.082-.23.175-.3.274-.406.602-.41 1.29 0 .613.05.843.242 1.152.125.187.402.402.535.406.043 0 .063-.07.063-.191zm.714.012c.27-.207.407-.579.43-1.184.035-.879-.16-1.414-.582-1.61l-.203-.09-.016.169c-.011.14.012.195.11.27.203.163.289.487.289 1.09 0 .6-.086.929-.29 1.093-.085.066-.116.14-.116.27 0 .167.011.179.109.148.059-.016.18-.09.27-.156zM26.777 5.633l.012-1.5h-.156c-.137 0-.168.023-.219.172-.074.207-.238.324-.508.363-.18.023-.199.039-.215.184l-.015.156h.683V7.16l.407-.031zm2.32.012V4.133h-.144c-.121 0-.156.027-.219.195a.512.512 0 0 1-.468.34c-.203 0-.274.05-.274.203v.137h.723v2.148h.383zm2.36 0V4.133h-.164c-.145 0-.168.02-.195.14-.043.207-.22.348-.489.387-.222.031-.238.043-.25.192l-.015.156h.683v1.039c0 .57.012 1.058.032 1.074a.517.517 0 0 0 .214.035h.184zm2.313 0V4.133h-.145c-.117 0-.148.027-.195.172-.067.207-.23.324-.496.363-.184.023-.204.039-.22.184l-.01.156h.679v2.148h.387zm7.359 0V4.133h-.137c-.11 0-.148.035-.219.191-.097.227-.207.301-.484.344-.176.023-.195.039-.207.184l-.02.156h.684v2.148h.383zm0 0"/></svg>