<svg xmlns="http://www.w3.org/2000/svg" width="64" height="64"><path d="M30.746 62.974a31.729 31.729 0 0 1-6.258-.898C13.422 59.33 4.655 50.566 1.92 39.513a31.18 31.18 0 0 1 .018-15.1 31.02 31.02 0 0 1 3.944-9.119c2.695-4.222 6.51-7.83 10.9-10.305C25.186.249 35.345-.297 44.255 3.513c.998.427 2.787 1.347 3.74 1.924 1.491.903 2.868 1.9 4.238 3.068.699.596 2.413 2.287 3.028 2.988a31.005 31.005 0 0 1 7.584 17.329c.235 2.269.201 4.919-.09 7.111-.04.3-.072.561-.072.58 0 .02-.145-.076-.323-.213a12.376 12.376 0 0 0-.723-.505c-.947-.607-1.608-1.057-1.918-1.306-.55-.442-1.257-1.087-1.257-1.147 0-.032-.041-.07-.092-.086-.114-.037-.98-.992-1.59-1.755-.971-1.214-2.045-2.9-2.763-4.34l-.39-.78-.03-3.414-.03-3.414-.528-1.183-.528-1.183-.04.33-.041.33.404.91.404.91.044 9.2c.023 5.06.059 9.216.078 9.235.02.02.732.06 1.585.09.852.031 1.68.07 1.84.087.647.07 4.594.202 4.624.155.046-.072.197-.653.175-.675-.01-.01-.423-.083-.918-.162-.949-.151-1.394-.295-1.955-.633l-.249-.15-.003-.902-.003-.903-.292-.237a4.493 4.493 0 0 0-.328-.253c-.02-.009-.038.311-.04.711 0 .486-.016.701-.046.65-.041-.071-.07-.069-.319.03-.15.06-.353.122-.45.139l-.179.031v-2.543l-.331-.33-.332-.329V35.573l-.23-.258a3.16 3.16 0 0 0-.475-.425l-.244-.165v-1.447l-.002-1.446-.33-.392-.33-.392-.013 1.563-.012 1.564-.415-.318c-.228-.175-.426-.36-.44-.413-.014-.052-.02-1.159-.012-2.46l.013-2.366.19.35c.357.66 1.481 2.07 2.602 3.265 1.567 1.67 3.238 3.021 4.582 3.707.82.418 1.352.654 1.502.665l.141.011-.063.406c-.35 2.244-1.128 4.915-2.081 7.145-4.265 9.977-13.485 17.04-24.18 18.524-1.869.26-3.904.362-5.596.283zM20.15 46.999c.141-.041.404-.153.582-.249.313-.166.327-.17.38-.081.24.403.601.438 1.412.14.499-.185.821-.2 1.114-.051.127.064.27.16.318.213.087.097.087.097.372-.088.433-.28.765-.389 1.113-.367.25.015.324.043.518.194.37.288.675.234 1.129-.197.222-.212.23-.215.2-.085-.02.08-.01.162.023.201.118.142.8.025 1.308-.225.284-.14.872-.62.822-.67-.013-.014-.145-.003-.293.022a.866.866 0 0 0-.45.202c-.378.322-.699.402-.998.247-.082-.042-.163-.12-.18-.173-.044-.14-.158-.118-.517.1l-.322.193-.292-.05c-.16-.028-.384-.064-.496-.08-.113-.017-.216-.06-.23-.097-.038-.097-.068-.086-.4.137-.382.255-.725.366-1.127.365-.595-.002-.882-.07-1.275-.304-.2-.12-.414-.217-.475-.217-.068 0-.208.09-.357.23-.286.269-.407.34-.577.34-.162 0-.229-.164-.138-.342a.599.599 0 0 0 .065-.184c0-.101-.281-.004-.713.245-.89.514-1.263.586-1.618.312-.172-.133-.204-.183-.198-.311.007-.147.002-.152-.142-.123-.083.016-.43.115-.773.22-.67.203-.929.222-.958.068-.01-.054.028-.128.094-.18.112-.09.112-.09-.196-.06-.17.016-.543.059-.83.095-.287.035-.739.08-1.004.097-.385.027-.477.046-.456.1.088.23.643.264 1.352.081.57-.147.715-.133 1.059.104.325.223.517.223 1.1-.002.24-.093.52-.168.625-.168.165 0 .195.016.221.12.03.117.198.235.446.31.198.06.49.048.762-.032zm12.611-.351c.05-.027.156-.144.237-.261.17-.248.304-.275.473-.094.135.143.163.144.532.02.252-.085.383-.096.97-.083.374.009.68.009.68.001 0-.09-.166-.29-.26-.313a.388.388 0 0 1-.31-.384c0-.091-.012-.166-.027-.166a1.32 1.32 0 0 0-.229.165c-.262.215-.489.307-.789.32-.208.009-.254-.006-.33-.106l-.088-.117-.347.09c-.407.107-1.852.184-2.007.108a2.339 2.339 0 0 1-.34-.275c-.467-.439-.727-.472-1.106-.14-.145.127-.181.179-.114.162.13-.032.394.08.776.329.297.193.32.2.711.203.543.006.499-.007.754.231.358.335.597.426.814.31zm-23.335-.426c.097-.525.056-.522.564-.048.252.235.475.427.496.427.02 0 .2-.128.398-.285l.361-.284.203.165.202.166.704.05.703.05.09-.109c.153-.183.525-1.015.824-1.84.37-1.017 1.244-3.882 1.244-4.072 0-.03-.078-.041-.202-.028-.11.013-1.428.066-2.928.119-1.5.053-2.877.108-3.06.122l-.334.026.019.162c.049.42-.265 2.202-.747 4.237-.132.558-.228 1.028-.214 1.043.015.015.372.135.795.267.497.156.778.223.796.19.016-.028.055-.189.086-.358zm28.67.061c.27-.127.315-.132.994-.132.392 0 .886.018 1.099.04l.387.04.182-.273c.268-.402.313-.417.534-.177.284.306.548.368 1.568.369.568 0 .901-.02 1.056-.065.186-.054.275-.055.505-.007.298.064.516.026.763-.133.09-.058.264-.079.735-.087.892-.016 1.223-.07 1.644-.27.356-.17.372-.172.957-.172.345 0 .606.02.623.047.016.026.084.047.151.047.097 0 .11-.013.069-.063-.043-.051-.004-.075.196-.119a6.688 6.688 0 0 1 1.505-.143c.248.007.605.009.794.003l.344-.01V44.8h-.382c-.35 0-.417-.016-.774-.19-.471-.227-.525-.234-.422-.055.113.198.055.291-.187.302-.48.02-.6.035-.925.113-.27.065-.35.105-.38.188-.035.103-.043.101-.44-.122-.574-.324-.606-.33-.624-.108-.013.158-.032.182-.148.196a1.952 1.952 0 0 1-.456-.059c-.387-.088-1.142-.153-1.142-.098 0 .022.03.073.065.114.127.144.136.277.027.386-.086.086-.137.098-.311.074l-.41-.058c-.158-.023-.27-.001-.497.095a3.29 3.29 0 0 1-.32.123c-.015 0-.047-.053-.072-.118-.062-.165-.138-.15-.444.088-.232.18-.306.21-.578.238-.509.053-.83-.056-.685-.232.077-.092.044-.09-.448.026-.385.092-.426.093-.695.024a2.468 2.468 0 0 0-.376-.073c-.05 0-.156-.065-.237-.145-.175-.17-.258-.158-.555.082-.194.157-.217.163-.664.178-.254.009-.79.072-1.191.142-1.133.196-1.365.173-1.152-.115.128-.173.11-.175-.435-.036-.404.103-.42.104-.482.02-.07-.096-.15-.07-.427.138a.698.698 0 0 1-.278.123l-.136.016.203.162c.192.154.23.165.698.198.271.02.504.045.516.057.04.04.372-.056.658-.19zm-12.83-1.434c.035-.575.065-1.045.068-1.045l.503-.095a7.63 7.63 0 0 1 .571-.095c.08 0 .272.353.335.616.022.096.015.454-.016.84-.03.371-.041.689-.024.706.018.017.094.006.17-.026.138-.057.138-.06.197-.668.032-.335.045-.702.028-.814-.035-.232-.204-.62-.412-.945-.164-.256-.235-.659-.137-.777.045-.054.061-.265.06-.772-.004-.745-.086-1.274-.262-1.684-.089-.207-.11-.225-.221-.198-.184.046-.21.094-.131.245.155.301.229.712.255 1.433l.027.729-.297-.202a5.136 5.136 0 0 0-3.387-.862c-1.293.135-2.508.607-4.489 1.745l-.731.42.497.014c2.61.067 6.509.196 6.528.215.013.013.15.511.306 1.107.358 1.377.316 1.257.417 1.204.073-.04.091-.179.146-1.09zm29.642.784l-.108-.115.153-.08c.278-.143.6-.213 1.407-.306.943-.11 1.591-.225 1.7-.304.07-.052.056-.138-.166-.973-.208-.784-.296-1.027-.614-1.687-.326-.676-.372-.805-.377-1.051-.012-.517-.21-1.099-.479-1.405l-.154-.175h-.567c-.326 0-.555.018-.54.043.014.023.112.031.216.017.58-.078 1.055.473 1.167 1.354l.032.252-.185-.04a5.196 5.196 0 0 0-.73-.035c-.63.004-1.24.12-2.086.399-.594.195-1.742.678-1.823.766-.037.04-.027.047.04.023.946-.335 2.316-.381 3.528-.119.415.09 1.295.37 1.49.475.153.081 1.09 1.802 1.019 1.873-.04.04-.985.197-1.575.261-.366.04-1.13.06-2.146.057l-1.576-.005v.32h.278c.22 0 .315.026.455.121.112.076.395.173.754.258.762.182.748.179.88.185l.115.006-.108-.115zm-11.938-.356c.083-.032.125-.094.149-.222a.72.72 0 0 1 .52-.519c.13-.024.31 0 .646.091.817.219 1.122.271 1.248.214.095-.043.169-.217.457-1.068.19-.559.336-1.023.326-1.032a15.849 15.849 0 0 0-3.442-1.351c-.526-.135-1.454-.291-1.485-.25a3.66 3.66 0 0 0-.14.388c-.142.436-.657 1.465-.97 1.938l-.232.349-.384-.026c-1.765-.119-2.672-.142-3.453-.087-.45.031-.968.088-1.15.127-.183.038-.337.07-.344.07a.41.41 0 0 1-.012-.138c0-.136-.001-.137-.194-.093-.205.046-.479.174-.636.298-.073.058-.076.069-.013.047.044-.016.27.016.502.07.777.183 1.61.258 2.902.261 1.174.004 1.895-.058 2.415-.207.187-.054.167-.016-.274.52-.183.222-.314.41-.293.417.021.008.42-.039.885-.103.466-.065 1.056-.143 1.31-.175l.464-.056.437.29c.441.292.549.327.76.247zm16.548-1.427c.037-.277-.048-1.145-.157-1.603a3.787 3.787 0 0 1-.094-.715c0-.177-.014-.612-.03-.968l-.032-.648h-.158c-.13 0-.16.018-.16.098 0 .074-.02.091-.088.07-.112-.036-.106-.054-.27.796l-.136.704.292.278c.202.192.308.335.342.458.105.391.188 1.247.121 1.247-.013 0-.178-.043-.366-.095-.393-.11-.653-.123-.652-.036.002.164.064.273.159.275.056.002.336.074.623.161.287.087.534.16.55.164.017.002.041-.081.056-.186zm-12.556-1.842c.348-.16.616-.516.754-1.002.078-.27.313-1.311.313-1.382 0-.022-.073-.04-.163-.04-.187 0-.176-.024-.311.64-.152.746-.268 1.048-.495 1.285-.194.202-.359.27-.359.15 0-.203-1.116-.722-2.068-.964-.327-.083-.335-.089-.242-.164.097-.079.097-.08-.086-.513l-.184-.434-.358.003-.357.002-.23.26c-.18.2-.226.285-.209.377.018.093.006.114-.054.097-.098-.03-1.275-.192-2.068-.286-1.057-.126-1.568-.165-2.995-.224-3.637-.152-8.076.312-10.365 1.084l-.51.172v.187c0 .16.012.182.083.154a15.63 15.63 0 0 1 1.719-.517c3.615-.799 8.36-.981 12.376-.475 1.718.216 3.268.667 4.718 1.371.34.165.68.301.76.303a.94.94 0 0 0 .331-.084zm-3.308-1.539c-.254-.055-.457-.115-.45-.133.027-.072.57-.613.593-.59.048.049.382.834.351.828-.017-.002-.24-.05-.494-.105zm3.207.337c.04-.063.019-.214-.09-.64l-.14-.558h-.474l-.246.45c-.257.473-.296.617-.188.706.116.096.21.006.425-.412l.212-.409.05.188c.027.103.075.295.106.425s.078.265.105.298c.062.08.174.057.24-.048zm-41.438-.51c.835-.078 1.72-.143 1.968-.145.248-.003 1.87-.106 3.604-.23 2.851-.204 3.133-.232 2.94-.286-.372-.105-.422-.225-.208-.504.068-.09.113-.163.1-.163l-.965.07c-.519.04-1.967.146-3.219.238-1.252.09-3.193.232-4.315.314a83.998 83.998 0 0 0-2.056.163c-.009.008.087.165.214.348.154.224.261.334.325.334.052 0 .777-.062 1.612-.14zm22.264-.202c.143-.189.267-.36.276-.38.009-.019-.078-.035-.193-.035-.198 0-.217.013-.407.27-.252.345-.263.489-.035.489.068 0 .181-.108.36-.344zm1.49-.098c.037-.06.032-.114-.022-.21-.061-.11-.11-.133-.3-.145-.206-.014-.222-.007-.18.07.087.158.34.402.396.384a.265.265 0 0 0 .106-.1zm12.781-.008c.047-.056.04-.1-.032-.225-.076-.13-.121-.157-.29-.17-.109-.008-.198-.001-.198.015 0 .017.065.125.144.24.15.218.274.264.376.14zm-11.797-.155c.155-.18.148-.201-.072-.201-.226 0-.32.094-.217.219.075.09.204.081.29-.018zm1.126-.053c.068-.127.023-.149-.301-.147l-.289.002.19.116c.227.14.336.148.4.029zm9.795-.101l.19-.088-.32-.003c-.176-.002-.32.005-.32.016 0 .182.16.209.45.075zm-18.748-.122c.219-.042.695-.148 1.058-.237.745-.183.964-.195 1.556-.087.349.064.415.09.415.166 0 .108-.025.107.275.017l.245-.072-.115-.176a1.566 1.566 0 0 1-.171-.402c-.065-.262.04-.24-1.135-.227-.556.007-.874.037-1.304.122-.547.109-.718.116-4.35.187-2.08.041-3.813.087-3.853.102-.099.038-.14.224-.075.345.13.24.137.241 2.953.247 1.442.003 2.825.02 3.072.04.754.057 1.016.053 1.43-.025zm38.951-.33l.029-.142-1.035-.109c-1.705-.178-3.398-.34-3.412-.327-.053.054-.125.468-.087.505.041.041.807.093 2.535.173.352.016.917.044 1.256.062.34.018.632.02.651.006.02-.015.048-.09.063-.169zm-28.406-.118l6.97-.116c3.96-.068 4.865-.064 13.528.05l2.48.032-.102-.173c-.056-.094-.147-.18-.203-.192-.228-.044-12.167-.469-13.008-.462-1.017.007-13.32.272-14.762.318-.532.017-.95.05-.984.079-.103.086-.067.189.135.38l.195.186 1.382-.027c.76-.015 2.726-.049 4.369-.075zM4.583 36.272c.006-1.546-.006-2.805-.028-2.796l-.45.201-.412.185v.304c0 .167.023.935.051 1.707l.051 1.403-.462.463-.461.463.133.371c.217.604.124.549.894.53l.671-.018.013-2.813zm4.979-1.848c.006-2.355-.005-4.276-.026-4.267-.021.009-.256.187-.521.395l-.484.38v3.9l-.001 3.902.51-.014.51-.013.012-4.283zm2.418 4.232l.106-.022v-2.31c0-1.271.015-2.681.032-3.134l.031-.823.258-.28c.183-.197.363-.33.618-.456.344-.17.382-.178.837-.178.521 0 .755.073 1.058.329l.154.13v6.44h.996V27.73l-.107.026c-.06.015-.305.085-.548.155l-.44.129-.01.68c-.009.61-.019.685-.102.746-.146.107-.393.084-.526-.05-.11-.109-.117-.146-.117-.645 0-.526 0-.529-.107-.5l-.51.131-.402.104.016.628c.015.585.01.634-.083.726-.119.12-.365.132-.516.026-.098-.069-.105-.11-.105-.616 0-.403-.015-.543-.06-.542-.032 0-.39.091-.793.203l-.735.202-.013 4.803-.012 4.802.487-.03c.267-.016.534-.04.593-.052zm8.801-.383L22 38.24l-.103-.11c-.098-.103-.14-.11-.816-.122l-.712-.013-.054-.242c-.08-.356-.21-.55-.45-.67-.531-.27-1.003-.039-1.238.605l-.103.283h-.507c-.498 0-.508.002-.64.14l-.133.139.208.018c.377.034 2.094.035 3.33.004zm2.698-.236c.078-.023.083-.397.083-7.014 0-5.561.012-6.99.059-6.987.033 0 4.252.435 9.377.966l9.318.964.21-.133.21-.133-.163-.028c-.166-.03-19.445-2.255-19.532-2.255-.032 0-.048 2.42-.048 7.353v7.353l.201-.032c.111-.017.24-.042.285-.054zm28.937-.065c-.126-.132-.16-.142-.478-.142h-.341l-.03-.16a.545.545 0 0 0-.762-.395.592.592 0 0 0-.26.29l-.105.218h-.344c-.284 0-.36.016-.43.095-.048.052-.078.103-.067.113.01.01.596.039 1.3.063.704.025 1.364.048 1.467.053l.187.007-.137-.142zm-35.114-3.18V31.87l-.146-.184a6.84 6.84 0 0 0-.166-.204c-.01-.011-.02 1.46-.02 3.269v3.288l.166-.16.166-.161v-2.924zm31.487.332v-2.849l-.13.027c-.072.015-1.386.24-2.92.501-1.535.261-2.81.487-2.834.502-.026.015-.044.937-.044 2.223v2.196l.107.029c.059.015.379.029.711.029h.605v-3.275l.228-.228c.384-.384.961-.547 1.835-.518.429.014.562.037.751.13.379.184.41.275.41 1.19 0 .43.015 1.245.032 1.81l.03 1.03.337.016c.185.009.46.02.609.026l.273.01v-2.85zm-26.697-.262v-3.015l-.166.199-.166.198v5.298l.147.168c.08.092.156.167.166.167.01 0 .019-1.356.019-3.015zm30.679.965l-.002-2.003-.164.177-.165.177v3.34l.151.156c.084.086.159.156.166.156.008 0 .014-.901.014-2.003zm-3.034-.06v-1.59l-.165-.176-.164-.177v3.887l.164-.177.165-.177v-1.59zm2.276 1.072v-.28l-.24-.016c-.133-.01-.25-.008-.262.003-.01.01-.02.132-.02.27v.25l.202.018c.11.01.228.022.26.027.043.005.06-.075.06-.272zm-1.384-.14c.015-.269.015-.27-.311-.307l-.202-.023v.555l.202.017c.295.026.295.026.31-.241zM21.38 36.29c0-.455.036-.42-.486-.472l-.272-.028v.849l.154.019c.085.01.255.022.38.026l.224.008v-.402zm-2.75-.145c0-.282-.018-.41-.06-.423a4.045 4.045 0 0 0-.402-.048l-.344-.03v.853l.202.018c.11.01.292.022.403.027l.201.008v-.405zm33.383-.324v-.254l-.178-.03c-.342-.056-.343-.055-.343.223 0 .139.014.267.031.284.018.017.135.032.261.032h.23v-.255zm-1.375-.142v-.255l-.178-.029c-.342-.057-.344-.056-.344.222 0 .14.015.268.032.285.017.017.135.032.26.032h.23v-.255zm-29.314-.954c-.012-.221-.035-.416-.05-.432-.017-.016-.171-.04-.343-.054l-.313-.026.014.422.013.421.261.028c.144.016.301.032.35.036.082.007.087-.024.068-.395zm30.68.035l-.015-.273-.248-.014-.25-.014v.52l.178.02.264.026c.074.007.083-.026.07-.265zm-33.384-.207l.014-.408-.222-.03a3.64 3.64 0 0 0-.405-.03h-.183v.402c0 .451-.018.432.427.466.373.029.354.05.37-.4zm31.994.052v-.26l-.249-.025-.249-.025v.542l.178.02c.319.033.32.032.32-.252zm1.612-.662c.075-.078.127-.15.116-.161a86.787 86.787 0 0 0-2.779-.295 1.55 1.55 0 0 0 .157.185l.165.18 1.028.11 1.103.117c.04.003.135-.058.21-.136zm-49.173-.569c.933-.39 2.027-.894 2.452-1.129.397-.219 1.444-.946 2.408-1.673 2.747-2.07 4.923-4.358 6.615-6.955.504-.774.59-.848.827-.715.09.05.126.113.137.244.012.155-.045.266-.477.923a25.676 25.676 0 0 1-3.026 3.775c-.343.355-.61.646-.591.646.077 0 4.604-1.246 4.636-1.276.02-.018.03-1.784.024-3.925l-.012-3.891-2.656 1.15-2.655 1.15-.014.395c-.016.463.034.381-.887 1.443-1.515 1.747-3.612 3.602-5.572 4.93-1.15.78-1.432.98-1.782 1.263-.346.28-.659.603-.62.642.029.029.347-.134 1.383-.707C6.249 28 8.38 26.488 10.118 24.789c.392-.383.736-.687.765-.676.029.01.23-.243.445-.564.215-.32.416-.598.445-.617.181-.12.471.054.471.284 0 .167-.425.833-.988 1.545-.316.4-.355.472-.355.652 0 .23-.14.488-.773 1.441A15.505 15.505 0 0 1 7.76 29.66c-.874.819-2.18 1.8-3.185 2.394-.794.469-2.26 1.455-2.471 1.663-.076.074.124.001.948-.343zm18.195-.368a7.796 7.796 0 0 0-.027-.42 4.943 4.943 0 0 0-.303-.031l-.296-.026v.838l.13.02c.072.01.217.023.324.027l.193.007-.021-.415zm-2.618-.13c0-.457.039-.42-.51-.474l-.296-.029v.852l.178.019c.098.01.279.022.403.027l.225.008v-.403zm33.464.127l-.175-.178-.97-.112-.971-.111-.17.148c-.093.082-.163.15-.156.151.296.047 2.58.31 2.595.298.012-.01-.058-.097-.153-.196zm.488-1.346v-1.384l-.166.16-.166.162v2.074l.154.185c.085.102.16.186.166.187.007 0 .012-.622.012-1.384zm-8.618.958c.02 0 .035-.361.035-.803 0-.789.002-.804.12-.944.202-.24.506-.24.73-.001.091.098.099.16.099.832 0 .527.015.726.056.726.03 0 .447-.067.924-.15l.87-.15v-.644c0-.737.044-.954.226-1.097.17-.134.449-.102.622.07.12.12.124.144.139.815l.015.692.127-.026c.07-.015.292-.053.494-.085l.368-.058v-2.054c0-1.613-.013-2.054-.06-2.052-.032.001-.614.115-1.292.253-1.13.229-1.23.257-1.213.341.011.05.028.458.038.905l.018.815-.275.053c-.151.03-.339.065-.417.079a2.9 2.9 0 0 0-.229.049c-.082.023-.086-.023-.071-.895l.015-.92-1.209.242-1.209.242-.012 1.918c-.007 1.055-.004 1.942.008 1.97.014.038.168.028.534-.035.282-.048.53-.088.549-.088zm5.772-1.254v-.998l-.164-.19-.163-.19-.002 1.35-.002 1.348.166-.161.166-.16v-1zm1.49.66c-.093-.14-.21-.212-.348-.212-.077 0-.098-.03-.098-.142 0-.09-.05-.197-.14-.296l-.141-.155-.002.41-.001.409.32.046c.523.076.501.08.41-.06zm-29.522-.215c.101-.128.103-.14.023-.14-.049 0-1.027-.095-2.173-.213a123.204 123.204 0 0 0-2.192-.213c-.135 0-.133.038.009.199l.113.128 2.007.207c1.105.114 2.03.199 2.055.189a.697.697 0 0 0 .158-.157zm29.896-.71c-.037-.032-.648-.14-.795-.14-.062 0-.057.024.03.14a.453.453 0 0 0 .297.18c.184.036.194.047.209.226.01.125.057.233.142.322l.127.134.014-.414c.008-.228-.003-.429-.024-.447zm-29.935-.167c0-.091-.159-.306-.226-.306-.045 0-.925-.085-1.954-.188l-1.873-.188-.106.129a.732.732 0 0 0-.107.155c-.002.027 3.709.41 4.064.419.111.003.202-.006.202-.02zm.426-1.692v-1.719l-.164.19-.164.19-.001 1.25-.002 1.249.149.28c.082.153.156.278.166.278.009 0 .016-.773.016-1.718zm-4.933 1.082l.144-.21V27.51l-.166-.233-.166-.234v1.742c0 .959.01 1.743.022 1.743.012 0 .086-.095.166-.21zm34.926.02c.075-.077.127-.15.115-.16-.026-.027-2.425-.32-2.445-.3-.008.009.067.096.168.195l.183.179.848.108c.466.06.88.111.92.114.042.004.136-.058.21-.135zM21.06 29.12c.014-.464.012-.857-.005-.875-.036-.037-.91-.194-.937-.168a.642.642 0 0 0-.047.161l-.028.144.364.058.364.06-.034.73-.034.73h.331l.026-.84zm-2.157-.128c.007-.493-.004-.913-.024-.933-.04-.04-.915-.2-.942-.171a.642.642 0 0 0-.047.16l-.028.144.36.058.36.058V29.918l.154-.015.154-.014.013-.898zm33.302.358a.928.928 0 0 0-.184-.204c-.121-.102-.238-.126-1.115-.225l-.979-.11-.17.129c-.093.071-.158.14-.145.154.013.013.596.094 1.295.18l1.308.16c.02.003.016-.035-.01-.084zm.356-2.65c-.012-.011-.087.026-.167.082l-.145.104v2.051l.154.159.155.159.012-1.266c.007-.697.003-1.276-.009-1.288zm-2.825.889v-.931l-.164-.186-.164-.186-.002 1.278-.002 1.277.166-.16.166-.161v-.931zm-6.371.665c.257-.052.515-.105.574-.12.106-.024.107-.032.107-.854 0-1.087.066-1.254.494-1.254.119 0 .214.04.323.138l.155.138.015.812c.013.735.022.81.095.79.044-.013.424-.092.845-.175l.765-.15.018-.845c.016-.766.027-.858.116-.978.152-.205.319-.27.522-.203.302.1.35.247.35 1.077 0 .596.012.723.069.723.06 0 .58-.1.868-.167l.108-.025-.013-2.33-.012-2.332-.498-.125-.625-.157c-.105-.026-.144-.008-.222.102l-.096.134.44.969c.38.838.427.97.352.983-.047.008-.086.031-.086.05 0 .02-.347-.014-.77-.074a61.012 61.012 0 0 0-1.404-.18c-.348-.04-.652-.084-.676-.098-.023-.015-.292-.037-.597-.048-.37-.015-.579-.043-.628-.086a.615.615 0 0 0-.251-.091l-.177-.027.135.27.135.269-.212.552c-.2.52-.224.557-.395.635-.154.07-.19.114-.237.3-.053.212-.124 2.472-.078 2.472.013 0 .234-.043.49-.095zm7.842.002c-.064-.119-.236-.239-.343-.239-.056 0-.085-.037-.086-.107 0-.058-.064-.181-.141-.272l-.14-.166-.001.387-.001.387.296.045c.469.072.473.072.416-.035zm.417-.723l-.015-.25-.485-.075-.485-.074.111.145c.072.094.176.16.296.186l.243.058c.035.01.06.097.06.217 0 .154.03.232.13.337l.13.137.015-.216a4.573 4.573 0 0 0 0-.465zm-29.96-.014c.061-.065.102-.127.091-.138-.026-.025-4.506-.56-4.526-.54-.008.008.045.088.118.178l.133.163 1.82.222c2.216.27 2.218.27 2.364.115zm.237-1.112v-.33l-.154-.025c-.085-.014-1.125-.143-2.312-.287-1.186-.144-2.205-.27-2.264-.278-.102-.016-.107-.003-.107.322v.34l2.36.288c1.297.159 2.385.291 2.418.294.042.004.06-.089.06-.324zm30.272.14c.122-.092.162-.147.119-.16-.132-.042-2.611-.414-2.657-.399-.025.009.024.096.11.193l.157.178.996.16c.548.088 1.017.162 1.043.164.026.002.13-.06.232-.136zm.04-.914l-.2-.202-.96-.11c-.529-.06-.995-.117-1.035-.129-.074-.02-.314.248-.265.297.019.02 2.236.311 2.59.341.037.003-.021-.085-.13-.197zm-29.943-.686l-.013-.652-.13-.015c-.116-.013-.131 0-.131.122 0 .238-.095.314-.356.284-.184-.02-.26-.06-.392-.198-.205-.218-.295-.168-.295.163 0 .124-.034.305-.074.402-.097.231-.053.45.09.452.056 0 .15.013.209.029.1.027.107.014.107-.19 0-.24.007-.244.343-.189.174.029.178.034.178.237v.207h.477l-.013-.652zm30.311-.732v-1.29l-.166.161-.166.161v1.944l.152.157c.083.086.158.156.166.156.008 0 .014-.58.014-1.29zM20.36 25.333c.041-.042.109-.14.15-.219.068-.132.066-.163-.023-.41a6.313 6.313 0 0 1-.144-.45l-.047-.183.34.017c.3.015.343.006.358-.07.017-.092-.14-.29-.298-.375-.176-.095-1.096-.277-1.85-.366-.665-.079-.771-.081-.888-.021-.176.091-.26.23-.326.534-.074.344-.187.453-.433.413l-.19-.03.017.424c.01.233.03.438.048.456.032.031 1.134.18 1.154.155.006-.007.023-.081.039-.164.026-.138.017-.153-.1-.166-.101-.012-.129-.04-.129-.131 0-.095.031-.123.159-.15.306-.062.322-.232.032-.353-.19-.08-.203-.116-.077-.23.065-.058.153-.077.318-.066l.23.014-.015.622c-.017.717-.044.68.503.681.295.001.297 0 .297-.136 0-.096-.028-.144-.095-.161-.128-.034-.13-.223-.002-.223.051 0 .119-.047.15-.105.046-.087.042-.113-.028-.154-.22-.13-.274-.198-.242-.301.03-.094.066-.104.356-.104h.323l.035.637c.028.535.046.641.112.659.147.039.19.031.266-.044zm29.234-.23l.144-.21V23.104l-.166-.161-.166-.16v1.265c0 .696.01 1.266.022 1.266.011 0 .086-.095.166-.21zm-7.42-.167c.015-.024-.122-.342-.304-.705-.329-.658-.331-.66-.51-.683a.8.8 0 0 0-.196-.01c-.008.006.147.333.344.727.34.68.366.717.498.717.077 0 .152-.02.167-.046zm-1.383-.198c.057-.03.11-.058.116-.064a24.53 24.53 0 0 0-.586-1.25c-.023-.03-.399-.066-.399-.037 0 .069.69 1.405.726 1.405a.489.489 0 0 0 .143-.054zm2.33-.001c.066-.03.12-.068.119-.083-.001-.015-.102-.22-.225-.454-.207-.394-.237-.43-.404-.468-.1-.022-.191-.03-.205-.017-.035.035.496 1.077.55 1.077.024 0 .098-.025.165-.055zm8.182-.036c0-.081-.292-.288-.407-.288-.09 0-.115-.025-.115-.118 0-.065-.063-.188-.14-.273l-.141-.155-.002.385-.001.385.344.047.403.054c.032.003.059-.013.059-.037zm-11.596-.068c.083-.06.07-.1-.258-.723-.19-.362-.348-.662-.351-.665a2.26 2.26 0 0 0-.212-.04l-.206-.035.39.764c.4.786.448.838.637.699zm-1.282-.107c.041-.016.075-.059.075-.095 0-.037-.149-.363-.33-.725l-.33-.658-.192-.018a.861.861 0 0 0-.191-.008c0 .017.657 1.357.711 1.45.05.086.13.103.257.054zm13.21-.419c0-.22-.017-.41-.039-.424-.05-.03-.925-.172-.945-.152-.008.008.046.08.12.16a.55.55 0 0 0 .357.178l.222.033v.193c0 .183.137.413.246.413.021 0 .039-.18.039-.4zm-14.317.256c.087-.046.072-.089-.265-.754l-.357-.705-.192-.033a.656.656 0 0 0-.208-.016c-.041.042.795 1.558.86 1.558a.43.43 0 0 0 .162-.05zm-1.346-.154c.104-.057.101-.065-.273-.776l-.377-.719-.192-.032a.65.65 0 0 0-.208-.016c-.031.036.84 1.604.891 1.603.03-.001.102-.028.16-.06zm-1.203-.135c.057-.03.108-.058.115-.063.006-.005-.167-.338-.385-.74l-.398-.731-.195-.027c-.108-.015-.196-.017-.196-.004 0 .07.87 1.62.909 1.62a.477.477 0 0 0 .15-.055zm12.184-.68c-.315-.633-.32-.64-.51-.68a.915.915 0 0 0-.205-.029c-.027.02.618 1.276.673 1.312.029.02.122.035.207.036h.154l-.319-.639zm-25.026.355c.1-.221.131-.232.205-.071.066.145.119.149.243.015.129-.138.123-.302-.015-.44-.143-.142-.4-.215-.769-.215-.306 0-.444.084-.513.313-.028.09-.008.103.193.126.24.027.335.11.38.331.04.195.174.166.276-.06zm11.583.15c.077-.049-.601-1.495-.723-1.541-.122-.048-.31-.037-.31.017 0 .026.171.389.38.806.322.642.396.757.486.757a.38.38 0 0 0 .167-.04zm12.333-.66c-.188-.358-.365-.668-.393-.688-.071-.05-.337-.021-.326.036.028.145.658 1.256.722 1.273.041.011.134.023.207.026l.133.005-.343-.652zm-13.527.54c.014-.037-.146-.41-.356-.828-.37-.739-.387-.763-.55-.794-.094-.017-.18-.021-.192-.009-.013.013.153.387.37.832.385.796.413.833.642.857.033.004.072-.023.086-.059zm-15.078-.255c.07-.124.19-.293.267-.375.162-.173.157-.277-.02-.41-.16-.118-.782-.145-.91-.04-.11.093-.097.23.034.353.062.057.18.238.262.4.082.164.17.297.194.297.025 0 .102-.101.173-.225zm27.427-.427c-.187-.359-.365-.676-.396-.706a.603.603 0 0 0-.239-.086l-.183-.032.342.655c.188.36.363.68.389.712.025.03.114.065.196.075.083.01.169.022.19.026.022.005-.113-.285-.3-.644zm-13.502.575c.04-.04-.76-1.63-.832-1.651a2.534 2.534 0 0 0-.212-.045l-.154-.026.425.848c.27.539.455.857.51.87.131.035.231.036.263.004zm12.257-.765c-.182-.358-.374-.689-.426-.734-.082-.072-.369-.12-.369-.063 0 .012.161.33.358.708.366.703.379.716.668.735.09.006.067-.06-.23-.646zm-13.504.57c0-.02-.187-.399-.415-.842l-.414-.806-.178-.015c-.098-.008-.178-.003-.178.012 0 .014.187.4.415.856l.414.83h.178c.099 0 .178-.016.178-.036zm12.325-.8c-.187-.363-.374-.685-.414-.718-.07-.057-.34-.085-.34-.035 0 .014.16.343.355.732l.354.708.18.015c.098.008.184.001.192-.015.008-.017-.14-.326-.327-.688zm-13.557.67c0-.014-.186-.396-.413-.852l-.413-.827-.183-.031a.6.6 0 0 0-.2-.014c-.009.009.18.406.418.881l.435.865h.178c.098 0 .178-.01.178-.023zm-1.662-.98c-.24-.478-.438-.872-.442-.875a2.845 2.845 0 0 0-.208-.037l-.202-.03.45.898.45.899.178.014c.099.008.186.012.194.008.008-.003-.181-.398-.42-.877zm14.323.836c0-.049-.71-1.438-.746-1.46a1.115 1.115 0 0 0-.218-.058l-.18-.034.38.761c.39.778.398.787.68.809.047.003.084-.005.084-.018zm-15.08-.095c0-.06-.87-1.757-.918-1.788-.07-.046-.374-.047-.353 0l.453.897c.42.83.443.863.592.881.086.01.172.023.191.027.02.004.036-.003.036-.017zm13.847-.095c0-.024-.71-1.455-.736-1.485a.982.982 0 0 0-.212-.042l-.197-.026.38.76c.21.419.41.772.443.786.081.032.322.038.322.007zm12.018-.114l.133-.14-.16-.027c-.62-.107-2.618-.405-2.631-.392-.01.01.068.1.172.2l.188.184.937.152c1.195.195 1.196.195 1.36.023zm-27.548-.863c-.44-.865-.453-.885-.62-.916-.095-.018-.182-.022-.194-.01-.011.011.182.427.43.924l.453.903.179.015c.098.008.184.004.19-.009.007-.013-.19-.421-.438-.907zm13.94.054c-.34-.673-.424-.807-.511-.807a1.04 1.04 0 0 1-.216-.03c-.101-.028-.069.054.308.78.448.864.4.81.766.855.033.004-.123-.355-.347-.798zm-1.223-.188l-.387-.804-.182-.03c-.1-.017-.189-.023-.199-.013-.01.01.155.374.366.809.393.81.4.817.686.835.093.006.067-.068-.284-.797zM21 22.418c0-.266-.05-.396-.174-.444a31.789 31.789 0 0 0-1.436-.24c-.744-.115-1.637-.255-1.983-.31-.758-.124-.77-.12-.77.306v.293l2.099.313c1.154.171 2.135.314 2.181.317.069.005.083-.036.083-.235zm1.137.011c.066-.049.127-.126.136-.17.023-.119-.17-.304-.383-.368-.16-.048-.198-.043-.31.041a.336.336 0 0 0-.144.264c-.029.335.381.472.701.233zm13.99-.62c-.21-.414-.418-.796-.463-.848a.5.5 0 0 0-.262-.12l-.18-.026.412.791c.226.436.431.817.456.848.024.031.112.065.194.076.083.01.168.022.188.026.02.004-.135-.332-.344-.747zm-1.045.482c-.001-.02-.199-.397-.439-.84-.43-.79-.44-.805-.622-.842-.101-.021-.192-.03-.202-.02-.023.022.785 1.547.876 1.655.07.08.39.12.387.047zM47.1 22.19c.078-.087.064-.094-.467-.223l-.548-.134v-2.21l.285-.568c.156-.313.295-.569.308-.569.012 0 .161.277.331.616l.309.616v1.598l.697.099c.384.054.715.088.735.076.02-.013.038-.372.038-.798v-.775l.17-.438.169-.44-.077-.845c-.041-.466-.093-.893-.114-.949-.03-.083-.085.017-.294.534l-.257.635-.024-2.062c-.028-2.42-.031-2.442-.384-2.442h-.208L46.6 16.52l-1.172 2.607-.003.777-.003.776-.25-.031c-.583-.074-.556-.059-.556-.317 0-.176-.1-.492-.415-1.32-.228-.6-.428-1.075-.444-1.056-.017.018-.225.539-.463 1.156l-.433 1.122V21.244l-.13-.027c-.072-.015-4.415-.828-9.652-1.807l-9.521-1.78-.283.218c-.155.12-.282.232-.282.25 0 .019 4.72.841 10.491 1.828 10.165 1.738 12.428 2.132 13.076 2.276.416.092.447.09.54-.012zm5.474-.02c.029-.035.058-.19.065-.345l.013-.28-.64-.03a14.52 14.52 0 0 1-1.399-.153c-.834-.137-1.265-.159-1.34-.067-.058.072-.036.457.03.523.048.048 2.604.395 3 .407.131.004.24-.018.271-.056zm-18.944-.495c-.66-1.23-.651-1.217-.838-1.265-.096-.024-.186-.031-.202-.015-.015.015.18.413.435.883.394.725.483.857.586.873.308.048.308.062.019-.476zm-1.397-.546c-.237-.475-.44-.873-.448-.883-.024-.025-.4-.091-.4-.07 0 .088.892 1.773.947 1.788.04.01.131.022.203.025l.13.006-.432-.866zm-1.278-.232a82.933 82.933 0 0 0-.44-.876 2.322 2.322 0 0 0-.21-.04l-.203-.034.42.847c.232.466.43.876.442.911.023.068.387.151.412.095.007-.019-.182-.425-.42-.903zm-1.217-.158l-.462-.924-.19-.04a.935.935 0 0 0-.205-.03c-.008.006.194.428.449.938.486.973.463.945.786.973.064.005-.021-.202-.378-.917zm-1.302-.202a67.275 67.275 0 0 0-.495-.955c-.017-.02-.302.092-.302.12 0 .01.191.4.425.867.43.859.453.887.724.899.129.005.126-.002-.352-.931zm-7.673-.958V17.73l-.178-.045a62.473 62.473 0 0 0-1.079-.242 55.92 55.92 0 0 1-.984-.22c-.078-.023-.083.09-.083 1.897v1.921l.155.028c.493.09 2.016.347 2.086.35.078.006.083-.112.083-1.841zm1.411.272l-.012-1.527-.343-.078c-.188-.043-.354-.067-.367-.053-.014.014-.025.713-.025 1.553v1.53l.296.045c.163.025.334.048.38.051.079.006.083-.087.071-1.52zm5.465 1.404c0-.037-.9-1.778-.959-1.853-.031-.04-.081-.042-.182-.007-.077.027-.14.058-.14.068 0 .059.874 1.755.919 1.784.065.042.362.048.362.008zm-15.12-.876c.075-.04.092-.092.082-.25-.015-.244.024-.315.173-.315.121 0 .212.12.212.278 0 .089.022.085.368-.065l.367-.16.024-.465c.023-.45.028-.466.14-.482.17-.024.24.107.24.456 0 .344-.025.338.458.124l.26-.115-.013-.484c-.013-.479-.011-.486.11-.554.1-.056.148-.058.247-.014.117.054.123.074.123.437 0 .209.02.38.043.38.023 0 .188-.062.367-.138l.325-.139.012-1.426c.01-.999-.002-1.426-.038-1.426-.03 0-.039.04-.021.097.028.087-.223.222-2.629 1.409l-2.659 1.312v2.34l.858-.375c.471-.206.9-.397.951-.425zm39.753.703c.014-.059.042-.192.062-.296.03-.153.071-.208.213-.285.097-.052.176-.118.176-.146 0-.093-.207-.142-.526-.124l-.314.017-.032.425c-.018.233-.02.445-.004.47.016.025.112.046.215.046.153 0 .19-.019.21-.107zm-26.326-.877c-.25-.515-.475-.963-.5-.996-.054-.067-.219-.077-.313-.017-.049.031.042.247.403.96.49.964.48.95.807.984.03.003-.148-.416-.397-.931zm25.049.567c.03-.134.112-.373.183-.53.07-.157.115-.307.1-.333-.017-.026-.2-.048-.407-.048-.44 0-.417-.052-.298.664.068.408.09.472.178.489.166.032.186.012.244-.242zm-25.838.12a86.883 86.883 0 0 0-.515-1.007c-.406-.789-.507-.95-.6-.964-.256-.036-.233.058.253 1.034.484.97.486.973.776.99.074.004.103-.014.086-.053zm-1.713-1.111c-.28-.543-.522-1-.54-1.017a.466.466 0 0 0-.138-.062c-.097-.03-.106-.017-.106.14 0 .124.123.412.444 1.034l.443.862.185.026c.101.013.192.02.202.014.01-.006-.211-.455-.49-.997zm26.319.334c.202-.247.204-.325.009-.445-.366-.226-.543-.019-.518.606l.015.39.15.04.151.039.015-.216c.011-.161.055-.264.178-.414zm-32.093-1.26l-.013-1.528-.354-.082a3.055 3.055 0 0 0-.362-.072c-.005.005-.016.703-.026 1.55l-.017 1.54.309.054c.17.03.345.057.391.06.079.005.083-.087.072-1.522zm34.843.686c-.154-.42-.284-.723-.31-.723-.016 0-.08.155-.14.344-.061.189-.121.37-.133.403-.017.044.06.06.296.06.283 0 .315-.01.287-.084zm-.737-.995c.27-.768.352-1.068.377-1.363.018-.21.026-.388.02-.397-.036-.046-.16.047-.16.118 0 .07-.697 1.366-.82 1.523-.034.043-.096-.01-.235-.206l-.19-.265-.207.203c-.113.112-.217.192-.23.179a80.114 80.114 0 0 1-.83-1.657L48.7 15.05l-.003.389-.002.389.847 1.697c.705 1.413.843 1.723.824 1.851l-.022.154h1.088l.346-.983zm-40.117-1.33v-.606l.26-.128c.25-.123.261-.124.261-.033 0 .055.049.118.113.147.121.055.17.226.171.596v.2l.179-.073c.097-.04.748-.352 1.446-.694l1.268-.62v-3.801l.445-1.328.445-1.327.095.214.602 1.373c.279.637.532 1.208.563 1.267l.057.107.133-.106.133-.106-.53-1.208-.62-1.415c-.085-.194-.086-.205-.007-.173.253.104.236.182.268-1.193.016-.7.037-1.374.046-1.497.016-.222.013-.227-.235-.415-.142-.107-.264-.169-.28-.142-.017.026-.496 1.29-1.066 2.809l-1.035 2.761-.238.014c-.17.01-.247.037-.27.095-.018.044-.148.408-.289.807l-.256.727v2.07l-.154.13-.154.13-.025-.327c-.017-.216-.202-.937-.544-2.117-.286-.984-.53-1.79-.544-1.789-.014 0-.287.86-.608 1.908l-.583 1.908.002 1.458.002 1.459.474-.238.474-.238v-.606zm11.605.237l.154-.116V13.66l-.738-1.581c-.407-.87-.759-1.602-.783-1.626-.026-.028-.043.035-.043.162 0 .155.145.573.569 1.635l.569 1.427v1.98c0 1.572.012 1.974.059 1.947.033-.02.129-.087.213-.151zm-1.133-.272c.166-.14.225-.303.267-.737.029-.295-.039-1.316-.115-1.727l-.035-.19-.062.13-.063.131-.085-.14a.822.822 0 0 0-.208-.22c-.104-.068-.151-.072-.306-.025-.354.106-.37.14-.43.924l-.056.704.16.164c.153.16.155.167.066.232-.204.15-.409.07-.768-.3-.186-.19-.301-.235-.46-.174-.06.024-.061.044-.004.154.086.165.086.487 0 .604-.066.089-.033.101.888.337.527.134.982.246 1.013.249.03.002.12-.05.198-.116zm-3.623-.992a.475.475 0 0 1 .17-.329l.14-.117.04-.916c.022-.504.038-.92.036-.923a4.95 4.95 0 0 0-.375.162l-.372.17.014.618.014.617-.15.038a.524.524 0 0 0-.24.155l-.091.116-.078-.176c-.043-.096-.1-.386-.125-.643a3.86 3.86 0 0 0-.071-.505.448.448 0 0 0-.166-.087l-.142-.05v.353c0 .194-.008.353-.018.353-.01 0-.122-.046-.249-.102a2.39 2.39 0 0 0-.372-.132c-.156-.033-.202-.135-.21-.465-.004-.179-.017-.201-.117-.201-.106 0-.116.025-.166.418-.073.57-.068.982.015 1.142.066.126.134.15 1.198.42.62.158 1.163.288 1.206.29.056.004.086-.052.109-.206zm.202-2.975l.464-.625.072-.423.07-.423.727 1.002.726 1.002.135-.096c.09-.064.127-.125.111-.184-.012-.049.094-.513.237-1.031.24-.87.263-.993.287-1.595.014-.358.019-.652.01-.652-.008 0-.31.494-.67 1.097l-.657 1.096-.097-.116c-.053-.064-.206-.27-.338-.457l-.242-.341-.909.652c-.893.642-.91.658-.98.89-.04.13-.085.313-.1.406l-.027.169.301.123a2.7 2.7 0 0 0 .358.128c.032.002.266-.277.522-.622zm3.423.408c.024-.021-.33-1.31-.372-1.36-.018-.019-.103.269-.19.641-.086.372-.167.705-.18.74-.02.052.044.058.35.03.205-.019.382-.042.392-.05zm-5.239-.165c.182-.216.163-.382-.062-.538-.18-.125-.187-.14-.28-.635a4.368 4.368 0 0 0-.203-.743l-.106-.237-.18.569c-.158.499-.18.632-.188 1.082-.004.283.011.532.034.555.022.022.169.048.325.058l.411.026c.09.006.162-.034.25-.137zm1.783-1.783c0-.055-1.332-3.874-1.36-3.9-.015-.014-.016.22-.002.519.028.586-.023.413 1.016 3.402l.07.201.138-.098c.076-.054.138-.11.138-.124z"/></svg>