<svg xmlns="http://www.w3.org/2000/svg" width="64pt" height="64pt" viewBox="0 0 64 64"><path d="M31.055 64.39c-.434-.027-.867-.054-1.297-.085-6.89-.512-13.375-3.215-18.668-7.782-.735-.632-2.332-2.222-3.02-3C1.586 46.168-1.176 36.43.46 26.734 2.43 15.098 10.817 5.352 22.056 1.633A32.291 32.291 0 0 1 39.94.945 31.99 31.99 0 0 1 54.97 9.434a32.091 32.091 0 0 1 8.847 16.636c.399 2.047.57 3.89.57 6.133 0 1.695-.062 2.672-.269 4.258a32.183 32.183 0 0 1-3.887 11.598c-5.257 9.246-14.652 15.296-25.167 16.214-1.02.086-3.266.157-4.008.118zm-4.02-5.308a612.3 612.3 0 0 1 1.125-1.012c.125-.11.137-.105 1.383.98.687.606 1.262 1.087 1.277 1.071.016-.016-.18-.715-.433-1.559l-.465-1.527.203-.187c.113-.102.598-.504 1.07-.891l.871-.71h-2.718l-.532-1.24c-.296-.683-.554-1.237-.57-1.237-.016 0-.238.55-.492 1.222l-.457 1.227-1.504.027-1.504.031 1.16.809c.64.445 1.164.844 1.164.875 0 .039-.207.781-.453 1.652-.246.871-.453 1.602-.453 1.625 0 .024.074-.023.164-.105zm12.594-3.004c.336-1.047.18-.973 1.45-.715l.847.172-.715-.68-.719-.68.278-.745c.156-.403.273-.75.265-.758-.012-.012-.328.156-.703.371l-.68.387-.605-.457c-.332-.25-.617-.442-.637-.422-.023.02.02.367.082.765l.125.73-.129.079c-.07.047-.41.242-.754.441-.722.418-.734.403.332.473.34.023.637.055.672.078.032.024.16.465.293.988.13.524.25.93.274.907.023-.024.172-.442.324-.934zm-25.254-2.613c.023-.5.05-.914.066-.926.008-.008.368-.14.793-.293.426-.148.801-.297.825-.32.027-.024-.317-.176-.762-.332l-.809-.293-.039-.36a9.266 9.266 0 0 1-.043-.73c-.011-.738-.02-.738-.625-.035-.297.347-.547.64-.554.656-.016.016-.805-.273-1.739-.637-.066-.023.09.262.418.75l.524.79-.645.886c-.351.484-.633.895-.617.91.016.02.469-.148 1-.367.535-.215.988-.394 1.02-.394.027 0 .277.425.558.945.426.785.516.918.547.8.02-.081.059-.55.082-1.05zm40.098-8.45c.355-.324.675-.585.71-.574.032.012.43.344.88.739.449.394.828.707.84.695.007-.012-.126-.496-.305-1.07l-.32-1.051.132-.11c.074-.062.395-.324.719-.581.32-.262.59-.493.59-.516 0-.024-.414-.043-.926-.043h-.926l-.347-.82c-.192-.454-.368-.801-.387-.782-.02.02-.18.395-.344.832l-.305.797-1.007.032-1.008.027.781.543c.434.297.79.55.79.562 0 .012-.138.496-.302 1.07-.168.579-.304 1.087-.304 1.126 0 .039.09-.004.195-.106zm-24.434.301l.633-.574.66.578c.36.317.656.563.656.555 0-.012-.105-.375-.238-.805-.14-.465-.215-.812-.184-.847.176-.157.352-.309.54-.453l.488-.395-.7-.027-.703-.035-.246-.586c-.136-.32-.27-.59-.289-.59-.023 0-.14.273-.265.605l-.23.602-1.524.031.586.414c.328.227.59.43.59.453 0 .02-.106.399-.235.84-.125.441-.219.8-.203.8.016 0 .316-.253.664-.566zm13.906-2.757c.254-1.098.473-1.926.524-1.97.05-.038.55-.085 1.25-.112a33.71 33.71 0 0 0 1.543-.082l.383-.04-1.458-.835c-1.316-.762-1.453-.852-1.453-1 0-.083.082-.836.176-1.668.098-.832.172-1.516.16-1.524-.015-.012-.394.285-.86.66l-1.288 1.055-.457.371-1.598-.832c-.879-.465-1.605-.828-1.617-.816-.008.007.324.699.738 1.53l.754 1.509L39.2 40.3c-.847.824-1.52 1.511-1.492 1.52.027.007.973-.184 2.098-.426l2.047-.446.222.489c.121.269.473 1.082.79 1.804.312.719.585 1.29.605 1.266.02-.024.234-.903.476-1.95zM14.88 39.035l.191-.176.317.282c.168.156.32.273.332.265.008-.011-.04-.195-.102-.406l-.12-.39.194-.153.29-.227c.074-.062.027-.074-.27-.078h-.367l-.149-.351-.152-.344-.121.332-.117.336-.387.027-.379.032.277.191c.309.219.309.23.188.645-.145.484-.137.484.375.015zm11.305-3.43l-.024-1.273.953-.426c.524-.234.95-.441.95-.46 0-.024-.45-.157-.993-.301l-.996-.266-.031-.188c-.04-.246-.273-1.8-.273-1.832 0-.093-.68.782-1.215 1.57-.032.04-1.77-.378-2.223-.53-.105-.04-.11-.047.703.917.34.403.621.766.621.797 0 .035-.3.559-.664 1.16-.363.61-.652 1.118-.637 1.13.012.011.551-.247 1.192-.583l1.168-.605.723 1.082c.398.594.734 1.086.746 1.086.011 0 .011-.574 0-1.278zM5.59 33.621c.02 0 .265.207.547.457.285.25.582.508.672.57l.16.118-.512-1.68.578-.473.582-.472-.742-.028-.742-.031-.262-.59a5.607 5.607 0 0 0-.293-.62c-.02-.02-.09.112-.16.3l-.25.668-.129.332h-.41c-.223 0-.617.02-.871.039l-.461.039.652.36c.356.195.668.378.7.41.042.035-.13.722-.426 1.714-.02.067.273-.164.648-.5.375-.336.695-.613.719-.613zm48.082-2.93c.113-.128.14-.12.48.188.168.152.309.25.309.219 0-.028-.043-.188-.09-.352-.125-.418-.117-.457.149-.656.136-.098.246-.195.246-.227 0-.027-.16-.047-.352-.047h-.348l-.129-.316-.124-.316-.157.343-.152.34-.348.02-.34.02.274.198.273.196-.113.402c-.043.145-.082.29-.117.43 0 .035.453-.34.539-.442zM33.96 23.316c.23-.449.465-.89.715-1.328.05-.074.285 0 1.39.426.73.281 1.348.508 1.371.496.028-.008-.324-.5-.773-1.098a26.326 26.326 0 0 1-.844-1.152c-.015-.035.242-.523.575-1.086.335-.558.597-1.023.59-1.031-.012-.016-.516.16-1.126.379l-1.105.406-.219-.238c-.793-.887-1.39-1.461-1.422-1.375-.02.047-.035.578-.035 1.172v1.086l-.164.062c-.848.317-2.191.86-2.172.88.016.015.535.163 1.156.323.387.094.77.2 1.145.313.008.012.05.496.086 1.078.09 1.285.14 1.93.164 1.93.008 0 .305-.559.668-1.243zm-19.55-.75c.25-1.062.468-1.96.487-1.992.02-.035.668-.09 1.48-.125.798-.039 1.509-.086 1.575-.105.106-.032-.148-.203-1.289-.856-.781-.453-1.434-.851-1.445-.886-.016-.04.058-.797.16-1.684.105-.89.18-1.621.168-1.633-.008-.008-.547.418-1.195.95-.649.535-1.23 1.003-1.301 1.046-.114.082-.254.02-1.692-.726-.859-.446-1.586-.813-1.609-.813-.031 0 .293.684.71 1.52l.767 1.523-.418.399c-1.625 1.558-2.692 2.605-2.672 2.62.011.012.957-.183 2.097-.429 1.692-.371 2.086-.438 2.13-.371.027.047.382.851.792 1.789.406.937.754 1.707.774 1.707.015 0 .234-.871.476-1.934zm33.323-.562l-.14-.774.61-.335.839-.47.23-.14-.23-.035a5.198 5.198 0 0 0-.656-.035 9.266 9.266 0 0 1-.73-.043l-.313-.035-.04-.762c-.062-1.242-.042-1.23-.488-.395-.21.395-.41.762-.441.813-.055.094-.223.09-1.305-.035l-.3-.035.527.53c.289.294.527.556.527.587 0 .023-.113.332-.25.68-.136.343-.234.644-.219.66.024.023.325-.094.68-.254l.64-.29.583.587c.324.32.59.57.597.562.012-.012-.042-.363-.12-.781zm10.715-.371c.04-.051.23-.23.422-.399l.344-.293.566.489c.313.27.57.465.578.433.008-.027-.07-.351-.183-.715l-.203-.664.484-.394.484-.39-1.234-.04-.176-.402-.258-.586-.082-.18-.226.59-.227.582-1.379.035.485.328c.27.184.508.356.535.395.035.035-.031.36-.149.758-.109.383-.203.715-.203.742-.004.062.309-.152.418-.29zm-14.59-7.945c.293-.915.551-1.684.578-1.715.028-.032.793.09 1.797.285.961.187 1.782.34 1.817.34.039 0-.528-.559-1.258-1.243l-1.324-1.242.152-.402.54-1.426c.214-.558.382-1.027.374-1.035-.008-.008-.597.32-1.308.73l-1.286.743-1.183-.871c-.649-.485-1.188-.864-1.203-.848-.012.012.074.617.191 1.336.113.723.211 1.37.211 1.441 0 .106-.238.266-1.293.875-.71.41-1.344.781-1.402.828-.106.082-.106.086.035.09.086 0 .75.055 1.48.121.73.063 1.375.117 1.43.121.078 0 .18.329.5 1.614.55 2.215.523 2.11.574 2.008.032-.051.29-.836.578-1.75zM17.445 9.671l.653-.59.316.27.797.699c.27.23.496.414.508.402.008-.008-.106-.426-.254-.926-.156-.504-.281-.945-.281-.996 0-.043.296-.32.66-.613l.66-.543-.863-.016-.864-.02-.316-.734c-.176-.41-.336-.757-.356-.785-.02-.023-.171.309-.332.742l-.293.778-.964.02-.965.015.73.508c.403.277.742.523.75.539.016.027-.09.45-.238.945-.14.5-.277.977-.297 1.059l-.039.152.172-.156c.09-.082.46-.418.816-.75zM36.82 4.598c.047-.055.293-.285.555-.52l.477-.43.468.407.602.535.137.12-.09-.3-.223-.746-.133-.45.29-.245c.163-.133.382-.32.484-.41l.187-.16-.613-.004h-.613l-.23-.536a7.152 7.152 0 0 0-.27-.57c-.024-.027-.133.203-.25.512l-.211.558-.692.036-.687.027.515.355.532.375c.02.012-.32 1.266-.399 1.461-.043.106.078.094.164-.015zm0 0"/></svg>