<svg xmlns="http://www.w3.org/2000/svg" width="64" height="64"><path d="M42.755 51.195c-.665.517-1.46 1.099-1.958 1.786.532.238 1.985-.323 2.43.195-.09.239-1.035.351-1.223.408.338.102.232.54.212.698.307.028 1.083-.405 1.243.236-.8.54-1.712.626-2.482 1.26.69.318 1.583.39 2.25.583-.102.259-.792.001-1.092.314l-2.07-.26c.47.72 1.24 1.047 1.668 1.711-.557.522-.813-.622-1.383-.393.064.138.273.225.181.392-.54.233-.894-.372-1.41-.177.34.334.744.535 1.098.82-1.101.081-1.752-.952-2.688-1.32l-.167.129c.549.58.908 1.44 1.473 2.068-.246.29-1.468-.362-1.648-.524-.466-.663-2-1.517-2-1.517s-.101 2.142.1 2.528c-.397-.09-.773-1.344-1.059-1.47-.785-.44-.56.894-1.488.867 0 0 .055.683-.05.8-.432-.145-.56-.801-1.02-.88-.061.348.167.572-.241.721.2.316.265.91.464 1.254-.973-.14-1.454-1.599-2.303-2.156-.446.674-.698 1.474-1.028 2.194-.296-.038.08-1.672-.017-2.256-.867.211-.924 1.376-1.675 1.372-.429-.334-.684-2.845-.887-3.302-.398.231-.871.252-1.316.357.354.124.102 2.214.314 2.421-.604-.01-.948-1.87-1.59-1.831-.459.062-.586.599-1.115.727.085-.21.204-.571.228-.839-.856-.288-1.215 1.13-2.081 1.02.221-.53.246-1.4.246-1.4-.491.109-.76-.015-1.643.22l-.963.202c.477-.54 1.277-.92 1.691-1.51-.775-.527-1.843-.47-2.646-.78-.334-.042-.767-.176-1.099-.559.146-.283 1.822-.463 2.847-.254-.248-.723.283-1.655-.134-2.328 1.014.109 1.692 1.719 1.692 1.719.256.238 1.09 1.01 1.284 1.144.171-.169.18-.203.514-.578.353.67.464.829.78 1.169.513-.406 1.73-.734 1.067-1.669-.004-.13.204-.025.305-.031l.679.309c.152-.332.348-1.035.334-1.467.48.15.41 1.62.877 1.81l.573.222.44-2.869s.171 1.113.475 1.562c.426-1.709.473-3.035 1.536-4.394-.01.15.044.945-.085 1.66 0 0-.712 2.356-.494 4.126.787-1.233 1.282-2.783 2.623-3.575-.376 1.084-.948 2.043-1.436 3.053l.209.177.93-.864.07.089c.893-1.05.936-2.587 1.735-3.688.036.905-.359 2.128-.635 3.295.178.172.377-.213.619-.142-.016.128-.175.188-.265.267l.07.078-.773.735c.189.174.49-.149.63-.221.524-.425 1.145-.908 1.793-1.126-.615.583-.88 1.351-1.512 1.913 1.298-.047 2.465-1.423 3.483-2.347.188-.137-.078 1.323-1.463 2.37 1.944.395 2.962-1.89 3.995-3.103.195-.346.554-1.293.7-1.334 0 0-.188 1.89-.64 2.694l.06.087c1.394-.655 2.397-2.492 3.861-2.598M26.468 39.76c.1-.078.117-.216.254-.269.208.887-.307 1.955.257 2.737.099.873-.583 1.519-.358 2.278a7.606 7.606 0 0 1-.723 2.163c.171.08.066.198.18.323-.244.59-.395 1.232-.677 1.797l.208.177c-.125 1.075-1.196 1.077-.963 2.088-.768.695-.443 1.687-.996 2.5-.117.455-.015 1.149-.325 1.39-.357.125-.936-.86-.936-.86l-.945.47c-.306-.279-.632-.486-.442-.804l.784-2.491c.94-.793.462-2.646 1.619-3.322.254-.659.116-1.638.783-2.004l.154-1.864.08.01c.098-.699.207-1.567-.018-2.256l.42-.397-.201-1.979c1.006.207.683-2.317 1.568-1.074.167.431.028.975.277 1.387m-.923-7.628c-.295.263-.83.066-1.169.373.406.352 1.118.18 1.597.432l.278.185c-.234.19.23.4.22.629.55.41.877.921 1.009 1.549-.307.041-.4-.33-.722-.241-.152-.15-.235-.44-.477-.431l-.077.06c.155.68.644 1.254.654 1.965l.26.334c-.114.096-.325.26-.55.15-.327-.67-.828-1.305-1.257-1.96-.262.569.512 1.027.396 1.632.067.1.186.194.11.314-.57-.09-.94-.888-1.407-1.308-.58.868.57 1.444.775 2.2-.539-.097-1.168-.597-1.673-1.031-.028.617.798 1.373.262 2.056-.297-.188-.502-.624-.629-.98-.053-.287-.243-.612-.419-.805-.368.615-.297 1.565-.427 2.2-.428-.654-.041-1.658-.224-2.432l-.204-.777c-.562.571-.834 1.548-.76 2.46-.379.072-.48-.242-.535-.519.026-.928.117-1.639.02-2.552-.586.368-.32 1.202-.805 1.631-.139-1.128.49-2.23.567-3.313-.517.526-1.002 1.116-1.547 1.538.214-.654.627-1.404 1.011-2.056 1.465-1.619 3.774-1.658 5.723-1.303m-3.904-.572c.066.5-.464.172-.648.37-.956.28-1.812.943-2.679 1.546L18 35.99c-.524.024-.233-.54-.577-.754-.235.672.077 1.462-.044 2.098-.438.064-.306-.43-.438-.656-.156-.751-.209-1.529-.47-2.233-.665 1.228-.351 2.47-.327 3.785l-.384.032c-.145-1.391-.287-2.5-.638-3.837-.657 1.16-.341 2.551-.327 3.786.07.159.066.348.082.54-.739-.734-.74-1.915-.986-2.907l-.166.129-.352 1.607c-.218.053-.302-.148-.417-.272l.4-3.184c.482-.721 1.18-1.334 1.896-1.936l-.069-.088c-.393.18-.758.375-1.178.452 1.789-1.878 4.474-.938 6.707-1.409.304.138.747.194.93.417m6.754-2.976c.061.23-.23.463-.45.614 1.245.388 3.1-.67 3.85 1.016.916.035.517.987.71 1.512l-.08.07c-.384-.67-1.042-1.564-1.92-1.443-.114.115-.301.002-.402.17l.975 1.254c-.634.33-1.17-.898-1.937-.775.142.698.924 1.187.892 1.915-.435-.295-.65-.963-1.035-1.332l-.277-.185c-.341.728.19 1.587.302 2.371l-.125.355c-.537-.818-.584-1.876-1.23-2.71l-.228-.027c-.199.545.047 1.308.054 1.96l-.216-.027c-.254-.533-.154-1.162-.624-1.652-1.073-.155-1.82-.42-2.848-.057l-.364-.046c.618-.933 1.457-1.94 2.416-2.48l.077-.06-.014.748c.829-.386 1.708-.596 2.474-1.19m7.257 3.366c.165.762-.552 2.004.275 2.588-.425 1.15-.511 2.4-.457 3.628l.227.03c-.032.966-.428 2.049-.458 3.016-.177.92.515 2.082.443 3.125.94 1.04-.56 2.543.39 3.504-.131.253.112.315.25.412-.204 1.457.32 2.812.335 4.205-.261.008-.51.146-.642-.23-.29.323-.747.813-.836.808 0 0-.107-.387-.033-.948-.205.124-1.031.587-1.04.825l-.429-.009c.268-1.73-.271-3.446-.245-5.014.287-.205-.075-.59-.036-.907l-.33-2.144.343-.338c-.103-1.095-.535-2.264-.634-3.368.45-.475.03-1.048.048-1.577.123-.585-.3-1.369.37-1.755.08-1.263-.134-2.512-.067-3.685.637-.13.208-.935.325-1.392-.05-.166-.168-.331-.083-.531l.08.01c.116-.927 1.1-3.815.781-4.706.178-.466.412-.882.62-1.135l.965 2.92.71-1.037c.483 1.28-1.223 2.75-.872 3.705m-14.896-4.108c.86.88 1.32 1.99 1.48 3.121-.668.216-1.165-.296-1.16-.897-.155.051-.35.086-.48.24-.014.188-.064.593-.35.407l.04-.977c-.337-.022-.588.227-.924.185l.051-.966c-.566.45-.824 1.14-1.327 1.556-.096-.593.383-1.134.361-1.677-.448.464-.834 1.137-1.376 1.4-.21-.568.337-1.01.332-1.462-.678.617-1.092 1.366-1.679 2.042l-.226-.027c-.08-.572.426-.999.639-1.492-.58-.164-1.135.648-1.618.917.415-1.63 2.49-2.37 3.957-2.806-.121-.217-.163-.452-.369-.648l-1.307.286c-.153-.3.353-.416.596-.595 1.044-.41 1.904.54 2.727 1.013l.633.38m7.742-1.28c-.462.414-1.105.583-1.73.614l1.012.95c-.8.24-1.335-.77-2.092-.715l.585.755c-.19.407-.53.003-.73-.172l-.07-.078-.258.868c-.3-.168-.447-.356-.586-.674-.3.072-.148.371-.224.572-.377.294-.811.559-.878 1.011.18.174.403-.099.62-.142-.203.495-.642 1.19-1.19 1.654-.597-1.238-.629-2.654-1.544-3.8.468-.071.808.571 1.089.888.235-.592.015-1.31.085-1.873l.517.667c.53-.385.635-1.383 1.507-1.233 1.422.009 2.616.78 3.887.709m13.109-9.968c-.029.227-.323.41-.46.624l.13.166c3.798.689 6.743 3.233 8.874 6.525-.034.106.106.184.03.305-.32-.151-.542-.46-.812-.703-.329-.253-.631-.47-.961-.723-.08.962.232 1.591.014 2.685l-.169.37c-.197-1.296-.796-2.503-1.572-3.653-.287 1.397.101 2.777.158 4.157-.802-1.113-.876-2.594-1.555-3.802-.509.778-.413 2.092-.58 2.852.16.64-.009 1.111.15 1.752-.422-.223-.602-1.02-.667-1.539-.037-1.056-.282-1.816-.359-2.797l-.068-.09c-.301 1.034-.83 1.97-.913 3.12l-.148-.018.201-4.632c-.324.35-.45 1.036-.957 1.082.208-1.105.563-2.413-.025-3.388-.51-.886-1.575-.93-2.031-1.759.487-.218 1.124-.738 1.72-.534m-7.572-.722c.36.556.889.445 1.423.342 2.072-.23 3.668 1.069 4.727 2.685.664 1.005.914 2.128 1.018 3.283l-.212-.424-1.122-1.546c-.269.627.359 1.14.527 1.788.26.768.614 1.25.289 1.92-.583-.785-.927-1.789-1.625-2.608l-.047.365c.37 1.048.555 2.122.802 3.185-.43-.164-.517-.666-.776-.999-.08.72.071 1.661-.238 2.444l-.148-.018c-.14-1.1-.282-2.21-.87-3.185-.139.944-.217 2.116-.47 3.096l-.07-.01c-.117-.896-.13-1.818-.57-2.625l-.486 3.516c-.04.315-.228.64-.202.754-.227-.499-.213-1.169-.307-1.772-.347-.824-.378-1.77-.798-2.573-.718.77-.792 1.444-1.258 2.438-.008.068-.108.448-.196.754-.404-.532-.177-1.465-.114-2.118-.906.758-1.407 1.796-1.773 2.782-.382-1.491.653-2.561 1.145-3.762l-.06-.077c-.953.65-1.534 1.53-2.178 2.349.183-1.459 1.625-2.48 2.059-3.797-.903.568-1.585 1.383-2.16 2.212.224-1.455 1.634-2.56 2.295-3.918-.508-.024-1.033.49-1.53.86-.506.447-.703.803-1.161 1.176l.177-.44 1.67-2.603-.07-.089c-.297.133-.567.37-.873.421.196-.366.356-.767.73-1.04-.697-.027-1.232.656-1.853.969.174-.91 1.351-1.513 2.071-2.143-.91-.396-1.713.485-2.384 1.051-.188 1.33-.393 2.286-.214 3.41-.517-.344-.321-.522-.694-.97-.508.768-.354 1.609-.543 2.566.039.246.083.612-.034.817-.29-.797-.242-1.813-.483-2.685-.36.555-.551 1.193-.824 1.769-.015-.993.478-2.043.53-3.008-.936.824-1.723 1.826-2.254 2.942l-.245.2c.182-1.61.953-3.276 1.581-4.84l-.061-.077c-.97.548-1.175 1.695-1.753 2.554-.212-.548.354-1.158.36-1.678-.41.159-.886.75-1.303.807.589-.937 1.615-1.61 2.346-2.478l-.13-.167c-.737-.033-1.382.236-2.024.566l-.965.365c.322-.5 1.643-.97 2.06-1.349-.633-.229-1.281.08-1.96.054l.019-.147c2.384-.882 5.16-.272 7.415-1.622.366-.044.75.005 1.073-.166-.042-.154-.156-.278-.25-.411l1.048.118c1.023.22.963.456 1.923.787m-1.78-2.558l.105-.287c1.098.348 2.065.94 2.753 2-.394.42-1.081-.077-1.489-.108-1.504-.7-3.451-.905-4.685.231-.057-.267.264-.598.19-.877-.518.375-1.083.805-1.509 1.242-.16-.55.243-1.06.197-1.558-.639.37-1.44.78-1.823 1.354-.155-.6.522-1.046.5-1.59-.716.43-1.44.79-2.116 1.306.168-.78.995-1.387 1.392-2.148-1.21-.262-2.25.678-3.312 1.236.252-.81.986-1.7 1.917-2.093 2.255-.898 5.003-.041 7.01 1.033l.87.259m19.812 1.892l-.02.148c-.977-.423-2.122-.717-3.207-.774l1.655 1.18-.019.147c-1.2-.33-2.218-1.16-3.448-1.254.593.545 1.46.823 1.747 1.641-.071-.31-.589-.104-.782-.318-.69-.408-1.46-.806-2.222-.881a7.756 7.756 0 0 1 1.076 1.638l-.087.059-1.202-1.203c-.104.668.14 1.43.026 2.187l-.07-.009c-.287-.577-.47-1.19-.83-1.757-.06.483.157 1.142.012 1.655-.565.038-.373-.61-.637-.913-.321-.39-.603-.856-.973-1.174-.375.674.966 1.403.279 1.919-.63-.641-1.04-1.764-1.994-2.054-1.111-.25-1.858 2.11-2.783.62l.028-.216c2.52-1.485 5.225-2.286 8.067-2.59 1.985.31 3.787.946 5.384 1.95M30.646 6.353c-.534.985-.181 2.08.072 3.015.328.49.865 1.009 1.252 1.438.155-.21.093-.669.448-.624-.282.886.319 1.532.617 2.26-.398.06-.912-.244-1.382-.324-.594-.525-1.051-1.674-2.037-1.157-.05.084-.477.264-.546.254.02-.067.294-.326.26-.37.193-.176.47-.312.597-.526-.438-.105-1.573.468-2.01.673-.134-.047.417-.583.582-.703l.342-.328c-.801-.16-1.502.263-2.34.678.061-.643 1.125-1.131 1.703-1.588-.62-.409-1.42-.179-2.14-.27-.894.028-1.689.378-2.487.669.196-.366.763-.735 1.175-.984.489-.31 1.085-.424 1.511-.71-.297-.339-.883-.142-1.225-.376.382-.082.894-.248 1.379-.207l1.963.478c.019-.47-.553-.931-.975-1.174.796-.112 1.388.754 2.02 1.225.511-.326.614-1.135 1.22-1.349m6.721.325c.045.677-.097 1.4.045 2.03.56-.392.921-1.198 1.615-1.451-.597.997-1.249 1.966-1.593 3.105l.06.087c.95-.951 1.58-2.144 2.627-2.974-.176.519-.645 1.062-.953 1.603-.246.61-.716 1.082-.962 1.681-.621 1.505-1.268 3.396-.546 4.97-.387-.11-1.009-.337-1.608-.353-.484-1.413-1.85-2.806-2.787-4.107l-.07-.088c.543-.092 1.223.144 1.755.37.108-.376-.08-.87-.363-1.247-.817-.583-1.653-.788-2.58-.995a6.733 6.733 0 0 1 2.156-.41c-.209-.337-.516-.675-.96-.722-.458-.108-.85-.007-1.281-.01.035-.277.363-.346.577-.379.549-.06 1.08-.214 1.673-.16-.597-.977-2.195-.386-2.873-1.043.755-.505 1.787-.035 2.598-.344-.44-.415-1.145-.383-1.65-.658l.028-.227c1.638.116 3.24.679 4.348 1.899a1.917 1.917 0 0 0-.448-1.858l.028-.218c.608.267.859.97 1.164 1.5m9.678-.515c-.164.27-.546.291-.804.429-.549.452-1.001.946-1.388 1.478.914-.096 1.897-.593 2.922-.534l.296.037c-.667.518-1.623.397-2.307 1.061 1.084.458 2.085 1.575 2.512 2.72-.89-1.053-2.046-2.45-3.64-2.11.547.5 1.35 1.05 1.639 1.858-.363.015-.319-.42-.605-.526-.469-.49-1.092-.868-1.778-.825.679.877 1.349 1.842.985 2.899-.505-.755-1.164-1.479-2.13-1.54l-.166.129c.315.45.855.93.72 1.443-.408-.332-.759-.737-1.335-.77-.057.445.178.985.267 1.457-.514.035-1.066-.595-1.65-.578l.37.646-.875.342c.073.139.38.087.26.332-.707.283-1.668.432-2.09 1.09-.029-.094-.14-.098-.208-.107.073-.891.01-1.741-.127-2.569.55-.082.344.534.656.763.92-2.138 1.19-5.018 3.738-5.839-.564.59-1.122 1.28-1.235 2.018 1.736-1.544 3.767-3.032 5.973-3.304M32 63c17.12 0 31-13.878 31-31C63 14.88 49.12 1 32 1 14.879 1 1 14.88 1 32c0 17.122 13.879 31 31 31"/></svg>