<svg xmlns="http://www.w3.org/2000/svg" width="64pt" height="64pt" viewBox="0 0 64 64"><path d="M30.21 64.355c-6.202-.37-12.331-2.628-17.304-6.359-1.742-1.312-4.097-3.539-5.39-5.101C4.332 49.043 2.16 44.797.988 40.12a32.313 32.313 0 0 1 1.73-20.902 33.55 33.55 0 0 1 3.669-6.282c1.73-2.304 4.215-4.792 6.52-6.523C21.101.266 31.792-1.594 41.66 1.406a32.48 32.48 0 0 1 9.817 4.98c2.308 1.735 4.789 4.216 6.523 6.52 5.816 7.746 7.809 17.739 5.43 27.211-1.938 7.719-6.739 14.485-13.446 18.95-5.777 3.851-12.738 5.714-19.773 5.288zm17.528-5.148l-.136-.195h-31.09l-.375.39h31.742zm.5-20.992c-.015-20.035-.02-20.88-.133-21.211-.277-.813-.902-1.711-1.453-2.094-.234-.168-.28-.176-.488-.105l-.227.074.403.273c.754.52 1.238 1.305 1.437 2.352.075.398.09 3.621.09 20.832v20.36l.14.19c.079.106.169.192.196.192.027 0 .043-9.387.035-20.863zm-31.949.539c0-13.524.023-20.09.07-20.59.164-1.758.63-2.637 1.668-3.164l.352-.176-.215-.113c-.21-.106-.215-.106-.566.105-.672.407-1.246 1.223-1.504 2.149-.125.441-.125.797-.125 21.195v20.746l.16-.148.16-.156zm15.02 7.309V35.233h-13.02V46.02c0 5.933.02 10.8.043 10.828.02.02 2.95.039 6.508.039h6.469zm14.691 0V35.233l-12.988.032-.016 10.73c-.008 5.902 0 10.77.016 10.809.023.066 1.383.082 6.508.082H46zM31.273 26.922c0-6.313-.011-6.996-.117-7.68-.16-1.074-.328-1.687-.625-2.285-.465-.95-1.105-1.355-2.062-1.3l-.438.023.567-.59c.609-.64.91-1.14 1.035-1.738.183-.907-.375-1.868-1.68-2.86a38.29 38.29 0 0 0-1.816-1.246L24.8 8.371l-1.02.668c-1.851 1.215-2.3 1.54-2.86 2.094-1.347 1.332-1.327 2.469.079 3.953l.555.59h-.649c-.543 0-.699.027-.914.14-.297.16-.805.676-.965.989-.199.386-.418 1.11-.562 1.836-.133.691-.137.882-.16 7.89-.012 3.946-.008 7.215.011 7.262.028.074 1.114.086 6.493.074l6.464-.02zm14.704-.145c-.02-6.25-.036-7.18-.13-7.718-.265-1.524-.6-2.356-1.16-2.887-.433-.406-.843-.55-1.492-.52l-.472.024.566-.582c.75-.778 1.066-1.387 1.066-2.055 0-.574-.14-.957-.55-1.465-.492-.613-1.008-1.023-2.707-2.152l-1.59-1.055-1.535 1.02c-1.7 1.125-2.285 1.59-2.754 2.164-.434.539-.578.969-.547 1.582.035.691.348 1.262 1.078 1.996l.55.55-.53-.023c-.672-.031-1.067.094-1.489.473-.55.496-.902 1.34-1.148 2.738-.094.535-.11 1.477-.133 7.723-.012 3.914-.008 7.156.008 7.203.027.074 1.09.086 6.512.086h6.488zm2.246-21.304c-.02-.02-.106.035-.196.12l-.16.15v9.952l.176.313.18.316.015-5.41c.008-2.976 0-5.422-.015-5.441zm-31.938 5.215l.004-4.918-.324-.38.008 10.801.312-.578zm16.246 4.914c.375-.22.375-.372-.008-1.356-.183-.492-.355-.914-.382-.941-.028-.032-.168.289-.313.707l-.344.972c-.183.52.516.93 1.047.618zm13.828-1.25c.043-.036.125-.23.196-.434.18-.555.152-1.45-.063-2.063-.484-1.41-2.008-3-4.148-4.347-.836-.524-2.344-1.336-2.485-1.336-.074 0-.109.05-.109.156 0 .133.113.215.809.582 3.8 1.996 5.894 4.277 5.746 6.254-.035.39-.102.649-.344 1.219-.043.105-.027.113.14.074a.995.995 0 0 0 .258-.105zm-28.12-.301c-.727-1.684.066-3.54 2.187-5.145.98-.738 2.293-1.472 3.582-2 .308-.129.586-.254.613-.285.035-.027.047-.125.035-.219l-.02-.164-.945.41c-1.945.844-3.382 1.754-4.441 2.809-1.133 1.125-1.621 2.11-1.625 3.254 0 .883.184 1.48.496 1.613.11.047.211.074.223.059.015-.012-.035-.164-.106-.332zm14.07-1.614c.21-.953.816-1.835 1.898-2.769 1.04-.902 2.883-2.05 4.469-2.79.691-.323.75-.362.75-.526 0-.102-.035-.18-.082-.18s-.563.238-1.145.531c-2.09 1.043-3.652 2.086-4.738 3.172-.617.617-.898.984-1.188 1.559l-.18.347-.167-.34c-.606-1.191-2.106-2.554-4.188-3.804-.734-.438-2.55-1.399-2.648-1.399-.02 0-.035.086-.035.192 0 .18.043.215.832.605 3.41 1.715 5.73 3.777 5.976 5.328.032.227.063.254.223.254.148 0 .191-.035.223-.18zm14.39-4.12c.184-.47.332-.915.332-.989 0-.078-.086-.223-.187-.324-.215-.219-.594-.254-.903-.098-.359.188-.359.32.008 1.383.188.535.36.95.383.922.023-.024.191-.43.367-.895zM32.48 8.261c.391-1.004.395-1.137.051-1.367a.71.71 0 0 0-.824-.016c-.332.2-.332.371-.016 1.285.286.832.383 1.063.418 1.024.02-.012.18-.43.371-.926zm-14.125-.028c.188-.48.336-.945.329-1.03a.611.611 0 0 0-.172-.325c-.133-.133-.223-.164-.52-.164-.312 0-.379.027-.515.183-.086.098-.157.243-.157.32 0 .079.114.466.254.852.336.946.39 1.086.418 1.055.016-.012.18-.41.363-.89zm2.336-.847c.305-.414-.296-.875-.664-.508-.164.164-.164.39.004.57.184.196.489.164.657-.062zm9.454.07c.265-.262.085-.707-.282-.707-.254 0-.441.18-.441.422 0 .367.457.55.723.285zm4.64 0c.328-.328-.02-.848-.46-.691-.2.066-.317.336-.243.543a.43.43 0 0 0 .703.148zm9.778-.012c.183-.168.19-.394.019-.566-.129-.129-.418-.172-.555-.078-.082.054-.218.297-.218.386 0 .032.058.137.132.231.168.21.414.223.621.027zm3.246-2.117c.101-.074.187-.164.187-.195 0-.035-6.113-.055-15.887-.055-8.738 0-15.882.016-15.882.04 0 .023.058.112.14.194l.14.149h31.114zm0 0"/></svg>