<svg xmlns="http://www.w3.org/2000/svg" width="64" height="64"><path d="M30.744 62.978c-5.536-.26-10.639-1.839-15.197-4.702C8.744 54.004 3.83 47.24 1.919 39.516a31.187 31.187 0 0 1 .018-15.102c.565-2.25 1.262-4.115 2.356-6.306a27.809 27.809 0 0 1 1.89-3.272C10.273 8.681 16.497 4.148 23.586 2.16a31.119 31.119 0 0 1 20.666 1.353c.998.426 2.787 1.347 3.74 1.924a31.19 31.19 0 0 1 10.93 11.184 33.523 33.523 0 0 1 1.821 3.74c3.322 8.238 2.962 17.547-.984 25.445-2.005 4.012-4.746 7.428-8.271 10.307l-.403.33.213-.255c.118-.14.26-.313.318-.384l.104-.13-.199-.194-.2-.196-.331.385a4.237 4.237 0 0 1-.53.526l-.2.142-.122-.146c-.163-.193-.4-.271-.612-.201-.248.082-.332.202-.297.422.036.223-.007.25-.304.196-.116-.021-.226-.029-.245-.017-.02.012-.101.117-.181.233l-.145.211.132.054c.196.08.953.107 1.253.044.144-.03.399-.119.567-.198.372-.175.356-.16-.367.355a31.101 31.101 0 0 1-15 5.575c-1.286.12-3.042.167-4.195.113zm9.237-2.77c.202-.056.525-.324.627-.521.037-.071.089-.23.116-.351.046-.203.039-.243-.081-.464a1.524 1.524 0 0 0-.753-.7 3.169 3.169 0 0 1-.576-.373 5.092 5.092 0 0 0-.446-.335c-.188-.115-.547-.13-.683-.029-.09.067-.09.074.042.328.197.38.426.624.788.835.388.227.619.473.619.662 0 .077-.072.24-.17.38-.163.238-.166.25-.09.366a.607.607 0 0 0 .228.184c.185.08.16.079.38.018zm2.155-.36c.329-.195.461-.398.515-.787.063-.462-.38-1.028-1.053-1.348-.303-.144-.374-.162-.473-.117-.16.074-.146.199.057.464.263.345.4.674.365.884-.033.204-.078.249-.33.336-.354.122-.332.48.041.648.313.142.536.122.878-.08zm1.726-.017c.346-.096.703-.668.738-1.184.018-.251-.002-.374-.106-.664-.203-.565-.563-.873-1.189-1.018-.4-.093-1.773-.763-2.343-1.143a15.363 15.363 0 0 1-.809-.589l-.406-.32-.4.096c-.65.155-.628.117-.28.465.719.717 1.34 1.072 3.027 1.73 1.025.4 1.45.707 1.569 1.13.093.332-.053.852-.317 1.13-.108.112-.115.138-.056.208.056.068.298.2.374.206.013 0 .102-.02.198-.047zm-14.28-.176c.17-.079.374-.215.454-.303.231-.252.535-.743.594-.958.123-.452-.098-1.57-.433-2.2-.078-.144-.141-.304-.141-.354 0-.152-.138-.37-.235-.37-.143 0-.287.223-.287.446 0 .108.053.427.116.708.064.282.14.712.169.956.062.524.022.733-.186.96-.126.138-.168.154-.402.154-.469 0-1.053-.298-2.009-1.026-.838-.638-1.876-1.107-2.81-1.269-.223-.038-.896-.092-1.494-.12-2.102-.095-2.168-.104-2.36-.334-.063-.074-.173-.313-.244-.53-.162-.495-.233-.609-.38-.609-.372 0-.509.273-.384.762.085.334.328.78.478.876.117.076 1.449.449 1.707.478.27.03.404.147.585.51.233.464.227.462 1.957.742.596.096 2.108.552 2.495.752.098.05.338.215.534.364.578.442.892.547 1.565.523.33-.012.459-.04.71-.158zm8.597.077c.195-.101.317-.246.317-.38 0-.114-.043-.153-.331-.305-.513-.27-1-.84-1.476-1.73-.292-.546-.828-1.279-1.418-1.939-.767-.858-1.042-1.203-1.181-1.48-.166-.333-.226-.721-.148-.96.052-.157.042-.196-.154-.587-.115-.23-.22-.45-.234-.487-.018-.05-.085-.01-.246.145-.479.462-.49 1.232-.031 2.157.238.48.32.59 1.159 1.55.843.967 1.345 1.775 1.687 2.717.209.575.351.814.6 1.003.362.276 1.174.441 1.456.296zm-17.257-1.764c.241-.11.267-.136.267-.27 0-.21-.123-.42-.267-.456-.121-.03-.592-.001-.926.058-.147.026-.194.012-.297-.091-.13-.132-.157-.31-.065-.456.042-.068.043-.12.003-.207-.053-.116-.22-.195-.665-.314-.292-.079-.367-.219-.367-.689 0-.329.02-.42.142-.665.176-.352.4-.515.854-.623.182-.043.383-.102.446-.131.16-.074 1.973-.065 2.423.012.793.136 2.002.508 2.571.793.138.068.499.263.804.431.67.371 1.182.563 1.315.491.417-.223.375-.85-.081-1.198-.28-.214-.63-.353-1.051-.418-.302-.047-.342-.043-.509.052l-.18.103-.64-.284c-.771-.342-1.105-.438-2.158-.622a11.329 11.329 0 0 0-2.205-.202c-.97-.004-2.275.32-2.536.631-.168.2-.16.418.026.63.202.229.178.377-.063.397-.343.028-.411.389-.177.933.151.353.306.53.669.762.36.232.401.33.244.596-.074.125-.075.152-.012.263.095.167.46.364.948.51.534.162 1.085.148 1.487-.036zm27.41-1.502c.237-.418.275-.53.23-.684-.054-.19-.308-.36-.54-.36-.176 0-.18-.003-.21-.208-.058-.381.115-.888.457-1.339.127-.168.232-.314.232-.323 0-.028-.395-.31-.434-.31-.062 0-.457.586-.604.896-.077.164-.165.441-.194.615-.098.583.15 1.392.573 1.874.192.218.202.222.285.139.047-.048.14-.183.206-.3zM14.794 55.42c.34-.115.674-.315.634-.38-.045-.073-.356-.219-.64-.3-.611-.178-1.693-.19-2.121-.024l-.13.05.18.158c.222.192.763.482 1.011.54.326.076.762.058 1.066-.044zm35.952-.092c.235-.279.204-.59-.074-.76a.596.596 0 0 0-.612-.012c-.182.108-.213.251-.112.516.15.392.57.527.798.256zm1.319-.155c.217-.35.404-.757.538-1.174.234-.728.21-1.873-.044-2.083-.057-.047-.097-.014-.234.195-.153.235-.162.27-.127.486.085.535-.114 1.391-.48 2.06l-.19.35.18.183c.099.102.191.184.205.184.015 0 .083-.09.152-.201zm-3.02-.065c.096-.037.263-.356.263-.504 0-.382-.584-.603-.897-.34-.17.143-.181.25-.053.515.14.289.43.428.687.329zm-18.338-.407c.322-.302.387-.633.207-1.051l-.1-.232.17-.148c.296-.257.274-.709-.05-1.053-.224-.237-.364-.212-.413.072-.029.172-.078.248-.267.413-.31.271-.37.423-.296.75.03.139.13.356.22.483.09.126.164.246.164.266 0 .02-.08.123-.177.23l-.176.195.137.119c.166.142.402.125.58-.044zm7.546-.152c.093-.093.103-.127.058-.211-.075-.14-.25-.22-.691-.316a3.494 3.494 0 0 1-.664-.224c-.632-.313-1.583-1.153-1.865-1.648-.2-.35-.194-.504.033-.791.217-.275.206-.34-.1-.611a3.553 3.553 0 0 1-.39-.423l-.18-.237h-.539c-.296 0-.539.012-.539.027 0 .028.154.258.452.677.18.252.196.37.099.694-.058.191-.055.238.023.439.182.464.418.748 1.12 1.35.732.627 1.598 1.107 2.384 1.32.457.125.639.115.799-.046zm1.125.108c.253-.063.512-.336.575-.603l.04-.173.379-.024c.207-.013.401-.04.43-.058.092-.06.208-.351.208-.522a.348.348 0 0 0-.111-.266c-.124-.117-.187-.107-.47.079-.176.115-.187.116-.89.083-.39-.019-.71-.021-.71-.005s.053.134.118.262c.066.13.119.264.119.301 0 .037-.053.188-.119.335-.138.312-.145.396-.044.54.083.118.171.128.475.051zm-23.234-.303a3.52 3.52 0 0 0 .378-1.14l.034-.281-.097.087c-.096.085-.102.084-.28-.037-.265-.181-.962-.39-1.607-.48-1.08-.151-2.55-.024-2.77.239-.103.125.083 1.14.252 1.371.062.086.071.086.328-.01.937-.35 2.584-.192 3.356.323.117.078.228.142.246.142.019 0 .09-.096.16-.214zm13.384-.11c.062-.444-.334-.762-1.566-1.26-.79-.318-1.115-.38-1.836-.348-.616.027-.902.11-1.104.324-.259.272-.203.715.11.877.165.085.254.085.387 0 .195-.124.666-.19 1.337-.19.875 0 1.238.084 1.934.448.573.299.712.327.738.148zm21.986-.227c.139-.15.196-.41.124-.567-.067-.146-.323-.304-.495-.304-.17 0-.396.116-.46.238-.078.144.034.452.223.618.21.184.446.19.608.015zm-1.556-.63c.161-.239.147-.485-.037-.64-.08-.067-.177-.123-.214-.123-.12 0-.071-.069.14-.196.211-.128.631-.325.692-.325.019 0 .058.08.088.18.073.245.286.438.516.469.166.022.2.008.312-.124.148-.176.206-.428.131-.568-.046-.085-.04-.1.04-.1.052 0 .146.02.21.045.104.04.132.02.271-.173.15-.208.152-.22.068-.282-.255-.185-.985-.214-1.54-.06-.738.204-1.53.68-2.098 1.263l-.226.232.217.153.218.153.146-.123.146-.123.1.197c.12.24.275.333.524.318.155-.01.207-.04.296-.172zM24.1 53.192c.243-.191.14-.361-.232-.385-.228-.014-.236-.02-.25-.168-.013-.128.016-.183.165-.32.238-.218.187-.32-.18-.36-.461-.052-.658-.228-.658-.59 0-.11.043-.212.135-.318.193-.222.256-.36.224-.49-.035-.14-.19-.185-.48-.141-.434.064-.747.53-.751 1.116-.003.411.129.666.448.864.195.121.234.17.234.285 0 .342.394.605.906.605.246 0 .341-.021.439-.098zm22.3-.067c.556-.131 1.237-.414 1.506-.625.68-.534 1.759-2.29 2.092-3.406.103-.341.13-.531.134-.948.006-.57-.065-.85-.291-1.154-.107-.144-.125-.152-.192-.085-.056.056-.084.237-.113.727-.05.853-.114 1.084-.536 1.938-.464.942-.851 1.524-1.322 1.988-.648.64-1.222.877-2.123.877-.398 0-.524.016-.582.074-.09.09-.093.123-.016.218.073.09.466.357.614.417.163.065.5.057.829-.021zm-3.92-.53c.77-.134 1.329-.364 2.323-.955a6.175 6.175 0 0 0 1.426-1.133c1.316-1.361 2.005-3.074 2.008-4.993.001-.679-.01-.777-.148-1.287a5.74 5.74 0 0 0-.29-.83 3.814 3.814 0 0 1-.174-.392.954.954 0 0 0-.196-.28c-.088-.09-.16-.18-.16-.2 0-.02-.031-.047-.07-.062-.046-.018-.116.057-.218.236-.148.26-.15.264-.072.436.08.177.106.305.245 1.194.103.657.07 1.921-.067 2.513-.184.793-.891 2.213-1.38 2.77-.615.7-1.309 1.253-2.027 1.612-.336.169-1.474.526-2.126.667-.411.09-.47.126-.515.318-.045.194.129.365.447.439.274.064.356.06.994-.052zm-25.913-1.516c-.029-.243-.03-.244-.299-.364-1.053-.468-2.938-.598-3.832-.263-.142.053-.288.142-.324.199-.07.106-.263.977-.263 1.182v.117l.273-.066c.38-.091 1.334-.142 1.969-.103.862.051 1.934.309 2.328.558l.148.094.015-.555a7.619 7.619 0 0 0-.015-.8zm22.694 1.094c.225-.116.162-.22-.171-.282-.335-.061-.377-.082-.996-.501-.319-.215-.544-.41-.688-.594-.397-.51-.491-.588-.703-.588-.46 0-.58.192-.371.59.332.635 1.144 1.32 1.664 1.406.393.064 1.115.047 1.265-.03zm-9.354-.512a.962.962 0 0 0-.044-.307c-.08-.289-.735-1.021-1.08-1.209-.804-.437-2.217-.672-3.348-.555-.638.066-.72.09-1.032.3-.237.16-.28.274-.162.435.05.069.093.079.202.047.076-.021.173-.043.216-.047a.715.715 0 0 0 .15-.036c.124-.047 2.09.099 2.396.178.446.116 1.412.522 1.602.674.747.596.8.631.941.62.096-.008.148-.04.16-.1zm1.201-.563c.128-.18.136-.444.02-.721-.041-.098-.065-.195-.052-.215.012-.02.118-.049.235-.065.196-.026.744-.275 1.093-.495.124-.078.161-.082.288-.029.269.112 1.025.219 1.33.189.477-.048 1.327-.369 1.85-.699.308-.195.635-.525.762-.772.11-.212.1-.577-.018-.696-.125-.125-.187-.088-.537.324-.144.169-.35.36-.46.424-.294.173-1.186.521-1.56.61-.74.173-.975.082-2.088-.814-.273-.22-.511-.39-.53-.381-.018.01-.072.032-.12.049-.08.028-.07.064.113.398a7.8 7.8 0 0 0 .385.628l.184.261-.1.082c-.362.297-1.057.208-1.676-.216-.334-.229-.406-.246-.808-.19-.22.03-.224.033-.196.175.037.182.15.303.609.654.202.155.4.345.44.423.132.254.28.775.265.935-.018.21.063.294.281.294.15 0 .2-.026.29-.153zm-14.893-1.489a3.896 3.896 0 0 0-.782-1.286c-.345-.37-.58-.499-.915-.499-.575 0-1.342.606-1.85 1.46-.137.23-.243.425-.236.432a.738.738 0 0 0 .201-.034c.369-.092 1.573-.106 2.18-.025.55.073 1.3.237 1.446.316.039.021.077.032.085.024.009-.009-.05-.183-.129-.388zm6.681.03c.23-.118.57-.37.57-.423 0-.023-.09-.057-.201-.074-.378-.058-.91-.22-1.141-.345-.438-.238-.839-.804-.839-1.184 0-.036-.035-.173-.078-.303-.086-.264-.069-.851.031-1.038.046-.085.083-.098.205-.074.428.085.63.086.714.002.08-.079.069-.097-.219-.372-.25-.24-.332-.362-.477-.7-.25-.585-.333-1.005-.335-1.676-.002-.525.01-.606.159-1.041.21-.617.522-1.085.95-1.427.418-.333.603-.44.933-.542l.268-.083.297.203c.588.402 1.522.404 1.657.003.038-.111-.027-.152-.303-.19-.247-.034-.68-.287-.983-.574-.207-.196-.285-.38-.338-.794-.032-.256-.014-.266.293-.156.257.093.894.096.97.004.132-.159.04-.277-.41-.524-.24-.131-.503-.302-.583-.379a1.764 1.764 0 0 1-.48-.832c-.066-.305-.226-.485-.415-.463-.16.019-.255.211-.282.566-.016.217.005.321.11.557l.13.29-.083.268c-.067.212-.078.358-.056.7.016.237.041.474.056.526.023.078-.014.114-.204.2-.46.21-1.21.792-1.635 1.267-.67.751-.956 1.34-1.085 2.225-.094.657.065 1.654.345 2.155.137.245.139.255.063.403-.17.327-.257.716-.257 1.146 0 .36.024.499.158.886.201.584.518 1.138.783 1.372.218.192.736.469.978.523.203.045.54-.002.734-.102zm19.446-.11c.113-.083.233-.34.233-.497 0-.293-.374-.524-.735-.456-.183.034-.43.278-.479.472-.032.13.047.366.152.453.209.174.614.188.83.028zm-3.55-.258a.537.537 0 0 0 .166-.35c.022-.198.012-.22-.172-.386-.17-.153-.225-.176-.43-.176-.195 0-.264.025-.392.138-.131.118-.155.171-.155.353 0 .376.265.62.635.583a.515.515 0 0 0 .348-.162zm16.628-.127c.334-.17.67-.519.854-.886.237-.475.223-.488-.325-.273-.625.246-1.548.495-2.173.588-.278.042-.516.086-.53.099-.038.038.24.246.512.382.574.287 1.207.322 1.662.09zm-10.156-.132a.66.66 0 0 0 .18-.558c-.04-.178-.313-.407-.528-.442a.447.447 0 0 0-.32.066c-.305.18-.36.552-.12.825.238.27.566.317.788.11zm-26.738-.188c.104-.105.058-.251-.185-.584-.551-.756-1.336-2.174-1.618-2.923-.126-.337-.149-.462-.152-.846-.005-.612.052-.718.574-1.066l.406-.27-.029-.21c-.057-.42-.227-.54-.77-.54-.493 0-.766.153-1.03.578-.143.233-.316.83-.316 1.094 0 .778.546 1.922 1.556 3.259.426.564 1.354 1.565 1.451 1.565.03 0 .081-.026.113-.057zm5.647-.318c.45-.45.205-.848-.525-.855-.236-.003-.282.012-.368.122-.275.35.064.91.554.916.117.002.198-.042.339-.183zm3.441-.534a.769.769 0 0 0 .262-.529c0-.065-.071-.186-.168-.286-.137-.14-.203-.173-.354-.173-.264 0-.521.228-.521.46 0 .483.451.787.781.528zm25.955-.065c.018-.019-.214-1.595-.252-1.709-.012-.035-.144-.029-.43.021l-.415.072.029.337c.034.41.147.96.244 1.192l.072.173.366-.033c.202-.019.375-.042.386-.053zm1.126-.219c.223-.055.416-.127.428-.16.022-.058-.44-1.628-.5-1.692-.016-.02-.17.007-.34.058l-.31.093.142.902c.078.496.15.901.159.901.009 0 .198-.046.421-.102zm1.53-.56a.866.866 0 0 0 .21-.131c.05-.09-.379-1.666-.486-1.78-.019-.02-.158.037-.309.128-.15.09-.298.173-.328.183-.037.012-.022.12.05.346.056.18.18.578.273.883.192.625.149.597.59.372zm-15.294-.095c.25-.297.205-.624-.108-.8-.224-.126-.408-.13-.603-.01-.198.12-.233.25-.136.504.167.437.603.595.847.306zm-31.023-.353c.198-.035.449-.11.558-.166.225-.115.223-.13-.05-.448l-.159-.184-.342.084c-.863.21-1.533-.104-2.12-.991-.13-.197-.247-.359-.26-.359-.013 0-.137.101-.276.224l-.252.224.248.355c.603.863 1.31 1.302 2.129 1.32.091.003.327-.024.524-.06zm34.997-.115c.13-.116.151-.167.151-.363 0-.189-.022-.248-.126-.337-.248-.213-.657-.266-.855-.11-.1.079-.125.138-.125.3 0 .531.583.842.955.51zm-6.805-.167c.123-.123.207-.251.207-.315 0-.221-.495-.552-.768-.513-.155.022-.322.299-.322.533 0 .324.174.492.516.499.128.002.202-.039.367-.204zm-13.805-.188c.267-.256.292-.461.08-.664-.249-.239-.542-.255-.735-.041-.123.137-.125.59-.002.727.214.238.392.232.657-.022zm5.35.15c.102-.053.173-.13.174-.187 0-.017-.164-.09-.367-.162-.524-.189-.745-.307-1.199-.644-.69-.511-1.269-1.124-1.513-1.602-.105-.206-.381-1.331-.381-1.552 0-.25-.195-.398-.322-.243-.087.107-.224.998-.224 1.458 0 .382.017.483.112.664.425.808.973 1.353 1.921 1.907.451.264.639.324 1.144.367l.49.042a.379.379 0 0 0 .165-.047zm5.03-.2c.201-.085.313-.244.313-.446 0-.22-.075-.339-.263-.417-.268-.112-.412-.086-.63.115-.299.276-.258.553.11.74.177.09.269.092.47.007zM11.18 45.94c.466-.59.577-1.518.271-2.27-.138-.34-.444-.819-.799-1.25l-.263-.32-.242.217c-.134.12-.243.234-.243.253 0 .02.11.172.245.34.519.643.799 1.213.799 1.626 0 .262-.14.709-.287.92l-.142.205.202.258c.11.142.217.258.237.258.019 0 .12-.107.222-.237zm20.15.122c.124-.064.243-.248.243-.376 0-.117-.289-.45-.434-.5-.238-.083-.37-.062-.515.084-.184.184-.223.361-.122.549.154.286.53.397.827.243zm11.243-.453c.495-.254.99-.917 1.087-1.458.068-.376-.079-1.008-.234-1.008-.02 0-.138.165-.263.367-.318.514-.591.863-.884 1.127-.239.217-.734.6-.882.683-.116.065-.028.284.147.363.225.102.76.064 1.029-.074zm10.754-.174c.899-.196 1.772-.514 2.156-.785l.13-.092-.153-.215c-.238-.331-.796-.837-1.08-.978-.629-.314-1.164-.027-1.566.84-.184.397-.33.942-.33 1.233 0 .194-.067.195.843-.003zM7.21 44.43l.173-.16-.087-.15a4.883 4.883 0 0 1-.244-.6c-.148-.429-.156-.483-.158-1.16l-.002-.712-.188-.246c-.104-.136-.204-.248-.223-.25-.063-.004-.185.288-.253.607-.167.79-.016 1.716.43 2.632.201.412.154.409.552.039zm38.312-.058c.1-.105.182-.239.182-.297 0-.23-.284-.46-.569-.46-.215 0-.399.198-.36.39.015.079.028.205.028.279 0 .098.036.154.13.205.232.126.388.095.589-.117zm13.781-.197c.096-.095.067-.19-.194-.632-.526-.893-.72-1.518-.72-2.322-.001-.469.01-.542.117-.73.1-.178.185-.245.546-.432.648-.336.706-.536.199-.687-.596-.177-.875.001-1.241.794-.327.708-.381 1.18-.214 1.88.16.667.568 1.402 1.1 1.977.195.213.305.254.407.152zm-1.802-.19c.1-.099.065-.208-.272-.853-.584-1.12-1.096-2.498-1.18-3.174-.048-.386-.002-.819.11-1.036.096-.185.286-.33.675-.517.383-.183.486-.321.354-.471-.18-.206-.72-.264-.976-.106-.181.112-.306.277-.491.646-.414.828-.427 1.433-.055 2.558.31.938 1.03 2.288 1.508 2.833.166.188.235.213.327.12zm-26.404-.437a.603.603 0 0 0 .134-.334c.03-.268-.08-.41-.405-.52-.2-.068-.226-.067-.362.012-.123.071-.149.118-.161.292-.022.302.016.397.215.538.226.161.435.166.58.012zm6.659-.184c.084-.172.084-.191.008-.39-.16-.42-.48-.521-.732-.234-.231.264-.201.518.084.714a.508.508 0 0 0 .362.104c.167-.012.2-.035.278-.194zm3.06.097a.718.718 0 0 0 .204-.18c.075-.101.08-.144.037-.26-.091-.242-.28-.401-.476-.401-.348 0-.644.337-.526.597.113.248.508.374.76.244zm-16.948-.19c.214-.122.34-.378.289-.584-.045-.181-.28-.399-.429-.399-.415 0-.675.467-.474.855.06.116.21.202.402.23a1.1 1.1 0 0 0 .212-.102zm4.059-.08c.226-.215.227-.316.006-.613-.162-.218-.195-.24-.348-.242-.153 0-.396.257-.443.469-.055.249.216.57.483.572.058.001.192-.081.302-.186zm6.811-.014c.13-.12.22-.38.178-.512-.04-.128-.293-.282-.463-.282a.575.575 0 0 0-.56.354c-.052.119-.079.242-.06.275.045.072.246.237.346.281.122.055.446-.012.559-.116zm11.445-.184c.425-.143.701-.689.665-1.315-.01-.157-.166-.51-.309-.694-.07-.092-.078-.088-.276.14l-.203.235v.452c0 .403-.015.481-.13.7-.153.29-.158.333-.052.449.092.102.096.103.305.033zm-36.26-.92c.27-.25.278-.23-.245-.646-.62-.493-1.573-.89-2.147-.892-.22-.002-.624.12-.75.224l-.1.083.216.272c.215.268.218.27.334.194.35-.228 1.478.18 2.142.775.123.11.246.201.272.201.026 0 .15-.095.278-.212zm34.653.084c.431-.251 1.007-.75 1.38-1.197.45-.539.78-1.177.964-1.872.119-.445.127-.54.129-1.541.002-1.168-.031-1.432-.263-2.071-.216-.598-.665-1.059-1.032-1.059-.13 0-.145.015-.145.15 0 .092.066.248.175.411.285.43.392.996.397 2.095.004.699-.011.852-.139 1.446-.142.662-.267 1.024-.539 1.563-.327.65-.648 1.011-1.397 1.575-.195.147-.367.299-.382.338-.016.042.025.116.102.182.181.156.461.148.75-.02zM15.96 41.006c.682-.332 1.123-1.192 1.032-2.009-.07-.623-.353-1.588-.627-2.137-.494-.99-1.346-1.749-1.963-1.749-.56 0-1.13.758-1.34 1.783-.15.73-.07 1.922.183 2.724.269.851.764 1.316 1.614 1.512.388.09.744.05 1.1-.124zm35.253-.428c.736-.153 1.37-.674 1.749-1.439.11-.223.192-.415.181-.425a5.874 5.874 0 0 0-.3-.183l-.283-.166-.202.415c-.36.735-.828 1.084-1.512 1.128-.268.017-.382.002-.552-.073l-.214-.095-.15.304c-.082.166-.15.311-.15.322 0 .026.39.172.58.217.233.055.57.053.853-.005zm-7.783-.15a.473.473 0 0 0 .165-.601c-.081-.157-.157-.193-.405-.193-.239 0-.474.188-.474.38 0 .21.287.505.503.518.028.001.124-.045.211-.104zm-12.353-.036c.301-.146.387-.406.21-.631-.118-.15-.36-.203-.584-.13-.21.07-.256.128-.294.364-.027.171-.015.207.12.342.176.175.278.186.548.055zm3.428.009c.157-.121.19-.422.065-.577-.081-.101-.134-.117-.375-.117-.322 0-.517.098-.564.285-.081.324.58.634.874.409zm5.977-.176c.166-.281.103-.627-.147-.802-.159-.11-.255-.09-.464.098-.256.231-.262.438-.023.718.256.298.452.294.634-.014zm-2.886.079c.252-.252.241-.57-.025-.723-.136-.079-.152-.078-.398.022-.142.058-.299.16-.35.228-.08.109-.085.146-.036.295.073.222.21.314.467.314.164 0 .234-.028.342-.136zm-9.688-.125c.138-.096.22-.355.162-.508-.063-.164-.276-.322-.435-.322a.536.536 0 0 0-.283.128c-.139.116-.15.145-.127.342.041.364.404.555.683.36zm21.765-.374l.15-.303-.121-.16c-.463-.61-.472-1.282-.03-2.213.09-.191.157-.354.149-.362a6.255 6.255 0 0 0-.572-.31c-.045 0-.359.675-.472 1.02-.09.27-.11.434-.11.88 0 .537.003.554.178.907.158.32.559.844.646.844.018 0 .1-.136.182-.303zm-45.04-1.418c.096-.115.333-.91.39-1.308.076-.526.034-1.323-.087-1.667-.16-.454-.29-.657-.665-1.05-.719-.753-1.144-.837-1.68-.333-.289.271-.131.415.52.474.554.05.726.142.935.5.363.618.504 1.767.334 2.71-.088.485-.087.57.004.661.09.09.181.095.25.013zm1.953-.306c.224-.72.305-1.388.306-2.525.002-1.584-.14-2.063-.814-2.756-.394-.406-.734-.61-1.014-.61-.205 0-.595.244-.707.442-.065.115-.063.133.024.219.074.074.2.104.587.14.435.04.512.062.66.182.228.184.464.625.565 1.056.07.298.084.583.084 1.778 0 .974-.02 1.544-.064 1.807-.074.442-.034.587.159.587.1 0 .127-.04.214-.32zm46.839-.118c.203-.636.26-1.076.233-1.777-.033-.858-.243-1.454-.647-1.835-.08-.077-.155-.13-.166-.119a4.92 4.92 0 0 0-.167.318l-.15.298.115.153c.386.511.45 1.638.149 2.64-.065.219-.113.402-.107.408.016.014.578.348.59.35.006.001.073-.195.15-.436zm-8.736-.055c.328-.329.145-.658-.427-.766-.133-.025-.186-.005-.33.122-.14.122-.173.184-.172.324 0 .208.022.241.236.376.256.16.496.14.693-.056zm-13.067-.164c.194-.104.261-.258.217-.496-.052-.275-.142-.333-.476-.302-.259.023-.303.044-.465.217-.185.2-.237.421-.119.515.204.16.606.192.843.066zm3.621-.096a.798.798 0 0 0 .13-.268c.068-.247-.05-.402-.374-.49-.235-.064-.244-.062-.411.065-.094.072-.184.182-.2.244-.039.156.055.36.21.456.18.111.541.108.645-.007zm6.251-.004c.322-.253.26-.64-.129-.812-.21-.093-.211-.093-.4.003-.105.053-.214.141-.243.196-.073.137-.018.386.11.503.248.225.47.262.662.11zm-2.898-.291a.571.571 0 0 0 .068-.656c-.056-.106-.113-.14-.283-.166-.354-.053-.596.12-.596.425 0 .242.132.43.347.492.251.073.32.059.464-.095zm-10.435-.02a.578.578 0 0 0 .283-.462c0-.163-.18-.307-.463-.373-.224-.051-.256-.048-.347.034-.396.358-.22.796.35.869.02.002.1-.028.177-.068zm-3.154-.137c.168-.169.197-.345.09-.546-.073-.136-.13-.177-.294-.212-.518-.109-.863.287-.573.657.193.244.583.295.777.101zm25.261-1.076c.429-.612 1.21-1.207 1.724-1.311.168-.034.199-.066.364-.38l.18-.343h-.279c-.859 0-1.937.704-2.622 1.713-.106.156-.186.304-.177.329.022.067.531.37.564.335.015-.016.126-.17.246-.343zm-15.485.073c.177-.04.376-.11.441-.152.096-.063.256-.08.83-.084.853-.007 1.462-.118 2.204-.401.522-.2.76-.356.937-.616.185-.271.119-.504-.17-.592-.085-.026-.17.006-.356.134-.328.225-.96.49-1.453.61-.498.12-1.367.14-1.76.041-.233-.06-.299-.059-.545.006l-.588.154c-.335.088-.432.07-.673-.123l-.128-.103-.227.09c-.2.08-.353.09-1.271.089-1.084-.003-1.661-.063-2.56-.266l-.735-.165c-.336-.074-.71-.24-.911-.403-.173-.14-.275-.06-.275.216 0 .306.204.672.444.797.47.246 1.944.601 2.918.703.254.026.806.023 1.466-.008.924-.044 1.096-.041 1.352.025a3.96 3.96 0 0 0 .68.115 2.38 2.38 0 0 0 .38-.067zm-12.737-.069c1.111-.061 1.434-.14 1.592-.389.14-.22.14-.278.001-.408-.104-.098-.132-.101-.445-.057a3.074 3.074 0 0 0-.448.09 3.218 3.218 0 0 1-.539.079c-.361.03-.45.054-.59.165a2.96 2.96 0 0 1-.916.45c-.149.043-.27.087-.27.098 0 .035.702.023 1.615-.028zm-1.576-.355c.32-.076.775-.272.85-.368.08-.102.103-.4.037-.49-.058-.08-.083-.078-.498.05-.505.154-.823.163-1.085.03-.29-.148-.339-.263-.339-.797 0-.357.033-.603.143-1.052.178-.73.467-1.573.672-1.96.275-.52 1.39-1.58 1.76-1.673.175-.044.27-.192.27-.423.003-.649.429-1.503.943-1.892.18-.136.242-.213.242-.304 0-.179-.128-.295-.326-.295-.15 0-.216.047-.579.415-.234.238-.464.523-.537.667-.172.34-.407.986-.407 1.119 0 .132-.112.235-.332.306-.346.112-1.223.978-1.674 1.655-.241.362-.651 1.224-.806 1.694-.251.767-.276 1.287-.101 2.183.108.554.322.861.801 1.146.133.08.605.074.966-.011zm24.026-.234a.405.405 0 0 0 .117-.242c0-.3-.293-.637-.554-.637-.062 0-.162.07-.249.176-.227.276-.188.547.106.727.212.128.437.12.58-.024zm-2.424-.551c.202-.24.159-.6-.09-.755-.27-.167-.534-.111-.664.141-.138.267-.061.491.23.669.219.133.38.116.524-.055zm-16.107-.14c.37-.18.923-.71 1.063-1.018.047-.104.087-.298.087-.429.001-.219.019-.256.208-.442.255-.25.333-.47.307-.873-.026-.4-.18-.616-.557-.779l-.265-.114-.007-.226c-.008-.265-.192-.662-.373-.804-.221-.174-.569-.259-.965-.235-.521.03-.63.102-.782.512-.133.357-.207.71-.15.71.018 0 .09-.04.16-.088.463-.327.929-.422 1.27-.26.293.139.325.399.086.712l-.121.158.228.001c.515.003.868.21.867.51 0 .236-.264.526-.483.53-.073.002-.074.018-.016.157.098.235.027.5-.231.861-.253.354-.579.574-.929.626-.202.03-.881-.035-1.052-.101-.063-.025-.112.032-.226.257l-.146.289h.193c.107 0 .24.025.297.055.428.229 1.058.226 1.537-.008zm-16.064-.097c.253-.112.577-.413.738-.688.17-.29.397-.888.5-1.32.213-.886.028-1.9-.395-2.166-.315-.199-.925-.028-1.456.408-.677.555-1.328 1.754-1.328 2.445 0 .598.51 1.283 1.06 1.424.217.055.63.007.88-.103zm13.691-.06a2.38 2.38 0 0 0 .202-.356l.115-.247-.169-.176c-.228-.24-.404-.532-.585-.973l-.152-.37-.166.251c-.285.433-.337.565-.332.84.007.36.204.73.51.962.276.208.452.23.577.07zm8.96-.457c.28-.16.422-.335.467-.572.04-.214-.115-.453-.393-.607-.265-.146-.488-.109-.833.138-.331.238-.368.37-.203.73.21.456.53.56.963.31zm7.01-.464c.411-.218.606-.508.517-.765-.035-.1-.079-.127-.223-.138-.145-.012-.202.01-.307.119-.216.226-.369.298-.627.298-.192 0-.264-.023-.357-.116-.145-.145-.144-.163.006-.46.121-.24.122-.244.031-.334-.09-.09-.095-.09-.442.031-.41.144-.558.128-.73-.076-.256-.305-.219-.45.278-1.08.174-.22.308-.423.3-.45-.028-.084-.22-.087-.343-.007a1.319 1.319 0 0 1-.354.126c-.22.047-.256.075-.433.336-.106.157-.198.33-.204.388a.685.685 0 0 1-.067.206c-.141.263.009.783.308 1.066.154.146.435.276.599.276.08 0 .133.045.19.164.08.169.342.364.645.48.264.101.973.064 1.214-.064zm11.049-.443c.397-.109.705-.47.879-1.031.188-.61.09-1.115-.405-2.101-.624-1.242-1.977-3.175-3.279-4.682-.618-.716-.759-.844-.86-.78-.167.104-.12.262.208.704.682.92 2.167 3.21 2.784 4.293.404.708.517 1.046.524 1.563.008.542-.08.695-.595 1.035l-.382.253.023.238c.016.17.056.27.142.356.187.187.595.252.96.152zm-4.803-.093c.474-.16.858-.35 1.055-.523.184-.16.452-.537.452-.634 0-.028-.1-.165-.22-.304l-.222-.253-.09.24c-.264.71-1.517 1.17-2.212.816-.167-.085-.29-.257-.29-.405 0-.135-.1-.117-.507.09-.418.211-.8.312-1.185.312-.27 0-.395-.12-.395-.38 0-.103-.017-.189-.04-.189-.02 0-.115.07-.21.154a.804.804 0 0 0-.244.422c-.101.364-.099.373.098.373.094 0 .241.042.325.094.294.182.569.177 1.3-.023.25-.068.266-.067.51.048.57.27 1.353.338 1.875.162zm-4.495-.507c.117-.359.218-.898.218-1.171s-.155-.857-.383-1.45c-.128-.33-.185-.411-.502-.707-.197-.184-.378-.334-.403-.334a.684.684 0 0 0-.183.071l-.14.072.38.573c.207.315.391.629.408.698.016.07.05.152.074.183.078.1.185.645.185.946 0 .295-.047.437-.272.813-.136.226-.127.3.052.416.125.082.402.161.46.131.018-.01.065-.118.106-.241zm-18.79-.047c.06-.098.188-.263.283-.368a.766.766 0 0 0 .207-.392c.04-.233.33-.694.574-.908.135-.119.208-.146.39-.146h.223l.083-.282c.046-.155.083-.302.083-.326 0-.024-.094-.07-.209-.102-.437-.122-.913.073-1.357.557-.527.575-.661 1.139-.464 1.943.028.111.056.202.064.202s.064-.08.124-.178zm9.61-.434c.251-.128.35-.257.373-.489a.673.673 0 0 0-.564-.732c-.374-.06-.854.413-.758.748.073.255.435.563.664.563.06 0 .188-.04.284-.09zm26.524-.46c.303-.153.537-.367.692-.63.11-.188.128-.268.124-.574-.01-.764-.397-1.206-1.396-1.592-.599-.23-.983-.31-1.511-.309-.714.001-1.235.2-1.41.538-.275.532.406 1.602 1.389 2.184.926.549 1.559.663 2.112.383zM47.26 30.25c-.313-.779-.95-2.025-1.256-2.455a37.633 37.633 0 0 0-1.11-1.398 89.97 89.97 0 0 1-.995-1.223c-.09-.118-.434-.475-.764-.795-.644-.623-.684-.643-1.008-.508-.21.088-.263.195-.14.281.143.1 1.58 1.658 2.058 2.23.626.752 1.69 2.169 1.946 2.592.12.2.274.498.34.664.426 1.054.51 1.273.51 1.328 0 .033.134.195.297.36l.296.3.014-.437c.013-.419.005-.458-.188-.939zm-10.763.97c.179-.285.188-.316.128-.431-.065-.126-.045-.282.063-.483.092-.172.338-.341.614-.422.236-.069.334-.072.791-.022.287.03.591.042.677.025.13-.027.15-.048.125-.132a.551.551 0 0 0-.31-.37c-.633-.307-.938-.301-1.634.028-.534.253-.788.469-.95.81-.13.275-.14.482-.042.814.06.2.251.49.325.49.011 0 .107-.138.213-.307zm7.505-1.023c.142-.076.2-.272.13-.44-.046-.11-.143-.18-.458-.326l-.4-.184.195-.168c.153-.131.195-.2.195-.317-.001-.212-.052-.27-.278-.32-.293-.066-.549.019-.95.314l-.35.258h-.492c-.483 0-.492-.002-.441-.097.04-.075.033-.146-.027-.303s-.075-.323-.062-.7c.015-.452.03-.52.18-.815.135-.267.15-.328.094-.365a.23.23 0 0 0-.163-.018c-.312.086-.38.08-.51-.05-.263-.263-.303-.883-.1-1.548.13-.43.126-.56-.02-.56-.147 0-.38.291-.566.712-.166.372-.179.434-.179.852 0 .396.016.482.13.711.072.145.198.309.284.368l.155.107V28.68l.45.427.45.428.36-.028.359-.028.74.383c.614.318.78.384.96.384.121 0 .262-.023.314-.05zm-11.696-.226c.13-.059.346-.19.482-.293l.247-.187-.292-.299-.292-.3-.163.11c-.272.183-.633.263-1.09.24-.442-.023-.674-.111-.968-.37l-.16-.14-.114.122a1.704 1.704 0 0 1-.315.24c-.11.065-.201.136-.201.158 0 .069.41.402.67.544.445.242.756.308 1.392.294.472-.01.61-.03.804-.119zm3.058-.68c.116-.05.276-.14.356-.2.33-.25.39-.262.684-.142.31.128.722.15.81.043.152-.182-.178-.617-.562-.742-.094-.03-.544-.257-1-.505-.736-.4-1.167-.657-1.877-1.12-.25-.163-.611-.213-.748-.105-.114.09-.066.339.08.416.056.03.188.123.292.207.104.083.51.338.9.565.783.454 1.126.694 1.072.75-.077.08-.842.187-1.166.162-.474-.036-.634-.096-1.052-.396-.204-.147-.403-.269-.442-.272-.053-.003-.074.059-.085.248-.012.2.01.293.102.45.211.357.396.491.885.643.42.13.486.138.995.115.386-.018.607-.052.756-.116zm-10.642-.14c.104-.028.533-.22.953-.426.42-.206.786-.375.813-.375.027 0 .161.084.298.187.443.333.874.518 1.409.604l.485.079.413-.205c.227-.112.513-.298.634-.411.183-.172.227-.245.252-.427.028-.209-.018-.348-.116-.348-.021 0-.141.104-.267.231-.34.346-.675.41-1.42.267-.355-.067-.965-.32-.965-.4 0-.02.211-.177.469-.348.614-.41.811-.585.811-.725 0-.126-.122-.21-.306-.21-.183 0-.614.189-1.193.522-.849.49-2.112 1.193-2.365 1.317-.13.064-.285.16-.344.213-.14.128-.14.337-.001.434.125.087.187.09.44.021zm6.771-.617c.362-.184.353-.523-.027-1.034-.195-.261-.242-.277-.35-.12a5.157 5.157 0 0 1-.223.286c-.167.201-.217.493-.11.655a.642.642 0 0 0 .279.187c.253.09.302.093.431.026zm6.327-1.167c.34-.365.678-.908.82-1.32.134-.391.23-1.025.266-1.758l.031-.625.157-.03c.21-.039.303-.14.303-.334 0-.193-.036-.219-.366-.255l-.258-.029-.087-.248c-.133-.376-.552-1.04-.966-1.527-.204-.24-.306-.506-.435-1.133-.158-.761-.253-1.018-.533-1.432a3.373 3.373 0 0 0-1.347-1.187c-.275-.135-.334-.149-.439-.101-.253.115-.14.337.477.94.371.362.703.825.828 1.153.045.12.097.366.116.548.072.691.42 1.49.956 2.195.256.336.48.78.497.98l.015.188-1.256.488c-1.72.667-2.47.94-2.916 1.058-.4.106-.545.214-.545.404 0 .123.16.258.304.258.052 0 .287-.061.523-.137 1.634-.522 2.341-.763 3.132-1.067 1.052-.405 1.001-.418.95.256-.051.68-.28 1.443-.673 2.247-.14.285-.253.553-.253.598 0 .086.156.181.306.186.057.002.212-.123.393-.316zm-11.984.035c.12-.12.12-.266 0-.463a1.232 1.232 0 0 1-.095-.173c0-.042.187-.078.885-.174.86-.118 1.06-.183 1.06-.346 0-.22-.063-.23-1.387-.236l-1.244-.007-.058-.12c-.083-.174-.199-.896-.171-1.07l.023-.145.458.136c.252.076.904.255 1.449.399.545.144 1.129.313 1.298.377.381.143.75.156.791.027.04-.127-.046-.321-.182-.41-.064-.042-.853-.298-1.753-.57-1.94-.584-1.975-.597-1.974-.743 0-.222.476-1.54.8-2.219.105-.222.218-.504.25-.627.055-.211.052-.23-.054-.344-.22-.235-.435-.112-.618.355-.056.143-.31.708-.565 1.256a40.5 40.5 0 0 0-.525 1.162c-.034.091-.075.18-.09.197-.016.017-.188-.01-.384-.06-.347-.09-.358-.09-.474-.003a.347.347 0 0 0-.134.235c-.017.177.085.256.524.406l.297.102.03.593c.03.587.093.86.258 1.113.08.12.078.127-.044.254-.144.151-.162.341-.042.441a.85.85 0 0 0 .503.183c.108 0 .191.039.27.125.205.221.539.442.673.443a.363.363 0 0 0 .225-.094zm11.009-.884c.118-.107.109-.318-.02-.466-.1-.113-.15-.125-.7-.167-1.198-.092-1.612-.05-1.612.165 0 .231.447.372 1.494.469.39.036.72.068.73.072.012.003.06-.03.108-.073zm-5.28-.138a.613.613 0 0 0 .056-.195c0-.157.203-.392.539-.625.482-.333.494-.373.347-1.12-.122-.615-.174-.736-.317-.736-.109 0-.171.08-.224.284l-.043.166-.586.01c-.323.006-.65.033-.728.06-.285.1-.316.077-.316-.23 0-.315-.121-.527-.302-.527-.164 0-.217.081-.166.253.031.106.02.277-.035.58l-.08.43.122.267c.112.245.148.28.453.433.375.19.672.503.672.71 0 .31.49.503.609.24zm3.343-2.774c.226-.063.53-.333.658-.586.137-.267.172-.912.069-1.266-.09-.31-.413-.667-.743-.82-.326-.151-.929-.138-1.288.029-.386.179-.678.465-.804.79-.135.347-.147.885-.026 1.202.093.241.34.492.534.54.215.055.232-.045.053-.305-.307-.446-.326-.951-.055-1.415.127-.216.401-.395.607-.395.11 0 .116.018.134.33.013.238.046.368.116.463.148.2.458.351.778.38.275.025.281.029.254.15a.882.882 0 0 1-.533.591c-.231.085-.335.206-.268.315.039.062.284.06.514-.003zm6.612-.166c.126-.088.135-.241.025-.47-.09-.188-.481-.441-1.218-.786-.505-.237-.715-.275-.925-.166-.135.07-.151.099-.138.25.008.093.046.185.086.203l.237.107c.443.195.805.396 1.033.574.496.388.676.445.9.288zm-12.324-.065c.44-.225.733-.774.721-1.354-.008-.424-.061-.616-.244-.891-.298-.451-.632-.616-1.255-.62-.325-.002-.425.018-.648.127-.336.164-.668.52-.852.914-.134.285-.144.34-.124.698.024.432.123.68.373.93.111.11.175.14.25.117a.515.515 0 0 0 .124-.05c.011-.01-.047-.158-.13-.327-.175-.353-.198-.657-.08-1.054.084-.282.235-.478.522-.676.301-.207.335-.191.369.166.057.611.308.846.9.843l.327-.003-.033.22c-.047.312-.135.458-.402.66-.4.306-.266.528.182.3zm-2.376-4.071c.157-.318.444-.77.77-1.212.42-.567.522-.736.522-.864 0-.178-.098-.257-.319-.257-.24 0-.635.481-1.246 1.517-.472.8-.521 1.332-.124 1.325.14-.002.16-.028.397-.51zm7.757.11a.837.837 0 0 0 .004-.273c-.058-.143-.284-.247-.576-.266-.347-.022-.465.036-.602.296l-.09.172.113.121c.108.114.134.12.423.091.175-.017.36-.01.427.017.226.092.27.069.3-.158zm-5.777.104c.156.003.337.013.403.022.112.014.118.003.118-.217 0-.308-.127-.408-.562-.443-.327-.026-.552.054-.552.196 0 .036-.033.091-.072.124-.046.038-.061.097-.042.16.057.185.122.23.277.189.08-.02.273-.035.43-.031zm-1.577-3.241c-.3-.532-.749-1.427-.795-1.582a6.224 6.224 0 0 0-.22-.518c-.216-.46-.362-.94-.54-1.767-.118-.546-.127-.67-.135-1.935-.01-1.582-.045-1.796-.507-3.194-.154-.465-.28-.913-.28-.995 0-.594.305-1.589.665-2.174l.146-.238-.082-.621c-.045-.342-.092-.59-.103-.552-.011.038-.262.57-.558 1.184-.59 1.225-.732 1.645-.732 2.168 0 .364.139 1.033.378 1.814.33 1.08.31.881.31 3.059v1.991l.23.664c.568 1.629.77 2.02 1.61 3.096l.381.49.235-.235.234-.235-.237-.42zm8.93.711c.128-.042.281-.121.34-.175.165-.149.38-.508.557-.927.186-.44.72-2.127.904-2.85l.126-.498.001-2.395.002-2.394-.124-.498a17.488 17.488 0 0 1-.222-1.09c-.19-1.139-.764-2.485-1.351-3.173-.2-.235-.432-.43-.509-.43-.01 0 .028.292.087.651.094.581.134.711.366 1.197.325.683.575 1.412.724 2.116.136.641.205 1.894.219 3.977.012 1.724.002 1.772-.834 4.37-.32.996-.406 1.197-.68 1.612-.186.28-.186.462 0 .536.143.058.13.059.393-.029zm-6.328-.58c.618-.286 1.147-.437 1.634-.467.542-.033.802.027 1.414.326.259.126.53.23.605.23.118 0 .134-.017.134-.146 0-.112-.061-.21-.267-.426l-.268-.28.028-.25c.133-1.191.371-3.156.39-3.214.012-.039.043-.466.07-.948.025-.482.077-1.004.115-1.16.038-.157.242-.653.453-1.102.312-.664.42-.954.569-1.541.27-1.061.444-1.532.846-2.289.118-.221.198-.601.198-.94 0-.206-.143-1.248-.218-1.593l-.025-.114-.144.143c-.126.126-.152.2-.212.613-.106.714-.22 1.03-.614 1.701-.52.885-.578 1.06-.803 2.451-.134.826-.195 1.032-.512 1.722-.412.899-.472 1.241-.601 3.461-.055.938-.208 2.23-.284 2.397-.052.115-.06.116-.774.13a59.74 59.74 0 0 0-.954.023c-.23.01-.236.007-.403-.225l-.17-.236-.003-1.495c-.002-1.14-.022-1.619-.082-2.016-.154-1.019-.217-1.214-.769-2.371-.389-.815-.504-1.128-.614-1.66-.221-1.075-.495-1.867-.796-2.304-.444-.644-1.057-1.438-1.224-1.584a2.89 2.89 0 0 1-.39-.507c-.199-.32-.37-.475-.443-.403-.013.013.013.285.056.605l.08.581.362.424c.569.666.982 1.24 1.187 1.649.19.381.41 1.214.524 1.99.067.456.366 1.366.717 2.181.447 1.04.488 1.276.589 3.366.076 1.571.124 1.882.364 2.331l.148.278-.244.257c-.134.142-.244.295-.244.34 0 .065.124.256.167.256.005 0 .189-.083.408-.184zm5.187-.217c.085-.09.223-.33.307-.533.085-.204.236-.53.336-.726.108-.211.23-.561.302-.863.066-.28.17-.642.233-.807.253-.673.334-1.435.204-1.933-.12-.463-.355-.122-.507.736-.11.617-.447 1.594-.76 2.203-.1.196-.204.45-.229.563-.079.36-.21.384-.366.07-.14-.285-.119-1.051.046-1.58.316-1.019.353-1.245.41-2.466.029-.64.065-1.231.079-1.316.052-.309-.222-.128-.377.249-.135.326-.176.559-.224 1.271-.052.78-.092.996-.261 1.42-.273.682-.402 1.866-.309 2.832.032.326.087.658.124.736.096.207.283.305.582.306.23.001.27-.014.41-.162zm-6.44-.348a.416.416 0 0 0 .106-.167c.057-.152.02-.355-.139-.744a18.709 18.709 0 0 1-.288-.796c-.172-.508-.183-.575-.21-1.304-.015-.423-.05-.982-.076-1.243-.053-.51-.24-1.327-.358-1.554-.106-.206-.399-.603-.444-.603-.075 0-.08.12-.013.308.216.608.25 1.327.127 2.704-.115 1.29-.049 2.029.237 2.656.253.553.777.922 1.057.743zm22.347 40.7c0-.009.037-.046.083-.082.075-.06.077-.057.018.018-.062.079-.101.104-.101.065z"/></svg>