<svg xmlns="http://www.w3.org/2000/svg" width="64pt" height="64pt" viewBox="0 0 64 64"><path d="M30.902 63.563c-5.754-.266-11.054-1.883-15.789-4.82C8.043 54.358 2.941 47.421.953 39.5a31.638 31.638 0 0 1 .02-15.488c.41-1.598.941-3.16 1.586-4.68.382-.883 1.406-2.883 1.894-3.687C9.035 8.059 16.398 2.742 25.016.793 31.09-.578 37.602-.164 43.363 1.961c1.278.469 2.125.836 3.426 1.484 2.332 1.168 4.367 2.508 6.438 4.25.718.606 2.496 2.336 3.144 3.067 3.41 3.832 5.863 8.445 7.086 13.32 1.695 6.758 1.125 13.855-1.625 20.195-4.434 10.239-14.004 17.473-25.121 18.996-1.938.27-4.055.375-5.809.293zM14.797 48.78c.137-.035.379-.117.531-.187.324-.145.328-.16.067-.602-.2-.332-.5-.59-.86-.738-.152-.063-1.875-.524-3.828-1.02l-3.547-.91-.152-.285-.145-.281-.402-.11c-.766-.203-.68-.226-.824.207l-.13.383-.359-.011c-1.066-.047-1.25.824-.25 1.226.32.129.305.09.243.64l-.036.298.61.203c.332.105.62.199.637.199.015 0 .125-.145.238-.32.113-.172.234-.313.273-.313.032 0 1.621.38 3.532.844 1.902.465 3.515.86 3.585.871.168.031.512-.008.817-.09zm4.187-4.422l10.082-3.804c2.461-.926 4.473-1.703 4.473-1.72 0-.015-.074-.081-.168-.132l-.164-.105-10.16 3.84c-5.59 2.109-10.184 3.859-10.211 3.886-.055.055.184.145.41.153.074 0 2.656-.95 5.738-2.118zM21.86 41.5c5.075-2.152 9.25-3.945 9.274-3.988a.174.174 0 0 0 .012-.14.178.178 0 0 0-.098-.102c-.098-.04-18.594 7.8-18.66 7.902-.063.098.031.238.156.238.05 0 4.238-1.758 9.316-3.91zm-11.007 2.05l12.746-8.585c.457-.305.824-.57.824-.59 0-.02-.535-.125-1.188-.234l-1.183-.207-.246.14c-.29.16-.356.133.773.32.434.075.813.149.852.165.043.027-2.758 1.937-7.696 5.261-4.27 2.871-7.761 5.239-7.765 5.254 0 .04.351.137.418.114a128.25 128.25 0 0 0 2.465-1.637zm-2.82-2.87c.624-.211 1.316-.547 4.32-2.114l4.976-2.593c1.508-.782 2.965-1.535 3.238-1.684.282-.144.508-.254.508-.234 0 .03.352-.164.395-.223.011-.016.222-.133.465-.254.695-.344.703-.355.289-.394-.313-.036-.371-.028-.594.086-.14.07-.258.144-.266.167-.011.02-.508.293-1.105.602-3.38 1.758-6.766 3.523-10.145 5.281-2.093 1.09-2.797 1.313-3.73 1.18-.418-.055-.438-.055-.61.05-.097.06-.156.122-.132.145.113.106.707.188 1.27.176.527-.012.644-.039 1.12-.191zm2.894-3.922a3086.7 3086.7 0 0 1 6.047-3.942c.195-.12.355-.23.355-.246 0-.039-1.832-.25-2.066-.242-.098.004-.57-.008-1.059-.027-.797-.031-.941-.024-1.406.07l-.516.106-3.914 3.859-3.91 3.86.34.171c.187.09.363.156.39.137.028-.016 2.61-1.7 5.739-3.746zm35.242 1.808c-.078-.214-.086-.496-.023-.656l.042-.117-.843-.105c-1.352-.165-4.785-.817-4.934-.934-.027-.024-.25-.066-.496-.102-.418-.058-.5-.054-1.281.07-1.285.212-2.219.25-3.863.18-1.293-.05-2.133-.105-2.641-.175-.195-.024-.203-.02-.254.144l-.055.172.426.289c.441.297 1.059.797 1.086.887.027.07.652.492.684.46.062-.062-.184-.476-.442-.742a6.098 6.098 0 0 0-.582-.515 3.134 3.134 0 0 1-.328-.262c.012-.008.313.008.68.031 2.3.164 3.36.29 7.804.926 2.961.426 4.454.621 4.809.625l.281.004zm1.84.04c.66-.223 1.875-.922 2.234-1.274.324-.32.336-.684.028-.879-.137-.086-.211-.094-.625-.07-.594.035-1.02.129-1.5.324-.766.316-1.61.984-1.676 1.332-.047.254.043.543.21.633.235.125.86.094 1.329-.067zm5.668-1.586c.008-.004-.024-.09-.074-.192l-.086-.183-1.157.03c-.64.02-1.238.044-1.336.06-.164.019-.18.042-.183.187l-.008.164 1.414-.027c.477-.008.957-.02 1.43-.04zm3.804.023c.91-.047 4.493-.371 4.63-.414.097-.035 0-.09-.36-.215-.258-.082-.281-.082-1.613.05-1.903.188-2.801.24-4.2.24-1.152 0-1.214.003-1.16.089a.84.84 0 0 0 .207.191c.141.102.207.11.868.11.394 0 1.128-.024 1.628-.051zm-3.054-.156a4.2 4.2 0 0 1-.203-.473c-.094-.289-.102-.383-.078-1.047.02-.508.058-.855.128-1.14.055-.223.102-.41.09-.414a1.122 1.122 0 0 0-.172-.067c-.152-.047-.156-.047-.207.129-.25.887-.304 2.133-.109 2.656.168.45.223.512.45.512h.195zm-12.356-.422c.813-.156 1.746-.29 2.25-.324.512-.036 2.414.043 3.27.129.484.054.55.05.945-.055a3.07 3.07 0 0 0 .41-.121c-.023-.028-1.125-.168-1.738-.223a33.728 33.728 0 0 0-2.07-.066c-1.344 0-1.473.008-2.215.133-1.246.218-2.395.437-2.375.457.035.035.687.156.855.16.09 0 .387-.04.668-.09zm21.727.004c.133-.032.105-.059-.52-.547a30.626 30.626 0 0 0-3.777-2.574c-.867-.496-3.254-1.653-3.398-1.653-.34 0-.79.348-1.153.89-.246.368-.496.856-.46.892.027.027 1.23.441 2.8.972.828.274 1.895.649 2.367.824l1.813.676c.531.203 1.097.414 1.258.48.242.102.347.118.617.098.148-.011.304-.03.453-.058zm-42.774-3.262l.27-.14-.168-.028c-.098-.016-.86-.117-1.7-.227l-1.519-.19-.215.132c-.117.07-.21.144-.21.16 0 .023 2.906.422 3.152.43.066 0 .242-.063.394-.137zm29.61-.23c.976-.192 1.836-.72 2.25-1.387.094-.156.199-.281.23-.281.11 0 .996.52 1.18.687.191.18.195.18.16.465l-.035.281.16-.246c.246-.383.516-.676.777-.851.141-.094.25-.18.254-.196 0-.031-1.48-.66-2.023-.855a7.604 7.604 0 0 1-.961-.48c-2.273-1.337-4.758-2.403-5.898-2.532-.27-.035-.282-.027-.332.098-.07.195-.06.273.042.273.083 0 .083.012-.03.23-.102.196-.114.274-.09.524.03.383.18.766.433 1.121.11.156.223.34.246.414.281.793-1.957 1.262-4.492.945-.223-.027-.441-.062-.664-.097-.207-.043 1.012.57 1.59.793 1.406.558 2.96.902 5.035 1.12.937.102 1.55.095 2.168-.026zm-37.078-1.27c-.23-.453-.258-1.125-.086-1.86l.074-.316.625-.285c1.398-.64 1.676-.754 2.047-.86.367-.109.414-.109.887-.05.277.035.562.07.648.086.145.02.145.015-.094-.195-.222-.2-.265-.223-.64-.274-.22-.031-.735-.113-1.141-.176a75.023 75.023 0 0 0-1.402-.215 38.332 38.332 0 0 1-1.227-.203c-.5-.09-.582-.117-.75-.27a1.776 1.776 0 0 1-.297-.362c-.097-.165-.129-.184-.297-.184-.105 0-.187.008-.187.023 0 .067.219.454.355.622.274.343.633.468 1.887.664l.348.058-.371.371c-.61.614-.871 1.242-.922 2.25-.028.567.011.903.152 1.235.066.164.09.175.29.175h.214zm26.03-1.05c.09-.044.157-.118.157-.165 0-.043-.101-.168-.226-.273-.528-.453-1.407-1.367-1.36-1.41.016-.02.133-.032.266-.032.84 0 3.117-.238 4.625-.488 1.406-.227 2.234-.336 2.582-.336.3 0 .332-.027.434-.367.113-.379 2.933-9.3 3.039-9.617l.093-.282-.422-.488c-.23-.265-.41-.496-.398-.508.012-.011.496.043 1.078.125 1.672.23 4.09.52 4.926.59.59.043.832.047 1.05.004.645-.129.786-.492.34-.894a1.426 1.426 0 0 0-.296-.203c-.086-.047-1.887-.368-4.196-.743l-4.043-.664-.105-.308c-.082-.262-.149-.356-.406-.582-.352-.313-.86-.582-1.012-.536-.148.047-.184.137-.25.622l-.059.425h-.808l-.11.223a1.542 1.542 0 0 0-.109.262c0 .02.133.097.3.168l.298.125-.258.207c-.14.113-.258.23-.258.258 0 .027.133.117.29.199.16.09.296.18.304.207.008.023-2.239 1.976-4.996 4.34-2.047 1.754-4.09 3.507-6.121 5.27-1.356 1.19-1.707 1.464-1.977 1.558-.613.218-2.848.176-7.203-.13-.781-.05-1.445-.085-1.48-.077-.118.039 1.769.933 3.16 1.492l.8.328-.3.16c-.34.18-.325.18-1.7.02-.547-.067-5.957-.844-6.418-.926l-.168-.027.247.222c.699.645 3.558 1.528 6.039 1.86.902.117 1.878.152 3.011.105 1.086-.047 3.11-.02 4.657.063.867.043 4.359.27 4.828.308.12.008.62.016 1.11.008.733-.004.913-.02 1.046-.094zm-10.644-5.575c.575-1.031 1.047-1.93 1.047-1.996.008-.29-.136-.34-1.195-.461-.934-.102-1.762-.094-2.297.023-.855.188-.976.262-3.176 1.825l-1.414 1.004-.398-.286c-.66-.464-1.574-1.203-4.207-3.39-3.977-3.305-6.281-5.262-7.102-6.024a2.994 2.994 0 0 0-.668-.472c-.988-.457-2.738-.551-3.832-.211-.363.11-.39.133-.332.203.07.086.7.805.805.922.047.05.133.047.473-.016.628-.117 1.683-.078 2.113.082.676.254 1.379.793 3.879 2.973 4.175 3.644 6.87 5.726 9.18 7.101l.374.22.98.077c.81.063 3.052.215 4.212.29.547.034.398.21 1.558-1.864zm-13.593 1.125c-.059-.078-1.961-2.262-4.215-4.852-2.817-3.23-4.14-4.714-4.219-4.722a.607.607 0 0 0-.219.023c-.101.04-.03.13.989 1.305l3.656 4.2 2.555 2.937-.485-.032a39.305 39.305 0 0 1-.996-.09c-.469-.042-.52-.042-.613.04-.16.144-.235.379-.235.765 0 .422-.023.403.641.422.203.004.926.031 1.598.067.68.035 1.328.066 1.445.07l.215.008-.113-.141zm0 0"/></svg>