<svg xmlns="http://www.w3.org/2000/svg" width="64" height="64"><path d="M30.311 62.956A30.97 30.97 0 0 1 8.176 51.832a30.768 30.768 0 0 1-6.22-12.175 31.238 31.238 0 0 1-.353-13.776c1.954-9.783 8.608-18.105 17.743-22.189a31.117 31.117 0 0 1 23.222-.844C53.048 6.65 60.712 15.83 62.561 26.792c1.176 6.97-.026 14.073-3.417 20.191A31.078 31.078 0 0 1 42.66 61.117c-3.875 1.426-8.16 2.064-12.349 1.839zM19.24 58.162c0-.118-.033-.18-.139-.258-.192-.142-.283-.476-.283-1.041s.09-.898.283-1.04c.106-.079.14-.141.14-.259 0-.2-.105-.205-.362-.02-.335.243-.522.861-.468 1.55.044.571.218.95.519 1.134.224.137.31.118.31-.066zm.593.065c.362-.22.533-.658.533-1.364 0-.706-.171-1.143-.533-1.364-.207-.127-.264-.114-.264.057 0 .1.049.201.157.32.202.224.29.644.25 1.2-.03.44-.112.673-.287.825a.318.318 0 0 0-.12.26c0 .18.054.194.264.066zm4.052-.072c0-.117-.028-.177-.098-.215-.055-.03-.144-.151-.2-.272-.086-.187-.101-.303-.101-.805s.015-.618.101-.805c.056-.12.145-.243.2-.272.07-.037.098-.098.098-.215 0-.188-.041-.198-.276-.066-.354.199-.527.623-.536 1.311-.006.522.066.853.246 1.137.118.187.36.36.507.363.036 0 .059-.062.059-.161zm.665.046c.5-.34.659-1.564.298-2.3-.13-.266-.293-.417-.509-.47-.119-.03-.126-.023-.126.135 0 .12.027.182.094.218.051.028.141.14.199.248.094.177.106.264.106.831 0 .568-.011.654-.106.831-.058.109-.148.22-.2.248-.065.035-.093.098-.093.213 0 .2.091.213.337.046zm3.745-.023a.235.235 0 0 0-.115-.215.888.888 0 0 1-.223-.295c-.094-.19-.108-.29-.108-.782 0-.647.049-.83.282-1.056.11-.107.164-.201.164-.29 0-.159-.097-.172-.311-.041-.396.241-.555.698-.523 1.5.026.619.11.87.371 1.113.27.25.463.278.463.066zm.563.069c.417-.216.655-1.052.52-1.828-.097-.553-.336-.904-.676-.989-.116-.03-.126-.02-.126.116 0 .105.046.193.158.305.198.198.264.455.264 1.024 0 .552-.092.888-.283 1.029-.105.078-.139.14-.139.258 0 .177.066.197.282.085zm2.11-.066c0-.092-.05-.187-.16-.296-.207-.208-.28-.473-.28-1.022 0-.555.074-.82.281-1.016.185-.174.23-.438.073-.438-.127 0-.388.19-.51.372-.176.26-.224.505-.223 1.129 0 .509.015.617.107.82.124.27.213.38.408.5.21.13.305.114.305-.049zm.614.03c.362-.244.488-.592.488-1.348 0-.577-.052-.83-.222-1.082-.113-.168-.38-.372-.487-.372-.12 0-.073.282.075.45.189.215.255.476.255 1.004s-.066.789-.255 1.004a.483.483 0 0 0-.139.304c0 .177.068.186.285.04zm1.92-.04a.483.483 0 0 0-.138-.304c-.188-.214-.253-.474-.253-1.004 0-.535.07-.812.254-.996.098-.098.137-.183.137-.298 0-.191-.063-.203-.285-.054-.361.244-.487.592-.487 1.348 0 .756.126 1.104.487 1.348.218.146.285.137.285-.04zm.6.08c.185-.095.32-.255.441-.52.093-.204.107-.311.108-.821 0-.624-.048-.869-.223-1.13-.123-.182-.383-.371-.51-.371-.156 0-.113.264.072.438.208.196.281.461.281 1.016 0 .55-.072.814-.28 1.022-.109.109-.16.204-.16.296 0 .155.073.174.272.07zm2.028-.09a.346.346 0 0 0-.117-.265c-.206-.193-.283-.484-.28-1.056.003-.562.1-.894.299-1.018.07-.044.098-.109.098-.237 0-.193-.035-.21-.226-.11-.183.095-.318.255-.44.52-.096.208-.109.306-.109.868 0 .56.013.66.108.866.125.271.214.381.409.501.203.126.258.11.258-.069zm.66.05c.333-.225.46-.532.498-1.207.041-.718-.152-1.282-.515-1.503-.224-.136-.315-.121-.315.052 0 .102.045.186.16.294.206.195.279.458.279 1.016 0 .553-.072.815-.279 1.022-.109.109-.16.204-.16.296 0 .17.108.18.332.03zm-14.688-1.395v-1.454h-.137c-.115 0-.146.026-.191.163-.072.22-.244.345-.522.381-.213.029-.23.04-.23.163 0 .133.002.133.341.147l.34.014.013 1.02.012 1.02h.374v-1.454zm4.55 0v-1.454h-.13c-.108 0-.143.03-.19.163-.078.213-.247.34-.504.38-.19.028-.207.042-.207.166v.135h.656v2.064h.376v-1.454zm12.199 0v-1.454h-.139c-.119 0-.152.03-.23.207-.104.236-.196.298-.497.34-.196.026-.213.04-.213.16 0 .133.001.133.34.147l.34.014.013 1.02.012 1.02h.374v-1.454zm1.771.012l-.012-1.443-.127-.014c-.11-.013-.141.013-.227.195-.076.162-.141.228-.284.285-.102.04-.237.074-.301.074-.098 0-.117.022-.117.14v.141h.657v2.064h.424l-.013-1.442zm1.747-.012v-1.454h-.137c-.115 0-.146.026-.19.163-.071.213-.238.34-.497.38-.19.028-.208.042-.208.166v.135h.657v2.064h.375v-1.454zm1.96.012l-.013-1.443-.123-.014c-.106-.012-.139.016-.225.195-.078.16-.145.227-.288.284a1.051 1.051 0 0 1-.303.075c-.098 0-.116.022-.116.14v.141h.656v2.064h.424l-.012-1.442zm-31.351-3.154c-.175-.183-.259-.51-.259-1.009 0-.5.09-.85.257-1.008a.349.349 0 0 0 .118-.287c0-.157-.01-.172-.103-.148-.2.052-.496.408-.584.7-.109.362-.11 1.116-.004 1.47.09.3.317.595.524.682l.144.06.015-.166c.011-.128-.014-.195-.108-.294zm.695.404c.322-.135.526-.5.598-1.067.11-.883-.205-1.674-.72-1.802-.12-.03-.128-.023-.128.115 0 .11.046.192.182.322.212.203.287.468.287 1.018s-.075.815-.287 1.019c-.134.127-.182.212-.182.316 0 .16.031.17.25.08zm2.236-.084c0-.106-.044-.19-.159-.302-.196-.19-.282-.505-.282-1.028 0-.522.086-.837.282-1.028.115-.11.16-.195.16-.302 0-.17 0-.169-.207-.082-.21.088-.345.237-.492.544-.113.238-.123.307-.123.868 0 .562.01.63.123.868.145.303.28.455.482.543.205.09.216.085.216-.08zm.561.055c.369-.188.565-.67.565-1.384 0-.759-.238-1.279-.652-1.423-.144-.05-.145-.049-.145.108 0 .112.04.198.137.295.187.187.257.465.257 1.02 0 .554-.07.832-.257 1.019-.098.098-.137.183-.137.298 0 .088.011.16.025.16.014 0 .107-.042.207-.093zm2.16-.066c0-.119-.03-.178-.121-.238-.233-.153-.322-.451-.322-1.08 0-.63.089-.928.322-1.081.092-.06.121-.12.121-.242 0-.146-.01-.159-.105-.13-.352.11-.556.346-.671.779-.08.297-.089.972-.018 1.3.067.315.281.638.498.753.252.133.296.124.296-.06zm.72-.067c.35-.33.49-1.035.355-1.77-.085-.458-.313-.793-.617-.908-.128-.048-.13-.047-.13.139 0 .126.024.197.073.216.216.083.366.789.3 1.407-.039.35-.176.689-.3.736-.049.019-.072.09-.072.216 0 .185.001.187.129.139a.975.975 0 0 0 .262-.175zm5.567.082c0-.103-.046-.187-.16-.294-.21-.198-.281-.463-.281-1.04s.071-.841.281-1.04c.153-.143.214-.351.12-.41-.07-.042-.428.167-.53.31-.37.52-.367 1.765.004 2.286.1.14.385.326.507.33.035.001.059-.057.059-.142zm.68-.024c.064-.042.181-.208.26-.369.245-.496.244-1.424-.002-1.901-.142-.276-.534-.577-.628-.483-.078.077-.016.273.13.415.195.19.28.5.282 1.028.002.52-.085.837-.282 1.028-.146.142-.208.339-.13.416.034.034.21-.03.37-.134zm3.738-.251c-.15-.12-.247-.365-.286-.723-.067-.618.083-1.324.3-1.407.048-.019.072-.09.072-.216 0-.186-.002-.187-.13-.14-.413.157-.668.701-.668 1.427 0 .718.257 1.274.657 1.422.11.041.118.034.132-.123.011-.122-.01-.187-.077-.24zm.7.323c.227-.116.44-.43.509-.755.07-.328.06-1.003-.018-1.3-.116-.433-.32-.67-.671-.778-.094-.03-.106-.017-.106.114 0 .107.044.189.16.298.21.198.281.462.281 1.04 0 .576-.071.84-.281 1.039-.114.107-.16.191-.16.294 0 .17.035.176.286.048zm3.82-.373c-.175-.182-.259-.51-.259-1.008 0-.5.09-.85.257-1.008a.349.349 0 0 0 .118-.287c0-.157-.01-.172-.102-.148-.2.052-.497.408-.586.7-.112.368-.112 1.115 0 1.481.09.301.31.581.523.672.142.06.142.06.157-.107.011-.128-.013-.195-.108-.295zm.861.295c.458-.349.598-1.525.269-2.246-.117-.253-.34-.46-.556-.513-.12-.03-.13-.023-.13.115 0 .11.047.192.183.322.212.203.287.468.287 1.018s-.075.815-.287 1.019c-.136.13-.182.211-.182.322 0 .137.009.145.129.115.07-.018.2-.086.287-.152zm2.07.009c0-.132-.024-.176-.12-.22-.267-.122-.421-.751-.347-1.414.046-.408.174-.692.346-.77.097-.045.121-.09.121-.221 0-.18-.02-.19-.22-.115-.307.116-.535.45-.62.91-.167.904.093 1.739.606 1.943.2.08.234.063.234-.113zm.844-.24c.171-.27.236-.568.235-1.087 0-.457-.08-.815-.236-1.068-.104-.167-.34-.348-.456-.348-.096 0-.07.302.034.397.18.163.26.48.26 1.033 0 .554-.08.871-.26 1.034-.061.055-.092.144-.092.265v.181l.19-.097a.92.92 0 0 0 .325-.31zm1.924.236c0-.123-.03-.194-.113-.259-.2-.156-.285-.473-.285-1.05 0-.576.086-.893.285-1.05.082-.065.113-.135.113-.258 0-.093-.011-.17-.025-.17-.064 0-.382.187-.454.267-.448.495-.432 2.018.026 2.447.103.096.353.241.418.242.02 0 .035-.076.035-.169zm.52.122c.116 0 .422-.356.517-.602.138-.355.152-1.165.029-1.567-.094-.307-.313-.583-.536-.676-.204-.085-.201-.086-.201.104 0 .128.033.195.14.285.19.16.282.494.282 1.025 0 .52-.089.848-.28 1.031-.104.1-.142.18-.142.297 0 .127.015.154.074.132a.43.43 0 0 1 .117-.029zm3.937-.137c0-.144-.02-.191-.094-.215-.447-.142-.447-2.016 0-2.157.074-.024.094-.071.094-.22 0-.153-.014-.184-.074-.16a.428.428 0 0 1-.116.028c-.081 0-.38.299-.465.466-.246.482-.246 1.444 0 1.926.13.254.423.496.62.513.02.002.035-.08.035-.181zm.568.088c.235-.12.442-.436.515-.788.031-.151.046-.478.034-.767-.019-.442-.038-.537-.16-.774-.139-.272-.375-.483-.541-.483-.136 0-.117.267.026.38.2.157.285.474.285 1.05 0 .577-.086.894-.285 1.05-.082.065-.113.136-.113.259 0 .093.011.17.025.17.014 0 .11-.044.214-.097zm4.077-.088c0-.138-.022-.192-.086-.212-.047-.015-.136-.117-.198-.226-.098-.172-.116-.273-.13-.74-.021-.651.035-.895.254-1.114.121-.122.16-.2.16-.325 0-.13-.015-.159-.074-.136a.43.43 0 0 1-.117.029c-.116 0-.423.356-.52.601-.141.363-.154 1.22-.023 1.596.1.288.317.557.522.646.204.089.212.084.212-.12zm.565.09c.377-.193.56-.647.56-1.384 0-.752-.191-1.212-.577-1.385l-.196-.089-.015.165c-.012.13.01.185.102.257.202.159.288.473.288 1.052 0 .577-.086.894-.285 1.05-.083.065-.114.136-.114.259 0 .093.012.17.026.17.014 0 .108-.044.21-.096zm-37.545-1.419l.012-1.442h-.161c-.14 0-.165.018-.19.134-.045.202-.217.336-.478.373-.215.03-.229.041-.242.185l-.015.152h.663v1c0 .551.015 1.017.033 1.035.019.019.108.027.2.02l.165-.014.013-1.443zm9.711 0l.013-1.442h-.156c-.135 0-.163.021-.215.165-.072.2-.234.314-.493.348-.178.024-.195.039-.208.179l-.015.152h.663v1c0 .551.015 1.017.034 1.035.018.019.108.027.199.02l.166-.014.012-1.443zm1.7.012v-1.454h-.137c-.116 0-.146.026-.192.167-.068.205-.284.348-.527.348-.17 0-.176.006-.176.165v.164h.657v2.064h.375v-1.454zm4.728-.012l.012-1.442h-.156c-.135 0-.163.021-.215.165-.072.2-.233.314-.493.348-.177.024-.194.039-.208.179l-.014.152h.662v1c0 .551.015 1.017.034 1.035.018.019.108.027.2.02l.165-.014.013-1.443zm4.42.012v-1.454h-.14c-.113 0-.152.029-.204.152-.094.222-.227.319-.484.356-.214.03-.228.04-.242.184l-.014.152h.709v2.064h.376v-1.454zm10.181 0v-1.454h-.133c-.111 0-.149.032-.22.19-.1.22-.185.276-.485.32-.203.028-.217.04-.217.17v.14l.34.014.34.014v2.06h.375v-1.454zm4.54-.012l.012-1.442h-.155c-.135 0-.163.021-.215.165-.073.2-.234.314-.493.348-.178.024-.195.039-.208.179l-.015.152h.663v1c0 .551.015 1.017.033 1.035.019.019.108.027.2.02l.165-.014.013-1.443zm4.598 0l.012-1.442h-.161c-.14 0-.165.018-.191.134-.044.202-.216.336-.477.373-.215.03-.229.041-.243.185l-.014.152h.662v1c0 .551.015 1.017.034 1.035.018.019.108.027.2.02l.165-.014.013-1.443zm-23.165-2.85c0-.123-.021-.187-.062-.187-.098 0-.297-.242-.366-.446-.037-.11-.063-.39-.063-.68 0-.29.026-.57.063-.68.07-.205.268-.446.366-.446.04 0 .062-.064.062-.185v-.184l-.153.044c-.52.148-.762.667-.73 1.562.022.582.124.9.365 1.13.101.097.37.234.506.258a.737.737 0 0 0 .012-.186zm-16.796-.001c0-.1-.048-.19-.157-.3-.198-.197-.265-.455-.265-1.012 0-.557.067-.815.265-1.013.18-.18.223-.442.074-.442-.155 0-.432.235-.55.468-.208.411-.26 1.154-.117 1.691.069.258.299.583.473.67.228.112.277.1.277-.062zm.61.042c.089-.055.19-.134.225-.176.237-.29.356-.926.287-1.539-.065-.583-.316-.984-.672-1.073-.114-.029-.122-.02-.122.137 0 .122.027.182.099.22.054.029.143.151.199.272.087.187.101.303.101.805 0 .52-.012.611-.11.81-.06.123-.15.245-.2.271-.06.033-.089.099-.089.21 0 .191.052.203.281.063zm3.472-.07c0-.123-.031-.193-.117-.26-.167-.132-.259-.493-.259-1.024 0-.532.092-.893.26-1.025.085-.067.116-.136.116-.26 0-.196-.05-.21-.268-.077-.353.215-.56.83-.514 1.527.04.61.216 1.015.518 1.2.213.13.264.114.264-.08zm.64.08c.361-.22.532-.659.532-1.364 0-.706-.17-1.144-.533-1.365-.225-.137-.311-.119-.311.067 0 .115.028.171.11.214.299.16.448.94.307 1.61-.064.3-.162.479-.308.557-.08.043-.109.1-.109.215 0 .185.086.203.311.066zm3.441-.057c0-.1-.05-.201-.157-.32-.2-.221-.29-.646-.25-1.169.036-.477.1-.678.268-.836.099-.093.14-.176.14-.284 0-.163-.041-.183-.203-.1-.405.207-.595.655-.595 1.398 0 .71.17 1.147.533 1.368.207.126.264.114.264-.057zm.69.012c.674-.49.62-2.341-.08-2.703-.216-.112-.281-.092-.281.085 0 .118.033.18.139.258.192.142.283.476.283 1.04 0 .566-.091.9-.283 1.042-.106.077-.14.14-.14.258 0 .2.105.205.361.02zm3.673-.022c0-.119-.026-.168-.111-.207-.061-.028-.161-.153-.223-.277-.1-.202-.111-.29-.111-.813 0-.523.012-.611.111-.813.062-.125.162-.25.223-.278.086-.039.111-.087.111-.213 0-.158-.004-.161-.151-.132-.202.04-.485.324-.587.589-.12.311-.118 1.392.003 1.691.097.24.226.395.43.522.219.136.305.116.305-.069zm.623.038c.66-.45.656-2.238-.008-2.683-.226-.151-.286-.138-.286.063 0 .124.03.193.116.26.166.131.259.494.259 1.012 0 .543-.066.817-.24 1.004a.425.425 0 0 0-.135.304c0 .192.058.2.294.04zm4.163.049c.171-.089.35-.322.453-.59.06-.155.08-.356.08-.794 0-.637-.056-.866-.279-1.158-.101-.133-.33-.297-.416-.297-.014 0-.026.077-.026.17 0 .111.04.216.116.307.163.193.225.462.225.978s-.062.784-.225.978a.47.47 0 0 0-.116.307c0 .193.003.194.188.099zm3.753-.094c0-.11-.022-.164-.066-.164-.099 0-.299-.26-.354-.46-.197-.707-.035-1.613.315-1.768.078-.034.105-.086.105-.2 0-.129-.017-.153-.11-.153-.149 0-.403.178-.534.372-.17.253-.223.506-.223 1.083 0 .576.052.83.223 1.082.13.195.385.372.533.372.095 0 .11-.023.11-.164zm.507.098c.183-.095.318-.255.44-.521.096-.207.108-.306.108-.867 0-.562-.012-.66-.107-.868-.123-.266-.258-.425-.441-.52-.175-.091-.179-.089-.179.103 0 .111.04.216.116.307.167.198.231.47.231.978s-.064.78-.23.978a.47.47 0 0 0-.117.307c0 .191.004.194.179.103zm1.98-.08c0-.101-.05-.202-.158-.322-.2-.22-.29-.645-.25-1.168.036-.477.1-.678.268-.836.099-.093.14-.176.14-.284 0-.163-.04-.183-.203-.1-.404.207-.595.655-.595 1.398 0 .71.17 1.147.533 1.368.207.126.264.114.264-.057zm.688.01c.663-.48.632-2.267-.045-2.68-.23-.14-.315-.122-.315.063 0 .118.033.18.139.258.192.142.283.476.283 1.04 0 .566-.09.9-.283 1.042-.106.077-.14.14-.14.258 0 .2.105.205.361.02zm3.674-.023a.425.425 0 0 0-.134-.304c-.174-.186-.24-.46-.24-.991 0-.531.066-.806.24-.992a.425.425 0 0 0 .134-.303c0-.193-.058-.2-.294-.04-.37.252-.573.988-.468 1.707.081.557.301.928.622 1.048.127.048.14.036.14-.125zm.606.091c.393-.203.58-.66.576-1.405-.005-.823-.258-1.328-.71-1.419-.137-.027-.143-.022-.143.134 0 .126.025.174.111.213.061.028.162.153.223.278.1.202.112.29.112.813 0 .522-.013.61-.112.813-.061.124-.162.25-.223.277-.085.039-.111.088-.111.207 0 .178.065.199.277.09zm1.928-.089c0-.119-.027-.168-.111-.207-.062-.028-.162-.153-.223-.277-.1-.202-.112-.29-.112-.813 0-.505.015-.618.103-.81.06-.131.152-.244.223-.277.095-.043.12-.088.12-.217 0-.156-.006-.161-.143-.134-.452.09-.705.596-.71 1.419-.004.74.157 1.149.546 1.386.221.135.307.115.307-.07zm.66.014c.467-.33.61-1.596.257-2.292-.113-.223-.393-.474-.53-.474-.119 0-.067.31.079.466.187.2.254.529.229 1.133-.016.389-.041.53-.125.69-.058.112-.136.214-.173.229-.044.016-.069.092-.069.212 0 .17.009.183.106.153a.998.998 0 0 0 .225-.117zm3.515-.021c0-.11-.022-.164-.066-.164-.098 0-.299-.26-.354-.46-.196-.707-.035-1.613.316-1.768.08-.036.104-.086.104-.22 0-.173 0-.173-.152-.13-.303.087-.546.354-.656.72-.032.106-.058.435-.058.732 0 .576.052.83.222 1.082.131.195.386.372.534.372.095 0 .11-.023.11-.164zm.567.057c.37-.249.49-.59.488-1.394 0-.51-.015-.617-.108-.82-.121-.266-.256-.426-.44-.522-.174-.09-.178-.088-.178.104 0 .111.04.216.116.307.166.198.23.47.23.978s-.064.78-.23.978a.47.47 0 0 0-.116.307c0 .198.026.205.238.062zm3.843-.046c0-.124-.026-.164-.138-.213-.088-.04-.177-.141-.246-.282-.096-.194-.108-.288-.108-.806 0-.512.013-.614.104-.799a.817.817 0 0 1 .247-.296c.106-.063.141-.118.141-.221 0-.108-.02-.139-.096-.139-.236 0-.551.276-.676.591-.173.437-.165 1.345.015 1.76.13.3.428.554.652.557.088 0 .105-.024.105-.152zm.596.018c.662-.48.631-2.268-.046-2.681-.206-.125-.221-.12-.221.088 0 .12.03.208.094.266.147.133.234.507.234 1.008 0 .5-.087.875-.234 1.008-.095.086-.139.446-.054.446a.944.944 0 0 0 .227-.135zm3.674-.022c0-.119-.027-.168-.112-.207-.06-.028-.161-.153-.223-.277-.099-.202-.111-.29-.111-.813 0-.523.012-.611.111-.813.062-.125.162-.25.223-.278.086-.039.112-.087.112-.213 0-.156-.007-.161-.143-.134-.455.091-.705.595-.707 1.426-.002.745.154 1.142.543 1.379.221.135.307.115.307-.07zm.659.014c.468-.33.61-1.596.258-2.292-.113-.223-.393-.474-.53-.474-.112 0-.065.28.078.46.183.232.238.462.238.995 0 .533-.055.762-.238.994a.57.57 0 0 0-.137.32c0 .13.012.143.106.114a.997.997 0 0 0 .225-.117zM8.449 48.419v-1.454h-.137c-.115 0-.152.032-.235.203-.105.217-.222.294-.521.342-.167.026-.186.043-.186.164v.135h.656v2.064h.422V48.42zm1.595 0v-1.454h-.137c-.114 0-.152.032-.235.203-.105.217-.222.294-.521.342-.167.026-.186.043-.186.164v.135h.657v2.064h.422V48.42zm4.128 0v-1.454h-.138c-.119 0-.152.03-.23.207-.105.237-.178.286-.488.333-.206.03-.223.043-.223.167 0 .133.001.133.34.147l.34.013.013 1.02.013 1.021h.373V48.42zm4.082 0v-1.454h-.137c-.115 0-.146.026-.191.163-.07.212-.238.34-.496.379-.191.029-.208.042-.208.167v.135h.657v2.064h.375V48.42zm4.305.012l-.012-1.443-.143-.014c-.125-.012-.149.006-.201.151-.078.216-.247.343-.504.382-.19.029-.208.042-.208.167v.135h.657v2.064h.423l-.012-1.442zm4.304-.012v-1.431l-.142-.014c-.125-.012-.15.006-.202.151-.078.216-.247.343-.504.382-.19.029-.208.042-.208.167v.135h.657v2.07l.2-.015.199-.014v-1.431zm4.235.012l-.013-1.443-.13-.015c-.11-.013-.14.01-.198.148-.09.217-.267.348-.52.386-.19.029-.207.042-.207.167v.135h.656v2.064h.424l-.012-1.442zm6.85 0l-.013-1.443-.142-.014c-.126-.012-.15.006-.202.151-.078.216-.247.343-.504.382-.19.029-.208.042-.208.167v.135h.657v2.064h.424l-.013-1.442zm6.672-.012v-1.454h-.14c-.122 0-.153.026-.218.189-.084.21-.229.307-.528.355-.174.027-.193.044-.193.165v.135h.657v2.064h.422V48.42zm4.316 0v-1.454h-.14c-.122 0-.153.026-.218.189-.084.21-.228.307-.528.355-.174.027-.193.044-.193.165v.135h.657v2.064h.422V48.42zm4.4.012l-.013-1.443-.142-.014c-.125-.012-.15.006-.202.151-.078.216-.247.343-.504.382-.19.029-.208.042-.208.167v.135h.657v2.064h.424l-.013-1.442zM7.228 45.585c0-.119-.04-.2-.16-.32-.22-.218-.275-.462-.255-1.114.014-.466.031-.567.126-.727a.995.995 0 0 1 .2-.25c.116-.08.13-.41.015-.366a.43.43 0 0 1-.117.028c-.116 0-.423.356-.52.602-.141.362-.154 1.22-.023 1.596.1.288.317.556.522.645.202.088.212.084.212-.094zm.76-.06c.047-.042.143-.195.214-.339.121-.248.128-.298.128-.919 0-.611-.008-.675-.123-.92-.122-.26-.336-.468-.545-.532-.096-.03-.106-.017-.106.14 0 .127.03.196.114.262.2.157.285.473.285 1.05 0 .577-.086.893-.285 1.05-.083.065-.114.135-.114.26v.169l.175-.073c.095-.04.212-.107.258-.149zm5.763.173c.082 0 .38-.3.464-.465.183-.361.243-1.017.139-1.515-.1-.48-.343-.799-.687-.903-.097-.03-.106-.017-.106.151 0 .147.022.193.11.234.443.201.43 2.004-.015 2.146-.074.023-.095.07-.095.22 0 .153.015.183.075.16a.428.428 0 0 1 .115-.028zm2.015-.12c0-.129-.032-.195-.14-.286-.217-.182-.298-.528-.272-1.162.022-.56.081-.742.294-.91.089-.069.118-.136.118-.267 0-.14-.014-.168-.074-.145a.43.43 0 0 1-.117.028c-.116 0-.422.356-.518.602-.15.383-.15 1.272-.002 1.653.107.275.266.458.5.58.197.102.211.095.211-.093zm.782-.075c.375-.352.478-1.537.188-2.17-.113-.246-.329-.455-.536-.518-.096-.03-.105-.017-.105.14 0 .129.03.196.118.266.213.167.272.382.277 1 .004.626-.075.933-.282 1.096-.082.065-.113.135-.113.26v.169l.175-.073c.097-.04.222-.117.278-.17zm3.77.065c0-.128-.028-.193-.099-.237-.169-.106-.29-.46-.313-.923-.03-.582.048-.936.252-1.141.12-.12.16-.2.16-.321 0-.147-.011-.16-.106-.131-.502.152-.8.927-.69 1.793.07.566.244.88.584 1.059.199.105.211.099.211-.099zm.53.113c.403-.168.616-.657.616-1.414 0-.757-.213-1.246-.617-1.414-.204-.086-.201-.087-.201.103 0 .128.032.195.14.285.19.16.282.495.282 1.026s-.092.865-.282 1.026c-.108.09-.14.157-.14.285 0 .19-.003.189.201.103zm4.067-.085c0-.11-.042-.188-.16-.296-.21-.193-.281-.453-.281-1.033 0-.577.071-.841.281-1.04.114-.107.16-.191.16-.294 0-.17-.036-.175-.283-.049-.37.188-.56.662-.561 1.39 0 .72.193 1.183.574 1.372.259.128.27.126.27-.05zm.72-.077c.3-.284.436-.793.392-1.474-.037-.563-.219-.961-.52-1.138a1.307 1.307 0 0 0-.233-.118c-.017 0-.03.076-.03.168 0 .123.036.204.135.304.172.172.26.514.258 1.006-.002.501-.088.837-.258 1.006-.099.1-.136.182-.136.303 0 .162.004.165.13.118a.975.975 0 0 0 .262-.175zm1.532.044c0-.082-.051-.178-.142-.265-.192-.183-.28-.51-.28-1.032 0-.518.085-.828.282-1.032.11-.113.143-.187.132-.287-.02-.168-.133-.16-.366.026-.35.278-.524.943-.43 1.64.077.571.249.88.59 1.056.166.086.214.063.214-.106zm.702-.003c.544-.429.623-1.871.136-2.46-.152-.183-.429-.338-.512-.286-.105.065-.043.281.118.41.215.171.306.483.306 1.043 0 .56-.091.872-.306 1.043-.155.123-.218.317-.13.404.05.05.21-.014.388-.154zm1.597.021c0-.116-.029-.181-.098-.223-.25-.151-.391-.782-.32-1.43.043-.392.143-.632.304-.738.084-.055.114-.117.114-.238 0-.19-.005-.192-.255-.07-.456.223-.691 1.022-.547 1.853.086.491.306.835.614.957.178.071.188.065.188-.111zm.734-.03c.237-.197.39-.695.391-1.27 0-.518-.064-.817-.234-1.086-.113-.178-.415-.406-.538-.406-.014 0-.025.076-.025.17 0 .123.031.193.114.258.197.155.285.474.283 1.027-.003.58-.073.86-.26 1.035-.102.096-.137.17-.137.298v.169l.172-.072c.095-.04.2-.095.234-.123zm1.407-.232c-.202-.159-.288-.473-.288-1.052 0-.577.086-.893.285-1.05.083-.066.114-.135.114-.262 0-.157-.01-.17-.106-.14-.204.062-.404.258-.533.52-.11.224-.132.339-.15.763-.035.851.154 1.368.566 1.554l.2.089.014-.165c.011-.13-.01-.184-.102-.257zm.629.379c.082 0 .38-.3.467-.47.13-.255.204-.76.172-1.174-.047-.618-.238-1.008-.574-1.172-.25-.122-.255-.12-.255.07 0 .12.03.183.11.236.217.142.314.468.315 1.065.002.57-.06.808-.265 1.013-.121.121-.16.2-.16.324 0 .131.015.159.074.136a.428.428 0 0 1 .116-.028zm4.08-.133c0-.144-.023-.19-.11-.23-.312-.142-.45-1.107-.254-1.768a.965.965 0 0 1 .209-.339c.107-.106.154-.198.154-.296 0-.173-.05-.177-.31-.025-.157.092-.234.185-.356.433-.151.308-.155.33-.154.926 0 .561.01.632.123.869.143.302.279.455.48.543.21.09.217.086.217-.113zm.774-.088c.217-.224.31-.517.338-1.07.04-.778-.156-1.323-.548-1.523a1.396 1.396 0 0 0-.211-.095c-.014 0-.025.073-.025.16 0 .116.039.2.137.298.187.187.257.466.257 1.02 0 .557-.072.839-.258 1.012-.101.095-.136.171-.136.294 0 .166 0 .167.144.117a.988.988 0 0 0 .302-.213zm1.367-.158c-.203-.159-.289-.473-.289-1.052 0-.577.086-.893.286-1.05.083-.066.113-.135.113-.262 0-.157-.01-.17-.105-.14-.21.064-.424.272-.545.532-.104.225-.124.342-.14.81-.026.836.136 1.27.556 1.483l.21.107.015-.168c.012-.133-.009-.187-.101-.26zm.63.379c.024 0 .126-.076.229-.168.296-.267.393-.58.393-1.263 0-.682-.097-.996-.393-1.263-.103-.092-.205-.168-.23-.168a.43.43 0 0 1-.116-.028c-.115-.044-.102.285.015.367a.995.995 0 0 1 .2.249c.094.16.112.261.126.727.02.652-.036.896-.255 1.115-.122.121-.16.2-.16.324 0 .131.015.159.074.136a.43.43 0 0 1 .117-.028zm1.779-.122c0-.125-.03-.194-.118-.263-.242-.19-.28-.334-.28-1.046 0-.605.008-.671.11-.843a.995.995 0 0 1 .199-.25c.116-.08.13-.41.015-.366a.43.43 0 0 1-.117.028c-.116 0-.423.356-.518.602-.14.361-.153 1.22-.024 1.596.1.288.316.556.521.645.203.089.212.084.212-.103zm.76-.052c.165-.148.325-.558.358-.913.087-.948-.177-1.642-.684-1.796-.096-.03-.106-.017-.106.14 0 .127.03.196.114.262.2.157.285.473.285 1.05 0 .577-.086.893-.285 1.05-.083.065-.114.135-.114.26v.169l.175-.073c.095-.04.212-.107.258-.149zm3.79.044c0-.124-.026-.193-.092-.234-.186-.116-.296-.427-.32-.903-.029-.607.047-.957.254-1.164.12-.12.159-.2.159-.321 0-.147-.01-.16-.106-.131-.502.153-.81.95-.693 1.793.08.576.249.88.588 1.059.198.105.21.099.21-.099zm.824-.12c.23-.269.323-.61.323-1.181 0-.757-.213-1.246-.616-1.414-.203-.085-.202-.086-.202.092 0 .111.04.193.142.291.191.183.28.51.28 1.031 0 .531-.092.865-.282 1.026-.131.11-.192.337-.112.417.06.06.311-.08.467-.262zm3.597-.163c-.204-.19-.267-.43-.268-1.018 0-.577.085-.893.285-1.05.083-.065.113-.135.113-.259 0-.093-.01-.169-.025-.169-.123 0-.424.228-.537.406-.17.269-.235.568-.235 1.086.001.722.204 1.204.578 1.372l.196.088.015-.164c.011-.132-.013-.19-.122-.292zm.649.413c.081 0 .38-.3.464-.465.182-.361.242-1.017.138-1.515-.1-.48-.342-.799-.687-.903-.095-.03-.105-.016-.105.134 0 .124.029.185.113.24.162.107.261.347.304.738.072.65-.069 1.28-.32 1.431-.124.075-.146.415-.023.368a.428.428 0 0 1 .116-.028zm3.9-.422c-.178-.177-.261-.511-.26-1.039.002-.496.083-.803.259-.978a.385.385 0 0 0 .133-.302c0-.092-.014-.168-.03-.168-.018 0-.122.053-.233.118-.302.177-.484.575-.52 1.138-.055.842.193 1.477.642 1.644.11.04.119.033.132-.115.012-.125-.015-.189-.124-.298zm.822.32c.31-.187.483-.666.483-1.333 0-.711-.197-1.193-.565-1.381-.244-.124-.28-.118-.28.051 0 .103.046.187.16.294.21.199.282.463.282 1.04 0 .58-.071.84-.281 1.033-.12.109-.16.185-.16.299 0 .136.01.149.105.12.058-.017.173-.073.256-.123zM5.81 44.232l.013-1.443H5.67c-.135.001-.163.025-.233.19-.086.205-.291.326-.552.326-.132 0-.143.013-.143.164v.165H5.4v1c0 .55.015 1.016.034 1.035.018.018.108.027.2.02l.165-.015.012-1.442zm4.082 0l.012-1.443H9.75c-.136 0-.163.022-.216.168-.074.204-.294.348-.533.348-.17 0-.176.006-.176.164v.165h.657v1c0 .55.015 1.016.033 1.035.019.018.108.027.2.02l.166-.015.012-1.442zm1.794.012v-1.455h-.134c-.11 0-.148.033-.22.19-.098.22-.184.277-.485.32-.202.029-.217.04-.217.171v.14l.34.014.34.014v2.06h.376v-1.454zm1.548 1.308c0-.1-.043-.185-.137-.273-.185-.173-.257-.455-.257-1.012 0-.554.07-.833.257-1.02.098-.098.137-.182.137-.297 0-.088-.011-.16-.025-.16-.123 0-.425.227-.538.406-.187.294-.25.643-.225 1.244.018.442.038.537.159.774.14.273.376.484.542.484.066 0 .087-.035.087-.146zm5.301-1.308v-1.455h-.14c-.113 0-.152.03-.204.153-.094.221-.227.319-.484.355-.214.031-.227.041-.227.173v.14l.34.014.34.014v2.06h.375v-1.454zm4.551 0v-1.455h-.132c-.109 0-.146.033-.216.193-.092.208-.285.323-.542.323-.131 0-.142.013-.142.164v.165h.657v1c0 .55.014 1.015.031 1.033.017.017.102.03.188.03h.156v-1.453zm11.436-.012l.013-1.443h-.153c-.135.001-.163.025-.233.19-.086.205-.291.326-.552.326-.132 0-.143.013-.143.164v.165h.657v1c0 .55.015 1.016.034 1.035.018.018.108.027.2.02l.165-.015.012-1.442zm9.113.012v-1.455h-.14c-.114 0-.152.03-.205.153-.093.221-.226.319-.483.355-.214.031-.228.041-.228.173v.14l.34.014.34.014v2.06h.376v-1.454zm4.55 0v-1.455h-.131c-.11 0-.146.033-.217.193-.092.208-.284.323-.541.323-.131 0-.142.013-.142.164v.165h.656v1c0 .55.014 1.015.032 1.033.017.017.101.03.187.03h.157v-1.453zm4.587-.012l.013-1.443h-.153c-.135.001-.163.025-.233.19-.086.205-.291.326-.552.326-.132 0-.143.013-.143.164v.165h.657v1c0 .55.015 1.016.034 1.035.018.018.108.027.2.02l.165-.015.012-1.442zm4.551 0l.012-1.443h-.164c-.134 0-.165.018-.165.093 0 .052-.058.158-.13.237-.097.11-.185.152-.363.177-.222.032-.235.041-.25.186l-.014.152h.662v1c0 .55.016 1.016.034 1.035.019.018.109.027.2.02l.166-.015.012-1.442zm-50.8-2.862c-.001-.12-.034-.173-.15-.246-.225-.141-.322-.452-.325-1.031-.002-.612.062-.845.294-1.067.209-.198.254-.412.087-.412-.253 0-.538.274-.685.66-.113.294-.113 1.295 0 1.589.107.279.272.488.461.58.246.122.32.105.318-.073zm.569.046c.35-.236.512-.66.512-1.341 0-.6-.097-.937-.347-1.203-.106-.113-.24-.218-.298-.235-.096-.027-.105-.014-.105.15.001.129.034.21.117.289.166.157.232.432.233.969.002.534-.075.86-.238 1.013-.08.076-.112.157-.112.285 0 .209.025.217.238.073zm1.826-.039c0-.1-.043-.185-.137-.273-.214-.2-.301-.573-.276-1.173.023-.532.127-.839.32-.942.065-.035.093-.098.093-.212 0-.201-.091-.214-.337-.047-.334.227-.546.9-.485 1.54.058.608.23.975.539 1.154.229.133.283.124.283-.047zm.609.046c.301-.184.447-.47.521-1.019.095-.704-.106-1.43-.465-1.674-.238-.162-.337-.153-.337.03 0 .1.043.185.137.272.185.173.285.538.285 1.036 0 .499-.1.863-.285 1.037-.094.087-.137.172-.137.272 0 .173.057.182.28.046zm3.942-.047c0-.1-.05-.202-.158-.321-.122-.135-.171-.247-.218-.493-.119-.632.027-1.437.286-1.575.063-.033.09-.099.09-.216 0-.157-.008-.165-.124-.136-.438.11-.674.611-.674 1.435 0 .704.171 1.142.533 1.363.208.126.265.114.265-.057zm.713-.001c.493-.35.611-1.775.2-2.396-.126-.191-.365-.365-.503-.365-.144 0-.106.267.058.405.192.162.282.494.282 1.037 0 .57-.066.826-.265 1.025-.111.111-.157.2-.157.304 0 .137.01.145.126.116a.943.943 0 0 0 .26-.126zm1.585-.015c0-.114-.027-.177-.093-.213-.2-.107-.3-.408-.32-.968-.023-.644.06-.993.274-1.151.106-.078.14-.14.14-.259 0-.19-.1-.205-.334-.048-.695.467-.66 2.34.051 2.715.235.124.282.112.282-.076zm.554.096c.323-.168.499-.49.567-1.037.091-.738-.1-1.447-.455-1.689-.246-.167-.337-.154-.337.047 0 .117.027.177.098.215.054.029.144.15.199.271.085.185.1.306.101.782 0 .634-.052.846-.26 1.043-.098.091-.138.174-.138.282 0 .17.038.184.225.086zm1.698-.08a.483.483 0 0 0-.138-.304c-.191-.217-.256-.477-.258-1.027-.001-.524.082-.824.28-1.01.12-.112.168-.421.067-.421-.194 0-.466.259-.617.587-.093.204-.107.309-.107.82 0 .804.12 1.146.488 1.395.218.146.285.137.285-.04zm.66.04c.37-.249.49-.59.489-1.395 0-.51-.015-.617-.11-.827-.126-.282-.29-.453-.534-.555l-.176-.073v.16c0 .12.04.2.16.32.208.208.28.473.28 1.022 0 .555-.073.82-.28 1.016-.115.108-.16.192-.16.295 0 .178.104.19.332.037zm1.686-.05c0-.118-.028-.171-.117-.218-.064-.035-.164-.16-.223-.278-.093-.189-.106-.288-.106-.802 0-.504.015-.617.103-.809.061-.131.152-.245.223-.277.094-.043.12-.089.12-.211 0-.132-.017-.157-.106-.157-.184 0-.44.216-.57.48-.3.613-.233 1.75.127 2.141.135.146.363.287.467.287.062 0 .082-.038.082-.156zm.666.009c.182-.129.367-.544.425-.953.1-.709-.11-1.455-.476-1.701-.227-.152-.286-.139-.286.062 0 .125.03.194.116.261.19.149.272.523.25 1.135-.015.427-.038.56-.124.724-.058.111-.137.214-.174.228-.044.017-.068.093-.068.212 0 .171.008.183.105.153.058-.018.162-.073.232-.121zm1.586-.008c0-.118-.034-.18-.139-.258-.192-.142-.283-.476-.283-1.04 0-.556.089-.887.282-1.05.157-.132.202-.405.067-.405-.128 0-.34.136-.463.296-.46.603-.37 2.098.148 2.461.28.196.388.195.388-.004zm.593.066c.363-.222.533-.659.533-1.368 0-.74-.224-1.266-.6-1.41-.174-.065-.198-.051-.198.122 0 .111.028.177.09.21.259.138.405.943.286 1.575-.047.246-.096.358-.218.493-.108.12-.158.22-.158.32 0 .172.058.184.265.058zm3.91-.072c0-.11-.036-.2-.114-.277-.19-.19-.275-.582-.25-1.153.021-.512.134-.863.297-.926.087-.033.095-.391.008-.391-.141 0-.407.245-.522.48-.304.626-.243 1.705.123 2.153.066.08.365.275.424.275.02 0 .035-.072.035-.161zm.652.065c.315-.176.488-.543.546-1.155.078-.813-.23-1.514-.728-1.657-.139-.04-.14-.038-.14.136 0 .143.022.188.115.23.063.029.163.143.222.254.096.18.107.266.108.81 0 .53-.014.64-.103.833-.06.132-.152.245-.223.278-.094.042-.12.088-.12.21 0 .188.073.202.323.061zm1.695-.059c0-.117-.034-.18-.137-.256-.2-.148-.296-.485-.296-1.035 0-.57.068-.825.273-1.03.173-.174.226-.432.087-.432-.23 0-.52.29-.662.66-.112.294-.112 1.295 0 1.589.107.279.273.488.462.58.228.113.273.1.273-.076zm.553.09c.366-.19.535-.574.563-1.275.031-.778-.133-1.24-.524-1.478-.209-.127-.264-.114-.264.063 0 .107.04.19.134.279.185.174.265.49.265 1.046 0 .523-.084.823-.283 1.01a.346.346 0 0 0-.116.265c0 .172.038.187.225.09zm1.745-.075c0-.099-.047-.184-.163-.293-.12-.112-.182-.227-.235-.432-.17-.67-.002-1.594.307-1.692.068-.022.091-.072.091-.196 0-.163-.003-.166-.152-.138-.098.018-.222.103-.345.237-.25.27-.347.61-.347 1.207 0 .681.162 1.105.512 1.34.226.153.332.142.332-.033zm.688-.028c.302-.226.467-.8.423-1.473-.04-.614-.231-1.033-.548-1.197-.195-.1-.234-.088-.234.076 0 .095.048.202.139.305.182.208.241.447.243.982 0 .528-.097.913-.265 1.045-.087.068-.117.137-.117.265 0 .157.01.169.105.14.058-.018.172-.082.254-.143zm3.816.008c0-.115-.039-.2-.137-.298-.183-.183-.254-.46-.254-.996 0-.53.065-.79.253-1.003.148-.169.195-.451.075-.451-.106 0-.374.204-.486.37-.153.227-.205.439-.234.944-.041.718.152 1.28.515 1.502.216.132.268.118.268-.068zm.66.054c.37-.249.49-.591.489-1.395 0-.51-.015-.617-.108-.82-.157-.344-.422-.587-.64-.587-.142 0-.088.271.086.423.214.189.288.469.284 1.078-.004.556-.103.868-.32 1.01-.092.06-.122.12-.122.239 0 .194.098.21.332.052zm3.938-.036c0-.099-.048-.19-.157-.3-.199-.198-.265-.455-.265-1.024 0-.552.092-.887.283-1.029.105-.077.139-.14.139-.258 0-.177-.065-.196-.281-.085-.737.381-.737 2.363-.001 2.752.228.121.282.11.282-.056zm.593.053c.35-.215.538-.678.54-1.336.001-.513-.074-.866-.237-1.108-.14-.21-.354-.374-.486-.375-.126 0-.113.308.017.378.054.029.143.15.199.271.085.186.1.305.1.782 0 .633-.05.833-.258 1.033-.1.096-.14.178-.14.29 0 .18.055.193.265.065zm3.958-.063c0-.108-.04-.19-.138-.282-.208-.197-.261-.41-.26-1.043 0-.476.016-.597.1-.782.056-.12.145-.242.2-.271.07-.038.098-.098.098-.215 0-.201-.091-.214-.337-.047-.355.241-.553.955-.463 1.67.07.563.21.829.542 1.035.202.125.258.111.258-.065zm.71.008c.465-.332.601-1.64.24-2.31-.132-.245-.378-.454-.535-.454-.155 0-.112.26.073.445.214.214.282.523.253 1.157-.024.521-.13.83-.32.931-.066.036-.093.099-.093.218 0 .159.007.166.126.136a.924.924 0 0 0 .255-.123zm3.934.013c0-.093-.042-.164-.145-.24-.298-.22-.44-.883-.327-1.53.065-.376.151-.541.338-.651.097-.058.134-.116.134-.21 0-.176-.025-.19-.217-.132-.251.077-.508.399-.605.758-.166.612-.042 1.544.25 1.872.12.135.347.264.467.264.084 0 .105-.026.105-.131zm.706-.105c.262-.262.35-.567.35-1.218 0-.599-.082-.927-.291-1.176-.116-.137-.335-.278-.434-.278-.107 0-.048.294.09.45.184.21.246.466.246 1.012 0 .516-.09.856-.27 1.026-.105.1-.156.317-.089.384.055.056.23-.032.398-.2zm3.751.076c0-.115-.039-.2-.137-.298-.182-.182-.252-.458-.252-.996 0-.533.064-.791.25-1.003.138-.157.197-.451.09-.451-.099 0-.318.14-.434.278-.215.256-.291.575-.287 1.2.007.747.148 1.122.507 1.341.21.129.263.114.263-.071zm.6.095c.184-.096.32-.255.442-.521.095-.208.108-.306.108-.868 0-.561-.013-.66-.108-.867-.123-.266-.258-.426-.441-.521-.207-.108-.272-.086-.272.09 0 .118.028.172.115.218.235.126.382.682.338 1.274-.033.43-.134.705-.318.859-.095.08-.135.157-.135.258 0 .163.07.183.272.078zm3.998-.097c0-.114-.028-.177-.094-.213-.2-.107-.3-.408-.32-.968-.022-.644.06-.993.274-1.151.106-.078.14-.14.14-.259 0-.19-.1-.205-.333-.048-.692.464-.651 2.372.058 2.722.232.114.275.101.275-.083zm.553.096c.33-.172.51-.5.57-1.041.085-.749-.105-1.445-.458-1.685-.246-.167-.337-.154-.337.047 0 .116.028.177.099.215.054.029.143.15.198.271.085.185.101.306.102.782 0 .634-.053.846-.261 1.043-.097.091-.138.174-.138.282 0 .17.039.184.226.086zM4.836 40.021v-1.454H4.7c-.115 0-.146.026-.19.164-.071.212-.231.334-.493.373-.196.03-.212.042-.212.17v.138h.657v2.064h.375V40.02zm6.85 0v-1.454h-.137c-.115 0-.146.026-.191.164-.073.218-.235.337-.518.376-.219.03-.233.04-.233.168v.137h.704v2.064h.375V40.02zm13.699 0v-1.454h-.136c-.115 0-.152.034-.246.223-.106.213-.124.226-.404.293-.271.065-.293.08-.293.2v.129h.704v2.064h.375V40.02zm9.137.012l-.012-1.442-.142-.014c-.125-.013-.15.006-.202.15-.078.217-.24.338-.5.377-.196.03-.212.042-.212.17v.138h.657v2.064h.424l-.013-1.443zm4.562-.012v-1.454h-.136c-.115 0-.153.033-.236.204-.105.217-.221.293-.52.341-.167.027-.187.044-.187.165v.135h.657v1c0 .55.014 1.015.031 1.032.017.018.112.032.211.032h.18V40.02zm4.551 0v-1.454h-.134c-.11 0-.148.033-.22.193-.105.233-.21.306-.502.348-.207.03-.223.042-.223.168v.136h.704v2.064h.375V40.02zm4.55 0v-1.454h-.136c-.115 0-.146.026-.191.164-.07.212-.23.334-.493.373-.195.03-.211.042-.211.17v.138h.656v2.064h.376V40.02zm4.598 0v-1.454h-.16c-.14 0-.164.018-.191.14-.043.192-.257.358-.513.397-.199.03-.215.042-.215.17v.138h.657v2.064h.422V40.02zm4.551 0v-1.454h-.141c-.121 0-.152.027-.217.19-.084.21-.229.306-.528.354-.174.028-.193.044-.193.166v.135h.657v1c0 .55.014 1.015.031 1.032.017.018.112.032.211.032h.18V40.02zm-54.411-3.14c-.185-.185-.266-.502-.263-1.035.002-.536.074-.813.257-.996.098-.098.136-.183.136-.298 0-.088-.01-.16-.025-.16-.014 0-.109.043-.21.095-.391.199-.588.741-.552 1.523.03.67.243 1.104.623 1.27.14.06.141.06.156-.101.011-.127-.015-.19-.122-.298zm.72.37c.373-.18.583-.679.583-1.381 0-.799-.268-1.344-.718-1.457-.117-.029-.126-.02-.126.118 0 .108.043.19.16.3.206.194.28.459.283 1.015.002.553-.079.852-.286 1.054-.113.109-.157.194-.157.3 0 .174.006.175.261.052zm4.322-.052c.342-.207.504-.709.475-1.47-.018-.455-.038-.561-.15-.79-.136-.28-.34-.471-.557-.525-.122-.03-.129-.024-.129.132 0 .124.03.183.122.243.271.178.413.878.304 1.502-.067.388-.157.574-.31.644-.094.042-.116.086-.116.235 0 .169.009.181.106.152.058-.018.173-.073.255-.123zm5.55-.037c0-.09-.038-.157-.121-.212-.232-.152-.321-.45-.323-1.08-.001-.48.014-.596.1-.782a.845.845 0 0 1 .223-.299c.092-.06.122-.119.122-.243 0-.155-.007-.163-.13-.134-.463.11-.715.625-.715 1.459 0 .749.193 1.211.576 1.383.227.102.269.088.269-.092zm2.874.06c.311-.157.508-.666.513-1.33.007-.82-.262-1.37-.724-1.48-.12-.028-.13-.02-.13.117 0 .11.047.192.183.322.231.22.309.548.276 1.167-.025.482-.164.847-.353.93-.083.036-.105.085-.105.226 0 .165.009.177.105.147.059-.018.164-.062.235-.098zm3.82-.299c-.174-.137-.275-.442-.301-.913-.032-.58.046-.935.251-1.14.12-.12.16-.2.16-.322 0-.147-.011-.16-.106-.13-.453.134-.705.654-.705 1.452 0 .723.19 1.178.576 1.373l.21.107.015-.168c.012-.133-.009-.187-.1-.259zm.943.11c.223-.251.314-.597.313-1.187-.002-.73-.194-1.182-.588-1.386-.198-.102-.23-.086-.23.116 0 .138.021.192.085.212.047.015.136.116.197.225.094.167.114.28.131.719.024.635-.057.98-.273 1.163-.108.09-.14.157-.14.286v.168l.176-.072c.096-.039.245-.149.33-.244zm3.764.167c0-.107-.045-.192-.163-.306-.212-.206-.278-.45-.278-1.024 0-.578.071-.842.281-1.04.117-.11.16-.19.16-.3 0-.138-.01-.146-.126-.117-.46.116-.717.639-.718 1.46 0 .714.199 1.19.579 1.378.253.125.265.123.265-.051zm.72-.078c.301-.285.436-.794.391-1.478-.035-.554-.23-.977-.525-1.144a1.159 1.159 0 0 0-.223-.107c-.019 0-.035.078-.035.175 0 .12.028.194.087.23.422.264.406 1.897-.021 2.141-.039.022-.066.113-.066.222 0 .181.002.183.13.135a.975.975 0 0 0 .262-.174zm1.376-.25c-.193-.193-.266-.48-.266-1.043 0-.49.097-.83.282-.985.107-.09.14-.157.14-.285 0-.19.002-.189-.202-.104-.463.194-.716.945-.6 1.78.051.37.204.743.364.887.049.044.162.111.252.15l.162.068.014-.153c.012-.123-.018-.186-.146-.314zm.982.17c.22-.247.32-.616.32-1.172-.002-.76-.214-1.247-.616-1.415-.203-.085-.202-.085-.202.092 0 .112.04.194.142.292.191.183.28.51.28 1.03 0 .532-.092.866-.282 1.026-.107.09-.14.157-.14.286v.168l.176-.072c.097-.039.242-.145.322-.235zm1.29-.189c-.182-.207-.247-.455-.25-.958-.005-.518.076-.853.25-1.039.094-.101.136-.194.136-.305 0-.087-.014-.16-.031-.16s-.119.052-.226.115c-.435.255-.643 1.053-.49 1.881.084.452.315.796.606.905.11.04.118.033.132-.117.011-.124-.017-.197-.127-.322zm.825.346c.342-.207.504-.709.475-1.47-.018-.455-.038-.561-.15-.79-.137-.28-.34-.471-.557-.525-.122-.03-.129-.024-.129.132 0 .124.03.183.122.243.27.178.413.878.304 1.502-.068.388-.158.574-.31.644-.094.042-.116.086-.116.235 0 .169.009.181.106.152.058-.018.173-.073.255-.123zm1.48-.311c-.205-.19-.268-.431-.269-1.018 0-.577.085-.894.285-1.05.083-.066.114-.136.114-.262 0-.157-.01-.17-.106-.14-.21.064-.423.272-.544.532-.1.218-.125.348-.14.76-.03.847.145 1.33.56 1.536l.206.102.015-.166c.012-.134-.012-.192-.122-.294zm.65.412c.023 0 .126-.075.228-.167.617-.558.543-2.24-.117-2.627-.254-.15-.303-.144-.303.034 0 .106.044.19.158.3.199.194.268.461.268 1.034 0 .554-.063.792-.266.994-.121.122-.16.2-.16.325 0 .13.015.159.074.136a.43.43 0 0 1 .117-.029zm4.62-.048c.373-.18.583-.68.583-1.382 0-.817-.281-1.368-.747-1.46-.138-.029-.144-.023-.144.128 0 .126.029.175.138.237.187.106.278.304.342.74.096.659-.068 1.314-.362 1.448-.086.04-.118.09-.118.188 0 .223.033.234.308.1zm1.6-.329c-.398-.313-.42-1.718-.031-2.073.106-.097.14-.17.14-.296 0-.152-.01-.166-.105-.138-.451.13-.692.637-.692 1.455 0 .75.192 1.211.577 1.384l.197.089.014-.165c.012-.13-.01-.185-.1-.256zm.854.207c.29-.248.395-.57.4-1.237.005-.62-.077-.934-.313-1.203-.137-.157-.353-.298-.454-.298-.027 0-.05.074-.05.164 0 .115.03.18.098.223.206.124.296.396.316.956.023.637-.058.979-.273 1.16-.106.089-.14.158-.14.279 0 .145.01.158.114.138.063-.012.2-.094.302-.182zm2.176.093c.318-.162.507-.667.507-1.353 0-.827-.257-1.348-.719-1.458-.12-.028-.129-.02-.129.122 0 .116.04.188.165.299.225.2.324.597.294 1.178-.025.482-.144.813-.337.94-.092.06-.122.118-.122.24 0 .147.01.16.106.13.058-.018.164-.062.235-.098zm4.561-.012c.47-.266.672-1.273.423-2.104-.08-.268-.289-.54-.497-.647-.215-.111-.277-.09-.277.097 0 .13.025.176.117.218.21.096.325.422.345.983.022.64-.062.965-.299 1.154-.127.102-.163.165-.163.286 0 .14.011.152.106.124a1.49 1.49 0 0 0 .245-.11zm3.785-.326c-.192-.18-.264-.46-.265-1.039 0-.552.088-.872.285-1.026.083-.066.113-.136.113-.262 0-.157-.009-.17-.105-.14-.204.062-.405.257-.533.52-.113.23-.133.336-.15.79-.032.82.151 1.315.562 1.519l.203.1.015-.165c.012-.135-.012-.192-.125-.297zm.9.237c.458-.433.55-1.59.18-2.276-.113-.212-.414-.454-.564-.454-.121 0-.055.284.104.443.198.198.275.493.273 1.052-.002.525-.067.764-.27.988-.147.163-.208.363-.133.438.047.047.268-.057.41-.191zm4.374.13c.382-.185.583-.663.583-1.38-.001-.82-.259-1.343-.718-1.459-.12-.03-.126-.022-.126.133 0 .124.029.183.121.243.463.303.439 2.012-.03 2.16-.07.023-.091.072-.091.214 0 .101.014.184.032.184.017 0 .12-.043.23-.095zm4.641-.041c.32-.182.501-.662.504-1.336.003-.82-.26-1.347-.727-1.462-.121-.03-.129-.022-.129.13 0 .124.032.183.145.267.24.177.297.373.299 1.036.002.505-.012.617-.1.805a.845.845 0 0 1-.222.3c-.092.06-.122.118-.122.24 0 .147.01.16.106.131.058-.017.169-.067.246-.111zm-52.474-.072c0-.09-.03-.18-.066-.2-.422-.241-.438-1.88-.02-2.14.058-.037.086-.11.086-.23 0-.098-.014-.177-.031-.177s-.122.053-.232.118c-.302.177-.484.574-.52 1.137-.047.714.096 1.212.43 1.505.231.203.353.199.353-.013zm6.941-.006c.292-.264.394-.583.396-1.24.002-.592-.045-.816-.236-1.11-.13-.2-.449-.42-.533-.368-.087.054-.053.301.05.363.21.127.297.396.316.976.022.644-.03.876-.251 1.12-.337.374-.115.595.258.259zm1.504.011a.347.347 0 0 0-.12-.267c-.192-.181-.27-.544-.247-1.149.017-.44.038-.554.128-.707.059-.101.137-.2.173-.221.062-.036.098-.408.039-.408-.064 0-.244.116-.384.25-.203.191-.333.558-.368 1.03-.051.702.154 1.319.51 1.536.214.13.269.118.269-.064zm20.548.012c0-.096-.044-.189-.133-.278-.185-.185-.266-.503-.262-1.032.005-.534.07-.792.257-1.004.127-.145.18-.346.109-.417-.016-.016-.111.013-.211.064-.388.198-.585.746-.545 1.523.028.564.145.88.416 1.124.234.212.37.219.37.02zm4.551-.012a.347.347 0 0 0-.119-.267c-.191-.18-.269-.54-.247-1.142.015-.42.038-.56.12-.716.056-.106.134-.206.174-.221.048-.019.072-.09.072-.217 0-.104-.012-.19-.026-.19-.08 0-.307.158-.43.3-.234.265-.316.582-.313 1.202.004.67.108.987.405 1.242.252.216.364.219.364.01zm4.55-.002c0-.087-.032-.186-.073-.22-.173-.144-.269-.435-.291-.888-.028-.569.046-.94.228-1.147a.462.462 0 0 0 .137-.323c0-.165-.002-.167-.14-.119-.17.06-.397.31-.496.547-.293.699-.102 1.904.35 2.203.223.148.286.136.286-.053zm9.15-.007c0-.106-.027-.176-.073-.194-.118-.045-.253-.364-.303-.72-.081-.572.041-1.228.262-1.401.082-.065.113-.136.113-.259 0-.093-.017-.17-.038-.17-.02 0-.132.061-.248.135-.297.188-.46.56-.498 1.13-.045.704.099 1.205.431 1.496.233.205.353.199.353-.017zm4.55.01a.348.348 0 0 0-.119-.268c-.19-.179-.269-.539-.25-1.142.015-.445.033-.55.128-.71a.834.834 0 0 1 .175-.225c.062-.035.099-.408.04-.408-.08 0-.307.158-.431.298-.225.256-.314.586-.312 1.156.002.73.158 1.153.501 1.362.214.13.268.118.268-.063zM5.775 35.823v-1.431h-.14c-.116 0-.153.029-.208.16-.082.197-.233.301-.503.347-.188.032-.206.047-.22.186l-.014.151h.709v2.018h.376v-1.431zm4.222 0v-1.431h-.153c-.133 0-.162.024-.231.19-.086.204-.292.326-.553.326-.131 0-.142.013-.142.164v.164h.657v2.018h.422v-1.431zm1.97 0v-1.431h-.152c-.134 0-.163.024-.232.19-.086.204-.292.326-.552.326-.132 0-.143.013-.143.164v.164h.657v2.018h.422v-1.431zm6.568 0v-1.431h-.14c-.113 0-.152.029-.204.152-.094.222-.227.32-.484.356-.214.03-.227.04-.227.173v.14l.34.014.34.013v2.014h.375v-1.431zm4.551 0v-1.431h-.132c-.109 0-.146.033-.216.192-.092.209-.285.324-.542.324-.131 0-.142.013-.142.164v.164h.657v2.018h.375v-1.431zm11.447 0v-1.431h-.152c-.133 0-.162.024-.232.19-.086.204-.291.326-.552.326-.132 0-.143.013-.143.164v.164h.657v2.018h.422v-1.431zm9.102 0v-1.431h-.14c-.114 0-.152.029-.205.152-.093.222-.226.32-.483.356-.214.03-.228.04-.228.173v.14l.34.014.34.013v2.014h.376v-1.431zm4.55 0v-1.431h-.133c-.111 0-.148.032-.221.194-.095.21-.28.322-.535.322-.131 0-.142.013-.142.164v.164h.656v2.018h.376v-1.431zm4.598 0v-1.431h-.152c-.133 0-.162.024-.232.19-.086.204-.291.326-.552.326-.132 0-.143.013-.143.164v.164h.657v2.018h.422v-1.431zm4.551 0v-1.431h-.154c-.133 0-.161.02-.2.149-.06.197-.243.325-.508.355-.21.023-.217.03-.217.182v.158h.657v2.018h.422v-1.431zM2.866 33c0-.078-.067-.196-.183-.322-.232-.251-.308-.575-.274-1.172.027-.49.129-.782.321-.919.177-.125.196-.371.03-.371-.186 0-.441.216-.572.483-.21.428-.243 1.336-.066 1.792.123.315.454.633.662.633.057 0 .082-.037.082-.124zm.59.007c.716-.42.696-2.347-.027-2.721-.212-.11-.282-.091-.282.073 0 .103.041.178.14.263.217.182.298.527.273 1.161-.023.558-.123.861-.319.966-.066.035-.094.098-.094.213 0 .194.044.2.31.045zm3.35-.052c0-.123-.03-.193-.113-.258-.197-.156-.285-.475-.283-1.027.002-.58.066-.835.257-1.026.094-.094.14-.186.14-.284 0-.222-.16-.19-.424.083-.302.313-.394.654-.365 1.353.03.682.174 1.02.53 1.241.208.128.259.112.259-.082zm.735.003c.415-.316.57-1.416.301-2.136-.124-.333-.41-.606-.633-.606-.14 0-.088.257.086.432.205.205.274.461.276 1.024 0 .545-.099.892-.3 1.04-.104.078-.136.14-.136.262 0 .152.007.159.13.128a.948.948 0 0 0 .276-.144zm1.846.01c0-.121-.026-.17-.115-.21-.22-.1-.324-.396-.345-.977-.024-.665.057-.986.297-1.177.127-.102.163-.164.163-.286 0-.14-.01-.152-.106-.123-.337.104-.53.306-.672.7-.129.361-.116 1.225.023 1.584.145.373.417.633.673.642.062.003.082-.034.082-.153zm.513.088c.166-.086.36-.315.45-.527.192-.46.166-1.387-.05-1.83-.117-.238-.383-.483-.525-.483-.09 0-.078.358.013.393.14.053.269.45.292.896.029.544-.047.918-.228 1.124a.46.46 0 0 0-.137.326c0 .192.004.194.185.1zm3.85-.076c0-.102-.045-.186-.16-.294-.205-.194-.276-.453-.277-1.016-.002-.546.065-.796.275-1.029.183-.201.222-.425.075-.425-.127 0-.387.19-.51.37-.152.227-.205.438-.233.943-.043.742.161 1.303.548 1.508.229.122.282.111.282-.057zm.554.078c.183-.095.318-.255.44-.52.096-.208.109-.306.108-.868 0-.561-.012-.66-.108-.873-.133-.295-.36-.523-.561-.563-.143-.028-.151-.022-.151.106 0 .094.049.183.157.285.208.196.288.49.285 1.045-.002.557-.076.82-.283 1.016-.114.108-.16.192-.16.294 0 .163.07.183.273.078zm1.745-.069c0-.094-.055-.19-.18-.317-.153-.152-.19-.232-.242-.504-.124-.661.029-1.46.302-1.584.098-.045.12-.088.12-.232 0-.174-.002-.176-.14-.136-.241.069-.412.226-.55.505-.116.239-.133.33-.148.815-.024.808.134 1.259.527 1.498.216.132.31.118.31-.045zm.66-.008c.261-.185.467-.773.465-1.331-.001-.359-.124-.866-.258-1.07-.118-.177-.364-.364-.48-.364-.11 0-.068.303.06.423.169.159.257.507.257 1.019 0 .543-.066.816-.24 1.004a.423.423 0 0 0-.136.306c0 .147.01.16.106.13a.998.998 0 0 0 .225-.117zm1.592-.02c0-.114-.028-.177-.094-.212-.2-.107-.3-.408-.32-.968-.022-.627.055-.957.271-1.165.164-.157.201-.4.06-.4-.137 0-.376.174-.502.365-.135.203-.258.71-.259 1.069-.002.685.26 1.276.633 1.43.173.071.21.05.21-.118zm.593.073c.362-.22.54-.68.54-1.385-.002-.497-.057-.758-.222-1.042-.121-.21-.367-.391-.53-.391-.161 0-.136.249.037.372.224.16.31.457.308 1.082 0 .628-.056.829-.283 1.028-.118.103-.162.18-.162.284 0 .17.092.186.312.052zm1.706-.054c0-.102-.046-.186-.16-.294-.207-.195-.28-.46-.283-1.016-.003-.555.077-.849.285-1.045.109-.102.158-.19.158-.285 0-.128-.009-.134-.151-.106-.202.04-.428.268-.561.563-.097.212-.109.312-.11.873 0 .561.013.66.108.866.125.271.215.381.409.501.213.132.305.115.305-.057zm.645.021c.318-.2.505-.793.467-1.472-.03-.505-.082-.716-.234-.942-.113-.167-.38-.371-.486-.371-.12 0-.073.282.075.45.19.216.256.478.254 1.004-.002.537-.073.813-.256.996-.099.1-.137.183-.137.3 0 .149.01.162.106.133.058-.017.153-.061.21-.098zm1.607-.03c0-.107-.04-.19-.138-.282-.208-.196-.261-.409-.26-1.042 0-.476.016-.597.1-.782.056-.12.145-.243.2-.272.07-.037.098-.098.098-.215 0-.2-.091-.213-.337-.046-.355.241-.553.955-.463 1.67.07.562.21.828.542 1.035.202.125.258.11.258-.065zm.637.036c.685-.401.701-2.23.024-2.684-.228-.154-.333-.142-.333.036 0 .103.04.179.14.263.217.182.298.527.273 1.161-.023.558-.123.861-.32.966-.065.035-.093.098-.093.213 0 .194.044.2.31.045zm3.679-.036c0-.112-.038-.187-.138-.275-.213-.187-.3-.558-.275-1.163.023-.532.127-.84.32-.942.128-.07.134-.375.006-.375-.3 0-.627.491-.715 1.073-.117.777.1 1.479.542 1.748.205.125.26.11.26-.066zm.558.085c.205-.106.416-.377.492-.633.174-.586.135-1.268-.1-1.736-.13-.263-.367-.471-.535-.471-.128 0-.122.306.007.375.192.103.296.41.319.942.025.605-.062.976-.275 1.163-.1.088-.138.163-.138.275 0 .17.038.185.23.085zm1.74-.087c0-.118-.033-.18-.139-.259-.192-.142-.295-.515-.293-1.062.002-.545.07-.798.273-1 .173-.174.226-.432.087-.432-.24 0-.532.295-.662.667-.116.334-.116 1.274 0 1.581.107.279.273.488.462.581.228.113.273.1.273-.076zm.554.09c.363-.19.534-.574.563-1.263.03-.699-.062-1.04-.364-1.353-.264-.273-.424-.305-.424-.083 0 .098.045.19.14.284.19.19.254.446.257 1.026.002.552-.086.871-.283 1.027-.083.065-.114.135-.114.258 0 .186.036.202.225.103zm1.745-.082c0-.11-.042-.185-.164-.293-.23-.204-.326-.6-.29-1.19.028-.49.155-.829.343-.914.085-.039.111-.088.111-.208 0-.136-.015-.156-.118-.156-.073 0-.198.073-.328.193-.283.261-.398.624-.398 1.257 0 .692.16 1.114.512 1.352.23.154.332.141.332-.041zm.67-.004c.42-.295.588-1.432.319-2.153-.118-.314-.41-.604-.61-.604-.107 0-.05.293.089.45.182.208.241.448.243.983 0 .527-.097.913-.265 1.045-.087.068-.117.137-.117.264 0 .157.01.17.105.14a1.06 1.06 0 0 0 .236-.125zm3.834-.01c0-.114-.039-.199-.137-.297-.183-.183-.254-.46-.255-.996-.002-.526.064-.788.254-1.004.148-.168.195-.45.075-.45-.106 0-.374.204-.486.37-.153.227-.205.438-.234.943-.043.742.161 1.303.548 1.508.22.117.235.113.235-.073zm.646.067c.37-.225.555-.774.517-1.535-.034-.695-.27-1.133-.682-1.27l-.152-.051v.177c0 .141.023.188.11.228.234.107.388.696.339 1.3-.035.429-.153.734-.328.848-.09.06-.121.12-.121.239 0 .189.085.206.317.064zm3.952-.068c0-.115-.028-.178-.094-.213-.2-.107-.3-.408-.32-.968-.022-.637.058-.978.273-1.16.1-.083.141-.16.141-.262 0-.173-.091-.187-.315-.051-.554.338-.71 1.687-.279 2.4.138.226.382.416.535.416.036 0 .059-.062.059-.162zm.593.072c.362-.22.54-.68.54-1.385-.002-.497-.057-.758-.222-1.042-.114-.197-.365-.391-.506-.391-.122 0-.104.31.022.377.054.03.143.151.199.272.085.185.1.304.1.782 0 .632-.05.833-.258 1.033-.1.095-.14.178-.14.289 0 .18.055.193.265.065zm3.958-.062c0-.108-.04-.19-.138-.283-.208-.196-.261-.409-.26-1.042 0-.476.016-.597.1-.782.056-.12.145-.243.2-.272.07-.037.098-.098.098-.215 0-.2-.091-.213-.337-.046-.355.241-.553.955-.463 1.67.07.562.21.828.542 1.035.202.125.258.11.258-.065zm.637.035c.685-.401.701-2.23.024-2.684-.228-.154-.333-.142-.333.036 0 .103.04.179.14.263.217.182.298.527.273 1.161-.023.558-.123.861-.32.966-.065.035-.093.098-.093.213 0 .194.044.2.31.045zm3.96-.041c0-.12-.03-.18-.121-.239-.464-.304-.44-2.011.03-2.16.07-.022.091-.072.091-.21v-.182l-.152.043c-.084.023-.24.136-.346.253-.275.299-.365.654-.337 1.325.03.682.174 1.02.53 1.241.22.136.305.116.305-.071zm.688-.01c.415-.31.57-1.414.301-2.134-.118-.316-.41-.606-.61-.606-.107 0-.05.293.089.45.181.207.245.46.247.982.001.513-.101.914-.27 1.046-.086.068-.116.136-.116.264 0 .157.01.17.105.14.058-.017.172-.081.254-.142zm3.863.024c0-.102-.045-.186-.16-.294-.205-.194-.276-.455-.276-1.016 0-.556.07-.816.276-1.022.12-.12.16-.2.16-.32v-.16l-.175.073c-.486.203-.712.758-.656 1.608.043.638.227 1.033.558 1.196.225.111.273.1.273-.065zm.554.078c.183-.095.318-.255.44-.52.097-.208.109-.306.108-.868 0-.561-.012-.66-.108-.873-.126-.279-.352-.514-.536-.56-.12-.03-.13-.021-.13.118 0 .103.044.193.14.289.191.19.255.446.257 1.026.003.552-.085.871-.283 1.027-.083.065-.113.135-.113.258 0 .186.035.202.225.103zm3.669-.08a.483.483 0 0 0-.14-.304c-.187-.214-.254-.475-.256-1.004-.003-.531.075-.837.26-1.013.096-.093.136-.176.136-.286 0-.172-.038-.187-.226-.09-.35.183-.531.575-.562 1.214-.038.783.165 1.354.553 1.547.22.11.235.106.235-.064zm.692.025c.322-.209.504-.792.468-1.5-.036-.712-.229-1.084-.656-1.262l-.176-.073v.167c0 .128.033.196.137.284.218.183.307.484.306 1.028-.002.577-.074.841-.284 1.039-.116.11-.16.19-.16.3 0 .138.01.146.13.117a.925.925 0 0 0 .235-.1zm-54.035-1.38V30.17h-.14c-.114 0-.152.028-.205.156-.089.212-.268.343-.522.38-.196.03-.212.043-.212.17v.138h.657v1.001c0 .55.014 1.015.031 1.032.017.017.112.031.211.031h.18v-1.454zm6.662 0V30.17h-.129c-.106 0-.15.04-.246.223-.112.212-.132.226-.41.29-.275.062-.294.075-.294.199v.132h.704v2.064h.375v-1.454zm13.277 0V30.17h-.141c-.121 0-.152.027-.217.19-.084.209-.216.297-.522.348-.181.03-.199.045-.199.17v.136h.704v2.064h.375v-1.454zm9.148 0V30.17h-.154c-.134 0-.163.022-.214.163-.077.214-.239.335-.499.374-.196.03-.212.042-.212.17v.137h.657v2.064h.422v-1.454zm4.551 0V30.17h-.136c-.115 0-.153.032-.237.206-.104.214-.208.28-.53.337-.156.027-.176.046-.176.166v.135h.657v1.001c0 .55.014 1.015.031 1.032.017.017.112.031.211.031h.18v-1.454zm4.551 0V30.17h-.141c-.121 0-.152.027-.217.19-.084.209-.216.297-.522.348-.181.03-.2.045-.2.17v.136h.705v2.064h.375v-1.454zm4.55 0V30.17h-.136c-.115 0-.146.026-.191.163-.07.213-.23.334-.493.374-.195.03-.211.042-.211.17v.137h.656v2.064h.376v-1.454zm4.598 0V30.17h-.16c-.14 0-.164.018-.191.14-.043.192-.257.358-.513.396-.199.03-.215.043-.215.17v.138h.657v2.064h.422v-1.454zm4.551 0V30.17h-.141c-.121 0-.152.027-.217.19-.084.209-.216.297-.522.348-.18.03-.199.045-.199.17v.136h.657v1.001c0 .55.014 1.015.031 1.032.017.017.112.031.211.031h.18v-1.454zm4.176 0V30.17h-.14c-.115 0-.153.028-.206.156-.088.212-.268.343-.522.38-.196.03-.211.043-.211.17v.138h.656v2.064h.423v-1.454zm-54.814-3.15c-.21-.21-.281-.47-.281-1.025 0-.544.101-.894.302-1.043.105-.077.137-.138.137-.261 0-.15-.008-.159-.127-.129a.848.848 0 0 0-.478.37c-.296.478-.32 1.518-.047 2.058.097.191.357.421.522.462.091.022.108.005.12-.122.011-.117-.02-.183-.148-.31zm.839.298c.295-.249.445-.695.444-1.321-.001-.78-.25-1.293-.691-1.43-.096-.03-.106-.017-.106.131 0 .118.038.202.137.3.187.188.257.466.257 1.02 0 .557-.065.813-.254 1.003-.102.102-.14.184-.14.305 0 .16.004.164.129.119a.874.874 0 0 0 .224-.127zm5.605-.002c0-.146-.022-.19-.115-.233-.459-.209-.464-1.845-.007-2.145.092-.06.122-.12.122-.239 0-.176-.029-.187-.248-.094-.377.16-.558.554-.587 1.276-.032.813.156 1.313.57 1.519.107.053.21.096.23.096.02 0 .035-.081.035-.18zm2.49-.27c-.22-.185-.3-.527-.275-1.165.022-.557.113-.832.315-.954.11-.067.143-.387.039-.386-.086 0-.365.178-.464.296-.265.317-.385 1.116-.257 1.72.092.432.26.69.545.835l.211.107.015-.167c.012-.137-.01-.187-.13-.286zm.898.23c.356-.323.496-1.405.267-2.079a1.157 1.157 0 0 0-.435-.566c-.211-.13-.264-.115-.264.07 0 .118.04.2.159.317.204.205.283.56.253 1.142-.025.467-.147.822-.314.911-.074.04-.098.098-.098.24v.186l.174-.072c.096-.04.212-.107.258-.15zm4.624-.095c.223-.25.314-.596.313-1.186-.002-.73-.194-1.182-.588-1.386-.198-.102-.23-.086-.23.116 0 .144.02.191.094.215.188.06.295.376.318.941.026.635-.055.98-.272 1.162-.108.091-.14.158-.14.286v.168l.176-.07c.096-.04.245-.15.33-.246zm3.764.13c0-.141-.021-.19-.092-.213-.243-.077-.413-.712-.357-1.332.038-.417.156-.716.327-.828.093-.06.122-.12.122-.244 0-.155-.007-.162-.13-.132-.203.05-.335.156-.48.385-.17.268-.235.567-.235 1.089 0 .692.208 1.175.587 1.366.103.052.203.094.223.094.019 0 .035-.083.035-.184zm2.096-.29c-.193-.193-.266-.48-.266-1.043 0-.49.097-.83.282-.985.107-.09.14-.157.14-.285 0-.185-.036-.2-.23-.1-.4.207-.59.673-.584 1.434.006.742.2 1.185.599 1.364l.191.086.014-.155c.012-.124-.017-.187-.146-.316zm2.297-.001c-.202-.202-.272-.45-.276-.976-.004-.55.077-.862.275-1.06.113-.113.159-.201.159-.306 0-.137-.01-.145-.127-.116-.23.058-.399.223-.548.537-.14.297-.146.334-.144.896.004.716.101 1.026.405 1.286.26.223.386.237.404.046.011-.114-.02-.18-.148-.308zm2.28.017c-.205-.19-.268-.431-.269-1.019 0-.576.085-.893.285-1.05.083-.065.114-.135.114-.261 0-.157-.01-.17-.106-.142-.441.127-.692.64-.692 1.413 0 .786.175 1.221.569 1.417l.205.102.015-.167c.012-.133-.012-.191-.122-.293zm.939.19c.18-.174.318-.575.35-1.027.059-.84-.234-1.52-.705-1.638-.117-.03-.126-.02-.126.116 0 .104.046.193.157.304.2.2.27.47.27 1.04 0 .554-.064.792-.267.995-.12.12-.16.2-.16.32v.16l.176-.073a1.19 1.19 0 0 0 .305-.197zm3.633-.198c-.212-.187-.291-.471-.287-1.034.005-.562.077-.822.283-1.016.116-.11.16-.191.16-.3 0-.138-.01-.146-.127-.117a.848.848 0 0 0-.479.37c-.296.478-.319 1.518-.046 2.058.097.191.357.421.522.462.092.022.108.005.12-.128.012-.126-.014-.18-.146-.295zm2.454.287c0-.148-.022-.19-.12-.235-.187-.085-.313-.426-.339-.921-.03-.581.07-.979.295-1.179.122-.108.164-.183.164-.293 0-.182-.103-.195-.332-.04-.356.24-.512.657-.512 1.371 0 .749.18 1.183.57 1.376.112.056.22.101.239.101.02 0 .035-.081.035-.18zm2.299.028c0-.118-.037-.182-.163-.283-.24-.192-.321-.512-.297-1.177.02-.58.113-.845.338-.966.094-.05.122-.101.122-.221 0-.188-.086-.204-.324-.059-.217.132-.312.255-.435.56-.088.217-.103.345-.102.82.003.797.175 1.197.597 1.388.256.116.264.115.264-.062zm5.123.029c.17-.086.339-.319.439-.604.118-.336.12-1.178.003-1.517-.095-.276-.3-.539-.503-.643-.215-.111-.277-.09-.277.097 0 .13.025.176.117.218.203.093.323.424.345.95.01.265-.005.572-.037.715-.058.26-.242.532-.359.532-.046 0-.066.058-.066.19 0 .177.008.189.106.159.058-.018.162-.062.232-.097zm3.795-.35c-.196-.195-.26-.45-.262-1.028 0-.552.088-.872.285-1.027.138-.108.171-.46.04-.409a.428.428 0 0 1-.116.029c-.102 0-.371.302-.47.527-.083.193-.112.36-.128.767-.033.812.154 1.312.57 1.518l.194.097.015-.166c.011-.132-.014-.193-.128-.307zm4.577-.003c-.21-.21-.28-.467-.28-1.027 0-.545.1-.893.3-1.04.105-.078.137-.14.137-.262 0-.152-.007-.159-.129-.128-.202.05-.415.238-.522.459-.256.529-.256 1.461 0 1.968.097.191.357.421.522.462.09.022.108.005.12-.122.01-.117-.02-.182-.149-.31zm4.755.324c0-.118-.037-.182-.163-.283-.24-.191-.321-.512-.297-1.177.02-.58.113-.845.338-.966.094-.05.122-.101.122-.221 0-.188-.086-.204-.324-.059-.218.133-.313.256-.432.56-.123.31-.149 1.097-.049 1.488.084.326.295.608.538.719.26.118.267.116.267-.061zm-45.493.053c.342-.176.538-.578.581-1.194.052-.736-.172-1.376-.548-1.568a1.39 1.39 0 0 0-.21-.094c-.014 0-.025.071-.025.159 0 .11.04.203.136.305.173.185.25.503.248 1.031-.002.508-.065.757-.246.963a.483.483 0 0 0-.138.304c0 .157.041.176.202.094zm6.647-.11c0-.117-.027-.178-.098-.215-.167-.09-.289-.445-.313-.912-.03-.573.046-.921.251-1.149.11-.122.16-.222.16-.324 0-.164-.039-.177-.231-.078-.308.16-.5.514-.568 1.046-.09.71.115 1.45.467 1.687.236.16.332.143.332-.055zm5.28.014c.294-.258.444-.69.444-1.279 0-.777-.26-1.324-.692-1.456-.096-.029-.106-.016-.106.14 0 .127.03.197.114.262.178.14.279.513.277 1.027-.001.534-.066.792-.252 1.004-.168.191-.195.45-.047.45.051 0 .169-.066.261-.148zm2.231.041c.449-.3.627-1.253.391-2.086-.075-.265-.283-.539-.494-.647-.192-.1-.23-.086-.23.084 0 .109.04.191.14.285.19.18.282.518.282 1.04 0 .532-.092.866-.282 1.026-.1.083-.14.16-.14.261 0 .18.105.19.333.037zm2.26.02c.366-.24.527-.728.494-1.493-.017-.39-.047-.564-.13-.754-.097-.225-.366-.527-.468-.527a.428.428 0 0 1-.116-.029c-.132-.05-.098.301.04.41.197.155.285.474.283 1.026-.003.58-.067.835-.257 1.026-.095.094-.14.186-.14.284 0 .17.095.19.294.058zm6.925-.077c.272-.245.39-.565.418-1.119.043-.872-.203-1.45-.682-1.599-.095-.03-.105-.017-.105.131 0 .118.038.202.137.3.187.188.257.466.257 1.02 0 .557-.065.814-.255 1.003-.094.094-.14.186-.14.284 0 .199.136.191.37-.02zm2.164.094c.31-.16.5-.567.545-1.168.054-.718-.153-1.34-.517-1.553a1.3 1.3 0 0 0-.231-.117c-.018 0-.032.085-.032.189 0 .127.024.198.073.217.04.015.118.115.174.221.081.156.105.296.12.716.021.603-.056.962-.248 1.142a.347.347 0 0 0-.119.267c0 .174.038.188.235.086zm2.329-.028c.328-.203.491-.65.49-1.346-.002-.693-.164-1.12-.516-1.358-.213-.143-.239-.136-.239.067 0 .12.036.21.116.294.176.184.276.644.249 1.152-.023.446-.152.843-.292.896-.086.033-.104.393-.02.393a.7.7 0 0 0 .212-.098zm3.864-.047a.489.489 0 0 0-.116-.284c-.164-.194-.26-.558-.26-.984 0-.5.075-.814.24-1a.46.46 0 0 0 .136-.326c0-.192-.004-.194-.185-.1-.31.16-.5.514-.57 1.062-.087.7.12 1.44.469 1.672.219.145.286.135.286-.04zm5.346-.023c.3-.27.395-.58.398-1.286.003-.562-.003-.6-.144-.896-.149-.314-.317-.479-.548-.537-.117-.03-.126-.02-.126.116 0 .105.046.193.158.306.198.198.275.493.273 1.052-.002.531-.07.78-.271.981-.203.203-.226.432-.043.432.069 0 .194-.07.303-.168zm4.482.068c.324-.222.493-.687.493-1.352-.001-.78-.253-1.3-.692-1.431-.096-.029-.105-.016-.105.148 0 .13.026.196.097.24.199.124.295.455.297 1.017.001.6-.06.856-.255 1.05-.094.094-.14.186-.14.284 0 .176.093.19.305.044zm4.579-.007c.355-.239.55-.962.46-1.698-.067-.532-.253-.875-.561-1.035-.182-.094-.185-.092-.185.111 0 .13.032.21.116.289.184.172.236.394.236 1.01 0 .48-.015.595-.103.786-.057.123-.136.236-.176.251-.048.019-.073.089-.073.21 0 .216.057.23.286.076zM3.57 27.426v-1.431h-.14c-.116 0-.153.028-.208.16-.082.197-.232.3-.503.347-.188.032-.205.046-.205.174v.14l.34.013.34.014v2.013h.376v-1.43zm1.782 0v-1.431H5.2c-.134 0-.163.024-.232.189-.086.205-.292.327-.552.327-.132 0-.143.012-.143.164v.164h.657v2.017h.422v-1.43zm4.316 0v-1.431h-.155c-.136 0-.165.023-.24.192-.092.209-.284.324-.541.324-.132 0-.143.012-.143.164v.164h.657v2.017h.422v-1.43zm1.783 0v-1.431h-.131c-.108 0-.147.033-.213.183a.583.583 0 0 1-.542.333c-.135 0-.146.012-.146.164v.164h.657v2.017h.375v-1.43zm7.084 0v-1.431h-.14c-.115 0-.152.028-.207.16-.082.197-.233.3-.503.347-.188.032-.205.046-.205.174v.14l.34.013.34.014v2.013h.375v-1.43zm4.551 0v-1.431h-.132c-.108 0-.146.033-.212.183a.583.583 0 0 1-.543.333c-.134 0-.145.012-.145.164v.164h.657v2.017h.375v-1.43zm11.447 0v-1.431h-.155c-.136 0-.165.023-.24.192-.092.209-.284.324-.541.324-.132 0-.143.012-.143.164v.164h.657v2.017h.422v-1.43zm9.102 0v-1.431h-.14c-.115 0-.152.028-.207.16-.083.197-.233.3-.503.347-.189.032-.206.046-.206.174v.14l.34.013.34.014v2.013h.376v-1.43zm4.55 0v-1.431h-.133c-.11 0-.148.032-.217.185a.573.573 0 0 1-.536.33c-.135 0-.145.013-.145.165v.164h.656v2.017h.376v-1.43zm4.598 0v-1.431h-.152c-.133 0-.162.024-.232.189-.086.205-.291.327-.552.327-.132 0-.143.012-.143.164v.164h.657v2.017h.422v-1.43zm4.551 0v-1.431h-.157c-.137 0-.163.02-.2.147-.056.197-.24.327-.505.357-.21.023-.217.029-.217.182v.158h.657v2.017h.422v-1.43zm-50.856-2.84c0-.105-.048-.19-.182-.317-.23-.22-.308-.549-.276-1.16.026-.495.15-.836.338-.922.1-.045.12-.087.12-.238 0-.168-.008-.18-.105-.15-.518.16-.747.611-.747 1.475 0 .711.168 1.136.541 1.364.22.134.311.118.311-.053zm.512.074c.203-.105.407-.367.502-.643.117-.34.115-1.181-.003-1.517-.13-.372-.417-.68-.633-.68-.102 0-.052.309.069.422.168.158.257.508.257 1.008 0 .499-.096.878-.261 1.031a.341.341 0 0 0-.114.276c0 .194.003.196.183.103zm1.928-.085c0-.108-.04-.19-.14-.284-.185-.175-.282-.52-.282-1 0-.555.07-.83.262-1.034.117-.124.16-.212.16-.328v-.158l-.174.073c-.235.098-.332.193-.464.453-.295.582-.237 1.695.11 2.107.133.159.372.323.47.324.034 0 .058-.062.058-.153zm.558.085c.45-.232.693-.996.57-1.785-.09-.576-.414-1.056-.713-1.056-.125 0-.12.285.006.364.186.116.296.427.32.903.028.598-.046.942-.253 1.171-.11.122-.16.223-.16.324 0 .164.04.178.23.079zm3.711-.088c0-.119-.028-.172-.117-.22-.206-.11-.323-.435-.345-.957-.01-.265.006-.573.038-.716.058-.259.241-.531.358-.531.046 0 .066-.058.066-.188 0-.103-.011-.188-.025-.188-.066 0-.38.154-.46.225-.262.238-.443.943-.383 1.501.065.606.229.94.561 1.142.221.135.307.116.307-.068zm.507.09c.07-.037.183-.126.253-.2.522-.55.43-2.156-.145-2.537a.652.652 0 0 0-.223-.106c-.09 0-.086.357.005.392.153.059.274.415.296.875.028.569-.045.939-.228 1.147a.46.46 0 0 0-.136.325c0 .192.004.195.178.104zm1.878-.096c.01-.095-.024-.171-.127-.278-.206-.212-.306-.638-.276-1.179.026-.465.12-.755.296-.908.141-.122.163-.382.032-.382-.168 0-.424.23-.556.5-.115.235-.133.334-.15.814-.029.793.12 1.23.505 1.49.193.13.255.116.276-.057zm.64.048c.374-.22.583-.851.523-1.579-.053-.63-.251-1.01-.608-1.17-.223-.1-.266-.086-.266.086 0 .088.05.166.164.257.24.191.32.511.296 1.177-.02.58-.125.877-.344.977-.09.04-.116.088-.116.21 0 .192.078.202.35.042zm1.854-.03c0-.103-.045-.187-.159-.294a.882.882 0 0 1-.21-.337c-.19-.675-.057-1.593.254-1.76.091-.048.115-.098.115-.238 0-.176 0-.176-.15-.133-.402.115-.651.584-.684 1.288-.035.772.164 1.324.552 1.53.229.123.282.112.282-.056zm.666-.004c.318-.224.483-.762.45-1.47-.026-.562-.144-.879-.418-1.126-.238-.216-.37-.22-.37-.012 0 .107.04.19.135.279.182.172.264.492.262 1.023-.003.533-.075.812-.26.996-.098.099-.136.182-.136.3 0 .149.01.161.105.131.058-.018.162-.072.232-.12zm1.586.001c0-.101-.05-.202-.16-.324-.205-.227-.281-.575-.251-1.148.024-.467.146-.823.313-.912.133-.071.142-.378.011-.378-.31 0-.636.501-.71 1.091-.1.802.106 1.468.535 1.73.205.124.262.112.262-.059zm.606.05c.38-.233.532-.608.539-1.334.007-.805-.2-1.277-.64-1.455l-.176-.07v.167c0 .129.032.195.14.286.215.181.296.523.273 1.16-.02.56-.11.832-.316.956-.069.042-.097.107-.097.223 0 .191.051.204.277.066zm1.693-.045c0-.1-.048-.19-.157-.3-.2-.2-.265-.456-.265-1.045 0-.568.058-.786.263-.99.108-.108.159-.204.159-.296 0-.149-.074-.173-.25-.083-.336.173-.533.57-.58 1.166-.055.723.154 1.354.522 1.575.252.15.308.145.308-.027zm.614.035c.348-.235.512-.66.512-1.33 0-.787-.175-1.222-.569-1.417l-.205-.102-.015.172c-.012.137.009.19.105.27.177.146.267.417.295.892.033.552-.065.978-.268 1.164-.105.096-.14.17-.14.293 0 .196.061.209.285.058zm3.937-.046c0-.108-.04-.19-.14-.284-.185-.175-.282-.52-.282-1 0-.555.07-.83.262-1.034.117-.124.16-.212.16-.328v-.158l-.176.072c-.42.171-.632.63-.638 1.384-.005.754.158 1.172.554 1.413.204.125.26.111.26-.065zm.558.085c.456-.236.696-1 .57-1.81-.085-.556-.415-1.03-.713-1.03-.152 0-.11.247.071.43.191.19.264.48.264 1.04 0 .481-.097.826-.282 1-.1.095-.14.177-.14.285 0 .17.038.184.23.085zm1.74-.074c0-.1-.047-.19-.158-.301-.198-.199-.279-.51-.275-1.06.004-.525.075-.775.274-.974.12-.12.16-.2.16-.32v-.16l-.176.074c-.255.106-.42.284-.537.581-.086.218-.104.358-.106.848-.002.562.004.599.144.895.134.282.29.451.487.525.147.055.188.032.188-.108zm.519.095c.102 0 .37-.303.469-.527.15-.345.185-1.135.07-1.56-.116-.428-.404-.774-.647-.774-.14-.001-.105.265.058.428.19.19.254.445.257 1.026.002.552-.086.87-.283 1.026-.138.108-.172.46-.04.41a.428.428 0 0 1 .116-.03zm1.78-.112c0-.12-.03-.179-.121-.238-.233-.153-.322-.451-.322-1.08 0-.479.015-.598.102-.786.06-.133.15-.245.221-.278.098-.044.12-.087.12-.231 0-.173-.003-.176-.134-.138-.505.144-.734.655-.701 1.566.015.415.04.571.124.757.127.28.263.436.453.52.219.098.258.083.258-.092zm.67.008c.422-.297.588-1.433.316-2.16-.106-.282-.408-.598-.572-.598-.142 0-.11.264.054.45.181.208.241.448.243.973 0 .533-.072.836-.247 1.023a.423.423 0 0 0-.135.307c0 .147.01.159.105.13a1.06 1.06 0 0 0 .236-.125zm3.881.007c0-.103-.045-.187-.16-.294-.205-.195-.278-.456-.28-1.016-.001-.548.071-.814.28-1.023.12-.12.16-.2.16-.32v-.16l-.175.073c-.452.19-.67.658-.67 1.445 0 .648.217 1.168.563 1.352.229.122.282.11.282-.057zm.669-.006c.174-.123.342-.428.412-.749.087-.397.039-1.128-.094-1.435-.117-.27-.417-.575-.565-.575-.15 0-.125.257.04.423.185.184.266.503.263 1.032-.004.535-.076.812-.26.996-.098.099-.136.182-.136.3 0 .149.01.161.105.131a1.05 1.05 0 0 0 .235-.123zm3.882-.013c0-.114-.028-.177-.094-.212-.2-.108-.3-.409-.32-.969-.022-.636.058-.978.273-1.159.165-.138.203-.406.059-.406-.138 0-.377.174-.503.365-.27.407-.33 1.344-.12 1.89.114.299.21.423.428.556.225.137.277.125.277-.065zm.614.056c.355-.24.515-.664.515-1.371 0-.742-.184-1.184-.574-1.377l-.203-.101-.015.172c-.012.137.009.19.104.27.174.142.27.42.298.855.035.56-.055.984-.254 1.183-.116.116-.157.198-.157.316 0 .19.064.203.286.053zm3.984-.036c0-.104-.05-.19-.182-.316-.214-.206-.288-.469-.288-1.036 0-.483.106-.83.31-1.016.104-.095.16-.19.16-.27 0-.169-.044-.182-.272-.08-.389.174-.595.686-.586 1.453.007.666.187 1.099.546 1.318.22.134.312.118.312-.053zm.511.075c.203-.105.408-.367.503-.643.116-.34.115-1.181-.003-1.518-.137-.389-.418-.68-.657-.68-.131 0-.087.25.07.4.218.21.295.543.27 1.168-.023.557-.113.832-.315.954-.07.042-.098.107-.098.223 0 .181.036.196.23.096zm3.992-.101c0-.123-.03-.194-.113-.259-.197-.155-.285-.474-.285-1.027.001-.575.066-.833.259-1.026.094-.094.14-.186.14-.283 0-.172-.095-.19-.295-.058-.365.24-.526.728-.494 1.493.03.702.212 1.1.577 1.263.202.089.211.084.211-.103zm.719.018c.078-.056.201-.232.284-.408.14-.296.147-.333.144-.896-.002-.493-.02-.628-.108-.855-.118-.3-.419-.599-.601-.599-.175 0-.147.234.05.432.201.2.27.45.272.981.002.56-.075.855-.273 1.053-.112.112-.158.2-.158.306 0 .136.01.145.126.115a.965.965 0 0 0 .264-.13zm3.55-.018c0-.123-.03-.194-.113-.259-.203-.16-.285-.472-.283-1.073.002-.59.099-.923.299-1.03.13-.07.142-.378.015-.378-.168 0-.424.23-.556.5-.115.234-.133.334-.15.814-.029.792.12 1.23.504 1.488.225.152.285.138.285-.062zm.632.055c.374-.219.584-.852.524-1.576-.054-.645-.27-1.042-.65-1.196l-.177-.071v.168c0 .129.033.195.14.286.192.16.282.493.282 1.036 0 .57-.066.826-.265 1.025-.109.11-.157.2-.157.3 0 .172.05.176.303.028zm3.544-.045c0-.12-.03-.179-.121-.239-.464-.303-.44-2.01.03-2.16.07-.022.091-.071.091-.21v-.181l-.152.042c-.084.023-.24.137-.346.253-.275.3-.366.655-.337 1.326.03.701.212 1.1.577 1.262.218.097.258.082.258-.093zm.687-.01c.455-.34.592-1.596.248-2.275-.104-.207-.39-.465-.514-.465-.149 0-.122.259.046.45.185.211.249.468.25 1.006.002.516-.098.886-.275 1.025-.083.066-.113.135-.113.262 0 .157.01.17.105.14.058-.018.172-.082.253-.143zM4.836 23.227v-1.455H4.7c-.114 0-.146.027-.19.159-.071.218-.175.298-.46.36-.227.048-.245.062-.245.189v.137h.657v2.064h.375v-1.454zm6.85 0v-1.455h-.137c-.116 0-.146.027-.193.168-.065.199-.253.326-.543.37-.19.029-.206.042-.206.169v.138h.704v2.064h.375v-1.454zm13.699 0v-1.455h-.139c-.118 0-.151.03-.228.203-.094.213-.2.28-.536.335-.157.026-.176.044-.176.168v.139h.704v2.064h.375v-1.454zm9.137-.012l.013-1.443h-.16c-.128 0-.165.022-.187.11-.056.221-.208.35-.477.406-.24.05-.257.063-.257.191v.138h.657v2.069l.2-.014.199-.015.012-1.442zm4.562.012v-1.455h-.14c-.114 0-.152.029-.205.157-.077.184-.283.359-.423.36-.227.001-.31.053-.31.192v.136h.656v1c0 .55.014 1.015.031 1.033.017.017.112.03.211.03h.18v-1.453zm4.551 0v-1.455h-.139c-.118 0-.151.03-.228.203-.094.213-.2.28-.536.335-.157.026-.176.044-.176.168v.139h.704v2.064h.375v-1.454zm4.55 0v-1.455h-.136c-.115 0-.146.027-.19.159-.072.218-.175.298-.461.36-.227.048-.244.062-.244.189v.137h.656v2.064h.376v-1.454zm4.598 0v-1.455l-.152.002c-.132.001-.165.028-.246.2-.101.211-.225.295-.505.338-.157.025-.176.042-.176.166v.139h.657v2.064h.422v-1.454zm4.082 0v-1.455h-.137c-.115 0-.152.033-.236.206-.104.215-.205.279-.53.332-.157.026-.176.044-.176.168v.139h.657v1c0 .55.014 1.015.031 1.033.017.017.112.03.211.03h.18v-1.453zm-43.678-2.862c0-.133-.02-.188-.068-.188-.105 0-.294-.28-.356-.527-.078-.311-.037-1.13.07-1.385a.655.655 0 0 1 .219-.28c.105-.062.135-.114.135-.234 0-.174-.066-.195-.277-.086-.331.172-.534.57-.595 1.17-.056.546.13 1.26.388 1.493.083.075.372.219.449.223.02 0 .035-.083.035-.186zm7.958-.118c.23-.26.323-.615.318-1.219-.007-.726-.158-1.1-.54-1.333-.225-.138-.276-.125-.276.066 0 .116.028.181.097.223.206.124.296.397.316.956.023.637-.058.979-.273 1.16-.108.09-.14.157-.14.286v.168l.176-.071c.096-.04.241-.146.322-.236zm4.514.057c.538-.502.502-2.116-.056-2.54a.948.948 0 0 0-.277-.145c-.122-.03-.129-.023-.129.128 0 .123.032.185.137.262.201.149.303.5.301 1.042-.002.558-.072.817-.278 1.023-.12.12-.16.2-.16.32v.16l.176-.073c.096-.04.225-.12.286-.177zm2.313-.028c.227-.248.336-.626.339-1.178.004-.761-.186-1.227-.585-1.433-.212-.11-.277-.089-.277.088 0 .119.029.172.117.22.064.034.165.159.223.277.094.19.106.286.106.825 0 .537-.013.633-.103.802a.872.872 0 0 1-.223.27c-.114.076-.168.295-.09.372.051.052.364-.103.493-.243zm1.337-.2c-.205-.205-.273-.455-.275-1.002-.002-.548.1-.92.293-1.063.108-.08.14-.14.14-.264 0-.15-.008-.158-.127-.128-.231.058-.399.222-.548.537-.138.292-.146.34-.146.872 0 .834.171 1.24.608 1.436l.19.085.013-.155c.012-.125-.017-.187-.148-.318zm6.85 0c-.212-.211-.284-.475-.282-1.025.001-.56.074-.821.28-1.016.116-.11.16-.19.16-.3 0-.137-.01-.146-.127-.116-.44.11-.718.658-.718 1.417 0 .78.216 1.254.657 1.44l.164.07.014-.154c.011-.123-.018-.186-.148-.316zm2.456.297c0-.148-.022-.19-.12-.235-.071-.033-.162-.146-.223-.278-.089-.192-.102-.301-.1-.809.002-.662.058-.859.298-1.036.111-.082.145-.143.145-.262 0-.185-.086-.203-.311-.066-.393.24-.55.69-.526 1.498.014.485.03.577.148.815.134.273.308.437.539.506.07.021.132.04.138.043a.65.65 0 0 0 .012-.176zm2.114-.27c-.218-.184-.298-.523-.275-1.163.02-.56.12-.86.32-.968.065-.035.093-.098.093-.212 0-.194-.044-.2-.303-.05-.367.216-.585.856-.526 1.549.056.655.253 1.041.612 1.203l.194.087.014-.163c.012-.134-.011-.185-.129-.284zm5.454.225c.38-.343.516-1.43.262-2.094-.108-.282-.206-.408-.422-.54-.238-.144-.324-.129-.324.06 0 .12.028.17.122.22.221.12.314.386.338.964.026.663-.055.987-.297 1.18-.153.122-.218.317-.133.402.038.038.341-.09.454-.192zm4.595-.045c.387-.37.48-1.565.17-2.203-.112-.234-.335-.422-.55-.465-.143-.029-.148-.024-.146.129.001.126.032.177.152.252.217.135.324.483.324 1.055.001.588-.066.824-.295 1.042-.17.161-.235.345-.154.426.047.047.357-.1.499-.236zm-44.159.078c0-.097-.045-.19-.14-.284-.19-.19-.254-.445-.257-1.026-.002-.552.086-.87.283-1.026.083-.065.114-.136.114-.259 0-.2-.06-.214-.285-.062-.353.237-.513.66-.513 1.351 0 .634.115.996.398 1.257.26.24.4.256.4.05zm.578.092c.347-.178.541-.583.58-1.214.055-.865-.22-1.5-.7-1.62-.122-.03-.13-.023-.13.128 0 .124.032.185.14.264.192.142.295.515.293 1.063-.002.545-.07.798-.273 1-.108.108-.16.203-.16.296 0 .149.074.173.25.083zM13.8 20.4c.578-.39.67-1.985.146-2.536-.113-.12-.337-.266-.406-.266-.062 0-.022.38.043.405.037.014.116.124.176.244.095.194.107.288.107.829 0 .546-.01.63-.107.811-.06.111-.139.214-.176.228-.091.035-.095.392-.005.392a.642.642 0 0 0 .222-.107zm1.966-.037c0-.102-.04-.178-.14-.262-.215-.181-.296-.523-.273-1.16.02-.56.12-.86.32-.968.066-.035.093-.098.093-.212 0-.19-.051-.202-.277-.065-.388.237-.535.608-.536 1.356-.002.74.15 1.15.503 1.365.22.134.31.118.31-.054zm.666.027c.356-.241.546-.95.455-1.688-.066-.532-.252-.876-.56-1.035-.196-.1-.232-.086-.232.09 0 .12.04.2.159.319.204.205.283.559.253 1.141-.025.467-.147.823-.314.912-.07.038-.098.098-.098.215 0 .201.09.214.337.046zm3.885-.046c0-.117-.027-.177-.098-.215-.167-.09-.289-.445-.313-.912-.03-.573.046-.92.251-1.148.11-.122.16-.223.16-.324 0-.164-.039-.178-.231-.078-.308.159-.5.514-.568 1.045-.09.712.11 1.439.462 1.678.246.168.337.155.337-.046zm4.551.018c0-.096-.045-.189-.134-.278-.185-.185-.265-.502-.265-1.055 0-.523.084-.823.283-1.01.138-.13.172-.452.042-.402a.428.428 0 0 1-.116.028c-.1 0-.37.302-.471.527-.097.216-.11.321-.112.834-.002.747.06.975.35 1.275.263.272.423.303.423.081zm2.299.004a.3.3 0 0 0-.098-.223c-.208-.174-.292-.429-.315-.953-.025-.6.057-.951.272-1.154.14-.132.191-.354.095-.414-.07-.043-.3.095-.462.279-.497.566-.388 2.128.175 2.5.228.151.333.14.333-.035zm2.932.04c.359-.246.513-.714.483-1.467-.017-.406-.045-.574-.13-.766-.097-.225-.366-.528-.468-.528a.428.428 0 0 1-.116-.028c-.13-.05-.096.272.042.402.203.19.283.485.28 1.033-.002.58-.066.836-.256 1.026-.095.095-.14.187-.14.284 0 .176.093.19.305.045zm1.619-.062c0-.112-.028-.177-.09-.21-.049-.026-.139-.148-.2-.271-.096-.198-.11-.29-.108-.787 0-.475.017-.598.102-.783.055-.121.144-.248.198-.281.115-.072.144-.414.034-.414-.106 0-.374.204-.487.372-.262.39-.335 1.265-.153 1.84.1.312.17.418.393.592.206.16.31.14.31-.058zm.577.11c.343-.176.538-.578.582-1.197.06-.846-.23-1.518-.705-1.637-.117-.03-.126-.021-.126.115 0 .105.046.193.157.305.2.2.273.481.272 1.044-.002.547-.067.789-.269.99-.109.11-.16.204-.16.297 0 .149.074.173.25.083zm4.718-.112c.27-.244.39-.564.418-1.114.044-.879-.204-1.462-.682-1.605-.096-.028-.105-.016-.105.148 0 .131.026.196.097.24.193.121.294.457.298.995.004.58-.072.89-.261 1.07-.094.088-.134.171-.134.278 0 .208.13.204.37-.012zm2.197.073c.219-.134.381-.409.46-.78.178-.84-.023-1.66-.471-1.923a1.238 1.238 0 0 0-.225-.114c-.066 0-.031.366.037.392.037.014.115.117.174.227.086.165.109.298.124.725.021.602-.056.961-.248 1.141a.347.347 0 0 0-.119.268c0 .181.055.194.268.064zm2.296-.006c.325-.2.49-.651.492-1.335.002-.706-.177-1.165-.54-1.386-.21-.128-.264-.114-.264.066 0 .11.04.193.14.289.208.2.259.4.259 1.033 0 .477-.016.596-.101.782-.056.12-.145.242-.2.271-.07.038-.098.098-.098.215 0 .194.077.21.312.065zm3.864-.085c0-.122-.024-.192-.073-.21-.14-.054-.269-.45-.292-.897-.028-.544.048-.918.228-1.123a.46.46 0 0 0 .137-.326c0-.192-.004-.195-.178-.104-.332.173-.504.49-.575 1.056-.09.716.108 1.43.463 1.67.238.163.29.151.29-.066zm4.597.038c0-.097-.045-.19-.14-.283-.19-.191-.254-.446-.256-1.026-.003-.548.077-.843.28-1.034.108-.1.157-.318.088-.387-.046-.045-.266.057-.402.186-.23.22-.334.545-.357 1.125-.029.707.078 1.084.387 1.37.26.24.4.257.4.05zm4.88-.012c0-.122-.027-.168-.12-.211-.191-.087-.317-.429-.34-.925-.029-.61.05-.935.278-1.163.194-.194.256-.453.109-.453-.207 0-.533.288-.653.577-.206.492-.178 1.398.058 1.861.138.273.372.47.557.47.094 0 .11-.023.11-.156zm.614.05c.6-.402.68-2.027.125-2.552-.14-.133-.32-.25-.384-.25-.015 0-.027.085-.027.19 0 .126.024.198.072.216.169.065.272.394.294.935.024.6-.054.963-.247 1.144a.347.347 0 0 0-.119.268c0 .187.064.198.286.049zm-46.028-1.37v-1.432h-.16c-.131 0-.164.02-.189.122-.051.205-.228.34-.491.375-.234.03-.24.035-.24.19v.158h.658v2.017h.422v-1.43zm1.923 0v-1.432h-.154c-.133 0-.16.021-.2.149-.06.197-.243.325-.51.355-.213.024-.22.03-.205.171l.014.146.34.014.34.014v2.013h.375v-1.43zm7.178 0v-1.432h-.14c-.115 0-.152.029-.207.16-.082.197-.233.301-.503.347-.188.032-.205.047-.205.175v.14l.34.013.34.014v2.013h.375v-1.43zm4.551 0v-1.432h-.135c-.107 0-.148.03-.196.147-.09.22-.224.318-.475.351-.22.03-.226.035-.226.189v.158h.657v2.017h.375v-1.43zm11.447 0v-1.432h-.16c-.133 0-.166.022-.207.137-.076.22-.216.326-.475.36-.231.03-.237.035-.237.19v.158h.657v2.017h.422v-1.43zm9.102 0v-1.432h-.14c-.115 0-.152.029-.207.16-.083.197-.233.301-.503.347-.189.032-.206.047-.206.175v.14l.34.013.34.014v2.013h.376v-1.43zm4.55 0v-1.432h-.137c-.096 0-.146.028-.167.094a.588.588 0 0 1-.496.404c-.225.03-.231.034-.231.189v.158h.656v2.017h.376v-1.43zm4.74 0v-1.432h-.143c-.111 0-.152.028-.19.13-.086.224-.23.336-.473.368-.22.03-.227.035-.227.189v.158h.657v2.017h.375v-1.43zm5.113 0v-1.432h-.16c-.133 0-.167.022-.206.135-.073.209-.236.33-.487.363-.22.03-.226.035-.226.189v.158h.657v2.017h.422v-1.43zM10.513 16.16c0-.123-.031-.193-.114-.258-.197-.156-.285-.475-.283-1.027.003-.58.073-.86.26-1.036.102-.094.137-.17.137-.294 0-.165 0-.166-.145-.115-.41.142-.653.665-.653 1.4 0 .541.068.84.25 1.11.128.187.394.39.512.39.02 0 .036-.077.036-.17zm.632.056c.435-.255.643-1.053.49-1.882-.088-.477-.332-.821-.645-.91-.146-.043-.149-.04-.149.113 0 .115.042.198.16.316.2.2.273.457.276.975.003.547-.08.86-.277 1.058-.11.11-.159.202-.159.301 0 .172.05.177.304.029zm3.59-.048c0-.106-.03-.183-.089-.224a.971.971 0 0 1-.197-.245c-.09-.152-.11-.267-.127-.706-.025-.639.056-.984.273-1.166.108-.091.14-.158.14-.286v-.168l-.176.07c-.425.173-.64.645-.642 1.409-.001.73.169 1.153.558 1.39.208.127.26.112.26-.074zm.642.04c.321-.202.495-.658.498-1.31.005-.764-.18-1.218-.577-1.42l-.21-.106-.016.17c-.011.13.009.187.083.239.193.135.297.43.32.907.03.607-.046.957-.253 1.164-.119.12-.158.199-.158.321 0 .147.01.16.105.131a1.02 1.02 0 0 0 .208-.096zm3.815-.042c0-.116-.028-.181-.097-.223-.206-.124-.296-.397-.316-.957-.023-.636.058-.978.273-1.16.108-.09.14-.157.14-.285v-.168l-.176.073c-.456.19-.635.578-.64 1.382-.004.77.152 1.168.556 1.414.208.127.26.112.26-.076zm.657.026c.342-.24.485-.691.462-1.454-.015-.502-.029-.574-.158-.827-.143-.279-.378-.49-.545-.49-.132 0-.122.306.01.378.404.215.432 1.683.041 2.087-.096.1-.138.19-.138.296 0 .137.011.15.105.123a.922.922 0 0 0 .223-.113zm3.894-.022c0-.119-.04-.2-.159-.318-.206-.207-.283-.557-.253-1.164.023-.477.128-.772.32-.907.075-.052.095-.109.083-.239l-.014-.17-.211.106c-.39.198-.577.65-.578 1.4 0 .712.22 1.22.597 1.385.205.09.215.085.215-.093zm.558.092c.393-.204.59-.674.588-1.41-.001-.764-.216-1.236-.642-1.408l-.176-.071v.168c0 .128.033.195.141.286.212.178.296.525.274 1.136-.02.543-.142.911-.324.969-.07.022-.09.072-.09.213 0 .202.032.218.23.117zm4.04-.091c0-.12-.03-.179-.122-.239-.226-.148-.32-.454-.32-1.033 0-.625.067-.883.282-1.08.104-.096.16-.19.16-.27 0-.172-.05-.185-.278-.072-.406.2-.59.7-.557 1.512.03.728.181 1.061.577 1.267.21.11.258.093.258-.085zm.584.045c.497-.291.7-1.4.402-2.195-.107-.287-.402-.6-.564-.6-.15 0-.125.258.045.45.18.205.247.463.25.957.002.515-.08.852-.253 1.037-.095.102-.136.194-.136.305 0 .088.014.16.031.16s.119-.052.225-.114zm3.966-.042c0-.117-.033-.18-.136-.256-.2-.148-.3-.496-.299-1.041.001-.562.07-.819.275-1.024.118-.118.16-.201.16-.316 0-.153-.002-.156-.149-.114-.47.135-.737.78-.681 1.642.036.57.2.943.497 1.13.276.175.333.172.333-.02zm.666.008c.298-.21.459-.678.46-1.337 0-.743-.244-1.273-.653-1.416-.143-.05-.144-.049-.144.115 0 .121.037.203.14.305.189.19.254.446.254 1.003 0 .554-.07.832-.257 1.02-.1.098-.137.182-.137.3 0 .148.01.16.105.131.058-.018.163-.073.232-.121zm3.557-.013c0-.115-.04-.2-.137-.298-.184-.184-.257-.462-.26-.996-.002-.529.08-.848.263-1.032a.385.385 0 0 0 .134-.3c0-.162-.004-.165-.13-.118-.395.149-.626.6-.657 1.286-.036.772.163 1.325.551 1.531.22.117.236.113.236-.073zm.611.066c.391-.2.587-.743.551-1.524-.025-.538-.136-.859-.38-1.093-.155-.15-.376-.259-.426-.21-.076.077-.015.274.129.414.209.202.29.5.285 1.053-.005.562-.077.823-.282 1.016-.114.108-.16.192-.16.295 0 .169.036.175.283.049zm3.705-.075c0-.123-.031-.193-.114-.258-.2-.157-.285-.474-.284-1.05 0-.588.064-.828.268-1.019.11-.102.133-.16.121-.293l-.014-.167-.206.102c-.416.207-.592.69-.56 1.537.028.7.185 1.04.578 1.244.196.102.211.095.211-.096zm.632.056c.371-.218.582-.849.526-1.577-.05-.643-.31-1.11-.68-1.216-.147-.042-.15-.04-.15.114 0 .115.042.198.16.316.203.203.267.44.267.994 0 .57-.07.841-.27 1.04-.109.11-.157.201-.157.3 0 .172.05.177.304.029zm3.731-.072c0-.11-.027-.2-.065-.223a.81.81 0 0 1-.174-.22c-.09-.154-.11-.269-.127-.708-.024-.605.055-.968.247-1.149a.347.347 0 0 0 .119-.267c0-.181-.054-.194-.268-.064-.357.218-.562.834-.51 1.537.045.618.248 1.024.614 1.225.147.08.164.067.164-.13zm.689.066c.321-.208.492-.658.497-1.311.006-.862-.236-1.346-.752-1.5-.095-.028-.106-.015-.106.13 0 .121.03.182.117.239.21.138.318.427.342.92.031.637-.044.96-.276 1.182-.137.13-.183.211-.183.322 0 .137.01.145.13.116a.913.913 0 0 0 .23-.098zm2.032-.044c0-.116-.029-.181-.098-.223-.208-.126-.296-.396-.315-.975-.022-.652.033-.895.253-1.115.198-.198.226-.432.051-.432-.183 0-.483.3-.6.6-.087.22-.106.363-.107.807-.002.592.046.817.236 1.11.118.183.393.388.521.39.036.001.06-.062.06-.162zm.698-.013c.267-.2.398-.558.42-1.141.03-.848-.145-1.33-.56-1.537l-.206-.102-.015.167c-.011.133.012.191.122.293.203.19.266.431.267 1.019.001.577-.084.893-.284 1.05-.083.065-.113.135-.113.261 0 .157.009.17.105.14.058-.017.177-.085.264-.15zm1.976.024c0-.118-.03-.17-.132-.227-.176-.1-.283-.341-.335-.756-.05-.391.005-.95.113-1.16a.933.933 0 0 1 .216-.25c.114-.089.143-.143.13-.25-.013-.115-.033-.134-.132-.121-.163.02-.426.24-.548.454-.15.265-.22.718-.189 1.21.036.555.218.955.516 1.133.275.165.361.157.361-.033zm.651-.025c.268-.199.396-.553.42-1.164.021-.558-.048-.924-.233-1.225-.098-.16-.353-.342-.48-.342-.131 0-.094.249.062.412.192.201.259.47.26 1.042 0 .548-.08.843-.282 1.033-.108.101-.157.318-.088.387.04.04.16-.01.341-.143zm1.874.023c.01-.09-.029-.168-.147-.286-.201-.2-.277-.493-.275-1.055.001-.525.066-.763.269-.988.322-.356.138-.582-.228-.28-.217.18-.337.407-.404.768-.152.824.054 1.621.486 1.88.225.135.28.128.299-.04zm.706-.02c.269-.205.396-.559.42-1.167.031-.812-.153-1.31-.558-1.511-.228-.113-.278-.1-.278.072 0 .08.056.174.16.27.218.2.286.457.283 1.08-.002.58-.097.886-.321 1.033-.093.06-.122.12-.122.244 0 .155.007.162.13.131.07-.017.2-.086.286-.152zM8.965 14.829v-1.454h-.139c-.118 0-.151.03-.228.203-.094.213-.201.28-.536.335-.157.026-.176.044-.176.168v.138h.703v2.064h.376V14.83zm4.211-.012l.012-1.442h-.16c-.135 0-.164.02-.191.129-.052.208-.204.332-.477.388-.235.05-.252.062-.252.19v.137h.657v1.001c0 .55.015 1.016.033 1.034.019.019.109.028.2.02l.166-.014.012-1.443zm4.233.012v-1.454h-.14c-.114 0-.152.029-.205.156-.077.184-.283.36-.423.36-.227.002-.31.054-.31.193v.135h.656v1.001c0 .55.014 1.015.032 1.032.017.017.112.031.21.031h.18V14.83zm4.551 0v-1.454h-.138c-.119 0-.152.03-.229.203-.094.213-.2.28-.536.335-.157.026-.176.044-.176.168v.138h.704v2.064h.375V14.83zm4.551 0v-1.454h-.137c-.114 0-.146.026-.19.158-.063.192-.169.295-.342.33-.07.016-.181.039-.246.052-.093.02-.117.053-.117.164v.14h.657v2.064h.375V14.83zm4.587-.012l.012-1.442h-.16c-.128 0-.165.021-.187.11a.518.518 0 0 1-.395.385c-.317.053-.338.067-.338.212v.137h.656v2.07l.2-.015.2-.014.012-1.443zm4.561.012v-1.454h-.14c-.114 0-.152.029-.205.156-.077.184-.283.36-.423.36-.227.002-.31.054-.31.193v.135h.656v1.001c0 .55.014 1.015.031 1.032.018.017.113.031.212.031h.18V14.83zm4.27 0v-1.454h-.165c-.13 0-.164.018-.164.09 0 .18-.22.37-.494.426-.24.05-.256.062-.256.19v.138h.656v1.001c0 .55.015 1.015.032 1.032.017.017.112.031.21.031h.18V14.83zm4.363 0v-1.454h-.137c-.114 0-.146.026-.19.158-.063.192-.17.295-.342.33-.07.016-.182.039-.246.052-.093.02-.117.053-.117.164v.14h.656v2.064h.376V14.83zM15.72 11.993c0-.115-.028-.178-.094-.213-.052-.028-.141-.14-.2-.248-.094-.177-.105-.264-.105-.831s.01-.654.105-.831c.059-.109.148-.22.2-.248.067-.036.094-.098.094-.218 0-.158-.007-.166-.127-.136-.353.089-.59.468-.677 1.087-.1.71.101 1.436.466 1.684.247.167.338.155.338-.046zm.665.046c.597-.406.663-2.022.104-2.575-.127-.125-.295-.217-.397-.217-.024 0-.044.065-.044.145 0 .1.042.185.136.273.186.173.286.538.286 1.036s-.1.863-.286 1.036c-.093.088-.136.173-.136.273 0 .183.098.191.337.029zm-3.34-.093c0-.117-.027-.177-.098-.215-.054-.03-.143-.151-.199-.272-.085-.185-.1-.306-.1-.781-.001-.634.052-.847.26-1.043.097-.092.137-.175.137-.283 0-.169-.038-.184-.225-.086-.33.172-.51.5-.57 1.042-.084.748.105 1.444.458 1.684.246.167.337.155.337-.046zm.662.055c.505-.338.665-1.567.302-2.31-.13-.265-.293-.416-.51-.47-.118-.03-.125-.022-.125.136 0 .12.027.182.093.218.2.107.3.408.32.968.023.645-.06.993-.274 1.151-.106.079-.14.141-.14.259 0 .19.1.205.334.048zm6.657-.05c0-.122-.026-.168-.12-.21-.071-.033-.162-.146-.223-.278-.088-.191-.103-.304-.103-.809 0-.514.013-.613.106-.802.059-.118.159-.243.223-.277.089-.048.117-.1.117-.219 0-.176-.066-.198-.272-.09a1.098 1.098 0 0 0-.454.51c-.2.481-.176 1.39.05 1.852.13.264.386.48.57.48.09 0 .106-.025.106-.156zm.615.05c.368-.246.576-.985.477-1.693-.082-.585-.32-.977-.658-1.082-.097-.03-.105-.018-.105.153 0 .12.024.195.068.212.037.015.116.117.174.228.086.165.109.297.124.724.022.612-.06.986-.25 1.135-.086.068-.116.137-.116.261 0 .201.06.214.286.062zm3.889-.048c0-.11-.04-.193-.136-.286-.186-.178-.263-.482-.263-1.036 0-.528.092-.852.285-1.004.083-.065.114-.135.114-.258 0-.186-.036-.202-.225-.103-.184.095-.319.255-.441.52-.096.208-.108.306-.108.868 0 .56.012.66.107.866.125.271.215.381.409.501.203.125.258.11.258-.068zm.578.103c.35-.18.545-.588.582-1.214.05-.87-.223-1.5-.703-1.62-.12-.03-.129-.022-.129.117 0 .108.044.19.16.299.206.194.277.455.277 1.016 0 .556-.07.816-.277 1.022-.108.109-.16.204-.16.296 0 .15.074.174.25.084zm1.72-.11c0-.115-.027-.178-.093-.213-.192-.103-.296-.41-.319-.942-.025-.6.062-.973.276-1.172.143-.134.197-.42.078-.42-.078.001-.37.18-.447.276-.495.606-.393 2.136.169 2.517.246.167.337.155.337-.046zm.666.046c.543-.369.67-1.784.219-2.442-.103-.15-.391-.35-.504-.35-.112 0-.054.289.085.419.214.199.301.572.276 1.172-.023.532-.127.84-.32.942-.065.035-.093.098-.093.213 0 .2.091.213.337.046zm1.634-.02c0-.092-.052-.187-.16-.296-.205-.205-.273-.459-.273-1.03 0-.55.097-.887.296-1.035.105-.077.137-.138.137-.261 0-.152-.007-.159-.13-.128-.48.12-.755.754-.7 1.62.039.624.226 1.021.572 1.212.17.094.258.067.258-.082zm.592.046c.391-.238.555-.7.524-1.477-.028-.702-.197-1.085-.563-1.275-.19-.099-.225-.083-.225.103 0 .123.031.193.114.258.193.152.285.476.285 1.004 0 .555-.08.871-.265 1.046-.094.088-.134.172-.134.279 0 .177.055.19.264.062zm1.66-.054c0-.097-.046-.19-.14-.283-.173-.174-.235-.378-.268-.886-.034-.51.068-.944.269-1.152.095-.098.139-.19.139-.293 0-.18-.067-.191-.286-.044-.352.238-.512.66-.512 1.352 0 .599.115.986.362 1.223.281.268.436.298.436.083zm.61.074c.316-.164.508-.582.547-1.196.056-.864-.219-1.5-.7-1.62-.122-.03-.129-.024-.129.128 0 .124.032.184.14.264.192.142.29.5.289 1.061-.002.557-.066.798-.269 1.001-.109.109-.16.204-.16.296 0 .157.073.174.281.066zm3.94-.076a.483.483 0 0 0-.138-.304c-.19-.216-.256-.478-.254-1.004.001-.537.072-.813.255-.996.098-.098.137-.183.137-.298 0-.186-.052-.2-.268-.068-.363.222-.556.785-.515 1.503.038.675.165.982.498 1.207.218.146.285.137.285-.04zm.6.08c.185-.095.32-.255.441-.52.093-.204.107-.311.108-.821.001-.803-.119-1.146-.488-1.395-.234-.157-.332-.142-.332.053 0 .119.03.178.121.238.218.143.317.454.32 1.01.005.61-.069.89-.283 1.078-.114.1-.158.179-.158.281 0 .161.07.181.272.076zm1.98-.096c0-.112-.027-.178-.089-.21-.259-.14-.405-.944-.286-1.575.047-.247.096-.358.218-.493.108-.12.158-.22.158-.321 0-.178-.068-.187-.286-.04-.352.237-.512.659-.512 1.35 0 .6.115.987.362 1.224.29.277.436.299.436.065zm.61.092c.306-.158.504-.574.549-1.153.065-.849-.229-1.545-.704-1.664-.117-.03-.126-.02-.126.116 0 .105.046.193.157.305.199.198.265.455.265 1.024 0 .543-.09.876-.282 1.037-.1.084-.14.16-.14.262 0 .164.07.182.281.073zm2.065-.073c0-.102-.04-.178-.14-.262-.192-.161-.282-.494-.282-1.037 0-.569.066-.826.265-1.024.111-.112.157-.2.157-.305 0-.137-.01-.145-.126-.116-.48.12-.772.819-.7 1.671.048.58.214.943.516 1.127.219.134.31.118.31-.054zm.63.053c.193-.128.386-.437.445-.711.076-.351.063-1.064-.024-1.36-.087-.296-.25-.53-.458-.657-.208-.127-.265-.114-.265.057 0 .1.05.201.158.32.122.136.17.247.217.494.12.631-.027 1.436-.286 1.574-.06.033-.089.099-.089.21 0 .193.087.213.301.073zm3.92-.055c0-.1-.042-.185-.137-.273-.211-.198-.301-.575-.274-1.15.024-.517.1-.758.29-.924a.318.318 0 0 0 .122-.26c0-.174-.038-.188-.23-.088-.211.109-.42.382-.493.647-.23.827-.054 1.779.386 2.077.238.162.337.154.337-.029zm.662.04c.363-.24.578-1.025.472-1.717-.093-.597-.337-.979-.683-1.066-.114-.028-.122-.02-.122.137 0 .12.027.182.094.218.051.028.14.14.199.248.094.177.105.264.106.831 0 .568-.011.654-.106.831-.058.109-.148.22-.2.248-.065.035-.093.098-.093.213 0 .198.095.214.333.057zm3.795-.05a.346.346 0 0 0-.116-.266c-.198-.186-.281-.486-.28-1.01.002-.554.073-.832.26-1.02.098-.097.136-.182.136-.297 0-.186-.052-.2-.27-.066-.37.225-.56.81-.517 1.58.034.59.196.941.53 1.147.203.126.257.111.257-.069zm.601.09c.459-.24.682-1.045.529-1.906-.089-.495-.428-.936-.719-.937-.151 0-.104.267.077.438.208.196.282.461.282 1.016 0 .55-.073.814-.281 1.022-.109.109-.16.204-.16.296 0 .155.073.174.272.07zm-32.597-1.436V9.153h-.133c-.112 0-.146.03-.206.183-.085.217-.231.323-.51.37-.19.033-.206.047-.206.175v.14l.34.014.34.013v2.013h.375v-1.454zm4.551 0V9.153h-.116c-.089 0-.14.045-.212.187a.604.604 0 0 1-.514.363c-.18.024-.19.034-.19.183v.158h.657v2.017h.375v-1.454zm11.436.012l-.012-1.443-.13-.015c-.11-.012-.14.01-.2.15-.1.243-.243.353-.5.387-.22.029-.226.034-.226.188v.158h.657v2.017h.424l-.013-1.442zm9.77-.012V9.153h-.137c-.115 0-.146.026-.191.163-.073.22-.244.345-.524.382-.226.03-.232.034-.218.177l.014.146.34.014.34.013v2.013h.376v-1.454zm4.55 0V9.153h-.128c-.106 0-.144.034-.206.183-.091.218-.25.332-.508.367-.179.024-.19.034-.19.183v.158h.657v2.017h.376v-1.454zm-29.18-2.843c0-.125-.032-.194-.12-.262-.211-.167-.27-.383-.275-1-.005-.626.074-.934.28-1.097.084-.065.114-.135.114-.259v-.17l-.175.074c-.243.101-.363.226-.48.498-.275.639-.172 1.74.2 2.144.093.1.328.234.42.24.02 0 .035-.075.035-.168zm.52.122c.115 0 .422-.356.517-.602.137-.355.151-1.165.028-1.567-.094-.307-.313-.583-.536-.676-.204-.085-.201-.086-.201.104 0 .128.033.195.14.285.216.182.298.528.273 1.163-.016.438-.037.552-.13.719-.062.109-.15.21-.198.225-.064.02-.085.075-.085.217 0 .153.014.184.074.16a.43.43 0 0 1 .117-.028zm1.872-.112c0-.115-.03-.178-.11-.23-.154-.102-.256-.34-.31-.727-.087-.61.084-1.364.325-1.44.075-.024.095-.071.095-.22 0-.153-.014-.184-.074-.16a.428.428 0 0 1-.116.028c-.081 0-.38.299-.465.465-.14.276-.206.717-.175 1.188.036.558.217.957.516 1.136.263.158.314.152.314-.04zm.665.011c.299-.21.46-.677.46-1.336.001-.75-.238-1.272-.651-1.416-.145-.05-.146-.05-.146.116 0 .123.036.2.137.294.186.174.258.456.258 1.012 0 .555-.07.833-.258 1.02-.099.099-.137.182-.137.3 0 .149.01.161.106.132.058-.018.162-.073.231-.122zm1.625-.024c.01-.11-.014-.16-.11-.224a.847.847 0 0 1-.226-.3c-.086-.186-.1-.302-.1-.782.002-.63.091-.928.323-1.08.12-.078.173-.313.085-.368-.097-.06-.437.163-.57.373-.194.305-.252.615-.229 1.219.028.719.182 1.055.578 1.26.182.095.231.075.249-.098zm.52.104c.203-.104.408-.366.504-.643.067-.191.087-.379.084-.79-.004-.626-.104-.96-.36-1.208-.158-.152-.38-.262-.43-.212-.074.075-.013.275.134.438.221.245.273.477.252 1.121-.02.58-.107.85-.316.975-.069.042-.098.108-.098.223 0 .181.036.196.23.096zm10.842-.092c0-.115-.039-.2-.137-.298-.187-.187-.257-.465-.257-1.02 0-.556.072-.838.258-1.012.1-.095.136-.17.136-.294 0-.166 0-.166-.145-.116-.413.144-.653.665-.652 1.416.001.718.196 1.202.562 1.397.22.117.235.112.235-.073zm.639.042c.302-.177.484-.574.52-1.137.03-.471-.035-.912-.175-1.188-.085-.166-.384-.465-.465-.465a.428.428 0 0 1-.116-.029c-.06-.023-.074.007-.074.157 0 .148.021.195.11.235.445.203.446 1.863 0 2.155-.08.053-.11.116-.11.231 0 .19.045.197.31.041zm1.989-.037c0-.112-.04-.194-.142-.292-.187-.178-.28-.51-.28-.99 0-.55.071-.837.262-1.049.18-.199.219-.422.073-.422-.157 0-.404.209-.535.453-.245.454-.275 1.344-.062 1.853.096.231.298.461.47.536.203.088.214.084.214-.09zm.532.09c.459-.19.713-.95.597-1.782a2.335 2.335 0 0 0-.157-.581c-.12-.24-.374-.466-.55-.489-.098-.012-.12.007-.132.113-.012.098.028.17.17.305.22.21.29.468.29 1.062 0 .518-.097.835-.306 1.002-.126.1-.163.165-.163.283 0 .17.03.18.251.088zm3.83-.12c0-.143-.02-.19-.094-.214-.195-.062-.299-.376-.319-.963-.022-.651.034-.894.254-1.114.12-.122.16-.2.16-.325 0-.13-.016-.159-.075-.136a.43.43 0 0 1-.117.029c-.023 0-.126.075-.228.167-.292.264-.394.583-.397 1.24-.002.591.046.816.236 1.11.119.182.393.388.522.39.037 0 .059-.066.059-.183zm.698.009c.263-.197.395-.557.42-1.138.034-.846-.155-1.363-.567-1.548l-.198-.09-.015.165c-.012.13.01.185.102.257.202.159.288.473.288 1.052 0 .577-.086.894-.285 1.05-.084.066-.114.136-.114.262 0 .157.01.17.106.14.058-.017.176-.085.263-.15zM27.11 6.42l.012-1.442h-.155c-.136 0-.163.021-.215.165-.073.2-.234.314-.493.348-.178.024-.195.039-.208.179l-.015.152h.663v2.07l.199-.015.2-.014.012-1.443zm2.263.012V4.978h-.141c-.121 0-.152.027-.217.19a.494.494 0 0 1-.457.326c-.197 0-.264.049-.264.192v.136h.703v2.064h.376V6.432zm2.299 0V4.978h-.16c-.14 0-.165.018-.19.134-.045.202-.217.336-.478.373-.215.03-.229.041-.243.185l-.014.152h.662v1c0 .551.014 1.016.032 1.033.017.017.112.031.21.031h.18V6.432zm2.252 0V4.978h-.138c-.115 0-.145.026-.191.165-.066.2-.225.313-.487.348-.177.024-.194.039-.208.179l-.015.152h.663v2.064h.376V6.432zm7.178 0V4.978h-.132c-.109 0-.146.033-.215.187-.094.213-.204.289-.474.326-.171.024-.19.04-.203.179l-.015.152h.663v2.064h.376V6.432z"/></svg>