<svg xmlns="http://www.w3.org/2000/svg" width="64" height="64"><path d="M30.316 62.973c-5.33-.315-10.329-1.9-14.766-4.683A31.151 31.151 0 0 1 2.825 42.51a31.22 31.22 0 0 1-.413-19.8A31.055 31.055 0 0 1 20.264 3.29C26.66.674 33.909.284 40.558 2.2a29.2 29.2 0 0 1 5.287 2.07c3.173 1.587 5.794 3.495 8.274 6.021.61.622.785.826.72.84-.26.052-.599-.208-1.052-.808-.265-.35-.384-.466-.583-.567-.328-.167-.683-.207-1.231-.14-.646.08-.897.228-1.216.717-.11.17-.239.398-.286.508l-.086.2.12.143.121.143.214-.44c.371-.763.657-.936 1.563-.942.546-.004.766.097 1.018.466.271.4.608.761.834.893.363.212.742.236.742.047 0-.038.018-.07.04-.07.052 0 .854.944 1.446 1.703a31.002 31.002 0 0 1 5.975 13.237c.738 3.941.722 7.92-.045 11.808-1.417 7.181-5.31 13.585-11.068 18.208a31.019 31.019 0 0 1-7.539 4.448 30.994 30.994 0 0 1-9.199 2.219c-1.066.09-3.32.127-4.291.07zm10.117-14.908c.11-.1.112-.11.088-.812-.029-.887-.083-1.071-.328-1.13-.213-.05-.417-.229-.417-.365 0-.055.045-.205.1-.333.06-.138.089-.28.072-.345-.015-.062-.189-.312-.385-.557-.638-.794-.95-1.53-1.016-2.392-.068-.892-.284-1.19-.982-1.354-.413-.097-3.146-1.327-3.435-1.546-.29-.22-1.318-.873-1.917-1.219a2.507 2.507 0 0 0-.704-.286l-.324-.067.03.125c.093.38.462.88.975 1.319.837.715 2.563 1.682 3.887 2.178.737.276.899.357 1.087.545.213.213.36.529.498 1.069.36 1.414 1.503 4.222 2.03 4.99.152.22.38.352.534.308a.663.663 0 0 0 .207-.128zm4.567-.32c.094-.108.158-.616.118-.95-.034-.287-.158-.468-.428-.627-.228-.133-.505-.422-.505-.527 0-.036.078-.139.172-.228l.172-.163-.084-.255a1.03 1.03 0 0 0-.261-.422l-.384-.357c-.246-.228-.455-.57-.715-1.17-.25-.576-.584-1.593-.652-1.982-.079-.451-.137-.606-.299-.79-.182-.207-.511-.376-.918-.47-.396-.092-.61-.201-1.322-.671-1.152-.763-2.057-1.582-2.275-2.06-.067-.147-.24-.723-.384-1.28-.677-2.612-.771-2.895-1.197-3.592-.376-.614-.378-.86-.01-1.048a.872.872 0 0 0 .191-.115c0-.01-.066-.16-.148-.334-.114-.245-.193-.345-.344-.438-.313-.194-.456-.351-.604-.661-.099-.209-.192-.327-.331-.419-.106-.07-.199-.121-.206-.112-.03.037-.36 2.053-.404 2.467-.086.807-.062 1.512.072 2.148.067.313.237 1.15.38 1.859.142.71.279 1.344.304 1.41.026.067.039.122.03.122-.01 0-.37-.213-.8-.474-1.77-1.068-3.374-1.79-4.629-2.084-.683-.16-1.684-.24-3.348-.273-1.298-.025-1.51-.02-1.466.038.502.65.729.83 1.1.873.601.068 1.835.27 2.166.355.432.11.94.341 1.57.714.605.358.85.439 1.846.609.443.076.86.16.928.186.067.026.483.32.925.653 1.316.993 1.826 1.283 2.701 1.538.559.162 1.45.476 2.075.731l1.052.43c1.316.537 1.971.956 2.413 1.545.28.371.318.445.573 1.103.289.746.613 1.478 1.115 2.521.238.496.477 1.061.53 1.257.054.196.126.41.16.474.158.305.684.64.923.586a.434.434 0 0 0 .198-.117zm8.47-.283l.013-.407-.463-.057c-.93-.114-1.596-.344-2.434-.84-1.664-.984-2.782-2.765-2.928-4.665l-.035-.453-.422-.014-.422-.014.03.488c.118 1.862 1.118 3.733 2.616 4.899a6.99 6.99 0 0 0 2.03 1.11c.56.196 1.51.38 1.882.365.116-.005.119-.014.132-.412zm1.576.288a6.925 6.925 0 0 0 3.904-2.276c.988-1.172 1.513-2.447 1.666-4.043l.03-.32h-.884l-.011.33c-.014.417-.122.949-.303 1.496-.62 1.867-2.3 3.417-4.245 3.914-.205.053-.57.12-.811.15l-.439.053v.846l.32-.032c.177-.018.524-.07.773-.118zm-2.66-3.701l1.133-1.962-.198-.066a1.465 1.465 0 0 1-.35-.18l-.15-.115-.118.203c-.891 1.533-2.164 3.756-2.164 3.78 0 .056.64.377.678.34.02-.021.547-.921 1.17-2zm4.254 1.818c.165-.096.3-.198.3-.225-.001-.027-.51-.94-1.13-2.03l-1.13-1.979-.108.116c-.06.064-.203.155-.316.202-.114.047-.207.103-.208.124 0 .055 2.235 3.968 2.266 3.968.014 0 .16-.079.326-.176zm-11.822-3.976c-.029-.21-.026-.215.084-.19.69.158.713.156.489-.043l-.186-.164.194-.002c.106 0 .207-.015.223-.031.017-.017-.071-.144-.195-.283-.287-.322-.623-.886-.91-1.53-.53-1.19-.814-2.137-1.041-3.478a24.864 24.864 0 0 0-1.423-5.137c-.763-1.916-1.556-2.68-2.799-2.695-.904-.012-1.357.192-2.146.964l-.558.546.241.373c.239.37.242.373.415.35.097-.014.416-.115.71-.225.47-.177.57-.198.83-.18.394.028.692.179 1.087.551.73.69 1.206 1.672 1.69 3.497.642 2.415 1.499 4.96 1.936 5.75.3.544 1.32 2.143 1.365 2.143.013 0 .01-.097-.006-.216zm7.648-.744a2.29 2.29 0 0 1-.03-.403v-.297h-4.399l-.028.107c-.039.145-.038.628.002.668.017.017 1.033.031 2.257.031h2.227l-.029-.106zm6.94-.297v-.403h-4.433l-.004.403-.004.403h4.44v-.403zm1.175-.652c-.156-1.528-.852-2.971-1.986-4.12-.25-.253-.417-.436-.37-.407.048.03.097.044.109.031.012-.012.163-1.067.336-2.345.172-1.278.324-2.379.337-2.447.026-.13-.03-.108 1.33-.516.336-.1.34-.104.398-.314.033-.116.05-.221.038-.233-.012-.012-.522-.034-1.133-.048l-1.11-.026-.3.355c-.165.195-.34.407-.391.472-.084.106-.104.32-.217 2.314a126.8 126.8 0 0 1-.135 2.21c-.006.007-.184-.078-.397-.19-.35-.182-.384-.213-.363-.32.044-.227.173-2.118.158-2.322-.019-.251-.192-.413-.39-.363-.229.057-.257.17-.344 1.37-.052.708-.1 1.125-.132 1.124-.028 0-.178-.04-.335-.09l-.284-.09.017-.648c.016-.62.012-.653-.092-.763-.135-.144-.287-.147-.445-.008-.114.099-.125.144-.152.637-.017.291-.046.555-.065.586-.024.04-.12.046-.324.022l-.29-.034v-.32c0-.38-.11-.571-.327-.571-.256 0-.31.092-.345.577-.017.243-.033.605-.036.803l-.004.36.652.028c1.042.043 1.843.281 2.785.827 1.498.868 2.537 2.326 2.89 4.054.04.201.074.462.074.581v.215h.883l-.04-.39zm-12.913.071a6.632 6.632 0 0 1 .753-2.3c.858-1.534 2.511-2.696 4.264-2.997l.178-.03v-.399c0-.219-.02-.41-.043-.424-.06-.038-.89.14-1.304.278-1.988.668-3.641 2.289-4.333 4.25a8.368 8.368 0 0 0-.366 1.599l-.033.296h.852l.032-.273zm8.146-2.158l1.076-1.86-.105-.089c-.113-.095-.557-.33-.578-.306-.05.06-2.111 3.665-2.111 3.692 0 .02.049.048.109.063s.193.101.296.192c.103.091.198.167.212.168.013.001.509-.836 1.1-1.86zm-9.764-2.604c-.11-2.382-.2-4.46-.202-4.616l-.004-.284-.404-.463-.404-.462-.864.005c-.475.003-.983.019-1.13.035l-.266.03.064.219.064.217.815.245c.448.135.82.25.826.257.006.006.162 1.921.347 4.256.185 2.334.35 4.344.364 4.465l.028.22.458.117c.252.063.47.11.483.103.014-.007-.065-1.962-.175-4.344zm7.218 4.09l.207-.078-1.073-1.883-1.074-1.883-.335.184c-.184.101-.33.203-.322.225.007.022.483.868 1.058 1.88l1.045 1.838.143-.102c.08-.056.237-.137.351-.18zm-28.783-2.34c-.122-.527-.306-1.43-.295-1.44.008-.008.246.218.529.502l.515.517.415-.209c.229-.114.428-.228.443-.252.028-.045-.315-.321-.684-.55-.654-.407-1.143-.934-1.461-1.576l-.17-.342-.595-.353c-.64-.38-1.46-.802-1.95-1.001-.338-.138-2.053-.58-2.865-.737a9.581 9.581 0 0 0-1.155-.13l-.634-.027.035.161c.019.09.076.274.127.41.084.228.122.267.43.447 1.396.815 3.812 1.653 5.796 2.01.261.047.491.1.512.117.02.017-.019.307-.087.644-.078.38-.128.79-.132 1.084l-.008.472.237.092c.285.11.82.262.937.266.063.002.078-.024.06-.104zm16.295-.036c.116-.116.137-.168.112-.273a.459.459 0 0 0-.088-.183c-.13-.125-2.065-1.108-2.182-1.108-.251 0-.412.333-.257.533.067.087 2.111 1.174 2.209 1.174.034 0 .127-.064.206-.143zm-37.269-.375c.483-.38.814-1.266.56-1.497-.127-.114-.122-.327.01-.45.059-.055.224-.133.368-.174.144-.041.302-.11.35-.152.049-.043.277-.454.507-.914.28-.56.61-1.116.996-1.683.317-.466.817-1.213 1.111-1.658.846-1.283.634-1.282 4.22-.022 2.482.872 3.106 1.043 3.106.85 0-.067.11-.049.321.053.287.139.456.123.655-.059l.168-.154-.12-.38a3.168 3.168 0 0 0-.715-1.231c-.353-.361-.477-.404-1.243-.428-1.135-.035-3.766-.366-4.882-.613-1.352-.3-1.648-.196-1.964.689-.086.239-.301.68-.48.979-.812 1.368-1.67 2.404-2.528 3.052-.295.223-.343.338-.261.63.074.264.016.482-.237.884-.393.627-.537.979-.54 1.321-.005.395.09.728.259.909.154.165.185.17.339.048zm43.917.047c.231-.089.231-.09.071-2.504-.083-1.246-.168-2.313-.19-2.372-.085-.23-.446-.257-.585-.044-.063.096-.054.352.085 2.424l.156 2.316.13.113c.147.126.166.13.333.067zm1.331-1.567a.32.32 0 0 0 .165-.158c.026-.068.015-.532-.029-1.198-.057-.883-.086-1.11-.154-1.206-.145-.205-.482-.168-.57.063-.05.131.08 2.141.15 2.325a.339.339 0 0 0 .151.175c.133.053.145.053.287 0zM2.268 34.46c.29-.301.423-.561.474-.925.032-.232.025-.287-.048-.368a.612.612 0 0 1-.118-.222c-.042-.17.129-.344.41-.418.355-.093.435-.157.647-.517.209-.354.845-1.212 2.464-3.322.571-.744.949-1.194 1.055-1.255.248-.145.627-.125 1.945.102.639.11 1.663.275 2.276.366.613.09 1.18.178 1.26.195.106.021.17.006.23-.054.088-.088.085-.155-.027-.624-.06-.25-.027-.714.096-1.374.057-.3.46-1.517.547-1.65.036-.056.164-.124.295-.158.127-.032.28-.097.341-.144l.11-.084-.3-.125c-.24-.1-.346-.12-.531-.097-.23.029-.232.03-.362.318-.27.596-.578 1.617-.686 2.27l-.03.178-1.1-.001c-1.676-.001-2.888-.073-3.62-.216-.944-.184-1.253-.1-1.508.406-.06.118-.135.3-.168.403-.231.726-1.12 1.951-1.915 2.64-.212.183-.668.524-1.014.758-.345.234-.66.473-.698.532-.059.09-.061.15-.015.372.07.33.022.51-.245.94-.473.759-.499.83-.5 1.35 0 .355.02.51.08.617.107.193.266.356.348.356.037 0 .175-.112.307-.25zm12.849-.146l.21-.056.196-.488.195-.489.418.548c.23.301.424.548.434.548.009 0 .179-.1.377-.223l.361-.223-.134-.096c-.238-.17-.64-.567-.772-.762-.175-.258-.366-.755-.436-1.134-.032-.172-.071-.313-.089-.313-.068 0-.484.304-.544.398-.13.204-.93 2.176-.908 2.236.044.113.37.138.692.054zm34.996-.08c.081-.081.094-.158.094-.545 0-.51-.067-.64-.331-.64-.266 0-.332.13-.332.648 0 .36.016.477.078.546.106.117.37.113.49-.008zm-17.57-1.772l-.034-1.494-.29-.028c-.16-.016-1.379-.048-2.71-.072-2.194-.038-2.492-.053-3.223-.16-4.125-.606-6.5-1.893-8.686-4.707-.266-.341-.55-.678-.633-.747-.134-.113-.177-.124-.395-.099-.375.044-1.48.321-2.415.606-.464.141-.853.266-.863.277a.85.85 0 0 0-.05.207l-.03.188.396.137c.54.188 1.315.596 1.745.917.728.545 1.34 1.314 1.644 2.07l.154.382.773-.013c2.222-.037 4.214.608 5.422 1.756.276.262.705.783.803.974.003.005.108-.021.235-.06.694-.208 2.01-.329 3.204-.292 2.216.067 3.825.55 4.677 1.4.153.152.285.271.295.264.009-.007 0-.685-.018-1.506zm20.96-.19a4.294 4.294 0 0 0 2.325-1.513l.306-.386-.13-.105c-.178-.144-.726-.47-.859-.513-.078-.025-.212.018-.496.16-.754.379-1.689.51-3.31.462-1.183-.035-1.73-.137-2.358-.44-.295-.143-.48-.206-.551-.189-.115.03-.973.578-.973.623 0 .059.523.676.764.902.587.55 1.338.92 2.152 1.061.157.028.338.06.403.07.066.012.6.015 1.186.007.976-.012 1.107-.024 1.541-.139zm-6.383-2.707c.464-.407.528-.48.457-.522-.487-.29-.64-.5-.641-.882 0-.866.49-1.295 1.76-1.537.87-.165 4.398-.207 5.732-.067.882.092 1.625.349 1.93.666.312.327.43.905.26 1.288-.093.21-.143.254-.6.53-.065.04.024.136.537.58l.615.531.44-.508.508-.59c.063-.075.048-.105-.149-.316-.255-.273-.292-.387-.25-.758.077-.687-.442-1.494-1.21-1.882-1.062-.534-1.511-.59-4.772-.59-1.285 0-2.336-.013-2.336-.03 0-.05.292-.547.536-.913l.234-.35-.153-.12a1.192 1.192 0 0 1-.239-.26l-.086-.142-.342.516c-.188.284-.437.712-.553.951l-.212.435-.326.074c-.397.09-1.078.365-1.383.559-.305.194-.647.58-.817.92-.126.252-.142.331-.148.763-.008.526-.057.66-.344.934l-.142.136.506.582c.416.478.518.572.577.528.04-.03.314-.266.61-.526zm-17.16 0c.641-.083 2.435-.355 2.443-.371.003-.006.031-.17.063-.366a5.65 5.65 0 0 1 .113-.537c.052-.175.06-.18.22-.15.262.049.63.2.931.38.309.187.466.198.489.037.026-.186-.635-.585-1.198-.722-.283-.07-1.122-.146-1.185-.109-.024.015-.302.032-.616.037-.337.006-.914.064-1.402.14-1.053.164-2.436.187-3.343.054-1.436-.21-3.231-.703-4.078-1.122-.313-.154-.622-.324-.687-.376l-.119-.095.175.028c.35.056.64-.123.776-.48a.855.855 0 0 0-.383-1.055c-.211-.12-.587-.156-.438-.043.127.096.286.494.252.628a.257.257 0 0 1-.14.158c-.143.055-.476-.02-.652-.145-.165-.118-.384-.43-.472-.676l-.065-.182-.285.03c-.602.064-1.519.181-1.536.197-.036.032.098.615.188.821.203.463 1.128 1.405 1.89 1.923 1.197.815 3.933 1.764 5.811 2.014l.522.071c.305.043 2.165-.018 2.726-.09zm25.203-4.729c.13-.043.194-.094.203-.162.02-.132-.043-.171-.476-.303-.305-.093-.367-.13-.367-.21.002-.143.173-.499.255-.53.138-.053.22-.323.189-.62-.023-.225-.014-.292.048-.343.12-.1.095-.155-.206-.453l-.282-.28-.251.17a3.713 3.713 0 0 0-.444.36c-.186.185-.194.206-.277.736l-.086.544.157.294c.188.353.53.746.729.837.163.074.516.057.808-.04zm-34.688-.544c.134-.027.15-.045.128-.154-.07-.349.17-1.828.446-2.759.077-.257.14-.48.14-.495 0-.038-.436-.22-.463-.193-.048.048-.35 1.17-.467 1.732-.08.389-.132.822-.149 1.248l-.026.652h.12c.065 0 .187-.014.271-.03zm-1.996-.377c.225-.039.457-.103.516-.141.133-.087.138-.262.01-.378-.087-.079-.124-.082-.367-.032-1.06.217-2.453.17-3.922-.132-1.084-.223-1.428-.025-.617.355.27.127 1.426.335 2.229.401.65.054 1.612.021 2.151-.073zm32.961-.072c.324-.072 1.182-.45 1.424-.628.195-.144.221-.187.295-.494.217-.906 1.161-3.032 1.736-3.909.349-.533.633-.643.962-.372l.17.14.208-.171c.114-.095.373-.334.575-.53.278-.272.36-.381.34-.449-.052-.16-.548-.952-.701-1.116-.197-.213-.482-.336-.846-.365a6.367 6.367 0 0 1-.45-.051c-.15-.027-.152-.024-.23.25-.164.581-.697 1.415-1.198 1.873-.51.466-1.305.74-2.004.689-.802-.059-1.691-.56-2.089-1.178a4.216 4.216 0 0 1-.325-.744l-.166-.497-.281-.063c-.324-.074-.36-.066-.827.167l-.348.174.03.569c.016.313.041.7.057.859l.027.29.368.03c.44.037.812.14.915.255.134.148.176.336.227 1.023.053.714.065.778.256 1.408.194.638.414 1.744.429 2.158.017.477.014.457.093.561.162.214.713.263 1.353.121zm-37.014-1.31c.163-.334.973-1.577 1.028-1.577.022 0 .136.065.254.144.535.362 1.4.685 2.325.87.913.183.959.186 1.068.077.118-.118.122-.247.013-.344-.048-.042-.377-.128-.77-.2-1.165-.212-1.868-.488-2.628-1.03l-.378-.27-.215.293c-.45.614-.9 1.32-1.135 1.778a6.723 6.723 0 0 0-.244.503c0 .016.123.028.274.028h.275l.133-.273zm42.27-.732c.148-.084.503-.302.79-.483.287-.182.697-.413.912-.514.399-.188.629-.404.629-.59 0-.11-.232-.49-.444-.73a9.143 9.143 0 0 1-.478-.652c-.18-.267-.347-.485-.37-.485-.088 0-1.123.916-1.092.967.018.03.102.151.189.272.086.12.156.242.156.27 0 .056-.41.374-1.316 1.022-.32.228-.58.422-.58.43 0 .008.185.196.41.418l.412.404.257-.088c.14-.048.377-.157.525-.241zm-42.691-1.083c.048-.053.133-.271.19-.486.12-.452.06-.416.876-.533.608-.087 1.172-.218 1.565-.362.978-.36 1.6-1.027 1.753-1.88.1-.56-.078-1.06-.349-.98-.16.048-.226.166-.184.328.075.292.03.672-.117.983-.262.556-.751.918-1.555 1.152-.37.107-1.387.308-1.562.308-.033 0-.073-.063-.089-.14-.02-.1-.063-.15-.146-.171-.084-.022-.195-.155-.386-.464a15.62 15.62 0 0 0-.287-.455c-.029-.03-.35.293-.35.353 0 .028.1.21.221.405.121.195.217.396.212.449-.004.052-.047.393-.095.758-.078.593-.08.673-.015.747.094.11.212.105.318-.012zm7.531-.889c.363-1.134.426-1.482.43-2.383l.005-.782.168.19c.416.468.69.928.803 1.35l.057.21.278-.306c.153-.169.279-.328.28-.354.003-.08-.423-.697-.63-.913-.196-.203-.187-.24.037-.154.068.025.329.1.58.165.428.111.465.114.545.04.088-.078.466-.704.466-.77 0-.02-.144-.005-.32.033-.212.044-.489.06-.818.045-.42-.018-.554-.045-.854-.17-.597-.25-.931-.502-1.237-.933-.682-.962-1.483-1.437-2.72-1.612-.609-.087-.714-.086-.805.005-.095.095-.095.275 0 .354.04.034.338.1.66.145.97.14 1.595.422 2.082.943.913.976 1.151 2.261.734 3.96-.088.362-.275.973-.296.973-.006 0-.564-.225-1.241-.5-1.019-.414-1.249-.492-1.336-.453-.15.069-.192.274-.079.386.079.077 2.807 1.217 2.937 1.227.028.002.151-.311.274-.696zm-8.345.608c.09-.034.123-.09.145-.237l.058-.392.03-.2-.168.178c-.14.15-.189.173-.302.148-.248-.055-.253-.06-.253-.278 0-.277-.055-.41-.26-.637l-.168-.186.178-.135c.098-.074.542-.487.986-.918.444-.432.93-.896 1.078-1.033.284-.262.414-.474.56-.91.12-.357.114-.46-.03-.554-.21-.138-.323-.039-.474.417l-.13.395-.74.712c-1.169 1.127-1.534 1.465-1.712 1.585-.237.16-.284.234-.284.444 0 .162.031.218.237.417.225.218.237.242.237.48 0 .402.182.627.569.704.244.05.313.05.443 0zm7.57-1.805a.328.328 0 0 0 .095-.19c0-.106-.157-.284-.25-.284-.13 0-.271.148-.271.284a.25.25 0 0 0 .105.21c.14.098.207.094.321-.02zm24.634-.045c.715-.044 1.341-.144 1.488-.236.064-.04.043-.424-.074-1.35l-.03-.231-.36.026a3.01 3.01 0 0 0-.641.125c-.154.054-.29.088-.303.076-.013-.013.097-.445.245-.962.147-.516.267-.962.267-.992 0-.035-.159-.06-.462-.07-.37-.015-.474-.004-.523.054-.033.04-.2.35-.37.69-.284.572-.32.68-.465 1.4-.087.43-.203.87-.26.98-.112.222-.13.416-.043.47.102.063.388.106.582.086.105-.01.531-.04.949-.066zm-25.819-.311c.087-.105.072-.315-.027-.387-.268-.197-.59.127-.369.371.095.105.315.114.396.016zm1.146-1.383c.213-.192-.01-.54-.282-.438-.268.101-.185.514.104.516.05 0 .13-.034.178-.078zm-3.301-.463c.109-.167.064-.23-.75-1.061l-.71-.726.105-.112c.206-.22-.011-.597-.251-.437-.196.13-.554.467-.554.522 0 .03.218.273.485.541l.485.487h-.238c-.131 0-.264.026-.296.057-.062.062-.07.296-.018.567l.033.174.282-.115c.156-.064.34-.17.409-.236l.126-.12.274.287c.313.327.485.375.618.172zm2.068.037a.277.277 0 0 0 .087-.175c0-.253-.36-.367-.498-.156-.175.266.173.546.411.33zm32.707-.031c.182-.064.382-.38.382-.604 0-.24-.393-1.052-.647-1.338-.166-.186-.192-.268-.11-.35a.613.613 0 0 0 .092-.201c.036-.127.027-.17-.049-.246-.11-.11-.211-.116-.394-.02-.172.09-.157.094-.242-.07-.067-.13-.064-.158.054-.438.07-.165.192-.37.273-.458.208-.226.681-.556.997-.696.243-.107.268-.132.255-.249-.023-.197-.174-.186-.618.044a3.133 3.133 0 0 0-.772.575c-.346.337-.393.368-.529.343-.34-.061-.498-.326-.456-.767.026-.269-.042-.439-.258-.644-.123-.117-.157-.126-.347-.093-.165.028-.233.07-.318.195-.197.293-.098.53.152.365.176-.116.214-.098.163.078-.057.196-.014.397.102.478.245.171.103.714-.287 1.098-.13.129-.238.26-.238.29 0 .03.054.09.119.133.113.074.155.213.087.282-.062.06-.048.292.022.374.056.066.059.096.01.153-.088.107-.018.298.14.38.078.04.261.072.414.072.399 0 .583.108.695.403l.16.412c.178.436.689.658 1.148.499zm-2.06-.136c.287-.083.541-.167.564-.187.057-.05-.064-.337-.132-.312-.029.01-.287.088-.574.173a7.54 7.54 0 0 0-.54.171c-.025.025.095.305.13.305.017 0 .265-.067.552-.15zm4.527-.447c.002-.06-.623-.114-1.304-.114h-.438l-.02.166-.02.166.383.005c.21.003.584.019.832.036.446.03.45.029.507-.089a.636.636 0 0 0 .06-.17zm-31.504-.233c.166-.284.204-.69.096-1.022-.045-.135-.073-.253-.063-.262.053-.054.685-.312 1.03-.421.307-.097.56-.137 1.047-.166.503-.03.684-.06.835-.137.213-.108.442-.352.442-.469 0-.08-.158-.303-.417-.59l-.158-.176-.423.15c-.233.084-.424.162-.424.176 0 .014.14.076.313.138l.313.112-.23.135a.864.864 0 0 1-.429.137c-.443.001-1.187.212-1.864.528-.415.194-.993.521-.995.563 0 .013.098.064.218.114.269.11.372.31.338.658a.545.545 0 0 1-.173.386l-.151.156.227.1c.125.055.254.101.285.102.032.001.114-.094.183-.212zm-.96-.362c.2-.106.23-.27.08-.42-.16-.16-.382-.097-.449.13-.023.077.001.138.088.225.137.137.142.138.28.065zm-3.184-.167a.277.277 0 0 0 .087-.174c0-.253-.36-.367-.498-.157-.175.267.173.547.411.331zm-1.564-.42c.137-.3-.294-1.457-.666-1.791-.11-.099-.218-.169-.24-.155-.077.048-.169.484-.17.809 0 .268.026.384.133.603.264.536.803.842.943.534zm35.118-.433c.078-.145.3-.321.622-.493.364-.194.743-.536 1.035-.934.238-.324.607-.954.575-.98a.979.979 0 0 0-.191-.042c-.16-.024-.179-.015-.234.12-.113.272-.526.859-.778 1.105a3.32 3.32 0 0 1-.6.437c-.345.189-.696.497-.756.662-.03.08.051.294.164.435.042.052.058.038.08-.071.016-.076.053-.183.083-.239zm-30.812.22c.126-.125.121-.308-.01-.4-.135-.095-.222-.093-.33.005-.121.11-.111.325.019.416.14.098.207.094.321-.02zm24.674-.477c.164-.34.182-.41.163-.663-.016-.232-.045-.309-.16-.429-.283-.299-.66-.422-1.307-.427-.244-.002-.465-.02-.491-.04-.064-.05-.562-.097-.685-.065-.054.014-.097.064-.097.112 0 .135.208.265.568.353.183.045.333.097.333.116 0 .087-.28.145-.702.145-.414 0-1.584.179-1.719.262-.16.099.14.326.698.529.38.137.862.143 1.604.017.625-.105.664-.09.62.245l-.03.228h.51l.512-.001.183-.382zm-33.02.241c0-.025.143-.197.316-.38.246-.261.403-.378.72-.535.374-.185.432-.2.787-.2.21 0 .423.02.473.043.086.042.088.024.056-.457-.053-.793.06-.96.63-.93l.314.016.032-.617c.077-1.503.627-2.906 1.357-3.465l.223-.171.5.032.498.033.08-.159c.045-.087.2-.36.344-.607.144-.247.262-.469.262-.493 0-.027-.191-.032-.483-.013-.827.054-.825.053-1.035.362-.117.173-.267.32-.41.404-.966.567-1.688 2.047-1.846 3.783-.028.315-.045.365-.122.365-.144 0-.432.137-.573.273-.133.127-.32.554-.32.73 0 .08-.02.093-.107.069-.135-.04-.991-.107-1.897-.15l-.7-.033v.688l.154-.03c.392-.079 1.085-.129 1.364-.1l.307.034-.189.096c-.104.053-.44.243-.748.422s-.58.325-.605.325c-.092 0-.037.09.244.397.275.3.375.371.375.268zm7.562-.52c.104-.116.067-.309-.074-.384-.247-.132-.502.134-.351.364.092.14.307.15.425.02zm1.14-.328c.534-.49 1.259-.955 1.49-.955.105 0 .24-.146.24-.26 0-.165-.158-.278-.341-.243-.22.04-.694.273-1.04.508-.386.262-1.037.886-1.037.994 0 .114.222.284.323.247.044-.016.208-.147.365-.29zm-1.984-.13c.073-.111.074-.137.012-.25-.124-.22-.518-.155-.518.086 0 .274.358.39.506.164zm-1.133-.282c.231-.162.051-.562-.21-.469a.385.385 0 0 0-.172.12c-.07.111 0 .325.122.374.143.058.141.058.26-.025zm-1.032-.21c.114-.115.118-.183.02-.322-.138-.199-.494-.08-.494.166 0 .093.178.25.284.25a.328.328 0 0 0 .19-.095zm3.182-.463c.442-.598.845-.991 1.255-1.226.267-.154.331-.213.344-.32.019-.166-.064-.268-.216-.268-.193 0-.66.28-1.014.607-.377.349-1.085 1.265-1.085 1.404 0 .129.136.265.265.265.083 0 .191-.111.451-.462zm-1.437-.171c.023-.03.09-.183.151-.34.311-.806.766-1.5 1.186-1.813.5-.37.492-.362.457-.502a.262.262 0 0 0-.157-.177c-.105-.04-.165-.023-.383.108-.35.211-.842.744-1.11 1.201-.29.496-.62 1.296-.589 1.424.045.177.337.241.445.099zm5.557-.19c.49-.183.561-.225.704-.412.156-.204.157-.209.066-.283-.051-.041-.336-.178-.633-.304a12.472 12.472 0 0 1-.56-.247c-.01-.009.08-.143.202-.298.122-.154.221-.3.221-.325 0-.025-.156-.091-.347-.148l-.348-.103-.423.227-.423.226.322.024.322.024-.167.26c-.312.49-.185.682.53.809.19.033.344.08.344.105 0 .025-.095.182-.211.349-.117.166-.197.302-.178.3.018 0 .28-.093.58-.204zm-7.074-.114c.073-.063.11-.182.15-.496.152-1.2.593-2.093 1.26-2.553.228-.156.29-.278.212-.422-.1-.19-.259-.172-.59.065-.7.499-1.193 1.467-1.376 2.694-.092.62-.093.587.021.7.117.117.198.12.323.012zm5.911-2.689c.059-.131.098-.255.087-.275-.011-.02-.307-.035-.658-.035h-.638l.167-.331c.091-.182.166-.342.166-.356 0-.013-.091-.025-.203-.025-.178 0-.228.026-.395.202-.262.275-.47.69-.428.856.06.238.387.321.884.225.117-.023.223-.032.235-.02.02.02-.007.102-.115.359-.023.055.093.012.38-.14.379-.204.42-.24.518-.46zm-2.411-.865c.29-.26.634-.694.634-.797 0-.013-.267-.023-.592-.023-.326 0-.593-.02-.593-.042 0-.023.053-.162.118-.308l.118-.267h-.106c-.059 0-.327.025-.596.056l-.49.057-.115.226c-.14.279-.141.294-.008.263.059-.013.179-.04.267-.058l.16-.033-.128.17c-.16.21-.144.315.069.425.167.086.374.087.874.001l.186-.032-.153.273c-.122.215-.142.286-.098.34.03.036.065.067.077.067.012 0 .181-.143.376-.318z"/></svg>