<svg xmlns="http://www.w3.org/2000/svg" width="64pt" height="64pt" viewBox="0 0 64 64"><path d="M31.852 0C14.258 0 0 14.262 0 31.852c0 17.593 14.258 31.851 31.852 31.851 17.593 0 31.851-14.258 31.851-31.851C63.703 14.262 49.445 0 31.852 0zm-8.864 15.129c.805-.117 1.93.203 2.532 1.527.699-.832 2.46.356 2.304 1.07.86-.406 1.762.649 1.723 1.07.14-.1 1.117-.116 1.363.294 1.79-.942 1.793 1.226 2.793 1.008.434-.2 1.031.05 1.461.324.418-.547 2.527.094 2.758-.067.281-.195.621-.23.781-.062.57-.156 2.227.41 2.5.582.18.172-.183.57-.457.36-.234-.231-3.926-.32-4.414.195-.82-.2-1.656.258-2.469.16-.718.078-1.363-1.262-1.949-.293-.344.648-.965-.649-2.11-.422-.952.215-1.128.441-1.167.715-.512.43-1.39-.856-1.754-.227-.254-.316-1.54-1.113-1.95-.453-.43-.46-2.355-2.613-2.402-1.168.035.293.016.54-.097.746-.356.446-.985-.765-1.2-.23-.218.332.23.68-.097.976-.301.27-1.055.344-1.332-.097-.227-.117-.262.144-.453.16-1.063.254-3.497-.402-4.872.293-.945-.805-4.293.101-4.414-.453.274-.375 2.711-1.04 4.836-1.04.504-1.218 2.246-.706 2.305-1.492.05-.296.055-.582.293-.812.145-.074.379-.164.586-.164-.031-.207.258-.578.453-.715.445-.332.906-.152 1.168.164.004-.953 1.434-1.16 1.656-1.008.067-.437.477-.453.684-.355.078-.27.453-.512.941-.586zm16.59 1.398c.293.004.57.125.875.098.133.113.375.148.422.387.207.008.355-.168.555-.16.402-.106.945-.11 1.199.16.078.133.238.238.36.36.995.241 1.964.394 2.886.812.02.086.035.257-.098.257-.359-.12-.847-.046-1.265-.066-.375.098-.727.156-1.137.262-.629.133-1.32-.121-1.98-.067-.223.035-.458.149-.618.227-.441.09-.82-.117-1.101-.356-.485-.039-.93.329-1.461.196-.278-.075-.543-.094-.781-.262-.489-.148-1.059.04-1.524-.098-.164-.113-.195-.129-.097-.324.132.125.167-.121.324-.031.097-.274.386-.348.586-.52a3.704 3.704 0 0 1 1.363-.066c.105-.227.398-.379.617-.52.219-.078.32-.296.582-.257a.76.76 0 0 1 .293-.032zm2.531 5.746c.227.008.38.122.555.196 0 .113.152.07.16.16.297-.008.5-.332.813-.258.3-.082.5.129.777.16.32.149.371.54.684.684.136.129.273.234.453.324.172 0 .199-.203.39-.195.254-.047.438.09.649.129.105.058.148.172.262.261.523.168 1.132-.425 1.687-.03.29.183.496.421.746.648.582-.059.973-.489 1.625-.36.367-.008.684.246 1.04.293.26.195.523-.144.843-.031.312.031.492.215.746.355.227.008.496-.023.746.098.192.14-.187.316 0 .39-.031.075-.137.075-.226.098-.313.04-.575-.164-.844-.164-.899.133-1.774.106-2.664.164-.434.18-.946.285-1.426.356-.488.05-.875-.266-1.332-.356-.066.098-.188.215-.293.227-.426.074-.855-.11-1.266.195-.773-.137-1.543.067-2.304-.066-.18.183-.364.308-.653.324-.449-.055-.87-.227-1.297-.387-.218 0-.457.078-.683 0 .027-.097-.07-.133-.094-.195-.46-.016-.95-.09-1.367-.035.02 0 .027-.024.035-.031-.246-.075-.414-.2-.617-.293-.066-.184-.18-.258-.195-.454.058-.171.007-.406.226-.488.235-.039.477-.105.715-.062a.903.903 0 0 1 .164-.942c.32-.199.773-.27 1.133-.261.133-.254.516-.454.812-.454zm-28.214.293c.16.004.312.016.421.032.743.027 2.258 1.078 1.594 1.785-.254.16-.476.285-.715.422.895.699-1.691 1.617-2.402.812-.883-.87-3.305.227-4.156-.52-1.446.657-3.617.005-5.164-.03-.254-.044-1.79-.149-2.336-.133.023-.114-.078-.325.066-.356 2.633-.004 3.477-.394 4.512-.683.656.027 1.355-.024 2.043-.13.765-.074 1.52.044 2.308-.128.496-.145.954-.543 1.493-.617.32-.145.671.144 1.007.128.239-.53.856-.601 1.329-.582zm7.73.747c.8-.079 1.684.187 2.043.91.613-.438 1.352.187 1.496.746.121-.09 1.25-.82 2.078 0 .703-1.766 4.024.015 4.383.941.95-1.09 2.527-.71 2.887-.36 0 0 .168.466 1.527-.16 1.418-.222 1.836.633 1.785.68-1.265.172-1.281.32-2.5.489-.73.199-1.476.601-2.336.648-1.406.313-1.148-.441-2.015-.195-2.004.453-2.621 1.773-5.551.746-.606.543-1.797.453-2.207.23-.395.114-.813-1.289-1.461 1.168-.281.32-.711.313-1.106.422-.601.129-1.16-.203-1.785 0-.398.04-.797-.05-1.136-.262-.18-.921-1.77-.648-2.47-.613-.757.246-2.312.024-2.66-.715-.695-.531-3.41-.511-4.124-.52-1.032-.698 2.636-.405 3.863-.456.246.105.66.097.781.324.297-.227.727-.027 1.04-.258.09-.219.413-.293.585-.422.383-.09.75.02 1.07-.261.41-.016.88-.063 1.235.132-.059-1.074 1.387-1.257 1.59-.52.234.016.472.009.715-.034-.23-.172-.301-1.586.714-1.524.047-.633.754-1.058 1.559-1.137zm15.29 5.03c.933.071 1.913.716 1.882 1.333.508-.524 1.246-.301 1.367.195.856-.715 3.16-.957 4.152.387.579 1.195 1.86.37 2.73.812.587.313 1.259-.175 1.786.52.531.453 1.055-.32 1.656-.031.614.285 1.356.644 2.207.586 1.149-.118 2.485.054 3.54.324.253.113.745.117.94.453-.112.074-.187.144-.195.293-1.085.074-3.382-.004-4.968-.227-2.84.43-2.485.008-2.696.13-.601.05-.28.562-1.75.519-.464-.082-1.425-.258-2.046.293-.79.425-1.711-.32-2.5.16-.614.113-1.079-.395-1.723-.13-.719.384-1.813.38-2.172 0-.707.645-.805-.3-1.398.13-1.461.898-4.774 1.168-6.883.746-.442-.063-.89.328-1.43.195-1.777-.441-2.18.633-3.18.715-.808.254-3.004.457-3.41.227-.035-.305-.816-.285-.91.035-1.035.16-2.496-.051-3.246-.488-1.04.394-2.934.148-2.629-.422.723-.157 1.465-.246 2.176-.453.254-.06.426-.028.648.062.63-.008 1.07-.836 1.785-.715.348.344 1.016-.05.747.36-.57.605.101.707.617.68.46-.063.828-.157.879-.618.02-1.215 1.863-2.25 2.66-1.59.015-.199.254-.351.617-.324.164-1.355 2-1.36 2.469-.973.394-1.355 1.886-1.925 3.539-1.656.332-.91 1.34-1.176 1.98-.812.18-.13.336-.25.586-.262.262-.031.567.035.746.195.328-.527.867-.687 1.426-.648zm14.417 6.915c.43-.055.898.027 1.2.36.09-.009.179.015.226-.067.191.043.441.203.554.36.09.32.137.69.258 1.003.215.414 1.543.89 2.016.715.434-.75 1.336-.566 1.59-.098.164.305.668.535 1.008.36.527-.399 1.64.058 1.945.324.36.289.351.265 1.008.355.5-.015 1.129.367.68.422-.524.184-1.137.395-1.59.098-1.204-.297-2.067.492-3.082.555-.348.136-1.008 0-1.008 0-.36.25-1.407.71-2.242.648-.77-.078-1.782-.84-1.915-1.656-.203-.067-.292.078-.39.226-1.067.782-3.656-.363-4.188.293-.68.516-1.789.14-2.207-.293-.593-.297-1.765.278-2.11-.324-.41-.121-.8.074-1.17 0-.08-.066-.177-.219 0-.293.722-.617 2.284.04 2.858-.226.09-.184.301-.13.454-.262.441-.153.851-.137 1.3-.29.274-.05.559.114.844.13.016-.172.125-.649.484-.91.88-.754 1.848-.286 2.114-.454.23-.082.289-.3.386-.488.149-.234.547-.426.977-.488zM13.895 36.98c.214.012.375.114.421.293.297.618.696.153.91.618.141.55 1.5-.075 2.665 1.265.367.016.742-.113 1.136-.129.493.09 1.028.172 1.426.422.379-.09.688-.058 1.074-.066.262.047.637.285.325.488-.266.219-.692.344-.91.324-.551.13-1.126-.187-1.657-.129-.45.305-1.12.414-1.687.551-.395.25-2.27-1.215-2.371-.586-.192.364-.766.676-1.07.489-.259-.094-.845-.016-1.235.292-.828.543-2.137.403-2.727.16-.797-.335-1.543.2-2.242-.288a19.067 19.067 0 0 1-2.207-.293c-.016-.106-.031-.082 0-.164.465-.286 4.14-.497 3.899-.778-.09-.172-.118-.488.03-.652.262-.465 1.262-.652 2.177-.356.226-.851 1.398-1.5 2.043-1.46zm17.597.52c1.188 0 2.45.453 2.793 1.168.723-1.25 3.074-.477 3.41.715.2.55 1.008 1.281 1.43 1.3.418.047.96-.413 1.133-.652.734-.738 3.105.227 2.664 1.106.82.386 1.773.25 2.664.324.875.02 1.227.34.71.488-.612.25-1.37.09-1.98.293.145.496 5.098.356 7.438.258 1.992-.133 2.937.3 1.883.52-1.02.222-3.77.41-5.91.355-1.684.297-5.997-.656-7.985.39-.668.43-2.074-.206-3.93.551-1.765.57-2.148-.402-2.957-.289-.71-.047-.375-.91-1.492-.879-1.117.059-2.984 2.133-5.129.649-.484-.461-.914-.219-1.203-.777-.89-.06-1.793-.008-2.726-.098-.617-.031-1.008.445-1.621.324-.188-.125-.41-.047-.653-.129-.261.192-.613.012-.906.16-.82.035-1.625-.136-2.469-.062-.05-.059-.156-.106-.129-.227.368-.215 1.688-.066 1.688-.066.246-.344 1.601-1.043 2.469-.777.257-.864 1.48-.88 2.074-.586.097-.313.34-.692.75-.715.031-1.254 2.11-1.395 3.148-.973.528.262 1.45 1.172 1.332.52-.347-.957.707-1.664 1.235-1.461-.012-1 1.09-1.43 2.27-1.43zm0 0" fill="#211e1e"/></svg>