<svg xmlns="http://www.w3.org/2000/svg" width="64pt" height="64pt" viewBox="0 0 64 64"><path d="M32.207.352C14.613.352.352 14.586.352 32.14c0 17.558 14.261 31.793 31.855 31.793S64.062 49.699 64.062 32.14C64.062 14.586 49.801.355 32.207.355zm-.113.183c.656.402 5.816 5.578 7.035 7.785 1.21 2.211 3.262 6.25.234 14.098-.547 1.598-3.582 8.781-3.843 9.844a34.676 34.676 0 0 0-.926 6.734c-.074 2.223.09 4.668.843 6.895 1.829 5.394 2.364 9.863-.351 13.824-.332.55-3.207 4.023-3.207 4.023s-2.445-3.472-2.777-4.023c-2.715-3.961-2.18-8.43-.352-13.824.746-2.211.926-4.664.855-6.895-.097-3.316-.742-6.113-.937-6.734-.332-1.04-3.297-8.246-3.844-9.844-3.027-7.848-.976-11.887.235-14.098C26.277 6.113 31.437.937 32.094.535zM14.91 21.47a6.941 6.941 0 0 1 3.625.832c2.402 1.043 4.426 3.566 5.563 5.84 1.328 2.644 2.66 7.386 2.785 10.164l.023.691c.082 2.39.004 6.98-2.492 10.383-2.844 3.883-7.59 1.512-8.355-2.035-.176-.77-.344-3.25 1.796-2.137.516.598 2.641 1.93 4.098 1.047 1.156-.703 1.957-2.016 2.27-4.64.101-.84.093-1.723 0-2.618a14.02 14.02 0 0 0-.88-3.594c-.823-2.086-2.406-4.168-4.542-4.66-1.442-.328-4.211-.23-3.86 2.399.172 1.28 1.032 1.66 0 2.652-1.113.512-3.336.332-5.144-2.395-2.227-3.359-1.785-7.359-.367-9.222.867-1.137 2.96-2.594 5.48-2.707zm34.188 0c2.52.113 4.617 1.57 5.48 2.707 1.426 1.863 1.863 5.863-.363 9.222-1.813 2.73-4.031 2.907-5.149 2.395-1.027-.992-.171-1.371 0-2.652.352-2.63-2.414-2.727-3.855-2.399-2.137.492-3.719 2.574-4.543 4.66a13.706 13.706 0 0 0-.879 3.594 11.276 11.276 0 0 0 0 2.617c.313 2.625 1.113 3.938 2.273 4.64 1.458.884 3.575-.448 4.09-1.046 2.145-1.113 1.973 1.367 1.801 2.137-.77 3.547-5.512 5.918-8.36 2.035-2.491-3.402-2.57-7.992-2.491-10.383.007-.246.015-.5.027-.691.129-2.778 1.457-7.52 2.781-10.164 1.14-2.274 3.164-4.797 5.57-5.84a6.905 6.905 0 0 1 3.618-.832zm0 0" fill="#211e1e" stroke-width=".7054538400000001" stroke="#211e1e"/></svg>