<svg xmlns="http://www.w3.org/2000/svg" width="64" height="64"><path d="M30.74 62.972c-4.526-.213-8.642-1.27-12.563-3.228C10.057 55.69 4.083 48.256 1.919 39.51a31.185 31.185 0 0 1 .018-15.1 30.976 30.976 0 0 1 4.818-10.409C13.858 4.066 26.016-.763 38.02 1.586c4.65.91 9.192 2.974 12.918 5.87 2.009 1.563 4.025 3.57 5.526 5.505 6.256 8.062 8.166 18.684 5.1 28.352-3.129 9.867-11.023 17.594-20.89 20.45-3.182.92-6.77 1.357-9.933 1.209zm2.186-9.21c.225-.102.333-.24.56-.715.237-.492.353-.647.62-.826.333-.222.574-.293 1.306-.381 1.436-.174 2.286-.35 3.346-.692 3.59-1.16 6.805-3.646 9.692-7.494.512-.682.844-1.085.896-1.085.02 0 .062.118.094.262.034.151.122.344.21.458.16.21.393.404.434.363.054-.054.518-2.924.712-4.402.122-.928.196-1.872.168-2.12l-.026-.226-.112.156a6.619 6.619 0 0 0-.348.64c-.498 1.021-1.088 1.736-1.999 2.423-.29.219-1.094.744-1.785 1.167a52.37 52.37 0 0 0-1.302.812c-.025.023.155-.045.4-.151.493-.214 1.102-.377 1.411-.377.274 0 .576.126.609.255a.44.44 0 0 1-.02.223c-.256.673-2.946 2.708-5.46 4.13-.642.363-1.089.568-1.896.87-2.313.864-3.485 1.142-4.302 1.021-.977-.145-1.581-.757-1.927-1.955-.284-.985-.572-3.814-.72-7.081-.1-2.195-.117-7.644-.03-9.553.098-2.186.243-4.038.42-5.358.091-.69.17-1.257.174-1.258.005-.001.186-.108.404-.237.752-.447 1.393-1.268 1.589-2.037l.06-.237 4.677-.012 4.677-.012.16.251c.202.315.403.485.78.662.845.397 1.716.246 2.359-.41.345-.351.495-.681.533-1.17.072-.944-.64-1.811-1.642-1.998-.778-.144-1.637.27-2.048.99l-.146.254-4.667-.012-4.668-.012-.132-.382c-.182-.526-.44-.929-.87-1.357-.716-.715-1.513-1.037-2.56-1.034a3.56 3.56 0 0 0-2.77 1.381c-.236.307-.502.844-.59 1.192l-.056.223h-9.468l-.162-.253c-.23-.359-.484-.593-.813-.747-1.23-.577-2.614.097-2.876 1.4-.108.538.104 1.164.543 1.603.622.622 1.517.764 2.34.371.295-.14.71-.527.854-.793l.085-.158H29.15l.054.201c.081.303.295.75.509 1.065.249.367.834.91 1.166 1.085.19.098.27.17.287.256.104.513.371 2.772.451 3.816.345 4.485.307 10.8-.093 15.49-.1 1.184-.318 2.78-.477 3.507-.312 1.421-.948 2.13-2.045 2.276-.626.084-1.514-.072-2.74-.48-.994-.331-2.246-.817-2.75-1.067-1.603-.793-4.113-2.481-5.387-3.622-1.001-.896-1.03-1.314-.09-1.308.374.002.863.138 1.518.421.32.14.139.016-1.115-.755-1.462-.9-1.835-1.163-2.378-1.677-.615-.583-1.057-1.214-1.498-2.14-.08-.17-.188-.36-.24-.424l-.092-.114-.033.237c-.043.316.032 1.088.26 2.695.19 1.323.549 3.576.597 3.733.036.12.09.104.298-.084.2-.18.352-.462.403-.746.018-.097.051-.177.074-.177.052 0 .278.275.953 1.161a25.337 25.337 0 0 0 2.327 2.703c3.115 3.193 6.508 4.94 10.447 5.38.729.081 1.02.145 1.307.288.36.18.575.436.852 1.015.239.5.374.653.652.737.206.062.353.05.56-.044zm-2.036-37.97l.433-.18-.173-.145a1.695 1.695 0 0 1-.315-.401c-.185-.335-.199-.806-.032-1.123.672-1.274 2.998-1.271 3.633.004.242.485.134 1.032-.29 1.463-.211.216-.213.221-.104.253.062.019.256.099.432.178.316.143.322.144.42.056.054-.05.194-.286.31-.525.188-.385.215-.484.24-.854.033-.52-.034-.858-.259-1.307-.354-.708-1.136-1.278-1.971-1.436-.468-.088-.688-.088-1.154.001-1.305.25-2.268 1.32-2.262 2.513a2.46 2.46 0 0 0 .65 1.683c.005 0 .203-.081.442-.18z"/></svg>