<svg xmlns="http://www.w3.org/2000/svg" width="64" height="64"><path d="M30.744 62.974c-5.536-.26-10.638-1.839-15.197-4.702C8.744 54 3.831 47.236 1.919 39.512a31.187 31.187 0 0 1 .018-15.102 31.971 31.971 0 0 1 1.529-4.562c.365-.86 1.35-2.807 1.818-3.593 4.413-7.398 11.5-12.582 19.794-14.48C30.924.438 37.19.84 42.74 2.91c1.227.457 2.04.815 3.294 1.45 2.246 1.137 4.203 2.445 6.195 4.142.692.59 2.404 2.28 3.028 2.989 3.283 3.736 5.646 8.235 6.823 12.991 1.63 6.586 1.08 13.507-1.563 19.685-4.272 9.984-13.482 17.04-24.18 18.525-1.867.26-3.902.362-5.594.283zm-15.502-14.41c.132-.036.363-.12.513-.186.313-.138.314-.154.06-.586a1.717 1.717 0 0 0-.823-.722c-.148-.06-1.806-.507-3.686-.993l-3.417-.884-.142-.278-.142-.278-.388-.104c-.736-.2-.652-.22-.793.203l-.123.37-.344-.014c-1.029-.042-1.202.808-.243 1.2.308.127.293.088.234.623l-.033.291.584.195c.321.107.598.195.614.195.017 0 .12-.14.231-.309.11-.17.228-.308.261-.308s1.562.372 3.397.825c1.834.454 3.39.836 3.454.848.161.03.495-.007.786-.087zm4.033-4.314l9.702-3.71c2.367-.905 4.303-1.66 4.303-1.677 0-.017-.071-.076-.16-.13l-.159-.099-9.779 3.742c-5.378 2.057-9.8 3.763-9.828 3.79-.053.053.177.138.397.145.069.002 2.555-.925 5.524-2.061zm2.765-2.79c4.887-2.098 8.903-3.845 8.925-3.884a.172.172 0 0 0-.084-.24c-.09-.036-17.894 7.606-17.958 7.707-.06.094.031.23.153.23.044 0 4.077-1.716 8.964-3.814zm-10.595 2l12.27-8.369c.436-.297.794-.556.794-.574 0-.019-.515-.123-1.144-.232l-1.143-.198-.235.134c-.277.158-.342.13.743.314.418.07.787.144.822.162.04.021-2.653 1.885-7.407 5.126-4.109 2.802-7.471 5.108-7.472 5.124-.002.037.334.131.402.112a133.22 133.22 0 0 0 2.37-1.598zM8.731 40.66c.6-.204 1.264-.532 4.16-2.06l4.79-2.524c1.447-.762 2.85-1.502 3.117-1.645.268-.143.486-.246.486-.229 0 .033.338-.16.38-.217.013-.017.215-.129.45-.247.667-.337.675-.348.277-.388-.302-.03-.358-.022-.574.088-.132.067-.247.14-.256.162-.009.022-.485.287-1.06.589a15503 15503 0 0 0-9.767 5.147c-2.017 1.064-2.69 1.28-3.591 1.152-.399-.056-.422-.055-.585.046-.093.058-.152.121-.13.141.111.105.683.185 1.224.172.509-.013.623-.033 1.08-.187zm2.786-3.819c3.012-1.994 5.63-3.723 5.819-3.843.188-.12.343-.23.344-.245 0-.034-1.766-.24-1.99-.233-.092.003-.55-.01-1.02-.028-.767-.03-.904-.022-1.352.069l-.497.102-3.766 3.764L5.29 40.19l.328.166c.18.09.349.153.375.137.026-.015 2.512-1.66 5.524-3.653zm33.922 1.759c-.074-.21-.085-.482-.024-.64l.042-.114-.813-.1c-1.301-.162-4.605-.796-4.749-.912-.026-.02-.24-.065-.477-.098-.404-.057-.48-.052-1.233.07-1.235.2-2.133.242-3.72.176-1.243-.052-2.049-.107-2.54-.173-.187-.025-.194-.021-.244.142l-.051.168.41.281c.42.287 1.014.777 1.043.86.026.073.626.484.66.451.057-.058-.182-.465-.425-.722a5.686 5.686 0 0 0-.566-.504c-.177-.134-.316-.25-.31-.256.007-.006.3.009.65.034 2.216.158 3.238.28 7.514.902 2.851.415 4.286.603 4.63.608l.267.005-.064-.178zm1.769.04c.634-.22 1.804-.896 2.15-1.242.314-.313.326-.667.03-.854-.135-.086-.203-.094-.603-.07-.575.034-.985.124-1.447.316-.735.306-1.55.961-1.613 1.297-.047.25.046.53.205.617.228.124.826.094 1.278-.063zm5.456-1.546c.007-.006-.024-.091-.07-.189l-.085-.177-1.115.03c-.613.018-1.192.043-1.285.057-.155.022-.17.039-.176.184l-.006.159 1.361-.026a43.364 43.364 0 0 0 1.376-.038zm3.66.024c.879-.047 4.324-.363 4.458-.409.092-.031.001-.085-.348-.204-.246-.085-.269-.085-1.551.045-1.834.186-2.697.236-4.042.236-1.11 0-1.17.005-1.12.084.029.046.12.132.201.19.138.097.201.105.837.105.379 0 1.083-.02 1.566-.047zm-2.937-.154a3.22 3.22 0 0 1-.194-.462c-.094-.28-.1-.374-.078-1.02.017-.492.056-.834.125-1.109.054-.219.094-.403.086-.408a1.795 1.795 0 0 0-.165-.061c-.15-.05-.154-.048-.202.123-.241.865-.29 2.079-.103 2.59.16.436.216.501.433.501h.187l-.09-.154zm-11.894-.414c.781-.15 1.677-.28 2.168-.312.49-.033 2.32.041 3.142.127.47.049.534.045.913-.055.224-.06.401-.113.394-.12-.026-.025-1.082-.163-1.672-.218-.339-.032-1.235-.059-1.991-.06-1.296-.003-1.419.005-2.134.129-1.2.208-2.305.423-2.284.445.032.032.659.149.824.153.083.003.371-.037.64-.09zm20.913.006c.125-.03.1-.056-.498-.534-1.184-.95-2.509-1.863-3.64-2.511-.836-.48-3.13-1.608-3.269-1.608-.327 0-.76.338-1.109.866-.237.36-.48.835-.444.87.026.026 1.184.432 2.695.945.798.271 1.822.634 2.276.805l1.748.663c.509.193 1.053.403 1.21.468.236.097.335.113.592.092a4.14 4.14 0 0 0 .44-.056zm-41.17-3.181l.262-.136-.166-.028c-.092-.016-.826-.114-1.633-.217l-1.466-.189-.205.13c-.113.07-.205.14-.205.154 0 .025 2.8.41 3.035.417.065.002.235-.057.379-.131zm28.498-.224c.94-.188 1.766-.703 2.166-1.351.094-.152.193-.277.22-.277.106 0 .962.507 1.138.674.185.175.186.176.153.45l-.033.275.152-.237c.241-.378.498-.662.753-.835.13-.088.238-.173.239-.187.001-.032-1.425-.644-1.943-.835a7.278 7.278 0 0 1-.925-.469c-2.189-1.302-4.58-2.342-5.677-2.468-.263-.03-.272-.028-.32.097-.071.187-.06.264.04.264.082 0 .08.015-.028.225-.098.19-.112.27-.09.513.032.374.174.746.416 1.092.108.153.215.334.238.401.27.774-1.88 1.232-4.323.922a13.786 13.786 0 0 1-.64-.093c-.201-.042.975.555 1.53.775 1.357.54 2.852.878 4.848 1.094.901.098 1.493.09 2.086-.03zm-35.689-1.238c-.219-.442-.248-1.095-.082-1.812l.071-.308.603-.279c1.348-.623 1.613-.736 1.97-.84.354-.102.397-.105.853-.048.265.033.545.07.624.083.14.022.137.019-.088-.189-.215-.197-.258-.215-.617-.266-.212-.03-.706-.108-1.097-.173-.391-.066-1-.16-1.351-.21-.353-.051-.884-.139-1.181-.194-.481-.09-.56-.12-.723-.267a1.69 1.69 0 0 1-.286-.35c-.092-.163-.124-.183-.285-.183-.1 0-.18.011-.18.025 0 .063.214.441.342.604.264.336.608.459 1.817.65l.334.054-.359.364c-.587.598-.836 1.212-.887 2.19-.028.555.012.884.148 1.21.064.154.085.166.278.166h.208l-.112-.227zm25.056-1.021c.085-.045.154-.118.154-.161 0-.044-.1-.166-.221-.272-.505-.439-1.353-1.329-1.309-1.373.016-.016.13-.028.254-.028.809 0 3-.234 4.453-.475 1.355-.225 2.15-.331 2.486-.331.289 0 .32-.027.418-.356.11-.367 2.826-9.068 2.927-9.376l.09-.272-.406-.477c-.223-.262-.396-.486-.385-.497.012-.012.478.043 1.037.122 1.607.226 3.936.507 4.74.572.567.045.801.046 1.012.004.622-.125.755-.475.33-.869a1.5 1.5 0 0 0-.285-.2c-.086-.044-1.819-.355-4.04-.725l-3.891-.648-.1-.3c-.084-.252-.147-.343-.391-.564-.34-.307-.83-.568-.978-.521-.139.044-.174.133-.24.606l-.058.415h-.777l-.105.214a1.38 1.38 0 0 0-.104.255c0 .022.129.096.287.164l.286.124-.247.202c-.136.111-.248.224-.247.25 0 .026.126.115.28.197.153.083.285.171.294.196.008.024-2.157 1.93-4.812 4.235a1284.66 1284.66 0 0 0-5.893 5.139c-1.306 1.16-1.639 1.426-1.904 1.52-.588.21-2.738.171-6.931-.125-.752-.053-1.392-.088-1.421-.079-.113.038 1.703.909 3.038 1.458l.772.317-.29.154c-.327.174-.311.174-1.633.02-.531-.062-5.735-.821-6.18-.902l-.16-.028.236.219c.673.63 3.427 1.487 5.814 1.81.868.117 1.807.151 2.898.104 1.042-.045 2.99-.018 4.48.062.835.044 4.196.261 4.647.3.118.01.598.015 1.067.01.708-.007.88-.022 1.008-.09zm-10.246-5.438c.554-1.004 1.007-1.88 1.009-1.946.006-.282-.128-.334-1.15-.448-.899-.1-1.693-.092-2.211.023-.824.183-.941.252-3.057 1.776l-1.36.98-.384-.275c-.635-.456-1.515-1.176-4.049-3.31-3.829-3.224-6.048-5.13-6.836-5.87a2.805 2.805 0 0 0-.64-.461c-.954-.447-2.636-.541-3.691-.208-.348.11-.377.128-.318.2.065.08.67.783.772.899.043.048.132.045.454-.016.607-.116 1.623-.076 2.036.08.651.247 1.329.773 3.736 2.9 4.018 3.55 6.613 5.583 8.834 6.921l.36.217.944.074c.778.061 2.935.21 4.05.281.529.034.386.207 1.501-1.817zm-13.08 1.098c-.06-.075-1.888-2.203-4.061-4.73-2.711-3.151-3.985-4.598-4.056-4.608a.524.524 0 0 0-.212.026c-.1.037-.033.125.95 1.27l3.52 4.095 2.46 2.863-.47-.032a34.14 34.14 0 0 1-.958-.083c-.45-.046-.497-.043-.588.037-.158.141-.227.369-.227.746 0 .41-.025.393.616.409.196.004.89.035 1.541.068.652.033 1.278.063 1.39.067l.206.007-.11-.135z"/></svg>