<svg xmlns="http://www.w3.org/2000/svg" height="64" width="64"><path d="M34.344 1.094a.302.302 0 0 0-.157.093c.193 1.244-.1 1.174 1.094 2.657.219.16.55.413.844.687.121 1.027.553 2.018.875 3.094.34 1.17.498 2.38.25 3.594-.523-.75-1.317-1.115-2-1.656-.138-.42-.15-.959-.344-2-.402-.743-1.913-2.672-3-3.844-.38.084-.247.203-.281.437.86.685 1.352 2.304 2.344 3.188.964.638.21 1.688.625 2.531.529.857 2.296 1.57 2.156 2.438-.582 1.532-.894 3.426-1.031 4.468-.266 1.652.288 2.23.406 3.719-.059.653.032.83.031 1.094.098.533-.027.56-.343.937-1.04.885-2.217 1.775-3.344 2.594-1.093-1.216-1.316-3.067-2.313-4.438-.798-.71-1.558-1.476-2.093-2.406-1.444-1.426.218-2.882-.907-4.906-.708-1.136-1.165-2.042-1.343-3.344.539-1.142 1.125-2.84 1.156-4.187-.194-.481-.284-2.032-.782-2.313-.296.352.087 1.898.032 2.438-.227 1.37-.342 2.41-1.032 3.406-1.036-1.769-.533-3.627-.843-4.75-.321-.38-.797-1.237-1.125-1.625-.236-.384-.473-.945-.75-.406.513.801.954 1.746 1.375 2.625.006.857.067 1.737.093 2.562-.87-.656-1.359-1.12-2.25-1.718-.3-.547-1.002-1.453-1.312-2-.745-.032-.287.543-.344.625 1.151 2.799 3.117 2.777 4.844 6.187.716 1.163.637 2.647 1.313 3.875.159.7-.21.672-.25 1-1.421-.67-3.013.094-4.438-.5-1.18-.721-.921-1.542-2.313-3.063-.632-1.037-1.57-1.38-1.375-2.562-.053-1.022.758-1.631.625-2.625-.165-.53-.218-.93-.437-1.438-.255-.695-.571-.403-.594-.218.17.377.244 1.223.438 1.593-.232 1-.575 1.656-.782 2.532-.258-.205-.46-.264-.718-.938-.519-.817-.8-2.388-1.094-2.219-.268.846.38 2.523 1.031 3.375 1.341 1.31 1.7 3.02 3.094 4.313-1.035.12-2.25-.436-3.25-.813-.376-.316-.756-.779-1.188-1.03-.885-1.892-1.789-1.293-2.968-2.626-1.081-.334-.496.387-.063.688.638 1.067 1.11.395 1.719 1.5.047.181-.169.207-.281.344-1.143-.167-2.193-.89-3.063-1.063-.63.39.802.808 1.094 1.125.914.38 1.965.844 2.938.531.79.694 1.347 1.282 2.312 1.656 1.057.41 1.902.637 2.906.844.126.033.595.717.969.875 0 0 .98.795 1.438.844-.202.91.196 2.012-.032 2.938-.187.477-.348.905-.468 1.406.227.746.415 1.54.375 2.343-1.072-1.629-1.878-3.723-2.938-5.53-.07-1.04-.406-2.648-.813-2.72-.953-.424.54 1.67-.03 2.282-1.334-1.284-2.987-2.234-4.126-3.75-1.52.426.696 1.524.875 2.344.343.898.091 1.83.219 2.78a16.01 16.01 0 0 1-2.219.345c-.688-.11-1.373-.087-2.031-.032-.457-.75.097-2.568-.031-2.906-.276-.07-.482-.054-.594.563-.073 1.497-.55 2.953-.25 4.468-1.075.194-2.027-.654-3.219-1.156-.846-.502-.508-1.869-1.562-2.063.152 1.768 1.246 3.672 2.437 5.157-1.183-.067-2.378-.544-3.343-1.063v.032c-.42-.166-.693-.708-1.125-.594a1.053 1.053 0 0 0-.157.437c.552.71 1.404.99 2.156 1.282 1.11.477 2.274.754 3.407 1.03.235.51.888.825 1.156 1.345.836.773.985 2.035 1.406 2.906-1.099-.062-1.689-1.204-2.812-1.157a23.82 23.82 0 0 0-1.188.375c-1.894.145-3.472-.401-4.812-.5-.564.456.701.795 1.594.907-.57.706-1.05 1.035-1.907 1.5.011.085-.146.355-.031.406 1.308-.12 1.754-1.145 2.875-1.625 1.21.29 2.619.075 3.781-.156.935.686 1.85.803 2.625 1.468 1.768.131 2.982.28 4.5.407-.093.96.146 2.126.406 2.875.282.452.65 1.24.844 1.593.223 1.408.527 2.154.813 3.688-.54-.039-.83-.359-1.219-.531a7.255 7.255 0 0 1-1.406-1.375c-.336-.533-.358-1.132-.656-1.594-.374-.35-.684-1.78-1.094-1.156.27.978.567 2.198 1.25 3.125.864 1.394 2.006 2.346 3.344 2.937.124.5.394.95.5 1.5-.064.523.134.842.03 1.344-.306.02-.254.234-.593.219a9.138 9.138 0 0 0-2.063.375c-1.299.374-2.327.343-3.656.656-.339-.127-.441-.414-.781-.531-.73-.782-1.446-.664-1.688-1.563-.052-.58-.015-1.383-.28-1.937-.515-.758-.952-2.083-1.407-2.282-.616.437.371 1.73.75 2.376.339.72.262 1.293.344 2.062-.276.167-.468.264-.781.25-.612-.12-1.05-.598-1.563-.906-.499-.275-1.133-.144-1.625.093-.514-.156-.995-.359-1.438-.687-.414.326.31.945.532 1.156.644.233 1.354.296 1.906-.062.563.21.97.702 1.531.937.597.331 1.188-.044 1.813 0 .65.522.911 1.023 1.531 1.5.663.345 1.234.432 1.969.375-.3.394-.675.587-1.063.907-.305.343-.246.843-.406 1.187-.371.203-.804.54-1.156.719-.489.177-.852-.11-1.281-.157-.316.139-.97.054-.844.563.95-.237 1.93.456 2.781-.188-.393.744-1.172 1.884-1.906 2.188.428.311.75-.116 1.125-.25.557-.563 1.071-1.312 1.5-1.969.323-.367.338-1.007.562-1.406.444-.52 1.04-.906 1.563-1.344 1.017-.566 1.45-.609 2.344-.75.872.25 1.697-.51 2.468-.031-.015.695.874.637 1.188 1.125.054.429.353.702.531 1.063.421.522 1.067.66 1.563 1.093.64 1.006 1.069 2.063 1.625 3.063 1.118.376 1.865 1.383 2.75 1.937-.001.5-.061.92-.094 1.375.349.695.649 1.237 1 1.907-.246 1.644-.688 3.295-.782 4.968-.252.56-.406 1.469-.406 1.469 1.21.264 8.413.839 9.125.344 0 0-.877-4.702-1.781-7.125-.115-1.723 1.257-3.017 1.625-4.594.542-.463 1.31-.692 1.688-1.344.335-.884.865-1.539 1.53-2.187.337-.536.559-1.125.75-1.782.248-.262.41-.491.72-.656.856-.235 1.641-.712 2.468-.781.547-.512.96-1.16 1.625-1.563 1.048.075 1.603-.317 2.438.344.201.278.615.43.812.75.5 1.071 1.63 2.149 2.157 3.094.953.425 1.984.14 2.906.656.424.243.63.812 1.125.907.401.08.913.156 1.25-.032.037-.167-.07-.246-.094-.375-.964.288-1.552-.746-2.219-1.031.4-.599 1.541-.773 2.313-1.125.154-.252-.096-.378-.219-.438-1.06.323-1.81.425-2.656 1.094-.46-.109-1.317-.452-1.782-.375-.18-.182-1.215-1.192-1.374-2.281-.465-.848-1.397-1.065-1.813-1.875.067-.123.246-.22.344-.281.891-.234 1.37.702 2.093.906.634.164 1.265.498 1.876.5.831.008 1.473-.66 2.28-.688.643.069 1.067.066 1.594.282.857.485 1.062 1.514 1.657 2.218.635.258 1.172.578 1.875.594.124-.075.25-.172.218-.343-.614-.189-.91-.587-1.5-.782-.534-.827-1.015-1.636-1.843-2.187 1.172-.722 2.676-.526 3.843-.563.677.155 1.102-.5.376-.656-.703-.168-1.36.098-2.032 0-1.198.143-2.123.515-3.125.75-.528.03-.961-.348-1.562-.094-.333.154-.58.37-.969.469-1.004.157-1.905-.127-2.844-.406-.082-.15-.28-.262-.25-.438.675.057 1.122-.178 1.688-.375 1.415-.163 1.215-1.41 1.906-1.937 2.368-.618 1.594-1.146 2.844-1.907.607-.185 1.261.179 1.718.313.779.285 1.477-.351 2.22-.281.406.122.867.365 1.312.312l.031-.468c-.496.057-.913-.253-1.313-.376-.654-.097-1.238.199-1.718.376-.877.038-1.372-1.022-2.313-.563-.005-.63.187-.926.688-1.281.585-.004 1.348-.261 2.312-.813.583-1.173 1.956-1.69 1.813-2.031-.33-.015-.695.145-1 .25-.836.625-1.01.837-1.469 1.313-.612.49-1.497.229-2.125.718.146-.736.856-1.376.594-2.218-.466-.857.019-1.794-.063-2.563-.508.227-.543.69-.687 1.156-.234.892.588 1.59.093 2.438-.573.79-.82 1.75-.843 2.656-.42.53-.597 1.215-1.125 1.594-.436.163-.835.171-1.188.375-1.237.438-1.285 2.192-2.656 2.375-1.528.11-2.92.598-4.25.562.414-1.845.481-3.644.906-5.437.377-.983.933-1.914 1.375-2.875.242-.407.69-.604 1.094-.907.65-.309 1.286-1.58 1.438-2.156.459-.644.971-.392 1.656-.937.47-.043.781-.42 1.25-.438.973.163.875-.99 1.843-.75.357-.01.504.48.75.719.792.44 1.874-.044 2.5.688.732-.024 1.48-.367 2.094-.782.122-.144.161-.339 0-.468-.616.439-1.295.599-2 .625-.564-.549-1.442-.303-2.156-.532-.168-.377-.387-.765-.781-.937-.09-.287.382-.279.5-.5 1.407-.769 2.453-1.86 3.875-2.157-.09-.405-.212-.136-.438-.312-.71-.035-2.003 1.166-2.5.875-.953 1.103-1.955 1.271-3.031 2.188l.031.03c-.605.39-1.105.59-1.843.47.034-1.028.856-2.592 1.843-3.47.228.136.79.207 1.032.25.837-.67 1.572-1.329 2.656-1.53.19-.036.474-.244.062-.407-.323-.204-.675-.01-.968.063-.783.257-1.132.654-1.813 1.156-.292-.063-.59.039-.781-.344.37-1.165.838-1.763 1.25-2.687.18-.685.13-1.277-.375-.625-.387 1.855-1.53 1.806-1.719 3.718-.797.597-1.217 2.417-1.906 3.157-.255.465.091 1.18-.407 1.5-.437.07-.905.289-1.156.593-.535.47-.432 1.513-1.312 1.594-.275-.554-.99-1.126-1.094-1.812-.631-1.615.932-3.144.563-4.875-.099-.516-.282-1.358-.47-1.813-.242-.05-.217-.512-.468.063.317.905.434 2.139.219 3.125-1.11-.953-1.81-2.407-2.688-3.532.044 1.412 1.197 2.676 2.032 3.813.308.794-.311 1.729-.157 2.656.279.734.482 1.558.844 2.313.074.387.125.89-.063 1.25-.962 1.475-1.724 3.05-2.374 4.656.077.236.071.584.093.875-.802 1.266-.32 2.871-1.218 4.156-.298.59-.972.57-1.376 1-.655.267-1.381.565-2.093.438-.244-.39-.136-.791-.5-1.157-.137-.807.227-1.592.125-2.406.249-.626.78-1.098 1.031-1.75 1.003-1.337.005-2.88.313-4.343.062-.513.343-.84.562-1.282.549-.564 1.265-1.059 1.688-1.75.554-.75.963-1.652 1-2.625-.018-.111-.159-.226-.25-.25-.284.625-.581 1.22-.844 1.813-.461.747-.9 1.634-1.688 1.968.318-1.258-.148-2.613-.218-3.875-.813.918.033 2.254-.22 3.407-.073.784-.473 1.432-.843 2.093-.352.882.135 1.917-.031 2.813-.194.58-.088 1-.594 1.313-1.485-1.066-1.094-2.643-2.313-3.876.196-.991.598-2.399.344-3.468.386-1.848 2.933-3.712 2.094-4.469a45.75 45.75 0 0 1-2.875 4.031c-.127.942.14 1.915-.156 2.844-.518-.47-.939-.919-1.5-1.375-.512-.554-.795-1.44-1.219-2.031-.018-.23-.027-.488.031-.594 1.67-2.104 4.066-3.609 5.907-5.75.467-.365 1.567-.534 2.03-.969 1.3-.533 1.537-1.782 2.22-3.031.812-.94 2.41-1.069 3.343-1.594 1.506-.308 2.316.717 3.875.532.894-.047 1.734-.36 2.532-.625.748.087 1.54.87 2.218 1.562 1.031.295 1.955-.336 2.844.594.261-.1.463-.243.156-.688-.417-.41-.632-.514-.968-.531-.572.06-1.085 0-1.157-.031-.446-.033-.863-.205-1.062-.5-.485-.586-.99-.783-1.657-1.219-.742-.052-1.345.293-1.968.563-.79.139-1.691.438-2.438-.032.917-.096 1.889-.59 2.469-1.531.191-.19.114-.26.281-.469.814-.934-.263 1.49 1.063.375.833-.475 1.506-1.08 2.218-1.656-.007-.136.047-.305-.093-.375-.865.117-1.291 1.001-2.063 1.344-.867.912.156-1.71-.812-1.219-.886.861-1.48 2.364-2.719 2.844-.42-.055-1.33.223-1.75.031-1.308-.146-1.916.285-3 .844.956-1.84 2.534-2.423 3.156-5.281.785-.988.932-1.636 1.719-2.657.435-.766-.126-1.14-.375-.719a5.138 5.138 0 0 0-.219.532c-.818 1.23-.371.817-1.437 1.843-.067-.838-.676-1.636-.844-3.28.191-1.005-.257-1.453-.531-1.095-.2.16-.084.468-.063 1.844.477 1.278.52 2.22.844 3.5-.32.817-.245 1.392-.938 2.094-.973.844-1.57 2.286-2.25 2.594-.135-.247.466-.992.563-1.281.39-1.075-.87-1.654-.625-2.688.371-1.272.69-2.49.469-3.813-.032-.35-.03-1.227-.5-.656.03 1.131.276 2.353-.219 3.344-.756-.698-1.616-2.593-1.719-2.5-.933-.027 1.234 2.489 1.282 3.969-.128.949.471.974.468 2.25-1.263 1.65-.991 3.99-2.718 5.25-.942.34-1.687.343-2.563.75-.328.078-.804.794-1.063.843-.26-.559-.11-1.375-.312-2.093-1.076-2.33.895-4.69.969-9.5.549-1.15 1.084-1.37 1.437-2.625.609-.604 1.471-.982 1.844-1.375.817-.856 1.224-2.045 1.125-2.282-1.402.13-.545.836-1.656 1.657-.495.049-1.408 1.028-1.719 1.343-.642.52-.684 1.42-1.344 2.094-.311-1.219-1.218-2.153-1.062-3.5.104-1.697 2.04-.751 2-2.562-.035-.113-.177-.305-.313-.188-.214 1.571-1.804.79-2.312 2.188-.425-.353-.751-.577-.969-1.094-.506-.808-.69-1.844-1.031-1.781zM15.594 16.25c.884.692 1.664 1.705 2.625 2.156.682 1.61 1.758 3.313 2.562 5-.976-.538-2.186-1.977-2.781-3.25-.675-.193-1.38.054-2-.406-.453-.907-.44-2.298-.469-3.438.03.07.042-.004.063-.062zm7.5.531c.949-.056 2.027.295 2.906.782.485.815.409 1.924 1.406 2.437.265.274.737.632 1 .875.758 1.013 1.234 1.708 1.688 2.844-.21 1.14-.083 2.408.5 3.281-.067.453-.378.838-.469 1.281.12.458.16 1.178.094 1.75-.258.635-.867 1.206-1.313 1.75-1.607-.437-2.91-1.042-4.343-1.781-.25-.187-.52-.414-.625-.719.076-1.089.433-2.279.062-3.375.079-.742-.55-1.405-1.094-1.75-.411-.759-.554-1.746-.718-2.75-.07-.81.598-1.4.562-2.218-.147-.79-.205-1.531-.063-2.344.13-.026.271-.055.407-.063zm-8.25 2.875a2.89 2.89 0 0 1 .406 0c.526 1.443 2.038 1.414 2.281 1.438.21.507.632.842.875 1.343.723.688 1.276 1.64 2.063 2.375.44.27 1.275-.023 1.593.5.46.568.495 1.37.5 2.125-.186.59-.054.994-.28 1.563-.96-.713-2.143-.465-3.25-.875-.78-.268-1.4.81-2.25.469-.895-1.023-2.486-1.02-2.97-2.344-.301-.276-.546-.628-.593-1.031.011-.763.792-1.345.75-2.188-.487-1.019-.27-2.016-.188-3.062.369-.159.688-.279 1.063-.313zm-4.156.094c.846-.075 1.737.245 2.624.156-.747 1.321.394 2.74-.156 4.032-.23.238-.241.693-.562.78-.446-1.237-1.526-2.04-1.969-3.218 0-.576-.14-1.178.063-1.75zm-3.5 1.563a.129.129 0 0 1 .093 0c.615.518 1.658.9 2.094 1.156.1-.096.535.208.688.218 2.013 2.105 2.665 4.337 4.937 6.282-.906-.021-1.856.145-2.688-.313-1.052-3.376-3.615-4.861-5.156-7.312.013.004.016-.025.032-.032zM33.5 28.875c.35 1.45 1.36 2.682 2.188 3 1.492 2.24 1.338 3.722 2.874 5.688-.49.694-.485 1.848-.687 2.656-.393.744.062 1.785.125 2.562-1.053 1.665-1.16 3.428-2.344 5.032-.796.206-1.69.683-2.25 1.406-.132-.052-.313-.245-.437-.407-.437-.786-.27-1.703-.375-2.593-.146-1.42-.869-2.562-1.282-3.907.273-2.619-1.038-5.038-.625-7.75l.532-.437c.857-.482.363-1.7.906-2.406.435-.869 1.166-1.824 1.375-2.844zm-14.938.719c.688.253 1.557.33 2.188.75-.493.965-.716 2.594-1.469 3.5-.442.485-.666 1.187-1.218 1.562-.305-1.43-1.684-2.575-1.688-4.187.007-.33.083-.593.125-.938.657-.403 1.304-.53 2.063-.687zm3.688 1.562c1.548.067 3.853 2.275 5.25 2.75-.17 2.587-1.133 5.666-.031 8.407-.75 2.224 1.193 7.062-.344 7.53-2.6-1.871-4.464-2.96-6.625-5.656-.935-2.246-1.265-4.728-2.063-7.093.13-1.759 2.75-2.53 2.375-4.563.214-.856.614-1.26 1.125-1.343.096-.016.21-.036.313-.032zm-21.077.853C1.004 19.888 8.796 8.199 20 3.609 31.007-1.182 44.68 1.297 53.269 9.7c8.701 8.082 11.877 21.4 7.815 32.552-3.928 11.56-15.286 20.08-27.498 20.538-11.873.768-23.74-6.112-29.041-16.75a30.718 30.718 0 0 1-3.372-14.03z"/></svg>