<svg xmlns="http://www.w3.org/2000/svg" width="64" height="64"><path d="M32 1.344C15.067 1.344 1.344 15.067 1.344 32 1.344 48.75 15.11 62.656 32 62.656c16.933 0 30.656-13.722 30.656-30.656C62.656 15.067 48.933 1.344 32 1.344zM18.375 13.125a.18.18 0 0 1 .125 0l.188.063c-.06.245-.102.505-.094.562.009.056.154.148.281.063l.125.03.094.063c.016.097.07.095.125 0l.093-.062c.144-.089.187-.027.313 0l.063.031c.233.042.535-.071.656-.25l.125-.063c.259-.136.804-.008.812.344v.125c-.047.175-.003.282.094.25.095-.032.344-.008.344.031 0 .04.255.069.562-.03l.188.218.187.281c.194-.138.215.027.032.375l-.375-.094c-.126-.032-.13-.045-.25 0l-.157.032c-.167.037-.239-.018-.156-.125l-.094-.063c-.11-.073-.337.157-.406.219a1.367 1.367 0 0 1-.5.281l-.125.031c-.185.01-.23-.053-.094-.124.137-.072.15-.326.063-.282l-.063.031c-.124.064-.27.11-.406.126l-.25.03c-.276.058-.452.068-.406.032.046-.036-.042-.112-.219-.031l-.156.062-.157.031a.258.258 0 0 1-.218-.187c-.032-.103-.269-.09-.313-.063-.042.03-.254.15-.375.188l-.125.031-.125.063c-.203.007-.287-.09-.187-.219.1-.13.052-.28-.032-.219-.084.062-.32.046-.343-.062h-.157c-.111.006-.422.204-.5.062l.625-.406c-.151-.021-.697.022-.53-.281.078-.145.33-.295.5-.281h.062c.068.037.206-.158.312-.438l.188-.156c.156-.133.243.042.406 0 .113-.03.154-.178.25-.219zm31.375.656c.202-.034.486.02.594.125.1.099.046.17.062.281.016.113.048.13.125.22.082.096.15.241.282.28.045.014.208-.017.25-.03.149-.045.205-.124.374-.095l.188.032c.12.113.34.193.5.156l.219.094.187.094c.181.206.359.19.407-.032l.03-.219c.088-.466.766-.429 1.126-.374.163.023.285.04.375.187.095.158.072.182.25.188.179.005.443-.004.406.25v.093c-.077.148.02.26.219.25l.187.063.094.031c.007.125.134.167.25.094h.094c.235-.035.352.11.531.219l.063.062a.683.683 0 0 0 .218.094c.04.01.178.073.219.094.043.022.284.083.469.093l.062.25c.03.148.05.216.157.344l.062.063c.083.082.172.247.219.343.046.096.235.372.25.407a.98.98 0 0 0 .125.187c.034.034.17.16.218.219.049.058.147.287.063.437l-.031.125c-.07.161-.167.164-.313.219-.185.068-.267.128-.468.125h-.094a1.106 1.106 0 0 0-.532.094l-.156-.063-.187-.062c.031-.168-.077-.25-.25-.157-.173.095-.683.132-.688.094-.005-.038-.177-.029-.312.094l-.125.031c-.178.04-.104-.086-.219-.156-.237-.144-.338.246-.5.281h-.063a.497.497 0 0 0-.187 0l-.031.063-.032.062c-.018.074-.144.146-.28.157h-.188a.322.322 0 0 0-.313 0l-.031.093c-.041.165-.11.24-.25.375-.191.183-.39.347-.625.469l-.125.063c-.165.05-.165-.118.031-.375l.094-.063.063-.094c.074-.187.073-.293-.032-.218l-.093.093c-.077.07-.297.245-.407.25-.234.012.031-.269-.218-.281-.17-.008-.231.08-.376.125-.137.045-.117.023-.187.156l-.156.313c-.354.13-.568.185-.5.125.069-.062.093-.246 0-.188l-.063.032c-.112.12-.34.295-.5.343-.103.033-.236.005-.343.032l-.094.03c-.137.018-.18-.05-.094-.155.085-.106-.222-.174-.5-.032l-.281.063c-.248.061-.521.201-.75.312-.216.103-.42.102-.657.125-.181.019-.346.073-.53.063-.091-.005-.417.004-.47-.094l-.093-.188c.276-.206.316-.314.093-.25l-.156.032c-.165.036-.275.171-.437.187-.142.012-.317-.102-.438-.156-.15-.068-.256-.02-.406.031l-.063.032a.881.881 0 0 0-.28.25l-.094.062c-.137.086-.162-.02-.282-.031-.171-.018-.265.155-.437.031l-.125-.094c.034-.101-.004-.21-.094-.25h-.25c-.173.074-.295.088-.281.032.014-.058-.067-.227-.219-.25l-.094.03c-.062.001-.182.005-.218.063l-.032.063c-.017.051-.02-.017-.031-.125l-.094-.063-.093-.062c-.137.013-.21.152-.188.312l-.125.157c-.073.11-.084.083-.188.125-.122.048-.112.024-.187.156-.103.181-.244.216-.406.093-.103-.076-.032-.105-.157-.093-.065.006-.168.085-.218.125l.375-.563-.125-.093c-.11-.137-.19-.44-.188-.688l.094-.094.188-.187c.21.164.338.085.312-.188l.313-.031c.187-.02.344.066.53.063.11-.002.186.022.282.03.1.01.094.033.125-.093.026-.108-.057-.122.031-.219l.063-.062c.086 0 .082-.08 0-.188l.218-.125.126-.062c.163.004.3-.125.28-.282-.019-.156.145-.325.032-.375l-.063-.156c-.077-.216.142-.245.313-.312.139-.054.147-.096.25-.188l.094-.062a.577.577 0 0 0 .343-.094c.086-.064.236-.219.126-.281l-.063-.094-.125-.188c.174-.025.333-.118.344-.218l.062-.094.032-.031c-.115-.013-.225-.032-.344-.032-.248.001-.472.067-.719.063-.315-.005-.607.084-.906.156a.684.684 0 0 1-.313 0l-.125-.031c-.102.018-.074.134.063.25l.125.063.093.093c.122.083.131.148 0 .157-.13.007-.36.07-.343.093.017.023-.053.094-.094.094-.042 0-.056.07.031.094.09.023.353.138.375.156a.25.25 0 0 0 .125.031c.024-.004-.212.049-.562.063h-.282c-.309.03-.594.139-.906.125-.228-.011-.456-.11-.687-.063l-.125.032c-.223.098-.376.245-.313.312.063.066.131.297.032.344l-.094.031c-.159.04-.144.015-.25.125-.115.116-.177.061-.313.094l-.125.031c-.085.078-.12.158-.093.188.026.03-.185.148-.532.187h-.25c-.165-.002-.277-.013-.437.031-.224.06-.434.063-.657.125-.25.07-.527.107-.78.157-.102.02-.242.055-.344.062h-.063c-.077.016.129.141.469.25l-.032.188v.28c-.325-.018-.722.012-.874.063h-.094c-.124.027-.066.06-.188 0l-.062-.031c-.076-.043-.098-.012-.032.063.069.074-.254.255-.624.218l-.344.032c-.116.005-.198.05-.313.062h-.156c-.06.075-.145.123-.188.094-.043-.028-.255-.182-.218-.25.035-.07-.09-.19-.188-.157-.097.034-.35.06-.343.032.006-.028-.146.103-.407.281l-.312.094-.188.062c-.372.047-.547-.008-.406-.125l.156-.093.094-.063c.117-.153.067-.241-.094-.219h-.062c-.202.055-.39.134-.594.188l-.563.156c-.506.064-.88.072-.968.063.153-.052.456-.229.375-.22-.08.011-.204-.11-.125-.218a.434.434 0 0 1 .25-.156l-.063-.032c.248-.084.512-.203.782-.218.123-.007.196.054.312.062.13.01.248-.04.375-.062.142-.024.263.046.406 0 .126-.04.172-.14.282-.188.14-.062.275-.032.343-.218.038-.108-.005-.253.125-.282l.094-.031a.76.76 0 0 0 0-.25l.156-.125.125-.094c.132.076.284.06.313-.062l.093-.094c.153-.136.126.017.25.063.094.033.133-.028.22-.063l.187-.063c.087.096.246.024.343-.125l.063-.093.125-.188c.267-.01.486.019.469.063-.017.044-.06.03.031-.032.089-.062.342-.006.344.063.003.07.054.175.187.063l.188.03c.123.015.156.09.281.032.11-.05.127-.21.25-.25l.125-.031c.103.082.2.026.219-.125l.125-.125.156-.157c.15.11.317.123.375.063l.063-.031.093-.032c.102-.003.019-.182-.187-.406l.125-.281.156-.281c.34.029.605-.028.594-.125l.156-.032.219-.03c.26.107.584.153.718.093.135-.059.398-.001.5-.063h.219c.09.089.183.087.219 0l.031-.062c.062-.113.181-.167.063-.281-.08-.077-.194-.023-.219-.156l-.031-.126c.193-.128.373-.213.375-.187.003.026.052.026.156-.063l.063-.062a.604.604 0 0 1 .437-.094c.131.03.155.098.281.063.132-.038.237-.296.407-.25.098.025.117.162.218.187.175.045.326-.197.438-.281l.281-.219c.21.226.398.282.438.125l.124-.094c.14-.11.35-.022.5.032l.094.031a.442.442 0 0 0 .25 0c.034-.019.161-.076.219-.094.059-.017.238-.028.281-.031.043-.003.17.06.188.094.018.034.272.256.531.406l.125.063c.128-.091.298-.13.406-.094.085.027.122.129.219.156.062.018.219.006.281 0 .242-.022.382-.328.625-.344.11-.007.157.094.282.031.173-.084.102-.315.124-.468.022-.157.002-.308.188-.313h.25c.134.172.293.222.344.125.05-.094.504-.192.687-.187l.157.031.124.031c.159.05.289-.013.313-.125l.094-.062a.323.323 0 0 1 .156-.063zm-4.25 1.281a.386.386 0 0 0-.125.157c-.033.076-.015.11-.063.187l-.062.094c-.094.056-.233.117-.25.125-.018.008-.033.142-.031.188.002.046-.006.146 0 .218l-.032.063c.125.013.248.022.376.031h.062c.098-.033.04-.202-.063-.281-.1-.079-.037-.203.126-.25l.156.031c.135.028.204.053.343.031.215-.032.419-.057.626-.125l.093-.031c.014-.003-.007-.028 0-.031a1.059 1.059 0 0 0-.25-.063l-.187-.031a1.938 1.938 0 0 1-.657-.25l-.062-.063zm-15.781.094l.25.094h.093c.074.128.186.17.25.094h.063l.156-.031c.07.125.155.215.188.187.033-.029.142.029.156.125l.094.063.156.062c.236-.13.39-.2.375-.156-.016.045.292.146.688.094l-.282.28c-.144.157-.518.089-.593.25-.055.116.019.244-.125.345-.17.117-.166-.068-.282-.125l-.25-.125c-.276.248-.42.401-.312.312.106-.09-.104-.286-.313-.156l-.187.156-.032.031c-.152.09-.256.142-.218.094.035-.05.033-.158-.125-.125l-.125.031a.154.154 0 0 1 .062.157v.156l-.312-.188c.057-.064.143-.064.218-.093l.032-.032a.35.35 0 0 0-.219-.062l-.094-.094-.125-.125c.11-.142.158-.217.094-.188-.064.03-.221-.096-.188-.28l.094-.063.125-.063c.126-.027.266-.094.313-.125.044-.03.228-.305.375-.5zm-13.407.906c.107.006.195.035.188.063-.007.029-.087.07-.094.094v.031c.011.046.069.038.094.031l.156-.062c-.084.132-.13.261-.093.281h.03c.05.011.057 0 .095-.031.055-.05.112-.124.187-.157h.031a.154.154 0 0 0 .094-.03c.007-.011.061-.06.094-.095l.031-.03a.285.285 0 0 1 .281 0l.032.03c.039.035.204.021.375-.03l-.032.124a.508.508 0 0 1-.093.188c-.028.03-.044.038-.032.093.023.107.26.139.344.157.05.01.073.03.125.031h.063c.074.011.089-.001.03-.031l.032-.032c.008-.028.075-.021.094-.03.04-.024.075-.07.125-.095.028-.013.088-.047.125-.03.028.01.032.02.062.03l.032.032c.07.015.184.003.25 0l.062.031h.031c.031.019.046.025.032.031l.062.063.094.031c.053.072.067.141.062.156-.003.015-.037.03-.062.032-.024.001.007.057.093.093v.063c.003.044-.058.027-.062.062-.011.074.266.002.313 0 .05-.003.117.064.156.094.069.053.041.126-.032.188-.039.031-.1.06-.093.125v.03c.034.02-.026.048-.125.063v.063c-.009.044.033.103.062.125.025.017.108.039.125.062.01.012.002.052 0 .063-.004.085-.037.038-.093.062-.073.031-.095.087-.063.157.016.035.056.085.063.125.007.06-.056.056-.094.062-.116.022-.173.002-.157.125.007.046 0 .082 0 .125 0 .04.029.087.032.125.004.041-.019.05 0 .094l.031.062a.698.698 0 0 0 .125.125.709.709 0 0 1 .188-.031c.102.014.176.113.28.125.086.01.172-.016.25.031a.78.78 0 0 1 .126.094l.062.031c.073.065.12.082.125.032l-.031-.063c-.02-.042-.037-.057-.063-.094v-.031c-.003-.02.054-.046.125-.063.072-.017.19.057.188.063 0 .007 0 .028.031.031.032.004.099.017.094.032-.003.015.004.05.031.062.03.012.034.118.032.125-.003.008.035.033.093.063h.032c.083.027.14.043.062.125-.054.057-.089.12 0 .187.066.05.173.035.25.063h.063c.071.024.14.063.156.062.016 0 .086.043.125.094l-.032.031-.03.063c-.061-.01-.092.019-.095.03-.003.011-.03.026-.03.032a.08.08 0 0 1-.032.031c-.01.005.015.078.063.157l.062.03c.044.018.092.027.125.063.04.041.042.15 0 .188-.044.04-.143-.015-.188-.032l-.062-.03c-.084.004-.105.106-.031.218l.031.031c.016.023.04.048.063.063l.03.031c.031.015.038.026.032.031-.004.006.012.012.031.032.02.018-.086.077-.281.062l.063.156c.013.031.094.075.125.094l.03.031c.06.04.032.112-.093.157l-.094.03c-.057 0-.06-.01-.093-.062-.04-.062-.105-.094-.188-.093a.23.23 0 0 0-.125.03c-.032.021-.015.05-.063.032-.06-.022-.209-.293-.28-.125-.018.042-.012.08-.032.125-.02.048-.012.062-.063.063-.038 0-.087-.003-.125 0-.043 0-.083.015-.125 0-.052-.021-.023-.046-.03-.094a.455.455 0 0 0-.063-.157c-.01-.016-.022.005-.032 0 .003.012-.022.027-.03.032-.008.006.023.059.03.062.01.004.01.051 0 .063-.008.014-.032.057 0 .093.034.035.124.159.063.22l.031.062c.005.004.085-.003.094 0 .051.013.105.032.156.031.059 0 .136-.032.188 0 .05.033.05.093.093.125.031.021.15.02.188.031h.031c.066.03.031.085-.093.125h-.125c-.16.007-.343-.033-.5-.062l-.157-.032c-.19-.053-.302-.025-.218.032l-.094.031c-.036.02-.088.003-.125 0h-.032a.166.166 0 0 0-.125 0c-.049.022-.132.018-.125 0 .007-.019-.103-.072-.218-.063l-.125.032c-.045.014-.081.057-.125.031l-.032-.031a.251.251 0 0 0-.093-.094.244.244 0 0 1-.063-.063l-.031-.03c-.047-.044-.104.017-.156 0-.064-.022-.028-.039-.063-.095-.038-.064-.08-.074-.156-.062-.115.018-.082.07-.063.156l.063.219c-.201-.174-.44-.32-.531-.313h-.063c-.063-.013-.122-.07-.187-.062-.094.011-.117.056-.157-.063-.014-.043-.066-.24 0-.25l.063-.125c-.036-.027-.27-.136-.188-.218l.063-.063c.114.037.253.046.313 0 .06-.044.14-.01.218-.062l.094.062c.047.032.047.103.063.157.03.109.066.118.156.03a.469.469 0 0 1 .125-.093l.062-.031c.02.03.07.036.125 0 .056-.037.175-.015.25-.125l.094.031.063.031c-.01.066.023.094.093.063h.063c.105 0 .225-.005.187.125-.022.08-.177.183-.031.187.053.002.135.016.188 0 .06-.02.106-.059.156-.093.052-.038.042-.033.093 0h.032c.006.034.067-.001.125-.094l.093-.032c.03-.005.044-.002.063 0a.081.081 0 0 0-.063-.03h-.03c-.053-.028-.05-.074-.063-.126-.034-.126-.129.056-.188-.062-.021-.047-.023-.108-.031-.157-.012-.067-.027-.118-.031-.187-.004-.062-.012-.167-.094-.156a.301.301 0 0 0-.094.031c-.034.018-.093.043-.125.063-.052.032-.056.141-.125.125a.141.141 0 0 1-.062-.032c-.038-.042-.069-.108-.094-.156-.019-.037-.019-.044-.063-.031h-.03c-.009.038-.045.062-.063.062a.132.132 0 0 0-.063.032c-.006.008-.048.035-.062.03-.014-.004-.119.045-.188.126l-.062.031c-.08.052-.135-.002-.188-.063l-.031-.03a1.823 1.823 0 0 1-.063-.126c0-.007.01-.06 0-.125l-.03-.062-.032-.032c-.048.002-.051-.064 0-.125l-.094-.03c-.031-.01-.102.043-.125.03l-.031-.03c0-.021-.039-.002-.094.03h-.062c-.053.016-.082-.065-.125-.093h-.032c-.033-.013-.068-.041-.093-.032l-.032.032-.03.031c-.042.012-.085.031-.095.031h-.062c-.007 0-.023-.023-.031-.031-.01-.01-.064-.029-.125 0l-.063.031c-.052.034-.101-.001-.156-.031l-.031-.031a.27.27 0 0 1-.125.031l-.063.031c-.037.02-.047.032-.093.032-.032-.001-.065-.021-.094-.032-.064-.022-.086-.02-.125.032-.02.03.001.063-.032.093-.039.036-.137.044-.187.032-.05-.012-.07-.096-.125-.094-.048.002-.09.067-.125.093a.671.671 0 0 1-.156.094c-.1.037-.25-.014-.344-.062l-.156-.063c.125-.063.155-.149.062-.187l-.062-.063c-.047-.047-.046-.113-.125-.062l-.063.031c-.03.069-.126.054-.219-.031h-.062a.329.329 0 0 0-.156 0h-.063c-.093.013-.155.012-.156 0-.002-.013-.021-.064-.031-.094-.011-.029-.067-.113-.094-.156l-.063-.032h-.03c-.054.018-.102.058-.126.063-.023.005-.113.017-.125.031a.588.588 0 0 1-.125.094h-.031c-.051-.027-.042-.145-.094-.156-.043-.01-.111.032-.156.031-.048 0-.083.024-.125.031-.045.008-.072-.047-.125-.031-.084.023-.153.108-.219.156-.033.024-.048.042-.094.032h-.093c.007-.076-.075-.08-.188 0H12.5c-.047.003-.033-.004-.094.03-.033.02-.148.133-.187.063-.022-.04 0-.144 0-.187 0-.072.01-.073-.031-.125-.044-.055-.078-.093-.157-.063-.076.03-.143.14-.156.219-.005.033-.002.068-.031.094-.038.034-.108-.004-.156 0-.13.01-.195.119-.313.156-.06.02-.129-.01-.188 0-.066.012-.04.061-.093.094-.024.013-.101.006-.125 0l-.063-.032c.034-.075.01-.103-.031-.093h-.031c-.07.005-.1-.03-.156-.063-.038-.022-.079-.05-.126-.031-.043.018-.043.091-.093.094-.044.001-.101-.07-.125-.094-.06-.062-.043-.08 0-.156.017-.03.053-.086.031-.125l-.031-.032c-.06.014-.094.012-.094 0a.946.946 0 0 1 0-.093c0-.031-.099-.078-.219-.032L10 19.47c-.032.034-.075.117-.125.125-.065.009-.103-.114-.125-.157-.065-.122.066-.226-.031-.343-.009-.011-.022-.013-.031-.032-.008-.013-.002-.047 0-.062v-.094c0-.023.017-.044 0-.062-.07-.075-.267.012-.344.031-.082.02-.211.069-.25-.031-.027-.065.009-.133-.094-.125a.381.381 0 0 0-.125.031l-.031.031c-.04.028-.066.043-.063.032.004-.01-.113-.028-.25 0l-.094.062c-.046.038-.035.059-.093.063-.04.003-.128.048-.156 0-.046-.074.122-.16.156-.188.018-.017.045-.037.031-.063v-.03c-.06-.007-.103-.02-.094-.032.01-.012.018-.064 0-.063-.016.001-.047-.022-.031-.03.017-.01-.035-.028-.156-.032l.062-.156c.024-.044.075-.066.125-.063.024.002.073.034.094.032.062-.01.024-.115.031-.157v-.062a.459.459 0 0 0 .188-.219l.062.031c.016.009.044.063.063.063.038 0 .078-.101.094-.125.021-.033.03-.074.062-.094.01-.006.058.006.063 0 .02-.02.014-.069.03-.094L9 17.594c.073-.017.123-.014.125 0 0 .015.041.045.063.031a.34.34 0 0 1 .124-.031c.01.005.092.023.157 0l.031-.032.031-.03c.02-.025.06-.046.063-.063.001-.018.022-.058.031-.063a.614.614 0 0 0 .063-.031c.021-.012.089-.037.093-.031A.76.76 0 0 0 10 17.25l.063-.063c.045-.039.067-.073.124-.093l.063-.032c.003.036.18-.008.375-.093l-.031.156c-.01.14-.389.079-.344.219v.062c-.011.036-.029.058-.063.063h-.03c-.038-.002-.09-.036-.126-.032-.048.008-.101.073-.094.125v.063c.05.01.076.083.032.125h-.031c-.049.008-.106-.044-.157-.031-.03.006-.073.023-.062.062l.031.063c.082.024.088.053 0 .062l-.063.063a.474.474 0 0 0 0 .093v.032a.733.733 0 0 1 .188-.032c.011.002.062.025.063.032 0 .006.028.02.093.031h.031c.057-.048.031-.158.126-.188.04-.013.083-.003.124 0 .034.004.068.027.094 0 .027-.026.002-.097.031-.125.027-.025.06-.002.094 0h.031c.03.013.088 0 .126-.03l.062-.063c.084-.08.18-.012.281-.032a.867.867 0 0 0 .188-.062l.031-.031c.035-.044.073-.087.063-.094-.01-.008-.018-.091.03-.125.05-.034.2-.05.282-.125l.063.031c.014.002.024-.004.03 0l.032-.031c-.01-.044.025-.09.063-.094.035-.002.122-.031.156-.093l.062-.032c.06-.04.15-.006.219-.031.096-.035.179-.14.281-.156h.063c.091.05.142.081.125.093-.016.013.048.06.156.063h.094c.09-.007.143-.115.187-.188.04-.062.049-.062.125-.062h.063c.09-.01.157-.022.156 0-.002.022.065.083.125.063a1.09 1.09 0 0 0 .344-.25l.062-.032.063-.062c.063.02.141.006.156-.032v-.03c.016-.085.045-.077.125-.095.044-.009.08-.03.125-.03h.063c.058-.011.078.004.062.03-.015.027-.004.063.063.032l.062-.032h.031c.05-.023.094-.037.094-.03 0 .006.074.01.156 0l.063-.032h.031a.52.52 0 0 1 .188 0h.062c.05-.02.125-.074.156-.094.032-.021.095-.01.094 0 0 .01.058.024.125 0l.063-.031h.03c.045-.004.104-.012.126 0H16c.08.011.14-.021.219-.031l.093-.032zm10 3.438c.077 0 .27.045.313.125.047.093-.021.13-.063.219-.039.085-.018.07-.03.156l-.032.125c-.037.118-.013.24.063.25.075.012.228.164.218.188-.009.023.069-.016.219-.094l.094.062.093.063c-.02.102.069.096.188 0l.094.031c.12.027.225.233.25.344.038.172-.024.318.187.375l.157.031c.178.011.109.106-.157.188h-.187a1.363 1.363 0 0 1-.282-.094l-.062-.063c-.067-.046-.157-.117-.25-.031L27 21.5c.147.08.151.16 0 .188h-.156c-.088-.007-.196.013-.282 0l-.093-.032c-.072-.038-.138-.021-.157 0-.018.022-.054-.048-.03-.187l-.095-.063c-.14-.083-.358.278-.437.344-.069.055-.228.178-.281.031l-.032-.093c.107-.157.079-.218-.062-.157l-.156.032-.125.062c-.155.025-.237-.008-.188-.063.049-.055-.037-.08-.156 0-.12.083-.353.045-.344.032.01-.014-.138-.026-.281 0-.142.026-.366-.074-.313-.125.054-.05.157-.18.094-.188-.062-.007-.216.046-.218.063l-.094.062.093-.156c.212-.082.47-.178.563-.219.091-.04.385-.139.469-.25h.156c.116-.003.366.034.313-.156-.04-.139-.322-.26-.157-.438l.094-.125c.207.035.375-.007.375-.093l.094-.094c.1-.112.176-.056.281-.094.185-.067.183-.282.438-.281zM20 21.094c.007.017.032.041.031.062h.032c.03.011.07.01.093 0-.012-.011-.012-.02-.031-.031l-.063-.031c-.026-.011-.043.004-.062 0zm-14.344.031c.046 0 .097.007.094.063v.03c-.035.032-.014.057.063.063l.062.032c.047.043-.012.08-.031.125-.015.027-.04.094-.032.125v.03c.03.034.084.059.125.063H6c.029-.01.078-.055.094-.062a.775.775 0 0 1 .062-.032l.032.063v.031c-.003.04.004.064.03.063.029-.001.114.027.126.031.012.005.063-.016.093-.031a.611.611 0 0 0 .125-.125.474.474 0 0 1 .22-.094l.062.031.187.063c-.127.093-.222.182-.187.187.034.005.128.011.125.032-.006.018.047.07.125.062h.031c.052-.021.098-.094.156-.094h.094c.152-.01.293.017.313.063v.031c.023.033.052.057.062.094.015.051-.01.033.063.062.025.01.14.035.156.063.043.082-.134.187.031.218.135.028.245-.063.375-.062.044 0 .093.033.125.063.029.027.045.036.063.062.026.034.047.009.062.063.023.084-.105.129-.156.156l-.063.031-.031.031a.294.294 0 0 0-.094.032v.03c-.006.03-.036.063-.031.095v.03c.026.035-.019.113-.125.157l-.063.063c-.071.08-.18.08-.28.062-.045-.008-.11-.04-.157-.031a.449.449 0 0 0-.094.031c-.083.042-.163.09-.25.125H7.25c-.083 0-.156.008-.156 0v-.063c0-.009-.028-.028-.032-.03-.002-.002.002-.022 0-.032 0-.01-.162.018-.343.063h-.063c-.117.025-.266-.022-.375.03-.064.031-.07.056-.156.063h-.031a.658.658 0 0 0-.25 0h-.032c-.07.023-.148.038-.218 0-.055-.031-.091-.079-.157-.093a.343.343 0 0 0-.156 0c-.062.016-.1.067-.156.093-.059.025-.128-.003-.188 0h-.156c-.19.005-.344.013-.343 0 .001-.01-.01-.035-.032-.031-.022.005-.05-.022-.031-.063v-.03c.028-.067-.002-.094-.063-.095-.034 0-.163.034-.187 0v-.03c.007-.03-.05-.047-.125-.032h-.094l-.031-.031c-.066-.03-.146-.049-.156-.063a.566.566 0 0 0-.063-.062c-.01-.005.032-.047.094-.094l.031-.063c.038-.078-.21-.145-.25-.187-.103-.107.041-.199.125-.25.066-.04.157-.079.188-.156.017-.043.013-.054 0-.094l-.031-.094a.2.2 0 0 0 .093-.187l.063-.032c.027-.022.058-.062.094-.062h.03c.026.028.046-.048.063-.156l.063-.063c.031-.026.12-.04.156 0l.031.032c-.01.05.049.008.125-.094h.094l.125-.032c.05.077.157.109.25.063l.063-.063c.075-.077.141-.124.25-.125.123 0 .22-.063.343-.062zm6.907.844c.085.016.171.024.187.031.016.007.013.054 0 .063-.015.008.006.05.031.062.026.01.056.05.063.063.004.01-.02.05-.031.062-.013.012-.005.09.03.125h.032c.047.02.109.048.156.063.048.014.061.027.094 0 .035-.033.102-.118.156-.063.031.03.02.1.063.125l.031.031c.06-.009.124-.038.125-.031 0 .007.038-.02.094-.094l.031-.031h.063c.022.052.07-.005.093-.125l.063-.031c.05-.033.165-.007.219 0 .085.008.17.002.25.031.056.02.091.019.124.063.03.041.041.056.094.062.05.007.075.02.125.031h.063c.07-.01.152.001.187.032.037.03.173.01.188 0 .016-.013.066-.042.094-.032.026.012.11.05.124.063.014.01.079-.03.126-.094l.03-.031.032-.063a.98.98 0 0 0 .281.032h.125c.068-.014.153-.13.188-.25l.125.03h.062c.173.005.295.026.25.063-.045.04-.035.115 0 .094.037-.02.12.056.157.156l.125-.031c.048-.01.059-.036.093-.063.04-.03.043-.046.094-.062.074-.02.144.002.219 0h.093c.096-.024.194.002.22.063l.062.03c.065.045.146.045.218.032.087-.015.093-.04.157.031l.031.063c.042.101-.018.184-.156.187l-.125.032c-.065.03-.032.09-.094.125-.084.048-.185.108-.281.125h-.094a.623.623 0 0 0-.188-.063c-.015 0-.067.036-.093.063h-.032c-.084.035-.09-.09-.156-.125-.11-.062-.206.037-.25.125l-.031.03c-.018.074-.049.136-.063.126-.015-.01-.046-.025-.03 0v.062c-.039-.008.008-.013.124 0l.094.032c.06.023.08.093.156.093h.063c.064-.034.115-.037.125-.031.009.007.063.023.093.031h.032c.056.01.1.06.156.063.069.003.147-.052.219-.032h.031c.034.071.041.146 0 .157-.042.009-.07.101-.156.125h-.094c-.084.003-.13.056-.219.062-.062.005-.128.029-.187.032h-.063a1.28 1.28 0 0 1-.281 0c-.064-.012-.123.089-.219.062l-.062.031c-.033.01-.043.043-.063.063-.022.022-.032.028-.062.031-.026.003-.1.036-.125.031-.038-.006-.063-.075-.094-.093-.16-.089-.24.097-.375.125-.034.007-.06-.002-.094 0-.039.003-.087.055-.125.03-.025-.015-.043-.074-.062-.093-.038-.034-.114-.008-.156 0-.083.015-.113.075-.188.094a.626.626 0 0 1-.156 0h-.031c-.054-.014-.11-.03-.126-.032a.98.98 0 0 1-.218-.093l-.063.031c-.03.016-.032.05-.062.063a.446.446 0 0 1-.094.03c-.042.007-.088.014-.125.032a.27.27 0 0 1-.125.031c-.037.001-.056-.008-.094 0-.05.011-.08.044-.125.063-.114.05-.23-.01-.344 0-.071.006-.12.036-.187.062-.047.02-.109-.013-.156 0-.12.035-.223.068-.344.032-.062-.02-.122-.06-.188-.063h-.03c-.047 0-.044-.037 0-.094L12.311 24h-.093a.441.441 0 0 0-.313-.063l-.094.032-.093.031c-.119.007-.224-.002-.25 0-.027.002-.11-.006-.125-.031h-.031c-.042-.024-.147.025-.188.031h-.031c-.065-.008-.125-.021-.125-.031 0-.01-.038-.04-.094-.032l-.063.032c-.06.012-.127-.005-.187 0-.06.003-.07.038-.125.062a.518.518 0 0 1-.281.032.883.883 0 0 0-.281 0c-.063.008-.126.028-.188.03-.053.003-.106-.025-.156 0-.046.024-.071.06-.125.063a.365.365 0 0 1-.125-.031h-.031A.324.324 0 0 0 9.25 24c-.013-.007-.048-.021-.063-.031A.574.574 0 0 0 9 23.906l-.094.032c-.045.006-.119.004-.156-.032v-.031c-.023-.01.045-.037.188-.094.14-.057.201-.187.156-.187h-.031c-.045-.031-.047-.05-.063-.094-.02-.05-.002-.06-.063-.063h-.03c-.054-.007-.063-.054 0-.125l.062-.03H9c.034 0 .086.002.094 0 .005-.002.015-.028.031-.032v.094c.034-.023.112-.081.156-.125l.031-.063c.031-.058.013-.137.094-.093.08.042.12.144.219.093l.031-.031c.02-.021.059-.055.063-.063.005-.008.025-.005.031 0 .004.007.053.002.063 0 .009 0 .014-.052.03-.093l.032-.032v-.03c.007-.03 0-.047 0-.063.001-.014.038-.06.063-.063a.258.258 0 0 0 .156-.093l.031-.032c.044-.061.08-.107.156-.125.053-.012.154-.01.156.063.004.057-.1.095-.062.156.034.056.143.01.188 0 .061-.011.069-.014.093.031l.063.125c.103-.103.17-.249.156-.312v-.032c.036-.068.077-.05.125-.062.044-.011.089-.126.125-.156.056-.048.123-.023.156.031v.063a.63.63 0 0 1 0 .093h.031c.015.019.135 0 .157 0 .066-.004.052-.021.094-.062l.062-.063c.05.033.09.026.094-.031l.031-.063c.041-.068.121-.057.188-.03l.062.03c.102.021.182.014.188 0 .006-.013.063-.057.093-.093l.031-.032c.05-.057.128-.107.188-.156l.063-.062zm-6.688 2.25a.14.14 0 0 1 .094 0c.048.014.06.08.093.093l.063.032c.091-.001.196.007.219 0 .021-.009.09-.006.093.031.003.038.207.025.375-.094l.032.157c.021.066-.036.105.062.093.099-.012.175-.05.282-.031.052.008.079.02.125.031.071.02.09-.013.156-.031.05-.013.203-.026.25 0h.031c-.007.043.04.093.094.094h.031c.024.002.069-.003.094 0 .04 0 .063.025.062.062v.032c0 .016.011.02.031.03.02.015.094-.009.126-.03.031-.021.125.075.124.156l.032.031c.063.064.14-.011.219 0l.124.031c.15-.006.31.002.344.032l.063.03h.031c-.01.059-.03.101-.031.095l-.438.437c-.067-.01-.12.008-.187 0l-.094-.031a.53.53 0 0 0-.156-.032c-.009.008-.07.065-.125.094h-.031l-.126.032c.02-.08-.055-.143-.156-.125-.1.018-.122-.104-.156-.094-.035.01-.116-.045-.125-.063-.008-.017-.041-.057-.063-.062a.87.87 0 0 0-.218.031l-.094.031c-.116.03-.084-.009-.156-.093-.052-.06-.091-.022-.157.03l-.03.032c-.033.045-.064.079-.063.094 0 .015-.013.053-.032.062a.786.786 0 0 1-.156.032c-.044.002-.134.062-.093.093l-.032.063-.031.093c-.187.003-.32.022-.313.032.009.009-.071.075-.187.125-.117.05-.348.051-.406.125h-.156c-.02-.064-.135-.097-.25-.063l-.125-.031h-.063a.371.371 0 0 1-.094-.063c-.008-.009-.087-.033-.156 0h-.063c-.123-.003-.084-.104-.125-.187-.045-.093-.101-.088-.187-.063a.908.908 0 0 1-.25.032h-.063a.646.646 0 0 1-.156-.063c-.017-.017-.091-.036-.125-.031-.031.005-.114-.061-.125-.094v-.031c-.014-.047-.002-.109 0-.156.007-.089.043-.15.125-.188L3.781 25c.136-.04.251-.083.25-.094-.003-.01-.042-.076-.062-.125l.062-.062.094-.094c.15-.016.306-.06.313-.094.007-.034.08-.093.093-.093.013-.002.069-.001.094-.032.026-.03.104-.107.125-.125a.232.232 0 0 1 .094-.031c.01 0 .076.012.125 0 .047-.011.167.014.156.031-.012.02.093.059.188.032h.062c.067.018.017.088.063.125.041.035.115-.014.156-.032a.64.64 0 0 0 .187-.125.36.36 0 0 1 .094-.062zm8.813.375c.102.003.057.096.124.125l.032.031c.03-.019.126-.045.187-.063h.157c.09-.04.212-.006.28.094H15.75c.109.016.216.047.219.063.004.016.02.058.031.062.01.007.006.095-.031.188l-.031.031c-.037.016-.062-.01-.094 0-.046.016-.061.055-.094.094a.186.186 0 0 1-.094.062.656.656 0 0 1-.125 0c-.064-.017-.072-.097-.125-.125-.067-.037-.13.058-.187.063-.065.004-.118-.078-.188-.063-.051.01-.065.054-.094.094-.061.08-.162.114-.25.156l-.156.094c-.219.053-.343.035-.25-.031.093-.065.043-.145-.062-.094-.104.051-.374.01-.375 0-.002-.008-.032-.03-.063-.031-.029-.001-.112.006-.094 0 .02-.005-.01-.007-.093.031l-.063.031H13.5a.963.963 0 0 0-.188.063l-.062.031c-.105.03-.203.054-.313.063h-.062c-.112.01-.11 0 0-.032l.094-.031c.047-.023.17-.16.125-.219-.036-.048-.237.052-.281.063-.112.025-.23.06-.344.062-.086.001-.168-.02-.25-.031-.056-.008-.11-.034-.156-.031h-.094a1.41 1.41 0 0 1-.25 0c.008-.005.013-.026.031-.032l.094-.03c.073-.03.092-.104.125-.157-.057.005-.09.02-.156.031l-.157.032a.682.682 0 0 0 .125-.188c-.006-.005-.024-.046 0-.063.024-.015.107-.055.125-.062a.307.307 0 0 1 .094 0c.012.004.173-.062.313-.156l.124.093c.045.026.041.046.094.063.092.028.178-.08.25-.063.038.01.031.042.063.063l.031.031c.036.014.109 0 .156-.031l.031-.031c.042-.053.034-.09.094-.125.056-.032.155-.05.219-.063h.031a.182.182 0 0 0 .188.032h.062l.094.062c-.004.074.008.104.031.094.024-.01.078.025.063.062-.013.036.053.077.094.063h.03l.032-.032c.04-.034.083-.018.094.032h.031c.069-.013.004-.156 0-.188v-.093c.051-.024.133-.026.188-.032h.062c.043.003.085.03.125.032.073 0 .112-.096.188-.094zM49.593 25c.052.08.255.092.437.031l.125.094c.071.041.068.155.188.156.069.002.11-.063.187-.062.085 0 .167.104.25.125.1.024.054.03.125-.032l.219-.187c.262.008.463.06.438.094-.026.033.072.123.312.125l.188.156c.056.057.054.11.093.156.035.04.116.098.157.125.205.143.386.21.624.282l.063.03c.375.12.463.192.188.188l-.25.032c-.08.004-.143.027-.22.03h-.093c-.08-.024-.043-.003.063.032.104.034.046.185-.094.188h-.125c-.118 0-.228-.013-.344-.032-.266-.042-.513-.031-.781-.031-.115 0-.23-.005-.344 0-.106.005-.206.055-.313.063h-.28c-.297.014-.388.11-.188.187h.093l.188.063c.212.07.199.14-.031.156H50.125c-.317.044-.582.087-.563.093.021.007.014.068-.03.094-.047.026-.135.097-.063.125.071.03.103.095 0 .094-.104 0-.249.17-.219.188.028.018.009.092-.094.125l.032.125c.033.125.21.218.312.28.064.042.178.059.219.126l.062.093c-.048.127-.216.234-.343.22l-.032.03c-.076.058-.19.106-.281.157-.08.042-.092.05-.188.031a1.367 1.367 0 0 0-.343-.031 1.514 1.514 0 0 1-.563-.094c-.116-.045-.266-.067-.375 0-.037.024-.062.06-.093.094-.075.082-.128.102-.25.093-.089-.006-.141-.056-.22-.062-.093-.007-.248.068-.343.094a.895.895 0 0 1-.375.031h-.125c-.176-.047-.248-.166-.156-.25.095-.087.315-.278.25-.281h-.063c-.109.02-.2.062-.312.062-.06 0-.126.011-.188 0-.075-.014-.142-.076-.218-.093-.096-.023-.16.011-.25.03-.193.043-.403-.015-.594-.03-.192-.014-.401-.007-.594 0h-.063c-.199.02-.223-.012-.062-.063l.156-.063.063-.062c.112-.07.111-.106-.032-.094h-.093a4.697 4.697 0 0 1-.625.063 4.1 4.1 0 0 0-.594.062h-.063c-.09.007-.14-.014-.093-.062h-.032c-.076.015-.172.003-.25 0-.157-.006-.31-.022-.468-.032a4.034 4.034 0 0 1-.75-.125c-.18-.045-.38-.09-.563-.125a5.034 5.034 0 0 0-.406-.062c-.156-.016-.316-.06-.469-.063h-.031c-.035 0 .028-.11.156-.25l.125-.125.063-.03c.068-.045.16-.1.187-.095.03.006.152-.028.219-.156l.125-.093.094-.032c.1-.007.187-.035.218-.031.034.004.2-.019.313-.125l.156-.031.188-.032c.092.167.19.261.218.22l.063-.032c.066-.053.115-.014.156-.094.048-.096-.01-.224.063-.312l.093-.094c.125.073.24.084.25.031.01-.052.152-.151.188-.156a.734.734 0 0 1 .188.031c.025.013.097.024.124 0 .03-.023.175-.143.25-.187h.219c.153.091.365.172.469.187h.094c.1-.003.112-.05.156-.125.056-.096.128-.244.219-.312l.156-.125c.16.1.316.086.344-.032l.093-.062c.112-.081.25-.044.376-.063.127-.018.24-.117.374-.093l.157.031c.099.137.253.238.343.219.09-.019.122.072.157 0l.062-.032.094-.125c.106.054.222.091.25.063l.156-.156a.937.937 0 0 1 .188-.125c.047-.018.175.026.218-.032a.575.575 0 0 1 .25-.125c.031.003.152.03.22.032l.124-.032.188-.093c.188.075.384.141.437.156h.063c.095-.012.135-.08.25-.063.173.027.3.304.468.094.067-.082.047-.158.157-.218l.125-.063zm-6.875 3.094c.046-.048.083-.061 0-.032v.032zm15.125-2.844l.125.031c.088.172.355.277.562.25l.094.157.063.062c.035.087.082.167.093.188.012.02.074.155.094.218v.032a.515.515 0 0 0 .25.28l.125.063c.055-.075.19-.127.313-.093l.062.062.094.063c.005.073.086.076.156 0l.156.062.094.063c.07.12.323.238.563.25l.156.093c.105.087.002.2.062.313.09.17.273.293.438.375l.093.031c.058.115-.02.202-.156.188-.137-.017-.368.182-.312.28v.063c.001.073.028.038-.063.063l-.156.031c-.156.008-.25.021-.219.031.03.01-.045.128-.25.188h-.093c-.144.025-.218.165-.344.218-.057.025-.129.013-.188 0-.139-.028-.293-.098-.437-.125l-.313-.062c-.365-.014-.623-.038-.562-.031.06.007-.035.116-.25.156l-.157-.125-.062-.063c-.06-.061-.126-.13-.156-.156-.03-.024-.073-.119-.032-.156.04-.038.02-.181-.093-.219H57.5a1.76 1.76 0 0 0-.563-.031c-.085.015-.127.064-.218.063h-.094c-.114-.001-.21-.006-.188 0 .023.006.174.113.282.187l.125.031.125.032c.107.09-.166.207-.625.25l-.094-.032c-.207-.039-.395-.016-.594-.093h-.062c.061.031.17.076.312.125l-.156.156c-.129.122-.365.144-.531.125h-.094c-.125-.063-.221-.088-.188-.063.035.026-.057.17-.124.188h-.063a2.26 2.26 0 0 0-.375.093l-.25.063c-.343 0-.624-.063-.594-.156l-.031-.063c-.037-.085-.174-.09-.25-.093-.082-.003-.167.022-.25 0-.075-.02-.118-.096-.188-.125-.106-.047-.259-.088-.374-.063l-.25.063c.147.195.211.346.124.343h-.062c-.254-.061-.55-.003-.781-.125a.85.85 0 0 0-.313-.093L51 28.78c.086-.098.022-.16-.125-.156l-.125-.063-.094-.093c.102-.078-.003-.087-.218-.032v-.218l-.032-.188c.232.038.371.025.313-.031l.062-.156c.072-.181.254-.182.407-.25.093-.04.079-.005.124-.125.058-.158.014-.298.188-.375.125-.055.245-.025.375-.032.139-.007.225-.103.375-.062l.063.031.187.125.125-.031.188-.031c.003.162.071.198.124.093H53c.123-.003.104.161.219.157.072-.004.153-.148.218-.188l.063-.062c.104.012.247-.035.313-.125l.062-.063c.086-.062.253-.01.313.063l.03.062c.021.056.067.115.094.125.026.012.082.108.094.157.013.048.174.004.219-.094l.094-.063c.095-.042.268.023.312-.093.053-.14-.15-.305 0-.438l.125-.094c.11.083.22.08.25 0l.063-.062c.119-.124.15-.044.281-.032.186.02.223-.348.313-.468.044-.062.065-.03.124-.063.095-.053.092-.148.126-.25.044-.131.051-.26.218-.187l.094.031c.102.091.178.103.188 0l.062-.094c.131-.156.284.059.438 0 .182-.07.321-.174.53-.156zM36.25 26.844l.344.218.125.094c-.079.118-.096.257-.032.313l.063.031.094.156c-.042.077.02.14.156.157l.094.093c.122.156-.007.166-.125.219-.15.066-.198.162-.375.156h-.125c-.06-.058-.135-.126-.157-.156a.333.333 0 0 0-.124-.094c-.03-.005-.191.029-.282.032h-.062l-.157.062c-.14.082-.197.11-.124.063.074-.048-.149-.175-.47-.032l-.28.125c-.132.05-.23-.002-.157-.156l.032-.125a.255.255 0 0 0 .062-.344l.063-.125a.254.254 0 0 1 .156-.125c.113-.024.147.075.218.125.178.128.276-.112.407-.218l.218-.188c.045.171.242.045.438-.281zm-26.344.406a.14.14 0 0 1 .094.031l.063.032c-.04.039-.045.09 0 .093.043.005.108.096.156.094h.062c.054-.022.1-.118.156-.125.046-.007.083.052.126.063l.093.03c.1-.024.185-.07.188-.062.003.008.088 0 .187-.062l.094.062c.11.079.128.03.219-.031a.816.816 0 0 1 .25-.094c.03-.007.116-.043.156-.031.046.016.028.067.063.094l.03.031c.04.011.005.02-.093.031-.099.01-.152.108-.125.125.028.015.082.112.156.125l.031.032c.052.004.075-.02.126-.032h.03c.05.009.119.021.157.032h.094c.045-.001.007.074-.063.156h-.094c-.076.014-.15.032-.218 0h-.031l-.157-.032c-.023-.006-.074-.03-.094-.03-.018 0-.11.005-.124 0-.014-.007-.045-.026-.063-.032-.017-.005-.116-.02-.188-.031h-.093c-.088 0-.165-.005-.25 0-.064.004-.068-.016-.125-.032-.074-.02-.177-.004-.25 0-.067.003-.123.027-.188.032-.053.003-.132 0-.187 0-.159-.002-.28.057-.438.062-.056.002-.156.036-.187-.031l-.031-.063c.016-.05-.101-.084-.282-.093l-.031-.032c-.131-.032-.237-.157-.063-.218.141-.048.266.01.407 0 .046-.003.11-.034.156-.032.043.004.05.013.094 0 .065-.016.12-.057.187-.062zm13.063.188c.077-.042.2-.015.25.062l.031.063c-.032.086-.042.154-.031.156.01 0 .024.042.031.093.007.052.157.117.25.032s.316.015.594-.125l.156.156c.048.042.054.095.031.156-.008.025.01.038 0 .063l-.031.031c.02.014.032.067.031.125-.003.058.042.25-.062.438.028.004.057.02.062.03.009.017.116-.017.188-.093.071-.075.255-.114.343-.281l.188.093c.092.041.112.03.156-.062.046-.094.082-.123.188-.125.084-.002.202.006.281-.031.075-.037.095-.128.188-.125.123.002.175.136.218.218.034.063.024.064.094.063.099-.002.22.015.313-.031.076-.041.096-.129.156-.188.094-.093.267.058.375-.031.047-.04.076-.174.156-.156h.063c.073.05.166.09.187.062.02-.027.107-.135.156-.187l.063-.063.093-.062c.097.097.2.164.22.156.018-.01.122-.08.187-.125l.062-.031c.1-.011.197.01.282.062l.062.063c.058.064.131.12.156.125.027.006.114-.005.157 0a.557.557 0 0 1 .25.218c.046.094.235.165.25.157.014-.008.042-.029.062-.032a.559.559 0 0 1 .156.032c.041.017.165-.072.188-.125l.031-.032.031-.03a.291.291 0 0 1 .219 0c.064.03.204.074.219.03l.031-.03a.223.223 0 0 1 .188-.063h.062c.053.039.112.096.125.093.015-.003.081-.054.125-.062.047-.01.24.022.344.063l.062.093c.045.042.12.144.188.157.05.008.138-.027.187-.032.09-.007.191-.043.282-.031.05.008.139.063.187.063.053 0 .077-.04.125-.063a.691.691 0 0 1 .25-.063c.083-.003.201-.023.281 0 .041.013.084.06.125.063.054.005.094-.035.157-.031l.218.031c.122.175.241.246.282.188h.156c.028.033.086-.02.156-.094l.125.062.063.032c-.007.075.14.16.312.187l.125.156c.063.066.104.115.156.188.038.055.034.058.094.062.094.009.134-.022.219.032l.062.062c.022.112.075.21.094.219.017.007.052-.023.063-.032a.914.914 0 0 1 .093-.062c.02-.01.102-.024.125-.031a.483.483 0 0 1 .157 0 .336.336 0 0 0 .156-.032.235.235 0 0 1 .062-.062l.032-.031a.897.897 0 0 1 .156-.032h.031c.04.004.08.035.094.094l.031.063c.014.076.102.05.125.125l.031.125c-.092.013-.168.02-.156.031.01.012.068.084.094.156l.031.063.031.062c.048.05.085.085.094.094.01.01.063.072.063.125v.063l.062.062c.097.046.263.19.375.313l.063.062a.555.555 0 0 1 .156.156c.028.04.084.127.125.157.072.049.171-.001.25 0 .134.003.192.098.281.187l.031.031c.028.05.07.085.063.094-.005.01-.036.044-.032.063.004.016.071.165.126.28l.062.095c.03.052.003.041.063.062.15.051.43.08.5.25.018.047-.005.035.03.063.033.025.12.013.157.03.088.04.16.114.219.188l.031.063c.027.045-.023.057-.125.031h-.031c-.153.032-.258.158-.407.188-.19.036-.373.082-.562.124l-.125.032c-.188.027-.348.016-.344 0 .005-.014-.112-.066-.25-.094h-.125c-.09.002-.16.021-.25.031h-.031c-.06-.013-.11-.046-.094-.062.017-.017-.072-.05-.187-.032l-.094.032c-.168.059-.33.108-.5.156-.16.046-.305.057-.469.094l-.125.031c-.143.015-.187-.011-.093-.063.095-.05.066-.281-.032-.25l-.093.063c-.103.047-.207.061-.313.094l-.125.031c-.15.006-.259-.031-.219-.094l.032-.031.062-.031c.064-.1.02-.157-.094-.125l-.093.031c-.137.068-.263.135-.407.188-.157.056-.339.026-.5.062-.25.058-.5.12-.75.188-.31.083-.632.115-.937.218-.203.07-.42.047-.625.094h-.094c-.166.015-.276.006-.219-.031l.063-.032h.062c.043-.041.011-.072-.062-.062a1.027 1.027 0 0 1-.313-.031.305.305 0 0 1-.093-.094c0-.013-.033-.045-.094-.063-.062-.016-.199-.112-.188-.124.011-.012-.005-.027-.062-.032-.059-.003-.153-.071-.094-.093.06-.023-.057-.098-.219-.094l-.156-.032c-.087-.017-.126-.042-.219-.03-.113.012-.234 0-.343.03a.715.715 0 0 1-.344 0 .703.703 0 0 0-.344 0c-.1.024-.182.094-.281.126-.129.04-.27.048-.407.062l-.125.031c-.148.007-.227.011-.187 0 .04-.01.021-.127 0-.125-.02.001-.172.046-.281.063h-.094a6.597 6.597 0 0 1-.469.031c-.104.002-.17 0-.156-.125v-.063c.022-.11-.012-.18-.094-.156-.082.024-.253-.061-.187-.125.066-.062-.003-.222-.125-.187l-.094.031c-.184.11-.393.174-.594.25-.209.08-.416.139-.625.219l-.125.031c-.162.023-.259.02-.218-.031l.03-.032.063-.062c.088-.099.079-.156 0-.125-.078.03-.33.09-.375.094a2.76 2.76 0 0 0-.187.031c-.017.004-.047-.038-.032-.063.015-.022-.126-.1-.28-.093l-.126-.063c-.047-.023-.07-.022-.125-.031a1.005 1.005 0 0 0-.312 0c-.104.015-.211.028-.313.031a1.168 1.168 0 0 0-.25.032c-.063.013-.122.025-.187.03h-.063c-.104-.017-.165-.02-.156-.03.01-.013-.143-.055-.344-.032l-.187.032-.125.03a.675.675 0 0 1-.125-.187c-.007-.027-.169-.093-.282-.093l-.093.03c-.052.007-.105.022-.157.032h-.03a2.878 2.878 0 0 1-.282.063l-.031-.063c-.062-.048-.075-.157-.125-.219-.068-.08-.213-.053-.25-.156l-.063-.125c.136-.035.2-.088.157-.125l.03-.063c.01-.045.028-.062.063-.093l.032-.063c.06-.034.117-.073.125-.093a.545.545 0 0 1 .062-.125c.024-.032.174-.081.219-.094.046-.012.183-.073.218-.094.038-.022.126.003.125.031 0 .03.059.084.094.063.035-.02.105-.077.125-.094a.495.495 0 0 1 .188-.063l.062.063.094.094c.096-.075.205-.134.219-.125a.274.274 0 0 0 .125.031.67.67 0 0 0 .125-.031c.017-.007.13-.053.218-.063h.063l.063-.031c.056-.069.11-.114.093-.125-.016-.01-.157-.058-.25-.094L22 30.47l-.031-.094c.13-.053.245-.103.25-.094.003.008.057-.016.125-.093l.093-.032.094-.031c.08.019.136-.008.157-.094l.062-.062.031-.032c.047-.012.123-.035.188-.03H23c.052-.04-.013-.129 0-.188v-.094h.156c-.009.002.02-.042.063-.094a.359.359 0 0 1 .156-.093c.016 0 .1.006.125 0h.031l.125-.063c.157-.024.202-.068.125-.094h-.031l-.063.032c-.034.031-.047.013-.062-.032a.338.338 0 0 1 .031-.187.682.682 0 0 1 .219-.157h.063c.095-.026.127-.173.218-.218h-.062a.644.644 0 0 0-.219.093c-.081.05-.17.116-.25.157-.09.045-.187.08-.281.125-.132.065-.232.191-.375.218-.081.016-.262.034-.313-.03l-.062-.095c.039-.063-.019-.13-.125-.125l-.094.032c-.116.036-.195.039-.313.062a1.508 1.508 0 0 1-.343.032h-.094c-.105.014-.124-.003-.031-.032.092-.028.192-.159.093-.156-.097.004-.334.05-.375.063-.04.013-.172.03-.218.03-.047.003-.144.017-.125 0 .02-.014-.107-.08-.282-.093l-.156-.031c-.192-.04.026-.108.063-.219l.031-.063a.804.804 0 0 0 .219-.25c.047-.088.214-.105.218-.093.004.01.073.009.157-.032.084-.04.241-.008.343-.093h.157c.067-.005.19.023.25 0 .085-.035.084-.076.125-.157a.83.83 0 0 1 .312-.343c.047-.03.157-.126.219-.094l.063.031c.01.059.098-.012.187-.156l.094-.063zM5 28.968c.059-.004.223-.005.281.032.047.032.024.077 0 .125-.039.084-.122.074-.187.125l-.032.031c-.01.046.09.099.188.094l.063-.031h.093c-.004.046.06.069.157.062l.062-.031.063-.031c.065-.016.093-.013.093 0s.083.031.157 0c.073-.031.315-.065.343-.063.026 0 .1.073.094.094.007.005.005.008.031 0 .053-.016.22.02.219.031 0 .01.056.02.156 0s.265.077.25.094c-.014.015.024.06.094.063.072 0 .274.043.313.062.039.018.204.079.28.094.079.014.081.148.063.156.008.01-.003.05-.031.063-.037.017-.035.066.031.062.067-.004.115.075.094.094-.02.017-.022.093 0 .093s-.012.085-.125.125l-.125-.03c-.06-.014-.129-.053-.188-.063-.109-.02-.14.118-.25.125-.129.006-.061-.122-.125-.188l-.093-.093c-.137.071-.252.114-.25.093.003-.018-.108-.069-.219-.062l-.094.031-.093.031c-.077.127-.193.253-.25.282-.06.028-.239-.059-.375.03l-.125.063-.032.032c-.103.01-.165-.01-.125-.063l.032-.031.03-.032c.059-.076.077-.138.032-.125l-.031.032a3.413 3.413 0 0 1-.25.156.704.704 0 0 1-.313.094h-.093c-.096.01-.118-.004-.063-.032.054-.027.019-.105-.094-.062l-.093.031-.063.032c-.143.014-.158-.018-.031-.094l.062-.125c.085-.21-.244-.061-.312-.032L4 30.407c-.267.024-.448.024-.406 0 .044-.024-.007-.107-.156-.093H3.25a.558.558 0 0 1-.313-.157h-.062c-.084-.014-.078-.014-.125-.093l-.031-.032c-.03-.044-.038-.086-.031-.093l.156-.282h-.031c-.05.022-.078.035-.063 0 .015-.034.18-.187.281-.281l.125-.031.188-.032c-.01.14.047.165.156.063l.125.031h.125c.015-.014.04-.006.063-.031l.093-.031h.063a.163.163 0 0 1 .094.062c.012.022.036-.016.093-.093l.063-.032c.076-.032.094.008.156 0 .103-.013.231-.136.313-.187A.688.688 0 0 1 5 28.969zm50.781.907c.126.034.24.227.219.25-.027.03.026.208.219.375h.156c.215-.025.377-.191.594 0l.125.125c-.062.082.175.222.531.313l.219.093c.115.054.215.136.343.157l.157.03c.162.029.352.089.406.157l.188.031.25.032c.3.095.305.193 0 .25l-.282-.032c-.374-.06-.81-.135-1.187-.156-.181-.01-.348-.002-.532 0h-.343c-.428.051-.694.046-.594-.031.1-.078-.041-.206-.531-.25l-.407.062-.312.063c-.445.076-.75.13-.688.093.063-.038-.155-.023-.624.063-.473.087-.505-.386-.813-.344-.308.042-.953-.14-.906-.187.045-.048-.209-.079-.688 0h-.562c-.27-.147-.198-.25.156-.219h.281a.992.992 0 0 0 .563-.219l.187-.125c.26-.018.448-.022.438-.031-.01-.01.2-.002.25.094.05.096.134.159.218.156.086-.003.314-.08.344-.281l.157-.063.218-.031c.07.192.17.309.219.25.047-.059.253-.131.281-.063.03.07.243.166.469.063l.125-.219c.11-.182.091-.22.344-.218h.156c.136.058.368-.014.531-.157a.13.13 0 0 1 .125-.031zM44 30.031c.126.197.292.365.375.375l.063.032.062.062c.03.064.05.136.063.156.012.018.242-.01.437-.031.196-.019.175.162.188.125.014-.036.352.002.656.156l-.063.157c-.032.067-.096-.003-.093.093v.063a.493.493 0 0 1 .124.156.309.309 0 0 0 .094.156l.094.032c.09.031.256.053.25.187v.063c-.062.037-.015.066.094.062.108-.003.332-.082.406-.156l.063-.032h.093c.087.025.193.064.219.094.028.03.21.146.406.188l.157.062c.111.042.18.115.312.125.144.011.243-.045.375.032l.156.093c.141.09.28.154.313.157.031.002.207.053.343.093l.126.032h.062c.227.08.351.165.281.156h-.093a1.692 1.692 0 0 1-.407.125l-.187.031c-.203-.012-.302-.017-.219-.031v.062c.028.09-.269.149-.313.157-.38.068-.676-.116-1.03-.188a.826.826 0 0 0-.313 0c-.125.025-.184.043-.125.156.045.087.173.134.031.188l-.156.062c-.166-.022-.2-.01-.094.032.106.043.273.14.125.124h-.156c-.173-.009-.36 0-.532 0-.07 0-.118.006-.187 0-.11-.01-.235-.045-.344-.062l-.062-.031c-.22-.036-.317.008-.219.093l.063.094c.097.124-.007.154-.126.188-.13.036-.24.083-.374.062l-.157-.031a6.818 6.818 0 0 0-.375 0c-.064.003-.193.113-.187.188l-.032.062c-.034.12-.121.064-.218.031-.134-.044-.273-.077-.407-.125l-.03-.031a.446.446 0 0 1-.157-.063c-.014-.018-.036-.097-.063-.124-.025-.03-.163-.014-.187 0a1.167 1.167 0 0 1-.156.062c-.024.005-.097.113-.125.219l-.188-.063-.093-.031c-.128-.038-.207-.13-.188-.188.019-.056-.117-.154-.25-.093l-.156.062c-.316.134-.6-.082-.907-.125-.097-.014-.077.011-.156.032-.044.01-.084-.01-.125 0l-.156.03c-.173.004-.252-.025-.188-.062.064-.036-.027-.185-.156-.156-.13.029-.467.111-.531.125-.065.014-.269.05-.313.063a5.2 5.2 0 0 1-.374.062c-.114.014-.313-.061-.282-.094.03-.031.036-.05-.093-.031h-.126c-.221.008-.465 0-.687 0H37.063c-.151-.004.082-.105.5-.219l.374-.093c.158-.034.313-.059.47-.094l.093-.032c.117-.056.175-.099.125-.093-.05.005.038-.1.313-.188h.187c.21-.003.417.004.625.032.303.038.68.117.938-.094.11-.092.159-.216.218-.344.044-.092.077-.189.188-.219.126-.034.202.06.312.063.155.004.07-.218.282-.157.075.024.166.091.25.063.07-.023.096-.128.124-.188l.032-.03c.031-.051.057-.114.062-.126.007-.01.015-.044.032-.062.018-.019.125-.052.156-.063l-.032-.125c-.027-.132-.096-.266-.093-.406.003-.118.045-.222.187-.219h.063c.073.024.137-.07.125-.187l.062-.063c.12-.114.307-.012.407.063.01.008.177.19.218.187.09-.004.084-.153.094-.218.016-.096.026-.19.063-.282.055-.142.224-.31.374-.343L44 30.03zm-32.219.157h.031c-.002.037.084.051.188.03h.094c.109-.015.043-.033.094 0 .055.037.042.078.124.095.086.015.195.001.282 0 .103-.003.184.027.281.062.054.02.1.041.156.063-.095.022-.18.084-.281.093-.091.009-.138-.025-.219-.062l-.094-.032c-.128.005-.201.018-.187.032.014.014-.01.092-.094.156-.084.065-.228-.002-.281.031l-.063.032a.649.649 0 0 1-.218.093.406.406 0 0 0-.188.094l-.062.063c.012.061-.045.133-.125.156h-.063c-.065.01-.125-.018-.187 0-.056.018-.064.057-.094.093-.037.044-.038.044-.094.063l-.094.031c-.013.052-.087.07-.156.032h-.062l-.063.03.031.032c.004.056-.027.067-.062 0v-.031c-.059-.038-.254.105-.313.125l-.28.093c-.312.035-.514.024-.438-.03l.062-.032c.067-.029.1-.05.156-.094l.094-.062c.075-.083.041-.144-.062-.125l-.063.031c-.103.034-.181.042-.281 0-.125-.053.05-.142-.031-.219-.044-.04-.117-.013-.156 0L9 31.063c-.069.003-.184.011-.25 0-.068-.012-.196-.077-.188-.094.009-.016-.144-.044-.312 0L8.125 31c-.106.004-.206-.016-.313 0l-.062.031c-.077-.003-.117-.031-.063-.062.055-.031-.035-.098-.187-.063h-.156c-.094.002-.009-.054.031-.093.08-.077.159-.157.25-.22.07-.048.188-.125.281-.093.059.021.059.107.125.125l.094.031c.116-.055.224-.09.219-.062-.007.028.032.102.062.093a.515.515 0 0 0 .125-.093c.014-.013.149-.036.25-.063h.063l.062-.031c.05.018.088.042.094.063.004.021.098.044.188 0h.124c.107.001.182.04.282 0 .091-.039.21-.1.312-.094h.156c-.049.102.007.156.126.125l.03-.063c.03-.031.05-.04.095-.062a.194.194 0 0 1 .124 0c.096.055.013.131.157.125a.435.435 0 0 0 .312-.157c.041-.058.052-.087.125-.093.03-.003.094-.01.125 0 .035.009.06.054.094.062.04.01.091-.015.125-.031.085-.042.162-.088.25-.125.013-.006.136-.076.156-.063zm1.5.218c.014 0-.07.03-.156.063h-.063c-.006-.002.007-.03 0-.032h.063c.054 0 .142-.03.156-.03zm-.344.469c.039.073.102.133.126.125.02-.01.102-.022.124 0h.032c.07.022.187-.07.25-.094.12-.05.138.036.25.063.04.007.084.002.125 0h.031c.063-.011.116-.019.125 0 .01.018.086.076.125.093h.125c.07.015.03.043-.094.063l-.125.031c-.048.011-.103.072-.156.063-.024-.004-.035-.027-.063-.032-.064-.009-.22-.025-.28 0l-.095.032c.039.09-.022.13-.124.062h-.157c-.107.012-.207.086-.312.032-.063-.034-.054-.042-.125-.032-.048.007-.073.044-.125.032-.034-.009-.066-.022-.094-.032l-.031-.031c-.035 0-.06-.003-.063-.031v-.032c.022-.08.048-.155.125-.156h.063c.031.067.098.009.125-.125h.094l.124-.031zm5.063.75c.144.036.188.112.094.156l-.094.032c-.028.009-.118.046-.125.093-.006.045.047.03.063.063.024.051-.016.133 0 .187.012.049.056.078.03.125-.02.042-.121 0-.155 0h-.094c-.12.014-.136.076-.063.125l.032.063c.054.057.083.035.156.031a.362.362 0 0 1 .281.094l.125.093c-.041.049-.018.095.063.094l.062.032.094.062c.069.097-.03.162-.188.156h-.062c-.093-.004-.191.004-.282 0-.061-.003-.076 0-.125.032l-.03.03c-.024.02-.058.03-.063.032-.005.003-.023.023-.032.031a.124.124 0 0 1-.093.032c-.045-.006-.033.046.125.124l-.032.094c-.006.02-.052.047-.062.063-.025.034-.02.074-.063.093-.071.036-.2-.012-.28 0-.064.012-.125.049-.188.063-.11.024-.166.09-.282.094-.114.004-.263.016-.375 0-.054-.008-.071-.05-.125-.063-.041-.01-.154.025-.187 0-.025-.02.007-.081-.031-.093-.043-.015-.132.07-.157.093-.028.031-.09.08-.093.125v.063c.013.036-.033.055-.094.062h-.031c-.073-.018-.143-.122-.219-.062-.041.033-.056.087-.094.125-.07.066-.113.086-.187.031a.396.396 0 0 0-.219-.094c-.117-.008-.226.04-.344.032-.107-.008-.296-.038-.281-.188a.503.503 0 0 1 .063-.156c.033-.047.159-.088.124-.157-.019-.043-.124-.037-.156-.03-.088.017-.166.063-.25.093-.102.033-.21.06-.312.094-.047.015-.079.083-.125.093h-.063c-.077-.031-.12-.083-.094-.124.024-.04-.046-.092-.093-.063h-.031c-.03.018-.12.11-.157.094-.059-.028-.025-.082-.125-.063-.074.015-.102.061-.187.032-.06-.023-.066-.037-.094-.094-.058-.127-.145-.07-.25-.032-.082.03-.166.036-.25.063-.063.02-.12.041-.188.031-.078-.013-.176-.109-.187-.187-.011-.081.077-.16.063-.25-.015-.087-.083-.051-.157-.032-.051.014-.103.029-.156.032-.102.006-.182.032-.281.031a.255.255 0 0 1-.125-.031c-.02-.01-.005-.03-.031-.032-.02-.002-.077.024-.094.032-.038.015-.084.068-.125.062-.044-.005-.075-.05-.094-.093-.029-.064-.055-.153-.031-.22.044-.129.276-.279.406-.187.058.041.044.107.125.094.06-.01.137-.064.188-.094.009-.004.07-.047.062-.062a.42.42 0 0 1-.063-.219c-.005-.12.087-.166.188-.125.059.024.129.084.188.094l.124.031c.06.076.16.126.22.125l.062.031c.052.012.041.033.094 0l.03-.031a4.76 4.76 0 0 1 .063-.094c.005-.007.022-.03.031-.031a.227.227 0 0 0 .094-.063l.063-.03.125-.032c-.032.091-.03.163 0 .156.029-.006.107.035.094.063-.015.028-.013.118.062.125l.094.031c.09.037.076.057.156 0 .082-.058.22-.092.313-.031l.062.031c.01.042.056.064.094.031l.031-.031a.32.32 0 0 1 .188-.063c.058-.001.102.034.156.032.064-.001.066-.04.125-.063.072-.029.216.026.281.063.035.021.056.05.094.062.04.012.08-.011.125 0h.062c.056.022.122.012.156-.031.033-.041.1-.193.157-.188.058.007.162-.05.156-.062-.006-.012-.027-.043-.031-.063-.002-.02.024-.102.031-.124.005-.024.055-.123.063-.157l.03-.031c.027-.03.085-.084.126-.094l.094-.031c.1.065.228.083.28.031l.063.032.063.03c.05.07.116.102.125.095.01-.008.062-.087.125-.157l.093-.031a.447.447 0 0 1 .375.094c.061.06.013.043.094.031h.063c.114-.02.202-.107.187-.188l.125.032h.094c.146-.017.318-.045.344-.063.027-.016.132-.055.187-.093l.063-.032.031-.031zm37 .625c.046-.002.11.03.156.063l.125.093c.024.183.226.266.438.219l.187-.031c.08-.014.175-.167.282-.063l.03.032c-.007.125.05.213.126.187.076-.025.335.042.375.063.04.02.28.137.437.218l.032.032c.255.23-.088.243-.344.312l-.157.031c-.227.012-.474.128-.562.25-.088.122-.467.159-.469.125 0-.032-.19-.07-.343 0-.154.072-.532-.046-.5-.156.031-.112.029-.112-.22.031-.246.144-.885.024-.812-.031.073-.055.139-.137-.062-.094-.2.043-.587-.075-.532-.125.056-.05-.021-.208-.25-.218h-.187l-.656.312.187-.188c.483-.26 1.014-.554 1.188-.656.176-.101.402.021.531-.156l.188-.125c.296-.166.226-.01.437 0 .122.006.238-.119.375-.125zm-48.188.375a.182.182 0 0 1 .157 0l.031.031c.014.04.038.06.063.063.025.002.136.03.156.031.021.002.06.036.062.063h.063l.093.03a.755.755 0 0 0 .313.063c.106-.002.25.094.313.063l.062-.032.063-.093c.12-.04.229-.045.25-.032.019.014.103.057.124.063h.032c.056.005.118-.04.156.031v.063c.008.058.09.074.156.031l.063-.031c.11-.005.201.099.25.187.071.13.149.113.281.157.124.042.286.1.406.156.047.021.103.046.156.062l.094.032c.12.054.175.109.125.124h-.031a.687.687 0 0 1-.344.032c-.072-.016-.094-.005-.156 0l-.063.031c-.12 0-.147.044-.062.125l-.156.031h-.031a3.652 3.652 0 0 1-.594.125H8.75c-.073.004-.12.042-.188.063a.484.484 0 0 1-.218 0A.434.434 0 0 1 8.156 34c-.046-.04-.035-.028-.094-.031-.053-.003-.1.026-.156.031h-.062c-.071-.005-.128-.036-.125-.063.001-.026-.05-.092-.063-.093-.01-.002-.03-.047-.031-.063-.003-.017-.016-.036-.063-.031-.045.004-.192-.06-.187-.094l-.063-.031c-.082-.041-.098.074-.093.125.003.05.028.075.031.125.004.09-.038.1-.125.094-.097-.008-.187-.079-.281-.063l-.063.032c-.095.033-.163.018-.156 0 .007-.02-.024-.044-.063-.032-.039.014-.144-.07-.125-.156l-.093-.063c-.064-.027-.123-.01-.188 0-.117.021-.12.056-.156.157-.032.091-.104.133-.188.062-.062-.054-.029-.114-.125-.125a.52.52 0 0 0-.218.032c-.097.032-.182.117-.282.062-.03-.017-.062-.045-.093-.063-.09-.049-.18-.023-.219-.124-.012-.031-.01-.065-.031-.094-.041-.056-.132-.083-.188-.125l-.062-.032c-.053-.03-.102-.062-.125-.062a.477.477 0 0 1-.125-.031c-.011-.007-.038.014-.032.031v.031l-.437.125c-.01-.013-.01-.042 0-.062.01-.02.07-.087.125-.125a2.07 2.07 0 0 1 .281-.125.366.366 0 0 1 .125 0c.01.006.08-.011.125-.063.046-.05.188-.121.219-.25h.219c.045.065.125.092.156.063h.031c.078-.028.176.025.219.093.028.044.014.094.063.126.039.025.15-.01.187-.032.11-.064.098-.188.156-.281l.063-.125c.116.108.234.15.25.094.017-.056.162-.076.187-.063.025.012.112.082.125.094l.063-.031c.12-.022.119.142.218.125.123-.02.06-.146.063-.219.004-.054.02-.106.063-.125zm41.126 3.188H48c.178.073.478.097.688.062h.124l.313-.063c-.02.187.124.31.344.25l.25.063.125.031c.143.12-.083.335-.5.5l-.282.032c-.142.007-.297-.038-.437 0l-.063.03c-.193.108.042.268.532.344l.375-.062c.252-.037.454.024.718.031h.25c.274 0 .549-.217.594-.468l.157-.032c.157-.031.146.043.28.063.197.029.104-.043.25-.157.304-.233.474.05.72.032.203-.015.483-.198.687-.063l.156.125c-.024.165.06.25.188.188l.093-.032c.34-.039.34.162.5.376.172.229.223.035.438-.032l.094-.031c.192.05.422-.06.531-.219h.094l.218-.062a.89.89 0 0 0 .47-.063l.156.032.187.03c.12.109.231.2.25.188a.454.454 0 0 1 .156-.062c.052-.003.204.133.25.187.045.053.348.11.594 0l.219.063.156.062c.033.137.193.236.375.219.183-.018.755.069.844.094.09.025.359.218.437.312l.094.063c.207.085.443.041.656.093l.25.063c.287.134.33.288.094.344h-.25c-.391-.008-.76.15-1.156.062l-.594-.125c-.68-.055-1.18-.12-1.125-.125.053-.003-.41.196-1.094.344l-.531.031h-.25c-.29.088-.13.182.375.219l.438.125c.233.06.44.153.687.156h.125c.142.033.458-.015.688-.093l.093.093c.097.103-.027.255.094.344.077.056.39-.146.5-.125l.094.031a.83.83 0 0 0 .187.219l.157.031.156.063c.219.1-.097.25-.688.343H57.031c-.37-.043-.64-.097-.593-.124.044-.027.157-.114.124-.126-.03-.01-.28-.014-.468-.03l-.188-.032-.218-.031c-.26-.042-.488-.074-.532-.063a5.252 5.252 0 0 1-.531.063h-.156c-.093 0-.19-.012-.282 0-.12.016-.115.09-.312.062-.3-.04-.701-.352-.906.032-.124.23-.266.272-.532.374l-.187.063c-.322.064-.37.027-.094-.094.278-.12-.01-.486-.375-.281l-.343.094-.157.031c-.227.034-.42.04-.437.031a.891.891 0 0 0-.282 0l-.093.032c-.202.061-.379.142-.594.156l-.125.031a1.424 1.424 0 0 1-.313-.063c-.03-.018-.216-.134-.406-.156-.189-.021-.573-.185-.468-.218.105-.034-.034-.238-.438-.22l-.344.063-.125.032c-.409-.026-.564-.197-.343-.376l.124-.156.063-.093c.114-.232-.035-.338-.344-.25l-.281.062c-.306.072-.607.121-.906.188l-.25.03c-.76-.017-1.581-.04-1.844-.062l-.125.032-.281.03c-.303.114-.538.191-.5.157.038-.035-.289.005-.75.219l-.157-.157c-.177-.221.331-.456.063-.593-.168-.086-.436.12-.594.156-.198.047-.216.016-.375-.063-.186-.092-.283-.092-.5-.093h-.343c-.064-.26-.188-.467-.25-.469-.063-.003-.407.182-.657.25l-.25-.031h-.218c-.124-.262-.245-.433-.25-.375l.874-.282.282-.124c.385-.023.74.016.781.062.042.046.256.07.313.031.058-.039.253-.163.312-.187.057-.024.221-.022.25 0 .03.022.217.038.375-.032.16-.067.563-.04.563 0 0 .041.428.111.906.063l.125-.281c.059-.148-.032-.339.093-.469l.157-.156c.32.04.574.124.562.156-.01.033.054.01.219-.063.164-.07.627-.146.719-.28l.156-.063.156-.032c.132.067.36-.011.5-.156h.188l.218.032c.074.124.218.15.313.062l.094-.094a.835.835 0 0 1 .468-.218c.212-.04.417-.07.626-.126zm-32.844.468c.073 0 .158.036.219.094.063.06.136.117.187.188.041.056.039.1.094.156.023.023.172.163.219.156.043-.006.031-.03.062-.063l.094-.093a.286.286 0 0 1 .281-.032h.063c.044.005.133.01.156.063v.031c-.03.053-.016.112 0 .125.017.013.142.002.218 0a.66.66 0 0 1 .22.063c.006.004-.002.026 0 .031 0 .006.031.015.062.031.03.014.149.054.187.063.04.006.155.024.157.031.004.005.016.046.03.094.015.046.1.187.126.218.025.031.167.078.218.063h.032c.104-.056.165-.095.281-.094h.031a.244.244 0 0 1 .125.032c.015.013.078.046.094.062.018.014.076.083.094.094h.031l.094.031a.481.481 0 0 1 .125.156c-.001.015.06.052.125.063h.062c.096.004.123.066.094.156-.052.162.126.055.219.094.047.021.065.09.093.125.04.044.043.038.094.062l.063.032c.075.075.131.142.125.156-.008.014.011.073.031.093h.031c.119.067.246.183.375.22.07.018.114.004.157.062v.031c.017.052-.009.114-.063.125-.056.01-.184.001-.219 0-.035 0-.158.023-.187.031-.031.007-.191.04-.282.032l-.062-.032h-.063c-.127.006-.244.08-.25.157l-.093.03h-.157a2.192 2.192 0 0 0-.656.094l.032-.156c.006-.062.082-.12.03-.187-.034-.048-.172-.04-.218-.032-.19.038-.243.17-.344.313-.079.11-.218.159-.343.188l-.125.03c-.126.032-.162.023-.063-.03l-.063-.094c-.078-.065-.266.063-.343.093-.199.08-.38.138-.594.157-.085.007-.165 0-.25 0h-.063c-.1-.001-.115-.063-.03-.125l.062-.094.062-.063c.055-.088.018-.137-.062-.124h-.063c-.076.032-.138.075-.219.093-.095.02-.158.062-.25.094-.117.04-.258.056-.374.094-.203.063-.416.056-.626.062h-.093c-.157.02-.213.027-.125 0 .087-.028.156-.165.094-.156h-.032c-.097.024-.182.048-.281.063-.076.009-.175-.01-.25 0h-.063c-.094-.007-.041-.08.126-.188l-.22-.063c-.065-.015-.436.09-.437-.03-.001-.061-.25-.048-.375 0l-.125.03c-.147.015-.215-.002-.125-.03.09-.03.12-.14.063-.126l-.063.032c-.109.022-.203.049-.312.062-.11.014-.235.007-.344.031h-.063c-.088.02-.108-.002-.03-.062h.03l.094-.063c.106-.085.074-.12-.062-.093l-.094.03c-.145.047-.26.083-.406.126-.132.039-.278.108-.406.156h-.063c-.12-.013-.166-.018-.125-.031.04-.013-.05-.059-.188-.032l-.124.032c-.093.027-.188.044-.282.062h-.094c-.094.014-.148-.056-.124-.156l-.032-.031-.062-.032c-.108.04-.165.035-.156 0 .007-.033-.14-.043-.313.063l-.156.063c-.17.058-.353.074-.531.093h-.094c-.142.003-.23-.016-.188-.062.043-.049.05-.213.031-.219-.02-.006-.147.03-.25.063l-.093.03-.125.032c-.025-.04-.038-.069-.063-.063a.578.578 0 0 0-.156.063.714.714 0 0 1-.219.063A1.992 1.992 0 0 0 7 39.25l-.063.031h-.062c-.085.011-.133-.017-.125-.062.01-.045-.062-.097-.219-.063l-.093.032c-.053.018-.144.06-.188 0l-.031-.063c.022-.055-.01-.046-.094 0l-.094.031-.062.032c-.044 0-.083.013-.094 0h-.063c-.04.007-.075.032-.093.03-.019 0-.055-.009-.094.032l-.063.031c-.053.05-.12.068-.187.094l-.125.063c-.185.013-.33.006-.313-.032.02-.038-.082-.126-.218-.093l-.063-.063-.062-.063c.052-.098.02-.16-.063-.156H4.5c-.094.015-.157.052-.25.032A1.029 1.029 0 0 1 4.062 39c-.058-.027-.118-.08-.187-.063l-.031-.093h.094c.077-.022.172-.075.218-.094a.912.912 0 0 1 .375.031l.063.094c.051.048.05.046.125 0l.093-.063a.811.811 0 0 1 .22-.093c.01 0 .072.016.093.031a.35.35 0 0 0 .219 0h.062l.157-.031c.064.102.152.168.218.156h.063c.036-.004.066.002.093-.031.023-.031-.001-.09 0-.125a.207.207 0 0 1 .125-.188c.083-.036.221-.003.282-.062.038-.037.03-.114.062-.157l.032-.03c.05-.007.168-.15.25-.313l.093-.032.063-.03a.7.7 0 0 0 .343-.126c.043-.043.204-.062.22-.062.015.003.074-.04.093-.063.019-.023.094-.072.125-.093h.031c.053-.004.075.022.125 0 .074-.032.067-.134.157-.157a.305.305 0 0 1 .218.063c.097.1-.032.141-.062.218a.325.325 0 0 0 0 .157c.038.085.176.078.25.062.038-.007.09-.057.125-.031l.031.031c-.014.048.043.017.125-.062l.063-.063c.123-.094.13.084.218.125l.094.032c.043-.052.097-.091.125-.094a.389.389 0 0 1 .156.031c.03.019.112.014.125 0 .014-.012.044-.074.063-.094.018-.018.126-.113.187-.187l.125.031c.079.023.245.045.25.156v.063c-.028.075.076.134.219.125l.063-.063c.078-.093-.004-.21.03-.312.023-.065.094-.094.157-.094.08 0 .073.023.125-.031.057-.063.099-.15.188-.188l.062-.031c.054.047.193-.025.281-.156l.156.093c.013.006.05.028.063.032l.031.031c.056-.024.122 0 .125.031.005.031.088-.013.156-.156l.157.031c.141.033.205.238.344.282a.29.29 0 0 0 .28-.063c.027-.026.064-.071.095-.094.054-.04.036-.014.093 0 .024.007.074.02.094.032.033.02.017.043.063.062.124.051.13-.085.093-.188-.035-.095-.09-.105-.062-.218v-.094c.106-.081.193-.226.187-.313l.063-.062a.18.18 0 0 1 .219-.094c.084.024.127.066.218.063.097-.002.12-.016.188.062.048.054.056.104.125.063.04-.024.056-.062.094-.094.043-.036.1-.105.156-.125l.062-.031c.092.058.164.118.156.125-.004.007-.014.044 0 .062.014.019.046.027.094-.031l.063-.031h.062c.053.01.105-.008.125-.032h.031c.053-.035.13-.069.188-.093.071-.03.145-.062.219-.063zm14.531 0l.188.032.218.03c-.035.162.177.211.469.126l.063.312c.023.117-.028.224.125.25.114.02.195-.07.28-.125.1-.06.222-.089.313-.156.12-.085.203-.26.344-.313l.25-.062c.153.23.356.331.469.25h.125l.187-.031c-.018.186.15.292.375.218l.219.032.219.031c.004.173.162.27.343.219l.188.093c.319.174.598.292.969.282.212-.006.45-.03.656.031l.125.031c.146.048.19.09.094.094-.096.005-.115.155.156.281l.281.032.063.03c-.096-.01-.148-.024-.25-.03l-.188.03c-.315.002-.623-.003-.937 0-.332.004-.616-.108-.938-.03a1.678 1.678 0 0 1-.781-.032 1.34 1.34 0 0 0-.594-.062l-.156.031c-.198.13-.25.264-.125.281.127.018.307.164.219.188-.09.024-.041.175.281.218.322.043.313.277.031.282h-.218c-.274 0-.69.097-.938-.063-.169-.107-.148-.296-.375-.281l-.219.031c-.226.02-.376.008-.343-.031.033-.038-.068-.142-.25-.125l-.094.031c-.209.075-.41.23-.625.282-.162.04-.335-.005-.5 0h-.188c-.196.082-.11-.032.188-.25l-.157-.22c-.094-.146-.429.038-.562.063-.267.052-.515.059-.781.094-.144.02-.294.02-.438.031h-.093c-.115.024-.09-.047.062-.156h.031l.125-.063c.104-.093-.053-.125-.343-.062l-.157.031c-.167.032-.332.032-.5.032h-.125c-.161-.013-.248-.054-.187-.094.06-.042-.345-.262-1-.375l.5-.407c.208-.175.452-.303.687-.437.14-.077.272-.166.407-.25.118-.075.243-.204.375-.25.163-.057.363.05.5.125.078.043.161.11.25.125.04.007.122-.023.156 0l.062.031c0 .063.085.084.188.032l.093-.063.094-.031c.084-.041.239-.168.344-.282l.188.032.156.062c.036.116.223.052.406-.125zm-8.375.313a.906.906 0 0 1 .281.031c.005.015.046.016.094 0 .047-.016.157.049.125.094-.033.045.05.176.188.156l.093.031c.108.06 0 .12.063.188.06.066.147.018.218.031.179.03.177.143.282.25.117.116.258.091.406.094.14.001.19.036.313.093.105.05.23.093.343.126l.094.03c.12.029.095.087-.063.126h-.125c-.252.006-.497.04-.75.062-.193.015-.295-.052-.468-.093-.07-.02-.247-.04-.313 0-.126.072-.203.294-.406.25-.115-.026-.064-.105-.156-.157l-.157-.062c-.158.091-.28.128-.28.093s-.062-.15-.126-.156c-.062-.006-.203.036-.187.063.016.025-.094.13-.313.187h-.093c-.078-.003-.228-.006-.22-.125.004-.072.104-.088.095-.187v-.282c-.525.125-.961.234-.938.22.024-.018-.01-.07-.156-.063-.147.007-.469-.139-.407-.157.063-.018.218-.018.22 0l.062-.093.125-.094c.244-.057.515-.176.593-.281l.125-.032h.094c.072.064.191.018.282-.124.09-.141.51-.088.687-.157.089-.034.24-.058.375-.062zm14.281 3.375c.144-.004.304.132.375.093.097-.05.396.005.407.032.012.028.222.062.406.031l.093.063c.165.124.063.314.313.156l.156-.094c.174-.08.335-.106.344-.063.01.045.039.057.156-.03.116-.09.516-.039.657-.094.143-.058.43.098.343.25l.282.03.218.032c.167.046.426.042.563-.031.137-.073.43.097.625.031.194-.067.522.184.75.156l.156-.031.188-.063c.248.1.111.25-.313.344l-.375.157c-.187.071-.36.125-.563.156l-.28.031c-.332-.005-.528.023-.407.063h.094c.262.05.482.066.75.062h.156c.147.012.304.044.344.063.04.018.188.016.218 0 .031-.017-.032.27-.218.656l.562-.125c.145-.036.19-.101.344-.063.171.042.349.174.531.219.114.027.347-.013.25.188-.065.132-.324.103-.437.093-.227-.017-.428-.1-.657-.093h-.218c-.15.12-.359.238-.469.25-.11.01-.396-.068-.406-.126-.012-.057-.296-.047-.344-.03-.05.016-.208.035-.25.03a.815.815 0 0 0-.25.063.796.796 0 0 1-.219.063 1.09 1.09 0 0 0-.281.093c-.108.05-.356-.003-.313-.062.045-.058-.144-.066-.468.093l-.219.094-.313.157c-.451.015-.767-.049-.687-.126.08-.073.27-.214.219-.187-.05.026-.175-.007-.157-.031.018-.025-.108.011-.343.125h-.125c-.056-.002-.172-.063-.188-.063-.158-.001-.24.085-.375.157-.257.135-.54.192-.812.28l-.282.063c-.28.024-.36-.035-.187-.156.171-.12.103-.288-.25-.125l-.313.094-.343.093c-.398-.096-.685-.247-.625-.312.061-.066-.004-.162-.313-.125l-.156.031h-.188a3.853 3.853 0 0 0-.562-.25c-.037-.003-.08-.089-.031-.156.048-.067-.048-.143-.313-.063l-.218.032-.25.031c-.281.02-.144-.203.312-.5l.156-.063c.094-.035.164-.007.25-.03.159-.045.291-.144.438-.22.088-.046.195-.07.281-.124.085-.052.149-.118.219-.188l.062-.031c.068.023.358-.041.657-.125h.187c.06-.033.118-.045.156-.032l.032-.124v-.126c.204-.147.353-.252.343-.218-.01.033.189-.087.438-.344l.125.031h.187c-.012.174.11.173.25 0a.159.159 0 0 1 .125-.062zm-8.937.656l.25.063c.32.084.275.408.625.343.314-.059.47-.233.812-.156h.125c.108.076.25.161.313.188l.062.03.188.063c.138-.03.284-.091.312-.125.028-.032.175-.035.25.032l.094.03c.219.056.191-.188.406-.25l.125-.062c.22.16.548.295.719.282.17-.015.53.18.563.218.034.038.012.129 0 .125a3.13 3.13 0 0 0-.375.032c-.217.026-.594.115-.594.156.001.043-.025.201-.125.25-.1.048-.273.112-.188.156l-.031.094c-.04.12-.265.098-.344.093H29.5c-.461-.038-.746-.078-.656-.062.088.016.23.184.093.313l-.125.093c-.17.122-.31.384-.5.469-.118.053-.307.007-.437.031-.151.03-.246.075-.406.063h-.25c-.261-.036-.387-.117-.25-.157.137-.04-.233-.176-.875-.093l-.532.125-.343.062c-.353-.003-.536-.042-.407-.093.13-.049.231-.187-.03-.126l-.188.063c-.414.183-.702.361-1.157.375-.356.01-.703.17-1.062.188-.161.007-.254.031-.406.062h-.094c.026-.012.065-.049.125-.063l.125-.093.063-.063c.089-.096.117-.224.062-.25h-.063c-.155-.027-.22.032-.375.063l-.187.031c-.258.032-.446.007-.406-.031.04-.04-.226-.078-.657 0h-.406c-.24.01-.45.022-.687.062l-.125.032c-.15.007-.111.04.062.093v.157c.007.175-.56.428-.687.468-.331.105-.747.15-1.094.188l-.219.031c-.32.023-.497-.008-.375-.063l.094-.03.156-.094c.141-.12.103-.198-.062-.188h-.063c-.311.034-.622.113-.937.094-.215-.014-.41-.086-.625-.094h-.063a1.41 1.41 0 0 0-.437 0h-.125l-.313.031c-.332.086-.49.026-.344-.125.148-.15.128-.334-.187-.281l-.156.031a6.09 6.09 0 0 1-.969.219c-.37.055-.752.07-1.125.125h-.125c-.332-.045-.48-.102-.344-.156.136-.054.118-.278-.187-.219l-.25.063-.25.093c-.36.08-.589.074-.5 0 .09-.071-.02-.309-.125-.281a7.627 7.627 0 0 1-.531.094 1.349 1.349 0 0 0-.313.125c-.028.023-.11.009-.094-.032.018-.04-.042-.047-.25 0h-.219c-.362.049-.7.135-1.062.188-.335.05-.659.152-1 .156h-.156c-.175 0-.152-.106.062-.218.214-.114.323-.62.282-.626-.043-.004-.41.113-.72.188l-.28.031c-.15.014-.288.023-.438.032l-.188.03c-.242.01-.416-.03-.375-.093.043-.065.15-.199.063-.188-.087.012-.284-.214-.25-.468l-.188-.094a.297.297 0 0 0-.093-.031l-.282.156c-.06-.18.13-.189.282-.156l.468-.25.157-.219c.268-.1.497-.144.5-.094.003.05.146.067.312-.062l.188.031c.124.024.128.132.25.156.063.012.241-.051.312-.062h.157c.113-.052.17-.11.125-.094-.042.015.044-.184.312-.406l.25-.063c.27-.078.364.136.594.125.168-.008.622-.197.75.032l.062.093c-.074.158.021.218.219.125l.219.063c.18.042.074.04.25-.032.172-.07.25-.066.437-.093.21-.032.195-.21.406-.25.119-.024.416-.016.5.093l.063.063c-.029.046.2.134.5.188l.219.062.25.094c.303.033.636-.036.719-.157l.093-.093.125-.157c.253.036.454.093.438.094a4.3 4.3 0 0 1 .656-.156h.313c.215-.015.605-.056.78.125l.095.125c.007.114.19.146.406.063.216-.085.663.092.656.124-.007.032.067.066.219 0l.125-.062c.304-.125.239.046.5.188.207.113.176.022.343 0h.188c.166.095.285-.003.281-.188l.375.094c.094.017.453.1.5-.063.042-.143-.14-.208-.031-.343.065-.08.656-.001.719 0 .272 0 .54-.008.812 0 .272.007.542.083.813.093h.218c.299.004.53.015.5.032.011-.014.026-.044.063-.063.096-.05.412-.049.469-.031.056.017.253.04.312.031.059-.008.405.043.657.156.252.115.653-.308.875-.312l.156-.032c.091-.012.164.008.25-.03.186-.082.297-.285.5-.344.209-.062.257.054.406.062.116.008.301-.202.438-.219l.156-.031c.09.086.373.034.625-.125zm26.156.531l.344.25c.178.14.21.283.437.375.22.09.387.062.625.063.239.001.47-.004.688.125.143.085.215.179.375.25l.187.093c.183-.01.368-.017.407 0-.028.02-.085.064-.188.094l-.219-.093c-.093.004-.122-.013-.25 0l-.625-.032h-.375c-.494.013-.793.066-.656.094.135.029.217.205-.094.25h-.125c-.42.002-.742-.035-1.125-.188-.338-.136-.62-.087-.968-.156l-.25-.062c-.207.05-.219.177-.032.281.188.103.5.318.25.25h-.281c-.408.004-.812-.046-1.219-.031h-.218c-.24.053-.553.074-.72.031l-.187-.031c-.15-.017-.28.027-.437 0 .047.015.01.034.281.093.418.09.343.562-.094.532-.438-.031-.75.197-.656.218.096.022.019.11-.344.063l-.312-.094a2.732 2.732 0 0 0-.875-.125c-.25.007-.451.058-.688.125-.296.084-.531.095-.843.094-.518-.002-1.08.033-1.594-.031a4.45 4.45 0 0 1-1.25-.313c-.276-.117-.454-.09-.75-.093l.25-.032c.598-.069 1.078-.138 1.062-.156-.014-.017.31-.193.688-.344l.343.157.094.062c.052.045.141.04.188 0 .046-.04.295-.187.437-.25h.157c.31-.005.441.354.656.125.082-.09.014-.433.218-.469l.22-.031c.12.136.281.136.343 0 .062-.134.372.092.438.063.065-.031.38-.181.562-.22h.25c.194-.005.225-.07.438-.124l.156-.032c.105.102.305.058.468-.093.164-.148.598-.13.594-.032-.004.1.082.158.282-.03.199-.19.658-.095.593-.032-.065.064.171.166.5 0l.407.219c.385.18.219.036.437-.25.246-.322.447-.054.719 0l.312.062c.444.032.879-.256.969-.625zM30.062 43.75c.252.025.433.458.532.438.113-.022.394.123.437.093a.552.552 0 0 1 .25-.062c.043.01.189.185.313.281l.281-.156c.268-.151.213-.045.375.093l.156.126c.18-.11.831-.036 1.438.156l.5.031c.523.044 1.04.122 1.562.156.196.012.244-.048.407-.062h.093c.122.056-.11.13-.5.187l-.343.063c-.379.045-.776 0-1.157 0h-.531c-.575-.046-.984-.064-.938-.063.048 0-.107.122-.437.313l-.281.093c-.128.028-.134-.028-.25-.062-.159-.045-.336-.031-.5-.031H31c-.239.003-.4-.063-.625-.094-.113-.017-.23.04-.344.031l-.156-.031c-.212-.034-.28-.03-.156 0 .124.03-.196.228-.782.188l-.187-.032-.125-.031c-.443.014-.793.031-.75.031.042 0-.026.097-.25.157l-.063-.032-.187-.031c-.231-.17-.463-.297-.531-.281-.068.016.007.213.25.312l-.125.25-.125.157c-.295-.027-.547-.084-.563-.126-.017-.041-.095-.119-.125-.124-.029-.007-.138-.037-.156-.063-.016-.025.057-.18.094-.281h-.344c-.103.038-.145.057-.125.031.02-.026-.06-.051-.219 0l-.125.031-.156.063c-.007-.119-.175-.198-.375-.188l-.188-.062c-.063-.014-.409-.002-.437-.032-.103-.111.297-.364.375-.406.107-.058.29-.17.406-.093.14.09.092.266.313.25.228-.02.602-.165.75-.344.097-.117.109-.236.281-.25l.125-.032c.104.083.23.032.281-.124l.125-.063c.172-.082.2.039.344.094l.219.062c.211.028.522-.017.687-.125.166-.109.48.098.625-.062l.157-.094.125-.063c.254.036.72-.032 1.03-.156.04-.015.059-.035.095-.031zm13.22 1.406l.187.125.187.094c-.008.24.026.42.063.406.035-.013.122.047.125.094.001.048.225.054.375-.031l.093-.157c.071-.141-.063-.173.157-.187h.125c.126.042.267.075.312.063.045-.01.172.064.188.093.017.03.126-.02.218-.156l.126-.094c.287-.18.24.05.437.157.157.085.424-.098.531-.032l.063.032c.015.062.053.137.093.156.041.018.22-.02.282-.032.062-.008.316.098.343.126.03.026.16-.003.22-.032.058-.029.415-.085.624-.093l.063.093.156.157c-.104.23-.001.4.219.374l.156.063.219.063c.122.085.219.141.25.124.03-.015.214-.072.312-.093l.063-.063.25-.093c.048-.237.103-.412.125-.376.022.038.235 0 .406-.187l.219-.063.156-.03c.244.147.546.25.688.218.138-.03.428.014.656-.219l.25.094.156.063c.092.188.213.304.281.25L52.72 46c.115-.098.138-.217.25-.313l.25-.218c.43.302.835.433.875.281l.093-.094c.167-.11.264.008.438 0l.219-.031c.259.156.651.277.875.25l.156.063c.234.082.493.42.688.562.115.086.407.392.562.438l.094.03c.122-.013-.199.076-.719.22h-.969c-.597-.042-.86-.05-.593-.032.267.019.58.197.468.219-.11.02-.403.098-.468.125a8.863 8.863 0 0 1-.376.125c-.068.02-.378.142-.53.219h-.22c-.253.01-.344-.028-.562-.157-.356-.213-.798-.293-1.188-.437-.219-.081-.309-.08-.53 0l-.188.094a3.875 3.875 0 0 1-.657.343c-.149.052-.896.051-1.343.032l-.469.062c-.11.013-.16-.089-.25-.093-.175-.01-.263.22-.406.312l-.438.281c-.514-.052-.84-.143-.718-.187.119-.043.136-.186-.157-.125-.292.058-.578-.436-.375-.719h-.468c-.3 0-.558.036-.844.094-.169.033-.76.109-.844-.063l-.094-.187c.147-.168-.207-.17-.781 0-.573.17-1.242.072-1.438.125l-.156.062c-.225.09-.414.066-.656.063-.103-.001-.267-.014-.375 0l-.188.031c-.153.124-.298.175-.312.125a.673.673 0 0 0-.313-.313h-.499c-.1-.187-.318-.325-.47-.312l-.124-.031c-.233-.035-.382-.56-.344-.688l.125-.062.125-.094c.354 0 .829-.105 1.031-.25h.281c.117.173.303.255.407.156h.093c.267.049.108.305.22.438l.312.375c.262-.569.494-.988.5-.938.005.052.075.092.156-.031l.094-.063.156-.093c.041.14.172.055.281-.188l.063-.031.187-.094c.138.121.423.052.625-.125zm-27.626.25H16.063c.086.145.288.208.437.125l.125-.031.313-.031c.021.185.11.297.187.25.077-.046.327.024.375.062.047.04.146.305.156.469l.063.094c.106.14.238.05.343 0 .137-.065.26-.1.407-.157.138-.052.121-.043.25-.156l.25-.187c.177.112.33.224.343.25.015.025.213.054.407.031l.156-.031.313-.032c.024.252.166.458.312.438h.156c.145-.003.216.064.375.094.276.052.565.08.844.093.233.01.272.018.438.157.16.134.17.187.437.187.247 0 .436-.19.656-.187.197.002.265.112.125.25-.144.144-.59.127-.781.156-.468.07-.995.026-1.469.031-.428.005-.785-.226-1.218-.156-.148.024-.284.06-.438.063-.087.002-.266-.03-.344 0-.197.08-.011.17.094.25l.125.062c.162.145.052.255-.219.25h-.218a2.77 2.77 0 0 1-.938-.156c-.377-.121-.8-.096-1.156-.25-.212-.092-.438-.23-.688-.157l-.25.063c-.02.195-.087.356-.156.375-.07.019-.32.132-.406.188l-.094.03-.188.063c-.281-.031-.417-.135-.28-.218.134-.084.105-.2-.22-.063l-.312.063c-.176.027-.322.089-.5.062l-.156-.031c-.138.007-.153-.029-.063-.094.09-.066.26-.274.219-.281-.04-.008-.327.072-.563.125l-.25-.063-.343-.062c.093-.228-.153-.424-.531-.438l-.22.032c-.193.027-.403.032-.593.062-.18.027-.345.096-.531.094-.21-.002-.493-.068-.625-.25-.092-.129-.125-.134 0-.25l.062-.063c.225-.097.432-.152.438-.125l.094-.125.218-.093c.26-.056.495-.099.531-.094.036.004.253-.073.407-.188l.187-.093c.191-.108.296.003.469 0 .184-.005.4-.363.563-.126l.156.188c.058.005.178-.007.281-.031l.094.031h.094c.057.062.295.034.53-.063.237-.095.542.105.657-.093.116-.198.52-.137.656-.313zm17.907 1.657c.196.229.456.38.593.343l.157.094c.195.092.15.137.312-.031.132-.14.142-.278.344-.344l.125-.031a.492.492 0 0 1 .281.125c.044.052.06.034.188-.063.127-.097.317.182.312.25-.004.068 0 .316.094.438h.187l.282.031c.151.094.315.202.343.25a.699.699 0 0 0 .282.188c.083.016-.1.134-.594.218l-.313.032c-.284.052-.669.211-.937.124-.197-.063-.45-.434-.657-.406-.055.008-.247.259-.25.313v.125c.043.075-.064.101-.218.062l-.157-.031h-.156c-.203.005-.255.038-.093.063.159.024.001.286-.532.406l-.343-.032-.282-.03c-.355-.082-.593-.195-.531-.25.062-.057-.16-.1-.594 0l-.375-.063c-.39-.065-.757-.063-1.156-.063l.281-.093c.284-.092.566-.217.657-.282.09-.064.504-.07.656.063l.156-.032c.278-.05.19-.166.344-.312.125-.118.287-.14.406-.281l.125-.125c.132-.145.23-.241.25-.219.023.022.192-.05.344-.219l.156-.062.313-.157z" fill="#231f20"/></svg>