<svg xmlns="http://www.w3.org/2000/svg" width="64" height="64"><path d="M33.469 1.063c-.085.32-.216.603-.344.906.136.005.27-.007.406 0a5.975 5.975 0 0 1-.062-.907zm.062.906c.342 2.462 1.83 5.264-.187 7.062-.062-1.567.235-3.704-.688-5-.062-.789.204-1.436.469-2.062-.378-.014-.744-.032-1.125-.032-.17 0-.331-.002-.5 0-.571 3.406 1.759 5.878.594 9.376-.14.355-.219.464-.563.937-.093-1.359.18-2.871-.25-4.063l-.343.626c-1.546-1.98-.138-4.778.53-6.876-7.316.125-14.01 2.774-19.218 7.125.954 1.13-.009 3.848.5 4.813l.469-1.406c.874 2.738-.11 4.919-.344 7.656-.664-.856-1.099-1.558-1.406-2.938-.623-2.784.792-5.463.656-8.03-6.6 5.57-10.781 13.862-10.781 23.124 0 16.773 13.722 30.375 30.656 30.375 16.934 0 30.656-13.602 30.656-30.375 0-16.26-12.91-29.514-29.125-30.312zM12.125 9.156c.04-.033.086-.06.125-.094a1.278 1.278 0 0 0-.125-.124c.006.071-.004.146 0 .218zm19.344-7.219h.031l.031-.156c-.015.05-.046.106-.062.157zm5.093 2.157c.031 2.717 2.418 3.986.594 7.25 0 0-.304-2.384-.781-2.969l-.25 1.094c-.892-.627-.748-1.726-.594-2.875.2-.9.478-2.02 1.032-2.5zM28.97 7.125c.045 1.173.085 2.538.468 3.563.078-.168.39-.75.344-1l.125.53c.308 1.82.017 3.862-.906 4.845-1.875-2.195-.031-7.938-.031-7.938zm12.25 2.688c.461.92.349 2.382.687 3.468l.594-.625c-.123 1.547.37 3.999-.813 4.375-1.875-1.798-.33-4.814-.468-7.218zm-3.125 2.312c-.062 1.086.038 2.111.437 2.969.123-.189.532-.614.532-.906 0 0 .491 2.806.906 4.5.133.743-.348 1.406-.625 1.406l-1.094-2.188c-.492.544-.506 1.582-.813.969-1.614-2.705.657-6.75.657-6.75zm11.5.469c-.523 2.424 1.503 4.043.781 6.594-.17.94-.553 1.935-.906 2.625-.108-1.212.286-3.09-.344-4.22l-.344 1.095c-1.044-2.975.813-6.094.813-6.094zm-25.344.469c.322.898.04 2.69.438 3.75 2.081 5.237.25 5.968.25 5.968.082-.876-.896-2.557-1.157-3.937l-.343.812c-1.368-2.362.673-4.316.812-6.593zm-4.938.062c.662.835.638 2.496.438 3.75-1.091 1.024-.796 3.037-.688 4.563-.692-1.212-1.428-3.356-.906-4.688.43-1.253 1.618-1.807 1.157-3.625zm16.344 2.594c-.645 2.278 1.748 3.201.688 5.312-.461.126-.86-.56-.907-1.062-.092-1.338-.396-3.267.22-4.25zm-2.062.312c-.292 2.633 1.487 4.512.687 7.375-.385 1.38-1.013 2.893-1.843 3.75-.292-2.738-1.436-5.731-.344-8.468l.562 1.406c.66-1.003.615-2.683.938-4.063zm-24.907.844c.805.7 1.093 1.818 1 3.156-.395 3.625-1.068 4.473-1.624 1.625-.3-2.203 1.31-2.36.624-4.781zm20.97.25c-1.077 2.466 1.528 3.918.468 6.594-.154.585-.49 1.207-.813 1.562.2-1.442.176-3.579-.562-4.875.016-1.254.26-2.653.906-3.281zm-8.75.469c-.877 3.115 2.465 4.426 1.374 7.687-.292 1.254-1.593 3.469-1.593 3.469.199-2.07 1.221-4.839-.47-6.281-.481-3.776.688-4.875.688-4.875zm36.656.75c.354 1.568 1.612 5.192-.063 5.281-.407-1.137-.907-3.548.063-5.281zm-15.376.187l.47 2.344c.66 1.17.575 2.557.374 4-.108.822-.368 1.99-.625 2.594-.369-.961.33-3.383-.562-4.407-.216.313-.206.76-.344 1.094-1.184-1.84.027-3.974.688-5.625zM17.72 21.125c.23 2.028 1.634 4.514.312 6.625-.546-.058-.98-1.402-.968-2.094 0-1.568.656-4.531.656-4.531zm36.875.063c1.479 3.664 1.74 7.035.156 9.062l-.375-.625c-.43 1.192-.127 2.704-.219 4.063-.345-.474-.424-.583-.562-.938-1.185-3.553 1.84-7.647 1-11.563zm-40.75.343c-.569 2.864 1.603 5.315.344 7.969-.324-1.212-.234-2.923-1.157-3.906-.26-1.651.382-2.808.813-4.063zm14.312.125c-.43 2.717 1.426 5.462-.218 7.532-1.983-2.111-.212-5.212.218-7.532zm11.532.188c-.862 3.679 2.45 6.187.374 9.406-.384-.94.299-2.955-.593-3.938-.43.356-.427 1.006-.407 1.438-.46.125-.755-.539-.78-.969-.218-4.474 1.406-5.937 1.406-5.937zm-15.907.312s2.687 5.02 2.719 9.282c.006 1.668.004 3.03-.656 3.406-.062-.313-.333-.698-.563-.782-.461 1.61.272 2.902.688 4.22-.692-.502-1.427-1.35-1.719-2.5-1.061-2.968 1.713-6.16-.563-8.626-.445.397-.36 1.53-.437 1.907-.156-.291-.213-.554-.25-1.125-.215-2.195 1.153-2.922.781-5.782zm28.188.75c.262.982.904 1.799.812 2.969-.922 1.296-.626 3.432-.687 5-2.275-2.028-.094-5.314-.125-7.969zm-15.719.188c.492 2.863-1.082 6.085.563 8.468.326.509.38 2.31-.22 2.813.017.67.105 1.29-.187 1.75l-.625-.813-.093.657c-.261 1.568-.617 3.144-2 3.375.578-1.802 1.533-4.81 1.656-5.75.738-4.515-1.91-6.645.687-10.094l.219-.406zm-24.469.468c-.338 3.741 2.734 6.55.813 10.188.076-1.651-.03-3.83-.813-5.313L11.47 29.5c-1.138-1.755.312-5.938.312-5.938zm33.813 1.563c.108 2.09 1.069 3.91 1.468 5.938L48 28.75c.113.425-.072 1.345.219 2.188.583 1.835.613 4.067-.094 5.78-.384-1.044-.412-2.32-.813-3.5l-.25-.687c-.368 1.422-.27 1.204-.562 2.688-.099.447-.486 1.804-.688 2.281-.122-2.195.288-4.45-.343-6.563-.579.882-.755 1.83-1.032 2.813-.51-.975-.398-1.79-.937-2.5-.46.815-.61 2.11-.688 3.281-1.475-2.467.202-5.087 1.032-7.218l.593 1.75c.63-1.17.972-2.517 1.157-3.938zm-41.469.813s2.673 3.515.625 6.718c-.307.614-.695-.176-1.188-.718l-.718 1.968c-.277 0-1.063-.373-.781-1.593.414-1.693.53-4.438.53-4.438.556.882 1.034 1.531 1.157 1.719.195-.99.232-2.581.375-3.657zm29.938.906c-.031.899-.331 2.257-.532 3.218-.397 1.826.904 4.713-.156 6.657-.03-1.003-.058-2.59-.781-3.407l-.157 1.22c-.783-.858-.883-2.466-.468-3.594.461-1.485 1.402-2.714 2.093-4.094zm22.656 1.25s1.844 5.775-.032 7.968c-.921-.982-1.244-3.056-.937-4.874l.125-.532c-.047.251.266.833.344 1 .384-1.023.455-2.39.5-3.562zm-46.532.156c.123.983-.207 3.226.438 4.25.277-.167.2-.442.375-.938.66 1.568-.344 5.157-.344 5.157-1.184-2.425-1.192-5.71-.469-8.469zM17 29.813c0 2.758 2.041 6.146.719 8.843-.37-.585-.12-1.78-.782-2.343-.415.208.037 1.292-.593.937-1.766-3.726.656-7.438.656-7.438zm-10.625 1c.615.982.311 2.911.219 4.25-.047.5-.445 1.219-.907 1.093-1.06-2.11 1.334-3.065.688-5.343zm21.469.375c1.387 1.431.122 3.309.937 4.375l.563-1.376c2.465 3.932-.938 6.22-.938 6.22.306-1.261.553-2.592-.031-3.532-.2.188-.068.635-.344.781-1.045-1.714-.043-4.217-.187-6.468zm-5.907.062c.293 1.129.353 2.372.813 3.438l.344-.626c.6 1.025.31 3.028.218 4.407-1.49-1.526-1.697-4.586-1.375-7.219zm15.813 2.813c.231 1.254.47 2.411.563 3.75l.906-1.72c-.43 4.076 2.304 7.663.843 12.094-.261.754-.413 1.687-.843 2.188.031-1.421.432-3.265.125-4.875-.46-.898-.45-2.06-1.157-2.813-.215.627-.205 1.363-.343 2.032-.662-.043-.905-.695-1.094-1.563-.722-3.407 1.047-5.874 1-9.093zm-17.344.624s2.987 6.637 1.125 9.97c-.391.626-1.287 1.436-1.687 1.874.369-3.448-1.589-5.613-.344-9.187l.563 1.437.343-4.093zm29.25.376c.737 2.319.913 4.971.844 7.593-.056.783-.227 1.345-.75 1.032.062 1.818.456 4.61-.344 6.28h-.218c-.123-1.17.287-3.027-.344-4.093-.37.355-.189 1.019-.25 1.563-.492 0-.643-.77-.782-1.25-.414-2.572.08-5.025 1.032-7.032l.343.469c.538-1.275.47-3.162.47-4.563zm4.188 1.25s2.115 6.013.5 8.718c-.307.613-.32-.394-.813-.937l-1.093 2.187c-.277 0-.759-.662-.626-1.406.416-1.693 1.063-6.469 1.063-6.469 0 .293.408.687.531.875.4-.856.5-1.881.438-2.968zM9 37.313c.725 1.616.921 2.956.906 4.062l.594-1.406c.46 3.81-.051 4.261-.344 7-.83-.858-.927-1.121-1.312-2.5-.799-2.864.419-4.186.156-7.157zm5.344.843c-.603 2.925 2.177 5.932.594 7.5-3.335.079-.594-7.5-.594-7.5zm28.406.875s2.788 3.669.75 9.344c-2.536-1.944-.396-6.584-.75-9.344zm-12.5.688c-.722 3.49 1.382 5.771.813 8.781-.153.397-.442.313-.688.313.016-1.109.008-2.206-.469-3l-.468.937c-1.522-2.276.812-7.031.812-7.031zm-24.375.25c.646.626.922 2.027.938 3.281-.739 1.297-.763 3.432-.563 4.875-.323-.355-.659-1.009-.813-1.594-1.06-2.675 1.514-4.096.438-6.562zm50.969.281c1.804 2.346.436 4.85.343 6.188-.046.502-.65 1.572-1.187 1.124-1.06-2.11 1.49-5.033.844-7.312zm-21.532 2.906c.031 1.924 1.684 5.65.532 7.594-.376.509-.395-1.489-.625-1.719-.631-.626-.794-2.298-.594-3.218.4-.774.626-1.675.688-2.657zm-9.437.625c-.27 2.773 1.577 7.35.563 11.469-.293-1.171-.294-2.497-1.032-3.438-.23.503-.04 1.689-.593 1.563-1.048-6.185 1.062-9.594 1.062-9.594zm-8.438.094c.323 2.006 1.021 6.964-.562 8.406-.615-1.003-.774-4.037-.344-5.437l.907-2.969zm28.125 2.656c1.414 2.759.221 6.271.344 9.407-1.475-1.255.01-3.839-1.281-5.344-.139-1.589.677-2.684.938-4.063zm-5.062 3.75c.938 2.76.719 6.169-.219 8.782-1.275-1.672-.98-4.284-.687-6.563.369.042.009.969.562.781.462-.794.052-2.08.344-3zm-11.438.625c-.369 1.756.4 2.923 1.032 4.344.406-.39.81-.748.718-1.375 0 0 1.794 4.68.594 7.063-.154.313-.393.301-.593.468-.2-.857.443-1.955-.094-2.812-.415.586-.62 1.478-1.282 1.562.062-1.212.004-2.767-.687-3.75l-.469.75c-.599-1.798-.595-5.04.782-6.25z" fill="#231f20"/></svg>