<svg xmlns="http://www.w3.org/2000/svg" width="64pt" height="64pt" viewBox="0 0 64 64"><path d="M31.793 0C14.234 0 0 14.234 0 31.793 0 49.355 14.234 63.59 31.793 63.59c17.562 0 31.797-14.235 31.797-31.797C63.59 14.234 49.355 0 31.793 0zm-9.336 8.266c.281.004.465.027.465.027l.672.45c.457-.028 1.402.109 2.511.62 1.106.512.54.864.54.864-.165.43-1.38.593-1.895.593-.27 0-.563-.078-.836.024a8.295 8.295 0 0 1-1.027.332c-.239.05-.184-.059-.184-.059l.156-.433c-1.011.218-1.504.21-2.773-.32-2.207-.93-2.543.378-2.543.378l-.133-.027c.055-1.242-.863-1.703-.863-1.703l.027-.137c.434.215 1.485.617 2.133.559.652-.051 1.29-.309 2.781-.68.13-.133-.086-.402-.086-.402a5.94 5.94 0 0 1 1.055-.082zm-4.836 3.91c.707.039 1.18.215 1.18.215l.91.734c.852-.05 2.61.195 4.664 1.152 2.055.953 1 1.606 1 1.606-.3.8-2.559 1.105-3.512 1.105-.5 0-1.05-.152-1.55.047-.504.2-1.454.5-1.907.602-.453.101-.351-.098-.351-.098l.297-.805c-1.872.309-3.22.082-5.168-.601-3.137-1.106-4.711.703-4.711.703l-.25-.05c.097-2.306-1.61-3.161-1.61-3.161l.055-.25c.8.398 2.836 1.594 4.043 1.492 1.2-.097 5.094-1.773 5.094-1.773.254-.25-.149-.754-.149-.754.32-.09.492-.09 1.18-.152a4.85 4.85 0 0 1 .785-.012zm32.203 2.422c.29-.02.414.004.414.004l.895.558c.543-.027 1.656.13 2.957.73 1.297.606.633 1.016.633 1.016-.192.508-1.618.7-2.223.7-.32 0-.664-.094-.984.03a9.339 9.339 0 0 1-1.203.38c-.29.066-.223-.059-.223-.059l.187-.508c-1.62-.73-3.27-.383-3.27-.383-1.78-1.203-2.984.442-2.984.442l-.156-.028c.059-1.46-1.023-2-1.023-2l.035-.16c.508.258 1.523.575 2.285.508.762-.062 3.336-.476 3.336-.476.16-.16-.094-.477-.094-.477a8.487 8.487 0 0 1 1.418-.277zm-15.261.023c.28.004.39.05.39.05l.86.548c.542-.031 1.652.129 2.953.734 1.3.602.632 1.016.632 1.016-.187.508-1.613.695-2.218.695-.32 0-.668-.098-.985.031-.316.13-.922.317-1.207.387-.285.059-.226-.07-.226-.07l.199-.508c-1.625-.73-3.273-.375-3.273-.375-1.782-1.211-2.985.441-2.985.441l-.16-.03c.062-1.462-1.016-2.005-1.016-2.005l.028-.16c.511.258 1.527.574 2.289.512.761-.063 3.39-.563 3.39-.563.16-.16-.097-.476-.097-.476.687-.192 1.144-.235 1.425-.227zM9.172 18.652c.262.035.36.106.36.106l.511.406c.457-.031 1.402.106 2.508.617 1.101.512.539.864.539.864-.16.43-1.375.593-1.887.593-.27 0-.566-.082-.836.024a8.642 8.642 0 0 1-1.023.324c-.246.05-.188-.055-.188-.055l.16-.43c-1.375-.62-2.773-.32-2.773-.32-1.512-1.027-2.531.375-2.531.375l-.137-.027c.05-1.242-.863-1.7-.863-1.7l.023-.128c.434.21 1.297.48 1.945.426.645-.051 2.872-.493 2.872-.493.136-.136-.079-.402-.079-.402.688-.191 1.13-.207 1.399-.18zm14.883.457c.437.016.633.102.633.102l1 .687c.71-.039 2.171.168 3.886.965 1.715.793.84 1.336.84 1.336-.25.668-2.133.918-2.926.918-.422 0-.883-.12-1.297.043-.52.203-1.05.367-1.59.5-.374.086-.288-.082-.288-.082l.246-.664c-2.13-.965-4.301-.508-4.301-.508-2.34-1.586-3.934.59-3.934.59l-.207-.043c.086-1.922-1.336-2.633-1.336-2.633l.04-.21c.667.335 2.007.753 3.011.667 1.004-.086 4.266-.746 4.266-.746.21-.207-.121-.625-.121-.625.968-.27 1.64-.316 2.078-.297zm18.84.028c.363.011.476.086.476.086l.957.675c.707-.039 2.176.168 3.887.965 1.715.793.836 1.336.836 1.336-.254.668-2.133.918-2.93.918-.422 0-.875-.12-1.293.043a13.58 13.58 0 0 1-1.586.5c-.379.086-.293-.082-.293-.082l.246-.664c-2.129-.965-4.304-.508-4.304-.508-2.34-1.586-3.926.59-3.926.59l-.211-.043c.082-1.922-1.336-2.633-1.336-2.633l.039-.21c.668.335 2.008.753 3.008.667 1.004-.086 4.594-.687 4.594-.687.21-.211-.125-.625-.125-.625.988-.274 1.597-.336 1.96-.328zm12.937.652c.234.004.344.043.344.043l.601.395c.399-.024 1.207.093 2.164.535.95.441.465.746.465.746-.14.367-1.183.512-1.625.512-.238 0-.488-.075-.722.02-.23.093-.676.233-.883.28-.211.043-.168-.043-.168-.043l.14-.379c-1.183-.53-2.394-.28-2.394-.28-1.3-.88-2.184.327-2.184.327l-.117-.02c.047-1.07-.742-1.468-.742-1.468l.023-.113c.371.183 1.114.418 1.672.37.559-.046 2.387-.41 2.387-.41.113-.116-.074-.347-.074-.347.52-.14.879-.172 1.113-.168zm-42.996 3.23c.309.036.414.118.414.118l.61.472c.538-.027 1.648.13 2.953.735 1.3.601.636 1.011.636 1.011-.195.512-1.62.7-2.226.7-.32 0-.668-.094-.985.035-.316.125-.922.316-1.207.379-.281.066-.219-.063-.219-.063l.188-.508c-1.617-.73-3.27-.382-3.27-.382-1.777-1.203-2.984.445-2.984.445l-.16-.031c.066-1.461-1.012-2.004-1.012-2.004l.031-.156c.508.253 1.524.574 2.282.507.765-.062 3.418-.562 3.418-.562.16-.156-.09-.477-.09-.477.808-.226 1.316-.25 1.62-.218zm40.457 1.192c.289-.012.398.023.398.023l.801.536c.54-.036 1.649.125 2.953.73 1.301.602.637 1.016.637 1.016-.195.507-1.625.699-2.227.699-.32 0-.667-.094-.984.031-.32.129-.922.313-1.207.383-.285.058-.223-.067-.223-.067l.192-.507c-1.617-.73-3.27-.38-3.27-.38-1.777-1.206-2.988.446-2.988.446l-.156-.035c.066-1.461-1.016-1.996-1.016-1.996l.031-.16c.508.254 1.524.57 2.29.508.757-.067 3.394-.477 3.394-.477.156-.156-.094-.477-.094-.477.715-.199 1.184-.261 1.469-.273zm-17.211.746c.492-.012.746.04.746.04l1.016.69c.71-.039 2.172.168 3.886.965 1.715.793.836 1.332.836 1.332-.25.672-2.129.922-2.925.922-.422 0-.88-.125-1.297.04-.414.167-1.207.421-1.586.503-.375.086-.297-.082-.297-.082l.254-.668c-2.133-.96-4.309-.504-4.309-.504-2.34-1.586-3.926.586-3.926.586l-.207-.039c.082-1.922-1.34-2.637-1.34-2.637l.044-.207c.668.332 2.003.754 3.007.668 1.004-.086 4.04-.628 4.04-.628.21-.208-.126-.625-.126-.625.961-.266 1.692-.344 2.184-.356zm-14.324 2.711c.484.008.812.055.812.055l.805.625c.71-.04 2.176.172 3.887.968 1.715.793.836 1.332.836 1.332-.25.668-2.133.918-2.926.918-.422 0-.883-.125-1.297.043-.418.168-1.504.883-1.879.965-.379.086 0-.543 0-.543l.25-.672c-1.484.13-1.484-.058-4.305-.496-2.824-.445-3.93.578-3.93.578l-.21-.039c.086-1.922-1.336-2.636-1.336-2.636l.043-.203c.668.332 2.637 1.437 3.64 1.355 1.004-.082 3.965-1.438 3.965-1.438.207-.207-.129-.625-.129-.625a6.95 6.95 0 0 1 1.774-.187zm35.719 2.156c.312.024.433.102.433.102l.746.52c.543-.036 1.653.124 2.953.722 1.305.605.637 1.02.637 1.02-.191.507-1.621.695-2.223.695-.32 0-.668-.09-.984.039-.394.148-.797.273-1.207.375-.285.066-.219-.063-.219-.063l.188-.511c-1.617-.723-3.27-.375-3.27-.375-1.777-1.207-2.984.445-2.984.445l-.16-.031c.062-1.461-1.02-2-1.02-2l.035-.16c.508.25 1.524.566 2.285.503.762-.058 3.34-.597 3.34-.597.16-.16-.097-.477-.097-.477.742-.203 1.238-.226 1.547-.203zm-13.711.172c.3-.02.437 0 .437 0l.914.563c.54-.036 1.649.125 2.953.73 1.301.602.633 1.016.633 1.016-.191.508-1.621.699-2.226.699-.317 0-.664-.094-.98.031-.321.125-.923.313-1.208.38-.281.062-.223-.063-.223-.063l.192-.508c-1.621-.727-3.274-.383-3.274-.383-1.773-1.207-2.984.45-2.984.45l-.156-.036c.066-1.46-1.016-1.996-1.016-1.996l.031-.16c.504.25 1.528.57 2.29.508.757-.067 3.269-.477 3.269-.477.164-.16-.094-.477-.094-.477.668-.183 1.137-.253 1.442-.277zm-37 .227c.199-.008.285.02.285.02l.738.413c.387-.023 1.191.094 2.129.528.937.433.457.73.457.73-.133.371-1.164.504-1.602.504-.23 0-.48-.066-.71.027-.286.106-.575.2-.872.27-.203.05-.16-.043-.16-.043l.14-.363C6 31.777 4.813 32.03 4.813 32.03c-1.28-.87-2.156.324-2.156.324l-.113-.027c.047-1.055-.73-1.441-.73-1.441l.019-.114c.367.184 1.102.415 1.648.368.551-.047 2.395-.403 2.395-.403.113-.117-.07-.343-.07-.343a4.28 4.28 0 0 1 .96-.172zm26.242 2.695c.375.004.5.074.5.074l.98.684c.707-.043 2.172.168 3.887.965 1.715.793.836 1.332.836 1.332-.254.672-2.133.922-2.926.922-.418 0-.875-.13-1.297.039-.418.168-1.644.941-2.02 1.027-.374.082.141-.606.141-.606l.246-.667c-2.128-.961-4.3-.504-4.3-.504-2.344-1.59-3.93.582-3.93.582l-.21-.04c.085-1.921-1.337-2.636-1.337-2.636l.04-.207c.667.336 2.007.758 3.007.668 1.008-.078 4.535-.684 4.535-.684.215-.21-.12-.625-.12-.625.98-.273 1.597-.332 1.968-.324zm-17.785.559c.3-.008.601.003.898.03l.75.524c.54-.031 1.652.125 2.953.727 1.301.605.633 1.02.633 1.02-.187.507-1.617.695-2.223.695-.316 0-.668-.094-.984.035-.32.125-.918.316-1.207.379-.285.062-.223-.059-.223-.059l.192-.516c-1.621-.726-3.27-.378-3.27-.378-1.777-1.207-2.988.445-2.988.445l-.156-.031c.066-1.461-1.016-2-1.016-2l.031-.157c.504.246 1.528.567 2.29.504.761-.058 2.41-.476 2.41-.476.156-.157-.094-.477-.094-.477a8.087 8.087 0 0 1 2.004-.265zm35.394.89c.29-.012.406.024.406.024l.918.566c.543-.031 1.653.125 2.954.73 1.308.602.636 1.016.636 1.016-.191.508-1.617.7-2.222.7-.32 0-.668-.098-.985.03-.316.126-.922.32-1.207.38-.285.062-.219-.06-.219-.06l.188-.51c-1.617-.731-3.27-.38-3.27-.38-1.777-1.207-2.984.442-2.984.442l-.16-.028c.062-1.465-1.016-2.004-1.016-2.004l.032-.16c.507.254 1.523.575 2.285.508.761-.059 3.34-.531 3.34-.531.16-.16-.098-.485-.098-.485.664-.18 1.117-.23 1.402-.238zM8.723 38.063c.289.019.386.09.386.09l.7.503c.539-.031 1.652.13 2.957.735 1.3.601.632 1.015.632 1.015-.191.508-1.62.7-2.222.7-.324 0-.668-.098-.989.03-.316.13-.917.313-1.199.384-.289.058-.226-.067-.226-.067l.191-.508c-1.621-.73-3.273-.379-3.273-.379-1.778-1.207-2.985.442-2.985.442l-.156-.031c.063-1.461-1.016-2.004-1.016-2.004l.032-.157c.504.254 1.523.57 2.285.512.758-.066 3.45-.566 3.45-.566.16-.16-.099-.477-.099-.477.766-.207 1.243-.242 1.532-.222zm15.316.28c.375.028.504.114.504.114l.95.688c.714-.036 2.171.195 3.878 1.007 1.703.809.817 1.344.817 1.344-.254.668-2.137.895-2.938.887-.414-.008-.871-.137-1.293.027-.422.16-1.754 1.004-2.133 1.082-.375.082.246-.683.246-.683l.262-.664c-1.629-.051-2.277-.235-4.305-.555-2.023-.32-3.933.543-3.933.543l-.207-.047c.101-1.918-1.309-2.648-1.309-2.648l.047-.208c.664.34 2.367 1.368 3.371 1.293 1.004-.07 4.172-1.27 4.172-1.27.21-.206-.121-.628-.121-.628.992-.258 1.617-.305 1.992-.281zm17.523 1c.301.028.395.114.395.114l.61.477c.542-.036 1.656.125 2.953.726 1.304.606.636 1.02.636 1.02-.191.508-1.62.699-2.222.699-.32 0-.664-.094-.98.031-.321.125-.927.313-1.212.38-.285.062-.222-.063-.222-.063l.19-.508c-1.616-.73-3.269-.38-3.269-.38-1.777-1.21-2.984.446-2.984.446l-.16-.035c.062-1.46-1.016-1.996-1.016-1.996l.032-.16c.507.25 1.523.57 2.285.508.761-.067 3.445-.57 3.445-.57.16-.157-.09-.473-.09-.473.809-.223 1.309-.246 1.61-.215zM56 39.642c.406.004.664.05.664.05l.438.34c.39-.02 1.191.094 2.132.532.938.433.457.73.457.73-.136.367-1.168.5-1.601.5-.235 0-.48-.063-.715.027-.227.09-.664.227-.867.274-.207.047-.16-.047-.16-.047l.132-.363c-1.164-.532-2.355-.278-2.355-.278-1.285-.87-2.152.32-2.152.32l-.114-.019c.043-1.055-.734-1.445-.734-1.445l.02-.114c.37.18 1.097.41 1.652.364.547-.043 1.742-.34 1.742-.34.113-.117-.07-.344-.07-.344.5-.137 1.015-.2 1.535-.187zm-4.922 3.445c.414.008.586.086.586.086l1 .691c.711-.047 2.172.164 3.887.957 1.71.797.832 1.336.832 1.336-.246.672-2.13.922-2.922.922-.422 0-.879-.121-1.297.043-.418.168-1.215.418-1.59.504-.37.078-.293-.086-.293-.086l.25-.668c-1.703.117-2.531-.164-4.304-.5-1.77-.34-3.926.586-3.926.586l-.211-.047c.082-1.922-1.34-2.633-1.34-2.633l.04-.207c.67.332 2.702 1.246 3.702 1.16 1.008-.082 3.672-1.207 3.672-1.207.207-.21-.125-.625-.125-.625.969-.27 1.625-.324 2.04-.312zm-19.86 1.242c.317.008.415.07.415.07l.937.63c.64-.036 1.957.152 3.5.867 1.543.714.75 1.203.75 1.203-.226.601-1.918.828-2.629.828-.382 0-.793-.114-1.171.039-.375.148-1.09.375-1.426.45-.34.073-.262-.075-.262-.075l.223-.602c-1.918-.867-3.875-.449-3.875-.449-2.106-1.434-3.535.523-3.535.523l-.192-.035c.078-1.73-1.2-2.37-1.2-2.37l.036-.192c.602.305 1.805.68 2.707.605.906-.074 4.133-.656 4.133-.656.187-.184-.113-.562-.113-.562.855-.235 1.386-.282 1.703-.274zm-18.62.61c.21-.028.277.019.277.019l.602.316c.421-.093 1.324-.093 2.425.227 1.098.324.621.734.621.734-.093.422-1.203.743-1.675.809-.258.039-.54.004-.778.145a9.343 9.343 0 0 1-.91.445c-.219.082-.183-.024-.183-.024l.093-.425c-1.37-.391-2.633.078-2.633.078-1.55-.742-2.312.707-2.312.707l-.129-.008C7.875 46.8 6.957 46.5 6.957 46.5l.008-.129c.43.14 1.273.274 1.867.133.594-.14 2.738-.84 2.738-.84.11-.144-.133-.363-.133-.363.586-.262.946-.344 1.16-.364zm31.047 4.117c.488.02.66.125.66.125l.968.754c.848-.051 2.606.203 4.664 1.152 2.055.953 1 1.605 1 1.605-.3.801-2.554 1.102-3.507 1.102-.504 0-1.055-.148-1.555.055-.504.199-1.934 1.054-2.387 1.16-.449.101.125-.66.125-.66l.301-.801c-1.926.266-2.48.082-5.164-.606-2.684-.691-4.715.704-4.715.704l-.254-.051c.102-2.305-1.601-3.16-1.601-3.16l.05-.25c.801.402 2.743 1.425 3.946 1.324 1.203-.102 5.047-1.305 5.047-1.305.246-.25-.157-.754-.157-.754 1.282-.347 2.09-.414 2.579-.394zm0 0" fill="#211e1e"/></svg>