<svg xmlns="http://www.w3.org/2000/svg" width="80" height="80"><path d="M35.421 79.904c-11.294-1.5-22.012-7.598-28.425-17.16-9.211-13.02-9.357-31.753-.258-44.876C13.421 7.703 24.925 1.095 36.982.113c12.34-.959 25.028 4.24 33.129 13.663 9.96 11.155 12.733 28.093 6.778 41.84-5.877 14.281-20.65 24.432-36.098 24.32-1.788.055-3.585.125-5.37-.032zm11.561-5.841c2.375-4.84.773-10.51-.75-15.357-.836-2.284-4.612-9.85-5.937-4.13-.871 4.746-1.728 9.693-.143 14.39.517 2.58 4.047 10.1 6.83 5.097zm-13.863.39c3.396-2.811 4.832-7.522 5.165-11.797-.24-3.628 1.072-7.974-1.43-11.016-3.132 1.843-4.671 6.259-6.288 9.585-1.77 3.773-2.141 8.341-.862 12.319.455 1.574 2.223 1.867 3.415.908zm25.638-3.601c1.913-3.601-.202-8.012-2.246-11.144-2.647-3.594-5.595-7.495-9.83-9.22-2.65 1.959.536 7.068 1.064 10.074 1.997 4.245 4.622 8.881 9.18 10.677.628.143 1.295-.06 1.832-.387zM22.198 68.64c5.929-3.584 9.34-10.303 10.755-16.903.185-5.217-5.519.916-7.428 2.125-3.99 3.434-7.817 8.048-7.92 13.572.074 2.498 3.112 2.097 4.593 1.206zm46.354-6.647c2.316-3.777-2.473-7.36-5-9.62-4.06-2.76-8.722-5.306-13.758-5.208-.788 3.184 3.615 6.598 5.675 9.21 3.278 3.23 7.604 6.502 12.444 5.917l.64-.3zm-52.707-3.136c5.646-2.035 10.376-6.3 13.586-11.325.497-3.941-6.48-.466-8.783-.145-4.802 1.684-9.891 4.685-11.783 9.668-.473 3.858 4.929 2.441 6.98 1.802zm56.888-8.173c5.42-2.318-1.445-7.262-4.635-7.783-4.925-1.417-10.282-1.65-15.29-.6-2.817 2.676 3.999 4.87 5.94 6.146 4.323 2.12 9.2 3.5 13.985 2.237zm-30.108-.593c6.161-1.469 9.694-9.225 6.48-14.776-1.89-4.075-6.595-6.057-10.895-5.245-4.8.456-8.737 5.264-8.269 10.09-.742 6.49 6.74 11.746 12.684 9.93zM15.532 47.84c4.444-.885 9.097-2.35 12.365-5.64-.62-3.052-6.733-2.08-9.533-2.644-4.877-.293-10.405.609-13.756 4.485-.568 4.39 5.871 4.33 8.903 4.12a18.95 18.95 0 0 0 2.02-.321zm53.6-7.926c3.015-.696 9.418-4.158 4.646-7.029-6.205-2.257-13.099-.183-18.68 2.853-3.413.813-4.18 4.297-.102 4.161 4.6 1.141 9.529 1.052 14.136.015zm-43.788-1.691c4.098.225 3.127-3.381.013-4.168-4.71-3.168-10.297-5.557-16.083-4.848-4.648-.747-5.178 4.968-1.082 6.406 3.54 2.141 7.77 2.402 11.685 3.222 1.835-.065 3.655-.34 5.467-.612zm30.28-4.332c3.755-1.011 7.493-2.195 10.573-4.721 2.352-1.685 7.331-6.104 3.386-8.424-5.714-.82-10.803 3.107-14.776 6.781-1.924 1.567-7.377 7.739-1.616 6.818a22.297 22.297 0 0 0 2.433-.454zm-25.397-.84c.87-3.15-3.47-6.147-5.249-8.726-3.143-3.582-7.568-6.613-12.47-6.544-4.457 2.253 1.051 7.645 3.463 9.59a27.651 27.651 0 0 0 13.555 5.825l.701-.144zm19.929-3.436c5.5-3.577 10.913-8.712 12.164-15.456.57-5.75-6.578-2.36-8.344.429-3.535 3.914-6.073 8.888-6.93 14.103-.565 3.246 1.438 2.05 3.11.924zM34.48 28.95a36.159 36.159 0 0 0-3.11-11.344c-1.88-3.676-4.694-8.089-9.094-8.684-3.677 2.07-1.113 7.098.224 10.013 2.421 4.262 5.833 7.95 9.989 10.56.607.282 2.198.662 1.991-.545zm11.172-2.861c3.156-5.125 6.237-10.907 5.211-17.157.362-5.157-5.538-4.019-6.567-.125-3.066 5.082-2.597 11.294-2.396 16.986.253 3.64 2.455 3.029 3.752.296zm-6.465 1.478c1.533-5.722 2.224-12.035.328-17.749-.674-3.204-5.279-8.303-6.942-2.863-1.77 6.533.366 13.508 3.622 19.196.71.663 2.01 3.166 2.992 1.416z"/></svg>