<svg xmlns="http://www.w3.org/2000/svg" width="64pt" height="64pt" viewBox="0 0 64 64"><path d="M30.21 64.355c-6.202-.37-12.331-2.628-17.304-6.359-2.32-1.746-4.738-4.168-6.484-6.492C-.125 42.797-1.801 31.188 2.02 20.96a32.41 32.41 0 0 1 4.375-8.023c1.726-2.305 4.207-4.793 6.511-6.524C21.102.266 31.793-1.594 41.66 1.406a32.48 32.48 0 0 1 9.817 4.98c2.308 1.735 4.789 4.216 6.523 6.52 6.723 8.961 8.285 20.907 4.094 31.317-3.012 7.48-8.782 13.62-16.043 17.07a32.34 32.34 0 0 1-15.84 3.062zm1.84-6.082c.165-.16.223-.562.095-.644-.114-.074-.07-.145.113-.184.332-.07.597-.28.597-.476 0-.434-.347-.598-1.246-.602-.617-.004-.832.035-1.125.211-.273.168-.367.332-.273.504.074.137.434.34.734.414.14.031.168.059.114.117-.133.13-.09.492.082.66.12.13.226.16.453.16.234 0 .336-.03.457-.16zm-1.128-2.222a3.618 3.618 0 0 1 1.36.008c.503.109.648.093 1.062-.106.492-.238.8-.531 1.011-.945.387-.766.36-1.524-.07-2.106-.324-.445-.758-.574-1.07-.324-.352.274-.395.445-.383 1.555l.016 1.008-.203-.036c-.301-.058-.383-.164-.422-.546-.02-.196-.082-.41-.153-.5a.606.606 0 0 1-.117-.325.634.634 0 0 0-.094-.297c-.086-.117-.105-.109-.433.196-.426.394-.465.453-.418.668.047.258-.074 1.12-.168 1.18-.133.081-.598.062-.73-.04-.118-.086-.126-.164-.106-1.046.008-.551-.016-1.083-.055-1.262-.215-.906-1.09-.93-1.574-.035-.36.652-.215 1.562.34 2.136.32.328.738.618 1.172.801.355.149.422.149 1.035.02zm4.887-.469c.921-.316 1.554-.695 2.218-1.332.703-.676.903-.988.907-1.445.007-.586-.45-1.32-.895-1.434-.34-.086-.934.422-.934.8v.15l.172-.133c.188-.149.532-.176.653-.06.277.278-.242 1.692-.75 2.044a1.995 1.995 0 0 1-.422.203 9.192 9.192 0 0 0-.711.29c-.25.112-.645.269-.875.35-.36.122-.457.192-.7.505l-.285.355.489-.035c.3-.024.73-.121 1.133-.258zm-7.356-.094c-.176-.187-.328-.265-.61-.332a3.64 3.64 0 0 1-1.55-.789l-.707-.617c-.504-.426-.68-.984-.418-1.309.152-.183.289-.12.535.266.188.29.45.523.445.398-.007-.167-.191-.796-.285-.988-.242-.476-.695-.836-1.062-.836-.43 0-.969.778-.969 1.395 0 .457.195.781.855 1.418.481.468.715.636 1.239.902.949.48 1.703.715 2.383.727l.382.004zm-.73-.894c.148-.059.125-.27-.063-.739-.148-.363-.168-.476-.137-.875.047-.492.02-.55-.34-.734-.14-.07-.175-.059-.402.184-.324.351-.32.539.047 1.324.219.473.336.648.496.75.235.14.254.148.399.09zm7.89-.324a8.51 8.51 0 0 1 .645-.344c.562-.278.738-.442.707-.66-.02-.141-.04-.145-.445-.125l-.43.02-.078-.231c-.09-.282-.262-.383-.535-.325-.497.098-.512.122-.301.422.113.157.125.22.062.426-.086.328-.082.75.016.844.101.101.184.098.36-.027zm-3.62-1.711c.077-.07.277-.157.437-.188.164-.031.402-.133.539-.219.332-.23.906-.386 2.078-.582 1.125-.187 1.285-.234 1.285-.41 0-.18-.121-.2-.586-.105-.676.144-2.547.406-3.441.488-1.211.11-2.446 0-4.434-.395-1.101-.218-1.195-.222-1.246-.09-.063.16.05.223.594.344.281.067.605.168.722.23.122.06.442.15.711.2.274.055.625.137.785.184.16.05.43.109.606.129.219.027.406.105.637.273.492.367 1.015.422 1.312.14zm1.91-2.172c.027-.192.03-.367.015-.383-.016-.016-.156.008-.305.05-.203.063-.89.087-2.547.094-1.25.004-2.289.032-2.308.051-.024.024-.024.16 0 .305l.047.262 2.523-.016 2.52-.016zm2.144.043c.039-.035.48-2.098.48-2.23 0-.079-.043-.141-.086-.141s-.164-.086-.261-.184l-.176-.184.129-.476c.07-.262.144-.637.168-.832.023-.196.097-.602.164-.903.117-.566.222-1.132.32-1.703l.2-1.156-.227-.223c-.168-.168-.235-.203-.254-.132-.04.109-1.332 8.242-1.332 8.351 0 .051.125.04.43-.047a5.62 5.62 0 0 0 .445-.14zm-8.438.027a422.42 422.42 0 0 1-.879-4.848c-.464-2.601-.867-4.78-.89-4.84-.035-.085-.25-.019-1.402.41l-1.364.508.094.301c.05.168.348 1.328.66 2.582.313 1.254.602 2.309.637 2.344.101.102.27.004.27-.16 0-.082-.235-1.09-.516-2.23-.285-1.145-.516-2.122-.516-2.172 0-.141.235-.11.387.05.254.274.512.801.594 1.211.09.45.207.555.308.282.063-.153.082-.165.164-.086.074.082.16.37.332 1.16.024.101.043.125.067.066.058-.16.672 1.953.758 2.617.035.282.019.38-.09.559-.176.277-.172.336.027.574.152.18.16.203.063.258-.075.039-.168.035-.27-.008-.215-.097-.215-.097-.215.121 0 .278-.156.313-.402.09-.11-.101-.184-.144-.164-.09.02.051.082.258.14.461.098.34.125.375.344.434.137.039.578.168.984.289.872.265.922.273.88.117zm9.633-.395c.047-.046 2.45-8.265 2.426-8.289-.04-.03-2.906-1.058-2.918-1.046-.012.011-.05.23-.09.496-.062.402-.055.496.024.625.136.207.777.601.968.601.414 0 .457.188.164.746l-.195.364.14.496c.071.27.13.629.126.789-.012.254.008.3.12.336.161.039.153.078-.14 1.008-.105.34-.289.992-.406 1.453-.117.46-.262.96-.313 1.117-.082.219-.238 1.125-.238 1.383 0 .058.262-.004.332-.078zm-7.996-.3c0-.059-.086-.473-.191-.918-.211-.903-.285-1.422-.395-2.719-.07-.875-.324-2.492-.605-3.863-.075-.367-.14-.735-.188-1.11-.058-.52-.086-.57-.34-.57-.18 0-.218.027-.218.145 0 .132 1.253 8.586 1.328 8.96.035.16.066.176.32.176.223 0 .29-.023.29-.101zm4.77-.23c0-.067 1.078-8.391 1.132-8.704l.036-.246h-3.52c-3.305 0-3.516.012-3.516.117 0 .188.086.25.391.297.426.063 1.195.535 1.535.938.156.183.48.464.723.617.324.21.476.355.578.562.191.371.363.547.719.73.25.13.332.22.472.512.172.36.332.489.715.575.258.058.469.285.54.586.074.316-.028 1.586-.16 1.996-.052.175-.118.636-.138 1.023-.02.39-.078.82-.128.961-.036.09-.063.18-.09.27 0 .011.156-.032.351-.082.196-.055.36-.121.36-.153zm6.636-8.403c.782-.234 1.352-.7 1.645-1.34.156-.332.172-.437.144-.875-.023-.36-.078-.59-.21-.871-.325-.676-.758-1.023-3.262-2.613-1.254-.797-2.86-1.817-3.567-2.274-.707-.449-1.351-.824-1.433-.824-.16 0-.266.246-.168.406.144.258 2.222 1.84 3.566 2.723.528.344 1.067.668 1.617.969.934.492 1.207.742 1.512 1.351.266.543.36 1.063.285 1.543-.074.442-.133.555-.547 1.031-.55.653-.53.59-.25.735.301.16.25.16.668.039zm-17.851-.29c.14-.073.254-.151.254-.171 0-.023-.172-.238-.383-.477-.496-.558-.64-.875-.649-1.414l-.003-.418-.141.293a2.3 2.3 0 0 0-.16.625c-.028.29 0 .387.176.7.109.199.187.378.168.394-.063.066-.516-.293-.684-.539-.14-.215-.16-.312-.18-.992-.027-.89.008-.977.582-1.606.7-.761 1.2-1.062 2.559-1.53.723-.255 1.14-.5 2.355-1.415 1.016-.758 1.778-1.402 1.922-1.621.211-.332.106-.531-.222-.402-.094.03-1.684 1.043-3.54 2.238-2.304 1.488-3.484 2.289-3.718 2.527-1.145 1.14-.992 2.805.316 3.516.262.14.879.383 1.074.418.008.004.137-.05.274-.125zm1.535-.593c.137-.133.082-.297-.152-.437a1.074 1.074 0 0 1-.547-.977c0-.309-.02-.383-.133-.445-.317-.168-.484.328-.305.918.086.285.438.722.727.902.226.137.304.145.41.04zm14.914-.238c.328-.367.465-.781.398-1.196-.054-.304-.128-.421-.289-.421-.175 0-.218.125-.203.539.024.398-.082.64-.402.945-.25.23-.219.45.066.45.09 0 .246-.118.43-.317zm-11.941-.297c.195-.023.398-.05.449-.07.176-.055-.145-.196-.528-.235a1.601 1.601 0 0 1-1.144-.64c-.25-.34-.242-.5.031-.946.121-.199.238-.449.266-.554.05-.203.351-.61.754-1 .242-.243.726-.504.793-.434.02.023-.133.285-.344.574-.516.715-.61.914-.645 1.375-.023.324-.007.414.102.547.11.133.152.149.246.09.09-.055.121-.16.125-.418 0-.191.031-.418.059-.508.086-.277 1.41-2.074 2.265-3.078.446-.523.864-1.039.934-1.144.234-.375.105-.649-.227-.473-.086.047-.906.742-1.824 1.543-.918.797-2.05 1.777-2.516 2.176-.746.636-.878.777-1.058 1.14-.41.836-.238 1.508.476 1.86.415.203.829.293 1.172.261zm9.816-.094c.582-.219.941-.746.867-1.285a2.248 2.248 0 0 0-.18-.555c-.132-.3-.144-.308-.19-.156-.138.484-.68 1.156-.845 1.055-.148-.09-.183-.344-.082-.64.09-.255.094-.356.032-.65-.102-.449-.32-.702-.727-.843-.469-.168-1.04-.758-1.402-1.441-.239-.461-.407-.668-1.094-1.34-.8-.785-1.293-1.153-1.422-1.07-.035.019-.07.12-.07.222 0 .219.039.258 1.925 2.508.793.933 1.497 1.816 1.575 1.965.11.207.136.375.136.777 0 .598-.136.984-.464 1.293l-.207.195.503.07c.641.102 1.188.067 1.645-.105zm-7.813-.324c.06-.113.04-.16-.12-.309a1.799 1.799 0 0 1-.258-.312c-.094-.172-.098-.598-.012-.82.031-.09.601-.938 1.265-1.883 1.247-1.778 1.301-1.89.946-1.95-.164-.019-.207.036-1.567 1.989-1.226 1.746-1.336 2.012-1.152 2.672.086.3.496.742.691.742a.264.264 0 0 0 .207-.129zm2.395-.008c.43-.094.586-.222.55-.437-.07-.383-.585-2.188-.706-2.473-.246-.57-.305-.535-.711.492-.723 1.82-.735 2.29-.067 2.395.133.023.286.05.34.062.188.04.25.035.594-.039zm2.52-.316c.125-.239.113-.68-.036-1.188-.082-.285-1.75-2.73-1.906-2.785-.133-.055-.305.074-.297.215 0 .066.383.656.84 1.316.848 1.203.992 1.493.992 2.02 0 .125-.027.242-.066.262a.55.55 0 0 0-.129.168c-.055.093-.035.148.07.253.121.125.149.13.274.047.105-.086.195-.191.258-.308zm-2.696-7.157c-.02-.027-.207-.113-.418-.19-.668-.247-.789-.575-.207-.575.25 0 .399-.055.746-.266.407-.242.453-.254.63-.18.14.055.187.114.163.2-.05.187.223.535.442.554.285.028.441-.117.441-.41 0-.199-.039-.28-.23-.441-.344-.297-.774-.434-1.485-.473-1.27-.066-2.242.328-2.242.918 0 .293.192.5.637.703.512.227 1.637.348 1.523.16zm-.07-2.843a1.782 1.782 0 0 0-.348-.317c-.379-.226-.644-1.242-.52-1.96.036-.212.083-.454.102-.544.024-.12-.011-.195-.16-.304l-.18-.145-.113.301c-.148.418-.195 1.395-.094 1.832.114.484.336.902.606 1.14.195.173.285.208.562.208h.325zm.773-.489c.313-.617.383-1.773.153-2.43-.086-.238-.114-.26-.36-.277-.148-.011-.27-.007-.27.008 0 .02.044.133.098.262.25.602.235 1.645-.035 2.172-.16.312-.074.539.211.57.028.004.117-.133.203-.305zm-.832-2.976c.047-.145-.183-.52-.3-.5-.102.023-.364-.375-.45-.688-.14-.488-.09-1.382.098-1.84.063-.144-.336-.378-.418-.25-.215.329-.316 1.465-.184 2.047.133.614.504 1.192.836 1.317.211.074.38.043.422-.086zm.817-.55c.218-.376.332-.985.293-1.61-.02-.317-.075-.696-.125-.836-.082-.219-.13-.266-.336-.305-.14-.027-.262-.039-.278-.023-.015.015.04.199.114.406.21.559.203 1.39-.02 1.945-.125.313-.148.446-.101.54.093.171.316.116.453-.118zm-.934-3c.086-.083-.004-.259-.305-.614-.261-.309-.406-.813-.402-1.41 0-.606.098-.996.32-1.344.09-.137.149-.254.137-.262a1.287 1.287 0 0 0-.262-.066l-.246-.043-.207.437c-.199.418-.207.473-.207 1.215 0 .578.032.856.117 1.106.153.437.457.843.707.957.258.11.262.11.348.023zm.934-.61c.414-.707.406-2.102-.016-2.871-.183-.336-.348-.395-.457-.157-.066.141-.055.215.067.457.316.649.296 1.649-.032 2.332-.125.262-.148.364-.093.434.109.133.402.027.53-.195zm-.782-3.555c0-.031-.171-.207-.382-.402-.309-.29-.403-.426-.485-.711-.125-.418-.14-1.207-.035-1.637.074-.281.07-.312-.07-.46-.082-.087-.168-.161-.195-.161-.102 0-.266.652-.297 1.195-.059.969.257 1.864.754 2.11.222.109.707.152.71.066zm.665-.582c.082-.172.191-.46.238-.652.105-.45.05-1.496-.094-1.852-.098-.238-.129-.265-.324-.254-.29.012-.324.051-.203.278.05.101.129.386.172.625.09.52.004 1.183-.207 1.597l-.13.254.145.152c.078.086.168.157.196.157.03 0 .125-.137.207-.305zm-.852-2.953c.11-.102.105-.113-.027-.324-.078-.121-.192-.215-.25-.215-.133 0-.34-.336-.438-.703-.133-.5-.09-1.38.094-1.828.031-.079-.008-.133-.149-.207a1.923 1.923 0 0 0-.226-.102c-.02 0-.086.152-.152.34-.16.469-.16 1.555 0 2.039.16.473.464.902.71 1.012.262.113.301.109.438-.012zm.762-.477c.07-.07.187-.332.265-.582.118-.39.133-.566.11-1.117-.02-.363-.078-.773-.13-.914-.085-.238-.112-.258-.362-.277-.145-.012-.266-.012-.266 0 0 .008.062.18.137.375.214.547.203 1.441-.024 1.996-.164.387-.168.426-.07.531.133.149.183.145.34-.012zm-.805-3.152c.02-.031-.066-.191-.187-.355-.45-.59-.563-.926-.56-1.688 0-.844.337-1.574.72-1.574a.869.869 0 0 0 .37-.14l.227-.141-.261-.13c-.235-.109-.301-.117-.52-.05-1.172.351-1.426 2.906-.398 3.933.199.196.527.274.609.145zm.863-.543c.34-.55.434-1.695.2-2.453-.114-.367-.153-.426-.282-.426-.261 0-.32.14-.207.496.23.711.188 1.512-.117 2.098-.187.355-.156.5.094.5.137 0 .215-.055.312-.215zm0 0"/></svg>