<svg xmlns="http://www.w3.org/2000/svg" width="64" height="64"><path d="M32 1C14.88 1 1 14.878 1 32c0 17.12 13.88 31 31 31 17.121 0 31-13.88 31-31C63 14.878 49.121 1 32 1zm5.438 9.656c.157.084.55 1.05.812 1.25.482.442.276.717-.156.688.087.376.3.455.406.719.117.31-.071.436-.281.5-.262.01-.533-.786-.688-.407-.07.252-.114.384-.093.594-.053.19-.238.292-.438.25-.404.035-.708-.402-.469-.656.423-.333.235-.433.375-.875-.315.085-.43-.061-.156-.531l.531-1.5.157-.032zm18.03 1.75c.208.004-.036.231.094.438.1.167.265.39.376.562.087.143-.077.193-.188.156-.177-.152-.24.039-.188.094.24.16.603.174.688.438.026.077-.041.223-.156.125-.265.1-.004.561-.282.719.137.21-.085.603.282.656.315-.22.539.144.781.281.171.084.084.295 0 .281-.205.007-.36-.099-.438.032-.015.103-.154.101-.187-.032-.15-.035-.24.276-.438.063-.052.03-.072.093-.062.156-.367.138.252.29.094.656.566-.032.454.697.937.813.228.117.015.296-.218.218-.2-.273-.448.065-.657-.125-.096.137-.25.197-.281.375-.148.243-.456.032-.688.063-.24-.031-.114.323-.218.469-.336.137-.25-.269-.407-.407l-.218-.062v.125c-.027.19-.306.12-.282-.031-.01-.1-.037-.302-.218-.188-.088.07-.124-.042-.063-.125-.073-.21-.29.114-.468.032-.043-.035-.07-.06-.063-.125.01-.14.276-.176.25-.344-.053.036-.09-.041-.031-.125.167-.127.3-.135.5-.094.115-.2.375-.07.437-.313.19-.366-.238-.25-.375-.437-.094.061-.244.103-.312 0-.123-.167.382-.374.593-.5.059-.163.366-.233.376-.406-.135.024-.145-.137-.032-.188.32-.204.491-.556.063-.469-.254.032-.328-.297-.094-.343.432-.042.205-.53.469-.719-.136.019-.216-.064-.157-.156.275-.388.54-.789.626-1.25h.03l.126-.313zm-14.624 2.125a.151.151 0 0 1 .125.063c.506.692.113 2.198 1.375 2.25.2.074.436.269.468.5-.052.158-.185.239-.343.281-.43.041-.8-.237-1.125-.563-.105.053-.042.215-.157.313-.358.25-.508-.218-.812-.313l-.531.688c-.145.234-.394.23-.594.094-.23-.2-.058-.463.125-.625.536-.264.844-.84 1.031-1.375.038-.166.214-1.29.438-1.313zm-3.969.281c.217.263.243.41.438.5l.187-.03c.064-.568.457.094.688-.188.059.11.28.3.437.437.266.24.24.394.063.625-.453.25-.508-.457-.75-.531v.063c-.053.335-.448.105-.594.093.03.19.027.431-.188.469-.461.069-.342-.28-.562-.406-.274.252-.497.354-.844.344-.396-.03-.403-.503-.094-.563.67-.15.955-.474 1.219-.813zM13.281 16.5c.099-.018.123.31.219.875.118.462.51.875.5.844.205.152.206.462-.031.406.032.148.23.333.031.469-.063-.01-.135.021-.188-.032-.126.2-.405.147-.53 0-.064.106-.25.177-.407.188-.242-.084-.01-.332-.031-.5-.26.191-.382.025-.25-.156.494-.525.574-1.275.562-1.969.049-.095.092-.119.125-.125zM37 16.813c.197-.004.254.282.281.437.033.326.562.244.657-.125.281.069.526.613.25.813-.38.198-.371.612-.844.78-.208.06-.297-.044-.313-.155-.21-.43-.278.31-.468.437-.315.179-.675.041-1.032 0-.23.146-.529.355-.812.188.01-.264.446-.27.625-.47.136-.62.895-.69.968-1.343.494.074.278-.583.688-.563zM23.937 18.25c.039.016.086.092.125.219 0 0 .397 1.245.563 1.468.17.418-.106.356-.281.344.047.38.038 1.04.437 1.282.203.064.134.34-.312.28-.018.173.165.276.281.313.19.109.014.273-.125.219-.42-.16-.465.12-.531.438-.078.18-.272.132-.375-.063-.073-.14-.365-.076-.375.156-.02.193-.262.224-.469-.031-.148-.294.323-.259.344-.531-.032-.116-.145-.166-.25-.188-.063-.104-.032-.228.062-.312l-.25-.063c-.126-.241.291-.302.5-.531.224-.204.267-.526.282-.75-.195.064-.446-.128-.344-.219.388-.44.552-.797.531-1.375-.02-.335.073-.705.188-.656zm15.907.375c.115-.063.134.07.156.219.018.168.318.517.531.031.083-.043.218-.073.282.031.126.105.012.261-.094.344.42.589-.53.61-.563 1.125-.787.214-.784-.298-.812-.563-.148.295-.477.093-.657.313-.195.166-.486.166-.406-.156-.41-.098-.492-.33-.218-.469.43-.19.995-.517 1.187-.75.179.106.467.095.594-.125zm15.625.031c.217.024.365.566.625.282.106.179.164.328.312.562.114.256.168.386-.031.469-.067.036-.364.091-.625-.032-.17-.246-.435-.328-.469-.187 0 .272.198.416.125.625-.073.253-.302.092-.437.219-.419.14-.51-.104-.625-.313-.072.193-.838.074-.594-.437-.475-.38-.754.53-1.313.312-.086.165-.32.143-.343-.062-.02-.441.52-.685 1-1.032.028.175.33.389.625.188.197-.142.333-.046.343.188.024.128.175.137.22.062.172-.14.175.16.312.25.185.123.425.127.343-.156-.02-.43.46-.299.282-.75.094-.163.177-.196.25-.188zm1.843.188c.34-.075.776.106.813.281.062.267-.155.261-.281.219.115.19.25.373.187.562-.04.089-.123.149-.218.125-.079-.019-.158-.03-.22-.093-.033.26-.268.148-.25.03 0-.34-.553-.585-.874-.937.159-.325.343.02.562-.031.069-.095.169-.131.282-.156zm-14.718.125c.077-.038.206.028.312.281.211.662 1.061.63 1.157 1.313.047.32-.332.153-.438.375-.388.188-.737-.176-1.031-.313l-.125.125c-.621.01-.508-.684-.844-1 .264-.367.508.178.813.125.334.068.135-.426.093-.625-.036-.118-.015-.243.063-.281zM12.625 20c.311-.017.407.439.781.156-.063.568.677.31.781.719.047.325-.54.462-.78.156-.033.426-.386.34-.563.063l-.281.187c-.801.184-.797-.285-.532-.562l.594-.719zm23.313.313a.338.338 0 0 1 .156 0c.104.23.342.407.687.062.178.316.506.718.282 1.063-.19.126-.287.248-.563.156-.378-.136-.827-.001-.719.406.022.253-.01.51-.156.688-.484.346-.415-.49-.656-.563-.106.557-.746.633-1.188.75-.411.119-.343-.432.032-.594.693-.336.943-.964 1.468-1.5.424.176.366-.39.657-.468zm21.156.25c.402.21.848.314.937.468v.063c.061.27-.176.284-.343.156-.07-.03-.033.021-.032.063.031.179.2.436-.031.562-.155.092-.333.041-.438-.031-.109-.076-.137-.249-.25-.313-.364-.066-.257.405-.406.5-.037.028-.196.016-.187-.156.083-.348-.282-.35-.282-.656.158-.2.294-.643.594-.469.54.258.288-.095.438-.188zm-3.938.187c.12-.044.138.025.063.156-.029.19.235.374.531.219-.15.26.233.414.344.25.179-.347.458.159.593-.094.222.031.53-.095.657.125.063.18.324.489.125.625-.114.085-.264-.148-.344-.031-.117.37-.293.345-.469.25-.073-.075-.024-.246-.093-.281-.38.297-.593.234-.688.031-.182-.299-.45-.256-.469-.031-.02.221-.331.13-.375.062-.23-.315-.474.009-.906 0-.24.021-.35-.095-.313-.312.053-.21.154-.2.313-.188.199-.016.281-.075.313-.218.041-.537.435-.364.718-.563zm-14.406.344c.115.045.155.27.5.187.284-.589.401.388.906.157-.099.396.434.408.532.25.063-.221.228-.291.437-.344.09.155.123.336.344.5.305.272.46.432.156.75-.267.238-.747.147-1.031-.125-.048.344-.466.9-.938.5-.4-.242-.09-.841-.531-1.063-.199.107-.288.235-.438.438-.526.686-.913.063-1.343.031-.116-.052-.199-.177-.094-.281.704-.053.777-.655 1.344-.969.071-.047.118-.046.156-.031zm-26 .875c.18.013.1.436.469.406.151-.075.021-.287.125-.313a.979.979 0 0 1 .5.282c.242.274.174.474-.125.468-.214-.064-.333.134-.219.344.178.403.012.502-.281.282-.032.315.3.529.531.718.378.187.017.372-.125.282.01.153.178.232.156.437-.158.388-.483.127-.687-.063-.106.452-.493.49-.656.282-.315-.22-.372.447-.72.406-.278.401-.935.372-.905.031-.281.15-.61-.188-.376-.562.273-.284.642-.426.97-.625.115-.095.23.041.218.156.139.315.575.044.563-.188-.063-.44.363-.06.5-.312.021-.095.01-.165-.063-.219-.34.02-.01-.574-.25-.375-.172.243-.385.14-.313 0 .067-.16-.066-.275-.187-.093-.12.179-.299.138-.438 0-.287.264-.575.023-.437-.125.335-.148.603-.342.844-.657.126-.21.32-.398.5-.187.22.041.238-.187.312-.344.038-.017.068-.033.094-.031zm41.906.593c.105.283.362.406.657.47.041.23.2.56-.032.75-.358.189-.425-.322-.593-.438-.096-.133-.164-.064-.188.031-.068.26-.29.367-.563.125-.187.237-.488.212-.593.094-.108-.12-.15-.282-.313-.282-.347.263-.715.596-1.125.47-.08-.053-.073-.184 0-.376.124-.312.44-.628.844-.656.263-.347.477.03.75-.094.265.418.702-.024 1.156-.093zm1.594 0c.042-.009.132.001.219.032.508.287.596.04.656 0 .242-.063.404.333.656.375.208-.01.395-.006.5.187.092.201-.215.202-.187.25.095.176.486-.09.531.219.02.23-.186.16-.406.156-.264-.114-.257.058-.157.125.024.102.16.117.126.313-.058.172-.4.275-.72.25-.142-.002-.28-.219-.343-.313-.063-.083-.242-.315-.375.032-.09.245-.362.06-.406-.125-.026-.103.029-.248-.032-.313-.084.031-.26.073-.312-.063.011-.063-.023-.135.031-.187.562.045-.078-.873.219-.938zm-31.406.344c.128.011.254.088.375.219.328.43.043.523-.188.469-.313-.057-.517 0-.531.218.366.376.15.761-.156.47-.043-.011 0 .071-.032.093-.145.559-.603.3-.562 0-.042.053-.156.167-.281.156-.18-.104-.208-.194-.157-.468-.272.082-.423.52-.812.406-.073-.116-.26-.104-.375-.063-.407.045-.415-.387-.156-.468.285-.112.48-.206.687-.344.085.094.343 0 .407-.063.384.204.507-.169.843-.031.115-.211.301-.124.438-.188l.125-.25a.486.486 0 0 1 .375-.156zm18.687.438c.057-.025.166-.018.282.062 0 0 1.3.738 1.25 1.282-.009.524-.308.452-.626.406-.435-.09-.483-.343-.718-.563.13.76-.792.568-.938.375l-.5-.531c-.032.19.1.523-.062.719-.319.3-.801-.072-.969-.188-.253.233-.148.652-.688.594 0 0-.472.065-.406-.594-.02-.303-.295-.353-.375 0-.295.565-.698-.044-.625.344-.062.148-.186.208-.343.219-.373-.17-.26-.582-.407-.657-.263-.121-.799.46-1.281.375-.341.03-.568-.268-.344-.53.357-.39 1.039-.469 1.532-.5.046-.07.292-.572.593-.595-.105.384-.18.986.625.813.518-.398.72-.406.813-.125.203.338.343.272.343-.031.043-.432.404-.356.72-.25.01-.4.57-.395.78-.375.527-.473.663.521 1.126.468.205.008.213-.27.187-.5-.025-.133-.025-.194.031-.218zm-8.375.25a.328.328 0 0 1 .188.375c-.2.546-.607.88-.375 1.5.199-.231.352-.393.5-.625.19.062.446-.147.625.062-.137.42.263.789 0 1.094-.337-.022-.374.352-.563.531-.2.21-.353-.114-.375-.25-.115.22-.341.47-.593.5-.243-.072-.49-.185-.47-.5-.114-.158.116-.353-.093-.468-.273.126-.404-.219-.563-.313-.24-.106-.434.082-.687.063-.136-.138-.033-.313.094-.407.788-.093 1.277-.954 1.812-1.468.21-.033.301-.061.5-.094zm17.813.625c.07.029.058.244-.157.468-.159.214.308.153.376-.093.065-.055.102-.22.25-.157.146.12-.002.211 0 .344 0 .081.167.194.25 0 .1-.279.232-.27.374.094.148.162.322.011.313-.219-.03-.204-.002-.522.313-.343.23.441.608 1.14.437 1.312-.284.26-.425.094-.719-.063-.152-.158-.278-.089-.312.094-.032.25-.374.249-.5.125-.088-.085-.109-.22-.219-.312-.19-.148-.27-.119-.531 0-.184.327-.365.013-.625.187-.21.304-.613.187-.844.063-.095-.092-.158-.208-.031-.282.62-.242 1.005-.787 1.531-1.187.034-.03.07-.04.094-.031zm-27.594.187c.021-.003.063.01.094.032.73.48 1.346.429 1.343.906-.029.227-.301.348-.437.156-.28-.384-.333.229-.719-.063-.273.137.158.406-.031.657-.232.148-.466-.305-.719 0-.126.347.033.579-.062.906-.178.126-.259-.135-.407-.188-.146.369-.06.299-.28.657-.173.25-.458.22-.626.125-.23-.088-.323-.351-.343-.625l-.157.093c-.19.136-.498.158-.625-.062-.042-.043-.042-.156.032-.188-.28-.269.25-.331.218-.593-.41-.41-.664.282-1.093.187-.082-.01-.193-.012-.25-.125-.09-.275.362-.331.468-.531-.082-.006-.336-.149-.062-.344.462-.268.832-.112 1.187-.312.137.053.152.187.282.25.27.113.207-.292.406-.25.263.39.466-.087.781.281.316.113.34-.146.281-.281.052-.094.129-.382.313-.313.293.203.256-.35.406-.375zm30.813.25c.42-.085.32.405.593.563.22-.095-.002-.363.188-.469.305-.01.404.333.625.438.116-.262.374-.136.531-.032.031-.23.29-.155.438-.218.115-.578.313.012.718.062.278.03.536.034.5.25-.029.164-.165.124-.25.188.105.178.293.445.125.625-.179.195-.682.184-.937.062-.178-.088-.224-.446-.532-.344l-.343.157c-.274.094-.57-.134-.813-.22-.19-.072-.342.115-.437.188-.325.138-.481.121-.688-.125-.121-.16-.37-.813.032-.937.116-.031.218-.042.25-.188zm-17 1.25a.25.25 0 0 1 .156.063c.351.305-.362.89-.719 1.437-.388.306-.445-.514-.75.032-.19.493-.36 1.059-.844 1.343-.22.021-.508.117-.656-.093.094-.389-.375-.111-.344-.438.22-.294.833-.32.813-.75-.147 0-.187-.01-.313.063-.23.115-.566.192-.468-.032.082-.379.53-.57.656-.906.275-.299.478-.21.625-.031.167-.306.487-.385.718-.563.21-.074.469-.011.563.188.103-.197.368-.333.563-.313zm-26.938.188c.115-.02.242.022.25.156.221-.43.518-.021.781.063.021.2.22.394.063.593-.126.116-.301-.042-.438-.093-.249-.136-.207.3-.219.562.108.388-.327.526-.437-.125-.147.325-.311-.116-.469.188-.146.217-.347.025-.344-.157a.914.914 0 0 0-.124.25c-.06.225-.41.136-.313-.218l-.281.218-.125.032c-.326-.21.23-.416.281-.657.126-.032.26-.071.344-.187.389.03.653-.278.906-.594.031-.024.087-.025.125-.031zm28.281.031c.241-.053.145.208.282.313.094.41.652.46.687.093.146-.564.904-.049 1.188-.406.231.126.845.611.343.719.052.505.632.692.844 1.093.193.276.202.636-.188.688-.63.053-.912-.695-1.437-.938.348.691-.21.887-.531.438.035.24-.644.307-.75-.188-.2-.032-.416-.168-.407-.375-.671-.02-.05-.871-.218-1.218 0-.106.061-.219.187-.219zm13.094.094c.053.105-.177.427-.031.5.34-.192.666-.048.562.343.313-.17.333-.167.313.032-.021.159-.21.316-.25.468-.039.15.02.42.187.313.211-.148.435-.273.688-.125.084.304.425.35.593.656.142.232.036.597-.343.563-.265-.007-.4-.251-.469-.438a1.908 1.908 0 0 1-.531.188c-.498.022-.902-.242-.938-.844-.305.274-.696-.02-.593-.313-.142.373-.369.72-.782.563-.414-.186-.221-.462-.187-.844-.128.2-.41.36-.594.188-.105-.143-.048-.287.094-.407.423-.378.906-.78.906-.78.094.021.26-.064.344.03-.01.462.437-.087.531.313.085-.094.146-.145.219-.25.137-.106.208-.208.281-.156zm-39.156.125c.336.045.729.351 1.031.437.272.095.265.445-.125.438-.284-.103-.342.05-.219.156.231.217.078.328-.25.344-.315-.037-.294.123-.125.312.18.253.489.547.313.75h-.063c-.186.188-.51-.195-.562-.406-.17-.325-.512-.17-.563.031-.13.453.136.515-.094.719-.152.097-.343-.009-.406-.094-.104.053-.01.166-.031.25-.022.2-.27.2-.375.188-.011.22.154.55 0 .656-.269.277-.246-.533-.625-.219-.267.204-.208-.425-.188-.656h.063c.22.01.08-.21-.031-.344-.115-.305.645.053.531-.531.304.073.344-.08.406-.375.117-.105.344-.063.344-.063.43.009.416-.183.281-.312l-.156-.219c-.163-.33.427-.507.313-.781.153-.232.329-.308.53-.281zm42.937.093c.02-.016.017-.027.032 0 .078.108.079.077.25.125.097-.002.184-.046.187-.125.155.236.208.241.438.438.196.17.408.301.437.531.016.114-.01.27-.219.344a.447.447 0 0 1-.375-.094c-.237-.135-.207-.316-.437-.531-.17-.123-.279-.037-.282.094.016.236.103.336-.093.5-.195.164-.53.11-.657-.032-.253-.224-.337-.662.094-1.03.085.062.163.109.344.062.136-.034.222-.231.281-.282zm-30.718.594c.304-.014.739.272.968.344.332.155.414.341.282.563-.136.157-.29.103-.47.125-.01.187.122.24.032.53-.168.21-.307.264-.531.157-.225-.164-.416-.436-.563-.656-.073-.305-.475-.628-.437-.719.168-.095.301.02.406.094-.007-.331.13-.429.313-.438zm-3.875.719c.076.277.226 1.041 0 1.094-.316.063-.196.582-.563.687-.23.051-.438-.154-.375-.375-.042-.335-.468.193-.375-.312-.718-.088.202-.428-.313-.5-.328-.013-.36-.388.063-.375.442.062 1.302-.104 1.563-.219zm11.75.031c.304.063.03.661.312.625-.448.502-1.158.932-1 1.594.116.31.28.287.594.313-.103.124-.924.928-1.375.718-.421-.4-.27-.838.093-1.437-.272.133-.778.241-1 .062-.12-.14-.098-.127-.124-.343.026-.55.948-.04 1.156-.532-.553-.381.362-.688.687-.781.089.5.414-.27.657-.219zm-9.063.032c.135-.008.314.321.375.437.254.47.844.717.438.938-.38.082-.54-.24-.844-.313.003.136.155.451-.25.156-.442.18.375.707.343.969-.015.22-.22.354-.53.281l.093.094c.054.074.054.156 0 .219-.347.179-.52-.29-.781-.438-.168.306.21.685-.094.969-.19.157-.476.113-.656-.125-.211-.368-.277-1.281-.125-1.25.42-.052.13-.535.187-.813.106-.231.355-.076.563.063.368.183.437-.875.437-.875.105-.41.52-.095.657.031.083.042.136-.115.062-.187.024-.1.08-.154.125-.157zm-15.156.468c.045-.003.088.01.094.094-.023.169.714.116 1.093 0 .262.169.124.477.156.75-.004.292-.227.46-.437.219-.257-.226-.43.176-.281.437.133.253-.17.176-.219.094-.128-.1-.196-.463-.375-.5-.13 1.08-.563.906-.563.906-.23-.032.085-.466.032-.562l-.219.062c-.122.031-.327.037-.25-.062.175-.142.28-.326 0-.25-.324.056-.34-.31 0-.407-.073-.084-.166-.063-.25-.093-.126-.04-.177-.218-.031-.25l.562-.063c.272-.054.551-.366.688-.375zm46.375.313c.136.033.186.178.312.156.473-.41.725.209 1.157.25.084-.178.537.22.437-.125.6.284 1.342.432 1.656 1.156.098.23-.245.578-.468.469-.368-.114-.483-.343-.72-.688.04.24-.238.255-.406.063-.304.188.053.456 0 .656-.206.25-.38.14-.5-.031-.076-.252-.084-.478-.312-.375-.535.105-.538-.677-.969-.688-.011-.29-.238-.134-.406-.25-.085-.198-.054-.519.219-.593zm-3.469.218c.294.105.054.479.188.625l.124.125c.181.091.385-.082.407-.28.19.066.282.087.5.155.216.115.324.29.156.5-.156.198-.518.395-.813.125.11.361-.611.438-.624.22-.053-.149-.021-.343-.157-.5-.3-.2-.31.613-.718.687-.576.053-.066-.884-.594-.625-.299.16-.771.421-.813-.157.031-.376.384-.361.563-.718.23.058.403.115.562-.063.001.25.475.391.688.125a.51.51 0 0 1 .531-.218zM39.125 29c.106.07.003.393-.031.781.016.625.129 1.194-.344 1.594-.29.307-.601.278-.625-.094.03-.368-.622.27-.594-.468-.504.126-.266.916-.812.968-.215.025-.55-.103-.469-.406.16-.48.53-.748.625-.938-.559-.047.163-.434.406-1.093a.44.44 0 0 0 .532-.125c-.112.313-.214.35-.188.625-.072.461.672.696.75.187.087-.513.338-.917.563-1 .086-.034.152-.055.187-.031zm7.313.375c.026-.004.054 0 .093.031.384.471.358 1.148 1.094 1 .273.18-.006.488-.531.5-.094.263.545.312.125.469-.334.054-.53-.184-.657.25-.053.17-.352.193-.374-.031-.001-.163.012-.303-.157-.313l-.312.094c-.18.019-.18-.187-.125-.281.08-.202.356-.337.531-.594.211-.267.128-1.095.313-1.125zm-10.157.156c.264-.021.222.215.032.5-.306.305-.196.628-.563 1-.22.274-.77.26-.688-.031.084-.175.26-.27.313-.344-.464-.477.55-.82.906-1.125zm-15.031.157c.22-.059.25.067.219.375-.097.3.583.335.968-.063 0 0 0 .154.094.625.034.216.148.604-.125.656-.445.065-.44-.268-.531-.593a.478.478 0 0 0-.156.25c-.18.765-.447.597-.5.343-.21-.294-.363.167-.594.094-.116.041-.31.081-.375-.156-.048-.291.092-.298.219-.625l-.344.093c-.252.1-.54-.287.063-.5l.78-.375c.115-.053.209-.105.282-.125zm21.188.468c.441.105 1.05.613.906 1.032-.127.168-.198.218-.344.28-.106.368.303.529.25.876-.085.313-.343.062-.5.093.199.21.108.598-.125.688-.639.18-.92-.28-1.156-.688-.18.389-.257.845-.782.782-.467-.024-.53-.529-.656-.907-.083.064-.219.022-.25-.062.158-.23-.118-.551.219-.719.23-.105.342.03.469.157.283.236.425.084.468-.344.115-.326-.097-1.33.313-1 .316.283.396 1.227.781.875.11-.219-.207-.738.032-.719.212.041.336.262.468.125.169-.27-.219-.258-.093-.469zm14.78.032c.117.188.355.31.313.562.063.462.562.393.688.75.082.162-.106.186-.219.156.403.594-.043.44-.406.25-.215-.138-.342.034-.188.25.291.295.646.602.532.969-.088.117-.29.066-.344.031-.24-.118-.33-.448-.532-.656 0 0-.114.498-.406.031 0 0-.354-.553-.625-.125-.307.387-1.19-.128-1.031-.5.148-.431-.157-.787-.094-1.187.19-.147.468-.24.688-.157.148.158.312.311.375.5.335.294.185-.395.468-.5.179-.104.291.074.438.094.115-.063.031-.208.063-.312.01-.116.154-.189.28-.157zm-42.28.5c.33.315.685.403.906.718.224.341-.202.49-.531.282-.033.147.073.249-.094.312-.273.02-.08.395-.313.5-.32.126-.653-.06-.875-.281.21.318.164.653-.094.718-.125.01-.394-.02-.5-.156-.001.232.022.374-.124.5-.127.148-.411.06-.532-.062-.233-.157-.05.445-.156.656-.126.179.127.436-.125.531-.356.042-.335-.14-.5-.5-.1-.134-.3-.24-.406-.156-.504.15-.58.675-.969.719-.32-.012-.248-.25-.406-.313-.315-.315.251-.62.031-.968-.155.217-.415.467-.719.562-.372.07-.34-.361-.062-.469-.148-.409.436-.465.469-.843-.127-.147-1.188-.175-.813-.47-.237-.174-.269-.174-.406-.374-.26-.29.183-.346.406-.125.486.426 1.162.012 1.719-.032-.12.337-.313.432-.281.625-.021.21.017.537.25.532.284.094.28-.301.437-.438.147-.116.208.206.313.313.225.198.232-.14.218-.313.031-.283.07-.541.406-.5.189.022.146.23.157.375-.065.193-.025.332.156.282.168-.085.219-.364.219-.5.002-.136.099-.462.25-.188.21.379.462-.12.687-.094-.032-.178-.063-.436.031-.593.474-.401.33.424.657.562.252.132.355-.207.25-.469.206.046.317.263.344-.343zm37.437.437c.19-.059.411.19.656 0 .127.305.425.04.625.25a.219.219 0 0 1-.093.219c.104.409-.414.353-.626.562-.051.148-.26.27-.25.407.053.021.084-.041.126-.032.326-.041.156.31.156.438.209.168.54.062.75-.032.12-.004.151.17.156.282.19.682.462-.577.75.187.21.104.217-.127.344-.093.133.01.178.102.156.218-.052.178-.26.092-.313.25 0 .136.066.26.22.313.187.012.137-.181.25-.188.163-.007.134.156.187.282.041.284.249.197.468.156.233.104.374.29.25.562-.22.632-.745.285-1.093-.218-.19-.259-.551-.591-.719-.22-.107.299-.824.286-.781-.218.011-.508-.432-.291-.625-.219-.358.205-.385-.103-.594-.218-.3-.112-.302.383-.344.53.01.137-.123.272-.281.22-.253-.157.033-.425-.094-.626-.23.033-.247.565-.593.376-.188-.158.376-.623-.032-.594l-.312.187c-.306.219-.438.063-.438.063-.116-.127-.045-.293.125-.438.305-.252 1.226-.237 1.219-.656l-.5-.063c-.223-.025-.138-.393.125-.624.132-.4-.405.137-.625-.094-.473-.495.333-.465.406-.844.453-.199.725.063 1.157.063.052-.121.124-.168.187-.188zm-26.063.5c.295-.073.572.155.782.375.094.106.136.29.031.406-.037.143-.394.462-.688.157v.093c.243.336.033.424-.28.5-.585-.204-.749-.218-.72.032-.073.052.042.28-.25.25-.189.014-.3-.04-.343-.126-.274-.283-.352-.009-.657-.03-.02.23.146.383.25.562.179.283-.085.413-.312.406-.21.032-.26-.122-.406-.281l-.25.218c-.264.28-.708.296-.875-.124-.274.094-.02.445-.188.656-.073.041-.249.179-.281 0l-.313.25c-.688.142-.174-.583-.562-.532-.043-.577-.507-.091-.844-.25-.514-.33.051-.685.219-.906.084-.41-.405-.155-.531-.312.032-.253-.24-.06-.313-.25-.127-.274.209-.228.25-.407-.063-.083-.292-.03-.218-.218.073-.2.352-.24.562-.219.23.567.789-.023 1.125.344.063.284.02.468-.031.687.283.012.26.385.218.563.389.558.435-.555.875-.313.085.127-.02.28-.03.407.01.072.094.094.124.062.106-.262.092-.593.313-.781.252-.107.466-.003.718.093.074-.115.187-.25.344-.187.273.022-.033-.27.157-.375.168-.179.342.073.5.125.114-.041.019-.166.093-.219.073-.135.219 0 .313-.062l-.032-.032c-.01-.094.02-.166.094-.218.294-.095.27.27.469.343l.094-.156c.314.032.08-.333.281-.437.116-.116.23.116.313-.094zM35.47 32c.295.138-1.408.905-.594 1 .204.057 1.226-.482 1.5-.25.023.019-.502.846-.25 1 .233.076.661-.723.875-.344.287.413.601.1.375-.656-.054-.512.374-.232.469.156.094.257.418.965.531.25.052-.337.205-.129.281.032.225.517.52.085.282-.594.105-.074.25-.002.28.125.127.451.305 1.122-.03 1.5-.317.236-.472.001-.563-.219-.188.504-.15.947-.781 1.094-.382.08-.555-.07-.719-.344-.09-.164-.244-.328-.5-.344-.273.136-.508.28-.781.5-.38.437-.466.11-.875.344-.449.293-.854.191-.719-.25.266-.595.772-.687.813-1.063 0 0 .075-.522-1.032.22-.414.25.093-.592-.25-.563-.464-.096-1.435 1.01-1.5.343l.719-.874c.34-.437.77-.6 1.313-.782.346-.187.799-.196 1.156-.281zm10.75.219c.08-.033.158.016.125.125-.198.278-.112.437.093.531.23.105.384-.062.47-.313-.005 0 .063-.448.25-.25.38.322.56.421.75.282.148.443.865.435.718.843-.052.221-.386.292-.563.22-.283-.111-.341-.233-.5-.376-.157-.171-.365-.199-.406-.093-.038.105-.009.331.063.562.075.206-.17.316-.344.313-.167.015-.363-.134-.406-.313-.105-.43-.469.077-.625-.344-.096.115-.136.28-.375.313-.33.065-.488-.174-.407-.313.355-.309.415-.465.594-.812.208.092.248-.007.469-.313a.242.242 0 0 1 .094-.062zm-29.344 1.093c.544.094 1.006.198 1.469.157.292-.007.326.453-.125.375-.212-.04-.244.197-.063.25.21.085.469.164.563.375.085.11-.061.25-.188.25-.223-.044-.416-.263-.406-.032.179.22-.187.344-.281.376.147.063.115.255-.032.25-.345-.02-.477-.196-.718-.344-.59.221-1.078-.456-1.532-.813-.107-.088-.133-.208-.03-.312.378-.136.757.557 1.03.062.41.148.282-.406.313-.593zm9.469.22c.219-.08.522.169.625.406.094.063.323-.013.281.187-.073.23-.28.03-.438.125l.063.313c-.053.043-.104.124-.188.093.274.227.151.559-.156.563-.347.021-.311-.373-.468-.563-.245.723-.592.076-.532-.156-.158-.314-.3.115-.5.063-.273-.305.303-.435.344-.75.316.104.476-.2.781-.094a.288.288 0 0 1 .188-.188zm1.687.78c.078-.027.245.125.438.25l.843.188c.359.23.476.563-.125.813-.02.125-.165.114-.25.156.054.085.117.23 0 .312-.502.228-.413-.227-.625-.343l-.125.156c-.305.105-.278-.291-.53-.313-.032.031-.084.072-.063.125-.106-.148-.355.032-.282-.218.284-.064.309-.65.657-.438v-.094c.273-.096.041-.32.031-.5.003-.05.005-.084.031-.093zm20.157.032c.22.12.565.272.718.281.246.05.687-.066.719.281-.01.284-.516.246-.688.219.242.179.409.437.094.563-.379.189-.78-.236-1.031.28-.064.266-.176.386-.344.376-.396-.105-.208-.342-.218-.563-.106-.263-.29-.04-.47-.031-.568 0-.247-.53-.437-.813-.021-.305.201-.165.407-.25.22.022.315.767.75.313l.03-.219c.222.13.641-.196.47-.437zm-33.813.093c.11-.038.273-.009.344.126.126.346.54.467.687.78.126.322-.215.569-.375.376-.098-.136-.207-.239-.312-.25-.094.122.004.274 0 .406.045.356-.202.449-.344.438-.222-.006-.327-.236-.469-.22-.268.054.086.248-.094.407-.137.117-.187-.053-.312-.063-.178.028-.104.312-.188.47-.075.128-.199.144-.25.093-.089-.091-.117-.347-.218-.406-.106.083-.105.54-.125.656-.022.335-.265-.023-.469.156-.15.044-.342.314-.469.094-.158-.22.211-1-.031-1.25-.063.262-.224.635-.469.5-.199-.137-.154-.456-.375-.594-.21.295-.562.719-.969.625-.09-.03-.176-.182-.156-.25.115-.384.647-.565.844-.968.188.073.177-.136.25-.22.105-.074.281.01.313.126l.156-.188c.536-.38.276.628.812.344l.125-.031c.021-.369.384-.22.625-.313-.086.295.137.495.281.188l.094-.25c.337.085.384-.27.594-.375.2-.021.47-.039.406-.344a.238.238 0 0 1 .094-.063zm31.594.032c.18-.038.094.175.031.312-.145.486-.533.454-.188.938.076.15-.153.187-.28.031-.253-.41-.488.072-.782.125-.148.102-.266-.067-.156-.188.095-.122.41-.286.343-.5-.223-.021-.175-.202-.03-.312.217-.208.766-.318 1.062-.406zm-5.375.25a.266.266 0 0 1 .125 0c.158.043.093.196.187.281.43.063.208.997.375 1.25l.157-.469c.209-.445.534.69.53.188.106-.062.031-.397.22-.313.23.246.426.53.5.782.131.395.145.823-.376.656-.295-.158-.195.207-.374.343-.042 1.222-.7.936-.844.126-.273.01-.166-.28-.282-.407-.274.51-.675.062-.53-.625.084-.42-.267-.27-.438-.5-.158-.294.188-.602.437-.812.313.036.084-.436.313-.5zm11.343.218c.138.043-.063.293.032.376.232.125.326-.248.562-.25.262 0 .223.138.375.312.15.154.182.34.125.563-.205.315-.485.101-.718-.032-.45-.037-.197.52-.47.657-.273.043-.217-.291-.312-.438 0 0-.088-.272-.343.031-.14.17-.666.326-.907-.062-.061-.098-.012-.338.125-.375.127-.044.176.088.344.031.294-.263.174-.571.594-.625.2.16.384-.271.593-.188zm-31.687.094c.294.19.654.238.813.563.167-.19.353-.011.53.031.074.304.428.092.407.438.115.074.25 0 .281-.126.347.116.268-.25.594-.124-.052.44.449.027.406.437.18-.095.394.064.532-.031.251-.504.61-.019 1.03-.125.429.289.54.928-.312 1.062-.225.039-.406-.115-.5-.156.069.305-.195.345-.312.219-.067.632-.717.292-.625.031-.01-.368-.384-.34-.438-.688-.093.588-.488 1.168-.937.97-.442-.073-.268-.594-.25-.72-.514.417-1.044-.053-.875-.437-.233.049-.563.187-.625-.063-.074-.389-.404.042-.657-.03-.135.02-.309-.103-.187-.282.262-.462.568-.884 1.125-.969zm12.344 1c.097.015.084.352.25.469.44-.21.065.448.531.844.241.167.529-.394.75-.438.294.096.165.447.313.688l.343-.375c.168.104.26.33.25.562-.242.304.125.907.125.907.337.79-.904.742-.937.062-.269.483-.531-.184-.5-.531-.22.021-.27.186-.407.312-.168.157-.437.171-.468-.093.03-.292.084-.405.062-.626-.19-.106-.363.209-.593.188-.326-.073.139-.394-.188-.5-.23-.262-.611.274-.938 0-.333-.134-.398-.47.25-.656.6-.205 1-.688 1-.688.074-.093.124-.13.157-.125zm6.031.032c.131-.019.288.084.313.218.082-.021.26-.084.312.063-.063.673.24 2.01-.063 2.062-.506.18-.475-.717-.78-.906-.127.106-.125.312-.344.281-.443-.347-.634 1.27-1.188.125-.073-.126-.248-.26-.406-.156-.17.196-.452-.01-.25-.25-.672-.388.26-.72.187-1.281 0 0 .32-.125.594-.125.22.021-.049.669.469.75.21-.01.3-.49.5-.532.2-.053.238.187.343.25.116-.136.125-.29.188-.437a.255.255 0 0 1 .125-.063zm6.813.437c.222.136.237.438.468.375.105-.2.395-.042.5.031.101.127.145-.344.313-.281.136.105.104.26.156.406.484.052.405.538.531.875.201-.011.302.044.407.25.21.29-.09.34-.22.188-.172-.092-.38-.291-.5 0-.233.117-.372.116-.468-.032-.085-.129-.054-.214-.188-.343-.071-.078-.227.003-.25.062-.09.231-.056.51-.28.594-.38.02-.323-.332-.407-.594-.07-.141-.206-.072-.281-.031-.27.148-.461.62-.813.563-.1-.02-.148-.104-.156-.25-.013-.16.187-.24.156-.344-.053-.15-.497-.022-.281-.282.112-.103.505-.12.438-.343-.186-.238-.38-.482-.188-.594.244-.057.312.273.469 0 .032-.263.393-.062.593-.25zm3.406.188c.037-.056.13-.04.343.156 0 0 .508.425.907.531.157.088.139.266-.063.344-.366-.126-.335.12-.25.218l.125.094c.306.205.557.233.75.313.156.061.293.34.032.375l.5.281c.193.119.144.455-.282.281-.126.336.376.43.407.75-.006.165-.117.294-.313.282-.192-.013-.3-.203-.438-.313-.189-.155-.757-.662-.53-.813.428-.09-.41-.318-.5-.468-.141-.262-.16-.468-.25-.719-.073-.316-.478-.278-.563-.531-.075-.125.009-.26.156-.25.084.053.126-.136.063-.188-.089-.163-.132-.288-.094-.343zm-33.157.28c.069.022.14.083.188.157.157.19.49.166.563.375-.073.179-.291.135-.438.188l.375.28c.32.179-.21.355.063.5-.021.138-.187.103-.282.157.043.073.075.197-.031.25-.232.063-.446-.061-.594-.219-.35.396-.55-.395-.844-.531v-.156c.147-.22.272.084.47.062.241-.05.072-.176.03-.312.147-.106.177-.322.376-.375-.073-.094-.137-.218-.063-.344.068-.032.12-.052.188-.031zm10.25.532c.074.031.177-.052.22.063.145.207.818.373 1.218.53l.063.157c.051.247-.396.167-.47.219.117.042.396.154.376.343-.104.316-.446.083-.657.126.419.733-.473.663-.812.624-.147-.052-.261-.114-.25-.25-.242-.17-.04-.581-.188-.812.105-.136.343-.199.5-.188.012-.242-.178-.58 0-.812zm-5.218.156c.063.073.125.167.062.25.264.18-.25.53-.187.782l.437-.157c.148.4.53-.067.688.407.157.262.138.624-.188.75-.241.095-.384-.281-.531-.376-.22.136-.127.296-.281.563-.261.28-.624.53-.907.219-.284-.2-.57.24-.906.125-.214-.052-.235-.4-.031-.5.084-.075.263-.066.406-.157.22-.104.396-.185.5-.374.167-.272-.04-.42-.25-.25-.275.187-.715.074-.75-.22.052-.43.498-.259.782-.468.23-.094.34-.553.625-.344.158-.209.299-.208.53-.25zm3.687.188c.092-.016.167.015.188.125l-.469.687.438.375c.305.787-.57.535-.844.438.147.327.407.455.343.687-.036.317-.613.084-.75.063.105.268-.117.842-.53.656.094.368-.365.11-.407.438-.22.293-.322-.157-.5-.188l-.063.188c-.102.327-.342.274-.406.062l-.031.156c-.371 1.08-.887.877-1 .438-.106.284-.173.697-.531.781-.295.08-.042-.269-.094-.406-.157.021-.269.178-.438.156-.093-.031-.202-.075-.062-.188.169-.21.469-.446.469-.718-.169-.074-.343.178-.5.062-.122-.092 0-.26.125-.343.336-.012.529-.396.843-.532.2.02.302.24.344.344l.094-.25c.272 0 .299-.492.594-.281V40.5c.136-.483.341.158.5-.063.462.127.07-.321.312-.5.652.094.27-.403.469-.562.253.074.414-.218.625-.313.02-.146.094-.27 0-.406.031-.095.061-.218.188-.218.378.42.738-.205.843-.47a.577.577 0 0 1 .25-.124zm-14.968.062c.105.231.361.167.562.094.44-.043.134.415.281.594.063.085.228.188.281.031.284-.19.196.208.376.281.325.073.33-.354.593-.406.168 0 .102.198.281.156.053-.053.021-.135.032-.218 0-.115.06-.294.219-.22 0 0 .68.332.593.75-.087.417.343.51.406.594l.032-.03c-.18-.37.187-.582.281-.813.02-.085-.073-.197.031-.25.273.074.196-.262.406-.25.263.19.28-.168.5-.125.147.21.407.55.313.781-.222.213-.31-.24-.5-.188.025.238-.124.387-.344.344-.126.369.069 1.075-.219.969l-.187-.094c-.139.412-.669.358-.875.25-.335-.173-.363-.457-.594-.625l-.156.375c-.21.116-.374-.241-.531 0-.106.325-.304.784-.563.844-.453-.048-.342-.468-.469-.563-.114.095-.258.198-.343.313-.114.308-.542.297-.469-.031.074-.337.32-.477.594-.719.273-.126.042-.375-.063-.469-.357.085-.465.498-.812.657-.54.027.02-.435 0-.72l-.438.063c-.301.148-.318-.33-.125-.531-.168.023-.41.048-.562-.125-.043-.052-.094-.334 0-.375.546.314.996-.185 1.468-.344zm37.468 1.188c.115.006.24.07.25.062.2.137.31.333.438.532.23.39.55-.235.718.312.244.51.49.677.188.906-.178.127-.343-.063-.5 0l-.031.063c-.442.148-.582-.415-.844-.594-.122.23-.342.157-.344-.094-.589.053-.442.834-1.093.782-.294 0-.26-.333-.376-.5-.305-.097-.132.522-.53.406-.305-.002-.262-.373-.188-.563-.17.2-.327.174-.375-.093-.178.052-.437.043-.469-.188.148-.317.487-.414.625-.719.094-.125.154.12.406-.093.19-.127-.08.297.344.343.23-.022.29-.447.469-.406.157 0 .26.166.25.313.126.063.227.26.406.187.224.039.505-.018.438-.406.009-.218.104-.256.218-.25zm2.157.25c.198-.04.459.226.593.375.22.216.43.444.219.718-.2.216-.514.059-.656-.25-.168-.178-.333-.478-.313-.687.053-.098.09-.143.157-.156zm-10.72.5c.105.023.21.11.313.187.2-.398.581-.021.688.094.23.315.801.61.718 1.094-.005.145-.175.218-.28.187-.209-.047-.593-.3-.782-.593.046.3-.077.575-.313.437.012.185.074.352.063.531.035.408-.423.704-.813.313-.154-.177-.154-.542-.312-.688-.229-.242-.386.07-.344.375.094.507-.497.533-.812.375-.178 0-.104.176-.094.313.127.486-.292.745-.375.437-.095-.262-.305-1.514-.063-1.75.23-.268.477.117.688-.343.063-.201.134-.416.344-.5.25-.06.533.365.718.343.315.012.271-.36.407-.593.049-.201.146-.242.25-.22zm-6.406.125c.532-.115.011.5.032.593.389-.196.367.302.125.594-.148.253-.278.656-.594.625-.284 0-.283-.373-.188-.5h-.156c-.19-.083-.02-.229-.031-.343-.42.417-.945.141-.531-.25.357-.326.828-.645 1.343-.72zm-18.062.468c.038-.016.086-.008.125 0 .473.21 1.018.215 1.375.563l.063.188c-.033.19-.468.081-.563.156.13.116.346.425.188.531-.117.13-.51.001-.75.063.063.064.277.288-.032.343-.305-.01-.239.111-.312.344-.252.199-.248-.225-.406-.281l-.188.281c-.164.178-.248-.167-.406-.188-.494-.095-.156.48-.375.657a.887.887 0 0 1-.5-.094c-.105-.085 0-.228-.094-.313-.367-.209-.302-.725-.313-1.187.064-.094.156-.104.25-.094.158.116.103.323.188.469l.219-.188c-.137-.314.387-.183.219-.468.188-.43.372.177.624.093.262.243.269-.28.532-.218.21-.022-.01-.25-.063-.344a.38.38 0 0 1 .219-.313zm12.969.094c.283-.049.469.048.375.282-.07.185-.135.262-.625.312.294.284.554.572-.094.906-.514.19.127.602-.156.875-.105.073-.218-.001-.313-.062-.135.976-.83-.222-1.25.093-.022.193-.345.633-.656.157-.116-.305-.531.15-.563-.282l-.093.22c-.189.242-.398.018-.532-.25-.21.324-.059 1.087-.53.874-.484-.462-1.075.669-1.438.438-.21-.262-.479.17-.688-.094.03-.347.457-.29.657-.469.188-.242.32-.604.593-.687.285-.054.104.248.157.375.178-.117.258-.28.343-.438.074-.2.208-.207.375-.281.4.085.208-.383.375-.563.18-.032.312.155.407.282.452.136.329-.605.812-.407.19-.23.383.063.594-.03.157.304.446-.011.687.03.053-.167.228-.166.344-.25.074-.2.271-.633.125-.843.41-.012.694-.094 1.094-.188zm6.75.375c.115.116.063.29 0 .469-.162.303.115.561.343.344.085.252-.084 1.335-.468 1.125-.288-.207-.136-.436-.125-.563-.074-.116-.018-.293-.25-.218-.519.022-.43-.264-.25-.563.178-.22.528-.689.75-.594zm1.25.25c.027.01.042.052.062.094.031.253.032.383.032.563.017.217-.167.353-.313.312-.286-.233-.075-.821.094-.906.068-.047.098-.073.125-.063zm-26.125.219a.589.589 0 0 1 .562.406c.252-.178.3.176.438.25.167-.157.322.177.5.094.725-.2.694.548 1 .906.03.178.304.352.062.532-.252.146-.302-.22-.437-.313-.021.031-.073.021-.063.063-.134.34-.332-.024-.437.25-.084-.021-.25.052-.281-.063-.201.126-.05.489-.344.5-.368-.038 0-.497-.063-.719-.252-.136-.362.24-.625.188-.378.01-.27-.322-.25-.532-.2-.03-.31.294-.5.094-.02-.23.197-.26.344-.406-.126-.327.262-.56.156-.875-.314-.116-.727.14-.875-.25l.063-.094c.252.011.521-.043.75-.031zm35.781.25c.137 0 .24.03.313.188.242.283-.134.57-.22.843-.03.515.594.183.657.657.23-.022.352-.033.594 0 .241.146.94.415.593.624-.284.212.293.52.126.75-.242.231-.52-.26-.688-.343-.083.041-.146.208-.281.156-.253-.053-.124-.415-.282-.531-.2.167-.1.54-.406.593-.472-.337-.35.575-.875.47-.355-.043-.458-.58-.343-.876-.966-.38.032-.65-.063-1.156l-.156-.156c-.231-.063-.385.072-.532.218-.252.274-.248-.25-.5.032-.3.19-.375-.07-.25-.219.284-.21.52-.487.657-.781.148-.127.236.289.437-.032.116-.42.413-.239.782-.343.147-.055.3-.094.437-.094zm4.344 0c.042-.01.116.035.187.156l.25.469c.255-.476.45.42.782.219.372-.115-.106-.551.03-.75.105.02.25-.043.313.093.063.158.186.388.375.188.094 0 .137.103.157.188-.221.315.354.538.343.843-.04.434-1.034-.213-.906.25.156.222.449.434.438.75-.02.125-.175.131-.25.157.1.483-.333.443-.594.218-.344-.381-.243.27-.657-.031-.198-.253-.198-.602-.093-.938.014-.345-.143-.531-.407-.468-.008.083-.072.259-.124.375-.139.635-.405.543-.782.281-.32.252-.454-.04-.312-.563-.6.378-.623-.3-.844-.468a.17.17 0 0 1 0-.219c.211-.147.31.114.5.125.052-.138.24-.188.344-.156.21-.242.486-.178.75-.188.346-.024.372-.502.5-.531zm-20.532.656l.75 1.094c-.084.6.602.239.875.438.42.132.445.701 0 .656.662.324.243.582.032.656-.245.062-.81.003-1.157-.25-.378.168.61 1.053.157 1.156.339.482-.456.728-.657.375-.335.632-.868.682-1.218.032-.232-.431-.289.314-.594.062-.105-.052-.27-.132-.25-.281.358-.135.059-.561.406-.688.031.022.042.084.094.063.053-.357.394-.166.594-.344.305-.169-.064-.385-.032-.594a.263.263 0 0 1 .22-.156c.02-.178.095-.333-.063-.469-.284.127-.28-.26-.5-.312-.031-.211-.325-.426-.125-.625.22-.116.352.208.531.281.084-.052.063-.124.094-.188.19-.115.351-.415.593-.5.084-.094-.02-.185-.03-.28.073-.084.165-.157.28-.126zm10.75.532a.123.123 0 0 1 .094 0c.136.272.719.329.719.687.01.402-.39.343-.594.313.011.167.234.318.032.5-.39.251-.602-.23-.844-.063-.263.332-.471.033-.532-.188-.042.022-.03.063-.03.094-.011.348-.383.476-.626.438-.35-.09-.397-.4-.406-.625-.103-.35.119-.487.531-.313.189-.115.177-.311.25-.468.116-.116.418.283.469-.032.316-.19.875.621.875.344v-.469c-.008-.078-.015-.193.063-.218zm-15.093 1.78c.305.014.607.162.781.376-.179.167-.23.3-.156.5-.242.137-.143.531-.469.531-.19-.032-.323-.25-.438-.344-.084.18-.376.185-.28.469.025.133-.288.268-.407.094-.272-.42-.424.274-.719-.063-.23.222-.042.795-.718.657-.215-.03-.22-.25-.188-.438-.367-.443-.736.274-1.188.063-.165-.023-.29-.255-.187-.344l.75-.375c.275-.139.362-.228.594-.313.147-.01.103.157.187.219a.702.702 0 0 1 .438-.469c.546.2.954-.5 1.468-.343.074-.052.146-.156.22-.188.097-.026.21-.036.312-.031zm18.625.032c.64-.116-.003.728.406.969.253.011.445.376.719.156-.292 1.157.976.96 1.25.75.32-.154.52.341.625.594.151-.552.259-.697.5-.625.451.033.373.487.531.781.188.085.186-.227.344-.406.253-.21.394.249.531.406.473-.105-.058-.785.375-.875 0 0 .166-.246.625.656.347.39-.019.428 0 .782.128.326.553.414.563.624.038.409-.538.53-.813.25-.208-.254-.218-.54-.438-.656 0 0-.063.503-.406.125-.045.45-.466.382-.562.094-.137-.367-.499.189-.719.094-.432-.062-.198-.56-.344-.813-.221.053-.312.29-.343.469-.134.474-1.12.65-1.094-.625l-.313.75c-.477.41-.406-.71-.75-.125l.032.031c-.158.105-.28.22-.5.25-.215-.006-.35-.115-.157-.312.313-.287.415-.955.438-1-.02-.022-.052-.074-.094-.063-.156.146-.644.22-.813.032-.136-.232 0-.696.157-.938-.116-.262-.54.002-.657-.313-.063-.23.082-.487.282-.624.21-.147.498-.164.625-.438zm5.5.031c.283.388.685.57.968.907a.355.355 0 0 1 .407-.094c0 .295.35.686.437.343.337.389.277 1.061.782 1.25.367-.114.028-.571.312-.75.39-.083 1.38.461.844.72-.063.483.738.474.812.874.076.764-.699-.098-.718.5-.062.547-.643.152-.813-.343-1.091.277-1.068-1.047-1.594-1.657h-.343c-.317-.103-1.324-.9-1.376-1.531-.01-.169.155-.207.282-.219zm-39.969.188v.312c.22-.093.415.042.594.125-.106.338.332.07.375.313.2.01.447.148.5-.157a.302.302 0 0 1 .344.063c.189-.652.694-.05 1.062-.313.378-.041.084.302.125.5.063.19.155.106.313.126.095 0 .197.114.156.218l.375.032c.136-.337.436-.364.656-.438.179.368.52-.39.656.125.262-.262.311.264.531 0-.094-.483.396-.113.47-.344.325-.157.622.28.843.469.084.284.734.634.281.875-.117.07-.593.107-.781-.281-.221.104.053.27 0 .437-.042.159-.228.135-.344.188.022.115.084.24.063.375-.053.085-.124.073-.219.062-.19-.105-.111-.51-.406-.406-.178-.126-.29-.27-.5-.281.01.116.182.305-.031.375-.096.203.17.468-.188.531-.179-.083-.26-.301-.344-.469l-.062.063c-.19.073-.395 0-.563-.063-.274.222.066.947-.437.969-.242-.19-.156-.622-.219-.875-.493-.01-.34-.645-.719-.813l-.062.063c-.137.052-.343.033-.438-.125-.304.19-.559.605-.969.438-.342-.035-.526-.198-.624-.5a1.047 1.047 0 0 0-.72 0c-.178-.369-.445.2-.718-.032-.062-.104.041-.197.094-.281.158-.22-.165-.206-.25-.313-.063-.167-.01-.353.062-.5.285-.346.694-.447 1.094-.468zm17.313 1.5c.146.294.258.049.437.25.255.32.378.405.063.531-.316-.284-.165.304-.47.219-.28-.242-.294.312-.624.281-.202-.032-.39-.04-.438-.344-.053-.263.135-.487.282-.687.283.073.529-.155.75-.25zm-16.5 1.812c.136.031.386.041.343.25-.358.484.387.195.25.657l.219-.032c.106.284.352.062.563.125l.25-.281c.135-.053.333-.085.374.094.452-.18.258.478.532.562l.031-.031c.358.347.539-.284.875-.063l-.063-.093c.136-.463.457.073.688 0 .494-.367 1.11.029 1.563.312.32.387-.143.47-.438.407-.177-.082-.448-.019-.563-.313 0 0-.202.009-.093.625.058.618-.332.375-.469.281-.074.515-1.092.77-1.313-.093-.283-.367-.382.314-.75.124-.168-.366-.414.023-.687-.062-.535-.546-.486.438-.875.531-.268.11-.774.15-.469-.468.253-.42-.08-.58-.219-.938-.272-.178-.466.041-.718.094-.231-.032-.052-.269-.125-.375-.715.375-.879-.025-.657-.344-.105-.232-.406-.061-.562-.156-.126-.063-.304-.103-.063-.219.715-.21 1.661-.29 2.375-.594zm7 .282c.123-.02.25-.027.374 0 .389.22.925.164 1.25.468.606.46.13.923-.25.719-.452-.19-.412.356-.843.125.063.105.225.468-.032.469-.283 0-.509-.206-.687-.407-.522.304-.695-.757-1-1.156.01-.053.05-.24.188-.187.267.212.63.03 1-.032zm25.656 0c.23.179.074.478.031.687.022-.053.094-.02.125-.031.367.116-.042.394 0 .625.442.19-.2.612.094.906.294-.01.487-.334.812-.375.316.01.02.333.157.438.346-.127.371.41.718.124.526.494.505-.468 1.063-.343.462.222.124.746.187 1.187.031.22.19.614 0 .813-.132.22-.441.16-.531-.032 0-.39-.342-.02-.5-.156-.073.062-.125.134-.125.219-.094.2-.257.606-.563.438-.083-.115.054-.208-.03-.313-.116.053-.114.116-.25.125-.359-.315.213-.748-.282-1l-.125.344c-.19.125-.228-.061-.281-.188-.155.353-.51.487-.5-.093-.284-.2-.489-.001-.657.25-.179.147-.82.178-.468-.563-.19 0-.353.305-.532.063.2-.569.665-1.08 1.032-1.532-.367-.294.338-.706-.125-.906.159-.272.434-.613.75-.688zm8.468.53c.052-.019.11-.03.157 0 .085.41.76.372.843.782.056.236-.207.375-.468.281.02.22.387.457.25.688-.22.19-.426.041-.688.031-.021.326-.395.145-.531.219 0 .314.311.507.406.781-.116.536-.519-.296-.687.219-.346-.052-.591-.446-.844-.688.01.322-.476.415-.656-.125-.135-.235-.364-.16-.407.188-.147.6-.784.377-.718-.032-.032-.283-.009-.57-.344-.656.022-.262.331-.123.469-.25-.116-.398.302-.33.343-.656.21-.148.313.105.407.188.337-.158.215.322.5.374.295-.157.529.104.875.032l.093-.407c.231-.082.477 0 .72 0l-.063-.28c.073-.137.259-.179.375-.157l-.157-.438a.26.26 0 0 1 .126-.093zm-10.78 3.438c.231.148-.043.477 0 .688-.027.412.737-.052 1.062-.188-.382.665-.039 1.102-.313 1.344-.157.085-.33.117-.468-.031 0-.63-.716-.174-1.032-.532-.318-.085-.525-.61-.218-.937.157-.273.554-.24.968-.344zm5.312 1.438c.385-.051.461.548.718.75l.282-.407c.262-.094.394.292.562.282.116-.063.313.008.344.187.073.312.849.073.875-.375.24.3.468.56.563.75.097.454-.335.498-.938.188 0 0-.084.455-.25.625-.483.442-.652-.962-1.125-.594-.315.487-.803.348-.781-.344-.136.21-.259.21-.5.157-.358.293-.453 1.218-.938 1.25-.37-.03-.177-.707-.187-.876.032-.272-.186-.306-.407-.124-.335.473-1.015.633-.656-.188.168-.316.197-.517-.093-.5-.435.323-1.434.609-.844 0 .158-.211.876-.534 1.156-.656.423-.217.47.341.438.656.473.148.674-.577 1.062-.125l.281-.313.25-.28a.558.558 0 0 1 .188-.063z" fill="#231f20"/></svg>