<svg xmlns="http://www.w3.org/2000/svg" width="64pt" height="64pt" viewBox="0 0 64 64"><path d="M30.504 63.563c-5.676-.266-10.91-1.883-15.586-4.82C7.941 54.358 2.898 47.421.941 39.5a32 32 0 0 1 .02-15.484c.582-2.313 1.293-4.223 2.414-6.473a28.948 28.948 0 0 1 1.941-3.352c4.196-6.316 10.579-10.96 17.848-13a31.928 31.928 0 0 1 21.2 1.383c1.019.442 2.855 1.383 3.831 1.977a31.907 31.907 0 0 1 13.078 15.304c2.93 7.254 3.086 15.38.442 22.707-.172.481-.32.934-.324 1.008a.416.416 0 0 1-.09.223c-.043.05-.211.387-.367.742-4.422 10.098-13.825 17.23-24.688 18.738-1.914.266-4.004.372-5.742.293zm2.426-4.641c.03-.055.027-.188-.024-.438l-.066-.359-.188-.016c-.175-.015-.187-.007-.156.094.016.067.055.246.082.406.035.16.078.32.106.356.062.078.18.058.246-.043zm2.89.027c.043-.078-.054-.953-.133-1.156-.039-.11-.078-.129-.222-.129-.137 0-.172.016-.153.066.06.168.126.461.157.758.02.172.05.367.074.426.05.125.215.148.273.035zm-6.554-.168c0-.027.066-.09.148-.14.125-.075.137-.098.078-.149-.129-.101-.32.059-.32.27 0 .035.02.066.047.066a.05.05 0 0 0 .047-.047zm2.765-.336c.035-.02.055-.101.047-.18-.016-.12-.039-.144-.176-.156-.14-.011-.156 0-.156.11s.11.27.184.27c.02 0 .066-.02.101-.044zm-4.379-.117c.043-.058.075-.125.106-.195l.047-.133-.203.105c-.262.133-.258.125-.188.211.078.094.168.098.238.012zm5.887-.168c.012-.09-.012-.105-.133-.105-.172 0-.234.07-.148.172.086.105.258.066.281-.067zm1.453.074c.031-.035.04-.164.028-.293-.028-.226-.032-.23-.2-.23h-.168l.032.203c.054.344.183.477.308.32zm-9.676-.097l.164-.114-.015-.394c-.02-.477-.07-.555-.274-.406-.128.097-.168.101-.332.058-.316-.09-.312-.101-.312.403v.46l.183.032c.102.015.204.039.235.047.11.039.195.02.351-.086zm8.883-.067c.106-.043.102-.36-.004-.36-.203 0-.297.247-.144.352.066.043.054.043.148.008zm2.16-.011c.036-.024.075-.133.09-.243l.028-.203h-.391l.023.207c.032.254.11.325.25.239zm.68-.114a.429.429 0 0 0 .055-.222c0-.149-.012-.16-.168-.16-.164 0-.172.007-.172.195 0 .222.148.324.285.187zm-15.523-.511c-.059-.649-.075-.704-.196-.668-.039.011-.078.023-.113.047-.035.023.25.996.29.996.03 0 .034-.145.019-.375zm17.855.246c.164-.07.3-.149.3-.172 0-.02-.21-.04-.46-.04h-.465l.07.141c.067.121.133.18.227.196.012.004.16-.051.328-.125zm-11.488-.07c.012-.024-.04-.047-.113-.047-.102 0-.153.03-.168.093-.024.086-.016.09.113.043a.39.39 0 0 0 .168-.09zm15.828-.692c-.004-.05-.047-.25-.125-.61-.02-.085-.055-.105-.156-.093-.121.012-.133.031-.13.207 0 .11.02.277.036.375.031.172.05.187.207.187.102 0 .168-.023.168-.066zm-12.844-.129c0-.094-.172-.25-.246-.219-.094.032-.152.157-.113.22.035.058.36.062.36 0zm.707-.062c-.047-.164-.164-.235-.273-.18-.086.047-.121.191-.055.258.016.02.106.03.195.03.149 0 .16-.01.133-.108zm.805.039c0-.118-.176-.29-.262-.254a.195.195 0 0 0-.11.25c.036.097.372.101.372.004zm.707-.086c-.113-.278-.43-.215-.344.066.024.07.078.09.223.09h.187zm.844.078c.011-.012 0-.043-.028-.074-.082-.079-.234-.028-.254.074-.011.078.004.086.125.058a.754.754 0 0 0 .157-.058zm-3.864-.02c-.015-.027-.058-.047-.093-.047-.04 0-.082.02-.098.047-.02.028.023.047.098.047.07 0 .113-.02.093-.047zm4.536-.031c-.016-.012-.059-.016-.09 0-.043.016-.028.023.027.027.05 0 .078-.007.063-.027zm-5.38-.156a8.034 8.034 0 0 1 1.54-.489c.465-.097.476-.109.492-.523.008-.18-.106-.234-.555-.281l-.293-.031.121.101c.07.05.184.137.258.18.074.05.13.105.121.129-.008.023-.258.105-.554.175a9.216 9.216 0 0 0-1.739.649c-.261.14-.277.156-.168.187.239.067.477.04.778-.097zm11.86.004c-.004-.192-.523-.325-1.285-.325-.473 0-.652.02-.938.11-.64.2-.496.23 1.192.242.566.008 1.031-.008 1.031-.027zm.992-.137c.11-.04.102-.367-.011-.594a1.46 1.46 0 0 1-.118-.39c-.035-.254-.058-.286-.254-.309-.125-.012-.144 0-.132.082.007.055.02.184.027.293a.886.886 0 0 0 .121.371c.055.09.09.191.105.297 0 .07.036.16.079.203.086.086.086.086.183.047zm2.985-.027c.09-.09.074-.203-.04-.348-.074-.098-.093-.168-.07-.277a.74.74 0 0 0 0-.293c-.027-.125-.054-.145-.191-.145h-.156l.003.356c0 .304.02.386.137.562.14.207.219.246.317.14zm-.98-.028c.026-.02.073-.16.112-.312.055-.254.051-.297-.05-.528-.098-.234-.11-.242-.29-.242-.206 0-.21.024-.03.332.085.137.09.184.042.344-.07.23 0 .441.137.441a.238.238 0 0 0 .078-.035zm-25.618-.242c.02-.144-.242-.695-.398-.836-.07-.066-.125-.16-.125-.215a.7.7 0 0 0-.079-.23c-.058-.121-.093-.145-.183-.117l-.192.054c-.09.028-.09.032.004.114a.61.61 0 0 1 .125.277c.02.117.075.223.16.309.07.062.184.242.254.39.075.14.149.29.168.328.063.098.25.047.266-.074zm1-.059c.309-.32.992-.46 1.215-.253.11.101.289.132.441.074.063-.028.063-.047.004-.164-.137-.266-.32-.438-.527-.492-.223-.059-.371-.204-.371-.368-.004-.129-.11-.222-.215-.183-.11.039-.153.242-.086.39.074.157.074.149-.07.188-.165.039-.329-.16-.336-.406-.004-.215-.149-.442-.274-.442-.125 0-.168.125-.105.297.035.082.039.149.008.164-.082.055-.04.219.101.38l.145.163-.133.067-.168.086c-.02.011-.067-.07-.113-.18a.61.61 0 0 0-.196-.27.263.263 0 0 1-.117-.203.985.985 0 0 0-.066-.281c-.07-.164-.078-.164-.243-.117-.171.05-.171.054-.101.191a.66.66 0 0 1 .07.274c0 .09.051.187.164.3a.74.74 0 0 1 .2.29c.046.171.117.245.226.245.055.004.106.036.121.09.11.34.219.38.426.16zm21.836.063c.094-.035.105-.215.02-.3-.032-.032-.06-.153-.067-.263-.016-.394-.172-.609-.34-.472-.058.047-.07.101-.047.21.024.083.035.223.032.313-.008.16.144.465.25.512l.07.023a.284.284 0 0 0 .082-.023zm-1.41-.238c.11-.11.101-.145-.063-.325-.12-.132-.16-.152-.234-.105-.133.078-.13.184.012.352.148.171.18.18.289.078zm.73.043c.113-.04.094-.168-.043-.446-.136-.273-.23-.332-.34-.222-.12.12-.09.332.082.523.164.184.18.192.301.145zm2.801-.14c.047-.056.039-.114-.027-.29-.086-.207-.106-.219-.274-.219-.199 0-.199-.027-.015.399.078.195.207.242.316.11zm-20.492-.325l.543-.285.355.242c.332.223.38.234.59.21.23-.023.234-.027.234-.202 0-.157-.039-.22-.246-.414-.132-.125-.238-.25-.238-.274 0-.172-.46-.043-1.223.344-.425.215-1.183.648-1.257.715-.016.015.136.008.336-.012.316-.031.44-.074.91-.324zm14.773.117c.16-.312.723-.547 1.32-.547.32 0 .352-.008.41-.12.036-.067.055-.134.04-.15-.016-.015-.223-.05-.461-.081-.524-.063-.758-.012-1.176.257-.273.172-.637.559-.637.668 0 .028.07.063.157.07l.218.032c.032.004.09-.055.13-.129zm-12.035-.207a3.23 3.23 0 0 1 .375-.473c.27-.27.27-.261-.082-.324-.164-.027-.191-.012-.402.211a2.957 2.957 0 0 0-.371.535l-.153.301.258-.016c.246-.011.258-.02.375-.234zm16.887.066c.144-.129.113-.21-.082-.21-.13 0-.168.023-.168.09 0 .081.082.202.136.202a.303.303 0 0 0 .114-.082zm-5.668-.168c.074-.082.281-.257.453-.39l.309-.235h-.317c-.183 0-.336.024-.36.055-.023.035-.042.031-.066-.008-.027-.039-.097-.05-.21-.027-.153.027-.176.05-.176.168 0 .07.02.156.047.184.035.03.019.09-.047.171-.121.157-.121.172-.016.2.184.05.242.03.383-.118zm-3.434-.332c.055-.039.043-.05-.062-.05-.082 0-.125.02-.11.05.04.059.078.059.172 0zm2.578-.05c.063-.114-.015-.164-.21-.137-.102.012-.114.031-.075.125.047.137.215.144.281.008zm-1.754 0c0-.028-.05-.047-.12-.047-.067 0-.118.02-.118.047s.05.05.117.05c.07 0 .121-.023.121-.05zm.868-.036c.011-.039-.032-.062-.13-.062-.148 0-.19.043-.116.113.05.055.222.016.246-.05zm-10.23-.093a.454.454 0 0 0-.04-.227c-.055-.133-.105-.168-.293-.21-.25-.06-.297 0-.129.155.059.047.102.114.102.153 0 .097.18.258.262.226a.172.172 0 0 0 .097-.097zm-3.442-.137c.058-.156.183-.172.433-.05.297.14.391.1.465-.196.059-.25.113-.266.38-.113.155.093.206.101.312.054.109-.05.308-.336.265-.379-.043-.043-.84-.12-1.273-.12-.488 0-.5 0-.496.109.004.082-.028.113-.117.125-.192.023-.438.168-.438.261 0 .118.234.38.344.38.054 0 .11-.032.125-.071zm8.625-.676a.25.25 0 0 0-.059-.12c-.031-.032-.07-.177-.086-.313-.027-.27-.125-.352-.27-.227-.09.07-.097.484-.011.59.105.137.426.191.426.07zm.75-.113c-.047-.293-.114-.492-.196-.555-.043-.035-.14-.187-.218-.343-.145-.293-.262-.36-.383-.215-.07.086.012.3.265.68.09.14.172.304.172.359 0 .191.051.254.223.254.168 0 .168 0 .137-.18zm.68.059c-.087-.133-.212-.157-.301-.067-.121.121-.067.188.16.188h.219zm1 .082a.145.145 0 0 0-.04-.086 1.243 1.243 0 0 1-.132-.305c-.106-.3-.172-.367-.313-.324-.125.039-.125.144.008.48.101.27.11.274.289.274.102 0 .187-.016.187-.04zm.78-.032c0-.011-.042-.12-.1-.246a1.159 1.159 0 0 1-.095-.363c0-.082-.062-.195-.156-.3a1.818 1.818 0 0 1-.246-.325c-.086-.168-.258-.211-.312-.078-.036.09.218.637.308.672.035.015.067.086.067.152a.85.85 0 0 0 .097.316c.086.168.117.192.266.192.094 0 .172-.008.172-.02zm.712-.09c-.004-.078-.028-.152-.051-.23-.067-.23-.168-.324-.293-.277-.09.039-.098.132-.024.394.051.176.063.184.204.156a.848.848 0 0 0 .164-.043zm.75-.082c.129 0 .117-.144-.028-.34-.066-.093-.125-.21-.125-.269 0-.164-.336-.566-.457-.547-.148.02-.156.207-.008.399.07.093.125.187.125.222 0 .121.274.578.332.555a.748.748 0 0 1 .16-.02zm6.492-.152c.203-.21.508-.379.687-.383.102 0 .114.024.114.246v.25l.23-.03c.492-.075.45-.005.45-.735s.042-.657-.45-.73l-.23-.036v.348c0 .328-.008.347-.118.347-.34 0-.902.368-1.199.786l-.101.136h.21c.188 0 .239-.027.407-.199zm-12.164.074c.047-.05.07-.113.047-.16-.032-.086-.051-.18-.07-.265-.048-.25-.286-.493-.43-.446-.133.04-.137.223-.008.34a.32.32 0 0 1 .101.223c0 .125.16.386.239.386.023 0 .078-.035.12-.078zm9.77.047c.085-.09-.278-.504-.438-.504-.063 0-.114.008-.114.02a.604.604 0 0 1-.027.09c-.043.117.258.425.414.425.07 0 .145-.015.164-.03zm.714-.015c0-.075-.246-.247-.351-.247-.102 0-.16.11-.118.22.028.081.47.105.47.027zm-1.539-.114c-.098-.332-.312-.62-.453-.62-.14 0-.184.136-.086.288.043.067.117.196.164.285.066.133.113.16.25.16.145 0 .16-.011.125-.113zm-12.016-.011c-.062-.164-.355-.204-.355-.043 0 .05.074.078.324.109.035 0 .051-.023.031-.066zm1.563-.059c.035-.09-.191-.496-.297-.535-.039-.016-.105.008-.148.05-.075.07-.07.094.011.278.141.309.356.41.434.207zm.629.102c.133-.051.101-.383-.055-.579-.148-.187-.277-.218-.348-.082-.035.07-.023.133.047.246a.612.612 0 0 1 .094.223.27.27 0 0 0 .074.145c.09.09.086.09.188.047zm7.512-.176c.011-.09-.032-.18-.133-.293-.09-.094-.172-.196-.258-.297-.117-.145-.25-.137-.305.004-.031.09.137.394.274.492a.25.25 0 0 1 .09.176c0 .097.011.105.156.078.125-.024.16-.059.176-.16zm1.66.113c0-.02-.055-.082-.125-.125-.114-.074-.13-.074-.254.004l-.13.09.122.031c.176.05.387.05.387 0zm-1.051-.133c.125-.047.09-.246-.074-.433-.258-.293-.516-.133-.29.175a.613.613 0 0 1 .106.215c0 .074.125.094.258.043zm.684-.21c.023-.024-.004-.11-.07-.196-.188-.266-.438-.11-.286.18.05.093.09.109.188.086a.482.482 0 0 0 .168-.07zm-11.399-.137c0-.125-.05-.164-.133-.102-.097.082-.074.188.035.188.063 0 .098-.032.098-.086zm6.457-.043c.008-.059-.031-.2-.086-.305-.082-.156-.129-.203-.21-.188-.09.012-.106.047-.102.196.008.238.14.433.273.418a.141.141 0 0 0 .125-.121zm-4.5-.54c.035-.171.063-.203.152-.203.063 0 .168.043.243.098.14.113.273.094.273-.031 0-.063.027-.07.121-.051.102.027.13.012.172-.09.04-.101.066-.117.191-.09.086.016.149.008.149-.02 0-.03-.379-.109-.84-.183-1.375-.21-1.8-.3-2.332-.488-.504-.176-.895-.266-1.305-.293a2.71 2.71 0 0 1-.351-.047c-.102-.027-.133-.02-.133.04 0 .112-.133.136-.285.05-.176-.106-.278-.066-.317.129-.023.113-.05.144-.148.144-.066 0-.133-.02-.152-.047-.016-.027-.078-.046-.145-.046-.156 0-.191.144-.09.37.043.106.074.25.07.325-.007.125.004.137.114.113.07-.02.137-.004.176.04.07.09.257.097.386.011.078-.047.118-.047.196 0 .144.09.273.078.355-.035.059-.086.09-.09.195-.043.102.047.145.043.207-.004.047-.043.086-.047.11-.016.277.407.445.493.605.309.11-.129.16-.125.29.023.128.149.253.153.347.016l.078-.11.145.137c.148.145.308.145.363.004.035-.097.191-.086.289.02.063.07.129.086.293.07.152-.02.219-.004.27.055.12.144.261.074.308-.156zm-8.191-.421l-.016-.114-.539.164.54.36.015-.145c.008-.082.008-.199 0-.265zm-5.649.218c.063-.168.121-.175.352-.058.152.082.183.082.453.02.156-.044.27-.09.25-.11a2.491 2.491 0 0 0-.406-.098 3.38 3.38 0 0 1-.547-.133c-.18-.07-.38-.027-.38.086 0 .024-.108.043-.233.036-.22-.008-.399.062-.395.152 0 .117.113.164.418.184.184.011.34.027.352.046.046.043.082.012.136-.125zm27.645.028c.07-.09.094-.094.234-.028.145.055.164.055.227-.027.039-.05.058-.098.047-.11a4.598 4.598 0 0 0-.403-.085c-.273-.047-.386-.051-.41-.012-.023.043-.058.04-.11-.008-.097-.078-.292-.05-.312.051-.008.04.04.129.106.203.152.164.496.172.62.016zm-29.653-.809a4.687 4.687 0 0 0-.347-.39c-.012 0 .027.085.086.183.058.102.21.36.332.57l.226.391.016-.184c.012-.16-.02-.222-.313-.57zm39.622-.008c.21-.25.226-.28.257-.636l.036-.38h.667c.872 0 1.157-.077 1.024-.296-.035-.055-.195-.063-.875-.05l-.836.019.016-.836.023-.84-.176-.09c-.156-.086-.3-.094-2.062-.094-1.262 0-1.875.02-1.824.051.039.027.128.035.203.023.113-.023.133-.011.16.118.02.086.07.18.12.21.052.028.075.09.063.157-.011.054.02.156.07.219.134.16.259.105.259-.11 0-.094.03-.195.074-.226a.272.272 0 0 0 .07-.18c0-.082.027-.113.094-.113.066 0 .11.058.16.207.043.14.14.265.27.343.113.07.207.164.207.196 0 .031.03.105.066.156.059.074.082.078.145.023.058-.046.074-.113.046-.246-.023-.152-.011-.195.075-.238a.28.28 0 0 0 .117-.164c.011-.105.023-.102.195.07.106.102.195.188.203.188.067 0 .172-.172.172-.274 0-.164.09-.144.172.043l.07.157v-.25c.004-.282.043-.336.227-.286l.125.032-.028.617c-.023.61-.042 1.223-.054 1.832l-.031 1.215.136-.153c.078-.082.239-.27.364-.414zm-35.559-.02c0-.015-.082-.144-.18-.28l-.18-.25-.035.144c-.054.262-.043.32.067.363.129.051.328.067.328.024zm18.07-.222l.68-.012-1.012-.043c-.55-.023-1.043-.027-1.093-.007-.106.05.32.117.574.086.093-.008.472-.02.851-.024zm-2.015-.246l.09-.113v.113c.003.133.042.133.218-.008l.14-.117.024-1.082c.024-1.05.02-1.082-.07-1.047a2.2 2.2 0 0 1-.3.086l-.204.047v1.004c0 .555-.016 1.055-.031 1.117-.016.059-.012.106.008.106.015 0 .07-.047.125-.106zm10.937-.539c0-.352.016-.82.031-1.035l.032-.399-.348-.035c-.195-.02-.363-.023-.383-.008-.012.016-.023.422-.023.907 0 1.015.004 1.008-.453.953-.176-.024-.29-.012-.356.027-.082.05-.117.047-.203-.031-.098-.09-.113-.09-.238-.02-.117.07-.157.07-.301.012-.121-.055-.188-.059-.25-.023-.11.07-.246.07-.48-.004-.149-.043-.215-.04-.313.011-.098.055-.152.055-.281.012-.192-.074-.407-.078-.442-.02-.062.106.868.2 1.989.208.722.004 1.418.035 1.933.082.078.008.086-.051.086-.637zm-13.656.465c.012-.125.035-.137.21-.137.161 0 .196-.016.196-.09 0-.129-.336-.21-.5-.12-.09.046-.137.042-.285-.036l-.176-.094-.074.114c-.094.14-.21.136-.352-.012-.085-.094-.156-.117-.312-.113-.125 0-.25-.02-.363-.063-.153-.066-.168-.062-.239.04a.253.253 0 0 1-.21.112c-.192 0-.176.094.038.23.145.099.313.134.934.204 1.11.125 1.113.125 1.133-.035zm-10.004-.008l.293-.09.012-.828.015-.824.399-.031c.218-.012.758-.047 1.187-.063l.793-.031v-.34l-.793.031c-.386.016-.773.035-1.164.067l-.375.027v-.156c0-.145-.012-.157-.11-.13a6.839 6.839 0 0 1-.362.083l-.258.058v.758c0 .414-.016.942-.032 1.16-.035.461-.054.45.395.309zm-7.344-.07l.293-.067.024-2.36-.106.028a1.917 1.917 0 0 1-.363.035h-.246l-.031.668-.063 1.243-.031.57.117-.027zm25.707-.04c.356-.074.239-.16-.168-.113-.304.032-.367.063-.289.137.043.047.168.043.457-.023zm11.719-.265l.168-.176.598.035.597.028v-.328l-.375-.032c-.703-.062-.886-.047-1.066.09l-.164.13-.32-.24-2.618-.034c-1.437-.016-2.675-.043-2.75-.059-.203-.039-.222.082-.066.426l.133.297 1.703-.04c1.66-.03 1.707-.034 1.933-.148.208-.101.29-.113.887-.113h.66l.227.172c.121.09.234.168.254.168.02 0 .105-.082.199-.176zm-34.3-.176c-.009-.199.019-.218.41-.328.261-.07.456-.094.566-.074.379.07 1.015-.11 1.082-.309.015-.027.348-.125.738-.207l.719-.156v-.164c0-.09-.024-.16-.05-.16-.122 0-1.294.27-2.333.543-.633.164-1.277.312-1.437.328-.32.031-.489.113-.77.351l-.184.16.258-.015c.145-.008.348.008.457.035.29.07.543.067.543-.004zm23.023-.21l.008-.981.003-.77-.254-.039c-.14-.023-.269-.027-.289-.011-.02.02-.043.484-.05 1.027l-.02.996h.598zm-15.13-.594c0-.34.012-1 .028-1.465l.027-.844-.23.035c-.48.07-.438-.078-.453 1.5l-.012 1.395h.637zm6.727.39a6.69 6.69 0 0 0 .032-.703v-.516l-.325-.054a1.881 1.881 0 0 0-.336-.04c-.02.485-.027.973-.023 1.458 0 .02.14.039.313.039h.308zm12.235-.082v-.16l-1.055-.031a87.025 87.025 0 0 0-1.754-.032h-.691v.34l1.008.012 1.75.023.742.012zm-10.344-.515c.008-.079.008-.157-.004-.168-.012-.016-.355-.024-.766-.024h-.742l-.02.145c-.011.078-.007.156.005.172.011.011.355.023.761.023h.743zm20.89.09c.032-.036.06-.196.06-.368 0-.3 0-.304-.161-.344l-.156-.039-.016.336c-.008.188-.004.367.012.407.027.082.183.086.262.007zm.778 0c.035-.036.059-.2.059-.395 0-.29-.012-.332-.075-.309a.664.664 0 0 1-.175.032c-.079 0-.09.039-.09.304 0 .293.05.426.168.426.03 0 .078-.027.113-.059zm-24.547-.153v-.164l-1.074-.04c-.59-.015-1.145-.054-1.227-.077-.191-.059-2.55-.332-2.87-.336h-.231v.34h.23c.336.004 2.676.28 2.75.324.067.043.926.094 1.824.105l.598.012zm25.598.082c.062-.055.078-.184.078-.555v-.484h-.34v.5c0 .586.07.73.262.54zm-10.551-.129a.456.456 0 0 0 .074-.215c0-.097-.023-.113-.168-.113-.238 0-.316.18-.16.379.074.09.168.07.254-.05zm.805-.039c.066-.125.058-.133-.137-.172-.133-.027-.156-.015-.156.063 0 .203.203.277.293.11zm2.82-.144c0-.16.031-.29.094-.375a.984.984 0 0 0 .12-.27c.028-.113.013-.133-.081-.133-.106 0-.782.246-.844.305-.016.016.086.113.223.215.195.136.246.199.226.277-.031.121.047.227.168.227.078 0 .094-.035.094-.246zm-32.074-.106c.05-.094.074-.2.074-.305 0-.156.02-.207.11-.246a.22.22 0 0 0 .124-.156c.016-.105.004-.11-.39-.11-.54 0-.578.04-.332.27.168.16.195.215.195.39 0 .286.086.349.219.157zm-.996-.133c.117-.12.117-.144.023-.281-.074-.105-.07-.11.024-.11.074 0 .097-.03.097-.12 0-.114-.008-.118-.25-.09-.36.035-.383.043-.383.183s.016.145.157.07c.093-.046.097-.042.066.094-.035.153.035.348.121.348.027 0 .09-.043.145-.094zm2.14-.277c0-.137-.02-.164-.16-.203-.082-.028-.164-.055-.25-.082-.078-.035-.082-.028-.027.082a.565.565 0 0 0 .125.152c.031.02.047.078.031.133-.016.066.008.125.07.172.075.058.098.055.153-.016a.5.5 0 0 0 .058-.238zm1.117.18c0-.028-.043-.07-.093-.102-.078-.039-.102-.035-.102.023 0 .063.063.11.16.122.02 0 .035-.02.035-.043zm38.91-.621c.094-.243.005-.286-.152-.063-.078.105-.136.219-.117.246.047.074.215-.043.27-.183zm-31.464-.426c.023-.14.011-.184-.055-.223-.14-.078-.191-.05-.273.125-.075.152-.075.172.004.293.078.117.09.121.19.059a.407.407 0 0 0 .134-.254zm-7.004.156c0-.047.008-.047.035 0 .05.074.547.027.57-.055.008-.027.032-.136.047-.234l.028-.184h-1.415v.168c0 .094-.003.192-.011.211-.016.043.379.149.586.153.097.004.156-.02.16-.059zm36.582-.11c.016-.09-.004-.144-.067-.187-.058-.031-.093-.11-.093-.187 0-.094-.024-.137-.082-.137a1.12 1.12 0 0 1-.196-.027c-.09-.024-.105 0-.156.222-.094.438-.094.438.258.438.297 0 .312-.008.336-.121zm-3.906.051c0-.07-.696-.226-1.02-.226-.324 0-1.02.156-1.02.226 0 .012.458.024 1.02.024.563 0 1.02-.012 1.02-.024zm6.09-.144a.472.472 0 0 0 .039-.195c0-.137-.004-.137-.149.086-.05.082-.101.164-.14.253 0 .04.21-.082.25-.14zm-16.555-.16l-.016-.282-.3-.015c-.325-.012-.34 0-.247.222.082.192.282.352.442.352.136.004.136 0 .12-.277zm6.808 0c.29-.153.63-.328.766-.383l.242-.106-.172-.027c-1.277-.2-1.89-.262-2.09-.223-.12.024-.667.07-1.214.102l-.996.059-.215-.137c-.176-.11-.23-.121-.34-.082-.07.027-.621.074-1.223.105-.601.032-1.101.063-1.11.07-.01.012-.003.196.016.415l.036.39.59.004c.324.004 1.19.02 1.93.043.733.016 1.769.035 2.296.043l.96.008zm-27.668.129c.164-.055.301-.121.301-.145 0-.023-.152-.043-.344-.043h-.34v.145c0 .175-.003.172.383.043zm2.434.03c.05-.054.043-.062-.04-.038-.124.031-.183.113-.085.113.04 0 .094-.035.125-.074zm8.758-.108c0-.04.035-.102.07-.13.035-.03.078-.136.09-.238l.031-.18h-.289c-.215 0-.289.016-.289.063 0 .04-.016.164-.031.29-.035.237-.008.26.285.273.094.004.133-.02.133-.078zm.758.011a.262.262 0 0 0 .07-.16c0-.047.043-.16.098-.246l.097-.16-.61.031-.015.188c-.027.34.176.535.36.347zm1.226-.226l.016-.274-.422-.031c-.227-.016-.438-.02-.465-.004-.078.05-.043.2.078.316.067.06.125.153.125.204 0 .082.031.09.328.078l.328-.016zm-2.762.027v-.215h-.34c-.292 0-.34.012-.34.082 0 .051-.015.133-.027.196-.03.113.04.136.477.152l.23.008zm9.63.008v-.16l-.403-.032c-.219-.02-.754-.03-1.187-.03h-.79v.12c0 .117.004.121.383.121.317 0 .399-.015.434-.086.047-.082.05-.082.117 0 .047.063.195.094.691.137.344.027.641.063.653.074.062.063.101.004.101-.144zm16.804-.043c.188-.219.484-.711.445-.742-.007-.012-.218.035-.468.113l-.453.133.027.218c.031.286.11.485.2.485.038 0 .148-.09.25-.207zm-3.988.09c.265-.028 1.168-.235 1.219-.282.007-.007-.317-.062-.735-.109-.691-.086-.773-.086-1.027-.016-.223.059-.469.07-1.16.055l-.88-.016.587.172c.578.168 1.207.266 1.53.235l.462-.04zm-24.328-.239c.023-.101.039-.191.027-.199a2.318 2.318 0 0 0-.281-.039c-.317-.02-.336.031-.125.277.191.227.324.215.379-.039zm8.925.11c.04-.059.059-.11.051-.114a1.6 1.6 0 0 0-.273-.046c-.25-.036-.254-.032-.254.086 0 .105.027.125.183.14.098.008.192.02.208.028.011.003.05-.04.085-.094zm-9.68-.156c.087-.23.087-.23-.179-.23-.203 0-.238.015-.262.112-.054.18-.039.22.075.246.27.051.308.036.367-.128zm8.962.035c0-.047-.059-.07-.168-.07-.227 0-.266.081-.067.136.18.05.235.035.235-.066zm-9.668-.121a.866.866 0 0 0 .011-.145s-.05.066-.113.145c-.101.14-.101.148-.015.148.07 0 .101-.043.117-.148zm-6.926-.024c.023-.02.113-.855.094-.879-.012-.011-.13.012-.258.055-.203.059-.445.066-1.527.043-1.258-.031-1.293-.035-1.442-.149-.195-.14-.238-.144-.332-.007-.07.101-.082.105-.629.043-.394-.043-.789-.09-1.18-.145-.39-.055-.68-.07-.773-.047-.219.055-1.254.137-1.812.14-.454 0-.52-.01-.676-.12-.145-.094-.196-.11-.301-.067-.11.04-1.285.13-1.844.137-.152.004-.156.008-.156.2 0 .16-.02.202-.098.226-.086.02-.097.05-.07.176a.606.606 0 0 0 .059.18c.039.038 1.37.054 1.37.015 0-.023-.03-.172-.07-.332-.101-.434-.113-.414.246-.414.27 0 .32.012.293.07-.066.184-.18.672-.156.695.043.04 2.235.04 2.383-.003.082-.024.125-.02.105.007-.085.141 2.434.13 3.22-.015.468-.086.519-.086.898-.012.215.043.41.102.43.14.058.087 2.117.153 2.226.063zm1.437.024c.012-.012.032-.188.04-.387l.015-.367-.504-.063c-.277-.035-.52-.047-.547-.023-.02.023-.05.23-.07.472l-.031.43.531-.02c.297-.011.55-.027.566-.042zm-6.253-.032a.547.547 0 0 0-.196 0c-.062.012-.023.02.086.02.106 0 .156-.008.11-.02zm25.484-.394l-.016-.278-.437-.011c-3.348-.11-14.403-.387-14.426-.364a.739.739 0 0 0-.063.243l-.03.207h.734c.71 0 .73 0 .703.097-.032.09-.008.094.472.094.274 0 1.934.035 3.688.074 1.75.035 3.906.082 4.789.102 1.848.039 4.266.098 4.465.11.137.007.137.007.12-.274zm8.422.21c-.043-.058-.078-.066-.13-.019-.093.074-.085.09.063.09.11 0 .118-.012.067-.07zM22.289 46.7c.648-.105 1.586-.199 2.211-.234l.219-.012.031-.219c.012-.078.02-.148.02-.226 0-.008-.438.078-.977.183l-1.762.34c-.71.137-.789.16-.789.246 0 .09.02.098.156.07.086-.019.489-.085.891-.148zm32.117-.172c0-.148-.023-.21-.113-.27-.105-.066-.11-.097-.09-.464l.024-.39-1.04.015c-.874.012-1.066.027-1.195.098-.133.074-.293.086-1.11.086-.527 0-1.046-.024-1.163-.055-.176-.043-.23-.04-.328.027-.11.07-.301.067-2.22-.02-1.948-.093-2.112-.109-2.273-.202l-.171-.102-.114.102c-.09.09-.168.105-.496.105-.265 0-.418-.023-.484-.074-.125-.094-.297-.09-.352.004-.039.074-.187.078-1.433.062l-1.395-.02-.008.118c-.008.273.016.957.04.98.011.012.058-.027.109-.093.082-.114.09-.114.965-.094.855.015.886.012.992-.094.144-.133.156-.133.32-.016.117.083.27.098 1.203.137.59.024 1.078.028 1.082.012a.792.792 0 0 1 .082-.125c.067-.094.07-.09.184.012.094.09.238.117 1.004.195l.894.094.047-.137c.028-.074.059-.137.07-.137.016 0 .09.059.172.121.09.075.184.118.25.106.059-.016.215-.04.348-.059a.608.608 0 0 0 .402-.18l.16-.152.133.153.133.156 1.07.05 1.063.055.16-.183c.137-.157.168-.176.211-.11.18.297.156.293 1.191.383.536.05 1.133.09 1.325.094l.351.004zm1.75-.199c1.051-.32 1.164-.363 1.356-.543.199-.18.215-.187.3-.113.086.082.102.078.278-.098.16-.16.168-.176.058-.148-.566.168-1.066.23-1.543.199-.464-.031-.546-.02-1.128.125l-.63.156v.407c0 .374.008.41.083.39zm.672.172c-.02-.023-.058-.023-.094-.008-.039.02-.027.028.028.031.05 0 .082-.007.066-.023zm.5-.121c.121-.074-.098-.05-.293.027l-.172.07.196-.027c.093-.011.18-.035.27-.07zm-34.152-.8c.695-.145 1.273-.267 1.289-.267.023 0 .035-.144.035-.32v-.32l-.156.031c-.293.07-.586.14-.88.219l-.718.187v-.152c0-.25-.05-.297-.3-.258-.235.031-.278.094-.278.375 0 .102-.043.153-.14.211-.083.04-.157.106-.173.149-.05.125-.035.41.016.41.027 0 .617-.117 1.305-.266zm-2.16.01c.027-.128.015-.214-.016-.222-.027-.012-.05-.164-.05-.351v-.336h-.962c-.746.004-1.004.02-1.156.078-.145.058-.402.078-1.043.082-.617.008-.98.035-1.316.101-.567.114-1.875.137-1.934.04-.043-.075-.793-.231-1.406-.301-.262-.032-.477-.086-.586-.149l-.172-.101-.102.097c-.093.094-.175.102-.945.106-.465.004-.855-.004-.871-.024-.086-.086-.105.008-.082.325.05.53.086.554.84.59.34.015.836.046 1.105.058l.489.027.12-.257.122.101c.097.074.203.102.418.102.277 0 .289-.008.34-.145l.05-.144.168.125c.16.12.2.129 1.118.175l.953.043.156-.152.16-.152.266.312 1.07.047 1.074.047.153-.184.156-.183.113.164.137.191c.015.024.648.063 1.355.09l.246.008zm18.906-.206a2.171 2.171 0 0 0-.031-.313c-.036-.035-1.965-.394-2.496-.468-.743-.094-1.614-.086-2.926.03-.602.052-1.418.106-1.809.126-.398.02-.722.05-.722.066 0 .07-.243.196-.52.27-.336.086-1.57.101-2.223.023-.754-.09-2.129-.297-2.433-.37-.34-.071-.68-.13-1.02-.192a25.091 25.091 0 0 1-.844-.149c-.101-.023-.105-.011-.105.395 0 .293.02.418.059.433.035.012 1.285.047 2.785.075 3.234.058 4.515.101 4.468.144-.023.024 7.305.242 7.688.227l.14-.008zm-30.695.148l.878.04v-.15c0-.081-.015-.28-.035-.448l-.03-.309-.813.027c-.446.02-.84.043-.883.059-.04.016-.07.098-.074.188a9.91 9.91 0 0 1-.04.417c-.03.239-.027.262.043.208.059-.055.266-.06.954-.032zm45.925-.277c-.257-.113-.257-.113-.257.125v.223l.222-.137.215-.133zm-4.418-.188c.52-.046.536-.05.762-.242l.23-.195.083.137c.07.12.125.148.336.175.367.043.66.036.972-.03.235-.048.301-.044.406.023.075.039.23.09.352.105.117.02.254.047.309.063.07.02.082 0 .07-.114-.016-.125-.086-.168-.863-.535-1.11-.52-1.465-.617-2.141-.59-.441.016-.586.043-1.023.203-.282.102-1.032.36-1.672.582l-1.16.403.406.035c.222.016.601.031.84.031.394 0 .453-.012.664-.144l.234-.145.207.164c.145.117.246.16.328.145.074-.008.367-.04.66-.07zm-3.593-.78c.183-.056.683-.266 1.105-.47 1.059-.5 1.371-.597 1.934-.632.437-.024.523-.012 1.363.199.492.117 1.035.246 1.215.277.367.07 1.488.082 1.547.02.047-.055.222-2.785.187-2.828a2.27 2.27 0 0 0-.383-.075c-.543-.082-1.058.008-2.152.371-1.945.657-3.145.993-3.906 1.098-.32.05-.504.047-.899-.008-.297-.035-.996-.062-1.715-.062-1.753-.004-3.656-.106-4.492-.239l-.703-.109.035.367c.028.364.051.41.266.535.062.036.055.083-.059.282-.113.21-.132.3-.132.636 0 .348.011.399.09.403.296.011.913.097 1.199.164.195.043.683.09 1.12.11.653.019.95.003 1.856-.102.418-.055.836-.098 1.254-.13h.18l-.102.13a.53.53 0 0 0-.101.175c0 .086.918.008 1.293-.109zm-26.172-.235l.035-.313-.309.032c-.32.027-1.316.273-1.57.382l-.145.063.243.015c.132.012.386-.007.566-.039.281-.054.34-.054.457.02.11.059.64.18.684.156.004-.004.023-.144.039-.316zm-5.633.043c.133-.082.176-.09.285-.04.176.079.566-.015 2.035-.503 1.13-.375 1.801-.528 2.824-.645.247-.031.274-.047.22-.11-.052-.062-.048-.081.019-.12.074-.043.14-.098.203-.153.11-.105.117-.136.144-.992l.028-.89h-.328c-.727 0-1.485.164-3.036.652-1.214.387-1.433.441-2.156.566-.722.125-2.074.145-2.18.036-.042-.04-.363-.122-.718-.18-.871-.145-1.223-.235-1.29-.324-.054-.07-.23-.075-1.616-.032-.856.024-1.575.055-1.59.07-.016.016-.012.419.004.887l.035.852.273-.023c.137-.016.274-.028.41-.047l.133-.02-.152.242c-.086.133-.14.254-.133.262.05.043.574.125.836.125.394 0 .676-.055 1.832-.34 1.176-.293 1.703-.363 2.21-.289.622.082.595.059.571.57l-.02.438.212.047c.379.086.77.07.945-.04zm17.137-.29c.367-.054.504-.097.293-.097a9.284 9.284 0 0 1-.758-.133c-.715-.148-.696-.148-1.258.18l-.246.144.805-.02c.441-.01.964-.05 1.164-.073zm7.343-.206c-.004-.145-.035-.618-.062-1.059-.047-.676-.07-.805-.137-.816-.054-.012-.195.148-.437.496-.325.465-.38.515-.59.59-.188.062-.254.117-.328.273-.086.16-.16.215-.496.375l-.403.184.801.039c.648.03 1.184.086 1.617.168.024.004.035-.11.035-.25zm-9.265-.098c.207-.11.37-.215.37-.23 0-.016-.304-.18-.679-.364l-.676-.336-.222.086c-.203.074-.32.188-.32.309 0 .082.992.738 1.128.742.024 0 .2-.094.399-.207zm6.324-.012c.113-.09.3-.187.418-.218.473-.122.523-.153.723-.418.164-.215.242-.274.46-.344.25-.074.282-.106.5-.45.13-.199.243-.378.25-.398.008-.02-.07-.047-.171-.058-.172-.02-.203 0-.5.277-.707.66-1.492 1.16-2.285 1.465-.27.101-.48.191-.47.203.02.02.56.094.755.101.066.004.203-.062.32-.16zm19.008-.101c.457-.106.531-.114.594-.051.12.121.586.144 1.675.082 1.38-.074 1.375-.074 1.516-.27.062-.086.234-.257.383-.375.144-.117.312-.289.375-.378.11-.165.289-.668.25-.7-.008-.011-.633.051-1.383.145-.742.086-1.488.164-1.648.164-.434 0-.875-.121-1.32-.363-.368-.2-.41-.211-.852-.227l-.465-.02-.031.727c-.016.399-.032.895-.032 1.102v.375l.207-.043zm-30.738-.926c.007-.578 0-1.059-.012-1.063a1.427 1.427 0 0 0-.258-.046l-.23-.036.011.672.016.672.312.102-.187.297c-.106.164-.219.316-.254.336-.082.046.117.101.406.109l.18.004zm-19.352.922c.121-.063.266-.082.629-.07.308.003.473-.008.473-.043 0-.028-.036-.047-.082-.047-.047 0-.125-.047-.184-.098-.09-.09-.191-.102-1.145-.121l-1.046-.02.132.102c.137.102.825.367.977.371a.69.69 0 0 0 .246-.074zm2.055-.492c-.012-.125-.04-.512-.055-.86l-.031-.625-.664.032c-.36.015-1.364.03-2.23.03-1.067 0-1.567.016-1.548.052.02.03.22.039.551.02l.52-.028-.414.226a21.03 21.03 0 0 0-.43.25c-.031.02.223.375.332.477.082.074.144.074.836.004 1-.106.941-.086 1.015-.34.051-.191.067-.211.16-.18.07.031.118.11.157.254.05.211.055.215.488.395.473.195.496.187.504-.121.004-.133.066-.164.18-.094.031.02.082.133.11.254.026.12.066.222.089.23.074.04.14.082.21.133a.87.87 0 0 0 .208.121c.023 0 .027-.105.012-.23zm21.07-.395c.23-.121.348-.32.25-.418-.059-.055-1.113-.242-1.152-.207-.032.035.582.719.644.719.043 0 .156-.047.258-.094zm19.656-1.18c.477-.074.86-.203 1.852-.629 1.527-.652 2.047-.722 3.242-.437.75.172.773.176.691.074-.054-.058-.039-.097.07-.21a.502.502 0 0 0 .141-.301c.008-.153-.004-.16-.285-.25-.5-.149-1.035-.2-1.465-.137-.207.035-.949.246-1.648.469-2.484.808-3.555 1.074-4.18 1.023a4.512 4.512 0 0 1-.82-.176c-.582-.18-.824-.183-2.262-.054-.57.058-1.34.113-1.715.132-.976.047-.953.102.078.207.27.028.684.086.922.13.672.12 2.051.116 3.262-.02a106.97 106.97 0 0 0 1.207-.13l.234-.023-.12.164c-.114.149-.118.168-.048.192.16.039.524.031.844-.024zm-33.601-.336c.484-.097.894-.21 2.254-.628.91-.278 1.515-.391 2.652-.512.418-.043.867-.094.996-.113l.246-.036.012-.203.015-.207h-.628c-1.176 0-2.332.164-4.602.664-.8.172-1.781.375-2.164.453l-.707.13-.016.23c-.011.164.004.234.059.25.348.137 1.133.125 1.883-.028zm46.246-.347c.133-.309.086-.442-.18-.524a1.799 1.799 0 0 1-.293-.129c-.101-.066-.14-.05-.46.13-.196.109-.52.277-.72.374l-.367.176.531.035c.297.028.704.075.903.11.199.039.387.074.422.078.027 0 .101-.11.16-.25zm-33.133.027c.02-.066-.098-.094-.516-.144-.289-.032-.308-.028-.293.058.016.063.078.102.192.121.25.051.593.028.617-.035zm-19.219-.125c.453-.074 1.848-.41 1.95-.472.07-.04-.067-.051-.54-.051-.699 0-1.972.09-2.035.144-.055.047-.133.399-.101.45.023.035.171.023.726-.07zm-1.148-.058c0-.223-.043-.274-.266-.274-.18 0-.226.024-.312.145l-.102.144.16.043c.09.031.239.05.34.055.16.004.18-.008.18-.113zm17.46-.172c0-.172-.027-.196-.34-.235-.222-.023-.257-.015-.327.09a.391.391 0 0 0-.086.164c0 .055.242.11.55.117.196.008.204 0 .204-.136zm19.817-.43l.191-.035-.226-.188c-.164-.136-.23-.226-.23-.316-.004-.2-.047-.234-.383-.29-.176-.03-.36-.097-.414-.148-.075-.07-.207-.105-.493-.125-.21-.02-1.043-.101-1.84-.175-.8-.082-1.46-.145-1.468-.145-.012 0-.02.195-.02.434v.43l.305.058c.164.035.375.098.473.137.09.043.464.105.824.136.36.036.77.082.902.114.59.129 1.93.191 2.38.11zm-32.16-.254c-.145-.086-.274-.14-.285-.125-.067.063.05.172.238.215.324.07.324.066.047-.09zm33.336 0c.082-.035.11-.09.121-.27l.02-.23-.22-.098c-.156-.074-.35-.105-.679-.12l-.46-.02.405.414c.438.441.457.45.813.32zm1.578.043c.172-.055.191-.078.191-.21a.517.517 0 0 0-.039-.2c-.02-.027-.293-.05-.656-.05l-.621-.009v.13c0 .07-.016.179-.031.237l-.028.118.422-.016c.227-.012.418 0 .418.02 0 .046.13.043.344-.02zm1.262-.312c.172-.114.367-.262.425-.329.114-.12.126-.12.313-.058.453.16.438.05-.023-.18l-.352-.172-.34.184c-.18.101-.375.183-.57.25-.207.05-.23.07-.23.191 0 .075.054.2.12.282.145.167.122.175.657-.168zm-34.438.222c.426-.05.489-.086.489-.289 0-.11.003-.11.113-.035.351.258.281.258.715-.02.265-.171.39-.28.39-.343 0-.051-.031-.11-.062-.121-.043-.016-.344.007-.68.05-.355.043-.71.067-1.07.075h-.453l-.082.23c-.11.3-.11.316.046.414.16.102.098.098.594.04zm-.988-.426c.05-.152.094-.308.094-.347 0-.035-.125-.114-.278-.18a2.364 2.364 0 0 1-.422-.21l-.144-.102-.168.195c-.164.195-.168.207-.086.289.05.05.094.102.129.16.05.082.648.469.726.473.028 0 .09-.13.149-.278zm3.512.11c.285-.063.804-.164 1.156-.219 1.215-.2 2.867-.496 2.887-.516.007-.011.027-.195.039-.406l.027-.387-.895.192c-.492.098-1.296.27-1.792.379l-.891.195-.274.27c-.234.218-.312.273-.546.316-.23.047-.278.078-.297.176-.016.066 0 .12.023.12.024 0 .277-.05.563-.12zm10.445.058c.023-.062-.152-1.18-.195-1.25-.016-.023-.114-.05-.215-.07a1.501 1.501 0 0 1-.27-.059c-.05-.015-.09.004-.11.063a.401.401 0 0 1-.124.164c-.09.074-.09.086.02.535.117.442.12.461.246.442.105-.012.136.015.164.113.023.11.05.125.246.125.125 0 .222-.027.238-.063zm-19.922-.421c-.012-.211-.035-.399-.05-.415-.016-.015-.223-.058-.462-.097-.691-.117-.718-.13-.746-.32-.027-.153-.047-.176-.265-.227-.133-.031-.668-.082-1.196-.11-.648-.035-1.074-.078-1.328-.148-.668-.168-.699-.2-.715-.754-.011-.484-.066-.535-.187-.168-.18.547-.215 1.117-.086 1.254.016.012.34.02.715.016.664-.012.68-.008.633.082a4.697 4.697 0 0 0-.168.465c-.118.363-.118.37-.02.398.14.043 1.66-.062 2.922-.203l.23-.023-.175.246c-.13.175-.16.25-.114.27.145.054.516.109.766.112l.262.008zm1.848.042c1.039-.234 1.676-.335 2.086-.335h.207l-.082-.149c-.051-.078-.11-.144-.137-.144-.027 0-.36.03-.734.074-.57.05-1.141.086-1.715.101l-1.035.032v.726l.187-.031c.098-.02.652-.14 1.223-.273zm15.699-.3l.016-.516-.149-.031c-.144-.031-.148-.035-.148-.348 0-.312 0-.312-.133-.297-.129.012-.137.028-.172.352-.027.25-.02.39.035.55.055.145.067.301.047.5l-.031.278.215.023c.117.012.23.016.261.012.028-.004.055-.226.059-.523zm29.453.437c.016-.058.035-.316.05-.566.02-.363.013-.446-.038-.426-.153.059-1.446.465-1.719.543-.172.043-.305.098-.305.113 0 .035 1.715.434 1.887.442.07.004.11-.028.125-.106zm-38.035-.36a.302.302 0 0 0-.145-.003c-.046.016-.02.023.059.027.078 0 .117-.011.086-.023zm-4.148-.472c0-.02-.036-.027-.075-.012a.851.851 0 0 1-.222.032h-.145l.106.148.109.153.113-.141a.61.61 0 0 0 .114-.18zm32.585.137c0-.02-.07-.113-.156-.223-.133-.16-.18-.187-.344-.187a.597.597 0 0 0-.336.101c-.132.094-.14.11-.066.184.05.05.203.086.43.105.191.02.375.036.414.04.031.003.058-.004.058-.02zm6.707-.27c.48-.086.485-.148.004-.132-.347.011-.418.027-.43.101-.019.098.005.102.426.031zm-25.554-.406c-.156-.066-.196-.062-.149.016.024.031.094.054.168.054l.125-.003zm-5.832-.242c.37-.074.718-.14.765-.152.336-.106-.32-.16-2.078-.18l-1.066-.012-.043.184c-.027.101-.04.195-.027.207.02.012.152.043.312.066.453.074 1.383.024 2.137-.113zm-9.219-.133a1.36 1.36 0 0 0-.055-.293c-.054-.172-.07-.183-.246-.183-.172 0-.183.007-.183.14 0 .13-.02.14-.22.172-.456.066-.116.242.5.266.18.004.204-.012.204-.102zm6.426-.152c-.031-.09-.082-.11-.274-.121-.152-.012-.246.004-.27.043-.054.082-.01.14.09.14.048 0 .137.028.208.067.168.086.3.02.246-.13zm18.96-.078a.461.461 0 0 0-.074-.235c-.066-.097-.062-.11.024-.136.184-.055.293.015.293.195 0 .121.023.168.101.2.16.046.254-.071.223-.278-.02-.153-.004-.188.074-.219.063-.02.118 0 .164.063.09.128.2.019.121-.126-.046-.09-.035-.105.153-.156.21-.054.93-.035 1.137.028.257.09-.243-.23-.61-.387-.992-.418-2.074-.559-2.508-.328a.614.614 0 0 0-.285.277c-.129.27-.09.309.281.281.172-.011.368-.011.438.008.105.024.117.05.094.188-.032.207.05.52.183.687.117.153.192.13.192-.062zm-24.53.004c-.047-.176-.063-.188-.356-.223-.234-.031-.254-.024-.254.066 0 .227.082.293.371.293h.27zm-4.551-.13c-.063-.081-.196-.1-.196-.035 0 .067.063.106.16.106.083 0 .086-.012.036-.07zm1.308-.007c.282-.059.176-.153-.207-.192-.449-.039-.539-.023-.558.114-.012.101.004.11.3.11.172 0 .38-.013.465-.032zm1.078-.113c.09-.032.055-.043-.156-.043-.152-.004-.293.015-.308.043-.04.054.285.054.46 0zm45.336-1.036l-.011-.886-.172-.02-.168-.012-.004-.25c0-.14-.035-.875-.067-1.632l-.062-1.375-.254-.25.113-.227.11-.223-.094-2.21c-.031-.743-.066-1.485-.11-2.223-.027-.04-.652.101-.75.164-.101.066-.14.066-.437-.008-.254-.07-.414-.078-.738-.055-.399.04-.422.047-.504.184l-.09.145-.203-.2-.203-.203-.688-.078-.68-.078-.21.156c-.227.168-.176.172-.555-.074-.113-.07-.3-.074-1.781-.055-1.598.024-1.657.028-1.762.13-.102.097-.125.097-.45.034-.26-.05-.527-.093-.796-.129-.422-.054-.461-.054-.508.024-.113.187-.156.223-.273.234-.098.012-.125-.008-.137-.12-.02-.161-.016-.161-.883-.227-.98-.079-.972-.079-1.008.093-.011.082-.043.157-.062.168-.02.016-.274-.008-.563-.047a4.077 4.077 0 0 0-.535-.058c-.008.008-.039.351-.074.77l-.055.75.133.265.133.262-.102.082a.71.71 0 0 1-.16.105c-.047.016-.52 6.383-.472 6.426.023.023 1.093.05 1.44.039.22-.008.255-.023.255-.105 0-.075.031-.098.129-.098.082 0 .133.031.152.098.02.086.063.093.383.093.348 0 .355 0 .355-.12 0-.106.024-.118.18-.118h.172l-.016-.281c-.02-.414.078-.754.254-.883.16-.121.172-.207.07-.461a.824.824 0 0 1-.074-.215c0-.05.668-.594.825-.668.07-.039.238-.078.375-.094.246-.035.25-.039.285-.218.027-.16.086-.23.453-.524.387-.304.437-.332.71-.36.247-.015.493 0 .739.044.395.066.465.066.656 0 .207-.07.227-.07.508.055.234.101.336.12.555.101.25-.023.308-.008.797.235.359.175.535.292.55.355.024.078.055.094.141.074.375-.094.324-.125.645.403.168.273.296.511.296.539 0 .078.153.195.262.195.196.004.235.066.281.562.028.266.098.653.16.848.11.36.114.363.294.379.18.016.191.027.238.254.023.113.043.121.316.105l.293-.02-.027-.179-.027-.176.101.094c.106.09.106.09.137-.062.023-.125.054-.157.164-.157.238 0 .289.051.289.25 0 .133.027.203.094.235.047.027.367.062.715.078.89.039.94.05.94.195 0 .063-.019.13-.046.145-.023.015-.457.027-.957.027h-.914l-.086.152-.086.145-.172-.149c-.164-.148-.183-.152-.633-.152-.394 0-.484.016-.593.102l-.125.097-.102-.097c-.113-.106-.219-.121-.578-.07l-.223.03v.817h4.59zm-10.87.801c.105-.02.109-.043.109-.527v-.504h-.293c-.285 0-.29.004-.328.156-.055.207-.125.215-.286.04-.125-.137-.156-.15-.445-.15h-.316l.023.15c.02.124.004.144-.086.144-.086 0-.117-.035-.144-.145-.028-.148-.032-.148-.352-.144-.46.008-.566.043-.586.203-.02.172-.082.168-.152-.012l-.063-.148h-1.336l-.035.394c-.058.653-.297.586 2.102.578 1.144-.004 2.125-.02 2.187-.035zm-39.915-.355c.309-.028.973-.09 1.48-.14l.926-.087-1.925-.004-1.922-.008-.059.122a1.17 1.17 0 0 0-.058.148c0 .043.988.02 1.558-.031zm16.922-.871v-.489H21c-.281 0-.29.004-.32.149-.04.191-.094.183-.282-.028-.136-.16-.168-.168-.453-.168h-.304l.027.145c.023.125.016.148-.07.148-.07 0-.106-.039-.133-.14-.027-.137-.035-.14-.442-.168-.23-.02-.433-.024-.453-.008-.02.012-.058.09-.078.18l-.035.16-.074-.184-.082-.18h-.528c-.39 0-.543.016-.593.067a.564.564 0 0 1-.125.09c-.051.015-.137.758-.09.773.039.012 3.219.121 3.777.133l.547.008zm1.785.332c.594-.086 1.07-.168 1.059-.192-.012-.015.187-.058.441-.093l.461-.067v-.402c0-.293-.015-.407-.058-.407-.04 0-.391.043-.786.102-.914.121-.89.121-.925-.031-.032-.113-.055-.125-.184-.098-.082.016-.18.028-.215.028s-.07.07-.078.16c-.008.117-.043.16-.113.164l-.426.047-.328.027v.457c0 .25.015.46.035.46.023 0 .527-.07 1.117-.155zm-11.097-.418c.015-.153.043-.367.054-.48l.028-.2-.477-.031c-.27-.016-.535-.035-.805-.059-.28-.027-.328-.02-.375.059-.136.246-.136.246-.324.066-.172-.164-.183-.168-.629-.183-.37-.016-.476 0-.582.066-.129.086-.137.086-.203 0-.043-.063-.148-.094-.367-.113-.45-.035-.512.035-.535.582-.016.238-.024.43-.02.433.004.008 3.332.125 3.781.133l.418.008zm15.101-.078c0-.141.012-.329.027-.407l.032-.144-.383-.031-.707-.063c-.313-.027-.332-.023-.332.074 0 .137-.192.14-.227.004-.015-.055-.054-.097-.093-.097-.051 0-.067.093-.067.414 0 .484-.043.457.703.476l.766.024.281.011zm24.211.175c-.07-.199-.14-.394-.207-.59-.156-.44-.219-.558-.309-.593a.264.264 0 0 0-.21.004c-.11.058-.114.093-.04.277.028.074.055.305.051.512l-.011.37.164.024c.293.035.578.035.562-.004zm-14.144-.086c.597-.117 1.632-.504 1.722-.648.016-.027-.18-.031-.472-.02-.614.032-.891-.03-.81-.187.044-.082.04-.121-.026-.184-.07-.07-.079-.07-.106.032-.031.113-.078.125-.223.07-.058-.024-.07-.05-.035-.11.078-.132.055-.328-.05-.363-.188-.054-.274.008-.254.196.02.168.02.168-.18.168-.211 0-.25-.043-.125-.145.078-.066.102-.367.027-.41-.117-.074-.343.45-.343.789v.21l-.442-.015-.445-.015.031.164c.074.484.719.656 1.73.468zm7.093-.152c.133-.023.153-.047.153-.191 0-.094-.024-.164-.047-.164-.078 0-.063-.153.05-.516l.102-.328-.242-.242c-.145-.145-.274-.235-.313-.22-.035.02-.097.153-.132.306-.047.218-.082.28-.18.316-.102.043-.113.063-.063.148.04.075.036.172-.007.372-.055.23-.086.277-.223.347-.297.14-.207.203.293.203.254 0 .523-.011.61-.03zm-37.14-.797l-.016-.324.258-.188.262-.19-.778-.032-.144.172-.149.175-.136-.171c-.133-.168-.141-.168-.5-.168-.325 0-.391.011-.516.12-.18.15-.191.15-.375-.003-.14-.121-.168-.125-.54-.094-.335.035-.398.055-.515.176l-.133.133-.183-.094c-.137-.066-.285-.094-.543-.094-.2 0-.375.012-.39.028-.024.027.112.464.234.761.03.078.18.086 1.863.102 1.008.008 1.941.011 2.074.011l.242-.003-.015-.32zm12.636.004c0-.195 0-.195.188-.195.183 0 .191.008.223.195l.027.191.305-.003c.168-.004.414-.032.543-.059l.246-.063-.012-.285c-.016-.988-.031-1.972-.04-2.957l-.034-2.668-.188-.136-.183-.133.336-.399v-1.254l-.282.043c-.156.02-.347.075-.433.118-.145.074-.184.074-.473 0a2.12 2.12 0 0 0-.734-.047c-.391.027-.422.039-.496.172-.047.074-.098.136-.114.136-.011 0-.11-.086-.21-.187l-.188-.188-2.09-.074-.207.152a1.151 1.151 0 0 1-.246.153c-.016 0-.129-.067-.246-.153l-.223-.152-.808.035c-.723.035-.825.047-.922.133-.102.094-.13.098-.387.043a40.604 40.604 0 0 0-2.16-.246c-.016 0-.078.074-.133.168-.129.219-.332.238-.355.039-.02-.156-.133-.195-.633-.215l-.352-.015-.039.16-.043.16-.324-.035a4.828 4.828 0 0 0-.473-.043l-.144-.004-.09 1.46c-.078 1.36-.082 2.2-.008 2.52.023.098.016.133-.047.133-.039 0-.078.004-.082.012-.008.05-.18 3.074-.172 3.082.004.004.196.031.422.055.45.046.485.035.485-.2 0-.12.011-.129.21-.129.215 0 .215 0 .247.192l.03.195h.583l-.031-.219a.717.717 0 0 1 .054-.414c.098-.215.145-.215.188-.004.023.13.054.149.25.176l.219.035v.23c0 .22.007.235.144.255.133.023.148.004.242-.25.051-.149.11-.446.13-.657.034-.437.062-.496.26-.539a.228.228 0 0 0 .184-.16c.079-.215.633-.87.766-.906.078-.02.121-.063.121-.121 0-.137.988-.637 1.188-.598.09.016.207-.015.367-.105l.238-.13.375.153c.457.184.633.215.86.153.164-.047.207-.032.578.18.379.218.41.25.449.433.043.191.047.195.293.23.222.032.285.067.586.364l.336.324-.067.3c-.058.297-.058.305.063.434.144.153.242.567.219.914l-.012.23.246.063c.336.09.348.086.41-.101.074-.227.211-.23.32-.012.11.21.145.227.47.227h.28zm7.457-.066c.012-.04.036-.196.055-.356.016-.152.05-.308.098-.457.058-.187.101-.383.125-.582a12.5 12.5 0 0 1 .117-.742c.047-.219.055-.375.027-.445-.039-.098-.023-.137.098-.23.098-.075.21-.266.332-.575.176-.418.187-.465.113-.516-.07-.054-.047-.093.207-.347.16-.157.453-.465.649-.684l.355-.398-.074-.145a.539.539 0 0 0-.297-.223c-.219-.082-.219-.082-.344.032-.148.156-.289.324-.414.496-.265.36-.281.39-.215.469.063.066.067.113.028.21-.035.098-.082.13-.23.141l-.184.016-.578 1.281-.309.055c-.273.054-.305.074-.305.175 0 .11.016.118.285.118.325 0 .461.093.391.273-.027.074-.066.098-.156.078-.11-.02-.121.004-.238.434l-.122.453.114.11c.062.058.117.136.117.171 0 .106-.219.184-.492.184-.215 0-.246.011-.29.129-.03.066-.042.136-.03.148.015.008.128.035.257.055.137.02.235.062.227.094a4.325 4.325 0 0 0-.043.324l-.031.265.332.02c.183.008.347.02.367.023.02.008.043-.02.058-.054zm-9.566-.352c-.004-.289-.02-.367-.086-.387-.05-.015-.102-.129-.137-.32l-.058-.293-.227.172c-.258.191-.258.195-.082.71l.149.423c.011.035.105.066.23.066h.219zm-5.68.004c.043-.11.078-.223.106-.34 0-.015-.133-.027-.29-.027-.308 0-.296-.008-.366.316-.016.074-.032.153-.055.227-.024.086-.02.086.426.129.062.008.109-.075.18-.305zm13.016-.418c.031-.5.043-.539.144-.578.102-.04.11-.07.137-.887.024-.465.035-1.3.035-1.863 0-.559.016-1.523.035-2.145l.028-1.128.375-.032c.332-.027.394-.047.515-.176.13-.132.165-.14.489-.14.343 0 .351-.004.367-.133.012-.094.055-.14.16-.168.082-.023 1.156-.055 2.395-.07l2.242-.032.062.297.594.028c1.297.054 1.809.101 1.988.183.098.043.29.094.41.117.536.075 1.903.52 2.626.86.707.324.738.348.84.555.085.18.128.214.316.261.203.055.234.086.644.684.23.344.434.621.442.613.008-.008.078-.848.16-1.86.078-1.019.156-1.945.172-2.058l.023-.219-3.855.032c-2.117.02-4.094.058-4.39.082-.294.023-1.97.043-3.731.047h-3.196v.492c0 .465-.008.484-.101.46l-.188-.054c-.062-.016-.097.008-.117.074-.02.078.012.121.121.172.113.063.14.106.129.211-.012.102-.043.133-.148.148-.13.012-.133.028-.133.254 0 .196.027.29.14.45l.141.203-.035 1.062c-.035.989-.047 1.074-.133 1.149-.078.058-.11.164-.137.457-.027.34-.02.39.078.554.102.16.11.235.102.715-.039 1.88-.035 1.922.125 1.922.082 0 .094-.055.129-.539zm25.574.14a.34.34 0 0 1 .164-.038c.063 0 .11-.02.11-.04 0-.027-.61-1.07-.657-1.117-.007-.011-.129.016-.27.055l-.25.078-.1-.129c-.055-.07-.286-.246-.509-.39-.406-.258-.414-.262-.515-.176-.059.05-.113.094-.121.098a.692.692 0 0 0-.059.18l-.035.167.25.082a3.037 3.037 0 0 1 1.566 1.188l.235.343.07-.128a.546.546 0 0 1 .121-.172zm-5.664-.331c.316-.43.8-.778 1.305-.93.207-.059.21-.059.21-.29 0-.257-.046-.304-.343-.362-.16-.028-.2-.008-.57.324-.352.32-.395.375-.368.5.028.133.024.137-.183.117-.192-.02-.227-.004-.465.219l-.258.234.203.242c.114.133.215.239.235.239.011 0 .117-.133.234-.293zm-41.23.093c.175-.097 1.125-.195 1.32-.136.09.023.383.03.676.011.422-.023.543-.015.672.051.128.063.257.07.71.043l.551-.027.024-.203c.05-.348.422-5.535.406-5.551-.012-.008-.121.047-.242.129-.192.117-.238.176-.281.36-.032.124-.075.222-.098.222a.35.35 0 0 0-.117.031c-.059.024-.074-.012-.074-.172 0-.105-.02-.207-.04-.219-.054-.03-.847.266-.894.332a.95.95 0 0 0-.066.235c-.02.098-.051.183-.07.183a.425.425 0 0 0-.118.028c-.055.02-.086-.024-.133-.195a1.447 1.447 0 0 0-.062-.223l-.567.16-.554.164-.043.23c-.051.231-.102.286-.149.141a.836.836 0 0 0-.117-.2l-.086-.108-.422.175-.426.18.004.2c0 .109.032.343.067.519.086.39.05.62-.215 1.289a3.457 3.457 0 0 0-.223.816c-.027.262-.066.371-.187.528-.301.394-.32.441-.32.746 0 .164.011.308.023.324.058.055.933 0 1.05-.063zm8.793-.445l.21-.281-.18-.219c-.1-.125-.19-.21-.202-.203a21.42 21.42 0 0 0-.309.402l-.285.387.25.129c.14.07.266.113.281.098l.235-.313zm4.504-.144l.218-.153-.14-.172c-.274-.34-.371-.406-.543-.37-.149.034-.153.03-.121-.106.027-.13.003-.156-.368-.395l-.394-.261-.211.148-.207.152-.027-.168c-.02-.093-.051-.18-.07-.187a2.743 2.743 0 0 0-.473-.059c-.395-.031-.45-.027-.559.067l-.121.093.101.278.094.277.61.008c.601.008.617.012.98.187.273.137.441.266.656.496.157.172.301.313.325.317.023 0 .136-.066.25-.152zm-3.223-.72c.047 0 .086-.015.086-.042 0-.074-.196-.613-.239-.656-.054-.051-.718.336-.78.457-.04.058-.079.117-.126.164-.07.07-.066.093.074.265l.149.188.379-.188c.203-.105.406-.187.457-.187zm47.715-.437c-.028-.37-.059-.48-.309-1.023a8.935 8.935 0 0 1-.387-.969c-.105-.34-.132-.383-.535-.777-.23-.227-.449-.48-.476-.559l-.082-.242c-.032-.09-.04-.09-.114-.012-.082.078-.09.07-.136-.172l-.047-.257-.684-.254a9.52 9.52 0 0 0-.73-.258c-.032 0-.094.086-.14.195-.075.16-.11.188-.196.164-.137-.039-.203-.136-.235-.347-.03-.18-.039-.184-.566-.414a5.275 5.275 0 0 0-.582-.227c-.027 0-.074.082-.106.191-.05.168-.078.192-.16.164-.156-.046-.226-.117-.226-.23 0-.219-.059-.305-.344-.477l-.29-.183v1.933c.005 1.063.02 2.012.036 2.106l.027.176.641.027c.914.043 1.836.273 3.02.766.566.234 1.586.765 2.117 1.101l.46.29.036-.153c.02-.078.023-.332.008-.559zm-13.414.407c.02-.102.011-.192-.02-.227-.059-.055-1.254-.168-1.3-.117-.016.015-.012.137.003.273l.035.25h1.25zm-8.258-1.657c-.016-.117-.184-.441-.453-.879l-.426-.691-.266-.086c-.222-.066-.289-.121-.457-.355-.183-.266-.207-.282-.535-.368-.277-.074-.41-.14-.66-.347-.25-.203-.348-.254-.492-.254-.094 0-.461-.09-.809-.192-.347-.109-.691-.199-.77-.199a1.074 1.074 0 0 1-.312-.074c-.16-.07-.933-.188-.969-.152-.007.007.13.12.301.246.29.215.36.242.903.351 1.988.403 3.386 1.262 4.675 2.867.137.172.262.313.27.313.012 0 .012-.086 0-.18zM30.48 28.22l.649-.32-.371-.22c-.207-.12-.41-.214-.461-.214-.11 0-.863.445-1.024.601-.07.07-.097.137-.078.196.043.105.348.27.512.273.07 0 .422-.144.773-.316zm-26.183.062l.36-.105v-.524l-.134.098c-.171.125-.68.64-.625.64.02 0 .2-.05.399-.109zm1.36-.422c.402-.129.64-.18.769-.164a.398.398 0 0 0 .316-.07.794.794 0 0 1 .238-.133c.079-.023.11-.086.13-.262l.05-.34c.008-.058-.008-.109-.039-.109-.023 0-.527.157-1.117.348-1 .324-1.066.348-1.035.445.015.063.027.192.027.29 0 .1.02.183.04.183.019 0 .296-.082.62-.188zm27.53-.379l.547-.03-.843-.634-.536.059a6.142 6.142 0 0 0-.746.11c-.203.054-.207.058-.136.167.066.094.066.11-.004.137-.11.043-.258.035-.43-.027-.086-.032-.2-.043-.246-.024-.082.035-.082.04.008.102.05.035.238.14.414.234l.32.172.555-.117a7.63 7.63 0 0 1 1.097-.149zm-25.21-.144c.066-.02.082-.078.082-.277 0-.141.02-.332.035-.434l.031-.184-.29.102c-.108.031-.214.074-.315.133-.016.02-.047.195-.067.39l-.035.356.238-.031a5.56 5.56 0 0 0 .32-.055zM59 26.867a.663.663 0 0 0-.188-.289c-.132-.113-.136-.129-.039-.101.059.015.11.003.11-.028 0-.027-.215-.12-.477-.199-.39-.129-.515-.191-.691-.363-.207-.203-.29-.235-1.41-.602-.657-.215-1.203-.375-1.22-.355-.015.015-.015.203 0 .414l.028.386.77.204c.59.156.797.23.898.332.11.105.184.129.38.132.175 0 .444.082 1.015.309.43.172.793.313.816.316.028 0 .031-.07.008-.156zm-44.824-.734c1.144-.043 1.281-.04 1.386.031.102.066.153.07.286.027.097-.03.738-.062 1.554-.078 1.239-.02 1.41-.011 1.551.059.129.07.356.09 1.176.113l1.012.024v-1.141l-.766.035c-.813.031-.82.04-.984.313-.04.066-.07.05-.207-.11l-.16-.187-2.133.066-.133.156-.133.153-.164-.16-.164-.157-.961.032c-.93.03-.969.035-1.106.152-.082.062-.148.113-.156.102a2.571 2.571 0 0 1-.066-.153c-.059-.125-.082-.133-.352-.133-.16 0-.304.02-.32.047a.358.358 0 0 1-.125.102c-.078.039-.102.027-.14-.078l-.051-.125-1.106.03c-1.094.032-1.105.032-1.215.153a.437.437 0 0 0-.11.274c0 .086-.01.234-.03.324l-.028.168h.903c.87 0 .91.008 1.015.113l.106.11.172-.106c.16-.098.277-.11 1.449-.156zm8.738.105c.016-.066.027-.16.027-.226 0-.082.024-.102.086-.086.532.16 1.508.422 1.575.422.085 0 .093-.035.082-.301l-.012-.305-1.317-.305c-.718-.164-1.316-.292-1.328-.285-.007.012-.004.13.016.262.027.207.05.25.172.3.125.052.144.087.144.24 0 .276.094.355.446.386.043.004.09-.043.11-.102zm20.852-.16c.129-.11.187-.121.527-.121.32 0 .402.016.484.098.121.117.172.117.36.008.14-.086.343-.098 2.238-.145 1.887-.047 2.102-.047 2.219.023.113.063.168.067.355.024.145-.04.524-.047 1.137-.027.746.023.957.042 1.144.12.184.075.403.098 1.204.126l.972.03v-.394c0-.367.008-.398.121-.476.094-.059.125-.121.125-.266 0-.148-.02-.183-.109-.2-.082-.015-2.25.114-2.578.15a.757.757 0 0 0-.137.179l-.11.172-.183-.18-.183-.183-2.125.07-.114.144-.117.149-.16-.152c-.129-.13-.215-.165-.527-.207-.352-.047-.375-.043-.48.05-.15.137-.212.137-.25-.015-.036-.149-.036-.149-1.071-.047-.633.058-.793.094-.895.176l-.129.101-.043-.137-.046-.132-1.098.035c-1.008.027-1.113.043-1.238.133l-.137.101-.133-.125-.133-.129h-1.761l-.09-.133-.086-.132-.032.222a5.444 5.444 0 0 0-.039.57v.352h2.77l.074.145c.04.078.09.148.102.148a.893.893 0 0 0 .176-.125zm-33.48-.379c.023-.219.034-.414.027-.433-.012-.02-.422-.04-.918-.04-.567 0-.899-.019-.899-.046 0-.028-.02-.047-.05-.047-.036 0-.044.078-.02.25.015.14.031.363.031.492v.227h1.781zm48.425.051c-.047-.352-.117-.617-.168-.617-.023 0-.086.055-.137.133l-.101.132-.168-.37c-.176-.391-.325-.505-.469-.36-.059.062-.055.086.031.21.094.126.098.15.031.216-.105.105-.039.285.208.527.183.18.527.348.765.379.024 0 .027-.11.008-.25zm-1.14-.445a.292.292 0 0 0-.165-.086c-.09-.016-.105-.055-.133-.34-.023-.344-.125-.527-.293-.527-.074 0-.093-.036-.093-.168 0-.172-.133-.368-.258-.368-.04 0-.059-.066-.059-.187 0-.23-.09-.348-.265-.348-.184 0-.196.032-.125.27.062.199.058.219-.051.32-.152.14-.297.465-.32.7l-.016.195.902.3c.492.164.907.301.918.301.008.004-.008-.027-.043-.062zM37.878 25l2.316-.027.032-.27c.015-.148.02-.277.007-.289-.011-.016-3.39-.008-7.515.012l-7.492.039.03.2c.016.108.036.25.052.315l.023.118 5.117-.035c2.813-.016 6.156-.043 7.43-.063zm-12.918-.273c-.023-.165-.055-.32-.07-.34-.02-.02-.426-.125-.903-.223-.472-.105-.875-.215-.894-.242-.047-.07-.426-.149-.696-.14-.18.007-.25-.012-.351-.11-.067-.063-.125-.168-.125-.227 0-.144-.152-.226-.266-.148-.062.047-.086.164-.105.496-.012.242-.004.46.015.488.036.051 3.118.735 3.336.746.078.004.086-.023.059-.3zm-13.918.082l.203-.133.863.058c.395.024.782.067 1.172.114.403.074.39.074 1.633-.055l1.09-.121.195.258.196-.13.195-.132 1.23-.016c1.035-.015 1.262-.007 1.457.059.125.043.258.082.293.082.075 0 .086-.211.032-.621l-.028-.258H8.61l-.027.11c-.05.18-.035.222.063.253.085.032.093.063.07.227a.603.603 0 0 0-.012.191l.977.067c.527.043.996.093 1.047.12.109.067.082.071.316-.073zm9.625-.094l.379-.035v-.766h-1.121v.18c0 .105.02.3.035.445.031.258.031.262.18.234a6.59 6.59 0 0 1 .527-.058zM47.84 24.5l.512-.047.105.129.102.133.199-.137.199-.129h1.23c.989 0 1.29.016 1.547.082.309.074.352.074 1.48-.05.645-.07 1.196-.13 1.227-.13.04 0 .067-.062.067-.144 0-.09.031-.16.086-.191.062-.036.086-.086.07-.164-.02-.11-.047-.118-.492-.149-.258-.015-3.371-.035-6.922-.035H40.8l-.027.187a3.064 3.064 0 0 0-.03.403v.222l1.054.063c.582.031 1.14.086 1.238.113.153.043.207.035.367-.062.176-.102.215-.106.84-.074.746.035 1.52.113 1.668.168.05.019.395-.004.762-.051.363-.051.887-.114 1.168-.137zm-22.653-.96a2.923 2.923 0 0 1-.136-.33c-.063-.206-.238-.23-.317-.042-.043.117-.03.172.075.371.168.305.164.375-.016.375-.242 0-.172.09.156.188l.301.093.02-.238a.804.804 0 0 0-.082-.418zm1.305.51a.405.405 0 0 0-.078-.238c-.062-.074-.07-.113-.02-.261.051-.153.047-.192-.023-.274-.164-.175-.316-.058-.316.246 0 .094-.028.145-.067.145-.12 0-.187.129-.101.2.039.03.07.124.07.198 0 .137.004.141.27.141h.261v-.156zm.754.012a.663.663 0 0 1-.07-.246c0-.05-.024-.093-.055-.093-.023 0-.047-.067-.047-.141 0-.184-.117-.289-.219-.2-.05.04-.066.102-.046.196.02.07.003.149-.024.164-.055.035-.07.38-.015.434.015.015.148.031.293.031h.261zm.734-.015a5.975 5.975 0 0 1-.058-.367c-.05-.325-.258-.332-.262-.012 0 .066-.055.18-.129.254-.191.2-.129.285.203.285h.278zM30.793 24c-.016-.113-.063-.23-.102-.262-.078-.066-.082-.183-.015-.316.039-.074.035-.125-.024-.219-.144-.215-.316-.094-.316.223 0 .105-.023.148-.078.148-.07 0-.078.035-.051.223.016.125.027.27.027.316 0 .082.043.094.293.094h.293zm.719.16h.14l-.097-.129a.498.498 0 0 1-.102-.27c0-.073-.023-.14-.047-.14-.027 0-.05-.058-.05-.14 0-.165-.098-.262-.22-.215-.062.023-.073.062-.05.187.02.11.012.168-.031.18-.043.012-.055.101-.047.262.02.304.039.328.215.293.093-.016.191-.028.289-.028zm1.101-1.941l-.02-1.934-.14-.129c-.183-.16-.223-.164-.223-.023l-.003.113-.094-.117c-.098-.117-.098-.113-.098 1.543 0 1.047-.015 1.664-.047 1.68-.027.023-.05.105-.05.195a.366.366 0 0 1-.118.27c-.07.062-.125.163-.125.226 0 .113.012.117.47.117h.468zm3.528 1.754c-.016-.098-.063-.207-.102-.239-.062-.047-.062-.082-.012-.234.051-.125.055-.195.016-.254-.129-.207-.36-.082-.36.192 0 .085-.027.136-.066.136-.094 0-.14.145-.078.219.04.07.059.14.059.215.004.152.004.152.293.152h.28zm.757.027a.686.686 0 0 1-.097-.266c0-.066-.02-.113-.043-.113-.028 0-.055-.07-.063-.156-.008-.121-.043-.164-.125-.176-.133-.016-.191.11-.105.211.05.066.047.086-.024.137-.058.05-.07.105-.046.289l.03.234h.571zm2.547-.027c.07-.422-.011-.739-.187-.739-.047 0-.07-.082-.082-.28-.012-.247-.028-.282-.125-.294-.098-.015-.11.004-.11.203 0 .2-.02.239-.187.375a1.255 1.255 0 0 0-.305.367c-.113.211-.113.211-.14.082-.024-.132-.024-.132-.16.094-.07.125-.153.23-.18.23-.024 0-.102-.077-.176-.171-.117-.156-.137-.172-.168-.09-.035.078-.04.074-.043-.02-.004-.136-.129-.402-.2-.402-.023 0-.042.082-.042.172 0 .125-.043.215-.149.324-.144.149-.175.238-.113.301.016.016.55.035 1.188.035h1.148zm.832.05c.051-.23.04-.906-.015-1.05-.055-.133-.063-.137-.168-.063-.059.035-.106.11-.106.164 0 .051-.027.13-.066.176-.04.043-.098.219-.14.383l-.094.414c-.024.11-.012.113.269.113.277 0 .29-.008.32-.133zm-10.43-1.07a50.063 50.063 0 0 0-.035-1.531l-.03-.477-.321.012-.32.016-.012 1.46c-.008.801-.004 1.485.008 1.516.02.043.14.063.375.063h.343zm-6.757-.789v-1.363h-.621l-.02.656c-.012.363-.012.953 0 1.313l.02.656.199.043c.113.023.254.047.312.054l.11.004zm15 1.102c.12-.207.12-.223.12-1.286v-1.078h-.581v2.153l.137.21c.07.118.148.212.168.212.02 0 .086-.094.156-.211zM12.379 20.96c.008-1.34.023-2.445.035-2.445.012 0 .258.07.54.152.296.09.566.14.644.125a.236.236 0 0 1 .23.074c.106.09.926.324 1.563.43.168.035.304.074.304.094 0 .058-.87.968-.984 1.03-.055.032-.254.056-.438.052h-.332l.301.23c.281.223.531.328.63.27.023-.016.542.117 1.148.289 1.14.324 2.472.66 2.617.66.066 0 .078-.035.066-.16l-.015-.157-.704-.171c-.62-.153-.714-.188-.777-.301-.059-.106-.133-.14-.465-.203-.215-.043-.465-.063-.547-.047-.097.02-.304-.008-.57-.086-.375-.102-.414-.125-.414-.227 0-.078.101-.226.281-.418.153-.164.406-.468.563-.675.156-.207.308-.38.34-.38.128-.003-.125-.09-.938-.331-.824-.25-.855-.254-1.012-.18-.234.113-.347.102-.383-.05-.03-.122-.039-.126-.316-.099-.328.036-.953-.128-2.11-.554-.816-.297-.902-.324-1.433-.352l-.41-.023.285.137c.16.07.582.238.938.367l.64.238v2.563l.008 2.562.25.02c.145.011.3.015.356.015.093-.004.097-.043.109-2.45zm3.336 2.082c.039-.43-.016-.637-.16-.637-.082 0-.098-.039-.11-.273-.008-.2-.039-.29-.101-.324-.117-.075-.192.039-.164.238.02.133-.008.187-.211.387-.133.125-.266.293-.293.37-.09.212-.145.165-.145-.124 0-.196-.02-.27-.082-.293-.058-.024-.062-.043-.02-.098.13-.152-.03-.422-.206-.355-.055.027-.082.093-.082.222 0 .172-.012.188-.114.168-.113-.02-.117-.012-.152.442-.055.714-.125.664.922.664h.887zm1.094 0c-.016-.309-.04-.406-.122-.5a.61.61 0 0 1-.132-.293c-.02-.098-.055-.191-.082-.207-.075-.047-.246.074-.23.168.007.047-.02.129-.071.18-.074.086-.149.37-.215.855l-.027.184h.898zm1.898-.074c-.02-.367-.047-.489-.125-.598-.125-.172-.234-.172-.238-.008a.337.337 0 0 1-.082.211.343.343 0 0 0-.09.215.721.721 0 0 1-.04.223c-.03.09-.034.09-.07-.024a1.286 1.286 0 0 1-.03-.246c0-.09-.032-.14-.095-.164a.142.142 0 0 1-.101-.137c0-.132-.129-.324-.211-.324-.113 0-.191.13-.137.227.035.062.032.11-.011.16-.075.086-.274.687-.274.832 0 .09.047.094.762.094h.762l-.024-.461zm1.027-.219c0-.684 0-.684.11-.664.058.016.468.05.914.078.441.027.926.066 1.082.078l.273.035v-.343l-.3-.032c-.168-.015-.657-.05-1.079-.078-.43-.031-.832-.062-.89-.078l-.11-.02v-1.628c0-.895-.011-1.63-.027-1.63-.012 0-.164.09-.336.196l-.308.2-.016 1.515a74.27 74.27 0 0 0 0 2.285l.015.766h.672zm1.332.602c.082-.22-.027-.387-.222-.332-.059.015-.188.117-.274.222l-.168.188h.317c.246 0 .328-.02.347-.078zm32.36-.602c.02-.605-.004-.691-.172-.676l-.133.016-.016.578-.011.574.16-.015.156-.016zm1.031-.246c0-.66.004-.73.086-.727.043 0 .379.035.738.07.36.04.664.063.672.051.008-.007-.066-.156-.176-.328-.093-.152-.18-.304-.27-.46l-.07-.145.196.05c.18.051.203.047.3-.066.06-.066.145-.117.192-.11.094.02.23-.066.23-.14 0-.105-.207-.234-.367-.234-.136 0-.183.023-.226.12l-.059.118-.273-.148c-.555-.293-.66-.117-.32.523.12.227.222.422.222.43 0 .004-.258-.024-.57-.055-.313-.031-.582-.05-.61-.035-.043.027-.05 1.738-.004 1.781.02.024.094.035.172.035h.137zm-6.781.5a.829.829 0 0 0-.13-.297c-.07-.086-.081-.164-.058-.324.028-.223-.02-.293-.18-.242-.074.023-.097.074-.097.199 0 .094-.02.164-.047.164-.09 0-.437.351-.437.441 0 .094-.18.18-.247.114a.403.403 0 0 1-.054-.192c-.016-.113-.043-.148-.153-.16-.101-.012-.136.008-.14.074a.414.414 0 0 0 .031.223c.031.074.004.086-.176.094-.261.011.59.066 1.239.078l.48.008zm4.25-.723v-.902l.719.02c.394.011.753.035.796.054.102.047.243-.09.204-.191-.055-.145-.239-.184-.97-.207l-.734-.02-.03-.687c-.02-.594-.032-1.18-.032-1.774 0-.851-.012-1.082-.059-1.066-.035.015-.187.062-.343.113l-.278.086v5.43h-.144c-.137 0-.14-.008-.157-.254-.015-.246-.023-.25-.078-.121-.078.183-.195.172-.21-.028-.024-.218-.16-.23-.348-.027-.114.121-.153.145-.172.09a.61.61 0 0 0-.125-.184.448.448 0 0 1-.102-.316c0-.274-.136-.309-.218-.063a.439.439 0 0 1-.247.274c-.14.07-.203.148-.27.316-.093.254-.23.281-.253.055-.008-.074-.05-.149-.086-.164-.043-.016-.07-.094-.07-.211 0-.219-.047-.262-.188-.164-.07.05-.105.125-.105.23 0 .102-.031.18-.094.215a.364.364 0 0 0-.121.195c-.027.125-.047.137-.195.122-.086-.012-.176.003-.192.03-.027.04.543.052 2.035.052h2.067zm.683.348c0-.52-.007-.559-.101-.586-.196-.063-.242.043-.242.613v.528h.343zm-9.53-2.184v-2.691l-.184-.031c-.114-.02-.227-.04-.34-.063l-.16-.027v.246c0 .242-.004.25-.141.25-.207 0-.57-.274-.871-.645-.274-.34-.34-.379-.45-.254-.09.11.047.348.419.727.304.316.55.461.855.5l.188.023v.41c0 .438-.043.505-.184.262-.078-.144-.219-.195-.277-.097-.051.078-.207.05-.23-.043-.02-.075-.071-.09-.282-.086-.215.004-.27.023-.352.137-.175.23-.043.34.266.207.066-.024.086-.012.086.066 0 .14.05.25.113.25.031 0 .113-.059.192-.125l.136-.133v.176c0 .226.051.254.196.105.12-.129.199-.156.187-.058-.02.148.008.234.078.234.051 0 .07.05.07.164 0 .2-.136.27-.324.172-.09-.055-.148-.055-.277-.008-.219.078-.313.07-.496-.047l-.164-.097-.172.105c-.168.102-.18.106-.414.031-.23-.078-.246-.078-.461.028l-.223.11-.203-.11c-.246-.13-.32-.133-.543-.024-.148.067-.203.07-.43.02-.187-.05-.289-.05-.39-.008-.277.102-.324.074-.324-.191 0-.133-.02-.246-.047-.246-.063 0-.457.476-.555.664l-.078.152.336.035c.21.024.367.012.43-.02.129-.066.312-.066.386 0 .04.047.114.028.278-.05.207-.102.23-.106.343-.031.137.09.313.097.48.023.102-.043.145-.039.25.027.118.078.142.078.321.008.238-.101.375-.101.485 0 .074.07.097.07.242-.008.125-.062.18-.07.246-.027.117.07.32.07.344-.004.015-.043.054-.043.168.004.12.043.25.05.375.027a.658.658 0 0 1 .316.02c.094.055.094.082.066 1.344l-.027 1.289h.746zm2.358 2.52a1.483 1.483 0 0 1-.148-.266.23.23 0 0 0-.125-.125c-.047-.015-.094-.054-.094-.09 0-.113-.144-.195-.23-.144-.067.043-.098.023-.156-.098a.442.442 0 0 0-.13-.164c-.097-.027-.21.137-.21.3 0 .138-.02.165-.13.188-.171.036-.308-.093-.308-.28 0-.169-.078-.266-.203-.266-.105 0-.191.14-.191.308 0 .067-.02.137-.047.152-.024.016-.047.172-.047.344v.313h2.133zm-20.269-.774c.676-.062 1.254-.132 1.281-.152.031-.02.555-.043 1.16-.05.602-.012 1.125-.036 1.16-.048.032-.007.06-.086.06-.168v-.152l-1.06.012c-.644.004-1.18.039-1.37.078-.258.05-1.965.215-2.797.273-.18.012-.196.024-.211.168l-.02.16h.285c.157 0 .84-.058 1.512-.12zm6.531-.386v-.176h-1.558v.137c0 .078.015.152.035.172.015.015.363.035.777.035h.746v-.176zm10.324-.305a.42.42 0 0 0 0-.176c-.011-.02-.796-.035-1.746-.035h-1.722v.34h3.441zm7.09-.215l.145-.101.164.125c.164.125.18.128.812.117l.649-.016.015-.156.016-.16h-1.242l-.184-.176-.187-.18-.215.153-.211.156h-.691c-.625 0-.704-.008-.914-.113-.215-.11-.317-.122-1.641-.172-.57-.024-1.133-.043-1.703-.059h-.297l-.125.277c-.207.47-.461.434 2.695.418 2.715-.011 2.778-.015 2.914-.113zm-21.011-.644a.54.54 0 0 0 .386-.149l.164-.137.114.137.109.14.176-.097c.144-.074.191-.082.273-.031.145.094.528.023.528-.094 0-.094-.016-.101-.27-.113-.137-.004-.145-.016-.14-.176.003-.176.003-.176-.274-.238-.223-.047-.316-.051-.457-.004-.133.035-.27.043-.406.027-.258-.035-.47.055-.922.383-.27.191-.297.297-.059.246.11-.027.14-.012.168.074.031.09.055.106.211.07.098-.015.277-.034.399-.038zm28.773-.48c-.02-.145-.004-.208.055-.263l.277-.23c.18-.156.457-.563.54-.785.023-.055-.067.015-.192.152-.305.336-.63.477-1.028.442a2.67 2.67 0 0 1-.394-.059c-.07-.023-.184.035-.43.223-.316.238-.328.25-.242.34.043.05.144.09.219.09.105 0 .156.038.195.124.074.16.207.192.371.098.125-.074.149-.074.348.02.12.05.238.085.261.066.028-.016.036-.11.02-.219zm-32.363-.27c.136-.078.144-.078.191 0 .055.105.203.113.285.011a.213.213 0 0 1 .145-.07.24.24 0 0 1 .148.07c.078.102.16.094.262-.023.11-.121.16-.121.281-.012.09.078.106.078.281-.023.22-.13.32-.137.36-.035.012.039.07.07.12.07a.24.24 0 0 0 .153-.07.18.18 0 0 1 .137-.075.178.178 0 0 1 .145.059c.054.055.058.05.386-.188.102-.07.117-.07.23 0 .11.075.134.075.29-.003.133-.063.203-.067.367-.028a.521.521 0 0 0 .39-.023.503.503 0 0 1 .383-.02c.106.032.211.055.243.055.097 0 .062-.152-.043-.18-.11-.027-.118-.054-.051-.222.058-.157-.031-.247-.207-.204-.102.028-.125.016-.137-.082-.012-.09-.047-.113-.144-.101-.098.012-.133-.012-.153-.082-.035-.13-.148-.125-.324.004-.2.148-.316.105-.332-.114-.027-.257-.129-.328-.277-.187-.098.09-.149.105-.328.074-.165-.023-.231-.015-.278.047-.09.102-.215.094-.32-.023-.117-.121-.152-.121-.332.035l-.153.12-.07-.097c-.082-.133-.207-.133-.324-.008-.098.118-.293.13-.332.024-.055-.149-.262-.082-.453.144-.164.2-.188.211-.262.145-.07-.067-.102-.067-.187-.012-.082.051-.11.047-.2-.047-.117-.12-.226-.133-.355-.035-.082.063-.11.063-.195-.004-.13-.09-.293-.086-.372.004a.172.172 0 0 1-.175.043c-.098-.023-.117-.012-.117.078 0 .059-.036.211-.083.34-.101.293-.066.414.122.371.3-.078.37-.062.398.094.02.105.055.148.14.16.063.008.137-.008.169-.035.09-.09.261-.063.289.043.03.121.101.125.289.012zm12.781-.082l.164-.172h-2.539c-1.398 0-2.54.02-2.54.039 0 .023.083.101.18.172l.184.129h4.383zm16.531-.438c.074-.09.211-.098.348-.023.125.066.246.023.34-.13l.078-.128.101.11c.118.124.239.081.348-.122.063-.11.098-.125.195-.098.293.075.41.055.477-.093.066-.125.086-.137.266-.114.261.036.32.008.355-.183.027-.125.063-.164.176-.188.117-.023.14-.058.172-.226a.908.908 0 0 1 .218-.426c.239-.281.41-.61.5-.969.13-.492.09-.558-.09-.148a3.448 3.448 0 0 1-.351.605c-.398.485-1.277.88-1.844.825l-.293-.036.016.16a.51.51 0 0 1-.031.231c-.043.062-.067.062-.18.004-.113-.067-.133-.067-.191.015-.059.079-.07.075-.172-.066-.098-.14-.114-.148-.16-.066-.02.039-.04.078-.063.113-.008.008-.066-.043-.121-.113-.11-.14-.168-.125-.195.043-.016.078-.055.05-.164-.145l-.145-.238-.05.215-.055.218-.09-.136c-.047-.075-.098-.133-.114-.133-.058 0-.316.914-.285.992.016.043.075.078.133.078a.49.49 0 0 1 .223.082c.101.067.14.07.222.024.082-.055.098-.051.122.039.03.12.214.136.304.027zm-20.719-.95c.067-.12.137-.23.16-.237.102-.04.184-.172.184-.297 0-.14.301-.844.38-.895.077-.05.066-.64-.013-.707-.152-.129-.27.035-.293.387 0 .086-.02.172-.058.246-.082.105-.356.773-.356.875 0 .05-.02.09-.047.09-.058 0-.343.515-.343.625 0 .246.234.195.386-.086zm-.773.017c.05-.106.125-.2.211-.286.105-.093.133-.156.113-.25-.023-.136.094-.46.25-.683.078-.102.102-.23.114-.524.015-.39.015-.39-.102-.39-.098 0-.137.039-.184.168a1.485 1.485 0 0 0-.062.34.47.47 0 0 1-.067.242c-.085.093-.324.652-.324.754 0 .039-.054.156-.12.253-.22.32-.224.575-.013.543.067-.007.141-.074.184-.168zm1.492.117c.094-.121.5-.946.645-1.325.277-.699.285-.976.031-.94-.078.01-.113.07-.145.21-.058.2-.125.398-.21.586-.086.219-.165.422-.165.453a.732.732 0 0 1-.113.238c-.172.266-.34.68-.3.766.03.086.19.094.257.012zm.95-.157c.101-.117.183-.257.183-.304 0-.051.055-.164.121-.258a.664.664 0 0 0 .121-.219c0-.07.164-.469.27-.664a1 1 0 0 0 .07-.375c0-.203-.016-.25-.102-.277-.136-.04-.238.086-.238.297 0 .082-.015.172-.039.195-.07.133-.129.27-.18.41a4.998 4.998 0 0 1-.253.55 1.024 1.024 0 0 0-.114.227.758.758 0 0 1-.117.223c-.121.184-.152.32-.09.379.078.078.2.02.367-.184zm-3.165-.316c.13-.254.25-.543.266-.633a.86.86 0 0 1 .094-.265 1.72 1.72 0 0 0 .133-.352c.062-.203.066-.266.011-.332-.105-.152-.238-.066-.332.215-.043.144-.113.3-.156.344a.423.423 0 0 0-.074.226c0 .074-.106.36-.238.633-.247.516-.254.672-.036.64.082-.011.16-.128.332-.476zm-.968.352a2.12 2.12 0 0 0 .18-.282c.054-.109.156-.27.226-.359a.652.652 0 0 0 .117-.266c0-.054.059-.27.133-.476.129-.36.129-.38.047-.465-.067-.063-.102-.07-.168-.031-.086.05-.352.746-.352.925a.265.265 0 0 1-.074.165c-.074.058-.414.632-.414.69 0 .044.148.18.191.18.02 0 .075-.035.114-.081zm5.07-.098c.05-.074.148-.191.227-.262.117-.11.14-.172.144-.39.004-.145 0-.29-.004-.325-.004-.039.035-.117.09-.172.117-.125.277-.707.234-.824-.035-.097-.195-.11-.265-.02-.028.032-.075.173-.11.313-.03.137-.105.293-.172.356-.097.09-.113.152-.113.453 0 .3-.015.351-.12.445-.18.149-.298.402-.227.488.093.11.222.082.316-.062zm-5.813-.016c.055-.05.098-.12.098-.148 0-.027.067-.113.156-.195.121-.118.153-.184.16-.348 0-.117.032-.23.086-.328.102-.145.102-.164.004-.262-.043-.047-.097-.062-.14-.039-.125.07-.313.367-.313.5 0 .07-.078.25-.176.383-.175.27-.203.387-.105.476.078.082.121.078.23-.039zm6.704-.066a.922.922 0 0 0 .183-.352c.05-.28.254-.8.39-1 .087-.129.118-.207.09-.289-.03-.097-.019-.09.165.055.23.18.258.328.105.523a.504.504 0 0 0-.101.239c0 .058-.032.129-.07.148-.126.074-.419.559-.407.668a.14.14 0 0 0 .121.113c.082.016.149-.039.27-.214.086-.13.218-.286.293-.348.082-.07.136-.16.136-.238 0-.063.043-.176.098-.243a.481.481 0 0 0 .098-.187c0-.05.03-.055.144-.012a.546.546 0 0 1 .149.067c0 .011-.047.093-.098.18a.688.688 0 0 0-.098.226c0 .039-.07.18-.152.312-.16.246-.156.375.02.41.093.02.406-.39.453-.597.054-.258.203-.41.386-.41.16 0 .168.008.137.133-.027.117-.09.23-.234.421-.063.09.004.223.11.223.148 0 .429-.348.464-.57.027-.184.043-.2.2-.219.144-.016.171-.004.171.078a.22.22 0 0 1-.098.164c-.113.07-.129.246-.023.285.223.086.465-.156.465-.465 0-.117.031-.164.152-.226l.152-.082-.035.16c-.035.176.035.29.168.29.114 0 .137-.04.176-.31.027-.203.016-.238-.133-.394-.094-.094-.18-.172-.203-.172a.788.788 0 0 0-.164.117c-.2.192-.555.285-.984.266-.305-.016-.442-.05-.739-.192-.355-.171-1.047-.687-1.183-.878-.059-.082-.102-.094-.223-.067-.176.04-.18.059-.055.219.067.086.082.137.043.18-.027.035-.039.144-.027.246.016.129 0 .21-.062.277-.098.11-.387.867-.387 1.016 0 .047-.055.156-.125.234-.13.16-.145.238-.063.32.098.098.164.075.325-.105zm-7.313-.129c.137-.152.172-.227.148-.313-.011-.062-.003-.128.024-.144.137-.09-.027-.34-.184-.281-.082.027-.218.297-.187.379.012.03-.027.109-.098.172-.18.171-.148.367.063.382.03 0 .136-.086.234-.195zm-4.773-.191c.02 0 .035.03.035.066 0 .035.043.105.097.152.09.086.11.086.403.004.258-.066.344-.07.535-.023.254.062.375.012.375-.16 0-.09-.023-.098-.219-.063-.18.024-.254.012-.387-.07a.746.746 0 0 0-.332-.098c-.152 0-.171-.02-.199-.152-.027-.14-.047-.149-.18-.125-.14.031-.433-.082-.433-.164a.34.34 0 0 0-.07-.121c-.051-.07-.082-.082-.133-.04-.172.133-.238.114-.32-.07-.16-.386-.352-.48-.625-.304-.204.136-.313.129-.313-.028 0-.164-.129-.41-.219-.41-.039 0-.168.05-.289.11l-.219.105-.136-.129c-.078-.07-.164-.133-.192-.133-.062 0-.355.32-.355.39 0 .071.39.302.46.27.083-.027.169.063.137.145-.035.094.083.41.149.41a.809.809 0 0 0 .242-.098c.2-.105.297-.09.25.051-.015.047-.004.102.027.117.028.02.047.086.047.149 0 .101.024.12.149.12.117 0 .168-.034.246-.167.058-.098.117-.172.133-.172.09.004.144.094.175.281.016.11.051.203.067.203a.63.63 0 0 0 .164-.125c.152-.148.285-.128.285.051 0 .078.047.149.156.215l.157.102.152-.145a.74.74 0 0 1 .18-.144zm3.988.12c.168-.21.223-.46.113-.55-.105-.09-.273-.024-.273.098a.439.439 0 0 1-.098.222c-.156.196-.121.387.07.399.028.004.114-.075.188-.168zm-.652-.226c.12-.219.125-.23.039-.316-.11-.114-.215-.051-.368.218-.093.172-.105.223-.05.282.101.125.242.058.379-.184zm-1.508-.312a.53.53 0 0 0 .101-.293c0-.133-.02-.168-.117-.192-.156-.039-.223.008-.223.149 0 .062-.02.133-.046.148-.114.067-.012.317.125.317.035 0 .105-.06.16-.13zm-.735-.13a.23.23 0 0 0 .059-.152c0-.05.031-.129.07-.172a.545.545 0 0 0 .098-.203c.027-.101.008-.14-.098-.21-.11-.07-.136-.075-.175-.024a.365.365 0 0 0-.04.121c0 .031-.043.094-.097.145-.07.058-.098.148-.098.289 0 .113.016.218.031.234.055.055.184.04.25-.027zm30.356-.19c.258-.13 1.012-.817.894-.817-.03 0-.082.031-.109.066-.031.035-.191.125-.355.203-.567.25-1.208.207-1.59-.113l-.164-.137-.27.137c-.148.074-.297.137-.332.137-.242 0 .227.531.547.621.102.031.398.047.648.043.395-.008.512-.031.73-.14zm-41.028-.27c.122-.14.231-.32.25-.399a.562.562 0 0 1 .2-.273c.238-.18.695-.906.746-1.184.023-.117.07-.23.101-.238.192-.066.727-.879.727-1.105 0-.059.07-.165.148-.247.16-.152.172-.296.036-.378-.079-.043-.125-.016-.305.18-.14.155-.219.284-.219.366-.004.196-.387.805-.523.829-.141.02-.239.168-.278.441-.043.273-.351.777-.66 1.074-.129.125-.25.29-.27.367-.015.078-.128.254-.242.391-.23.273-.261.375-.128.45.113.058.164.027.418-.274zm1.07-.153c.177-.234.321-.472.321-.527 0-.055.059-.148.121-.2.172-.132.563-.78.563-.933 0-.078.054-.18.148-.27.172-.163.531-.8.531-.94 0-.087.125-.2.215-.2.016 0 .063.07.106.152.097.188.043.336-.227.665-.105.12-.18.265-.219.421-.035.215-.238.547-.488.793a.988.988 0 0 0-.215.34c-.078.18-.175.352-.297.512-.128.176-.238.355-.238.394 0 .09.133.192.215.165.102-.047.617-.793.617-.907 0-.054.106-.222.235-.363.28-.309.468-.621.507-.852a.846.846 0 0 1 .176-.324 2.38 2.38 0 0 0 .195-.254c.047-.078.063-.07.192.078l.14.165-.12.273a1.617 1.617 0 0 1-.286.445.974.974 0 0 0-.219.399c-.035.156-.09.242-.152.261-.05.016-.129.106-.168.2-.047.109-.105.21-.168.308-.129.172-.105.317.051.317.086 0 .164-.063.281-.22.082-.12.196-.265.25-.316.121-.128.25-.386.25-.503 0-.047.059-.141.125-.207.07-.063.192-.243.274-.395.148-.297.21-.313.375-.117.082.094-.028.347-.23.535-.106.102-.153.187-.153.289 0 .082-.07.254-.152.387-.165.25-.157.379.019.414.105.02.406-.403.445-.625a.595.595 0 0 1 .141-.285 1.05 1.05 0 0 0 .203-.293l.082-.188.168.098.172.101-.152.133c-.125.117-.149.172-.141.352a.882.882 0 0 1-.023.285c-.047.098.085.242.187.207.129-.047.281-.352.242-.484-.043-.176.164-.387.336-.34.106.027.117.043.078.12-.082.15-.058.384.035.434a.169.169 0 0 0 .172-.003.17.17 0 0 0 .086-.153c0-.172.13-.308.348-.363.254-.063.43-.238.586-.574l.117-.25.434.277c1.007.66 2.023 1.172 2.308 1.172.055 0 .114-.035.13-.086.01-.047.132-.172.26-.281.208-.168.24-.219.24-.367 0-.532-.145-.649-.43-.34-.141.14-.297.265-.47.367l-.284.168-.418-.223a30.841 30.841 0 0 1-1.622-.992c-.027-.023-.011-.2.036-.422.043-.219.074-.543.066-.726l-.016-.332-.136.507c-.157.602-.457 1.25-.692 1.512-.125.137-.515.129-.828-.02-.246-.117-.433-.3-.746-.742-.148-.203-.156-.226-.05-.152.46.328.632.438.667.406.02-.02-.066-.113-.187-.215-.387-.316-1.02-.945-1.528-1.52l-.5-.566-.453.403.114.262c.12.27.113.488-.012.488-.027 0-.078.074-.121.156-.242.582-.317.719-.5.926-.113.129-.215.293-.23.367-.051.23-.282.64-.497.86-.117.12-.21.261-.21.32 0 .058-.13.277-.29.488-.308.406-.344.5-.21.574.128.067.171.031.519-.426zm8.919.422a.632.632 0 0 0 .082-.199.483.483 0 0 1 .125-.226c.097-.102.176-.395.129-.512-.055-.14-.227-.086-.301.097a1.058 1.058 0 0 1-.164.262c-.098.098-.188.492-.125.586.039.07.195.063.254-.012zm-15.11-.008c0-.011-.199-.113-.437-.226-.242-.113-.43-.223-.418-.242.016-.028-.5.023-.621.058-.02.008.094.086.25.172.223.121.375.168.695.203l.469.047c.035.004.062-.004.062-.012zm2.954-.207c.07-.101.257-.304.41-.457.168-.164.28-.316.28-.382 0-.067.04-.11.126-.133.125-.031.41-.367.41-.48 0-.032.078-.122.172-.208.297-.265.176-.379-.207-.187-.188.09-.254.164-.313.312a.495.495 0 0 1-.261.285c-.137.063-.211.137-.246.25a.962.962 0 0 1-.246.34c-.192.18-.504.594-.504.68 0 .059.109.156.18.156.034 0 .12-.082.199-.176zm.918 0c.078-.097.175-.21.218-.25.418-.355.63-.597.656-.734a.365.365 0 0 1 .188-.242c.195-.117.637-.73.688-.945a.9.9 0 0 1 .195-.34c.156-.176.195-.278.133-.344-.016-.016-.157.059-.313.164-.23.152-.297.23-.336.379-.07.254-.347.637-.594.812-.14.102-.226.207-.261.32a.958.958 0 0 1-.442.555c-.168.098-.504.547-.504.668 0 .196.207.172.371-.043zm-1.817-.082c.121-.113.25-.28.297-.363a.476.476 0 0 1 .195-.207c.059-.023.18-.133.266-.246.168-.23.168-.238.11-.324-.055-.09-.321.015-.419.164-.043.062-.11.117-.144.117-.082 0-.317.27-.317.363 0 .032-.074.118-.16.184-.187.14-.304.34-.265.445.05.133.214.086.437-.133zm17.348.16c.386-.062.922-.324 1.789-.874l.644-.414-.023-.262a1.401 1.401 0 0 0-.043-.281 6.606 6.606 0 0 0-.578-.165c-.922-.234-1.594-.527-2.313-1.003-.273-.18-.398-.29-.379-.336.012-.036.04-.102.051-.137.028-.047-.023-.098-.148-.149-.219-.09-.219-.093-.192-.011.016.035-.007.144-.047.242a1.314 1.314 0 0 0-.078.207c0 .047.77.594 1.094.777a8.694 8.694 0 0 0 1.703.676l.551.156c.031.008.059.032.059.051 0 .055-1.114.77-1.504.973-.227.11-.47.187-.72.219-.347.05-.417.046-.62-.028-.156-.07-.3-.164-.422-.285l-.188-.191v.175c0 .32.184.618.415.672.175.047.628.035.949-.011zM10.8 16.962c.199-.156.582-.691.527-.742-.105-.106-.344.023-.613.328a2.79 2.79 0 0 0-.266.336c0 .035.145.176.188.176a.46.46 0 0 0 .164-.098zm16.726-.05c.02-.134.008-.145-.129-.145-.214 0-.722-.317-1.011-.633a3.032 3.032 0 0 1-.442-.68 3.417 3.417 0 0 0-.36-.598c-.183-.203-.187-.293-.015-.316.094-.016.102-.035.075-.195-.055-.317-.415-.453-.415-.156 0 .16-.082.242-.226.242-.102 0-.113.03-.113.191 0 .172.011.188.199.254.191.07.207.094.305.414.296.93.789 1.418 1.699 1.68.402.11.41.11.433-.059zm-17.625-.15c.137-.132.18-.234.106-.245-.125-.032-.445.074-.485.152-.136.258.133.328.38.094zm35.325-.406c.093-.27.128-.457.117-.609-.016-.156.004-.254.074-.344.125-.187.281-.894.25-1.168-.02-.175.004-.28.11-.5.07-.156.12-.293.105-.308-.035-.031-.387.199-.485.316-.035.043-.062.227-.066.457-.012.485-.094.84-.246 1.07-.098.149-.113.215-.09.387.024.153 0 .313-.086.582-.129.403-.101.543.082.52.082-.012.133-.09.235-.403zm.558.375c.086-.054.211-.48.211-.722 0-.117.035-.285.082-.371.129-.254.16-.418.102-.578-.043-.121-.035-.164.054-.254.121-.13.274-.797.23-1.032-.015-.101 0-.18.036-.21.07-.06.203-.723.152-.77-.05-.05-.355.285-.382.434a.817.817 0 0 1-.137.28c-.09.126-.094.161-.047.274.074.16-.012.68-.137.82-.176.204-.203.301-.133.473.067.149.055.192-.046.422a1.434 1.434 0 0 0-.114.465c0 .117-.031.305-.066.43-.09.293.008.46.195.34zm-1.414-.328c.027-.16.098-.386.16-.5.09-.172.106-.257.074-.468-.027-.227-.015-.282.098-.461.11-.168.336-.922.293-.97-.02-.026-.332.15-.375.208a.365.365 0 0 0-.035.156c0 .059-.078.258-.176.438-.16.3-.172.36-.148.601.02.211.008.293-.07.422-.102.16-.215.762-.16.852.015.023.085.039.16.03.113-.015.132-.042.18-.308zm2.172.258c.09-.074.234-.555.254-.863.004-.121.062-.352.121-.512.082-.226.102-.344.078-.531-.027-.195-.008-.274.086-.469.133-.246.293-.976.281-1.277 0-.11.024-.223.067-.324.09-.176.148-.657.086-.696-.07-.05-.29.207-.38.453a1.67 1.67 0 0 0-.097.5c-.02.407-.148.973-.273 1.215-.086.16-.11.278-.102.543.008.262-.023.403-.117.63-.067.155-.113.339-.102.405.016.067-.02.278-.07.477-.086.297-.09.371-.043.43.078.093.11.093.211.02zm-6.855-.043c.199-.055.21-.074.109-.222-.063-.09-.133-.106-.5-.125-.535-.024-.863-.16-1.129-.457-.188-.215-.367-.274-.531-.168-.086.05-.063.093.258.437.375.398.777.582 1.296.586.172.004.395-.02.496-.05zm3.949-.27c.023-.148.07-.288.133-.421a.544.544 0 0 0 .062-.356c-.023-.125-.008-.199.066-.285.086-.117.239-.734.188-.781-.031-.031-.293.082-.336.148a.34.34 0 0 0-.04.153c0 .054-.058.207-.124.336-.094.175-.121.285-.102.402a.582.582 0 0 1-.058.344 1.369 1.369 0 0 0-.125.425c-.031.215-.024.258.05.297.145.086.247-.011.286-.261zm3.949-.09c.09-.304.102-.417.066-.53-.043-.118-.035-.16.043-.247.137-.148.293-1.054.203-1.195-.046-.082-.043-.117.047-.234.114-.156.258-.946.227-1.258-.016-.117 0-.242.035-.29.047-.089.078-.179.098-.276l.03-.192.185.192.19.187-.07.461c-.035.258-.05.535-.035.617a.558.558 0 0 1-.042.29c-.067.171-.11.347-.133.53-.032.211-.094.43-.13.485-.038.055-.066.219-.066.394 0 .164-.058.524-.125.797-.136.528-.125.606.082.578.098-.015.13-.074.23-.406.06-.215.122-.558.134-.77.011-.206.05-.437.086-.511.035-.07.093-.305.129-.516.027-.21.093-.437.132-.496.051-.082.063-.183.047-.344-.023-.214.035-.78.09-.84.016-.011.078.036.148.106.118.121.122.125.067.555a7.14 7.14 0 0 1-.152.773c-.063.238-.106.48-.118.73a3.52 3.52 0 0 1-.09.669 5.47 5.47 0 0 0-.101.437c-.02.106-.047.211-.078.317-.07.214-.028.312.137.293.132-.016.218-.18.27-.528.026-.156.066-.308.105-.457.046-.16.093-.476.105-.707.008-.226.047-.508.09-.625a4.54 4.54 0 0 0 .133-.644c.03-.243.07-.434.086-.434.015 0 .109.07.21.148.157.13.172.168.149.305-.02.102-.055.2-.102.297a.504.504 0 0 0-.039.293c.036.191-.101.934-.195 1.07-.039.051-.07.2-.07.324 0 .122-.032.329-.07.461-.04.133-.075.278-.075.32 0 .114.188.169.266.083.09-.09.219-.578.219-.805a.5.5 0 0 1 .05-.238c.07-.074.25-1.043.223-1.2a.485.485 0 0 1 .043-.265.495.495 0 0 0 .074-.195c0-.086.035-.075.215.058l.16.121-.062.352a3.004 3.004 0 0 1-.168.59.816.816 0 0 0-.086.437c.015.172-.07.637-.18.914-.047.121.106.246.223.188.12-.067.304-.68.293-1.012-.004-.148.027-.3.086-.437.09-.172.11-.254.175-.653l.028-.187.219.148c.195.137.21.164.187.305-.027.12-.07.234-.121.344a.938.938 0 0 0-.086.414c.004.125-.031.379-.074.562-.086.367-.055.485.137.461.082-.012.117-.086.187-.36a3.06 3.06 0 0 0 .098-.581.992.992 0 0 1 .066-.34c.043-.09.074-.184.09-.281.039-.211.023-.204.238-.114.16.067.164.082.14.258a.703.703 0 0 1-.097.266c-.05.054-.066.144-.05.242.011.086-.008.27-.044.394-.03.133-.046.27-.035.305.04.11.16.121.25.031.094-.09.242-.668.192-.718-.016-.016 0-.094.039-.168a.642.642 0 0 0 .07-.27c0-.113.012-.125.133-.09.195.047.223.086.164.285a.534.534 0 0 0-.004.293c.02.063.02.196 0 .293-.05.239-.02.317.129.317.18 0 .254-.274.21-.797-.01-.156.075-.195.286-.133l.188.059-.024.304c-.02.246-.008.317.063.371.129.114.238.008.265-.269.035-.313.063-.348.246-.32.145.02.153.03.125.18-.062.312.23.355.325.046.09-.304.085-.297.14-.207.094.172.332.055.332-.172 0-.035.192-.258.43-.5.336-.34.476-.527.656-.883.25-.484.422-1.062.422-1.417v-.223l-.277.558c-.489.98-.883 1.477-1.352 1.704-.215.109-.305.12-.8.117-.505 0-.606-.016-1.02-.16-1.434-.493-2.656-1.317-4.192-2.817l-.761-.746-.051.332a5.428 5.428 0 0 0-.05.664c0 .242-.028.38-.106.531a.578.578 0 0 0-.07.41c.046.325-.071.985-.204 1.15-.125.151-.14.276-.058.433.086.156-.04.8-.188.98-.094.113-.113.176-.09.293.051.23.04.414-.05.668-.086.27-.036.398.148.371.082-.008.121-.09.21-.402zm-39.387.216c.09 0 .149-.016.137-.04-.016-.023.164-.054.398-.07.864-.066 2.493-.476 3.633-.922 1.192-.46 3.07-1.5 3.844-2.12.363-.294.996-.91 1.117-1.094.05-.075.078-.278.086-.63.012-.288.031-.53.047-.542.012-.012.117-.078.234-.137.117-.066.211-.14.211-.172a3.69 3.69 0 0 1-.015-.207c-.004-.11-.036-.16-.133-.195-.195-.07-.36-.02-.36.12 0 .165-.175.368-.32.368-.094 0-.117.027-.117.14 0 .087.035.157.078.173.207.082-.75.93-1.922 1.707-.969.64-1.762 1.074-2.582 1.414-.777.32-2.164.789-2.453.832-.184.023-.215.015-.309-.106a.469.469 0 0 1-.105-.21c0-.071-.004-.071-.05-.009-.09.141-.052.348.093.48.094.09.152.204.172.333.031.187.027.2-.106.226-.312.075-1.214.094-1.55.032-.825-.133-1.454-.617-1.727-1.309-.07-.18-.086-.2-.086-.098-.008.344.356 1.126.676 1.454.37.379.734.644.848.613.054-.012.175-.027.261-.031zm34.739-.082c.035-.09.058-.184.07-.282.012-.078.066-.273.12-.425.09-.262.184-.86.134-.86-.012 0-.086.02-.164.047-.13.043-.149.082-.207.371a1.996 1.996 0 0 1-.16.512c-.051.105-.09.23-.083.277 0 .078-.007.16-.027.235-.047.195-.008.257.145.257.086 0 .132-.039.172-.132zm-.684-.145c.035-.078.066-.21.078-.305a1.09 1.09 0 0 1 .113-.34c.047-.093.102-.257.117-.355l.032-.191-.16.039c-.164.035-.23.094-.23.207a.514.514 0 0 1-.102.207.747.747 0 0 0-.114.347 1.353 1.353 0 0 1-.054.29c-.043.109.054.234.175.234.059 0 .118-.055.145-.133zm-.645-.2c.032-.105.043-.23.028-.273-.02-.046.008-.14.074-.226.098-.133.094-.285-.012-.285-.238.004-.441.25-.414.5.004.09-.008.183-.027.273-.031.13-.02.18.047.227.12.093.238.011.304-.215zm-.742.02a.586.586 0 0 0 .043-.14.313.313 0 0 1 .094-.153c.117-.12.09-.335-.047-.355-.238-.04-.516.496-.348.66.078.078.227.07.258-.012zm-.605-.332c.113-.195.097-.25-.07-.27-.141-.019-.317.141-.32.286-.009.207.257.195.39-.016zm1.082-.765c.492-.13 1.578-.535 2.199-.813 1.3-.594 2.14-1.168 3.578-2.433.625-.551.652-.602.602-1.278-.04-.515-.047-.535-.364-.535-.109 0-.109.004-.03.063.073.054.058.086-.18.375-.794.96-2.493 2.226-3.95 2.945-.941.46-1.808.809-1.93.773-.05-.015-.136-.097-.183-.175-.082-.137-.09-.137-.113-.036-.035.137.035.317.152.38.05.027.117.117.145.195l.05.148h-.222c-.121 0-.399.04-.614.082-.46.09-1.226.067-1.496-.05a3.243 3.243 0 0 1-.468-.294c-.196-.144-.344-.222-.43-.222-.137 0-.133.008.152.281.32.305.781.555 1.219.664.398.102 1.371.066 1.883-.07zm-20.254-.403c.183-.308.176-.332-.176-.597-.71-.528-1.809-1.676-2.41-2.516l-.266-.371-.226.145c-.262.164-.274.238-.106.57.239.46 2.098 2.367 2.582 2.637.14.086.285.183.317.222.097.106.18.082.28-.09zm12.437-.093c.07-.141.18-.336.246-.43.082-.117.114-.207.098-.293-.035-.156.098-.594.246-.832.086-.133.11-.242.102-.438-.004-.14.004-.28.027-.418.043-.183.024-.19-.195-.054-.164.097-.188.164-.168.469a.565.565 0 0 1-.09.32c-.14.226-.309.793-.27.914.024.066-.003.137-.066.203-.195.207-.36.684-.27.777.102.102.227.02.34-.218zm-1.613.125a.27.27 0 0 0 .078-.164c0-.047.055-.168.121-.27.157-.23.196-.32.34-.863.098-.364.102-.434.047-.457-.16-.059-.297.113-.414.523a2.648 2.648 0 0 1-.23.57c-.079.122-.137.25-.18.387-.059.18-.059.219.008.278.09.093.136.093.23-.004zm.941-.282c.137-.25.204-.449.23-.648.017-.156.083-.398.145-.547.114-.27.211-.73.153-.73a.726.726 0 0 0-.18.074c-.101.05-.156.133-.195.281-.028.11-.082.254-.121.313-.04.058-.09.254-.117.433a2.58 2.58 0 0 1-.22.676c-.12.246-.152.36-.116.422.097.183.222.098.421-.274zm-1.414-.238c.192-.367.258-.547.258-.7v-.206l-.156.07c-.09.035-.168.102-.176.156-.066.18-.144.36-.234.532-.266.554-.274.648-.047.648.078 0 .16-.105.355-.5zm3.016.16c.188-.484.5-1.672.582-2.203.086-.539.055-.633-.156-.52-.11.06-.121.094-.121.344 0 .164-.04.368-.09.493-.129.308-.313 1.085-.277 1.195.02.058-.008.121-.067.18-.113.101-.316.68-.277.785.02.047.074.066.16.058.11-.015.144-.062.246-.332zm.7.024c.042-.133.128-.328.183-.438a.944.944 0 0 0 .105-.375c0-.101.063-.418.145-.699.078-.285.148-.578.148-.645v-.12l.133.132.14.13-.066.378c-.035.203-.093.473-.12.594-.028.117-.079.351-.122.515a1.644 1.644 0 0 1-.164.465c-.078.145-.086.18-.031.254.105.14.254.055.394-.226.067-.137.121-.297.121-.356 0-.062.047-.25.094-.418.051-.168.11-.437.13-.59.015-.152.046-.277.066-.277.019 0 .097.062.167.137.13.132.133.152.098.472-.016.192-.066.39-.117.457-.047.07-.125.239-.172.383-.082.238-.082.258-.004.336.117.121.223.043.332-.25a2.06 2.06 0 0 1 .188-.355.51.51 0 0 0 .09-.336c-.004-.27.015-.293.171-.18.149.105.164.32.043.574-.074.156-.074.18-.004.25.118.117.227.047.344-.21.051-.13.106-.243.117-.255.008-.011.082.028.16.086a.723.723 0 0 0 .169.106c.011 0-.09-.176-.235-.387-.144-.219-.277-.437-.293-.496-.015-.066-.254-.281-.543-.504a15.551 15.551 0 0 1-.918-.762l-.406-.379-.027.157c-.016.09-.051.367-.082.62a6.523 6.523 0 0 1-.157.825 6.29 6.29 0 0 0-.117.54c-.008.089-.062.241-.105.339-.121.23-.219.613-.18.707.016.047.066.07.133.059.074-.008.125-.082.191-.258zm-4.505-.024c.067-.086.125-.199.125-.246 0-.047.04-.18.09-.293.055-.117.09-.219.078-.23a.667.667 0 0 0-.203.035c-.152.043-.203.086-.25.215a.974.974 0 0 0-.055.234c0 .043-.046.117-.101.164-.121.11-.125.246-.012.309.11.062.172.02.328-.188zm9.473.055l-.156-.078.093-.16c.13-.211.126-.22-.078-.32l-.175-.087.168-.18c.09-.097.214-.245.273-.335l.11-.153-.118-.074c-.11-.078-.125-.07-.523.324-.25.243-.532.465-.719.563-.168.09-.29.176-.273.2.02.015.144.03.285.03.133.004.281.02.328.04.05.023.09 0 .129-.09.05-.11.07-.114.18-.067l.12.055-.093.164c-.074.121-.082.168-.035.188.097.03.289.058.472.062l.168.004zm-10.3-.082c.085-.094.366-.488.366-.527 0-.02-.082-.032-.187-.032-.164 0-.203.028-.317.2-.14.207-.164.363-.07.402.102.039.125.035.207-.043zm23.968-.129c.023-.121.043-.234.062-.352.016-.136.067-.289.114-.34.21-.238.25-.437.101-.476-.07-.023-.129.016-.195.11a.826.826 0 0 1-.313.218c-.203.078-.23.074-.59-.02-.632-.179-1.515-.663-2.285-1.253a41.809 41.809 0 0 1-1.175-1.004l-.836-.738-.004-.325c-.004-.28-.016-.328-.098-.355-.14-.043-.207-.195-.187-.45.011-.195 0-.226-.106-.269-.105-.035-.535-.004-.535.043 0 .012.027.063.059.113.093.149-.059.414-.278.493-.254.078-.156.14.258.156l.352.012v.597l.496.52c1.101 1.152 2.441 2.168 3.562 2.707.27.129.602.258.742.289.215.05.25.078.262.183.012.098.063.141.192.184.261.094.37.082.402-.043zm-24.555-.227l.14-.144-.124-.031c-.258-.067-.461.082-.332.238.094.113.164.098.32-.063zm-3.351-.347c.031-.434.031-.434-.106-.555-.125-.117-.164-.125-.43-.098-.16.02-.308.043-.328.055-.039.024-.05.86-.007.899.011.015.125.007.25-.02.191-.039.234-.035.347.055.211.164.235.133.274-.336zm12.742.055c.578-.153.848-.563 1.234-1.91.215-.762.219-.837.016-.43-.809 1.601-1.203 2.12-1.504 2.011-.137-.054-.16-.117-.16-.523 0-.379 0-.383.195-.59.223-.246.235-.289.086-.332-.066-.016-.152.016-.242.094-.223.183-.371.152-.852-.168-.55-.371-1.132-.91-1.422-1.324-.226-.325-.226-.325-.34-.239-.1.075-.109.114-.081.313.035.203.082.277.414.61.402.398 1.14.995 1.465 1.175.175.098.19.129.187.285-.012.332.531 1.16.727 1.102.046-.016.168-.047.277-.075zm-8.27-.395c.692-.176 1.098-.34 2.078-.828 1.215-.61 2.461-1.356 2.692-1.602.066-.078.07-.101.016-.12-.051-.02-.063-.102-.04-.329.02-.281.032-.305.141-.316a.612.612 0 0 0 .23-.102c.094-.066.102-.117.079-.309-.02-.175-.051-.23-.121-.25-.137-.039-.387.016-.352.07.02.028.02.102-.004.165-.02.094-.058.121-.172.121-.11 0-.144.02-.144.094 0 .058-.024.101-.051.101-.031 0-.031.028 0 .094.039.074 0 .133-.3.379-1.063.875-2.427 1.578-3.993 2.05-.504.153-.527.157-.617.075-.055-.047-.098-.121-.098-.164-.004-.055-.02-.047-.055.031-.046.09-.035.145.075.297.195.285.18.3-.285.3-.512 0-.844-.07-1.22-.253-.402-.203-.663-.426-.89-.774-.113-.164-.203-.28-.203-.257 0 .093.445.933.582 1.101.184.215.64.45 1.074.547.414.098.89.059 1.578-.121zM18.191 9.949a5.81 5.81 0 0 0 .036-.578c0-.32 0-.328-.188-.473l-.187-.148-.383.059-.387.058-.012.551c-.011.457 0 .57.067.64.07.083.093.087.27.02.171-.058.214-.058.421.027.125.051.254.094.281.094.032.004.067-.11.082-.25zm17.664-1.285l.036-.512-.16-.144c-.157-.137-.184-.14-.508-.11-.188.02-.368.055-.399.079-.043.035-.062.207-.062.55 0 .606.035.657.367.54.203-.067.234-.067.422.015.113.05.222.094.238.098.016 0 .047-.23.066-.516zm12.829-.008c.02-.02.035-.281.043-.582l.015-.55-.203-.172-.207-.168-.398.054c-.227.035-.422.086-.442.114-.047.078-.043 1.234.004 1.265.02.012.184 0 .363-.031.278-.047.356-.043.536.023.242.094.261.098.292.047zm0 0"/></svg>