<svg xmlns="http://www.w3.org/2000/svg" width="64" height="64"><path d="M30.742 62.974c-3.984-.187-7.735-1.052-11.208-2.584-8.759-3.864-15.279-11.572-17.599-20.806a31.205 31.205 0 0 1-.585-12.256c.79-5.323 3.04-10.454 6.443-14.698C15.043 3.588 26.625-.644 38.022 1.586c4.65.91 9.193 2.974 12.919 5.87 1.097.854 1.89 1.557 2.967 2.634 1.688 1.687 3.004 3.314 4.21 5.203 4.596 7.205 6.02 15.904 3.961 24.22-1.438 5.811-4.61 11.16-9.054 15.263a31.012 31.012 0 0 1-15.1 7.654c-2.278.442-4.984.647-7.183.544zm-1.807-3.347c-.02-.033-.113-.177-.21-.32-.802-1.196-1.326-2.889-1.325-4.28 0-1.14.386-2.49.961-3.365.333-.506.592-.794 1.025-1.138.805-.64 2.611-1.323 3.813-1.442.458-.045.46-.06.072-.404-.892-.793-2.335-1.699-2.705-1.698-.198 0-1.092.227-1.129.286-.015.024-.244.15-.51.28-.267.13-.644.345-.84.477-.836.564-1.788 1.476-2.202 2.11-.507.777-.94 1.845-1.145 2.827-.274 1.316.052 4.035.653 5.453l.214.505.259.099c.638.244 1.632.49 2.41.595.634.086.702.088.659.015zm2.327-.059c.234-.043.451-.093.483-.11.04-.022-.026-.14-.205-.373-.234-.305-.274-.337-.371-.3-.237.09-1.102.151-1.695.12-.333-.019-.605-.019-.605 0 0 .035.12.215.376.561l.17.23.71-.024c.392-.014.903-.06 1.137-.104zm1.993-.653c2.36-1.183 3.424-3.53 2.747-6.059-.104-.39-.404-1.202-.466-1.264-.037-.038-1.312.135-1.688.229a5.103 5.103 0 0 0-.83.324c-.848.42-1.267.84-1.685 1.686-.42.852-.604 1.774-.514 2.585.065.59.302 1.448.482 1.744.17.281.599.864.781 1.06l.118.128.338-.121c.186-.067.508-.207.717-.312zm-8.283-.64l-.191-.462-.46-.271c-.378-.222-1.155-.775-1.743-1.238-.109-.086-.108-.082.034.308.283.778.358.888.805 1.186.328.22 1.651.94 1.726.94.011 0-.066-.208-.17-.462zm-2.862-2.121c-.284-.853-.418-1.331-.47-1.69-.26-1.778-.104-3.26.489-4.634.514-1.191 1.708-2.476 2.972-3.198.377-.215 1.378-.665 1.609-.723.25-.063.1-.106-.484-.14-1.496-.086-2.997.205-4.184.811-3.237 1.652-3.831 5.365-1.39 8.673.278.377 1.702 1.863 1.743 1.819.008-.01-.12-.423-.285-.918zm-2.89.066c.49-.123.462-.393-.058-.56-.637-.204-1.125-.552-1.026-.73a.83.83 0 0 1 .206-.184c.216-.146.504-.53.593-.793.137-.402.069-.908-.167-1.24-.125-.175-.471-.38-.72-.425-.116-.021-.37-.006-.647.038-.55.089-.774.057-.967-.137-.127-.126-.14-.164-.12-.37.024-.243.148-.478.464-.878.636-.805.728-1.607.244-2.128-.168-.182-.347-.269-.55-.269-.162 0-.168-.006-.134-.13.108-.404-.032-.909-.326-1.175-.249-.224-.453-.307-.84-.34-1.17-.097-2.514 1.066-2.117 1.832.083.16.178.204.324.149.102-.039.365-.378.365-.47 0-.106.401-.48.666-.622.384-.204.829-.254.961-.107.16.178.09.334-.3.658-.448.373-.598.63-.525.9.063.235.21.396.362.396.065 0 .255-.062.422-.138.167-.076.367-.151.444-.168a.545.545 0 0 1 .556.262c.134.259.07.474-.3 1.012-.41.594-.506.784-.578 1.136-.059.283-.035.693.054.927.064.17.22.326.443.446.175.095.247.101.962.09l.773-.014.14.14c.235.236.182.385-.326.917-.206.216-.399.438-.428.495-.085.163-.064.378.061.626.318.628 1.335 1.044 2.09.854zm24.443-.553c.327-.154.737-.565.803-.805.278-1-.675-2.674-1.639-2.878-.136-.028-.152-.053-.202-.301-.08-.4-.275-.744-.582-1.029-.486-.45-1.087-.587-1.787-.41l-.393.1-.238-.189c-.296-.234-.81-.403-1.09-.358-.7.111-1.231.84-1.23 1.687 0 .394.086.694.267.931.2.262.247.178.24-.424-.004-.482.006-.553.116-.767.173-.338.45-.522.783-.522.224 0 .275.018.406.15.144.143.152.172.18.621.03.516.081.627.287.627.28 0 .461-.201.74-.82.093-.205.164-.296.28-.35.207-.1.545-.05.733.109.18.152.4.596.36.726-.018.054-.156.193-.309.31-.152.118-.345.3-.43.407-.188.238-.374.678-.376.889-.003.44.552.875.942.738.073-.026.27-.235.48-.51.356-.469.628-.692.84-.692.138-.001.447.28.602.543.067.114.153.33.193.482.123.472.019.757-.472 1.292-.353.384-.386.503-.156.568.194.054.324.03.652-.125zm-8.378-4.416c.073-.027.034-.107-.292-.599a11.766 11.766 0 0 0-.69-.934c-.279-.325-.334-.368-.477-.368-.192 0-.894.095-.924.124-.011.012.108.154.265.316.389.402.762.848 1.036 1.236l.228.324.384-.034c.211-.018.423-.048.47-.065zm19.135-.572c1.402-.266 3.193-1.965 3.917-3.717.191-.463.275-.78.428-1.607.147-.8.303-1.122 1.061-2.193.945-1.335 1.22-1.953 1.18-2.65-.02-.348-.143-.787-.22-.785-.016 0-.096.102-.177.225-.106.162-.136.251-.11.32.08.206.045.69-.078 1.057-.158.47-.439.936-1.05 1.748-.272.36-.58.83-.683 1.043-.185.38-.22.519-.462 1.793a4.414 4.414 0 0 1-.715 1.737c-.862 1.297-2.066 2.298-3.04 2.528-.783.184-1.179-.001-1.444-.679a2.188 2.188 0 0 0-.263-.49c-.124-.147-.138-.152-.214-.077-.077.075-.077.097 0 .403.17.678.527 1.126 1.038 1.302.281.098.486.108.832.042zm-11.7-1.414c.119-.058.35-.222.516-.365.467-.404.728-.408 1.601-.02.838.371 1.292.422 1.462.162.096-.146.06-.203-.114-.177-.202.03-.667-.103-1.063-.302-.59-.298-.908-.398-1.259-.398-.363 0-.483.057-.918.433a2.458 2.458 0 0 1-.482.326c-.198.088-.236.09-.52.03-.46-.096-.962-.5-1.245-1.003-.3-.532-.382-1.563-.235-2.915.122-1.125.163-1.904.122-2.338-.034-.37-.067-.473-.284-.9-.36-.709-.443-1.198-.332-1.943.048-.322.044-.362-.047-.512-.202-.33-.104-.81.233-1.149l.227-.227-.078-.187c-.043-.103-.1-.187-.127-.187-.098-.001-.386.232-.513.415-.391.565-.465 1.367-.149 1.616l.118.092-.126.243c-.15.288-.191.628-.116.94.03.124.225.577.433 1.008.207.43.398.895.424 1.032.038.207.02.425-.107 1.256-.132.872-.152 1.12-.148 1.86.01 1.42.122 1.853.648 2.49.606.734 1.447 1.025 2.078.72zm7.532-.01c.65-.185 1.06-.436 1.616-.993.939-.937 1.557-2.073 1.71-3.143.049-.331.045-.463-.021-.857-.137-.808-.366-1.17-.741-1.17-.297 0-.578.24-1.334 1.14-.483.573-.755.857-.901.939-.207.115-.213.116-.386.034-.238-.113-.384-.428-.51-1.094-.303-1.605-.409-1.82-.913-1.86-.204-.017-.28 0-.415.09-.246.166-.515.602-.857 1.386-.332.76-.508 1.024-.683 1.024-.151 0-.281-.168-.617-.798-.342-.64-.584-.974-.722-.994-.18-.026-.217.135-.192.817.04 1.032.345 2.16.887 3.275.68 1.397 1.36 2.042 2.397 2.272.447.099 1.208.068 1.682-.067zm4.962-.28c.494-.224.883-1.25.679-1.79-.135-.355-.482-.458-.807-.24-.525.354-.911 1.43-.675 1.882.128.246.456.306.803.148zm-12.751-1.463c.25-.178.323-.394.323-.959 0-.57-.082-.872-.31-1.15-.238-.288-.662-.3-.972-.028-.229.201-.324.544-.298 1.08.022.462.133.749.399 1.03.154.164.17.17.436.15.183-.013.326-.055.422-.123zm-13.158-.575a5.97 5.97 0 0 1 .528-.149c.146-.033.256-.075.244-.094-.059-.096-1.591-.587-2.207-.709-.256-.05-.285-.045-.839.16-.315.115-.607.229-.649.252-.052.03.088.068.46.127.5.08 1.968.428 2.02.48.044.044.182.023.443-.067zm26.746-4.046c.985-1.985 1.593-2.833 2.347-3.273.544-.317.803-.378 1.055-.247.288.149.307.401.071.973-.09.22-.165.434-.166.475 0 .091.091.187.18.187.054 0 .056-.014.012-.068-.046-.055-.004-.134.226-.415.35-.428.767-1.031.767-1.11 0-.09-.28-.305-.57-.44-.499-.23-1.275-.12-1.874.27-.284.183-.97.833-.97.917 0 .025-.115.188-.256.362-.48.594-.963 1.46-1.453 2.603-.285.665-.335.902-.21.994a.326.326 0 0 0 .144.064c.031 0 .345-.582.697-1.292zm2.15.61c.356-.37.574-.682.714-1.024.128-.31.144-.691.036-.845-.1-.142-.408-.294-.596-.294-.375 0-.898.45-1.181 1.015l-.14.28.185.083c.328.147.544.603.358.757-.247.205-.167.404.142.358.157-.023.245-.084.481-.329zm-14.089-1.867a64.454 64.454 0 0 1-.048-1.434c-.009-.574-.043-.743-.439-2.14-.261-.921-.492-1.28-.994-1.549-.787-.419-1.832-.165-2.116.515-.065.157-.062.192.044.495.12.345.198.445.419.538.115.05.132.048.109-.012-.306-.798.068-1.382.83-1.292.544.064 1.07.528 1.31 1.157.349.91.484 1.775.517 3.298.028 1.27.038 1.313.285 1.313h.123l-.04-.889zm7.269.32c.158-.096.467-.535.694-.985.166-.33.423-.609.62-.674.318-.105.695.107.894.503.041.082.098.293.126.469.074.46.23.724.392.661.069-.026.178-.263.271-.589.086-.299.148-1.477.102-1.921a3.16 3.16 0 0 1-.03-.443c.008-.008.176.174.373.406.479.563.684.703 1.227.84.241.062.453.103.47.093.016-.01.144-.15.282-.31.247-.285.25-.29.088-.205-.216.114-.662.114-.96 0-.39-.147-.887-.679-.887-.946 0-.04.053-.124.118-.19.065-.065.119-.139.119-.164 0-.088-.338-.16-.61-.13-1.05.118-1.146.101-1.143-.202.003-.313.32-.703.78-.958.374-.207.474-.22.795-.105.212.076.231.076.306 0 .151-.15.032-.318-.383-.54-.205-.11-.401-.239-.437-.285-.077-.103-.085-.328-.017-.523.1-.285.657-.616.936-.554.21.046.715.303.839.426.063.064.139.115.168.115.104 0 .567-.54.567-.661 0-.18-.106-.383-.213-.41-.122-.03-.332.085-.407.225-.062.117-.31.114-.7-.008-.403-.126-.624-.12-.922.03-.3.15-.533.362-.654.597-.122.237-.119.658.007.935.074.165.082.218.034.248-.127.08-.18.028-.39-.375-.569-1.096-1.382-1.768-2.399-1.984-.455-.097-1.216-.065-1.681.072a4.86 4.86 0 0 0-1.4.704c-1.277.97-2.516 2.961-2.942 4.728-.176.733-.098 1.058.298 1.25.517.25.88.06 1.534-.804.191-.252.425-.522.519-.6a1.032 1.032 0 0 1 1.43.09c.081.087.322.457.534.82.463.795.703 1.121.961 1.309.232.167.465.183.69.045zm-9.75-.652c.232-.338.561-.673.762-.775.205-.105.248-.216.245-.64-.002-.334-.154-.693-.356-.84-.481-.348-1.373.903-1.313 1.843.017.27.038.324.18.471.09.092.2.166.245.166.046 0 .152-.1.238-.225zm3.47-3.715c.252-.25.288-.438.129-.68-.109-.164-.099-.188.124-.293.22-.105.316-.271.44-.763.138-.549.2-.655.453-.767.117-.052.213-.116.213-.143 0-.056-.04-.066-.665-.167-1.491-.24-2.523-.993-3.014-2.2l-.107-.262.208-.23c.217-.243.402-.653.402-.895 0-.35-.453-.962-.933-1.263-.173-.109-.22-.171-.277-.368-.107-.373-.178-.924-.148-1.148.059-.426.307-.669.623-.61.333.063.825.648 1.066 1.268.162.415.253.514.473.514.265 0 .341-.084.389-.43.05-.364.186-.662.403-.88.13-.129.198-.16.352-.16.547 0 .71.373.797 1.83.048.814.102.972.434 1.272.357.322.877.492 1.895.618.784.097.883.095.913-.019.033-.125-.323-.266-.914-.361-.609-.098-.973-.196-1.257-.337-.542-.27-.652-.498-.669-1.391-.012-.677-.061-.983-.209-1.317-.211-.478-.478-.671-.928-.673-.421-.002-.811.344-1.089.965-.077.171-.15.312-.165.312-.014.001-.085-.12-.159-.27-.4-.82-.95-1.29-1.513-1.292-.378-.002-.646.2-.772.582-.1.303-.07.998.068 1.502.057.207.08.374.056.403-.024.029-.022.144.005.269.046.218.047.219.272.24a.82.82 0 0 1 .38.136c.227.167.432.502.432.704 0 .321-.287.62-.595.62-.114 0-.123.013-.094.13.018.072.06.195.094.273.034.078.12.298.191.488.373.993 1.172 1.66 2.46 2.054.265.08.508.18.54.222.09.114.069.471-.049.815-.093.274-.131.326-.342.462-.43.278-.499.453-.274.687.092.096.116.153.083.196a5.558 5.558 0 0 0-.557.94l-.145.328.084.357.084.358.296-.704c.246-.585.333-.74.517-.922zm13.514 1.051c.134-.004.41-.305.41-.446 0-.066.054-.221.12-.344.064-.123.16-.364.211-.536.052-.172.17-.43.262-.573.214-.331.303-.63.34-1.141.028-.39.023-.42-.127-.734-.216-.452-.805-1.03-1.849-1.815-.456-.343-1-.785-1.209-.982-.37-.35-.383-.358-.568-.327-.367.06-.365.079.047.482.208.205.762.649 1.23.987.874.632 1.633 1.305 1.886 1.673.192.279.211.509.085 1.003-.133.518-.332.995-.828 1.986l-.4.8.151-.015a4.87 4.87 0 0 1 .24-.018zm-43.633-1.736c.134-.068.368-.245.522-.394l.279-.272v-.382c0-.21.014-.486.03-.614l.032-.232-.164.213c-.233.304-.436.427-.7.427-.513 0-.92-.553-.834-1.132.104-.691.703-1.19 1.428-1.19.29 0 .28.022.224-.522l-.031-.298-.645.027c-1.085.045-1.706.243-2.163.69-.436.427-.62 1-.577 1.809.038.744.223 1.193.655 1.59.53.488 1.312.6 1.944.28zm17.153.17c.135-.026.36-.08.5-.12l.255-.075.033-.342c.017-.188.062-.55.099-.803.037-.254.067-.478.067-.496 0-.019-.09.054-.201.16-.756.73-2.175.637-2.85-.186-.32-.391-.474-.896-.533-1.746-.053-.767.103-1.956.31-2.362.107-.21.336-.418.504-.46.113-.03.115-.038.115-.57 0-.616.03-.585-.457-.47-1.461.345-2.288 1.637-2.292 3.582-.004 2 .733 3.284 2.15 3.743.532.173 1.75.25 2.3.145zm-10.74-.073c.682-.177 1.18-.573 1.472-1.17.427-.872.29-1.933-.336-2.604-.13-.137-.553-.458-.972-.733-.845-.556-.987-.711-.987-1.07 0-.27.152-.48.412-.565.418-.138 1.183.067 1.593.427l.176.155v-.356c0-.22.042-.52.112-.787l.112-.433-.242-.067a4.364 4.364 0 0 0-1.357-.185c-1.576.003-2.48.711-2.592 2.031-.087 1.034.424 1.79 1.635 2.419.434.225.79.54.864.765a.718.718 0 0 1-.415.9c-.388.165-1.077.027-1.664-.335-.373-.23-.364-.234-.412.126a9.483 9.483 0 0 1-.146.706c-.065.265-.108.492-.097.503.036.036.75.21 1.12.274.507.087 1.389.087 1.724 0zM8.79 36.952c.678 0 1.588.018 2.023.04l.79.04.032-.277c.038-.342.205-1.414.244-1.57.027-.104.009-.098-.226.081-.15.115-.392.238-.587.3-.299.096-.43.106-1.312.106-.961 0-.982-.002-1.098-.11-.186-.175-.222-.435-.222-1.623v-1.1l1.032.023c.912.019 1.061.033 1.292.124l.26.102.003-.89.003-.89-.263.091c-.22.077-.436.096-1.295.114l-1.032.022v-2.514l.77-.034c1.052-.046 1.766.02 2.056.19.119.07.222.12.23.11.007-.008.026-.408.042-.887l.03-.87-.248.035c-.682.098-4.064.098-4.86 0l-.296-.036.116.307c.064.17.15.533.19.808.155 1.047.21 3.903.124 6.554-.036 1.098-.047 1.209-.158 1.508l-.12.323.624-.038a40.205 40.205 0 0 1 1.856-.039zm9.222.045c0-.005-.037-.103-.083-.217-.075-.188-.083-.448-.087-2.791-.005-2.225-.016-2.625-.082-2.88-.196-.75-.575-1.139-1.336-1.37-.386-.118-1.483-.118-2.08 0a7.521 7.521 0 0 0-1.375.412l-.217.096.092.233c.078.2.194.618.303 1.098l.028.126.389-.233c.672-.404 1.397-.563 1.891-.415.269.08.455.3.538.634.105.422.152 2.036.107 3.675-.022.787-.028 1.478-.013 1.536.026.105.034.106.976.106.522 0 .95-.005.95-.01zm8.89-.003l.238-.029v-.633l.002-.633-.12.033c-.212.058-.543.031-.673-.054-.32-.21-.366-.556-.369-2.744l-.002-1.648h1.09v-1.114l-.521.016-.522.016.002-.632c0-.348.02-.899.044-1.224.024-.326.038-.597.031-.604a4.325 4.325 0 0 0-.477.155c-.256.092-.671.2-.922.24-.25.04-.478.08-.505.088-.035.01-.032.153.008.458.032.245.06.686.062.982l.003.538-.439-.016-.438-.017-.013.61c-.012.537-.005.607.06.582.04-.015.239-.042.44-.059l.366-.03-.015 2.232c-.013 1.93-.005 2.272.061 2.53.132.515.386.777.879.91.271.073 1.287.1 1.73.047zm9.348-.264c-.127-.252-.138-.322-.175-1.09-.131-2.716.03-3.611.729-4.04.191-.119.276-.141.521-.138.162.001.387.038.502.08.115.043.217.07.226.06.01-.009.048-.28.086-.604.038-.324.103-.767.144-.985.042-.218.067-.405.056-.416-.036-.036-.53.09-.768.195-.473.21-1.09.855-1.36 1.423l-.136.285.024-.474.054-1.015c.03-.515.026-.539-.058-.506-.41.157-1.046.277-1.594.3a6.855 6.855 0 0 0-.605.038c0 .007.051.116.114.242.264.534.327 1.398.3 4.1-.018 1.891-.03 2.14-.113 2.46l-.092.355h2.28l-.135-.27zm-2.923-3.655c0-1.304-.266-2.274-.788-2.87-.346-.396-.999-.673-1.585-.673h-.234V30.567l.214.103c.368.179.56.62.62 1.428l.033.421H29.829l-.021.29c-.011.16-.011.405 0 .546l.021.255h3.497v-.535zm8.517-.828a5.406 5.406 0 0 1-.059-.226 2.616 2.616 0 0 0-.144-.379 1.22 1.22 0 0 1-.112-.521 3.581 3.581 0 0 0-.085-.64l-.083-.354-.104.169c-.167.27-.221.619-.158 1.01.08.493.245.802.492.924.244.121.285.124.253.017zm16.035-.776c.055-.034.135-.17.177-.301.042-.132.29-.653.552-1.159.526-1.015.598-1.275.452-1.624-.062-.15-.13-.2-.479-.367l-.406-.193.033-.155a3.28 3.28 0 0 0 .035-.493c.002-.515-.155-.643-.544-.444a1.02 1.02 0 0 1-.775.03c-.113-.047-.21-.158-.356-.403-.212-.356-.811-1.14-.873-1.143-.02 0-.071.071-.114.16l-.076.161.35.472c.193.26.427.6.521.756.168.278.178.286.484.363.397.1.692.1.833 0 .2-.14.223-.01.119.679-.026.169-.013.215.085.313.064.064.257.162.43.22.172.057.34.137.374.177.159.192-.007.744-.418 1.395-.303.48-.442.783-.442.967 0 .146-.193.296-.676.525-.202.096-.367.184-.367.195 0 .012.058.07.128.131l.128.11.363-.155c.2-.085.407-.183.462-.217zm-8.317-.117c.072-.188.03-.258-.223-.37-.549-.242-1.195-.755-1.364-1.082-.143-.277-.121-.397.098-.536.105-.066.19-.156.19-.202-.001-.045-.092-.17-.203-.277a2.116 2.116 0 0 1-.343-.474c-.13-.257-.141-.319-.141-.777 0-.41.018-.537.102-.72.145-.313.28-.37.87-.37.49 0 .758-.074.758-.207 0-.085-.212-.277-.256-.233-.02.02-.3.047-.623.06l-.587.024-.22.213c-.275.268-.383.477-.445.859-.081.507.066 1.13.378 1.592l.137.203-.092.202c-.106.234-.113.343-.042.627.101.4.738.975 1.507 1.362.402.202.458.214.499.106zm3.665-.356c.112-.055.284-.19.382-.3.11-.125.263-.233.399-.283.282-.104.63-.468.702-.736.1-.368-.05-.716-.307-.716-.139 0-.142.027-.043.331.07.214.07.243-.007.404-.104.22-.363.393-.643.432-.415.057-.555-.144-.598-.859-.033-.553.031-.782.22-.782a.423.423 0 0 0 .212-.06c.115-.085.152-.41.06-.532-.064-.087-.125-.095-.707-.095-.747 0-.818.029-.778.321.028.21.147.366.28.366.254 0 .377.234.375.71-.002.383-.09.647-.262.792-.13.11-.171.119-.42.093a1.472 1.472 0 0 1-.412-.1c-.317-.164-.428-.51-.24-.75.118-.15.12-.209.005-.245-.118-.038-.318.057-.406.192-.2.305-.116.71.197.948.183.14.576.304.726.304.052 0 .094.018.094.039 0 .082.35.442.515.53.225.118.404.118.656-.004zm.416-3.866c.265-.102.282-.734.023-.872-.325-.174-.604.32-.402.71.091.176.21.227.379.162zm-1.38-.256c.256-.303.197-.72-.105-.749-.174-.017-.305.073-.415.285-.233.451.204.84.52.464zm-2.7-1.018c.05-.197-.072-.553-.259-.759-.128-.14-1.201-1.864-1.372-2.203-.251-.498-.718-1.847-.833-2.41-.205-.996-.258-2.64-.11-3.352.094-.443.383-1.375.451-1.452.057-.064.06-.115.013-.297-.03-.121-.072-.23-.092-.243-.06-.037-.31.28-.444.563-.47.992-.546 3.328-.167 5.089.306 1.425.923 2.718 2.025 4.247.24.333.436.62.436.638 0 .043.247.297.289.297.018 0 .046-.053.063-.118zm4.695-.004c.113-.113.09-.207-.093-.38-.268-.253-.686-.31-.686-.092 0 .113.248.367.448.458.235.106.239.107.33.014zm-2.49-.042c.17-.088.383-.338.383-.45 0-.254-.355-.213-.643.075-.15.15-.209.335-.131.413.054.054.251.035.392-.038zm-13.249-.57c1.016-.284 1.621-.924 2.06-2.18.082-.233.372-1.331.645-2.44.75-3.052 1.053-4.21 1.346-5.148l.266-.853h-.868c-.999 0-.89-.067-.93.572-.034.52-.146 1.258-.342 2.25-.166.837-.665 3.092-.714 3.223-.015.04-.142-.366-.282-.9-.909-3.454-1.047-4.057-1.094-4.767l-.028-.428-.433.04c-.237.023-.753.03-1.146.017l-.715-.025.225.602c.382 1.02 1.381 4.358 1.763 5.888l.207.83.554.013c.395.01.553.03.553.071 0 .156-.264.82-.425 1.07a1.46 1.46 0 0 1-.91.653 1.52 1.52 0 0 1-1.008-.07l-.217-.096-.02.104c-.01.057-.078.402-.15.767-.07.366-.139.725-.152.8l-.023.136.777-.024c.515-.016.873-.052 1.061-.104zm-14.485-.101c.312-.017.726-.007.969.023.233.029.429.047.436.04a2.366 2.366 0 0 0-.077-.367c-.16-.63-.188-1.072-.238-3.65-.04-2.06-.036-2.932.021-4.643a89.99 89.99 0 0 0 .058-2.12c-.006-.007-.14.039-.297.102-.386.156-1.025.261-1.589.261h-.466l.14.202c.33.474.379 1.094.378 4.871-.001 3.18-.043 4.456-.162 4.884l-.104.374c-.031.111-.027.113.177.083.115-.017.454-.044.754-.06zm7.089.006c.312 0 .694.016.847.036l.278.037-.035-.132c-.2-.77-.218-.979-.268-3-.051-2.093-.02-6.292.052-7.159.023-.273.036-.503.03-.51-.008-.008-.118.031-.245.086-.394.169-.775.238-1.474.267l-.673.029.136.17c.346.438.379.878.378 5.126 0 3.965-.024 4.42-.266 5.051-.027.069.008.073.32.038.193-.022.607-.04.92-.04zm24.342-.309c.465-1.22.702-2.772.656-4.312-.04-1.308-.25-2.283-.704-3.268-.476-1.03-1.35-2.017-1.934-2.185-.138-.04-.146-.034-.146.085.002.375.045.457.315.598.451.237 1.09 1.043 1.382 1.741.196.473.37 1.081.496 1.745.142.748.153 2.726.02 3.534-.103.625-.319 1.506-.474 1.934l-.113.31.123.097a.498.498 0 0 0 .179.098c.03.002.12-.168.2-.377zm-3.843-.087c.07-.047.162-.1.205-.115.067-.024.072-.056.029-.224-.034-.133-.07-.187-.114-.17-.04.015-.065-.008-.065-.057 0-.381-.258-2.171-.456-3.163-.615-3.086-2.262-6.037-3.373-6.044-.177-.001-.179.004-.08.294.062.182.118.244.35.387.438.27.978.878 1.291 1.454.34.624.506 1.036.957 2.368.478 1.412.52 1.622.839 4.29.09.756.167 1.068.264 1.068.015 0 .084-.04.153-.088zm1.23-.237c.047-.03.044-.08-.015-.248-.143-.4-.446-1.519-.562-2.072-.345-1.643-.377-3.131-.1-4.63.177-.954.402-1.514.71-1.769.168-.137.17-.142.138-.407-.017-.148-.045-.269-.061-.269-.099 0-.397.27-.545.494-.814 1.226-1.102 3.839-.687 6.235.1.577.304 1.432.466 1.949.086.273.088.313.023.36-.066.05-.06.233.013.361.026.048.543.045.62-.004zm-2.6-.477c.304-.427-.094-2.907-.64-3.993-.203-.403-.675-1.188-.75-1.25a3.217 3.217 0 0 1-.26-.316c-.242-.323-.318-.36-.46-.227-.355.334-.403 2.106-.084 3.103.185.578.547 1.295.868 1.722.286.38.685.766.79.767.03 0 .1.075.153.166.12.204.25.214.382.028zm4.253-.231c.265-.395.427-1.803.347-3.01-.074-1.11-.253-1.867-.622-2.625-.197-.406-.494-.776-.623-.776-.364 0-.702 1.38-.701 2.863 0 1.469.455 3.121.988 3.59.225.196.462.18.611-.042zm-35.284-1.99c.157-.08.399-.249.538-.375l.254-.23.024-.616.023-.616-.123.176c-.248.352-.707.51-1.02.348-.506-.262-.668-.969-.353-1.547.242-.444.708-.708 1.252-.708h.283l-.028-.343c-.042-.52.022-.48-.72-.45-.72.027-1.239.127-1.6.307-.774.386-1.114.996-1.114 1.998 0 .775.148 1.23.537 1.653.4.434.772.59 1.36.566.339-.013.448-.04.687-.162zm7.619.057c1.079-.28 1.814-1.09 2.16-2.382.115-.43.124-.53.125-1.503 0-.98-.007-1.072-.124-1.505-.24-.887-.679-1.515-1.257-1.8-.265-.13-.365-.154-.653-.154-.297 0-.386.022-.691.174-.222.11-.446.27-.61.436-.234.239-.26.288-.291.536-.02.15-.036.442-.039.648l-.004.375.142-.196c.152-.209.444-.387.636-.387.438 0 .8.437 1.005 1.209.112.426.128 1.936.025 2.347-.216.855-.646 1.2-1.494 1.202h-.374l.03.383c.016.21.03.45.03.533 0 .118.024.156.107.175.192.042.978-.013 1.277-.09zm6.794 0c1.097-.285 1.883-1.174 2.187-2.47.1-.428.146-1.303.106-1.996-.06-1.013-.342-1.784-.847-2.31-.71-.74-1.62-.761-2.399-.057-.335.303-.38.426-.418 1.122l-.031.593.09-.142c.138-.22.417-.443.598-.477.514-.096.957.418 1.143 1.33.102.497.105 1.671.007 2.14-.119.563-.349.929-.698 1.108-.226.117-.725.203-.951.165l-.184-.031v.546c0 .527.003.547.107.57.19.042 1-.015 1.29-.09zm-22.83-.168c-.14-.352-.183-.837-.218-2.405l-.033-1.478h3.16l-.031 1.6c-.031 1.629-.074 2.142-.196 2.378l-.068.132 1.2.001 1.2.001-.087-.279c-.146-.466-.197-1.605-.201-4.497-.005-2.777.032-3.644.186-4.31.038-.167.063-.31.054-.318-.008-.009-.275.008-.593.038-.428.039-.73.039-1.157 0a8.033 8.033 0 0 0-.587-.043c-.005.005.033.202.084.437.076.347.1.701.125 1.89.021.97.016 1.47-.016 1.483-.026.01-.72.013-1.541.006l-1.493-.013-.015-.403c-.034-.921.103-2.71.252-3.285l.035-.132-.397.037a10.11 10.11 0 0 1-1.69 0l-.394-.036.076.147c.23.443.304 1.701.306 5.142 0 2.736-.05 3.523-.258 4.056-.025.066.104.074 1.177.071l1.205-.002-.086-.218zm11.363-.09c-.089-.293-.093-.437-.082-2.775.01-2.1.001-2.513-.062-2.786-.188-.811-.66-1.249-1.553-1.44-.45-.095-1.394-.059-2.053.08-.369.077-1.316.383-1.39.448-.007.006.05.201.127.433.077.232.167.555.2.718.034.163.077.296.096.296.02 0 .175-.088.347-.195.467-.293 1.01-.467 1.461-.468.206 0 .438.028.524.064.197.082.393.314.458.541.107.379.152 1.7.12 3.543l-.032 1.849h1.932l-.093-.308z"/></svg>