<svg xmlns="http://www.w3.org/2000/svg" width="64" height="64"><path d="M30.077 62.943c-5.97-.358-11.87-2.527-16.654-6.123-1.678-1.26-3.946-3.407-5.19-4.91-3.066-3.706-5.155-7.791-6.284-12.292A31.088 31.088 0 0 1 3.619 19.5a31.985 31.985 0 0 1 3.531-6.047c1.664-2.22 4.053-4.612 6.273-6.277C21.308 1.258 31.6-.535 41.096 2.354a31.297 31.297 0 0 1 9.45 4.795c2.223 1.667 4.611 4.054 6.277 6.273 5.597 7.458 7.517 17.076 5.228 26.191-1.865 7.43-6.483 13.94-12.94 18.24-5.562 3.705-12.262 5.497-19.034 5.09zm16.871-4.955l-.132-.186H16.889l-.179.186-.178.186h30.549l-.133-.186zm.481-20.205c-.015-19.282-.02-20.095-.13-20.416-.264-.78-.866-1.649-1.397-2.016-.227-.158-.269-.167-.468-.101l-.219.072.386.263c.729.499 1.191 1.254 1.384 2.262.074.385.087 3.485.087 20.052v19.598l.136.183c.074.101.158.184.187.184.028 0 .043-9.037.034-20.081zm-30.75.516c0-13.012.022-19.333.067-19.813.158-1.692.605-2.54 1.605-3.047l.338-.171-.204-.106c-.202-.104-.207-.103-.546.1-.649.39-1.199 1.175-1.449 2.066-.119.426-.12.77-.12 20.402V57.7l.154-.146.155-.146V38.299zm14.452 7.035v-10.42H18.602v10.379c0 5.709.019 10.398.041 10.42.023.023 2.842.042 6.265.042h6.223v-10.42zm14.142 0v-10.42l-6.249.015-6.249.016-.016 10.327c-.009 5.68-.003 10.363.014 10.405.023.062 1.333.078 6.265.078h6.235v-10.42zM31.1 26.913c0-6.076-.01-6.733-.11-7.394-.157-1.032-.318-1.62-.603-2.2-.45-.914-1.066-1.302-1.986-1.25l-.421.023.544-.57c.59-.616.877-1.097.995-1.67.182-.873-.36-1.798-1.613-2.754a43.61 43.61 0 0 0-1.75-1.198l-1.285-.843-.979.642c-1.788 1.173-2.215 1.485-2.755 2.017-1.297 1.279-1.276 2.379.074 3.805l.537.568h-.627c-.522.001-.67.023-.877.134-.288.154-.774.652-.93.954-.191.37-.404 1.067-.54 1.765-.128.666-.132.85-.155 7.592-.012 3.8-.009 6.948.01 6.994.026.07 1.071.081 6.251.068l6.22-.016v-6.667zm14.155-.14c-.022-6.015-.037-6.91-.127-7.428-.256-1.467-.578-2.267-1.118-2.777-.417-.394-.81-.532-1.435-.5l-.455.023.543-.562c.725-.748 1.029-1.334 1.029-1.98 0-.553-.139-.92-.532-1.41-.473-.589-.967-.982-2.607-2.07l-1.526-1.014-1.482.982c-1.63 1.08-2.199 1.528-2.645 2.082-.418.519-.562.933-.53 1.52.038.665.337 1.218 1.041 1.924l.527.529-.508-.023c-.65-.03-1.027.09-1.435.456-.53.478-.87 1.286-1.104 2.634-.09.518-.106 1.423-.128 7.436-.014 3.766-.011 6.885.007 6.932.027.07 1.051.084 6.27.084h6.24l-.025-6.838zm2.158-20.505c-.017-.017-.101.034-.186.114l-.155.146v9.576l.17.303.171.302.016-5.204c.009-2.863.002-5.22-.016-5.237zm-30.737 5.023l.003-4.736-.155-.184-.155-.185.003 5.2.003 5.2.15-.28.149-.279.002-4.736zm15.637 4.724c.359-.212.358-.355-.007-1.305-.18-.47-.347-.877-.371-.905-.024-.028-.16.28-.302.682l-.33.933c-.177.5.499.897 1.01.595zm13.308-1.203c.039-.032.122-.218.186-.414.174-.533.15-1.397-.056-1.988-.471-1.354-1.936-2.888-3.998-4.184-.805-.505-2.253-1.285-2.388-1.286-.073 0-.108.049-.108.15 0 .128.11.208.783.561 3.657 1.925 5.67 4.117 5.526 6.019-.029.376-.098.626-.326 1.172-.044.105-.03.113.131.073a.812.812 0 0 0 .25-.103zm-27.068-.289c-.697-1.62.065-3.406 2.109-4.95.94-.71 2.205-1.417 3.442-1.925.3-.123.569-.246.597-.272.028-.027.042-.122.031-.211l-.02-.163-.91.395c-1.872.812-3.256 1.688-4.274 2.704-1.089 1.086-1.56 2.032-1.563 3.135-.002.85.175 1.426.477 1.553.105.044.202.07.215.056.013-.013-.034-.158-.104-.322zm13.544-1.55c.203-.92.785-1.768 1.828-2.67 1-.865 2.775-1.972 4.302-2.683.665-.31.72-.348.72-.507 0-.097-.034-.172-.078-.172-.043 0-.539.23-1.103.512-2.014 1.003-3.515 2.008-4.56 3.051-.593.592-.867.951-1.144 1.501l-.17.336-.167-.331c-.579-1.144-2.02-2.454-4.025-3.658-.706-.423-2.456-1.35-2.55-1.35-.02 0-.035.084-.035.186 0 .176.042.207.799.586 3.285 1.646 5.514 3.632 5.753 5.126.034.217.058.243.215.243.143 0 .185-.033.215-.17zM45.95 9.003c.174-.45.316-.878.316-.95 0-.072-.082-.213-.182-.312-.207-.208-.567-.246-.864-.093-.349.18-.348.31.008 1.334.178.511.342.91.365.885.023-.024.184-.413.357-.864zm-13.688-.049c.373-.97.378-1.096.052-1.316a.692.692 0 0 0-.793-.018c-.32.194-.322.359-.018 1.24.276.8.367 1.021.405.983.012-.012.171-.412.354-.889zm-13.594-.03c.179-.46.321-.907.315-.992a.597.597 0 0 0-.166-.31c-.129-.129-.215-.156-.5-.156-.302 0-.365.023-.496.174-.082.096-.15.236-.149.31 0 .075.11.444.243.819.323.91.376 1.045.403 1.016.013-.013.17-.4.35-.861zm2.245-.814c.295-.398-.283-.841-.636-.489-.16.16-.158.375.005.55.175.188.467.159.63-.061zm9.102.07c.254-.255.083-.683-.273-.683-.242 0-.425.174-.425.404 0 .358.442.534.698.279zm4.466 0c.315-.316-.019-.818-.445-.67-.191.067-.306.327-.233.525.102.275.47.353.678.145zm9.408-.011c.177-.166.184-.383.02-.548-.124-.123-.403-.163-.534-.076-.078.052-.21.288-.21.374 0 .032.057.131.128.221.159.202.4.214.596.029zm3.127-2.04c.099-.07.18-.155.18-.186 0-.036-5.883-.058-15.29-.058-8.409 0-15.289.019-15.289.042 0 .024.06.107.135.186l.135.144H46.836l.18-.128z"/></svg>