<svg xmlns="http://www.w3.org/2000/svg" width="64pt" height="64pt" viewBox="0 0 64 64"><path d="M31.793 0C14.234 0 0 14.234 0 31.793 0 49.355 14.234 63.59 31.793 63.59c17.562 0 31.797-14.235 31.797-31.797C63.59 14.234 49.355 0 31.793 0zm.266 2l.523.5.594-.246-.34.617.41.555-.68-.156-.359.574-.05-.676-.68-.223.57-.234zm-9.715.773l.41.895h.871l-.742.61.238.906-.777-.547-.75.547.273-.88-.738-.636h.844zm22.215 1.903l-.094.953.808.473-.937.164-.145.918-.43-.817-.968.078.594-.597-.371-.899.925.344zm-17.11.242l-.246 1.383 1.367.875-1.59.414-.253 1.433-.778-1.39-1.558.129 1.12-1.125-.675-1.387 1.363.707zm11.723 1.258l-.133.687.559.395-.692.062-.164.66-.262-.625-.71-.003.472-.395-.215-.684.657.313zm-21.625 1.75l.953.906 1.082-.437-.617 1.117.75.996-1.238-.281-.653 1.046-.101-1.222-1.23-.41 1.038-.422zm31.242 1.011l.55.47.587-.278-.309.633.438.531-.688-.121-.328.594-.09-.664-.687-.196.558-.258zm-4.238.938l.043.918.914.34-.793.293-.043.969-.695-.704-.82.301.491-.824-.535-.766.922.243zm-11.606.879l.676.676.879-.332-.46.836.62.687-.906-.18-.547.801-.09-.836-.933-.277.851-.504zm-18.68 1.316l.56.422.558-.379-.223.633.527.484-.617-.02-.293.65-.277-.676-.64-.02.554-.422zm8.989.782L24.859 14l1.516-.875-.68 1.785 1.32 1.336-1.898-.164-.75 1.691-.406-1.8-1.918-.348 1.46-.844zm-15.715.02l.41.597.633-.114-.46.532.288.629-.633-.297-.472.488.086-.668-.618-.36.61-.109zm48.305 1.44l.41.895h.879l-.746.605.238.907-.781-.543-.746.543.27-.883-.74-.629h.845zm-8.164.344l.894 1.32 1.54-.261-1.02 1.215.797 1.324-1.422-.586-1.153 1.14.125-1.398L46 16.664l1.55-.555zm-8.114.387l.114.7.66.175-.633.297.078.676-.46-.496-.677.238.309-.535-.43-.567.72.07zm-7.726.875l1.383 1.406 1.64-.597-.98 1.644 1.07 1.535-1.84-.488-1.035 1.535-.086-1.84-1.828-.675 1.586-.579zM12.074 17l.086.953.902.219-.851.355-.008.977-.539-.645-.93.29.422-.891-.558-.672.937.18zm7.531.047l.41.898h.88l-.747.61.239.906-.782-.55-.746.55.274-.883-.742-.633h.843zM6.488 19.586l1.114 1.148 1.468-.53-.793 1.374 1.012 1.168-1.496-.332-.941 1.324-.125-1.398-1.543-.488 1.43-.813zm38.176 2.172l.711.68.816-.333-.46.84.558.754-.93-.219-.492.786-.07-.914-.926-.309.781-.316zm-8.41 1.008l.312.902.934.086-.781.547.261.89-.734-.554-.848.48.286-.793-.711-.66.98-.078zm-14.29.117l1.192 1.133 1.352-.547-.77 1.398.934 1.25-1.543-.355-.817 1.308-.128-1.527-1.54-.512 1.301-.527zm34.028.422l.684 1.496h1.457l-1.238 1.004.398 1.515-1.3-.914-1.25.914.456-1.472-1.238-1.047h1.406l.625-1.5zm4.567 1.125l.523.504.598-.247-.34.618.406.55-.68-.16-.355.578-.059-.668-.675-.23.574-.23zm-46.414.347l-.075.696.594.347-.687.121-.106.668-.312-.597-.715.062.437-.441-.27-.656.68.25zm14.753 1.043l-.128.692.558.394-.695.063-.164.66-.258-.625-.715-.004.469-.398-.207-.68.648.312zm12.028.114l-.106.613.598.379-.7.187-.113.63-.34-.614-.683.058.488-.496-.293-.609.598.309zm-37.899.3l.82 1.793h1.75L4.11 29.238l.48 1.813-1.566-1.09-1.492 1.09.547-1.762-1.484-1.262H2.28l.742-1.793zm47.254.16l.032.676.667.25-.578.207-.035.715-.508-.52-.601.223.363-.605-.394-.563.671.18zM31.79 27.528l1.113 1.141 1.47-.527-.794 1.375 1.016 1.164-1.496-.325-.942 1.325-.125-1.403-1.543-.488 1.43-.812zm-19.914 2.051l1.16 1.524 1.824-.41-1.14 1.519 1.035 1.535-1.738-.61-1.313 1.442.059-1.683-1.77-.813 1.824-.75.063-1.754zm7.348.29l.75.64.793-.367-.414.859.597.723-.937-.164-.45.808-.125-.91-.937-.258.762-.36zm23.922.198l-.137 1.586 1.41.625-1.496.336-.293 1.598-.703-1.219-1.606.207.953-1.336-.73-1.261 1.492.566zm17.406 1.325l.597 1.316h1.286l-1.086.89.347 1.329-1.144-.805-1.094.805.395-1.293-1.086-.926h1.238zm-8.973.863l-.36 1.879 1.532 1.082-1.898.168-.446 1.8-.71-1.699-1.946-.011 1.29-1.086-.583-1.856 1.781.852zM6.75 33.457l-.242.922.77.516-.923.042-.343.91-.282-.788-.976-.043.703-.692-.297-.824.82.496zm18.828.113l.063.692.66.164-.625.261-.004.72-.395-.473-.683.21.308-.652-.406-.492.688.129zm9.074 1.035l-.132.696.562.394-.7.063-.16.66-.261-.625-.715-.004.477-.394-.215-.684.656.309zm-15.168 2.25l-.12 1.399 1.433.75-1.547.547-.129 1.453-.894-1.32-1.54.265 1.02-1.215-.8-1.328 1.421.586zm39.078.77l-.246.926.723.594-.95.015-.284.88-.297-.872-.969-.074.68-.492-.223-.946.856.485zm-14.218.2l-.356 1.35 1.125.759-1.351.062-.496 1.34-.426-1.16-1.426-.067 1.04-1.015-.442-1.207 1.207.722zm-18.746.495l.914 1.305 1.476-.426-.93 1.219.801 1.41-1.316-.48-1.098 1.191-.129-1.637-1.37-.496 1.507-.527zm-20.871.258l-.133.688.562.402-.691.055-.164.66-.262-.621-.719-.004.473-.395-.211-.68.656.31.489-.411zm2.617.082l1.008 1.238 1.507-.39-.906 1.297.906 1.246-1.46-.453-1.055 1.234v-1.406l-1.496-.621 1.5-.684v-1.46zm28.441.688l-.492 1.84 1.539 1.03-1.84.09-.68 1.825-.574-1.586-1.945-.086 1.406-1.383-.597-1.648 1.644.984zm13.934 1.66l.508.515.601-.222-.36.605.387.567-.667-.18-.38.562-.03-.671-.673-.254.579-.207.035-.72zm6.199.883l.055 1.222 1.222.457-1.058.383-.055 1.293-.926-.937-1.093.398.652-1.098-.711-1.023 1.226.328zM17.98 43.469l.051.699.649.238-.66.239.015.68-.41-.532-.695.18.36-.504-.388-.606.715.133zm-4.921 1.457l.043.914.91.344-.79.285-.046.972-.692-.703-.82.297.488-.82-.535-.77.922.246zm32.683.293l-.433 1.535 1.191 1.012h-1.59l-.5 1.46-.465-1.46-1.617-.153 1.149-.804-.344-1.59 1.414.84zm-40.117.304l.691.704.825-.297-.493.82.536.77-.922-.243-.516.762-.047-.914-.91-.344.793-.285zm24.734.309l-.066.723.555.32-.692.113-.18.66-.296-.632-.676.07.496-.457-.238-.672.535.309zm-8.601 1.406l1.156 1.172 1.367-.496-.816 1.367.89 1.285-1.535-.41-.86 1.278-.073-1.532-1.524-.562 1.325-.48zm16.379.227l.554.465.579-.27-.305.633.437.523-.687-.117-.324.594-.094-.668-.688-.191.559-.262zm13.976 1.601l.54.45.617-.297-.286.636.496.461-.667-.07-.352.621-.117-.605-.696-.145.586-.422zm-37.058.91l.625.676.918-.328-.418.73.586.774-.98-.094-.438.758-.153-.945-.906-.246.863-.403zm15.972 2.012l.68 1.492h1.457l-1.238 1.012.402 1.508-1.3-.906L29.78 56l.457-1.465L29 53.48h1.402zm18.266 1.317l.602 1.316h1.285l-1.09.887.351 1.328-1.148-.797-1.098.797.403-1.293-1.086-.922h1.234zm-37.043.226l.398.473.68-.215-.312.652.414.496-.688-.132-.398.558-.059-.695-.664-.164.625-.262zm25.836.227l1.45 1.25 1.698-.785-.8 1.73 1.332 1.281-1.825-.23-.988 1.68-.293-1.66-1.898-.426 1.629-1.118zM18.207 55.62l.406.899h.88l-.747.605.242.902-.781-.543-.75.543.27-.875-.739-.632h.844zM23.52 58l-.133.691.558.391-.691.066-.164.66-.262-.624-.71-.004.468-.399-.215-.68.656.31zm10.168.926l-.075.722.559.325-.692.109-.183.664-.293-.633-.676.07.496-.46-.238-.672.531.312zm0 0" fill="#211e1e"/></svg>