<svg xmlns="http://www.w3.org/2000/svg" width="64pt" height="64pt" viewBox="0 0 64 64"><path d="M31.793 0C14.234 0 0 14.234 0 31.793 0 49.355 14.234 63.59 31.793 63.59c17.562 0 31.797-14.235 31.797-31.797C63.59 14.234 49.355 0 31.793 0zm-7.82 1.7s3.523 5.105 3.945 5.382c.254.215 1.023.574 1.281.77.016.191-.277.46-.289.738l-.258 1.12c.032.4.547 1.028.707 1.38-.015.078.047.203-.03.258-.31.175-1.161-.618-1.446-.258-.309.406-.688.71-.895 1.12-.054.224-.226.5-.031.708.129.14.422.184.352.45-.086.288-1.391.855-1.157 1.054.602.348 4.102 1.937 4.649 2.246.113-.383.16-.656.512-.898.12-.082.214.171.097.257-.234.29-.289.48-.223.895.243.16.372.36.094.289-.117.02-4.894-2.074-4.902-2.082.008.226.062.484-.098.672-.117.11-.379.254-.574.097a.167.167 0 0 1 0-.16.168.168 0 0 1 .125-.097c.082-.008.133-.102.195-.16-.054-.387-.68-.329-.609-.77.059-.274.738-1.29.992-1.54.07-.077.16-.112.258-.16-.14-.218-.387-.46-.29-.702.267-.575.692-.926.993-1.477-.101-.078-.2-.086-.351-.094h-.512c-.16.043-.363.016-.547.032-.086 0-.36.043-.45 0-.034.097.548.695.098.992-1.172.289-11.316 1.25-11.316 1.25-2.563 4.437-5.246 7.582-6.441 9.199l1.507.996c.043.086.18.156.13.285-.098.168-1.337.52-1.477.64-1.04.583-1.297.755-2.469 2.63.348-1.067.965-2.512 2.535-3.461 0-.16-.402-.274-.515-.383a.976.976 0 0 0-.641-.258c-.043-.05-.55-.031.547-.93.492-.043 6.343-9.261 6.343-9.261 1.149-.196 10.915-1.254 11.22-1.156 0-.235-.368-.72-.032-.895 0 0 .734-.5 3.238.062-.011-.324-.636-.761-.61-1.12l.384-1.317s-1.383-.898-1.504-.926c0 0-1.906-2.746-2.375-3.144L21.89 1.89zM51.28 6.987c.07.11-.386 1.297-1.09 1.953-.343.309-.91.625-1.25 1.028-.16.195.137.238-.129.449-.269.113-.464.316-.703.512-.05.09 0 .144.098.16 1.996-.434 3.176.203 4.676.832l3.879 1.86.675.448c-.53-.007-6.074-2.527-7.054-2.628-1.031-.051-1.684-.028-2.692-.063l-2.433-.45-5.356.481 1.989.961s1.3.285 1.441.32c.824.204.941.7 1.7 1.06.167.109 1.648.21 2.308.128a.567.567 0 0 1-.352.191c-.812.106-1.683.16-2.05.063-.333-.059-1.45-1.133-2.376-1.184-.863-.156-2.351-.78-3.394-1.152-.602.195-1.238.68-1.73 1.121 0 0-.247-.496-.45-.578-.48.059-.101.95.032 1.441.128.301.273.5.257.801-.172.164-.668-.351-.738-.351-.031-.204-.191-1.73-.191-1.73.234-.29.23-.333.543-.61.187.011.347.09.48.191.328-.113 1.156-.246 2.34-1.25.324-.015.71-.02 1.86-.031L45 10.609c.93-.109 2.36.496 2.563.223.18-.227.472-.344.738-.512.281-.07.199-.441.386-.61 0 0 1.536-1.14 2.532-2.69.031-.032.054-.047.062-.032zm-16.633 7.594c.61-.047 1.172.043 1.313.195.437.336 1.059.575 1.348.446.289-.2.578-.153.96-.032.633.27 1.07.813 1.989 1.86 3.402.402 4.648 2.14 5.512 3.492 1.289.297 11.414.86 12.917 1.09.965.722 3.977 4.156 4.231 4.426l-4.426-3.977c-1.281-.172-12.625-.773-12.785-.832-.2-.484-1.496-3.094-5.418-3.492-.371-.582-2.05-2.086-2.05-2.086-.497-.352-.641.633-2.15-.383-.644-.434-1.98-.156-2.562.031-.191.149-.652.192-.484-.097.32-.407.996-.586 1.605-.641zm-2.757.996c.336-.055.402.477.738.512.637.015 1.297-.121 1.601-.063.575.106 1.118.547 1.602 1.696.367 1.066.719 1.21 1.25 1.379 1.156.554 1.64 1.312 2.309 1.636.539.442 2.66 1.282 2.66 1.282.07.039.586.44.32.382-2.613-.8-3.805-1.695-3.879-1.793-.84-.847-2.074-1.347-2.242-1.41 1.082 1.309.938 2.16 1.121 2.758l.129 1.086v.965c-.043.062-.027.09 0 .16.184.238.398.344.61.543.109-.016.054.14.16.129.085.21.347.34.48.48.387.461.8.82 1.152 1.313.098-.031.035.066.098.097.281.278.414.649.64.93.11.211.325.356.387.578.055.125.153.227.16.352v.258c.008.03-.085-.043-.097-.098v-.031c-.156-.258-.375-.489-.512-.739l-.61-.738c-.16-.168-.28-.285-.386-.48-.094 0-.031-.102-.125-.094a.502.502 0 0 1-.129-.195c-.598-.535-1-1.274-1.668-1.696-.113-.25-.418-.293-.512-.578-.125-.05-.207-.144-.226-.258-.031-.527.215-1.046.098-1.57-.028-1.27-.723-2.324-1.41-3.3 0 0-.333-.266-.641-1.602-.137-.59-.438-.957-.836-1.09-.38-.098-1.324.098-1.73 0-.407-.176-.391-.457-.641-.64 0-.102.05-.134.129-.16zM25 16.09c.066.004.105.062.063.191-.227.23-3.125 4.403-3.235 4.711 2.3 5.258 1.324 6.395.93 7.535-.016.051-.153.106-.227.063.074-.274.817-4.625-1.57-7.469-.059.012-.023-.058-.031-.094.058-.37 3.379-4.425 3.78-4.777.122-.121.224-.164.29-.16zm.512.289c.175-.035.242.152.355.254-.02.097-.16.152-.066.418.773 1.21.554 3.75.191 4.39.274.11 2.875.922 1.73 5.387-.077.313-.124.192-.124.192.254-4.645-1.172-4.29-2.278-4.97-.16.009-.406-.12-.222-.35.367-.34 1.683-2.427.125-4.329-.02-.148.238-.676.289-.8.027-.184.09-.009 0-.192zm9.808 3.27c.059-.047.086.042.098.128.148.68-1.805 4.067-1.988 4.453-.23.32-.375.676-.578.993-.168.39-.364.746-.575 1.125-.215.336-.382.648-.578.992l-.191.351s1.574.903 2.18 1.86c1.3 1.785 2.425 4.344 4.164 5.738.234.266.32.211.097.992 0 0-.484 1.016.192 2.309.129.285.488.18.289.383-.055.062-.266.023-.547-.223-.68-.64-1.25-1.223-.223-2.98 0 0-.445-.372-.672-.48-2.398-2.032-3.847-5.352-3.847-5.352-.29-.829-2.309-1.395-2.309-1.86.082-.183.176-.383.258-.578.191-.266 4.027-7.594 4.168-7.758a.303.303 0 0 1 .062-.094zm10.867 2.308c.067-.031.153-.008.223 0 .317.14 1.91 2.7 3.238 3.813-1.363-.239-3.527-3.75-3.527-3.75a.148.148 0 0 1 .066-.063zM22.66 29.293c.176.008-.16.648-.45.77-1.019.23-7.526 1.453-8.46 1.894-.762.219-1.555.832-1.633 1.023.028.391-.539 1.989-.449 2.372.187-.2.402-.32.64.128.2.524.52.618 1.184 3.782.094.77.852 3.777 1.477 4.777.695-.309 1.117-1.016 3.203.383.363.055.605.09.93.098.101.039.109.128-.032.128-.363.07-.824.11-1.12.032-.196-.164-1.696-.836-2.5-.352-.212.133-.641.574-.641.574-.57-.308-1.75-3.914-1.926-4.902-.727-3.934-1.215-4.07-1.215-4.07-.434.46-.563.152-.516-.258 0 0 .278-2.024.418-2.5-1.644 1.215-2.86 3.336-3.46 4.808-.083 0-.137-.359-.067-.609.633-2.434 3.531-4.996 4.2-5.383l.929-.547c.683-.367 8.906-1.964 9.488-2.148zm23.399 2.918c.43 0 .859.11 1.183.418-.008.254-.047.559-.062.832a.3.3 0 0 1-.192.031c-.058-.449-.918-.969-2.277-.383-.762.395-2.645 2.29-5.61 2.149-.246-.055-.546-.23-.671-.45 0 0 1.687.883 4.613-1.316.21-.222 1.719-1.281 3.016-1.281zm.77 1.637c.042.011.1-.024.128.03.05.38-.23.712-.258 1.09-.035.434-.027.876.192 1.22 0 0 4.093-1.313 8.172.542.23.098 1.351.52 1.507.801-.328-.093-3.527-.96-3.527-.96-1.742-.438-5.516-.31-6.152 0-.098.05-.215-.024-.32 0-.387-.274-.223-.79-.29-1.188.035-.57.184-1.13.547-1.535zm.51 3.109c.337.445 1.587 1.172 2.212 1.504.988.512 2.652 1.555 2.886 1.7-.316-.099-.707-.29-.93-.352-.765-.325-1.284-.614-2.085-.899 0 0-.914-.281-1.379-.867-.242-.352-.563-.629-.703-1.086zm-8.3 1.922a.357.357 0 0 1 .129 0c4.289.453 7.98 4.871 7.98 4.871s3.403 2.727 4.133 3.3c.211.243.285.298.13.259-.638-.309-4.395-2.524-4.81-2.852 0 0-3.613 1.254-5.511 3.105-.418.461-1.582 1.461-1.633 2.5-.062.153-.168.2-.227.067-.07-.387-.273-.543-.671-.77-.426-.226-1.938-.273-2.758-.16l-3.399.063c-.48.015-.953-.09-1.375-.32-.195-.137-.136.163-.484.351-.688.496-3.406 2.785-3.813 3.11 0 0-5.195 4.273-5.671 4.745-.122.106-.254.145-.13-.03.278-.411 5.282-5.048 5.641-5.419.211-.203 3.434-2.719 3.653-2.949.218-.215.53-.313.804-.129.535.367 1.215.258 1.825.258l3.976-.29c.395-.023 1.672-.234 2.18.352 1.312-1.793 2.594-2.593 2.594-2.593 1.199-.828 1.503-1.153 4.648-2.278-2.063-2.875-6.234-4.754-7.117-4.968-.14-.086-.176-.2-.094-.223zm-26.059 3.43c.063.156.18.39.032.48-.52.324-1.051.516-1.54.672-1.597.406-2.484 1.156-3.234 1.668-.222.254-.68.437-.48.832.351.55-2.856 2.629-2.856 2.629-.007.012-.023.008-.03 0 .335-.422.534-.52.96-1.09.137-.156 1.152-.852 1.445-1.25.125-.152.172-.344-.097-.418-.125-.059-.016-.137 0-.223 1.64-1.547 2.5-1.945 3.27-2.242.265-.062 2.206-.797 2.53-1.058zm35.547 3.941c.168.023.23.172.285.32-.066 1.848.376 2.957.418 3.207.133.235 3.27 3.172 3.27 3.172.324.61.324.946.738 1.473 0 .062.028.23-.097.098-.203-.204-.899-1.122-.899-1.122s-2.851-2.414-3.492-3.3c-.441-.72-.559-1.446-.64-2.63-.087-.679-.07-.96.417-1.218zm-21.41 6.313c.02.003.047.011.063.066l.097.129c.07.12.078.234.16.351.086.47.122.93.223 1.38l.031.991v1.09c-.136.575-.195 1.168-.351 1.73-.16.282-.16.657-.192.993 0 .39.23.668.383.996-.117.246.098.484.16.703 0 .04-.046 0-.062 0-.027-.16-.14-.312-.192-.48-.082-.086-.214-.125-.257-.254-.11-.266-.266-.543-.352-.836-.133-.617.16-1.027.254-1.57.055-.618.3-1.188.16-1.793-.078-.66-.066-1.465-.285-2.118-.02-.441-.168-.882-.066-1.28.082.01.164-.114.226-.099zm-7.34 2.628c.43-.004.871.051 1.313.16.254.07.445.192.383.481-.051.29-.2.39-.285.355.042-.082.003-.23-.13-.257-2.78-1.063-6.453 1.593-6.988 2.02-.035-.013-.125-.032-.097-.098.093-.114 2.773-2.633 5.804-2.66zm0 0" fill="#211e1e"/></svg>