<svg xmlns="http://www.w3.org/2000/svg" width="64" height="64"><path d="M32 1C14.88 1 1 14.878 1 32c0 17.12 13.88 31 31 31 17.12 0 31-13.88 31-31C63 14.878 49.12 1 32 1zm15.307 10.51c.262-.001.526.03.744.05.187.283.065.647-.031.987-.04.09-.154.017-.211.04.162.235.22.47.422.673-.251.065-.13.413-.373.445a4.635 4.635 0 0 0-.551-.574c-.065.09-.041.226-.154.283-.252-.242-.259.331-.486.162-.048-.163-.195-.235-.3-.299a.277.277 0 0 1-.104.193c-.195-.089-.042-.493-.357-.42-.024.194-.304.027-.26.364-.162.065-.21-.146-.29-.228-.041-.29.104-.395.266-.598-.243-.138-.428-.17-.526-.445.21-.025-.041-.34.21-.31.08.196.276.39.51.447.05-.177-.105-.34-.177-.494-.073-.13.04-.21.13-.267.202-.024.193.251.339.267.113-.17.382.121.47-.138.207-.105.466-.137.729-.138zm2.112.354c.485.081.836.676.958 1.089-.057.153-.099.396-.163.534.121.218.235.438.187.73-.155.145-.21.403-.397.533.02-.139-.049-.223-.139-.283-.324-.227-.646.218-.873.21-.121-.178-.187-.413-.244-.6.154-.055.398-.194.617-.177-.074-.05-.123-.154-.18-.195.106-.267.285 0 .47 0-.097-.202-.356-.348-.429-.574.243-.097.461.097.69.146.185-.324-.122-.592-.3-.867-.147-.154-.407-.194-.479-.413.089-.08.16-.028.282-.133zm-37.597.88a.465.465 0 0 1 .315.07c-.446.284-1.078.268-1.564.535-.121.413-.478.316-.461.793-.138.074-.138-.057-.211-.137-.203.178-.09.461-.162.688-.097.243-.246.12-.416.234-.009.153.177.217.071.339-.25-.105-.682.176-.885-.035-.024-.234.274-.417.258-.675.202.031.3.113.478.089-.05-.163.007-.283.031-.445.268-.186.325-.624.52-.834.089.008.137.17.242.25.08-.072.016-.21.074-.283.291-.024.509-.324.67-.55.122-.05.35.072.447.153.089-.032.154-.17.235-.17.126.008.245-.014.358-.021zm1.73.533c.317.226.763.38.908.8.113.284.348-.03.51.091.065.065-.08.144-.08.243.122.04.218.21.365.105.137.032.113.153.072.234-.332.323-.576-.155-.924-.105-.056.185-.243.34-.404.494-.365.29-.607-.267-.956-.235-.186.291-.624.218-.875.13-.153.024 0 .251.025.283-.056.024-.13.105-.203.072-.016.106.13.212.056.269-.226.138-.34-.187-.567-.163-.057.153.13.3.195.406-.178.372-.485.702-.671.995-.405-.114-.633-.477-.965-.64.089-.518.713-.493.891-.939-.105-.283-.55-.534-.478-.85.22-.218.461-.017.728-.056.074-.066.081-.131.065-.163.236-.114.51-.13.802-.08.17-.13-.145-.373.041-.487.348.098.737.235 1.117.324.235.04.057-.25.26-.25-.04-.21-.21-.244-.284-.406.138-.088.22-.064.373-.072zm32.46.478c-.041.502.347.695.428 1.084-.024.22-.129.405-.234.584a.291.291 0 0 0 .29.21c.228.033.49-.178.533.028.024.368-.33.255-.467.507.064.282.436.121.574.316-.073.21-.42.146-.46.356.292.364.891.194 1.255.089.236-.175.405-.56.689-.283-.057.59-.78.955-.722 1.636.348-.114.689-.35.989-.552.14-.031.267-.064.322.122-.21.372-.492.648-.8.908-.34.218-.624.583-1.078.437-.105-.105-.332-.204-.34-.365-.178-.228-.09-.51-.13-.77-.032-.226.198-.103.302-.163.077-.049.11-.267.16-.465-.32.097-.494-.019-.704-.205-.206-.322-.88-1.689-.745-1.968.275-.364-.036-.683-.137-1.134-.016-.157.031-.389.274-.372zm.996.372c.251.097.434.097.688.21.08.081.049.187.09.252-.3.073-.657.152-.957.072.178-.154-.154-.243-.065-.372.04-.122.163-.13.244-.162zm2.556 1.181c.037-.002.077.016.123.066-.267.39.023.67.177.976-.145.1-.194.074-.258.139-.462-.275-.396-.694-.663-1.051.113-.09.21.024.3.074.127-.013.21-.197.32-.204zm-34.95.258c.084-.005.167.007.175.051.09.162.087.333.112.519-.025.324-.15.542-.33.778.545.33.124.937-.166 1.473-.166.392-.049.358-.148.68.049.268.083.775-.5.875-.614.152-.108.474-.302.72-.127.192-.21.268-.429.421-.267.138-.639.21-1.011.106-.494.007-1.005-.382-1.134-.778.186.056.428.154.598.016.04-.291.635.057.2-.648 0 0-.284-.384-.275-.585.016-.082-.037-.282.06-.273.316.275.647.46 1.012.632.356-.017.785.13.988-.243-.025-.09-.12-.04-.166-.234-.081-.187.418.108.345-.18-.309-.113.047-.55-.48-.583.029-.09.075-.187.163-.235.213.102.93.262.766-.219-.04-.329-.143-.494-.167-.841.043-.264.077-.398.29-.514.428-.424.148-.603.229-.887.004-.024.087-.046.17-.051zm-5.547.068c.25.17.477.477.598.695-.154.186.138.552-.168.552-.276-.284-.342-.568-.625-.73-.032-.17.169-.291.056-.445.008-.065.082-.089.139-.072zm41.893.67c.347-.022.704.276.93.503-.267.567-.685-.052-1.052.05-.404-.033-.665.33-.997.428-.121-.138.017-.332.058-.462.218-.413.614-.474 1.061-.518zm-38.118.483a.703.703 0 0 1 .2.02c.123.065.22.17.195.252.033.129-.105.234-.162.315-.13.04-.349 0-.462-.073-.041-.057.08-.097.017-.16-.138-.172-.34.2-.349-.091a.772.772 0 0 1 .561-.263zm39.852.368a.658.658 0 0 1 .452.115c.43.21.753.615 1.166.793.422.073-.219.525-.584.202-.483-.55-1.06-.667-1.513-.95.173-.081.328-.143.48-.16zm-42.748.158c.317.194.411.893.784.56.05.097-.051.468.017.597l.033.253c.117.343-.179.633-.26.787-.105.17-.228-.276-.428-.437-.267-.153-.313-.112-.313-.386.21-.243.544.11.325-.457-.235-.243-.297-.677-.393-.912l.235-.005zm36.317.58c.186.17-.113.542.09.778-.009.242.168.306.25.51-.519.72-1.248.614-1.28 1.595-.39.436-1.045-.041-1.507.283-.55.195-.89-.146-1.247-.461.162-.21.405.016.624-.082.235-.08.454-.234.656-.389.567-.072.559-.678.762-1.05.162-.512.979-.31 1.028-.925l.624-.26zm4.267.027a.667.667 0 0 1 .186.02c.381.163.089.665.333.884.097-.194.209-.389.34-.567.153-.113.372-.179.566-.066.413.243.446.673.656 1.062.195-.138.551-.171.786 0-.057.21-.049.397-.13.6-.057.623.234 1.23.324 1.886-.049.105-.21.074-.307.122-.317-.26-.575-.558-.916-.817-.145.97.276 1.95-.194 2.8-.114.162-.236.284-.413.357-.074-.534.05-1.078-.056-1.612-.122-.445-.114-.98-.365-1.369-.17-.145-.307-.388-.535-.404l.033.615c.009.421-.089.827-.373 1.103-.29.307-.671.711-.76 1.084.323.243.664-.356.955 0 .122.559-.17.843-.461 1.208-.535.81-1.41 1.27-2.033 1.934.365.146.858-.105 1.077.267-.008.26-.162.413-.25.632.064-.009.103.024.11.105-.015.097-.095.082-.16.147-1.037.201-1.821.35-2.957-.035-.332-.205-.784-.137-.84-.5.308-.3-.098-.624.372-.81l-.196-.195c-.258-.332.09-.648.211-.923-.25-.761-.308-1.618-.3-2.429.146-.607.154-1.256.52-1.775.128-.323.34-.622.527-.89.137-.08.258.154.387.088.065-.088.106-.265.041-.37.105-.155.138-.309.372-.268.819-.049 1.32.712 2 .656-.105-.178-.21-.397-.193-.607.024-.21.177-.398.283-.569.137-.356.55-.25.834-.258.008-.276-.033-.616.09-.86.126-.151.263-.24.436-.246zm-34.993.215c.583.04 1.34.198 1.794.57-.157.092-.376.313-.546.386-.558-.446-1.377-.47-1.985-.656-.025-.137.534-.21.737-.3zm39.963.707c.859.14 1.532.779 2.226 1.216.164.159.185.334.146.535a8.618 8.618 0 0 1-.104 1.986c-.18.884-.66 1.617-1.235 2.453.005.763-.21 1.564-.357 2.303-.106.563-.679.392-.759.953-.17.036-.16-.153-.31-.195-.114.188-.041.645-.29.563-.434-.468.221-1.06-.125-1.547-.063.201-.153.292-.35.357-.078-.021-.261.02-.15-.166.446-.758.25-1.632.832-2.254a1.86 1.86 0 0 1 .36-.303c.424-.996.226-2.152.28-3.194-.317.081-.51-.566-.835-.482-.398-.404-.228-.853-.277-1.324.033-.217.085-.423.224-.614.17-.246.44-.272.724-.287zm-37.504.26c.287-.014.601.068.82.227.433.244.569.718.997 1.01 0 0 .721.46 1.175.46-.049.195-.3.316-.478.357-.325-.122-.72-.161-.964-.412-.229-.294-.415-.446-.648-.747-.446-.372-1.117-.428-1.49-.639.081-.065.201-.161.315-.21.085-.026.178-.042.273-.046zm22.224.001a.32.32 0 0 1 .155.046c-.389.582.21 1.196.073 1.829.154.226.404.291.615.405.47.454 1.134.348 1.71.55l.478-.266c1.205.048 1.525 1.28 1.293 1.538-.372.437-.8.827-1.35.965a5.479 5.479 0 0 1-.925-.269c-.858-.534-1.756-1.116-2.55-1.74-.275-.097-.478-.365-.802-.348-.437-.195-1.044-.51-1.012-1.086-.024-.356.355-.624.429-1.013.114-.109.194-.114.324-.056-.097-.243.097-.398.283-.405.356 0 .47.38.778.461.105-.089.025-.266.09-.372.06-.146.244-.246.41-.239zm-30.897.293c.26.235.367.716.578 1.048.073.114.073.243-.056.3-.122.04-.212-.049-.317-.017.057.113-.024.259-.072.332-.39-.04-.713-.396-1.117-.315-.236 0-.462.194-.478.428-.22-.009-.14-.317-.09-.413-.106-.081-.236.016-.333.024-.47.072-.428.624-.817.884-.033-.081-.171-.13-.122-.236.008-.372.186-.648.389-.931.567-.332 1.015-.55 1.55-.825.162-.179.655-.254.885-.28zm5.752.485a.27.27 0 0 1 .098.012c.56.21.746.833.923 1.344.04.162.04.34-.178.38.445.494.55 1.087.736 1.719.195 1.247.537 3.694-.031 5.004-.09.365-.43.445-.69.647-.218.113-.55.204-.8.187-.025-.178-.123-.349-.18-.535-.502.43-.768 1.134-1.36 1.45-.647.316-2.519.243-2.697-.016-.388-.17-.63.364-.979.032-.2-.173-.461-.445-.405-.721.162-.065.211.122.357.105.34.066.034-.315.525-.315.121-.04.141-.228.173-.325.146.015.268.033.413.016.146-.137.216-.202.264-.404.244-.892-.228-1.6-.793-2.43.048-.064.139-.064.195-.056.471-.11.59-.868.096-1.023.389-.08.625-.427.706-.873.704-.21 1.263.25 1.823.567.258 0 .12-.315.176-.476.04-.762-.226-1.524-.21-2.22.364-.057.77.04 1.15.015.389-.413.551-1.06.535-1.627.035-.126-.035-.44.153-.457zm-9.104 1.237c.034.004.067.02.1.054.04.17.024.398-.09.6-.064.073-.21.106-.316.09.09.185.05.403-.113.516a5.138 5.138 0 0 1-1.612 1.134c-.382.278-.842-.64-.761-.711.534-.146 1.134-.293 1.636-.584.145-.072.29-.138.315-.283-.04-.05-.087-.102-.056-.212.065-.348.414-.275.591-.444.104-.073.206-.173.306-.16zm16.132.977c.25.015.51.234.726.28 1.325.458 2.3 1.59 3.732 1.847.505-.106 1.015.228 1.397.442.198.353.375.658.563.979.218.262.048.632.141.938-.06.096-.115.15-.26.164.015.265.158.561.13.84-.085.055-.038.071-.179.042-.086.129.013.273-.009.38-.049.112-.122.11-.25.143-.476-.225-.455-.82-.53-1.228-.35-.396-.659-.92-1.186-1.134-.134.44.39.702.368 1.085-.092.052-.096.215-.232.16-.818-.48-.85-1.506-1.675-1.936-.79-.31-1.611-.078-2.405-.464.004.01.007.021.025.022-1.003-.286-1.7-1.061-2.575-1.572.368-.088.837-.178 1.205-.386l-.015-.008c.35-.125.568-.294.785-.528a.378.378 0 0 1 .244-.066zM9.01 22.11c.138.057.202.284.357.332.04-.194.25-.104.34-.258.388.032.841.217 1.044.493-.745.073-.656 1.101-1.328 1.19-.049-.08-.139-.153-.195-.234-.202.244-.355.56-.59.762-.365.21-.697.672-1.15.68-.494.096-1.078 0-1.49-.267-.097-.195-.414-.317-.462-.608.55.218 1.157.47 1.773.373.461-.009.688-.446.98-.69.332-.46.72-.915.689-1.489.146-.105-.146-.227.032-.284zm7.968.067c.535.177.77.808 1.24 1.117.315.34.217.183.687.255-.153.138-.332.398-.552.439-.055-.02-.08-.023-.09-.02.04.05-.028.008 0 0-.008-.01-.007-.013-.029-.035-.575-.38-1.053-1.036-1.328-1.66l.072-.096zM3.746 24.185c.097.29.388.52.534.746.713.29 1.33.816 2.106.921 1.304.114 2.229-.622 3.5-.654.202-.009.388.16.315.282-.01.131-.143.244-.264.285-.276.202-.653.088-.92.34.236.137.421.088.656.177.486.057.56.576.811.884.076.184.28.538.106.745-.232.25-.45-.426-.766-.426.008.227.284.446.389.69.163.39-.158.322-.312.245-.178-.065-.421-.445-.569-.426.05.129.165.49.23.62.088.17-.042.228-.18.22-.526-.235-.407-.64-1.043-.786-.56-.009-.964-.34-1.434-.461-.802-.114-1.406.067-2.574-.06 0 0-1.633-.177-2.327-.808-.073-.129-.016-.259-.089-.331.034-.551.413-.927.698-1.247a4.63 4.63 0 0 1 1.133-.956zM44.86 28.21c.219.007.363.089.549.161l.203.118c.38.17.569.261.917.375.77.267 1.563.18 2.309.13.153-.032.113.145.177.17-.007.268-.307.51-.46.567-.738.543-1.84.17-2.561.77-.138.202.178.568-.162.616-.193.024-.315-.17-.437-.195-.396-.372-.689-.794-1.117-1.19-.227-.187-.462-.446-.762-.366-.112-.201-.267-.356-.373-.574.032-.122.17-.08.244-.154.347.3.882.194 1.263.089.187-.089.218-.38.21-.517zm6.473.298c.02-.01.05-.004.112.008a.496.496 0 0 1 .137.333c.073.624-.032 1.352-.356 1.951-.098.202-.219.357-.332.519 0 0-1.547 1.465-1.879 2.494-.056.185-.066.328-.196.483-.501.004-.754-.148-1.1-.442-.38-.297-.549-.466-.819-.891.097-.203.115-.51.196-.705.34-.275.745-.77 1.134-.802.024.397-.261.753-.333 1.134.145.13.267.356.437.462.34-.43.454-1.004.924-1.255.105.033.112.113.145.21.478-.397.899-1.02 1.191-1.563 0 0 .534-1.18.69-1.847.02-.052.029-.078.049-.089zm-33.983.284c.154.032.34.09.445.146.227.34.397.599.357 1.028a.95.95 0 0 0 .461.325l.276-.058c.186-.023.275.13.356.284.04.3.177.649-.016.908-.114.072-.235-.041-.356-.09-.009-.112.032-.202.024-.307-.454-.356-.883.389-1.353.008.033-.179-.186-.227-.137-.414.098-.323.17-.583.195-.956-.21-.275-.59.066-.77-.233a.874.874 0 0 1 .145-.423c.097-.21.219-.16.39-.21l-.017-.008zm25.486.624c.478.081.926.414 1.28.891.404.527.558 1.15.874 1.66-1.15.405-2.863.04-4.438.413-.267-.162-.575-.35-.923-.357.024.422-.218.77-.267 1.175l.193.016c.154.049.139.307.22.462-.024.745.153 1.539-.203 2.179-.34-.01-.745-.026-1.061-.163-.251-.09-.428-.25-.607-.404-.08-.607-.032-1.184-.105-1.864-.13-.243-.203-.543-.26-.834.057-.219.074-.47.212-.64.194-.526.671-1.159 1.27-1.255.795-.155 1.344-.622 2.081-.85.526-.235 1.152-.332 1.734-.429zm-28.126 1.175c.162.186.315.379.389.582l.016-.017c.161.284.25.478.356.778h-.024c.032.154.048.219.04.406.527.226 1.078.469 1.507.841.096.155.276.284.235.478-.26-.065-.559-.323-.891-.34-.47-.202-1.118-.016-1.54.268-.468.218-.769.59-1.206.834-.08.065-.186-.05-.202-.073a.588.588 0 0 1 0-.316c.104-.51.76-.616.834-1.085-.073-.178-.3-.09-.406-.196.065-.615.746-.21.98-.582.083-.088 0-.194.082-.235-.106-.291-.259-.517-.437-.793-.049-.153-.065-.397.033-.535.089.033.145-.015.234-.015zm-4.421.153c.234.187 0 .502.016.753.17-.048.323-.105.445-.056-.252.55.212 1.004.317 1.457-.074.219-.349.187-.478.365-.26.494.315.873.428 1.295.6.364.89 1.102 1.295 1.686l.017-.017c.413.705.85 1.207 1.328 1.797.081.244-.082.478-.26.632-.405-.121-.234-.624-.485-.867-.728-.922-1.628-1.571-2.39-2.429-.113-.518-.516-.964-.637-1.417-.171-.696-.098-1.514-.074-2.235.04-.34.388-.576.194-.891.064-.066.178-.056.284-.073zm10.664 1.353c.026.128.041.291.034.445-.268.543-.462 1.15-.908 1.595-.34.211-.777.493-1.15.42.34-.582.875-1.068 1.061-1.789-.146-.25-.428-.34-.42-.64.462-.137.93.276 1.383-.031zm29.536.445c.348.049.599.59.704.954-.113.162-.38.13-.55.245.088.195.203.436.268.646.194.617.205 1.106.262 1.72.551.406 1.373.258 1.899.865.13.194.008.259-.017.519-.04.088-.127.168-.225.176-.227-.056.056-.201-.009-.34-.526-.421-1.263-.453-1.838-.672-.91-.634 0-1.968-.874-2.786.21-.412.656-.857.38-1.327zm-9.355.292c1.474-.051 2.847.507 4.376.284.26-.05.403-.22.556-.228.074-.009.17.047.163.145-.357.491-.785.56-1.37.568-1.424.049-2.809-.389-4.218-.333-.162.066-.203.243-.389.26-.057-.056-.137-.072-.145-.154.178-.129.243-.316.39-.478.215-.037.427-.056.637-.064zm-19.86.325c.636.362.96.705 1.673 1.364.178.256.615.712.772.952l.782 1.197c.583.81 1.1 1.636 1.733 2.308.195.283.364.777.146 1.134-.089.332-.284.606-.43.882-.34.502-.938.672-1.432.947.016-.242-.277-.888-.504-1.18.022-.637-.032-2.449.012-2.626.027-.43-.07-.892-.383-1.305 0 0-1.541-1.677-2.18-2.095-.327-.185-.425-.236-.684-.407.074-.131.485-.985.494-1.171zm-5.292.726c2 .463 3.992 1.637 5.733 2.472.632.34.915.648 1.36 1.223.235 1.239-.088 2.47.057 3.668.017.275-.172.73-1.134.762-.477.031-.89-.042-1.328-.163-.227-.122-.46-.224-.624-.493-.251-.292-.144-.714-.088-1.095.066-.202.113-.478.178-.68.089-.26-.17-.413-.25-.64-.438-.049-.807.018-1.402-.072-1.457-.34-2.884-.6-4.22-1.094-.292-.421-.744-.939-1.011-1.44.122-.51.543-1.101.923-1.507.413-.413.812-.564 1.339-.816.09-.048.378-.108.467-.125zm24.554 0c.219.146.268.39.333.61.12.266.104.744-.05.987a.235.235 0 0 1-.308.13c0-.284-.015-.576.01-.908-.041-.267-.253-.624.014-.819zm6.224.219c.034.01.07.03.108.065.47.437 1.046.604 1.572.696.388.066.713-.031 1.037-.144.177.558.08 1.157.26 1.667.29.098.639.39.728.714.064.08.057.25.016.348.688.016 1.424.275 2.064.428.065.211-.088.535-.202.713-.291.349-.64.762-1.076.85-.365-.193-.738-.389-1.134-.518-.39 0-.85-.032-1.206-.226-.236-.097-.56-.153-.673-.397-.203-.348-.405-.729-.34-1.167-.69-.826-.997-1.902-1.37-2.874.037-.109.115-.183.216-.155zm-8.895 1.885c.465.32 1.14.37 1.513.416.226.05-.033 1.06-.138 1.368-1.142.818-.364 2.382-1.336 3.208-.186.024-.348-.196-.461-.285.178-1.466.269-4.764.422-4.707zm2.582.4c.105.073.235-.033.3.088-.106 1.23-.782 2.689-1.057 3.847-.027.726.244.776.206 1.369.004.285-.115.64-.34.795-.397.113-.348.18-.554.604-.115.066-.2.033-.24-.119.04-.275.106-.608.438-.713.125-.098.113-.527.04-.762.035-.179-.32-.128-.215-.452.097-.233.142-.398.288-.65.267-1.068.535-2.168.778-3.23.097-.25.145-.6.356-.778zm13.403 1.206c.947.552 1.808 1.244 2.486 2.166.252.462.825.742 1.223.968.032.122-.041.178-.122.267-.312-.015-.413-.048-.712-.238-.932-1.041-2-1.85-3.03-2.823-.039-.145 0-.309.155-.34zm-.536.951c.114-.003.235.029.324.045.624.503 1.037 1.005 1.547 1.507.526.623 1.207 1.142 1.952 1.384.234.186.252.607.268.915-.081.138-.008.267-.146.267-.259-.26-.615-.436-.988-.565-.146.105-.097.266-.324.266-1.263-.915-2.583-1.684-3.952-2.445-.122-.089-.008-.114.017-.219.477-.121.744-.623 1.028-.988.056-.125.16-.164.274-.167zm-17.445 1.47c.414-.014.596.502.957.665.032-.072.171-.057.228-.057.096.145.073.356-.033.502-.137.332-.461.122-.688.137-.048-.105 0-.274-.007-.37-.04-.414-.545-.464-.65-.836a.605.605 0 0 1 .193-.04zm22.37.109c.575-.057.867.119 1.223.467.202.194.072.566.444.656-.007.097-.136.122-.218.146l-.015.655c.089.082.226.065.298.154-.04.154-.17.17-.315.18l-.122.539s-.21.01-.356.083c-.07.176-.08.357-.063.538.045.508.307 1.031.128 1.568.122.073.292.185.34.323-.12.203-.226-.065-.373-.056-.104.065-.049.17-.09.284.122.106.358.121.236.324-.097.065-.202-.049-.307-.074-.098.146-.114.317-.212.463.066.113.268.097.236.25-.09.162-.252-.016-.382 0-.089.073-.24.194-.136.243.106.38-.25 0-.372.194-.315.061-.77.044-.761-.259.008-1.004.04-2.04-.13-3.02a.347.347 0 0 1 .38.113c.203.259.348.656.647.956.45.096.387-1.148.374-1.731a7.182 7.182 0 0 1-.002-.342c.236-.065.382-.154.535-.308.147-.446.033-1.094.041-1.612-.437-.308-.818-.24-1.263-.436-.073-.088.007-.193.048-.257l.187-.041zm-22.417 1.122c.09.267.045.375.139.64.51.843 1.578.161 2.194.729.219.064.125.238.122.478-.032.08-.123.155-.211.155-.098-.009-.162-.131-.138-.213-.647-.064-1.199.204-1.83.285-.147.057-.09.365-.3.308-.04-.057-.169-.129-.104-.235-.089-.122-.245-.097-.398-.122-.089.098-.056.26-.226.252-.138-.033-.13-.227-.106-.325-.267-.275-.36.118-.586.046-.165-.239.22-.307.001-.412a1.4 1.4 0 0 1-.694-.857c-.032-.129.145-.186.105-.218.288-.288.525-.388.996-.478.47-.008.55.055 1.036-.033zm-12.427.579c.088.523.117.966.125 1.346-.003 1.032.082 1.942.018 2.846-.073.024-.183.127-.255.085a69.849 69.849 0 0 1-.15-3.949c.016-.096.165-.126.262-.328zm-3.312.128c.114.08.317.113.358.283.13 1.58 1.023 2.72 1.202 4.275 0 .283-.26-.025-.423.056-.185-.762-.517-1.466-.906-2.162-.161.154-.316.267-.413.446.08.016.13.025.202.072-.122.406-.525.608-.663 1.005.26-.008.51-.179.728-.14.106.074.22.206.074.286-.235.292-.624.178-.94.25-.477-.072-1.028-.372-1.158-.834-.187-.664-.503-1.336-.81-1.92.94-.306.65-.058 1.52-.694.816-.612 1.108-.964 1.23-.923zM56.07 43.15c.276.13.592.147.73.438-.081.138-.21.223-.356.288-.089-.106-.227-.021-.333-.078-.21-.065-.454-.032-.608.13-.195.073-.308-.105-.437-.217.033-.09.065-.123.089-.228.21-.243.559-.333.915-.333zm-39.363.544c.053.008.098.035.11.104.024.09.081.293-.048.31-.333.047-.705.2-.85.581-.122.332.014.649.226.867.412.333 1.01.575 1.173 1.175-.06.055-.09.209-.157.152-.072-.06-.242-.391-.376-.387-.127.048-.26.214-.387.214-.043 0-.056-.066-.107-.101-.065-.17.169-.235.21-.373-.28-.115-.423-.294-.676-.505-.05-.013-.26.121-.356.127-.106.006-.097-.114-.158-.1.116-.135.283-.23.306-.424-.096-.219-.187-.591-.056-.871.13-.137.227-.356.422-.445.13-.162.388-.211.566-.307a.411.411 0 0 1 .158-.017zm14.935 1.936c.125.005.246.017.363.032.081.032.18.146.163.242-.04.171-.154.042-.267.163-.032.275.08.583.193.818.057.268-.258.284-.21.583.18.009.05.268.236.26.04.283.268.364.172.664-.308.049-.808-.668-.918-.09-.043.282.024.148-.052.348-.041.222-.042.238-.202.382-.177.075-.531-.43-.69-.383-.23.003-.213.577-.177.776.218.206.27.155.404.14.27.015.072.327.314.513.081.267-.348.21-.58.237-.405-.033-.262-.176-.408-.394l-.233-.128c-.38-.267-.308-.618-.55-.494-.274.114-.103.23-.346.295-.154-.351-.202-.765-.193-1.113.039-.79.251-1.149.56-1.65.542-.675 1.182-1.097 2.04-1.193.128-.012.256-.013.38-.008zm-7.373.49c.15-.011.298.014.428.059-.252.203-.333.56-.43.867-.234.17-.348-.04-.615-.032a.86.86 0 0 1-.057-.48c.106-.072.097-.233.235-.25a.808.808 0 0 1 .439-.164zm9.155.163c.978.851 1.047 1.727 1.07 2.367.026.946-.598 1.857-1.225 2.276-.926.694-2.04.595-2.851.304-.504-.25-.765-.445-1.09-.826.058-.08.232-.009.33.024.19.198.458.384.698.493.959.415 1.921.177 2.44-.078.177-.154.57-.392.675-.626-.065.033-.233-.3-.15-.382.5-.372.726-.407.831-.99 0-.543-.121-1.474-.744-2.146.032-.13-.316-.376.016-.416zm-.944.124c.236.019.681.29.56.533-.13.05-.176.309-.322.26-.324-.097-.374-.774-.238-.793zm-13.404.307c.187.065.364-.009.543.073v-.008c.202.68.728 1.126.874 1.814-.008.13-.12.292-.25.372-.323.246-.656.217-1.044.101-.105-.006-.278.175-.383.198l-.191-.122s.118-.095.09-.293c-.219-.154-.341-.447-.551-.56a1.46 1.46 0 0 0-.275.1c-.05.027-.06-.06-.116-.096.194-.3.144-.672.234-.906.21.114.373.444.43.687.235.284.526.438.826.656a.628.628 0 0 0 .68-.048c.056-.307-.365-.226-.413-.519a.435.435 0 0 1 .144-.258c-.153-.097-.282-.04-.428-.114-.276-.3-.445-.817-.17-1.077zm2.64.356c.057.05.155.121.09.211-.04.065-.098.081-.162.09-.349.242-.156.59-.14.922.139.22.211.3.438.454.179.21.487.195.73.292.267.137.446.453.672.671.478.179.883.51 1.385.55.003.085 0 .155 0 .228-.13.244-.51.098-.745.122.016.073-.017.129-.056.177-.827-.356-.965-1.53-2.001-1.579-.194-.008-.097.292-.25.252-.155-.153-.066-.486-.317-.535-.138-.073-.389.056-.413-.178.234-.114 0-.324-.065-.454-.154-.331.025-.663.163-.906.145-.251.396-.3.67-.317zm2.464.397c.09-.008.177-.003.25.009.218.388.251.85.534 1.15.47.356 1.093.259 1.506.59.195.283.203.697-.024.916a.855.855 0 0 1-.79.406c-.113-.12.02-.162-.003-.333.057-.13.226-.065.323-.122.065-.235.145-.494-.073-.671-.267-.081-.583.137-.874.048-.21-.138-.527-.227-.673-.526-.13-.098-.299-.017-.445-.041-.17-.422-.226-.835-.267-1.256.041-.162.17-.074.267-.113a.957.957 0 0 1 .269-.057zm8.84.93c.1.013.193.155.253.216.033.162.373.324.147.494-.243.082-.559.3-.77.05 0-.22-.128-.43-.014-.6.048-.137.169-.09.282-.122.034-.032.068-.043.102-.038zm-.61 1.126c.105.405-.107.769-.284 1.044-.195.032-.307-.097-.461-.178-.194-.218-.203-.373-.18-.599.26-.22.633-.178.924-.267z" fill="#231f20"/></svg>