<svg xmlns="http://www.w3.org/2000/svg" width="64pt" height="64pt" viewBox="0 0 64 64"><path d="M30.473 63.547a32.52 32.52 0 0 1-13.832-3.914C8.336 55.093 2.473 47.19.625 38.07c-.73-3.64-.82-7.375-.27-11.043.926-6.015 3.524-11.539 7.61-16.18.707-.8 2.379-2.437 3.207-3.14C18.324 1.66 27.523-.98 36.887.328c7.55 1.059 14.675 4.93 19.715 10.707 6.503 7.45 9.136 17.375 7.18 27.04-1.712 8.46-6.884 15.886-14.313 20.566-5.614 3.535-12.293 5.257-18.996 4.906zm2.316-1.86a116.58 116.58 0 0 0 3.754-2.367c8.266-5.441 15.168-11.375 19.617-16.867 5.254-6.496 7.254-12.254 6.14-17.73-1.195-5.883-5.882-10.414-12.425-12.012-1.434-.348-2.836-.527-3.754-.488-3.52.16-7.953 2.336-10.664 5.238-1.953 2.086-3.027 4.336-3.293 6.898-.031.262-.047.317-.05.176-.009-.355-.15-1.207-.282-1.738-.39-1.582-1.21-3.149-2.367-4.535-.52-.617-1.61-1.668-2.281-2.2-2.188-1.718-5.043-3.042-7.75-3.582-2.758-.554-5.86-.078-8.739 1.344-1.703.848-2.972 1.762-4.402 3.168-2.059 2.031-3.52 4.367-4.375 7.004-1.3 3.996-.863 7.98 1.363 12.367a27.036 27.036 0 0 0 1.844 3.13C9.117 45.44 16.258 51.91 25.652 58.097a103.717 103.717 0 0 0 4.676 2.922c1.735 1.023 1.75 1.035 1.797 1.035.023 0 .32-.164.664-.367zm0 0"/></svg>