<svg xmlns="http://www.w3.org/2000/svg" width="64pt" height="64pt" viewBox="0 0 64 64"><path d="M30.906 63.563c-3.676-.168-7.101-.876-10.351-2.126-5.883-2.261-10.903-6.124-14.617-11.246-.708-.972-1.895-2.863-1.84-2.918.011-.015.718.075 1.566.2.856.125 1.566.222 1.586.222.016 0 .031-.164.031-.367 0-.2-.008-.363-.015-.363-.012 0-.813-.086-1.782-.195l-1.777-.196c-.016 0-.187-.328-.394-.738l-.376-.734.008-1.602.004-1.594h-.543l-.008 1.922-.097-.219c-.098-.214-.735-1.925-.735-1.972 0-.012.032-.024.075-.024.062 0 .074-.215.074-1.672v-1.68H2c.156 0 .496.016.758.032l.484.031v2.125h.692V20.746l-.239.031c-.5.07-.453-.027-.46.946-.005.468-.016.808-.024.75-.02-.09-.05-.106-.156-.09-.145.027-1.57.222-1.61.222-.03 0 .028.454.07.497.028.03 1.294-.114 1.618-.184l.11-.027v14.87l-.915-.027c-.894-.023-.906-.023-.906.078 0 .067-.04.11-.11.118-.117.015-.117.015-.14 1.18l-.024 1.171-.164-.656C-.324 34.387-.328 29.129.973 24.012a31.883 31.883 0 0 1 7.07-13.25c.637-.715 2.418-2.453 3.137-3.055 3.668-3.086 7.785-5.27 12.285-6.516a32.724 32.724 0 0 1 21.473 1.383c1.039.438 2.894 1.383 3.886 1.977a32.35 32.35 0 0 1 9.614 8.785c4.82 6.652 6.832 14.867 5.644 23.039-1.125 7.734-5.125 14.79-11.258 19.848a32.382 32.382 0 0 1-14.582 6.804c-2.265.434-5.105.637-7.336.54zM54.16 53.444a.94.94 0 0 0-.273-.05c-.23-.02-.246-.012-.246.082 0 .082-.024.101-.086.086a6.11 6.11 0 0 0-.59-.086c-.45-.051-.504-.07-.52-.16-.011-.083-.058-.106-.258-.137a.91.91 0 0 0-.28-.012c-.052.031-.055.703-.005.707l1.145.156 1.11.157.015-.364c.008-.195.004-.367-.012-.379zm-3.426-.086v-.351l-.152-.031c-.309-.059-.441-.04-.441.07 0 .082-.024.098-.11.078-.199-.035-.39-.063-.59-.086-.457-.059-.48-.066-.48-.176 0-.093-.027-.11-.164-.11-.082 0-.211-.019-.27-.034-.113-.032-.113-.024-.097.355l.011.38 1.11.151c.61.086 1.12.141 1.148.133.02-.011.035-.18.035-.379zm-3.992-.507c0-.305-.008-.336-.11-.36-.183-.047-.421-.035-.444.024-.016.043-.137.043-.532-.004-.629-.07-.687-.09-.687-.176 0-.04-.04-.07-.086-.074-.051 0-.172-.012-.274-.028l-.18-.03v.347c0 .242.016.351.06.351.03 0 .495.063 1.023.137 1.363.195 1.23.219 1.23-.184zm7.438-.098c0-.191-.004-.348-.012-.348-.086-.027-2.266-.258-2.281-.242-.04.04-.02.586.023.61.106.066.508.085.547.03.055-.097 1.086.032 1.184.15.039.046.164.089.27.105.109.007.214.023.234.027.02.004.035-.148.035-.332zm-10.903-.668c-.05-.047-.488-.07-.52-.027-.042.07-1.14-.075-1.21-.16-.027-.032-.156-.07-.285-.083l-.239-.027.016.32.012.325 1.11.152 1.109.144.015-.312c.008-.172.008-.32-.008-.332zm7.457.23v-.336l-.164-.03a61.069 61.069 0 0 0-2.054-.22c-.086 0-.098.032-.098.31 0 .284.012.315.113.339.172.043.418.035.438-.016.023-.078 1.113.067 1.183.157.055.074.157.097.493.125.078.007.09-.036.09-.329zM39.894 52c0-.352-.003-.367-.117-.367-.066 0-.187-.016-.27-.031-.124-.024-.152-.016-.152.058 0 .07-.035.078-.187.055-.2-.028-.395-.055-.594-.086-.258-.035-.406-.078-.406-.117 0-.067-.211-.121-.445-.121-.141 0-.141 0-.141.316 0 .211.02.324.059.34.054.016 2.027.297 2.191.312.047 0 .063-.101.063-.359zm6.848-.195c0-.254-.015-.375-.062-.39-.32-.048-.645-.09-.973-.122-.5-.055-.996-.11-1.098-.129l-.18-.027v.726l.18.032c.286.042.36.035.36-.043 0-.09.086-.09.734-.016.442.047.492.062.508.156.012.082.059.11.234.133.125.016.239.031.258.035.024.004.04-.156.04-.355zm-3.445-.461c0-.457.133-.395-1.121-.535-1.27-.141-1.149-.168-1.149.261 0 .399.016.414.348.414.164 0 .195-.015.195-.093 0-.051.016-.098.035-.098.083 0 .93.102 1.032.125a.146.146 0 0 1 .12.133c.016.078.063.113.192.136.364.063.348.083.348-.343zm10.738-2.305v-2.5l-.285-.027a27.084 27.084 0 0 0-.984-.067l-.703-.03v2.464c0 1.934.011 2.465.062 2.469.035 0 .395.043.8.086.407.046.821.093.923.097l.187.004zm-14.14 1.89c0-.199-.008-.363-.02-.363s-.492-.058-1.063-.125c-.378-.043-.757-.09-1.136-.12-.086 0-.094.034-.094.34 0 .374-.008.366.336.405.184.02.219.012.238-.066.016-.066.059-.082.18-.066.441.054.934.117.973.117.027 0 .046.043.046.09 0 .097.086.129.407.144l.133.008zm-7.391-.046v-.363l-.156-.028c-.09-.015-2.422-.3-5.184-.637-2.766-.332-5.11-.617-5.21-.632l-.188-.028v.297c0 .192.023.305.066.32.043.016 10.371 1.407 10.61 1.426.046.004.066-.097.066-.355zm18.082-2.113v-2.426l-.207-.032a28.84 28.84 0 0 0-1.012-.058l-.8-.031v2.363c0 1.3.015 2.367.038 2.371.25.023 1.958.23 1.965.234.012.004.016-1.086.016-2.421zm-7.398-.625l-.016-2.223-.32-.031c-.176-.016-.625-.051-.997-.067l-.68-.035v4.375l.583.059c.316.035.71.078.87.097.165.02.36.04.43.043l.141.004zm-6.762-.23v-2.24l-.262-.015-.258-.012v4.532l.52-.032zm-1.996-.755v-2.87h-.547v5.737h.547zm5.304-1.488a28.96 28.96 0 0 0-1.007-.04l-1-.034v2.093c0 1.153.015 2.098.039 2.098.02.004.468.05.996.106l.96.109.012-2.16a67.09 67.09 0 0 0 0-2.172zM32.36 49.52v-.313l-.16-.027a21.237 21.237 0 0 0-1.222-.125c-.094 0-.102.023-.086.328l.015.328.516.055c.285.03.613.058.73.062l.207.008zm14.383-1.07v-1.282l-.262-.023c-.332-.028-.667-.051-1.003-.067l-.754-.031v2.64h.293c.226 0 .297-.015.297-.066 0-.094.234-.273.351-.273.164 0 .375.136.406.261.032.11.063.121.313.137.16.008.3.004.32 0 .024-.012.04-.59.04-1.297zm-16.648.804v-.29l-.211-.026a24.476 24.476 0 0 0-1.188-.126c-.074 0-.082.04-.07.305l.012.301.52.059c.284.027.613.054.726.058l.207.008v-.29zm-11.727-1.602V46l-.21-.027a51.234 51.234 0 0 0-.798-.075c-.254-.02-.504-.05-.754-.078l-.16-.027v3.254l.504.058c.406.051 1.18.153 1.38.188.019 0 .038-.734.038-1.64zm9.45 1.368c.011-.23.003-.254-.102-.278a28.71 28.71 0 0 0-1.313-.125c-.035 0-.054.094-.054.266v.265l.308.028.676.07c.203.02.39.035.418.031.031-.007.059-.12.066-.257zm-2.305-.274v-.262l-.235-.027a15.146 15.146 0 0 0-.715-.062l-.48-.036v.54l.55.046c.305.024.626.051.716.055l.164.008zm-9.805-1.39v-1.602l-.16-.024c-.45-.058-.902-.097-1.356-.125h-.113v3.141l.781.102c.426.054.79.101.809.105.023 0 .039-.715.039-1.598zm7.535 1.14c0-.148-.015-.266-.035-.27-.02 0-.34-.03-.719-.062-.761-.066-.738-.078-.715.266l.016.21.594.06c.96.081.86.105.86-.204zm9.117-1.43v-1.699l-.582-.027a30.9 30.9 0 0 1-.715-.05l-.132-.024v3.336l.703.078c.383.039.703.074.715.078.007.004.011-.758.011-1.692zm-19.02.024v-1.574l-.624-.055c-.348-.031-.727-.07-.84-.086l-.207-.027v1.539c0 .843.004 1.539.012 1.539.004.004.379.054.824.117.445.059.82.11.824.113.008.004.012-.699.012-1.566zm16.755-.219V45.22l-.262-.024c-.238-.023-.477-.039-.71-.054l-.458-.032v3.305l.48.043c.262.027.583.05.715.055l.235.011zm-2.27-.168v-1.625l-.43-.027a45.287 45.287 0 0 0-.726-.043l-.297-.012-.012 1.594c-.011 1.25 0 1.597.051 1.613.094.04.817.11 1.13.117l.284.004zm-18.14 1.281c.043-.086.062-.496.062-1.547v-1.421l-.125-.121c-.148-.149-.191-.149-.348.003l-.12.122.011 1.48c.016 1.621.02 1.648.305 1.621.105-.008.172-.05.215-.137zm15.863-1.441l-.012-1.594-.223-.035c-.242-.027-.484-.05-.726-.066l-.508-.035.012 1.601.015 1.594.543.058c.297.028.625.055.727.059l.184.008-.012-1.594zM8.37 47.855c.086-.074.094-.23.094-3 0-2.644-.008-2.925-.086-3.003-.086-.106-.309-.122-.395-.032-.046.043-.062.782-.062 3.012 0 2.621.008 2.961.078 3.027.102.102.258.098.371-.004zm14.871-1.542v-1.575l-.258-.027c-.238-.023-.476-.043-.71-.063l-.462-.03v1.562c0 1.215.02 1.566.063 1.566.082.008 1.281.125 1.332.133.02.004.035-.7.035-1.566zm-2.62 1.402l.108-.074V33.492h.344v-2.137h-.344v-7.394h.344v-2.133h-.344v-5.262c0-4.828-.007-5.27-.082-5.347-.101-.114-.25-.117-.367-.008-.086.074-.09.281-.09 4.523 0 2.438-.007 4.438-.015 4.438-.012 0-.121-.035-.25-.074l-.23-.082v-.684l-.2.27c-.219.304-.21.3-.656.148-.07-.023-.137-.047-.211-.063-.008 0 .074.13.187.286l.204.289-.211.273c-.235.313-.247.305.253.152l.227-.07.383.52.023-.325.024-.32.238-.086.234-.086v13.637c0 13.574 0 13.645.098 13.738.117.117.191.121.332.02zM7.32 46.105c.016-.292.04-.285-.675-.332a10.36 10.36 0 0 1-.606-.054l-.187-.028v.27c0 .152.007.273.011.277.055.016 1.313.13 1.367.125.055-.004.079-.078.09-.258zm-2.316-.25l-.012-.277-.394-.035-.703-.059-.31-.03v.269c0 .183.024.27.063.27.079.007 1.278.128 1.336.136.02.004.028-.121.02-.274zm52.426-.058c0-.067-.211-.399-.301-.473-.102-.082-.906-.379-1.57-.578-2.266-.68-5.141-1.184-8.176-1.437-.89-.07-4.434-.067-5.813.004-2.496.136-4.558.41-5.75.757-.207.063-.254.102-.347.293-.043.078-.078.16-.114.239 0 .015.094-.008.207-.047.262-.09.739-.211 1.028-.266.12-.023.449-.086.726-.137 1.668-.34 4.672-.52 7.93-.484 2.137.031 2.813.07 4.45.281 2.823.367 5.933 1.102 7.25 1.719.382.18.48.207.48.129zm-1.992-.3c-.805-.255-.958-.278-4.004-.454l-2.977-.176-.242.156c-.133.086-.235.16-.227.164.024.028 7.16.45 7.57.454h.32zm2.44-.938v-1.043l-.198.082-.2.07v.758c0 .738.004.758.137.96.238.38.262.325.262-.827zm-50.55-.125c0-.586-.004-1.067-.008-1.067-.355-.05-1.402-.129-1.43-.113-.023.012-.038.488-.038 1.066 0 .57.015 1.04.039 1.043l.652.067c.34.035.656.066.703.066.078.008.082-.07.082-1.062zm39.242.949c.532-.106 1.758-.754 1.649-.871-.067-.067-1.254-.227-1.965-.27-.86-.047-2.742.028-3.05.125-.177.055.655.66 1.16.844.706.25 1.468.309 2.206.172zM5.016 44.195c0-1.175.07-1.05-.618-1.093a9.45 9.45 0 0 1-.625-.059l-.187-.027v2.09l.504.046c.281.028.601.047.715.051l.21.008zm11.968.754a.395.395 0 0 0 .18-.523c-.05-.094-.055-.137-.012-.137.082 0 .336-.488.262-.512a23.292 23.292 0 0 0-1.383-.12c-.16 0-.176.136-.031.265.055.05.102.113.129.18.016.062.094.101.223.12.18.028.191.036.12.114-.093.098-.097.383-.011.492.07.09.23.188.32.188a.653.653 0 0 0 .203-.067zm26.16-.047c0-.011-.101-.097-.226-.199l-.223-.187-2.152-.106c-1.184-.058-2.215-.086-2.3-.07-.083.02-.388.074-.677.125-.289.043-.515.094-.5.11.016.015 1.352.1 2.965.179 1.621.086 2.98.156 3.028.16.05.004.086-.004.086-.012zm-27.456-.148a.443.443 0 0 0 .023-.57 1.103 1.103 0 0 1-.145-.36c-.164-.812-.218-1.097-.191-1.12.016-.017.176-.06.36-.099.378-.09.355-.125-.114-.218-.172-.032-.332-.086-.363-.121-.028-.032-.063-.262-.082-.512l-.04-.453-.284.336c-.16.187-.352.37-.418.406-.125.062-.188.059-.649-.016l-.172-.03.223.194.219.196-.317.32c-.195.195-.289.316-.238.316.04 0 .29-.043.555-.093l.48-.098.488.441c.27.243.489.461.489.485 0 .11-.125.289-.2.289-.117 0-.289.2-.324.375-.027.129-.008.18.117.3.192.188.407.2.582.032zm3.289-.047a.395.395 0 0 0 .226-.492c-.043-.113-.035-.121.156-.149.11-.02.207-.058.22-.09.01-.03.038-.62.054-1.304.043-1.379.058-1.3-.274-1.297h-.18l-.8 1.469-.793 1.472.184.028c.097.02.203.015.226-.004a.813.813 0 0 1 .234-.07c.18-.032.188-.028.188.105 0 .164.16.336.379.398a.818.818 0 0 0 .18-.066zm-4.747-.074a.43.43 0 0 0 .102-.469c-.055-.125-.055-.125.16-.113.188.011.238-.008.371-.137l.153-.152-.157-.121c-.156-.106-.265-.125-1.945-.274-.98-.09-1.816-.144-1.86-.129-.062.024-.277.364-.277.446 0 .011.036.023.075.023.093 0 .093.004 0 .176-.102.195-.094.281.054.453.164.191.414.203.59.031.133-.133.168-.406.063-.504-.07-.07.171-.078.546-.02.192.032.207.04.137.098-.082.07-.113.317-.05.47.05.124.3.23.468.19.254-.054.395-.437.235-.636-.06-.063-.024-.067.253-.04.536.052.555.055.47.18a.389.389 0 0 0-.028.415c.074.132.215.21.367.207a.416.416 0 0 0 .273-.094zm42.317-.336c0-.137.023-.168.246-.262l.254-.11-.274-.148c-.242-.129-.277-.164-.304-.34-.047-.285-.067-.292-.266-.097-.183.176-.191.176-.469.144l-.285-.035.137.23.137.227-.16.188-.153.191.32-.031c.317-.027.32-.027.524.156.226.2.293.176.293-.113zM35.19 44.14l.168-.336v-1.407l-.132-.09a2.107 2.107 0 0 0-.196-.128c-.047-.028-.062.21-.062 1.133 0 .644.011 1.171.023 1.171s.102-.152.2-.343zm-2.785-.336v-.578l-.16-.028c-.086-.015-2.266-.125-4.84-.246-2.574-.125-4.898-.238-5.16-.254l-.48-.031v.547c0 .398.015.539.062.543l4.961.308c2.7.172 5.066.313 5.262.317l.355.004zm22.297-.418c.121-.047.215-.098.215-.114 0-.015-.105-.09-.238-.16-.207-.113-.242-.156-.297-.355l-.063-.235-.175.176c-.184.172-.188.172-.47.137-.152-.02-.28-.023-.28-.008 0 .016.054.11.125.207.062.098.12.195.12.219 0 .02-.074.105-.16.195l-.156.16h.344c.316.004.355.016.535.168l.2.168.046-.238c.04-.227.055-.246.254-.32zm-44.098-.14c.118-.22.457-.813.758-1.337.301-.515.535-.96.52-.984-.012-.02-.13-.04-.254-.04h-.234l-.829 1.344c-.625 1.012-.808 1.356-.761 1.387.03.024.183.035.324.028l.266-.012.21-.39zm26.086 0c.047-.056.157-.075.41-.075h.352l-.164-.168-.164-.164.129-.215a1.77 1.77 0 0 0 .129-.242c0-.012-.125-.008-.285.015-.282.04-.285.04-.461-.14l-.184-.172-.031.14c-.063.278-.125.364-.344.47-.125.058-.223.12-.223.136 0 .02.098.074.22.117.21.078.222.09.253.32l.031.239.133-.094a1.17 1.17 0 0 0 .2-.168zm15.946-.442c.25-.094.238-.149-.075-.29-.156-.066-.203-.12-.23-.238-.07-.351-.062-.347-.266-.152-.18.172-.187.172-.464.14-.153-.019-.278-.019-.278 0 0 .02.059.118.133.227l.129.196-.328.335h.332c.32 0 .351.012.539.18l.203.188.047-.254c.039-.235.05-.254.258-.332zm4.988.441c.113-.062.11-.066-.2-.281-.73-.508-1.718-.95-3.32-1.473-1.406-.46-3.417-.957-4.566-1.12-.227-.032-.246-.048-.367-.282a3.907 3.907 0 0 0-2.184-1.906 3.859 3.859 0 0 0-3.172.324c-.433.25-1.078.887-1.312 1.293l-.172.297-.418.03c-1.738.138-3.91.56-5.27 1.024-.574.2-1.476.602-1.476.664 0 .02.062.082.148.137l.149.11.578-.243c2.172-.914 5.383-1.418 9-1.418 2.316 0 4.445.274 6.996.903 2.035.508 4.117 1.293 5.023 1.89.25.172.313.176.563.051zm-6.969-.707l.102-.559.183-.015c.176-.016.188-.028.188-.176v-.16l-.516-.07-.511-.075-.028.145c-.039.187-.004.23.168.23.133 0 .14.012.117.133l-.093.524c-.098.507-.094.55.035.574.246.047.254.031.355-.55zm-12.043.215c.102-.09.196-.117.457-.125l.332-.016-.144-.175-.149-.176.125-.176c.047-.066.086-.14.121-.215 0-.023-.117-.027-.261-.008-.25.032-.266.028-.446-.144-.152-.145-.195-.164-.23-.106a.35.35 0 0 0-.05.172c0 .153-.122.29-.34.387-.114.047-.204.105-.204.125 0 .02.094.062.203.098.215.07.293.183.293.445 0 .164.016.156.293-.086zm1.914.098c.012-.012-.015-.262-.062-.563-.028-.2-.055-.39-.078-.582 0-.02.074-.047.164-.066.156-.028.168-.04.14-.176-.02-.078-.054-.149-.082-.153-.18.012-.359.036-.53.06-.462.058-.485.066-.462.163a.9.9 0 0 1 .031.172c0 .043.051.059.168.043.196-.02.18-.055.282.73l.054.45.18-.032c.066-.011.133-.027.2-.046zm8.793-.024c.14-.11.215-.36.16-.555-.015-.074-.14-.195-.324-.32-.293-.195-.379-.34-.207-.34a.24.24 0 0 1 .149.063c.047.043.058.043.058-.008 0-.047.047-.059.176-.031.207.039.23-.047.05-.211-.308-.29-.78-.203-.902.152-.085.258-.02.39.329.629.164.117.296.238.296.266 0 .082-.14.12-.246.066-.054-.031-.093-.031-.105 0-.008.027-.102-.008-.203-.074-.18-.121-.184-.121-.184-.02 0 .383.625.637.953.383zm-7.691-.043c.098 0 .101-.023.066-.37l-.035-.364h.39l.036.281c.047.43.055.434.246.414.203-.027.203-.027.125-.863-.078-.778-.062-.738-.285-.715l-.192.02.024.261.02.262h-.204c-.191 0-.199-.004-.199-.156 0-.313-.039-.356-.25-.336-.168.015-.191.031-.176.125.016.054.051.386.078.73.067.742.075.774.18.739a.637.637 0 0 1 .176-.032zm-7.399-.11c-.613-.26-.87-.464-1.28-1.003l-.2-.262v-4.863c0-3.871-.012-4.856-.059-4.84l-.394.14-.332.118v9.426l.105.214c.055.122.23.34.383.493.223.226.336.297.594.382.387.122.941.235 1.207.243.082 0 .078-.008-.024-.047zm13.497-.112c0-.157-.012-.172-.141-.172-.078 0-.211-.012-.297-.028-.125-.027-.156-.05-.14-.136.011-.086.05-.102.269-.118l.262-.015v-.332h-.25c-.239 0-.242-.004-.242-.149 0-.144 0-.144.292-.144h.297v-.34h-.28c-.161 0-.368-.016-.47-.031l-.175-.028-.032.211c-.011.117-.039.477-.054.805l-.028.594.285.015c.758.051.704.059.704-.133zm-40.344-.336v-.457l-.406-.028c-.227-.015-.918-.039-1.543-.054a33.645 33.645 0 0 1-1.465-.055l-.332-.028v.833l.207.023c.3.039 2.855.21 3.23.215l.309.008zm36.652.238v-.168h-.297c-.281 0-.297-.004-.297-.121 0-.106.024-.121.235-.133.234-.016.234-.016.234-.184v-.172l-.23.016c-.215.016-.227.008-.25-.121-.016-.074-.02-.148-.008-.156a1.26 1.26 0 0 1 .293-.043c.258-.02.27-.028.27-.16 0-.078-.024-.149-.047-.164-.028-.016-.25-.016-.489.004l-.441.03.023.735c.012.402.028.758.035.785.016.028.204.043.493.032l.476-.016zm1.363-.68l.004-.805h-.433v1.61h.43zm.653.73c.203-.105.289-.468.144-.636-.043-.05-.043-.121 0-.285.086-.336-.05-.559-.332-.559-.093 0-.097.031-.101.485 0 .273.023.484.047.484.027 0 .046.055.046.121s-.023.121-.046.121c-.032 0-.055.078-.055.168 0 .2.07.219.297.102zm-15.301-.613c.02-.14.023-.261.016-.27-.012-.01-1.899-.109-4.192-.222l-4.172-.2-.242.235c-.137.13-.23.246-.219.258.02.024 7.825.426 8.5.442l.278.007zm-12.09-.289c.067-.133.106-.25.098-.258a32.57 32.57 0 0 0-1.399-.097 55.637 55.637 0 0 1-1.636-.113l-.262-.028.035.262c.016.144.035.273.047.285.02.023 2.254.176 2.727.188l.277.007zm-4.043-.234c.074-.086.145-.172.203-.266 0-.015-.062-.031-.136-.039-.13-.015-.133-.027-.164-.41-.016-.21-.012-.398.015-.414.024-.016.184-.059.36-.09.18-.035.328-.082.34-.101.015-.024-.122-.075-.305-.121-.512-.133-.508-.13-.508-.489 0-.168-.016-.32-.035-.332-.024-.015-.133.094-.25.238-.114.149-.239.27-.27.27-.031 0-.215-.047-.402-.102-.13-.035-.254-.074-.383-.097-.027 0 .066.129.207.289.137.156.25.305.25.332 0 .027-.09.152-.195.281-.11.133-.192.242-.184.25.004.008.172-.031.367-.078l.352-.09.27.324c.148.176.261.325.257.328a21.43 21.43 0 0 1-.992-.058c-.539-.035-1.012-.066-1.043-.066-.059-.004-.336.472-.3.507.015.016 1.66.133 2.214.16.102.008.18-.046.332-.226zm7.59-3.16v-2.684h-.539v5.906l.273-.273.27-.273v-2.676zm8.496 2.664c.063-.34.047-.387-.156-.387-.102 0-1.75-.074-3.656-.168l-3.473-.168-.273.266-.266.265h.266c.152.004 1.726.079 3.5.164 1.773.09 3.402.168 3.625.172l.398.008zm-20.887-.149c-.293-.152-.543-.414-.785-.828l-.219-.367v-4.848c0-3.3-.019-4.843-.054-4.843-.028 0-.16.054-.297.125l-.242.12.023 9.552.113.226c.18.36.47.649.762.762.344.133.57.195.75.195.149.004.149.004-.05-.094zm25.055-.117a.558.558 0 0 0 .277-.387.54.54 0 0 0-.113-.457c-.09-.109-.219-.18-.465-.25-.36-.105-.406-.168-.25-.312.09-.082.11-.078.305.016.23.109.492.136.492.05 0-.12-.152-.328-.285-.375-.289-.109-.402-.113-.656-.004-.297.125-.438.293-.438.508 0 .235.172.399.535.524.352.117.457.222.348.347-.078.098-.344.078-.7-.05-.132-.047-.253-.07-.265-.055-.05.05.035.285.157.402.105.102.16.117.515.117.258 0 .45-.027.543-.074zm-27.973-.3c.012-.13.008-.25-.007-.266-.016-.02-.477-.047-1.028-.067l-.996-.035v.543l.48.016c.266.012.715.02 1.005.027l.523.008zm29.352-.282v-.512h.297v-.898c0-.566-.02-.902-.055-.902-.023 0-.047-.051-.047-.118 0-.09-.023-.12-.097-.12-.094 0-.098-.032-.098-.672 0-.376.012-1.141.031-1.704l.035-1.03h.23v-.868c0-.535-.023-.887-.054-.906-.023-.016-.047-.137-.047-.266 0-.187-.015-.242-.093-.262-.09-.02-.098-.082-.11-.965-.015-.843-.027-.964-.125-1.167-.293-.622-1.008-1.055-1.758-1.06l-.234-.003.031.512.313.039c.597.074 1.008.351 1.168.8.054.145.066 1.169.066 5.399l.004 5.211h.543zm-12.96-2.113v-1.824l-.54-.586v2.41l.004 2.406.539-.586zM30.147 40c.047-.031.172-.223.282-.43l.203-.367-.16-.152-.164-.156-.16.32c-.184.37-.274.387-.399.07-.086-.21-.363-.508-.453-.48-.024.008-.125.156-.227.328-.101.176-.21.316-.234.328-.027.008-.117-.121-.2-.285-.081-.164-.167-.305-.195-.313-.027-.008-.109.07-.187.176l-.137.191.278.368c.152.207.312.386.351.402.113.04.219-.04.399-.309.09-.132.183-.246.207-.254.023-.007.12.11.218.258.215.332.414.438.578.305zM9.906 38.234c.02-.02.035.016.035.078 0 .188.133.336.297.336.121 0 .149-.02.176-.168a1.238 1.238 0 0 0 0-.34c-.023-.132-.016-.171.035-.171.09 0 .137-.102.137-.309 0-.2-.113-.355-.328-.441-.18-.074-.223-.211-.094-.32.09-.075.09-.165.004-.239-.059-.05-.129-.05-.32.004l-.25.059v.558c0 .465-.016.586-.11.801-.21.48-.12 1.25.18 1.559l.148.156.032-.766c.011-.418.039-.777.058-.797zm17.832 1.34c.176-.191.172-.277-.031-.484a.956.956 0 0 1-.21-.317c-.028-.078-.087-.156-.134-.164-.133-.023-.324.125-.324.254a.955.955 0 0 1-.098.297c-.09.176-.093.2-.027.305.047.062.152.16.238.21.203.13.41.09.586-.1zm-1.336-.414l.18-.144-.05-.266c-.016-.102-.044-.191-.071-.29-.004-.01-.14.099-.305.235-.097.09-.203.172-.316.246a.872.872 0 0 1-.152-.214c-.098-.164-.165-.223-.254-.223-.098 0-.22-.113-.22-.211a.98.98 0 0 1 .141-.188c.141-.156.145-.171.09-.375-.05-.19-.047-.226.07-.433.075-.125.145-.227.172-.227.024 0 .106.215.184.473.113.379.168.473.238.473.114 0 .114-.063.016-.692-.074-.476-.219-.91-.313-.91-.066 0-.277.254-.43.516a1.41 1.41 0 0 1-.144.215c-.066 0-.418-.586-.418-.7 0-.129-.011-.136-.18-.12l-.183.019-.164.726-.188.84c-.023.098-.011.106.172.106.176 0 .207-.016.246-.133.122-.32.11-.313.243-.223.082.055.097.094.058.133-.105.098-.05.3.145.555.218.28.222.304.133.449-.047.09-.043.11.039.152.054.028.242.203.414.383l.316.324.18-.176a4.42 4.42 0 0 1 .351-.32zm29.75-.847V37l1.82-.023-.23-.258-.219-.258h-14.62l-.348.516L53.688 37v2.625h2.464v-1.316zm-39.48.886a5.046 5.046 0 0 0-.063-.414c-.02-.117 0-.144.227-.254l.25-.125v.586h.727l.019-11.707c.012-6.441.016-11.715.008-11.723-.008-.015-.235.02-.508.067l-.492.086v3.035l.12-.023.126-.024v7l-.11.031c-.062.016-.12.012-.132-.011-.016-.024-.106-.141-.2-.27l-.175-.234-.012.343-.016.344-.316.102c-.176.058-.32.113-.32.12 0 .009.144.067.32.122l.316.105.016.348.012.344.195-.277c.191-.27.242-.31.356-.239.082.051.066 11.84-.016 11.805-.086-.027-.168-.055-.258-.078-.18-.055-.203-.082-.226-.235a10.263 10.263 0 0 1-.063-.367l-.035-.187-.188.281c-.105.152-.214.266-.25.254-.261-.094-.582-.188-.597-.172-.012.012.074.145.195.293l.215.273-.317.465c-.175.258-.304.469-.293.469.016 0 .227-.098.47-.219.245-.117.464-.218.491-.218.024 0 .157.132.286.292.128.16.242.29.25.29.011 0 .003-.125-.012-.278zm21.89-12.07v-12.16h-.539V39.28h.54V27.125zM19.684 39.156c.156-.031.164-.035.164-.297v-.27l-.262.028c-.14.016-.5.043-.79.067l-.53.027v.535l.629-.031c.347-.02.699-.047.789-.063zm-13.247-.25l.012-.258H4.97v.54l.726-.012.727-.016zm4.985-.742v-.828h.293v-1.742l-.137-.016-.133-.016-.023-3.671h.293v-1.75h-.285l-.016-1.23-.02-1.227-.136-.297a1.458 1.458 0 0 0-1.18-.871l-.242-.036.02.192c.015.18.023.183.234.219.504.086.828.433.937 1.007.032.168.047 2.243.047 5.676v5.418h.348zm29.851-.805v-1.191h-1.476v1.164c0 1.07.008 1.164.086 1.184.047.015.383.027.738.03l.652.009zm-12.867.84c.297-.133.278-.242-.031-.203l-.238.031-.032-.328a1.468 1.468 0 0 0-.054-.347c-.04-.04-.45.168-.559.289l-.117.125.254.3c.238.278.266.293.41.262.086-.016.25-.074.367-.129zm1.04-.125c.054-.039.054-.078.007-.222a1.894 1.894 0 0 1-.047-.516c.004-.184 0-.348-.011-.36-.047-.05-.38.075-.41.157-.032.14-.055.281-.06.426-.027.308-.015.363.075.453.105.105.32.133.445.062zm1.566-.066c.086-.067.129-.305.09-.485-.043-.171-.372-.546-.575-.652a1.006 1.006 0 0 0-.355-.066h-.227l.121.168a.884.884 0 0 1 .125.73c-.054.149-.05.188.012.254.149.148.652.18.809.05zm-25.082-.09c.02-.031-.035-.191-.117-.355-.168-.329-.32-1.184-.387-2.16l-.031-.505.168-.144c.16-.133.164-.145.074-.211-.149-.117-.504-.148-.645-.055-.222.145-.226.559 0 .89.153.24.219.614.219 1.278-.004.48-.04.797-.117.977-.024.062.023.097.226.18.457.171.555.19.61.105zm20.879-.344c.043-.195.3-.465.539-.55a3.05 3.05 0 0 1 .527-.118l.316-.031.043-.188c.032-.128.028-.203-.011-.242-.032-.03-.25-.062-.512-.07-.41-.016-.465-.008-.625.094-.242.164-.441.582-.48 1.02-.028.34-.028.343.074.28a.335.335 0 0 0 .129-.195zm7.421-.75v-.902l-.261.016-.254.011-.02.89-.011.884h.546zm.653.852c.047 0 .144-.051.21-.121.157-.157.173-.512.024-.657-.054-.05-.125-.093-.156-.093-.035 0-.008-.047.047-.102a.422.422 0 0 0 .137-.39.43.43 0 0 0-.258-.32c-.301-.122-.305-.118-.301.452.004.371.023.547.07.59.09.086.086.176-.008.254-.043.035-.074.14-.074.254 0 .176.008.187.114.164a1.13 1.13 0 0 1 .195-.031zm-27.75-4.059v-3.43h-.54v6.856h.54zm12.219 2.965v-.46h-.59v.921h.59zm-2.672.137l-.012-.282-.914-.03c-.5-.016-1.426-.044-2.059-.055l-1.14-.032v.532l.379.003c.367.004 3.488.122 3.671.133.079.008.09-.027.075-.27zm25.773-.223l.25-.379-.012-4.765-.011-4.774-.262-.219-.258-.218v5.386c0 2.965.012 5.38.024 5.368.007-.012.132-.192.27-.399zm16.344.094c.05-.028.066-1.207.066-5.613v-5.575l-.535-.586-.277.262-.274.27v10.879l.258.304.262.301.219-.102c.125-.054.25-.117.28-.14zM1.313 31.172l-.02-5.383-.516-.031v10.8h.547zm.945 4.074v-.922h-.543v1.844h.543zm44.683.852c.176-.094.246-.211.246-.438 0-.394-.496-.566-.796-.273-.172.175-.184.375-.036.562.176.215.356.266.586.149zm1.766-.051c.184-.156.234-.36.133-.555-.223-.426-.863-.293-.863.176 0 .43.414.64.73.379zm1.633.05c.289-.148.332-.48.101-.71-.375-.371-.992.078-.742.543.059.11.278.234.406.238a.778.778 0 0 0 .235-.07zm1.77-.05c.12-.11.152-.164.152-.328a.592.592 0 0 0-.067-.282c-.168-.218-.515-.253-.699-.074-.164.16-.2.328-.101.532.144.292.46.359.714.152zm1.706.008a.754.754 0 0 0 .149-.246.54.54 0 0 0-.195-.493c-.29-.199-.723.036-.723.395 0 .387.492.605.766.344zm2.735-.325l.12-.16.317.102c.172.062.32.101.325.094.007-.004-.07-.125-.18-.266-.106-.137-.192-.27-.192-.29 0-.019.079-.148.172-.276.098-.137.157-.25.137-.258-.027-.008-.168.027-.328.078l-.277.098-.208-.278-.21-.277-.012.351-.02.348-.32.106c-.176.058-.313.113-.305.12.016.012.153.063.313.11l.293.09.015.36.02.363.105-.13c.059-.07.16-.199.235-.285zm-43.453-1.824v-2.062h-.543v4.129h.543zm31.125 1.438c.015 0 .156.031.3.074.153.035.29.07.313.07.027 0-.059-.12-.184-.265l-.234-.262.18-.277c.097-.153.172-.286.16-.297-.008-.008-.153.035-.309.105l-.293.117-.23-.254-.239-.253v.699l-.246.082c-.132.05-.246.117-.246.148 0 .032.121.09.266.121l.27.055.035.367.03.364.196-.297c.102-.164.207-.297.23-.297zm-34.32.093c-.016-.32-.012-.324.206-.57.23-.25.325-.43.325-.61 0-.183-.094-.444-.215-.609l-.117-.16-.157.13a1.436 1.436 0 0 0-.23.269c-.117.226-.262.922-.274 1.304-.007.336 0 .368.13.477.077.066.187.11.242.102.097-.012.105-.04.09-.333zm17.253.313c.055-.02.078-.098.078-.281v-.254l-2.054.015a103.89 103.89 0 0 0-2.121.032c-.032.004.046.12.168.261l.222.258h1.817c.996 0 1.847-.015 1.89-.031zm-11.25-1.91c0-.91-.023-1.664-.043-1.676-.027-.016-1.847.133-1.968.16-.008.004-.012.7-.012 1.559v1.554l.332.016c.183.008.64.02 1.012.027l.68.008zm13.574 1.527c-.382-.156-.652-.418-.746-.726-.062-.207-.07-1.418-.07-8.864v-8.62h-.117c-.067 0-.219.011-.344.03l-.226.028v8.605c0 6.239.011 8.664.05 8.825.035.132.133.3.262.433.258.281.594.406 1.113.406h.371zm-10.136-.426l-.016-.449-.285-.015-.281-.012v.926h.593zm12.008.09c.14-.14.171-.199.171-.386 0-.59-.804-.782-1.058-.258-.094.207-.098.336-.004.515.094.184.289.29.535.29.152.003.223-.028.356-.16zm23.753-.336l-.222-.254-4.551-.011-4.555-.012-.18.242c-.1.133-.183.25-.183.27 0 .011 2.227.023 4.957.023h4.957zm-30.285-.203v-.27h-2.172l.036-.331.03-.336-.179-.059a.631.631 0 0 1-.207-.098c-.023-.046.27-1.847.305-1.89.015-.024 1.055.277 1.293.37.035.013-.16-.308-.434-.718-.277-.406-.484-.758-.465-.781.024-.024.442-.336.93-.695l.883-.653.492.89c.27.497.504.9.52.9.015 0 .113-.337.218-.747.106-.402.215-.762.25-.793.028-.027.348-.101.707-.164l.657-.113-.036-.246a1.451 1.451 0 0 0-.046-.266c-.02-.023-1.645.254-1.704.29-.027.015-.085.163-.136.331l-.082.305-.325-.582c-.171-.328-.335-.582-.359-.578-.086.027-2.73 2.004-2.734 2.043 0 .02.09.168.199.328.105.156.184.289.172.289a1.859 1.859 0 0 1-.223-.074c-.156-.055-.21-.055-.223-.012-.175.93-.328 1.863-.472 2.797 0 .066.07.125.203.184l.203.09-.027.429-.032.426h2.758zm9.41.067c0-.114-.039-.309-.085-.438-.075-.203-.079-.258-.016-.441.082-.27.125-.72.062-.72-.086 0-.367.212-.472.352-.164.22-.172.77-.024 1.051.102.188.364.395.496.395.02 0 .04-.09.04-.2zm.735.062c.203-.144.308-.402.308-.758 0-.488-.195-.789-.566-.883-.129-.027-.133-.023-.133.176 0 .13.031.246.086.301.063.07.09.18.09.402 0 .223-.027.332-.09.399-.055.062-.086.172-.086.3 0 .204.004.208.133.176a.85.85 0 0 0 .258-.113zm10.285-.07a47.8 47.8 0 0 1 .258-.371l.148-.215v-5.422l-.254-.227c-.144-.12-.277-.218-.297-.218-.02 0-.035 1.484-.035 3.304 0 1.82.016 3.309.035 3.309.02 0 .086-.07.145-.16zm10.36-3.52v-3.687l-.27.27-.27.261v6.258l.25.289c.14.156.266.289.274.289.011 0 .015-1.656.015-3.68zM27.354 33.88c.04-.668.028-.691-.293-.64-.257.034-.5.136-.695.284-.191.137-.414.563-.414.786v.16h1.363zm-1.968-.418c.066-.125.11-.242.09-.266-.024-.02-.532-.207-1.125-.418l-1.086-.386-.028.148c-.082.375-.082.676-.008.7.137.05 1.81.445 1.915.449.082.003.144-.06.242-.227zm-19.938.074c.086-.09.074-.215-.058-.469-.125-.242-.227-.804-.227-1.242 0-.246.012-.265.18-.375.183-.12.41-.394.41-.504 0-.03-.125-.195-.274-.36-.335-.362-.449-.382-.562-.081-.094.254-.098 1.828-.004 2.383.09.554.164.707.336.707.078 0 .168-.028.2-.059zm48.93-.113c0-.164-.004-.168-.2-.168-.19 0-.195.004-.195.168 0 .168.004.172.196.172.195 0 .199-.004.199-.172zm-7.637-.27v-.386h.543v.78h.395v-1.898h-.395v.633h-.543v-.633h-.347v1.895h.347zm2.758.196v-.196h-.785v-.382l.332-.012.332-.016.012-.183.015-.184h-.691v-.387h.738v-.39H48.32v1.949h1.18zm.938-.196c0-.222.019-.386.05-.386.028 0 .047-.067.047-.145 0-.082-.02-.148-.047-.148-.031 0-.05-.118-.05-.266 0-.148.019-.27.05-.27.028 0 .047-.074.047-.167 0-.172 0-.172-.222-.172h-.22v1.945h.344zm.906.196l-.04-.391a.625.625 0 0 0-.109-.293c-.05-.059-.062-.094-.023-.094.035 0 .094-.078.137-.175.117-.278 0-.625-.258-.739-.184-.082-.184-.082-.149.2.016.14.028.32.024.398-.012.367.004 1.082.027 1.18.02.093.063.109.219.109h.191zm1.902 0v-.196h-.789v-.382l.332-.012.332-.016.031-.367h-.695v-.387h.738v-.39H52.11v1.949h1.137zm-11.973-1.172v-1.274l-.375.032c-.207.02-.543.03-.738.03h-.363v2.481h1.476zm-22 1c-.05-.203.02-.434.25-.781.172-.254.223-.375.223-.528 0-.402-.203-.57-.566-.469-.34.094-.367.133-.188.286.09.074.164.175.164.222 0 .047-.101.227-.222.395-.122.168-.22.355-.22.414 0 .07.095.207.235.351.266.262.371.301.324.11zm12.079-.043c.136-.133.171-.2.171-.367a.547.547 0 0 0-.375-.54c-.605-.195-1.027.59-.527.977a.57.57 0 0 0 .344.098c.183 0 .25-.028.387-.164zm25.691.023a.386.386 0 0 0 .145-.32.478.478 0 0 0-.465-.461.48.48 0 0 0-.473.46c0 .25.219.466.473.466.129 0 .215-.04.32-.145zm-13.055.02c.274-.14.32-.489.098-.707-.395-.39-1.035.129-.715.578.145.203.379.25.617.129zm10.364-.328c.011-.032.03-.34.046-.68l.032-.617h-.395v.23c0 .133.012.438.031.684.028.426.036.45.149.45.062 0 .129-.032.137-.067zm-28.215-.223l.105-.137-.758-1.23a60.78 60.78 0 0 0-.785-1.254c-.012-.012-.222.105-.472.258l-.45.277.532.543c1.445 1.461 1.668 1.684 1.695 1.684.02 0 .074-.063.133-.141zm-23.88-1.344v-1.433h-.542v2.867h.543zM10.09 32.5c.277-.145.344-.29.344-.738 0-.219-.024-.512-.051-.645-.063-.281-.004-.445.152-.445.082 0 .098-.031.098-.188 0-.418-.34-.52-.551-.172-.059.098-.11.165-.117.153a4.517 4.517 0 0 1-.027-.61c-.004-.324-.02-.593-.04-.593-.093 0-.207.199-.25.433a2.6 2.6 0 0 1-.074.301c-.015.024.004.172.047.328.102.406.098.461-.101.688-.165.203-.2.304-.141.457.043.117.156.097.351-.051l.176-.137-.023.348c-.016.246-.059.402-.137.527-.09.149-.101.2-.059.297.067.137.196.152.403.047zm17.168-.234c.023-.07.18-2.575.16-2.59-.11 0-.219.004-.328.02l-.313.03.008 1.07c.004.587.02 1.177.035 1.298l.035.234h.192c.11 0 .2-.027.21-.062zm-12.02-.79c-.101-.433-.101-.437.11-.566l.183-.113-.226-.04-.23-.042-.063-.34c-.032-.184-.075-.336-.094-.336-.016 0-.098.133-.172.293-.098.207-.164.29-.223.273-.222-.062-.343-.078-.343-.046a.881.881 0 0 0 .12.175c.071.075.122.176.122.211 0 .04-.074.227-.172.418l-.176.344.188-.113c.105-.059.246-.153.32-.2.05-.039.11-.07.176-.09.023 0 .152.134.285.294.137.16.25.27.258.25.008-.024-.016-.188-.063-.371zm18.992-.585v-.903l-.261.016-.254.012-.02.824c-.004.457 0 .855.016.89.016.04.117.06.27.06h.25zm.61.851c.066 0 .172-.055.246-.129.164-.164.184-.5.031-.648-.054-.05-.125-.094-.152-.094-.031 0 .004-.07.07-.152.149-.172.16-.282.059-.477-.067-.129-.285-.25-.446-.25-.093 0-.082 1.016.008 1.11.09.09.086.199-.008.238-.05.015-.074.094-.074.242 0 .18.012.215.078.191a.629.629 0 0 1 .188-.03zm9.246-.336c.105-.105.144-.187.144-.32 0-.129-.039-.211-.144-.32-.11-.106-.191-.141-.324-.141a.406.406 0 0 0-.325.14c-.105.11-.14.192-.14.32 0 .134.035.216.14.321.106.106.192.145.325.145s.218-.04.324-.145zm-30.61.016l.266-.031-.031-.203c-.04-.247.027-.63.172-1.02.125-.328.488-.734.707-.785.539-.133 1.195.594 1.25 1.387l.027.343h.156c.082 0 .266-.015.41-.031l.258-.031v-.262c0-.215-.015-.262-.086-.266-.082 0-.082 0 0-.046.153-.09.102-.227-.101-.293a1.156 1.156 0 0 1-.219-.086c-.02-.02.098-.137.262-.27.156-.129.281-.25.265-.273-.011-.02-.152-.051-.308-.07a1.416 1.416 0 0 1-.34-.067c-.031-.023.031-.285.184-.754.129-.394.21-.71.18-.695-.036.008-.313.164-.626.336-.476.27-.57.304-.593.238-.13-.527-.25-1.05-.371-1.578-.22-.973-.352-1.473-.372-1.41-.023.047-.195.722-.39 1.504l-.348 1.414-.742-.309c-.41-.172-.754-.305-.766-.293-.011.012.192.363.453.774.258.418.47.765.47.777 0 .012-.126.043-.286.058-.152.016-.367.043-.473.06l-.195.026.363.329.368.324-.31.226-.304.22.715.241-.566.07v.54l.332-.036c.18-.015.449-.043.59-.058zm19.153-.195c.379-.204.379-.204-.149-.532-.32-.195-1.558-.785-1.828-.867-.074-.023-.195.02-.406.152-.164.098-.305.196-.305.207 0 .016.153.09.336.168.512.215 1.43.684 1.735.872.152.093.277.175.281.175.008 0 .16-.082.336-.175zm24.414-.063c.11-.105.145-.191.145-.32a.482.482 0 0 0-.465-.465.483.483 0 0 0-.473.465c0 .246.219.46.473.46a.404.404 0 0 0 .32-.14zm-8.422-.39c.09 0 .094-.047.094-.95v-.949h-.344l-.016.578-.011.582-.594-1.09h-.39l-.028 1.828h.39l.016-.523.012-.527.27.488c.316.582.343.621.433.586a.602.602 0 0 1 .168-.024zm1.274-.098a.94.94 0 0 0-.106-.352c-.16-.297-.16-.844-.004-1.054.125-.172.149-.446.035-.446-.035 0-.148.07-.242.153-.183.156-.324.507-.324.804 0 .45.207.887.465.992.164.063.176.055.176-.097zm.671-.078c.227-.235.336-.618.301-1.051-.012-.192-.054-.379-.105-.457-.09-.13-.356-.313-.461-.313-.106 0-.07.301.05.426.094.102.11.168.11.512 0 .32-.023.441-.11.605-.226.426-.093.598.215.282zm1.871-.485c.051-.363.118-.66.145-.66.027 0 .105.297.168.664l.125.664.223-.035c.12-.016.238-.047.254-.066.05-.047.402-1.996.37-2.032-.015-.015-.1-.015-.195 0l-.168.036-.086.734c-.113.996-.117 1-.296.16-.168-.785-.196-.875-.266-.867l-.219.012-.168.007-.113.668c-.063.364-.129.711-.148.766-.04.09-.043.09-.067-.023-.016-.07-.062-.352-.105-.633-.118-.797-.114-.778-.262-.778-.274 0-.274.008-.082 1 .098.504.187.946.2.98.01.04.12.063.308.063h.293zm-32.992.489c.203-.258.332-1.153.258-1.79-.055-.468-.137-.683-.262-.707-.105-.02-.628.512-.628.641 0 .145.152.363.359.504.183.129.191.137.168.367a1.175 1.175 0 0 1-.176.477c-.219.347-.238.453-.102.55.165.11.27.098.383-.042zm14.051-1.79c.102-.835.176-1.523.168-1.53-.008-.009-.191.128-.41.304a4.55 4.55 0 0 1-.426.316c-.016 0-.027-.082-.027-.183 0-.36-.188-1.082-.36-1.383-.144-.262-.5-.621-.62-.621-.016 0-.067.058-.114.125-.074.129-.074.133.184.383.21.203.28.312.359.57.129.406.207.96.207 1.453 0 .211.02.383.04.383.019 0 .187-.121.37-.27.18-.144.328-.242.328-.207s-.054.512-.125 1.063c-.066.547-.12 1.02-.12 1.055 0 .046.28.109.34.078.01-.008.1-.696.206-1.535zm10.59.891a.437.437 0 0 0 .125-.406.449.449 0 0 0-.273-.324c-.297-.121-.641.097-.641.406 0 .426.484.625.789.324zM5.688 28.73c.003-.308.03-.617.054-.683.078-.195.219-1.035.203-1.192l-.02-.144-.538.016c-.297.011-.551.02-.555.027-.004.004.047.152.11.332.183.5.328 1.273.312 1.71-.008.384-.008.388.16.52.149.122.176.125.215.055.023-.043.055-.336.059-.64zm3.039.555c.16-.105.312-.168.414-.168.136 0 .16-.02.16-.11 0-.058.058-.905.12-1.878.071-.977.118-1.781.106-1.793-.011-.008-.152.129-.316.309l-.297.32-.031-.188c-.164-1.074-.32-1.507-.668-1.879l-.235-.253-.136.132-.133.13.144.124c.364.301.586.98.668 2.067l.059.75.54-.57-.032.359c-.02.203-.055.781-.09 1.289-.027.508-.059.953-.07.984-.008.04-.149-.031-.36-.195a10.63 10.63 0 0 0-.86-.567c-.577-.335-.519-.332-.866-.039-.094.075-.157.145-.149.153.012.008.133.074.266.152.414.23 1.226.781 1.351.918.04.047.09.09.137.129.012 0 .133-.078.278-.176zm22.835-.117l.118-.102-.09-.226c-.13-.348-.645-.832-1.067-1.012-.304-.129-.328-.152-.304-.265.058-.247.367-.813.59-1.06.128-.144.222-.265.214-.273-.011-.007-.191 0-.402.02-.273.02-.41.055-.484.125-.235.207-.754 1.25-.793 1.59-.012.133.004.144.504.344.285.113.55.226.59.25.386.218.609.402.718.59.133.226.16.23.407.019zm25.344.14c.297-.148.364-.472.153-.722-.106-.125-.164-.148-.336-.148-.5 0-.645.625-.2.867.118.07.262.07.383.004zm-15.633-2.304v-1.34l-.183.023c-.188.032-1.172.122-1.25.122-.024 0-.043.558-.043 1.265v1.266h1.476zm3.477.484c.172-.047.309-.101.293-.12a1.567 1.567 0 0 0-.316-.122l-.293-.086-.02-.367-.012-.36-.199.274c-.215.3-.203.3-.676.152l-.23-.074.207.293.207.29-.211.292c-.117.16-.2.293-.191.293.011 0 .148-.043.308-.101.153-.051.309-.094.336-.094.031 0 .145.12.25.27l.2.273.011-.363.02-.368zm5.875.422l4.2-.277.28-.278.282-.28h-.172c-.094 0-1.98.12-4.188.269l-4.894.324-.887.055.578.507.301-.02c.16-.015 2.188-.148 4.5-.3zm-27.95-.445c.243-.031.458-.067.477-.082.028-.012.043-.574.043-1.258 0-1.04-.011-1.238-.07-1.238-.078 0-.746.086-1.004.125l-.156.023v2.524l.133-.024c.074-.012.332-.043.578-.07zM7.649 27.05c-.07-.332-.375-.86-.691-1.192-.18-.187-.367-.351-.418-.367a.133.133 0 0 1-.094-.12c0-.231.496-1.337.86-1.93l.129-.204-.235.024c-.445.05-.433.043-.644.472-.317.637-.801 1.895-.801 2.078 0 .024.156.122.344.223.511.262.898.637 1.117 1.067l.183.367.137-.133c.117-.113.14-.164.113-.285zm-5.441-.824v-1.149h-.543v2.29h.543zm44.8.964c.2-.199.192-.468-.023-.664-.238-.218-.566-.152-.714.149-.22.46.37.875.734.515zm-27.882-.046c.16-.13.164-.137.14-.454-.023-.328.075-.812.215-1.082l.07-.136-.417-.012-.559-.012c-.12 0-.137.016-.148.184-.02.222.043.308.285.37l.18.052-.024.293c-.02.289.028.925.074.925.063-.039.13-.082.188-.128zm6.563.02l.464-.06v-1.253c0-1.188-.007-1.258-.093-1.258-.11 0-.875.093-1.032.125l-.109.023v2.477h.152c.082 0 .36-.024.617-.055zm30.937-.216l.145-.27.23.032c.129.016.27.039.309.055.132.054.078-.094-.11-.29l-.187-.187.164-.293c.09-.164.156-.3.148-.308-.008-.008-.152.05-.324.12l-.305.141-.203-.238c-.219-.262-.308-.3-.27-.129.012.059.036.207.051.332l.032.219-.328.137c-.172.078-.317.144-.305.156.016.008.16.043.336.082.347.066.375.105.383.508.004.113.027.203.047.203.019 0 .105-.121.187-.27zm-43.414-.554l.351-.114-.355-.117-.36-.117v-.692l-.195.258c-.066.09-.14.184-.21.278-.012.007-.157-.032-.333-.082-.171-.047-.32-.086-.328-.075-.008.008.074.125.18.27.11.14.184.281.164.312a4.736 4.736 0 0 1-.203.286c-.09.125-.145.23-.121.23.027 0 .176-.047.332-.098.16-.05.293-.097.297-.097.004 0 .093.125.199.277l.195.277.012-.34.016-.34.359-.113zm35.445.656c.188-.156.235-.36.133-.551-.098-.188-.215-.25-.445-.25-.414 0-.586.496-.266.79.18.167.383.17.578.007zm1.758-.227c.156-.187.152-.383-.004-.566-.16-.184-.363-.235-.558-.133-.493.254-.227.953.328.863a.556.556 0 0 0 .234-.164zm1.652-.133c.11-.105.145-.187.145-.32a.473.473 0 0 0-.465-.46.477.477 0 0 0-.473.46c0 .246.22.461.473.461.129 0 .215-.039.32-.14zm1.575-.078c.425-.218.277-.851-.203-.851a.466.466 0 0 0-.473.398c-.028.16-.008.203.148.356.192.187.309.21.528.097zm-19.805-7.707v-7.39h-.54v14.78h.54zm16.715 6.715l7.035-.57.305-.305.308-.3-.199.027c-.11.015-3.602.3-7.762.636-4.16.332-7.652.618-7.77.633l-.206.028.277.238.285.242.344-.027c.191-.016 3.512-.29 7.383-.602zm-15.668-.273l.234-.028v-1.773l-.258.035c-.144.02-.308.035-.37.04-.11 0-.11 0-.11.905v.907l.133-.028c.074-.015.242-.039.37-.054zm1.133-.145l.234-.031v-1.754l-.355.035c-.2.02-.375.043-.399.055-.047.031-.047 1.691 0 1.738.02.02.094.024.16.012.07-.012.227-.04.36-.055zm-16.75-.933c.48-.762.488-.895.09-1.051-.11-.047-.2-.09-.2-.106 0-.011.102-.144.223-.297.125-.148.219-.277.21-.285a1.784 1.784 0 0 0-.288-.047l-.27-.03-.16.23c-.266.402-.394.793-.242.793.11 0 .43.246.43.332 0 .046-.125.203-.274.351-.148.145-.27.3-.27.344 0 .098.231.383.313.383.027 0 .227-.282.438-.617zm10.664-3.387l.011-3.887-.148.031c-.086.016-.211.032-.273.032h-.118v3.859c0 2.117.008 3.867.02 3.879.02.012.133.012.262-.004l.234-.027zm13.02 1.015v-2.847h-.54v5.691h.54zm-10.493 2.457c0-.277.004-.289.137-.304l.133-.016.015-.691.012-.692h-.297v-2.62l.137-.016.133-.016v-1.41l-.133-.016-.137-.015v-1.5h-.543v7.586h.543zm12.574.16l.336-.03v-2.32h-.164a8.43 8.43 0 0 0-.492.03l-.332.032v2.32h.16c.164-.004.328-.016.492-.031zm-31.972-.14l.336-.031v-2.965l-.383.027c-.211.02-.434.043-.496.055l-.11.023v2.97l.16-.024a7.74 7.74 0 0 1 .493-.055zm33.746-.008c.023-.012.039-.539.039-1.168v-1.148l-.528.035a3.97 3.97 0 0 0-.566.059c-.023.015-.04.539-.04 1.168v1.14l.528-.031c.293-.02.547-.043.567-.055zm-15.578-.183c.203-.106.296-.262.296-.5 0-.184-.03-.243-.168-.383-.14-.137-.207-.164-.39-.164-.516 0-.762.593-.395.933.223.2.414.235.657.114zm18.293.039l.23-.028v-2.36l-.207.02-.547.043-.332.032v2.273l.133.02c.238.03.484.035.723.004zm-38.555-3.625l-.012-3.61-.258-.015-.258-.02v7.254h.54zm4.41 3.48l.234-.027v-3.067l-.285.032-.515.062-.235.024v3.07l.285-.035.516-.059zm35.96 0c.024-.012.04-.547.04-1.191v-1.168l-.383.027c-.207.016-.496.043-.64.059l-.258.027v2.34l.605-.04c.332-.019.621-.042.637-.054zm2.376-.242l.227-.031-.024-2.25-.297.015a6.46 6.46 0 0 0-.48.04l-.188.027v2.23h.266c.144 0 .367-.012.496-.031zm1.32-.094l.387-.031-.016-1.125-.011-1.129-.371.016c-.188.004-.368.023-.555.043l-.184.027v2.266l.184-.02c.101-.008.355-.031.566-.047zM35.082 23.2c.02-.012.035-.375.035-.808v-.79l-.367.047-.371.047v1.594l.332-.031c.184-.02.352-.043.371-.059zm1.156-.129c.008-.008.008-.375 0-.816l-.011-.797-.739.098-.011.8-.02.793.383-.03c.21-.02.39-.044.398-.048zm5.024-.078c.008 0 .011-.586.011-1.297v-1.293l-.132.024c-.246.043-.493.078-.739.113l-.605.09v2.488l.726-.058zm-35.242-.64l.39-.055-.027-.238a1.086 1.086 0 0 0-.047-.266c-.012-.012-.305.016-.645.059l-.62.082.023.203c.054.375-.047.355.926.215zm1.957-.797v-.899h-.594v1.801h.594zm23.406.613a.532.532 0 0 0 .11-.559.548.548 0 0 0-.446-.355c-.48-.059-.809.394-.586.812.172.329.668.387.922.102zm-8.656-.047l.441-.078.02-1.234.011-1.235-.164.028c-.207.039-.41.074-.617.109l-.453.086v2.46l.156-.03c.09-.02.363-.067.606-.106zm22.449-.297h.191V19.59l-.383.031a5.323 5.323 0 0 0-.496.047l-.11.02v2.199l.306-.028c.164-.02.386-.03.492-.03zM25.62 21.7l.531-.086v-2.672l-.16.028-.613.113-.461.082v1.332c0 1.246.008 1.332.086 1.313.05-.02.324-.067.617-.11zm21.184-.004c.023-.011.039-.511.039-1.117v-1.094l-.532.032c-.289.02-.546.043-.566.054-.02.012-.035.516-.035 1.117v1.094l.527-.035c.293-.016.547-.043.567-.05zm2.785-.191l.16-.027v-2.23l-.48.026a4.917 4.917 0 0 0-.543.051c-.047.016-.063.281-.063 1.137v1.117l.383-.023c.21-.016.453-.035.543-.051zm1.402-.098l.383-.027v-2.172l-.258-.027a3.758 3.758 0 0 0-.629.008l-.37.035-.013 1.07c-.007.59-.003 1.098.012 1.133.016.043.094.054.262.035.125-.012.406-.035.613-.055zm2.785-.191l.16-.027v-2.235h-.265c-.145 0-.367.012-.492.031l-.23.032v2.261l.335-.02a6.45 6.45 0 0 0 .492-.046zm-47.78-.13l.503-.05-.031-.25a2.051 2.051 0 0 0-.051-.27c-.008-.011-.375.02-.813.07l-.796.087.027.144c.02.082.035.196.035.266 0 .14-.09.14 1.125.004zm49.155.028l.262-.027v-2.227h.332l.082-.425c.04-.239.078-.47.078-.524 0-.055-.105-.285-.234-.512l-.234-.41-1.04-.105c-.375-.035-.75-.078-1.125-.125-.05-.012.13-.18.54-.496.335-.262.617-.48.617-.489l-.14-.449c-.134-.422-.153-.453-.509-.781-.199-.191-.37-.336-.379-.328-.007.008.063.285.164.613l.2.68c.015.058-.18.242-.668.629-.668.527-.696.554-.672.699.011.078.043.254.058.383.02.129.059.246.09.258.692.082 1.39.156 2.086.21.059 0 .606 1.012.606 1.122 0 .027-.102.05-.235.05-.129 0-.351.012-.492.028l-.258.031v2.273l.305-.027c.172-.012.426-.035.566-.05zm-23.8-.816c.14-.14.171-.2.171-.383a.525.525 0 0 0-.347-.52c-.457-.187-.95.329-.723.766.113.211.266.3.516.3.18 0 .246-.023.383-.163zM5.016 17.859v-1.87h-.54v1.84c0 1.015.012 1.855.032 1.874.015.016.14.027.273.027h.235zm7.882 1.657c.547-.051.497.117.497-1.489 0-.773-.02-1.406-.04-1.402-.02 0-.238.043-.48.09l-.445.082-.012 1.398c-.012 1.317-.008 1.399.074 1.375.047-.015.23-.039.406-.054zm43.676-.922c.156-.508.301-.961.32-1.004.036-.059.278-.11 1.055-.219.559-.074 1.012-.152 1.012-.164 0-.016-.309-.145-.688-.289l-.683-.258-.512.086c-.277.047-.523.11-.543.14-.055.083-.265 1.012-.383 1.696-.105.605-.109.629-.023.816.047.106.105.176.125.153.02-.02.164-.453.32-.961zm-41.215.418l.227-.035.023-2.973-.457.09c-.168.035-.343.062-.52.09-.046 0-.058.328-.058 1.46v1.465l.285-.035c.164-.02.336-.043.5-.062zm4.489-.664v-.266h-1.43v.531h1.43zm11.457.136c.21-.136.277-.484.144-.738a.607.607 0 0 0-.254-.223c-.488-.23-1 .332-.707.79a.55.55 0 0 0 .367.261.559.559 0 0 0 .45-.09zm10.992-1.714a14.687 14.687 0 0 1 3.738-.739c1.883-.136 3.93.227 5.531.98.282.134.524.239.543.239.02 0 .008-.168-.023-.375-.07-.434-.117-.484-.742-.836-.754-.426-1.86-.758-3.024-.902-.53-.07-.894-.082-1.797-.059-1.386.035-2.253.152-3.613.504-1.047.266-2.558.809-3.078 1.102l-.285.164 1.062.574.555-.227c.305-.129.813-.32 1.133-.425zm-19.649.214c.258-.043.485-.09.504-.101.051-.028.059-2.598.012-2.598-.02 0-.293.07-.617.152l-.582.157v2.511l.11-.023c.058-.012.32-.055.573-.098zm33.282-.336c.035-.351.027-.343.484-.394.152-.02.277-.047.277-.063 0-.02-.12-.117-.265-.222-.094-.063-.184-.13-.274-.196.016-.054.133-.832.13-.835-.118.066-.231.148-.337.23l-.328.242-.426-.18c-.23-.097-.43-.171-.437-.16-.012.008.062.16.168.336.105.176.191.34.195.375 0 .028-.12.149-.27.266l-.273.21.133.028c.078.016.258.031.402.035.293.008.434.114.625.461.055.102.11.18.125.18.02 0 .051-.14.07-.313zm3.523.223c0-.023-.469-.379-1.035-.789-.95-.68-1.035-.758-1.012-.871.07-.352.282-1.953.262-1.973-.02-.015-.5.207-1.078.492-.774.383-1.078.512-1.172.493a31.543 31.543 0 0 1-1.04-.297 15.18 15.18 0 0 0-.948-.262c-.02.008.093.14.25.297.277.27.324.297 1.086.57l.793.29.703-.333c.57-.27.707-.316.718-.254.008.043-.03.364-.085.711-.051.344-.086.64-.063.66.02.016.29.211.602.438.449.32.687.453 1.156.637.558.218.863.285.863.191zm-33.941-.3c.308-.051.578-.098.601-.098.02 0 .04-.637.04-1.414V13.64l-.114.027-.617.16-.504.133v1.355c0 .743.004 1.356.012 1.356s.27-.047.582-.102zm3.754-.325c.023-.367.117-.59.351-.832.215-.23.395-.309.692-.309.566-.007.984.41 1.09 1.09l.035.23.226-.003c.149 0 .32-.047.492-.137l.262-.133-.23-.207c-.125-.117-.22-.215-.211-.222a7.29 7.29 0 0 1 .445-.149c.242-.074.426-.136.422-.144a12.692 12.692 0 0 0-.531-.223c-.18-.062-.356-.137-.532-.21-.004-.009.043-.286.106-.618.066-.332.113-.61.105-.621-.008-.008-.265.129-.574.305l-.559.316-.625-1.227-.085.145c-.047.078-.215.36-.372.637-.156.273-.304.496-.328.496-.027 0-.312-.153-.633-.336-.328-.188-.593-.324-.593-.305 0 .024.09.3.199.617.105.317.187.586.172.598a7.346 7.346 0 0 1-.61.176c-.328.086-.605.168-.617.183-.023.012.164.11.414.211.243.102.442.2.442.215 0 .016-.133.113-.297.215-.164.105-.293.207-.293.223 0 .043 1.246.332 1.457.34l.156.003zm10.957-.168c.03-.023.261-.324.504-.664.586-.812.882-1.156 1.187-1.367l.254-.172-.211-.18c-.23-.199-.785-.504-1.227-.675-.25-.094-.3-.098-.738-.047-.828.097-.824.09-.168.3.32.106.785.282 1.02.391l.433.203-.164.172c-.312.324-1.078 1.371-1.558 2.133l-.258.406.433-.226c.243-.13.461-.254.493-.274zm10.215-1.242c0-.078.035-.242.074-.371.054-.18.058-.262.015-.34-.043-.078-.035-.11.035-.164a.376.376 0 0 1 .126-.063c.058 0 .19-.324.19-.46 0-.165-.124-.352-.296-.442-.195-.098-.23-.09-.27.078-.023.114-.007.164.083.235.101.082.105.101.046.242-.05.117-.093.152-.203.152-.11 0-.144.031-.191.156-.043.125-.04.168.031.243.07.082.074.117.016.343-.024.106-.055.211-.086.313-.016.039.05.094.14.133.239.105.29.093.29-.055zm-.711-1.133c.175-.492.312-.902.312-.906.008-.031-.32-.11-.344-.082-.02.027-.168.437-.332.93-.297.886-.3.89-.191.933a.465.465 0 0 0 .176.031c.043-.004.191-.347.379-.906zm-4.946.777a.63.63 0 0 0 .387-.332.622.622 0 0 0-.004-.507c-.074-.153-.152-.196-.652-.348-.383-.117-.43-.14-.43-.246 0-.235.41-.3.613-.106.086.086.153.106.293.09.157-.02.18-.035.149-.12a.782.782 0 0 0-.168-.25c-.18-.18-.582-.227-.91-.106-.266.101-.371.254-.371.535 0 .324.132.441.667.605.38.114.442.149.458.25.023.16-.11.246-.399.246-.164 0-.246-.023-.266-.078-.023-.07-.234-.093-.378-.043-.102.04-.043.196.125.34.12.098.199.117.425.117.153 0 .364-.02.461-.047zm3.86-.156l-.223-.984c-.066-.3-.133-.594-.215-.887-.031-.031-.074.274-.133.902a6.96 6.96 0 0 1-.07.59c-.012.02.02.051.07.067.067.015.098.062.098.148 0 .227.05.27.281.27.2 0 .215-.008.192-.106zm-2.211-.511c-.02-.286-.047-.66-.063-.825l-.027-.3.234-.016c.23-.012.239-.02.23-.156 0-.051-.011-.11-.03-.157-.008-.011-.31-.007-.665.012l-.648.031v.164c0 .16 0 .164.242.164h.238l.028.254c.015.141.047.504.066.801l.031.55h.395zm1.023.41a.55.55 0 0 1 .117-.215c.067-.078.106-.254.149-.703.035-.328.074-.676.09-.77.02-.125.015-.156-.024-.12-.058.054-.797 1.8-.797 1.878 0 .023.098.043.215.043.188 0 .223-.016.25-.113zm7.195-.633c-.308-.211-1.18-.703-1.687-.953-1.727-.856-3.348-1.32-5.309-1.516-.77-.078-2.996-.078-3.718-.004-1.954.207-3.649.617-4.868 1.18-.425.191-.449.21-.421.332.011.047.027.098.046.144.032.032.926-.097.98-.14.2-.156 1.794-.594 2.833-.774 1.426-.254 3.637-.34 5.078-.199 1.625.156 3.156.55 4.582 1.192.281.128.95.359 1.477.507 1.039.305 1.16.332 1.007.23zm0 0"/></svg>