<svg xmlns="http://www.w3.org/2000/svg" width="64" height="64"><path d="M32 1C14.878 1 1 14.878 1 32c0 17.12 13.879 31 31 31 17.12 0 31-13.88 31-31C63 14.877 49.12 1 32 1zm-8.204 17.118s6.621 4.925 6.709 5.165l.521.134 3.959.067.603.553 9.261-1.584c.132-.06.511-.233.703-.31.521-.24 1.784-.68 2.34-.786.606-.116 1.821-.246 2.177-.215.357.032.64.105 1.113.284.328.123 1.964.985 2.197 1.148.128.073.404.182.437.2.165.078 3.618.115 4.283.446.669.335 3.435.432 3.435.432s-2.688.2-3.036.38c-.674.35-1.655.559-3.416.612-2.119.065-4.348.215-4.348.215s-1.308-.272-1.259 1.963l-7.48.821-8.47.521s-.34.93-.487 1.575c-.054.24-2.006.004-2.487-.077-.481-.08-.418-.564-.418-.878 0-.315-.484-.178-.82-.21-.334-.03-6.002.064-6.002.064s.231-.406-.16-.817c-.134-.142.27-.588.4-.566.129.02-.177-.064-.307-.231s.138-.902.515-1.07c.377-.168 2.05-.578 2.251-.625.202-.045.588-.537.588-.537s-2.532.357-2.55.236c-.016-.122-.834-.669-.122-1.045.113-.06.553-.272-.16-.133-.15.029-.858-1.699-1.22-2.257-.364-.56-1.98-2.886-2.053-3.074 0 0 2.166-.313 3.303-.401zM3.52 29.862c.347 0 .698.01 1.02.037 0 0 4.555 3.448 5.267 4.16.554.085 3.572.238 4.746.33.21.01 3.472.04 3.472.04.936-.31 2.039-.846 2.775-1.18l.259-.088c.325-.103 1.146-.698 3.173-.836 1.448-.1 3.627-.07 4.089.113.185.076.708.39 1.097.632l-.073-.018c.213.121.442.242.627.322.317.018 5.155.689 5.98.897l1.775.029-1.761.14c-.35.196-3.718.838-6.052.922-2.334.085-3.804.106-3.804.106.058.23.17 1.082-.025 1.474-.462.335-2.377.594-5.744.722.152.102.264.368-.281.383-.546.013-.294.232.045.356.339.125 1.94.117 1.643.503-.133.16-.205.212-.686.37-.673.22-4.3.839-8.968-.14-.36-.075-.586-.392.056-.476.362-.048 2.844-.352 3.21-.385.368-.033.019-.37-.058-.467-.077-.099-2.111-.022-3.851.239-1.739.26-1.93.446-2.88.418-.95-.028-4.126-.29-4.551-.312l-.48-.274c-.21.058-.65-.058-.995-.113-.075-.175.013-.381.1-.42.086-.038.669-.135.669-.135-.006-.39.22-.647.618-.842.396-.195 2.245-.521 2.245-.521l.193-.565-2.3.202c.012-.203.077-.839.186-1.123l-2.768-4.41s.992-.091 2.032-.09z" fill="#231f20"/></svg>