<svg xmlns="http://www.w3.org/2000/svg" width="64pt" height="64pt" viewBox="0 0 64 64"><path d="M31.852 0C14.258 0 0 14.258 0 31.852c0 17.402 14.3 31.851 31.852 31.851 17.593 0 31.851-14.258 31.851-31.851C63.703 14.258 49.445 0 31.852 0zM17.695 12.242a.15.15 0 0 1 .13 0l.195.063c-.063.258-.106.523-.098.586.008.054.16.152.293.062l.129.035.097.063c.016.101.075.097.13 0l.097-.063c.152-.093.195-.031.324 0l.067.032c.242.043.554-.075.683-.262l.13-.063c.265-.14.835-.008.843.356v.133c-.05.18-.004.289.098.257.097-.03.355-.007.355.032 0 .043.266.074.586-.032l.195.227.196.293c.203-.14.222.027.03.39l-.39-.097c-.129-.031-.133-.05-.258 0l-.164.031c-.175.043-.246-.02-.16-.129l-.098-.066c-.113-.074-.351.164-.421.226a1.406 1.406 0 0 1-.52.293l-.133.036c-.191.007-.238-.06-.097-.133.144-.07.156-.336.066-.29l-.066.032a1.322 1.322 0 0 1-.422.129l-.258.031c-.29.063-.473.07-.422.035.047-.039-.047-.117-.227-.035l-.164.066-.164.032a.267.267 0 0 1-.226-.196c-.031-.105-.278-.09-.324-.062a2.235 2.235 0 0 1-.391.195l-.129.031-.129.067c-.21.008-.3-.094-.195-.23.105-.133.055-.29-.031-.227-.09.066-.332.05-.36-.063h-.16c-.117.008-.437.211-.52.063l.649-.422c-.156-.02-.727.023-.55-.293.081-.148.343-.305.519-.29h.062c.07.04.215-.163.324-.456l.196-.16c.164-.14.254.043.422 0 .12-.035.16-.188.261-.227zm32.598.68c.21-.035.504.02.617.129.106.101.047.176.063.293.02.117.05.133.132.226.083.102.153.254.29.293a.844.844 0 0 0 .261-.031c.153-.047.215-.129.39-.098l.196.032c.125.117.352.199.516.164l.23.097.196.098c.183.215.37.195.421-.035l.032-.227c.09-.484.797-.445 1.168-.39.172.027.297.043.39.195.098.164.075.191.258.195.188.004.461-.004.422.262v.098c-.078.152.023.265.23.257l.29.098c.007.129.14.176.261.098h.098c.242-.035.363.113.55.226l.067.067a.845.845 0 0 0 .227.097c.039.012.187.075.226.098.047.024.297.082.489.094l.062.262a.69.69 0 0 0 .164.355l.066.066c.083.086.176.254.227.356.047.101.242.387.258.426.039.066.082.132.133.191.035.04.175.168.226.23.047.06.153.297.063.454l-.032.129c-.074.168-.175.171-.324.226-.191.07-.277.137-.488.133h-.098a1.115 1.115 0 0 0-.55.098l-.165-.067-.19-.066c.03-.172-.083-.258-.263-.16-.18.097-.71.136-.715.097-.003-.043-.183-.031-.324.098l-.129.031c-.187.04-.109-.09-.226-.164-.25-.148-.356.258-.52.293h-.066a.547.547 0 0 0-.195 0l-.063.129c-.023.078-.152.152-.293.164h-.195a.321.321 0 0 0-.324 0l-.036.098c-.039.172-.113.246-.257.39-.2.188-.407.36-.649.485l-.133.066c-.168.05-.168-.121.035-.39l.098-.063.063-.098c.078-.195.078-.304-.032-.23l-.097.098c-.082.074-.309.257-.422.261-.242.012.031-.281-.227-.293-.175-.008-.238.082-.39.13-.14.05-.121.027-.196.163l-.16.324c-.37.133-.59.192-.52.13.071-.063.098-.255 0-.196l-.066.035c-.117.125-.351.309-.52.356-.105.03-.241.004-.355.03l-.097.036c-.145.016-.188-.055-.098-.164.09-.11-.23-.18-.52-.031l-.293.066c-.253.063-.539.211-.777.324-.226.106-.437.106-.683.13-.188.019-.36.077-.551.062-.094-.004-.434.008-.489-.094l-.097-.195c.289-.215.328-.328.097-.262l-.164.035c-.168.035-.28.176-.453.192-.144.011-.328-.106-.453-.16-.156-.07-.27-.02-.422.03l-.066.032a.989.989 0 0 0-.293.262l-.098.066c-.14.086-.164-.023-.289-.035-.18-.02-.277.164-.457.035l-.129-.098c.035-.105-.004-.218-.097-.261h-.262c-.176.078-.305.09-.29.03.016-.058-.07-.233-.23-.257l-.093.031c-.067 0-.192.004-.23.067l-.032.066c-.016.051-.02-.02-.031-.133l-.196-.129c-.14.012-.218.16-.195.325l-.129.164c-.078.113-.09.086-.195.129-.125.047-.117.023-.196.16-.105.187-.25.226-.421.097-.106-.078-.032-.109-.164-.097-.067.012-.172.09-.227.133l.39-.586-.128-.098c-.114-.14-.2-.457-.196-.715l.293-.289c.22.168.352.086.325-.195l.324-.035c.195-.02.355.07.55.066.114 0 .192.023.294.031.105.008.097.035.128-.097.032-.114-.058-.125.036-.227l.062-.062c.09 0 .086-.082 0-.196l.227-.133.132-.062c.168.004.313-.129.29-.293-.02-.164.152-.336.035-.39l-.067-.16c-.082-.223.145-.259.325-.325.148-.059.156-.102.261-.195l.098-.067a.605.605 0 0 0 .355-.097c.09-.063.243-.227.13-.293l-.196-.29c.184-.03.348-.124.36-.23l.062-.098.035-.03c-.117-.012-.23-.032-.36-.032-.253 0-.488.066-.745.062-.329-.003-.63.09-.942.165a.756.756 0 0 1-.324 0l-.129-.032c-.105.02-.078.137.062.258l.133.066.098.098c.125.086.133.152 0 .16-.137.008-.375.075-.36.098.016.023-.054.098-.097.098-.043 0-.055.074.035.097.09.024.363.14.387.164.043.02.086.032.133.032.023-.004-.223.046-.586.066h-.293c-.32.031-.617.145-.942.129-.234-.012-.472-.113-.715-.067l-.128.036c-.23.097-.391.254-.325.324.063.066.133.308.032.355l-.098.032c-.164.043-.149.02-.258.132-.117.122-.184.063-.324.098l-.133.031c-.086.082-.125.16-.098.196.032.03-.187.152-.55.195h-.258c-.172-.004-.29-.016-.457.031-.23.063-.45.067-.68.13-.262.073-.55.108-.812.163-.106.02-.25.055-.356.063h-.066c-.082.02.133.148.488.261l-.035.196v.293c-.336-.024-.75.011-.906.062h-.098c-.133.027-.07.063-.195 0l-.067-.031c-.078-.047-.101-.012-.031.062.074.079-.266.266-.648.23l-.36.032c-.12.004-.207.05-.324.067h-.164c-.059.074-.149.125-.192.097-.046-.031-.265-.191-.23-.262.04-.074-.09-.199-.191-.164-.102.04-.368.063-.36.036.008-.032-.148.105-.422.293l-.324.097-.195.063c-.387.05-.567-.008-.422-.13l.164-.097.098-.066c.12-.157.066-.25-.098-.227h-.066c-.211.059-.407.137-.618.195l-.586.165c-.527.062-.91.07-1.003.062.156-.05.472-.234.39-.227-.082.012-.215-.113-.133-.226a.501.501 0 0 1 .262-.164l-.066-.031c.258-.09.53-.211.812-.227.13-.008.203.055.324.063.133.007.254-.04.391-.063.145-.023.27.047.422 0 .129-.043.18-.148.293-.195.144-.067.285-.032.355-.227.04-.113-.004-.265.13-.293l.097-.031a.736.736 0 0 0 0-.262l.164-.129.129-.097c.137.078.297.062.324-.067l.098-.097c.16-.141.129.02.261.066.098.035.137-.027.227-.066l.195-.063c.09.098.254.024.356-.129l.195-.293c.277-.012.504.02.488.063-.02.047-.062.035.032-.032.093-.066.355-.007.355.067.004.07.059.18.195.062l.196.036c.129.015.164.09.293.03.113-.054.133-.218.258-.26l.132-.032c.106.086.207.027.227-.13l.293-.292c.152.113.328.125.387.066l.066-.035.098-.031c.105-.004.02-.191-.196-.422l.13-.293.163-.293c.352.031.63-.027.617-.129l.16-.031.231-.035c.27.117.606.16.746.097.137-.058.414 0 .52-.062h.226c.094.094.192.09.227 0l.031-.066c.067-.118.188-.172.067-.293-.083-.079-.204-.024-.227-.16l-.035-.13c.199-.136.39-.226.39-.195.004.028.055.028.164-.066l.063-.067a.63.63 0 0 1 .457-.093c.137.03.16.097.293.062.137-.039.246-.308.422-.258.101.024.121.168.226.196.184.043.336-.203.454-.293l.293-.227c.218.235.414.29.453.129l.132-.098c.145-.113.36-.023.52.032l.098.03a.415.415 0 0 0 .257 0c.036-.019.168-.073.227-.093.063-.02.25-.031.293-.035.043-.004.176.062.195.098.02.039.285.27.551.421l.129.067c.137-.094.309-.133.422-.098.09.028.129.133.23.16.063.024.227.012.29 0 .253-.023.398-.34.652-.355.113-.008.16.098.289.031.18-.09.11-.328.133-.484.023-.164 0-.32.195-.324h.258c.136.175.304.23.36.129.05-.098.523-.2.71-.196l.164.031.129.036c.168.05.3-.016.324-.133l.098-.063a.32.32 0 0 1 .164-.066zm-4.418 1.332a.398.398 0 0 0-.129.16c-.031.082-.016.113-.062.195l-.067.098a2.428 2.428 0 0 1-.262.129c-.02.012-.03.148-.03.195.003.051-.005.156 0 .227l-.032.066c.129.012.254.024.39.031h.063c.102-.03.043-.21-.062-.289-.106-.082-.043-.21.129-.261l.16.03c.144.032.21.06.359.036.223-.035.434-.062.648-.129l.098-.035c.016-.004-.008-.027 0-.031a1.225 1.225 0 0 0-.262-.067l-.191-.03a1.97 1.97 0 0 1-.684-.263zm-16.395.098l.262.097h.094c.078.133.191.176.262.098h.066l.16-.035c.074.133.164.222.196.195.035-.027.144.027.164.129l.093.066.164.067c.243-.137.407-.207.391-.164-.016.05.305.152.715.097l-.293.293c-.152.16-.54.094-.617.258-.059.125.02.254-.13.36-.175.12-.171-.07-.292-.13l-.262-.132c-.285.261-.437.418-.324.324.11-.09-.11-.293-.324-.16l-.196.16-.03.035c-.161.094-.27.145-.227.098.035-.055.035-.164-.13-.133l-.132.035a.156.156 0 0 1 .066.16v.164l-.324-.195c.059-.066.148-.066.227-.098l.03-.03a.353.353 0 0 0-.226-.067l-.226-.227c.113-.144.16-.226.097-.195-.066.031-.23-.102-.195-.293l.098-.063.129-.066c.129-.027.277-.098.324-.129.047-.035.238-.316.39-.52zm-13.93.941c.11.004.204.035.196.062-.008.032-.09.075-.098.098v.035c.012.047.075.04.098.032l.164-.067c-.09.14-.137.274-.098.293h.032c.054.012.058 0 .097-.031.059-.055.118-.13.196-.164h.031c.039 0 .07-.012.098-.031.007-.012.066-.063.097-.098l.032-.031a.3.3 0 0 1 .293 0l.035.03c.039.036.21.02.386-.03l-.03.129a.611.611 0 0 1-.099.195c-.027.031-.043.039-.03.098.023.109.265.14.355.16.054.011.078.035.129.035h.066c.078.012.094 0 .031-.035l.035-.032c.008-.027.075-.023.098-.03.04-.028.074-.075.129-.098.027-.012.094-.051.129-.036.027.016.031.024.066.036l.032.03c.074.016.19.005.257 0l.067.032h.031c.035.023.05.027.035.035l.063.063.097.035c.059.07.07.144.067.16-.004.016-.04.035-.067.035-.023 0 .008.059.098.094v.066c.004.047-.059.028-.063.067-.015.074.274 0 .325 0 .05-.004.12.062.16.097.074.055.047.13-.031.196-.04.03-.106.058-.098.129v.03c.035.02-.027.052-.129.067v.063c-.008.047.035.105.063.133.027.015.113.039.132.062.008.012 0 .055 0 .066-.004.09-.043.04-.097.063-.078.035-.098.09-.067.164.016.035.059.09.067.129.008.062-.059.058-.098.066-.121.024-.18.004-.164.13.008.05 0 .085 0 .128s.027.09.035.133c.004.039-.023.05 0 .098l.031.062c.036.05.082.094.13.129a.68.68 0 0 1 .195-.031c.105.015.183.117.293.129.09.011.175-.016.257.035.047.027.09.058.133.097l.063.032c.078.07.125.086.129.031l-.032-.063c-.02-.046-.035-.062-.066-.097v-.035c-.004-.02.059-.047.133-.063.07-.015.199.055.195.063 0 .007 0 .03.031.035.032.004.102.015.098.031a.068.068 0 0 0 .031.066c.031.012.035.122.031.13-.003.007.04.03.098.062h.035c.082.031.145.047.063.133-.055.058-.094.125 0 .195.07.05.18.035.262.063h.062c.074.023.148.066.164.066.016 0 .09.043.129.098l-.031.03-.032.067c-.062-.008-.093.02-.097.031-.004.012-.035.024-.035.032a.135.135 0 0 1-.032.035c-.011.004.016.078.067.16l.062.035c.047.016.098.028.133.063.04.043.043.156 0 .195-.047.04-.152-.016-.195-.031l-.067-.035c-.09.003-.109.109-.03.23l.03.031c.016.024.04.047.067.063l.031.035c.031.016.04.027.031.031-.004.004.012.012.035.031.02.024-.09.082-.293.067l.063.164c.016.031.098.074.133.098l.031.03c.063.04.031.118-.098.161l-.097.035c-.059 0-.059-.012-.098-.066-.039-.067-.11-.098-.195-.098a.252.252 0 0 0-.13.031c-.03.024-.015.055-.066.035-.058-.023-.218-.304-.289-.128-.02.043-.011.078-.035.128-.02.047-.011.063-.062.063-.043 0-.09-.004-.133 0-.043 0-.082.02-.129 0-.05-.02-.023-.047-.031-.098a.411.411 0 0 0-.067-.16c-.007-.015-.023.004-.03 0 .003.012-.024.028-.032.031-.008.008.023.063.031.067.008.004.008.05 0 .062-.008.02-.031.063 0 .098.035.04.129.168.067.23l.03.063c.005.004.09-.004.098 0 .051.012.11.035.16.035.063 0 .145-.035.196 0 .055.031.055.094.098.129.03.02.156.02.195.031h.031c.07.032.035.09-.098.13h-.128c-.165.007-.356-.036-.52-.063l-.16-.035c-.2-.055-.313-.028-.23.035l-.094.03c-.04.02-.09.005-.133 0h-.031a.183.183 0 0 0-.13 0c-.054.024-.14.02-.132 0 .012-.019-.106-.073-.227-.065l-.129.035c-.043.015-.086.058-.128.03l-.036-.03a.25.25 0 0 0-.093-.098.215.215 0 0 1-.067-.066l-.031-.032c-.05-.047-.11.02-.164 0-.067-.02-.027-.043-.067-.097-.039-.07-.082-.078-.16-.067-.117.02-.086.075-.066.164l.066.227c-.207-.184-.46-.332-.55-.324h-.067c-.066-.012-.125-.075-.195-.067-.098.012-.121.059-.16-.062-.02-.047-.07-.254 0-.262l.062-.129c-.035-.027-.281-.14-.195-.226l.066-.067c.117.035.262.051.324 0 .063-.043.145-.012.227-.066l.098.066c.05.031.05.106.066.164.031.114.067.121.16.032a.467.467 0 0 1 .133-.098l.063-.031c.02.03.074.035.128 0 .06-.04.184-.016.262-.133l.098.035.062.031c-.007.07.028.098.098.067h.066c.11 0 .235-.004.196.129-.024.085-.184.19-.032.195.055 0 .141.015.192 0 .062-.02.113-.063.164-.098.055-.039.043-.031.098 0h.03c.009.035.071 0 .134-.097l.093-.032a.184.184 0 0 1 .067 0 .077.077 0 0 0-.067-.035h-.03c-.052-.027-.052-.074-.063-.129-.04-.129-.137.059-.196-.066-.023-.047-.027-.113-.035-.16-.012-.07-.027-.121-.031-.196-.004-.066-.012-.175-.098-.16a.286.286 0 0 0-.097.031c-.036.02-.098.043-.13.063-.054.035-.058.148-.128.133a.111.111 0 0 1-.067-.035c-.039-.043-.074-.114-.097-.16-.02-.04-.02-.047-.067-.032h-.03c-.009.04-.044.063-.063.063a.118.118 0 0 0-.067.03c-.008.013-.05.04-.066.036-.016-.004-.121.043-.196.129l-.062.031c-.082.055-.14-.004-.195-.062l-.032-.035a.668.668 0 0 1-.066-.13c0-.007.008-.058 0-.128l-.031-.067-.035-.03c-.047 0-.051-.071 0-.13l-.098-.035c-.031-.008-.106.047-.129.035l-.031-.035c0-.02-.043 0-.098.035h-.066c-.055.016-.082-.07-.13-.097h-.03c-.04-.012-.075-.043-.098-.036l-.067.067c-.042.012-.09.031-.097.031h-.063c-.007 0-.027-.023-.035-.031-.008-.012-.062-.028-.129 0l-.066.031c-.05.04-.106 0-.16-.031l-.032-.031a.315.315 0 0 1-.132.03l-.063.032c-.043.023-.05.035-.098.035a.21.21 0 0 1-.097-.035c-.067-.023-.09-.02-.13.035-.023.031 0 .063-.034.098-.04.035-.14.043-.196.031-.05-.012-.07-.098-.128-.098-.047.004-.094.07-.13.098a.7.7 0 0 1-.163.098c-.106.035-.258-.016-.356-.067l-.164-.062c.133-.067.164-.156.066-.195l-.066-.067c-.047-.047-.047-.117-.129-.062l-.062.03c-.036.075-.133.056-.23-.03h-.063a.293.293 0 0 0-.164 0h-.063c-.098.011-.164.011-.164 0a1.288 1.288 0 0 0-.031-.098c-.012-.031-.07-.121-.098-.164l-.066-.031h-.031c-.06.015-.106.058-.13.062-.027.004-.12.016-.132.035a.857.857 0 0 1-.13.098h-.03c-.055-.031-.047-.152-.098-.164-.047-.008-.113.031-.164.031-.047 0-.086.028-.129.035-.047.008-.074-.05-.129-.035-.09.028-.16.113-.226.164-.04.024-.051.043-.098.032h-.098c.008-.079-.078-.083-.195 0h-.164c-.047.003-.031-.004-.098.035-.035.02-.152.136-.195.062-.024-.039 0-.148 0-.195 0-.07.015-.074-.031-.13-.043-.058-.082-.097-.16-.065-.083.035-.153.148-.165.23-.004.031-.004.066-.03.098-.044.035-.114-.008-.165 0-.133.011-.203.125-.324.16-.063.02-.133-.012-.195 0-.067.012-.04.066-.098.097a.287.287 0 0 1-.129 0l-.066-.03c.039-.079.007-.106-.032-.098h-.03c-.075.003-.106-.036-.165-.067-.039-.023-.082-.05-.129-.031-.043.02-.043.094-.098.098-.043 0-.105-.075-.128-.098-.063-.067-.047-.082 0-.164.015-.031.054-.09.03-.13l-.03-.03c-.063.011-.098.011-.098 0v-.098c0-.035-.102-.082-.227-.035l-.035.035c-.031.035-.074.121-.129.129-.07.012-.105-.117-.129-.164-.07-.125.07-.235-.03-.356-.013-.007-.028-.011-.036-.03-.008-.013 0-.052 0-.067v-.098c0-.023.016-.043 0-.062-.07-.079-.273.011-.355.03-.086.02-.22.075-.262-.03-.028-.067.008-.141-.098-.133a.397.397 0 0 0-.129.035l-.031.031c-.043.028-.07.043-.066.031.003-.007-.118-.027-.258 0l-.098.067c-.05.039-.039.058-.098.062-.043.008-.132.055-.164 0-.046-.074.125-.164.164-.191.02-.02.047-.04.032-.066v-.032c-.059-.004-.106-.023-.098-.035.008-.012.02-.062 0-.062-.016 0-.047-.024-.031-.036.015-.007-.035-.027-.164-.03l.066-.16c.024-.048.078-.071.129-.067.023.004.078.035.098.03.066-.007.023-.116.03-.16v-.066a.445.445 0 0 0 .196-.226l.067.031c.015.008.043.066.066.066.04 0 .078-.105.094-.128.027-.036.035-.079.066-.098.012-.004.063.008.067 0 .02-.024.015-.07.03-.098l.032-.066c.078-.016.129-.016.133 0 0 .015.039.05.062.031a.389.389 0 0 1 .13-.031.31.31 0 0 0 .163 0l.067-.067c.02-.023.058-.046.062-.062 0-.02.028-.063.035-.067a.311.311 0 0 0 .063-.03.383.383 0 0 1 .098-.032.845.845 0 0 0 .226-.098l.067-.066c.046-.04.07-.078.129-.098l.066-.031c.004.035.187-.008.39-.098l-.035.16c-.007.149-.406.083-.355.231v.063c-.012.039-.027.062-.066.066h-.032c-.039 0-.094-.04-.129-.031-.05.007-.105.074-.097.129v.062c.05.016.074.086.03.133h-.03c-.051.008-.11-.047-.164-.035-.032.008-.079.027-.063.066l.031.067c.086.023.094.054 0 .062l-.066.066a.408.408 0 0 0 0 .098v.031a.659.659 0 0 1 .195-.03c.012 0 .067.023.067.03 0 .008.027.02.097.032h.032c.058-.047.03-.16.129-.192a.24.24 0 0 1 .128 0c.04.004.07.028.098 0 .031-.031 0-.101.035-.133.028-.027.059-.004.098 0h.031c.031.012.09 0 .129-.03l.066-.067c.09-.078.188-.012.293-.032a.793.793 0 0 0 .192-.066l.035-.031c.035-.043.078-.09.062-.098-.007-.008-.015-.094.036-.129.05-.035.207-.054.293-.129l.062.032c.016 0 .024-.004.031 0l.036-.032c-.012-.047.023-.093.062-.097.04-.004.129-.035.164-.098l.066-.035c.06-.04.153-.008.227-.031.102-.036.188-.145.293-.16h.063c.093.05.148.081.128.097-.015.012.051.059.164.063h.098c.094-.008.149-.118.195-.196.04-.062.047-.062.13-.062h.066c.094-.012.16-.028.16 0-.004.023.07.082.129.062.137-.058.258-.148.36-.258l.066-.035.062-.062c.066.02.149.008.164-.031v-.036c.016-.09.047-.082.13-.097.042-.008.081-.031.128-.031h.066c.059-.012.082.003.063.03-.016.032-.004.067.066.036l.067-.035h.03c.056-.024.099-.04.099-.031 0 .007.078.011.164 0l.062-.032h.031a.547.547 0 0 1 .196 0h.066c.05-.023.129-.078.164-.097.031-.02.094-.012.094 0 0 .007.062.023.133 0l.062-.036h.035c.043-.003.106-.011.13 0h.03c.083.016.149-.02.227-.03zm10.391 3.57c.082 0 .282.051.325.13.05.097-.02.136-.063.23-.043.086-.023.07-.035.16l-.031.129c-.035.12-.012.25.066.261.074.012.235.168.227.196-.008.023.07-.016.226-.098l.196.129c-.02.105.07.102.195 0l.098.031c.125.032.234.246.257.36.04.175-.023.328.196.386l.16.035c.187.012.117.11-.16.196h-.196a1.518 1.518 0 0 1-.293-.098l-.062-.066c-.07-.047-.164-.121-.262-.032l-.129.13c.153.081.157.167 0 .195h-.164c-.09-.008-.203.011-.289 0l-.098-.032c-.074-.043-.144-.023-.164 0-.02.024-.058-.05-.03-.195l-.099-.066c-.148-.086-.375.289-.457.36-.07.054-.234.183-.289.03l-.035-.097c.11-.164.082-.227-.062-.164l-.164.035-.13.062c-.163.028-.245-.008-.195-.062.047-.059-.039-.086-.164 0-.125.082-.363.043-.355.031.008-.016-.14-.027-.293 0-.145.027-.379-.078-.324-.129.058-.055.164-.187.097-.195-.066-.008-.222.047-.226.062l-.098.067.098-.16c.219-.086.488-.188.582-.23.094-.04.402-.145.488-.259h.164c.121-.004.38.035.324-.164-.043-.144-.332-.27-.164-.453l.098-.129c.215.035.39-.008.39-.097l.098-.098c.106-.117.184-.059.293-.098.192-.07.192-.293.453-.293zm-6.558 1.657c.008.015.031.043.031.066h.035c.031.012.07.008.098 0-.012-.016-.012-.023-.035-.035l-.063-.031c-.031-.012-.047.003-.066 0zm-14.903.03c.047 0 .102.009.098.067v.031c-.035.036-.016.059.067.067l.062.031c.05.047-.012.086-.031.129-.016.031-.043.098-.031.133v.031a.207.207 0 0 0 .128.066h.063c.031-.015.082-.058.098-.066.023-.012.046-.023.066-.031l.031.062v.035c-.004.04.004.063.035.063a.51.51 0 0 1 .13.035c.011.004.062-.02.097-.035a.672.672 0 0 0 .129-.129.453.453 0 0 1 .226-.098l.067.032.195.066c-.137.098-.23.191-.195.195.035.004.133.012.129.032-.004.02.05.074.129.066h.035c.05-.02.101-.098.16-.098h.098c.16-.011.304.016.324.063v.035c.027.031.055.059.066.098.016.05-.011.035.067.062.027.008.144.04.16.067.047.086-.137.195.031.226.145.027.258-.062.39-.062.048 0 .098.03.13.062.03.027.05.035.066.067.027.035.047.007.066.062.024.09-.109.137-.164.164l-.066.031-.031.036a.286.286 0 0 0-.098.03v.032c-.008.027-.035.066-.031.098v.03c.027.04-.02.122-.13.165l-.066.066c-.074.082-.187.082-.293.063-.042-.008-.113-.04-.16-.031a.408.408 0 0 0-.097.03 2.32 2.32 0 0 1-.262.13h-.031c-.086 0-.164.012-.164 0v-.063c0-.008-.028-.027-.032-.03-.003 0 0-.024 0-.036 0-.012-.171.02-.355.066H5.52c-.122.028-.278-.023-.391.032-.063.03-.07.058-.16.066h-.035a.715.715 0 0 0-.258 0h-.031c-.075.023-.157.039-.23 0-.056-.035-.095-.082-.161-.098a.387.387 0 0 0-.164 0c-.063.016-.106.07-.16.098-.063.023-.137-.004-.196 0H3.57c-.199.004-.355.012-.355 0s-.008-.04-.031-.035c-.028.008-.055-.024-.036-.063v-.03c.032-.071-.003-.099-.062-.099-.04 0-.172.036-.195 0v-.035c.007-.027-.055-.047-.133-.031h-.094l-.035-.031c-.067-.035-.149-.051-.16-.067l-.067-.066c-.011-.004.032-.047.098-.094l.031-.066c.043-.082-.219-.153-.258-.196-.105-.109.04-.207.13-.257.07-.043.163-.082.195-.164.015-.043.011-.059 0-.098l-.032-.098a.213.213 0 0 0 .098-.195l.063-.031c.027-.024.062-.067.097-.067h.031c.028.032.051-.047.067-.16l.066-.066c.032-.028.125-.04.16 0l.036.031c-.016.055.046.008.128-.098h.098l.13-.03a.2.2 0 0 0 .257.066l.066-.067c.078-.082.145-.129.262-.129.129 0 .227-.066.355-.066zm7.176.88c.09.015.18.023.196.03.015.009.011.06 0 .067-.016.008.007.051.03.063a.213.213 0 0 1 .067.066c.004.012-.02.051-.035.067-.012.011-.004.09.035.129h.031c.047.02.114.046.165.062.046.02.062.031.097 0s.106-.121.16-.062c.032.03.02.105.067.128l.031.032c.063-.008.129-.04.129-.032s.043-.02.098-.097l.03-.031h.067c.024.05.074-.004.098-.13l.066-.035c.051-.03.168-.007.227 0 .09.008.18.004.258.036.058.02.093.02.132.062.032.047.04.059.098.067.05.007.074.02.129.03h.063c.074-.01.16 0 .195.032.039.035.18.016.195 0 .016-.012.07-.043.098-.031.027.012.113.055.129.066.011.012.082-.035.133-.097l.03-.036.032-.062c.094.023.195.035.293.031h.129c.07-.012.16-.133.195-.258l.13.032h.066c.18.003.304.023.257.066-.047.04-.035.117 0 .098.04-.024.13.054.164.16l.13-.031c.05-.012.062-.04.097-.067.043-.031.047-.047.098-.062.078-.024.152.004.226 0h.098c.098-.028.203.004.226.062l.067.031a.31.31 0 0 0 .226.036c.09-.016.098-.043.164.03l.032.067c.047.106-.02.192-.16.196l-.133.03c-.067.032-.032.095-.098.13-.086.05-.187.113-.289.129h-.098a.712.712 0 0 0-.195-.063.265.265 0 0 0-.098.063h-.03c-.09.039-.095-.094-.165-.13-.113-.062-.215.044-.262.13l-.03.035c-.02.074-.052.14-.063.129-.02-.008-.051-.024-.036 0v.066c-.039-.012.008-.016.13 0l.097.031c.063.024.082.098.164.098h.066c.063-.04.122-.043.13-.035.007.012.062.027.097.035h.031c.059.008.106.059.164.062.07.004.153-.05.227-.03h.031c.035.073.043.152 0 .163-.043.008-.074.106-.16.13h-.098c-.09.003-.136.054-.23.066-.063.003-.133.027-.192.03h-.066a1.225 1.225 0 0 1-.293 0c-.062-.01-.125.095-.226.063l-.067.035c-.031.008-.043.043-.062.063-.024.027-.036.031-.067.035-.027.004-.105.035-.129.031-.043-.007-.066-.078-.097-.097-.168-.094-.246.101-.391.129-.035.007-.059 0-.098 0-.039.004-.09.058-.129.035-.023-.016-.043-.078-.066-.098-.039-.039-.117-.008-.16 0-.086.016-.117.074-.195.098a.577.577 0 0 1-.164 0h-.032c-.054-.016-.113-.035-.129-.035a.903.903 0 0 1-.226-.098l-.067.035c-.03.016-.03.05-.066.063a.293.293 0 0 1-.098.035c-.043.008-.09.012-.129.031a.298.298 0 0 1-.128.031c-.036 0-.06-.008-.098 0-.05.012-.086.047-.129.067-.117.05-.238-.008-.36 0-.07.008-.124.035-.19.066-.052.02-.118-.015-.165 0-.125.035-.23.067-.355.031-.067-.02-.13-.062-.196-.066h-.035c-.047 0-.043-.035 0-.098l-.097-.03h-.098a.453.453 0 0 0-.324-.067l-.196.066c-.125.008-.234-.004-.257 0-.028.004-.114-.008-.13-.031h-.035c-.043-.028-.152.023-.19.031h-.036c-.066-.008-.129-.02-.129-.031 0-.008-.04-.043-.098-.035l-.066.035c-.063.012-.133-.004-.191 0-.067.004-.075.039-.133.062a.53.53 0 0 1-.29.035.74.74 0 0 0-.292 0c-.067.008-.133.028-.196.032-.058.004-.109-.028-.164 0-.047.023-.07.058-.129.066-.043-.008-.09-.015-.129-.035h-.035a.306.306 0 0 0-.062-.129c-.012-.008-.05-.02-.067-.031a.551.551 0 0 0-.195-.067l-.098.032c-.046.007-.125.004-.16-.032v-.03c-.023-.013.047-.04.196-.099.144-.062.21-.195.16-.195H8.02c-.043-.031-.047-.055-.067-.097-.02-.055-.004-.063-.062-.067h-.036c-.054-.008-.062-.055 0-.129l.067-.031h.031c.04 0 .09.004.098 0 .004 0 .015-.027.035-.035v.097c.035-.023.117-.082.16-.128l.031-.063c.036-.062.016-.144.098-.098.082.043.129.149.23.098l.032-.035.066-.063c.004-.007.024-.003.031 0 .004.008.055 0 .063 0 .012 0 .02-.054.035-.097l.031-.035v-.032c.008-.027 0-.047 0-.066 0-.016.04-.059.067-.063a.266.266 0 0 0 .16-.097l.035-.031c.043-.067.078-.11.16-.133.059-.012.16-.012.164.066.004.063-.105.098-.066.164.035.055.152.012.195 0 .067-.015.074-.02.098.031l.066.13c.106-.106.176-.258.16-.325v-.031c.036-.074.082-.055.13-.067.046-.011.093-.128.132-.164.055-.046.125-.023.16.036v.062a.408.408 0 0 1 0 .098h.031c.02.023.141 0 .165 0 .07-.004.05-.02.097-.063l.067-.066c.05.031.09.027.093-.031l.036-.067c.039-.074.124-.058.195-.031l.062.031c.106.02.192.012.196 0 .007-.012.066-.058.097-.098l.032-.03c.054-.063.136-.114.195-.165zm-6.949 2.336a.14.14 0 0 1 .098 0c.05.015.062.086.097.097l.067.032c.093 0 .203.007.226 0 .02-.008.094-.004.098.035.004.039.215.023.39-.098l.032.16c.02.07-.035.11.062.098.102-.012.184-.05.293-.031.055.007.082.02.133.03.07.02.09-.01.16-.03.055-.012.211-.028.262 0h.031c-.008.043.04.097.098.097h.031c.024.004.074-.004.098 0 .039 0 .066.024.066.067v.03c0 .017.012.02.031.032.02.016.098-.008.13-.031.035-.02.132.078.132.16l.031.035c.063.063.145-.012.227 0l.129.031c.156-.007.32 0 .36.032l.062.035h.035a.353.353 0 0 1-.035.098l-.453.453c-.07-.012-.125.007-.196 0l-.097-.032a.454.454 0 0 0-.16-.035c-.012.008-.075.07-.133.098H6.98l-.128.035c.02-.082-.059-.148-.165-.133-.105.024-.125-.105-.16-.097-.039.011-.125-.043-.132-.063-.008-.016-.04-.062-.063-.066a.858.858 0 0 0-.227.03l-.097.036c-.125.031-.09-.008-.164-.098-.051-.062-.094-.023-.16.032l-.036.03c-.03.052-.062.083-.062.099 0 .02-.016.058-.035.066a.774.774 0 0 1-.16.031c-.047.004-.141.067-.098.098l-.035.066-.031.098c-.196.004-.332.023-.325.031.008.008-.074.078-.195.13-.121.054-.36.054-.422.132h-.16c-.023-.066-.14-.102-.262-.066l-.129-.032h-.066c-.035-.015-.066-.043-.098-.066a.191.191 0 0 0-.16 0h-.066c-.13-.004-.09-.11-.13-.195-.05-.098-.105-.094-.194-.063a.98.98 0 0 1-.262.031h-.063a.603.603 0 0 1-.164-.066.252.252 0 0 0-.129-.031c-.03.004-.117-.067-.129-.098v-.031c-.015-.051-.003-.114 0-.164.008-.094.043-.153.13-.196l.128-.03c.145-.04.262-.087.262-.099-.004-.011-.047-.082-.066-.128l.164-.165c.152-.015.316-.058.324-.097.008-.035.086-.098.098-.098.011 0 .07 0 .097-.031.027-.031.11-.11.13-.129a.416.416 0 0 1 .097-.035c.011 0 .082.015.129 0 .05-.012.175.02.164.035-.012.02.097.059.195.031h.063c.07.02.015.094.066.13.043.038.121-.013.16-.032a.68.68 0 0 0 .195-.129.393.393 0 0 1 .098-.066zm9.156.39c.106.004.063.102.13.13l.034.03a.96.96 0 0 1 .196-.062h.16c.094-.043.219-.008.293.098h.293c.113.015.222.046.226.062.004.02.02.063.032.066.011.008.007.098-.032.196l-.03.031c-.04.016-.067-.012-.099 0-.05.016-.066.059-.097.098a.23.23 0 0 1-.098.066.71.71 0 0 1-.129 0c-.066-.016-.074-.101-.133-.129-.066-.043-.132.059-.195.063-.066.004-.121-.082-.191-.063-.055.008-.07.055-.098.094-.066.082-.172.121-.262.164l-.16.098c-.23.054-.36.035-.262-.032.098-.07.043-.152-.066-.097-.11.05-.387.011-.387 0 0-.008-.035-.035-.066-.035-.027 0-.117.007-.098 0 .02-.004-.011-.008-.097.035l-.063.031h-.035a.887.887 0 0 0-.195.066l-.063.032c-.11.03-.21.054-.324.066h-.067c-.117.012-.113 0 0-.035l.098-.031c.047-.024.18-.168.129-.227-.035-.05-.246.05-.293.063-.117.027-.238.062-.355.066-.09 0-.176-.02-.262-.031-.055-.008-.113-.04-.16-.035h-.098a1.464 1.464 0 0 1-.262 0c.012-.004.016-.028.036-.032l.097-.03c.074-.032.098-.106.13-.165-.063.004-.095.02-.165.035l-.16.031a.738.738 0 0 0 .129-.195c-.008-.004-.024-.05 0-.066.023-.016.11-.055.129-.063a.408.408 0 0 1 .097 0c.012.004.18-.066.325-.164l.132.098c.043.027.04.05.098.066.09.028.184-.082.258-.066.039.008.031.047.066.066l.031.031c.036.016.114 0 .165-.03l.03-.036c.044-.055.036-.094.098-.129a.843.843 0 0 1 .227-.062h.031a.189.189 0 0 0 .196.03h.066l.098.063c-.004.079.007.114.03.098.024-.008.083.027.067.066-.011.036.055.082.098.067h.031l.031-.035c.043-.035.086-.02.098.035h.031c.075-.012.008-.164 0-.195v-.098c.055-.024.141-.027.196-.031h.066c.043.004.09.03.129.03.078 0 .117-.097.195-.097zm36.266.422c.055.082.266.098.457.031l.129.098c.074.043.07.164.195.164.067 0 .113-.066.195-.066.083 0 .168.11.258.129.102.027.059.035.13-.032l.23-.195c.27.008.476.063.453.098-.028.035.074.129.324.129l.195.164c.055.062.055.113.098.16.035.043.117.101.16.133.211.148.402.218.652.293l.063.03c.39.126.48.2.195.196l-.258.031c-.085.004-.152.028-.23.032h-.098c-.082-.024-.043-.004.067.035.105.035.05.187-.098.195h-.129a2.24 2.24 0 0 1-.36-.035c-.273-.043-.534-.031-.808-.031-.12 0-.242-.004-.36 0-.109.004-.214.054-.323.066h-.293c-.309.016-.403.113-.196.192h.098l.195.066c.22.074.207.144-.03.164h-.356c-.332.043-.606.086-.586.098.02.007.011.066-.032.093-.05.032-.14.102-.066.133.074.031.105.098 0 .098-.11 0-.258.176-.227.195.028.02.008.094-.097.13l.031.128c.04.129.219.227.324.293.067.043.188.059.227.129l.066.098c-.047.128-.222.242-.355.226l-.035.031c-.079.063-.2.114-.29.164-.081.043-.097.055-.195.032a1.578 1.578 0 0 0-.36-.032c-.198.004-.398-.027-.581-.097-.125-.047-.278-.07-.39 0-.04.023-.067.062-.098.097-.079.086-.133.106-.262.098-.09-.008-.145-.059-.227-.066-.097-.008-.258.07-.355.097a.946.946 0 0 1-.39.035h-.13c-.183-.05-.258-.171-.164-.261.098-.09.328-.29.262-.293h-.066c-.114.02-.208.066-.325.066-.058 0-.129.012-.195 0-.078-.015-.145-.082-.227-.097-.097-.024-.168.011-.257.03-.2.048-.418-.015-.618-.03a6.505 6.505 0 0 0-.617 0h-.066c-.207.02-.23-.012-.067-.067l.164-.062.067-.067c.117-.074.113-.11-.035-.097h-.098c-.215.039-.43.058-.648.066a4.653 4.653 0 0 0-.618.062h-.062c-.094.012-.148-.015-.098-.062h-.035c-.078.016-.176.004-.258 0-.164-.004-.32-.023-.488-.035a4.038 4.038 0 0 1-.777-.13 9.769 9.769 0 0 0-.586-.128c-.137-.027-.282-.047-.422-.066-.164-.016-.328-.059-.488-.063h-.032c-.035 0 .028-.113.164-.262l.13-.129.062-.03c.07-.048.168-.102.195-.098.035.003.16-.032.23-.165l.13-.097.097-.031c.106-.008.195-.036.227-.032a.535.535 0 0 0 .324-.132l.164-.032.191-.031c.098.172.2.27.23.227l.063-.032c.07-.058.118-.02.164-.097.047-.102-.011-.235.063-.325l.098-.097c.132.074.25.09.261.031.008-.055.157-.16.196-.164a.896.896 0 0 1 .195.035c.027.012.102.024.129 0a2.56 2.56 0 0 1 .258-.195h.23c.156.094.375.18.484.195h.098c.106-.004.117-.055.164-.133.055-.097.133-.254.227-.324l.16-.129c.168.106.332.09.36-.031l.097-.066c.117-.086.258-.043.39-.063.133-.023.25-.125.387-.098l.164.032c.102.14.262.246.356.226.094-.02.125.074.164 0l.062-.031.098-.129c.11.055.234.09.262.063l.16-.16c.062-.055.129-.094.195-.133.051-.02.184.03.227-.032a.551.551 0 0 1 .262-.129c.03.004.16.032.226.032l.129-.032.195-.097c.196.078.399.144.457.16h.063c.097-.012.144-.078.262-.063.175.028.312.317.484.098.07-.086.05-.168.164-.226zm-7.14 3.215c.046-.05.081-.066 0-.035zm15.714-2.957l.129.035c.09.176.367.29.582.258l.098.164.066.062c.035.09.086.176.098.196.011.02.078.164.097.226v.035c.043.125.137.231.258.293l.133.063c.055-.078.191-.133.324-.098l.063.067.097.066c.004.074.09.078.164 0l.16.063.098.066c.075.125.332.246.586.258l.16.098c.114.09 0 .207.067.324.094.18.285.304.453.39l.098.032c.058.12-.024.21-.16.195-.145-.016-.387.191-.325.293v.066c0 .075.028.04-.066.063l-.16.035c-.164.008-.262.02-.23.031.03.008-.048.133-.259.195h-.097c-.153.024-.227.168-.36.227-.058.023-.132.012-.191 0-.148-.027-.305-.102-.457-.129l-.324-.066c-.383-.016-.649-.04-.582-.032.058.008-.04.122-.262.16l-.164-.128-.063-.067c-.066-.062-.132-.132-.164-.16-.03-.023-.074-.125-.03-.164.038-.039.019-.183-.099-.226h-.097c-.192-.04-.39-.051-.586-.032-.086.016-.133.063-.227.063h-.097c-.118 0-.22-.004-.192 0 .024.012.176.12.29.195l.261.067c.11.093-.172.214-.648.257l-.098-.03c-.215-.04-.41-.017-.617-.099h-.067a2.2 2.2 0 0 0 .325.13l-.16.163c-.137.125-.38.149-.555.13h-.098c-.129-.063-.23-.09-.191-.063.035.027-.063.172-.133.195h-.063c-.136.02-.265.05-.39.094l-.262.066c-.356 0-.648-.066-.613-.16l-.035-.066c-.036-.09-.184-.094-.258-.098-.086-.004-.176.023-.262 0-.078-.02-.121-.098-.195-.129a.697.697 0 0 0-.387-.066l-.262.066c.156.203.219.36.13.356h-.063c-.266-.063-.575-.004-.813-.13a.867.867 0 0 0-.324-.097l-.164-.031c.09-.102.027-.168-.13-.164l-.128-.067-.098-.093c.106-.082-.004-.09-.226-.036v-.226l-.035-.195c.242.039.386.023.324-.032l.066-.164c.075-.191.266-.191.422-.258.098-.043.082-.003.13-.128.062-.168.015-.31.194-.391.133-.059.258-.027.391-.031.145-.012.234-.114.39-.067l.063.032.195.128.13-.03.195-.032c.004.164.074.203.132.098h.063c.125-.004.11.164.227.16.074-.004.16-.153.23-.196l.063-.062c.109.012.257-.04.324-.129l.066-.066c.09-.067.262-.012.324.066l.032.063c.023.058.07.117.097.128.032.016.086.114.098.164.012.047.18.004.226-.097l.098-.067c.098-.043.281.028.324-.093.059-.149-.152-.32 0-.457l.133-.098c.113.086.227.082.258 0l.066-.063c.125-.132.153-.046.293-.035.196.02.23-.36.325-.484.043-.066.066-.035.128-.066.098-.06.094-.153.13-.262.046-.137.054-.27.226-.192l.098.032c.105.093.187.105.195 0l.066-.098c.137-.164.297.063.453 0 .192-.074.332-.184.555-.164zm-22.437 1.656l.359.23.129.094c-.082.125-.102.27-.031.329l.062.03.098.16c-.043.083.02.15.164.165l.098.098c.125.16-.012.172-.133.226-.153.07-.207.168-.387.164h-.133c-.058-.062-.137-.133-.16-.164a.433.433 0 0 0-.129-.097c-.035-.004-.2.027-.293.03h-.066l-.16.067c-.149.086-.207.113-.133.067.078-.051-.153-.184-.485-.036l-.293.133c-.14.051-.238-.004-.164-.164l.036-.129a.264.264 0 0 0 .062-.36l.066-.128a.275.275 0 0 1 .16-.129c.122-.023.157.078.231.129.18.133.285-.117.422-.227l.227-.195c.042.18.25.05.453-.293zm-27.371.422c.039 0 .07.008.097.035l.067.031c-.04.04-.043.094 0 .098.043.004.113.102.164.098h.062c.059-.024.106-.121.164-.13.047-.007.086.052.13.063l.097.036c.105-.028.191-.075.195-.067.004.008.094 0 .195-.066l.098.066c.113.082.133.031.227-.031a.798.798 0 0 1 .257-.098c.036-.008.122-.047.165-.035.046.02.027.07.062.098l.035.035c.04.012.004.02-.098.031-.101.008-.16.113-.128.129.027.016.082.117.16.129l.031.035c.055.004.078-.02.133-.035h.031c.05.012.121.023.164.035h.094c.05 0 .012.074-.063.16h-.097c-.082.016-.16.035-.227 0h-.035l-.16-.031c-.024-.008-.078-.031-.098-.031-.02 0-.113.004-.129 0a.513.513 0 0 0-.066-.035c-.016-.004-.121-.02-.195-.032h-.098c-.09 0-.168-.004-.258 0-.066.004-.07-.015-.129-.03-.078-.02-.183-.005-.262 0-.07.003-.125.026-.195.03-.055.004-.137 0-.195 0-.164 0-.293.063-.453.067-.059 0-.164.035-.196-.035l-.03-.063c.015-.055-.106-.09-.294-.098l-.031-.03c-.14-.036-.25-.165-.066-.231.144-.047.277.011.421 0 .051-.004.114-.035.164-.032.043.004.051.012.098 0 .067-.015.125-.062.192-.066zm13.574.195c.078-.043.207-.015.258.067l.03.066c-.03.086-.042.16-.03.16.011 0 .023.043.03.098.013.055.165.121.263.031.097-.09.328.016.617-.129l.16.164c.05.043.058.098.035.16-.008.024.008.044 0 .067l-.035.031c.023.016.035.07.035.13-.004.062.043.26-.066.456.027.004.062.02.066.031.008.016.121-.02.195-.097.07-.078.262-.117.356-.293l.195.097c.098.043.117.036.164-.062s.082-.129.192-.133c.09-.004.21.008.293-.031.078-.035.097-.133.195-.129.129.004.183.14.226.227.04.066.024.066.098.066.102-.004.227.016.324-.035.082-.04.102-.133.164-.196.098-.097.274.063.391-.03.047-.04.078-.184.16-.16h.067c.078.05.171.089.195.062.02-.028.11-.141.16-.196l.066-.062.098-.067c.102.102.207.172.227.164.02-.011.125-.082.195-.132l.062-.032a.454.454 0 0 1 .293.067l.067.062a.535.535 0 0 0 .16.133c.031.008.121-.004.164 0 .11.047.2.125.258.227.05.097.246.168.262.16.015-.008.043-.028.066-.031.055.003.11.011.16.03.043.016.172-.07.195-.128l.067-.067a.323.323 0 0 1 .226 0c.063.036.211.079.227.036l.031-.036a.252.252 0 0 1 .196-.062h.066c.055.039.117.102.129.098.015-.004.086-.059.129-.067.05-.012.25.024.36.067l.062.097c.047.043.129.149.195.16.055.008.145-.027.195-.03.094-.009.2-.048.293-.032.051.008.145.062.196.062.054 0 .082-.039.128-.062a.682.682 0 0 1 .262-.066c.082-.004.203-.024.29 0 .042.011.085.062.132.066.055.004.094-.04.16-.035l.227.035c.129.18.254.254.293.191h.164c.027.04.09-.02.16-.093l.195.093c-.008.078.145.168.325.196l.128.164c.067.07.114.117.164.195.04.055.036.059.098.063.098.007.137-.024.227.035l.066.062c.024.117.074.219.098.23.015.008.05-.027.062-.035l.098-.062c.02-.016.105-.027.129-.035a.577.577 0 0 1 .164 0 .334.334 0 0 0 .164-.031.253.253 0 0 1 .062-.067l.036-.031a.774.774 0 0 1 .16-.031h.031c.043.004.082.035.098.097l.035.063c.015.082.105.055.129.133l.031.129c-.098.011-.172.02-.16.03.012.013.066.09.097.165l.063.129.098.097c.011.012.066.075.066.13v.066l.063.062c.101.051.273.2.39.324l.067.067a.535.535 0 0 1 .16.164c.031.039.09.129.133.16.07.055.175 0 .257 0 .137.004.2.102.293.195l.032.032c.027.054.074.09.066.097-.004.012-.04.047-.035.067.008.015.074.172.133.293l.062.097c.035.051.004.043.067.063.16.055.445.082.52.262.019.046-.005.035.03.062.035.031.125.016.164.035.094.04.164.117.227.196l.031.062c.031.05-.023.063-.129.035h-.031c-.16.031-.27.16-.422.192-.2.039-.39.086-.586.132l-.129.032c-.195.027-.363.015-.36 0 .005-.016-.116-.07-.257-.098h-.129c-.094.004-.168.02-.261.031h-.032c-.062-.011-.113-.047-.097-.062.015-.016-.075-.055-.196-.035l-.097.035a7.98 7.98 0 0 1-.52.16c-.164.05-.316.062-.488.098l-.13.03c-.148.02-.194-.01-.097-.062.098-.054.07-.293-.031-.261l-.098.066c-.105.047-.215.066-.324.098l-.129.03c-.156.009-.27-.03-.226-.097l.03-.031.063-.031c.067-.106.024-.164-.093-.133l-.098.035c-.145.066-.273.14-.422.195-.164.055-.355.028-.52.063-.261.062-.519.125-.78.195-.321.086-.657.121-.973.227-.211.074-.434.05-.653.097h-.093c-.172.016-.29.008-.23-.03l.066-.032h.066c.043-.047.012-.078-.066-.066a1.13 1.13 0 0 1-.325-.032.292.292 0 0 1-.097-.097c0-.012-.032-.051-.098-.067-.066-.015-.207-.117-.195-.129.011-.011-.004-.027-.063-.03-.062-.005-.16-.075-.097-.099.058-.027-.063-.101-.23-.097l-.161-.035c-.09-.016-.129-.043-.227-.032-.117.012-.246 0-.359.032a.686.686 0 0 1-.355 0 .797.797 0 0 0-.36 0c-.105.027-.187.097-.289.132-.137.04-.281.047-.422.063l-.133.035c-.152.008-.234.012-.195 0 .043-.016.023-.137 0-.133-.02 0-.176.051-.289.067h-.098a6.825 6.825 0 0 1-.488.03c-.11.005-.18 0-.164-.128v-.066c.027-.114-.012-.184-.098-.16-.082.023-.261-.067-.191-.13.066-.066-.004-.234-.133-.195l-.098.031c-.187.114-.41.184-.613.262-.222.078-.437.145-.652.227l-.13.031c-.17.023-.269.02-.226-.031l.098-.098c.09-.101.082-.164 0-.129-.082.031-.348.09-.39.094l-.196.035c-.016.004-.047-.043-.031-.066.015-.024-.13-.106-.293-.098l-.129-.062c-.05-.028-.074-.028-.129-.036a1.154 1.154 0 0 0-.328 0c-.11.016-.219.032-.324.036-.09 0-.172.011-.258.03-.067.013-.125.028-.195.032h-.067c-.11-.02-.168-.02-.16-.031.012-.012-.152-.059-.36-.031l-.195.03-.129.032a.68.68 0 0 1-.128-.195c-.008-.028-.176-.098-.293-.098l-.098.035c-.05.008-.11.02-.16.031h-.035a3.853 3.853 0 0 1-.29.067l-.035-.067c-.062-.046-.074-.164-.129-.226-.07-.086-.218-.059-.257-.164l-.067-.13c.14-.034.207-.093.16-.128l.036-.066c.007-.047.027-.063.062-.098l.035-.063c.059-.039.121-.078.13-.097a.47.47 0 0 1 .066-.133c.023-.031.18-.082.226-.098.047-.011.192-.074.227-.093.039-.028.129.003.129.03 0 .032.062.087.097.063.035-.02.11-.078.13-.093a.465.465 0 0 1 .194-.067l.165.16c.101-.074.21-.136.226-.129.04.02.086.036.129.036.047-.012.09-.02.129-.036a.933.933 0 0 1 .23-.062h.063l.066-.035c.055-.07.114-.117.098-.13-.016-.01-.164-.062-.262-.097l-.031-.066-.031-.094c.133-.055.254-.105.258-.098.003.008.062-.02.128-.097l.196-.067c.082.02.144-.007.164-.097l.097-.098c.047-.012.125-.035.196-.031h.031c.055-.043-.012-.133 0-.196v-.097h.164c-.012.004.02-.04.063-.098a.437.437 0 0 1 .164-.098c.015 0 .105.008.129 0h.03l.134-.062c.16-.027.21-.07.128-.098h-.035l-.062.032c-.035.03-.05.015-.067-.032a.337.337 0 0 1 .036-.195.733.733 0 0 1 .226-.164h.063c.097-.027.136-.176.23-.227h-.066a.737.737 0 0 0-.227.098c-.086.05-.18.121-.262.164-.093.047-.195.082-.293.129-.136.066-.238.2-.386.227-.086.015-.274.035-.324-.032l-.067-.097c.04-.067-.02-.137-.129-.133l-.097.035c-.122.04-.204.04-.325.063-.117.027-.238.039-.359.035h-.098c-.11.015-.129 0-.03-.035.097-.028.198-.165.097-.16-.102.003-.348.05-.39.062a.858.858 0 0 1-.227.035c-.047.004-.149.016-.13 0 .02-.016-.109-.082-.292-.098l-.164-.03c-.2-.044.03-.114.066-.231l.031-.063a.808.808 0 0 0 .227-.262c.05-.09.226-.109.23-.097.004.012.075.012.16-.031.09-.04.254-.008.36-.098h.16c.07-.004.2.023.262 0 .09-.035.09-.078.129-.164a.917.917 0 0 1 .324-.356c.05-.027.164-.129.226-.097l.067.03c.012.063.101-.01.195-.16zM3.797 28.703c.062-.008.234-.008.293.031.05.032.027.082 0 .13-.04.09-.125.077-.195.128l-.032.035c-.011.047.094.102.196.098l.066-.035h.098c-.008.05.058.074.16.066l.129-.066c.07-.016.097-.012.097 0s.086.035.164 0c.079-.031.329-.067.356-.063.031 0 .105.075.098.098.007.004.003.008.03 0 .06-.02.231.02.231.031 0 .008.055.02.16 0 .106-.02.278.082.262.098-.015.016.024.058.098.062.07 0 .281.047.324.067.04.02.211.082.293.097.078.016.082.153.063.165.007.011-.004.05-.032.062-.035.016-.035.07.032.066.07-.003.117.079.097.098-.02.016-.023.098 0 .098.024 0-.012.09-.129.129l-.129-.032c-.062-.011-.136-.054-.195-.066-.113-.02-.148.121-.262.129-.133.008-.062-.125-.129-.195l-.097-.098c-.14.074-.258.121-.258.098.004-.02-.113-.07-.23-.063l-.192.063c-.082.132-.2.265-.262.293-.062.027-.246-.059-.39.03l-.13.067-.03.031c-.106.016-.172-.007-.13-.062l.063-.066c.063-.082.082-.141.031-.13l-.03.032a3.584 3.584 0 0 1-.259.164.783.783 0 0 1-.324.098h-.098c-.097.011-.125-.004-.066-.036.059-.027.02-.109-.098-.062l-.097.031-.067.031c-.148.02-.16-.015-.03-.097l.066-.13c.09-.218-.258-.062-.325-.03l-.23.097c-.274.024-.465.024-.422 0 .047-.023-.008-.11-.16-.097H1.98a.563.563 0 0 1-.324-.164H1.59c-.09-.012-.082-.012-.13-.098l-.03-.031c-.035-.043-.043-.09-.035-.098l.164-.293h-.032c-.054.027-.082.04-.066 0 .016-.035.187-.191.293-.289l.129-.035.195-.031c-.008.144.047.171.164.066l.13.031H2.5c.016-.011.04-.004.066-.031l.098-.035h.063a.176.176 0 0 1 .097.066c.012.024.035-.015.098-.097l.066-.032c.078-.035.098.008.16 0 .106-.011.243-.144.325-.195a.71.71 0 0 1 .324-.129zm52.762.942c.129.035.246.234.226.257-.027.032.028.215.227.391h.164c.222-.023.394-.2.617 0l.129.129c-.067.086.183.23.55.324l.231.098c.121.058.223.14.356.164l.164.031c.168.027.363.094.422.164l.19.031.263.032c.312.097.316.203 0 .261l-.293-.035c-.39-.058-.84-.14-1.235-.16-.187-.012-.36-.004-.55 0h-.356c-.45.05-.723.047-.617-.035.105-.078-.043-.215-.555-.258l-.422.066-.324.063c-.46.082-.777.137-.715.098.067-.04-.16-.024-.648.066-.492.09-.524-.402-.844-.36-.32.048-.992-.144-.941-.195.047-.047-.215-.078-.715 0h-.586c-.277-.152-.207-.257.164-.226h.293c.215-.012.418-.094.582-.227l.195-.129c.27-.02.469-.023.457-.03-.008-.017.207-.005.258.093.055.101.137.168.227.164.09-.004.324-.082.359-.293l.16-.063.23-.035c.071.2.173.32.227.262.047-.063.262-.14.293-.066.031.074.25.171.485.066l.128-.227c.118-.191.094-.23.36-.23h.16c.145.062.383-.012.555-.16a.13.13 0 0 1 .129-.031zm-12.243.16c.133.203.305.379.391.39l.066.032.063.066c.035.062.055.14.066.16.012.024.25-.012.453-.031.204-.02.184.168.196.129.015-.035.367.004.683.164l-.066.16c-.031.07-.102-.004-.098.098v.066a.546.546 0 0 1 .133.164.336.336 0 0 0 .094.16l.098.032c.093.035.27.058.261.195v.066c-.066.04-.015.07.098.067.113-.008.344-.086.422-.164l.066-.032h.094c.09.024.2.063.23.098.028.031.22.148.422.191l.16.067c.118.047.188.117.325.129.152.011.254-.047.39.035l.164.098c.145.09.29.156.325.16.03.004.214.058.355.097l.129.032h.066c.235.086.368.171.293.164h-.097a1.598 1.598 0 0 1-.422.129l-.196.03c-.21-.01-.312-.015-.226-.03v.066c.027.094-.281.152-.324.16-.395.074-.703-.121-1.075-.195a.904.904 0 0 0-.324 0c-.129.027-.191.047-.129.164.051.09.18.137.032.195l-.16.067c-.172-.028-.208-.016-.098.03.11.044.285.145.129.13h-.16c-.18-.008-.375 0-.555 0-.07 0-.121.004-.195 0-.114-.012-.243-.047-.356-.067l-.066-.03c-.227-.036-.328.007-.227.097l.066.097c.102.13-.007.16-.128.196-.137.035-.254.086-.391.066l-.164-.035a6.381 6.381 0 0 0-.387 0c-.066.004-.199.117-.195.195l-.035.067c-.035.125-.125.062-.227.03-.137-.042-.285-.081-.422-.128l-.031-.035a.492.492 0 0 1-.164-.063c-.016-.02-.035-.101-.063-.129-.03-.035-.171-.015-.195 0-.055.024-.105.047-.164.063-.023.004-.101.117-.129.227l-.293-.098c-.133-.04-.215-.133-.195-.192.02-.058-.121-.164-.258-.097l-.164.062c-.328.14-.625-.086-.941-.129-.102-.015-.082.012-.16.032-.047.011-.09-.008-.133 0l-.16.035c-.18.004-.266-.031-.196-.067.067-.035-.027-.191-.164-.164l-.55.133c-.071.016-.282.05-.325.063a3.4 3.4 0 0 1-.39.066c-.118.016-.325-.066-.293-.098.035-.03.039-.05-.098-.03h-.129c-.23.007-.48 0-.715 0h-.844c-.156-.005.086-.11.52-.227l.39-.098c.165-.04.325-.063.489-.098l.097-.035c.122-.055.18-.101.13-.098-.055.004.038-.105.324-.19h.195a4.48 4.48 0 0 1 .648.03c.317.04.707.121.973-.097.117-.094.168-.223.23-.356.043-.097.079-.195.192-.23.133-.035.21.062.328.066.16.004.07-.226.29-.164.077.027.175.094.26.066.075-.023.102-.132.13-.195l.03-.031a.803.803 0 0 0 .067-.129c.008-.016.016-.047.032-.066.023-.02.132-.055.164-.067l-.032-.129c-.03-.136-.101-.277-.097-.422.004-.12.047-.23.195-.226h.063c.078.023.144-.074.128-.195l.067-.067c.125-.117.32-.012.422.067.011.007.183.199.226.195.094-.004.086-.16.098-.227.016-.097.027-.199.066-.293a.647.647 0 0 1 .391-.36zm-33.472.164h.031c-.004.039.086.05.195.031h.098c.113-.016.047-.035.098 0 .058.035.046.082.129.098.09.015.203 0 .293 0a.711.711 0 0 1 .292.066c.06.02.106.04.165.063-.098.023-.188.09-.293.097-.094.008-.145-.023-.227-.066l-.098-.031c-.136.003-.21.015-.195.03.016.02-.012.098-.098.165-.09.07-.234-.004-.293.031l-.066.035a.845.845 0 0 1-.227.098.44.44 0 0 0-.195.098l-.062.062c.011.067-.047.137-.133.164h-.063c-.07.012-.129-.02-.195 0-.059.02-.066.059-.098.098-.035.043-.039.043-.097.062l-.098.035c-.012.051-.09.07-.16.032H9.48l-.066.031.035.035c.004.055-.031.067-.066 0v-.035c-.063-.04-.262.11-.324.129l-.293.098c-.325.039-.532.027-.454-.032l.063-.031c.07-.027.105-.055.164-.098l.098-.066c.078-.086.039-.148-.067-.129l-.062.031c-.106.04-.188.047-.293 0-.13-.054.05-.144-.031-.226-.047-.04-.125-.012-.164 0l-.067.031c-.07.004-.187.016-.258 0-.07-.012-.203-.078-.195-.098.008-.015-.148-.043-.324 0l-.13.035c-.109.004-.214-.015-.323 0l-.067.032c-.082-.004-.12-.032-.066-.067.058-.03-.035-.097-.195-.062h-.16c-.098 0-.008-.059.03-.098.083-.082.169-.164.262-.226.07-.051.196-.133.29-.098.062.02.062.11.132.129l.098.031c.121-.055.23-.094.226-.062-.007.027.032.105.063.097a.556.556 0 0 0 .133-.097c.015-.012.152-.04.258-.067h.066l.062-.031c.055.02.09.043.098.062.004.028.102.047.195 0h.13c.113 0 .187.043.292 0 .094-.039.22-.101.325-.097h.164c-.055.11.007.164.129.133l.035-.067c.027-.031.05-.039.093-.066a.255.255 0 0 1 .133 0c.098.058.012.14.16.133a.453.453 0 0 0 .325-.164c.043-.059.054-.09.132-.098a.475.475 0 0 1 .13 0c.034.008.058.058.097.066s.094-.015.129-.03c.09-.048.168-.095.262-.134.011-.008.14-.074.16-.062zm1.558.226c.016 0-.074.032-.16.063h-.066c-.008 0 .008-.031 0-.031h.066c.055 0 .145-.032.16-.032zm-.355.489c.039.074.105.136.129.128.02-.011.105-.023.129 0h.03c.075.024.196-.074.263-.097.125-.055.14.035.257.062.043.012.09.008.133 0h.032c.066-.011.12-.02.128 0 .012.024.09.082.13.098h.132c.07.02.031.047-.098.066l-.128.032c-.051.011-.106.074-.164.066-.024-.004-.036-.027-.067-.031-.066-.008-.226-.031-.289 0l-.098.031c.04.094-.027.133-.132.066h-.16c-.11.012-.215.086-.325.032-.066-.035-.058-.047-.133-.032-.046.008-.074.043-.129.032-.035-.008-.066-.024-.097-.032l-.031-.035c-.036 0-.063-.004-.067-.03v-.032c.028-.086.051-.164.133-.164h.063c.035.07.101.008.128-.13h.098zm5.258.777c.152.035.195.117.097.164l-.097.031c-.028.008-.121.047-.13.098-.007.043.048.031.067.062.024.055-.02.141 0 .196.012.05.055.082.031.133-.02.042-.125 0-.164 0h-.097c-.125.015-.14.074-.063.128l.031.063c.06.062.086.039.165.035a.357.357 0 0 1 .289.098l.132.097c-.043.047-.023.098.063.098l.066.031.098.063c.074.101-.035.168-.195.164h-.067c-.097-.004-.199.004-.289 0-.066-.004-.082 0-.133.031l-.03.035c-.024.02-.063.028-.067.032l-.032.03a.118.118 0 0 1-.097.036c-.043-.004-.031.047.129.129l-.032.097c-.007.02-.05.047-.066.063-.023.04-.02.078-.062.098-.075.039-.207-.012-.293 0-.067.011-.13.05-.196.066-.113.023-.172.094-.293.098-.117.004-.27.015-.386 0-.059-.008-.075-.055-.133-.067-.043-.011-.16.028-.196 0-.023-.02.012-.086-.03-.097-.044-.016-.137.074-.16.097-.032.035-.095.082-.099.133v.063c.012.039-.035.058-.097.066h-.035c-.075-.02-.149-.125-.227-.066-.039.039-.055.09-.098.129-.07.07-.117.09-.195.035a.373.373 0 0 0-.226-.098c-.122-.008-.235.04-.356.031-.11-.008-.309-.039-.293-.195a.48.48 0 0 1 .066-.16c.036-.051.165-.09.13-.164-.02-.043-.13-.04-.165-.032-.093.02-.172.063-.258.098-.105.031-.218.059-.324.098-.05.015-.082.082-.133.097h-.062c-.082-.035-.125-.085-.098-.132.024-.04-.05-.094-.097-.063h-.032c-.035.02-.129.113-.164.098-.062-.031-.023-.086-.129-.067-.078.016-.105.067-.195.032-.062-.024-.07-.035-.098-.098-.062-.129-.148-.07-.257-.031-.086.031-.172.035-.262.066-.066.02-.125.04-.195.031-.082-.011-.184-.113-.196-.195-.011-.086.082-.164.067-.258-.016-.09-.086-.054-.164-.035-.051.012-.106.031-.16.035-.106.008-.192.032-.293.032a.298.298 0 0 1-.13-.032c-.019-.008-.003-.035-.035-.035-.02-.004-.078.027-.097.035-.04.016-.082.067-.13.063-.042-.004-.073-.051-.097-.098-.027-.062-.054-.156-.031-.226.043-.133.29-.293.422-.196.062.043.043.11.129.098a.611.611 0 0 0 .195-.098c.008-.004.074-.047.066-.062a.436.436 0 0 1-.066-.227c-.004-.129.09-.172.195-.133.063.024.133.09.196.098l.129.035c.062.074.168.13.226.13l.067.03c.05.012.043.032.097 0l.031-.03c.02-.036.043-.067.067-.099.004-.007.023-.03.031-.03a.333.333 0 0 0 .098-.067l.066-.031.13-.036c-.032.094-.032.172 0 .164.026-.007.108.036.097.063-.016.031-.012.125.066.133l.094.031c.094.035.082.063.164 0 .086-.063.227-.098.324-.031l.067.031c.011.043.054.066.097.031l.032-.031a.356.356 0 0 1 .195-.066c.058 0 .105.039.16.035.066 0 .07-.043.133-.067.07-.027.222.028.289.067.039.02.058.05.098.062.043.012.085-.011.132 0h.063a.141.141 0 0 0 .164-.031c.031-.04.101-.2.16-.195.063.008.172-.051.164-.063-.008-.015-.027-.047-.031-.066a.88.88 0 0 1 .031-.13c.004-.026.055-.128.067-.163l.03-.031c.028-.036.09-.09.13-.098l.097-.031c.106.066.235.082.293.03l.13.063c.054.075.12.106.128.098.012-.008.067-.086.133-.16l.098-.031a.461.461 0 0 1 .386.093c.063.063.012.047.098.036h.066c.118-.02.211-.11.196-.196l.129.032h.097c.149-.016.328-.043.356-.063.031-.02.14-.059.195-.098l.066-.035zm38.441.648c.05-.004.113.036.164.067l.13.097c.023.192.233.274.452.227l.196-.031c.082-.016.183-.176.292-.067l.032.032c-.008.132.054.226.133.195.078-.024.347.047.386.066.043.02.293.14.457.227l.032.031c.265.242-.09.254-.356.324l-.164.035c-.234.012-.492.133-.586.258-.094.125-.484.168-.484.133s-.2-.074-.36 0c-.156.07-.55-.05-.52-.164.036-.117.036-.117-.226.031-.254.153-.922.028-.844-.03.079-.06.145-.142-.066-.099-.207.043-.605-.078-.55-.129.058-.054-.024-.214-.259-.226h-.195l-.683.324.195-.195a63.037 63.037 0 0 0 1.234-.684c.184-.105.418.024.551-.16l.195-.129c.309-.172.235-.015.453 0 .13.008.25-.125.391-.133zM5.684 32.5a.191.191 0 0 1 .16 0l.031.031c.02.043.043.063.066.067.028.004.141.03.164.03.02.005.06.04.063.067h.066l.098.032c.102.046.211.066.324.066.11-.004.258.098.324.062l.067-.03.062-.098c.125-.04.243-.043.262-.032.02.012.106.055.129.063h.031c.059.008.121-.04.164.035v.062c.008.063.094.079.16.036l.067-.036c.113-.003.21.102.262.196.07.136.152.117.289.164.132.043.297.105.422.16.05.023.105.05.164.066l.097.032c.125.058.184.113.13.132h-.032a.741.741 0 0 1-.36.032c-.07-.016-.097-.004-.16 0l-.066.031c-.125 0-.152.047-.063.129l-.164.035h-.03a3.687 3.687 0 0 1-.618.129h-.098c-.078.004-.125.043-.195.066a.485.485 0 0 1-.422-.098c-.05-.042-.035-.03-.098-.034-.058-.004-.105.03-.164.035h-.062c-.074-.004-.133-.04-.129-.067 0-.027-.055-.097-.066-.097-.012 0-.032-.047-.032-.063-.004-.02-.02-.039-.066-.035-.047.004-.2-.059-.195-.098l-.063-.03c-.086-.04-.101.077-.098.128.004.055.028.078.032.129.004.094-.04.105-.13.098-.1-.008-.194-.079-.292-.063l-.067.031c-.097.035-.168.02-.16 0 .008-.02-.027-.043-.066-.031-.04.016-.149-.074-.129-.164l-.098-.063c-.066-.03-.125-.015-.195 0-.121.02-.125.055-.164.16-.031.094-.11.137-.191.067-.067-.059-.036-.117-.133-.129a.507.507 0 0 0-.227.031c-.101.032-.191.121-.293.063-.031-.016-.062-.047-.097-.063-.09-.054-.184-.023-.227-.129-.012-.035-.012-.07-.031-.097-.04-.059-.137-.086-.196-.133l-.066-.031c-.055-.032-.105-.067-.129-.067a.479.479 0 0 1-.129-.03c-.012-.009-.039.015-.031.03v.035l-.457.13c-.012-.012-.012-.044 0-.067a.775.775 0 0 1 .129-.129c.094-.047.191-.094.293-.129a.38.38 0 0 1 .133 0c.007.008.078-.012.128-.066.047-.051.196-.125.227-.258h.227c.05.066.129.094.164.062h.03c.083-.027.185.028.228.098.027.047.015.098.066.133.039.027.156-.008.195-.035.114-.063.102-.196.16-.293l.067-.13c.12.114.242.157.258.099.02-.055.171-.079.195-.063.023.012.117.082.129.094l.066-.031c.125-.024.125.148.227.128.129-.02.062-.148.066-.226.004-.055.02-.11.067-.129zm42.726 3.313h.063c.187.078.496.101.715.062h.128l.329-.063c-.024.196.128.32.355.258l.39.098c.15.125-.085.352-.519.52l-.293.035c-.144.007-.308-.043-.453 0l-.066.03c-.204.11.043.274.55.356l.391-.062c.266-.04.473.023.746.031h.262c.281 0 .566-.226.617-.488l.16-.031c.164-.032.156.043.293.066.203.027.106-.047.258-.164.316-.242.492.055.75.031.21-.015.5-.207.71-.062l.165.129c-.023.171.062.257.195.195l.098-.031c.351-.043.351.164.52.386.18.243.23.04.453-.03l.097-.032c.2.05.438-.063.551-.23h.098l.23-.063c.164.023.332 0 .484-.066l.165.035.195.03c.125.114.238.208.258.196a.428.428 0 0 1 .164-.066c.05-.004.21.137.258.195.046.055.363.113.617 0l.226.067.164.062c.032.145.2.246.391.227.188-.02.781.074.875.097.094.028.375.227.453.324l.098.067c.215.09.46.043.683.098l.258.066c.297.137.344.297.098.355h-.258c-.406-.007-.793.157-1.203.067l-.617-.133c-.703-.055-1.223-.125-1.168-.129.058-.004-.426.203-1.137.36l-.55.03h-.262c-.297.09-.133.192.39.227l.457.13c.242.062.457.16.711.163h.133c.144.032.473-.015.71-.097l.099.097c.101.106-.028.262.097.356.082.058.406-.149.52-.13l.097.032c.055.086.118.164.196.23l.164.032.16.066c.226.106-.102.258-.715.356h-1.559c-.382-.043-.664-.102-.613-.13.043-.03.16-.116.13-.132-.036-.012-.294-.016-.49-.031l-.194-.032-.227-.03c-.27-.048-.508-.079-.55-.067-.184.031-.368.05-.556.066h-.16c-.097 0-.199-.015-.293 0-.125.016-.12.09-.324.063-.312-.04-.726-.364-.941.03-.13.243-.278.286-.551.392l-.195.066c-.332.062-.387.027-.098-.098.289-.125-.012-.504-.39-.293l-.356.098-.164.031c-.235.04-.438.043-.453.035a.74.74 0 0 0-.293 0l-.098.032c-.21.066-.394.144-.617.16l-.129.035a1.542 1.542 0 0 1-.324-.066c-.035-.02-.223-.137-.422-.16-.195-.024-.598-.192-.488-.231.109-.035-.036-.246-.454-.227l-.359.067-.129.031c-.426-.027-.586-.203-.36-.39l.134-.16.062-.098c.117-.239-.035-.348-.355-.262l-.293.066c-.317.075-.63.125-.942.196l-.258.03c-.789-.019-1.644-.038-1.917-.062l-.13.032-.292.03c-.317.118-.559.2-.52.165.043-.04-.3.004-.777.226l-.164-.164c-.184-.23.343-.472.066-.613-.176-.09-.457.125-.617.16-.207.051-.223.016-.39-.066-.196-.094-.298-.094-.52-.094h-.356c-.066-.27-.195-.484-.261-.488-.063-.004-.422.191-.68.258l-.262-.032h-.226c-.13-.273-.254-.449-.262-.39l.91-.293.293-.13c.402-.023.77.017.813.067.042.047.265.075.324.032.058-.04.261-.168.324-.196.062-.023.23-.023.262 0 .03.028.226.043.386-.031.168-.07.586-.04.586 0s.446.113.942.066l.129-.293c.062-.156-.032-.355.097-.488l.164-.16c.332.04.594.129.582.16-.011.031.059.012.227-.062.172-.075.656-.157.75-.293l.16-.067.164-.031c.137.066.371-.012.52-.164h.195l.227.035c.078.129.226.156.324.063l.097-.098a.873.873 0 0 1 .485-.227c.222-.039.437-.074.652-.129zm-34.125.484c.078 0 .168.039.227.098.066.062.144.125.195.195.043.058.043.105.098.164.023.023.18.168.226.16.047-.008.035-.031.067-.062l.097-.098a.293.293 0 0 1 .293-.031h.063c.047.004.14.007.164.062v.031c-.031.059-.016.121 0 .133.015.012.144 0 .226 0a.63.63 0 0 1 .227.063c.008.004 0 .031 0 .035 0 .008.035.016.066.031.032.016.153.055.196.067.039.007.16.023.16.03.004.005.015.048.035.098.016.047.102.196.129.227.023.031.176.082.226.066h.032c.11-.058.172-.097.293-.097h.03c.048 0 .09.011.134.031.015.012.078.047.097.066.02.016.075.082.098.098h.031l.098.031c.05.043.098.102.129.16 0 .02.062.055.129.067h.066c.102.004.125.07.098.164-.055.164.129.055.226.098.051.02.07.09.098.129.04.042.043.039.098.062l.066.035c.074.074.137.145.129.16-.008.016.012.078.031.098h.032c.125.07.257.191.39.227.074.023.117.003.164.066v.031c.016.055-.008.117-.066.133-.055.012-.192 0-.227 0s-.168.023-.195.031c-.031.008-.2.04-.293.032l-.063-.032h-.066c-.133.004-.254.082-.262.16l-.093.036h-.164c-.23-.004-.461.027-.684.097l.035-.164c.008-.062.086-.125.031-.195-.035-.047-.18-.04-.226-.031-.2.039-.254.175-.36.324-.078.113-.226.168-.355.195l-.129.031c-.129.036-.168.024-.066-.03l-.063-.099c-.082-.07-.277.067-.36.098-.206.082-.394.14-.616.164-.09.008-.168 0-.258 0h-.067c-.105 0-.12-.066-.03-.133l.062-.097.066-.063c.059-.094.02-.144-.066-.133h-.063c-.082.036-.144.079-.226.098-.098.023-.168.066-.262.098-.121.043-.266.058-.39.097-.212.067-.43.059-.65.067h-.097c-.16.02-.219.027-.129 0 .09-.028.16-.172.098-.164h-.031c-.102.027-.192.05-.293.066-.079.008-.184-.008-.262 0h-.063c-.097-.008-.046-.082.13-.195l-.227-.067c-.07-.015-.457.094-.457-.03 0-.06-.258-.048-.387 0l-.133.03c-.152.02-.222-.004-.129-.03.094-.028.125-.145.067-.13l-.067.032c-.113.023-.21.054-.324.066-.113.016-.242.008-.355.031h-.067c-.094.02-.113-.004-.031-.062h.031l.098-.067c.11-.09.078-.125-.067-.097l-.097.03c-.149.052-.27.087-.422.134-.137.039-.29.113-.422.16h-.062c-.13-.012-.172-.02-.133-.031.043-.012-.051-.063-.196-.036l-.129.036c-.097.027-.195.043-.292.062h-.098c-.094.02-.152-.055-.129-.16l-.031-.031-.067-.035c-.113.042-.168.039-.16 0 .008-.036-.148-.043-.324.066l-.164.062c-.176.063-.363.079-.55.098h-.099c-.148.004-.238-.016-.195-.062.043-.051.05-.22.031-.227-.02-.008-.152.031-.257.063l-.098.035-.129.03c-.027-.042-.043-.073-.066-.066a.603.603 0 0 0-.164.067.75.75 0 0 1-.227.062c-.098.02-.195.04-.293.067l-.063.031h-.066c-.09.016-.137-.016-.129-.062.012-.047-.066-.102-.226-.067l-.098.031c-.055.024-.152.063-.195 0l-.032-.062c.024-.059-.007-.05-.097 0l-.098.031-.066.031c-.043 0-.086.016-.098 0h-.062c-.043.012-.079.036-.098.036-.024 0-.059-.008-.098.03l-.066.032c-.055.055-.125.07-.196.098l-.128.066c-.192.012-.34.008-.325-.031.02-.043-.086-.133-.226-.098l-.133-.133c.055-.101.023-.164-.063-.16h-.035c-.093.016-.16.051-.257.032a1.037 1.037 0 0 1-.196-.063c-.058-.031-.12-.082-.195-.066l-.031-.098h.097c.082-.023.18-.078.227-.098.129-.015.265-.004.39.032l.063.097c.055.051.055.051.133 0l.097-.062a.654.654 0 0 1 .227-.098.28.28 0 0 1 .098.031c.07.024.152.024.226 0h.067l.16-.031c.07.105.16.172.226.16h.067c.035-.004.07.004.097-.031.024-.031 0-.094 0-.129a.21.21 0 0 1 .13-.195c.085-.035.226-.004.292-.067.04-.035.032-.117.063-.16l.035-.035c.05-.008.172-.152.258-.324l.097-.031.067-.032a.732.732 0 0 0 .355-.133c.047-.042.211-.062.227-.062.02.004.078-.043.098-.066.023-.024.097-.075.132-.098h.032c.058-.004.078.023.128 0 .079-.031.07-.137.165-.16a.334.334 0 0 1 .226.062c.102.106-.031.149-.066.227a.387.387 0 0 0 0 .164c.043.09.183.082.261.066.04-.008.094-.062.13-.035l.03.035c-.015.047.047.016.133-.066l.063-.067c.129-.097.137.086.226.133l.098.032c.047-.055.102-.094.133-.098a.45.45 0 0 1 .16.031c.031.024.117.02.129 0 .02-.012.047-.074.066-.098.02-.02.13-.117.196-.19l.129.03c.082.024.257.047.261.16v.067c-.03.078.075.137.227.129l.062-.063c.082-.097-.004-.218.036-.324.023-.07.097-.098.16-.098.082 0 .078.024.133-.035.058-.062.101-.152.19-.195l.067-.031c.059.05.2-.024.293-.16l.16.097c.016.004.055.028.067.031l.031.032c.059-.024.129 0 .133.03.004.036.086-.01.16-.16l.164.032c.145.035.215.25.356.293a.3.3 0 0 0 .293-.066c.027-.028.066-.07.097-.098.055-.04.035-.016.098 0 .023.012.078.023.098.035.03.02.015.043.062.063.133.054.137-.086.098-.192-.035-.097-.094-.113-.063-.23v-.098c.11-.082.2-.234.196-.324l.062-.063a.186.186 0 0 1 .227-.097c.09.023.136.066.23.062.102 0 .125-.015.191.067.051.058.06.109.133.066.04-.027.055-.066.098-.098.043-.039.105-.109.16-.132l.066-.032c.094.063.168.121.16.13-.003.007-.015.046 0 .066.012.02.051.027.098-.032l.067-.035h.066c.055.012.11-.008.129-.031h.031a1.14 1.14 0 0 1 .196-.098c.074-.031.148-.066.226-.066zm15.098 0l.195.035.227.031c-.035.168.183.219.488.13l.062.323c.028.125-.027.235.133.262.117.02.203-.074.29-.129.1-.062.234-.094.327-.164.125-.09.211-.27.356-.324l.262-.066c.156.242.367.347.484.261h.129l.195-.031c-.02.191.157.305.39.227l.454.062c.004.18.172.281.36.23l.195.098c.332.176.62.301 1.004.29.218-.005.468-.032.683.034l.13.032c.151.047.198.093.097.097-.102.004-.117.16.164.293l.289.032.066.03c-.101-.01-.152-.023-.258-.03l-.195.03c-.328 0-.652-.003-.976 0-.344.005-.641-.112-.973-.03-.27.05-.547.039-.813-.032-.199-.07-.41-.09-.617-.066l-.16.031c-.207.137-.262.277-.129.293.133.02.32.172.227.195-.094.024-.043.184.289.227.336.047.328.289.035.293h-.227c-.285 0-.718.102-.976-.066-.172-.11-.152-.31-.387-.29l-.23.032c-.235.02-.387.008-.356-.032.035-.042-.07-.148-.262-.132l-.097.035c-.215.074-.426.238-.649.289-.164.043-.347-.004-.52 0h-.194c-.204.086-.114-.031.195-.258l-.16-.227c-.098-.156-.45.04-.586.063-.278.055-.535.063-.813.098-.148.023-.304.023-.453.035h-.098c-.117.023-.093-.051.067-.164h.031l.129-.067c.11-.093-.055-.129-.355-.062l-.165.031c-.171.031-.343.031-.519.031h-.129c-.168-.011-.262-.054-.195-.093.062-.047-.356-.274-1.04-.391l.52-.422c.215-.184.473-.316.715-.457.145-.078.285-.168.422-.258.121-.078.25-.21.39-.261.169-.06.376.054.52.132.082.043.164.114.258.13.043.007.125-.024.164 0l.062.03c0 .067.09.086.196.036l.097-.067.098-.031c.086-.043.25-.176.36-.293l.19.031.165.067c.035.12.23.05.422-.133zm-8.7.328c.094-.004.196.008.29.031.004.016.05.016.097 0 .051-.015.164.051.133.098-.035.047.05.184.192.16l.097.035c.113.059 0 .125.067.196.062.066.152.02.226.03.188.032.184.15.293.259.121.125.27.093.422.097.145 0 .2.04.324.098.11.055.238.098.36.129l.093.035c.13.027.098.09-.062.129h-.13c-.265.008-.515.039-.78.066-.203.016-.309-.054-.489-.097-.07-.02-.253-.043-.324 0-.129.074-.21.304-.422.257-.117-.027-.062-.109-.16-.16l-.164-.066c-.164.094-.293.133-.293.098 0-.036-.062-.16-.129-.165-.066-.007-.21.04-.195.067.016.023-.098.133-.324.195h-.098c-.082-.004-.234-.008-.227-.129.004-.074.106-.093.098-.195V37.5c-.543.129-1 .242-.973.227.024-.016-.015-.075-.164-.063-.152.008-.488-.148-.421-.164.066-.02.226-.02.226 0l.067-.098.128-.097c.254-.059.536-.184.618-.293l.128-.032h.098c.074.067.2.016.293-.128.094-.149.531-.09.715-.164a1.34 1.34 0 0 1 .39-.063zm14.837 3.504c.148-.004.316.14.39.098.102-.051.41.003.422.03.012.032.23.067.422.036l.098.062c.168.133.062.333.324.165l.16-.098c.18-.082.352-.11.36-.067.011.047.038.06.16-.03.124-.095.539-.04.683-.098.148-.059.445.101.356.261l.292.032.227.03c.176.052.445.048.586-.03.14-.079.445.101.648.03.204-.066.543.192.782.165l.16-.031.195-.067c.262.102.117.258-.324.356l-.39.164a2.674 2.674 0 0 1-.583.16l-.293.035c-.343-.004-.547.023-.422.063h.098c.27.054.5.07.777.066h.164c.153.012.317.043.356.066.043.02.195.016.227 0 .035-.02-.032.278-.227.68l.586-.129c.148-.035.2-.105.355-.066.18.047.364.18.555.23.117.028.36-.015.258.192-.07.14-.336.105-.453.097-.239-.015-.45-.105-.684-.097h-.226c-.157.129-.375.25-.489.261-.113.012-.41-.07-.422-.129-.011-.062-.308-.05-.355-.035-.055.016-.215.04-.262.035a.83.83 0 0 0-.258.063.83.83 0 0 1-.226.066c-.102.02-.2.051-.293.098-.113.05-.371-.004-.324-.066.043-.059-.153-.067-.489.097l-.226.098-.324.164c-.473.016-.797-.05-.715-.133.082-.074.281-.223.226-.195-.05.031-.183-.008-.16-.031.016-.024-.117.011-.36.128h-.128c-.059 0-.18-.062-.195-.062-.168 0-.25.09-.391.16-.266.145-.559.2-.844.293l-.293.066c-.289.024-.37-.039-.195-.164.18-.125.105-.3-.258-.128l-.324.097-.36.098c-.414-.102-.706-.258-.648-.324.066-.07-.004-.168-.324-.133l-.164.035h-.192a3.94 3.94 0 0 0-.586-.262c-.035-.004-.082-.093-.03-.16.046-.07-.052-.152-.325-.066l-.23.03-.258.036c-.293.02-.153-.21.324-.52l.164-.066c.098-.035.168-.008.258-.031.168-.047.3-.152.453-.227.094-.05.203-.074.293-.132.09-.051.156-.122.226-.192l.067-.035c.07.023.375-.04.683-.129h.192c.062-.031.125-.043.164-.031l.031-.133v-.129c.211-.152.367-.262.36-.226-.012.035.195-.09.453-.356l.129.031h.195c-.012.18.113.18.262 0a.152.152 0 0 1 .129-.066zm-9.286.684l.258.062c.336.09.285.43.653.36.324-.063.484-.243.843-.165h.13c.112.078.257.168.323.196l.067.03.195.067c.14-.031.293-.093.324-.129.028-.03.18-.039.258.032l.098.03c.226.06.199-.19.422-.257l.129-.066c.23.168.57.304.75.293.175-.016.55.187.582.226.039.043.011.137 0 .133a3.356 3.356 0 0 0-.391.031c-.223.028-.617.121-.617.16 0 .047-.024.211-.13.262-.105.047-.28.117-.194.164l-.032.094c-.039.129-.277.102-.355.098h-.293c-.48-.04-.777-.079-.684-.063.094.016.242.191.098.324l-.129.098c-.18.125-.32.398-.52.484-.12.059-.32.012-.453.035-.16.032-.257.079-.421.063h-.262c-.274-.035-.403-.121-.258-.16.14-.043-.246-.184-.91-.098l-.55.13-.36.066c-.364-.004-.555-.047-.422-.098.133-.05.238-.195-.031-.13l-.196.063c-.43.192-.73.375-1.203.391-.367.012-.73.18-1.101.195-.168.008-.266.032-.422.063h-.098c.027-.012.066-.05.129-.063l.129-.097.066-.067c.094-.101.121-.23.067-.258h-.067c-.164-.027-.226.032-.39.063l-.196.035c-.265.031-.46.008-.422-.035.043-.04-.234-.078-.68 0h-.421c-.254.016-.469.027-.715.066l-.129.032c-.156.007-.117.043.063.097v.164c.007.184-.578.446-.715.489-.344.109-.774.152-1.137.191l-.227.035c-.332.024-.515-.008-.39-.066l.098-.031.164-.098c.144-.125.105-.207-.067-.195h-.062c-.325.035-.645.117-.977.097-.223-.015-.426-.09-.648-.097h-.063a1.494 1.494 0 0 0-.457 0h-.129l-.324.03c-.348.09-.512.032-.36-.128.157-.152.137-.348-.195-.293l-.16.035a6.724 6.724 0 0 1-1.008.227c-.382.054-.78.07-1.168.129h-.129c-.347-.051-.5-.106-.359-.164.145-.055.125-.286-.195-.227l-.258.066-.258.098c-.375.082-.613.078-.52 0 .09-.074-.023-.32-.132-.293a6.23 6.23 0 0 1-.55.098 1.37 1.37 0 0 0-.325.129c-.027.023-.113.007-.098-.032.02-.043-.047-.05-.262 0H7.63c-.375.047-.727.137-1.102.196-.351.05-.687.156-1.039.16h-.164c-.183 0-.156-.11.067-.227.222-.117.336-.644.293-.648-.047-.004-.43.117-.75.195l-.29.031c-.156.016-.3.024-.457.032l-.195.035c-.25.008-.433-.035-.387-.098.043-.07.153-.207.063-.195-.09.012-.297-.223-.258-.488l-.195-.098a.316.316 0 0 0-.098-.031l-.293.16c-.058-.184.133-.192.293-.16l.488-.262.16-.227c.282-.105.516-.148.52-.097.004.054.152.07.324-.063l.196.031c.129.024.133.137.261.165.063.011.25-.055.325-.067h.16c.117-.055.18-.113.133-.098-.047.016.043-.19.324-.421l.258-.067c.28-.078.379.145.617.133.176-.008.644-.203.781.031l.063.098c-.079.16.02.226.226.129l.23.066c.184.043.075.04.258-.035.18-.07.262-.066.454-.098.222-.03.203-.218.421-.257.125-.024.434-.016.52.097l.066.067c-.027.047.207.136.52.191l.226.066.262.098c.317.035.66-.035.746-.164l.098-.098.129-.16c.265.035.472.098.453.098a4.7 4.7 0 0 1 .684-.164h.324c.222-.016.629-.055.812.133l.098.129c.008.117.2.148.422.062.222-.086.691.098.68.133-.008.031.07.066.23 0l.129-.067c.316-.128.246.047.52.196.214.117.183.023.355 0h.195c.172.097.297-.004.293-.196l.39.098c.098.016.47.106.52-.066.043-.149-.148-.215-.035-.356.07-.082.684 0 .75 0 .281 0 .559-.008.844 0 .281.008.562.086.844.098h.226c.309.004.551.016.52.031.011-.012.027-.043.066-.062.102-.055.426-.055.485-.035.058.015.265.042.324.035.062-.012.422.043.683.16.262.117.676-.32.91-.324l.16-.032c.094-.011.172.008.262-.035.196-.082.309-.297.52-.355.219-.067.265.054.422.066.12.008.312-.21.453-.23l.164-.032c.094.09.387.036.648-.129zm27.176.55l.356.262c.187.145.218.29.457.387.226.093.398.066.648.066.246 0 .484-.004.715.129.148.09.223.188.387.262l.195.097c.191-.011.383-.02.422 0a.71.71 0 0 1-.195.098l-.227-.098c-.098.004-.125-.011-.258 0l-.652-.035h-.387c-.516.012-.824.07-.684.098.145.031.227.21-.097.262h-.13c-.437.004-.769-.04-1.167-.196-.355-.14-.645-.09-1.008-.164l-.258-.062c-.215.05-.23.18-.035.289.196.11.52.332.262.262h-.293c-.422.003-.844-.047-1.266-.032h-.226c-.25.055-.574.075-.746.032l-.196-.032c-.156-.015-.293.028-.457 0 .051.016.012.035.293.098.434.094.36.582-.097.55-.453-.03-.778.204-.68.227.102.024.02.114-.36.067l-.324-.098a2.662 2.662 0 0 0-.91-.129 2.808 2.808 0 0 0-.715.129c-.304.086-.55.098-.875.098-.535-.004-1.12.03-1.656-.035a4.516 4.516 0 0 1-1.297-.325c-.289-.12-.472-.093-.781-.097l.262-.032c.62-.074 1.117-.14 1.101-.164-.015-.015.32-.195.715-.355l.36.164.097.062c.05.051.145.043.192 0 .05-.039.308-.195.457-.257h.16c.32-.004.46.367.683.129.086-.094.016-.45.227-.489l.226-.031c.125.14.293.14.36 0 .062-.137.383.098.453.066.07-.035.394-.187.586-.23h.258c.203-.004.234-.07.453-.129l.164-.031c.11.105.316.058.488-.098.168-.156.621-.133.617-.031-.004.101.082.16.29-.035.206-.196.687-.098.617-.032-.067.067.18.172.52 0l.421.227c.402.188.23.04.457-.258.254-.332.461-.058.746 0l.324.063c.465.035.914-.266 1.008-.649zM29.836 44.06c.262.023.453.476.555.453.117-.024.41.133.453.097a.614.614 0 0 1 .261-.062c.043.012.192.187.325.289l.293-.16c.277-.16.222-.047.386.097l.164.13c.188-.114.864-.036 1.493.163l.52.032c.542.043 1.081.125 1.624.16.203.015.25-.047.422-.063h.098c.125.055-.114.133-.52.196l-.36.062c-.39.05-.804 0-1.198 0h-.555c-.594-.047-1.02-.062-.973-.062.051 0-.113.125-.453.324l-.293.097c-.133.028-.137-.027-.262-.066-.164-.047-.347-.031-.52-.031h-.483c-.25.004-.415-.067-.649-.098-.121-.015-.242.04-.36.031l-.16-.03c-.222-.036-.292-.032-.164 0 .13.03-.203.234-.812.194l-.195-.035-.13-.03c-.456.015-.823.03-.777.03.043 0-.03.102-.261.164l-.063-.03-.195-.036c-.242-.176-.485-.309-.555-.29-.066.017.008.224.262.325l-.129.258-.133.164c-.305-.027-.566-.086-.582-.129-.015-.047-.098-.129-.133-.133-.027-.008-.14-.035-.16-.062-.015-.028.063-.188.098-.293h-.36c-.105.039-.148.058-.128.031.02-.027-.059-.05-.227 0l-.129.031-.164.067c-.008-.121-.184-.207-.39-.196l-.192-.062c-.066-.02-.43 0-.457-.035-.105-.117.309-.375.39-.422.11-.059.301-.176.422-.098.145.094.094.278.325.262.234-.02.625-.172.78-.36.102-.12.114-.242.29-.257l.133-.031c.11.082.238.03.289-.133l.133-.063c.175-.086.207.04.355.098l.227.062c.218.032.547-.015.715-.129.171-.113.5.102.648-.066l.164-.098.129-.062c.266.035.746-.031 1.074-.164.04-.016.059-.035.094-.031zm13.734 1.46l.196.13.195.097c-.008.25.027.438.066.422.035-.012.125.05.13.098 0 .05.234.058.39-.032l.098-.164c.07-.144-.067-.175.16-.195h.129c.132.047.277.078.324.066.047-.007.18.07.195.098.02.031.133-.02.23-.164l.13-.098c.3-.183.25.055.453.164.164.09.441-.101.55-.03l.067.03c.015.067.058.141.097.164.04.02.227-.023.293-.035.063-.008.329.102.356.133.035.027.168-.008.226-.035.063-.027.434-.09.653-.098l.062.098.164.164c-.109.238 0 .418.227.39l.164.063.227.067c.125.09.226.144.257.128.036-.015.223-.078.325-.097l.066-.067.258-.093c.05-.25.11-.43.133-.391.023.04.242 0 .422-.195l.226-.067.164-.03c.25.151.567.257.711.226.145-.032.45.015.684-.227l.257.098.165.066c.097.192.222.317.292.258l.063-.066c.125-.102.148-.227.262-.325l.258-.226c.449.312.87.449.91.293l.097-.098c.176-.113.278.008.453 0l.23-.031c.27.16.677.285.907.258l.164.066c.242.086.512.438.715.582.121.09.426.406.582.457l.098.031c.133-.015-.207.078-.746.227h-1.008c-.617-.043-.89-.05-.613-.031.277.02.601.203.484.226-.113.02-.418.102-.484.13-.13.046-.262.089-.391.132-.07.02-.395.144-.55.227h-.231c-.262.011-.356-.028-.582-.165-.371-.222-.828-.304-1.235-.453-.226-.086-.32-.082-.55 0l-.196.098c-.215.14-.445.258-.683.355-.153.055-.93.055-1.395.036l-.488.062c-.113.012-.168-.094-.258-.098-.184-.007-.273.227-.422.325l-.457.293c-.531-.051-.871-.149-.746-.196.125-.043.14-.195-.164-.129-.3.063-.598-.453-.387-.746h-.488c-.309 0-.578.035-.875.098-.176.035-.79.113-.879-.066l-.098-.196c.157-.172-.214-.172-.812 0-.59.18-1.29.074-1.492.133l-.16.063c-.235.093-.434.07-.684.066-.106 0-.277-.016-.39 0l-.196.031c-.156.13-.309.184-.324.13a.687.687 0 0 0-.324-.325h-.52c-.102-.195-.328-.336-.484-.324l-.133-.032c-.238-.039-.395-.582-.356-.714l.13-.067.128-.097c.371 0 .863-.11 1.074-.258h.29c.124.18.316.261.421.16h.098c.277.05.117.32.23.457l.325.39c.27-.593.515-1.027.52-.976.007.055.077.094.16-.031l.097-.067.164-.097c.043.148.176.058.293-.196l.258-.129c.144.125.437.055.648-.128zm-28.699.258h.422c.09.153.3.22.453.133l.129-.035.328-.031c.024.191.113.308.192.261.082-.05.343.024.39.063.05.043.152.316.164.488l.063.098c.11.144.25.05.36 0 .14-.07.265-.106.421-.164.14-.05.125-.043.258-.16l.262-.196c.183.118.343.23.355.258.016.028.219.059.422.035l.164-.035.324-.031c.024.262.176.477.324.453h.164c.149-.004.223.066.387.098.29.054.59.086.879.097.242.008.285.016.453.164.168.137.18.196.457.196.254 0 .453-.2.68-.196.203.004.277.118.129.258-.149.153-.613.137-.809.164-.488.075-1.035.028-1.527.032-.445.003-.817-.235-1.266-.16-.156.023-.297.058-.457.062-.09.004-.273-.031-.355 0-.203.086-.012.18.097.262l.13.062c.167.152.054.266-.227.262h-.227a2.865 2.865 0 0 1-.976-.164c-.391-.125-.832-.102-1.2-.258-.218-.094-.457-.238-.714-.164l-.262.066c-.02.203-.086.367-.16.39-.075.02-.332.138-.422.192l-.293.098c-.293-.031-.434-.14-.293-.227.14-.086.11-.207-.227-.062l-.324.062c-.184.032-.332.094-.52.067l-.164-.031c-.14.007-.156-.032-.062-.098.094-.07.266-.285.227-.293-.04-.008-.34.074-.586.129l-.258-.067-.36-.062c.098-.234-.156-.438-.55-.457l-.227.035c-.203.027-.418.031-.617.063-.188.03-.356.101-.55.097-.22 0-.513-.066-.65-.258-.093-.132-.132-.14 0-.261l.063-.063c.235-.101.45-.16.457-.133l.094-.129.23-.097c.266-.055.516-.102.551-.098.035.004.262-.074.422-.195l.195-.094c.2-.117.309.004.489 0 .187-.008.41-.379.582-.133l.164.196c.058.004.183-.008.289-.032l.097.032h.098c.063.066.309.039.555-.063.242-.098.562.11.68-.098.12-.207.539-.144.683-.328zM33.473 47.5c.203.238.476.395.617.355l.164.098c.203.098.156.145.324-.031.137-.145.145-.29.356-.356l.132-.035c.11.012.211.059.29.133.046.05.062.035.195-.066.136-.102.328.191.324.257-.004.07 0 .333.098.458h.195l.293.03c.16.098.328.212.355.262.082.086.18.153.293.192.086.02-.101.14-.617.23l-.324.032c-.297.05-.691.218-.973.129-.203-.063-.468-.45-.683-.422-.055.007-.254.27-.258.324v.133c.043.074-.07.105-.227.062l-.164-.031h-.16c-.21.004-.266.039-.098.062.165.028 0 .297-.554.426l-.356-.035-.293-.031c-.367-.086-.617-.203-.55-.262.062-.055-.168-.102-.618 0l-.39-.062c-.407-.07-.785-.067-1.2-.067l.29-.097c.296-.094.59-.223.683-.293.094-.063.524-.07.68.066l.164-.031c.289-.055.2-.176.355-.325.133-.125.301-.148.426-.292l.13-.13c.136-.152.237-.253.257-.23.023.027.2-.05.36-.226l.16-.063zm0 0" fill="#211e1e"/></svg>