<svg xmlns="http://www.w3.org/2000/svg" width="64pt" height="64pt" viewBox="0 0 64 64"><path d="M33.375 0c-.086.332-.223.625-.355.941.14.004.28-.007.421 0A6.321 6.321 0 0 1 33.375 0zm.066.941c.352 2.559 1.899 5.473-.195 7.336-.062-1.625.246-3.843-.715-5.191-.062-.82.211-1.496.489-2.145-.395-.015-.77-.03-1.168-.03-.18 0-.348-.005-.52 0-.594 3.538 1.824 6.105.617 9.737-.148.372-.226.485-.586.977-.097-1.414.188-2.984-.258-4.223l-.359.649c-1.605-2.055-.14-4.961.55-7.14-7.6.128-14.554 2.878-19.964 7.402.988 1.171-.008 3.996.52 5l.484-1.461c.91 2.843-.113 5.109-.356 7.953-.69-.887-1.14-1.617-1.46-3.051-.645-2.895.824-5.68.683-8.344C4.343 14.195 0 22.812 0 32.434c0 17.43 14.258 31.558 31.852 31.558 17.593 0 31.851-14.129 31.851-31.558C63.703 15.539 50.29 1.77 33.441.94zm-22.238 7.47c.04-.04.086-.063.129-.098a2.005 2.005 0 0 0-.129-.13c.008.07-.008.153 0 .227zM31.297.91h.035l.031-.165c-.015.055-.047.11-.066.164zm5.293 2.237c.035 2.825 2.512 4.141.617 7.536 0 0-.316-2.477-.812-3.086l-.258 1.136c-.926-.648-.778-1.793-.617-2.988.207-.934.496-2.098 1.07-2.598zm-7.887 3.149c.047 1.219.086 2.64.485 3.703.082-.176.406-.777.359-1.04l.129.552c.32 1.89.02 4.011-.942 5.035-1.949-2.281-.03-8.25-.03-8.25zM41.43 9.09c.476.957.363 2.476.715 3.605l.613-.648c-.125 1.605.387 4.156-.844 4.543-1.945-1.867-.34-5-.484-7.5zm-3.246 2.402c-.067 1.13.039 2.192.453 3.086.129-.195.55-.637.55-.941 0 0 .512 2.914.942 4.675.14.77-.36 1.461-.649 1.461L38.344 17.5c-.512.563-.524 1.645-.844 1.008-1.676-2.809.684-7.016.684-7.016zm11.945.488c-.543 2.52 1.562 4.2.812 6.852-.175.977-.57 2.008-.941 2.727-.11-1.258.3-3.211-.355-4.383l-.36 1.137c-1.082-3.09.844-6.333.844-6.333zm-26.332.489c.34.933.043 2.797.457 3.894 2.164 5.442.258 6.203.258 6.203.086-.91-.93-2.66-1.2-4.093l-.359.843c-1.418-2.453.703-4.484.844-6.847zm-5.129.062c.691.871.664 2.594.457 3.899-1.133 1.062-.828 3.152-.715 4.738-.719-1.258-1.48-3.484-.941-4.871.445-1.3 1.68-1.879 1.199-3.766zm16.98 2.696c-.668 2.367 1.82 3.328.715 5.52-.48.128-.89-.579-.941-1.102-.094-1.391-.41-3.395.226-4.418zm-2.14.324c-.301 2.738 1.547 4.687.715 7.664-.399 1.433-1.055 3.008-1.918 3.894-.301-2.843-1.489-5.953-.356-8.797l.582 1.461c.688-1.043.64-2.789.977-4.222zm-25.88.879c.837.726 1.138 1.886 1.04 3.277-.41 3.766-1.105 4.648-1.688 1.688-.308-2.29 1.364-2.45.649-4.965zm21.786.258c-1.113 2.562 1.594 4.07.488 6.851-.156.61-.507 1.254-.843 1.625.207-1.5.183-3.719-.586-5.066.02-1.305.273-2.758.941-3.41zm-9.09.488c-.91 3.238 2.563 4.597 1.43 7.988-.305 1.3-1.656 3.602-1.656 3.602.207-2.149 1.27-5.028-.489-6.524-.5-3.926.715-5.066.715-5.066zm38.086.777c.367 1.629 1.676 5.395-.066 5.488-.422-1.18-.942-3.683.066-5.488zm-15.976.195l.488 2.438c.687 1.215.601 2.656.39 4.156-.109.852-.382 2.063-.648 2.692-.383-.997.344-3.512-.586-4.579-.223.329-.21.79-.355 1.137-1.23-1.91.027-4.125.71-5.844zm-25.422 2.696c.242 2.105 1.703 4.691.324 6.883-.566-.059-1.016-1.457-1.004-2.176 0-1.625.68-4.707.68-4.707zm38.312.066c1.54 3.805 1.809 7.309.164 9.414l-.39-.648c-.446 1.238-.13 2.808-.227 4.219-.36-.489-.437-.602-.586-.973-1.23-3.692 1.91-7.945 1.04-12.012zm-42.336.356c-.59 2.976 1.668 5.523.356 8.28-.336-1.257-.242-3.038-1.2-4.058-.269-1.718.395-2.918.844-4.222zm14.867.129c-.445 2.82 1.485 5.675-.226 7.828-2.059-2.196-.219-5.414.226-7.828zm11.98.195c-.89 3.824 2.552 6.43.392 9.773-.399-.976.312-3.066-.618-4.09-.445.368-.441 1.043-.422 1.493-.476.129-.78-.559-.812-1.008-.223-4.645 1.46-6.168 1.46-6.168zm-16.523.324s2.793 5.215 2.825 9.645c.008 1.734.004 3.148-.684 3.539-.062-.325-.344-.727-.582-.813-.48 1.672.281 3.016.715 4.383-.719-.52-1.484-1.398-1.79-2.598-1.097-3.082 1.786-6.398-.581-8.96-.465.413-.375 1.593-.457 1.98-.16-.3-.219-.574-.258-1.168-.223-2.281 1.195-3.035.813-6.008zm29.286.781c.273 1.02.941 1.867.843 3.082-.957 1.348-.648 3.57-.714 5.196-2.36-2.106-.098-5.52-.13-8.278zm-16.332.196c.511 2.972-1.125 6.32.586 8.797.34.527.398 2.398-.227 2.921.016.7.11 1.34-.195 1.82l-.653-.843-.093.68c-.27 1.629-.645 3.27-2.079 3.507.598-1.87 1.594-4.996 1.72-5.976.765-4.692-1.985-6.902.714-10.484zm-25.422.484c-.348 3.89 2.84 6.809.844 10.586.082-1.715-.028-3.977-.844-5.52l-.324 1.106c-1.18-1.824.324-6.172.324-6.172zM45.973 25c.113 2.172 1.113 4.063 1.527 6.168l.973-2.402c.117.441-.07 1.398.23 2.273.602 1.906.637 4.227-.098 6.008-.398-1.086-.425-2.414-.847-3.637l-.258-.715c-.383 1.477-.281 1.25-.586 2.793-.102.461-.5 1.875-.71 2.367-.13-2.277.296-4.62-.36-6.816-.602.918-.782 1.898-1.07 2.922-.532-1.016-.415-1.86-.977-2.598-.477.848-.633 2.192-.711 3.41-1.535-2.566.21-5.285 1.07-7.5l.617 1.817c.653-1.211 1.012-2.613 1.2-4.09zm-43.082.844s2.777 3.652.648 6.98c-.316.637-.723-.183-1.234-.746l-.746 2.047c-.29 0-1.106-.39-.813-1.656.43-1.758.55-4.614.55-4.614.579.918 1.079 1.594 1.204 1.79.203-1.028.242-2.684.39-3.801zm31.101.941c-.031.934-.34 2.348-.55 3.344-.41 1.894.94 4.894-.165 6.918-.027-1.043-.058-2.692-.808-3.54l-.164 1.266c-.813-.89-.918-2.562-.489-3.734.48-1.543 1.457-2.82 2.176-4.254zm23.54 1.3s1.917 5.997-.032 8.278c-.957-1.023-1.29-3.172-.973-5.066l.13-.55c-.052.26.277.862.355 1.038.402-1.062.476-2.484.52-3.7zm-48.344.161c.128 1.024-.215 3.352.457 4.418.285-.176.207-.46.386-.977.688 1.63-.355 5.36-.355 5.36-1.23-2.524-1.239-5.934-.489-8.8zm7.078 1.625c0 2.863 2.117 6.387.746 9.188-.383-.61-.125-1.852-.809-2.434-.433.215.035 1.34-.617.973-1.836-3.871.68-7.727.68-7.727zm-11.04 1.04c.637 1.023.325 3.023.227 4.413-.047.52-.46 1.266-.941 1.137-1.098-2.191 1.386-3.188.715-5.55zm22.305.386c1.442 1.488.13 3.437.977 4.547l.582-1.43c2.562 4.086-.973 6.461-.973 6.461.317-1.309.574-2.688-.031-3.668-.207.195-.07.664-.36.813-1.085-1.782-.042-4.383-.195-6.723zm-6.136.066c.304 1.172.367 2.465.847 3.57l.356-.648c.625 1.063.32 3.145.226 4.578-1.55-1.586-1.765-4.765-1.43-7.5zm16.43 2.922c.237 1.305.487 2.504.585 3.899l.942-1.79c-.45 4.235 2.394 7.965.875 12.567-.27.785-.43 1.754-.875 2.273.03-1.476.449-3.394.128-5.066-.48-.934-.464-2.137-1.203-2.922-.222.649-.215 1.418-.355 2.11-.688-.044-.942-.723-1.137-1.622-.75-3.539 1.09-6.105 1.04-9.449zm-18.02.649s3.105 6.898 1.168 10.359c-.407.648-1.34 1.492-1.75 1.95.382-3.587-1.653-5.833-.36-9.548l.586 1.492zm30.39.39c.766 2.41.95 5.168.875 7.89-.054.813-.234 1.395-.777 1.071.062 1.89.473 4.79-.36 6.528h-.226c-.125-1.22.3-3.145-.355-4.254-.387.37-.196 1.058-.262 1.625-.512 0-.668-.801-.813-1.301-.43-2.672.082-5.219 1.075-7.305l.355.488c.563-1.324.488-3.285.488-4.742zm4.352 1.301s2.2 6.246.52 9.059c-.32.636-.337-.41-.844-.977l-1.137 2.273c-.29 0-.79-.69-.652-1.46.433-1.758 1.105-6.723 1.105-6.723 0 .305.422.715.55.91.415-.887.52-1.957.458-3.082zm-46.594 1.04c.758 1.679.961 3.07.942 4.218l.617-1.461c.48 3.957-.051 4.43-.356 7.273-.863-.894-.96-1.164-1.363-2.597-.828-2.977.434-4.352.16-7.434zm5.555.874c-.625 3.04 2.258 6.164.617 7.793-3.469.082-.617-7.793-.617-7.793zm29.512.91s2.898 3.809.777 9.707c-2.633-2.023-.406-6.843-.777-9.707zm-12.989.715c-.75 3.625 1.438 5.992.844 9.121-.156.414-.457.324-.71.324.015-1.152.007-2.293-.49-3.117l-.488.977c-1.582-2.367.844-7.305.844-7.305zm-25.324.258c.672.648.957 2.105.977 3.41-.77 1.348-.793 3.566-.586 5.063-.336-.368-.688-1.047-.844-1.653-1.102-2.781 1.57-4.258.453-6.82zm52.957.293c1.875 2.437.453 5.039.356 6.43-.047.523-.68 1.632-1.235 1.167-1.097-2.19 1.547-5.23.88-7.597zm-22.371 3.02c.031 1.995 1.75 5.867.55 7.89-.39.527-.41-1.547-.648-1.79-.652-.648-.824-2.382-.617-3.343.414-.8.649-1.738.715-2.758zm-9.805.648c-.281 2.883 1.637 7.637.582 11.914-.304-1.215-.304-2.59-1.07-3.57-.238.523-.04 1.753-.617 1.625-1.086-6.426 1.105-9.97 1.105-9.97zm-8.765.097c.336 2.086 1.058 7.235-.586 8.735-.637-1.043-.805-4.195-.36-5.649zm29.218 2.762c1.47 2.863.227 6.512.356 9.77-1.531-1.301.012-3.989-1.328-5.551-.149-1.652.699-2.79.972-4.219zm-5.257 3.895c.972 2.863.746 6.406-.23 9.12-1.321-1.734-1.017-4.448-.712-6.816.383.043.008 1.008.582.813.48-.824.055-2.164.36-3.117zm-11.887.648c-.383 1.824.414 3.035 1.074 4.512.422-.402.84-.774.746-1.426 0 0 1.863 4.86.617 7.336-.16.324-.41.313-.617.488-.207-.89.461-2.035-.097-2.922-.43.61-.645 1.536-1.332 1.622.066-1.258.003-2.872-.715-3.895l-.485.777c-.62-1.863-.617-5.234.809-6.492zm0 0" fill="#211e1e"/></svg>