<svg xmlns="http://www.w3.org/2000/svg" width="64" height="64"><path d="M30.31 62.955c-4.559-.246-9.1-1.527-13.065-3.686-6.71-3.655-11.812-9.575-14.404-16.714-1.916-5.28-2.35-11.112-1.24-16.673C3.337 17.2 8.795 9.602 16.494 5.15 25.468-.037 36.53-.383 45.791 4.234a30.602 30.602 0 0 1 7.899 5.622c7.5 7.331 10.766 17.941 8.703 28.266-1.649 8.25-6.625 15.492-13.78 20.053-5.411 3.45-11.838 5.128-18.303 4.78zm6.316-4.723c.304-.156.557-.477.652-.829.15-.553.043-1.411-.227-1.823-.037-.057-.751-.768-1.587-1.58-.835-.812-1.518-1.49-1.518-1.506 0-.016.093-.1.207-.187.698-.536 1.07-1.868.745-2.665l-.064-.157-.182.296c-.226.365-.756.93-1.052 1.12-.298.191-.567.284-1.015.351-.332.05-.377.068-.39.16-.013.084.39.506 2.017 2.115l2.032 2.01-.328.149c-.921.418-1.48.937-1.477 1.374 0 .294.472.917.845 1.117.39.21.991.235 1.342.055zm-17.604-.905c.459-.127.731-.476.999-1.28.172-.518.173-.526.172-1.295-.002-1.278-.275-2.88-.798-4.692-.056-.191 1.893-1.125 2.35-1.125.108 0 .12.017.12.182 0 .965.886 3.142 1.533 3.767.217.21.372.273.667.273.412 0 .686-.118.996-.428.684-.685 1.123-1.655 1.125-2.488.002-.627-.23-.955-.754-1.067-.457-.098-.957.068-1.376.457-.467.434-.761 1.041-.792 1.64-.008.155-.033.27-.056.256-.062-.038-.288-.558-.398-.915-.297-.967-.364-2.486-.194-4.469.057-.67.094-1.361.082-1.534-.037-.526-.236-.696-.477-.409-.097.115-.121.194-.121.39 0 .385-.174.68-.726 1.225-.639.633-1.603 1.309-2.18 1.528-.222.084-.229.084-.308-.004-.22-.243-.66-.218-.888.052-.203.24-.171.418.305 1.718.499 1.364.786 2.302.953 3.112.15.725.243 1.637.198 1.932l-.034.223-.146-.076c-.2-.103-.778-.069-1.076.064-.273.121-.628.443-.747.678-.15.293-.242.777-.219 1.152.025.403.185.706.482.913.334.231.915.33 1.308.22zm27.05-7.031c.323-.165.505-.32.707-.601.399-.558.494-1.16.252-1.603-.224-.412-.67-.675-1.46-.862l-.431-.101.914-1.994a313.25 313.25 0 0 1 1.147-2.48c.128-.269.232-.517.232-.552 0-.093-.145-.077-.281.03-.143.112-.338.116-.846.02-.806-.153-1.834-.556-2.386-.936l-.252-.173.02.282c.064.872 1.229 2.107 2.196 2.327l.222.051-.534 1.15c-1.456 3.131-1.477 3.178-1.529 3.517-.121.782.291 1.653.926 1.957.306.146.782.132 1.104-.032zm11.203-11.398c.292-.128.406-.272.5-.628.095-.367.11-.693.216-4.511.05-1.858.098-3.53.104-3.718l.011-.34h-1.819l.023 1.994c.012 1.097.017 1.989.01 1.982-.005-.007-.307-.867-.669-1.912a397.595 397.595 0 0 0-.69-1.982c-.028-.074-.118-.082-.941-.082-.52 0-.91.018-.91.043 0 .024.245.662.544 1.419 2.003 5.071 2.374 6.07 2.382 6.417.006.228-.007.262-.111.316-.066.034-.28.06-.487.06l-.37.001.032.247c.017.135.054.38.082.545l.05.298.898-.02c.81-.018.921-.031 1.145-.13zM30.466 37.42c.751-.144 1.134-.491 1.187-1.076.012-.136-.027-.537-.089-.92l-.11-.681-.93-.013-.93-.012.027.172c.016.094.065.414.11.71l.08.54-.109.088c-.127.103-.333.084-.644-.061a.49.49 0 0 1-.297-.476.21.21 0 0 0-.065-.145c-.043-.035-.099-.336-.166-.897-.056-.464-.187-1.442-.29-2.173-.104-.732-.177-1.36-.163-1.398.034-.09.39-.25.559-.251.163-.001.29.064.338.174.02.045.103.495.185.998l.148.914-.155.015c-.086.008-.155.04-.154.07 0 .031.031.278.068.549.037.27.068.508.07.528 0 .019.497.035 1.103.035.607 0 1.103-.016 1.103-.035 0-.02-.107-.722-.237-1.56-.218-1.396-.252-1.554-.403-1.867-.344-.713-1.003-1.009-2.245-1.007-1.008.001-1.558.178-1.98.636a.913.913 0 0 0-.251.47c-.056.248-.037.4.34 2.792.44 2.788.446 2.813.837 3.204.59.59 1.947.89 3.063.677zm10.824-.067c.364-.116.677-.366.8-.637.115-.252.113-.67-.005-1.423-.202-1.287-.398-1.562-1.501-2.114-.806-.402-1.155-.63-1.301-.848-.15-.223-.249-.575-.28-.991-.022-.295-.013-.368.054-.434.257-.258.523.093.662.87l.03.176h.887c.716 0 .886-.012.886-.064 0-.035-.044-.283-.098-.551-.157-.776-.405-1.158-.925-1.421-.858-.435-2.434-.367-3 .129-.372.327-.428.733-.251 1.805.203 1.232.321 1.37 1.839 2.142.67.342.846.496.986.865.133.353.24.972.203 1.188-.045.276-.272.343-.46.135-.046-.05-.117-.306-.172-.62a31.966 31.966 0 0 0-.118-.641c-.023-.105-.027-.106-.937-.106-.709 0-.914.014-.914.06 0 .26.247 1.396.35 1.604.23.472.716.804 1.373.941.472.098 1.492.063 1.892-.065zm4.059.077c.028-.03-.006-.26-.15-.987-.018-.092-.072-.15-.183-.196-.188-.079-.203-.127-.353-1.118l-.106-.693.101-.108c.056-.059.101-.137.101-.173 0-.208-.253-1.359-.298-1.359-.081 0-.993.582-1.25.798-.287.24-.469.591-.469.904 0 .425.283 2.01.4 2.238.278.547.747.757 1.649.738.288-.005.539-.025.558-.044zM3.884 36.106l-.028-1.288.388-.014.388-.013-.195-.633-.196-.634-.219-.014-.219-.014.002-.666.002-.666-.67-2.146-.671-2.146H1.94l-.03.95c-.04 1.246-.04 8.5 0 8.541.017.017.474.031 1.016.031h.985l-.028-1.288zm4 1.255c0-.018-.62-1.987-1.38-4.374L5 28.259l-.122-.387h-.842c-.518 0-.843.017-.843.045 0 .088 2.922 9.36 2.968 9.419.034.043.27.058.885.058.461 0 .839-.014.839-.033zm2.635.011c.012-.012-.195-1.39-.46-3.06a179.97 179.97 0 0 1-.484-3.146c-.003-.202.503-.395.77-.293a.338.338 0 0 1 .168.152c.025.059.257 1.447.514 3.086.257 1.638.48 3.047.494 3.131l.027.152h.913c.838 0 .913-.006.913-.082 0-.156-1.034-6.65-1.083-6.798-.1-.306-.304-.516-.684-.704-.362-.179-.366-.18-.905-.172-.498.006-.97.089-1.281.225-.066.029-.082.012-.082-.087v-.122h-.912c-.502 0-.92.016-.93.035-.021.04 1.153 7.507 1.199 7.627.027.07.132.078.915.078.487 0 .895-.01.908-.022zm5.622-.036c0-.032-.22-1.441-.487-3.131-.353-2.225-.473-3.09-.437-3.135.09-.111.31-.198.526-.207.398-.018.348-.2.909 3.348l.499 3.16.926.013c.51.007.926.003.926-.008s-.241-1.551-.536-3.421c-.4-2.53-.561-3.45-.632-3.588-.194-.38-.69-.677-1.237-.741-.323-.038-1.056.054-1.363.17-.133.051-.247.093-.251.093a.36.36 0 0 1-.024-.106c-.015-.105-.02-.105-.941-.118-.51-.007-.927.004-.927.024 0 .059 1.169 7.482 1.197 7.6.025.105.03.105.939.105.7 0 .913-.013.913-.058zm5.349-.015c0-.097-1.169-7.533-1.196-7.608-.016-.044-.248-.059-.943-.059h-.921l.028.153c.015.083.282 1.767.592 3.74.31 1.975.577 3.648.591 3.718l.027.13h.91c.796 0 .912-.01.912-.074zm4.083.062c.006-.031.136-7.005.137-7.342l.002-.387H23.871l.029 1.044c.016.574.04 1.582.054 2.24l.024 1.196-.67-2.228-.67-2.228-.926-.013c-.558-.008-.926.005-.926.031 0 .035 2.461 7.393 2.555 7.64.017.044.286.058 1.126.058.608 0 1.105-.005 1.106-.011zm9.006-.015c0-.015-.223-1.44-.495-3.166-.381-2.422-.482-3.161-.444-3.234.058-.107.285-.125.572-.046.349.097.368.136.512 1.034.072.45.133.844.134.876.002.045.218.059.917.059h.915v-.116c0-.064-.074-.584-.165-1.156-.219-1.379-.325-1.576-1.004-1.855-.216-.089-.35-.108-.759-.109-.493 0-1.147.119-1.289.236-.045.038-.063.024-.075-.058l-.015-.108-.927-.013c-.51-.007-.927.003-.927.023 0 .063 1.179 7.54 1.198 7.6.015.045.244.06.936.06.504 0 .916-.012.916-.027zm13.277-.009c0-.019-.224-1.45-.497-3.178-.551-3.489-.543-3.454-.96-3.844-.498-.466-1.221-.69-2.226-.688-.886.002-1.34.141-1.678.515-.3.331-.322.615-.137 1.718l.079.47.886.012.885.013-.03-.153c-.085-.42-.17-.955-.17-1.075a.38.38 0 0 1 .1-.234c.082-.082.135-.094.305-.071.28.038.573.195.606.324.088.355.193 1.19.155 1.238-.047.059.147 1.19.268 1.564.038.116.132.612.209 1.102.232 1.472.38 2.195.437 2.138.082-.081.126-.058.126.067v.118h.82c.452 0 .822-.016.822-.036zm3.033-.047c-.013-.045-.24-1.47-.506-3.168-.365-2.324-.472-3.106-.434-3.166.064-.102.307-.127.555-.058.374.105.386.128.518.986.065.426.129.821.142.88.024.105.029.105.938.105.733 0 .914-.012.914-.063 0-.197-.34-2.197-.402-2.363-.097-.261-.467-.59-.808-.72-.238-.09-.335-.098-.877-.079-.45.016-.684.047-.89.119-.292.1-.354.097-.354-.016 0-.057-.15-.068-.915-.068-.841 0-.914.007-.914.083 0 .045.264 1.754.586 3.798.323 2.043.586 3.737.586 3.764 0 .032.324.049.942.049.874 0 .94-.006.919-.083zm11.225.024c-.002-.032-.05-.344-.107-.692l-.103-.633-.931-.013-.932-.013.029.177.109.705.08.528h.929c.714 0 .929-.014.926-.06zm-.389-2.346c-.015-.084-.26-1.662-.545-3.506-.285-1.845-.53-3.412-.544-3.483l-.027-.13h-.911c-.807 0-.911.01-.911.076 0 .096 1.076 7.058 1.103 7.137.015.044.246.059.941.059h.922l-.028-.153zM20.21 28.256a25.501 25.501 0 0 1-.109-.68l-.082-.549H18.15l.024.106c.013.058.062.364.11.68l.085.575h1.867l-.026-.132zm9.442-1.194c0-.032-.334-2.065-.741-4.519-.639-3.845-.755-4.48-.847-4.609l-.105-.148h-.678c-.63 0-.677.006-.677.088 0 .092 1.389 8.958 1.432 9.141.024.105.034.106.821.106.607 0 .796-.014.795-.059zm5.61-.047c-.014-.058-.352-2.087-.752-4.51-.581-3.516-.747-4.435-.825-4.561l-.098-.158h-1.407l.026.129c.042.211 1.436 9.091 1.436 9.151 0 .04.225.055.821.055h.822l-.023-.106zm6.918-.004c.15-.044.301-.124.362-.194.128-.147.23-.477.269-.874.053-.533.257-8.085.22-8.123-.02-.02-.426-.03-.901-.024l-.865.013.016 2.017.016 2.017-.357-.727c-.197-.4-.638-1.307-.98-2.017l-.625-1.29-.923-.013c-.508-.007-.923-.002-.923.01s.54 1.042 1.201 2.288c1.344 2.533 1.84 3.508 2.121 4.17.259.606.43 1.13.43 1.308 0 .128-.025.158-.199.235-.343.15-.93.282-1.264.282-.308 0-.32.004-.299.106.013.058.046.263.075.457.028.193.061.38.073.416.031.095 2.19.047 2.553-.057zm-17.864-1.476c.019-.02-.007-.278-.058-.573-.05-.296-.093-.544-.093-.55A.595.595 0 0 0 24 24.4a.376.376 0 0 1-.374-.292c-.054-.245-.213-1.315-.213-1.441 0-.137.147-.297.324-.353.077-.025.075-.07-.033-.764a18.41 18.41 0 0 0-.126-.751c-.026-.033-.47.19-.86.431-.724.449-1.071.823-1.151 1.242-.036.186.215 1.88.329 2.23.144.437.577.77 1.14.874.24.044 1.225.013 1.279-.041zm7.714-.07c.133-.068.286-.18.34-.249.226-.287.228-.265-.255-3.334a267.34 267.34 0 0 0-.476-2.97c-.14-.59-.81-1.058-1.65-1.153-.27-.03-1.079.049-1.14.112-.018.017.008.275.057.571l.09.55c0 .004.151.004.335 0 .306-.01.34 0 .421.107.069.091.173.657.464 2.508.207 1.315.376 2.458.376 2.54 0 .22-.093.271-.423.237a1.805 1.805 0 0 0-.28-.018c.005.19.202 1.093.243 1.119.032.02.196.049.365.065.168.016.338.037.377.047.038.01.26.011.492.004.345-.012.467-.037.664-.137zm5.404.082c.425-.126.711-.454.711-.813 0-.103-.2-1.46-.445-3.017-.479-3.042-.505-3.152-.817-3.426-.241-.212-.779-.448-1.16-.51-.258-.042-.443-.04-.81.004-.55.067-.513-.001-.387.728l.081.469.306-.015c.529-.027.46-.23.923 2.708.297 1.884.39 2.568.353 2.625-.038.059-.12.076-.36.073-.193-.002-.311.015-.311.047 0 .028.035.278.08.556.09.572.046.53.604.594.536.062.974.054 1.232-.023zM18.065 25.5c0-.015-.158-1.033-.352-2.262a231.79 231.79 0 0 1-.352-2.273c0-.021.248-.032.551-.025l.551.013.361 2.275.364 2.287c.002.007.457.012 1.012.012.774 0 1.009-.014 1.01-.059 0-.032-.33-2.175-.737-4.761l-.739-4.703h-1.022c-.562 0-1.022.01-1.022.022 0 .013.126.828.281 1.811.155.984.282 1.819.282 1.855 0 .052-.11.065-.539.065-.52 0-.54-.004-.563-.106-.013-.058-.14-.855-.282-1.77-.143-.916-.27-1.713-.283-1.771-.024-.106-.025-.106-1.032-.106-.881 0-1.008.01-1.008.073 0 .097 1.45 9.316 1.478 9.391.016.045.265.059 1.03.059.556 0 1.011-.012 1.011-.027zm8.786-.008c.016-.03-.426-2.885-.874-5.654-.143-.882-.27-1.205-.593-1.507-.401-.375-.839-.533-1.595-.574-1.153-.062-2.167.263-2.556.82-.13.187-.142.234-.14.586 0 .21.03.568.063.793l.062.41H23.003l-.031-.152c-.103-.5-.126-.861-.066-1.043.056-.17.078-.19.239-.203.236-.02.675.112.803.24.084.084.12.218.188.713.09.651.193 1.302.49 3.096.102.62.223 1.38.268 1.69.088.6.118.68.224.592.054-.045.071-.029.094.087l.029.141h.795c.438 0 .805-.016.815-.035zM9.684 21.71c.54-.246 1.035-.925 1.095-1.498.064-.625-.452-1.07-1.545-1.332-.2-.048-.364-.106-.364-.13 0-.046 1.117-1.994 2.124-3.704.332-.564.608-1.081.612-1.15.008-.112-.006-.121-.156-.113-.444.026-.625.007-1.011-.104-.534-.153-1.272-.51-1.658-.803a59.017 59.017 0 0 0-.394-.297c-.09-.067-.092-.06-.072.361.019.391.038.465.225.84.326.66.84 1.13 1.537 1.406.12.048.274-.239-1.355 2.535-.487.83-.93 1.632-.982 1.783-.078.221-.094.361-.08.724.014.394.035.487.17.76.184.376.498.703.77.803.289.106.751.072 1.084-.08zm42.53-1.756c.48-.243.734-.792.7-1.512-.018-.361-.042-.46-.194-.766-.165-.334-.266-.44-1.913-2.033-1.494-1.444-1.728-1.688-1.656-1.728a3.22 3.22 0 0 0 .34-.282c.562-.515.981-1.391 1.027-2.145.023-.388-.044-.834-.127-.834-.018 0-.102.107-.187.237-.483.746-2.076 1.986-2.556 1.99-.241.003-.323.05-.266.157.024.043.932.943 2.018 2 1.086 1.056 1.974 1.934 1.974 1.95 0 .017-.189.143-.42.28-.758.448-1.176.931-1.174 1.359.001.555.76 1.307 1.47 1.457.304.064.682.013.964-.13zm-15.92-5.504c.65-.12 1.123-.49 1.419-1.11.158-.333.173-.398.171-.762-.001-.314-.023-.44-.1-.587-.055-.103-.966-1.337-2.026-2.743-1.059-1.405-1.92-2.56-1.914-2.566.007-.006.148.031.315.083.776.243 1.699.308 2.273.16.44-.112 1.003-.411 1.271-.675l.24-.235.031.514c.113 1.854.738 3.614 1.43 4.02.189.111.269.129.593.129.295 0 .422-.023.59-.106.702-.346 1.135-1.11 1.205-2.127.054-.796-.206-1.207-.815-1.288-.492-.065-.89.178-1.141.7-.141.29-.284.88-.284 1.168 0 .149-.238.55-.326.55-.097 0-.375-.793-.47-1.337-.13-.752-.157-1.163-.184-2.834-.03-1.889-.053-2.057-.22-1.661-.287.678-.532.95-1.11 1.231-.514.25-.953.332-1.775.332-.963 0-1.93-.16-3.125-.52-.739-.222-.904-.154-.615.253.085.12 1.083 1.437 2.219 2.926a371.537 371.537 0 0 1 2.105 2.775c.033.055.016.063-.086.044-.264-.05-.884.054-1.182.2-.363.177-.77.578-.94.928-.114.233-.131.321-.13.689 0 .354.02.464.121.68.43.918 1.377 1.368 2.46 1.169z"/></svg>