<svg xmlns="http://www.w3.org/2000/svg" width="64" height="64"><path d="M30.072 62.942c-8.864-.537-17.125-4.915-22.616-11.984C.757 42.334-.864 30.65 3.228 20.475 5.623 14.516 9.897 9.381 15.364 5.891 19.45 3.284 23.913 1.751 29.02 1.2c1.235-.134 4.438-.152 5.638-.033 6.641.659 12.212 2.961 17.255 7.131.955.79 3.054 2.886 3.85 3.844 5.927 7.143 8.359 16.307 6.74 25.403-.815 4.584-2.789 9.137-5.6 12.918-1.746 2.35-4.113 4.717-6.446 6.445a31.014 31.014 0 0 1-20.384 6.034zm2.764-.602c.184-.096.417-.22.52-.276.5-.274 1.133-.542 1.281-.542.116 0 .224-.07.358-.232.217-.262.164-.314-.214-.21a.667.667 0 0 1-.415-.005.518.518 0 0 0-.386.003.648.648 0 0 1-.425.006c-.264-.073-.339-.044-.417.163-.08.209-.643.37-.972.28a1.89 1.89 0 0 0-.404-.066c-.237 0-.549-.298-.794-.757-.176-.331-.209-.457-.216-.839-.004-.246-.026-.466-.048-.489-.053-.052-.286.23-.29.35 0 .05-.057.183-.124.293-.137.224-.116.332.141.741.082.13.222.442.312.694.186.519.417.857.617.906.165.04.828.136 1.011.146.072.004.281-.07.465-.166zm-.397-1.316c.177-.026.38-.09.453-.14.126-.088.115-.097-.26-.24-.323-.124-.415-.192-.529-.395-.298-.53-.234-1.051.263-2.152.153-.337.277-.693.277-.791 0-.099.066-.327.146-.508.11-.25.179-.331.288-.34.172-.012.246-.113.247-.338.001-.228-.104-.274-.3-.13-.224.166-.437.567-.544 1.023-.049.21-.178.531-.288.716-.11.184-.23.389-.268.455a1.36 1.36 0 0 1-.172.227c-.419.43-.678 1-.684 1.501-.004.366.017.436.224.75.23.347.516.52.732.443.05-.019.237-.055.415-.081zm4.016-.045a.555.555 0 0 0 .126-.19c.036-.083.205-.214.4-.31.325-.158.341-.177.373-.444.037-.32.01-.27.6-1.1.248-.349.451-.662.451-.696 0-.068-.57-.372-.698-.372-.062 0-.078.102-.064.418l.019.418-.093-.241c-.165-.428-.398-.585-.309-.208.068.287.047.543-.053.66-.047.054-.102.205-.122.335-.041.27-.348.656-.611.768-.153.065-.175.06-.173-.031.003-.095.086-.35.213-.648.034-.08.016-.108-.07-.108-.14 0-.429.256-.637.565a1.308 1.308 0 0 1-.279.307c-.14.09-.601.173-1.18.212-.758.051-.804.06-.824.16-.046.244.265.295 1.444.24.235-.01.43.015.526.07.085.048.308.119.495.157l.372.077c.017.004.06-.014.094-.039zm-13.645-.265c.5-.078 1.027-.12 1.363-.108l.547.018.321-.344.618-.666c.162-.178.53-.477.815-.666.602-.396.923-.727 1.095-1.127.067-.155.2-.373.297-.483.25-.285.56-1.334.563-1.907l.001-.299-.201.14c-.264.185-.293.232-.294.48 0 .17-.02.2-.106.167-.058-.022-.19 0-.295.05a8.4 8.4 0 0 1-.741.263c-.393.123-.599.225-.71.35-.101.113-.284.212-.51.275-.337.093-.357.11-.427.361-.04.145-.058.316-.038.379.048.155-.02.242-.227.293-.212.052-.294.246-.249.587.057.421-.134.413-.718-.031-.325-.248-.493-.26-.688-.053-.08.086-.19.155-.244.154-.192-.003-.658-.254-.811-.438-.154-.184-.161-.186-.44-.112-.363.098-.463.055-.514-.217-.05-.269-.178-.35-.433-.278-.318.092-.477.064-.794-.14-.288-.185-.325-.192-.747-.157-.35.03-.533.01-.865-.09-.253-.077-.486-.112-.583-.088-.155.039-.16.055-.125.353.02.172.088.4.15.508.111.19.18.22.743.327.126.023.14.062.14.381 0 .453.138.682.71 1.178.804.7 1.552 1.063 2.19 1.065.216.001.759-.055 1.207-.125zm10.39-.392c0-.043-.08-.138-.18-.211-.11-.082-.23-.268-.31-.479-.152-.408-.16-.526-.038-.526.166 0 .54-.392.704-.738a2.92 2.92 0 0 1 .443-.636c.154-.162.447-.479.65-.705a5.34 5.34 0 0 1 .85-.728c.325-.215.46-.339.419-.381-.095-.095-1.028.423-1.373.763-.721.71-.837.814-.907.814-.04 0-.183.07-.317.154-.266.168-.58.74-.777 1.417-.172.593.008 1.07.481 1.274.273.118.356.114.356-.018zm1.972-.586l.151-.196-.24-.01a6.014 6.014 0 0 0-.52.006c-.272.017-.276.014-.169-.104.101-.112.102-.138.014-.35a.96.96 0 0 1-.066-.429c.114-.756.118-.724-.093-.724h-.192l.033.852.037.923c.002.04.08.103.174.141.093.039.24.11.324.159.183.105.305.045.547-.268zm2.838.075c.188-.08.37-.094.839-.068.33.018.646.059.704.091.084.047.156.005.346-.202l.241-.261v-.583c0-.682-.057-.801-.438-.915l-.26-.078-.369.361c-.202.199-.436.494-.52.657-.136.266-.14.3-.048.335.095.036.094.047-.01.123a.496.496 0 0 1-.25.083c-.118 0-.314.195-.483.48-.059.1-.04.098.248-.023zm-7.969-.158c0-.07-.072-.183-.16-.253-.114-.09-.153-.168-.133-.27.02-.102-.014-.173-.113-.237-.077-.05-.226-.242-.331-.427-.159-.277-.242-.353-.48-.445-.547-.208-.622.073-.204.766.134.222.244.454.244.514 0 .153.21.25.45.208.21-.037.603.147.603.281 0 .037.028.05.062.028.034-.02.062-.095.062-.165zm.447-.61c.26-.214.661-.797 1.045-1.517.146-.273.316-.562.378-.643l.113-.148.006.21c.007.208.008.208.058-.044.093-.473.319-.851.772-1.296.38-.371.592-.65.496-.65-.015 0-.146.076-.292.17-.513.329-1.447 1.435-1.898 2.247-.498.895-.843 1.47-.965 1.604-.1.112-.092.254.015.254.025 0 .147-.084.272-.187zm5.155.038c.342-.143.301-.199-.123-.172-.326.02-.398.008-.398-.069 0-.11.4-.362.51-.321.043.015.118.003.167-.029.144-.091-.041-.268-.25-.237-.119.017-.158 0-.136-.057.042-.11-.048-.103-.216.015-.172.121-.344.443-.298.561.027.071.01.076-.089.023-.17-.09-.163.043.013.23.158.168.496.191.82.056zm1.14-.477c.169.09.196.03.136-.302-.07-.378-.365-.645-.83-.749-.191-.043-.348-.099-.348-.124 0-.026.19-.156.42-.29.527-.303.728-.293 1.193.06.293.22.665.393.723.335.012-.011-.103-.135-.254-.274-.254-.234-.272-.271-.242-.494.032-.241.032-.241-.3-.385-.56-.243-.832-.238-1.319.025-.545.295-1.026.653-1.265.943-.105.128-.182.242-.17.254.012.012.183-.05.38-.137.196-.087.366-.15.376-.14.01.01-.12.169-.288.352-.335.364-.408.553-.168.434.077-.039.225-.167.33-.287l.19-.216.43.206c.236.114.422.24.415.28-.008.04.039.091.104.112.066.02.152.137.192.259.047.142.09.194.12.145.035-.057.079-.058.175-.007zm-6.596-.31c.09-.173.164-.327.164-.343 0-.015-.105-.009-.233.015l-.232.042.324-.334c.179-.184.628-.64.998-1.015.37-.375.717-.766.77-.868.052-.102.168-.253.257-.336.088-.082.16-.201.16-.263s.022-.106.048-.098c.07.023.386-.238.386-.319 0-.037-.054-.068-.12-.068-.147 0-.438.126-.438.189 0 .025-.103.064-.23.088-.499.094-1.83 1.002-2.127 1.451-.1.15-.24.429-.311.62-.158.419-.232.998-.128.998.039 0 .07.03.07.066 0 .104.317.491.402.491.042 0 .15-.142.24-.315zm9.043-.822l.36-.327-.077-.413c-.062-.338-.06-.442.007-.569.046-.085.072-.164.057-.176a6.369 6.369 0 0 0-.335-.188 4.673 4.673 0 0 1-.667-.47c-.281-.24-.42-.313-.65-.345a4.15 4.15 0 0 1-.48-.093c-.102-.03-.381-.052-.62-.05-.247.003-.542-.035-.686-.089-.327-.122-.835-.075-.876.08-.015.06-.102.141-.193.183l-.165.075.173.149a.94.94 0 0 0 .34.184c.093.02.322.102.509.183.447.194.659.251 1.355.366.326.055.693.159.836.238.24.133.256.159.258.42.001.152-.036.337-.082.412-.105.17-.016.361.192.413.08.02.178.107.217.193.04.086.093.156.12.154.026-.002.209-.15.407-.33zm-15.051-.31c.113-.048.31-.191.438-.32l.233-.232-.234-.08c-.218-.075-.247-.07-.412.068a.994.994 0 0 1-.382.187c-.318.06-.894-.072-1.378-.316l-.44-.221-.218.148-.218.148.566.29c.31.158.676.314.813.345.383.086 1.004.077 1.232-.018zm-3.762-.504a.685.685 0 0 0 .296-.271c.124-.24.269-.317.595-.317h.26l-.235-.263c-.312-.35-.799-.595-1.316-.663a3.04 3.04 0 0 1-.702-.183c-.217-.097-.602-.16-1.58-.253a30.206 30.206 0 0 0-1.616-.125c-.365 0-1.265-.263-1.521-.445-.265-.188-.318-.332-.197-.537.096-.162.096-.188 0-.373-.1-.193-.099-.204.03-.308.093-.076.133-.177.133-.341 0-.29-.14-.454-.46-.54-.132-.036-.288-.123-.346-.194-.358-.44-.36-.441-.52-.401-.09.022-.36.27-.636.582l-.479.543.025.341c.013.188.104.58.2.873l.178.532-.145.29c-.172.344-.144.39.343.566a5.56 5.56 0 0 1 1.549.866c.272.211.537.41.588.44.105.063 1.346.161 2.03.16.247 0 .762-.005 1.146-.01.486-.008.79.018 1.006.085.353.11 1.046.083 1.374-.054zm5.231-.66a1.79 1.79 0 0 0 .372-.183c.088-.061.426-.207.751-.323.325-.116.712-.294.861-.396a2.76 2.76 0 0 1 .344-.21c.11-.037.904-.756 1.6-1.45.647-.641.903-1.031 1.153-1.748.177-.51.365-1.46.365-1.846 0-.38-.173-.83-.364-.944a.677.677 0 0 1-.214-.278c-.115-.276-.212-.342-.537-.366-.27-.021-.28-.016-.295.164-.044.498-.092.607-.432.977-.192.208-.319.389-.282.401.036.012.236-.035.443-.105.207-.07.466-.127.575-.127h.199l-.498.512c-.286.293-.571.656-.669.852-.094.187-.371.55-.617.805-.246.256-.56.632-.7.836a4.872 4.872 0 0 1-.544.651c-.2.191-.369.444-.537.805-.134.29-.338.625-.453.744-.14.145-.215.289-.229.434-.01.119-.047.218-.081.22-.144.009-.513.22-.744.423l-.248.22.286.002c.156.001.38-.03.495-.07zm-1.057-.301c.13-.104.339-.37.463-.593.125-.223.344-.55.487-.727.865-1.065 1.692-2.316 1.933-2.923.351-.884.703-1.653.888-1.945.1-.157.253-.446.34-.643.087-.2.304-.515.492-.713.367-.388.552-.794.405-.888-.138-.09-.198-.047-.664.472a4.27 4.27 0 0 0-.666.958 5.898 5.898 0 0 1-.342.632c-.133.187-.588 1.189-.861 1.898-.145.376-.645 1.251-.715 1.251-.01 0-.004-.093.014-.207.028-.173-.037-.651-.187-1.372-.014-.069-.03.015-.034.185-.01.409-.408 2.098-.569 2.415-.07.137-.276.442-.46.678-.382.49-.836 1.337-.836 1.56 0 .191.026.188.312-.038zm6.787-.888c.016-.041.105-.081.198-.09.23-.018.545-.117.891-.28.221-.103.311-.19.383-.367.057-.143.154-.255.253-.292.114-.044.16-.107.16-.218 0-.2.123-.2.31-.001.157.167.305.197.417.084.094-.094.43.04.519.207.05.093.104.11.245.08.153-.034.19-.017.238.11.064.167.368.25.856.235.144-.005.345.034.446.087.263.136.562.127.562-.017a.347.347 0 0 0-.31-.333c-.134-.017-.159-.058-.188-.314-.029-.249-.083-.345-.341-.61a3.55 3.55 0 0 0-.585-.478c-.269-.16-.313-.165-1.24-.167l-.96-.003-.353.324a3.685 3.685 0 0 1-.662.481c-.17.087-.36.23-.422.318a6.893 6.893 0 0 1-.273.357c-.16.194-.428.825-.428 1.006 0 .075.025.08.128.025.07-.038.14-.102.156-.144zm3.204-.056c.092-.042.167-.091.167-.108.001-.064-.536-.363-.783-.436-.427-.126-.9.035-.807.274.023.062.14.086.402.084.27-.003.425.03.577.125.256.158.241.156.444.061zm-14.083-.79c.222-.161.59-.41.82-.553.324-.203.458-.335.608-.598.106-.185.36-.483.564-.662a3.18 3.18 0 0 0 .556-.647c.145-.253.233-.337.4-.383.224-.062.953-.57 1.179-.822.07-.08.22-.41.33-.734.11-.323.225-.635.254-.691.105-.199.198-.928.17-1.34-.033-.51-.377-1.272-.736-1.631-.252-.252-.73-.524-.986-.56-.131-.019-.156.005-.172.166-.016.167.011.202.256.321.46.223.705.488.97 1.046.136.286.265.632.287.768l.04.249h-.22c-.192 0-.27.056-.662.475-.367.393-.512.616-.84 1.29-.272.562-.473.89-.647 1.058-.14.134-.35.419-.468.633-.578 1.045-1.558 2.12-2.484 2.721-.25.164-.456.314-.457.334 0 .02.062.066.139.102.162.076.433-.058 1.1-.542zm23.087.047c.245-.247.53-.522.635-.61.18-.153.186-.175.119-.373-.115-.335-.097-.766.037-.915.103-.113.105-.133.02-.166-.143-.055-.281.044-.402.286-.084.168-.15.218-.308.233-.142.014-.201.05-.201.127 0 .138-.14.441-.204.442-.027 0-.156.116-.287.257-.198.215-.243.315-.273.6-.075.73.218.77.864.119zm-18.996-.15c.404-.34.865-1.345.867-1.89.002-.425.325-1.533.485-1.66.066-.052.163-.18.216-.285.052-.105.139-.227.192-.271.123-.102.125-.19.005-.19-.14 0-.118-.05.189-.422.156-.19.314-.463.354-.613.04-.148.172-.39.295-.54.317-.383.463-.944.461-1.77-.001-.553-.023-.695-.146-.947a1.492 1.492 0 0 0-.349-.452 1.09 1.09 0 0 1-.298-.39c-.122-.303-.248-.404-.446-.354a.364.364 0 0 1-.294-.055c-.19-.133-.344-.117-.665.068a2 2 0 0 1-.656.209c-.267.033-.498.118-.788.287-.225.132-.41.254-.412.272-.005.06.584.187.989.212.603.037.702.095.965.567.399.712.416.806.337 1.79-.083 1.024-.183 1.504-.436 2.078-.101.232-.185.468-.185.523 0 .056-.06.233-.135.393-.112.242-.137.42-.15 1.06-.011.63-.039.832-.154 1.122-.102.257-.167.346-.24.327-.221-.058-.42.09-.522.39-.125.37-.125.452.003.593.141.157.287.142.518-.052zm-6.209-.152c.351-.085 1.567-.607 2.104-.905l.39-.215.135-.462c.117-.399.166-.48.355-.592.315-.188.584-.535.342-.443-.052.02-.134.003-.182-.037-.102-.085-.146-.066-.809.343-.238.147-.536.31-.661.363l-.228.095.252-.417a5.8 5.8 0 0 1 .506-.705c.342-.385.534-.71.534-.904 0-.15-.006-.154-.113-.057-.063.056-.145.102-.184.102-.039 0-.213.175-.389.387-.175.213-.37.45-.435.527l-.117.139-.264-.118a58.079 58.079 0 0 0-.728-.315c-.256-.108-.551-.24-.656-.293-.204-.102-.48-.495-.546-.776-.047-.202-.161-.218-.318-.045-.062.069-.13.101-.149.072-.055-.084-.429-.139-.471-.07-.057.092.293.803.524 1.066.293.334.752.533 1.415.615.31.038.601.094.646.123.1.067-.081.228-.789.699-.274.182-.535.376-.58.43a.31.31 0 0 1-.21.1.41.41 0 0 0-.234.096c-.098.09-.14.08-.5-.1a13.55 13.55 0 0 1-.735-.4 2.089 2.089 0 0 0-.771-.27c-.237-.036-.44-.057-.451-.046-.021.022.515.43.805.615.141.09.16.13.109.226-.114.213-.077.652.065.781.159.144 1.343.454 1.75.458.163.001.428-.029.588-.067zm24.166-.56c.09-.107.241-.279.335-.38.093-.103.17-.252.17-.332 0-.122-.031-.145-.194-.145-.107 0-.302-.033-.434-.072-.132-.04-.256-.056-.275-.037-.02.02.01.124.067.233.056.108.089.21.073.225-.015.016-.203-.084-.417-.222-.213-.138-.432-.252-.487-.252-.054 0-.266-.098-.47-.216a25.606 25.606 0 0 0-.802-.44 6.666 6.666 0 0 1-.588-.339 1.538 1.538 0 0 0-.467-.183c-.17-.037-.4-.124-.513-.194-.113-.07-.245-.11-.295-.092a.118.118 0 0 1-.137-.044c-.083-.134-.5-.36-.542-.292-.053.087.13.423.282.516.07.042.224.237.344.433.12.196.237.356.261.356.025 0 .183.14.352.311.357.361 1.086.932 1.376 1.078.35.176.894.273 1.555.279l.64.005.166-.196zm-4.175-.834c.092-.035.092-.049-.005-.155-.057-.064-.15-.117-.204-.117-.059 0-.173-.155-.284-.384a2.779 2.779 0 0 0-.414-.614 2.239 2.239 0 0 1-.296-.36c-.05-.093-.13-.128-.288-.128-.241 0-.46-.094-.542-.232-.038-.064-.113-.078-.263-.05-.19.036-.21.026-.209-.103a.748.748 0 0 1 .091-.297c.126-.22.113-.418-.031-.495-.158-.085-.157-.265.004-.597.099-.204.113-.292.062-.387-.1-.187-.08-.305.06-.349.113-.036.122-.08.098-.453-.015-.228-.072-.502-.127-.61-.08-.154-.09-.266-.048-.53.053-.336-.006-.668-.118-.668a.632.632 0 0 0-.212.1c-.123.08-.153.152-.153.364 0 .262-.003.266-.275.334-.325.082-.49.272-.788.907-.301.643-.307 1.012-.031 1.896.12.388.242.817.27.953.044.218.097.278.445.496.217.136.613.447.88.69.306.282.559.46.688.489.113.024.289.088.391.142.265.14 1.086.24 1.299.158zm5.261-.366c.026-.067-.075-.167-.344-.341-.209-.135-.42-.246-.468-.246-.049 0-.289-.067-.533-.15a10.273 10.273 0 0 0-.94-.254c-.272-.058-.646-.15-.83-.203l-.336-.098.211-.076c.202-.073.19-.077-.262-.081a2.99 2.99 0 0 1-1.698-.537c-.378-.258-.771-.414-.771-.304 0 .045.558.588.605.588.013 0 .422.193.909.43 1.056.512 1.113.53 3.566 1.123.29.07.553.153.586.185.09.09.264.07.305-.036zm-31.034-.677c.003-.13.583-.95.761-1.077.191-.136.244-.24.42-.828.124-.416.093-.545-.133-.545-.142 0-.153-.013-.083-.098.138-.166.537-.336.79-.336.282 0 .338-.054.652-.637.202-.373.278-.602.201-.602-.014 0-.244.13-.511.29l-.485.291-.914.06c-.868.058-1.497.02-1.794-.11-.08-.035-.126.002-.193.16a1.541 1.541 0 0 1-.34.431c-.27.24-.371.534-.292.845.024.094.066.509.094.922.027.414.084.818.126.899.131.254.324.425.48.425.182 0 .828.18.906.252.057.053.312-.224.315-.342zm32.681-.025c.19-.2.553-.515.81-.703.82-.598.95-.852.775-1.527-.055-.212-.083-.413-.062-.446.094-.153-.135-.523-.642-1.037-.88-.893-1.108-1.158-1.274-1.486-.134-.264-.2-.325-.439-.407-.34-.116-.358-.065-.132.381.093.183.138.355.118.457-.02.107.024.256.13.437a1.1 1.1 0 0 1 .161.525c0 .283.073.37.338.4.245.028.577.572.62 1.015.017.169.047.409.067.533.05.3-.134.664-.551 1.095-.368.38-.98.702-1.29.677-.144-.011-.207.013-.222.084-.027.13.333.303.542.263a.652.652 0 0 1 .31.032c.29.116.393.076.741-.293zm-30.114-.117c-.07-.092-.069-.097.005-.031.095.084.41.106.454.03.016-.025-.023-.24-.085-.48-.116-.442-.158-1.022-.075-1.02.026 0 .112.151.192.335.134.31.52.779.64.779.08 0 .06-.394-.041-.783-.092-.354-.05-.772.088-.857.03-.018.04-.194.022-.39-.043-.487.07-.864.335-1.114.119-.113.237-.28.261-.374.034-.126.144-.22.435-.37l.389-.202-.042.387a6.307 6.307 0 0 1-.228.977c-.257.813-.253.791-.127.643.061-.072.183-.17.27-.217.247-.133.781-.783 1.024-1.245.374-.711.862-1.04 1.544-1.04a.913.913 0 0 0 .353-.109c.148-.08.342-.108.76-.108.517 0 .584-.015.836-.18.218-.146.332-.179.568-.168.288.013.296.009.296-.166 0-.357-.1-.383-1.366-.361-.673.011-1.215.05-1.318.091-.24.098-.941.09-1.145-.013-.104-.052-.501-.099-1.048-.123-.858-.037-.883-.034-.976.099a.611.611 0 0 0-.095.297c0 .206-.177.367-.68.618-.22.11-.478.283-.573.385-.153.164-.172.23-.172.6 0 .38-.03.477-.343 1.107-.294.594-.398.74-.747 1.049-.606.536-.71.828-.464 1.31.142.277.196.326.632.567.392.216.548.244.421.077zm29.154-.461c.17-.043.352-.17.594-.415.31-.314.353-.389.386-.674.034-.28.02-.345-.11-.498a1.082 1.082 0 0 1-.192-.357c-.045-.178-.327-.585-.406-.585-.021 0-.05.209-.063.464-.023.46-.025.465-.327.772-.19.192-.41.345-.583.404-.369.126-1.331.124-2.07-.004-.338-.058-.687-.082-.851-.059-.335.049-.57.048-.889-.003-.19-.03-.25-.073-.3-.217-.056-.16-.09-.18-.328-.18-.587 0-.445.406.213.604.22.067.576.105.994.108.66.005 1.251.1 1.403.226.046.038.084.053.084.033 0-.02.146.033.325.116.18.083.397.152.483.152.087 0 .19.033.23.072.166.166.832.186 1.407.04zm-22.365-.174c.022-.034.093-.062.159-.062.143 0 .143-.014.028-.65-.111-.62-.117-.797-.022-.738.051.031.059 0 .027-.105a6.79 6.79 0 0 1-.113-.645c-.052-.37-.115-.563-.25-.763-.205-.303-.52-.522-.677-.472-.058.018-.211-.037-.34-.122a3.322 3.322 0 0 0-.454-.245c-.311-.13-.569-.01-.79.368-.093.16-.281.416-.418.571-.225.256-.234.277-.093.235.275-.083.636-.152 1.323-.254.635-.094.68-.094.792.008.264.239.349.48.422 1.2.068.674.18 1.487.226 1.658.026.093.127.102.18.016zm-1.77-.53c.326-.294.483-.7.397-1.024-.069-.256-.066-.257.237-.047.225.156.3.143.3-.052 0-.2-.487-.696-.698-.711-.553-.04-.801.024-1.244.317-.47.311-.643.474-.574.543.023.023.131-.012.241-.078.179-.106.608-.195 1.129-.233.15-.01.19.014.205.125.02.14-.063.236-.505.59-.256.205-.351.217-.304.037.031-.12.017-.128-.146-.088a1.264 1.264 0 0 0-.32.135c-.164.106-.12.242.148.453.192.151.36.162.595.04l.169-.088-.099.15c-.095.147-.093.151.064.151.098 0 .257-.086.406-.22zm17.022.063c.02-.053-.012-.222-.072-.377-.105-.277-.104-.647.004-1.092.032-.132.02-.17-.057-.17-.054 0-.135-.072-.18-.159-.082-.156-.084-.153-.197.202-.129.41-.146 1.108-.032 1.328.178.345.451.482.534.268zm-14.242-.602c.073-.192.067-.21-.125-.367-.111-.091-.212-.156-.224-.143-.069.068-.007.488.086.591.147.162.174.154.263-.08zm20.569-.132c.418-.267.53-.435.56-.845.024-.34.016-.37-.099-.37-.084 0-.147.062-.191.188-.088.253-.264.468-.529.648-.435.295-.465.302-.598.134-.137-.174-.621-.475-.765-.475-.053 0-.187.056-.299.124-.244.148-.378.156-.484.028-.06-.072-.062-.113-.007-.167.109-.11.087-.153-.099-.2a1.917 1.917 0 0 1-.444-.223c-.151-.1-.303-.181-.337-.181-.101 0-.908-.432-1.287-.688a5.187 5.187 0 0 1-.63-.517c-.155-.156-.298-.282-.318-.282-.02 0-.035.063-.035.14 0 .21 1 1.173 1.393 1.343.17.073.365.186.434.25.068.064.254.173.413.24.159.068.305.176.325.24.02.063.162.22.316.348.336.28.833.392 1.813.404.572.008.66-.006.868-.139zm-10.494-.112c.092-.264-.052-.62-.48-1.183-.44-.58-.626-.876-.692-1.098-.081-.278-.213-.371-.526-.371-.16 0-.375.029-.477.064-.26.09-.824-.127-1.133-.436l-.233-.233-.04.338c-.022.185-.023.363-.003.396.02.032.145.114.279.182.277.141.454.374.41.537-.121.445-.12.453.1.453.232 0 .663.341.663.525 0 .059.08.18.175.27.096.091.202.214.235.273.087.157 1.047.477 1.386.462.24-.01.285-.035.336-.18zm4.43-1.727c.042-.14.06-.329.039-.42-.02-.093 0-.349.046-.57.062-.297.07-.551.028-.989-.03-.324-.06-.882-.066-1.242-.008-.54.01-.682.103-.826.092-.14.144-.166.27-.134a.279.279 0 0 0 .269-.06c.073-.066.124-.078.15-.034.056.09.364.083.456-.009.04-.04.074-.15.074-.244 0-.096.068-.244.155-.338.19-.205.192-.248.015-.353l-.468-.28c-.182-.109-.38-.197-.44-.197-.062 0-.272.085-.467.19-.265.14-.42.184-.609.17l-.254-.02-.081.398a5.526 5.526 0 0 1-.338.954c-.247.537-.254.567-.186.862.039.168.072.45.073.626.002.176.047.432.1.568.053.136.116.54.139.899.043.679.203 1.164.37 1.128.148-.031.31.052.351.18.055.173.175.059.27-.26zm4.157.182c.569-.187.93-.417.93-.592 0-.045-.012-.082-.026-.082a.538.538 0 0 1-.113-.033c-.048-.018-.193.051-.323.155-.14.112-.31.188-.416.188-.1 0-.28.042-.401.093-.122.05-.247.077-.278.057-.03-.019-.108-.017-.173.003-.109.035-.11.051-.026.221.05.101.124.184.164.184.04 0 .338-.087.662-.194zm2.596-.105c.04-.073.038-.196-.004-.356a4.31 4.31 0 0 1-.096-.507c-.016-.145-.052-.263-.078-.263-.104 0-.321-.642-.312-.922.022-.644-.002-1.184-.06-1.335-.048-.128-.102-.16-.267-.16-.173 0-.254-.054-.5-.34l-.295-.341-.414.035c-.39.034-.476.014-1.39-.308l-.976-.344-.093.142c-.089.136-.209.908-.141.908.018 0 .14-.045.272-.101.295-.125.643-.21.642-.155 0 .022-.099.103-.22.181-.209.136-.394.41-.323.481.018.019.137-.036.264-.122.217-.147.272-.156.9-.139.498.014.708.045.827.123a.63.63 0 0 0 .25.104c.112 0 .414.376.366.454-.02.033-.255.04-.557.015l-.522-.042.103.157c.13.198.4.362.824.5.43.14.711.39.811.724.044.146.132.332.197.414a.691.691 0 0 1 .117.373c0 .23.196.627.31.627.037 0 .048.064.025.155-.034.135-.019.155.12.155.091 0 .186-.049.22-.113zm-3.994-.267c-.1-.106-.28-.234-.399-.284-.228-.096-.53-.349-.625-.526-.063-.116.247.005 1.08.42.424.211.599.258.599.161 0-.085-.264-.299-.54-.438-.29-.145-.278-.067-.138-.887.041-.242.1-.41.14-.403.039.007.08-.052.092-.132.012-.08.102-.19.202-.248.23-.132.282-.257.105-.257-.104 0-.117-.017-.06-.075a.313.313 0 0 0 .075-.193c0-.094-.03-.11-.14-.077a3.382 3.382 0 0 1-.22.058c-.14.028-.459.365-.548.577-.047.114-.084.422-.084.71v.508l-.48-.46c-.351-.336-.475-.496-.463-.594.01-.074-.01-.151-.041-.171-.07-.043.006-.346.19-.768.134-.31.193-.909.08-.814-.036.03-.146.222-.244.428-.172.359-.19.375-.408.375-.349 0-.4.106-.4.834v.63l.403.437c.503.547.998.949 1.466 1.19.476.245.59.245.358 0zm-11.456-.381c.176-.151.269-.482.274-.974.002-.153.045-.358.095-.455.111-.213.105-.227-.468-1.032a7.777 7.777 0 0 1-.668-1.162c-.32-.738-.757-1.394-1.05-1.575-.205-.127-.338-.146-1.312-.188l-1.085-.047-.372.175a5.218 5.218 0 0 0-.837.548 6.334 6.334 0 0 1-.93.607 5.153 5.153 0 0 0-.692.412c-.289.228-.813.463-1.15.517-.31.05-.443.176-.74.706l-.223.395.346-.028c.245-.02.419-.08.596-.202.196-.136.292-.165.452-.135.614.116.645.115.912-.021.237-.121.322-.131.788-.092.592.049.764-.03.764-.349 0-.239.112-.329.676-.546.523-.202.757-.242.984-.167.194.064.57.11.757.092.546-.05.598-.033.993.35.684.664 1.284 1.703 1.404 2.432.018.113 0 .327-.042.476-.042.149-.058.3-.035.337.071.116.392.073.563-.074zm14.127-.08c.128.032.151.01.186-.175.071-.381.037-.426-.524-.684-.116-.054-.219-.09-.228-.081-.027.027.11.554.215.833.076.2.111.238.152.165.035-.063.103-.083.2-.058zm-1.03-.128c.071-.09.129-.205.129-.256 0-.223-.16-.592-.356-.82-.235-.276-.398-.336-.236-.088.093.141.28.663.281.785.002.108-.21.033-.436-.155-.22-.183-.342-.361-.176-.26.038.024.02-.03-.038-.12-.133-.202-.2-.204-.29-.007a.325.325 0 0 0 .002.314c.05.11.052.146.004.116-.042-.026-.06.001-.046.072.053.278.716.51.911.319.064-.062.07-.044.037.093-.054.218.046.222.214.007zm8.107-1.161c.599-.3.975-.423 1.728-.565.648-.122.898-.229 1.218-.522.143-.13.371-.293.508-.363.384-.194 1.217-1.223 1.36-1.68.04-.124.03-.143-.058-.109a.832.832 0 0 1-.246.04c-.098 0-.195.08-.313.258-.145.22-.179.242-.229.154-.032-.058-.084-.088-.115-.069-.032.02-.392.005-.8-.033-.65-.06-.765-.055-.935.033-.149.077-.283.09-.58.058-.423-.045-.449-.027-.716.498-.083.163-.123.183-.323.166-.25-.022-.372.097-.457.443-.087.352-.356.245-.599-.237a2.164 2.164 0 0 0-.22-.357c-.104-.118-.355-.146-.417-.046-.081.131-.34.057-.548-.158-.193-.199-.266-.328-.373-.663-.025-.077-.1-.109-.258-.109-.387 0-.474-.086-.451-.45.021-.346.016-.35-.465-.448a.615.615 0 0 1-.293-.173c-.452-.523-.543-.595-.895-.697-.199-.058-.433-.177-.52-.264-.228-.228-.564-.446-.687-.446-.204 0-.392.725-.255.982.04.073.179.188.31.254.304.156.33.235.185.558-.168.375-.148.628.094 1.186.424.978 1.095 1.788 1.693 2.046.162.07.71.237 1.216.372.522.14 1.058.325 1.239.428.175.1.395.183.49.183.094 0 .415-.121.712-.27zm-38.616-1.19c0-.396-.018-.46-.186-.662-.102-.122-.23-.24-.285-.26-.112-.04-.242-.29-.242-.466 0-.087-.052-.122-.201-.137-.164-.015-.225-.065-.33-.267-.093-.182-.171-.253-.294-.267-.18-.022-.217.055-.08.169.152.126.176.475.056.815l-.111.315.186.153c.102.085.4.363.661.62.398.39.504.463.65.446.174-.02.176-.024.176-.459zm1.937-.739c.498-.117.881-.314 1.347-.69.536-.433 1.219-1.137 1.361-1.404.068-.126.158-.229.2-.229.111 0 .396-.471.353-.583-.03-.077-.081-.063-.294.075-.141.092-.267.188-.278.214-.011.025-.078.046-.148.046a.802.802 0 0 0-.322.12 1.95 1.95 0 0 1-.494.189 1.927 1.927 0 0 0-.556.242 4.02 4.02 0 0 1-.54.3c-.155.068-.401.21-.546.315a2.57 2.57 0 0 1-.584.296c-.177.059-.46.2-.63.314-.339.227-.404.198-.247-.107l.103-.197-.207.039c-.114.021-.326.057-.47.078-.347.05-.351.21-.016.58.136.15.248.297.248.325 0 .178 1.083.227 1.72.077zm28.466-.928c-.223-.255-.257-.34-.384-.989-.077-.39-.122-.78-.1-.868.034-.136.02-.157-.109-.157-.081 0-.18-.04-.22-.087a.761.761 0 0 0-.244-.158c-.146-.06-.274-.042-.807.112-.833.242-.935.311-.945.645a6.819 6.819 0 0 1-.022.396c-.012.112.094.188.677.48.51.256.76.346.951.346.224 0 .26-.018.26-.131s.015-.12.099-.05c.054.044.144.18.201.3.077.164.173.246.382.326.483.184.539.15.261-.165zm-24.835-.14c.098-.049.316-.13.484-.18.226-.067.421-.2.751-.51.245-.23.603-.508.795-.617.428-.241.46-.28.511-.63.023-.153.142-.58.264-.95.177-.535.216-.738.193-.992-.037-.394-.229-.902-.495-1.31-.166-.254-.256-.327-.497-.403-.28-.089-.294-.103-.294-.323 0-.156-.044-.27-.136-.356-.293-.273-.428-.072-.377.562.023.284.006.458-.058.586-.05.1-.095.344-.101.542-.01.303.01.379.121.47.125.1.127.118.04.286-.086.163-.084.192.017.336.062.087.13.246.152.354.032.159.01.223-.117.34l-.156.146.124.275c.166.37.14.474-.116.448-.15-.015-.23.015-.313.117-.08.098-.2.145-.43.167-.24.023-.329.06-.356.145-.02.063-.114.17-.209.238-.097.069-.277.338-.414.616-.185.378-.273.496-.372.5a.398.398 0 0 0-.238.123c-.104.114-.102.12.068.143.303.042.973-.028 1.16-.122zm33.75-.21c.306-.132.307-.133.166-.229a1.322 1.322 0 0 1-.172-.133c-.017-.02-.226-.036-.465-.035-.398.002-.463-.016-.789-.228a3.18 3.18 0 0 1-.641-.6c-.263-.339-.3-.364-.443-.31a.51.51 0 0 1-.284.02c-.099-.032-.069.033.135.292.474.602.827.92 1.267 1.14.507.253.786.272 1.226.083zm-39.804-.02c.168-.086.41-.152 1.88-.507 1.041-.252 1.22-.315 2.198-.785.692-.332 1.006-.522 1.239-.745l.311-.3-.225.031c-.124.018-.347.125-.496.238-.484.37-.995.558-1.658.608-.327.025-.534.05-.459.054.075.005.152.036.173.069.038.063-.294.165-1.114.342-1 .216-1.822.535-2.254.876-.013.01-.006.061.014.114.046.12.166.121.391.005zM34.1 41.95c.162-.133.601-.402.977-.598.376-.195.793-.454.927-.574.305-.276.621-.897.787-1.546.165-.645.16-.815-.028-1.092-.195-.288-.195-.43 0-.557a.509.509 0 0 0 .192-.253c.051-.207-.194-.714-.346-.714-.109 0-.496.384-.496.493 0 .03-.105.117-.232.194-.356.212-.515.375-.618.633a.65.65 0 0 1-.331.355c-.3.153-.318.186-.23.418.087.232.01.353-.263.408-.145.028-.185.07-.185.189 0 .213-.108.476-.265.643-.101.108-.173.132-.308.103-.23-.051-.324.036-.42.391-.043.162-.122.343-.174.404-.09.105-.109.096-.323-.153-.212-.247-.238-.26-.39-.19-.146.067-.174.059-.261-.075a1.046 1.046 0 0 0-.254-.25c-.142-.094-.175-.095-.4-.004a.959.959 0 0 1-.475.062c-.16-.024-.38.014-.713.124-.265.087-.521.159-.57.159-.048 0-.112.042-.14.095-.047.083-.07.078-.168-.031-.117-.128-.53-.182-.53-.07 0 .1.82.801 1.082.928.983.474 1.087.503 1.867.505.503.002.886.04 1.203.118.68.168.752.16 1.085-.115zm-24.257-.112c.39-.04.63-.167.576-.307-.026-.065-.094-.085-.229-.064-.302.046-.877-.258-1.285-.68-.435-.45-.575-.735-.52-1.06a4.03 4.03 0 0 0 .043-.514c.006-.473.375-1.048.672-1.048.218 0 .309-.142.309-.483 0-.157.048-.305.136-.416a.578.578 0 0 0 .125-.396c-.006-.13.058-.37.154-.578.09-.196.15-.37.133-.388-.04-.039-.424.086-.536.174-.045.035-.133.17-.195.3-.13.267-.647.875-1.254 1.472-.49.483-.669.765-.67 1.055 0 .117-.032.37-.071.56-.122.592.013.828.813 1.418.257.19.624.51.817.712.296.31.374.36.496.322.08-.024.298-.06.486-.08zm44.678.025a1.15 1.15 0 0 0 .341-.099c.064-.037.45-.167.858-.289 1.671-.497 2.357-.998 3.34-2.438.468-.684.576-1.128.383-1.567a2.185 2.185 0 0 1-.127-.494c-.028-.214-.07-.302-.158-.33a.636.636 0 0 1-.215-.133c-.124-.124-.26-.066-.352.148-.153.355-.3.504-.595.602a2.16 2.16 0 0 0-.444.201c-.14.098-.14.106-.028.15.066.026.247.049.404.051.328.005.71.12.634.192-.028.027-.276.137-.55.244a4.689 4.689 0 0 0-.913.506c-.228.171-.672.42-.987.555a9.65 9.65 0 0 0-.98.491 6.37 6.37 0 0 1-.796.4 2.444 2.444 0 0 0-.774.51c-.225.21-.5.4-.661.456-.198.07-.3.15-.36.281-.073.163-.116.186-.371.196-.334.014-.878.132-.877.191 0 .023.076.086.17.14.145.086.366.098 1.502.084.733-.01 1.433-.032 1.556-.048zm-3.203-.678c.065-.033.289-.186.496-.339.207-.153.516-.348.687-.434.443-.223 1.596-.911 2.12-1.264.245-.166.775-.625 1.177-1.019.401-.395.897-.832 1.102-.973.204-.14.498-.373.652-.517.155-.145.487-.361.737-.481.604-.29.836-.494.747-.659-.07-.13-.184-.157-.28-.067-.033.03-.3.158-.594.283a3.335 3.335 0 0 0-.867.523 9.221 9.221 0 0 1-.612.495c-.153.11-.655.555-1.115.99-.46.435-1.013.91-1.228 1.055l-.39.264.129-.254c.071-.14.174-.456.23-.702.054-.246.137-.524.184-.618.048-.094.072-.17.055-.17-.017 0-.105.146-.196.325-.235.467-1.215 1.785-1.494 2.008-.13.105-.36.254-.513.331-.64.326-1.61 1.11-1.61 1.301 0 .076.386.025.583-.078zm-40.037-.255c.127-.055.288-.1.359-.1.07 0 .19-.04.265-.09.356-.23 1.287-.433 1.804-.391.714.057 1.531-.2 1.574-.494.044-.301-.541-.326-.685-.029-.105.216-.35.273-.984.228a4.582 4.582 0 0 0-1.143.065c-.783.134-1.75.105-2.095-.063a2.265 2.265 0 0 1-.51-.398c-.265-.276-.271-.292-.271-.698 0-.229-.024-.43-.053-.448-.08-.05-.307.22-.388.461a1.78 1.78 0 0 1-.217.41c-.116.157-.14.256-.124.501.02.273.058.343.355.653.37.385.543.473 1.046.533.398.047.744.002 1.067-.14zm35.922-.53c.118-.178.537-.243.742-.115.18.113.197.042.07-.306a1.821 1.821 0 0 0-.864-1.001c-.193-.105-.441-.3-.552-.435-.195-.238-1.143-.799-2.772-1.64-.516-.266-1.06-.704-1.3-1.047-.142-.202-.117-.437.063-.593.132-.116.15-.171.117-.352-.034-.181-.023-.215.07-.215.202 0 .4-.249.4-.502 0-.195-.04-.264-.25-.439-.19-.158-.259-.265-.287-.454-.047-.3-.178-.464-.373-.464-.08 0-.427.14-.77.312-.74.372-.78.438-.868 1.388-.057.617-.06.626-.304.86-.136.13-.247.257-.247.282 0 .024.232.285.516.58.372.387.599.691.81 1.09.406.764.547.912 1.067 1.122.242.098.567.275.722.393.24.183.992.478 1.218.478.133 0 .842.389 1.203.659.314.234.597.355 1.125.478.148.034.42-.012.464-.079zm-29.944-.082c.07-.076.158-.2.197-.274.105-.205.082-.873-.045-1.28l-.113-.36-.104.16c-.058.087-.15.159-.203.159-.06 0-.085.035-.064.089.19.494.191.924.004 1.285-.074.143-.079.203-.021.272.103.125.202.11.35-.05zm12.86-.489c.231-.066.446-.105.478-.085.031.02.178.005.325-.032.192-.048.297-.119.372-.25l.104-.182h-.4c-.267 0-.4.025-.4.074 0 .04-.076.002-.17-.085a.908.908 0 0 0-.414-.195 1.843 1.843 0 0 1-.555-.23 2.083 2.083 0 0 0-.635-.247 7.36 7.36 0 0 1-.809-.204 6.063 6.063 0 0 0-.824-.196 3.463 3.463 0 0 1-.758-.226c-.23-.1-.627-.215-.883-.255-.256-.041-.466-.093-.466-.115 0-.044.524-.278.7-.312.228-.045.098-.148-.28-.224-.303-.06-.423-.119-.544-.264-.185-.223-.246-.229-.422-.042-.096.102-.133.22-.133.418 0 .152-.004.387-.01.524-.016.363.128.583.731 1.112.615.54 1.334.928 1.91 1.032 1.065.193 2.385.186 3.084-.016zm-17.678-.148c.606-.107.705-.161 1.061-.584.145-.172.31-.312.369-.312.058 0 .232-.097.388-.216.155-.119.42-.28.586-.356.386-.179 1.352-1.169 1.293-1.324-.032-.084-.1-.046-.364.202-.178.168-.45.39-.603.493-.357.24-1.162.675-1.363.737-.085.026-.22.097-.298.159-.174.136-.82.35-1.162.384-.29.03-.956.427-.956.57 0 .139-.06.12-.478-.152-.297-.193-.41-.312-.524-.555-.103-.22-.181-.31-.27-.311-.118-.003-.124.024-.092.367.04.41.213.655.62.872.275.146 1.05.158 1.793.026zm20.396-.082c.344-.219.66-.6.91-1.098l.189-.377h-.27c-.256 0-.276.013-.383.253-.135.304-.534.754-.783.882a.548.548 0 0 1-.328.056c-.108-.027-.148-.011-.148.058 0 .052-.056.143-.125.201-.116.1-.117.11-.016.15.268.106.673.053.954-.125zm19.268-.135c.081-.042.355-.261.607-.486.335-.298.502-.501.615-.75.188-.412.972-1.364 1.123-1.364.06 0 .186-.072.28-.16.095-.087.242-.185.326-.217.12-.046.138-.077.084-.142-.085-.103-.035-.148.406-.37.175-.088.4-.258.498-.377.098-.12.32-.295.492-.39.522-.287 1.058-1.042 1.286-1.81.138-.463.126-.69-.058-1.127-.108-.255-.146-.433-.12-.552.028-.13.005-.208-.09-.303-.07-.07-.163-.128-.205-.128-.043 0-.16-.087-.26-.194-.18-.19-.192-.193-.605-.154-.315.03-.481.014-.654-.058-.184-.077-.354-.088-.838-.054-.57.04-.597.048-.464.137.078.052.214.161.303.243.09.082.331.229.538.326.51.242.57.351.611 1.126l.035.642-.343.681c-.48.952-.794 1.415-1.305 1.924-.945.942-.944.94-1.348 1.886-.15.35-.728 1.038-.792.941-.02-.03-.124-.07-.232-.092-.174-.034-.225-.007-.453.241-.192.209-.252.321-.238.445.036.306.369.362.8.136zm-20.334-.657c-.197-.216-.897-.538-1.502-.693-.491-.126-.764-.3-1.647-1.05l-.272-.23.14.278c.077.153.183.328.236.387.062.07.07.109.022.109-.12 0-.807-.352-1.402-.717a8.415 8.415 0 0 0-.806-.446 10.205 10.205 0 0 1-.635-.307 4.394 4.394 0 0 0-.917-.318c-.52-.112-.53-.112-.593.005-.076.143.055.267.349.329.102.021.497.19.878.374.38.185.715.338.744.34.045.003.607.332 1.409.825.316.194 1.319.563 2.309.85.347.1.752.237.898.304.158.071.405.121.603.122l.336.002-.15-.164zm-8.137-.48l.318-.426-.005-.618c-.005-.564.006-.628.13-.728l.134-.109-.152-.142c-.177-.166-.197-.412-.056-.685.093-.18.09-.194-.098-.43-.107-.135-.208-.246-.225-.246-.017 0-.012.083.01.185.03.138-.003.264-.133.502-.143.264-.228.343-.5.463-.369.163-.467.324-.375.616.032.102.056.465.053.806-.005.667.053.97.222 1.157.175.193.338.11.677-.345zm37.864.21c.118-.235.095-.647-.075-1.352-.086-.351-.155-.818-.155-1.037 0-.312-.026-.425-.12-.52-.124-.123-.491-.25-.727-.25-.27-.001-.798-.604-.885-1.006l-.043-.203-.166.323c-.091.178-.166.352-.166.388 0 .035.084.18.186.321.215.297.233.515.062.734-.161.206-.155.276.034.362.183.083.362.44.379.753.03.558.14.751.697 1.226.438.374.562.45.715.434a.306.306 0 0 0 .264-.173zm-13.613-.468c.187-.046.616-.127.952-.18.535-.086.657-.13.97-.35a3.21 3.21 0 0 1 .735-.368c.4-.124.593-.22.921-.459.156-.113.255-.139.437-.114.148.02.464-.029.852-.13.51-.135.647-.197.796-.363.1-.11.378-.414.62-.673.242-.26.565-.692.718-.96l.279-.489v-.712c-.001-.637-.019-.75-.162-1.057-.165-.354-.485-.763-.677-.865-.085-.046-.132-.024-.212.098-.1.152-.096.164.087.372.358.409.459.685.487 1.342.015.331.008.7-.014.82-.04.215-.042.216-.31.179-.233-.032-.35.001-.876.25-.402.191-.726.398-.956.612-.6.556-1.03.863-1.313.933-.092.023-.37.194-.617.38-.99.746-2.22 1.292-3.361 1.493-.27.048-.504.101-.521.119-.018.017.019.088.08.157.097.105.163.119.43.087a6.75 6.75 0 0 0 .655-.122zm-34.616.05c.014-.026.045-.124.067-.22.04-.163.031-.17-.161-.158a.748.748 0 0 1-.339-.06.88.88 0 0 0-.347-.073c-.143 0-.29-.061-.447-.186-.244-.194-.368-.23-.434-.123-.08.13-.147-.011-.082-.174.089-.219.29-.942.262-.942-.011 0-.173.067-.358.149-.41.18-.5.32-.415.64.034.128.076.303.093.388.033.16.24.256.996.463.17.047.45.14.62.207.338.134.505.16.545.089zm3.684-.14c.05-.078.145-.124.259-.124.162 0 .194-.034.309-.343.09-.242.128-.489.128-.838 0-.314.036-.58.099-.726.088-.208.221-1.137.226-1.585.001-.097-.1-.376-.225-.62a3.844 3.844 0 0 1-.307-.875l-.08-.434-.252.019c-.184.014-.349-.031-.615-.168a3.018 3.018 0 0 0-.457-.202c-.05-.008-.308.109-.57.26-.495.286-.59.432-.362.554.071.038.139.161.163.297a.93.93 0 0 0 .104.309c.075.094.395.102.451.011.027-.044.076-.034.146.03a.439.439 0 0 0 .285.08c.367-.027.446.523.29 2.007-.066.621-.067.837-.007 1.054.042.15.072.434.068.632-.008.346.115.786.22.786.028 0 .085-.056.127-.124zm-6.698-.138c-.026-.097.011-.188.124-.305.11-.116.17-.258.191-.466.018-.164.068-.34.112-.392.044-.05.14-.252.213-.448.15-.398.304-.535.787-.693.38-.124.681-.318.816-.525l.097-.148-.405.044c-.223.023-.479.025-.569.002l-.163-.04.168-.212c.093-.115.218-.21.28-.21.06 0 .191-.06.29-.133.151-.112.232-.127.508-.094.193.023.408.01.524-.033.173-.062.238-.05.543.105.191.096.365.157.386.136.068-.067-.146-.332-.388-.482-.127-.078-.201-.152-.165-.165.057-.018.472.111.84.263.129.053.137-.043.044-.533-.102-.54-.09-.539-1.2-.15-.983.344-1.257.394-1.555.28-.175-.066-.202-.046-.63.453-.144.168-.245.229-.38.229-.242 0-.297.082-.35.526-.05.407-.05.41.004.888.031.286.01.382-.156.72-.106.215-.192.462-.192.55 0 .087-.025.173-.054.192-.084.051-.13.543-.064.667.034.064.13.112.22.112.135 0 .154-.021.124-.138zm3.888-.203c.687-.303 1.849-1.365 1.966-1.796.082-.301.018-1.143-.094-1.258-.044-.044-.183-.087-.31-.095-.209-.013-.241-.041-.375-.322-.08-.17-.19-.364-.243-.432-.094-.118-.098-.113-.1.124 0 .136.081.46.182.72.152.39.177.524.143.774-.036.269-.083.342-.416.654-.523.49-.56.488-.538-.024.01-.228-.012-.509-.05-.623-.089-.27-.478-.64-.726-.693-.242-.05-.323.053-.173.218.104.115.103.12-.023.12-.164 0-.12.163.06.22.067.022.155.113.195.204a.78.78 0 0 0 .146.227c.04.034.103.261.14.505.036.244.08.48.098.527.02.053-.089.146-.304.258-.784.41-.64.623.16.237.7-.337.98-.447.98-.382s-.235.254-.645.518c-.258.166-.553.474-.454.474.017 0 .188-.07.381-.154zm16.827.063c.12-.144.022-.38-.218-.528-.219-.135-.525-.133-.525.004 0 .191-.786-.435-1.03-.82-.145-.23-.578-.577-1.323-1.06-.258-.167-.605-.492-.967-.905-.6-.683-.662-.815-.746-1.569-.039-.342-.033-.36.17-.562.115-.114.251-.234.303-.265.051-.032.17-.162.266-.29l.172-.23-.39.037c-.238.023-.49.095-.648.185a1.174 1.174 0 0 1-.474.148c-.218 0-.308.06-.628.417-.176.197-.18.214-.164.832.013.518.041.682.16.916.184.364.916 1.107 1.136 1.153.17.035.368.125.755.34.12.066.336.15.482.186.146.035.251.088.234.116-.035.056.433.253.6.253.11 0 .523.335 1.1.891.698.672 1.509 1.024 1.735.751zm3.961-.19c.22-.102.498-.321.805-.635.328-.334.599-.545.896-.695.265-.134.507-.314.64-.476.118-.143.335-.33.482-.417.337-.198.48-.43.647-1.057.084-.314.245-.682.44-1.003.17-.279.308-.522.308-.541 0-.02-.11-.104-.245-.19-.212-.133-.262-.21-.371-.573-.158-.525-.33-.81-.513-.847a57.128 57.128 0 0 1-.617-.134c-.6-.133-.67-.108-.67.238 0 .19-.046.33-.155.479-.086.115-.155.261-.155.324 0 .156.292.44.407.395.065-.025.103.02.13.153.02.104.103.232.184.285a.309.309 0 0 1 .146.265c0 .23-.443.875-.797 1.16-.95.769-1.691 1.478-1.871 1.793-.107.186-.272.397-.368.467-.225.167-.496.665-.496.915 0 .174.014.188.12.13.173-.092.41-.078.5.03.103.124.16.118.553-.065zm-22.464-.508c-.039-.153-.033-.162.061-.084.136.111.48.056.723-.117.204-.146.26-.351.077-.282-.087.033-.093.026-.031-.036.093-.094.1-.358.013-.487-.053-.08-.08-.072-.184.053-.068.08-.11.168-.092.195.04.065-.383.433-.498.433-.05 0-.091-.031-.091-.07 0-.154.153-.59.263-.75.065-.094.088-.171.053-.171-.104 0-.382.323-.507.588-.151.323-.149.534.01.736.166.212.257.208.203-.007zm36.294-.084c.166-.041.292-.143.483-.39.235-.305.286-.34.565-.378.17-.023.37-.094.446-.158l.14-.116-.14-.002c-.082-.001-.14-.04-.14-.095 0-.123-.26-.12-1.017.007-.796.134-.881.092-.46-.229.182-.138.498-.33.703-.425.466-.218.898-.533.898-.655 0-.162-.478-.042-1.041.26l-.515.278-.558-.579c-.865-.894-.873-.907-.883-1.425-.01-.493-.08-.578-.273-.333-.157.2-.224.201-.174.005.031-.126.005-.17-.15-.25-.286-.148-.33-.078-.293.462.06.867.398 1.365 1.231 1.809.196.104.401.24.456.299.092.102.073.115-.316.213-.664.167-1.401.298-1.628.29-.115-.004-.242.02-.281.052-.05.042-.194-.093-.478-.448-.224-.28-.455-.583-.514-.675-.104-.163-.902-.71-.902-.618 0 .026.137.269.304.54.297.479.302.496.194.616-.17.19-.25.376-.25.58 0 .154.075.248.449.56.564.471 1.086.755 1.564.848.413.082 2.202.052 2.58-.043zm-14.546-1.102c.215-.177.12-.239-.32-.207-.78.055-2.095-.213-2.947-.6-.154-.071-.353-.129-.442-.129-.214 0-.952-.317-1.306-.56-.367-.253-1.17-.432-1.454-.325-.177.067-.194.06-.254-.095a5.033 5.033 0 0 1-.148-.602c-.09-.463-.06-.727.119-1.087.098-.196.097-.211-.023-.33-.152-.153-.219-.1-.461.36-.185.351-.207.751-.071 1.262.126.474.697 1.096 1.48 1.61l.614.404.72-.033c.557-.025.761-.012.896.057.095.05.376.112.623.14.247.028.531.097.631.153.154.086.346.1 1.212.084.752-.013 1.058-.04 1.131-.102zm16.885-.61c.2-.833.278-1.07.357-1.07.046 0 .083-.054.083-.121 0-.068.06-.35.133-.626.115-.438.123-.544.06-.822-.08-.351-.236-.598-.393-.62-.056-.009-.228-.188-.383-.398-.167-.227-.344-.399-.434-.421-.198-.05-.549.067-.776.258a2.508 2.508 0 0 1-.479.286l-.299.136.372.07c.204.038.511.115.681.17.17.057.45.133.619.17.386.084.508.192.56.499.039.231-.095.94-.224 1.182-.03.057-.126.386-.214.731-.087.346-.175.673-.196.727-.03.08-.006.093.128.068.092-.018.182-.008.2.021.072.118.138.04.205-.24zm-26.054-.112c.024-.062-.04-.168-.179-.295-.294-.27-.47-.754-.544-1.502-.056-.572-.05-.66.077-1.07.109-.353.174-.466.308-.535.094-.049.313-.228.487-.398.228-.223.409-.338.645-.408.59-.176.75-.183.881-.038.18.198.37.158.718-.15.23-.204.366-.279.507-.279.147 0 .25-.06.43-.255.18-.197.301-.268.526-.31.16-.03.373-.106.475-.17l.184-.117-.323-.163c-.391-.196-.519-.2-.907-.029a2.025 2.025 0 0 1-.705.147c-.222.008-.557.033-.745.056-.187.023-.675.05-1.084.06-.808.02-1.118.105-1.294.356-.056.08-.289.271-.517.425-.229.154-.468.37-.532.481-.156.27-.15.915.016 1.688.076.359.126.824.126 1.192l.001.603.217.09c.12.05.217.114.217.141 0 .027.108.168.24.313.207.226.277.263.49.263.168 0 .26-.031.285-.096zm8.322-.03c1.17-.222 1.413-.327 1.915-.828.398-.397.705-.797.706-.92 0-.025-.1-.157-.223-.293l-.223-.247.13-.385c.177-.525.168-.546-.121-.265-.16.156-.355.464-.536.85-.26.55-.3.603-.456.603-.095 0-.18.021-.192.047-.012.025-.37.032-.795.015l-.775-.03.38-.372c.599-.587.734-.988.602-1.787-.05-.3-.162-.345-.352-.14-.081.088-.211.16-.288.16-.115 0-.133.026-.101.14.13.477.118.591-.104.996-.17.31-.536.847-.695 1.021-.01.011-.18-.028-.38-.086-.37-.109-.89-.158-.89-.085 0 .129.63.431.9.431.049 0 .273.075.497.168.487.2.444.23-.415.294-.563.042-.6.053-.625.19-.032.168.047.216.36.216.146 0 .3.066.496.216.156.12.336.217.4.217s.417-.057.785-.126zm18.765-.586c-.139-.259-.178-.267-.273-.06-.093.205-.092.418.003.513.06.059.11.041.231-.08l.156-.156-.117-.217zm6.38.304c.157-.075.266-.213.462-.59.141-.271.31-.527.376-.568.155-.096.153-.313-.006-.943-.082-.323-.145-.863-.18-1.549-.061-1.153-.156-1.58-.42-1.896-.165-.195-.822-.551-1.017-.551-.056 0-.251-.105-.434-.233l-.332-.232-.65.002c-.504 0-.75.033-1.081.14a4.785 4.785 0 0 1-.991.176c-.31.02-.72.075-.912.122-.427.106-.652.108-1.114.013-.419-.086-.501-.06-1.007.332l-.345.267.169.091c.11.06.352.093.7.094.51.002.541.01.761.203.21.184.266.202.646.203.367.002.456.027.754.217.369.235.574.27.697.117.307-.38.34-.397.75-.397.563 0 1.034.103 1.217.265.302.268.531.396.777.435.244.038.527.272.527.434 0 .04.069.208.152.373.083.164.17.429.194.588.023.16.078.47.124.689.045.219.067.421.049.45-.018.03-.042.264-.053.522-.017.408-.045.504-.212.736-.219.305-.239.431-.084.522.151.087.244.081.482-.032zm-27.852-.397c0-.034.055-.062.123-.062.069 0 .124-.025.124-.056 0-.09-.375-.827-.523-1.028-.24-.325-.452-.86-.422-1.064.025-.17.096-.225.697-.539.369-.192.716-.35.773-.35.056 0 .085-.027.064-.061-.021-.034-.103-.062-.183-.062s-.266-.055-.414-.123c-.503-.228-.785-.152-.948.254a1.387 1.387 0 0 1-.276.42c-.307.287-.3.527.034 1.16.16.302.387.746.503.984.117.239.24.469.275.511.077.093.173.102.173.016zm18.962-.274c.297-.196.492-.493.492-.747v-.185l.165.247c.09.135.175.259.187.274.013.015.066-.016.119-.07.132-.131.06-.48-.163-.787-.135-.187-.257-.268-.552-.368-.396-.134-.647-.12-1.336.074-.309.087-.27.2.062.176.135-.01.345.021.464.07.12.05.33.113.466.143.179.038.253.087.265.177.021.144-.261.34-.487.34-.078 0-.233.034-.345.074-.222.08-.368.017-.19-.082.177-.1.059-.177-.27-.177-.298 0-.305.004-.305.184 0 .282.298.584.576.584.205 0 .212.006.1.085-.373.261.356.25.752-.012zm-19.82-.308c-.112-.252-.258-.383-.258-.231 0 .03-.017.138-.037.242-.033.162-.013.201.14.282.25.133.3.037.154-.293zm14.973-.758c.04-.26.134-.6.208-.759L45.12 32l.041.496c.04.467.184.898.303.898.079 0 .186-.296.25-.693.061-.374.197-.636.381-.735.062-.033.14-.159.173-.279.136-.493.559-1.019.819-1.019.062 0 .205-.08.317-.177.167-.145.277-.183.618-.21l.414-.032-.194.35a4.543 4.543 0 0 1-.515.7 7.858 7.858 0 0 0-.467.555l-.144.203.15-.106a.65.65 0 0 1 .315-.106c.253 0 .929-.333 1.386-.683.747-.573 1.06-.65 1.755-.432.257.08.477.11.65.087.221-.03.306-.006.541.15.343.23.644.29.98.2.223-.06.29-.052.512.061.14.072.262.122.272.11.12-.144.152-.308.08-.423-.087-.143-.835-.52-1.145-.577a1.5 1.5 0 0 1-.443-.198c-.154-.102-.39-.182-.648-.218-.517-.073-1.03-.3-1.223-.539-.093-.115-.293-.238-.522-.322a5.493 5.493 0 0 1-.69-.318c-.174-.1-.368-.181-.43-.181-.063 0-.227.122-.365.27l-.25.272-.604.044c-.743.055-.938.165-1.108.624-.2.544-1.2 1.344-1.974 1.58-.438.134-.54.196-.7.43-.153.22-.14.72.026.993.301.497.675.873.57.573-.03-.083-.007-.076.097.031.255.263.348.191.43-.333zm-32.219.117c.273-.086.355-.144.419-.295.043-.104.136-.241.207-.305.127-.115.13-.115.13.024 0 .132.02.14.294.113.162-.015.378-.071.48-.124.102-.053.388-.196.635-.318l.45-.22v-.348c0-.436-.057-.541-.353-.662-.273-.111-1.155-.36-1.276-.36-.046 0-.177.07-.293.155-.115.085-.262.155-.326.155-.095 0-.11.032-.081.17.02.094-.03.483-.109.864-.125.601-.175.731-.376.976-.127.155-.21.283-.186.283.025 0 .198-.049.385-.108zm19.501-.045c.119-.09.119-.091-.003-.094-.1-.001-.086-.025.073-.122.241-.147.352-.34.304-.53-.032-.128-.058-.137-.258-.092-.25.056-.344.126-.228.168.304.108-.381.158-.716.052-.217-.069-.158-.216.136-.342.15-.064.29-.144.31-.178.021-.034.15-.08.286-.104.42-.07.274-.154-.27-.154-.479 0-.537.014-.779.19-.367.265-.56.78-.364.974.117.117.159.091.237-.146l.073-.22.102.205c.113.226.548.484.816.484.089 0 .215-.041.281-.091zm9.572-.5c.1-.052.183-.132.183-.178 0-.046.087-.12.194-.164.107-.044.278-.15.38-.237.102-.086.314-.2.472-.254.384-.132.426-.163.766-.569.327-.39.358-.51.16-.615-.122-.066-.124-.077-.026-.132.103-.057.502-.038.966.045.196.035.259.006.647-.305.237-.189.457-.39.488-.446.05-.09.03-.098-.151-.065-.115.02-.42.055-.675.077-.459.04-.479.035-1.27-.285-1.028-.416-1.23-.519-1.42-.725l-.156-.168-.175.168a1.502 1.502 0 0 1-.466.267c-.355.12-.511.308-.639.763-.053.19-.181.57-.285.842-.289.764-.256 1.254.095 1.436.29.15.661.463.661.557 0 .105.028.104.251-.012zm-6.993-1.084a3.141 3.141 0 0 0-.031-.525l-.045-.31.154.184c.084.1.214.345.288.542.142.38.241.439.387.23.065-.092.099-.105.12-.046.017.045.104-.08.193-.276.16-.354.205-.687.112-.833-.062-.097-.627-.345-1.096-.48a5.152 5.152 0 0 1-.744-.294 29.056 29.056 0 0 0-.516-.255c-.08-.038-.215-.188-.3-.334-.192-.327-.324-.365-.92-.27-.471.077-.606.051-.77-.147-.12-.144-.334-.117-.503.064a3.01 3.01 0 0 1-.45.355c-.175.113-.35.291-.419.425-.136.268-.518.547-.945.69-.165.056-.41.2-.542.32-.133.12-.274.218-.313.218-.116 0-.592.42-.627.552-.02.074.015.165.086.23.112.1.125.1.26-.028a.537.537 0 0 1 .337-.134c.29 0 .52-.107.74-.344.135-.146.253-.214.372-.214.095 0 .327-.082.514-.183.455-.245.789-.246 1.327-.005.226.101.528.216.671.254.3.08 1.006.123.932.056-.027-.024-.23-.176-.45-.336a4.33 4.33 0 0 1-.602-.526l-.2-.234.348-.036c.251-.026.384-.011.476.053.07.05.198.09.284.09.238 0 .533.21.78.553.121.17.273.325.338.345.129.041.371.394.371.541 0 .136.255.438.317.375.029-.029.059-.15.066-.267zm-13.631-.13c.102-.073.376-.39.608-.704.233-.315.568-.694.745-.844.308-.26.32-.282.293-.525a1.32 1.32 0 0 0-.192-.495c-.09-.133-.163-.325-.163-.428.002-.34.168-.905.313-1.058.078-.083.13-.15.115-.15-.014.002-.207.052-.427.11l-.401.108-.047.27c-.072.427-.188.553-.545.6-.17.023-.31.05-.31.06 0 .011.028.093.062.182.081.214-.126.689-.343.788-.084.038-.153.104-.153.147s-.07.161-.154.263c-.146.173-.155.225-.155.913 0 .605.018.75.107.848.13.143.371.112.647-.085zm17.012-1.442c.213-.186.185-.497-.086-.94-.124-.202-.32-.532-.436-.734-.25-.433-.358-.527-.611-.53a1.171 1.171 0 0 1-.422-.12l-.233-.12-.07.155c-.07.151-1.133.967-1.503 1.152-.102.051-.374.113-.604.137-.23.024-.418.063-.418.086 0 .075.722.443.87.443a.422.422 0 0 0 .244-.093c.057-.05.24-.11.408-.133l.305-.04-.124.14-.124.14.217.183c.28.237.639.423.818.423.12 0 .343.073.948.313.271.108.315.097.496-.119.102-.122.248-.276.325-.343zm-19.39.085c.33-.035.718-.106.86-.158.253-.093.702-.512.702-.655 0-.04.097-.165.215-.28.203-.197.213-.227.176-.502-.021-.161-.064-.31-.094-.33-.03-.02-.2.002-.378.048-.318.084-.327.082-.805-.14-.266-.125-.5-.21-.519-.191-.02.02.066.173.19.341.224.307.46.785.366.744a52.72 52.72 0 0 1-.638-.315c-.345-.172-.775-.33-1.038-.384a3.755 3.755 0 0 1-.96-.365 6.648 6.648 0 0 0-.945-.411 5.253 5.253 0 0 1-.814-.347c-.29-.161-.494-.224-.87-.266a2.785 2.785 0 0 1-.822-.213c-.255-.122-.365-.145-.481-.101-.214.081-.22.079-.377-.153a1.774 1.774 0 0 0-.447-.398l-.305-.19.037.198c.048.255.23.557.448.74.096.08.316.342.49.58.314.433 1.21 1.325 1.331 1.325.035 0 .317.163.627.363 1.111.718 1.483.89 2.236 1.03.544.103 1.046.111 1.815.03zm-5.61-1.013c.231-.045.437-.098.457-.119.02-.02-.042-.11-.14-.197-.156-.14-.215-.155-.48-.124-.266.032-.297.024-.262-.069.026-.067-.004-.136-.085-.193a.897.897 0 0 1-.222-.274c-.194-.376-.664-.928-.885-1.04a.998.998 0 0 1-.37-.37c-.166-.295-.35-.365-.69-.263-.339.102-.408.089-.49-.091-.077-.17-.146-.175-.727-.053-.252.052-.303-.074-.174-.423.266-.722.257-.822-.091-.992-.15-.073-.162-.107-.156-.467.004-.294.038-.432.14-.569.166-.225.166-.223-.028-.503-.19-.275-.162-.442.096-.548.255-.106.27-.212.085-.567-.163-.313-.163-.314-.06-.645.112-.353.096-.507-.094-.927-.076-.168-.112-.399-.113-.721-.001-.358-.028-.505-.11-.604l-.108-.131-.31.146c-.478.226-.548.334-.498.769.048.412.025.446-.378.562-.369.105-.59.368-.883 1.05-.398.93-.53 1.755-.373 2.337.037.136.257.652.49 1.146.232.494.454 1.057.493 1.25.04.195.123.418.185.498.063.08.424.281.803.449.502.222.817.411 1.163.7.638.53.918.684 1.423.785.234.047.536.128.673.18.31.119 1.153.127 1.72.018zm38.46-1.441c.12-.24.264-.499.321-.577.118-.16.094-.267-.12-.527-.124-.15-.146-.232-.122-.45.033-.29.03-.295-.145-.201-.083.044-.12.13-.12.28 0 .167-.033.231-.147.283-.097.044-.137.105-.119.177.016.06-.043.267-.13.46-.176.383-.192.518-.1.838.13.452.364.355.682-.283zm-15.904.15a5.15 5.15 0 0 1 .942-.462c.449-.163.607-.255.811-.475.14-.15.296-.297.348-.327.163-.094.717-1.05.648-1.118-.045-.045-.354.1-.385.18-.02.053-.213.085-.6.099-.36.013-.615.053-.694.108a.6.6 0 0 1-.293.088c-.131 0-.198.053-.306.245-.082.146-.21.27-.314.306-.097.034-.176.042-.177.018-.002-.113-.12.161-.122.282-.001.213-.158.169-.38-.108-.21-.262-.294-.293-.483-.175-.146.092-.4-.057-.553-.323-.077-.134-.155-.182-.319-.196-.183-.016-.22-.044-.236-.183-.014-.12-.073-.184-.217-.238a5.472 5.472 0 0 1-.33-.137 1.332 1.332 0 0 0-.403-.073c-.191-.008-.355-.07-.56-.21-.301-.207-.59-.26-.644-.117-.061.157.093.418.286.485.186.065.19.072.151.384-.035.29-.018.351.187.69.56.927.97 1.16 2.292 1.302.205.022.456.078.558.123.291.13.383.11.793-.168zm11.189.042c.251-.103.263-.117.156-.195-.063-.046-.152-.07-.197-.053-.046.018-.186-.063-.312-.18-.345-.317-.55-.468-.637-.468-.043 0-.125-.043-.183-.095-.083-.075-.159-.083-.358-.039-.191.043-.283.036-.378-.03-.11-.078-.145-.076-.277.01-.194.127-.243.048-.19-.305.038-.255.03-.277-.136-.357-.16-.078-.177-.116-.177-.4 0-.181-.037-.359-.089-.421-.072-.087-.074-.131-.012-.23.062-.1.058-.16-.02-.315a.978.978 0 0 1-.095-.251c0-.033-.08-.15-.177-.261a1.04 1.04 0 0 1-.215-.444 1.03 1.03 0 0 0-.128-.364c-.088-.12-.09-.12-.223 0-.13.118-.138.232-.035.477.032.077-.005.13-.138.199-.205.106-.292.286-.376.781-.117.685.005 1.067.551 1.735.126.153.288.397.362.542.073.145.145.264.159.264.203 0 .966.222 1.275.372.38.184.43.192.99.166.366-.016.69-.068.86-.138zm-25.359-.063c.022-.086.03-.166.017-.176-.013-.01-.308-.15-.656-.31-.412-.192-.778-.315-1.05-.353a8.679 8.679 0 0 1-.761-.147c-.39-.1-1.735-.28-2.082-.28-.269 0-1.33-.24-1.328-.3 0-.023.147-.088.325-.146.352-.113 1.104-.517.851-.458-.332.078-1.85.172-2.261.14-.255-.02-.595-.1-.824-.195-.744-.306-1.996-.523-1.996-.346 0 .145.454.389.94.504.284.067.823.244 1.198.393 1.305.518 2.33.806 3.098.872.753.065 1.689.195 2.137.298.222.05.557.12.744.154.187.034.522.147.743.251.222.104.487.2.59.214.101.014.205.029.23.034.025.005.063-.062.085-.149zm28.122-.028c.672-.171.82-.274.983-.681.198-.497.167-.57-.228-.523-.482.056-.492.064-.32.251.086.092.147.176.137.186-.01.01-.155-.022-.32-.071a2.623 2.623 0 0 0-.629-.091c-.18 0-.398-.027-.485-.06-.262-.1-1.08-.2-1.77-.217-.358-.008-.732-.048-.832-.088-.277-.113-.365.02-.14.214.095.083.216.151.268.151.052 0 .209.097.348.216.14.12.266.204.281.189.015-.015.198.06.406.169.462.24 1.222.471 1.564.476.14.002.471-.052.737-.12zm-27.214-.84a2.6 2.6 0 0 1 .598-.087c.122.005.257.007.298.004.042-.003.302-.3.579-.657a8.394 8.394 0 0 1 1.01-1.084c1.218-1.037 1.41-1.512 1.03-2.55-.101-.28-.185-.6-.185-.71 0-.111-.03-.28-.065-.376-.09-.237-.629-.781-1.081-1.09-.205-.14-.623-.487-.93-.772l-.87-.81a2.84 2.84 0 0 1-.465-.564c-.206-.371-.384-.487-.904-.586l-.442-.084.053.185c.074.26.226.481.469.686.177.149.208.214.208.445 0 .353.082.558.34.843.173.191.218.301.253.61.026.232.091.44.167.537.11.14.155.154.39.119l.264-.04.374.434c.49.57.52.634.545 1.175.015.321.06.52.145.66a.88.88 0 0 1 .124.381c0 .233-.385 1.017-.644 1.312-.11.124-.289.343-.399.485-.11.143-.332.344-.492.448-.161.104-.37.25-.462.326-.12.096-.28.144-.54.163-.29.021-.38.052-.407.14-.049.152.083.347.31.459.235.116.273.116.729-.002zm23.085-.61c.011-.06-.036-.17-.106-.244a1.37 1.37 0 0 1-.318-.813c0-.148-.029-.219-.088-.219a.628.628 0 0 1-.186-.037c-.163-.063-.13.556.053.946.2.43.59.651.645.366zm3.696-.035c.307-.035.836-.072 1.177-.083.341-.011.627-.04.635-.063.108-.293-.647-.35-2.524-.188l-.465.04.155-.133.155-.132-.297.128c-.421.18-1.038.22-1.52.096-.442-.113-.693-.128-.693-.042 0 .031.098.093.217.136.12.043.217.097.217.119 0 .022.244.062.542.09.298.027.724.07.945.095.416.047.516.043 1.456-.063zm-38-.577c-.017-.215-.055-.284-.198-.366-.298-.17-.395-.44-.398-1.103-.002-.324.02-.721.05-.883.045-.248.038-.294-.043-.294-.053 0-.14-.062-.192-.136-.052-.075-.104-.124-.116-.109-.012.015-.07.299-.132.63-.078.428-.097.715-.065.99.09.767.298 1.133.786 1.376l.325.16c.002 0-.006-.119-.017-.265zm24.448.2c.204-.072.28-.187.223-.337-.026-.066-.13-.093-.355-.094-.315-.001-.506-.082-.95-.405-.167-.122-.182-.123-.377-.023l-.203.105.315.283c.289.26.816.525 1.058.533.054.002.184-.026.289-.063zm-14.007-.15c.605-.143 1.155-.43 1.343-.702.09-.13.163-.272.163-.316 0-.045.125-.205.279-.356.27-.266.348-.467.213-.55-.04-.024-.049-.144-.025-.306.038-.254.026-.282-.261-.6-.166-.182-.35-.46-.41-.616-.076-.198-.226-.388-.495-.625l-.386-.341.012.396c.007.218.043.492.082.607.089.272.094.66.01.817-.036.068-.249.294-.472.502-.444.416-.586.476-1.676.703-.685.143-1.26.166-2.504.1-.816-.045-.84-.042-1.37.14-.382.131-.656.185-.935.184-.453 0-.497-.02-.632-.285-.08-.154-.15-.2-.358-.234-.351-.056-.665.053-.714.249-.086.343.406.608 1.32.712.53.06.667.056.963-.03.39-.114 1.594-.14 1.696-.039.034.035.2.1.369.147.168.046.355.104.415.13.077.033.108.018.108-.053 0-.134.064-.127.496.055.225.095.494.157.695.16.18.002.438.056.575.119.309.143.967.157 1.499.031zm26.281-.29c.374-.171.882-.233 1.818-.223.782.009.79.008 1.208-.204.393-.2.434-.24.626-.626.187-.376.2-.434.139-.66a.629.629 0 0 0-.237-.357 1.426 1.426 0 0 1-.283-.256 1.056 1.056 0 0 0-.29-.236l-.177-.091.112.405.113.405-.154.309c-.085.17-.245.377-.356.462-.26.2-.949.432-1.63.551-.297.052-.678.165-.845.25-.342.176-.688.203-.84.066-.143-.13-.46-.038-.486.142-.014.094.024.154.124.197.204.086.834.013 1.158-.135zm-30.678.096c-.02-.02-.074-.022-.119-.005-.05.02-.035.035.038.038.065.003.102-.012.081-.033zm34.488-.063c.224-.036.252-.065.42-.434.098-.218.303-.577.454-.799.37-.54.448-.805.317-1.086-.405-.869-.551-1.023-1.23-1.294-.197-.079-.373-.168-.392-.198-.019-.03-.179-.129-.355-.218a3.049 3.049 0 0 1-.553-.37c-.227-.203-.261-.211-.663-.151-.016.002.073.109.197.236.124.128.244.31.268.407.023.095.112.22.197.275.085.056.208.224.272.375.113.264.125.272.33.233.187-.035.246-.01.463.185.24.218.438.524.438.68 0 .042.045.114.1.16.142.117.08.617-.127 1.028-.186.37-.605.808-.8.836-.072.01-.142.072-.154.136-.024.123.049.123.818 0zm-14.818-.106c.045-.046.257-.099.471-.118.214-.02.422-.062.464-.095.075-.06.492-.21.663-.24.05-.008.357-.147.681-.307.772-.383 1.185-.796 1.575-1.576.157-.312.285-.616.285-.675 0-.059-.07-.244-.155-.412-.085-.167-.155-.338-.155-.38 0-.041-.062-.108-.136-.148-.117-.062-.15-.053-.233.064a6.71 6.71 0 0 1-.266.342c-.094.113-.17.223-.17.244 0 .02.092.038.206.038.326 0 .31.063-.07.29-.194.117-.439.304-.543.416a2.536 2.536 0 0 1-.496.38 5.277 5.277 0 0 0-.585.404 3.476 3.476 0 0 1-.477.33c-.11.055-.287.211-.395.346a2.325 2.325 0 0 1-.437.403c-.132.088-.24.194-.24.236-.001.042-.153.142-.337.221-.23.1-.325.173-.302.233.043.113.539.117.652.004zm-.322-.749c.085-.074.376-.3.646-.503.665-.499 1.12-.921 1.403-1.304.13-.176.426-.525.659-.777.232-.25.515-.585.628-.743.113-.158.273-.317.355-.355.083-.038.15-.105.15-.15 0-.541-1.1.349-2.172 1.757-.421.553-.586.663-.525.351.027-.136-.033-.055-.185.25a3.018 3.018 0 0 1-1.254 1.302c-.345.183-.573.39-.573.521 0 .078.7-.203.868-.349zm-3.135.12a.317.317 0 0 1 .255-.156c.084 0 .153-.025.153-.057 0-.128-.325-.431-.566-.527a2.398 2.398 0 0 1-.511-.31c-.27-.22-.654-.396-1.553-.713-.626-.22-.853-.346-1.111-.616-.175-.182-.177-.192-.075-.348.059-.089.089-.213.068-.278-.025-.08.004-.139.09-.185.205-.11.164-.38-.09-.604-.12-.106-.217-.233-.217-.283 0-.241-.157-.218-.62.092-.522.35-.577.454-.52.98.031.29.017.365-.098.511-.074.094-.126.196-.114.226.01.03.165.168.341.307.177.14.477.448.667.686.284.356.393.446.608.503.145.038.402.134.573.214.17.079.498.172.729.207.23.035.58.141.775.236.195.094.452.19.571.212.433.08.54.064.645-.098zm16.157-.383c.374-.12.509-.196.635-.36.248-.326.293-.497.213-.813-.082-.328-.26-.362-.288-.055-.03.34-.071.44-.294.733-.193.252-.234.279-.31.202-.15-.15-.68-.233-.989-.155-.289.073-.467.063-1.574-.09-.728-.101-1.167-.219-1.57-.421-.223-.112-.233-.112-.233-.005 0 .155 1.099.679 1.518.723.645.069.96.14 1.07.24.333.3.877.3 1.822 0zm-4.596-.12c0-.119-.038-.292-.084-.384a1.834 1.834 0 0 1-.121-.49c-.024-.208-.161-.585-.385-1.054-.275-.578-.35-.8-.359-1.067-.01-.281.01-.348.112-.403.069-.036.165-.091.214-.123a.567.567 0 0 1 .236-.064c.183-.008.275-.143.229-.337a.637.637 0 0 1 .039-.327c.04-.098.057-.194.038-.214-.038-.038-.758-.202-.903-.206-.047-.001-.22.137-.385.308-.187.193-.353.31-.441.31-.141 0-.142.003-.14.913.001.837.013.933.139 1.131.076.12.138.263.138.32 0 .055.112.25.248.432.137.181.293.456.347.61.21.592.448.9.648.836a.328.328 0 0 1 .226.024c.154.086.204.033.204-.215zm-25.295-.314c.495-.104.74-.254 1.255-.769.39-.39.597-.814.655-1.342l.043-.387h-.217c-.212 0-.218.006-.257.294-.067.502-.288.88-.756 1.293-.236.208-.52.425-.63.482-.192.098-.205.097-.237-.007-.077-.248-.151-.309-.719-.595-.45-.226-.702-.312-1.05-.358-.876-.114-1.48-.266-1.726-.436-.086-.059-.319-.14-.518-.179-.421-.084-1.358-.387-1.806-.585-.465-.205-1.296-.737-1.698-1.087-.196-.17-.375-.31-.398-.31-.023 0-.041.078-.041.174 0 .183.266.476.805.884.153.116.481.382.729.592.376.318.519.398.867.485.241.06.575.206.79.345.204.133.521.274.703.313.183.039.378.125.434.191.257.305.47.492.867.763l.428.293.734.029c.404.016.746.04.76.055.035.034.421-.02.983-.138zm16.963-.365c.24-.25.378-.465.496-.776.202-.529.73-1.205 1.213-1.555.127-.092.248-.223.27-.292.022-.068.129-.18.238-.247.28-.173.566-.758.634-1.296.03-.235.003-.374-.14-.72-.248-.598-.447-.709-1.223-.684-.308.01-.628.044-.711.076-.144.054-.13.07.257.286.225.126.437.263.47.304.141.171.271.795.23 1.1-.04.277-.488 1.259-.68 1.485-.34.4-.715 1.047-.715 1.234 0 .069-.112.289-.25.49-.218.317-.271.36-.411.333-.12-.022-.19.008-.275.118-.115.15-.152.371-.076.448.127.126.361.02.673-.304zm11.699-.397c.312-.237.63-.482.709-.544.128-.102.137-.145.1-.469-.048-.402-.093-.443-.536-.49l-.295-.032.134.224c.074.124.2.296.28.383.183.201.181.245-.01.245-.108 0-.181.056-.251.19a.695.695 0 0 1-.3.276.892.892 0 0 0-.283.18.283.283 0 0 1-.186.097c-.059 0-.123.018-.144.038-.038.038.127.334.185.334.016 0 .285-.194.597-.432zm-1.137.255c0-.03-.173-.146-.385-.259-.414-.22-.395-.3.045-.19.327.083.63.089.677.014.041-.068-.22-.173-.558-.224l-.253-.039-.074-.476c-.05-.32-.054-.483-.01-.497.034-.011.063-.099.063-.194s.042-.208.093-.25c.122-.102.12-.21-.004-.162-.074.028-.088.008-.06-.081.102-.32-.324-.137-.489.21-.131.276-.124.52.028.906.07.176.114.333.098.348-.05.05-.965-.382-.966-.455a.847.847 0 0 0-.096-.248c-.069-.128-.085-.273-.06-.518a1.342 1.342 0 0 0-.052-.589l-.088-.248-.039.233-.07.435c-.024.158-.074.22-.225.277-.192.072-.194.078-.157.395.064.54.264.853.693 1.086.419.227 1.191.5 1.518.536l.294.033c.042.006.077-.014.077-.043zM33.85 23.13c.49-.162.744-.282.9-.428.119-.11.346-.262.503-.335a1.68 1.68 0 0 0 .43-.284c.078-.083.2-.152.27-.151.238 0 .732-.215.853-.372.492-.634.668-.903.85-1.298.177-.384.203-.498.175-.77-.048-.46-.152-.637-.498-.85-.242-.15-.32-.172-.36-.108-.071.111-.068.237.005.237.136 0 .368.536.41.945.039.374.032.418-.066.418-.215 0-.803.422-.978.702-.187.3-.74.847-.857.847-.04 0-.19.105-.333.233-.578.515-1.329.972-1.922 1.168-.374.124-.393.14-.277.213.132.083.147.08.895-.167zm-1.056-.428c.611-.195 1.474-.642 1.8-.933l.249-.22-.228.038c-.125.021-.423.152-.663.29-.24.139-.464.243-.499.23-.035-.011.118-.174.34-.362l.65-.549c.134-.115.245-.236.245-.27 0-.109-.326.015-.633.24l-.296.218-.17-.133c-.094-.073-.304-.23-.467-.35-.162-.119-.278-.245-.257-.28.022-.034-.02-.104-.091-.154a.333.333 0 0 1-.132-.259.575.575 0 0 0-.062-.26c-.05-.077-.067-.068-.1.05l-.039.143-.07-.142c-.126-.25-.264-.212-.304.083-.069.516.238.948.884 1.24.456.207.45.221-.184.43-.221.074-.438.162-.482.197-.055.043-.127.038-.232-.019-.084-.045-.173-.062-.196-.038-.024.024-.254-.162-.512-.412-.403-.393-.808-.676-.808-.565 0 .057.355.554.457.639.086.071.087.1.006.256-.136.262-.112.408.088.55.262.187.947.5 1.09.5.069 0 .345-.072.615-.158zM11.092 21.63a1.54 1.54 0 0 0-.01-.68 2.567 2.567 0 0 1-.032-.743c.035-.346 0-.61-.21-1.637a51.393 51.393 0 0 0-.345-1.59c-.109-.417-.124-1.229-.03-1.567.093-.334.213-.432.472-.383.18.034.244.013.387-.125.152-.145.182-.154.252-.07.111.135.39.12.582-.032.14-.11.163-.176.163-.463 0-.283.029-.367.186-.546.232-.264.24-.485.023-.655-.09-.07-.191-.129-.225-.129s-.285-.1-.558-.224c-.454-.205-.516-.218-.73-.154-.22.066-.554.267-1.04.628-.168.124-.28.153-.588.153h-.38l-.083.713a5.096 5.096 0 0 1-.328 1.363c-.337.892-.347 1-.155 1.557.088.256.16.598.16.76 0 .278.223.955.41 1.245.116.181.207.605.268 1.252.08.852.443 1.567.794 1.567.178 0 .511.314.511.48 0 .225.08.198.26-.086.1-.157.21-.442.246-.634zm37.041.735c.07-.168.06-.21-.086-.432-.155-.235-.658-.568-.658-.436 0 .035.026.063.057.063.062 0 .439.49.439.57 0 .154-.573-.048-.641-.226-.06-.156-.227-.114-.227.056 0 .083.029.168.063.19a.073.073 0 0 1 .026.099c-.02.033-.004.101.038.15.091.111.622.123.728.017.058-.058.075-.051.075.03 0 .167.102.123.186-.08zm2.022.094c.047-.122-.018-.372-.123-.477a1.21 1.21 0 0 1-.165-.237.812.812 0 0 0-.202-.239c-.192-.137-.479-.634-.483-.84-.002-.105-.083-.33-.178-.5-.166-.293-.187-.309-.41-.294-.132.008-.279-.023-.333-.07a1.832 1.832 0 0 0-.3-.188c-.196-.1-.21-.097-.483.063-.276.16-.3.164-1.116.136-.967-.032-.989-.022-.926.432.062.457.105.489.349.263.22-.205.427-.34.427-.28 0 .02-.053.112-.119.204-.176.25-.221.447-.102.447.053 0 .097-.024.097-.054 0-.127.336-.38.506-.38a.705.705 0 0 0 .328-.097c.134-.087.284-.105.785-.093.089.002.197.046.24.097a.283.283 0 0 0 .178.096c.17.005-.316.228-.598.274l-.264.044.161.127c.123.097.292.136.718.166l.557.04.273.292c.15.162.299.293.331.293.033 0 .092.1.133.223a.639.639 0 0 0 .283.347c.116.068.21.163.21.211 0 .116.18.111.226-.006zm-7.92-.313c.012-.17-.044-.404-.171-.723-.104-.26-.19-.556-.19-.66 0-.234-.191-.38-.5-.38a.7.7 0 0 1-.624-.426c-.06-.157-.064-.159-.15-.042-.128.175-.109.303.072.473.129.12.154.19.128.352-.025.157 0 .239.117.364.082.089.199.33.26.534.097.33.145.397.42.583.19.13.368.204.464.193.133-.015.157-.052.173-.268zm-24.486-.416l.08-.232-.167.038c-.262.061-.446.201-.446.34 0 .107.033.123.226.106.2-.017.236-.046.307-.252zm-.204-.726c.027 0 .033.027.011.06-.064.105.068.07.234-.061.087-.068.195-.125.24-.125.047-.001.154-.056.239-.123a.573.573 0 0 1 .258-.123c.271-.003.78-.88.621-1.071-.05-.061-.045-.161.022-.384.05-.165.09-.421.09-.568 0-.242-.023-.284-.232-.421a1.912 1.912 0 0 0-.532-.22 2.735 2.735 0 0 1-.54-.188c-.31-.159-.357-.155-.202.017.069.076.17.223.225.325.214.399.662 1.417.662 1.505 0 .17-.313.508-.608.657-.16.08-.5.23-.755.334-.256.104-.654.283-.885.4-.416.208-.419.211-.294.324.069.063.125.15.125.194 0 .05.234-.033.635-.226.35-.168.658-.306.686-.306zm-2.082.152c.005-.201-.037-.255-.516-.659-.287-.241-.576-.514-.64-.606l-.12-.167.47.116c.259.064.599.182.756.26.34.172.945.317 1.09.26.174-.066-.333-.434-.866-.629-.258-.094-.483-.192-.498-.217-.016-.026.01-.453.057-.95.096-1.008.166-1.187.598-1.53.135-.106.245-.215.245-.242 0-.027-.087-.09-.193-.142-.105-.051-.167-.109-.136-.128.082-.05.02-.476-.07-.476-.129 0-.81.701-.932.96-.156.33-.19.87-.094 1.489.043.278.067.54.053.58-.028.084-.599-.297-1.03-.687a2.28 2.28 0 0 0-.413-.306.374.374 0 0 1-.187-.216c-.024-.096-.082-.147-.167-.147-.119 0-.126-.023-.087-.294.023-.162.099-.541.168-.843.1-.434.118-.647.083-1.02-.038-.407-.056-.457-.125-.362-.044.06-.142.314-.22.564l-.139.454-.297.029a1.229 1.229 0 0 0-.455.132c-.153.1-.159.126-.159.744 0 1.248.156 1.627 1.12 2.729.943 1.08.956 1.089 1.539 1.089.437 0 .493.014.63.162.144.155.325.26.463.268.036.002.068-.095.072-.215zm20.041-.618c.057-.375.124-.867.148-1.094.044-.41.043-.413-.135-.504a1.255 1.255 0 0 1-.297-.223.412.412 0 0 0-.257-.13c-.125 0-.65.373-.696.495-.019.05.206.096.777.163.34.04.377.07.248.2-.044.044-.082.256-.087.493-.011.486-.08.959-.145 1.003a.428.428 0 0 0-.09.174c-.043.135-.03.143.193.124l.237-.02.104-.68zm-14.012.244c.071-.187-.077-.878-.252-1.173a1.617 1.617 0 0 1-.153-.496c-.025-.183-.138-.474-.276-.712-.31-.537-.394-.818-.357-1.2.024-.24-.005-.414-.115-.708a3.936 3.936 0 0 1-.187-.7c-.06-.46-.182-.578-.574-.56-.319.014-.32.014-.807-.45-.268-.257-.563-.485-.655-.508-.1-.025-.312.002-.526.067-.32.096-.42.1-.909.031-.744-.104-1.234-.265-1.593-.521-.523-.374-.873-.367-1.267.027-.2.2-.257.317-.34.69-.097.445-.085.64.03.477.041-.059.049-.036.025.076-.02.089 0 .209.043.267.072.098.119.085.603-.17.288-.152.618-.296.733-.32.205-.042.202-.037-.197.355-.366.358-.552.675-.456.772.064.063.317-.033.63-.24.262-.174.369-.206.712-.215.222-.006.515-.053.651-.106.362-.139.887-.128 1.116.024a.84.84 0 0 0 .39.123c.14 0 .251.051.356.164.084.09.152.184.152.207 0 .023.07.08.155.125.085.046.155.1.155.123 0 .09-.95.194-1.418.153-.315-.028-.529-.019-.604.025-.096.055-.098.068-.016.07.055 0 .167.067.248.148.206.206.888.503 1.429.623.912.202 1.134.354 1.433.98.118.247.302.531.408.631.153.145.193.233.193.43 0 .335.198.722.49.957.183.147.252.255.284.443.038.226.06.25.224.25.138 0 .196-.038.242-.159zm12.831-.268c.139-.138.24-.3.24-.38 0-.138.004-.139.125-.03.12.11.124.109.124-.044 0-.437-.54-.639-1.18-.44l-.338.105.464.05c.614.066.67.088.544.215-.132.132-.606.34-.606.266 0-.072-.187-.076-.296-.006-.128.081.112.335.317.335.135 0 .154.016.097.085-.057.069-.038.085.1.085.114 0 .247-.078.41-.24zm-3.166-.208c.002-.584.14-.825.202-.354.035.256.212.595.277.53.02-.02.03-.19.023-.376-.013-.34.064-.58.217-.67.045-.026.113-.162.15-.3a.881.881 0 0 1 .203-.37c.075-.065.218-.193.32-.284.1-.09.289-.184.418-.208.128-.023.234-.036.234-.028 0 .069-.227.531-.347.707-.167.246-.186.323-.071.287.042-.013.155-.04.251-.062.096-.02.354-.205.574-.41.219-.204.461-.394.538-.422.203-.076 1.221-.032 1.454.062.157.063.258.065.465.01.159-.043.273-.048.285-.013.038.106.188.06.229-.07.094-.296-.348-.455-1.52-.55-.56-.044-.762-.118-.868-.315-.036-.067-.119-.123-.185-.123-.065 0-.26-.055-.433-.124-.41-.16-.417-.16-.56.084-.103.174-.18.22-.479.286-.467.103-.572.164-.572.332 0 .281-.259.63-.958 1.294-.393.374-.715.718-.715.766 0 .098.67.646.79.646.052 0 .078-.107.078-.325zm-1.706-.325c.5-.363.771-.623.898-.863.083-.156.081-.18-.017-.252-.098-.071-.099-.083-.009-.117.055-.021.202-.039.327-.039.176 0 .294-.057.522-.253.162-.138.294-.275.294-.303 0-.028-.158-.01-.35.04-.328.086-.389.083-.914-.043a5.755 5.755 0 0 1-.836-.263c-.24-.112-.28-.116-.34-.033a.94.94 0 0 1-.267.195c-.258.134-.267.15-.4.81-.134.664-.143.904-.037 1.047.078.106.607.42.668.396.018-.007.225-.152.46-.322zm10.525.126c.09-.083.164-.188.164-.233 0-.045.088-.19.196-.32l.197-.238-.197-.597a7.787 7.787 0 0 1-.26-1.018c-.128-.853-.361-1.16-.973-1.284-.196-.04-.419-.112-.494-.16-.191-.12-.545-.105-.947.042-.188.07-.48.169-.65.222l-.7.218a2.992 2.992 0 0 1-.735.122c-.317 0-.367.02-.602.241l-.256.242.403.002c.295.002.452.035.588.125.146.097.247.115.47.086.205-.027.342-.008.487.068.245.126.447.087.53-.105.052-.118.132-.151.48-.198.382-.051.45-.042.805.109.213.09.435.164.494.164.173 0 .526.533.69 1.042.178.55.183 1.07.013 1.33-.194.296.02.398.297.14zm-22.291-.25c.22-.289.261-.674.116-1.076-.089-.247-.2-.384-.558-.685-.392-.33-.647-.463-.647-.338 0 .021.098.147.217.279.12.132.217.283.217.336 0 .052.068.222.15.378.083.155.135.324.115.375-.054.14-.337.057-.67-.196-.157-.121-.312-.22-.343-.22-.032 0-.058-.039-.058-.087 0-.056.044-.076.124-.054.178.046.153-.069-.07-.322-.22-.252-.316-.223-.469.143-.098.235-.061.413.127.619l.132.143-.17-.064c-.401-.153-.06.35.356.524.316.132.752.115.968-.038.099-.07.18-.12.179-.109 0 .011-.04.152-.09.314-.09.294-.09.294.06.294.097 0 .206-.075.314-.217zm28.155-.47c.268-.058.31-.086.277-.187-.051-.162-.007-.149.244.071.19.167.254.187.535.17l.319-.018-.28-.197c-.194-.137-.37-.348-.564-.68-.156-.266-.283-.53-.283-.587 0-.08-.082-.113-.362-.146l-.362-.042-.471.33c-.57.4-.623.494-.497.875l.093.285.35.04c.283.03.494.078.673.148.007.003.154-.026.328-.063zm-20.686-.453c.063-.137.01-.8-.112-1.413l-.035-.175.33.152c.438.204.826.244 1.59.164 1.068-.11 1.546-.324 2.556-1.145.717-.583 1.144-1.025 1.382-1.431.12-.205.293-.442.384-.527.228-.212.326-.431.283-.638l-.035-.173-.208.154c-.24.177-.394.375-.337.432.021.022-.051.04-.162.04-.11 0-.319.069-.464.154a2.244 2.244 0 0 1-.6.218c-.2.038-.46.148-.645.276-.17.117-.473.284-.673.372-.2.089-.53.274-.733.412a3.696 3.696 0 0 1-.734.375c-.2.067-.554.245-.785.394-.232.149-.431.242-.443.207-.013-.035.065-.232.173-.438.108-.206.186-.384.174-.396-.011-.012-.186.078-.387.2-.31.186-.403.214-.605.182-.187-.03-.28-.01-.425.094-.212.15-.737.183-.891.056-.05-.042-.125-.186-.165-.319-.074-.248-.108-.268-.533-.318l-.203-.024.163.171c.097.1.196.308.241.505.07.298.066.358-.035.547a1.085 1.085 0 0 0-.116.41c-.002.166.042.23.261.38.145.1.405.332.578.515.53.56.758.735.959.735.135 0 .203-.04.252-.148zm18.8-2.698c.177-.135.5-.317.717-.405.487-.198.982-.664 1.236-1.162.1-.195.181-.383.181-.418 0-.103-.172-.073-.26.046-.06.08-.188.115-.483.13-.222.012-.478.06-.57.108a.784.784 0 0 1-.283.086c-.072 0-.156.085-.222.223a.578.578 0 0 1-.29.293c-.106.04-.184.114-.184.176 0 .193-.132.192-.334-.003-.2-.195-.37-.245-.44-.131-.057.09-.387-.098-.434-.247-.03-.093-.094-.125-.248-.125-.168 0-.212-.027-.228-.137-.023-.158-.495-.357-.857-.36a1.103 1.103 0 0 1-.464-.155c-.344-.212-.465-.202-.465.038 0 .155.035.204.186.261.17.064.186.096.186.356 0 .346.237.74.672 1.113.333.287.515.344 1.276.403.305.024.612.066.682.095.218.088.292.066.625-.186zm-11.837-.004c.14-.068.404-.168.587-.222.266-.079.43-.194.832-.577.276-.264.71-.6.966-.75.679-.394.721-.443.77-.876.024-.205.154-.684.29-1.065.33-.919.36-1.292.16-1.917-.16-.498-.557-1.232-.773-1.427-.067-.061-.258-.145-.424-.186l-.302-.074-.002-.29c-.004-.35-.132-.517-.475-.62-.172-.051-.258-.052-.307-.004-.036.037-.073.3-.08.584a6.515 6.515 0 0 1-.063.773.885.885 0 0 0 .055.528c.094.246.095.29.008.5-.133.316-.125.343.12.446.248.103.256.135.116.43-.098.204-.096.22.04.41.077.108.154.317.17.464.027.236.011.28-.132.373-.195.128-.204.264-.038.588.068.134.123.312.123.396 0 .148-.01.152-.339.118-.32-.033-.342-.027-.4.124-.057.15-.078.157-.398.124-.335-.034-.339-.033-.442.175a1.806 1.806 0 0 1-.342.426c-.25.226-.829 1.212-.77 1.308.02.03-.06.055-.175.055a.455.455 0 0 0-.349.148c-.192.205-.107.23.671.192.472-.022.717-.064.903-.154zm-7.652-.216c.196-.156 1.626-.601 2.695-.84 1-.222 1.356-.353 2.51-.924.46-.228.992-.476 1.183-.553.192-.076.441-.234.555-.352l.206-.213h-.244c-.334 0-1.113.268-1.554.535-.31.188-.446.228-.921.275-.307.03-.74.057-.96.06l-.403.005.278.117c.154.064.342.118.419.12.372.01-.087.253-.697.37-.608.117-1.43.321-1.766.439a8.747 8.747 0 0 1-.589.182c-.32.081-1.208.61-1.208.719 0 .195.283.229.496.06zm-1.846-.593c.098-.044.262-.045.514-.004.314.05.405.043.588-.05.157-.08.217-.15.217-.258 0-.135-.029-.15-.31-.167-.482-.027-1.104-.36-1.557-.83-.484-.505-.733-.977-.676-1.285.047-.25.067-.465.084-.876.01-.22.076-.385.296-.728.273-.427.295-.445.525-.445.284 0 .368-.113.368-.494 0-.288.118-.612.27-.737.071-.06.102-.184.102-.42 0-.254.037-.391.156-.57.15-.227.302-.63.238-.63-.082 0-.683.213-.751.266-.043.034-.162.236-.264.45-.102.213-.288.477-.413.587-.125.11-.378.392-.56.626-.184.235-.354.426-.378.426-.082 0-.632.563-.802.82-.123.185-.18.367-.207.663-.021.224-.072.569-.112.766-.132.638.093.997 1.045 1.667.291.205.725.58.963.831.239.252.454.458.478.458a.78.78 0 0 0 .186-.066zm21.167-.746c.323-.112.212-.366-.16-.366-.255 0-.569-.128-.715-.292-.104-.117-.12-.119-.313-.024l-.203.1.282.234c.155.129.408.273.561.32.351.11.318.108.548.028zm-18.914-.364c.104-.06.32-.128.479-.151.158-.024.42-.117.58-.207.197-.11.3-.139.316-.09.018.055.06.05.157-.018a.516.516 0 0 1 .235-.093c.056 0 .173-.056.26-.125.144-.113.246-.125 1.047-.12.985.005 1.443-.067 1.824-.286.29-.166.362-.291.269-.465-.05-.093-.132-.12-.368-.12-.323 0-.497.108-.497.309 0 .22-.762.296-1.425.14-.231-.055-.617-.017-1.518.149-.518.095-.622.095-1.45 0l-.893-.101-.427-.324c-.467-.355-.516-.455-.466-.938a3.44 3.44 0 0 0 0-.61l-.033-.291-.27.322c-.15.177-.302.431-.339.565a1.568 1.568 0 0 1-.246.465c-.157.194-.178.27-.17.594.009.365.016.379.41.819.28.311.482.478.67.55.57.218 1.494.23 1.855.026zm20.051-.165a.856.856 0 0 1 .318-.084c.193 0 1.313-.486 1.717-.746.4-.257.676-.596.953-1.174.252-.525.27-.688.105-.92a.942.942 0 0 1-.14-.282c-.012-.065-.082-.14-.154-.166-.112-.041-.162-.003-.325.25a2.576 2.576 0 0 0-.194.327c0 .016.067.017.148.001.232-.044.245.084.023.222-.11.069-.3.228-.419.354-.119.125-.299.28-.399.342-.485.302-1.769 1.474-1.769 1.614 0 .03-.021.047-.047.039-.072-.024-.298.158-.342.276-.033.09-.01.1.16.068.109-.02.273-.075.365-.121zM17.34 13.96c0-.021-.183-.206-.406-.41-.223-.205-.457-.473-.52-.596-.22-.432-.634-1.886-.634-2.223 0-.323 0-.325-.196-.326-.108 0-.335-.084-.506-.185-.386-.229-.525-.23-.991-.01a7.453 7.453 0 0 1-.713.288c-.502.164-.9.378-1.045.562-.116.148-.124.217-.09.752.03.444.02.6-.04.637-.053.033-.006.073.144.123.123.04.248.058.277.04.03-.018.198.022.374.089s.37.121.43.121c.062 0 .244.084.405.186.272.173.334.186.88.186h.586v-.444l.247.195c.16.127.272.281.32.44.04.134.113.279.163.321.16.137 1.315.36 1.315.254zm24.637-.117c.02-.052.108-.132.194-.178l.158-.082-.167-.145c-.16-.14-.46-.309-1.134-.639a6.747 6.747 0 0 0-.868-.315c-.3-.087-.672-.237-.825-.333-.275-.171-.279-.178-.26-.472.011-.164.06-.338.109-.387.14-.14.105-.309-.094-.45-.1-.071-.2-.184-.22-.252-.057-.176-.153-.153-.531.129-.394.294-.425.356-.382.785.023.242.005.364-.075.485-.058.09-.097.17-.086.178.011.009.15.104.31.21.158.108.42.35.58.537.217.255.356.359.547.41.141.038.354.108.473.156.12.049.414.112.655.142.241.03.548.111.682.182.302.16.879.183.934.039zm2.175-.015c.406-.182 1.69-1.325 1.965-1.75.154-.237.823-1.097 1.22-1.568.177-.21.234-.32.188-.364-.154-.155-.923.578-1.576 1.502a4.597 4.597 0 0 1-.415.52c-.125.113-.127.113-.128-.002 0-.065-.082.055-.182.267-.206.436-.614.877-.987 1.067-.217.11-.38.283-.38.403 0 .051.026.045.295-.075zm-11.772-.294c.14-.12.287-.317.327-.438.119-.36.08-1.056-.089-1.575-.083-.255-.153-.428-.156-.384-.002.044-.076.147-.163.228-.159.146-.159.147-.062.473.168.565.097 1.223-.145 1.353-.078.041-.098.118-.08.308.014.139.045.253.069.253.024 0 .159-.098.299-.218zm11.971-.587c.181-.096.54-.627.616-.909.084-.31.415-.818.782-1.198.81-.837.944-1.057 1-1.631.025-.258 0-.388-.128-.665-.22-.475-.413-.564-1.077-.497-.684.069-.723.112-.297.328.461.233.625.552.578 1.128-.03.362-.345 1.139-.565 1.394-.17.197-.411.67-.411.806 0 .077-.087.286-.194.464-.16.268-.22.32-.336.298-.11-.02-.165.017-.244.17-.162.314-.022.472.276.312zm-18.138-.154c.248-.05.555-.107.681-.126.255-.039.855-.537 1.01-.839.06-.115.183-.202.377-.268a2.2 2.2 0 0 0 .564-.324c.151-.124.42-.28.596-.347.256-.096.463-.264 1.018-.826.632-.64.778-.857.657-.978-.022-.022-.24.15-.485.382a7.807 7.807 0 0 1-.719.61c-.359.247-1.305.718-1.707.85-.175.057-.366.157-.425.222-.118.13-.891.402-1.333.467-.439.066-1.3.602-1.3.81 0 .111-.086.11-.31-.006-.61-.315-.975-.705-1.087-1.162-.023-.094-.06-.17-.082-.171-.022 0-.102-.018-.18-.038-.118-.032-.138-.014-.138.128 0 .532.298 1.028.838 1.392.206.14.39.2.725.243.665.083.805.081 1.3-.019zm16.043-.255c.357-.137.663-.3.796-.427.12-.112.3-.246.403-.298.102-.051.24-.152.304-.223.065-.072.157-.13.205-.13.048 0 .218-.057.378-.127.23-.1.34-.205.538-.51.335-.521.585-1.087.587-1.33.003-.36-.175-.69-.447-.83-.31-.158-.454-.072-.248.148.164.174.297.489.354.836.039.234.03.263-.076.263-.183 0-.613.34-.795.628-.191.304-.519.674-.596.674-.03 0-.294.209-.587.465a5.015 5.015 0 0 1-1.004.694c-.26.126-.482.235-.494.243-.024.016.048.146.082.146.011 0 .281-.1.6-.222zm-.844-.341c.503-.176 1.079-.506 1.402-.803.267-.244.268-.245.083-.206-.102.022-.28.078-.395.125-.368.15-.357.09.054-.286.32-.292.376-.368.272-.37-.072-.002-.236.08-.364.183-.13.102-.259.186-.288.186-.115 0-.796-.469-.773-.531.014-.037-.027-.1-.092-.14a.282.282 0 0 1-.119-.213.501.501 0 0 0-.053-.221c-.041-.065-.062-.058-.096.03-.041.108-.047.108-.105.006-.033-.06-.102-.109-.153-.109-.074 0-.087.064-.066.311.039.442.253.7.723.872.204.074.371.147.371.161 0 .015-.16.096-.356.182a9.116 9.116 0 0 0-.47.217c-.077.041-.139.04-.193-.005-.044-.037-.119-.052-.166-.035-.047.018-.25-.114-.457-.299-.622-.554-.896-.638-.459-.141.24.273.251.3.18.473-.042.1-.06.222-.042.27.05.129.776.473 1 .473.106 0 .36-.059.562-.13zm7.803-.73c.02-.065-.009-.24-.065-.388a31.756 31.756 0 0 1-.238-.662c-.152-.439-.22-.503-.531-.508-.22-.003-.496-.175-.496-.308 0-.111-.152-.036-.176.088-.012.06.04.175.117.255.105.112.128.192.1.335-.028.137-.015.189.046.189.107 0 .236.204.344.542.063.198.146.3.338.415.307.186.51.2.56.041zm-22.41-.427c.025-.078-.524-.364-.584-.304-.017.017.015.118.07.226.086.164.132.192.295.176.106-.01.204-.055.218-.098zm5.409-.483a.482.482 0 0 1 .23-.118c.325-.024.453-.359.51-1.334.036-.592.086-.89.214-1.266.125-.367.158-.556.129-.748-.023-.155 0-.4.057-.621.111-.429.108-.442-.25-1.206a6.068 6.068 0 0 1-.378-1.085c-.057-.272-.124-.52-.15-.549-.025-.029-.146-.02-.27.021-.21.07-.256.058-.787-.21-.31-.156-.603-.284-.65-.284-.047 0-.335.146-.64.325-.615.36-.667.455-.4.733a.8.8 0 0 1 .194.425c.051.379.437.587.639.343.07-.084.091-.083.197.013.072.065.222.109.378.11.213.002.27.03.333.159.132.274.208.938.149 1.301-.137.848-.213 2.22-.14 2.55.04.182.07.511.067.732-.004.448.071.703.273.92.13.14.136.14.155.022a.482.482 0 0 1 .14-.233zm11.341-.089l.082-.87.044-.469-.293-.229c-.162-.126-.316-.229-.342-.229-.027 0-.172.108-.324.239l-.276.239.308.07c.17.04.393.072.498.072.182 0 .186.005.087.115-.086.095-.092.147-.035.294.067.176.022.532-.133 1.035-.051.168-.046.174.146.155.198-.02.2-.023.238-.422zm-15.992.19c0-.067.028-.138.062-.159.034-.021.062-.06.062-.086 0-.05-.887-.348-1.24-.415a1.072 1.072 0 0 1-.339-.126.482.482 0 0 0-.22-.086c-.055 0-.179-.083-.277-.185l-.178-.186.204-.604a8.85 8.85 0 0 1 .318-.827l.113-.222-.556.272c-.668.326-.724.416-.555.905.071.208.094.367.06.42a.296.296 0 0 0-.017.21c.061.206.331.527.444.527.119 0 .665.198.732.266.024.024.102.046.173.047.071.002.325.084.563.183.52.215.65.228.65.066zm-3.852-.255c-.013-.122.031-.23.143-.35.235-.252.301-.41.301-.722 0-.204.04-.326.149-.455.082-.098.179-.288.216-.423.15-.548.376-.748 1.122-.991.396-.129.737-.33 1.08-.637l.244-.218-.213.042c-.346.07-1.277.123-1.39.08-.107-.042-.1-.054.282-.52a.272.272 0 0 1 .188-.078c.068 0 .205-.06.304-.133.189-.14.286-.148 1.27-.1.341.017.584.067.775.158.27.13.496.175.496.1 0-.132-.264-.443-.526-.621-.301-.204-.304-.21-.124-.208.102.001.379.084.616.185.445.19.565.172.505-.078-.014-.06 0-.093.03-.074.093.057.065-.132-.074-.502-.09-.24-.187-.382-.316-.46-.182-.111-.197-.11-.536.004a6.87 6.87 0 0 0-.722.306 4.634 4.634 0 0 1-.681.273c-.17.048-.399.122-.508.166-.162.065-.256.065-.509 0-.17-.044-.365-.062-.433-.04-.069.022-.265.216-.437.432-.339.426-.403.468-.714.468-.136 0-.218.036-.246.107-.063.166-.177 1.019-.163 1.225.049.715.028.876-.169 1.295-.11.236-.198.524-.198.651 0 .126-.026.255-.058.288-.091.091-.184.787-.121.906.054.101.283.176.385.125.028-.013.042-.104.032-.201zm16.261.004c-.017-.068-.011-.257.014-.419l.045-.294.085.286c.047.157.127.321.178.363.081.068.091.033.078-.265-.012-.283.01-.37.124-.492.077-.081.14-.197.14-.256 0-.141.173-.473.247-.473.032 0 .121-.066.2-.147a.686.686 0 0 1 .313-.178c.152-.026.168-.015.132.101a3.999 3.999 0 0 1-.19.427l-.148.296.172-.042c.23-.055.479-.235.64-.46.252-.355.479-.396 1.868-.343.503.02.61-.036.462-.24-.086-.117-.58-.206-1.29-.233-.393-.014-.502-.041-.624-.157-.082-.076-.18-.14-.22-.14-.039 0-.203-.044-.364-.098l-.292-.1-.159.192c-.105.127-.27.225-.483.288-.259.076-.331.126-.357.248l-.062.292c-.016.077-.296.43-.622.783-.326.355-.583.688-.573.741.022.116.472.438.616.441.072.001.093-.034.07-.121zm2.645-.102c.13-.147.187-.267.166-.346-.03-.117-.027-.117.088-.014.1.092.12.094.12.014 0-.051-.059-.167-.13-.257-.104-.133-.18-.163-.404-.163-.152 0-.373.04-.491.09-.231.096-.298.192-.087.125.188-.06.75.03.723.116-.034.103-.43.286-.548.252a.376.376 0 0 0-.204.012c-.098.037-.098.047 0 .156.059.064.158.116.22.116.063 0 .115.028.115.062 0 .14.248.047.432-.163zm-14.042-.073c.076-.085.23-.138.481-.167.21-.025.413-.087.47-.145.206-.205.945-1.245 1.115-1.567.166-.316.174-.373.174-1.151 0-.952-.028-1.011-.498-1.04l-.295-.02-.197-.423-.196-.424-.043.31c-.037.262-.008.416.186 1.007.204.623.219.706.132.774a.433.433 0 0 0-.12.14c-.012.033-.28.31-.595.614l-.573.554v-.647c-.001-.84-.137-1.165-.642-1.538-.19-.14-.37-.254-.402-.254-.032 0-.07.1-.084.223-.02.18-.002.232.098.269.106.04.095.051-.074.085-.242.048-.251.135-.027.252.39.203.532.489.632 1.28.032.256.077.512.098.569.03.08-.05.147-.353.299-.216.108-.465.274-.555.37-.151.163-.154.176-.043.205.129.034.597-.15.87-.341.204-.144.854-.374.854-.303 0 .028-.21.283-.465.565-.44.487-.458.52-.356.619.119.115.226.085.408-.116zm10.638-.804c.123-.209.124-.224.02-.282-.103-.058-.103-.064.011-.109a1 1 0 0 1 .28-.052c.1-.002.246-.097.402-.26.222-.232.23-.252.09-.214-.379.104-.64.106-1.094.007-.267-.058-.543-.142-.612-.186-.11-.07-.145-.063-.256.052-.071.073-.188.174-.261.225-.11.078-.144.199-.205.724-.082.721-.069.758.346.94l.254.11.448-.368c.246-.202.506-.466.577-.587zm8.17.11c.058-.119.145-.276.191-.35.075-.117.063-.194-.106-.65a7.274 7.274 0 0 1-.26-.86c-.126-.625-.307-.804-.996-.987-.524-.14-.645-.14-.993 0-.882.353-1.36.509-1.688.548-.288.035-.396.082-.556.242-.218.218-.213.222.264.201a.92.92 0 0 1 .392.08c.11.058.234.074.34.045.1-.027.27-.01.43.044.278.094.448.04.448-.143 0-.045.049-.095.108-.112.294-.083.663-.109.782-.054.297.136.485.2.592.2.263 0 .748.946.748 1.459 0 .156-.03.34-.066.409-.037.068-.052.165-.033.214.052.135.27-.02.402-.285zm-20.75.101c0-.013-.041-.123-.092-.244l-.092-.221.209.087c.388.163 1.09-.176 1.09-.526 0-.049-.037-.048-.131.003-.128.068-.13.066-.031-.074.142-.204.125-.392-.054-.593-.154-.172-.157-.173-.253-.05-.21.268-.227.34-.075.342.126.001.11.032-.149.279-.343.327-.579.375-.527.107.078-.401.16-.637.284-.81.279-.392.122-.348-.325.092-.529.52-.614 1.01-.25 1.441.087.105.213.19.278.19.065 0 .118-.01.118-.023zm-.126-4.967c.451-.107.622-.228.622-.441 0-.081.096-.25.215-.378l.215-.231.002.166c0 .092.025.182.055.2.126.078.855-.103 1.118-.277.151-.1.302-.182.335-.182.033 0 .175-.053.315-.117s.333-.148.428-.186c.096-.038.158-.096.137-.129-.02-.033-.04-.248-.044-.48-.006-.376-.025-.436-.182-.583-.115-.107-.353-.211-.688-.3a17.76 17.76 0 0 1-.777-.224c-.372-.123-.457-.112-.74.093-.137.099-.312.19-.39.201-.127.02-.141.057-.153.424a7.658 7.658 0 0 1-.157 1.07c-.136.628-.164.69-.476 1.068-.182.221-.31.402-.283.401.026 0 .228-.043.448-.095z"/></svg>