<svg xmlns="http://www.w3.org/2000/svg" width="64" height="64"><path d="M30.074 62.943A31.055 31.055 0 0 1 13.42 56.82c-1.202-.903-2.06-1.657-3.324-2.921-2.446-2.447-4.118-4.723-5.674-7.728C.362 38.334-.11 28.951 3.138 20.68c.401-1.023 1.385-3.072 1.936-4.035 1.971-3.443 4.75-6.645 7.912-9.118.822-.643 2.73-1.923 3.628-2.434C24.118.825 32.788-.144 41.102 2.354c3.251.978 6.654 2.706 9.44 4.795 2.224 1.667 4.612 4.053 6.278 6.273 6.473 8.625 7.977 20.124 3.942 30.144a31.126 31.126 0 0 1-14.53 15.979c-4.952 2.563-10.528 3.736-16.158 3.398zm1.194-1.18c.101-.136.109-.185.047-.301-.063-.118-.11-.133-.302-.103-.301.049-.593-.145-1.365-.904-1.931-1.9-3.101-4.103-4.95-9.321-.913-2.58-1.136-3.371-1.231-4.373-.134-1.406-.177-2.99-.102-3.726.037-.36.277-1.63.533-2.822.785-3.655.939-4.85.887-6.909-.049-1.922-.178-2.35-1.062-3.52-.582-.767-.879-1.055-1.497-1.45-1.056-.672-2.23-1.146-3.585-1.448-.879-.195-1.463-.267-2.587-.317-1.538-.067-2.343-.342-3.224-1.1a4.46 4.46 0 0 1-1.182-1.565l-.184-.404-.355.04a2.507 2.507 0 0 0-.379.06c-.033.027.656 1.307.882 1.638.104.153.31.407.457.565l.266.286-.15.342c-.246.555-.517 1.507-.69 2.428-.177.94-.347 1.549-.54 1.926-.12.237-.12.246-.008.332.064.05.241.146.395.216.65.295.774.308 3.505.354 2.181.037 2.657.061 2.927.149.383.123.634.321.901.712.108.158.41.511.67.784.766.802 1.048 1.528 1.098 2.822.033.876.073.728-.62 2.326-2.065 4.77-2.649 9.331-1.686 13.186.492 1.968 1.476 3.929 2.798 5.577.456.567 1.685 1.824 2.114 2.16l.263.207-.046-.3c-.025-.164-.045-.774-.044-1.354.003-1.134.083-1.682.38-2.605.274-.845.881-1.894 1.096-1.89.04 0 .195.3.344.667.425 1.041 1.552 3.32 2.038 4.12.805 1.327 1.611 2.275 2.65 3.119.653.53.771.59 1.144.572.214-.01.3-.048.394-.176zm-.008-1.543c.377-.396.438-.687.485-2.326.04-1.385.047-1.437.213-1.794.305-.657.608-1.037 1.787-2.247.637-.654 1.199-1.268 1.249-1.365.05-.097.154-.371.232-.61.134-.407.145-.565.178-2.543l.035-2.11.225-.464c.426-.882.604-1.047 2.504-2.323.546-.367 1.11-.763 1.255-.88.576-.47 1.137-1.393 1.292-2.124.113-.533.111-.953-.01-2.222-.166-1.723-.034-3.483.314-4.168.174-.344.328-.462 1.123-.86.856-.427 1.232-.536 1.858-.54.821-.003 1.14.17 2.255 1.226.476.45.947.867 1.047.925l.181.106.056-2.029a159.6 159.6 0 0 0 .057-3.501c0-1.682-.064-1.552.6-1.22.503.253 1.062.794 1.29 1.249.103.208.188.415.188.46 0 .11.12.107.247-.007.092-.084.107-.036.174.567.04.363.084.67.097.683.012.012.072.004.133-.02.095-.036.105-.096.073-.45-.029-.319-.021-.382.032-.286.038.068.076.133.085.145.01.011.09-.028.18-.087.286-.187.344-.387.345-1.187 0-.607.038-.9.22-1.724.669-3.016.723-3.347.691-4.249-.032-.913-.143-1.381-.494-2.078-.914-1.815-2.623-3.27-4.93-4.194a82.124 82.124 0 0 0-2.275-.81c-3.144-1.082-4.363-1.569-5.256-2.099-.835-.496-1.152-.923-1.302-1.755-.104-.579-.017-.965.473-2.093.49-1.13.672-1.705.814-2.57.133-.811.149-2.031.032-2.512-.29-1.195-1.66-3.056-2.594-3.526-.857-.43-1.903-.692-2.766-.692-.465 0-.664.095-.664.317 0 .172.154.223 1.16.391 1.733.289 2.434.703 3.253 1.923.425.632.624 1.008.842 1.584.135.358.152.501.15 1.22-.004.911-.128 1.867-.309 2.38-.066.188-.262.652-.434 1.031-.615 1.355-.728 1.947-.544 2.846.213 1.034.71 1.656 1.744 2.184 1.11.567 2.611 1.186 4.112 1.695 3.15 1.068 4.115 1.477 5.19 2.197 1.696 1.137 2.428 2.082 2.95 3.81.216.712.153 1.611-.244 3.532-.39 1.878-.5 2.618-.51 3.399l-.008.612-.053-.434c-.095-.775-.113-.837-.244-.837-.095 0-.122.042-.122.198 0 .193-.004.19-.154-.111-.23-.461-.786-.984-1.347-1.265-.945-.473-1.68-.497-2.545-.081a9.008 9.008 0 0 0-.929.52c-.475.32-1.22 1.064-1.362 1.36l-.417.877c-.385.812-.883 1.444-1.533 1.944a7.95 7.95 0 0 0-.691.59c-.293.306-.806 1.369-.928 1.922-.109.492-.14 2.16-.084 4.373.037 1.424-.078 1.929-.56 2.479-.106.12-.797.67-1.535 1.221-1.587 1.185-2.363 1.925-2.653 2.534-.333.697-.383.946-.424 2.108-.073 2.091-.159 3.111-.287 3.405-.245.558-.955 1.42-1.669 2.023-.515.435-1.153 1.2-1.42 1.702-.32.6-.373.932-.44 2.789-.033.941-.079 1.802-.1 1.913-.059.288.116.269.416-.047zM10.38 23.165c.293-.093.319-.118.455-.455.422-1.04 1.72-2.831 3.287-4.532.854-.928 1.423-1.298 2.833-1.846.577-.224.651-.273 1.047-.694.592-.627 1.35-1.222 1.886-1.477.488-.233 1.246-.412 2.19-.517.652-.072 1.384-.266 2.142-.566 1.002-.397 1.524-.756 1.596-1.099.04-.194.132-1.401.227-2.992.173-2.889.388-3.624 1.32-4.504.615-.582 1.048-.92 1.595-1.248.721-.433 1.236-.59 2.507-.763.432-.06.585-.107.697-.22.309-.308.025-.423-.827-.335-1.132.117-2.016.391-2.835.879l-.365.217-.411-.203c-1.21-.596-3.03-.682-4.542-.215-1.556.48-2.787 2.294-3.034 4.469-.07.62-.046 1.262.1 2.543.118 1.052.113 1.419-.024 1.627-.202.305-.649.592-2.04 1.31-1.968 1.014-2.598 1.482-2.953 2.19-.16.321-.421 1.084-.553 1.621-.074.302-.127.368-.635.807-.697.602-1.322 1.346-2.422 2.884-.957 1.34-1.173 1.696-1.446 2.395-.238.608-.298.883-.187.848l.393-.124zm21.834-11.04c.401-.389.692-1.282.593-1.819-.08-.432-.285-.637-.637-.637-.63 0-1.356 1.25-1.202 2.07.078.42.518.759.867.67.065-.016.235-.144.38-.284zm2.384-4.121c.395-.395.48-.571.569-1.195.089-.615.045-.914-.17-1.17-.24-.286-.488-.26-.883.095-.575.518-.857 1.363-.678 2.037.065.245.122.325.297.418.355.19.527.153.865-.185zm-3.366.024c.457-.308.568-.495.648-1.09.135-.998-.017-1.544-.46-1.662-.432-.115-.661.094-1.06.962-.298.652-.348 1.071-.174 1.465.125.282.426.539.633.54.052 0 .238-.097.413-.215z"/></svg>