<svg xmlns="http://www.w3.org/2000/svg" width="64pt" height="64pt" viewBox="0 0 64 64"><path d="M31.793 0C14.234 0 0 14.234 0 31.793 0 49.355 14.234 63.59 31.793 63.59c17.562 0 31.797-14.235 31.797-31.797C63.59 14.234 49.355 0 31.793 0zm-8.41 17.555s6.789 5.054 6.879 5.297l.535.14 4.058.07.622.563 9.496-1.621c.136-.063.523-.242.718-.317.54-.25 1.832-.699 2.403-.808.62-.117 1.87-.254 2.234-.223.363.035.656.11 1.14.293.34.13 2.012 1.012 2.255 1.18.132.074.41.187.449.203.168.078 3.707.121 4.39.457.688.344 3.524.445 3.524.445s-2.754.203-3.117.387c-.688.36-1.692.574-3.5.629-2.172.07-4.461.223-4.461.223s-1.34-.282-1.29 2.007l-7.671.848-8.692.531s-.347.953-.496 1.618c-.054.246-2.058.003-2.55-.082-.493-.079-.43-.579-.43-.899 0-.324-.496-.183-.84-.215-.34-.031-6.156.063-6.156.063s.238-.414-.164-.836c-.137-.145.277-.602.41-.582.133.02-.18-.063-.317-.235-.132-.171.145-.925.528-1.097.39-.172 2.105-.594 2.312-.64.203-.048.602-.552.602-.552s-2.598.368-2.617.243c-.016-.125-.852-.688-.125-1.07.117-.067.57-.282-.164-.137-.153.027-.88-1.743-1.25-2.317-.371-.578-2.032-2.96-2.106-3.152 0 0 2.223-.32 3.39-.414zM2.586 29.602c.355 0 .715.011 1.043.039 0 0 4.672 3.535 5.406 4.265.563.09 3.66.246 4.867.34.211.008 3.559.04 3.559.04.96-.321 2.09-.868 2.848-1.208l.265-.094c.332-.105 1.172-.71 3.25-.855 1.488-.102 3.723-.074 4.196.113.195.082.726.403 1.128.653l-.078-.024c.22.125.453.25.645.336.324.016 5.289.703 6.133.914l1.82.035-1.805.145c-.36.199-3.816.855-6.207.945-2.398.082-3.902.106-3.902.106.058.238.176 1.109-.024 1.511-.476.344-2.44.61-5.894.742.156.102.273.375-.29.391-.554.012-.3.238.048.367.351.125 1.992.117 1.683.516-.136.164-.207.215-.699.379-.691.226-4.414.86-9.2-.145-.37-.074-.6-.402.056-.488.375-.047 2.918-.36 3.293-.395.378-.035.02-.378-.059-.476-.078-.102-2.164-.027-3.95.242-1.784.27-1.98.457-2.952.43-.977-.028-4.23-.297-4.668-.32l-.493-.282c-.218.059-.667-.058-1.02-.117-.077-.18.013-.387.103-.426.085-.043.683-.14.683-.14-.004-.403.23-.668.637-.868.406-.195 2.3-.53 2.3-.53l.2-.583-2.36.207c.012-.207.082-.86.192-1.148L.5 29.695s1.02-.097 2.086-.093zm0 0" fill="#211e1e"/></svg>