<svg xmlns="http://www.w3.org/2000/svg" width="64pt" height="64pt" viewBox="0 0 64 64"><path d="M30.45 64.367c-4.731-.254-9.454-1.582-13.571-3.828-6.973-3.797-12.274-9.945-14.965-17.367C-.078 37.688-.527 31.625.625 25.852 2.652 15.684 9.57 7.039 19.059 2.797a32.329 32.329 0 0 1 24.125-.879A32.28 32.28 0 0 1 60.41 16.641c3.676 6.632 4.875 14.422 3.375 21.925-2.195 10.985-10.039 20.098-20.601 23.93a32.382 32.382 0 0 1-12.735 1.871zm5.937-1.676c.164-.113.148-.367-.035-.578-.211-.238-.2-.414.02-.246.194.145.398.02.335-.207-.016-.062.004-.11.055-.125.05-.027.074-.094.074-.23 0-.11.023-.2.05-.2.024 0 .048-.085.048-.199 0-.277-.168-.55-.559-.89-.543-.477-.871-1.055-1.379-2.395-.223-.586-.305-.875-.328-1.144-.043-.43.031-1.207.2-2.157.6-3.449.671-4.258.55-6.472-.055-.965-.055-1.02.043-1.317.246-.746.246-1.14.008-1.824-.13-.379-.121-.414.054-.414.18 0 .23-.102.153-.309-.067-.183-.008-.277.183-.277.215 0 .313-.152.336-.535.016-.297.008-.336-.082-.383-.101-.059-.101-.062.067-.309.16-.23.172-.277.148-.476a.765.765 0 0 1 .02-.363c.086-.227-.004-.235-.332-.028-.465.297-.766.442-1.055.496l-.262.051-.054.32c-.149.84-.684 1.81-1.461 2.614-.633.652-1.293 1.09-1.926 1.273l-.367.106c-.043.011.02.093.183.238.145.121.258.262.258.305 0 .047-.047.191-.098.328-.214.57-.27 1.043-.265 2.312.008 1.547.09 2.2.433 3.543.336 1.293.422 1.813.426 2.375 0 .528-.043.715-.36 1.426-.542 1.238-.503 1.727.18 2.281.247.2.407.262 1.18.465.223.059.477.156.555.211.183.125.637.91.754 1.3.105.352.316.68.52.802.081.05.288.113.448.129.254.03.313.054.442.21.293.348.605.457.84.293zm-20.465-3.613c.125-.152.125-.223.023-.547-.097-.297-.12-.203.77-2.926l.586-1.773.281-.281c.41-.41.23-.332 4.707-2.04 1.34-.503 2.79-1.07 3.215-1.25.43-.171.937-.37 1.129-.429.418-.137.71-.332 1.012-.672.457-.523.707-1.246.71-2.035 0-.348-.011-.402-.078-.375a.842.842 0 0 1-.242.031c-.144 0-.168.016-.168.117 0 .188-.125.274-.387.274-.132 0-.273.012-.32.027-.074.031-.078.004-.05-.261l.035-.286h-.372l-.375.008.036.145c.097.457.09.504-.055.539-.121.035-1.106-.098-1.195-.153-.02-.011-.063-.132-.094-.27-.035-.136-.086-.253-.113-.265a7.065 7.065 0 0 0-.579-.035l-.52-.012-.05.254c-.074.309-.285.61-.488.692-.14.062-.172.058-.29-.032-.128-.097-.148-.148-.25-.644a1.569 1.569 0 0 0-.09-.328c-.019-.035-.288-.098-.593-.145l-.55-.078-.094.117c-.278.348-.282.399-.024.504l.145.063-.285.082a3.566 3.566 0 0 0-1.047.527c-.121.09-.328.234-.461.328-.363.25-.696.574-1.438 1.414-1.097 1.246-1.668 1.735-2.27 1.965-.163.063-.437.106-.874.125-.723.04-.91.106-1.164.402-.418.489-.43 1.266-.032 2.356.141.375.118.574-.168 1.527-.12.399-.218.82-.218.934.008.242.11.48.281.652.082.074.09.114.055.188a.653.653 0 0 0-.036.273c.012.149.04.192.172.254.118.059.157.106.16.207 0 .16.153.328.297.328.055 0 .16-.058.239-.136l.136-.137.079.289c.109.394.332.617.605.617.152 0 .219-.027.297-.129zm27.363-7.062c.746-.188 1.488-.442 1.813-.621.351-.192.562-.489.601-.86.031-.347-.023-.547-.199-.754-.129-.152-.2-.187-.379-.207-.191-.02-.281.004-.621.172-.219.11-.418.2-.441.2-.02 0-.059-.165-.075-.364-.043-.531-.18-.746-.55-.879-.403-.144-.758-.05-1.07.277-.294.31-.337.93-.118 1.84.098.407.313 1.07.399 1.239.058.109.054.109.64-.043zm-32.629-1.563c.809-.234 1.364-.613 1.57-1.066a.874.874 0 0 0-.253-1.059c-.32-.246-.57-.219-.942.086-.246.2-.273.207-.273.059-.004-.207-.18-.516-.348-.602a.82.82 0 0 0-1.055.3c-.187.321-.101.821.344 1.966l.196.504.168-.032c.093-.02.363-.09.593-.156zm34.746-1.73c.887-.672 2.082-1.84 2.637-2.575.547-.722.992-1.59 1.356-2.66.41-1.199.554-1.933.55-2.812-.004-.606-.004-.606-.254.18-.308.968-.882 2.035-1.964 3.656-.762 1.152-1.43 1.957-2.582 3.136l-.848.872.16.144c.227.215.379.309.5.309.063 0 .262-.114.445-.25zM19.63 46.738c.098-.062.2-.117.308-.152.208-.066.211-.074.247-.402l.02-.23-.274-.079c-1.043-.297-1.79-.555-1.801-.629-.016-.066.21-.945.254-.988.008-.008.234.12.492.285l.477.305.261-.137c.492-.258 1.649-.961 2.414-1.473.832-.55 2.137-1.511 2.137-1.566a.665.665 0 0 0-.133-.195l-.136-.157-.582.442c-1.02.773-3.524 2.398-3.875 2.508-.102.03-.852-.442-1.747-1.11-.253-.187-.488-.324-.52-.312a.702.702 0 0 0-.167.172l-.106.144.192.14c.183.13.195.153.226.466.032.335-.003.917-.078 1.167-.023.079-.117.231-.215.333-.199.222-.226.433-.078.578.051.054.254.14.45.199.199.055.496.176.66.254.293.148.316.152.558.094.282-.063.356-.032.407.18.078.312.316.378.609.163zm-5.055-.8c.059-1.032.196-1.383 1.051-2.778.281-.45.5-.836.488-.86-.011-.023-.3-.292-.648-.597-1.152-1.004-2.711-2.617-3.102-3.21l-.082-.122-.273.277c-.309.32-.395.547-.445 1.196-.008.14-.024.273-.047.402-.118-.043-.23-.098-.344-.148-.422-.192-.988-.336-1.317-.336-.601 0-1.414.324-1.851.738-.566.535-.836 1.473-.711 2.469.156 1.242.762 1.597 3.441 2.011.93.141 1.551.356 2.743.95.558.273 1.023.504 1.039.508.015 0 .046-.223.058-.497zm16.52-2.395c.523-.469.922-.95 1.093-1.32.11-.239.126-.32.098-.547-.058-.48-.32-.836-.707-.938-.344-.093-.578.032-.945.532l-.195.261-.102-.136a2.148 2.148 0 0 0-.383-.344c-.476-.352-.844-.336-1.203.047-.227.254-.27.375-.238.73.043.496.218.758 1.078 1.602l.781.765.152-.136.57-.516zm-11.469-1.836c.664-.191 1.063-.387 1.344-.664.383-.379.492-.727.351-1.105a.787.787 0 0 0-.484-.493c-.238-.097-.445-.047-.734.188-.25.207-.278.21-.278.066-.004-.203-.18-.511-.34-.597a.825.825 0 0 0-1.062.296c-.094.164-.106.239-.086.485.039.523.555 1.976.7 1.976.038 0 .308-.07.589-.152zm15.945-1.004c.2-.226.196-.465 0-.726-.175-.235-.18-.29-.023-.391.21-.137.242-.258.11-.395a.755.755 0 0 0-.66-.261c-.329.011-.372-.02-.282-.192.097-.183.097-.508 0-.586-.047-.039-.219-.05-.547-.039l-.477.016-.004-.234c-.003-.188-.03-.262-.132-.368-.114-.113-.18-.129-.492-.144-.356-.02-.36-.02-.313-.133.082-.176-.066-.363-.297-.363a.551.551 0 0 0-.281.074c-.102.066-.113.062-.188-.05-.062-.095-.12-.122-.257-.122-.141 0-.211.04-.383.223-.117.12-.227.21-.242.199-.012-.012 0-.117.035-.227.027-.113.047-.285.039-.382l-.016-.176.258-.059a.926.926 0 0 0 .367-.16l.098-.102-.11-.117c-.105-.113-.105-.12-.03-.293.07-.18.07-.187-.071-.37a.832.832 0 0 1-.149-.22c0-.015.055-.097.125-.18a.526.526 0 0 0 .122-.257c0-.129-.028-.14-.457-.195-.278-.04-.313-.094-.239-.434.055-.246.055-.25-.101-.371a3.373 3.373 0 0 1-.301-.277c-.18-.192-.344-.254-.617-.239-.364.028-.606.114-.664.243-.043.097-.036.132.035.199.148.133.426.703.535 1.101.148.516.184 1.367.082 1.875-.105.504-.406 1.114-.727 1.47-.238.265-.242.276-.086.179.094-.059.34-.16.54-.219.312-.098.468-.113 1.046-.113.829.004 1.153.07 1.875.422.442.214.563.296.93.664.332.336.461.507.625.836.2.414.395 1.105.395 1.398v.156l.394-.246c.215-.14.457-.324.535-.414zm8.184.246c.195-.094.566-.226.824-.297.883-.242 1.332-.68 1.363-1.324.02-.383-.074-.601-.328-.777-.238-.16-.664-.13-1.035.074l-.266.14-.003-.16c-.012-.378-.457-.746-.832-.671-.36.066-.758.355-.922.671-.04.079-.082.301-.102.493-.035.496.098 1.109.438 2.015l.097.258.2-.125c.117-.07.367-.203.566-.297zm-17.766-.355l.075-.14.238.077c.222.07.254.07.37-.008.079-.054.122-.125.122-.199 0-.117.008-.12.312-.094.286.028.317.02.391-.085a.635.635 0 0 0 .082-.305c0-.156.012-.18.082-.153.047.024.277.102.512.176.453.145.637.137.703-.027.07-.18-.031-.305-.434-.54-.543-.316-1.144-.71-1.418-.933-.437-.363-.996-1.175-.93-1.351.04-.102.204-.2.473-.27a.845.845 0 0 0 .403-.254c.168-.187.176-.238.093-.52-.035-.1-.425-.066-.671.063-.207.11-.418.164-1.008.27-.465.082-1.422-.125-2.059-.446a3.391 3.391 0 0 1-.535-.347c-.293-.23-.59-.457-.894-.676-.348-.258-.7-.52-1.043-.785-.45-.36-1.137-.711-1.903-.988-.59-.211-.762-.34-.71-.532.034-.144.148-.16.28-.043.137.121.344.004.817-.472.555-.551.742-.785.945-1.192.164-.343.196-.43.348-.968.101-.36.203-.368.246-.02.016.152.008.348-.023.453-.032.176-.051.356-.047.535-.004.34-.004.344-.227.559-.117.117-.219.234-.219.266 0 .027.078.101.168.16l.168.113.332-.332c.977-.973 2.461-1.535 3.54-1.336.277.055 1.054.285 1.105.328.012.016-.113.16-.277.328-.168.164-.305.32-.305.332 0 .04 1.004.774 1.058.774.024 0 .204-.153.399-.34.289-.277.371-.332.445-.293.121.066.613.617.77.86.09.144.156.199.203.179a.522.522 0 0 1 .152-.027c.047.004.133-.09.207-.223.156-.297.336-.461.496-.461.075 0 .22.078.352.191.129.106.289.23.36.278l.128.086.207-.274c.113-.144.227-.27.254-.27.078 0 .242.102.602.376.191.14.367.258.398.258.05 0-.004-.153-.457-1.266-.312-.754-.48-1.082-.754-1.422-.105-.137-.191-.266-.191-.289 0-.043.148-.438.18-.477.007-.011.14.098.3.247.328.304 1.25.93 1.7 1.156.585.293 1.96.578 2.968.625l.633.027.156-.137a1.55 1.55 0 0 0 .301-.41c.148-.297.309-.457 1.05-1.054.641-.52.888-.79 1.454-1.594.348-.488.582-.89.883-1.512.761-1.594 1.566-2.691 2.101-2.883.66-.234.805-.34.72-.527-.032-.059-.278-.36-.556-.668-.789-.89-.87-1.008-.87-1.211 0-.223.054-.45.273-1.02.191-.523.23-1.078.082-1.242-.196-.215-.543-.035-.852.438-.215.32-.601.73-.734.77-.125.038-.18-.012-.574-.544-.375-.496-.489-.617-.707-.757-.157-.094-.391-.122-.434-.047-.02.023.113.332.285.683l.317.64.074.817c.047.446.11 1 .156 1.227.113.621.047.93-.309 1.527-.23.371-.754.817-1.359 1.153-.914.503-1.492.945-2.488 1.914-.356.343-.657.62-.672.62-.012 0-.254-.206-.54-.456-.636-.567-.827-.696-1.964-1.305-.504-.266-.953-.531-1-.586a.94.94 0 0 1-.137-.281c-.066-.274-.226-.473-.648-.84-.34-.297-.41-.332-.735-.406-.343-.078-.359-.09-.445-.274-.148-.328-.277-.398-.894-.496a4.7 4.7 0 0 0-.567-.074c-.012.012.012.125.051.258.043.133.066.246.055.258-.024.023-.461-.114-.563-.18-.05-.031-.05-.09.02-.324.05-.18.113-.348.18-.516.097-.23.097-.23.374-.254.407-.043.762-.144 1.223-.348.383-.171.426-.18.758-.152.336.027.36.02.586-.125.39-.262.441-.523.195-1.047l-.117-.258.148-.12c.078-.07.172-.126.211-.126.098 0 .32-.195.367-.324.055-.133-.05-.39-.171-.437-.102-.04-.09-.086.046-.254.188-.219.153-.688-.046-.688-.082 0-.266-.273-.27-.394 0-.047.078-.094.211-.13.273-.073.574-.359.574-.55 0-.2-.21-.43-.433-.465-.243-.047-.45-.176-.633-.402l-.149-.192.141-.304c.172-.36.18-.528.047-1.246-.04-.196-.07-.395-.098-.59 0-.035.106-.121.235-.184.308-.156.714-.523.867-.789.23-.394.32-.933.207-1.223l-.047-.136-.133.16c-.074.082-.152.156-.168.156-.02 0-.035-.097-.035-.215 0-.257-.078-.5-.18-.535-.125-.055-.164.016-.164.285 0 .27-.086.434-.21.387-.032-.012-.11-.176-.169-.36-.09-.273-.152-.374-.328-.53-.297-.262-.605-.403-.937-.438-.262-.031-.278-.043-.293-.168-.02-.168.05-.262.27-.352.214-.09.198-.246-.032-.402-.23-.156-.371-.18-.602-.11-.214.06-.636.43-.75.645l-.07.137-.223-.168c-.417-.32-.84-.3-1.406.059l-.39.253-.11-.144c-.21-.27-.41-.352-.781-.328-.86.066-1.047.113-1.344.379-.156.136-.218.156-.445.156-.328 0-.488-.098-.61-.375-.07-.168-.128-.223-.292-.293l-.207-.082-.114.125c-.324.379-.246 1.18.157 1.668.097.117.168.223.156.238-.016.012-.149-.023-.301-.074-.707-.242-1.176-.16-1.418.258a1.264 1.264 0 0 0-.156.48c-.035.317.05.77.172.93l.093.113-.37-.004c-.31 0-.423.024-.618.125-.344.176-.465.375-.465.746 0 .372.106.563.418.762.125.078.25.149.278.156.023.008-.004.098-.067.2-.125.214-.105.476.051.636.078.09.09.121.035.227-.11.219-.371.187-.672-.09l-.203-.176.024.258c.046.48.386.75.918.727.308-.012.316-.012.425.152a1 1 0 0 1 .11.2c0 .01-.114.09-.258.171-.461.274-.567.59-.399 1.184.133.445.422.703.903.808.12.032.125.043.12.34-.003.262.017.332.134.48.187.255.52.399.793.36.207-.035.218-.027.27.102a.753.753 0 0 1 .023.308c-.036.223.09.473.308.625.13.082.235.11.477.11.168 0 .312.015.312.039 0 .109-.195.98-.273 1.203-.125.37-.313.687-.442.75a.913.913 0 0 1-.308.05c-.281 0-1.078.22-1.45.395-.261.121-.44.27-.82.648-.675.684-1.199 1.5-1.535 2.395-.273.71-.316.777-.664 1.152-.816.88-1.43 1.91-1.969 3.309-.09.226-.21.469-.27.535a1.931 1.931 0 0 0-.437.84l-.082.328.125.211c.07.125.23.281.38.383.292.195.64.527 1.128 1.082.387.433.742.715 1.356 1.082.941.555 1.785.836 3.378 1.12a6.337 6.337 0 0 1 1.66.532c.723.34 1.028.617 1.551 1.39.293.434 1.438 1.598 1.72 1.747.288.152.487.14.577-.035zm24.41-1.735c.528-1.035.692-1.726.778-3.21.054-.981.035-1.551-.094-2.938l-.027-.305-.348 1.059c-.195.582-.45 1.297-.559 1.586-.296.765-.398 1.226-.425 1.957-.024.547-.012.726.097 1.34.07.39.153.797.184.902.047.18.055.184.125.098.035-.055.16-.274.27-.489zm-34.691-.777a.643.643 0 0 0 .363-.539c0-.215-.164-.54-.32-.64a.654.654 0 0 0-.39-.083l-.247.008.047-.183c.14-.52-.37-.918-.91-.711-.512.191-.68.597-.656 1.562l.02.582.316.031c.675.059 1.605.047 1.777-.027zm29.871-.39c.102-.102.352-.762.488-1.305.141-.54.207-1.012.137-.942-.09.102-1.16 1.473-1.387 1.79-.125.18-.23.35-.23.374 0 .13.871.203.992.082zm-17.34-.536c.469-.89.7-1.742.703-2.597 0-.496.008-.489-.328-.422l-.148.031-.024.617c-.027.758-.164 1.242-.566 2.055l-.29.59c-.023.05.29.238.356.218.028-.007.164-.23.301-.492zm-16.547.207l.13-.082-.235-.468c-.434-.86-.629-1.61-.629-2.391 0-1.195.477-2.262 1.434-3.215.57-.566 1.093-.902 1.761-1.121.239-.078.442-.148.45-.152a.812.812 0 0 0-.047-.23l-.067-.22-.418.133c-1.797.582-3.203 2.207-3.53 4.098-.173.972.003 1.984.542 3.125.281.59.352.695.422.644.035-.027.117-.078.187-.12zM39.152 36c.094-.05.426-.207.735-.336.73-.305 1.164-.562 1.445-.863.328-.352.477-.676.477-1.031 0-.254-.02-.313-.149-.461-.34-.391-.945-.348-1.418.105-.191.18-.207.172-.254-.094-.05-.258-.312-.48-.566-.48-.363 0-.652.191-.84.555-.203.39-.164.765.18 1.925.07.223.12.473.12.563 0 .137.032.222.083.222.004 0 .09-.046.187-.105zm7.672-1.957c.344-.543.461-.79.59-1.258.078-.285.086-.41.047-.914-.04-.566-.164-1.027-.281-1.027-.114 0-.82 1.71-1 2.422-.094.39-.098.422-.02.882.043.262.106.543.14.618l.063.132.082-.187c.04-.106.215-.406.38-.668zm-5.515-1.816c.273-.301.851-1.27 1.011-1.696.07-.187.242-.804.39-1.367.267-1.059.345-1.297.61-1.945.086-.211.145-.395.133-.407-.031-.027-.246.266-.367.497-.05.105-.219.503-.367.875-.145.375-.332.824-.41 1-.215.476-.86 1.492-1.524 2.394-.32.438-.582.828-.582.867 0 .055.082.063.45.04l.449-.032zm9.718-.86c.207-.62-.05-2.39-.465-3.23-.23-.461-.933-1.563-1.078-1.684-.082-.066-.086-.035-.058.711.058 1.434.203 2.043.699 2.938.172.312.418.773.543 1.02.125.25.246.452.262.452.015 0 .054-.094.097-.207zm-3.5-1.625c.098-.351.227-1.394.227-1.8 0-.16-.031-.426-.07-.59-.082-.325-.407-.993-.59-1.211l-.117-.149v.371c0 .258-.043.508-.125.805-.254.84-.278.973-.282 1.36 0 .445.09.745.446 1.503l.222.485.106-.239c.054-.132.14-.37.183-.535zm-33.683-2.375c.222-.097.332-.238.64-.812.325-.606.399-.688 1.215-1.332.399-.32.598-.504.559-.524-.035-.02-.211-.015-.39.004-.907.113-1.684.461-2.2.992-.227.235-.473.73-.508 1.024-.035.3.152.613.402.676a.999.999 0 0 0 .11.027.804.804 0 0 0 .172-.055zm32.18-1.215c.113-.53.273-.937.593-1.488.172-.297.285-.445.32-.418a43.26 43.26 0 0 1 1.731 1.168c.117.094.168.11.184.059.261-.758.476-1.094 1.043-1.649.492-.48 1.046-.887 1.992-1.449 1.937-1.152 2.457-1.527 3.304-2.375 1.016-1.02 1.532-1.852 1.786-2.902.125-.524.101-1.293-.059-1.852-.133-.465-.473-1.187-.777-1.66-.2-.3-.301-.402-.578-.57a4.667 4.667 0 0 0-.356-.207c-.008 0-.016.375-.016.84 0 .742-.015.886-.117 1.25-.219.75-.855 1.87-1.453 2.542-.57.653-1.809 1.672-2.89 2.399-1.758 1.176-3.2 2.43-4.094 3.547a6.496 6.496 0 0 0-.91 1.433l-.2.41c-.004.008-.484-.421-1.062-.96l-1.059-.98-.226.25c-.125.136-.23.26-.235.28-.008.032 2.914 2.735 2.961 2.735.016 0 .067-.184.117-.403zm-33.84-.168c.09-.07.355-.324.601-.55.805-.774 1.207-1.028 2.137-1.348.594-.203.598-.219.09-.41-1.02-.383-2.426-.082-3.258.699-.441.41-.613.848-.504 1.262.121.453.582.625.934.343zm5.336-.613c.113-.125.296-.48.43-.836.116-.316.445-.629.995-.953.242-.145.442-.27.442-.281 0-.016-.13-.164-.29-.336-.343-.367-.476-.684-.546-1.309-.051-.449-.16-.718-.313-.777-.168-.063-.308-.027-.41.101-.105.137-.105.165-.02.532.024.113-.097.008-.593-.504-.34-.356-.684-.684-.77-.727-.215-.117-.691-.113-.925.008-.329.156-.48.55-.375.953.093.344.293.496.918.703.511.168 1.007.434.996.535-.004.024-.125.079-.266.125-.566.18-.941.434-.965.657-.02.218.008.312.14.46.177.18.345.192.778.048.402-.137.469-.11.34.148-.184.371-.18 1.094.012 1.406.113.188.277.207.422.047zm-6.114-1.84c.149-.054.383-.183.528-.289.992-.719 1.129-.777 2.316-.984.332-.063.602-.125.602-.145 0-.078-1.239-.281-1.98-.32-.919-.05-1.923.16-2.298.488-.433.38-.457.883-.054 1.219.19.16.511.172.886.031zm9.453-.699c.051-.078.047-.21-.011-.465-.168-.71-.84-1.465-1.211-1.347-.313.097-.254.94.101 1.468.219.325.516.473.84.43.137-.016.262-.059.281-.086zm-10.316-1.328a9.703 9.703 0 0 0 1.039-.383c.34-.148.68-.277.75-.297.25-.062.188-.113-.293-.265-.969-.293-1.785-.391-2.176-.25-.402.14-.71.558-.64.875.03.14.23.363.367.41.172.066.55.027.953-.09zm35.113-.754c.371-.648 1.246-1.445 3.074-2.797 1.551-1.144 2.004-1.504 2.336-1.863.965-1.031 1.047-2.824.168-3.703a2.268 2.268 0 0 0-.547-.375c-.289-.137-.378-.153-.874-.168-.485-.02-.598-.004-.95.105-.976.309-1.918 1.203-2.883 2.754-.109.188-.226.367-.347.543-.012 0-.242-.293-.516-.648-1.012-1.305-1.629-1.946-2.281-2.371-.406-.258-.711-.348-1.227-.348-1.422-.004-2.25.797-2.324 2.254-.027.617.07 1.015.371 1.48.469.727.98 1.196 2.715 2.496.691.524 1.387 1.051 1.531 1.172.668.547 1.262 1.207 1.446 1.586.05.098.097.176.113.176s.102-.129.195-.293zm-26.922-.645c.004-.253.032-.46.075-.539.074-.136.07-.144-.18-.398a1.635 1.635 0 0 1-.36-.535c-.359-.965-1.136-1.543-1.585-1.188-.118.094-.13.133-.11.317.012.12.012.21 0 .21-.043 0-.535-.34-.738-.519-.629-.535-.645-.953-.05-1.039l.194-.023-.867-.903c-.996-1.035-1.43-1.582-1.773-2.254-.422-.82-.985-1.464-1.352-1.55-.437-.102-.734-.008-1.05.34-.215.242-.231.453-.083.945.215.695 1.133 1.746 2.23 2.562l.306.223-.164.047c-.364.082-.493.402-.313.761.137.266.453.493.918.641l.34.106-.156.066c-.594.25-.235.691.87 1.066 1.09.368 1.872.88 2.446 1.602l.156.195v-.152c0-.238.117-.32.399-.297.277.027.504.191.703.5l.14.219zm-4.234.047c-.035-.105-.563-.5-1.883-1.406-1.539-1.05-2.023-1.41-2.715-1.976-.289-.239-.578-.477-.863-.715-1.062-.871-1.863-1.16-2.523-.91-.551.207-.793.539-.797 1.078-.008.629.437 1.215 1.386 1.847.25.172.473.317.489.332.011.012-.02.043-.074.07-.168.094-.52.442-.598.594-.098.188-.059.512.078.704.227.32.64.324 1.383.007 1.078-.453 1.812-.515 2.8-.254l.555.149-.125-.149c-.16-.191-.156-.343.008-.476.207-.164.5-.078 1.137.332.148.098.555.324.902.508.606.312.883.402.84.265zm22.46-3.136c.145-.098.267-.196.267-.215 0-.024-.079-.18-.168-.348-.98-1.785-.895-4.394.199-6.043.976-1.469 2.554-1.988 4.504-1.473 1.457.383 2.484 1.27 3.074 2.66.113.266.21.477.215.47.008-.008.023-.368.031-.797l.016-.778-.258-.351c-.692-.934-1.7-1.586-2.961-1.918-.758-.2-1.77-.25-2.406-.121-.852.171-1.496.503-2.11 1.093-.66.625-1.07 1.301-1.375 2.25-.258.79-.34 1.422-.308 2.41.03.946.152 1.579.445 2.29.16.406.496 1.05.547 1.05.012 0 .14-.082.289-.18zm-20.093-1.313c.016-.02-.004-.11-.047-.207-.039-.098-.148-.562-.238-1.027-.328-1.66-.559-2.145-1.113-2.297-.34-.098-.696.137-.82.543-.083.289.015.848.238 1.305.238.503.883 1.148 1.48 1.484.434.238.45.246.5.2zm29.32-4.05c.211-.423.493-.91.622-1.087.613-.836 1.324-1.293 2.457-1.597.644-.176 1.672-.18 2.293-.016 1.273.332 2.441 1.27 3.074 2.453.21.395.219.403.64.637.243.133.446.23.457.219.04-.043-.226-.746-.445-1.157-1.062-2.003-3.2-3.203-5.328-2.98-.926.098-1.875.414-2.496.832a5.874 5.874 0 0 0-1.367 1.379c-.239.351-.285.469-.285.633 0 .113-.02.488-.036.828-.02.34-.02.621 0 .621.016 0 .204-.344.414-.766zm0 0"/></svg>