<svg xmlns="http://www.w3.org/2000/svg" width="64" height="64"><path d="M30.077 62.943c-5.97-.358-11.87-2.527-16.654-6.123-1.677-1.26-3.946-3.407-5.19-4.91-3.151-3.808-5.247-7.97-6.373-12.654a31.038 31.038 0 0 1 2.593-21.492c1.512-2.92 3.22-5.24 5.646-7.666 1.27-1.268 2.137-2.031 3.324-2.922C21.308 1.258 31.6-.535 41.096 2.354a31.297 31.297 0 0 1 9.45 4.795c2.223 1.667 4.611 4.054 6.277 6.273 5.597 7.458 7.517 17.076 5.229 26.191-1.866 7.43-6.484 13.94-12.94 18.24-5.563 3.705-12.263 5.497-19.035 5.09zm2.986-1.174c2.505-.252 4.94-1 5.39-1.657.317-.463.077-1.104-.759-2.031-1.344-1.491-2.321-2.904-3.146-4.548-.256-.511-.26-.516-.458-.477-.352.07-.506.155-.61.336-.096.168-.117.175-.372.128-.296-.054-.393-.023-.224.072.06.033.15.14.2.239.089.17.087.18-.046.198-.196.028-.209.306-.043.902a11.31 11.31 0 0 0 1.438 3.107c.262.39.327.45.465.434.322-.039.31-.18-.061-.74-.407-.612-.976-1.75-.976-1.953 0-.077.03-.16.065-.181.188-.116.368.063 1.017 1.008.846 1.231 1.043 1.476 1.349 1.668.327.207.48.552.482 1.084.002.33-.022.43-.122.52-.187.17-1.48.458-2.357.526-3.64.281-4.9.192-6.358-.451-.495-.219-.633-.248-1.133-.235-.22.005-.277.033-.336.16-.096.212.075.583.435.942.362.362.476.414 1.313.601 1.665.372 3.382.495 4.847.348zm-6.802-1.216c-.085-.159-.154-.322-.154-.362 0-.04-.066-.11-.148-.153a.641.641 0 0 1-.224-.221c-.127-.238.143-.713.864-1.52a20.287 20.287 0 0 0 3.034-4.403c.255-.495.47-.909.48-.92.01-.012.063.004.12.036.075.042.21.001.494-.15.435-.231.532-.366.352-.492-.156-.11-.32-.464-.32-.691 0-.213.126-.343.466-.485l.245-.103-.17-.146c-.393-.337-1.06-.323-1.135.025a10.95 10.95 0 0 1-1.053 2.846c-.785 1.473-1.515 2.55-2.486 3.67-1.003 1.154-1.086 1.263-1.271 1.651-.34.713-.201 1.039.636 1.49.217.117.402.214.41.215.007 0-.056-.129-.14-.287zm5.553-1.468c.26-.127.278-.151.271-.372-.005-.167-.064-.303-.201-.465a3.146 3.146 0 0 1-.31-.446c-.16-.296-.319-1.033-.318-1.47 0-.198-.033-.732-.073-1.186-.058-.657-.094-.836-.177-.88-.164-.088-.349.085-.394.367-.123.77-.806 2.353-1.41 3.272-.323.49-.366.587-.306.698.038.071.113.129.168.129.054 0 .186.052.292.116.191.115.854.346 1.155.403.32.06 1.024-.03 1.303-.166zm1.594-6.128a1.09 1.09 0 0 1 .447-.202c.14-.023.254-.064.254-.091a4.64 4.64 0 0 0-.146-.48c-.08-.237-.194-.631-.254-.877-.103-.425-.12-.45-.335-.522-.56-.188-1.048-.046-1.35.39-.158.228-.16.235-.061.53.054.163.21.479.347.7.136.222.248.473.248.559 0 .145.02.155.329.155.263 0 .367-.032.521-.162zm-2.566-2.837c.19-1.229.249-3.489.144-5.532l-.053-1.026-.19-.11c-.152-.087-.2-.092-.244-.028-.031.046-.034.671-.006 1.445.065 1.818.038 3.404-.078 4.483-.052.486-.108.92-.124.962-.022.056.045.07.243.055.262-.02.275-.032.308-.249zm2.623.006c-.147-1.065-.183-1.654-.188-3.086-.003-.887.008-2.063.025-2.615.017-.55.016-1.017-.003-1.037-.019-.019-.13.013-.248.07l-.214.106-.03.777c-.06 1.486-.03 4.423.051 5.087.106.861.123.919.28.95.363.07.37.065.327-.252zm-.707-6.919c.208-.088.265-.17.564-.8.183-.385.392-.753.464-.817.171-.151.298-.523.209-.612-.103-.103-.635-.13-.941-.048-.192.051-.362.162-.547.354-.148.153-.282.264-.3.247-.018-.018-.057-.293-.088-.611a9.49 9.49 0 0 0-.094-.747c-.038-.164-.216-.278-.327-.209-.03.019-.089.306-.13.64-.042.333-.116.7-.163.814l-.087.209-.275-.306c-.29-.322-.574-.452-.984-.452-.302 0-.416.053-.416.195 0 .15.145.438.277.547.055.046.254.384.442.752.323.632.36.678.664.833.297.15.369.161.912.136.339-.015.687-.068.82-.125zm-2.32-2.792c.471-.373.717-2.212.885-6.617.083-2.165.041-12.038-.062-14.825-.141-3.801-.194-5.074-.229-5.45l-.036-.396-.3.035c-.385.046-1.126.354-1.624.676-.477.309-1.129.953-1.443 1.428l-.235.356.125.295c.262.621.351 1.127.352 2.002 0 .892-.068 1.263-.377 2.056l-.16.412.177.332c.098.183.43.587.736.897.645.653 1.255 1.04 2.046 1.297l.518.169.044.526c.062.74-.012 10.301-.09 11.616-.142 2.414-.29 3.785-.468 4.363a2.112 2.112 0 0 1-.343.598c-.137.163-.25.313-.25.333 0 .057.645-.033.734-.103zm3.547.08c0-.035-.113-.186-.251-.336a1.536 1.536 0 0 1-.367-.676c-.217-.76-.39-2.802-.498-5.903-.067-1.91-.085-9.67-.023-10.184l.039-.322.438-.133a5.172 5.172 0 0 0 1.694-.889c.453-.354 1.076-1.07 1.076-1.235 0-.05-.07-.244-.155-.43-.293-.642-.416-1.253-.42-2.096-.004-.91.137-1.59.484-2.342l.219-.474-.225-.327c-.304-.442-1.046-1.136-1.495-1.4-.481-.281-1.122-.535-1.475-.583-.267-.037-.282-.031-.282.109 0 .081-.042 1.18-.092 2.443-.29 7.223-.342 9.194-.341 12.917.001 7.21.255 10.747.834 11.622.155.235.161.237.731.292.06.006.109-.018.109-.053zm8.218-17.33a5.201 5.201 0 0 0 3.51-3.278c.445-1.297.359-2.597-.255-3.86-.526-1.083-1.244-1.8-2.325-2.324-.955-.463-1.828-.619-2.79-.498-1.214.151-2.112.594-3.015 1.488-.526.522-.631.664-.914 1.241-.401.817-.507 1.218-.55 2.081-.074 1.47.423 2.76 1.47 3.814a5.173 5.173 0 0 0 2.512 1.388c.547.12 1.82.092 2.357-.053zm-18.39-.347a5.153 5.153 0 0 0 3.597-3.684c.17-.674.17-1.756 0-2.43-.45-1.79-1.814-3.179-3.629-3.695-.707-.201-1.896-.202-2.605 0-1.019.289-1.94.877-2.58 1.648-.405.487-.866 1.356-1.023 1.928-.154.564-.186 1.76-.062 2.358.418 2.02 2.082 3.63 4.133 3.996.522.093 1.63.031 2.168-.12zm16.615-10.02c.02-.019-.03-.157-.11-.307-.199-.375-.79-.923-1.193-1.107-1.495-.683-1.778-.753-2.876-.71-.517.02-.741.053-.86.131a.835.835 0 0 1-.388.105c-.17 0-.298.057-.503.225-.15.123-.408.289-.571.368-.222.107-.388.263-.654.616-.195.26-.341.488-.323.506.018.018.138.056.267.085.212.048.254.035.457-.148a4.452 4.452 0 0 1 2.112-1.067c1.257-.255 2.67.156 3.641 1.057l.413.384.277-.052c.153-.028.293-.067.311-.086zm1.71.02c-.21-.68-1.006-1.709-1.779-2.3-1.783-1.364-4.07-1.58-6.055-.574-.297.15-.3.15-.479.033l-.18-.119-.114.221c-.127.25-.121.26.307.49.198.107.207.106.469-.048 1.428-.836 3.252-.912 4.758-.198.947.449 1.855 1.277 2.33 2.125.255.454.238.442.704.499.057.007.068-.032.038-.13zm-11.42-.163c.098-.039.07-.092-.218-.417-.654-.738-1.364-1.223-2.19-1.497-.44-.146-.596-.165-1.365-.167-.653-.002-.97.025-1.272.11-.91.251-1.841.835-2.333 1.461-.235.3-.256.351-.163.388.28.111.423.052.827-.343.514-.502 1.337-.92 2.101-1.07 1.362-.267 2.717.152 3.708 1.146.426.428.608.506.904.39zm-8.077-.54c.205-.202.474-.507.597-.678.777-1.08 1.683-1.617 2.962-1.757 1.132-.125 2.345.188 3.191.822.191.143.376.208.376.131 0-.015-.063-.124-.14-.24a7.06 7.06 0 0 1-.241-.4c-.124-.227-.698-.517-1.4-.706-.692-.187-1.774-.188-2.522-.001-.603.15-1.411.504-1.88.823-.673.46-1.473 1.352-1.811 2.023-.201.4-.184.437.181.39.276-.035.358-.084.687-.407zm9.128-1.354c.193-.117.527-.27.741-.342.414-.137.692-.346.764-.573.054-.169-.103-.312-.581-.534-.3-.138-.392-.15-.993-.13l-.662.023-.58.369c-.32.202-.595.405-.612.45-.048.125.107.272.448.424.17.077.392.226.492.331.25.265.522.26.983-.018zm1.33-2.235c.782-.703 1.068-1.969.693-3.066-.144-.419-.5-.955-.755-1.137l-.185-.132-.114.15c-.156.203-.15.235.095.488.117.12.291.373.388.56.161.316.174.395.174 1.055 0 .642-.016.748-.164 1.064-.195.417-.593.823-.906.926l-.225.074.255.1c.14.055.276.12.301.146.08.08.127.055.443-.228zm-1.782.039c.335-.164.342-.172.36-.459a.996.996 0 0 0-.077-.477c-.12-.23-.121-.458-.007-.786.1-.285.066-.502-.15-.98-.233-.513-.079-.86.58-1.297.31-.206.536-.499.45-.585-.027-.027-.267-.059-.533-.07-.385-.018-.541.003-.769.104-.41.181-.68.405-.932.773-.6.874-.673 2.012-.193 2.996.21.432.683.96.851.951.044-.002.233-.078.42-.17z"/></svg>