<svg xmlns="http://www.w3.org/2000/svg" width="64pt" height="64pt" viewBox="0 0 64 64"><path d="M30.898 64.387c-5.75-.274-11.05-1.91-15.785-4.883C8.043 55.063 2.941 48.035.957 40.012A32.413 32.413 0 0 1 .973 24.32c.59-2.34 1.312-4.28 2.453-6.547a27.875 27.875 0 0 1 1.957-3.398C9.633 7.985 16.098 3.27 23.465 1.207a32.316 32.316 0 0 1 21.473 1.402c1.035.442 2.894 1.399 3.882 2 2.332 1.41 4.168 2.86 6.149 4.84 2.148 2.14 3.734 4.207 5.207 6.774 4.14 7.218 5.304 15.816 3.238 23.965C60.48 51.745 51.2 60.852 39.602 63.555c-2.829.66-5.965.957-8.704.832zm.989-1.57c.597 0 1.199.015 1.343.035l.254.035-.054-.29.61-.007c.335-.004.773-.02.976-.04.464-.038.437-.046-1.192-.296a38.127 38.127 0 0 1-1.625-.277l-.36-.086.59-.188a5.94 5.94 0 0 1 .66-.187c.134 0-.003-.075-.28-.153l-.278-.082.66-.129c.368-.074.72-.132.786-.132.066 0 .105-.012.086-.036-.106-.109-3.004-.207-3.528-.117l-.223.04.168.027c.098.015.418.05.715.086.766.074.817.093.817.203 0 .086-.04.093-.332.097-1.02.02-2.032.075-3.043.172-1.102.133-1.117.14-.41.207.523.051 1.988.317 2.043.371.007.012-.211.075-.489.137l-.504.117.914.035c1.079.036 1.028.032 1.028.082 0 .024-.188.059-.43.075-.613.05-2.191.28-2.277.332-.047.035.355.035 1.11.007a87.643 87.643 0 0 1 2.265-.039zm-1.403-2.56c1.368-.058 2.618-.038 2.844.048.035.011.063-.008.063-.051 0-.055.07-.07.304-.07.766 0 1.875-.149 3.438-.454 1.25-.238 1.183-.218 1.183-.363 0-.101-.02-.113-.136-.094-.07.012-.836.145-1.688.301l-1.55.281-.938-.136c-.465-.067-.938-.14-1.402-.223l-.47-.086 1.06-.027c1.19-.035 1.671-.098 3.644-.48 1.559-.298 1.48-.278 1.48-.395 0-.078-.027-.09-.136-.074-.07.011-.332.046-.578.078-.247.031-.918.144-1.504.25-1.707.312-2.293.39-3.13.414l-.784.023.343-.125c.137-.054.282-.097.43-.12.184 0 .078-.087-.187-.153-.16-.04-.247-.078-.211-.098.039-.02.398-.098.804-.176l.739-.144-.465-.031-1.383-.09c-.695-.043-1.047-.043-1.477-.004a17.05 17.05 0 0 0-.574.07c-.012.012.543.082 1.465.176.227.027.266.043.266.129 0 .09-.036.097-.442.11-1.508.034-3.316.179-3.82.304-.156.039-.145.043.129.047.48.008 2.125.285 2.324.394.031.016-.129.075-.363.125-.395.086-.489.09-1.672.028-1.695-.086-2.77-.024-3.668.222-.14.04-.293.067-.442.078-.421.028.696.086 2.047.121 1.63.04 2.13.008 2.989-.207.457-.109.57-.125 1.12-.093.66.031 1.102.074 1.067.11-.008.01-.324.05-.7.093-1.066.11-2.132.281-1.991.324.18.047.312.043 1.972-.031zm1.38-.905c-.126-.036-.126-.04-.012-.067a.243.243 0 0 1 .191.043c.102.07.035.082-.18.024zm13.69.242c.137-.137.165-.282.141-.793-.02-.61-.05-.64-.793-.64-.492 0-.558.01-.66.109-.105.097-.113.148-.113.664 0 .539.004.554.133.656.113.086.195.101.66.101.473 0 .55-.011.637-.097zm-25.171-.25c1.043-.082 2.176-.184 2.515-.219.336-.043.657-.074.707-.074.067 0 .082-.016.051-.055-.027-.023-.363-.094-.738-.148-.824-.125-2.156-.145-2.922-.051-.476.062-.562.094-1.183.406-.47.238-.622.332-.497.313.098-.012 1.024-.09 2.067-.172zm5.785-1.094l.445-.055-.293-.039c-.16-.015-.554-.054-.875-.093-.547-.055-.578-.063-.578-.168 0-.11.008-.11 1.047-.145.957-.027 1.637-.074 2.262-.16.195-.024.242-.016.242.043 0 .101.145.137.621.137.824 0 1.895-.16 2.781-.415.453-.132.996-.328.973-.347a3.282 3.282 0 0 0-.484.054c-.871.122-2.043.215-3.082.243-1.07.027-1.375 0-2.309-.215l-.352-.082.52-.121.516-.125-1.02-.028c-.559-.015-1.031-.039-1.047-.054-.02-.02.149-.047.38-.067.42-.031 2.05-.289 2.35-.37.18-.052-.988-.032-2.3.03-.637.028-.652.028-.652-.066 0-.129.128-.145 1.324-.184.793-.02 1.578-.09 2.36-.203.706-.105.823-.164.327-.168-.414-.004-1.129-.097-1.75-.226-.597-.125-.597-.125-.12-.239l.444-.105-.835-.039c-1.133-.047-1.286-.09-.563-.168.684-.078 2.09-.3 2.23-.36.168-.066-.75-.05-1.945.036-.719.047-1.43.066-2.035.05l-.93-.023.024.11c.023.109.015.109-.844.167-.477.032-.918.06-.988.055-.317 0 .054.07 1.332.246 1.484.207 1.968.29 2.027.344.016.016-.195.105-.469.2-.828.273-.797.245-.43.343l.321.086-.297.066c-.23.047-.465.07-.703.07-.352 0-.402.012-.402.087 0 .062-.043.09-.137.093-.117.008-.113.012.035.04.117.019-.031.046-.465.07-.789.043-1.316.09-1.293.113.016.012.57.094 1.246.187 1.453.204 2.188.325 2.188.368 0 .035-1.074.402-1.172.398-.152 0 .008.09.273.149l.286.062-.47.113c-.257.063-.624.14-.816.176l-.343.066.84.051c1.171.078 2.085.082 2.605.012zm-6.57-.375c.468-.098 1.355-.39 1.308-.438-.015-.011-.207 0-.433.036-.227.03-.739.066-1.137.086l-.727.03v-1.476l.63-.062c.566-.07 1.124-.153 1.687-.254l1.058-.192-.949.012c-.808.012-.941.004-.922-.058.024-.059-.082-.067-.738-.04l-.766.028.028-4.543 5.39-2.379 5.457-2.402c.047-.02.063.16.063.808v.832l-.676.02c-.613.012-.664.02-.531.074.578.258 1.55.297 2.558.113.332-.058.641-.125.692-.14.164-.051-.313-.102-1.047-.106l-.652-.004.011-.898.016-.89 1.77-.782c.972-.43 1.812-.793 1.859-.809.086-.027.09.102.09 2.582v2.618l-.457.011c-.371.012-.457.028-.47.098-.015.082.235.207.56.262.253.05.308.082.195.12-.23.083 2.12-.066 2.41-.152.188-.054.113-.07-.957-.19-.637-.08-1.086-.138-1-.142l.164-.003v-5.45l2.113-.93 2.125-.933v-.312l-2.035.894a235.69 235.69 0 0 1-2.117.93c-.082.031-.086-.028-.086-.852v-.89l.125-.047c.168-.063.152-.27-.016-.266-.183.004-.129-.062.075-.098.355-.054.488-.035.52.075.023.093.046.101.214.066.105-.027.332-.035.512-.023.847.066 1.953-.012 2.539-.172.078-.024.11-.004.129.07.058.207.14.102.14-.172 0-.258-.008-.273-.105-.242-.559.176-2.047.336-2.38.254-.179-.047-.163-.11.048-.184.16-.05.191-.047.242.02.074.101.164.101.54 0 .366-.102.437-.149.398-.297-.02-.074-.012-.113.039-.113.12 0 1.332-.633 1.574-.825.164-.128.3-.296.433-.546l.196-.36-.344.313c-.637.578-1.55 1.047-2.813 1.433-1.093.34-1.285.371-1.593.262a3.338 3.338 0 0 1-.492-.234c-.137-.082-.258-.133-.274-.106-.336.488-.352.508-.637.508-.777 0-2.398-.367-3.207-.719l-.261-.12-.493.515c-1.375 1.449-3.765 2.726-6.984 3.718-.785.239-2.137.594-2.281.594-.11 0-1.266-.582-1.426-.718-.18-.149-.309-.149-.457 0-.11.113-.121.156-.121.57v.457l-1.297-.024c-1.395-.03-1.887-.086-2.965-.343a12.802 12.802 0 0 1-2.664-.95c-.68-.332-1.836-1.046-1.988-1.23-.106-.125-.266-.09-.363.066-.079.13-.082.368-.082 2.563 0 2.351 0 2.422.097 2.516.121.12.254.124.36.011.074-.082.082-.336.093-2.386l.012-2.297.496.316a12.95 12.95 0 0 0 3.395 1.523c1.375.375 2.445.52 3.906.52h1v4.27l-.399.175c-.308.14-.394.2-.382.27.027.129.191.129.5-.008l.28-.121v.422l-2.78 1.219c-1.532.675-2.797 1.257-2.809 1.296-.035.098.008.157.121.157.055 0 1.133-.453 2.399-1.012a351.233 351.233 0 0 1 2.687-1.184l.383-.16v6.196l-.235-.028c-.261-.027-.906.149-1.164.324l-.14.094.312.028c.176.015.39.042.489.05.437.051 1.96-.023 2.414-.113zm-.989-2.059v-.226l.262.031c.14.02.352.063.469.09l.21.05-.433.145c-.238.074-.449.137-.469.137-.02 0-.039-.102-.039-.227zm.008-5.34c.02-.203.02-.203.38-.355.378-.156.452-.234.355-.351-.051-.067-.094-.06-.313.027-.113.047-.227.09-.344.125-.082.023-.086-.082-.086-1.774v-1.8l.278-.078c.23-.067.27-.098.258-.192-.016-.082-.047-.105-.165-.105a.991.991 0 0 0-.261.043c-.078.027-.11.02-.11-.036 0-.046.125-.082.457-.128a6.5 6.5 0 0 0 .512-.086c.035-.016.047.023.031.097-.03.164.067.188.387.098l.27-.07.77.246c.78.254 1.585.441 2.405.554.817.11 2.22.07 2.93-.082.05-.011.07-.007.035.004-.086.043-.074.219.012.254.125.043.816-.281.867-.406.047-.129.317-.234.434-.172.11.059.734-.203.867-.36.14-.163.297-.234.434-.199.074.016.238-.023.437-.105.387-.16.477-.238.402-.352-.039-.07.004-.12.297-.312.973-.64 2.25-1.816 3.035-2.793.2-.254.383-.457.407-.457.097 0 .03.203-.09.25-.164.059-.153.27.02.262.109-.004.109.004.109.648v.649l-.352.14c-.37.149-.445.227-.328.348.066.066.105.062.363-.047.285-.121.29-.121.309-.023.012.054 0 .117-.027.14-.04.043-14.918 6.594-14.965 6.594-.02 0-.028-.086-.02-.195zm1.684-.913c.406-.168.476-.235.367-.352-.078-.07-.105-.066-.418.062-.402.168-.457.207-.457.325 0 .129.137.117.508-.035zm1.273-.543c.383-.165.434-.2.434-.313 0-.148-.11-.145-.469.008-.426.176-.504.25-.422.36.086.097.094.097.457-.055zm1.313-.586c.02-.012-.055-.024-.149-.024a.768.768 0 0 1-.254-.031c-.093-.035-.109.082-.023.168.043.039.098.035.234-.016a1.48 1.48 0 0 0 .192-.097zm1.351-.57c.371-.153.442-.216.399-.325-.04-.102-.168-.078-.54.078-.34.149-.394.2-.343.324.035.102.086.094.484-.078zm1.301-.555c.297-.125.395-.192.402-.27.012-.059-.015-.121-.054-.137-.094-.03-.825.274-.86.36-.02.054.067.215.114.215.004 0 .187-.079.398-.168zm5.266-2.27c.394-.172.48-.258.347-.367-.097-.082-.832.226-.855.36-.02.07.047.163.117.175zm1.336-.57c.351-.16.418-.215.379-.324-.04-.102-.172-.083-.54.082-.367.164-.437.23-.355.328.074.093.14.078.516-.086zm-8.407 1.968a14.103 14.103 0 0 1-2.097-.414c-1.09-.304-1.301-.425-.899-.503.184-.04.219-.032.246.042.047.11.063.11.493-.011.386-.106.418-.121.441-.262.012-.062.09-.113.223-.156.191-.055.207-.051.234.043.027.113.145.105.633-.04.289-.085.355-.175.222-.312-.046-.047-.046-.058.004-.058.118 0 1.403-.504 2.207-.864 1.524-.68 2.77-1.465 3.622-2.28l.48-.462.012.684.02.68h.288l.02-.75c.008-.415.027-.75.043-.75.015 0 .277.078.578.171.672.223 1.46.39 2.156.473l.528.059-.165.199c-.148.18-.214.219-.59.32-.39.11-.421.129-.421.242 0 .117.008.121.222.094l.223-.035-.102.148c-.183.258-1.152 1.14-1.734 1.582-1.453 1.094-3.101 1.852-4.547 2.09-.558.094-1.793.13-2.34.07zm.91-1.87c0-.106-.019-.118-.171-.11-.297.016-.711.176-.73.277-.032.16.089.172.5.059.362-.098.402-.121.402-.227zm1.11-.192c.183-.055.277-.11.289-.172.031-.168-.063-.18-.484-.07-.403.11-.485.168-.426.316.031.082.133.074.62-.074zm1.332-.367c.25-.078.32-.125.32-.207 0-.074-.031-.094-.176-.09-.093.004-.3.043-.453.086-.21.062-.285.105-.285.172 0 .191.121.199.594.039zm1.371-.375c.316-.094.355-.117.34-.211-.012-.094-.04-.106-.188-.098-.293.016-.707.176-.73.281-.02.098.07.176.16.149.031-.012.215-.066.414-.121zm1.336-.363c.266-.079.371-.133.387-.2.035-.172-.063-.187-.48-.07-.403.11-.49.168-.43.313.035.093.07.09.523-.043zm1.48-.415c.211-.066.274-.109.286-.199.02-.14-.133-.144-.59-.008-.254.075-.336.125-.336.188 0 .187.117.187.64.02zM18.61 45.36v-.25l.371.184c.41.203.403.234-.062.289l-.309.035zm24.926 12.387c.094-.078.102-.148.102-.672 0-.574 0-.582-.137-.687-.121-.094-.18-.102-.66-.09-.719.027-.73.039-.73.734 0 .293.015.57.03.614.063.164.31.226.817.207.383-.008.496-.032.578-.106zm2.035-.02c.102-.097.11-.152.11-.652 0-.539 0-.547-.14-.672-.138-.113-.169-.12-.685-.105-.707.027-.726.043-.726.762 0 .277.016.543.035.586.059.164.309.226.816.21.422-.015.493-.03.59-.128zm4.059-.023c.105-.125.117-.18.113-.637 0-.707-.07-.777-.785-.777-.469 0-.7.07-.758.227-.015.043-.031.304-.031.586 0 .46.008.511.11.605.156.14.242.152.773.14.437-.007.465-.019.578-.144zM36.516 57.5c.586-.102 1.382-.371 1.308-.441-.094-.094-2.265-.098-3.02-.008-.577.07-.699.105-1.09.285l-.437.21.215.032c.41.055 2.559.004 3.024-.078zm-21.918-.691c.515-.059 2.464-.38 2.652-.438.031-.008-.398-.004-.953.008-.695.016-.988.008-.969-.027.02-.028-.008-.067-.058-.082-.106-.032-1.383.05-1.426.09-.012.015.039.027.12.027.204 0 .708.105.708.152 0 .016-.207.094-.461.164l-.504.156c-.125.04.309.016.89-.05zm16.574-.188c.18-.043.383-.09.457-.105.113-.036.137-.024.137.058 0 .14.086.16.656.16.965 0 2.004-.172 3.012-.496.324-.105.625-.215.664-.242.062-.047.058-.05-.024-.031-.57.148-3.765.394-3.699.285.086-.145-1.223-.168-2.11-.031-.449.066-.6.117-.96.3l-.422.22.98-.024c.61-.016 1.114-.05 1.309-.094zm11.176-.984c-.016-.157-.016-.157-.325-.176l-.308-.012v.352h.644zm1.78-.012v-.172h-.788v.348h.789zm2.071 0v-.172h-1.035v.348H46.2zm1.817.012L48 55.48h-1.035l-.02.157-.015.164h1.097zm1.78-.012v-.172h-.792v.348h.793zm1.919 0v-.172h-.883v.348h.883zm-16.996-.047c.191-.047.699-.094 1.258-.121 1-.043 1.117-.059 1.714-.207.485-.121.625-.184.625-.29 0-.179-.808-.183-1.937-.019-.27.04-.524.09-.566.118-.047.023-.383.043-.75.039-.422.004-.84.03-1.254.086-.512.074-.649.117-1.008.304l-.418.215 1.008-.02c.695-.019 1.109-.05 1.328-.105zm7.613-.91v-.176l-.309-.012-.308-.015v.402l.308-.012.309-.02zm1.797-.004v-.2l-.379.016c-.36.012-.387.02-.398.125-.032.227.011.258.406.258h.37zm2.07.004v-.2h-1.035v.395H46.2zm1.793 0v-.176h-.512c-.503 0-.515.004-.535.113-.035.247 0 .262.547.25l.508-.02v-.167zm1.805-.004v-.2l-.383.016c-.355.012-.387.02-.398.125-.032.227.011.258.406.258h.375zm1.918.004v-.2h-.883v.395h.883zm-20.11-.078c.579-.04 1.36-.106 1.75-.145.829-.086 4.868-.578 4.852-.593-.012-.004-.668.007-1.469.027-.797.023-1.828.043-2.293.043l-.836.004.13-.106.12-.101-1.476.031c-.817.02-1.613.05-1.774.074l-.297.031.442.036c.578.054 1.508.187 1.59.23.054.027-1.7.438-2.207.512-.313.05.523.027 1.468-.043zm-10.195-.024c.414-.054 1.152-.289 1.32-.421.086-.07-.078-.075-1.535-.047-1.343.03-2.386.082-2.23.117l.617.16c.32.082.746.168.95.191.206.02.394.04.421.043.027.004.235-.015.457-.043zm1.637-.683c.39-.102.933-.32.933-.38 0-.042-3.168.02-3.546.067l-.274.04.52.136c.734.195.898.219 1.484.223.363.004.629-.02.883-.086zm20.492-.004c.086-.09.098-.164.098-.652 0-.305-.02-.582-.04-.61-.077-.125-.273-.164-.738-.164-.422 0-.507.012-.62.098-.126.097-.13.117-.13.664 0 .754.008.762.77.762.492 0 .574-.012.66-.098zm2.023.004c.106-.086.122-.14.133-.543.028-.524-.004-.653-.148-.793-.094-.082-.172-.094-.633-.094-.457 0-.539.012-.652.098-.13.097-.133.117-.133.652 0 .492.008.555.105.66.102.106.149.114.664.114.465 0 .567-.016.664-.094zm4.063-.028c.113-.113.121-.152.121-.64 0-.492-.012-.531-.121-.645-.113-.113-.152-.117-.668-.117-.512 0-.555.004-.668.117-.113.114-.121.153-.121.645 0 .488.008.527.121.64.113.114.156.122.668.122.516 0 .555-.008.668-.122zm2.04-.007c.089-.114.1-.2.1-.641 0-.48-.007-.523-.117-.637-.12-.113-.156-.117-.671-.117-.516 0-.551.004-.664.117-.114.114-.122.153-.122.645 0 .488.008.527.121.64.114.114.149.122.684.122.555 0 .57-.004.668-.13zm-24.161-.336c.27-.04.68-.114.914-.168a6.67 6.67 0 0 1 .883-.125c.781-.047 2.195-.348 1.988-.426-.234-.09-1.61-.16-2.504-.129-1.062.035-1.59.102-1.848.227-.125.058-.347.097-.765.117-.824.043-1.34.12-1.574.242-.196.102-.196.102-.075.145.563.183 2.082.246 2.98.117zm-15.988-.246c0-.098-.125-.18-.215-.145-.094.031-.094.024-.031.191.039.11.066.118.144.07.059-.027.102-.077.102-.116zm23.402-.2c.73-.046.789-.105.145-.144-1.192-.082-1.254-.09-1.27-.215-.016-.098.004-.11.2-.11.405 0 2.136-.1 2.6-.144.552-.062 1.536-.207 1.516-.23-.199-.028-.402-.051-.605-.063-.684-.062-1.969-.3-1.914-.355.023-.02.242-.078.484-.133l.442-.094-.953-.027c-.524-.012-.97-.047-.993-.07-.03-.028.203-.07.559-.11.805-.086 2.066-.297 2.125-.36.055-.054-.961-.027-2.106.063-.73.059-2.222.067-2.59.016-.238-.031-.245-.028-.218.078.015.066.004.125-.031.148-.036.02-.567.051-1.176.07-.617.016-1.34.044-1.61.06l-.496.023.153-.13.144-.128-1.156.027c-2.09.051-2.738.121-1.773.192.378.027 1.539.191 1.515.21a22.16 22.16 0 0 1-.926.22c-.742.163-1.027.21-1.55.226l-1.075.035c-.355.02-.43.008-.406-.047.02-.058-.074-.066-.504-.062-.293 0-.637.015-.777.039l-.242.031.27.035c.148.024.359.063.468.094l.195.059-.492.16c-.39.129-.457.16-.32.164.258.004 1.308-.13 2.09-.27.53-.086 1.07-.14 1.605-.168a69.392 69.392 0 0 0 4.504-.422c.297-.043.648-.074.79-.074.26 0 1.753.211 2.194.313l.266.062-1.371.438.195.058c.11.035.235.059.285.063.043 0 .082.02.082.039 0 .035-.875.226-1.453.324-.218.04 2.176.176 2.563.152l.617-.047zm-22.504-.109c.367-.156.445-.219.406-.328-.047-.113-.117-.106-.539.074-.254.106-.37.18-.37.234 0 .192.093.196.503.02zm1.04-.445c.015-.02-.028-.078-.095-.125-.125-.098-.214-.028-.117.09.067.074.176.097.211.035zm30.05-.457c.133-.102.133-.117.133-.684 0-.726-.02-.75-.59-.781-.473-.031-.715.012-.84.137-.086.086-.098.168-.098.656 0 .742.016.762.797.77.407.003.489-.012.598-.098zm2.039-.016c.137-.121.137-.133.137-.668 0-.707-.035-.75-.61-.781-.472-.031-.715.012-.847.137-.078.086-.094.168-.094.617 0 .765.035.804.797.808.437.004.492-.007.617-.113zm2.039-.031c.14-.137.145-.156.145-.637 0-.445-.012-.508-.114-.625-.105-.121-.16-.137-.515-.156-.485-.031-.723.012-.852.137-.082.086-.094.168-.094.628 0 .743.051.797.805.797.465.004.484 0 .625-.144zm3.984.074c.188-.098.2-.148.2-.734 0-.438-.012-.52-.098-.61-.125-.136-.348-.175-.84-.152-.371.016-.41.031-.52.156-.105.121-.117.184-.117.598 0 .5.047.676.215.758.164.078.996.07 1.16-.016zm-36.421-.309c.289-.136.39-.28.238-.34-.078-.035-.688.2-.805.31a.13.13 0 0 0-.039.14c.043.11.211.078.602-.11zm1.21-.515c.387-.156.485-.254.368-.367-.051-.059-.125-.043-.45.09-.39.164-.453.226-.406.359.04.101.055.101.488-.082zm38.168.008a.278.278 0 0 0 .016-.403c-.07-.074-.164-.09-.836-.09-.746 0-.754 0-.832.125-.082.13-.062.27.059.391.058.063.218.078.78.078.65 0 .724-.012.813-.101zm2.762 0c.117-.118.125-.235.02-.383-.075-.106-.11-.11-.735-.11-.722 0-.816.036-.816.286 0 .27.101.308.8.308.563 0 .641-.012.731-.101zm-25.574-.77c.797-.195.73-.21-1.004-.207l-1.629.004.367.098c.914.238 1.594.27 2.266.105zm11.828-.312c.086-.086.098-.164.098-.664 0-.754-.008-.766-.739-.766-.46 0-.546.016-.66.101-.125.102-.129.118-.129.649 0 .496.008.562.11.664.097.11.14.117.66.117.492 0 .574-.012.66-.101zm2.023.004c.106-.083.122-.141.133-.543.035-.825-.023-.891-.77-.891-.468 0-.55.012-.663.101-.13.102-.133.118-.133.649 0 .496.008.562.105.664.102.11.149.117.664.117.465 0 .567-.015.664-.094zm2.047-.032c.121-.12.125-.14.11-.668-.024-.722-.04-.734-.79-.734-.507 0-.546.008-.66.121-.113.113-.117.156-.117.648 0 .477.008.543.106.645.097.11.144.117.664.117.535 0 .57-.008.687-.129zm2.016.008c.113-.117.121-.156.121-.648 0-.485-.012-.528-.121-.641-.113-.113-.152-.121-.668-.121-.512 0-.555.008-.668.121-.113.113-.121.156-.121.64 0 .493.008.532.121.65.113.112.156.12.668.12.516 0 .555-.008.668-.12zm2.023 0c.11-.117.118-.156.118-.648 0-.485-.008-.528-.118-.641-.12-.113-.156-.121-.671-.121-.516 0-.551.008-.664.121-.114.113-.122.156-.122.64 0 .493.008.532.121.65.114.112.149.12.665.12.515 0 .55-.008.671-.12zm2.875-.129c.122-.12.125-.277.016-.402-.07-.078-.164-.09-.836-.09-.742 0-.754.004-.832.121-.09.133-.05.348.07.422.043.023.399.047.786.047.636 0 .707-.008.796-.098zm2.762 0c.117-.117.125-.234.02-.383-.075-.101-.11-.109-.735-.109-.722 0-.816.035-.816.281 0 .274.101.309.8.309.563 0 .641-.012.731-.098zm1.278 0c.12-.12.124-.277.019-.402-.062-.067-.152-.09-.367-.09-.254 0-.297.016-.367.121-.086.129-.067.273.058.398.114.114.535.094.657-.027zm-26.11-.687l.27-.09h-1.055c-.586 0-1.04.008-1.012.02.024.007.192.05.371.09.461.097 1.098.093 1.426-.02zm5.074-.102c.243-.059.79-.289.79-.34 0-.015-.43-.023-.95-.02-.629.005-.867-.007-.715-.034.29-.051.649-.172.875-.293l.176-.094-.766-.004c-.87 0-2.472.055-2.445.086.04.035 1.082.266 1.383.3l.297.036-.516.05-.52.044.376.09c.828.19 1.02.222 1.398.226.219 0 .496-.02.617-.047zm-28.203-.344c.102 0 .219-.14.188-.23-.024-.059-.078-.07-.246-.043-.09.008-.18.023-.266.055-.063.043.113.27.191.246a.403.403 0 0 1 .133-.028zm1.54-.484c.054-.063.05-.09-.009-.148-.066-.063-.113-.06-.406.02a2.481 2.481 0 0 0-.422.132c-.101.047-.117.215-.023.246.101.039.793-.164.86-.246zm32.671-.078c.094-.086.106-.145.106-.668 0-.719-.024-.746-.594-.777-.473-.028-.715.011-.84.136-.086.086-.098.168-.098.657 0 .753.024.773.82.757.415-.008.52-.027.606-.105zm4.047-.024c.14-.144.145-.16.145-.636 0-.453-.012-.508-.118-.633-.109-.129-.156-.14-.52-.156-.487-.024-.718.015-.843.14-.082.086-.094.168-.094.633 0 .738.051.793.805.793.465 0 .484 0 .625-.14zm1.93.086c.203-.105.23-.195.23-.715.004-.464-.008-.515-.117-.64-.117-.137-.125-.14-.66-.14-.504 0-.547.007-.672.12-.121.118-.125.145-.125.645 0 .539.023.625.223.734.132.067.988.067 1.125 0zm2.054-.011c.188-.098.2-.153.2-.743 0-.433-.012-.515-.098-.605-.125-.137-.348-.176-.84-.152-.371.015-.41.027-.52.156-.105.125-.117.183-.117.598 0 .5.047.68.215.757.164.078.996.07 1.16-.011zm-39.605-.223c.18-.055.273-.113.285-.172.035-.172-.062-.187-.48-.07-.403.11-.485.168-.426.316.031.086.133.074.62-.074zm25.578-.11c.313-.066.777-.261.777-.331 0-.047-2.46-.028-2.859.027l-.219.031.196.043c1.273.293 1.629.332 2.105.23zm-24.289-.245c.352-.094.387-.114.387-.227 0-.117-.012-.121-.207-.094-.407.055-.73.18-.73.274 0 .18.038.183.55.047zm41.281-.223c.114-.102.117-.3.008-.418-.07-.082-.164-.09-.809-.09-.667 0-.742.008-.832.098a.334.334 0 0 0-.097.199c0 .05.043.14.097.195.09.09.164.098.82.098.602 0 .739-.016.813-.082zm2.754-.016a.345.345 0 0 0 .098-.199.334.334 0 0 0-.098-.195c-.09-.09-.168-.098-.734-.098-.7 0-.797.031-.797.281 0 .27.101.309.8.309.563 0 .641-.008.731-.098zm2.223.016c.113-.102.117-.3.008-.418-.075-.082-.164-.09-.805-.09-.813 0-.902.027-.902.297 0 .262.093.293.894.293.598 0 .727-.016.805-.082zm-45.332-.086c0-.012-.02-.035-.051-.05-.023-.02-.047-.013-.047.019 0 .027.024.05.047.05.031 0 .05-.011.05-.02zm.761-.16c.043-.016.079-.07.079-.125 0-.106-.11-.164-.223-.121-.063.023-.063.054-.016.156.063.137.055.133.16.09zm1.06-.282c.269-.078.378-.136.39-.195.031-.176-.067-.191-.485-.078-.398.11-.48.172-.425.316.035.094.074.09.52-.039zm1.487-.414c.207-.066.266-.109.278-.195.027-.16-.067-.164-.59-.008-.254.075-.336.117-.336.188 0 .18.121.183.648.015zm26.055-.16c.086-.09.098-.16.098-.66 0-.754-.008-.766-.739-.766-.46 0-.546.012-.66.102-.125.102-.129.117-.129.648 0 .497.008.56.11.66.097.106.14.114.66.114.492 0 .574-.012.66-.098zm2.023.004c.106-.078.122-.14.133-.543.035-.824-.023-.886-.77-.886-.468 0-.55.011-.663.101-.13.102-.133.117-.133.648 0 .497.008.56.105.66.102.106.149.114.664.114.465 0 .567-.012.664-.094zm2.047-.031c.121-.117.125-.137.11-.668-.024-.719-.04-.73-.79-.73-.507 0-.546.007-.66.12-.113.114-.117.153-.117.66 0 .524 0 .544.13.641.109.09.195.102.663.102.508 0 .547-.004.664-.121zm2.016.008c.113-.117.121-.157.121-.645s-.012-.527-.121-.64c-.113-.114-.152-.121-.668-.121-.512 0-.555.007-.668.12-.113.114-.121.153-.121.641 0 .489.008.531.121.645.113.113.156.117.668.117.516 0 .555-.004.668-.117zm2.023 0c.11-.117.118-.157.118-.645s-.008-.527-.118-.64c-.12-.114-.156-.121-.671-.121-.516 0-.551.007-.664.12-.114.114-.122.153-.122.641 0 .489.008.531.121.645.114.113.149.117.665.117.515 0 .55-.004.671-.117zm2.883-.11c.114-.101.117-.3.008-.422-.07-.078-.164-.09-.809-.09-.667 0-.742.008-.832.102a.346.346 0 0 0-.097.196c0 .05.043.14.097.199.09.09.164.097.82.097.602 0 .739-.011.813-.082zm2.774-.027c.105-.152.097-.266-.02-.383-.09-.09-.168-.101-.722-.101-.696 0-.81.047-.81.3 0 .258.09.293.817.293.625 0 .66-.007.735-.109zm2.203.027c.113-.101.117-.3.008-.422-.075-.078-.164-.09-.805-.09-.813 0-.902.028-.902.298 0 .27.093.296.894.296.598 0 .727-.011.805-.082zm-21.336-.07c.121 0 .144-.016.144-.129 0-.125 0-.125-.257-.097-.215.023-.43.05-.645.066-.262.02-.363.043-.309.078.11.059.622.129.79.105.074-.011.199-.023.277-.023zm16.32-1.184c.156-.12.172-.3.031-.437-.09-.09-.164-.098-.789-.098-.672 0-.695.004-.812.117-.07.07-.121.157-.121.2 0 .043.05.133.12.203.118.113.145.117.782.117.594 0 .676-.008.79-.102zm2.766-.015c.152-.153.156-.262.02-.406-.102-.11-.15-.114-.708-.114-.71 0-.828.047-.804.336.02.258.148.301.816.301.527 0 .563-.004.676-.117zm2.16.062c.207-.113.246-.324.082-.484-.09-.09-.168-.098-.793-.098-.668 0-.691.004-.809.117-.07.07-.125.145-.125.18 0 .102.106.25.215.29.164.066 1.301.062 1.43-.005zm-17.07-.77l.011-.155h-.644v.347l.308-.015c.309-.016.309-.016.325-.176zm1.78.013v-.168h-.788v.343h.789zm2.071 0v-.168h-1.035v.343H46.2zm1.817-.012l.011-.156h-1.09v.136c0 .078.012.153.036.176.02.02.257.027.53.02l.497-.016zm1.78.012v-.168h-.792v.343h.793zm1.919 0v-.168h-.883v.343h.883zm-34.88-.063c.532-.129.974-.281.911-.316-.027-.02-.398-.055-.828-.09-.95-.074-2.508-.04-3.234.074-.286.047-.618.074-.739.059-.32-.036-.101.043.524.195.789.191 1.02.21 2.011.191.72-.011 1.036-.043 1.356-.113zm37.606-.41c.207-.11.246-.32.082-.484-.09-.09-.164-.102-.789-.102-.672 0-.695.004-.812.121-.07.066-.121.156-.121.2 0 .046.05.132.12.198.118.118.145.122.767.122.39 0 .69-.02.753-.055zm2.817-.067c.16-.152.156-.289-.008-.417-.113-.09-.2-.102-.7-.102-.675 0-.796.047-.796.32 0 .274.121.32.805.32.55 0 .586-.007.699-.12zm2.16.067c.207-.11.246-.32.082-.484-.09-.09-.168-.102-.793-.102-.668 0-.691.004-.809.121-.07.066-.125.156-.125.2 0 .046.055.132.125.198.118.118.145.122.766.122.39 0 .691-.02.754-.055zm1.922-.047c.246-.195.101-.54-.23-.54-.239 0-.38.122-.38.321 0 .301.348.422.61.219zm-18.992-.527l.011-.157h-.644v.348l.308-.016c.309-.011.309-.011.325-.175zm1.78.011v-.168h-.788v.344h.789zm2.071 0v-.168h-1.035v.344H46.2zm1.817-.011l.011-.157h-1.09v.137c0 .078.012.156.036.176.02.02.257.027.53.02l.497-.012zm1.78.011v-.168h-.792v.344h.793zm1.919 0v-.168h-.883v.344h.883zm-16.985-.007c.368-.153.434-.2.434-.293 0-.133-.156-.13-.496.007-.371.153-.469.23-.426.344.043.106.133.094.488-.058zm-22.82-.235v-.172h-.691v.344h.691zm1.43 0c0-.172 0-.172-.219-.172-.223 0-.223 0-.223.172s0 .172.223.172c.219 0 .219 0 .219-.172zm1.43 0v-.172h-.692v.344h.692zm1.128 0c0-.152-.015-.172-.12-.172-.11 0-.122.02-.122.172 0 .149.012.172.121.172.106 0 .121-.023.121-.172zm5.079-.125c.984-.09 2.304-.363 2.437-.5.063-.07-1.223-.015-2.094.086-.687.078-2.336.356-2.484.418-.148.059 1.48.055 2.14-.004zm15.09-.215c.41-.187.449-.226.359-.347-.055-.078-.078-.078-.38.047-.476.199-.554.253-.487.367.066.133.078.125.507-.067zm7.816-1.457v-1.187h-.934V42.5h.934zm1.527 0v-1.187h-.933V42.5h.933zm1.567.012l-.012-1.168-.461-.02-.453-.011V42.5h.937zm1.535-.012v-1.187h-.93V42.5h.93zm1.527 0v-1.187h-.934V42.5h.934zm-38.129.883v-.195h-.691v.394h.691zm1.43 0v-.195h-.442v.394h.442zm1.43 0v-.195h-.692v.394h.692zm1.128 0c0-.176-.011-.195-.12-.195-.11 0-.122.02-.122.195 0 .18.012.2.121.2.11 0 .121-.02.121-.2zm21.524-.008c.254-.11.351-.18.351-.242 0-.16-.136-.164-.48-.016-.387.157-.48.231-.438.34.043.114.176.094.567-.082zm-27-.84l.015-.726h.54v-1.527h-.938v.933H8.707l-.012-.972-.011-.97H5.828v3.887l1.195.016c.754.008 1.196.027 1.196.063 0 .03.386.043 1.094.035l1.097-.012zm8.473-.535l-.508-1.004-.012.907c-.008.5 0 .918.012.933.031.024.98.196 1.004.18.007-.008-.215-.465-.496-1.016zm4.902.79c.664-.06 1.32-.172 1.957-.344.32-.086.39-.118.32-.157-.101-.058-1.55.028-2.367.141-.684.094-2.145.352-2.18.387-.047.047 1.664.027 2.27-.028zm-6.184-1.755l-.011-1.714-.332-.016-.336-.012v3.453h.695zm36.91 1.563a.342.342 0 0 0 .098-.211c0-.273-.16-.332-.934-.332-.62 0-.648.004-.765.125-.07.063-.121.152-.121.195 0 .043.05.133.12.2.118.113.142.125.813.125.625 0 .7-.016.79-.102zm2.727-.004c.164-.129.168-.262.008-.414-.113-.121-.149-.125-.7-.125-.683 0-.804.05-.804.32s.121.325.797.325c.5 0 .586-.02.699-.106zm2.25.004a.364.364 0 0 0 .098-.211c0-.273-.164-.332-.934-.332-.621 0-.648.004-.766.125-.07.063-.125.152-.125.195 0 .043.055.133.125.2.118.113.141.125.809.125.625 0 .703-.016.793-.102zm2.727-.004c.074-.059.128-.152.128-.219 0-.066-.05-.16-.128-.218-.114-.086-.2-.102-.704-.102-.671 0-.793.05-.793.32s.122.325.793.325c.504 0 .59-.02.704-.106zm-50.317-.121v-.172h-.691v.344h.691zm1.43 0c0-.172 0-.172-.219-.172-.223 0-.223 0-.223.172s0 .172.223.172c.219 0 .219 0 .219-.172zm1.43 0v-.172h-.692v.344h.692zm1.128 0c0-.148-.015-.172-.12-.172-.11 0-.122.024-.122.172 0 .152.012.172.121.172.106 0 .121-.02.121-.172zM38.058 41c.258-.07.364-.121.387-.188.051-.175-.05-.199-.41-.109-.46.121-.574.195-.504.324.028.055.078.094.11.082.03-.007.218-.062.418-.109zm-14.652-.57a87.485 87.485 0 0 1 1.469-.145c.023 0 .043-.332.043-.742v-.746l-1.246.031a70.1 70.1 0 0 0-1.652.059l-.403.027v.82c0 .457.012.844.031.86.012.015.094.02.18.008s.797-.09 1.578-.172zm12.215-.172c.23-.04.606-.133.832-.2.406-.132.41-.136.238-.171-.097-.024-.558-.067-1.035-.098-.93-.07-1.863-.035-2.785.09a7.08 7.08 0 0 1-.762.074l-.222-.008.187.07c.254.094 1.063.262 1.512.317.477.059 1.496.02 2.035-.074zm18.902-.07a.333.333 0 0 0 .098-.211c0-.278-.16-.332-.934-.332-.62 0-.648.003-.765.12-.07.067-.121.157-.121.2 0 .043.05.133.12.2.118.116.142.12.813.12.625 0 .7-.008.79-.097zm2.727-.004c.164-.125.168-.262.008-.418-.113-.114-.149-.121-.676-.121-.668 0-.797.046-.816.3-.024.29.093.34.785.34.5 0 .586-.012.699-.101zm2.25.004a.354.354 0 0 0 .098-.211c0-.278-.164-.332-.934-.332-.621 0-.648.003-.766.12-.07.067-.125.157-.125.2 0 .043.055.133.125.2.118.116.141.12.809.12.625 0 .703-.008.793-.097zm2.742-.008c.153-.145.149-.305-.015-.434-.114-.09-.2-.101-.676-.101-.664 0-.79.046-.809.3-.023.29.094.34.801.34.535 0 .594-.008.7-.105zm-35.406-.117a32.64 32.64 0 0 0 1.223-.153c.105-.02.109-.039.109-.597v-.57l-.848.03c-.445.016-.89.028-1.332.036h-.48v1.425l.113-.023c.406-.059.809-.106 1.215-.148zm-14.383-1.747V36.59h-.687v3.445h.687zm1.574-.004v-1.726l-.355.012-.356.015-.015 1.649c-.008.91-.004 1.68.011 1.715.016.039.137.058.372.058h.343zm15.57 1.426c.926-.074.837-.02.837-.558 0-.254-.016-.473-.036-.489-.023-.011-.445-.011-.933.004l-.902.028v1.132l.207-.035c.117-.011.488-.047.828-.082zm1.934-.218c.293-.04.555-.07.578-.07.028 0 .047-.184.047-.423v-.425l-.453.03c-.25.016-.57.04-.715.056l-.258.027v.93l.133-.028c.078-.012.38-.054.668-.097zm12.352-1.06v-1.179h-.934v2.364h.934zm1.527 0v-1.179h-.933v2.364h.933zm3.102 0v-1.179h-.93v2.364h.93zm1.527 0v-1.179h-.934v2.364h.934zm2.711.173v-.469h-.313c-.175 0-.386.012-.468.035l-.157.031v.872h.938zm1.297.422h.277v-.95l-.258.028a4.1 4.1 0 0 1-.468.031h-.207v.95l.183-.032c.102-.016.313-.027.473-.027zm1.555-.032l.3-.035v-.87h-.937v.937h.168c.09 0 .3-.016.469-.032zm1.867-.5l.015-.457h-.937v.938l.453-.012.453-.015zm1.59-.039v-.464h-.47c-.253 0-.468.015-.476.035a3.13 3.13 0 0 0 0 .468l.016.43h.93zm1.578.399c.011-.012.015-.219.004-.465l-.016-.45h-.926v.934h.457c.254 0 .469-.007.48-.02zm-33.063-7.781v-7.223h-.785v14.437h.785zm7.356 7.109a.217.217 0 0 0 .02-.164c-.044-.121-.942-.117-1.009.008a.16.16 0 0 0 0 .175c.04.079.102.086.493.075.351-.012.46-.035.496-.094zm1.43 0a.217.217 0 0 0 .019-.164c-.043-.121-.941-.117-1.012.008a.176.176 0 0 0 0 .175c.043.079.106.086.496.075.348-.012.457-.035.5-.094zm1.562.031a.212.212 0 0 0 .023-.176c-.027-.086-.07-.097-.488-.097-.512 0-.625.054-.523.242.05.094.101.105.492.105.32 0 .449-.02.496-.074zm.988-.008c.106-.125-.004-.238-.25-.254-.254-.023-.379.083-.293.243.067.117.446.129.543.011zm-3.96-.793c.07-.175-.048-.234-.516-.25-.414-.011-.45-.007-.504.09-.106.192.015.242.527.242.383 0 .469-.011.492-.082zm1.429 0c.07-.175-.047-.234-.508-.25-.36-.011-.445 0-.496.07-.043.055-.043.11-.012.173.043.078.11.09.516.09.39 0 .476-.012.5-.083zm1.578 0c.07-.175-.047-.234-.52-.25-.41-.011-.449-.007-.503.09-.102.192.011.242.527.242.387 0 .469-.011.496-.082zm.953.004c.106-.129-.004-.238-.262-.254-.191-.011-.234 0-.285.09-.039.078-.039.121.004.176.082.094.457.09.543-.012zm13.77-.3c.039-.028.047-.184.035-.47l-.024-.429h-.879v.934h.407c.226 0 .433-.016.46-.035zm1.597-.48v-.47h-.933v.934h.933zm1.578-.056v-.468l-.914.03-.011.458-.016.453h.941zm1.575-.043v-.472h-.211c-.114 0-.324.02-.465.035l-.258.031v.871h.934zm1.34.418h.238v-.949l-.23.031a4.504 4.504 0 0 1-.465.028h-.243v.953l.227-.031c.129-.02.34-.032.473-.032zm1.851-.07c.012-.012.004-.219-.012-.457l-.035-.434-.93.032v.941l.477-.027c.262-.016.488-.043.5-.055zm-25.754-.176c.055-.031.098-.093.098-.148 0-.145-.149-.2-.559-.2-.355 0-.523.067-.523.2 0 .02.031.078.078.117.09.094.754.11.906.031zm1.43 0c.055-.031.098-.093.098-.148 0-.14-.149-.2-.547-.2-.262 0-.38.024-.446.083-.109.101-.109.136-.015.234.09.094.758.11.91.031zm1.578 0a.186.186 0 0 0 .094-.148c0-.145-.149-.2-.555-.2-.36 0-.527.067-.527.2 0 .02.035.078.078.117.09.094.754.11.91.031zm1.004-.031c.043-.039.078-.098.078-.117 0-.098-.168-.2-.32-.2-.157 0-.32.102-.32.2 0 .094.163.195.32.195.093 0 .203-.031.242-.078zm4.992-1.113l-.012-1.196-.457-.015-.453-.012v2.414h.934zm1.54-.016v-1.21l-.458.015-.453.012-.016 1.199-.011 1.191h.937zm1.554.004v-1.184l-.461-.015-.453-.012v2.418l.453-.012.46-.015zm3.074-.004v-1.21l-.453.015-.457.012-.012 1.199-.015 1.191h.937zm-15.11.32a.22.22 0 0 0 .02-.164c-.043-.12-.941-.117-1.008.004a.16.16 0 0 0 0 .176c.04.074.102.09.493.074.351-.011.46-.031.496-.09zm1.43 0a.22.22 0 0 0 .02-.164c-.043-.12-.941-.117-1.012.004a.177.177 0 0 0 0 .176c.043.074.106.09.496.074.348-.011.457-.031.5-.09zm1.578 0a.22.22 0 0 0 .02-.164c-.027-.07-.113-.082-.496-.082-.516 0-.629.055-.527.25.054.094.093.102.504.086.351-.011.46-.031.5-.09zm.973.024c.106-.129-.004-.238-.258-.258-.265-.02-.375.07-.289.234.07.13.446.145.547.024zm-23.7-9.703v-9.684l-.269.031-.015 9.668-.012 9.668h.297zm19.74 8.91c.07-.176-.048-.238-.509-.254-.359-.008-.445 0-.492.066-.047.063-.047.11-.011.176.039.082.109.094.511.094.39 0 .477-.012.5-.082zm1.429 0c.07-.176-.047-.238-.508-.254-.36-.008-.445 0-.496.066-.043.063-.043.11-.012.176.043.082.11.094.516.094.39 0 .476-.012.5-.082zm1.578 0c.07-.184-.047-.238-.52-.25-.41-.016-.449-.008-.503.09-.102.191.011.242.527.242.387 0 .469-.012.496-.082zm.953.004c.106-.13-.004-.238-.262-.258-.191-.012-.234.004-.285.09-.039.078-.039.12.004.172.082.097.457.093.543-.004zm13.781-.375c-.02-.528-.004-.52-.566-.461l-.313.035v.879h.895zm1.286.422l.3-.035v-.872h-.984v.137c0 .074.012.285.031.469l.031.332h.157c.09 0 .297-.012.465-.031zm1.867-.5l.015-.453h-.988v.312c0 .172.012.383.031.469l.028.16.449-.02.453-.011.012-.453zm1.578-.024l-.016-.457h-.933l-.016.25c-.008.149-.004.305.012.453l.031.211h.934zm1.586-.039c0-.254-.024-.449-.051-.469-.031-.015-.254-.015-.496.004l-.438.035v.426c0 .242.008.446.02.457.012.008.23.012.492.004l.473-.015zm1.316.414l.258-.031v-.43c0-.23-.008-.433-.02-.445-.011-.016-.23-.02-.492-.004l-.472.016v.277c0 .152.015.363.03.465.036.18.04.184.231.184.118 0 .32-.016.465-.032zm-47.082-9.843v-9.68h-.297v9.644c0 5.305.016 9.66.032 9.68.023.02.085.035.152.035h.113zm22.074 9.23c.047-.027.094-.09.094-.145 0-.14-.152-.195-.558-.195-.301 0-.375.016-.454.098-.086.094-.086.101 0 .199.075.082.153.098.454.098.203 0 .41-.024.464-.055zm1.426 0c.051-.027.094-.09.094-.145 0-.14-.148-.195-.55-.195-.368 0-.485.047-.485.195 0 .043.031.106.062.137.075.074.746.082.88.008zm1.446-.023c.046-.043.078-.098.078-.122 0-.125-.164-.195-.465-.195-.301 0-.469.07-.469.195s.168.2.469.2c.219 0 .336-.024.386-.078zm-16.961-.02c.199-.059.296-.215.238-.383-.063-.156-.2-.21-.567-.21-.351 0-.48.046-.566.198-.168.317.348.543.898.395zm1.691-.023c.187-.079.254-.22.176-.372-.078-.152-.215-.199-.567-.199-.18 0-.37.02-.422.051-.128.07-.207.23-.168.352.07.21.637.312.981.171zm1.625 0c.187-.079.258-.22.176-.372-.082-.152-.211-.199-.567-.199-.472 0-.672.145-.57.414.082.207.625.297.961.16zm-17.93-.668v-.371H5.73l-.03.765.456-.012.457-.015zm1.602 0v-.395h-.887v.79h.89v-.4zm1.617.007l-.016-.379H8.93l-.016.38-.012.386h.942zm1.586-.007v-.395h-.887v.79h.887v-.4zm18.965.05v-.152h-.738v.297h.738zm1.43 0v-.152h-.739v.297h.738zm12.07-1.035v-1.18h-.934v2.36h.934zm3.105 0v-1.18h-.937v2.36h.937zm1.524 0v-1.18h-.93v2.36h.93zm1.527 0v-1.18h-.934v2.36h.934zm11.488.824c-.433-.77-.863-1.535-1.289-2.3a96.228 96.228 0 0 0-1.242-2.196c-.035-.035-.039.153-.02.563.016.336.032 1.16.032 1.836v1.222h.586l.015.356.012.355.344.063c.472.082.57.078.57-.008 0-.062.07-.074.32-.074h.32v.14c0 .149.032.168.364.192.082.008.082 0-.012-.149zm-32.324-.261v-.367h-.297v.738h.297zm6.172.168a.193.193 0 0 0 .02-.16c-.047-.122-.946-.118-1.012.003a.176.176 0 0 0 0 .176c.039.078.105.086.496.074.348-.007.457-.027.496-.093zm1.43 0a.208.208 0 0 0 .015-.16c-.043-.122-.941-.118-1.008.003a.16.16 0 0 0 0 .176c.04.078.106.086.493.074.351-.007.46-.027.5-.093zm1.418.027c.047-.055.047-.102.011-.16-.078-.125-.75-.149-.84-.031-.042.062-.046.113-.007.175.039.079.105.094.41.094.266 0 .375-.02.426-.078zm17.289-.059c0-.027-.207-.543-.465-1.148-1.578-3.773-2.016-4.809-2.055-4.871-.023-.043-.043 1.062-.043 2.598v2.671h.172c.168 0 .172 0 .172.215v.219l.332.055c.18.031.39.07.469.082.12.023.133.015.133-.121v-.157h.64v.2c0 .164.02.199.113.218l.211.047c.172.035.32.032.32-.008zm2.86-.27a357.31 357.31 0 0 0-1.06-2.273l-.917-1.964v-.727h-.168c-.114 0-.188-.031-.223-.082-.047-.086-.047-.086-.05 0 0 .059-.04.082-.126.082-.129 0-.129.004-.11.36.012.328.024.355.122.37l.113.02v3.93h.242c.227 0 .246.008.262.136.012.125.035.141.355.192.473.082.57.082.57-.008 0-.055.067-.07.321-.07h.32v.14c0 .149.04.172.375.196.11.008.11.008-.027-.301zm-37.056.188c.157-.082.204-.203.145-.363-.055-.148-.23-.207-.613-.207-.274 0-.336.02-.442.125-.066.063-.117.14-.117.172 0 .105.106.254.211.293.172.07.664.059.816-.02zm1.735-.074c.113-.14.117-.207 0-.347-.098-.125-.496-.188-.817-.125-.23.042-.359.226-.277.398.074.172.223.223.637.203.312-.012.375-.027.457-.129zm1.625 0c.117-.14.117-.207 0-.351-.078-.094-.149-.118-.434-.137-.387-.02-.59.043-.648.2-.11.296.105.44.625.417.312-.012.379-.027.457-.129zm7.62-.234l.017-.36h-.301v.747l.133-.02c.136-.012.136-.023.152-.367zm-18.07-8.414v-8.547h-.296v8.515c0 4.684.015 8.528.035 8.547.015.016.086.032.144.032h.114v-8.547zm21.169 7.926c.066-.18-.051-.239-.489-.254-.336-.008-.437.004-.5.062-.062.063-.07.106-.027.176.043.086.105.098.52.098.382 0 .468-.016.5-.082zm1.425 0c.07-.18-.047-.239-.484-.254-.336-.008-.441.004-.5.062-.063.063-.07.106-.027.176.043.086.105.098.515.098.387 0 .473-.016.5-.082zm1.39.02c.075-.075.071-.114-.023-.208-.05-.055-.167-.074-.386-.074s-.34.02-.39.074c-.177.176-.04.27.39.27.207 0 .37-.024.41-.063zM8.22 32.155v-.394h-.89v.789h.89zm1.613.016l-.016-.387H8.93l-.016.387-.012.375h.942zm1.586-.016v-.394h-.887v.789h.887zm11.633.055c.113-.145.117-.211 0-.352-.098-.12-.496-.183-.817-.125-.23.043-.359.227-.277.399.074.176.223.222.637.207.312-.012.375-.031.457-.13zm6.152-.3v-.29l.285-.016c.266-.015.282-.023.297-.152l.016-.133h-.375c-.297 0-.371.016-.371.07a.072.072 0 0 1-.075.075c-.058 0-.074.078-.074.375v.363h.149c.148 0 .148 0 .148-.293zm3.094-.282l.016-.309h-.204c-.187 0-.199.008-.199.145 0 .082.024.148.055.148.023 0 .047.078.047.176 0 .164.008.176.133.164.132-.015.136-.031.152-.324zm3.078-.02a.193.193 0 0 0 .02-.16c-.028-.066-.114-.082-.497-.082-.414 0-.476.012-.52.098-.042.074-.034.113.028.176.11.109.899.086.969-.032zm1.43 0a.208.208 0 0 0 .015-.16c-.023-.066-.11-.082-.496-.082-.41 0-.472.012-.515.098-.043.074-.036.113.027.176.11.109.894.086.969-.032zm1.414 0c.097-.172-.02-.242-.414-.242-.438 0-.575.094-.395.27.05.054.176.074.414.074.297 0 .348-.012.395-.102zm-7.008-.152l.02-.137h-.75v.301l.359-.016c.348-.015.355-.02.37-.152zm-9.918-.187a.312.312 0 0 0 .187-.36c-.07-.254-.918-.312-1.109-.082-.117.145-.11.227.035.367.106.106.164.125.442.125.175 0 .379-.023.445-.05zm1.656 0c.246-.133.23-.415-.031-.52-.344-.145-.91-.043-.98.172-.036.113.035.27.16.344.113.066.73.07.851.004zm1.696-.075c.148-.14.156-.222.039-.367-.075-.086-.16-.113-.41-.133-.516-.043-.79.125-.68.418.054.149.199.2.597.203.293.004.348-.015.454-.12zm27.613-.27v-.343h-.293v.688h.293zm-45.621-.273v-.367h-.938v.738h.938zm1.582 0v-.367h-.89v.738h.89zm1.62 0v-.367h-.933v.738h.934zm1.579 0v-.367h-.887v.738h.887zm32.75-.574l.012-.828h-.836v1.68l.406-.016.406-.012.012-.828zm1.379 0l.012-.828h-.836v1.68l.402-.016.41-.012.012-.828zm1.367.012v-.817l-.41-.011-.406-.016v1.684l.406-.012.41-.016zm1.356 0v-.84h-.84v.809c0 .441.015.816.03.836.02.015.208.03.419.03h.39zm1.375 0v-.84h-.836v.809c0 .441.011.816.035.836.015.015.207.03.418.03h.383zm-14.196.527c-.015-.152-.027-.16-.207-.16-.207 0-.316.098-.258.242.02.055.09.074.254.074.227 0 .227 0 .211-.156zm.543.02c.016-.125-.054-.203-.203-.203-.062 0-.082.043-.082.175 0 .16.012.172.133.157.101-.008.14-.043.152-.13zm1.14-.035v-.176l-.327.015c-.34.016-.457.09-.395.258.028.063.102.074.38.074h.343zm-24.878-7.778V14.97h-.293v15.707h.293zm5.82 6.25l-.722-1.508-.012 1.368c-.008.75 0 1.378.012 1.39.03.028 1.18.242 1.34.254.093.004.023-.164-.618-1.504zm36.59 1.102c-.02-.352-.02-.36-.152-.375l-.133-.016v.746h.3zm-3.27-.11c0-.343 0-.347-.132-.363l-.133-.015v.75l.133-.016c.133-.012.133-.02.133-.356zm-30.07.164a.287.287 0 0 0 .153-.242.313.313 0 0 0-.125-.258c-.036-.02-.243-.035-.465-.035-.34 0-.422.016-.504.098-.13.129-.125.223.023.371.106.11.164.121.473.121.191 0 .394-.02.445-.055zm1.7-.066c.144-.148.148-.242.019-.371-.082-.086-.164-.102-.516-.102-.351 0-.433.016-.52.102-.128.129-.12.223.024.371.106.11.164.121.496.121.332 0 .391-.012.496-.12zm1.62 0c.153-.148.157-.242.028-.371-.086-.086-.164-.098-.504-.098-.223 0-.434.016-.465.035-.113.075-.172.254-.117.356.082.152.2.2.582.2.316 0 .371-.013.477-.122zm10.79-.324c0-.149-.016-.172-.133-.184-.176-.023-.336.067-.336.184 0 .125.137.2.324.183.133-.007.145-.027.145-.183zm.535.086c.074-.11-.012-.25-.157-.27-.093-.015-.105.008-.105.184 0 .183.012.203.105.187a.237.237 0 0 0 .157-.101zm1.164-.086v-.195h-.274c-.312 0-.464.062-.464.195 0 .14.132.195.457.195h.28zm15.125-.344v-.344h-.293v.688h.293zm8.125-.121v-.371h-.29v.742h.29zm.594 0v-.371h-.297v.742h.297zm.543 0c0-.36-.004-.371-.125-.371-.118 0-.122.012-.122.371 0 .36.004.371.122.371.12 0 .125-.012.125-.371zm-54.883-.246v-.371h-.938v.738h.938zm1.582 0v-.371h-.89v.738h.89zm1.62 0v-.371h-.933v.738h.934zm1.579 0v-.371h-.887v.738h.887zm13.227 0c.152-.145.156-.242.027-.371-.086-.082-.164-.098-.512-.098-.394 0-.422.008-.52.13-.132.163-.132.19.02.339.106.11.16.121.492.121.332 0 .387-.012.493-.121zm10.804-.067l.016-.164-.235.02c-.183.012-.242.031-.253.102-.032.144.086.238.28.222.161-.012.18-.031.192-.18zm.496.145c.035-.023.055-.098.047-.156-.012-.09-.05-.121-.152-.133-.121-.02-.133-.004-.133.156 0 .184.082.227.238.133zm1.188-.133v-.176l-.356.02c-.297.012-.359.027-.375.102-.03.164.086.23.418.23h.313zm17.531-.328c-.02-.348-.02-.355-.152-.375l-.133-.016v.747h.3zm-3.27-.11c0-.34 0-.343-.132-.363l-.133-.015v.75l.133-.016c.133-.012.133-.02.133-.355zm6.372-.113l.011-.359h-.691v.742l.332-.011.332-.016zm1.382 0l.012-.359h-.695v.742l.332-.011.332-.016zm-39.906-.668c-.164-.34-.336-.675-.512-1.011-.015-.012-.023.402-.023.914v.937l.43.075c.242.043.472.078.52.082.066.003-.024-.215-.415-.997zm24.938.067v-.84h-.836v1.676h.836zm1.367-.012l.012-.828h-.836v1.68l.402-.016.41-.012.012-.828zm1.367.012v-.817l-.41-.011-.406-.016v1.684l.406-.012.41-.016zm1.356 0v-.84h-.84v.809c0 .441.015.82.03.836.02.015.208.03.419.03h.39zm1.375 0v-.84h-.836v1.676h.836zm-14.196.383c-.015-.153-.027-.164-.207-.164-.207 0-.316.101-.258.238.02.062.09.082.254.082.227 0 .227 0 .211-.156zm.528-.012c0-.129-.02-.152-.137-.168-.121-.012-.133 0-.133.168 0 .164.012.172.133.16.117-.012.137-.039.137-.16zm1.156-.004v-.176l-.328.016c-.34.016-.457.09-.395.25.028.066.102.082.38.082h.343zm15.113-.234c-.012-.344-.02-.356-.137-.356s-.12.012-.136.356l-.012.36h.3zM38.81 23.227c0-2.829.011-6.672.035-8.547l.031-3.41h-.148c-.141 0-.16.02-.18.187-.016.102-.047 3.95-.063 8.547l-.03 8.36h.355zm-15.786 4.867c.145-.149.149-.176.02-.344-.098-.121-.129-.129-.508-.125-.219 0-.426.016-.453.04-.113.07-.176.25-.121.35.082.153.203.196.578.196.32.004.379-.012.484-.117zm1.63.015c.144-.132.148-.257.019-.386-.086-.086-.164-.102-.512-.102-.394 0-.422.008-.52.129-.132.168-.132.195.02.344.106.11.16.12.5.12.324 0 .395-.015.492-.105zm35.722-.3c.02-.23.02-.235-.133-.235-.148 0-.148.004-.148.25 0 .242.004.246.133.23.125-.011.136-.03.148-.245zm.602.011c0-.238-.004-.246-.145-.246-.145 0-.152.012-.152.215 0 .242.027.277.183.277.106 0 .114-.023.114-.246zm.543 0c0-.23-.008-.246-.125-.246-.114 0-.122.016-.122.246 0 .227.008.246.122.246.113 0 .125-.02.125-.246zm-54.891-.21l.016-.383h-.946v.363c0 .2.02.375.04.398.015.016.222.028.452.02l.422-.016zm1.59.011v-.394h-.89v.793h.89zm1.613-.012l.012-.382h-.938v.363c0 .2.016.375.035.398.02.016.223.028.457.02l.418-.016zm1.586.012v-.394h-.887v.793h.887zm24.016-.098c0-.156-.012-.171-.164-.187-.18-.02-.305.059-.305.191 0 .118.14.196.324.184.133-.012.145-.027.145-.188zm.468.149c.172-.09.09-.344-.109-.344-.066 0-.086.04-.086.195 0 .204.035.23.195.149zm1.23-.149v-.195h-.308c-.32 0-.43.05-.43.203 0 .13.137.188.458.188l.28.004zm17.532-.21c-.02-.348-.02-.356-.152-.368l-.133-.02v.75h.3zm-3.27-.11c0-.34 0-.344-.132-.36l-.133-.015v.754l.133-.016c.133-.02.133-.023.133-.363zm5-.441v-.371h-.687v.738h.688zm1.38 0v-.371h-.688v.738h.687zm1.374.011l-.02-.355-.331-.02-.332-.011v.742h.695zm-6.902-.144c-.012-.348-.02-.363-.137-.363s-.12.015-.136.363l-.012.355h.3zm-16.797.117l.016-.164-.235.016c-.183.007-.242.039-.253.101-.032.153.086.242.28.223.161-.012.18-.027.192-.176zm.496.145c.035-.024.055-.098.047-.157-.012-.09-.05-.129-.152-.136-.121-.016-.133-.004-.133.16 0 .183.082.226.238.133zm1.188-.13v-.179l-.356.016c-.297.011-.359.03-.375.101-.03.168.086.238.418.238h.313v-.18zm23.25-.245v-.371h-.29v.738h.29zm.594 0v-.371h-.297v.738h.297zm.543 0c0-.364-.004-.371-.125-.371-.118 0-.122.007-.122.37 0 .36.004.368.122.368.12 0 .125-.008.125-.367zm-38.622.16c-.386-2.242-.789-4.488-1.207-6.73-.015-.012-.023 1.374-.023 3.077v3.106l.574.273c.535.258.656.305.656.274zm21.282-.926v-.836h-.836v1.676h.836zm2.734 0v-.813l-.41-.015-.406-.012v1.684l.406-.016.41-.015zm1.356 0v-.84l-.41.012-.407.015-.012.762c-.007.422-.004.79.008.828.02.043.145.063.422.063h.395v-.84zm1.375 0v-.836h-.836v1.676h.836zm-43.032.344v-.367l-.453-.016-.453-.012v.363c0 .2.016.38.031.399.02.016.223.023.457.02l.418-.016zm1.602 0v-.39h-.887v.784h.89v-.394zm3.203 0v-.39h-.887v.784h.887zm43.246-.211c-.02-.348-.02-.356-.152-.367l-.133-.016v.746h.3zm-19.215.101c-.011-.125-.039-.164-.129-.175-.21-.032-.355.03-.355.156 0 .16.035.18.285.18.21 0 .215 0 .2-.16zm.528-.011c0-.125-.02-.149-.137-.16-.121-.016-.133-.004-.133.16 0 .168.012.18.133.164.117-.012.137-.043.137-.164zm1.156-.004v-.172l-.328.015c-.34.016-.457.09-.395.25.028.067.102.083.38.083h.343zm14.262-.196c0-.335 0-.343-.133-.355l-.133-.016v.75l.133-.015c.133-.016.133-.02.133-.364zm-27.563-3.175l-.203-3.414-.399-.73c-.218-.403-.406-.724-.414-.716-.011.008.25 1.883.582 4.16.332 2.282.61 4.137.618 4.13.007-.008-.07-1.551-.184-3.43zm32.563 2.59v-.52h-.688v1.035h.688v-.52zm1.378 0v-.52h-.687v1.035h.687v-.52zm1.383 0v-.52h-.691v1.035h.691v-.52zm-6.91.011c-.012-.344-.02-.36-.137-.36s-.12.016-.136.36l-.012.356h.3zm8.137-.113v-.371h-.29v.738h.29zm.594 0v-.371h-.297v.738h.297zm.543 0c0-.363-.004-.371-.125-.371-.118 0-.122.008-.122.37 0 .36.004.368.122.368.12 0 .125-.008.125-.367zm-26.086.125c0-.164-.012-.176-.164-.188-.18-.02-.305.059-.305.192 0 .117.14.195.324.18.133-.008.145-.032.145-.184zm.468.14c.172-.085.09-.34-.109-.34-.066 0-.086.04-.086.2 0 .203.035.23.195.14zm1.23-.14v-.2h-.308c-.32 0-.43.055-.43.204 0 .129.137.187.458.191h.28zm2.657-3.262c-.004-1.8-.02-5.031-.039-7.18l-.031-3.917h-.297l.004.457.011 7.175.008 6.727h.352zM6.613 24.57v-.37H5.73l-.015.382-.016.387.914-.032zm1.602 0v-.394h-.887v.789h.89v-.395zm1.617.012l-.016-.383H8.93l-.016.383-.012.383h.942zm1.586-.012v-.394h-.887v.789h.887zm39.977-.222c0-.34 0-.348-.133-.36l-.133-.015v.75l.133-.016c.133-.016.133-.02.133-.36zm-10.27-.614v-.593h-.79v1.18h.794v-.59zm2.316.418v-.175h-1.379v.343h1.38zm1.426 0v-.175h-.738v.343h.738zm2.07 0v-.175H45.56v.343h1.379zm1.43-.004v-.175l-.355.015-.36.012-.015.164-.016.156h.746zm2.07.004v-.175h-1.332v.343h1.333zm-14.05-1.52c-.016-1.429-.02-1.495-.13-1.714a1.501 1.501 0 0 0-.214-.32c-.102-.09-.102-.09-.25.078-.258.312-.281.515-.281 2.054v1.399h.89zm16.66.95c0-.422-.004-.441-.117-.469a1.353 1.353 0 0 0-.309-.011l-.191.015-.016.39c-.004.216 0 .419.012.454.015.043.12.066.324.066h.297zm1.121.02l.016-.403-.246-.035c-.137-.02-.27-.02-.297 0-.059.035-.075.777-.016.832.02.02.145.031.281.024l.25-.02zm6.215.054v-.367h-.29v.738h.29zm.594 0v-.367h-.297v.738h.297zm.53.012c-.01-.324-.023-.355-.12-.371-.11-.012-.114 0-.114.355 0 .371.004.38.125.38.125 0 .125-.009.11-.364zm-23.683-.441c0-.922.086-8.5.117-10.243l.024-1.273h-.336l-.004.902c0 .492-.031 2.946-.074 5.453-.04 2.504-.07 4.864-.07 5.235v.676h.343zm18.57.382v-.37h-.687v.738h.688zm1.38 0v-.37h-.688v.738h.687zm1.374-.015l.012-.356h-.695v.742l.332-.011.332-.016zm-52.52-.54l-.015-.378H5.73l-.015.379-.016.383h.946zm1.59-.011v-.398h-.89v.793h.89zm1.614.012l-.016-.38H8.93l-.016.38-.012.383h.942zm1.586-.012v-.398h-.887v.793h.887zm13.937-.652c-.168-.34-.34-.684-.52-1.02-.007-.012-.019.399-.019.914v.938l.434.074c.234.043.469.078.516.082.07.004-.024-.215-.41-.988zm22.114-1.047c.015-2.145-.016-2.551-.23-3.004l-.141-.297-.114.246c-.234.512-.246.613-.246 2.836 0 1.152.02 2.113.04 2.133.015.015.179.031.355.02l.32-.016zm1.34-.465c0-2.277-.004-2.426-.102-2.723a3.598 3.598 0 0 0-.187-.48l-.09-.168-.078.144c-.04.082-.125.293-.192.465-.113.317-.113.356-.129 2.68-.008 1.293-.004 2.387.012 2.426.016.047.125.066.395.066h.37zm1.52-.004c.003-1.5-.009-2.516-.04-2.73-.059-.36-.285-.97-.375-.997-.066-.023-.289.457-.363.77-.031.137-.051 1.207-.051 2.8v2.575l.813-.031zm3.85 1.43c0-.215-.019-.407-.05-.418a1.181 1.181 0 0 0-.293-.059l-.25-.031v.422c0 .472 0 .468.36.476l.234.004zm-13.085.258c.011-.028.008-.29-.004-.594l-.031-.551h-.723v1.18h.363c.203 0 .38-.016.395-.035zm1.293-.516a13.643 13.643 0 0 0-.047-.563c-.121-.015-.242-.03-.363-.039l-.36-.03v.558c0 .308.012.574.035.593.016.02.2.032.399.032h.367zm1.3.363c0-.105-.015-.36-.03-.566l-.032-.38h-.727V22c0 .293.016.547.032.566.02.02.199.032.398.032h.36zm1.278.027c0-.085-.016-.343-.031-.566l-.028-.406h-.726v.457c0 .691-.008.676.422.676h.363zm8.082-.273v-.437l-.188-.032a2.17 2.17 0 0 0-.32-.03h-.133v.433c0 .238.016.449.032.468.019.02.164.032.32.032h.289zm7.336.238c0-.187-.008-.199-.145-.199-.136 0-.144.012-.144.2 0 .187.008.199.144.199.137 0 .145-.012.145-.2zm-8.578-.355c.011-.418.008-.438-.106-.477a2.01 2.01 0 0 0-.383-.066l-.265-.016-.012.446c-.02.539.012.578.453.558l.297-.015zm4.59-.043v-.2l-.329.016-.332.016-.015.184-.02.183h.696zm1.378.004v-.2h-.687v.395h.687zm1.375.012l-.02-.184-.663-.031v.398h.695zm-52.511-.48v-.372h-.938v.742h.938zm1.582 0v-.372h-.89v.742h.89zm1.62 0v-.372h-.933v.742h.934zm1.579 0v-.372h-.887v.742h.887zm42.762-.567c0-.438-.02-.461-.399-.504l-.172-.016v.418c0 .465.02.48.407.492l.164.004zm-2.39-.442v-.468l-.31-.067c-.44-.094-.453-.086-.453.399 0 .222.02.433.035.46.036.06.512.165.653.153.062-.008.074-.098.074-.477zm-10.727-.21l-.012-.555-.39-.012-.391-.02.035.305c.02.172.03.426.03.574v.262h.743zm2.53.023a9.148 9.148 0 0 0-.023-.535 11.385 11.385 0 0 0-.363-.032l-.36-.02v1.118h.766zm1.274.25c0-.16-.015-.403-.031-.547l-.031-.254h-.739l.032.375c.015.21.03.453.03.543v.164h.74zm-38.23-.582v-.367h-.938v.738h.938zm1.582 0v-.367h-.89v.738h.89zm3.199 0v-.367h-.887v.738h.887zm42.762-.371c0-.438-.004-.442-.414-.516l-.18-.035v.844l.21.054.263.07c.101.032.12-.038.12-.417zm-1.133-.29v-.437l-.27-.078a1.825 1.825 0 0 0-.32-.078c-.039 0-.05.137-.039.453l.012.457.199.055c.414.129.418.12.418-.371zm-1.242-.304c.008-.297-.004-.438-.047-.477-.086-.066-.637-.21-.692-.175-.062.039-.046.89.016.933.094.059.508.16.61.152.09-.007.101-.054.113-.433zm-7.032-.262c0-.254-.02-.496-.035-.543-.023-.058-.105-.078-.367-.078h-.34v1.027l.184.02c.101.016.27.027.37.031l.188.008zm-3.746-.125v-.543h-.738v.508c0 .277.012.523.031.543.016.016.184.031.367.031h.34zm1.282.375c0-.09-.016-.332-.032-.539l-.035-.379h-.738l.035.38c.016.206.027.448.027.538v.164h.743zm1.23-.223c0-.21-.012-.46-.031-.546l-.031-.153-.352.012c-.191.008-.348.031-.336.05.008.024.012.262.012.536v.488h.738zM6.63 18.5l.016-.383h-.946v.36c0 .199.02.378.04.394.015.02.222.027.452.02l.422-.012zm1.59.012v-.395h-.89v.785h.89zm1.613-.012l.012-.383h-.938v.36c0 .199.016.378.035.394.02.02.223.027.457.02l.418-.012zm1.586.012v-.395h-.887v.785h.887zm8.145-.598a.21.21 0 0 0 .019-.16c-.027-.067-.11-.078-.492-.078-.543 0-.692.074-.5.265.113.114.898.09.973-.027zm1.425 0a.18.18 0 0 0 .02-.16c-.024-.067-.11-.078-.488-.078-.543 0-.692.074-.5.265.113.114.898.09.968-.027zm1.39.027c.173-.175.036-.265-.394-.265s-.566.094-.39.265c.058.055.172.079.39.079.22 0 .336-.024.395-.079zm22.325-.546a5.62 5.62 0 0 1-.031-.512v-.281l-.336-.024c-.18-.012-.348-.008-.367.012-.024.015-.024.262-.008.531l.035.504h.738zm-3.676-.278c0-.25-.02-.476-.039-.508-.02-.03-.187-.066-.367-.078l-.332-.031v1.074h.738zm1.227.2c0-.141-.012-.376-.027-.52l-.032-.254h-.68v1.031h.743v-.262zm-34.035-.333v-.394h-.89v.789h.89zm1.597 0v-.37H8.93l-.016.312c-.02.465-.031.457.473.441l.43-.012zm1.602 0v-.394h-.887v.789h.887zm9.312-1.316c0-1.414-.007-1.523-.101-1.715a1.15 1.15 0 0 0-.195-.297c-.122-.105-.196-.054-.387.27l-.129.226-.031 3.028h.843zm1.38-.004v-1.512l-.145-.257c-.082-.141-.172-.27-.203-.286-.078-.05-.223.106-.367.383l-.125.254v2.934h.84zm21.292.32a5.34 5.34 0 0 1-.011-.5v-.472h-.739l.028.46c.02.247.039.481.05.516.012.047.114.059.352.051.184-.008.324-.031.32-.055zm1.22-.12c0-.102-.017-.337-.032-.52l-.028-.332h-.68v.437c0 .246.013.477.032.52.023.062.102.078.367.078h.34zm-3.645-.38v-.52h-.739v.216c0 .117.012.347.032.515l.03.305h.677zm1.23.176c0-.183-.012-.41-.027-.492l-.035-.156h-.676V16h.738zm-33.988-.203v-.395h-.89v.79h.89zm1.613.012l-.016-.38H8.93l-.012.38-.016.383h.946zm1.586-.012v-.395h-.887v.79h.887zm33.105-1.414l-.023-.48-.367-.016-.36-.016.028.188c.02.105.035.328.035.492v.309h.71zm-3.546.238c0-.101-.012-.324-.032-.492l-.027-.305h-.68v.989h.739zm1.171-.289l-.015-.48-.356-.012-.359-.02v.313c0 .172.02.39.035.496l.031.184h.68zm-19.992-1.097c-.187-.38-.23-.551-.66-2.676-.254-1.25-.46-2.227-.465-2.176-.004.059.074 1.082.176 2.281l.184 2.184.472.41c.254.227.473.402.485.395.007-.004-.075-.196-.192-.418zm21.137-.16c0-.165-.016-.391-.031-.489l-.032-.187h-.69l.03.257c.02.145.035.368.035.493v.234h.688zm1.168-.024a4.575 4.575 0 0 1-.035-.461c0-.133-.008-.137-.344-.152l-.344-.016v.223c0 .12.012.336.032.48l.027.258h.691zm-3.543-.195l-.016-.485-.332-.011-.332-.016v.992h.696zm1.191.011v-.468h-.691v.937h.691zm1.114-.964c.015-.028.015-.235 0-.461l-.04-.407-.3-.035c-.164-.015-.317-.015-.34.008-.02.023-.02.23-.004.465l.027.43.23.015c.126.012.263.02.31.027.046.004.101-.015.117-.043zm1.144-.403l-.012-.453-.667-.035v.441c0 .239.011.453.03.469.02.016.177.031.348.031h.317zm-3.46.356c.019-.032.019-.243-.005-.465l-.03-.41-.306-.024c-.164-.012-.32-.004-.343.016-.024.02-.028.226-.008.457.031.379.047.426.14.445.22.04.52.027.547-.02zm1.156-.414v-.473h-.692v.937h.691zm0 0"/></svg>