<svg xmlns="http://www.w3.org/2000/svg" width="64" height="64"><path d="M30.744 62.974c-5.536-.26-10.638-1.838-15.197-4.701C8.744 54 3.831 47.237 1.919 39.513a31.183 31.183 0 0 1 .018-15.1c.565-2.251 1.262-4.115 2.356-6.306a27.806 27.806 0 0 1 1.89-3.272C10.273 8.68 16.497 4.147 23.586 2.16a31.12 31.12 0 0 1 20.666 1.353c.998.427 2.787 1.347 3.74 1.924a31.189 31.189 0 0 1 10.93 11.184 33.519 33.519 0 0 1 1.822 3.739c3.085 7.65 3.003 16.263-.226 23.808-4.272 9.983-13.482 17.04-24.18 18.524-1.867.26-3.902.362-5.594.283zM21.69 51.616c.06-.06-.29-.495-.83-1.034-.698-.696-1.642-1.41-2.964-2.239-1.801-1.13-2.83-1.555-4.044-1.674-.192-.018-.344-.015-.344.009 0 .052.286.813.425 1.132.422.969 1.624 2.236 2.722 2.867.927.534 1.836.787 3.4.948.442.045 1.587.04 1.635-.009zm1.158-.136l.238-.051v-.238c0-.208-.01-.234-.083-.206-.196.078-.798.215-.944.215-.187 0-.19.01-.056.225.1.163.105.165.355.136.139-.017.36-.053.49-.081zm1.803-.62c1.108-.474 1.907-.998 2.673-1.754.47-.464.513-.52.484-.641-.112-.47-.535-.625-1.26-.466-.367.081-.684.09-.808.023-.106-.056-.206-.385-.163-.535.016-.057.172-.314.346-.571.313-.463.316-.47.316-.79 0-.382-.087-.51-.474-.693-.414-.195-.716-.126-1.209.277-.486.397-.681.446-1.045.263-.396-.2-.466-.566-.259-1.363.164-.632.155-.94-.038-1.327-.204-.411-.429-.545-.91-.54-.415.003-.681.114-1.12.469-.481.389-.636.468-.924.47-.28.003-.445-.09-.621-.349-.169-.248-.178-.484-.042-1.142.192-.928.162-1.173-.19-1.562-.248-.275-.476-.381-.818-.381-.477 0-.675.129-1.12.73-.448.606-.724.768-1.113.651-.376-.112-.458-.366-.357-1.093.038-.272.07-.62.07-.773 0-.271-.008-.287-.244-.537-.234-.248-.254-.258-.486-.257-.608.002-1.147.515-1.498 1.426-.236.611-.465 1.531-.593 2.374-.152 1.01-.152 1.105-.002 1.204.064.042.24.24.39.44.152.2.307.388.346.42.153.125.482.25.653.25.156 0 .216-.035.438-.26.228-.23.28-.26.449-.26.25 0 .622.214.864.497.103.12.35.48.55.8.199.32.4.614.447.655.236.207.866.242 1.507.084.87-.215 1.402-.113 1.706.326.136.196.144.234.167.806.013.33.048.643.078.696.15.258.449.366 1.32.475 1.284.161 1.543.311 1.541.894 0 .213-.088.569-.208.845a1.337 1.337 0 0 0-.076.438v.26l.344-.123c.189-.068.589-.228.889-.356zm5.342-3.719c.527-.411.862-.742 1.073-1.062.186-.282.343-.794.298-.974-.033-.13-.247-.298-.54-.425-.205-.088-.207-.088-.531.025-.368.127-.499.102-.646-.121-.074-.114-.076-.175-.026-.66.114-1.095.06-1.439-.276-1.766-.232-.226-.443-.306-.995-.379-1.082-.143-1.404-.279-1.576-.666-.085-.193-.092-.265-.056-.601.082-.763.058-.954-.172-1.419-.271-.546-.54-.796-1.005-.938-.31-.094-.395-.099-1.263-.067-1.769.063-1.96-.054-1.737-1.064.139-.632.075-.976-.247-1.332-.27-.299-.495-.397-.915-.396-.333 0-.399.019-1.043.302-1.216.533-1.44.618-1.64.619-.298.001-.377-.116-.366-.538.005-.186.052-.498.104-.693.052-.194.089-.36.082-.367-.008-.008-.14.069-.294.169-.384.25-.88.72-1.545 1.465-.6.672-.66.798-.45.937.105.068.13.064.357-.054.21-.109.262-.119.368-.07.135.06.134.045.013.676-.072.373-.02.61.181.85.338.403.894.366 1.558-.102.817-.575 1.166-.656 1.647-.38.335.191.367.285.356 1.055-.008.564 0 .613.122.863.145.296.311.437.632.534.534.16 1.332-.03 1.93-.46.528-.379 1.194-.12 1.526.593.173.372.155.72-.076 1.431-.273.839-.25 1.214.092 1.502.232.196.473.176 1.086-.092.642-.28 1.018-.324 1.36-.158.419.202.487.585.26 1.453-.118.45-.12.647-.005.897.154.341.473.494 1.032.494.702 0 .846.177.563.692-.194.352-.199.45-.026.498.289.08.381.048.79-.27zm-16.272-.908c-.082-.2-.167-.593-.227-1.059-.055-.43-.084-.527-.203-.675-.144-.18-.21-.217-.209-.115.004.245.111 1.045.195 1.446l.101.486h.189c.16 0 .183-.012.154-.083zm40.084-.6c.38-.104.765-.306.765-.399a.606.606 0 0 0-.09-.226l-.09-.147-.585-.034a20.032 20.032 0 0 1-1.992-.223l-.316-.055.41-.21c1.836-.936 4.21-3.247 6.545-6.37.561-.75.598-.834.599-1.373 0-.416-.012-.476-.158-.772-.186-.377-.536-.753-.955-1.024-.479-.31-.501-.302-1.219.41-.698.693-1.19 1.246-2.646 2.975-2.669 3.17-3.9 4.348-5.474 5.235-.194.11-.553.363-.798.564-.245.2-.492.402-.549.447-.135.109-.12.117.673.384 2.146.721 4.864 1.1 5.88.819zm3.71-.97c.638-.22 1.16-.556 1.766-1.138.438-.422 1.074-1.27 1.388-1.852.064-.119.167-.286.229-.371.072-.1.132-.278.166-.498.03-.189.076-.428.103-.533.127-.492.23-1.229.23-1.653.002-1.165-.37-2.486-.771-2.736a.476.476 0 0 0-.6.074c-.157.157-.158.394-.008 1.09.195.898.097 1.852-.32 3.096-.256.764-.564 1.448-.84 1.865-.286.43-.964 1.142-1.416 1.486-.321.246-1.11.758-1.224.796-.085.029.128.296.307.384.21.104.673.1.99-.01zm-10.302-.632c.675-.545.687-.557.591-.591-.907-.327-3.009-1.367-4.153-2.054l-.787-.473-.406.29c-.223.158-.405.305-.405.324 0 .104 1.391 1.068 2.228 1.543.542.308 2.426 1.25 2.505 1.253.035.001.227-.13.427-.292zm-13.788-.804c.585-.786 1.25-2.085 1.59-3.1.198-.592.371-1.35.318-1.396-.02-.018-.603-.189-1.294-.38-.69-.19-1.47-.419-1.73-.507-1.093-.373-2.967-1.44-4.308-2.451a16.028 16.028 0 0 1-3.387-3.513 4.492 4.492 0 0 0-.316-.418c-.191-.146-1.128.163-2.374.782-1.15.573-2.244 1.378-2.326 1.714-.04.165.037.321.21.424.177.104.372.054 1.157-.293 1.08-.477 1.495-.574 2.058-.477.438.074.622.192.77.488.1.202.116.318.144 1.003.022.55.05.8.097.861.417.55.746.684 1.85.751.679.042 1.1.135 1.493.33.437.216.638.39.803.692.116.214.141.33.18.823.048.627.088.751.29.9.122.092.198.1.924.104.837.003 1.019.026 1.294.166.442.224.542.616.279 1.091-.214.387-.26.593-.165.739.069.105.103.116.3.097.12-.012.316-.06.434-.105.117-.046.33-.084.474-.085.39-.003.638.157.833.535.156.301.15 1.095-.012 1.635-.026.087-.021.089.058.024a4.11 4.11 0 0 0 .356-.434zm15.352-1.996a1.99 1.99 0 0 0 .69-.794c.133-.275.148-.353.148-.738 0-.391-.012-.448-.132-.63-.144-.217-.495-.464-.853-.599-.475-.18-1.304.002-1.682.367-.346.335-.443.99-.214 1.443.164.325.417.657.63.827.36.288 1.07.35 1.413.124zm-6.566-.262c.269-.188.354-.271.308-.3-.045-.029-.032-.04.048-.041.164-.001.642-.403 1.17-.984.256-.28 1.002-1.065 1.658-1.743 2.05-2.116 2.901-3.055 3.7-4.077 1.304-1.67 1.937-3.131 1.78-4.108-.058-.358-.274-.818-.473-1.008l-.143-.137-.511.098c-.72.138-.78.147-1.48.22-.701.073-.886.143-1.592.604-.491.32-1.444 1.271-1.774 1.77-.138.209-.262.39-.275.403-.013.013-.009-.179.01-.426.074-1.028-.221-2.233-.533-2.172-.04.008-.119.075-.173.149-.092.122-.099.181-.08.687.01.304.02.937.02 1.407.003 1.182-.11 1.701-.72 3.296-.297.775-.373.934-.604 1.279-.62.924-1.724 1.644-3.499 2.283-.481.173-.759.301-.877.404l-.173.15.106.108c.132.135.507.167 1.127.097l.427-.048.154.147c.084.081.327.394.54.696.405.576 1.35 1.583 1.436 1.534.028-.016.219-.146.423-.288zm-30.073.037c.397-.073.757-.277.882-.499.143-.251.142-.496-.003-.632-.22-.207-.667-.213-1.998-.028-1.35.186-2.565-.008-3.628-.58-1.314-.708-2.314-1.484-2.98-2.314-.728-.907-1.147-1.23-1.448-1.116l-.133.05.017.416c.026.65.177.915.983 1.719.674.67 1.116 1.007 2.11 1.606 1.937 1.169 2.773 1.398 5.179 1.419.42.004.879-.015 1.02-.04zM10.4 38.608a3.4 3.4 0 0 0 1.158-.775c.239-.243.305-.35.43-.697a4.92 4.92 0 0 0 .202-.748c.098-.631-.138-1.075-.805-1.512-.434-.284-.645-.357-1.208-.418-.733-.08-1.062-.042-1.47.171-.611.318-.998.712-1.345 1.371l-.173.328.053.425c.14 1.145.871 1.82 2.138 1.978.422.053.65.025 1.02-.123zm26.679-.404a.881.881 0 0 0 .416-.209l.17-.155.032-.74c.026-.593.05-.77.12-.893.173-.302.717-.46 1.59-.462.422-.001.95-.098 1.177-.215.357-.184.569-.644.568-1.23 0-.442-.08-.717-.4-1.401-.319-.677-.415-1.07-.359-1.466.047-.327.098-.435.268-.569.174-.137.413-.125.87.044.418.153.792.184.997.081.157-.079.46-.686.526-1.051.13-.725-.182-1.524-1.048-2.674-.397-.526-.472-.603-.63-.64-.232-.053-.488-.003-.611.12-.085.085-.094.134-.067.363.017.145.119.468.226.717.23.532.254.797.097 1.052-.175.283-.455.351-1.623.395-.916.034-1.273.112-1.445.317-.258.307-.225.846.09 1.447.72 1.38.715 1.37.712 1.839-.006.844-.247 1.239-.833 1.361-.225.047-.406.04-1.178-.053-.952-.114-1.26-.11-1.668.024-.255.084-.34.227-.332.567.003.164.07.341.29.762.252.482.286.58.286.817 0 .293-.103.519-.294.643-.06.039-.269.129-.464.2a3.527 3.527 0 0 0-.468.202c-.107.068-.108.074-.023.137.171.13.614.333.997.46.73.241 1.493.32 2.011.21zm14.713-.178c.332-.164.656-.483.776-.764.038-.091.08-.327.094-.525.02-.296.008-.398-.073-.58-.243-.55-.941-1.03-1.5-1.03-.362 0-.591.132-.984.565-.365.404-.435.564-.406.928.04.503.363 1.054.832 1.423.221.173.227.175.588.155.287-.016.43-.052.673-.172zm-18.902-1.41c.198-.152.344-.38.344-.54 0-.178-.25-.58-.496-.795-.285-.25-.767-.484-1.5-.727-.668-.222-.834-.224-1.084-.014-.253.213-.29.585-.096.967.106.208.212.304.692.629.421.285.78.437 1.251.532.502.101.703.09.889-.053zm26.733-1.558a.384.384 0 0 0 .117-.272c.001-.167-.237-.952-.297-.978-.02-.009-.035-.043-.035-.076s-.088-.195-.195-.36a3.772 3.772 0 0 1-.225-.383c-.041-.11-.674-.887-1.026-1.263a3.513 3.513 0 0 1-.334-.395c-.063-.117-1.335-1.32-1.906-1.8a13.128 13.128 0 0 0-1.704-1.23c-.73-.45-.891-.527-1.174-.556-.202-.02-.288-.003-.49.1-.135.067-.267.164-.294.214-.058.109-.113.06 1.658 1.45 1.7 1.336 2.275 1.822 3.075 2.606.545.533.791.821 1.24 1.448.307.43.684.928.837 1.107.152.179.309.365.348.413.1.123.268.113.405-.025zm-55.954-.505c.4-.25.857-.681 1.015-.957.383-.67.38-1.456-.007-2.184-.364-.682-1.096-1.113-1.596-.94-.08.029-.146.042-.146.031 0-.075.481-1.093.718-1.52.94-1.69 1.678-2.382 3.746-3.513a13.658 13.658 0 0 1 2.32-1.014c.644-.213 1.77-.468 1.824-.413.013.013-.044.171-.128.35-.303.654-.155 1.284.44 1.87.526.518.857.662 1.517.662.544 0 1.031-.104 1.441-.308.7-.348 1.032-.704 1.125-1.208.105-.564-.111-1.044-.68-1.509l-.319-.26.162-.153c.119-.111.162-.193.162-.302 0-.2-.102-.43-.252-.569-.12-.11-.14-.113-1.014-.11a9.888 9.888 0 0 0-1.555.1c-1.941.289-4.38 1.15-5.808 2.052-.925.585-2.018 1.49-2.502 2.07-.678.815-1.538 2.231-1.833 3.017-.666 1.779-.712 3.282-.134 4.433.15.3.21.372.391.466.18.095.263.109.535.09.26-.017.37-.051.578-.181zm50.543-.11c.302-.147.708-.562.838-.857.2-.453.165-.791-.13-1.217-.468-.679-1.79-.854-2.188-.289-.366.522-.419 1.122-.151 1.746.116.27.49.672.681.731.24.074.672.023.95-.113zm-39.1-.455c.419-.226.865-.563 1.026-.773a2.87 2.87 0 0 0 .247-.436c.107-.233.13-.35.13-.662 0-.313-.023-.43-.13-.662-.18-.39-.316-.556-.735-.89-.52-.413-.694-.48-1.24-.483-.357-.001-.495.019-.664.096-.354.162-1.03.67-1.177.885-.572.838-.443 2.058.286 2.716.27.245.624.393 1.112.465.485.071.575.051 1.145-.256zm15.451-.566c.293-.13.38-.212.525-.499.092-.18.126-.334.144-.651.03-.538-.046-.997-.301-1.806-.248-.788-.495-1.883-.494-2.198 0-.338.085-.584.26-.76.139-.138.186-.156.414-.156.366 0 .651.096 1.699.57 1.15.521 1.57.663 2.062.696.484.033.824-.059 1.103-.297.257-.22.341-.386.341-.674 0-.65-.194-1.085-.808-1.812-.636-.753-.899-1.276-.899-1.786 0-.279.043-.353.457-.78.215-.224.35-.402.35-.465 0-.167-.124-.356-.317-.49-.442-.305-1.838-.83-2.75-1.035-.453-.101-.488-.103-.601-.028-.15.097-.218.32-.253.816-.026.365-.018.408.213 1.09.294.872.33 1.105.226 1.462a1.098 1.098 0 0 1-.608.715c-.45.224-.815.163-1.841-.307a7.62 7.62 0 0 0-.891-.352c-.692-.18-1.191-.018-1.437.464-.081.159-.094.247-.071.488.036.391.179.721.643 1.488.436.72.574 1.095.574 1.559 0 .38-.061.484-.374.643-.558.283-1.11.253-2.27-.12-.745-.24-.993-.273-1.29-.171-.228.078-.296.228-.267.585.027.33.274.988.506 1.35.42.654 1.012.86 1.68.586.156-.065.339-.117.405-.117.22 0 .542.259.947.765.751.939 1.008 1.147 1.6 1.297.377.096 1.026.061 1.323-.07zm5.303-.871c.443-.207.666-.59.548-.947-.068-.207-.635-.861-.962-1.111-.466-.356-1.056-.578-1.537-.58-.166 0-.22.025-.342.164a.84.84 0 0 0-.196.784c.136.569.781 1.332 1.378 1.63.423.212.746.23 1.111.06zM8.112 31.188c.33-.067 1.124-.451 1.49-.722.278-.204.612-.612.804-.98.112-.217.115-.745.005-1.067-.098-.29-.369-.656-.636-.86a2.992 2.992 0 0 0-.59-.303c-.326-.125-.458-.15-.773-.15-.21 0-.468.021-.575.046-.255.058-1.1.617-1.324.875-.387.445-.638 1.222-.57 1.764.06.483.4 1.005.792 1.216.389.21.906.278 1.377.181zm11.486-.75c.778-.3 1.313-.703 1.516-1.142.079-.17.1-.307.099-.664 0-.407-.015-.48-.152-.77a2 2 0 0 0-.937-.937c-.321-.161-.343-.165-.843-.157-.432.008-.552.028-.768.126-.81.371-1.33 1.363-1.169 2.233.216 1.164 1.179 1.725 2.254 1.311zm3.767-1.147a.697.697 0 0 0 .15-.216c.075-.194.051-.873-.05-1.462-.117-.689-.118-1.066-.004-1.612.344-1.642 1.513-3.262 2.906-4.027.967-.532 1.45-.618 3.226-.571l1.268.033.047-.125a.412.412 0 0 0 .037-.16c-.006-.018.394-.439.89-.934 1.346-1.346 2.071-2.256 2.071-2.597 0-.332-.377-.813-.804-1.027-.215-.107-.646-.184-1.268-.224-.294-.019-.568.008-1.224.122-1.255.217-1.562.196-2.001-.135-.233-.176-.26-.214-.26-.372 0-.24.225-.697.48-.973.114-.125.463-.445.774-.71.52-.445.584-.518.775-.887.197-.377.208-.42.192-.716-.058-1.021-1.214-1.503-2.671-1.113-.261.07-.976.327-1.589.571-1.249.498-1.577.603-1.892.607-.29.003-.407-.04-.504-.19-.205-.311-.008-.798.51-1.261 1.059-.948 1.568-2.1 1.214-2.748-.085-.154-.175-.233-.394-.342-.285-.142-.286-.143-1.091-.138-.77.005-.819.01-1.09.134-.157.07-.616.265-1.02.43-.404.166-.905.381-1.114.478-.44.204-1.21.67-1.21.732 0 .024.091.065.202.092.482.118.67.299.775.743.206.876-.033 1.586-.996 2.957-.302.43-.645.971-.763 1.202-.19.376-.213.454-.213.744 0 .41.032.49.326.812.325.356.588.443 1.333.44.679-.001.97-.079 2.205-.589.936-.386 1.472-.57 1.662-.57.276 0 .595.105.671.221.068.104.07.149.017.363-.075.3-.106.342-.945 1.286-.81.91-.93 1.124-.93 1.642 0 .317.016.387.142.59.078.126.307.365.508.532.35.29.387.308.8.392.239.05.682.114.985.144.303.03.582.065.619.076.036.01-.168.135-.455.276a5.979 5.979 0 0 0-3.02 3.488c-.306.934-.385 1.432-.385 2.416 0 .768.014.926.11 1.275.139.51.305.837.47.926.187.102.403.092.528-.025zm25.041-.967c.901-.06 2.139-.391 3.377-.903.79-.327 1.246-.614 1.694-1.064.793-.798 1.289-1.991 1.524-3.662.131-.937.11-2.255-.05-2.995-.283-1.316-.756-2.357-1.777-3.916-.476-.727-.705-.949-.978-.949-.286 0-.376.066-.376.275.001.185.056.287.344.634.193.234.381.655.606 1.357.386 1.205.064 1.712-1.14 1.792-.273.018-.554.061-.623.096-.147.075-.303.431-.261.598.062.247.557.379 1.454.385.486.004.658-.015.961-.103.203-.06.436-.102.517-.094.126.013.158.044.214.204.362 1.05.338 2.823-.054 4.02-.385 1.174-1.121 2.074-2.098 2.564-.608.306-1.629.486-2.523.446-.86-.038-1.511-.322-2.274-.992-.662-.582-1.002-1.118-1.36-2.15-.1-.287-.205-.538-.232-.558-.093-.068-.33.013-.489.166-.209.203-.265.427-.201.805.127.757.124.75.638 1.505.19.28.36.573.377.65.05.223-.04.388-.268.491-.314.143-.813.12-1.566-.073-.114-.029-.13-.02-.13.079 0 .262.338.586.843.81.238.106 1.14.368 1.694.492.352.08 1.247.154 1.565.13l.592-.04zm-9.067-1.316c.186-.198.243-.409.194-.717-.1-.627-.546-1.204-1.179-1.523-.293-.147-.402-.178-.643-.178-.515 0-.86.268-.807.625.034.226.425.857.756 1.219.418.457.84.671 1.338.678.191.002.261-.02.341-.104zm3.68-1.614c.103-.103.203-.512.147-.603-.013-.02-.025-.293-.028-.604-.004-.484.01-.593.094-.758.117-.23.075-.29-.23-.33-.43-.059-.932.308-1.001.73-.096.583-.025 1.107.196 1.456l.138.218h.288c.236 0 .307-.02.396-.109zm-2.147-.265l.11-.089-.306-.154c-1.464-.739-2.725-2.257-3.63-4.37-.327-.765-.357-.937-.397-2.267-.022-.743-.058-1.267-.093-1.359a.379.379 0 0 0-.204-.21c-.136-.056-.152-.052-.252.073-.355.446-.461 2.072-.196 3.013.177.63.633 1.793.837 2.137.833 1.404 2.74 3.115 3.64 3.266.344.058.373.056.49-.04zm11.454-1.22c.24-.194.413-.546.416-.844.004-.329-.11-.388-.856-.449-.517-.042-.61-.064-.97-.234a7.279 7.279 0 0 1-.908-.551c-.589-.42-.762-.475-.932-.294a.419.419 0 0 0-.113.232c0 .06.104.323.23.583.292.601.671.998 1.228 1.287.913.473 1.543.563 1.905.27zm-30.335-.087c.17-.088.424-.377.508-.578.098-.233.084-.663-.026-.842-.118-.19-.277-.306-.742-.54-.206-.104-.417-.234-.467-.29-.152-.169-.154-.54-.004-.954.186-.515.188-.537.06-.813-.21-.457-.667-.81-1.248-.963-.155-.041-.655-.117-1.111-.168-1.37-.155-1.63-.239-1.986-.643-.223-.253-.32-.527-.365-1.035-.04-.429.017-.767.295-1.781l.214-.783-.075-.303c-.127-.518-.525-.953-.872-.953-.297 0-.497.295-.836 1.24-.116.322-.276.756-.356.965-.218.57-.46 1.585-.55 2.315-.078.616-.078.692.002 1.467.187 1.838.606 2.689 1.653 3.36.452.29 1.106.606 1.597.77.852.285 2.357.505 4.043.591a.621.621 0 0 0 .266-.062zm25.42-.857c.372-.187.438-.436.453-1.708.01-.844.026-1.081.09-1.232.148-.355.414-.566 1.045-.825.778-.32 1.052-.524 1.206-.895.058-.142.055-.169-.03-.284-.215-.288-.759-.442-1.845-.524-.665-.05-.841-.116-1.162-.435-.254-.253-.433-.608-.704-1.397-.315-.918-.473-1.085-.884-.934-.273.1-.392.267-.617.865-.228.606-.314.76-.533.959-.305.274-.681.291-1.192.053-.487-.226-.93-.201-1.14.066-.133.169-.118.272.112.799.203.463.391.79.874 1.515.397.598.357.764-.384 1.594-.502.561-.598.715-.613.972-.014.235.124.312.494.278.36-.033.653-.155 1.363-.567.77-.447.84-.47 1.082-.362.234.105.45.36.822.973.159.26.355.56.437.666.167.218.486.475.628.507.124.028.35-.01.498-.084zm-8.167-1.302a.917.917 0 0 0 .373-.529c.041-.192.27-.438.624-.674.372-.247.684-.378 1.241-.522.34-.087.413-.123.474-.236.07-.129.068-.136-.087-.268-.216-.182-.54-.254-.967-.215-.962.09-1.5.374-2.078 1.101-.344.433-.402.619-.3.961.132.447.39.583.72.382zm1.927-3.844c.155-.184.154-.27-.008-.601-.245-.502-.688-.853-1.294-1.026-.409-.116-1.03-.178-1.234-.123-.271.073-.62.33-.787.58-.25.375-.298.865-.095.994.101.065.524.037.886-.058.566-.148.823-.128 1.438.113.291.114.561.219.6.233.197.072.373.032.494-.112zm-5.935-1.227c.239-.27.678-1.264.844-1.91.122-.475.154-.708.175-1.272.041-1.131-.104-1.645-.734-2.604-.412-.627-1.15-1.394-1.83-1.904-.542-.406-1.667-.981-2.33-1.193-1.041-.331-1.908-.454-3.277-.463-.827-.005-.922.003-1.096.092-.181.092-.44.347-.44.433 0 .07.408.24.693.286.195.032.428.028.776-.013.274-.033.754-.06 1.067-.06.518 0 .59.012.806.122.278.143.31.241.155.473-.078.117-.253.24-.606.427-.523.277-.728.48-.7.699.01.088.082.14.345.253.387.166.873.228 1.792.23 1.312.003 1.977.321 2.266 1.085.084.224.097.338.08.701-.022.416-.035.459-.312 1.025-.362.742-.42.955-.347 1.284.076.34.22.504.482.555.58.112.807.012 1.298-.57.453-.537.58-.628.793-.57a.718.718 0 0 1 .282.17c.103.109.115.163.113.51-.001.33-.025.44-.158.753a7.262 7.262 0 0 1-.395.759c-.29.475-.341.658-.25.878l.068.16.148-.086c.081-.048.213-.16.292-.25zm13.498-.071c.34-.173 1.72-1.086 1.836-1.217.184-.205.18-.298-.015-.47-.272-.239-.75-.443-1.087-.464-.387-.025-.469.027-.565.359-.043.15-.194.54-.335.869-.438 1.02-.404 1.211.166.923zm-5.698-1.194c.09-.024.107-.06.107-.238 0-.298-.165-.59-.641-1.134-.478-.545-.59-.741-.627-1.1-.039-.378-.012-.39.87-.39 1.968 0 4.38.474 6.183 1.217.884.364 1.194.388 1.118.087-.063-.25-.765-.791-1.412-1.087-.792-.362-2.901-1.009-4.021-1.232a10.187 10.187 0 0 0-4.528.094c-.693.174-1.729.811-2.34 1.439-.854.878-1.084 1.393-.765 1.711.194.194.29.133.642-.41.18-.276.402-.558.494-.626.092-.067.295-.232.451-.367.327-.28.628-.443 1.132-.612.57-.192.56-.197.712.343.374 1.329 1.361 2.297 2.376 2.33.079.002.19-.01.25-.025zm-25.035-2.802c.495-.24 1.068-.873 1.349-1.49.076-.167.076-.174-.03-.273a.778.778 0 0 0-.268-.147c-.426-.122-1.587.755-2.151 1.625-.104.16-.053.241.234.373.244.112.51.085.866-.088z"/></svg>