<svg xmlns="http://www.w3.org/2000/svg" width="80" height="80"><path d="M23.532 76.23c-7.93-4.27-15.107-10.06-19.575-18.669C1.217 52.282.009 46.85 0 39.77c-.005-4.463.168-5.947 1.137-9.749 1.819-7.13 5.057-12.754 10.527-18.278C19.104 5.07 22.06 2.704 34.918.285c2.02-.452 7.485-.352 10.68.195 2.638.452 7.791 1.787 8.9 2.306 8.069 3.776 11.761 5.778 16.463 12.141 4.701 6.364 9.721 16.51 8.962 25.49-1.46 17.294-7.355 23.924-16.355 31.632-6.355 5.442-15.437 7.519-23.777 7.918-5.553.266-11.36-1.097-16.26-3.736zm23.227-9.503c1.278-.3 2.393-.643 2.478-.762.085-.12.566-.318 1.068-.442.707-.174.812-.289.464-.51-.591-.376-1.642-.371-2.02.01-.293.293-6.902 1.02-9.113 1.002-2.565-.022-7.893-.671-7.994-.975-.13-.39-2.112-.404-3-.02-.62.267-.62.267 0 .291.34.013 1.037.243 1.548.512.9.472 2.206.824 5.11 1.377 2.163.411 8.848.13 11.46-.483zm-1.316-2.028c1.235-.16 3.186-.419 4.336-.574 2.232-.302 6.479-1.732 7.988-2.69.504-.319 1.96-1.595 3.236-2.836 2.767-2.69 2.71-3.398-.157-1.94-2.738 1.394-7.572 2.69-14.88 3.991-2.42.431-9.621.43-12.04 0-7.665-1.365-9.213-1.721-12.19-2.805-.902-.328-2.185-.877-2.852-1.218-1.35-.692-2.166-.797-2.166-.28 0 .19 1.01 1.356 2.246 2.594 2.18 2.187 4.46 3.594 6.59 4.07.506.112 1.445.403 2.088.645.642.242 1.694.44 2.338.44.644 0 1.303.133 1.465.296.55.552 10.447.77 13.998.307zm-1.316-5.27c9.506-.999 19.284-4.418 21.651-7.572.407-.542 1.173-2.29 1.7-3.883 1.44-4.341 1.31-4.903-.791-3.45-3.145 2.174-8.539 4.008-16.056 5.458-4.003.773-15.2.932-19.458.277-8.157-1.255-14.588-3.364-18.204-5.971-1.968-1.42-2.273-.924-1.336 2.167 1.097 3.617 2.01 5.419 3.262 6.429 1.437 1.16 6.522 3.65 8.051 3.942.578.11 1.292.325 1.588.476.295.152 1.201.42 2.013.594 8.039 1.731 12.225 2.097 17.58 1.534zm5.265-11.033c9.641-1.53 17.494-4.836 18.893-7.954.456-1.017.516-1.68.34-3.803-.18-2.162-.93-5.702-1.294-6.112-.057-.063-.632.299-1.278.805-2.096 1.64-4.265 2.629-8.063 3.677-12.491 3.445-31.43 2.71-40.854-1.587-.537-.245-1.085-.445-1.219-.445-.133 0-.914-.569-1.734-1.264-.82-.694-1.62-1.182-1.78-1.083-.482.3-1.251 3.402-1.461 5.895-.344 4.089.62 5.521 5.312 7.89 1.693.854 5.906 2.262 9.446 3.155 6.143 1.551 16.785 1.922 23.692.826zm0-14.036c9.697-1.359 16.569-4.118 16.569-6.652 0-.935-2.866-5.49-3.815-6.062-.46-.277-.686-.19-1.239.48-.79.956-1.903 1.562-4.426 2.409-5.2 1.746-10.289 2.335-18.393 2.132-6.99-.176-9.43-.49-13.634-1.754-3.647-1.096-4.158-1.344-5.586-2.715l-1.103-1.057-.639.705c-1.21 1.335-3.125 4.442-3.327 5.394-.289 1.365.644 2.4 3.328 3.694 2.528 1.218 8.085 2.756 11.98 3.315 5.97.858 14.62.905 20.285.111zM45.77 23.793c3.883-.412 6.082-.853 9.85-1.975 2.231-.665 3.852-1.945 3.615-2.854-.248-.952-5.034-4.348-6.128-4.348-.176 0-.805.33-1.398.732-2 1.359-5.388 1.9-11.918 1.907-5.17.005-6.23-.082-8.728-.724-1.655-.424-3.066-.977-3.377-1.322-.294-.326-.785-.593-1.092-.593-.766 0-5.814 3.442-6.024 4.107-.68 2.154 4.549 4.133 13.337 5.047 5.437.566 6.712.568 11.863.023zm-1.15-8.888c3.5-.448 4.617-.82 4.617-1.537 0-.621-.126-.676-2.942-1.297-2.843-.626-11.26-.5-13.713.206-1.07.307-2.026.693-2.127.856-.926 1.505 7.761 2.592 14.165 1.772z"/></svg>