<svg xmlns="http://www.w3.org/2000/svg" width="64pt" height="64pt" viewBox="0 0 64 64"><path d="M30.902 64.387a32.894 32.894 0 0 1-6.5-.934C12.906 60.602 3.797 51.496.957 40.012a32.381 32.381 0 0 1 .016-15.684 32.25 32.25 0 0 1 4.097-9.476c2.801-4.391 6.762-8.137 11.325-10.707C25.129-.777 35.68-1.348 44.938 2.609c1.039.446 2.898 1.399 3.886 2a33.394 33.394 0 0 1 4.406 3.188c.727.621 2.504 2.379 3.145 3.105a32.22 32.22 0 0 1 7.879 18c.242 2.36.21 5.118-.094 7.391a15.66 15.66 0 0 0-.074.602c0 .02-.148-.079-.336-.22-.246-.183-.496-.359-.75-.523-.984-.632-1.676-1.101-1.996-1.359-.57-.457-1.305-1.129-1.305-1.188 0-.039-.043-.074-.094-.09-.117-.042-1.02-1.03-1.652-1.828-1.012-1.261-2.125-3.011-2.871-4.507l-.402-.809-.067-7.094-1.093-2.46-.086.687.421.945.418.946.043 9.558c.024 5.254.063 9.574.082 9.594.02.02.762.062 1.649.094.883.03 1.746.074 1.91.09.676.07 4.773.21 4.805.16.047-.07.203-.676.183-.7a19 19 0 0 0-.957-.168c-.984-.16-1.445-.308-2.031-.656l-.258-.16v-.937l-.004-.938-.304-.242a4.418 4.418 0 0 0-.34-.266c-.024-.008-.043.32-.043.739 0 .503-.016.726-.047.675-.043-.074-.074-.07-.332.032a3.854 3.854 0 0 1-.469.148l-.187.027v-2.644l-.34-.34-.344-.34v2.8l-.242-.269a3.288 3.288 0 0 0-.492-.441l-.254-.172v-1.504l-.004-1.5-.34-.406-.344-.41-.011 1.62-.016 1.63-.43-.332c-.238-.18-.445-.375-.457-.426-.015-.059-.02-1.207-.011-2.559l.011-2.46.2.367c.367.687 1.538 2.152 2.703 3.394 1.625 1.73 3.363 3.137 4.757 3.848.856.437 1.407.68 1.559.691l.148.012-.066.422c-.36 2.332-1.168 5.105-2.16 7.426-4.43 10.363-14.012 17.699-25.121 19.242-1.942.27-4.059.379-5.817.293zM19.895 47.793c.144-.047.421-.16.605-.262.328-.168.34-.176.395-.086.25.418.625.457 1.464.149.52-.192.856-.207 1.16-.055.133.066.278.168.333.227.09.093.09.093.382-.094.453-.293.797-.406 1.16-.383.258.016.336.043.54.203.378.297.695.242 1.171-.207.227-.219.235-.222.207-.086-.019.082-.011.168.024.207.121.145.828.024 1.355-.234.297-.145.91-.64.856-.695-.012-.016-.149-.004-.305.023a.886.886 0 0 0-.465.207c-.394.34-.726.418-1.039.258-.086-.043-.172-.121-.187-.18-.043-.144-.16-.12-.535.106l-.336.199-.301-.05a13.2 13.2 0 0 0-.516-.083c-.117-.016-.226-.062-.238-.102-.043-.101-.074-.09-.418.141-.395.266-.75.383-1.168.383-.621-.004-.918-.074-1.328-.316-.207-.126-.43-.227-.492-.227-.074 0-.215.09-.375.238-.293.281-.422.352-.594.352s-.242-.168-.148-.352a.586.586 0 0 0 .07-.195c0-.102-.293-.004-.742.254-.922.539-1.313.61-1.68.328-.18-.14-.21-.191-.203-.328.004-.149 0-.153-.152-.125-.082.015-.446.117-.801.226-.696.211-.965.235-.996.075-.008-.055.027-.133.097-.188.117-.094.117-.094-.203-.062-.18.015-.562.058-.86.101-.3.035-.773.078-1.046.098-.399.027-.496.047-.473.105.09.239.668.274 1.407.082.59-.152.742-.136 1.097.106.34.234.535.234 1.145 0 .25-.094.539-.172.652-.172.168 0 .195.016.227.125.03.121.207.242.46.32.208.063.512.051.794-.031zM33 47.426c.05-.028.16-.149.242-.27.18-.258.317-.285.496-.097.137.148.164.148.551.02.258-.09.398-.099 1.008-.087.387.008.703.008.703 0 0-.094-.168-.3-.266-.324a.405.405 0 0 1-.324-.398c0-.098-.012-.172-.031-.172a1.61 1.61 0 0 0-.234.168c-.27.222-.508.32-.82.332-.22.011-.263-.004-.345-.11l-.09-.12-.359.093c-.422.113-1.926.191-2.086.113a2.526 2.526 0 0 1-.355-.285c-.48-.457-.754-.488-1.149-.144-.148.128-.187.187-.117.167.133-.035.41.083.805.34.308.203.332.211.738.211.563.008.52-.004.781.242.375.348.622.442.852.32zm-24.246-.442c.101-.547.055-.543.582-.047.266.243.496.442.516.442.027 0 .21-.133.414-.297l.379-.297.21.172.207.172.735.055.73.05.094-.113c.156-.187.543-1.055.856-1.91.382-1.059 1.293-4.035 1.293-4.234 0-.032-.082-.04-.215-.028-.114.012-1.48.07-3.04.121-1.558.059-2.988.114-3.18.133l-.347.024.024.168c.047.437-.278 2.289-.778 4.402-.136.578-.238 1.07-.222 1.082.015.016.386.14.824.281.516.16.809.23.828.195.016-.03.055-.195.09-.37zm29.789.063c.277-.133.324-.137 1.031-.137.406 0 .918.016 1.14.043l.4.04.19-.286c.282-.418.325-.434.56-.18.288.317.566.38 1.624.38.594 0 .938-.02 1.098-.063.195-.059.289-.059.527-.008.309.062.535.027.79-.14.093-.06.277-.083.765-.09.93-.016 1.27-.07 1.707-.278.371-.18.387-.183.996-.183.356 0 .629.023.649.05.015.028.085.051.152.051.101 0 .117-.016.074-.07-.043-.051-.004-.074.203-.121a7.016 7.016 0 0 1 1.563-.149c.261.008.629.012.828.004l.355-.008v-.394h-.394c-.367 0-.438-.016-.805-.2-.492-.234-.547-.242-.437-.058.117.207.054.305-.196.313-.5.027-.625.039-.96.12-.282.067-.368.11-.395.192-.04.11-.047.105-.461-.125-.594-.336-.629-.34-.649-.11-.011.165-.03.188-.148.204a2.41 2.41 0 0 1-.477-.059c-.402-.094-1.187-.164-1.187-.101 0 .02.031.07.066.117.137.148.145.285.032.402-.09.086-.145.098-.325.07l-.43-.054c-.16-.028-.277-.004-.511.097a5.85 5.85 0 0 1-.336.125c-.016 0-.047-.054-.07-.12-.067-.173-.149-.157-.465.093-.238.184-.317.219-.602.246-.527.05-.86-.062-.707-.242.078-.094.043-.094-.468.027-.399.098-.442.098-.723.024a3.142 3.142 0 0 0-.39-.078c-.052 0-.16-.063-.247-.149-.183-.176-.265-.164-.574.086-.2.16-.227.168-.691.188-.266.007-.82.07-1.239.144-1.176.203-1.418.184-1.195-.117.133-.184.117-.184-.453-.04-.418.106-.434.106-.5.024-.07-.101-.156-.074-.446.141a.66.66 0 0 1-.289.125l-.14.02.21.167c.2.16.239.172.727.208.282.019.524.042.535.058.043.043.387-.059.688-.195zm-13.332-1.492c.035-.594.066-1.082.07-1.082l.52-.098c.199-.04.394-.078.594-.102.085 0 .285.372.347.641.028.098.02.473-.015.875-.032.383-.04.711-.024.734.02.016.098.004.176-.03.144-.06.144-.06.207-.692.031-.352.043-.73.027-.844-.035-.246-.21-.648-.425-.984-.172-.266-.247-.684-.141-.809.043-.055.058-.273.058-.8-.003-.778-.09-1.325-.27-1.75-.093-.216-.116-.235-.233-.208-.188.047-.22.098-.133.254.16.313.234.738.265 1.492l.028.758-.309-.21a5.329 5.329 0 0 0-3.52-.9c-1.343.145-2.605.634-4.663 1.817l-.762.434.52.015c2.71.07 6.761.204 6.78.223.012.012.157.531.317 1.148.375 1.434.328 1.31.434 1.254.078-.043.093-.187.152-1.132zm30.793.816l-.11-.117.16-.086c.29-.145.626-.219 1.462-.316.98-.114 1.652-.235 1.765-.317.074-.05.059-.14-.172-1.012-.214-.812-.308-1.066-.636-1.75-.34-.703-.391-.836-.395-1.093-.012-.535-.219-1.14-.492-1.461l-.164-.184h-.59c-.336 0-.574.024-.559.047.012.023.114.031.223.02.606-.082 1.098.492 1.215 1.402l.031.266-.191-.04a4.48 4.48 0 0 0-.758-.039c-.656.004-1.29.121-2.168.414-.617.204-1.809.704-1.895.797-.035.04-.027.047.04.024.984-.348 2.406-.399 3.667-.125.434.094 1.344.386 1.547.496.16.082 1.133 1.871 1.063 1.945-.047.043-1.024.203-1.637.27-.383.043-1.176.066-2.234.058l-1.633-.004v.336h.289c.227 0 .328.024.469.125.117.078.41.18.785.266.789.187.777.184.914.191l.117.004zm-12.402-.367c.09-.035.132-.098.156-.234a.752.752 0 0 1 .543-.54c.133-.023.32 0 .668.098.851.227 1.168.281 1.297.219.101-.043.18-.223.472-1.106.2-.582.352-1.066.344-1.074a16.177 16.177 0 0 0-3.578-1.402c-.547-.145-1.508-.305-1.54-.262a3.832 3.832 0 0 0-.148.402c-.148.458-.68 1.524-1.011 2.016l-.239.363-.398-.027c-1.832-.121-2.773-.148-3.586-.09a12.59 12.59 0 0 0-1.2.13 6.167 6.167 0 0 1-.355.073c-.011-.047-.015-.093-.011-.144 0-.14 0-.14-.2-.094-.214.047-.5.18-.66.309-.078.058-.082.07-.02.047.051-.016.286.015.528.074.805.191 1.672.265 3.012.27 1.219.003 1.969-.06 2.511-.216.192-.054.172-.015-.285.54-.191.234-.324.43-.304.437.02.008.433-.043.918-.105.484-.07 1.097-.153 1.363-.184l.48-.063.457.305c.454.3.567.336.786.258zm17.195-1.484c.039-.286-.05-1.192-.164-1.668a4.24 4.24 0 0 1-.098-.743c0-.183-.012-.632-.027-1.004l-.04-.675h-.16c-.136 0-.167.02-.167.105 0 .078-.02.094-.09.074-.117-.043-.114-.058-.281.825l-.141.734.3.289c.212.195.321.344.36.473.11.406.191 1.297.125 1.297-.012 0-.187-.047-.383-.098-.406-.113-.676-.133-.676-.04.004.173.067.286.165.286.058.004.347.078.644.168.3.09.559.164.574.168.02.004.043-.086.059-.191zM47.75 42.605c.363-.167.64-.535.785-1.039.078-.285.324-1.363.324-1.437 0-.024-.074-.04-.168-.04-.195 0-.183-.026-.324.661-.156.777-.281 1.094-.515 1.336-.2.21-.372.281-.372.16 0-.21-1.16-.754-2.148-1.004-.34-.086-.348-.094-.25-.172.102-.082.102-.086-.09-.53l-.191-.45h-.375l-.367.004-.243.265c-.183.211-.234.297-.214.395.015.098.003.117-.055.101-.102-.03-1.328-.199-2.152-.3-1.094-.13-1.625-.168-3.11-.23-3.777-.157-8.39.323-10.77 1.128l-.527.18v.195c0 .16.012.184.086.156a14.89 14.89 0 0 1 1.785-.535c3.754-.832 8.684-1.023 12.856-.496 1.785.223 3.398.695 4.902 1.426.356.168.707.312.793.316.117-.008.235-.043.34-.09zm-3.438-1.597c-.261-.059-.472-.117-.464-.14.027-.071.59-.638.617-.614.047.055.394.867.363.863l-.516-.11zm3.333.347c.046-.066.02-.218-.094-.664l-.14-.578h-.497l-.254.469c-.27.488-.308.64-.195.734.12.098.219.004.441-.433l.219-.426.055.2c.027.105.074.304.11.44.03.137.081.274.108.313.063.078.184.055.247-.055zm-43.051-.527c.867-.082 1.789-.152 2.043-.152.261-.004 1.945-.11 3.746-.239 2.965-.21 3.258-.242 3.055-.296-.387-.11-.438-.235-.215-.524.07-.097.117-.168.105-.168l-1.004.07c-.539.044-2.047.153-3.344.25-1.304.094-3.32.239-4.484.325-.715.047-1.426.105-2.137.172-.011.007.09.168.223.359.16.23.27.344.34.344.05 0 .808-.063 1.672-.14zm23.133-.21c.144-.196.277-.376.289-.395.007-.02-.082-.035-.203-.035-.208 0-.223.011-.422.277-.266.36-.274.508-.04.508.07 0 .188-.114.376-.356zm1.546-.102c.04-.063.036-.118-.02-.22-.066-.112-.116-.136-.312-.151-.214-.012-.234-.008-.187.074.09.164.351.418.41.398a.274.274 0 0 0 .11-.101zm13.278-.008c.05-.059.043-.106-.031-.235-.079-.136-.125-.164-.301-.175-.114-.008-.207 0-.207.015 0 .016.07.13.152.246.152.23.281.278.387.149zm-12.254-.164c.16-.184.152-.207-.074-.207-.235 0-.332.097-.227.226.074.094.211.086.3-.02zm1.168-.051c.074-.133.023-.156-.313-.156l-.3.004.199.117c.234.148.347.156.414.035zm10.18-.105l.195-.094h-.332c-.184-.004-.332.004-.332.015 0 .188.168.215.469.078zm-19.477-.126c.227-.046.715-.156 1.094-.25.777-.19 1.004-.203 1.62-.09.36.067.43.094.43.173 0 .113-.023.113.282.015l.258-.074-.118-.18a1.572 1.572 0 0 1-.18-.418c-.07-.273.04-.25-1.179-.238-.578.008-.906.04-1.355.129-.57.113-.743.121-4.52.191-2.16.047-3.96.09-4.004.106-.101.043-.14.238-.078.363.137.246.145.246 3.07.254 1.496.004 2.934.023 3.192.043.785.059 1.054.055 1.488-.023zm40.465-.347l.027-.145-1.074-.113c-1.77-.187-3.527-.355-3.543-.344-.059.059-.129.489-.09.528.04.043.836.093 2.633.18.367.015.953.046 1.305.066.351.015.656.02.675.004.024-.016.051-.094.067-.176zm-29.512-.121l7.238-.121c4.118-.07 5.059-.067 14.059.05l2.574.036-.105-.18c-.059-.098-.153-.188-.211-.2-.235-.046-12.637-.488-13.516-.484-1.055.012-13.84.285-15.336.336-.55.016-.988.051-1.023.078-.106.09-.07.2.14.395l.204.195 1.437-.027c.79-.016 2.828-.05 4.54-.078zM3.72 36.648c.011-1.609-.004-2.914-.028-2.906l-.464.207-.43.196v.312c0 .172.023.973.05 1.773l.06 1.461-.485.477-.48.484.14.387c.227.625.129.566.93.547l.695-.016zm5.176-1.921c.003-2.446-.004-4.442-.028-4.434-.02.008-.265.195-.539.41l-.504.399v8.101l.528-.016.53-.011zm2.511 4.398l.11-.027v-2.399c0-1.316.015-2.781.035-3.254l.031-.855.27-.293a2 2 0 0 1 .64-.469c.356-.18.395-.187.871-.187.54 0 .785.074 1.102.34l.156.132v6.696h1.035V27.773l-.11.028c-.066.012-.32.086-.57.156l-.456.137-.012.703c-.008.637-.02.715-.106.777-.148.113-.41.09-.547-.054-.113-.11-.12-.149-.12-.668 0-.543 0-.547-.11-.52l-.535.137-.418.11.023.651c.012.606.008.66-.09.754-.12.125-.378.137-.535.028-.101-.075-.11-.114-.11-.64 0-.419-.019-.563-.062-.563-.03 0-.406.093-.824.21l-.761.211-.016 4.993-.016 4.984.508-.031c.277-.016.559-.04.617-.051zm9.145-.398l1.265-.04-.105-.113c-.102-.105-.145-.113-.848-.125l-.742-.011-.055-.25c-.082-.372-.218-.575-.468-.7-.547-.281-1.04-.043-1.282.63l-.109.296h-.531c-.512 0-.528 0-.66.14l-.141.15.219.019c.39.03 2.176.035 3.457.004zm2.804-.25c.082-.02.086-.41.086-7.286 0-5.777.012-7.261.059-7.257.035 0 4.418.453 9.742 1.003l9.684 1 .219-.136.214-.14-.168-.028c-.171-.031-20.203-2.34-20.293-2.34-.035 0-.05 2.512-.05 7.637v7.636l.21-.03c.114-.016.247-.04.297-.06zm30.063-.063c-.133-.14-.164-.152-.496-.152h-.356l-.03-.16a.563.563 0 0 0-.794-.414.582.582 0 0 0-.265.304l-.11.223h-.36c-.292 0-.374.02-.448.101-.047.051-.079.106-.07.118.015.007.62.039 1.35.066l1.528.05.196.009zM16.934 35.11v-3.035l-.149-.191a8.498 8.498 0 0 0-.176-.215c-.007-.008-.02 1.52-.02 3.398v3.414l.177-.164.168-.168zm32.714.344v-2.96l-.132.027c-.078.015-1.442.253-3.036.523-1.593.27-2.917.504-2.94.52-.032.015-.052.976-.052 2.308v2.281l.114.035c.062.016.394.028.738.028h.629v-3.403l.238-.238c.398-.398.996-.57 1.906-.535.446.012.586.035.782.133.39.191.425.285.425 1.238 0 .445.016 1.29.032 1.88l.03 1.07.352.015c.192.008.477.023.633.031l.281.008V35.45zm-27.734-.27v-3.132l-.176.207-.168.203v5.504l.149.176c.086.093.164.175.176.175.007 0 .02-1.414.02-3.132zm31.871 1v-2.081l-.172.183-.168.188v3.468l.153.164c.09.09.168.157.175.157.008 0 .012-.934.012-2.078zm-3.148-.062V34.47l-.176-.184-.168-.183v4.039l.168-.184.176-.184zM53 37.234v-.289l-.25-.02c-.137-.01-.258-.007-.27.009-.015.007-.023.136-.023.277v.262l.207.02c.117.007.242.019.273.023.043.007.063-.078.063-.282zm-1.438-.144c.016-.281.016-.281-.324-.32l-.207-.024v.578l.207.016c.309.031.309.031.325-.25zm-30.39-.426c0-.473.035-.434-.504-.492l-.285-.027v.882l.164.02c.086.012.265.023.394.027l.23.008zm-2.856-.148c0-.293-.02-.43-.062-.442a3.8 3.8 0 0 0-.418-.047l-.356-.03v.882l.211.02.418.027.207.011zM53 36.176v-.262l-.184-.035c-.359-.055-.359-.055-.359.238 0 .14.02.274.035.293.016.02.137.031.27.031h.242v-.265zm-1.43-.145v-.265l-.183-.032c-.356-.058-.356-.058-.356.23 0 .15.016.282.032.298.015.015.136.031.269.031h.238zm-30.457-.992c-.011-.23-.035-.434-.05-.45-.016-.015-.18-.038-.356-.054l-.328-.027.02.437.011.438.27.031c.152.016.312.031.367.035.086.008.09-.023.066-.41zm31.875.04l-.015-.286-.254-.016-.262-.011v.539l.184.02.277.023c.074.007.086-.024.07-.27zm-34.683-.216l.015-.425-.234-.036a3.693 3.693 0 0 0-.418-.027h-.188v.418c0 .465-.023.445.442.484.39.028.367.051.383-.414zm33.242.051v-.27l-.262-.027-.254-.023v.558l.18.024c.336.035.336.035.336-.262zm1.676-.687c.074-.082.129-.157.12-.168a89.445 89.445 0 0 0-2.89-.305c.05.066.106.129.164.191l.172.188 1.07.113 1.145.121c.039.004.14-.062.219-.14zm-51.09-.59c.969-.407 2.101-.93 2.547-1.172.414-.23 1.5-.985 2.504-1.742 2.851-2.149 5.113-4.528 6.87-7.223.524-.805.614-.883.86-.746.094.055.129.121.14.254.012.16-.046.277-.492.96a26.638 26.638 0 0 1-3.148 3.923c-.355.367-.633.668-.613.668.082 0 4.785-1.293 4.82-1.325.02-.02.027-1.851.024-4.078l-.012-4.043-2.762 1.196-2.758 1.195-.011.41c-.02.48.03.395-.922 1.5-1.575 1.813-3.754 3.742-5.793 5.121-1.192.813-1.489 1.02-1.848 1.317-.363.285-.687.625-.648.664.035.027.363-.137 1.437-.735 3.125-1.73 5.336-3.3 7.145-5.066.41-.399.765-.715.793-.7.03.008.242-.253.464-.585.223-.332.43-.625.461-.64.188-.126.489.05.489.292 0 .172-.438.867-1.024 1.605-.328.415-.367.493-.367.676 0 .242-.148.508-.805 1.5a16.545 16.545 0 0 1-2.46 2.914c-.91.852-2.27 1.871-3.313 2.489-.824.484-2.344 1.507-2.563 1.726-.082.074.125 0 .98-.355zm18.902-.383a5.478 5.478 0 0 0-.027-.438c-.106-.011-.211-.023-.317-.03l-.308-.032v.875l.14.02c.07.011.223.023.332.027l.204.008zm-2.719-.137c0-.476.04-.433-.527-.492l-.309-.031v.886l.184.02c.102.012.29.023.418.027l.234.008zm34.766.133l-.18-.188-1.007-.113-1.012-.117-.172.156c-.098.082-.172.153-.164.157.308.05 2.68.32 2.695.308.012-.012-.062-.101-.16-.203zm.508-1.398v-1.438l-.172.168-.172.164v2.156l.156.196c.09.105.168.191.176.191.008 0 .012-.648.012-1.437zm-8.953.992c.02 0 .039-.371.039-.832 0-.82 0-.836.12-.98.212-.247.528-.247.759 0 .097.1.105.163.105.863 0 .546.016.753.059.753.031 0 .46-.066.96-.156l.903-.156v-.668c0-.766.047-.992.234-1.14.18-.137.465-.106.645.074.125.125.129.148.144.847l.02.719.129-.027c.07-.016.305-.055.516-.086l.378-.063V29.86c0-1.675-.011-2.136-.058-2.132-.04 0-.64.117-1.344.261-1.172.239-1.277.266-1.262.356.012.05.032.476.04.937l.019.848-.285.058a9.315 9.315 0 0 0-.434.083c-.078.011-.16.027-.238.046-.086.024-.09-.023-.074-.93l.02-.952-1.259.25-1.253.253-.02 1.993c-.004 1.093-.004 2.015.012 2.047.015.039.175.027.554-.04.293-.046.551-.093.57-.093zm5.996-1.301v-1.035l-.172-.2-.164-.195-.004 1.403v1.398l.168-.168.176-.164v-1.039zm1.55.684c-.097-.141-.218-.22-.363-.22-.082 0-.101-.03-.101-.144a.485.485 0 0 0-.145-.308l-.148-.164-.004.425v.43l.336.047c.543.078.52.082.426-.066zm-30.675-.223c.105-.129.11-.145.023-.145-.047 0-1.066-.097-2.254-.218-.757-.082-1.52-.157-2.277-.223-.14 0-.137.039.008.207l.117.133 2.086.215c1.148.117 2.105.207 2.137.199a.817.817 0 0 0 .16-.168zm31.062-.734c-.039-.036-.672-.145-.828-.145-.062 0-.058.023.035.145a.484.484 0 0 0 .309.187c.191.035.2.047.215.234a.522.522 0 0 0 .148.332l.133.141.016-.43c.007-.238-.004-.449-.028-.464zm-31.101-.172c0-.094-.164-.325-.235-.325-.047 0-.96-.082-2.03-.191l-1.946-.195-.11.133a1.014 1.014 0 0 0-.113.164c0 .027 3.856.425 4.227.433.113.004.207-.004.207-.02zm.441-1.758v-1.79l-.172.196-.168.2v2.597l.153.289c.086.156.164.29.172.29.011 0 .015-.802.015-1.782zm-5.125 1.12l.149-.218v-2.699l-.168-.242-.176-.242v1.808c0 .996.012 1.809.023 1.809.012 0 .09-.094.172-.219zm36.29.024c.077-.082.132-.16.116-.168-.027-.027-2.52-.332-2.539-.312-.007.008.07.101.176.203l.192.188.878.109c.485.062.914.117.954.121.046.004.14-.063.218-.14zm-32.235-1.27c.015-.48.012-.89-.004-.905-.04-.043-.945-.204-.977-.176a.633.633 0 0 0-.047.168l-.027.148.754.121-.031.762-.04.758h.348zm-2.242-.132c.007-.512-.004-.95-.024-.969-.039-.043-.949-.207-.976-.18a.521.521 0 0 0-.051.169l-.027.148.746.121v1.672l.16-.016.16-.011zm34.597.375a.826.826 0 0 0-.187-.215c-.13-.105-.25-.133-1.156-.234l-1.02-.113-.176.136c-.097.07-.168.14-.148.157.012.011.617.097 1.344.187l1.359.168c.02.004.016-.04-.016-.086zm.375-2.758c-.011-.012-.093.031-.175.086l-.149.11v2.132l.156.164.164.164.012-1.316c.008-.723.004-1.324-.008-1.34zm-2.937.926v-.969l-.172-.191-.168-.195v1.328l-.004 1.328.344-.336zm-6.621.691c.27-.054.535-.109.597-.125.114-.027.114-.035.114-.886 0-1.133.07-1.301.511-1.301.125 0 .223.039.336.14l.164.141.012.844c.016.766.024.848.102.82.043-.012.437-.094.875-.176l.797-.16.02-.875c.015-.797.023-.894.116-1.015.16-.215.332-.285.543-.211.313.101.364.254.364 1.117 0 .621.015.75.074.75.058 0 .601-.102.898-.172l.113-.027-.011-2.418-.012-2.426-1.168-.29c-.11-.03-.152-.007-.23.106l-.098.137.453 1.008c.398.871.445 1.004.367 1.02-.05.011-.09.035-.09.05 0 .024-.359-.012-.8-.074a87.2 87.2 0 0 0-1.457-.191c-.36-.04-.676-.082-.704-.102a5.145 5.145 0 0 0-.62-.047c-.383-.015-.598-.043-.653-.09a.66.66 0 0 0-.258-.093l-.183-.028.136.281.145.278-.223.574c-.21.54-.234.578-.41.66-.16.074-.195.117-.246.313-.055.218-.129 2.566-.082 2.566.016 0 .246-.047.508-.098zm8.152.004c-.066-.125-.246-.254-.36-.254-.054 0-.09-.035-.09-.109 0-.059-.062-.184-.144-.281l-.148-.172v.805l.305.043c.492.078.496.078.437-.032zm.434-.754l-.016-.261-1.008-.153.114.149a.53.53 0 0 0 .308.195l.25.063c.04.007.063.101.063.222 0 .16.03.242.136.352l.137.14.016-.226c.007-.156.007-.32 0-.48zm-31.13-.015c.063-.067.106-.133.095-.14-.024-.028-4.68-.583-4.7-.563-.008.007.043.093.121.187l.137.168 1.89.227c2.302.285 2.305.285 2.458.12zm.247-1.156v-.34l-.16-.028c-.09-.011-1.172-.148-2.403-.297-1.23-.148-2.289-.28-2.351-.289-.106-.015-.113-.003-.113.332v.356l2.457.3c1.343.165 2.472.301 2.511.305.04.004.059-.093.059-.34zm31.45.148c.128-.098.17-.156.124-.168-.137-.043-2.715-.43-2.758-.414-.027.008.024.102.114.2l.16.187 1.035.168c.57.086 1.058.164 1.086.168.027 0 .133-.063.238-.141zm.046-.95l-.211-.21-.996-.113a23.987 23.987 0 0 1-1.074-.137c-.078-.02-.328.262-.278.308.02.02 2.32.325 2.692.356.035.004-.024-.086-.133-.203zm-31.113-.714l-.012-.676-.137-.015c-.12-.016-.137 0-.137.125 0 .25-.097.328-.367.296a.555.555 0 0 1-.41-.207c-.21-.226-.305-.172-.305.172 0 .125-.039.317-.078.418-.101.238-.058.465.094.465.055 0 .152.02.219.035.101.028.11.012.11-.199 0-.25.007-.254.355-.195.18.027.183.03.183.242v.215h.496zm31.492-.758v-1.34l-.172.164-.172.168v2.02l.156.164c.086.09.164.16.172.16.008 0 .016-.598.016-1.336zm-33.477 1.16c.043-.047.114-.148.157-.23.07-.137.066-.168-.024-.426a6.428 6.428 0 0 1-.148-.465l-.051-.191.355.02c.313.011.356.003.368-.071.02-.098-.141-.305-.31-.39-.183-.102-1.136-.29-1.917-.383-.695-.082-.805-.086-.926-.02-.183.094-.27.234-.336.55-.078.36-.195.473-.453.43l-.2-.03.024.44c.008.243.028.458.047.477.031.031 1.176.188 1.2.156a.792.792 0 0 0 .038-.168c.028-.144.02-.16-.101-.171-.106-.012-.133-.04-.133-.137 0-.098.031-.125.16-.156.32-.063.336-.243.04-.368-.2-.082-.212-.117-.083-.234.067-.062.157-.082.328-.07l.239.011-.016.649c-.016.742-.043.707.524.707.308 0 .308 0 .308-.14 0-.102-.027-.153-.098-.169-.132-.035-.132-.23-.003-.23.054 0 .125-.05.16-.11.047-.09.039-.117-.032-.164-.23-.132-.285-.203-.25-.312.028-.098.07-.106.372-.106h.332l.035.665c.031.554.05.664.117.683.156.035.2.027.277-.047zm30.371-.242l.153-.215v-1.86l-.176-.167-.168-.168v1.316c0 .723.008 1.313.023 1.313.008 0 .09-.094.168-.215zm-7.707-.168c.016-.031-.129-.36-.316-.734-.344-.684-.344-.688-.531-.711a.868.868 0 0 0-.203-.008c-.008.004.156.344.359.754.352.707.379.742.52.742.074 0 .152-.02.167-.043zm-1.437-.207c.058-.035.117-.062.12-.066a24.574 24.574 0 0 0-.608-1.297c-.024-.035-.414-.07-.414-.043 0 .074.718 1.46.753 1.46a.611.611 0 0 0 .149-.054zm2.422 0c.07-.035.125-.074.12-.09 0-.012-.105-.226-.23-.472-.215-.41-.25-.446-.422-.485-.101-.02-.195-.031-.21-.015-.04.035.515 1.117.57 1.117a.874.874 0 0 0 .172-.055zm8.5-.043c0-.078-.301-.293-.426-.293-.09 0-.117-.031-.117-.125 0-.066-.063-.2-.145-.281l-.148-.164-.004.402v.399l.36.046.417.06c.035.003.063-.013.063-.044zm-12.047-.066c.086-.063.074-.106-.27-.754-.199-.375-.36-.688-.363-.688-.074-.02-.148-.031-.219-.047l-.215-.03.403.792c.414.817.469.871.664.727zm-1.332-.11c.039-.02.078-.062.078-.101 0-.04-.156-.38-.344-.754l-.344-.684-.199-.015a.677.677 0 0 0-.199-.008c0 .015.684 1.406.738 1.504.055.09.137.105.27.058zm13.726-.441c0-.227-.02-.426-.043-.438-.05-.03-.96-.175-.98-.156-.008.008.043.078.121.164.098.106.23.172.375.184l.23.035v.2c0 .19.141.429.254.429.024 0 .043-.184.043-.414zm-14.879.27c.094-.047.079-.094-.273-.786l-.371-.734-.2-.031a.666.666 0 0 0-.214-.016c-.047.043.824 1.621.89 1.621a.605.605 0 0 0 .168-.055zm-1.394-.16c.105-.06.105-.067-.285-.805l-.395-.747-.199-.035a.66.66 0 0 0-.215-.02c-.031.04.871 1.669.926 1.669a.475.475 0 0 0 .168-.063zm-1.25-.141c.055-.032.113-.059.117-.063.008-.008-.172-.355-.398-.773l-.414-.758-.203-.027c-.114-.02-.204-.02-.204-.004 0 .07.903 1.683.942 1.683a.465.465 0 0 0 .16-.058zm12.656-.707c-.328-.657-.332-.664-.531-.703a.77.77 0 0 0-.211-.036c-.027.02.64 1.328.7 1.364.03.023.124.039.214.039h.16zm-26.004.37c.106-.23.14-.241.219-.073.066.152.121.156.25.011.133-.14.125-.312-.016-.453-.148-.148-.414-.223-.8-.223-.317 0-.457.086-.532.325-.027.093-.007.105.2.129.25.027.347.113.398.343.04.203.176.172.281-.062zm12.04.153c.077-.047-.626-1.555-.755-1.598-.125-.05-.32-.039-.32.016 0 .027.176.406.39.836.34.672.415.789.509.789a.355.355 0 0 0 .175-.043zm12.812-.684c-.195-.37-.383-.695-.41-.714-.075-.055-.348-.02-.336.035.027.152.68 1.308.75 1.324.039.012.136.023.215.027l.136.004zm-14.055.56c.012-.036-.148-.427-.367-.86-.387-.766-.402-.793-.574-.825-.098-.015-.188-.02-.2-.007-.015.011.16.402.387.863.399.828.426.867.664.89.035.004.075-.023.09-.062zm-15.664-.263c.07-.132.2-.304.274-.39.171-.18.164-.29-.02-.426-.164-.121-.813-.152-.945-.043-.114.098-.102.242.035.367.066.063.187.246.273.418.086.172.176.309.203.309.024 0 .106-.106.18-.235zm28.492-.445c-.195-.371-.375-.7-.41-.734a.692.692 0 0 0-.246-.09l-.191-.031.351.683c.2.371.38.703.406.738.028.032.122.063.204.079l.199.027c.02.004-.117-.297-.313-.672zm-14.023.598c.039-.04-.793-1.692-.867-1.715a1.866 1.866 0 0 0-.223-.047l-.156-.027.441.879c.281.562.469.894.527.906.137.035.243.035.278.004zm12.734-.797c-.191-.367-.39-.711-.445-.762-.086-.074-.383-.121-.383-.062 0 .011.168.343.371.734.38.73.395.746.696.766.093.003.07-.067-.239-.676zm-14.035.594c0-.02-.191-.415-.43-.872l-.43-.84-.183-.015c-.101-.012-.187 0-.187.012 0 .015.195.418.43.89l.433.864h.183c.102 0 .184-.02.184-.04zm12.809-.832c-.196-.375-.391-.711-.43-.743-.074-.062-.352-.09-.352-.035 0 .012.164.352.368.758l.367.734.183.016c.102.008.192 0 .2-.016.007-.015-.141-.336-.336-.714zm-14.086.699c0-.016-.196-.414-.43-.887l-.426-.86-.191-.03a.752.752 0 0 0-.207-.016c-.012.012.187.422.433.914l.45.898h.187c.102 0 .184-.008.184-.02zm-1.727-1.02c-.25-.496-.453-.906-.46-.91-.071-.016-.145-.027-.216-.039l-.207-.027.934 1.867.184.012c.105.007.19.011.199.007.011 0-.184-.41-.434-.91zm14.88.867c0-.05-.735-1.492-.774-1.515a1.188 1.188 0 0 0-.223-.063l-.191-.031.398.79c.402.808.414.816.703.843.05 0 .086-.008.086-.024zm-15.665-.093c0-.067-.906-1.828-.953-1.86-.074-.05-.39-.05-.371 0l.472.934c.438.86.461.89.614.91.09.016.18.027.199.031.023.004.039-.004.039-.015zm14.387-.102c0-.027-.739-1.512-.77-1.543a1.276 1.276 0 0 0-.219-.047l-.203-.023.395.789c.219.437.426.8.46.816.083.035.337.04.337.008zm12.484-.121l.137-.145-.168-.027c-.64-.11-2.719-.418-2.73-.406-.012.012.07.105.18.207l.194.191.973.157c1.242.203 1.242.203 1.414.023zM24.5 21.855c-.457-.898-.473-.918-.645-.949-.097-.023-.187-.027-.199-.011-.011.011.188.44.446.96l.472.938.18.016c.105.007.195.003.2-.012.007-.012-.2-.434-.454-.942zm14.484.055c-.351-.695-.441-.84-.53-.84-.079 0-.153-.011-.224-.027-.105-.027-.074.059.317.809.465.898.418.843.793.886.039.004-.125-.367-.356-.828zm-1.27-.195l-.405-.836-.188-.031a.703.703 0 0 0-.207-.012c-.012.012.164.39.383.84.406.844.414.847.71.867.098.004.067-.066-.292-.828zm-16.937.539c0-.277-.05-.41-.183-.465a31.093 31.093 0 0 0-1.489-.246c-.773-.121-1.699-.266-2.062-.32-.785-.133-.797-.125-.797.316v.305l2.18.324c1.199.18 2.219.324 2.265.328.07.004.086-.035.086-.242zm1.184.012c.066-.055.133-.133.14-.18.024-.121-.18-.316-.398-.383-.164-.047-.207-.043-.324.047a.331.331 0 0 0-.145.27c-.035.351.391.492.727.246zm14.535-.645c-.219-.433-.434-.828-.484-.883a.493.493 0 0 0-.27-.125l-.187-.023.425.82c.235.453.45.848.477.88.023.03.117.07.203.081.082.008.172.02.195.024.02.003-.144-.344-.359-.774zm-1.086.496c0-.02-.207-.41-.457-.87-.445-.821-.457-.837-.648-.872-.102-.023-.2-.035-.207-.023-.024.023.816 1.609.91 1.718.074.086.406.125.402.047zm12.488-.101c.079-.094.063-.098-.488-.23l-.57-.141v-2.297l.297-.59c.164-.324.304-.594.32-.594.012 0 .168.29.344.645l.32.64v1.66l.727.102c.394.055.742.09.761.078.02-.016.04-.387.04-.832v-.8l.175-.458.18-.457-.082-.879c-.043-.48-.098-.925-.117-.984-.032-.086-.09.016-.309.555l-.266.66-.027-2.145c-.027-2.511-.031-2.535-.398-2.535h-.215l-1.211 2.711-1.219 2.71-.008 1.61-.261-.03c-.602-.08-.575-.063-.575-.33 0-.183-.105-.51-.433-1.37-.238-.625-.446-1.117-.461-1.098-.02.016-.234.559-.48 1.203l-.454 1.164v1.047l-.133-.023c-.074-.02-4.585-.863-10.027-1.88l-9.89-1.85-.297.226c-.16.125-.293.238-.293.262 0 .02 4.906.87 10.902 1.898 10.559 1.805 12.91 2.215 13.582 2.363.434.094.469.094.566-.011zm5.684-.02c.027-.035.063-.2.07-.36l.012-.288-.664-.032a15.023 15.023 0 0 1-1.453-.16c-.871-.14-1.317-.168-1.395-.07-.058.074-.035.477.035.543.047.05 2.7.414 3.114.426.136.004.25-.02.281-.063zm-19.684-.516c-.683-1.277-.671-1.265-.867-1.312-.101-.027-.195-.035-.21-.02-.016.02.187.434.449.918.41.754.503.895.609.91.32.047.32.067.02-.496zm-1.449-.566a47.775 47.775 0 0 0-.465-.918c-.023-.023-.414-.094-.414-.074 0 .094.926 1.844.98 1.86.044.007.141.019.212.023l.136.008zm-1.332-.242c-.148-.3-.297-.606-.453-.91-.074-.016-.144-.032-.219-.043l-.21-.035.437.878c.242.489.445.915.46.946.024.074.4.16.427.101.007-.02-.188-.441-.434-.937zm-1.262-.164l-.476-.957-.2-.047a.976.976 0 0 0-.21-.027c-.012.003.199.441.46.972.509 1.012.485.985.821 1.012.066.004-.023-.211-.395-.953zm-1.351-.211c-.168-.328-.34-.664-.516-.992-.015-.02-.312.097-.312.129 0 .007.195.414.441.898.445.895.469.922.754.934.133.004.129-.004-.367-.97zM20.53 19.3v-1.918l-.183-.051c-.371-.082-.746-.168-1.121-.25-.344-.074-.684-.145-1.02-.227-.082-.023-.09.094-.09 1.973v1.992l.16.032c.512.093 2.094.359 2.168.363.082.008.086-.113.086-1.914zm1.469.285L21.984 18l-.355-.082c-.192-.043-.367-.07-.379-.059-.016.02-.031.746-.031 1.618v1.59l.308.046c.172.028.352.047.395.051.086.008.09-.09.078-1.578zm5.676 1.457c0-.035-.938-1.848-.996-1.922-.032-.043-.086-.047-.192-.012-.078.032-.14.063-.14.075 0 .062.902 1.824.953 1.851.07.043.375.05.375.008zm-15.707-.91c.074-.04.094-.098.082-.258-.016-.254.027-.328.18-.328.124 0 .218.125.218.289 0 .09.028.086.387-.066l.383-.168.023-.48c.024-.47.028-.485.145-.5.175-.032.25.108.25.468 0 .36-.028.355.472.133l.274-.121-.016-.5c-.012-.5-.008-.508.117-.579.102-.062.153-.062.254-.015.121.055.125.078.125.453 0 .219.024.394.047.394.024 0 .195-.062.383-.14l.34-.149.012-1.48c.007-1.035-.004-1.48-.04-1.48-.035 0-.043.042-.027.101.035.09-.23.23-2.73 1.465l-2.758 1.363v2.43l.887-.387c.492-.219.937-.414.992-.445zm41.3.73l.067-.308c.027-.157.07-.215.219-.297.101-.051.183-.121.183-.149 0-.097-.215-.144-.55-.129l-.325.016-.031.442c-.02.246-.02.464-.004.492.016.023.117.043.223.043.16 0 .199-.016.219-.11zm-27.351-.91c-.262-.535-.492-1-.52-1.031-.058-.074-.23-.082-.328-.024-.047.036.047.258.418 1 .512 1.004.5.985.844 1.024.027.004-.156-.434-.414-.969zm26.023.59c.032-.14.114-.39.192-.55.07-.165.117-.321.101-.345-.015-.03-.207-.054-.422-.054-.457 0-.433-.051-.308.691.07.426.094.488.184.512.175.031.195.012.253-.254zm-26.843.121c-.176-.348-.356-.695-.535-1.043-.426-.82-.524-.988-.622-1-.27-.039-.246.059.262 1.07.5 1.012.504 1.016.805 1.032.078.004.11-.016.09-.059zm-1.778-1.152c-.293-.563-.547-1.04-.566-1.055a.353.353 0 0 0-.14-.062c-.102-.036-.11-.024-.11.144 0 .125.125.426.46 1.07l.462.899.187.027c.106.012.203.02.211.012.016-.004-.219-.469-.504-1.035zm27.34.347c.211-.257.215-.34.012-.46-.379-.235-.563-.02-.54.628l.016.403.157.047.156.039.016-.227c.011-.168.058-.273.183-.43zm-33.34-1.308l-.015-1.586-.367-.086a4.265 4.265 0 0 0-.375-.078c-.004.008-.016.73-.032 1.613l-.015 1.598.32.058c.18.032.36.059.406.063.082.004.086-.094.078-1.582zm36.2.71c-.16-.433-.293-.75-.325-.75-.015 0-.082.16-.144.356-.063.2-.125.387-.137.422-.016.047.059.063.309.063.289 0 .324-.012.297-.09zm-.766-1.03c.281-.801.367-1.114.39-1.419.02-.218.028-.398.02-.414-.035-.046-.164.051-.164.125 0 .07-.723 1.418-.855 1.582-.032.043-.098-.007-.243-.21l-.195-.278-.215.211c-.117.113-.226.2-.238.188a71.233 71.233 0 0 1-.867-1.727l-.832-1.691-.004.402v.406l.883 1.762c.73 1.469.875 1.789.855 1.922l-.023.164h1.132zm-41.68-1.383v-.63l.27-.136c.258-.125.27-.125.27-.031 0 .058.054.12.116.156.13.055.18.23.18.613v.207l.188-.07c.097-.047.773-.367 1.5-.723l1.316-.644v-3.95l.461-1.382.465-1.375.101.219.625 1.43c.29.66.551 1.253.582 1.316l.059.113.137-.113.14-.11-.55-1.254-.645-1.468c-.09-.204-.09-.22-.008-.18.266.105.246.187.282-1.242.015-.727.035-1.43.046-1.555.016-.23.012-.234-.242-.43-.152-.113-.277-.18-.293-.152-.02.031-.515 1.344-1.11 2.918l-1.073 2.871-.246.016c-.176.008-.258.035-.282.097-.02.043-.152.426-.3.84l-.266.754v2.152l-.317.27-.03-.34c-.016-.226-.212-.973-.563-2.2-.297-1.023-.551-1.862-.567-1.858-.015 0-.297.894-.633 1.98l-.601 1.984v1.516l.004 1.516.98-.496v-.63zm12.059.246l.156-.121v-3.82l-.766-1.645c-.421-.899-.789-1.66-.812-1.688-.027-.027-.043.04-.043.168 0 .16.148.598.586 1.7l.594 1.48v2.059c0 1.636.011 2.054.062 2.027.035-.024.133-.094.223-.16zm-1.176-.285c.168-.145.23-.313.273-.762.028-.309-.039-1.367-.12-1.793l-.036-.2-.062.133-.07.141-.083-.148a.82.82 0 0 0-.222-.227c-.106-.074-.153-.078-.317-.027-.363.11-.383.144-.445.96l-.055.731.164.172c.16.164.16.172.07.238-.214.157-.425.075-.8-.308-.195-.2-.313-.246-.477-.184-.062.024-.062.047-.004.16.086.172.086.508 0 .63-.07.093-.035.105.922.347.547.14 1.02.254 1.055.262.031.003.125-.055.207-.125zm-3.77-1.032a.498.498 0 0 1 .18-.34l.14-.12.048-.95.035-.96c-.133.05-.262.109-.39.167l-.384.176.012.645.016.64-.157.04a.586.586 0 0 0-.25.16l-.093.12-.082-.18c-.043-.1-.106-.402-.13-.671a6.006 6.006 0 0 0-.07-.524.637.637 0 0 0-.175-.093l-.149-.047v.363c0 .203-.008.367-.02.367-.007 0-.124-.047-.257-.105a2.161 2.161 0 0 0-.387-.137c-.16-.035-.21-.14-.219-.484-.003-.184-.015-.207-.12-.207-.11 0-.118.023-.172.433-.079.594-.075 1.02.015 1.184.07.137.14.16 1.242.441.645.16 1.211.301 1.254.301.059.004.09-.055.113-.219zm.211-3.086l.485-.648.074-.445.07-.438.758 1.043.754 1.04.137-.098c.094-.067.137-.13.117-.192-.012-.05.098-.535.25-1.07.246-.906.27-1.035.297-1.66.015-.368.02-.676.012-.676-.012 0-.325.515-.7 1.14l-.683 1.141-.102-.125a8.27 8.27 0 0 1-.351-.473l-.246-.355-.946.68c-.93.664-.945.68-1.02.925-.042.133-.09.325-.105.418l-.027.18.312.125c.121.05.246.098.371.133.032.004.278-.29.543-.645zm3.559.422c.023-.02-.344-1.36-.387-1.414-.02-.02-.11.281-.199.668-.09.383-.176.735-.187.77-.02.054.046.058.367.027.21-.02.39-.039.406-.05zm-5.445-.172c.187-.222.172-.398-.063-.558-.187-.13-.195-.149-.293-.656a4.486 4.486 0 0 0-.21-.778l-.11-.242-.188.586c-.164.52-.187.66-.195 1.125-.004.297.012.559.035.582.024.02.176.047.34.055l.426.03c.094.009.168-.038.258-.144zm1.851-1.851c0-.059-1.383-4.024-1.414-4.05-.015-.017-.015.226 0 .538.031.61-.023.43 1.059 3.535l.07.207.145-.101c.074-.059.14-.114.14-.13zm0 0"/></svg>