<svg xmlns="http://www.w3.org/2000/svg" width="64pt" height="64pt" viewBox="0 0 64 64"><path d="M30.207 64.352c-6.203-.372-12.332-2.625-17.3-6.36-2.325-1.746-4.747-4.168-6.489-6.492A31.998 31.998 0 0 1 .984 40.117a32.379 32.379 0 0 1 .422-17.367 32.403 32.403 0 0 1 5.008-9.848c1.73-2.304 4.172-4.746 6.492-6.488 8.172-6.14 18.89-8.008 28.754-5.012a32.48 32.48 0 0 1 9.817 4.98c2.308 1.735 4.789 4.216 6.52 6.52 5.812 7.746 7.812 17.739 5.433 27.211-1.942 7.719-6.739 14.485-13.446 18.95-5.78 3.851-12.742 5.714-19.777 5.289zm18.422-7.446l.394-.039v-.355c0-.336-.007-.352-.113-.254-.27.242-.426.215-1.387-.266-1.367-.683-2.046-.77-2.043-.254 0 .453.305.739 1.028.953.687.207 1.41.282 2.125.215zm-31.621-.383c.398-.128.699-.46.699-.77 0-.12-.016-.222-.039-.222-.02 0-.156.07-.3.157-.673.382-1.872.55-2.4.332l-.226-.094v.285c0 .32-.012.316.707.414.52.07 1.16.027 1.559-.102zm14.105-6.535v-4.96h-6.511v9.859h-.903v-9.86h-2.613c-2.457 0-2.613.004-2.578.11.015.066.047.215.07.343.04.223.027.235-.277.407a1.29 1.29 0 0 1-.621.172c-.285 0-.305.011-.395.222a2.65 2.65 0 0 0-.137.598c-.03.328-.02.387.11.5.152.137.578.16 1.164.07.281-.05.308-.043.52.172.253.254.507.738.507.98 0 .087-.078.32-.176.516-.238.48-.347.524-1.484.504l-.918-.012v2.97l.223.273c.3.367.582 1.066.77 1.921l.038.18h13.211zm7.473 0v-4.96h-6.574v9.925h6.574zm7.473 4.43a3.76 3.76 0 0 1 .433-.938l.278-.398v-2.965l-.852.016c-1.117.02-1.27-.031-1.496-.504-.258-.555-.203-.918.223-1.406.296-.336.425-.371.886-.246.324.086.434.09.657.023.378-.113.43-.29.28-.91l-.116-.485-.368-.039a1.847 1.847 0 0 1-.652-.207l-.289-.172.121-.496c.05-.191.09-.386.125-.582 0-.066-.621-.082-2.898-.082h-2.903v9.926h6.41zm-29.93-7.219c.004-.472.101-.761.355-1.047.098-.105.106-.18.063-.418-.262-1.375-.774-5.203-.93-6.925-.055-.567-.137-1.133-.18-1.262-.082-.219-.085-.211-.124.36-.067.94-.063 4.363.011 5.48.09 1.37.235 2.511.418 3.215.13.507.324 1.07.371 1.07.008 0 .016-.211.016-.473zm32.055-1.562c.28-1.922.796-7.121.714-7.207-.086-.086-.23.246-.476 1.093-.336 1.122-1.59 6.211-1.59 6.426 0 .043.137.149.293.23.383.204.594.462.688.833l.082.3.074-.382c.047-.215.144-.793.215-1.29zM23.695 39.84v-4.348H16.86l.047 2.863.657 2.805.695 2.918c.031.102.219.11 2.738.11h2.7zm7.418 0v-4.348h-6.511v8.696h6.511zm7.473 0v-4.348h-6.574v8.696h6.574zm6.918 4.3a98.11 98.11 0 0 0 .633-2.593L46.738 39l.02-1.75.02-1.758h-7.29v8.696h2.992c1.645 0 3.008-.024 3.024-.047zM23.695 28.98v-4.382h-2.187v.468c-.004.72-.121 2.504-.23 3.399-.243 2.015-.735 3.586-1.395 4.453-.117.156-.242.32-.266.367-.039.059.38.074 2.016.074h2.062zm6.266 4.188c-.023-.156 0-.203.144-.254.192-.074.196-.102.075-.324-.164-.281-.11-.285.187-.008.227.207.34.262.516.262h.23v-8.246h-6.511v8.761h5.39zm8.625-4.188v-4.382h-6.574v8.187h.32c.29 0 .355.028.645.29l.332.284h5.277zm4.992 4.11c-.871-1.41-1.371-3.832-1.488-7.25l-.047-1.242h-2.555v8.761h4.262zM16.98 32.94c1.47-.343 2.528-1.605 3.04-3.605.312-1.23.355-1.703.355-3.805.008-1.949-.047-2.808-.156-2.699-.032.035-.106.406-.164.832-.414 3.04-.84 4.777-1.547 6.27-.606 1.285-1.242 2.007-2.153 2.457-.488.242-.52.28-.421.566.035.11.546.102 1.046-.016zm30.18.036c.16 0 .32-.172.32-.348 0-.113-.113-.207-.554-.45-.989-.55-1.594-1.261-2.074-2.425-.196-.48-.332-.89-1.145-3.438-.156-.507-.324-1.011-.492-1.515l-.067-.172-.058.156c-.074.195.035 1.574.203 2.586.488 2.852 1.422 4.824 2.578 5.414.32.164.734.254.988.219.102-.016.235-.027.301-.027zm.918-1.618c.152-.21-.004-.609-.437-1.129-1.262-1.52-2.32-5.296-2.993-10.656l-.175-1.422c-.086-.636-.13 1.961-.075 4.032.094 3.457.508 5.687 1.375 7.378.461.883 1 1.461 1.672 1.778.399.187.512.191.633.02zm-31.71-.699c.69-.433 1.105-1.117 1.6-2.644.778-2.38 1.47-6.864 1.583-10.215.031-1.016.027-1.09-.07-.965-.13.156-.118.105-.36 1.77-.77 5.406-1.828 10.039-2.383 10.453a1.144 1.144 0 0 1-.41.156c-.2.035-.27.02-.34-.074-.175-.246-.062-1.774.219-2.953.16-.665.176-.829.176-2.106 0-1.187-.02-1.488-.145-2.125-.172-.867-.43-1.812-.578-2.09-.105-.215-.332-.488-.406-.488-.024 0-.031.195-.02.433.024.391.215 10.536.215 11.32v.317l.246-.262c.13-.136.434-.375.672-.527zm31.902-6.805c-.008-2.726-.028-5.226-.051-5.55l-.043-.594-.348-.262c-.496-.375-.516-.379-.805-.094l-.253.247v.8c0 .903.058 1.192.488 2.336.156.426.285.856.285.957 0 .102-.07.489-.164.852-.188.77-.293 1.98-.215 2.527.023.211.106.528.176.703.18.45.289.926.488 2.059.094.523.2 1.031.238 1.129l.07.18.071-.165c.05-.117.066-1.609.063-5.12zm-24.575-3.578c0-2.996-.008-3.43-.097-3.52-.07-.073-.086-.179-.063-.398.031-.254.024-.277-.039-.152-.113.219-.496.293-1.258.25l-.648-.039-.04.395c-.027.214-.046 1.855-.046 3.636v3.25h2.191zM31.113 20v-3.703l-.226-.04c-.125-.019-.375-.14-.559-.265-.312-.215-.34-.222-.402-.113-.07.105-.149.203-.242.293-.16.16-.22.18-.625.18-.508 0-1.403-.153-1.532-.266-.07-.055-.175.004-.476.273-.48.426-.742.575-1.02.575-.312 0-.445-.098-.625-.457-.09-.18-.176-.32-.191-.32a2.73 2.73 0 0 0-.32.198l-.293.2v7.144h6.511zm7.465.105c0-1.976-.02-3.558-.035-3.515-.05.125-.172.101-.633-.121-.5-.239-.605-.38-.457-.61.102-.148.098-.156-.074-.222a2.666 2.666 0 0 0-.52-.106c-.328-.035-.351-.027-.554.192-.23.25-.496.347-1.137.41l-.418.039-.145-.3c-.12-.25-.171-.294-.332-.294-.105 0-.265.027-.359.063-.144.058-.156.078-.082.191.102.168.02.309-.281.488-.18.106-.332.13-.875.13h-.664v7.25h6.574zm3.445.485c-.007-2.938-.07-4.348-.218-4.73-.051-.141-.242-.282-.371-.282-.04 0-.106.16-.149.36-.12.535-.23.64-.652.628a1.795 1.795 0 0 1-1.035-.394c-.106-.094-.11.086-.11 3.715v3.812h2.543zm-24.765-4.516c.117-.195.125-.328.125-2.082 0-1.031-.016-2.441-.043-3.133l-.04-1.261-.222.132a.9.9 0 0 0-.308.332c-.184.45-.438 2.325-.614 4.504l-.07.887.168.281c.336.579.766.727 1.004.34zm29.187.098c.133-.11.14-.168.164-1.527.036-1.54-.027-2.258-.328-3.805-.187-.953-.242-1.13-.386-1.13-.165 0-.172.161-.067 1.114.234 2.125.195 3.102-.183 4.27-.243.77-.23.844.175 1.035.407.187.442.191.625.043zm-20.093-.707c-.043-.274-.106-1.473-.145-2.66-.039-1.184-.09-2.344-.125-2.567-.094-.668-.332-.886-.629-.574-.125.137-.14.293-.265 2.5-.075 1.29-.149 2.531-.168 2.75-.036.402-.032.406.128.406.254 0 .555.145.895.442.176.152.328.258.344.242.02-.024 0-.262-.035-.54zm6.664.258c.093-.168.246-.403.332-.52l.164-.215.148.145c.086.078.16.129.16.105 0-.058-.965-6.039-1.008-6.246l-.03-.168-.266.106-.266.101.047 1.32c.023.731.086 1.762.133 2.294.101 1.062.37 3.382.394 3.382.008 0 .094-.132.192-.304zm7.054-.993c.114-1.246.055-3.078-.129-3.761-.21-.801-.464-1.27-.843-1.54-.172-.128-.32-.206-.32-.183 0 .027.077.277.167.559.442 1.383.465 3.68.055 5.058-.055.184-.082.367-.047.399.027.027.254.164.504.3.383.223.453.247.488.153.024-.059.078-.5.125-.985zm-17.21.938c.144-.023.273-.059.288-.086.016-.031-.07-1.168-.191-2.527-.36-4.02-.383-4.192-.582-4.27-.152-.055-.285.027-.336.207-.062.23-.062 6.52 0 6.668.043.098.094.113.305.082zm-2.778-.05c.055-.063.063-.731.04-2.43-.044-2.864-.063-3.106-.247-3.317-.129-.148-.152-.156-.266-.07-.113.082-.132.203-.175 1.047a62.672 62.672 0 0 1-.176 2.343c-.156 1.606-.176 2.426-.055 2.47.18.073.809.046.879-.044zm9.16-.157c.004-.344-.52-5.074-.586-5.316a.943.943 0 0 0-.199-.375c-.105-.106-.14-.114-.227-.047-.09.074-.097.21-.058 1.004.062 1.27.05 2.914-.027 3.53-.102.817-.098 1.056.015 1.173.113.11.453.191.836.203.223.008.246-.004.246-.172zm14.059.012c.097-.09.105-.125.023-.274-.187-.37-.347-1.379-.55-3.566-.067-.735-.153-1.395-.188-1.461-.078-.149-.297-.117-.36.043-.093.238-.163 1.965-.148 3.492.02 1.527.027 1.645.137 1.668.074.012.129-.027.152-.117.047-.18.11-.168.453.094.34.261.328.257.48.12zm-6.934-.328l.328-.172.043-.809c.024-.445.07-1.289.114-1.871.097-1.504.015-2.195-.266-2.195-.176 0-.23.175-.281.87-.02.317-.168 1.38-.328 2.352-.16.973-.293 1.82-.293 1.887 0 .172.293.14.683-.062zm12.828-7.036c.18-.113.207-.171.25-.515.024-.211.024-.418.004-.453-.031-.047-.465-.07-1.207-.07-1.078 0-1.16.007-1.078.105.047.058.106.273.121.469.031.355.035.363.246.382.27.024.36-.047.457-.375.09-.316.14-.347.461-.289.301.051.403.196.41.59.004.313.043.332.336.156zm-2.925-.238c.12-.039.132-.164.074-.559L46.3 7.07h-.95l.067.164c.031.09.059.243.059.336 0 .094.054.223.117.29.105.12.289.124.676.011zm-7.641-.094c.14-.054.168-.113.246-.496l.04-.21h-1.5l.038.171c.027.09.063.254.082.356.02.109.098.218.176.25.14.058.68.02.918-.07zM20.633 7.7c.015-.078.047-.25.07-.386l.04-.243h-.782v.242c0 .274.043.352.227.458.218.12.414.09.445-.07zm23.746-.187c.16-.465.23-.446-1.332-.426l-1.399.016v.293c0 .25.02.293.141.308a.494.494 0 0 0 .316-.11c.11-.09.22-.12.317-.097.11.027.156.004.187-.09.055-.187.207-.218.59-.133.227.047.43.153.614.317.324.277.449.258.566-.078zM22.32 7.57c.14-.277.196-.304.575-.304.39 0 .464.043.492.289.023.187.027.191.37.175.196-.007.368-.035.395-.062.024-.027.028-.172.016-.32l-.031-.278h-1.121c-1.086 0-1.121.004-1.121.133 0 .18.171.578.25.578.039 0 .117-.093.175-.21zm7.953.114c.223-.114.23-.16.09-.426l-.097-.192-.625.02-.621.016-.055.246c-.098.398-.059.433.566.433.371 0 .617-.035.742-.097zm10.567-.059c0-.082-.016-.242-.04-.355l-.042-.204-.426.016-.426.02v.257c0 .313.164.418.63.422.28 0 .304-.011.304-.156zm-15.106-.113c.563-.356.551-.442-.07-.442h-.48v.282c0 .437.074.46.546.16zm2.047.09c.02-.063.051-.207.074-.32l.043-.212h-.605l.043.242c.02.114.059.223.113.32.098.118.293.098.336-.03zm-13.25-.008c.059-.032.074-.114.047-.215-.027-.121-.008-.188.078-.238.102-.063.09-.07-.074-.055-.18.016-.195.035-.215.293-.02.27.012.316.168.215zm1.2-.09c.019-.078.039-.207.039-.29 0-.124-.032-.144-.262-.144-.215 0-.254.016-.195.09.042.047.054.172.03.29-.034.187-.027.198.157.198.145 0 .203-.03.23-.144zm1.69.031l-.077-.285c-.032-.152-.07-.18-.258-.18-.211 0-.219.008-.219.246 0 .309.028.332.336.332.211 0 .246-.015.219-.113zm15.106.012c.407-.121.645-.262.645-.387 0-.078-.149-.09-.824-.074l-.817.016-.023.175c-.016.133.023.196.16.27.234.129.434.129.86 0zm3.114.023a.577.577 0 0 0 .148-.289l.043-.215-.863.02c-.766.016-.864.027-.864.125 0 .062.102.184.22.277.195.14.292.16.714.16.293 0 .535-.03.602-.078zm0 0"/></svg>