<svg xmlns="http://www.w3.org/2000/svg" width="80" height="80"><path d="M40 0A40 40 0 0 0 0 40a40 40 0 0 0 40 40 40 40 0 0 0 40-40A40 40 0 0 0 40 0zM15.08 12.455h19.1a2.62 2.62 0 0 1 2.627 2.625v19.1a2.622 2.622 0 0 1-2.627 2.627h-19.1a2.62 2.62 0 0 1-2.625-2.627v-19.1a2.618 2.618 0 0 1 2.625-2.625zm30.74 0h19.1a2.618 2.618 0 0 1 2.625 2.625v19.1a2.62 2.62 0 0 1-2.625 2.627h-19.1a2.622 2.622 0 0 1-2.627-2.627v-19.1a2.62 2.62 0 0 1 2.627-2.625zM15.08 43.193h19.1a2.622 2.622 0 0 1 2.627 2.627v19.1a2.62 2.62 0 0 1-2.627 2.625h-19.1a2.618 2.618 0 0 1-2.625-2.625v-19.1a2.62 2.62 0 0 1 2.625-2.627zm30.74 0h19.1a2.62 2.62 0 0 1 2.625 2.627v19.1a2.618 2.618 0 0 1-2.625 2.625h-19.1a2.62 2.62 0 0 1-2.627-2.625v-19.1a2.622 2.622 0 0 1 2.627-2.627z"/></svg>