<svg xmlns="http://www.w3.org/2000/svg" width="64pt" height="64pt" viewBox="0 0 64 64"><path d="M29.828 64.352a31.563 31.563 0 0 1-17.078-6.36c-1.723-1.308-4.05-3.539-5.324-5.101C1.69 45.875-.852 37.09.254 28.176c.422-3.45 1.41-6.801 2.914-9.926.73-1.523 1.2-2.367 2.023-3.637A32.197 32.197 0 0 1 17.36 3.516c7.293-3.793 15.774-4.551 23.778-2.11 3.34 1.016 6.828 2.809 9.683 4.98 2.282 1.731 4.735 4.212 6.442 6.516 6.636 8.961 8.18 20.91 4.039 31.32-2.852 7.16-8.137 13.048-14.903 16.602a31.446 31.446 0 0 1-16.57 3.528zm-8.496-3.516c-.125-.41-.121-1.64.004-2.055.05-.176.094-.32.094-.324a2.33 2.33 0 0 0-.332-.047c-.184-.023-.739-.156-1.227-.3-.3-.09-.605-.172-.902-.258-.074 0 .015.527.164.968.469 1.399.996 2.035 1.887 2.258.398.102.406.094.312-.242zm1.277.133c.446-.153.989-.707 1.141-1.176.137-.414.102-.734-.105-.961-.243-.266-.5-.336-1.227-.336-.676 0-.68 0-.629.145.211.672.207 1.683-.004 2.363-.05.148-.043.148.227.11.152-.024.422-.09.593-.145zm5.407.054c-.211-.558-.211-1.691.004-2.414.035-.101-.024-.113-.586-.113-.754 0-1.024.07-1.254.316-.258.27-.285.614-.09 1.051.289.64.7 1.004 1.328 1.172.492.137.656.133.598-.012zm1.207-.113c.617-.297 1.082-.965 1.457-2.105.203-.598.222-.98.054-.926-.808.25-1.75.5-2.027.531-.25.028-.34.067-.316.121.21.563.254 1.84.082 2.34l-.094.274.262-.04c.144-.02.406-.109.582-.195zm9.453-7.68c.457-.636 1.992-2.265 2.066-2.195.063.067-.074.809-.238 1.309a12.23 12.23 0 0 1-.61 1.394c-.042.082.848-.156 1.32-.351.911-.38 1.704-.926 2.458-1.692.558-.574.789-.965.789-1.355 0-.602-.32-.711-2.164-.758-1.547-.039-1.95-.113-3.274-.594-.53-.195-1.003-.351-1.058-.351-.227 0-.477.508-.75 1.527-.445 1.68-.422 2.586.074 3.121.2.215.664.461.945.5.024.004.22-.246.442-.555zm12.242.399c.656-.195 1.535-.625 2.168-1.066 1.18-.829 3.95-3.711 3.754-3.91-.024-.024-.715.128-1.54.331-2 .496-2.366.555-4.003.594-1.559.043-2.016.117-2.582.422-.817.441-1.328 1.184-1.38 2.02-.038.644.02.898.278 1.19.18.196.68.517.817.517.015 0 .218-.247.453-.551.48-.625 1.476-1.7 1.77-1.914l.19-.137-.046.379c-.05.457-.344 1.367-.613 1.898l-.192.391h.184c.105 0 .437-.074.742-.164zm-34.066-2.223c.566-.168 1.523-.61 1.949-.91 1.008-.695 1.937-2.004 1.949-2.734.004-.399-.164-.617-.555-.715-.289-.078-.836-.05-.988.039-.039.027-.113.238-.16.469-.113.554-.356 1.18-.723 1.843l-.289.536-.11-.215c-.202-.387-.327-1.117-.292-1.711l.031-.543-.2.039c-.952.203-1.362.246-2.839.285L13 47.832l.008.547c.012.621.215 1.348.574 2.074.25.496.633.856 1.125 1.035.438.157 1.461.121 2.145-.082zm9.359-2.672c.89-.156 1.746-.5 2.406-.957.473-.328 1.274-1.144 1.59-1.62.879-1.321 1.836-3.466 1.547-3.45-.027.004-.48.23-1 .504l-.953.496-.047.367c-.086.707-.465 1.727-.906 2.434l-.176.285-.09-.16c-.203-.38-.305-.871-.305-1.551l-.004-.68-.445.153c-.246.086-.973.3-1.613.476-1.277.352-1.785.574-2.215.98-.691.641-.758 1.473-.176 2.16.504.599 1.227.77 2.387.563zm32.406-5.453c.434-.164.715-.402 1.082-.926.317-.453.664-1.164.664-1.359 0-.133-.035-.137-1.21-.184-1.067-.039-1.688-.101-2.036-.203-.086-.027-.113.047-.14.418-.04.48-.286 1.137-.493 1.328-.109.098-.12.098-.183-.011-.156-.301-.27-.969-.25-1.469l.02-.52-.38-.082c-.484-.101-.879-.046-1.097.145-.387.336-.14 1.234.508 1.91.441.453 1.242.863 2.05 1.047.371.082 1.125.035 1.465-.094zM6.004 42.54c.074-.031.031-.094-.195-.27-.407-.324-1.094-1.203-1.223-1.581-.102-.297-.113-.31-.316-.278-.11.016-.528.008-.918-.02-.395-.03-.993-.078-1.325-.1l-.605-.04.344.332c.191.184.726.59 1.191.902.961.641 1.68.946 2.445 1.024.258.031.48.058.489.062a.45.45 0 0 0 .113-.03zm1.195-.238c.442-.184.617-.426.617-.84 0-.457-.199-.75-.68-.984-.343-.176-.417-.188-1.097-.176-.406.004-.844.035-.973.066l-.246.051.32.246c.415.313.981 1.008 1.204 1.473.16.34.183.36.36.328.109-.016.327-.09.495-.164zm5.723-.82c-.54-.45-1.281-1.461-1.285-1.754 0-.063-.008-.11-.024-.11-.261 0-1.492.215-1.629.281-.363.196-.332.485.11.875.625.559 1.71.954 2.648.965l.5.004zm1.234.042c.461-.218.63-.484.621-.972-.007-.406-.265-1.313-.441-1.563-.133-.195-.227-.187-.89.086-.313.133-.794.301-1.067.38l-.496.132.293.215c.39.281 1.07 1.101 1.277 1.531.106.207.211.344.274.34.054 0 .25-.063.43-.149zm36.918-.336c.625-.347.926-.898.735-1.355-.211-.508-.528-.691-1.832-1.055-.5-.14-.954-.27-1.008-.289-.082-.031-.11.032-.145.352-.043.39-.441 1.3-.574 1.316-.148.016-.316-.707-.328-1.41l-.012-.703-.851-.438c-.47-.238-.871-.433-.903-.437-.18-.008.2 1.43.59 2.27.586 1.25 1.934 2.011 3.445 1.957.461-.02.606-.055.887-.208zm-18-5.94c0-.349.766-1.614 1.223-2.024l.191-.168-.308-.043a17.986 17.986 0 0 1-1.196-.242c-.843-.2-.879-.2-.964-.09-.137.191-.282.96-.282 1.504 0 .468.012.523.192.746.289.351 1.144.59 1.144.316zm1.528-.118a4.256 4.256 0 0 0 1.66-.996c.379-.371.504-.645.394-.828-.129-.211-.36-.258-1.152-.262h-.777v.152c0 .34-.465 1.192-1 1.832l-.29.34.344-.043c.192-.023.559-.113.82-.195zm5.632-.106c.094-.468.899-1.761 1.254-2.011.125-.094.094-.102-.476-.102-1.04 0-1.715.227-2.067.688-.152.203-.18.3-.18.64 0 .313.028.43.13.543.175.196.44.324.789.387.492.086.5.082.55-.145zm1.082.047c.957-.25 2-.976 3.11-2.164.37-.386.484-.547.406-.558-.059-.012-.562.082-1.117.207-.465.11-.934.199-1.406.27-.262.027-.395.07-.395.128 0 .34-.621 1.461-1.098 1.973l-.222.242h.172c.093 0 .34-.043.55-.098zM9.344 33.594c0-.016-.047-.227-.106-.469-.144-.582-.148-2.203-.011-2.766l.097-.394-.64-.106a17.175 17.175 0 0 1-1.715-.425c-.59-.18-1.102-.305-1.14-.282-.165.102.25 1.52.757 2.586.445.942 1.113 1.559 1.934 1.782.332.09.824.132.824.074zm1.164-.07c1.125-.297 1.992-1.243 2.062-2.247.035-.55-.133-.84-.625-1.093-.32-.16-.457-.188-1.144-.22-.692-.03-.774-.023-.735.067.204.547.25 2.262.079 3.074-.051.266-.102.493-.102.5 0 .032.11.012.465-.082zm8.012-.243c-.188-.648-.13-2.652.085-3.23.043-.113.004-.117-1.007-.09-1.02.027-1.075.035-1.426.219-.688.351-.832.992-.41 1.86a2.792 2.792 0 0 0 2.496 1.577l.355.004zm1.57.04c.562-.274 1.086-.856 1.426-1.571.527-1.121.93-2.492.761-2.598-.039-.023-.55.102-1.14.278a27.26 27.26 0 0 1-1.469.394c-.133.024-.27.051-.398.082 0 .008.046.157.101.332.2.637.188 2.684-.02 3.235-.03.09-.007.101.176.058.121-.02.371-.117.563-.21zm24.996-6.454a9.52 9.52 0 0 1 1.207-1.617l.34-.36-.035.739c-.016.406-.07.894-.121 1.082-.09.312-.086.336.011.336.059 0 .317-.102.57-.223 1.137-.55 2.239-1.762 2.239-2.453 0-.598-.285-.719-1.844-.77-1.523-.054-1.797-.097-3.058-.519-.97-.324-1.051-.34-1.13-.238-.292.394-.437 2.664-.206 3.27.25.66.89 1.12 1.562 1.124.242 0 .262-.015.461-.37zm10.379.2c.418-.133 1.164-.551 1.59-.887.832-.649 2.836-3.168 2.707-3.39-.02-.024-.625.108-1.352.296-1.555.406-1.96.46-3.48.516-1.63.05-1.926.14-2.465.726-.633.684-.653 1.777-.043 2.395.21.218.637.449.824.453.055 0 .137-.074.18-.176.148-.336.883-1.402 1.312-1.906.317-.371.442-.48.489-.418.125.195-.118 1.863-.364 2.457-.054.129.035.117.602-.067zM7.867 22.808c-.535-.567-1.133-1.579-1.133-1.918 0-.125-.043-.141-.445-.184-.375-.031-2.094-.36-2.43-.465-.257-.078-.078.184.54.79 1.07 1.042 1.816 1.55 2.656 1.82.43.136.62.175.886.195.153.008.149 0-.074-.238zm1.332.148c.649-.195.906-.805.586-1.375-.3-.543-.922-.785-2-.785h-.71l.269.285c.488.516 1.105 1.555 1.11 1.86 0 .144.296.148.745.015zm5.68-.273c-.399-.454-.871-1.239-.965-1.618l-.07-.28-.774.019c-.91.027-1.117.113-1.117.457 0 .175.074.281.43.633.691.66 1.754 1.144 2.55 1.156l.27.004zm1.434.25c.14-.067.335-.215.43-.329.152-.183.171-.257.171-.687 0-.57-.156-1.32-.312-1.516l-.114-.14-.726.203c-.399.11-.852.219-1.008.238-.617.082-.602.063-.281.395.496.52 1.105 1.53 1.105 1.843 0 .153.39.149.735-.007zm8.894-.868c-.203-.644-.2-1.765.012-2.308.031-.09-.024-.117-.293-.153a13.05 13.05 0 0 1-1.168-.289c-.473-.14-.856-.218-.89-.187-.126.117.28 1.363.66 2.035.316.55 1.05 1.043 1.581 1.05.125 0 .141-.023.098-.144zm1.25-.05c.82-.364 1.344-1.446.95-1.953-.227-.29-.47-.375-1.192-.41-.637-.032-.668-.028-.621.09.21.562.215 1.667.008 2.335-.047.152-.043.152.261.106.168-.024.434-.102.59-.168zm5.184-.047c-.188-.535-.18-1.492.011-2.196l.04-.156-.692.035c-.777.035-1.105.141-1.277.41-.266.418-.024 1.215.515 1.68.27.235.88.465 1.254.473h.23zm1.113.015c.543-.273.91-.761 1.277-1.714.172-.442.309-1.051.258-1.137-.031-.047-.27-.004-.746.14-.39.122-.89.254-1.117.297l-.418.078.09.297c.113.39.109 1.578-.004 1.973l-.09.3.23-.042c.13-.024.364-.11.52-.192zm10.14-5.242c.399-.199.715-.523.903-.933.336-.727.082-1.27-.637-1.368-.246-.035-.293-.023-.328.082-.258.801-.82 1.891-.918 1.786-.094-.098-.254-1.04-.254-1.493v-.445l-.344-.043c-.191-.02-.691-.14-1.12-.265-.423-.126-.813-.227-.86-.227-.309 0 .332 1.82.84 2.387.504.57.87.71 1.773.687.516-.012.692-.043.946-.168zm6.024.09c.508-.184.902-.547 1.191-1.105.45-.875.723-1.891.508-1.891-.039 0-.34.078-.668.176-.523.148-.597.195-.633.336-.086.34-.398 1.03-.644 1.425l-.258.41-.07-.28c-.106-.4-.196-.958-.196-1.258v-.262l-.777.039c-.867.035-1.125.125-1.289.445-.336.656.348 1.707 1.3 2.004.294.086 1.243.067 1.536-.039zm-38.176-1.656c.078-.254.203-.594.281-.746l.145-.285.164.378c.09.211.2.504.242.653.043.148.102.273.13.273.136 0 .624-.465.8-.765.266-.45.316-.77.172-1.075-.153-.332-.489-.48-1.106-.484a9.1 9.1 0 0 1-2.61-.371c-.472-.14-.878-.23-.91-.203-.124.113.376 1.578.731 2.136.348.555 1.012.946 1.594.95l.23.008.141-.47zm6.387-.13c.098-.327.226-.698.293-.82l.113-.222.125.254c.074.144.18.43.246.64.063.215.133.41.157.442.019.023.171-.074.34-.219.343-.305.769-1.129 1-1.934.195-.683.167-.726-.337-.566-1.023.324-1.668.441-2.59.48-1.074.047-1.28.094-1.5.36-.312.375-.16 1.09.344 1.598.352.359.84.562 1.375.574l.258.012zm11.914-8.233c.352-.184.48-.297.684-.598.21-.305.257-.434.28-.754.024-.371.016-.395-.195-.613-.125-.121-.253-.227-.285-.227-.03 0-.175.149-.32.328-.441.547-1.305 1.285-1.398 1.192-.075-.075.113-.954.273-1.278.082-.176.156-.324.156-.332 0-.011-.254-.035-.558-.058-.36-.028-.856-.13-1.414-.29-.473-.14-.883-.234-.914-.203-.122.118.28 1.375.66 2.036.23.41.668.785 1.101.937.25.094.469.117.91.102.524-.02.637-.047 1.02-.242zm6.18.042c.183-.097.441-.285.57-.418.379-.375.937-1.683.98-2.269.028-.25.016-.254-.55-.086-.285.078-.34.125-.504.43-.188.34-1.164 1.379-1.555 1.656l-.219.148.028-.449c.023-.36.074-.554.254-.922l.234-.472-.856.039c-.98.039-1.253.136-1.44.5-.145.281-.106.613.128 1.05.379.7 1.035 1.02 2.023.989.47-.016.63-.051.907-.196zm0 0"/></svg>