<svg xmlns="http://www.w3.org/2000/svg" width="64" height="64"><path d="M29.932 62.964c-6.907-.508-13.072-3.051-18.311-7.554-.911-.783-2.654-2.555-3.416-3.475-3.653-4.403-5.938-9.396-6.837-14.937C1.064 35.12 1 34.265 1 32.044c0-2.22.064-3.076.368-4.953.899-5.539 3.177-10.52 6.833-14.938 1.237-1.494 3.51-3.643 5.186-4.904 7.593-5.71 17.491-7.595 26.757-5.095 7.119 1.92 13.512 6.526 17.624 12.697 2.498 3.748 4.1 7.82 4.817 12.24.303 1.87.367 2.732.367 4.953 0 2.222-.064 3.084-.367 4.954-1.067 6.576-4.135 12.476-8.928 17.17-5.096 4.989-11.433 7.949-18.644 8.71-1.049.11-4.054.161-5.08.086zm-9.294-3.631c.16-.365.826-1.502 1.213-2.076.13-.191.417-.49.638-.664a3.73 3.73 0 0 0 .648-.675c.135-.197.348-.455.474-.575.127-.119.395-.46.596-.757.201-.298.454-.604.56-.682.107-.077.47-.461.805-.853.485-.568.694-.877 1.024-1.518.36-.697.49-.884.98-1.394.31-.324.638-.69.73-.815.535-.728 5.1-2.385 7.4-2.687.696-.091.789-.09 1.879.035.872.1 1.225.168 1.479.28.292.132.424.15 1.09.15.416 0 .773.017.795.039.021.02-.016.145-.083.276-.151.296-.151.377-.003.561.115.142.152.147 1.286.177l1.167.031-.446.175c-.569.223-.85.412-.875.59-.047.33.32.501 1.538.718.495.088.98.182 1.08.21.343.093.242.18-.26.223-.498.044-.849.189-.923.382-.096.25 1.157 1.651 3.326 3.714.747.711 1.2 1.4 1.46 2.222.189.6.201.621.312.529.062-.051.077-.138.049-.287a.595.595 0 0 1 .036-.355c.063-.119.058-.17-.03-.306-.077-.117-.097-.23-.07-.399.026-.164.008-.277-.061-.375a.415.415 0 0 1-.061-.328c.025-.128-.024-.364-.153-.738-.11-.315-.174-.602-.151-.672.021-.068-.007-.257-.063-.42-.056-.165-.1-.481-.098-.711.003-.346-.032-.493-.215-.894a7.865 7.865 0 0 1-.375-1.098l-.156-.62-.6-.642c-.33-.353-.762-.76-.961-.904-.278-.2-.397-.337-.508-.587-.08-.179-.185-.325-.232-.325-.048 0-.152-.056-.23-.124-.079-.068-.176-.124-.216-.124-.04 0-.137-.068-.215-.152a.76.76 0 0 0-.336-.192 1.557 1.557 0 0 1-.38-.149c-.345-.2-.847-.272-1.588-.23-.62.035-.713.027-.889-.082-.168-.103-.23-.111-.44-.053-.145.04-.468.053-.8.031-.41-.027-.65-.01-.906.06-.332.093-.359.091-.602-.033-.236-.12-.355-.13-1.682-.13-1.297 0-1.496.015-2.156.158-1.334.288-2.947.718-3.974 1.058-.558.185-1.028.324-1.044.308-.016-.016.03-.112.102-.213.126-.179.26-.54.972-2.635.184-.541.418-1.13.52-1.307.186-.325.742-1.89.744-2.093 0-.059.084-.359.187-.667.124-.373.186-.683.186-.932 0-.426.157-.803.403-.964.188-.123.195-.185.025-.23-.12-.031-.127-.063-.09-.456.023-.233.094-.66.159-.95.065-.29.132-.68.15-.867l.102-1.085a11.98 11.98 0 0 1 .218-1.363c.095-.397.148-.806.148-1.14 0-.285.027-.69.06-.898.032-.208.09-.7.126-1.091.11-1.15.087-1.085.41-1.208.31-.118.296-.198-.038-.228l-.217-.02-.005-1.085c-.002-.596-.036-1.21-.074-1.363-.074-.297-.1-2.333-.037-2.925.044-.41-.005-.67-.127-.67-.047 0-.227.164-.4.364l-.314.362-.003 1.295a55.687 55.687 0 0 1-.07 2.503 67.976 67.976 0 0 0-.085 2.107 33.411 33.411 0 0 1-.052 1.395l-.103 1.425c-.074 1.024-.169 1.773-.254 1.997-.047.125-.074.136-.185.076-.19-.102-.209-.039-.088.297.1.28.102.34.009.924-.055.344-.196.977-.313 1.407-.118.43-.247 1.052-.286 1.382-.076.63-.208 1.125-.496 1.852-.096.24-.247.798-.337 1.24-.218 1.07-1.011 3.4-1.328 3.897-.131.206-.344.556-.474.777-.413.707-.528.873-.581.84-.029-.018-.083-.157-.122-.31-.104-.414-.42-1.104-1.818-3.969-.698-1.431-1.415-2.951-1.593-3.377-.872-2.087-1.573-3.285-2.617-4.47-.199-.226-.362-.45-.362-.496 0-.12.56-.978.842-1.29.13-.145.4-.388.598-.54.353-.272.977-.96.977-1.077 0-.103-.579-.06-.848.062-.215.097-.293.185-.454.51a5.021 5.021 0 0 1-.922 1.273 3.29 3.29 0 0 0-.411.51l-.172.277-.206-.238c-.633-.733-2.012-3.121-3.284-5.688l-.36-.726.134-.182c.166-.224.228-.455.177-.658-.06-.238-.407-.594-.705-.721l-.27-.116.136-.19c.205-.29.232-.86.06-1.313-.248-.659-.46-.894-1.303-1.45-1.421-.936-1.689-1.15-1.874-1.49-.235-.433-.48-1.315-.48-1.724 0-.256-.023-.34-.09-.34-.182 0-.214.388-.09 1.096.064.368.115.74.114.825l-.003.155-.136-.182c-.194-.259-.917-1.054-.98-1.078-.124-.048-.039.256.193.695.353.665.325.74-.155.41-.438-.302-.458-.214-.044.203.212.214.385.411.385.439 0 .027-.181.03-.403.006-.221-.024-.402-.03-.402-.014 0 .015.16.157.358.315.603.484.785.782 1.157 1.892.385 1.15.607 1.599 1.03 2.074.324.362.762.592.969.508.09-.037.06-.068-.153-.16-.257-.112-.351-.244-.174-.244.174 0 .166-.13-.02-.341-.125-.144-.25-.42-.38-.84-.277-.898-.181-.901.318-.012.338.603.646.849.719.573.041-.16.12-.157.207.007.056.105.107.123.26.092.133-.026.225-.006.304.065.162.147.142.282-.07.486-.102.097-.231.296-.287.442-.097.253-.095.277.029.533.071.147.21.316.308.374.182.107.272.092.222-.037-.038-.098.314-.245.468-.196a.32.32 0 0 1 .192.448c-.06.134-.035.218.204.659.15.277.418.84.595 1.248.726 1.682 1.878 3.73 2.434 4.327.162.174.295.328.295.342 0 .06-.664-.058-1.136-.203-.278-.086-1.496-.383-2.706-.661s-2.249-.531-2.308-.562a.228.228 0 0 1-.109-.186c0-.22-.136-.599-.264-.737-.102-.109-.18-.127-.471-.11l-.35.02-.04-.419a1.678 1.678 0 0 0-.203-.695c-.192-.327-.728-.778-1.22-1.027a1.964 1.964 0 0 1-.543-.413 49.503 49.503 0 0 1-.956-1.21c-.095-.127-.195-.232-.221-.232-.095 0 .045.68.173.844.23.292.146.331-.336.153a5.004 5.004 0 0 0-.448-.132c-.164-.04-.388-.174-.601-.36-.437-.383-1.057-.588-1.014-.336.014.082-.052.122-.291.173-.17.037-.31.083-.31.101 0 .067.559.832.796 1.09.133.146.218.268.188.273-.03.005-.11.012-.179.016-.347.02-1.031.193-1.11.28-.08.089-.05.098.325.1.367 0 .472.031.925.27.395.208.54.322.643.504.073.13.213.295.31.367.099.072.291.31.428.527.434.687 1.043 1.132 1.633 1.193.554.057.618-.016.215-.248-.381-.22-1.373-1.22-1.209-1.22.055 0 .366.139.69.309.326.17.646.31.712.31.28 0 .335-.527.092-.884-.145-.213-.148-.232-.04-.232.065 0 .25.117.412.26.293.257.294.259.254.564l-.041.307.22-.042c.272-.05.335.055.195.325s-.187.653-.1.814c.08.152.51.372.73.374.12 0 .135-.023.102-.154-.032-.127-.016-.155.088-.155.07 0 .145-.03.168-.065.059-.096.414-.006.524.133.07.088.638.248 2.284.645 2.4.577 2.86.7 2.859.763 0 .023-.271.182-.602.352-.596.308-1.319.889-1.319 1.06 0 .048.018.087.039.087.02 0 .512-.24 1.091-.533 1.449-.731 1.68-.811 2.433-.839l.62-.023v.248c0 .196.06.332.289.65.656.917 1.327 2.208 2.605 5.013.44.969.99 2.14 1.221 2.603.559 1.123 1.03 2.225.975 2.28-.025.025-.59-.062-1.256-.193l-1.21-.24-.159-.238c-.112-.17-.202-.239-.31-.239-.092 0-.217-.074-.315-.186-.105-.119-.223-.186-.328-.186-.09 0-.2-.044-.245-.097a1.356 1.356 0 0 0-.333-.226 3.035 3.035 0 0 1-.4-.243.613.613 0 0 0-.31-.118c-.089-.001-.254-.081-.367-.178-.177-.152-.213-.232-.265-.6-.033-.233-.102-.48-.153-.55-.052-.069-.16-.217-.241-.328a7.203 7.203 0 0 0-.339-.42c-.118-.136-.191-.286-.191-.396 0-.114-.072-.256-.202-.397-.368-.402-.585-.69-.69-.915-.117-.248-.41-.438-.41-.265 0 .053.14.52.31 1.036.306.934.7 2.319.78 2.744l.042.223-.194-.043c-.143-.031-.249-.009-.4.084-.144.09-.304.126-.543.123-.332-.004-.35-.013-.798-.432-.252-.235-.48-.427-.506-.427-.027 0-.154-.115-.284-.256-.337-.367-.677-.57-.887-.527-.128.025-.214-.005-.336-.118-.09-.084-.193-.152-.229-.152-.035 0-.135-.056-.222-.124a.591.591 0 0 0-.296-.124.314.314 0 0 1-.215-.091c-.062-.075-.25-.087-1.076-.066-.608.016-1.115-.001-1.29-.043-.257-.061-.326-.052-.634.081-.19.082-.338.174-.328.204.009.03.266.143.572.253.305.109.806.304 1.112.433.307.129.75.273.984.32.235.048.64.182.899.3.26.117.612.243.782.28.42.092.773.267.97.48.193.21.545.338.697.253.057-.032.138-.047.179-.033.041.014-.013.071-.122.127a1.105 1.105 0 0 0-.327.287.55.55 0 0 1-.34.224c-.141.026-.272.118-.403.28-.107.133-.26.258-.341.279-.085.02-.18.114-.223.22a.619.619 0 0 1-.245.27.607.607 0 0 0-.242.265.711.711 0 0 1-.256.285c-.101.06-.187.141-.19.182-.005.04-.014.102-.022.136a1.796 1.796 0 0 0-.024.13c-.005.037-.08.099-.164.138-.102.046-.155.12-.155.216 0 .08-.07.21-.155.29a.489.489 0 0 0-.155.307.623.623 0 0 1-.1.303c-.069.1-.086.206-.058.36.03.16.009.271-.083.427-.08.136-.102.225-.06.251.036.022.053.122.038.222-.02.133.005.199.091.245.11.059.111.074.022.21-.127.194-.418.97-.379 1.01.017.017.331-.247.698-.587.367-.34.835-.739 1.04-.887.204-.148.678-.565 1.053-.927.709-.684 1.663-1.377 2.427-1.76.419-.21.564-.323.501-.386-.015-.015-.29.026-.61.092s-.597.105-.614.086c-.017-.018.038-.078.123-.134a8.86 8.86 0 0 0 .487-.372c.493-.398.817-.523 1.435-.55.406-.019.633.006.991.108.343.098.75.146 1.55.183 1.216.057 1.897.166 2.666.428.72.245 1.09.436 1.166.602.073.159.168.68.228 1.25l.041.387h.207c.114 0 .226.03.25.068.073.118-.189.388-.568.587-.308.161-.42.27-.707.692-.187.275-.469.649-.626.831a3.846 3.846 0 0 0-.414.58c-.07.136-.411.526-.757.867-.952.937-1.7 1.825-2.156 2.56-.252.407-.58.83-.848 1.096-.24.239-.666.689-.945 1l-.508.567.036.704c.022.42.009.85-.032 1.07-.124.652.178.692.457.06zm27.211-3.138c-.205-.536-.709-1.258-1.229-1.759-1.725-1.663-2.099-2.005-2.191-2.005-.07 0-.09.033-.064.102.153.4.363 1.754.382 2.47l.022.805.412.019c.315.014.465.054.636.17.172.117.304.152.573.152.255 0 .391.033.506.124a.67.67 0 0 0 .334.129c.097.002.274.04.393.085.293.109.35.034.226-.292zm-3.4-1.1c.022-.765-.041-1.233-.311-2.316l-.199-.798-.856-.762c-.826-.736-.868-.764-1.2-.805-.188-.024-.364-.019-.392.01-.13.144-.492 1.495-.586 2.193a14.07 14.07 0 0 1-.23 1.27l-.126.495.133.094c.073.05.226.17.339.263.114.095.28.17.375.17.093 0 .386.098.65.218.265.12.617.244.783.277.166.033.539.128.828.21.804.23.772.25.793-.518zm-4.144-.882c.21-.651.41-1.902.473-2.96.032-.55.015-.762-.114-1.382-.125-.6-.184-.766-.326-.914-.203-.213-.374-.234-.43-.055-.07.216-.756 1.083-1.127 1.422a8.806 8.806 0 0 1-.712.576c-.198.14-.36.29-.36.332 0 .043.07.18.154.306a.85.85 0 0 1 .155.478c0 .217.044.295.341.606.188.197.341.396.341.444 0 .047.09.126.201.175.14.061.245.179.342.383.123.256.166.294.33.294.264 0 .404.09.48.309.085.242.17.237.252-.014zm-12.759-2.531c0-.031-.122-.057-.272-.057-.264 0-.402.11-.316.25.04.064.588-.116.588-.193zm10.796-1.334c.458-.37 1.11-1.145 1.334-1.585.171-.337.1-.47-.331-.62-.556-.194-1.408-.103-1.33.141.076.238.017.5-.151.677l-.176.183.115.214c.126.235.1.338-.166.67l-.135.167.174.25c.095.138.187.251.204.251.018 0 .225-.157.462-.348zm11.43.042c.408-.185 1.197-.73 1.9-1.312.108-.089.35-.196.537-.238.187-.042.418-.131.513-.198.095-.067.287-.162.425-.211.14-.05.352-.176.474-.283.121-.107.317-.234.435-.283a1.49 1.49 0 0 0 .414-.303c.11-.116.261-.212.335-.212.098 0 .143-.048.17-.183.023-.118.12-.24.275-.347.214-.149.49-.511.49-.643 0-.154-1.246-.527-1.99-.595a7.954 7.954 0 0 1-.711-.096c-.27-.057-1.08.107-1.848.374-.444.154-1.223.629-1.398.852-.112.142-.117.177-.042.291.047.072.325.227.622.347.296.12.637.296.758.394.337.27.827 1.093.651 1.093-.034 0-.252-.144-.484-.32-.883-.668-1.96-1.02-2.348-.766l-.155.101.132.215c.074.119.118.257.098.307-.045.12-.38.118-.72-.002-.272-.096-.66-.121-.832-.055-.149.057-.12.183.212.923.295.658.314.683.528.719.122.02.31.12.42.224.11.103.254.218.322.255.188.103.528.083.816-.048zm-3.593-3.694c.232-.052.882-.205 1.444-.338.562-.134 1.287-.27 1.611-.302.358-.037.88-.151 1.333-.293.408-.128 1.19-.349 1.735-.491.545-.143 1.242-.367 1.549-.5.634-.273.71-.278 3.138-.203.67.02 1.324.02 1.455-.002.333-.054.336-.196.01-.347-.146-.068-.293-.186-.327-.263-.043-.099-.114-.14-.243-.14-.1 0-.268-.026-.373-.06a3.412 3.412 0 0 0-.489-.097c-.174-.022-.35-.088-.421-.16-.104-.104-.174-.116-.476-.082-.311.035-.375.023-.538-.106-.15-.118-.259-.145-.579-.145-.359 0-.407-.016-.534-.176-.13-.163-.161-.172-.434-.131-.242.036-.322.022-.464-.083-.143-.106-.232-.121-.544-.093-.24.022-.388.01-.415-.035-.028-.044-.167-.055-.4-.03-.287.03-.377.016-.461-.069-.086-.085-.17-.096-.447-.062-.219.028-.405.016-.52-.031-.149-.062-.214-.056-.386.033a1 1 0 0 1-.417.1.599.599 0 0 0-.366.115c-.086.067-.263.14-.394.16a.884.884 0 0 0-.452.248c-.118.115-.257.209-.307.209-.05 0-.15.083-.223.184a.548.548 0 0 1-.347.224c-.167.031-.243.092-.331.264-.064.124-.307.38-.54.57-.558.453-1.29 1.386-1.414 1.804-.14.47-.116.483.566.328zm9.994-.86a.515.515 0 0 1 .23-.233c.135-.064.175-.127.176-.277a.552.552 0 0 1 .087-.295c.046-.055.065-.12.043-.142-.085-.085-1.78-.15-2.106-.082-.425.09-.97.318-.97.406 0 .04.215.103.51.148.564.087 1.326.316 1.66.5.28.156.302.154.37-.024zm-13.3-.192c.108-.05.293-.16.412-.243l.45-.31c.128-.086.32-.298.425-.47.124-.2.265-.342.399-.398.168-.07.214-.13.247-.323.022-.13.096-.316.164-.413l.124-.176-.14-.263-.14-.264.134-.277c.074-.153.134-.298.134-.324 0-.025-.082-.115-.182-.2-.134-.113-.194-.23-.226-.443-.024-.16-.081-.328-.127-.374-.046-.046-.084-.17-.084-.274 0-.131-.072-.271-.233-.454a8.338 8.338 0 0 1-.34-.41l-.107-.145-.162.186c-.265.305-.382.645-.427 1.24-.023.306-.068.668-.1.805-.03.136-.098.68-.15 1.208-.145 1.493-.254 1.891-.613 2.226-.089.083-.161.177-.161.21 0 .077.451.004.703-.114zm-3.078-.184c.172-.051.502-.232.732-.403.575-.424.828-.486 1.255-.31.3.126.34.129.474.042.205-.135.29-.507.321-1.405.025-.724.016-.806-.144-1.255l-.17-.481-1.425-1.44a94.8 94.8 0 0 1-2.218-2.315c-.67-.739-.978-1.016-1.131-1.016-.08 0-.012.43.096.606a.935.935 0 0 1 .123.407c0 .154.045.237.186.341.2.147.229.283.116.53-.063.138-.048.182.129.384.165.188.193.262.163.425-.03.159-.007.226.118.343a.48.48 0 0 1 .156.314c0 .092.044.204.098.248.069.058.087.14.06.281a.77.77 0 0 0 .052.407c.19.438.357 1.06.323 1.196-.055.22.078.825.285 1.3.151.345.175.453.118.543-.04.065-.054.212-.032.351.022.132.01.294-.026.36-.036.068-.041.156-.012.204.029.047.029.147 0 .223-.029.076-.036.155-.015.175.046.047.004.053.368-.055zm-25.544-.364c.251-.391.522-.633.886-.789.145-.062.264-.137.264-.166 0-.056-1.221-.655-1.488-.73a1.314 1.314 0 0 1-.325-.164c-.2-.14-.634-.321-1.534-.638a4.748 4.748 0 0 0-1.27-.283c-.34-.03-.803-.073-1.028-.095-.442-.043-.753.047-.62.18.082.082.541.219.958.285.178.028.326.09.36.151a.232.232 0 0 0 .184.103c.08 0 .363.241.756.644.346.354.685.654.753.667.068.013.16.1.205.193.048.1.131.17.204.17.068 0 .198.074.29.165.09.091.344.228.562.304.218.077.441.183.496.237a.53.53 0 0 0 .116.099c.01 0 .115-.15.231-.333zm5.24-1.935c0-.364-1.087-3.619-1.209-3.619-.166 0-.245.183-.167.389.059.157.055.22-.02.334a.768.768 0 0 0-.092.356c0 .118-.025.23-.055.249-.03.019-.047.278-.038.577.01.298-.01.594-.044.657-.046.09-.025.152.096.28.113.118.147.208.123.327-.04.21.013.242.692.402.704.167.713.167.713.048zm23.247-2.06a5.65 5.65 0 0 1 .27-.882c.312-.733.276-1.014-.16-1.236l-.246-.126-.057.149c-.097.257-.206 1.404-.173 1.831.033.419.128.75.216.75.027 0 .095-.218.15-.485zm-.627-.71c.002-.28.04-.745.086-1.035.098-.628.048-.76-.334-.874a1.02 1.02 0 0 1-.383-.22.456.456 0 0 0-.332-.145.46.46 0 0 1-.341-.155c-.2-.213-.372-.206-.372.017 0 .252.193.893.47 1.563.213.517.295.64.673 1.003.236.229.452.401.48.384.027-.017.052-.26.053-.539zm-2.45-2.285c-.09-.247-.19-.482-.222-.52-.032-.04-.178-.089-.324-.109a2.32 2.32 0 0 1-.371-.077c-.226-.086-.086.134.467.734.639.693.708.688.45-.028zM19.353 34.14c-.014-.04-.204-.181-.424-.314s-.591-.382-.826-.552c-.75-.546-.77-.46-.069.303.323.352.474.468.702.538.363.112.65.123.617.025zm2.042-.456c.075-.052.164-.198.2-.325.076-.277.078-2.18.003-3.174-.05-.655-.045-.726.065-.88.149-.209.154-.538.012-.785-.106-.185-.105-.19.058-.361.379-.397.405-.94.076-1.556-.198-.37-.217-.448-.182-.725.022-.17.093-.428.157-.573.146-.33.068-.334-.244-.013-.154.158-.258.225-.285.18-.024-.037-.061-.262-.083-.499-.022-.236-.067-.43-.102-.432-.034-.001-.099.167-.144.373-.05.222-.116.376-.163.376-.044 0-.165-.179-.269-.397-.354-.742-.413-.583-.16.43l.164.65-.174.387c-.126.279-.181.518-.202.863-.025.432-.012.503.138.76.177.302.345.37.347.142 0-.077.068-.204.151-.282.15-.142.15-.142.218-.016.106.198.275.155.405-.105.103-.205.12-.216.14-.094.037.225-.285.724-.585.905-.233.14-.268.19-.268.375 0 .344.05.41.31.41.267 0 .37.14.222.304-.076.083-.092.437-.099 2.082-.004 1.09-.006 2.003-.004 2.029.007.076.154.052.298-.049zm12.503-11.488c.477-.18 1.148-.46 1.491-.622l.625-.293.176.151c.146.126.218.146.418.114.294-.047.928-.329 1.472-.654.222-.132.598-.3.837-.372.403-.122.503-.193 1.425-1.006.545-.48 1.009-.904 1.03-.942.062-.108-.048-2.27-.131-2.577a2.275 2.275 0 0 1-.073-.515c.005-.41-.175-.26-.516.429a8.99 8.99 0 0 1-.379.712c-.037.047-.118.282-.178.52-.077.303-.159.476-.272.574-.09.078-.21.185-.268.24-.057.055-.25.432-.428.838-.316.72-.333.746-.732 1.039-.224.165-.739.553-1.144.863-.405.31-.767.547-.805.525a1.518 1.518 0 0 1-.195-.15c-.168-.152-.695-.428-.814-.428-.067 0-.083.033-.052.109.103.25.069.291-.31.368-1.821.367-4.328.398-5.968.074-.306-.06-.345-.09-.542-.397-.263-.411-.406-.514-.787-.564-.344-.046-.392-.107-.488-.627-.074-.406-.156-.545-.268-.453-.051.044-.066.301-.05.884.026.94.061 1.036.527 1.43.26.22.372.266.991.4.384.084.95.171 1.256.194.343.026.636.084.76.151.275.148 1.555.35 2.09.33.349-.013.604-.081 1.302-.345zm-.62-1.646c.136-.014.393-.086.57-.16.313-.13.349-.132 1.085-.053 1.27.135 1.444.122 1.973-.14.569-.281.908-.567 1.264-1.063.15-.21.39-.493.531-.63.153-.146.356-.45.497-.743.13-.273.287-.571.347-.664.06-.092.088-.19.06-.217-.076-.075-.702.633-.75.847-.022.104-.167.321-.321.483-.154.162-.433.498-.62.747-.384.512-.681.753-1.252 1.016l-.395.182-1.123-.042c-.883-.033-1.208-.022-1.525.05-.297.066-.772.088-1.801.082-1.288-.007-1.412-.017-1.573-.13-.469-.332-.491-.34-.976-.34-.483 0-.57-.039-.574-.258-.003-.125-.7-.75-.782-.7-.111.069-.055.255.13.433a.949.949 0 0 1 .235.368c.077.306.69.68 1.249.764.245.036.506.108.58.16.114.078.352.088 1.529.064a43.129 43.129 0 0 0 1.642-.056zm-2.46-.895c.133-.039.315-.035.53.01.268.056.402.05.738-.035.333-.083.731-.103 2.072-.105 1.859-.001 1.922-.013 2.693-.508.313-.201.378-.282.62-.771l.268-.547.512-.248c.28-.136.671-.39.868-.564a3.84 3.84 0 0 1 .546-.414c.164-.085.613-.614 1.037-1.223.09-.13.261-.246.506-.344.204-.082.444-.203.534-.269.09-.066.265-.163.389-.215.517-.216.656-.603.41-1.143-.132-.292-1.596-2.303-1.676-2.303-.026 0-.082.104-.124.232a4.03 4.03 0 0 1-.195.47c-.066.132-.174.56-.24.954-.066.393-.176.84-.243.993a1.86 1.86 0 0 0-.124.333c0 .03.221.054.49.054.596 0 .688.03.688.23 0 .16-.32.513-.463.513-.153 0-.398.255-.612.638-.284.507-.39.595-.885.732-.439.122-.453.13-.964.53-.181.142-.969.622-1.75 1.067-1.042.594-1.511.827-1.766.878-.19.037-.75.162-1.244.277-.494.115-1.01.227-1.147.25a6.66 6.66 0 0 0-.574.132c-.18.05-.408.074-.507.052-.1-.022-.285-.011-.412.024a.525.525 0 0 1-.442-.036c-.15-.07-.229-.08-.276-.033-.103.103-.01.257.212.354.245.107.273.108.53.035zm-4.616-.324c.075-.039.256-.177.404-.306a1.31 1.31 0 0 1 .603-.31c.185-.041.382-.126.439-.19.134-.148.338-.144.535.01.165.13.39.16.533.068.12-.075.04-.175-.18-.223-.203-.044-.223-.095-.109-.278.05-.078.055-.142.016-.181-.033-.033-.448-.117-.921-.186-.882-.129-1.091-.214-1.091-.446 0-.068-.114-.177-.295-.28-.44-.25-.533-.353-1.008-1.11-.34-.54-.45-.773-.494-1.049a5.05 5.05 0 0 0-.095-.47c-.063-.199-.981-.846-1.268-.895-.141-.024-.275-.025-.296-.004-.022.022.022.438.098.926.13.847.163.947.712 2.244.383.905.687 1.525.913 1.859.186.275.368.552.404.614.062.108.072.106.197-.028.1-.106.172-.132.291-.102.088.022.159.067.159.1 0 .065.224.309.283.309.02 0 .096-.032.17-.072zm6.372-1.165c.46-.174.777-.397 1.37-.968.282-.27.867-.78 1.301-1.134.475-.386.79-.687.79-.753 0-.085.07-.12.305-.152.583-.08 1.033-.583 1.149-1.282.083-.504.464-1.11 1.103-1.755.337-.34.655-.667.707-.724.08-.086.083-.156.027-.421a3.264 3.264 0 0 1-.068-.553c0-.28-.2-.603-.48-.78-.109-.069-.198-.144-.2-.167-.006-.099.206-.237.365-.237a.438.438 0 0 0 .284-.123.386.386 0 0 1 .555-.003c.12.132.279.72.28 1.036 0 .108-.122.596-.272 1.084-.15.488-.348 1.217-.44 1.62-.186.81-.332 1.058-.667 1.13-.26.055-.343.126-.451.387-.104.248-.116.446-.028.446.034 0 .062.042.062.093 0 .092-.077.179-.396.445-.126.105-.162.19-.162.39 0 .29-.12.432-.664.782-.39.25-.575.428-.575.552 0 .161.155.104.702-.263 1.102-.738 1.564-1.281 1.818-2.137.104-.35.222-.544.587-.966.268-.309.396-.655.488-1.312a3.52 3.52 0 0 1 .241-.843c.25-.535.364-1.061.41-1.884.021-.392.064-.858.094-1.037.095-.56.366-1.355.556-1.636.196-.288.234-.498.108-.592-.043-.032-.259-.093-.48-.135a2.213 2.213 0 0 1-.65-.24c-.304-.196-1.166-.892-2.2-1.775a19.164 19.164 0 0 0-1.24-.978 7.5 7.5 0 0 1-.82-.662l-.357-.346-.419.205c-.23.112-.885.454-1.455.758-.57.304-1.177.585-1.348.625-.17.04-.31.094-.31.121 0 .028.216.177.48.332.39.228.515.274.666.24.236-.05.955-.048 1.2.006.146.032.212.013.298-.087.153-.179.362-.16.713.065l.301.194.487-.076c.268-.042.543-.058.61-.037.136.043.265.303.448.903.2.658.203.661.962.695.36.016.684.057.719.092.042.043.012.124-.096.251-.087.104-.158.218-.158.255 0 .17 1.061.252 1.379.107.062-.029.108-.024.108.01 0 .067-.71.542-.93.624-.082.03-.244.024-.386-.014-.209-.056-.256-.05-.323.042-.043.059-.152.107-.24.107-.107 0-.2.056-.269.161-.09.14-.094.189-.026.357.128.313.253.869.219.97-.018.05-.122.149-.231.217-.135.085-.206.182-.22.302-.027.238.076.338.22.212.096-.083.136-.084.315-.009.243.102.236.156-.099.765-.42.761-.702.99-2.027 1.646-.65.321-1.205.584-1.234.584-.028 0-.291.108-.586.24-.96.43-1.212.492-2.275.563l-.986.065-.516-.247a11.997 11.997 0 0 1-1.116-.639c-.33-.215-.766-.484-.97-.597a6.594 6.594 0 0 1-.775-.53c-.676-.546-1.983-1.236-2.07-1.094-.018.028.02.188.082.355.063.168.19.573.283.902.19.676.249.74.906 1.015.218.091.633.301.923.467.654.375 1.382.678 1.628.678.103 0 .428-.06.722-.133.517-.128.544-.13.764-.025.256.121.337.294.634 1.346.203.717.316.916.659 1.165.518.375 1.207.153 1.746-.563.163-.218.393-.448.511-.51.24-.128 1.12-.273 1.19-.197.026.027.011.062-.032.077-.136.049-1.569 1.252-2.128 1.787l-.534.51-.475.045c-.578.054-.721.028-1.294-.237-.77-.356-1.054-.75-1.182-1.642-.073-.505-.09-.547-.285-.678-.322-.217-.558-.18-.953.148-.215.18-.503.188-.753.024-.326-.215-1.202-1.255-1.401-1.663-.156-.32-.252-.431-.526-.606-.272-.174-.336-.248-.336-.384 0-.254-.273-1.085-.462-1.407-.091-.157-.381-.514-.643-.794s-.613-.682-.78-.895c-.462-.591-.542-.494-.21.253.163.369.201.543.224 1.027.024.51.05.62.205.863.32.504.31.861-.028 1.068a.925.925 0 0 1-1.008-.057c-.379-.278-.437-.377-.549-.939a6.052 6.052 0 0 0-.285-.957l-.18-.43.127-.137.128-.135-.164-.323c-.09-.178-.149-.361-.131-.407.017-.046.145-.155.283-.243.22-.139.25-.186.25-.39-.002-.253-.204-.758-.304-.758-.063 0-.147.262-.225.698-.043.236-.153.353-.518.554-.262.144-.253.396.03.917.344.632.522 1.09.65 1.675.064.297.21.718.321.936l.204.394.65.22c.487.165.766.304 1.114.559.255.187.602.408.77.493.169.084.475.328.682.54.242.25.614.528 1.047.785.52.309.872.586 1.562 1.234l.89.835.855.282c.47.154.91.295.979.312.224.057.817-.018 1.155-.145zm-9.89-2.548c.023-.036-.013-.127-.08-.201-.097-.106-.13-.259-.16-.723-.044-.697-.172-1.167-.365-1.346-.078-.07-.382-.27-.676-.444-.295-.172-.607-.4-.695-.503-.307-.365-.368-.926-.165-1.517.068-.198.167-.613.22-.924.052-.31.138-.695.19-.855.103-.317.42-.65.752-.787.11-.046.185-.108.167-.138-.065-.105-.438-.054-.75.102-.422.21-.728.519-.9.909-.352.795-.813 1.697-.952 1.862-.181.215-.202.574-.05.87.056.11.37.453.698.764.583.552.724.76.917 1.356.033.102.195.378.36.612.24.341.363.456.618.573.175.08.379.215.453.301.14.161.347.206.418.09zm9.262-2.404c0-.03-.067-.205-.148-.389-.114-.258-.159-.5-.194-1.06-.04-.646-.058-.727-.158-.727-.062 0-.13.027-.151.061-.021.035-.077.062-.124.062-.068 0-.084-.134-.078-.652.007-.533-.01-.67-.095-.755-.139-.14-.166-.097-.232.363-.03.217-.128.575-.216.797-.255.643-.357 1.153-.278 1.392.087.264.17.332.828.676.51.267.846.359.846.232zm3.685-.886c.088-.04.15-.1.14-.133-.011-.033-.48-.213-1.04-.4-.56-.187-1.173-.418-1.36-.512-.382-.191-.744-.287-.744-.196 0 .105.539.558.847.713.368.184.835.34 1.446.482.584.135.524.131.711.046zm-6.892-.965c-.35-.67-.48-1.11-.539-1.829a3.702 3.702 0 0 0-.252-1.03c-.117-.303-.23-.667-.254-.81-.035-.222-.022-.271.097-.354.124-.088.133-.13.096-.449l-.04-.351.318-.298c.214-.2.545-.405 1.014-.626.383-.18.731-.371.775-.424.054-.065.066-.184.037-.378-.038-.255-.03-.283.081-.283.169 0 .25-.114.299-.421.032-.202.068-.26.16-.26.135 0 .76.407.95.618.068.076.309.232.535.346.226.114.477.293.558.398.439.57.35.524.891.46.267-.03.493-.084.502-.119.037-.133-3.279-2.137-3.535-2.137-.395 0-3.189 2.903-3.455 3.59-.045.115-.032.289.046.634.105.465.105.485-.028 1.013l-.135.539.13.27c.073.15.324.46.56.689.305.299.51.573.717.964.265.499.666.972.752.887.019-.02-.107-.307-.28-.64zm8.06.263c-.008-.034-.125-.087-.263-.117-.223-.049-.247-.071-.214-.2.042-.169-.084-.75-.175-.806-.034-.02-.105.006-.158.059-.088.088-.086.132.027.477l.125.38-.13-.04c-.326-.1-1.142-.17-1.313-.112l-.18.06.147.078c.08.044.371.118.646.166.274.048.513.102.531.12.06.06.968-.001.956-.065zm-7.518-.66c.126-.174.186-.33.186-.483 0-.183.048-.272.253-.47a2.2 2.2 0 0 0 .34-.411c.048-.092.199-.295.336-.453.168-.195.248-.346.248-.47 0-.275-.143-.23-.544.174-.937.943-1.346 1.683-1.19 2.153.039.12.096.217.128.217.03 0 .14-.115.243-.257zm5.838-.147c.219-.145.348-.309.289-.367-.013-.013-.224.044-.469.127-.545.183-.935.204-1.383.075-.341-.098-.816-.077-.83.036-.003.03.142.104.322.163.18.059.347.128.372.153.024.026.362.03.75.01.622-.033.737-.056.949-.197zm-2.447-.468c.249-.095.077-.24-.236-.197-.203.027-.276.006-.406-.115-.42-.393-.452-1.057-.068-1.466.276-.295 1.366-.525 2.057-.433.209.028.184-.187-.048-.42-.167-.166-.267-.215-.441-.215-.137 0-.238.035-.259.089-.041.107-.463.283-.68.283-.39 0-.84.376-1.017.85-.187.502-.167.956.058 1.282.32.465.532.535 1.04.342zm2.142-.022c.267-.12.75-.553.718-.645-.024-.072-.899.436-1.104.641-.082.082-.076.093.047.093.077 0 .229-.04.339-.09zm-1.366-.175c.08-.12.149-.14.51-.143.367-.004.432-.023.534-.155.126-.164.154-.495.057-.676-.073-.136-.5-.224-.662-.136-.136.074-.343.41-.287.467.061.06.323.047.458-.026.153-.081.275-.018.182.094-.037.045-.226.096-.421.115-.196.018-.411.043-.48.053-.104.017-.126-.02-.142-.235-.014-.201.016-.295.145-.449.14-.166.15-.2.064-.232-.148-.057-.434.083-.584.287-.163.22-.165.276-.012.429.066.066.153.24.192.387.04.147.084.288.1.313.058.096.257.042.346-.093zm2.818-.12c.144-.098.329-.267.411-.377.223-.296.474-.825.474-.997 0-.16-.335-.846-.448-.915-.228-.141-.3.179-.14.628.177.505.135.668-.273 1.051-.365.344-.6.7-.534.807.047.075.19.02.51-.197zm-11.282-.299c-.077-.384-.323-.835-.737-1.354-.501-.628-.688-.96-.635-1.127.054-.17.164-.15.37.066.194.2.342.24.342.092 0-.052-.056-.295-.124-.541-.187-.674-.188-.67.232-.635.358.029 1.516.14 1.555.15.011.002.143.13.291.282.3.309.41.313.56.022.052-.1.33-.474.618-.832s.524-.663.524-.678c0-.015-.119-.09-.264-.167-.248-.133-.325-.14-1.384-.129-1.676.018-2.447.169-3.6.702-.28.13-.59.253-.692.275-.102.023-.198.077-.215.121-.06.156.385.94.776 1.367.215.234.648.617.964.85.589.435.84.719 1.113 1.258.25.495.37.605.306.278zm4.876-1.23c.56-.312.857-.547 1.11-.881.127-.169.232-.32.232-.337 0-.087-.21-.001-.564.23-.218.143-.55.346-.739.45-.206.114-.544.405-.852.733-.45.48-.51.57-.51.775v.23l.48-.499c.276-.286.635-.585.843-.7zm2.395.764l.031-.304.48-.18c.278-.104.48-.216.48-.265 0-.12-.252-.106-.625.036-.484.183-.551.27-.551.7 0 .457.139.467.185.013zm2.887.189c.13-.197.076-.521-.115-.698-.267-.248-1.218-.437-1.18-.235.006.033.214.132.463.22.507.178.634.325.571.666-.029.158-.016.201.062.201.054 0 .144-.07.2-.154zm.46-.249c.05-.06.067-.214.049-.435-.023-.27-.067-.383-.21-.534-.299-.319-.882-.531-.987-.36-.063.102.07.218.344.3.31.093.465.326.523.787.043.346.132.422.28.242zm-4.32-.47c.164-.558.534-.93 1.116-1.122.483-.159.586-.29.322-.41-.35-.16-.915-.068-1.2.194-.189.172-.566.948-.566 1.162 0 .188.117.554.177.553.022 0 .09-.17.15-.376zm4.914.1c.021-.086.028-.381.016-.657-.021-.46-.038-.515-.196-.652a.61.61 0 0 0-.375-.149c-.204 0-.675-.256-.84-.458-.208-.253-.378-.282-1.437-.251-.556.016-1.039.057-1.072.09-.04.04-.018.062.064.062.069 0 .249.04.4.087.15.048.623.148 1.049.221.588.101.873.185 1.184.346.24.125.501.213.628.213.12 0 .244.035.276.078.033.042.064.31.071.596.007.286.027.544.045.574.062.1.148.054.187-.1zm-7.321-.93c.182-.17.44-.33.66-.41.197-.073.404-.181.459-.241.09-.101.089-.14-.026-.474-.068-.2-.15-.357-.18-.35-.03.006-.28.167-.555.356-.446.308-.51.377-.593.639-.126.4-.181.758-.117.758.029 0 .187-.125.352-.278zm7.594-.61c0-.045-.085-.21-.188-.367-.152-.23-.294-.338-.733-.565-.46-.238-.635-.293-1.129-.353a5.642 5.642 0 0 0-.925-.04c-.418.037-1.61.397-1.61.486 0 .037.07.049.17.027.094-.02.387-.063.652-.096s.53-.085.589-.116c.143-.074 1.06.01 1.558.142.412.11.767.318 1.238.728.288.25.378.288.378.154zm-4.406-3.976c.249-.154.501-.28.562-.28.06 0 .212.083.339.183.361.288.57.117.236-.194-.421-.393-.635-.39-1.315.022-.29.177-.538.329-.551.339-.013.01-.007.06.013.113.06.157.238.111.716-.183z" fill="#212121"/></svg>