<svg xmlns="http://www.w3.org/2000/svg" width="64" height="64"><path d="M30.766 62.974c-4.687-.2-9.29-1.442-13.294-3.59-4.588-2.462-8.418-5.926-11.262-10.187C2.054 42.97.309 35.54 1.248 28.069 2.526 17.9 8.804 8.994 17.988 4.327a30.667 30.667 0 0 1 10.246-3.115C29.639 1.042 30.392 1 32.009 1c1.622 0 2.393.043 3.775.21 8.87 1.066 16.869 5.963 21.92 13.418 2.982 4.403 4.731 9.362 5.214 14.782.098 1.102.111 3.838.023 4.876-.363 4.295-1.421 8.09-3.268 11.722-4.113 8.093-11.62 14.035-20.372 16.125-2.794.668-5.757.96-8.535.841zm1.35-2.397c.214-.11.398-.226.408-.258.01-.03.05-.647.09-1.37.078-1.429.668-8.193.729-8.346.022-.056.276-.218.645-.41l.608-.315.031 2.398c.017 1.32.031 3.046.031 3.838v1.44l.371.105.371.106.285-.176c.157-.097.305-.2.33-.229.023-.029.065-.422.092-.873.027-.45.18-2.798.34-5.215.16-2.418.278-4.409.262-4.424-.015-.016-1.169.549-2.563 1.254l-2.534 1.282-.001 5.712c0 4.547.011 5.71.058 5.697.032-.008.233-.106.447-.216zm-1.2-.303c-.013-.187-.049-.36-.08-.387-.04-.033-.116-1.379-.268-4.749-.116-2.586-.225-4.715-.241-4.731-.016-.017-3.227-.74-7.134-1.609l-7.104-1.578-.003.191-.052 4.412c-.027 2.32-.053 4.388-.056 4.595l-.007.375.352.028c.194.016.358.024.365.018.007-.006.03-1.965.05-4.353.02-2.388.046-4.351.058-4.363.022-.022 1.003.183 1.538.322.164.043.332.065.372.05.041-.017.331.018.645.075.44.08.569.12.565.176-.004.052.087.089.346.139.463.09 9.389 2.065 9.404 2.08.007.008.11 2.132.228 4.722.119 2.59.228 4.72.243 4.736.035.036.58.18.705.187.094.004.098-.012.075-.336zm-15.64-3.727c-.016-.123-.177-2.418-.358-5.1-.18-2.682-.334-4.94-.341-5.017-.012-.133-.03-.144-.358-.224a2.227 2.227 0 0 0-.357-.07c-.008.01.442 6.777.688 10.352l.015.21.258.028c.523.056.484.072.453-.18zm27.37-1.9c.075-.1.097-.205.102-.49l.007-.362.184-.08c.16-.07.225-.152.483-.606.165-.288.357-.59.427-.671.094-.109.135-.219.159-.428.018-.155.044-.36.06-.457l.028-.176h-.17c-.131 0-.17-.019-.17-.082 0-.045.168-2.35.375-5.122.276-3.705.395-5.094.449-5.24.092-.249.395-.563.713-.742l.244-.137v-.27c0-.252.013-.282.182-.445.234-.228.804-.635 1.366-.978.552-.336 1.475-.816 1.57-.816.058 0 .071-.076.071-.415 0-.505.065-.624.516-.943.329-.233.663-.668.748-.976.032-.113.049-1.548.049-4.103v-3.93l-.48.488c-.624.631-1.135 1.002-1.888 1.37-1.158.566-2.692.953-5.012 1.265-.487.065-.96.154-1.05.197-.115.054-.193.141-.262.292-.094.204-.098.29-.1 1.879-.003 1.887.005 1.832-.402 2.626-.404.786-.792 1.18-1.38 1.4a2.435 2.435 0 0 0-.973.654c-.482.505-.457.363-.457 2.68 0 1.89.005 2.017.082 2.017.045 0 .42-.096.832-.213.413-.117.914-.236 1.114-.265.673-.096 1.124.103 1.249.55.036.13.052 1.689.052 5.133.001 4.92.025 5.843.163 6.233.04.111.071.346.071.522 0 .355.051.53.201.69.09.095.138.106.426.094.292-.012.335-.026.42-.142zm-22.225-.984c.014-.187.037-.836.051-1.442.014-.606.039-1.431.055-1.834l.029-.732-.342-.077a2.374 2.374 0 0 0-.353-.065c-.02.021-.115 3.175-.115 3.82v.618l.223.017.324.026c.094.008.104-.018.128-.331zm-1.393-.117c-.092-1.554-.272-4.218-.287-4.261-.019-.052-.64-.215-.678-.178-.022.021.221 4.42.257 4.65l.024.152h.706l-.022-.363zm11.792-5.24c-.01-.18-.02-.33-.024-.333-.003-.003-3.583-.717-7.955-1.586-4.371-.87-7.982-1.59-8.023-1.602-.063-.017-.081.037-.107.315-.017.185-.02.347-.008.36.045.044 15.852 3.189 15.993 3.182l.14-.008-.016-.328zm3.768-1.38l2.767-1.402.012-.758c.015-.872.078-.808-.532-.542-.285.124-.343.165-.28.2.059.033-.5.311-2.387 1.189l-2.464 1.146v.285c0 .446.058 1.286.09 1.284.015 0 1.272-.631 2.794-1.402zm-3.995-.15c.143-.076.172-.132.172-.333 0-.13-.026-.192-.104-.243-.06-.04-3.09-.619-7-1.339a3201.12 3201.12 0 0 1-7.117-1.315 2.328 2.328 0 0 0-.365-.046c-.156 0-1.138.478-1.028.501.038.008 2.592.48 5.674 1.048 6.146 1.133 6.874 1.268 8.464 1.568 1.26.237 1.174.227 1.304.158zM14 44.542l-.033-.926 2.48-1.137 2.479-1.137 8.08 1.407c4.445.773 8.12 1.406 8.167 1.406.084 0 1.07-.401 1.137-.462.024-.023-14.58-2.594-16.904-2.976-.174-.029-.27-.067-.27-.108 0-.128-.247-.058-.95.269-.392.183-.777.37-.855.415-.077.045-1.021.49-2.098.989l-1.958.906V45.138l.258.075c.149.044.258.102.258.139 0 .055.068.093.203.112.022.003.025-.411.006-.92zm23.317-3.042c-.01-.01-5.43-1.75-12.042-3.865l-12.973-4.15c-.77-.248-.95-.32-.95-.39 0-.065-.08-.106-.36-.183-.2-.055-.37-.093-.379-.083-.009.009.011.212.045.45l.062.435 13.294 4.253 13.294 4.253.013-.35c.008-.194.006-.36-.004-.37zm-18.59-1.621a.658.658 0 0 1 .27-.027c.098.014.144-.001.159-.054.01-.04.027-.61.035-1.267l.016-1.194L18.152 37c-.58-.186-1.06-.333-1.067-.326-.016.016.181 3.742.202 3.812.011.038.237-.047.664-.25.355-.17.705-.33.777-.356zm17.782-2.158l.035-.62.394-.479c.216-.263.378-.488.358-.5-.069-.043-1.035-.313-1.118-.313-.046 0-.281.127-.523.282-.242.154-.465.28-.495.28-.09.001-.896-.24-.94-.28-.02-.02.133-.168.34-.329.21-.16.38-.308.38-.327 0-.019-.177-.082-.392-.14l-.392-.105-.4.31c-.221.17-.432.31-.47.31-.097 0-1.364-.377-1.407-.418-.02-.02.136-.168.346-.331.271-.21.363-.306.317-.331a3.712 3.712 0 0 0-.403-.13l-.34-.096-.41.318-.412.319-.422-.127c-.232-.07-.452-.136-.488-.149-.042-.014.075-.132.318-.32.212-.164.368-.314.348-.333-.02-.019-.2-.08-.4-.136l-.364-.1-.4.311-.398.311-.773-.226c-.426-.125-.774-.243-.774-.261 0-.019.158-.153.351-.299.194-.145.342-.28.33-.299-.012-.019-.19-.082-.395-.14l-.375-.107-.394.308-.395.308-.481-.15-.482-.15.358-.275c.197-.15.358-.29.358-.309 0-.033-.642-.236-.748-.236-.028 0-.212.126-.409.28-.196.156-.378.282-.404.282-.063 0-1.166-.329-1.24-.37-.038-.02.068-.13.298-.306.4-.308.403-.296-.11-.44l-.34-.095-.362.277c-.199.153-.392.278-.428.278-.092 0-.868-.237-.913-.28-.02-.018.111-.147.293-.285.181-.138.33-.265.33-.282 0-.017-.179-.079-.398-.138l-.398-.107-.367.285-.367.284-.835-.252a20.645 20.645 0 0 1-.849-.266c-.008-.009.15-.131.352-.273.202-.141.362-.263.355-.27a5.887 5.887 0 0 0-.421-.13l-.41-.12-.33.241a4.164 4.164 0 0 1-.392.264c-.05.02-1.225-.292-1.28-.34-.009-.008.157-.124.368-.259.255-.161.364-.255.322-.276a4.93 4.93 0 0 0-.44-.14l-.375-.106-.398.256-.397.255-.676-.202c-.372-.112-.684-.211-.694-.222-.01-.01.183-.098.43-.195.246-.098.447-.19.447-.205 0-.015-.282-.107-.627-.204l-.627-.176-.791.344-.792.343-.013.43-.013.428.247.073c.137.04 5.44 1.674 11.784 3.631 6.345 1.957 11.549 3.56 11.565 3.562.016.003.044-.274.063-.615zm2.975-3.246c.256-.132.295-.475.078-.679-.079-.074-3.148-.966-12.026-3.497-6.556-1.87-11.978-3.398-12.048-3.398-.409 0-.562.578-.208.781.143.083 23.79 6.848 23.964 6.856a.577.577 0 0 0 .24-.063zm.078-4.234c-.012-.012-5.357-1.392-11.877-3.066l-11.96-3.07-.105-.028v.895c0 .89 0 .895.105.922.058.014 5.444 1.487 11.97 3.273l11.864 3.247.012-1.076c.007-.591.003-1.085-.01-1.097zm-28.405 1.29a29.507 29.507 0 0 1-.112-1.286c-.03-.525-.025-.586.067-.777.14-.29.549-.566 1.235-.836.513-.203 1.183-.794 1.41-1.243.194-.385.228-.67.256-2.114l.026-1.368-.206-.054-.352-.091-.146-.039-.026 1.46c-.03 1.69-.05 1.803-.392 2.184-.286.317-.512.468-1.08.718-.789.347-1.228.719-1.426 1.207-.088.217-.078 1.154.022 2.083.042.384.08.703.087.707.039.027.544.157.622.16.095.004.095.001.015-.711zm29.164-2.639a.442.442 0 0 0 .105-.238c0-.11-.118-.394-.164-.394-.011 0-3.012-.74-6.67-1.644-11.57-2.86-12.54-3.096-12.63-3.067-.137.044-.278.254-.278.417 0 .184.098.327.268.394.072.029 4.214 1.058 9.204 2.287 4.991 1.23 9.222 2.274 9.403 2.32.41.106.623.085.762-.075zm6.225-.775c.593-.13 1.104-.246 1.135-.256.039-.013-.127-.558-.521-1.718-.478-1.404-.597-1.708-.682-1.746-.073-.032-.132-.03-.194.01-.063.04-.09.04-.09.004 0-.028-.063-.11-.14-.183-.109-.101-.421-.793-1.38-3.055a273.342 273.342 0 0 0-2.699-6.218c-.476-1.064-.56-1.22-.833-1.54-.247-.288-.323-.35-.404-.328a1.324 1.324 0 0 1-.265.028c-.332.003-.335-.026.151 1.367.246.706.495 1.44.553 1.634.058.194.121.362.141.375.05.033 1.65 4.547 1.662 4.69.013.158.955 2.818 1.03 2.906.032.039.371.955.754 2.035.616 1.742.689 1.98.644 2.098-.037.1-.036.134.005.134.03 0 .54-.106 1.133-.237zm3.077-1.615a1.01 1.01 0 0 0 .087-.258c.001-.123-.414-.605-.71-.823-.404-.297-1.49-.789-1.57-.71-.041.041.542 1.753.62 1.818.038.03.284.19.548.354l.48.298.23-.245c.126-.135.268-.33.315-.434zM37.8 26.82c0-.13.358-2.079.514-2.802.2-.934.233-1.35.12-1.568-.038-.073-.185-.233-.328-.354-.255-.218-.272-.225-1.247-.47-.543-.135-1-.258-1.013-.272-.014-.014.054-.28.152-.59.097-.312.166-.577.153-.59-.012-.012-.253 0-.535.027-1.172.114-1.98-.074-2.724-.632-.519-.39-.95-.508-1.489-.408a2.353 2.353 0 0 0-.287.063c-.01.013.081.66.096.681.005.007.114-.012.243-.041.382-.088.616-.026 1.008.267.666.498 1.324.73 2.254.796.291.02.457.051.456.085-.001.03-.337 1.129-.747 2.444s-.742 2.393-.738 2.397c.019.014 3.999.995 4.053.999.033.002.06-.012.06-.032zm-7.563-3.954l.433-1.989-.072-.467a6.206 6.206 0 0 0-.084-.48c-.006-.007-.13.172-.274.397l-.263.41-.43 1.984c-.237 1.092-.424 1.99-.415 1.998.034.029.581.157.626.147.025-.006.241-.906.48-2zm-4.269-1.078l.391-2.347.053-.312.243.065c.341.09.874.08 1.365-.029a4 4 0 0 1 .576-.093c.228 0 .652.162.949.364.143.096.274.182.291.19.018.008.119-.113.225-.27l.193-.284-.328-.211c-.528-.342-.72-.41-1.225-.434a3.393 3.393 0 0 0-.82.053c-.639.126-.907.137-1.302.054a5.953 5.953 0 0 1-.428-.1c-.045-.017-.092.096-.167.401-.06.243-.13.425-.162.425-.031 0-.156-.034-.277-.075-.512-.175-1.435.173-1.668.628a5.023 5.023 0 0 0-.217.596c-.168.552-.722 2.76-.698 2.785.03.03 2.571.652 2.621.64.025-.005.198-.926.385-2.046zm16.971 1.399c-.06-.162-.284-.793-.498-1.404l-.39-1.111-.374-.17c-.939-.43-2.07-.715-3.01-.76-.804-.038-1.273.013-1.413.153-.144.144-.14.324.01.473.11.112.14.118.433.091l.314-.028 2.485 1.52a154.1 154.1 0 0 0 2.519 1.525c.018.002-.016-.128-.076-.29zm-26.304-.318c2.453-.697 2.502-.711 2.502-.748 0-.072-.228-.585-.265-.597-.022-.007-1.254.333-2.736.755-2.228.635-2.672.775-2.556.805.869.227 1.133.294 1.179.298.03.002.873-.229 1.876-.513zm30.367-.127c.278-.277.505-.519.505-.537 0-.02-.993-1.539-2.207-3.377l-2.208-3.343.414-.398c.227-.22 1.553-1.495 2.946-2.835a389.233 389.233 0 0 0 2.81-2.72c.802-.817.954-1.59.395-2.006-.186-.139-.448-.18-.786-.121-.388.066-.897.023-1.145-.098a.663.663 0 0 1-.29-.268c-.236-.437-.71-.607-1.57-.566a4.968 4.968 0 0 0-1.803.426c-.404.187-.395.158-.196.601l.1.22.35-.164c.498-.232.98-.35 1.549-.379.668-.035.845.017 1.006.292.223.38.729.623 1.384.664.22.013.514.003.655-.023.14-.026.282-.036.316-.023.167.064-.052.528-.438.93-.125.13-1.542 1.5-3.15 3.047-2.297 2.211-2.917 2.832-2.9 2.905.01.052.795 1.824 1.742 3.94l1.832 4.09c.06.135.127.246.147.246.02 0 .264-.226.542-.503zm-25.614-2.023c1.526-.878 1.624-.942 1.728-1.136.47-.873.94-1.177 1.833-1.187l.442-.005.104-.413c.057-.227.115-.424.128-.437.013-.013.202.043.42.126l.395.15 8.319-4.772c4.575-2.625 8.376-4.833 8.446-4.907l.129-.135-.123-.306c-.096-.24-.139-.299-.198-.275l-.124.05c-.026.011-.117-.107-.202-.262a1.744 1.744 0 0 0-.174-.282c-.028 0-23.248 13.463-23.3 13.509-.025.023-.023.062.005.098.026.034.1.198.167.366.211.534.312.75.35.75.02-.001.765-.42 1.655-.932zm13.255-1.482c.15-.064 1.55-.635 3.11-1.268 1.56-.634 2.853-1.168 2.871-1.186.05-.05-.161-.67-.22-.648-.545.209-6.812 2.773-6.84 2.798-.036.032.675.42.768.42.021 0 .161-.052.311-.116z"/></svg>