<svg xmlns="http://www.w3.org/2000/svg" width="64pt" height="64pt" viewBox="0 0 64 64"><path d="M30.902 63.563c-4.746-.223-9.16-1.36-13.254-3.41A32.223 32.223 0 0 1 4.59 48.147C.293 41.105-1.06 32.61.84 24.528 2.688 16.683 7.578 9.75 14.41 5.284 18.66 2.508 23.305.812 28.297.22 29.757.043 30.539 0 32.215 0c1.687 0 2.488.043 3.926.215 9.214 1.094 17.547 6.133 22.773 13.762 3.11 4.554 4.914 9.597 5.418 15.156.102 1.137.113 3.941.023 5.004-.378 4.406-1.476 8.3-3.398 12.023-4.05 7.871-11.246 13.746-19.8 16.18-3.274.933-6.977 1.37-10.255 1.222zM28.63 47.05c2.41-7.684 4.39-14.008 4.398-14.051.016-.066-2.293-3.742-2.468-3.926-.043-.05-.082.012-.188.309-.437 1.203-1.41 3.144-2.707 5.387-1.918 3.308-5.121 8.304-8.078 12.605-.285.41-.563.82-.84 1.234 0 .004.113-.027.254-.074.73-.25 1.457.07 2.008.883.933 1.387 2.137 5.715 2.926 10.52.097.593.191 1.136.207 1.199l.027.12.039-.12c.023-.063 2.016-6.407 4.422-14.086zm20.078 8.601c-.234-1.367-.254-2.968-.05-3.722.253-.93.71-1.582 1.585-2.262.215-.164.965-.664 1.656-1.113.7-.446 1.438-.934 1.641-1.078l.379-.27-1.766-1.152c-3.992-2.617-6.773-4.672-8.441-6.23-.617-.579-2.863-3.02-4.43-4.821-4.715-5.426-7.832-10.078-9.832-14.691-1.785-4.122-2.547-8.215-1.984-10.72.12-.538.45-1.511.629-1.866.312-.602.98-1.32 1.672-1.782 2.097-1.398 4.57-1.347 6.765.137.469.32 1.324 1.055 1.528 1.316.074.098.148.168.16.157.05-.051-.625-1.508-1-2.149-.84-1.449-2.114-2.765-3.352-3.465-1.246-.699-2.472-.992-3.965-.945-.824.027-1.23.086-2.117.293-2.129.512-3.676 1.727-4.375 3.445-.379.926-.52 1.762-.523 3.012-.004 1.879.347 3.676 1.218 6.27.665 1.96 1.356 3.625 2.715 6.511.38.793.797 1.692.938 1.996 1.648 3.57 6.187 10.676 14.023 21.98 1.996 2.876 4.09 6.345 6.317 10.446.367.684.675 1.235.683 1.23a4.63 4.63 0 0 0-.074-.527zM35.168 26.758c2.191-5.188 3.61-9.625 3.973-12.406.109-.868.074-2.668-.07-3.586a18.11 18.11 0 0 0-.426-1.973c-.188-.637-1.622-2.043-2.778-2.727-1.414-.84-3.054-1.015-4.582-.5-.3.102-.773.325-.539.25.363-.105.887-.218 1.043-.218.285 0 .89.164 1.238.34.758.375 1.559 1.082 2.047 1.804 1.555 2.293 1.809 5.797.746 10.168-.324 1.324-.468 1.73-1.656 4.64-.652 1.61-1.191 2.95-1.191 2.985 0 .04.367.617.808 1.297.54.813.828 1.207.852 1.168.02-.035.262-.598.535-1.242zm0 0"/></svg>