<svg xmlns="http://www.w3.org/2000/svg" width="64pt" height="64pt" viewBox="0 0 64 64"><path d="M30.902 63.563c-4.136-.192-8.039-1.079-11.644-2.649-8.817-3.84-15.469-11.39-18.055-20.492a31.584 31.584 0 0 1 1.356-21.09c.382-.883 1.406-2.883 1.894-3.687C9.04 8.059 16.398 2.742 25.016.793 31.09-.578 37.602-.164 43.367 1.961c1.172.422 2.313.922 3.422 1.484a31.535 31.535 0 0 1 7.926 5.614c7.453 7.195 10.875 17.296 9.34 27.523a31.609 31.609 0 0 1-3.88 10.992 32.243 32.243 0 0 1-23.46 15.7c-1.938.269-4.055.374-5.813.292zm.04-6.856c.09-.043.273-.168.421-.277.211-.157.313-.2.528-.215.359-.031.453 0 .707.23.215.2.218.2.27.094.07-.137.444-.336.632-.336.098 0 .191-.05.305-.168.191-.2.36-.226.422-.058.082.214.148.195.468-.13.176-.179.297-.335.27-.35-.074-.044-.055-.204.031-.235.04-.016.137.004.215.039.078.039.348.097.602.129.253.03.476.062.496.074.078.05.035-.117-.063-.242l-.105-.13.152-.144c.121-.11.148-.168.125-.261-.059-.235.113-.442.285-.34.031.02.137.039.234.047.094.004.243.023.333.043.14.03.16.023.234-.118a.306.306 0 0 1 .226-.18c.122-.023.149-.058.176-.222.059-.375.282-.434.54-.145l.156.18.156-.144c.156-.149.183-.274.101-.489-.043-.113-.039-.132.047-.156.215-.058.035-.289-.261-.336-.172-.031-.239-.12-.13-.191.075-.043.06-.176-.038-.242-.106-.082-.051-.137.199-.22.097-.026.195-.07.207-.093.054-.086-.04-.207-.238-.3a2.879 2.879 0 0 1-.22-.118c-.01-.008.028-.074.083-.148a.441.441 0 0 0 .101-.2c0-.082.2-.066.536.04.14.042.156.074.156.23.004.316.07.348.285.14.18-.171.309-.23.309-.14a.9.9 0 0 0 .152.219l.156.183.203-.195c.176-.172.23-.195.473-.207.25-.016.273-.027.285-.14.02-.18-.144-.364-.402-.434-.235-.067-.524-.223-.524-.281 0-.02.059-.098.121-.168.153-.16.16-.262.024-.329-.145-.082-.117-.175.097-.343.188-.153.192-.16.122-.274-.153-.226.101-.457.492-.453.172 0 .547.152.687.277.055.051.102.063.137.028.035-.031.023-.067-.027-.113-.211-.172.07-.188 1.007-.051.555.078.625.082.676.011.051-.054.086-.062.176-.023.082.035.168.031.332-.016.133-.039.316-.058.465-.035.25.028.25.028.371-.172.137-.218.2-.25.594-.289.312-.039.36-.117.203-.34-.102-.136-.344-.261-.89-.464l-.317-.11.219-.12c.117-.063.214-.15.214-.188 0-.04-.105-.106-.238-.153a1.424 1.424 0 0 1-.293-.136c-.078-.079.238-.235.598-.293.457-.078.512-.118.445-.297-.062-.184-.207-.258-.414-.227-.133.024-.184 0-.312-.129-.086-.09-.153-.172-.153-.191 0-.016.14-.098.313-.172.457-.207.601-.457.351-.621-.07-.047-.12-.106-.12-.14 0-.13.25-.364.421-.395.191-.035.215-.086.07-.164-.14-.075-.125-.188.036-.227.152-.055.304-.117.445-.195.176-.09.375-.164.45-.164.124 0 .132-.012.112-.2-.023-.234.024-.289.27-.328.16-.027.191-.05.215-.191a.707.707 0 0 1 .113-.246c.133-.14.105-.457-.043-.637-.168-.191-.293-.187-.398.008a2.701 2.701 0 0 1-.278.398c-.164.207-.218.243-.37.243-.145.004-.2.035-.29.168-.11.156-.125.164-.422.164a1.69 1.69 0 0 1-.457-.055c-.219-.09-.32.055-.32.477 0 .324 0 .324-.16.37-.149.047-.157.063-.157.266 0 .102.012.2.04.301.027.055.003.086-.09.11-.075.019-.2.132-.301.265-.203.281-.297.313-.59.219-.34-.117-.387-.078-.352.3.028.305.024.317-.093.344-.145.035-.14.008-.024.278l.094.215-.285.085c-.375.11-.54.235-.465.352.055.09.371.27.758.422l.223.086-.16.039c-.169.039-.2.058-.594.367a6.99 6.99 0 0 1-.473.328c-.219.133-.234.137-.605.086a8.02 8.02 0 0 1-.536-.078c-.113-.02-.172-.004-.242.07-.082.09-.105.094-.172.04-.12-.102-.508-.231-.695-.227-.137 0-.219.05-.406.226-.223.207-.235.227-.184.371.027.086.074.16.125.235.074.074.07.082-.02.113-.05.016-.124.094-.16.172-.086.188-.312.246-.414.11a.486.486 0 0 0-.277-.133.766.766 0 0 1-.262-.07 1.127 1.127 0 0 0-.336-.075l-.277-.035v.273c0 .207-.027.293-.105.371-.059.059-.13.094-.16.082-.231-.09-.282-.09-.282-.011 0 .039.047.164.098.265l.101.196h-.187c-.207 0-.402.109-.402.226 0 .043-.079.164-.176.266-.2.219-.223.37-.063.402l.383.078c.383.075.676.188.707.262.031.086-.078.188-.5.465-.375.25-.418.36-.234.57l.117.14-.117.192a.713.713 0 0 0-.117.301c0 .145-.032.152-.454.191-.328.032-.375.051-.52.196-.093.097-.187.152-.23.133-.132-.051-.277.07-.277.238-.004.23-.05.375-.129.375-.07 0-.09-.035-.219-.383-.074-.191-.285-.297-.601-.297-.324 0-.363.043-.293.324l.066.235-.156.125-.164.129.11.148c.14.195.132.27-.044.473-.152.168-.164.168-.527.168-.371 0-.375.004-.555.191l-.183.188-.25-.055c-.172-.031-.29-.031-.364 0-.476.21-.597.297-.859.61-.152.183-.344.39-.422.452-.164.137-.168.157-.05.188a.493.493 0 0 0 .417-.047zM11.804 54.07c.8-.488 1.722-.984 2.347-1.27.614-.277.618-.277.618-.39 0-.152-.16-.203-.38-.113-.35.144-1.468.707-2.035 1.027-.957.543-1.378.828-1.378.93 0 .078.105.191.187.2.012 0 .297-.169.64-.384zm35.238.13c.004-.036.008-.138.016-.231.004-.149.023-.176.152-.2.148-.027.168-.07.098-.285l-.036-.113.329.035c.378.04.453.004.503-.254.024-.148.012-.183-.109-.277l-.14-.11.105-.132.11-.137-.145-.137a.42.42 0 0 1-.07-.57c.074-.105.109-.113.456-.098l.376.012.015-.156c.016-.188.04-.188.336-.047.223.105.227.105.293.012.07-.094.074-.094.336.035.258.125.266.125.41.039.2-.121.328-.328.29-.488-.016-.094 0-.16.07-.22.222-.198.05-.386-.415-.46-.328-.05-.375-.078-.375-.191 0-.063.07-.114.223-.168.184-.075.223-.11.223-.215a.432.432 0 0 0-.11-.239c-.132-.136-.093-.183.235-.296.215-.079.242-.106.285-.278.043-.18.035-.195-.129-.336-.145-.129-.164-.164-.117-.242.039-.058.039-.098.004-.105-.07-.043-.145-.082-.219-.125l-.168-.102.137-.117c.156-.133.203-.117.3.105.079.184.168.207.391.098.121-.066.149-.066.242 0 .137.094.282.09.282-.008 0-.066.03-.054.168.047.16.125.437.172.488.094.012-.024.047-.223.082-.442.062-.488.05-.52-.352-.625-.254-.074-.285-.093-.258-.183.016-.078-.039-.188-.175-.371-.114-.145-.203-.29-.203-.32 0-.036.093-.055.242-.055.293 0 .336-.02.422-.235.058-.136.109-.172.293-.218.195-.047.222-.075.238-.207.016-.149.02-.153.312-.18.305-.024.418-.066.418-.156 0-.028.04-.118.094-.203l.094-.153.34.031c.277.032.351.016.465-.058.171-.117.25-.117.324.008.043.062.113.097.222.097.149 0 .18.024.254.192.098.203.258.293.551.293.16 0 .219-.063.117-.121-.07-.043-.058-.332.02-.442.054-.07.133-.09.332-.094.23 0 .277-.02.39-.14l.133-.149-.148-.136c-.145-.133-.145-.137-.117-.54.03-.394-.008-.562-.114-.5-.03.02-.12-.038-.21-.136-.087-.094-.184-.176-.22-.176-.034 0-.12.094-.19.195-.098.153-.153.2-.235.188-.098-.012-.106-.043-.094-.266.012-.144-.004-.265-.035-.285-.031-.016-.055-.094-.055-.16 0-.188-.039-.227-.332-.375-.312-.156-.476-.145-.496.023-.023.22-.05.258-.129.2-.11-.094-.293-.012-.547.246l-.242.238.145.25.14.25-.172.14c-.148.13-.187.137-.406.114-.277-.035-.375.02-.375.219 0 .097-.027.144-.105.168a1.69 1.69 0 0 0-.32.199c-.141.101-.278.164-.372.164-.144 0-.144.004-.129.23.012.23.008.235-.18.32-.171.087-.206.087-.394.016-.347-.12-.453-.133-.523-.05-.051.058-.121.07-.348.042-.27-.03-.285-.027-.476.149-.188.164-.22.172-.364.125-.21-.07-.367.027-.414.277a1.16 1.16 0 0 1-.105.317c-.067.129-.055.152.133.433l.203.301-.145.059c-.18.07-.304.293-.304.527 0 .14-.016.172-.086.16-.102-.015-.141.215-.07.403.038.105.027.132-.094.203-.223.132-.184.254.156.5.168.12.316.222.332.222a.285.285 0 0 1 .105.043c.063.035.051.067-.058.168a.543.543 0 0 0-.164.313c-.028.175-.047.199-.211.226-.25.047-.43.153-.555.317-.094.125-.121.136-.234.09a4.988 4.988 0 0 0-.395-.114c-.242-.066-.281-.066-.355.004-.047.043-.102.184-.118.317-.03.214-.046.234-.191.265a.5.5 0 0 0-.379.301.178.178 0 0 1-.156.113c-.211 0-.356.114-.383.285-.02.13-.059.18-.172.22-.238.085-.383.179-.336.226.02.02.239.07.48.113.567.098.61.137.462.43-.063.125-.141.23-.172.23a1.022 1.022 0 0 0-.188.05l-.129.048.102.133.11.132-.13.04c-.195.07-.172.257.047.359.094.047.172.101.172.121 0 .023-.082.133-.183.242-.168.188-.18.203-.094.262.054.039.078.101.066.14-.039.106.07.157.121.063.035-.063.07-.07.176-.027a.49.49 0 0 0 .238.023c.086-.02.114 0 .137.09.035.129.106.156.414.164.137.004.211-.016.215-.05zm-31.215-2.083c.695-.238.938-.355 1.352-.652.777-.57 2.636-1.606 6.36-3.535.632-.328 1.062-.586 1.07-.633.027-.129-.122-.238-.255-.188-.152.055-2.578 1.32-3.972 2.067-1.613.867-2.363 1.3-2.992 1.719-.793.527-1.047.664-1.649.859-.633.215-.765.3-.683.453.035.059.086.105.129.105.035 0 .324-.09.64-.195zm-5.805-1.453c2.887-1.289 4.188-1.89 6.004-2.773.97-.477 1.871-.88 2.336-1.047.422-.153.797-.301.828-.328.11-.09.055-.254-.09-.27-.253-.031-1.82.613-3.519 1.445-1.684.829-3.89 1.844-6.45 2.97-.796.355-1.39.644-1.413.694-.063.11.023.227.156.227.05 0 1.02-.41 2.148-.918zm.762-2.047c.172-.12.25-.148.492-.148.38 0 .891-.2 1.133-.446.098-.101.219-.183.266-.183.105 0 .418-.278.418-.371 0-.035.082-.067.207-.078.222-.016.258-.078.164-.29-.024-.066-.004-.085.105-.097.11-.012.145-.047.184-.184.059-.226.05-.222.219-.105.191.137.238.133.324-.035.094-.176.336-.2.445-.04.078.102.082.102.227.02a.708.708 0 0 1 .265-.086.67.67 0 0 0 .196-.027c.12-.047.422-.484.422-.61 0-.085.015-.097.062-.05.09.09.266.066.422-.067.121-.097.152-.105.176-.047.011.04.07.075.117.075.05 0 .121.027.152.058.035.035.188.059.367.059.262 0 .356-.028.633-.184.285-.16.344-.21.414-.402.098-.254.293-.406.512-.406.137 0 .152-.016.14-.13-.011-.1.016-.132.169-.187.277-.093.422-.203.445-.328.012-.098.062-.121.379-.187.207-.047.41-.098.46-.118.098-.039.16-.234.11-.316-.02-.031.016-.11.074-.172l.11-.117-.153-.176c-.086-.094-.152-.199-.152-.238 0-.129-.137-.184-.281-.106-.125.063-.153.059-.258-.02-.063-.054-.145-.097-.18-.097-.09 0-.258.219-.293.39-.023.102-.148.235-.441.466-.356.277-.418.351-.465.531-.058.234-.191.32-.289.187-.055-.074-.066-.074-.176.02-.105.102-.117.105-.199.02-.082-.075-.09-.075-.16.011a.433.433 0 0 0-.067.184c0 .12-.066.14-.238.078-.129-.047-.168-.043-.246.023-.125.118-.16.11-.484-.101-.254-.168-.317-.188-.524-.168-.23.023-.234.027-.234.191 0 .13-.02.164-.09.164-.062 0-.144.106-.273.364-.153.3-.2.355-.266.32-.059-.027-.164.004-.375.121l-.293.16-.145-.117c-.16-.137-.292-.152-.378-.047-.047.05-.157.07-.371.07-.282 0-.313.012-.34.114-.047.168-.04.351.023.41.04.039.035.09-.012.191-.058.117-.097.137-.226.13-.13-.013-.16.003-.16.073 0 .051-.055.118-.125.145-.086.039-.121.098-.121.18 0 .097-.04.14-.172.199-.14.058-.176.097-.176.207 0 .191-.047.219-.176.101-.105-.101-.117-.101-.242-.027-.121.082-.125.078-.176-.039-.07-.148-.195-.16-.312-.027-.055.054-.121.097-.164.097-.04 0-.114.055-.168.121-.11.133-.188.122-.188-.03 0-.075-.031-.09-.137-.079-.129.012-.136.004-.12-.168.011-.168.003-.187-.102-.187-.063 0-.176-.063-.258-.145-.078-.078-.191-.14-.254-.14-.074 0-.113-.04-.125-.114-.012-.09-.039-.105-.16-.094-.125.008-.246.012-.367.008-.22-.004-.399.098-.399.223 0 .031-.07.07-.164.09a.662.662 0 0 0-.273.133l-.11.101.204.215-.149.11c-.16.117-.195.269-.07.316.09.02.18.031.265.031.149 0 .207.023.25.102.051.09.086.097.313.066.426-.055.445-.055.465.047.027.133.097.172.32.172h.188l-.106.144c-.055.082-.098.2-.09.258.012.098.043.11.219.098.121-.008.227.008.242.035.05.082.164.055.375-.098zm15.707-2.21c1.512-.778 2.16-1.094 2.246-1.094.032 0 .082-.036.121-.07.032-.044.54-.317 1.125-.618 1.352-.691 1.903-1.043 1.903-1.21 0-.208-.184-.18-.63.1-.382.239-1.093.614-3.722 1.946-1.96 1-2.594 1.344-2.61 1.426-.023.125.028.226.122.226.05 0 .7-.316 1.445-.707zm-15.539.019c.094-.031.152-.031.2.008.066.058.284.043.788-.059.184-.031.262-.074.282-.14.011-.055.078-.098.164-.106a.292.292 0 0 0 .215-.149c.066-.12.062-.148-.02-.308-.082-.145-.09-.192-.035-.274.055-.086.047-.12-.043-.246-.098-.129-.102-.16-.047-.265.059-.106.059-.125-.027-.192a.366.366 0 0 0-.157-.062c-.039 0-.066-.043-.066-.094 0-.047-.043-.129-.098-.176-.058-.047-.101-.129-.101-.175 0-.09-.215-.286-.313-.286-.03 0-.129.09-.215.2-.144.187-.183.28-.168.394.004.02-.066.035-.16.035-.285 0-.422.078-.422.235a.37.37 0 0 1-.125.254c-.082.078-.125.16-.117.242.012.07-.05.222-.144.363-.086.137-.153.277-.153.316 0 .047.09.11.246.16.137.051.258.122.27.16.078.255.055.239.246.165zm9.59-.364c.8-.292 1.715-.734 2.086-1.003.742-.547 1.047-1.243.77-1.77-.235-.457-1.02-1-2.079-1.445-.695-.29-.71-.293-.804-.203-.164.164-.094.222.535.484 1.367.563 2.094 1.121 2.094 1.602 0 .207-.22.57-.5.832-.45.418-1.012.707-2.31 1.191-.612.227-.69.29-.62.465.039.11.18.082.828-.153zm16.184-.992c.203-.222.324-.246.492-.09.113.11.125.11.265.028.078-.043.176-.07.22-.055.038.016.16-.027.265-.101.164-.114.207-.125.3-.075.149.075.227.032.27-.144.035-.16.055-.172.242-.102.102.035.133.028.176-.039.04-.082.098-.09.52-.07.41.027.48.016.57-.063a.403.403 0 0 1 .207-.093c.074 0 .137-.055.191-.172.051-.09.13-.184.188-.203.078-.028.097-.078.097-.223 0-.148.024-.2.094-.219.074-.02.09-.058.067-.273-.028-.27.004-.293.261-.2.114.04.133.032.211-.097a.409.409 0 0 1 .23-.188c.098-.023.157-.07.165-.144.008-.059.047-.106.086-.106.12 0 .511-.296.59-.441.074-.145.02-.242-.133-.242-.063 0-.09-.035-.09-.106 0-.066-.07-.187-.145-.28a.536.536 0 0 1-.152-.321c0-.133-.027-.164-.191-.23a.756.756 0 0 1-.25-.153c-.032-.04-.082-.074-.102-.074-.05 0-.168.707-.125.773.02.031-.035.133-.113.227-.086.093-.156.215-.156.265 0 .114-.16.2-.567.317-.394.11-.414.14-.246.316.125.125.137.156.074.192a.54.54 0 0 1-.234.05c-.14 0-.16.016-.16.118 0 .097-.024.125-.11.125-.21 0-.332.058-.332.152 0 .07-.035.094-.144.094-.082 0-.164.03-.188.07-.062.11-.605.113-.773.008-.117-.074-.125-.074-.152.011-.016.055-.137.16-.274.247-.16.097-.242.18-.242.25 0 .129-.117.164-.258.07-.125-.078-.129-.078-.16.047l-.027.125-.094-.11-.09-.109-.207.14c-.223.153-.203.16-.43-.156-.062-.09-.11-.109-.215-.086-.14.028-.14.028-.109-.167.016-.126.008-.196-.031-.196-.051 0-.7.196-1.074.324a1.23 1.23 0 0 0-.336.168c-.11.086-.121.13-.102.301.016.156.063.235.195.348.11.097.18.195.188.293.016.136.031.148.25.16.21.012.23.027.23.133 0 .156.086.152.399 0l.242-.125v.12c0 .11.008.114.16.063.13-.043.168-.039.207.028.082.125.172.097.36-.11zm-21.957-.16c.039-.023.136-.058.214-.086l.137-.047-.035-.441c-.027-.316-.02-.473.027-.555.047-.09.043-.14-.02-.258-.05-.097-.058-.164-.03-.18.109-.07.054-.265-.106-.347-.133-.066-.14-.086-.078-.148.062-.063.05-.145-.106-.668a9.872 9.872 0 0 0-.222-.653c-.114-.18-.57.098-.57.344 0 .172-.098.43-.227.602a.547.547 0 0 0-.117.265c0 .055-.082.285-.184.5-.246.54-.238 1 .016 1 .078 0 .09.106.02.176-.098.094.019.277.3.484l.293.207.309-.085c.168-.043.336-.094.379-.11zm-7.473-.785c.652-.313 2.09-.953 4.418-1.957.531-.227.668-.309.68-.39.011-.071-.02-.126-.086-.16-.09-.048-.329.042-1.579.577-2.835 1.223-4.156 1.836-4.296 2.004-.067.078-.075.125-.04.192.028.054.075.093.102.093.027 0 .39-.16.8-.359zm10.367-.293c.324-.086.406-.148.406-.324 0-.094.024-.14.075-.14.093 0 .14-.106.238-.477.066-.246.07-.325.02-.403-.036-.05-.079-.097-.102-.097-.02 0-.035-.04-.035-.086 0-.051-.043-.133-.098-.18a.295.295 0 0 1-.098-.195c0-.086-.035-.114-.168-.14a.728.728 0 0 0-.304.003c-.102.023-.153.008-.22-.082-.081-.11-.089-.113-.21-.031a.59.59 0 0 1-.258.082c-.086 0-.14.039-.18.117-.039.082-.101.125-.207.133-.101.011-.156.047-.168.105-.035.164.036.309.172.371.121.051.125.063.051.106-.05.027-.086.101-.086.172 0 .082-.031.132-.101.148-.063.02-.09.05-.075.098.02.047-.011.105-.066.144-.129.086-.129.192 0 .258.07.04.09.086.066.168-.043.16.043.191.332.121.23-.05.25-.047.317.043.062.09.164.129.367.149.043.003.191-.028.332-.063zm31.719-.277c.023-.04.156-.047.441-.024.508.035.567.02.567-.195 0-.238.12-.453.257-.453.133 0 .243-.078.516-.348.176-.172.234-.2.367-.183.145.015.172 0 .246-.145l.078-.164-.242-.172c-.379-.27-.449-.469-.175-.535.148-.043.156-.055.14-.254l-.016-.207.2.02c.172.015.203.003.226-.098.028-.106.043-.11.285-.078.141.015.29.05.336.07.043.027.102.02.13-.008.034-.035.085-.02.16.055.136.129.175.125.246-.047.058-.133.085-.148.27-.144.108 0 .253.035.323.07.18.101.2.09.2-.121 0-.14.019-.196.07-.196.133 0 .078-.09-.149-.242-.273-.187-.304-.363-.078-.445.086-.027.157-.09.172-.16.04-.149.219-.184.621-.114.207.032.371.09.461.168a.63.63 0 0 0 .184.114c.054 0 .082-.477.027-.676-.023-.105-.02-.18.012-.215.09-.09.066-.164-.145-.402-.218-.246-.203-.309.078-.313.102-.004.223-.066.364-.191l.218-.188.18.098c.102.059.215.094.25.078.043-.015.125-.18.184-.367.082-.246.144-.363.261-.445.243-.18.133-.215-.511-.176-.512.031-.582.05-.68.148-.086.094-.16.117-.336.117a.729.729 0 0 0-.633.344c-.058.098-.125.145-.21.145a1.206 1.206 0 0 0-.813.34c-.281.27-.504.593-.567.828l-.046.18-.258-.087a3.092 3.092 0 0 0-.59-.117c-.324-.039-.332-.035-.39.09-.071.153-.071.153-.466.016-.218-.074-.336-.09-.386-.059-.442.324-.453.336-.407.473.043.113.024.152-.109.305-.18.203-.18.19-.082.335.047.063.09.223.106.356l.03.242-.288.106c-.16.058-.32.125-.367.152-.075.05-.094.023.214.496l.18.273-.144.051c-.176.059-.165.13.09.434.214.258.19.36-.09.441l-.282.082c-.039.012-.066.11-.066.246v.23l-.344-.03c-.281-.028-.351-.02-.371.039-.02.043-.129.086-.27.101-.136.02-.277.07-.324.121-.082.09-.074.094.157.098.136.004.355.043.492.094.289.105.445.117.496.043zm-13.766-1.867c1.676-.88 3.055-1.63 3.07-1.672.016-.04-.015-.114-.066-.168-.098-.094-.117-.086-3.047 1.449a402.1 402.1 0 0 0-3.133 1.664c-.199.125-.242.273-.097.348a.168.168 0 0 0 .16.011c.039-.02 1.445-.754 3.113-1.633zm2.106 1.171c.093-.086.16-.109.254-.093.074.015.18 0 .242-.032.09-.05.105-.086.074-.218-.02-.118-.004-.176.074-.243.055-.05.098-.117.098-.152 0-.09-.156-.164-.34-.164-.125 0-.152-.02-.152-.113 0-.125-.082-.227-.18-.227-.035 0-.168.063-.29.14-.124.079-.26.13-.3.118-.047-.02-.113.07-.215.281a3.38 3.38 0 0 1-.207.39c-.047.063-.047.11 0 .208.047.101.09.129.254.129.153 0 .2.015.2.074 0 .121.324.05.488-.098zm-8.84-.402c.383-.133.758-.273 1.133-.43.629-.265 2.636-1.254 3.672-1.804.613-.332.714-.399.714-.5 0-.258-.12-.235-.894.18-2.586 1.37-4.184 2.093-5.219 2.347a2.85 2.85 0 0 1-2.031-.25c-.297-.16-.43-.164-.485-.02-.066.176.375.45.985.61.273.074.48.09.945.078.543-.012.637-.027 1.18-.211zm-22.41-.496c2.488-.887 5.527-2.04 6.105-2.324.313-.149.39-.285.25-.403-.066-.05-.156-.027-.531.133-.985.426-4.027 1.57-6.363 2.399-.407.144-.762.297-.79.343-.058.098.032.235.168.235.043 0 .567-.172 1.16-.383zm33.05-.277c.329-.055.375-.079.418-.184.028-.082.098-.125.215-.148.223-.04.317-.149.242-.278a.277.277 0 0 1-.035-.207c.02-.086 0-.148-.086-.234a.405.405 0 0 1-.113-.227c0-.187-.133-.238-.398-.136-.13.042-.243.074-.254.062-.008-.012-.07.027-.13.094a.916.916 0 0 1-.39.164c-.297.062-.36.133-.25.289.043.059.051.105.02.129-.086.05-.055.156.097.316.086.086.141.168.13.184-.048.043.241.25.312.222.039-.011.14-.035.222-.046zm-19.562-.098c.094-.035.102-.23.02-.3-.09-.063-.977-.372-1.579-.54a12.603 12.603 0 0 0-1.898-.394c-.742-.086-1.762.082-2.676.445-.39.152-.414.168-.414.305 0 .132.016.148.149.14.082-.004.402-.094.714-.203.63-.223 1.286-.348 1.782-.348.68 0 2.07.313 3.218.72.621.226.582.214.684.175zm4.758-.258c0-.137-.074-.172-.762-.371-1.281-.363-2.293-.793-3.266-1.367-1.043-.621-1.66-.86-2.718-1.047-.688-.121-2.16-.148-2.785-.047-.497.078-1.305.281-1.391.356a.172.172 0 0 0-.059.148c.004.055.04.105.094.133.063.035.148.031.29-.024.108-.035.429-.117.706-.18.45-.097.633-.109 1.64-.109.981.004 1.2.016 1.634.11.925.203 1.543.445 2.335.933.95.59 2.372 1.176 3.766 1.551.371.098.516.074.516-.086zm1.449.137c.242-.067.492-.297.45-.422-.032-.11.14-.195.831-.43.73-.242.805-.355.375-.55-.18-.086-.281-.106-.418-.083-.168.032-.18.047-.164.188l.012.156h-.473c-.46 0-.488.008-.613.133-.133.133-.133.133-.04.238.09.102.09.102 0 .172-.058.04-.214.067-.378.067-.527 0-.695.171-.387.402.239.164.532.21.805.129zm3.305-1.39l.172-.083v-2.351l-.122.023c-.078.012-.12.059-.12.113-.032.7-.075 1.399-.126 2.098-.011.152-.011.281 0 .281.012 0 .102-.035.196-.082zm-.477-.2c-.012-.164-.027-.184-.176-.195-.136-.012-.156-.032-.133-.125.016-.055.032-.426.04-.828l.007-.723-.136-.102a.606.606 0 0 0-.313-.101c-.265 0-.344.125-.379.636-.023.239-.05.56-.066.715l-.027.282-.184-.032c-.18-.03-.188-.023-.215.125a.506.506 0 0 0-.02.168 73.91 73.91 0 0 0 1.579.36c.02.004.03-.078.023-.18zm1.945-.531c.86-.465.872-.473.872-.633 0-.09-.012-.16-.028-.16-.02 0-.43.203-.914.449l-.879.453v.18c0 .097.016.183.035.183.02 0 .43-.21.91-.472zm9.243.289c-.02-.176-.028-.184-.266-.235l-.246-.05v-1.766l-.149-.145c-.203-.203-.675-.32-.957-.25-.14.04-.222.098-.277.204-.078.148-.144.707-.184 1.53l-.023.446.75.156c.441.094.883.184 1.32.286.024.004.04-.079.032-.176zm.625-.012c.02-.031.015-.578-.008-1.219l-.035-1.16h-.282v2.426h.149c.078 0 .156-.02.176-.047zm-13.723-.207a55 55 0 0 1 .05-1.242c.032-.567.04-1.055.016-1.086-.023-.04-.062-.016-.12.062-.071.094-.102.102-.15.051-.097-.09-.124-.074-.21.137-.09.223-.188.25-.27.074-.035-.082-.097-.12-.172-.12-.152 0-.222.077-.238.292l-.015.172-1.36-.352.016.145c.012.14.031.152.449.273.371.106.445.145.535.282l.102.156h-.172c-.313 0-.402.277-.137.433l.149.086-.176.157c-.36.324-.145.37.558.113.047-.016.055.012.036.101-.028.098-.012.133.082.16.062.02.136.067.171.106.047.07.063.07.165 0 .105-.074.12-.07.335.063.313.195.356.187.356-.063zM34.05 34.2c.043-2.836.09-5.578.101-6.09l.028-.937h-.297v.695c0 .38-.043 2.79-.098 5.36-.039 1.793-.074 3.59-.097 5.382v.715l.132.016.145.015c.008-.003.043-2.324.086-5.156zm-.719 4.82c-.012-.081-.102-.117-.508-.203a7.836 7.836 0 0 0-.531-.117c-.02 0-.035.078-.023.176l.015.18.488.129c.493.132.493.132.536.03.023-.062.03-.128.023-.194zm1.207.07c.195-.128.211-.155.191-.316-.011-.093-.035-.175-.05-.175-.024 0-.117.058-.215.125-.164.109-.188.148-.188.316 0 .106.012.191.028.191.015 0 .12-.062.234-.14zm7.746-.01c1.106-.337 2.785-1.071 3.008-1.31l.09-.101-.192.031c-1.07.196-3.574 1.235-3.574 1.489 0 .074.156.05.668-.106zm-4.617-.028c-.012-.106-.05-.145-.176-.176l-.164-.047.031-.832c.036-.816.036-.832-.078-.973-.152-.183-.379-.273-.703-.273-.492 0-.625.242-.625 1.11 0 .62-.016.656-.277.613-.196-.028-.219-.02-.258.086-.023.062-.04.125-.027.129.023.027 2.062.488 2.175.492.098.004.118-.016.102-.13zm-7.086-.922c0-.36-.012-.406-.105-.457-.082-.043-.13-.035-.235.043-.12.086-.129.117-.14.558l-.012.465.492-.207zm-8.383.363l-.015-.152-.692-.156c-1.066-.246-.957-.239-.957-.047 0 .16.004.164.281.222.157.032.504.106.774.168.648.153.629.153.61-.039zm.469.078c.07-.027.082-.18.082-1.215 0-.652-.016-1.187-.035-1.187a.66.66 0 0 1-.152-.031l-.11-.032v1.215c0 .668.016 1.23.035 1.246.04.04.082.043.18.004zm.996-.418c.39-.328.465-.418.465-.535 0-.168.012-.176-.555.27-.39.304-.43.347-.43.5 0 .09.012.164.028.164.012 0 .234-.176.492-.399zm8.594-.8c0-.543-.02-.989-.043-.989-.133 0-.168.18-.192 1.117l-.027.977.129-.059.133-.054zm2.86.039c0-.743-.016-.926-.079-1.016-.043-.059-.11-.11-.148-.11-.059 0-.07.16-.07 1 0 .989 0 .997.109 1.04.062.02.125.03.152.02.02-.013.035-.43.035-.934zm7.03.27c.016-.427.004-.474-.082-.516-.129-.07-.304-.024-.445.101-.094.082-.101.145-.101.602v.507l.308-.113.305-.113zm-10.812.452l.184-.066v-.383c0-.285-.02-.387-.07-.406-.075-.031-.278.058-.34.148-.044.067-.044.82 0 .797.027-.008.124-.05.226-.09zm-11.047-1.277c0-1.066-.016-1.23-.082-1.305-.11-.12-.16-.117-.129.02a.48.48 0 0 1-.027.222c-.035.094-.086.122-.266.133-.21.02-.226.012-.363-.176-.266-.386-.465-.445-.465-.144 0 .113-.02.187-.047.172-.082-.051-.203.031-.203.148 0 .114-.11.164-.164.07-.059-.09-.227-.09-.277-.003-.036.07-.02.12.07.23.113.133.113.145.035.238-.05.063-.164.11-.3.13a.615.615 0 0 0-.313.128l-.102.098.137.05a1.1 1.1 0 0 0 .297.051c.207 0 .27.075.101.118-.218.05-.148.172.094.172.121 0 .238.023.254.054.016.024-.004.047-.047.047-.101 0-.101.086 0 .285.059.114.102.149.16.121a5.6 5.6 0 0 1 .66-.164c.02 0 .012.059-.015.125a.63.63 0 0 0-.035.14c.011.009.129.028.265.044.196.027.27.012.313-.043.101-.121.18-.082.273.121.047.11.11.18.13.168.023-.016.046-.578.046-1.25zm13.012.223c.031-.664-.024-.868-.223-.918-.367-.09-.469.082-.508.863l-.03.613.288.055c.16.031.313.066.34.074.09.024.11-.086.133-.687zm19.879.41c.14-.114.53-.461.87-.774.34-.312.684-.605.77-.652.082-.047.145-.113.145-.14 0-.032.222-.286.488-.563.48-.504.633-.707.578-.766-.015-.015-.125-.031-.234-.031-.113-.004-.211-.027-.223-.05-.008-.028.184-.25.426-.49.25-.237.45-.46.45-.495 0-.043-.075-.063-.2-.063-.11 0-.2-.011-.2-.03 0-.04.192-.298.403-.556.246-.289.66-1.164.55-1.164-.081 0-1.085.778-2.023 1.57-.578.481-.851.626-1.023.532-.062-.035-.145-.024-.3.047-.173.074-.231.078-.321.035a.671.671 0 0 0-.316-.031c-.215.023-.856.343-.856.43 0 .05.121.1.43.187a.79.79 0 0 1 .328.183c.098.106.172.133.355.137.13.008.344.028.473.047.184.027.254.02.32-.035.047-.04.192-.086.317-.102l.23-.023-.234.371c-.125.207-.274.43-.32.508-.09.129-.09.133.015.133.055 0 .102.03.102.066 0 .105-.309.477-.575.684-.492.398-.746.66-.722.754.015.046-.012.152-.051.238-.172.32-.016.34.344.043zm-5.746-.328c.082 0 .285-.051.449-.121.168-.067.39-.122.492-.122.207 0 .262-.101.102-.191-.07-.035-.075-.059-.024-.11.035-.03.063-.074.063-.09 0-.054-.243-.144-.375-.144h-.121l.152-.191c.086-.106.144-.215.125-.238-.016-.028-.145-.07-.285-.106-.426-.094-.43-.098-.43-.223 0-.167-.121-.195-.293-.07-.117.082-.172.09-.25.05a.688.688 0 0 0-.27-.046c-.164 0-.175-.012-.152-.117a.165.165 0 0 0-.043-.176c-.129-.105-.09-.144.14-.144.165 0 .224-.024.224-.075a.13.13 0 0 0-.047-.097c-.082-.051-.059-.121.039-.121.05 0 .285-.067.523-.149.246-.082.52-.144.621-.144.332 0 .395-.262.074-.32l-.175-.032.218-.176-.21-.093-.211-.098.257-.18c.223-.16.246-.187.184-.25-.066-.066-.121-.062-.457.028-.211.05-.406.085-.426.07-.023-.016-.043-.078-.043-.145 0-.086-.031-.117-.097-.117-.083 0-.09-.023-.067-.172.02-.133.012-.172-.05-.172-.044 0-.153.078-.247.172-.094.094-.207.172-.25.172-.074 0-.082-.031-.054-.2.042-.241-.063-.304-.274-.148l-.148.106v-1.363h-.278l-.03 2.808a196.932 196.932 0 0 1-.04 2.907c-.016.074.012.101.145.113a.815.815 0 0 0 .304-.035c.094-.032.219-.028.403.011.261.059.265.059.476-.101.129-.098.27-.16.356-.16zm-25.621-.383c0-.39-.008-.438-.125-.563-.098-.105-.149-.129-.254-.101-.215.05-.235.101-.254.558l-.016.434.262.047c.148.023.289.047.328.05.043.005.058-.109.058-.425zm2.593.394c.035-.023.07-.37.09-.992.035-.937.035-.965-.062-.965-.075 0-.102.047-.125.258-.043.356-.04 1.734.003 1.734.02 0 .067-.015.094-.035zm5.301-.12c.02-.134-.031-.247-.336-.716-.2-.308-.375-.582-.383-.609-.011-.027-.082.008-.148.074l-.137.13.461.64c.25.347.469.636.484.636.024 0 .047-.066.059-.156zm1.441-.395c.946-.48.985-.512 1-.66l.02-.153-.438.215c-.238.117-.703.34-1.039.496-.59.278-.597.285-.597.445 0 .086.015.16.031.16.023 0 .484-.23 1.023-.503zm-4.707-.23l.004-.415-1.375-.289-.03.242c-.02.168-.024.34-.017.508l.016.266.668.152c.777.176.727.215.734-.465zm-2.902.456l.254-.129-.031-.297c-.051-.414-.067-.464-.196-.464-.195 0-.328.148-.336.367-.011.262.008.656.032.656.011 0 .133-.059.277-.133zm21.11-.086l.195-.058.015-.676c.016-.64.012-.684-.09-.762a.55.55 0 0 0-.3-.086c-.16 0-.235.035-.367.164l-.168.168v1.465l.257-.082.454-.133zm-16.297-.988l.355-.262-.125-.242c-.066-.137-.117-.25-.11-.258.008-.004.673-.285 1.47-.62 1.136-.481 1.425-.622 1.331-.641-.07-.02-.867-.184-1.773-.371a96.132 96.132 0 0 1-1.738-.368c-.07-.023-.086-.086-.086-.363 0-.309-.012-.336-.113-.363-.848-.18-1.7-.352-2.555-.508-.051 0-.102.059-.133.156-.445 1.39-.848 2.684-.848 2.727 0 .035.684.222 1.848.492 1.02.238 1.852.445 1.852.457 0 .016-.168.242-.372.5-.203.262-.367.496-.367.523 0 .133.16.055.563-.253.246-.184.605-.458.8-.606zm12.378.926c0-.02.32-.61.715-1.3.602-1.08.696-1.27.625-1.298-.148-.066-5.527-1.07-5.59-1.047-.03.016-.246.344-.48.742l-.418.711-.023-.57c-.02-.488-.04-.574-.121-.637-.118-.082-.18-.082-.293-.004-.118.086-.176.395-.176.981l-.004.48.144-.03c.078-.016.203-.044.27-.063.129-.028.121-.008-.16.46-.282.47-.293.493-.188.516.063.012.907.18 1.88.367.98.188 2.187.426 2.687.528.96.199 1.132.226 1.132.164zm-18.464-2.078c-.43-.649-.45-.668-.5-.555-.055.113-.016.195.425.898l.48.774.02-.223c.016-.21-.015-.265-.425-.894zm1.136.843c.196-.105.457-.253.578-.328l.223-.125-.176-.03c-.14-.02-.246.01-.597.19-.39.2-.43.235-.43.36 0 .074.012.137.023.137.016 0 .192-.09.38-.204zm8.512.149c.055-.024.098-.066.098-.09 0-.027-.133-.32-.297-.66-.281-.59-.297-.613-.406-.555l-.125.067c-.008.007.066.187.168.398l.296.637c.125.281.13.281.27.207zm-10.863-1.117l.613-.735-.172-.34c-.097-.183-.191-.328-.21-.316-.02.012-.255.461-.524 1-.418.828-.48.98-.426 1.047a.314.314 0 0 0 .082.078c.012 0 .297-.332.637-.734zm11.914.406c.02-.238.031-.469.035-.707 0-.422-.086-.574-.328-.574-.328 0-.402.18-.422.953l-.012.531.246.059c.45.105.446.105.48-.262zm11.89-1.207c.02-.79-.007-.852-.367-.852-.183 0-.25.032-.386.168l-.168.164v1.461l.457-.136.453-.133zm-26.554.45a.377.377 0 0 0 .117-.227c0-.2.098-.489.16-.489.05.004.09.028.125.063.05.047.086.031.176-.078.133-.164.277-.137.277.058 0 .082.047.184.121.25.102.098.137.106.235.055.062-.027.187-.07.281-.094.207-.047.305-.215.336-.57.027-.305.086-.379.266-.344.101.02.14.004.164-.066.015-.055.132-.184.265-.29l.238-.199.094.102c.078.09.13.102.387.078.16-.015.36-.05.437-.082l.145-.05-.031-.696a37.073 37.073 0 0 1-.032-1.539c0-.809-.003-.84-.09-.762-.077.067-.109.067-.285.008a1.181 1.181 0 0 0-.246-.074c-.074 0-.738.496-.859.64a.96.96 0 0 0-.129.262.653.653 0 0 1-.082.203c-.082.106-.285.07-.46-.082-.18-.156-.395-.195-.5-.09-.032.032-.06.137-.06.239 0 .203-.054.238-.343.238-.113 0-.2.023-.215.066-.016.036-.094.079-.18.094a1.139 1.139 0 0 0-.336.152.678.678 0 0 1-.328.125h-.14l.113.122c.121.128.129.113-.125.195-.067.02-.067.035 0 .168.105.2.098.234-.082.344-.207.12-.25.12-.422-.028-.082-.062-.195-.12-.254-.12-.102 0-.156-.063-.398-.45-.22-.344-.47-.3-.653.094l-.097.218-.223-.027a3.329 3.329 0 0 0-.34-.031c-.07 0-.113-.027-.113-.067 0-.043-.07-.109-.152-.156-.079-.05-.145-.12-.145-.164 0-.043.11-.187.246-.316.395-.383.473-.606.203-.61a.421.421 0 0 1-.222-.074c-.082-.055-.114-.055-.23.004-.118.063-.161.063-.306 0a.65.65 0 0 1-.23-.148c-.059-.063-.055-.086.023-.145.055-.039.16-.094.23-.125.177-.074.173-.187-.01-.34-.145-.113-.145-.12-.071-.23.066-.098.105-.11.27-.086.187.035.492-.067.492-.164 0-.082-.454-.434-.598-.469-.137-.027-.145-.047-.133-.203.016-.156.031-.176.234-.238.125-.036.297-.063.387-.067.11 0 .2-.039.27-.117.082-.082.175-.125.336-.137.164-.011.214-.03.195-.086-.059-.23-.035-.265.183-.28.145-.013.208-.036.196-.071-.153-.403-.153-.422-.086-.555.066-.117.062-.133-.04-.2-.062-.038-.109-.112-.109-.163 0-.074.036-.094.172-.094.121 0 .172-.02.172-.07 0-.11.164-.168.438-.168.199 0 .261-.024.3-.102.047-.078.106-.097.313-.097.281 0 .402-.051.367-.153-.012-.043.05-.09.203-.144.442-.145.207-.375-.386-.375-.149 0-.66.054-1.133.129l-.864.132-.097.176c-.078.145-.133.184-.278.207-.097.016-.203.059-.226.09-.074.086-.18.649-.149.762.028.11-.046.152-.273.152a.446.446 0 0 0-.293.125l-.137.133-.285-.113c-.21-.086-.39-.121-.707-.13-.23-.003-.445.009-.48.028-.04.024-.082.113-.098.203-.031.137-.062.168-.219.203-.097.028-.183.067-.183.09 0 .063.246.535.328.633.066.07.058.082-.055.11-.14.035-.226.19-.226.413 0 .122.027.141.199.172.25.04.261.145.027.254-.187.09-.219.149-.098.192.102.043.086.203-.023.261a.82.82 0 0 1-.289.051c-.11 0-.215.024-.234.05-.02.032.027.165.097.302.07.133.11.261.09.281a.5.5 0 0 1-.215.07c-.168.032-.187.024-.293-.152-.156-.266-.23-.313-.367-.254-.09.047-.2.02-.539-.102l-.434-.156-.12.125a.531.531 0 0 1-.141.125c-.016 0-.051-.062-.078-.144-.028-.078-.094-.157-.145-.172-.055-.016-.168-.133-.254-.254-.148-.219-.156-.223-.183-.11-.032.122-.09.16-.461.325-.176.07-.188.097-.164.23.03.223-.043.313-.27.352-.187.031-.2.043-.176.168.04.168-.031.226-.273.246l-.188.015.098.196c.09.168.094.199.027.27-.066.07-.066.09.024.163.058.059.14.078.215.059.09-.012.18.004.261.043a.604.604 0 0 0 .203.074c.036 0 .059.067.059.164v.164l.348.032c.386.039.441.023.441-.141 0-.086.047-.145.16-.2a2.46 2.46 0 0 0 .278-.171.465.465 0 0 1 .254-.09c.109 0 .14.027.175.156.047.14.075.164.282.203.203.04.23.063.23.164 0 .075-.078.207-.2.336-.25.266-.238.375.032.395.168.012.211.035.266.164.062.137.058.172-.012.297-.113.187-.106.226.039.226.176 0 .387-.113.723-.39a3.87 3.87 0 0 1 .386-.29c.059-.03.125-.148.16-.273.043-.164.094-.238.208-.297.136-.07.148-.066.27.07.148.169.362.31.472.31.039 0 .07.027.07.062 0 .039.035.097.074.129.11.093.094.129-.086.18-.129.038-.156.07-.16.171a.475.475 0 0 1-.117.258l-.121.121.117.121c.063.067.137.121.164.121.027 0 .102.051.168.11l.117.11.207-.11c.211-.114.45-.145.5-.063.012.024-.023.094-.074.164a.405.405 0 0 0-.098.168c0 .078.168.196.329.227.09.02.175.066.238.129.11.117.187.117.297.011a.344.344 0 0 1 .191-.086c.16-.007.68-.257.824-.398.09-.086.157-.113.2-.086.035.024.187.067.336.094.203.043.277.078.289.148.011.051.062.157.113.227.094.129.113.133.512.133h.414l.125.199c.14.219.238.226.453.031zm24.418-.243c.015-.086.031-.383.035-.664.008-.457 0-.512-.086-.543-.258-.102-.262-.098-.262.66v.707h.14c.122 0 .15-.023.173-.16zm9.074-.352c.281-.132.867-.62 1.07-.886.301-.395.875-1.301.875-1.375 0-.051.09-.215.196-.371.191-.293.277-.512.226-.594-.015-.027-.176.027-.367.12-.5.259-.543.212-.219-.222.387-.515.664-1.117.52-1.12-.02 0-.305.269-.63.6l-.589.606-.84.399-1.094.52c-.144.066-.261.136-.261.155 0 .079.25.145.636.176.403.035.407.035.582.25.098.117.2.211.23.211.036 0 .095.082.145.176l.086.172-.367.383c-.32.332-.664.816-.672.937 0 .05.168.004.473-.137zm-10.332-.449l-.016-.328-.191-.094c-.176-.082-.207-.086-.32-.023-.114.062-.133.11-.145.371l-.016.3.192.032c.101.016.207.035.234.047.055.012.106.02.164.02.106.003.114-.012.098-.325zm-18.77-.285c1.72-.629 1.801-.66 1.707-.71-.082-.048-.367-.028-.636.038-.121.031-.121.028-.114-.265.004-.223-.015-.32-.082-.391-.191-.211-.628-.16-.722.078a1.993 1.993 0 0 0-.043.457c0 .316.004.336.11.336.058 0-.122.098-.407.215-.809.324-.887.363-.887.406 0 .055.102.156.16.156.02 0 .43-.144.914-.32zm17.008.082c0-.398-.156-.586-.472-.586-.196 0-.27.121-.27.434v.281l.281.047c.48.082.461.094.461-.176zm-1.89-.77c-.133-.128-.434-.167-.532-.074-.035.035-.07.192-.082.352l-.02.281.263.055c.503.094.46.117.476-.211.012-.25 0-.3-.102-.402zm-5.04-.175c.04-.727.004-.864-.222-.957-.117-.051-.16-.047-.262.02-.187.12-.207.198-.246.859l-.035.613.266.055c.503.093.46.144.5-.59zM43 32.453c0-.035.695-2.582.707-2.598.008-.007.496.274 1.086.622.582.347 1.11.656 1.168.687.055.027-.395-.531-.992-1.238-.922-1.09-1.114-1.297-1.25-1.32-1.012-.184-5.633-.883-5.653-.86-.039.05-1.52 3.5-1.52 3.543 0 .027 1.43.297 3.184.606 3.649.648 3.27.582 3.27.558zm-7.566-.168l.343-.086.016-.46c.023-.65-.008-.766-.211-.848-.246-.106-.531.004-.613.234-.055.16-.07 1.168-.02 1.219.051.043.102.039.485-.059zm-4.383-.41c.05-.719.023-.957-.13-1.07-.089-.067-.171-.086-.26-.063-.224.055-.29.219-.321.867-.02.332-.031.598-.027.606.007.012.503.097.625.105.066.004.085-.066.113-.445zm-3.203-.316c-.075-1.418-.07-1.41-.203-1.434l-.118-.02v1.98h.344zm27.601-.11c.239-.207.508-.457.598-.562.207-.25.57-.985.676-1.371.062-.22.105-.297.156-.282a.84.84 0 0 0 .219.028h.148l-.027.379a4.89 4.89 0 0 1-.153.785c-.195.633-.171.664.18.289.172-.176.406-.477.527-.668.168-.254.25-.34.309-.324l.188.058c.156.043.12-.14-.051-.308-.137-.13-.14-.153-.074-.211.07-.055.07-.07-.024-.172-.09-.09-.094-.11-.027-.137.074-.027.074-.043-.004-.187a1.455 1.455 0 0 0-.184-.274c-.097-.11-.101-.117-.011-.172.25-.152.25-.152.109-.277-.168-.156-.133-.254.133-.363.195-.075.199-.082.11-.149a.418.418 0 0 0-.204-.066c-.14 0-.195-.082-.117-.172.047-.059.047-.09 0-.145-.051-.058-.035-.082.07-.128.086-.043.125-.09.117-.16-.023-.145-.207-.157-.394-.024-.13.098-.242.117-.727.144-.312.016-.61.047-.656.067-.059.023-.086.015-.086-.031 0-.098.14-.282.219-.282.031 0 .101-.043.148-.097.086-.094.086-.102.004-.192a.77.77 0 0 0-.226-.152c-.157-.063-.176-.094-.09-.18.047-.043.043-.074-.004-.133-.055-.062-.043-.074.082-.074.082 0 .277.043.433.102.395.129.516.125.516-.024 0-.086.031-.12.11-.132.07-.008.128-.07.16-.149.039-.11.027-.16-.067-.285-.129-.172-.133-.16.094-.223.113-.03.18-.078.187-.14.016-.11.266-.23.38-.188.046.02.09-.02.12-.094.067-.175.125-.195.41-.128.227.054.254.05.317-.028.039-.055.05-.152.035-.262-.023-.148 0-.214.149-.43.066-.085.125-.179.175-.273 0-.015-.074-.039-.164-.054-.129-.028-.285.027-.894.316-.407.188-.84.41-.961.488-.207.13-.242.137-.39.082-.141-.05-.169-.047-.227.036-.094.136-.11.148-.41.343-.145.098-.333.192-.419.203-.144.024-.167.008-.246-.148-.043-.098-.101-.176-.12-.176-.15 0-.505.578-.505.824 0 .122-.02.149-.113.149-.144 0-.23.082-.23.226 0 .075-.028.114-.09.114-.047 0-.16.05-.258.117-.156.101-.188.105-.293.05-.156-.085-.344-.085-.703 0-.152.036-.328.051-.379.04-.117-.028-.137.078-.05.234.046.078.034.09-.052.09-.168 0-.656.152-.742.23-.062.059-.062.07 0 .118.11.062.399.14.535.14.125 0 .133.02.055.153-.082.152.012.214.195.117.211-.11.25-.094.25.07 0 .098.04.164.118.2.058.03.156.1.218.152.086.082.098.12.051.238-.11.312.207.39.484.113.122-.117.211-.164.305-.16.07.004.238-.008.363-.027.208-.035.23-.028.262.062.02.059.016.278 0 .492-.035.368-.031.391.059.391.054 0 .14-.031.191-.07.137-.106.196-.094.473.093.137.094.289.168.344.168.113 0 .113.028.015.407-.125.476-.187.582-1.246 2.097-.164.239-.305.453-.305.477 0 .09.508-.234.926-.598zm-25.984-.008c.027-.648.004-.773-.184-.89-.105-.07-.152-.074-.27-.024-.206.082-.241.207-.261.852l-.012.586.196.027c.109.016.265.031.347.035l.153.008zm-2.703-.113a2.44 2.44 0 0 0 .027-.441c0-.32-.012-.38-.121-.48-.129-.134-.336-.157-.54-.067-.148.066-.16.101-.202.562-.04.391-.074.356.422.45.332.058.379.058.414-.024zM7.09 31.195c.12-.093.34-.425.34-.523 0-.043-.059-.129-.13-.195-.112-.106-.124-.145-.097-.352.027-.21.02-.242-.101-.348-.118-.097-.125-.125-.075-.187.082-.098.055-.328-.047-.39-.082-.048-.152-.032-.296.073-.063.043-.133.04-.309-.011l-.223-.059.028-.297c.015-.164.05-.386.078-.492a1.69 1.69 0 0 0 .043-.219c-.004-.011-.082-.03-.168-.035a1.352 1.352 0 0 1-.356-.086c-.062-.027-.129-.05-.199-.078a.866.866 0 0 0-.039.195.55.55 0 0 1-.207.336c-.21.188-.332.192-.41.024l-.063-.133-.12.133c-.145.156-.157.156-.301.023l-.114-.105v.148c0 .195.188 1.945.223 2.098.023.094.05.105.16.082a.638.638 0 0 0 .258-.152.433.433 0 0 1 .308-.114h.184v.235c0 .136.023.257.059.277.03.02.218.043.418.059.28.015.386.003.484-.059.156-.102.254-.074.332.09.059.133.207.16.34.062zm42.644-.394c.098-.133.266-.301.371-.375l.192-.137-.188-.047a23.897 23.897 0 0 0-.43-.105 1.492 1.492 0 0 1-.367-.117l-.124-.063.14-.074c.082-.04.535-.219 1.012-.399.95-.355 1.883-.789 2.058-.949.082-.078.102-.133.079-.215a1.25 1.25 0 0 1-.051-.324c-.004-.078-.008-.156-.016-.234 0-.012-.039.011-.09.05-.144.13-.367.223-.625.258-.133.02-.59.153-1.011.301-.422.145-.907.29-1.086.32-.344.059-.391.09-.395.29 0 .105-.047.152-.332.3-.277.13-.559.254-.848.364-.289.109-.605.23-.703.28-.164.075-.175.09-.097.145.195.125.91.36 1.41.453.293.055.562.122.601.157.04.03.067.14.067.258 0 .113.015.222.035.238.047.043.187-.09.398-.375zm-24.52-.098a2.7 2.7 0 0 0-.03-.488c-.051-.13-.305-.235-.493-.203-.25.05-.316.183-.316.617v.375l.281.047c.16.027.348.05.422.054l.137.004zm-1.566-.215c.008-.215-.007-.441-.043-.523-.105-.277-.52-.32-.707-.082-.078.097-.097.199-.097.476v.36l.156.027c.215.035.426.074.637.117.02.004.047-.164.054-.375zm9.125-1.226c.036-.625.032-.66-.07-.79a.307.307 0 0 0-.27-.132c-.285 0-.335.11-.382.836-.024.347-.028.648-.012.664.043.043.633.14.672.11.016-.016.043-.325.062-.688zm-4.949-1.164c0-1.133-.015-1.809-.05-1.825-.024-.02-1.028-.191-2.227-.39l-2.184-.36-.105.106c-.258.266-2.531 3.02-2.508 3.039.023.023 6.816 1.21 6.988 1.223.082.004.086-.11.086-1.793zm7.688 1.664l.265-.04.016-.46c.023-.657-.008-.766-.219-.856-.246-.105-.492-.015-.586.203-.07.164-.101 1.141-.039 1.203.016.016.086.02.16.008.075-.015.25-.039.403-.058zm-4.465-.242c.02-.23.031-.465.027-.696 0-.597-.05-.726-.312-.726-.34 0-.422.199-.422 1.054l-.004.493.187.02c.493.05.485.05.52-.145zm-1.586-.797c.012-.606.004-.672-.082-.77-.133-.144-.402-.121-.527.043-.075.102-.098.254-.122.758l-.035.637.344.047c.223.03.348.027.367-.004.02-.028.047-.348.055-.711zm12.43-1.258c.52.082.812-.113.437-.293-.14-.067-.148-.086-.129-.281.016-.153 0-.23-.062-.301-.078-.086-.078-.094.015-.145a.723.723 0 0 1 .274-.05c.195 0 .25-.06.234-.258-.012-.188.078-.207.48-.106.41.094.563.082.587-.054.015-.11-.16-.36-.258-.36-.114 0-.864-.398-.84-.445.016-.024.09-.043.168-.043a.49.49 0 0 0 .226-.063c.09-.07.086-.074-.015-.125-.145-.078-.094-.152.094-.152.074 0 .14-.023.14-.059 0-.097.395-.007.762.184.48.242.66.395.738.629.09.258.254.297.313.066.023-.082.078-.18.129-.207.07-.047.109-.023.218.102.07.09.172.16.22.16.097 0 .28.266.28.398 0 .102.145.188.313.188.156 0 .246.105.25.3.004.087.027.157.055.169.03.008.171-.082.312-.203.145-.121.27-.22.277-.22.102 0 .184.099.25.294.043.133.094.242.118.242.02 0 .086-.05.152-.121l.113-.121.14.12a.68.68 0 0 0 .184.122c.067 0 .11-.559.059-.695-.031-.078-.031-.137.008-.176.09-.082-.074-.219-.555-.469-.535-.265-.601-.328-.543-.476a.22.22 0 0 0-.008-.192c-.039-.07-.015-.082.188-.082.183 0 .265.028.363.117.125.118.875.563.95.563.019 0 .035-.09.035-.195 0-.211.062-.243.218-.122.2.149.465.067.43-.128-.004-.043.012-.098.043-.114.086-.054.055-.172-.082-.297-.07-.066-.117-.128-.106-.144.012-.012.258-.07.543-.125.582-.113.703-.094.895.164.09.125.09.137.016.223-.106.113-.063.152.164.152.21 0 .289.078.445.426.113.273.258.433.336.379.027-.016.082-.114.113-.223.031-.11.098-.219.145-.246.109-.055.12-.215.023-.254-.098-.04-.098-.129 0-.129.04 0 .086-.031.098-.074.043-.102.238-.09.43.027.308.184.398.055.12-.176-.109-.09-.156-.168-.144-.242.008-.074-.031-.164-.113-.246-.07-.066-.121-.137-.114-.144.012-.012.176-.102.364-.204.25-.136.343-.21.355-.296.016-.094 0-.114-.074-.079-.047.02-.242.075-.43.125a3.517 3.517 0 0 0-.472.168c-.184.09-.317.09-.47-.007-.066-.043-.151-.067-.19-.051-.09.031-.25-.2-.235-.344.02-.164-.195-.144-.406.035-.23.2-.438.23-.852.11-.508-.149-.574-.16-.746-.114-.133.04-.156.032-.156-.043 0-.047-.07-.148-.156-.222-.13-.102-.157-.164-.149-.29.016-.128-.004-.163-.097-.187-.07-.02-.164-.11-.23-.226a.796.796 0 0 0-.263-.274c-.148-.074-.16-.07-.238.031-.074.102-.113.11-.379.082l-.297-.03-.027.214c-.035.238 0 .496.07.543.133.078-.105.23-.61.387-.276.086-.284.093-.257.238.027.148.02.156-.207.21a1.117 1.117 0 0 1-.394.028c-.141-.027-.153-.043-.118-.14a.387.387 0 0 0 .02-.207c-.024-.086-.059-.094-.367-.075-.188.02-.34.012-.34-.007 0-.016.027-.07.058-.122.086-.132-.058-.28-.335-.351-.118-.027-.215-.078-.215-.113s-.059-.098-.125-.145c-.07-.047-.117-.11-.102-.144.031-.09-.066-.172-.203-.172-.14 0-.145-.07-.012-.235.133-.164.07-.207-.203-.144-.265.058-.488.02-.488-.082a.072.072 0 0 0-.074-.074c-.04-.004-.07.027-.075.07 0 .101-.261.265-.734.46-.238.095-.43.196-.426.223 0 .024.102.082.227.122.16.05.222.097.222.168 0 .066.047.109.176.148.219.055.332.148.262.21a.864.864 0 0 1-.23.102c-.102.032-.184.082-.184.114 0 .031-.152.039-.477.015l-.472-.039.11.18c.062.098.097.188.085.203-.016.012-.11 0-.207-.031a.653.653 0 0 0-.285-.035c-.086.023-.133-.008-.223-.14-.082-.126-.14-.173-.222-.157-.086.012-.106.043-.094.156.008.07-.008.168-.043.203-.078.094-.227.086-.266-.015-.027-.079-.039-.079-.125.023-.12.148-.238.14-.277-.023-.043-.188-.11-.258-.242-.258-.086 0-.118-.031-.145-.145-.039-.172-.133-.183-.36-.047-.288.172-.421.133-.765-.222-.172-.172-.34-.317-.371-.317-.027 0-.059.067-.059.14 0 .114.098.235.536.645 1.863 1.786 2.425 2.356 2.336 2.387-.067.028-6.282.676-6.43.676-.02 0-.035.086-.035.191 0 .11.004.196.011.196l3.262-.367c1.793-.2 3.285-.364 3.32-.364.059 0 .063.094.036.528-.04.597-.028.628.316.675.11.016.223.055.254.094.047.059.07.059.137-.008.07-.058.136-.062.375-.023zm-9.118-.387c.23-.086-.582-.363-1.523-.523-.598-.094-2.457-.125-2.61-.032-.085.051-.081.059.098.153.32.156 1.27.34 2.117.414.395.035 1.82.027 1.918-.012zm.59-1.387c-.746-1.14-1.175-1.777-1.207-1.777a1.092 1.092 0 0 0-.136.098l-.114.093.926 1.34.93 1.34.023-.21c.02-.192 0-.243-.422-.884zm-2.047.34c.336-.168.465-.523.329-.879-.16-.41-.668-.59-1.008-.355-.258.172-.36.34-.364.582-.003.418.282.723.696.723a.911.911 0 0 0 .351-.07zm-.597-1.75c.633-.375 1.144-.699 1.144-.726-.008-.09-.808-1.309-.863-1.309-.043 0-2.977 3.45-3.078 3.625-.027.043.332-.14.797-.418zm4.398 1.012c0-.254-.023-.457-.05-.457a.883.883 0 0 0-.169.047c-.12.05-.125.066-.125.453 0 .227.008.422.024.434.012.011.09.015.168.003l.152-.023zm.922.422h.16v-.582c0-.317-.015-.613-.031-.66-.094-.239-.563-.176-.652.082-.063.168-.075 1.125-.016 1.18.02.019.113.023.207.007.094-.015.242-.027.332-.027zm.895-.54c-.016-.234-.036-.445-.051-.456a.545.545 0 0 0-.192-.059l-.164-.031.035.23c.016.13.032.36.032.512v.27l.183-.016.188-.02zm-1.551-1.066c.222-.175.437-.347.484-.382.078-.059.133-.028.54.27.253.183.488.355.527.378.039.02-.032-.145-.153-.367l-.414-.762c-.101-.195-.215-.351-.246-.351-.035 0-.137.082-.226.187-.086.11-.383.426-.649.703-.426.453-.48.535-.453.645.035.144-.016.172.59-.32zm-16.031-.027c.023-.137.039-.145.27-.148.132 0 .296-.02.362-.04.082-.027.141-.011.223.067l.113.102.364-.168c.203-.09.41-.211.46-.266.126-.137.442-.184.602-.082.121.074.133.074.352-.07.297-.196.43-.18.433.043.004.19.059.226.403.261.214.028.293.008.484-.093.21-.118.258-.125.652-.102.352.02.438.043.508.129.113.137.18.129.387-.04.168-.136.172-.148.113-.3-.05-.133-.047-.18.016-.273.039-.059.117-.114.172-.114.082 0 .097-.023.086-.152l-.016-.152.289-.016.281-.016.102.239c.058.132.133.25.172.265.125.047.53-.082.683-.222.14-.125.157-.13.285-.055.13.062.153.062.254-.004.168-.11.196-.285.075-.57-.102-.235-.106-.246-.024-.305.074-.05.086-.11.063-.313-.032-.269-.004-.32.222-.375.102-.027.145-.074.168-.18l.028-.132.128.129c.075.074.125.168.114.215-.016.082.11.355.187.402.028.02.121-.02.211-.082.219-.16.317-.187.387-.105.082.097.129.09.336-.075.16-.12.183-.164.164-.293a1.028 1.028 0 0 1 .035-.363l.063-.207 1.078.047a.534.534 0 0 0 .316-.09c.117-.09.16-.094.309-.05.12.038.191.035.258-.005a.383.383 0 0 1 .187-.062c.148 0 .273-.125.328-.32.05-.172.067-.188.203-.176.121.012.184-.02.328-.18.102-.11.184-.223.184-.25 0-.027.074-.035.188-.02.124.02.3-.003.527-.07.215-.07.394-.093.5-.074.129.024.164.012.164-.043 0-.152-.3-.265-.918-.344-.781-.101-.797-.101-.813.028-.011.078-.07.12-.222.16-.125.027-.246.094-.29.16-.054.074-.124.11-.241.11-.149 0-.168.015-.184.128-.012.125-.04.14-.305.172-.265.035-.3.028-.449-.094-.156-.12-.16-.136-.09-.242.078-.117.074-.12-.344-.18-.171-.023-.187-.015-.285.169a.643.643 0 0 1-.218.25c-.106.046-.149.039-.274-.051-.094-.07-.183-.098-.242-.082-.074.023-.098.008-.098-.059 0-.144-.101-.207-.324-.207-.262 0-.348-.086-.238-.238.144-.2.004-.227-.27-.043-.289.187-.308.215-.347.57-.024.219-.047.266-.114.258-.043-.008-.117.031-.156.09-.066.09-.086.097-.156.047-.059-.055-.117-.055-.262-.008a1.668 1.668 0 0 1-.309.055c-.246 0-.27.07-.097.265.18.2.18.293 0 .293-.09 0-.113.024-.106.102.012.117-.062.191-.21.222-.063.012-.106.067-.122.164-.03.149-.047.153-.234.094-.098-.027-.113-.015-.113.094 0 .144-.114.164-.266.05a.496.496 0 0 0-.23-.07c-.18 0-.262-.148-.227-.414.031-.195.023-.207-.105-.234-.157-.04-.204-.066-.34-.242-.094-.121-.11-.125-.18-.059-.047.051-.117.067-.2.047-.116-.031-.12-.023-.136.254-.012.254-.023.285-.129.3-.062.009-.125.052-.14.095-.047.117-.125.156-.25.125-.082-.02-.141.011-.235.12a.822.822 0 0 1-.297.204c-.093.027-.172.062-.172.082a.52.52 0 0 0 .125.117c.149.117.157.277.032.555-.13.285-.223.343-.391.265l-.168-.086c-.023-.011-.035.032-.027.094.008.098-.008.113-.145.106a.716.716 0 0 1-.324-.133c-.094-.07-.203-.125-.25-.125-.086 0-.18.14-.18.273 0 .05-.023.121-.047.16-.039.063-.058.059-.144-.02a.24.24 0 0 0-.227-.054c-.086.02-.136.008-.156-.039-.012-.043-.105-.098-.2-.129-.14-.047-.163-.078-.14-.16.11-.379.11-.375-.14-.375s-.383-.047-.559-.203l-.105-.098-.032.188c-.054.32-.074.351-.222.379l-.297.058c-.223.043-.176.184.07.203.313.028.367.332.074.426-.05.016-.093.059-.093.098 0 .043-.055.07-.165.07-.093 0-.23.016-.316.027-.137.028-.152.051-.184.282-.02.136-.035.347-.035.468 0 .16-.027.235-.093.282-.165.113-.102.16.191.144.27-.012.281-.02.309-.16zm15.285-.059c.011-.02.035-.187.043-.375.015-.34.015-.343-.106-.343-.12 0-.129.008-.14.43-.012.413-.008.425.086.374a.38.38 0 0 0 .117-.086zm-20.668-.289a1.9 1.9 0 0 1 .246.059c.094.031.11.02.11-.082 0-.254.097-.305.652-.34.414-.027.52-.02.562.035.078.102.133.09.27-.054.097-.106.148-.122.289-.098.379.066.472.058.453-.043a.966.966 0 0 0-.164-.281c-.13-.16-.176-.184-.364-.184-.214 0-.414-.129-.414-.27 0-.058.184-.148.364-.175.152-.024.148-.125-.016-.207-.168-.086-.445-.098-.687-.032-.145.043-.157.04-.133-.046.027-.082.008-.098-.168-.098-.106 0-.211-.023-.227-.05-.02-.028.004-.153.055-.278.086-.219.086-.223-.027-.313l-.118-.09.164-.132c.118-.098.153-.164.141-.254-.016-.113-.035-.121-.371-.137l-.36-.016v.372c0 .289-.015.367-.07.367-.039 0-.094.035-.117.086-.047.074-.059.074-.156-.012-.082-.074-.195-.102-.457-.113-.399-.016-.453.004-.496.195-.024.102-.004.164.113.297.187.203.187.277.012.277-.164 0-.207.028-.352.23-.066.098-.101.208-.09.274.02.11 0 .121-.468.203-.434.082-.497.11-.555.223l-.07.121.28.031c.16.016.47.082.692.156.36.11.41.141.399.23-.016.09.015.114.16.138.113.02.219.062.316.129l.14.097.165-.117c.113-.09.2-.117.297-.098zm21.64-.816l.118-.121h-.2a9.393 9.393 0 0 0-.578.027c-.324.028-.375.051-.375.125 0 .082.043.09.457.09.426 0 .473-.008.578-.121zm1.493-.566l-.157-.153-2.75-.133c-1.508-.07-2.758-.117-2.773-.109-.012.008.086.121.223.254l.238.242 1.383.016 2.687.023 1.3.012zm16.226-.47c.059-.14.145-.253.18-.253.039 0 .144-.055.238-.113a.452.452 0 0 1 .344-.094c.14.015.191-.004.277-.106a.41.41 0 0 1 .121-.125c.016 0 .063.086.11.2.054.144.101.187.152.168a.899.899 0 0 1 .227-.028c.125 0 .14-.015.117-.097-.04-.118.058-.125.383-.04.253.067.445.008.628-.183.141-.145.106-.18-.25-.281a1.477 1.477 0 0 1-.367-.145c-.074-.055-.078-.074-.023-.168.058-.086.058-.125.004-.207-.035-.058-.055-.11-.047-.113.156-.094.437-.195.531-.203.07-.004.172-.024.223-.04.078-.027.117.005.183.114.051.098.121.148.2.148.058 0 .164.032.234.075.145.078.344.09.344.02a.657.657 0 0 0-.125-.216c-.153-.199-.153-.27-.004-.27.183 0 .21-.097.066-.222l-.133-.11.356-.175c.308-.14.375-.2.492-.406.129-.23.18-.426.102-.39-.09.046-.18.089-.27.132-.285.144-.387.113-.387-.113 0-.168-.101-.32-.218-.32-.032 0-.145.066-.246.144-.176.137-.262.168-.407.152-.031-.004-.074.055-.09.13-.058.273-.14.378-.32.394-.183.015-.648.328-.738.496-.07.129-.156.12-.297-.028-.152-.16-.297-.16-.297.004 0 .176-.086.313-.191.313-.078 0-.18-.192-.32-.598-.04-.125-.137-.082-.184.082a.677.677 0 0 1-.149.258c-.09.098-.144.117-.277.098-.184-.036-.215.05-.059.183.051.047.086.11.075.13-.02.023-.192.042-.383.046-.196.004-.41.02-.48.04l-.122.03.121.082c.07.04.246.137.395.211.148.082.27.164.266.192-.004.027-.106.07-.227.101-.137.032-.227.09-.258.157-.055.117-.176.136-.328.058-.082-.047-.137-.035-.285.067a.711.711 0 0 1-.336.128c-.125 0-.16.024-.184.137-.02.09-.078.152-.18.188-.222.082-.18.195.11.28.375.106.809.099.965-.019.16-.125.207-.125.254.012.176.445.203.488.285.414.043-.035.133-.18.2-.32zm-46.043-.827a.998.998 0 0 1 .43.008c.219.042.281.035.398-.032a.598.598 0 0 1 .246-.086c.137 0 .09-.093-.12-.234-.208-.14-.227-.262-.036-.238.129.011.129.004.117-.22-.011-.21 0-.23.098-.23a.71.71 0 0 1 .277.106c.168.101.176.105.242.016a.7.7 0 0 0 .083-.141c.011-.031.058-.02.125.035.113.106.12.098.109-.172a.7.7 0 0 1 .047-.281c.054-.098.062-.102.144-.027a.521.521 0 0 1 .125.203c.02.07.07.129.14.164.075.027.126.094.145.191.028.121.06.149.153.149.137 0 .273.117.273.222 0 .098.051.09.184-.035l.117-.11.219.106.222.11v-.282l.532-.03c.289-.02.562-.036.597-.048.047-.004.086-.066.094-.152a.435.435 0 0 1 .106-.227.614.614 0 0 0 .128-.23c.016-.086.075-.176.133-.207.137-.07.575-.07.715 0 .129.07.55.078.55.008 0-.028.028-.047.067-.047a.418.418 0 0 0 .13-.043c.054-.04.05-.063-.012-.156-.114-.157-.102-.235.039-.368a.376.376 0 0 0 .125-.238c0-.078.058-.184.144-.27.117-.117.188-.144.367-.144.164 0 .223-.02.223-.066 0-.043-.02-.086-.047-.102-.07-.043-.062-.203.016-.23a2.31 2.31 0 0 1 .422 0c.351.023.363.03.433.183.047.086.117.172.16.188.051.02.106.043.153.07a.54.54 0 0 0 .16.074c.055.02.086.074.086.168 0 .125.035.16.234.258.16.07.29.195.356.355.183.344.27.383.441.18.184-.223.352-.2.438.063.09.277.128.297.304.175.23-.16.508-.187.676-.054.074.062.176.164.219.238l.082.125.113-.137c.406-.476.363-.445.574-.386.188.05.203.043.344-.114.14-.156.156-.16.469-.144.394.011.52-.067.34-.215-.125-.098-.407-.188-.606-.188-.074 0-.25-.078-.402-.164a6.023 6.023 0 0 0-.547-.28c-.25-.106-.274-.134-.277-.27 0-.13-.02-.157-.157-.18-.5-.086-.656-.086-.84.008l-.183.097v-.113c0-.07-.074-.172-.203-.281-.196-.16-.203-.176-.157-.32.055-.145.051-.157-.101-.231-.152-.082-.152-.086-.043-.129.129-.058.14-.156.027-.2-.043-.019-.062-.05-.047-.066.047-.046.45-.152.79-.207.16-.023.32-.074.363-.113.058-.062.035-.094-.203-.242-.387-.246-.57-.617-.305-.617.07 0 .125-.028.125-.063.004-.101.21-.32.367-.375.078-.03.313-.047.52-.043l.367.008.203-.195.203-.203.45-.008c.519-.012.55 0 .745.39.075.149.18.31.239.36.097.086.105.082.336-.094l.234-.176.145.157c.113.125.132.183.113.308-.027.153-.024.156.195.219.176.043.235.086.274.2.05.148.086.167.398.218.105.016.27.086.367.148.098.07.219.121.266.121.113 0 .203-.152.14-.246a2.792 2.792 0 0 1-.148-.406c-.105-.336-.187-.441-.531-.7a1.302 1.302 0 0 1-.254-.253l-.102-.145.149.032c.156.031 1.488-.125 1.586-.18.039-.023.039-.066 0-.133-.035-.062-.035-.148-.004-.261.027-.086.047-.258.05-.38 0-.214.004-.222.231-.331.191-.09.27-.102.418-.067.098.027.195.031.21.012.017-.016.192-.031.388-.031.312 0 .359.011.445.113.074.09.121.105.23.082.122-.027.153-.016.188.09a.472.472 0 0 0 .14.183c.055.043.118.188.16.36.036.164.075.297.079.308.008.008.078-.023.168-.066.101-.05.176-.059.21-.031a.48.48 0 0 0 .208.062c.09.012.156.051.164.098.02.11-.258.414-.399.45-.113.026-.332.343-.332.483 0 .079.223.329.368.41.082.044.09.067.039.114-.082.086-.078.219.02.363.1.152.202.152.413 0 .09-.07.203-.125.246-.125.094 0 .305-.215.782-.789.168-.21.335-.379.37-.379.094 0 .391.153.462.242.058.07.054.18-.016.594-.031.176-.031.18.133.195.164.016.168.02.105.243-.015.066.02.109.133.152.145.062.191.059.414-.027.137-.051.29-.114.336-.141.148-.07.23-.047.309.102a.486.486 0 0 0 .152.187c.043.023.086.145.105.297l.032.262.297-.035c.222-.028.324-.063.41-.149a.829.829 0 0 1 .125-.125c.062-.012.828-.098.933-.102.172-.007.532.227.532.34 0 .051.027.114.062.145.043.047.09.027.2-.07.128-.13.144-.13.343-.075.348.106.48.121.48.063 0-.113-.164-.371-.472-.746-.34-.414-.399-.532-.32-.73.039-.106.03-.137-.07-.204-.15-.098-.22-.098-.473.004-.16.063-.223.066-.297.024a.776.776 0 0 0-.301-.055c-.203 0-.215-.008-.348-.246-.172-.297-.152-.426.09-.61.09-.07.172-.156.172-.183 0-.117-.48-.32-.95-.399-.421-.078-.491-.078-.687-.011-.379.129-.36.136-.36-.153 0-.148.028-.332.063-.406a.4.4 0 0 1 .45-.203c.093.023.172-.024.418-.258.168-.16.332-.297.375-.312.097-.032.015-.137-.118-.137-.257 0-.586-.297-.492-.442.035-.058.442-.058.649 0 .097.032.156.032.156 0 0-.027.07-.043.152-.043.09 0 .16-.03.18-.074.016-.043.086-.074.164-.074.145 0 .195-.07.195-.27 0-.109.086-.167.25-.167.067 0 .125.058.172.168.106.253.266.378.426.343.078-.02.246.004.383.047.136.043.304.074.375.067.097-.012.168.027.312.199.235.265.32.242.395-.102.094-.394.101-.426.183-.504a.288.288 0 0 1 .188-.074c.059 0 .137-.027.164-.062.047-.055-.016-.102-.285-.243-.278-.144-.39-.175-.602-.171-.316.007-.445-.055-.898-.446-.356-.308-.38-.316-.79-.36-.284-.03-.343-.007-.386.169-.074.3-.5.613-.746.55-.074-.015-.16-.003-.2.032-.062.05-.09.047-.136-.012a1.04 1.04 0 0 0-.266-.184c-.218-.117-.183-.124-.632.114a.622.622 0 0 1-.235.082c-.047 0-.11.05-.144.12-.043.095-.094.118-.235.118-.14 0-.215-.035-.343-.168-.258-.258-.375-.238-1.122.2-.144.085-.226.257-.234.515a.348.348 0 0 1-.094.18c-.09.097-.09.109-.008.226.083.125.083.133-.03.258-.259.29-.438.344-.438.133 0-.14-.13-.195-.367-.152-.145.027-.168.015-.192-.094-.02-.067-.12-.211-.23-.32-.106-.102-.196-.223-.196-.266a.353.353 0 0 0-.05-.168c-.063-.121-.395-.133-.489-.027a.486.486 0 0 1-.215.117l-.156.039.012.316.012.32-.2.028c-.125.015-.394-.016-.726-.094a61.15 61.15 0 0 0-.54-.117c-.034.05-.062.098-.089.152-.07.137-.098.149-.262.13-.152-.02-.285.019-.699.21-.508.234-.516.238-.52.41 0 .14-.027.188-.152.258-.086.043-.262.223-.39.395-.29.378-.438.445-.653.293a.898.898 0 0 0-.406-.137c-.332-.028-.5-.145-.691-.477l-.149-.258-.426-.007c-.363 0-.468.023-.703.132-.265.13-.281.149-.375.43-.125.395-.226.445-.851.43-.368-.008-.528.012-.75.09-.157.058-.309.132-.34.168-.047.058-.082.054-.223-.036-.133-.074-.183-.085-.238-.046-.11.097-.223.37-.223.558 0 .121-.039.207-.144.313-.164.16-.223.34-.18.52.02.085.117.163.332.273l.305.152-.164.066c-.227.094-.493.301-.493.375.02.079.055.145.106.204.168.21.086.289-.383.32a5.968 5.968 0 0 0-.832.14c-.355.082-.473.094-.598.055a1.073 1.073 0 0 0-.191-.055c-.07 0-1.008.973-1.008 1.043 0 .043.024.125.055.2.098.207-.012.242-.227.074-.144-.117-.203-.137-.254-.098-.039.035-.07.082-.07.117 0 .063-.363.317-.45.317-.085 0-.386-.309-.386-.399 0-.07-.039-.086-.219-.086-.12 0-.23-.023-.246-.046-.066-.102-.273-.059-.32.062a.263.263 0 0 1-.164.145c-.164.039-.258.234-.188.37.075.13.028.2-.125.2a.4.4 0 0 0-.242.121c-.168.164-.304.156-.594-.05-.335-.235-.476-.25-.886-.095-.281.102-.387.118-.625.094-.23-.023-.328-.008-.574.098-.165.066-.32.125-.352.125-.102 0-.379.23-.402.34-.028.074.043.175.27.418l.3.316-.234.234c-.176.172-.286.243-.426.266-.168.024-.196.05-.238.211-.06.2-.07.418-.028.461.016.016.133-.074.262-.203.133-.14.3-.258.406-.285zm38.242-.024c-.004-.222.016-.414.043-.43.024-.019.125-.011.22.016.237.067.296 0 .226-.234-.036-.102-.047-.203-.032-.227.016-.031.184-.035.414-.015.258.02.395.011.418-.024.047-.07-.148-.27-.41-.422-.226-.133-.422-.34-.375-.406.043-.07.313-.05.735.055.433.105.742.125.789.047.054-.09-.39-.239-1.035-.34-.657-.106-.965-.207-.801-.27.129-.047.105-.101-.07-.164-.212-.074-.622-.066-.899.012-.215.066-.227.066-.227-.02 0-.109-.3-.218-.43-.152a2.18 2.18 0 0 0-.296.273c-.113.125-.227.223-.258.223s-.11-.062-.176-.137c-.168-.195-.394-.293-.941-.402a3.913 3.913 0 0 1-.563-.144c-.078-.04-.16-.02-.406.105-.473.234-.734.125-.613-.262.062-.21-.004-.328-.188-.328-.152 0-.148-.101.012-.289l.129-.156-.152-.152c-.09-.09-.16-.2-.211-.317-.032-.101-.082-.152-.121-.137a2.21 2.21 0 0 1-.23.059c-.184.031-.25-.016-.302-.234-.03-.118-.054-.133-.156-.11-.094.031-.152-.004-.289-.137-.145-.156-.156-.19-.102-.265.106-.133.083-.285-.058-.399-.168-.125-.211-.12-.434.024l-.187.125-.106-.098c-.144-.129-.199-.125-.27.02-.03.07-.097.125-.155.125-.157 0-.168.117-.036.347.07.118.118.235.098.274-.039.105-.27.191-.629.226a2.34 2.34 0 0 0-.508.102c-.129.055-.156.09-.156.219 0 .125.016.148.086.12.137-.054.594.028.71.126.056.05.145.09.188.09.051 0 .118.03.153.078.05.062.074.062.164-.024.156-.144.23-.129.195.04-.031.163.05.343.16.343.043 0 .149-.07.239-.16.175-.168.488-.3.644-.27.067.012.113.086.149.227.05.211.421.645.554.645.063 0 .067.05.035.3-.066.551-.07.547.106.563.137.012.168.047.242.23.043.117.125.227.172.242.055.016.094.067.094.114 0 .129-.14.3-.246.3-.07 0-.098.032-.098.122 0 .148.125.218.39.218.278 0 .399.122.364.38-.031.234.086.308.277.167l.281-.203c.137-.098.168-.105.348-.05.246.074.352.023.543-.258.145-.207.207-.23.434-.16.078.027.113.003.152-.07.04-.087.098-.11.309-.122.168-.008.28.012.324.055.09.086.199.082.344-.012.078-.05.125-.059.152-.023.016.027.07.054.125.054.101 0 .101.004.2.547.026.18.073.34.1.352.02.02.094-.028.157-.094.066-.07.14-.125.172-.125.11 0 .254.258.254.45 0 .105.027.23.054.288.051.09.059.094.133.02.067-.067.082-.168.078-.48zm5.914-2.605c-.027-.121-.004-.16.141-.27.094-.07.215-.125.277-.125a.772.772 0 0 0 .243-.066c.14-.05.296-.086.445-.102.176-.015.328-.039.344-.05.011-.012.007-.079-.012-.145-.043-.164-.477-.387-.672-.348-.09.016-.16 0-.195-.047-.086-.101-.172-.09-.383.047-.25.164-.434.203-.473.106-.02-.055-.093-.078-.226-.078-.239 0-.25-.04-.051-.188.082-.055.148-.144.148-.191 0-.051.067-.188.149-.317.238-.379.23-.394-.414-.644-.215-.086-.313-.102-.383-.067-.05.028-.09.075-.09.102 0 .094-.09.016-.32-.27-.121-.16-.223-.328-.223-.378 0-.055-.055-.11-.137-.141a.555.555 0 0 1-.214-.152c-.079-.102-.094-.102-.29-.036-.16.051-.226.051-.3.008-.13-.082-.117-.086-.367.145-.168.152-.235.187-.282.14-.031-.027-.156-.054-.289-.054-.176 0-.242-.02-.3-.106-.06-.09-.083-.094-.243-.047-.183.067-.308.04-.445-.074-.082-.074-.211-.047-.164.035.012.02-.028.106-.094.18-.082.102-.105.16-.074.21.023.04.043.169.047.294 0 .27.027.289.441.289.16 0 .3.016.317.039.02.027.109.004.21-.047.192-.098.415-.09.551.02.035.027.153.05.262.039.215-.012.336.058.336.195 0 .055.05.094.144.113.208.047.399.211.399.34 0 .067.055.133.148.192.18.101.184.148.024.351-.14.18-.156.266-.055.266.04 0 .094.07.125.156.05.148.047.168-.094.285-.215.18-.191.238.098.238.2 0 .277.024.363.114.149.144.461.152.504.015.028-.078.063-.086.258-.058.125.011.316.031.422.039.117.008.21.043.242.094.09.14.184.105.152-.051zm7.145-1.602a3.745 3.745 0 0 1-.078-.316 1.13 1.13 0 0 0-.39-.688c-.079-.066-.145-.14-.145-.172 0-.027.086-.09.187-.144a.694.694 0 0 0 .254-.227c.055-.125.047-.148-.05-.23-.087-.063-.098-.098-.051-.14.074-.079.066-.216-.02-.25-.04-.012-.113-.11-.164-.208-.125-.242-.262-.363-.461-.402-.137-.027-.168-.067-.281-.34-.075-.176-.184-.352-.258-.406-.117-.086-.156-.09-.39-.043-.141.031-.262.05-.266.043 0-.121.007-.246.02-.371.027-.336.019-.36-.09-.45-.087-.062-.2-.093-.403-.093-.328 0-.57.133-.688.383-.066.132-.09.148-.156.09-.062-.047-.07-.11-.039-.352a1.48 1.48 0 0 0 .016-.324.4.4 0 0 0-.153-.059c-.085-.02-.16-.09-.207-.188-.093-.199-.375-.386-.515-.347-.102.05-.2.117-.281.2-.176.163-.18.167-.5.128-.274-.023-.329-.047-.375-.14-.106-.239-.516-.098-.899.308l-.226.234-.192-.164-.328-.289a.534.534 0 0 0-.348-.133c-.113-.004-.363-.078-.558-.164-.211-.09-.434-.156-.555-.156-.11 0-.2-.02-.2-.047 0-.078-.425-.324-.616-.36-.125-.027-.172-.058-.172-.128 0-.14-.176-.29-.344-.29a2.44 2.44 0 0 1-.703-.152c-.129-.062-.219-.05-.465.06-.16.07-.277.093-.39.073-.208-.039-.294.086-.247.367.028.172.016.211-.12.329-.087.09-.145.187-.145.265 0 .098-.028.13-.094.13-.05 0-.254.073-.453.167-.32.152-.363.16-.457.094-.106-.07-.684-.098-.844-.04-.11.04-.098.102.078.317.121.153.14.207.094.262-.031.035-.043.117-.023.168.02.059.007.101-.032.101-.066 0-.941.34-.996.387-.058.051.184.227.45.32.288.11.355.157.355.266 0 .133.094.164.2.07.073-.066.12-.074.237-.03.118.038.184.03.336-.048a.65.65 0 0 1 .418-.074c.215.027.239.016.301-.101.047-.11.094-.133.223-.125.195.007.199-.047.004-.262-.082-.09-.137-.195-.13-.227.009-.027.118-.086.235-.12.121-.036.25-.071.281-.087.035-.008.059-.082.059-.164 0-.18.14-.258.375-.215.125.024.207.082.309.235.12.18.152.199.343.199.168 0 .242-.027.344-.133.113-.117.121-.148.066-.262-.046-.105-.039-.148.047-.265.125-.176.274-.262.32-.192.02.036.114.043.25.02.34-.05.403.031.376.515l-.028.387h.2c.109 0 .234.031.273.074.086.082.133.047.133-.093 0-.078.058-.125.25-.188l.25-.09.242.16c.21.141.242.188.242.336.004.168.004.168.258.192.144.012.352.02.46.02.106 0 .216.027.243.058.027.031.164.082.297.11.242.05.246.046.406-.118.168-.183.211-.195.297-.113.043.047.082.039.16-.031.094-.082.114-.086.235-.02.074.04.18.145.234.23.05.083.133.153.172.157.097 0 .195.094.195.183 0 .04-.055.137-.12.215-.087.098-.118.176-.099.254.024.09-.004.125-.18.2-.175.081-.195.1-.12.144.05.023.191.129.316.223.277.218.402.257.559.191.191-.09.629 0 .742.152l.097.125-.156.211c-.3.406-.144.625.215.297.121-.113.27-.203.32-.203.059 0 .22-.063.368-.145.14-.082.308-.148.363-.148.074 0 .105-.035.117-.129.012-.11.05-.14.195-.176.243-.054.336.004.434.262.055.14.129.238.21.277.102.047.145.118.188.332.047.211.082.278.176.313.09.031.117.082.117.191 0 .102.032.16.09.18.278.094.656.281.73.363.11.121.294.125.239.008zm-14.457-.453c0-.11-.176-.34-.352-.46-.132-.095-.187-.169-.207-.31-.027-.164-.062-.199-.316-.331-.281-.145-.43-.2-.836-.301-.164-.043-.211-.078-.211-.16a.312.312 0 0 0-.082-.192c-.074-.078-.074-.105-.012-.219.059-.101.059-.136.008-.152-.125-.039-.2-.156-.23-.367-.016-.121-.063-.242-.098-.274-.043-.035-.059-.113-.04-.242.024-.175.013-.199-.105-.246-.117-.039-.128-.058-.082-.14a.442.442 0 0 0 .051-.125c0-.047-.472-.028-.742.03-.344.071-.535.024-.773-.198l-.207-.188.07-.207c.09-.246.043-.336-.176-.336-.105 0-.16-.035-.187-.113-.082-.211-.184-.254-.442-.188a.92.92 0 0 1-.37.028c-.114-.028-.161 0-.317.16l-.184.191-.219-.136a1.49 1.49 0 0 0-.258-.141c-.019 0-.082.074-.136.16-.074.125-.149.168-.332.211-.188.04-.239.07-.25.156-.012.09-.051.106-.227.106-.254 0-.3.039-.195.152.058.066.074.14.05.27a.518.518 0 0 0 .028.277c.04.074.035.11-.031.156-.121.086-.098.133.172.336.136.102.285.254.324.328l.078.145.152-.14c.117-.114.184-.141.278-.118.066.023.226.016.359-.016.172-.035.281-.03.395.008.148.059.168.05.308-.082.188-.18.434-.2.52-.043.047.082.086.094.218.074.13-.02.168-.007.188.067.031.113.144.12.23.023.059-.07.075-.07.157.008.09.074.101.074.21-.031l.118-.106.09.133c.05.07.152.192.226.266.098.097.137.183.137.304 0 .102.016.176.039.176s.078.035.129.067c.078.054.082.078.023.168-.054.093-.05.117.043.207.149.136.137.246-.039.414-.082.074-.144.175-.144.222 0 .094.054.118.418.164.132.016.28.055.332.082.066.032.133.02.258-.058l.171-.102.211.102c.121.055.313.098.434.098.258 0 .414.093.46.273.028.11.056.125.165.105a.954.954 0 0 1 .332.036c.254.078.418.085.418.02zm0 0"/></svg>