<svg xmlns="http://www.w3.org/2000/svg" width="64" height="64"><path d="M30.31 62.954c-4.558-.245-9.1-1.527-13.065-3.686-6.71-3.654-11.812-9.575-14.403-16.715C.755 36.803.43 30.393 1.926 24.45c1.183-4.703 3.393-8.961 6.589-12.694.722-.843 2.397-2.518 3.24-3.24C18.65 2.613 27.493.042 36.502 1.32c4.33.615 8.762 2.293 12.435 4.708 9.766 6.423 15.071 17.54 13.903 29.136-1.06 10.54-7.52 19.86-17.049 24.6a30.96 30.96 0 0 1-15.481 3.19zm3.756-.911a20.917 20.917 0 0 0 10.258-3.831l.526-.376-1.652-1.683c-.909-.925-1.667-1.683-1.685-1.683-.018 0-.166.092-.329.205-1.453 1.012-3.421 1.883-5.259 2.329-1.355.328-2.352.442-3.856.44-1.294 0-1.998-.068-3.167-.3-2.877-.575-5.645-1.981-7.78-3.955-.19-.175-.363-.313-.384-.305-.02.008-.78.742-1.69 1.632l-1.652 1.617.3.278c2.32 2.149 4.836 3.654 7.735 4.628 1.658.558 3.122.854 5.16 1.047.536.05 2.783.023 3.475-.043zm11.526-4.814a20.877 20.877 0 0 0 2.685-2.701l.244-.294-1.652-1.687c-.91-.928-1.667-1.679-1.685-1.668-.017.01-1.56-1.51-3.43-3.379l-3.398-3.398h3.12l-.012-1.678-.012-1.677-3.238-.012-3.237-.012-6.31-6.31c-3.47-3.47-6.288-6.309-6.263-6.309.026 0-.702-.75-1.618-1.665-.916-.916-1.684-1.666-1.707-1.666-.084 0-1.148.934-1.765 1.549-.576.574-1.595 1.714-1.595 1.785 0 .055 3.293 3.375 3.347 3.375.03 0 2.134 2.08 4.676 4.621l4.62 4.62H19.38v3.379H31.74l5.032 5.031c2.767 2.767 5.032 5.054 5.032 5.082 0 .046 3.266 3.398 3.311 3.398.01 0 .225-.173.477-.384zm-26.738-2.985l1.656-1.628-.408-.445c-2.354-2.57-3.774-5.703-4.201-9.266-.08-.66-.08-2.794 0-3.424.348-2.777 1.125-4.932 2.6-7.215l.328-.507-1.306-1.323a897.335 897.335 0 0 1-1.664-1.69l-.36-.368-.305.414c-2.043 2.768-3.4 6.14-3.859 9.586-.179 1.348-.231 3.302-.12 4.527.385 4.28 1.95 8.175 4.604 11.47.433.538 1.298 1.503 1.345 1.5.018-.001.779-.735 1.69-1.63zm30.376-.967a21.182 21.182 0 0 0 3.666-9.41c.193-1.52.214-3.594.05-4.973-.517-4.38-2.255-8.33-5.077-11.54a16.95 16.95 0 0 0-.642-.702l-.126-.116-1.647 1.648-1.648 1.648.413.461c3.787 4.235 5.1 10.001 3.517 15.451a16.21 16.21 0 0 1-2.001 4.31c-.178.268-.316.504-.309.525.007.02.751.79 1.653 1.71l1.64 1.675.09-.111c.05-.06.239-.32.42-.576zm-5.644-10.864v-1.877h-.891v3.753h.891v-1.876zm1.596 0v-1.877h-.892v3.753h.892v-1.876zm-.4-3.753c-.001-.32-.023-.443-.11-.623-.301-.617-.976-.97-2.085-1.09l-.271-.03.178-.13a1.963 1.963 0 0 0 .723-2.152c-.19-.625-.673-1.127-1.487-1.544l-.426-.218.177-.177c.615-.615-.093-1.858-1.362-2.391-.36-.152-.898-.277-1.186-.277h-.19l.175-.194c.337-.373.52-.966.484-1.572-.034-.58-.287-1.023-.714-1.251-.19-.102-.218-.103-2.799-.116l-2.606-.013-.091.1c-.075.083-.09.17-.09.508 0 .38.012.435.182.781.249.509.877 1.139 1.389 1.394.355.177.982.363 1.226.363h.132l-.133.21c-.504.795-.194 1.805.762 2.483.586.415 1.305.684 1.829.684h.235l-.17.13c-.8.606-.725 1.864.164 2.739.297.292.834.593 1.246.699l.238.06-.026.311c-.04.474.13.747.658 1.055.636.372 2.228.68 3.433.666l.516-.006-.002-.4zm1.842-12.61c-.86-.878-2.518-2.134-3.882-2.942-3.588-2.124-8-3.154-12.153-2.837-3.88.296-7.577 1.63-10.683 3.857-.29.208-.527.39-.527.406 0 .016.75.778 1.665 1.694 1.287 1.286 1.68 1.654 1.731 1.618.902-.642 2.5-1.491 3.565-1.894a16.23 16.23 0 0 1 13.517.9c.592.32 1.562.946 2.11 1.363.394.3 1.407 1.175 1.522 1.315.061.075.21-.06 1.724-1.574l1.656-1.656-.245-.25zm-33.588-6.556c.198-.04.536-.156.75-.257.865-.41 1.286-1.155 1.218-2.153-.042-.608-.27-1.011-.748-1.32-.35-.226-.749-.358-1.985-.654-.542-.13-1.065-.271-1.164-.314-.499-.22-.6-.827-.196-1.182.247-.217.607-.303 1.146-.276.695.034 1.099.281 1.226.75l.071.26c.012.043.198.058.722.058h.705l-.001-.153c-.005-.705-.543-1.518-1.225-1.852-.504-.247-.83-.312-1.565-.312-.724-.001-1.05.061-1.554.296-.846.394-1.301 1.298-1.145 2.27.066.415.207.71.46.962.323.323.761.499 2.013.806.614.151 1.213.316 1.331.366.318.137.466.337.466.627 0 .328-.11.533-.367.684-.545.32-1.594.322-2.106.006a1.056 1.056 0 0 1-.458-.665l-.055-.244-.712-.013-.712-.013v.145c0 .28.149.79.309 1.061.358.606 1.077 1.04 1.92 1.156.368.05 1.319.028 1.656-.04zm14.402-.543l-.014-.615-.336-.086c-.99-.25-1.47-1.047-1.469-2.433.001-.885.169-1.446.569-1.9.199-.226.631-.474.908-.52.384-.064.356-.008.342-.695l-.014-.618-.258.014c-.622.035-1.41.34-1.887.73-.484.397-.868 1.043-1.05 1.765-.072.286-.088.524-.088 1.267 0 .811.013.957.108 1.29.303 1.06.93 1.78 1.89 2.167.351.142.787.24 1.087.245l.225.004-.013-.615zm.99.52c1.536-.368 2.406-1.513 2.517-3.313.098-1.58-.44-2.891-1.447-3.525-.466-.293-.825-.418-1.57-.545l-.152-.026v.656c0 .614.006.656.09.656.203 0 .637.215.877.435.498.455.764 1.3.705 2.239-.079 1.232-.575 1.987-1.454 2.208l-.218.055v1.255h.13c.07 0 .306-.043.522-.095zm24.457.044c.439-.091.883-.337 1.225-.68.173-.172.314-.305.314-.295 0 .01.031.197.07.416.039.22.07.404.07.41 0 .007.233.013.517.013h.517l-.013-1.912-.012-1.912-1.49-.012-1.489-.013v1.221h1.644l-.03.13c-.056.25-.292.705-.464.896-.611.676-1.88.701-2.618.052-.442-.39-.659-1.034-.66-1.969-.002-1.195.396-1.992 1.18-2.359.263-.123.384-.15.737-.165.353-.015.468 0 .704.088.36.135.83.585.917.879l.06.197h1.496l-.033-.176a2.544 2.544 0 0 0-.756-1.4c-.676-.657-1.779-.97-2.898-.82-1.526.203-2.568 1.235-2.87 2.842-.108.575-.075 1.623.068 2.157.321 1.202 1.16 2.079 2.266 2.368.393.103 1.157.125 1.548.044zm-35.43-3.1c0-1.63.009-2.954.02-2.944.017.018 1.294 5.818 1.294 5.88 0 .015.335.028.745.028h.746l.07-.317c.04-.174.332-1.486.65-2.916l.58-2.598.012 2.915.012 2.916h1.407v-7.131h-1.076c-.984 0-1.078.007-1.1.082-.013.045-.289 1.264-.613 2.71a129.525 129.525 0 0 1-.627 2.713c-.023.057-.251-.855-.663-2.65a282.567 282.567 0 0 0-.648-2.797c-.016-.044-.279-.058-1.095-.058h-1.074v7.131h1.36v-2.964zm16.28 1.779v-1.185l.344-.373.344-.374.139.191c.076.106.57.807 1.098 1.558l.96 1.366h.95c.522.001.95-.01.95-.023s-.668-.936-1.483-2.05c-.816-1.115-1.495-2.056-1.508-2.092-.016-.04.51-.601 1.424-1.515l1.449-1.45h-1.93l-1.33 1.42c-.733.78-1.349 1.426-1.37 1.435-.02.008-.038-.63-.038-1.42v-1.434h-1.5v7.13h1.5l.001-1.184zm6.943-2.38v-3.566h-1.501v7.131h1.5v-3.566zm2.72 1.02v-2.546l1.449 2.534 1.447 2.533.757.013.758.013v-7.133h-1.407l-.012 2.464-.012 2.464-1.405-2.464-1.404-2.464H41.99v7.131H43.4v-2.546zm-7.224-7.138v-.629l-.246-.057c-.96-.223-1.488-1.09-1.488-2.439 0-.821.197-1.469.58-1.909.17-.196.752-.53.922-.53.225 0 .232-.02.232-.69V2.81l-.246.032c-.75.097-1.502.428-1.942.854-.773.748-1.084 1.675-1.036 3.087.038 1.097.296 1.862.834 2.473.505.573 1.484 1.039 2.238 1.064l.152.005v-.628zm1.383.435c1.144-.382 1.825-1.16 2.12-2.423.13-.547.115-1.864-.024-2.377-.364-1.335-1.212-2.155-2.504-2.422-.707-.146-.647-.196-.647.538 0 .672.005.685.25.685.187 0 .685.274.899.494.231.238.447.654.547 1.054.095.385.081 1.491-.024 1.873-.23.836-.74 1.34-1.5 1.483l-.172.032V10.337l.317-.032c.174-.018.506-.096.738-.174zM27.412 7.607l.012-2.53 1.447 2.53 1.447 2.53H31.811V3.006h-1.407l-.001 2.475v2.474l-1.411-2.474-1.412-2.475h-1.586v7.131H27.4l.012-2.53z"/></svg>