<svg xmlns="http://www.w3.org/2000/svg" width="64pt" height="64pt" viewBox="0 0 64 64"><path d="M30.508 64.387c-4.086-.196-7.934-1.09-11.496-2.684C10.027 57.691 3.34 49.68.96 40.09a32.76 32.76 0 0 1-.598-12.735c.809-5.53 3.117-10.863 6.606-15.273C14.406 2.692 26.285-1.707 37.977.609a31.666 31.666 0 0 1 13.246 6.098c1.129.887 1.941 1.617 3.043 2.738 1.734 1.754 3.082 3.442 4.316 5.407 4.719 7.48 6.176 16.52 4.063 25.16a32.298 32.298 0 0 1-9.286 15.86 31.647 31.647 0 0 1-15.484 7.952c-2.336.457-5.113.672-7.367.563zm-1.856-3.473c-.02-.039-.117-.187-.21-.332-.829-1.246-1.364-3.004-1.364-4.45 0-1.183.395-2.589.985-3.5.343-.523.609-.823 1.054-1.179.824-.664 2.676-1.375 3.91-1.496.47-.05.473-.062.07-.418-.913-.824-2.39-1.766-2.769-1.766-.207 0-1.125.235-1.16.293-.016.028-.25.157-.523.293a9.42 9.42 0 0 0-.864.496c-.855.586-1.828 1.536-2.254 2.192-.52.808-.965 1.914-1.18 2.937-.277 1.368.06 4.196.676 5.668l.215.524.27.101c.652.254 1.668.512 2.472.621.649.086.715.086.672.016zm2.387-.066c.242-.043.465-.094.496-.114.043-.02-.027-.144-.21-.386-.243-.317-.282-.352-.38-.313-.242.094-1.133.16-1.742.13-.34-.024-.621-.024-.621 0 0 .034.125.222.39.577l.173.238.73-.023c.398-.016.926-.059 1.164-.11zm2.043-.676c2.422-1.23 3.516-3.668 2.82-6.297-.105-.406-.414-1.25-.48-1.309-.035-.043-1.344.137-1.73.235-.294.09-.579.199-.848.336-.871.437-1.305.875-1.73 1.754-.43.882-.618 1.843-.528 2.683.066.617.309 1.504.492 1.813.18.293.613.898.805 1.101l.117.133.352-.125c.187-.07.52-.215.73-.324zm-8.492-.668l-.195-.477-.473-.28c-.39-.231-1.188-.81-1.79-1.286-.112-.09-.112-.086.036.32.289.805.367.922.828 1.23.336.231 1.688.977 1.77.977a3.81 3.81 0 0 0-.176-.48zM21.652 57.3c-.293-.883-.43-1.38-.48-1.754-.27-1.844-.11-3.387.5-4.817.531-1.234 1.75-2.57 3.05-3.32.383-.222 1.415-.687 1.65-.75.257-.066.1-.11-.497-.144-1.535-.09-3.074.21-4.29.84-3.323 1.714-3.933 5.574-1.425 9.011.281.39 1.746 1.938 1.785 1.887.008-.008-.125-.438-.293-.953zm-2.965.07c.504-.125.477-.406-.058-.582-.652-.21-1.156-.57-1.05-.758a.9.9 0 0 1 .21-.191c.223-.149.52-.55.606-.824.14-.418.074-.942-.168-1.286-.13-.183-.485-.398-.743-.44-.113-.028-.375-.013-.66.034-.562.094-.793.063-.992-.14-.129-.133-.145-.172-.125-.383.027-.258.152-.5.477-.914.652-.836.75-1.668.253-2.211-.171-.188-.359-.281-.566-.281-.168 0-.172-.004-.137-.133.11-.418-.035-.946-.336-1.223-.257-.23-.464-.316-.859-.352-1.2-.101-2.582 1.106-2.172 1.903.082.168.184.21.332.156.102-.043.371-.39.371-.488 0-.11.414-.5.688-.645.39-.21.847-.265.984-.113.164.184.09.348-.308.684-.461.386-.614.652-.54.933.067.242.22.414.372.414.066 0 .261-.066.433-.144.172-.078.375-.157.453-.176a.561.561 0 0 1 .57.273c.141.27.075.493-.304 1.051-.422.617-.52.817-.594 1.18-.058.297-.035.722.059.96.062.18.222.345.453.47.18.097.25.105.984.093l.793-.015.145.144c.238.242.187.403-.336.953-.211.223-.41.453-.438.512-.09.172-.062.395.063.652.324.653 1.367 1.086 2.144.887zm25.075-.574c.332-.16.75-.586.82-.836.285-1.04-.695-2.777-1.68-2.988-.14-.032-.156-.059-.207-.313a1.96 1.96 0 0 0-.597-1.074c-.496-.465-1.114-.61-1.832-.426l-.403.106-.246-.196c-.304-.242-.828-.418-1.117-.37-.719.112-1.262.87-1.262 1.753 0 .406.086.719.274.965.207.27.254.187.246-.438-.004-.503.004-.578.12-.8.177-.348.462-.54.802-.54.23 0 .28.016.418.153.148.152.156.18.183.645.032.539.082.656.297.656.285 0 .473-.211.758-.852.094-.219.168-.308.285-.367.215-.105.559-.05.75.113.184.16.414.621.371.754-.015.059-.16.2-.316.32a3.32 3.32 0 0 0-.442.422c-.191.25-.382.707-.386.926-.004.461.566.91.968.77.075-.032.274-.246.493-.532.363-.488.644-.718.859-.718.14 0 .457.293.617.562.07.117.156.344.2.504.124.488.019.781-.485 1.34-.363.402-.395.523-.16.594.2.054.332.027.672-.133zm-8.594-4.59c.074-.027.035-.11-.3-.621a13.36 13.36 0 0 0-.708-.969c-.289-.336-.344-.383-.492-.383-.195 0-.914.098-.945.125-.012.016.113.164.273.332.395.418.781.88 1.059 1.286l.234.336.395-.036a3.1 3.1 0 0 0 .484-.07zm19.625-.59c1.434-.277 3.273-2.043 4.016-3.867.195-.477.285-.805.441-1.668.148-.832.309-1.164 1.086-2.277.969-1.387 1.254-2.028 1.21-2.754-.023-.36-.148-.817-.226-.817-.015 0-.097.106-.18.239-.109.164-.14.257-.113.332.082.21.043.715-.078 1.093-.164.493-.453.977-1.078 1.82-.281.372-.598.86-.703 1.083-.188.394-.223.539-.473 1.863a4.637 4.637 0 0 1-.734 1.8c-.883 1.349-2.117 2.391-3.113 2.634-.809.187-1.211-.008-1.485-.707a2.206 2.206 0 0 0-.27-.512c-.128-.152-.144-.16-.218-.078-.082.078-.082.097 0 .418.172.703.54 1.168 1.066 1.351.286.102.496.114.852.047zm-12.004-1.472c.125-.06.363-.23.531-.38.48-.417.75-.421 1.64-.019.864.383 1.33.438 1.505.168.094-.152.058-.21-.121-.187-.203.035-.68-.106-1.09-.313-.606-.309-.93-.414-1.29-.414-.374 0-.495.063-.94.453a2.632 2.632 0 0 1-.493.34c-.207.09-.246.094-.539.027-.469-.097-.984-.52-1.273-1.043-.309-.55-.39-1.62-.239-3.027.122-1.168.165-1.977.122-2.426-.036-.386-.067-.492-.293-.937-.368-.735-.45-1.242-.34-2.016.05-.34.047-.379-.047-.535-.207-.344-.11-.844.242-1.191l.23-.235-.078-.195c-.046-.11-.105-.195-.132-.195-.102 0-.399.238-.528.43-.398.59-.476 1.421-.152 1.679l.121.094-.129.257a1.397 1.397 0 0 0-.117.973c.031.129.23.602.441 1.047.215.445.41.93.434 1.07.039.215.023.446-.11 1.309-.132.906-.156 1.164-.152 1.93.016 1.48.125 1.925.668 2.59.621.761 1.485 1.062 2.13.746zm7.73-.012c.665-.192 1.086-.45 1.653-1.031.969-.973 1.601-2.153 1.758-3.266.05-.34.043-.48-.02-.887-.14-.844-.379-1.215-.762-1.215-.304 0-.593.246-1.37 1.18-.493.598-.774.895-.923.98-.21.118-.218.118-.398.032-.242-.114-.39-.442-.523-1.137-.309-1.664-.418-1.89-.934-1.934-.21-.015-.29 0-.43.094-.25.176-.523.625-.875 1.442-.34.793-.523 1.062-.703 1.062-.156 0-.289-.172-.633-.828-.347-.664-.597-1.008-.742-1.027-.183-.032-.219.136-.195.847.039 1.07.355 2.242.91 3.399.695 1.453 1.395 2.125 2.461 2.363.457.102 1.238.07 1.727-.07zm5.086-.285c.508-.239.907-1.301.7-1.864-.14-.37-.496-.476-.828-.25-.54.371-.934 1.489-.696 1.957.133.258.469.317.824.157zm-13.074-1.524c.254-.183.328-.41.328-.996 0-.59-.086-.906-.316-1.195-.246-.301-.684-.313-1-.028-.234.208-.332.563-.305 1.118.024.484.137.78.41 1.074.157.168.172.176.446.156.187-.016.336-.058.437-.129zm-13.5-.597a5.64 5.64 0 0 1 .543-.153c.153-.039.262-.078.25-.097-.058-.102-1.633-.614-2.262-.739-.265-.054-.292-.047-.863.164-.324.121-.62.243-.664.266-.055.027.09.066.473.129.512.086 2.015.445 2.07.5.047.043.188.023.453-.07zm27.434-4.204c1.008-2.062 1.633-2.941 2.406-3.402.559-.328.824-.394 1.082-.254.297.153.317.418.074 1.008-.093.23-.168.453-.168.496 0 .094.09.195.184.195.055 0 .055-.015.012-.074-.047-.054-.004-.137.23-.43.36-.445.785-1.07.785-1.152 0-.094-.285-.316-.582-.457-.515-.242-1.308-.125-1.925.277-.29.192-.993.868-.993.958 0 .023-.117.19-.265.374-.489.618-.985 1.516-1.485 2.704-.293.691-.343.937-.218 1.03a.371.371 0 0 0 .148.071c.035 0 .355-.605.715-1.344zm2.203.633c.367-.383.59-.707.734-1.062.133-.32.149-.719.035-.88-.101-.148-.417-.304-.609-.304-.383 0-.922.469-1.21 1.05l-.145.294.191.086c.336.156.555.629.367.789-.258.215-.172.422.145.371.16-.023.25-.09.492-.34zm-14.445-1.941a46.497 46.497 0 0 1-.055-1.488c-.008-.598-.043-.77-.45-2.223-.265-.957-.503-1.328-1.015-1.61-.808-.433-1.879-.167-2.172.536-.07.164-.066.199.043.511.125.364.203.465.43.563.121.05.137.047.113-.012-.312-.828.07-1.437.852-1.344.558.067 1.097.547 1.343 1.2.356.945.497 1.847.528 3.43.031 1.32.039 1.363.293 1.363h.129zm7.453.332c.16-.094.476-.555.71-1.02.173-.343.434-.632.637-.699.325-.11.711.11.918.52.04.086.098.304.13.488.074.477.234.754.398.687.074-.027.183-.273.281-.613.086-.312.152-1.531.105-1.996a3.001 3.001 0 0 1-.035-.457c.008-.008.184.18.387.422.488.582.7.73 1.258.871.242.063.465.105.48.094.016-.008.149-.153.29-.32.253-.297.253-.301.09-.212-.22.118-.68.118-.985 0-.399-.152-.91-.707-.91-.984 0-.043.058-.129.12-.195.067-.07.126-.149.126-.172 0-.094-.348-.168-.625-.137-1.078.125-1.18.106-1.176-.207.004-.324.328-.73.8-.996.384-.215.49-.23.817-.11.215.079.235.079.313 0 .156-.156.035-.331-.395-.562-.207-.113-.406-.25-.445-.297-.078-.105-.086-.34-.02-.539.106-.297.672-.64.961-.578.219.047.735.313.864.442.062.066.14.12.171.12.106 0 .582-.562.582-.687 0-.187-.109-.398-.222-.426-.125-.03-.34.09-.414.235-.067.12-.317.117-.719-.008-.414-.133-.64-.125-.945.027-.309.16-.551.38-.672.621-.125.25-.121.688.008.973.074.172.082.227.035.258-.133.082-.184.027-.403-.39-.582-1.141-1.418-1.837-2.457-2.06-.468-.1-1.246-.07-1.722.07a5.075 5.075 0 0 0-1.442.735c-1.308 1.008-2.578 3.078-3.015 4.91-.18.766-.102 1.102.304 1.301.532.258.907.059 1.575-.836.195-.261.437-.539.53-.62a1.05 1.05 0 0 1 1.47.093c.082.09.328.473.546.852.473.824.723 1.164.989 1.359.234.172.476.191.703.043zm-10-.676c.238-.348.574-.7.781-.805.211-.109.254-.222.25-.664 0-.343-.156-.718-.367-.875-.492-.359-1.406.938-1.344 1.918.016.282.04.336.184.489.093.093.203.171.254.171.046 0 .156-.105.242-.234zm3.558-3.86c.258-.261.297-.452.133-.706-.113-.168-.101-.196.13-.305.222-.11.323-.277.448-.79.14-.573.203-.683.465-.796.117-.059.219-.121.219-.148 0-.059-.04-.07-.68-.176-1.531-.25-2.59-1.031-3.094-2.285l-.109-.274.211-.238c.223-.25.414-.676.414-.93 0-.363-.465-.996-.957-1.308-.176-.117-.223-.18-.285-.387-.11-.387-.184-.957-.152-1.195.062-.442.316-.692.64-.633.34.066.848.676 1.09 1.32.168.43.262.531.488.531.27 0 .352-.086.399-.445.05-.379.191-.687.414-.914.133-.133.203-.168.36-.168.558 0 .73.39.816 1.906.05.844.109 1.004.449 1.317.363.34.898.511 1.941.64.805.102.906.102.934-.015.039-.13-.328-.274-.938-.375-.625-.102-.996-.203-1.285-.352-.555-.277-.668-.52-.687-1.445-.012-.7-.063-1.02-.215-1.367-.215-.496-.492-.696-.953-.7-.434 0-.828.356-1.117 1-.075.18-.153.325-.168.325-.012.004-.09-.121-.16-.278-.415-.855-.977-1.34-1.555-1.343-.387 0-.66.21-.79.605-.105.316-.07 1.04.067 1.563.063.214.082.386.059.418-.024.03-.02.148.007.277.043.226.047.226.278.25a.89.89 0 0 1 .39.14c.235.176.442.524.442.73 0 .337-.293.645-.61.645-.117 0-.128.012-.097.137.02.074.062.2.097.281.032.082.125.313.196.508.383 1.032 1.203 1.727 2.52 2.137.273.082.523.184.558.23.094.118.066.489-.05.848-.099.285-.134.336-.352.48-.438.286-.512.47-.282.712.094.097.117.16.086.203-.222.304-.41.632-.57.98l-.149.336.083.375.09.371.304-.734c.25-.606.34-.766.527-.957zm13.86 1.09c.14-.003.418-.316.418-.46 0-.07.058-.227.125-.356.07-.129.164-.379.218-.558.051-.18.176-.446.266-.598.223-.344.313-.652.352-1.184.027-.406.023-.433-.13-.761-.226-.473-.827-1.067-1.898-1.883-.465-.36-1.027-.817-1.238-1.024-.383-.363-.395-.37-.586-.34-.375.063-.375.083.05.5.216.211.782.676 1.259 1.028.898.656 1.675 1.355 1.937 1.738.196.29.215.527.086 1.043-.137.535-.34 1.031-.848 2.063l-.41.832.153-.016c.086-.008.164-.02.25-.023zm-44.754-1.8c.14-.07.383-.254.539-.41l.285-.286v-.39c0-.219.016-.508.031-.64l.032-.243-.168.223c-.239.312-.446.445-.72.445-.523 0-.94-.578-.85-1.18.1-.718.718-1.238 1.46-1.238.297 0 .29.027.235-.539l-.036-.309-.664.028c-1.109.047-1.746.254-2.214.715-.45.445-.637 1.039-.594 1.878.039.778.23 1.243.676 1.653a1.75 1.75 0 0 0 1.988.293zm17.598.176c.136-.024.367-.082.511-.122l.262-.078.031-.359c.02-.191.063-.57.106-.836.035-.262.066-.492.066-.516 0-.015-.09.059-.207.168-.773.758-2.227.66-2.922-.191-.328-.406-.488-.934-.547-1.813-.054-.8.106-2.035.32-2.457.106-.218.344-.433.516-.476.117-.031.117-.04.117-.594 0-.637.032-.605-.468-.488-1.5.36-2.348 1.703-2.352 3.723-.004 2.078.75 3.414 2.207 3.886.543.184 1.793.262 2.36.153zm-11.02-.075c.703-.187 1.21-.597 1.512-1.218.437-.903.297-2.008-.344-2.704-.133-.14-.57-.476-1-.761-.863-.574-1.012-.739-1.012-1.114 0-.277.156-.496.426-.585.426-.145 1.21.07 1.633.445l.18.16v-.371c0-.227.046-.54.113-.817l.117-.449-.25-.07a4.534 4.534 0 0 0-1.39-.195c-1.618.004-2.544.738-2.66 2.113-.087 1.074.437 1.863 1.679 2.516.445.23.808.558.887.789a.754.754 0 0 1-.426.937c-.403.172-1.106.031-1.707-.348-.383-.238-.371-.242-.426.13-.04.25-.086.492-.148.734-.067.277-.11.511-.098.523.035.04.77.219 1.148.285.52.09 1.422.09 1.766 0zm-12.926-.047c.696 0 1.63.016 2.074.04l.809.039.035-.286c.04-.355.211-1.468.25-1.632.027-.106.008-.102-.234.086a2.173 2.173 0 0 1-.598.312c-.308.098-.441.11-1.348.11-.984 0-1.003 0-1.125-.114-.19-.183-.23-.453-.23-1.687v-1.141l1.059.023c.937.02 1.09.032 1.328.125l.265.11v-.926l.004-.926-.265.094c-.23.082-.45.102-1.332.117l-1.059.028v-2.618l.79-.03c1.081-.048 1.812.019 2.112.194.121.075.223.125.23.114.009-.008.032-.422.048-.922l.03-.899-.257.036c-.695.101-4.164.101-4.984 0l-.305-.04.121.32c.07.177.156.552.195.84.157 1.087.22 4.055.13 6.81-.04 1.14-.051 1.253-.165 1.566l-.125.332.64-.035a38.89 38.89 0 0 1 1.907-.04zm9.457.043a3.31 3.31 0 0 0-.082-.222c-.078-.196-.086-.469-.09-2.903-.007-2.308-.02-2.726-.082-2.992-.207-.777-.593-1.183-1.37-1.422-.4-.125-1.524-.125-2.137 0-.481.098-.954.239-1.41.43l-.22.098.09.242c.082.207.204.64.313 1.14l.027.13.399-.239c.687-.422 1.433-.59 1.937-.433.278.085.469.312.555.66.11.437.156 2.113.113 3.816-.027.82-.035 1.54-.015 1.598.027.11.035.11 1 .11.535 0 .972-.005.972-.013zm9.121-.003l.242-.028v-1.316l-.12.031c-.22.063-.555.035-.692-.05-.328-.22-.371-.583-.379-2.852l-.004-1.715h1.121v-1.156l-1.07.03.004-.655c0-.36.02-.934.043-1.27.023-.336.039-.621.031-.629a5.483 5.483 0 0 0-.488.16 6.8 6.8 0 0 1-.945.254 6.44 6.44 0 0 0-.516.09c-.035.012-.035.156.008.473.03.258.058.715.062 1.023v.555l-.894-.031-.016.632c-.016.559-.008.633.063.606.039-.016.242-.047.453-.063l.37-.03-.015 2.32c-.012 2.003-.004 2.359.063 2.624.136.54.398.809.902.95.277.074 1.324.105 1.777.047zm9.586-.274c-.133-.262-.14-.336-.18-1.129-.132-2.824.032-3.758.75-4.199.196-.125.278-.145.532-.145.168.004.394.04.515.086.118.043.223.07.235.059.008-.008.047-.293.086-.629.039-.332.105-.793.144-1.023.047-.223.075-.418.063-.43-.04-.035-.547.094-.79.203-.488.219-1.12.89-1.394 1.477l-.14.297.023-.489.055-1.058c.03-.536.027-.559-.059-.528-.422.164-1.07.29-1.637.313a5.66 5.66 0 0 0-.62.043c0 .008.054.12.12.25.27.55.332 1.453.305 4.258-.016 1.964-.027 2.222-.117 2.558l-.09.367h2.34zm-2.996-3.797c0-1.355-.273-2.363-.808-2.984-.36-.41-1.028-.695-1.63-.695h-.238v1.074l.22.11c.374.183.573.64.636 1.48l.031.437h-1.8l-.02.3a4.627 4.627 0 0 0 0 .571l.02.262h3.585v-.555zm8.735-.86a4.242 4.242 0 0 1-.063-.237 2.503 2.503 0 0 0-.148-.391 1.352 1.352 0 0 1-.114-.543 4.232 4.232 0 0 0-.086-.664l-.09-.363-.101.172c-.172.28-.23.64-.164 1.046.082.516.25.836.504.965.254.125.293.13.262.016zm16.445-.804c.055-.035.14-.18.18-.312.042-.137.3-.684.57-1.207.535-1.055.613-1.325.46-1.688-.066-.152-.132-.207-.491-.379l-.414-.199.03-.164c.024-.172.036-.34.036-.512.004-.535-.156-.668-.555-.46-.254.116-.539.128-.793.03-.117-.046-.218-.167-.37-.417-.216-.372-.829-1.184-.891-1.188-.024 0-.075.07-.118.164l-.082.168.364.488c.195.274.433.625.53.79.173.288.184.296.497.378.41.102.71.102.855 0 .207-.148.227-.011.122.7-.028.18-.012.226.09.328.062.066.261.168.44.23.177.055.348.14.38.18.164.2-.004.777-.426 1.45-.309.5-.453.815-.453 1.007 0 .152-.2.308-.696.543-.203.101-.375.191-.375.203a.67.67 0 0 0 .133.14l.13.114.374-.164c.203-.09.418-.192.473-.223zm-8.531-.12c.074-.2.03-.27-.227-.388-.566-.25-1.227-.78-1.398-1.125-.149-.285-.125-.414.101-.554.106-.07.192-.164.192-.211 0-.051-.094-.18-.211-.29a2.329 2.329 0 0 1-.348-.492c-.137-.265-.148-.332-.148-.804 0-.426.02-.563.109-.754.148-.324.285-.379.89-.379.504 0 .778-.078.778-.215 0-.09-.219-.289-.262-.246-.02.023-.308.05-.64.063l-.602.027-.223.219c-.285.28-.394.496-.457.894-.086.527.067 1.172.387 1.656l.14.211-.097.207c-.105.243-.113.356-.043.653.105.414.758 1.011 1.547 1.414.414.21.469.222.512.113zm3.757-.376c.118-.055.293-.195.395-.309.113-.128.27-.242.406-.296.29-.106.649-.485.723-.762.101-.383-.05-.742-.317-.742-.14 0-.144.023-.043.34.07.222.07.253-.007.421-.106.227-.375.407-.657.45-.425.058-.57-.153-.613-.895-.039-.574.031-.812.223-.812.078 0 .152-.02.215-.059.12-.09.156-.426.066-.555-.07-.093-.129-.101-.727-.101-.77 0-.84.035-.8.336.03.218.152.379.289.379.261 0 .386.246.383.738 0 .398-.09.676-.266.824-.133.113-.176.121-.43.098a1.582 1.582 0 0 1-.426-.106c-.324-.172-.437-.531-.242-.777.117-.156.117-.219.004-.258-.12-.039-.324.063-.418.2-.203.316-.12.738.2.988.187.144.593.316.746.316.054 0 .097.016.097.04 0 .085.36.456.528.55.234.121.417.121.671-.008zm.43-4.012c.27-.105.29-.765.02-.906-.332-.183-.618.328-.407.734.09.184.211.235.387.172zm-1.418-.27c.266-.312.203-.745-.11-.773-.175-.023-.312.07-.421.29-.238.472.207.878.531.484zm-2.77-1.054c.055-.207-.07-.578-.261-.793-.133-.14-1.234-1.933-1.406-2.289-.262-.516-.739-1.914-.86-2.504-.207-1.035-.265-2.738-.113-3.48.098-.457.395-1.43.465-1.508.058-.066.062-.121.012-.305-.032-.129-.07-.242-.094-.258-.063-.035-.317.293-.453.586-.485 1.032-.563 3.457-.172 5.286.312 1.484.945 2.828 2.074 4.414.25.347.45.644.45.664 0 .047.253.308.296.308.02 0 .047-.054.063-.12zm4.817-.004c.117-.117.094-.215-.098-.398-.27-.258-.699-.32-.699-.094 0 .117.254.383.457.477.238.109.242.109.34.015zm-2.55-.047c.171-.09.39-.351.39-.465 0-.265-.363-.222-.66.079-.153.152-.211.347-.133.43.055.05.258.034.402-.044zm-13.59-.59c1.038-.296 1.66-.96 2.109-2.265.086-.242.383-1.383.664-2.535.765-3.172 1.078-4.375 1.379-5.352l.273-.883h-.89c-1.024 0-.91-.07-.954.594-.035.543-.152 1.305-.351 2.336-.168.871-.68 3.215-.735 3.348-.011.047-.144-.375-.285-.934-.933-3.586-1.074-4.21-1.125-4.95l-.027-.448-.445.043c-.243.023-.774.03-1.172.02l-.735-.028.23.625c.392 1.062 1.419 4.527 1.81 6.117l.214.863.563.016c.41.008.57.027.57.074 0 .16-.273.852-.437 1.11-.207.34-.543.585-.934.68-.34.097-.703.066-1.035-.075l-.219-.102-.02.11c-.011.062-.081.418-.156.797-.074.379-.14.754-.156.832l-.023.14.797-.023c.527-.016.898-.055 1.09-.11zm-14.856-.105c.32-.016.742-.008.992.023.238.028.442.047.445.04a2.106 2.106 0 0 0-.078-.38c-.164-.656-.191-1.113-.242-3.792-.039-2.137-.035-3.047.02-4.825.027-.734.047-1.464.058-2.199-.008-.008-.144.04-.304.106-.395.16-1.047.27-1.63.27h-.476l.145.21c.336.492.386 1.133.382 5.059 0 3.304-.043 4.633-.164 5.074l-.105.39c-.035.118-.031.118.183.083a13.4 13.4 0 0 1 .774-.059zm7.266.008c.32 0 .714.015.87.035l.286.04-.035-.138c-.207-.8-.223-1.015-.274-3.117-.055-2.176-.02-6.535.051-7.437.023-.286.035-.524.031-.532-.008-.007-.12.032-.25.09-.406.176-.797.246-1.512.278l-.69.03.136.177c.36.457.39.91.39 5.324 0 4.12-.023 4.594-.273 5.25-.027.074.008.078.328.039.195-.024.621-.043.942-.043zm24.968-.32c.477-1.27.723-2.883.672-4.48-.039-1.36-.254-2.376-.719-3.4-.488-1.07-1.386-2.093-1.984-2.269-.145-.043-.152-.035-.152.086.004.39.047.477.324.625.46.246 1.117 1.086 1.418 1.809.2.488.379 1.12.508 1.812.144.774.156 2.832.023 3.672-.11.648-.332 1.563-.492 2.012l-.11.32.126.102c.05.043.113.078.183.101.031.004.125-.176.203-.39zm-3.941-.094c.07-.051.168-.102.21-.117.071-.024.075-.063.028-.235-.035-.14-.07-.191-.113-.176-.043.016-.07-.007-.07-.062 0-.395-.266-2.25-.465-3.281-.633-3.207-2.32-6.278-3.461-6.285-.18 0-.184.003-.078.308.058.188.117.254.355.402.45.282 1.004.91 1.324 1.512.352.649.52 1.074.985 2.457.488 1.469.531 1.688.855 4.457.098.79.172 1.114.274 1.114a.657.657 0 0 0 .156-.094zm1.262-.242c.046-.036.043-.086-.016-.262-.145-.414-.457-1.578-.578-2.152-.352-1.707-.383-3.254-.102-4.813.184-.988.414-1.57.73-1.832.173-.148.173-.152.141-.426-.015-.156-.047-.281-.062-.281-.102 0-.406.285-.559.516-.836 1.273-1.129 3.988-.703 6.476.098.602.313 1.488.477 2.024.086.285.09.328.023.375-.07.05-.062.242.012.378.027.047.555.043.637-.003zm-2.664-.5c.308-.442-.102-3.02-.657-4.149-.21-.418-.695-1.234-.77-1.3a2.805 2.805 0 0 1-.269-.329c-.25-.332-.324-.37-.472-.234-.364.348-.414 2.187-.086 3.226.191.602.562 1.344.89 1.786.293.398.703.8.809.8.031 0 .105.078.156.168.125.22.258.227.395.032zm4.359-.243c.27-.406.441-1.867.355-3.125-.074-1.152-.261-1.937-.636-2.726-.203-.422-.508-.805-.641-.805-.375 0-.719 1.43-.719 2.973 0 1.527.465 3.242 1.016 3.73.226.203.473.188.625-.047zM18.69 21.63c.16-.086.41-.262.551-.39L19.5 21l.023-.645.028-.636-.125.183c-.258.368-.727.528-1.047.364-.52-.274-.684-1.008-.363-1.61.246-.46.726-.738 1.285-.738h.289l-.027-.352c-.047-.543.023-.5-.739-.472-.738.027-1.27.133-1.644.32-.793.402-1.14 1.035-1.14 2.078 0 .805.151 1.274.554 1.719.406.45.789.613 1.394.586.344-.016.457-.043.703-.168zm7.813.055c1.105-.29 1.86-1.133 2.215-2.473.117-.445.129-.55.129-1.563 0-1.015-.008-1.113-.13-1.562-.241-.918-.695-1.574-1.288-1.871-.27-.133-.371-.16-.668-.16-.305 0-.399.023-.711.183a2.417 2.417 0 0 0-.625.453c-.238.246-.262.297-.297.555-.02.156-.035.461-.04.676l-.003.39.144-.203c.157-.218.457-.406.653-.406.449 0 .82.453 1.031 1.258.113.441.133 2.012.027 2.437-.226.891-.664 1.247-1.535 1.247h-.383l.032.402c.015.215.03.469.03.55 0 .126.024.165.11.184.196.047 1-.015 1.309-.093zm6.969 0c1.125-.293 1.93-1.22 2.242-2.563.105-.445.152-1.351.11-2.074-.063-1.05-.348-1.856-.872-2.399-.723-.773-1.656-.793-2.46-.062-.34.316-.388.441-.427 1.164l-.03.617.089-.144c.145-.227.43-.461.617-.496.524-.102.98.433 1.172 1.378.102.52.106 1.739.008 2.227-.125.582-.36.965-.719 1.152-.23.121-.742.211-.973.168l-.187-.03v.566c0 .55 0 .57.105.593.2.047 1.028-.015 1.325-.093zm-23.414-.172c-.145-.367-.188-.871-.227-2.496l-.031-1.54h3.242l-.031 1.665c-.032 1.691-.078 2.222-.207 2.468l-.067.141H15.2l-.09-.29c-.148-.487-.199-1.667-.203-4.675-.008-2.883.031-3.781.188-4.476.039-.172.066-.32.054-.329-.007-.011-.277.008-.605.036-.438.043-.75.043-1.188 0-.199-.02-.402-.036-.601-.043-.004.007.031.21.086.453.078.363.101.73.125 1.965.027 1.007.02 1.527-.016 1.543-.023.007-.734.011-1.578.004l-1.531-.012-.016-.418c-.035-.957.106-2.817.258-3.414l.035-.137-.402.04c-.578.05-1.16.05-1.735 0l-.406-.04.078.152c.235.461.309 1.766.313 5.344 0 2.844-.05 3.66-.262 4.215-.027.07.102.078 1.207.074l1.235-.004zm11.652-.094c-.09-.305-.094-.453-.082-2.883.008-2.183 0-2.61-.063-2.894-.195-.844-.68-1.297-1.597-1.496-.461-.098-1.43-.063-2.102.085-.383.075-1.351.395-1.426.461-.007.008.051.211.13.45.077.246.171.578.206.75.032.168.075.308.094.308.024 0 .184-.094.36-.203.48-.305 1.035-.488 1.496-.488.214 0 .449.027.539.066.203.082.402.328.468.563.114.394.157 1.765.125 3.68l-.035 1.921h1.985zm0 0"/></svg>