<svg xmlns="http://www.w3.org/2000/svg" width="64" height="64"><path d="M30.742 62.97c-4.526-.212-8.642-1.27-12.564-3.227-8.12-4.053-14.095-11.488-16.259-20.232a31.183 31.183 0 0 1 .018-15.1A30.975 30.975 0 0 1 6.755 14C13.858 4.067 26.018-.762 38.022 1.587c4.65.91 9.192 2.974 12.918 5.87 2.01 1.563 4.026 3.57 5.527 5.505 4.792 6.175 7.08 13.881 6.422 21.619-1.006 11.815-8.566 21.944-19.63 26.302-3.858 1.52-8.421 2.281-12.517 2.089zm.736-8.01c.084-12.814.14-21 .194-28.121.03-3.945.04-7.187.023-7.204-.085-.085-.883.333-1.498.784-2.439 1.79-6.347 6.424-10.851 12.87a27.763 27.763 0 0 0-.747 1.1c-.016.04.311.563.792 1.267.792 1.16.847 1.256 1.663 2.918.833 1.698.851 1.742 1.511 3.637.828 2.38 1.543 4.959 2.155 7.777.55 2.53.792 4.242.973 6.87.052.755.1 1.377.107 1.384.006.006.272-.022.59-.064.531-.07.622-.069 1.114.002 1.021.147 1.984.656 2.77 1.463.421.435.752.99.991 1.665.072.203.14.36.15.35.01-.011.04-3.025.063-6.698zM32 61.307c.172-.532.59-1.223.992-1.64.832-.862 1.734-1.334 2.848-1.489.495-.068.597-.068 1.09-.002.3.04.558.06.574.043.016-.016.074-.69.13-1.499.16-2.349.441-4.335.937-6.637.546-2.54 1.582-6.361 1.94-7.159.034-.078.246-.69.47-1.36.378-1.133.467-1.342 1.255-2.95.818-1.668.877-1.771 1.659-2.92.446-.655.81-1.211.81-1.236 0-.078-.414-.875-.744-1.432-2.656-4.484-7.791-10.707-10.532-12.763-.399-.3-1.088-.688-1.22-.688-.058 0-.068.255-.069 1.647 0 .906-.031 5.883-.069 11.059a18381.086 18381.086 0 0 0-.18 27.604 94.403 94.403 0 0 0-.003 1.742c.004 0 .055-.144.112-.32zM18.396 32.98c3.563-5.125 6.89-9.283 9.35-11.682 2.114-2.063 3.542-2.879 4.638-2.65 1.02.214 2.732 1.599 4.9 3.961 3 3.271 6.507 8.005 7.94 10.72l.225.424.785-.645.785-.644-.095-.34c-.173-.622-.375-1.025-1.01-2.022-5.197-8.15-9.909-13.214-13.086-14.063-.776-.208-1.632-.163-2.513.131-.156.052-.561.228-.9.39-2.932 1.407-6.6 5.348-10.529 11.312-.776 1.178-1.917 3.007-2.226 3.57-.14.255-.355.855-.355.99 0 .027 1.511 1.312 1.548 1.317.004 0 .248-.345.543-.77zm3.769-10.715c.906-1.159 2.82-3.206 3.883-4.152l.38-.338h-2.336l-2.335-.002v2.394c0 2.3.004 2.395.088 2.395.052 0 .184-.123.32-.297zm19.364-2.098v-2.394H36.916l.327.291c.911.811 2.578 2.601 3.67 3.943.261.322.484.554.533.554.078 0 .083-.145.083-2.394zm-15.17-3.227a2.307 2.307 0 0 1-.327-.486c-.111-.238-.126-.327-.126-.767 0-.439.015-.53.125-.764.153-.327.414-.623.694-.787.298-.174.807-.206 1.116-.07.318.141.528.316.698.581.209.325.288.622.289 1.076 0 .215.01.391.022.391.012 0 .165-.072.34-.16a8.16 8.16 0 0 1 .681-.293l.362-.133.03-.302c.066-.635.402-1.166.9-1.423.327-.168.801-.174 1.131-.016.539.26.937.924.937 1.562 0 .119.032.143.344.263.19.073.557.245.818.383l.474.25v-.528c0-.47.013-.556.125-.794.153-.327.415-.623.694-.787.32-.187.813-.208 1.162-.048 1.018.466 1.276 1.927.503 2.844l-.19.225h1.807V13.59l-.106.07c-.103.069-.127.052-.657-.459-3.039-2.928-6.336-3.787-9.665-2.516-1.292.493-2.74 1.415-3.777 2.407l-.445.426V17.157h2.24l-.2-.217zm12.039-4.586c-.374-.512-1.158-1.187-1.785-1.536-.541-.302-1.425-.669-1.699-.706-.162-.022-.132.001.214.16 1.084.498 2.246 1.288 3.248 2.21.156.144.29.263.297.264a6.312 6.312 0 0 0-.275-.392zm-11.67-1.531c.064-.071-.542.283-.632.37-.053.05.062-.005.254-.122.191-.118.362-.23.379-.248zm.651-.34c-.021-.02-.501.218-.501.25 0 .013.117-.035.26-.105.142-.07.25-.135.241-.144zm1.585-.604a8.97 8.97 0 0 1 2.28-.388l.644-.028-.024-.124c-.013-.068-.132-1.136-.265-2.375l-.241-2.252-.354.016c-.939.044-1.979.537-2.571 1.22l-.129.147-.014 2.002c-.012 1.762-.005 1.998.058 1.977l.616-.195zm5.12-.971a171.63 171.63 0 0 1-.073-2.339l-.033-1.366-.124-.047a15.149 15.149 0 0 0-1.25-.345l-.179-.032v4.74l.178.03c.493.08.993.184 1.235.258.149.045.274.08.279.077.004-.003-.01-.442-.032-.976zm-5.37-4.044c.712-.486 1.5-.737 2.437-.779.845-.037 1.604.074 2.692.395l.114.034-.034-.767c-.05-1.133-.155-1.434-.643-1.828-.727-.587-1.5-.75-2.634-.554a5.901 5.901 0 0 0-1.004.267c-.392.154-.465.203-.76.513-.308.325-.331.365-.428.744-.08.316-.107.594-.125 1.313-.013.502-.015.913-.004.913.01 0 .185-.113.388-.251z"/></svg>