<svg xmlns="http://www.w3.org/2000/svg" width="64pt" height="64pt" viewBox="0 0 64 64"><path d="M30.21 64.355c-6.202-.37-12.331-2.628-17.304-6.359-1.738-1.312-4.097-3.539-5.39-5.101-3.274-3.958-5.454-8.282-6.621-13.149A32.263 32.263 0 0 1 3.59 17.418c1.57-3.035 3.344-5.445 5.863-7.965 1.32-1.32 2.219-2.113 3.453-3.039C21.102.266 31.796-1.594 41.66 1.406a32.545 32.545 0 0 1 9.82 4.98c2.31 1.735 4.786 4.216 6.52 6.52 5.816 7.746 7.809 17.739 5.43 27.211-1.934 7.719-6.735 14.485-13.442 18.95-5.777 3.851-12.742 5.714-19.777 5.288zm3.102-1.218c2.602-.266 5.133-1.04 5.602-1.723.328-.48.082-1.148-.789-2.11-1.395-1.55-2.414-3.019-3.27-4.726-.265-.527-.27-.535-.476-.496-.363.074-.524.164-.633.348-.101.175-.121.183-.383.136-.308-.058-.41-.027-.238.075.066.035.16.144.21.25.09.172.09.187-.046.203-.203.031-.219.32-.047.937a11.633 11.633 0 0 0 1.496 3.23c.27.407.34.466.48.45.337-.04.325-.188-.062-.77-.422-.632-1.015-1.82-1.015-2.03 0-.079.03-.165.07-.188.195-.121.379.066 1.055 1.047.879 1.28 1.082 1.535 1.402 1.734.34.215.5.574.5 1.129.004.34-.02.445-.125.539-.195.176-1.54.476-2.45.543-3.78.293-5.09.203-6.605-.465-.515-.227-.656-.262-1.175-.242-.227.004-.29.031-.352.164-.102.219.078.605.453.98s.492.43 1.363.625c1.73.383 3.516.508 5.035.36zm-7.066-1.262c-.09-.168-.16-.336-.16-.379 0-.039-.07-.113-.152-.156a.708.708 0 0 1-.235-.235c-.129-.246.149-.738.899-1.578a21.005 21.005 0 0 0 3.152-4.574c.262-.516.488-.945.5-.957.008-.012.063.004.125.043.078.04.215 0 .512-.16.449-.238.55-.383.363-.512-.16-.113-.332-.48-.332-.719 0-.218.133-.351.488-.503l.25-.106-.172-.152c-.41-.348-1.105-.332-1.183.027a11.264 11.264 0 0 1-1.09 2.957c-.816 1.527-1.574 2.649-2.586 3.813-1.043 1.199-1.129 1.312-1.32 1.718-.352.739-.211 1.078.664 1.547.222.121.418.223.426.223.003 0-.063-.137-.149-.297zm5.77-1.527c.27-.133.289-.157.28-.383-.007-.176-.066-.32-.21-.488a3.265 3.265 0 0 1-.32-.465c-.164-.305-.332-1.07-.328-1.524 0-.207-.036-.761-.079-1.234-.058-.684-.097-.867-.18-.914-.171-.09-.366.09-.41.383-.132.797-.84 2.441-1.464 3.398-.34.508-.383.61-.32.723.038.078.117.136.171.136.059 0 .196.055.305.122.2.12.89.359 1.203.418.332.062 1.063-.028 1.352-.172zm1.656-6.368a1.12 1.12 0 0 1 .465-.21c.144-.024.265-.067.265-.094a5.665 5.665 0 0 0-.152-.5 10.435 10.435 0 0 1-.262-.906c-.11-.446-.129-.473-.351-.547-.582-.192-1.09-.047-1.403.406-.164.238-.168.246-.062.55.055.169.215.497.36.731.14.23.257.488.257.578 0 .153.02.16.34.16.273 0 .383-.035.543-.168zm-2.664-2.945c.195-1.277.254-3.625.144-5.746l-.05-1.07-.2-.114c-.16-.093-.207-.097-.25-.027-.035.043-.039.695-.011 1.496.07 1.895.043 3.54-.078 4.66-.055.508-.11.957-.133 1-.02.059.05.07.258.055.273-.02.285-.031.32-.254zm2.722.004c-.152-1.105-.19-1.719-.195-3.207-.004-.922.008-2.145.024-2.715.023-.574.02-1.058 0-1.078-.02-.023-.137.016-.258.07l-.223.11-.027.808c-.067 1.547-.035 4.598.05 5.29.11.89.126.953.29.984.375.074.386.066.34-.262zm-.734-7.187c.215-.094.277-.18.586-.832.191-.399.41-.786.48-.848.18-.16.313-.547.22-.637-.11-.105-.66-.137-.977-.05-.2.054-.38.171-.567.37-.156.157-.293.27-.312.254-.024-.02-.063-.304-.094-.632-.023-.262-.055-.52-.098-.778-.039-.172-.222-.289-.336-.219-.035.024-.093.32-.14.668-.04.344-.117.727-.164.844l-.094.219-.285-.32c-.3-.332-.598-.473-1.024-.473-.312 0-.43.059-.43.203 0 .16.15.461.29.57.054.047.262.403.457.782.332.66.375.703.691.867.309.156.38.164.946.14.351-.015.714-.07.851-.128zm-2.41-2.903c.492-.386.746-2.297.922-6.875.086-2.25.039-12.504-.067-15.402-.144-3.95-.203-5.27-.238-5.66l-.035-.41-.313.03c-.398.052-1.171.372-1.69.708-.493.32-1.173.984-1.497 1.48l-.242.371.129.309c.27.645.363 1.168.363 2.078 0 .93-.066 1.313-.39 2.137l-.165.426.184.347c.101.188.445.606.762.93.671.68 1.308 1.082 2.125 1.348l.543.175.043.547c.066.77-.012 10.703-.094 12.067-.149 2.508-.301 3.933-.485 4.535a2.15 2.15 0 0 1-.359.62c-.14.169-.258.325-.258.349 0 .058.668-.036.762-.11zm3.684.086c0-.039-.118-.195-.258-.351a1.58 1.58 0 0 1-.383-.7c-.227-.793-.406-2.914-.52-6.136-.066-1.98-.086-10.047-.02-10.582l.04-.332.457-.137a5.387 5.387 0 0 0 1.758-.926c.468-.367 1.117-1.113 1.117-1.281 0-.055-.07-.254-.16-.45-.305-.663-.43-1.3-.434-2.18-.004-.94.14-1.651.5-2.429l.23-.492-.238-.34c-.316-.457-1.086-1.18-1.554-1.457-.496-.289-1.164-.55-1.528-.605-.28-.035-.297-.032-.297.113 0 .086-.039 1.227-.093 2.543-.301 7.504-.356 9.547-.352 13.414 0 7.492.262 11.172.863 12.078.16.246.168.246.758.3.067.009.114-.015.114-.05zm8.539-18.008a5.399 5.399 0 0 0 3.648-3.406c.461-1.348.371-2.7-.266-4.008-.543-1.125-1.293-1.87-2.414-2.414-.992-.484-1.902-.644-2.898-.52-1.262.157-2.195.622-3.133 1.544-.55.547-.66.691-.95 1.293-.417.847-.53 1.265-.573 2.164-.078 1.523.437 2.863 1.53 3.96a5.38 5.38 0 0 0 2.61 1.442c.567.125 1.887.094 2.446-.055zm-19.106-.363a5.352 5.352 0 0 0 3.738-3.824c.172-.7.172-1.824 0-2.527-.468-1.856-1.882-3.301-3.77-3.836-.737-.207-1.968-.207-2.706 0-1.063.3-2.02.91-2.68 1.71-.422.508-.902 1.41-1.062 2.004-.164.586-.196 1.829-.067 2.45.434 2.101 2.164 3.773 4.293 4.152.54.098 1.692.031 2.254-.125zM40.97 12.258c.02-.024-.035-.164-.121-.32-.207-.387-.817-.961-1.235-1.153-1.554-.707-1.847-.777-2.988-.734-.54.023-.77.054-.895.136a.914.914 0 0 1-.406.11c-.172 0-.308.058-.523.234-.153.125-.422.301-.59.383-.23.11-.402.27-.68.637-.203.27-.351.508-.336.527.02.02.145.055.282.09.218.047.261.035.472-.156a4.591 4.591 0 0 1 2.192-1.106c1.308-.27 2.777.16 3.785 1.094l.43.402.285-.058c.16-.028.304-.067.328-.086zm1.773.02c-.215-.708-1.043-1.774-1.847-2.387-1.856-1.422-4.23-1.645-6.29-.598-.308.156-.312.156-.5.031l-.187-.12-.117.226c-.133.261-.125.273.32.511.203.11.215.11.488-.05 1.48-.871 3.375-.946 4.942-.204.98.465 1.93 1.329 2.418 2.208.265.472.25.457.73.515.063.008.074-.031.043-.133zm-11.863-.169c.101-.039.07-.097-.227-.433-.68-.766-1.418-1.27-2.277-1.555-.457-.152-.617-.176-1.418-.176-.676-.004-1.008.028-1.324.114-.945.261-1.91.87-2.422 1.52-.242.312-.262.366-.168.401.289.118.441.055.86-.355.535-.523 1.386-.957 2.183-1.11 1.414-.28 2.82.157 3.852 1.188.44.45.632.527.94.406zm-8.395-.562a6.32 6.32 0 0 0 .621-.703c.81-1.125 1.75-1.68 3.079-1.828 1.175-.13 2.437.195 3.312.859.2.145.39.215.39.133 0-.016-.062-.13-.14-.246a7.96 7.96 0 0 1-.254-.418c-.129-.239-.726-.54-1.457-.739-.715-.187-1.84-.19-2.617 0-.629.16-1.465.528-1.95.86-.702.476-1.534 1.402-1.882 2.101-.215.414-.191.454.184.407.289-.04.375-.09.714-.426zm9.485-1.406c.199-.121.547-.278.773-.356.43-.144.719-.36.79-.594.058-.18-.106-.324-.606-.554-.309-.145-.403-.16-1.028-.137l-.687.023-.606.383c-.332.211-.617.422-.632.469-.051.129.109.285.46.441.18.079.41.235.512.34.262.278.547.274 1.024-.015zm1.379-2.32c.816-.731 1.113-2.048.722-3.188-.148-.438-.52-.992-.785-1.18l-.191-.137-.117.153c-.164.21-.157.246.097.508.121.125.305.39.406.586.165.324.176.41.176 1.093 0 .668-.015.778-.168 1.106-.203.433-.617.855-.941.96l-.23.079.261.105c.145.055.29.121.313.149.082.086.129.058.457-.235zm-1.848.038c.348-.168.355-.175.371-.476a1.061 1.061 0 0 0-.074-.496c-.129-.239-.129-.477-.012-.817.102-.297.07-.523-.156-1.02-.238-.53-.082-.89.605-1.347.32-.215.555-.52.465-.605-.027-.032-.273-.063-.55-.075-.403-.015-.563.004-.801.11a2.12 2.12 0 0 0-.97.804c-.62.903-.698 2.09-.198 3.114.218.445.71.992.886.984.043 0 .239-.082.434-.176zm0 0"/></svg>