<svg xmlns="http://www.w3.org/2000/svg" width="64" height="64"><path d="M30.077 62.942c-4.443-.266-9.006-1.576-12.856-3.69-2.8-1.537-4.831-3.064-7.121-5.354-2.006-2.005-3.366-3.74-4.763-6.073-3.972-6.633-5.302-14.853-3.63-22.433C2.8 20.427 4.94 16.067 8.232 12.087c.76-.918 2.938-3.097 3.857-3.856 7.094-5.87 16-8.291 25.058-6.81 4.759.777 9.498 2.803 13.398 5.727 2.223 1.667 4.612 4.054 6.277 6.273 7.007 9.337 8.148 21.982 2.926 32.425a30.977 30.977 0 0 1-10.767 12.102c-5.603 3.664-12.167 5.399-18.905 4.994zm18.36-5.867c0-.025-.103-.15-.23-.28l-.23-.235H15.91l-.235.23c-.13.126-.235.252-.235.279 0 .027 7.424.05 16.499.05 9.074 0 16.499-.02 16.499-.044zm.248-23.508V10.326l-.248.242-.248.242v45.528l.23.235c.126.13.237.235.248.235.01 0 .018-10.458.018-23.241zm-32.938-.097l.002-22.749-.202-.183c-.11-.101-.222-.184-.248-.185-.025-.001-.046 10.44-.046 23.203v23.206l.245-.271.246-.272.002-22.749zm4.557 22.31c.053-.053.097-.135.097-.181 0-.046-.044-.128-.097-.182-.084-.083-.322-.097-1.648-.097-.95 0-1.597.025-1.67.064-.15.08-.158.342-.012.427.066.038.725.064 1.67.065 1.34.002 1.576-.012 1.66-.096zm21.62.049c0-.027-.177-.153-.393-.28l-.393-.23H22.829l-.376.233c-.207.128-.376.254-.377.28 0 .025 4.466.046 9.924.046 5.458 0 9.924-.022 9.924-.05zm4.927-.173c.135-.134.122-.25-.04-.364-.116-.08-.382-.096-1.648-.096-.923 0-1.557.025-1.63.064-.134.072-.16.305-.046.42.054.053.512.074 1.67.074 1.369 0 1.61-.014 1.694-.098zM22.06 55.4l.2-.149V12.6l-.253-.318c-.139-.175-.265-.319-.279-.319-.014 0-.025 9.827-.025 21.837 0 17.452.015 21.828.077 21.793.043-.024.168-.11.28-.193zm20.297-21.585V12l-.248.242-.248.243V55.37l.202.125c.11.068.222.127.248.13.025.002.046-9.812.046-21.81zM17.31 54.597c.108-.098.114-.329.114-4.811 0-3.127-.022-4.75-.064-4.829a.258.258 0 0 0-.215-.12.258.258 0 0 0-.215.12c-.043.08-.064 1.698-.064 4.818 0 4.284.009 4.708.102 4.811.127.14.197.142.342.01zm1.533.018c.051-.061.066-1.38.054-4.847-.015-4.458-.023-4.767-.124-4.83-.08-.05-.138-.05-.217 0-.102.063-.11.372-.125 4.83-.011 3.467.004 4.786.054 4.847a.265.265 0 0 0 .18.084c.06 0 .14-.038.178-.084zm1.422.01c.056-.057.074-1.214.074-4.83 0-5.181.015-4.96-.34-4.87l-.156.039v4.826c0 2.655.018 4.845.041 4.868.068.067.3.047.38-.033zm23.61-.188c.085-.121.096-.682.096-4.817 0-4.268-.009-4.69-.103-4.793-.126-.14-.23-.144-.358-.016-.087.087-.097.61-.097 4.833s.01 4.747.097 4.834c.135.135.25.122.364-.04zm1.51.064c.108-.108.108-9.544 0-9.651-.118-.118-.286-.087-.39.071-.085.129-.094.697-.08 4.84.015 4.093.03 4.702.11 4.754.128.08.271.075.36-.014zm1.427 0c.108-.108.108-9.544 0-9.651-.103-.103-.27-.093-.387.023-.086.087-.097.606-.097 4.78 0 3.109.022 4.723.064 4.802.072.134.306.16.42.046zM31.1 54.203l-.179-.186H24.91l-.27.158c-.147.087-.268.17-.268.186 0 .015 1.554.028 3.454.028h3.454l-.178-.186zm8.466.161c0-.014-.123-.097-.275-.186l-.274-.16h-6.08l-.132.185-.132.186h3.446c1.896 0 3.447-.011 3.447-.025zm-6.823-8.596v-8.04l-.186-.138-.186-.138v16.712l.186-.178.186-.178v-8.04zm-1.255-4.166l-.016-4.166-.17.246-.171.246v15.769l.17.203.17.203.017-4.168c.008-2.292.008-6.042 0-8.333zm-6.87 4.195v-8.008l-.186-.178-.186-.178v16.591l.186-.11.186-.11v-8.007zm15.072-.103v-8.261l-.186.178-.186.178v8.018c0 7.57.006 8.021.109 8.081.06.035.143.064.186.065.061.002.077-1.69.077-8.259zm-18.618-1.687c.011-.102-.015-.202-.062-.232-.137-.087-4.355-.068-4.443.02-.08.08-.1.313-.032.381.023.024 1.048.035 2.279.026l2.237-.016.02-.18zm26.438.084c.134-.072.16-.306.045-.42-.055-.055-.634-.074-2.22-.074-1.587 0-2.166.02-2.221.074-.11.11-.09.344.034.417.149.087 4.2.09 4.362.003zm-26.676-5.86v-4.558H16.68V42.79h4.156v-4.56zm26.532-.108l-.016-4.544H43.196l-.016 4.544-.016 4.543h4.22l-.017-4.543zm-6.19.575c.16-.086.313-.51.313-.871 0-.381-.086-.4-.177-.038-.038.148-.111.305-.163.348-.052.043-.094.117-.094.164s-.036.086-.08.086c-.087 0-.306-.396-.43-.776l-.08-.248-.019.341c-.025.447.025.695.18.893.134.17.349.209.55.101zm.035-1.676c.144-.465.167-.664.194-1.675.03-1.13.029-1.155-.145-1.7-.097-.305-.209-.565-.249-.578-.088-.03-.313.663-.384 1.181-.062.456.018 2.402.115 2.772.212.81.201.783.255.651.028-.068.124-.361.214-.651zm-10.09.352c.074-.08.116-.163.093-.186-.055-.055-6.658-.055-6.658 0 0 .024.06.108.135.187l.135.143H30.986l.135-.144zm8.135-.01l.146-.156H32.66l.145.155.146.155h6.16l.145-.155zm.434-1.8l-.274-.279h-15.02l-.274.28-.274.278h16.116l-.274-.279zm.557-10.653l-.001-10.684-.278.291-.278.291v20.254l.261.266c.144.147.27.266.28.266.01 0 .017-4.807.016-10.684zM24.022 35.223l.225-.248V14.809l-.278-.29-.278-.292-.001 10.622c0 6.109.022 10.622.053 10.622.03 0 .156-.111.28-.248zm14.8-5.334v-4.466H32.559v8.932H38.823v-4.466zm-7.581-.109l-.016-4.45H25.022l-.016 4.45-.016 4.45h6.266l-.015-4.45zm10.27 3.121c-.054-.397-.28-.669-.535-.643-.246.025-.4.248-.444.64l-.034.31.094-.205c.052-.112.142-.221.201-.243a.355.355 0 0 0 .148-.1c.06-.09.377.183.47.406.11.259.15.192.1-.165zm-20.69-4.981l.015-4.544H16.617v4.518c0 2.484.02 4.536.043 4.56.023.023.965.034 2.093.025l2.051-.016.016-4.543zm26.53-.109v-4.528l-2.093-.016-2.093-.017V32.371l2.093-.016 2.093-.016v-4.528zM31.38 19.748v-4.435H25.115v8.87H31.38v-4.435zm7.443 0v-4.435H32.558v8.87H38.823v-4.435zm-17.988-2.11V13.08H16.68v9.118h4.156v-4.56zm26.532-.108l-.016-4.543H43.196l-.016 4.543-.016 4.544h4.22l-.017-4.544zm-7.7-3.163c.068-.077.16-.189.205-.248.078-.103-.308-.109-7.898-.109h-7.981l.2.248.198.248H39.546l.122-.14zm-18.594-2.304c.011-.102-.015-.202-.062-.232-.046-.028-1.061-.052-2.257-.053-2.24 0-2.323.008-2.323.247 0 .243.073.25 2.386.234l2.235-.017.02-.179zm20.78-.043l.21-.243H21.989l.242.248.242.248 9.586-.005 9.586-.005.209-.243zm5.658.127c.134-.072.16-.305.045-.42-.107-.106-4.396-.106-4.503 0-.11.11-.09.345.034.417.15.087 4.262.09 4.424.003zm.647-1.796l.242-.248H31.971c-9.036 0-16.417.01-16.403.024.014.013.147.125.295.248l.27.224h31.782l.243-.248zm.03-1.117l-.332-.248-15.976.002-15.976.002-.279.244-.28.245 16.589.001 16.587.002-.332-.248zM15.26 9.105c.193-.153.242-.232.242-.395 0-.169-.042-.232-.247-.367a1.718 1.718 0 0 0-.279-.163c-.018 0-.032.251-.032.558 0 .307.017.558.037.558.021 0 .147-.086.28-.191zm33.414-.615l-.019-.25-.233.158c-.304.207-.303.38.002.598l.231.166.02-.21c.01-.116.01-.324 0-.462zm-.678-.202l.405-.263-8.262-.016a5230.06 5230.06 0 0 0-16.523 0l-8.26.016.398.263.4.263H47.59l.404-.263zm-2.014-.996c.129-.094.114-.345-.025-.424-.051-.029-2.62-.765-5.707-1.637-3.087-.87-5.66-1.598-5.718-1.615-.082-.025-.122.028-.177.233-.175.649-.647 1.27-1.167 1.535-.313.16-.319.16-.319-.01 0-.087.086-.209.224-.319.481-.384.486-.9.012-1.306-.142-.122-.295-.221-.34-.221-.059 0-.082-.106-.082-.374 0-.206-.038-.466-.084-.577-.1-.24-.434-.538-.603-.538-.17 0-.168.433.004.588.183.166.205.446.077.946l-.116.448.325-.014c.27-.012.352.011.485.136.088.083.16.2.16.26 0 .133-.248.335-.522.426l-.205.067.088.386c.205.902.188.87.433.83.699-.113 1.52-.754 1.88-1.465.18-.358.209-.386.362-.352.091.02 2.567.719 5.5 1.554 2.934.834 5.35 1.519 5.37 1.52.018.003.084-.032.145-.077zm-22.517-1.5c2.876-.836 5.245-1.52 5.264-1.52.02 0 .125.16.234.354.274.485.8 1.02 1.226 1.246.282.15.889.323 1.131.323.022 0 .076-.244.119-.543.042-.298.09-.602.107-.674.026-.112-.006-.139-.205-.176-.35-.066-.58-.204-.58-.348 0-.209.273-.43.531-.43.216 0 .225-.008.186-.17a5.896 5.896 0 0 1-.076-.64c-.03-.382-.017-.488.064-.57.109-.108.143-.605.042-.605-.157 0-.392.167-.517.367-.11.179-.138.314-.138.692 0 .468 0 .47-.221.627-.236.168-.43.503-.43.743 0 .231.222.533.494.671.19.098.25.165.25.282 0 .206-.137.198-.533-.029-.43-.247-.868-.75-1.13-1.296-.2-.42-.23-.453-.378-.423-.542.11-10.895 3.16-10.934 3.222-.11.173-.004.416.182.416.046 0 2.436-.683 5.312-1.52zm2.581.28c1.28-.35 2.375-.661 2.435-.693.133-.07.142-.32.015-.425-.078-.065-.525.04-2.528.587-2.217.606-2.65.755-2.65.912 0 .092.254.31.33.282.04-.015 1.12-.313 2.398-.663zm14.124.515c.08-.12.077-.147-.024-.248-.168-.167-5.151-1.55-5.285-1.466-.114.072-.168.317-.087.398.076.076 5.047 1.477 5.19 1.463.065-.007.157-.073.206-.147z"/></svg>