<svg xmlns="http://www.w3.org/2000/svg" width="64" height="64"><path d="M32 1.344C15.067 1.344 1.344 15.069 1.344 32c0 16.934 13.723 30.656 30.656 30.656S62.656 48.934 62.656 32C62.656 15.069 48.933 1.344 32 1.344zm-8.531 14.562c.779-.114 1.861.197 2.437 1.469.673-.801 2.367.342 2.219 1.031.829-.392 1.694.624 1.656 1.032.138-.1 1.078-.115 1.313.28 1.721-.906 1.725 1.181 2.687.97.42-.193.997.05 1.407.312.402-.528 2.435.088 2.656-.063.268-.19.596-.224.75-.062.549-.147 2.144.393 2.406.563.174.164-.176.545-.438.343-.227-.223-3.776-.308-4.25.188-.787-.193-1.593.25-2.374.156-.691.074-1.313-1.214-1.876-.281-.33.619-.93-.626-2.03-.407-.92.206-1.085.421-1.126.688-.49.414-1.338-.823-1.687-.219-.246-.306-1.481-1.07-1.875-.437-.414-.441-2.268-2.514-2.313-1.125.031.286.014.518-.093.718-.343.431-.948-.734-1.157-.218-.209.317.223.651-.093.937-.29.262-1.016.333-1.282-.093-.217-.115-.252.14-.437.156-1.024.242-3.365-.39-4.688.281-.91-.777-4.134.096-4.25-.438.264-.36 2.609-1 4.656-1 .483-1.17 2.162-.678 2.22-1.437.046-.286.05-.558.28-.781.14-.07.363-.157.563-.157-.028-.2.251-.56.438-.687.43-.319.872-.147 1.125.156.003-.919 1.38-1.115 1.593-.968.064-.423.459-.438.657-.344.077-.259.438-.494.906-.563zm15.968 1.344c.283.005.55.122.844.094.124.108.36.144.407.375.2.008.338-.164.53-.157.388-.1.91-.106 1.157.157.076.124.228.228.344.343.96.233 1.892.38 2.781.782.015.085.031.25-.094.25-.346-.117-.816-.048-1.218-.063-.363.093-.7.15-1.094.25-.604.13-1.273-.116-1.907-.062-.216.03-.44.142-.593.218-.425.086-.792-.112-1.063-.343-.463-.038-.896.318-1.406.187-.264-.07-.525-.088-.75-.25-.473-.146-1.021.037-1.469-.093-.155-.11-.186-.127-.093-.313.13.116.165-.116.312-.031.093-.263.37-.338.563-.5.417-.102.87-.124 1.312-.063.1-.217.385-.368.594-.5.209-.077.308-.289.562-.25.099-.034.187-.033.282-.031zm2.438 5.531c.217.007.362.119.531.188 0 .109.149.071.157.156.286-.008.48-.32.78-.25.288-.077.48.125.75.156.31.14.356.519.657.657.131.123.26.227.438.312.162 0 .19-.195.374-.188.247-.046.424.087.626.125.1.055.141.166.25.25.502.163 1.091-.41 1.624-.03.278.177.479.407.72.624.556-.055.936-.467 1.562-.343.356-.008.66.234 1 .28.255.187.503-.14.812-.03.3.03.472.205.719.343.217.008.477-.023.719.094.184.131-.178.304 0 .375-.033.069-.134.071-.219.094-.301.038-.549-.157-.813-.157-.864.124-1.705.103-2.562.157-.418.17-.912.275-1.375.343-.47.047-.841-.258-1.281-.343-.063.093-.18.205-.282.218-.409.071-.825-.106-1.218.188-.743-.132-1.485.061-2.219-.063-.17.178-.347.297-.625.313-.433-.054-.84-.22-1.25-.375-.209 0-.441.077-.656 0 .022-.093-.07-.125-.094-.188-.44-.014-.909-.085-1.313-.03.017 0 .023-.024.032-.032-.233-.069-.4-.19-.594-.281-.062-.178-.173-.252-.188-.438.054-.163.01-.39.22-.468.224-.039.455-.102.687-.063a.875.875 0 0 1 .156-.906c.31-.193.747-.257 1.094-.25.124-.247.496-.438.781-.438zm-27.156.282c.153.005.302.015.406.03.712.027 2.173 1.041 1.531 1.72-.24.153-.455.273-.687.406.863.672-1.628 1.556-2.313.781-.846-.84-3.18.219-4-.5-1.391.634-3.48.003-4.969-.031-.247-.038-1.724-.141-2.25-.125.024-.11-.075-.312.063-.344 2.536-.004 3.346-.379 4.344-.656.633.022 1.305-.025 1.968-.125.736-.071 1.463.037 2.22-.125.48-.14.919-.525 1.437-.594.308-.14.65.14.969.125.229-.513.822-.58 1.28-.563zm7.437.718c.775-.073 1.62.18 1.969.875.59-.416 1.299.182 1.438.719.115-.085 1.202-.79 2 0 .679-1.7 3.875.014 4.218.906.914-1.048 2.433-.685 2.782-.343 0 0 .158.443 1.468-.157 1.362-.216 1.765.61 1.719.657-1.219.165-1.234.31-2.406.468-.703.193-1.423.579-2.25.625-1.35.3-1.105-.425-1.938-.187-1.928.432-2.525 1.706-5.343.718-.584.521-1.73.435-2.125.22-.379.108-.782-1.24-1.407 1.124-.27.31-.684.3-1.062.407-.58.123-1.116-.194-1.719 0a1.744 1.744 0 0 1-1.094-.25c-.171-.892-1.702-.625-2.375-.594-.73.237-2.226.024-2.562-.688-.67-.512-3.281-.491-3.969-.5-.994-.67 2.536-.39 3.719-.437.233.1.632.095.75.312.285-.217.698-.026 1-.25.085-.209.4-.282.562-.406.37-.085.723.021 1.031-.25.395-.016.848-.061 1.188.125-.056-1.032 1.336-1.21 1.531-.5.225.016.457.009.688-.031-.223-.17-.289-1.528.687-1.469.047-.61.725-1.02 1.5-1.094zm14.719 4.844c.9.065 1.838.687 1.813 1.281.486-.505 1.2-.288 1.312.188.824-.689 3.043-.922 4 .375.553 1.149 1.79.357 2.625.781.568.3 1.21-.171 1.719.5.511.434 1.014-.31 1.593-.031.59.274 1.306.62 2.126.562 1.105-.109 2.389.054 3.406.313.247.109.72.114.906.437-.109.07-.18.142-.188.282-1.047.068-3.258-.005-4.78-.22-2.737.415-2.39.007-2.594.126-.583.05-.273.544-1.688.5-.447-.078-1.37-.246-1.969.281-.758.41-1.65-.308-2.406.156-.588.11-1.038-.38-1.656-.125-.695.366-1.746.365-2.094 0-.68.62-.772-.287-1.344.125-1.405.864-4.595 1.126-6.625.719-.426-.062-.858.311-1.375.188-1.71-.425-2.096.61-3.062.687-.777.241-2.89.437-3.282.219-.034-.293-.786-.278-.875.031-.995.158-2.401-.046-3.125-.469-.999.381-2.822.144-2.53-.406.694-.147 1.408-.24 2.093-.438.247-.054.409-.022.625.063.604-.008 1.031-.803 1.719-.688.33.327.975-.052.718.344-.551.582.098.678.594.657.44-.064.797-.153.844-.594.018-1.174 1.792-2.168 2.563-1.532.015-.19.24-.34.593-.312.157-1.303 1.926-1.307 2.375-.938.38-1.304 1.815-1.851 3.407-1.593.321-.874 1.29-1.13 1.906-.782.17-.123.323-.241.562-.25.255-.03.548.032.719.188.316-.506.835-.664 1.375-.625zm13.875 6.656c.416-.056.867.024 1.156.344.086-.007.172.015.219-.063.185.04.422.197.531.344.085.31.135.668.25.969.209.399 1.483.857 1.938.688.416-.724 1.29-.546 1.531-.094.162.292.646.514.969.343.507-.382 1.58.06 1.875.313.343.279.335.259.968.344.48-.015 1.088.35.657.406-.504.177-1.098.38-1.532.094-1.16-.287-1.989.472-2.968.531-.333.131-.969 0-.969 0-.344.241-1.352.686-2.156.625-.744-.074-1.714-.81-1.844-1.594-.194-.062-.282.073-.375.219-1.027.75-3.52-.35-4.031.281-.658.496-1.722.136-2.125-.281-.572-.287-1.7.265-2.032-.313-.395-.115-.768.07-1.124 0-.078-.062-.171-.212 0-.28.696-.595 2.2.034 2.75-.22.084-.177.29-.126.437-.25.425-.147.819-.134 1.25-.28.264-.047.541.11.813.124.014-.162.122-.624.468-.875.844-.727 1.777-.274 2.032-.437.223-.078.281-.291.374-.469.142-.226.522-.412.938-.469zm-36.031 1.657c.207.012.36.11.406.28.286.596.669.148.875.594.134.532 1.441-.07 2.563 1.22.356.016.713-.112 1.093-.126.478.085.988.167 1.375.407.365-.086.662-.055 1.032-.063.254.043.611.273.312.469-.255.209-.666.332-.875.312-.532.124-1.083-.179-1.594-.125-.433.294-1.076.4-1.625.532-.38.242-2.182-1.168-2.281-.563-.185.349-.74.65-1.031.469-.247-.092-.811-.017-1.188.281-.796.525-2.06.385-2.625.156-.765-.324-1.483.19-2.156-.281a17.208 17.208 0 0 1-2.125-.281c-.014-.1-.03-.08 0-.157.446-.272 3.984-.478 3.75-.75-.085-.162-.108-.47.031-.624.256-.45 1.216-.628 2.094-.344.219-.82 1.346-1.445 1.969-1.407zm16.937.5c1.139 0 2.356.438 2.688 1.124.697-1.203 2.955-.46 3.281.688.191.532.97 1.233 1.375 1.25.403.045.924-.4 1.094-.625.702-.711 2.987.22 2.562 1.063.788.37 1.706.243 2.563.312.844.019 1.183.328.687.469-.595.24-1.319.087-1.906.281.135.48 4.907.342 7.156.25 1.92-.13 2.83.29 1.813.5-.98.214-3.63.393-5.688.344-1.619.283-5.774-.635-7.687.375-.639.414-1.995-.2-3.782.531-1.698.548-2.065-.39-2.843-.281-.689-.045-.364-.876-1.438-.844-1.073.053-2.871 2.05-4.937.625-.464-.445-.88-.212-1.157-.75-.858-.055-1.728-.009-2.625-.094-.595-.03-.967.428-1.562.313-.178-.123-.394-.049-.625-.125-.255.185-.589.01-.875.156-.788.032-1.563-.133-2.375-.063-.047-.055-.147-.103-.125-.218.356-.209 1.625-.063 1.625-.063.239-.332 1.542-1.003 2.375-.75.25-.828 1.425-.842 2-.562.093-.3.325-.663.719-.688.03-1.208 2.03-1.343 3.031-.937.509.253 1.394 1.128 1.281.5-.333-.924.683-1.603 1.188-1.407-.008-.959 1.049-1.375 2.187-1.374z" fill="#231f20"/></svg>