<svg xmlns="http://www.w3.org/2000/svg" width="64pt" height="64pt" viewBox="0 0 64 64"><path d="M30.902 64.387a32.935 32.935 0 0 1-6.5-.934c-10.375-2.57-18.87-10.246-22.504-20.336a32.33 32.33 0 0 1-.925-18.793 32.178 32.178 0 0 1 4.101-9.472c2.528-3.965 6.004-7.41 10.04-9.946 8.921-5.605 20.085-6.46 29.823-2.297 1.036.442 2.895 1.403 3.887 1.996 2.317 1.407 4.18 2.872 6.149 4.84 2.125 2.121 3.742 4.223 5.207 6.778 4.992 8.691 5.605 19.382 1.66 28.625-4.434 10.363-14.012 17.707-25.125 19.246-1.938.27-4.055.375-5.813.293zm-4.507-6.32c2.41-.169 4.496-.723 6.32-1.692.32-.164.48-.277.48-.336 0-.11-.226-.375-.394-.457-.125-.066-.168-.059-.598.129-1.226.531-3.246 1.055-5.14 1.332-.293.039-.938.062-1.903.059-4.902-.008-10.535-1.153-13.758-2.786l-.578-.296.41-.204c.582-.296 1.016-.617 1.664-1.246.672-.66.907-1.008.856-1.273a.421.421 0 0 0-.137-.25c-.101-.07-.105-.09-.062-.336l.05-.266.227.07c2.04.618 5.05.442 6.832-.402.426-.203.461-.226.461-.363 0-.203-.2-.355-.465-.352-.191 0-.383.043-1.789.372-1.367.316-3.508.25-4.914-.153-.414-.117-1.39-.543-1.352-.586.012-.008.176-.101.364-.199.508-.27 1.226-.758 1.765-1.215.63-.523 1.856-1.71 1.856-1.797 0-.117-.16-.41-.242-.433-.348-.09-.239-.164-1.559 1.027-.27.238-.644.559-.84.703-.363.27-1.855 1.04-2.422 1.246-.343.13-.5.301-.5.551 0 .133.246.434.356.434.027 0-.024.086-.121.187a1.22 1.22 0 0 0-.375.828c-.059.778.523 1.446 1.27 1.446h.273l-.2.175c-.601.532-1.804 1.2-2.355 1.317-.379.078-.477.219-.477.664v.305l.383.226c3.051 1.793 7.48 3.07 11.91 3.426 2.286.183 3.567.223 4.704.144zm17.64-1.282c5.914-.242 10.715-1.972 12.375-4.457.074-.11.137-.21.137-.223 0-.011-.274-.015-.606-.007-.707.02-1.164-.043-1.808-.246-.852-.274-1.774-.809-2.172-1.258-.145-.164-.168-.172-.309-.125-.172.054-.636.226-.668.242-.011.004.051.11.137.227.219.324.777.816 1.219 1.078.676.41 1.71.78 2.394.863.16.016.27.047.25.07-.023.024-.457.23-.957.457-3.093 1.407-5.652 2.125-8.625 2.426-1.168.117-3.757.117-5.164 0a69.914 69.914 0 0 1-6.043-.812 10.506 10.506 0 0 0-.754-.122c0 .075.258.504.352.59.129.114.82.313 2.035.578 1.852.41 4.117.684 6.059.735.273.008.605.02.738.023.137.008.773-.015 1.41-.039zm-20.77-.8c.868-.403 1.036-1.583.32-2.223a1.729 1.729 0 0 0-.358-.25c-.645-.27-1.375-.008-1.73.617-.13.23-.15.316-.15.613.005.563.27 1 .766 1.25.305.149.817.145 1.153-.008zm3.477-.438a.645.645 0 0 0 .145-.387c0-.27-.035-.336-.25-.45-.172-.081-.207-.089-.356-.023-.402.168-.504.583-.215.891.133.137.204.172.344.172.156 0 .2-.027.332-.203zm-8.156-.606c.125-.12.168-.425.086-.55-.137-.215-.668-.34-.899-.215-.23.12-.046.613.293.797.235.12.38.113.52-.032zm13.207-.246a.478.478 0 0 0 .09-.496c-.043-.11-.383-.27-.586-.277-.41-.016-.524.414-.184.715.223.191.52.222.68.058zm12.371-.117c.316-.164.492-.336.633-.629a1.346 1.346 0 0 0-.063-1.308 1.36 1.36 0 0 0-1.148-.633c-.531 0-.965.265-1.203.738-.38.75-.02 1.598.797 1.902.254.094.726.059.984-.07zm-6.453-.531a1.34 1.34 0 0 0 .754-1.203c0-.989-1.055-1.645-1.942-1.207-1.136.554-.972 2.183.258 2.52.297.085.606.042.93-.11zm13.691-.258c.032-.016.082-.117.121-.219.055-.156.055-.207-.02-.355-.112-.235-.343-.34-.534-.242-.317.164-.371.37-.157.629.165.199.446.285.59.187zM15.56 53.41a.498.498 0 0 0 .191-.168c.168-.308-.055-.742-.371-.742-.203 0-.465.223-.465.395 0 .175.156.44.293.515.16.09.18.09.352 0zm3.507-.762c.211-.261.02-.582-.375-.625-.175-.023-.238-.007-.32.079-.156.156-.133.332.07.53.153.157.196.173.356.15a.533.533 0 0 0 .27-.134zm11.352.012c.508-.262.766-.676.766-1.219 0-1.168-1.364-1.78-2.243-1.007-.746.66-.507 1.941.43 2.285.277.101.781.074 1.047-.059zm19.05-.086c.247-.101.56-.394.684-.636.082-.153.106-.29.106-.57 0-.337-.063-.794-.14-.985-.02-.063.081-.098.577-.192 1.246-.234 2.446-.722 2.977-1.21.64-.579.574-1.13-.156-1.262-.461-.086-1.274-.367-1.762-.614-.961-.48-1.48-.976-1.938-1.847-.312-.602-.496-.785-.773-.785-.465 0-.438.55.055 1.398.609 1.04 1.797 1.852 3.574 2.441l.336.11-.133.137c-.195.203-.613.41-1.23.605-2.344.746-4.86.523-7.442-.66a15.12 15.12 0 0 0-.683-.3c-.079-.017-.188.253-.157.382.035.14.532.523.989.75.703.355 2.34.8 3.378.926l.282.031-.168.242c-.27.406-.328.754-.196 1.207.13.422.524.79.993.914.195.051.609.012.828-.082zm-26.863-.472c.25-.176.25-.485 0-.743a.415.415 0 0 0-.343-.136c-.407 0-.606.273-.453.62.18.395.472.493.796.259zm18.918-.192c.079-.074.145-.176.145-.222 0-.227-.355-.618-.559-.618-.18 0-.332.137-.332.297 0 .227.149.54.293.613.192.106.293.09.453-.07zm4.461.074c.13-.09.188-.312.141-.52-.027-.112-.086-.179-.273-.269-.293-.148-.364-.152-.493-.027-.16.164-.109.555.114.828.066.086.386.078.511-.012zm-19.375-.273c.18-.145.18-.426 0-.637-.101-.125-.16-.148-.332-.148-.265 0-.425.11-.425.293 0 .172.082.39.187.508.106.12.41.113.57-.016zm12.422-.758c.324-.137.348-.476.055-.789-.129-.14-.203-.176-.344-.176-.207 0-.277.098-.277.395 0 .219.055.355.21.531.118.129.138.129.356.04zm-2.789-.168c.192-.183.192-.273.008-.566-.191-.301-.36-.371-.594-.246-.136.074-.172.125-.187.254-.024.242.02.37.183.546.188.196.383.2.59.012zm-12.031-.082c.297-.09.668-.398.812-.683.258-.497.153-1.141-.246-1.551-.418-.43-1.023-.528-1.578-.25-.441.218-.687.586-.73 1.078-.04.418.086.75.406 1.07.379.38.816.488 1.336.336zm19.398-.098c.184-.175.16-.34-.109-.628-.168-.18-.504-.196-.621-.024-.102.145-.098.211.043.516.117.254.125.258.336.258.164 0 .254-.028.351-.122zm-10.96-.707c.132-.101.19-.476.105-.64-.086-.168-.43-.317-.625-.281-.211.039-.316.191-.316.457 0 .16.035.246.156.379.129.152.183.175.36.175a.52.52 0 0 0 .32-.09zm-15.372-1.144c.188-.344.176-.512-.035-.594-.324-.125-.699.059-.699.336 0 .172.348.531.543.555.012 0 .098-.13.191-.297zm32.836-.008a.434.434 0 0 0-.074-.578c-.227-.219-.328-.234-.492-.07-.184.175-.184.324.008.566.12.156.18.191.316.191.113 0 .191-.03.242-.109zm-8.57-.129a1.372 1.372 0 0 0 .59-1.715 1.668 1.668 0 0 0-.25-.363c-.309-.34-.766-.5-1.219-.43-.45.07-.836.371-1.016.79-.12.265-.144.753-.05 1 .136.367.433.663.808.804a1.38 1.38 0 0 0 1.137-.086zm-13.305-.054c.14-.055.278-.282.278-.473 0-.078-.059-.188-.149-.274-.117-.117-.187-.14-.367-.14-.207 0-.234.011-.355.191-.141.219-.133.324.066.582.125.172.285.203.527.114zm-5.902-.868c.113-.113.129-.16.105-.394-.027-.332-.132-.465-.375-.465-.351 0-.699.348-.601.598.129.351.637.5.87.261zm9.648-.386c1.012-.477 1.047-1.934.063-2.414-.356-.176-.649-.208-.984-.11-.614.18-.997.688-.989 1.305.008.387.098.625.348.902a1.36 1.36 0 0 0 1.562.317zm6.121-.13c.2-.117.247-.284.141-.488-.152-.293-.61-.453-.785-.27-.148.145-.098.395.125.638.227.246.293.261.523.12zm9.145-.484c.25-.11.531-.383.656-.64.047-.098.098-.332.11-.516.027-.512-.137-.871-.54-1.164l-.187-.133.574-.027a12.873 12.873 0 0 0 2.153-.309 9.78 9.78 0 0 1 .523-.125c.02 0 .05.082.07.184.114.633.746 1.094 1.418 1.035.387-.027.657-.164.914-.46.239-.27.36-.626.329-.99a1.361 1.361 0 0 0-.477-.925c-.273-.23-.605-.324-1.102-.313-.359.012-.43-.003-.824-.171-1.445-.633-2.594-1.735-3.351-3.223-.188-.367-.227-.414-.414-.488-.196-.075-.22-.075-.34.004-.121.082-.125.105-.11.437.012.29.047.422.192.691.476.938 1.683 2.192 2.742 2.856.113.074.379.215.586.32l.371.192-.313.12c-.921.368-1.886.505-3.242.473-1.41-.035-2.468-.226-4.074-.734-.539-.172-.664-.195-.727-.14-.171.14-.093.269.282.48.867.496 1.867.816 3.09.992.613.09.613.09.464.164-.191.102-.503.442-.59.645-.18.453-.117.965.172 1.351.153.211.493.446.758.508.23.063.637.016.887-.094zm-2.863-.148c.156-.14.16-.14.09-.344-.164-.496-.692-.664-.844-.27-.063.16.015.407.187.61.16.191.356.195.567.004zm-24.418-.469c.86-.398 1.074-1.433.441-2.14l-.215-.235.477-.117c1.508-.36 2.715-.977 2.715-1.383 0-.156-.114-.293-.242-.293-.047 0-.25.074-.454.168-.941.426-2.586.828-4.171 1.016-.668.078-1.977.062-2.391-.024-.117-.027-.238-.054-.356-.09-.007-.007.188-.167.442-.355.582-.441 1.848-1.71 2.207-2.219.336-.472.582-.93.582-1.074 0-.11-.262-.328-.395-.328-.043 0-.117.066-.164.148-.043.082-.332.403-.629.715-.953.988-2.261 2.09-3.195 2.688-.691.441-.738.488-.738.738 0 .191.008.203.222.3.711.313 1.747.45 3.188.43l1.047-.02-.133.267c-.363.707-.008 1.558.77 1.859.265.101.714.082.992-.05zm15.566-.105c.145-.145.156-.328.02-.543-.278-.453-.848-.336-.77.16.074.433.488.648.75.387zm-9.246-.094c.816-.41.988-1.512.336-2.16-.246-.246-.5-.352-.906-.371-.313-.02-.395-.004-.63.109-.41.195-.694.586-.753 1.04-.063.452.113.901.457 1.198.129.114.34.239.465.278.3.097.726.058 1.031-.094zm16.086-.672c.152-.121.164-.277.043-.574-.098-.242-.305-.348-.512-.266-.203.078-.254.18-.23.45.043.445.39.632.699.39zm-3.559-1.336c.215-.074.286-.168.282-.383a.664.664 0 0 0-.301-.543c-.172-.097-.504 0-.547.164-.043.172.055.457.223.649.082.094.156.172.164.172.004 0 .086-.024.18-.059zm-7.968-.332c.172-.066.238-.219.203-.445-.024-.157-.067-.207-.196-.27a.79.79 0 0 0-.664-.004c-.18.094-.214.196-.128.364.167.324.484.468.785.355zm-3.075-.187c.192-.239.2-.457.02-.606-.191-.144-.32-.164-.54-.074-.233.098-.265.144-.265.402 0 .215.078.32.297.41.223.086.328.059.488-.132zm20.266-.465c.063-.227-.039-.61-.184-.707-.285-.203-.671.035-.671.414 0 .336.203.504.593.484.211-.008.223-.02.266-.191zm-12.402.02c.238-.122.539-.446.648-.696.047-.106.078-.32.078-.523.004-1.473-2.035-1.864-2.605-.497-.117.286-.094.801.058 1.102.145.297.438.57.727.676.281.101.832.07 1.094-.063zm5.097-.505c.43-.215.703-.593.762-1.07.074-.55-.285-1.16-.824-1.39-.516-.223-1.188-.067-1.543.355-.297.351-.406.898-.262 1.324.258.754 1.16 1.137 1.867.781zm-15.156-.418a1.41 1.41 0 0 0 .375-.254c.735-.664.531-1.84-.387-2.246-.27-.12-.828-.105-1.101.028-.477.238-.75.687-.75 1.242 0 .297.023.387.148.613.188.324.422.524.766.649.289.101.664.09.95-.028zm20.45-.05c.48-.204.812-.711.812-1.254a1.335 1.335 0 0 0-2.074-1.13c-.29.188-.512.513-.59.864-.192.852.566 1.703 1.441 1.617.13-.015.313-.058.41-.097zm-2.516-.2c.105-.043.226-.277.226-.445 0-.184-.336-.508-.527-.508-.277 0-.438.344-.293.63.14.269.383.405.598.323zm-22.36-1.265c.102-.09.137-.172.153-.36.023-.214.008-.261-.117-.41-.333-.39-.915-.043-.829.489.04.21.098.28.305.343.238.07.352.055.488-.062zm11.422-.313a.466.466 0 0 0 .008-.64c-.152-.149-.508-.168-.629-.032-.203.22-.168.555.07.703.22.133.391.122.551-.03zm18.383-.008c.238-.125.543-.449.648-.695.051-.105.079-.32.083-.523 0-.278-.024-.395-.13-.598a1.337 1.337 0 0 0-1.86-.578c-.452.246-.69.664-.69 1.223 0 .53.355 1.035.87 1.234.267.102.821.07 1.079-.063zm-21.281-.39c.347-.117.726-.508.832-.852.101-.351.097-.582-.02-.898-.11-.29-.406-.61-.691-.754a1.619 1.619 0 0 0-.508-.11c-.3-.023-.36-.007-.656.133-.5.246-.746.649-.754 1.211-.004.586.398 1.13.98 1.309.211.062.563.05.817-.04zm-12.973-.375c.469-.27.695-.688.672-1.223l-.02-.344.149.036c.262.062 1.61.03 2.266-.055 1.722-.223 3.664-.742 4.789-1.281.472-.235.652-.403.668-.653.007-.125-.004-.136-.188-.152-.277-.02-.629.055-1.969.437-1.972.563-2.574.7-3.414.79-.484.046-1 .003-1.218-.114-.106-.058-.094-.078.386-.48 1.32-1.117 2.824-2.79 3.285-3.66l.121-.227-.12-.121a.592.592 0 0 0-.25-.156c-.11-.024-.172.023-.54.449-.23.262-.761.8-1.18 1.191-1.41 1.317-3.554 3.106-3.687 3.07a3.888 3.888 0 0 0-.426-.023c-.53-.004-.945.246-1.187.715-.168.328-.192.711-.07 1.063.12.347.375.632.714.789.344.164.891.14 1.22-.051zm21.387-.04c.203-.16.18-.398-.063-.64-.218-.219-.433-.254-.597-.094-.14.145-.164.313-.067.516.145.309.48.414.727.219zm5.793-.19c.203-.204.164-.477-.106-.723-.203-.188-.359-.196-.53-.024-.188.184-.188.262 0 .582.136.25.16.262.343.262.133 0 .23-.031.293-.098zm-2.73-.708c.12-.187-.012-.66-.22-.77-.163-.085-.437-.062-.495.044-.07.133-.06.445.015.59.149.257.563.34.695.136zm6.038-1.062c.258-.059.645-.16.852-.227.445-.156 1.242-.57 1.488-.785.153-.129.172-.168.14-.293a.887.887 0 0 0-.202-.305c-.133-.136-.207-.168-.364-.168-.39 0-1.105-.335-1.863-.878-1.164-.825-2.09-1.954-2.441-2.965-.18-.504-.219-.578-.403-.692-.367-.226-.601-.047-.543.426.102.86.786 2.113 1.606 2.93.527.527 1.07.926 1.93 1.43.375.218.68.406.68.417 0 .008-.216.082-.477.168-.735.23-1.43.317-2.305.282-1.121-.043-1.887-.203-3.422-.727-.476-.16-.906-.293-.957-.293-.117 0-.277.137-.277.234 0 .16.215.407.531.622.496.332 1.8.71 3.09.894.723.106 2.309.063 2.937-.07zm-11.777-.297c.188-.184.184-.3-.004-.516-.183-.207-.437-.308-.586-.23-.238.129-.246.375-.011.703.171.242.39.258.601.043zm-8.289-.309c.07-.066.078-.523.012-.691-.059-.164-.188-.281-.297-.281-.055 0-.176.062-.27.148-.14.125-.175.188-.175.332.003.223.093.395.253.48.145.087.403.09.477.012zm5.95-.16c.316-.094.6-.344.784-.676.121-.222.141-.316.141-.609-.004-.402-.094-.629-.348-.91a1.222 1.222 0 0 0-.879-.43c-.812-.066-1.449.52-1.449 1.328 0 .633.32 1.082.93 1.301.238.082.527.082.82-.004zm-3.122-.558c.129-.11.117-.454-.015-.621-.133-.172-.426-.176-.618-.016-.113.101-.125.137-.097.293a.81.81 0 0 0 .18.332c.124.133.167.156.304.121a.611.611 0 0 0 .246-.11zm-8.7 0c.243-.196.278-.446.09-.633-.105-.106-.155-.121-.3-.094-.441.082-.578.29-.41.621.094.18.117.192.308.192a.526.526 0 0 0 .313-.086zm24.102-.075a.753.753 0 0 0 .086-.285c.032-.234-.004-.289-.312-.469l-.156-.09-.176.169c-.254.246-.219.464.113.636.215.117.371.125.445.04zm-21.437-.566c.418-.215.754-.758.754-1.219 0-.761-.695-1.398-1.457-1.336a1.312 1.312 0 0 0-1.25 1.317c-.004.617.324 1.086.93 1.312.246.094.765.055 1.023-.074zm19.277-.555c.801-.347 1.043-1.43.465-2.105-.617-.719-1.812-.578-2.234.27-.29.577-.137 1.288.367 1.671.422.32.906.38 1.402.164zm-5.683-.398c.254-.078.578-.356.734-.637.125-.23.145-.316.145-.637 0-.32-.02-.402-.153-.64-.449-.801-1.437-.961-2.11-.344-.308.29-.437.617-.41 1.055.012.191.06.418.106.508.328.632.992.906 1.688.695zm-7.899-.55a1.344 1.344 0 0 0 .203-2.192c-.406-.375-1-.45-1.488-.188-1.015.516-.98 1.934.059 2.43.347.168.894.144 1.226-.05zM25.32 32.77c.164-.086.172-.094.211-.356.032-.176.02-.223-.09-.328-.136-.137-.312-.16-.566-.074-.29.101-.313.46-.05.742.148.156.206.16.495.016zm14.89-.641c.099-.04.227-.274.227-.41 0-.059-.074-.184-.16-.282-.207-.226-.511-.285-.672-.12a.375.375 0 0 0-.105.21c0 .11.223.532.316.59.067.047.29.051.395.012zm-7.784-.332c.144-.195.14-.512-.016-.633-.152-.121-.465-.121-.594.004-.23.234-.164.547.149.707.219.11.332.094.46-.078zm3.203-.281c.187-.227.168-.395-.066-.606-.262-.234-.364-.262-.57-.133-.243.153-.216.418.089.73.203.208.375.212.547.009zm-13.707-.168c1.5-.239 2.86-.625 3.77-1.067.538-.27.656-.379.656-.636 0-.098-.016-.2-.051-.293-.047-.09-.059-.09-.402.007-.2.051-.86.258-1.47.457-1.62.532-2 .618-2.882.653l-.738.023.148-.144c.082-.078.473-.45.867-.82 1.836-1.72 2.989-3.243 3.223-4.247l.078-.332-.18-.176-.175-.18-.11.126-.87 1.035c-1.817 2.156-3.204 3.492-4.493 4.328-.387.246-.43.297-.457.461-.02.102-.008.297.023.426.047.207.082.254.25.328.106.047.278.105.38.129.28.054 1.898.008 2.433-.078zm22.55-.868c.712-.062 1.126-.16 1.508-.347.375-.184.61-.418.665-.66.066-.313-.004-.418-.461-.657-1.274-.664-2.7-2.02-3.813-3.625-.195-.28-.355-.367-.527-.285-.11.051-.13.09-.13.293.005.278.087.465.505 1.18.261.445.414.633.93 1.144.378.38.94.868 1.46 1.258.465.356.828.66.813.676-.168.176-1.996.297-2.848.191-.855-.109-2.176-.48-3.18-.894-.335-.137-.363-.14-.421-.063-.207.282.078.657.746.98 1.351.653 3.113.954 4.754.81zm-6.226-.27c.313-.312-.059-.831-.535-.741-.223.039-.293.195-.2.426.176.414.5.554.735.316zm-9.96-.323c.245-.29.105-.61-.263-.61-.175 0-.234.028-.351.16-.137.153-.14.165-.07.305.171.324.476.39.683.145zm-4.071-.715c.078-.09.11-.188.11-.336 0-.184-.024-.238-.15-.344-.214-.18-.41-.168-.616.04-.188.187-.207.296-.086.476.195.293.277.351.46.32a.59.59 0 0 0 .282-.156zm11.379-.043c.293-.09.664-.399.816-.684.082-.16.106-.293.106-.601.007-.465-.082-.68-.399-.989-.832-.812-2.281-.183-2.281.993 0 .347.14.664.422.941.379.383.816.492 1.336.34zm-4.45-.188c.25-.074.637-.425.774-.714a1.34 1.34 0 0 0-.027-1.184c-.63-1.14-2.278-.902-2.54.367-.105.512.087.988.551 1.36.328.265.727.316 1.243.171zm-4.554-.734a.427.427 0 0 0 .101-.293c0-.246-.183-.398-.464-.379-.176.016-.211.04-.297.195-.082.157-.09.2-.032.301.145.27.52.367.692.176zm14.351-.168c.301-.102.606-.371.762-.676.371-.722-.039-1.66-.82-1.886a1.315 1.315 0 0 0-1.192.199 1.332 1.332 0 0 0-.543 1.082c-.007.441.204.855.559 1.113.36.254.816.32 1.23.168zm-3.039-.977c.223-.222.13-.632-.18-.796-.413-.211-.679.16-.449.62.149.298.426.376.63.177zM28 26.523c.86-.398 1.031-1.574.32-2.218a1.656 1.656 0 0 0-.367-.25 1.362 1.362 0 0 0-1.723.613 1.333 1.333 0 0 0 .223 1.574 1.404 1.404 0 0 0 1.547.281zm5.191-.867l.168-.136-.09-.235c-.12-.32-.23-.418-.464-.418-.239 0-.352.102-.352.324 0 .532.375.77.738.465zm6.676-.465a.487.487 0 0 0 .219-.168c.121-.222-.156-.652-.473-.73-.16-.04-.375.117-.402.3-.008.075.043.255.113.4.149.296.235.327.543.198zm-17.082-.207c.344-.164.59-.476.723-.91.02-.058.12-.09.441-.113 1.52-.125 3.66-.93 4.403-1.66.195-.192.207-.348.03-.48-.144-.122-.058-.153-.96.37-1.164.676-1.953.946-2.848.989-.312.011-.637.004-.726-.024l-.16-.039.304-.242c.473-.379 1.488-1.41 2.063-2.094.664-.789 1.902-2.394 2.222-2.879.192-.293.266-.62.188-.894-.067-.238-.14-.278-.402-.2-.149.047-.258.16-.657.696-1.34 1.781-3.097 3.816-4.066 4.703l-.442.402-.23-.09a1.378 1.378 0 0 0-1.492.364 1.348 1.348 0 0 0 .316 2.062c.406.235.84.25 1.293.04zm7.41-.367c.11-.058.242-.293.242-.441 0-.184-.14-.387-.285-.414-.32-.067-.648.175-.582.43.035.16.332.476.446.476a.398.398 0 0 0 .175-.05zm6.68-.242c.195-.117.21-.273.055-.543-.164-.293-.528-.395-.703-.2-.196.22.066.84.355.84a.666.666 0 0 0 .293-.097zm6.273-.172c.497-.082.864-.27 1.157-.562.28-.29.363-.426.367-.606.004-.23-.055-.289-.461-.496-.832-.41-1.777-1.129-2.64-2.004-.97-.973-1.524-1.82-1.75-2.664-.048-.183-.094-.246-.29-.367-.308-.188-.465-.14-.57.16-.137.395.066 1.004.61 1.824.843 1.29 2.413 2.793 3.562 3.434.195.105.355.21.355.226 0 .059-.46.23-.773.293-.457.09-1.352.032-1.985-.125-.523-.14-1.046-.3-1.566-.472-1.09-.356-1.387-.426-1.61-.371-.152.039-.163.18-.027.402.285.45 1.133.82 2.625 1.133 1.258.262 2.266.328 2.996.195zm-10.761-1.5c.457-.207.773-.703.77-1.23-.005-.395-.098-.625-.36-.914a1.33 1.33 0 0 0-1.871-.09c-.313.281-.461.586-.461.972-.004.36.074.602.27.844.406.512 1.062.68 1.652.418zm8.535-.133c.101-.07.113-.11.094-.297a.687.687 0 0 0-.114-.312c-.109-.121-.39-.18-.547-.106-.101.043-.117.086-.117.297s.016.258.137.34c.25.176.379.195.547.078zm-6.262-.164c.309-.191.23-.676-.14-.867-.196-.098-.278-.09-.418.047-.207.207-.133.586.156.812.16.125.199.125.398.008zm3.188-.613c.52-.238.789-.715.757-1.32-.015-.309-.042-.399-.18-.618a1.355 1.355 0 0 0-2.456.372c-.13.449-.024.875.312 1.242.266.293.598.441 1.004.441.23 0 .387-.031.563-.117zm-9.48-1.246c.28-.184.327-.434.116-.629-.273-.254-.742-.172-.894.156-.074.149-.074.184-.008.301.137.25.54.336.785.172zm1.995-.828c.48-.14.883-.633.942-1.153.09-.746-.567-1.48-1.317-1.484-.758 0-1.312.5-1.363 1.23-.031.387.035.63.238.915.344.48.918.668 1.5.492zm12.219-.352c.348-.12.727-.512.832-.855.098-.328.098-.504.004-.82-.09-.301-.402-.669-.688-.817a1.554 1.554 0 0 0-.535-.125c-.3-.02-.36-.008-.648.129-.504.25-.77.668-.77 1.215 0 .941.903 1.578 1.805 1.273zm-6.777-.305c.199-.148.183-.324-.04-.55-.335-.332-.699-.235-.699.187 0 .18.11.43.207.473.11.047.399-.012.532-.11zm-2.696-.042c.09-.051.125-.258.082-.426-.07-.246-.257-.344-.476-.254-.356.152-.352.64.012.726.128.016.265 0 .382-.046zm4.786-1.543c.277-.223.039-.75-.372-.82-.246-.036-.437.124-.437.382 0 .277.234.54.492.54.113 0 .223-.04.317-.102zm2.535-.79c.636-.105 1.011-.347.98-.64-.015-.149-.058-.192-.64-.535a7.965 7.965 0 0 1-.903-.614c-.422-.367-.969-1.015-1.453-1.738-.52-.77-.785-1.293-1.152-2.305-.149-.402-.297-.75-.336-.773-.14-.09-.324-.047-.457.117-.13.149-.133.18-.106.52.055.597.54 1.648 1.309 2.804.504.77.894 1.25 1.578 1.95l.563.574h-.184c-.262 0-.863-.129-1.238-.27-.371-.14-.805-.355-1.774-.879-.379-.207-.73-.375-.773-.375-.13 0-.25.22-.215.375.047.192.59.704.996.942 1.094.644 2.762 1.015 3.805.848zm-6.317-.05c.239-.09.364-.239.364-.434 0-.351-.297-.558-.637-.457-.27.082-.348.274-.23.578.074.196.23.363.331.363a.87.87 0 0 0 .172-.05zm-6.215-.2c1.075-.128 2.04-.507 2.575-1.003.675-.625.535-1.157-.176-.672-1.09.738-2.465 1.047-3.496.785-.117-.027-.207-.067-.2-.086.008-.024.282-.285.606-.59 1.164-1.094 2.23-2.344 2.738-3.21.227-.384.5-1.005.559-1.25.02-.083.043-.188.058-.231.028-.086-.109-.2-.308-.262-.094-.027-.145.031-.387.426-1.156 1.883-2.43 3.351-4.062 4.707-.395.324-.742.625-.782.668-.105.125-.03.402.137.543.121.097.227.129.531.156.211.016.418.039.457.047.184.043 1.348.02 1.75-.027zm.84-1.597c.27-.133.29-.383.04-.63-.157-.16-.348-.167-.528-.03-.148.117-.164.277-.047.504.129.257.246.293.535.156zm8.778-.23a.605.605 0 0 0 .086-.239c.03-.156.015-.191-.149-.332-.258-.226-.476-.207-.543.05-.05.208.012.376.188.485.183.11.343.121.422.031zm-5.692-.313c.531-.184.883-.688.875-1.25-.004-.563-.226-.953-.687-1.203-1.02-.559-2.207.332-1.973 1.465.09.437.45.843.879.992.246.09.633.09.906-.004zm3.707-.73c.282-.13.578-.43.696-.704.117-.273.113-.777-.012-1.058a1.376 1.376 0 0 0-.996-.782 1.354 1.354 0 0 0-1.211.375c-.656.653-.453 1.766.39 2.168.364.16.778.16 1.133 0zm-2.496-2.403c.184-.172.195-.3.063-.52-.141-.226-.266-.277-.442-.19-.172.089-.347.304-.347.429 0 .047.066.168.152.262.195.222.363.23.574.02zm1.457-.96c.16-.153.18-.2.149-.333-.047-.226-.11-.32-.282-.426-.21-.129-.406-.12-.554.024-.145.148-.149.242-.016.55.188.422.398.477.7.184zm-2.664-.849c.77-.199 1.367-.617 1.367-.957 0-.09-.015-.175-.03-.191-.013-.012-.196.04-.407.121-1.086.422-2.34.438-2.824.035l-.16-.133.538-.578c1.543-1.64 1.805-2.023 2.989-4.304.277-.547.285-.555.34-.418.55 1.468 1.312 2.949 1.976 3.847.297.403.778.953 1.242 1.43l.399.402h-.238c-.297 0-.84-.18-1.41-.468-.606-.301-1.157-.48-1.274-.418-.148.078-.18.293-.07.441.25.34 1.175.871 1.988 1.14.781.266 1.484.243 2.078-.062.191-.094.43-.312.43-.387 0-.02-.137-.136-.309-.257-.726-.52-1.867-1.848-2.746-3.196-.723-1.105-1.105-1.957-1.852-4.125-.167-.472-.292-.605-.476-.488-.074.05-.14.211-.238.586a11.998 11.998 0 0 1-1.508 3.371c-.418.637-.664.934-1.664 2.043-1.04 1.152-1.309 1.469-1.309 1.574 0 .254.594.688 1.332.977.403.156.438.16.934.137.289-.012.691-.07.902-.122zm.824-1.855c.293-.148.223-.5-.136-.645-.442-.187-.707.372-.293.625.191.118.246.118.43.02zm1.493-1.16c.148-.078.18-.137.18-.328 0-.274-.071-.356-.313-.356-.29 0-.426.106-.426.34 0 .234.125.352.41.39a.394.394 0 0 0 .149-.05zm0 0"/></svg>