<svg xmlns="http://www.w3.org/2000/svg" width="64" height="64"><path d="M32 1C14.88 1 1 14.88 1 32c0 17.121 13.88 31 31 31 17.121 0 31-13.879 31-31C63 14.88 49.121 1 32 1zm-7.625 1.656s3.432 4.975 3.844 5.25c.25.207 1 .56 1.25.75.017.188-.27.449-.282.719l-.25 1.094c.026.386.533 1 .688 1.344-.016.077.046.199-.031.25-.302.171-1.13-.604-1.407-.25-.3.394-.67.689-.875 1.093-.052.215-.218.49-.03.688.128.136.413.18.343.437-.083.286-1.354.838-1.125 1.031.584.337 3.998 1.887 4.531 2.188.111-.37.156-.635.5-.875.118-.08.206.167.094.25-.232.285-.28.47-.219.875.237.155.363.346.094.281-.112.018-4.773-2.023-4.781-2.031.008.222.063.473-.094.656-.112.107-.37.248-.563.094a.175.175 0 0 1 .125-.25c.077-.008.128-.096.188-.156-.05-.379-.662-.32-.594-.75.059-.265.722-1.26.969-1.5.069-.078.156-.114.25-.156-.138-.216-.375-.448-.281-.688.258-.559.676-.904.968-1.438-.102-.076-.196-.084-.343-.093h-.5c-.157.043-.35.015-.532.031-.085 0-.351.042-.437 0-.035.095.53.68.094.969-1.141.28-11.032 1.219-11.032 1.219-2.501 4.323-5.116 7.39-6.28 8.968l1.468.969c.042.087.176.152.125.281-.095.163-1.3.505-1.438.625-1.014.568-1.267.735-2.406 2.563.335-1.04.937-2.448 2.469-3.375 0-.155-.389-.264-.5-.375a.944.944 0 0 0-.625-.25c-.042-.052-.541-.03.531-.907.482-.042 6.188-9.03 6.188-9.03 1.118-.191 10.641-1.224 10.937-1.126 0-.232-.358-.702-.031-.875 0 0 .714-.483 3.156.063-.01-.317-.619-.743-.593-1.094l.375-1.281s-1.35-.881-1.47-.906c0 0-1.856-2.676-2.312-3.063l-2.187-2.031 2.031-.188zM51 7.812c.065.108-.378 1.267-1.063 1.907-.335.3-.887.61-1.218 1-.156.19.134.233-.125.437-.267.113-.455.31-.688.5-.05.086-.001.14.094.156 1.951-.423 3.098.198 4.563.813l3.78 1.813.657.437c-.515-.008-5.921-2.465-6.875-2.563-1.006-.051-1.645-.028-2.625-.062l-2.375-.438-5.219.47 1.938.937s1.27.277 1.406.312c.8.197.918.678 1.656 1.031.166.105 1.604.207 2.25.126-.078.095-.173.15-.343.187-.792.103-1.641.155-2 .063-.319-.058-1.41-1.105-2.313-1.157-.842-.154-2.294-.76-3.313-1.125-.584.19-1.206.664-1.687 1.094 0 0-.239-.485-.438-.563-.47.058-.097.926.032 1.407.125.294.266.488.25.781-.164.162-.65-.344-.719-.344-.031-.199-.188-1.687-.188-1.687.23-.283.227-.325.532-.594.182.01.34.086.468.188.319-.112 1.124-.243 2.282-1.22.318-.016.692-.018 1.812-.03l3.344-.344c.907-.104 2.302.486 2.5.219.171-.223.46-.338.719-.5.275-.07.194-.432.375-.594 0 0 1.5-1.113 2.468-2.625.032-.033.054-.047.063-.032zM34.781 15.22c.594-.049 1.144.039 1.282.187.426.327 1.03.561 1.312.438.28-.198.566-.148.938-.031.615.261 1.044.79 1.937 1.812 3.319.391 4.536 2.086 5.375 3.406 1.257.29 11.128.836 12.594 1.063.941.7 3.88 4.051 4.125 4.312l-4.313-3.875c-1.251-.167-12.314-.756-12.468-.812-.19-.474-1.456-3.016-5.282-3.407-.358-.565-2-2.03-2-2.03-.484-.346-.624.617-2.093-.376-.628-.423-1.931-.155-2.5.031-.184.145-.634.188-.47-.093.31-.401.97-.577 1.563-.625zm-2.687.969c.327-.053.39.462.718.5.621.016 1.267-.118 1.563-.063.558.104 1.09.535 1.563 1.656.354 1.037.7 1.18 1.218 1.344 1.126.539 1.598 1.276 2.25 1.594.523.427 2.594 1.25 2.594 1.25.068.036.572.43.313.375-2.547-.783-3.713-1.656-3.782-1.75-.82-.825-2.025-1.315-2.187-1.375 1.053 1.277.914 2.103 1.093 2.687l.126 1.063v.937c-.044.06-.027.089 0 .157.18.232.386.334.593.53.104-.016.053.135.157.126.085.207.34.332.468.468.379.448.781.8 1.125 1.282.095-.034.033.06.094.093.275.268.402.632.625.907.104.205.315.347.375.562.053.12.147.222.156.344v.25c.007.029-.082-.042-.093-.094V29c-.154-.249-.366-.478-.5-.719l-.594-.718c-.155-.164-.272-.28-.375-.47-.094 0-.032-.101-.125-.093a.466.466 0 0 1-.125-.188c-.584-.524-.971-1.243-1.625-1.656-.111-.24-.406-.286-.5-.562-.12-.051-.201-.14-.219-.25-.033-.517.206-1.024.094-1.532-.026-1.239-.704-2.264-1.375-3.218 0 0-.323-.26-.625-1.563-.133-.575-.425-.932-.813-1.062-.371-.094-1.293.097-1.687 0-.4-.172-.385-.445-.625-.625 0-.096.048-.131.125-.157zm-6.719.5c.066.004.1.062.063.187-.224.222-3.046 4.293-3.157 4.594 2.247 5.123 1.293 6.233.907 7.343-.018.051-.15.106-.22.063.07-.268.798-4.51-1.53-7.281-.06.01-.023-.06-.032-.094.06-.36 3.293-4.312 3.688-4.656.118-.117.215-.161.281-.157zm.5.28c.171-.034.233.147.344.25-.015.093-.157.149-.063.407.754 1.179.54 3.657.188 4.281.265.104 2.801.899 1.687 5.25-.079.304-.125.188-.125.188.252-4.528-1.141-4.18-2.218-4.844-.157.008-.395-.117-.22-.344.36-.334 1.644-2.365.126-4.218-.018-.147.23-.663.281-.782.026-.182.086-.007 0-.187zm9.563 3.188c.059-.042.081.043.093.125.146.662-1.756 3.965-1.937 4.344-.224.31-.366.66-.563.969-.164.379-.357.724-.562 1.093-.207.327-.373.633-.563.97L31.72 28s1.535.88 2.125 1.813c1.269 1.736 2.367 4.234 4.062 5.593.225.26.312.206.094.969 0 0-.472.99.188 2.25.124.277.474.175.28.375-.056.057-.26.018-.53-.219-.664-.624-1.22-1.19-.22-2.906 0 0-.435-.362-.656-.469-2.338-1.982-3.75-5.218-3.75-5.218-.28-.805-2.25-1.359-2.25-1.813.076-.18.172-.37.25-.563.188-.258 3.925-7.4 4.063-7.562a.247.247 0 0 1 .063-.094zm10.593 2.25c.065-.028.148-.006.219 0 .31.138 1.864 2.632 3.156 3.719-1.326-.23-3.437-3.656-3.437-3.656a.153.153 0 0 1 .062-.063zm-22.937 7.157c.173.003-.155.629-.438.75-.997.223-7.338 1.413-8.25 1.843-.74.213-1.515.81-1.594 1 .028.379-.523 1.935-.437 2.313.183-.196.395-.314.625.125.194.51.507.6 1.156 3.687.09.748.83 3.684 1.438 4.657.678-.301 1.09-.99 3.125.374.353.052.588.084.906.094.098.037.106.124-.031.125-.354.07-.805.109-1.094.032-.19-.163-1.654-.816-2.438-.344-.207.129-.625.562-.625.562-.553-.3-1.707-3.816-1.874-4.781-.71-3.838-1.188-3.969-1.188-3.969-.423.447-.547.147-.5-.25 0 0 .269-1.973.406-2.437-1.604 1.184-2.787 3.248-3.375 4.687-.078 0-.132-.353-.062-.593.613-2.377 3.44-4.874 4.094-5.25l.906-.532c.662-.36 8.682-1.917 9.25-2.093zm22.812 2.843c.42 0 .842.105 1.157.407-.01.25-.047.544-.063.812a.285.285 0 0 1-.188.031c-.054-.44-.895-.945-2.218-.375-.743.385-2.577 2.229-5.469 2.094-.241-.05-.537-.223-.656-.438 0 0 1.646.864 4.5-1.28.204-.221 1.676-1.25 2.937-1.25zm.75 1.594c.044.01.1-.02.125.031.052.37-.224.693-.25 1.063-.035.422-.028.853.188 1.187 0 0 3.991-1.28 7.968.532.224.094 1.316.507 1.47.78-.321-.093-3.438-.937-3.438-.937-1.698-.426-5.381-.303-6 0-.094.051-.21-.025-.313 0-.377-.267-.22-.769-.281-1.156.034-.559.178-1.104.531-1.5zm.5 3.031c.33.436 1.546 1.142 2.157 1.469.963.498 2.586 1.515 2.812 1.656-.31-.094-.689-.281-.906-.343-.747-.317-1.25-.6-2.032-.876 0 0-.892-.272-1.343-.843-.24-.344-.551-.616-.688-1.063zm-8.093 1.875a.27.27 0 0 1 .124 0c4.185.44 7.782 4.75 7.782 4.75s3.317 2.66 4.031 3.219c.204.233.277.29.125.25-.623-.302-4.285-2.46-4.688-2.781 0 0-3.521 1.22-5.374 3.031-.405.448-1.545 1.422-1.594 2.438-.06.145-.16.191-.219.062-.07-.376-.266-.53-.656-.75-.416-.22-1.887-.266-2.688-.156l-3.312.062a2.659 2.659 0 0 1-1.344-.312c-.188-.133-.133.16-.469.343-.67.481-3.323 2.714-3.718 3.032 0 0-5.066 4.161-5.532 4.625-.117.106-.244.139-.125-.032.268-.399 5.148-4.92 5.5-5.28.207-.2 3.348-2.651 3.563-2.876.21-.21.514-.307.781-.125.525.353 1.188.25 1.781.25l3.875-.281c.387-.026 1.633-.226 2.125.344 1.282-1.752 2.532-2.532 2.532-2.532 1.167-.805 1.466-1.123 4.53-2.218-2.01-2.805-6.076-4.639-6.937-4.844-.14-.085-.17-.196-.093-.219zM13.655 42.25c.065.152.178.383.031.469-.506.317-1.026.502-1.5.656C10.63 43.77 9.762 44.5 9.031 45c-.216.25-.658.425-.469.813.345.534-2.78 2.562-2.78 2.562-.01.01-.024.008-.032 0 .33-.41.52-.506.938-1.063.131-.153 1.122-.83 1.406-1.218.124-.15.166-.337-.094-.407-.12-.06-.017-.133 0-.218 1.603-1.507 2.437-1.895 3.188-2.188.258-.06 2.15-.773 2.468-1.031zm34.657 3.844c.163.025.228.166.28.312-.064 1.8.364 2.885.407 3.125.13.232 3.188 3.094 3.188 3.094.318.593.315.921.718 1.438 0 .06.029.223-.093.093-.197-.198-.876-1.093-.876-1.093s-2.781-2.351-3.406-3.22c-.43-.7-.542-1.407-.625-2.562-.079-.658-.066-.938.407-1.187zM27.436 52.25c.02.005.048.013.063.063l.094.124c.07.12.079.232.156.344.087.457.124.906.219 1.344l.031.969v1.062c-.13.559-.19 1.137-.344 1.688-.154.275-.154.642-.187.968 0 .38.229.65.375.97-.111.24.096.472.156.687 0 .035-.046 0-.063 0-.026-.155-.134-.305-.187-.469-.076-.086-.207-.122-.25-.25-.103-.258-.258-.529-.344-.813-.129-.602.156-1.005.25-1.53.053-.603.293-1.159.157-1.75-.079-.646-.067-1.426-.282-2.063-.016-.43-.157-.863-.062-1.25.077.013.16-.108.218-.094zm-7.156 2.563c.422-.004.853.046 1.282.156.248.067.435.186.375.468-.05.28-.195.38-.282.344.045-.076.007-.221-.125-.25-2.71-1.034-6.286 1.556-6.812 1.969-.033-.01-.12-.033-.094-.094.09-.113 2.706-2.567 5.656-2.593z" fill="#231f20"/></svg>