<svg xmlns="http://www.w3.org/2000/svg" width="64pt" height="64pt" viewBox="0 0 64 64"><path d="M24.176 21.34c1.586.558.066 6.195-.39 2.746-.2-1.043-.509-2.254-.067-3.191.273.011.367.257.457.445m25.16 8.707c.394.683 2.047 1.473 1.246 2.418 1.883 1.512.238 2.547 1.574 4.277-.02.117.176.39.074.418.81 1.328.313 2.66.524 3.117.105.727.86 1.743.355 2.399.246.562.196 1.36.059 2.086.437.773-.543 2.511-.086 3.797-.117.129-.2-.04-.289.093.125.73.492 1.57.332 2.395-.043.95-.957 2.14-1.277 3.316-.563-1.636 1.257-2.43.398-4.082.082-.144-.664-1.027-.055-4.129.059-.097-.28-.832-.132-.785.136.07 1.101-1.965-.157-3.457.055-.101-.113-.8.024-.808.492-.493-.227-.758-.149-1.551.41.07.196-2.344-.609-3.176.168-.164-.273-.922-.094-.742-.433-.836-.18-.906-.562-1.75.89-.586-1.942-1.531-.696-1.805-.191-.754-.644-1.039-.875-1.726-.058-.211.274-.543.395-.305m1.453-1.11c1.629 2.454 3.535 5.84 3.367 9.329.09.074.301.054.285.222-.125 1.516.668 2.918.547 4.426.54.879.094 3.246.711 4.777-.062 2.32.207 1.414.39 3.778-.066.027-.476 1.008-.53.922-.844-1.676-.274-1.672-.434-3.59-.063-.137-.16.039-.234-.035-.192-.813.234-1.914-.336-2.43-.403-.754.441-2.61-.082-2.383-.48-.418.078-1.68-.29-2.5-.05-.113-.187-.055-.238-.18.332-1.406-.68-2.375-.668-3.722-.234-.48-.062-.989-.175-1.524-.407.2 0-.62-.2-.879.063-.808-1.062-2.136-1.078-3.367-.855-.332-.613-2.074-1.492-2.91.117-.09.336-.058.457.067m-2.055-.668c-.933 1.558-1.777 3.28-1.425 5.171.296.723.394 1.63.761 2.352-.843.297-1.37-.922-1.847-1.543-1.008-1.305-.996-3.18-.215-4.57.68-.801 1.605-1.426 2.726-1.434v.024m-2.168-1.622c3.516.61-1.109.86-2.222 2.7-.61 1.226-.309 5.547-.969 4.277-.79-1.766-.965-3.145-.61-4.71.419-1.544 2.036-2.392 3.801-2.267m6.77-.265c1.094-.125 2.25.543 2.547 1.543.512 1.851.488 3.902.344 4.71-.043.188-.207.227-.38.294-1.113-1.883-1.597-4.653-4.222-5.016-.66-.242-1.41.04-1.98-.266 0-.183.148-.296.167-.445.973-.797 2.31-.84 3.524-.82m.254-4.89c1.758.581 2.95 1.937 3.445 3.62.133.586-.945-.46-1.43-.691-1.292-.707-2.574-1.125-3.996-.547-.843.434-1.797 1.71-2.117 2.871-.37 1.14-1.219-.25-.894-1.648.98-2.91 3.234-3.97 4.992-3.606m-3.5-1.629c-3.403 2.965-2.227 6.41-2.91 6.075-.192-.13-.465-.458-.625-.918-.203-.715-.25-1.946.03-2.551.567-1.313 2.29-2.899 3.505-2.606m-6.367-1.484c-.602 1.469-.762 3.223-.957 4.535-.477 1.906-.532 3.703-1.075 5.68.055.066.168.035.204.125-.118 2.246-.942 4.781-.668 6.96-.063.88-.516 1.653-.43 2.54a.347.347 0 0 1 .332.125c-.953 1.047-.734 3.832-.559 4.023-.636 1.707.032 3.063-.43 4.79-.07.144-.245.058-.335.085-.114-1.332-.5-2.508-.309-3.875-.148-.23-.082-.469-.094-.851.446-1.23-.289-2.036.317-3.266.152-.52.195-2.258.277-2.668-.582-.266.293-1.176.234-1.855-.554-.301.22-1.797.13-1.797-.079-.547.308-.992.425-1.543.008-1.274.149-2.817.168-3.82.555-1.895.695-3.91.668-4.032.977-1.644.66-4.152 2.102-5.156m-16.141.867c.39 1.402.516 2.473.332 3.672.078.305-.14 1.023.012 1.328-.051.274.336 1.156-.266 1.031-.07.836.277 3.973-.027 5.918-.363.88.25 2.16-.348 2.48.024.66-.152 3.442-.473 4.223.215 1.047-1.03 2.696-.566 4.122-.027.453-1.496 1.968-.848 3.335-.496.938-.28 1.426-.5 2.391-1.007-.152-.187 1.242-.613 1.856-.078.027-.234-.106-.289.023-.16.445.574 1.727-.441 1.414-.008-.8-.215-1.687 0-2.406.152-.035.03-.016.14-.121-.758-1.692 1.282-2 .496-3.711-.023-.207.532-1.008.508-1.39-.117-1.09 1.7-2.727.867-4.255.11-.117.399-1.457.375-2.113.844-.555.368-3.496.414-4.094.391-.36.137-1.851.223-2.336.16-.664.652-2.554.102-3.742.082-.094-.067-.613.105-.508-.012-.672.098-.976.07-1.64.797-.657-.43-1.926.375-2.391-.472-1.066.274-1.988-.175-3.078.148-.094.37-.121.527-.008m-9.781.45c-.453 2.011-.004 3.62-.63 5.562.099-.098.243-.008.349.023.19.469-1.141 1.313-.192 1.407-1.02 1.136.629 2.41-.172 3.683.086.027-.054-.058 0 0 .028.559-.379 1.188-.347 1.774.535 1.687-.153 3.183.558 4.574.094.664.137 2.078-.015 2.777.5.211-.344 1.457.625 1.059-.372 1.758-.036 4.578.101 5.5.086.039.297-.012.309.11.097.71-.285 1.788.617 1.995-.781 2.383.984 4.317.95 6.664-.18.035-.317-.062-.434-.18-.665-1.402-1.29-2.937-1.848-4.257.418-1.282-.336-2.508-.598-3.664.582-1.688-1.344-1.371-.304-3-.09-.059-.176-.102-.235-.18.856-1.691-.629-1.918-.332-3.457-.098-.566-.039-.996.035-1.55-.683-.84.051-2.114-.062-3.208.398-.89-.801-2.687-.07-3.957-.067-.121-.31-.125-.2-.293.38-1.637-.18-3.152.29-4.77-.278-1.12.347-2.406.574-3.597-.114-.031-.2-.145-.25-.258.878-.957.175-2.469 1.28-2.758m-2.226-1.726c.059.945-.465 1.777-.316 2.668-.07.12-.211.117-.356.093-.191.446.453 1.266-.246 1.332-.105.391.555 1.364-.25 1.188.45.777-.539 1.227.086 1.965-.113.14-.023.387-.21.445.155.25-.579 1.5-.446 2.348-.05-.004-.133.027-.133-.024-.058.504.59 1.598-.156 1.528-.07.398.535 1.242-.156 1.265-.063.407.761 1.43-.211 1.254.027.469.285.848.332 1.336-1.035.016.566 1.254-.524 1.188.008.36.211.66.38.972-.06.145-.247.293-.407.196.535.625-.086 1.902-.113 2.058.691.926-.203 1.301.308 2.274-.058.09-.215 0-.234.129.816.828-.735 1.18.207 2.027-.024.125-.207.11-.281.117 0 .348.789 1.008.058 1.067.309 3.136 2.008 6.238 1.461 9.515-.55-.508-.433-1.324-.89-1.847-.012-.184.32-.266.168-.434-.372-1.734-1.57-3.113-1.774-4.766.09-.152-.05-.707.16-.695-.12-.328-.004-.309-.246-.617.652-.371-.21-1.094.211-1.371-.55-.774.387-2.04-.273-2.817.035-.191.273-.238.445-.261-.902-.98.414-2.102-.266-3.114-.007-.203.121-.304.278-.39-.692-.762.316-.809-.395-1.578.899-.223-.566-1.266.5-1.32-.101-.18-.004-.47-.21-.583-.09-.332.327-.304.32-.601-.801-.946.527-1.844.16-2.586.047-.352-.453-1.04.254-.992.007-.516-.375-1.083-.114-1.555-.164-.727 1.157-1.375.614-2.242.058-.215-.137-.43-.028-.559-.617-.906.535-1.059.2-2.031.246-.414.433-1.574.558-2.293 0-.203.25-.219.32-.363-.582-1.028.965-.852.672-1.903.102-.172.43-.203.543-.023m27.094-2.992c.164 1.789-1.477 2.68-1.316 4.203.511 1.238-1.164 2.351-.586 3.593-.036.2-.254.149-.344.258.492 1.43-1.043 2.895-.715 3.485.516 1.558-.922 4.406-.844 4.316.864 1.563-1.37 2.5-.586 3.684-.18-.02.606 1.738-.328 1.55-.011.582-.34 1.176-.156 1.57-.016.31.148 1.15-.461.669-.172.71.016 1.527-.227 2.199-.91-.215.043 1.578-.91 2 .051.68 0 1.41-.047 2.113-.152.02-.23.09-.332-.058-.543-2.301.07-4.309.329-5.942.265-.574.16-1.722.843-2l.274-1.215c.965-.222-.758-2.578.258-2.851-.024-.66.195-.473.328-1.082.261-.055.152-2.203.695-3.293.102-.035.281-.172.387-.043.18-.672-.637-1.988-.008-2.387.09-.672-.352-2.644.633-2.035-.649-1.496 1.191-1.75.722-3.246.086-.059-.16-2.707 1.121-4.043.262-.598.637-.906.899-1.543.156 0 .308-.078.371.094m-13.047 2.882c.574 2.141.695 4.196.695 4.82-.207 1.145.086 2.384-.324 3.528.434 3.41-.672 7.453-.719 11.344a.789.789 0 0 1 .2.195c-.266.492-.47 1.094-.668 1.637.777.742-.72 1.7-.121 2.34-.157 1.16.113 2.437.105 3.601.434.684-.043 1.598.25 2.395.395.445.078 1.695-.16 2.105-.719.192-.79-2.86-1.156-3.765-.063-1.207-.164-2.532.047-3.77-.489-.09.144-.453-.36-.535.895-1.004.38-2.54.867-3.422.328-1.09-.382-1.785.215-2.871-.055-.02.02-1.293-.023-1.414.554-1.965-.297-2.984.644-4.906-.097-.07-.117-.418-.12-.578.195-.395.124-1.028.241-1.442-.449-.847.227-2.441-.078-3.773-.074-.535.196-1.387.09-1.414-.422-.543.121-1.258.078-1.754-.207-1.14.07-1.293.004-2.457.067.101.238.031.29.136m15.94-1.902c1.141.524 1.532 2.219 1.231 3.55-.383 1.09-.594 1.68-1.258 2.595-.722 1.316-2.258 2.222-1.996 1.484 1.172-2.437 2.395-5.074 1.203-7.535-.12-.266.524-.168.82-.094M17.517 17.22c1.875.078 4.093 2.09 4.98 4.21.649 1.641.5 5.876-.851 7.153-.391.195.148-5.246-2.989-9.297-.738-1.09-1.55-1.055-1.773-1.598-.168-.453.254-.511.633-.468m13.941-.676c2.156 1.156 2.613 3.023 2.613 3.023.996 3.801-1.78 7.372-1.61 6.446-.015-.95.626-4.055-.612-6.5-.461-1.063-1.61-2.254-1.723-2.637-.242-.785.91-.566 1.332-.332m-16.262-.664c.32.234-2.113 2.156-3.004 3.793-.914 1.55-1.273 3.746-1.68 5.476-.015.192-.253.04-.355-.156-.594-1.781-.832-3.496-.031-5.46 1.184-2.126 2.266-2.938 3.395-3.446.457-.184 1.304-.36 1.675-.207m6.559-.04c1.203.403 2.289 1.907 2.77 2.083.851-1.942 4.308-2.121 3.628-1.469-1.629 1.54-2.957 3.168-2.187 6.047-.098.094-.235.191-.356.113-.367-.992-.8-1.996-1.445-2.82-1.312-1.555-4.016-3.418-6.668-3.617-.172-.14-.035-.242.055-.39 1.36-.731 3.226-.407 4.203.054m18.285-2.5c1.176.137 1.773 1.168.227 1.531-2.563 1.063-2.34 4.863-2.207 6.426-.051 1.23-1.72-1.262-1.422-4.758.25-1.812 1.508-3.176 3.402-3.2m10.863 2.802c.317.632.508 1.89.551 2.77.067.3-.113.683-.441.5-1.653-4.114-5.485-5.044-6.82-4.317-.825.586-.633-.672 1.023-1.274.555-.332 4.117-.437 5.687 2.32m-24.535-2.39c2.2 1.594-.285.941-1.379 1.113-.351-.011-.629.285-.965.32-.347 1.063-1.671-.023-1.96-.667 1.445-.914 3.132-1.864 4.304-.766m-11.851.258c.242.312-1.86.523-2.536.941-1.52.664-3.23 2.887-4.05 5.106-.266.453-.535 1.328-.637.867-.285-2.578.719-4.965 1.578-5.723 1.649-1.543 3.856-2.324 5.645-1.191m21.312 2.367c.363 1.523-1.953-.195-4.004-.547-1.387-.246-1.738-.004-1.824-.14-.887-.657.879-1.274 1.234-1.29 1.036-.226 4.207.79 4.594 1.977m1.781-5.121c.399-.715 1.172-1.07 2.114-1.188 1.543-.125 2.914 1.582 2.757 2.829-.242.921-.597-.34-1.27-.653-1.562-.797-3.546.082-3.898.488 0 0-.632.47.297-1.476m-16.937-.649c2.515.63 3.605 1.567.371 2.016-2.492.55-4 2.684-4.348 2.254.078-.887.95-2.121 1.489-2.645.875-.921 1.566-1.566 2.488-1.625M51 13.867c-.207.227-.996-.937-1.707-1.265-1.063-.68-2.508-1.086-3.75-.485-.684.297-1.164 1.25-1.621.77-.078-.27.883-2.403 2.148-2.774 2.645-.836 5.438 2.942 4.934 3.754M33.19 10.465c1.668.039 4.871 1.625.606 1.379-2.606.304-3.402 2.394-4.192 1.836-.203-.192-.324-1.207-.027-1.75.59-.996 1.914-1.426 3.613-1.465m-6.886-1.117c1.937 1.336 2.3 4.222 1.836 4.906-.141-.02-.305-.016-.418-.137-.426-1.582-1.461-2.832-3.125-3.488-1.555-.727-2.453-.574-2.516-.984.543-.856 2.918-.977 4.223-.293M40.52 7.414c2.98.047 3.664 2.918 2.859 3.45-.535.284-1.106-1.302-1.836-1.727-1.848-1.106-4.309-.09-4.848-.426-.035-.457 2.098-1.25 3.825-1.297m-24.325 4.703s.035 1.684-.699 1.957c-.594-.187-.238-.855-.457-1.289-.23-2.07-3.234-2.851-4.684-2.406-.687.242-2.43 1.176-1.64.082.531-.5 1.492-1.402 2.89-1.637 1.426-.187 4.551.293 4.59 3.293M31.793 63.59c17.516 0 31.797-14.281 31.797-31.797C63.59 14.234 49.355 0 31.793 0 14.234 0 0 14.234 0 31.793 0 49.355 14.234 63.59 31.793 63.59"/></svg>