<svg xmlns="http://www.w3.org/2000/svg" width="64" height="64"><path d="M30.745 62.974c-3.533-.166-6.833-.852-9.961-2.071-5.662-2.208-10.493-5.973-14.07-10.967-.678-.947-1.825-2.792-1.77-2.847.012-.012.692.077 1.511.196.82.12 1.504.217 1.522.217.017 0 .032-.16.032-.356 0-.195-.008-.355-.018-.355-.01 0-.78-.085-1.713-.19l-1.712-.19c-.01 0-.18-.323-.378-.72l-.361-.72.007-1.555.007-1.556h-.526l-.004.936-.003.937-.095-.213c-.093-.21-.704-1.878-.704-1.922 0-.012.032-.022.07-.022.063 0 .072-.214.072-1.636v-1.636h.273c.15 0 .48.015.734.031l.463.031v2.072h.664V21.225l-.226.033c-.485.07-.437-.028-.445.92-.003.46-.015.789-.026.731-.017-.084-.046-.1-.148-.083-.14.025-1.511.212-1.549.212-.032 0 .028.443.067.486.027.03 1.247-.11 1.556-.18l.107-.024v14.497l-.877-.024c-.864-.023-.878-.022-.878.075 0 .065-.035.103-.106.113-.107.015-.107.017-.13 1.153l-.024 1.138-.158-.64c-1.26-5.104-1.264-10.23-.01-15.22a31.135 31.135 0 0 1 6.806-12.919c.612-.697 2.328-2.391 3.017-2.979 3.53-3.01 7.491-5.139 11.826-6.355a31.122 31.122 0 0 1 20.667 1.353c.998.427 2.787 1.348 3.74 1.924a31.29 31.29 0 0 1 9.253 8.568c4.638 6.485 6.575 14.497 5.433 22.46-1.083 7.543-4.935 14.422-10.837 19.353a31.042 31.042 0 0 1-14.033 6.638c-2.18.419-4.917.62-7.065.52zm22.384-9.866a.977.977 0 0 0-.263-.048c-.22-.021-.238-.015-.238.081 0 .077-.022.098-.083.08-.045-.014-.3-.05-.566-.082-.433-.05-.486-.067-.498-.156-.012-.08-.06-.105-.249-.132-.128-.019-.251-.023-.272-.01-.049.03-.052.681-.003.686l1.102.154 1.067.151.014-.35c.008-.192.003-.36-.01-.374zm-3.298-.08v-.346l-.149-.03c-.295-.059-.42-.038-.42.07 0 .08-.022.095-.107.075a9.956 9.956 0 0 0-.57-.084c-.435-.056-.461-.066-.461-.17 0-.093-.025-.11-.155-.11-.084-.001-.203-.015-.262-.03-.108-.03-.11-.025-.095.342l.014.372 1.067.147c.586.082 1.082.14 1.102.13.02-.01.036-.175.036-.365zm-3.841-.495c0-.298-.01-.329-.107-.355-.177-.047-.406-.033-.426.027-.014.043-.133.042-.513-.004-.605-.074-.661-.088-.661-.174 0-.038-.038-.068-.083-.069-.046 0-.163-.013-.261-.03l-.178-.029v.338c0 .237.018.34.06.341.032.002.475.063.983.136 1.315.19 1.186.21 1.186-.18zm7.16-.1c0-.183-.006-.334-.012-.336-.083-.026-2.18-.255-2.195-.239-.041.041-.022.57.022.596.103.064.488.086.522.03.057-.092 1.048.032 1.141.143.04.047.156.093.26.103.105.01.207.022.226.027.02.004.036-.142.036-.324zm-10.493-.646c-.05-.05-.473-.074-.501-.029-.042.068-1.102-.074-1.168-.156-.027-.033-.15-.07-.275-.083l-.228-.023.014.314.014.313 1.067.145 1.067.145.014-.304c.008-.167.006-.312-.004-.322zm7.174.221v-.33l-.155-.025a54.091 54.091 0 0 0-1.98-.216c-.084 0-.094.033-.094.303 0 .274.01.305.107.331.165.044.405.035.422-.016.027-.079 1.073.061 1.143.153.052.068.147.093.474.122.071.007.083-.036.083-.322zm-10.432-.31c0-.343-.004-.356-.113-.356-.062 0-.18-.013-.26-.03-.121-.023-.149-.014-.149.054 0 .07-.03.079-.178.056a89.688 89.688 0 0 0-.569-.082c-.253-.036-.39-.077-.39-.116 0-.063-.204-.119-.433-.119-.137 0-.137 0-.137.31 0 .205.02.317.06.33.05.018 1.949.291 2.11.304.042.003.059-.096.059-.351zm6.59-.191c0-.244-.018-.364-.058-.377a18.862 18.862 0 0 0-.937-.118c-.482-.054-.957-.11-1.055-.125l-.178-.027v.707l.178.03c.273.045.344.036.344-.041 0-.087.082-.089.707-.018.425.049.475.064.488.155.011.08.057.106.227.128.118.016.23.032.25.036.019.004.035-.154.035-.35zm-3.318-.448c0-.447.13-.384-1.077-.52-1.223-.138-1.105-.165-1.105.253 0 .39.015.408.336.408.154 0 .186-.016.186-.095 0-.052.016-.094.036-.094.078 0 .895.099.992.12.062.013.11.064.119.129.011.08.056.113.18.135.35.062.333.08.333-.336zm10.336-2.247v-2.436l-.272-.029c-.15-.015-.577-.043-.949-.06l-.675-.032v2.402c0 1.887.012 2.402.06 2.405.032.002.378.042.77.088.39.047.79.088.889.091l.177.007v-2.436zM39.4 50.655c0-.196-.01-.356-.021-.356-.012 0-.472-.053-1.022-.118a32.576 32.576 0 0 0-1.094-.119c-.082 0-.092.035-.092.334 0 .363-.006.355.326.393.173.02.21.01.23-.063.017-.067.056-.083.172-.067.426.057.896.114.935.114.024 0 .044.042.044.092 0 .092.083.122.391.138l.13.008v-.356zm-7.113-.045v-.354l-.154-.026c-.085-.015-2.33-.293-4.99-.619-2.66-.325-4.917-.604-5.015-.62l-.178-.028v.29c0 .19.021.298.06.312.046.017 9.985 1.371 10.218 1.393.043.004.06-.094.06-.348zm17.402-2.06v-2.365l-.201-.027c-.111-.015-.548-.042-.972-.06l-.77-.031v2.306c0 1.268.015 2.307.035 2.31.244.025 1.888.222 1.896.227.007.003.012-1.059.012-2.36zm-7.124-.61l-.012-2.168-.308-.03c-.17-.016-.602-.045-.96-.063l-.652-.034v4.264l.557.058c.306.033.685.075.841.095.157.02.344.038.416.042l.13.006-.012-2.17zm-6.508-.225v-2.18l-.249-.015-.249-.014V49.925l.249-.014.249-.015v-2.18zm-1.92-.734v-2.798h-.522V49.778h.522V46.98zm5.11-1.448a25.833 25.833 0 0 0-.973-.042l-.96-.033V47.5c0 1.122.016 2.042.035 2.044.02.001.452.05.96.106l.925.104.012-2.105a91.36 91.36 0 0 0 0-2.116zm-7.102 3.75v-.307l-.154-.025a18.254 18.254 0 0 0-1.174-.121c-.092 0-.098.022-.085.32l.014.32.498.052c.274.029.589.056.7.06l.201.006v-.306zM45.99 48.24V46.99l-.25-.027a22.163 22.163 0 0 0-.971-.059l-.723-.031v2.572h.284c.215 0 .285-.017.285-.068 0-.089.225-.264.34-.264.156 0 .359.134.39.257.026.106.056.12.301.132.15.008.289.007.308 0 .02-.009.036-.577.036-1.263zm-16.027.782v-.281l-.202-.028c-.31-.042-1.045-.12-1.14-.12-.074 0-.083.037-.071.296l.014.296.498.053c.274.028.589.055.7.059l.2.007v-.282zM18.678 47.46v-1.607l-.202-.027c-.11-.015-.457-.05-.77-.077a16.482 16.482 0 0 1-.723-.075l-.155-.025v3.17l.486.06c.389.047 1.135.15 1.328.182.02.003.036-.717.036-1.601zm9.094 1.332c.013-.222.005-.246-.095-.267a22.673 22.673 0 0 0-1.261-.122c-.037 0-.057.089-.057.257v.257l.297.03.652.068c.195.021.377.035.403.03.026-.005.053-.12.061-.253zm-2.219-.264v-.255l-.225-.028a17.103 17.103 0 0 0-.688-.06l-.462-.032v.521l.534.047c.293.025.602.05.687.054l.154.007v-.254zm-9.436-1.356V45.61l-.154-.024a22.64 22.64 0 0 0-1.304-.123h-.107v3.064l.747.098c.411.054.763.1.783.104.02.003.035-.697.035-1.557zm7.255 1.112c0-.143-.016-.261-.036-.263-.02 0-.33-.029-.692-.062-.734-.066-.71-.076-.686.26l.015.208.57.052c.927.084.829.107.829-.195zm8.772-1.394v-1.654l-.557-.03c-.306-.017-.616-.04-.688-.051l-.13-.021v3.254l.676.072c.371.04.68.075.687.079.007.003.012-.738.012-1.649zm-18.303.026V45.38l-.604-.056c-.333-.03-.696-.068-.806-.083l-.202-.026v1.498c0 .825.005 1.5.012 1.503.006.002.364.052.794.112.43.06.788.111.794.115.007.003.012-.684.012-1.528zm16.122-.217v-1.608l-.249-.026a24.336 24.336 0 0 0-.688-.054l-.438-.029v3.22l.462.046c.254.025.564.05.688.053l.225.007V46.7zm-2.181-.164v-1.583l-.415-.028a35.908 35.908 0 0 0-.7-.04l-.284-.013-.013 1.554c-.01 1.218 0 1.558.048 1.575.093.034.788.105 1.091.112l.273.006v-1.583zm-17.463 1.252c.044-.088.06-.488.06-1.508V44.89l-.116-.116c-.145-.146-.19-.146-.338.002l-.118.118.014 1.44c.015 1.585.02 1.612.293 1.585.099-.01.164-.052.205-.132zm15.27-1.41l-.012-1.554-.214-.03a14.17 14.17 0 0 0-.7-.065l-.486-.035.012 1.559.013 1.558.521.053c.287.029.602.055.7.06l.179.006-.013-1.553zM9.06 47.66c.082-.075.087-.228.087-2.924 0-2.581-.007-2.854-.079-2.932-.089-.099-.3-.115-.386-.03-.043.043-.057.76-.057 2.936 0 2.554.009 2.888.075 2.954.097.096.251.095.36-.004zm14.312-1.504v-1.534l-.249-.028a22.207 22.207 0 0 0-.687-.061l-.44-.032v1.524c0 1.185.014 1.524.06 1.527.077.005 1.234.124 1.28.132.02.004.036-.684.036-1.528zm-2.524 1.366l.106-.074V33.658h.332v-2.086h-.332V24.365h.332V22.28h-.332v-5.128c0-4.706-.007-5.136-.079-5.216-.097-.107-.242-.11-.356-.008-.083.075-.087.274-.087 4.41 0 2.381-.007 4.33-.015 4.33-.009 0-.115-.034-.237-.075l-.222-.076v-.67l-.192.268c-.21.294-.202.292-.632.143a2.09 2.09 0 0 0-.203-.064c-.01 0 .07.126.177.28l.197.278-.202.273c-.223.302-.237.294.245.145l.22-.067.183.253.183.254.024-.316.024-.315.225-.083.225-.084V34.11c0 13.235 0 13.299.095 13.393.114.114.182.119.321.021zm-12.801-1.57c.016-.284.034-.275-.654-.323-.222-.016-.484-.04-.581-.054l-.178-.026v.265c0 .146.005.266.012.268.048.015 1.26.125 1.316.12.05-.004.075-.074.085-.25zm-2.229-.24l-.014-.273-.38-.033a81.18 81.18 0 0 1-.675-.06l-.296-.028v.262c0 .176.02.263.059.265.074.005 1.23.124 1.283.133.02.003.031-.117.023-.267zm50.461-.06c0-.065-.206-.39-.292-.46-.098-.082-.874-.372-1.51-.565-2.184-.664-4.95-1.156-7.87-1.4-.858-.07-4.267-.068-5.596.005-2.403.132-4.385.396-5.535.738-.2.06-.243.095-.335.284a2.146 2.146 0 0 0-.104.236c0 .01.089-.011.198-.05.248-.087.707-.207.987-.258.117-.021.431-.083.698-.137 1.606-.327 4.498-.503 7.635-.465 2.053.025 2.706.066 4.28.272 2.721.356 5.71 1.074 6.979 1.675.37.176.465.2.465.124zm-1.92-.291c-.773-.252-.922-.27-3.857-.444l-2.861-.17-.235.15c-.129.083-.228.156-.22.163.026.024 6.897.438 7.291.439l.309.001-.427-.14zm2.347-.914v-1.016l-.19.075-.19.074v.735c0 .72.003.739.131.94.232.368.249.312.249-.808zm-48.65-.122c0-.574-.005-1.044-.011-1.045-.342-.044-1.35-.124-1.376-.11-.02.013-.035.48-.035 1.039 0 .559.016 1.018.035 1.02l.629.065c.326.033.63.064.675.067.077.006.083-.072.083-1.036zm37.768.925c.512-.106 1.693-.738 1.585-.85-.062-.063-1.205-.222-1.89-.263-.826-.049-2.64.026-2.938.121-.165.053.635.643 1.118.825a4.116 4.116 0 0 0 2.125.167zM5.828 44.09c0-1.143.067-1.022-.593-1.067-.235-.016-.507-.041-.604-.055l-.178-.027v2.037l.486.046c.267.025.576.048.687.052l.202.007v-.992zm11.52.734a.386.386 0 0 0 .172-.506c-.049-.097-.052-.136-.012-.136.08 0 .323-.475.253-.497a19.753 19.753 0 0 0-1.331-.12c-.152 0-.167.136-.03.26a.49.49 0 0 1 .122.174c.019.059.092.098.216.118.174.028.183.037.116.11-.087.096-.094.375-.012.48.07.09.225.183.309.185.034 0 .122-.03.196-.068zm25.18-.043c0-.01-.098-.099-.218-.197l-.218-.18-2.07-.103c-1.138-.057-2.133-.088-2.212-.07-.078.02-.372.073-.653.119-.28.045-.498.096-.482.112.016.015 1.302.095 2.858.176 1.556.081 2.867.15 2.912.154.046.004.083-.001.083-.011zm-26.432-.146a.428.428 0 0 0 .025-.556 1.019 1.019 0 0 1-.138-.35c-.16-.79-.208-1.07-.185-1.093.015-.014.17-.058.345-.098.363-.083.344-.12-.108-.21-.165-.033-.322-.086-.348-.117-.026-.031-.062-.256-.08-.5l-.035-.442-.279.329c-.153.18-.335.358-.403.393-.118.062-.18.06-.622-.016l-.166-.029.213.191.214.19-.307.312c-.188.19-.277.31-.23.31.041 0 .283-.042.537-.094l.461-.095.469.432c.258.237.469.45.469.472 0 .105-.12.281-.19.281-.113 0-.278.194-.313.368-.025.125-.006.174.114.294.183.183.391.193.557.028zm3.17-.045a.387.387 0 0 0 .217-.48c-.041-.11-.033-.118.148-.147.106-.017.202-.056.214-.086.012-.03.037-.604.055-1.273.038-1.341.053-1.267-.266-1.265h-.174l-.767 1.434-.768 1.433.175.03c.096.017.196.015.222-.005a.769.769 0 0 1 .225-.068c.172-.031.178-.028.178.104 0 .16.159.327.37.386.006.002.084-.026.17-.063zm-4.572-.075c.125-.125.167-.314.1-.458-.053-.118-.051-.119.155-.106.18.01.23-.008.357-.136l.149-.148-.155-.115c-.146-.108-.254-.124-1.871-.27-.944-.085-1.749-.143-1.788-.127-.061.023-.265.356-.265.433 0 .014.032.025.07.025.088 0 .088.005.001.173-.1.19-.09.273.051.44.159.189.396.2.567.03.127-.127.16-.391.06-.49-.065-.066.166-.074.526-.019.186.029.2.04.13.097-.078.066-.104.309-.048.455.047.122.29.225.45.19.246-.054.384-.432.226-.622-.052-.062-.022-.067.246-.04.518.05.534.056.449.178a.385.385 0 0 0 .328.604.379.379 0 0 0 .262-.094zm40.731-.322c0-.14.023-.165.241-.26l.241-.106-.262-.142c-.235-.127-.265-.16-.294-.332-.046-.28-.062-.286-.257-.095-.176.171-.183.173-.45.14l-.273-.034.13.222.13.222-.149.185-.149.186.308-.029c.305-.028.31-.027.505.15.218.197.278.174.279-.107zm-20.555-.152l.167-.33V42.34l-.13-.09a3.913 3.913 0 0 0-.19-.125c-.047-.027-.06.207-.06 1.106 0 .628.01 1.14.023 1.14s.098-.148.19-.33zm-2.678-.33v-.567l-.155-.024c-.084-.013-2.18-.122-4.658-.242s-4.713-.23-4.967-.246l-.463-.029v.53c0 .389.016.528.06.53l4.777.303c2.595.165 4.873.302 5.062.306l.344.005v-.567zm21.462-.41c.114-.044.207-.093.206-.109 0-.016-.104-.086-.23-.156-.202-.111-.237-.154-.287-.35l-.056-.225-.175.17c-.173.17-.18.171-.448.135-.15-.02-.273-.025-.273-.01 0 .017.053.108.119.204.065.096.118.19.118.21 0 .02-.068.106-.151.192l-.152.157.33.001c.305.002.342.014.518.165l.19.163.042-.234c.04-.22.054-.24.249-.314zm-42.447-.138c.112-.209.44-.793.73-1.3.289-.505.515-.937.5-.96-.013-.021-.124-.04-.246-.04h-.223l-.797 1.312c-.6.987-.781 1.32-.735 1.351.034.023.176.035.315.029l.252-.013.204-.38zm25.108.002c.044-.053.151-.073.396-.073h.336l-.157-.161-.156-.162.123-.21c.068-.116.124-.221.124-.234 0-.013-.123-.007-.273.014-.27.037-.275.035-.448-.134l-.175-.17-.03.137c-.058.269-.118.352-.33.455-.118.058-.214.119-.214.136 0 .017.095.068.212.112.203.078.213.091.243.314l.03.233.13-.092c.07-.05.155-.125.189-.165zm15.349-.43c.24-.091.226-.146-.076-.282-.145-.065-.195-.119-.218-.233-.068-.342-.063-.339-.256-.151-.172.168-.182.171-.445.14-.148-.017-.27-.017-.27 0s.057.117.127.222l.126.19-.16.164-.158.165h.323c.307 0 .334.009.52.176l.195.177.041-.244c.04-.232.052-.247.251-.323zm4.8.43c.111-.058.108-.062-.19-.273-.703-.497-1.658-.927-3.195-1.437-1.357-.45-3.294-.93-4.4-1.091-.216-.032-.234-.046-.35-.277-.433-.863-1.216-1.553-2.101-1.855a3.663 3.663 0 0 0-3.058.316c-.412.243-1.034.863-1.258 1.255l-.166.29-.403.032c-1.674.134-3.763.546-5.074 1-.55.192-1.422.585-1.422.643 0 .02.065.083.144.14l.144.102.555-.236c2.091-.891 5.18-1.385 8.664-1.384 2.228 0 4.28.27 6.731.884 1.96.492 3.965 1.256 4.837 1.844.243.164.302.169.542.046zm-6.705-.69l.095-.545.178-.014c.166-.014.178-.025.178-.171v-.156l-.494-.069-.494-.069-.027.138c-.036.18-.005.223.163.223.125 0 .136.012.115.13l-.094.51c-.092.498-.09.535.037.56.235.046.244.031.343-.537zm-11.593.207c.094-.084.186-.11.44-.121l.32-.014-.14-.171-.14-.17.115-.171a.822.822 0 0 0 .116-.212c0-.023-.112-.027-.249-.008-.24.032-.255.028-.428-.139-.15-.142-.188-.16-.225-.101a.374.374 0 0 0-.045.167c-.001.148-.117.28-.33.376-.106.048-.193.102-.193.12 0 .018.088.061.195.097.208.068.28.18.28.434 0 .159.016.154.284-.087zm1.843.098c.01-.009-.017-.257-.06-.551a19.37 19.37 0 0 1-.076-.566c0-.017.072-.044.16-.06.148-.028.158-.04.13-.174-.016-.079-.05-.145-.077-.147a8.096 8.096 0 0 0-.513.055c-.44.056-.465.065-.44.16.015.056.028.13.028.166 0 .045.049.059.163.045.186-.021.174-.055.27.71l.055.439.171-.031a.968.968 0 0 0 .19-.046zm8.462-.022c.133-.105.203-.35.155-.542-.018-.073-.137-.19-.313-.31-.28-.19-.365-.331-.199-.331a.23.23 0 0 1 .142.057c.045.044.057.043.057-.006 0-.045.045-.054.166-.03.201.037.223-.046.054-.205-.297-.28-.757-.201-.87.148-.083.252-.019.378.315.615.157.112.286.227.287.257.001.08-.136.118-.236.065-.058-.031-.093-.031-.103 0-.009.026-.096-.007-.194-.073-.174-.118-.177-.119-.177-.021 0 .375.603.622.916.376zm-7.403-.045c.091 0 .095-.02.063-.356l-.033-.356h.376l.032.273c.05.417.052.422.24.4.195-.023.195-.02.116-.839-.072-.755-.057-.717-.272-.696l-.183.017.021.257.022.256h-.196c-.189 0-.196-.005-.196-.154-.001-.303-.034-.347-.239-.328-.162.016-.184.032-.165.12.012.056.045.379.074.718.063.721.07.754.169.716a.575.575 0 0 1 .17-.029zm-7.122-.105c-.59-.253-.838-.45-1.233-.979l-.19-.254v-4.741c0-3.773-.012-4.737-.059-4.72l-.38.135-.32.114v9.192l.103.21c.056.117.221.333.367.482.216.22.324.29.574.37.373.12.906.23 1.162.238.078.003.074-.005-.024-.047zm12.992-.109c0-.151-.012-.166-.136-.166-.075 0-.204-.013-.287-.03-.12-.024-.148-.051-.136-.13.012-.086.051-.103.263-.115l.249-.014v-.327h-.237c-.232 0-.237-.003-.237-.142 0-.143 0-.143.284-.143h.285v-.331l-.273-.001c-.15 0-.351-.013-.447-.03l-.174-.028-.025.207c-.014.114-.039.467-.054.785l-.029.579.276.017c.728.045.678.055.678-.13zm-38.834-.326v-.445l-.391-.028c-.216-.015-.882-.04-1.482-.054-.6-.015-1.235-.039-1.41-.054l-.32-.027v.81l.2.025c.286.036 2.75.204 3.106.211l.297.007v-.445zm35.278.228v-.163h-.285c-.27 0-.284-.005-.284-.116 0-.104.022-.117.225-.13.223-.014.225-.016.225-.18v-.166l-.219.015c-.207.014-.22.008-.245-.119-.014-.073-.016-.142-.006-.153.011-.011.137-.03.28-.042.25-.02.261-.027.261-.155 0-.073-.02-.146-.045-.162-.026-.015-.237-.014-.47.004l-.425.032.023.717c.014.394.03.737.038.764.008.028.193.041.47.032l.457-.015v-.163zm1.314-.66l.002-.783h-.415v1.565h.411l.002-.782zm.629.711c.196-.101.277-.456.14-.62-.042-.05-.043-.119-.002-.278.082-.326-.048-.548-.32-.548-.087 0-.094.033-.095.474-.001.27.017.474.043.474.025 0 .045.053.045.118 0 .066-.021.119-.047.119s-.048.075-.048.166c0 .188.063.21.284.095zm-14.726-.598c.018-.134.024-.252.014-.262-.01-.01-1.826-.108-4.035-.216l-4.015-.198-.234.231c-.13.127-.225.241-.213.253.02.02 7.533.413 8.185.428l.266.006.032-.242zm-11.637-.28c.061-.13.102-.244.091-.253-.01-.009-.617-.052-1.347-.096a63.963 63.963 0 0 1-1.575-.107l-.248-.028.03.254c.015.14.036.264.047.276.02.023 2.169.174 2.627.185l.264.007.111-.237zm-3.892-.231a1.77 1.77 0 0 0 .194-.258c0-.014-.059-.032-.13-.04-.128-.015-.132-.024-.159-.395-.015-.208-.01-.391.013-.406.022-.015.179-.055.348-.088.17-.034.318-.078.33-.099.013-.02-.12-.074-.296-.12-.493-.13-.486-.123-.486-.471 0-.167-.017-.314-.038-.327-.021-.013-.129.092-.24.234-.11.142-.227.258-.258.258s-.206-.043-.388-.095a3.996 3.996 0 0 0-.372-.095c-.022 0 .068.126.201.28.133.153.242.3.242.326 0 .026-.085.15-.188.275-.104.126-.183.234-.176.24.006.007.165-.027.352-.075l.34-.087.26.314c.142.173.254.319.25.323a26.89 26.89 0 0 1-.957-.057c-.521-.036-.974-.066-1.006-.067-.056-.002-.323.463-.287.498.013.014 1.597.13 2.13.157.097.005.172-.047.32-.225zm7.306-3.083v-2.612h-.521v2.88l.002 2.88.26-.268.26-.268V38.26zm8.174 2.598c.065-.325.046-.374-.148-.375-.098 0-1.683-.074-3.521-.163l-3.343-.162-.26.258-.26.258.26.003c.143.002 1.658.074 3.366.16 1.708.086 3.279.16 3.49.163l.386.006.03-.148zm-20.1-.144c-.283-.146-.525-.402-.76-.803l-.211-.36v-4.725c0-3.22-.016-4.725-.05-4.725-.026 0-.154.054-.284.12l-.236.12.012 4.656.013 4.657.108.222c.173.35.45.63.732.742.33.13.55.189.724.192.142.002.142.002-.047-.096zm24.114-.112a.554.554 0 0 0 .16-.824c-.087-.105-.213-.173-.45-.243-.343-.102-.392-.164-.238-.303.086-.078.101-.077.294.016.216.105.47.13.47.049 0-.12-.149-.32-.271-.367-.283-.107-.393-.108-.633-.005-.286.123-.424.285-.424.496 0 .227.163.388.516.51.341.117.44.216.337.34-.079.095-.333.077-.677-.048-.125-.046-.24-.07-.255-.055-.051.051.035.276.15.391.102.103.155.115.498.115.25 0 .432-.025.523-.072zM7.64 40.307c.011-.123.008-.24-.007-.257-.016-.017-.46-.047-.988-.065l-.96-.034v.531l.462.015c.254.009.69.02.967.026l.505.01.02-.226zm28.249-.272v-.498h.285v-.877c0-.553-.018-.877-.048-.877-.026 0-.047-.054-.047-.119 0-.087-.026-.118-.095-.118-.09 0-.095-.032-.095-.656 0-.361.014-1.108.031-1.66l.032-1.003h.222v-.85c0-.517-.02-.863-.048-.88-.026-.017-.047-.133-.047-.259 0-.185-.017-.233-.091-.252-.086-.023-.093-.083-.107-.942-.014-.824-.026-.941-.119-1.142-.28-.606-.97-1.028-1.69-1.031l-.227-.002.014.25.015.248.303.038c.574.07.967.343 1.123.78.051.144.064 1.139.065 5.263l.002 5.085h.522v-.498zm-12.473-2.063l-.002-1.778-.258-.284-.259-.284.002 2.346.002 2.347.259-.284.258-.285-.002-1.778zM30.02 40c.041-.032.162-.22.27-.418l.193-.358-.155-.151-.155-.15-.154.31c-.18.366-.266.382-.387.072-.08-.208-.347-.497-.431-.47-.024.009-.124.153-.222.32-.098.168-.2.311-.225.319-.026.008-.112-.117-.19-.278-.078-.16-.163-.298-.19-.306-.026-.007-.106.07-.18.173l-.131.187.266.36c.147.199.3.373.34.389.108.041.208-.037.381-.299.085-.128.175-.24.199-.248.024-.008.12.105.213.25.207.324.397.425.558.298zm-19.486-1.723c.02-.019.035.017.035.08 0 .181.128.328.286.328.119 0 .141-.022.168-.166.017-.092.017-.241 0-.332-.024-.127-.015-.166.037-.166.084 0 .126-.101.126-.302 0-.196-.108-.347-.311-.431-.177-.074-.216-.207-.092-.31.09-.075.09-.162.001-.236-.055-.046-.12-.045-.308.003l-.238.061v.54c0 .454-.017.577-.107.784-.202.466-.117 1.219.173 1.517l.147.152.024-.743c.013-.409.04-.76.059-.779zm17.165 1.308c.17-.186.164-.268-.03-.472a1.027 1.027 0 0 1-.205-.31c-.025-.078-.082-.15-.127-.158-.125-.024-.314.122-.314.244 0 .059-.042.19-.094.292-.087.17-.088.195-.021.297.04.062.141.154.224.206.197.123.396.088.567-.1zm-1.286-.405l.173-.14-.051-.26a2.552 2.552 0 0 0-.065-.28c-.007-.01-.139.092-.293.226a2.6 2.6 0 0 1-.306.243c-.013 0-.08-.096-.15-.213-.093-.16-.153-.214-.24-.214-.096 0-.212-.113-.212-.208a.93.93 0 0 1 .138-.183c.132-.15.136-.167.084-.362-.05-.187-.044-.224.068-.425.068-.121.141-.22.164-.22.022 0 .103.208.18.462.11.366.158.462.227.462.107 0 .109-.065.016-.679-.07-.463-.214-.885-.301-.885-.062 0-.265.245-.415.502-.068.115-.13.209-.138.209-.065 0-.403-.57-.403-.679 0-.124-.011-.132-.174-.118l-.174.014-.157.712-.182.818c-.024.097-.009.106.166.106.166 0 .198-.017.239-.13.113-.314.105-.306.227-.22.08.055.096.091.06.128-.1.1-.05.295.138.543.209.276.216.3.13.441-.05.083-.046.104.036.147.052.028.232.193.4.369l.306.318.169-.172c.092-.095.245-.235.34-.312zm28.633-.826v-1.28l.874-.012.875-.013-.215-.25-.214-.248H42.294l-.168.249-.168.249 5.359.012 5.359.012v2.56h2.37v-1.28zm-38 .864a6.903 6.903 0 0 0-.057-.4c-.022-.116 0-.141.216-.25l.24-.122v.57h.701l.02-11.414c.01-6.278.013-11.422.007-11.431-.007-.01-.226.02-.488.066l-.477.084v2.96l.118-.024.119-.022v6.827l-.105.027c-.058.016-.116.011-.13-.009-.014-.02-.1-.14-.192-.265l-.166-.227-.014.334-.014.334-.306.102c-.168.056-.306.11-.306.118 0 .009.138.062.306.118l.306.102.014.338.014.338.186-.27c.183-.267.236-.303.343-.234.078.05.064 11.542-.014 11.512a5.754 5.754 0 0 0-.248-.079c-.172-.05-.197-.078-.22-.228a15.525 15.525 0 0 0-.06-.357l-.034-.186-.181.273c-.1.15-.206.264-.237.252-.253-.093-.564-.183-.58-.167-.01.01.075.138.19.283l.207.265-.305.456c-.167.251-.293.456-.28.456.015 0 .217-.096.45-.213.235-.117.447-.213.473-.213.026 0 .149.127.273.284.125.156.235.284.244.284.01 0 .004-.122-.014-.272zm21.073-11.77V15.594h-.522V39.3h.522V27.447zM19.946 39.174c.152-.027.154-.03.154-.288v-.26l-.249.027c-.137.016-.478.043-.758.06l-.51.03v.522l.604-.032c.333-.018.674-.044.76-.06zm-12.752-.242l.014-.248H5.78v.524l.7-.014.7-.013.014-.249zm4.798-.723v-.806h.284v-1.7l-.13-.015-.13-.015-.013-1.79-.012-1.79h.285v-1.706H12l-.015-1.198-.016-1.197-.134-.29a1.408 1.408 0 0 0-1.137-.85l-.229-.033.015.183c.015.176.023.183.227.218.485.082.798.422.902.98.03.162.048 2.185.048 5.536v5.28h.332v-.807zm28.735-.782v-1.161h-1.423V37.4c0 1.04.007 1.136.083 1.156.046.012.366.024.711.027l.629.006v-1.162zm-12.388.819c.286-.134.271-.239-.028-.199l-.23.03-.03-.32a1.792 1.792 0 0 0-.05-.34c-.041-.04-.434.164-.542.282l-.11.12.244.293c.228.274.254.29.394.26.083-.017.241-.074.352-.126zm1.001-.126c.053-.034.054-.074.009-.212a1.883 1.883 0 0 1-.046-.504c.006-.183.001-.343-.01-.355-.048-.047-.366.076-.396.154a2.479 2.479 0 0 0-.059.42c-.023.3-.015.348.075.438.104.103.311.132.427.059zm1.509-.06c.08-.067.123-.3.084-.474-.037-.168-.354-.535-.55-.637a.912.912 0 0 0-.345-.067h-.214l.113.166a.85.85 0 0 1 .12.715c-.048.143-.045.184.014.243.145.145.627.178.778.054zm-24.142-.091c.018-.029-.034-.183-.114-.344-.16-.32-.307-1.157-.369-2.108l-.031-.489.161-.14c.155-.133.158-.142.072-.208-.146-.114-.484-.145-.62-.056-.218.143-.22.546-.002.874.15.228.213.597.211 1.242-.002.467-.038.776-.113.953-.025.06.024.098.22.174.439.17.533.187.585.102zm20.097-.333c.038-.19.29-.452.518-.54.11-.041.337-.09.505-.11l.307-.033.043-.182c.03-.127.026-.198-.013-.237-.031-.031-.242-.062-.491-.07-.395-.015-.452-.006-.602.096-.236.16-.425.566-.46.99-.029.332-.028.337.069.276a.33.33 0 0 0 .124-.19zm7.142-.733v-.88l-.249.015-.249.014-.013.865-.013.866h.524v-.88zm.63.833c.047 0 .138-.053.202-.117.152-.153.164-.5.021-.642-.052-.052-.12-.095-.15-.095-.032 0-.01-.043.046-.096a.415.415 0 0 0-.116-.692c-.29-.121-.293-.117-.29.443.003.359.023.528.067.573.084.083.081.173-.007.246-.042.034-.071.138-.071.248 0 .174.009.187.107.161a.936.936 0 0 1 .191-.029zm-26.71-3.96v-3.342h-.52V37.119h.52v-3.343zm11.76 2.893v-.45h-.569v.9h.569v-.45zm-2.57.13l-.014-.273-.877-.03c-.483-.017-1.374-.042-1.98-.056l-1.102-.025v.514l.367.005c.35.004 3.355.115 3.535.13.075.007.084-.027.071-.265zm24.805-.216l.241-.368-.012-4.65-.012-4.65-.249-.215-.249-.213v5.253c0 2.889.01 5.243.02 5.232.011-.01.129-.186.261-.389zm15.734.094c.047-.03.06-1.177.06-5.475v-5.438l-.258-.285-.256-.284-.265.26-.265.258V36.32l.25.296.248.296.213-.099c.118-.054.24-.115.273-.136zM2.26 31.394l-.012-5.25-.25-.015-.248-.014v10.53h.522l-.012-5.251zm.912 3.97v-.9h-.521v1.802h.521v-.901zm43.008.83c.172-.089.237-.205.237-.425 0-.388-.475-.553-.763-.266-.168.168-.181.364-.037.547.167.213.344.258.563.144zm1.7-.048c.18-.152.226-.348.128-.54-.215-.413-.833-.286-.833.173 0 .415.4.623.704.367zm1.572.048c.277-.143.322-.466.098-.69-.362-.362-.955.076-.714.527.056.104.267.23.392.233a.607.607 0 0 0 .224-.07zm1.703-.051c.12-.102.145-.157.144-.32 0-.109-.028-.231-.06-.273-.162-.211-.498-.247-.674-.07-.159.158-.189.32-.096.515.136.286.442.352.686.148zm1.64.008a.627.627 0 0 0 .145-.238c.038-.151-.054-.386-.187-.479-.276-.194-.694.036-.694.381 0 .38.474.597.735.336zm2.633-.314l.12-.156.303.102c.166.057.308.097.315.09.007-.007-.071-.123-.174-.258-.103-.134-.187-.262-.187-.283 0-.021.076-.145.168-.275.092-.13.15-.242.128-.25-.022-.007-.161.03-.31.08l-.271.094-.201-.27-.201-.27-.014.34-.014.34-.31.103c-.17.057-.3.111-.29.121.01.01.144.057.299.104l.281.085.015.354.015.354.103-.125c.057-.069.158-.195.225-.28zM13.604 34.06v-2.015h-.521v4.03h.521V34.06zm29.957 1.4c.019 0 .152.031.295.07.143.038.278.07.3.07.022 0-.06-.115-.181-.257l-.22-.258.172-.269c.094-.148.163-.277.153-.287-.01-.01-.145.034-.299.099l-.28.117-.225-.248-.225-.247v.339l-.001.339-.237.085c-.13.047-.237.111-.237.143 0 .032.116.085.257.116l.258.058.033.355.033.354.185-.29c.101-.16.2-.29.219-.29zm-33.03.09c-.014-.312-.013-.314.2-.552.223-.247.313-.42.312-.597 0-.18-.089-.434-.207-.594l-.113-.153-.15.125c-.082.07-.18.187-.22.262-.114.222-.255.897-.266 1.271-.008.33-.001.357.124.464.073.063.178.108.234.1.093-.013.1-.039.087-.327zm16.607.306c.055-.02.075-.094.075-.275v-.247l-1.98.017c-1.089.01-2.005.022-2.036.027-.032.005.04.121.158.258l.215.25h1.746c.96 0 1.78-.014 1.822-.03zm-10.831-1.864c0-.885-.017-1.62-.037-1.632-.027-.017-1.783.128-1.895.156-.007.002-.012.685-.012 1.518v1.515l.32.017c.176.009.613.02.972.026l.652.009v-1.61zm13.067 1.491c-.368-.151-.627-.407-.716-.708-.06-.202-.07-1.384-.07-8.641v-8.407h-.112c-.062 0-.211.013-.332.03l-.22.03v8.388c0 6.081.015 8.447.054 8.601.033.132.127.294.249.428.248.274.575.394 1.072.394h.356l-.28-.115zm-9.758-.416l-.014-.438-.272-.014-.273-.015v.906h.573l-.014-.439zm11.56.088c.137-.136.162-.194.162-.378 0-.573-.77-.763-1.013-.25-.096.203-.098.328-.006.506.09.175.28.279.514.281.146.002.215-.03.344-.159zm22.863-.325l-.214-.249-4.381-.012-4.382-.012-.176.236c-.097.13-.176.248-.176.261 0 .014 2.147.025 4.771.025h4.772l-.214-.249zm-29.15-.201v-.26H22.802l.03-.327.03-.326-.17-.057c-.095-.03-.184-.075-.198-.098-.024-.04.255-1.8.292-1.844.014-.016 1.013.277 1.24.364.038.014-.15-.3-.416-.698-.266-.398-.466-.741-.444-.763.022-.022.424-.327.892-.678l.852-.639.472.873c.26.48.484.873.5.873.015 0 .11-.325.212-.723.101-.397.208-.746.237-.775.028-.029.336-.102.684-.162l.631-.11-.032-.241a1.516 1.516 0 0 0-.048-.257c-.02-.023-1.581.245-1.639.28-.025.016-.083.162-.129.326l-.084.298-.306-.573c-.168-.316-.325-.567-.348-.56-.082.025-2.632 1.952-2.634 1.99-.001.021.084.165.19.32.104.155.182.282.171.282a2.33 2.33 0 0 1-.217-.07c-.152-.053-.202-.056-.216-.011a85.188 85.188 0 0 0-.452 2.727c0 .06.067.12.196.178l.196.088-.03.417-.029.417h2.654v-.261zm9.057.065c0-.107-.037-.298-.082-.424-.07-.2-.073-.255-.018-.433.082-.264.122-.702.064-.702-.08 0-.355.21-.457.347-.155.21-.165.75-.02 1.023.097.181.35.385.477.385.02 0 .036-.088.036-.196zm.708.06c.193-.14.294-.392.294-.737 0-.476-.186-.77-.543-.86-.123-.03-.127-.026-.127.171 0 .127.031.237.083.295.06.066.083.172.083.39 0 .217-.023.323-.083.39-.052.057-.083.167-.083.294 0 .197.004.202.13.172a.83.83 0 0 0 .246-.115zm9.899-.066c.057-.085.169-.248.249-.363l.145-.208v-5.289l-.249-.217c-.136-.12-.264-.217-.284-.217-.02 0-.036 1.451-.036 3.224 0 1.773.016 3.224.035 3.224.02 0 .083-.07.14-.154zm9.972-3.436v-3.59l-.261.258-.26.258v6.103l.243.28c.135.155.252.281.261.281.01 0 .017-1.615.017-3.59zM27.328 34.03c.038-.652.029-.672-.281-.625-.248.037-.48.133-.668.277-.185.14-.4.553-.4.768v.156h1.315l.034-.576zm-1.896-.404c.068-.122.107-.238.087-.258-.02-.02-.506-.205-1.08-.411l-1.043-.376-.03.147c-.075.36-.077.653-.005.68.13.05 1.74.43 1.844.435.076.003.136-.054.227-.217zm-19.187.07c.085-.085.07-.206-.058-.457-.12-.236-.217-.782-.217-1.212 0-.236.01-.256.176-.364.176-.115.393-.387.393-.493 0-.03-.12-.189-.267-.351-.319-.352-.43-.368-.537-.077-.09.245-.093 1.78-.006 2.323.087.541.156.688.324.688.074 0 .16-.026.192-.057zm47.094-.11c0-.161-.004-.165-.19-.165-.184 0-.189.004-.189.166s.005.166.19.166.19-.004.19-.166zm-7.35-.26v-.38h.522v.76h.38v-1.85h-.38v.617h-.521v-.617h-.332V33.705h.332v-.379zm2.656.19v-.19h-.759v-.375l.32-.014.32-.014.015-.178.015-.178h-.67v-.379h.712v-.38H47.507V33.706h1.138v-.19zm.901-.19c0-.221.02-.38.047-.38s.048-.063.048-.141c0-.079-.021-.143-.048-.143-.026 0-.047-.117-.047-.26 0-.144.021-.261.047-.261.027 0 .048-.075.048-.166 0-.165-.001-.166-.214-.166h-.213v1.896h.332v-.379zm.873.19l-.04-.383a.595.595 0 0 0-.101-.285c-.052-.057-.062-.09-.026-.09.032 0 .09-.078.129-.172.115-.274 0-.61-.245-.722-.174-.08-.175-.078-.143.194.016.137.027.313.024.39-.013.357.003 1.054.027 1.15.02.089.058.107.21.107h.184l-.02-.19zm1.83 0v-.19h-.759v-.375l.32-.014.32-.014.015-.178.015-.178h-.67v-.379h.711v-.38H51.158V33.706H52.25v-.19zM40.727 32.37v-1.24l-.363.03c-.2.018-.52.032-.712.032h-.348v2.418h1.423v-1.24zm-21.176.978c-.05-.2.02-.425.242-.762.164-.25.212-.367.212-.515-.002-.39-.196-.554-.545-.458-.329.091-.354.13-.177.278.085.072.154.17.154.217 0 .047-.097.22-.214.385-.117.164-.213.347-.213.406 0 .066.09.198.23.338.258.258.356.293.31.111zm11.626-.042c.132-.132.161-.197.161-.36 0-.251-.136-.45-.359-.523-.58-.191-.987.573-.505.951a.53.53 0 0 0 .33.093c.177 0 .238-.026.373-.16zm24.727.023c.102-.103.138-.184.138-.312a.46.46 0 0 0-.45-.45.46.46 0 0 0-.45.45c0 .24.209.45.45.45.128 0 .209-.036.312-.138zm-12.565.017c.263-.135.309-.473.094-.688-.38-.38-.994.125-.686.565.136.195.362.242.592.123zm9.974-.317c.01-.033.03-.332.045-.664l.027-.605h-.378v.23c0 .127.014.425.031.664.03.417.036.434.144.434.062 0 .121-.027.131-.06zm-27.156-.219l.1-.136-.73-1.198a70.16 70.16 0 0 0-.752-1.221c-.013-.013-.218.1-.457.25l-.433.274.514.526c1.391 1.425 1.605 1.64 1.63 1.64.016 0 .073-.06.128-.135zm-22.985-1.31v-1.399h-.521V32.9h.521v-1.398zm7.538 1.186c.267-.138.334-.281.334-.716 0-.217-.023-.5-.051-.63-.058-.273-.004-.433.147-.433.077 0 .093-.033.093-.184 0-.406-.328-.51-.53-.168-.054.092-.105.159-.115.15a5.6 5.6 0 0 1-.022-.595c-.003-.318-.021-.578-.04-.578-.088 0-.197.192-.24.422a1.687 1.687 0 0 1-.073.291c-.015.023.006.169.047.323.101.393.094.446-.094.67-.163.196-.194.298-.137.447.042.11.145.093.337-.054l.17-.13-.024.339c-.017.237-.056.39-.132.512-.088.144-.098.194-.055.29.06.132.187.146.385.044zm16.526-.226c.023-.068.173-2.512.155-2.527a2.316 2.316 0 0 0-.316.02l-.303.03.009 1.043c.004.573.02 1.144.036 1.268l.029.225h.185c.105 0 .193-.025.205-.06zm-11.567-.768c-.099-.427-.098-.43.104-.555l.178-.11-.221-.04-.222-.041-.059-.328c-.032-.18-.072-.327-.09-.327-.016 0-.092.128-.167.285-.095.2-.158.279-.21.265-.217-.058-.335-.075-.335-.048a.7.7 0 0 0 .119.17c.065.078.118.172.118.21 0 .037-.076.22-.17.405l-.169.337.182-.11c.1-.06.238-.148.307-.195a.527.527 0 0 1 .169-.087c.024 0 .148.128.277.284.129.156.24.265.248.242.008-.023-.019-.183-.059-.357zm18.277-.574v-.88l-.249.015-.249.014-.013.804c-.007.443-.003.832.01.866.015.038.112.06.262.06h.239v-.88zm.59.832c.06 0 .164-.056.233-.125.16-.16.176-.488.03-.633-.052-.053-.118-.095-.146-.095-.028 0 .004-.066.071-.146.14-.167.152-.276.053-.468-.063-.122-.275-.24-.43-.24-.088 0-.079.993.01 1.081.084.085.08.196-.008.23-.049.018-.071.094-.071.24 0 .175.013.209.075.185a.622.622 0 0 1 .183-.029zm8.897-.328c.103-.103.139-.184.139-.312s-.036-.21-.14-.312c-.102-.102-.183-.138-.31-.138-.13 0-.21.036-.313.138-.102.103-.138.184-.138.312s.036.21.138.312c.103.102.184.138.312.138s.21-.036.312-.138zm-29.46.014l.252-.03-.03-.198c-.036-.24.028-.615.17-.993.12-.32.468-.715.678-.767.52-.13 1.15.577 1.205 1.353l.024.333h.148c.081 0 .26-.015.397-.031l.249-.03v-.254c0-.21-.015-.254-.083-.256-.08-.001-.08-.003 0-.05.145-.084.1-.22-.095-.282a.972.972 0 0 1-.212-.088c-.019-.016.093-.133.249-.26.155-.125.272-.245.26-.266-.014-.021-.149-.053-.3-.07a1.425 1.425 0 0 1-.326-.064c-.032-.021.029-.277.176-.735.124-.386.201-.693.171-.68-.03.011-.3.16-.6.33-.46.263-.549.298-.573.231a65.656 65.656 0 0 1-.354-1.541c-.21-.944-.339-1.431-.361-1.375-.02.048-.187.709-.372 1.469l-.336 1.381-.716-.303c-.394-.167-.724-.295-.735-.285-.011.011.184.351.434.756.25.404.453.745.453.758 0 .012-.122.036-.272.052-.15.017-.357.044-.46.059l-.186.028.35.319.352.319-.295.216-.294.217.343.116.344.116-.273.036-.272.035v.524l.32-.03c.176-.016.433-.043.57-.06zm18.432-.189c.365-.2.365-.201-.143-.518-.307-.191-1.5-.765-1.76-.847-.072-.022-.185.02-.39.148-.16.099-.29.19-.29.204-.001.014.143.087.319.162.49.21 1.38.664 1.671.851.144.093.266.17.271.17.006 0 .15-.076.322-.17zm23.499-.062c.102-.103.138-.184.138-.312a.46.46 0 0 0-.45-.45.46.46 0 0 0-.45.45c0 .24.209.45.45.45.128 0 .209-.036.312-.138zm-8.109-.383c.087 0 .091-.045.091-.925v-.924h-.329l-.013.567-.013.567-.285-.532-.284-.531h-.38l-.012.889-.013.889h.378l.013-.51.014-.51.255.475c.305.566.333.604.42.57a.534.534 0 0 1 .158-.025zm1.23-.093a.938.938 0 0 0-.105-.342c-.152-.29-.152-.826-.002-1.029.122-.166.145-.433.037-.433-.038 0-.145.066-.237.147-.176.155-.31.493-.31.784 0 .439.198.867.447.967.155.063.17.055.17-.094zm.645-.076c.215-.227.321-.603.291-1.023-.013-.187-.056-.374-.103-.445-.084-.128-.341-.306-.442-.307-.102 0-.07.292.047.416.093.098.107.164.107.5 0 .31-.022.428-.107.59-.217.413-.087.581.207.27zm1.801-.473c.05-.353.112-.642.138-.643.026 0 .1.29.163.646l.117.647.215-.032c.119-.017.23-.046.248-.063.046-.047.388-1.95.356-1.983-.015-.015-.1-.014-.187.002l-.16.03-.082.721c-.11.968-.115.97-.29.153-.161-.762-.188-.852-.253-.846l-.214.012-.159.007-.11.652c-.06.358-.126.694-.145.746-.032.088-.036.087-.062-.023-.015-.066-.06-.343-.1-.617-.115-.775-.11-.758-.254-.758-.264.002-.264.01-.079.976.095.493.181.923.192.956.012.038.116.059.297.059h.28l.09-.642zm-31.757.474c.196-.25.32-1.12.249-1.742-.053-.457-.13-.665-.252-.688-.101-.02-.607.5-.607.623 0 .142.151.356.348.492.178.124.183.135.162.355a1.148 1.148 0 0 1-.17.467c-.21.338-.23.443-.096.537.154.108.256.095.366-.044zm13.523-1.739c.098-.816.173-1.489.166-1.496-.007-.008-.186.126-.397.296-.21.17-.395.31-.41.31-.013 0-.025-.08-.026-.178-.001-.352-.18-1.053-.343-1.353-.14-.254-.485-.603-.597-.603-.018 0-.067.057-.11.126-.075.125-.074.128.175.37.203.199.269.305.346.557.123.395.198.936.198 1.416 0 .207.017.376.037.376.02 0 .18-.12.356-.265.175-.145.318-.236.318-.201 0 .035-.053.5-.118 1.035-.065.534-.119.997-.119 1.028 0 .047.27.11.327.076.01-.006.098-.678.197-1.494zm10.196.867a.434.434 0 0 0-.143-.713c-.286-.119-.62.094-.62.396 0 .414.47.61.763.317zm-36.96-.951c.005-.3.03-.599.055-.664.074-.19.21-1.013.193-1.165l-.016-.139-.522.016c-.286.01-.526.021-.53.026-.006.005.041.15.104.324.176.485.313 1.242.303 1.668-.01.373-.009.375.152.506.145.119.166.124.206.052.024-.043.049-.325.054-.624zm2.924.545c.157-.106.303-.166.401-.166.13 0 .155-.018.155-.107 0-.058.053-.884.118-1.834.065-.95.11-1.735.1-1.744-.009-.01-.146.124-.304.297l-.288.314-.027-.182c-.16-1.047-.31-1.47-.646-1.833l-.227-.245-.13.127-.128.127.14.118c.351.296.563.96.643 2.018l.056.73.259-.278.26-.278-.03.354c-.017.194-.054.759-.083 1.254-.03.496-.062.928-.072.96-.01.038-.139-.033-.344-.191-.179-.139-.552-.386-.829-.55-.554-.328-.5-.325-.837-.039-.086.073-.148.138-.138.146.01.007.124.074.255.148.398.227 1.178.764 1.3.896a.739.739 0 0 0 .132.124c.01 0 .129-.075.264-.166zm21.983-.119l.113-.096-.086-.224c-.126-.334-.623-.81-1.028-.984-.292-.127-.316-.148-.292-.258.052-.244.352-.792.567-1.036.122-.138.213-.257.204-.265-.01-.007-.183.001-.385.019-.261.022-.396.057-.467.122-.225.203-.725 1.22-.763 1.551-.014.128.005.141.484.335.275.11.531.22.57.242.37.216.586.397.69.575.132.224.152.225.393.02zm24.393.137c.285-.146.35-.46.146-.702-.102-.121-.157-.146-.327-.146-.48 0-.617.611-.19.846a.368.368 0 0 0 .37.002zm-15.046-2.247v-1.304l-.178.024c-.183.026-1.127.119-1.203.119-.023 0-.042.54-.042 1.233v1.232h1.423v-1.304zm3.343.473c.168-.046.296-.098.285-.115-.011-.018-.148-.072-.305-.12l-.285-.085-.014-.354-.014-.354-.19.267c-.208.294-.196.292-.651.15l-.225-.07.199.282.199.282-.201.285c-.11.156-.193.284-.183.284.01 0 .142-.043.294-.095.151-.052.299-.094.327-.094.029.001.138.12.242.266l.19.266.013-.357.014-.356.305-.082zm5.655.41l4.044-.27.27-.27.271-.271h-.166c-.091 0-1.905.117-4.03.26l-4.713.316-.85.057.277.246.278.246.288-.021c.158-.012 2.107-.144 4.331-.293zm-26.9-.434c.233-.028.44-.062.462-.075.02-.013.038-.566.038-1.23 0-1.013-.011-1.206-.068-1.206-.074 0-.719.081-.964.121l-.154.026v2.459l.13-.022c.072-.012.322-.044.555-.073zm-14.463-.4c-.068-.325-.363-.84-.668-1.163-.17-.18-.35-.34-.4-.356-.05-.016-.091-.07-.091-.118 0-.227.475-1.305.83-1.884l.123-.2-.228.025c-.428.05-.418.043-.621.459-.305.624-.768 1.849-.768 2.03 0 .021.148.117.328.212.495.26.868.622 1.078 1.046l.175.354.135-.13c.112-.107.13-.157.107-.275zm-5.237-.807v-1.114h-.522v2.228h.522V26.57zm43.12.942c.193-.194.184-.455-.021-.646-.231-.214-.549-.149-.687.141-.213.45.355.856.707.505zm-26.837-.048c.155-.123.157-.13.135-.438-.022-.323.07-.793.207-1.058l.068-.133-.404-.009-.535-.012c-.117-.002-.132.015-.145.178-.018.22.043.302.272.364l.176.047-.02.284c-.021.285.025.902.067.902a.995.995 0 0 0 .18-.125zm6.314.023l.448-.055v-1.225c0-1.158-.005-1.225-.088-1.225-.106 0-.843.09-.991.121l-.107.023v2.416h.145c.08 0 .347-.025.593-.055zm29.777-.21l.14-.264.226.03c.124.015.257.04.296.055.13.05.074-.094-.107-.28l-.178-.183.156-.287c.086-.158.15-.294.143-.301-.008-.007-.147.047-.31.12l-.294.135-.196-.233c-.212-.254-.296-.294-.261-.127.012.058.035.204.05.324l.028.217-.312.133c-.171.072-.304.14-.294.15.01.009.154.044.32.078.335.068.364.105.373.496.002.111.021.202.042.202.02 0 .1-.12.178-.264zm-41.786-.54l.342-.11-.344-.116-.344-.115v-.673l-.188.252a9.722 9.722 0 0 1-.204.267c-.009.01-.152-.025-.32-.075-.166-.05-.309-.086-.317-.078-.007.008.071.128.174.266.104.139.175.276.159.305a6.027 6.027 0 0 1-.193.277c-.09.124-.142.226-.118.226.024 0 .168-.043.32-.095.151-.052.279-.095.284-.095.004 0 .092.121.194.27l.185.27.014-.332.014-.333.342-.11zm34.119.638c.18-.152.227-.349.128-.54-.092-.177-.206-.241-.428-.241-.4 0-.564.487-.259.77.178.165.37.169.559.01zm1.69-.222c.152-.18.151-.371-.001-.552-.152-.18-.348-.227-.54-.128-.474.245-.216.93.317.839a.495.495 0 0 0 .225-.159zm1.592-.129c.103-.103.139-.184.139-.312a.46.46 0 0 0-.45-.45.46.46 0 0 0-.45.45c0 .241.209.45.45.45.128 0 .209-.035.311-.138zm1.515-.075c.41-.212.266-.83-.194-.83a.445.445 0 0 0-.455.39c-.025.157-.009.196.14.344.183.183.298.205.51.096zm-19.062-7.515v-7.206h-.522V26.64h.522v-7.207zm16.088 6.548l6.77-.555.295-.296.294-.295-.19.026c-.104.014-3.464.292-7.468.618-4.003.325-7.369.603-7.48.618l-.202.027.273.235.273.234.332-.028c.183-.016 3.379-.279 7.103-.584zm-15.08-.265l.224-.03V23.956l-.249.035c-.136.02-.296.037-.355.039-.107.003-.107.003-.107.884v.881l.13-.024c.072-.014.232-.038.356-.054zm1.09-.143l.225-.03v-1.71l-.344.034c-.189.019-.36.043-.38.055-.044.027-.046 1.648-.001 1.692.018.019.087.024.154.011.066-.012.222-.035.346-.052zm-16.122-.907c.459-.746.47-.876.084-1.03-.105-.043-.19-.087-.19-.1 0-.011.097-.141.217-.288s.21-.273.201-.28a1.868 1.868 0 0 0-.276-.045l-.261-.031-.153.226c-.26.389-.379.772-.237.772.108 0 .414.239.414.324 0 .045-.118.198-.261.34-.144.142-.261.294-.261.338 0 .098.223.373.3.372.03 0 .221-.27.423-.598zM29.81 21.36l.012-3.788-.148.03c-.082.016-.2.03-.261.03h-.113v3.761c0 2.069.01 3.771.022 3.784.012.012.124.01.25-.004l.226-.026.012-3.788zm12.53.99v-2.774h-.521V25.124h.52V22.35zm-10.1 2.397c0-.272.004-.282.13-.297l.13-.015.014-.675.013-.676h-.287v-2.554l.13-.015.13-.015v-1.375l-.13-.015-.13-.015v-1.463h-.522v7.396h.521v-.281zm12.103.155l.32-.03V22.611h-.154c-.085 0-.298.014-.474.031l-.32.03v2.262h.154a7 7 0 0 0 .474-.03zm-30.773-.137l.32-.029v-2.893l-.368.03c-.202.017-.415.04-.474.053l-.107.022v2.895l.154-.024c.085-.013.299-.037.475-.054zm32.48-.007c.02-.01.036-.523.036-1.138v-1.119l-.506.033c-.278.018-.524.044-.545.057-.022.014-.04.526-.04 1.14v1.114l.51-.033c.28-.018.525-.042.545-.054zm-14.996-.18c.197-.102.285-.253.285-.49 0-.173-.027-.234-.161-.368-.135-.136-.196-.162-.373-.162-.497 0-.736.577-.378.91.21.196.397.229.627.11zm17.61.04l.22-.03V22.29l-.202.018-.522.045-.32.029v2.214l.13.02c.224.034.465.035.693.004zm-37.11-3.537l-.011-3.52-.25-.015-.248-.014v7.069h.522l-.012-3.52zm4.244 3.396l.225-.027v-2.989l-.272.03-.498.058-.225.027v2.989l.272-.03a65.1 65.1 0 0 0 .498-.058zm34.614-.002c.02-.012.036-.534.036-1.16v-1.14l-.368.03c-.202.015-.479.04-.616.054l-.249.026V24.567l.581-.034c.32-.02.597-.045.616-.057zm2.282-.236l.221-.03-.012-1.096-.013-1.096-.285.014a5.845 5.845 0 0 0-.462.04l-.178.026v2.172h.254c.14 0 .354-.013.475-.03zm1.276-.091l.368-.03-.013-1.097-.013-1.098-.355.013a6.64 6.64 0 0 0-.534.04l-.177.026V24.214l.177-.018c.098-.01.344-.031.547-.047zm-19.205-.527c.02-.012.035-.367.035-.79v-.77l-.355.045-.356.045v1.557l.32-.033c.176-.019.336-.043.356-.054zm1.114-.13c.008-.008.009-.364.001-.792l-.013-.778-.355.048-.356.048-.013.778-.013.777.368-.034c.202-.018.374-.04.381-.047zm4.837-.072c.006-.002.012-.571.012-1.265v-1.263l-.13.025a36.13 36.13 0 0 1-.712.111l-.581.087v2.424l.7-.058.71-.061zm-33.922-.625l.373-.054-.022-.232a.925.925 0 0 0-.047-.257c-.014-.014-.295.01-.623.055l-.598.08.027.195c.052.37-.046.347.89.213zm1.88-.777v-.877h-.569v1.755h.569v-.878zm22.533.597a.535.535 0 0 0-.323-.89c-.461-.061-.777.381-.564.792.166.32.642.373.887.098zm-8.332-.048l.427-.074.013-1.203.012-1.203-.155.028a563.8 563.8 0 0 0-.593.106l-.439.079v2.404l.154-.032c.085-.017.346-.064.581-.105zm21.605-.288h.183V20.1l-.367.027a6.056 6.056 0 0 0-.475.047l-.106.022v2.145l.291-.03c.16-.017.374-.03.474-.03zm-18.82-.122l.51-.081V19.47l-.154.028-.592.106-.439.079v1.3c0 1.217.006 1.3.083 1.278.046-.013.312-.06.593-.105zm20.39-.005c.02-.011.036-.5.036-1.088v-1.067l-.51.033c-.28.018-.526.042-.545.053-.02.012-.036.501-.036 1.088v1.067l.51-.033c.28-.018.525-.042.545-.053zm2.68-.186l.153-.023V19.764l-.462.03a5.792 5.792 0 0 0-.522.046c-.045.014-.059.278-.059 1.11v1.09l.368-.025c.202-.014.436-.036.521-.049zm1.35-.093l.368-.029V19.725l-.249-.026a3.607 3.607 0 0 0-.605.008l-.355.036-.013 1.042c-.007.573-.002 1.07.011 1.104.017.044.09.055.25.037.124-.013.391-.037.593-.053zm2.68-.19l.154-.024v-2.177h-.255c-.14 0-.353.013-.474.03l-.22.03v2.205l.32-.02c.176-.012.39-.032.475-.045zM6.768 21.56l.49-.054-.033-.242a1.464 1.464 0 0 0-.05-.26c-.008-.01-.36.021-.78.068l-.765.086.028.14c.015.076.028.192.028.258 0 .134-.085.134 1.082.004zm47.318.025l.25-.025v-2.174h.321l.076-.415c.042-.228.076-.457.076-.51 0-.052-.102-.276-.225-.497l-.226-.403-1-.102a39.56 39.56 0 0 1-1.08-.119c-.052-.01.12-.174.515-.483.326-.257.594-.472.594-.477 0-.005-.06-.202-.135-.438-.128-.41-.148-.442-.486-.764-.193-.184-.358-.328-.367-.32-.008.008.063.278.158.6l.194.663c.016.055-.173.234-.647.612-.64.512-.668.54-.644.681.014.08.04.25.057.376.018.126.056.237.086.248a53.3 53.3 0 0 0 2.007.21c.057 0 .583.984.583 1.09 0 .026-.101.048-.225.048s-.338.014-.475.03l-.248.03V21.662l.296-.025c.163-.013.408-.036.545-.05zm-22.91-.796c.136-.135.162-.195.162-.372 0-.246-.112-.418-.33-.508-.443-.184-.914.323-.695.747.107.207.255.295.495.295.173 0 .235-.027.369-.162zM5.829 18.415V16.59h-.521v1.794c0 .986.013 1.807.03 1.825.018.017.136.031.262.031h.229v-1.825zm7.586 1.612c.528-.052.475.112.475-1.45 0-.754-.016-1.37-.036-1.368-.02.002-.228.04-.462.086l-.427.084-.013 1.363c-.011 1.283-.007 1.362.072 1.34.046-.014.222-.038.391-.055zm42.037-.9c.15-.496.29-.936.311-.977.03-.058.264-.107 1.013-.212.536-.074.974-.147.974-.161 0-.015-.297-.14-.661-.28l-.661-.254-.489.085c-.269.046-.504.107-.523.135-.053.08-.257.987-.371 1.654-.101.59-.102.613-.02.796.047.104.101.172.12.151.019-.02.157-.442.307-.938zm-39.666.407l.214-.03.012-1.45.013-1.45-.44.087a7.926 7.926 0 0 1-.498.087c-.046.001-.06.319-.06 1.427v1.426l.273-.033a35.3 35.3 0 0 0 .486-.064zm4.315-.645v-.26h-1.375v.521H20.1v-.26zm11.028.136c.204-.134.27-.474.141-.724a.606.606 0 0 0-.244-.217c-.473-.224-.963.328-.684.772a.552.552 0 0 0 .787.169zM41.71 17.35a14.204 14.204 0 0 1 3.598-.723c1.813-.131 3.78.223 5.323.96.27.129.507.234.525.234.018 0 .007-.164-.025-.366-.066-.423-.11-.474-.714-.82-.724-.413-1.79-.735-2.91-.878-.512-.065-.858-.076-1.73-.055-1.33.033-2.167.15-3.476.49-1.007.26-2.46.787-2.963 1.075l-.274.157.511.283.511.283.534-.225c.293-.124.784-.31 1.09-.415zm-18.91.208c.247-.04.466-.085.487-.098.044-.027.052-2.53.008-2.53-.017 0-.283.067-.593.15l-.563.149v2.452l.107-.024c.059-.013.308-.057.555-.099zm32.031-.327c.037-.34.027-.333.464-.384.15-.018.273-.046.272-.062 0-.017-.118-.114-.26-.216a7.572 7.572 0 0 1-.26-.19c.015-.054.13-.812.125-.818a3.523 3.523 0 0 0-.325.228l-.317.236-.407-.175c-.224-.096-.416-.166-.425-.156-.01.01.064.156.165.326s.185.333.186.365c0 .03-.116.148-.26.26l-.263.205.132.03c.073.016.246.032.385.035.281.006.416.107.6.45.051.094.107.172.124.172s.046-.138.064-.306zm3.392.218c0-.023-.449-.369-.997-.769-.913-.665-.995-.738-.973-.848.068-.344.271-1.906.25-1.927-.013-.013-.478.203-1.033.48-.748.375-1.04.5-1.131.481a27.472 27.472 0 0 1-1-.288c-.482-.145-.893-.258-.914-.252-.02.006.089.135.242.287.265.262.314.288 1.045.555l.766.28.675-.322c.548-.262.678-.308.69-.246.007.043-.03.353-.082.69-.052.338-.08.627-.061.644.019.017.28.208.58.425.431.314.663.443 1.114.622.537.214.83.28.83.188zm-32.67-.291c.3-.052.561-.095.581-.095.02 0 .036-.621.036-1.38v-1.381l-.107.028-.593.155-.486.127v1.32c0 .726.006 1.32.012 1.32.007 0 .257-.042.557-.094zm3.614-.32c.025-.357.116-.574.339-.81.208-.222.381-.3.665-.303.547-.005.95.405 1.05 1.065l.033.226.22-.003c.144-.001.307-.047.472-.133l.253-.13-.221-.204c-.121-.111-.213-.21-.205-.217.009-.008.203-.073.432-.145.23-.07.41-.135.403-.142a11.119 11.119 0 0 0-.511-.212 13.036 13.036 0 0 1-.51-.209c-.006-.006.04-.276.102-.6.062-.324.107-.596.099-.605-.008-.008-.257.124-.552.294l-.538.31-.3-.597-.3-.597-.083.137c-.045.075-.206.355-.357.623-.15.267-.294.486-.318.486-.023 0-.299-.15-.61-.33-.313-.183-.569-.315-.569-.295 0 .02.085.29.19.6.103.31.18.571.17.582a7.56 7.56 0 0 1-.59.17c-.313.083-.582.164-.597.18-.016.014.164.108.4.206.235.1.427.193.427.209 0 .016-.129.111-.285.212-.156.1-.284.198-.284.216 0 .04 1.201.323 1.404.33l.148.006.023-.32zm10.548-.164c.03-.023.248-.313.484-.645.564-.792.853-1.128 1.146-1.333l.242-.168-.205-.177c-.22-.19-.754-.488-1.177-.655-.244-.096-.29-.099-.711-.049-.8.095-.795.086-.163.293.311.102.753.274.982.383l.416.197-.16.169c-.3.315-1.033 1.333-1.499 2.082l-.246.395.418-.225c.23-.124.442-.244.473-.267zm9.832-1.211c0-.072.031-.234.07-.36.053-.175.057-.254.017-.329-.043-.08-.036-.11.034-.16a.341.341 0 0 1 .119-.064c.055 0 .186-.314.186-.447 0-.163-.123-.346-.29-.432-.187-.097-.22-.088-.256.074-.025.115-.01.16.076.23.099.08.102.1.046.236-.048.117-.09.15-.194.15-.105 0-.142.03-.184.15-.043.124-.038.165.028.238.071.079.073.115.017.336a5.292 5.292 0 0 1-.085.307c-.012.034.047.089.137.128.23.1.278.09.279-.057zm-.682-1.103c.165-.482.3-.88.3-.884.006-.032-.308-.104-.333-.076-.018.02-.162.426-.32.904-.287.864-.288.868-.184.91a.418.418 0 0 0 .17.033c.042-.006.18-.339.367-.887zm-4.763.757a.591.591 0 0 0 .367-.816c-.069-.15-.145-.192-.626-.34-.372-.112-.414-.137-.414-.24 0-.227.396-.296.589-.104.085.085.148.105.283.09.152-.018.17-.034.144-.122a.779.779 0 0 0-.164-.24c-.173-.178-.557-.223-.873-.102-.257.098-.358.245-.358.52 0 .315.124.43.64.588.37.114.429.146.443.245.023.158-.106.239-.382.239-.16 0-.238-.022-.257-.072-.027-.07-.23-.095-.364-.044-.1.039-.046.191.119.33.113.095.191.117.41.117.147 0 .347-.022.443-.049zm3.714-.152l-.215-.957a14.829 14.829 0 0 0-.208-.868c-.027-.027-.069.27-.125.884a5.155 5.155 0 0 1-.07.575c-.012.02.02.046.073.06.062.016.094.065.094.144 0 .224.044.269.267.269.192 0 .207-.009.184-.107zm-2.13-.498c-.017-.28-.043-.642-.059-.803l-.027-.294.23-.014c.222-.014.23-.02.221-.151a.446.446 0 0 0-.03-.156c-.01-.011-.3-.005-.642.013l-.622.033v.158c0 .159 0 .16.232.16h.231l.028.248c.015.137.042.49.059.782l.031.534h.379l-.031-.51zm.985.4a.618.618 0 0 1 .115-.21c.065-.076.102-.246.145-.685.032-.32.07-.658.086-.75.02-.12.013-.152-.025-.116-.054.05-.765 1.752-.765 1.83 0 .022.094.04.208.04.178 0 .212-.015.236-.109zm6.928-.618c-.298-.205-1.134-.682-1.624-.928-1.663-.834-3.222-1.286-5.108-1.479-.743-.076-2.885-.078-3.58-.002-1.881.203-3.515.603-4.685 1.147-.412.19-.433.208-.405.325a.657.657 0 0 0 .046.143c.026.03.89-.097.942-.138.19-.152 1.727-.578 2.724-.756 1.373-.245 3.501-.33 4.887-.195 1.566.152 3.04.542 4.41 1.165.273.125.914.349 1.422.498 1.002.294 1.117.32.97.22z"/></svg>