<svg xmlns="http://www.w3.org/2000/svg" width="64pt" height="64pt" viewBox="0 0 64 64"><path d="M31.793 0C14.234 0 0 14.434 0 32.207c0 17.777 14.234 32.176 31.793 32.176 17.562 0 31.797-14.399 31.797-32.176C63.59 14.434 49.355 0 31.793 0zm.805 8.797a.51.51 0 0 1 .254.035c.027.086.125.137.226.16.211.172.363.418.672.324.207-.12.457-.183.707-.16.238.239.34.625.64.813.036.07.114.164.063.258.75.914 1.64 1.636 2.598 2.273.867.953 1.394 2.246 2.5 3.117.18.04.43.04.574.195-.035.297.227.383.355.618.227.297.555.61.801.875-.058.304.059.625.094.91-.64-.38-1.023-1.098-1.7-1.461-.573-.344-1.175-.61-1.76-.942l-.063.778c-.223-.024-.079.207-.16.324-.165.063-.391.18-.547.035.027-.316-.34-.457-.29-.781-.242-.59-.726-1.14-1.12-1.719-.055-.101-.231-.105-.32-.035 0 .281.015.516-.063.75-.059.07-.172.016-.258 0-.719-1.184-1.324-2.465-2.211-3.508-1.55.387-3.047 1.094-4.68 1.297l-.32-.062c-.055-.133-.348-.098-.258-.293 1.063-.563 2.242-.852 3.14-1.657-.527-.035-1.171.176-1.663-.129.836-.675 1.855-1.136 2.593-1.851.016-.113.106-.149.196-.164zm-5.77 2.176c.106.175.414-.098.414.164.094.093.281.058.29.226-.727.602-.837 1-1.602 1.657.187.398.633.359.96.648.11.176.188.383.098.586l-.289.324c-.836.5-1.754.813-2.629 1.2-.199.038-.508.09-.672-.032.137-.316.165-.684-.066-.91.211-.215.527-.227.676-.484-.715.062-1.438.191-2.086.421-.664.196-1.3.403-1.922.68-.117.133-.344.305-.418.488a40.398 40.398 0 0 0-3.012 1.98c-.226-.21-.25-.546-.449-.776-1 .332-2.09.628-3.14.94-1.149-.015-2.247.208-3.399.192-.3-.03-.68.07-.93-.093-.078-.153.137-.207.227-.262.594-.219 1.148-.516 1.762-.617 1.078-.352 2.171-.383 3.238-.844.312 0 .55-.27.832-.39.547-.173.289-.923.867-.942 1.04 0 2.133-.246 3.14-.484.907-.29 1.848-.797 2.79-1.137 1.113-.602 2.351-1.203 3.555-1.656.609-.008.43-.493 1.058-.586zm-16.09 1.656c.254.039.446.309.64.457.622.476 1.36.875 1.829 1.492-.414.211-.723.86-1.285.488-.219-.183-.32.094-.543.063-.387.02-.438.426-.8.52-.517.195-.934.367-1.509.421-.148-.418-.64-.12-.898-.129-.738.196-1.438.227-2.211.293-.305-.152-.797.164-.961-.195.121-.137.027-.414.223-.488.754-.04 1.496-.25 2.18-.453.023-.278.398-.25.609-.391.18-.203-.168-.336-.032-.55.954-.243 1.782-.817 2.47-1.493a.46.46 0 0 1 .288-.035zm21.313 1.008c.586.246.96.992 1.601 1.136.153.114.414.215.418.454 0 .168-.273.164-.16.359.254.418.567.871.738 1.363-.066.07-.011.235-.128.258-.176-.187-.356-.027-.61-.062-.23.109-.156.351-.062.52.414.812.988 1.562 1.535 2.269.332.418.855.59 1.027 1.105-.094.238-.37.164-.543.293.27.332.563.723.895 1.004v.195c-.239-.062-.387.074-.575-.129-.687-.695-1.472-1.285-2.246-1.785-.12-.332.434-.14.352-.422-.43-.695-1.016-1.41-1.535-2.047-.04-.05-.028-.128-.035-.195.062-.11.293.004.257-.16-.035-.297-.515-.418-.417-.715-.239-.371-.696-.644-1.024-.875-.047-.242.211-.078.32-.195-.035-.254-.394-.293-.32-.555.242-.223.582-.078.863-.195-.09-.434-.355-.86-.574-1.266.016-.027.043-.12.129-.062.05-.094-.02-.246.094-.293zm15.672.715c.375.035.68.343 1.027.484.207.11.453.289.672.36.21.46.777.636.96 1.136.766.824 1.872 1.066 2.567 1.945.059-.039.184-.058.192-.16.527-.02 1.105-.695 1.601-.195.254.281.555.598.61.973.066.101.164.253.289.23.058.082.043.184.066.324l.64.715c-.023.05-.003.102-.066.129-.398-.066-.699-.547-1.12-.293-.259.258-.634.582-1.028.422-.156-.067-.309-.176-.48-.129a5.156 5.156 0 0 1-1.696-1.332c-.293-.02-.707-.004-.996-.164-.5-.274-1.082-.531-1.504-.973-.742-.676-1.637-1.289-2.309-2.078-.293-.02-.617.125-.898-.031-.207-.082-.402-.164-.543-.36.672-.332 1.324-.578 2.016-1.003zm-17.563 1.07c.067.02.133.039.192.066a3.81 3.81 0 0 1-.704 1.004c-.101.133-.05.328-.066.488.18-.023.438-.105.578.098.024.215-.195.363-.258.55-.27.384-.687.743-.832 1.235-.136.254-.32.543-.64.551-.055-.144-.196-.125-.192-.289.23-.277.223-.59.414-.879-.476.027-.879.621-1.472.52-.25.136-.57.183-.899.164.028-.121-.101-.137-.129-.227.192-.18.453-.172.676-.293.59-.058.914-.71 1.442-.812v-.164c.582-.653 1.05-1.407 1.699-1.98a.223.223 0 0 1 .191-.032zm13.973.324c.469.043.77.57 1.219.746.21.297.535-.047.77.164.382.235.71.555.995.91.078.278.254.457.446.68.515.508 1.12 1.027 1.539 1.59.074.043.093.195.03.262-1.105-.582-2.448-.805-3.523-1.657-.273.094-.5.442-.8.356-.13-.14-.235-.18-.387-.29l.066-.097c-.441-.797-.695-1.437-1.445-1.785.055-.074.098-.14.098-.23.437-.239.418-.254.8-.618.079-.015.13-.035.192-.03zm-5.16 2.012c.093.027.226-.035.289.066.074-.054.207.055.355.031.637.516 1.149 1.23 2.051 1.332.348.083.645.32.992.36.09.215.363.238.512.422.73.332.57 1.129 1.027 1.656.856.129 1.723.277 2.563.422.273.258.203.633.418.906.574.485 1.175.942 1.89 1.203.664-.293 1.36-.242 1.989 0 .035.067.648.36.863.453.21.012.473.168.64.262.239.094.512.047.805.098.383.218.735.566 1.121.843.27.172.883-.093.992.356a.857.857 0 0 1-.77.129c-.144-.09-.288-.031-.417-.16-.117.07-.211.148-.352.129-.343-.196-.632-.465-.96-.715-.211-.008-1.442-.078-1.633-.293-.344.012-.692-.09-1.028-.063-.379-.082-1.074-.199-1.187-.164-.64-.093-1.188-.39-1.793-.617-.383-.305-.899-.324-1.281-.648-.414-.149-.746-.215-1.157-.391-.734-.293-1.523-.473-2.21-.973-.07-.203-.387-.297-.352-.52-.164-.073-.399-.12-.45-.323.137-.442.04-.907-.03-1.395-.731-.144-1.473.23-2.083-.39-.43-.294-.797-.57-1.125-.977.34-.293-.015-.77.32-1.04zM18.78 19.773c.184.055.219.254.29.422.23.371.59.54.898.844.008.121.183.219.062.356-.054 0-.125.062-.16.097.293.453.945.418 1.348.715-.055.324-.39.258-.61.36.207.511.989.167 1.22.71-.138.235-.829-.109-.517.391-.164.082-.382.113-.574.129-.047.262.395.36.543.555.356-.297.657.421.996.16.262.172.68.242 1.024.36-.02.066-.094.081-.16.097.043.035.148.078.191.129-.023.043-.227.074-.125.195-.324.121-.676-.227-.996-.035-.41.5.629.457.547.945-.156.07-.047.258-.227.258-.199.031-.37-.211-.543-.195-.082.054-.004.195-.097.261-.305.145-.52-.234-.832-.195-.067.063-.07.117-.16.129-.145.008-.239-.04-.356-.098-.105.075-.082.367-.285.36-.23.007-.414-.22-.578-.328-.028.132-.051.3-.223.293-.168-.043-.293-.032-.387-.196.02-.043.016-.137-.062-.129-.09.059-.223.024-.32 0-.282-.093-.22-.672-.547-.293-.328.27-.692.524-1.121.36-.11-.14-.086-.352-.192-.489-.164.028-.273.188-.418.262-.3-.101-.715.23-.898-.133 0-.093.008-.195-.063-.258-.258.122-.46.43-.738.293-.234-.074-.266-.382-.543-.39-.05-.074-.129-.133-.129-.227.649-.445 1.57-.543 2.211-1.105.258-.04.434-.25.578-.453-.223-.14-.496-.297-.707-.52-.035-.148.09-.125.16-.164.387-.055.836-.156 1.157-.39.05-.126.203-.211.125-.356-.036.137-.301.078-.383.164-.207-.027-.45.184-.64-.035-.09-.094-.169-.125-.161-.258.266-.473.84-.566 1.09-1.008-.102-.027-.114-.113-.13-.195a5.96 5.96 0 0 0 1.442-1.395zm-2.98 7.239c.164.043.273.242.418.293-.051.058.101.125.16.066a.784.784 0 0 1 .512-.098c.035.145.273.075.289.258-.086.149-.137.395-.063.555.477-.277.945-.426 1.41-.715.106 0 .203.094.285.129v.129c.106-.074.305-.04.45-.063.218.082.152.457.16.68.121 0 .129.168.258.129.199-.129.511-.152.77-.098.136-.21-.255-.28-.13-.484.164-.094.356.004.512.031-.117-.426.336-.316.45-.582.222.13.238-.219.48-.066.808.644 1.843.023 2.758.422-.008.132.199.23.128.324-.312.101-.687.09-.96.293.171.18.394.367.382.617-.363.129-.722-.105-1.058-.164-.399.289.422.496.066.812-.336.008-.598-.312-.898-.226l.062.129v.195c-.613.11-.543-.277-1.055-.52-.03.028-.34.079-.257.165.218.254.484.472.703.71.195.032.414-.011.578.098.5-.12 1.152-.207 1.637-.031.125.074.03.16.03.258-.8.156-.788.992-1.347 1.234-.242.168-.5.133-.8.195a25.909 25.909 0 0 0-1.153-.55c-.129.09.067.273 0 .324.129.215.192.539.512.586.129.094-.04.156-.063.258-.187.203-.445.07-.675.03a.763.763 0 0 0-.352-.16c.016.138.176.294.191.423-.097.109-.125.293-.289.293-.382-.102-.402-.52-.703-.715-.086-.196-.183-.34-.289-.52-.172-.054-.039.196-.223.13-.093.26.06.538-.097.78-.356 0-.742-.011-1.09-.132-.3.18-.555.832-1.027.586.023-.094-.133-.176-.192-.196a35.291 35.291 0 0 1-2.5 1.98c-.23.016-.386-.132-.511-.292-.122-.133.02-.32.062-.453.32-.399.547-.829.8-1.235-.433.074-.706.508-1.183.489-.082-.122-.21-.16-.32-.067-.531.606-1.262.219-1.89.684-.165-.094-.41-.16-.419-.39.32-.24.72-.317 1.028-.587-.11-.082-.344-.031-.45.035-.367 0-.996.117-1.187-.324v-.133c.23-.117.496-.004.707-.16-.082-.144-.258-.215-.195-.39.238-.094.46-.079.707-.165-.157-.078-.403-.277-.418-.52 1.265-.034 2.515-.194 3.781-.355.445-.605 1.223-.66 1.637-1.234-.094-.156-.434-.246-.578-.227l-.352.325c-.277.12-.305.511-.707.226-.117-.093-.238-.203-.191-.386-.11.035-.282.222-.48.128-.25-.101-.231-.101-.45-.261.219-.215.562-.242.77-.52l-.352-.387c-.328.012-.688.368-.992.063-.09-.184-.274-.32-.356-.484.922-.227 1.91-.504 2.758-.782.219-.12.402-.226.61-.355a.33.33 0 0 1 .19-.035zm26.058.324c.036.004.09.043.13.066.25.23.34.606.511.91.11.247.172.434.258.68-.238.086-.344-.125-.516-.226-.05.195.153.351.196.55.19.176.515.157.734.23.02.095.035.161-.031.227-.121.086-.36-.02-.48 0l.257.258c-.016.059-.168.117-.258.098-.07.27.363.223.32.52-.12.14-.304-.02-.449 0 .102.277.465.363.578.648-.191.191-.496-.035-.64.195.105.5.761.176.898.617-.238.133-.515.047-.77 0 .028.118-.085.239-.195.227-.261.023-.363-.277-.511-.422-.09-.016-.184.016-.192.098a3.169 3.169 0 0 0 0 .941c-.172.086-.082.488-.351.488-.164-.02-.328-.168-.32-.324-.11-.324.175-.558.03-.875.07-.168-.148-.16-.19-.262-.157.086-.333.293-.548.165-.105-.016-.191-.137-.191-.23l.129-.099c-.09-.125-.434-.105-.356-.355l.227-.129c-.11-.086-.39-.055-.352-.293l.766-.355c.039-.082.07-.125.035-.196-.164.028-.351.125-.516.032-.07-.06-.117-.141-.062-.227.121-.008.219-.14.191-.227.153-.093.313-.066.45-.132l.226-.325c-.074-.101-.191.008-.289-.062-.148-.102-.324-.188-.355-.39.21-.247.632-.032.77-.36.128.012.093-.137.194-.192-.21.043-.457.18-.675 0 .164.012.136-.238.32-.23-.062-.117-.18-.227 0-.29.32-.065.629-.355.738-.651.098-.028.18-.106.29-.098zm7.309 1.625c.156-.02.312.11.45.195.042.203-.005.348.03.551.098.223.2.426.383.586-.015.082-.105.203.032.258.12.008.156.156.195.226.015.114-.063.157-.098.23.055.165.16.36.352.454.25-.043.476.066.707.129.105.543-.649.062-.64.488.183.176-.126.363.093.55.047.087.168.138.226.227-.02.118-.011.258-.16.293a.287.287 0 0 0-.129 0c0 .176.141.32.258.457.29.07.41-.28.703-.097.41.195.594.523 1.059.484.137.067.012.168.094.262-.078.074-.137.168-.223.226-.156-.058-.336.028-.48.067-.094.164.125.156.16.258.117-.051.168.09.258-.032-.04.164.207.086.222.258-.043.117-.265.149-.418.164-.234-.035-.523-.168-.77-.066.141.156.344.254.45.457.465.445 1.168-.316 1.57.289-.054.188-.375.152-.512.262.145.082.254.242.16.39-.062.078-.214.051-.288.063.082.14.343.02.48.133l.066.16c-.086.168-.386.215-.64.195-.04.188-.254.11-.356.227.008.175.274.304.227.55-.117.075-.258.047-.387 0-.242-.113-.347-.578-.64-.484.027.23.32.508.191.746-.156.028-.367.004-.48-.097.03-.227-.192-.31-.254-.454-.102-.011-.172-.101-.258 0 .074.121-.106.368.097.52.09 0 .086.082.16.129.02.117-.023.27-.16.293-.308.047-.363-.367-.675-.36-.043.555-.11 1.036-.192 1.594.356.375.14.985.227 1.363-.36.157.101.833-.48.583a1.577 1.577 0 0 1-.387-.778c-.184.164-.325.465-.29.715-.081.086-.19.137-.32.063-.129-.043-.191-.208-.254-.258.215-.61.535-1.184.575-1.82-.075-.54-.016-1.087-.13-1.622-.179.055-.312.301-.511.16-.129.09-.254.008-.383 0-.203-.062-.098-.324-.226-.453-.184.145-.176.348-.352.489-.137.007-.36.062-.45-.067-.179.082-.26.309-.48.196-.191.007-.328-.231-.191-.391.2-.027.266-.274.383-.356l-.032-.164c-.156-.05-.328.145-.511.098a.279.279 0 0 1-.258-.227l.031-.261c.145-.121.285-.309.387-.52-.223-.062-.238-.262-.258-.484-.05-.086.074-.137.129-.164.395 0 .781-.14 1.09-.293l-.16-.196c.172-.218.476-.226.703-.421a3.177 3.177 0 0 0-.094-.29c-.207.063-.121-.273-.32-.164a.447.447 0 0 1-.48.196.509.509 0 0 1-.16-.293c.19-.367.651-.645.96-.973.191.016.324.035.48.13.07-.024.067-.102.032-.165-.281-.148-.07-.344-.32-.55-.208.034-.313-.223-.45-.294.13-.043.016-.168.098-.226.098-.075.238-.14.32-.196.242-.379.559-.714.832-1.039-.09-.148-.398-.05-.414-.293-.012-.324.485-.215.512-.52-.106-.112-.227-.183-.29-.323.028-.258.36-.153.419-.422.125-.16.023-.39.16-.551zm-23.3 1.95c.222-.06.292.136.413.194.016.395-.437.383-.672.551.153.055.004.274.223.293.137.211-.184.336-.191.582h.03a.423.423 0 0 1-.16.36c-.206-.016-.374.172-.573.195-.04.293.375.191.351.453-.059.11-.016.223-.16.258-.113-.008-.238-.078-.352-.031.059.238.496.261.223.55-.297.04-.625-.058-.96-.093-.138.18-.349.398-.58.289-.206-.102-.42-.196-.67-.196-.114.13-.321.133-.45.262h-.352c-.074.168-.195.297-.355.324.133.13.414.325.226.586-.265.012-.55-.379-.77-.066-.226-.02-.362-.168-.546-.258-.047.172-.016.234-.16.356-.219.027-.578.167-.735-.067-.085.195.082.567-.226.586-.184-.125-.387-.187-.512-.39-.156.109-.215.378-.418.421-.097 0-.242-.152-.351-.03-.293.015-.461-.345-.578-.587-.157.067-.165.336-.383.262l-.352-.293c-.238.066-.43.34-.676.195-.254-.168-.308-.441-.609-.617-.043-.066-.156-.152-.063-.227.48-.558 1.2-.796 1.762-1.265l.32.097c.024.07.13.16.196.29.125-.028.226-.114.32-.192.121.02.293-.039.383.063.062-.075.156.004.191-.098.266-.07.504.008.739.129.191 0 .043-.152.066-.227-.066-.129-.066-.074-.066-.226.18-.188.382-.028.578 0 .191.035.09.21.32.129.61-.184 1.266.101 1.922.132-.074-.132-.215-.285-.16-.421l.16-.036c.016-.101-.094-.191-.031-.293.343-.183.453.184.8.098.043-.129-.101-.34.13-.355.206-.082.398-.016.578-.164-.094-.121-.125-.23-.227-.325.035 0 .004-.125.098-.16.214-.02.453.149.543-.097.074-.168.003-.32-.094-.36-.086-.144.14-.246.285-.226.566-.102 1.074-.133 1.574-.356zm12.5 2.01c.034-.015.073-.007.19.13.231-.028.47.117.704.133.125.086-.176.117 0 .191.11.133.21-.05.226-.063.07.047.094.067.094.16.074.051.277.048.258.196-.184.242.34.309.16.555-.207.187-.465-.047-.61.191-.195.008-.347.188-.511.328-.281-.015-.621.254-.867.094-.332.078-.825-.023-1.055.293a14.01 14.01 0 0 0-1.895-.227l-.253-.226c-.016-.242.355-.324.449-.453.191.172.465.132.672.226.625.012.82.219 1.441.063.203-.106.36-.223.547-.258-.191-.168 0-.305-.29-.36-.21-.12-.007-.226 0-.355.302-.094.622.02.9-.098.394-.191-.208-.254-.227-.453 0 0 .027-.05.066-.066zM24.421 35.13c.418-.035.844.266 1.316.226.516.196 1.2.102 1.633.555 0 .07.082.16 0 .227-.207.101-.375.011-.61.066-.226.05.153.352-.19.387-.239.031-.47-.086-.641.097-.02.145.195.102.097.262-.12.278-.414.13-.578.196.555.367 1.438.414 2.113.613.676-.285 1.352-.012 2.02-.031.086.097.11.234.066.359-.312.258-.843.008-1.187.355.062.192.277.2.289.356-.035.152-.152.23-.29.293.227.137-.01.23 0 .39-.366.278-.944-.074-1.343.262.2.121.399.18.64.192.098.101.15.183.223.293.063.109-.043.128-.097.195-.29-.094-.485.25-.801.129-.223-.102-.422-.047-.64-.031.148.453-.766.125-1.184.03.008.118.055.212.062.36.125.137.325.211.29.422-.087.012-.165.043-.258.031-.375-.578-.86-1.152-1.313-1.687.07-.121.273-.125.32-.293-.035-.34-.289-.352-.289-.649l.13-.097c-.407-.48-.79-1.094-1.477-1.203l-.414-.13c-.086-.163-.29-.261-.29-.488.02 0 .055.024.063 0-.176-.25-.52-.254-.61-.55-.027-.082-.027-.047 0-.13.29-.019.497-.156.77-.03.07-.102.016-.223.195-.231l.383.066c.102-.093-.168-.273.063-.293.601.11 1.226.23 1.797.262.05-.074.18-.086.258-.133-.18-.183-.516-.336-.516-.648zm-12.02.52c.145-.012.38-.079.418.097-.011.23-.191.336-.097.55.289-.218.683.024.996 0 .336-.112.465.376.738.36.098-.101.238-.23.414-.261.102.03.29.082.418.097.11.024.063.196.094.262-.063.05-.23.164-.16.258.125.031.222.105.257.23.043.082-.093.117-.062.227.418-.047.789-.578 1.215-.617.137.101.351.218.324.421.344.028.957.067 1.184-.164.437-.218.691.22 1.152.036-.04-.16.031-.297.066-.458.164-.136.387.09.543-.03.34-.009.559.116.77.355.265.336.473.675.93.812.293.16.308.57.48.781-.082.145-.223.239-.383.192-.113-.055-.25-.137-.387-.129-.07.223-.46.066-.511.36-.008.12-.047.327-.192.421-.355-.094-.789-.32-.96-.617-.122.246.246.691-.098.973-.328.027-.492-.278-.672-.489-.012-.187-.152-.32-.227-.484-.07-.059-.117.008-.191 0-.098.246.027.59-.29.648-.21.008-.327-.214-.48-.257-.097.086-.07.316-.222.355-.192.094-.324-.137-.48-.195-.087-.102.003-.266-.098-.324-.09.078-.243.168-.352.066-.129-.242-.3.082-.48-.035-.13.074-.094.281-.258.324-.184-.012-.375-.074-.45-.258-.09-.238-.023-.52.032-.781-.547.137-1.008.504-1.535.781-.368.082-.446-.277-.805-.36-.078-.144-.3-.265-.254-.452 0-.102.27-.25.094-.324-.246.007-.48.308-.735.097-.074-.472-.68-.058-.77-.52-.132-.16-.378-.03-.577-.097-.172-.102-.196-.336-.29-.488.302-.051.704-.043.93-.227-.449-.39-1.136-.02-1.664-.062-.105-.118-.347-.293-.289-.489.856-.027 1.711-.195 2.594-.261.121-.157.133-.227.32-.325zm-1.183 3.148c.261.074.594.047.832.195l.226.23c-.05.294.36.247.414.551.282.024.586-.359.868-.097.054.316.406.449.48.746.293-.035.379-.48.738-.227.133.016.243.188.383.258.164-.027.121-.223.258-.258.215-.035.594.075.672.258-.442.84-.977 1.692-1.442 2.535-.164.215-.394.375-.48.617-.188.118-.309.23-.547.13-.101-.16-.394.074-.512-.13.29-.539.77-.914 1.024-1.496-.035-.062-.102-.144-.192-.129.028-.187.184-.347.227-.55-.57.386-1.066 1.043-1.73 1.328-.231.066-.391-.16-.547-.29.191-.355.707-.46.77-.91-.005-.18.116-.304.062-.453-.668.418-1.254.887-1.953 1.137-.278.035-.34-.23-.45-.426.192-.312.489-.48.578-.843-.378-.008-.843.422-1.187-.032-.027-.086-.137-.23-.094-.39.133-.137.363-.137.445-.324-.363-.508-1.527.125-1.921-.582-.063-.09.07-.118.097-.165.328-.058.801-.023 1.121-.164-.007-.062-.082-.129-.03-.191.679.055 1.222-.375 1.89-.328zm9.293 1.172c.277-.008.52.195.8.129.301.054.555.172.836.293-.066-.176.122-.258.254-.196v.356c.496.746 1.09 1.949 1.09 1.949.11.277.434.512.64.777-.019.075-.097.125-.19.133-.587.082-.844-.512-1.282-.781-.11-.176-.2-.477-.45-.484-.05.082-.105.039-.16.097.075.403.305.77.29 1.23-.184.094-.363.024-.547-.062-.11-.168-.23-.347-.445-.39-.47-.79-.422-1.711-1.059-2.47.016-.077.023-.105.094-.16 0-.12-.145-.163-.063-.292.075.035.211-.02.192-.13zm25.226.195c.223.004.242.293.77.129.176.047.367.145.64-.066a.422.422 0 0 1 .29.261c-.11.14.16.168.16.29.035.195-.04.269-.196.359-.175.054-.297-.184-.414-.227-.328.336-.11.07-.48.063v-.032c-.586.184-1.215.141-1.766.098-.863.082-1.62.52-2.5.453-.09-.152-.328-.02-.48-.062-.528-.285-1.149-.043-1.57.293-.31.011-.731.238-.899-.133.012-.094-.074-.172-.031-.258.777.094 1.16-.68 1.925-.617.407.105.833.398 1.313.258.313-.172.746-.118 1.09-.29.18-.081.324 0 .512 0 .007-.03-.07-.09-.094-.066l.222-.066c.118.148.29.199.48.226-.007-.07.134-.02.192-.062.032-.074-.058-.059-.093-.13.273.036.379-.25.609-.292.152-.094.242-.129.32-.129zm-28.207.227c.32.027.649.14.77.453-.055.445-.203.91-.094 1.363-.152.074-.36.008-.516-.062-.074-.09-.132-.243-.289-.196-.21.172-.226.489-.511.52-.082.23-.07.511-.32.648-.239-.035-.384-.164-.512-.36.007-.73.543-1.292.48-2.042.344.027.828-.008.992-.324zm1.828 0c.157-.016.235.074.32.16-.027.547.141 1.152-.097 1.754-.035.175.238.14.195.324-.183.238-.199.57-.289.844-.136.457-.058.882-.195 1.363v1.039c-.211.156-.129.344-.191.555-.098 1.008.175 2.008.097 3.05.188.418.285.98.383 1.333.445.093.797.394 1.285.519.106.211.219.477.32.68.985.312 2.055-.157 3.012.457.266.097.395.398.64.52.157.148.544.363.352.679.149.016.215.113.258.262-.02.129-.258.175-.066.324.12.086.203.121.258.258-.04.05-.157.27-.32.195-.173-.023-.141-.25-.321-.258-.219.008-.434.281-.64.063-.184-.137-.102-.461-.387-.485-.371.028-.805.133-1.09-.164-.184-.191-.035-.484-.352-.586-.39-.316-1.11-.156-1.539-.582-.191.094-.34-.125-.512.032-.242-.082-.55.058-.703-.196l-.449-.422c-.203.118-.41.328-.676.164-.105-.16-.242-.351-.125-.55.051-.184.125-.36.223-.52-.094-.207-.129-.367 0-.586.047-.008.012-.273-.16-.226-.149.129-.227.308-.45.293-.12-.04-.175-.13-.222-.23-.016-.25.082-.54.094-.845-.192-.136-.25-.402-.414-.582-.024-.547.507-.77.734-1.136-.047-.133-.46-.211-.223-.422-.074-.133-.363-.102-.418-.324.028-.243-.043-.512.13-.653.156-.008.546.074.417-.258.13-.175-.172-.293 0-.422.09-.007.13-.124.192-.164-.32-.027-.063-.421-.192-.55-.054-.52.594-.582.61-1.04v-.355c-.137-.129-.414-.008-.387-.262.2-.18.234-.562.418-.812.078-.7.246-1.406.32-2.11.055-.046.059-.144.16-.128zm33.172.129c.23-.06.426.093.61.195.109.23.355.355.511.55.98.13 1.922-.035 2.79.13.703.296.89.937 1.538 1.27.25.507 1.122.23 1.508.581-.058.008-.066.059-.066.098.437.566 1.223.87 1.508 1.492-.063.05-1 .059-1.059-.031-.215-.149-.52-.262-.77-.422-.242-.168-.433-.457-.703-.551-1.222-.527-1.671.207-2.886-.035-.172-.246.148-.402.195-.55.176-.063.461 0 .48-.259-.046-.527-.566-.101-.867-.261-.543.05-1.066-.051-1.539-.13-.27-.156-.597-.19-.77-.488-.1-.257-.327-.472-.449-.714-.18.12.31.312.067.292-.191-.218-.633-.242-.64-.582.3-.027.007-.386.35-.359.204-.105.079-.11-.062-.098-.066.079-.12.176-.195.227-.191-.137.023-.21.195-.227.063-.078.133-.144.254-.128zm6.121.94c.54.196 1.098.227 1.637.356.145.141.305.282.32.52l-.129.066c-.5.016-.937-.144-1.41-.195-.144-.074-.402-.105-.449-.293-.035-.121-.082-.352.031-.453zm-41.25 1.462c.16-.043.29.055.418.098.18.25.008.628 0 .94-.293.845-.234 1.77-.863 2.435.016.746.047 1.464-.098 2.242-.14.035-.097.215-.16.324.121.012.258.11.32.164.028.266-.18.45-.226.68-.008 0-.02-.004-.031 0-.16.27-.29.578-.45.812-.3.23-.507.758-1.023.68-.121.058-.273.156-.418.098-.121-.079-.23-.125-.16-.29.539-.335.898-.953 1.156-1.496.067-.047.192-.066.285-.097-.027-.782.133-1.489.098-2.27-.094-.37-.008-.683-.098-1.074.266-.418.785-.645.868-1.07l-.227-.227c.246-.601.45-1.3.61-1.95zm-1.25 6.59v.035c.082.113.07.285.227.324.121.059.254-.031.383-.066.011-.02.02-.043.031-.063.039-.14.098-.324-.031-.39-.117-.098-.246-.082-.383-.067-.012.145-.11.192-.227.227zm-10.64-4.317a1.1 1.1 0 0 1 .32 0c.223.11.465.16.64.356.048.261.415.273.29.554-.13.145-.387.008-.48.192-.43.289-1.075.383-1.505.164-.007.144-.18.14-.195.293-.105.094-.223.039-.352.031-.222-.113-.144-.398-.19-.617.081-.113.226-.023.35-.031.02.11.11-.407.45-.422a.984.984 0 0 1 .672-.52zm2.949 2.47c.07.003.125.007.191.03.266.102.551.207.77.422 1.172 0 2.398.051 3.527.422.594.11.867.102 1.442.453.015.192.285.168.226.39-.144.184-.242.38-.449.325-.66-.223-1.016-.36-1.828-.227-.102.024-.27.008-.32.13.043.19.28.316.128.519-.156.191-.457.3-.707.422-.191.054-.449.144-.64.035-.028-.172-.137-.277-.32-.23-.711.019-1.356.097-2.083.035-.265-.008-.988 1.05-1.316 1.297-.328.25-.816-.485-.512-.68.305-.192.762-.567 1.09-.75.07-.145-.058-.356.031-.485.618-.128 1.34.09 1.926-.066-.203-.102.086-.559-.355-.453-.164.016-.453.043-.543-.129-.035-.094.011-.215-.098-.262-.41-.066-.773.246-1.121.13-.137-.243-.281-.376-.543-.552 0-.14.102-.199.16-.324.469-.062.88-.48 1.344-.453zm32.371.55c.55-.035.3.367.8.258.544-.059.962.668 1.317 1.172.7.78 1.18 1.859 1.953 2.69.282.161.512.36.805.49.172.034.047.277.031.39-.46.207-.996.156-1.41-.13-.433.06-.77-.214-1.09-.456-.32.387-.781.437-1.09.844-.765-.04-.847-1.008-1.058-1.524-.383-.367-.79-.863-.707-1.398l.258-.387c-.262-.219-.621-.223-.801-.422-.528-.074-1.028.106-1.57-.035-.137-.367-.176-.793-.512-1.07 1.031-.172 2.047-.34 3.074-.422zm-17.531.777c.152-.004.304-.004.449.035.336.164.813.262.93.68.054.262.027.54.062.781.473.274.746.809 1.188 1.2 0 .16.215.25.129.39-.114.164-.325.188-.48.129-.786-.84-1.977-.996-2.981-1.363-.403.066-.825.066-1.188-.067-.113-.21-.2-.53-.418-.648.04-.04.047-.2.067-.293.308.102.765.129 1.058.098.055-.114-.152-.23-.035-.356.29-.379.758-.574 1.219-.586zm13.656.098l.191.555c-.43.367-.761.894-1.218 1.199-.184.21-.41.222-.61.39-.144-.058-.12-.148-.191-.261.61-.543 1.195-1.239 1.828-1.883zm-9.457.52c.41.081.773.257.992.617.238.18.426.37.61.586.382-.356.96-.868 1.605-.649.711-.105 1.691-.121 2.465.258.121.035.195.172.355.164.09.203.309.152.352.355.098.23.101.532.289.746.293.157.785-.062.93.325.71-.012 1.41-.082 2.05.39.45.094.895.403 1.153.813.426.23 1 .332 1.441.55.25-.144.528-.324.836-.195.14.082.328.16.383.325-.016.101-.035.203-.129.261-.082.028-.191.04-.254-.031-.348 0-.426.45-.738.355-.567-.214-1.2-.402-1.762-.648-.25-.16-.293-.488-.578-.617-.453-.254-.938-.203-1.473-.227a.563.563 0 0 1-.066.29c-.242.136-.555-.048-.8-.192-.509.32-1.11.105-1.669.289a.51.51 0 0 1-.285.328c-.36-.117-.402-.55-.484-.879l.066-.195c-.266-.055-.41-.207-.547-.422-.18 0-.441-.062-.543.129-.012.148.14.324-.031.39-.04.11-.148.196-.258.165-.316-.266-.64.43-.898-.098l-.032-.098c-.136-.062-.257.14-.382.032-.082-.305-.38-.332-.641-.356l-.164.227c.145.136.289.21.164.39-.219.211-.293.559-.578.617l-.258-.066c-.07.086-.176.117-.289.129-.336-.344-.18-.648-.414-1.07l.125-.196-.125-.293c-.11.11-.262.305-.48.262-.22-.273-.118-.785-.61-.746.043-.203-.2-.457.031-.586-.175-.41-.656.188-.8-.293-.016-.187-.012-.531.16-.648.37-.243.797-.473 1.281-.489zM8.879 52.175c.336-.102.43.277.672.355.02.082.14.18 0 .262-.172.148-.328.125-.512.031-.219-.136-.219-.39-.16-.648zm4.07.648c.317-.02.696.11 1.024.13.187.05.355.183.515.26.778.028 1.63-.077 2.34.032.11.117.29.11.45.129l.542.488c.176-.281.563-.367.899-.324.32.168.738.078 1.12.195.2.012.294-.152.45-.261.457-.047.98.109 1.25.488.137.223.516.336.45.648-.075.11-.184.2-.321.164-.402-.113-.555-.726-1.059-.683-.172.113-.355.265-.578.293.059.11.164.273.067.422-.172.191-.403.347-.578.52-.364.16-.622.577-1.028.616-.12-.18-.18-.484-.383-.586-.007-.156-.191-.183-.32-.19-.043-.169-.246-.411-.066-.556-.387-.238-.649-.625-1.09-.68-.125.387-.586.102-.735.454.137.203.504.222.575.52-.118.074-.258.273-.414.261-.43-.195-.977-.59-1.508-.555l-.063-.16c-.531.086-1.105.196-1.636.324l-.29.454c-.09 0-.207.066-.351 0-.035-.239-.09-.579.066-.813-.082-.293.235-.41.352-.582.082-.082.27-.098.32-.227-.207-.203-.277-.367-.289-.683.094-.043.18-.09.29-.098zm34.68.293c.11 0 .223-.012.351.031l.512.164c.34.063.89-.007 1.028.454.664.203 1.406.34 2.05.617.465.078.14-.082.512.226.059.141.219.18.16.36-.265 1.129-2.418-.395-3.62-.067-.044.168-.25.141-.384.164-.472-.16-.531-.773-.93-1.039-.081-.27-.488-.125-.546-.422-.07-.109-.063-.277-.063-.39.34.02.598-.098.93-.098zm-6.121 1.008a.772.772 0 0 1 .61.387c.007.12-.075.148-.161.195-.223.027-.348-.148-.418-.324zm-13.238.71c.183-.007.355.15.48.263a.906.906 0 0 1-.418.52c-.184.066-.293-.18-.383-.294-.05-.156.035-.277.13-.422a.292.292 0 0 1 .19-.066zm0 0" fill="#211e1e"/></svg>