<svg xmlns="http://www.w3.org/2000/svg" width="80" height="80"><path d="M15.785 71.805C7.75 65.693 2.285 56.863.45 47.025c-.588-3.152-.603-10.737-.028-13.9 1.09-5.991 2.964-10.688 6.168-15.451 1.72-2.557 2.415-3.37 5.4-6.31C17.973 5.468 25.4 1.87 34.723.346c6.809-1.112 16.243.51 23.049 3.96 5.744 2.914 11.503 7.573 15.177 13.199 4.286 6.56 6.784 14.622 7.034 22.473.197 6.175-1.37 12.623-4.395 17.996-4.01 7.124-11.964 14.447-17.333 17.28-5.752 2.86-12.113 4.972-18.455 4.726-8.443-.328-18.66-4.316-24.015-8.176zm18.646-5.179c1.969-4.074 6.216-10.593 8.984-13.788 2.143-2.475 1.336-2.525-2.38-.148-6.543 4.186-11.778 8.485-13.945 11.454-1.098 1.504-.875 1.772 2.505 3.01 3.58 1.311 3.969 1.269 4.836-.528zm12.939 1.13c1.982-.632 3.43-1.297 3.43-1.574 0-.149-.322-.795-.715-1.436-1.403-2.286-2.665-7.342-2.715-10.873-.012-.846-.13-1.816-.261-2.155-.19-.491-.371-.204-.881 1.405-1.297 4.09-1.735 6.66-1.758 10.302-.012 1.975.078 3.838.2 4.139.258.632 1.13.694 2.7.193zm12.95-8.002c2.316-2.516 2.33-2.427-.597-3.785-2.533-1.175-5.646-3.08-8.226-5.033-1.557-1.18-1.727-.769-.556 1.345 2.295 4.144 6.307 8.957 7.467 8.957.3 0 1.161-.668 1.912-1.484zm-40.758-4.007c5.543-3.75 11.204-5.838 19.46-7.177 1.618-.263 3.068-.605 3.222-.76.307-.31.178-.344-3.993-1.067a319.278 319.278 0 0 1-4.648-.842c-1.022-.197-4.552-.428-7.843-.513-4.957-.13-6.357-.065-8.151.375-3.04.745-5.54 1.907-5.54 2.575 0 1.605 3.82 9.152 4.631 9.152.158 0 1.446-.785 2.862-1.743zm46.055-6.883c.792-.16 1.032-.43 1.433-1.618.49-1.45.648-3.854.278-4.227-.112-.113-.367-.07-.567.098-.606.507-4.511 1.913-6.975 2.51-1.279.31-3.614.664-5.19.787-2.488.194-2.867.298-2.867.793 0 .416.316.624 1.162.769.64.109 2.069.385 3.176.613 2.113.436 7.923.603 9.55.275zm-21.944-4.807a.312.312 0 0 0-.31-.312c-.17 0-.31-.13-.31-.29 0-1.802-10.001-13.34-14.562-16.8-3.523-2.671-9.093-4.868-10.888-4.294-1.026.328-4.33 5.665-5.056 8.167-.266.916.38 1.229 3.085 1.499 5.037.502 12.774 2.975 17.661 5.644 3.966 2.166 4.98 2.787 5.41 3.315.509.623 4.347 3.357 4.738 3.374.128.005.232-.13.232-.303zm9.465-1.561c6.525-4.421 12.845-10.35 12.845-12.05 0-.79-1.944-4.63-3.269-6.459-1.218-1.68-1.907-1.88-2.16-.624-.87 4.295-3.357 10.018-6.06 13.945-.924 1.341-1.968 2.915-2.32 3.498-.352.582-.945 1.385-1.317 1.784-.372.4-.677.965-.677 1.256 0 .608.209.512 2.958-1.35zm-5.767-1.562c.013-.602.156-1.586.317-2.187.399-1.49 1.253-10.048 1.253-12.558 0-2.578-.863-10.188-1.346-11.87-.326-1.135-.521-1.324-1.757-1.707-1.803-.558-7.04-.878-9.691-.591-1.784.192-2.08.311-2.08.837 0 .338.358.994.795 1.46 1.834 1.953 4.898 7.11 6.628 11.153.367.86.799 1.843.96 2.187.889 1.908 2.448 7.385 3.375 11.863.344 1.658.721 3.171.84 3.364.294.48.677-.576.706-1.951z"/></svg>