<svg xmlns="http://www.w3.org/2000/svg" width="64" height="64"><path d="M30.747 62.977c-4.64-.217-8.753-1.294-12.827-3.359-4.665-2.363-8.764-6.004-11.69-10.385a31.51 31.51 0 0 1-3.358-6.607C.912 37.25.484 31.49 1.621 25.806c.843-4.217 2.66-8.367 5.216-11.92a31.172 31.172 0 0 1 14.54-11.017 31.136 31.136 0 0 1 21.686.162 32.21 32.21 0 0 1 5.984 3.07A31.01 31.01 0 0 1 59.71 18.107c.6 1.2 1.001 2.12 1.388 3.177a31.15 31.15 0 0 1 1.797 13.3c-1.22 14.95-12.812 26.76-27.74 28.26-1.353.135-3.18.191-4.407.133zm2.76-2.428c5.075-.226 8.438-1.182 10.268-2.922.511-.485.792-.85 1.08-1.405.218-.42.221-.434.224-.868.004-.733-.217-1.174-.963-1.923-.337-.338-1.063-.906-1.159-.906-.01 0-.008.112.003.248.024.293-.08.695-.253.975-.86 1.395-3.82 2.44-7.97 2.814-.9.081-3.378.11-4.356.05-2.734-.168-4.91-.587-6.592-1.27-1.188-.483-1.934-1.037-2.296-1.705-.154-.285-.162-.324-.162-.753 0-.345-.014-.447-.059-.43-.032.012-.239.141-.46.287-.726.478-1.525 1.378-1.716 1.933-.055.161-.082.377-.082.658 0 .386.014.447.17.777.228.48.404.726.844 1.185.966 1.006 2.313 1.72 4.313 2.285 1.936.547 4.22.848 7.497.986l.463.022a29.7 29.7 0 0 0 1.206-.038zm1.346-4.843c3.282-.315 5.83-1.079 6.848-2.053.266-.255.432-.553.433-.777.003-.333-.486-.918-.998-1.194-.293-.158-1.342-.517-2.619-.895-1.8-.533-2.982-.978-3.453-1.3-.483-.33-.58-.585-.656-1.705l-.028-.406h-4.676l-.001.128c0 .07-.021.378-.047.684-.075.908-.252 1.162-1.088 1.558-.52.246-1.646.654-2.416.876-2.36.68-3.056.967-3.589 1.485-.534.52-.561.95-.092 1.46 1.006 1.092 4.038 1.952 7.766 2.203.904.061 3.717.022 4.616-.064zM33.68 32.985l-.011-12.721h-3.061l-.012 12.72-.012 12.722h3.108l-.012-12.721zm-23.04 11.144a9.153 9.153 0 0 0 1.954-.374c1.654-.54 3-1.665 3.764-3.147.377-.73.564-1.317.659-2.068l.03-.232-.225.236c-.783.827-2.413 1.327-4.909 1.507-.934.068-3.223.028-4.175-.073-2.695-.286-4.608-.852-4.99-1.478l-.089-.146v.13c0 .413.303 1.43.608 2.036a6.234 6.234 0 0 0 2.175 2.456c1.362.9 3.235 1.316 5.199 1.153zm44.436 0c1.813-.158 3.287-.774 4.413-1.845 1.055-1.004 1.67-2.205 1.92-3.744l.03-.185-.19.216c-.324.368-.922.641-2.012.918-1.717.436-3.731.635-5.993.591-2.331-.045-3.89-.32-5.074-.896-.41-.2-.593-.321-.823-.546l-.296-.288v.155c0 .436.27 1.338.592 1.982a6.283 6.283 0 0 0 2.865 2.865c1.285.645 2.904.92 4.568.776zM9.265 39.014c.055-.085.131-1.702.405-8.536l.338-8.431-.098-.098a.235.235 0 0 0-.386.066c-.037.088-.696 15.872-.695 16.671 0 .198.023.31.073.36.107.106.285.09.363-.032zm46.11-.078c.077-.084.06-.494-.356-8.491-.423-8.127-.44-8.406-.533-8.498-.113-.113-.306-.088-.38.049-.03.058.095 2.764.392 8.47.387 7.417.446 8.397.515 8.473.101.112.26.11.363-.002zm-51.69-.979c1.145-.472 2.37-.733 3.947-.84.908-.063.87-.046.872-.4v-.15H8.17c-.872.002-2.128.164-3.097.4-.67.164-1.678.508-1.885.644a.254.254 0 0 0-.006.415c.131.092.105.096.504-.069zm57.237.048c.096-.096.117-.214.056-.311-.057-.09-.585-.312-1.239-.52-1.002-.32-2.179-.525-3.391-.588l-.609-.032.023.25c.013.138.026.253.029.257.003.004.326.03.718.058 1.416.103 2.638.357 3.671.763.293.115.56.211.591.213.032.001.1-.039.151-.09zm-44.355-.056c.082-.081.068-.29-.026-.373-.044-.04-.31-.146-.591-.238-1.409-.459-2.989-.7-5.033-.767-.574-.019-1.05-.03-1.058-.024a1.46 1.46 0 0 0-.04.263l-.027.253 1.061.03c2.022.056 3.921.35 5.074.787.338.129.557.152.64.07zm31.622-.086c1.377-.471 3.02-.718 5.14-.772l1.103-.028-.013-.26-.014-.259-.789.014c-2.33.042-4.282.332-5.697.846-.47.17-.566.278-.431.483.1.153.193.15.701-.024zm-31.638-1.201a.26.26 0 0 0 .062-.22c-.012-.072-1.528-4.111-3.369-8.977-2.96-7.824-3.348-8.877-3.348-9.103v-.256h-.324v.278c0 .25-.308 1.136-3.137 9.033a3028.219 3028.219 0 0 0-3.174 8.884c-.03.102-.016.154.067.25.141.165.333.124.42-.09.032-.082 1.351-3.759 2.93-8.17l2.87-8.022.014.542.013.542h.321v-.588c0-.323.013-.575.027-.56.015.014 1.422 3.717 3.128 8.227 1.877 4.965 3.133 8.225 3.183 8.26.116.086.222.075.317-.03zm31.28.051c.083-.052-.035.254 3.283-8.53l2.966-7.85.023.522.023.52h.325l.023-.586.024-.587 2.922 8.166c3.15 8.804 2.99 8.395 3.264 8.241.067-.037.128-.11.136-.162.007-.052-1.417-4.09-3.166-8.972-2.945-8.222-3.18-8.9-3.18-9.173v-.295l-.174.015-.174.014-.013.389-.014.389-3.338 8.828c-1.835 4.855-3.337 8.85-3.337 8.876 0 .079.178.235.266.234a.316.316 0 0 0 .141-.039zM34.018 18.58c.363-.542 1.13-1.35 1.662-1.75 1.534-1.15 3.429-1.48 5.296-.92.862.26 1.741.757 2.64 1.494.784.645 1.049.83 1.51 1.052.84.403 1.374.512 2.333.472 1.172-.048 1.77-.247 4.467-1.484.473-.218 1.042-.46 1.264-.538l.403-.142V17.967h1.344l.11-.22c.382-.766.572-1.61.486-2.162-.099-.642-.447-.957-1.055-.957-.237 0-.386.044-.988.294-1.783.74-3.39 1.214-4.744 1.4-.412.058-.762.072-1.346.055-.888-.025-1.192-.086-1.74-.349-.287-.138-.42-.244-.765-.609-.924-.978-1.512-1.486-2.365-2.04-.938-.61-1.97-1.051-2.962-1.265-.579-.125-1.933-.148-2.466-.043-1.731.342-3.377 1.432-4.775 3.164l-.291.36-.326-.402c-1.335-1.647-2.888-2.695-4.558-3.076-.514-.118-1.561-.163-2.11-.091-1.165.152-2.436.647-3.549 1.383-.77.51-1.175.85-1.994 1.682-.832.845-1.015.971-1.678 1.164-.436.126-1.67.174-2.345.091-1.357-.167-3.271-.728-4.935-1.446-.546-.236-.595-.248-.973-.249-.346 0-.419.015-.564.114-.214.147-.384.411-.455.708-.116.485.047 1.347.404 2.127l.168.367H10.45l.013-.597.013-.597.348.115c.192.063.807.325 1.369.58 2.687 1.226 3.29 1.421 4.5 1.461 1.353.045 2.308-.318 3.53-1.34 1.281-1.072 2.423-1.65 3.7-1.87.53-.091 1.513-.09 2.036 0 1.189.209 2.315.793 3.248 1.687.46.442 1.002 1.094 1.2 1.445l.102.183 1.604-.001 1.603-.002.302-.45zm-1.763-5.922c.286-.146.545-.388.756-.71.427-.648.634-1.425.634-2.376 0-.951-.207-1.728-.634-2.377-.339-.514-.722-.774-1.2-.813-.608-.049-1.177.39-1.57 1.21-.576 1.2-.576 2.758-.001 3.957.256.535.588.91.971 1.094.241.117.32.133.58.116.167-.01.375-.056.464-.101z"/></svg>