<svg xmlns="http://www.w3.org/2000/svg" width="64" height="64"><path d="M30.079 62.966c-6.08-.4-11.864-2.527-16.654-6.128-1.677-1.26-3.946-3.407-5.19-4.91-3.066-3.706-5.155-7.791-6.284-12.292-1.35-5.378-1.262-10.853.257-16.21.989-3.485 2.743-7.017 4.944-9.955 1.664-2.22 4.053-4.612 6.273-6.277C23.3-.216 36.728-1.03 47.454 5.133c2.409 1.384 4.353 2.886 6.448 4.983 2.387 2.388 4.066 4.657 5.576 7.532 4.625 8.811 4.695 19.486.183 28.36a31.484 31.484 0 0 1-9.19 10.89c-4.578 3.414-9.955 5.463-15.771 6.009-.963.09-3.627.124-4.621.06zm15.227-4.092l-.242-.248H18.753l-.242.248-.242.248h27.28l-.243-.248zm-26.764-26.55V6.296l-.251-.351c-.139-.193-.264-.351-.28-.351-.015 0-.027 11.994-.027 26.653V58.9l.279-.274.28-.274V32.324zm27.152-13.369l-.015-13.32-.233.35-.233.351v52.006l.233.238.233.238.015-13.271c.009-7.3.009-19.266 0-26.592zM30.39 52.765l-.274-.28H26.63c-3.847 0-3.501-.034-3.868.388l-.148.17h8.049l-.274-.278zm10.16-.002l-.29-.278h-6.94l-.225.249c-.123.136-.224.262-.224.279 0 .017 1.794.03 3.985.03l3.986-.002-.291-.278zm-7.782-.16l.227-.285V35.96l-.23-.236c-.126-.129-.251-.235-.279-.235-.027 0-.049 3.941-.049 8.758 0 4.817.023 8.732.051 8.7.029-.033.154-.188.28-.345zm-1.835-12.888l-.016-4.407-.263.25-.264.252v16.459l.264.306.263.308.016-4.38c.009-2.41.009-6.364 0-8.788zm-8.05 4.26l-.002-8.268-.244-.279-.245-.279v17.616l.246-.262.247-.26-.002-8.268zm18.114 0v-8.758l-.249.242-.248.243v16.535l.225.248c.123.137.235.249.248.249.013 0 .024-3.942.024-8.759zm-11.847 7.536c0-.024-.104-.15-.23-.279l-.23-.235h-4.296l-.196.244c-.108.135-.197.26-.197.28 0 .018 1.159.034 2.575.034 1.415 0 2.574-.02 2.574-.044zm10.172 0c0-.024-.103-.15-.23-.279l-.23-.235H34.504l-.196.244c-.108.135-.196.26-.196.28 0 .018 1.172.034 2.605.034s2.605-.02 2.605-.044zm-9.738-7.527v-7.386l-.28.23-.278.228V50.85l.221.26c.123.142.248.259.28.259.034 0 .057-2.92.057-7.385zm4.49 7.022l.224-.269V37.139l-.23-.235c-.126-.13-.252-.235-.279-.235-.027 0-.05 3.313-.05 7.362 0 4.406.023 7.34.057 7.304.03-.033.156-.18.279-.329zm-9.887-7.056v-6.816l-.245-.28-.245-.278-.003 7.364-.003 7.364.248-.269.249-.27V43.95zm15.445-.006v-7.362l-.248.242-.248.242v13.77l.23.236c.126.13.237.235.248.235.01 0 .018-3.313.018-7.363zm4.652-4.95l-.274-.278H42.112l-.248.224c-.136.123-.248.249-.248.279 0 .03.66.055 1.47.055h1.47l-.273-.28zm.558-7.779l-.03-1.514-.264.342c-.264.341-.264.342-.264.876v.534l-.31-.192c-.253-.158-.395-.199-.767-.223-.498-.032-.793.038-1.171.276l-.233.146-.003-.574-.002-.575-.24-.265-.24-.265-.036 1.444c-.02.793-.035 1.513-.034 1.598.002.085.018 1.52.035 3.188l.03 3.033.245-.239.245-.239v-4.318l.357.203c.325.184.403.202.884.202.474 0 .562-.02.883-.196l.357-.195v4.193l.264.313.263.312.031-3.175c.017-1.746.017-3.857 0-4.69zm-1.47 5.888c.147-.282.12-1.083-.043-1.332-.155-.237-.405-.196-.552.091-.15.29-.127 1.074.038 1.325.16.244.407.207.558-.084zm-14.346-.465l.273-.28H26.65c-1.457 0-2.649.02-2.649.045 0 .024.104.15.23.279l.23.235h4.291l.274-.28zm10.06.05c.13-.127.236-.253.236-.28 0-.027-1.186-.05-2.636-.05-1.45 0-2.636.014-2.636.03 0 .015.118.14.263.277l.264.249 2.137.001 2.137.002.236-.23zm-8.572-1.477l.274-.279h-4.045c-2.224 0-4.044.02-4.044.044 0 .024.103.15.23.279l.23.235H30.238l.274-.279zm9.986 0l.274-.279h-4.137c-2.354 0-4.138.024-4.138.055 0 .03.112.156.248.279l.249.224h7.23l.274-.279zm-9.986-3.79c0-.02-.086-.146-.191-.28l-.191-.24h-7.164l-.197.244c-.108.134-.196.26-.196.279 0 .019 1.786.035 3.97.035 2.183 0 3.97-.017 3.97-.038zm10.172.002c0-.019-.09-.144-.201-.278l-.202-.242-3.533-.002h-3.532l-.236.229c-.129.126-.235.252-.235.28 0 .026 1.786.049 3.97.049 2.183 0 3.97-.016 3.97-.036zM30.872 21.07l-.018-8.001-.17-.482c-.205-.579-.397-.895-.81-1.33-.581-.616-1.527-1.098-2.516-1.285-.723-.136-.7-.142-.679.16l.02.257.552.112c.937.189 1.566.49 2.151 1.032.415.384.761 1.01.863 1.56.04.212.062 3.47.062 8.926v8.592l.264.342.263.341.018-1.111c.01-.611.01-4.712 0-9.113zm2.059 1.055c.003-7.181.018-8.628.092-8.98.207-.976.874-1.798 1.846-2.274.524-.256 1.116-.438 1.426-.438.163 0 .173-.015.173-.28 0-.324.003-.323-.652-.186-1.291.27-2.458 1.11-2.98 2.146-.42.835-.398.268-.399 10.167v8.962l.245-.279.245-.279.004-8.56zM22.78 30.592c.096-.142.104-.802.105-8.715 0-9.322-.017-8.837.352-9.576.44-.882 1.702-1.72 2.781-1.847l.34-.04v-.551l-.264.04c-1.728.267-3.043 1.263-3.568 2.701l-.17.464-.016 9.044-.017 9.043.176-.205c.097-.112.224-.274.28-.358zm18.14-10.174l-.017-7.536-.158-.404c-.338-.867-.924-1.512-1.793-1.975-.524-.279-1.364-.543-1.833-.576l-.31-.023v.489l.426.079c1.555.287 2.58 1.04 3.008 2.21l.163.448.018 8.745.017 8.744.23.237.232.236.016-1.569c.01-.863.01-4.96 0-9.105zm3.37 9.412l.241-.263-.744-.018a38.38 38.38 0 0 0-1.487 0l-.742.018.243.263.244.264h2.004l.241-.264zm-14.722-8.014c.017-8.93.03-8.581-.333-9.199A2.966 2.966 0 0 0 27.55 11.3c-.444-.137-1.28-.164-1.748-.056-.825.19-1.598.8-1.947 1.539l-.195.41-.016 8.42-.016 8.421 2.962-.016 2.963-.016.016-8.185zm10.049-.204l-.017-8.42-.139-.301a3.018 3.018 0 0 0-1.634-1.535c-.512-.206-1.518-.238-2.085-.066-1.06.322-1.814 1.118-2.003 2.116-.07.37-.09 16.515-.021 16.585.023.022 1.363.04 2.978.04h2.937l-.016-8.42zM45.304 5.61c.087-.127.157-.253.157-.279 0-.026-6.128-.048-13.618-.048H18.224l.2.28.201.279h26.521l.158-.232z"/></svg>