<svg xmlns="http://www.w3.org/2000/svg" width="64pt" height="64pt" viewBox="0 0 64 64"><path d="M30.207 63.535a32.56 32.56 0 0 1-17.3-6.277c-1.25-.93-2.145-1.703-3.454-3-2.543-2.508-4.277-4.844-5.898-7.922-4.426-8.441-4.735-18.594-.836-27.352a32.55 32.55 0 0 1 3.668-6.207c1.73-2.28 4.215-4.73 6.52-6.437 9.202-6.824 21.515-8.254 32.09-3.73 2.866 1.222 5.398 2.769 7.898 4.812.953.781 3.218 3.016 4.003 3.953 3.184 3.797 5.36 7.996 6.528 12.602 2.242 8.812.629 18.02-4.473 25.539-1.187 1.754-2.289 3.062-3.992 4.742-1.723 1.703-3.059 2.793-4.871 3.988-5.914 3.883-12.785 5.711-19.883 5.29zm6.938-3.172c.074 0 .16-.066.207-.156.039-.09.207-.223.375-.305.3-.14.312-.156.328-.445.015-.168-.008-.305-.04-.305-.199 0-1.062.2-1.226.282-.348.18-.621.671-.363.671.05 0 .144.07.207.16.082.11.156.15.246.13.07-.016.187-.032.266-.032zm-.461-1.586c.144-.086.359-.191.48-.234l.223-.078-.254-.121c-.14-.074-.473-.164-.73-.215-.41-.07-.489-.066-.512.004-.016.054-.157.226-.309.387-.363.382-.367.472-.008.421.149-.015.332-.007.406.024.168.066.395.008.704-.188zm-9.61-.574c.09-.031.278-.215.418-.402.242-.317.258-.352.2-.59a2.882 2.882 0 0 1-.06-.48c-.003-.305-.097-.38-.491-.38a3.913 3.913 0 0 1-.766-.097c-.484-.11-2.102-.106-2.137.004-.015.043.078.058.235.043.191-.02.328.02.543.14.394.23.492.383.449.707l-.04.262.555.363c.747.489.836.524 1.094.43zm12.946-1.297c-.016-.843-.06-1.445-.11-1.445-.012 0-.125.043-.25.098-.168.066-.242.148-.273.273-.09.395-.18.64-.387 1.008-.125.215-.223.414-.223.437 0 .051 1.04.535 1.164.535.079.004.09-.132.079-.902zm-10.055.524c.105-.059.117-.11.082-.332a2.167 2.167 0 0 0-.063-.285 2.409 2.409 0 0 0-.336-.055c-.375-.047-.382-.04-.449.582l-.039.418.34-.133c.188-.07.395-.16.465-.195zm-7.723-.27c.102-.187.172-.402.16-.492l-.023-.156-.887-.016c-.484-.012-.887.008-.887.035 0 .028.11.117.243.192.136.074.43.277.664.449.226.176.445.32.48.32.035.004.149-.148.25-.332zm20.637-.46c.101-.477.144-.54.504-.7.488-.23.703-.2 1.082.152.219.2.289.153.148-.105-.156-.305-.12-.52.13-.832.124-.156.245-.36.265-.445a.826.826 0 0 1 .5-.583l.254-.113-.254-.066c-.145-.035-.297-.078-.446-.11-.292-.07-.667-.324-.808-.55-.188-.305-.172-.75.035-.996.23-.258.715-.41 1.2-.372.538.047.726.184.995.73.258.517.38.575.606.294.117-.152.12-.184.039-.274a2.013 2.013 0 0 1-.234-.421 2.272 2.272 0 0 0-.317-.504 2.514 2.514 0 0 1-.324-.461c-.137-.242-.14-.285-.059-.434.13-.242.383-.344.836-.344h.39l-.042-.28c-.024-.173-.012-.333.035-.423.098-.183.031-.648-.125-.836l-.117-.144-.348.117c-.289.098-.449.113-.91.07-.64-.05-.648-.058-.715-.617l-.039-.36.262-.218.262-.223-.121-.199-.126-.195-.605.496c-.336.273-.781.68-.988.906-.957 1.024-2.196 2.723-2.297 3.149-.09.39-.078 1.066.02 1.027.699-.262.765-.273.859-.145.14.188.11.41-.11.832-.234.465-.398.645-.668.727-.175.063-.199.094-.18.25l.032.18.262-.086c.273-.094.648-.07.8.05a.55.55 0 0 1 .118.254c.05.223-.117.532-.266.477-.059-.027-.184.105-.375.39l-.289.43.156.696.352.054c.191.024.36.059.379.078.086.086.175-.039.242-.324zm-6.871-.794c0-.113-.125-.316-.196-.316-.085 0-.078.215.016.305.094.097.18.101.18.011zm-13.645-.379c.239 0 .242 0 .242-.254 0-.207.02-.257.118-.257.21 0 .71.175.886.312.227.176.797.176.797 0 0-.031-.129-.254-.285-.5-.254-.383-.316-.445-.531-.484a1.864 1.864 0 0 0-.805.004c-.308.082-.613-.02-.906-.297l-.27-.262-.695-.008c-.578-.004-.695.016-.695.09 0 .05-.02.203-.04.332-.034.207-.019.25.114.305.086.039.203.176.27.304.316.657.335.68.632.727.157.02.426.027.602.016.18-.016.433-.028.566-.028zm7.63-.183c.038-.082.241-.262.448-.403.305-.203.418-.246.59-.222l.207.039-.093-.188c-.145-.277-.313-.293-.665-.062-.261.172-.343.195-.562.16-.36-.055-.535-.188-.582-.438-.047-.234.047-.648.187-.832.082-.117.04-.18-.55-.824a45.803 45.803 0 0 1-1.493-1.77c-.687-.859-.87-1.054-.976-1.027-.07.016-.328.059-.567.098-.503.078-.527.07-.773-.383l-.176-.312.262-.371c.14-.207.254-.43.254-.496 0-.118-.492-.766-.82-1.07-.122-.118-.344-.22-.664-.298-.606-.152-1.579-.234-1.641-.133-.024.04.031.18.129.32l.176.247.273-.16c.148-.082.352-.157.445-.157.145 0 .2.051.309.297.164.371.125.672-.18 1.38-.117.284-.218.57-.218.632 0 .078.113.16.34.262.546.238 1.011.867 1.011 1.387 0 .203-.02.238-.2.304-.116.04-.237.059-.359.067-.144 0-.156.02-.12.175.054.215.675 1.672.761 1.778.031.043.149.093.254.117.188.043.195.059.16.281-.035.2-.012.262.137.403.496.468 2.262 1.078 3.781 1.308.61.094.824.067.914-.11zm7.948-.293c.207-.156.418-.285.473-.285.133 0 .363-.305.363-.473-.004-.164-.343-.547-.484-.547-.059 0-.16-.062-.223-.144l-.12-.145-.153.148c-.2.18-.934.313-1.14.208-.18-.094-.391-.524-.391-.782 0-.187-.028-.226-.223-.293-.215-.078-.238-.07-.578.18-.399.289-.512.453-.453.645.035.109.078.124.25.093.27-.05.394.082.488.52.043.183.098.344.125.36.027.019.113-.04.188-.126.23-.254.53-.215.867.113.148.149.328.395.39.543.07.149.153.266.184.266s.226-.125.437-.281zm-20.48-2.114l.434-.425.34.074c.187.039.511.078.722.09l.379.015.086-.28c.137-.442.133-.446-.293-.446-.313 0-.414-.028-.567-.153l-.18-.156.157-.164c.086-.09.137-.18.117-.203-.02-.023-.183-.02-.355.004l-.313.047-.254.5c-.203.414-.316.558-.62.793-.208.156-.376.332-.376.394 0 .098.18.336.25.336.02 0 .23-.187.473-.425zm3.285-.148h.32l-.199-.355c-.11-.2-.176-.344-.156-.325.02.02.121.008.227-.03l.195-.067-.422-.344-.973.258.172.168c.098.093.207.308.25.472.055.215.106.282.168.258.055-.02.242-.035.418-.035zm18.234-.254a2.862 2.862 0 0 0-.128-.476c-.079-.239-.137-.32-.23-.32-.114 0-.134.05-.153.366-.02.418.105.625.375.606.133-.016.16-.047.136-.176zm-15.308-.14l-.203-.657c-.106-.34-.594-1.047-.727-1.043-.023 0-.09.157-.156.352l-.113.351.597.633c.328.344.621.633.645.633.023 0 .004-.125-.043-.27zm16.332.12c.144-1.292.273-2.593.387-3.894 0-.02-.094.02-.207.078-.286.149-.961.145-1.368-.008-.246-.09-.324-.16-.402-.34-.086-.203-.105-.218-.164-.117-.07.13-.09.41-.063 1.13l.012.484.457.03c.5.036.688.145.715.427.016.125-.02.172-.176.222-.066.024-.14.047-.21.075-.008.003.066.218.171.48.102.258.25.668.332.914.14.434.262.606.43.606a.082.082 0 0 0 .062-.024.089.089 0 0 0 .024-.062zm-3.738-.566c.097-.062.172-.062.328 0l.199.07-.047-.199a5.504 5.504 0 0 1-.055-.715l-.007-.511-.223.015c-.223.008-.441.012-.664.012-.414.004-.442.012-.547.191-.063.106-.176.208-.254.227-.121.031-.46.52-.394.57.011.008.195.047.41.082.215.04.508.13.644.196.305.152.442.164.61.062zm-5.243-.383c-.023-.214-.082-.37-.164-.433-.132-.11-.496-1.516-.433-1.68.031-.074.074-.082.203-.031a.99.99 0 0 0 .21.058c.024 0 .048-.562.044-1.253 0-1.125-.02-1.293-.145-1.641-.101-.281-.199-.566-.289-.856l-.144-.476-.29.008a10.64 10.64 0 0 1-.788-.02c-.47-.031-.504-.047-.54-.199-.042-.148-.058-.156-.414-.117-.285.027-.39.015-.453-.059-.101-.117-.343-.117-.445 0-.055.067-.066.176-.031.34.136.715.035 1.168-.36 1.598a1.201 1.201 0 0 0-.191.23c0 .117 1.172 2.047 1.445 2.383.457.555 2.59 2.465 2.77 2.477.031.003.039-.149.015-.329zm-14.875-.18c.497-.44.965-.702 1.114-.628.23.12.496.058.886-.2.22-.14.395-.265.395-.277 0-.035-.887-.597-1.156-.734-.282-.14-.867-.262-1.012-.211-.04.016-.11.113-.152.215-.168.394-.918.832-1.11.64-.12-.117-.281-.086-.66.125-.375.207-.394.204-.433-.132l-.016-.16-.836-.02c-.953-.02-1.004.004-1.004.445 0 .313.129.317.36.02.18-.23.324-.274.566-.149.191.098.219.157.265.512.028.168.07.32.098.34.098.055.258-.047.39-.266.11-.172.177-.21.34-.21a.87.87 0 0 1 .735.445c.082.156.215.265.469.39.195.094.363.172.375.172.015.004.187-.14.386-.316zm16.508-.425a1.624 1.624 0 0 0-.16-.305c-.234-.37-.219-.726.047-1.05.437-.544 1.043-.774 1.387-.536.082.059.226.325.347.637.114.3.246.54.293.54.102 0 .106-.063.02-.286-.05-.133-.035-.2.07-.34l.13-.176-.157-.336c-.18-.386-.168-.46.113-.761.324-.352.938-.563 1.172-.407.102.063.238.336.195.38-.023.023.016.077.086.12.188.137.215.399.067.848-.067.219-.13.406-.13.418 0 .008.157-.027.337-.078.457-.129.64-.348.367-.434-.117-.035-.125-.07-.086-.277.023-.129.047-.29.043-.355.004-.106.027-.208.062-.305.09-.235-.004-.336-.406-.43-.183-.043-.34-.117-.36-.168-.046-.12.145-.324.462-.492.226-.117.367-.137 1.078-.137.726 0 .828.016.906.121.094.13.238.11.453-.05.113-.082.113-.102.02-.282-.25-.468-.035-.925.527-1.125.313-.113.594-.351.594-.508 0-.046.097-.167.222-.261.118-.102.227-.242.239-.309.02-.105-.016-.133-.196-.148-.183-.016-.21-.004-.175.086.02.062-.004.18-.059.261-.078.121-.156.149-.39.149-.262 0-.325-.028-.555-.266-.27-.273-.282-.355-.145-.851.035-.121.004-.141-.277-.176a1.575 1.575 0 0 1-.543-.188c-.305-.21-.27-.398.152-.875.39-.441.594-.57.918-.57.371 0 .559.125.723.492.14.317.16.336.383.336h.238l-.035-1.18c-.016-.648-.043-1.19-.055-1.203-.016-.015-.148.004-.297.047-.176.043-.293.121-.336.215-.097.215-.664.211-.992-.008-.172-.113-.34-.16-.617-.172-.246-.015-.363-.043-.324-.082a.27.27 0 0 0 .058-.164c0-.054.07-.168.157-.246l.156-.144-.192-.36c-.21-.394-.277-.453-.488-.453a1.22 1.22 0 0 1-.308-.066l-.165-.063.137-.273c.078-.149.184-.32.235-.38.109-.12.128-.108-.336-.253-.246-.082-.262-.094-.278-.39-.023-.329-.113-.41-.324-.301-.082.043-.152.187-.207.402-.125.55-.21.637-.59.61l-.32-.02-.547.512c-.598.558-.668.742-.344.898.157.078.274.352.227.527-.02.078-.04.153-.063.23-.035.13-.027.134.367.075.504-.066 1.02-.148 1.145-.184.078-.02.094.036.082.293-.035.555-.258 1.094-.605 1.45l-.313.32.223.246c.129.14.226.313.226.402 0 .09-.008.157-.02.157-.007 0-.214.074-.456.16-.582.21-.836.203-1.305-.028l-.379-.191-.281.273c-.461.438-.899 1.106-1.04 1.575-.097.32-.206.511-.433.765l-.304.332-.079.832c-.148 1.594-.097 2.352.176 2.535.13.094.168.196.344.813.05.195.156.414.23.492.133.14.262.188.258.094zm-11.406-.856c0-.039.078-.187.176-.324.168-.246.172-.25.047-.336a17.802 17.802 0 0 1-.528-.422l-.402-.332.203-.207c.113-.113.258-.226.32-.246.063-.02.098-.074.082-.12-.02-.044.043-.141.133-.216.125-.093.164-.168.133-.257-.02-.067-.008-.31.031-.528l.075-.41-.266-.281c-.145-.156-.426-.594-.625-.973l-.356-.691-.332.043a2.576 2.576 0 0 0-.347.054 1.17 1.17 0 0 0 .05.266c.09.39.07 1.133-.042 1.613l-.098.438.418.824c.23.453.465 1.008.523 1.23.059.23.153.485.207.579.16.265.598.484.598.296zm-7.32-1.136c.21-.164.215-.25.011-.25a.33.33 0 0 1-.25-.13c-.078-.105-.12-.12-.265-.062-.317.121-.82.043-1.059-.16-.012-.012.016-.12.059-.25.086-.219.082-.222-.192-.46-.41-.352-.437-.36-.644-.212a1.838 1.838 0 0 1-.508.196c-.305.066-.324.082-.355.304-.016.13-.043.29-.055.356-.016.09.058.172.265.3.364.223.883.356 1.676.426 1.004.094 1.13.09 1.317-.058zm4.656-.14c.332-.075.414-.071.531.007.074.05.156.074.172.055.023-.016-.062-.254-.191-.52l-.23-.488-.212.164c-.242.183-.734.32-1.367.387-.508.058-.477.093.258.324.531.172.531.172 1.039.07zm24.316-.876c1.032-.883 2.223-1.984 2.25-2.074.012-.059-.101-.227-.254-.375-.257-.258-.265-.281-.199-.48.082-.227.055-.305-.07-.2-.047.035-.418.098-.832.13-.988.081-1.035.112-.64.394.39.277.538.629.347.84-.188.203-.352.265-.824.3l-.45.035-.085.7c-.047.386-.063.855-.043 1.043l.039.336.14-.118zm-27.422-.512a1.348 1.348 0 0 0-.046-.394c-.04-.102-.055-.102-.27-.004-.355.168-.402.594-.074.594.09 0 .18.031.203.07.09.14.191.004.187-.266zm2.325-.183c.05-.082-.035-.082-.16 0-.082.05-.082.058.011.062.059 0 .125-.027.149-.062zm22.715-.13c0-.187-.083-.253-.16-.124-.051.082.023.316.1.316.032 0 .06-.086.06-.191zm-26.875-.362l.367-.036.113-.312c.059-.176.21-.422.332-.559l.227-.246-.211-.078a3.933 3.933 0 0 1-.258-.11c-.031-.01-.05.009-.05.052s-.048.171-.106.289c-.098.207-.118.214-.454.214-.19 0-.437-.042-.55-.097-.106-.051-.2-.09-.211-.082-.067.082-.356.707-.356.777 0 .055.09.168.2.258.19.16.203.16.394.062.11-.054.363-.113.563-.136zm-1.989-1.164c.48-.305.653-.348.899-.22.218.11.242.063.12-.273-.066-.187-.085-.199-.534-.242-.63-.054-.688-.039-.79.246-.042.133-.14.313-.214.407a.575.575 0 0 0-.13.285c0 .16.153.113.65-.203zm10.739.199c.085-.047-.094-.211-.426-.387-.172-.09-.164-.062.082.27.133.18.21.207.344.12zm9.066-2.106c.168-.547.406-1.254.527-1.578.215-.562.242-.777.098-.777-.11 0-.262.273-.262.46 0 .11-.082.263-.219.41-.125.134-.34.474-.484.759-.277.55-.508.789-.758.789-.082 0-.156.012-.156.023 0 .02.102.2.223.403.12.199.316.597.433.879l.219.507.04-.445c.019-.246.175-.89.339-1.43zm-12.637 1.446c.051-.184.113-.493.133-.688.043-.402-.023-.508-.402-.637-.164-.062-.235-.054-.364.032-.09.054-.164.14-.164.183 0 .059.649 1.422.692 1.438.008.004.05-.145.105-.328zm4.5-.887c-.476-1.52-.515-1.695-.656-2.848-.094-.75-.164-1.086-.242-1.176-.059-.074-.219-.25-.352-.398a1.592 1.592 0 0 1-.312-.555c-.09-.347-.246-.496-.926-.863-.508-.277-1.04-.426-.89-.25.077.102.038.398-.141.953-.102.309-.157.383-.473.586-.723.477-1.18.211-.945-.566.054-.196.086-.39.07-.43-.043-.121-.703-.316-.89-.273-.149.035-.169.086-.208.43-.027.253-.09.429-.172.507-.144.145-.511.168-.511.035 0-.047-.055-.16-.13-.246a.56.56 0 0 1-.124-.297c0-.078-.047-.133-.098-.133-.058 0-.097.016-.097.032 0 .082.41 1.48.46 1.582.063.11.075.11.243-.047.383-.363.98-.102 1.21.543.118.328.172.36.364.215.183-.137.605-.184.824-.094.172.07.192.105.156.266-.02.105-.097.27-.168.37l-.136.188h.218c.313 0 .922.168 1.395.383.227.105.418.187.426.187.008 0 .031-.19.047-.425.043-.528.363-1.672.484-1.715.105-.043.32.137.441.375.247.46.227 1.66-.027 2.328-.098.258-.137.297-.281.289-.13-.008-.176.023-.211.148-.067.274-.227.458-.524.598-.152.074-.265.16-.25.188.016.027.403.183.856.343.45.164 1.05.422 1.336.575.285.148.523.261.535.254.016-.012-.121-.489-.3-1.06zm2.586.781c.098-.164.098-.191.012-.262-.074-.062-.082-.097-.02-.168.055-.066.051-.144-.007-.332-.098-.293-.055-.453.207-.746.234-.265.484-.406.921-.5l.32-.078-.019-.379c-.02-.355-.004-.394.192-.597.21-.22.21-.223.191-.778l-.02-.558-.335.242c-.47.332-.844.644-.813.672.016.011.191.066.387.113.297.074.355.113.37.25.024.211-.202.496-.476.61-.12.05-.414.09-.664.09h-.445l-.11.445c-.132.546-.113 1.789.036 2.02.117.183.14.179.273-.044zm24.207-.351c.086-.168.16-.426.164-.567.004-.25-.011-.273-.285-.406-.266-.137-.293-.137-.45-.04-.108.075-.214.165-.308.255-.172.183-.12.297.215.531.121.074.219.168.219.195 0 .145.137.383.21.364.044-.016.15-.164.235-.332zm-17.262-1.29a.881.881 0 0 1 .227-.351c.223-.172.383-.469.594-1.098.105-.312.21-.62.242-.687.031-.078.012-.106-.078-.106-.07 0-.23-.058-.367-.125-.223-.113-.246-.113-.278-.015-.02.058-.254.644-.515 1.3-.414 1.043-.727 2.043-.73 2.329 0 .14.82-.985.905-1.246zm20.196 1.11c.015-.043.047-.29.066-.543l.04-.469-.145.051a1.15 1.15 0 0 1-.364.035c-.156-.008-.21.012-.191.07l.18.508c.117.32.18.43.27.43.066 0 .128-.04.144-.082zm-9.828-1.156a.99.99 0 0 1 .875.226c.191.168.226.176.226.078 0-.066.02-.222.04-.351.034-.219.027-.23-.196-.309-.297-.09-.332-.16-.207-.351.098-.145.098-.16-.023-.23-.18-.114-.168-.145.105-.302l.23-.14-.046-.36a6.058 6.058 0 0 1-.059-.648c-.008-.258.012-.297.273-.492.317-.239.606-.274.926-.106l.2.098-.04-.273a1.378 1.378 0 0 0-.226-.536c-.14-.203-.176-.293-.125-.375.043-.078.035-.16-.016-.265-.101-.184-.039-.348.258-.684.23-.258.309-.277.59-.133l.199.102-.05-.211c-.063-.32-.317-.727-.423-.695a4.522 4.522 0 0 1-.515.054c-.367.024-.434.012-.469-.09-.031-.066-.016-.128.027-.14.114-.04.836-1.024.832-1.145 0-.367-.75-1.636-1.375-2.332l-.285-.32-.156.145c-.086.082-.309.46-.5.843l-.344.703.156.313.153.316h.344c.62.004.988.278.89.66-.066.266-.441.692-.746.852-.25.129-.262.148-.11.148.29 0 .426.2.426.63 0 .425.118.62.415.667.125.032.246.09.343.176.133.125.153.191.13.414-.04.344-.278.828-.473.953-.13.082-.204.086-.473.02-.406-.098-.738-.309-.766-.492-.011-.078.059-.286.157-.457.277-.508.066-.625-.82-.465l-.524.093.043.391c.18 1.637.23 2.328.273 3.414l.04 1.246.304-.297c.176-.175.39-.32.512-.343zm-32.196.109l.375-.184-.297-.355c-.289-.344-.43-.43-.722-.434a.4.4 0 0 1-.25-.105c-.086-.09-.117-.09-.164-.016a.37.37 0 0 0-.024.25c.02.09.07.344.121.57.102.477.301.708.48.551.153-.105.313-.195.481-.277zm37.317-.102c.297-.296.484-.566.703-1.011.39-.785.402-.88.11-.953-.446-.114-.59-.192-.622-.364-.043-.215-.508-.5-.562-.351-.024.05-.114.09-.211.09-.305 0-.41.16-.41.62 0 .4.003.415.144.372.54-.156.922-.078.992.199.075.293-.027.605-.281.86-.285.292-.527.43-.75.43-.2 0-.234.05-.187.269.023.144.074.175.265.195l.324.035c.047.004.266-.172.485-.39zm-23.422-.644c0-.04-.125-.074-.281-.078l-.286-.016.086.246c.047.133.137.34.204.457l.113.215.082-.383c.043-.21.078-.41.078-.441zm-5.192.371c.055-.02.106-.059.106-.09 0-.082-1.05-.703-1.16-.683-.055.007-.102.074-.102.144 0 .086.14.207.453.39.465.282.532.302.703.239zm-13.464-.566c.093-.633.515-1.176.914-1.176.203 0 .234.023.347.281.07.152.145.367.168.477.04.207.149.332.149.175 0-.054.101-.214.226-.363.227-.254.352-.582.356-.918.004-.445.27-.988.488-.988.04 0 .125.059.191.125.137.152.243.16.352.031.047-.055.191-.094.363-.094.207 0 .282-.027.282-.093 0-.051.101-.207.226-.344.262-.285.277-.356.09-.457-.11-.055-.203-.027-.566.187-.239.145-.47.262-.508.262-.043 0-.117-.066-.176-.144-.105-.16-.07-.364.121-.73.14-.27.133-.337-.043-.337-.215 0-.496-.312-.496-.547 0-.105.047-.328.102-.496.125-.355.097-.387-.36-.46-.273-.04-1.457.062-1.531.128-.016.02-.012.137.012.262.039.219.05.223.347.223.27 0 .336.03.54.242.597.629.722.945.488 1.289-.18.265-.532.504-.739.504-.21 0-.652-.223-.902-.461-.2-.188-.215-.188-.371-.086-.09.058-.168.12-.168.14 0 .016.078.145.172.286.203.3.183.437-.137.906-.258.375-.289.644-.094.746.106.059.125.129.125.46 0 .227-.039.466-.093.556-.098.168-.13.671-.055.863.039.105.047.105.086-.008.027-.066.066-.27.094-.441zm49.05-.094c.028-.211.008-.238-.257-.395-.336-.195-.684-.738-.68-1.035.008-.332.156-.633.332-.699.133-.043.23-.02.48.129.543.324.559.324.52.016-.07-.493.36-1.262.703-1.262.266 0 .48.207.742.719l.262.52-.043.593-.043.586.238.101c.325.133.512.075.707-.23.086-.14.23-.281.313-.313.125-.05.289-.367.219-.414-.145-.054-.29-.11-.434-.16-.453-.16-.82-.367-.871-.496-.02-.047.031-.258.11-.477.124-.355.175-.414.429-.542.238-.118.395-.145.852-.145h.558l.113-.23c.063-.133.114-.336.118-.458.007-.19-.04-.261-.41-.57-.231-.191-.462-.414-.516-.5-.051-.078-.117-.148-.145-.148-.023 0-.547.324-1.156.718-.613.395-1.348.844-1.633.997-.676.363-1.55.957-2.93 1.992-1.124.84-1.304 1.031-1.203 1.289.043.105.055.105.188-.016.176-.16.91-.465 1.125-.465.086 0 .238.086.344.188.207.207.242.445.125.926-.032.14-.051.261-.04.273.008.008.227-.055.485-.14.512-.172.66-.153 1.039.148l.156.133.09-.211c.05-.11.102-.305.113-.422zm-39.09-.277c0-.286-.21-.579-.68-.934-.378-.297-.382-.305-.382-.617.004-.262.043-.371.242-.645l.239-.328-.125-.25c-.165-.32-.504-.59-1.079-.871-.48-.238-.949-.328-1.113-.223-.078.055-.078.094-.015.227.093.207-.055.613-.293.797-.192.152-.157.215.195.39.45.23.48.395.14.887-.21.305-.214.328-.078.29.235-.075.989-.122 1.168-.079.094.023.266.129.395.238.125.106.265.184.316.164.047-.015.149.008.223.059.117.082.137.16.137.54 0 .491.058.554.5.562.195.003.21-.008.21-.207zm8.837-.57c.058-.048.171-.493.308-1.188.117-.614.317-1.57.438-2.133l.222-1.016-.039-1.21c-.027-.665-.082-1.426-.129-1.692-.093-.531-.258-.922-.32-.758l-.254.668c-.316.832-.852 2.461-1.102 3.36l-.214.777.035 1.14.035 1.137.379.445c.207.247.371.465.371.497 0 .082.16.066.27-.028zm1.605-1.419c-.148-.281-.352-.457-.414-.36-.094.161-.363 1.142-.363 1.337v.238l.937-.926zm25.52.114c.773-.77 1.515-1.25 3.183-2.067 1.477-.723 2.297-1.18 2.672-1.496l.219-.184-.668-.043c-.371-.023-.7-.074-.735-.105-.03-.031-.129-.059-.214-.059-.086 0-.352-.09-.594-.195-.547-.234-.676-.238-.89-.012-.5.52-.977.703-1.946.758-.883.047-.953.078-1.008.406a.955.955 0 0 1-.266.493c-.32.336-.507.742-.625 1.355-.058.29-.148.723-.203.961-.125.559-.047.727.352.746.113.004.312-.152.722-.558zm-21.989.042c.11-.035.203-.078.203-.09 0-.081-.476-.859-.586-.952-.156-.141-.277-.09-.492.222-.164.235-.191.45-.062.45.043 0 .183.097.3.218.239.242.325.262.637.156zm19.914-.847c0-.13 0-.13-.05 0-.04.097-.067.207-.09.316l-.043.192.093-.192a.858.858 0 0 0 .09-.316zm-15.539-.778c.492-.445.598-.574.598-.726 0-.102-.027-.184-.067-.184-.035 0-.27.102-.52.223-.425.215-.456.219-.636.125-.355-.18-.363-.164-.36.66l.005.754.191-.156c.106-.086.461-.399.79-.696zm5.926.665a7.347 7.347 0 0 1-.082-.512c-.023-.2-.063-.38-.09-.395-.023-.015-.152.004-.281.047-.211.063-.238.09-.238.293 0 .13-.02.34-.04.469l-.039.242h.399c.387 0 .402-.008.371-.144zm-34.848-.243c0-.058-.25-.214-.28-.18a.925.925 0 0 0-.063.196c-.04.168-.036.172.156.105.105-.035.187-.09.187-.12zm26.438-.433c.062-.227.156-.453.21-.516a.398.398 0 0 0 .098-.222c0-.141.282-.516.457-.61.141-.07.461.055.56.23.042.079.108.02.296-.28.137-.223.305-.423.496-.602.14-.117.254-.235.254-.25 0-.051-.32-.168-.59-.211-.207-.035-.262-.012-.488.187-.168.149-.32.23-.438.23-.129 0-.254.075-.445.274-.14.153-.313.297-.371.317-.066.023-.117.086-.117.14 0 .059-.13.352-.29.657-.402.753-.378 1.125.063 1.078.18-.016.203-.047.305-.422zm-4.856.144c.22-.12.364-.152.54-.133.222.028.242.016.308-.175.086-.258.262-.422.676-.625.18-.09.39-.215.472-.278l.145-.12-.164-.235c-.09-.129-.16-.285-.16-.352 0-.148.586-.648.847-.718a.831.831 0 0 1 .34-.024c.133.031.149.008.188-.3.086-.63.582-1.262.988-1.262.168 0 .434.316.559.672.074.214.109.246.261.226.09-.012.211.008.254.047.13.105.453-.133.707-.523.121-.188.356-.45.52-.583.164-.132.293-.265.285-.292-.016-.028-.305-.192-.652-.368l-.63-.308-.464.11c-.258.058-.606.128-.774.151-.304.043-.304.043-.304-.132 0-.352.437-.82.965-1.035.105-.047.195-.102.195-.122 0-.023-.242-.132-.535-.246-.516-.199-.54-.203-.836-.113-.235.07-.352.074-.508.02-.2-.07-.219-.063-.516.273-.171.191-.523.66-.785 1.043l-.918 1.36c-.918 1.35-1.187 1.87-1.187 2.269 0 .129-.082.328-.219.535a1.455 1.455 0 0 0-.262.625l-.078.578-.031.278.23-.043c.133-.02.375-.114.543-.2zm23.34-.843c.028-.266.098-.633.153-.805.082-.262.296-1.399.296-1.574 0-.028-.058-.047-.128-.047-.149 0-.172-.176-.06-.403.04-.074-.081.016-.265.211-.543.563-1.988 3.203-1.843 3.352.015.016.23-.086.488-.211.597-.313.758-.273.894.223l.098.343.156-.304c.098-.184.176-.489.211-.79zm-45.219-.118c.016-.066.094-.265.18-.449.125-.293.137-.351.055-.402-.121-.07-.332-.07-.535 0l-.164.058.117.383c.066.207.137.406.16.45.062.101.144.081.187-.04zm11.73-.082c.735-.18 1.126-.375 1.036-.52-.074-.112-.797-.558-1.445-.882a26.948 26.948 0 0 1-1.051-.555l-.367-.215-.305.266c-.172.149-.3.293-.289.324.008.032-.012.114-.05.176-.071.137.136.492.687 1.164l.347.43h.34c.18 0 .676-.082 1.098-.188zm-2.405.024c0-.024-.328-.371-.727-.781l-.726-.739h-1.094l-.024-.289c-.015-.281-.007-.297.23-.414l.266-.137c.067-.03-.21-.664-.312-.722-.25-.13-.375-.067-.64.316-.145.211-.313.41-.376.442-.12.07-.132.062.207.164.153.047.313.351.434.793.121.472.008.433.992.351l.52-.047.238.239c.203.199.277.367.246.562-.004.031.113.106.262.176.273.12.504.164.504.086zm33.984-.977c.27-.418.492-.797.492-.84 0-.047.074-.199.164-.34.082-.14.157-.34.157-.44 0-.106.062-.466.136-.802.07-.328.14-.644.145-.695.008-.062-.09-.105-.348-.14-.445-.063-.59-.22-.773-.82-.114-.372-.153-.442-.242-.407-.102.035-.2.074-.301.11-.285.097-.328.155-.211.284.133.145.367.692.367.848 0 .36-.82.426-1.25.102l-.23-.176v.254c0 .332-.13.453-.493.453-.242 0-.32-.031-.48-.207a2.886 2.886 0 0 1-.3-.383c-.06-.094-.142-.176-.188-.176-.043 0 .046.18.199.399.152.218.437.691.633 1.05l.347.649.285-.285c.32-.325.832-.602 1.11-.602.312 0 .336.192.14 1.121-.015.078-.128.258-.253.407-.122.148-.223.289-.223.32 0 .027.062.133.148.23.082.098.168.29.192.426.035.242.14.422.238.422.027 0 .27-.34.54-.762zm-25.934.43c0-.149-.039-.387-.093-.527-.106-.29-.137-1.97-.04-2.032.102-.058.395.227.555.543.254.489.254.485.586-.758.114-.43.274-.82.457-1.14.41-.7.43-.781.23-1.074-.44-.645-1.277-1.551-1.433-1.551a.603.603 0 0 0-.262.113c-.109.07-.226.129-.351.176-.203.066-.297.21-.438.676l-.09.297.317.027c.566.055.812.363.676.879-.102.398-.39.664-.836.754-.356.074-.371.082-.442.343-.109.403-.246 1.192-.246 1.45-.004.187.11.39.657 1.16.363.515.683.93.71.93.024 0 .043-.118.043-.266zm19.77.148c.21-.058.172-.152-.094-.246a1.157 1.157 0 0 1-.343-.18c-.102-.09-.118-.081-.188.122-.133.402 0 .468.625.304zm-21.637-.168c0-.054-.351-.558-.797-1.144-.406-.528-1.34-1.492-1.445-1.492-.039 0-.027.125.02.32.191.707-.243 1.172-.774.824-.23-.152-.535-.168-.59-.031-.054.144.086.273.555.516.234.12.504.27.602.328.171.105.187.105.43-.035.14-.079.323-.141.413-.141.211 0 .934.445.938.582.004.137.125.227.36.258.109.02.214.035.241.043.028.004.047-.008.047-.028zm18.785-.793a.495.495 0 0 0 .247-.078c.09-.07.093-.12.03-.355-.058-.238-.085-.27-.206-.238-.07.02-.36.085-.64.144l-.505.102.16.132c.203.168.305.364.305.579v.164l.234-.223c.13-.125.297-.227.375-.227zm-29.097-.12c0-.137-.117-.2-.387-.2-.121 0-.191.035-.191.094 0 .12.183.219.406.222.129 0 .172-.027.172-.117zm27.347-.133c.301-.133.364-.184.364-.317 0-.234.218-.543.523-.762l.274-.195h-.22c-.316 0-.585.191-.827.578-.117.192-.301.469-.407.621-.101.153-.16.266-.128.254l.421-.18zm-1.593-.086c0-.004.148-.211.328-.461l.324-.446-.133-.265c-.078-.145-.168-.258-.203-.246-.035.011-.148-.024-.246-.079-.172-.097-.18-.097-.332.086-.129.16-.137.207-.063.286.114.132.012.617-.199.925-.09.125-.16.246-.16.266 0 .031.664-.035.684-.066zm16.37-.723c-.09 0-.175.008-.26.023-.255.043-.302.102-.392.524-.046.222-.046.219.309-.156.195-.208.348-.383.344-.391zm-44.57.473c0-.047-.128-.211-.293-.368l-.289-.277-.289.277c-.16.157-.289.305-.289.328 0 .047.16.063.95.11.136.004.21-.02.21-.07zm19.332-1.309c.446-.688.645-1.133.645-1.445 0-.168.816-1.055 1.281-1.391.301-.215.313-.234.582-1.082.254-.793.582-2.191.586-2.48 0-.079-.539.402-1.597 1.433-.88.852-1.786 1.707-2.028 1.902-.398.329-.437.375-.601.864l-.18.52.262 1.07c.148.59.285 1.187.308 1.324.043.238.047.242.157.129.058-.07.324-.446.585-.844zm-21.843.691c.18-.074.375-.129.441-.129.078 0 .14-.085.203-.261.047-.145.168-.383.266-.535.094-.149.152-.293.129-.317a1.002 1.002 0 0 1-.11-.277c-.062-.215-.085-.23-.355-.266-.25-.027-.313-.066-.512-.328-.12-.164-.242-.285-.273-.27-.074.051.012.657.125.876.047.097.082.296.074.441-.02.223-.059.289-.281.441-.149.106-.317.168-.403.157-.32-.055-.32.273 0 .496.188.129.301.125.696-.028zm51.449.008c.02-.031.129-.078.242-.097l.211-.04-.336-.332-.277.18c-.363.242-.395.344-.102.344.125 0 .246-.024.262-.055zm-40.91-.879c-.04-.105-.692-.12-.88-.02-.296.157-.093.43.497.669l.379.148.016-.351c.011-.196.007-.399-.012-.442zm38.5.317v-.364l-.227.215c-.125.121-.226.239-.226.258 0 .031.343.223.433.246.012.004.02-.156.02-.355zm1.66-.121c.148-.106.305-.204.469-.29.101-.039-.063-.37-.18-.37-.121 0-.473-.184-.64-.333-.079-.07-.16-.117-.196-.097-.027.02-.043.355-.031.738.015.527.039.7.097.664.04-.023.258-.164.481-.312zm-38.387-.067c.106-.472.07-.64-.183-.844-.239-.195-.73-.464-.77-.425-.035.035.164.984.242 1.132.043.083.153.227.242.32.149.157.176.165.297.09a.486.486 0 0 0 .172-.273zm2.985-.27c.14-.495.164-.656.109-.761a.756.756 0 0 1-.07-.324c0-.207-.168-.278-.235-.098-.02.05-.093.094-.164.094-.066 0-.277.144-.465.316-.187.176-.378.32-.418.32-.043 0-.074.028-.074.06 0 .054 1.035 1.019 1.098 1.019.02 0 .117-.282.219-.625zm21.214-.359c.145-.207.325-.5.41-.644l.15-.266-.247-.293-.238-.293h-.84l.039.242c.105.66.113 1 .043 1.5-.043.297-.059.575-.035.61.047.078.273-.192.718-.852zm12.73-.304c.02-.028.075-.207.122-.403.094-.375.152-.406.41-.207l.168.133-.07-.164c-.063-.125-.13-.164-.278-.168-.347 0-.402-.078-.273-.371.133-.277.094-.52-.074-.516a.978.978 0 0 0-.32.114l-.208.113-.03.824c-.012.453-.044.91-.071 1.012l-.05.195.316-.254c.125-.097.242-.195.359-.308zm-4.112-.082l-.172-.13.18-.136a1.09 1.09 0 0 1 .414-.176c.359-.058.382-.074.484-.265.11-.211.207-1.301.14-1.618-.03-.16-.132-.28-.41-.488l-.367-.27-.02.59c-.015.575-.019.594-.218.758-.246.215-.324.551-.266 1.168.028.309.051.617.078.922l.012.16.156-.187.157-.196zm-40.04-.332c0-.54-.007-.567-.195-.743-.105-.101-.191-.23-.191-.289 0-.062-.106-.242-.23-.402-.262-.34-.403-.367-.813-.164l-.266.133.203.207c.239.238.258.43.063.617-.121.125-.188.133-.64.105l-.509-.035v.176c0 .121.094.273.317.5.18.18.348.328.383.328.03 0 .074-.07.101-.16.074-.297.735-.89.856-.77.02.02.12-.011.226-.07.188-.113.192-.11.34.059.113.133.164.289.2.62.019.25.07.45.097.45.031 0 .059-.254.059-.562zm42.547-.325c-.02-.03-.507.301-.601.414-.05.063-.004.118.242.239l.313.156.03-.39a2.97 2.97 0 0 0 .016-.419zm-37.363.317c.024-.032-.023-.075-.09-.098-.242-.078-.28-.258-.097-.469.09-.105.14-.207.113-.222-.121-.07-.824-.114-1.164-.07-.203.027-.313.062-.246.077.066.016.187.106.273.204.082.097.32.238.535.32.211.078.418.184.457.23.086.102.168.114.22.028zm2.735-.367c-.043-.098-.075-.364-.079-.598l-.003-.422-.23.059a1.97 1.97 0 0 1-.532.011c-.274-.035-.309-.023-.309.082 0 .121.34.438.89.836.165.11.302.203.31.203.011 0-.012-.078-.047-.171zm38.753.046c.067 0 .114-.05.114-.129 0-.164-.098-.156-.45.04l-.292.16.257-.04c.145-.015.309-.03.371-.03zm-19.699-.175c.14-.09.207-.297.172-.532-.023-.199.004-.3.172-.554.11-.168.2-.328.2-.352 0-.023-.15-.039-.325-.039h-.324l-.2.426a3.03 3.03 0 0 0-.234.762l-.031.336h.254c.137-.004.277-.024.32-.047zm-25.32-.239c.047-.129-.07-.261-.305-.343-.234-.079-.254.023-.054.27.152.187.3.218.359.073zm21.738-.035c.078-.047.07-.058-.047-.058-.078 0-.148.027-.148.058 0 .082.07.082.195 0zm19.477-.668c.082-.308.14-.336.36-.183.136.09.16.086.382-.047.137-.082.348-.2.477-.254.148-.074.277-.192.375-.328l.14-.23-.14-.192a.942.942 0 0 0-.333-.262 2.605 2.605 0 0 1-.488-.328l-.304-.242-.118.144c-.207.254-.832 1.274-.992 1.614a2.78 2.78 0 0 0-.191.66l-.04.328.4-.195c.362-.18.401-.223.472-.485zm-18.793.504l.258-.039-.004-.75c-.004-.7.008-.762.148-.91l.145-.156-.305-.434c-.11-.164-.227-.324-.344-.484-.02-.032-.18 0-.343.058-.231.082-.293.137-.262.207.246.551.3.832.3 1.528 0 .425-.027.812-.074.918-.07.172-.066.18.07.14.083-.02.262-.058.41-.078zm8.527-.457c.18-.387.586-1.422.586-1.492 0-.043-.129-.149-.285-.234-.242-.13-.3-.141-.387-.07-.058.042-.101.155-.101.245 0 .215-.176.48-.477.723-.129.105-.234.23-.234.277 0 .051.117.168.261.262.141.09.254.191.254.219 0 .062.188.25.25.25.032 0 .09-.078.137-.176zm-23.129-.203c.117 0 .453-.336.453-.453 0-.067.149-.281.34-.473.297-.3.375-.347.586-.347.195 0 .293-.043.465-.211.117-.122.215-.258.215-.305 0-.05-.102-.285-.223-.531-.246-.48-.285-.778-.117-.84.129-.051.414.27.617.695.137.29.16.3.414.3.149 0 .348.028.442.067.175.063.187.164.086.64-.016.06.253.395.62.802.583.629.65.687.7.57.101-.258.125-.98.047-1.48-.102-.707-.434-2.051-.528-2.165-.043-.05-.226-.167-.402-.253l-.32-.16-.238.128c-.504.282-.91.13-1.59-.59l-.457-.48-.153.113c-.258.203-.558.328-.754.328-.394 0-1.812 1.57-1.812 2.008 0 .074-.133.399-.293.723-.379.773-.379.797.07.805.438.007.66.156.79.523.058.184.148.3.269.363.12.07.215.184.258.32l.074.223.191-.16c.11-.086.219-.16.25-.16zm-5.496.02c.09-.02.203-.145.29-.313l.136-.277-.313-.735a9.227 9.227 0 0 0-.636-1.261l-.332-.52-.258.02a.673.673 0 0 1-.477-.13c-.195-.128-.23-.187-.226-.402a4.01 4.01 0 0 1 .058-.515c.047-.242.032-.282-.18-.508-.12-.133-.238-.23-.257-.211-.02.02-.07.242-.11.496-.054.352-.054.48.004.55.04.048.055.15.032.22-.032.097.011.199.156.359.23.254.289.437.289.91.004.324-.008.36-.215.496-.285.195-.488.188-.71-.031-.153-.152-.188-.254-.227-.637-.043-.433-.16-.586-.16-.207 0 .375-.649.957-1.075.957-.176 0-.242-.281-.156-.703.078-.387.074-.402-.07-.516a.75.75 0 0 0-.196-.113c-.023 0-.074-.101-.117-.226-.273-.82.887-1.203 1.496-.489l.153.184.117-.402c.125-.434.086-.594-.153-.594-.156 0-.195-.13-.195-.586 0-.305-.02-.375-.09-.348-.117.04-.234.074-.351.114-.23.062-.27.097-.27.246 0 .222-.074.277-.515.402a1.2 1.2 0 0 0-.559.32c-.211.219-.59.36-.98.36-.168 0-.196.023-.231.257-.039.22-.023.286.102.415.117.125.191.148.332.117.168-.02.332-.02.5.004.238.03.34.086.425.21.153.231.137.614-.039 1.02-.125.29-.136.356-.066.488.113.207.578.66.785.77.164.086.172.078.238-.102a.65.65 0 0 1 .235-.289c.16-.105.187-.105.386-.011.157.074.278.218.446.539.25.46.523.687.746.62.07-.023.254-.144.402-.265.426-.351.535-.387.719-.219a.98.98 0 0 1 .227.399l.082.258.332-.04c.16-.019.32-.05.48-.081zm18.617-.625c.004-.36-.023-.606-.062-.606-.031 0-.113-.043-.18-.102-.11-.097-.129-.09-.34.09a9.307 9.307 0 0 1-.75.535l-.527.336.508.043c.277.024.68.102.894.168.211.07.403.13.418.133.02.004.04-.265.04-.598zm-24.574.144c.274-.11.496-.215.496-.242 0-.086-.496-.473-.844-.664a1.865 1.865 0 0 0-.742-.207c-.484-.04-.48-.047-.347.629.066.316.093.359.25.394a.43.43 0 0 1 .27.2c.105.195.148.19.917-.11zm7.652-.184c0-.039.13-.347.297-.683.164-.34.348-.766.418-.957.137-.39.153-.965.035-1.238l-.078-.192-.28.324c-.282.32-.665.52-.86.446-.192-.07-.246-1.094-.078-1.489.05-.125.086-.242.07-.257-.02-.016-.121.039-.23.117-.188.14-.223.144-.633.07-.493-.082-.528-.059-.528.336 0 .168.075.39.227.672.32.578.879 1.785 1.09 2.363.105.293.222.5.285.516.191.05.265.043.265-.028zm14.641-.3c.328-.227.715-.528 1.395-1.086.316-.262.523-.559.523-.762 0-.172-.074-.172-.246.012-.211.226-.7.445-.879.402-.262-.066-.547-.348-.547-.547 0-.222.117-.57.242-.715.078-.09.082-.129.016-.21-.133-.153-.176-.11-.227.203-.039.261-.332 1.359-.671 2.52-.153.515-.114.53.394.183zm-25.086-.16c.246-.399.2-.481-.476-.848-.332-.188-.633-.34-.664-.34-.036 0-.176.176-.313.383-.137.207-.316.414-.394.457-.196.098-.184.156.054.234.156.059.235.047.438-.054.285-.149.508-.102.941.199.14.097.262.18.266.18.011 0 .074-.09.148-.212zm41.008.019a.996.996 0 0 0 .348-.2c.105-.112.101-.14-.094-.534-.113-.223-.207-.446-.207-.496 0-.145.558-.614.734-.614.086 0 .293.106.457.23.168.126.309.216.317.208.058-.133.113-.27.16-.403.078-.21.242-.484.367-.605l.219-.227-.106-.328c-.086-.261-.09-.347-.031-.422.234-.273.934-.382 1.293-.203.168.09.188.086.262-.058.093-.176.02-.317-.203-.387-.118-.035-.11-.055.082-.191.117-.082.277-.157.359-.157.117 0 .207-.113.469-.586.18-.324.324-.652.324-.722 0-.078.039-.153.082-.168.047-.024.168-.188.273-.375.309-.563.461-.727 1.477-1.54l.973-.777-.391-.043c-.312-.039-.418-.082-.559-.238-.175-.191-.214-.351-.183-.726l.015-.184-.312.176c-.676.386-.832.523-.91.789-.098.312-.242.418-.793.582-.235.066-.504.183-.598.258l-.172.132.23.297c.356.465.419.61.43 1.059.016.582-.058.648-.554.516-.457-.118-.809-.336-1.043-.657a8.59 8.59 0 0 0-.23-.297c-.114-.136-1.165.825-1.817 1.672l-.305.387h.23c.337 0 .485.098.485.316 0 .145.043.215.188.286.492.253.195.632-.649.804-.531.114-.535.117-.277.469.394.55.265 1.18-.23 1.18-.223 0-.45-.102-.946-.434-.187-.121-.355-.207-.367-.195-.031.031-.465 1.43-.52 1.668-.035.156-.023.18.075.14.226-.082.636-.105.812-.043.2.082.434.418.434.633 0 .098.027.137.078.117.047-.015.187-.07.324-.109zm-9.57-.281c.52-.14.5-.106.261-.645-.066-.152-.187-.312-.265-.355-.211-.113-1.735-.149-1.985-.047l-.199.082.246.098c.34.128.711.386 1.055.738.16.16.316.281.355.273zm-9.871-.95c.437-.374.8-.722.8-.777 0-.05.082-.254.184-.457.36-.695.559-1.633.629-2.976l.043-.77-.274-.035c-.472-.063-.77-.492-.687-1 .035-.223.02-.262-.192-.441-.37-.325-.734-.543-.796-.477-.032.031-.23.387-.442.789-.781 1.473-1.199 2.914-1.199 4.102.004.632.027.765.234 1.37.125.364.262.817.297 1.005.043.187.106.398.145.464.066.125.074.125.258.004.109-.062.558-.422 1-.8zm25.832.137c.23-.25.722-.843 1.09-1.316.628-.809.667-.871.581-1.004a.636.636 0 0 1-.09-.234c0-.157-.081-.122-.355.156-.27.273-.738.594-.976.66-.106.031-.149.012-.18-.086-.043-.125-.043-.125-.246-.004-.328.2-.735.168-1.238-.094l-.43-.222-.094.222c-.105.254-.238.832-.207.914.012.032.195.004.406-.066.328-.102.426-.105.633-.043.387.121.465.379.246.848l-.117.254.23.242c.126.125.25.234.274.234.031 0 .242-.207.473-.46zm-13.262.164c.09-.218.086-.257-.11-.882l-.207-.657.168-.199c.188-.215.207-.32.098-.426-.035-.039-.059-.203-.047-.363.016-.16.004-.293-.023-.293-.028 0-.29.18-.59.398l-.543.391.191.512c.106.281.286.754.391 1.055.11.296.223.578.262.617.125.16.308.09.41-.153zm-38-.316l.133-.172-.145-.152c-.191-.2-.457-.332-.664-.332-.133 0-.191.047-.262.226-.054.125-.09.274-.078.336.028.14.297.262.61.262.214 0 .296-.031.406-.168zm6.187.074c0-.23-.644-.898-.804-.84-.055.024-.246-.015-.426-.086-.254-.097-.352-.109-.457-.054-.125.066-.11.093.281.476.223.23.492.438.598.465.222.067.808.09.808.04zm-2.109-.36c-.063-.105-.172-.218-.242-.245-.145-.059-.5-.418-.774-.778-.156-.218-.207-.242-.464-.242-.262 0-.282-.012-.247-.133.036-.09-.003-.183-.113-.304a2.859 2.859 0 0 1-.332-.465c-.137-.235-.168-.344-.129-.52.02-.12.024-.246.004-.281-.062-.098-.492.348-.531.547-.035.164-.008.203.191.324.235.145.621.61.621.746 0 .145.34.477.672.664.18.106.528.344.782.535.246.196.5.352.562.352.113.004.113-.004 0-.2zm49.32-.245c.137-.055.157-.102.157-.41 0-.27-.024-.34-.09-.317-.117.043-.688.703-.688.793 0 .082.324.043.617-.066zm-51.851-.082l.16-.059-.16-.066a3.385 3.385 0 0 1-.274-.118c-.273-.14-.39-.007-.238.266.066.129.125.129.512-.023zm31.89-.02c.77-.172 1.235-.324 1.235-.402 0-.055-.782-.746-1.028-.914-.156-.106-.164-.102-.515.226-.2.18-.375.36-.387.399a.628.628 0 0 1-.102.156c-.042.05-.101.23-.124.398-.055.368-.094.364.921.137zm9.149-.488a4.64 4.64 0 0 0 .168-.559l.05-.218-.144.175a1.407 1.407 0 0 1-.39.305c-.266.133-.294.2-.192.469.043.113.113.164.223.164.129 0 .18-.055.285-.336zm12.191-.254c0-.184-.035-.375-.066-.43-.043-.066-.063.035-.067.336 0 .242.032.426.067.426s.066-.145.066-.332zm-50.59.113c0-.043-.039-.117-.093-.156-.047-.043-.172-.277-.262-.52-.234-.597-.543-.75-.547-.261 0 .215.106.39.473.758.308.316.43.367.43.18zm36.723-1.05c.242-.094.566-.157.957-.176.566-.032.594-.028.754.132.094.09.172.23.176.31.004.081.054-.067.117-.33.11-.472.11-.48-.035-.796a2.947 2.947 0 0 1-.188-.598l-.047-.28-.129.226c-.152.258-.539.468-.75.398-.167-.05-.226-.262-.183-.64.027-.254.016-.293-.184-.442l-.215-.16-.222.133c-.192.11-.266.12-.477.066-.48-.129-.914-.742-.914-1.297 0-.254.016-.289.227-.383.125-.062.324-.109.441-.109h.219l.16-.652c.148-.621.148-.656.04-.754a1.21 1.21 0 0 1-.384-.813c0-.23-.039-.32-.222-.52-.407-.44-.88-1.6-.88-2.132 0-.305.137-.61.337-.75.136-.09.136-.09.008-.16-.106-.055-.145-.043-.227.082-.063.09-.211.176-.395.219-.254.062-.296.097-.296.246 0 .09.093.308.207.48.257.395.261.625.015.88-.219.23-.601.44-.8.44-.075 0-.25-.058-.387-.128a2.513 2.513 0 0 0-.278-.125c-.011 0-.011.078.004.18.04.234-.218.53-.578.675-.152.063-.527.129-.836.145l-.562.03-.29.493c-.28.473-.515.953-.476.984.04.032.555.165.621.165.043 0 .078-.102.078-.223 0-.34.172-.645.442-.758.652-.277 1.496-.3 1.777-.043.219.207.395.625.313.758-.114.183-.426.293-.844.293l-.403.004v.25c0 .218.032.273.196.367.39.215.441.805.11 1.23-.18.235-.259.282-.579.352-.371.074-.383.074-.648-.11-.387-.273-.688-.73-.688-1.074 0-.187-.035-.28-.102-.312-.18-.067-.207-.043-.238.203-.039.352.73 2.066 1.317 2.918l.18.266.273-.098c.199-.066.406-.082.742-.055l.465.043-.04-.324c-.054-.438.071-.57.524-.57.461 0 .8.105 1.02.324l.191.187.324-.16c.54-.265 1.559-.21 1.723.094.121.223.07.438-.164.691-.258.286-.707.43-1.121.364-.246-.035-.246-.035-.38.28l-.132.317.23.157.235.156.25-.211c.137-.117.414-.277.617-.356zm-24.367.37c.18-.171.183-.265.012-.539-.106-.175-.13-.293-.106-.644.012-.234.043-.477.07-.535.047-.098 0-.102-.453-.074-.277.02-.527.058-.554.085-.032.024.078.25.246.504.285.438.543 1.032.543 1.243 0 .136.066.125.242-.04zm12.676-1.449c.613-.605.636-.644.52-.73-.161-.117-1.274-.695-1.59-.82l-.239-.098.031.297c.02.164-.023.71-.097 1.218-.075.508-.133 1.06-.133 1.227v.313l.433-.383c.239-.207.727-.668 1.075-1.024zm27.414 1.157c.066-.125.058-.688-.008-.754-.059-.059-.742.093-.79.175-.042.059.587.684.692.688.028.004.074-.047.106-.11zm-34.746-.47c-.114-.562-.977-2.343-1.133-2.343-.172 0-1.356 1.125-1.356 1.285 0 .059.024.113.063.113.11 0 .988.622 1.242.872.23.234.25.242.73.257l.493.012-.043-.195zm-14.22-.144c0-.258-.14-.422-.359-.422-.238 0-.199.215.086.442.13.11.246.195.254.195.012 0 .02-.094.02-.215zm27.126-.25c.012-.425-.008-.5-.254-.984-.145-.285-.29-.52-.328-.52-.031 0-.172.07-.317.16-.386.239-.605.204-1.011-.175l-.2-.192-.23.309c-.125.168-.23.348-.23.387 0 .043.132.172.304.289.301.203.313.207.977.195.367-.008.722.012.789.047.14.078.148.238.02.406a.437.437 0 0 0-.094.172c0 .05.453.371.52.371.019 0 .046-.207.054-.465zm17.047-.02l.406-.359-.3-.203c-.56-.383-.368-.707.456-.777.348-.035.39-.059.61-.317.218-.265.226-.289.125-.398-.059-.062-.22-.133-.36-.148-.136-.02-.457-.13-.707-.243l-.465-.21-.222.12c-.278.149-.551.481-.758.922l-.156.336.246.325c.25.324.644 1.082.644 1.234 0 .129.051.098.48-.281zm-1.707.184c0-.109-.11-.218-.153-.152-.027.043-.027.102-.004.137.043.074.16.086.157.015zm8.675-.43c.043-.054.09-.28.114-.511.062-.563.144-.715.406-.77.309-.054.785.13.832.332.043.16.2.325.258.266.058-.055-.293-1.324-.461-1.644-.18-.36-.309-.438-.672-.438-.27 0-.508-.09-.594-.215-.066-.105-.02-.246.407-1.129.367-.746.386-.816.343-1.117-.035-.281-.074-.348-.3-.52-.31-.238-.403-.25-.5-.07a2.696 2.696 0 0 1-.29.371l-.214.235.16.328c.093.183.152.37.136.414-.02.043-.226.176-.46.289-.551.277-1.118.293-1.711.055-.211-.082-.403-.137-.418-.121-.063.062-.043.402.03.535.083.152.536.367.786.37.262 0 .793.126.922.216.148.109.137.496-.04.953-.151.414-.265.488-.76.488-.169 0-.364.04-.427.086-.117.086-.113.098.063.438l.187.347.184-.223c.676-.843 1.398-.609 1.402.461 0 .141.032.368.07.504.067.23.079.243.274.207.113-.027.234-.086.273-.136zm-44.57-.347c0-.219-.226-.965-.387-1.281a1.03 1.03 0 0 0-.285-.336c-.12-.074-.156-.145-.129-.227.024-.082-.054-.238-.25-.492-.336-.434-.472-.562-.671-.617-.2-.067-.274.156-.274.808v.52l.512.152c.676.2.879.399.867.836-.012.293.008.328.242.516.137.105.25.234.25.285 0 .055.027.078.063.059.035-.02.062-.121.062-.223zm9.063-.957c.754-1.906 1.082-2.516 2.445-4.516l.48-.699h-.253c-.137 0-.266.024-.29.055-.02.027-.105.043-.199.023-.133-.027-.16-.008-.16.114 0 .078-.105.25-.242.382-.293.285-.77.442-1.516.5l-.504.04-.386 1.136c-.211.625-.371 1.149-.36 1.16.008.012.23.051.485.086.453.067.91.211.91.29 0 .085-.149.323-.309.488-.172.187-.719.34-1.054.289-.149-.02-.176-.008-.145.078.023.05.152.426.293.832.14.402.27.773.293.824.043.117.02.164.512-1.082zm-5.13.465c.423-.348.528-.473.587-.68.035-.144.11-.398.152-.558.05-.165.07-.317.047-.34-.024-.028.047 0 .152.054a.865.865 0 0 1 .309.262c.062.09.129.16.16.16.023-.004.168-.117.328-.246l.281-.25-.132-.18c-.153-.222-.786-1.457-.786-1.546 0-.032.082-.086.188-.114l.183-.047-.41-.828c-.222-.453-.488-.922-.59-1.043l-.183-.215-.45.11c-.343.09-.577.105-1 .074l-.554-.039-.078.336c-.145.66-.371.848-.8.687-.204-.074-.247-.195-.298-.77l-.039-.476-.687.02c-.836.023-.957-.02-.957-.363 0-.203.046-.286.265-.477.14-.129.332-.27.418-.305.184-.086.192-.113.063-.277-.086-.121-.102-.117-.34.113-.235.227-.27.239-.656.239-.395 0-.422-.012-.645-.247-.184-.199-.258-.238-.348-.187-.187.102-.125.262.344.816.246.297.528.68.621.856.18.344.852.926 1.059.926a.75.75 0 0 1 .535.28c.047.079.11.294.133.481.035.235.101.407.2.508.081.09.214.278.3.422.433.754.512.836.855.879.34.039.504.168.434.344-.024.062.101.008.312-.145.508-.36.5-.344.645-.894.27-1.043.297-1.075.633-.7.242.274.3.528.293 1.305.004.363-.043.727-.149 1.074-.14.461-.144.47-.332.43-.168-.031-.191-.02-.191.113 0 .188-.27.516-.527.649-.102.05-.172.12-.145.156.082.14.316.035.8-.367zm-2.874.078c.02-.055.023-.098.011-.098a.618.618 0 0 1-.12-.035c-.075-.027-.09-.004-.063.098.039.148.117.172.172.035zm30.191-1.113c1.113-1.172 1.403-1.508 1.336-1.57-.023-.028-.121.03-.219.12-.254.247-.605.368-1.039.368-.539 0-.57-.153-.191-.907.273-.539.258-.59-.207-.703-.285-.07-.395-.078-.414-.023-.012.043-.04.39-.059.773a54.121 54.121 0 0 1-.27 2.75c-.023.153-.023.274-.003.274.015 0 .5-.492 1.066-1.082zm-14.387-.016c.247-.254.684-.71.985-1.016.445-.46.531-.578.496-.699-.059-.219-.352-.515-.461-.469-.11.04-.352.551-.352.739 0 .18-.382.351-.617.273-.207-.07-.258-.144-.328-.531l-.059-.285-.117.238c-.07.133-.285.387-.48.559-.332.293-.38.316-.695.316-.188 0-.356-.027-.375-.059-.051-.085.257-.875.453-1.171a1.42 1.42 0 0 1 .39-.375l.23-.133-.163-.09c-.164-.082-.211-.184-.254-.527-.024-.247-.219-.235-.371.023-.082.133-.278.305-.485.418a1.281 1.281 0 0 0-.504.465c-.164.281-.492 1.203-.492 1.394 0 .254 2.125 1.364 2.653 1.383.058.004.304-.2.546-.453zm-13.253.242c0-.015-.028-.047-.06-.066-.038-.028-.065-.012-.065.027 0 .035.027.067.066.067.031 0 .059-.016.059-.028zm24.187-.754c.059-.043.176-.207.254-.363a.87.87 0 0 1 .453-.437c.188-.09.363-.137.453-.114.16.043.301.27.305.508.004.137.004.137.062.008.078-.195.188-1.156.145-1.3-.024-.099-.086-.118-.36-.122-.183 0-.5-.059-.703-.129-.324-.11-.37-.113-.37-.027 0 .054-.102.199-.227.32s-.227.281-.227.356c0 .07-.07.34-.16.597-.195.559-.168.785.094.785.101 0 .199-.027.281-.082zm-27.043-.187c-.016-.043-.031-.012-.031.078 0 .086.015.121.031.078.02-.05.02-.11 0-.156zm-.953-.59a1.01 1.01 0 0 0-.211-.344c-.133-.133-.176-.144-.258-.07-.144.117-.129.176.172.562.258.34.27.348.309.204a.82.82 0 0 0-.012-.352zm39.387-.094c.132-.137.152-.207.082-.277-.032-.031-.27.101-.47.258-.034.027.134.14.208.14.027 0 .105-.054.18-.12zm-31.446-1.496c.254-.738.563-1.562.684-1.84.168-.394.2-.515.137-.558-.047-.028-.18-.114-.293-.184-.114-.074-.211-.176-.211-.223 0-.12.238-.257.539-.312l.246-.04-.04-.491c-.077-.907-.12-.97-.464-.692-.281.235-.445.297-.727.297-.226 0-.277-.023-.332-.164a1.264 1.264 0 0 1-.058-.383c0-.23-.207-.597-.336-.597-.043 0-.125.043-.18.101-.097.082-.101.125-.023.422.156.594.125.781-.192 1.09-.265.262-.738.484-1.023.484-.129 0-.149.157-.055.414.055.133.094.157.223.13.117-.032.203.007.36.16.128.128.241.183.312.16.12-.036.242-.063.37-.079.22-.027.294-.011.403.102.172.164.172.266.02.566a1.708 1.708 0 0 1-.75.727c-.09.047-.184.094-.274.145-.031.023.625 1.507.77 1.746.195.32.324.457.379.402.023-.027.254-.648.515-1.383zm4.828 1.32c.051-.816.13-1.382.211-1.464.176-.172.36-.04.47.336.097.328.222.464.222.246 0-.059.055-.301.129-.54.117-.386.164-.449.484-.687.348-.262.469-.477.39-.68-.03-.082-.058-.09-.124-.039-.047.043-.278.102-.524.133-.281.043-.484.106-.574.192-.18.168-.512.296-.894.351-.286.04-.325.07-.551.402-.133.204-.313.473-.395.606l-.148.246.152.16c.086.09.336.305.567.473.382.293.582.379.585.265zm-15.632-.46c.172-.18.367-.32.437-.32.125 0 .125-.024.074-.493a13.452 13.452 0 0 1-.058-.89v-.4h-.266c-.152 0-.289-.023-.308-.054-.016-.031-.153-.07-.293-.086l-.258-.023-.133.414c-.195.621-.262 1.215-.184 1.602.032.183.067.335.075.34.007 0 .101.054.21.113.29.164.368.144.704-.203zm-1.793-.04a.973.973 0 0 1-.035-.32c0-.316-.172-.281-.23.047-.032.191-.02.277.042.32.145.086.266.063.223-.047zm43.93-.53c.027-.024-.028-.114-.118-.192-.082-.086-.168-.14-.18-.125-.066.082-.367.629-.367.664 0 .035.555-.25.664-.348zm-40.614-.391c.04-.133.106-.258.195-.368.125-.132.13-.156.032-.257a.427.427 0 0 1-.102-.258c0-.098-.11-.25-.305-.43l-.308-.277-.02.496c-.023.578.063 1.047.258 1.351.121.192.149.203.168.098.012-.07.047-.23.082-.355zm21.012-.012c.222-.25.59-.742.824-1.098l.422-.637v-1.175c0-1.371-.086-1.883-.652-3.848-.313-1.098-.727-2.129-.848-2.129-.027 0-.223.172-.434.383a4.88 4.88 0 0 1-.691.57c-.324.2-.356.274-.207.473.121.16.121.488 0 .773-.05.121-.094.368-.09.543.008.32.008.325.316.45.18.07.336.183.375.277.04.078.168.195.282.254.097.047.18.101.254.172.027.047.195.047.496.004.597-.079.843.015.847.312 0 .156-.472.652-.746.777-.18.086-.328.098-.691.07-.254-.019-.504-.015-.547.016-.148.102-.008.246.36.356.796.246 1.238.61 1.238 1.015 0 .09-.051.22-.118.286-.062.062-.105.144-.093.18.011.034-.086.148-.211.241-.313.235-.57.192-1.125-.187l-.418-.293-.02.39c-.015.305.008.43.117.606l.141.219-.14.215-.133.218.492.512c.27.285.515.516.547.516.027 0 .23-.207.453-.461zm17.12-.598c.114-.086.208-.183.208-.21 0-.032-.203-.2-.453-.38-.492-.355-.664-.562-.633-.777.035-.23.281-.316.828-.29.613.028.84.15 1.137.59.129.188.25.337.262.325.011-.016.043-.148.07-.297.062-.36.262-.504.84-.594l.465-.07-.004-.512c-.004-.48-.075-1.02-.141-1.09-.02-.015-.121.004-.23.043-.16.055-.258.043-.57-.082-.356-.14-.38-.164-.36-.335.027-.215.547-1.024.723-1.114.406-.219.437-.511.066-.699a1.206 1.206 0 0 0-.344-.125c-.05 0-.195.164-.32.371-.254.402-.668.805-.918.899-.11.043-.258.023-.52-.067-.488-.164-.539-.219-.539-.531 0-.293.125-.524.692-1.266.183-.238.332-.472.332-.523 0-.043-.125-.16-.285-.25-.38-.223-.473-.383-.313-.559.219-.242.488-.304 1.336-.304H55l.234-.297c.25-.317.274-.422.172-.79-.078-.269-.3-.495-.52-.519-.128-.012-.183.031-.292.262-.07.152-.168.297-.219.328-.215.133-.992-.297-1.258-.7-.07-.1-.144-.19-.168-.19-.02 0-.066.128-.105.284-.059.27-.051.297.074.36.074.043.145.078.156.09.055.043-.187.468-.324.578-.105.09-.195.199-.266.32a2.898 2.898 0 0 1-.27.39c-.163.196-.163.196-.1.84.085.825.085 1.872 0 2.778-.051.57-.145.96-.446 1.922a28.065 28.065 0 0 0-.488 1.734c-.055.293-.145.61-.192.7a.943.943 0 0 0-.093.203c0 .027.152.046.34.046.187.004.394.028.464.055.137.05.73-.223 1.18-.547zm-7.269-.176c0-.082-.113-.289-.254-.457-.351-.418-.351-.64-.007-.925l.257-.215-.09-.664c-.078-.582-.21-1.262-.261-1.328-.012-.008-.145.07-.297.175-.262.176-.422.223-.715.203-.11-.003-.37-.43-.37-.601 0-.117-.31-.371-.575-.484-.281-.114-.234-.254.152-.465.43-.239.793-.211 1.219.074.172.117.316.2.328.187.04-.043-.289-.98-.434-1.23-.097-.168-.199-.262-.308-.277-.215-.028-.512-.317-.512-.496 0-.083.043-.262.102-.407.062-.14.093-.261.082-.277a3.17 3.17 0 0 0-.32-.121 2.223 2.223 0 0 1-.536-.317c-.203-.171-.238-.23-.195-.379.04-.167.375-.511.555-.57.058-.023-.028-.148-.254-.39-.457-.477-.45-.637.035-.883.187-.09.371-.18.402-.188.035-.011.02-.133-.031-.277a1.77 1.77 0 0 1-.094-.492c-.004-.188-.031-.239-.129-.239-.062 0-.207-.015-.308-.035-.184-.039-.192-.035-.367.457-.176.485-.637 1.559-1.668 3.871-.266.598-.461 1.106-.434 1.137.05.055.637.227.938.274.187.03.855.648 1.003.93.036.062.098.109.149.109.168 0 .793.504.879.71.047.118.164.305.261.419.22.25.188.41-.109.55-.281.133-.531.133-.867 0-.14-.058-.273-.09-.29-.074-.019.016.052.188.157.387.11.207.203.504.23.734.028.219.07.395.098.395.032 0 .246-.075.48-.16 1.153-.43 1.575.093.786.984l-.192.227.415.039c.23.023.53.085.671.14.36.133.418.125.418-.05zm-33.168-1.613c.13-.242.215-.465.192-.484-.106-.106-.344-.024-.492.164-.106.137-.22.207-.344.215-.176.007-.18.02-.168.347a7.3 7.3 0 0 0 .09.84l.078.512.207-.57c.113-.313.309-.774.437-1.024zm-1.336 1.371a3.576 3.576 0 0 1-.097-.441l-.074-.36-.239.032c-.152.02-.285-.004-.367-.063-.121-.09-.133-.078-.27.23-.078.18-.148.395-.148.47-.004.128.035.144.402.163l.61.036c.14.007.2-.016.183-.067zm37.5-.058c.02-.02.043-.274.06-.567.038-.86.273-1.215.726-1.101.222.054.601.855.652 1.375.027.3.055.367.148.367.137 0 .114.094.485-1.688.293-1.422.297-1.476.222-1.925-.086-.512-.289-1.141-.558-1.73l-.172-.392-.281.047c-.38.055-.602-.086-.61-.375l-.004-.203-.117.254c-.199.43-.836 1.125-1.215 1.309-.675.332-.867.664-.687 1.18.125.363.082.937-.082 1.12-.09.102-.09.133.016.368.066.136.136.254.16.254.02 0 .144-.075.273-.16.41-.274.633-.172.629.296-.004.5-.434 1.032-.883 1.106-.379.054-.566.172-.566.351 0 .149.02.157.386.137.215-.008.473.008.579.035.18.051.773.008.84-.058zm-22.78-.606c.03-.031-.126-.144-.2-.148-.023 0-.055.058-.078.133-.027.105-.012.117.105.082a.508.508 0 0 0 .172-.067zm5.929-.297c.312.004.445-.05.45-.172 0-.02-.099-.027-.216-.011a2.874 2.874 0 0 1-.66-.043c-.34-.051-.5-.047-.683.011l-.235.086.172.11c.137.086.242.097.5.062.172-.023.477-.043.672-.043zm-12.07-.578c-.028-.094-.754-.125-1.036-.047l-.218.059.066-.23c.031-.126.164-.34.29-.47l.234-.238-.766-.761c-.719-.72-.766-.758-.89-.668a.706.706 0 0 1-.34.093c-.122 0-.231.028-.254.063-.055.094.156 1.059.308 1.418.09.207.242.398.473.582.328.262.351.273.918.312.328.02.683.079.8.13.192.081.22.077.325-.044.062-.07.101-.16.09-.199zm7.363-.91c.031-.105.039-.215.02-.234-.02-.02-.165-.04-.317-.04h-.277l-.196.422a4.296 4.296 0 0 0-.191.465c0 .024.18.13.398.239l.407.195.05-.422c.024-.23.07-.512.106-.625zm1.488.27c.121-.004.262-.016.3-.02.165-.023.145-.262-.054-.68l-.199-.425-.121.183a.965.965 0 0 1-.285.277c-.125.063-.156.118-.133.215.023.075.039.227.039.344 0 .18.02.207.113.164a1.14 1.14 0 0 1 .34-.058zm2.895-.047c.457-.016.46-.016.425-.176a2.982 2.982 0 0 1 .067-1.645c.043-.14.035-.144-.203-.109-.532.09-.559.098-.5.215.062.14.031 1.043-.047 1.12-.031.028-.172.06-.32.063-.22.004-.282.036-.387.2-.11.175-.117.21-.031.332.082.113.128.12.312.07.121-.031.426-.063.684-.07zm8.316-.02c0-.129-.16-.43-.281-.531-.082-.067-.113-.047-.2.113-.128.246-.132.227.11.38.254.16.371.17.371.038zm-6.555-.223c.364 0 .711-.113.668-.218a9.323 9.323 0 0 0-.367-.61c-.215-.343-.347-.625-.375-.816-.027-.191-.078-.297-.14-.309-.172-.035-.54.258-.586.465-.075.336-.055.828.035 1.133.12.395.207.5.363.422.066-.04.246-.067.402-.067zm-12.8-.09c-.024-.058-.082-.093-.149-.097-.094 0-.094.008.012.129.129.14.195.125.137-.031zm26.082-.257c.027-.09.027-.34 0-.563-.035-.367-.028-.41.136-.605.293-.344.547-1.414.547-2.344v-.266l-.293.13a2.649 2.649 0 0 1-.644.163c-.192.02-.352.047-.352.059 0 .012.094.188.207.387.184.32.211.426.211.824 0 .43-.012.473-.21.672l-.208.21.242.747c.133.41.258.746.286.746.023 0 .058-.074.078-.16zm-31.118-.445c.247 0 .532.023.633.054l.176.055-.02-.625c-.019-.711-.019-.711-.539-.629-.261.035-.285.055-.285.219 0 .242-.14.379-.453.425-.297.047-.293.04-.355.364l-.043.246.219-.055c.117-.031.417-.055.667-.055zm13.254-.407c-.28-.355-.293-.386-.164-.492.52-.398 1.149-.48 1.532-.191.25.187.359.21.359.078 0-.137.281-.328.61-.418.277-.078.3-.106.366-.36.086-.335.485-.808.836-.98.145-.074.375-.129.559-.129.27 0 .34-.027.527-.215l.215-.219-.187-.043c-.297-.058-.375-.124-.399-.324a.63.63 0 0 0-.086-.258c-.148-.171.364-.675.973-.949.336-.152.39-.203.355-.308-.167-.496-.105-.93.192-1.36l.223-.312-.282-.489c-.285-.492-.738-1.117-.808-1.117-.02 0-.305-.261-.633-.578-.324-.316-.625-.566-.668-.554-.047.019-.09.093-.102.171-.03.184-.222.286-.683.387-.371.074-.387.07-.766-.121-.465-.234-.5-.238-.5-.047 0 .11.113.234.39.453.462.356.595.535.567.774-.027.218-.25.379-.7.492-.374.098-.362.07-.273.508.02.117-.015.289-.113.492-.105.226-.133.332-.082.383.051.05.094.004.145-.157.086-.261.367-.386.773-.347.238.023.242.015.317-.242.093-.34.386-.532.898-.579.336-.03.39-.015.578.141.227.184.25.316.121.684-.113.32-.277.484-.531.53-.121.024-.219.052-.219.067 0 .02.055.141.13.278.179.347.167.539-.052.691-.375.262-1.047.25-1.457-.027l-.234-.153v.149c0 .187-.094.265-.422.37-.144.048-.281.15-.328.235-.04.086-.2.258-.348.387-.195.164-.265.262-.234.34.047.125.465.328.863.426.332.082.547.328.524.597-.016.157-.075.223-.297.336-.211.09-.434.153-.66.18-.372.043-.395.055-.516.293-.113.223-.156.246-.371.246-.129 0-.336-.059-.457-.133-.117-.066-.223-.117-.23-.105-.106.11-.551.851-.551.91 0 .039.043.164.097.265.082.165.149.204.418.239.196.015.383.09.528.219.12.109.253.168.32.148.105-.027.098-.05-.063-.262zm9.692-.023c.187-.395.203-.797.039-1.008-.195-.262-.348-.668-.305-.813.043-.128.074-.132.574-.101.29.02.559.012.606-.016.133-.093 1.37-2.383 1.37-2.539 0-.125-.038-.148-.187-.148-.238 0-.972-.38-.972-.5 0-.074-.07-.086-.371-.051-.535.063-.852.238-1.078.59-.317.488-.368.691-.395 1.64-.012.497-.059 1.024-.098 1.18-.066.254-.054.352.106.86.238.78.422 1.238.492 1.238.031 0 .129-.149.219-.332zM13.637 16a.735.735 0 0 0 .093-.23c.055-.227-.187-1.325-.375-1.688-.09-.172-.16-.414-.16-.539a2.79 2.79 0 0 0-.043-.469c-.039-.23-.043-.234-.132-.11-.098.141-.536.384-.684.384-.203 0-.309-.192-.266-.477.043-.293-.035-.414-.199-.285-.14.117-.113.406.07.762.254.504.207.738-.16.777-.261.023-.328.148-.105.203.25.059.363.34.363.895v.484l.258-.133c.332-.168.445-.129.773.254.262.305.422.352.567.172zm6.453-.078a4.925 4.925 0 0 0-.293-.594c-.016-.015-.098.067-.195.172-.22.262-.477.27-.672.027-.145-.18-.149-.375-.024-.918.04-.18.02-.199-.457-.277-.207-.031-.332-.117-.617-.418l-.352-.375-.289.227c-.16.125-.3.25-.308.277-.012.027.402.445.914.93l.933.875.375.02c.207.007.5.058.665.109.394.125.39.125.32-.055zm6.492-.817l.27-.535-.293-.203-.293-.207-.145.137c-.11.09-.234.16-.371.2l-.223.058.09.398c.051.219.106.461.117.54.024.124.07.144.305.144h.273zm-11.715-.195c.051-.062.063-.226.031-.535-.035-.355-.023-.473.063-.594.156-.219.125-.386-.11-.617l-.214-.203-.082.273a2.637 2.637 0 0 1-.211.48c-.16.259-.145.856.031 1.122.121.184.371.223.492.074zm36.551-1.316c-.105-1.164-.133-1.297-.281-1.457-.168-.176-.184-.145-.098.172.063.222.055.308-.047.53-.172.376-.144.63.137 1.274.332.746.394.637.289-.52zm-31.2-.344v-1.3h-.16c-.093 0-.242-.075-.335-.165-.141-.144-.16-.207-.133-.496.012-.18.117-.531.23-.785.137-.293.203-.555.203-.746 0-.281-.003-.29-.187-.29-.16 0-.195.024-.195.141 0 .079-.106.293-.235.477-.297.43-.457.445-.847.062l-.278-.27h-.527c-.293 0-.582-.023-.645-.054-.07-.031-.113-.027-.113.016 0 .035-.086.191-.191.34-.23.32-.332.797-.258 1.187.098.54.45.508.613-.055.07-.246.352-.503.594-.55.176-.028.25-.008.379.113.16.145.168.18.14.676-.02.289-.02.527-.011.527.015 0 .136-.062.277-.133a.925.925 0 0 1 .469-.113c.172.016.234.063.332.266.117.226.117.254.015.511-.12.317-.5.778-.683.832-.07.024-.129.07-.129.102 0 .11.395.262.582.219.246-.055.645.113.645.273 0 .102.347.52.43.52.01 0 .019-.586.019-1.305zm27.966.957c.367-.383.566-.762.625-1.191.039-.297-.07-.496-.282-.496-.191 0-.336-.2-.336-.454 0-.27.364-1.07.485-1.07.043 0 .144-.055.222-.117l.141-.113-.172-.2c-.094-.109-.16-.226-.156-.254.031-.187-.04-.289-.309-.417-.293-.149-.3-.16-.312-.465-.008-.242-.094-.47-.367-1l-.356-.684-.133.43c-.105.3-.238.59-.398.867a4.383 4.383 0 0 0-.262.477c0 .023.196.03.426.02.422-.02.438-.017.68.222.336.324.41.566.41 1.36-.004.507-.04.776-.149 1.128-.074.25-.164.473-.199.488-.027.02-.023.2.012.399.031.207.043.605.023.894-.015.29-.007.524.02.524s.203-.157.387-.348zm-26.051.031c.273 0 .472-.12.472-.293 0-.05-.05-.11-.113-.129-.187-.07-.465-.359-.465-.484 0-.191.118-.371.465-.727l.324-.328-.132-.164-.13-.164-.335.406c-.18.23-.446.504-.582.614l-.258.195v1.152l.242-.035c.133-.023.363-.043.512-.043zM27.98 13c.157-.242.125-.375-.12-.508-.13-.062-.231-.164-.231-.219 0-.058.09-.285.195-.503.211-.442.238-.582.113-.7-.125-.129-.238-.086-.28.102-.087.348-.462.582-.938.582-.145 0-.207.066-.375.367l-.2.36.172.136c.153.117.16.153.094.281-.11.204-.043.23.25.098.293-.125.766-.098 1 .063.18.125.2.12.32-.059zm9.223-1.684c-.11-.52-.418-1.195-.508-1.105-.023.023-.277.035-.566.031-.414-.008-.508.004-.453.067.035.043.12.226.191.406.07.176.293.683.492 1.125.196.445.391.887.43.98.07.168.078.157.297-.394l.227-.574zm8.34 1.399c0-.04-.027-.067-.063-.067-.035 0-.062.028-.062.067 0 .031.027.058.062.058.036 0 .063-.027.063-.058zm-30.063-.477c.02-.09.141-.261.27-.39l.238-.23-.043-.727c-.039-.75-.117-.973-.379-1.114-.09-.05-.164-.039-.28.036-.153.101-.157.113-.114.753.031.536.02.688-.067.856-.152.289-.132.55.063.773.203.239.258.246.309.043zm6.145-.312c.14-.078.59-.653.59-.75 0-.031-.043-.055-.102-.055-.054 0-.187-.101-.297-.223-.109-.125-.222-.222-.246-.222-.09 0-.32.636-.32.883 0 .449.082.53.375.37zm23.824-.852c.172-.234.332-.5.36-.59.023-.086.093-.261.148-.394.133-.3.133-.54.004-.61-.055-.027-.145-.18-.2-.335-.195-.57-.335-.579-.597-.047-.11.222-.2.433-.2.484 0 .043-.054.188-.116.316-.22.426-.23.504-.043.547.258.063.328.297.203.625-.137.356-.133.434.015.434.082 0 .235-.152.426-.434zm5.508 0c.055-.043-.207-.207-.332-.207-.113 0-.164.188-.078.278.043.039.348-.016.41-.07zm-12.766-1.18l.454-.949-.196-.101c-.508-.274-.543-.406-.207-.739.14-.136.207-.16.38-.128.151.027.265 0 .437-.11.32-.21.375-.36.324-.953-.04-.476-.031-.512.137-.762.171-.257.171-.273.074-.476-.086-.176-.14-.219-.301-.219h-.188v.563c0 .59-.039.675-.328.851-.109.066-.203.219-.277.457-.102.328-.133.36-.281.344-.137-.016-.18.016-.219.164-.152.547-1.04.867-2.383.867-.441 0-.445 0-.445-.168 0-.254.465-.664.957-.848l.402-.148-.375-.2c-.472-.25-1.18-.722-1.18-.792 0-.094.235-.262.43-.297.192-.04.2-.055.239-.465.027-.265.101-.55.218-.781.176-.352.18-.356.067-.606-.043-.097-.09-.199-.133-.3-.008-.032-.176-.008-.363.054-.32.106-.649.102-.934-.004-.074-.027-.063.028.059.239.437.781.457 1.84.035 2.101-.07.047-.133.145-.133.215 0 .192.281 1.074.508 1.61.113.261.203.539.203.62 0 .184.043.192.21.044.188-.168 1.38-.204 1.622-.047.285.187.476.715.293.824-.129.078-.059.367.172.738.129.207.242.371.25.36.008-.008.218-.442.472-.957zm.524.778a9.005 9.005 0 0 1 1.031-.215c.367-.055.695-.129.734-.16.098-.094-.07-.402-.378-.7-.22-.218-.348-.284-.594-.324a4.312 4.312 0 0 1-.403-.085c-.07-.028-.152.05-.265.265-.09.164-.274.488-.399.711-.125.23-.25.484-.273.57-.043.133-.035.145.07.102a6.56 6.56 0 0 1 .477-.164zm3.125-2.277c.215-.684.238-.825.187-1.082l-.058-.297-.352.015c-.597.02-.8.02-.933.004-.223-.031-.196.192.035.317.117.062.285.175.37.261.141.133.153.18.118.508-.016.164-.047.324-.078.484-.04.145.34.715.422.625.023-.027.156-.402.293-.835zm-7.8-1.473a.832.832 0 0 0-.224-.48c-.3-.31-.468-.755-.464-1.247v-.422l-.27-.078c-.25-.066-.293-.058-.504.075-.121.082-.273.18-.332.21-.09.055-.094.102-.035.317.043.137.059.383.039.543l-.04.285.438.336c.239.184.637.5.88.707l.449.383.054-.176c.024-.09.028-.293.008-.453zm3.542-.461c.023-.184.063-.426.078-.54.035-.19.024-.206-.133-.206-.148 0-.164.023-.164.238-.008.149-.05.297-.117.43-.117.187-.117.187.047.297.062.043.133.078.207.113.02 0 .059-.148.082-.328zM40.68 5.27c.023-.036-.024-.063-.094-.063-.078 0-.121.027-.098.063.02.03.063.062.098.062.027 0 .07-.031.094-.062zm0 0"/></svg>