<svg xmlns="http://www.w3.org/2000/svg" width="64pt" height="64pt" viewBox="0 0 64 64"><path d="M31.793 0C14.234 0 0 14.398 0 32.176c0 17.777 14.234 32.176 31.793 32.176 17.562 0 31.797-14.399 31.797-32.176C63.59 14.398 49.355 0 31.793 0zm5.289 3.992c.395.246.594.688.867 1.008l.45-.355c.253.87.734-.043 1.183-.036l.418.813.867-.164c-.043.187-.242.476 0 .586.324-.125.559-.067.992-.032l-.097 1.004.61.329-.77.71.449.75 1.156-.097.574-1.04c.192.126.13.575.29.81.3-.016.714-.278 1.058-.192l-.16.777c.449.063.86.27 1.12.617.317-.304.665-.543 1.122-.52l.32.49c.293-.177.453-.68.801-.587l.066.844c.34.14.973.004 1.059.52l-.516.421c.395.211.485.63.579.942.593-.176 1.02-.422 1.472.133.45-.375.863-.93 1.41-1.075l.16.649 1.348-.387.098.063c-.043.441-.91.976-.227 1.3.086.438-.547.504-.64.91l.707.68c.222-.078.523-.422.77-.258.323-.355.386-1.058.894-1.203l.418.586c.328-.043.675-.308.992-.133-.09.282-.442.84 0 .977l.387.258c-.168.195-.454.187-.547.422l.707.586c-.38.16-.883.132-1.317.195-.12.148.024.469-.222.484-.602-.34-.735.457-1.059.848-.316.172-.539-.395-.863-.457-.356.312-.723.598-1.156.715l-.352-.617.45-.582-.74-.293c-.116-.278.688-1.09.067-1.075-.203-.261.075-.574-.289-.843-.511.297-1.21.636-1.797.75l-.129-.36-.253.067-.899.453c-.2-.145.317-1.227-.61-1.2l-.257-.097c.102-.414.91-.89.164-1.203l-.578-.258.129-.781-.899.39c-.34-.18-.64-.34-1.027-.324-.46.535-.324 1.266-.223 1.817l-1.09-.063-.289 1.168.579.129c-.149.375-.829.566-1.22.941-.14-.464-.437-.988-.96-1.168l-.418-.097c.168-.469.922-.707.77-1.301-.465-.43-1.602.098-1.602.098v-.192l-.031-.75c.3-.183.879-.426.863-.906-.168-.32-.563-.02-.832-.035.11-.38.2-.88 0-1.2-.45-.171-.465.38-.836.551l-.672-.91.258-.484c-.227-.086-.61-.102-.77.062l-.547.782c-.222-.172-.707-.286-.96-.262l.32.941c-.492.114-.762.024-1.215-.031l-.355 1.395-.77-.52-.8.715c-.2-.137-.66-.352-.802-.649l-.511.618-1.059.875c-.008-.422.227-.774.383-1.2l-.063-.097h-1.152c.016-.239.3-.676.672-.88v-.16l-.61-.355.192-.293c.969-.781 1.754-.43 2.66-1.332-.043-.312-.46-.379-.734-.422l-.516-.097c.188-.336.512-.528.801-.746-.098-.36-.105-.852-.414-1.235.309-.21.89.153 1.344.16.054-.234-.16-.664-.125-.875.609-.226 1.168.184 1.761.293zm-7.82 1.785l.289.457 1.156-.359c.098.02-.094.422-.035.39l-.192.262c-.574.196-1.175.309-1.632.715.43.43.957.254 1.215.942-.231.117-.676.25-1.024.421l.418.973c-.219.04-.863-.375-.93.227l-.386 1.265c-.09.102-.145-.152-.352-.195-.219.203-.164.453-.227.715l-.93-.063c.134.543.614.97.708 1.59l-1.281.16c.214.426.777.614 1.023 1.106-.633.289-.668 1.039-1.023 1.46-.192-.296-.25-.652-.258-.972-.418-.05-.477.617-.77.844-.258-.149-.199-.7-.414-.88-.11-.167-.191-.058-.324 0-.23-.03-.305.356-.574.458.008-.422.039-1.035.222-1.527-.28-.227-.855.187-1.25-.032.008-.265.508-.605.641-.91l-.414-.453c.836-.45-.254-.91-.227-1.496l1.477-.29c-.043-.46-.477-.91-.77-1.362l.895-.164c.02-.414.09-.7.289-1.04l.578.13c.117-.551.34-1.317.223-1.817l.066-.066 1.059.324.32-.293.254.586.61-.973c.21.102.437.262.546.485.325-.055.602-.598 1.024-.618zm9.328 7.5l.418.036c-.043.246-.32.476-.48.68.265.218.41.132.35.519l.321.324-.066.52c-.32-.102-.473-.465-.832-.387-.336-.344-.696.11-1.121.062-.16.203-.098.489-.13.684l.259.129c-.118.199-.95.168-.516.715l-.64.257v.586c-.114.094-.524-.074-.77.13l-.125-.227c.324-1.016.398-2.04.8-2.922.415.21.587-.445.77-.649.133-.101.152-.511.383-.324l.258.258c.258-.55.687-.203 1.12-.39zm-17.117.262c.316.36.578.8.578 1.234.254-.027.547.067.547.391l-.547.711-.703-.387-.547.325-.031.68c.398-.212.949-.462 1.44-.227-.038.195-.648.644-.253.91l.863-.227-.097.715c.527-.133 1.156-.473 1.636-.293l.16-.066c-.292.406-.992.78-.64 1.398l-.61-.195-.226.617v.031c-.352 0-.492.176-.766.293-.68.434-.496-.668-.77-.844-.218.067-.378.368-.546.29-.059-.204-.133-.372-.191-.618l-.579-.062-.062.941-.192.258-.48-.289c-.36.11-.035.66-.066 1.004l-.961.262.77.648.64-.715c.27.059.191.426.16.586l-.031.13c.258.175.683.163.8.487-.144.153-.41.239-.64.325-.078.234-.063.64-.352.648l-.257-.488c-.184.015-.329.242-.512.164-.082-.29-.059-.547-.16-.813l-.387.164c-.309-.215-.902-.132-1.441 0v.196c.316.117.625.148.8.484-.054.523-.515.129-.738.129l-.289.39c-.09-.148-.438-.617-.895-.617l-.128-.648c.05-.137.171-.113.289-.129.027-.121.046-.234-.032-.36l-.965-.324c.16-.378 1.528-.449 1.797-.777l-.48-.879.832-.226-.16-.875c.031-.297.906-.27.867-.227-.008-.469-.36-.73-.258-1.203l.578.066c-.234-.855-.27-1.46-.32-2.273.523.242 1.043.793 1.375 1.266.242-.25.094-.52.418-.715l.289.55.32-.19-.258-.49c.22-.312.61.106.899-.03-.047-.461.258-.825.512-1.106zM20 15.355l-.063.036c-.18.23-.511.449-.355.746h.129c.36-.086.719-.961 1.059-.293l.03-.031.032-.325-.703.16zm-3.941 5.977c-.036.14-.086.32-.067.484.164-.039.594-.183 1.028-.289v-.359c-.133-.313-.422-.55-.707-.715l-.192.098c-.117.289.102.594 0 .781-.02.008-.039-.004-.062 0zm2.789.031l.48-.226-.129-.098-.031.031-.227-.195c-.082-.05-.257.098-.191.262.055.074.066.152.098.226zM35 14.223l.418.422-.61 1.816c-.425-.086-.898.684-1.156.031-.105-.305.254-.21.32-.387l-.542-.554c.222-.16.578-.149.832-.227 0-.21-.051-.558.258-.55.417.093.234-.387.48-.551zm-21.41 1.59c.23.085.473.332.512.582.242-.118.437-.383.738-.258-.055.71.664.113 1.058.293l-.226.617.515.031c.106.258-.289.594-.515.649-.574.043-.91-.235-1.344-.618-.16.348-.09.496-.066.88-.125.093-.453-.048-.61-.134-.097.239-.007.84-.382.715-.145-.21-.446-.195-.61-.195-.254.145-.148.383-.031.586-.379.07-.649.293-.899.617.102.211.395.192.579.324l-.516.391.098.484c-.446-.117-.817-.074-1.22.196-.483.332.31.582.161.879-.156-.075-.453 0-.512.195-.34-.035-.789-.195-1.09.031.016.297.172.692.48.942l.388.128-.48.52c-.22-.168-.579-.266-.806-.098-.207.485-.464-.093-.703-.03l-.609.163c.05-.324-.52-.32-.672-.328a5.251 5.251 0 0 0-.898.39l-.801-.097c.039-.3.332-.656.672-.715.031-.152-.324-.383-.031-.52l.96.196c.23-.195.438.004.739.066l.129-.226c-.153-.258-.532-.426-.547-.782l.547-.062c.007-.195.015-.504.254-.586l.449.293c.11-.164.176-.332.418-.324l.511.097c.215-.421-.69-.496-.351-.976l.48.098c.047-.27.114-.707.48-.68 0-.235-.148-.492.161-.652l.223.035c-.055-.41.453-.453.77-.586l-.93-.586c0-.23.421-.371.707-.387l.738.356c.074-.18.144-.497.351-.52l.512.262c.078-.383.414-.524.738-.617-.015-.383.18-.782.48-1.04zm32.21.55c.552.008.638.188.77.39l-.289.227.29.13-.579.976-.894-.133c.074-.14.062-.398-.356-.422l-.191-.031c.148-.125.465-.195.738-.258-.117-.144-.148-.281-.098-.426.133-.105.25.012.45 0zm2.278 0l.063.325.418.128c.152.125-.036.598.03.715l.802-.808.386 1.07s-.125.46.063.55c-.258.18-.59.079-.738.294l-.61-.293c-.078.117-.23.402-.449.453 0 0-.281-.223-.383-.29l-.32.098c-.254.063-.262-.32-.547-.39-.207.058.738-1.656.738-1.656zm-9.2.422c.45.027.802.63 1.153.91.242-.086.496-.258.739-.164l.16.457c.3-.05.656-.84.898-.39.238.32-.398 1.12.32 1.105l-.48.777.96.196.962-1.137.097.031.032.88c.449-.145 1.058-.24 1.504-.036l-.446.617c.575.227 1.168.39 1.73.813l-.355.36c.27.26.817.675.93 1.167h-.48c.37.305.878.57 1.12 1.04l-.863.03-.257.618-.543-.551-.836.906-.254-1.137-1.028.23.227-.585c-.188-.188-.578-.184-.8-.293l-.29.035.64-.812c-.097-.622-1.195.28-.995-.747l-.125-.097c-.438.234-.559.805-.868 1.137l-.64-.52c-.324.27-.594.656-.8 1.04a2.43 2.43 0 0 0-1.06-.423l-.289.485-.191.293c-.137-.54.332-1.25.383-1.883l-.735-.13c0-.163.414-.6.641-.78-.27-.329-.703-.286-1.027-.485l.898-.617c-.152-.336-.57-.465-.738-.813l-.414-.648h1.12zm18.24.88c.19.1.089.519.03.679l.704-.032.066.16c-.168.4-1.07.356-.738.813l.222.262c-.25.195-.847.426-1.023.906l1.152.067-.32.488c.402.055.586.492.738.844l-.898.062-.094 1.106.063.293c-.317-.446-.54-1.29-1.122-1.43-.117-.04-.214.055-.355.129-.148-.184-.406-.774-.832-1.07-.25.128-.563.253-.64-.13-.317.211-.962.149-.962.649-.242-.137-.644-.668-.93-.55l.063-.587-.77-.066c.036-.293.31-.528.579-.711.394.086.715.672 1.12.289l.29-.258.387.356c.347-.176.367-.54.543-.809l.191-.066.61.55c.3-.218.25-.652.32-.906l.707.031zm-23.88.062l.512.812.832-.195c.078.062-.453.687-.094.781l.93-.133h.16l-.64.88c.246.058.66.015.8.257-.593.367-1.484.797-1.636 1.594l.515.093-.547.848c.262.117.653-.023.93.258l-.383.746c.367.055.801.234 1.024.648l-1.153.23h-.258l-.863-.554c-.18.29.11.883-.097 1.203l-1.153.13.094.519c-.398.18-.856.082-1.09.488.164.195.531.43.352.715-.715.168.043.637-.16.906l-1.055-.289-.098.453c-.316-.32-.703-.687-1.152-.746-.055.352-.375.16.16.52-.344.265-.773-.137-1.059.195l.48.973h-.866c.007.332-.008.82.035 1.265-.27-.094-.899.617-.899.617-.183-.246.036-.898-.226-1.039l-.543.52c-.055-.23-.16-.617-.16-.617-.102-.203-.555-.227-.707-.227-.125-.414.347-.558.386-.941l-.707-.13.547-.652c-.285-.277-.629-.609-.672-1.039.532-.039.668-.066 1.215.036.176-.157-.008-.547.13-.813.155-.086.269.164.417.195.008-.261.29-.422.45-.39l1.09.36c.347-.247.476-.923.8-1.04l-.16-.781.863-.067c.438-.289 1.016-.074 1.219-.613l.351-.262c-.359-.441-.675-.18-1.023-.324l.351-.648c-.464-.305-.98-.004-1.472-.133.008-.168.355-.559.64-.746l-.191-.617c.29.074.48.254.734.066-.074-.398.122-.867.29-1.203l.992.262c.054-.22-.153-.45-.125-.715l.254-.813.16-.062.675.484c.149-.394.368-.906.801-1.265zm15.961 2.89c.274.445.367.977.352 1.461l.8.098c.063.16-.23.363-.253.55.332.149.886.09 1.12.52-.44.32-.964.188-1.507.422-.25-.152-.082-.441-.352-.55l-.707.777a2.422 2.422 0 0 1 .098-1.364l-.383-.16-.258-.226.258-.067c-.14-.46-.48-.863-.418-1.363.285.015.645.176.93.453zm-33.91 2.531l.992.196.48.55.45-.55c.039.148.8.422.8.422.329-.078.571-.586.739-.582l.352.68c-.239.062.058.808-.16 1.105l.675-.196.703.454c.008.105-.32.515-.383.683-.093.238.329.223.286.324l-.16.422.707.227-.352.55h1.215c-.035.305.023.91.097 1.43.02.137.653.207.672.325.051.304-.16.976-.16.976-.113 0-.629-.289-.8-.164-.512.383-1.172.55-1.06.293l-.64-.91c-.625-.203-1.219.172-1.055-.067l.352-1.003c-.008-.106-.64.046-.93-.13-.011-.3-.347-.757-.257-.78-.852.077-1.184-.032-1.184-.032l.414-1.266c-1.047.075-.773-.472-.8-.714l-1.505-.067c-.082-.191 1.153-.77 1.313-.844-.223-.136-.8-1.332-.8-1.332zm25.832 1.364l-.129.91.32.129-.351.36.258.355c-.227.093-.793.21-1.028.617-.175-.117-.543-.13-.703.097a.537.537 0 0 1 .254.715c.309-.047.696-.02.996.258.317-.363.793-.476 1.184-.324l.066.066-.547.582c.278.141.575.082.899.262l.289.324c-.047.14-.504-.183-.672-.16l-.707-.035.031.586c-.324-.29-1.004-.399-1.312-.262.168.32.023.727-.098 1.106l-.578-.391c-.332.273-.488.715-.734 1.07-.336-.254-.79-.09-1.09-.191-.07-.172.218-.375.32-.422 0-.312-.422-.246-.512-.422.114-.23.414-.035.575-.035l.449-.484-.29-.098c-.097-.133.325-.559-.03-.652l-.641.23c-.086-.344.015-.621.222-.91l.29-.164-.512-.649.672-.257c0-.203-.215-.594-.13-.813l.645.13c.098-.438.684-.18.93 0 .23-.11.332-.267.64-.196.051-.586.477-1.184 1.024-1.332zm15.066.164c.333.082.649.183.801.55.184.145.41-.199.64-.292.278.195-.425.941.224 1.171l-.575.454.32.453-.929.164v.582l-.676-.031c-.023.187.02.511-.031.746l.387.23-.258.356c.18.109.328.246.45.39a.609.609 0 0 0 .128-.554l.512-.844s.047.566.289.715h.93c.05.039-.172.304-.258.457.316.183.64.105 1.027.289l.863.36-.898.386.547.586c-.278.117-.555.258-.93.195-.293.219.031.79 0 1.203-.57-.047-1.129-.285-1.281-.847-.344.238-.227.543-.45.878-.316-.312-.492-1.082-.992-1.039l-.32-.457.383-.226c-.176-.168-.324-.371-.512-.485l-.738-.195c.015-.266-.41-.215-.61-.39l.45-.52c-.192-.313-.606-.555-.961-.648l.222-.391-.48-.39.32-.325c-.14-.414-.601-.344-.832-.617.024-.258.29-.207.418-.356.516-.328 1.024.29 1.57.196l-.32-.684c.051-.11.602-.125.863 0l.29.488c.292-.078.62-.207.863-.324-.406-.246-.446-1.234-.446-1.234zm-.097 5.875c.09.086.176.191.289.226l-.031-.355zm.258-.13l.093-.03-.093-.196zm0-.226l-.035-.293c.132-.015.542-.187.417-.195-.054-.11-.12-.18-.19-.258-.118.14-.306.235-.45.324zM5.48 25.13c.286.05.778.129.801.555l.032.71a.916.916 0 0 1 .93-.16l.288.16c-.355.204-.66.688-1.09.75.118.372-.609.934-.222 1.2h.511c.235-.586.649-.828 1.25-.875.118.039.211.047.227.195l-.61.809c.25.078.508.277.641.52-.203.585-.824.179-1.09.585l.063 1.137c-.441.078-.66-.43-.899-.684-.28.188-.273.79-.734.555l-.226-.457-.13.035c-.19.516-.117.957.098 1.395-.23.125-.586.199-.703.52.184.257.567.14.766.421-.04.234-.36.402-.192.648a4.646 4.646 0 0 1 1.09-.062c.23-.863.664.105 1.09.031-.266.281-.48.606-.543.91-.258.125-.601-.27-.867 0l.098.746c-.618.594-1.239-.668-1.73.196.015.554.757.242.929.808.137.567-1.113 1.024-.29 1.43l.321-.062-.066.68c.27.148.523-.188.707-.325.277.129.61.281.898-.031l.32-.52c.493.125 1.004-.277 1.282.52-.14.242-.207.406.03.648l.45.16c-.008.274-.633.395-.351.715-.34.254-.926.051-1.25.457l.289.52c-.227.176-.59.41-.48.715.741-.282.53 1.171 1.28.68-.043.32.098.945.512 1.105l.352-.164c.21.218.304.578.547.746.351-.328.437-.875.32-1.492.351-.121.672-.344.832-.715l.418.293c.02.203-.258.468 0 .715.258-.043.473-.176.64.03l-.289.684c.5.118.989.41 1.122.907-.254-.125-.176.515-.512.359l-.48-.227c.081.489.285.95-.032 1.364-.39.125-.851-.246-1.027-.684l-.192-.355c-.234.218-.5.363-.738.16l-.254-.422c-.273.422-.652 1.031-1.187 1.074-.25-.203-.176-.789-.098-1.172.277-.16.137-.406-.062-.582-.243-.258-.454-.441-.707-.066l-.286.262c-.18-.211-.691-.086-1.027-.164-.34-.551.73-.965-.098-1.364l-.48.52-.61-.36c-.156.282-.105.871-.605.88-.426-.055-.3-.481-.387-.684-.215.027-.547.062-.672-.16.243-.399.676-.528.993-.782a.515.515 0 0 1-.16-.582c.199-.261.464-.379.738-.488.015-.32-.375-.555-.45-.875-.277.082-.43.145-.707-.035l-.285-.52c-.289.305-.707.367-1.09.36l-.066-.098c.078-.414.672-.746.867-1.137-.293.051-.25-.273-.195-.39l.324-.422c-.285-.242-.148-.746-.066-.973-.38-.058-.735-.18-.864-.617-.39.25-.832.605-1.285.453-.086-.242.141-.496.258-.715l-.45-.062c.036-.407.337-.942.802-1.137l.578.031c.137-.23.441-.285.64-.324l.063-.488-.8-.098c.046-.371.456-.797.675-1.2-.277-.468-.645-.706-.707-1.265.184-.18.402-.21.64-.23.087-.2-.18-.445 0-.68l.45-.586c-.23-.152-.598-.156-.703-.484.218-.543.773-.762 1.312-.813-.047-.336.215-.816.61-.879-.243-.312-.543-.605-.48-.972.444-.14 1.01-.02 1.312.226-.016-.363-.059-.535.128-.941zm7.758.164l.254.062-.254.942c.352-.024.41.242.29.555l-.16.293c.152.168.796.136.48.52-.235.292-.551.237-.805.483.172.086.484.223.324.52-.265.297-.61.504-.996.586l.031.258c-.316.093-.687-.219-.992-.29.012.2.012.653-.223.712-.234-.016-.351-.258-.449-.454l.063-.585c-.196-.11-.473-.34-.29-.582.235-.149.419.113.677.16-.133-.43.464-.153.48-.52-.148-.582-.996-.45-1.188-.906.375-.238.86-.262 1.25-.262-.101-.262-.27-.832.258-.91.535.61.715-.555 1.25-.582zm32.403.55c.34.266.632.509.707.942.187 0 .422.078.609.164.273-.422.695-.418 1.055-.36-.008.278-.211.509-.13.782.43-.137.68-.086 1.06.063-.07.5-.88.77-.864 1.27.098.155.453-.032.383.257l-.418.355c.664.407 1.465.477 2.02.977l.097.195-.898.098c-.067.32.508.352.515.617l-.547.129c.23.32.708.207.961.484.637.407.778 1.086.836 1.82-.359-.296-.87-.495-1.316-.488-.14.258.148.563.098.782l-.45-.067-.578.39-.031-.843-.129-.066-.48.586-.61-.746c-.406.43-.418 1.097-.96 1.394.148-.805.034-1.242.35-2.047l-.96-.195c.031-.227.379-.52.61-.68-.083-.297-.391-.34-.579-.52-.062-.261.285-.292.418-.488-.457-.261-.695-.058-1.09-.128-.008-.391.68-.84.707-1.395-.316-.172-.386.027-.707.098-.101-.282-.418-.082-.543-.262-.132.203-.406.32-.609.39l.254-.94-.703-.458c.117-.168.527-.258.8-.258l.032-.129-.29-1.039.801.258c-.113-.289.356-.66.579-.941zM33.75 27.079c.035.34.426.48.418.875.184.027.512-.285.543.067 0 .109-.055.207 0 .324.394-.008.477-.434.61-.746.167.093.269.449.222.746l-.094.195.29.195c.081.168-.2.196-.227.356.16.363.554.238.61.652l-.481.324c.367.407.84.579.867 1.168l-.29.293c-.57.246-.316-.793-.866-.422L35 30.844c-.25.172-.012.55-.29.879-.16.007-.284-.22-.35-.36l-.192.164-.129.52.418.129c.445.11.129.664.191.68l.61.292c.222-.242.472-.168.672-.226.36.367-.274.523-.29.844a.902.902 0 0 1 .868.457l-.738.289c.046.14.023.465-.13.617l-.609-.195L35 35.973c-.316-.008-.809-.235-.61-.618l-.257-.03c-.051-.243.215-.415.066-.618-.441-.36-.816.152-1.219.227l-.03-.098c-.04-.16.37-.578.222-.422l-.8-.098.32-.52c-.192-.089-.731.032-.993-.226l.383-.453c.465.008.195-.48.387-.683l-.387-.325c-.367-.203-.336.32-.543.489-.234-.102-.547-.067-.578-.067-.016.196-.34.223-.45.39-.222-.023-.238-.655-.448-.812l.804-.52c.192-.507-.047-.093.063-.714l.48.195c.086.188.172-.008.29-.03l.128-.618c.25.219.188.133.512.195.27.211.27-.574.578-.097.191-.118.453-.375.383-.489l-.578-.129c-.008-.297.492-.359.32-.586-.398-.109-.879-.05-1.055-.52.032-.198.227-.218.383-.257l.066-1.168.641.453c.176-.27.324-.597.672-.746zm-15.129 4.45v.679l.418.035-.289 1.555c-.207.047-.047.039-.352 0-.035.098-.03.781-.03.781-.087.09-.516-.129-.516-.129-.215.25-.383.844-.383.844l-.258-.324c-.492.113-.992 1.199-.992 1.199l.129-2.371.93-.063.093-.746c-.039-.168.98.414.387-.879.176.25.777-.511.863-.582zm1.54.062c.093.195.148.433.288.586l.352-.36c.21.079.02.391.16.586.152.032.574-.093.64.196.016.347-.406.273-.574.422l.32.292c-.081.126-.417.504-.546.52l-1.41-.129c.043-.121.18-1.176.386-1.918zm-8.4.195c.321-.015.337.414.29.649l.289-.032.098-.066-.418 1.789c-.286-.355-.743-.781-.961-.52.375.145-.258.454-.418.68-.215.219-.485.004-.61-.129.035-.578-.789-.172-.64-.781l.191-.227c-.176-.218-.371-.488-.289-.746.246-.03.504.008.645.196.316.039.183-.282.382-.391.61-.32.371.512.899.52.203-.196.086-.79.543-.942zm42.247.781c.226.204.176.551.191.875.344.11.684-.191 1.024-.129L55 33.93c.184.101.754-.016.96.355l-.382.422.48.262c-.37.195-.976.304-1.347.582l-.352.097c.121.332.477.235.641.618l-1.633.097-.066.844c-.371.184-1.086-.191-.93.55-.281.231-.676.098-.992.329.191.387.742.348 1.121.387.027.254-.27.449-.383.715.297.156.883.124 1.184.359-.274.32-.54.25-.864.484.184.453 1.016.496.93 1.106-.383.07-.887.246-1.379.097-.125.336-.125.77-.449 1.07l-.867-.519-.61.422c-.277-.184-.203-.633-.511-.777-.364.152-.414.593-.703.55l.222-.777c-.199-.195-.277.02-.61-.066.009-.36.04-.203.29-.617l-.32-.551h.863l.45.195.355-.781c.316-.008.734.062.96-.258-.132-.344-1.07-.332-.546-.813.008-.18-.098-.312-.223-.421-.125.129-.219.277-.191.453l-1.028-.098-.129.715c-.3.055-.66-.074-.96.164-.41-.297-.813-.652-1.122-1.074l-1.152.652c-.234-.062-.137-.39-.324-.52l-.703-.261c.008-.203.437-.445.61-.649l-.74-.421c.442-.157 1.11.046 1.602.03a3.24 3.24 0 0 0 .641-1.007c.371.027.398.504.516.75-.133.203-.258.387-.192.617.442.117.723-.262 1.09-.488l.766.777.16-.062.066-.844.992.258c.184-.29-.199-.578-.32-.844.473-.309 1.066-.55 1.7-.52.03-.03.042-.093.062-.164l-.094-.16c.219-.05.734-.16 1.059-.195.074-.117-.028-.234-.035-.39.238-.29.8-.11.738-.65l-.258-.257zM51.57 35.52c-.105.097-.27.085-.383.164.079.277.399.496.543.777-.011-.02.032-.04.098-.031-.094-.36.004-.614 0-.91-.09-.016-.172.003-.258 0zm-1.28 2.37c.144-.152.355-.288.542-.359.27-.062.902-.164.867-.324l.32-.227c.012-.25-.175-.375-.257-.453a.508.508 0 0 1 .031.325l-.543-.067c-.324.438-.918.7-1.188.91.06.059.141.121.227.196zm-37.18-4.84l.19.52.77.067-.062.875c.176-.145.504-.137.992-.422 0 0-.05 2.012-.129 2.34l-.191.582c-.317-.133-.254-.739-.578-.942-.133.086-.247.282-.415.196-.585-.703-.746-1.063-.867-1.852-.011-.305.29-1.363.29-1.363zm11.507.098c.301.024.348.254.606.293l.32 1.59c.3-.168.652-.52 1.09-.386-.016-.36.113-.872.515-1.106l.512.941c.309-.218.434-.628.77-.746.133.137.082.547.351.489.024-.07.086-.102.13-.164l.222.355.484-.324c.016.375.57.508.672.879l-.64.195c-.079.328.449.531.413.875-.066.14-.812-.203-.96.164-.024.211.007.414-.16.649l-.672-.489-.258.196c-.254-.532-.883-.52-1.41-.454l-.352.16c.184.204.418.297.418.587l.64.355.704.684c.386.086.898.129 1.12.55-.05.133-.179.114-.32.164.227.333.41.625.418 1.004-.175-.039-.546-.16-.8-.03-.41.28.199.866 0 1.136-.266-.195-1.653-1.094-1.922-.781l-.516.75-.16-.555-.543-.031.32-.586c-.336 0-.812.047-1.152.164l-.098.031c.075-.367.633-.633.864-.844l.035-.586a1.265 1.265 0 0 0-.867.133c-.176-.101.03-.289-.16-.422l-.801.422v-.36c-.317-.175-.953.114-1.348.134.078-.559.676-1 1.059-1.27l-.32-.289c.007-.172.34-.176.449-.23l-.672-.844.574-.13c.062-.288-.207-.526-.383-.776.469-.133 1.031.007 1.41.16.133-.18.094-1.383.418-1.657zm-5.61 1.497c.36-.063.661 1.015.993.257.215.059.465.243.45.453L20 36.852c.254.203.629-.215.93.128.23.536-.367.926-.352 1.395l1.024-.129c.253.063.164.441.03.617l-.093.196c.398.234.688-.59 1.09-.098.133.117.133.367 0 .39l-.578.196c.148.121.105.445.066.617-.52.152-1.207-.852-1.476.094-.23.18-.434-.028-.641-.094-.348-.34.395-1.11-.383-.977-.242.211-.555.536-.195.747-.098.28-.29.507-.254.843.184.13.398.133.574.133l.098.875 1.058-.293c.168.27.04.555-.128.813.308.086.707.18.8.55l-1.058.329c.09.285-.407.37-.61.421-.492.012-.422-.585-.672-.714-.214.168-.406.394-.671.355-.235-.25.082-.758-.192-1.07l-.195-.031c-.492.277-.645 1.156-1.313.906-.191-.285.297-.48.32-.715-.152-.293-.456-.688-.03-.875l.64-.164c.176-.328.195-.492.254-.875-.23-.156-.293.012-.543-.031v-.196c-.324-.074-.555.301-.93.16.11-.265.258-.68-.129-.843.008-.242.235-.367.418-.485-.293-.238-.488-.566-.511-.843.113-.149.3-.121.445-.164-.113-.38-.168-.672.066-1.04.375-.234.797.122 1.22.196.085-.203.026-.555.32-.617l.382.164c.227-.18.137-.325.192-.586l-.414-.52.289-.324c-.043-.29-.067-.43.16-.648zm-7.948.16c.246-.04.625.027.832.066l.898 1.688c-.258.21-.723.238-.93-.032-.183.145-.625.317-.867.13-.215.21-.379.558-.672.616-.476-.16-.035-.89-.351-1.007l-.512-.032c.074-.238.258-.457.543-.488-.016-.144-.32-.273-.098-.422.348-.133.711.004 1.059.13.078-.157-.129-.349-.094-.552a.374.374 0 0 1 .192-.097zm26.41.293c.539.152.851.593 1.152 1.039.172.008.598-.282.738.031.286-.164.387-.047.672-.031.133-.305-.12-.637-.16-.91l.64-.13c.22.204.071.536.16.778l.93.066-.574.746.961.325-.258.488.739.875-.067.098-1.12-.29c-.243.102-.317.43-.481.649-.383-.21-.852-.844-1.121-1.234-.207.09-.356.746-.672.422a1.04 1.04 0 0 0-.387-.454l-.898.844-.254-.226-.352.129-.324.812c-.242-.078-.332-.375-.445-.586l-.836.066c-.07-.25.258-.52.48-.75l-.414-.421.992-.227c0-.27-.133-.582 0-.812l.832.132c.032-.437-.218-1.066.067-1.43zm-4.426.488l.098.52a.655.655 0 0 0 .16-.294l.32 1.004.29 3.442c1.109 1.008.171 2.113 1.089 3.086.316-.645 1.938-2.051 2.371-2.598l.547-1.785.352-.031.03-.133.321-.16-.062.258.254-.032-.16.973c.269-.031.831-.953 1.187-1.04l.258.294c.054-.04.125-.113.16-.13 0 .04.035.114.094.294l-.063.062c.074.094.172.22.191.262l-2.628 2.824c-.106.735-.461 1.168-.77 1.785.047.012 1.906-.468 2.566-.648l-.066-.422.387.258-.258-.324.512-.746-.641-.258c.016-.367.48-.496.77-.52l.289.032c.484.546 1.015 1.156 1.73 1.07.285-.277.152-.813.352-1.168l1.027.488.64-.586c.372.508.88.16 1.41.227-.132.398-.593.656-.8 1.008l.64.226c.387.117.817-.183 1.22-.258.066.262.144.786.578.582l.382-.226 1.059.812.543-.52 1.539.747c-.547.398-1.383.98-2.148.812-.06.305.14 1.016-.126 1.235-.476-.274-.777-.836-1.156-1.203-.3.258-.691.187-1.058.226l-.254-1.168c-.164-.144-.344.075-.547.067-.156-.172-.25-.371-.512-.457-.078.18-.015.66-.031.879-.367.062-.527-.454-.899-.36l-1.12.098-.098.066c.047.282.285.563.16.844l-1.313-.031c-.172.25.258.511.29.746l-.708.16-.543-1.004c-.246.102-.468.563-.8.484.101-.27.191-.695.222-1.07-.082.035-.195.094-.289.13-.093.19-.187.362-.254.42l-.035-.323c-1.316.515-3.047 1.097-3.332 1.105-.105.586-.043.758-.383 1.297.2.484.059 2.004.383 2.438-.16 1.214-.36 2.12-.578 3.246.777.347.023 1.312.836 1.625.633.328 1.281.43 1.7 1.035l.03.23L40 56.492l.063.164c-.532.059-1.04-.152-1.473-.422l-.383.16.414.36.031.195c-.39.063-.738-.183-1.054-.457l-.387.23c-.3-.324-2.484 1.2-2.723 1.364-.086-.398-.46-.414-.675-.39-.102-.18-2.051.292-2.051.292-.024-.25-.93 0-.93 0l-2.113.16c.074-.12.222-.253.383-.39l-.735.035c.559-.648 1.383-1.215 2.242-1.3.184-.22.426-.774.801-.747.317-.465-.117-.652.192-1.137.218.27.257.77.515.91.184-.304.61-.414.703-.777l-.097-1.234c.562-1.211.484-2.39.707-3.703.023-.88-.72-2.696-.032-3.668l-.289-.88c-.683-.652-.148-1.51-.64-2.269l-.13-1.039c-.292-.539-.644-1.082-1.058-1.527-.484-.524-.922-1.121-1.12-1.785l.03-1.008-.351-.777.418-.098.254.031c.093.121.336.473.515.715l.032-.52c.566.555.777 1.43 1.472 1.883.02-.968.074-1.617-.031-2.566.055.031.164.031.29 0-.013-.145-.024-.371-.032-.484.113.078.183.265.285-.227zm-.254.71c.094 1.079.277 2.802.129 3.673-.402-.356-1.273-1.61-1.89-2.469l-.036.258-.77-.485-.03.356.64 1.3c.148.665 1.137 1.094 1.379 1.755.187.554.555 1.015.77 1.558l.097 1.004c.363.754.07 1.484.574 2.145l.196.875c-.508.98-.051 2.949-.067 3.832-.164 1.312-.093 2.46-.511 3.668L33.332 55c-.066.367-.406.477-.543.777.059.047-1.18.02-1.477.813-.226-.024-1.503.59-2.21 1.168l.355-.031 1.152-.649c.246.203.032.402.063.649l.515-.063 1.793-.75c.286-.008.372.344.512.52.285-.024.781-.04.899.359.324-.164.64-.469.867-.746l.254-.324.996-.457-.098-.52.547.39c.121-.32-.031-.538.223-.812.14.84.488.817.898 1.137l.129-.066-.77-.618-.066-.386c-.305-.61-.976-.418-1.441-.746-.598-.313-.164-1.016-.739-1.368.16-1.12.329-2.254.45-3.472-.239-.438-.043-2.309-.192-2.793.25-.54.547-1.352.739-1.848-.098.215 2.417-.57 3.523-.977l-.031-.324c-.711.258-2.149.633-3.27.746.227-.617.817-1.597 1.188-2.5l2.691-2.793c-.074-.09-.113-.132-.191-.226-.485.36-1.715 1.5-1.891 1.527l.352-1.722-.29.035-.64 1.883c-.316.71-2.086 2.535-2.852 3.374-.945-.816-.593-3.183-1.316-3.734l-.129-3.18-.191-1.168a.667.667 0 0 1-.352.192zm6.89 7.567c.216-.078.368-.152.419-.195l.191.195c-.02-.168-.059-.304-.16-.293l-.098-.129c-.02.004-.285.07-.383.098zm.61 0l.063.098c-.008.004-.055-.004-.063 0 .004.102.043.2.031.324.473-.203.817-.375.899-.488l-1.09-.387-.066.031.32.196zm0 0c-.02.047-.035.067-.066.13l.066-.032c-.004-.031.004-.07 0-.098zm-.066.13c-.078.034-.368.144-.512.194l.031.325c.098-.035.203-.059.29-.098.085-.164.128-.27.19-.422zm-28.043-6.75c.343-.063.414.288.511.515.364-.145.75-.04 1.059.195l.063.422.804.164c.2.246.274.621.192.91l-.899-.133c.04.18.188.352.098.555-.266-.035-.465-.289-.676-.36-.207.165-.11.872-.543.52l-.547-.484c-.265.133-.844.496-.96 0 .03-.25.28-.5.48-.617l-.45-.91.61-.067zm3.43 3.894c-.102.39-.133.726.03.648-.003.004.005.028 0 .031.169 0 .352-.03.512-.062-.23.078-.312.512-.543.746l.45.164c-.348.117-.457.598-.32.875l.253.164-.031 1.59c.566.996-.293 2.004-.031 3.148.23 1.082.027 1.75-.032 2.856l.192.426c-.102 1.73-.426 3.27 1.152 4.511.235.032.676.352.867.649-.058.027-.172.02-.257.031.078.031.144.074.226.098-.082.086-1.383.14-1.476.133-.067-.266-.922.43-1.024.386 0 0-.926-.86-2.086-.195.02-.066-.015-.258.13-.484-.227.082-.509.132-.93.128.078-.101.386-.332.93-.648.124-.39.558-.559.835-.844.137-.797-.5-1.277-.324-2.242l.258-1.332c-.375-1.242.304-2.547.32-3.7l-.094-1.429c.434-.582-.133-1.23.094-1.95-.07-.241 0-1.362 0-1.362l-.29-.453s-1.081-1.266-.929-1.07c.082.1.442.206.77.292-.102-.156-.196-.273-.16-.328.39-.59.644-.203.77.133l.03-.844.356.16v-.031zm-.352.226l-.29 1.008s-.034-.16-.097-.324l-.031.324s-.277-.055-.578-.129c.238.344.675.809.675.809l.16.36s-.066 1.214-.034 1.46c-.094.719.152 1.332-.032 1.914v1.492c-.008 1.16-.613 2.352-.129 3.672l-.445 1.364c-.078.968.54 1.41.48 2.207-.117.289-.878.585-.93.972-.155.082-.288.207-.386.36.55-.196.715-.54 1.25-.52-.059.168-.184.34-.129.55.461-.382 1.235-.202 1.668.032l.192-.422c.25.043.515.192.675.457.153.004.38-.004.575-.035-1.04-.39-1.735-1.332-1.825-1.363-.664-1.242-.199-2.82-.418-3.766l.032-.617c.023-1.105 0-1.578-.098-2.66-.105-1.149.574-2.192.035-3.153v-1.62l-.098-.13c-.058-.277-.015-.726.13-.847l-.29-.094c.094-.23.223-.742.32-.848-.234.004-.417-.054-.257-.386zm14.68.39l.32.65.734-.067-.48.977.547.519-.352.55c.172.544-.164.24-.418.845-.477-.372-.168-.254-.93-.293-.074.296.063.5-.129.75l-.898-.391c-.273.375-.543.527-.992.746-.262-.379-.27-.46-.352-1.008-.386.016-.672.453-1.09.555l-.097.387-.192-.227c-1.035 1.172-2.07 2.336-2.402 2.988l-.355 1.395s-.426 1.512.097 2.34l.16.906.672.52c.188.05 1.016.199 1.188.359l-1.442.062c-.265.293 1.02.875.703.91-.12.008-.234 0-.351-.03.156.085.308.175.48.195l-4.07-.164c.008-.145.07-.336.16-.52-.168.04-.355.012-.547 0l-.254.035c1.165-.789.727-1.039 1.282-1.3l.383-.649c-.418-.566-.25-1.418-.125-2.047.226-.496.125-1.27.19-1.754l-.32-1.168c-.378-.558 0-.511-.03-.746-.087.012-.18.008-.258 0-.196-.023-.48-.355-.48-.355h.093c-.106-.075-.207-.157-.32-.23-.5.234-.77.886-1.344.812-.121-.149-.29-.348-.227-.52-.219-.25-.754.258-.8-.258-.055-.156.187-.406.351-.488l-.254-.39.512-.063c-.106-.145.039-.39.191-.422.262.156.512.453.387.746.36-.133.633-.222.96-.164.134-.191.25-.418.513-.422.257.121.23.426.418.551l.289-.387.64.032-.449-.875c.176-.223.55-.133.832-.23.402-.438-.027-1.09.676-1.267.09-.238-.399-.644-.098-.875.2-.117.488.086.547.325.05.316.094.777.48.648-.054.266.149.871-.675 1.399.449.648-.403.593-.61 1.101l.067.488c-.172.192-.227.078-.578.258.058.102.074.184.097.262.102.016.164.023.192 0l-.032.453a.408.408 0 0 1-.097 0c.004.16.02.352.129.648l.222-.097c.141-.14.48-.762.868-1.2.316-.468 1.062-1.132 1.632-1.624l-.222-.258.222-.031c.063-.344.285-.563.45-.848l-.383-.422c.066-.465.238-.605.574-.875.398-.078.203.238.324.52l.926-.227.227 1.137c.316.03.37-1.02.671-.813 0 0 .383-.133.899.258l-.063-1.297c.258-.027.524.168.703.324.34-.011.352-.511.707-.648zm-5.036 2.892h.356c.062-.06.078-.055.125-.098zm.48-.098l.325-.067-.098.165c.243.062.227.226.192.421l.226-.035-.066.293c.152-.176.3-.351.45-.52l-.802-.452c-.015.027-.136.113-.226.195zm.579.777c-.055.063-.106.13-.16.196.012.023.043.039.066.066.012 0 .02.004.031 0zm-.16.196c-.07-.137-.028-.31 0-.454l-.13.032-.32.355.258.293c.067-.078.125-.152.192-.226zm-.45-.067l-.19-.226c-.595.539-1.704 1.55-1.99 2.078-.144.265-.776 1.035-.929 1.168 0 0-.308-.285-.414-.422-.11-.133-.258-.864-.258-.973 0 0 .297.117.48.129 0-.152-.023-.309-.062-.453a8.35 8.35 0 0 1-.867-.227c-.039.118-.594.18-.738.196.18.117.363.226.578.191.035.05.059.106.066.164l.223-.031c0 .086.191.68.191.746 0 .062.102.902.32.973.223.066.005.515-.062.648-.066.137-.066.715-.066.715 0 .113-.297 1.691-.32 1.98-.016.207.304.606.48.715l-.863 1.203c-.086.055-.32.356-.48.68a.884.884 0 0 0 .48-.293c.175-.012.61-.289.61-.289.51-.191 1.378.723 2.179 1.004-.598-.383-1.028-1.04-1.028-1.04l.32-.16-.35-.195-.13-.714c-.023-.11-.136-.602-.222-.715-.09-.11-.067-.844-.067-.844l.067-.586.093-.844s.196-.418.196-.484c0-.067.105-.39.125-.75.027-.356.64-1.152.77-1.266zm-.19-.226c.128-.118.312-.32.35-.356l.098-.226h-.351c-.094.078-.238.187-.356.289zm.35-.356l-.128.258.289-.031.066-.098-.097-.258s-.114.117-.13.13zm-13.94-.617l.03.16zm0 0" fill="#211e1e"/></svg>