<svg xmlns="http://www.w3.org/2000/svg" height="64" width="64"><path d="M32 1.063c-17.122 0-31 13.86-31 30.968C1 49.141 14.878 63 32 63c17.12 0 31-13.86 31-30.969S49.12 1.063 32 1.063zm5.156 3.843c.384.234.58.661.844.969l.438-.344c.248.84.72-.038 1.156-.031l.406.781.844-.156c-.038.181-.233.456 0 .563.315-.12.548-.062.968-.032l-.093.969.593.313-.75.687.438.719 1.125-.094.563-1c.186.121.123.556.28.781.293-.015.695-.27 1.032-.187l-.156.75c.436.06.839.256 1.093.594.309-.293.65-.523 1.094-.5l.313.468c.285-.166.442-.651.781-.562l.063.812c.33.135.949.004 1.03.5l-.5.406c.384.202.472.606.563.907.579-.173.995-.408 1.438.125.436-.36.841-.896 1.375-1.031l.156.624 1.313-.374.093.062c-.037.42-.888.936-.218 1.25.082.422-.536.484-.626.875l.688.656c.217-.075.51-.407.75-.25.316-.339.379-1.014.875-1.156l.406.563c.322-.038.66-.298.969-.126-.09.27-.43.81 0 .938l.375.25c-.166.189-.44.18-.531.406l.687.563c-.368.157-.86.127-1.281.187-.12.144.02.454-.219.469-.587-.33-.715.438-1.031.813-.308.166-.528-.378-.844-.438-.345.3-.702.575-1.125.688l-.343-.594.437-.563-.719-.281c-.112-.264.67-1.047.063-1.031-.196-.256.073-.556-.282-.813-.495.286-1.18.613-1.75.719l-.124-.344-.25.063-.876.437c-.195-.142.308-1.179-.593-1.156l-.25-.094c.097-.399.885-.856.156-1.156l-.563-.25.126-.75-.876.375c-.33-.173-.624-.328-1-.313-.45.518-.316 1.218-.218 1.75l-1.063-.062-.281 1.125.563.125c-.144.36-.805.546-1.188.906-.135-.45-.425-.952-.938-1.125l-.406-.094c.165-.45.9-.68.75-1.25-.452-.413-1.562.094-1.562.094v-.187l-.032-.719c.294-.18.86-.41.844-.875-.164-.308-.55-.017-.812-.031.104-.368.195-.849 0-1.156-.437-.166-.452.365-.813.53l-.656-.874.25-.469c-.219-.082-.592-.096-.75.063l-.531.75c-.22-.166-.69-.274-.938-.25l.313.906c-.481.111-.744.02-1.188-.031l-.343 1.343-.75-.5-.782.688c-.195-.135-.645-.34-.781-.625l-.5.594-1.031.843c-.008-.406.224-.744.375-1.156l-.063-.094h-1.125c.015-.23.295-.648.657-.844v-.156l-.594-.344.187-.28c.94-.752 1.707-.413 2.594-1.282-.044-.301-.448-.362-.719-.406l-.5-.094c.18-.324.496-.508.782-.719-.098-.345-.106-.82-.407-1.187.3-.202.868.148 1.313.156.052-.225-.155-.641-.125-.844.593-.218 1.14.177 1.718.282l.22-1.157zm-7.625 1.719l.282.438 1.125-.344c.097.015-.092.405-.032.375l-.187.25c-.557.188-1.15.298-1.594.687.42.413.933.245 1.188.906-.226.112-.662.242-1 .407l.406.937c-.21.038-.839-.36-.907.219l-.375 1.219c-.09.097-.14-.15-.343-.188-.21.196-.159.432-.219.688l-.906-.063c.128.525.596.932.687 1.531l-1.25.157c.21.405.76.588 1 1.062-.616.277-.654 1.001-1 1.406-.188-.285-.242-.63-.25-.937-.406-.046-.463.594-.75.813-.254-.143-.196-.672-.406-.844-.105-.165-.185-.06-.313 0-.225-.03-.299.34-.562.437.008-.405.038-.995.219-1.469-.272-.218-.835.18-1.219-.03.008-.256.498-.583.625-.876l-.406-.437c.818-.43-.248-.874-.219-1.438l1.438-.281c-.038-.443-.465-.876-.75-1.313l.875-.156c.015-.398.085-.67.28-1l.563.125c.113-.532.332-1.27.219-1.75l.063-.062 1.03.312.313-.281.25.563L28 6.75c.203.098.426.252.531.469.316-.053.587-.579 1-.594zm9.094 7.219l.406.031c-.037.24-.312.461-.468.656.263.21.403.126.343.5l.313.313-.063.5c-.314-.098-.46-.45-.812-.375-.33-.33-.68.106-1.094.062-.158.196-.095.47-.125.656l.25.125c-.113.19-.927.162-.5.688l-.625.25v.563c-.113.089-.51-.07-.75.125l-.125-.22c.316-.976.39-1.964.781-2.812.406.203.57-.429.75-.625.128-.097.149-.493.375-.312l.25.25c.256-.533.673-.194 1.094-.375zm-16.688.25c.309.346.563.768.563 1.187.248-.029.531.067.531.375l-.531.688-.688-.375-.53.312-.032.657c.39-.204.925-.444 1.406-.22-.037.19-.633.62-.25.876l.844-.219-.094.688c.511-.127 1.127-.454 1.594-.282l.156-.062c-.285.39-.97.75-.625 1.343l-.593-.187-.22.594v.031c-.344 0-.479.168-.75.281-.66.42-.479-.64-.75-.812-.21.066-.365.356-.53.281-.06-.195-.128-.36-.188-.594l-.563-.062-.062.906-.188.25-.468-.281c-.346.105-.033.638-.063.968l-.937.25.75.625.625-.687c.263.053.186.412.156.563l-.031.125c.255.166.668.154.781.468-.142.15-.4.231-.625.313-.075.226-.058.616-.344.625l-.25-.469c-.18.016-.32.23-.5.156-.077-.278-.055-.526-.156-.781l-.375.156c-.302-.208-.877-.125-1.406 0v.188c.308.112.608.146.781.468-.053.504-.502.125-.719.125l-.281.375c-.091-.143-.43-.593-.875-.593l-.125-.625c.05-.132.168-.11.281-.125.028-.117.048-.226-.031-.344l-.938-.313c.158-.367 1.488-.433 1.75-.75l-.468-.843.812-.219-.156-.844c.03-.285.881-.256.844-.218-.008-.45-.348-.705-.25-1.157l.562.063c-.226-.819-.26-1.407-.312-2.188.51.233 1.02.767 1.343 1.219.233-.241.09-.499.407-.688l.281.532.313-.188-.25-.469c.21-.3.595.104.875-.03-.047-.444.25-.793.5-1.063zm-1.437 1.75l-.063.031c-.172.224-.494.432-.343.719h.125c.353-.083.7-.926 1.031-.282l.031-.03.032-.313-.688.156-.125-.281zm-3.844 5.75c-.033.137-.083.307-.062.468.16-.04.576-.18 1-.28v-.345c-.129-.299-.41-.53-.688-.687l-.187.094c-.114.278.097.57 0 .75-.02.007-.04-.003-.063 0zm2.719.031l.469-.219-.125-.093-.032.03-.218-.187c-.083-.051-.255.093-.188.25.053.07.067.15.094.219zm15.75-6.875l.406.406-.593 1.75c-.415-.081-.877.655-1.126.032-.105-.293.245-.202.313-.375l-.531-.532c.218-.157.564-.143.812-.218 0-.204-.05-.538.25-.532.406.091.229-.372.469-.531zM14.25 16.281c.225.084.462.322.5.563.233-.112.427-.37.719-.25-.053.684.647.108 1.031.281l-.219.594.5.031c.105.249-.282.572-.5.625-.563.038-.885-.225-1.312-.594-.158.332-.085.476-.063.844-.12.091-.443-.042-.594-.125-.097.225-.006.808-.374.688-.143-.202-.436-.188-.594-.188-.248.135-.144.367-.031.563-.369.066-.635.279-.876.593.098.204.383.184.563.313l-.5.375.094.468c-.435-.112-.797-.075-1.188.188-.473.315.3.558.156.844-.15-.069-.44-.001-.5.187-.33-.03-.769-.186-1.062.032.015.285.168.665.469.906l.375.125-.469.5c-.21-.165-.563-.26-.781-.094-.203.466-.455-.091-.688-.031l-.594.156c.053-.308-.506-.304-.656-.313a5.156 5.156 0 0 0-.875.375L6 23.845c.038-.292.326-.634.656-.688.03-.15-.317-.373-.031-.5l.938.188c.224-.189.424.002.718.062l.125-.218c-.15-.247-.517-.412-.531-.75l.531-.063c.009-.187.017-.487.25-.563l.438.282c.104-.158.172-.321.406-.313l.5.094c.21-.406-.674-.478-.344-.938l.469.094c.046-.262.108-.679.469-.656 0-.224-.145-.475.156-.625l.219.031c-.053-.397.442-.436.75-.562l-.906-.563c0-.225.409-.36.687-.375l.719.344c.075-.173.14-.477.344-.5l.5.25c.075-.368.402-.504.718-.594-.016-.368.176-.752.469-1zm31.406.532c.534.007.622.18.75.375l-.281.218.281.125-.562.938-.875-.125c.075-.136.062-.387-.344-.407l-.188-.03c.144-.122.455-.188.72-.25-.113-.138-.146-.27-.094-.407.128-.1.242.008.437 0l.156-.438zm2.219 0l.063.312.406.125c.15.116-.036.576.031.688l.781-.782.375 1.032s-.121.445.063.53c-.25.173-.576.075-.719.282l-.594-.281c-.079.112-.226.385-.437.437 0 0-.278-.216-.375-.281l-.313.094c-.247.063-.254-.307-.531-.375-.204.06.719-1.594.719-1.594l.531-.188zm-8.969.406c.436.029.78.604 1.125.875.233-.082.486-.246.719-.157l.156.438c.292-.046.642-.81.875-.375.233.308-.386 1.077.313 1.063l-.469.75.938.187.937-1.094.094.032.031.843c.436-.135 1.032-.226 1.469-.031l-.438.594c.564.218 1.14.375 1.688.781l-.344.344c.263.254.793.653.906 1.125h-.468c.36.294.854.55 1.093 1l-.843.031-.25.594-.532-.532-.812.875-.25-1.093-1 .218.218-.562c-.18-.18-.562-.177-.78-.281l-.282.031.625-.781c-.094-.598-1.164.273-.969-.719l-.125-.094c-.427.226-.542.778-.843 1.094l-.626-.5c-.315.262-.578.633-.78 1a2.472 2.472 0 0 0-1.032-.406l-.281.468-.188.282c-.133-.52.323-1.203.375-1.813l-.718-.125c0-.157.407-.577.624-.75-.263-.316-.684-.273-1-.468l.876-.594c-.15-.322-.554-.444-.72-.782l-.406-.625h1.094v-.843zm17.782.843c.188.098.09.499.03.657l.688-.032.063.157c-.166.383-1.042.338-.719.781l.219.25c-.248.189-.827.41-1 .875l1.125.063-.313.468c.391.053.569.476.719.813l-.875.062-.094 1.063.063.281c-.307-.428-.524-1.24-1.094-1.375-.114-.038-.208.05-.344.125-.15-.18-.398-.747-.812-1.031-.247.126-.55.244-.625-.125-.308.203-.938.144-.938.625-.233-.134-.628-.644-.906-.532l.063-.562-.75-.063c.03-.284.3-.506.562-.687.383.084.696.65 1.094.281l.281-.25.375.344c.338-.172.358-.52.531-.781l.188-.063.593.532c.294-.21.244-.628.313-.875l.688.03.874-1.03zm-23.282.063l.5.781.813-.187c.075.06-.44.66-.094.75l.906-.125h.157l-.626.843c.243.06.646.018.782.25-.579.353-1.444.765-1.594 1.532l.5.093-.531.813c.255.112.635-.02.906.25l-.375.719c.36.051.782.226 1 .625l-1.125.218h-.25l-.844-.53c-.173.278.11.848-.093 1.155l-1.126.125.094.5c-.39.173-.837.078-1.062.47.158.186.516.415.343.687-.698.164.04.613-.156.875l-1.031-.282-.094.438c-.308-.308-.689-.659-1.125-.719-.052.34-.362.155.157.5-.331.257-.755-.128-1.032.188l.469.937h-.844c.007.322-.006.79.032 1.219-.263-.09-.875.594-.875.594-.182-.24.036-.865-.22-1l-.53.5c-.056-.224-.157-.594-.157-.594-.097-.195-.537-.219-.687-.219-.127-.398.337-.538.375-.906l-.688-.125.532-.625c-.279-.27-.613-.588-.657-1 .518-.04.654-.066 1.188.031.172-.149-.01-.527.125-.781.151-.083.263.157.406.188.008-.25.28-.406.438-.375l1.062.343c.34-.233.466-.887.781-1l-.156-.75.844-.062c.427-.28.988-.074 1.187-.594l.344-.25c-.35-.425-.662-.17-1-.313l.344-.625c-.452-.293-.957-.004-1.438-.125.007-.165.347-.539.625-.718l-.187-.594c.286.069.47.244.718.063-.075-.383.116-.835.282-1.157l.968.25c.053-.21-.147-.432-.125-.687l.25-.782.157-.062.656.469c.143-.383.36-.874.781-1.219zm15.563 2.781c.264.428.359.94.343 1.407l.782.093c.06.158-.228.351-.25.532.324.141.868.086 1.093.5-.428.307-.942.18-1.468.406-.248-.15-.082-.427-.344-.532l-.688.75a2.29 2.29 0 0 1 .094-1.312l-.375-.156-.25-.219.25-.063c-.135-.443-.466-.83-.406-1.312.278.016.628.167.906.438l.313-.532zm-33.063 2.438l.969.187.469.532.437-.532c.038.14.782.407.782.407.32-.074.555-.565.718-.563l.344.656c-.233.06.054.776-.156 1.063l.656-.188.688.438c.009.102-.313.497-.375.656-.09.232.32.215.28.313l-.155.406.687.218-.344.532h1.188c-.034.292.02.873.093 1.375.02.133.638.199.657.312.047.295-.157.938-.157.938-.114 0-.614-.279-.78-.157-.499.366-1.145.53-1.032.282l-.625-.875c-.61-.196-1.19.162-1.031-.063l.343-.968c-.007-.104-.623.046-.906-.125-.013-.288-.34-.728-.25-.75-.833.072-1.156-.032-1.156-.032l.406-1.218c-1.022.073-.752-.455-.781-.688l-1.469-.063c-.077-.183 1.124-.74 1.281-.812-.22-.132-.78-1.281-.78-1.281zm25.188 1.312l-.125.875.312.125-.343.344.25.344c-.218.09-.774.202-1 .593-.173-.114-.53-.123-.688.094a.514.514 0 0 1 .25.688c.302-.045.676-.02.969.25.308-.353.773-.462 1.156-.313l.063.063-.532.562c.27.135.56.078.875.25l.282.313c-.047.135-.492-.177-.657-.157l-.687-.03.031.562c-.316-.278-.982-.385-1.281-.25.164.308.025.7-.094 1.062l-.563-.375c-.324.262-.478.686-.718 1.032-.33-.248-.769-.09-1.063-.188-.067-.164.216-.361.313-.406 0-.3-.411-.234-.5-.407.112-.217.405-.03.562-.03l.438-.47-.282-.093c-.097-.127.315-.536-.03-.625l-.626.218c-.082-.328.017-.598.219-.875l.281-.156-.5-.625.657-.25c0-.196-.21-.57-.126-.781l.626.125c.097-.42.666-.173.906 0 .226-.106.325-.255.625-.188.052-.563.465-1.139 1-1.28zm14.687.157c.323.076.632.177.782.53.18.136.4-.19.624-.28.271.187-.413.906.22 1.125l-.563.437.312.438-.906.156v.562l-.656-.031c-.023.18.021.494-.032.719l.376.218-.25.344c.175.104.318.238.437.375a.578.578 0 0 0 .125-.531l.5-.813s.048.544.281.688h.907c.052.037-.167.294-.25.438.308.179.625.1 1 .28l.843.345-.875.375.532.562c-.271.114-.538.248-.907.188-.285.21.03.758 0 1.156-.556-.044-1.1-.272-1.25-.813-.337.225-.22.521-.437.844-.31-.3-.48-1.038-.969-1l-.313-.438.376-.218c-.173-.164-.316-.358-.5-.469l-.72-.188c.015-.255-.398-.208-.593-.375l.438-.5c-.188-.3-.592-.535-.938-.625l.219-.375-.469-.375.313-.312c-.136-.399-.587-.332-.813-.594.023-.249.28-.2.406-.343.504-.316.999.277 1.532.187l-.313-.656c.052-.105.588-.12.844 0l.281.468c.286-.075.604-.198.844-.312-.398-.233-.438-1.188-.438-1.188zm-.093 5.656c.086.081.17.184.28.218l-.03-.343-.25.125zm.25-.125l.093-.032-.093-.187v.219zm0-.219l-.032-.281c.129-.016.526-.181.407-.188-.056-.105-.119-.17-.188-.25-.114.138-.298.227-.438.313l.25.406zM6.343 25.25c.278.046.758.126.781.531l.031.688a.9.9 0 0 1 .907-.157l.28.157c-.344.195-.642.658-1.062.718.113.36-.593.9-.218 1.157h.5c.226-.563.632-.798 1.218-.844.114.038.21.046.219.188l-.594.78c.247.076.497.268.625.5-.194.563-.8.174-1.062.563l.062 1.094c-.428.075-.642-.415-.875-.656-.278.18-.269.756-.718.531l-.22-.438-.124.032c-.187.496-.117.922.093 1.343-.225.12-.567.193-.687.5.18.25.555.136.75.407-.038.225-.352.385-.188.625.302-.067.763-.078 1.063-.063.225-.828.65.1 1.063.032-.256.27-.47.582-.532.874-.249.122-.586-.256-.843 0l.093.72c-.601.57-1.206-.64-1.687.187.015.534.74.233.906.781.135.542-1.085.984-.281 1.375l.312-.063-.062.657c.263.142.507-.178.687-.313.27.127.596.27.875-.031l.313-.5c.48.121.98-.266 1.25.5-.136.233-.202.392.031.625l.438.156c-.009.263-.615.379-.344.688-.33.24-.902.047-1.219.437l.281.5c-.218.173-.573.395-.469.688.73-.27.521 1.13 1.25.656-.037.308.101.912.5 1.063l.344-.157c.203.21.299.554.531.719.346-.316.426-.843.313-1.438.346-.118.656-.333.813-.687l.406.281c.022.195-.248.455 0 .688.254-.039.46-.17.625.031l-.281.656c.488.113.966.395 1.093.875-.247-.119-.17.495-.5.344l-.469-.219c.083.474.277.915-.03 1.313-.377.119-.828-.236-1-.657l-.188-.343c-.226.21-.486.351-.719.156l-.25-.406c-.263.405-.63.993-1.156 1.031-.24-.196-.17-.756-.094-1.125.27-.158.134-.39-.063-.563-.232-.247-.439-.422-.687-.062l-.281.25c-.173-.203-.67-.082-1-.156-.33-.533.711-.93-.094-1.313l-.469.5-.593-.343c-.152.27-.106.836-.594.843-.413-.052-.293-.46-.375-.656-.21.023-.535.06-.657-.156.241-.384.661-.51.97-.75a.497.497 0 0 1-.157-.563c.195-.248.456-.364.719-.468.015-.308-.363-.536-.438-.844-.27.083-.417.141-.687-.032l-.282-.5c-.278.293-.686.353-1.062.344l-.063-.093c.076-.399.656-.72.844-1.094-.285.052-.24-.263-.187-.375l.312-.407c-.278-.232-.145-.72-.062-.937-.369-.053-.716-.173-.844-.594-.376.242-.807.581-1.25.438-.083-.233.137-.477.25-.688l-.438-.062c.037-.39.33-.906.782-1.094l.562.031c.136-.224.43-.274.625-.312l.063-.469-.781-.094c.045-.361.445-.771.656-1.156-.27-.45-.628-.678-.688-1.219.18-.172.392-.203.625-.218.083-.196-.173-.431 0-.657l.438-.562c-.227-.15-.583-.154-.688-.469.217-.518.755-.73 1.281-.781-.045-.323.211-.784.594-.844-.233-.301-.528-.585-.468-.938.435-.135.987-.02 1.28.22-.015-.353-.055-.516.126-.907zm7.562.156l.25.063-.25.906c.346-.023.403.23.281.531l-.156.282c.15.165.777.132.469.5-.226.285-.533.229-.781.468.165.083.47.215.312.5a1.804 1.804 0 0 1-.969.563l.032.25c-.308.089-.67-.213-.969-.282.014.196.014.628-.219.688-.225-.015-.34-.25-.437-.438l.062-.562c-.189-.105-.46-.329-.281-.563.226-.142.407.11.656.157-.128-.414.455-.147.469-.5-.143-.564-.967-.433-1.156-.875.368-.226.836-.25 1.219-.25-.098-.255-.263-.8.25-.875.525.586.7-.534 1.218-.563zm31.594.532c.332.255.62.486.688.906.186 0 .414.073.593.156.27-.406.68-.402 1.032-.344-.007.264-.208.487-.126.75.421-.127.663-.08 1.032.063-.068.48-.86.739-.844 1.218.098.153.442-.026.375.25l-.406.344c.645.39 1.427.456 1.968.938l.094.187-.875.094c-.067.308.493.34.5.594l-.531.125c.225.308.69.198.938.468.623.391.76 1.045.812 1.75-.345-.284-.846-.477-1.281-.468-.136.247.147.54.093.75l-.437-.063-.563.375-.03-.812-.126-.063-.468.563-.594-.719c-.399.413-.41 1.058-.938 1.344.144-.774.036-1.195.344-1.969l-.938-.188c.032-.218.369-.498.594-.656-.082-.285-.382-.327-.562-.5-.06-.249.278-.28.406-.468-.443-.256-.68-.058-1.063-.125-.007-.376.665-.811.688-1.344-.308-.165-.373.027-.688.093-.097-.27-.403-.077-.53-.25-.13.196-.393.309-.594.375l.25-.906-.688-.437c.113-.165.517-.25.781-.25l.032-.125-.282-1 .782.25c-.113-.277.345-.636.562-.907zm-11.594 1.187c.038.33.415.46.407.844.18.022.5-.277.53.062 0 .104-.052.2 0 .313.384-.008.466-.42.594-.719.165.09.265.433.22.719l-.094.187.28.188c.084.165-.189.187-.218.343.157.347.542.227.594.625L35.75 30c.36.39.821.56.844 1.125l-.282.281c-.556.24-.31-.76-.843-.406l-.344-.25c-.241.165-.01.53-.281.844-.158.007-.276-.209-.344-.344l-.188.156-.124.5.406.125c.436.106.127.641.187.657l.594.28c.218-.233.46-.165.656-.218.353.352-.266.505-.281.813a.873.873 0 0 1 .844.437l-.719.281c.045.135.024.444-.125.594l-.594-.188-.031 1c-.31-.007-.79-.225-.594-.593l-.25-.032c-.052-.232.206-.398.063-.593-.429-.346-.797.143-1.188.218l-.031-.093c-.038-.158.362-.557.219-.407l-.782-.093.313-.5c-.188-.091-.713.029-.969-.219l.375-.438c.452.007.187-.46.375-.656l-.375-.312c-.36-.195-.328.31-.531.468-.225-.097-.532-.062-.563-.062-.015.188-.332.216-.437.375-.218-.023-.236-.631-.438-.781l.782-.5c.188-.488-.043-.092.062-.688l.469.188c.083.18.168-.009.281-.032l.125-.593c.248.21.185.127.5.187.263.202.261-.55.563-.093.187-.112.442-.358.375-.47l-.563-.124c-.007-.287.478-.347.313-.563-.391-.106-.859-.05-1.032-.5.03-.195.225-.212.376-.25l.062-1.125.625.438c.173-.262.317-.576.656-.719zm-14.75 4.281v.657l.407.03-.282 1.5c-.202.042-.044.035-.343 0-.035.093-.032.75-.032.75-.08.085-.5-.124-.5-.124-.211.241-.375.812-.375.812l-.25-.312c-.48.11-.968 1.156-.968 1.156l.125-2.281.906-.063.093-.718c-.038-.16.96.399.375-.844.175.238.76-.492.844-.563zm1.5.063c.09.187.146.419.282.562l.343-.343c.21.075.021.374.157.562.15.03.558-.091.625.188.015.337-.397.262-.563.406l.313.281c-.076.12-.404.485-.532.5l-1.375-.125c.046-.115.177-1.13.375-1.844l.375-.187zm-8.187.187c.314-.015.327.4.281.625l.281-.031.094-.063-.406 1.72c-.278-.34-.72-.75-.938-.5.368.141-.247.438-.406.656-.21.21-.473.003-.594-.126.037-.554-.768-.163-.625-.75l.188-.218c-.173-.21-.363-.471-.281-.719.24-.031.49.007.624.188.309.037.18-.271.376-.376.593-.307.362.492.874.5.2-.187.087-.763.532-.906zm41.187.75c.225.196.173.53.188.844.337.106.67-.185 1-.125l-.219.594c.181.097.734-.016.938.343l-.376.407.47.25c-.361.188-.953.292-1.313.562l-.344.094c.12.322.467.226.625.594l-1.594.093-.062.813c-.361.174-1.056-.182-.907.531-.27.219-.66.095-.968.313.189.375.725.335 1.093.375.03.24-.262.431-.374.687.292.15.863.12 1.156.344-.263.308-.527.243-.844.469.181.434.995.476.906 1.062-.368.067-.862.237-1.343.094-.12.323-.121.744-.438 1.031l-.844-.5-.593.407c-.271-.175-.199-.609-.5-.75-.354.149-.401.575-.688.53l.219-.75c-.196-.186-.27.022-.594-.062.007-.345.04-.195.281-.593l-.312-.532h.843l.438.188.344-.75c.309-.007.72.058.937-.25-.128-.33-1.041-.316-.531-.782.009-.17-.097-.3-.219-.406-.12.125-.208.269-.187.438l-1-.094-.125.688c-.293.052-.644-.069-.938.156-.397-.285-.792-.626-1.093-1.032l-1.126.626c-.224-.06-.132-.374-.312-.5l-.688-.25c.009-.197.429-.43.594-.626l-.718-.406c.429-.15 1.081.047 1.562.032.302-.323.476-.624.625-.97.36.023.387.487.5.72-.127.196-.248.376-.188.593.436.114.71-.25 1.063-.468l.75.75.156-.063.063-.813.968.25c.182-.276-.193-.557-.312-.812.463-.297 1.039-.53 1.656-.5.034-.031.046-.09.063-.156l-.094-.157c.217-.045.717-.15 1.031-.187.075-.112-.023-.226-.031-.375.233-.279.779-.107.719-.625l-.25-.25.937-1.094zm-2.375 2.844c-.1.094-.261.083-.375.156.08.269.39.479.532.75-.01-.018.033-.037.093-.031-.09-.345.007-.59 0-.875-.083-.015-.167.004-.25 0zm-1.25 2.281c.143-.146.35-.279.532-.343.263-.062.88-.16.843-.313l.313-.219c.014-.24-.172-.36-.25-.437.041.1.055.196.031.312l-.531-.062c-.317.42-.894.672-1.157.875.058.057.137.116.22.187zm-36.25-4.656l.188.5.75.063-.063.843c.173-.14.494-.133.969-.406 0 0-.05 1.935-.125 2.25l-.188.563c-.308-.13-.245-.71-.562-.907-.127.084-.242.271-.406.188-.571-.676-.724-1.024-.844-1.782-.011-.291.281-1.312.281-1.312zM25 32.969c.295.025.338.243.594.281l.312 1.531c.294-.165.634-.501 1.063-.375-.015-.344.109-.836.5-1.062l.5.906c.3-.21.42-.605.75-.719.128.135.08.528.343.469.022-.068.081-.096.125-.156l.22.343.468-.312c.015.36.559.49.656.844l-.625.187c-.075.317.438.513.407.844-.067.135-.794-.197-.938.156-.022.202.008.399-.156.625l-.657-.468-.25.187c-.248-.51-.863-.499-1.375-.438l-.343.157c.18.195.406.283.406.562l.625.344.688.656c.374.084.875.126 1.093.532-.052.128-.176.11-.312.156.218.322.398.6.406.968-.173-.037-.534-.157-.781-.03-.399.27.195.837 0 1.093-.257-.188-1.611-1.05-1.875-.75l-.5.719-.157-.532-.53-.03.312-.563c-.33 0-.795.042-1.125.156l-.094.031c.075-.354.618-.61.844-.812l.031-.563a1.234 1.234 0 0 0-.844.125c-.173-.097.032-.278-.156-.406l-.781.406v-.343c-.308-.173-.93.11-1.313.124.075-.534.656-.962 1.032-1.218l-.313-.282c.008-.164.332-.166.438-.218l-.657-.813.563-.125c.06-.278-.202-.508-.375-.75.458-.126 1.006.007 1.375.157.128-.173.094-1.331.406-1.594zm-5.469 1.437c.353-.06.646.979.969.25.21.053.453.236.438.438L20.5 36.53c.248.196.613-.206.906.125.226.518-.359.892-.343 1.344l1-.125c.247.06.16.428.03.594l-.093.187c.39.226.672-.566 1.063-.093.128.112.128.352 0 .374l-.563.188c.143.12.1.429.063.594-.504.149-1.175-.815-1.438.093-.225.173-.422-.026-.625-.093-.338-.323.384-1.064-.375-.938-.233.204-.54.515-.188.719-.097.27-.28.49-.25.813.18.12.39.124.563.124l.094.844L21.375 41c.165.256.04.532-.125.781.3.082.691.172.781.532L21 42.624c.084.278-.4.36-.594.406-.482.014-.415-.56-.656-.687-.21.164-.393.381-.656.343-.226-.239.083-.73-.188-1.03l-.187-.032c-.481.27-.628 1.116-1.282.875-.187-.277.29-.462.313-.688-.15-.285-.445-.662-.031-.843l.625-.157c.173-.316.19-.475.25-.843-.226-.15-.291.014-.532-.032v-.187c-.315-.069-.537.291-.906.156.105-.256.251-.655-.125-.812.008-.233.226-.356.407-.469-.286-.225-.478-.542-.5-.813.112-.141.294-.112.437-.156-.114-.361-.163-.647.063-1 .368-.225.775.12 1.187.188.084-.196.027-.534.313-.594l.375.156c.217-.172.134-.307.187-.562l-.406-.5.281-.313c-.038-.277-.062-.414.156-.625zm-7.75.157c.242-.04.61.028.813.062l.875 1.625c-.25.203-.704.232-.906-.031-.18.142-.611.305-.844.125-.21.202-.37.54-.656.593-.466-.15-.037-.856-.344-.968l-.5-.032c.075-.231.252-.437.531-.468-.016-.142-.312-.265-.094-.407.338-.128.693.005 1.031.126.076-.152-.124-.336-.093-.532a.37.37 0 0 1 .187-.093zm25.75.28c.526.15.832.572 1.125 1 .167.008.584-.27.719.032.277-.159.38-.046.656-.031.129-.294-.118-.612-.156-.875l.625-.125c.21.194.066.517.156.75l.907.062-.563.719.938.313-.25.468.718.844-.062.094-1.094-.282c-.24.098-.31.415-.469.626-.376-.202-.831-.812-1.093-1.188-.204.084-.349.72-.657.406a.986.986 0 0 0-.375-.437l-.875.812-.25-.218-.343.124-.313.782c-.24-.074-.325-.36-.438-.563l-.812.063c-.069-.24.25-.501.469-.719l-.407-.406.97-.219c0-.262-.13-.563 0-.781l.812.125c.029-.42-.216-1.023.062-1.375zm-4.312.47l.093.5a.648.648 0 0 0 .157-.282l.312.969.282 3.313c1.082.97.168 2.03 1.062 2.968.308-.622 1.892-1.974 2.313-2.5l.53-1.718.344-.032.032-.125.312-.156-.062.25.25-.031-.157.937c.264-.03.81-.916 1.157-1l.25.282c.054-.04.124-.111.156-.126.001.038.036.11.094.282l-.063.062c.073.091.168.206.188.25l-2.563 2.719c-.104.706-.45 1.125-.75 1.719.043.01 1.854-.455 2.5-.625l-.062-.407.375.25-.25-.312.5-.719-.625-.25c.015-.353.47-.477.75-.5l.281.032c.473.526.988 1.113 1.688 1.03.278-.269.148-.779.343-1.124l1 .468.625-.562c.362.488.856.152 1.375.219-.128.383-.578.63-.781.968l.625.22c.376.112.797-.175 1.188-.25.067.255.14.757.562.562l.375-.219 1.031.781.532-.5 1.5.719c-.535.382-1.35.946-2.094.781-.06.293.138.977-.125 1.188-.466-.263-.757-.803-1.125-1.157-.294.248-.677.182-1.032.22l-.25-1.126c-.158-.142-.336.07-.53.063-.152-.166-.246-.355-.5-.438-.077.173-.018.635-.032.844-.354.061-.513-.434-.875-.344l-1.094.094-.093.063c.044.27.277.542.156.812l-1.282-.031c-.166.241.25.492.282.718l-.688.157-.531-.969c-.24.098-.458.544-.781.469.102-.263.186-.673.218-1.032-.082.035-.19.09-.28.126-.094.184-.183.346-.25.406l-.032-.313c-1.286.497-2.971 1.054-3.25 1.063-.1.563-.044.732-.375 1.25.195.465.06 1.924.375 2.343-.157 1.173-.352 2.044-.563 3.126.759.337.024 1.263.813 1.562.616.316 1.25.413 1.656 1l.032.219 1.562.968.063.157c-.52.06-1.018-.145-1.438-.407l-.375.157.406.343.032.188c-.383.061-.722-.174-1.032-.438l-.375.22c-.294-.309-2.422 1.154-2.656 1.312-.083-.383-.45-.398-.656-.375-.1-.173-2 .281-2 .281-.024-.24-.907 0-.907 0L29 57.031c.076-.117.217-.246.375-.375l-.719.032c.549-.624 1.353-1.169 2.188-1.25.18-.21.413-.748.781-.72.308-.45-.112-.627.188-1.093.21.256.251.74.5.875.18-.293.597-.397.687-.75l-.094-1.188c.549-1.164.47-2.3.688-3.562.022-.849-.7-2.593-.032-3.531l-.28-.844c-.67-.63-.145-1.458-.626-2.188l-.125-1c-.285-.518-.628-1.04-1.031-1.468-.473-.506-.898-1.08-1.094-1.719l.032-.969-.344-.75.406-.093.25.03c.09.118.33.453.5.688l.031-.5c.556.534.76 1.377 1.438 1.813.021-.932.07-1.558-.032-2.469.057.028.162.026.282 0-.013-.14-.023-.36-.032-.469.112.076.18.257.282-.218zm-.25.687c.094 1.034.268 2.697.125 3.531-.39-.34-1.242-1.546-1.844-2.375l-.031.25-.75-.468-.032.343.625 1.25c.144.639 1.106 1.056 1.344 1.688.183.533.539.982.75 1.5l.094.968c.355.728.07 1.431.563 2.063l.187.844c-.494.94-.046 2.839-.063 3.687-.161 1.262-.094 2.368-.5 3.532L33.5 54c-.067.353-.398.457-.531.75.06.044-1.15.014-1.438.781-.221-.024-1.47.567-2.156 1.125l.344-.031L30.844 56c.24.195.032.386.062.625l.5-.063 1.75-.718c.278-.009.365.327.5.5.278-.023.763-.039.875.343.316-.157.626-.448.844-.718l.25-.313.969-.437-.094-.5.531.375c.12-.308-.028-.519.219-.782.135.81.476.786.875 1.094l.125-.062-.75-.594-.063-.375c-.298-.587-.951-.402-1.406-.719-.582-.3-.158-.975-.718-1.312.155-1.082.32-2.172.437-3.344-.233-.422-.043-2.222-.188-2.688.245-.518.536-1.3.72-1.78-.095.205 2.357-.546 3.437-.938l-.032-.313c-.692.246-2.095.61-3.187.719.222-.594.797-1.54 1.156-2.406l2.625-2.688c-.07-.088-.109-.129-.187-.218-.472.342-1.673 1.442-1.844 1.468l.344-1.656-.282.031-.624 1.813c-.308.685-2.033 2.443-2.782 3.25-.922-.785-.578-3.066-1.281-3.594l-.125-3.063-.188-1.124a.66.66 0 0 1-.343.187zm6.718 7.281c.213-.075.358-.149.407-.187l.187.187c-.021-.16-.054-.292-.156-.281l-.094-.125c-.021.005-.278.068-.375.094l.032.312zm.594 0l.063.094c-.007.003-.055-.003-.063 0 .006.098.042.192.032.313.46-.195.798-.364.874-.47l-1.062-.374-.063.031.313.188-.094.218zm0 0c-.019.045-.036.064-.062.125l.062-.031c-.002-.03.004-.067 0-.094zm-.062.125c-.077.033-.359.136-.5.188l.031.312c.092-.035.195-.059.281-.093.082-.162.125-.261.188-.407zm-27.344-6.5c.337-.06.403.283.5.5.353-.142.732-.038 1.031.188l.063.406.781.156c.195.24.271.597.188.875l-.876-.125c.038.172.183.335.094.532-.256-.031-.452-.277-.656-.344-.202.157-.111.837-.531.5l-.531-.469c-.264.127-.825.48-.938 0 .03-.24.273-.481.469-.594l-.438-.875.594-.062.25-.688zm3.344 3.75c-.096.377-.128.7.031.625-.003.003.003.028 0 .032.163-.002.343-.032.5-.063-.225.075-.306.493-.531.719l.437.156c-.338.113-.446.577-.312.844l.25.156-.032 1.531c.55.962-.286 1.928-.03 3.032.225 1.043.028 1.683-.032 2.75l.188.406c-.098 1.667-.416 3.148 1.125 4.343.226.03.654.34.843.626-.058.025-.166.018-.25.03.075.028.14.073.219.094-.079.082-1.346.134-1.438.126-.065-.256-.898.412-1 .374 0 0-.902-.827-2.03-.187.02-.065-.016-.25.124-.469-.224.08-.497.13-.906.125.075-.097.375-.32.906-.625.12-.375.542-.534.813-.812.135-.766-.486-1.225-.313-2.157l.25-1.28c-.368-1.197.299-2.453.313-3.563l-.094-1.375c.427-.564-.13-1.184.094-1.875-.07-.236 0-1.313 0-1.313l-.281-.437s-1.057-1.22-.907-1.032c.08.099.428.2.75.282-.103-.149-.19-.261-.156-.313.378-.572.629-.194.75.125l.031-.812.344.156v-.031l.344-.188zm-.344.219l-.281.969s-.034-.154-.094-.313l-.031.313s-.271-.052-.563-.125c.23.33.656.781.656.781l.157.344s-.062 1.17-.031 1.406c-.095.69.149 1.28-.032 1.844v1.437c-.006 1.112-.596 2.261-.125 3.532l-.437 1.312c-.074.932.526 1.36.469 2.125-.114.279-.856.561-.907.938a.964.964 0 0 0-.375.343c.535-.189.695-.52 1.219-.5-.06.165-.178.328-.125.532.45-.368 1.205-.195 1.625.03l.188-.406c.24.038.498.183.656.438.15.005.372-.002.562-.031-1.014-.378-1.693-1.286-1.781-1.313-.645-1.195-.19-2.715-.406-3.625l.031-.593c.024-1.067.001-1.52-.094-2.563-.107-1.104.559-2.108.032-3.031v-1.563l-.094-.125c-.057-.265-.017-.7.125-.812l-.282-.094c.091-.217.219-.71.313-.813-.229.003-.407-.055-.25-.374l-.125-.063zm14.313.375l.312.625.719-.063-.469.938.531.5-.343.531c.166.524-.155.229-.407.813-.463-.358-.165-.246-.906-.282-.07.284.061.48-.125.72l-.875-.376c-.268.365-.532.508-.969.719-.252-.365-.26-.447-.343-.969-.374.014-.654.435-1.063.532l-.094.374-.187-.218c-1.007 1.127-2.02 2.245-2.344 2.875l-.344 1.343s-.416 1.453.094 2.25l.156.876.657.5c.184.046.987.19 1.156.343l-1.407.063c-.258.282.997.838.688.875a.999.999 0 0 1-.344-.032c.154.081.302.168.469.188l-3.969-.156c.008-.139.07-.326.157-.5-.165.036-.35.012-.532 0l-.25.031c1.138-.758.711-1.001 1.25-1.25l.375-.625c-.408-.542-.247-1.365-.125-1.969.222-.475.124-1.224.188-1.687l-.313-1.125c-.365-.538.002-.492-.031-.719-.081.01-.173.009-.25 0-.193-.022-.469-.344-.469-.344s.076.002.094 0c-.107-.07-.203-.15-.313-.218-.488.224-.75.851-1.312.78-.116-.143-.282-.336-.219-.5-.213-.24-.737.245-.781-.25-.055-.146.183-.39.344-.468l-.25-.375.5-.063c-.1-.135.039-.373.187-.406.253.154.497.437.375.719.353-.125.618-.215.938-.156.13-.182.243-.402.5-.407.25.119.224.409.406.532l.281-.375.625.031-.437-.844c.173-.209.533-.124.812-.218.392-.421-.026-1.05.657-1.22.088-.231-.386-.619-.094-.843.196-.112.476.082.531.313.052.303.093.75.469.624-.05.253.145.838-.657 1.344.437.624-.395.575-.593 1.063l.062.468c-.167.186-.22.076-.562.25.057.097.072.177.093.25.102.017.161.022.188 0l-.031.438a.636.636 0 0 1-.094 0c.005.153.019.334.125.625l.219-.094c.136-.137.468-.734.843-1.156.308-.45 1.037-1.09 1.594-1.563l-.218-.25.218-.03c.059-.33.277-.538.438-.813l-.375-.407c.065-.45.235-.586.562-.843.387-.073.194.23.313.5l.906-.219.219 1.094c.31.03.363-.979.656-.782 0 0 .372-.127.875.25l-.063-1.25c.254-.025.511.16.688.313.332-.01.344-.494.688-.625zm-4.907 2.781h.344c.063-.054.078-.051.125-.093l-.469.093zm.469-.093l.313-.063-.094.156c.239.062.224.22.187.407l.219-.032-.063.282c.15-.167.294-.339.438-.5l-.781-.438c-.015.028-.132.11-.219.188zm.563.75c-.055.06-.102.126-.157.187.012.023.044.04.063.063.01-.002.021.002.031 0l.063-.25zm-.157.187c-.07-.134-.027-.296 0-.438l-.125.032-.312.343.25.282c.065-.073.122-.147.187-.219zm-.437-.063l-.188-.218c-.577.519-1.658 1.491-1.937 2-.14.253-.757.996-.907 1.125 0 0-.299-.278-.406-.407-.107-.128-.25-.83-.25-.937 0 0 .29.114.469.125a1.661 1.661 0 0 0-.063-.438c-.304-.048-.843-.218-.843-.218-.039.114-.58.174-.719.187.17.112.352.218.563.188a.34.34 0 0 1 .062.156c.122-.014.219-.031.219-.031 0 .086.187.655.187.718 0 .064.099.873.313.938.214.064.002.496-.063.625-.064.129-.062.688-.062.688 0 .107-.292 1.627-.313 1.906-.016.198.298.58.469.687l-.844 1.157c-.082.054-.313.345-.468.656a.87.87 0 0 0 .468-.282c.173-.013.594-.28.594-.28.5-.184 1.344.694 2.125.968-.582-.37-1-1-1-1l.313-.156-.344-.188s-.104-.58-.125-.687c-.022-.107-.134-.58-.219-.688-.085-.107-.063-.812-.063-.812l.063-.563.094-.812s.187-.404.187-.469c0-.064.105-.376.125-.719.022-.342.622-1.111.75-1.218l1.813-2zm-.188-.218c.125-.112.304-.31.344-.344l.094-.219h-.344c-.091.079-.229.184-.344.282l.25.28zm.344-.344l-.125.25.281-.031.063-.094-.094-.25s-.11.112-.125.125zm-13.594-.594l.031.157-.03-.157z" fill="#231f20"/></svg>