<svg xmlns="http://www.w3.org/2000/svg" width="64pt" height="64pt" viewBox="0 0 64 64"><path d="M30.895 64.383c-3.676-.168-7.106-.883-10.356-2.149C9.527 57.941 1.73 47.988.246 36.328.055 34.816 0 33.914 0 32.203c0-1.707.055-2.61.246-4.121A31.996 31.996 0 0 1 9.136 9.73C16.396 2.3 26.61-1.152 36.903.34c5.395.785 10.692 3.039 14.98 6.37 2.09 1.622 4.184 3.708 5.747 5.724 3.394 4.367 5.621 9.546 6.422 14.921a32.36 32.36 0 0 1-.594 12.657c-2.41 9.738-9.402 17.918-18.664 21.84-4.371 1.851-9.297 2.746-13.898 2.53zm-7.86-13.543c3.094-.434 5.84-2.445 7.246-5.313.434-.882.758-1.96.899-2.996.035-.215.062-.195-.524-.273-.238-.031-.496-.07-.57-.086-.14-.027-.14-.024-.172.3a7.52 7.52 0 0 1-.18.883c-.879 3.497-3.84 5.997-7.476 6.31l-.406.034v1.25l.308-.015c.168-.008.563-.047.875-.094zm21.238.004c2.668-.364 5.106-1.91 6.637-4.2.762-1.14 1.348-2.695 1.52-4.027l.035-.25-.367-.035c-.2-.023-.399-.05-.598-.086-.133-.031-.25-.043-.262-.027-.015.015-.07.277-.12.582a8.405 8.405 0 0 1-1.27 3.152c-1.477 2.195-3.746 3.512-6.426 3.719l-.43.031v1.258l.38-.023c.21-.012.616-.051.901-.094zm-23.015-.54c0-.456-.016-.617-.063-.617-.03 0-.293-.027-.578-.066-2.996-.398-5.601-2.418-6.762-5.242a9.595 9.595 0 0 1-.53-1.977c-.09-.605-.036-2.093.097-2.742a8.445 8.445 0 0 1 3.598-5.324c.386-.258 1.19-.676 1.585-.82.215-.082.23-.102.258-.313.047-.34.035-1.098-.015-1.098-.086 0-.868.293-1.258.473-1.254.567-2.59 1.613-3.492 2.73-.778.962-1.453 2.286-1.727 3.399-.375 1.516-.379 3.703-.004 5.176.52 2.066 2.008 4.097 3.988 5.441 1.329.895 3.235 1.559 4.594 1.59l.309.008zm21.187.005v-.614l-.23-.027c-.64-.082-1.008-.14-1.352-.227a8.366 8.366 0 0 1-6.277-7.046c-.059-.434-.063-.684-.02-1.266.028-.399.059-.75.075-.785.011-.035 0-.063-.028-.063-.093 0 .133-1.023.38-1.742.777-2.242 2.64-4.176 4.827-5.008.207-.082.317-.148.332-.215.035-.218.055-.437.063-.656.027-.55.027-.555-.078-.555-.059 0-.325.083-.586.18a9.91 9.91 0 0 0-3.586 2.34c-1.875 1.953-2.715 4.27-2.617 7.188.047 1.34.226 2.222.675 3.285 1.059 2.504 3.23 4.5 5.825 5.351.812.27 1.71.45 2.32.465l.277.008zm-30.937-9.043c.012-.297.015-.578.015-.63.004-.07-.05-.085-.414-.093-1.398-.027-2.539-.297-3.671-.863-2.653-1.328-4.313-3.75-4.633-6.766l-.032-.3-.597-.032c-.328-.016-.614-.016-.63.004-.054.066.044.937.177 1.578.406 1.961 1.539 3.918 3.004 5.2 1.773 1.55 3.992 2.417 6.222 2.437l.551.011zm21.285-.094v-.633l-.652-.008c-1.301-.008-2.45-.308-3.649-.953-2.047-1.098-3.61-3.047-4.172-5.21-.09-.364-.09-.364-.32-.45-.266-.102-1.055-.262-1.09-.223-.015.012.02.242.078.512.305 1.36.887 2.64 1.715 3.762.34.457 1.094 1.242 1.582 1.644.938.785 2.281 1.5 3.402 1.809.122.031.25.09.293.121.149.121 1.172.238 2.254.254l.559.016zm21.89.586c3.618-.39 6.735-2.805 7.997-6.18.308-.828.613-2.25.613-2.86v-.12h-1.27l-.03.406c-.235 2.82-2.071 5.445-4.688 6.71-1.215.587-2.52.864-4.094.864-1.14 0-1.863-.187-2.965-.766-1.129-.593-1.82-1.093-2.55-1.851-1.063-1.102-1.739-2.297-2.173-3.875-.039-.148-1.234-.54-1.336-.434-.054.055.122.832.336 1.48.664 2 2.082 3.864 3.84 5.04.762.508 1.727.973 2.469 1.195.2.063.398.153.438.2.109.132.792.214 1.93.23.538.012 1.206-.008 1.487-.04zm-40.273-.52c1.945-.675 3.793-2.164 4.91-3.96.86-1.372 1.407-3.141 1.48-4.755.028-.558-.085-1.68-.241-2.39a9.722 9.722 0 0 0-2.016-4.11c-1.633-1.953-3.887-3.144-6.457-3.421a9.77 9.77 0 0 0-.754-.051h-.273v1.27l.605.027c3.707.183 6.899 2.933 7.672 6.617.098.476.207 1.39.168 1.453-.008.016-.027.367-.043.785a7.537 7.537 0 0 1-.824 3.223c-.89 1.777-2.469 3.246-4.293 3.992-.387.16-.403.172-.434.352-.07.398-.101 1.148-.05 1.148.023 0 .277-.082.55-.18zm21.274 0c2.379-.86 4.304-2.605 5.418-4.922.332-.691.527-1.293.714-2.214.137-.653.157-.844.16-1.602.008-1.242-.019-1.68-.144-2.297-.379-1.84-1.316-3.543-2.707-4.91-1.598-1.57-3.648-2.5-6-2.715l-.332-.027v1.27l.379.03c.922.083 2.137.426 2.957.837.832.414 1.46.882 2.184 1.605 1.25 1.25 1.968 2.594 2.324 4.344.093.476.11.71.113 1.593 0 1.2-.043 1.497-.348 2.426-.632 1.922-1.718 3.38-3.316 4.465-.422.285-1.32.758-1.645.863-.097.028-.195.094-.21.141-.044.11-.098 1.293-.06 1.293.017 0 .247-.082.513-.176zm16.718-1.363c-.004-.223-.203-1.05-.394-1.629a9.528 9.528 0 0 0-3.766-4.918c-1.414-.95-2.851-1.437-4.535-1.539-.277-.02-.555-.035-.824-.059l-.336-.03v1.226l.652.035c3.742.164 6.828 2.664 7.801 6.305.086.328.098.34.316.433.207.09.88.278 1.024.285.035 0 .062-.047.062-.109zm-21.257-.074a9.43 9.43 0 0 1-.106-.504c-.184-.934-.664-2.145-1.191-2.992a9.7 9.7 0 0 0-6.594-4.47 10.64 10.64 0 0 0-1.168-.108l-.727-.032v1.246l.309.004c.559.004 1.023.078 2.223.352 1.23.273 2.562 1.047 3.605 2.086 1.074 1.07 1.762 2.215 2.164 3.617.188.64.13.59.887.79.465.12.629.124.598.01zM2.82 31.406a8.2 8.2 0 0 1 .797-2.875c.79-1.633 2.278-3.117 3.895-3.883a9.557 9.557 0 0 1 2.773-.793l.23-.03v-1.24l-.382.028c-1.254.098-2.883.657-4.051 1.383-2.363 1.473-3.988 3.89-4.426 6.59-.058.336-.113.789-.129 1.016l-.035.402h1.266zm60.473.403c0-.375-.102-1.157-.23-1.715-.57-2.574-2.184-4.805-4.477-6.188-1.098-.668-2.59-1.168-3.832-1.289l-.336-.031.02.633.011.629.465.07c1.887.262 3.781 1.293 5.031 2.734 1.203 1.383 1.953 3.16 2.051 4.852l.027.5h1.274v-.195zm-39.203-.625c.015-.133.078-.457.137-.723.734-3.606 3.832-6.328 7.53-6.621l.466-.031.011-.606c.016-.512.008-.61-.058-.633-.117-.05-1.176.075-1.774.203a9.59 9.59 0 0 0-6.675 5.254c-.442.91-.774 2-.872 2.883l-.03.309.14.004c.078.004.32.043.539.093.582.13.555.133.59-.132zm21.3-.22a8.361 8.361 0 0 1 5.59-6.698 7.437 7.437 0 0 1 2.223-.418l.676-.032v-1.265h-.313c-.171 0-.546.023-.828.05-2.683.274-5.144 1.649-6.754 3.778a9.857 9.857 0 0 0-1.886 4.633l-.032.258h.188c.105.003.367.039.582.07.223.035.418.062.445.058.024-.007.07-.199.11-.433zm0 0"/></svg>