<svg xmlns="http://www.w3.org/2000/svg" width="80" height="80"><path d="M38.826 79.995l-.813-.038a39.839 39.839 0 0 1-22.156-8.05 40.243 40.243 0 0 1-9.837-10.77A39.733 39.733 0 0 1 .213 44.27C.051 42.74 0 41.725 0 40.004c0-1.722.05-2.737.213-4.268a39.726 39.726 0 0 1 7.754-19.705A40.085 40.085 0 0 1 26.42 2.362 40.168 40.168 0 0 1 44.268.226a39.766 39.766 0 0 1 16.42 5.528 40.169 40.169 0 0 1 15.953 18.153 39.796 39.796 0 0 1 3.253 13.003c.087 1.14.106 1.682.106 3.094 0 1.41-.019 1.952-.106 3.093-.883 11.525-6.701 22.062-16.018 29.01a39.841 39.841 0 0 1-17.344 7.37c-1.475.24-2.883.392-4.465.481a80.63 80.63 0 0 1-3.24.037zm3.136-9.813a1.452 1.452 0 0 0 1.066-1.74 1.522 1.522 0 0 0-.63-.89c-.708-.453-1.693-.183-2.062.566-.3.61-.183 1.26.31 1.721.341.321.865.457 1.316.343zm-4.433-.174a1.473 1.473 0 0 0 1.004-1.364 1.44 1.44 0 0 0-1.36-1.455 1.437 1.437 0 0 0-1.53 1.406c-.004.28.04.465.165.707.193.371.622.691 1.017.759.196.033.498.01.704-.053zm8.913-.458c.51-.11.94-.556 1.07-1.103.16-.678-.247-1.41-.922-1.658-.177-.066-.237-.074-.508-.073-.268.001-.33.01-.49.074a1.48 1.48 0 0 0-.95 1.367c0 .18.087.515.18.686.105.197.388.476.58.572.371.185.648.221 1.04.135zm-13.431-.332c.373-.105.739-.403.901-.735a1.448 1.448 0 0 0-.788-2.015c-.157-.061-.22-.07-.487-.072-.254-.001-.337.01-.487.061-.407.14-.769.508-.902.915-.09.27-.09.652-.002.908a1.442 1.442 0 0 0 1.765.938zm17.888-1.032c.586-.21.952-.689.991-1.298a1.389 1.389 0 0 0-.416-1.093c-.307-.31-.657-.443-1.108-.421-.679.034-1.2.495-1.34 1.184-.11.536.142 1.137.605 1.447.205.136.42.217.64.24.206.02.478-.005.628-.059zm-22.249-.393c.36-.067.71-.293.921-.593.194-.276.252-.471.25-.845 0-.365-.05-.525-.244-.81a1.45 1.45 0 0 0-.885-.592 1.263 1.263 0 0 0-.598 0 1.44 1.44 0 0 0-1.144 1.415c0 .904.817 1.588 1.7 1.425zm26.076-1.466c.096-.015.268-.073.386-.129.517-.246.818-.726.82-1.31a1.35 1.35 0 0 0-.464-1.054 1.429 1.429 0 0 0-1.998.043c-.304.3-.447.683-.418 1.125.055.844.83 1.458 1.674 1.325zm-29.957-.735a1.48 1.48 0 0 0 1.024-1.044c.195-.754-.282-1.556-1.043-1.752-.906-.233-1.808.465-1.807 1.398.002.65.44 1.234 1.054 1.398.197.054.592.053.772 0zm15.286-1.867a1.478 1.478 0 0 0 1.043-1.19 1.447 1.447 0 0 0-2.082-1.494 1.499 1.499 0 0 0-.802 1.286c0 .354.162.749.412 1.003.297.3.615.436 1.029.437.157 0 .31-.016.4-.042zm18.592-.029c.472-.129.86-.52 1.002-1.009a1.652 1.652 0 0 0-.012-.815 1.607 1.607 0 0 0-.67-.83c-.408-.237-.964-.241-1.4-.013a1.717 1.717 0 0 0-.594.594 1.45 1.45 0 0 0 .22 1.66c.38.41.911.562 1.454.413zm-14.625-.289a1.439 1.439 0 0 0 1.108-1.386c.001-.413-.14-.76-.424-1.041a1.404 1.404 0 0 0-.993-.42 1.368 1.368 0 0 0-1.035.42 1.473 1.473 0 0 0-.408.729 1.449 1.449 0 0 0 1.752 1.698zm-7.985-.092c.274-.07.47-.186.682-.399.81-.819.366-2.197-.78-2.423a1.438 1.438 0 0 0-1.543.78 1.343 1.343 0 0 0-.15.748c.046.741.678 1.334 1.435 1.344.082.002.242-.021.356-.05zm-14.844-.472c.548-.151.97-.64 1.045-1.21a1.455 1.455 0 0 0-1.432-1.626c-.47 0-.906.223-1.174.6-.405.566-.36 1.319.11 1.825.381.412.908.562 1.45.411zm26.68-.409c.394-.073.82-.396.999-.759.096-.196.17-.486.17-.668 0-.32-.148-.702-.37-.95a1.434 1.434 0 0 0-2.111-.052 1.428 1.428 0 0 0 .016 2.035c.335.333.824.481 1.296.394zm-15.692-.228c.345-.08.687-.327.889-.638a1.46 1.46 0 0 0 .031-1.494 1.67 1.67 0 0 0-.606-.57 1.448 1.448 0 0 0-2.09 1.21c-.066.95.842 1.712 1.776 1.492zm19.508-1.513c.588-.214.961-.744.961-1.366 0-.724-.52-1.32-1.245-1.428a1.01 1.01 0 0 0-.446.009c-.695.137-1.195.73-1.195 1.419 0 .677.447 1.241 1.12 1.415.215.055.581.033.805-.049zm10.196-.088a1.468 1.468 0 0 0 1-.918c.094-.247.098-.68.009-.939a1.446 1.446 0 0 0-2.396-.565 1.52 1.52 0 0 0-.397.744c-.049.233-.049.326 0 .555.118.56.504.972 1.054 1.127.17.048.536.046.73-.004zm-33.156-.198c.7-.264 1.097-.979.932-1.679a1.47 1.47 0 0 0-.995-1.07 1.732 1.732 0 0 0-.806-.009c-.786.231-1.246 1.08-.989 1.827.174.505.515.828 1.026.972.204.057.626.037.832-.041zm-10.732-.803a1.468 1.468 0 0 0 1.057-.938c.096-.267.1-.667.009-.933a1.434 1.434 0 0 0-1.362-.98c-.425 0-.749.132-1.043.427-.786.784-.414 2.12.67 2.411.175.048.478.053.669.013zm36.86-1.238c.63-.149 1.097-.749 1.095-1.408 0-.39-.147-.733-.436-1.02-.315-.31-.63-.429-1.086-.406-.484.024-.865.24-1.132.643-.152.23-.205.398-.22.7-.023.483.089.78.418 1.106.377.373.847.506 1.36.385zm-29.49-.347c.513-.134.945-.576 1.055-1.082.046-.21.022-.612-.049-.807a1.486 1.486 0 0 0-.873-.875 1.73 1.73 0 0 0-.835-.039 1.32 1.32 0 0 0-.66.376 1.421 1.421 0 0 0-.275 1.701c.162.32.547.628.907.725.19.051.535.052.73.001zm15.228-.425c.379-.1.754-.395.922-.728.291-.576.196-1.245-.239-1.687-.681-.692-1.834-.541-2.302.3a1.447 1.447 0 0 0 .248 1.73c.187.187.41.318.65.383.185.05.532.05.72.001zm-3.954-.452c.572-.198.984-.774.984-1.376 0-.453-.259-.935-.634-1.182a1.35 1.35 0 0 0-.74-.251c-1.297-.073-2.027 1.464-1.146 2.415.402.434.988.585 1.536.394zm7.987-.073c.512-.113.955-.572 1.067-1.103.074-.35.03-.658-.138-.98a1.449 1.449 0 0 0-1.889-.634 1.468 1.468 0 0 0-.83 1.185 1.47 1.47 0 0 0 .925 1.483c.263.104.543.12.865.049zm20.088-.127c.34-.121.647-.392.802-.708.094-.19.171-.485.171-.654 0-.34-.186-.775-.436-1.024a1.425 1.425 0 0 0-2.034-.003 1.413 1.413 0 0 0-.437 1.036c0 .634.447 1.21 1.083 1.392.193.055.646.034.851-.039zm-49.319-1.056a1.484 1.484 0 0 0 1.054-.985c.083-.271.079-.628-.012-.884a1.445 1.445 0 0 0-2.444-.505c-.27.296-.395.652-.37 1.054a1.448 1.448 0 0 0 1.772 1.32zm17.35-.145c.451-.14.81-.485.961-.928.05-.144.062-.237.062-.46 0-.224-.012-.317-.062-.46a1.49 1.49 0 0 0-.698-.819 1.493 1.493 0 0 0-1.358 0c-.583.31-.886.989-.726 1.622.126.5.467.866.964 1.036.233.08.615.084.858.009zm24.992-.259c.44-.122.809-.468.966-.903.07-.194.095-.58.05-.791-.135-.654-.744-1.142-1.424-1.142a1.47 1.47 0 0 0-1.39 1.084c-.12.465.008.974.332 1.326.392.426.919.579 1.466.426zm-9.192-.046a1.442 1.442 0 0 0 .523-2.367 1.409 1.409 0 0 0-1.067-.433 1.378 1.378 0 0 0-1.02.46c-.746.806-.377 2.085.69 2.391.213.061.648.036.874-.05zm-25.904-.379a1.475 1.475 0 0 0 1.017-.988c.197-.654-.127-1.4-.737-1.696-1.268-.617-2.567.697-1.937 1.958.16.32.545.63.903.726.193.052.552.052.754 0zm6.894-1.718c.38-.133.754-.507.885-.886a1.459 1.459 0 0 0-.313-1.464 1.356 1.356 0 0 0-1.06-.458c-.424 0-.725.128-1.027.433a1.283 1.283 0 0 0-.374.657 1.281 1.281 0 0 0-.014.655c.112.531.515.95 1.058 1.103.205.057.624.037.845-.04zm22.12-.31a1.465 1.465 0 0 0 1.028-1.117c.103-.496-.064-.984-.461-1.35a1.368 1.368 0 0 0-.961-.37c-.395 0-.732.141-1.02.427-.66.655-.54 1.729.25 2.243a1.41 1.41 0 0 0 1.165.167zm15.048-.026c.646-.192 1.066-.74 1.065-1.389 0-.429-.12-.716-.425-1.024-.302-.304-.59-.424-1.015-.424-.419 0-.71.122-1.016.425-.304.302-.424.59-.424 1.015 0 .383.12.695.371.967.193.208.342.307.6.397.259.09.606.103.844.033zm-6.807-.825a1.45 1.45 0 0 0 .892-2.195 1.443 1.443 0 0 0-2.232-.236 1.376 1.376 0 0 0-.418 1.035c0 .49.237.929.649 1.199.325.213.734.285 1.11.197zm-46.322-.417a1.447 1.447 0 0 0 .044-2.736 1.688 1.688 0 0 0-.785-.061 1.528 1.528 0 0 0-.995.76 1.393 1.393 0 0 0-.007 1.295c.228.462.602.722 1.17.81.122.02.411-.015.573-.068zm6.863-.062a1.51 1.51 0 0 0 .893-.64c.358-.553.271-1.31-.206-1.787-.477-.477-1.237-.564-1.79-.205a1.447 1.447 0 0 0 1.103 2.631zm21.091-.242a1.482 1.482 0 0 0 1.018-.99 1.448 1.448 0 0 0-1.374-1.854c-.43-.001-.73.12-1.03.418-.29.286-.436.628-.437 1.02a1.47 1.47 0 0 0 1.07 1.406c.192.052.552.051.753 0zm-4.015-.421c.322-.131.576-.352.738-.644.128-.23.181-.44.18-.709a1.412 1.412 0 0 0-.65-1.208c-.23-.153-.423-.211-.745-.224-.25-.01-.303-.004-.489.058a1.394 1.394 0 0 0-.63.406 1.356 1.356 0 0 0-.373.97c0 .396.115.695.377.974.184.197.355.313.573.39.312.11.729.105 1.019-.013zm-10.666-.77a1.45 1.45 0 0 0 .546-2.383 1.531 1.531 0 0 0-.82-.416c-.702-.107-1.4.347-1.605 1.043-.06.207-.056.592.01.806.139.45.49.815.916.953.234.076.27.08.539.07.167-.006.292-.028.414-.073zm18.819-.203c.577-.21.956-.752.956-1.365 0-.66-.418-1.212-1.062-1.403a1.565 1.565 0 0 0-.814.015c-.616.208-1.013.75-1.013 1.382 0 .138.017.297.042.382.145.493.538.89 1.017 1.026.197.056.674.036.874-.037zm8.389-.166c.212-.034.505-.169.686-.315a1.67 1.67 0 0 0 .44-.63c.071-.196.095-.58.05-.796-.134-.646-.75-1.14-1.422-1.138-.39.001-.729.147-1.02.44-.298.3-.42.598-.418 1.027a1.42 1.42 0 0 0 .787 1.271c.303.153.568.194.897.141zm-20.472-.866c.52-.132.933-.54 1.067-1.053.06-.23.043-.616-.037-.84a1.494 1.494 0 0 0-1.068-.935 1.273 1.273 0 0 0-.603.002 1.467 1.467 0 0 0-1.075.957c-.137.387-.077.882.149 1.23.34.525.984.788 1.567.64zm34.62-.292c.805-.21 1.28-1.07 1.02-1.845a1.396 1.396 0 0 0-.41-.628 1.36 1.36 0 0 0-.975-.37 1.384 1.384 0 0 0-1.104.518c-.232.28-.326.549-.326.927 0 .657.437 1.225 1.075 1.396.185.05.532.05.72.002zm-6.616-.218a1.44 1.44 0 0 0 1.039-1.369 1.36 1.36 0 0 0-.42-1.03 1.421 1.421 0 0 0-1.884-.146 1.442 1.442 0 0 0-.2 2.13c.39.417.934.57 1.465.415zm-42.5-.549c.461-.17.817-.58.918-1.057a1.281 1.281 0 0 0-.014-.656 1.447 1.447 0 0 0-2.148-.882 1.496 1.496 0 0 0-.669.945c-.047.223-.047.37.001.596.11.52.546.967 1.072 1.1.232.058.616.038.84-.046zm-6.743-.563c.583-.212.95-.74.95-1.364 0-.403-.135-.732-.415-1.012a1.447 1.447 0 0 0-2.054-.001c-.176.176-.33.45-.383.68a1.92 1.92 0 0 0 .012.705c.13.501.55.909 1.07 1.04.228.058.587.037.82-.048zm36.362-.23c.27-.07.47-.185.669-.386a1.38 1.38 0 0 0 .413-1.015 1.38 1.38 0 0 0-.413-1.015 1.358 1.358 0 0 0-.685-.39 1.437 1.437 0 0 0-1.786 1.396 1.434 1.434 0 0 0 1.802 1.41zm-23.663-.613a1.47 1.47 0 0 0 .924-.935c.128-.375.054-.894-.176-1.24-.564-.85-1.822-.862-2.394-.024-.16.235-.235.448-.252.723-.047.727.397 1.332 1.114 1.516.199.051.579.032.784-.04zM55.9 46.11a1.452 1.452 0 0 0 1.031-1.468 1.454 1.454 0 0 0-.895-1.255 1.095 1.095 0 0 0-.469-.097c-.549-.024-.986.19-1.276.628a1.441 1.441 0 0 0 1.61 2.192zm-24.824-.493c.509-.132.91-.548 1.045-1.08.116-.457-.053-1.02-.409-1.365-.567-.55-1.534-.526-2.063.052-.536.586-.524 1.454.028 2.007.187.187.414.323.643.385.191.051.562.052.756.001zm7.431-.91c.379-.105.72-.385.89-.732.099-.2.176-.493.176-.664 0-.34-.182-.767-.435-1.02a1.397 1.397 0 0 0-1.019-.42c-.407 0-.737.136-1.027.426-.583.583-.57 1.5.03 2.065.381.36.88.484 1.385.345zm23.916-.076c.499-.105.89-.442 1.082-.933.052-.134.062-.21.064-.467 0-.271-.007-.33-.073-.508a1.49 1.49 0 0 0-.913-.885 1.598 1.598 0 0 0-.9.002 1.454 1.454 0 0 0-.78 2.124c.113.188.194.278.361.401.36.266.742.353 1.159.266zm-20.027-.053c.392-.093.79-.407.962-.76.09-.185.163-.478.163-.654 0-.176-.073-.469-.163-.653a1.686 1.686 0 0 0-.629-.637c-.78-.394-1.702-.035-2.027.788-.064.162-.072.218-.072.502 0 .285.008.34.072.504.273.69.99 1.076 1.694.91zm26.639-.296c.62-.16 1.082-.762 1.084-1.414 0-.18-.087-.514-.18-.686a1.709 1.709 0 0 0-.58-.572 1.371 1.371 0 0 0-.694-.168c-.409 0-.733.135-1.027.429a1.417 1.417 0 0 0-.248 1.687c.18.343.527.622.904.725.182.05.544.05.741-.001zm-51.01-.2c.252-.053.524-.202.718-.396a1.37 1.37 0 0 0 .423-1.015c0-.417-.131-.742-.415-1.026a1.448 1.448 0 0 0-1.725-.249c-.436.232-.74.745-.74 1.249 0 .419.136.752.428 1.042a1.44 1.44 0 0 0 1.31.395zm32.272-.73c.256-.069.48-.198.667-.385a1.43 1.43 0 0 0-.026-2.067 1.443 1.443 0 0 0-2.418.763c-.156.738.314 1.485 1.061 1.686.187.05.532.051.716.002zm-38.595-.395c.882-.322 1.232-1.31.75-2.123-.262-.441-.85-.74-1.342-.684a1.404 1.404 0 0 0-.888.41 1.39 1.39 0 0 0-.439 1.124 1.455 1.455 0 0 0 1.107 1.32c.222.057.586.035.812-.047zm12.564-.345a1.455 1.455 0 0 0 .866-1.847 1.443 1.443 0 0 0-2.38-.535c-.801.788-.428 2.153.665 2.431.216.055.633.03.849-.05zm32.389-.466c.478-.14.864-.537.993-1.022.052-.196.05-.567-.003-.749a1.474 1.474 0 0 0-1.057-1.025c-.767-.18-1.517.267-1.742 1.04-.068.234-.044.662.05.889.207.503.638.84 1.178.921a1.87 1.87 0 0 0 .581-.054zm-26.47-.639a1.469 1.469 0 0 0 1.066-1.397c0-.643-.46-1.237-1.082-1.4a1.667 1.667 0 0 0-.814.021c-.498.17-.835.533-.963 1.036a1.458 1.458 0 0 0 1.021 1.741c.198.053.592.053.773 0zm6.213-.051a1.469 1.469 0 0 0 1.081-1.04c.052-.197.052-.541.002-.731a1.483 1.483 0 0 0-1.084-1.054c-.758-.179-1.546.312-1.733 1.08a1.464 1.464 0 0 0 .399 1.361c.357.356.851.498 1.335.384zm7.721-.266a1.54 1.54 0 0 0 .871-.627 1.455 1.455 0 0 0-.2-1.8c-.55-.55-1.456-.568-2.008-.04-.305.29-.437.584-.454 1.014-.01.25-.004.304.058.49.16.474.488.795.976.953.185.06.548.065.757.01zm18.7-.654c.61-.188 1.046-.834.997-1.474-.067-.887-.928-1.526-1.768-1.312-1.106.283-1.495 1.614-.705 2.416.198.201.526.38.773.423.196.033.498.01.703-.053zm-44.901-.456a1.452 1.452 0 0 0 1.104-1.712 1.355 1.355 0 0 0-.388-.71 1.363 1.363 0 0 0-1.028-.428c-.276 0-.455.043-.694.169-.375.197-.676.634-.739 1.074a1.462 1.462 0 0 0 .569 1.35c.33.249.764.344 1.176.257zm51.148-.303c.286-.06.505-.181.723-.398.313-.312.455-.675.43-1.096a1.443 1.443 0 0 0-2.13-1.196c-.23.12-.492.391-.608.627a1.45 1.45 0 0 0 .654 1.942c.307.151.602.19.93.12zM50.27 39.09c.53-.13.98-.627 1.068-1.181a1.45 1.45 0 0 0-1.424-1.667c-.413 0-.742.135-1.032.426-.836.835-.38 2.243.794 2.455.144.026.415.01.594-.033zm-25.943-.542a1.48 1.48 0 0 0 1.066-1.04c.05-.198.052-.541.001-.731-.149-.56-.62-.983-1.195-1.073a1.471 1.471 0 0 0-1.44.675c-.354.596-.268 1.302.217 1.785.357.355.88.504 1.351.384zm-12.707-.095c.53-.11 1.004-.583 1.113-1.112a1.448 1.448 0 0 0-1.398-1.746 1.44 1.44 0 0 0-1.417 1.06c-.066.222-.06.585.013.816.144.453.556.844 1.024.97.17.046.475.051.665.012zm44.592-.358a1.448 1.448 0 0 0 1.11-1.386 1.376 1.376 0 0 0-.424-1.043c-.754-.757-1.99-.48-2.388.536-.09.23-.092.695-.004.95a1.46 1.46 0 0 0 1.706.943zm-14.182-.158a1.47 1.47 0 0 0 1.058-.918 1.59 1.59 0 0 0 .048-.83 1.457 1.457 0 0 0-1.743-1.08c-.344.08-.697.33-.887.627a1.49 1.49 0 0 0-.155 1.242c.25.708.958 1.112 1.679.96zm-3.441-.154c.816-.302 1.192-1.266.792-2.028-.12-.23-.416-.521-.636-.629a1.788 1.788 0 0 0-.653-.163c-.33 0-.722.156-.972.388-.856.792-.512 2.158.625 2.48.205.058.622.035.844-.048zm-7.675-.474c.408-.104.746-.377.927-.748.128-.262.165-.444.15-.736a1.42 1.42 0 0 0-.805-1.215 1.387 1.387 0 0 0-.988-.102 1.274 1.274 0 0 0-.67.386c-.299.3-.423.604-.422 1.028.002.423.152.762.464 1.05.367.34.854.463 1.344.337zm31.295-.681c.268-.069.487-.192.677-.384a1.43 1.43 0 0 0-.026-2.067c-.92-.866-2.425-.232-2.431 1.025-.002.432.12.732.416 1.03.37.371.88.52 1.364.396zm-43.547-.58c.487-.177.837-.576.942-1.073.022-.103.04-.235.04-.293 0-.363-.164-.742-.437-1.016-.598-.597-1.519-.572-2.095.057a1.426 1.426 0 0 0 .009 1.925c.23.248.478.391.803.462.183.04.541.01.738-.062zm49.819-.75a1.47 1.47 0 0 0 1.018-.93c.096-.266.1-.668.01-.932a1.511 1.511 0 0 0-.407-.617 1.442 1.442 0 0 0-2 .06 1.436 1.436 0 0 0-.253 1.685c.13.258.435.545.692.652.283.118.674.152.94.082zm-19.96-.098a1.487 1.487 0 0 0 1.027-1.385c0-.63-.47-1.24-1.08-1.4a1.716 1.716 0 0 0-.79.012 1.469 1.469 0 0 0-1.007 1.687c.046.223.197.51.36.686.385.416.95.567 1.49.4zm-23.051-.545c.27-.07.444-.173.66-.386.462-.46.57-1.068.29-1.65a1.44 1.44 0 0 0-2.369-.339 1.427 1.427 0 0 0 .046 1.988c.192.192.431.33.677.389.193.047.512.046.696-.002zm29.521-.458c.434-.119.808-.469.965-.903.07-.196.095-.58.05-.795a1.497 1.497 0 0 0-.416-.735c-.812-.76-2.09-.401-2.4.674-.062.215-.044.634.036.857a1.45 1.45 0 0 0 1.765.902zm-42.384-.23c.855-.311 1.213-1.25.786-2.06a1.595 1.595 0 0 0-.61-.594 1.425 1.425 0 0 0-1.327.01 1.469 1.469 0 0 0-.688.778c-.062.157-.071.22-.072.487-.001.253.01.338.06.485a1.51 1.51 0 0 0 1.036.941c.225.057.587.037.815-.046zm20.71-.086a1.48 1.48 0 0 0 1.084-.934c.07-.195.095-.579.05-.794a1.495 1.495 0 0 0-1.07-1.098c-.915-.215-1.787.46-1.794 1.386a1.421 1.421 0 0 0 .81 1.316c.324.16.585.195.92.124zm27.84-1.112c.97-.359 1.266-1.595.562-2.347a1.444 1.444 0 0 0-2.348.352c-.074.152-.12.292-.14.424a1.467 1.467 0 0 0 1.086 1.616c.232.059.616.038.84-.045zm-15.896-.22a1.472 1.472 0 0 0 1.14-1.415c0-1.097-1.16-1.79-2.137-1.276-.229.12-.492.392-.607.627-.09.18-.162.474-.162.65 0 .307.15.703.352.934.368.418.882.592 1.414.48zm-25.502-.267a1.47 1.47 0 0 0 1.081-.958 1.49 1.49 0 0 0-.155-1.243 1.571 1.571 0 0 0-.928-.637c-.853-.18-1.678.46-1.732 1.344-.026.42.114.776.432 1.095.357.36.818.501 1.302.399zm17.184-.587a1.445 1.445 0 0 0-.165-2.861 1.44 1.44 0 0 0-1.471.953c-.091.24-.095.706-.007.945.19.52.618.887 1.131.973.21.035.289.033.512-.01zm-9.229-.52c.088-.03.242-.11.342-.179.43-.292.654-.75.625-1.275-.058-1.044-1.15-1.673-2.1-1.21a1.631 1.631 0 0 0-.636.636c-.09.185-.164.478-.164.654 0 .176.073.469.164.653.168.346.569.663.963.764.196.05.603.029.806-.042zm13.352.025c.226-.036.564-.198.738-.355a1.45 1.45 0 0 0 .452-1.351c-.141-.675-.67-1.132-1.35-1.166a1.35 1.35 0 0 0-1.096.42 1.43 1.43 0 0 0-.046 1.987c.345.378.806.543 1.302.465zm26.141-.227c.49-.115.902-.516 1.053-1.024.057-.19.057-.586 0-.777-.21-.718-.952-1.176-1.664-1.028-.51.107-.928.465-1.096.937-.07.2-.096.583-.053.793.052.248.202.515.401.715.36.359.863.501 1.359.384zm-14.511-.163a1.464 1.464 0 0 0 1.068-1.396c0-.53-.322-1.053-.793-1.287a1.324 1.324 0 0 0-.74-.147c-.671.033-1.194.49-1.337 1.17a1.449 1.449 0 0 0 .604 1.46c.367.246.78.315 1.198.2zm-38.679-1.038a1.51 1.51 0 0 0 .675-.411c.274-.29.39-.585.39-.987 0-.424-.12-.712-.424-1.016-.304-.304-.591-.424-1.016-.424-.39 0-.691.116-.97.373a1.436 1.436 0 0 0-.307 1.74c.165.327.54.626.911.726.192.052.563.05.741-.001zm45.115-.52c.395-.082.801-.393.974-.747.414-.844 0-1.795-.898-2.062a1.801 1.801 0 0 0-.76-.002 1.442 1.442 0 0 0-1.065 1.4c0 .664.433 1.223 1.082 1.398.172.046.476.052.667.012zm-37.271-.52a1.453 1.453 0 0 0 1.065-1.393 1.39 1.39 0 0 0-.426-1.02 1.377 1.377 0 0 0-1.036-.426 1.46 1.46 0 0 0-1.368 1.012c-.063.2-.074.549-.026.761.114.497.534.93 1.033 1.068.184.05.582.049.758-.003zm8.707-.372c.24-.063.464-.194.655-.385.285-.285.425-.624.426-1.03.002-.888-.85-1.593-1.707-1.414a1.463 1.463 0 0 0-1.163 1.163c-.15.717.329 1.468 1.062 1.665.188.05.533.051.727 0zm19.085-.292c.489-.13.86-.49 1.032-1.001.073-.217.067-.624-.012-.854-.238-.686-.926-1.1-1.622-.977-.309.055-.54.176-.772.404-.314.31-.462.7-.429 1.129.03.37.163.657.432.925.278.276.599.408 1 .41.125.002.292-.015.37-.036zm15.664-1.215c.409-.12.786-.48.938-.897.079-.218.096-.64.035-.851-.113-.388-.399-.75-.724-.913a1.427 1.427 0 0 0-1.697.264c-.306.302-.437.652-.415 1.103.047.942.939 1.562 1.863 1.294zm-31.182-.523a1.423 1.423 0 0 0 1.029-1.307c.024-.434-.114-.8-.416-1.1a1.35 1.35 0 0 0-1.098-.423 1.426 1.426 0 0 0-1.313 1.019 1.454 1.454 0 0 0 .37 1.445c.19.19.521.368.756.408.185.031.488.012.672-.042zm11.898-.146a1.47 1.47 0 0 0 1.142-1.41c-.001-.4-.145-.739-.437-1.03a1.426 1.426 0 0 0-2.03.002 1.443 1.443 0 0 0-.012 2.036c.169.17.439.328.668.39.174.046.477.052.67.012zm10.691-.12a1.44 1.44 0 0 0 .983-.928 1.472 1.472 0 0 0-.149-1.23 1.448 1.448 0 0 0-2.274-.223 1.537 1.537 0 0 0-.398.97c0 .97.913 1.67 1.838 1.41zm-40.604-.292a1.484 1.484 0 0 0 1.123-1.415c0-.178-.086-.513-.178-.686a1.768 1.768 0 0 0-.622-.6 1.788 1.788 0 0 0-.653-.164c-.46 0-.96.276-1.217.674a1.3 1.3 0 0 0-.223.779c0 .423.136.745.436 1.035a1.42 1.42 0 0 0 1.334.377zm8.173-.104c.253-.054.536-.21.727-.401.277-.277.413-.612.413-1.014a1.444 1.444 0 0 0-2.112-1.287c-.21.105-.486.378-.601.596a1.456 1.456 0 0 0 .24 1.697c.358.363.845.512 1.333.409zm13.636-.375a1.47 1.47 0 0 0 1.122-1.083 1.473 1.473 0 0 0-.941-1.709c-.254-.088-.719-.086-.952.005a1.526 1.526 0 0 0-.799.695c-.3.571-.198 1.234.263 1.694.361.361.82.501 1.307.398zm4.16-.109a1.466 1.466 0 0 0 1.085-1.41 1.46 1.46 0 0 0-.68-1.22 1.47 1.47 0 0 0-1.5-.03c-.526.308-.813.945-.69 1.53.113.542.532.989 1.059 1.13.192.052.525.052.726 0zM53.7 23.373c.763-.199 1.235-.944 1.077-1.698a1.49 1.49 0 0 0-1.09-1.116c-.74-.176-1.507.28-1.721 1.023-.054.184-.06.518-.014.716.117.501.563.954 1.058 1.074.21.05.497.051.69 0zm8.91-.186a1.46 1.46 0 0 0 1.075-.957c.09-.257.095-.613.012-.884a1.519 1.519 0 0 0-.65-.82c-.93-.546-2.115.083-2.177 1.154-.056.963.8 1.705 1.74 1.507zm-35.298-.133a1.44 1.44 0 0 0 .89-.568c.475-.664.31-1.605-.358-2.049a1.45 1.45 0 0 0-2.206.815 1.8 1.8 0 0 0-.002.76 1.48 1.48 0 0 0 1.1 1.041c.238.048.357.048.576.001zm-8.49-.879c.403-.085.79-.372.977-.724.35-.66.146-1.488-.466-1.894a1.438 1.438 0 0 0-1.82.176c-.29.29-.427.62-.427 1.022 0 .403.138.744.413 1.019a1.44 1.44 0 0 0 1.324.401zm31.426-.88a1.483 1.483 0 0 0 1.07-.944c.08-.236.087-.689.01-.911-.228-.672-.904-1.095-1.583-.992a1.482 1.482 0 0 0-1.193 1.06c-.054.205-.053.576.001.76.068.232.199.452.371.627.356.36.833.504 1.324.4zm-19.336-.299c.481-.141.863-.535.993-1.024.06-.224.05-.59-.021-.8-.252-.738-.978-1.147-1.724-.971-.512.12-.964.584-1.07 1.097-.046.215-.021.6.05.794.182.506.642.875 1.19.958a1.87 1.87 0 0 0 .582-.054zm28.763-1.151a1.456 1.456 0 0 0 .63-2.29 1.66 1.66 0 0 0-.63-.44c-.222-.08-.642-.098-.855-.036a1.438 1.438 0 0 0-.652.384c-.778.787-.456 2.052.614 2.408.207.07.668.056.893-.026zm-12.98-.053c.423-.166.77-.539.893-.964a1.93 1.93 0 0 0 .006-.762c-.098-.368-.404-.752-.73-.916a1.438 1.438 0 0 0-1.69.264 1.44 1.44 0 0 0-.261 1.686c.16.318.539.626.895.728.197.057.702.036.887-.036zm-12.148-.114c.366-.066.752-.326.953-.642.172-.27.216-.427.218-.77.001-.27-.007-.33-.073-.506a1.482 1.482 0 0 0-.88-.876 1.585 1.585 0 0 0-.931-.01A1.453 1.453 0 0 0 33.05 19c.297.503.914.783 1.496.678zm8.155-.625a1.437 1.437 0 0 0 .971-1.453 1.359 1.359 0 0 0-.432-.947 1.44 1.44 0 0 0-1.677-.247 1.703 1.703 0 0 0-.62.634 1.438 1.438 0 0 0 .26 1.653c.4.407.963.542 1.498.36zm-20.65.011c.532-.11 1.008-.583 1.117-1.11.044-.213.02-.595-.051-.793a1.481 1.481 0 0 0-.71-.803 1.799 1.799 0 0 0-.654-.171c-.339 0-.775.185-1.024.436-.28.28-.417.614-.417 1.017 0 .408.136.736.427 1.029.343.345.835.494 1.313.395zm16.655-.08c.53-.164.924-.63 1.006-1.187.077-.535-.182-1.098-.648-1.407a1.456 1.456 0 0 0-1.795.179 1.448 1.448 0 0 0 .215 2.246c.36.239.801.3 1.222.17zm17.22-1.824c.488-.13.88-.512 1.033-1.007.028-.088.044-.235.044-.394 0-.408-.137-.74-.423-1.026-.281-.281-.612-.414-1.03-.414-.619 0-1.159.389-1.362.98-.05.144-.062.237-.062.46 0 .224.013.317.062.46.155.452.541.817.994.938.188.05.56.052.744.003zm-29.945-.732c.996-.354 1.287-1.641.54-2.388a1.416 1.416 0 0 0-1.06-.423c-.398.004-.744.16-1.027.467-.74.8-.345 2.116.716 2.386.202.051.63.03.831-.042zm25.864-1.39c.268-.042.586-.206.786-.406a1.44 1.44 0 0 0-.044-2.09 1.45 1.45 0 0 0-1.473-.293 1.44 1.44 0 0 0-.572 2.324c.346.379.807.543 1.303.465zM29.85 14.53c.367-.067.738-.321.951-.65a1.456 1.456 0 0 0-.017-1.57 1.503 1.503 0 0 0-1.216-.657c-.812 0-1.483.724-1.432 1.546.054.868.854 1.49 1.714 1.331zm17.765-.945c.771-.162 1.282-.933 1.123-1.693-.063-.3-.18-.516-.4-.736a1.427 1.427 0 0 0-2.041-.009 1.433 1.433 0 0 0-.01 2.029c.356.368.83.515 1.328.41zm-13.29-.404a1.446 1.446 0 0 0 1.032-1.38c0-.411-.136-.74-.426-1.03-.786-.786-2.095-.439-2.412.64a1.811 1.811 0 0 0-.002.76c.143.55.634.975 1.226 1.064a1.87 1.87 0 0 0 .581-.054zm8.928-.475c.624-.166 1.093-.768 1.093-1.4 0-.779-.658-1.442-1.438-1.45-.622-.006-1.158.369-1.385.969-.092.242-.095.677-.007.934.156.453.547.82 1.01.946.173.048.548.048.727 0zm-4.559-.052c.276-.059.52-.19.718-.389.29-.289.432-.628.432-1.026 0-.403-.145-.748-.433-1.032a1.434 1.434 0 0 0-1.82-.171c-.287.19-.527.543-.607.893-.045.197-.02.587.052.79.24.678.959 1.083 1.658.935z"/></svg>