<svg xmlns="http://www.w3.org/2000/svg" width="64" height="64"><path d="M30.743 62.97c-4.526-.213-8.643-1.27-12.565-3.228A31.036 31.036 0 0 1 2.157 40.41a31.17 31.17 0 0 1-.238-15.927c1.47-5.922 4.716-11.337 9.267-15.457 7.277-6.59 17.167-9.33 26.837-7.439 4.65.91 9.194 2.974 12.92 5.87 2.01 1.563 4.025 3.57 5.527 5.505 3.268 4.211 5.41 9.193 6.18 14.365a31.175 31.175 0 0 1-.569 12.184c-2.321 9.37-9.052 17.25-17.96 21.022-4.207 1.781-8.95 2.645-13.378 2.438zm-9.964-8.75c.288-.16.595-.356.683-.433.18-.159.326-.415.35-.62.016-.13.003-.143-.22-.2-.42-.11-.488-.092-1.192.323-.361.213-.665.393-.674.4-.023.018.472.825.505.825.014 0 .26-.132.548-.294zM16.4 53.012c1.353-.893 5.448-3.754 9.704-6.78.758-.54.763-.54.977-.14.098.183.106.261.106.997v.798l.2.119.2.118.282-.22c.321-.253.307-.207.385-1.258.056-.756.006-.98-.283-1.284l-.179-.188.788-.567c1.115-.8 1.991-1.51 2.525-2.044.376-.376.494-.53.653-.855.107-.217.23-.534.274-.704.114-.44.101-1.237-.029-1.73-.19-.724-.434-1.138-1.795-3.051-1.14-1.601-1.717-2.625-1.717-3.046 0-.135.004-.137.276-.137h.276l.186.367.187.368.284.013.285.014.001-.284c.001-.156.017-.299.035-.317.064-.063 6.61.664 6.813.757.203.094.3.332.33.807l.028.432.195.014.194.014.061-.298c.079-.386.228-.74.336-.799a.46.46 0 0 1 .183-.045c.095 0 .098-.024.098-.734 0-.852.076-.76-.664-.807-.248-.016-1.741-.145-3.319-.285-1.578-.141-3.349-.29-3.936-.33-1.496-.105-1.66-.122-1.66-.17 0-.025-.243-.045-.543-.045h-.543l-.069.231c-.17.575-.138 1.217.099 1.974.162.519.73 1.636 1.66 3.264.43.753.87 1.564.978 1.802.189.415.197.453.197.907 0 .442-.01.496-.155.783-.311.616-1.001 1.315-2.432 2.464-.966.775-.908.742-1.082.614-.196-.145-.454-.103-.64.104-.12.132-.133.177-.111.369l.024.218-2.9 1.895c-1.594 1.042-4.285 2.8-5.98 3.904a312.76 312.76 0 0 0-3.13 2.054c-.03.03.189.278.625.709l.673.664.133-.07c.074-.038.486-.302.916-.586zm37.036-1.777c.267-.309.284-.345.582-1.256.256-.785.84-2.692 1.261-4.127.075-.254.122-.343.182-.343.161.002.497.194 1.464.835 1.053.697 1.199.77 1.538.774.203.002.235-.015.452-.247.364-.387.5-.587.483-.708-.014-.1-.036-.108-.264-.096-.225.012-.319-.036-.207-.105.023-.014.052-.091.063-.171.017-.114-.004-.166-.095-.238-.15-.117-.204-.116-.364.01-.113.089-.127.128-.106.285.023.169.016.182-.094.182-.128 0-.394-.165-.394-.245 0-.027.042-.103.095-.169.182-.232.097-.582-.142-.582-.17 0-.285.15-.285.37v.158l-.213-.174-.212-.174.117-.2c.065-.111.118-.246.118-.3 0-.253-.362-.343-.505-.126a.56.56 0 0 0-.08.258v.137l-.288-.16a1.8 1.8 0 0 0-.538-.192c-.136-.018-.248-.044-.248-.058 0-.111 1.482-4.692 2.555-7.895l.425-1.268-.323.03c-.307.029-.333.023-.538-.118-.119-.082-.235-.149-.258-.149-.023 0-.518 1.691-1.099 3.757-2.176 7.739-3.56 12.696-3.56 12.75 0 .073.15-.067.478-.445zm-28.76.158c.7-.1.842-.157 1.087-.443l.174-.203-.157-.136a1.761 1.761 0 0 0-.348-.222c-.185-.085-.208-.085-.806.005-.339.05-.673.092-.743.092-.07 0-.137.016-.15.036-.011.02.012.243.051.497.084.54-.01.501.892.373zm27.585-.353c.07-.216.128-.406.128-.422 0-.028-.435-.19-.451-.167a8.374 8.374 0 0 0-.105.402l-.096.39.148.092a.77.77 0 0 0 .198.095c.027.002.107-.173.178-.39zm-1.108-.52c.15-.442.151-.433-.128-.575-.121-.061-.16-.065-.175-.018-.041.125-.215.78-.215.81 0 .033.346.223.368.202.006-.006.074-.195.15-.42zm-37.784-.253c.48-.29 2.453-1.472 4.382-2.627 7.44-4.453 9.004-5.451 9.679-6.177.384-.414.807-1.081.648-1.022-.028.01-3.668 2.246-8.09 4.969l-8.04 4.95.147.186c.132.166.298.28.373.257.015-.005.42-.246.9-.536zm35.904-.412c.071-.217.129-.409.129-.427 0-.043-.291-.221-.36-.222-.048 0-.257.662-.257.815 0 .056.234.213.334.225.015.002.084-.174.154-.39zm-2.764.224c0-.026 2.12-7.727 2.254-8.188l.066-.227-.334-.216c-.184-.12-.352-.198-.373-.176-.02.022-.502 1.937-1.07 4.256l-1.032 4.215.21.18c.198.172.28.217.28.156zm9.086-.64l.1-.431-.213-.092a.904.904 0 0 0-.226-.079c-.013.014-.164.804-.164.859 0 .033.273.163.355.17.026.002.093-.19.148-.428zm-7.426-.245c.065-.215.119-.407.119-.427 0-.02-.091-.091-.202-.157-.11-.066-.202-.103-.202-.082 0 .02-.052.225-.116.453l-.115.416.175.092c.096.05.186.093.199.094.013.001.077-.174.142-.389zm4.58-.037a3.52 3.52 0 0 0 .114-.408c0-.03-.067-.079-.15-.107-.283-.1-.301-.084-.39.332-.046.21-.076.39-.068.396.06.051.308.162.34.152.023-.006.092-.17.154-.365zm-1.101-.541c.068-.208.109-.39.089-.407a2.787 2.787 0 0 0-.21-.135l-.176-.105-.047.18-.117.454-.07.273.174.09c.095.05.187.076.203.058.016-.017.085-.2.154-.408zm-20.59-.725c.392-.465.51-.75.446-1.087l-.032-.17-.283.029a1.477 1.477 0 0 0-.404.093c-.114.06-1.061 1.145-1.061 1.215 0 .019.165.167.367.331l.366.298.12-.14.48-.569zm18.71.079a3.51 3.51 0 0 0 .108-.407c0-.057-.283-.253-.363-.253-.04 0-.275.851-.243.877.067.055.308.159.344.148.026-.007.095-.172.154-.365zm6.273.252c0-.02.042-.213.09-.43l.09-.395-.216-.092c-.118-.05-.222-.086-.23-.078a2.775 2.775 0 0 0-.065.345 9.495 9.495 0 0 1-.074.437c-.02.085.007.12.13.173.178.078.274.092.275.04zm-42.4-.347l.11-.192.27.03.27.03-.129-.118a2.813 2.813 0 0 0-.227-.186l-.1-.07.107-.18c.075-.127.086-.173.038-.153l-.147.059c-.06.024-.094-.015-.148-.173l-.07-.205-.083.202c-.092.226-.103.231-.254.125-.144-.1-.171-.061-.102.149.056.168.052.179-.123.358l-.181.185h.243c.236 0 .245.005.298.166.03.092.069.166.087.166.017 0 .08-.087.141-.193zm31.917-.038c.063-.018.122-.055.131-.082.01-.028-.107-.185-.259-.35-.248-.27-.285-.294-.377-.245-.165.089-.24.066-.465-.14-.291-.27-.42-.487-.386-.657.023-.115-.034-.222-.372-.697-.22-.308-.4-.585-.401-.615-.001-.03.073-.099.164-.153.36-.212.06-.339-.363-.153-.403.177-.398.166-.303.658.082.418.095.445.474.95.688.916 1.212 1.439 1.496 1.491.18.033.531.03.66-.007zm3.105-.516c.067-.202.122-.393.122-.425 0-.047-.32-.25-.395-.25-.027 0-.238.854-.215.871.117.09.263.172.309.172.031 0 .112-.165.179-.368zm4.655-.169c.057-.227.09-.42.073-.43a1.454 1.454 0 0 0-.247-.052l-.217-.032-.056.391c-.03.215-.05.396-.043.401.067.054.306.157.341.147.025-.007.092-.198.149-.425zm-41.031-.284c.067-.024.083-.087.083-.34v-.31l-.13.027c-.072.016-.223.061-.335.101-.113.04-.21.065-.217.056-.006-.01-.081-.774-.166-1.7-.325-3.56-.834-8.495-1.147-11.14-.194-1.638-.464-3.673-.5-3.767-.083-.216-.35-.163-.503.1-.086.146-.084.177.079 1.682.213 1.972.84 8.264 1.233 12.367.306 3.197.306 3.2.426 3.304l.12.103.487-.227c.268-.124.524-.24.57-.256zm39.869-.083c.051-.217.085-.418.074-.447-.018-.047-.41-.229-.41-.19 0 .009-.032.183-.071.387-.097.509-.096.515.107.595a.762.762 0 0 0 .191.06c.008-.006.057-.188.109-.405zm-1.884-.625c.044-.189.092-.388.107-.442.021-.083-.01-.113-.194-.183-.121-.046-.226-.077-.233-.067-.007.009-.04.177-.072.372-.032.196-.068.39-.08.432-.014.053.034.098.158.15.098.04.19.075.206.077.014.003.063-.15.108-.339zm-5.379.194c.171-.07.238-.122.22-.17a.397.397 0 0 1-.026-.11c0-.065-.17-.053-.357.024-.137.058-.165.094-.165.214 0 .172.012.174.328.042zm.988-.428l.155-.34-.213-.43c-.202-.41-.451-1.205-.451-1.442 0-.062.055-.29.123-.507l.123-.395-.275-.34c-.273-.338-.276-.34-.357-.24a.758.758 0 0 0-.102.16c-.012.032-.03.048-.043.035-.132-.146-.608-.76-.608-.783 0-.018.044-.094.098-.17.114-.16.136-.116-.355-.698l-.328-.39-.129.123-.128.123-.213-.277-.214-.277.1-.171.099-.171-.267-.326a29.13 29.13 0 0 0-.432-.515l-.165-.19-.06.13c-.072.158-.093.144-.434-.284-.211-.266-.236-.319-.186-.398.066-.106.083-.075-.37-.695l-.353-.482-.105.098-.105.098-.96-1.153a95.8 95.8 0 0 0-1.047-1.247c-.086-.092-.088-.074-.088.76v.852l2.912 3.934 2.913 3.934.219.024.219.023.166.498c.168.507.61 1.47.672 1.47.02 0 .104-.154.19-.341zm-14.034-.2c.392-.2.608-.514.812-1.183.138-.449.133-.471-.107-.56l-.207-.077-.48.482-.481.482v.363c0 .405.055.607.166.607.04 0 .174-.051.297-.114zm17.346-.315l.1-.43-.18-.092c-.1-.05-.2-.092-.223-.092-.023 0-.069.155-.101.344-.033.189-.07.387-.082.44-.016.073.017.116.135.175.086.043.178.08.204.08.026.002.092-.19.147-.425zm-35.905.28l.184-.059-.024-.263c-.013-.145-.243-2.984-.512-6.308a837.359 837.359 0 0 0-.5-6.062c-.007-.009-.119.019-.248.062-.233.077-.235.08-.215.254.017.145 1.013 12.4 1.013 12.465 0 .011.027.01.06-.004.032-.014.141-.051.242-.084zm2.43-.16l.22-.128-.03-.315c-.015-.173-.263-4.037-.551-8.587-.288-4.55-.535-8.362-.548-8.47-.02-.16-.05-.207-.163-.253-.289-.12-.284-.388-.068 3.697.165 3.125.638 10.88.78 12.777.061.82.06.877-.023.877-.138 0-.313.114-.34.222a.321.321 0 0 0 .053.234c.07.108.105.12.266.1.102-.014.284-.083.404-.154zm1.607-.165c.14-.191.2-.237.313-.237.128 0 .136-.01.104-.13-.043-.162-.041-.268.007-.51l.038-.19-.145.137-.145.136-.082-.279c-.045-.153-.087-.257-.095-.23-.007.025-.037.17-.067.32-.054.272-.054.272-.228.273h-.174l.156.1.157.101-.133.142-.133.141.154-.078c.178-.09.178-.088.111.316-.02.124-.031.225-.024.225.006 0 .09-.107.186-.237zm36.647-.254c.042-.205.077-.38.077-.387 0-.022-.447-.114-.465-.095-.02.02-.102.59-.103.718-.001.072.048.12.176.169.215.083.215.083.315-.405zm-39.754.273c.105-.042.191-.09.192-.107a3701.53 3701.53 0 0 0-1.02-12.605 1.085 1.085 0 0 0-.23.063c-.21.072-.221.085-.221.25 0 .097.224 2.927.497 6.29.274 3.362.498 6.13.498 6.15 0 .053.074.043.284-.041zm38.572-.563c.047-.22.073-.431.058-.469-.026-.068-.351-.2-.392-.16-.023.023-.165.855-.148.87.017.016.34.153.37.157.015.002.066-.177.112-.398zm-1.864-.692c.112-.5.113-.494-.108-.58-.108-.043-.212-.068-.23-.057-.02.012-.049.134-.065.272-.017.137-.044.329-.06.425-.028.165-.02.18.13.245a.559.559 0 0 0 .208.058c.026-.006.082-.17.125-.363zm9.353-.296c.085-.114.102-.214.115-.668.018-.596-.028-.71-.27-.683-.1.012-.128.044-.14.157-.028.241-.217.296-.261.075-.057-.285-.411-.225-.411.069 0 .11-.022.164-.067.164a.48.48 0 0 0-.143.029c-.053.02-.075 0-.075-.067 0-.178-.054-.246-.193-.246-.166 0-.303.18-.27.355.022.11.01.119-.165.119-.175 0-.186-.008-.16-.114a.248.248 0 0 0-.057-.22c-.073-.09-.101-.097-.188-.05-.133.07-.212.221-.177.334.043.135-.064.167-.183.055-.227-.213-.354-.06-.297.356.052.373.08.397.495.403.2.003.664.021 1.03.04.364.02.81.033.99.03.301-.004.335-.015.427-.138zm-39.937-.143c.077-.196.08-.198.32-.198.134 0 .242-.01.24-.023a.967.967 0 0 0-.194-.158l-.193-.133.093-.104c.16-.178.179-.235.065-.203l-.19.054c-.07.02-.106-.018-.17-.178l-.082-.203-.08.214c-.08.21-.084.213-.284.2l-.202-.013.12.157.12.157-.115.14c-.16.195-.147.225.073.188.19-.032.193-.03.269.162.086.22.102.216.21-.059zm29.415.051c.12-.52.169-.759.157-.765a2.875 2.875 0 0 0-.412-.171c-.033 0-.148.658-.148.844 0 .053.242.192.343.197.02.001.046-.046.06-.105zm4.84-.423c.06-.217.096-.409.077-.426-.076-.071-.408-.132-.44-.08-.037.059-.154.754-.13.769.085.05.351.157.364.146.01-.009.067-.193.128-.41zm-1.15-.851c.03-.117.017-.129-.188-.18-.121-.03-.236-.039-.255-.018-.032.035-.14.588-.14.717 0 .03.08.095.177.146l.178.092.099-.316c.054-.174.112-.373.13-.441zm-19.913-.172c.016-.097.03-.455.03-.794-.001-.686-.065-.915-.309-1.107-.116-.091-.144-.096-.231-.038-.15.098-.3.343-.348.566-.027.128-.02.424.017.816.033.34.06.643.063.676.002.042.11.06.376.06h.373l.03-.179zm17.8-.73c.163-.436.18-.516.122-.573-.052-.052-.055-.097-.016-.2.093-.245-.173-.377-.295-.145l-.061.117-.137-.109c-.129-.103-.133-.117-.079-.28.063-.19.018-.333-.12-.386-.097-.037-.303.09-.303.186 0 .087-.05.089-.164.006-.075-.055-.08-.085-.035-.215.068-.194-.008-.375-.172-.417-.13-.032-.245.077-.245.231 0 .112-.073.108-.243-.013l-.138-.098.023-.423c.018-.313.051-.476.13-.625.091-.174.104-.26.09-.628-.028-.793-.023-.9.043-1.053.07-.16.029-.391-.077-.426-.077-.026-.112.08-.68 2.047-.385 1.329-.506 1.809-.463 1.834.032.018.623.418 1.313.888.69.47 1.27.84 1.286.822.017-.02.116-.262.22-.54zm-32.303-.001c.779-.347.88-.405.857-.489a1.32 1.32 0 0 1-.027-.261c-.002-.327.004-.327-1.017-.044l-.93.257.028.38c.038.513.06.606.14.575.036-.013.463-.202.949-.418zm39.807.182l.83-.103.108-.331c.167-.512.181-.694.063-.801-.121-.11-.212-.053-.29.184-.035.106-.09.167-.17.187-.155.039-.2.007-.247-.177-.03-.118-.068-.155-.17-.167-.169-.02-.25.05-.288.254-.022.122-.055.164-.125.164-.096 0-.109-.02-.16-.25-.032-.152-.118-.2-.28-.159-.124.031-.248.268-.202.387.02.05-.024.105-.138.172a.681.681 0 0 0-.213.184c-.052.097-.06.346-.016.508.026.098.049.105.248.08.121-.017.593-.076 1.05-.132zm-36.675-.067c.29-.17.305-.186.305-.361l.001-.183-.118.077-.119.078v-.226c0-.125-.014-.37-.03-.546l-.03-.319-.19.14-.19.139-.203-.14a1.97 1.97 0 0 0-.22-.14c-.01 0-.002.154.017.343.019.19.036.424.037.522l.003.179-.173-.073c-.095-.04-.182-.063-.193-.052-.01.01-.005.096.013.191.029.154.07.193.37.36.187.103.356.188.378.188.02 0 .175-.08.342-.177zm23.833-.241c.018-.017.132-.507.254-1.088l.222-1.056-.206-.224c-.112-.123-1.61-1.68-3.328-3.46l-3.123-3.235h-.378c-.356 0-.374.005-.315.087a467.18 467.18 0 0 0 3.333 3.609c1.8 1.937 3.278 3.56 3.286 3.605.008.046-.072.499-.177 1.007-.106.509-.193.947-.193.975 0 .046.551-.148.625-.22zm9.284-.225c.06-.23.09-.425.066-.448a.74.74 0 0 0-.237-.084l-.195-.044-.053.323c-.077.465-.073.49.1.577.085.042.167.078.183.08.015.001.077-.18.136-.404zm-1.286-.403c.06-.236.103-.436.094-.443-.029-.024-.44-.117-.453-.104-.007.008-.035.14-.062.294-.027.154-.059.328-.072.386-.018.084.014.124.156.2.098.051.19.094.203.095.013.002.074-.191.134-.428zm-30.558.24l.317-.144-.033-.413c-.06-.748-.097-.662.369-.838l.41-.155.033.515c.019.283.052.514.073.514a.799.799 0 0 0 .168-.048l.128-.05-.032-.588-.033-.59.204-.102c.112-.057.208-.107.215-.112a.908.908 0 0 0-.068-.21c-.058-.148-.098-.192-.153-.17-.042.016-.545.18-1.118.364-.574.184-1.049.34-1.055.344-.015.01.12 1.455.156 1.672.014.085.043.154.064.154.022 0 .181-.064.355-.143zm28.735-.947c.047-.13.1-.237.116-.237.017 0 .136.032.264.071.128.04.238.066.244.06.006-.007.064-.143.128-.301.104-.257.11-.303.052-.412-.057-.11-.054-.142.03-.283.085-.146.087-.169.02-.264-.09-.13-.19-.133-.268-.01-.032.053-.086.096-.119.096-.075 0-.077-.116-.003-.234.044-.071.043-.107-.006-.165-.104-.127-.235-.09-.32.09-.08.168-.153.216-.162.107a20.42 20.42 0 0 1-.006-.573c0-.483-.006-.512-.092-.49-.084.022-.088.005-.06-.25.032-.279-.015-.391-.114-.272-.028.034-.136.422-.24.864l-.188.802.25.441.252.442-.085.303c-.084.303-.084.303.02.375.16.113.196.093.287-.16zm-25.891-.19l.315-.143v-.225c.001-.123.033-1.611.07-3.306.039-1.695.07-3.225.07-3.4l.002-.32-.154.03a.555.555 0 0 0-.197.068c-.035.031-.255 4.598-.263 5.457-.002.22-.005.224-.192.275-.205.055-.224.1-.119.284.05.087.068.295.07.77 0 .359.02.652.042.652.023 0 .183-.064.356-.142zm32.93-.169c.021-.024.389-1.269.817-2.765l.778-2.72.19-.119c.402-.249.593-.526.593-.86 0-.21-.085-.289-.312-.289-.137 0-.447.282-.447.407 0 .088-.112.086-.291-.007-.114-.059-.139-.097-.117-.178.015-.057.144-.604.288-1.217.143-.613.303-1.239.355-1.39l.093-.277-.114-.115a.38.38 0 0 0-.454-.065c-.072.038-.092.1-.092.287v.24l-.557-.034a6.467 6.467 0 0 1-.586-.05c-.016-.009-.009-.097.017-.195.067-.26-.01-.426-.218-.465-.222-.042-.352.038-.39.24-.017.09-.055.165-.085.165-.03.001-.397-.12-.816-.269l-.763-.27.02-.216c.022-.249-.043-.363-.233-.408-.195-.047-.324.11-.324.394 0 .19-.341 1.6-.402 1.66-.01.01-.138-.048-.283-.131l-.264-.151v-.372c0-.418-.072-.562-.237-.474a.376.376 0 0 0-.121.1c-.018.028-.04.36-.05.738-.014.61-.006.707.077.87.114.223.115.307.007.51-.082.155-.086.156-.181.072a.983.983 0 0 1-.183-.323c-.099-.272-.182-.352-.367-.354-.097-.001-.155.037-.223.149-.198.326-.158.689.103.93.065.059.86.448 1.767.865 1.21.555 1.666.744 1.71.708.033-.028.074-.204.092-.392.017-.188.053-.41.079-.495.102-.33.502-.456.73-.228.161.161.16.523-.002.872-.14.3-.148.387-.035.385.045 0 .365-.05.71-.112l.628-.11-.025.1c-.014.055-.17.654-.348 1.33l-.322 1.232-.218.09c-.179.072-.224.116-.248.238-.017.082-.041.188-.055.235-.02.076-.003.082.151.053.157-.03.173-.024.149.056a95.37 95.37 0 0 0-.6 2.17c0 .053.559.013.61-.045zm-38.56-.435c-.016-.176-.083-1.622-.15-3.212-.066-1.59-.131-2.981-.145-3.09l-.024-.198-.353-.119c-.313-.105-.354-.11-.354-.04 0 .11.514 6.38.548 6.68.03.261.049.277.37.292l.135.007-.028-.32zm34.912.047c.187-.715.19-.7-.12-.75l-.196-.03-.054.305c-.08.462-.073.501.101.578.217.094.217.094.269-.103zm-33.583-.806c-.017-.437-.044-1.834-.061-3.104-.028-2.064-.04-2.313-.107-2.332a3.486 3.486 0 0 0-.344-.053l-.268-.032.024.396c.014.218.091 1.623.173 3.122l.149 2.725.142.03c.347.075.325.132.292-.752zm32.5.265c.122-.474.12-.5-.063-.537a4.297 4.297 0 0 1-.231-.053c-.063-.017-.087.043-.13.338-.03.197-.054.387-.054.422 0 .057.332.23.371.193.009-.008.056-.172.106-.363zm-21.084-.439c.028-.642.021-.802-.036-.913-.076-.146-.27-.338-.462-.46-.116-.073-.127-.072-.23.039-.06.063-.148.236-.197.383l-.088.268.16.53c.088.29.184.62.214.73l.054.202h.551l.034-.779zm14.774.65c.013-.012.057-.18.099-.374l.075-.353-.644.013-.644.013-.016.14c-.01.078-.002.253.015.388l.03.247.53-.026c.293-.015.542-.037.555-.048zm-24.95-1.004l.014-.303-.15.03c-.084.017-.18.03-.217.03-.048 0-.065.076-.065.288v.287l.202-.015.201-.014.015-.303zm30.616-.546c.13-.45.254-.824.276-.831.02-.007.364.16.764.371.399.211.739.384.755.384.017 0 .03-.144.03-.321v-.322l-.651-.35c-.359-.191-.66-.354-.668-.361-.01-.007.094-.412.228-.898.135-.487.234-.913.221-.947-.037-.097-.554-.36-.577-.294-.01.031-.221.8-.467 1.707a52.16 52.16 0 0 1-.468 1.672c-.011.011-.102-.013-.201-.054-.148-.062-.187-.064-.22-.013-.088.139-.042.258.13.34.109.052.16.105.144.148a1.772 1.772 0 0 0-.055.224c-.028.153-.021.162.223.282.138.069.262.115.275.103.013-.012.13-.39.261-.84zm-29.431.072c.014-.295.012-.301-.095-.273-.06.016-.157.03-.216.03-.098 0-.106.022-.106.288v.287l.201-.015.202-.014.014-.303zm26.871.03c.047-.125.076-.235.066-.244a2.796 2.796 0 0 0-.218-.117l-.2-.1-.084.268c-.05.161-.066.275-.038.285.026.008.111.055.19.104.077.049.155.075.17.06.017-.017.068-.132.114-.257zm-25.76.108c.07-.001.084-.047.084-.286v-.284h-.427v.277c0 .308.025.357.165.319a.865.865 0 0 1 .179-.026zm22.705-.001c.282 0 .352-.066.428-.405l.058-.262-.176-.181-.177-.181.223-.031c.122-.017.282-.03.355-.03.209 0 .204-.074-.015-.237-.202-.149-.202-.15-.628-.116-.235.018-.52.046-.632.062l-.204.03.339.367.338.368-.596.007c-.328.005-.628.01-.666.012-.039.002-.894-.742-1.901-1.655-1.22-1.106-1.865-1.66-1.934-1.66-.089 0-.103.027-.103.2v.198l1.896 1.787 1.896 1.788.637-.03c.35-.017.738-.031.862-.031zm-39.824-.357c-.014-.377-.409-3.763-.807-6.932-.1-.789-.168-1.434-.154-1.434.015 0 .144.045.288.1.143.055.43.15.636.213.407.123.502.103.502-.104 0-.13-.02-.14-.97-.572-.671-.306-.845-.348-.99-.242-.075.056-.075.1.012.723.051.365.18 1.41.286 2.323.321 2.75.532 4.309.767 5.673.066.383.24.62.363.497.042-.042.07-.146.067-.245zm42.159-.131l.075-.227-.128-.05-.23-.09c-.09-.036-.106-.02-.133.135-.017.096-.04.208-.052.248-.023.08.31.304.364.244.016-.018.063-.135.104-.26zm-27.308-.25c.015-.042.028-.205.028-.363v-.286l-.177.029a2.3 2.3 0 0 1-.25.03c-.056 0-.068.056-.056.273.008.15.023.3.034.332.03.09.385.076.42-.016zm-6.333-.047c.028-.024-.048-.81-.083-.867-.024-.04-.11-.04-.32-.003l-.289.051.038.174.092.447.055.274.246-.031c.135-.017.252-.038.261-.045zm7.517-.501c.017-.082.03-.244.03-.362v-.213l-.178.029c-.098.016-.212.03-.253.03-.062 0-.071.048-.056.273.027.381.033.391.242.391.17 0 .188-.012.215-.148zm1.077-.042h.138v-.663h-.237c-.23 0-.237.004-.237.135 0 .075.014.236.03.358.023.167.048.216.1.197a.746.746 0 0 1 .206-.027zm25.236-.083c.099-.02.175-.057.17-.083-.006-.026-.989-.68-2.184-1.456l-2.173-1.409-.263.101c-.213.082-.252.112-.202.16.034.032 1.01.668 2.168 1.413 1.508.97 2.135 1.349 2.205 1.332l.279-.058zm5.505-.172c.189-.08.395-.335.46-.573.167-.601-.597-1.133-1.191-.83-.328.167-.469.633-.294.974.222.433.618.599 1.025.429zm-24.39-.633l.145-.13-.12-.348c-.13-.382-.274-.641-.443-.799l-.11-.102-.279.126c-.317.144-.32.157-.101.624.129.278.567.759.69.759.04 0 .138-.059.218-.13zm14.776.01c.205-.04.42-.084.479-.096.081-.018.107-.056.107-.161 0-.121-.067-.187-.544-.537l-.544-.4-.274.04c-.611.09-.582.078-.582.245 0 .135.056.2.486.567.267.227.489.413.492.414.004 0 .175-.032.38-.073zm-23.573-.07c.104 0 .112-.02.127-.332l.015-.332H22.7l.033.32c.039.37.054.408.15.371a.622.622 0 0 1 .18-.027zm-6.336-.36c.11-.023.111-.028.078-.436a2.948 2.948 0 0 0-.059-.453c-.013-.022-.123-.026-.244-.009-.378.053-.38.055-.337.252l.093.447c.06.298.033.287.469.198zm36.277-.438c.08-.217.145-.413.145-.437 0-.058-.476-.297-.514-.258a3.147 3.147 0 0 0-.153.442l-.124.411.241.126c.133.07.246.122.25.117.006-.004.075-.185.155-.401zm-28.744.325c.1 0 .107-.02.107-.333v-.332h-.487l.03.22c.017.121.03.284.03.361 0 .124.014.138.107.113.059-.016.155-.029.213-.03zm1.29-.235c.028-.05.05-.21.05-.355v-.264h-.186c-.298 0-.314.017-.298.32.02.372.03.39.22.39.115 0 .18-.027.215-.09zm23.514-.94c.176-.905 3.95-20.784 3.973-20.926l.028-.173-.467-.312c-.256-.171-.479-.296-.495-.277-.016.02-.835 4.622-1.82 10.228-.986 5.606-1.84 10.466-1.9 10.8l-.107.606.315.161c.172.09.338.163.367.164.03.001.077-.12.106-.27zm-25.959-.132c.018-.17.023-.325.012-.343-.012-.019-.132-.026-.267-.017-.225.015-.244.025-.219.118.015.056.028.204.028.327l.001.226h.414l.031-.31zm19.06.014c.06-.044.094-.181.132-.528l.05-.468-1.028-1.03c-1.275-1.276-1.257-1.27-1.257-.414v.572l.984.961c.54.53.995.963 1.01.964a.295.295 0 0 0 .108-.057zm-17.884-.414l.012-.343c.003-.096-.016-.104-.234-.09-.13.008-.24.018-.245.022-.004.004.004.152.019.328l.025.32h.414l.009-.237zm1.159.047c.049 0 .065-.082.065-.332v-.332h-.474v.208c0 .114.014.276.03.36.028.14.043.15.172.124.078-.015.17-.028.207-.028zm20.015-.026c.042-.013.06-.144.06-.44v-.42l-1.269-.607c-.697-.334-1.513-.722-1.813-.864l-.546-.256.32.323c.298.303.392.36 1.458.891 1.208.602 1.238.63.683.637-.159.002-.484.017-.723.034l-.434.031v.378l.629-.031c.345-.018.75-.045.9-.06l.273-.029v.136c.001.076.014.185.03.245.026.094.05.104.201.079.095-.016.199-.037.231-.047zm7.547-.78c.006-.176.051-.275.24-.526.079-.107.092-.146.04-.127a2.068 2.068 0 0 1-.293.062c-.201.03-.22.025-.22-.066 0-.097-.044-.117-.481-.215-.12-.027-.128-.017-.158.197-.028.193-.06.244-.223.358-.105.073-.18.144-.167.157.014.013.288.14.61.28.576.252.586.254.616.15.017-.057.033-.179.036-.27zm-30.995-.055c.281-.061.463-.2.463-.351 0-.108-.016-.116-.26-.116h-.261V30.421l-.107.026a6.57 6.57 0 0 1-.284.058l-.178.032-.006.362c-.003.2-.019.5-.035.67l-.03.308-.165-.016c-.152-.015-.386-.118-.58-.255-.064-.046-.098-.04-.177.032-.054.048-.098.116-.098.15 0 .113.296.402.541.528.376.193.641.215 1.178.099zm-9.865-.508l.207-.088-.063-1.014a21.976 21.976 0 0 0-.081-1.07c-.013-.04-.075-.033-.228.024-.115.044-.216.096-.224.116-.03.073.113 2.12.147 2.12.02 0 .129-.039.242-.088zm26.705-.373c.08-.43.227-1.539.207-1.555-.013-.01-.262-.055-3.402-.615-2.957-.527-3.155-.566-3.144-.623.005-.026-.234-.085-.531-.132l-.54-.085-.513.272c-.281.149-.749.428-1.04.62-.562.372-1.55 1.248-1.894 1.68l-.208.26.555.024.554.023.571-.57c.508-.505 1.323-1.208 1.403-1.208.017 0 .058.148.092.327l.062.327.185.03c.103.016.204.018.226.005.023-.014.105-.162.183-.329s.182-.325.23-.35c.062-.034.36-.001 1.035.114 4.945.842 4.848.822 5.04 1.027.142.153.321.54.39.84.077.34.07.333.28.333h.182l.077-.415zm-12.103.312l.183-.055.01-.632.012-.787c.002-.148-.006-.155-.2-.169l-.2-.014-.005.299c-.003.164-.018.55-.036.856-.017.315-.013.557.01.557.024 0 .125-.025.226-.055zm-7.374-1.699c-.024-.841-.178-2.583-.234-2.639-.02-.02-.622.168-2.972.928l-.545.176-.015.2c-.014.188-.008.199.095.175.659-.153 3.048-.689 3.073-.689.018 0 .058.219.09.486.091.778.33 2.422.393 2.698l.057.253.042-.332c.023-.182.03-.748.016-1.256zm-6.24 1.44c.176-.07.19-.088.168-.225-.013-.082-.049-.559-.08-1.061-.031-.502-.074-.913-.095-.913-.022 0-.125.035-.23.077-.173.07-.19.091-.19.249-.001.246.1 1.82.121 1.89.023.079.075.076.305-.017zm4.45.002c.02-.018-.077-.878-.103-.903-.016-.017-.566.074-.59.098-.013.012.12.714.156.823.015.045.086.052.27.029.137-.018.258-.039.267-.047zm5.305.045c.105-.028.107-.042.107-.734 0-.388-.016-.705-.036-.705-.02 0-.117.023-.217.05-.132.037-.174.07-.154.122.015.04.028.348.028.685 0 .664-.004.656.272.582zm1.077-.171a8.44 8.44 0 0 0 .04-.688l.022-.628h-.463v.253c0 .14.014.45.03.688l.032.434h.16c.088 0 .169-.027.179-.06zm1.078-.486c.006-.274.01-.578.012-.676l.003-.178-.226-.014-.225-.015v1.327l.13.02c.317.047.296.079.306-.464zm1.005-.226l.03-.604h-.489l.03.434c.017.239.031.515.031.613 0 .168.01.18.154.195.085.01.168.005.184-.009.016-.013.043-.296.06-.629zm21.651.427c0-.006.054-.3.118-.652.065-.352.118-.684.118-.739 0-.091-.053-.108-.651-.201-4.676-.73-7.091-1.1-7.1-1.088-.021.024-.167 1.1-.167 1.223v.12l3.806.668 3.84.675c.02.003.036 0 .036-.006zm4.857-.834c.093-.243.169-.45.169-.458 0-.03-.765-.27-.787-.248-.013.013.02.096.073.185.084.143.09.196.05.445-.075.452-.067.487.107.535.085.023.169.029.187.013.018-.016.108-.228.201-.472zm1.25.17a1.68 1.68 0 0 0 .104-.303c0-.062-.38-.131-.427-.078-.035.04-.147.431-.147.512 0 .047.149.104.293.114.047.003.112-.088.178-.246zm-37.639-.225c.176-.003.198-.065.14-.4l-.057-.321-.195.031c-.108.017-.215.05-.238.073-.024.024-.016.176.018.357.054.286.069.313.16.288a.893.893 0 0 1 .172-.028zm6.105-.443c.933-.368 1.503-.446 2.667-.366.378.026.924.062 1.213.08l.526.031.136-.177c.278-.364.182-1.027-.154-1.06-.14-.013-.155 0-.202.176-.074.274-.238.385-.565.382-.324-.004-.592-.089-.612-.195-.011-.055.03-.088.141-.112.41-.088.655-.324.655-.628 0-.297-.451-.777-.795-.845-.152-.03-.153-.03-.153.157 0 .153.022.2.124.253.16.086.217.24.156.416-.064.184-.39.357-.926.492-.372.094-.54.107-1.44.106-1.062 0-1.609-.065-2.172-.255-.24-.081-.253-.081-.296 0-.128.239.017.505.345.636.11.045.398.093.637.107.653.04.716.132.185.27-.377.099-.826.14-1.083.102-.131-.02-.333-.112-.534-.244-.367-.24-.4-.229-.401.136 0 .25.073.428.244.587.156.146.344.21.727.245.529.05.864-.012 1.577-.294zm25.83-.967c.045-.254.099-.547.12-.65a.622.622 0 0 0 .024-.206c-.027-.026-7.817-1.1-7.837-1.08-.01.01-.055.285-.1.612l-.083.594.145.026c.08.014 1.264.2 2.634.411 1.369.212 2.99.466 3.603.564.613.099 1.182.182 1.264.185l.15.006.08-.462zm11.486.373l.51.018.134-.398c.073-.219.157-.578.187-.798.049-.368.067-.413.234-.58.204-.204.221-.292.085-.429-.125-.124-.265-.12-.353.012a1.3 1.3 0 0 1-.229.232l-.159.125.205-.599c.112-.33.204-.659.204-.731 0-.16-.106-.212-.265-.127-.241.13-.236.031.062-1.314l.283-1.272-.116-.041c-.079-.028-.128-.023-.151.014-.02.03-.16.607-.312 1.282l-.277 1.225-.129-.138c-.164-.176-.26-.174-.37.009-.09.147-.267.898-.32 1.359-.017.137-.048.249-.07.249-.069 0-.184-.274-.184-.438 0-.307-.263-.49-.383-.266-.032.06-.043.188-.026.312.018.13-.014.485-.085.93-.063.395-.122.782-.13.859-.016.137-.004.146.506.36.354.148.54.204.58.173.033-.025.289-.037.57-.028zm-4.802-.146c.212-.218.238-.197-.425-.336-.707-.147-.656-.118-.624-.357.032-.23.069-.21-.493-.28l-.216-.028-.087.43c-.048.236-.079.436-.069.445.021.018 1.541.301 1.657.309.04.002.156-.08.257-.183zm-15.255-.215c.006-.079.035-.363.064-.631.03-.27.045-.497.035-.507-.01-.01-.497-.116-1.083-.236-1.34-.276-1.457-.306-1.373-.358.072-.044.103-.034-.602-.187l-.435-.095-.893.262c-1.153.338-2.474.782-2.911.977l-.344.154.47.086c.258.047.555.077.66.066.104-.01.69-.19 1.303-.4 1.24-.424 1.123-.42 1.206-.044.025.111.053.13.19.13.14 0 .169-.02.214-.154.11-.32.119-.324.63-.225.67.13 2.113.513 2.238.595.125.082.197.225.243.48.045.248.056.26.227.243.128-.012.151-.034.16-.156zm-28.39.074c0-.025-.097-1.49-.216-3.258-.15-2.251-.232-3.224-.272-3.25-.153-.097-.19-.043-.163.235.015.15.108 1.621.207 3.27.196 3.253.162 2.996.408 3.04.02.004.036-.013.036-.037zm.926-.29c.022-.036-.11-2.089-.136-2.115a1.12 1.12 0 0 0-.235.069c-.166.06-.223.105-.223.175.001.068.102 1.534.141 2.048.002.026.431-.142.453-.177zm.698-.19c.142-.051.178-.088.178-.185 0-.188-.095-1.614-.123-1.835l-.024-.198-.211.072c-.116.04-.221.088-.234.108-.012.02.009.461.047.98.038.518.07.992.07 1.054 0 .07.023.103.06.09.032-.013.14-.051.237-.086zm1.126-.466c0-.214-.515-6.178-.535-6.198-.018-.018-.366.112-.366.137l.26 3.207.262 3.212c0 .01.085-.04.19-.108.14-.094.189-.158.189-.25zm-5.108-2.2c-.121-1.32-.208-2.414-.193-2.429.014-.015.284.038.598.118.315.08.584.144.599.144.014 0 .026-.138.026-.307 0-.28-.01-.31-.106-.333l-.621-.139a4.77 4.77 0 0 1-.538-.138c-.012-.013-.048-.2-.079-.417l-.056-.394-.228-.064c-.126-.036-.238-.056-.248-.046-.01.01.055 1.277.146 2.813.09 1.537.165 2.831.165 2.877 0 .07-.046.083-.31.083h-.312l.015.177.015.177.664.146c.365.08.668.143.674.14.005-.002-.09-1.086-.21-2.407zm14.82 2.267c.047-.048.11-.964.08-1.197l-.031-.25H23.24l-.028.242c-.028.236.002 1.09.043 1.221.015.046.065.057.17.035a.622.622 0 0 0 .172-.051zm-.968-.582c.019-.332.038-.654.043-.715.007-.089-.028-.123-.18-.177-.301-.105-.325-.042-.29.76.032.698.046.734.27.736h.123l.034-.604zm7.302.215c.017-.214.036-.393.042-.399.005-.005.495-.113 1.088-.239.594-.126 1.079-.24 1.078-.253-.001-.042-1.395-.618-1.492-.617-.122.002-1.912.355-1.938.383-.011.012-.028.22-.037.463l-.017.441.57.3c.312.165.592.302.62.305.033.003.066-.145.086-.384zm-5.439.198c.14-.049.144-.06.173-.439.049-.624.037-.975-.038-1.12-.09-.173-.223-.228-.287-.117a1.061 1.061 0 0 1-.152.185c-.092.09-.096.11-.034.172.104.104.168.584.134 1-.033.394-.03.4.204.319zm3.322-.11l.272-.054.03-.854c.016-.469.037-1.322.047-1.896l.018-1.043h-.237L27.86 25.5c-.047.846-.093 1.547-.103 1.557-.01.01-.18.04-.377.068l-.36.05v.752l.261-.033c.144-.018.384-.057.534-.086zm27.633-.066c.016-.098.047-.234.07-.304l.039-.126-.612-.152c-.602-.15-.613-.154-.613-.284 0-.122-.028-.142-.367-.263-.68-.242-.668-.235-.685-.408-.014-.148-.027-.159-.21-.172-.242-.018-.254.014-.255.688v.484l.201.053a77.51 77.51 0 0 1 1.861.514c.261.078.49.142.508.144.018.002.047-.076.063-.174zm1.669-.176c.168-.402.185-.377-.296-.426a6.32 6.32 0 0 1-.417-.056l-.133-.026.015.293.014.293.308.134c.17.074.32.136.335.138.014.002.092-.155.174-.35zM6.3 27.836c0-.075-.53-4.16-.54-4.172a1.672 1.672 0 0 0-.234-.053c-.172-.032-.221-.028-.221.02 0 .035.106.933.237 1.998.13 1.064.237 1.97.237 2.014 0 .055.072.103.225.15.277.084.296.087.296.043zm15.395-.5c.004-.24.01-.484.012-.542.002-.057.072-.182.155-.277.181-.206.144-.32-.113-.343-.138-.012-.182.009-.256.119-.08.117-.089.209-.077.77.01.513.028.655.09.724.13.143.18.021.189-.451zm-4.916-.216l1.4-.46.013-.485.013-.484h-.569l-.03.233-.032.233-.29.079-1.145.302c-.784.206-.853.232-.85.328l.012.413c.005.17.025.307.044.305.02-.001.665-.21 1.434-.464zm21.586-.31c.242-.063.631-.152.866-.197.235-.046.453-.104.486-.13.146-.113 0-.413-.202-.413-.23 0-2.584.563-2.584.618 0 .025.691.19.96.23.02.003.233-.046.474-.109zm10.174-.631c.055-.332.091-.612.08-.623-.03-.03-8.007-.954-8.032-.93-.034.035-.146 1.034-.118 1.062.023.024 7.63 1.075 7.87 1.088.091.005.108-.046.2-.597zm8.607-.002c.018-.092 0-.152-.062-.202-.071-.058-.082-.116-.062-.32.025-.245.028-.249.183-.249.241 0 .235-.073-.024-.277-.232-.184-.246-.188-.742-.222-.582-.04-.587-.037-.588.34 0 .133-.014.31-.031.394-.029.143-.04.15-.19.123-.155-.03-.159-.026-.159.132v.162l.723.12c.944.157.92.157.952-.002zm-33.52-.11l.313-.096v-.294c-.002-.421-.002-.421-.483-.357-.39.052-.746.026-1.117-.083-.1-.03-.107-.017-.107.181 0 .117-.012.277-.028.354-.027.136-.018.144.25.24.5.181.731.192 1.172.056zm11.934-.037l.117-.044.154-2.34c.085-1.288.197-3.055.25-3.929.051-.873.125-1.95.164-2.394.096-1.116.11-1.02-.145-1.02-.13 0-.223.024-.234.06-.011.033-.163 2.15-.338 4.705a434.07 434.07 0 0 1-.331 4.663c-.008.01-.063-.018-.122-.06a.54.54 0 0 0-.264-.075c-.14 0-.156.014-.156.135 0 .313.464.467.905.299zm-23.783-.067c.078-.027.149-.054.156-.06.019-.015-.088-1.464-.11-1.486-.009-.009-.117.022-.239.068l-.222.085.03.501c.054.868.078 1.009.166.973.042-.017.14-.054.219-.08zM54.5 25.82c.016-.085.033-.26.038-.39l.008-.233-.324-.054c-.343-.058-.349-.062-.53-.409-.115-.22-.116-.22-.42-.254-.34-.036-.302.017-.387-.534l-.03-.203-.337.014c-.378.015-.366 0-.431.5l-.033.248h.56l.03.22c.016.121.03.281.03.356 0 .134.003.135.279.135h.279l.195.33c.185.31.207.33.397.354l.32.044c.301.046.326.037.356-.124zm-41.925-.11c.201-.069.221-.09.22-.225-.001-.234-.09-1.324-.11-1.343-.008-.01-.117.02-.241.067l-.225.083.027.332.057.747c.017.228.035.414.04.414.005 0 .11-.034.232-.075zm24.195-.037c.032-.032.131-1.087.25-2.661.11-1.434.21-2.677.223-2.762.022-.139.04-.154.188-.154h.164v-.278c0-.462.038-.575.191-.575.124 0 .134-.015.162-.249.017-.137.042-.329.056-.427l.026-.177h.472l-.015.912-.015.913.45.03c.249.018.604.045.79.062l.34.03.106-.355.105-.355.266-.014.267-.014.055-.45c.088-.719.1-.672-.162-.655l-.225.014-.04.25c-.036.232-.047.248-.174.248-.104 0-.139-.024-.15-.107-.012-.085-.05-.11-.188-.12-.17-.015-.172-.013-.204.2-.03.2-.043.217-.172.217-.132 0-.14.01-.14.201 0 .283-.044.334-.253.295l-.173-.033v-1.684l-.148-.03a1.9 1.9 0 0 0-.308-.03h-.16v-.302c0-.3-.001-.302-.148-.331-.309-.062-.326-.051-.326.203 0 .333-.03.383-.225.383h-.168l.029-.343.06-.735.031-.391h-.433l-.026.201c-.023.174-.74 9.055-.739 9.149 0 .05.3-.013.361-.076zm-21.715-.376c.012-.012.008-.132-.01-.266l-.032-.243-.172.03c-.237.044-.236.042-.21.268.035.315.037.316.229.273a.794.794 0 0 0 .195-.062zm23.524-.102c.346-.066.64-.12.652-.12.013 0 .024-.093.024-.206 0-.2-.003-.205-.143-.184-.171.025-.166.17-.047-1.33.052-.658.1-1.281.106-1.385l.013-.188-.214.015c-.117.008-.224.033-.238.056-.014.022-.087.68-.161 1.462l-.136 1.422-.233.05c-.128.028-.26.05-.296.05-.083 0-.121.106-.121.34 0 .157.014.184.083.164.045-.014.366-.08.711-.146zm10.26-.737c.07-.404.118-.744.107-.755-.035-.037-8.102-.89-8.135-.861-.044.037-.2 1.376-.165 1.41.03.03 7.88.96 7.996.948.052-.006.102-.195.197-.742zm-25.419.45c.194-.1.198-.35.01-.499-.18-.14-.601-.114-.731.047-.285.35.258.69.721.451zm34.808.043a.832.832 0 0 0 .301-.096c.09-.065.09-.068-.003-.16-.077-.077-.185-.1-.596-.125l-.501-.03-.033.13c-.018.072-.027.136-.02.141.249.178.398.202.852.14zm-31.915-1.364c.006-.778-.003-.903-.072-.971-.074-.073-.086-.07-.171.034-.081.098-.092.19-.092.764 0 .358-.013.749-.03.868l-.03.216.16.017c.089.009.176.005.195-.01.018-.013.036-.426.04-.918zm-4.507.61v-.26h-.166c-.162 0-.166.004-.166.185 0 .27.038.336.194.336.135 0 .138-.005.138-.26zm33.069.119l.055-.285c.03-.16.031-.16.423-.079.268.056.285.067.299.206.014.143.025.15.331.204.175.032.353.066.395.078.058.015.09-.032.13-.191.076-.3.075-.303-.148-.348-.2-.04-.201-.041-.182-.228.011-.103.022-.25.024-.328l.004-.14-.854-.13c-.47-.07-.887-.13-.929-.131-.063-.003-.086.105-.134.649a11.06 11.06 0 0 1-.08.731c-.024.086.07.114.44.127.184.007.2-.003.225-.135zm-33.98-.154l-.014-.25-.178-.014-.178-.015v.528h.385l-.015-.25zm-4.754-.149a1.616 1.616 0 0 0-.045-.254.693.693 0 0 0-.197.024l-.183.038.014.235a1.3 1.3 0 0 0 .034.266c.01.017.107.009.214-.018l.195-.05-.032-.24zm2.014.183c.072-.086.205-1.376.174-1.674-.029-.272-.083-.322-.267-.246l-.145.06v.891c0 .49.013.925.03.966.036.095.13.097.208.003zm-6.55-.245l.21-.08-.033-.712a9.832 9.832 0 0 0-.047-.726c-.008-.008-.117.023-.241.069l-.228.083.03.522c.017.287.03.612.03.723 0 .11.016.201.035.201.018 0 .128-.036.243-.08zm.873-.28l.22-.074-.024-.387a61.83 61.83 0 0 0-.05-.73l-.025-.34-.221.082-.222.083.016.638c.014.566.035.804.074.804.007 0 .111-.034.232-.075zm41.398-.02c.023-.022.02-.097-.005-.173-.043-.125-.062-.133-.275-.122-.125.007-.236.02-.246.03-.01.01.02.095.065.19.077.161.093.17.251.142a.608.608 0 0 0 .21-.068zm-31.43-.52c.047-.355.048-.356.2-.37l.152-.016-.007.265c-.007.261.051.396.145.339.026-.017.082-.18.124-.365.062-.276.078-.705.086-2.436.01-1.943.005-2.108-.072-2.193-.073-.08-.083-.204-.083-1.06v-.968l-.178-.35c-.159-.315-.18-.4-.201-.806-.024-.444-.027-.455-.155-.5-.178-.062-.218-.008-.255.343-.035.332.052.275-.736.482l-.41.109-.035.598c-.019.33-.022.816-.007 1.082.024.436.018.495-.068.604-.106.134-.373.174-.373.056 0-.036-.03-.09-.066-.12-.054-.044-.07-.017-.093.149-.064.476-.085.91-.123 2.492-.022.92-.049 1.683-.06 1.695a1.447 1.447 0 0 1-.278.07c-.369.07-.4.116-.4.603v.412l.356.061c.195.034.42.056.498.05.133-.012.143-.027.166-.25l.023-.237.207.013c.24.015.32-.036.363-.23.04-.18.097-.176.194.015.1.195.145.224.353.225.23 0 .326.084.36.309.037.235.099.316.226.298.084-.012.105-.064.146-.37zm26.593.154c.053-.188.235-1.34.216-1.36-.012-.012-.842-.088-1.846-.169-1.003-.08-2.858-.23-4.12-.334a113.433 113.433 0 0 0-2.308-.175c-.025.027-.15 1.198-.13 1.219.015.015 6.87.773 8.109.896.03.003.066-.032.08-.077zm-34.348-.044c.025-.022.003-.45-.026-.496-.01-.017-.107-.009-.214.018-.191.049-.194.053-.167.22.016.094.029.21.03.256 0 .073.026.08.178.053a.888.888 0 0 0 .199-.05zm-9.14-2.586c-.151-1.166-.29-2.135-.309-2.154-.034-.034-.686-.152-.87-.156-.073-.002-.096.02-.083.08.028.123.198 1.867.303 3.111.05.597.105 1.098.122 1.114.016.017.268.084.559.15.46.106.531.112.54.048.007-.04-.112-1.027-.263-2.193zm23.595 2.12c1.1-.176 1.005-.14 1.005-.372v-.198l-.415-.142c-.401-.137-.415-.146-.41-.284l.04-.881.035-.74.453-.056c.248-.03.467-.065.486-.076.018-.012.047-.24.065-.509.017-.268.055-.813.085-1.21l.055-.723h1.544l.025-.202c.028-.225.22-3.395.219-3.61l-.001-.138-1.691.031c-.93.018-1.7.04-1.709.049-.01.01-.171 2.078-.36 4.598-.326 4.34-.339 4.582-.257 4.582.048 0 .421-.054.83-.12zm4.396-.913c.15-.254.278-.468.284-.475.005-.007.197.03.426.084.23.054.428.086.443.072.014-.015.134-1.343.266-2.953l.241-2.926.45.015.45.015.35-.394c.193-.217.366-.4.385-.408.018-.008.145.18.282.418.138.238.277.442.31.455.033.013.158.016.277.008l.218-.014-.42-.646c-.3-.462-.451-.652-.532-.67a26.354 26.354 0 0 0-.993-.135l-.88-.11-.424.268c-.524.33-.589.358-.589.247a3.76 3.76 0 0 0-.052-.382l-.051-.298-.316-.101-.446-.142-.13-.041v.6l.308.131c.17.072.308.15.308.174 0 .104-.427 6.973-.454 7.303-.017.202-.02.368-.007.368.012 0 .146-.208.296-.463zm-7.213.024c.015-.163.07-1.395.124-2.738.123-3.126.115-3.027.276-3.06.382-.076.352-.025.463-.804.056-.391.093-.727.081-.746-.011-.02-.083-.036-.16-.036-.076 0-.14-.009-.14-.02 0-.015.325-.87.5-1.32.032-.08-.004-.084-.499-.072l-.533.014-.244.663-.243.664-.315.014-.316.014-.128.685-.13.686h-.484c-.267 0-.612.013-.766.029l-.28.03.017 1.451c.01.8.028 1.463.04 1.476.012.013.043-.014.069-.06.038-.068.115-.082.447-.082h.4v-1.67l.3-.308.3-.309.274.326.274.326-.026.817-.026.818h.28l.001.818c.002.974.072 2.57.115 2.64.017.028.092.05.167.05.132 0 .136-.008.162-.296zm-8.886-.183c0-.38.08-3.102.116-3.911l.022-.528-.145-.041-.145-.042.007-1.562.008-1.563.31-.417c.171-.23.314-.418.318-.42.004-.002.263-.039.576-.083.388-.054.568-.099.564-.139a11.613 11.613 0 0 1-.012-.32l-.007-.26h-1.558l-.548.651-.548.652v1.7l-.001 1.7-.117-.03c-.163-.04-.173.025-.157 1.06l.013.876.166.033.438.088.272.055-.03 1.363-.03 1.362.16.052c.322.102.328.097.328-.276zm2.264.203c.06-.038.127-1.038.078-1.167-.03-.076-.403-.14-.547-.095-.097.03-.1.051-.072.507l.028.476-.336-.031c-.379-.036-.498.012-.416.165.036.067.104.09.271.095.123.003.288.022.366.042.194.05.556.054.628.008zm-7.75-.393c.541-.186.975-.349.963-.36-.012-.012-.487-.094-1.056-.182l-1.035-.16-.948.264a20.2 20.2 0 0 0-1.01.298c-.046.025 1.72.432 2.053.473.026.004.49-.146 1.032-.333zm3.4-1.222v-1.275l-.646-.035c-.726-.039-.727-.038-.728.292-.001.179-.013.198-.143.224-.079.015-.143.045-.143.066 0 .021.136.347.302.724l.301.686.517.296c.284.163.522.297.528.297.007 0 .012-.574.012-1.275zm34.046.931c.031-.189.085-.493.12-.675.034-.183.048-.345.03-.361-.03-.027-7.578-.608-8.14-.627l-.236-.008-.08.664c-.044.365-.074.67-.066.677.016.017 7.839.661 8.118.669l.197.005.057-.344zm-39.81-.972l.044-.248h.599v-.32c-.002-.386-.075-.557-.239-.557-.098 0-.12.025-.132.16l-.015.162-.732-.028-.731-.029v.326c0 .438.019.475.242.475.165 0 .184-.012.184-.118s.02-.119.184-.119h.184l.023.242c.024.253.09.336.25.315.074-.009.104-.065.139-.26zm-1.75-.96a16.715 16.715 0 0 0-.065-1.09c-.03-.195-.044-.212-.157-.2l-.124.012-.034-.498-.034-.5h-.323v-.367c0-.202-.014-.479-.03-.616l-.03-.249h-.827l-.03.25c-.017.136-.03.424-.03.64v.39h-.724l.029.178c.016.098.03.239.03.314v.135l.712-.034.71-.035v.877l.212-.029c.24-.032.224-.062.288.562.047.455.154.92.266 1.151.1.208.106.211.149.1.026-.067.031-.472.012-.99zm5.285.515c0-.395-.333-8.639-.35-8.656-.022-.021-.777.093-.83.127-.053.032.238 8.004.295 8.095.015.025.156.084.312.132l.285.086.032.218c.039.27.05.29.164.29.081 0 .092-.035.092-.292zm36.53-.076c.07-.233.217-1.263.185-1.292-.049-.042-8.4-.64-8.436-.603-.015.015-.063.325-.108.69l-.08.663.286.028c.158.016 1.428.114 2.823.219s3.028.23 3.628.278c1.484.12 1.67.122 1.701.017zm-38.578-.403l.013-.367h-.168c-.189 0-.195.024-.136.512.028.236.037.25.153.237.12-.014.124-.026.138-.382zm-1.034-1.5v-.847l.148-.061.148-.062-.03-.29-.03-.29.207-.202.206-.202.27.292.271.292-.014.931-.014.932h.522l-.009-.19c-.005-.104-.023-.633-.04-1.174l-.033-.985-.432-.4-.432-.401-.46.45c-.373.368-.479.447-.57.428a5.626 5.626 0 0 0-.424-.052l-.314-.03-.236.266-.236.265-.032.879c-.017.484-.021.896-.009.917.013.02.078.027.143.015.091-.018.12-.053.123-.148.009-.355.082-1.245.104-1.267.014-.014.108-.005.208.02.1.025.242.06.313.075l.13.03V18.62l.131.02c.072.011.19.023.26.027l.131.007v-.847zm40.032-.465l.116-.673-.242-.028c-.327-.037-8.081-.64-8.234-.64-.121 0-.122.001-.207.713-.047.393-.077.721-.068.729.01.007.987.083 2.174.168l4.22.306c1.134.083 2.077.14 2.094.125.017-.015.083-.33.147-.7zm-30.703-.357c.09-.073.072-.128-.059-.187l-.118-.054V13.79h-.184c-.168 0-.186.013-.213.148-.017.082-.03.74-.03 1.464v1.316l-.14.028a.57.57 0 0 0-.247.134l-.106.105.14.062c.158.07.856.038.957-.044zm30.899-.783c.115-.582.22-1.26.197-1.282-.035-.035-8.624-.578-8.656-.547-.055.052-.17 1.259-.12 1.274.027.01 1.041.094 2.254.188s3.08.242 4.149.328c1.07.087 1.99.16 2.047.163.076.005.11-.027.129-.124zm-21.945-1.048c-.055-1.666-.077-1.941-.157-1.972-.04-.016-.078-.023-.083-.015-.006.007-.086.317-.178.688-.13.526-.153.676-.102.676.053 0 .066.143.066.75 0 .413.009.76.02.771.011.011.12.013.241.003l.221-.018-.028-.883zm-8.373-.38c0-.659-.006-.708-.091-.73-.133-.035-.146.036-.146.775v.66h.237v-.706zm4.552-.314v-.309h-.518l-.013-.343-.014-.344-.201-.015c-.233-.016-.23-.007-.275-.637l-.03-.415h-.739l-.03.148c-.047.24-.033.47.03.49.033.01.118.03.19.047.12.026.13.046.13.252.001.124.015.305.03.403.029.169.04.177.21.177h.18l.03.32c.054.58.006.534.547.534h.473v-.308zm26.188-.659a9.7 9.7 0 0 0 .119-.762c-.024-.018-8.772-.506-8.788-.49-.034.034-.18 1.412-.152 1.44.028.029 8.46.588 8.617.572.053-.006.104-.196.204-.76zm-28.826.386c.04-.34.038-.737-.005-.762a1.912 1.912 0 0 0-.31-.054l-.274-.033.013.487.014.487.237.056c.13.031.25.06.266.062.016.003.042-.106.059-.243zm-1.423-.782c.016-.176.054-.784.085-1.35l.056-1.03.224-.179.224-.18.034-.977c.033-.927.04-.977.124-.955.077.02.09-.003.09-.17 0-.168-.016-.199-.119-.224-.117-.03-.118-.035-.118-.545v-.515l-.14-.073c-.076-.04-.149-.056-.16-.036-.011.02-.047.254-.079.521-.055.456-.065.486-.166.486-.139 0-.166.135-.167.824 0 .29-.013.7-.03.91l-.03.381-.273.177-.273.177-.03.745c-.015.41-.04 1.026-.056 1.37l-.028.624.348.165c.192.091.373.167.402.17.032.002.065-.125.082-.316zm-4.104-.272a8.603 8.603 0 0 0-.024-.692l-.037-.68-1.352-.272a35.932 35.932 0 0 0-1.45-.275c-.091-.002-.095.015-.063.286.018.158.044.297.056.31.012.012.525.12 1.139.238l1.117.217.03.41c.043.566.029.543.321.504.137-.019.255-.04.263-.046zm5.83-1.885l-.012-1.812-.23-.11c-.128-.06-.235-.103-.24-.095-.005.007 0 .85.01 1.874l.02 1.861.149.043c.344.1.317.257.304-1.76zm29.387.01c.045-.185.07-.346.058-.359-.014-.013-1.328-.081-2.922-.151l-2.898-.127v-.391l-.249-.03a6.404 6.404 0 0 0-.608-.03h-.36l-.043.22-.044.221-.948-.009a21.405 21.405 0 0 1-1.216-.037l-.267-.028-.034.34c-.019.188-.027.347-.017.355.017.015 8.421.34 9.104.353l.362.006.082-.334zM22.07 8.69c-.015-.041-.028-.273-.028-.516v-.44l-.144-.06c-.08-.033-.151-.052-.16-.042a4.24 4.24 0 0 0-.042.479l-.026.46.15.093c.188.116.29.127.25.026z"/></svg>