<svg xmlns="http://www.w3.org/2000/svg" width="64" height="64"><path d="M25.612 62.736c-2.126-.342-7.056-2.247-8.968-3.466-1.01-.643-2.006-1.178-2.214-1.187-.209-.01-1.77-1.32-3.471-2.911C2.809 47.544-.525 36.88 1.697 25.556c.853-4.35 1.79-6.567 4.56-10.789 4.63-7.06 12.05-11.783 20.708-13.186 4.68-.758 5.407-.758 10.086 0 11.366 1.84 20.67 9.605 24.282 20.261 2.34 6.904 2.034 16.724-.71 22.82-1.488 3.304-4.652 7.72-7.41 10.343-3.218 3.06-10.328 6.834-14.261 7.568-2.54.475-10.77.575-13.34.163zm12.276-4.59c4.497-1.505 6.934-3.083 10.82-7.009 4.575-4.62 6.742-9.018 7.524-15.268.976-7.816-.41-13.411-4.93-19.888C44.74 6.58 31.214 2.089 20.691 5.817c-2.705.96-2.705.96 2.518 1.197 5.015.228 5.41.33 9.89 2.56 4.78 2.38 7.07 4.396 10.183 8.966 4.957 7.275 4.958 19.672.004 26.945-3.33 4.886-7.863 8.402-13.493 10.464-1.82.666-3.89.901-7.953.905-3.022.002-5.406.093-5.299.201.108.109 1.916.726 4.018 1.37 4.9 1.504 12.362 1.383 17.328-.279z"/><path d="M24.628 62.535c-1.217-.234-4.206-1.441-6.641-2.683C5.152 53.305-1.257 39.75 1.72 25.452c.932-4.475 2.1-7.128 4.941-11.233 4.71-6.802 11.731-11.176 20.263-12.62 4.676-.793 5.333-.795 10.051-.03C45.432 2.942 52.54 7.3 57.295 14.03c3.802 5.382 5.715 11.532 5.701 18.332-.017 8.718-3.166 16.029-9.66 22.432-3.3 3.255-10.278 7.033-14.384 7.788-3.145.579-11.202.553-14.324-.046zm11.52-3.927c5.193-1.342 8.226-3.115 12.359-7.225 4.702-4.676 6.93-9.149 7.725-15.514.987-7.899-.576-13.99-5.228-20.371-6.602-9.057-19.997-13.336-30.311-9.68-2.706.958-2.706.958 2.542 1.197 5.093.231 5.388.31 9.991 2.648 4.724 2.399 7.28 4.715 10.412 9.433 3.455 5.207 4.392 14.198 2.174 20.869-2.455 7.382-8.232 13.116-16.148 16.027-1.68.619-3.86.858-7.823.862-3.022.002-5.406.093-5.299.201.108.109 1.916.712 4.018 1.34 4.924 1.472 10.424 1.547 15.588.213z"/><path d="M24.874 62.539c-3.454-.58-10.203-4.167-13.41-7.128-5.277-4.87-8.606-10.518-9.746-16.533-2.192-11.569 1.065-21.747 9.49-29.653 4.47-4.195 9.253-6.498 15.86-7.636 4.294-.74 5.12-.742 9.689-.03 4.661.727 6.994 1.591 12.071 4.473 3.747 2.126 8.834 8.004 11.335 13.097 3.695 7.526 3.637 19.115-.135 26.602-1.522 3.022-4.81 7.246-7.724 9.924-3.181 2.924-9.866 6.316-13.654 6.93-3.47.562-10.289.539-13.776-.046zm10.185-3.51c10.311-2.221 18.707-10.576 20.84-20.738 1.97-9.39-.42-18.35-6.61-24.77-4.684-4.86-6.731-6.12-12.792-7.876-5.733-1.66-11.09-1.53-16.788.408-3.69 1.255-3.69 1.255.511 1 9.266-.565 16.75 3.09 22.624 11.05 5.344 7.242 5.564 19.09.502 27.038-2.579 4.048-6.045 7.038-11.354 9.793-2.835 1.471-7.562 2.298-11.664 2.04-3.916-.245-5.038.165-2.229.817.75.174 2.47.635 3.824 1.024 3.007.866 9.61.973 13.136.214z"/><path d="M24.248 62.313c-7.954-1.745-16.276-8.637-20.41-16.904-1.53-3.057-2.825-9.236-2.825-13.474 0-3.97 1.226-9.606 2.757-12.678C10.68 5.4 24.58-1.322 39.388 2.036c8.41 1.906 16.437 8.392 20.572 16.62 1.614 3.213 3.044 9.479 3.04 13.328-.004 4.037-1.47 10.764-3.013 13.828-3.985 7.912-12.55 14.833-20.449 16.523-4.143.887-11.193.876-15.29-.022zm11.589-3.473c10.792-2.57 19.1-11.883 20.455-22.935 1.114-9.08-1.43-16.873-7.503-22.992-4.088-4.12-6.659-5.636-12.346-7.283-5.638-1.633-11.026-1.502-16.734.408-3.69 1.235-3.69 1.235.511.996 7.961-.451 14.545 2.173 19.938 7.946 4.974 5.326 6.805 9.91 6.802 17.035-.005 9.023-4.278 16.54-12.112 21.304-4.639 2.821-7.33 3.539-13.27 3.539-2.896 0-5.11.153-4.92.34.19.187 2.005.788 4.035 1.336 4.473 1.208 10.818 1.336 15.144.306z"/><path d="M24.248 62.313c-7.954-1.745-16.276-8.637-20.41-16.904-1.53-3.057-2.825-9.236-2.825-13.474 0-3.97 1.226-9.606 2.757-12.678C10.68 5.4 24.58-1.322 39.388 2.036c8.41 1.906 16.437 8.392 20.572 16.62 1.614 3.213 3.044 9.479 3.04 13.328-.004 4.037-1.47 10.764-3.013 13.828-3.985 7.912-12.55 14.833-20.449 16.523-4.143.887-11.193.876-15.29-.022zm11.589-3.473c10.792-2.57 19.1-11.883 20.455-22.935 1.114-9.08-1.43-16.873-7.503-22.992-4.088-4.12-6.659-5.636-12.346-7.283-5.638-1.633-11.026-1.502-16.734.408-3.69 1.235-3.69 1.235.511.996 7.961-.451 14.545 2.173 19.938 7.946 4.974 5.326 6.805 9.91 6.802 17.035-.005 9.023-4.278 16.54-12.112 21.304-4.639 2.821-7.33 3.539-13.27 3.539-2.896 0-5.11.153-4.92.34.19.187 2.005.788 4.035 1.336 4.473 1.208 10.818 1.336 15.144.306z"/><path d="M26.177 62.592c-6.929-1.107-14.443-5.784-18.747-11.668C1.252 42.48-.325 32.773 2.735 22.03c.95-3.332 4.82-9.257 8.154-12.483C14.115 6.426 21.18 2.725 25.334 1.98c4.07-.73 10.24-.638 14.204.21C47.704 3.94 56.05 10.78 60.213 19.138c1.909 3.832 3.02 11.993 2.316 16.994-1.71 12.127-9.437 21.62-20.72 25.46-3.338 1.135-11.513 1.658-15.632 1zm11.637-4.286c1.975-.665 4.189-1.592 4.92-2.06 9.556-6.115 14.227-14.34 14.042-24.728-.132-7.417-2.624-13.196-8.055-18.682-3.856-3.894-6.269-5.395-11.527-7.17-6.151-2.076-13.24-1.721-19.576.98-1.015.433-1.845.848-1.845.921 0 .074 1.532-.08 3.406-.341 8.884-1.24 19.127 3.673 24.09 11.556.797 1.266 1.939 3.946 2.537 5.955.914 3.067 1.047 4.424.83 8.447-.311 5.74-1.493 9.419-4.205 13.087-2.471 3.343-4.633 5.347-7.618 7.064-5.289 3.04-11.32 4.238-16.542 3.281-1.7-.311-3.195-.462-3.321-.335-.335.338 5.026 2.304 8.448 3.097 3.926.91 9.835.47 14.416-1.072z"/><path d="M26.177 62.592c-6.929-1.107-14.443-5.784-18.747-11.668C1.252 42.48-.325 32.773 2.735 22.03c.95-3.332 4.82-9.257 8.154-12.483C14.115 6.426 21.18 2.725 25.334 1.98c4.07-.73 10.24-.638 14.204.21C47.704 3.94 56.05 10.78 60.213 19.138c1.909 3.832 3.02 11.993 2.316 16.994-1.71 12.127-9.437 21.62-20.72 25.46-3.338 1.135-11.513 1.658-15.632 1zm11.637-4.286c1.975-.665 4.189-1.592 4.92-2.06 9.556-6.115 14.227-14.34 14.042-24.728-.132-7.417-2.624-13.196-8.055-18.682-3.856-3.894-6.269-5.395-11.527-7.17-6.151-2.076-13.24-1.721-19.576.98-1.015.433-1.845.848-1.845.921 0 .074 1.532-.08 3.406-.341 8.884-1.24 19.127 3.673 24.09 11.556.797 1.266 1.939 3.946 2.537 5.955.914 3.067 1.047 4.424.83 8.447-.311 5.74-1.493 9.419-4.205 13.087-2.471 3.343-4.633 5.347-7.618 7.064-5.289 3.04-11.32 4.238-16.542 3.281-1.7-.311-3.195-.462-3.321-.335-.335.338 5.026 2.304 8.448 3.097 3.926.91 9.835.47 14.416-1.072z"/><path d="M25.322 62.34c-10.904-2-21.086-12.077-23.362-23.12-1.265-6.141-.612-14.024 1.6-19.306 2.495-5.958 8.044-11.917 13.96-14.99C28.995-1.038 43.053.657 52.644 9.16c11.164 9.898 13.395 27.372 5.114 40.066-6.915 10.6-19.158 15.55-32.437 13.114zm12.55-4.054c9.712-3.27 16.764-11.389 18.469-21.262 1.117-6.47.118-12.98-2.777-18.09-1.887-3.33-6.67-8.342-9.994-10.47-6.527-4.18-15.559-5.272-23.227-2.808-4.41 1.417-5.766 2.362-2.466 1.717 7.524-1.471 16.794 1.686 22.287 7.59 3.227 3.468 4.32 5.364 5.639 9.774.919 3.076 1.05 4.411.828 8.447-.291 5.297-1.234 8.46-3.657 12.267-5.378 8.448-15.338 12.677-25.971 11.025-2.32-.36-2.39-.34-1.23.354 1.306.783 5.29 2.07 8.586 2.776 3.1.663 9.472.041 13.513-1.32z"/><path d="M27.334 62.756c-9.996-1.568-18.64-8.146-23.556-17.927C1.494 40.285.698 30.53 2.125 24.562c1.965-8.22 8.09-15.86 15.875-19.8 17.503-8.86 38.842.684 43.8 19.587 1.629 6.205.786 15.694-1.869 21.038-3.88 7.814-11.115 14.043-19.067 16.416-2.726.814-10.792 1.382-13.53.953zm8.859-3.823c7.993-2.204 14.39-7.526 18.142-15.093.704-1.42 1.633-4.648 2.064-7.172.716-4.186.716-4.994.008-9.225-.846-5.057-2.127-8.041-5.286-12.306-5.555-7.502-16.312-12.015-25.5-10.7-3.754.538-8.733 2.125-9.574 3.052-.385.425-.265.481.464.217.54-.197 2.423-.48 4.182-.631 8.558-.733 19.034 5.155 23.23 13.056 6.488 12.218 1.515 27.913-10.758 33.956-5.753 2.833-12.876 3.665-17.192 2.008-.651-.25-1.184-.264-1.184-.031 0 .791 5.936 2.932 10.331 3.725 2.027.366 8.438-.13 11.073-.856z"/><path d="M25.366 62.294c-8.701-1.722-16.958-8.336-21.424-17.161-2.33-4.606-3.276-14.135-1.968-19.826 2.61-11.347 12.014-20.739 23.13-23.1 10.6-2.252 21.155.777 28.495 8.178 5.223 5.266 7.892 10.678 8.944 18.138.686 4.873-.514 12.616-2.623 16.907-6.338 12.9-20.256 19.693-34.554 16.864zm11.035-3.435c6.494-1.709 12.206-5.855 15.89-11.535 2.808-4.328 3.566-6.377 4.29-11.598 1.028-7.396-.707-14.029-5.411-20.69-1.285-1.82-2.231-2.751-5.386-5.3C40.813 5.72 32.287 3.483 25.6 4.441c-3.736.535-8.714 2.123-9.553 3.048-.385.425-.265.481.464.217.54-.197 2.423-.48 4.182-.631 11.094-.95 22.98 8.003 25.544 19.24 1.39 6.095-.053 14.195-3.408 19.119-1.9 2.789-5.578 6.566-7.075 7.266-.572.267-1.815.915-2.762 1.439-4.422 2.449-13.279 3.531-16.85 2.059-.744-.307-1.353-.367-1.353-.134 0 .792 5.955 2.938 10.331 3.724 2.225.4 8.06-.081 11.281-.929z"/><path d="M25.366 62.294c-9.767-2.042-18.052-9.46-22.042-18.58-2.131-6.542-2.745-13.847-.782-20.51C6.242 11.06 17.877 1.756 30.55 1.509 40.594.926 50.679 5.719 56.67 13.88c5.672 7.284 7.348 17.256 5.063 26.157-2.864 12.724-15.029 22.14-27.761 22.818a32.9 32.9 0 0 1-8.606-.562zm11.035-3.435c9.152-2.347 16.768-9.885 19.43-19.001 1.886-7.24 1.23-15.233-2.673-21.7-3.79-7.103-11.045-12.008-18.86-13.398-5.966-1.25-12.267-.215-17.753 2.354-1.973 1.575 2.661-.303 3.485.023 11.756-1.192 23.437 7.704 26.207 19.178 1.641 8.115-.607 17.18-6.591 23.006-2.343 2.853-5.692 4.482-9.014 5.861-4.928 1.557-10.451 2.513-15.446.746-.18 1.426 4.346 2.251 6.035 2.935 4.915 1.7 10.208 1.082 15.18-.004z"/></svg>