<svg xmlns="http://www.w3.org/2000/svg" height="64" width="64"><path d="M30.889 62.99a69.525 69.525 0 0 1-1.25-.083c-6.628-.494-12.87-3.096-17.965-7.489-.707-.61-2.246-2.139-2.906-2.887-6.241-7.083-8.902-16.452-7.322-25.785 1.895-11.2 9.964-20.581 20.78-24.16a31.117 31.117 0 0 1 17.22-.666 30.81 30.81 0 0 1 14.46 8.175 30.866 30.866 0 0 1 8.517 16.011c.384 1.974.549 3.747.549 5.901 0 1.633-.059 2.574-.257 4.1a30.973 30.973 0 0 1-3.742 11.162c-5.062 8.9-14.102 14.724-24.227 15.607-.982.086-3.142.15-3.857.114zm-3.866-5.112c.527-.475 1.014-.913 1.082-.972.123-.107.13-.102 1.328.946.663.58 1.217 1.041 1.232 1.026.015-.014-.174-.688-.42-1.498l-.446-1.47.198-.178c.109-.098.573-.485 1.032-.861l.835-.683h-2.618l-.513-1.192c-.283-.656-.528-1.192-.545-1.191-.018 0-.23.53-.474 1.177l-.442 1.177-1.448.029-1.447.029 1.12.78c.615.43 1.119.81 1.119.844 0 .035-.197.75-.436 1.587-.24.838-.437 1.542-.437 1.565 0 .023.072-.024.16-.104l1.12-1.01zm12.121-2.89c.319-1.008.173-.937 1.396-.688l.814.166-.691-.654-.691-.654.27-.715c.15-.393.263-.723.253-.733-.01-.01-.314.15-.674.356l-.656.375-.582-.44c-.32-.242-.596-.425-.614-.407-.019.019.018.35.082.737l.116.703-.122.075c-.067.042-.393.233-.725.426-.695.402-.705.387.321.454.324.021.614.055.645.075.031.02.157.448.28.951.125.504.244.896.266.872.023-.023.163-.428.312-.9zm-24.307-2.515c.024-.479.05-.88.06-.89.01-.01.356-.136.767-.282.411-.146.769-.284.794-.308.026-.024-.304-.169-.734-.322l-.78-.28-.036-.348a9.728 9.728 0 0 1-.042-.704c-.012-.708-.02-.708-.602-.029-.285.332-.526.614-.535.627-.013.017-.772-.26-1.669-.608-.066-.026.086.248.4.719l.506.76-.622.852c-.342.468-.609.864-.594.88.015.015.448-.145.961-.355.514-.21.955-.38.98-.38.026 0 .268.41.539.908.41.757.498.884.529.77.02-.076.055-.53.078-1.01zm38.594-8.134c.342-.313.65-.56.681-.55.033.012.414.331.849.71.434.38.797.68.807.669.01-.012-.121-.476-.29-1.032l-.31-1.01.128-.107c.07-.058.381-.31.692-.559.31-.249.565-.472.566-.496.002-.024-.398-.044-.888-.044h-.892l-.336-.787c-.186-.433-.353-.77-.373-.751-.02.02-.169.38-.33.802l-.294.765-.97.03-.972.028.756.522c.416.286.756.53.756.541 0 .011-.13.475-.29 1.03-.16.556-.291 1.044-.291 1.084 0 .04.085-.006.188-.102l.813-.743zm-23.518.288l.612-.549.632.554c.348.305.633.545.633.535 0-.011-.104-.36-.23-.774-.135-.447-.208-.779-.178-.815a8.96 8.96 0 0 1 .521-.438l.47-.377-.675-.029-.675-.029-.239-.567c-.131-.311-.256-.567-.278-.567-.021 0-.136.261-.256.58l-.218.58-.734.016-.735.016.567.397c.312.218.566.415.566.436-.001.022-.103.386-.226.81-.123.423-.212.77-.196.77.015 0 .303-.247.64-.549zm13.384-2.649c.245-1.059.457-1.858.505-1.896.05-.039.53-.082 1.2-.108.616-.024 1.285-.06 1.488-.08l.368-.038-1.4-.806c-1.27-.732-1.4-.821-1.4-.96.001-.084.078-.806.17-1.606.093-.799.161-1.46.151-1.47-.01-.01-.38.278-.824.64l-1.244 1.013-.438.357-1.538-.803c-.846-.442-1.547-.795-1.557-.785-.01.01.31.673.71 1.473l.728 1.455-1.486 1.442c-.817.793-1.463 1.45-1.436 1.459.028.009.936-.176 2.019-.41l1.967-.428.215.47c.118.26.46 1.04.762 1.734.3.695.563 1.244.583 1.221.019-.023.225-.866.457-1.874zM15.32 38.585l.185-.17.302.272c.167.15.31.263.321.253.01-.01-.033-.186-.097-.391l-.116-.373.187-.148.279-.22c.074-.057.026-.07-.26-.072l-.35-.002-.146-.334-.146-.334-.115.32-.114.32-.37.028-.368.03.268.187c.297.21.3.22.179.621-.14.464-.132.465.36.013zm10.883-3.3l-.022-1.228.915-.41c.504-.225.916-.424.916-.443 0-.019-.432-.148-.958-.288l-.958-.254-.03-.182c-.04-.236-.263-1.732-.263-1.764 0-.09-.653.754-1.17 1.51-.027.041-1.703-.362-2.138-.513-.101-.035-.106-.042.676.886.328.39.597.735.597.767 0 .031-.287.535-.638 1.12-.35.584-.627 1.072-.615 1.085.013.012.53-.24 1.148-.562l1.126-.584.696 1.042c.382.573.706 1.043.718 1.044.013.001.013-.55 0-1.226zm-19.824-1.91c.019 0 .256.198.528.438s.563.487.647.55l.153.113-.247-.809-.246-.808.559-.455.558-.455-.715-.029-.715-.029-.247-.565a6.903 6.903 0 0 0-.282-.6c-.019-.019-.09.111-.157.29l-.242.643-.12.32h-.395c-.216 0-.594.016-.84.037l-.445.038.626.345c.344.19.648.367.675.393.04.038-.124.7-.408 1.653-.019.062.262-.154.623-.48.361-.325.672-.59.69-.59zm46.282-2.819c.107-.128.132-.118.46.178.164.147.298.242.298.213 0-.03-.039-.183-.087-.34-.122-.402-.113-.44.146-.631.128-.094.232-.192.232-.218 0-.026-.15-.047-.335-.047h-.334l-.125-.305-.124-.306-.147.332-.147.331-.332.018-.331.017.264.19.265.19-.112.39a9.18 9.18 0 0 0-.112.412c0 .032.44-.326.521-.424zm-18.974-7.1a39.15 39.15 0 0 1 .688-1.28c.051-.07.272-.002 1.34.411.704.272 1.298.489 1.32.48.022-.007-.314-.484-.747-1.06a30.547 30.547 0 0 1-.813-1.108c-.014-.034.237-.503.557-1.043.32-.54.574-.989.565-.998-.01-.01-.497.157-1.082.37l-1.065.389-.206-.23c-.769-.853-1.341-1.406-1.373-1.324-.018.048-.033.557-.033 1.13v1.044l-.16.06c-.816.303-2.108.829-2.088.849.014.014.515.153 1.114.31a24.67 24.67 0 0 1 1.102.301c.008.01.045.476.082 1.035.083 1.24.135 1.86.155 1.86.009 0 .298-.538.644-1.196zm-18.817-.723c.238-1.023.449-1.887.468-1.918.02-.032.648-.086 1.427-.12.766-.036 1.448-.081 1.517-.103.1-.03-.147-.194-1.242-.823-.751-.432-1.378-.815-1.393-.852-.015-.037.055-.766.155-1.62.1-.854.173-1.56.164-1.57-.01-.01-.528.401-1.152.912-.623.512-1.187.966-1.252 1.011-.109.075-.247.015-1.628-.702-.83-.43-1.529-.783-1.553-.783-.024 0 .286.659.689 1.464l.733 1.465-.399.382C9.84 20.976 8.812 21.984 8.831 22c.013.01.922-.177 2.021-.415 1.63-.354 2.008-.42 2.048-.354.027.043.37.818.763 1.721.393.904.727 1.643.744 1.643.016 0 .224-.838.462-1.862zm32.076-.543l-.136-.739.586-.326c.323-.18.686-.384.808-.455l.221-.129-.221-.036a5.094 5.094 0 0 0-.628-.038 7.47 7.47 0 0 1-.706-.037l-.298-.036-.039-.734c-.062-1.197-.045-1.183-.472-.38-.202.381-.392.734-.423.784-.057.093-.218.089-1.26-.034l-.29-.034.508.513c.28.282.509.533.509.56 0 .025-.107.32-.238.656-.132.335-.225.623-.209.64.017.017.309-.095.649-.247l.618-.278.561.561c.309.309.57.554.578.544.01-.01-.044-.35-.118-.755zm10.31-.356c.04-.05.224-.22.407-.379l.332-.288.544.472c.299.26.55.448.559.42.009-.028-.072-.339-.179-.69l-.195-.637.467-.38.467-.38-.594-.016-.594-.017-.171-.39a85.082 85.082 0 0 0-.249-.563l-.078-.172-.218.563-.218.563-.665.016-.665.017.47.316c.257.174.49.345.517.378.028.035-.034.348-.146.73-.107.368-.195.69-.196.716-.002.057.296-.149.404-.279zm-14.041-7.646c.28-.88.53-1.622.556-1.65.027-.03.763.087 1.73.275.926.18 1.712.328 1.748.328.036 0-.508-.539-1.21-1.198l-1.273-1.198.145-.386.52-1.37c.205-.54.366-.988.358-.996-.009-.007-.574.309-1.256.702l-1.241.717-1.135-.843c-.624-.463-1.145-.83-1.16-.817-.013.014.068.594.181 1.288.113.694.206 1.318.206 1.388 0 .103-.227.257-1.244.842-.684.393-1.292.752-1.351.797-.103.078-.1.082.037.085.08.001.72.054 1.424.117s1.322.115 1.374.116c.075 0 .174.32.482 1.556.532 2.131.502 2.029.556 1.93.025-.046.274-.804.553-1.683zm-25.421-3.862l.625-.571.305.262c.168.145.515.446.77.67.256.225.475.4.486.389.01-.01-.1-.413-.247-.894-.147-.482-.268-.91-.268-.954 0-.043.286-.311.636-.597l.635-.519-.83-.016-.83-.016-.306-.71c-.168-.392-.323-.73-.345-.754-.02-.023-.165.297-.32.711l-.28.753-.928.016-.928.016.704.488c.386.269.712.504.723.523.011.02-.093.428-.231.908-.138.48-.268.937-.288 1.017l-.037.146.165-.15c.09-.08.445-.405.789-.718zm18.649-4.89c.04-.048.28-.273.53-.5l.459-.413.45.396.58.511.132.116-.087-.287-.215-.718-.129-.432.284-.237c.156-.13.364-.308.462-.395l.179-.158-.589-.002-.588-.001-.222-.51c-.122-.279-.24-.529-.26-.554-.022-.026-.13.197-.243.494l-.203.54-.663.03-.662.029.494.343.513.358c.017.014-.31 1.22-.382 1.406-.039.102.072.091.16-.015z"/></svg>