<svg xmlns="http://www.w3.org/2000/svg" width="64pt" height="64pt" viewBox="0 0 64 64"><path d="M30.21 64.363c-6.312-.414-12.323-2.629-17.3-6.363-1.746-1.313-4.098-3.543-5.394-5.102C4.332 49.047 2.16 44.801.988 40.125c-1.402-5.59-1.312-11.277.266-16.844 1.027-3.617 2.851-7.289 5.14-10.34 1.727-2.308 4.208-4.793 6.516-6.523 10.262-7.7 24.211-8.547 35.356-2.14 2.504 1.437 4.523 3 6.699 5.179 2.48 2.477 4.222 4.836 5.789 7.824 4.809 9.157 4.879 20.242.191 29.465a32.742 32.742 0 0 1-9.543 11.313c-4.757 3.546-10.347 5.675-16.39 6.242-.996.094-3.766.129-4.801.066zm15.821-4.25l-.25-.261H18.445l-.25.261-.254.254H46.29zM18.227 32.527V5.484l-.262-.363c-.145-.2-.274-.367-.29-.367-.015 0-.027 12.465-.027 27.691v27.692l.286-.285.293-.282zm28.21-13.89L46.422 4.8l-.242.36-.242.366v54.035l.242.243.242.246.016-13.785c.007-7.586.007-20.016 0-27.63zM30.535 53.766l-.281-.293h-3.625c-4 0-3.637-.035-4.02.402l-.152.18h8.363zm10.559-.004l-.301-.29h-7.211l-.238.262c-.125.141-.23.27-.23.286 0 .023 1.863.035 4.14.035l4.144-.004zm-8.086-.168l.234-.297V36.305l-.238-.246c-.129-.133-.258-.243-.293-.243-.023 0-.047 4.094-.047 9.098 0 5.004.023 9.074.05 9.04.032-.036.161-.196.294-.36zm-1.906-13.387l-.016-4.578-.277.258-.274.261V53.25l.274.316.277.32.016-4.55c.007-2.504.007-6.61 0-9.129zm-8.364 4.426v-8.59l-.258-.29-.253-.292v18.305l.253-.274.262-.27zm18.817 0v-9.098l-.258.25-.258.254v17.18l.234.254c.13.14.247.261.258.261.012 0 .024-4.097.024-9.101zM29.246 52.46c0-.023-.105-.156-.234-.29l-.242-.245h-4.461l-.204.258c-.113.136-.207.265-.207.285 0 .023 1.204.039 2.672.039 1.473 0 2.676-.02 2.676-.047zm10.567 0c0-.023-.106-.156-.235-.29l-.238-.245h-4.531l-.204.258c-.113.136-.199.265-.199.285 0 .023 1.215.039 2.707.039 1.485 0 2.7-.02 2.7-.047zm-10.114-7.82v-7.672l-.289.238-.289.234v14.336l.227.266c.129.152.257.27.293.27.035 0 .058-3.032.058-7.672zm4.664 7.297l.23-.278V37.531l-.238-.246c-.128-.137-.257-.246-.289-.246-.027 0-.05 3.441-.05 7.652 0 4.579.023 7.625.058 7.59.031-.039.164-.187.29-.343zm-10.27-7.333v-7.082l-.257-.289-.254-.293v7.657l-.004 7.648.254-.277.262-.282zm16.048-.003v-7.653l-.262.254-.254.25v14.309l.238.242c.13.137.242.246.254.246.012 0 .024-3.445.024-7.648zm4.832-5.145l-.285-.289h-1.973l-.258.234c-.145.125-.258.254-.258.29 0 .03.688.054 1.528.054h1.527l-.285-.289zm.582-8.082l-.035-1.574-.274.355c-.273.356-.273.36-.273.91v.555l-.325-.2c-.261-.163-.41-.206-.796-.23-.516-.03-.825.04-1.215.286l-.242.152-.008-1.192-.246-.277-.254-.273-.035 1.5c-.02.824-.036 1.57-.036 1.66.004.086.02 1.578.036 3.312l.03 3.149.513-.496v-4.489l.37.211c.337.196.419.211.919.211.492 0 .582-.02.914-.203l.375-.203v4.356l.273.328.274.32.035-3.293c.015-1.816.015-4.012 0-4.875zm-1.532 6.117c.153-.293.125-1.125-.046-1.387-.157-.242-.418-.203-.57.098-.157.3-.134 1.117.038 1.379.168.25.422.215.578-.09zm-14.902-.484l.285-.29h-2.758c-1.511 0-2.75.02-2.75.048 0 .023.11.156.239.293l.238.242h4.46zm10.45.054c.132-.132.242-.265.242-.292 0-.024-1.227-.051-2.735-.051-1.508 0-2.738.011-2.738.031 0 .016.12.145.273.285l.274.262h2.218l2.223.004zm-8.903-1.535l.281-.289h-4.203c-2.308 0-4.2.02-4.2.043 0 .028.106.157.24.29l.237.245h7.356l.285-.289zm10.371 0l.285-.289h-4.297c-2.449 0-4.3.024-4.3.059 0 .027.117.16.257.285l.258.234h7.512zM30.668 31.59c0-.02-.09-.152-.2-.293l-.198-.246h-7.446l-.207.25c-.11.14-.203.273-.203.293 0 .015 1.856.035 4.129.035 2.266 0 4.125-.02 4.125-.04zm10.566 0c0-.02-.093-.149-.21-.29l-.212-.25h-7.335l-.25.235c-.133.133-.243.266-.243.293 0 .027 1.856.05 4.13.05 2.261 0 4.12-.019 4.12-.038zM31.035 20.836l-.015-8.313-.18-.503c-.211-.602-.414-.93-.84-1.38-.605-.64-1.586-1.14-2.613-1.335-.75-.14-.73-.149-.707.168l.023.265.57.114c.973.199 1.63.511 2.239 1.074.43.398.789 1.05.894 1.62.043.22.067 3.606.067 9.274v8.926l.27.356.277.355.015-1.152c.012-.637.012-4.895 0-9.47zm2.14 1.094c.005-7.457.02-8.965.098-9.328.215-1.016.907-1.868 1.914-2.364.547-.27 1.16-.453 1.485-.453.168 0 .18-.015.18-.293 0-.336.003-.336-.676-.191-1.344.281-2.555 1.152-3.098 2.226-.437.871-.414.282-.414 10.567v9.308l.508-.578zm-10.546 8.8c.098-.152.11-.835.113-9.054 0-9.688-.023-9.184.363-9.953.454-.914 1.766-1.786 2.891-1.918l.352-.043v-.57l-.274.038c-1.797.282-3.164 1.313-3.707 2.81l-.18.48-.015 9.398-.016 9.395.184-.215c.101-.114.23-.282.285-.368zm18.848-10.574l-.02-7.828-.16-.422c-.356-.902-.965-1.57-1.863-2.05-.543-.29-1.418-.563-1.91-.598l-.32-.028v.512l.444.082c1.614.297 2.68 1.078 3.125 2.297l.168.465.02 9.086.02 9.082.476.496.016-1.633c.015-.898.015-5.152 0-9.46zm3.5 9.778l.25-.27-.774-.02a33.863 33.863 0 0 0-1.543 0l-.77.02.25.27.258.277h2.082zM29.68 21.609c.02-9.277.03-8.914-.344-9.558a3.087 3.087 0 0 0-1.75-1.367c-.461-.141-1.332-.168-1.816-.059-.86.2-1.66.832-2.024 1.598l-.203.425-.031 17.5 3.074-.015 3.082-.016.016-8.508zm10.441-.21l-.016-8.75-.144-.313a3.149 3.149 0 0 0-1.695-1.594c-.536-.215-1.582-.246-2.168-.07-1.102.336-1.883 1.16-2.082 2.2-.075.386-.094 17.16-.02 17.233.024.02 1.414.04 3.09.04h3.055l-.02-8.75zm5.91-16.626c.09-.132.164-.265.164-.289 0-.027-6.367-.054-14.148-.054H17.895l.21.293.207.293h27.555zm0 0"/></svg>