<svg xmlns="http://www.w3.org/2000/svg" width="64" height="64"><path d="M32 1C14.879 1 1 14.88 1 32c0 17.121 13.879 31 31 31 17.121 0 31-13.879 31-31C63 14.88 49.121 1 32 1zm7.697 21.817a.291.291 0 0 1 .144.071c.08.13-.05.37-.19.366.054.06.083.36-.156.573-.095.175.293.11-.155.41-.08.09-.287.136-.314.281.204.214.49.444.693.706.35.439.444.811.588 1.287-.748.305-1.354-.359-1.993-.643.2-.36-.056-.746-.27-1.002-.225.176-.367.428-.63.514-.114.039-.323.114-.171-.135.043-.23.027-.534.171-.75-.47.128-1.2-.176-1.339-.253-.316.268-.642.717-1.057.864-.157.055-.318.043-.52-.025-.093.068-.237.438-.781.25-.368-.144-.579-.272-.917-.47-.13-.086-.177-.15-.137-.258.07-.144.22-.029.336.033.197.112.404.215.515.267.209.062.422.22.648.005-.39-.215-.785-.622-.99-.846-.094-.102-.236-.306-.161-.483.07-.07.123-.07.209-.053.123.133-.017.228.294.488.53.43 1.046.869 1.383.728.322-.138.607-.396.857-.674-.252-.183-.912-.596-.869-.853 0-.14.19-.096.295-.043.292.18.411.425.915.628.473.187.649.268 1.148.268-.09-.07-.267-.156-.226-.447.257-.144.463.28.815.13.444-.279.887-.903 1.565-.73.054-.107.163-.225.3-.204zm-23.284.701c.13-.004.258.005.386.032l.636.232c.257.134.262.172.423.435-.005.113-.155.134-.24.07a3.911 3.911 0 0 0-1.062-.318c-.141.025-1.067.144-2.624.924-.713-.313-2.181.137-2.202.127 0 .081.137.293-.208.696-.12-.262-.283-.287-.568.13-.11-.253.146-.625-.396-.417.519-.511.056-.35-.094-.575.45.086.09-.34.24-.372.209-.07.374.207.444-.125.302.42.324.134.582.21.686-.04 1.392-.408 2.132-.123.717-.207 1.644-.897 2.55-.926zm-9.157.502a.91.91 0 1 1-.91.91c.001-.504.408-.91.91-.91zm21.932.08c.874-.03 1.61.028 2.043.199.064.048.028.123-.052.155-2.066-.075-6.865.124-9.14 1.903-.134-.044-.114-.166-.066-.22.721-1.054 4.592-1.945 7.215-2.037zm-10.829.493c.074-.015.152.001.24.075l.117.138v.002c.106.17.08.327.122.52-.176.128-.091-.031-.231.102.06.21.14.523.443.584.128.033.306.06.232.2-.017.084-.142.135-.18.203.297.013.217.281.15.314.263.279.586.366.918.238.161-.05.324-.387.385-.46.218.352-.049.69-.14.763-.166.188-.424.262-.623.38-.138.02-.29.021-.418.07.048.16.006.317-.139.397-.193.14-.16.127-.553.122-.212-.007-.33.028-.38-.085-.004.257-.205.3-.401.31h-.188c-.07-.005-.15-.107-.193-.175a.547.547 0 0 1-.015-.381c-.161-.054-.472.15-.52-.118-.027-.236.166-.338.225-.542-.113-.117-.338-.02-.38-.224-.028-.14.058-.36.187-.397-.376-.245-.493.324-.745.139-.097.255-.306 0-.327-.139-.107-.135.05-.311 0-.472.006-.407.452-.406.57-.776.246-.022.299-.3.519-.333.133.012.236.134.364.091.092-.111.17-.295.331-.295.233.112.41-.208.63-.251zm13.642.71c.151-.007.16.052.284.181.285.31.619.394.951.539 1.353-.267 2.578.618 4.528.333.331.052.55.348.86.466.478.365 1.131.519 1.79.465.13.33.009.643-.09.799.433.075.824.144 1.216.263.17.26-.143.504-.242.66-.273.154-.245.475-.449.706-.177.331-.317.68-.472 1.024-.112.129-.224.177-.412.224-.376-.023-.463-.042-.868-.14-.343-.197.108-.893.382-.849.18.095.304.11.486.142.13-.155.39-.948.45-1.146-.493.032-.986.15-1.457.279-.338.246-.832.15-1.18.327-.9.145-1.891.085-2.706-.344-.45.403-1.151.375-1.682.365-.445-.032-1.221-.13-1.645-.488-.423.418-.714.96-1.178 1.42-.199.343-.635.276-1.008.213a1.342 1.342 0 0 1-.38-.144c-.107-.283.022-.637.225-.83.375.023.492.321.836.294.504-.594.68-1.327 1.194-1.852.31-.102.58.24.933.172-.09-.333-.239-.62-.118-1.126.048-.246.228-.58.348-.822-.037-.2-.577-.48-.75-.807-.08-.155-.033-.315.154-.323zm18.345.05a.291.291 0 0 1 .145.071c.08.13-.052.37-.191.366.053.06.082.359-.157.572-.096.175.293.109-.155.409-.08.092-.286.137-.312.282.203.214.487.445.69.708.35.438.446.81.59 1.285-.748.305-1.356-.36-1.994-.644.199-.359-.056-.746-.27-1.003-.226.177-.367.43-.63.515-.115.04-.323.116-.172-.133.043-.23.028-.536.172-.75-.471.127-1.199-.176-1.339-.253-.315.268-.64.716-1.055.863-.158.056-.32.042-.52-.027-.093.07-.238.44-.782.253-.368-.144-.578-.273-.917-.472-.13-.085-.179-.15-.138-.257.068-.144.22-.028.337.033.198.113.404.215.513.269.21.06.424.218.65.003-.39-.214-.787-.62-.991-.845-.094-.102-.236-.306-.162-.482.07-.07.123-.07.21-.054.123.134-.017.228.293.486.53.43 1.047.87 1.384.73.321-.139.608-.397.859-.676-.253-.181-.915-.595-.87-.852 0-.139.19-.095.293-.042.293.18.412.424.915.627.474.187.65.267 1.148.267-.088-.068-.267-.155-.225-.445.257-.145.463.279.815.129.445-.28.887-.902 1.564-.73.055-.107.165-.224.302-.203zm-36.41.171c.47.277 1.181.513 1.551.293-.08.07-.084.487-.19.546-.46.022-1.12-.166-1.362-.285-1.111.359-1.472-.38-1.51-.403.252-.095 1.308.047 1.511-.15zm-10.446.292l.7.6-.576.673-.7-.599.576-.674zm17.919.74c.177.032-.184.881.39.388.18-.202.373-.39.592-.315.15.07.204.131.263.327.017.215.042.43-.124.59-.128.154-.314.249-.487.331-.337.161-.718.289-1.039.085-.133-.08-.198-.214-.241-.348.124-.19.276-.371.33-.612.11-.403.186-.46.316-.446zm-14.54.242c.124.198 1.077 1.283 1.153 1.787-.269.208-.826.649-1.024.765a14.45 14.45 0 0 1-.496-.692c-.01-.017-.14.555-.26.516-.073-.024-.112-.164-.192-.19-.086-.027.181-.238.26-.438-.135-.005-.539.023-.547.012-.02-.03-.11-.256-.13-.287-.03-.045.648.059.619.015-.15-.227-.29-.445-.38-.602.027-.138.778-.774.998-.886zm2.965.101a.258.258 0 0 1 .184.064c.038.05.06.217.074.278l.082.039c.108-.238.23-.263.254-.248.026.015.199.041.178.188-.175.014-.323.12-.308.129.137.07.34.155.477.234-.268.785-.503 1.255-.762 1.558-.401-.043-.584-.12-1.475-.518.117-.306.527-1.377.79-1.65.206.074.39.125.578.187.081.028-.032-.107-.18-.217.01-.02.053-.04.108-.044zm51.222.656a.29.29 0 0 1 .144.073c.08.13-.051.37-.19.365.054.06.083.36-.157.574-.095.174.293.107-.155.407-.08.092-.285.137-.312.282.204.214.486.445.69.708.35.438.446.81.59 1.285-.748.305-1.356-.36-1.993-.643.197-.36-.057-.745-.27-1.003-.226.176-.368.43-.63.516-.115.04-.323.113-.172-.134.043-.23.026-.536.172-.751-.472.127-1.199-.176-1.34-.252-.316.268-.641.715-1.055.862-.158.056-.319.042-.52-.026-.094.068-.238.438-.783.252-.367-.143-.578-.273-.915-.472-.131-.085-.18-.15-.14-.257.07-.144.22-.029.337.033.198.112.404.215.515.267.21.062.423.22.648.006-.389-.215-.784-.621-.99-.846-.093-.101-.237-.307-.161-.484.069-.07.124-.07.209-.053.123.134-.018.229.294.488.53.43 1.046.87 1.382.73.322-.14.608-.398.859-.676-.253-.183-.912-.595-.87-.853 0-.138.19-.094.295-.042.291.18.411.425.915.629.474.187.65.266 1.148.266-.088-.07-.267-.156-.226-.447.257-.144.463.28.815.13.446-.278.889-.903 1.565-.731.055-.106.165-.224.301-.203zm-18.407.283c.151-.007.161.053.285.18.285.311.617.395.95.54 1.353-.267 2.577.618 4.527.333.332.053.552.348.863.465.477.364 1.13.52 1.79.466.13.33.007.644-.093.799.435.075.827.145 1.218.264.17.26-.143.502-.241.657-.274.155-.248.478-.451.709-.177.331-.316.68-.47 1.022-.113.13-.227.177-.414.226-.376-.024-.464-.042-.869-.14-.343-.197.11-.893.382-.848.18.094.305.109.487.141.128-.154.392-.948.45-1.146-.492.032-.986.149-1.457.278-.338.246-.83.15-1.178.326-.901.146-1.892.087-2.707-.341-.45.4-1.152.373-1.682.362-.445-.031-1.222-.128-1.645-.488-.423.419-.714.962-1.18 1.421-.197.343-.634.275-1.007.21a1.346 1.346 0 0 1-.379-.14c-.107-.283.021-.637.225-.831.375.024.492.322.835.296.504-.595.682-1.33 1.196-1.856.31-.101.578.243.931.173-.09-.332-.238-.62-.116-1.125.047-.247.226-.58.346-.823-.037-.198-.578-.48-.75-.806-.08-.156-.033-.315.154-.324zm-22.458.097c.129-.015.15.045.148.2a.933.933 0 0 1 .788.247c.166.246-.023.395-.2.576-.375.18-.472.392-.738.364-.121-.062-.417-.134-.453-.278-.03-.012.067-.816.286-1.07.07-.02.126-.034.169-.039zm-3.987.097c.43.034.348.342.052.573-.252.204-.246.569-.209.847.294.727.944.89 1.854.846.635.044 1.51-.88 1.51-.88.132.274.393.305.74.298-.027.076-.363.674-.627.778 3.288.318 3.645-.072 6.838-1.77.204.04.312.275.306.43 0 .332-.322.384-.515.593.043.177.364.122.273.45-.085.203-.38.291-.478.457-.396.09-.357 1.15-.642 1.645-.181.278-.576.432-1.053.535-1.576.36-7.408 2.22-8.63 1.819-1.362-.492-.876-1.831-1.466-2.57-.448-.49-1.034-.653-1.555-.467-.643.188-.302-.036-.912.226-.68.238-.908-.624-.729-.782.466-.364.6-.268 1.18-.321-.155-.218-.41-.527-.41-.527-.527-.147-1.03.08-1.45.312-.143.047-.214.224-.644.131-.203-.129-.302-.362-.204-.643.552-.5 1.394-.668 2.077-.726l.817-.02c1.002.196 2.48.638 3.12.722a1.902 1.902 0 0 1 .167-1.58c.142-.196.29-.342.59-.376zm5.9.593c.35-.015.84.13 1.032.5.06.236.156.525.06.745-.08.117-.36.188-.472.188-.026-.302.114-1.062-.9-.954-.222.04-.461.23-.596 0 .137-.128.446-.322.59-.412a.667.667 0 0 1 .287-.067zm31.256 1.417c.15-.007.16.053.285.182.284.31.616.393.948.537 1.354-.266 2.577.619 4.527.333.333.054.553.349.863.467.477.364 1.13.518 1.79.464.13.33.008.643-.091.799.434.075.826.144 1.216.263.17.26-.141.503-.24.658-.273.156-.246.479-.45.71-.176.33-.317.679-.472 1.022-.113.129-.224.176-.412.224-.377-.023-.465-.04-.87-.138-.343-.198.11-.893.383-.85.18.095.305.11.487.141.129-.155.39-.949.449-1.146-.493.032-.986.15-1.457.279-.338.246-.831.15-1.18.327-.9.144-1.89.085-2.704-.344-.45.402-1.152.375-1.682.365-.447-.032-1.222-.128-1.645-.487-.424.418-.714.96-1.18 1.42-.197.343-.635.275-1.007.212a1.35 1.35 0 0 1-.38-.142c-.107-.284.02-.639.224-.832.376.023.493.323.836.296.504-.594.681-1.33 1.196-1.854.31-.102.578.24.932.172-.091-.334-.239-.622-.118-1.126.048-.246.228-.579.349-.822-.037-.198-.58-.48-.751-.807-.08-.155-.033-.314.154-.323zm-49.603.328c.951.038 1.893.694 1.99 1.767-.03.02-.028.12-.06.138-1.177.686-2.904.463-3.53-1.102.03-.04.025-.123.057-.16.398-.466.972-.666 1.543-.643zm23.283 1.106c.413.154.685.303.943.79.191.426 0 .806-.22 1.092-.618.668-1.376.844-2.19 1.104-2.564.757-6.447 2.097-9.353 2.945-.667.2-1.322.25-1.89.22-.989-.036-1.695-.603-2.113-1.273-.376-.712.344-.74.535-.38.375.472.797.93 1.548.995.906.04 1.503-.084 2.004-.274.062-.261.043-.59.113-.938.094-.127.41-.107.5-.043-.015.26-.03.549-.04.794.28-.051 5.734-1.8 6.389-2.006.07-.304.1-.464.198-.914.147-.193.514-.224.506-.034-.048.224-.119.536-.164.775.629-.217 2.83-.803 3.37-1.353.425-.445-.19-1.264-.136-1.5zM7.413 32.705a.93.93 0 0 1 .261.07c.188.123.333.427.231.676.215-.016.335-.191.533-.25.05-.24.156-.348.3-.19.378-.238.378.324.045.407a4.931 4.931 0 0 1-.618.47c.377.275.6.21.853.285.026.145-.076.311-.202.386.118.075.332.241.493.225.13-.092.066-.03.164-.12.144-.113.309.04.32.114-.13.536-.29.547-.428.55-.33-.097-.57-.176-.855-.372-.132.134-.246.24-.402.24-.155.364-.112.686-.364.991-.056.08-.602.115-.736-.154-.017-.119.101-.202.224-.207l.132-.067c.07-.092.1-.434.197-.515-.156.003-.528-.048-.636-.187.226-.239.377-.546.425-.77-.29.193-.346.157-.701.23-.327.248-.902-.206-.306-.291-.235-.262.206-.17.249-.064.291-.02.478-.242.645-.321-.113-.098-.38-.106-.436-.49.022-.269.097-.496.354-.61a.692.692 0 0 1 .258-.036zm-5.071.388l2.026 1.985-.694.71-2.026-1.985.694-.71zm2.026 3.252c.076-.047.063.292.164.481.092-.1.334-.426.348-.424.036.004.265.082.301.087.055.007-.465.455-.412.461.27.033.527.067.703.101.09.111.088 1.095.03 1.335-.231-.034-1.676-.013-2.108-.282.015-.34.042-1.05.081-1.275.062-.003.43.028.848.072.02.001-.333-.467-.224-.533.066-.041.197.021.269-.023zm5.666 1.005l.555.546-.795.81-.557-.548.797-.808zm-2.957.81l1.02.5-.344.7-1.018-.498.342-.701zm2.64 2.256l.596.505-.733.865-.595-.504.733-.866z" fill="#231f20"/></svg>