<svg xmlns="http://www.w3.org/2000/svg" width="64" height="64"><path d="M25.781 4.125c-.546.02-1.221.126-1.718.313-.444.249-.819.396-1.22.687a.945.945 0 0 1-.28.219c-1.411 1.106-1.99 2.89-1.907 4.75-.116 1.286.376 2.515.813 3.656.165.609-.274 1-.344 1.531-.138.373-.132.85-.313 1.188a1.276 1.276 0 0 0-.562-.063c-.354.035-.703.216-1 .313-.098-.097-.246-.143-.406-.157-.388.034-.773.095-1.125.344-.506-.449-1.136-.656-1.813-.781-1.122-.256-2.193.234-3.094.719-.58.33-1.122.8-1.468 1.375a7.645 7.645 0 0 0-1 3.156c-.215.879-.125 1.768-.063 2.625.09 1.439.483 2.846.656 4.25.174.726.196 1.436.376 2.156l.062 1.532c-.79 1.445-.86 3.32-.688 5 .063.768.043 1.582.25 2.343.395 1.341.837 2.667.844 4.125-.146 1.646-.59 3.247-.437 4.969 0 0 .583 2.178.875 3.25-.063.788-.333 1.472-.25 2.281.01.072.014.145.031.219l.313-.469c-.006-.021-.027-.04-.032-.062.027-.782.17-1.49.281-2.25-.034-.456-.257-.801-.312-1.25-.166-.866-.528-1.684-.438-2.563.084-.11.022-.278.063-.437.062-.622.463-1.086.719-1.625.083-.18.35-.642.344-.719.076-.13.114-.31.156-.469a.506.506 0 0 0 .094-.218c.318-.816.337-1.695.468-2.532.153.187.32.398.438.625.201.9.046 1.862-.313 2.657-.166.83-.573 1.604-.719 2.468-.125.636-.235 1.19-.062 1.813.026.345.035.643.125.968.124.05.386.018.406.22.213.837-.066 1.613-.312 2.406l.5.156c.255-.832.637-1.625.437-2.563-.116-.393-.335-.698-.562-1.031-.02-.54-.22-1.093-.031-1.625.124-1.065.647-1.978.874-3 .305-.706.357-1.576.282-2.344-.188-.622-.638-1.117-.969-1.656-.188-1.612-.606-3.183-1-4.719-.166-.698-.36-1.434-.188-2.187.16-.775.349-1.576.626-2.282.173.29.365.669.53 1 .11.25.234.464.282.72.084.124.108.305.156.437.028.22.058.517.031.718-.056.38-.12.759-.156 1.126H14c-.146 1.355.361 2.561.688 3.812.496.934.611 2.077.75 3.156.048 1.037-.367 2.081-.063 3.125.132 1.024-.102 1.973-.219 2.969.013.712-.081 1.496.313 2.125.1.28.168.583.25.875l.469-.625c-.082-.315-.155-.63-.313-.906-.478-1.688.543-3.469.031-5.157.042-1.264.356-2.547-.031-3.75-.069-.4-.13-.775-.219-1.156-.054-.055-.059-.143-.094-.218-.409-.941-.65-1.95-.906-2.938-.25-.864.027-1.746.125-2.625v-.469a2.829 2.829 0 0 1-.094-.406c-.068-.11-.108-.251-.156-.375-.352-.726-.768-1.608-1.031-2.375.443-1.258-.062-2.38.25-3.75.193-1.32.595-2.6.781-3.906.234-.899 0-2.19.906-2.625.305-.18.705-.42 1.032-.532-.132.243-.432.509-.5.813-.063.055-.032.15-.094.219-.416 1.057.038 2.031.156 3.062.193.657.333 1.458.125 2.157a7.157 7.157 0 0 0-.312 1.968c-.215 1.065-.254 2.083-.219 3.188.041.705.425 1.298.5 1.968.111.09.046.233.094.344.063.367.104.804.062 1.157-.166 1.424.052 2.911.094 4.343.041.975.389 1.865.625 2.75.068.138-.08.438.156.438l.032.156c-.029.637-.136 1.152-.094 1.781l-.032.032c-.047.947.239 1.907.157 2.812-.022.864-.215 1.772-.125 2.656-.02.617.086 1.266-.157 1.813-.022.051-.038.104-.062.156.15.21.293.39.438.563.316-.794.607-1.562.468-2.47-.041-.172-.05-.298-.062-.5-.056-1.292.3-2.636.031-3.937-.103-.69-.08-1.489-.031-2.125L17.75 43c.083-1.189.208-2.373.438-3.5.125-.712.406-1.364.53-2.063.139-1.39-.082-2.42 0-3.78.091-.534.31-1.031.407-1.563.412-1.391.143-3.21.281-3.5.36.74.763 1.51 1.032 2.312 0 0 .547 1.098.656 1.907.102 1.134-.38 2.31-.063 3.5.264.856.44 1.764.344 2.656.195.09.04.372.063.531-.007.11.024.254-.032.344.022.317-.253.62-.343.937-.208.311-.438 1.032-.438 1.032h-.031c-.104.462-.215.954-.125 1.374.021.45.258.808.312 1.25a7.142 7.142 0 0 1-.25 2.344c-.11.795-.204 1.715.094 2.469.028.235.122.523.156.75.042.18.175.355.188.5.249.222.146.674.312.938-.053.335-.212.616-.375.906.297.07.39.104.594.156.08-.18.151-.36.25-.531.153-.38.146-.836.063-1.25-.103-.18-.282-.688-.282-.688a3.532 3.532 0 0 1-.156-.5c-.23-.822-.389-1.722-.188-2.593.103-.713.298-1.434.25-2.188.07-.034-.013-.052 0-.094-.04-.87-.564-1.739-.28-2.625.124-.435.272-.855.5-1.25.075-.041.163.06.218-.031.16.104.302 1.162.344 1.625-.063 1.023.35 1.961.843 2.813.09.207.174.42.25.656.236.622.145 1.302.125 1.937-.048.914-.219 1.76-.156 2.688l-.031.031.031.031c.136.734-.045 1.468-.125 2.219l.688.063c.06-.518.162-1.04.125-1.563-.147-1.618.246-3.177.156-4.844-.159-1.362-1.215-2.278-1.25-3.687-.138-.761.127-1.771-.531-2.282-.007-.264-.171-.446-.219-.687.041-.228-.142-.404-.031-.625.049-1.148-.202-2.244-.5-3.281-.152-1.099.273-2.318.093-3.375-.083-.74-1.489-3.646-1.406-4.407-.026-.788.083-1.774.657-2.437.18-.355.882-.775 1.187-.969a.602.602 0 0 1 .281-.031c.244.031.417.198.657.219-.035.18-.204.264-.22.437a3.95 3.95 0 0 0-.312 3.125c.256.962 1.076 1.845.688 2.938-.131.58-.345 1.13-.282 1.718.027.885.447 1.663.75 2.438.243.428 1.139 1.6 1.407 3.531.05.312.134 2.77.281 3.469.2.436.519.76.656 1.25.208 1.051-.017 1.908-.031 2.938-.159.608-.25 1.906-.25 1.906.041.477-.058.916-.031 1.468.007.257.107.414.156.657.007.022.02.042.031.062l.532-.531c-.32-.948.093-2.04.093-3.063.14-.856.171-1.885.219-2.75 0 0 .005-.825-.156-1.093-.25-.561-.771-1.01-.688-1.688-.076-1.051-.11-2.17-.406-3.187-.064-.332-.202-.623-.25-.969.123-.173.017-.41.031-.625-.09-.65.221-1.255.657-1.656.138-.339.378-.665.28-1.032-.172-.512.361-.787.313-1.25.132-.546.105-1.168.125-1.687l-.093-.594c-.027-.041.042-.09 0-.125-.208-.85-.67-1.73-.532-2.656.006-.232.063-.447.125-.688.77-2.079.697-3.131.625-4.03-.044-.393-.083-.775-.187-1.126-.082-.47-.333-.893-.438-1.343-.16-.326-.302-.651-.343-1.032l.03-.031-.03-.031c-.035-.574.16-1.187.437-1.719.38-.56-.055-1.235.125-1.844.09-.463.33-.923.281-1.468.061-.526-.013-1.1.313-1.5v-.032c.151-.193.418-.35.687-.406.18-.041.255.132.407.188-.679 1.43.043 2.98.375 4.343-.02.643-.493 1.215-.375 1.907.291.864.293 1.702.218 2.593-.044.558-.133 1.114-.406 1.594-.192.46-.445 2.045-.656 3.094.155.152.387.74.531.875.03.02.054.032.063.031.003-.02.031-.059.093-.031.09.02.17.006.282 0-.444.899-.659 1.872-.5 2.875.111.664.114 1.377.03 2.062-.104.187-.013.463-.124.657.02.124-.048.548-.063.687-.035.325-.375 1.55-.375 1.688-.083.588.216 1.047.125 1.656-.304.87-.666 1.834-.5 2.781.173 1.128.34 2.217.782 3.219.214.782.47 1.576.562 2.406-.091.595-.348 1.242-.25 1.844.045.469.541.492.625 1.156.118.525-.15 1.048-.156 1.594-.021.062-.017.167-.032.25-.013.04-.019.108-.03.156l.562.063c.04-.197.08-.402.093-.594.035-.408.247-.764.313-1.125.085-1.033-.14-1.155-.688-1.813-.095-.37.468-1.14.157-1.968-.165-.886-.43-1.74-.719-2.563-.313-.975-.476-1.963-.594-3-.116-1.03.455-1.875.532-2.844-.007-.283-.165-.553-.157-.843 0-.263-.017-.557.094-.813.048-.284.15-.602.219-.906.09-1.258.426-2.682.093-3.907.007-.304-.086-.668-.03-1 .034-.63.295-1.223.593-1.75.087-.035.054-.145.094-.187.013-.014.023-.005.062 0l.157.125c.338.117.813.228.937.656.015.167.125.338 0 .469.015.049.032.104.094.125.007.692-.21 1.394-.313 2.031-.054.13-.072.26-.093.407-.042-.021-.049.017-.063.03l.031.063c-.249.665-.17 1.222-.281 1.907.083.373.112.762 0 1.156-.055.09-.062.23-.125.312-.027.298-.198.589-.156.907.021.407.187.705.5.968.034.373-.113.852.281 1.032.173.152.236.118.438.25-.296.497-.125 1.75-.125 1.75.013.331.048.678.062 1.03.214.353.368.724.5 1.063.014.146.063.469.063.469-.056 1.293-.3 2.657.343 3.875.408.76.825 1.57 1.219 2.344.028.159.181.3.063.437a5.483 5.483 0 0 1-.626.25v.032c-.27.117-.646.1-.812.343-.257.13-.26.46-.406.688-.194.331-.085.804-.375 1.093v.094h-.032c-.07.2-.058.469-.218.594v.031a.945.945 0 0 0-.344.094l-.469-.031-.312.468c.135.002.276.019.406.032l.063.031c-.206.249-.317.678-.407 1.031-.077-.035-.106.09-.156.125-.145.485-.6.7-.781 1.157-.09.421-.585.901-.219 1.28.328.32.764.133.813.126.06-.138-.125-.14-.125-.25.104-.816.476-1.294 1.093-1.813-.028-.007.57-.693.75-1.156.208-.366.24-.85.532-1.188.034-.069.1-.073.093-.156.2-.255.342-.532.563-.781.222-.304.64-.4.937-.469.099-.408.608-.238.844-.5.228-.09.356.112.563.125.063.043.312.094.312.094.256.553.069 1.159 0 1.719-.152.187.108.313.156.437.056-.013.396-.004.438-.093.125-.298.29-.606.312-.938.145-.609-.276-1.238 0-1.813.506-.462.34-1.358 1.032-1.656 1.285-.73.396.355 1.53-.093.202.158.421-.045.594-.094.098-.05.21.073.25.093.305.153.484.578.844.626.146.014.15-.137.219-.22.097-.38.574-.376.844-.562.242-.007.427-.128.656.032.352.234.664-.04.969-.22h.062l.313-.28c.359.006.562.386.812.593.388.443 1.149.695 1.688.5.086-.134.236-.224.375-.312l-.5-.5c-.02.022-.045.038-.063.062-.097.063-.215 0-.312 0-.241-.408-.75-.637-1.157-.843-.16-.173-.136-.428-.156-.657.02-.104.02-.258.063-.375.27-.602.906-1.076.718-1.843-.228-.499-.517-1.028-.28-1.594.359-.45.903-.858 1-1.5.062-.056.061-.164.124-.219-.035-.041.07-.07.063-.125.151-.27.063-.56 0-.844-.125-.588-.485-1.225-.25-1.875.166-.67.387-1.336.781-1.875.208-.526-.066-1.037-.219-1.5-.007-.214-.003-.435.094-.593.136-.542.412-.992.469-1.594.083-.87-.217-1.642-.563-2.375v-.063c.18.043.276.197.469.219.52.276 1.078.291 1.625.375-.027.974.442 2.18-.25 3.031-.477.726-.985 1.613-.688 2.532.043.31.228.737-.062 1-.23.249-.373.55-.469.874.124.429.474.804.625 1.22.132.483.333 1.033.188 1.53-.442.865-.511 1.897-.907 2.782-.403.86-.373 1.916-.093 2.843h.625c-.205-.695-.322-1.45-.125-2.156.263-.684.496-1.347.656-2.093.082-.72.708-1.323.5-2.126-.132-.712-.432-1.38-.813-1.968.028-.581.813-.878.563-1.563-.256-.69-.23-1.499.219-2.093.311-.608.899-1.206.781-2 0-.595-.112-1.218-.125-1.813.331.035 1.286.254 1.438.281.359.167 1.294.367 1.343.844.007.151-.094.258-.156.375-.408 1.058-1.032 2.18-.719 3.438.068.843.485 1.687.125 2.53-.146.52-.435.968-.531 1.5-.104.332.268.515.281.813.07.65-.14 1.312-.562 1.782-.837.864-1.12 2.07-1.032 3.343l.032.25.562-.843c0-.37.038-.745.157-1.063.028-.09.01-.223.093-.313-.041-.096.094-.11.094-.187.262-.74 1.008-1.282 1.188-2.063.15-.512.193-1.147-.188-1.562.007-.352.188-.623.25-.969.194-.553.53-1.079.406-1.75-.068-.691-.253-1.364-.343-2.062.014-1.044.497-1.862.843-2.782.331-.415.459-1.03.375-1.625v-.125c.478.236.876.84 1.188 1.282.298.512.278 1.075.187 1.656-.117.38-.291.7-.375 1.094-.256.51-.746.996-.656 1.625-.056.782.153 1.608.188 2.437-.029.526-.253.967-.563 1.375-.236.305-.362.68-.5 1.032-.173.698-.414 1.335-.781 1.937-.234.684-.9 1.236-1.094 1.969-.02.047-.016.107-.031.156l.468.469c.027-.117.081-.224.094-.344.158-.678.55-1.222 1-1.719.18-.498.467-.921.688-1.406.007.187.08.407.093.594h.032c.18.733.442 1.35.593 2.062l.032.032v.03l.562-.156c-.29-1.171-.952-2.266-.687-3.53.207-.56.237-1.177.562-1.688.45-1.114.069-2.28 0-3.469.125-.249.316-.452.344-.75.374-.58.697-1.28.719-2.063.062-.04.041-.132.062-.187.194-.069.077-.313.188-.438.241-.262.305-.636.562-.906.118-.622.329-1.203.344-1.875.228-.884-.102-1.792-.219-2.656-.125-.69-.358-1.354-.531-2.031l-.031-.313.156.032c.186.166.348.36.5.562.056.117.167.143.188.281.622.754.775 1.758.968 2.719.076.476.073 1.625.032 1.688-.07 1.748-.52 3.493-.72 5.187-.304 1.971-.997 3.756-1.343 5.719-.171 1.075.084 2.1.063 3.156l.593-.313c-.01-.563-.014-1.134-.125-1.718-.11-1.043.203-2.028.438-2.969.048-.02.042-.132.062-.188.373-1.355.8-2.74.875-4.187.202-.338.115-.832.282-1.219-.049-.29.153-.505.124-.781.064-.277.09-.634.126-.938.062-.27.187-.843.187-.843-.027-.229.025-.881.031-.938.146-1.161-.196-2.3-.437-3.343-.279-.678-.76-1.49-1.282-2.032-.236-.166-.479-.365-.75-.468-.04-.437.312-.909-.062-1.282-.31-.255-1.325-.962-1.375-1.156-.173-.312-.4-.515-.656-.75-.035-.553-.035-1.127-.188-1.688-.11-.248-.126-.556-.25-.812-.222-.837-.634-1.653-1-2.406-.34-.755.376-1.455.188-2.25-.04-.65-.508-1.097-.625-1.719-.055-1.148.19-2.271-.688-3.031-.435-.332-.897-.454-1.437-.531-.119-.021-.245-.011-.375-.032l-.032-.031c-.651-.062-1.203.022-1.687.375-.29.02-.451.303-.688.469-.317.055-.55.205-.874.281-.18-.601-.8-.795-1.376-.844-.346 0-.722.043-1 .125-.643.146-1.247.596-1.593 1.157-.208-.022-.366-.211-.594-.157-.354-.048-.73.004-1 .156-.028.014-.716.667-.625 1.563-.413-.146-.834.227-1.188.531-.144.25-.42.414-.593-.187-.061-.54-.168-1.058-.5-1.5-.318-.311-.827-.294-1.25-.219-.145-.18-.2-.4-.344-.594-.34-.469-.905-.77-1.563-.625a1.873 1.873 0 0 0-.812.375c-.228.208-.459.5-.625.75-.2-.056-.345-.222-.531-.312-.077-.346.01-.714-.157-1.031 0 0-.46-1.43-1.593-1.375-.09-.008-.191-.043-.282 0-.394-.509-.823-1.242-1.375-1.532.3.085.605.157.782.25.163.103.325.223.468.313.21.456.496.107.875.156.645.083 1.415.287 1.657.938.083.414.243.828.25 1.25.035.096.118.083.187.125.34-.16.505-.536.907-.625.636-.154 1.342-.085 1.812.406.117.18.204.324.281.531.027.09.143.098.219.125l.188-.063c.111-.18.32-.204.5-.218.352.062.767.126.968.437.2.346.357.716.407 1.125.013.124.114.115.218.156.055-.027.156-.045.219-.093.049-.243.01-.52.094-.781.13-.43.358-.714.718-.97a.92.92 0 0 1 .25-.062c.263-.096.567-.006.844 0 .11.07.226.108.344.032.132-.021.084-.167.125-.25.353-.733 1.086-.872 1.813-.97.767.008 1.636.152 2.218.657.206.062.3.35.563.219.572-.477 1.161-.996 1.875-1.063h.031c.297-.096.848-.163 1.25-.093v.03c.387.035.907.182 1.344.25.789.409 1.636.859 1.968 1.813.222.622.172 1.253.157 1.938.083.725 1.127 1.104.781 1.969-.11.593-.535 1.12-.375 1.75.166.318.512.441.844.468l.093.063v-.031c.111.068.196.17.25.28.215.264.324.61.47.907l.124.406c-.359-.187-.508-.52-.875-.687l-.25-.031c-.256.117 0 .406 0 .593.173.553.637.958.657 1.594.034.788.515 1.498 1.187 1.781.513.257.712.84.781 1.407.02.214.083.56 0 .78.042.181-.216.425.094.5.54.202.724.742 1.063 1.157.679 1.147 1.24 2.38 1.406 3.75.11.878.251 1.684.218 2.625-.208 1.487-.56 2.92-.124 4.406.211.622.505 1.24.75 1.875l.53.032c-.09-.23-.192-.471-.28-.688-.81-1.444-.944-3.055-.563-4.688a7.337 7.337 0 0 0 .094-1.812c-.056-1.189-.225-2.386-.563-3.5-.667-1.86-1.781-3.125-1.781-3.125-.111-.146-.3-.202-.438-.313.16-.71.052-1.36-.218-2.03-.202-.492-1.48-1.3-1.563-1.563-.104-.304-.153-.682-.187-1-.022-.069-.41-.8-.438-.938.007-.07.592.404.688.688.173.173.206.438.406.562.07.008.17 0 .219-.062.13-.035.07-.237.062-.313-.116-.373-.185-.737-.406-1.062-.119-.492-.694-1.424-.688-1.5-.255-.29-.561-.386-.968-.469-.221-.124-.195-.342-.188-.563.16-.56.379-1.068.469-1.656.013-.663-.566-.93-.781-1.469.014-.71.002-1.322-.157-2-.187-.656-.679-1.057-1.156-1.5-.097-.027-.194-.138-.25-.187-.208-.083-.404-.257-.625-.313-.277-.186-.532-.191-.843-.28a4.697 4.697 0 0 0-2.657 0c-.65.151-1.137.543-1.656.874-.56-.456-1.308-.63-2-.718-1.057-.05-2.235.175-2.781 1.156-.346-.013-.738-.101-1.125.031-.478.075-.851.568-1.094.969h-.031c-.243-.49-.817-.795-1.344-.844-.158-.007-.303-.046-.469.031-.132-.007-.25.132-.375.063-.027-.097-.129-.161-.156-.25l-.438-.375c-.726-.444-1.73-.408-2.437.062-.18-.235-.156-.574-.281-.843-.097-.332-.404-.544-.625-.75-.61-.278-1.318-.459-2.032-.438-.45-.511-1.046-.762-1.718-.906a3.982 3.982 0 0 1-.657-.188c-.15.042-.267-.01-.406-.031zm-.125.469c.089.002.195.035.282.062.166.02.323.063.53.063.076.029.189.065.282.093-1.052-.18-2.124.756-2.781 1.563-1.658 2.243-1.615 4.135-1.657 5.656.007.81.171 1.521.22 2.281l.03.032c.222 1.161-.596 2.036-.625 3.156-.082.283-.132.571-.187.875-.242-.47-.757-.93-1.344-.938-.5.008-1.019.287-1.281.75-.506-.11-1.023-.28-1.563-.093a4.983 4.983 0 0 0-.875-.563c-.635-.428-1.413-.405-2.125-.093-.512.263-1.163.55-1.874 2.312-.554 1.154-.472 2.641-.188 3.906.165.533-.063 1.061-.125 1.594-.214 1.14.097 2.261.063 3.313.06.732.076 1.676.25 2.437-.443 1.071-.689 2.253-.813 3.469.041.954.299 1.754.5 2.625.325 1.14.591 2.344.75 3.562-.104.229 0 .719 0 .719-.083.76-.137 1.614-.344 2.375-.18.476-.341.998-.562 1.469l-.344.5c.041-.968.385-2.04.281-3.125-.11-1.32-.646-2.617-.937-3.938-.07-.747-.17-1.507-.156-2.281a8.82 8.82 0 0 1 .187-3.094c.118-.51.417-.86.563-1.343.048-.305-.055-.584-.063-.875.049-1.051-.281-2.015-.406-3.032-.068-.51-.108-.967-.281-1.437-.034-.27-.09-.56-.126-.844-.006-.462-.187-.755-.187-1.219-.097-.815-.092-1.667-.031-2.531.132-.436.15-.982.281-1.438.125-.794.481-1.434.813-2.125.338-.429.55-.91 1.124-1.125.86-.58 1.973-1.037 3.094-.718.36.041.757.212 1.063.406.193.138.277.29.437.469.124.049.233.017.344-.032.11-.144.082-.344.281-.406.202-.07.428-.149.657-.093.152.089.205.236.406.187.401-.2.949-.546 1.406-.313.013.057.097.014.125.063.103.083.205.08.344.094.09-.05.226-.087.218-.219.015-.352.127-.772.188-1.125.097-.698.606-1.318.406-2.031-.166-.54-.4-1.044-.531-1.563-.125-.227-.088-.47-.156-.719-.111-1.091-.142-2.25.156-3.28.13-.415.386-.828.594-1.126.283-.657.88-1.067 1.406-1.468.491-.25.943-.557 1.469-.75.276-.026.546-.102.812-.094zm.5 1.031c.16-.003.343.014.5.063.153.047.3.048.438.125.27.179.545.41.718.687-.387.117-.827.217-1.187.438-.324-.498-.909-.867-1.531-.75-.057.014-.117.018-.188.03v-.03c.332-.332.773-.554 1.25-.563zm-1.343.906c.375-.073.727.12.875.219.16.11.337.525.53.656-.061.152-.073.02-.155.157-.415.63-.636 1.385-.844 2.125-.09.38-.233 1.674-.407 1.812-.442.706-.736 1.47-.687 2.375.048.346-.065.663.094.969.159.497.277.862.218 1.594-.33 1.134-.632 2.237-.687 3.468-.138.56.052 1.177-.031 1.688.174.802.451 1.594.562 2.437-.319-.089-.389-.448-.625-.656-.2-.201-.354-.422-.562-.594.013-.166-.15-.247-.157-.406-.097-.817-.725-1.166-.843-1.969-.048-.877.57-2.236.562-3.156.097-.394.47-1.048.532-1.969.117-1.1-.122-2.057-.22-3.094-.02-.311-.024-.647-.03-.937l.03-.031c.008-.61.14-1.163.188-1.75.187-.885.569-1.708 1.032-2.469.172-.292.399-.425.625-.469zm3.906.313c.477-.042.695.47.875.781.09.222.173.466.187.688 0 0-.188-.076-.25-.063-.353-.4-.508-.944-.812-1.406zm-.657.062c.242.25.359.591.532.875l.218.438c-.387-.124-.747-.073-1.093-.219-.27-.132-.53-.458-.75-.656.041-.034.747-.32 1.093-.438zm-1.468.844c.193.103.362.302.562.406a.077.077 0 0 1 0 .063c-.026.005-.059.004-.062.031-.617.623-.7 1.601-.907 2.438V11l-.593.031c.035-1.051.436-1.99.781-2.937l.219-.344zm20.312.125c.065 0 .138.012.219.031.63.028 1.244.2 1.75.719.478.871.365 1.688.469 2.656.291.692.8 1.417.531 2.219-.138.511-.343 1.132-.094 1.656.623 1.3 1.245 2.639 1.375 4.125l-.031.282c-.339-.118-.447-.266-.813-.375l-.343-.063c-.263-1.597-1.032-3-1.032-4.688.11-.83.23-1.545.063-2.374-.221-1.149-.378-2.33-1.188-3.188-.456-.525-1.21-.508-1.812-.625.05-.103.217-.143.313-.219.142-.038.274-.094.406-.125.066-.015.122-.03.187-.031zm-4.625.531c.111.01.982.205 1.125.156l.063.313c-.126.046-.738.263-.813.25-.906.077-1.39.349-2.187.75 0-.236.17-.442.218-.656.381-.61.846-.792 1.594-.813zm-14.718.031h.03c.36.09.64.08 1 .157.228.159.394.208.657.312-.554-.055-.98.46-1.313.875-.324.512-.492 1.094-.562 1.688-.229-.117-.4-.289-.656-.344-.048-.07-.035-.174 0-.25.173-.871.262-1.725.843-2.438zm5.062 0c.077-.013.17-.006.25 0a.916.916 0 0 1 .281.063c.731.371.858 1.798.782 2.219-.033.712-.279 1.406-.376 2.125-.16.11-.305.135-.437.281-.145-.132-.358-.202-.531-.313-.068-.67.008-1.484-.282-2.093a2.812 2.812 0 0 0-.53-.875l-.438-.438c.313-.323.744-.874 1.281-.969zm13.531.25c.139.015.264.063.407.094.276.061.614.123.843.281.083.097.12.153.188.25.493.616.525 1.364.781 2.126.124.622.245 1.216.094 1.843a4.38 4.38 0 0 0 .031 2.406c.269 1.135.679 2.19.906 3.344 0 .221-.253.178-.406.282-.31.242-.594.156-.969.156-.13-.152-.324-.279-.343-.438-.083-.899.21-1.781.093-2.75-.063-.455-.146-.922-.312-1.343-.25-.442-.54-.89-.844-1.313-.214-.29-.018-.606-.031-.938.054-.463.086-.942-.032-1.406-.144-.87-.078-1.954-.812-2.562.142-.035.268-.046.406-.031zM45 8.845a.774.774 0 0 1 .625.281c.236.29.265.658.313 1.031.125 1.003.347 1.89.124 2.906-.068.305.081.661.282.876.332.512.685 1.04.781 1.656.209 1.072.044 2.188-.031 3.219-.18-.014-.4-.118-.594-.063-.318-.022-.615.084-.906.188-.111.077-.271.266-.438.218-.262.104-.445.355-.687.5-.027-.255.011-.55.031-.812.076-.243.2-.491.188-.782-.09-.352-.187-.789.062-1.093.34-.547.001-1.302.188-1.875.131-.208.034-.476.062-.719.077-.67-.134-1.25-.438-1.781-.173-.52-.036-1.005.032-1.531-.131-.623-.38-1.197-.532-1.813.208-.248.421-.237.72-.375A.74.74 0 0 1 45 8.844zm-15.813.5c.401.103.522.548.938.562.041 0 1.144.783 1.219 1.094.173.201.281.781.281.781s.19.671.156 1.375c-.165.042-.247-.1-.406-.156-.27-.311-.432-.936-.813-1.219-.284-.263-.532-.424-.906-.5-.387-.027-1.003.217-1.218.688l-.5.062c-.036-.428.045-.713.093-1.094h.032c.18-.663.494-1.282 1.125-1.593zm14.5.062l.032.281c.146.526.503 1.172.218 1.72-.103.593 0 1.21.313 1.687.222.4.067.949.156 1.344.013.22-.087.407-.156.593 0 .754.2 1.562-.25 2.219-.103.443.256.81 0 1.219-.263.47-.086 1.137-.094 1.656-.318.38-.713.724-1.031 1.125-.125-.042-.343-.313-.406-.438-.152-.414-.466-.783-.438-1.28.028-.775.154-1.327.5-1.97.042-.345.236-.658.125-1.03-.22-.783-.527-1.796-.125-2.563.567-.85.596-2.084.5-3.031-.041-.228-.153-.411-.25-.626-.139-.255-.361-.49-.625-.593.47-.173 1.09-.092 1.532-.313zm-4.53.063c.124-.022.748.126.687.25-.215.691-.286.943-.875 1.469-.062-.035-.067-.14-.157-.188-.042-.2-.225-.144-.218-.344-.062-.082-.066-.192-.094-.281.084-.491.166-.755.656-.906zm-4.532.125c.18-.014.358-.038.531.031.416.56.44 1.297.407 1.969-.154.4-.322.9-.157 1.344.106.366.046.724.032 1.062-.222-.484-.649-1.09-1.25-1.188.173-1.002.51-1.994.28-3.093a.31.31 0 0 0 .157-.125zm6.969.437c.3.003.578.194.718.406.325.782.197 1.699.032 2.5-.283.699-.74 1.327-.657 2.157.014.642.45 1.291.313 1.969-.201.685-.477 1.332-.531 2.093-.193.837.411 1.985 1.156 2.657-.058.056-.25.187-.25.187.185.187.393.352.5.594.184-.152.604-.593.781-.75.097-.035.128.083.157.125.166.215.16.446.25.687.042 1.003-.2 1.896-.407 2.782-.091.49.188.89.188 1.375-.11.062-.142.204-.157.343l-.156.282c-.38-.18-.882-.16-1.25-.25.09-.29.296-.564.407-.875.186-.996.44-2.469-.438-3.125 0 0 .104-.215.125-.25l-.438-.563c-.025.014-.38.207-.406.219-.359-.033-1.06.407-1.406.5-.083.246-.257.9-.406 1.156.02-.003.697-.404.718-.406.333-.096.704-.302 1.063-.407.223.021.446.113.563.313.29.574.276 1.256.187 1.844-.056.228-.133.459-.188.687-.09.228-.21.452-.25.688h-.28c0 .15-.059.734-.22 1.187.086.024.128.064.126.219.18.414.389.866.687 1.219-.028.062.029.065.063.093.04.118.068.25.124.313.256.643-.146 1.308-.312 1.938-.229.234-.014.462.063.718.026.027.069.077.062.125.214.243.337.515.469.813.165.525 0 1.036 0 1.562-.09.304-.372.452-.469.75l-.625.625c-.236.533-.214 1.341-.906 1.5a1.63 1.63 0 0 0-.344.344c-.137-1.093-.31-2.269.125-3.313.707-1.597.38-3.7-.063-5.312-.062-.38-.09-.828.063-1.188-.035-.09.1-.136.094-.218a.76.76 0 0 1 .125-.313c.024-.003.261-.07.281-.062.112-.377.231-.572.125-1.063-.023-.114-.188-.165-.219-.375-.162-.327-.163-1.011-.406-1.281-.171-.276-.556-.42-.844-.531-.115.407-.206.475-.187 1.25.029.025.033.066.062.093.32.547.483 1.157.657 1.75.055.09-.035.192-.063.282l-.25.562c-.18.823.087 1.462.219 2.25.109.464.135.898.218 1.375-.015.684 0 1.61-.312 2.282-.208.456-.22.95-.406 1.406L39.5 36c-.195 1.072.26 2.012.094 3.063-.065.55-.01 1.257-.094 1.5.084.263.021.549.063.812.214.954.19 2.084.28 3.094.036.338-.03.672-.03 1.031.16.084.038.32.093.438-.124.083-.236-.032-.375-.032-.277.048-.672-.18-.906.063l-.188.125c-.028-.11-.032-.278-.156-.313.124-.263-.143-.48-.281-.687l-.25-.125c-.083-.262-.062-.616-.313-.844-.06-.146-.347-.175-.312-.375.055-.304.236-.547.313-.844.33-.595.559-1.28.656-2 .181-.366.27-.84.5-1.187.165-.622.403-1.437.187-2.094-.054-.194-.226-.344-.281-.531-.166-.546-.194-1.207-.5-1.719-.242-.533-.541-1.055-.438-1.656-.02-.49.191-.905.282-1.375.242-.665.47-1.333.718-1.969.042-.11.094-.222.157-.313.097-.456.316-.89.406-1.375.118-.594.416-1.392.063-2-.09-.33-.273-.663-.407-.968-.091-.724.236-1.048.407-1.532.195-.443.317-.931.437-1.312.142-.433.305-.886.531-1.281.346-.87.635-1.83.594-2.813-.035-.38-.236-.807-.063-1.187.145-.602.7-1.295.126-1.875-.09-.484-.008-1.047-.126-1.594-.144-.636-.494-1.193-.874-1.719l-.438-.469.031-.093c.65-.45 1.184-1.118 1.688-1.719.056-.041.117-.01.187-.031a.716.716 0 0 1 .313-.063zm-3.688.906c.234.199.597.81.594.844v.063c-.528.504-.807 1.183-1.125 1.812-.166.38-.219.807-.344 1.188a7.62 7.62 0 0 0-.562 1.344c-.173-.173-.212-.481-.407-.688-.082-.055-.063-.1-.124-.156.095-.124.102-.34.093-.5-.124-.76.06-1.459.407-2.094.387-.637.624-1.578 1.468-1.813zm-11.937.813c.51-.021 1.049.127 1.25.438-.173.172-.434.125-.594.312-.63.643-.691 1.66-.656 2.594-.091.633-.133.831-.188 1.219.096.435-.137.873-.406 1.28-.27.685-.274 1.48-.156 2.22.097.104.024.226.093.343.208.72.543 1.3.688 2.032.09.339.174.692.188 1.03l.03.032.095.656c.017.451-.154 1.37-.344 2.157-.942 2.63-.114 3.67.093 4.625.083.463.076.966.063 1.437-.07.325-.094.592-.156.938-.028.096-.102.139-.094.25-.256.214-.201.546-.25.843.041.118-.113.803-.281 1l-.375.407c-.013.221-.222.438-.25.687-.283-.408-.464-.901-.657-1.344-.082-.124-.224-.537-.28-.593-.312-.67-.437-1.615-.188-2.376.18-.574.315-1.165.156-1.78-.25-1.024-1.1-1.926-.906-3.095.033-.787.411-1.461.75-2.125.526.07 1.437.375 1.437.375.148 0 .614.439.657.032.043-.407.222-1.125.093-1.125s-.339.013-.5-.063c-.025.002-.038-.003-.062 0-.076-.034-.42-.28-.344-.437-.159-.769-.385-1.507-.531-2.282-.069-.49-.066-.928-.094-1.406.112-.284.087-.696.156-1 .186-.816.27-1.683.594-2.437.056-.262.127-.577.094-.875-.07-.76-.494-1.285-.438-2.094.035-.401.085-1.585.813-1.781.145-.042.33-.087.5-.094zm3.531.094c.457-.069.716.365.938.656-.111.014-.201-.11-.313-.125-.262-.2-.626-.225-.938-.344.035-.13.21-.124.313-.187zm9.469.594c.484.56.88.979 1.093 1.718.11.987.188 1.563.188 1.563.201.13.303.365.281.594-.026.525-.34.957-.437 1.468-.035.713.31 1.413 0 2.063-.202.74-.356 1.482-.75 2.125-.202.485-.369.985-.563 1.468-.184.093-.84.198-.968.22a32.841 32.841 0 0 0-.532 1.405c.15 0 .67.274.75.282.11.726.554 1.385.657 2.125-.055.415-.171.887-.22 1.281-.069.104-.038.233-.093.344-.132.298-.236.653-.375.937-.415 1.189-.938 2.356-1.188 3.594-.103.975.348 1.74.688 2.5.18.533.147 1.19.5 1.688.138.249.143.536.094.812-.007 1.085-.726 1.966-.844 3.031-.193.616-.48 1.177-.688 1.75l-.03.032c-.07-.125-.077-.306-.063-.438h-.032c-.145-.408-.087-.943-.03-1.344-.049-.503.43-.88.437-1.406.104-.352-.129-.612-.094-.938-.055-.353-.328-.46-.563-.687.09-.298-.402-.259-.437-.5-.214.055-.34-.07-.5-.188-.297-.31-.382-.755-.5-1.156-.034-.207-.264-.462-.438-.593.272-.886.126-1.629.376-2.563.255-.67.326-1.367.25-2.094.056-.788.566-1.416.78-2.156.146-.505.424-.807.376-1.375-.07-.64-.325-1.238-.563-1.813-.07-.179-.08-.275-.093-.468-.077-.18-.06-.313-.094-.5.083-.012.323-.024.406-.032.086-.281.278-1.01.531-1.593l-.468.062c.126-.67.361-1.448.5-1.812.223-.811.791-1.896.53-2 .097-.2.2-1.084.282-1.25.25-.02.323.188.406.375-.02.07.042.118.063.187.315 1.095-.035 2.287-.313 3.313-.174.71-.933 1.716-1.062 2.656.07-.01.329-.043.531-.063l.781-1.78c.241-.493.66-2.555.75-3.032.042-.663-.065-1.553-.687-1.906-.111-.096-.348-.107-.375-.219-.25-.034-.044-.296-.094-.469.16-.187.125-.452.188-.687-.014-.36-.003-.86.156-1.219-.035-.132 1.093-2.313 1.093-2.313.313-.352.199-.592.407-1zm-10 .343c.17-.014.323.074.5.094.208.11.448.077.656.188l.094.062c-.326.504-.517 1.16-.407 1.781.367 1.273.579 2.558.282 3.906l-.282.75c-.15.588-.11 1.221-.062 1.844.007.318-.236.602-.313.907-.276 1.001.209 1.646.375 2.53.132.326.219.693.282 1.032-.112-.028-.238-.066-.313-.156l-.031.031c-.387-.283-.768-.166-1.156-.063-.11-.214-.002-.35-.25-.343-.16.055-.245-.143-.313-.219.007-.395.19-1.336.438-1.938.245-.599.393-1.093.406-1.75-.02-.809.037-1.576-.219-2.343-.09-.518.165-.992.282-1.407.07-.063.045-.166.093-.25-.151-.947-.545-1.857-.656-2.875.015-.635.004-1.227.406-1.718a.475.475 0 0 1 .188-.063zm4.875.5c.33.097.396.373.75.469.103.104.104.309.125.469l.187.75h-.281c-.158-.595-.64-1.12-1.063-1.5.057-.09.191-.126.282-.188zm-3.063.125a5.9 5.9 0 0 0 1.375.844c-.38.78-.492 1.699-.375 2.563.194.815.496 1.632.282 2.53-.174 1.01-.69 2.123-.47 3.25.32.99.616 1.603.532 2.688-.186.194-.667.43-.813.657-.048.145-.182.156-.25.28-.146-.097-.482.031-.406-.28-.151-1.092-.335-1.905-.687-2.907-.056-.353.017-.657.156-.968.346-.547-.076-1.381.125-1.97-.014-.65.541-1.01.5-1.687.2-1.272-.136-2.432-.406-3.656.035-.457.116-.96.406-1.313l.031-.03zm1.938 1.063c.422.11.81.402.906.844.028.256.129.424.094.687.236.096.277.42.562.469.131.159.313.1.5.093.055.104.016.25.032.375-.23.215-.355.515-.563.75-.257.554-.23 1.253-.125 1.875-.013.857.476 1.48.719 2.22.06.353-.122.723-.157 1.062-.056.2-.118.442-.187.656-.125.236-.189.477-.375.656-.152.028-.305-.023-.375.157-.318.339-.167.62-.688.593l-.093-.031c-.171-.541-.401-1.03-.594-1.688-.236-.67-.281-1.436-.156-2.156.054-.172.104-.386.187-.531a6.136 6.136 0 0 0 .313-2.219c-.27-1.037-.555-2.175-.188-3.218.04-.208.071-.414.188-.594zm-17.094 3.219c.467-.004.887.272 1.281.5l.188.187c-.368.166-.78.365-1 .719-.111.076-.917.536-1.375.875-.817.642-.542 1.921-.813 2.875-.227 1.486-.667 2.877-.875 4.406-.07-.325-.136-.832-.094-1.219v-.062c-.04-.87.424-1.724.126-2.594.006-.049-.063-.136-.063-.219-.097-.601-.157-1.162-.094-1.812.132-1.445.883-2.67 2.094-3.5.055.02.097.002.125-.032.168-.074.344-.123.5-.125zm4.688.375c.332-.042.615.213.78.468.278.532.288 1.055.157 1.657a3.26 3.26 0 0 0-.906-1.344 1.24 1.24 0 0 1-.188-.157c-.138-.096-.334-.125-.437-.25.097-.29.31-.25.593-.375zm-1.782 1.125c.07.014.14.025.188.093-.083.616-.317 1.2-.344 1.782-.41 1.977-.215 4.235.188 6.218.04.214-.052.5.093.688.014.656-.09 1.426 0 2.062.063.989.075 2.126-.312 3.032-.243.926-.128 2.177-.094 3.124.076.408-.025.77-.031 1.157a.312.312 0 0 0-.063.25c-.145.65-.514 1.214-.562 1.906l-.219 1.156c-.041-.165-.156-.313-.156-.5h-.032c-.214-.74-.23-1.405-.25-2.187a18.547 18.547 0 0 1-.03-3.625c0-.934-.155-1.858-.5-2.688-.05-.29-.192-.647-.157-.937.055-.92.04-1.873.219-2.75.013-.85.246-1.605.406-2.407.069-.594.036-1.532-.375-2.375-.159-.837-.38-1.802.063-2.562.18-.456.48-.872.875-1.156.359-.096.775-.115 1.093-.282zm28.375.093c.056.166.21.098.313.188.188.056.381.153.5.312v.063c-.997.47-2.063.773-3.219.656.277-.401.782-.495 1.156-.813.368-.221.745-.434 1.25-.406zm-27.531.282c.27.193.557.417.813.625.47.552.268 1.348.718 1.875.283.282.56.588.844.906.256.27.42.623.594.968-.79.145-1.596.381-2.157.907-.484.615-.597 1.13-.843 2.093-.225-.363-.45-1.187-.438-1.25-.041-1.216-.228-2.387-.062-3.562.083-.636.236-1.238.312-1.875h.032c.063-.235.048-.501.187-.688zm30.719.187a.8.8 0 0 1 .656.281c.125.062.23.243.375.313.07.068.156.076.219.125.152.422.556.713.625 1.156.201.401.1.863.031 1.313-.097.504-.42.9-.531 1.406-.58 1.106.136 2.235.218 3.375.097.547.042 1.053.126 1.593-.195-.09-.442-.194-.657-.312-.062-.069-.212-.038-.281-.094-.38-.284-.803-.556-1.344-.562.32-1.536.716-2.994.813-4.563.187-1.078.1-2.278-.157-3.406-.034-.214-.128-.403-.093-.625zm-.625.031c.117.201 0 .352.125.532.546 1.887.18 3.935-.125 5.843-.18.733-.432 1.483-.5 2.25-.09.084-.199.074-.282.157l-.187.062c.048-.587-.002-1.228.094-1.844.083-1.01.308-2.11.093-3.187-.02-.45-.246-.874-.218-1.344-.021-.685.224-1.37.031-2 .269-.249.638-.275.969-.469zm-1.594.657c.083-.029.056.108.063.156.021.373.007.654-.063 1.062A2.91 2.91 0 0 0 48 23.031c.45 1.453.02 2.923-.063 4.438-.103-.042-.028-.16-.124-.188-.064-.187-.275-.379-.407-.531-.249-.097-.354-.396-.562-.5.103-.844.105-1.711.062-2.563.09-.677.076-1.18-.187-1.78-.096-.347-.324-.623-.532-.907.583-.103 1.134-.334 1.688-.563zm-2.406.656c.262-.007.289.25.468.375.007.159.184.323.22.531.172.415.21.947.093 1.438-.041.607.073 1.234.031 1.843-.021.318-.062.554-.062.907-.645 0-1.1.147-1.563.562l-.187.125c-.07-.228-.076-.522-.188-.75-.09-.919.302-1.815.344-2.688.02-.691-.126-1.331-.563-1.843.41-.283.97-.307 1.407-.5zm7 .625c.066.024.734.412.781.468-.007.443-.35 1.04.156 1.344-.222.996.454 1.818.469 2.813v.031c.124.623.3 1.321.188 1.938-.083.809-.181 1.506-.438 2.28-.111.125-.16.261-.25.407-.332-.678-1.083-1.278-1-2.156a11.066 11.066 0 0 0-.5-2.875c-.138-.72.01-1.41.344-2.032 0 0 .223-.545.312-.78.105-.388.11-.75.063-1.157-.042-.11-.11-.178-.125-.281zM34.906 25.5l.125.531c.278.629.463 1.226.532 1.938-.042.366-.234.752-.344 1.125-.106.291-.218.601-.407.843-.227.505-.444 1.02-.5 1.594.243.85-.163 1.587-.28 2.375H34c-.041.65-.026 1.253-.156 1.875l-.063.063c-.27-.166-.723-.058-.875-.438-.166-.56-.227-1.327-.906-1.437l-.188-.032c.035-.393.324-.772.47-1.187.393-.65.897-1.242 1.124-1.969.257-.518.463-1.086.532-1.687-.076-.262.056-.633-.063-.938-.075-.49-.07-.999-.125-1.468-.048-.18-.031-.04-.031-.22v-.062c.103-.194.23-.42.437-.531.132.013.247.083.407.063.18-.097.232-.292.343-.438zm11.157 1.125c.083 0 .187.004.28.031.23.069.48.15.563.407l.5.593c.11.443-.001.912-.187 1.313-.186.049-.327-.097-.5-.125-.43-.097-.734-.327-1.157-.438-.367-.187-.685-.4-1.03-.593.006-.05.163-.133.218-.188.381-.37.728-.995 1.313-1zm-13.188.063c-.052.498.383 1.044.438 1.687a3.304 3.304 0 0 1-.344 1.906c-.256.395-.32.957-.625 1.344-.52.706-.332.378-.438.219.167-.927.139-.21.063-1.219.041-.284.117-.616.187-.906l.032-.032c.11-.622-.179-1.218-.344-1.875.4-.344.893-.719.937-1.03l.094-.095zm9.063 1.468c.415.083.925.18 1.374.125l.407.032a2 2 0 0 1 .843 1.125c.062.116.09.22.126.343.048.056.058.156.093.219.264.76.356 1.684-.031 2.438-.119.358-.285.723-.375 1.062.076.069-.01.215.031.313.05.393.392.703.282 1.124-.243.54-.535 1.093-.688 1.688-.331.67-.266 1.618.031 2.281.312.532.004 1.04-.156 1.532-.208.717-1.063.944-1.063 1.718.083.443.14.819.376 1.219.303.636-.438 1.086-.626 1.625-.173.249-.173.622-.124.906-.347-.07-.688-.064-1 .157-.152.048-.234.172-.407.124a1.141 1.141 0 0 0-.468-.187c-.063-.152 0-.525-.063-.656l-.031-.063c.055-.947-.107-1.637-.094-2.562-.097-.948-.363-1.8-.094-2.719.145-.208.15-.487.282-.688.18-.407.265-1.07.812-1.187.532-.29.515-.958.75-1.469.194-.145.361-.407.563-.531.2-.387.496-.637.53-1.094.118-.788.12-1.749-.468-2.343.027-.09-.094-.082-.094-.157-.29-.366.163-.679.157-1.031.242-.573.359-1.457-.126-1.969-.27-.414-.583-.89-.75-1.375zm7.28.782c.52-.063 1.16.192 1.438.593.11.235.147.436.125.657-.173-.221-.448-.31-.656-.407-.429-.104-.635-.299-1.156-.375a7.577 7.577 0 0 0-.657-.187c.32-.167.499-.157.907-.282zm6.813 6.25c-.208.145-.358.29-.343.53.02.699.083 1.399 0 2.063a34.174 34.174 0 0 1-.438 3.563c-.055.257-.102.52-.156.781l.593-.594c.162-.754.33-1.5.344-2.281.182-1.069.208-2.225.157-3.281v-.032c.006-.015.002-.043 0-.062l-.032-.094c-.003-.013.001-.018 0-.031v-.031l-.093-.532c-.011.002-.021-.004-.032 0zm-25 2.53c.32.029.15.22.469.157l.094-.063c.007.118.146.122.187.22.05.511.315.986.75 1.124.014.435-.153.82.219 1.063.34.255.451.727.375 1.156 0 .117.031.288.031.406-.422.56-.274 1.698-.093 2.438-.056.623.205 1.11.156 1.718.09.097-.007.25.062.376.075.103.053.27.157.374-.2.518.296.36-.188.72-.118.124-.066.104-.219.187l-.093.062c-.333-.573-.605-1.204-.938-1.75a4.936 4.936 0 0 1-.625-3.406c.104-.63.085-1.256-.219-1.781l-.375-.75c-.07-.643 0-1.288.188-1.875l.062-.375zm-29.98-5.681C1.052 14.96 14.908 1.117 32 1.117c17.093 0 30.948 13.843 30.948 30.92S49.093 62.957 32 62.957 1.052 49.114 1.052 32.037z"/></svg>