<svg xmlns="http://www.w3.org/2000/svg" width="64pt" height="64pt" viewBox="0 0 64 64"><g fill-rule="evenodd" fill="#211e1e"><path d="M53.742 41.934C49.918 50.125 41.61 55.797 31.98 55.797c-9.632 0-17.937-5.672-21.761-13.86l-8.567-.003C5.882 54.52 17.782 63.59 31.793 63.59c14.016 0 25.91-9.067 30.145-21.653l-8.196-.003"/><path d="M1.652 41.934A31.718 31.718 0 0 1 0 31.793C0 14.234 14.234 0 31.793 0 49.355 0 63.59 14.234 63.59 31.793c0 3.55-.582 6.96-1.653 10.145l-8.195-.004a23.977 23.977 0 0 0 2.238-10.141c0-13.25-10.742-24-24-24-13.253 0-24 10.75-24 24 0 3.629.801 7.066 2.239 10.145l-8.567-.004"/></g></svg>