<svg xmlns="http://www.w3.org/2000/svg" width="64pt" height="64pt" viewBox="0 0 64 64"><path d="M30.902 63.563c-5.754-.266-11.054-1.883-15.789-4.82C8.043 54.358 2.941 47.421.953 39.5a31.638 31.638 0 0 1 .02-15.488c.41-1.598.941-3.16 1.586-4.68.382-.883 1.406-2.883 1.894-3.687C9.035 8.059 16.398 2.742 25.016.793 31.09-.578 37.602-.164 43.363 1.961c1.278.469 2.125.836 3.426 1.484 2.332 1.168 4.367 2.508 6.438 4.25.718.606 2.496 2.336 3.144 3.067 3.41 3.832 5.863 8.445 7.086 13.32 1.695 6.758 1.125 13.855-1.625 20.195-4.434 10.239-14.004 17.473-25.121 18.996-1.938.27-4.055.375-5.809.293zm-5.625-2.555l.301-.504c1.04-1.707 2.762-3.008 4.625-3.5a9.139 9.139 0 0 1 4.406 0c1.875.492 3.575 1.781 4.618 3.5l.308.508a.187.187 0 0 0 .324 0c.063-.098-.257-.672-.73-1.32-.395-.536-1.375-1.497-1.922-1.876-.48-.336-1.531-.863-2.047-1.03-1.683-.552-3.715-.56-5.441-.024-.582.187-1.711.754-2.215 1.129-.93.699-1.719 1.57-2.32 2.558-.286.473-.301.516-.207.61.093.09.226.066.3-.051zm-3.496-.61c1.078-1.625 3.188-5.445 3.188-5.78 0-.145-.157-.235-.262-.15-.039.032-.172.262-.285.52-.508 1.13-2.438 4.52-3.082 5.41-.18.25-.2.325-.106.414.13.133.23.06.547-.414zm21.793.414c.098-.093.074-.175-.152-.492-.672-.933-2.602-4.336-3.121-5.508-.164-.367-.25-.44-.39-.335-.079.054-.083.082-.02.277.199.656 2.132 4.137 3.14 5.644.313.473.414.547.547.414zm-2.547-.476c.141-.211.262-.387.266-.387.008 0 .148.055.312.121.168.067.317.121.329.121.02 0 .03-.058.03-.132 0-.098-.062-.188-.222-.332l-.222-.192.066-.277c.07-.27.07-.278-.047-.352-.113-.074-.117-.07-.266.176-.082.14-.156.281-.164.305-.015.027-.129-.02-.254-.11-.187-.125-.261-.152-.378-.129-.075.016-.141.047-.141.063 0 .02.113.125.254.23l.328.25c.066.055.047.118-.184.551l-.257.485h.148c.125 0 .176-.047.402-.391zm-17.515-.082l.476-.285c.016-.012.11.101.207.25.098.148.188.265.2.265.011 0 .07-.074.125-.168l.101-.164-.601-1.41-.204.094c-.226.098-.23.117-.078.46l.094.22-.285.257c-.156.141-.352.32-.442.395a.813.813 0 0 0-.207.305c-.05.183-.09.195.614-.22zm16.777-2.602c0-.074-.105-.207-.332-.406l-.332-.297.207-.344c.113-.183.207-.355.207-.378-.004-.055-.242-.336-.266-.309a9.917 9.917 0 0 0-.152.371c-.074.195-.156.356-.18.356-.03 0-.18-.079-.336-.168-.28-.164-.289-.164-.375-.075-.054.067-.07.114-.039.145.114.113 1.528 1.21 1.559 1.21.02 0 .04-.046.04-.105zm-12.95-.91c.532-.273 1.044-.562 1.134-.644l.164-.141-.313.035a3.025 3.025 0 0 0-.785.219 4.346 4.346 0 0 1-.516.187c-.02 0 .063-.195.184-.433l.219-.434.285-.058c.527-.114 1.055-.227 1.582-.348.02-.008-.348-.023-.813-.035l-.847-.028.176-.289c.152-.257.16-.293.093-.363-.07-.066-.086-.066-.14.004-.035.047-.18.234-.332.426l-.266.344H25.52l-.149.421.328.032c.176.015.477.031.66.031.184 0 .332.008.332.023 0 .008-.171.364-.375.79-.203.421-.414.859-.464.968l-.086.2.3-.2c.168-.113.739-.43 1.274-.707zm10.298-.328l-.39-.82.683-.024c.375-.02.695-.043.71-.058.012-.016 0-.082-.023-.153l-.054-.125h-.801l-.801-.004-.211-.367c-.188-.316-.234-.36-.36-.36h-.136l.07.227c.13.415.313.383-1.926.368l-1.996-.016-.609.32 1.324.024 1.328.023.04.153c.035.152.042.152.413.187.93.086 1.973.54 2.778 1.207.176.145.328.262.336.254.008-.004-.164-.383-.375-.832zm2.258-3.34c0-.562-.016-.715-.079-.761-.05-.043-.074-.16-.074-.418v-.36H25.066v.36c0 .257-.023.375-.074.417-.062.047-.074.2-.074.762v.696h14.977zm-13.637-2.5c.387-.426 2.097-6.101 1.926-6.375-.059-.094-.207-.133-.266-.07-.02.023-.11.348-.195.719-.344 1.5-1.043 3.785-1.504 4.949-.098.23-.188.469-.27.703 0 .063.11.16.18.16.027 0 .09-.039.129-.086zm12.562-.011c.035-.06-.027-.266-.222-.754-.551-1.375-1.278-3.797-1.563-5.188-.058-.293-.176-.398-.324-.281-.106.09-.094.176.172 1.238.492 1.969 1.402 4.703 1.668 5 .09.102.203.09.273-.016zm-2.918-.11c0-.035-.023-.137-.05-.23-.313-1.055-1.094-4.196-1.278-5.13-.11-.57-.183-.698-.355-.605-.051.028-.09.102-.09.172 0 .266.516 2.477 1.05 4.504l.266 1.008h-6.082l.14-.52c.079-.289.27-1.011.419-1.605.293-1.14.297-1.227.062-1.227-.125 0-.152.063-.437 1.215a90.136 90.136 0 0 1-.45 1.692c-.105.386-.195.718-.195.742 0 .027 1.41.043 3.5.043 2.778 0 3.5-.012 3.5-.059zm-8.511-.8c.18-.141.343-.258.367-.258.023 0 .14.101.27.226.21.203.23.215.257.125.024-.062-.012-.191-.09-.348l-.125-.242.547-.62c.465-.536.528-.626.438-.638-.125-.02-.239.051-.844.532l-.473.379-.14-.149-.145-.144-.035.18c-.031.14-.02.199.047.273.074.086.07.101-.149.32-.183.18-.382.535-.382.676 0 .031.105-.035.457-.313zm10.41.077a1.523 1.523 0 0 0-.309-.44c-.215-.22-.222-.235-.148-.321.066-.07.078-.133.05-.27l-.042-.176-.215.141-.219.145-.422-.395c-.504-.469-.605-.535-.742-.516-.086.012-.02.106.441.637l.547.621-.129.242c-.078.153-.113.282-.093.348.03.09.054.078.265-.125.125-.125.246-.226.27-.226.023 0 .207.132.414.292.203.16.379.286.386.278.008-.012-.015-.117-.054-.235zm-9.305-3.074l.16-.144.25.11c.145.058.266.097.282.081.011-.012-.149-.367-.36-.793l-.379-.77-.039.262c-.039.215-.031.297.05.48.13.286.13.31-.046.477-.148.137-.238.293-.32.559l-.035.117.14-.12c.078-.063.215-.185.297-.259zm7.188-.164c.097-.168.199-.316.226-.332.028-.02.238.082.469.219.23.137.43.242.441.226.059-.054-.11-.285-.367-.507l-.293-.254.121-.38c.09-.265.117-.425.094-.519-.035-.14-.043-.133-.258.258-.16.281-.242.39-.281.36-.27-.215-.844-.59-.906-.59-.04 0 .082.168.28.398.192.223.345.422.345.45 0 .027-.055.171-.125.316-.102.218-.121.308-.094.488.059.375.055.379.348-.133zm-5.36-.316c.063-.078.309-1.2.309-1.399 0-.172-.14-.273-.262-.18-.043.036-.133.34-.223.778-.125.629-.136.727-.07.793.082.082.18.086.246.008zm6.563-3.246v-.73h-.121c-.121 0-.121.003-.121.39v.387l-1.454-.024-.27-.633h-.667l-.238.657-3.008-.024-.434-.703h-.515l-.149.352-.144.351-.801.012-.797.012v-.387c0-.387-.004-.39-.125-.39h-.121v1.46h8.965zm-.196-1.68v-.363h-.175c-.149 0-.168.015-.168.12v.122h-7.883v-.121c0-.106-.02-.121-.176-.121h-.168v.73h8.57zm-.84-.86c0-.007-.03-.19-.074-.398-.101-.52-.097-.613.028-.613.086 0 .097-.035.097-.27v-.265h-6.996v.265c0 .239.016.266.098.266.125 0 .129.098.027.617-.043.211-.074.39-.074.399 0 .004 1.55.011 3.45.011 1.894 0 3.445-.007 3.445-.011zm-6.363-2.042c.032-.035.063-.176.063-.317 0-.492.148-2.02.52-5.312.542-4.79.644-5.742.757-6.934.106-1.133.285-4.37.426-7.812l.086-2.075.187.094.184.094.035-.121c.02-.09-.02-.184-.16-.375l-.191-.258v-4.105l.168-.016c.199-.016.304-.145.222-.27-.043-.066-.125-.082-.406-.082h-.344l-.023 2.504c-.016 1.211-.04 2.43-.082 3.645l-.102 2.289c-.078 1.734-.238 4.941-.273 5.3-.117 1.52-.274 3.008-.809 7.657-.5 4.383-.64 5.965-.539 6.086a.19.19 0 0 0 .14.062.18.18 0 0 0 .141-.054zm2.43-.235c.055-.304.168-1.883.312-4.328l.243-3.965c.062-1.043.105-1.922.093-1.949-.035-.098-.214-.133-.285-.062-.05.05-.105.75-.218 2.644-.22 3.695-.34 5.547-.426 6.723-.047.566-.067 1.066-.051 1.11.02.054.078.073.168.066.117-.016.137-.047.164-.239zm3.68-.27c.027-.534-.11-1.917-.825-8.167-.425-3.75-.511-4.77-.668-7.852-.218-4.36-.277-5.96-.308-8.304l-.027-2.297h.101c.102 0 .258-.121.258-.196 0-.12-.168-.199-.41-.183l-.254.015-.04.317c-.046.347-.007 3.36.06 5.117.03.617.062 1.523.078 2.004l.03.875-.148-.152c-.136-.149-.144-.153-.175-.047-.055.21-.024.351.171.668l.196.328.12 2.351c.145 2.762.223 3.649.645 7.38.63 5.523.743 6.613.836 7.929.008.168.028.332.059.5.012.02.086.031.152.023.125-.015.133-.03.149-.308zm-4.723-.44l-.152-.274.218-.227c.172-.172.23-.27.254-.441l.04-.219-.684.656-.219-.375-.219-.382-.011.183c-.012.117.023.258.109.422.07.137.125.274.125.305 0 .035-.07.129-.148.215-.098.097-.141.18-.118.23.028.074.055.063.223-.066l.191-.149.258.399.262.406.012-.207c.011-.16-.02-.27-.141-.477zm2.652.296c.024-.043.004-.328-.047-.695-.09-.664-.164-1.336-.238-2.004-.086-.762-.176-1.434-.199-1.492-.023-.063-.09-.11-.137-.11-.207 0-.21.079-.082 1.243.192 1.75.364 2.996.426 3.07.074.086.223.078.277-.016zm.852-.41c.023 0 .062.031.078.07.016.043.047.075.07.075.063 0 .055-.262-.011-.325-.04-.043-.032-.12.03-.3a1.34 1.34 0 0 0 .067-.407c-.015-.156-.02-.152-.156.145-.078.164-.156.3-.172.3a1.4 1.4 0 0 1-.222-.179c-.176-.168-.188-.172-.157-.063.024.07.074.211.125.317.055.14.067.234.04.34a.878.878 0 0 0-.012.32l.03.168.118-.234c.066-.125.145-.227.172-.227zm-3.11-2.125c0-.062-.054-.227-.124-.363l-.125-.25.125-.278c.07-.152.125-.296.125-.32 0-.02-.086.047-.196.14-.11.098-.215.18-.234.18-.02 0-.125-.156-.23-.351-.2-.344-.2-.344-.215-.184-.012.11.03.266.117.446l.136.28-.152.188a1.089 1.089 0 0 0-.187.375l-.04.196.243-.282.238-.277.223.332c.226.344.297.387.297.168zm2.715-.418c.075-.094.078-.094.227.031.156.13.156.13.187.028.024-.078 0-.14-.097-.242l-.13-.133.126-.246c.078-.157.125-.329.125-.457v-.207l-.227.378-.222.387-.192-.187-.191-.18-.031.125c-.024.102 0 .164.101.285.09.11.121.184.098.258a.777.777 0 0 0-.028.344l.012.144.082-.117c.047-.07.117-.16.16-.21zm-2.492-2.613c-.113-.223-.12-.266-.055-.332.063-.078.149-.446.102-.446a.594.594 0 0 0-.152.145c-.067.078-.14.148-.164.148-.028 0-.13-.136-.227-.3-.168-.274-.187-.29-.226-.192-.028.078 0 .184.101.383l.145.281-.145.157c-.082.09-.14.21-.14.289v.132l.19-.191.196-.184.238.352.235.36.015-.176c.012-.118-.027-.262-.113-.426zm1.945.191l.243-.289.258.227c.253.218.257.222.3.11.024-.06.024-.122.004-.142-.37-.25-.746-.496-1.12-.73-.044 0-.032.242.01.242.02 0 .09.047.15.102l.12.093-.18.313c-.199.352-.202.367-.105.367.04 0 .184-.129.32-.289zm-.164-2.57c.102-.16.207-.293.23-.293.02 0 .15.098.278.219l.246.226.032-.129c.027-.109 0-.156-.196-.324-.125-.11-.226-.226-.226-.262 0-.035.039-.16.09-.277.078-.203.093-.477.015-.477-.02 0-.101.13-.18.29-.078.16-.152.293-.171.293a1.092 1.092 0 0 1-.207-.145c-.172-.14-.176-.145-.207-.04-.02.071.02.157.12.267.079.09.145.18.145.195 0 .015-.07.144-.148.289-.11.184-.14.289-.121.379.043.16.07.14.3-.211zm-1.523.187c.035-.039.016-.14-.07-.363l-.125-.305.125-.164a.98.98 0 0 0 .152-.359l.035-.191-.242.253-.238.247-.196-.325-.187-.324-.02.18a.793.793 0 0 0 .086.379c.121.234.125.312.024.394-.086.075-.18.29-.145.328.016.016.094-.035.172-.105.078-.078.164-.125.192-.106.03.016.117.141.19.274.15.254.165.266.247.187zm.457-2.722c0-.028-.078-.203-.172-.387a2.844 2.844 0 0 1-.172-.387c0-.023.051-.105.117-.183.102-.125.223-.5.157-.5-.016 0-.117.101-.23.215-.114.12-.223.21-.243.199a1.972 1.972 0 0 1-.203-.317c-.09-.16-.18-.293-.2-.293-.085 0-.03.305.094.555l.133.27-.133.101c-.078.063-.132.153-.132.223 0 .144.027.144.222 0l.157-.121.191.34c.152.257.219.336.305.336.062 0 .109-.02.109-.051zm1.457-.5a.507.507 0 0 0-.125-.25c-.07-.063-.09-.121-.07-.207.027-.106.015-.121-.098-.102-.098.012-.184-.039-.371-.226l-.254-.239v.188c0 .156.04.222.18.367.148.156.172.195.125.281a.587.587 0 0 0-.055.23v.137l.356-.335.148.183c.082.102.164.172.176.16.011-.011.008-.093-.012-.187zm-1.121-2.133c.035-.035.059-.207.062-.426v-.37l.274.284c.144.153.266.266.266.246-.004-.18-.145-.465-.325-.656l-.218-.234v-1.871l.16.156c.199.191.234.191.234.023 0-.082-.078-.226-.195-.379l-.196-.242v-4.426c-.003-3.382-.015-4.441-.062-4.488-.09-.086-.227-.07-.281.04-.032.05-.055.347-.055.66v.566l-.121-.078a.563.563 0 0 0-.152-.079c-.067 0 .046.426.156.567l.117.156v5.211c0 3.5.016 5.242.055 5.3.054.11.191.126.281.04zm0-12.988c.035-.032.059-.125.059-.215 0-.156.007-.16.191-.16.219 0 .324-.098.277-.243-.027-.09-.07-.097-.445-.097h-.418v.328c0 .336.05.45.195.45a.203.203 0 0 0 .137-.063zm-1.121-2.004c0-.528-.012-.559-.098-.559-.094 0-.101.031-.101.559 0 .527.007.558.101.558.09 0 .098-.03.098-.558zm1.082 0c0-.528-.008-.559-.098-.559-.093 0-.101.031-.101.559 0 .527.008.558.101.558.094 0 .098-.03.098-.558zm1.07.011c-.011-.472-.023-.55-.097-.562-.082-.016-.09.035-.09.547 0 .531.008.562.101.562.098 0 .098-.027.086-.547zm-2.597-1.734v-.344h2.859v.68h.488v-.71c0-.74.004-.72-.226-1.032-.004-.012-.094.07-.196.18l-.175.199h-2.641l-.18-.2c-.101-.109-.187-.19-.195-.18-.234.313-.227.294-.227 1.032v.711h.493v-.34zm2.796-2.43c.016-.152-.02-.203-.457-.636l-.476-.473-.211-1.914c-.113-1.055-.223-1.883-.238-1.844-.016.04-.114.903-.223 1.914l-.2 1.84-.472.473c-.379.383-.469.504-.469.62 0 .079.016.161.032.177.015.02.632.027 1.367.02l1.332-.013zm0 0"/></svg>