<svg xmlns="http://www.w3.org/2000/svg" width="64pt" height="64pt" viewBox="0 0 64 64"><path d="M30.473 63.547a32.52 32.52 0 0 1-13.832-3.914C8.336 55.093 2.473 47.19.625 38.07c-.73-3.64-.82-7.375-.27-11.039.926-6.02 3.524-11.543 7.61-16.183.707-.801 2.379-2.438 3.207-3.141C18.324 1.66 27.523-.98 36.887.328c7.55 1.059 14.675 4.93 19.715 10.707 6.503 7.45 9.136 17.375 7.18 27.04C61.59 48.914 53.745 57.91 43.183 61.69a32.844 32.844 0 0 1-12.711 1.856zm4.609-1.531l.266-.188.562.399c.305.222.563.398.57.39a8.06 8.06 0 0 0-.207-.66c-.117-.352-.203-.656-.183-.672.02-.015.281-.2.574-.406l.535-.387-.707-.012-.71-.011-.22-.66-.222-.664-.438 1.3-1.406.047.438.313c.238.172.488.36.558.418l.125.105-.207.617c-.113.344-.207.637-.207.66 0 .02.137-.062.305-.183.168-.117.426-.3.574-.406zm1.64-2.57c.239-.352.602-1.008.602-1.098 0-.047-.043-.11-.097-.141-.118-.062-.239.047-.399.352-.055.109-.203.359-.32.554-.172.282-.207.367-.156.422.097.117.253.082.37-.09zm-5.171-.91l-.04-.688.673-.239c.367-.129.64-.25.601-.261-.039-.012-.344-.102-.68-.196l-.609-.172-.031-.554c-.063-.938-.012-.906-.442-.27-.207.309-.394.563-.414.563-.027 0-.32-.082-.668-.172-.34-.098-.628-.164-.636-.156-.008.007.172.238.394.52.223.276.41.53.41.558 0 .027-.168.285-.367.574-.203.289-.347.531-.324.539.023.008.312-.086.64-.2.333-.12.618-.21.645-.194.02.011.219.253.438.53.218.278.406.5.422.5a6.9 6.9 0 0 0-.016-.683zM16.902 56.71l.16-.992.723-.594c.453-.371.7-.605.664-.625a5.38 5.38 0 0 0-.597-.117 8.536 8.536 0 0 1-.551-.098c-.004-.004.066-.48.16-1.058.094-.579.168-1.079.16-1.114-.008-.035-.254.403-.55.973-.426.824-.555 1.031-.634 1.031a8.185 8.185 0 0 1-.609-.09c-.281-.054-.52-.086-.527-.078-.012.012.094.348.23.758.137.406.246.758.246.785 0 .031-.242.512-.535 1.078-.297.567-.531 1.035-.523 1.043.011.012.32-.234.691-.539.367-.3.684-.547.707-.547.02 0 .153.34.297.758.242.695.266.738.297.586.016-.09.102-.617.191-1.16zm21.29-.031c.144-.348.253-.672.245-.72-.011-.058-.062-.085-.16-.085-.136 0-.152.027-.402.602-.14.332-.258.652-.258.707-.004.125.133.214.242.16.043-.02.192-.32.332-.664zM41 55.48c.813-.64 1.012-.87 1.371-1.542a3.06 3.06 0 0 1 .23-.395c.126-.184.278-.844.278-1.211 0-.574-.191-1.281-.473-1.742-.187-.313-.64-.899-.699-.899a.442.442 0 0 0-.14.118l-.11.113.246.293c.7.832.934 1.722.695 2.652-.238.93-.785 1.738-1.968 2.906-.453.45-.657.668-.492.54.16-.118.636-.497 1.062-.833zm6.512-3.082c3.605-2.113 6.605-3.863 6.668-3.886.062-.016.105-.04.097-.047-.03-.031-1.101.203-1.218.27-.11.054-2.907 1.695-7.934 4.652-2.32 1.363-2.512 1.488-3.426 2.203-.883.695-1.14.914-.855.73.058-.039 3.058-1.8 6.668-3.922zM33.258 55.7c.492-.402.652-.562.652-.648 0-.137-.164-.196-.289-.106-.312.215-1.223.992-1.246 1.063-.035.101.05.226.156.226.04 0 .367-.242.727-.535zm5.469-.582c.027-.035.12-.324.207-.648.125-.473.14-.606.093-.664-.074-.09-.168-.09-.257-.004-.067.07-.325 1-.325 1.176 0 .168.184.257.282.14zM25.844 53.95l7.093-1.734c1.567-.383 2.895-.707 2.946-.73.09-.024.09-.02.031.058-.062.07-.059.09.047.176.047.039.11.07.176.09.105.004.41-.688.488-1.118.047-.23.074-.425.063-.437a.597.597 0 0 0-.18-.055c-.149-.031-.153-.027-.188.153a3.699 3.699 0 0 1-.11.445l-.081.266-1.95.472-6.425 1.578-4.477 1.098-.906.39c-.867.376-1.09.477-.867.415.058-.016 2.012-.496 4.34-1.067zm9.492-.355c.266-.317.477-.617.477-.672a.183.183 0 0 0-.094-.149c-.117-.062-.172-.015-.703.633-.477.574-.536.762-.258.762.07 0 .25-.18.578-.574zm-12.05-.149c.359-.187 1.218-1.086 1.628-1.695.809-1.203 1.086-2.223.934-3.398-.082-.633-.274-1.352-.465-1.762-.278-.61-1.024-1.613-1.34-1.8-.137-.087-.86-.31-.887-.278-.008.008.11.101.266.21.84.606 1.574 1.673 1.887 2.731.421 1.445.164 2.856-.77 4.207-.473.688-1.512 1.633-2.437 2.215-.18.113-.325.215-.325.223 0 .015 1.336-.559 1.508-.653zm-4.388.192c.22-.149.293-.223.293-.313 0-.207-.168-.195-.515.024-.23.148-.313.234-.313.308 0 .239.164.23.535-.02zm25.165-1.14c3.433-2.544 5.859-4.446 5.859-4.583 0-.207-.418.023-3.817 2.05l-2.89 1.727-.012.625c-.012.344-.035.672-.055.73-.02.063-.023.11-.003.11.015 0 .43-.297.917-.66zm-4.844.257c.031-.04.093-.332.14-.652.07-.54.07-.586 0-.66-.097-.094-.218-.055-.277.09a6.202 6.202 0 0 0-.105.656c-.055.468-.055.546.007.585.098.063.172.055.235-.02zm-19.032-.348c.235-.242.477-.785.5-1.11.024-.257.016-.308-.058-.335-.137-.05-.238.047-.281.277-.047.285-.157.54-.356.836-.191.29-.191.281-.09.383.106.098.153.094.285-.05zm-9.18-.605l.52-.371.567.406c.312.223.566.39.566.367 0-.02-.09-.297-.2-.61a7.324 7.324 0 0 1-.187-.632c0-.031.243-.238.547-.461l.547-.398-.703-.028-.703-.023-.441-1.297-.22.66-.222.66-.707.016-.707.012.535.378c.297.208.551.395.57.41.02.02-.027.227-.109.465-.246.723-.297.891-.23.856.035-.02.297-.203.578-.41zm26.122-.617c.094-.028.48-.102.863-.172 1.551-.262 2.723-.805 3.496-1.614.328-.343.614-.836.688-1.183.027-.145.02-.156-.094-.168l-.184-.012c-.027-.004-.097.133-.144.297-.121.379-.453.813-.875 1.152-.629.504-1.805.989-2.79 1.145-1.081.176-1.124.191-1.179.45-.035.171-.027.175.215.105zm-22.43-.239c.492-.101.86-.254.906-.37.043-.114-.015-.259-.105-.259-.098.02-.191.051-.281.098-.188.09-.555.176-1.164.273-.27.047-.383.153-.278.274.086.105.364.098.918-.016zm13.059-.27c1.805-.237 4.512-.628 8.586-1.237 2.738-.407 2.8-.422 2.722-.626-.023-.058-.511-.074-3.75-.097-2.046-.02-4.925-.05-6.402-.067l-2.676-.027-.015.457a4.7 4.7 0 0 1-.38 1.73c-.05.126.036.118 1.915-.132zm19.484-2.753c2.227-1.52 4.07-2.79 4.11-2.82.046-.047.015-.122-.172-.38-.133-.183-.258-.312-.297-.3-.055.02-7.926 5.95-8.035 6.058-.04.04-.035.098.015.211l.07.164.13-.085c.074-.047 1.953-1.333 4.18-2.848zM20.692 49.8c.015-.196-.184-1.035-.29-1.227-.054-.105-.277-.113-.312-.011-.02.039.023.269.094.515.066.246.14.531.156.637.043.3.058.32.203.305.121-.012.133-.036.148-.22zm-4.337-.387c.106-.105.356-1.004.368-1.309.004-.214 0-.218-.137-.218-.145 0-.145 0-.305.601-.23.887-.226.86-.16.938.078.097.129.094.234-.012zm36.899-1.394c-.34-.305-.602-.985-.723-1.895-.117-.879-.593-1.727-1.605-2.855a7.05 7.05 0 0 0-.633-.645c-.156-.117-.195-.129-.348-.09a.684.684 0 0 0-.18.059c-.011.008.16.183.38.39.39.371 1.07 1.133 1.07 1.196 0 .015.125.191.273.39.438.59.594.973.719 1.825.098.64.281 1.199.512 1.55.242.367.308.407.543.317l.183-.075zm5.18-.7l.171-.633.668-.03c.368-.02.676-.044.688-.055.02-.012-.227-.188-.535-.391-.309-.203-.559-.387-.559-.406 0-.02.078-.305.172-.637.09-.328.168-.617.168-.637 0-.02-.246.157-.547.39l-.543.427-.582-.38c-.316-.214-.582-.378-.594-.37-.007.007.059.203.145.425.262.68.266.63-.031.555-.383-.101-.563-.094-.602.031-.05.145.047.211.453.305.196.047.352.086.352.094 0 .004-.192.16-.426.344-.234.18-.45.347-.477.37-.027.032.211.036.66.016l.712-.023.238.64c.137.356.254.633.27.622a8.75 8.75 0 0 0 .199-.657zm-12.438-2.367c3.395-2.594 3.695-2.808 3.832-2.785.106.02.184 0 .27-.07.261-.215.28-.086-1.801-11.223-1.063-5.684-1.942-10.262-1.988-10.36-.043-.093-.102-.16-.118-.148-.058.04-.293-.265-.293-.383 0-.207.223-.433.762-.78.844-.548 1.207-.806 1.23-.876.012-.035-.097-.004-.261.086-.34.18-.488.184-.707.023-.149-.113-.2-.125-.438-.101-.297.05-.59.117-.875.203-.23.066-.453.125-.683.176-.04.004-2.34-.79-5.117-1.766-12.063-4.23-13.489-4.726-13.657-4.758a.842.842 0 0 1-.336-.175l-.156-.145.027-.469c.055-.875.403-2.265.797-3.21.328-.782.383-1.032.317-1.442a3.12 3.12 0 0 0-.184-.61l-.125-.269.176-.375c.098-.203.242-.48.324-.613.168-.27.176-.438.016-.461-.137-.02-.297.176-.535.648-.102.211-.196.387-.203.399-.004.011-.196-.176-.418-.41-.227-.235-.422-.414-.438-.403-.012.012.04.239.117.504.324 1.106.367 1.942.121 2.344-.773 1.273-1.3 2.976-1.492 4.816-.058.551-.09 1.016-.078 1.028.098.097-1.633 2.886-5.078 8.199-.715 1.094-1.324 2.02-1.367 2.047-.035.027-.055.074-.04.101.016.028-.105.242-.277.485l-.304.433-.32-.414c-.544-.703-.59-.75-.712-.71-.199.062-.125.234.36.843.265.344.445.613.426.645a8.68 8.68 0 0 1-.235.367c-.117.172-.297.48-.41.687-.117.203-.223.371-.242.371-.016 0-.293-.191-.617-.43-.32-.234-.621-.433-.66-.433-.106-.004-.208.121-.176.215.015.039.3.266.629.508.332.246.617.457.636.476.024.02-.035.203-.125.418-.093.211-.175.422-.254.645-.05.144-.113.308-.152.36-.137.218-.16.972-.184 6.327l-.027 5.461.125.817c.184 1.246.184 1.23.102 1.55-.098.383-.676 1.707-1.297 2.97-.274.55-.485 1.01-.473 1.019.008.011.527-.133 1.156-.317.63-.187 1.168-.34 1.2-.34.074 0 .379.497.523.856.094.226.14.277.238.289.262.035.207-.293-.14-.91a2.902 2.902 0 0 1-.184-.344c-.004-.023.285-.144.652-.27 1.102-.386.985-.292 1.188-.937.102-.309.191-.59.203-.621.012-.04-.21-.23-.547-.469l-.574-.406.707-.012.707-.015.191-.621c.11-.344.207-.626.223-.63.016 0 .113.27.215.594.102.32.207.614.23.645.032.043.262.062.711.07l.664.016-.507.363c-.278.195-.528.371-.551.39-.035.02.086.524.125.524l.379-.07c.945-.172 2.136-.13 3.14.12.438.114.168.099 9.239.528l5.379.258 2.289.11.394.402c.653.668 1.121 1.43 1.18 1.918.027.199.05.25.133.27.109.019.215.042.324.066.012.004 1.68-1.262 3.703-2.809zm-26.07 2.645c.054-.067.039-.118-.059-.328-.277-.551-1.047-1.38-1.281-1.38-.078 0-.129.036-.148.098-.024.078.05.18.37.496.227.223.481.536.575.688.09.156.195.332.23.387.078.129.219.144.313.039zm21.578-.035c.035-.176-.14-.598-.375-.907l-.246-.316-2.64-.031c-1.454-.02-4.884-.036-7.622-.036h-4.984l.148.403c.086.215.172.406.195.422.02.02.426.047.903.062l1.863.078c4.879.227 10.637.422 11.965.414.7-.004.781-.011.793-.09zM9.75 45.383l-.07-.625-2.91-7.285-2.915-7.293-.222-.078-.23-.086.117.3c.062.164 1.457 3.653 3.093 7.758 1.64 4.102 3.028 7.57 3.082 7.711.055.14.106.25.114.242a5.861 5.861 0 0 0-.059-.644zm.645-.774c.418-1.976 1.437-3.675 2.503-4.172.426-.203.915-.23 1.344-.082.156.055.328.137.38.18.085.078.089.074.058-.133a.8.8 0 0 0-.082-.27c-.102-.132-.547-.23-1.036-.23-.476 0-.496.004-.796.176-.157.094-.317.18-.473.258-.219.105-.988.902-1.031 1.07-.016.07-.082.207-.14.301-.352.55-.743 1.484-.977 2.332-.13.477-.13.484-.075 1.106.082.855.117.957.16.46.02-.226.094-.667.165-.996zm45.253.73c0-.124-.03-.14-.671-.296-.254-.063-.38-.07-.438-.035-.234.144-.07.285.477.422.507.117.632.101.632-.09zm-1.933-.425c.082-.121-.004-.219-.317-.348a2.745 2.745 0 0 1-.453-.23c-.144-.094-.207-.113-.277-.078-.234.125.016.406.555.629.343.144.422.148.492.027zm.668-1.402a1.14 1.14 0 0 0-.078-.184c-.078-.156-.09-.164-.5-.215-1.086-.148-2.098-.566-2.828-1.168l-.282-.23-.05.187c-.055.188-.047.192.171.38.465.394 1.371.827 2.153 1.03.558.145 1.414.266 1.414.196zm1.203-.102c.34-.074 1.02-.32 1.156-.422.172-.125-.035-.945-1.39-5.527-.23-.773-.457-1.55-.676-2.328 0-.016.078-.02.176-.004.207.031.359-.031.359-.156 0-.133-.09-.18-.402-.22-.157-.019-.282-.042-.282-.054 0-.097-3.43-11.27-3.504-11.414-.242-.469-.394-.36-.394.277 0 .63.262 2.11 1.098 6.258 1.187 5.836 2.777 13.086 2.972 13.555.067.152.07.156.324.125.141-.016.399-.055.563-.09zm1.96-1.05c.27-.274.27-.274.188-.403a.416.416 0 0 0-.12-.14c-.02-.008-.157.109-.294.265-.23.258-.25.3-.226.457.035.215.082.191.453-.18zm.68-.97c.133-.269.301-.765.372-1.12.027-.125.011-.18-.063-.266-.265-.277-.734-1.649-1.347-3.914a34.45 34.45 0 0 1-.223-.856c0-.015.05-.027.113-.027.234 0 .969-.156 1.035-.223.094-.093.09-.132-.008-.234a.203.203 0 0 0-.183-.05c-.219.058-1.012.179-1.035.16-.032-.032-.496-1.934-.84-3.477-.945-4.18-1.785-8.559-2.152-11.164a7.758 7.758 0 0 1-.086-1.676l.011-.328-.254-.235c-.539-.488-1.984-1.3-2.445-1.375l-.219-.03.168.198c.117.149.29.266.598.418.535.266 1.672 1.004 1.773 1.157.239.363-.37 1.007-1.386 1.484-.325.152-.352.203-.235.43.043.074.188.558.32 1.082 2.579 9.816 4.5 16.789 5.286 19.18.215.663.531 1.277.613 1.195.023-.02.106-.168.188-.328zm-46.128-1.359l.14-.093-1.914-5.961a656.616 656.616 0 0 0-1.98-6.118c-.047-.101-.098-.156-.168-.156-.078 0-.098.027-.098.172 0 .121 2.504 10.95 3.004 12.988.02.09.082.047.445-.316.235-.227.489-.457.57-.516zm1.109-.476l.195-.028-.027-.343c-.016-.188-.164-3.168-.328-6.621l-.305-6.282-.125-.136c-.508-.54-2.043-.707-2.847-.313-.133.07-.18.117-.165.176.016.047.754 3.129 1.649 6.855 1.266 5.293 1.637 6.77 1.687 6.746.036-.011.16-.035.266-.054zm46.715-4.934c.027-.023.305.14.621.371.312.223.562.399.562.387 0-.008-.09-.313-.21-.668l-.211-.648.558-.403.559-.398-.703-.016-.703-.012-.208-.656c-.117-.355-.214-.64-.23-.629-.082.215-.16.426-.23.645l-.211.62-.703.024-.696.024.563.398.57.403-.184.535c-.304.898-.328.863.274.43.289-.208.55-.391.582-.407zm-7.617-.125c.113-.125.054-.234-.157-.3-.25-.098-.496-.2-.738-.317-.59-.277-.746-.3-.773-.129-.016.133.156.25.843.559.422.187.563.242.715.27.016.003.063-.036.11-.083zm-46.27-6.394c2.688-2.141 2.762-2.196 3.285-2.446.711-.336 1.305-.441 2.028-.36.543.063.949.204 1.37.477.684.442 1.348 1.157 1.845 1.997l.218.37.059-.206c.082-.266.066-.329-.211-.735-.777-1.148-1.738-1.91-2.774-2.195-.527-.145-1.3-.145-1.847 0-.504.133-1.07.41-1.57.758-.32.222-2.747 2.14-4.637 3.66l-.313.25.164.07c.09.04.188.063.223.055.031-.012 1.008-.774 2.16-1.695zM13.457 25c.074-.117-.039-.23-.637-.625-.43-.285-.515-.324-.601-.281-.196.105-.094.242.469.629.535.379.671.43.769.277zm-1.781-1.063c.02-.148-.035-.183-.645-.378-.351-.114-.488-.079-.457.125.008.07.11.128.426.25.508.187.656.187.676.003zm6.133-1.382c.046-.242-.016-1.285-.106-1.72-.203-.972-.832-1.96-1.527-2.39-.696-.433-1.738-.597-2.906-.457l-.625.07c-.446.04-.891.415-1.196 1.02-.515 1.012-.344 2.223.403 2.824.23.188.636.403.847.442.13.023.16.004.32-.2.067-.081.13-.167.176-.265 0-.02-.058-.07-.129-.121-.129-.078-.132-.078-.257.07l-.121.149-.208-.094c-.507-.223-.902-.79-.968-1.367-.059-.57.21-1.391.597-1.801.168-.172.227-.207.579-.274 2.117-.43 3.644.082 4.304 1.426.34.692.418 1.11.418 2.23 0 .532-.015 1.04-.031 1.133-.035.145-.008.122.18-.168.12-.187.234-.414.25-.507zm-8.122.672c.07-.13.016-.196-.308-.364a5.978 5.978 0 0 1-.563-.34c-.164-.117-.332-.207-.363-.207-.09 0-.18.098-.18.192 0 .133 1.067.812 1.282.816.043 0 .105-.043.133-.097zm2.286-.082c.074-.133-.043-.29-.594-.797-.52-.47-.684-.555-.742-.371-.047.136.023.23.445.601.207.188.441.406.52.496.16.172.296.2.37.07zm1.742-.575c.273-.195.508-.355.531-.355.02 0 .274.176.57.39.297.211.547.375.555.368.008-.008-.078-.301-.2-.649l-.214-.637.563-.398.562-.394-1.402-.024-.168-.496a13.248 13.248 0 0 0-.235-.66l-.07-.168-.129.39a2.328 2.328 0 0 1-.336.66l-.207.274h-1.137l.262.188c.856.609.887.636.848.718-.07.16-.406 1.13-.406 1.168 0 .063.03.04.613-.375zm-6.055-.93c.02-.027-.035-.16-.113-.296a5.465 5.465 0 0 1-.3-.7c-.161-.464-.24-.578-.364-.527-.137.051-.133.176.023.645.262.777.45 1.07.633.972a.317.317 0 0 0 .121-.093zm42.14-.75c.524-.081 1.516-.34 1.622-.421.055-.043.058-.098.031-.203l-.047-.153-.254.067a3.156 3.156 0 0 0-.41.136c-.246.118-1.21.27-1.89.297-.743.032-1.356-.035-1.868-.203-.12-.047-.25-.082-.379-.117-.042 0 .168.402.235.441.133.07.656.188 1.043.23.469.052 1.3.02 1.918-.073zm-39.433-.14c.051-.063.043-.223-.043-.855a11.46 11.46 0 0 0-.133-.817c-.043-.062-.199-.039-.261.035-.043.055-.051.164-.032.399.051.508.18 1.18.235 1.25.07.078.164.074.234-.012zm-4.265-1.129c.265-.36.492-.668.511-.687.02-.02.407.082.86.226.453.14.824.258.832.254a15.07 15.07 0 0 0-.5-.7l-.512-.694.086-.125c.047-.07.23-.325.406-.56.176-.241.371-.503.434-.589l.11-.152-.142.043c-.68.222-1.511.484-1.535.484-.02 0-.257-.308-.53-.687l-.505-.68-.027.855-.024.864-.828.277c-.453.145-.793.281-.754.297.282.094.559.183.84.273l.766.25v.867c0 .481.012.864.023.852.008-.008.23-.312.489-.668zm44.996-.043c-.016-.094-.028-.64-.032-1.215v-1.035l-.175-.226c-.102-.122-.188-.215-.203-.204-.012.012-.004.707.019 1.54l.031 1.515.196-.098c.187-.093.195-.109.164-.277zm-35.977-.18c.324-.425.352-.48.281-.535-.172-.129-.277-.07-.558.305l-.274.363.075.188c.043.105.085.183.093.172.008-.008.184-.227.383-.493zm5.813-4.71l2.148-2.84-.152-.758c-.082-.418-.164-.754-.18-.754-.012 0-.43.633-.926 1.406a808.988 808.988 0 0 1-4.328 6.668c-.168.242-.3.469-.3.496 0 .024.054.121.124.211l.13.164.667-.875 2.817-3.718zm38.488 3.597l-.758-.851 1.395-.348-.73-.227c-.4-.125-.942-.297-1.192-.379l-.465-.148-.758-.848c-.453-.511-.758-.82-.766-.773-.007.039.004.312.028.605.023.29.035.532.027.543-.004.012-.508-.136-1.113-.328-.61-.191-1.113-.34-1.121-.332-.008.008.5.34 1.133.742.628.399 1.152.743 1.164.77.007.023.035.316.066.64.023.329.05.606.059.614.007.008.324-.063.703-.156l.691-.168 1.184.75c.652.41 1.191.746 1.199.746.016 0-.324-.383-.746-.852zm-13.047-.281c.184-.027.227-.059.352-.266.261-.414.359-.773.382-1.425l.02-.59-.184-.075c-.136-.058-.187-.062-.218-.02-.028.044-1.668-.448-6.063-1.827-5.785-1.813-6.035-1.887-6.125-1.805-.121.11-.117.176.02.3.226.212 9.761 4.454 11.328 5.044.277.105.5.21.5.246 0 .031-.098.156-.223.277-.184.192-.203.227-.11.203.067-.02.208-.046.321-.062zm-35.867-.055c.023-.047.058-.324.074-.613.016-.23.035-.453.063-.68.015-.101 0-.176-.06-.23-.093-.098-.14-.098-.23-.008-.093.09-.203 1.457-.125 1.55.079.095.223.079.278-.019zm2.277-.304c.098-.04 6.746-10.137 6.746-10.25-.004-.079-.176-.32-.207-.286-.015.02-6.597 10.067-6.898 10.528-.07.101-.067.11.094.074.09-.016.207-.047.265-.066zm35.278-.454c.078-.078.59-.77.71-.96.063-.098.063-.126.004-.192-.125-.152-.254-.062-.64.457-.207.274-.38.54-.38.582-.003.074.11.176.2.18.016 0 .066-.028.105-.067zm5.855-1.09c.02-.046.02-.113 0-.14-.078-.133-1.133-.54-1.332-.516-.102.008-.129.04-.129.149 0 .133.027.148.441.297.239.086.536.199.653.254.234.109.324.097.367-.043zm-3.16-.476c.23-.059.453-.094.562-.074.172.027.336-.055.336-.168 0-.203-.441-.246-1.015-.098-.473.121-.594.227-.438.38.074.077.106.073.555-.04zm-40.051-.012c.055-.074.246-1.23.215-1.32-.031-.074-.145-.113-.235-.082-.039.016-.09.11-.12.2-.07.26-.165 1.097-.133 1.187.035.09.195.097.273.015zm36.285-.46c-.035-.192.117-.696.266-.876.113-.12.207-.168.601-.261.528-.13.938-.348.793-.426-.152-.086-1.101.078-1.433.25-.106.055-.23.183-.328.348-.09.144-.18.257-.2.257-.015 0-3.93-1.941-8.683-4.312-7.7-3.844-9.281-4.613-9.485-4.613-.082 0-.164.69-.199 1.69l-.035.892.387.16c.21.086 4.324 1.636 9.137 3.441 6.449 2.422 8.753 3.309 8.765 3.367.008.047.086.114.172.149.234.101.273.09.242-.067zm2.555-.075c.105-.176.195-.36.273-.55.117-.282.13-.356.082-.419-.148-.168-.234-.086-.515.485-.153.304-.266.586-.246.625.011.039.078.07.148.07.094 0 .156-.055.258-.21zm-30.856-.672c.059-.031.762-1.031 1.555-2.222l1.902-2.848c.36-.543.454-.715.43-.797-.121-.371-.465-.828-.555-.73-.046.054-1.968 3.41-2.707 4.726-.851 1.531-.972 1.8-.87 1.902.046.047.12.04.245-.03zm-7.613-.855c.09-.278.207-1.18.164-1.254-.055-.102-.215-.113-.273-.027-.074.109-.239 1.23-.2 1.308.067.113.27.09.31-.027zm39.188-.211c.047-.067.113-.34.156-.606.078-.515.05-.625-.137-.625-.12 0-.164.121-.234.618-.028.222-.074.441-.102.492-.039.066-.031.11.028.168.109.105.203.09.293-.047zm-1.93-.14c-.012-.009-1.195-.598-2.629-1.313-7.066-3.532-11.066-5.524-13.289-6.633a97.044 97.044 0 0 0-2.477-1.223c-.02 0-.027.086-.02.196l.017.191 2.511 1.254 5.117 2.555c1.434.714 3.762 1.878 5.168 2.578 1.407.703 3.07 1.53 3.696 1.847l1.129.57h.398c.219 0 .387-.007.379-.019zm-24.52-1.063a3.596 3.596 0 0 0-.086-.676 14.34 14.34 0 0 1-.37-2.234c-.04-.438-.102-.903-.145-1.036-.242-.789-.805-1.234-1.746-1.375-.32-.054-1.766-.039-1.82.02-.012.012.019.086.066.172l.086.152.68-.02c.753-.027 1.152.02 1.476.16.32.141.633.462.82.845.164.32.176.382.22 1.035.054.886.339 2.355.644 3.343l.101.336.035-.214c.02-.122.04-.348.04-.504zm-13.058-.328c.258-.188.492-.356.52-.375.034-.028.25.097.6.347.302.215.556.383.563.371.012-.007-.07-.297-.183-.636l-.2-.618.122-.101c.066-.055.32-.246.558-.418l.434-.313-1.402-.046-.223-.649-.219-.648-.223.66-.222.656-.7.016-.703.011.567.407c.308.218.566.406.566.41 0 .008-.066.203-.148.437-.246.723-.293.895-.227.856.032-.016.27-.184.52-.367zm39.246-.313l.422-.3.543.39c.3.215.55.387.566.371.012-.012-.074-.3-.191-.648l-.211-.625.562-.403.57-.406-1.406-.047-.21-.621a8.91 8.91 0 0 0-.231-.64c-.012-.012-.117.273-.23.628l-.208.653-.703.015-.703.012.559.398.562.399-.113.375-.215.652a2.373 2.373 0 0 0-.101.309c0 .012.07-.031.156-.098.09-.062.351-.25.586-.414zm-22.922.254c.684-.2 1.297-1.23 1.492-2.512.098-.62.098-.61-.097-.699l-.165-.082-.027.156c-.02.14-.035.282-.05.422-.09.836-.4 1.602-.825 2.055a2.07 2.07 0 0 1-1.043.617c-.207.059-.285.102-.242.129.082.055.64.008.957-.086zm20.52-.602c.015-.625-.012-.8-.145-.84-.207-.062-.238.04-.21.665.019.324.038.617.05.648.012.04.074.059.152.05l.137-.015.012-.508zm-.395-1.546c.09-.086.074-.282-.047-.57-.203-.473-.273-.575-.406-.575-.191 0-.191.11-.004.547.098.219.176.43.176.473 0 .078.094.183.172.183a.18.18 0 0 0 .109-.058zM44.5 7.437l.012-.925.781-.535.773-.528-.554-.031c-.266-.012-.528-.027-.79-.035l-.23-.008-.012-.91-.015-.914-.488.89-.489.899-.789-.02c-.433-.011-.793-.015-.793-.004 0 .008.207.266.465.567.254.304.461.574.461.601 0 .036-.207.438-.46.903-.259.465-.458.851-.45.86.008.01.355-.212.766-.49.41-.28.769-.5.796-.487.036.015.258.261.496.554.239.293.45.531.473.531.02 0 .04-.41.047-.918zm1.781.481a.244.244 0 0 0 .063-.137c0-.113-.336-.441-.606-.597-.277-.16-.437-.149-.46.03-.016.114.019.145.218.25.129.063.32.204.422.313.191.207.266.235.363.141zm-17.34-2.715c0-.144.305-.64.47-.766.128-.097.163-.156.163-.285 0-.21-.07-.215-.328-.03-.242.175-.43.41-.547.679-.133.293-.125.367.035.422.184.07.207.07.207-.02zM32.45 3.84c.293-.215.551-.387.574-.387.02 0 .282.172.57.379.298.215.54.371.552.352.007-.02-.079-.293-.184-.61a5.09 5.09 0 0 1-.195-.629c0-.027.242-.226.539-.433l.535-.38-.684-.027-.691-.023-.223-.676-.222-.672-.223.672-.227.676-1.363.05.508.36.543.387c.027.012-.051.32-.168.687-.117.36-.203.657-.195.657.011 0 .257-.172.554-.383zm-4.531-.2c.145-.132.379-.316.523-.406.262-.175.317-.296.184-.406-.063-.047-.105-.05-.207-.004-.273.121-.988.739-.988.852 0 .062.129.21.187.21.016 0 .153-.109.301-.241zm2.855-.831c.094-.036.082-.196-.015-.278-.055-.043-.235-.062-.625-.062s-.567.02-.625.062c-.102.086-.106.23-.012.281.074.04 1.168.036 1.277-.003zm0 0"/></svg>