<svg xmlns="http://www.w3.org/2000/svg" width="64pt" height="64pt" viewBox="0 0 64 64"><path d="M31.992 0C14.578 0 .422 13.98.141 31.332c.047-.2.093-.375.132-.586.297-1.172.766-2.137.875-3.441.082-.133.844 1.84.973 2.726.059.344.164.778.23 1.266.024-.281.02-.54.063-.875.055-.047.977 2.691 1.3 4.223.114-.454.356-1.141.716-1.399-.063 1.254.027 2.688.258 3.54.28.944.734 1.726.94 2.792.298.988.095 4.317-.519 3.766-.265-.387-.078-.782-.226-1.43-.317-1.047-.645-1.598-.942-2.012-.226 1.051-.605 2.914-.355 4.578-.484-.89-1.152-1.8-1.594-2.89-.234-.676-.406-1.125-.422-2.11-.117-1.937.676-3.597.649-5.488v-.097c-.024.101-.074.183-.192.132-.37-.199-.12-.625-.261-1.43-.336-.238-.332.493-.489.294-.023.406-.523.8-.257 1.363.039.215.46.93.355 1.07-.207.184-.602.114-.906-.16a.826.826 0 0 1-.196-.328c1.508 16.191 15.137 28.867 31.72 28.867h.097c-.074-.09-.121-.32-.031-.781.18-.625.453-1.277.453-2.047.062-.957-.617-1.629-.715-2.922-.406.918-.496 4.082-.809 4.969-.437-1.399-.043-2.652-.941-4.219-.328-.308-.363-1.5-.457-1.3-.7 1.878-.215 3.058-.293 3.57-.39-.453-.867-1.391-1.2-2.563-.19.367-.265 1.293-.163 1.98.109.84.812 2.141.812 2.141s.352.657.067.782c-.774-.665-1.368-1.016-2.047-1.883-.286-.426-.801-1.453-.875-1.688-.407 1.176.234 2.313.257 2.465-.511-.121-1-.469-1.296-1.266-.317-.796-.313-1.742-.36-2.757 0-.614.531-3.258 1.301-3.477-.07.738-.148 1.813.258 2.438.187-.918.172-1.985.617-2.762.227-.567 1.059-1.469 1.46-3.54.298-1.495.243-3.202.263-4.738.293.625.226 1.637.55 2.563.293.71 1.118 2.215 1.07 3.8.587.204.524-1.648.684-2.663.266.41.508 1.144.551 1.883.16.953-.18 2.058.067 2.957.304-1.028.492-2.247 1.234-2.176-.164.699-.09 1.484 0 2.176.05.605.293.914.55 1.039.055-.871.231-1.82.489-2.633.352-1.031 1.016-1.746 1.328-2.758.27-1.23.184-2.508.098-3.766-.149-1.004-.364-4.043-.13-4.058.208.21.188.883.552 1.816 1.07 2.82 2.046 3.227 2.921 5.844.247-.34.446-1.086.458-2.176.05-.601-.165-1.43-.133-2.27.156-.124 1.28 3.208 1.918 4.317.199.465.77 1.77.875 2.242.406-.465.507-1.328.91-1.656.047 1.234.582 2.273.715 3.441.191.793.187 1.711.129 2.563-.098.37-.168.742-.356 1.074-.16.473-.414.645-.684.844-.25.035-.476.21-.714.195a.528.528 0 0 1-.16-.39c.199-.293.351-.727.453-1.168.109-.583.164-1.5-.16-1.497-.336.2-.485 1.582-.848 1.461-.254 0-.278-1.87-.649-1.882-.015.578-.093 2.46-.293 3.539-.187.664-.472 1.12-.808 1.59-.125.183-.363.44-.328-.16.05-.606.23-1.372 0-1.883-.266.91-.739 1.855-1.426 2.597-.277.375-.41.145-.293-.293.187-.96.285-2.078.129-3.117-.153-.738-.656-1.36-.91-1.816-.23.859-.614 1.629-.875 2.5-.45 1.152-.45 2.14-.164 3.148.14.383.175.516.23.875-.023.234-.062.262-.164.262-.684.011-1.035-1.114-1.656-1.332-.145.379-.227.793-.356 1.168-.226.625-.48 1.125-.843 1.398 17.425-.195 31.492-14.383 31.492-31.851C63.844 14.258 49.586 0 31.992 0zm.36 63.703h-.262c.074.086.176.04.262 0zM.273 34.836a31.72 31.72 0 0 1-.132-2.984c0-.18-.004-.348 0-.52-.09.441-.172.887-.13 1.395.063.597.063 1.554.262 2.109zm2.079-3.54c-.07.852-.094 1.602-.133 2.567a4.73 4.73 0 0 1 .097-.355c.164-.863.114-1.594.036-2.211zM31.93 1.724c.086-.063.164.027.258.16.218 1.531.617 3.05.878 4.61.09.35-.023.792-.035 1.171-.254 1.121-1.234 1.227-1.46 2.402-.25.457-.153 1.301-.551 1.657-.098-.137-.262-.286-.325-.457-.097 0-.172.257-.195.226a9.173 9.173 0 0 0-.066 1.852c-.059.207-.204.164-.293.097-.137-.64-.688-.77-.746-1.527a11.47 11.47 0 0 1-.16-1.039c-.016-1.094.195-2.277.355-3.375.133-.953.441-1.91.617-2.793.422.527.508 1.578 1.008 1.852.254-.625.37-1.364.55-2.11.106-.847.16-1.719.067-2.597.031-.051.066-.11.098-.13zm-4.938.355c.13-.223.18 2.387.36 3.895.078.609-.668 5.304-.422 5.976.133.531.058 1.281-.098 1.848-.07.066-.277.355-.36.328-.316.113-.148-1.25-.617-1.332-.078.5-.464 1.742-.257 2.5.074.227.261.398.293.68.015.39-.059 1-.262 1.172-.313-.399-.684-.497-1.04-.942-.257-.293-.401-.687-.484-1.137-.265 1.993-1.156 6.946-1.496 7.27-.078-.219-.058-.746-.03-1.395 0 .356-.095.688-.196 1.137-.29.656-.594 1.305-.91 1.95-.512-.278-.27-.91-.453-1.786-.227-.644-.274-.957-.36-.75-.082.82-.683 1.645-.289 2.567-.055.093-.18.148-.262.066-.43-.152-.558-.398-.746-1.234-.117-.641-.086-1.317-.031-1.95.207-1 .547-1.62 1.137-3.183.265-.89.664-2.13.71-2.79 0 0 .384 2.45.52 3.083.156.867.399.898.586 1.398.184.61.285 1.024.293 1.395.113-2.344.547-6.582-.746-8.086-.465-.684-.266-1.742.195-2.367.79-1.157.5-1.121.907-2.438.355.719.492 1.73.586 3.215.097.613.386 1.05.585 1.398l.032-.261c.363-2.192 2.433-7.586 2.855-10.227zm-2.887 10.488c-.082.649-.168 1.633 0 2.5.028-.199.082-.52.094-.652.094-.527.145-1.332-.062-1.816-.008-.012-.024-.02-.032-.032zm-5.488-4.808s.024-.113.258 1.074c.238 1.184.465 1.395.23 1.754l-.585 1.426c.117.593-.489-.453-.489-.453-.472-.95-.129-.614.227-1.914.36-1.305.36-1.887.36-1.887zm-.097 4.254c-.118-.59.343-1.075.585-1.426-.48.305-.703.836-.585 1.426zM48.94 8.215c.04-.016.063.015.032.16-.118.594.351 1.074.586 1.43.238.355.007.601-.227 1.785-.238 1.187-.262 1.074-.262 1.074s.035-.613-.324-1.918c-.355-1.3-.734-.934-.258-1.883 0 0 .336-.601.453-.648zm1.688.16c.46.922.805.938.226 1.918l-.355-.52zm3.215 1.3c.058.012.133.075.195.16.219 1.532.582 3.087.844 4.645.094.348-.02 4.56-.031 4.934-.258 1.125-1.235 1.23-1.461 2.402-.254.461-.157 1.305-.555 1.657-.098-.13-.227-.282-.29-.453-.1 0-.202.253-.23.226a9.466 9.466 0 0 0-.062 1.852c-.059.207-.203.132-.293.066-.137-.644-.691-.742-.746-1.496-.07-.32-.086-.691-.13-1.07-.019-1.098.192-2.282.356-3.375.133-.957.41-5.649.586-6.528.422.528.504 1.547 1.004 1.817.258-.625.375-1.328.555-2.078.105-.852.187-1.746.094-2.63.066-.097.105-.14.164-.128zM32.87 11.07c.238 1.117.7 2.227.68 4.254.617.543.332-2.726.941-3.312.008.797.176 1.652.196 1.851.128.688.515 1.453.878 2.207.176-.8.598-1.183.778-2.011.129-.93-.032-1.711.355-2.567-.047 1.551.778 2.906.781 4.516.004.613-.023 1.289-.164 1.914-.058.348-.468 1.105-.906 1.168-.2 1.488-1.05 4.168-1.332 3.637-.176-.329-.422-1.04-.422-1.04-.043-.394-.531-.925-.617-.648-.148.7-.238 1.77-.324 2.695-.082.575-.246 2.094-.617 1.235-.192-.5-.297-1.172-.391-1.723-.113-.82-.297-1.285-.258-2.11.051-.675.13-1.484.387-2.34.617-1.839-.55-2.538-.29-5.452-.042-.5.212-2.004.325-2.274zm3.54 8.02c.019-.156.058-.297.062-.422-.059-.785-.477-1.691-.907-2.598-.02.078-.054.145-.066.227-.117.969.023 1.437.227 2.176.195.5.453.656.683.617zm-24.255-7.63c.055.013.102.075.16.165.22 1.531.614 3.082.88 4.64.07.274.14 1.524.16 2.34.265-.878.574-2.039.617-2.664 0 0 .414 2.454.554 3.086.153.864.395.93.582 1.426.38 1.25.317 1.676.098 2.633a48.99 48.99 0 0 1-.91 1.945c-.516-.273-.27-.91-.453-1.785-.227-.64-.274-.953-.356-.746-.086.824-.718 1.645-.328 2.566-.05.094-.144.149-.226.063-.43-.149-.559-.43-.746-1.266-.118-.644-.086-1.281-.032-1.914.11-.523.25-.949.453-1.46-.304.316-.601.648-.714 1.234-.25.46-.153 1.3-.551 1.652-.098-.129-.227-.281-.293-.453-.098 0-.203.258-.227.226A9.467 9.467 0 0 0 10.758 25c-.055.207-.207.129-.29.066-.14-.644-.69-.773-.75-1.527-.066-.32-.113-.66-.16-1.039-.015-1.098.227-2.281.391-3.375.133-.957.215-3.766.387-4.645.422.528.508 1.579 1.008 1.852.254-.625.375-1.363.55-2.11.106-.85.16-1.75.067-2.632.066-.102.137-.14.195-.13zm.453 9.028c.305-.316.618-.61.746-1.172.004-.238.004-.472 0-.71-.015.05-.046.113-.062.16-.281.738-.5 1.257-.684 1.722zm31.723-8.672s.023-.113.258 1.075c.238 1.183.465 1.43.226 1.785-.238.355-.699.836-.582 1.43.118.59-.488-.489-.488-.489-.473-.949-.129-.582.227-1.883.355-1.304.359-1.918.359-1.918zm-15.941.293c.074.344.039 3.614.289 5.036.05.16.136.175.23 0 .27-.84.754-1.176 1.137-2.211.129-.66.144-.055.129.195-.055.738-.2 1.508-.13 2.273.036.91.153 1.84.259 2.727.16 1.469-.106 3.437-.844 4.125-.191-.016-.309-.09-.293-.52.07-.738-.156-1.547-.293-2.273-.023-.106-.04-.293-.063-.356-.019.032-.07.125-.097.387-.106.656.082 1.625-.227 2.305-.168-.242-.363-.496-.554-.746.093 1.086.546 2.02.359 3.215-.145.59-.352.914-.684 1.203-.27.21-.597.261-.714-.164-.098-.485-.055-.871 0-1.492.14-1.04.28-1.672.488-2.696.058-.172.094-.398.129-.648a3.986 3.986 0 0 1-.453-.88c-.149-.273-.192-.605-.262-.972-.152-.601-.074-1.258.098-1.98.53-2.375 1.027-3.246 1.46-6.492.004-.028.032-.024.036-.036zm-.88 10.36c.137.203.278.398.423.582a4.368 4.368 0 0 1 0-.715c-.055-.34-.086-.852-.227-1.266-.047-.039-.094.723-.195 1.399zm-10.55-8.606c.035-.015.027.012 0 .164-.121.59.379 1.07.617 1.426.235.36-.023.602-.262 1.79-.238 1.183-.226 1.07-.226 1.07s-.004-.614-.356-1.918c-.359-1.305-.703-.934-.226-1.883 0 0 .336-.598.453-.649zm1.687.164c.461.918.805.938.227 1.914l-.355-.52zm28.344.29c.266.144.297 1.378.488 2.5.286.863.817 1.453 1.04 2.37.261.88.652 4.07.453 5.747-.196.855-.418 2.152-1.235 2.21-.113-.019-.222-.12-.324-.292-.559 2.816-.414 5.656.746 12.011.078 1.489-.77 3.227-1.297 3.832-.144-1.09-.48-3.156-1.851-4.125-.219-.14-.266-.53-.293-.906-.04.676-.04 1.395 0 1.883-.254.176-.36-1.125-.453-1.625-.145-.711-.727-3.856-1.137-2.145-.145.844-.332 1.618-.16 2.371-.086.153-.27.13-.39.13-.392-.083-.138-.235-.458-.583-.23-.312-.383-.504-.516-1.265-.054-.645.004-1.344.032-2.016.18-2.066 1.093-3.715 1.297-5.777.18-.524.343 2.066.652 2.953.742 1.96.902-2.078 1.328-3.117.094.23.2.46.262.715a123.695 123.695 0 0 0-.324-6.915c.203.008.875 1.45 1.234 4.22.23-.216.512-.61.844-1.005-.383-1.62-.547-4.027-.36-5.457.164-1.945.426-3.504.422-5.715zm-.062 11.171c.136.578.312 1.075.484 1.364.176-.844.39-1.676.652-2.5-.39.277-.789.714-1.136 1.136zM5.598 14.48c.238 1.114.703 2.223.68 4.254.617.543.335-2.726.94-3.312.005.797.18 1.652.196 1.851.293 1.512.402 1.832.52 3.278-.043 1.312-1.086 4.648-1.395 4.058-.176-.328-.422-1.039-.422-1.039-.043-.398-.5-.922-.586-.648-.144.7-.238 1.77-.324 2.695-.082.574-.242 2.094-.617 1.235-.192-.504-.328-1.168-.422-1.723-.113-.824-.262-1.254-.227-2.078.051-.668.133-1.516.391-2.367.617-1.844.68-1.016.941-3.93-.043-.5.211-2.008.325-2.274zm36.199 1.59c.164 1.047.266 2.356.555 3.282.261.875.648 1.039.746 1.914.12.933.148 1.96.097 2.922-.054.32-.02.667-.226.843-.407-.367-.203-2.23-.715-2.886-.309.746-.203 1.472-.195 2.011-.29 1.067-.524-1.156-.715.356-.117 1.258-.02 4.015-.489 4.32-.23-.066-.27-.414-.289-.91-.129-1.84-.332-.563-.586-.258-.328.324-.539-.816-.55-1.367-.04-1.465.324-4.348.324-4.348.191-.863.16-1.496.195-2.078.09-.07.551 1.313.582 1.719.086 1.125.23.41.324-.063.243-1.445.633-2.504.653-4.093-.04-.801.219-1.457.289-1.364zm16.234.133c.164 1.047.262 2.383.555 3.309.262.879.648 1.035.746 1.918.121.933.117 1.922.063 2.886-.051.325.015.7-.196.88-.402-.372-.203-2.235-.71-2.891-.305.746-.204 1.472-.196 2.011-.285 1.07-.523-1.187-.715.329-.117 1.257-.02 4.043-.488 4.347-.23-.062-.27-.449-.293-.941-.125-1.836-.328-.563-.582-.258-.328.324-.54-.785-.555-1.332-.035-1.465.328-4.383.328-4.383.188-.86.13-1.492.16-2.078.094-.066.582 1.348.618 1.754.086 1.125.226.375.324-.098.238-1.445.633-2.472.648-4.058-.035-.805.215-1.489.293-1.395zm-33.797 5.094c.055-.04.657 2.793.813 4.351.16-.433.488-1.109.875-1.332-.211 1.59-.02 1.98-.129 4.418-.461 1.168-.465 2.211-.617 3.442.05.82 1.8-3.5 1.851-2.567.059 1.192-.851 4.825-.812 5.262.183 1.02-.395 4.316-.942 3.7-.222-.415.012-.801-.066-1.462-.2-1.078-.465-1.629-.715-2.078-.34 1.02-1.293 5.66-1.234 7.34-.38-.934-.801-1.996-.875-3.703-.086-1.59-.563-4.324-.52-6.332.012-.59.008-1.04.032-1.266.035-.629.882.61 1.039.035.16-.574-.657-3.882-.485-4.449.414.809 1.461 2.664 1.621 1.914.164-.75-.324-2.593-.293-3.699-.007-1.355.125-2.2.457-3.574zm12.856.195c.058.012.101.074.164.164.219 1.535.613 3.086.875 4.64.09.352-.02.794-.031 1.173-.258 1.12-.75 5.777-.977 6.945 0-.016-.09.945-1.523 3.086.39-1.762-.684-4.883-1.04-5.875-.433-.973-.066-3.258.098-4.352.13-.953.442-1.878.617-2.761.426.531.47 1.547.973 1.82.258-.621.375-1.332.55-2.078.106-.848.192-1.75.099-2.629.066-.098.14-.145.195-.133zm24.254.684c.531.07.816.91 1.039 1.851.566 2.977-1.074 2.407-.617 5.16.593 1.704-.086 3.891.293 6.301-.899-.5-.996-3.261-1.301-2.824-.242.746-.02 2.094.195 3.18.363 1.847-.344 3.812-.387 3.605-.183-.879-.078-1.863-.328-2.695-.523-2.469-2.414-4.34-2.14-6.754.054-.758.265-1.648.617-2.242.547-.903 1.46-.574 2.012-1.59.16-.375.57-1.238.648-1.719.05-.52.203-1.32-.031-2.273zm-30.489.648s.38 2.453.52 3.086c.156.863.398.93.586 1.426.375 1.254.312 1.684.098 2.633a55.212 55.212 0 0 1-.91 1.945c-.516-.273-.27-.906-.454-1.785-.226-.637-.273-.953-.36-.746-.089.824-.683 1.648-.288 2.566-.055.094-.18.149-.262.063-.43-.149-.558-.426-.746-1.266-.113-.64-.086-1.281-.031-1.914.207-1 .547-1.621 1.133-3.184.27-.886.668-2.164.714-2.824zm-22.5.88c.06.01.137.07.196.16.219 1.53.582 3.085.844 4.644.093.347-.02.758-.032 1.137-.254 1.125-1.234.16-1.46 1.328-.255.465-.157 1.304-.551 1.656-.098-.133-.559-1.55-.618-1.719-.101 0-.007 2.703.032 3.344-.063.207-.207.133-.293.062.136.637-.59 1.582-.746-.421-.07-.32-.086-.657-.13-1.04-.015-1.093.196-2.277.356-3.375.137-.953.406-1.878.586-2.757.422.53.508 1.543 1.008 1.816.254-.621.367-1.332.55-2.078.102-.848.188-1.75.098-2.629.059-.098.102-.145.16-.129zm45.489.093a.401.401 0 0 1 .195.164c.219 1.535.582 3.086.844 4.644.094.348-.02.758-.031 1.137-.258 1.125-1.235 1.266-1.461 2.434-.254.46-.157 1.3-.555 1.656-.098-.129-.23-.285-.29-.457-.1 0-.206.258-.23.23a9.123 9.123 0 0 0-.062 1.848c-.063.211-.207.137-.293.067-.137-.641-.691-.766-.746-1.528-.074-.32-.086-.656-.13-1.039v-.098c-.343.473-.862.79-1.233-.16-.204-.738-.348-1.242-.23-2.207.136-.984.648-1.332.847-2.242.125-.926-.035-1.71.355-2.562-.039 1.261.48 2.398.684 3.632.144-.859.36-1.699.52-2.5.421.536.503 1.547 1.003 1.82.258-.62.371-1.327.555-2.077.098-.848.187-1.75.094-2.63.066-.097.105-.144.164-.132zm-2.336 5.52c-.02.09-.055.171-.067.261-.16 1.067-.363 2.211-.355 3.277.176-.246.324-.53.355-.71.137-.622.133-1.333.13-1.95 0-.293-.02-.586-.063-.879zM16.02 23.894c.53.066.816.878 1.039 1.82.566 2.976-1.075 2.406-.618 5.16.594 1.703.563 3.371.942 5.781-.899-.5-1.785-2.695-2.567-1.625.13 2.989-.601 4.922-.648 4.711-.18-.879-.078-1.863-.324-2.695-.473-2.227-1.274-6.332.066-8.41.145-.227.445 2.445.649 2.273.062-.164.007-4.918.324-5.226.562 1.191 1.12.761 1.168.484.05-.52.203-1.316-.031-2.273zm2.921 1.882c.262.145.329 1.38.52 2.5.285.864.785 1.489 1.008 2.407.261.875.488 1.535.289 3.21-.192.856-.418 2.184-1.23 2.243-.805-.125-1.305-2.387-1.008-4.645.16-1.945.421-3.504.421-5.715zm26.235 3.446c.039 2.453-.012 4.96-.227 6.718.211-.52.34-1.043.453-1.687.102-.613.082-1.695.067-2.438-.067-.878-.11-1.796-.293-2.593zm-.227 6.718c-.066.172-.12.594-.164 1.07.07-.308.113-.663.164-1.07zm-.164 1.07c-.027.114-.07.231-.097.325 0 .066.027.133.03.195.016-.191.052-.343.067-.52zm11.137-7.269c.207.008.652 1.469.39 4.024.473-.442.512-2 1.102-1.786-.187 1.997.535 3.743.586 5.649.078 1.492-.773 3.23-1.3 3.832-.145-1.086-.477-3.156-1.848-4.125-.286-.184-.336-.777-.325-1.23-.062-1.43 1.203-4.481 1.395-6.364zm-16.625 1.133c.062-.031.371 2.82.36 4.383.206-.41.6-1.024 1.003-1.2-.332 1.215-.558 2.626-.52 3.508.067.98.356 1.832.329 2.922.07 1.035-.856 4.242-1.332 3.57-.18-.433.066-.796.062-1.46-.078-1.094-.285-1.703-.484-2.176-.453.973-1.215 2.707-1.332 4.383-.281-.97-.715-1.961-.91-3.117-.086-.711-.168-1.208.035-2.176.3-1.914 1.43-3.344 1.816-5.196.356-1.328.496-2.113.973-3.441zm-11.426 1.27c.184.792.39 2.351.649 3.21.164-.359.289-.828.421-1.394.07-.254.356-.633.489-.746.12 1.496.468 3.023.324 4.543-.082.855-.246 1.82-.715 2.273-.098-.008-.148-.191-.164-.582-.07-.71-.527-1.285-.715-1.234-.18.18-.074.816-.062 1.137-.012 0-.012.546-.098.875-.164.343-.39.445-.586.261-.637-.597-.469-1.843-.484-2.468.015-2.329.48-4.43.941-5.875zm4.805.16c.015 0 .023.023.031.066.035.547.293 1.598.39 2.11.294 1.285.958 1.914 1.298 3.085.18.66.253 1.278.195 1.946-.074.66-.125.855-.422.879-.254.02-.3-1.102-.68-.555-.957 1.273-.867 3.836-1.46 5.781-.09.078-.196.145-.294.031-.21-.64-.02-1.773-.554-1.98-.106.05-.172.23-.227.39-.117.797-.3 1.528-.355 2.337-.051.164-.13.167-.227.132-.793-.43-.867-1.777-.879-2.402-.008-1.98 1.094-3.582 1.301-5.066.121-1.227.242-3.364.484-3.508.23 1.058.27 1.855.36 3.281.144-.113.363-.645.453-1.039.262-1.191.164-1.777.226-3.148-.043-1.23.254-2.32.36-2.34zm-24.547.78c.437.938.613 1.231.941 1.884V35c.075.148.121.21.227.422.09.578.426 1.066.457 1.723.004.003-.004.027 0 .03 0 .055.004.106 0 .16.039 1.177-.387 2.161-.555 3.153-.07.14-.187.387-.324.453-.11.008-.184-.14-.195-.293-.102-.574-.043-1.27-.192-1.816.047-.113-.093-.098-.133-.035-.226.59-.453 1.246-.52 1.98-.077.067-.147.262-.257.164-.152-.234-.27-.46-.457-.617-.156-.347-.23-.91-.324-1.363-.106-.461.101-.91.066-1.363.176-1.106 1.207-4.586 1.266-4.512zm41.656 1.56c.242.484 2.348 2.632 2.434 4.511.136.559.004 1.32.261 1.657.387-.422.204-1.793.618-2.372.27 1.332.324 4.067.39 5.649.067 1.933-.355 3.133-1.105 3.312-1.016-.027-.563-4.773-1.688-5.03-.277.366.012 3.323-.617 2.792-.336-.406-.523-.934-.715-1.496-.191-1.09.578-2.035.746-2.953.317-.867-.324-6.07-.324-6.07zm-32.793 3.148c.082.055-.418 1.824-.484 3.246.02.371.031 1.328.289 1.625.418-1.367 1.2-2.047 1.594-2.437-.106 1.43-.262 2.82-.196 4.285.063 2.031 1.38 4.355 1.657 5.941.164-.91.703-1.387 1.234-1.621-.102 1.145.16 2.309.258 3.504.37-.242.558-1.016.746-1.621.07-.473.129-.852.226-1.363.2 1.863.872 2.418.977 3.863-.031 1.976-1.164 3.613-1.137 5.68-.07.093-1.176-1-1.527-2.465-.356.945-.8 2.433-1.234 3.246-.282.39-.407.39-.422-.39.12-1.141.28-2.376.132-3.602-.183-1.102-.562-1.696-.52-3.02-.632.965-1.151 2.746-1.69 3.7-.137-.216.418-3.762.324-5.098-.063-.582-.09-.98-.258-1.621-.395-1.567-1.133-2.63-1.656-4.094-.18-.63-.176-1.23-.098-1.883.23-2.961 1.156-5.316 1.785-5.875zm2.824.355c.043-.128.239 3.02.653 3.766.785-.355.488-.543.808-1.2.2 1.743 1.836 3.278 1.594 5.13-.164.777.04 1.226-.422 2.304-.281-.113-.566-.902-.652-1.425-.113-.914-.86-2.664-1.102-2.598-.472 1.406-.129 2.414-.293 2.953-.8-.504-.808-.742-1.136-1.723-.594-2.582-.118-3.882.164-4.933.156-.547.398-1.668.386-2.274zm6.559 1.754c.176.051.105.348.195.52.102 1.21.325 2.367.586 3.441.035.785.242 1.614.13 2.403-.071.511-.493 2.367-.587 2.859-.379 1.313-.847 1.883-1.133 3.406-.12.207-.191-1.687-.195-2.14-.219-1.559-.86-.657-1.172-1.918-.11-.528-.082-1.043-.031-1.59.148-1.211.375-2.453.617-3.508.29.352.305 1.246.649 1.691.195-.066.12-.449.261-.617.235-1.351.52-2.926.485-4.383.011-.171.133-.105.195-.164zm-13.797.196c.348-.13.14 2.328.324 3.215.332 1.097.93 3.054.746 3.667-.32 1.594-1.285 1.48-1.656 2.665-.36 1.039-.515 1.43-.582 3.246-.469-.114-.473-2.032-1.008-2.078-.586.82-.203 2.863-.39 3.734-.426-.332-.711-1.2-1.04-1.852-.242-.691-.577-1.238-.292-2.86.343-1.565.96-4.339 1.3-4.835.188.445.11.957.196 1.559.09.546.336 1.164.55 1.558.368-2.722 1.301-4.476 1.852-8.02zm48.93.617c.156 2.055-1.414 4.969-2.145 6.785-1.777 2.504-2.902 3.344-3.277 4.61-.156.058-.313-2.102-.652-2.11-.551 1.645-.75 2.438-.618 3.637-.144.218-.37.183-.55.226-1.758-.547-1.512-1.82-1.106-3.508.168-.875 1.95-2.488 1.754-5.062.027-1.426-.355-2.676-.453-4.125.078-.027 1.598 2.3 1.95 4.156.167.903.1 2.043.128 2.824-.05-.054.012.282 0 .422.29-.355.559-1.476.777-2.207.114-.308.637-3.547 1.075-4.61.047 1.013.242 1.548.257 2.825 1.211-1.383 2.5-3.031 2.86-3.863zm-17.762.097c.102.711.547 1.133.684 1.852.168.809.164 1.492-.067 2.207-.164.645-.148.652-.355 1.266-.137.465-.297.77-.617.812-.407.11-.395-1.133-.489-1.332-.136-.074-.265.727-.324 1.07-.055.715.598 1.868.031 2.047-.406-.117-.765-.43-1.168-1.332-.257-.718-.351-1.43-.226-2.402.191-1.117.87-1.762.844-3.313.07-.015.699.735 1.07 1.95.434-.5.273-2.344.617-2.825zM7.934 42.5c.105.71.55 1.164.683 1.883.176.812.164 1.496-.066 2.207-.16.644-.145.62-.356 1.234-.136.469-.328.766-.648.813-.406.11-.363-1.133-.457-1.332-.137-.078-.258.758-.324 1.105-.047.715.562 1.867 0 2.043-.407-.117-.735-.43-1.137-1.328-.254-.719-.352-1.434-.227-2.402.192-1.121.871-1.797.844-3.348.07-.02.7.73 1.07 1.95.438-.5.278-2.34.618-2.825zm37.824.973c.078-.028 1.633 2.27 1.98 4.125.176.902.07 2.074.098 2.855-.047-.055.047.281.035.422.29-.36.559-1.477.777-2.207a15.06 15.06 0 0 0 .422-1.426c.063.035.102 2.75.52 3.211.02-1.414.426-2.867.781-3.7.16 2.056 1.29 2.298 1.266 4.024-.04 2.41-1.051 4.18-1.235 4.711-.414.727-.144-1.847-.55-2.047-.786-.543-.793 2.532-1.172 3.801-.153.055-.254-.16-.325-.36.098-.26.008-.507.067-.777-.02-.617-.293-2.007-.453-1.722-.395.777-.551 2.082-.457 2.86-.086.027-.375-.333-.453-.911-.157-.664-.508-1.258-.844-1.266-.555 1.641.383 3.41.52 4.61-.15.215-.376.18-.555.226-1.621-.215-2.16-3.218-1.75-4.902.168-.875 1.98-4.863 1.785-7.434.023-1.425-.36-2.648-.457-4.093zm-12.5.39c.144.414.172.957.23 1.301-.125 1.402.551 2.477.325 3.926-.145.59-.317.883-.653 1.168-.273.215-.594.3-.71-.13-.098-.476-.09-.87-.036-1.491.14-1.04.313-1.672.52-2.696.214-.629.257-2.132.324-2.078zm-18.766 4.61c.293.355.477 3.898.746 5.164.414 1.925-.203 2.965-.258 4.547-.101.324-.097.285-.226.093-.211-.68.23-3.027-.488-3.246-.23.434.027 2.29-.293 2.633-.922-.043-.957-2.96-.875-3.508.007-1.457 1.39-4.195 1.394-5.683zm0 0" fill="#211e1e"/></svg>