<svg xmlns="http://www.w3.org/2000/svg" width="64" height="64"><path d="M30.743 62.973c-7.855-.334-15.137-3.525-20.675-9.06-3.99-3.989-6.802-8.933-8.15-14.332C1.264 36.953 1 34.782 1 32c0-2.782.263-4.953.919-7.58C3.762 17.03 8.398 10.466 14.763 6.23 20.816 2.201 27.986.422 35.171 1.165c10.256 1.061 19.25 7.093 24.165 16.207 3.108 5.762 4.297 12.552 3.343 19.101-1.373 9.43-7.005 17.688-15.307 22.445a31.063 31.063 0 0 1-16.629 4.055zm1.32-2.254c0-1.029-.01-1.206-.072-1.23-.112-.042-1.444-1.38-9.394-9.432-7.722-7.822-12.521-12.635-14.848-14.89L6.4 33.858l-1.58.012-1.58.013L17.616 47.9c7.907 7.708 14.392 14.017 14.411 14.018.02.002.035-.538.035-1.199zm12.323-10.863l13.91-14.03 1.951-1.966-1.268.002-1.267.003-3.157 3.088c-6.941 6.792-7.308 7.16-10.807 10.843-8.899 9.37-10.993 11.55-11.193 11.658l-.163.088v1.19c0 .654.008 1.19.018 1.19.01 0 5.399-5.43 11.976-12.066zm-10.48 6.31l.547-.577.452-2.001c1.539-6.812 4.414-19.533 4.436-19.622l.025-.107-1.612.012-1.612.013-1.85 11.794c-1.016 6.487-1.848 11.847-1.849 11.912 0 .125-.044.168 1.462-1.423zm-1.99 1.247c-.024-.097-1.22-5.41-2.657-11.806a4211.025 4211.025 0 0 0-2.636-11.688c-.017-.045-.296-.059-1.178-.059-.892 0-1.155.014-1.156.06 0 .031 1.043 4.683 2.32 10.335l2.32 10.277 1.5 1.529c.825.84 1.507 1.529 1.515 1.529a.556.556 0 0 0-.029-.177zm7.613-7.143c1.917-2.015 3.541-3.74 3.609-3.834.199-.274 8.19-12.517 8.19-12.548 0-.015-.684-.028-1.521-.028h-1.522l-6.282 10.182c-3.455 5.6-6.29 10.202-6.3 10.228-.011.026.06-.039.16-.144l3.666-3.856zM21 43.035l-5.65-9.151-1.277-.013c-.703-.007-1.278-.002-1.278.01 0 .013 1.866 2.88 4.146 6.37l4.145 6.345 2.767 2.806c1.522 1.544 2.774 2.802 2.782 2.796.007-.006-2.528-4.13-5.635-9.163zm40.431-10.364c.698-.722.814-.862.774-.936-.045-.085-.903-.088-30.356-.088H1.541l-.121.177-.122.176.791.76.791.76H60.611l.821-.85zM5.188 29.496a857.726 857.726 0 0 1 2.18-3.222c.524-.77.953-1.425.953-1.453 0-.057-1.114-2.014-1.197-2.104-.038-.04-.683.97-2.477 3.877-1.335 2.162-2.538 4.11-2.674 4.327l-.247.397h2.238l1.224-1.822zm8.307 1.78c-.009-.022-.831-1.283-1.827-2.8l-1.812-2.761h-.484l-.412.618-.411.617L10 29.133l1.453 2.182 1.028.002c.566 0 1.021-.018 1.013-.04zm3.646-2.748l1.684-2.79-.904-.012c-.684-.01-.917.001-.96.047-.03.033-.739 1.225-1.574 2.65a1195.01 1195.01 0 0 1-1.611 2.742l-.093.153h.887l.888-.001 1.683-2.79zm8.224 2.75c-.008-.023-.83-1.284-1.827-2.802l-1.812-2.761H19.711l.087.132 1.877 2.802 1.789 2.669h.958c.528 0 .952-.018.943-.04zm3.756-2.762l1.706-2.778-.97-.012c-.736-.01-.982.001-1.025.047-.031.033-.74 1.225-1.575 2.65a1380.28 1380.28 0 0 1-1.611 2.743l-.093.154.93-.013.932-.013 1.706-2.778zm7.872 2.736a522.34 522.34 0 0 0-2.904-4.96l-.34-.577h-1.011c-.796 0-1.004.012-.977.059.033.056 2.217 3.371 3.196 4.85l.46.694h.8c.665 0 .797-.011.776-.066zM41 28.54c1.016-1.515 1.848-2.77 1.849-2.79 0-.02-.446-.031-.993-.024l-.995.013-1.113 1.697-1.83 2.79-.718 1.094.976-.013.977-.013 1.847-2.754zm7.864 2.71c-.014-.037-.75-1.298-1.634-2.801l-1.608-2.734h-.915c-.503 0-.914.01-.914.023s.754 1.273 1.676 2.801l1.676 2.779h.873c.738 0 .868-.01.846-.068zm3.853-2.152c.794-1.22 1.433-2.247 1.42-2.28a8.467 8.467 0 0 0-.414-.584l-.391-.522-.3.013-.3.014-1.114 1.696-1.83 2.79-.716 1.093h2.2l1.445-2.22zm9.164 2.204c0-.032-6.318-8.436-6.35-8.445-.018-.006-.259.301-.536.682-.276.381-.567.78-.647.886l-.143.194 1.083 1.454c.595.8 1.756 2.306 2.578 3.347l1.495 1.893 1.26.003c.693 0 1.26-.005 1.26-.014zM8.62 24.42c.025-.062 2.59-.07 22.7-.07h22.674l.614-.836.615-.836-23.836-.012c-13.11-.006-23.845-.002-23.856.01-.026.025.991 1.814 1.032 1.814.017 0 .043-.03.058-.07z"/></svg>