<svg xmlns="http://www.w3.org/2000/svg" width="64pt" height="64pt" viewBox="0 0 64 64"><path d="M30.531 64.387c-4.808-.207-9.527-1.496-13.636-3.73A32.09 32.09 0 0 1 5.344 50.073C1.082 43.605-.707 35.883.254 28.125c1.312-10.566 7.75-19.82 17.172-24.668A31.153 31.153 0 0 1 27.934.219C29.375.043 30.144 0 31.804 0c1.665 0 2.458.043 3.876.219 9.093 1.11 17.297 6.195 22.476 13.941 3.063 4.574 4.856 9.723 5.352 15.356.097 1.144.11 3.988.023 5.066-.375 4.465-1.457 8.406-3.355 12.18-4.219 8.41-11.914 14.582-20.89 16.754-2.868.691-5.907.996-8.755.87zm1.387-2.489c.215-.113.406-.234.414-.265.012-.035.055-.676.094-1.426.078-1.484.683-8.512.75-8.672.02-.058.277-.222.66-.426l.625-.324.031 2.488c.016 1.375.028 3.164.028 3.989v1.496l.761.219.293-.184c.164-.102.313-.207.34-.238.023-.028.066-.438.094-.907.027-.468.183-2.906.347-5.418.165-2.511.29-4.582.274-4.597-.016-.016-1.203.574-2.633 1.304l-2.598 1.333-.003 5.937c0 4.723.011 5.926.062 5.914.031-.008.238-.11.461-.223zm-1.234-.316c-.012-.195-.051-.371-.082-.402-.04-.032-.122-1.43-.278-4.934-.113-2.687-.226-4.898-.242-4.914-.016-.016-3.309-.77-7.32-1.672l-7.285-1.64-.004.199-.051 4.586c-.027 2.41-.055 4.558-.059 4.773l-.004.387.36.031c.195.016.363.024.37.02.009-.008.032-2.043.056-4.524.02-2.48.046-4.52.058-4.535.02-.02 1.031.191 1.578.336.164.047.336.07.383.055.04-.02.336.015.66.074.45.082.582.129.574.183-.003.055.094.094.36.149.476.094 9.629 2.14 9.64 2.156.008.008.118 2.219.239 4.906.12 2.692.23 4.907.25 4.922.035.04.593.184.722.196.098.004.102-.016.078-.352zm-16.04-3.871c-.015-.125-.183-2.512-.367-5.3-.187-2.786-.343-5.13-.351-5.212-.012-.136-.031-.148-.367-.23a2 2 0 0 0-.364-.074c-.008.007.453 7.042.703 10.753l.016.223.266.027c.535.055.496.075.465-.187zm28.07-1.973c.079-.105.099-.215.102-.511l.008-.372.192-.085c.164-.075.23-.16.496-.63.168-.3.363-.613.437-.699.094-.113.137-.226.164-.441.02-.164.043-.379.059-.477l.031-.183h-.176c-.132 0-.172-.02-.172-.082 0-.051.172-2.446.383-5.324.282-3.848.407-5.293.457-5.446.098-.258.41-.582.735-.77l.25-.14v-.281c0-.266.015-.293.187-.465.238-.238.824-.66 1.403-1.016.562-.351 1.507-.843 1.609-.843.059 0 .074-.082.074-.438 0-.523.063-.644.527-.976.336-.243.68-.696.766-1.016.035-.117.05-1.605.05-4.262V27.2l-.491.504c-.64.656-1.16 1.043-1.934 1.426-1.191.586-2.762.988-5.14 1.312-.5.07-.989.16-1.079.204-.12.058-.199.152-.27.304-.097.211-.1.301-.105 1.953-.004 1.961.008 1.903-.41 2.73-.414.817-.808 1.227-1.414 1.454-.383.14-.726.375-1 .68-.492.527-.469.375-.469 2.78 0 1.966.004 2.099.086 2.099.043 0 .43-.102.852-.223.426-.121.937-.242 1.144-.274.688-.097 1.153.11 1.282.57.035.134.05 1.759.05 5.333 0 5.113.028 6.074.168 6.476.043.118.075.36.075.547 0 .364.05.547.207.715.093.094.14.11.437.094.297-.012.34-.024.43-.145zm-22.792-1.023c.012-.195.035-.867.05-1.496.012-.633.04-1.489.055-1.907l.032-.761-.352-.078a2.213 2.213 0 0 0-.363-.07c-.02.023-.117 3.3-.117 3.968v.64l.23.02.332.028c.098.011.11-.02.133-.344zm-1.43-.121c-.094-1.614-.277-4.383-.293-4.426-.02-.055-.656-.227-.699-.188-.023.024.23 4.594.266 4.833l.023.16h.727zm12.094-5.446c-.012-.187-.02-.34-.023-.343-.004-.008-3.676-.746-8.16-1.649-4.485-.906-8.188-1.652-8.231-1.664-.063-.015-.082.035-.11.328-.015.192-.019.356-.007.371.047.047 16.258 3.313 16.402 3.305l.145-.008zm3.867-1.433l2.836-1.457.012-.785c.015-.907.078-.844-.547-.567-.29.13-.352.176-.285.211.058.031-.516.32-2.45 1.235l-2.527 1.187v.297c0 .465.059 1.336.09 1.336.016 0 1.309-.656 2.871-1.457zm-4.098-.153c.141-.082.176-.14.176-.351 0-.133-.031-.2-.11-.25-.058-.043-3.167-.64-7.179-1.395-2.433-.449-4.867-.902-7.3-1.363a2.01 2.01 0 0 0-.372-.047c-.16 0-1.172.496-1.054.52.035.008 2.656.5 5.816 1.09 6.309 1.18 7.055 1.316 8.684 1.629 1.293.246 1.207.234 1.34.164zm-17.02-2.324l-.034-.96 2.543-1.18 2.543-1.184 8.289 1.461c4.554.805 8.324 1.46 8.375 1.46.086 0 1.097-.417 1.164-.48.027-.02-14.953-2.695-17.336-3.09-.18-.03-.277-.074-.277-.113 0-.132-.25-.062-.973.282-.406.191-.797.379-.879.43-.078.046-1.047.507-2.148 1.027l-2.012.941v2.023l.265.083c.157.042.262.105.262.14 0 .059.074.098.211.117.024.008.027-.425.008-.957zm23.915-3.16c-.008-.012-5.57-1.82-12.352-4.016L11.59 33.75c-.79-.254-.973-.332-.973-.406 0-.067-.078-.11-.367-.192-.203-.054-.383-.093-.39-.086a3.22 3.22 0 0 0 .046.47l.063.452 13.636 4.422 13.637 4.414.012-.36c.008-.202.008-.374-.004-.386zm-19.066-1.683a.649.649 0 0 1 .273-.028c.102.016.148 0 .164-.058.008-.04.031-.633.04-1.317l.015-1.242-1.082-.348c-.598-.195-1.086-.343-1.094-.336-.016.016.184 3.883.203 3.957.012.04.246-.05.684-.261.363-.172.722-.34.797-.367zm18.234-2.243l.039-.644.402-.5c.223-.27.391-.508.371-.52-.074-.043-1.062-.324-1.148-.324-.047 0-.289.133-.535.293-.25.164-.477.293-.512.293-.09 0-.914-.25-.965-.293-.02-.02.137-.176.352-.34.215-.168.39-.32.39-.344 0-.02-.183-.082-.406-.14l-.398-.11-.41.32c-.227.18-.446.321-.485.321-.097 0-1.398-.39-1.441-.434-.02-.02.14-.175.355-.34.278-.218.375-.32.325-.347a3.859 3.859 0 0 0-.41-.133l-.352-.101-.418.328-.426.336-.433-.133c-.235-.07-.465-.14-.5-.156-.043-.012.078-.137.328-.329.218-.171.379-.332.355-.351-.02-.02-.207-.082-.41-.14l-.375-.102-.406.32-.41.324-.793-.234c-.438-.129-.793-.254-.793-.274 0-.015.16-.156.359-.308.2-.149.352-.293.336-.313-.012-.02-.195-.086-.402-.144l-.387-.11-.809.641-.492-.16-.496-.152.367-.286c.207-.156.371-.304.371-.324 0-.031-.664-.242-.77-.242-.027 0-.218.129-.417.293-.203.16-.387.289-.418.289-.063 0-1.192-.34-1.27-.383-.039-.02.07-.136.305-.316.41-.32.414-.309-.113-.461l-.348-.098-.371.29c-.203.16-.402.288-.438.288-.097 0-.894-.25-.937-.293-.02-.015.113-.148.3-.297.184-.14.337-.269.337-.292 0-.016-.184-.079-.407-.141l-.406-.113-.754.593-.855-.261c-.293-.09-.586-.18-.871-.278-.012-.011.152-.136.359-.28.207-.15.371-.278.367-.282a6.166 6.166 0 0 0-.433-.137L18.594 31l-.34.246a4.548 4.548 0 0 1-.399.277c-.054.02-1.261-.304-1.316-.355-.008-.008.16-.129.379-.27.262-.168.375-.265.332-.285a4.72 4.72 0 0 0-.453-.148l-.387-.11-.406.266-.406.27-.692-.211a12.41 12.41 0 0 1-.715-.235c-.011-.008.188-.101.442-.203.254-.101.46-.195.46-.21 0-.016-.292-.114-.644-.216l-.64-.183-1.63.715-.023.894.254.078c.14.04 5.574 1.735 12.086 3.77 6.508 2.031 11.844 3.7 11.86 3.7.015.003.042-.282.062-.638zm3.055-3.37c.261-.137.3-.497.078-.708-.078-.078-3.227-1.008-12.336-3.633-6.723-1.941-12.281-3.53-12.356-3.53-.418 0-.574.6-.21.812.144.086 24.398 7.113 24.574 7.125a.763.763 0 0 0 .25-.067zm.078-4.4c-.012-.01-5.496-1.448-12.184-3.187l-12.262-3.191-.109-.027v.93c0 .925 0 .929.11.956.054.012 5.582 1.547 12.273 3.403l12.168 3.37.012-1.113c.007-.617.004-1.128-.008-1.14zm-29.133 1.34c-.047-.449-.086-.89-.113-1.335-.032-.551-.028-.61.07-.809.145-.3.559-.59 1.266-.867.523-.211 1.214-.824 1.445-1.293.195-.402.23-.695.262-2.2l.027-1.421-.215-.055-.36-.094-.148-.039-.027 1.516c-.031 1.754-.05 1.871-.402 2.27-.29.328-.524.488-1.11.746-.808.363-1.258.746-1.46 1.254-.09.222-.079 1.199.023 2.164.043.398.082.73.09.734.039.027.554.164.636.168.098.004.098 0 .016-.738zm29.91-2.745a.431.431 0 0 0 .11-.247c0-.113-.122-.406-.168-.406-.012 0-3.09-.77-6.84-1.707-11.867-2.972-12.864-3.219-12.957-3.187-.141.043-.285.261-.285.43 0 .19.101.34.277.41.074.03 4.32 1.101 9.441 2.378 5.117 1.278 9.457 2.36 9.64 2.41.423.11.642.087.782-.081zm6.387-.805c.61-.133 1.129-.254 1.164-.266.039-.011-.129-.578-.535-1.781-.489-1.46-.614-1.777-.7-1.816-.074-.036-.132-.032-.195.007-.066.043-.094.043-.094.004 0-.027-.062-.113-.144-.187-.113-.102-.434-.824-1.414-3.176a324.386 324.386 0 0 0-2.77-6.46c-.488-1.102-.574-1.267-.855-1.599-.254-.296-.328-.363-.414-.34-.086.02-.18.028-.274.028-.34.004-.343-.024.157 1.418.254.738.507 1.5.566 1.703.059.2.125.371.145.39.05.032 1.695 4.723 1.707 4.868.011.168.976 2.93 1.058 3.02.031.042.38.995.774 2.117.629 1.808.703 2.054.656 2.175-.035.106-.035.145.008.145.027 0 .55-.113 1.16-.25zm3.152-1.676a.92.92 0 0 0 .094-.27c0-.124-.426-.624-.73-.851-.41-.309-1.524-.82-1.61-.742-.039.047.559 1.824.637 1.89.039.032.293.2.562.368l.492.308.235-.25c.129-.144.273-.347.32-.453zm-12.12.332c0-.137.362-2.16.523-2.91.21-.973.242-1.406.125-1.633-.04-.074-.188-.238-.336-.367-.262-.227-.278-.234-1.278-.488a17.73 17.73 0 0 1-1.039-.282c-.015-.015.051-.293.153-.613.101-.324.171-.601.16-.613-.012-.016-.262 0-.551.023-1.2.125-2.031-.07-2.793-.652-.535-.406-.977-.527-1.527-.426a1.871 1.871 0 0 0-.293.067 5.85 5.85 0 0 0 .097.71c.008.004.114-.015.246-.046.395-.09.633-.024 1.04.28.68.517 1.351.755 2.312.825.293.02.469.05.465.09 0 .031-.348 1.172-.766 2.539a166.373 166.373 0 0 0-.758 2.488c.02.016 4.102 1.035 4.157 1.04.035.003.062-.012.062-.032zm-7.759-4.11l.446-2.066-.075-.484a10.262 10.262 0 0 0-.086-.5c-.007-.008-.136.18-.285.414l-.27.426-.437 2.062c-.246 1.133-.437 2.063-.426 2.075.032.027.598.16.641.152.024-.008.25-.942.492-2.078zm-4.379-1.12l.403-2.438.05-.324.254.066c.348.094.891.082 1.399-.03.195-.044.39-.079.59-.099.234 0 .668.172.976.383.145.098.278.188.297.196.02.007.117-.118.23-.282l.196-.297-.336-.218c-.54-.352-.738-.426-1.258-.45a3.516 3.516 0 0 0-.836.055c-.656.133-.933.145-1.34.059a5.487 5.487 0 0 1-.437-.106c-.047-.015-.094.102-.172.418-.059.25-.133.442-.168.442-.031 0-.16-.035-.281-.082-.528-.176-1.473.183-1.711.656-.086.203-.164.41-.223.621-.172.57-.742 2.863-.719 2.89.036.032 2.637.68 2.692.669.027-.008.203-.97.394-2.13zm17.407 1.453c-.063-.168-.29-.824-.512-1.461l-.399-1.152-.386-.172c-.961-.453-2.121-.75-3.082-.793-.828-.04-1.309.011-1.453.156-.149.152-.145.34.011.492.114.117.14.121.442.098l.324-.032 2.55 1.579c.856.539 1.72 1.066 2.583 1.586.015 0-.016-.133-.078-.301zm-26.977-.332c2.516-.723 2.563-.739 2.563-.774 0-.074-.23-.61-.27-.62-.023-.009-1.289.343-2.805.78-2.289.665-2.742.81-2.625.84.895.239 1.164.305 1.211.309.032 0 .895-.238 1.926-.535zm31.145-.13c.285-.288.52-.538.52-.562 0-.02-1.02-1.597-2.267-3.504l-2.261-3.476.422-.414 3.023-2.942c.965-.937 1.922-1.879 2.879-2.828.82-.847.977-1.652.406-2.082-.191-.144-.457-.187-.808-.125-.395.07-.918.024-1.172-.101a.71.71 0 0 1-.297-.282c-.242-.453-.73-.628-1.61-.585a4.986 4.986 0 0 0-1.851.44c-.414.196-.406.165-.2.626l.102.226.36-.171a4.124 4.124 0 0 1 1.59-.391c.683-.04.863.02 1.027.305.23.39.75.648 1.422.687.226.012.527.004.672-.023.144-.024.289-.035.324-.024.172.067-.055.547-.45.965-.128.137-1.581 1.559-3.23 3.164-2.355 2.297-2.992 2.945-2.976 3.02.011.054.816 1.898 1.789 4.097l1.879 4.246c.058.141.132.258.152.258.02 0 .266-.234.555-.523zm-26.274-2.1c1.567-.915 1.668-.981 1.774-1.184.484-.903.964-1.22 1.878-1.235l.454-.004.109-.43c.055-.234.117-.437.129-.452.016-.012.207.046.433.132l.403.157 8.535-4.957c4.691-2.727 8.59-5.024 8.66-5.102l.133-.137-.125-.32c-.098-.25-.145-.309-.203-.285l-.13.055c-.026.011-.12-.118-.206-.274a1.574 1.574 0 0 0-.176-.293c-.027 0-23.848 13.985-23.898 14.035-.024.024-.024.063.004.102.027.035.101.207.171.383.215.55.32.777.36.777.02-.004.781-.437 1.695-.969zm13.598-1.54c.152-.07 1.586-.66 3.191-1.32 1.598-.656 2.922-1.211 2.942-1.234.054-.047-.164-.692-.227-.668-.559.214-6.984 2.878-7.016 2.906-.035.031.692.433.79.433.019 0 .164-.05.32-.117zm0 0"/></svg>