<svg xmlns="http://www.w3.org/2000/svg" width="64pt" height="64pt" viewBox="0 0 64 64"><path d="M30.207 63.531c-4.656-.273-9.46-1.644-13.488-3.851-1.098-.602-1.301-.727-2.395-1.442-1.8-1.18-3.148-2.277-4.87-3.98-2.52-2.488-4.263-4.824-5.868-7.863-4.395-8.34-4.77-18.415-1.016-27.086C6.63 9.922 15 3.03 25.082.785c8.582-1.918 17.637-.281 24.906 4.5 1.918 1.262 3.219 2.32 4.973 4.05 1.316 1.302 2.11 2.192 3.035 3.407 6.723 8.848 8.285 20.645 4.094 30.918-2.09 5.125-5.469 9.582-9.965 13.125-.934.735-3.059 2.145-4.129 2.735-5.5 3.02-11.539 4.386-17.789 4.011zm13.309-2.98c.836-.2 1.773-.614 2.765-1.223.793-.492 1.934-1.351 2.426-1.836.516-.508 1.473-1.754 2.055-2.676.496-.777 1.468-2.66 1.66-3.203 1.66-4.71 2.039-5.953 2.246-7.347.113-.782.11-2.11-.012-2.23-.047-.04-.176.362-.406 1.226-.441 1.672-1.262 4.37-1.684 5.527-1.218 3.352-2.578 5.422-5.535 8.414-1.672 1.688-2.894 2.328-4.445 2.328-.625 0-1.344-.144-1.754-.351-.176-.09-.223-.086-.758.093-.312.11-.613.196-.672.196-.55 0 .825.836 1.785 1.082.63.164 1.649.164 2.329 0zm-5.286-1.176c.762-.125 1.672-.367 2.25-.605 1.008-.418 3.41-2.477 4.223-3.625.598-.848 1.043-1.856 1.328-3.008.184-.754.282-1.637.176-1.637-.121 0-.492.473-1.71 2.164-.642.89-1.384 1.918-1.65 2.281-1.577 2.16-3.261 3.032-6.128 3.164-1.04.047-1.547-.054-2.418-.48-.82-.406-1.383-.824-2.196-1.625a15.78 15.78 0 0 1-1.996-2.418c-.261-.383-.484-.66-.484-.621 0 .129.95 2.781 1.098 3.074.261.508.777 1.207 1.242 1.688a5.838 5.838 0 0 0 3.305 1.714c.625.106 2.117.075 2.96-.066zm-17.046-.383c.574-.18 1.675-.707 1.675-.797 0-.027-.187-.187-.425-.351a14.193 14.193 0 0 1-.887-.696l-.461-.398-.29.145c-.855.425-1.82.332-3.151-.305-1.02-.492-1.582-1.153-2.512-2.969-.86-1.68-1.485-3.258-2.465-6.223-.297-.882-.555-1.605-.578-1.605-.145 0-.156 1.3-.016 2.043.121.648.707 2.555 1.567 5.152a88.15 88.15 0 0 1 .648 1.992c0 .024-.121-.03-.27-.12a21.97 21.97 0 0 0-.785-.43c-.425-.223-.558-.332-.82-.68-1.144-1.535-3.14-7.215-3.82-10.887-.32-1.726-.57-3.71-.653-5.183a15.07 15.07 0 0 0-.074-.985l-.039-.289-.086.32c-.285 1.063-.375 1.883-.375 3.497-.004 1.808.047 2.207.508 4.043 1.145 4.562 2.215 7.675 3.441 10.007.516.989.676 1.18 1.465 1.766 1.844 1.367 4.274 2.648 5.793 3.055.684.18 1.871.136 2.61-.102zm7.125-.031a16.12 16.12 0 0 0 2.41-.902c.367-.172.687-.325.703-.336.015-.016-.074-.153-.2-.305a6.901 6.901 0 0 1-.402-.54l-.175-.269-.383.262c-.922.617-1.696.844-2.856.84-1.011-.004-1.535-.125-2.523-.594-2.063-.969-4.676-3.332-7.13-6.43l-.167-.218.191.508c.54 1.433 1.672 3.363 2.645 4.515 1.562 1.848 3.668 3.242 5.387 3.563.687.129 1.824.086 2.5-.094zm23.007-3.59a36.54 36.54 0 0 0 2.786-2.351c.347-.32.972-.899 1.394-1.282 1.328-1.203 1.98-2.02 2.649-3.297.94-1.796 1.609-4.55 1.87-7.773.024-.277.024-.492.005-.473-.055.055-1.38 3.453-1.688 4.336-.617 1.77-1.246 3.117-1.945 4.153-.64.957-2.528 2.867-3.782 3.832-.214.168-.37.363-.53.683a23.89 23.89 0 0 1-1.352 2.309c-.223.324-.371.574-.325.55.043-.027.454-.34.918-.687zM10.25 52.867c-.39-.93-.754-1.87-1.082-2.824a7.385 7.385 0 0 0-1.398-2.426 7.375 7.375 0 0 1-.543-.719c-.54-.91-.91-2.5-1.13-4.828-.117-1.21-.117-7.32 0-8.43.419-4.05 1.508-7.671 3.473-11.515.403-.79.832-1.668.953-1.957a24.88 24.88 0 0 1 1.305-2.55c.11-.188.219-.368.328-.552.094-.164-.699.559-1.082.98-2.05 2.31-4.187 6.38-5.258 10.044-.843 2.863-1.109 5.387-1.039 9.848.086 5.554.403 8.285 1.157 9.843.285.594 1.527 2.364 2.48 3.535.414.512 2.043 2.239 2.11 2.239.011 0-.11-.309-.274-.688zm22.797-3.117c.547-1.723 1.012-3.11 1.035-3.082.023.027.516 1.414 1.094 3.082.574 1.668 1.066 3.023 1.094 3.008.105-.07.144-.778.066-1.348l-.078-.59.527-.84c.602-.953 1.395-2.515 1.656-3.257.192-.547.211-.563.801-.668l.344-.063.398.41c.266.278.485.582.66.934.407.82.465 1.117.512 2.625l.043 1.332.11-.316c.191-.582.316-1.18.359-1.79.05-.558.086-.671.289-1.011.156-.254.328-.707.523-1.399.11-.386.223-.78.34-1.164.063-.187 1.035-.715 1.32-.715.301 0 1.016.739 1.31 1.356.308.64.495 1.8.566 3.512l.015.382.184-.34c.277-.527.367-.867.422-1.632.043-.625.086-.774.347-1.406.352-.836.598-1.73.7-2.547.12-.961-.055-1.828-.579-2.883-.226-.453-.847-1.344-1.058-1.516-.082-.062-.102-.203-.102-.574 0-.516-.156-1.125-.433-1.668-.168-.328-.739-1.102-.785-1.055-.016.016.03.223.101.465.477 1.586.426 2.723-.176 4-.418.875-.418.875-1.172 1.04-.355.077-.687.132-.734.116-.05-.027-.09-.234-.121-.628a4.869 4.869 0 0 0-.137-.918c-.12-.407-.445-.852-.675-.934-.165-.063-.172-.082-.145-.43.023-.34.004-.402-.254-.832l-.277-.46-.117.882c-.25 1.887-.575 3.063-1.16 4.18-.305.586-.4.629-1.012.472-.508-.132-.555-.171-.61-.484-.07-.43-.41-1.332-.629-1.68-.293-.449-.777-.953-1.16-1.191-.234-.148-.308-.23-.277-.305.18-.418.183-.457.11-.808-.071-.348-.122-.461-.165-.403a269.89 269.89 0 0 0-1.137 2.446c-.394.86-.796 1.718-1.203 2.574-.074.148-.148.02-1.351-2.379-1.371-2.742-1.324-2.68-1.414-1.887-.043.348-.032.407.12.637.095.14.173.273.173.293 0 .023-.23.285-.512.578-.594.621-.934 1.219-1.254 2.191-.121.364-.254.668-.289.68-.043.016-.277-.008-.527-.047-.438-.078-.465-.09-.715-.402-.988-1.234-1.508-3.586-1.028-4.656.075-.168.133-.317.133-.332 0-.07-.617.422-.777.625-.137.168-.188.3-.188.492 0 .2-.023.262-.105.262-.176 0-1.04.437-1.277.644-.32.277-.782.984-1.106 1.7-.156.34-.312.624-.351.64-.125.039-1.024-.133-1.086-.207-.067-.09-.422-1.277-.532-1.793-.117-.531-.101-1.984.036-2.57.054-.258.082-.489.062-.512-.05-.047-.46.43-.613.715-.207.406-.328.976-.281 1.375l.039.36-.461.476c-.844.863-1.403 1.851-1.649 2.906-.144.625-.148 2.246 0 3.137.063.383.074.636.035.707-.156.293-.023 1.304.278 2.066l.148.375.043-1.082c.043-1.215.113-1.504.485-2.113.277-.446 1.125-1.395 1.335-1.488.11-.047.23-.02.547.128l.41.192.31.793c.417 1.082.917 2.015 1.292 2.422.297.324 1.023.86 1.465 1.082l.215.105-.047.395c-.024.226-.008.527.035.71.082.364.309.895.355.848.02-.015.106-.445.192-.945.437-2.54.734-3.332 1.68-4.504l.43-.535.523.043c.289.023.547.066.578.094.027.027.097.257.148.511.137.668.578 1.922.899 2.582.343.707.847 1.36 1.367 1.778.305.25.387.351.36.445-.02.074-.071.266-.122.43-.062.218-.074.406-.027.71.07.473.191.794.254.665.027-.047.488-1.496 1.035-3.219zm-1.617 2.738a2.537 2.537 0 0 1-.063-.449c0-.164-.097-.332-.433-.75-.594-.738-1.118-1.566-1.399-2.234-.277-.64-.594-1.805-.656-2.399-.024-.222-.059-.433-.082-.472-.02-.032-.156-.079-.3-.102-.4-.066-.45.027-.352.672.28 1.89 1.316 3.988 2.668 5.383.316.324.593.586.62.586.028 0 .024-.102-.003-.235zm6.203-1.066c.633-.945 1.215-2.297 1.762-4.09.207-.676.226-.797.152-.879-.067-.058-.149-.07-.281-.035-.176.043-.207.102-.395.715-.437 1.426-.934 2.48-1.723 3.664l-.43.648.005.563v.558l.265-.289c.14-.156.434-.543.645-.855zm-12.5-.16c-.133-.403-.203-.492-.7-.969-.94-.89-1.609-1.766-2.066-2.723-.23-.476-.61-1.504-.695-1.883a.362.362 0 0 0-.211-.269c-.145-.07-.188-.063-.324.078-.157.149-.16.168-.082.496.336 1.418 1.425 3.297 2.574 4.45.527.519 1.473 1.265 1.613 1.265.028 0-.023-.2-.105-.445zm17.164-1.157c.91-1.511 1.465-2.777 1.703-3.898.117-.52.164-.988.105-.988-.011 0-.175.086-.367.183l-.34.188-.152.66c-.23 1.031-.57 2.012-.894 2.563-.247.414-.332.636-.446 1.21-.078.383-.164.77-.187.86-.047.156-.043.156.058.031.059-.074.293-.437.52-.809zm5.21-1.32c1.25-1.75 1.86-3.832 1.65-5.652-.243-2.153-1.157-4.184-2.462-5.477-.457-.457-.957-.86-1.27-1.023-.175-.086-.16-.055.095.285.082.105.23.371.335.59.106.219.368.605.579.855.523.625 1 1.367 1.336 2.055.546 1.14.75 2.004.75 3.242 0 1.55-.426 2.985-1.333 4.485a2.195 2.195 0 0 0-.253.636 7.11 7.11 0 0 1-.2.703l-.148.41.285-.308c.16-.168.441-.527.637-.8zm-28.816.328a6.802 6.802 0 0 1-.214-1.008 6.352 6.352 0 0 0-.184-.96c-.867-2.864-.18-5.782 1.867-7.934.32-.336.527-.617.602-.816.066-.168.21-.434.336-.59.12-.157.195-.285.175-.285-.12 0-.972.675-1.476 1.175-1.195 1.18-2.008 2.703-2.39 4.496-.157.735-.157 2.243 0 2.98.148.7.491 1.708.78 2.302.239.496.602 1.132.641 1.132.016 0-.047-.218-.137-.488zM15.93 46.52c-.328-.727-1.055-2.633-1.473-3.852-1.672-4.902-2.187-8.45-2.187-15.086 0-1.602-.008-2.902-.016-2.895-.04.04-.418 2.137-.535 2.942-.344 2.383-.461 5.7-.274 7.41.39 3.488 1.512 6.852 3.332 9.961.438.75 1.254 1.957 1.29 1.918.015-.012-.044-.195-.137-.398zm35.61-1.141c1.51-3.027 2.28-6.852 2.17-10.848-.093-3.383-.78-6.008-2.073-7.922-.34-.5-1.102-1.347-1.16-1.289-.02.012.113.352.28.754.755 1.746 1.29 3.793 1.595 6.051.136 1.02.187 3.742.097 5.02a46.66 46.66 0 0 1-.816 5.878c-.207 1.032-.727 3.239-.836 3.563-.129.367.281-.297.742-1.211zm4.722.719c.218-.18.593-.45.824-.598.234-.148.488-.352.555-.45.175-.245 1.21-2.816 2.593-6.433.625-1.637.973-3.808.973-6.09-.004-2.644-.414-4.71-1.562-7.824-1.083-2.922-3.024-6.695-4.59-8.906-1.035-1.461-2.059-2.55-2.692-2.867-.867-.434-2.425-.262-4.332.476l-.187.07.547.364c.293.203.672.46.836.578.285.203.308.207.578.133.543-.149 1.187-.098 1.843.144.817.305 1.235.57 1.907 1.196 1.16 1.086 2.027 2.3 3.293 4.62.3.56.695 1.34.879 1.743 2.21 4.828 2.8 10.168 1.664 15.14-.48 2.11-1.852 5.68-3.133 8.169-.242.48-.434.863-.422.863.016 0 .207-.149.426-.328zm-27.032-3.47c.243-.874.649-1.726 1.082-2.308.286-.375.317-.453.348-.86.024-.245.04-.448.031-.46-.003-.012-.265.32-.574.723-.36.472-.672.98-.937 1.515-.36.739-.774 1.774-.774 1.938 0 .09.227.187.45.191.148.004.175-.043.374-.738zm10.157.56c.035-.055-.325-1.157-.602-1.833a5.792 5.792 0 0 0-.894-1.55c-.36-.442-1.309-1.39-1.391-1.39-.023 0-.008.073.031.17.035.099.094.321.121.497.043.277.11.379.453.734.88.899 1.297 1.582 1.676 2.727.133.402.25.645.313.66.18.05.258.047.293-.016zM23.19 41.788c.442-1.086 1.512-2.348 2.317-2.727a2.86 2.86 0 0 0 .672-.46c.144-.149.37-.352.508-.454.14-.101.218-.18.183-.18-.144 0-1.152.337-1.465.489-1.031.512-2.07 1.574-2.77 2.832-.202.367-.23.469-.195.68.036.191.079.258.184.281.316.066.371.02.566-.46zm20.786-.297c.035-.086-.653-1.867-.95-2.445-.207-.414-.718-.91-1.238-1.203-.207-.117-.383-.2-.398-.184-.032.031.629 1.113 1 1.625.586.809.964 1.656.964 2.137 0 .117.012.226.036.25.058.058.554-.094.586-.18zM17.12 38.348c.203-.86.328-1.578.328-1.907 0-.171-.105-.59-.258-1.015-.593-1.676-.601-2.48-.03-4.715.175-.695.636-2.281.835-2.89.067-.2-.578.495-.773.835-.664 1.168-1.137 3.114-1.227 5.114-.062 1.222.035 1.945.352 2.687.285.656.433 1.293.5 2.113.02.305.058.516.09.47.023-.052.109-.36.183-.692zm17.32-1.618c-.527-.492-.59-.578-.91-1.25-.187-.402-.5-1.054-.695-1.457-.305-.628-.344-.757-.297-.933.035-.117.05-.711.04-1.32l-.017-1.114-1.113 3.258a194.075 194.075 0 0 0-1.113 3.305c0 .027 1.05.047 2.34.043h2.332zm-.464-3.125l-1.063-3.113.027.992.032 1 .629 1.77.625 1.77.378.374c.208.207.391.36.407.348.015-.016-.45-1.426-1.035-3.14zM9.03 34.898c.309-2.418 1.004-6.078 1.621-8.507 1.106-4.356 2.215-6.903 3.809-8.782.598-.703 1.043-1.125 2.375-2.257.879-.747 1.21-.985 1.676-1.211 1.218-.59 2.586-.63 4.101-.11l.547.184.445-.149c.247-.082.633-.18.86-.222l.414-.067-.348-.218a12.506 12.506 0 0 0-2.226-1.059c-1.485-.508-2.832-.602-3.867-.262-1.465.48-3.301 1.864-4.989 3.762-.777.879-1.215 1.523-1.89 2.816-.563 1.079-.793 1.653-1.16 2.914-1.329 4.56-1.907 8.645-1.723 12.067.078 1.398.14 2.008.195 2.008.024 0 .094-.41.16-.907zm37.778-.128c-.079-1.387-.461-2.727-.977-3.415-.539-.726-1.55-1.34-2.2-1.34-.3 0-.398.04-.87.34-.293.188-.633.442-.75.567l-.215.219.93.03c.902.036.937.04 1.34.25.546.286 1.054.794 1.511 1.528.473.754 1.031 1.86 1.14 2.242.044.16.09.293.11.293.016 0 .008-.32-.02-.714zm11.433-.665c-.273-4.566-1.133-8.656-2.379-11.34-.683-1.484-1.601-2.956-2.465-3.98-2.957-3.469-6.746-6.062-10.148-6.93-2.11-.546-4.742-.207-6.379.825-.434.273-1.121.804-1.121.87 0 .063.371.165.902.24.266.038.664.112.891.163.496.113.46.113.46-.004 0-.054.134-.238.298-.41.215-.226.426-.363.77-.508 1.324-.539 2.199-.492 3.421.2 1.426.804 2.164 1.605 3.36 3.648.828 1.406 2.27 4.41 3.058 6.363.14.348.27.649.29.664.054.047-.036-1.12-.145-1.968-.211-1.598-.598-2.977-1.121-4-.348-.688-1.325-2.36-2.059-3.536-.324-.52-.578-.957-.563-.972.055-.059 1.122.343 1.532.566 1.718.957 3.644 2.828 5.574 5.441.98 1.325 1.617 2.516 2.437 4.555.918 2.293 2.098 6.082 2.973 9.598.246.969.457 1.75.465 1.738.012-.012-.008-.562-.05-1.223zm-34.84-2.949h.524l-.223-.187c-.207-.172-.273-.188-.715-.188-.48-.004-.492.004-.71.227l-.22.234.41-.043c.313-.027.626-.039.938-.043zm3.68-.09c.89-.02 2-.054 2.48-.074.836-.039.86-.043.727-.152-.078-.059-1.422-1.02-2.984-2.13-2.774-1.972-2.852-2.03-2.996-2.35-.598-1.34-.875-3.747-.649-5.669.059-.488.176-1.332.262-1.875.082-.539.144-.992.137-1.003-.028-.028-.461 1.214-.649 1.863-.512 1.777-.703 2.996-.707 4.535 0 .406 0 .816-.004 1.227 0 0-.586-.415-1.289-.918-.707-.504-1.3-.907-1.312-.895-.012.012.144.285.355.605.328.508.461.645.969 1.02.324.238.61.488.633.547l.851 2.402.805 2.293.355.336.356.34.527-.035c.285-.02 1.25-.047 2.133-.067zm14.664-.367l.504-.465.727-2.074.73-2.07.469-.305c.441-.289.496-.348 1.039-1.203.316-.492.566-.91.55-.922-.011-.012-2.328 1.625-5.152 3.63-3.601 2.558-5.097 3.651-5.004 3.667.075.012 1.348.055 2.828.102 1.481.046 2.72.086 2.747.09.035.003.28-.196.562-.45zm-19.398-.23c0-.102-1.48-4.91-1.547-5.043-.11-.211-1.04-1.645-1.07-1.645-.008 0 .003.078.035.172.207.711 2.09 6.805 2.109 6.84.027.05.473-.258.473-.324zm22.746-3.078c1.129-3.66 1.156-3.762 1.105-3.703-.386.59-.761 1.187-1.125 1.785-.125.222-1.332 4.12-1.289 4.164.05.047.254.093.477.113.082.008.258-.496.832-2.36zm-29.16.015c.976-2.386 2.043-4.855 2.363-5.484.726-1.41 1.926-3.04 3.379-4.582.765-.817 1.23-1.227 1.75-1.555.543-.328 1.11-.61 1.695-.848.414-.156 1.543-.468 1.574-.43.016.013-.047.263-.133.56a121.199 121.199 0 0 0-1.246 4.703c-.28 1.25-.343 1.816-.343 2.996 0 1.011.156 2.476.27 2.476.054 0 .331-1.265.679-3.117.371-1.953.758-3.207 1.34-4.355.593-1.188 1.465-2.247 1.949-2.383.574-.157 1.43-.012 2.266.383.468.222.718.492 1.02 1.109.718 1.473 1.148 4.082 1.312 7.953l.043 1.082.086-.45c.261-1.394.457-3.183.457-4.183 0-1.363-.317-3.48-.606-4.047-.766-1.48-2.547-2.71-4.766-3.28-.992-.25-2.058-.208-4.293.19-1.109.2-2.105.63-3.054 1.325-2.61 1.906-5.028 6.414-5.832 10.855-.145.824-.258 1.809-.2 1.73.02-.023.153-.316.29-.648zm28.05-7.203c-.863-1.754-1.77-2.894-3.242-4.082-1.66-1.344-2.37-1.691-4.047-1.98-1.004-.172-1.328-.317-1.617-.723a1.625 1.625 0 0 0-.46-.418c-.556-.324-1.29-1.219-1.747-2.137-.234-.445-.246-.515-.281-1.258-.02-.457-.07-.808-.113-.851-.11-.11-.309.101-.563.59-.46.902-.516 1.465-.195 2.086.09.175.164.37.164.433s-.176.282-.39.477c-.442.422-.641.789-.638 1.2.004.554.098.687.754 1.073.825.492 1.563 1.13 2.004 1.723.203.277.38.504.399.508.02 0 .113-.125.215-.282.414-.644 1.195-1.18 1.941-1.316 1.512-.273 3.086.606 5.703 3.191a42.648 42.648 0 0 1 1.836 1.922c.348.41.648.735.664.72.016-.017-.152-.411-.387-.876zm-14.73-7.57c.996-.957 1.02-.992 1.703-2.707.234-.582.527-1.211.64-1.399.356-.543.508-.89.833-1.859.172-.508.394-1.078.504-1.273.113-.204.523-.672.964-1.114.43-.418.97-.992 1.207-1.273.543-.637.973-1.031 1.188-1.086.176-.043.195-.125.125-.55-.047-.286-.133-.302-.578-.083-.426.211-.75.54-1.528 1.531-.37.477-1.078 1.254-1.683 1.848-.566.555-1.152 1.184-1.29 1.398-.401.598-.726 1.418-1.109 2.797-.53 1.93-.48 1.848-2.421 4.028l-.438.484.34.043c.187.02.41.039.5.047.125.008.352-.172 1.043-.832zm5.266-.285c-.157-.407-.141-1.172.039-2.403.316-2.195.66-3.14 1.406-3.875.57-.562 1.078-.8 1.683-.8.52 0 .594-.047.786-.48.136-.321.152-1.313.027-1.813-.258-1.043-.785-1.704-1.5-1.88l-.18-.042v.406c0 .402 0 .406.242.531.301.16.47.473.47.895 0 .5-.177.699-.915 1.058-1.043.508-1.57 1.164-2.437 3.032-.801 1.71-.868 2.05-.649 3.347l.164 1.028c.035.21.305.617.633.964.242.246.32.258.23.032zm0 0"/></svg>