<svg xmlns="http://www.w3.org/2000/svg" width="64" height="64"><path d="M32 1C14.88 1 1 14.88 1 32c0 17.121 13.88 31 31 31 17.121 0 31-13.879 31-31C63 14.88 49.121 1 32 1zm17.793 6c.036.07.064.155.057.225l-.821.813c.118.204.14.478.252.694.036.281.162.604-.125.772-.421.07-.808-.366-1.067-.661l-11.83 9.177c-.235.146-.481.31-.667.045-.185-.29-.042-.496.042-.57 2.14-1.62 11.943-8.916 11.984-9.057-.182-.316-.336-.666-.328-1.016.104-.092.028-.26.154-.338.505-.273.841.322 1.255.526.394-.19.708-.491 1.094-.61zm-15.822 4.909c.142-.014.272.09.408.143.169.147-.014.322 0 .497-.308.302-.358.856-.345 1.305-.07.126.065.183.015.317-.078.195-.224.203-.378.315-.266-.07-.302-.315-.512-.427-.07.014-.093.083-.163.07-.238.265.091.568 0 .827.106.442-.04.877-.153 1.278.028.098.12.182.21.174.183-.09.337-.16.497-.245a.574.574 0 0 1 .344.029c.24.084.247.364.274.582.057.442-.09.975.182 1.382l.359.358c.371.386.677.66 1.039 1.192.097-.028.175.092.265.127.31.316-.07.493-.224.813-1.204 1.553-2.296 2.294-3.487 3.074-.455.248-2.926 1.255-3.705 1.55 0 0-.104-1.24-.855-1.68-.008-.063.649-.198.893-.414.477-.554.896-.726 1.316-1.288.134-.224.36-.442.373-.73.063-.084.09-.259.224-.294.337-.161.97-.373 1.284-.387.063-.035.148-.077.169-.16-.12-.156-.324-.141-.429-.338-.106-.372.323-.384.526-.539.043-.239-.064-.527-.07-.8-.12-.176-.196-.38-.378-.499-.323-.161-.604-.54-.982-.61-.148-.182-.386-.189-.603-.217-.098-.098-.212-.212-.226-.365-.035-.317-.385-.4-.595-.554-.183-.05-.422-.085-.57.042-.007.238.247.491.128.737-.091.168-.26.23-.457.203-.414-.007-1.01-.126-1.382-.104-.112.034-.077.153-.084.273-.155.274-.505.392-.827.413-.268-.161-.233.211-.499.085-.141-.056-.148-.239-.155-.358a9.47 9.47 0 0 1 .815-1.41l.04-.016c.457-.673 1.103-1.318 1.608-1.879.337-.38.779-.435 1.165-.75.786-.316 1.53-.73 2.378-.9.688-.294 1.5-.314 2.203-.525l.091-.154.127-.085a.29.29 0 0 1 .146-.058zm1.926.087c.808-.077 2.903.181 4.096.582-.195.268-.758.793-1.369.639-.14-.036-.19-.255-.246-.36-.555-.23-.435.345-.652.485-.091.231-.14.51-.456.632-.168-.007-.373-.035-.483-.189-.079-.232-.064-.548-.288-.724-.303-.258-.374.426-.71.183-.201-.209.052-.266-.032-.44-.105-.842.14-.808.14-.808zm9.38.785c.38.01.683.444.819.715.245-.133 1.067-.588 1.067-.588.19-.083.317.108.127.252-.255.259-.638.495-.884.699 0 0 .171.474.188.782a.76.76 0 0 1-.371.722c-.498.127-.685-.37-.965-.68l-1.88 1.198c.163 2.573-.62 3.762-1.013 4.225-1.119 1.491-2.435 2.383-3.018 2.702-.691.319-1.117.488-1.833.897-.983.482-1.237.738-1.707 1.367-.127.225-.187.352-.15.621-.044.26.08.26.286.194.457.003.289.33.26.442.015 0 .706-.015 1.048.112 0 0 .839.163 1.43.75 0 0 .525.458.75.717-.078.155-.196.336-.323.427-.961-.371-1.964-.693-3.108-.658-.222-.087-.619-.542-.927-.682-.463.084-.87.421-1.362.316-.083-.133-.02-.294 0-.427.037-.189.344-.351.17-.542-.17-.042-.33-.061-.498.03-.133.07-.295.139-.442.21-.112.049-.232.056-.252-.084.16-.596.728-1.066 1.037-1.565-.056-.098-.175 0-.273-.028-.035-.042-.063-.048-.07-.105.252-.568.87-.771 1.354-1.15.764-.393 1.565-.78 2.344-1.166.182-.091.448-.105.631-.259.33-.112.61-.352.926-.526.33-.275.793-.527 1.039-.913.4-.497.75-.94 1.066-1.479.555-.815.87-1.84 1.067-2.857 0-.546.716-2.951 1.325-1.143.498-.267 1.853-1.162 1.853-1.162-.152-.354-.28-.704-.024-1.206l.148-.136a.508.508 0 0 1 .166-.022zm-24.033 3.953c.602.02 1.33.165 1.785.377.876.479.425 1.41.39 1.627-.173.416-.639 1.377-.92 1.462-.262-.059-.384-.1-.634-.038-.4.204-.678.57-.84.865-.14.365.039.657-.305.883a1.495 1.495 0 0 0-1.117.922c-.049.098-.142.354.05.52.033.143.053.226-.093.186-.105-.021-.224-.043-.294-.114-.63-.628-.958-1.369-1.199-2.126-.438-1.445-.48-4.058 2.63-4.539.159-.024.346-.032.547-.025zm3 1.06c.126.063.383.306.46.404.374.586.505 1.185.708 1.78.344.548 1.144.642 1.46 1.098.098.115-.057.196-.148.209-.47-.007-.848.203-1.227.385-.007.337-.142.632-.212.927-.168.435-.224.94-.497 1.312-.446.528-1.24.504-1.693.548-.308.01-.844-.044-.994-.097-.411-.166-.708.301-1.047.139-.096-.07-.188-.205-.125-.324a.458.458 0 0 1 .33-.167.464.464 0 0 0 .167-.303c.022-.414-.438-.727-.284-1.14.067-.1.066-.18.332-.259.42-.063.717.003 1.131-.08.309-.155.62-.274.772-.64.054-.272.063-.54-.154-.722v-.233c.217-.343.475-.652.658-1.01.147-.323.414-.92.363-1.828zm4.185.72c.324-.004.415.38.667.54.287.379.842.272 1.255.441.078.036.162.119.155.21.035.141-.196.015-.21.177a5.882 5.882 0 0 0-.927.112c-.575.245-1.494.392-2.063.042-.19-.078-.31-.225-.455-.315-.022-.19-.296-.345-.317-.54.049-.1.007-.247.099-.31.3-.048.632.148.954 0l.688-.33a.522.522 0 0 1 .153-.027zm28.254.014l.512.764-11.141 9.999s-.828.182-1.214.083c.646-.49 11.668-10.853 11.843-10.846zm3.587 2.061l.427.87C46.327 31.894 31.93 42.256 17.54 52.676c-.33.308-.744.597-1.206.779-.127.098-.31.217-.485.203-.45.169-.954.26-1.48.197-.14-.07-.289-.098-.428-.14l-.673-.429a1.558 1.558 0 0 1-.554-.8c-.05-.126.026-.252.103-.337.387-.028.604.366.984.422 1.045.252 1.971-.31 2.84-.737.899-.59 1.888-1.102 2.793-1.692 2.505-1.733 4.94-3.549 7.388-5.296h.042c1.964-1.459 3.964-2.834 5.922-4.272.267-.47.42-1.004.68-1.426-.295-.316-.496-.595-.426-1.05.344-.422 1.164-1.76 1.198-1.426.048.577.256 1.654 1.677 1.628.408-.26.724-.568 1.137-.813.576-.4 6.722-4.848 6.848-5.01.107-.802.252-1.157.231-1.755.043-.196.295.021.442.049.239.113 1.481-.54 1.678-.687.347-.006.455.056.569.288l13.45-9.782zm-33.678 3.487c.212.085.859.915.924 1.635-.202.184-.275.237-.427.358-.385.352-.141.906-.456 1.27-.128.217-.646.94-1.01.983-.421.05-.772.445-1.228.348-.109-.02-.414-.03-.372-.387-.304.041-.451.115-.639.021-.233-.2-.153-.402-.174-.494-.084-.16-.238-.159-.412-.13-.28.034-.446-.112-.43-.312.055-.225.273-.323.371-.514-.147-.21-.625-.243-.485-.616.126-.533.893-.386.956-.967.007-.057.15-.164.29-.187.124-.05.923-.325 1.232-.334.366-.041.55-.04 1.86-.674zm2.337 2.147c.09.106.16.197.258.288.049.421-.392.857.015 1.208.224-.036.468-.07.637-.224.112-.099.246-.016.267.11-.006.52.645 1.34.645 1.34-.072.178-.072.281.199.31l.11-.027c.125.111.408.268.665.106.302-.021 2.56.535 3.278.875.554.23 2.351 1.11 2.596 1.27.245.161.533.365.794.512 0 0 .993.346.484 1.369-1.005 1.464-1.916 2.188-2.513 1.823-.129-.236.037-.4.163-.574.266-.534.434-1.186.658-1.678.044-.408-1.593-1.134-2.364-1.213-.386-.105-.631-.253-.954-.47-.105-.126-.02-.281.056-.38-.132-.174-.352-.012-.5-.146-.35-.077-.735-.12-1.079-.183-.47-.169-.975-.057-1.34-.414a1.142 1.142 0 0 0-.596-.013c-.868.09-1.138-.408-1.397-.71-.316-.336-.582-.723-.61-1.186-.168-.302.006-.708.014-1.01.176-.323.21-.744.514-.983zm-8.885 1.117c.343.014.625.274.856.47.106-.133.247-.155.387-.205.393-.111 1.046.886 1.052 1.174a1.634 1.634 0 0 1-.568 1.473c-.484.197-.694.494-1.284.715-.427.288-1.031.132-1.466-.057-.148.078-.563.275-.732.296a.589.589 0 0 1-.525-.33c.028-.127-.078-.295.04-.408.085-.195.599-.35.718-.483l-.288-.302c-.305-.202-.09-.866.317-.694.02-.084.01-.264-.015-.413-.068-.33.04-.733.68-.459.064-.245.155-.497.344-.637.14-.084.344-.127.484-.127v-.013zm20.509 1.022a.5.5 0 0 1 .246.045.922.922 0 0 1 .372.28c.07.196-.099.329-.099.511.254.197.428.443.695.59.043-.063.092-.112.113-.175.07-.077.147-.14.258-.112.233.078.367.191.423.43.037.23-.192.436.062.58.07.05.127.127.21.141-.11.35-.076.77-.14 1.142-.041.176-.015.5-.246.485-.41-.13-.387-.731-.474-.95-.163-.07-.178.1-.318.122a.41.41 0 0 1-.512-.182c-.063-.24.042-.436.126-.632-.182-.252-.47-.364-.73-.54-.076.125-.196.258-.358.258-.224 0-.504-.17-.59-.345a.534.534 0 0 1 .1-.397c.062-.106.501-.905.651-1.122.042-.085.124-.121.21-.129zm-13.504.529c.105.015.214.1.288.27.538 1.266 1.492 1.902 1.995 2.19.326.292.617.209.9.133.288.07.907.442 1.169.59.196-.013.335.136.497.15.253.055.161.308.218.512.386.231 2.697 1.075 2.773 1.58-.02.342-.164.762-.424 1.014-.098.084-.132.197-.28.21-.162-.062-.056-.243-.084-.37-.211-.414-3.386-1.744-2.996-2.02.335-.366-.12-.408-.554-.547-.354-.13-.497-.388-.827-.282-.302.105-.576-.105-.842-.21-.968-.68-2.042-1.565-2.161-2.82-.012-.264.153-.427.328-.4zm-.458 18.377c-.231.484-10.027 8.908-10.475 9.286-.702.365-1.755.491-2.45 0-.111-.168-.322-.195-.336-.434.05-.056.042-.14.042-.218.014-.035.078-.119.14-.07.31.287.745.218 1.151.225.498-.182 1.13-.295 1.628-.834.59-.583 6.19-5.275 6.528-5.492.364-.281 3.695-2.582 3.772-2.463z" fill="#231f20"/></svg>