<svg xmlns="http://www.w3.org/2000/svg" width="64pt" height="64pt" viewBox="0 0 64 64"><path d="M31.793 0C14.234 0 0 14.234 0 31.793 0 49.355 14.234 63.59 31.793 63.59c17.562 0 31.797-14.235 31.797-31.797C63.59 14.234 49.355 0 31.793 0zm3.242 4.879a1.5 1.5 0 0 1 .754.101l.457.168c.223.313.441.692.79.91.136 1.028.077 1.93-.391 2.782-.497.66-1.079 1.215-1.649 1.812-.375.399-.348 1.051-.965 1.25-.426.54-.086 1.387-.508 1.922.196.348-.097.606-.285.856-.465 1.504.473 2.836.227 4.367-.32.945.219 2.023-.453 2.836-.2.82.726 1.246.394 2.039.278.863-.8 1.629.059 2.273.7-.02 1.066-.816 1.812-.683.727-.567 1.618-.707 2.387-1.188.734.055.922-.844 1.586-.91.781.082.934-.98 1.645-1.078.367-1.246 1.644-.027 2.097-1.195.57.285.926-.41 1.25-.73.074-.306.395-.458.621-.626.617-.305 1.078-1.105 1.871-.793.711-.785 1.817-.625 2.551-1.363.656.152 1.024-.766 1.645-.34.77.04 1.136-.852 1.87-.852.884-.726 2.009-.867 3.122-1.019.457-.453 1.223-.332 1.82-.285.215.347.676.207.844.566-.434.766-.148 1.84-1.129 2.383.055.707-.742 1.078-.742 1.758-.281.426-.719.75-1.192.851-.226.34-.632.602-.675 1.02-.825.852-1.77 1.398-2.836 1.644-.172-.046-.313-.164-.512-.109-.512.649-1.54.969-1.7 1.867-.343.227-.69.77-1.14.399-.262.113-.117.398-.277.566-.313.32-.496.738-.969.793-.394 1.05-1.512.606-2.098 1.363-.152.082-.375-.168-.566 0-.352.606-1.055.86-1.586 1.305-.566-.144-.71.406-1.137.625.25.707-.578.969-.847 1.473-.371.683-1.657 1.117-1.078 2.047.168.148.14.37.222.558.313.352.797.637.742 1.133.809.777 2.004 1.605 1.641 2.844.418.34.332.875.684 1.246-.067.375.453.512.507.851.614.774 1.11 1.594 1.305 2.547.16.399.39.766.457 1.196.68.593.695 1.453 1.13 2.156.57.914.343 2.219 1.53 2.832 1.07.687-.488 2.05.91 2.61.086.573.258 1.136.508 1.644.078.804-.207 1.758.453 2.324l-.05.68c-.883.41-.325 1.562-1.364 1.761-.636.121-1.062-.226-1.644-.226-.399-.871-1.559-.024-1.871-.969-.114-.398.047-.894-.453-1.129.074-.277-.086-.453-.286-.625-.48.094-.793-.414-1.25-.226-.535-.586-1.101-1.164-1.191-1.93-.375-.617-1.187-1.152-1.418-1.871-.605-.5-.434-1.32-.789-1.926.3-.543-.523-.758-.512-1.246-.68-.844-1.43-1.762-1.93-2.727-.265-.273-.28-.671-.343-1.02-.973-1.077-1.82-2.202-2.207-3.519-.738-.34-1.106-1.187-1.871-1.472-.227.039-.438.293-.512.508.105.378-.375.539-.453.851-.266.684-.652 1.371-.625 2.102a3.059 3.059 0 0 0-.68 1.699c-.793 1.055-.918 2.383-1.648 3.46.062.348-.29.548-.395.848-.574 1.649-2.87 2.184-3.344 3.973-.484.547-.804 1.418-1.59 1.59l-.91 1.02c.032.34-.363.605-.62.734-.708.457-.825 1.308-1.528 1.758-.523.488-1.176.89-1.934.968-.453.375-1.02.008-1.472-.117-.32.207-.574-.187-.738-.394-.286-.953.304-1.672.91-2.328.215-.555.02-1.274.394-1.758-.066-.555.645-.785.516-1.364 1.129-.785 1.347-2.14 2.094-3.171.558-.536.14-1.536.91-1.926.84-.715.054-2.094 1.074-2.727.394-.593.625-1.32.68-1.98.43-.684.312-1.59.742-2.274.055-.472.55-.836.281-1.359-.035-.566.281-1.207.172-1.816.14-.247-.012-.497-.172-.676l-.168-.176c-.937.04-1.336-1.176-2.27-1.133-.581-.133-1.203-.187-1.757-.394-.43-.516-1.078-.512-1.532-.97-1.062-.128-1.968-.648-3.007-.847-.32-.105-.711-.02-.965-.281-1.387-.059-2.664-.34-4.086-.34-.195-.117-.461-.219-.566-.457-.88-.242-1.84.055-2.61-.285-.402.027-.879.578-1.246.062-.766.25-1.113-.847-1.812-.457-.915.422-1.192-.765-2.043-.511-.747-.223-1.278-.84-1.758-1.473-.125-.5.14-1.02.453-1.363.215.066.332-.102.457-.223a.818.818 0 0 1 .45-.797c.85-.273 1.75.239 2.609-.168.68.094 1.332.254 1.984.395.363-.555 1.016.152 1.363-.395.367-.105.84 0 1.133-.285.7.098 1.55.348 2.098-.226.68-.059 1.296.574 1.875.226h4.136c.625-.418.926.777 1.649.285.312-.37.836-.226 1.246-.34.394.2.84.29 1.3.34.485.008.876-.543 1.305-.058.504-.332.953.308 1.418-.172.817-.5.903-1.531.739-2.324.109-1.153.218-2.293.57-3.344.215-.57.02-1.328.394-1.82-.109-1.301.91-2.211.739-3.457.086-.34.48-.223.566-.567-.039-.332-.094-.816.172-1.074.332-.145.426-.485.457-.797.309-.309 1.066-.5.848-1.133.226-.199.027-.566.168-.797.39-.195.539-.597.62-.965.286-.44.876-.753.856-1.3.54-.54.903-1.164 1.528-1.535.418-.622.937-1.547 1.761-1.645.567-.445 1.106-1.031 1.797-1.121zm.38.945c-.087-.004-.165 0-.25.008-.907.406-1.34 1.371-2.153 1.93-1.047.492-.68 1.68-1.645 2.265-.945.266-1.148 1.364-1.59 2.102-.367.152-.652.547-.789.906.043.934-.922 1.45-1.14 2.27-.024 1.258-.563 2.304-.848 3.457-.578.992-.113 2.422-.738 3.402.027 1.11-.54 2.125-.172 3.238a.785.785 0 0 0-.168.621c.3.805-.438 1.512-.906 2.098-.883.18-1.743.348-2.723.281-1.711-.754-3.922-.5-5.785-.226-.496-.992-.801.453-1.477.058-.715-.332-1.644-.453-2.379-.398-.324.55-.863.098-1.304.398-.383.141-.692-.226-1.024-.398-.633.457-1.64 0-2.156.738-.348.14-.742 0-1.016-.226-.382.066-.605-.332-.855-.453-.254.347-.66.039-.965 0-.453.718-1.398.261-2.098.398-.293.289-.707.309-1.074.45-.543.152-.144.796-.34 1.136.301.719 1.078.488 1.645.683.48.348 1.246.008 1.754.278.504-.453.738.37 1.25.23.511-.418.906.293 1.414.059.715-.457.937.906 1.762.508.332.398.984.199 1.418.172.074.109.277.171.226.34.559.206.965-.426 1.363-.06 1.067.04 2.118.407 3.172.114.371.746 1.211.598 1.817.856.785.09 1.773.007 2.55.28.426.481 1.098.407 1.645.567.316.407.785.453 1.25.508.535.012.937.383 1.477.398.53.54 1.753.852 1.304 1.876.281.394-.398.648 0 1.019.028.48-.031.934-.172 1.36.047.66-.52 1.078-.453 1.757-.89.38-.172 1.219-.566 1.762.222.848-.606 1.254-.57 2.039-.422.32-.34.86-.508 1.305-.653.633-.297 1.683-1.078 2.265-.086.184-.06.41-.227.57-.113.794-.664 1.419-.793 2.212-1.05.511-.578 1.738-1.418 2.378-.14.176.055.485-.176.625-.574.141-.508.766-.508 1.25-.125.32-.492.547-.566.903-.934.265-.574 1.262-.906 1.875l.68.058c.507-.14.558-.824 1.078-.906.5.121.586-.36.847-.625.817.207.614-.683 1.196-.91.668-.223.64-.96 1.128-1.363.829-.223.797-1.219 1.532-1.532-.149-.792.476-1.5 1.136-1.925.258-.84 1.41-1.32 1.137-2.38.16-.284.442-.484.797-.402.242-.07.25-.367.168-.562.82-1.137 1.473-2.344 1.754-3.688.219-.199.293-.52.172-.793.398-1.18.793-2.347 1.191-3.515 1.012-.473.672-1.692 1.703-2.098.367-.277.621.266.961.051.305.684 1.012-.168 1.305.516-.027.421.426.48.512.847.558.371.332 1.063.62 1.535.759.918.712 2.22 1.821 2.95-.012.507.64.746.676 1.246-.063.605.539.945.683 1.472.926.551.41 1.77 1.356 2.27-.035 1.82 2.469 2.297 2.555 4.082-.114.68.59.937.964 1.363-.093.805.84.797 1.25 1.192 1.008.52 1.747 2.136 3.063 1.87.45-.245.707-.757.512-1.25.453-.644-.118-1.292-.172-1.925-.32-.48-.746-.926-.739-1.531a3.196 3.196 0 0 0-1.59-2.782c-.058-.242-.062-.527-.335-.68-.266-1.023-.805-1.925-1.078-2.948-.551-.5-.172-1.418-.856-1.813.137-.898-.402-1.523-1.074-2.102.219-1.12-.492-2.003-1.137-2.832-.203-.53-1.047-.644-.906-1.304-.594-.899-.574-2.032-1.531-2.782-.38-.425-.149-1.097-.621-1.472-.739-.567.171-1.13.511-1.531.754-.473 1.274-1.38 2.04-1.93.738.027.812-1.18 1.644-.91 1.18-.645 2.098-1.633 3.117-2.496.758-.735 1.719-1.188 2.727-1.414.195-.133.222-.332.28-.512.7-.567 1.306-1.121 1.985-1.586.473.055.785-.305 1.192-.398.195-.368.48-.653.847-.852-.027-.566.598-.848.852-1.3.91-.446 1.695-1.45 2.613-1.985-.031-.313.25-.504.395-.742.027-.329.226-.868-.168-1.079-.465.204-1.055.293-1.59.168-.348.036-.547.403-.965.29-.652.035-.879.69-1.531.738-.52.566-1.399.492-1.985 1.02-.707.148-1.332.574-2.043.734-.453.34-.94.07-1.414.402-.722-.117-1.023.773-1.648.906-.77-.246-.82.575-1.191.965-.622.223-.707 1.016-1.36 1.188-.875-.02-1.312 1.023-2.21.964-.626.434-1.4.524-2.098.797-.633.368-1.25.942-1.989.903-.773.718-1.672 1.164-2.55 1.648-.825.23-1.797.121-2.383-.57.172-.68-.082-1.473 0-2.266-.38-.453-.207-1.137-.34-1.703.273-.312.187-.758.281-1.133-.086-.539.43-1.047 0-1.531.227-1.266.164-2.637.91-3.688a1.429 1.429 0 0 1-.168-.851c.7-.594.422-1.578.395-2.324.273-.567.87-1.067.793-1.703.926-.47.258-1.606 1.25-2.043.168-.621.699-1.102.683-1.817.442-.383.329-.988.395-1.523-.09-.258-.309-.34-.547-.352zm-5.696 12.317l.285.285c.078.265-.285.347-.336.566-.172 1.418-.523 2.953-.234 4.363.109.454.109 1.004-.223 1.364.074.683.047 1.39.457 1.93-.242.714.426 1.214.395 1.925 0 .492.652.707.68 1.188.64.425.734 1.62 1.64 1.25.617-.075 1.07-.535 1.648-.68.68-.355 1.239-1.02 2.043-1.078.82-.274 1.219-1.152 2.04-1.418.257-.48.85-.453 1.19-.848.657-.058 1.165-.472 1.7-.793.488 0 .816-.398 1.191-.625-.027-.191.192-.277.29-.398.593-.027 1.007-.473 1.468-.793.23.055.563-.145.684.168.058.152-.086.238-.168.34-.285-.133-.383.23-.57.34-.399.09-.712.425-1.133.453-.168.465-.684.605-1.024.91-.82.195-1.445.879-2.324.965-.68.82-1.711.879-2.328 1.758-.66.28-1.195.859-1.926 1.019-.66.738-1.621 1.023-2.152 1.871.015.625.726.75 1.074 1.137.652.426 1.48.691 1.875 1.472.7.692 1.152 1.57 1.816 2.329.364.793 1.094 1.441 1.246 2.324.512.488 1.07.992 1.079 1.7.101.378.593.464.562.905.457.512.457 1.223.965 1.703.086.2-.137.266-.223.399-.633-.16-.523-.938-1.027-1.309.023-.422-.445-.554-.445-.96-.606-.84-1.063-1.786-1.704-2.555-.18-.586-.835-.961-.91-1.586-.48-.739-1.078-1.559-1.816-2.04a2.394 2.394 0 0 0-1.3-.968c-.485-.809-1.306-1.063-2.102-1.246-.368.058-.856.039-.965.512.031.32-.422.437-.453.734-.055.684-.743 1.11-.735 1.816-.46 1.364-1.246 2.59-1.418 4.082-.406 1.559-1.457 2.844-1.703 4.485l-.34.68c.028.167-.039.288-.172.398-.253.082-.375-.145-.566-.23.031-.227.145-.473.34-.567.57-1.547 1.11-3.11 1.82-4.594.102-.625.25-1.222.395-1.816.133-.442.328-.848.394-1.305.2-.215.074-.555.34-.73.191-.91.559-1.82.566-2.727.22-.305.114-.586.063-.906-.375-.477-1.023-.504-1.59-.63-.633-.42-1.418-.554-2.156-.73-1.024.008-1.766-.644-2.836-.515-.398-.332-.941-.3-1.414-.453-.75.258-1.082-.5-1.766-.395-.847-.047-1.695-.105-2.433-.402-.2-.027-.457.09-.57-.168-.055-.16.085-.242.167-.336.73-.246 1.07.434 1.762.281 1.27-.215 2.117.578 3.29.57.937.516 2.257.09 3.12.79.938-.168 1.66.664 2.496.226.707.125 1.774.324 2.211-.394.145-1.02-.691-1.637-.793-2.555-.351-.422-.465-.953-.57-1.473v-4.535c.305-.766.36-1.637.402-2.496.383-.598-.144-1.73.73-1.984zm1.304 13.199c-.214.012-.394.246-.562.406-.352.43.156.856.223 1.195.218.145.453.2.738.168.332-.273.871-.558.566-1.074-.066-.387-.488-.418-.734-.625a.351.351 0 0 0-.23-.07zm0 0" fill="#211e1e"/></svg>