<svg xmlns="http://www.w3.org/2000/svg" width="64pt" height="64pt" viewBox="0 0 64 64"><path d="M34.469.004a.296.296 0 0 0-.164.098c.199 1.289-.106 1.214 1.136 2.757.227.168.57.43.875.715.13 1.067.579 2.098.91 3.215.352 1.219.516 2.473.262 3.734-.547-.78-1.37-1.156-2.078-1.722-.144-.434-.156-.992-.36-2.078-.417-.77-1.987-2.774-3.116-3.993-.395.09-.254.211-.293.454.894.71 1.406 2.394 2.437 3.312 1 .66.219 1.754.649 2.629.546.89 2.386 1.633 2.242 2.535-.606 1.59-.93 3.559-1.074 4.64-.274 1.72.3 2.317.421 3.864-.058.68.036.863.036 1.137.101.558-.032.582-.36.976-1.078.914-2.3 1.84-3.472 2.692-1.137-1.262-1.368-3.184-2.403-4.61-.828-.738-1.62-1.535-2.176-2.5-1.5-1.48.227-2.996-.941-5.097-.734-1.18-1.21-2.121-1.398-3.473.562-1.187 1.171-2.95 1.203-4.351-.203-.5-.297-2.11-.813-2.403-.308.367.09 1.973.035 2.531-.238 1.426-.355 2.504-1.074 3.54-1.074-1.836-.555-3.77-.875-4.934-.332-.395-.828-1.285-1.168-1.688-.246-.398-.492-.984-.781-.421.531.832.992 1.812 1.43 2.726.007.887.07 1.805.097 2.66-.906-.68-1.414-1.164-2.34-1.785-.312-.566-1.043-1.508-1.363-2.078-.773-.031-.297.566-.355.652 1.195 2.907 3.238 2.883 5.03 6.426.743 1.211.661 2.754 1.364 4.027.168.727-.219.7-.258 1.04-1.476-.7-3.129.097-4.613-.52-1.223-.75-.957-1.602-2.402-3.184-.657-1.078-1.63-1.43-1.426-2.66-.059-1.062.785-1.695.648-2.726-.171-.555-.226-.97-.453-1.496-.265-.723-.593-.418-.617-.227.172.394.25 1.27.453 1.656-.238 1.04-.597 1.723-.812 2.63-.266-.212-.477-.274-.746-.974-.54-.847-.832-2.48-1.137-2.304-.281.875.394 2.62 1.07 3.504 1.395 1.36 1.766 3.14 3.215 4.48-1.074.13-2.336-.453-3.375-.844-.39-.328-.789-.808-1.234-1.07-.922-1.965-1.86-1.344-3.086-2.726-1.121-.348-.516.402-.063.714.66 1.106 1.153.41 1.785 1.559.047.184-.175.215-.293.355-1.187-.175-2.277-.925-3.18-1.101-.655.402.833.84 1.134 1.168.953.394 2.043.875 3.054.55.82.723 1.399 1.333 2.403 1.723 1.097.426 1.976.66 3.02.875.128.032.616.742 1.003.91 0 0 1.02.825 1.496.875-.21.946.203 2.09-.031 3.051-.195.496-.363.942-.488 1.461.234.777.43 1.602.39 2.438-1.113-1.692-1.953-3.868-3.054-5.746-.07-1.082-.422-2.754-.844-2.825-.988-.445.562 1.73-.031 2.368-1.383-1.336-3.102-2.32-4.286-3.895-1.578.441.723 1.582.907 2.434.359.933.093 1.906.23 2.89-.762.176-1.531.293-2.305.356-.714-.114-1.43-.086-2.113-.032-.473-.777.102-2.664-.031-3.02-.29-.073-.5-.054-.617.587-.078 1.555-.57 3.066-.258 4.64-1.117.204-2.11-.675-3.348-1.199-.879-.523-.527-1.941-1.62-2.144.155 1.836 1.292 3.816 2.53 5.36-1.23-.071-2.472-.567-3.472-1.106v.03c-.434-.167-.719-.733-1.168-.616a1.13 1.13 0 0 0-.164.457c.574.738 1.457 1.027 2.242 1.332 1.152.492 2.36.781 3.535 1.07.246.527.922.856 1.203 1.395.867.804 1.024 2.117 1.461 3.02-1.14-.063-1.754-1.25-2.922-1.2-.414.117-.828.246-1.234.387-1.969.152-3.606-.418-5-.52-.582.477.73.824 1.656.945-.594.735-1.09 1.075-1.98 1.555.011.09-.149.371-.032.426 1.36-.129 1.82-1.192 2.985-1.692 1.258.301 2.722.079 3.93-.16.968.715 1.925.836 2.726 1.524 1.84.136 3.098.293 4.676.422-.098 1 .152 2.21.422 2.988.293.473.675 1.293.879 1.656.23 1.461.546 2.235.843 3.832-.562-.043-.863-.375-1.265-.55a7.56 7.56 0 0 1-1.461-1.43c-.352-.555-.375-1.18-.684-1.657-.39-.367-.71-1.851-1.137-1.203.282 1.016.59 2.285 1.301 3.25.895 1.446 2.086 2.438 3.473 3.051.129.52.41.984.52 1.559-.067.543.136.87.03 1.394-.32.02-.261.246-.617.227-.726.05-1.445.18-2.14.39-1.352.391-2.418.36-3.8.684-.352-.137-.458-.43-.813-.555-.758-.808-1.5-.687-1.75-1.62-.055-.606-.02-1.438-.293-2.016-.536-.786-.993-2.16-1.461-2.368-.641.454.386 1.797.777 2.465.355.75.273 1.344.36 2.145-.29.176-.489.277-.813.258-.637-.125-1.094-.621-1.625-.942-.52-.281-1.176-.148-1.688.098-.535-.16-1.035-.371-1.492-.715-.43.34.32.984.551 1.203.672.242 1.41.309 1.98-.066.586.222 1.008.73 1.59.976.621.344 1.235-.047 1.883 0 .676.543.95 1.063 1.594 1.559.687.355 1.281.45 2.043.387-.313.41-.7.609-1.102.941-.316.36-.258.879-.422 1.234-.386.211-.836.563-1.203.75-.508.18-.883-.117-1.332-.164-.328.141-1.004.055-.875.586.985-.25 2.004.473 2.89-.195-.41.77-1.218 1.953-1.98 2.273.446.325.778-.125 1.168-.261.582-.586 1.114-1.364 1.559-2.047.336-.38.351-1.047.586-1.461.46-.54 1.078-.942 1.621-1.395 1.055-.59 1.508-.632 2.434-.78.906.26 1.765-.532 2.566-.032-.016.722.91.664 1.234 1.168.055.449.364.73.551 1.105.438.543 1.11.688 1.625 1.137.664 1.043 1.113 2.14 1.688 3.18 1.16.39 1.941 1.437 2.855 2.015 0 .52-.058.953-.094 1.426.36.723.672 1.29 1.04 1.98-.258 1.712-.715 3.426-.813 5.165-.266.582-.422 1.527-.422 1.527 1.258.273 8.742.871 9.48.355 0 0-.914-4.886-1.851-7.402-.117-1.789 1.305-3.133 1.687-4.773.567-.48 1.36-.72 1.754-1.395.348-.918.903-1.601 1.59-2.273.352-.555.582-1.168.781-1.852.254-.27.426-.512.747-.68.886-.246 1.703-.738 2.562-.812.57-.531 1-1.207 1.691-1.625 1.086.078 1.664-.328 2.532.36.21.288.64.445.843.777.52 1.113 1.692 2.234 2.243 3.215.988.44 2.058.144 3.02.683.44.25.651.844 1.167.941.418.083.95.16 1.297-.035.043-.172-.07-.254-.098-.386-1 .3-1.609-.778-2.304-1.075.414-.62 1.601-.8 2.402-1.168.16-.261-.102-.394-.227-.453-1.097.336-1.878.442-2.757 1.137-.48-.113-1.371-.473-1.852-.39-.187-.192-1.262-1.239-1.43-2.372-.48-.879-1.453-1.105-1.882-1.949.07-.125.257-.226.355-.289.926-.246 1.426.73 2.176.941.66.168 1.316.516 1.949.52.863.008 1.531-.688 2.371-.715.664.074 1.106.067 1.656.293.887.5 1.102 1.574 1.72 2.305.663.265 1.218.601 1.948.617.13-.078.258-.18.227-.36-.637-.195-.945-.609-1.559-.812-.554-.86-1.054-1.7-1.914-2.27 1.215-.753 2.778-.55 3.992-.585.704.164 1.145-.52.391-.684-.73-.172-1.414.102-2.11 0-1.245.152-2.21.54-3.25.781-.546.032-.995-.36-1.62-.097-.344.16-.602.386-1.008.488-1.043.16-1.98-.137-2.953-.422-.086-.156-.293-.273-.262-.457.703.063 1.168-.184 1.754-.387 1.469-.172 1.262-1.468 1.98-2.015 2.461-.641 1.657-1.188 2.957-1.98.63-.192 1.309.187 1.785.323.805.297 1.532-.363 2.305-.289.422.125.899.38 1.363.325l.032-.489c-.516.063-.95-.265-1.364-.39-.68-.102-1.285.207-1.785.39-.91.04-1.425-1.062-2.402-.586-.004-.652.195-.96.715-1.328.61-.004 1.398-.273 2.402-.847.606-1.215 2.031-1.754 1.883-2.11-.34-.015-.723.153-1.04.262-.866.648-1.046.867-1.526 1.363-.637.512-1.555.238-2.208.746.153-.761.891-1.43.618-2.304-.485-.891.02-1.864-.067-2.664-.527.238-.562.718-.71 1.203-.247.925.609 1.652.093 2.53-.594.821-.851 1.821-.875 2.763-.434.55-.621 1.261-1.168 1.656-.457.168-.871.176-1.234.387-1.285.457-1.336 2.277-2.762 2.468-1.586.114-3.035.621-4.414.586.43-1.918.5-3.789.941-5.652.391-1.02.97-1.988 1.43-2.984.25-.422.719-.63 1.137-.942.672-.32 1.336-1.644 1.492-2.242.48-.668 1.012-.406 1.723-.973.484-.047.808-.433 1.297-.457 1.011.172.91-1.031 1.914-.777.37-.012.527.5.78.746.825.457 1.95-.043 2.598.715.758-.024 1.54-.383 2.176-.813.125-.148.164-.351 0-.488-.64.461-1.347.621-2.078.652-.586-.57-1.5-.312-2.242-.554-.172-.39-.402-.793-.809-.973-.093-.297.395-.289.52-.52 1.46-.8 2.547-1.93 4.023-2.238-.093-.422-.218-.144-.453-.328-.738-.035-2.082 1.211-2.597.91-.993 1.145-2.036 1.32-3.149 2.274l.031.031c-.629.406-1.148.613-1.914.488.035-1.066.887-2.691 1.914-3.605.235.144.82.215 1.07.262.872-.7 1.637-1.38 2.762-1.59.2-.04.489-.254.063-.422-.336-.211-.7-.016-1.004.062-.813.27-1.18.68-1.883 1.203-.305-.066-.613.04-.812-.359.386-1.207.87-1.828 1.297-2.793.187-.707.136-1.324-.387-.648-.403 1.93-1.594 1.875-1.79 3.863-.827.621-1.265 2.512-1.98 3.281-.261.48.094 1.227-.422 1.559-.453.07-.941.3-1.199.617-.558.484-.453 1.57-1.363 1.656-.285-.578-1.027-1.172-1.137-1.883-.66-1.68.969-3.27.582-5.066-.101-.535-.289-1.414-.484-1.883-.254-.055-.227-.531-.488.063.328.941.449 2.226.226 3.25-1.152-.992-1.879-2.5-2.793-3.672.047 1.465 1.242 2.781 2.113 3.96.32.825-.32 1.802-.164 2.762.29.762.5 1.618.88 2.403.074.402.128.926-.067 1.297-1 1.535-1.79 3.172-2.469 4.84.082.242.074.609.098.91-.832 1.312-.332 2.98-1.266 4.316-.308.613-1.012.594-1.43 1.04-.68.276-1.433.589-2.175.452-.25-.406-.14-.816-.52-1.199-.14-.84.238-1.656.133-2.5.258-.648.809-1.14 1.07-1.82 1.043-1.387.004-2.989.325-4.512.066-.531.359-.871.585-1.332.57-.582 1.313-1.098 1.754-1.816.575-.782 1-1.72 1.04-2.727-.02-.113-.169-.238-.262-.262-.297.649-.606 1.266-.875 1.883-.48.777-.934 1.7-1.754 2.047.328-1.309-.156-2.715-.227-4.027-.847.953.035 2.343-.23 3.539-.074.816-.489 1.492-.875 2.175-.367.918.14 1.993-.032 2.922-.203.602-.09 1.04-.617 1.364-1.543-1.106-1.136-2.743-2.402-4.024.203-1.031.621-2.492.355-3.605.403-1.918 3.047-3.856 2.176-4.645a47.708 47.708 0 0 1-2.988 4.192c-.133.976.148 1.988-.16 2.953-.54-.489-.977-.953-1.559-1.43-.531-.574-.824-1.496-1.265-2.11-.024-.238-.032-.507.03-.616 1.735-2.188 4.227-3.75 6.138-5.973.488-.38 1.625-.559 2.109-1.008 1.351-.555 1.594-1.852 2.305-3.148.843-.98 2.504-1.114 3.476-1.657 1.563-.32 2.406.743 4.024.551.93-.047 1.804-.371 2.632-.648.778.09 1.598.906 2.305 1.625 1.07.308 2.027-.352 2.953.617.274-.106.485-.254.164-.715-.437-.426-.66-.535-1.008-.555-.593.063-1.128 0-1.203-.03-.46-.032-.894-.212-1.101-.52-.504-.61-1.028-.813-1.723-1.266-.77-.055-1.394.305-2.043.586-.82.144-1.758.453-2.535-.035.953-.102 1.965-.614 2.566-1.59.2-.2.118-.274.293-.488.844-.97-.273 1.546 1.102.39.867-.496 1.566-1.125 2.305-1.722-.008-.141.05-.317-.094-.387-.899.12-1.34 1.039-2.145 1.394-.902.95.164-1.777-.843-1.265-.922.894-1.54 2.457-2.825 2.953-.437-.055-1.382.234-1.82.035-1.36-.152-1.988.297-3.117.875.996-1.91 2.637-2.516 3.281-5.488.817-1.024.969-1.7 1.785-2.758.45-.797-.129-1.184-.39-.746-.086.176-.16.363-.227.55-.848 1.278-.387.848-1.492 1.915-.07-.871-.703-1.7-.879-3.407.2-1.043-.266-1.511-.55-1.136-.208.164-.087.484-.067 1.914.496 1.328.543 2.304.879 3.636-.332.848-.258 1.446-.977 2.176-1.008.875-1.629 2.375-2.336 2.696-.14-.258.485-1.032.586-1.332.406-1.118-.906-1.715-.652-2.793.387-1.32.719-2.586.488-3.961-.031-.364-.031-1.274-.52-.68.032 1.172.29 2.441-.226 3.473-.79-.727-1.68-2.696-1.785-2.598-.973-.027 1.281 2.586 1.332 4.125-.137.984.488 1.008.484 2.336-1.308 1.715-1.031 4.148-2.824 5.453-.977.355-1.754.36-2.66.781-.344.082-.84.825-1.106.875-.273-.578-.113-1.425-.324-2.172-1.117-2.421.93-4.875 1.004-9.87.574-1.196 1.129-1.426 1.496-2.727.633-.63 1.528-1.02 1.914-1.43.848-.89 1.27-2.125 1.168-2.371-1.457.133-.566.867-1.719 1.723-.515.05-1.46 1.066-1.785 1.394-.668.54-.71 1.473-1.398 2.176-.324-1.266-1.266-2.238-1.102-3.637.11-1.761 2.117-.777 2.078-2.664-.039-.117-.183-.316-.324-.191-.226 1.629-1.875.816-2.402 2.27-.445-.364-.781-.598-1.008-1.137-.527-.84-.719-1.915-1.07-1.848zM14.989 15.75c.913.719 1.726 1.77 2.726 2.238.71 1.672 1.824 3.442 2.66 5.196-1.012-.559-2.273-2.051-2.887-3.375-.703-.2-1.433.054-2.078-.422-.473-.942-.46-2.387-.488-3.57.031.07.043-.008.066-.067zm7.788.55c.989-.054 2.11.305 3.02.813.504.848.426 2 1.46 2.532.278.285.77.66 1.04.91.789 1.05 1.285 1.773 1.754 2.953-.219 1.187-.086 2.504.52 3.41-.071.473-.395.871-.489 1.332.129.473.168 1.227.098 1.816-.266.66-.899 1.254-1.364 1.82-1.668-.456-3.023-1.085-4.511-1.85-.258-.196-.54-.43-.649-.747.082-1.133.45-2.367.063-3.508.082-.77-.57-1.46-1.137-1.816-.426-.79-.574-1.817-.746-2.86-.07-.84.621-1.453.586-2.304-.156-.82-.211-1.59-.067-2.434.137-.027.282-.058.422-.066zm-8.57 2.99c.14-.013.281-.013.422 0 .547 1.495 2.117 1.468 2.371 1.491.219.528.656.88.91 1.399.75.71 1.324 1.703 2.14 2.465.462.28 1.325-.024 1.657.52.48.589.516 1.425.52 2.206-.196.613-.055 1.031-.293 1.625-.997-.742-2.223-.484-3.375-.91-.809-.277-1.454.84-2.34.488-.93-1.062-2.578-1.058-3.082-2.433-.313-.29-.57-.657-.617-1.075.011-.789.824-1.394.777-2.27-.508-1.062-.277-2.097-.195-3.183.382-.168.714-.289 1.105-.324zm-4.316.097c.879-.078 1.804.254 2.726.16-.777 1.375.41 2.848-.164 4.191-.238.246-.25.719-.582.809-.465-1.285-1.59-2.117-2.047-3.344 0-.594-.144-1.226.067-1.816zm-3.637 1.62a.14.14 0 0 1 .098 0c.636.544 1.718.938 2.175 1.204.106-.102.555.215.711.227 2.09 2.187 2.77 4.503 5.133 6.527-.941-.02-1.93.148-2.793-.324-1.094-3.508-3.758-5.051-5.36-7.598.016.004.02-.027.036-.035zm27.336 7.86c.367 1.504 1.414 2.79 2.273 3.117 1.551 2.325 1.39 3.868 2.989 5.907-.512.722-.504 1.922-.715 2.761-.41.774.062 1.856.129 2.664-1.094 1.727-1.207 3.563-2.434 5.227-.828.215-1.758.71-2.34 1.46-.137-.054-.324-.257-.453-.421-.457-.816-.281-1.77-.39-2.695-.149-1.473-.903-2.664-1.333-4.059.286-2.723-1.078-5.234-.648-8.05l.55-.458c.891-.5.38-1.765.942-2.5.453-.898 1.211-1.894 1.43-2.953zm-15.52.746c.715.266 1.617.344 2.274.778-.512 1.004-.742 2.695-1.528 3.636-.457.504-.691 1.235-1.265 1.625-.317-1.484-1.75-2.675-1.754-4.351.008-.34.086-.617.133-.973.68-.418 1.355-.55 2.14-.715zm3.832 1.625c1.606.067 4 2.36 5.453 2.856-.175 2.687-1.175 5.883-.03 8.734-.778 2.309 1.238 7.336-.356 7.824-2.703-1.945-4.64-3.078-6.887-5.875-.969-2.336-1.312-4.914-2.14-7.37.132-1.829 2.855-2.63 2.468-4.743.223-.887.637-1.309 1.168-1.394.098-.016.219-.036.324-.032zm-21.898.883C-.172 19.527 7.926 7.387 19.566 2.617 31-2.363 45.207.215 54.13 8.945c9.039 8.395 12.34 22.235 8.121 33.82-4.082 12.012-15.883 20.864-28.57 21.337-12.332.8-24.664-6.348-30.172-17.403A31.928 31.928 0 0 1 .004 32.125zm0 0"/></svg>