<svg xmlns="http://www.w3.org/2000/svg" width="64" height="64"><path d="M30.338 62.955a30.902 30.902 0 0 1-15.405-5.07A31.12 31.12 0 0 1 3.58 44.442c-1.38-3.123-2.213-6.47-2.521-10.13-.077-.914-.077-3.713 0-4.628.305-3.626 1.111-6.884 2.488-10.06a41.977 41.977 0 0 1 1.633-3.213A31.226 31.226 0 0 1 16.4 5.197a41.257 41.257 0 0 1 3.147-1.603C24.79 1.286 30.757.487 36.504 1.323c7.497 1.09 14.396 4.952 19.276 10.79 1.596 1.908 2.781 3.722 3.952 6.046.53 1.053.686 1.325.767 1.337.103.016.108.031.174.529.015.117.141.51.28.873a29.622 29.622 0 0 1 1.112 3.509c1.378 5.48 1.23 11.325-.423 16.69-.551 1.789-1.095 3.134-1.964 4.859a30.502 30.502 0 0 1-5.761 7.96 30.953 30.953 0 0 1-23.58 9.04zM9.312 43.308c.057-.092.279-.15.603-.156.44-.009.516-.16.256-.51-.204-.277-.367-.336-.856-.315-.352.015-.486.043-.671.138-.229.117-.231.122-.246.368-.008.143.01.278.041.316.093.112.255.078.369-.076.13-.177.195-.144.195.099 0 .174.009.186.14.186.076 0 .152-.022.17-.05zm13.759-.422c.013-.051.04-.083.061-.07.02.012.113-.01.206-.049.226-.094.328-.09.702.032.303.098.322.1.409.021.06-.054.102-.065.122-.032.046.075.308.061.338-.018.04-.101-.218-.543-.357-.614-.255-.13-.989-.22-1.466-.181-.28.023-.374.051-.46.137-.206.206-.11.682.16.802.192.085.257.078.285-.028zm18.9-.39c.068-.151-.048-.46-.25-.668-.325-.334-1.234-.468-1.665-.245-.154.08-.244.292-.244.58 0 .203.186.424.311.368.193-.086 1.109-.122 1.272-.05a.994.994 0 0 0 .157.054.215.215 0 0 1 .091.04c.072.072.283.022.328-.079zm-9.2-.275c0-.373-.48-.855-1.005-1.012-.29-.086-.864-.092-1.024-.01-.064.031-.197.175-.295.319-.139.202-.182.313-.191.495-.013.235-.013.235.145.25.09.009.192-.014.236-.052.108-.093.369-.175.553-.175.226 0 .966.224 1.156.351.09.06.197.12.236.134.104.034.19-.1.19-.3zm21.642.098c.137-.257-.285-.893-.74-1.116-.237-.116-.289-.123-.645-.096-.589.046-.797.12-.889.316-.042.09-.09.241-.107.335-.03.167-.026.174.17.259.111.047.216.093.233.102.016.008.078-.063.137-.158l.107-.173.34.022c.27.017.393.052.603.172.145.083.27.17.28.192.018.051.326.232.403.236.031.002.08-.04.108-.091zm6.131-.33c.012-.148-.021-.2-.3-.484-.347-.353-.555-.444-.894-.393-.144.022-.24.077-.361.205-.174.185-.36.556-.307.61.018.017.25.037.516.044.314.007.59.044.79.105.443.133.54.118.556-.088zm-32.726-.768c.093-.167.141-.205.3-.234.356-.066 1.172.06 1.502.23.165.085.218.044.226-.175.014-.417-.184-.985-.37-1.061-.161-.066-1.124-.086-1.301-.027-.429.141-.602.431-.602 1.009 0 .53.06.593.245.258zm21.281.102c.018-.028.07-.041.118-.029.048.013.12-.014.162-.06.09-.1.048-.241-.141-.466-.218-.258-.298-.283-1.04-.322-.278-.015-.524-.005-.6.025-.157.06-.269.226-.306.451-.022.138-.006.195.078.285.101.108.114.11.296.045.231-.081.76-.088.902-.01.085.045.254.091.467.127.018.003.047-.018.064-.046zm-15.629-.336c.09-.089.062-.232-.089-.463a46.728 46.728 0 0 1-.22-.343c-.128-.201-.432-.295-.957-.294-.373 0-.482.018-.648.106-.11.059-.22.144-.244.19-.036.068-.074.457-.057.585.002.017.116.001.252-.035a2.2 2.2 0 0 1 1.508.17c.285.149.374.165.455.084zm-19.994-.169c.058-.037.078-.116.07-.28-.01-.154-.262-.418-.488-.508-.436-.174-1.129-.17-1.326.009-.074.067-.084.119-.058.295.05.332.087.376.28.332.204-.046.752.014.963.105.173.075.474.1.559.047zm-7.392-.08c.702-.003.772-.095.329-.435a.859.859 0 0 0-.46-.183c-.294-.037-.738.002-.877.076-.103.055-.116.236-.035.468l.053.154.242-.039c.133-.021.47-.04.748-.041zm51.031-.02a.297.297 0 0 1 .157-.107c.073-.015.09-.05.078-.16a.45.45 0 0 0-.082-.214c-.037-.041-.068-.098-.068-.126 0-.11-.367-.35-.677-.445-.392-.12-.622-.098-.916.087-.156.098-.23.183-.278.322-.085.248-.088.231.078.397.142.141.154.144.58.138.337-.006.492.015.694.091.329.124.359.126.434.018zm-20.09.018c.147-.046.157-.248.025-.518-.152-.31-.228-.378-.574-.512-.32-.124-.972-.166-1.282-.083-.306.082-.417.2-.479.505-.078.39-.07.44.074.494.105.04.166.028.349-.072.187-.102.281-.12.616-.12.488.001.583.025.647.165.028.061.1.118.16.127.235.035.384.04.464.014zm7.973-.082c.221-.274.008-.696-.475-.94-.289-.146-.3-.147-.825-.121-.712.035-.865.107-.938.44-.045.205-.041.256.023.337.165.207.37.248.618.124.236-.117.89-.069 1.23.092.308.144.306.143.367.068zm-19.434-.35c.013-.321-.156-.686-.39-.841-.374-.248-1.357-.287-1.843-.074-.34.149-.436.28-.436.601 0 .223.011.254.083.231.197-.062.61-.122.833-.121.506.002 1.276.25 1.512.486.079.079.096.08.16.017.04-.04.076-.17.081-.3zm25.945.202c.037-.146-.226-.783-.4-.969-.152-.163-.517-.287-.95-.321-.618-.05-.899.14-.926.625-.012.22 0 .26.1.324.101.067.12.067.185.002.048-.048.204-.081.463-.099.472-.032.798.07 1.157.362.265.216.333.23.371.076zm-47.824-.763c.164-.164.152-.256-.062-.5-.201-.228-.536-.42-.734-.42-.333 0-.775.38-.818.702l-.025.186.537-.007c.43-.005.566.01.68.074.195.112.283.104.422-.035zm7.696-.522c.345-.092.514-.083.83.046.249.1.3.106.495.056.329-.083.351-.129.181-.36a1.668 1.668 0 0 0-.325-.322c-.165-.114-.22-.124-.629-.122-.492.003-.836.111-1.04.329-.09.095-.1.142-.072.345l.033.234.141-.07c.078-.04.252-.1.386-.136zm-3.252-.056a3.08 3.08 0 0 1 .177-.225c.16-.188.16-.214.007-.398-.214-.254-.362-.302-.948-.305-.587-.004-.687.035-.901.35-.085.124-.1.194-.076.35.016.106.034.2.04.206a.786.786 0 0 0 .201-.056c.47-.165.88-.134 1.103.084.126.124.315.121.397-.006zm8.198-.223c.086-.104.019-.298-.168-.485-.09-.09-.162-.188-.162-.22 0-.143-.434-.405-.672-.406a.612.612 0 0 1-.232-.064c-.19-.1-.608-.013-1.108.229-.236.114-.458.243-.493.285-.086.104-.1.496-.021.575.088.088.131.078.26-.058.062-.066.156-.116.209-.11a.994.994 0 0 0 .285-.045c.303-.088.958-.069 1.187.035.107.049.21.112.227.14.018.03.075.053.128.053.052 0 .127.032.165.07.092.092.32.092.395.001zm41.538-.498c.143-.076.109-.208-.103-.399-.209-.188-.4-.284-.774-.385-.4-.108-.489-.09-.72.152-.206.215-.209.216-.358.148-.275-.126-.45-.136-.553-.033a.35.35 0 0 0-.094.213c0 .16.157.216.662.235.22.008.599.031.84.05.315.025.469.019.547-.023.087-.047.139-.044.27.013.089.039.168.072.177.074a.388.388 0 0 0 .106-.045zm-6-.259c.323-.048.547-.11.697-.194.201-.113.25-.121.576-.094.195.016.429.05.52.077.34.098.65.051.858-.13.114-.099.063-.178-.263-.41-.363-.259-.693-.358-1.19-.358-.488 0-.584.063-.619.402-.03.307-.068.34-.286.247-.458-.194-.683-.235-1.27-.232-.38.002-.631.024-.716.064-.17.081-.297.333-.252.502.028.107.066.131.243.155.41.056 1.233.042 1.702-.029zm-11.321-.05c.192-.044.26-.106.26-.232 0-.138-.335-.411-.596-.487-.235-.068-.722-.074-.889-.01-.097.036-.129.029-.165-.04-.025-.047-.18-.157-.344-.245-.27-.145-.341-.161-.77-.178-.58-.022-1.32.057-1.47.156-.174.114-.156.372.04.574.181.186.194.187.674.064a3.47 3.47 0 0 1 .902-.094c.515 0 .535.004.627.121.053.067.177.186.275.265.16.128.206.14.416.12.13-.013.322-.006.426.015.192.04.36.032.614-.028zm1.914-.02c.206-.105.34-.118.475-.045.138.073.295-.024.254-.158-.061-.207-.19-.282-.596-.348-.378-.06-.396-.06-.458.031a.239.239 0 0 1-.174.095c-.125 0-.187.134-.143.31.02.075.08.127.182.157.224.065.256.062.46-.042zm6.949-.049c.05-.027.091-.08.091-.12 0-.09-.225-.288-.37-.326a1.636 1.636 0 0 1-.348-.192c-.13-.09-.262-.163-.292-.163-.03 0-.234-.022-.452-.05-.431-.054-.946-.002-1.18.119-.132.068-.24.319-.24.557 0 .153.13.189.445.121.267-.057 1.698.01 1.77.082.042.042.487.02.576-.028zm-14.262-.6a.286.286 0 0 0 .083-.187c0-.09-.05-.136-.248-.228-.205-.096-.321-.116-.673-.116-.463 0-.514.017-.564.176-.061.197.008.296.207.296.099 0 .205.03.236.068.08.095.214.116.57.088.181-.014.34-.054.39-.097zm-2.622-.024a.167.167 0 0 0 .06-.113c0-.037.062-.08.14-.095.279-.055.292-.205.034-.399-.143-.107-.195-.114-.914-.129l-.763-.016-.055.167c-.045.135-.042.192.016.302.097.19.188.255.445.32.246.064.942.038 1.037-.037zm-2.663-.111c.035-.091-.04-.393-.124-.498a1.445 1.445 0 0 0-.316-.211c-.272-.145-.318-.147-1.977-.11a2.397 2.397 0 0 1-.403-.028c-.139-.025-.2-.014-.272.05-.09.081-.102.08-.34-.051-.237-.13-.273-.135-.768-.123-.527.012-1.18.117-1.288.206-.08.066-.074.163.018.318.116.196.33.255.689.19a2.964 2.964 0 0 1 1.103.006c.247.043.323.042.351-.003.028-.044.067-.038.165.026.127.083.13.083.215-.028l.085-.114.087.107c.085.105.091.106.274.03l.187-.079.107.134.106.133.817.027c.45.014.849.011.888-.007.04-.018.113-.002.163.034.12.087.198.084.233-.01zm14.337-.037c.102-.063.059-.183-.133-.365a1.148 1.148 0 0 0-.422-.25c-.345-.102-.936-.142-1.17-.08-.277.075-.487.262-.487.432v.135l.35-.013a3.77 3.77 0 0 1 .838.088c.483.1.913.122 1.024.053zm-36.706-.53c0-.265-.444-.51-.741-.408-.11.037-.13.068-.118.182.024.212.131.295.404.314l.349.026c.085.007.106-.015.106-.114zm1.365.019c.138-.104.325-.11.432-.013.113.102 1.168.152 1.505.071.248-.06.248-.06.226-.224-.028-.206-.033-.21-.428-.366-.548-.216-1.567-.215-1.905.002-.057.037-.256.089-.442.115-.186.026-.36.06-.384.076-.043.027-.013.321.04.408.013.02.207.031.433.026.31-.008.438-.031.523-.095zm-3.927-.018c.163-.017.307-.05.32-.07.013-.02.097-.026.187-.011.2.032.261-.07.146-.245-.107-.164-.31-.257-.636-.29-.219-.024-.304-.013-.391.048a1.11 1.11 0 0 1-.289.126c-.206.056-.223.134-.08.369.09.145.113.157.272.132.096-.014.308-.04.47-.059zm7.54-.069c.023-.02.104-.015.181.012.204.071.261-.004.174-.231-.077-.205-.224-.297-.475-.298-.173 0-.652.107-.752.168-.047.029-.021.317.036.41.028.046.78-.01.837-.06zm3.04-.023c.202-.086.888-.102.983-.023.031.026.071.033.089.015a.694.694 0 0 1 .231-.058c.24-.032.277-.128.13-.334-.113-.158-.331-.2-.331-.063 0 .072-.006.072-.086 0-.13-.118-.5-.155-.639-.064-.065.042-.13.056-.155.032-.157-.157-1.058-.238-1.527-.137-.346.074-.45.172-.41.388.04.21.155.341.24.271.031-.026.073-.033.093-.013.116.116 1.097.107 1.382-.014zm6.218.025c.097-.113.14-.115.44-.024.284.086.35.088.35.012 0-.043.095-.055.36-.043.198.009.38-.004.405-.03.025-.024.03-.121.013-.215-.027-.146-.057-.177-.204-.218-.269-.075-.562-.061-.612.028-.04.07-.064.07-.298-.012-.198-.069-.376-.087-.81-.082-.305.003-.555-.012-.555-.034 0-.021-.092-.093-.205-.16-.179-.104-.258-.119-.626-.117-.785.004-1.09.228-.92.675.041.108.059.114.225.075.358-.083 1.136-.037 1.48.087.038.014.091.02.117.012.11-.033.375.008.466.072.137.095.278.086.374-.026zm-3.584-.169c.109-.108.092-.186-.07-.323a.494.494 0 0 0-.49-.093c-.088.034-.097.201-.02.37.048.105.085.12.28.12.142 0 .253-.027.3-.074zm44.465-.015c.057-.093-.058-.249-.305-.412-.257-.169-.263-.17-.637-.144-.208.015-.423.04-.478.057-.094.028-.101.01-.123-.317-.02-.292-.047-.382-.178-.574-.085-.125-.203-.25-.263-.278-.09-.04-.102-.068-.067-.16.024-.062.097-.51.164-.998l.304-2.21c.309-2.227.303-3.57-.018-4.295-.15-.341-.482-.689-.792-.832-.138-.063-.258-.131-.266-.15-.03-.066-.197-.036-.197.035 0 .039.072.15.16.248.188.21.525.751.653 1.05.214.498.23.706.154 1.863-.039.591-.092 1.17-.119 1.289-.052.233-.242 1.723-.353 2.777-.092.87-.113.968-.23 1.095-.119.127-.483.215-.941.229-.177.005-.345.031-.372.058-.083.084.01.163.165.14a.486.486 0 0 1 .307.075.856.856 0 0 0 .416.1c.155.002.262.026.276.062.014.036.113.06.254.06h.23l.031.29c.017.16.03.392.03.517 0 .177.02.239.092.277.116.062.414.063.452.002.047-.078.105-.055.133.053.02.075.048.092.112.065.166-.07.56-.073.818-.007.309.08.551.094.588.035zm-2.69-.13c.093-.035.068-.238-.042-.339-.079-.071-.202-.098-.573-.123-.26-.018-.78-.066-1.158-.107-.918-.1-2.74-.112-2.853-.018-.108.089-.08.234.066.34.119.087.718.159 2.268.273.559.041 2.164.024 2.291-.025zm-5.336-.307a.425.425 0 0 0 .03-.183 1.392 1.392 0 0 1 .055-.336c.05-.172.094-.224.269-.314.174-.091.253-.104.474-.08.171.02.372.005.567-.04.166-.04.546-.087.845-.105.914-.056.99-.064 1.087-.116.149-.08.118-.221-.059-.276-.084-.026-.483-.057-.886-.07-.403-.012-.799-.046-.88-.076-.128-.048-.151-.084-.177-.272-.016-.119-.03-.42-.03-.67 0-.468-.143-1.85-.23-2.225-.086-.37-.152-2.188-.105-2.882.05-.723.15-1.058.412-1.364.088-.102.16-.196.16-.208 0-.062-.218-.067-.38-.01-.272.096-.45.246-.732.614-.437.57-.445.624-.352 2.196.107 1.812.137 2.117.229 2.393.157.47.283 1.399.276 2.031l-.007.574-.388.016c-.43.018-.567.086-.761.37-.11.16-.136.408-.077.705.048.24.558.494.66.328zm-9.087-.165c.101-.052.256-.076.47-.072.268.005.325-.008.366-.084.076-.142.06-.176-.13-.275-.304-.158-.609-.203-2.54-.372-.272-.024-.342-.015-.395.048-.035.042-.09.077-.121.077-.08 0-.186.344-.15.488.047.187.425.248 1.603.26.612.006.774-.006.897-.07zm-13.267-.089c.685-.033.72-.042.72-.187 0-.142-.206-.282-.475-.323a2.601 2.601 0 0 1-.515-.181c-.483-.223-.51-.298-.563-1.548a90.813 90.813 0 0 0-.113-2.022 33.067 33.067 0 0 1-.073-1.793c-.001-.742 0-.743.147-1.026.257-.49.466-.784.591-.832.067-.025.245-.046.396-.046.419 0 .527-.212.169-.33-.133-.044-.168-.078-.157-.155.012-.083.086-.114.487-.204.624-.14.725-.183.782-.332.026-.069.042-.131.034-.138a1.124 1.124 0 0 0-.25.033c-.16.031-.454.028-.92-.01-.637-.051-.695-.064-.82-.18-.129-.12-.267-.336-.267-.418 0-.022.32-.044.71-.05.39-.004.75-.03.797-.055.123-.066.075-.28-.075-.337-.064-.024-.378-.044-.7-.044-.322 0-.593-.015-.603-.035-.01-.02-.009-.145.002-.28l.02-.243.171.072c.199.083.596.055.813-.057.172-.089.222-.238.118-.353-.072-.08-.632-.257-.922-.293-.201-.025-.133-.14.225-.38.43-.289.503-.394.46-.653-.028-.16-.06-.206-.182-.257a1.312 1.312 0 0 0-.287-.078c-.129-.016-.144.001-.26.289-.097.242-.163.332-.32.438-.406.272-.542.6-.542 1.31 0 .273-.03.667-.067.875-.09.51-.084.65.032.798.055.07.216.185.358.257l.259.13-.362.423c-.38.442-.636.854-.76 1.217-.064.187-.067.363-.024 1.364.026.631.08 1.34.118 1.573.13.786.183 1.637.122 1.948-.053.27-.019.738.072.966.022.057-.007.099-.103.148a1.47 1.47 0 0 0-.265.191c-.105.098-.125.148-.1.253.032.131.16.314.195.278.01-.01.074.033.142.095.19.176.502.254.91.23.195-.013.589-.034.875-.048zm3.416-.158c.024-.325-.274-.719-.614-.811-.163-.044-.171-.056-.133-.176.022-.071.2-.618.396-1.215.335-1.022.359-1.125.407-1.724.029-.351.082-.797.12-.992.268-1.387.14-2.616-.339-3.268-.154-.21-.378-.37-.52-.37-.1 0-.077.065.1.29.09.113.179.27.196.348.017.078.083.259.147.402.107.237.117.318.116.92 0 .682-.033 1.073-.203 2.457-.103.844-.34 1.778-.688 2.715-.241.65-.374.846-.595.882-.212.034-.246.075-.174.21.044.082.084.096.216.074.089-.014.272.007.408.047.15.045.324.063.446.046.19-.026.21-.017.4.185.11.117.222.205.25.196.027-.01.056-.106.064-.216zm17.918-.104c0-.148-.075-.177-.238-.09-.074.04-.101.025-.16-.088-.126-.244-.453-.322-.927-.22-.194.04-.41.087-.481.102-.106.023-.137.007-.173-.086-.1-.264-.355-.323-.888-.205-.406.09-.508.131-.66.27-.1.09-.103.09-.333-.026-.344-.174-.521-.193-.942-.1-.277.062-.404.117-.506.219-.117.117-.127.146-.072.212a.235.235 0 0 1 .05.164c-.02.112.065.111.3-.002.315-.15.707-.21.959-.147.12.03.24.072.267.094.026.021.143.046.26.055.17.012.26-.013.449-.126.324-.193.638-.195.912-.005.205.142.17.14.759.05.117-.019.307.006.531.067.458.126.606.138.763.063.098-.047.13-.097.13-.2zm-5.822.087c.034-.071.073-.23.087-.354.024-.207.01-.248-.168-.5-.14-.197-.194-.323-.196-.448-.001-.096.117-.568.264-1.049.146-.48.306-1.054.356-1.275.184-.825.47-2.463.47-2.698 0-.206-.18-1.224-.27-1.53-.015-.051-.163-.234-.329-.406-.272-.282-.32-.313-.49-.313-.102 0-.187.02-.187.043 0 .024.072.156.16.293.196.306.333.608.483 1.058.094.284.113.44.113.89 0 .314-.028.661-.066.814a7.933 7.933 0 0 0-.124.692 3.36 3.36 0 0 1-.12.578c-.053.13-.592 2.273-.777 3.093-.066.292-.025.415.14.415.043 0 .139.062.212.138.113.118.128.163.101.307-.023.125-.01.2.053.286.106.146.207.133.288-.034zm-44.785-.01a.963.963 0 0 0 .252-.15c.073-.062.164-.112.202-.112a.11.11 0 0 0 .094-.066c.014-.037.121-.08.238-.098.315-.047.233-.131-.22-.225-.55-.114-.893-.264-.999-.438-.113-.185-.111-.214.056-.926.124-.524.255-1.284.306-1.766.015-.14.071-.387.194-.85.034-.13.14-.364.236-.52l.248-.409a.345.345 0 0 1 .242-.157c.871-.169 1.06-.215 1.17-.287.06-.04.099-.09.085-.114-.014-.022-.297-.039-.628-.036-.493.005-.636-.01-.79-.081l-.19-.087.167-.031c.237-.045.282-.084.282-.243v-.14l-.236.03c-.432.058-.482-.131-.202-.763.128-.288.2-.398.263-.398.148 0 .364-.139.364-.235 0-.129-.077-.16-.416-.172-.165-.005-.31-.02-.324-.034-.056-.056.056-.244.311-.518.366-.394.389-.44.3-.627-.068-.141-.065-.166.047-.41.098-.215.149-.27.289-.316.093-.031.19-.043.216-.027.096.06.245-.071.23-.201-.018-.147-.126-.188-.511-.195-.383-.006-.578.064-.741.267-.305.38-.392.67-.254.846.09.113.09.129.019.269-.042.082-.17.275-.285.429-.207.276-.21.283-.18.566.024.236.011.32-.068.474-.069.132-.098.277-.098.49 0 .337.115.843.217.956.111.124.078.273-.17.762-.13.256-.236.511-.236.567 0 .055-.036.216-.08.357-.075.237-.076.267-.006.389.073.126.07.145-.055.409-.16.337-.267.868-.307 1.528-.016.272-.07.704-.12.958-.049.254-.078.491-.064.527.013.035.002.078-.026.095-.115.071-.009.492.17.67.071.072.16.087.488.085.221-.002.455-.02.52-.042zm35.837-.053a2.93 2.93 0 0 1 .644-.068c.343 0 .43.016.534.098.136.107.22.088.22-.051 0-.163.292-.173.85-.03.273.07.52.127.55.126.211-.004-.096-.516-.366-.61-.248-.086-.793-.064-1.12.046-.28.095-.299.096-.502.019-.306-.117-.774-.08-1.128.09-.247.12-.283.126-.354.061-.097-.086-.624-.268-.778-.268-.212 0-.67.147-.824.264-.162.123-.197.243-.1.34.08.08.199.072.644-.04.331-.084.424-.091.64-.046.14.029.294.084.343.122.1.078.359.06.747-.053zM5.335 35.56c.07-.055.124-.145.124-.206 0-.156-.163-.34-.33-.374-.138-.027-.142-.034-.078-.136a.984.984 0 0 0 .098-.296c.018-.104.172-.582.344-1.063.262-.733.318-.943.346-1.305.019-.238.048-.456.066-.484.05-.082.126-.6.165-1.136.028-.376.021-.522-.027-.615a1.867 1.867 0 0 1-.114-.391.77.77 0 0 0-.244-.472c-.22-.23-.33-.45-.273-.556.069-.13.076-.532.01-.555-.033-.012-.155.074-.271.19-.18.18-.211.239-.211.4 0 .214-.055.246-.412.247-.15 0-.212.024-.249.094-.041.077-.029.106.072.173.105.068.166.073.438.03.302-.047.324-.044.497.072.204.138.279.262.41.684.084.266.088.345.042.836a6.173 6.173 0 0 1-.067.57c-.01.015-.06.282-.114.592a7.72 7.72 0 0 1-.59 1.87c-.197.423-.313 1.037-.222 1.181.046.075.036.096-.067.143-.082.038-.116.086-.107.153.012.08.044.095.17.086.158-.013.167-.003.22.236.035.161.192.175.374.032zm24.4-.058c-.027-.08-.225-.173-.369-.174-.074 0-.175-.058-.26-.148-.232-.246-.507-.339-.894-.302a2.2 2.2 0 0 0-.492.1c-.147.061-.171.06-.26-.018a1.674 1.674 0 0 0-.275-.176c-.16-.082-.206-.085-.516-.032a2.49 2.49 0 0 0-.462.116c-.237.114-.307.5-.08.443.595-.15.707-.163.93-.105.126.032.306.12.403.193.169.128.185.131.44.081.291-.057 1.174-.041 1.238.023.067.067.619.066.597 0zm-21.363-.168c.033-.087.035-.164.007-.215-.03-.053-.026-.103.012-.148.044-.054.044-.085-.003-.14-.085-.103-.036-.13.297-.171.272-.033.568-.026 1.272.03l.268.021-.043-.152c-.055-.197-.28-.387-.547-.461-.267-.075-.799-.034-.991.076-.14.08-.147.08-.295-.03a.41.41 0 0 1-.18-.294c-.036-.222-.137-.334-.271-.298-.055.014-.15.027-.213.027-.111 0-.112.005-.082.335.017.184.065.4.106.479.098.189.063.207-.447.238-.225.013-.497.06-.606.104-.15.06-.22.068-.292.03-.122-.066-.482-.066-.653 0-.125.047-.128.054-.048.113.054.04.067.074.036.093-.028.017-.05.068-.05.113 0 .063.084.1.377.167.37.083.383.083.697-.01.574-.17.58-.17.58-.018 0 .215.071.246.565.246h.453l.051-.135zm34.112-.127a.683.683 0 0 1 .223-.376c.09-.078.21-.235.269-.35l.105-.207-.1-.619c-.105-.66-.23-2.745-.251-4.208-.014-.937-.037-.834.347-1.544.126-.233.167-.49.083-.521-.27-.103-.75.255-.985.733-.235.48-.278.794-.232 1.712l.09 1.769c.026.532.087 1.185.135 1.45.049.266.078.535.066.598-.012.063.023.214.077.337l.098.222-.173.29c-.144.241-.173.332-.167.527.006.197.03.254.139.343.072.058.15.1.174.092.024-.008.07-.12.102-.248zm-29.899.027c.086 0 .254.023.373.053.182.046.252.042.45-.03a.9.9 0 0 1 .444-.054c.117.016.202.012.19-.008a2.354 2.354 0 0 0-.29-.22l-.267-.184-.196.071c-.178.065-.219.064-.468-.014-.54-.167-1.148.104-1.014.452.019.049.08.048.323-.002.164-.035.37-.063.455-.064zm-1.174-.084c.1-.358.07-.473-.187-.72-.13-.125-.236-.249-.236-.274 0-.026.075-.423.167-.883.16-.798.164-.84.083-.901a.398.398 0 0 0-.11-.066c-.075-.005-.193.334-.328.943-.084.377-.19.782-.234.901-.092.24-.063.396.08.442.05.016.14.08.2.144.088.094.098.13.05.186-.144.174.048.403.338.405.107 0 .135-.028.177-.177zm14.197.116c.13-.096.057-.484-.126-.667-.125-.124-.134-.151-.079-.237.034-.054.116-.193.183-.31l.12-.212-.013-1.11c-.012-.887 0-1.167.059-1.392a2.57 2.57 0 0 0 .073-.535c0-.148.076-.532.183-.923.101-.368.199-.803.218-.967a2.79 2.79 0 0 0-.126-1.058c-.047-.124-.48-.463-.591-.463-.105 0-.087.214.042.496.071.156.154.447.184.647.05.344.044.41-.116 1.205-.212 1.051-.211 1.04-.266 2.352-.051 1.2-.074 1.47-.148 1.746-.062.228-.363.544-.52.545a.402.402 0 0 0-.177.042c-.08.05-.03.147.076.147.104 0 .296.185.296.285 0 .129.178.323.273.298.048-.013.123.02.173.075.103.113.165.121.282.036zm-3.007-.092c.061-.076-.01-.272-.1-.272a.185.185 0 0 1-.12-.064c-.03-.037-.187-.075-.363-.09-.488-.039-.47-.124.046-.221.41-.078.603-.145.583-.204-.01-.028-.132-.11-.274-.182-.265-.135-.47-.328-.47-.442 0-.036.063-.223.14-.416.231-.575.292-1.089.38-3.193.038-.908.058-1.084.14-1.252.153-.31.596-.797.821-.903.257-.12.696-.453.664-.504-.033-.054-.223-.049-.378.01-.18.069-.275-.028-.125-.13.127-.086.138-.188.024-.217a3.338 3.338 0 0 0-.445-.024c-.267-.002-.411-.027-.55-.099l-.19-.096.09-.176a.843.843 0 0 0 .09-.305c0-.11.039-.146.26-.248.143-.065.26-.15.26-.188 0-.067-.226-.287-.331-.322-.087-.028 0-.168.138-.226.072-.03.264-.048.427-.04.27.013.304.004.381-.103.142-.198.152-.349.035-.522-.147-.216-.21-.221-.303-.025-.053.11-.114.17-.178.172-.054.001-.167.01-.253.018a.338.338 0 0 1-.244-.062c-.087-.076-.087-.083.009-.328.076-.195.131-.264.252-.315.118-.049.167-.108.206-.245.072-.26.066-.293-.091-.472-.171-.194-.174-.253-.03-.564l.113-.24.372-.067c.5-.09 1.58-.08 1.85.017.2.071.204.07.278-.042.042-.064.067-.122.057-.13-.061-.054-.698-.277-.97-.341-.459-.108-1.291-.069-1.737.083-.306.104-.335.126-.465.358-.175.313-.242.939-.112 1.046.121.101.097.348-.048.481-.207.19-.53.726-.587.971-.062.27-.132 1.82-.092 2.024a.42.42 0 0 0 .186.248.76.76 0 0 1 .214.213c.03.059.09.16.133.225.075.116.071.128-.18.515-.142.218-.29.504-.33.637-.094.313-.156.922-.19 1.855-.03.803-.2 2.013-.366 2.61a2.895 2.895 0 0 0-.102.598c-.002.22-.016.249-.177.363-.17.121-.173.13-.163.41.011.319.047.374.274.428.273.065 1.487.055 1.54-.012zm-3.17-.079c.04-.151.273-.218.553-.158.133.028.279.066.324.084.108.043.11-.061.003-.283-.12-.252-.482-.329-.922-.196-.181.054-.238.054-.368 0-.358-.151-.792-.02-.938.283-.055.115-.053.143.02.222.106.118.134.115.276-.027.103-.103.158-.118.452-.118.276 0 .34.015.364.083.073.205.197.262.236.11zm-1.799-.069c.073-.072.16-.347.16-.5 0-.18-.103-.296-.313-.355l-.182-.05.006-.283c.01-.38.3-1.43.582-2.099.368-.874.404-1.094.231-1.431-.128-.251-.37-.554-.442-.554-.204 0-.295.573-.192 1.204.052.32.05.407-.006.567-.12.342-.304 1.029-.447 1.677-.198.894-.19.869-.258.92a.376.376 0 0 0-.092.177c-.026.11-.012.137.095.177.07.027.186.048.26.048.11 0 .137.025.162.148.016.081.03.194.03.25 0 .057.024.128.055.159.061.061.268.029.351-.055zm-3.03-.35c.079-.169.124-.209.283-.247a6.21 6.21 0 0 0 .403-.117c.117-.039.314-.084.438-.101s.236-.047.25-.068c.012-.02-.135-.155-.327-.3a4.677 4.677 0 0 1-.4-.325c-.102-.122-.162-.933-.111-1.495l.048-.53.305-.301c.295-.292.385-.438.323-.524-.037-.051-.34-.158-.447-.158-.1 0-.098-.039.012-.465.225-.862.535-1.181 1.332-1.368.245-.058.325-.096.314-.15-.007-.04-.061-.079-.12-.087-.199-.029-.095-.248.168-.353.217-.087.306-.183.266-.287-.036-.093-.138-.095-.54-.006-.39.085-.76.089-.871.007-.083-.06-.082-.074.036-.332l.123-.268.186.03c.365.058.764-.2.615-.397-.12-.16-.206-.198-.452-.198-.215 0-.25-.012-.25-.09 0-.177.054-.24.206-.24.194 0 .455-.161.455-.281 0-.068-.051-.109-.189-.15-.104-.031-.189-.073-.189-.094 0-.02.04-.107.09-.193.05-.086.118-.247.15-.358.054-.185.05-.214-.043-.34a.534.534 0 0 1-.102-.258c0-.15.245-.432.413-.474.14-.035.248-.109.248-.167 0-.213-.942.121-1.197.424-.111.133-.12.172-.095.44.026.286.021.302-.193.648-.12.195-.25.46-.289.588-.107.362-.22 2.015-.143 2.093a1.3 1.3 0 0 0 .296.053c.365.039.367.118.01.383-.307.228-.662.627-.797.897-.1.197-.31 1.137-.38 1.701-.028.22-.064.927-.08 1.57l-.029 1.168-.198.096c-.356.172-.372.417-.047.702.243.214.394.191.519-.077zm31.751.121c.089-.126.097-.318.015-.324-.033-.003-.46-.013-.949-.024-.49-.01-.91-.031-.936-.047-.025-.015-.1-.143-.167-.284-.148-.312-.225-.322-.47-.058l-.362.387c-.304.323-.276.336.723.347.48.005 1 .028 1.157.052.156.024.426.047.6.05.277.005.325-.007.39-.099zm-12.161-1.112c.152-.136.303-.559.249-.699-.03-.075.034-.554.176-1.343.05-.273.122-.87.16-1.328.039-.457.095-.927.126-1.042.052-.195.048-.223-.054-.361-.061-.083-.146-.15-.188-.15-.226 0-.46.566-.398.962.05.32.036 1.265-.028 1.825-.065.572-.271 1.758-.334 1.924-.06.156-.018.343.075.343.038 0 .135-.059.216-.131zm12.284-.85c.353-.548.595-1.16.629-1.593a7.65 7.65 0 0 1 .148-.897c.072-.313.119-.663.119-.882 0-.394-.026-.512-.114-.512-.032 0-.095-.08-.141-.176-.064-.133-.093-.159-.122-.106-.08.144-.405 1.784-.689 3.47l-.15.886c-.042.232.103.147.32-.19zm-41.922.185c.048-.048.1-.183.117-.301.016-.118.095-.38.175-.582.108-.27.157-.494.188-.851.053-.6.024-.824-.106-.824-.129 0-.555.366-.555.477 0 .096.07.121.118.043.016-.026.049-.047.073-.047.096 0 .028.696-.17 1.752a7.92 7.92 0 0 0-.069.39c0 .063.145.027.23-.057zm5.67-.255c.075-.162.17-.434.212-.604.1-.407.216-1.322.212-1.663-.003-.266-.006-.272-.136-.272-.073 0-.146.021-.162.047-.061.1-.317 1.217-.33 1.441-.007.13-.029.452-.049.717-.053.717.028.824.253.334zm33.51-.26c-.005-.32.025-.775.07-1.074.057-.377.072-.702.055-1.181-.026-.738-.117-1.136-.297-1.305-.238-.224-.258-.043-.192 1.73.02.545.068 1.213.106 1.484.037.27.069.559.069.64 0 .144.07.261.155.261.023 0 .038-.25.034-.555zm13.346-.52c-.031-1.053-.093-1.455-.332-2.14-.333-.955-.529-1.29-.62-1.055-.015.042.028.398.097.791.069.394.147 1.014.173 1.377.092 1.264.18 1.795.319 1.901a.46.46 0 0 0 .233.06h.158l-.028-.933zm-48.903.403c.02-.187.377-1.746.523-2.29.009-.032.075-.07.148-.086.072-.016.185-.052.25-.081a2.68 2.68 0 0 1 .437-.11c.175-.032.416-.115.535-.185.204-.12.212-.132.148-.228-.039-.058-.166-.129-.299-.165l-.345-.095c-.194-.054-.16-.132.101-.23.382-.146.354-.23-.087-.264-.317-.024-.381-.045-.497-.16-.112-.113-.127-.156-.095-.275.035-.134.054-.143.318-.166.322-.027.398-.064.398-.191 0-.081-.034-.092-.287-.092-.289 0-.422-.063-.422-.2 0-.126.116-.178.402-.178.278 0 .402-.052.402-.167 0-.085-.353-.225-.471-.188-.109.035-.285-.082-.285-.188 0-.031.063-.144.14-.25.077-.107.166-.294.196-.416.048-.19.045-.242-.027-.376-.08-.147-.08-.166-.003-.365.06-.16.105-.211.182-.212.056 0 .23-.033.386-.073.455-.117.703-.14.902-.081.102.03.287.065.413.08.213.023.225.019.18-.065-.065-.121-.448-.32-.757-.392-.328-.076-.987-.037-1.329.078-.23.078-.277.117-.415.348-.21.351-.23.454-.132.707.146.38.145.407-.015.502-.3.177-.427.634-.429 1.546l-.001.653.146.146c.131.131.143.166.116.345-.023.153-.079.246-.243.405-.345.334-.48.674-.63 1.6-.093.575-.141 1.579-.078 1.642.017.017.077.003.132-.032.09-.056.11-.05.196.068.092.127.095.127.131.03.02-.056.05-.213.065-.35zm16.481.096c.12-.161.182-.867.13-1.479-.035-.404-.027-.464.162-1.212.115-.459.189-.85.176-.937-.022-.15-.145-.236-.343-.236-.127 0-.351.412-.448.823a8.645 8.645 0 0 1-.145.537c-.1.31-.079.65.07 1.083.08.232.113.395.084.404-.031.01-.02.152.03.407.068.34.07.412.013.549-.036.086-.053.17-.037.187.061.06.217-.003.308-.126zm34.995-.475c.03-.11.084-.36.12-.555.035-.195.102-.524.148-.732.123-.558.127-2.317.007-2.62-.097-.242-.253-.426-.361-.426-.067 0-.074.228-.067 2.231.004 1.228.01 2.248.012 2.268.012.104.093.01.141-.166zM11.64 30.97c.17-1.256.144-1.391-.35-1.855-.372-.35-.38-.42-.087-.855.118-.177.26-.402.316-.5a.862.862 0 0 1 .214-.253c.062-.041.157-.172.21-.292.079-.18.091-.28.07-.575-.036-.485-.196-.987-.332-1.039-.057-.021-.12-.029-.142-.016-.02.012-.023.189-.006.393.018.203.018.51 0 .68-.029.263-.048.31-.125.31-.05 0-.137-.053-.194-.118-.125-.145-.167-.147-.307-.015-.152.143-.136.266.062.47l.17.174-.14.205c-.297.437-.5.853-.493 1.014.009.238.072.323.46.614.193.146.354.3.356.342.014.223-.013.96-.057 1.56-.041.558-.04.686.013.72.043.027.095.002.161-.08.077-.093.12-.283.201-.885zm7.005-1.22c.041-.078.037-.14-.019-.272-.185-.438-.236-1.73-.085-2.128.105-.275.071-.335-.188-.335-.148 0-.191.025-.27.154-.121.198-.187.45-.225.864-.027.29-.016.368.087.614l.282.669c.23.544.312.63.418.433zM5.884 27.582c.032-.077.084-.433.116-.791.084-.948.034-1.103-.485-1.488-.247-.183-.367-.205-.256-.046.03.044.133.24.226.435l.171.354-.055.543c-.03.299-.072.634-.092.744-.034.184-.026.21.086.294.17.127.221.119.29-.045zm28.547-.126c.199-.031.277-.155.277-.436 0-.107.056-.28.138-.434.163-.303.22-.624.154-.864-.041-.148-.032-.202.063-.373.06-.11.132-.286.159-.39.061-.237.082-1.596.025-1.614-.097-.031-.24.3-.27.623-.063.667-.128 1.034-.205 1.151-.05.077-.093.284-.117.562-.039.462-.183.872-.379 1.08-.067.072-.095.166-.095.32 0 .19-.014.22-.114.245-.074.019-.115.063-.115.124 0 .083.021.091.154.065.084-.017.23-.043.325-.059zm10.404-.226c.17-.051.332-.14.427-.236a.752.752 0 0 1 .312-.185c.348-.07.377-.232.067-.37-.195-.086-.323-.097-1.193-.103-1.257-.009-1.222.024-1.072-1.028.09-.63.047-.92-.203-1.373-.157-.283-.202-.415-.206-.603-.003-.14-.033-.262-.07-.294-.146-.12-.173.04-.208 1.224-.02.643-.049 1.35-.066 1.571-.03.38-.024.416.102.66.19.362.329.45.708.45.3-.001.308.002.334.131.055.276.467.336 1.068.156zm-19.583-.653c.082-.762.224-1.41.415-1.9.525-1.348.536-1.387.436-1.672-.042-.121-.065-.14-.118-.096a.234.234 0 0 0-.065.16c0 .058-.117.35-.26.65-.142.3-.321.733-.398.963-.287.864-.474 2.081-.332 2.169a.35.35 0 0 1 .093.144c.024.063.073.114.108.114.047 0 .08-.143.121-.532zm-15.304.112c0-.18.067-.224.391-.256.293-.028.59-.15.665-.274.157-.26-.712-.71-.97-.503-.069.056-.416.866-.416.972 0 .061.187.197.27.197.035 0 .06-.057.06-.136zm-4.864.017c.128-.066.14-.092.14-.328 0-.3-.099-.403-.386-.403-.265 0-.41.075-.497.257-.106.222-.044.347.223.456.262.106.344.109.52.018zm42.085-.068c.229-.14.297-.314.29-.742-.007-.336.01-.41.189-.828.159-.37.196-.513.196-.746 0-.159.03-.346.066-.416.096-.185.15-1.214.08-1.508a.567.567 0 0 0-.252-.383c-.213-.164-.322-.14-.218.046.076.136.068 1.81-.01 2.158-.027.122-.128.391-.224.599-.148.321-.175.43-.18.732-.003.195-.009.39-.012.433-.003.043-.113.197-.245.341l-.24.262.157.069c.21.09.227.09.403-.017zm-28.255-.218c.087-.345.17-1.437.133-1.736-.028-.223-.055-.279-.194-.384-.19-.145-.625-.355-.738-.356-.063 0-.264.087-.414.178-.032.02.147.143.364.25.117.06.26.186.342.305l.14.204-.003.818c-.003.79 0 .82.102.903.149.12.201.084.268-.182zm39.427.07c.434-.168.688-.361.64-.487-.018-.045-.054-.067-.082-.05a2.475 2.475 0 0 1-.402.092c-.401.07-1.031.022-1.266-.095a1.144 1.144 0 0 0-.157-.07c-.03 0 .043.399.09.489.06.119.4.265.617.266.098 0 .35-.065.56-.146zm-1.55-.032c-.012-.047-.085-.113-.163-.147-.187-.083-.379-.38-.407-.63a3.68 3.68 0 0 1 .03-.632c.046-.381.041-.469-.043-.798-.115-.45-.116-.468-.012-.424.046.02.186.045.311.056.21.02.225.015.182-.065a4.961 4.961 0 0 0-.385-.456c-.484-.53-.504-.62-.225-1.01.117-.163.158-.19.227-.154.145.078.71.05 1.036-.05l.307-.094.11.13c.059.072.163.222.23.334.107.179.118.237.091.472-.017.148-.066.37-.11.493-.059.166-.067.258-.034.354.045.127.058.131.436.144.308.011.434-.006.603-.08l.214-.095-.073-.142c-.086-.165-.204-.24-.383-.24-.095 0-.115-.014-.08-.059.111-.137.108-.353-.012-.805-.233-.873-.263-.909-.735-.862-.315.03-.34.026-.452-.086a.797.797 0 0 0-.354-.168c-.313-.067-.362-.064-.594.041l-.198.09-.077-.201c-.2-.523.018-.74.978-.974.598-.145.66-.15 1.239-.122.335.017.817.072 1.07.124.64.13.777.06.392-.2-.285-.192-.947-.368-1.38-.366-1.013.003-1.882.177-2.558.51-.433.213-.454.23-.581.49-.295.601-.383 1.686-.18 2.234.165.45.184.556.294 1.653.094.944.117 1.067.247 1.341.12.25.176.316.335.389.113.05.302.087.46.088.233 0 .264-.01.244-.083zm3.397-.896c.426-.452.723-3.366.343-3.366-.085 0-.105.094-.142.662-.016.246-.092.757-.17 1.133-.117.576-.166.726-.309.94-.206.311-.261.603-.133.697.135.099.277.076.41-.066zm-42.464-.056c.024-.024.13-.05.233-.06.233-.018.26-.103.122-.395-.084-.18-.118-.21-.241-.21a.762.762 0 0 0-.554.257c-.082.104-.091.15-.052.263.026.075.083.146.127.157.144.038.32.033.365-.012zm27.602-.045c.421-.016.787-.05.814-.077.062-.062-.24-.4-.36-.402a.368.368 0 0 1-.177-.071c-.11-.083-.6-.093-.897-.018-.162.04-.224.088-.304.23-.157.28-.128.465.063.4.052-.018.44-.045.861-.062zm13.393-.526c.205-.057.419-.216.419-.31 0-.114-.19-.147-.639-.113-.46.035-.673.115-.795.301-.073.11-.072.122.004.17.094.059.74.028 1.01-.048zm-13.662-.541c.426-.046.667-.123.651-.207-.008-.04-.083-.094-.167-.118-.09-.026-.154-.075-.155-.12a.434.434 0 0 0-.09-.192c-.083-.107-.1-.111-.211-.051-.093.049-.15.052-.235.013-.102-.046-.117-.09-.141-.421-.063-.85-.142-1.149-.304-1.149-.044 0-.23.052-.412.114-.317.11-.336.125-.484.39-.106.19-.15.327-.142.44l.012.166.238-.006a1.13 1.13 0 0 0 .442-.11c.112-.056.213-.094.224-.082.012.011.038.302.058.647.032.536.05.636.127.692a.31.31 0 0 0 .21.044c.065-.013.236-.035.379-.05zm-20.187-.598c.167-.068.228-.2.18-.391-.06-.24-.528-.27-.899-.06-.227.128-.286.218-.246.378.05.201.228.265.544.195.146-.033.336-.088.421-.122zm9.224.107c.254-.08.26-.086.255-.254-.005-.165-.002-.168.098-.103.178.116.23-.07.088-.311-.153-.259-.495-.308-.86-.125-.323.162-.431.236-.431.296 0 .03-.043.107-.095.173-.107.136-.121.272-.038.356.084.083.68.064.983-.032zm12.572-1.037a.914.914 0 0 1 .342-.021c.215.024.222.021.222-.1 0-.086-.066-.193-.208-.334-.49-.49-1.218-.362-1.4.247-.09.3-.044.327.483.288.242-.018.494-.054.56-.08zm-11.692-.036c.037-.148-.047-.448-.16-.575-.045-.05-.218-.15-.384-.222-.287-.125-.328-.13-.874-.109-.79.03-1.147.15-1.377.463-.197.268-.202.317-.04.378.106.04.194.012.606-.194.447-.224.507-.241.825-.241.188 0 .4.021.469.048.07.026.206.06.304.077.144.024.202.068.302.228.19.301.28.342.329.147zm8.339-.679c.279-.281.369-.342.63-.423.585-.18 1.047-.24 1.863-.24.432-.001.818-.022.857-.046.16-.101-.113-.195-1.033-.355-.426-.073-.463-.073-.969.023-.825.155-1.004.218-1.245.44-.273.25-.607.93-.457.93.015 0 .175-.148.354-.329zm16.953-.392c.15-.077.152-.15.006-.17-.187-.025-.254-.101-.154-.174.078-.058.076-.068-.028-.18-.196-.208-.357-.246-.65-.153-.261.082-.586.32-.586.427 0 .09.147.202.33.254.24.068.948.065 1.082-.004z"/></svg>