<svg xmlns="http://www.w3.org/2000/svg" width="64" height="64"><path d="M30.31 62.955c-4.558-.245-9.1-1.527-13.064-3.686-6.71-3.654-11.813-9.575-14.404-16.714-1.917-5.28-2.35-11.113-1.24-16.674C3.556 16.098 10.21 7.776 19.345 3.692a31.115 31.115 0 0 1 23.223-.844 31.073 31.073 0 0 1 16.575 14.168c3.54 6.387 4.694 13.882 3.25 21.105-2.111 10.57-9.662 19.342-19.825 23.03a31.225 31.225 0 0 1-12.258 1.804zm5.713-1.615c.156-.11.14-.352-.036-.553-.203-.231-.189-.399.02-.24.187.141.383.021.326-.199-.016-.06.002-.105.049-.123.05-.02.074-.088.074-.218 0-.104.021-.189.047-.189s.047-.088.047-.195c0-.268-.164-.528-.54-.858-.52-.457-.84-1.014-1.328-2.304-.213-.564-.293-.842-.316-1.102-.037-.415.032-1.159.192-2.075.582-3.32.649-4.098.532-6.23-.052-.93-.05-.98.044-1.267.232-.715.234-1.1.008-1.755-.125-.364-.12-.398.049-.398.172 0 .222-.1.148-.297-.067-.175-.006-.266.177-.266.208 0 .301-.15.322-.516.016-.287.008-.326-.08-.373-.098-.052-.097-.056.068-.295.15-.219.164-.265.137-.457a.853.853 0 0 1 .023-.35c.082-.218-.004-.224-.32-.024-.449.283-.738.419-1.015.474l-.252.05-.053.305c-.141.812-.66 1.742-1.406 2.516-.607.631-1.244 1.053-1.856 1.228l-.349.1c-.044.013.015.091.176.232.134.117.244.248.244.292 0 .043-.041.186-.092.317-.208.548-.26 1.005-.253 2.224.008 1.493.084 2.118.416 3.411.319 1.243.408 1.744.41 2.289.001.507-.043.686-.345 1.37-.524 1.19-.488 1.658.17 2.194.237.193.392.255 1.137.45.214.056.455.147.535.202.176.12.613.874.723 1.249.1.34.306.658.498.772.085.05.282.107.436.125.247.03.299.055.424.203.282.337.582.44.81.281zm-19.697-3.475c.118-.15.12-.217.02-.528-.093-.288-.117-.198.744-2.816l.562-1.71.268-.267c.395-.396.223-.32 4.532-1.961 1.29-.491 2.683-1.032 3.096-1.203.413-.17.9-.359 1.084-.417.402-.13.69-.32.976-.648.44-.502.682-1.196.684-1.954 0-.338-.01-.388-.073-.363a.862.862 0 0 1-.235.028c-.139 0-.16.016-.16.114 0 .179-.12.261-.375.261-.125 0-.263.014-.307.03-.072.028-.077.003-.047-.25l.032-.28-.358.003-.36.005.031.14c.095.44.09.486-.05.521-.115.03-1.06-.092-1.15-.147-.019-.012-.06-.129-.091-.26-.032-.13-.081-.246-.11-.256a5.671 5.671 0 0 0-.553-.031l-.5-.014-.054.243c-.067.298-.27.588-.469.67-.133.056-.163.052-.275-.031-.126-.094-.146-.146-.241-.624a1.573 1.573 0 0 0-.088-.316c-.02-.032-.276-.093-.569-.136l-.532-.077-.089.112c-.268.336-.27.383-.025.486l.143.06-.275.08c-.342.1-.739.298-1.01.505-.115.087-.314.23-.443.318-.348.237-.669.553-1.384 1.36-1.059 1.198-1.604 1.67-2.181 1.89-.162.063-.424.1-.845.123-.696.038-.875.1-1.12.386-.405.472-.414 1.216-.029 2.27.132.36.111.551-.164 1.467-.117.385-.212.79-.212.897a.96.96 0 0 0 .275.632c.077.069.087.107.05.178a.59.59 0 0 0-.034.264c.012.143.04.186.166.244.116.054.151.1.152.2.002.152.15.316.286.316.054 0 .157-.06.23-.132l.132-.132.077.28c.105.377.318.594.582.594.148 0 .21-.027.286-.124zm26.338-6.8c.715-.18 1.428-.424 1.743-.595.34-.184.543-.475.577-.83.032-.335-.018-.528-.19-.726-.123-.143-.192-.18-.365-.2-.184-.02-.268.003-.597.169-.211.106-.402.192-.425.192-.022 0-.054-.159-.07-.353-.044-.512-.173-.717-.533-.845-.385-.138-.73-.048-1.032.268-.281.295-.318.895-.108 1.769.094.39.3 1.033.382 1.19.055.105.05.105.618-.039zm-31.407-1.503c.78-.226 1.314-.588 1.513-1.026a.848.848 0 0 0-.247-1.02c-.31-.234-.546-.213-.906.082-.235.193-.26.198-.262.058-.002-.2-.173-.495-.335-.579a.786.786 0 0 0-1.015.29c-.182.31-.098.789.329 1.889l.188.485.165-.031c.091-.017.347-.084.57-.148zm33.442-1.666c.856-.647 2.006-1.77 2.541-2.479.525-.696.95-1.532 1.303-2.558.396-1.154.535-1.864.53-2.706-.004-.586-.001-.587-.244.173-.296.93-.847 1.954-1.89 3.519-.737 1.107-1.376 1.883-2.487 3.02l-.814.835.15.141c.22.205.369.296.487.296.058 0 .248-.108.424-.241zm-24.804-1.91a1.29 1.29 0 0 1 .296-.145c.199-.065.204-.073.234-.388l.021-.221-.264-.075c-1.004-.284-1.72-.534-1.733-.606-.014-.068.205-.912.247-.954.009-.009.222.116.473.277l.457.293.254-.133c.472-.247 1.584-.924 2.322-1.415.802-.532 2.056-1.454 2.056-1.51a.717.717 0 0 0-.129-.188L24 40.768l-.563.429c-.98.746-3.39 2.305-3.728 2.412-.096.031-.817-.425-1.683-1.065-.242-.179-.466-.314-.499-.301a.577.577 0 0 0-.16.164l-.1.14.184.133c.175.126.186.149.217.45.032.322-.005.88-.075 1.125-.022.075-.114.22-.206.32-.19.211-.218.414-.077.555.049.049.244.134.434.19.19.056.476.167.636.248.28.14.303.144.534.09.274-.063.343-.033.394.17.074.3.307.362.587.158zm-4.866-.77c.058-.995.187-1.335 1.012-2.673.266-.432.477-.805.468-.828-.008-.023-.29-.281-.624-.574-1.109-.97-2.607-2.52-2.988-3.09l-.077-.117-.26.266c-.3.306-.382.526-.433 1.153a3.536 3.536 0 0 1-.043.387 7.54 7.54 0 0 1-.33-.145c-.406-.184-.954-.324-1.265-.324-.581 0-1.364.31-1.785.71-.544.514-.804 1.418-.683 2.377.151 1.196.732 1.536 3.312 1.935.895.138 1.493.345 2.639.914.535.266.986.485 1.002.487.015.002.04-.213.055-.477zm15.9-2.304c.505-.45.889-.914 1.052-1.27.105-.23.119-.31.093-.527-.054-.464-.31-.805-.678-.904-.335-.09-.556.033-.91.51l-.19.253-.095-.13a2.181 2.181 0 0 0-.368-.332c-.463-.34-.814-.326-1.16.048-.22.24-.258.357-.23.7.04.479.209.73 1.037 1.541l.755.739.143-.132c.079-.073.327-.296.551-.496zm-11.04-1.768c.64-.184 1.026-.376 1.296-.642.366-.362.472-.698.333-1.06a.757.757 0 0 0-.465-.476c-.229-.095-.427-.044-.704.183-.241.198-.266.204-.267.063-.002-.195-.173-.495-.329-.575a.79.79 0 0 0-1.022.286c-.09.154-.104.23-.084.465.042.502.536 1.9.672 1.9.04 0 .297-.065.57-.144zm15.349-.968c.19-.215.189-.447 0-.698-.172-.226-.175-.278-.023-.377.202-.133.234-.244.107-.379a.754.754 0 0 0-.638-.254c-.317.013-.356-.013-.269-.183.091-.175.091-.487 0-.562-.048-.04-.21-.053-.527-.041l-.458.017-.004-.226c-.003-.179-.03-.251-.129-.35-.109-.11-.171-.128-.474-.143-.342-.018-.347-.02-.3-.124.079-.173-.067-.353-.284-.353a.566.566 0 0 0-.274.072c-.096.066-.108.063-.18-.047-.06-.09-.118-.119-.245-.119-.137 0-.204.039-.373.216-.114.118-.217.205-.23.192-.012-.013.001-.112.03-.22.03-.11.047-.274.039-.368l-.015-.17.253-.056c.14-.03.296-.1.35-.152l.095-.096-.106-.113c-.101-.109-.103-.12-.033-.288.072-.172.071-.178-.067-.353a.946.946 0 0 1-.14-.21c0-.019.052-.097.117-.173a.497.497 0 0 0 .117-.252c0-.121-.027-.133-.437-.186-.27-.035-.3-.092-.23-.417.05-.237.05-.24-.097-.356a3.276 3.276 0 0 1-.29-.268c-.177-.187-.33-.246-.594-.227-.352.025-.584.109-.64.232-.042.093-.036.127.035.192.14.126.409.676.517 1.057.141.498.176 1.316.077 1.805-.1.486-.389 1.072-.7 1.414-.23.254-.235.265-.08.172.09-.055.322-.15.516-.21.299-.093.45-.11 1.008-.109.795.002 1.107.072 1.804.408.426.204.543.288.893.64.321.323.444.488.6.805.195.397.385 1.06.386 1.346v.15l.377-.24c.208-.131.44-.31.516-.398zm7.874.239c.19-.09.548-.218.794-.286.85-.236 1.282-.656 1.313-1.275.018-.371-.071-.58-.318-.748-.227-.153-.636-.124-.996.07l-.253.138-.004-.154c-.01-.367-.44-.717-.8-.65-.347.066-.73.346-.887.65-.039.075-.082.288-.097.474-.036.476.092 1.067.417 1.937l.093.249.196-.122c.108-.067.352-.194.542-.283zm-17.097-.343l.071-.136.232.074c.214.068.24.068.353-.005.075-.05.12-.123.12-.194 0-.112.006-.114.299-.087.275.026.303.02.375-.082a.603.603 0 0 0 .077-.293c0-.155.012-.177.082-.148.045.02.268.095.495.168.431.138.612.13.673-.027.066-.174-.03-.293-.416-.517-.525-.304-1.101-.685-1.363-.901-.422-.349-.962-1.13-.897-1.298.038-.1.195-.191.453-.262a.778.778 0 0 0 .387-.243c.164-.181.173-.231.091-.498-.031-.101-.41-.069-.644.056-.198.105-.404.16-.972.261-.448.08-1.367-.119-1.98-.427a3.455 3.455 0 0 1-.516-.337 29.484 29.484 0 0 0-.86-.65 41.66 41.66 0 0 1-1.004-.756c-.436-.346-1.093-.686-1.833-.95-.565-.203-.732-.327-.685-.511.035-.14.145-.158.27-.045.133.12.335.006.792-.451.53-.53.708-.758.903-1.15.162-.328.193-.414.337-.927.097-.35.195-.359.237-.02.018.142.01.33-.02.434a2.463 2.463 0 0 0-.05.514c-.001.33-.002.331-.212.538-.116.114-.211.229-.211.256 0 .027.072.098.16.157l.159.109.322-.323c.938-.938 2.37-1.477 3.403-1.282.27.05 1.017.273 1.067.316.011.01-.11.15-.27.312-.16.161-.29.306-.29.32 0 .038.966.745 1.018.745.023 0 .196-.148.384-.328.28-.267.36-.319.428-.282.118.063.592.594.742.831.085.134.148.189.195.17a.428.428 0 0 1 .147-.026c.045.002.127-.089.197-.217.154-.284.324-.442.477-.442.073 0 .21.075.342.186.122.102.277.221.344.265l.122.08.2-.26c.11-.142.22-.259.245-.259.075 0 .235.1.581.36.183.137.355.25.382.25.05 0-.003-.147-.44-1.22-.298-.726-.465-1.043-.724-1.37-.101-.129-.184-.252-.184-.275 0-.04.142-.425.17-.46.009-.01.14.097.291.237.314.29 1.202.893 1.637 1.112.56.28 1.887.56 2.853.602l.61.026.155-.13c.084-.071.214-.249.288-.395.145-.288.296-.44 1.01-1.018.617-.5.852-.756 1.4-1.53.335-.472.56-.86.847-1.457.736-1.535 1.507-2.591 2.023-2.774.638-.226.777-.328.692-.508-.028-.058-.266-.348-.53-.645-.761-.856-.843-.969-.842-1.165 0-.214.057-.43.261-.979.188-.505.224-1.038.083-1.194-.186-.206-.521-.035-.82.417-.206.31-.579.702-.708.743-.118.038-.172-.014-.554-.524-.358-.478-.467-.595-.679-.728-.148-.092-.375-.117-.419-.046-.014.023.111.319.278.658l.304.617.073.784c.04.431.105.964.145 1.183.11.599.05.895-.297 1.469-.215.356-.72.784-1.307 1.108-.88.486-1.434.913-2.394 1.844-.34.33-.628.598-.643.598-.014 0-.248-.197-.52-.439-.614-.548-.798-.67-1.892-1.254-.485-.26-.918-.514-.963-.566a.832.832 0 0 1-.129-.271c-.07-.264-.22-.458-.625-.807-.331-.287-.398-.324-.71-.393-.33-.073-.347-.084-.428-.264-.141-.314-.267-.384-.86-.479-.291-.046-.537-.076-.547-.067-.01.01.014.12.052.246.037.126.06.238.048.249-.023.023-.439-.11-.536-.172-.053-.033-.05-.086.016-.315a5.21 5.21 0 0 1 .174-.496c.093-.219.095-.22.359-.246.393-.039.735-.135 1.175-.332.373-.167.413-.175.733-.148.324.028.348.022.562-.119.377-.25.425-.505.19-1.01l-.114-.244.142-.119c.078-.065.168-.119.202-.119.095 0 .31-.188.358-.314.048-.127-.052-.375-.17-.42-.095-.037-.086-.082.049-.242.177-.211.144-.666-.05-.666-.076 0-.254-.263-.255-.377 0-.046.074-.092.201-.126.264-.07.55-.345.55-.527 0-.194-.202-.414-.414-.452-.234-.041-.43-.166-.606-.386l-.148-.184.138-.291c.165-.35.171-.509.045-1.199a9.24 9.24 0 0 1-.094-.57c0-.034.1-.113.225-.175.296-.15.686-.505.836-.76.22-.377.31-.897.201-1.177l-.05-.132-.129.152c-.07.084-.143.153-.16.153-.018 0-.032-.092-.032-.205 0-.25-.077-.482-.172-.519-.121-.047-.156.016-.156.277 0 .26-.086.418-.204.373-.033-.013-.107-.17-.165-.348-.085-.263-.145-.36-.318-.512-.282-.248-.579-.387-.902-.422-.247-.026-.265-.037-.28-.16-.018-.161.052-.252.261-.34.206-.085.194-.233-.032-.384-.222-.15-.355-.175-.576-.109-.206.062-.614.414-.722.624l-.068.131-.213-.162c-.403-.308-.81-.29-1.357.059l-.374.239-.106-.136c-.204-.26-.396-.34-.75-.315-.828.06-1.01.11-1.296.361-.151.133-.208.154-.428.154-.317 0-.47-.095-.585-.362-.07-.16-.126-.217-.286-.281l-.2-.08-.106.123c-.31.36-.237 1.132.15 1.605.093.113.16.215.148.227-.011.012-.14-.02-.287-.07-.682-.235-1.13-.154-1.366.248a1.286 1.286 0 0 0-.151.463c-.031.303.053.741.17.891l.087.11-.36-.001c-.296-.001-.402.02-.593.118-.327.168-.445.36-.445.72 0 .354.103.54.405.731.12.076.238.145.263.153.025.008-.002.094-.06.191-.122.208-.104.456.045.614.08.086.086.116.036.216-.107.214-.356.182-.65-.084l-.194-.174.024.25c.045.464.37.723.88.7.298-.012.305-.01.41.147.06.088.108.172.107.188 0 .015-.11.092-.245.17-.446.26-.548.565-.382 1.136.125.43.401.679.867.781.116.026.121.04.117.324-.004.256.014.322.124.466.184.242.5.383.765.343.198-.03.212-.024.259.099a.684.684 0 0 1 .022.296c-.035.214.086.457.299.6.124.082.226.106.457.106.164 0 .298.018.298.041 0 .104-.188.944-.26 1.155-.12.36-.3.664-.427.722a.864.864 0 0 1-.294.052c-.27 0-1.039.209-1.398.38-.247.117-.423.257-.788.624a6.57 6.57 0 0 0-1.477 2.303c-.266.685-.302.748-.638 1.11-.786.843-1.378 1.836-1.898 3.183-.084.22-.2.451-.257.516a1.864 1.864 0 0 0-.421.81l-.079.317.119.202c.069.118.221.27.367.367.282.187.616.507 1.085 1.038.373.42.715.694 1.304 1.043.907.535 1.718.804 3.256 1.078a6.25 6.25 0 0 1 1.595.514c.695.328.99.593 1.493 1.34.28.415 1.385 1.539 1.652 1.68.278.146.472.134.56-.035zm23.493-1.669c.507-.998.667-1.661.748-3.089.054-.945.037-1.495-.087-2.83l-.027-.291-.339 1.017c-.186.56-.427 1.247-.535 1.528-.282.735-.38 1.18-.41 1.882-.023.528-.01.702.095 1.29.067.374.145.764.174.866.05.178.056.182.122.094.038-.05.155-.26.26-.467zm-33.39-.748c.19-.08.352-.32.351-.519-.002-.205-.159-.519-.31-.618-.09-.059-.206-.083-.372-.077l-.24.009.047-.18c.134-.501-.359-.885-.88-.685-.49.186-.651.574-.627 1.504l.014.563.305.027c.654.058 1.546.046 1.713-.024zm28.753-.378c.098-.098.335-.73.47-1.252.134-.52.2-.975.133-.906-.093.094-1.119 1.416-1.336 1.72-.122.173-.222.335-.222.361 0 .126.838.193.955.077zm-16.69-.514c.45-.856.67-1.678.673-2.5.002-.478.008-.47-.315-.406l-.142.028-.022.594c-.028.73-.156 1.198-.542 1.977l-.283.573c-.02.045.283.229.344.209.026-.008.155-.222.288-.475zm-15.927.197l.124-.077-.227-.451c-.415-.827-.605-1.55-.605-2.298 0-1.154.457-2.181 1.379-3.096.55-.547 1.057-.87 1.696-1.081.23-.076.425-.142.434-.146.008-.005-.013-.104-.047-.22l-.063-.213-.402.13c-1.731.56-3.081 2.125-3.4 3.94-.164.939.005 1.911.524 3.008.27.571.337.674.408.622.03-.023.111-.076.18-.118zm26.428-1.306c.092-.054.411-.2.71-.326.7-.292 1.119-.543 1.39-.832.316-.339.46-.648.46-.992 0-.247-.018-.302-.144-.445-.33-.376-.912-.334-1.364.1-.185.176-.2.17-.247-.089-.044-.244-.3-.46-.543-.46-.35 0-.627.182-.807.533-.195.378-.161.737.172 1.852.065.216.117.46.117.544 0 .13.03.213.076.213.007 0 .088-.044.18-.098zm7.389-1.888c.329-.52.439-.757.565-1.212.075-.273.082-.393.048-.877-.038-.545-.161-.991-.272-.991-.113 0-.792 1.65-.962 2.334-.092.374-.093.404-.02.849.042.253.102.52.135.59l.06.131.077-.181c.042-.1.208-.39.369-.643zm-5.309-1.746c.262-.288.818-1.223.973-1.635.067-.179.235-.77.374-1.314.26-1.02.331-1.246.585-1.873.082-.202.14-.377.129-.388-.03-.03-.238.254-.35.475-.052.103-.211.483-.354.844s-.322.794-.397.962c-.207.456-.829 1.436-1.463 2.302-.31.424-.564.8-.565.836 0 .054.08.06.433.038l.434-.027.201-.22zm9.35-.83c.199-.597-.045-2.3-.444-3.108-.222-.447-.9-1.504-1.04-1.62-.079-.065-.082-.033-.053.682.054 1.383.193 1.969.67 2.83.167.3.402.743.523.981.122.24.234.434.25.434.016 0 .058-.09.095-.199zm-3.367-1.56c.093-.341.22-1.344.22-1.736 0-.157-.032-.41-.07-.564-.08-.314-.39-.957-.565-1.171l-.115-.141v.358c0 .249-.038.486-.123.774-.239.808-.265.936-.266 1.307-.001.43.084.72.426 1.45l.218.465.099-.23c.054-.127.133-.357.176-.512zm-32.42-2.292c.216-.093.321-.225.618-.78.311-.581.382-.659 1.165-1.28.39-.308.579-.486.54-.506-.033-.018-.201-.015-.373.006-.872.109-1.622.446-2.118.954-.22.226-.458.703-.49.986-.033.291.146.591.387.65.052.013.1.025.107.028a.83.83 0 0 0 .164-.058zm30.97-1.168c.11-.51.267-.902.576-1.432.166-.284.274-.424.31-.402a45.93 45.93 0 0 1 1.663 1.124c.114.092.158.107.174.06.256-.73.463-1.057 1.007-1.59.47-.46 1.007-.851 1.916-1.393 1.864-1.111 2.365-1.471 3.182-2.287.98-.979 1.475-1.782 1.718-2.794.12-.503.098-1.247-.055-1.782-.128-.448-.456-1.143-.752-1.595-.19-.29-.288-.387-.554-.551a4.36 4.36 0 0 0-.342-.2c-.01 0-.018.364-.018.81 0 .713-.014.855-.113 1.203-.206.72-.82 1.799-1.396 2.45-.55.622-1.74 1.608-2.784 2.307-1.69 1.13-3.078 2.334-3.94 3.414a6.322 6.322 0 0 0-.876 1.38l-.189.392c-.005.009-.467-.407-1.026-.925l-1.018-.942-.217.24c-.12.132-.22.253-.225.268-.008.033 2.805 2.632 2.848 2.632.016 0 .066-.174.112-.387zm-32.57-.16c.086-.07.346-.309.578-.531.78-.745 1.165-.988 2.06-1.295.571-.197.575-.212.088-.394-.983-.368-2.338-.079-3.139.67-.422.394-.591.817-.484 1.214.118.439.563.605.897.335zm5.14-.59c.108-.12.285-.462.413-.804.114-.303.43-.606.957-.918.234-.139.425-.262.425-.274 0-.011-.124-.154-.277-.317-.333-.356-.46-.663-.528-1.264-.047-.427-.153-.69-.302-.746-.157-.06-.296-.025-.394.1-.1.127-.102.156-.02.511.024.107-.093.006-.567-.488-.328-.343-.663-.658-.744-.7-.206-.108-.662-.104-.891.007-.314.153-.462.533-.357.92.088.329.278.474.88.674.493.164.969.42.958.517-.002.023-.116.077-.253.12-.548.173-.909.419-.93.633-.022.21.007.302.137.44.166.178.33.189.747.048.39-.132.45-.106.327.143-.177.356-.171 1.054.01 1.352.11.182.267.2.408.046zm-5.884-1.772c.14-.052.367-.177.506-.278.956-.692 1.086-.748 2.228-.949.32-.056.582-.117.582-.134 0-.076-1.197-.272-1.905-.311-.89-.05-1.852.154-2.211.47-.418.366-.442.85-.057 1.174.183.154.492.165.857.028zm9.098-.673c.047-.072.043-.201-.014-.447-.158-.685-.807-1.41-1.162-1.298-.302.096-.246.906.098 1.415.211.312.494.457.809.414.129-.017.25-.055.269-.084zM11.147 21.7c.227-.065.678-.233 1.003-.371.325-.14.649-.267.72-.285.239-.06.181-.111-.28-.253-.933-.285-1.717-.376-2.096-.244-.389.136-.684.54-.617.844.03.133.22.347.353.395.165.06.533.025.917-.086zm33.798-.728c.356-.623 1.2-1.389 2.958-2.689 1.492-1.102 1.93-1.45 2.25-1.793.93-.994 1.008-2.722.161-3.568a2.234 2.234 0 0 0-.525-.359c-.283-.133-.367-.15-.843-.166-.467-.015-.575-.003-.915.103-.942.295-1.847 1.16-2.772 2.654a7.3 7.3 0 0 1-.338.52c-.009 0-.232-.28-.496-.622-.97-1.257-1.564-1.874-2.195-2.281-.39-.252-.685-.337-1.178-.338-1.373-.004-2.168.765-2.238 2.168-.03.598.065.982.354 1.427.455.7.947 1.153 2.613 2.402.67.504 1.336 1.01 1.478 1.128.64.528 1.214 1.16 1.39 1.527.045.094.093.17.108.17s.1-.128.188-.283zm-25.913-.62c.003-.242.031-.44.074-.52.068-.13.064-.137-.177-.384a1.515 1.515 0 0 1-.344-.515c-.347-.927-1.092-1.483-1.527-1.14-.114.089-.126.124-.106.304.012.112.013.204.001.204-.044 0-.514-.33-.712-.499-.604-.517-.621-.919-.044-1l.185-.026-.836-.868c-.958-.996-1.373-1.523-1.705-2.168-.408-.792-.948-1.413-1.3-1.494-.423-.099-.71-.006-1.012.328-.207.23-.225.434-.078.91.206.667 1.09 1.682 2.146 2.465l.294.217-.16.04c-.349.083-.475.393-.3.734.132.261.437.474.883.617l.326.105-.148.062c-.574.242-.228.667.837 1.027 1.048.355 1.798.847 2.353 1.543l.149.186v-.148c0-.225.114-.31.382-.284.271.026.491.181.68.48l.134.212.005-.389zm-4.074.048c-.035-.105-.545-.486-1.815-1.356-1.48-1.014-1.947-1.355-2.611-1.904a510.87 510.87 0 0 0-.833-.687c-1.02-.84-1.791-1.118-2.426-.876-.529.2-.766.52-.77 1.035-.005.605.423 1.175 1.335 1.781.245.164.456.306.469.317.012.011-.018.043-.068.07-.162.091-.5.427-.574.57-.093.18-.06.492.073.679.219.307.616.31 1.333.008 1.034-.434 1.742-.498 2.696-.244l.528.14-.117-.14c-.154-.182-.15-.334.01-.46.2-.157.481-.075 1.092.32.142.093.532.31.868.486.583.304.852.39.81.261zm21.616-3.02c.142-.095.257-.189.257-.21 0-.021-.073-.171-.162-.334-.943-1.717-.861-4.23.191-5.815.94-1.415 2.462-1.914 4.334-1.42 1.404.37 2.39 1.223 2.963 2.564.108.253.201.455.208.448.006-.007.018-.35.027-.764l.016-.753-.248-.334c-.667-.9-1.635-1.528-2.85-1.847-.73-.192-1.705-.241-2.317-.117-.823.166-1.44.486-2.034 1.053-.63.603-1.026 1.25-1.32 2.164-.248.764-.325 1.373-.295 2.32.028.91.146 1.521.425 2.206.158.388.482 1.01.526 1.01.012 0 .138-.078.28-.172zm-19.34-1.267c.017-.016-.002-.105-.041-.199-.04-.093-.145-.54-.234-.99-.315-1.594-.539-2.059-1.067-2.21-.329-.094-.672.134-.79.525-.082.277.013.814.225 1.258.23.482.852 1.103 1.425 1.423.418.234.435.24.483.193zm28.224-3.899c.204-.406.471-.875.595-1.042.592-.804 1.274-1.247 2.364-1.54.623-.166 1.611-.173 2.207-.016 1.226.323 2.352 1.222 2.961 2.363.205.382.21.387.62.613.229.125.424.219.435.208.04-.04-.22-.713-.429-1.109-1.018-1.931-3.08-3.086-5.126-2.871-.892.093-1.802.397-2.403.802a5.52 5.52 0 0 0-1.316 1.328c-.228.34-.278.449-.278.61 0 .108-.014.466-.03.795-.017.329-.017.598 0 .598.016 0 .197-.333.4-.739z"/></svg>