<svg xmlns="http://www.w3.org/2000/svg" width="64" height="64"><path d="M30.734 62.974c-9.41-.422-17.905-4.895-23.552-12.404a31.45 31.45 0 0 1-4.071-7.298C.847 37.488.39 31.038 1.809 24.906a31.057 31.057 0 0 1 5.366-11.492c2.941-3.904 6.642-7.003 10.931-9.15 3.642-1.824 7.421-2.868 11.597-3.206.962-.077 3.65-.077 4.606 0 7.562.615 14.34 3.727 19.617 9.01 5.095 5.099 8.187 11.628 8.93 18.853.175 1.71.193 4.08.04 5.72l-.029.324h-.725c-.398 0-1.066.015-1.483.032l-.759.032.03-.116c.038-.156-.065-.285-.264-.325-.131-.027-.17-.063-.202-.188-.04-.152-.042-.153-.195-.09-.126.053-.152.088-.14.192.011.113-.003.127-.136.127-.31 0-.436.196-.33.515l.055.17.241-.03.241-.028-.028.419c-.03.45-.09.678-.236.887-.189.27-.593.117-.78-.297-.085-.189-.095-.195-.308-.19-.122.003-.28.02-.354.036l-.133.03.166.253.166.252h-.202c-.11 0-.358-.043-.548-.096-.377-.105-.708-.125-.756-.047-.037.06.166.418.31.55.093.083.193.096.863.113.417.01.936-.005 1.153-.034.378-.051.404-.063.582-.258.102-.112.23-.326.286-.474l.102-.27.367-.033c.526-.047 1.97-.297 2.491-.431l.444-.114v.116c0 .064-.056.489-.123.943-1.92 12.877-11.82 23.262-24.587 25.791-2.363.468-5.027.676-7.34.572zM40.885 38.16c.34-.101.655-.317.883-.605.216-.273.226-.356.06-.466-.103-.069-.119-.06-.383.222-.415.443-.879.601-1.427.487a.857.857 0 0 1-.45-.22l-.173-.161.198-.002c.22-.001.321-.084.297-.245l-.015-.106-2.951-.009c-3.447-.01-5.261-.11-9.212-.507-2.3-.231-2.871-.313-5.566-.796a306.587 306.587 0 0 0-2.903-.511c-.184-.028-.37-.08-.411-.116-.08-.068-.572-.09-.572-.026 0 .055.387.42.512.485.058.03.187.054.288.054.1 0 .41.042.687.095.277.052 1.29.235 2.25.407s1.758.324 1.773.338c.014.015-.03.14-.098.28-.118.24-.133.253-.286.235-.187-.021-.46.139-.555.326-.219.433.206.957.665.82a.757.757 0 0 0 .305-.205c.104-.124.124-.191.114-.384-.011-.214.009-.262.249-.595l.261-.363.264.027c.145.015.62.07 1.055.123 3.926.476 9.224.811 11.961.756l1.19-.023.298.296c.214.213.365.318.538.375.302.099.846.106 1.154.014zm9.617-.421c.198-.072.346-.18.592-.428.298-.301.342-.33.48-.305.562.1 3.984.1 4.296.002.096-.03.096-.033.006-.181l-.091-.15-1.862-.008c-1.752-.008-2.232-.034-3.686-.195-.237-.026-.301-.017-.355.047-.05.06-.053.107-.014.193.045.099.104.12.475.17l.495.066c.105.015-.128.237-.388.37-.263.134-.732.176-1.039.093-.183-.05-.296-.133-.574-.419-.264-.272-.371-.352-.456-.34-.083.012-.113.05-.123.16-.01.116.037.2.246.433.545.608 1.221.775 1.998.492zm-4.414-.447c1.076-.08 1.295-.127 1.295-.28 0-.035-.038-.098-.085-.14-.078-.071-.163-.072-.948-.01-1.134.09-2.54.168-2.996.168-.371 0-.48.044-.48.192 0 .192.076.204 1.127.176a53.957 53.957 0 0 0 2.087-.106zm-6.645-1.078c.1-.084.092-.293-.012-.316-.046-.01-1.574-.028-3.395-.04-2.943-.018-3.922-.047-4.944-.15l-.29-.028-.083.177c-.047.097-.076.186-.064.197.04.04.893.107 2.023.159 1.79.081 1.966.084 4.402.072 1.74-.009 2.308-.026 2.363-.071zm7.64-.075c.612-.083 1.238-.24 1.433-.361.178-.11.385-.473.338-.595-.03-.076-.043-.078-.14-.014a.725.725 0 0 0-.242.347c-.028.081-.413.035-.556-.067a.68.68 0 0 1-.198-.247c-.057-.137-.078-.148-.225-.124a.792.792 0 0 0-.324.168c-.306.268-1.114.507-1.617.479-.18-.01-.328-.01-.328.001 0 .062.218.357.327.443.116.091.166.097.584.068.251-.017.677-.062.947-.098zm-2.108-.057c-.193-.404-.197-.407-.374-.369-.092.02-.774.042-1.514.047-1.313.01-1.705.038-1.622.12.034.033 1.196.146 2.104.205.512.033 1.422.03 1.406-.003zM30.332 35.8c.04-.095.062-.183.05-.196-.013-.012-2.222-.7-4.91-1.526-8.081-2.487-15.152-4.696-18.703-5.843-1.735-.56-1.914-.603-2.684-.637l-.58-.026 1.488.5c1.653.554 5.745 1.856 10.124 3.22l3.419 1.065c.296.093.54.185.54.204 0 .044.944.33 1.079.326.053 0 1.23.35 2.615.779 1.385.429 3.425 1.058 4.534 1.397a638.834 638.834 0 0 1 2.941.908.669.669 0 0 0 .087-.17zm24.76-.066h.4v-.505c0-.277-.02-.504-.043-.504-.024 0-.578.12-1.231.265a80.44 80.44 0 0 1-2.049.429c-.472.09-.869.172-.88.184-.077.076 1.73.177 2.687.15.394-.01.896-.02 1.116-.02zm2.579-.031c.179-.025.219-.047.196-.107-.058-.15-.108-.709-.085-.948l.024-.244.654-.226c1.4-.483 2.597-1.173 3.347-1.928.946-.95 1.062-1.749.34-2.348-.53-.44-1.125-.7-1.825-.793-.706-.094-3.096-.052-4.197.073-.204.023-.252.045-.24.11.014.069.146.087.999.136 1.211.07 2.08.162 3.586.377.64.092 1.175.167 1.189.167.057 0 .467.414.53.535.182.353-.035.871-.615 1.466-.803.823-1.82 1.38-3.731 2.044-.383.133-.976.32-1.32.416l-.623.175-.014.539-.013.539.157-.002c.227-.001.52-.15.723-.364.22-.232.316-.194.413.166.074.273.08.275.505.217zm-15.314-.936a.362.362 0 0 0 .084-.186c0-.047.033-.098.072-.113.1-.039.09-.218-.024-.404a1.25 1.25 0 0 1-.096-.175c0-.01.157-.055.348-.101.192-.046.51-.145.708-.22.302-.115.412-.19.679-.462.271-.278.327-.364.378-.59.033-.145.1-.368.15-.496l.09-.233-.252.032c-.14.018-.291.043-.337.056-.076.021-.084-.021-.084-.44v-.464l-.276.032c-.152.019-.427.058-.612.09l-.336.055-.013.506-.014.507-.49.149c-.27.082-.528.164-.574.183-.078.031-.084-.015-.084-.596 0-.473-.015-.628-.06-.625-.033.002-.308.04-.612.084l-.552.081-.013.684c-.008.407-.032.684-.06.684-.04 0-.62-.121-1.042-.218-.103-.023-.108-.047-.108-.483v-.46l-.132.026c-.073.014-.305.05-.516.08-.645.09-.6.064-.6.335 0 .132-.015.24-.033.24-.183 0-.916-.17-.893-.207.018-.03-.024-.037-.11-.02-.077.014-.42-.024-.763-.086-.343-.062-1.131-.201-1.751-.31-.62-.11-1.387-.25-1.703-.315-.317-.064-1.461-.267-2.543-.451a262.351 262.351 0 0 1-3.435-.61l-1.467-.274-.208-.388c-.663-1.239-1.471-2.623-1.936-3.317-.359-.536-1.05-1.257-1.477-1.541-.819-.545-1.613-.538-2.114.018-.23.255-.31.415-.433.865-.088.325-.103.54-.122 1.777l-.021 1.407-.127-.027c-.154-.032-8.871-1.674-10.491-1.976-2.95-.55-4.443-.757-5.47-.76-.785-.004-1.032.047-1.155.236-.15.227.045.481.576.754.178.092.243.096 1.175.064 1.397-.048.99-.115 6.65 1.086 9.143 1.94 12.414 2.612 15.76 3.236 4.3.801 12.06 2.447 14.707 3.119.554.14 1.072.266 1.151.279.253.04.523-.01.611-.117zm-19.645-.158c.166-.086.414-.346.362-.378a15.616 15.616 0 0 0-.784-.241c-.704-.206-.793-.221-1.655-.27a69.805 69.805 0 0 1-1.263-.083l-.35-.03.29-.191c.16-.106.291-.207.291-.225 0-.033-.467-.194-.563-.194-.028 0-.066.13-.085.288-.018.158-.047.297-.064.307-.018.01-.463-.01-.991-.045-3.003-.2-3.556-.223-4.28-.169-1.298.096-1.922.252-2.04.51-.052.116-.046.139.073.241.181.156.376.2 1.259.281 1.643.152 4.453.248 7.593.26 1.706.006 2.1-.005 2.207-.06zm26.159-.703c.522-.122.69-.26.571-.468l-.073-.13-.525.015c-.46.013-.535.027-.609.114a.388.388 0 0 0-.01.461c.092.131.122.131.646.008zm-3.298-.29c.273-.093.581-.159.803-.173.33-.022.382-.012.63.12l.27.142.029-.246c.016-.135.03-.347.03-.47 0-.31.167-.818.319-.97.144-.144.375-.169.524-.056.15.114.309.094.309-.04 0-.283-.358-.414-1.23-.45l-.69-.028v-.424c0-.394-.006-.425-.096-.425-.144 0-1.06.142-1.109.172-.023.014-.042.227-.042.473 0 .359-.016.46-.08.513-.218.18-.448 1.027-.448 1.649v.362h.17c.093 0 .368-.067.611-.15zM34.766 31.05c4.678-.825 16.304-2.484 18.183-2.596l.504-.03.445.51c.426.487.455.51.636.51.223 0 .218.026.116-.607-.04-.254-.066-.47-.057-.479.01-.01.237-.032.504-.05l.487-.031.083.3.084.301.264-.03c.145-.018.27-.037.276-.044a1.319 1.319 0 0 0-.062-.266c-.041-.14-.066-.263-.055-.274.038-.037.767-.123.797-.093.016.016.076.153.133.303l.103.273.258-.016c.142-.01.264-.022.27-.029.008-.006-.041-.135-.107-.285a3.146 3.146 0 0 1-.121-.295c0-.013.233-.023.518-.023h.517l.154.312.154.312h.338c.271 0 .331-.013.3-.064a14.09 14.09 0 0 0-.318-.451c-.25-.346-.313-.402-.6-.533-1.345-.615-3.05-.85-5.333-.73-2.265.117-3.76.339-10.724 1.586l-3.094.553c-1.967.351-4.716.846-7.221 1.3-.66.12-1.232.23-1.272.245-.085.033 2.615.53 2.928.537.12.004.53-.049.912-.116z"/></svg>