<svg xmlns="http://www.w3.org/2000/svg" width="64pt" height="64pt" viewBox="0 0 64 64"><path d="M29.824 64.363c-6.23-.414-12.172-2.629-17.082-6.367-2.293-1.746-4.68-4.164-6.402-6.488-6.465-8.711-8.117-20.32-4.348-30.547 1.274-3.45 3.024-6.5 5.426-9.441.781-.954 3.016-3.215 3.957-4.008a32.293 32.293 0 0 1 5.82-3.926C23.922.046 31.835-.918 39.238.89c4.825 1.183 9.043 3.328 12.946 6.597.964.809 3.195 3.059 3.992 4.032 3.992 4.89 6.394 10.476 7.172 16.695 1.207 9.683-2.11 19.305-9.13 26.457-5.327 5.43-12.202 8.812-19.495 9.594-1.137.12-3.746.171-4.899.097zM4.738 35.488c1.203-.304 1.422-.383 1.422-.488 0-.055.11-.293.254-.527.285-.493.309-.621.125-.72-.101-.058-.125-.132-.125-.405 0-.184-.059-.54-.133-.79-.222-.773-.25-1.011-.144-1.093.133-.098.183-.66.086-.973a1.796 1.796 0 0 0-.27-.496l-.191-.246.047-1.156c.039-.867.07-1.157.128-1.157.118 0 .477-.593.516-.859.07-.418-.027-.676-.367-1.023-.227-.23-.313-.36-.29-.45.048-.168-.241-1.34-.355-1.449-.046-.047-.195-.097-.328-.105a.622.622 0 0 1-.441-.215c-.504-.504-.754-.504-.899-.008-.164.555-.168.711-.039 1.438.106.597.149.73.293.851l.168.145-.148.058a.267.267 0 0 1-.274-.035.61.61 0 0 0-.289-.086c-.379 0-2.328.848-2.25.977.02.035-.015.101-.074.148-.191.14-.055.406.324.64.313.196.329.2 1.106.188.43-.004.879-.027.996-.05l.21-.04.13.446c.148.5.16.71.066 1.062a.76.76 0 0 0-.012.418c.032.114.04.23.02.348l-.035.176-1.031.027c-1.297.04-1.38.07-1.407.555-.015.258-.05.37-.144.437-.172.121-.153.313.039.446.094.066.258.195.371.293.113.093.277.19.363.21.09.024.512-.03.946-.12.43-.094.836-.169.902-.169.066 0 .16.086.219.204.082.164.09.25.035.468a5.68 5.68 0 0 0-.094.79c-.016.292-.05.566-.078.609-.027.039-.05.258-.059.484-.007.379-.027.43-.336.84-.183.238-.332.488-.332.555 0 .109.032.117.332.078.184-.024.657-.13 1.047-.23zm36.121-3.703c.07-.113.11-.37.141-.883.031-.62.016-.804-.105-1.273-.208-.805-.2-2.434.023-3.738.184-1.09.293-2.032.293-2.563 0-.535-.395-1.648-.66-1.875-.14-.117-.38-.062-.418.102-.047.12-.117.23-.203.328a3.314 3.314 0 0 0-.285.379c-.098.136-.2.27-.317.39l-.2.211.032.598.035.594.297.328c.555.62.61 1.418.133 1.926-.14.148-.2.285-.23.558-.047.414.05.676.316.852.43.289.594 1.21.309 1.75-.141.27-.438.574-.73.761-.134.086-.18.165-.18.32 0 .212-.141.958-.22 1.153-.035.09.024.11.422.149.254.02.567.043.692.054.64.063.742.051.855-.12zM7.04 31.27a9.45 9.45 0 0 1 .863-.149c.246-.035.926-.18 1.5-.332.578-.144 1.25-.277 1.496-.293.672-.047 1.125-.156 1.32-.324.157-.133.223-.149.575-.117.324.03.469.008.812-.125.235-.09.895-.254 1.47-.364.991-.191 1.5-.324 2.058-.539.164-.066.48-.101.902-.101.442-.004.766-.043 1.047-.13.223-.066.73-.183 1.133-.26.398-.079.883-.196 1.078-.263.2-.066.883-.18 1.523-.257 1.286-.145 1.493-.203 1.739-.504.425-.508.363-1.313-.114-1.492-.203-.079-2.25.382-3.425.773-.621.203-1.051.293-2.262.453-1.95.262-2.707.418-4.688.973-.906.246-1.886.48-2.183.52a9.668 9.668 0 0 0-1.688.331c-.59.164-1.91.364-2.351.364-.14 0-.426.074-.637.164-.2.086-.406.148-.621.199-.133.023-.234.066-.234.09 0 .027.054.187.132.351.098.23.121.403.106.719-.008.227-.004.414.012.41.02 0 .218-.043.437-.097zm19.773-.375c.008-.012-.078-.637-.18-1.297a15.877 15.877 0 0 0-.16-.84c-.054-.211-.12-.848-.148-1.418-.031-.567-.082-1.133-.12-1.258-.102-.32-.087-1.664.026-2.41.094-.633.293-1.504.43-1.863.149-.395-.457-1.137-.926-1.137-.222 0-.488.105-.515.207-.016.047-.086.351-.168.68l-.14.597.171.137c.352.281.45.836.23 1.309-.148.332-.402.59-.777.78-.27.134-.305.184-.37.466-.114.468-.028.71.276.82.512.18.797.691.715 1.289-.054.41-.195.66-.558 1.008-.305.289-.313.305-.266.55.078.364-.016 1.958-.137 2.329l-.05.152 1.328-.047c.73-.023 1.336-.047 1.34-.054zm15.313-.75c.77-.235 4.754-.856 7.21-1.13.497-.05.919-.093.938-.093.02 0 .036.05.036.121 0 .062.05.16.113.219.105.097.168.086.832-.117.398-.125.754-.223.789-.223.035 0 .285-.133.555-.29.265-.16.656-.35.863-.417.375-.121.379-.121.512 0 .168.16.324.156.738-.008.184-.074.644-.191 1.023-.258.989-.18 1.254-.351 1.254-.84a.66.66 0 0 0-.496-.64c-.207-.063-.379-.035-1.316.195-.598.145-2.059.426-3.242.617-1.192.192-2.332.375-2.543.414a8.345 8.345 0 0 1-.989.059c-.609-.004-2.457.3-4.14.68-.364.086-.899.168-1.192.195l-.523.043v-.164c0-.102-.059-.2-.16-.27-.133-.09-.219-.093-.727-.02l-.578.087v.355c.004.195.059.59.129.871.066.285.129.582.129.664 0 .18.031.18.785-.05zm15.027-.075l.711-.144-.058-.164c-.07-.18-.078-1.371-.016-1.719.035-.195.059-.219.246-.219.278 0 .75-.148 1.348-.426a5.4 5.4 0 0 1 1.039-.343c.504-.102.543-.125.562-.282.016-.132-.015-.175-.14-.207-.192-.054-.2-.078-.07-.222.081-.09.081-.121.007-.223-.07-.105-.164-.113-.746-.098-.363.008-.976.024-1.36.024l-.702.008-.118-.356c-.156-.472-.183-1.605-.042-1.68.23-.113.769-.238.8-.183.059.094 1.035.055 1.586-.063.489-.101.512-.113.543-.3.028-.164.063-.196.29-.223.19-.023.253-.063.269-.168.027-.18-.106-.277-.446-.32-.265-.032-.3-.016-.55.23-.317.313-.582.356-.582.098 0-.113.05-.188.16-.238.101-.047.156-.125.156-.223 0-.25-.246-.254-1.172-.02-.46.114-.894.192-.953.168-.098-.039-.11-.086-.066-.32.03-.148.047-.328.043-.398l-.043-.836c-.04-.942-.055-1-.278-1-.207 0-.289.082-.351.332-.032.125-.086.18-.211.191-.207.027-.387.332-.446.754-.019.164-.074.379-.124.473a.944.944 0 0 0-.083.355c0 .149.051.203.266.309.723.355.73 1.254.02 1.68l-.29.171v1.59l.247.07c.273.075.617.418.683.68.024.094.028.297.008.461-.039.363-.332.688-.762.844l-.304.11-.008.515c-.008.207-.008.41 0 .613.008.055.015.262.027.465.008.273.035.375.106.375.05 0 .41-.066.804-.14zm-18.066-.144c.184-.09.352-.215.488-.367.496-.668.266-1.57-.437-1.739-.137-.027-.692-.054-1.235-.054-.562.004-1.12-.02-1.683-.063a20.348 20.348 0 0 0-1.461-.086c-.746-.012-.77-.015-1.238-.265l-.48-.254-1.626-.02c-1.43-.015-1.719-.039-2.418-.18-1.055-.214-1.008-.191-1.031-.543-.016-.261-.043-.312-.207-.394-.106-.055-.434-.11-.727-.121l-.531-.024.04.215c.038.192.151 1.735.163 2.196.004.148.035.18.242.21.13.02.63.11 1.098.2 1.43.258 2.867.398 6.805.64 1.664.102 2.652.196 2.836.262.066.031.09.09.07.168-.098.383.707.516 1.332.219zM7.625 26.96c1.816-.527 2.57-.621 3.785-.461.664.09.735.09 1.23-.031.29-.07.633-.125.766-.125s.551-.102.934-.227c.43-.14 1.21-.308 2.058-.453 2.77-.457 5.633-1.008 5.739-1.102.117-.105 1.062-.316 1.71-.382.25-.024.528-.102.673-.184.464-.262.703-.832.511-1.234-.09-.2-.117-.211-.347-.188a2.685 2.685 0 0 0-.594.164c-.262.11-.504.149-1.04.164-.827.024-1.75.192-4.265.766-2.91.672-3.578.805-3.93.805-.183 0-.628.074-.988.16-.89.219-1.207.215-1.387-.016-.136-.172-.152-.172-.796-.164-.364.004-1.274.102-2.028.211-1.316.195-3.258.52-3.293.55-.011.009.07.169.188.349.27.445.316.945.129 1.386-.075.16-.114.293-.09.293.031 0 .488-.125 1.035-.281zm34.559-.402c.168-.04.332-.223.261-.297-.082-.082 1.52-.278 2.805-.344a7.38 7.38 0 0 0 1.676-.262c.496-.125.992-.222 1.496-.293.355-.035.672-.093.71-.12.071-.052.583-.118 2.829-.352 2.035-.211 3.012-.368 3.816-.602.899-.262 1.207-.586 1.016-1.05-.133-.321-.348-.387-1.047-.31-.34.032-.64.079-.668.098a5.65 5.65 0 0 1-.71.094c-.364.035-1.177.192-1.833.352-1.148.289-2.59.484-4.836.644-.293.028-.64.082-.761.133-.344.133-1 .207-3.184.352-1.102.078-2.074.16-2.164.187-.149.043-.164.106-.29.848l-.124.804.183.04c.09.019.18.058.254.117.043.043.145.058.235.035.09-.024.234-.055.336-.074zm-3.508-.114c.668-.207.945-.492.945-.968 0-.278-.187-.73-.379-.903-.129-.113-.488-.176-1.785-.293-.437-.039-2.484-.289-4.547-.547a302.655 302.655 0 0 0-4.215-.52c-.418-.042-.453-.058-.398-.163.187-.352-.098-.602-.77-.66-.554-.051-.695.027-.8.441-.09.352-.286 1.59-.247 1.629.012.008.442.047.965.086.953.058 1.657.148 3.016.379 1.531.262 2.098.328 3.055.387.582.027 1.09.093 1.246.148.226.086.984.191 2.363.34.352.035.395.054.395.18 0 .183.117.296.296.296.082 0 .164.043.196.09.043.078.125.117.34.164.015.004.164-.039.328-.086zm0 0"/></svg>