<svg xmlns="http://www.w3.org/2000/svg" width="64pt" height="64pt" viewBox="0 0 64 64"><path d="M30.191 64.313c-4.656-.278-9.457-1.668-13.484-3.903-1.094-.605-1.297-.73-2.395-1.457-1.796-1.191-3.14-2.308-4.867-4.027-2.082-2.082-3.492-3.883-4.945-6.309C.379 41.73-1.004 33.195.734 25.332a32.148 32.148 0 0 1 5.653-12.398c1.726-2.305 4.203-4.79 6.511-6.52A32.183 32.183 0 0 1 36.211.254c6.191.785 11.754 3.207 16.644 7.258.958.789 3.22 3.05 4.008 4.004a32.986 32.986 0 0 1 3.852 5.75c4.344 8.289 4.84 18.226 1.336 26.933-1.258 3.121-2.953 5.953-5.188 8.66-1.293 1.563-3.703 3.84-5.422 5.125-6.093 4.555-13.597 6.793-21.25 6.332zM5.242 44.93c.188-.176.156-.227-.191-.32-.395-.102-.45-.172-.403-.465l.043-.25-.308.039c-.27.039-.328.027-.434-.09-.125-.133-.125-.14-.004-.344.063-.113.239-.348.387-.527.148-.18.316-.41.371-.52.055-.11.266-.336.465-.508.195-.164.41-.414.48-.543.141-.28.454-1.43.454-1.672 0-.093-.106-.32-.235-.511-.304-.446-.304-.688 0-1.332.352-.742.406-1.11.246-1.739-.117-.488-.129-.503-.191-.34-.063.18-.102.364-.137.551-.027.18-.066.364-.125.54-.066.171-.308.355-.37.292-.02-.023.03-.293.112-.605a5.64 5.64 0 0 0 .157-1.04c.011-.39.035-.495.164-.624l.144-.16H4.355l.16.191c.32.387.301.84-.058 1.317-.242.316-.496.843-.57 1.167-.02.16 0 .325.058.477.153.438.125.766-.125 1.3-.101.227-.222.45-.363.657-.156.2-.242.785-.246 1.621 0 .38.031.528.215.926.207.445.215.488.129.687-.114.274-.118.606-.004.77.047.074.105.207.125.3.054.2.511.696.789.852a.689.689 0 0 0 .777-.097zm3.25-.739l.219-.113-.242-.047c-.258-.043-.5-.218-.5-.36 0-.05.078-.116.172-.155.222-.082.488-.293.586-.47.093-.175.105-.66.011-.722-.043-.023-.218.102-.402.281-.387.372-.543.465-.797.461-.32 0-.363-.07-.324-.543.023-.308.09-.539.234-.812.196-.379.2-.383.07-.492-.136-.117-.171-.309-.062-.371.04-.024.145-.164.238-.305l.164-.27.137.168c.074.09.168.22.215.286.07.117.074.117.078-.02.012-.586-.45-1.855-.848-2.305l-.257-.3.128-.141c.07-.078.18-.238.239-.36.101-.199.101-.238.015-.386a1.468 1.468 0 0 1-.132-.336.721.721 0 0 0-.149-.281c-.113-.118-.129-.301-.058-.836.043-.313.03-.336-.293-.785-.297-.403-.352-.454-.454-.383-.066.039-.117.086-.117.105 0 .016.13.207.29.418.296.399.355.633.214.863-.062.098-.05.227.063.637l.144.52-.363.527c-.422.621-.441.813-.102.93.184.058.235.12.309.36.191.64.082 1.495-.344 2.76-.258.759-.289.919-.261 1.263.058.707.285 1.007.968 1.257.395.149.883.133 1.211-.043zm52.504-1.28a2.33 2.33 0 0 1 .23-.747c.254-.488.278-.68.2-1.574-.051-.61-.09-.8-.196-.934-.187-.238-.578-1.082-.617-1.347a1.123 1.123 0 0 1 .063-.508c.058-.16.101-.39.101-.516 0-.277-.304-.953-.59-1.316-.292-.367-.332-.875-.093-1.223l.164-.242H58.82l.168.18c.137.144.157.203.106.336-.07.167.078 1.082.242 1.574.121.328.027.43-.188.215-.105-.106-.183-.293-.234-.54a8.828 8.828 0 0 0-.144-.636l-.075-.262-.097.293c-.051.16-.098.52-.102.805-.004.476.012.558.27 1.097.343.743.347.918.015 1.407-.14.207-.258.422-.258.472 0 .086.067.332.356 1.34.113.399.309.672.691.961.16.125.352.348.43.5.07.16.223.371.332.473.11.105.277.316.363.468.192.329.239.29.301-.277zM2.5 40.1c.04-.148.145-.378.234-.511.149-.227.16-.29.145-1.008-.016-1.066.133-1.457.855-2.258.133-.148.243-.332.243-.398 0-.211-.414-.614-.895-.867-.242-.13-.488-.23-.547-.23-.12 0-.133-.075-.027-.18.054-.055.047-.087-.031-.118-.063-.023-.133-.023-.157-.004-.043.047-.113.508-.203 1.332-.031.301-.12.692-.199.864-.082.191-.137.39-.172.593-.035.235-.012.313.133.504.254.332.351.68.398 1.375.04.72.086 1.168.125 1.168.012 0 .055-.117.098-.261zm59.844-.855c.05-.918.16-1.34.43-1.687.226-.274.226-.32-.032-1.125-.086-.262-.203-.86-.258-1.317-.062-.46-.12-.847-.132-.86-.012-.019-.07-.007-.13.016-.085.032-.093.059-.027.133.063.082.055.106-.043.133-.246.074-.949.45-1.129.598-.117.101-.21.218-.285.347-.093.184-.093.207.016.344l.426.524c.484.59.586.925.59 1.921.007.793.015.848.175 1.094.094.14.192.352.22.469.077.394.14.203.179-.59zm-6.504.516c.316-.133.98-.903 1.254-1.461.234-.469.238-.492.238-1.219 0-.754.043-.937.195-.879.059.02.149-.117.278-.43.3-.722.297-.976-.032-1.332-.148-.164-.285-.257-.386-.257-.309 0-1.102-.457-1.39-.801l-.114-.133v.16c0 .086.043.363.094.61.109.523.203.625.71.773.415.121.575.324.383.465a.436.436 0 0 1-.195.086c-.113 0-.156.082-.258.52-.183.808-.508 1.214-1.183 1.523-.266.12-.493.23-.504.238-.008.012.027.137.09.285.085.219.136.266.277.266.238 0 .562-.215.687-.457.094-.188.114-.196.172-.094.035.063.047.285.032.492a1.657 1.657 0 0 1-.735 1.258c-.191.121-.34.238-.34.258 0 .031.383.21.465.215.031 0 .149-.035.262-.086zM4.687 33.547c.399-.04.723-.106.926-.2.242-.109.39-.14.645-.113.379.036.844-.082 1.262-.324.156-.094.418-.238.57-.32.41-.219 1-.688 1.219-.969.28-.36.652-1.098.57-1.133-.043-.015.02-.12.137-.246l.21-.219.919-.085c1.128-.102 1.425-.208 2.562-.88 1.152-.68 1.742-1.257 2.035-2l.43-1.058c.43-1.023.453-1.215.324-2.336-.062-.535-.148-1.012-.191-1.055-.043-.043-.114-.234-.157-.418a8.982 8.982 0 0 0-.367-1.046c-.27-.68-.46-1.391-.562-2.114-.024-.164-.07-.304-.102-.304-.117 0-.062-.575.098-1.008.152-.426.152-.442.039-.563-.117-.117-.125-.11-.258.258-.254.664-.293.945-.21 1.426.038.238.089.926.105 1.527.023.985.046 1.164.226 1.766.106.367.195.742.195.836l-.003.172-.133-.18c-.156-.211-.25-.18-.25.086 0 .105-.086.55-.192.988a12.71 12.71 0 0 0-.25 1.305c-.074.66-.367 1.246-1.011 2.012-.442.527-.73.738-.844.628-.02-.023.11-.234.293-.472.336-.457.433-.7.36-.922-.071-.23-.317-.156-.72.215-.207.187-.43.355-.664.508-.39.226-1.148.468-1.753.566-.582.094-.758.188-.653.363.035.063.192.157.344.207.39.125.215.2-.45.188-.3-.008-.808.012-1.124.039-1.032.082-2.024-.145-2.774-.637-.457-.3-.543-.336-.543-.223 0 .09.617.704.707.704.04 0 .207.14.375.304.164.172.477.403.696.516.507.27 1.547.512 2.425.57l.688.04-.203.261a3.376 3.376 0 0 1-.5.473c-.25.183-.348.215-.664.215-.84.003-2.926-.57-3.547-.985a9.025 9.025 0 0 0-.59-.351c-.473-.239-1.09-.73-1.684-1.344-.464-.48-.625-.606-.742-.59-.129.02-.148.055-.144.281 0 .14.027.336.05.434.043.137.032.172-.042.172-.133 0-.497.312-.497.422 0 .144.461.484.653.484.101 0 .304.098.484.234.664.508 2.598 1.395 3.727 1.711.242.063.328.121.34.227.02.125-.02.137-.536.18-.855.07-2.039-.227-2.867-.723-.37-.223-.578-.27-.578-.129 0 .125.434.82.649 1.047.308.32.246.351-.317.183-.254-.07-.441-.203-.781-.52-.52-.483-.684-.519-.66-.124.02.336.336.82.726 1.101.375.262.422.477.157.653-.211.137-.133.222.312.324.336.082.91.07 2.106-.035zm57.243-.207c.238-.043.48-.102.547-.14.109-.055.097-.071-.09-.235-.27-.223-.235-.352.195-.668.5-.379.813-.969.684-1.3-.036-.095-.055-.095-.23-.005a.699.699 0 0 0-.263.227c-.171.324-1.16.851-1.43.761-.042-.015.04-.152.188-.316.184-.207.34-.434.473-.676.2-.375.2-.383.062-.402-.082-.012-.289.07-.476.184-.406.257-1.133.523-1.805.675-.547.121-1.539.09-1.625-.047-.07-.109.207-.293.55-.363.759-.164 2.849-1.133 3.513-1.633.195-.144.394-.242.504-.242.12 0 .27-.082.453-.258l.27-.257-.212-.192c-.113-.11-.265-.195-.328-.195-.113 0-.113-.016-.023-.356.09-.324.09-.367 0-.457-.153-.156-.32-.062-.793.446-.383.402-.828.8-1.621 1.437-.621.496-3.336 1.317-4.348 1.313-.398 0-.402-.004-.844-.395l-.437-.398.172-.18c.207-.211.183-.266-.16-.379-.305-.098-.419-.043-.204.106l.145.101-.145.152c-.129.141-.132.172-.054.329.043.097.09.195.093.21.004.02.118.247.25.5.41.77.903 1.243 1.805 1.735.816.45.953.496 1.586.539.418.031.7.09.898.18.192.093.434.14.708.144.23.008.609.035.84.059.64.07.699.07 1.152-.004zm-2.016-3.992c.23-.082.184-.118-.3-.196-.27-.043-.536-.093-.801-.152a2.452 2.452 0 0 1-.493-.172c-.207-.105-.398-.121-1.34-.121H55.88l-.582-.223c-.32-.125-.625-.226-.676-.226a.092.092 0 0 1-.09-.094c0-.11.258-.254.574-.324.258-.059.192-.11-.285-.219a1.716 1.716 0 0 1-1.11-.883 4.964 4.964 0 0 0-.468-.699c-.402-.48-.527-.777-.62-1.45-.099-.69-.415-1.437-.942-2.206-.282-.41-.43-.77-.434-1.035 0-.137.004-.141-.398.117-.168.105-.305.223-.305.258s.05.132.121.222c.164.203.164.301.004.762a9.79 9.79 0 0 0-.262 1.074c-.21 1.117-.097 2.176.34 3.117.266.567.973 1.301 1.492 1.551.54.254 1.356.453 1.883.453.246 0 .578.043.75.094.164.055.664.125 1.102.172.707.066.843.062 1.18-.031.523-.149 1.015-.137 1.37.035.247.117.59.191 1.106.238a.821.821 0 0 0 .285-.062zm-.82-.723c-.086-.074-.324-.48-.528-.89-.418-.852-.601-1.051-1.347-1.465-.559-.31-.664-.32-2.004-.207-.606.05-.785.046-.84-.016a2.336 2.336 0 0 0-.348-.266 1.524 1.524 0 0 1-.625-.965c-.062-.382-.14-.488-.351-.488h-.188l.04.371c.05.508.19.762.687 1.227.504.469.808.59 1.203.472.14-.043.309-.066.367-.043a.64.64 0 0 0 .313-.023c.136-.039.312-.027.547.035.617.156 1.18.352 1.39.48.332.204.695.669 1.016 1.282.285.558.351.625.672.637l.156.007zm-54.512-.559c.121 0 .137-.039.14-.363 0-.336-.019-.387-.234-.613-.215-.227-.218-.25-.093-.25.222 0 .535-.125.574-.238.023-.051-.012-.204-.07-.332-.114-.227-.126-.23-.508-.254-.371-.016-.41-.004-.664.21-.309.258-.383.27-.66.13-.149-.079-.215-.086-.286-.028-.136.117-.113.246.09.45.102.1.223.324.27.492.043.171.129.367.187.433.164.2.723.434.934.395.101-.02.242-.032.32-.032zm56.637-.503c.093-.067.215-.27.285-.485.066-.203.191-.445.277-.523.168-.172.207-.473.063-.524-.047-.023-.176.012-.285.063-.266.136-.282.133-.59-.121-.246-.207-.305-.227-.68-.227-.39 0-.414.012-.508.192-.195.378-.11.527.356.617l.23.039-.191.203c-.239.254-.317.453-.242.64.07.18.257.348.421.387.176.035.672-.113.864-.262zM1.73 27.098c.06 0 .23.043.375.097l.27.098-.203-.266a2.21 2.21 0 0 0-.36-.355 1.259 1.259 0 0 1-.289-.32c-.148-.247-.34-.286-.441-.094-.078.14-.094 1.308-.02 1.383.028.027.168-.086.31-.246.136-.165.304-.297.358-.297zm5.758.32c.516-.105 1.032-.234 1.145-.285.113-.051.367-.137.562-.192.407-.109 1.172-.574 1.145-.695-.008-.047.308-.398.707-.789.758-.742 1.047-1.168 1.047-1.559 0-.324-.149-.265-.477.192-.148.21-.32.414-.504.605-.242.227-1.34.996-1.808 1.266-.344.203-.41.383-.125.363.308-.02.304-.004-.078.23-.45.266-.66.344-1.711.602-.383.09-.758.2-1.13.324l-.32.13.305.003c.164 0 .727-.086 1.242-.195zm-4.82-.098c-.02-.023-.074-.023-.121-.008-.05.02-.035.036.043.04.062 0 .105-.012.078-.032zm60.965-.11c.12-.437-.008-1.335-.192-1.335-.09 0-1.054.96-1.109 1.11-.012.03.086.011.215-.044.375-.156.504-.128.73.157.243.297.301.316.356.113zm-1.438-.175c.075-.047.051-.062-.086-.062-.105 0-.168.023-.14.062.047.078.101.078.226 0zM2.32 26.203c.067-.105.203-.265.317-.36.164-.14.258-.167.5-.155.16.007.484.011.71.003l.415-.011-.168-.172a1.68 1.68 0 0 1-.239-.328.853.853 0 0 0-.226-.246c-.176-.11-.328-.067-.606.191-.109.102-.234.137-.453.137-.28 0-.308.015-.418.234-.082.184-.101.317-.066.567.023.183.059.328.086.328.02 0 .09-.086.148-.188zm60.254-.543c0-.172-.031-.344-.094-.504-.097-.187-.125-.199-.378-.16-.227.031-.301.016-.399-.094-.18-.195-.46-.328-.61-.28-.07.019-.206.163-.296.308a1.743 1.743 0 0 1-.27.343c-.058.043-.086.094-.066.114.02.023.352.043.727.047l.687.007.29.313c.155.172.288.344.288.39.012.215.117-.206.121-.484zm-50.613.184c.101-.051.426-.356.723-.676l.535-.578v.316c0 .36.058.453.199.313.18-.18.219-.578.23-2.453.004-1.055.032-1.871.067-1.891.035-.02.117.016.183.078.07.059.149.094.172.067.024-.024 0-.313-.05-.637a8.98 8.98 0 0 1-.086-1.07c.007-.43 0-.461-.086-.352-.414.539-.63 1.582-.563 2.727.027.445.05.98.05 1.19-.003.56-.245 1.622-.437 1.911-.152.234-.804.816-1.066.957-.066.035-.125.098-.125.129 0 .086.04.082.254-.031zm44.113-.16c.23-.059.184-.145-.133-.239-.3-.086-.808-.535-.695-.61.074-.038-.516-.194-1.101-.288-.266-.04-.282-.035-.2.062.047.055.258.168.465.243.434.16.828.535.828.8 0 .157.008.16.336.118.192-.024.414-.067.5-.086zM17.95 24.125c.11-.203.274-.664.367-1.031.149-.606.157-.7.086-1.082a6.423 6.423 0 0 0-.226-.867c-.121-.368-.29-1.567-.29-2.086 0-.04-.07-.032-.171.023-.156.082-.192.078-.293-.012-.11-.101-.113-.09-.113.18 0 .281-.082.441-.23.441-.044 0-.138-.148-.212-.336-.11-.261-.156-.316-.219-.25-.117.11-.082.563.122 1.883.125.817.195 1.13.253 1.11.082-.035.122.117.32 1.136.106.547.137 1.297.063 1.567-.066.222.313-.242.543-.676zm35.766.23c-.117-.18-.184-.164-.121.036.027.074.086.132.14.132.075 0 .07-.027-.02-.168zm-.54-.937a3.98 3.98 0 0 0-.097-.453c-.05-.207-.078-.41-.058-.442.023-.035.003-.168-.04-.293-.105-.328-.05-.324.184.004.113.164.254.293.309.293.093 0 .097-.047.054-.308a5.606 5.606 0 0 1-.058-.887c0-.488-.016-.578-.11-.594a.454.454 0 0 0-.226.035.335.335 0 0 1-.238.016c-.13-.043-.739.293-.747.41 0 .04.114.258.258.492.313.516.516 1.067.516 1.399 0 .234.09.402.207.402.027 0 .05-.031.05-.074zm-26.41-.89c.223-.11.446-.196.485-.196.05 0 .375-.297.723-.66.738-.758.882-1.004 1.691-2.918.344-.813.578-1.473.691-1.957.133-.582.227-.82.442-1.156.363-.551.656-1.149.867-1.774.113-.32.285-.742.387-.937a3.94 3.94 0 0 0 .261-.64 1.2 1.2 0 0 1 .223-.454c.094-.106.18-.219.258-.332.105-.164.105-.176-.031-.215-.07-.023-.145-.035-.157-.02-.308.333-.496.637-.605 1-.074.247-.219.563-.324.708a6.354 6.354 0 0 0-.395.664c-.289.57-1.02 1.273-1.824 1.754-.855.511-.922.511-1.98.03-.809-.37-.82-.374-1.13-.296a1.85 1.85 0 0 0-.378.121c-.117.094-.946.387-1.09.387-.078 0-.313.058-.524.133-.21.07-.726.199-1.144.285l-.77.152-.25-.129c-.324-.168-.445-.125-.242.078.086.086.188.211.227.282.035.078.172.156.324.195a.917.917 0 0 1 .45.281c.257.309.745.523 1.183.523.539 0 1.637-.328 1.922-.57.367-.312.71-.539.777-.512.125.04-.176.567-.539.95-.195.203-.355.406-.355.441 0 .113.386.16.73.082.527-.117 1.395-.5 1.758-.777.554-.418.625-.414.437.035-.054.129-.086.25-.07.266.016.02.145-.04.277-.133.137-.094.274-.168.313-.168.035 0 .18-.086.312-.203l.242-.196-.101.246c-.059.137-.23.485-.379.766a6.597 6.597 0 0 0-.43.969c-.125.394-.203.504-.636.937-.637.633-1.258 1.09-1.477 1.086-.152-.004-.11-.062.418-.562.793-.754 1.262-1.559.91-1.559-.05 0-.27.184-.496.414-.289.285-.543.473-.855.613-.575.266-.922.278-1.418.051-.438-.199-.504-.347-.348-.8.152-.446.137-.653-.059-.743-.14-.062-.226-.039-.675.196-.282.144-.586.27-.676.27-.117 0-.344-.184-.852-.692-.699-.703-1.02-1.117-1.215-1.594-.09-.215-.168-.293-.39-.383-.168-.074-.32-.187-.375-.293-.125-.242-.242-.324-.406-.285-.137.04-.137.04.035.274.218.296.406.453.547.457.062 0 .18.125.265.273.242.418.672 1.535.79 2.062.265 1.176 1.656 3.31 2.538 3.891.29.192 1.145.465 1.48.469.126.004.407-.082.634-.188zm14.93-.657c.414-.152.98-.68 1.887-1.746.27-.313.668-.777.895-1.031.222-.254.476-.625.566-.817a3.544 3.544 0 0 1 1.617-1.668c.172-.09.27-.183.27-.257 0-.07.097-.27.218-.45.141-.207.18-.308.114-.277a6.844 6.844 0 0 0-.942.527c-.261.16-.53.313-.804.45-.707.351-1.09.601-1.645 1.07-.469.394-.672.5-1.059.566-.156.024-.398.176-.726.453-.3.247-.602.442-.754.485-.387.105-.336.238.191.469.528.238.555.332.133.543-.535.273-1.738.128-2.351-.282l-.809-.531c-.289-.195-.496-.367-.457-.379.035-.012.168.035.29.11.21.132.858.195.96.093.09-.09-.121-.308-.621-.637-1.004-.656-1.664-1.43-2.152-2.507-.368-.825-.528-1.422-.524-1.996v-.32l.153.46c.12.399.222.551.652 1.04.281.316.64.816.808 1.113.356.648.887 1.18 1.461 1.468.336.168.383.18.32.07-.116-.187-.046-.214.391-.128.23.05.684.066 1.09.05.613-.027.746-.05 1.14-.238.247-.113.606-.297.794-.414l.344-.207-.215-.035-.215-.031.222-.145c.126-.078.458-.234.743-.351.886-.356 1.93-.91 1.953-1.032.035-.203-.395-.132-1.067.172-.347.156-.687.301-.757.324-.18.047-1.727.266-2.625.364-.825.093-.91.152-.532.375.243.14.285.246.121.308-.117.043-.93-.14-1.203-.285-.293-.144-.691-.539-.933-.918a5.622 5.622 0 0 0-.469-.62 3.486 3.486 0 0 1-.7-1.13 1.382 1.382 0 0 0-.433-.605 4.56 4.56 0 0 1-.59-.637l-.308-.406-.149.277c-.082.156-.215.328-.293.375-.14.094-.14.106-.05.535.074.36.078.516.011.848-.082.434-.039 1.394.082 1.848.035.14.075.476.082.742.012.433.035.527.242.867.126.215.301.586.383.824.094.27.266.586.446.809.16.203.379.515.48.703.094.183.254.406.348.492.554.52.824.7 1.515 1.024l.778.363.656.004c.516 0 .734-.032 1.027-.14zm9.586-1.285c.328-.164.547-.39.739-.766.117-.23.117-.242.007-.273-.058-.016-.21.039-.332.121-.3.207-.562.195-.84-.04-.273-.23-.34-.241-.3-.03.047.25-.188.203-.47-.094l-.241-.254-.04.195c-.113.563-.011.82.434 1.153.313.234.555.234 1.043-.012zm2.817-.938c.336-.238.605-.726.73-1.316.16-.766.016-1.168-.601-1.73-.36-.336-1.536-.965-1.793-.965-.059 0-.207-.102-.325-.227-.191-.203-.226-.223-.343-.148-.075.047-.133.101-.133.12 0 .067.472.462.75.626.137.082.351.234.472.336.22.176.227.195.208.574-.012.379-.008.398.164.465.425.156.554.508.37.988-.1.266-.535.742-.675.742-.016-.004-.035.004-.047.016a.072.072 0 0 0-.02.047c0 .097.461.152.657.082.097-.04.18-.047.18-.024 0 .07-.258.297-.446.395-.152.078-.152.082-.027.176.172.133.574.058.879-.157zm-2.79-.761c.051-.063.07-.188.047-.32l-.035-.22.301-.042a5.7 5.7 0 0 0 .414-.07c.176-.051.137.093-.086.296l-.195.176.164.047c.187.043.539-.082.676-.246.148-.18.09-.996-.106-1.371-.136-.262-.285-.364-.234-.153a.519.519 0 0 1-.203.555c-.137.09-.207.094-.48.027-.387-.093-.43-.148-.294-.359.172-.262.145-1.05-.043-1.387l-.148-.265-.035.476c-.031.367-.106.63-.344 1.184-.273.633-.3.746-.281 1.086.02.316.054.406.203.531.203.176.559.203.684.055zm-37.25-.164c.02-.032.008-.059-.03-.059-.036 0-.067.027-.067.059 0 .039.012.066.027.066.016 0 .043-.027.07-.066zm35.18-.336c.426-.414.637-.762.688-1.145.035-.242.011-.344-.153-.664-.191-.36-.277-.879-.148-.879.031 0 .148.102.266.23.222.243.437.274.402.06a1.56 1.56 0 0 0-.191-.387c-.16-.235-.176-.313-.176-.868 0-.578-.008-.613-.137-.632-.168-.024-.348.199-.3.375.042.156-.145.457-.376.617-.172.117-.379.496-.472.867-.036.129 0 .191.156.309.387.285.406.73.047 1-.348.265-.524.277-.758.046-.117-.117-.184-.242-.164-.296.078-.2-.02-.082-.211.261-.16.274-.188.38-.14.473.081.148.484.394.648.394.105 0 .117.032.082.235-.028.183-.012.254.086.324.199.152.476.047.851-.32zm-30.785-.367a.964.964 0 0 1 .399-.133c.113 0 .3-.082.464-.211.414-.317.41-.317.387-.051-.015.16.012.266.082.324.09.074.13.067.27-.066.226-.211.535-.875.535-1.16 0-.266-.074-.348-.574-.586-.45-.211-.692-.469-.758-.793-.035-.156-.094-.266-.16-.278-.153-.027-.2.196-.094.496l.094.266-.47.008.196.11c.43.238.61.445.61.699 0 .261-.282.656-.575.8-.168.082-.32.172-.472.278-.203.144-.828.187-.953.058-.137-.136.238-.52.597-.601a.877.877 0 0 0 .469-.27c.363-.426.152-.457-.984-.14-.121.035-.207-.024-.47-.305-.343-.38-.429-.375-.456.023-.016.227-.024.235-.145.153a1.032 1.032 0 0 1-.258-.293c-.105-.18-.109-.239-.039-.477a1.52 1.52 0 0 1 .313-.512c.254-.261.375-.312.262-.105-.043.094-.047.16-.008.2.074.073.691-.349.906-.626.258-.332.535-1.058.399-1.058-.036 0-.18.156-.325.351-.304.414-.449.469-.261.098.273-.528.125-.57-.622-.211-.617.3-1.207.86-1.464 1.383-.153.324-.176.433-.153.816.024.398.047.473.27.742.137.168.394.399.578.524.266.18.395.226.652.226.278 0 .332.02.39.14.095.212.333.306.77.306.274 0 .446-.04.598-.125zm-3.57-1.012c.14-.074.168-.121.133-.23-.059-.2-.07-.204-.188-.087-.246.243-.547.012-.547-.425 0-.13.059-.391.133-.575.129-.332.129-.507-.004-.507-.035 0-.12.125-.187.277-.11.258-.516.691-.649.691-.027 0-.011-.086.04-.195.093-.187.07-.45-.04-.45-.027 0-.18.106-.328.231-.293.242-.832.543-.976.543-.137 0-.551-.398-.598-.574-.024-.082-.016-.137.012-.117.03.023.113-.149.18-.375.085-.317.163-.453.331-.578.121-.094.22-.153.22-.137 0 .016-.06.152-.126.309-.156.34-.164.433-.035.48.066.027.187-.055.344-.223.132-.14.324-.277.43-.308.105-.024.515-.012.913.035.711.074.715.074.965-.082.352-.223.574-.492.621-.738l.04-.215-.337.035c-.187.02-.476.055-.644.078-.281.035-.348.016-.738-.219-.528-.312-.766-.37-1.176-.273-.36.09-.844.473-.953.754l-.235.61c-.195.507-.207.827-.043 1.187.153.336.641.672.97.672.35 0 1.038.21 1.327.41.227.156.29.172.606.133.183-.02.367-.063.539-.133zm32.824-.551c0-.316.082-.473.313-.594.132-.07.199-.074.253-.02.086.087.106.067.164-.113.032-.109 0-.144-.167-.195-.18-.05-.247-.039-.438.09a.957.957 0 0 0-.383 1.148c.07.176.074.176.164.055.051-.066.094-.234.094-.371zM41.82 14.93c.535-.203.946-.285 1.149-.235.144.035.164.059.097.137-.062.078-.05.094.086.094.094 0 .309-.055.477-.121.355-.14 1.781-.297 2.113-.235.305.055.285-.039-.05-.226-.258-.145-.329-.153-1.188-.137-.504.004-.98.035-1.066.07-.09.036-.192.036-.247 0-.21-.132-.652-.054-1.476.258-1.211.457-1.25.485-1.274.899l-.02.336.513-.348c.277-.195.68-.414.886-.492zm-18.554.445c.355-.035.75-.098.879-.129.32-.086.539-.273.484-.406-.047-.13-.211-.133-.645-.016-.21.059-.422.102-.636.133-.297.043-.309.04-.309-.125 0-.297-.285-.238-1.82.363-.098.04-.164.082-.153.098.07.07 1.063.203 1.297.176.14-.016.551-.059.903-.094zm16.582.105c0-.011-.133-.27-.29-.574-.163-.3-.304-.656-.312-.781-.02-.176-.074-.262-.242-.375-.164-.11-.316-.34-.606-.922-.214-.43-.535-.96-.714-1.195-.164-.2-.309-.41-.446-.633l-.113-.219-.082.16a.76.76 0 0 1-.316.282c-.125.07-.227.144-.227.164 0 .02.102.133.223.254.136.132.226.28.226.37 0 .317.242.594.516.598.312.004.433.153.465.579.027.433.191.714.441.773.106.027.211.14.316.355.231.461 1.16 1.391 1.16 1.164zm8.78-.257c.02-.055.005-.106-.038-.118-.047-.015-.024-.105.07-.253.16-.27.18-.473.035-.555-.136-.078-.675.015-1.09.187-.261.11-.39.125-.585.09-.145-.035-.204-.066-.137-.082.094-.02.082-.05-.082-.187-.235-.2-.25-.457-.043-.649.277-.261 1.613-.5 1.91-.344.137.075.137.075.039-.117a1.29 1.29 0 0 0-.309-.36l-.21-.175.257.035c.125.012.246.04.367.075.106.043.106.03.012-.2a2.774 2.774 0 0 0-.258-.472c-.402-.594.055-.582.805.02.43.343.527.487.606.91.02.109.043.097.164-.098.343-.555.015-1.711-.649-2.285-.387-.332-.68-.47-1.207-.555-.426-.07-.469-.067-.633.05-.132.098-.183.204-.21.43-.016.164-.06.32-.094.356l-.403.328c-.55.445-.656.773-.37 1.16l.16.215-.22.242c-.265.297-.32.543-.234 1.074.082.5.188.73.395.836.222.114.793.102 1.078-.023a3.36 3.36 0 0 1 .476-.153l.235-.046-.125.246c-.102.191-.113.27-.059.375.082.152.293.175.348.043zm6.142.023c.437-.168.714-.633.773-1.285.027-.367.012-.484-.102-.723-.203-.418-.558-.804-.867-.941-.281-.121-.488-.348-.914-1-.305-.453-.594-.621-1.086-.621-.254 0-.39.039-.515.133-.172.14-.723 1.16-.871 1.62a2.21 2.21 0 0 1-.231.462c-.102.148-.129.246-.086.273.043.024.055.145.031.29-.023.183-.007.25.055.25.152 0 .445-.134.598-.27.265-.254.23-.055-.07.386-.34.5-.383.637-.16.52a.922.922 0 0 0 .507-.598c.043-.16.168-.355.313-.496.214-.203.3-.234.675-.277.5-.051.614-.004.875.363.297.41.27.645-.129 1.008-.18.164-.324.316-.324.348 0 .078.317.05.567-.055.175-.086.34-.2.48-.332.129-.13.258-.215.285-.192.09.09-.113.547-.367.832-.14.164-.254.313-.254.332 0 .067.625.043.817-.027zm-34.696-.125c.223 0 .778-.27.934-.453l.133-.148-.141.078c-.172.09-.535.097-.535.007 0-.03.144-.132.312-.222.176-.086.434-.297.582-.469.516-.601 1.04-1.937 1.04-2.66 0-.336-.024-.406-.204-.61-.21-.238-.496-.417-.664-.417-.082 0-.086.027-.027.156.043.09.125.18.191.199.215.066.38.352.38.645 0 .66-.63 2.03-1.052 2.289a3.349 3.349 0 0 1-.543.234c-.218.066-.34.14-.34.207 0 .055-.078.184-.163.285-.227.254-.34.153-.23-.207.116-.398.089-.426-.184-.176-.204.18-.31.23-.512.23-.14 0-.274.028-.293.067-.09.145.969 1.133 1.09 1.02.035-.031.136-.055.226-.055zm5.918-.871h.606l.136-.2c.075-.113.262-.363.41-.562.153-.199.274-.375.274-.394 0-.121-.246.02-.602.34-.332.296-.453.37-.628.37-.122 0-.317.051-.438.11-.29.149-.293.145-.137-.074.157-.227.11-.274-.199-.203-.125.027-.39.02-.598-.02-.46-.082-.984.008-1.597.293-.242.11-.426.207-.418.219.023.023.754-.098 1.43-.234.296-.055.433-.055.581 0l.192.078-.145.117c-.254.207-.187.281.192.219.187-.032.61-.059.941-.059zm4.11-.297c.242-.223.507-.496.582-.605a.58.58 0 0 1 .336-.246.497.497 0 0 0 .289-.184c.128-.195.34-.996.277-1.055-.059-.058-.348-.062-.563-.011-.136.039-.18.105-.253.378-.102.403-.875 1.579-1.196 1.829-.262.199-.281.289-.07.289.101 0 .316-.145.598-.399zm-2.122.09a.935.935 0 0 0 .356-.32c.066-.118.133-.215.144-.215.012 0 .004.113-.011.254-.02.133-.004.261.031.289.129.074.34-.196.781-1 .246-.446.578-1.008.742-1.246.391-.563.391-.672.004-.422-.21.14-.664.176-.87.066a.268.268 0 0 1-.13-.207c0-.234-.109-.055-.277.465-.094.285-.2.563-.316.836-.09.195-.211.5-.274.68-.09.222-.223.425-.398.59-.153.152-.278.289-.278.308 0 .07.278.031.496-.078zm-8.507-.988l.543-.52.336.02c.375.023.378.02.277-.477-.05-.242-.05-.242.156-.242.156 0 .215.035.242.137.047.183.145.023.145-.25 0-.118.031-.211.078-.211.113 0 .313.199.313.316 0 .086.019.082.097-.02.16-.218.117-.648-.09-.89a3.093 3.093 0 0 1-.355-.543c-.094-.18-.227-.352-.293-.371-.172-.059-.594.062-.8.223-.18.14-.392.636-.458 1.093-.086.532-.297 1.125-.469 1.305-.093.098-.136.176-.093.176.046 0-.036.14-.18.312-.29.344-.324.461-.129.461.082 0 .355-.21.68-.52zm-2.528.093c.137-.05.133-.148-.004-.293-.136-.152-.03-.156.391-.015.305.105.496.074.281-.047-.062-.035-.172-.176-.238-.316-.164-.317-.293-.383-.707-.383-.543 0-.895-.121-1.2-.414-.343-.328-.425-.66-.245-.992.18-.333.52-.524 1.148-.645.305-.063.543-.137.531-.172-.03-.11-.554-.344-.859-.39-.188-.032-.438-.004-.715.062-.23.055-.433.09-.45.074-.093-.09.099-.3.388-.43.285-.124.472-.152 1.195-.171.977-.032.98-.036.266-.461l-.442-.266-.574.07c-.914.102-1.399.313-2.004.871-.3.278-.46.504-.68.942-.316.633-.379 1.05-.199 1.402.137.262.754.801 1.266 1.106.379.226.531.277.976.328.293.035.617.082.723.117.234.059 1.012.078 1.152.023zm18.684-.515c.164-.176.328-.75.273-.961-.023-.086-.035-.067-.039.066-.011.145-.035.29-.074.426-.055.2-.102.246-.289.277-.281.055-.297.047-.613-.386-.16-.22-.305-.348-.387-.348-.184 0-.16.082.137.516.418.613.699.73.992.41zm-17.266-.344c.313-.605.43-1.078.434-1.742.008-.84-.106-1.172-.535-1.602-.367-.37-1.125-.78-1.43-.78-.195 0-.184.01.188.25.5.315.628.468.855.976.227.5.297.77.207.77-.035 0-.21-.106-.387-.231-.18-.13-.347-.215-.37-.196-.02.024.023.09.105.149.18.125.328.457.328.73v.196l-.192-.141c-.183-.137-.191-.137-.48-.027-.371.14-.375.27-.008.363.387.098.621.36.664.734l.035.301.293-.363.047.176c.024.097.024.347 0 .55-.047.407-.012.387.246-.113zm16.387-.906c.465-.078.844-.301 1.164-.684.246-.304.512-1.02.566-1.527.036-.36.032-.387-.066-.309-.055.047-.219.332-.36.63-.335.706-.816 1.206-.55.581.176-.43.117-.476-.195-.172-.266.258-.317.286-.676.313-.617.043-.844-.188-.621-.621.12-.227.34-.422.636-.563.254-.117.579-.472.657-.722.054-.176-.035-.184-.188-.02a.672.672 0 0 1-.304.168c-.227.05-.395-.062-.192-.125.188-.062.395-.43.395-.707 0-.305-.098-.297-.391.023-.195.211-.281.262-.469.262-.343 0-.633-.148-1.008-.492-.265-.25-.347-.297-.433-.242-.168.105-.336.683-.38 1.304-.034.516-.026.582.09.7.118.117.122.16.063.394-.086.32.016 1.016.18 1.274.121.18.473.355 1.004.5.426.113.558.12 1.078.035zm-3.023-.746c.175-.219.171-.274-.032-.352-.136-.05-.164-.09-.129-.223l.04-.156-.235.16a.944.944 0 0 1-.441.16c-.192 0-.22-.03-.38-.378-.093-.211-.171-.442-.171-.52 0-.312.387-.77.851-1.004.118-.066.172-.129.137-.164-.078-.082-.953.168-1.191.332-.29.207-.235-.015.094-.37.3-.333.324-.313-.25-.173-.13.031-.165.02-.141-.047.016-.05.242-.164.504-.254.574-.195.644-.23.644-.363 0-.055-.039-.086-.082-.07-.047.015-.312.098-.597.183-.41.122-.567.207-.778.418-.613.614-.71 1.66-.203 2.2.125.132.137.136.215.03.074-.105.094-.1.262.056.316.28.394.328.906.511.656.23.813.235.977.024zm6.027-2.047c.223-.375.207-.563-.07-.871-.301-.332-.305-.543-.028-.778.407-.332.035-.586-.379-.261-.574.445-.664.488-1.047.488-.445 0-.476.074-.148.336.238.195.281.309.125.363-.05.02-.094.063-.094.09 0 .082.57.293.68.246.27-.101.516.313.437.727l-.039.226.2-.144c.113-.082.273-.266.363-.422zm-8.984.23c0-.066-.106-.195-.258-.289-.14-.094-.254-.199-.254-.23s.101-.07.222-.098c.125-.023.227-.07.227-.105 0-.032 0-.078.004-.11 0-.023-.156-.086-.348-.14l-.351-.102.136-.289a.902.902 0 0 1 .415-.437c.351-.196.882-.25 1.132-.122.153.082.43.086.43.004 0-.011-.148-.113-.328-.226-.27-.164-.309-.211-.227-.262.274-.152.008-.476-.547-.664-.55-.184-.707-.074-1.234.871-.305.543-.332.715-.184 1.23.149.52.297.712.72.93.35.188.445.196.445.035zm2.64-2.039c-.094-.11-.094-.11.121-.199.153-.062.149-.07-.172-.3-.32-.231-.578-.532-.511-.602.02-.016.14.011.277.07.266.11.48.129.48.04 0-.028-.039-.071-.093-.095-.078-.027-.559-.78-.657-1.035-.07-.187.141-.105.399.164.21.215.926.703 1.031.703.016 0 .028-.09.028-.203 0-.281-.493-.949-.88-1.203-.624-.402-.831-.777-.64-1.16.145-.273.348-.398.648-.398.356 0 .215-.122-.203-.168-.672-.083-1.66.437-2 1.046-.074.141-.175.47-.222.73l-.078.47.558.53c.305.298.617.657.688.798.156.304.558.652.757.652.079 0 .16.035.188.07.02.036.101.094.176.125.191.079.195.075.105-.035zm4.676-.449c.676-.195 1.2-.883 1.348-1.762.132-.77.007-1.207-.461-1.617-.547-.48-1.547-.734-1.922-.492-.215.14-.617.988-.934 1.969-.14.437-.332.922-.422 1.07-.207.36-.21.543-.008.543.27 0 .504-.262.793-.879.153-.328.305-.61.336-.633.121-.074.684.082.797.223.149.187.145.523-.02.84-.105.203-.109.258-.034.258.109 0 .367-.297.593-.688.2-.34.348-.371.348-.07 0 .383-.426.96-.89 1.203l-.239.125.2.004c.109 0 .343-.04.515-.094zm-2.945-1.23c.23-.165.273-.364.199-.915-.117-.847-.356-1.109-1.094-1.207l-.351-.042.148.148c.355.36.785.977.824 1.187.02.125.028.372.008.547-.035.418.004.461.266.282zm.714-3.075c.004-.32-.12-.699-.296-.89-.157-.172-.512-.149-.954.066-.386.184-.511.293-.796.7l-.141.21h.242c.3.004.707.188.914.41.086.094.215.172.281.172.11 0 .122-.035.086-.23l-.035-.227.188.11a.715.715 0 0 1 .258.273l.082.164.082-.223c.047-.124.086-.363.09-.535zm0 0"/></svg>