<svg xmlns="http://www.w3.org/2000/svg" width="64" height="64"><path d="M32 1.344a30.583 30.583 0 0 0-20.438 7.781v.031c.024 2.95 3.407 5.694 3.407 7.406 0 1.719-1.516 3.125-3.406 3.125-1.891 0-3.438-1.406-3.438-3.125 0-1.712 3.413-4.52 3.438-7.406C5.287 14.77 1.342 22.917 1.342 32c0 16.933 13.723 30.656 30.657 30.656 16.933 0 30.656-13.723 30.656-30.656 0-9.335-4.169-17.69-10.75-23.313.121 2.9 3.407 5.594 3.407 7.282 0 1.718-1.516 3.094-3.407 3.094-1.89 0-3.437-1.376-3.437-3.094 0-1.688 3.284-4.442 3.406-7.281C46.521 4.12 39.589 1.343 32 1.343zm19.875 7.343c.006.006.025-.005.031 0-.002-.054 0-.102 0-.156 0 .054-.029.103-.031.156zm-20.313-.03c0 2.96 3.438 5.75 3.438 7.468s-1.547 3.094-3.438 3.094c-1.89 0-3.437-1.376-3.437-3.094s3.438-4.573 3.438-7.469zM20.907 22.03c0 2.96 3.407 5.75 3.407 7.469 0 1.718-1.517 3.094-3.407 3.094-1.89 0-3.437-1.376-3.437-3.094s3.437-4.573 3.437-7.469zm21.657 0c0 2.96 3.437 5.75 3.437 7.469 0 1.718-1.547 3.094-3.438 3.094-1.89 0-3.437-1.376-3.437-3.094s3.438-4.573 3.438-7.469zm9.343 13.719c0 2.96 3.407 5.719 3.407 7.438 0 1.718-1.516 3.124-3.407 3.124-1.89 0-3.437-1.406-3.437-3.124 0-1.719 3.437-4.542 3.437-7.438zm-41 .031c0 2.961 3.406 5.75 3.406 7.469 0 1.718-1.515 3.094-3.406 3.094-1.89 0-3.437-1.376-3.437-3.094s3.437-4.573 3.437-7.469zm20.657.344c0 2.96 3.437 5.719 3.437 7.438 0 1.718-1.547 3.124-3.438 3.124-1.89 0-3.437-1.406-3.437-3.124 0-1.719 3.438-4.542 3.438-7.438zM20.905 49.438c0 2.96 3.407 5.719 3.407 7.437 0 1.72-1.517 3.125-3.407 3.125-1.89 0-3.437-1.406-3.437-3.125 0-1.718 3.437-4.541 3.437-7.438zm21.657.437c0 2.96 3.437 5.751 3.437 7.469s-1.547 3.093-3.438 3.093c-1.89 0-3.437-1.375-3.437-3.093s3.438-4.573 3.438-7.469z" fill="#231f20"/></svg>