<svg xmlns="http://www.w3.org/2000/svg" width="64" height="64"><path d="M30.057 62.944c-5.964-.358-11.863-2.527-16.643-6.12-1.676-1.26-3.943-3.404-5.187-4.907-3.063-3.703-5.15-7.785-6.279-12.282-1.856-7.398-.97-15.133 2.503-21.84 1.512-2.92 3.22-5.241 5.641-7.66 2.49-2.488 4.832-4.198 7.847-5.73 3.61-1.832 7.188-2.856 11.405-3.262 1.036-.1 4.226-.1 5.269 0 6.558.625 12.2 2.95 17.23 7.1 1.52 1.253 3.678 3.53 4.941 5.213 5.594 7.453 7.512 17.065 5.225 26.174a30.909 30.909 0 0 1-5.225 10.954c-1.664 2.218-4.05 4.603-6.273 6.269-5.826 4.368-13.095 6.532-20.454 6.09zm7.807-1.366l.622-.133v-1.654l-.16-.04c-.24-.06-.783.012-1.086.144l-.268.117.02.803c.01.441.032.823.047.849.043.07.145.059.825-.086zm-14.23-.4c.094-.243.015-.4-.526-1.051-.664-.8-1.022-1.314-.958-1.377.085-.085.806-.033 1.424.103.338.074.636.113.662.086.027-.027.067-.192.09-.366l.042-.318-.309-.074c-1.121-.27-2.94-1.725-3.09-2.474-.033-.165-.019-.186.158-.225.264-.058.696.008 1.483.227.484.135.853.193 1.388.219.718.034.728.033.728-.1a8 8 0 0 1 .131-.787c.072-.358.121-.66.109-.673-.013-.011-.277-.048-.587-.08-.439-.047-.666-.11-1.023-.28a6.013 6.013 0 0 0-1.016-.351c-1.023-.24-1.31-.359-1.453-.6-.157-.268-.166-.5-.02-.545.356-.11 1.432-.225 2.372-.253 1.322-.04 1.462-.059 2.027-.257l.447-.158.446-.654c.437-.642.443-.657.346-.816-.115-.187-.093-.186-1.407-.07-1.917.168-3.361-.147-4.51-.985-.473-.346-.436-.37 1.178-.75l1.442-.34h1.27c.98 0 1.412.027 1.888.117.646.121.75.182 1.063.619l.127.178.448-.6c.56-.747.567-.856.07-1.103-.23-.113-.587-.208-1.086-.287a12.963 12.963 0 0 1-1.643-.41c-1.073-.346-1.52-.395-2.37-.256-.762.125-2.054.128-2.69.007-.81-.156-1.64-.46-1.844-.677-.749-.795-1.121-1.55-1.364-2.764-.134-.669-.243-2.295-.196-2.928.022-.299.027-.543.012-.543-.068 0-.3.83-.382 1.364-.123.803-.113 1.548.033 2.541.184 1.25.454 2.263.901 3.381.444 1.109.814 2.463 1.047 3.825.214 1.25.274 1.924.314 3.548.037 1.487.125 3.592.193 4.641l.04.612.627.296c.646.304 3.666 1.454 3.891 1.482.022.002.057-.04.078-.094zm14.295-2.203c.221 0 .457.009.524.02.113.018.129-.056.236-1.089.063-.609.101-1.143.084-1.187-.035-.09-.422-.168-.848-.168-.205 0-.394.054-.626.178-.384.206-.373.165-.45 1.648l-.043.85.36-.126c.22-.077.517-.126.763-.126zm-21.638-1.82c-.182-1.492-.206-1.445.384-.744.457.544.746.787.833.7.018-.018-.038-.727-.125-1.575a65.353 65.353 0 0 1-.157-1.664c0-.098.054-.068.28.153l.28.274-.032-.277c-.017-.152-.06-.583-.096-.958a13.268 13.268 0 0 0-.496-2.652c-.134-.47-.328-1.25-.43-1.735a22.76 22.76 0 0 0-.346-1.409c-.087-.29-.207-.75-.267-1.023l-.11-.495-.344-.019-.345-.018-.042-.323a27.403 27.403 0 0 0-.076-.546l-.034-.223.316-.042c.174-.023.317-.058.317-.076 0-.134-.203-1.548-.225-1.57-.015-.016-.157.019-.314.077-.158.059-.295.099-.305.089-.047-.048-.29-1.909-.253-1.945.024-.024.197-.015.386.02.19.034.354.045.366.025a6.73 6.73 0 0 0 .092-.656c.039-.34.085-.724.105-.852.03-.205.02-.233-.093-.233-.14 0-.813-.234-.899-.313-.05-.046.06-1.206.125-1.31.026-.043.138 0 .908.347.259.116.365.14.38.083.131-.452.397-1.1.572-1.39.203-.336.21-.362.105-.438-.125-.091-.923-.354-1.277-.42-.127-.024-.231-.057-.231-.073 0-.016.1-.207.22-.425.122-.217.276-.623.343-.902.245-1.029.73-1.734 1.504-2.186.225-.132.444-.281.487-.333.068-.082.05-.088-.138-.047-.647.14-2.262.722-2.576.928l-.151.098.124.244c.239.468.128.93-.609 2.528a24.7 24.7 0 0 0-.474 1.083c-.06.162-.134.295-.162.295-.083 0-.366-.976-.365-1.258 0-.144.042-.428.09-.633.05-.204.092-.463.093-.575.003-.242-.213-.695-.331-.695-.154 0-.679.523-.964.96-.507.779-.648 1.247-.264.88.211-.203.308-.21.353-.027.077.313.292 1.146.645 2.495.205.784.374 1.533.375 1.664l.002.238-.201-.13c-.111-.07-.55-.318-.976-.548-.563-.304-.871-.517-1.128-.777l-.354-.36-.09.143c-.125.195-.39 1.068-.438 1.443l-.04.31.761.397c.419.219.97.538 1.226.71.445.298 1.612 1.365 1.612 1.473 0 .028-.076.022-.169-.013-.31-.118-.84-.09-1.567.08-.42.1-.99.183-1.391.204-.374.02-.69.047-.705.062-.126.126.015 1.57.18 1.836.038.063.239.043.967-.096 1.19-.226 2.147-.278 2.52-.135.339.129.51.314.562.606.033.186.02.234-.07.262-.187.057-1.67.161-2.397.168-1.134.01-1.136-.006.127.752.608.365 1.224.705 1.368.755.143.05.422.21.62.355.37.273.885.755.885.83 0 .167-2.211-.54-3.467-1.108-.424-.192-.776-.342-.782-.334-.006.008.068.28.163.603.095.324.175.646.177.716.003.096.115.181.45.341.246.118.56.298.698.4.424.316.588.408 1.205.677.606.263 1.376.733 1.59.968.117.13.116.13-.036.096-1.174-.263-1.633-.348-1.727-.318-.158.05-1.365-.262-1.569-.405-.091-.065-.18-.098-.195-.072-.03.05.222.959.359 1.286.09.213.123.23.606.308.285.046.572.28.736.6.134.264.533.734.622.734.125 0 1.232.566 1.232.63 0 .09-1.055.03-1.798-.103-.79-.14-.762-.151-.594.232.079.179.332.822.564 1.43l.422 1.104.284.144c.157.08.828.467 1.492.86.664.395 1.21.711 1.216.705.005-.007-.042-.431-.104-.942zm21.471-1.393c.375-.121.914-.097 1.212.056.194.098.265.112.282.052.036-.118.222-1.546.222-1.696 0-.41-1.247-.335-2.297.136l-.367.165.005.857.005.858.35-.175c.194-.097.458-.21.588-.253zm-.714-2.227a8.156 8.156 0 0 1 1.022-.41c.541-.17.771-.179 1.377-.059l.186.037.398-1.414c.219-.778.41-1.45.425-1.492.042-.12-.51-.097-1.068.046-.774.198-2.292 1.051-3.068 1.725l-.276.24.08.273c.207.713.396 1.295.419 1.295.013 0 .24-.108.505-.241zm-6.588-.102c.738-.056 1.23-.187 1.855-.493 1.412-.692 2.476-1.903 2.944-3.35.476-1.47.638-4.272.319-5.514-.168-.654-.6-1.51-1.028-2.037-.19-.234-.582-.826-.872-1.316-.6-1.014-.949-1.42-1.925-2.233-.962-.802-1.067-.864-1.713-1.015a6.35 6.35 0 0 1-.824-.244c-.345-.152-.896-.646-1.066-.956-.193-.352-.758-.911-1.262-1.25-1.226-.822-2.522-1.099-4.079-.87-.754.11-1.695.383-2.205.638-.8.4-2.021 1.68-2.749 2.88-.139.229-.221.755-.272 1.739-.024.47-.002.468.198-.016.23-.557.691-1.29 1.08-1.713.412-.452 1.546-1.325 2.147-1.655.643-.354 2.225-.723 3.097-.723 1.365 0 2.86.879 4.787 2.813.738.74 1.044 1.003 1.382 1.185.684.368 1.02.603 1.495 1.044.75.697 1.084 1.188 1.922 2.83.143.28.439 1.26.59 1.953.048.223.081.794.082 1.425.002 1.327-.09 1.755-.589 2.75-.524 1.045-.805 1.45-1.51 2.167-.712.727-1.194 1.072-2.065 1.477-.64.297-.844.435-.786.529.02.031.151.042.293.025.142-.018.48-.05.754-.07zm-2.728-.457c1.296-.52 2.433-1.382 3.632-2.755.512-.586 1.13-1.675 1.321-2.329.109-.37.132-1.127.041-1.298-.032-.06-.29-.215-.573-.346-.284-.131-.67-.33-.857-.44a4.52 4.52 0 0 0-.774-.34c-.676-.215-.855-.33-1.336-.855-.562-.615-.928-.838-1.695-1.033-.656-.166-.65-.163-.967-.404-.306-.231-1.008-.533-1.519-.654-.691-.163-1.914-.09-2.758.163-.581.175-.774.202-1.798.247-1.176.052-1.637.137-2.311.426l-.293.125.158.419c.166.44.447.921.642 1.098.109.098.169.095 1.006-.048.49-.084 1.17-.184 1.511-.222 1.213-.137 1.583-.197 2.09-.342.957-.272 1.45-.265 2.382.036.21.068.461.194.558.28.23.207.604.373.952.422 1.08.156 1.32.29 2.121 1.194l.648.731.414-.02c.4-.021.42-.015.63.194.29.292.284.504-.04 1.097-.736 1.355-2.305 3.126-3.385 3.822-.355.229-1.132.93-1.132 1.022 0 .031.062.08.137.107.166.062.52-.026 1.195-.297zm9.856-2.778c1.264-.783 1.969-1.094 2.48-1.094.204 0 .434.022.51.05.182.066.182-.008-.01-.8-.17-.703-.233-.78-.772-.947-.25-.077-.558-.108-1.093-.107-.716 0-.76.009-1.17.208l-.425.207-.263.567c-.145.312-.406.95-.582 1.42-.253.679-.318.93-.318 1.226v.373l.326-.245c.179-.134.771-.52 1.317-.858zm4.267-4.03l.156-.573-.476-.001c-.375 0-.546-.033-.803-.153-.403-.187-.914-.662-1.16-1.08-.103-.172-.202-.314-.22-.315-.018 0-.068.132-.111.293l-.145.543c-.088.335-.166.476-.575 1.046-.192.268-.34.498-.327.51.013.014.189-.007.39-.045.525-.098 1.195-.034 1.602.152.37.17.595.43.92 1.064l.191.372.2-.62c.111-.34.272-.878.358-1.193zm-4.766-.075c.822-.566 1.376-1.609 1.679-3.164.138-.708.19-2.789.097-3.823-.083-.911-.114-.988-.94-2.406-1.853-3.176-3.584-5.176-4.48-5.176-.185 0-2.852.653-2.996.734-.044.024.356.204.924.414 1.456.54 1.738.718 2.544 1.61.786.87 1.605 1.904 2.062 2.604.608.931.932 1.662 1.209 2.731l.255.988-.028 1.24c-.023 1.032-.051 1.322-.166 1.735a6.074 6.074 0 0 0-.157.69c-.01.106-.148.598-.304 1.093-.157.495-.285.93-.285.967 0 .094.253-.009.586-.237zm4.985-1.352c.148-.277.219-.88.15-1.282-.095-.553-.286-.938-.897-1.8-.29-.41-.658-.995-.82-1.302-.298-.57-.684-1.147-.766-1.147-.058 0-.046 3.541.013 3.937.038.252.105.36.459.736.228.243.472.515.542.606.097.126.228.186.556.257.58.124.694.124.763-.005zm-9.136-.278c-.167-.572-.837-1.719-1.194-2.04-.129-.117-.46-.304-.737-.415-.58-.234-1.228-.733-1.528-1.176a4.197 4.197 0 0 0-1.22-1.154 6.85 6.85 0 0 1-.915-.724c-.567-.533-1.179-.878-1.75-.986-.188-.036-.857-.068-1.488-.072-1.349-.01-1.552.03-2.86.544-1.405.552-2.258 1.037-3.284 1.866l-.441.356.041.653c.023.36.057.783.077.94l.035.287.537-.542c.468-.473.62-.583 1.186-.857 1.096-.533 2.138-.811 3.532-.945 1.205-.116 2.852.009 3.843.29.488.138 1.4.774 2.231 1.555 1.002.94 1.52 1.31 2.777 1.975.603.32 1.12.582 1.148.583.028.001.032-.06.01-.138zm3.503-1.715c0-.578-.162-2.173-.311-3.073-.091-.544-.178-.849-.325-1.137-.415-.814-1.97-2.724-3.334-4.095-.528-.53-.723-.682-1.094-.854-1.153-.533-2.31-.777-3.054-.644-.515.092-1.22.006-3.07-.377-2.667-.552-3.552-.725-3.908-.764-.748-.082-1.88.176-2.61.594-.864.494-1.681 1.317-2.067 2.081-.208.413-.215.404.39.552l.425.104.216-.21a3.97 3.97 0 0 0 .437-.54c.147-.221.346-.411.597-.57l.375-.237.965.033c.9.03 1.009.022 1.616-.132.99-.25 1.7-.27 2.758-.074 1.182.217 1.868.424 2.612.785.671.326 1.43.885 1.762 1.297.32.397.563.3.43-.173-.095-.333-.176-.453-.613-.905-.217-.225-.383-.422-.368-.437.016-.015.221-.031.458-.035.665-.012 1.639.256 1.639.45 0 .039.109.212.242.386.133.173.358.566.499.873.285.621.558.941 1.18 1.382.83.588 1.112.839 1.535 1.364 1.036 1.287 1.617 2.39 2.398 4.553.059.162.132.28.163.26.032-.02.057-.225.057-.457zm6.535-.792c.1-.703.101-.78.007-1.103-.102-.351-.765-1.384-1.771-2.758-.643-.88-1.074-1.628-1.908-3.316-.872-1.766-1.187-2.167-2.822-3.592l-.422-.368-.538.111a5.404 5.404 0 0 0-.59.143c-.073.045.301.415.687.681.186.128.493.443.71.726.211.276.456.585.544.688.194.229.625 1.047.808 1.535.076.202.346.64.62 1.007.53.705 1.056 1.528 1.351 2.113.103.204.31.523.46.709.15.186.408.533.574.771.166.239.46.616.654.837a7.8 7.8 0 0 1 .573.75c.218.34.747 1.511.827 1.83.063.25.115.082.236-.764zm8.252.2c.511-.151.856-.414 1.194-.911.17-.25.519-.642.775-.872.542-.487.629-.676.585-1.282-.025-.361-.086-.523-.485-1.306-.419-.819-.46-.932-.49-1.36-.027-.376-.052-.464-.126-.445-.37.096-.353.109-.459-.355-.054-.24-.1-.452-.1-.47 0-.019.11-.051.243-.073l.242-.038.105-.598c.058-.328.17-.867.25-1.197.078-.33.162-.76.187-.954l.044-.354-.179.043c-.527.128-.652.195-1.158.63-.3.259-.578.54-.616.624-.055.12-.042.378.057 1.158.153 1.209.377 2.09.66 2.604a9.9 9.9 0 0 1 .446.995l.236.614-.112.285a3.239 3.239 0 0 0-.155.688c-.052.484-.223.84-.535 1.114-.375.329-.556.38-1.011.286-.214-.044-.416-.119-.448-.166-.07-.103-.021-.918.06-1 .035-.035.074.03.1.165.05.27.102.276.306.033.318-.377.292-.926-.058-1.233-.247-.217-.298-.226-.547-.096-.1.052-.183.086-.186.077a26.83 26.83 0 0 0-.185-.373c-.179-.359-.262-.418-.397-.283-.04.04-.243.093-.45.118-.208.024-.385.054-.395.066-.01.012.01.3.044.641.043.44.04.769-.011 1.13-.092.65-.038.789.509 1.3.599.56 1.027.78 1.72.881.019.003.172-.035.34-.085zm-7.62-2.606c.036-.306.014-.387-.287-1.064-.533-1.199-.846-2.058-.99-2.716-.074-.34-.235-.926-.357-1.301-.402-1.232-2.554-5.114-2.834-5.114-.042 0-.498.218-1.013.484l-.938.483.608.586c.726.7 1.265 1.41 1.55 2.043.547 1.215.772 1.66.95 1.884.107.133.409.666.671 1.184.263.518.588 1.107.724 1.308.136.2.365.574.509.83.144.255.49.804.768 1.218.556.827.562.83.64.175zm.704-1.36l.19-.277-.283-2.001c-.377-2.657-.492-3.326-.749-4.357-.31-1.24-.656-2.24-1.08-3.12l-.369-.765-.206.128c-.114.07-.574.318-1.022.552l-.817.424.254.244c.397.382.716.845 1.056 1.532.172.348.433.829.578 1.067.406.665.613 1.39 1.087 3.8.07.351.21.867.31 1.147.275.754.767 1.9.817 1.902.023 0 .129-.124.234-.276zm1.386-.87c.418-.185.418-.185.384-.403-.062-.398-.217-2.062-.312-3.347-.051-.699-.135-1.508-.186-1.798-.111-.628-.117-.977-.025-1.436.065-.325.059-.363-.137-.8-.17-.38-.207-.537-.208-.903-.002-.408.013-.462.2-.694.223-.278.255-.526.125-.959-.095-.32-.473-.725-.674-.723-.082 0-.47.161-.862.357-.648.323-.711.369-.693.51.01.085.183.838.383 1.673.384 1.6.605 2.868 1.119 6.415.334 2.304.341 2.346.418 2.314.028-.01.238-.104.468-.206zm3.318.117c.243-.055.442-.12.442-.143 0-.024-.07-.223-.156-.443-.24-.613-.42-.685-.922-.366-.323.205-.318.183-.185.881.04.207.17.218.821.071zm1.878-.065c.062-.056.113-.146.113-.2 0-.053-.135-.585-.3-1.183a77.353 77.353 0 0 1-.503-1.923c-.359-1.482-.459-1.578-1.75-1.677-.757-.058-1.307-.206-1.62-.437-.097-.07-.193-.111-.214-.09-.021.021-.065.442-.096.935-.063.97-.037 1.083.24 1.083.078 0 .277-.06.442-.132.415-.184.94-.306.987-.23.02.033.25.158.511.277.768.35.703.23 1.312 2.378l.286 1.007c.082.283.384.38.592.192zm-3.447-1.469c.05-.2.26-.311.786-.415.179-.035.385-.077.457-.092l.13-.027-.141-.295a2.093 2.093 0 0 0-.356-.502c-.178-.171-.261-.206-.485-.205a2.351 2.351 0 0 0-.612.12c-.33.113-.341.125-.36.362-.022.308.275 1.705.377 1.77.054.033.088-.038.118-.246.023-.161.061-.373.086-.47zm3.446-3.967c.199-.358.223-.454.259-1.038.021-.354.056-.715.076-.801.072-.31-.973-1.55-1.306-1.547-.034 0-.21.258-.393.572-.24.414-.354.69-.413 1.004l-.083.434.454.474c.25.262.473.541.496.622.038.129.562.665.656.672.02.001.134-.175.254-.392zm-24.555-.7c0-.296-.011-.526-.024-.512a4.56 4.56 0 0 0-.154.488c-.1.356-.112.473-.053.51.197.125.23.054.23-.487zm21.942.39c0-.1-.206-.566-.362-.82-.216-.35-.569-.583-.884-.583-.153 0-.265.058-.44.23-.13.126-.236.251-.236.278 0 .027.093.05.207.05.17 0 .233.04.356.227.22.334.423.456.822.498.195.02.37.06.387.09.033.051.15.075.15.03zm4.787-.582c.052-.06.142-.202.2-.315.087-.174.13-.201.256-.17.084.022.212.006.286-.033l.133-.071-.157-.083a.593.593 0 0 1-.23-.259.677.677 0 0 0-.242-.276c-.357-.21-.647.148-.723.897l-.043.419h.212c.125 0 .252-.045.308-.109zm-28.49-.543a6.351 6.351 0 0 1 1.063-1.546c.2-.214.326-.407.326-.495 0-.201.443-1.06.725-1.409.13-.159.368-.458.53-.665.163-.207.378-.418.479-.47.513-.266 1.804-.395 2.233-.223.39.156.929.507 1.436.936l.498.422.277-.212c.153-.116.321-.211.374-.211.086 0 .093-.212.06-1.968-.04-2.15-.077-2.473-.335-2.988l-.172-.344-.34-.02a3.588 3.588 0 0 0-.6.019l-.257.038.292.291c.226.227.315.376.397.668.058.207.105.467.105.577v.202l-.179-.127c-.45-.32-1.126-.509-1.832-.51-.641 0-1.7.16-2.036.307l-.26.116.588.14c.324.077.896.166 1.271.198.798.067 1.204.173 1.763.457.661.336.607.243.784 1.325l.034.21-.308-.226a3.578 3.578 0 0 0-1.446-.628 61.25 61.25 0 0 1-.87-.178c-.362-.077-.495-.077-1.023.001-.334.05-.723.146-.865.214-.558.268-.996.919-1.352 2.008-.094.288-.32.726-.598 1.159-.46.715-.745 1.354-.892 2.003-.097.424-.19 1.395-.134 1.395.02 0 .14-.21.265-.466zm10.376-.208c.872-.303.931-.328.895-.386-.019-.031.033-.056.114-.056.232 0 .242-.064.046-.287-.116-.133-.252-.428-.375-.816-.106-.335-.22-.65-.251-.698-.09-.138-.233.088-.28.443-.036.27-.053.294-.202.284-.09-.006-.16.017-.154.051.005.034.03.222.054.418l.044.357-.178-.02a1.252 1.252 0 0 1-.346-.102c-.248-.12-.382.006-.34.32.036.263-.06.319-.19.112-.05-.08-.144-.124-.263-.124-.164 0-.185.02-.185.186 0 .102-.021.188-.047.19-.466.04-.522.063-.52.216 0 .021.104.115.23.208l.227.17.598-.141c.328-.078.834-.225 1.123-.325zm12.797-.737a6.378 6.378 0 0 0-.324-.433c-.165-.203-.205-.298-.174-.419l.039-.156.19.14.19.14.113-.14c.063-.077.176-.41.25-.74l.137-.6-.141-.115a2.175 2.175 0 0 0-.236-.167c-.083-.046-.084-.099-.014-.414.053-.236.06-.368.018-.381-.035-.012-.049-.076-.031-.142.055-.213-.105-.133-.472.235-.39.391-.77.99-.874 1.379-.038.137-.15.344-.251.459-.26.295-.238.563.096 1.232.086.172.143.223.213.19.195-.092.84-.09 1.088.002.136.05.258.094.27.097.013.002-.026-.073-.087-.167zm-20.792-.22c.154-.195.65-.454 1.086-.568.768-.2 2.146-.074 3.46.317.104.031.111.009.07-.235-.062-.38-.084-.407-.562-.678-.945-.536-.998-.553-1.874-.595-.849-.04-1.185.009-1.623.237-.551.287-.743.613-.743 1.26 0 .223.017.405.037.405.02 0 .088-.064.15-.142zm10.753-.212c.392-.196.713-.37.713-.388 0-.017-.19-.492-.42-1.055-.276-.677-.449-1.022-.51-1.022-.05 0-.092.052-.093.115 0 .076-.138.2-.398.357-.433.261-.567.29-.686.148-.108-.131-.178-.116-.218.046-.031.126.052.355.699 1.922.053.127.12.232.148.232.028 0 .373-.16.765-.355zm15.403-.07c.418-.049.466-.167.2-.498a1.082 1.082 0 0 1-.228-.55c-.07-.511-.414-1.15-.857-1.593-.339-.34-.88-.705-.947-.639-.012.013.1.259.249.547.149.288.402.858.562 1.267.287.736.29.747.198.999-.052.14-.075.28-.053.313.087.13.354.269.442.232.052-.022.247-.057.434-.079zM33.017 28.9c.255-.179.318-.198.475-.146.146.049.195.04.26-.05.049-.066.12-.093.184-.068.087.033.098.01.067-.144-.031-.156-.004-.208.187-.362.22-.176.222-.18.118-.34-.152-.23-.464-.357-.883-.357-.313 0-.409.03-.688.22-.179.12-.325.257-.325.305 0 .231.229 1.15.286 1.15.014 0 .158-.094.32-.208zm6.84-.855c.405-.21.768-.42.807-.467.056-.067.001-.238-.25-.781-.344-.74-.608-1.099-.81-1.099-.094 0-.126.04-.126.162 0 .135-.022.157-.13.128-.095-.024-.201.03-.376.192-.207.192-.28.223-.489.208-.134-.01-.244.008-.244.04s.142.404.316.826l.4.97c.046.11.102.201.124.201.023 0 .373-.171.778-.38zm9.384.06c.375-.477.433-.503.871-.39.203.053.518.165.701.248.577.264.704.189.378-.222-.153-.193-.195-.316-.226-.66-.086-.96-.686-1.645-1.345-1.535-.308.052-.737.245-.86.388-.071.082-.294.64-.294.735 0 .01.108.09.241.179l.241.16-.085.32c-.113.423-.112.424.068.342.085-.039.168-.058.184-.042.016.016-.04.164-.124.33-.282.557-.139.641.25.147zM34.68 26.689c.113-.402.48-.89.725-.963.076-.023.598-.226 1.16-.451l1.023-.41.62.008c.513.007 1.02.076 1.572.215.182.045.128-.137-.11-.377-.276-.275-1.026-.679-1.552-.835-.717-.213-1.289-.096-2.476.504-.457.23-.852.428-.879.438-.063.025-.143-.623-.094-.775.073-.231 1.367-.923 2.069-1.105.294-.077.398-.077.758-.002.229.047.586.172.793.277.402.203.528.173.359-.086-.206-.314-1.296-.923-1.777-.993-.472-.07-.963.06-1.515.397-.272.167-.516.29-.542.275-.173-.106.07-1.053.305-1.193.086-.05-.039-.063-.506-.052l-.62.015-.153.31c-.153.306-.154.32-.178 2.459l-.025 2.15.228.096c.125.052.33.18.455.283.125.103.234.188.241.188.008 0 .061-.168.119-.373zm7.229.127c.052-.084.118-.111.213-.087.148.037.765-.27.765-.38 0-.132-.57-1.767-.617-1.767-.027 0-.132.017-.232.037-.16.032-.194.077-.264.356-.11.438-.124.45-.256.232-.124-.204-.345-.257-.406-.098-.02.051-.102.093-.184.093-.11 0-.148.034-.148.134 0 .263.832 1.602.996 1.602.03 0 .09-.055.133-.122zm4.76-.793c.212-.271.739-.685 1.2-.942.357-.2.407-.247.315-.298-.086-.049-.118-.186-.156-.673-.07-.883-.28-1.421-.717-1.833-.23-.218-.506-.327-1.07-.426-.562-.1-.547-.114-.844.84-.54 1.73-.36 2.794.559 3.323.387.223.544.226.713.01zm9.173.03c0-.276-.312-1.894-.618-3.206-.172-.733-.312-1.389-.313-1.457-.002-.244-.09-.307-.305-.218-.398.165-.438.284-.438 1.334 0 .91.007.96.189 1.4.103.252.242.55.309.662.066.112.146.368.179.569.106.661.412 1.036.857 1.052.106.004.14-.03.14-.136zm-11.675-.49a.378.378 0 0 1 .242-.113h.14L44.39 25a2.755 2.755 0 0 1-.164-.945c-.007-.464-.057-.622-.175-.55-.027.017-.049.113-.049.213 0 .161-.022.182-.184.182-.175 0-.183.011-.145.199l.04.198-.174-.136c-.198-.156-.405-.18-.405-.047 0 .05-.045.116-.1.147-.09.05-.07.152.19.933l.293.876.273-.196c.15-.108.32-.248.376-.31zm12.719.23c.254-.29.318-.56.323-1.366.002-.375.03-.821.06-.991.032-.17.086-.8.12-1.4.049-.852.1-1.224.23-1.705.178-.647.243-1.332.178-1.853-.061-.49-.092-.514-.48-.379-.318.111-1.103.512-1.103.564 0 .015.116.057.259.096.142.038.338.154.434.257.15.16.175.238.175.54 0 .205-.037.404-.087.472-.083.114-.094.111-.292-.082-.223-.218-.603-.352-.856-.3a.817.817 0 0 1-.36-.038c-.284-.1-.331-.002-.095.197.12.1.202.226.202.31 0 .296.603.668.992.611.228-.033.2.02-.33.64l-.405.474.335 2.037c.184 1.121.335 2.059.336 2.084.004.115.191.028.364-.168zm-4.942-.462c.218-.1.516-.3.662-.446.562-.56.896-1.591.758-2.339a3.974 3.974 0 0 1-.063-.578c0-.13-.017-.237-.037-.237-.02 0-.265.118-.543.261-.69.357-1.14.812-1.366 1.382-.201.506-.382.773-.756 1.115l-.272.248.604.381.61.387c.004.004.185-.074.403-.174zM41.046 23.63c.897-.426 2.476-.906 2.984-.907h.252l.322-.633c.228-.448.3-.647.248-.68-.118-.072-.715-.134-1.283-.132-1.157.003-2.701.606-3.556 1.387l-.344.314.374.461c.206.254.387.461.403.461.015 0 .285-.122.6-.27zm9.372-.455a9.18 9.18 0 0 1 .362-.597c.101-.141.105-.196.04-.512-.11-.53-.262-.84-.863-1.76-.3-.46-.644-1.022-.763-1.25l-.217-.413-.214.227c-.118.125-.373.418-.567.65l-.352.424.135.189c.074.104.357.471.628.816.472.6.866 1.32 1.286 2.35.08.196.176.348.212.336.036-.011.177-.219.313-.46zm-10.966-1.376c.855-.817 1.277-1.082 2.078-1.304 1.043-.29 2.67-.288 4.689.004.485.07.911.118.946.107.087-.03-.652-.575-1.322-.978-1.075-.647-2.374-1.123-3.316-1.215-.3-.03-.615-.005-1.141.09-1.103.198-1.32.298-1.856.86-.519.544-.88 1.178-1.16 2.035l-.177.546.317.202c.175.112.328.203.34.204.013.001.284-.247.602-.551zm-10.05-.321c.55-.196.717-.28.717-.365 0-.06-.072-.302-.16-.536-.407-1.084-.862-1.645-1.639-2.026-.255-.126-.554-.245-.665-.267-.181-.035-.202-.024-.203.109 0 .08-.057.354-.124.608-.133.499-.161 1.26-.06 1.615.034.12.152.321.263.448.219.251.872.668 1.046.668.06 0 .43-.114.825-.254zm8.168-.129c.12-.346.728-1.545.96-1.894.123-.186.362-.489.53-.673l.307-.335h-.24c-.338 0-.939.37-1.4.863a4.002 4.002 0 0 0-.883 1.615l-.084.32.32.15c.177.083.344.15.372.15.027 0 .08-.088.118-.196zm14.71-.12c.186-.069.339-.145.339-.169 0-.089-.26-.993-.475-1.652-.213-.655-1.088-2.51-1.184-2.51-.025 0-.295.268-.6.595-.524.566-.549.605-.487.77.036.095.448.848.916 1.671.956 1.684.804 1.553 1.491 1.296zm-17.511-.365h.603l.132-.307c.275-.64.34-1.038.264-1.617-.071-.542-.225-1.086-.324-1.147-.085-.053-.547.178-.92.46-.612.465-.948 1.079-1.055 1.931-.103.82-.126.766.316.72.21-.022.652-.04.984-.04zm19.112-.336c.424-.243.597-.543.597-1.036 0-.589.18-.83.992-1.336.982-.611 1.484-.945 1.607-1.068l.128-.128-.185-.295a6.735 6.735 0 0 0-.298-.438l-.112-.144-.563.248c-.922.406-1.455.691-1.832.981l-.356.274-.211-.462a4.439 4.439 0 0 1-.253-.67c-.073-.363-.1-.424-.192-.424-.127 0-1.158.363-1.227.432-.08.08.28.99.894 2.266.099.206.237.652.306.992.143.695.238 1.021.3 1.018.023 0 .205-.095.405-.21zm-6.116-1.787l.568-.573-.293-.329c-.274-.308-.315-.33-.646-.365-.391-.04-.435.007-.205.223a.652.652 0 0 1 .176.286c.027.138.006.148-.377.19-.749.08-.735.048-.272.63.224.282.424.512.444.512.02 0 .293-.258.605-.574zm1.597-1.532l.24-.245-.114-.253a1.587 1.587 0 0 0-.336-.449l-.221-.195-.057.228c-.05.194-.078.222-.196.193-.108-.027-.158.004-.227.14-.088.172-.082.184.224.502.172.179.344.325.38.325.037 0 .175-.11.307-.246zm1.383-1.088c.178-.12.324-.233.324-.25a3.03 3.03 0 0 0-.162-.352c-.139-.274-.173-.306-.235-.22-.05.069-.103.082-.173.043-.078-.044-.114-.015-.166.135-.06.172-.086.187-.254.15-.103-.023-.188-.023-.188-.002 0 .022.098.168.217.324.12.156.217.308.217.337 0 .093.087.06.42-.165zm4.966-.424c.067-.054.078-.197.05-.659-.03-.504-.248-1.737-.33-1.872-.014-.024-.22.142-.459.368-.698.664-.886 1.21-.62 1.797.119.261.121.263.386.227.227-.03.295-.012.453.124.187.162.332.166.52.015zm-3.268-.323c.104-.054.249-.084.322-.067.073.017.244.011.38-.012l.249-.043-.018-.308c-.01-.17.009-.4.042-.51l.06-.2-.183.094c-.165.085-.186.085-.221-.006-.055-.142-.142.007-.148.25l-.004.187-.098-.236c-.066-.16-.126-.225-.187-.202a.524.524 0 0 1-.145.035c-.03 0-.041.049-.024.108.017.06-.002.046-.043-.03-.107-.205-.24-.177-.24.05 0 .176-.014.189-.17.156-.337-.07-.363.04-.108.453.128.208.259.379.29.379a.96.96 0 0 0 .246-.098z"/></svg>