<svg xmlns="http://www.w3.org/2000/svg" width="64pt" height="64pt" viewBox="0 0 64 64"><path d="M25.695 3.125c-.57.02-1.273.129-1.785.324-.465.262-.855.414-1.27.715a.908.908 0 0 1-.288.227c-1.47 1.148-2.067 3.004-1.98 4.937-.126 1.332.386 2.613.843 3.797.168.633-.285 1.04-.36 1.59-.14.387-.136.887-.324 1.234a1.296 1.296 0 0 0-.586-.066c-.367.039-.73.226-1.035.328-.101-.102-.258-.152-.426-.164-.398.035-.8.098-1.168.355-.523-.465-1.18-.68-1.882-.808-1.164-.27-2.278.242-3.215.746-.602.344-1.164.832-1.524 1.43a7.894 7.894 0 0 0-1.039 3.277c-.222.914-.133 1.84-.066 2.726.094 1.497.504 2.961.683 4.418.176.754.204 1.493.387 2.239l.067 1.59c-.82 1.503-.895 3.453-.715 5.195.066.8.047 1.644.261 2.437.41 1.391.868 2.77.875 4.285-.148 1.708-.613 3.372-.453 5.16 0 0 .602 2.266.907 3.38-.063.82-.344 1.527-.258 2.37.011.071.015.15.031.227l.324-.488c-.004-.02-.027-.04-.031-.066.027-.81.176-1.543.293-2.336-.04-.477-.27-.832-.324-1.301-.172-.899-.551-1.746-.457-2.66.086-.114.027-.29.066-.453.066-.649.484-1.13.746-1.692.086-.183.367-.664.36-.746.078-.133.117-.32.16-.484a.504.504 0 0 0 .097-.23c.332-.848.348-1.763.489-2.63.156.196.332.414.453.649.21.933.05 1.937-.324 2.761-.176.864-.598 1.668-.747 2.563-.128.664-.246 1.238-.066 1.887.027.355.04.668.129 1.004.133.054.402.015.422.226.223.871-.067 1.676-.324 2.5l.52.164c.265-.863.663-1.687.456-2.664-.12-.41-.351-.726-.586-1.07-.02-.559-.226-1.137-.031-1.688.129-1.11.672-2.054.91-3.117.317-.734.367-1.637.29-2.433-.196-.649-.66-1.165-1.005-1.723-.195-1.676-.629-3.309-1.039-4.902-.172-.727-.375-1.489-.195-2.274.164-.805.36-1.637.648-2.371.18.3.383.695.551 1.04.113.26.246.483.293.75.09.128.113.315.164.452.028.227.059.535.031.746-.058.395-.125.79-.164 1.168h-.03c-.15 1.41.374 2.664.714 3.961.516.973.637 2.16.777 3.281.051 1.075-.379 2.164-.062 3.247.137 1.062-.106 2.05-.227 3.085.012.739-.086 1.555.324 2.208.106.292.172.605.258.91l.489-.653c-.086-.328-.165-.652-.325-.941-.496-1.754.563-3.602.032-5.356.046-1.316.37-2.648-.032-3.898-.074-.418-.132-.805-.226-1.2-.059-.058-.063-.152-.098-.226-.426-.98-.68-2.027-.941-3.054-.262-.895.027-1.813.129-2.727v-.484a2.686 2.686 0 0 1-.098-.426c-.074-.113-.113-.258-.164-.387-.363-.754-.797-1.672-1.07-2.469.46-1.304-.063-2.472.261-3.894.2-1.375.617-2.703.809-4.059.246-.933 0-2.277.941-2.726.32-.188.735-.438 1.075-.555-.141.254-.454.527-.52.844-.066.058-.035.156-.098.23-.43 1.098.04 2.11.16 3.18.2.683.348 1.515.133 2.242a7.414 7.414 0 0 0-.324 2.043c-.226 1.11-.266 2.164-.23 3.313.043.734.445 1.347.52 2.046.112.094.05.243.097.356.066.383.11.836.066 1.203-.176 1.48.051 3.023.098 4.512.039 1.015.406 1.933.648 2.855.07.145-.082.457.164.457l.032.16c-.028.664-.141 1.2-.098 1.852l-.031.031c-.051.988.246 1.98.16 2.922-.024.898-.223 1.844-.129 2.762-.02.64.09 1.316-.164 1.883-.024.05-.04.109-.063.164.153.218.305.402.454.582.328-.825.632-1.621.488-2.563a2.359 2.359 0 0 1-.067-.52c-.054-1.343.313-2.742.036-4.093-.106-.719-.082-1.547-.036-2.207l.036-.031c.082-1.235.214-2.465.453-3.637.129-.738.422-1.418.55-2.145.145-1.445-.085-2.515 0-3.925.094-.559.32-1.075.422-1.625.426-1.446.153-3.336.293-3.637.375.77.793 1.57 1.07 2.402 0 0 .57 1.14.684 1.98.106 1.176-.394 2.4-.066 3.637.277.891.46 1.836.36 2.762.202.09.038.383.062.55-.008.114.027.263-.032.356.024.328-.265.645-.355.977-.215.324-.457 1.07-.457 1.07h-.031c-.11.477-.223.989-.13 1.43.02.465.266.84.325 1.297a7.517 7.517 0 0 1-.262 2.433c-.113.825-.21 1.786.098 2.567.031.242.125.543.164.781.043.184.184.367.195.52.258.23.149.699.325.972-.06.348-.22.64-.391.942.308.074.406.109.617.16.082-.184.156-.371.258-.551.16-.395.152-.867.066-1.297-.105-.187-.293-.715-.293-.715a3.47 3.47 0 0 1-.16-.52c-.242-.85-.406-1.788-.195-2.695.105-.738.308-1.488.258-2.273.074-.035-.012-.05 0-.098-.04-.902-.586-1.804-.29-2.726.13-.45.282-.887.52-1.297.074-.047.168.059.227-.035.164.11.312 1.207.355 1.691-.062 1.063.367 2.035.88 2.922.089.215.175.438.257.68.242.644.148 1.351.129 2.011-.047.954-.227 1.829-.16 2.793l-.035.036.035.03c.14.763-.051 1.528-.133 2.306l.715.066c.062-.54.172-1.082.133-1.625-.157-1.68.253-3.3.16-5.031-.164-1.418-1.262-2.367-1.297-3.832-.145-.793.133-1.84-.555-2.371-.008-.274-.176-.461-.226-.715.043-.235-.145-.418-.032-.649.051-1.191-.21-2.328-.52-3.41-.16-1.14.286-2.406.098-3.504-.086-.77-1.546-3.789-1.46-4.578-.028-.82.085-1.844.68-2.535.187-.367.917-.8 1.234-1.004.093-.035.195-.047.293-.035.25.035.433.207.683.23-.039.184-.21.274-.23.453a4.116 4.116 0 0 0-.325 3.247c.266 1 1.118 1.918.715 3.05-.133.606-.355 1.176-.293 1.79.032.913.465 1.726.782 2.53.25.446 1.18 1.665 1.46 3.669.051.324.137 2.879.293 3.605.207.453.54.79.68 1.297.215 1.094-.015 1.98-.031 3.055-.168.632-.262 1.98-.262 1.98.043.492-.058.953-.031 1.524.008.27.11.43.164.683.008.024.02.043.031.063l.551-.551c-.332-.984.098-2.117.098-3.18.148-.89.18-1.96.226-2.86 0 0 .004-.855-.16-1.136-.262-.582-.8-1.047-.715-1.754-.082-1.09-.113-2.254-.422-3.308-.066-.348-.21-.649-.261-1.008.129-.18.02-.426.035-.649-.094-.675.23-1.304.68-1.722.144-.352.394-.688.292-1.07-.18-.532.375-.82.325-1.301.136-.567.109-1.211.129-1.75l-.098-.618c-.027-.046.047-.093 0-.132-.215-.883-.692-1.797-.55-2.758.003-.238.066-.465.128-.715.8-2.16.723-3.254.652-4.188-.047-.406-.086-.804-.195-1.168-.086-.488-.348-.93-.457-1.398-.164-.336-.312-.676-.355-1.07l.03-.032-.03-.035c-.036-.593.168-1.234.453-1.785.394-.578-.055-1.281.133-1.914.09-.484.34-.957.289-1.527.066-.547-.012-1.14.328-1.559v-.031c.156-.2.433-.367.71-.422.188-.043.266.137.422.195-.703 1.485.047 3.094.391 4.512-.02.668-.512 1.262-.39 1.98.304.899.304 1.77.23 2.696-.047.578-.14 1.156-.422 1.656-.2.477-.465 2.125-.683 3.215.164.156.402.77.55.906a.21.21 0 0 0 .067.035c.004-.023.03-.062.097-.035.094.024.176.008.293 0-.465.934-.687 1.945-.52 2.988.118.692.118 1.434.032 2.145-.11.191-.016.477-.129.68.02.129-.05.57-.066.715-.035.335-.39 1.609-.39 1.753-.083.614.226 1.086.132 1.72-.317.905-.695 1.91-.52 2.89.176 1.172.352 2.304.809 3.344.227.812.488 1.64.586 2.5-.094.617-.36 1.293-.258 1.918.047.484.559.507.649 1.199.12.543-.157 1.09-.165 1.656-.02.066-.015.176-.03.258-.012.043-.02.117-.032.164l.582.066c.043-.203.086-.418.098-.617.035-.422.257-.797.324-1.168.09-1.074-.145-1.203-.715-1.887-.098-.382.488-1.183.164-2.043-.172-.921-.445-1.808-.746-2.664-.324-1.011-.496-2.039-.617-3.117-.121-1.07.469-1.945.55-2.953-.007-.297-.167-.578-.16-.875 0-.273-.02-.578.098-.848.047-.293.152-.625.227-.941.093-1.305.441-2.785.097-4.059.008-.316-.09-.691-.035-1.039.04-.652.309-1.27.617-1.816.09-.035.059-.148.098-.195.012-.016.023-.004.066 0l.16.129c.356.125.844.238.977.683.016.176.129.348 0 .488.016.051.031.11.098.13.008.718-.219 1.449-.324 2.109-.059.133-.075.27-.098.422-.047-.02-.05.015-.067.03l.032.067c-.258.692-.176 1.27-.29 1.98.083.391.118.794 0 1.204-.058.094-.066.238-.132.324-.027.309-.207.613-.16.941.02.422.195.735.52 1.004.034.387-.118.887.288 1.075.18.156.246.12.457.257-.308.516-.129 1.82-.129 1.82.012.344.047.704.063 1.071.223.367.383.75.52 1.105.015.149.066.485.066.485-.059 1.344-.313 2.762.355 4.027.422.793.856 1.633 1.266 2.434.031.168.187.312.066.457-.21.101-.425.183-.648.258v.03c-.281.126-.676.106-.844.36-.27.133-.273.477-.422.715-.203.344-.09.836-.39 1.137v.097h-.032c-.074.208-.062.485-.23.618v.03a.88.88 0 0 0-.355.099l-.489-.036-.324.489c.145 0 .29.02.422.03l.066.036c-.215.258-.328.707-.422 1.07-.082-.035-.109.094-.164.13-.148.503-.625.726-.812 1.202-.09.438-.606.938-.227 1.332.344.333.797.137.844.13.063-.145-.129-.15-.129-.262.11-.848.496-1.344 1.137-1.883-.027-.008.594-.719.781-1.2.215-.382.246-.886.55-1.234.036-.074.106-.078.099-.164.207-.262.351-.55.582-.808.234-.317.668-.414.976-.489.102-.425.633-.25.875-.52.234-.093.371.118.586.13.063.047.324.097.324.097.266.578.075 1.207 0 1.785-.16.196.114.325.16.458.059-.016.41-.004.457-.098.13-.309.301-.629.325-.977.148-.633-.29-1.285 0-1.883.523-.476.351-1.41 1.07-1.718 1.336-.762.414.367 1.59-.098.215.164.441-.047.617-.098.102-.054.223.079.262.098.316.156.504.602.875.649.152.015.156-.141.226-.227.102-.395.598-.39.88-.586.25-.008.44-.133.679.035.367.242.691-.043 1.008-.23h.066l.324-.29c.371.008.582.4.844.614.402.46 1.191.723 1.754.52.09-.137.242-.231.39-.325l-.519-.52c-.023.028-.047.044-.066.067-.102.067-.223 0-.325 0-.253-.426-.78-.66-1.203-.875-.164-.18-.14-.445-.16-.683.02-.11.02-.27.063-.391.28-.625.941-1.121.75-1.914-.239-.52-.54-1.067-.293-1.656.37-.47.937-.895 1.039-1.559.062-.059.062-.172.129-.227-.035-.043.074-.074.066-.128.156-.282.063-.583 0-.88-.133-.613-.504-1.273-.262-1.949.176-.695.403-1.386.813-1.945.215-.55-.07-1.082-.227-1.559-.008-.222-.004-.453.098-.617.14-.566.426-1.03.484-1.656.086-.906-.222-1.703-.582-2.469v-.062c.184.043.285.203.485.226.543.29 1.12.301 1.691.391-.031 1.008.457 2.262-.262 3.148-.496.754-1.023 1.676-.714 2.63.046.32.234.765-.063 1.038-.242.262-.387.575-.488.91.129.446.492.837.648 1.266.137.504.344 1.074.196 1.59-.458.898-.532 1.973-.942 2.89-.418.895-.39 1.993-.098 2.954h.649c-.211-.723-.332-1.504-.129-2.239.273-.71.516-1.402.684-2.175.082-.746.734-1.375.52-2.207-.142-.739-.454-1.434-.849-2.047.032-.606.848-.914.586-1.625-.27-.715-.238-1.555.227-2.172.324-.633.934-1.254.812-2.078 0-.617-.117-1.266-.128-1.883.343.035 1.335.262 1.492.29.375.175 1.343.382 1.398.878.008.156-.097.266-.164.39-.422 1.098-1.07 2.262-.746 3.57.066.876.504 1.755.129 2.63-.149.539-.45 1.008-.55 1.558-.11.344.276.536.292.844a2.426 2.426 0 0 1-.586 1.852c-.867.898-1.164 2.152-1.07 3.472l.031.262.586-.879c0-.383.04-.773.16-1.101.028-.094.012-.23.098-.325-.043-.101.097-.113.097-.195.274-.77 1.047-1.332 1.235-2.144.156-.532.203-1.192-.195-1.622.007-.367.195-.648.257-1.007.203-.578.555-1.121.426-1.82-.07-.715-.265-1.415-.36-2.141.016-1.082.516-1.938.88-2.89.343-.43.472-1.071.386-1.688v-.13c.496.243.91.872 1.235 1.329.308.535.289 1.117.195 1.722-.121.395-.305.727-.39 1.137-.266.531-.774 1.035-.68 1.688-.059.812.156 1.672.195 2.53-.031.552-.266 1.005-.586 1.43-.242.317-.379.708-.52 1.07-.18.727-.43 1.392-.812 2.017-.242.71-.933 1.28-1.137 2.043-.02.05-.015.109-.03.164l.487.488c.028-.125.082-.234.098-.36.16-.707.57-1.269 1.04-1.785.183-.52.48-.957.71-1.46.008.195.086.421.098.617h.035c.184.761.457 1.402.617 2.144l.031.031v.032l.582-.16c-.297-1.22-.988-2.356-.71-3.672.214-.579.246-1.22.581-1.75.47-1.16.075-2.371 0-3.606.13-.262.329-.473.36-.781.387-.598.722-1.328.746-2.14.062-.04.043-.137.062-.196.204-.074.082-.324.196-.453.254-.274.316-.664.586-.942.12-.648.34-1.25.355-1.949.238-.918-.105-1.863-.226-2.762-.13-.714-.371-1.406-.551-2.109l-.031-.324.16.031a3.9 3.9 0 0 1 .52.586c.058.121.175.148.195.293.644.781.808 1.824 1.007 2.824.075.496.075 1.688.032 1.754-.075 1.817-.54 3.63-.746 5.387-.317 2.05-1.036 3.906-1.399 5.945-.176 1.113.09 2.18.066 3.278l.618-.325c-.012-.586-.016-1.175-.13-1.785-.112-1.086.212-2.105.454-3.086.05-.02.043-.136.066-.195.383-1.406.832-2.848.907-4.352.21-.351.12-.863.293-1.265-.047-.301.16-.524.128-.809.067-.289.094-.66.133-.976l.196-.875c-.032-.243.023-.915.03-.977.15-1.203-.202-2.39-.452-3.473-.29-.703-.79-1.547-1.332-2.109-.25-.176-.5-.383-.782-.488-.039-.453.325-.946-.062-1.332-.32-.262-1.379-.996-1.43-1.2-.18-.324-.414-.535-.683-.78-.036-.575-.036-1.173-.196-1.75-.113-.263-.129-.579-.258-.848-.23-.868-.656-1.715-1.039-2.5-.351-.782.391-1.508.196-2.336-.04-.676-.528-1.141-.649-1.786-.058-1.195.2-2.359-.715-3.148-.453-.348-.933-.473-1.496-.555-.12-.02-.254-.011-.386-.03l-.035-.032c-.676-.067-1.25.023-1.75.387-.301.023-.47.316-.715.488-.328.058-.575.215-.91.293-.188-.625-.833-.828-1.43-.88-.36 0-.75.048-1.04.134-.667.148-1.292.62-1.656 1.199-.214-.024-.378-.219-.617-.16-.367-.051-.758.004-1.035.16-.031.012-.746.695-.652 1.625-.43-.152-.867.234-1.235.55-.148.262-.437.43-.613-.195-.066-.558-.176-1.097-.52-1.558-.331-.324-.863-.305-1.3-.227-.149-.187-.207-.414-.356-.617-.355-.484-.941-.797-1.625-.648a1.99 1.99 0 0 0-.843.39c-.235.215-.48.52-.649.778-.207-.055-.36-.23-.555-.325-.078-.359.016-.742-.16-1.07 0 0-.48-1.484-1.656-1.43-.094-.007-.2-.043-.293 0-.41-.527-.855-1.289-1.43-1.59.313.09.63.16.813.258.172.106.336.235.488.325.219.476.516.109.91.164.668.086 1.47.296 1.72.972.085.43.253.864.26 1.301.036.102.122.086.196.129.352-.168.524-.555.942-.649.66-.16 1.394-.09 1.882.422.121.188.211.336.29.551.03.094.152.102.23.13l.191-.063c.121-.188.336-.211.52-.227.367.063.797.129 1.008.453.207.36.37.742.422 1.168.011.129.117.117.226.164.059-.031.164-.05.23-.098.051-.253.012-.539.094-.812.137-.445.375-.742.75-1.008a.923.923 0 0 1 .258-.062c.274-.102.59-.008.879 0 .113.07.234.113.355.03.137-.019.09-.175.13-.257.367-.766 1.128-.906 1.882-1.008.797.008 1.703.157 2.305.68.219.066.312.367.586.23.594-.496 1.207-1.035 1.95-1.105h.03c.309-.102.883-.172 1.301-.098v.032c.399.039.941.187 1.395.261.82.426 1.699.89 2.047 1.883.23.645.175 1.3.16 2.012.086.758 1.172 1.148.812 2.047-.113.617-.555 1.164-.39 1.816.171.336.53.461.878.488l.098.067v-.035c.113.074.2.18.258.293.223.273.336.632.488.941l.13.422c-.376-.195-.528-.54-.911-.715l-.258-.031c-.27.12 0 .422 0 .617.176.578.66.996.68 1.656.039.82.535 1.555 1.234 1.852.531.265.738.87.813 1.46.02.223.086.579 0 .81.043.187-.223.445.097.519.559.21.75.773 1.102 1.203.707 1.191 1.293 2.473 1.46 3.895.118.914.263 1.75.231 2.73-.215 1.543-.582 3.035-.133 4.578.223.645.524 1.285.782 1.945l.55.036c-.093-.243-.199-.489-.292-.715-.84-1.504-.98-3.176-.582-4.871.109-.621.14-1.254.097-1.883-.058-1.235-.238-2.48-.586-3.637-.695-1.933-1.851-3.246-1.851-3.246-.114-.152-.313-.21-.453-.324.168-.738.05-1.414-.227-2.113-.21-.512-1.54-1.352-1.625-1.622-.11-.316-.156-.71-.195-1.039-.024-.074-.426-.832-.453-.976.007-.07.613.422.714.715.18.18.215.457.422.586.075.007.18 0 .227-.067.133-.035.074-.246.066-.324-.12-.39-.191-.766-.422-1.102-.125-.511-.722-1.48-.714-1.558-.266-.301-.586-.403-1.008-.488-.23-.13-.203-.356-.196-.586.168-.579.395-1.11.489-1.72.011-.69-.59-.964-.813-1.527.016-.738.004-1.374-.16-2.078-.195-.68-.707-1.097-1.203-1.558-.102-.028-.203-.14-.258-.196-.219-.082-.418-.265-.652-.324-.285-.195-.551-.199-.875-.289a4.885 4.885 0 0 0-2.762 0c-.672.156-1.18.563-1.719.906-.582-.472-1.36-.652-2.078-.746-1.101-.05-2.32.184-2.89 1.203-.36-.015-.766-.105-1.168.032-.497.078-.887.59-1.137 1.008h-.031c-.254-.508-.848-.825-1.399-.88-.16-.007-.316-.046-.484.032-.14-.008-.262.14-.39.066-.028-.101-.134-.168-.165-.258l-.453-.39c-.754-.465-1.797-.422-2.531.062-.188-.242-.164-.593-.293-.875-.102-.343-.418-.562-.649-.777-.633-.29-1.367-.477-2.113-.457-.465-.531-1.086-.79-1.785-.941-.23-.043-.461-.11-.68-.196-.16.047-.277-.011-.422-.031zm-.133.488c.094.004.204.035.293.063.176.02.336.066.555.066.074.028.192.07.29.098-1.09-.188-2.208.781-2.887 1.62-1.723 2.333-1.68 4.302-1.723 5.88.008.84.18 1.578.226 2.37l.036.032c.23 1.203-.622 2.113-.653 3.278-.082.293-.137.593-.195.91-.25-.489-.785-.965-1.395-.973a1.59 1.59 0 0 0-1.332.777c-.527-.113-1.062-.293-1.62-.097a5.21 5.21 0 0 0-.91-.582c-.661-.45-1.47-.422-2.208-.098-.531.27-1.21.57-1.95 2.402-.573 1.196-.491 2.743-.194 4.059.171.55-.063 1.102-.13 1.656-.222 1.184.102 2.348.067 3.442.059.761.078 1.738.258 2.53-.457 1.114-.715 2.345-.844 3.606.04.989.313 1.82.52 2.727.336 1.184.613 2.434.777 3.7-.11.241 0 .75 0 .75-.082.788-.14 1.675-.355 2.464-.188.496-.352 1.035-.586 1.527l-.356.52c.04-1.008.402-2.117.293-3.246-.113-1.371-.672-2.719-.976-4.094-.07-.773-.172-1.566-.16-2.367a9.082 9.082 0 0 1 .195-3.215c.12-.531.433-.895.582-1.398.05-.317-.055-.602-.063-.907.051-1.093-.293-2.093-.422-3.152-.07-.531-.113-1.004-.293-1.492-.035-.282-.093-.578-.129-.875-.007-.48-.195-.785-.195-1.266-.101-.851-.098-1.734-.035-2.633.14-.453.156-1.015.293-1.492.129-.824.5-1.488.844-2.207.355-.45.574-.945 1.172-1.168.89-.605 2.046-1.082 3.21-.75.376.047.79.219 1.106.422.2.145.289.3.453.488.133.055.246.016.36-.031.113-.152.085-.36.292-.422.211-.074.446-.156.68-.098.16.094.215.247.422.196.418-.207.988-.57 1.46-.324.013.054.102.011.13.062.105.086.215.082.36.098.093-.051.234-.09.226-.227.015-.367.129-.805.195-1.168.102-.726.629-1.367.422-2.113-.176-.559-.414-1.082-.55-1.621-.134-.235-.095-.488-.165-.746-.113-1.133-.144-2.34.164-3.41.133-.43.403-.86.617-1.168.293-.684.91-1.11 1.461-1.528.512-.258.977-.574 1.524-.777.289-.031.57-.106.843-.098zm.52 1.07c.168-.003.36.016.52.067.16.047.312.047.457.129.277.187.566.426.746.715-.403.12-.86.226-1.235.453-.336-.516-.945-.902-1.59-.777-.062.015-.12.02-.195.03v-.03c.344-.348.805-.579 1.297-.586zm-1.395.942c.391-.078.754.125.91.227.165.113.348.543.551.683-.066.156-.078.02-.164.16-.43.657-.66 1.442-.875 2.207-.093.395-.242 1.743-.422 1.887-.457.734-.765 1.524-.714 2.465.05.363-.07.691.097 1.008.168.515.29.898.227 1.656-.344 1.176-.656 2.324-.715 3.602-.14.582.055 1.222-.031 1.753.183.832.472 1.657.586 2.536-.332-.094-.407-.47-.653-.684-.207-.207-.367-.438-.582-.617.012-.176-.156-.254-.164-.422-.101-.848-.754-1.211-.875-2.047-.05-.91.594-2.32.582-3.277.102-.41.489-1.09.555-2.047.121-1.145-.125-2.137-.227-3.215-.023-.324-.027-.672-.035-.973l.035-.03c.008-.634.145-1.212.192-1.821.195-.918.594-1.774 1.074-2.563.176-.304.414-.445.648-.488zm4.06.324c.495-.043.722.489.91.813.093.23.175.484.195.715 0 0-.196-.079-.262-.067-.363-.414-.527-.98-.844-1.46zm-.684.067c.253.257.375.613.554.906l.227.457c-.403-.129-.778-.078-1.137-.227-.281-.14-.55-.476-.777-.683.043-.035.773-.332 1.133-.453zm-1.524.875c.2.105.375.312.582.421a.097.097 0 0 1 0 .067c-.027.004-.058.004-.062.031-.641.645-.727 1.664-.942 2.531v.329l-.617.03c.035-1.093.453-2.07.813-3.05zm21.102.129c.07 0 .144.015.23.035.652.027 1.29.207 1.816.746.497.906.38 1.754.489 2.758.304.718.832 1.476.55 2.308-.14.531-.355 1.176-.097 1.719.644 1.351 1.293 2.742 1.43 4.285l-.036.293c-.351-.121-.46-.277-.843-.39l-.356-.063c-.273-1.66-1.07-3.117-1.07-4.871.113-.863.238-1.61.062-2.469-.23-1.191-.394-2.418-1.234-3.312-.473-.543-1.258-.528-1.883-.649.055-.105.23-.148.324-.226.149-.04.286-.098.422-.13.07-.015.13-.034.196-.034zm-4.805.554c.113.008 1.02.211 1.168.16l.066.325c-.129.05-.765.273-.843.261-.942.082-1.446.36-2.274.778 0-.243.18-.457.227-.68.394-.633.879-.824 1.656-.844zm-15.293.031h.035c.371.094.664.082 1.04.165.234.164.41.214.679.324-.574-.059-1.02.476-1.363.906-.336.535-.512 1.137-.582 1.754-.243-.121-.415-.3-.684-.356-.047-.074-.035-.183 0-.261.18-.903.273-1.793.875-2.532zm5.262 0c.082-.011.18-.007.258 0 .101.004.199.028.292.067.762.383.895 1.867.813 2.305-.031.738-.29 1.46-.39 2.207-.165.113-.317.14-.454.293-.152-.141-.375-.211-.55-.325-.07-.699.007-1.543-.294-2.175a2.942 2.942 0 0 0-.55-.91l-.457-.454c.324-.34.777-.91 1.332-1.008zm14.058.262c.145.016.278.063.422.094.29.066.637.129.875.293.086.101.13.16.195.262.512.64.543 1.414.813 2.207.129.644.254 1.261.098 1.914a4.57 4.57 0 0 0 .03 2.5c.282 1.18.708 2.277.942 3.476 0 .23-.261.184-.422.29-.32.253-.617.163-1.004.163-.136-.156-.34-.289-.359-.453-.086-.933.219-1.851.098-2.86-.067-.472-.149-.956-.324-1.394-.262-.46-.559-.925-.875-1.363-.227-.3-.024-.629-.036-.976.059-.48.09-.977-.03-1.461-.153-.903-.083-2.028-.845-2.66.145-.04.282-.051.422-.032zm-1.203.16a.816.816 0 0 1 .653.293c.242.301.273.684.324 1.07.129 1.044.36 1.965.129 3.02-.075.317.086.688.293.91.343.532.71 1.082.812 1.72.219 1.116.043 2.273-.035 3.343-.188-.012-.414-.121-.617-.063-.328-.02-.637.09-.942.196-.113.082-.277.273-.453.226-.273.11-.465.367-.715.52-.027-.266.012-.575.032-.844.078-.254.207-.508.195-.813-.094-.363-.195-.82.066-1.136.352-.567 0-1.352.196-1.95.136-.214.035-.492.062-.746.082-.691-.137-1.296-.453-1.851-.18-.54-.035-1.043.031-1.59-.133-.645-.39-1.242-.55-1.883.214-.254.437-.242.746-.39a.905.905 0 0 1 .226-.032zm-16.426.52c.418.11.543.574.973.586.04 0 1.188.812 1.266 1.137.18.21.293.808.293.808s.199.7.164 1.43c-.172.047-.258-.102-.426-.16-.277-.325-.45-.973-.844-1.27-.293-.27-.55-.437-.941-.52-.403-.027-1.043.231-1.266.715l-.52.067c-.035-.442.051-.738.098-1.137h.032c.187-.691.515-1.332 1.171-1.656zm15.063.066l.035.29c.148.55.523 1.218.227 1.788-.106.618 0 1.258.324 1.75.23.418.07.989.16 1.399.016.23-.086.426-.16.617 0 .781.207 1.621-.262 2.305-.105.46.27.843 0 1.265-.27.493-.086 1.18-.098 1.723-.328.395-.742.754-1.07 1.168-.129-.043-.355-.324-.422-.457-.156-.43-.484-.809-.453-1.328.027-.805.156-1.38.52-2.047.043-.356.242-.684.129-1.07-.227-.813-.547-1.864-.13-2.664.587-.88.622-2.165.52-3.149-.047-.234-.16-.426-.262-.648-.144-.266-.37-.508-.648-.617.488-.18 1.133-.094 1.59-.325zm-4.707.063c.129-.02.781.136.715.261-.223.72-.297.981-.91 1.524-.063-.035-.067-.14-.16-.191-.047-.207-.239-.153-.231-.36-.063-.086-.066-.2-.094-.293.086-.508.168-.781.68-.941zm-4.707.133c.187-.016.37-.04.55.03.43.583.462 1.348.422 2.044-.156.422-.332.937-.16 1.398.11.383.047.754.032 1.102-.23-.5-.672-1.13-1.297-1.23.175-1.04.53-2.071.289-3.216a.318.318 0 0 0 .164-.128zm7.238.453c.313.004.602.203.75.422.336.812.2 1.765.031 2.597-.293.727-.77 1.38-.683 2.239.011.671.468 1.343.324 2.046-.207.715-.492 1.383-.55 2.176-.2.867.425 2.063 1.202 2.758-.062.063-.261.195-.261.195.191.196.41.367.52.617.19-.156.628-.613.812-.777.101-.039.132.09.164.13.172.222.164.46.258.714.042 1.043-.208 1.973-.422 2.89-.094.508.195.922.195 1.426-.113.067-.148.215-.164.36l-.16.293c-.395-.188-.918-.168-1.301-.262.094-.3.309-.586.422-.91.195-1.035.46-2.563-.453-3.246 0 0 .11-.223.129-.258l-.454-.586c-.027.016-.394.215-.421.227-.375-.032-1.102.425-1.461.519-.086.258-.27.938-.422 1.203.02-.004.722-.418.746-.422.344-.097.73-.312 1.101-.422.235.024.465.118.586.325.301.593.29 1.304.196 1.914-.059.238-.137.48-.196.715-.093.238-.218.472-.257.714h-.293c0 .157-.063.762-.227 1.235.086.023.133.066.129.226.187.43.406.903.715 1.266-.031.066.027.07.062.098.043.12.075.257.133.324.262.672-.156 1.36-.328 2.012-.238.246-.016.484.066.75.028.027.075.078.067.128.222.25.347.536.484.844.172.547 0 1.078 0 1.625-.094.317-.383.469-.484.778l-.653.648c-.242.559-.222 1.395-.941 1.559a1.722 1.722 0 0 0-.355.359c-.141-1.137-.32-2.36.128-3.441.735-1.66.395-3.844-.062-5.52-.066-.395-.094-.863.062-1.234-.035-.094.106-.145.098-.227a.888.888 0 0 1 .129-.328c.027-.004.273-.07.293-.063.117-.39.242-.593.129-1.105-.024-.117-.191-.168-.227-.39-.168-.34-.168-1.051-.422-1.329-.175-.285-.574-.433-.875-.554-.12.425-.214.496-.195 1.3.028.028.035.07.067.098.332.566.5 1.2.68 1.816.058.094-.036.2-.067.293l-.258.586c-.187.856.09 1.516.227 2.336.113.485.144.934.226 1.43-.015.71 0 1.672-.324 2.371-.215.473-.227.988-.422 1.46l.031.032c-.199 1.113.274 2.09.098 3.18-.066.574-.008 1.308-.098 1.558.09.274.024.575.067.848.222.988.199 2.164.293 3.211.035.356-.032.7-.032 1.074.164.09.04.332.098.453-.133.086-.246-.03-.39-.03-.29.046-.7-.188-.942.062l-.195.132c-.028-.113-.032-.289-.164-.328.133-.27-.149-.496-.29-.71l-.261-.133c-.086-.27-.066-.641-.324-.875-.063-.149-.364-.184-.325-.391.055-.316.243-.566.325-.875a5.945 5.945 0 0 0 .68-2.078c.187-.383.28-.875.519-1.235.172-.644.418-1.492.195-2.175-.054-.203-.234-.356-.289-.551-.172-.57-.203-1.254-.52-1.785-.253-.555-.562-1.098-.456-1.723-.02-.508.199-.941.293-1.43.25-.687.488-1.382.746-2.043.047-.113.097-.23.164-.324.101-.476.328-.926.422-1.43.12-.617.43-1.445.062-2.078-.094-.343-.281-.691-.422-1.007-.094-.75.246-1.086.422-1.59.203-.461.332-.965.457-1.364.145-.449.317-.921.55-1.332.364-.902.657-1.898.618-2.921-.035-.395-.242-.84-.066-1.235.152-.625.726-1.344.133-1.945-.094-.504-.008-1.09-.133-1.656-.149-.664-.516-1.239-.907-1.786l-.457-.488.036-.097c.671-.465 1.226-1.16 1.75-1.786.058-.043.125-.011.195-.03a.71.71 0 0 1 .324-.067zm-3.828.941c.242.207.621.84.617.875v.067c-.55.523-.844 1.23-1.172 1.882-.168.395-.226.84-.355 1.235a8.232 8.232 0 0 0-.586 1.394c-.176-.176-.219-.496-.422-.715-.086-.054-.063-.101-.129-.16.098-.125.106-.351.098-.52-.13-.788.058-1.515.422-2.175.402-.66.648-1.64 1.527-1.883zm-12.402.844c.53-.02 1.09.133 1.297.453-.18.18-.45.133-.618.328-.652.668-.718 1.723-.68 2.692-.093.66-.14.867-.195 1.27.102.452-.144.905-.422 1.327-.28.711-.285 1.54-.164 2.305.102.113.024.238.098.36.215.75.563 1.35.715 2.109.094.355.183.722.195 1.07l.031.035.098.68c.016.472-.16 1.426-.355 2.242-.98 2.734-.121 3.812.093 4.805.086.484.078 1.007.067 1.492-.074.34-.098.617-.16.976-.032.102-.106.145-.098.258-.27.223-.207.57-.262.88.04.12-.117.835-.293 1.038l-.386.422c-.016.23-.235.457-.262.711-.293-.422-.485-.934-.68-1.395-.086-.128-.234-.554-.293-.617-.324-.695-.457-1.675-.195-2.468.187-.594.328-1.208.16-1.848-.258-1.067-1.145-2.004-.941-3.215.039-.816.425-1.52.78-2.207.548.07 1.493.387 1.493.387.156 0 .637.46.684.035.043-.422.23-1.172.097-1.172-.136 0-.355.02-.52-.063-.027.004-.042-.003-.066 0-.078-.039-.433-.289-.355-.457-.168-.796-.402-1.562-.555-2.367-.07-.508-.066-.965-.097-1.46.12-.298.09-.723.164-1.04.195-.847.28-1.75.617-2.535.055-.27.133-.594.097-.906-.074-.79-.511-1.336-.457-2.176.04-.414.09-1.648.848-1.851.149-.04.344-.09.52-.098zm3.668.098c.472-.07.742.382.972.683-.113.016-.207-.117-.324-.133-.273-.207-.648-.23-.973-.355.036-.133.22-.13.325-.195zm9.836.617c.503.586.914 1.02 1.136 1.785.114 1.027.196 1.625.196 1.625a.665.665 0 0 1 .293.617c-.028.547-.356.992-.458 1.524-.035.742.32 1.468 0 2.144-.21.77-.367 1.543-.777 2.207-.21.504-.383 1.023-.586 1.527-.191.098-.87.207-1.004.227-.195.48-.379.969-.554 1.46.156 0 .695.286.78.294.114.754.575 1.437.68 2.207-.054.433-.175.922-.226 1.332-.07.11-.04.242-.098.355-.136.313-.242.68-.386.973-.434 1.238-.977 2.45-1.235 3.734-.105 1.016.36 1.813.715 2.598.184.559.152 1.238.52 1.754.14.258.148.559.093.844-.007 1.129-.754 2.047-.875 3.148-.199.64-.5 1.227-.714 1.82l-.032.032c-.074-.13-.082-.317-.066-.453h-.031c-.149-.422-.09-.98-.032-1.399-.05-.523.446-.91.453-1.46.11-.364-.132-.634-.097-.973-.055-.368-.34-.48-.586-.715.094-.309-.418-.266-.453-.52-.223.059-.352-.074-.52-.195-.308-.32-.398-.781-.52-1.2-.034-.214-.277-.48-.452-.617.28-.917.129-1.69.386-2.664a4.6 4.6 0 0 0 .262-2.175c.059-.82.59-1.47.813-2.239.148-.523.437-.836.39-1.43-.074-.663-.34-1.284-.586-1.882a1.296 1.296 0 0 1-.097-.488c-.082-.184-.063-.325-.098-.52.086-.012.336-.023.422-.031.09-.293.289-1.047.55-1.656l-.484.066c.13-.695.375-1.504.52-1.883.23-.84.824-1.969.55-2.078.102-.207.208-1.125.293-1.3.258-.02.336.195.422.39-.02.074.043.125.063.195.332 1.14-.035 2.38-.324 3.442-.18.738-.97 1.785-1.102 2.757.07-.007.34-.043.55-.062l.813-1.852c.25-.511.684-2.652.778-3.148.047-.688-.067-1.613-.715-1.98-.113-.098-.36-.11-.387-.227-.262-.035-.047-.309-.098-.488.165-.196.13-.473.196-.715-.012-.371-.004-.89.16-1.266-.035-.137 1.137-2.402 1.137-2.402.324-.367.207-.614.422-1.04zm-10.391.355c.18-.012.34.078.52.098.218.113.468.082.683.195l.098.067c-.336.523-.535 1.203-.422 1.851.383 1.32.601 2.656.293 4.055l-.293.781c-.16.613-.113 1.27-.067 1.914.008.336-.242.625-.324.942-.289 1.043.215 1.714.39 2.632.138.34.227.72.294 1.07-.117-.027-.25-.07-.324-.163l-.036.035c-.402-.293-.796-.172-1.199-.067-.113-.222 0-.359-.262-.355-.164.055-.253-.149-.324-.23.008-.407.2-1.387.453-2.012.258-.621.41-1.137.426-1.817-.023-.84.035-1.636-.23-2.437-.094-.535.172-1.031.293-1.461.074-.063.05-.168.097-.258-.156-.984-.566-1.93-.68-2.988.016-.656.005-1.274.422-1.785a.558.558 0 0 1 .192-.067zm5.066.52c.344.101.41.39.782.488.105.11.109.32.128.488l.196.778h-.293c-.164-.618-.668-1.16-1.106-1.559.059-.094.2-.129.293-.195zm-3.18.133c.434.355.91.652 1.426.875-.394.812-.511 1.765-.386 2.664.199.847.511 1.695.289 2.628-.176 1.051-.719 2.208-.485 3.375.332 1.032.641 1.665.551 2.793-.195.204-.695.446-.844.684-.05.152-.191.16-.261.29-.153-.102-.5.034-.422-.29-.156-1.133-.348-1.977-.715-3.02-.055-.367.02-.683.164-1.007.36-.57-.078-1.434.129-2.047-.016-.672.562-1.047.52-1.754.206-1.316-.141-2.523-.422-3.797.039-.476.12-1 .421-1.363zm2.012 1.101c.438.113.84.418.942.879.027.266.133.441.097.71.243.102.29.442.582.49.137.167.329.105.52.097.059.11.02.262.035.39-.242.223-.371.536-.586.778-.265.578-.238 1.305-.129 1.95-.011.894.496 1.538.746 2.304.063.37-.125.754-.164 1.105-.054.211-.12.457-.191.68-.133.25-.195.496-.39.683-.16.028-.317-.023-.391.16-.328.356-.176.65-.715.618l-.098-.031c-.176-.559-.418-1.067-.617-1.754-.242-.696-.29-1.489-.16-2.239.054-.18.11-.402.195-.554.246-.742.356-1.52.324-2.305-.28-1.074-.578-2.262-.195-3.344.04-.215.074-.43.195-.617zm-17.761 3.344c.488-.004.921.285 1.332.52l.195.195c-.383.175-.813.383-1.04.746-.112.082-.952.562-1.429.91-.847.668-.562 1.996-.844 2.988-.234 1.547-.69 2.988-.91 4.578-.07-.34-.14-.867-.093-1.27v-.062c-.043-.902.437-1.789.128-2.695.008-.047-.066-.14-.066-.227-.101-.625-.16-1.207-.098-1.882.141-1.504.918-2.774 2.176-3.637.059.02.102.004.13-.031.175-.078.358-.13.519-.133zm4.87.39c.344-.039.641.223.813.489.29.55.301 1.093.16 1.718a3.329 3.329 0 0 0-.941-1.394 1.253 1.253 0 0 1-.191-.164c-.145-.098-.352-.129-.457-.258.101-.3.32-.262.617-.39zm-1.85 1.168c.073.016.148.032.194.098-.085.64-.328 1.246-.355 1.852-.426 2.054-.223 4.402.195 6.46.04.223-.054.52.098.715.016.68-.094 1.48 0 2.141.062 1.027.074 2.211-.328 3.152-.25.961-.133 2.262-.094 3.246.074.426-.027.797-.035 1.2a.333.333 0 0 0-.063.261c-.152.676-.539 1.262-.585 1.98l-.227 1.2c-.043-.168-.164-.324-.164-.52h-.031c-.223-.765-.239-1.456-.262-2.269a19.292 19.292 0 0 1-.031-3.77c0-.968-.157-1.925-.52-2.789-.05-.3-.2-.671-.16-.976.055-.953.039-1.942.227-2.856.011-.882.253-1.668.421-2.5.075-.617.036-1.59-.39-2.468-.168-.867-.395-1.871.066-2.66.188-.473.5-.907.906-1.204.375-.097.809-.117 1.137-.293zm29.48.098c.058.176.218.102.324.195.195.063.398.16.52.325v.066c-1.032.488-2.141.8-3.344.68.289-.414.812-.512 1.203-.844.383-.227.773-.45 1.297-.422zm-28.602.293c.277.203.578.434.844.648.488.579.281 1.403.746 1.95.293.297.582.613.875.941.27.281.441.649.617 1.008-.816.148-1.66.394-2.238.941-.504.641-.621 1.176-.88 2.176-.233-.379-.464-1.234-.452-1.3-.043-1.262-.235-2.481-.067-3.7.086-.664.246-1.289.328-1.95h.032c.066-.245.047-.519.195-.714zm31.914.195a.847.847 0 0 1 .684.293c.129.063.238.25.386.325.075.07.164.082.23.128.157.438.575.743.65 1.204.21.418.105.894.03 1.363-.101.523-.437.937-.55 1.46-.602 1.15.14 2.321.226 3.505.102.57.043 1.097.13 1.656-.204-.094-.458-.203-.68-.324-.067-.07-.22-.035-.293-.098-.395-.297-.836-.574-1.395-.582.332-1.598.742-3.11.844-4.742.195-1.121.105-2.367-.164-3.54-.035-.222-.133-.417-.098-.648zm-.648.032c.12.21 0 .367.129.55.57 1.961.187 4.094-.13 6.075-.187.761-.449 1.543-.519 2.336-.094.09-.207.078-.293.164l-.195.062c.05-.605-.004-1.273.098-1.914.085-1.047.32-2.191.097-3.312-.02-.465-.254-.907-.226-1.395-.02-.71.23-1.422.03-2.078.282-.258.665-.285 1.009-.488zm-1.657.683c.086-.031.059.113.067.16.023.391.008.684-.067 1.106-.074.476-.027.969.13 1.43.468 1.507.019 3.035-.063 4.609-.106-.047-.031-.168-.133-.195-.062-.196-.281-.395-.422-.551-.258-.102-.367-.41-.582-.52.106-.879.11-1.777.063-2.664.093-.703.078-1.226-.196-1.851-.097-.36-.336-.645-.55-.942.605-.105 1.175-.347 1.753-.582zm-2.5.68c.274-.004.301.262.489.39.008.169.191.336.226.551.18.43.219.989.098 1.496-.043.633.078 1.282.031 1.914-.02.332-.062.579-.062.942-.672 0-1.145.156-1.625.586l-.196.129c-.074-.235-.078-.54-.195-.782-.094-.953.313-1.882.36-2.789.019-.718-.133-1.386-.587-1.918.426-.293 1.008-.316 1.461-.52zm7.274.648c.07.028.762.434.812.489-.007.464-.367 1.082.16 1.398-.23 1.031.473 1.89.489 2.922v.031c.129.649.312 1.371.195 2.012-.086.84-.187 1.566-.457 2.371-.113.129-.164.273-.258.422-.343-.703-1.125-1.328-1.039-2.238a11.42 11.42 0 0 0-.52-2.989c-.14-.746.012-1.465.356-2.11 0 0 .235-.565.324-.812.114-.402.118-.78.067-1.203-.043-.113-.114-.18-.13-.293zm-18.246 3.93l.129.55c.289.657.48 1.278.55 2.016-.042.38-.242.782-.355 1.168-.11.305-.227.625-.422.875-.238.524-.465 1.063-.52 1.657.25.886-.171 1.648-.292 2.468h-.032c-.043.676-.03 1.305-.164 1.95l-.066.062c-.277-.168-.75-.058-.906-.453-.176-.582-.239-1.379-.942-1.492l-.195-.035c.035-.41.336-.801.484-1.23.41-.677.934-1.294 1.172-2.048.266-.539.477-1.129.551-1.754-.078-.273.059-.656-.066-.972-.075-.512-.07-1.04-.13-1.528-.046-.187-.03-.039-.03-.226v-.067c.105-.203.238-.437.453-.55.14.011.257.086.421.066.188-.102.246-.305.36-.457zm11.59 1.168c.086 0 .195.004.293.035.238.07.5.152.582.422l.52.617c.112.457 0 .946-.196 1.363-.192.051-.34-.101-.52-.128-.445-.102-.761-.344-1.199-.457-.383-.196-.71-.415-1.07-.618.008-.05.168-.136.226-.195.399-.383.754-1.035 1.364-1.039zm-13.703.066c-.051.52.398 1.082.457 1.754a3.414 3.414 0 0 1-.36 1.98c-.262.41-.332.993-.648 1.395-.54.735-.344.395-.453.227.171-.961.144-.219.062-1.266.047-.297.125-.64.195-.941l.036-.031c.113-.645-.188-1.266-.36-1.95.414-.355.93-.746.973-1.07zm9.417 1.528c.43.086.961.183 1.43.129l.422.03c.422.274.734.688.875 1.169.066.125.094.23.129.36.05.054.062.16.098.226.277.793.37 1.75-.032 2.531-.12.375-.297.754-.39 1.106.078.074-.012.222.031.324.055.41.406.73.293 1.168-.25.562-.555 1.136-.715 1.754-.344.699-.273 1.68.035 2.37.324.551.004 1.079-.164 1.59-.215.747-1.101.985-1.101 1.786.082.46.144.855.386 1.265.317.664-.453 1.13-.648 1.692-.18.258-.18.644-.129.941-.363-.074-.715-.066-1.04.16-.16.051-.245.18-.42.133a1.18 1.18 0 0 0-.49-.195c-.066-.16 0-.547-.066-.684l-.03-.066c.058-.98-.11-1.7-.099-2.66-.101-.989-.375-1.871-.097-2.825.152-.214.156-.507.293-.714.187-.422.277-1.114.844-1.235.55-.3.535-.992.78-1.527.204-.149.372-.422.583-.55.207-.403.515-.661.554-1.138.122-.82.126-1.816-.488-2.433.028-.094-.097-.086-.097-.164-.301-.38.171-.703.164-1.07.25-.598.37-1.512-.133-2.047-.278-.43-.606-.922-.778-1.426zm7.563.808c.543-.062 1.207.2 1.496.618.113.246.152.457.129.683-.18-.226-.465-.32-.684-.422-.445-.11-.66-.312-1.199-.39a6.546 6.546 0 0 0-.683-.196c.336-.172.52-.16.941-.293zm7.078 6.496c-.215.149-.371.301-.355.551.02.727.086 1.453 0 2.145a35.68 35.68 0 0 1-.453 3.699c-.06.27-.106.539-.165.812l.618-.617c.168-.781.34-1.558.355-2.37.191-1.11.215-2.313.164-3.407v-.035c.008-.016.004-.043 0-.063l-.031-.097c-.004-.012 0-.02 0-.036v-.03l-.098-.552c-.011 0-.023-.003-.035 0zm-25.973 2.63c.332.027.157.226.489.163l.097-.066c.008.121.149.125.196.227.05.53.328 1.027.777 1.168.016.453-.16.855.227 1.105.355.266.468.754.39 1.203 0 .121.031.297.031.422-.437.578-.285 1.766-.097 2.531-.055.649.215 1.153.164 1.785.094.102-.008.262.062.391.078.105.059.277.164.39-.207.536.309.372-.195.747-.121.129-.07.11-.226.195l-.098.063c-.344-.598-.629-1.25-.973-1.817a5.131 5.131 0 0 1-.652-3.539c.113-.656.09-1.309-.227-1.851l-.386-.778c-.075-.672 0-1.34.191-1.949zM0 32.12C0 14.383 14.395 0 32.156 0 49.914 0 64.31 14.383 64.31 32.121c0 17.746-14.395 32.129-32.153 32.129C14.395 64.25 0 49.867 0 32.121zm0 0"/></svg>