<svg xmlns="http://www.w3.org/2000/svg" width="64" height="64"><path d="M32 1C14.879 1 1 14.88 1 32c0 17.121 13.879 31 31 31 17.12 0 31-13.879 31-31C63 14.88 49.12 1 32 1zm-9.107 8.06c.275.003.455.024.455.024l.654.44c.447-.027 1.37.105 2.45.605 1.078.5.525.842.525.842-.158.42-1.344.58-1.844.58-.264 0-.551-.08-.815.025a8.726 8.726 0 0 1-1 .317c-.237.052-.183-.055-.183-.055l.156-.42c-.99.211-1.472.205-2.709-.314-2.147-.904-2.475.367-2.475.367l-.13-.026c.052-1.211-.844-1.658-.844-1.658l.027-.133c.421.211 1.447.599 2.078.545.637-.052 1.259-.299 2.71-.662.131-.132-.079-.394-.079-.394a5.58 5.58 0 0 1 1.024-.082zm-4.715 3.811c.694.041 1.154.211 1.154.211l.885.713c.831-.05 2.543.195 4.549 1.125 2.004.93.978 1.564.978 1.564-.294.783-2.496 1.077-3.426 1.077-.49 0-1.026-.147-1.515.048-.49.196-1.417.49-1.858.588-.44.097-.343-.097-.343-.097l.294-.784c-1.824.302-3.144.08-5.039-.587-3.059-1.076-4.597.685-4.597.685l-.244-.047c.097-2.25-1.565-3.082-1.565-3.082l.049-.246c.782.39 2.765 1.555 3.94 1.457 1.174-.097 4.972-1.73 4.972-1.73.246-.244-.146-.733-.146-.733.312-.086.482-.086 1.148-.15.275-.026.532-.026.764-.012zm31.402 2.365c.281-.02.399.004.399.004l.878.543c.527-.031 1.61.125 2.88.711 1.268.589.618.992.618.992-.186.494-1.579.68-2.167.68-.312 0-.65-.093-.96.031a9.95 9.95 0 0 1-1.175.371c-.278.062-.217-.06-.217-.06l.185-.496c-1.579-.713-3.189-.371-3.189-.371-1.734-1.177-2.91.431-2.91.431l-.154-.029c.06-1.424-.993-1.951-.993-1.951l.032-.154c.495.248 1.485.557 2.228.496.742-.063 3.254-.465 3.254-.465.155-.156-.092-.465-.092-.465.658-.181 1.102-.247 1.383-.268zm-14.88.016c.273.004.378.053.378.053l.84.535c.526-.03 1.61.124 2.879.713 1.27.587.619.99.619.99-.185.496-1.578.68-2.166.68-.311 0-.651-.093-.96.03-.31.125-.899.31-1.177.374-.279.062-.217-.064-.217-.064l.188-.495c-1.58-.711-3.191-.37-3.191-.37-1.734-1.178-2.91.433-2.91.433l-.155-.031c.062-1.425-.99-1.952-.99-1.952l.031-.154c.495.248 1.486.558 2.229.496.743-.062 3.304-.55 3.304-.55.155-.155-.093-.465-.093-.465.673-.185 1.116-.227 1.39-.223zM9.94 19.187c.261.03.352.104.352.104l.502.393c.446-.027 1.366.104 2.443.603 1.077.5.526.84.526.84-.158.42-1.34.58-1.84.58-.264 0-.55-.08-.815.023a8.7 8.7 0 0 1-.998.317c-.237.052-.183-.053-.183-.053l.156-.42c-1.34-.604-2.705-.314-2.705-.314-1.472-.999-2.469.367-2.469.367l-.133-.027c.053-1.209-.84-1.655-.84-1.655l.026-.13c.421.21 1.261.472 1.892.42.63-.053 2.803-.481 2.803-.481.131-.132-.08-.395-.08-.395.673-.185 1.103-.2 1.363-.172zm14.514.444c.425.017.615.1.615.1l.979.671c.692-.04 2.118.164 3.789.938 1.672.774.816 1.305.816 1.305-.244.651-2.078.896-2.853.896-.41 0-.857-.121-1.264.041a13.32 13.32 0 0 1-1.549.488c-.367.082-.285-.08-.285-.08l.244-.652c-2.079-.937-4.197-.49-4.197-.49-2.282-1.549-3.832.572-3.832.572l-.203-.041c.081-1.875-1.305-2.568-1.305-2.568l.041-.204c.652.326 1.957.733 2.936.65.978-.08 4.162-.724 4.162-.724.203-.203-.121-.611-.121-.611.943-.26 1.602-.308 2.027-.291zm18.367.03c.353.007.463.083.463.083l.934.658c.692-.04 2.12.164 3.79.938 1.673.774.815 1.305.815 1.305-.244.651-2.078.896-2.853.896-.41 0-.855-.121-1.262.041-.408.163-1.183.407-1.549.488-.367.082-.285-.08-.285-.08l.244-.652c-2.079-.937-4.2-.49-4.2-.49-2.281-1.549-3.83.572-3.83.572l-.202-.041c.08-1.875-1.305-2.568-1.305-2.568l.041-.204c.653.326 1.955.733 2.934.65.977-.08 4.476-.67 4.476-.67.205-.203-.12-.61-.12-.61.964-.266 1.557-.325 1.91-.317zm12.615.632c.229.004.333.041.333.041l.591.387c.385-.023 1.177.09 2.108.521.928.431.453.725.453.725-.137.363-1.155.5-1.586.5-.228 0-.477-.07-.703.021-.227.091-.658.228-.862.272-.203.046-.16-.043-.16-.043l.137-.365c-1.156-.521-2.336-.272-2.336-.272-1.27-.86-2.13.318-2.13.318l-.114-.021c.045-1.043-.725-1.43-.725-1.43l.022-.113c.363.182 1.088.408 1.633.363.544-.046 2.324-.4 2.324-.4.113-.114-.07-.34-.07-.34.504-.138.857-.168 1.086-.164zm-41.92 3.152c.3.03.401.114.401.114l.596.462c.526-.03 1.61.125 2.879.713 1.27.588.619.99.619.99-.186.495-1.579.68-2.168.68-.31 0-.65-.093-.96.032-.309.123-.897.31-1.175.373-.279.062-.217-.063-.217-.063l.186-.496c-1.579-.712-3.19-.371-3.19-.371-1.733-1.177-2.91.433-2.91.433l-.154-.03c.062-1.425-.99-1.952-.99-1.952l.03-.154c.496.247 1.486.558 2.23.496.743-.062 3.331-.55 3.331-.55.155-.155-.091-.466-.091-.466.79-.217 1.285-.24 1.584-.21zm39.446 1.16c.28-.012.385.024.385.024l.783.521c.525-.031 1.61.124 2.879.713 1.27.588.619.99.619.99-.186.495-1.58.682-2.168.682-.312 0-.651-.094-.961.031-.31.124-.898.307-1.176.37-.279.062-.217-.061-.217-.061l.188-.496c-1.578-.712-3.19-.371-3.19-.371-1.734-1.176-2.912.433-2.912.433l-.154-.03c.062-1.425-.99-1.95-.99-1.95l.031-.156c.495.248 1.485.559 2.229.496.743-.061 3.312-.465 3.312-.465.155-.154-.092-.463-.092-.463.7-.192 1.154-.255 1.434-.268zm-16.781.727c.48-.013.724.04.724.04l.992.675c.694-.041 2.12.163 3.791.937 1.671.774.815 1.303.815 1.303-.245.654-2.078.897-2.854.897-.409 0-.855-.123-1.263.04-.407.163-1.18.41-1.547.49-.367.082-.287-.081-.287-.081l.246-.653c-2.08-.938-4.2-.488-4.2-.488-2.282-1.548-3.83.57-3.83.57l-.203-.04c.082-1.875-1.304-2.569-1.304-2.569l.04-.203c.652.326 1.956.735 2.934.652.979-.08 3.938-.611 3.938-.611.204-.204-.123-.611-.123-.611.937-.258 1.651-.335 2.13-.348zm-13.967 2.645c.474.007.793.054.793.054l.783.61c.694-.04 2.12.164 3.791.94 1.671.773.814 1.302.814 1.302-.244.652-2.08.896-2.853.896-.41 0-.857-.121-1.264.041-.408.164-1.465.86-1.832.942-.366.08 0-.533 0-.533l.244-.653c-1.446.122-1.447-.057-4.199-.488-2.752-.432-3.832.57-3.832.57l-.203-.04c.082-1.876-1.303-2.57-1.303-2.57l.041-.202c.652.326 2.573 1.405 3.551 1.324.977-.081 3.863-1.4 3.863-1.4.204-.204-.123-.61-.123-.61a6.79 6.79 0 0 1 1.729-.183zM57.04 30.08c.302.023.422.094.422.094l.73.508c.527-.032 1.61.123 2.88.71 1.269.59.618.99.618.99-.186.497-1.58.682-2.168.682-.31 0-.649-.092-.959.032a10.14 10.14 0 0 1-1.175.37c-.28.063-.217-.062-.217-.062l.185-.496c-1.579-.71-3.189-.369-3.189-.369-1.734-1.176-2.91.434-2.91.434l-.154-.032c.062-1.423-.993-1.95-.993-1.95l.032-.155c.495.247 1.487.556 2.23.494.743-.062 3.252-.584 3.252-.584.156-.156-.092-.465-.092-.465.723-.198 1.206-.223 1.508-.2zm-13.37.168c.295-.022.427 0 .427 0l.89.545c.527-.03 1.61.124 2.88.713 1.269.587.618.99.618.99-.185.495-1.58.682-2.168.682-.311 0-.65-.092-.959.031-.31.124-.897.308-1.175.371-.278.061-.217-.062-.217-.062l.185-.495c-1.579-.711-3.19-.373-3.19-.373-1.732-1.176-2.91.434-2.91.434l-.154-.03c.063-1.424-.992-1.95-.992-1.95l.032-.155c.494.248 1.487.558 2.23.496.742-.062 3.191-.466 3.191-.466.156-.155-.093-.463-.093-.463.653-.18 1.111-.246 1.406-.268zm-36.073.22c.193-.006.277.016.277.016l.719.407c.38-.023 1.163.09 2.078.513.915.425.445.715.445.715-.133.356-1.137.492-1.562.492-.224 0-.47-.067-.694.022a7.219 7.219 0 0 1-.847.267c-.2.046-.157-.043-.157-.043l.135-.357c-1.139-.514-2.3-.27-2.3-.27-1.251-.848-2.1.315-2.1.315l-.112-.024c.045-1.027-.714-1.406-.714-1.406l.021-.113c.357.18 1.073.403 1.608.36.536-.046 2.332-.395 2.332-.395.112-.112-.067-.334-.067-.334.44-.122.744-.157.938-.164zm25.588 2.624c.363.005.488.076.488.076l.951.664c.694-.04 2.12.164 3.791.94 1.671.773.814 1.302.814 1.302-.244.652-2.076.897-2.851.897-.41 0-.856-.122-1.264.04-.407.165-1.604.919-1.97 1-.367.081.136-.591.136-.591l.244-.652c-2.079-.937-4.197-.489-4.197-.489-2.283-1.548-3.832.57-3.832.57l-.203-.04c.082-1.876-1.305-2.569-1.305-2.569l.041-.203c.652.326 1.956.735 2.934.652.978-.08 4.422-.67 4.422-.67.204-.203-.121-.61-.121-.61.956-.263 1.558-.323 1.922-.317zm-17.34.547a7.41 7.41 0 0 1 .875.033l.728.508c.527-.032 1.61.122 2.88.71 1.268.59.618.993.618.993-.185.496-1.58.68-2.168.68-.31 0-.65-.093-.959.03-.31.124-.898.31-1.177.372-.278.062-.215-.06-.215-.06l.185-.497c-1.579-.712-3.19-.373-3.19-.373-1.732-1.176-2.91.434-2.91.434l-.154-.03c.062-1.423-.992-1.95-.992-1.95l.031-.155c.495.246 1.488.558 2.23.496.743-.061 2.352-.465 2.352-.465.155-.155-.091-.465-.091-.465a7.946 7.946 0 0 1 1.957-.261zm34.508.867c.278-.008.394.027.394.027l.898.549c.527-.03 1.61.123 2.88.713 1.27.587.619.99.619.99-.186.496-1.579.682-2.166.682-.312 0-.652-.094-.961.03-.31.124-.898.31-1.176.372-.278.061-.217-.062-.217-.062l.186-.496c-1.579-.712-3.19-.37-3.19-.37-1.733-1.177-2.908.432-2.908.432l-.156-.031c.062-1.424-.99-1.951-.99-1.951l.029-.155c.496.247 1.487.559 2.23.496.743-.062 3.254-.523 3.254-.523.155-.156-.094-.465-.094-.465.649-.179 1.09-.23 1.368-.238zM9.504 38.11c.28.02.377.088.377.088l.683.494c.527-.03 1.61.125 2.88.713 1.27.589.618.99.618.99-.186.495-1.579.682-2.167.682-.312 0-.65-.093-.96.031-.31.125-.896.308-1.175.371-.278.062-.217-.062-.217-.062l.186-.496c-1.58-.712-3.19-.37-3.19-.37-1.734-1.176-2.91.432-2.91.432l-.154-.03c.062-1.424-.99-1.952-.99-1.952l.029-.154c.495.247 1.486.557 2.228.496.743-.062 3.363-.551 3.363-.551.155-.155-.093-.463-.093-.463.744-.205 1.21-.237 1.492-.219zm14.935.278c.367.022.49.107.49.107l.926.67c.694-.033 2.117.189 3.78.982 1.662.792.8 1.311.8 1.311-.25.65-2.089.875-2.863.865-.409-.005-.855-.13-1.263.028-.41.158-1.71.979-2.079 1.056-.367.077.24-.67.24-.67l.253-.648c-1.588-.045-2.22-.225-4.194-.537-1.974-.313-3.838.527-3.838.527l-.203-.043c.103-1.873-1.275-2.582-1.275-2.582l.043-.203c.649.332 2.31 1.332 3.289 1.262.98-.071 4.068-1.24 4.068-1.24.207-.203-.115-.614-.115-.614.968-.254 1.575-.294 1.941-.271zm17.084.97c.292.03.385.112.385.112l.596.465c.526-.031 1.612.122 2.88.71 1.27.589.618.99.618.99-.185.497-1.579.684-2.166.684-.312 0-.65-.094-.959.032-.31.123-.899.307-1.178.369-.279.062-.217-.06-.217-.06l.186-.497c-1.578-.713-3.188-.371-3.188-.371-1.734-1.177-2.91.434-2.91.434l-.156-.032c.062-1.424-.99-1.949-.99-1.949l.031-.156c.496.246 1.485.558 2.229.496.743-.062 3.36-.553 3.36-.553.156-.154-.09-.463-.09-.463.789-.217 1.278-.24 1.57-.21zm14.08.29c.393.005.643.05.643.05l.428.334c.38-.022 1.163.09 2.078.514.915.425.447.715.447.715-.134.357-1.14.49-1.564.49-.225 0-.468-.065-.692.023-.223.09-.649.223-.85.268-.2.045-.156-.045-.156-.045l.135-.357c-1.139-.514-2.3-.268-2.3-.268-1.251-.848-2.1.313-2.1.313l-.111-.022c.044-1.028-.715-1.408-.715-1.408l.023-.111c.356.178 1.07.4 1.608.357.536-.045 1.697-.334 1.697-.334.112-.113-.069-.336-.069-.336a5.437 5.437 0 0 1 1.499-.184zm-4.802 3.359c.404.01.572.086.572.086l.973.672c.692-.041 2.118.161 3.789.935 1.67.775.816 1.305.816 1.305-.245.652-2.08.898-2.853.898-.41 0-.856-.123-1.264.04-.407.162-1.18.407-1.547.49-.367.08-.287-.082-.287-.082l.244-.653c-1.661.113-2.47-.157-4.197-.488-1.727-.332-3.83.57-3.83.57l-.205-.04c.08-1.876-1.305-2.57-1.305-2.57l.041-.202c.652.326 2.63 1.216 3.607 1.135.979-.083 3.579-1.182 3.579-1.182.204-.203-.123-.61-.123-.61.945-.259 1.586-.315 1.99-.304zm-19.364 1.21c.308.009.407.073.407.073l.912.613c.624-.037 1.907.147 3.412.844 1.504.697.732 1.174.732 1.174-.22.586-1.87.807-2.566.807-.369 0-.77-.11-1.137.037-.367.146-1.065.366-1.394.44-.33.073-.256-.073-.256-.073l.219-.588c-1.871-.843-3.778-.44-3.778-.44-2.055-1.394-3.447.514-3.447.514l-.184-.037c.073-1.687-1.173-2.31-1.173-2.31l.035-.184c.586.294 1.761.66 2.642.588.88-.074 4.026-.639 4.026-.639.184-.182-.11-.549-.11-.549.835-.229 1.353-.277 1.66-.27zm-18.156.594c.207-.02.272.022.272.022l.588.307c.411-.088 1.287-.091 2.361.224 1.073.316.607.713.607.713-.088.413-1.17.722-1.634.791-.247.038-.525.005-.756.139a8.19 8.19 0 0 1-.887.433c-.213.082-.18-.023-.18-.023l.09-.414c-1.334-.377-2.566.08-2.566.08-1.51-.726-2.254.687-2.254.687l-.125-.007c-.119-1.134-1.014-1.428-1.014-1.428l.006-.125c.421.138 1.242.266 1.822.129.581-.136 2.672-.817 2.672-.817.104-.14-.129-.355-.129-.355.57-.252.92-.335 1.127-.355zm30.274 4.016c.477.02.642.123.642.123l.942.735c.83-.05 2.543.196 4.548 1.125 2.006.93.979 1.564.979 1.564-.293.782-2.494 1.076-3.424 1.076-.49 0-1.026-.147-1.515.049-.489.196-1.882 1.034-2.323 1.133-.44.097.121-.645.121-.645l.293-.781c-1.882.263-2.42.082-5.037-.588-2.616-.671-4.597.686-4.597.686l-.245-.05c.098-2.248-1.564-3.081-1.564-3.081l.049-.244c.782.391 2.672 1.39 3.846 1.29 1.174-.097 4.92-1.27 4.92-1.27.244-.245-.149-.733-.149-.733 1.247-.342 2.037-.408 2.514-.389z" fill="#231f20"/></svg>