<svg xmlns="http://www.w3.org/2000/svg" width="64pt" height="64pt" viewBox="0 0 64 64"><path d="M30.902 63.563c-5.754-.27-11.054-1.887-15.789-4.825C8.043 54.355 2.941 47.422.957 39.5a31.608 31.608 0 0 1 .016-15.492c.41-1.594.941-3.156 1.59-4.676.378-.887 1.402-2.883 1.886-3.687C9.04 8.059 16.4 2.742 25.016.793 31.09-.578 37.602-.164 43.367 1.961c1.172.422 2.313.922 3.422 1.484 2.332 1.168 4.367 2.508 6.438 4.246.718.606 2.496 2.34 3.144 3.067 6.266 7.039 9.059 16.316 7.711 25.613-1.379 9.477-7.05 17.828-15.473 22.79-.625.366-3.03 1.612-3.12 1.612-.012 0 .105-.125.261-.28.156-.153.313-.333.344-.395.066-.114.062-.118-.106-.09l-.168.027.067-.203c.078-.227.027-.469-.102-.469-.039 0-.156.125-.258.278-.246.355-.527.511-.937.507-.34 0-.79-.152-.953-.324l-.114-.12h.22c.265 0 .694-.122.913-.25.09-.056.223-.2.293-.317.114-.196.125-.254.106-.578-.016-.2-.012-.36.004-.36.015 0 .207.055.421.125.454.145.95.176 1.2.074.09-.039.156-.086.156-.105 0-.02-.106-.063-.23-.094-.497-.125-.958-.445-1.063-.742-.023-.074-.012-.074.137-.012.105.04.21.063.324.07.156 0 .156-.003.078-.12-.031-.043-.055-.086-.082-.133 0-.008.094-.024.21-.028.435-.027.923-.257 1.048-.5.09-.172.078-.172-.172-.047-.262.133-.7.13-1.055 0-.457-.167-.886-.628-1.035-1.097-.027-.078 0-.113.094-.156.187-.086.55-.434.687-.664.157-.262.274-.704.274-1.012v-.235l.187.032c.477.078.637.187.68.465.02.128-.02.261-.176.57-.246.5-.27.816-.078 1.008.172.168.363.152.652-.055.836-.621 1.157-1.164 1.157-1.941-.004-.747-.23-1.22-.875-1.825-.387-.363-.61-.644-.61-.765 0-.067.075-.07.489-.043.578.043.968.133 1.253.297.274.16.395.293.532.586.097.203.113.32.113.777 0 .36-.035.656-.094.91-.136.547-.054.574.242.078.098-.164.2-.39.23-.508.036-.12.075-.21.095-.21.132 0 .18.656.07.933-.059.133.086.102.234-.05.192-.2.25-.38.246-.813v-.387l.278-.004c.527 0 .894-.36.933-.91l.02-.305-.149.16a.969.969 0 0 1-.703.301c-.316 0-.468-.113-.757-.554-.258-.383-.516-.657-.633-.66-.032 0 .015-.036.105-.07.192-.087.196-.216.008-.302-.07-.035-.336-.082-.598-.11-.71-.073-1.062-.222-1.207-.503-.097-.188-.066-.406.137-.871.281-.645.379-1.402.207-1.637-.07-.101-.11-.113-.32-.094-.13.012-.282.063-.332.106-.09.078-.094.066-.13-.297-.07-.77-.429-1.504-1.292-2.652l-.317-.426.25-.637c.34-.84.41-1.203.383-1.844-.027-.656-.148-1.023-.5-1.527-.332-.488-1.156-1.328-1.468-1.508a2.86 2.86 0 0 0-.618-.23c-.406-.098-.75-.23-.75-.281 0-.07.254-.149.473-.149.117 0 .34.047.488.102.305.11.36.101.278-.043-.114-.211-.547-.516-1.157-.813l-.64-.308-.188.28c-.36.54-.777.833-1.363.954-.426.09-.79.086-1.29-.004-.827-.152-1.366-.453-2.437-1.336a2.04 2.04 0 0 0-.601-.344c-.293-.097-.313-.097-.465-.015-.238.12-.809.148-1.047.047-.234-.09-.687-.102-.66-.016.008.031.133.129.27.207.285.164.449.387.328.434-.09.02-.18.027-.266.027-.219 0-.508.105-.652.23-.133.125-.106.172.086.141.21-.043 1.007.2.914.277-.016.012-.203.133-.418.278-.422.281-1.293 1.105-1.52 1.445-.344.496-.805 1.766-.883 2.414-.054.457-.011.906.09.938.028.011.09-.098.133-.243.203-.632.793-1.234 1.328-1.363l.129-.031-.09.254c-.047.14-.152.398-.226.574a5.186 5.186 0 0 0-.2.555c-.144.531-.043 1.617.207 2.238.079.188.246.457.438.684.176.203.328.414.348.464.015.051.066.094.117.094.054 0 .164-.168.36-.574.41-.844.581-1.02.581-.574 0 .113.05.383.117.597.493 1.618.442 3.235-.125 4.11-.187.289-.465.539-.773.691-.371.188-.684.594-.555.719.031.039.149.031.387-.035.18-.043.406-.094.496-.106l.168-.027-.078.14c-.121.231-.293.356-.766.555-.16.075-.324.14-.492.192-.094 0-.465.46-.602.746-.175.367-.187.77-.05 1.258.05.175.12.527.152.777.066.508.219 1.21.3 1.363.071.125.391.477.438.477.024 0 .078-.168.13-.38.113-.503.245-.855.406-1.034l.124-.149.149.27c.086.148.215.36.289.457.078.105.156.305.188.45l.101.55c.059.32.352.785.64 1.012.196.152.536.265.536.171 0-.03-.098-.261-.215-.52-.324-.675-.387-1.206-.223-1.874.055-.234.246-.656.293-.656.02 0 .094.203.164.453.22.722.27.836.52 1.164.21.277 1.816 1.836 1.93 1.875.101.035.043-.707-.086-1.192-.172-.617-.2-.933-.094-1.128a.575.575 0 0 1 .101-.153c.012 0 .06.07.098.149.043.082.242.324.445.547.204.218.426.511.504.656.075.14.16.258.188.258.18 0 .48-.532.539-.938l.035-.234.125.16c.395.52.559 1.156.379 1.5-.043.09-.125.219-.172.281-.27.34.484.527 1.024.258.27-.137.644-.48.902-.828.117-.164.23-.301.246-.301.148 0 .254.918.148 1.285-.039.133-.183.36-.375.598-.242.293-.328.441-.37.637-.051.21-.079.257-.169.257a.47.47 0 0 1-.234-.101.731.731 0 0 0-.16-.098c-.067 0 .023.543.129.742.058.114.234.328.386.48.239.24.336.298.645.391.41.13 1.14.153 1.398.047.079-.03.149-.047.16-.039.024.024-1.222.508-2.05.797-3.59 1.258-8.07 1.91-11.903 1.734zm4.5-1.454c.438-.218.766-.53.938-.886.113-.246.129-.336.125-.766-.004-.395-.028-.566-.145-.902-.168-.516-.535-1.242-.933-1.84-.39-.606-.598-.832-.742-.832-.133 0-.313.203-.352.398l-.027.133-.446-.34c-.433-.328-.562-.375-.5-.187.02.074.004.093-.07.093-.059 0-.113.02-.129.047-.016.024.07.25.203.496.352.7.465 1.067.492 1.598.02.328.004.527-.046.691-.04.13-.067.231-.06.231.017 0 .142-.043.286-.098a.965.965 0 0 0 .621-.61l.094-.241.086.293c.05.168.09.453.09.683 0 .336-.02.418-.145.649-.176.324-.351.46-.824.629-.203.07-.375.152-.383.18-.012.027.074.058.2.07.175.023.23.054.296.172.16.289.657.187 1.11-.227.203-.184.23-.195.195-.09-.063.2-.207.5-.32.672-.141.207-.067.203.386-.016zm2.657-.234c.195-.129.394-.5.437-.816.016-.133.059-.239.086-.239.031 0 .156.098.277.22.27.276.465.366.782.366.265 0 .308-.047.187-.191-.078-.098-.14-.2-.203-.309-.129-.215-.129-.234-.035-.234.222 0 .754-.203.976-.379.23-.18.465-.527.528-.797a.579.579 0 0 0 .02-.133c-.009 0-.137.043-.282.102-.383.144-.852.172-1.187.074-.403-.117-.782-.36-1.575-1.008-.738-.605-.797-.625-.691-.258.05.2.035.262-.082.262s-.05.55.152 1.172c.32 1 .367 1.375.242 2.152-.027.18-.027.188.086.157.067-.02.192-.082.282-.141zm-7.028-.914c.383-.203.578-.395.88-.879.55-.887.585-1.531.144-3.008-.192-.648-.254-.742-.446-.715-.117.016-.183-.007-.293-.12-.18-.18-.273-.157-.242.066.09.593-.039 1.117-.36 1.449-.21.219-.437.305-.804.305-.543-.004-.988-.329-1.437-1.043l-.184-.297-.055.242c-.113.48-.066 1.242.106 1.68.027.066-.016.086-.281.12l-.309.044.238.254c.153.156.367.316.559.41.27.133.367.156.668.152.2-.004.465-.043.59-.078l.234-.07-.027.129c-.094.382-.512.793-1.117 1.082-.13.058-.235.125-.235.156 0 .023.29.035.652.023l.653-.015.539-.285c.289-.153.547-.27.558-.254.016.015-.062.203-.171.418-.11.21-.192.386-.172.386.011 0 .152-.066.312-.152zm-5.242-3.203c.23-.055.496-.137.598-.188.398-.203.664-.64.843-1.367.094-.398.204-1.266.165-1.312-.008-.012-.055.035-.098.097-.113.168-.727.778-.785.778-.024 0-.043-.313-.043-.72 0-.605-.016-.769-.11-1.058-.109-.351-.394-.746-.492-.691-.027.02-.078.2-.113.398-.067.387-.113.457-.168.23-.11-.433-.184-.64-.25-.64-.07 0-.106-.09-.133-.34-.008-.066-.05-.129-.098-.136-.093-.02-.136.097-.261.683-.102.461-.293.844-.625 1.242-.207.25-.242.32-.188.356.125.078.606.015.875-.121.094-.051.188-.094.285-.13.055 0-.039.411-.136.599a.93.93 0 0 1-.293.312c-.258.168-.867.215-1.278.098-.144-.047-.273-.07-.289-.059-.039.047.313.375.54.496l.242.145c.011.008-.07.113-.188.23l-.21.207.194.031c.27.047.668-.039 1.008-.203.157-.074.282-.129.282-.12 0 .01-.055.128-.122.257a1.67 1.67 0 0 0-.12.27c0 .062.503.015.761-.075.16-.05.293-.086.3-.078.009.008-.112.215-.273.461-.164.242-.277.442-.261.442.02 0 .218-.04.441-.094zm6.316-2.078c.204-.742.196-1.102-.035-1.543a3.556 3.556 0 0 1-.375-1.532c0-.734.235-1.144 1.254-2.21 1.149-1.204 1.531-1.817 1.567-2.52l.015-.379h-.164c-.199 0-.344.117-.652.52-.227.297-.594.652-.684.652-.066 0-.008-.324.16-.906.2-.668.262-1.14.2-1.477-.051-.265-.098-.351-.27-.5-.234-.195-.316-.055-.375.602-.031.375-.074.55-.187.785-.149.305-.563.762-.633.7-.02-.024-.04-.747-.043-1.606v-1.567l-.164-.375a2.787 2.787 0 0 0-.246-.48c-.086-.106-.09-.098-.121.304-.153 1.801-.618 3.192-1.286 3.832l-.222.22v-.157a.813.813 0 0 0-.074-.305c-.137-.258-.36-.18-1.118.38-.824.612-1.523 1.444-1.941 2.316-.375.785-.313 1.324.266 2.113l.23.328.031-.418c.04-.469.168-.875.39-1.215.27-.414.278-.406.31.258.05.969.285 1.77.73 2.496.184.3.668.89.73.89.02 0 .008-.109-.027-.245-.172-.645-.18-1.657-.027-2.176.066-.207.254-.512.472-.762l.176-.191-.031.582c-.047 1.02.137 1.652.676 2.32.347.438.57.488.656.148l.031-.12.125.109c.125.117.235.433.29.836.03.215.179.476.273.476.023 0 .07-.082.093-.183zm-9.496-1.446c.43-.078.82-.293 1.125-.605.262-.258.633-.856.57-.914-.015-.016-.199.008-.406.055-.21.042-.398.062-.421.039-.024-.024.027-.13.117-.23.199-.25.379-.634.414-.903.035-.23-.047-.63-.13-.63a.043.043 0 0 0-.042.044c0 .086-.45.476-.684.605l-.234.125.004-1.054c0-1.059-.059-1.516-.18-1.438-.133.078-.43.625-.527.973-.246.87-.25.879-.45 1.054-.394.352-1.136.422-1.84.165-.331-.122-.331-.122-.3-.016.156.492.621.957 1.262 1.27.254.12.574.242.718.277.145.031.258.074.258.09 0 .066-.277.238-.5.32-.136.05-.383.078-.672.082l-.457.004.13.133c.167.172.613.402.956.496.5.14.828.156 1.29.058zm29.54-3.433c.16-.055.163-.059.062-.13a.634.634 0 0 1-.172-.206l-.07-.137.363-.02c.227-.015.414-.054.492-.109.164-.101.418-.496.418-.644 0-.14-.004-.14-.215.004-.574.382-1.422.242-1.656-.274-.086-.191-.133-.57-.07-.57.011 0 .16.043.32.101.895.29 1.781-.035 2.34-.863.148-.219.488-.941.445-.941a3.27 3.27 0 0 0-.281.144c-.371.203-.41.196-.367-.07.05-.352-.094-.66-.309-.66-.023 0-.035.094-.02.21.055.512-.386.868-.777.622-.047-.035-.082-.188-.105-.516-.047-.672-.188-.914-.676-1.187-.059-.028-.035-.075.106-.196.21-.183.308-.41.355-.832.047-.41-.023-.765-.262-1.316-.11-.25-.187-.461-.18-.469.008-.012.09.031.18.09.215.152.645.191.782.07.136-.125.12-.16-.098-.218-.195-.051-.399-.243-.399-.371 0-.055.04-.051.188.011.309.133.43.137.559.016l.113-.11-.211-.062c-.356-.102-.438-.184-.55-.55-.13-.434-.255-.579-.727-.825a12.203 12.203 0 0 1-.442-.238c-.027-.02.164-.028.434-.02.61.028.867-.039 1.156-.293.23-.203.297-.324.129-.234-.11.058-.574.062-.719.004-.09-.035-.086-.043.05-.11.192-.101.536-.433.63-.605.16-.305.21-.914.097-1.098-.011-.02-.074.028-.128.114-.168.242-.215.226-.239-.079-.039-.398-.273-.664-.644-.734l-.18-.031.149.277c.132.242.152.313.128.59-.023.383-.183.61-.582.812-.886.446-2.097.184-2.953-.632-.195-.196-.351-.368-.332-.383.016-.016.106-.004.203.023.32.11.766.145 1.082.098.313-.05.801-.277.786-.36-.008-.023-.09-.066-.188-.085-.195-.04-.644-.25-.687-.329-.02-.027.039-.046.156-.046.41 0 .773-.192.926-.489.101-.191.101-.191-.11-.14-.289.062-.957.05-1.219-.024-.476-.144-.847-.52-.898-.906-.027-.164-.012-.203.04-.176.401.16.773.235 1.05.215.363-.031.871-.25 1.082-.469l.137-.14-.188-.035a3.47 3.47 0 0 1-.379-.083l-.183-.046.199-.22c.176-.206.394-.648.394-.823 0-.047-.097-.008-.297.12-.406.262-.726.36-1.07.333-.238-.02-.297-.047-.433-.196-.313-.335-.524-1.375-.332-1.644l.234-.34c.203-.285.207-.644.004-1.004-.16-.293-.79-.984-.89-.984-.044 0-.157-.078-.263-.168-.164-.149-.21-.168-.37-.14-.239.034-.258.1-.133.347.097.191.132.348.074.348a.557.557 0 0 1-.168-.098c-.18-.125-.383-.2-.418-.145-.016.02.043.18.125.348.078.168.144.355.144.414 0 .098-.011.106-.129.063-.199-.079-.242.003-.152.277.188.566.293 1.23.274 1.7l-.02.46-.652 1.277c-.356.7-.7 1.332-.766 1.414-.113.141-.113.141-.36.075-.636-.16-.503.27.18.582.32.148.348.168.274.238-.047.05-.168.078-.336.078-.227.004-.258.012-.242.102.023.125.12.199.425.293.34.113.668.265.668.316 0 .023-.136.05-.304.055-.168.008-.313.039-.32.062-.012.028.062.094.156.145.3.16.781.707.98 1.12.313.65.59 1.813.504 2.134-.012.05-.004.129.024.16.023.031.05.168.05.3.012.22-.02.29-.258.65l-.269.398v.417c0 .567.133.797.781 1.41.27.258.66.626.867.825l.375.355-.308-.03c-.219-.028-.309-.017-.309.023 0 .097.301.335.512.394.266.082.594.402.668.648.027.106.11.512.176.895.207 1.215.293 1.387.996 2.055.586.558.972.738 1.492.703.176-.012.395-.047.48-.082zm-27.075-1.227c.285-.527.602-.793 1.469-1.222 1.195-.598 2.234-1.395 2.574-1.98.274-.462.375-1.259.168-1.298-.137-.027-.258.114-.375.43-.062.176-.137.289-.176.289-.043 0-.074-.027-.074-.066 0-.106-.082-.137-.191-.07-.184.113-.172-.005.035-.43.305-.645.351-1 .137-1.122-.059-.03-.063-.078-.032-.222.075-.313 0-.367-.375-.297-.129.027-.18.094-.39.512-.133.27-.282.523-.328.566-.078.07-.094.07-.176-.004-.133-.12-.23-.101-.77.14-.27.122-.496.208-.504.2-.007-.008.047-.098.13-.203.41-.54.765-2.117.476-2.117-.04 0-.313.328-.61.726-.558.746-1.039 1.223-1.44 1.438-.263.14-.735.273-.977.273h-.172l.207-.207c.37-.37.582-.95.39-1.074-.066-.043-.105-.031-.183.035-.051.047-.125.074-.16.063-.04-.012-.247.148-.465.355-.457.43-.86.648-1.211.648-.281.004-.508-.136-1.008-.613-.195-.183-.379-.324-.41-.304-.028.015-.055.125-.055.234v.207l-.238-.262c-.203-.226-.238-.25-.297-.183-.04.05-.05.132-.027.234.015.09.03.29.023.445-.004.239.023.348.148.594.168.34.579.746.918.91l.207.098-.48.504c-.508.527-.793.969-.793 1.23a.98.98 0 0 0 .106.356c.101.191.101.207.02.425-.083.243-.067.352.085.524.125.133.383.144.496.02.043-.047.125-.227.18-.407.3-.953 1.512-1.93 2.597-2.082.528-.074 1.293-.062 1.293.016s-.195.285-.425.453c-.121.09-.457.617-.457.715 0 .039.293-.074.859-.328.406-.184.547-.227.777-.227.414 0 .399.074-.12.48-.368.301-.665.684-.868 1.11a1.39 1.39 0 0 0 .012 1.23l.136.266.094-.352c.051-.199.164-.488.25-.656zm-6.43.707c.223-.105.231-.168.028-.234-.149-.047-.152-.059-.086-.145.113-.148.094-.16-.195-.132-.227.023-.274.015-.305-.055-.02-.05.008-.121.074-.192.094-.101.098-.125.035-.296-.074-.215-.11-.235-.46-.317-.141-.035-.255-.078-.255-.101 0-.028.13-.13.286-.239.203-.136.324-.258.398-.406a1.23 1.23 0 0 0 .102-.262c0-.105-.16-.113-.325-.011-.113.066-.191.086-.242.054-.07-.035-.066-.054.024-.168.203-.28.332-.605.382-.945l.028-.273-.371.359c-.457.45-.848.656-1.395.727-.574.082-1.383-.036-1.933-.274-.309-.129-.325-.094-.133.285l.125.246-.313-.023c-.16-.012-.32-.05-.465-.11-.195-.097-.199-.058-.02.188.243.352.575.508 1.446.68l.14.031-.116.156c-.157.211-.192.317-.137.422.078.137.2.156.531.094.371-.074.559-.016.559.168 0 .137-.113.246-.363.347-.102.04-.172.098-.157.122.082.128.989.343 1.7.41.464.039 1.226-.016 1.414-.106zm-2.69-3.707c.952-.226 1.179-.402 1.276-.98.028-.188.082-.367.157-.547.05-.102.09-.195.078-.203-.012-.012-.18.062-.383.16-.484.242-.918.277-1.184.101a1.058 1.058 0 0 1-.285-.332c-.117-.214-.117-.226-.039-.394a.745.745 0 0 1 .274-.277c.242-.133.77-.204 1.226-.16.196.019.356.019.356 0 0-.145-.598-.383-.95-.383-.18 0-.187-.004-.113-.079.106-.105.074-.187-.086-.207-.09-.007-.133-.043-.14-.12-.016-.09-.055-.106-.282-.118-.316-.02-.656.125-1.007.43-.235.203-.528.703-.528.902 0 .184-.101.137-.406-.183-.156-.164-.293-.29-.313-.274-.011.012-.027.176-.027.363-.004.434.106.692.61 1.387.21.297.378.567.37.594-.011.027-.156.059-.324.066-.214.012-.3.035-.3.078 0 .313 1.062.407 2.015.176zm6.058-3.12c.133-.056.242-.114.242-.138 0-.02-.11-.05-.246-.062-.41-.05-.77-.328-.426-.328.246 0 .512-.09.68-.235l.16-.129-.145-.03a2.289 2.289 0 0 0-.398-.036c-.336-.008-.734-.09-.961-.207-.2-.102-.363-.297-.313-.383.047-.074.258-.058.391.028.106.066.113.066.145-.032.023-.093.03-.097.18-.023.241.125.261.074.074-.203-.313-.457-.758-.7-1.551-.84a2.572 2.572 0 0 1-.633-.234c-.324-.176-.34-.18-.871-.18-.488 0-.57.016-.813.133-.418.203-.797.617-.914 1.004-.031.113-.027.113.184.082.117-.02.379-.102.586-.176.578-.227.957-.246.699-.04-.043.04-.14.165-.219.282-.187.29-.191.59-.02.762.071.062.141.117.169.117.023 0 .058.066.074.144.027.13.25.34.305.282.015-.012.047-.157.074-.313.058-.344.172-.508.406-.582.36-.12.793.102 1.512.793.234.219.52.457.644.524.282.16.645.168.985.02zM29.5 41.94c.09-.238.176-.414.195-.394.02.023.11.254.196.508.152.468.343.824.53.984.099.082.099.078.126-.344.047-.742.379-1.562 1.254-3.148.25-.457.55-1.008.664-1.234.195-.391.2-.41.11-.477-.138-.098-.212-.082-1.032.21-.426.15-.781.259-.797.243-.055-.05.555-.586.875-.773.215-.125.445-.227.676-.317.195-.07.351-.148.351-.164 0-.015-.078-.074-.168-.133-.093-.054-.171-.117-.171-.144 0-.024.168-.086.367-.149.203-.054.37-.125.37-.148 0-.082-.398-.34-.612-.398-.477-.137-1.707-.024-2.38.207a7.648 7.648 0 0 1-.507.167l-.223.07.305-.288c.445-.422.91-.676 1.293-.715.281-.031.45-.106.45-.211 0-.094-.325-.191-.727-.223l-.422-.039.125-.105c.074-.063.18-.145.234-.184.078-.054.098-.101.074-.176-.043-.144-.238-.175-.484-.082-.215.078-.527.11-.527.04 0-.02.109-.215.246-.438.136-.219.218-.398.183-.395-.031 0-.156.028-.277.063-.367.11-.426.031-.25-.309l.098-.187-.207.008c-.211.007-.211.007-.215-.16 0-.137-.02-.176-.106-.188-.09-.012-.137.039-.254.273-.738 1.45-2.011 2.555-3.476 3.028-.301.097-.332.117-.25.172.133.101.586.175 1.199.207l.555.035-.262.168c-1.3.836-2.559 1.047-4.195.695l-.141-.031.094.164c.05.09.222.297.379.469.523.558 1.293.824 2.214.777l.477-.023-.086.148c-.297.496-1.094.77-2.078.695-.531-.039-.523-.086-.063.442l.258.297-.187.07c-.278.105-.57.18-.867.223-.13.02-.239.058-.239.082 0 .03.125.113.274.195.242.121.351.14.789.164.41.016.574.004.887-.086.632-.168 1.148-.457 1.773-.988.152-.137.293-.235.316-.215.04.047-.066 1.043-.164 1.516-.043.203-.066.386-.047.402.043.043.45-.313.637-.567.098-.128.246-.37.328-.535.176-.351.184-.347.39.137.11.262.231.441.294.441.02 0 .082-.152.144-.336.168-.519.59-1.34.657-1.28.101.105.101.53-.004 1.136-.137.789-.07 1.145.347 1.89.278.493.29.493.414.063.063-.21.184-.574.27-.805zm-8.04-1.77a3.505 3.505 0 0 0-.448-.343 3.804 3.804 0 0 1-.38-.281.66.66 0 0 0-.03-.094c-.032-.074-.008-.082.195-.05.25.038 1.215-.067 1.215-.13 0-.023-.094-.09-.211-.144a7.96 7.96 0 0 1-.399-.223l-.187-.117.18-.207.18-.203-.434-.027a4.64 4.64 0 0 1-.57-.07c-.13-.032-.137-.048-.137-.313 0-.52.203-.864.613-1.055.336-.152.64-.187.965-.117.14.027.27.043.281.031.05-.047-.355-.418-.598-.543-.152-.078-.258-.168-.254-.21.008-.122-.343-.212-.894-.235-.695-.035-.973.055-1.348.422-.304.297-.422.558-.472 1.035-.028.246-.043.281-.141.281-.293 0-.504-.371-.445-.789l.03-.246-.136.086c-.23.129-.41.336-.512.574-.144.34-.117.867.075 1.258.172.363.675.828 1.191 1.094.707.375 1.82.683 2.477.695.238.004.257-.004.195-.078zm-12.413-.905c.11-.274.226-.606.254-.739.129-.527.293-.55.945-.14.277.172.535.308.582.308.07 0 .07-.023-.031-.238-.149-.309-.277-.789-.223-.844.02-.023.172 0 .328.055.266.086.797.184 1.477.277l.246.035-.266-.234c-.21-.2-.41-.402-.597-.613l-.34-.375.172-.426c.16-.402.312-.879.386-1.2.032-.132.032-.132.461-.132.813 0 1.602-.152 1.516-.293-.039-.059-.637-.238-1.445-.434-.715-.18-.801-.234-.817-.546l-.004-.16 1.086-.563c1.309-.668 1.278-.649 1.227-.727-.055-.093-.64-.03-1.723.188-.515.105-.949.18-.969.172-.074-.043-.386-.621-.351-.653.02-.02.203-.144.41-.28.406-.27.691-.513.691-.59 0-.18-.406-.333-1.273-.473l-.5-.078.024-.176c.035-.254-.032-.328-.196-.227l-.125.086v-.266c0-.148-.015-.367-.035-.492l-.031-.23-.422.035c-.742.059-.703.066-.774-.145a1.472 1.472 0 0 0-.222-.359 2.042 2.042 0 0 1-.23-.336c-.044-.09-.094-.164-.114-.164-.02 0-.148.176-.293.39-.14.216-.277.387-.305.387-.023 0-.27-.152-.543-.34-.273-.187-.52-.324-.539-.3-.02.02-.015.168.008.324.051.281.02.938-.043 1.04-.023.03-.14.019-.34-.032l-.304-.078-.34.18c-.121.07-.242.128-.367.18-.016 0-.149-.224-.285-.497-.403-.766-.723-1.063-.665-.61.016.114.051.415.079.672.03.25.066.52.078.59.02.114.008.137-.07.137-.169 0-.403.105-.403.184 0 .043.027.152.063.246.05.136.05.172 0 .187-.036.012-.063.106-.063.215 0 .16-.023.2-.121.234a.36.36 0 0 0-.16.125c-.043.067-.106.051-.508-.144-.434-.207-.64-.27-.64-.184.003.14.945 1.172 1.128 1.235.055.02.055.043.008.144a2.18 2.18 0 0 0-.074.13 18.75 18.75 0 0 1-.942-.11c-.347-.051-.703-.09-1.05-.121-.118 0-.118 0-.028.097.137.157.801.461 1.196.555.472.113.535.2.418.559-.043.136-.11.246-.145.246-.086 0-.09-.012.055.312.074.164.12.352.113.45-.008.136.02.199.117.285.063.05.13.097.196.132.039.012.058.032.042.043l-.378.301c-.43.344-1.016 1.012-.946 1.078.012.008.188-.039.395-.11.32-.108.398-.116.508-.07.09.04.125.094.125.18 0 .078.027.125.086.125.109 0 1.253-.39 1.336-.453.046-.039.109-.008.246.129l.183.18-.14.254c-.075.14-.368.507-.649.816-.285.305-.504.559-.492.57.016.016.41-.164.89-.394l.864-.426.164.098a.639.639 0 0 0 .277.097c.239.004.262.063.145.368-.059.156-.094.292-.082.3.011.016.07 0 .129-.035.058-.031.113-.05.12-.039.012.008-.042.313-.12.672-.192.898-.207 1.023-.16 1.023.023 0 .257-.37.527-.828.547-.922.539-.918.969-.734.117.05.32.11.445.129l.23.031.032.277c.074.582.187.899.414 1.137l.129.137.082-.102c.046-.054.175-.324.285-.597zm31.515-3.024c.274-.078.77-.36.797-.449.012-.031-.12-.129-.293-.211a7.836 7.836 0 0 1-.609-.363l-.3-.215-.216.129c-.52.308-1.144.422-1.648.308a.744.744 0 0 0-.211-.03c-.027.026.512.519.68.62.441.266 1.273.364 1.8.211zm-16.085-.394c.668-.149 2.183-1 2.832-1.594a4.09 4.09 0 0 0 1.222-2.059c.11-.46-.043-.523-.316-.133-.082.118-.195.239-.25.266-.184.098-.211-.008-.113-.45.132-.624.14-.718.058-.718-.105 0-.215.137-.355.45-.211.476-.508.886-.88 1.234-.82.761-1.714 1.066-3.277 1.12-.808.028-.843.036-.77.114.126.14.462.274.837.332.738.121.754.145.23.27-.457.113-.504.144-.324.238.078.043.254.09.383.105.234.04.238.043.125.102-.168.094-.828.09-1.188-.004-.164-.043-.308-.062-.328-.047-.043.043.387.457.625.594.465.27.867.316 1.489.18zm18.078-.614a6.897 6.897 0 0 0-.121-.3c-.043-.102-.079-.192-.07-.204.011-.007.202.075.433.188.336.16.476.2.773.219.2.011.36.004.36-.02 0-.02-.114-.156-.254-.297-.137-.14-.239-.27-.219-.289.066-.066.57-.078.648-.02.094.083.383.036.852-.12.445-.149.535-.196.602-.313.046-.086.03-.09-.211-.066-.203.023-.278.011-.325-.051-.062-.07-.054-.078.036-.078.199 0 .593-.461.484-.57-.016-.012-.117.039-.23.113a.899.899 0 0 1-.485.152c-.422.031-.644-.047-.836-.289-.16-.207-.191-.285-.113-.285.11 0 .375-.277.48-.508.172-.367.157-.715-.054-1.168-.094-.203-.188-.367-.207-.367-.024 0-.04.23-.04.512 0 .433-.015.523-.101.64-.184.239-.34.32-.68.348-.289.02-.32.016-.351-.078-.063-.196-.227-.348-.375-.348-.082 0-.36.113-.625.25-.965.504-1.309.465-1.469-.16-.055-.238-.234-.352-.582-.375-.387-.023-.52.04-1.016.477-.48.421-.644.507-.922.468-.402-.054-.87-.379-1.132-.785-.078-.117-.168-.215-.203-.215-.032 0-.106.078-.164.168-.083.14-.133.172-.266.172-.453 0-1.145.426-1.516.934-.437.605-.703.746-1.367.71-.477-.027-.715-.14-.914-.44-.145-.204-.16-.216-.184-.122-.093.34.043.598.418.785l.262.137-.297-.027c-.363-.035-.601-.13-.84-.336l-.183-.156.031.187c.04.258.273.613.465.727.133.07.254.09.598.086.292-.004.582.027.875.097.757.18 1.41.09 2.351-.316l.191-.086-.39.715.496-.125c.277-.07.656-.188.855-.266.196-.074.372-.125.387-.11.043.048-.117.348-.308.567-.094.11-.157.2-.13.203.407.055 1.204-.215 1.704-.566l.242-.176-.031.14c-.035.102-.09.204-.157.294l-.125.156h.168c.09 0 .29-.035.434-.074.219-.067.328-.141.621-.438l.352-.36.086.134c.183.285.48.593.695.734.309.203.363.2.305-.023a.784.784 0 0 1-.016-.317l.031-.148.266.25c.254.234.793.535.969.535.07 0 .078-.02.039-.106zm-24.805-3.03c.047-.2.07-.419.055-.485-.028-.09 0-.133.117-.203.137-.082.144-.106.144-.38 0-.32.102-1.89.125-1.913.008-.008.16.097.34.226.274.207.586.348.649.293a6.57 6.57 0 0 0 .07-.523c.066-.586.223-1.145.496-1.801.293-.691.281-.68.621-.512.156.082.332.196.395.254.11.11.328.14.445.067.125-.075.16-.329.082-.543-.039-.114-.082-.45-.098-.747a5.965 5.965 0 0 0-.066-.699c-.027-.101-.027-.156.008-.156.027 0 .277.117.558.266.282.148.52.254.532.23.015-.02 0-.336-.028-.703l-.058-.66.144-.332c.051-.137.117-.27.184-.399.101-.12.21-.058.316.188.094.21.125.242.254.242.235 0 .348-.137.45-.527.093-.352.25-.594.386-.594.035 0 .168.059.29.129l.214.129.14-.149a1.04 1.04 0 0 0 .2-.359c.101-.332.254-.625.328-.625.039 0 .094.039.129.082.172.21.36.355.457.355.055 0 .183-.074.273-.171.13-.13.2-.164.278-.145.129.031.277-.133.367-.402.031-.098.101-.262.148-.36.09-.172.098-.18.242-.125.141.043.168.035.301-.09.082-.078.254-.289.375-.468.18-.258.239-.313.27-.258.058.105.105.098.277-.047.195-.164.258-.152.258.05 0 .118.035.212.117.294.133.129.375.16.457.062.028-.039.067-.261.082-.504.07-.906.051-.859.406-1.093.41-.258 1.61-.825 1.766-.825.207 0 .371.086.371.196 0 .074.02.097.07.078.149-.055.422-.09.422-.047 0 .023-.035.133-.074.25-.043.117-.058.234-.043.262.035.058.434.008.61-.082.128-.051.257-.082.398-.098.145-.02.379-.086.512-.148.23-.11.25-.11.336-.036.078.075.105.075.343 0 .141-.046.446-.156.676-.25l.422-.168.047.18c.098.348.152.356.676.098l.289-.14.148.1c.121.087.145.137.145.305 0 .473.226.594.511.27.098-.113.18-.223.18-.25 0-.023.055-.035.133-.027.105.011.145.058.215.25.047.129.11.27.14.304.157.184.547-.039.547-.312 0-.137.008-.145.254-.164.14-.008.297-.032.34-.059.074-.031.078-.004.059.262-.032.332.023.496.207.578.093.043.183.008.597-.238.266-.16.512-.29.543-.29.028 0 .086.036.117.079.102.12.422.265.586.265.09-.003.184-.023.278-.054.117-.043.152-.028.312.144.13.14.23.2.375.223.11.016.274.05.371.078.098.023.32.043.496.047.297 0 .325.008.516.191.16.145.2.215.184.309-.02.086.015.148.133.242.214.18.386.168.59-.035l.16-.168.136.14c.16.172.364.227.551.157.125-.047.172-.035.324.066.227.153.239.172.281.504.047.402.063.43.297.563.157.093.23.175.274.304.078.23.441.61.754.782.14.074.472.222.742.328.262.101.492.21.504.242.015.031-.055.133-.153.226-.097.098-.175.196-.175.22 0 .062.168.105.375.109.25 0 .37.234.203.39-.102.094-.102.102-.016.246.09.145.09.153-.027.27l-.11.117.133.137c.07.074.133.18.133.23 0 .047.031.149.074.211.051.094.059.215.04.453-.036.399.011.477.253.442.149-.024.172-.012.172.066 0 .047-.05.176-.121.281-.137.223-.16.47-.055.559.11.086.551.016.836-.137.219-.117.266-.172.434-.515.242-.497.328-.883.254-1.149-.028-.101-.035-.191-.02-.191.02 0 .11.078.2.168.093.097.195.172.226.172.145 0 .398-.692.43-1.188l.008-.2.27-.015.26-.015-.03-.325c-.083-.836-.09-1.273-.036-1.488.051-.203.047-.242-.035-.36a1.625 1.625 0 0 1-.176-.382 1.592 1.592 0 0 0-.183-.375l-.102-.125.168-.07c.153-.063.328-.207.278-.235-.09-.047-.176-.09-.262-.133-.211-.105-.254-.144-.266-.273-.015-.2.032-.215.723-.262.875-.054.84-.117-.215-.41-.695-.187-.723-.219-.672-.703l.035-.309.52-.191-.348-.328c-.23-.219-.347-.367-.347-.442 0-.105.011-.109.324-.082.297.028.324.024.293-.054-.024-.07-.043-.149-.063-.219-.015-.09-.101-.195-.23-.29-.239-.17-.95-.523-1.063-.523-.105 0-.218-.128-.285-.324l-.05-.156.39-.148c.21-.082.406-.149.437-.149.028 0 .051-.02.051-.047 0-.125-.718-.351-1.152-.36l-.297-.007-.137-.266a1.73 1.73 0 0 1-.125-.273c.09-.05.18-.09.266-.129l.258-.117-.649-.215c-.37-.121-.707-.266-.785-.328-.176-.152-.355-.148-.531.016-.078.074-.149.109-.168.078-.02-.024-.305-.227-.637-.45-.328-.214-.61-.402-.613-.406-.008-.004.066-.136.16-.297.25-.41.234-.437-.273-.421a2.741 2.741 0 0 1-.563-.024l-.148-.039.36-.375c.358-.379.437-.563.296-.707-.137-.129-.828-.004-1.977.352-.12.039-.254.078-.379.105 0-.008.028-.102.067-.207a2.93 2.93 0 0 0 .098-.344c.027-.14.02-.16-.079-.156a.464.464 0 0 0-.234.098.419.419 0 0 1-.176.09c-.035.003-.07-.184-.09-.504-.027-.5-.152-1-.253-1.032-.06-.023-.184.235-.415.836-.21.555-.203.543-.414.336l-.18-.176-.003-.539V9.98l-.133.157a4.965 4.965 0 0 0-.398.633c-.399.722-.344.683-.66.503-.149-.082-.301-.152-.337-.152-.035 0-.148.086-.25.184-.164.148-.19.168-.218.09a1.42 1.42 0 0 1-.004-.383c.05-.555-.11-2.27-.211-2.27-.02 0-.086.156-.149.352-.296.969-.359 1.144-.472 1.312-.067.098-.153.184-.188.184-.039 0-.125-.16-.207-.375l-.18-.496c-.038-.114-.046-.11-.18.101-.233.36-.847.758-1.292.84l-.18.035-.058-.383c-.047-.28-.047-.414-.004-.519.027-.078.047-.148.035-.156-.008-.008-.223.125-.477.3-.277.184-.508.31-.566.301-.106-.011-.11-.043-.207-.715l-.04-.265-.206.312c-.114.176-.29.41-.39.532l-.192.21-.032-.164c-.035-.168-.007-.39.126-1.007.046-.2.078-.422.078-.504v-.14l-.153.081c-.082.047-.375.3-.652.559-.445.414-.527.468-.73.5a1.69 1.69 0 0 0-.458.148l-.23.113-.043-.105c-.027-.059-.16-.39-.3-.738a24.526 24.526 0 0 0-.43-.992l-.176-.368-.035.196c-.02.105-.07.437-.11.738l-.07.55-.246.235a2.097 2.097 0 0 0-.328.39c-.125.243-.153.22-.418-.394-.055-.125-.117-.23-.137-.23-.023 0-.102.172-.18.386-.078.215-.16.403-.18.414-.023.016-.175-.132-.335-.328-.422-.504-.645-.707-.696-.629-.023.036-.066.258-.101.489-.063.41-.188.742-.309.812-.031.024-.242.047-.469.055a3.626 3.626 0 0 0-.578.059c-.293.078-.507-.133-1.132-1.13-.043-.078-.094-.128-.102-.12-.012.011-.043.304-.07.648-.078.855-.121 1.035-.317 1.238-.265.281-.324.399-.324.645 0 .203-.016.234-.129.261-.094.024-.176-.003-.332-.113a6.753 6.753 0 0 0-.539-.32l-.332-.176v.816l-.137.016c-.101.008-.175.078-.289.254-.191.29-.469.465-.578.375-.039-.031-.32-.414-.625-.848-.863-1.226-1.277-1.785-1.332-1.785-.074 0 .063.52.57 2.114.172.562.32 1.046.32 1.078 0 .027-.14.113-.32.187-.18.078-.355.176-.39.235-.067.09-.07.09-.125-.016a2.4 2.4 0 0 1-.13-.344c-.07-.234-.21-.383-.374-.383-.102 0-.121.11-.164.922-.04.89-.051.914-.434.758-.347-.145-.375-.125-.375.305 0 .203.035.457.07.566a.859.859 0 0 1 .063.195c-.063.024-.117.04-.18.055-.218.055-.351.242-.383.524-.019.125-.046.238-.062.25-.016.007-.2-.024-.398-.079-.41-.101-.618-.12-.665-.043-.039.055.192.457.47.825l.202.27-.136.015a3.214 3.214 0 0 1-.535-.04 2.877 2.877 0 0 0-.516-.046c-.117.023-.106.039.203.363.176.184.36.39.406.457.078.125.11.367.043.406-.02.012-.344-.007-.722-.043-.375-.039-.7-.058-.707-.046-.036.035.21.527.375.753.085.114.156.258.156.325 0 .285-.555.465-1.79.578-.222.02-.327.055-.316.086.032.086.778.469.985.504.16.023.183.043.183.16a.638.638 0 0 1-.12.3c-.106.15-.2.31-.282.47l-.164.308.191.36c.121.238.176.394.153.456-.016.059-.235.254-.48.438-.532.39-1.317 1.062-1.317 1.125 0 .074.234.055.5-.04.285-.097.422-.046.398.141-.031.211-.387.891-.773 1.454a9.084 9.084 0 0 0-.387.605c-.012.059.09.05.762-.074.906-.172 1.027-.078.457.351-.63.47-1.246.989-1.235 1.04.028.09.32.078.692-.028.27-.07.48-.094.758-.086l.39.016-.664 1.207c-.367.66-.652 1.215-.633 1.23.02.024.164.047.332.059.16.012.309.043.32.074.009.031.036.363.06.738.046.723.109.961.238.84.035-.039.152-.261.261-.504.106-.238.215-.441.235-.449.027-.008.093.203.156.461.062.262.14.55.184.64l.066.165.144-.192c.075-.105.149-.215.215-.332l.075-.136.058.187c.102.316.262.656.3.656.02 0 .079-.164.122-.367zm2.871-.727c.078-.114.25-.258.406-.344l.27-.14 1.402-.032 1.403-.027.472-.153c1.145-.379 1.871-1.093 2.016-1.972.043-.25.035-.325-.047-.508-.105-.235-.129-.516-.05-.711.023-.067.16-.207.292-.305.164-.129.305-.289.399-.473.078-.16.136-.296.125-.312-.012-.012-.137.023-.278.082-.332.145-.66.176-.902.09-.106-.035-.203-.09-.211-.113-.012-.024.086-.094.21-.164.329-.172.669-.489.821-.774.332-.598.371-1.527.11-2.43l-.079-.265-.257.246c-.414.402-.66.5-1.477.566-.543.047-.746.086-.914.168-.512.262-.89.785-.89 1.227 0 .422.171.742.726 1.32.367.39.527.703.605 1.203.133.84-.05 1.461-.578 1.95-.336.316-.547.402-.965.402-.273 0-.39-.031-.668-.164-.472-.227-1.019-.782-1.253-1.258l-.168-.356-.059.282c-.074.36-.07.582.012.816.062.168.062.18-.012.152-.129-.046-.258-.097-.39-.148l-.31-.113v.101c0 .188.243.516.473.653.118.066.22.144.22.164 0 .02-.11.062-.24.097-.648.157-.98.828-.776 1.606.039.148.09.297.164.433.078.114.078.114.172-.242.046-.199.152-.449.226-.554zm22.758-.344c.148-.125.309-.336.387-.488.113-.235.129-.31.109-.622-.035-.554-.379-1.171-.824-1.496-.235-.172-.75-.37-1.074-.414-.243-.027-.25-.035-.38-.304a19.364 19.364 0 0 1-.394-.926l-.262-.653.094-.148c.145-.238.106-.855-.058-.855-.024 0-.086.109-.133.246-.114.312-.285.472-.586.547-.309.074-.336.183-.086.293.105.039.238.085.293.101.082.023.176.23.488 1.074.317.875.399 1.051.488 1.067.797.152 1.11.28 1.434.593.582.555.59 1.317.027 2.125-.058.079-.109.16-.152.25 0 .063.395-.175.629-.39zm-6.734-.352c.003-.355.261-.718.609-.863.059-.02.328-.055.594-.07.597-.032.64-.098.207-.313a1.464 1.464 0 0 0-.664-.164c-.508-.027-.813.082-1.012.36-.238.335-.238.886-.008 1.117.18.175.274.152.274-.067zm-26.86-1.855c.125-.012.25-.031.375-.059.008-.012.074-.367.149-.797.066-.43.14-.812.152-.863.016-.047.894-.8 1.95-1.676 2.507-2.078 2.468-2.047 2.944-2.297.223-.12.48-.277.567-.347l.148-.13-.136-.292c-.114-.235-.133-.305-.086-.39a.413.413 0 0 0 .05-.153c0-.055-.097 0-2.214 1.328-.77.48-1.805 1.121-2.305 1.426-1.102.672-1.973 1.238-2.149 1.398a.375.375 0 0 0-.128.258c0 .246-.102 1.492-.149 1.852-.035.25-.031.41.012.566.058.219.062.223.258.219.109 0 .363-.024.562-.047zm-1.953-.793l.313-.453.007-1.309.012-1.312.414-.317c.79-.61 1.555-1.238 2.305-1.89.945-.817 1.168-1.11 2.273-2.961 2.477-4.153 2.567-4.293 3.082-4.832.633-.668.75-.813.75-.93 0-.219-.52-.012-1.41.555-.27.175-.562.332-.652.351-.086.024-.172.059-.188.082-.011.024-.054.043-.093.043-.047 0-.016-.133.132-.476.235-.563.461-.98 1.223-2.27.707-1.2.738-1.254.738-1.406 0-.067.024-.133.051-.149.078-.054.004-.12-.09-.09a.89.89 0 0 0-.207.133c-.133.118-1.008.66-1.055.66-.015 0-.015-.058 0-.136.051-.211.606-1.61.782-1.977a7.2 7.2 0 0 0 .328-.879c.152-.543.316-.91.488-1.129a.492.492 0 0 0 .098-.175c0-.036.09-.172.203-.317l.2-.265-.212-.18c-.25-.219-.215-.23-.832.258-.883.703-1.164.96-1.515 1.37-1.141 1.345-1.903 3-2.594 5.692-.098.375-.434 1.7-.746 2.938-.594 2.37-.98 3.808-1.067 3.957-.054.105-1.39 1.617-2.77 3.14-.362.395-.718.793-1.073 1.2-.082.101-.075.152.234 1.386.172.707.34 1.45.371 1.649.07.449.082.488.145.488.027 0 .187-.203.355-.45zm38.934.308c.207-.117.203-.183-.008-.222-.27-.051-.567-.188-.696-.324l-.109-.122h.317c.289.008.332-.007.468-.14.172-.156.297-.363.297-.48 0-.055-.094-.028-.398.117-.219.105-.45.183-.688.222-.277.031-.293.04-.293.164 0 .07.032.239.074.375.149.496.579.668 1.032.41zm-2.32-.785c.19-.027.367-.07.39-.093.117-.114-.441-.79-.805-.977l-.191-.094.12.223c.153.289.153.539 0 .762-.163.242-.097.265.485.18zm-1.403-.133a.41.41 0 0 0-.074-.132.563.563 0 0 1-.07-.278c0-.148.019-.183.097-.183.117 0 .246-.051.246-.098 0-.02-.058-.059-.129-.094l-.133-.058.168-.172.172-.172-.273.035c-.434.055-.79.207-1.055.461-.16.148-.226.246-.203.29.098.16 1.262.53 1.254.401zm-7.29-.636c.122-.07.27-.2.321-.285a.742.742 0 0 1 .266-.227c.246-.121.191-.25-.098-.25-.195 0-.27-.031-.515-.223-.399-.308-1.157-.82-1.215-.82-.024 0 .004.066.066.152.223.309.192.836-.062.97-.2.105-.078.144.476.144.602 0 .64.015.488.226-.039.059-.18.164-.32.238-.258.141-.297.192-.156.231.18.05.535-.023.75-.156zm9.759.09c0-.211-.66-1.051-1-1.278-.375-.254-.907-.48-1.133-.484-.32-.004-.824.3-.824.5 0 .137.058.148.316.066.57-.168.856-.054 1.8.707.606.489.84.625.84.489zm-11.825-.707a.993.993 0 0 0-.101-.18c-.125-.203-.129-.426-.008-.426.05 0 .129-.031.184-.07.093-.063.093-.07-.035-.121-.079-.028-.141-.067-.141-.082 0-.02.062-.102.14-.18l.133-.145-.218.036c-.352.05-.801.293-1.055.558-.129.133-.23.266-.23.297 0 .086.406.238.769.285.426.051.563.063.563.028zm-4.519-.133c.133-.035.355-.028.828.035.934.113 1.117.047 1.64-.621.165-.207.4-.457.52-.555.473-.367 1.504-.75 2.067-.758.39-.008.625.13 1.238.727.527.512.629.566.84.453.164-.086.117-.23-.09-.285a1.761 1.761 0 0 0-.234-.051c-.028 0-.172-.195-.32-.426-.528-.836-.743-.968-1.466-.926-.906.06-1.933.47-2.535 1.004l-.332.297-.234-.054c-.352-.086-.938-.399-1.305-.696-.183-.148-.344-.254-.355-.23-.094.148.75 1.047 1.187 1.254l.266.133-.16.101c-.145.086-.243.102-.805.102-.66.004-.77.027-1 .234-.137.125-.156.402-.023.348.05-.02.171-.055.273-.086zm17.246.082c.066-.024.082-.114.082-.438v-.406l.18.117c.097.07.195.11.219.094.097-.055.007-.445-.22-.95l-.077-.175.164-.031a.508.508 0 0 1 .242 0c.113.043.101-.047-.016-.149-.156-.136-.125-.222.075-.222.355 0 .152-.164-.305-.247a2.314 2.314 0 0 1-.434-.128l-.148-.079.117-.043c.121-.039.121-.042.023-.136-.07-.07-.265-.117-.902-.2-.453-.058-.828-.117-.84-.128-.011-.008.043-.082.133-.157.117-.109.14-.152.094-.187-.082-.07-.375-.082-.813-.035l-.36.039.13-.227c.129-.21.133-.32.015-.32-.03 0-.171.078-.312.172-.2.137-1.047.484-1.086.441-.008-.004.012-.101.031-.222.024-.122.032-.23.02-.243-.047-.043-.364.149-.676.41-.285.239-.344.27-.41.211-.067-.05-.094-.043-.184.07-.062.075-.133.137-.168.137-.086 0-.074.11.024.422.133.418.265.528.687.567.192.02.524.074.739.125.414.097.48.09.433-.051-.031-.094-.012-.102.387-.168.148-.023.234 0 .441.117.145.082.285.192.32.25.126.192.239.063.16-.191-.054-.192-.023-.211.165-.098.086.047.308.149.5.219.46.18.629.297.87.61.243.316.384.605.384.784 0 .075.02.172.05.223.024.043.055.117.07.168.032.09.075.102.196.055zm-8.633-2.414c-.008-.063.024-.086.094-.086.102 0 .105-.004.031-.11-.191-.257-.191-.27-.031-.355.145-.07.148-.086.074-.164-.11-.121-.097-.164.082-.27.133-.078.14-.093.074-.148-.05-.035-.07-.09-.05-.168.027-.113.023-.117-.211-.082-.125.02-.25.039-.38.062-.12.028-.132.016-.132-.097 0-.2-.184-.621-.383-.875-.258-.34-.304-.34-.304 0 0 .27-.008.277-.094.195-.098-.086-.207-.32-.313-.66-.078-.266-.172-.305-.25-.106-.031.082-.074.153-.101.153-.125 0-.453-.242-.606-.45-.215-.296-.297-.3-.34-.015a.907.907 0 0 1-.097.3c-.055.079-.082.071-.305-.113-.3-.246-.719-.503-.824-.503-.102 0-.102.023 0 .175.117.168.07.184-.133.055-.277-.188-.488-.242-.61-.16a.385.385 0 0 1-.238.043c-.093-.016-.132-.004-.132.043s-.067.074-.204.078c-.222.008-.96.242-1.062.336-.106.094-.07.156.094.172l.16.015-.172.11c-.125.074-.254.14-.39.191-.7.254-1.008.383-1.024.442-.012.03.066.097.195.152.2.082.203.09.09.113a3.91 3.91 0 0 1-.422.059c-.16.015-.316.05-.34.074-.062.066.055.187.223.223.145.027.145.03-.215.285-.234.168-.363.289-.37.363-.017.105-.005.11.144.074.09-.02.378-.117.644-.222.266-.11.531-.184.59-.18.102.016.102.02-.027.172a.893.893 0 0 0-.133.18c0 .058.14.027.203-.047.11-.102.23-.192.352-.27a3.7 3.7 0 0 0 .457-.36c.207-.206.316-.222.304-.042-.004.074.016.136.047.148.027.008.2-.113.383-.273.215-.188.398-.301.504-.32.097-.024.183-.024.195-.008.012.011-.012.097-.058.195-.09.183-.067.328.05.328.04 0 .188-.102.325-.223.136-.117.28-.218.316-.218a.527.527 0 0 0 .133-.024.194.194 0 0 1 .14.02c.051.035.047.066-.043.175-.12.157-.136.352-.023.399.047.02.117-.02.195-.117.176-.223.563-.367 1-.371.313-.008.375.007.387.074.012.055-.043.113-.176.176-.441.226-.3.375.305.324.191-.016.375-.012.402.008.032.023.09.133.14.242.048.113.157.277.24.363.085.09.187.23.234.309.078.136.109.152.421.183.188.02.41.059.493.082.082.028.222.043.32.04.133-.008.168-.028.152-.094zm10.25-10.532c.035-.691-.097-1.414-.472-2.566a35.533 35.533 0 0 1-.325-1.043l-.105-.398c-.035-.137-.14-.25-.555-.579-.91-.722-1.07-.843-2.187-1.62l-1.098-.762-2.082-.989a285.016 285.016 0 0 1-2.695-1.293c-.75-.367-.985-.457-1.055-.39-.121.12 1.422 1.375 2.719 2.215.379.242.699.515 1.261 1.062 1.008.996 1.293 1.395 1.856 2.64a.81.81 0 0 0 .219.29c.125.082.14.082.265-.016.153-.113.301-.484.301-.789l.004-.21.125.113c.07.066.277.34.465.605.394.578.465.648.582.574.066-.039.082-.113.07-.336l-.011-.285.203.215a7.354 7.354 0 0 1 1.597 2.82c.14.48.23.617.496.766.27.156.41.148.422-.024zM18.805 6.285c1.265-.316 1.62-.433 2.367-.805 1.125-.55 3.84-2.109 5.953-3.41.473-.289.86-.527.875-.527.008 0 .164.113.352.254.441.332 1.378.773 2.097.984.875.262 2.266.504 3.074.54.707.038 2.332-.044 2.723-.126a1.59 1.59 0 0 0 .344-.129c.113-.078.117-.082.02-.113a5.516 5.516 0 0 0-.66-.094c-2.11-.21-3.509-.507-5.243-1.113-1.383-.476-1.887-.707-2.332-1.058l-.207-.172-.75.363c-.637.305-.895.465-1.664 1.031-2.809 2.09-5.477 3.485-8.172 4.285-.05.016-.023.063.094.164.094.075.187.145.207.145.023 0 .437-.098.922-.219zm0 0"/></svg>