<svg xmlns="http://www.w3.org/2000/svg" width="64pt" height="64pt" viewBox="0 0 64 64"><path d="M30.508 64.387c-5.176-.242-9.93-1.61-14.32-4.121A32.214 32.214 0 0 1 4.184 48.188C.117 41.011-1.043 32.406.96 24.32a32.352 32.352 0 0 1 4.941-10.808C13.192 3.184 25.664-1.832 37.972.609A31.641 31.641 0 0 1 51.23 6.711c1.16.914 1.891 1.574 3.04 2.734 1.753 1.782 3.07 3.422 4.316 5.403 4.168 6.62 5.793 14.394 4.644 22.21a32.5 32.5 0 0 1-3.82 11.13c-4.91 8.66-13.484 14.546-23.164 15.906-1.918.27-4 .379-5.738.293zm1.562-.723c.383-.105.633-.293.778-.586a3.09 3.09 0 0 1 .215-.379c.289-.418.425-1.57.308-2.648-.059-.555-.101-.727-.262-1.117l-.191-.47.098-.21c.136-.309.125-.387-.051-.387h-.149V51.81h.293v-.914c0-.692-.015-.954-.07-1.086-.066-.153-.066-.196 0-.348.09-.223.09-.496-.008-.785-.058-.18-.066-.258-.02-.348a.919.919 0 0 0 .051-.289c0-.164-.007-.172-.183-.172h-.18l.031-.597-.218-.208c-.356-.328-.364-.636-.032-1.066.188-.234.2-.27.227-.668.027-.379.04-.418.121-.398.102.027.106.011.04-.114a.403.403 0 0 0-.192-.14.265.265 0 0 1-.18-.184c-.027-.11-.004-.16.137-.289.336-.3.336-.316.328-1.46-.008-.638.008-1.052.039-1.09.086-.114.176-.305.21-.47.048-.214-.07-.68-.23-.89-.105-.145-.117-.184-.07-.285.035-.082.055-.602.055-1.547v-1.422l.18-.059c.195-.066.156-.093.464.301l.13.168-.114-.27c-.11-.25-.219-.495-.332-.742a8.293 8.293 0 0 1-.277-.667 3.743 3.743 0 0 0-.153-.364c-.113-.226-.527-.699-.582-.664-.113.07.004.676.2 1.067.066.129.14.586.261 1.55.098.75.168 1.371.16 1.375-.043.04-.328.07-.328.04 0-.024-.074-.63-.164-1.348-.144-1.137-.187-1.356-.328-1.7-.137-.34-.156-.449-.156-.812l.004-.418-.77.031.035.282c.055.41.035.89-.047 1.14-.039.121-.152.625-.253 1.117l-.184.895-.14-.027-.145-.028.02 1.153c.011 1.03.003 1.16-.067 1.234-.102.105-.234.539-.234.77 0 .246.101.546.203.605.082.043.086.133.086 1.11 0 1.136.015 1.214.265 1.433.067.062.125.156.125.21 0 .099-.156.294-.242.294-.094 0-.293.426-.293.637v.21l-.277-.03c-.93-.114-2.184-.442-3.106-.817-.843-.336-1.703-.79-1.683-.883.007-.062.004-.062-.051.004-.277.348-.313.371-.543.402-.277.028-.484.168-.504.336.004.106.027.211.078.305.094.18.094.184-.008.312-.11.145-.144.118.438.442 1.02.566 2.566 1.156 3.734 1.422.672.152 1.82.332 1.88.293.023-.016.042-.067.042-.118 0-.05.063-.113.148-.148.211-.09.399-.332.364-.465a1.09 1.09 0 0 0-.223-.285l-.191-.191v-1.028h.34v.43c0 .418.007.441.144.578.082.074.18.234.223.348.113.293.039.504-.27.765l-.242.207v.625h-.148c-.164 0-.188.09-.075.293.055.106.055.141 0 .258-.113.219-.136.63-.054.875.066.192.066.23.004.352-.051.101-.067.332-.067.879v.742h.34v6.305h-.172c-.207 0-.219.085-.062.449l.097.242-.195.504c-.234.597-.3 1.074-.3 2.18 0 .859.05 1.078.402 1.742.187.351.289.484.441.582.39.254.82.316 1.273.195zm-17.246-5.66c.778-.324 1.508-1.098 2.207-2.332.25-.45.403-.848.446-1.2.027-.218.05-.25.222-.324.301-.136.332-.207.172-.351l-.133-.117 1.758-2.399c.598-.82 1.2-1.636 1.805-2.445.023-.031.074-.012.137.039.046.05.109.074.136.063.121-.079.969-1.32 1.035-1.528.051-.16.13-.27.223-.328.215-.133.34-.3.426-.555.043-.132.078-.265.078-.297 0-.035.059-.093.133-.14a.573.573 0 0 0 .203-.207c.062-.117.058-.137-.047-.227-.129-.105-.133-.086.113-.437.13-.184.133-.211.082-.407-.074-.277-.027-.492.137-.652.133-.129.48-.281.645-.281.046 0 .199-.137.34-.309.288-.347.312-.363.421-.273.078.066.078.023-.011-.442-.043-.195.03-.3.183-.27.266.048.457-.112 1.082-.905.336-.422.61-.809.61-.86 0-.054.03-.093.074-.093.125 0 .531-.235.61-.356.12-.172.198-.465.194-.719 0-.199.016-.242.133-.308.078-.047.504-.594.953-1.219.45-.629.829-1.14.836-1.14.012 0 .106.035.211.078.184.07.196.093.2.28.003.145.058-.023.164-.534.085-.407.183-.829.226-.934.074-.223.082-1 .008-1.133-.04-.07-.066-.058-.2.102-.136.172-.347.707-.347.89 0 .055-.672 1.383-1.152 2.27l-.164.312-.145-.078c-.113-.062-.137-.093-.101-.164l.625-1.215c.359-.687.617-1.254.668-1.441.09-.371.218-.637.421-.871.086-.098.145-.184.133-.192l-.316-.218-.301-.203-.145.254c-.164.296-.496.624-.773.765-.098.055-.414.352-.691.66l-.594.653c-.086.093-.086.093-.211-.02-.074-.074-.14-.101-.164-.074-.164.183-1.094 1.527-1.152 1.664-.051.133-.098.176-.239.195-.207.035-.586.332-.695.543-.04.082-.074.266-.082.406-.008.211-.04.297-.152.426-.082.09-.356.469-.622.836-.437.621-.476.696-.48.914-.004.13.012.285.031.34.051.152-.086.266-.312.266a.728.728 0 0 0-.621.285l-.16.18-.528-.547a12.99 12.99 0 0 1-2.3-3.203c-.262-.512-.356-.657-.422-.637-.274.086-.344.082-.524-.012a1.548 1.548 0 0 0-.371-.129c-.152-.035-.184-.02-.258.098a.864.864 0 0 0-.113.308c-.024.145-.055.184-.192.23l-.16.052.36.715c.433.867.851 1.55 1.398 2.289.79 1.066 2.055 2.39 2.121 2.222.024-.058.07-.07.215-.047.106.016.266.012.356-.004.21-.039.289-.218.226-.503-.07-.282-.07-.274.242-.707l.293-.395.121.09c.063.043.121.098.121.121 0 .023-.105.184-.238.367-.21.297-.23.34-.195.5a.956.956 0 0 1-.082.606c-.078.156-.383.289-.672.289-.207 0-.293.066-.594.484-.008.012-.07-.02-.14-.062-.16-.102-.243-.047-.286.187-.027.133-.082.195-.246.297-.261.156-.39.336-.437.594-.027.168-.063.21-.211.285-.137.062-.309.265-.7.812-.284.399-.59.82-.675.938-.082.113-.14.21-.129.21.012 0 .137-.16.277-.347.141-.191.27-.344.285-.344.016 0 .083.04.149.09l.113.09-1.836 2.531c-.617.852-1.23 1.7-1.847 2.547-.04.047-.27-.16-.25-.219.046-.109-.008-.07-.118.09-.062.086-.136.27-.164.407-.05.214-.086.265-.25.355-.246.14-1.027.816-1.273 1.105-.906 1.051-1.156 1.618-1.156 2.606 0 .644.039.738.375 1.066.453.45 1.09.582 1.644.348zm34.938-.18c.343-.18.62-.496.738-.847.063-.192.066-.325.027-.793-.043-.524-.062-.582-.277-1.004-.367-.735-.957-1.492-1.484-1.926-.254-.203-.551-.418-.668-.473-.168-.086-.211-.14-.254-.3-.074-.297-.157-.47-.407-.794l-.222-.296.187-.168.86-.805c1.984-1.84 3.718-4.137 5.047-6.684.367-.734.707-1.488 1.02-2.246l.077-.203-.39-.129-.387-.125-.043.106c-.535 1.402-1.602 3.437-2.469 4.715-1.129 1.652-2.629 3.359-3.965 4.515-.25.223-.41.39-.39.43.02.027.23.328.472.664l.438.61-.113.093a.435.435 0 0 1-.149.086c-.039 0-3.504-4.84-3.504-4.902 0-.016.055-.07.121-.13l.118-.093-.528-.727c-.289-.398-.594-.757-.672-.804a.492.492 0 0 1-.203-.293.924.924 0 0 0-.465-.61c-.148-.09-.218-.171-.246-.273-.015-.078-.125-.277-.246-.445l-.222-.301.703-.723c1.047-1.074 1.808-2.094 2.468-3.308.254-.461.645-1.286.621-1.301-.058-.024-.113-.05-.171-.074-.118-.047-.157-.094-.157-.184 0-.168-.12-.441-.222-.496-.106-.063-.387.012-.547.137-.121.097-.09.105-.801-.125-.266-.086-.281-.102-.254-.22a.472.472 0 0 1 .063-.16c.02-.019.207.02.414.087l.375.12.203-.1c.238-.126.578-.134.754-.02.066.043.183.218.258.386.117.258.16.313.32.371.43.157.418.145.363.247-.066.125.004.168.23.16.126-.004.212.031.329.133.21.191.558.32.781.293.156-.02.2 0 .3.113.087.105.25.183.657.312l.68.227c.125.039.136.031.164-.102.02-.082.047-.16.07-.175.023-.012 1.371.402 2.988.925l2.95.95-.032.144c-.015.082-.047.16-.078.176-.097.066.356.156.598.12.234-.03.25-.023.445.165.469.45 1.028.762 1.926 1.082.55.195 1.383.297 1.863.227.813-.118 1.242-.512 1.473-1.34.078-.293.078-.32 0-.594-.156-.512-.793-1.172-1.422-1.465a5.54 5.54 0 0 0-.82-.293c-.239-.066-.551-.148-.688-.187-.37-.106-1.21-.149-1.52-.086l-.257.058-.215-.199c-.246-.23-.383-.254-.426-.07-.023.09-.062.12-.125.11-.054-.009-1.344-.427-2.867-.927-2.762-.906-2.77-.91-2.742-1.035.015-.066.031-.14.031-.164.004-.023-.344-.164-.77-.308-.609-.211-.82-.266-.964-.239-.153.02-.215 0-.39-.125-.22-.16-.556-.242-.786-.199-.094.024-.176.012-.23-.039-.044-.039-.254-.133-.461-.207-.297-.11-.375-.152-.368-.227.004-.05.055-.37.106-.707.289-1.789.254-3.8-.094-5.511l-.059-.262-.164.031c-.14.028-.199.004-.39-.14-.125-.098-.274-.176-.332-.176-.133 0-.29.164-.39.402-.067.168-.099.192-.49.309l-.476.152c-.039.016-.082-.035-.113-.14l-.05-.169.398-.128c.347-.114.41-.153.46-.282.036-.078.149-.226.258-.324.176-.16.211-.172.422-.152a.99.99 0 0 1 .434.156l.207.145.633-.157.027.145c.031.172.09.176.313.02.148-.102.214-.114.437-.094.3.03.535-.055.715-.25.101-.106.148-.121.32-.102.164.023.563-.09 2.145-.605 1.316-.434 1.957-.618 1.976-.582.098.175.371 1.66.504 2.738.11.844.149 3.23.078 4.168-.074.918-.199 1.828-.382 2.73-.188.926-.258.805.64 1.114.426.144.781.257.79.25.046-.047.273-1.176.382-1.88a25.99 25.99 0 0 0-.34-9.687c-.023-.07.008-.098.13-.133l.16-.043.109.446c.062.25.164.78.23 1.191.524 3.203.465 6.36-.172 9.477-.082.386-.129.726-.105.742.074.07.664.246.699.21.066-.07.379-1.648.504-2.523.187-1.363.238-2.097.238-3.55 0-1.45-.05-2.188-.238-3.547-.102-.707-.367-2.086-.492-2.543-.028-.102.008-.121.402-.242.3-.098.48-.188.617-.31l.188-.175.761-.008c.512-.007.84-.03 1.004-.086.133-.039.457-.128.723-.203.71-.191 1.172-.422 1.512-.758.668-.66.824-.984.754-1.53-.067-.466-.344-.915-.715-1.145-.336-.215-1.473-.305-2.024-.16-.847.218-1.441.457-1.972.796-.29.192-.59.41-.668.497-.133.144-.145.152-.367.101-.184-.043-.286-.035-.5.027-.153.047-.266.09-.258.102a.43.43 0 0 0 .172-.023c.14-.04.156-.032.203.109.031.082.047.16.039.168-.024.015-5.614 1.793-5.696 1.805-.023.003-.058-.047-.074-.114-.02-.07-.066-.12-.105-.117-.192.012-1.551.492-1.692.602-.129.09-.226.12-.46.125-.313.007-.614.14-.754.336-.04.058-.122.086-.25.086-.239 0-.454.085-.426.16.105.277.11.273-.207.363-.282.082-.309.102-.395.3-.148.348-.289.458-.59.458a1.32 1.32 0 0 1-.468-.098c-.211-.098-.211-.098-.598 0-.297.078-.406.09-.457.047-.055-.047-.078-.031-.117.082-.082.23-.125.285-.262.336-.102.039-.148.027-.246-.066-.227-.215-.445-.192-1.367.128-.457.165-.875.32-.934.352a.259.259 0 0 1-.234.008 1.337 1.337 0 0 0-.375-.05c-.301 0-.719.226-.871.48-.078.128-.13.16-.25.16-.09 0-.38.074-.641.168-.406.136-.484.18-.469.261.008.047.016.13.02.176.008.07-.238.2-1.172.625-1.012.465-1.219.578-1.457.797-.29.266-.777.535-.977.535-.101 0-.113.016-.086.133.016.078.059.266.09.418l.055.281.242-.125c.39-.187.824-.27 1.258-.234.262.023.46 0 1.082-.133.414-.09.77-.145.785-.133.012.016.031.09.035.168l.008.14-.844.18c-.687.145-.879.168-1.023.133-.215-.062-.61-.015-.961.11-.32.113-.352.136-.258.199.164.105.492.156.996.148.32-.004.922.047 1.485.118.52.07.98.125 1.023.12.04 0-.191-.085-.512-.19-.586-.196-.656-.243-.656-.427 0-.082.04-.12.156-.16 1.352-.422 2.614-.86 2.66-.918.047-.05.086-.058.149-.023.121.062.562.062.793-.008.113-.027.277-.14.406-.27.117-.12.25-.218.297-.218.047 0 .488-.133.984-.301.965-.324 1.18-.453 1.254-.754.047-.187.215-.226.367-.086.192.18.465.223.805.117.164-.054.301-.082.301-.066 0 .02.043.3.094.625.148.922.203 2.02.148 2.902-.05.809-.183 1.797-.25 1.871-.02.02-.148.004-.285-.047-.398-.132-.34-.05.09.122.367.152.398.175.539.425.226.407.375.442.719.145l.156-.133.394.133c.38.129.391.137.36.262-.047.203-.082.21-.375.109l-.281-.094-.278.149c-.422.218-.652.14-.957-.325-.156-.234-.203-.273-.535-.402-.355-.133-.371-.148-.344-.277.028-.114.012-.125-.066-.106a.429.429 0 0 0-.184.125c-.148.16-.37.11-.422-.105-.066-.285-.3-.414-1.25-.711-.316-.102-.64-.195-.96-.277-.036 0-.09-.047-.118-.11-.066-.148-.3-.332-.52-.41-.222-.082-.64-.09-.8-.016-.094.04-.145.04-.234-.02-.16-.105-.805-.296-.868-.257-.03.016-.05.066-.05.106 0 .054-.04.066-.16.046-.66-.117-2.641-.32-3.102-.32-.574 0-.961-.078-1.195-.238-.067-.04-.121-.063-.13-.055-.003.012-.054.152-.113.317a7.112 7.112 0 0 1-.136.37c-.028.063.043.094.363.165.492.105.73.21 1.05.453.137.105.571.36.966.562.617.32.703.38.68.465-.067.235-.071.235.898.555.547.176.984.293 1.047.281.082-.02.132.012.226.152.266.399.867.622 1.203.446.125-.067.176-.07.262-.016.063.031.5.188.988.336.774.242.895.27 1.067.227a.876.876 0 0 0 .304-.145c.157-.148.325-.059.371.195.043.258.266.493.547.567.121.039.239.09.25.125.063.176-1.078 2.094-1.757 2.953-.422.527-1.29 1.445-1.368 1.445-.03 0-.12-.09-.195-.195-.227-.336-.195-.18.043.191.219.344.219.344.191.684-.023.309-.02.348.086.45.09.097.145.109.356.085l.246-.023.508.722-.117.078a.498.498 0 0 1-.16.075c-.024 0-.118-.11-.208-.246-.148-.223-.187-.243-.351-.243-.25 0-.496-.113-.602-.28-.066-.099-.09-.24-.094-.52-.007-.36-.02-.403-.207-.7-.23-.351-.242-.406-.101-.449.223-.074-.016-.2-.281-.14a.276.276 0 0 1-.254-.07c-.114-.09-.117-.114-.063-.266.114-.325.035-.5-.539-1.274-.293-.394-.566-.742-.61-.773-.05-.043-.077-.164-.085-.383-.008-.262-.035-.356-.137-.496a1.37 1.37 0 0 0-.695-.438c-.11-.023-.16-.062-.16-.12 0-.048-.336-.567-.754-1.157-1.028-1.453-.93-1.273-.793-1.465.058-.09.117-.172.117-.18a.8.8 0 0 1 .215.063c.117.043.215.066.226.059.008-.008-.273-.165-.62-.352-.352-.188-.72-.406-.817-.484-.11-.09-.23-.168-.356-.239-.187-.097-.773-.25-.808-.215-.012.012.035.114.11.223.12.188.581.567.862.719.075.035.524.496 1.008 1.016l.875.949-.12.12-.114.122-.14-.145c-.079-.082-.462-.492-.852-.918-.532-.578-.82-.843-1.13-1.05-.413-.282-.734-.633-.843-.93l-.055-.137-.191.172c-.105.094-.219.18-.344.254l-.152.078.266.281c.316.336.503.63.617.961.047.145.246.606.437 1.04.34.738.352.785.266.847a.29.29 0 0 1-.13.066c-.019 0-.038.02-.038.047 0 .07 1.12 1.598 1.246 1.696.094.066.117.136.117.3 0 .43.438 1.004.766 1.008.074.004.125.047.16.133.023.066.3.477.61.906.472.66.585.79.75.86a.62.62 0 0 0 .312.047c.172-.043.254.128.168.378a.782.782 0 0 0 .117.7c.062.086.129.183.144.215.043.07-.898.566-1.68.882-.995.407-2.566.809-3.23.825l-.304.011v.207c0 .18-.032.239-.2.407-.195.199-.273.386-.222.52.015.038.129.132.246.21.195.117.219.152.219.316.004.114.027.188.062.188.184 0 1.406-.207 1.914-.32 1.242-.301 2.438-.75 3.574-1.34.641-.348.641-.348.575-.469-.04-.07-.032-.148.023-.293.047-.105.082-.27.082-.363 0-.137-.027-.184-.144-.242a.845.845 0 0 0-.336-.079c-.184 0-.2-.015-.493-.418l-.3-.421.109-.094a.673.673 0 0 1 .145-.098c.015-.004.144.149.28.34.2.285.274.348.384.348.187.004.52.164.617.297.09.136.097.472.023.738-.054.168-.047.195.117.45l.18.26-.105.079-.106.082.149.113c.109.082.18.203.207.336.078.313.207.508.437.672.14.102.203.18.227.305.023.129.543.925.87 1.34.009.011.079-.028.153-.082l.14-.102 1.802 2.492c.613.852 1.226 1.703 1.835 2.559.028.05 0 .101-.09.172-.12.097-.124.105-.038.199.046.055.18.152.293.219.167.101.21.156.23.304.176 1.137 1.305 2.84 2.191 3.293.793.414 1.141.45 1.696.168zm-19.52-1.203v-.355l-.699-.067a23.448 23.448 0 0 1-6.621-1.566c-.875-.348-2.442-1.121-3.293-1.63l-.668-.394-.156.203-.196.258c-.125.172 2.68 1.657 4.336 2.297 2.282.887 4.2 1.324 6.91 1.586.422.04.387.07.387-.332zm4.207.234c2.57-.277 5.27-1.05 7.66-2.199 1.063-.511 2.672-1.437 2.672-1.539 0-.027-.097-.176-.207-.328l-.21-.277-.434.27a23.587 23.587 0 0 1-10.13 3.41c-.277.03-.538.054-.573.054-.051 0-.067.086-.067.367v.375l.305-.031c.168-.02.61-.062.984-.102zm-4.207-1.843c0-.668-.015-.895-.058-.907-.29-.039-.579-.07-.868-.101-2.89-.3-5.867-1.293-8.433-2.809a10.216 10.216 0 0 0-.637-.36l-.504.7c-.273.371-.508.707-.523.742-.028.067.183.211 1.027.692 2.102 1.207 4.727 2.156 7.176 2.605.793.149 2.121.309 2.539.317l.281.011zm4.207.758a22.672 22.672 0 0 0 7.73-2.403c.704-.363 1.66-.918 1.887-1.086.086-.066.063-.11-.382-.726-.164-.23-.336-.47-.504-.696-.024-.023-.176.047-.348.153-2.059 1.27-4.508 2.23-6.926 2.718-.836.153-1.683.274-2.527.356l-.195.012-.012.906-.016.906.356-.035c.191-.016.613-.063.937-.105zm-18.508-4.008c.059-.082.094-.149.082-.149a.52.52 0 0 0-.128.149c-.06.082-.09.144-.079.144.012 0 .07-.062.125-.144zm.204-.285c.058-.079.058-.079-.02-.016-.082.066-.105.102-.066.102.007 0 .05-.036.086-.086zm.261-.36c.102-.137.16-.265.137-.289l-.48-.422a24.124 24.124 0 0 1-6.02-8.203 31.99 31.99 0 0 1-.39-.894c-.024-.075-.048-.075-.31.004-.187.058-.277.113-.265.156.043.195.598 1.445.953 2.14 1.293 2.551 3.137 5.008 5.106 6.817.925.855 1.02.937 1.058.941.016 0 .114-.113.211-.25zm1.07-1.476c.34-.473.676-.934.743-1.02.062-.086.11-.16.093-.16-.011 0-.12.129-.242.297l-.215.293-.53-.485c-2.243-2.05-4.137-4.68-5.274-7.32a8.58 8.58 0 0 0-.293-.637c-.043-.043-1.664.434-1.766.512-.043.04.34.945.758 1.797a24.205 24.205 0 0 0 3.012 4.629c.797.973 2.968 3.098 3.058 2.996.02-.02.313-.426.657-.902zM47 50.05c.238-.207.727-.676 1.09-1.047 2.094-2.133 3.789-4.676 4.91-7.328.16-.39.297-.715.297-.727 0-.015-.969-.34-1.656-.55-.051-.024-.055-.012-.016.019.043.027.004.164-.152.531a22.632 22.632 0 0 1-3.325 5.457c-.496.598-1.625 1.77-2.183 2.262l-.445.39.488.684c.27.38.504.688.523.688.02 0 .235-.168.469-.38zm-28.281-2.133c.113-.172.12-.188.023-.074a6.486 6.486 0 0 0-.273.37c-.117.169-.121.188-.028.071a4.25 4.25 0 0 0 .278-.367zm-13.805-4.82c.93-.23 1.785-.664 2.348-1.192.133-.12.18-.136.449-.129.363.012.437-.039.363-.257l-.05-.145.3-.102c.164-.05 1.36-.433 2.66-.84 1.297-.41 2.45-.773 2.567-.816l.21-.066.052.144c.027.082.07.145.105.145.027 0 .39-.11.809-.242.605-.196.789-.278.898-.395.121-.129.18-.148.39-.148.255 0 .637-.176.723-.325.024-.046.117-.07.246-.07.164 0 .516-.082.516-.117 0-.004-.023-.082-.047-.168l-.043-.16.293-.086c.285-.082.3-.098.406-.34a1.02 1.02 0 0 1 .246-.348c.18-.117.512-.109.797.016.215.098.223.098.578.012.2-.055.391-.082.426-.07.121.046.137.035.168-.126a.31.31 0 0 1 .149-.238c.125-.066.14-.062.246.035.238.223.43.203 1.492-.16.781-.262.992-.316 1.07-.273.055.027.239.05.41.05.274 0 .344-.019.551-.156.13-.09.278-.234.336-.324.07-.117.133-.156.238-.156.082 0 .383-.082.672-.18l.524-.176-.078-.144c-.086-.168-.211-.082 1.265-.88.61-.331 1.215-.687 1.336-.788a2.12 2.12 0 0 1 .817-.442l.207-.058-.09-.207a3.117 3.117 0 0 1-.121-.344l-.032-.133-.191.098c-.25.129-.813.258-.953.226-.063-.015-.512.028-1.004.094-1.063.145-1.059.145-1.059.035-.004-.218-.054-.215-1 .09-.507.164-.992.332-1.078.38-.133.066-.164.07-.23.015-.11-.094-.707-.078-.89.015-.153.082-.45.399-.45.473 0 .031-.04.05-.082.05-.05 0-.508.126-1.012.278-.847.25-.937.285-1.082.45-.086.097-.16.214-.16.257 0 .215-.277.262-.488.078-.164-.136-.461-.199-.64-.133l-.126.051-.074-.43c-.266-1.472-.266-3.44-.004-4.769.027-.137.02-.148-.168-.207-.16-.047-.223-.098-.3-.266-.235-.472-.419-.535-.723-.257-.172.156-.2.168-.317.117-.066-.035-.14-.047-.156-.032-.047.051-.203 1.06-.266 1.731-.07.785-.031 2.61.075 3.332.148 1.008.226 1.336.32 1.32.043-.011.16.055.262.145.335.3.53.25.718-.172.09-.203.106-.211.555-.355.25-.086.469-.153.48-.153.016 0 .125.281.125.32 0 .008-.18.063-.394.125-.336.098-.399.133-.465.266-.125.246-.363.469-.531.5-.2.04-.465-.043-.645-.203l-.14-.117-.325.09-.324.093-.031-.144c-.035-.172-.18-.188-.344-.031-.101.093-.16.109-.426.097-.328-.015-.527.051-.742.25-.082.078-.164.102-.304.09-.125-.008-.407.063-.82.195l-.626.211.055.172c.043.14.039.176-.02.203-.043.012-1.375.446-2.964.965-1.743.563-2.903.922-2.915.89-.109-.296-.078-.28-.292-.202a1.42 1.42 0 0 0-.36.203c-.16.129-.176.129-.96.14-1.044.016-1.5.125-2.552.618-.324.148-.449.25-.77.586-.503.539-.64.828-.597 1.277.055.59.39 1.086.895 1.324.539.25 1.144.258 2.113.02zm49.84-1.707a1.034 1.034 0 0 0-.246-.063c-.04 0 .004.027.097.063.079.035.16.058.243.07.043 0-.004-.031-.094-.07zM8.426 38.5c.11-.031.215-.066.234-.082.02-.016-.039-.371-.129-.785-.383-1.723-.515-2.91-.547-4.887-.043-2.41.067-3.473.602-5.988.023-.09-.016-.117-.211-.188-.309-.105-.34-.101-.375.055-.484 2.297-.633 3.625-.633 5.727 0 1.425.047 2.187.215 3.418.168 1.226.5 2.789.594 2.789.027 0 .14-.024.246-.059zm1.55-.5c.66-.215.864-.3.844-.352-.05-.132-.277-1.27-.375-1.867-.168-1.066-.242-2.113-.242-3.43 0-1.68.125-2.96.442-4.5.05-.265.09-.492.085-.503-.296-.102-.59-.196-.886-.29-.653-.21-.875-.269-.903-.218-.062.098-.336 1.45-.437 2.14-.047.352-.117.985-.149 1.403-.078 1.012-.035 3.68.067 4.582.168 1.418.558 3.39.656 3.332A25.9 25.9 0 0 1 9.977 38zm18.204-2.707c.308-.344.558-.578.699-.652.125-.059.312-.211.426-.332.199-.223.379-.516.336-.559-.036-.043-.438.086-.606.191a3.469 3.469 0 0 0-.348.258c-.105.09-.695.434-1.308.77-.617.332-1.113.61-1.106.625.012.008.293-.086.637-.203l.617-.227.141.16c.078.086.137.18.14.2 0 .023-.078.156-.175.296-.211.301-.13.22.547-.527zm-1.004-2.527c.34-.043.785-.082 1-.09.289-.012.476-.051.715-.149.183-.074.328-.152.328-.175 0-.118-.621-.207-1.02-.141-.308.047-.699.012-2.09-.176-.097-.015-.011.035.22.117l.386.137v.211c0 .21-.004.215-.242.305-.207.082-.223.09-.075.066zm2.199-1.067c.047-.14.094-.297.113-.34.024-.066-.008-.09-.152-.117a2.876 2.876 0 0 1-1.02-.433c-.164-.11-.605-.372-.984-.575-.512-.277-.68-.386-.66-.441.078-.191.043-.211-.926-.523-.531-.176-1-.317-1.043-.317-.043 0-.121-.074-.176-.16a1.537 1.537 0 0 0-.332-.324c-.195-.14-.273-.168-.488-.168-.145 0-.32.035-.41.082-.121.062-.18.07-.227.031-.035-.031-.48-.195-.988-.367-.855-.29-.941-.309-1.145-.266-.117.028-.253.086-.3.14-.078.087-.098.09-.227.02-.086-.046-.137-.113-.137-.183 0-.18-.234-.477-.449-.57l-.195-.083.387-.761a12.679 12.679 0 0 1 2.246-3.207l.441-.461.152.183c.25.309.25.207 0-.199l-.238-.379.024-.351c.035-.442-.024-.512-.414-.516h-.278l-.238-.348-.238-.351.12-.09c.04-.035.09-.07.145-.094.02 0 .114.121.215.274.176.258.192.265.395.265.465 0 .664.242.644.797-.008.324 0 .352.215.711l.223.367-.117.059c-.227.105-.137.164.199.14.238-.015.375.176.27.383-.028.043-.032.18-.009.305.024.172.133.363.512.887.262.367.535.73.613.816.102.11.141.2.141.332 0 .41.367.91.746 1.02.152.039.223.093.258.191.027.074.168.293.312.485l.262.359.082-.11.082-.113.117.106c.594.539 2.196 1.91 2.348 2.011.266.184.445.36.617.606.137.203.153.21.25.137a2.95 2.95 0 0 1 .285-.176l.184-.098-.219-.273c-.218-.27-.414-.621-.484-.86a19.418 19.418 0 0 0-.399-.925 13.09 13.09 0 0 1-.355-.848c0-.02.055-.059.125-.082.121-.04.113-.055-.484-.863-.34-.454-.657-.844-.707-.875-.075-.04-.094-.086-.067-.223.031-.211-.066-.594-.203-.781a.92.92 0 0 0-.539-.328.3.3 0 0 1-.219-.18c-.039-.086-.312-.477-.605-.867-.434-.578-.574-.73-.73-.793-.11-.043-.247-.067-.305-.051-.094.027-.121 0-.184-.148-.055-.13-.062-.208-.023-.274.035-.105.05-.215.05-.324v-.227l-.152.106c-.09.066-.164.093-.184.066-.351-.535-.464-.66-.585-.66-.165 0-.489-.152-.606-.281-.125-.145-.152-.442-.062-.7l.074-.218-.18-.293c-.121-.2-.16-.305-.117-.317.105-.035.066-.152-.086-.242-.082-.05-.145-.129-.145-.183 0-.164-.191-.512-.359-.653-.348-.297-.36-.304-.414-.25-.035.032-.074.04-.098.008-.8-1.11-1.597-2.226-2.386-3.348-2.32-3.257-2.344-3.296-2.243-3.378.055-.047.102-.098.102-.114 0-.015-.11-.082-.242-.152-.188-.098-.246-.149-.246-.242a2.37 2.37 0 0 0-.098-.45c-.398-1.296-1.367-2.566-2.316-3.035-.758-.37-1.317-.3-1.875.243-.336.328-.399.492-.399 1.07 0 .52.078.887.262 1.242.219.414.883 1.348 1.144 1.61.297.296.922.777 1.13.863.132.054.16.097.187.289.027.16.12.355.348.687l.312.461-.238.207a24.96 24.96 0 0 0-5.188 6.383 22.388 22.388 0 0 0-1.25 2.531c-.16.387-.32.758-.355.832-.063.13-.063.13.222.22.172.05.305.07.325.038.066-.11.113-.223.156-.34.574-1.488 1.652-3.468 2.683-4.93.918-1.312 2.317-2.886 3.516-3.96l.555-.5-.438-.618c-.242-.34-.449-.644-.46-.671-.012-.036.038-.098.117-.145l.132-.082 3.473 4.945-.137.118-.14.12.515.727c.395.563.567.754.719.84.168.09.207.148.254.344.066.246.258.469.531.605.106.059.156.114.156.196 0 .062.122.285.27.492l.262.375-.258.23c-.313.266-1.098 1.153-1.508 1.684-.644.844-1.352 2.023-1.754 2.937-.219.489-.219.492-.12.582.05.047.081.118.089.192 0 .05.05.183.105.293.098.195.11.203.297.175a.877.877 0 0 0 .344-.132l.145-.106.48.153c.266.085.48.164.48.171 0 .008-.023.082-.05.16l-.051.153-.781-.242-.239.105c-.453.192-.742.106-.941-.3a1.695 1.695 0 0 1-.129-.313c0-.035-.14-.106-.312-.168l-.309-.113.05-.145c.063-.183.036-.21-.222-.215-.148 0-.254-.043-.41-.16-.266-.195-.504-.277-.73-.246-.145.02-.204 0-.325-.11-.113-.1-.582-.277-2.008-.745-1.77-.579-1.863-.614-1.84-.715.063-.239.735-1.703 1.06-2.309a22.194 22.194 0 0 1 2.515-3.746 31.566 31.566 0 0 1 2.062-2.152c.325-.297.328-.297.43-.203.094.082-.41-.664-.941-1.403l-.188-.258-.254.211c-.465.391-1.883 1.825-2.37 2.399a23.486 23.486 0 0 0-3.231 4.879c-.504 1.023-.934 2.058-.871 2.113.023.023.98.36 2.12.742 1.145.387 2.083.707 2.083.715 0 .008-.024.082-.055.164l-.05.149-3.157-1.067c-1.738-.586-3.152-1.09-3.14-1.117.1-.281.1-.285-.118-.242-.187.031-.215.02-.379-.14-.152-.145-.851-.606-1.156-.767-.266-.105-.531-.199-.805-.285-.808-.265-1.277-.316-2.004-.218-.484.07-.625.12-.879.355-.296.262-.468.633-.503 1.066-.032.497.062.7.562 1.247.328.355.434.433.82.62.348.157.707.29 1.07.395.583.164.68.18 1.45.203l.828.02.211.191c.21.188.394.25.394.13.004-.216.043-.212 2.172.495l2.852.946c.758.25.762.25.734.382l-.023.141.797.25c.613.2.84.25.98.227.16-.024.203-.008.352.14.16.156.191.164.566.18.293.012.426.043.5.105.086.078.367.2.465.2.02 0 .05-.063.066-.145.036-.176.094-.18.438-.059l.242.09.16-.12a.785.785 0 0 1 .367-.141c.27-.032.47.097.684.437.152.238.195.266.543.398.266.102.363.16.344.211-.035.098.035.086.18-.03a.554.554 0 0 1 .269-.102c.121 0 .152.027.18.144.03.11.086.211.16.297.117.14.23.188 1.02.426.495.148.945.27 1.011.27.07 0 .137.042.172.109a.987.987 0 0 0 .395.414c.218.113.718.144.894.054.133-.074.16-.074.254-.007.055.039.375.16.715.27.34.109.648.21.683.23.043.015.067-.008.067-.078 0-.055.02-.114.047-.13.027-.015.558.036 1.18.118.87.11 1.257.133 1.667.117.301-.012.614 0 .707.023.262.079.266.079.348-.199zm4.543-.765c.105-.055.328-.215.484-.368.254-.238.426-.332 1.47-.804.644-.293 1.163-.543 1.155-.551-.011-.012-.34.086-.73.215l-.719.242-.137-.168-.14-.168.18-.25c.132-.2.042-.121-.43.348-.328.332-.672.633-.754.675-.184.094-.524.477-.656.735-.09.176-.09.183-.008.183.047 0 .176-.043.285-.09zm-4.238-.16c-.11-.22-.352-.477-.598-.649-.18-.121-1.16-.96-2.14-1.828-.067-.059.066.148.292.46l.45.63c.02.035-.016.133-.098.238-.117.152-.156.172-.285.148-.078-.015.129.122.472.317.344.187.7.398.782.465.09.066.246.16.351.203.219.094.758.21.813.183.02-.011.004-.086-.04-.168zm3.683-.133c.176-.317.489-.668.711-.805.098-.059.473-.398.824-.75l.641-.645.121.114.113.11.582-.806c.32-.445.598-.867.618-.941.02-.094.058-.133.144-.133.125 0 .488-.223.649-.398.144-.16.207-.352.207-.637 0-.152.027-.25.07-.281.039-.02.324-.39.637-.824l.566-.79-.031-.27c-.035-.433-.035-.456.058-.51a.532.532 0 0 1 .23-.04c.247.02.497-.117.692-.383l.18-.242.188.149c.234.187 1.015 1.035 1.378 1.496a15.802 15.802 0 0 1 1.418 2.215c.305.597.34.64.461.625.11.003.215.03.313.085.105.055.27.102.37.102.161 0 .196-.02.255-.16.035-.09.078-.219.097-.29.024-.112.067-.148.235-.19.113-.036.219-.067.238-.079.02-.011-.05-.203-.148-.425-.43-.942-1.13-2.075-1.817-2.954-.43-.55-1.77-1.96-1.863-1.96-.031 0-.098.042-.145.101-.066.074-.152.098-.375.098-.41 0-.476.047-.476.347 0 .137.02.285.043.332.031.063-.024.18-.25.489-.16.222-.32.406-.352.406-.03 0-.097-.043-.144-.094-.082-.094-.078-.11.144-.418.23-.312.235-.328.223-.637-.02-.55.191-.773.715-.773.226 0 .246-.008.43-.242.105-.133.207-.246.234-.246a.33.33 0 0 1 .133.078c.082.074.101.078.14.02a.773.773 0 0 0 .078-.22c.02-.093.098-.18.266-.285.258-.16.43-.425.434-.668 0-.109.039-.156.191-.234.145-.074.305-.25.602-.66l.406-.566-.125-.098c-.047-.035-.098-.07-.145-.11-.03-.023 3.649-5.066 3.711-5.085.032-.004.086.023.125.066.032.04.086.074.114.074.086 0 .226-.32.226-.511 0-.153.027-.18.445-.426 1.008-.61 2.032-2.032 2.204-3.075.113-.68.082-1.011-.122-1.285-.117-.16-.488-.441-.765-.59-.223-.117-.3-.132-.61-.117-.445.024-.886.227-1.312.598-.387.336-.465.426-.793.902-.617.895-1.043 1.77-1.043 2.145a.25.25 0 0 1-.105.21c-.086.063-.094.087-.04.153.051.063.043.106-.054.242l-1.867 2.602-1.746 2.441-.13-.086-.124-.09-.524.743c-.289.41-.539.812-.55.894-.02.11-.083.188-.255.297-.234.16-.433.484-.437.723-.004.093-.043.148-.145.187-.078.032-.234.192-.343.348l-.211.293-.54-.293a15.03 15.03 0 0 0-5.366-1.652l-.305-.032v.153c0 .125-.035.172-.188.27-.25.163-.39.35-.359.484.016.054.113.187.215.289l.183.18v1h-.34v-.415c0-.398-.003-.418-.16-.593-.355-.387-.328-.743.086-1.09.22-.188.223-.192.223-.5 0-.297.004-.309.121-.309.137 0 .16-.11.066-.316-.042-.098-.039-.168.028-.325.09-.238.097-.714.012-.89-.055-.102-.051-.149.027-.317.066-.156.082-.332.086-.875v-.68h-.29V7.032h.15c.14 0 .144-.008.112-.152a1.933 1.933 0 0 0-.12-.348l-.087-.199.192-.469c.16-.39.207-.574.266-1.09.148-1.343.066-2.082-.301-2.75-.317-.578-.57-.78-1.14-.93-.31-.073-.34-.073-.634.02-.515.153-.683.29-.933.762-.348.645-.426.98-.422 1.79.004 1.022.097 1.679.308 2.187.094.226.176.441.176.476 0 .027-.043.152-.097.27-.075.164-.094.32-.094.672-.004.527.086.464-.832.55-1.598.149-3.422.54-5.106 1.09-1.812.598-4.02 1.66-5.582 2.684l-.11.074.157.227.192.273c.015.023.32-.14.68-.36 2.507-1.542 5.667-2.69 8.577-3.124a32.725 32.725 0 0 1 1.957-.223c.11 0 .11-.004.11-.762v-.765h.355l-.031 2.253c-.012 1.02-.023 2.04-.031 3.055v.801h-.34v.855c0 .657.02.899.074 1.036.063.148.063.199.012.289-.082.164-.07.765.023.957.074.14.074.172.012.328-.043.097-.074.332-.074.523v.348h-.14c-.216 0-1.24.18-1.802.324-.754.188-1.84.563-2.53.879-.731.332-1.606.816-1.606.89a.18.18 0 0 0 .058.11c.04.04.035.102-.031.234-.215.465-.121.668.324.704.238.02.27.035.399.23l.14.207.832-.426c1.403-.718 2.453-1.054 4.223-1.355.133-.02.133-.02.14.285l.004.309.04-.223c.023-.125.043-.32.046-.442.004-.183.032-.246.22-.453.144-.156.218-.28.218-.363 0-.133-.184-.344-.344-.394-.082-.028-.09-.082-.09-.497v-.464h.34v.363c0 .336.008.363.121.426.168.09.317.343.317.535 0 .191-.141.48-.309.637-.105.101-.125.175-.156.558-.035.426-.04.438-.153.438-.16 0-.125.093.082.234.243.168.27.285.106.445-.305.293-.309.309-.297 1.465.004 1.012 0 1.07-.094 1.172-.265.285-.242.957.051 1.29.09.108.129.19.102.23-.024.039-.051.726-.063 1.539l-.023 1.468-.196.07c-.187.063-.199.063-.277-.046-.043-.059-.117-.153-.156-.211-.043-.05.066.223.242.617.18.395.352.809.387.926.078.265.308.625.527.844.149.148.176.16.207.086.055-.145-.031-.59-.18-.918-.12-.278-.164-.493-.312-1.676-.121-1.012-.148-1.363-.106-1.39.06-.04.274-.052.274-.016l.172 1.343c.125 1.032.191 1.38.281 1.59.133.305.23.711.23.965v.172h.254c.137 0 .301.012.36.027.097.024.101.016.078-.312-.024-.348.07-.809.21-1.032.036-.054.11-.515.173-1.02l.105-.91.137.028.14.027v-.988c0-.55-.019-1.047-.046-1.12-.043-.11-.032-.153.07-.278.066-.082.156-.262.2-.41.081-.301.05-.516-.134-.817-.101-.16-.105-.219-.093-1.215.011-1.047.011-1.047-.114-1.265-.07-.121-.168-.235-.218-.25-.2-.063-.157-.332.066-.39.066-.017.18-.114.246-.216.098-.144.121-.238.121-.496v-.316l.387.031c1.223.094 2.988.633 4.344 1.32l.523.266-.152.219c-.137.203-.137.207-.02.074.074-.082.196-.215.266-.3a.488.488 0 0 1 .328-.18c.242-.032.45-.13.52-.243.039-.066.03-.156-.04-.351l-.086-.266.235-.324c.129-.18.258-.324.277-.328.024 0 .094.039.153.09l.117.085-.2.262c-.19.254-.195.258-.132.477.129.48-.121.82-.692.926a.538.538 0 0 0-.312.19c-.367.45-.418.493-.473.435-.074-.075-.18-.067-.18.02.016.081.043.167.079.245.129.27.046.402-.266.43a1.052 1.052 0 0 0-.36.101c-.109.075-1.015 1.301-1.19 1.61-.052.086-.126.152-.18.152-.06 0-.204.067-.32.14-.282.18-.49.575-.49.942 0 .184-.019.258-.081.29-.05.027-.352.41-.668.85-.316.446-.695.97-.84 1.165l-.258.355-.195-.082c-.106-.043-.203-.07-.215-.058-.012.011-.043.261-.074.562-.047.406-.09.594-.184.746-.125.23-.191.676-.133.977l.032.18.11-.106c.151-.14.355-.57.437-.922.039-.176.285-.703.632-1.375.696-1.332.664-1.281.813-1.199.066.031.125.066.133.07.008.012-.254.547-.59 1.192-.379.73-.645 1.293-.692 1.488-.09.367-.25.715-.437.934l-.125.156.254.242c.144.137.273.246.285.246.016 0 .086-.101.156-.234zm19.188-6.743c.625-.195.726-.242.691-.312-.101-.219-.199-.441-.297-.664-1.3-3.082-3.129-5.692-5.465-7.805-.746-.68-1.039-.914-1.078-.87-.015.015-.238.32-.5.675l-.472.648.492.43c.594.52 1.71 1.68 2.226 2.3a24.338 24.338 0 0 1 2.239 3.243c.273.48.89 1.734 1.11 2.25.12.285.183.379.241.363zm1.523-.484c.559-.187.614-.215.324-.156-.023.004-.148-.246-.28-.559a24.82 24.82 0 0 0-5.216-7.789c-.703-.719-1.726-1.633-1.793-1.605-.027.008-.144.148-.261.316l-.215.3.597.509a22.136 22.136 0 0 1 5.555 7.308c.36.742.75 1.672.75 1.754 0 .028-.047.067-.11.09-.284.117.06.031.65-.168zm-35.992-7.086c0-.015-.035-.05-.082-.086-.078-.066-.082-.062-.02.016.063.086.102.11.102.07zm2.672-2.742a21.291 21.291 0 0 1 8.52-2.883l.761-.09.031-.543c.016-.3.028-.707.028-.906.004-.426.117-.398-1.133-.258a22.89 22.89 0 0 0-7.64 2.266c-.676.336-2.196 1.2-2.305 1.308-.02.02 1.027 1.497 1.062 1.497.016 0 .32-.176.676-.391zm22.766-.453c.253-.356.468-.676.476-.703.031-.133-2.305-1.39-3.516-1.895a23.324 23.324 0 0 0-5.167-1.476c-.672-.11-1.872-.25-2.141-.254h-.156v.883c0 .988-.016.94.363.94.383 0 1.781.2 2.644.38 2.254.457 4.657 1.387 6.524 2.52.226.136.437.25.46.253.028 0 .255-.293.513-.648zm.914-1.281c.101-.145.199-.286.218-.317.047-.078-.922-.66-2.082-1.25a24.108 24.108 0 0 0-7.32-2.336c-.477-.066-1.945-.226-2.148-.226-.079 0-.086.043-.086.37 0 .352.004.368.105.368.461 0 1.91.187 2.91.379 2.664.5 5.7 1.68 7.805 3.039.187.121.355.223.371.223.023.003.121-.11.227-.25zm0 0"/></svg>