<svg xmlns="http://www.w3.org/2000/svg" width="64" height="64"><path d="M32 1.344C15.066 1.344 1.344 15.067 1.344 32S15.066 62.656 32 62.656c16.933 0 30.656-13.723 30.656-30.656S48.933 1.344 32 1.344zm7.75 1.937c3.831.038 9.47 3.839 13.156 8.094 4.38 5.058 8.453 10.094 5.375 14.688-4.034 6.019-22.925 8.022-19.062 6.593 7.396-2.733 9.133-6.45 9.843-7.093-.57.466-18.254 9.523-9.812 3.937 5.484-3.628 8.77-9.585 10.219-12.75-3.062 4.611-15.465 11.07-13.532 9.25 2.102-1.979 6.949-17.82 5.094-18.563-1.855-.741-6.406 16.25-6.406 16.25s-.632-17.479 2.813-19.78c.645-.433 1.428-.635 2.312-.626zM22.406 4.812c1.198-.016 2.352.324 3.5 1.094C31.926 9.941 33.93 28.8 32.5 24.938c-2.734-7.397-6.451-9.134-7.094-9.844.467.57 9.524 18.254 3.938 9.812-3.628-5.484-9.585-8.77-12.75-10.218 4.612 3.062 11.07 15.464 9.25 13.53-1.979-2.102-17.82-6.947-18.563-5.093-.742 1.855 16.25 6.406 16.25 6.406S6.053 30.164 3.75 26.72c-2.302-3.444 2.23-10.931 7.469-15.469 3.792-3.285 7.595-6.388 11.187-6.438zM24 31.22c1.29-.082 1.747.08.781.437-7.397 2.734-9.134 6.452-9.843 7.094.57-.465 18.254-9.523 9.812-3.938-5.484 3.629-8.77 9.585-10.219 12.75 3.062-4.611 15.465-11.07 13.531-9.25-2.102 1.979-6.948 17.82-5.093 18.563 1.855.742 6.406-16.25 6.406-16.25s.632 17.478-2.813 19.781c-3.445 2.302-10.93-2.23-15.468-7.468C6.714 47.88 2.64 42.843 5.719 38.25c3.026-4.515 14.41-6.787 18.281-7.031zm19.25 3.531c5.02-.02 15.273.26 17 2.844 2.302 3.445-2.23 10.932-7.469 15.468-5.057 4.38-10.094 8.422-14.687 5.344-6.02-4.034-8.022-22.894-6.594-19.031 2.734 7.397 6.452 9.135 7.094 9.844-.466-.57-9.524-18.256-3.938-9.813 3.628 5.483 9.585 8.77 12.75 10.219-4.61-3.06-11.07-15.465-9.25-13.531 1.979 2.102 17.82 6.948 18.563 5.093.742-1.854-16.25-6.406-16.25-6.406s1.108-.024 2.781-.031z" fill="#231f20"/></svg>