<svg xmlns="http://www.w3.org/2000/svg" width="64pt" height="64pt" viewBox="0 0 64 64"><path d="M30.203 64.266c-9.207-.559-17.793-5.106-23.496-12.454-6.957-8.957-8.645-21.101-4.394-31.667C4.8 13.953 9.245 8.617 14.921 4.992 19.168 2.285 23.809.688 29.109.117c1.286-.14 4.614-.16 5.86-.035 6.902.684 12.691 3.078 17.93 7.41.988.82 3.171 2.996 3.996 3.992 6.16 7.422 8.687 16.946 7.003 26.395-.847 4.762-2.894 9.492-5.816 13.422-1.816 2.441-4.273 4.898-6.7 6.691a32.201 32.201 0 0 1-21.175 6.274zm2.875-.625c.188-.102.434-.23.54-.29.519-.285 1.175-.562 1.331-.562.121 0 .23-.07.371-.242.223-.274.172-.324-.222-.219a.702.702 0 0 1-.43-.004.531.531 0 0 0-.402.004.71.71 0 0 1-.442.008c-.277-.078-.355-.047-.433.168-.082.219-.668.383-1.012.289a2.12 2.12 0 0 0-.418-.066c-.25 0-.57-.309-.824-.79-.184-.343-.219-.472-.223-.87-.008-.258-.027-.485-.055-.508-.05-.055-.297.238-.3.363 0 .055-.059.191-.13.305-.14.234-.116.347.15.773.081.133.23.457.323.719.196.539.434.89.641.941.168.04.86.14 1.05.153.075.003.294-.07.485-.172zm-.414-1.371c.184-.028.395-.09.469-.145.133-.09.12-.102-.266-.246-.34-.133-.433-.2-.554-.41-.31-.555-.243-1.094.277-2.239.156-.347.289-.722.289-.824 0-.101.066-.336.148-.527.114-.258.188-.34.301-.352.18-.011.254-.117.254-.347 0-.242-.11-.285-.312-.14-.23.175-.454.593-.563 1.062-.05.222-.187.554-.3.75-.114.187-.239.398-.278.468a1.53 1.53 0 0 1-.176.235c-.437.449-.707 1.039-.715 1.558-.004.383.02.457.235.782.238.359.535.542.757.46.055-.02.25-.054.434-.085zm4.172-.043a.684.684 0 0 0 .133-.2c.035-.086.21-.222.414-.32.336-.168.351-.187.39-.46.036-.337.008-.282.622-1.145.257-.364.468-.688.468-.723 0-.07-.593-.387-.726-.387-.063 0-.082.106-.063.434l.016.433-.094-.25c-.176-.441-.414-.605-.32-.214.066.296.047.562-.059.683a.866.866 0 0 0-.125.352c-.043.277-.363.68-.637.793-.16.07-.18.066-.18-.032.005-.097.09-.359.223-.668.036-.086.016-.113-.07-.113-.148 0-.45.262-.664.586-.082.117-.18.227-.293.316-.144.094-.625.18-1.223.22-.789.054-.836.066-.859.167-.047.254.277.309 1.504.25.242-.011.445.02.543.074.09.051.32.122.516.164l.386.079c.02.004.063-.016.098-.04zm-14.176-.278c.52-.078 1.067-.125 1.414-.113l.57.02.333-.356.644-.695c.168-.18.547-.492.844-.688.625-.414.96-.758 1.14-1.176.07-.16.207-.382.31-.496.257-.297.581-1.39.585-1.984v-.309l-.207.145c-.277.191-.305.238-.309.5 0 .176-.023.207-.109.168-.063-.02-.195 0-.305.055a9.086 9.086 0 0 1-.773.273c-.41.129-.621.234-.738.363-.106.117-.293.219-.528.285-.351.098-.37.118-.445.375-.043.153-.059.332-.04.395.052.164-.019.254-.233.305-.223.054-.31.257-.258.609.054.438-.145.43-.746-.031-.34-.258-.512-.27-.715-.055-.086.09-.2.16-.258.16-.2-.004-.68-.265-.84-.457-.16-.187-.164-.195-.457-.117-.379.102-.48.059-.531-.223-.055-.28-.188-.363-.453-.289-.332.094-.492.067-.828-.144-.293-.196-.336-.2-.774-.168-.363.035-.55.011-.898-.094-.262-.074-.508-.113-.602-.086-.164.04-.168.055-.133.363.02.18.09.418.157.528.113.199.187.23.77.34.128.027.148.066.148.398 0 .473.14.707.738 1.223.836.726 1.61 1.105 2.27 1.109.23 0 .792-.059 1.257-.133zm10.793-.41c0-.043-.082-.14-.187-.219-.114-.086-.239-.273-.32-.492-.157-.43-.165-.55-.04-.55.176 0 .559-.407.73-.766.126-.239.282-.465.462-.66.16-.168.465-.497.675-.73.266-.286.563-.54.883-.759.34-.222.477-.351.438-.398-.098-.094-1.07.441-1.43.793-.746.738-.871.847-.941.847-.043 0-.192.075-.328.16-.278.172-.602.77-.81 1.473-.179.617.009 1.114.5 1.325.282.12.368.117.368-.024zm2.05-.605l.157-.204-.25-.007a4.956 4.956 0 0 0-.539.004c-.285.02-.289.015-.176-.106.106-.121.106-.148.012-.367a1.013 1.013 0 0 1-.062-.445c.117-.786.12-.75-.098-.75h-.2l.032.882.039.957c0 .043.082.11.18.149.097.039.25.113.336.164.191.11.316.05.57-.277zm2.95.078c.195-.082.383-.098.871-.07.344.019.672.058.735.097.082.047.16.004.355-.21l.25-.274v-.606c0-.71-.059-.832-.453-.953l-.273-.078-.38.375c-.21.207-.456.512-.538.68-.145.277-.149.312-.055.351.101.035.097.047-.008.125a.567.567 0 0 1-.258.09c-.125 0-.332.203-.504.5-.062.102-.043.102.258-.027zm-8.281-.164c0-.075-.074-.192-.164-.266-.121-.094-.16-.172-.14-.277.023-.106-.013-.18-.114-.246-.082-.051-.238-.25-.348-.446-.164-.289-.25-.367-.496-.465-.57-.214-.648.079-.21.797.136.23.25.477.25.535 0 .16.218.262.464.215.223-.035.629.157.629.293 0 .04.031.055.066.028.032-.02.063-.098.063-.168zm.465-.633c.27-.223.687-.828 1.086-1.574.152-.286.328-.586.39-.672l.117-.153.012.22c.004.214.008.214.059-.048.094-.488.328-.883.8-1.347.395-.383.618-.676.516-.676-.015 0-.152.082-.304.18-.532.34-1.504 1.488-1.973 2.332-.516.93-.875 1.53-1.004 1.668-.102.117-.094.265.016.265.03 0 .156-.09.285-.195zm5.36.039c.35-.149.312-.207-.134-.18-.336.024-.414.008-.414-.07 0-.113.418-.379.531-.336.047.02.125.004.176-.031.149-.094-.043-.278-.258-.242-.128.015-.168 0-.144-.063.043-.113-.05-.105-.227.016-.18.129-.355.46-.308.586.027.074.011.078-.094.023-.172-.098-.164.047.016.234.164.176.515.2.855.063zm1.179-.496c.18.094.207.031.14-.317-.07-.386-.375-.668-.859-.773-.2-.047-.36-.105-.36-.129 0-.031.192-.164.434-.3.547-.317.758-.305 1.242.058.305.226.688.41.75.351.012-.011-.109-.144-.265-.285-.262-.242-.281-.285-.25-.515.031-.25.031-.25-.313-.399-.582-.254-.863-.246-1.37.024-.567.304-1.063.68-1.317.98-.106.133-.188.25-.176.262.016.012.191-.047.395-.14.203-.09.382-.157.39-.145.012.011-.12.175-.297.367-.347.379-.425.574-.175.45.078-.04.234-.173.343-.298l.2-.226.445.215c.242.12.437.25.43.289-.008.046.039.097.109.117.07.023.16.144.2.27.046.148.093.202.124.148.04-.055.082-.055.18-.004zm-6.852-.324c.094-.18.172-.336.172-.356 0-.012-.11-.008-.246.016l-.238.043.336-.344c.187-.195.656-.664 1.035-1.055.387-.39.746-.797.8-.906.06-.105.176-.258.27-.348.09-.086.164-.207.164-.273 0-.063.024-.11.051-.102.07.028.398-.246.398-.332 0-.035-.054-.07-.12-.07-.153 0-.458.133-.458.195 0 .032-.105.07-.238.094-.516.098-1.902 1.04-2.21 1.508a3.973 3.973 0 0 0-.325.644c-.16.434-.238 1.04-.13 1.04.04 0 .075.027.075.062 0 .11.328.512.414.512.043 0 .156-.145.25-.325zm9.395-.852l.375-.34-.082-.43c-.063-.351-.059-.46.008-.59.05-.09.078-.171.062-.183a7.48 7.48 0 0 0-.352-.195 5.662 5.662 0 0 1-.69-.489c-.294-.25-.435-.328-.677-.359a4.126 4.126 0 0 1-.496-.098c-.105-.03-.398-.05-.648-.05a2.473 2.473 0 0 1-.707-.09c-.344-.13-.871-.082-.914.082-.016.058-.106.144-.2.191l-.171.074.18.157c.1.09.222.152.35.191.098.02.333.106.528.188.469.203.688.261 1.41.382.34.059.723.168.867.247.254.14.27.164.27.437a.983.983 0 0 1-.086.43c-.11.172-.016.37.2.425a.397.397 0 0 1 .226.204c.039.09.098.16.125.156.027 0 .215-.152.422-.34zm-15.637-.324c.117-.051.32-.196.457-.328l.242-.246-.242-.079c-.23-.082-.262-.074-.434.067-.117.094-.25.16-.394.195-.332.063-.926-.074-1.43-.328l-.457-.23-.457.308.59.305c.324.16.703.324.844.355.398.09 1.043.082 1.281-.02zm-3.906-.524a.764.764 0 0 0 .308-.28c.125-.247.274-.329.618-.329h.265l-.242-.273c-.324-.364-.828-.622-1.367-.688a3.263 3.263 0 0 1-.727-.191c-.226-.102-.625-.168-1.644-.266a33.96 33.96 0 0 0-1.68-.129c-.379 0-1.312-.27-1.578-.46-.277-.196-.332-.348-.203-.56.097-.167.097-.19 0-.386-.106-.2-.106-.211.027-.317.098-.082.137-.187.137-.359 0-.3-.14-.469-.473-.559-.14-.039-.3-.128-.363-.203-.371-.457-.371-.46-.54-.414-.093.02-.374.282-.66.606l-.5.562.028.352c.012.195.11.601.207.906l.188.559-.149.297c-.18.359-.152.406.352.59.586.21 1.125.515 1.61.898.284.219.558.426.608.457.11.066 1.403.168 2.114.168.254 0 .789-.004 1.187-.008.508-.016.824.016 1.047.082.363.117 1.086.09 1.43-.055zm5.433-.687c.133-.043.262-.11.387-.188.09-.062.442-.214.777-.336.34-.12.743-.304.899-.41.113-.078.23-.152.355-.218.114-.04.938-.786 1.66-1.504.672-.668.942-1.075 1.204-1.82.18-.528.375-1.516.375-1.915 0-.398-.18-.863-.375-.984a.736.736 0 0 1-.227-.285c-.117-.29-.219-.36-.555-.383-.28-.02-.293-.016-.308.172-.043.515-.094.629-.446 1.011-.203.215-.332.407-.296.418.039.016.246-.035.46-.109.215-.07.485-.133.598-.133h.207l-.52.532c-.296.304-.593.683-.695.89-.093.192-.382.567-.64.836a8.378 8.378 0 0 0-.727.867 5.162 5.162 0 0 1-.562.676c-.207.195-.387.461-.559.836-.14.305-.351.648-.473.773-.144.149-.222.301-.234.45-.012.125-.05.23-.086.23-.148.012-.531.23-.773.442l-.258.226h.297c.16.004.394-.027.515-.074zm-1.101-.313c.14-.105.355-.379.484-.613.13-.23.356-.57.504-.754.899-1.105 1.762-2.406 2.008-3.039.367-.918.73-1.719.926-2.02.101-.163.258-.464.351-.667.09-.211.317-.536.512-.743.383-.402.574-.824.418-.921-.14-.094-.203-.047-.688.492a4.475 4.475 0 0 0-.691.992c-.105.23-.223.45-.355.66-.141.195-.61 1.234-.895 1.973-.148.386-.668 1.297-.742 1.297-.012 0-.004-.098.012-.215.03-.18-.036-.676-.192-1.426-.015-.07-.031.016-.035.191-.012.426-.426 2.18-.594 2.508-.074.145-.285.461-.476.707-.395.508-.871 1.387-.871 1.621 0 .2.027.196.324-.043zm7.055-.922c.015-.039.109-.082.203-.09.238-.023.566-.124.93-.292.226-.106.32-.196.398-.383.054-.145.156-.262.258-.3.12-.048.168-.114.168-.227 0-.208.128-.208.324 0 .16.171.316.203.43.085.101-.097.449.04.538.215.055.098.11.114.258.086.157-.039.2-.02.246.114.067.171.383.257.891.242.148-.004.355.035.461.09.277.14.586.132.586-.016a.354.354 0 0 0-.32-.344c-.145-.023-.168-.062-.196-.332-.035-.258-.09-.355-.36-.633a3.209 3.209 0 0 0-.605-.492c-.277-.168-.328-.176-1.289-.176l-1-.004-.363.336c-.21.192-.441.364-.687.5-.176.094-.375.239-.438.332-.094.125-.187.247-.285.372-.164.203-.445.855-.445 1.046 0 .075.023.079.132.024.075-.043.149-.106.165-.153zm3.328-.054c.097-.047.175-.098.175-.113 0-.067-.558-.38-.816-.454-.441-.132-.934.036-.836.286.023.066.145.09.418.086.277-.004.438.03.598.128.265.168.25.164.46.067zm-14.63-.82c.231-.172.61-.426.852-.579.336-.21.473-.347.63-.617.109-.191.37-.504.585-.691a3.41 3.41 0 0 0 .578-.672c.149-.262.242-.352.414-.395.235-.066.989-.593 1.227-.859.07-.078.23-.426.344-.762.113-.332.23-.656.265-.718.11-.204.2-.961.172-1.391-.031-.527-.39-1.32-.762-1.691-.265-.266-.757-.547-1.027-.583-.133-.02-.16.004-.18.172-.015.172.012.211.27.332.476.23.73.508 1.008 1.086.14.297.273.66.297.801l.043.254h-.227c-.2 0-.281.063-.691.496-.383.41-.532.64-.872 1.34-.28.586-.492.926-.671 1.102a3.334 3.334 0 0 0-.489.656c-.597 1.086-1.617 2.203-2.578 2.828-.262.172-.476.324-.476.344 0 .023.066.07.144.105.168.082.45-.059 1.145-.559zm23.985.046c.254-.257.55-.543.66-.636.188-.157.192-.176.121-.383-.117-.352-.101-.797.043-.95.106-.12.106-.14.02-.175-.153-.059-.293.043-.418.297-.09.172-.16.226-.32.242-.149.016-.211.055-.211.133 0 .144-.145.457-.211.46-.032 0-.164.118-.297.262-.207.227-.254.328-.285.625-.078.762.226.801.898.125zm-19.738-.156c.418-.351.898-1.394.902-1.965.004-.437.336-1.59.504-1.722a1.09 1.09 0 0 0 .223-.297c.054-.106.144-.239.203-.282.125-.105.129-.199.004-.199-.145 0-.121-.047.195-.437.16-.196.328-.48.367-.637.043-.152.18-.402.305-.562.332-.395.484-.977.48-1.836 0-.578-.02-.723-.152-.985a1.503 1.503 0 0 0-.36-.468 1.181 1.181 0 0 1-.312-.407c-.125-.312-.258-.418-.465-.37a.343.343 0 0 1-.3-.056c-.2-.14-.36-.12-.692.075-.215.11-.445.18-.683.215-.278.035-.52.12-.817.296-.238.141-.43.266-.43.282-.007.066.606.195 1.028.222.625.04.726.098 1.004.59.414.738.43.836.347 1.86-.086 1.062-.191 1.562-.453 2.16-.101.238-.191.484-.191.543 0 .054-.063.242-.137.41-.117.246-.148.433-.16 1.097-.012.657-.04.868-.156 1.165-.106.27-.176.363-.254.343-.227-.062-.434.094-.54.407-.128.378-.128.464 0 .609.153.168.302.152.54-.05zm-6.45-.16c.364-.086 1.63-.629 2.184-.938l.406-.222.145-.48c.121-.415.168-.5.363-.614.328-.195.61-.559.36-.465-.055.024-.141.004-.192-.035-.105-.09-.152-.07-.84.356-.25.152-.558.32-.687.378l-.235.098.258-.434a6.21 6.21 0 0 1 .528-.73c.355-.402.554-.738.554-.941 0-.157-.004-.16-.113-.059-.07.059-.156.105-.195.105-.043 0-.219.184-.403.403-.183.219-.386.469-.457.547l-.117.144-.273-.12a63.778 63.778 0 0 0-.758-.333 10.24 10.24 0 0 1-.68-.305c-.215-.105-.5-.507-.57-.8-.047-.211-.164-.227-.332-.051-.059.074-.133.105-.152.078-.059-.09-.45-.145-.489-.074-.058.094.305.832.543 1.11.305.343.782.55 1.469.636.324.039.625.098.676.129.101.07-.086.238-.82.726-.29.188-.555.391-.606.45a.32.32 0 0 1-.219.101.422.422 0 0 0-.242.102c-.102.09-.144.078-.52-.106a20.76 20.76 0 0 1-.765-.414 2.049 2.049 0 0 0-.797-.281c-.25-.043-.46-.063-.473-.05-.02.026.536.448.836.64.153.09.168.136.114.234-.118.223-.075.676.07.813.168.148 1.394.468 1.82.472.168.004.446-.027.61-.07zm25.106-.578a8.69 8.69 0 0 1 .352-.395c.097-.11.172-.261.172-.343 0-.13-.032-.157-.196-.157a1.94 1.94 0 0 1-.453-.07c-.137-.043-.266-.059-.289-.04-.02.02.016.126.07.243.063.113.094.219.078.234-.015.016-.21-.09-.433-.23-.219-.145-.45-.266-.504-.266-.059 0-.281-.101-.492-.222-.278-.16-.551-.309-.832-.453a10.46 10.46 0 0 1-.614-.356 1.65 1.65 0 0 0-.48-.191 1.91 1.91 0 0 1-.531-.203c-.121-.07-.258-.114-.309-.094-.055.02-.11 0-.144-.047-.086-.137-.52-.375-.563-.3-.055.09.133.437.293.534.07.047.234.246.356.453.125.204.246.368.273.368.027 0 .187.148.363.32.375.379 1.13.973 1.434 1.121.36.184.926.285 1.613.293l.668.004zm-4.336-.867c.098-.04.098-.051-.004-.16-.062-.07-.156-.122-.21-.122-.063 0-.184-.164-.298-.402a3.143 3.143 0 0 0-.43-.637 2.39 2.39 0 0 1-.308-.375c-.055-.097-.137-.132-.297-.132-.25 0-.48-.098-.562-.239-.043-.066-.121-.082-.278-.054-.195.039-.214.027-.214-.106a.711.711 0 0 1 .093-.309c.133-.23.117-.433-.035-.515-.16-.09-.16-.274.004-.621.106-.211.121-.305.066-.403-.101-.191-.082-.316.067-.359.113-.035.125-.086.101-.473-.02-.238-.078-.523-.136-.632-.078-.16-.094-.274-.047-.551.05-.348-.008-.696-.121-.696a.731.731 0 0 0-.223.106c-.129.082-.16.156-.16.379 0 .273-.004.277-.285.344-.336.086-.512.285-.82.941-.313.672-.32 1.059-.032 1.973.125.402.254.847.281.992.047.226.102.289.461.516.227.14.637.46.914.714.32.297.586.477.72.512.116.023.3.086.405.145.274.144 1.13.246 1.348.164zm5.465-.38c.031-.07-.078-.175-.355-.359-.22-.136-.438-.254-.489-.254-.047 0-.3-.07-.55-.152-.32-.101-.649-.191-.981-.266a14.73 14.73 0 0 1-.86-.21l-.347-.102.219-.082c.207-.07.195-.078-.274-.082a3.095 3.095 0 0 1-1.765-.559c-.391-.265-.801-.43-.801-.316 0 .05.578.613.629.613.015 0 .437.2.945.446 1.094.53 1.156.554 3.703 1.167.301.07.578.16.61.192.093.094.277.074.316-.035zm-32.242-.706c.004-.133.61-.985.789-1.117.2-.141.258-.25.437-.86.13-.433.094-.566-.136-.566-.149 0-.16-.012-.09-.102.148-.172.562-.351.824-.351.293 0 .352-.055.68-.66.207-.387.285-.626.207-.626-.016 0-.254.133-.532.301l-.503.305-.95.059c-.902.062-1.554.023-1.863-.114-.086-.035-.129 0-.203.168-.09.168-.207.32-.356.446-.277.253-.382.558-.296.878.023.102.062.532.093.957.032.43.086.852.133.938.133.262.336.437.5.437.184 0 .86.188.942.266.054.05.324-.234.324-.36zm33.957-.024a7.18 7.18 0 0 1 .84-.73c.851-.621.984-.887.8-1.586-.054-.219-.082-.43-.058-.465.097-.156-.14-.543-.672-1.078-.91-.926-1.148-1.203-1.32-1.543-.141-.277-.207-.336-.457-.422-.352-.121-.371-.07-.137.395.098.191.14.367.121.472-.02.114.023.27.137.457.097.164.156.352.168.547 0 .293.074.383.351.414.254.028.598.594.645 1.055.015.176.047.426.066.55.055.313-.137.692-.57 1.141-.383.395-1.02.727-1.34.703-.148-.011-.215.012-.23.086-.028.137.343.317.562.278a.6.6 0 0 1 .32.031c.301.121.41.078.774-.305zm-31.293-.12c-.067-.098-.067-.102.008-.036.097.09.425.11.472.035.016-.031-.023-.254-.09-.5-.117-.457-.164-1.062-.078-1.058.032 0 .118.152.2.347.14.32.539.809.668.809.082 0 .058-.41-.043-.813-.098-.367-.051-.804.09-.89.03-.02.038-.203.023-.407-.043-.503.074-.898.348-1.156.125-.12.246-.293.269-.39.04-.13.152-.227.457-.383l.398-.211-.042.402c-.047.344-.13.68-.235 1.016-.27.844-.265.824-.133.668a.998.998 0 0 1 .282-.227c.257-.136.812-.812 1.062-1.297.39-.738.899-1.078 1.606-1.078a.843.843 0 0 0 .363-.113c.156-.082.36-.11.793-.11.535 0 .61-.015.867-.187.227-.152.348-.187.59-.172.3.012.308.008.308-.176 0-.37-.101-.398-1.418-.375-.703.008-1.261.051-1.37.094-.247.102-.977.094-1.188-.012-.11-.058-.52-.105-1.09-.128-.89-.04-.918-.04-1.016.101a.62.62 0 0 0-.093.309c0 .215-.188.379-.711.644-.227.114-.496.293-.594.399-.156.168-.18.238-.18.625 0 .394-.031.492-.355 1.148-.305.617-.414.77-.778 1.09-.628.559-.738.863-.48 1.36.145.288.203.343.656.59.406.226.57.253.434.081zm30.293-.481c.176-.043.367-.18.617-.43.32-.328.367-.406.402-.703.035-.29.02-.356-.113-.516a1.11 1.11 0 0 1-.203-.37c-.047-.184-.336-.606-.418-.606-.023 0-.055.215-.07.48-.02.477-.024.48-.336.801-.2.2-.426.36-.61.418-.382.137-1.379.129-2.148-.004-.352-.055-.711-.086-.883-.059-.348.051-.594.051-.926 0-.199-.035-.258-.078-.312-.23-.055-.164-.094-.184-.34-.184-.61 0-.465.422.223.63.226.066.597.105 1.03.109.684.004 1.302.105 1.458.234.047.04.09.059.09.031 0-.02.148.04.336.121.187.086.414.16.504.16.09 0 .195.036.238.079.172.168.863.191 1.46.039zm-23.238-.184c.023-.031.097-.058.168-.058.148 0 .148-.016.027-.68-.113-.645-.121-.828-.02-.766.051.031.059 0 .028-.11a5.36 5.36 0 0 1-.118-.671c-.058-.379-.12-.582-.261-.79-.215-.316-.54-.542-.703-.491-.059.02-.223-.035-.356-.125a3.648 3.648 0 0 0-.469-.258c-.32-.133-.593-.008-.82.383a4.906 4.906 0 0 1-.433.597c-.239.262-.247.286-.098.243.281-.09.66-.157 1.375-.262.656-.098.707-.098.824.008.27.246.36.5.438 1.246.07.695.187 1.547.23 1.718.027.098.133.106.188.016zm-1.84-.547c.343-.304.504-.726.414-1.062-.07-.27-.067-.27.25-.051.23.164.308.148.308-.055 0-.207-.504-.722-.722-.738-.578-.043-.832.023-1.297.328-.485.324-.664.496-.594.563.023.027.137-.012.25-.078.188-.11.633-.2 1.172-.243.156-.011.2.012.215.133.023.145-.067.242-.528.61-.261.21-.363.226-.316.039.035-.122.02-.13-.148-.09a1.45 1.45 0 0 0-.332.136c-.172.114-.13.254.152.473.2.156.375.168.617.043l.18-.094-.106.157c-.097.152-.097.156.067.156.101 0 .265-.09.422-.227zm17.687.067c.02-.059-.012-.23-.074-.395-.11-.289-.11-.668.004-1.133.035-.136.023-.18-.059-.18-.058 0-.14-.07-.187-.16-.086-.164-.09-.164-.207.208-.133.425-.149 1.152-.032 1.378.188.364.47.504.555.282zm-14.797-.625c.078-.2.07-.22-.129-.383-.113-.094-.218-.16-.23-.149-.074.07-.008.508.086.618.152.164.18.156.273-.086zm21.371-.141c.434-.273.551-.45.582-.875.024-.352.016-.387-.101-.387-.09 0-.156.067-.2.196-.093.265-.277.488-.55.675-.453.309-.484.313-.621.137-.145-.18-.649-.492-.797-.492-.05 0-.191.059-.309.125-.254.156-.394.164-.504.035-.058-.078-.062-.117-.007-.176.113-.113.093-.156-.102-.207a2.035 2.035 0 0 1-.46-.23c-.157-.106-.313-.192-.352-.192-.106 0-.942-.445-1.336-.714a5.095 5.095 0 0 1-.657-.536c-.156-.164-.308-.293-.328-.293-.02 0-.035.067-.035.145 0 .219 1.04 1.219 1.445 1.395.176.078.38.195.453.261.07.067.266.176.426.25.168.07.317.184.336.246.028.067.172.227.328.364.352.293.871.41 1.887.421.594.008.684-.007.902-.148zm-10.902-.117c.098-.27-.055-.64-.5-1.23-.457-.598-.648-.907-.719-1.137-.086-.29-.218-.387-.543-.387-.168 0-.39.031-.5.07-.27.09-.855-.136-1.175-.457l-.243-.238-.039.348c-.023.191-.023.379-.004.41.02.035.149.12.29.191.285.145.468.39.425.559-.125.46-.125.468.106.468.238 0 .683.356.683.547 0 .063.086.188.184.282.101.093.21.222.242.28.094.165 1.09.497 1.442.481.253-.007.296-.035.351-.187zm4.602-1.793c.043-.145.062-.34.039-.434-.02-.097 0-.367.05-.593.063-.31.07-.57.028-1.028a25.676 25.676 0 0 1-.07-1.289c-.008-.562.011-.71.109-.86.094-.148.152-.171.281-.14a.305.305 0 0 0 .281-.058c.07-.07.125-.083.153-.04.058.094.379.086.476-.007a.446.446 0 0 0 .075-.254c0-.102.07-.25.16-.348.199-.215.203-.262.015-.371L39 42.457c-.184-.11-.39-.203-.453-.203-.067 0-.285.09-.488.2-.274.148-.434.19-.633.175l-.262-.02-.082.414c-.09.34-.207.672-.352.989-.257.562-.265.59-.195.898.04.172.074.465.074.649.008.183.051.449.106.593.055.137.12.559.144.934.043.703.211 1.207.387 1.168.152-.027.32.055.363.191.059.176.184.059.282-.273zm4.32.191c.59-.195.969-.433.969-.617 0-.043-.016-.086-.032-.086a.4.4 0 0 1-.117-.031c-.047-.02-.199.05-.336.16-.148.113-.32.195-.43.195-.105 0-.292.043-.417.094-.125.055-.258.082-.29.063-.03-.02-.113-.016-.18.004-.112.035-.112.05-.026.226.054.106.128.191.171.191.04 0 .352-.09.688-.199zm2.695-.11c.043-.077.043-.202-.004-.37a4.658 4.658 0 0 1-.101-.528c-.016-.148-.051-.27-.078-.27-.11 0-.336-.67-.325-.96.02-.668-.003-1.227-.062-1.387-.05-.133-.106-.164-.277-.164-.18 0-.266-.058-.52-.355l-.309-.352-.43.035c-.402.032-.491.012-1.44-.32l-1.016-.355-.098.144c-.09.14-.219.941-.144.941.015 0 .144-.042.28-.101.31-.129.669-.219.669-.164 0 .027-.106.105-.23.187-.216.145-.407.426-.333.5.016.02.14-.035.27-.125.226-.152.285-.164.937-.144.516.015.735.047.864.129.074.05.16.093.257.11.114 0 .426.386.38.468-.024.035-.266.043-.579.016l-.543-.043.106.164c.136.207.418.375.855.52.445.144.738.401.844.753.047.148.14.344.203.43a.677.677 0 0 1 .121.386c0 .239.203.653.328.653.035 0 .047.066.024.156-.04.145-.02.164.125.164.093 0 .191-.055.226-.117zm-4.148-.276a1.44 1.44 0 0 0-.418-.297c-.235-.102-.547-.36-.649-.547-.066-.117.262.008 1.125.437.442.22.621.27.621.168 0-.09-.273-.312-.562-.453-.297-.152-.285-.07-.14-.922.038-.254.1-.425.144-.418.043.004.082-.058.094-.14.011-.082.105-.2.21-.258.243-.133.294-.266.11-.266-.11 0-.121-.02-.063-.078a.347.347 0 0 0 .083-.2c0-.097-.036-.112-.149-.081a2.49 2.49 0 0 1-.23.058c-.141.032-.477.38-.567.602-.05.117-.086.438-.086.738v.528l-.5-.477c-.367-.351-.496-.516-.484-.617.012-.078-.008-.16-.04-.18-.073-.043.005-.36.196-.8.14-.32.203-.942.086-.844-.039.035-.156.234-.258.449-.18.367-.195.387-.422.387-.359 0-.414.109-.414.867v.652l.418.453c.52.57 1.035.989 1.524 1.239.492.257.613.257.37 0zm-11.903-.399c.184-.156.282-.496.286-1.008.004-.16.047-.375.097-.476.117-.219.11-.235-.484-1.07-.27-.383-.5-.79-.695-1.208-.332-.765-.786-1.449-1.09-1.636-.215-.133-.352-.153-1.364-.196l-1.128-.05-.387.183c-.309.16-.598.352-.867.567a6.407 6.407 0 0 1-.965.632 5.18 5.18 0 0 0-.723.43c-.3.238-.844.48-1.195.54-.32.046-.457.179-.766.73l-.234.41.36-.031c.257-.02.433-.079.62-.211.203-.137.301-.168.47-.137.636.121.667.117.948-.02.242-.125.332-.136.82-.097.61.05.79-.032.79-.364 0-.25.117-.343.703-.566.543-.21.785-.25 1.023-.176.203.07.59.114.785.098.57-.05.621-.035 1.032.363.71.688 1.336 1.77 1.457 2.528.02.117 0 .34-.04.496-.046.152-.062.312-.038.347.074.121.406.078.585-.078zm14.676-.078c.133.031.157.008.196-.184.07-.398.035-.441-.543-.71-.125-.06-.23-.094-.239-.086-.027.027.114.578.223.867.078.207.117.246.156.168.035-.063.11-.086.211-.055zm-1.066-.137c.07-.093.133-.215.133-.265 0-.23-.168-.614-.371-.852-.247-.285-.414-.351-.247-.09.098.145.293.688.293.817.004.109-.218.03-.449-.164-.234-.192-.36-.375-.187-.27.039.027.023-.031-.04-.125-.136-.21-.206-.21-.304-.008a.352.352 0 0 0 .004.324c.055.118.055.157.008.122-.047-.028-.063 0-.051.078.059.289.746.527.945.328.07-.063.074-.043.043.097-.058.227.047.23.223.008zm8.422-1.203c.617-.312 1.011-.445 1.793-.59.672-.125.933-.238 1.265-.543.149-.132.387-.304.528-.379.402-.199 1.265-1.27 1.414-1.746.043-.125.031-.144-.059-.113a.853.853 0 0 1-.254.047c-.101 0-.203.082-.328.266-.152.23-.184.253-.238.16-.031-.063-.09-.09-.121-.075-.032.024-.407.008-.828-.03-.68-.063-.797-.06-.973.03-.156.083-.293.094-.602.063-.437-.047-.468-.027-.742.52-.09.167-.133.19-.34.167-.257-.019-.382.102-.472.465-.09.364-.371.25-.621-.25a2.23 2.23 0 0 0-.23-.367c-.106-.125-.372-.156-.434-.05-.083.136-.356.058-.57-.165-.2-.207-.278-.34-.388-.687-.027-.078-.105-.113-.265-.113-.402 0-.496-.09-.473-.465.028-.364.02-.367-.48-.47a.682.682 0 0 1-.305-.175c-.473-.547-.566-.62-.93-.726-.207-.063-.449-.184-.539-.274-.238-.238-.59-.469-.715-.469-.21 0-.406.758-.265 1.024.043.074.187.195.32.265.317.16.348.243.192.579-.172.39-.149.652.101 1.23.438 1.02 1.137 1.86 1.758 2.129.168.07.738.246 1.262.383.543.148 1.101.34 1.289.449.18.102.41.188.508.188.097 0 .433-.126.742-.278zm-40.125-1.238c0-.41-.016-.48-.188-.692-.105-.125-.242-.246-.297-.265-.117-.043-.254-.3-.254-.485 0-.093-.05-.128-.21-.14-.168-.016-.231-.07-.34-.281-.098-.188-.18-.266-.305-.278-.188-.023-.227.059-.086.176.16.129.184.496.063.848l-.118.324.196.164c.105.086.414.371.683.64.414.407.524.485.676.462.18-.02.18-.024.18-.473zm2.015-.77c.52-.12.914-.328 1.399-.715.554-.453 1.265-1.183 1.418-1.457.066-.136.16-.242.207-.242.113 0 .41-.488.363-.601-.031-.082-.086-.067-.305.074-.144.098-.277.195-.285.223-.015.027-.082.05-.156.05a.792.792 0 0 0-.336.121 1.99 1.99 0 0 1-.512.2c-.207.05-.402.136-.578.25a4.118 4.118 0 0 1-.562.308c-.16.075-.414.219-.563.328a2.486 2.486 0 0 1-.61.309 3.22 3.22 0 0 0-.655.328c-.352.234-.422.207-.254-.113l.105-.203-.215.039c-.117.023-.34.058-.488.082-.36.05-.363.219-.02.601.141.157.262.309.262.34 0 .188 1.121.235 1.785.078zm29.578-.965c-.238-.261-.27-.351-.402-1.027-.078-.406-.125-.808-.101-.898.03-.145.02-.164-.114-.164a.355.355 0 0 1-.234-.094.762.762 0 0 0-.25-.16c-.149-.063-.285-.047-.84.117-.863.25-.969.32-.98.668 0 .14-.012.273-.024.41-.012.117.098.195.703.5.532.266.793.36.992.36.23 0 .266-.02.266-.137s.016-.125.106-.051c.054.043.148.184.207.312.082.168.18.254.398.336.5.196.559.157.273-.172zm-25.804-.144c.101-.05.328-.133.504-.188.234-.07.437-.207.777-.527.258-.238.625-.527.828-.64.442-.254.477-.293.527-.66.024-.157.153-.598.278-.985.183-.555.223-.766.2-1.031-.04-.41-.235-.938-.513-1.36-.175-.261-.27-.34-.52-.418-.288-.093-.304-.109-.304-.336 0-.164-.043-.28-.14-.37-.305-.282-.446-.071-.391.585.023.297.004.473-.063.61-.05.101-.097.355-.105.562-.008.313.012.395.125.488.133.106.137.122.043.297-.09.168-.086.2.02.348.066.09.132.254.16.371.03.16.007.23-.125.352l-.16.148.124.29c.176.382.145.491-.117.464-.16-.02-.238.016-.324.121-.086.102-.21.148-.453.172-.246.027-.34.062-.367.152-.02.067-.117.18-.215.246-.102.075-.29.356-.43.641-.191.395-.285.516-.387.52a.41.41 0 0 0-.246.128c-.109.118-.105.125.067.149.316.043 1.011-.027 1.207-.125zm35.066-.215c.317-.14.317-.14.168-.242a1.823 1.823 0 0 1-.18-.137c-.015-.02-.234-.035-.48-.035-.414 0-.48-.016-.82-.234a3.474 3.474 0 0 1-.664-.625c-.274-.356-.313-.38-.461-.325a.55.55 0 0 1-.297.024c-.102-.035-.07.031.144.305.489.625.856.953 1.313 1.18.527.261.816.284 1.277.09zm-41.355-.023c.172-.09.425-.157 1.949-.528 1.086-.261 1.27-.328 2.285-.812.719-.348 1.047-.547 1.29-.778l.323-.312-.238.035c-.129.02-.36.13-.516.246-.5.387-1.03.578-1.718.633-.34.023-.555.05-.48.059.077.004.16.035.183.066.035.066-.309.172-1.16.36-1.04.222-1.89.554-2.344.906-.012.011-.004.066.02.117.046.129.167.129.406.008zm24.129-.352c.168-.137.62-.418 1.015-.621.39-.203.824-.469.961-.598.317-.28.645-.925.817-1.605.175-.668.168-.844-.028-1.133-.203-.3-.203-.445 0-.578a.542.542 0 0 0 .2-.266c.054-.215-.2-.738-.36-.738-.113 0-.516.398-.516.512 0 .031-.109.12-.238.203-.375.219-.535.39-.644.656a.66.66 0 0 1-.344.367c-.313.16-.332.196-.238.438.09.238.007.363-.274.422-.152.027-.191.074-.191.195 0 .223-.114.496-.278.668-.105.113-.18.14-.32.105-.238-.05-.336.043-.433.407-.047.172-.125.36-.184.422-.094.109-.113.097-.332-.157-.223-.261-.25-.273-.406-.199-.157.067-.184.059-.274-.078a.966.966 0 0 0-.261-.258c-.149-.097-.184-.097-.415-.008a1.03 1.03 0 0 1-.496.067c-.168-.024-.394.011-.742.125-.273.094-.539.168-.594.168-.046 0-.113.043-.14.097-.051.09-.074.082-.176-.027-.121-.137-.55-.191-.55-.074 0 .101.85.832 1.124.96 1.024.493 1.13.524 1.938.524.523.004.922.047 1.25.125.707.176.781.168 1.129-.12zM9.188 42.34c.406-.043.652-.176.597-.32-.023-.07-.098-.09-.234-.067-.317.047-.914-.266-1.336-.707-.453-.469-.602-.766-.54-1.101a4.79 4.79 0 0 0 .044-.532c.004-.496.39-1.093.699-1.093.223 0 .32-.145.32-.497 0-.168.047-.316.14-.437a.62.62 0 0 0 .134-.406c-.012-.14.054-.387.156-.602.094-.203.156-.387.137-.406-.04-.043-.442.09-.555.183-.047.036-.137.172-.203.313-.133.273-.672.906-1.3 1.527-.513.5-.696.793-.7 1.098 0 .121-.031.379-.074.578-.125.617.011.863.843 1.477.27.195.653.53.848.738.309.324.39.371.516.336.086-.024.312-.067.508-.086zm46.417.023c.125-.015.243-.047.356-.101.066-.04.469-.172.89-.301 1.735-.52 2.45-1.04 3.47-2.535.488-.711.6-1.168.398-1.63a2.253 2.253 0 0 1-.13-.507c-.03-.227-.073-.312-.167-.348a.604.604 0 0 1-.223-.136c-.125-.125-.27-.07-.367.152-.156.371-.312.523-.613.625-.164.055-.32.125-.465.211-.145.102-.145.11-.027.156.066.028.253.051.421.051.34.012.735.129.657.2-.028.03-.29.144-.57.257a4.773 4.773 0 0 0-.95.523c-.238.18-.7.438-1.023.575a11.29 11.29 0 0 0-1.02.511c-.27.16-.543.297-.828.418-.3.121-.57.301-.805.528-.234.218-.52.418-.683.476-.207.075-.313.153-.38.293-.073.168-.116.192-.382.203-.348.016-.91.137-.91.2 0 .023.074.086.176.144.152.09.379.102 1.558.086a28.514 28.514 0 0 0 1.617-.05zm-3.328-.703c.07-.035.301-.191.516-.351.215-.16.535-.364.715-.454.46-.23 1.66-.945 2.203-1.312.254-.172.805-.648 1.223-1.059.418-.41.933-.863 1.144-1.011.215-.145.52-.387.676-.535a3.94 3.94 0 0 1 .766-.504c.628-.297.87-.512.777-.68-.074-.137-.192-.164-.29-.07a5.706 5.706 0 0 1-.62.293 3.323 3.323 0 0 0-.895.543c-.207.18-.418.355-.64.515-.157.113-.68.578-1.16 1.028-.473.449-1.051.945-1.274 1.097l-.406.274.133-.262c.074-.149.183-.477.242-.73.054-.258.14-.547.191-.645.047-.094.074-.176.055-.176-.016 0-.11.152-.203.336-.242.488-1.262 1.855-1.551 2.09a3.447 3.447 0 0 1-.535.34c-.664.343-1.672 1.152-1.672 1.351 0 .082.402.032.605-.078zm-41.593-.265c.129-.06.296-.106.37-.106.075 0 .196-.039.278-.094.367-.234 1.336-.445 1.875-.406.738.063 1.586-.207 1.629-.512.05-.312-.559-.34-.707-.03-.11.226-.367.284-1.024.237a4.833 4.833 0 0 0-1.187.067c-.813.14-1.816.11-2.176-.067a2.265 2.265 0 0 1-.531-.414c-.274-.28-.281-.3-.281-.722 0-.239-.028-.446-.055-.465-.086-.055-.32.226-.406.476-.051.153-.13.297-.223.43-.121.16-.144.266-.129.52.02.28.063.355.367.675.387.403.567.496 1.09.555.414.05.77 0 1.11-.144zm37.32-.551c.121-.184.555-.254.77-.117.187.117.203.043.074-.317-.16-.45-.48-.82-.899-1.043-.203-.113-.457-.308-.574-.453-.203-.246-1.188-.832-2.879-1.703-.535-.277-1.101-.73-1.351-1.09-.145-.21-.122-.453.066-.617.137-.117.152-.172.121-.363-.035-.188-.023-.223.074-.223.211 0 .414-.262.414-.52 0-.203-.043-.277-.261-.46-.196-.16-.266-.274-.297-.47-.047-.312-.184-.484-.387-.484-.082 0-.445.149-.8.325-.766.386-.81.457-.903 1.441-.059.64-.059.652-.317.898-.14.133-.253.262-.253.293 0 .024.238.293.535.598.386.402.62.719.84 1.133.421.797.566.95 1.113 1.168.25.101.586.285.746.406.25.191 1.031.5 1.266.5.136 0 .875.402 1.25.684.328.242.62.367 1.168.5.156.03.437-.016.484-.086zm-31.113-.086c.074-.078.168-.207.207-.285.109-.211.086-.907-.047-1.328l-.117-.375-.106.164c-.062.093-.16.168-.21.168-.067 0-.09.035-.071.093.2.512.2.957.004 1.336-.078.145-.082.211-.02.278.106.132.211.12.364-.047zm13.359-.508c.246-.07.469-.11.5-.09.035.024.184.008.336-.031.2-.05.309-.121.387-.262l.109-.183h-.418c-.273 0-.414.023-.414.074 0 .043-.078 0-.172-.09a.965.965 0 0 0-.433-.203 1.861 1.861 0 0 1-.575-.238 2.161 2.161 0 0 0-.66-.254 8.877 8.877 0 0 1-.844-.211 5.809 5.809 0 0 0-.855-.207 3.628 3.628 0 0 1-.785-.23 4.42 4.42 0 0 0-.918-.27c-.27-.04-.485-.098-.485-.117 0-.047.543-.29.727-.325.234-.05.102-.156-.293-.234-.316-.063-.437-.125-.562-.274-.196-.23-.254-.238-.438-.046-.102.105-.14.234-.14.437 0 .156-.005.399-.012.543-.016.375.136.61.761 1.156.641.559 1.387.965 1.985 1.07 1.105.204 2.476.196 3.203-.015zm-18.363-.152c.629-.114.73-.168 1.105-.606.149-.18.32-.324.38-.324.062 0 .241-.102.401-.227.165-.125.438-.289.61-.367.402-.187 1.406-1.219 1.344-1.375-.032-.09-.102-.05-.38.207-.179.172-.464.407-.624.516-.371.246-1.207.695-1.414.762-.09.027-.227.101-.309.168-.184.14-.852.359-1.21.394-.302.035-.993.445-.993.594 0 .144-.063.125-.496-.156-.309-.2-.426-.329-.543-.579-.11-.226-.188-.32-.281-.324-.122 0-.13.028-.098.383.039.426.223.68.644.906.286.153 1.094.164 1.864.028zm21.191-.086c.356-.227.684-.621.945-1.14l.2-.392h-.285c-.266 0-.286.012-.399.266-.137.313-.55.781-.812.91a.544.544 0 0 1-.34.063c-.114-.028-.157-.012-.157.054 0 .059-.054.153-.128.211-.122.106-.122.118-.016.157.281.109.7.058.992-.13zm20.02-.14c.086-.044.367-.27.629-.505.347-.308.523-.52.64-.781.196-.426 1.012-1.418 1.164-1.418.067 0 .196-.07.293-.164.098-.09.25-.191.336-.223.125-.05.149-.082.09-.152-.09-.106-.035-.152.422-.379a1.89 1.89 0 0 0 .516-.395c.101-.125.332-.304.511-.406.543-.297 1.098-1.082 1.336-1.879.145-.484.133-.718-.058-1.172-.114-.265-.153-.449-.125-.574.027-.133.003-.215-.094-.316-.074-.07-.172-.13-.215-.13-.043 0-.168-.093-.27-.202-.183-.2-.195-.2-.628-.16-.329.03-.497.011-.68-.059-.192-.082-.367-.094-.867-.059-.594.043-.621.051-.485.145.082.05.223.164.317.25.093.086.34.238.554.34.532.254.594.367.637 1.172l.04.664-.36.71c-.496.985-.824 1.47-1.356 1.997-.98.976-.98.976-1.398 1.96-.16.364-.758 1.079-.824.977-.02-.031-.13-.074-.239-.097-.183-.032-.238-.004-.472.254-.2.218-.262.332-.246.46.035.317.379.38.832.141zm-21.13-.68c-.202-.227-.929-.563-1.558-.723-.512-.13-.797-.313-1.71-1.094l-.282-.234.14.289c.083.156.192.34.25.402.063.07.07.113.02.113-.121 0-.836-.367-1.453-.746a8.805 8.805 0 0 0-.84-.465 10.277 10.277 0 0 1-.66-.32c-.3-.14-.625-.254-.953-.328-.54-.117-.55-.117-.617.004-.075.152.058.281.363.34.11.027.52.199.914.39.395.196.742.352.773.352.043.008.63.348 1.461.86.329.202 1.372.585 2.403.882.36.106.781.25.93.316.167.075.421.125.628.125l.348.004zm-8.452-.5l.332-.442-.008-.645c-.004-.585.008-.652.137-.757l.14-.114-.16-.144c-.184-.176-.203-.43-.059-.715.098-.188.094-.2-.101-.445-.113-.14-.219-.258-.235-.258-.015 0-.011.09.012.195.031.145-.004.274-.137.52-.148.277-.238.36-.519.484-.387.168-.488.336-.39.64.035.106.058.485.054.837-.004.695.055 1.007.23 1.199.184.2.352.117.704-.356zm39.336.214c.128-.242.101-.668-.075-1.402-.09-.363-.16-.852-.16-1.078 0-.324-.027-.442-.125-.54-.129-.128-.512-.257-.754-.257-.281 0-.832-.629-.922-1.047l-.046-.21-.168.335c-.098.188-.176.363-.176.402 0 .036.09.184.195.332.223.309.238.536.066.762-.171.215-.164.29.032.379.191.086.379.457.394.781.032.582.145.782.727 1.278.453.382.582.464.742.449a.303.303 0 0 0 .27-.184zm-14.137-.484c.187-.047.637-.133.984-.184.555-.09.684-.14 1.012-.367.234-.156.492-.289.762-.379.414-.133.617-.234.957-.48.16-.117.265-.14.453-.117.152.02.48-.028.887-.133.527-.145.671-.207.824-.38.105-.112.394-.429.644-.698.254-.27.59-.723.746-.996l.29-.508v-.742c0-.665-.02-.782-.165-1.098-.172-.367-.504-.797-.707-.903-.086-.042-.132-.023-.218.102-.102.16-.098.172.09.39.37.423.476.712.507 1.395.016.344.008.723-.015.852-.043.222-.043.222-.325.183-.238-.03-.359 0-.906.262-.418.2-.758.414-.996.637-.621.578-1.066.898-1.363.965-.094.027-.387.203-.64.398-1.028.777-2.306 1.344-3.493 1.55-.277.052-.523.106-.543.122-.016.02.02.094.086.168.102.11.168.121.445.09.227-.035.453-.074.684-.13zm-35.969.05c.016-.023.047-.124.07-.226.04-.172.032-.176-.168-.164a.826.826 0 0 1-.351-.062.871.871 0 0 0-.36-.075c-.148 0-.3-.066-.464-.195-.254-.203-.38-.238-.45-.125-.085.133-.156-.012-.085-.184.09-.226.3-.976.273-.976a3.94 3.94 0 0 0-.375.152c-.426.188-.52.332-.43.668.035.133.078.313.098.399.031.168.246.27 1.035.484.172.047.465.145.64.215.352.137.528.168.567.09zm3.828-.14a.316.316 0 0 1 .27-.133c.168 0 .203-.035.32-.355.094-.25.133-.508.133-.867 0-.332.035-.606.101-.758.094-.219.23-1.18.235-1.645.004-.101-.102-.39-.23-.648a4.03 4.03 0 0 1-.321-.906L17 32.566l-.262.02c-.191.02-.363-.031-.636-.172a3.22 3.22 0 0 0-.477-.21c-.05-.009-.32.112-.594.269-.515.297-.613.449-.375.578.07.035.145.164.168.308.02.11.055.22.106.32.082.098.414.106.472.012.028-.046.078-.035.149.028.09.062.191.093.297.086.382-.028.464.543.304 2.086-.07.644-.074.87-.007 1.093.039.157.074.45.07.657-.008.359.12.816.226.816.032 0 .09-.059.133-.125zm-6.96-.148c-.024-.102.011-.196.132-.317.113-.117.176-.265.195-.48.024-.172.07-.356.121-.407.043-.054.141-.265.22-.468.155-.414.316-.555.82-.723.39-.125.703-.328.843-.543l.102-.152-.418.043c-.234.023-.5.027-.594.004l-.172-.04.176-.226c.098-.117.227-.215.293-.215.059 0 .2-.062.3-.137.157-.117.243-.132.528-.097.203.02.426.008.543-.035.184-.067.246-.055.563.109.199.102.382.16.402.14.074-.066-.148-.343-.402-.503-.133-.078-.211-.153-.168-.168.054-.016.484.117.87.273.134.055.141-.043.048-.554-.106-.56-.094-.56-1.246-.153-1.024.356-1.31.406-1.618.285-.183-.066-.21-.043-.656.473-.148.172-.254.238-.394.238-.25 0-.309.086-.368.547-.046.422-.046.426.012.922.027.297.008.398-.164.746-.113.227-.203.484-.203.574 0 .09-.024.18-.05.2-.09.05-.142.562-.071.69.035.067.133.122.23.122.137 0 .16-.027.125-.148zm4.042-.211c.711-.313 1.922-1.414 2.043-1.864.086-.316.02-1.187-.097-1.304-.047-.051-.192-.094-.325-.102-.214-.012-.25-.043-.39-.332a3.233 3.233 0 0 0-.25-.453c-.098-.121-.102-.117-.102.129 0 .144.078.48.184.75.16.406.187.543.152.8-.039.282-.086.36-.434.684-.546.508-.582.508-.558-.023.008-.242-.012-.531-.05-.653-.095-.277-.5-.664-.755-.714-.254-.055-.34.05-.18.226.106.117.106.121-.023.121-.172 0-.129.172.059.23.07.02.164.118.203.212.035.086.09.168.152.234.043.04.11.273.145.523.039.258.086.5.101.551.024.055-.09.153-.312.266-.817.426-.664.648.168.25.722-.352 1.011-.469 1.011-.399 0 .067-.242.262-.668.54-.27.171-.574.492-.472.492.015 0 .195-.075.398-.16zm17.48.066c.126-.148.024-.394-.222-.547-.23-.14-.547-.14-.547.004 0 .195-.816-.453-1.074-.855-.148-.235-.602-.594-1.371-1.098-.266-.176-.629-.512-1.008-.941-.621-.707-.684-.844-.773-1.63-.04-.355-.032-.37.18-.581.116-.121.257-.246.312-.278.05-.031.176-.168.273-.3l.18-.239-.402.035a1.793 1.793 0 0 0-.672.196c-.157.086-.32.136-.496.152-.223 0-.317.063-.649.434-.183.207-.187.222-.172.863.012.539.04.71.168.953.192.379.95 1.148 1.176 1.195.18.04.387.133.79.356.12.07.347.152.495.195.153.035.262.09.246.117-.039.059.45.262.625.262.114 0 .54.352 1.14.926.727.699 1.567 1.066 1.802.781zm4.114-.195c.234-.106.52-.332.836-.66.344-.348.625-.567.934-.723.277-.14.527-.324.667-.496.122-.149.344-.34.5-.43.348-.207.497-.45.672-1.101.086-.325.25-.707.453-1.043.18-.29.325-.54.325-.559 0-.02-.117-.11-.258-.2-.219-.136-.274-.218-.387-.593-.16-.547-.34-.844-.531-.879a37.732 37.732 0 0 1-.64-.144c-.622-.137-.696-.11-.696.25 0 .199-.047.343-.16.5-.09.117-.164.27-.164.336 0 .16.304.457.422.41.07-.028.109.02.14.156.02.11.106.246.192.297.09.062.148.164.148.277 0 .238-.457.906-.828 1.203-.984.801-1.758 1.535-1.945 1.864-.11.195-.278.414-.38.488-.237.172-.515.687-.515.95 0 .179.016.194.125.132.18-.098.426-.082.52.035.105.125.168.121.57-.07zm-23.336-.528c-.039-.16-.035-.171.063-.09.14.118.5.063.75-.12.21-.153.273-.368.082-.294-.09.036-.098.028-.032-.035.098-.097.106-.375.012-.507-.055-.083-.082-.075-.191.054-.07.082-.114.176-.094.203.039.067-.399.453-.52.453-.05 0-.093-.035-.093-.074 0-.164.16-.613.273-.781.066-.098.094-.176.055-.176-.11 0-.395.336-.528.61-.156.336-.152.554.012.765.172.219.266.215.211-.008zm37.707-.09c.172-.038.305-.144.5-.406.25-.316.3-.351.59-.39.18-.024.387-.098.46-.164l.15-.118-.15-.003c-.085 0-.144-.043-.144-.098 0-.133-.27-.129-1.054.004-.828.14-.914.097-.48-.239.19-.14.519-.343.73-.44.488-.227.933-.552.933-.68 0-.169-.496-.044-1.078.269l-.535.289-.582-.602c-.898-.93-.906-.941-.918-1.48-.012-.512-.086-.602-.281-.344-.164.207-.235.207-.18.004.027-.129.004-.176-.16-.262-.297-.152-.34-.082-.305.48.063.903.414 1.419 1.281 1.88.204.11.418.25.473.312.098.106.078.117-.328.223-.691.172-1.457.309-1.691.3-.118-.003-.254.02-.293.051-.047.047-.2-.097-.496-.464-.231-.29-.47-.606-.536-.7-.105-.168-.933-.738-.933-.644 0 .027.14.281.312.562.309.496.317.516.203.641-.18.195-.257.39-.257.602 0 .16.074.257.464.582.586.492 1.13.78 1.625.879.43.085 2.29.058 2.68-.043zm-15.113-1.144c.222-.184.129-.246-.332-.215-.813.055-2.176-.219-3.059-.62a1.388 1.388 0 0 0-.46-.134c-.223 0-.989-.336-1.36-.586-.379-.261-1.211-.445-1.508-.336-.184.07-.203.059-.266-.097a5.826 5.826 0 0 1-.152-.625c-.094-.485-.062-.758.125-1.133.102-.203.098-.219-.023-.34-.16-.16-.227-.105-.48.371-.196.367-.216.781-.079 1.313.137.492.727 1.14 1.54 1.672l.64.421.746-.035c.578-.027.793-.011.93.059.101.055.39.113.652.148.254.028.55.098.652.157.16.09.36.101 1.262.086.781-.012 1.098-.04 1.172-.106zm17.547-.633c.207-.863.285-1.113.367-1.113.05 0 .086-.055.086-.125s.066-.363.137-.648c.125-.458.132-.567.066-.856-.086-.363-.246-.621-.41-.645-.055-.011-.235-.19-.399-.414-.172-.234-.355-.414-.449-.437-.207-.05-.574.07-.808.27-.153.117-.32.218-.497.296l-.312.141.387.074c.215.04.53.117.71.176.176.059.465.14.641.176.403.09.528.199.582.52.04.238-.097.972-.234 1.226-.031.058-.129.402-.223.762-.09.359-.176.699-.203.753-.031.083-.004.094.137.07.094-.019.191-.007.207.02.074.13.14.047.215-.246zm-27.07-.117c.023-.066-.044-.176-.188-.305-.305-.28-.488-.785-.563-1.562-.062-.594-.054-.688.075-1.113.113-.364.183-.48.32-.555.098-.05.328-.235.508-.41.238-.235.425-.352.672-.426.613-.184.777-.191.918-.043.183.207.378.168.742-.152.238-.211.379-.29.527-.29.152 0 .258-.062.445-.265.188-.203.313-.277.547-.32.168-.036.387-.114.496-.18l.192-.121-.336-.168c-.406-.203-.543-.211-.942-.031a2.183 2.183 0 0 1-.734.152c-.234.008-.578.035-.773.059-.196.023-.703.05-1.13.062-.84.023-1.16.106-1.343.371-.059.082-.297.281-.54.442-.233.16-.48.382-.55.5-.164.28-.156.949.016 1.753.082.372.133.856.133 1.239v.625l.226.093c.125.051.227.122.227.145 0 .027.113.176.246.328.215.23.289.274.512.274.175 0 .269-.036.296-.102zm8.644-.027c1.219-.235 1.469-.344 1.988-.864.414-.414.735-.828.735-.957 0-.023-.102-.16-.23-.304l-.231-.254.132-.403c.188-.543.176-.566-.125-.273-.168.16-.37.48-.558.883-.266.57-.313.625-.473.625-.097 0-.187.023-.199.05-.012.024-.387.032-.824.012l-.809-.027.399-.39c.62-.61.757-1.024.625-1.856-.055-.313-.172-.356-.368-.145-.082.094-.218.168-.296.168-.125 0-.141.028-.106.145.133.496.121.613-.11 1.035-.175.32-.558.879-.722 1.059-.008.011-.187-.028-.395-.09-.386-.114-.925-.16-.925-.082 0 .133.656.445.937.445.047 0 .285.078.516.172.508.207.46.242-.43.305-.586.046-.625.058-.648.199-.035.176.047.222.37.222.153 0 .313.07.516.227.164.125.348.227.414.227.07 0 .434-.063.817-.13zm19.496-.61c-.145-.273-.188-.28-.285-.066-.098.215-.094.434.004.535.062.063.113.043.242-.086l.16-.16zm6.629.313c.164-.078.273-.219.48-.613.149-.282.32-.547.391-.59.164-.102.16-.325-.008-.977-.086-.336-.148-.898-.187-1.613-.059-1.195-.16-1.637-.434-1.969-.176-.203-.855-.57-1.059-.57-.058 0-.261-.11-.453-.242l-.343-.243h-.672c-.524 0-.782.04-1.125.149a4.876 4.876 0 0 1-1.032.18c-.32.023-.746.078-.945.128-.441.11-.68.114-1.156.016-.434-.09-.52-.066-1.047.344l-.36.277.176.094c.114.062.368.098.727.098.531.003.563.011.793.21.219.188.273.211.668.211.383.004.477.028.785.227.383.242.594.281.727.121.316-.398.351-.414.777-.414.586 0 1.07.105 1.262.277.316.278.55.41.808.45.254.039.547.285.547.449 0 .047.074.219.16.39.082.172.176.446.203.61.024.164.079.492.126.719.046.226.074.437.05.464-.02.036-.043.278-.054.543-.016.426-.047.528-.22.766-.23.316-.25.445-.085.543.152.09.25.082.5-.035zm-28.938-.41c0-.04.055-.067.13-.067.07 0 .124-.023.124-.054 0-.094-.386-.864-.539-1.075-.25-.336-.468-.89-.437-1.101.023-.176.097-.239.722-.563.383-.199.743-.363.805-.363.055 0 .086-.023.063-.063-.02-.035-.106-.062-.192-.062-.078 0-.273-.059-.43-.133-.519-.234-.816-.152-.98.27a1.53 1.53 0 0 1-.289.433c-.32.301-.313.547.035 1.207.168.313.402.774.524 1.02.12.25.25.488.285.535.082.098.18.105.18.016zm19.7-.285c.312-.208.511-.516.511-.778v-.191l.176.254c.09.144.176.273.192.285.015.015.066-.016.125-.07.136-.137.058-.5-.172-.82-.137-.196-.27-.278-.575-.38-.406-.14-.671-.129-1.386.075-.32.09-.282.207.066.183.137-.012.356.02.48.074.126.051.344.117.485.145.187.043.266.094.277.187.02.153-.273.352-.508.352-.082 0-.246.035-.359.078-.23.082-.379.016-.2-.086.184-.105.063-.184-.276-.184-.309 0-.317.004-.317.188 0 .297.309.61.594.61.219 0 .226.007.105.09-.386.273.371.26.782-.013zm-20.59-.32c-.117-.266-.266-.4-.266-.24 0 .028-.02.142-.043.25-.031.169-.012.208.149.294.257.137.312.035.156-.305zm15.558-.79c.04-.27.137-.625.215-.789l.14-.297.04.516c.043.488.191.933.32.933.078 0 .188-.308.258-.722.063-.387.203-.657.395-.762.062-.035.144-.164.183-.289.137-.512.578-1.059.848-1.059.062 0 .215-.082.328-.183.176-.153.289-.192.644-.219l.43-.035-.203.363a4.61 4.61 0 0 1-.535.73 7.528 7.528 0 0 0-.484.575l-.149.215.152-.117a.743.743 0 0 1 .332-.11c.262 0 .965-.344 1.438-.707.777-.594 1.102-.676 1.824-.45.27.083.496.114.672.09.234-.03.324-.003.566.16.356.235.668.302 1.02.208.23-.067.3-.059.531.058.145.079.27.13.278.118.128-.149.16-.32.086-.442-.09-.144-.868-.539-1.188-.597a1.554 1.554 0 0 1-.465-.207c-.156-.106-.406-.188-.672-.227-.535-.078-1.066-.312-1.27-.559-.097-.117-.304-.25-.538-.332a5.237 5.237 0 0 1-.72-.336c-.183-.101-.382-.183-.448-.183-.063 0-.235.125-.38.277l-.26.285-.626.043c-.77.059-.973.172-1.152.653-.207.562-1.246 1.394-2.051 1.636-.453.141-.559.204-.727.45-.156.23-.144.75.028 1.03.312.52.699.907.59.595-.028-.082-.008-.075.101.035.266.27.363.199.45-.348zm-33.476.125c.281-.09.367-.152.433-.308a1.11 1.11 0 0 1 .22-.317c.128-.121.132-.121.132.024 0 .136.02.144.305.117.168-.016.394-.074.5-.13.105-.054.402-.202.66-.327l.465-.23v-.36c0-.457-.059-.567-.364-.692-.285-.113-1.203-.37-1.328-.37-.047 0-.183.07-.304.16-.118.085-.27.16-.336.16-.102 0-.118.035-.086.175.02.098-.032.504-.114.899-.129.625-.183.758-.39 1.016-.133.16-.219.292-.196.292.028 0 .207-.05.403-.109zm20.262-.05c.12-.094.12-.094-.004-.098-.106 0-.09-.024.078-.125.246-.157.363-.352.316-.551-.039-.137-.062-.145-.27-.094-.261.055-.359.13-.238.172.317.11-.394.164-.742.055-.23-.075-.168-.223.14-.356.153-.066.302-.148.321-.183.02-.04.152-.086.297-.11.437-.074.285-.16-.281-.16-.496 0-.555.012-.809.195-.379.278-.582.813-.375 1.016.117.121.16.094.242-.156l.078-.227.106.215c.117.23.566.504.848.504a.547.547 0 0 0 .293-.098zm9.94-.52c.106-.051.192-.137.192-.184 0-.047.09-.125.203-.168.11-.05.29-.16.395-.25.105-.09.324-.207.492-.261.395-.141.442-.172.793-.594.34-.406.375-.528.168-.637-.125-.07-.129-.082-.031-.137.113-.062.527-.043 1.008.047.203.035.27.004.672-.316.246-.2.472-.406.503-.465.055-.094.036-.102-.152-.066-.121.02-.437.058-.703.078-.477.043-.5.035-1.316-.297-1.075-.43-1.282-.535-1.48-.75l-.161-.176-.184.176c-.14.12-.304.215-.484.273-.367.13-.531.32-.664.797-.05.195-.188.59-.297.871-.297.797-.262 1.305.102 1.496.3.153.687.477.687.575 0 .109.027.109.258-.012zm-7.26-1.125a3.241 3.241 0 0 0-.036-.547l-.043-.32.156.191c.09.105.223.355.301.563.149.394.25.457.402.242.067-.098.102-.114.125-.051.016.043.106-.086.2-.29.168-.362.21-.714.117-.862-.063-.102-.652-.356-1.14-.5a5.435 5.435 0 0 1-.77-.305c-.18-.09-.36-.176-.535-.262-.086-.043-.227-.199-.313-.351-.2-.34-.336-.375-.957-.278-.488.078-.629.051-.8-.156-.126-.148-.345-.121-.524.07-.14.137-.301.258-.469.368-.18.12-.363.3-.434.44-.14.278-.539.567-.98.72a1.893 1.893 0 0 0-.566.332c-.137.125-.282.226-.325.226-.12 0-.617.434-.648.57-.023.079.012.172.09.243.113.105.129.105.265-.031a.62.62 0 0 1 .352-.141c.305 0 .539-.11.77-.356.14-.152.265-.218.386-.218.098 0 .34-.086.535-.192.473-.258.82-.258 1.375-.008.239.106.555.227.7.266.312.082 1.046.125.968.059a20.81 20.81 0 0 0-.465-.352 4.384 4.384 0 0 1-.628-.547l-.207-.242.359-.039c.266-.027.402-.012.496.059a.663.663 0 0 0 .297.093c.246 0 .55.215.812.57.121.18.278.34.348.364.133.039.387.406.387.559 0 .144.261.457.328.39.031-.027.059-.156.07-.277zm-14.16-.137c.105-.074.386-.402.628-.73.242-.325.59-.72.773-.875.32-.27.332-.293.305-.547a1.39 1.39 0 0 0-.2-.516c-.093-.137-.171-.336-.171-.445.004-.352.176-.938.328-1.094.078-.09.133-.16.121-.16-.015.004-.215.058-.449.113l-.414.113-.047.282c-.078.441-.2.574-.566.625-.176.023-.325.05-.325.062 0 .012.032.094.067.188.082.218-.133.715-.356.816-.09.043-.16.11-.16.156 0 .043-.074.164-.16.27-.152.183-.16.238-.16.95 0 .628.016.78.11.882.132.148.386.117.675-.09zM38.46 30c.22-.191.192-.516-.089-.977-.129-.21-.332-.554-.453-.761-.258-.45-.375-.547-.633-.551a1.115 1.115 0 0 1-.437-.129l-.246-.121-.07.16c-.075.156-1.18 1.004-1.563 1.195-.106.055-.39.118-.625.145-.242.023-.434.062-.434.086 0 .078.746.465.899.465a.447.447 0 0 0 .257-.098c.055-.055.246-.113.422-.137l.317-.043-.125.145-.133.144.223.192c.292.246.667.437.855.437.121 0 .355.078.98.328.286.11.329.098.516-.125.11-.125.258-.289.34-.355zm-20.144.086c.34-.035.747-.11.891-.16.266-.098.73-.531.73-.684 0-.039.098-.168.227-.289.211-.203.219-.238.18-.52-.024-.171-.067-.328-.098-.347-.031-.02-.21.004-.39.055-.336.086-.344.086-.836-.149-.278-.129-.52-.219-.543-.199-.02.023.07.18.199.355.234.32.476.817.379.774l-.66-.328c-.36-.18-.805-.344-1.082-.399a4 4 0 0 1-.997-.379 6.822 6.822 0 0 0-.98-.425 5.593 5.593 0 0 1-.848-.364c-.3-.168-.511-.23-.906-.277a2.859 2.859 0 0 1-.852-.223c-.261-.125-.375-.148-.5-.101-.222.082-.226.082-.39-.16a1.792 1.792 0 0 0-.465-.41l-.316-.2.039.207c.05.262.238.575.464.766.102.086.329.36.508.605.328.446 1.258 1.375 1.383 1.375.04 0 .328.168.652.38 1.157.741 1.54.925 2.325 1.066.562.11 1.086.117 1.886.03zm-5.828-1.05c.239-.048.45-.102.473-.126.023-.02-.043-.113-.145-.203-.16-.145-.222-.16-.5-.129-.273.031-.308.024-.27-.074.024-.067-.003-.137-.089-.2a.85.85 0 0 1-.23-.28c-.2-.391-.692-.97-.918-1.083a1.069 1.069 0 0 1-.387-.382c-.176-.309-.363-.383-.719-.274-.348.106-.422.09-.508-.098-.078-.175-.152-.183-.754-.05-.261.05-.316-.078-.183-.446.277-.746.27-.851-.094-1.03-.152-.071-.168-.11-.16-.481.004-.305.039-.453.144-.594.172-.23.172-.23-.027-.523-.2-.286-.172-.458.098-.567.261-.11.281-.223.09-.59-.172-.324-.172-.324-.063-.672.113-.363.098-.527-.098-.96-.082-.172-.117-.419-.117-.75-.004-.376-.031-.524-.117-.63l-.11-.132-.324.148c-.496.235-.57.352-.515.8.047.43.023.462-.395.583-.383.11-.613.383-.918 1.094-.414.965-.55 1.82-.382 2.425.035.145.261.68.503 1.192.243.516.473 1.098.512 1.297.047.203.133.433.195.52.067.081.438.292.832.468.524.23.848.426 1.211.727.66.55.954.707 1.477.812.242.05.555.137.703.188.32.125 1.195.132 1.785.02zm39.953-1.497c.13-.25.278-.52.34-.602.121-.164.098-.273-.125-.546-.133-.157-.156-.239-.129-.47.035-.296.032-.304-.152-.206-.086.047-.121.137-.121.289 0 .176-.04.242-.156.297-.102.047-.141.11-.121.183.015.059-.043.278-.137.477-.184.398-.2.539-.102.871.133.469.375.367.703-.293zm-16.52.152c.31-.187.638-.351.977-.476.47-.172.63-.266.844-.496.149-.153.305-.309.363-.336.168-.098.743-1.094.672-1.164-.047-.047-.367.105-.402.183-.02.059-.219.09-.621.11-.375.011-.64.05-.719.11a.656.656 0 0 1-.305.089c-.14 0-.207.059-.316.258-.086.148-.223.281-.332.316-.102.035-.18.043-.18.02-.004-.117-.129.168-.129.293-.003.218-.164.175-.394-.114-.215-.273-.305-.304-.5-.183-.156.097-.418-.055-.578-.332-.078-.14-.16-.192-.332-.203-.188-.02-.227-.051-.242-.192-.016-.125-.079-.191-.227-.246-.113-.047-.23-.094-.344-.144a1.362 1.362 0 0 0-.418-.075c-.199-.007-.367-.074-.582-.218-.312-.22-.613-.27-.668-.125-.062.168.094.437.297.504.192.07.195.078.156.402-.035.3-.02.367.196.715.582.965 1.008 1.203 2.379 1.355.214.02.476.082.582.125.3.133.398.113.824-.176zm11.622.047c.266-.105.277-.12.164-.203-.066-.05-.16-.074-.203-.058-.047.023-.195-.063-.324-.184-.356-.332-.575-.484-.66-.484-.047 0-.133-.043-.192-.102-.086-.078-.168-.086-.375-.039-.2.043-.293.035-.39-.031-.118-.078-.149-.078-.286.008-.203.136-.254.05-.199-.317.04-.262.031-.285-.144-.367-.164-.082-.18-.121-.18-.418 0-.188-.043-.375-.094-.434-.074-.093-.078-.14-.012-.242.063-.105.059-.164-.023-.328a1.02 1.02 0 0 1-.094-.258c0-.039-.086-.16-.187-.273a1.079 1.079 0 0 1-.223-.461 1.152 1.152 0 0 0-.133-.379c-.093-.125-.097-.125-.234 0-.133.121-.14.238-.035.496.035.082-.004.133-.145.207-.21.11-.304.297-.386.813-.126.707.003 1.105.57 1.8.129.157.3.414.379.563.07.152.148.277.16.277.21 0 1.008.227 1.328.387.395.187.445.2 1.027.168.383-.016.72-.067.891-.14zm-26.344-.066c.024-.09.031-.172.02-.18-.016-.015-.32-.16-.684-.328-.43-.2-.808-.324-1.09-.363a8.12 8.12 0 0 1-.793-.156c-.406-.102-1.8-.286-2.164-.286-.277 0-1.379-.254-1.379-.312 0-.027.157-.094.336-.152.371-.118 1.149-.54.887-.477-.348.078-1.922.176-2.348.145a2.977 2.977 0 0 1-.855-.204c-.774-.316-2.074-.543-2.074-.355 0 .148.472.398.972.523.297.067.86.25 1.246.407 1.356.539 2.422.84 3.22.906.784.066 1.753.2 2.222.308.23.055.578.125.773.16.192.036.54.153.774.258.23.11.5.211.61.223.105.02.21.035.241.04.024.003.063-.067.086-.157zm29.219-.027c.7-.18.852-.286 1.02-.711.207-.516.171-.59-.235-.543-.5.062-.512.07-.336.265.09.09.156.18.145.188-.008.011-.164-.02-.332-.07a2.636 2.636 0 0 0-.657-.094c-.187 0-.414-.032-.503-.067-.27-.101-1.118-.207-1.836-.222-.375-.008-.766-.047-.868-.094-.285-.117-.379.023-.144.223.098.085.223.16.281.16.05 0 .215.101.36.222.148.125.277.211.292.2.016-.016.204.058.422.171.48.25 1.266.489 1.625.497.145 0 .489-.055.766-.125zm-28.273-.872a2.57 2.57 0 0 1 .62-.093c.126.008.266.008.31.004.042 0 .316-.309.597-.684a8.959 8.959 0 0 1 1.05-1.125c1.27-1.078 1.465-1.57 1.075-2.648-.106-.293-.195-.625-.195-.739a1.28 1.28 0 0 0-.067-.39c-.094-.246-.652-.813-1.125-1.133-.215-.145-.648-.508-.965-.8l-.906-.84a2.913 2.913 0 0 1-.48-.59c-.215-.387-.399-.505-.938-.61l-.46-.086.054.191c.078.274.234.5.488.715.184.153.215.223.215.461 0 .367.082.582.352.88.183.198.226.312.265.632.027.238.094.453.172.555.113.148.164.164.406.125l.274-.043.386.453c.512.594.543.66.57 1.219.016.335.06.543.15.687a.947.947 0 0 1 .132.395c0 .246-.402 1.058-.672 1.363-.113.133-.3.36-.414.504-.117.152-.344.36-.512.469a6.354 6.354 0 0 0-.48.335c-.125.102-.29.149-.563.172-.3.02-.394.051-.422.145-.05.16.086.355.32.476.247.122.286.122.763 0zm23.984-.636c.008-.063-.043-.176-.113-.254a1.426 1.426 0 0 1-.328-.844c0-.152-.032-.227-.09-.227a.53.53 0 0 1-.196-.042c-.172-.063-.132.582.055.988.207.445.613.672.672.379zm3.84-.035c.316-.036.867-.079 1.218-.09.356-.012.657-.04.665-.063.109-.304-.676-.363-2.622-.195l-.488.039.324-.273-.308.132c-.438.188-1.078.227-1.578.102-.457-.117-.723-.133-.723-.047 0 .035.102.098.227.145.125.043.222.101.222.12 0 .024.258.067.567.094.308.028.75.075.98.102.434.047.535.043 1.516-.066zm-39.48-.602c-.02-.223-.06-.293-.208-.379-.308-.176-.41-.46-.414-1.144 0-.336.02-.75.051-.918.05-.262.043-.309-.043-.309-.059 0-.148-.063-.2-.137-.054-.082-.109-.133-.12-.113a8.148 8.148 0 0 0-.14.652c-.08.446-.099.743-.063 1.028.093.797.308 1.175.816 1.43l.336.167c.004 0-.004-.125-.016-.277zm25.398.207c.215-.07.289-.191.234-.348-.027-.07-.14-.097-.371-.097-.328-.004-.527-.086-.984-.422-.176-.125-.192-.13-.395-.024l-.21.11.327.293c.301.27.848.547 1.102.554.05 0 .187-.027.297-.066zm-14.551-.152c.629-.153 1.195-.446 1.394-.73.094-.134.168-.286.168-.329 0-.05.13-.21.293-.371.278-.273.36-.484.22-.57-.044-.028-.052-.153-.024-.317.039-.265.023-.293-.274-.625-.175-.187-.367-.48-.425-.64-.079-.203-.235-.403-.516-.653l-.402-.351.015.41c.004.226.047.512.086.633.09.285.098.687.008.847-.035.07-.258.305-.492.524-.457.43-.61.492-1.739.73-.71.149-1.308.172-2.601.102-.848-.043-.875-.043-1.426.144-.394.137-.68.192-.969.192-.472 0-.515-.02-.66-.297-.078-.156-.152-.207-.367-.242-.367-.055-.695.058-.742.261-.09.356.422.633 1.37.739.548.062.696.058.997-.032.406-.12 1.656-.144 1.766-.039.035.036.207.102.382.153.176.047.372.11.43.133.082.035.113.02.113-.055 0-.137.067-.133.516.058.23.098.512.16.723.165.187 0 .457.058.597.125.32.148 1.008.164 1.559.03zm27.305-.305c.386-.176.914-.238 1.886-.23.813.011.82.007 1.254-.211.41-.207.45-.25.653-.649.191-.39.207-.453.144-.687a.664.664 0 0 0-.25-.375c-.11-.07-.207-.16-.289-.262a1.236 1.236 0 0 0-.3-.25l-.188-.09.234.844-.156.32c-.09.172-.258.387-.371.477-.274.207-.985.453-1.696.574-.308.05-.703.168-.878.258-.356.183-.711.21-.871.07-.149-.133-.481-.039-.508.145-.012.097.027.164.129.207.21.09.87.015 1.207-.141zm-31.875.102c-.02-.02-.078-.024-.121-.004-.055.02-.04.035.035.035.07.004.105-.012.086-.031zm35.832-.067c.23-.035.261-.066.437-.45.102-.226.313-.6.473-.831.379-.559.46-.836.328-1.129-.422-.898-.574-1.063-1.277-1.344-.204-.078-.387-.172-.407-.207a2.154 2.154 0 0 0-.37-.226 3 3 0 0 1-.575-.383c-.238-.211-.273-.219-.691-.156-.016.003.078.113.207.242.129.137.25.324.28.426.02.097.114.23.204.285.086.058.215.23.281.39.117.278.133.285.344.243.191-.036.254-.012.48.19.25.227.458.544.458.708 0 .043.042.117.101.164.149.125.082.645-.133 1.07-.195.383-.629.84-.832.868-.07.011-.144.078-.156.14-.027.133.047.133.848 0zm-15.395-.11c.047-.046.266-.105.488-.124.223-.02.438-.059.48-.098.079-.058.513-.219.692-.246.051-.008.371-.156.707-.32.805-.399 1.23-.828 1.637-1.637.16-.324.293-.64.293-.703 0-.059-.07-.254-.16-.43-.086-.168-.16-.347-.16-.394 0-.04-.063-.114-.14-.153-.122-.066-.153-.054-.243.07-.086.122-.18.239-.277.352-.098.117-.176.23-.176.254 0 .024.093.04.21.04.344 0 .325.062-.066.304-.203.12-.46.312-.566.43a2.655 2.655 0 0 1-.516.394 4.698 4.698 0 0 0-.61.422c-.151.125-.32.242-.491.34a1.48 1.48 0 0 0-.41.36c-.133.16-.29.3-.458.417-.136.094-.25.203-.25.246 0 .043-.16.149-.347.23-.242.106-.34.18-.313.243.043.117.559.121.676.004zm-.336-.777c.09-.078.39-.312.672-.523.691-.52 1.164-.957 1.457-1.355.137-.184.445-.543.684-.81a9.65 9.65 0 0 0 .652-.769c.117-.164.285-.332.371-.37.086-.036.152-.11.152-.153 0-.566-1.14.36-2.253 1.824-.438.574-.61.688-.547.367.03-.144-.032-.062-.188.258a3.18 3.18 0 0 1-1.304 1.352c-.36.191-.598.406-.598.539 0 .082.726-.211.902-.36zm-3.254.125a.317.317 0 0 1 .262-.164c.086 0 .16-.027.16-.058 0-.133-.336-.446-.59-.547a2.529 2.529 0 0 1-.53-.32c-.282-.23-.68-.414-1.61-.747-.653-.226-.89-.355-1.16-.636-.176-.192-.18-.203-.075-.36.059-.093.094-.222.07-.293-.027-.082.005-.14.094-.191.211-.113.172-.395-.093-.629-.125-.11-.227-.238-.227-.293 0-.25-.16-.226-.644.094-.54.367-.598.476-.54 1.02.032.304.02.382-.101.53-.078.098-.129.204-.117.235.008.035.168.176.351.32.188.145.496.465.696.711.296.371.41.465.632.524.149.043.418.14.594.222.176.082.52.18.758.22.238.034.602.144.805.241.199.098.468.2.59.22.453.085.566.07.675-.102zm16.785-.398c.391-.125.528-.207.657-.375.261-.34.304-.516.222-.848-.086-.34-.27-.37-.3-.054-.032.351-.07.457-.305.761-.2.262-.242.29-.32.211-.157-.156-.707-.242-1.028-.16-.3.074-.484.063-1.636-.094-.754-.105-1.211-.226-1.633-.437-.23-.117-.239-.117-.239-.004 0 .156 1.141.703 1.575.75.672.074 1 .145 1.113.246.348.313.91.313 1.894 0zM45.621 24c0-.125-.039-.305-.086-.398a1.923 1.923 0 0 1-.125-.512c-.023-.215-.168-.61-.402-1.094-.285-.601-.36-.828-.371-1.11-.012-.292.011-.359.117-.417.07-.035.168-.094.223-.13a.62.62 0 0 1 .242-.066c.191-.007.289-.144.238-.347a.638.638 0 0 1 .043-.34c.04-.102.055-.203.035-.227-.035-.035-.785-.207-.937-.21-.047-.004-.227.144-.399.316-.195.203-.367.328-.457.328-.144 0-.144.004-.144.95 0 .866.011.964.144 1.171.078.125.14.273.14.332s.118.262.259.453c.14.184.304.469.359.633.219.61.469.934.676.867a.348.348 0 0 1 .234.024c.156.09.211.03.211-.223zm-26.277-.328c.511-.106.765-.266 1.3-.797.407-.406.622-.848.684-1.395l.043-.402h-.226c-.22 0-.227.008-.27.305-.066.523-.293.918-.781 1.344-.246.218-.54.441-.653.503-.203.102-.214.098-.25-.007-.082-.262-.156-.325-.746-.618-.465-.238-.73-.324-1.09-.375-.91-.117-1.539-.277-1.796-.453-.086-.062-.332-.148-.536-.187-.437-.086-1.41-.402-1.878-.606-.48-.214-1.348-.765-1.766-1.132-.203-.172-.387-.32-.41-.32-.024 0-.043.081-.043.183 0 .187.277.492.836.918.156.12.5.398.758.613.39.332.539.414.902.504.246.063.598.21.82.36.211.136.54.285.73.324.192.039.395.128.45.199.27.316.488.512.902.789l.446.305.757.035c.422.015.778.039.793.054.035.04.438-.02 1.024-.144zm17.62-.379c.25-.258.395-.48.516-.809.211-.547.758-1.25 1.262-1.613.13-.094.254-.23.281-.3.02-.075.133-.192.247-.259.289-.18.59-.789.656-1.343.035-.25.004-.39-.145-.754-.258-.617-.465-.735-1.27-.707-.32.012-.656.043-.738.078-.152.055-.136.074.266.297.234.133.457.273.488.316.145.176.285.824.239 1.14-.04.29-.508 1.313-.707 1.544-.352.418-.743 1.09-.743 1.281 0 .074-.117.3-.257.512-.227.328-.282.375-.426.347-.13-.027-.2.008-.29.122-.116.156-.16.386-.077.464.129.133.375.02.699-.316zm12.157-.414c.324-.242.652-.5.738-.563.13-.105.141-.152.102-.488-.05-.418-.098-.457-.559-.508l-.304-.035.14.235c.075.128.207.308.293.398.184.207.184.254-.015.254-.114 0-.184.058-.258.195a.697.697 0 0 1-.313.29.98.98 0 0 0-.297.187.299.299 0 0 1-.191.101c-.059 0-.129.016-.148.04-.043.038.129.347.191.347.016 0 .293-.203.621-.453zm-1.184.27c0-.032-.175-.157-.398-.274-.43-.227-.414-.309.047-.195.34.086.652.093.703.011.043-.066-.23-.175-.578-.23l-.262-.04-.078-.495c-.055-.332-.059-.5-.012-.516.036-.012.063-.101.063-.203 0-.098.047-.215.098-.258.125-.105.125-.219-.004-.168-.078.028-.09.008-.059-.086.105-.332-.34-.14-.508.22-.14.284-.133.542.028.94.074.184.117.348.101.364-.055.05-1.004-.399-1.004-.477a.886.886 0 0 0-.101-.254c-.07-.133-.086-.285-.059-.539a1.426 1.426 0 0 0-.059-.613l-.09-.258-.038.246-.075.45c-.023.163-.074.226-.234.288-.2.075-.2.083-.164.41.066.56.277.883.723 1.13.437.234 1.234.52 1.578.554l.3.035c.047.004.083-.015.083-.043zm-13.804-.25c.508-.165.77-.29.933-.442.121-.113.36-.27.524-.348.16-.074.312-.175.445-.297.082-.085.207-.16.281-.152.246 0 .758-.226.883-.39.512-.66.696-.938.887-1.348.18-.399.21-.516.18-.8-.051-.477-.157-.661-.52-.884-.25-.156-.332-.18-.371-.11-.074.114-.07.243.004.243.14 0 .387.559.426.98.039.391.035.438-.07.438-.223 0-.833.438-1.012.73-.196.313-.77.88-.891.88-.043 0-.2.109-.348.238-.601.535-1.382 1.011-2 1.218-.382.125-.402.141-.285.22.137.085.153.085.934-.177zm-1.102-.442c.637-.203 1.535-.668 1.871-.969l.262-.226-.242.035c-.129.023-.438.16-.684.305-.254.14-.484.25-.52.234-.038-.008.122-.176.352-.371l.676-.574c.14-.118.254-.243.254-.282 0-.113-.336.02-.656.25l-.309.227-.176-.137c-.097-.074-.316-.242-.488-.363-.164-.125-.285-.254-.266-.293.024-.035-.02-.11-.093-.156a.36.36 0 0 1-.137-.274.57.57 0 0 0-.066-.265c-.047-.082-.07-.075-.102.047l-.039.152-.074-.149c-.13-.257-.278-.222-.317.086-.074.536.246.989.918 1.286.473.214.47.234-.191.453-.227.07-.457.164-.5.203-.055.043-.133.039-.238-.024-.09-.043-.184-.062-.207-.039-.024.024-.266-.164-.532-.425-.418-.41-.84-.704-.84-.59 0 .062.368.578.473.668.09.07.094.101.008.261-.14.274-.117.426.094.575.273.195.984.52 1.133.52.07 0 .355-.075.636-.165zM10.488 21.34c.047-.23.043-.473-.011-.703a2.57 2.57 0 0 1-.036-.774c.04-.36 0-.633-.218-1.699-.11-.55-.23-1.105-.356-1.652-.113-.434-.133-1.278-.035-1.625.098-.352.227-.453.492-.399.188.032.254.012.403-.133.16-.148.191-.16.257-.07.121.137.407.121.606-.035.148-.117.172-.18.172-.48 0-.293.031-.383.195-.57.238-.27.246-.5.023-.677-.093-.074-.199-.132-.234-.132-.039 0-.297-.106-.582-.239-.469-.21-.535-.226-.758-.156-.226.066-.574.274-1.078.652-.176.125-.293.16-.61.16H8.32l-.086.739c-.046.484-.16.96-.34 1.414-.351.93-.363 1.039-.164 1.621.094.262.168.621.168.785 0 .293.23.996.426 1.297.121.188.215.629.281 1.3.079.888.457 1.63.825 1.63.183 0 .53.324.53.5 0 .23.08.203.27-.09.102-.168.215-.465.258-.664zm38.48.765c.075-.175.063-.214-.09-.445-.16-.246-.679-.594-.679-.457 0 .04.024.067.055.067.066 0 .46.511.46.59 0 .163-.597-.047-.671-.235-.059-.16-.234-.117-.234.063 0 .085.03.171.066.195a.08.08 0 0 1 .027.105c-.02.032-.004.106.04.153.093.117.644.129.757.015.059-.054.074-.05.074.035 0 .172.11.13.196-.082zm2.102.102c.051-.129-.02-.39-.129-.5a1.353 1.353 0 0 1-.171-.242.767.767 0 0 0-.211-.25c-.2-.145-.493-.66-.496-.875-.004-.106-.09-.34-.188-.52-.172-.304-.195-.32-.426-.304-.14.007-.289-.024-.347-.075a2.806 2.806 0 0 0-.313-.195c-.203-.101-.219-.101-.5.067-.285.167-.309.171-1.16.14-1.004-.031-1.027-.023-.961.453.062.473.105.508.363.27.227-.211.442-.352.442-.29 0 .02-.055.118-.121.216-.184.257-.23.46-.106.46.05 0 .102-.023.102-.058 0-.129.347-.39.523-.39a.734.734 0 0 0 .34-.102c.137-.09.297-.11.816-.098.094.004.203.047.246.102.051.054.114.09.188.101.18.004-.328.235-.621.281l-.278.047.172.133c.125.098.301.14.743.172l.582.04.285.304c.152.172.304.304.343.304.032 0 .094.106.137.23.051.157.156.282.293.364.121.067.219.168.219.219 0 .121.187.113.234-.004zm-8.23-.328c.012-.176-.043-.418-.176-.754-.105-.266-.195-.574-.195-.684 0-.242-.2-.394-.52-.394a.739.739 0 0 1-.652-.442c-.059-.164-.063-.168-.152-.046-.133.183-.114.316.074.492.133.125.156.199.133.367-.028.164 0 .25.12.379.087.09.208.344.27.555.102.343.149.414.438.605.195.137.383.211.484.2.137-.016.16-.052.176-.278zm-25.438-.43l.082-.246-.175.043c-.27.063-.461.211-.461.352 0 .113.035.129.234.109.207-.016.246-.043.32-.258zm-.21-.758c.023 0 .03.032.007.063-.062.11.074.074.242-.063.094-.07.204-.128.254-.128.047 0 .157-.063.246-.13a.59.59 0 0 1 .27-.124c.281-.004.812-.914.644-1.114-.05-.066-.046-.172.024-.402a2.5 2.5 0 0 0 .094-.59c0-.25-.024-.293-.243-.437a2.05 2.05 0 0 0-.55-.227 2.594 2.594 0 0 1-.563-.195c-.324-.164-.37-.16-.21.015.073.078.179.235.234.34.218.41.687 1.473.687 1.567 0 .172-.324.527-.633.68-.168.081-.52.238-.785.343-.262.11-.676.297-.914.418-.437.215-.441.223-.309.34.07.062.13.152.13.2 0 .05.242-.036.66-.24.367-.171.683-.316.714-.316zm-2.165.16c.004-.21-.039-.265-.539-.687-.297-.246-.597-.531-.66-.629l-.125-.176.485.125c.269.063.624.188.789.27.351.18.98.328 1.132.27.176-.07-.347-.45-.902-.653-.27-.098-.504-.2-.516-.226-.02-.028.008-.47.059-.989.102-1.047.172-1.23.621-1.586.14-.11.254-.222.254-.254 0-.027-.09-.093-.2-.148-.109-.055-.175-.113-.14-.129.086-.055.02-.496-.074-.496-.133 0-.844.727-.969.996-.164.344-.195.902-.097 1.547.043.289.066.562.054.602-.027.09-.625-.31-1.07-.715a2.437 2.437 0 0 0-.43-.317.38.38 0 0 1-.195-.222c-.024-.102-.086-.157-.172-.157-.125 0-.133-.023-.09-.3.024-.172.106-.567.172-.88.106-.449.125-.671.09-1.058-.04-.422-.063-.476-.129-.379-.05.067-.152.332-.23.59l-.145.473-.309.027a1.266 1.266 0 0 0-.472.137c-.16.105-.164.129-.164.773 0 1.297.164 1.692 1.16 2.836.984 1.125.996 1.133 1.601 1.133.454 0 .512.012.657.164.144.164.336.273.48.281.035 0 .07-.097.074-.222zm20.82-.64c.063-.39.13-.902.157-1.137.043-.426.043-.43-.145-.523a1.648 1.648 0 0 1-.308-.235.419.419 0 0 0-.262-.136c-.129 0-.68.39-.727.515-.019.055.215.102.81.172.35.04.39.07.257.207-.047.043-.086.262-.094.512-.008.504-.082.996-.148 1.043a.406.406 0 0 0-.094.176c-.047.144-.027.152.203.133l.242-.024zm-14.558.25c.074-.195-.078-.914-.262-1.219a1.8 1.8 0 0 1-.16-.515c-.023-.188-.14-.489-.281-.739-.324-.558-.41-.851-.375-1.25.023-.246-.004-.43-.117-.734a3.563 3.563 0 0 1-.196-.727c-.062-.476-.191-.597-.597-.578-.332.012-.332.012-.84-.472-.273-.262-.582-.504-.676-.528-.105-.023-.324.004-.55.074-.333.098-.434.102-.946.028-.77-.106-1.281-.274-1.648-.54-.547-.39-.91-.382-1.32.028-.208.207-.27.328-.352.719-.102.465-.09.664.031.496.04-.063.047-.04.023.078-.02.09 0 .219.043.277.079.102.13.086.633-.175.293-.16.64-.309.758-.336.215-.043.211-.036-.203.37-.383.372-.578.704-.477.805.067.063.328-.039.657-.253.27-.18.382-.215.742-.223.226-.004.531-.05.672-.11.379-.144.922-.132 1.16.024a.831.831 0 0 0 .406.129c.148 0 .262.055.371.172.086.093.156.191.156.215 0 .023.075.082.164.128.086.047.157.102.157.13 0 .093-.985.203-1.473.156-.324-.028-.547-.02-.625.027-.102.059-.102.07-.02.074.063 0 .176.07.262.156.215.211.918.52 1.485.645.945.21 1.175.367 1.488 1.02.121.253.312.55.422.652.16.152.203.242.203.445 0 .352.203.75.508.996.191.153.258.266.297.461.035.235.058.262.23.262.14 0 .203-.043.25-.168zm13.332-.277c.145-.145.25-.313.25-.395 0-.144.004-.144.129-.031.125.113.129.113.129-.047 0-.457-.559-.664-1.227-.457l-.351.113.484.047c.637.07.695.094.563.223-.133.136-.63.355-.63.281 0-.078-.195-.082-.308-.008-.129.086.117.348.332.348.14 0 .16.015.098.09-.055.07-.035.086.105.086.117 0 .258-.082.426-.25zm-3.289-.22c.004-.605.145-.855.211-.362.035.261.219.617.289.546.02-.02.027-.195.023-.39-.015-.352.063-.598.223-.692.047-.03.117-.171.156-.312a.9.9 0 0 1 .215-.387c.074-.07.223-.199.332-.297.102-.093.301-.191.434-.215a.978.978 0 0 1 .238-.027c0 .07-.234.55-.355.735-.176.253-.196.335-.078.296.042-.011.164-.043.265-.062.094-.024.363-.215.594-.426.226-.215.48-.41.559-.437.21-.082 1.269-.04 1.511.058.164.07.27.07.485.012.16-.043.285-.047.296-.012.036.11.192.063.235-.07.097-.309-.363-.477-1.578-.574-.582-.043-.793-.121-.903-.328a.243.243 0 0 0-.191-.125c-.066 0-.27-.06-.45-.13-.425-.167-.433-.167-.585.087-.106.18-.184.23-.492.296-.489.106-.598.172-.598.348 0 .29-.27.652-.996 1.34-.41.39-.742.75-.742.797 0 .101.699.676.82.676.059 0 .082-.118.082-.344zm-1.773-.335c.52-.379.8-.645.933-.899.09-.16.086-.183-.015-.257-.102-.075-.102-.09-.008-.121.054-.024.203-.043.336-.043.18 0 .308-.059.543-.262.172-.145.304-.285.304-.317 0-.027-.164-.007-.363.043-.34.09-.402.086-.95-.043a6.057 6.057 0 0 1-.866-.277c-.25-.113-.293-.117-.352-.031a1.125 1.125 0 0 1-.281.203c-.27.137-.277.152-.414.84-.137.687-.153.941-.04 1.086.079.11.634.441.692.414.02-.008.235-.156.48-.336zm10.937.129c.094-.086.168-.195.168-.238 0-.047.09-.2.203-.332l.203-.25-.203-.622a7.925 7.925 0 0 1-.27-1.058c-.128-.883-.374-1.203-1.011-1.328a2.212 2.212 0 0 1-.512-.168c-.199-.125-.566-.11-.984.043-.195.07-.496.175-.676.23l-.727.227c-.246.07-.507.117-.761.125-.328 0-.383.023-.625.25l-.27.254.418.004c.309 0 .473.035.614.128.152.098.257.118.488.09.215-.027.355-.008.508.07.25.13.46.087.546-.109.06-.125.137-.16.5-.207.399-.055.47-.043.836.113.223.094.454.168.516.168.18 0 .547.559.715 1.086.183.57.187 1.11.016 1.383-.204.305.019.41.308.14zM17.332 19.5c.234-.3.273-.7.125-1.117-.094-.254-.207-.399-.582-.711-.406-.344-.668-.48-.668-.352 0 .02.102.153.223.29.125.136.226.292.226.347 0 .059.07.23.153.395.086.16.144.335.125.39-.059.145-.356.059-.7-.203-.164-.129-.324-.23-.359-.23-.031 0-.059-.04-.059-.09 0-.059.047-.078.13-.055.187.043.16-.074-.075-.336-.226-.262-.328-.23-.484.149-.102.246-.067.43.133.64l.132.153-.172-.067c-.418-.16-.062.363.368.543.328.137.785.121 1.007-.039.102-.074.188-.125.188-.113 0 .011-.047.156-.094.324-.094.309-.094.309.059.309.101 0 .215-.082.324-.227zm29.254-.488c.281-.059.32-.09.289-.196-.05-.164-.008-.152.25.075.2.175.266.195.559.18l.332-.024-.293-.2c-.2-.144-.383-.363-.582-.706-.164-.278-.293-.555-.293-.61 0-.086-.086-.117-.38-.156l-.378-.043-.485.344c-.593.414-.648.512-.52.91l.099.297.363.039c.293.035.512.082.7.156.007.004.155-.031.339-.066zm-21.492-.469c.07-.145.011-.832-.114-1.469l-.039-.18.344.153c.453.215.86.258 1.652.172 1.11-.114 1.606-.332 2.657-1.192.742-.601 1.191-1.062 1.433-1.484.125-.211.305-.457.403-.547.234-.219.336-.445.293-.66l-.04-.184-.214.16c-.246.184-.41.391-.348.454.02.02-.055.039-.172.039-.113 0-.328.07-.484.16-.192.105-.402.18-.617.226-.207.04-.48.153-.672.29a5.49 5.49 0 0 1-.703.382 6.47 6.47 0 0 0-.758.426c-.238.16-.496.29-.762.39-.207.071-.578.258-.816.41-.239.157-.446.25-.457.216-.02-.035.062-.239.175-.453.11-.215.192-.399.18-.41-.008-.012-.191.081-.402.206-.32.196-.418.223-.63.188-.19-.031-.288-.008-.437.101-.222.153-.77.184-.925.055-.055-.043-.13-.195-.176-.332-.074-.254-.11-.277-.55-.328l-.212-.023.172.171c.098.106.203.32.246.528.074.308.07.37-.035.57-.066.129-.11.274-.121.426-.004.168.043.238.27.394.156.106.421.344.6.536.552.578.786.761.997.761.14 0 .211-.039.262-.152zm19.531-2.805c.188-.14.52-.328.75-.418.5-.207 1.016-.691 1.281-1.21.106-.204.192-.4.192-.434 0-.106-.184-.074-.274.047-.058.086-.195.117-.504.136-.23.012-.492.063-.59.114a.946.946 0 0 1-.292.09c-.075 0-.165.085-.231.23a.633.633 0 0 1-.3.305c-.11.039-.192.117-.192.18 0 .202-.137.199-.348-.005-.207-.199-.383-.25-.457-.132-.058.093-.402-.102-.45-.254-.03-.098-.1-.133-.26-.133-.173 0-.22-.027-.235-.14-.024-.165-.516-.372-.89-.38a1.124 1.124 0 0 1-.485-.156c-.36-.223-.485-.21-.485.035 0 .164.04.215.196.274.18.07.195.101.195.367 0 .363.242.773.7 1.16.343.297.534.356 1.32.418.316.027.636.066.71.102.227.086.305.066.649-.196zm-12.297-.004c.149-.07.418-.175.61-.23.277-.082.449-.2.867-.598a6.452 6.452 0 0 1 1.004-.781c.703-.41.746-.46.8-.906.024-.219.157-.715.301-1.11.34-.953.371-1.343.164-1.992-.164-.515-.578-1.281-.8-1.48-.07-.067-.27-.153-.446-.196l-.312-.078v-.3c-.004-.364-.137-.536-.493-.645-.18-.055-.27-.055-.32-.004-.039.04-.074.313-.082.61a7.903 7.903 0 0 1-.066.8.922.922 0 0 0 .058.551c.098.254.098.297.008.52-.14.328-.129.355.125.46.254.106.266.141.117.446-.101.21-.097.226.047.426.074.113.156.332.172.484.027.242.012.293-.137.387-.203.132-.21.273-.035.613.067.137.125.324.125.41 0 .152-.012.156-.355.125-.332-.039-.352-.027-.414.125-.059.156-.078.164-.414.129-.348-.035-.352-.031-.457.184a1.939 1.939 0 0 1-.356.441c-.262.234-.863 1.258-.8 1.36.019.03-.063.058-.184.058a.467.467 0 0 0-.36.152c-.199.211-.11.242.696.2.492-.024.746-.067.937-.16zm-7.95-.222c.204-.164 1.688-.625 2.802-.875 1.039-.23 1.406-.364 2.61-.957a25.729 25.729 0 0 1 1.226-.578 1.88 1.88 0 0 0 .574-.364l.215-.222h-.25c-.348 0-1.157.277-1.617.554-.32.196-.461.239-.958.29-.316.027-.765.054-.996.058l-.418.004.286.125c.164.066.359.121.441.125.383.012-.094.262-.727.387-.628.12-1.488.332-1.836.453-.203.07-.406.133-.613.191-.332.082-1.254.633-1.254.746 0 .203.297.235.516.063zm-1.917-.617c.105-.047.273-.047.535-.004.324.05.422.043.613-.055.16-.082.223-.152.223-.27 0-.136-.027-.152-.32-.168-.504-.027-1.149-.375-1.621-.863-.504-.523-.758-1.015-.703-1.336.05-.261.07-.484.09-.91.007-.226.077-.402.304-.754.285-.45.309-.465.547-.465.297 0 .383-.117.383-.515 0-.301.12-.633.281-.762.074-.066.105-.195.105-.438 0-.265.04-.406.16-.593.16-.235.313-.653.25-.653-.085 0-.71.22-.78.278-.044.035-.169.242-.274.465-.106.222-.297.496-.426.609-.133.117-.394.41-.586.652-.191.242-.367.442-.394.442-.086 0-.653.586-.832.855-.125.188-.188.38-.215.684-.02.234-.074.594-.117.797-.133.664.097 1.039 1.086 1.73.3.215.757.606 1 .867.25.258.476.473.5.473a.745.745 0 0 0 .19-.066zm21.992-.778c.336-.113.219-.375-.168-.375-.262 0-.586-.137-.742-.305-.105-.124-.125-.128-.324-.027l-.211.102.293.246c.16.133.426.281.582.332.367.113.328.113.57.027zm-19.652-.375c.11-.062.332-.137.5-.16.16-.023.433-.117.601-.215.207-.113.313-.14.328-.094.02.063.063.055.16-.015a.534.534 0 0 1 .25-.098c.055 0 .176-.058.266-.129.153-.117.258-.133 1.09-.129 1.024.012 1.5-.066 1.895-.293.3-.171.379-.3.28-.484-.054-.098-.14-.125-.382-.125-.336 0-.516.113-.516.32 0 .23-.796.309-1.48.145-.238-.055-.64-.016-1.578.156-.535.102-.649.102-1.508 0l-.93-.101-.441-.336c-.488-.371-.535-.477-.484-.98.02-.208.02-.423 0-.634l-.036-.3-.28.332c-.153.187-.313.453-.352.59-.059.175-.141.335-.254.484-.164.203-.184.277-.176.617.008.375.016.39.426.852.293.32.5.496.695.566.59.226 1.555.242 1.926.031zm20.832-.172a.894.894 0 0 1 .332-.09c.2 0 1.363-.503 1.781-.773.418-.266.703-.617.992-1.219.262-.547.282-.715.11-.957a.933.933 0 0 1-.145-.293.268.268 0 0 0-.16-.172c-.117-.043-.172-.004-.336.262a1.972 1.972 0 0 0-.203.336c0 .016.07.02.152.004.242-.047.258.086.028.227a3.226 3.226 0 0 0-.442.37 2.462 2.462 0 0 1-.414.356c-.5.313-1.836 1.531-1.836 1.676 0 .031-.02.05-.05.043-.07-.027-.31.16-.352.281-.035.094-.012.106.164.074.117-.02.285-.078.379-.125zm-28.656-.195c0-.023-.192-.215-.422-.426-.23-.215-.477-.492-.54-.62-.226-.446-.66-1.962-.66-2.31 0-.335 0-.335-.199-.335-.117 0-.351-.09-.531-.196-.398-.238-.543-.242-1.027-.008-.243.11-.489.211-.743.293-.523.172-.937.395-1.085.586-.118.157-.13.227-.094.786.031.46.02.62-.04.66-.058.03-.007.078.15.125.124.047.257.062.288.047.028-.024.203.02.387.085.184.075.383.13.45.13.062 0 .25.09.417.195.285.175.348.191.918.191h.61v-.46l.253.202a.94.94 0 0 1 .332.457c.043.141.118.29.168.332.164.145 1.368.375 1.368.266zm25.597-.121c.02-.059.114-.137.203-.188l.16-.086-.171-.148c-.164-.148-.477-.32-1.18-.664a7.26 7.26 0 0 0-.898-.328c-.313-.09-.7-.246-.86-.344-.285-.18-.289-.187-.27-.492.012-.168.063-.352.114-.402.144-.145.11-.32-.098-.465-.105-.078-.207-.196-.226-.266-.063-.18-.16-.156-.555.137-.406.305-.441.367-.395.816.024.25.004.375-.078.5-.062.094-.101.18-.09.188.012.008.157.105.32.218.169.11.438.364.606.56.223.26.367.37.567.425.148.039.367.113.492.16.12.05.43.117.68.148.25.032.57.118.707.188.312.168.914.191.972.043zm2.258-.016c.422-.191 1.758-1.379 2.043-1.82.16-.246.855-1.14 1.266-1.625.187-.219.246-.336.195-.383-.156-.16-.957.602-1.637 1.563a4.727 4.727 0 0 1-.43.539c-.128.117-.132.117-.132-.004 0-.067-.086.062-.192.281-.21.45-.636.91-1.023 1.106-.227.117-.399.293-.399.418 0 .054.032.05.309-.075zm-12.23-.304c.144-.125.3-.329.34-.457.12-.375.081-1.098-.094-1.637-.082-.266-.157-.445-.16-.399 0 .043-.079.153-.168.235-.165.156-.165.156-.063.496.172.582.102 1.27-.152 1.402-.082.043-.106.125-.086.32.015.145.05.266.074.266.023 0 .164-.105.309-.226zm12.437-.614c.188-.097.563-.648.645-.941.082-.324.43-.852.808-1.246.84-.867.98-1.102 1.04-1.692.027-.273 0-.406-.134-.695-.226-.492-.43-.586-1.12-.516-.712.075-.75.118-.31.34.481.246.653.575.602 1.176-.027.371-.355 1.18-.586 1.445-.175.204-.43.696-.43.836 0 .082-.09.297-.199.485-.164.277-.23.332-.347.308-.113-.02-.176.016-.254.18-.168.324-.024.484.285.32zm-18.84-.16c.254-.05.574-.11.703-.129.266-.039.891-.558 1.047-.87.067-.118.192-.212.395-.282.21-.082.41-.195.586-.336.156-.125.437-.29.62-.36.262-.101.477-.273 1.06-.859.652-.664.808-.886.68-1.015-.024-.024-.25.156-.5.398a9.786 9.786 0 0 1-.755.633c-.367.258-1.355.746-1.773.883-.176.058-.375.164-.438.23-.125.133-.926.418-1.387.488-.457.067-1.347.625-1.347.84 0 .114-.09.114-.324-.004-.633-.328-1.012-.734-1.13-1.21-.023-.098-.062-.176-.085-.18-.024 0-.106-.016-.188-.035-.12-.036-.14-.016-.14.128 0 .56.308 1.067.867 1.45.215.148.406.207.758.254.687.082.836.082 1.351-.024zm16.668-.262c.367-.144.684-.312.82-.445a2.27 2.27 0 0 1 .418-.308 1.13 1.13 0 0 0 .317-.235c.07-.07.164-.133.219-.133.047 0 .226-.058.39-.132.239-.102.356-.211.559-.528.347-.543.61-1.133.613-1.387 0-.37-.183-.71-.469-.859-.32-.164-.468-.078-.254.156.168.176.31.508.364.868.043.242.031.273-.078.273-.188 0-.637.352-.828.652-.196.317-.54.7-.614.7-.035 0-.308.218-.613.48a5.18 5.18 0 0 1-1.043.723c-.27.129-.5.242-.512.254-.027.015.047.152.086.152.012 0 .29-.106.625-.23zm-.883-.359c.524-.18 1.125-.523 1.457-.832.282-.254.282-.254.09-.215a3.315 3.315 0 0 0-.41.133c-.387.156-.375.09.05-.297.337-.305.395-.383.286-.387-.07 0-.242.086-.375.192-.137.105-.273.195-.3.195-.118 0-.829-.488-.805-.555.015-.039-.028-.105-.094-.144a.297.297 0 0 1-.125-.223c0-.078-.02-.16-.055-.226-.043-.07-.062-.063-.101.027-.04.113-.047.113-.11.008-.031-.063-.105-.113-.156-.113-.078 0-.09.066-.07.324.043.46.265.726.75.906.21.078.386.152.386.164 0 .02-.168.102-.367.191-.168.07-.332.149-.488.223-.082.047-.149.047-.203-.004a.212.212 0 0 0-.172-.035c-.047.02-.258-.117-.473-.309-.644-.578-.933-.664-.48-.148.254.281.265.313.187.492-.039.102-.062.23-.039.281.047.133.801.493 1.035.493.114 0 .375-.063.582-.14zm8.11-.754c.02-.07-.008-.25-.07-.406-.087-.227-.165-.457-.247-.684-.156-.46-.226-.523-.547-.527-.234-.004-.515-.184-.515-.32 0-.121-.16-.04-.184.086-.015.066.04.183.117.27.11.112.133.198.106.343-.027.144-.016.2.05.2.11 0 .243.21.356.566.067.203.149.308.348.43.32.19.531.206.586.038zm-23.285-.445c.027-.082-.543-.38-.602-.317-.023.02.012.125.066.235.094.172.141.199.309.183.11-.007.211-.058.227-.101zm5.62-.5a.482.482 0 0 1 .243-.125c.336-.024.469-.375.527-1.383.035-.617.09-.926.223-1.316.129-.383.16-.582.133-.782-.024-.156 0-.41.062-.644.113-.445.11-.457-.262-1.25a6.446 6.446 0 0 1-.394-1.13c-.059-.28-.129-.538-.156-.57-.024-.027-.149-.019-.282.024-.214.074-.261.063-.816-.219-.32-.16-.629-.297-.676-.297-.05 0-.343.157-.66.336-.644.38-.695.477-.418.766.11.125.18.273.203.441.051.395.453.61.66.356.075-.086.098-.086.207.016.075.066.23.113.395.113.219.004.277.031.344.164.136.285.215.976.152 1.351-.14.883-.219 2.305-.144 2.653.039.183.074.531.07.758-.004.464.074.73.281.957.14.144.145.144.164.02a.487.487 0 0 1 .145-.24zm11.782-.094l.086-.902.047-.489-.305-.238c-.168-.133-.328-.238-.355-.238-.028 0-.176.11-.336.25l-.29.246.32.074c.18.04.411.07.52.07.188 0 .192.008.09.126-.09.097-.097.152-.035.304.07.18.02.551-.137 1.074-.054.176-.05.184.149.16.207-.019.207-.023.246-.437zm-16.613.195c0-.07.027-.14.066-.164.035-.023.063-.062.063-.086 0-.054-.922-.363-1.29-.437a1.01 1.01 0 0 1-.351-.129.52.52 0 0 0-.23-.09c-.055 0-.184-.082-.29-.187l-.18-.196.212-.625c.097-.293.207-.582.328-.863l.117-.23-.574.285c-.696.336-.754.43-.578.937.074.219.097.383.062.438a.305.305 0 0 0-.02.219c.067.21.348.546.465.546.122 0 .688.204.758.278.024.023.106.047.18.05.078 0 .34.083.582.188.547.227.68.238.68.066zm-4-.261c-.016-.13.03-.242.148-.364.242-.261.313-.425.313-.75 0-.21.039-.34.152-.476.086-.102.187-.297.227-.438.156-.566.386-.777 1.164-1.03.414-.134.765-.34 1.125-.661l.25-.227-.22.043c-.362.075-1.327.13-1.445.086-.109-.047-.105-.058.293-.539a.263.263 0 0 1 .196-.082c.07 0 .215-.066.316-.14.195-.145.297-.153 1.317-.102.355.016.609.066.808.16.281.137.516.184.516.106 0-.137-.278-.457-.547-.645-.313-.21-.316-.219-.129-.215.105 0 .39.086.64.192.462.199.587.175.524-.082-.012-.063 0-.098.031-.079.098.063.067-.136-.078-.519-.094-.25-.195-.398-.328-.477-.191-.117-.203-.113-.555.004-.257.09-.507.2-.75.317-.23.113-.468.207-.707.281-.18.05-.418.129-.527.176-.172.066-.27.066-.531 0-.176-.047-.38-.067-.453-.043-.067.023-.27.226-.45.449-.351.441-.421.488-.742.488-.14 0-.226.035-.258.11-.062.172-.183 1.058-.168 1.273.051.742.028.91-.175 1.344-.114.246-.207.543-.207.676 0 .132-.028.265-.059.3-.094.094-.191.817-.129.942.059.101.297.183.402.133.032-.02.047-.114.036-.211zm16.894.004c-.02-.07-.012-.27.012-.438l.047-.305.09.297c.05.164.129.336.183.38.086.07.098.03.082-.278-.011-.293.012-.383.13-.512.081-.082.144-.203.144-.265 0-.149.18-.493.258-.493.03 0 .124-.07.207-.148a.717.717 0 0 1 .324-.188c.156-.023.176-.015.136.106-.054.148-.12.3-.195.441l-.152.309.18-.043c.238-.059.492-.246.664-.477.257-.367.496-.414 1.941-.355.52.02.633-.04.477-.254-.09-.121-.602-.211-1.34-.238-.41-.016-.524-.043-.649-.164-.086-.079-.187-.145-.226-.145-.04 0-.211-.047-.38-.101l-.304-.106-.164.2c-.11.132-.281.234-.504.3-.27.078-.34.129-.371.254l-.062.305c-.016.082-.31.445-.645.816-.344.367-.605.715-.598.766.024.125.493.457.641.46.074 0 .098-.038.074-.124zm2.746-.106c.133-.156.196-.277.172-.36-.031-.12-.023-.12.094-.015.105.094.125.098.125.016 0-.055-.063-.176-.137-.266-.105-.14-.187-.172-.418-.172-.16 0-.386.04-.511.094-.243.102-.31.2-.09.129.195-.063.777.031.75.121-.035.105-.446.297-.57.262a.387.387 0 0 0-.212.011c-.101.04-.101.047 0 .16.063.07.164.126.23.126.063 0 .118.027.118.062 0 .149.258.05.45-.168zM28.648 9.5c.082-.086.239-.145.5-.172.22-.027.43-.094.493-.148.21-.215.98-1.297 1.156-1.633.172-.328.18-.387.18-1.192 0-.992-.032-1.05-.52-1.085l-.3-.02-.208-.438-.203-.437-.047.32c-.035.27-.008.43.196 1.047.21.645.226.73.132.801a.45.45 0 0 0-.12.148c-.012.032-.294.32-.622.637l-.594.574V7.23c-.003-.87-.14-1.21-.668-1.597-.195-.149-.382-.266-.418-.266-.03 0-.07.106-.085.23-.02.188-.004.247.101.282.11.039.098.055-.078.09-.25.047-.258.14-.027.261.406.207.55.508.656 1.329.035.27.082.53.101.593.036.082-.05.149-.363.309-.226.113-.484.289-.578.387-.156.168-.16.18-.043.214.133.032.617-.16.902-.359.215-.148.887-.387.887-.312 0 .027-.219.293-.48.586-.461.507-.477.539-.371.644.12.117.234.09.421-.121zm11.055-.832c.125-.219.125-.234.02-.297-.11-.059-.11-.066.007-.113a1.29 1.29 0 0 1 .293-.055c.106 0 .258-.101.418-.265.23-.247.243-.266.094-.223-.394.105-.664.11-1.137.008-.273-.063-.562-.153-.636-.196-.114-.074-.149-.066-.262.051a2.17 2.17 0 0 1-.273.238c-.114.079-.149.207-.211.75-.086.75-.075.786.355.977l.266.113.465-.379c.257-.21.523-.484.601-.609zm8.488.113c.059-.125.149-.289.2-.367.074-.121.062-.203-.114-.672a8.108 8.108 0 0 1-.27-.894c-.128-.649-.316-.836-1.034-1.024-.543-.148-.668-.148-1.032 0-.918.364-1.414.528-1.754.567-.3.035-.41.086-.574.25-.226.23-.222.234.27.21a.975.975 0 0 1 .41.083.5.5 0 0 0 .355.05c.102-.03.278-.011.446.043.289.098.46.04.46-.148 0-.047.055-.098.114-.113.305-.09.691-.118.812-.059.31.14.504.207.618.207.273 0 .777.98.777 1.516 0 .16-.031.351-.07.425-.035.07-.055.168-.032.223.051.14.278-.02.418-.297zm-21.558.106c0-.016-.043-.13-.098-.258l-.094-.227.215.09c.407.172 1.133-.183 1.133-.547 0-.05-.039-.05-.133.004-.136.07-.136.07-.035-.078.149-.21.129-.406-.055-.617-.16-.176-.164-.176-.265-.05-.215.276-.235.35-.078.355.132 0 .113.03-.153.289-.36.34-.601.39-.547.113.079-.418.165-.66.293-.844.29-.406.13-.363-.336.098-.55.539-.64 1.047-.257 1.496.09.11.218.195.289.195.062 0 .12-.008.12-.02zM26.5 3.723c.469-.11.648-.235.648-.457 0-.086.102-.262.223-.395l.223-.238.004.176c0 .09.023.183.054.207.133.078.891-.106 1.164-.29.157-.105.313-.19.348-.19.031 0 .18-.056.324-.122.149-.066.348-.152.446-.191.097-.04.164-.102.144-.133-.02-.04-.043-.262-.047-.5-.008-.39-.027-.453-.191-.606-.117-.113-.363-.218-.711-.312a24.408 24.408 0 0 1-.809-.23c-.386-.13-.476-.118-.765.093-.145.106-.328.2-.407.211-.136.02-.148.055-.16.438a8.135 8.135 0 0 1-.164 1.113c-.14.652-.172.719-.492 1.11-.191.23-.324.417-.297.413.027 0 .235-.043.465-.097zm0 0"/></svg>