<svg xmlns="http://www.w3.org/2000/svg" width="64" height="64"><path d="M30.743 62.97c-4.567-.215-8.819-1.323-12.754-3.324a31.163 31.163 0 0 1-12.57-11.7C1.28 41.076-.02 32.791 1.81 24.913c1.777-7.649 6.482-14.407 13.06-18.761 4.09-2.707 8.56-4.36 13.365-4.94C29.639 1.042 30.393 1 32.009 1c1.623 0 2.395.043 3.775.21 8.876 1.068 16.867 5.96 21.92 13.417 2.982 4.403 4.731 9.36 5.214 14.78.098 1.103.111 3.839.023 4.877-.363 4.294-1.421 8.089-3.268 11.721-3.412 6.714-9.216 12.024-16.152 14.779-4.058 1.612-8.568 2.383-12.778 2.186zm-12.45-30.913V18.6H4.79v26.912H18.294V32.057zM44.929 45.02v-.492H18.95v.985h25.978v-.493zM59.09 32.057V18.6H45.585v26.912h13.504V32.057zM32.398 43.27c.048-.03.05-.313.012-1.441a97.176 97.176 0 0 1-.048-2.695v-1.292l2.426.382 2.625.417.198.034-.204-.437c-.242-.518-.31-.775-.31-1.17 0-.414.123-.641.534-.986.183-.154 1.304-1.064 2.49-2.022l2.156-1.743-.343-.057a2.238 2.238 0 0 1-.515-.146c-.208-.107-.383-.35-.383-.532 0-.149.233-1.067.647-2.55.151-.54.259-.99.239-.999-.02-.008-.082.01-.137.04-.055.029-.6.222-1.21.428-.939.317-1.14.37-1.305.345-.496-.074-.903-.59-1.253-1.589-.026-.074-.056-.053-.203.14-.647.858-1.722 1.978-2.211 2.304-.304.203-.515.25-.608.138-.223-.269.006-1.958.65-4.789.153-.669.273-1.221.266-1.227-.006-.007-.232.125-.503.293-.904.559-1.156.659-1.46.578-.348-.093-.527-.38-1.379-2.217-.285-.615-.535-1.121-.555-1.126-.02-.004-.285.53-.59 1.188-.83 1.793-.996 2.06-1.351 2.154-.309.082-.492.008-1.534-.624a5.906 5.906 0 0 0-.43-.248c-.004.004.096.461.222 1.016.54 2.369.754 3.618.765 4.458.007.5-.037.605-.252.605-.364 0-1.684-1.246-2.584-2.438a1.713 1.713 0 0 0-.2-.234c-.021-.013-.087.103-.145.259-.257.682-.496 1.043-.817 1.23-.352.207-.556.176-1.81-.268-.594-.21-1.113-.394-1.155-.407-.06-.02-.026.153.178.881.519 1.857.683 2.536.657 2.727-.046.342-.299.511-.919.615l-.3.05 2.129 1.721c2.8 2.263 2.805 2.267 2.944 2.538.21.407.135.992-.218 1.706-.093.187-.158.35-.147.36.012.013 1.148-.156 2.525-.374 1.377-.217 2.542-.396 2.59-.396.081 0 .086.069.084 1.278 0 .703-.02 1.91-.044 2.683-.034 1.084-.03 1.413.013 1.44.075.049.697.047.773-.001zm12.53-24.177v-.492H18.95v.985h25.978v-.493z"/></svg>