<svg xmlns="http://www.w3.org/2000/svg" width="64" height="64"><path d="M32 1.326c-16.935 0-30.662 13.732-30.662 30.668C1.338 48.931 15.065 62.66 32 62.66c16.933 0 30.66-13.729 30.66-30.666C62.66 15.058 48.933 1.326 32 1.326zm-.217.56c16.532 0 29.934 13.406 29.934 29.942 0 16.535-13.402 29.942-29.934 29.942-5.021 0-9.682-1.356-13.838-3.541 1.486-.353 2.947-.775 4.338-1.34a29.82 29.82 0 0 0 4.483-2.28 30.05 30.05 0 0 0 12.406-15.26 29.733 29.733 0 0 0 1.326-4.956 30.13 30.13 0 0 0 .459-5.256 30.2 30.2 0 0 0-.303-4.278 29.76 29.76 0 0 0-6.58-14.826 30.105 30.105 0 0 0-5.926-5.457c-.985-.688-2.029-1.295-3.095-1.863 2.17-.5 4.407-.826 6.73-.826zM1.863 31.67c0 .145.013.302.014.45-.001-.1-.03-.192-.03-.292 0-.054.016-.104.016-.158z" fill="#231f20" stroke="#231f20" stroke-width=".68"/></svg>