<svg xmlns="http://www.w3.org/2000/svg" width="64" height="64"><path d="M30.743 62.97c-4.526-.213-8.643-1.27-12.565-3.228A31.036 31.036 0 0 1 2.157 40.41a31.17 31.17 0 0 1-.238-15.927c1.47-5.922 4.716-11.337 9.267-15.457 7.277-6.59 17.167-9.33 26.837-7.439 4.65.91 9.194 2.974 12.92 5.87 2.01 1.563 4.025 3.57 5.527 5.505 3.268 4.211 5.41 9.193 6.18 14.365a31.175 31.175 0 0 1-.569 12.184c-2.321 9.37-9.052 17.25-17.96 21.022-4.207 1.781-8.95 2.645-13.378 2.438zm-6.868-14.205c1.544-2.325 2.8-4.236 2.79-4.246-.01-.01-.388.07-.839.178l-.82.196-1.802 2.602c-.99 1.431-1.814 2.588-1.83 2.57-.016-.016-.472-1.31-1.015-2.875-.542-1.564-1-2.872-1.017-2.905-.029-.056-.574 2.106-.572 2.267 0 .04.502 1.51 1.115 3.268A404.985 404.985 0 0 1 21 53.04c0 .052.203-.25 2.876-4.274zm-12.17 1.855c.848-.541 2.672-1.717 4.054-2.613l2.513-1.628.243-1.008c.138-.57.22-.998.19-.986-.029.011-.8.506-1.712 1.1-1.459.95-4.573 2.958-5.13 3.309l-.2.125.157-.367c.279-.646 1.378-3.167 2.011-4.61.338-.768.61-1.403.604-1.41-.006-.006-1.32.35-2.921.792-1.601.442-2.917.797-2.925.79-.007-.007.479-.777 1.08-1.71.6-.934 1.085-1.705 1.077-1.712-.008-.008-.291.146-.63.342l-.615.357-1.574 2.45c-.866 1.346-1.56 2.453-1.541 2.46.018.005 1.494-.394 3.279-.888s3.253-.89 3.263-.88c.01.009-.5 1.197-1.13 2.64-1.28 2.932-1.989 4.576-1.989 4.619 0 .037.095-.021 1.897-1.172zm37.365-.333c0-.181-.275-1.444-.609-2.798l-.324-1.313-1.047-1.081c-1.202-1.24-1.671-1.708-1.671-1.664 0 .017.17.7.376 1.516.436 1.72.69 2.829.656 2.863-.102.101-8.515-4.593-10.18-5.68-.333-.216-.565-.278-.537-.142.006.032.176.412.376.845.312.675.389.803.534.894.262.164 2.8 1.58 4.484 2.501 3.827 2.093 7.755 4.162 7.902 4.162.022 0 .04-.046.04-.103zm8.326-2.544a640.11 640.11 0 0 0-3.13-3.447 383.071 383.071 0 0 1-3.096-3.417c.005-.005 1.589-.203 3.519-.44 1.93-.238 3.566-.447 3.636-.467.116-.032-.07-.164-1.944-1.385l-2.97-1.938-.897-.588.163-.135c.29-.24.67-.409 1.36-.606 1.519-.433 2.276-.994 2.428-1.799.09-.474-.14-1.136-.544-1.568l-.22-.235-.287.231c-.487.392-1.132.684-1.994.903-.57.144-1.02.375-1.326.682-.275.275-.559.76-.654 1.117-.086.322-.292.746-.534 1.098l-.218.316 1.943 1.267c1.068.696 1.936 1.273 1.929 1.28-.008.007-1.433.19-3.167.404-1.734.215-3.167.403-3.185.418-.017.016.281.37.664.789 1.577 1.724 4.542 4.98 4.638 5.094.1.119.05.109-1.469-.288-3.61-.944-5.608-1.47-5.698-1.497-.102-.032 1.595 1.736 1.73 1.801.092.045 9.19 2.442 9.286 2.447.034.001.05-.015.037-.037zm-28.81-3.105c.45-.725.8-1.335.776-1.355a2.237 2.237 0 0 0-.343-.147c-.618-.225-1.439-.799-1.945-1.36l-.279-.309-2.115 1.72c-1.163.947-2.107 1.729-2.098 1.738.01.01 1.19-.261 2.623-.601 1.433-.34 2.626-.618 2.652-.618.038 0-.075 1.288-.193 2.18-.024.182-.018.202.039.142.036-.039.434-.664.883-1.39zm5.03-1.117c.017-.046.466.213 1.538.887.833.523 1.521.944 1.53.936.009-.01-.352-.818-.801-1.797l-.818-1.78-.41.389c-.783.741-1.837 1.219-2.954 1.337-.261.028-.318.049-.295.107.015.04.341.574.725 1.188l.697 1.116.382-1.159c.21-.637.393-1.187.406-1.224zm-1.135-1.16c1.266-.322 2.19-1.072 2.601-2.116.383-.97.287-2.323-.239-3.37-.2-.4-.411-.64-.647-.738-.513-.214-1.008.14-1.01.724 0 .133.062.453.138.711.162.547.215.839.29 1.579.155 1.532-.315 2.513-1.524 3.18-.319.175-.216.183.39.03zm8.504-.153c-.052-.04-.772-.566-1.6-1.169-.828-.602-1.505-1.109-1.505-1.125 0-.016.598-.197 1.33-.403.748-.21 1.303-.389 1.268-.408-.083-.046-3.99-1.228-4.06-1.228-.038 0-.056.139-.056.444 0 .806-.22 1.684-.607 2.423a4.694 4.694 0 0 0-.177.356c.005 0 .68.15 1.5.334a280.419 280.419 0 0 0 3.765.818c.198.047.241.034.142-.042zm-31.093-1.63c.606-.35 1.086-.652 1.066-.668-.019-.017-1.197-.314-2.619-.66-1.421-.347-2.612-.645-2.647-.663-.04-.021.583-.54 1.794-1.492 1.748-1.375 1.855-1.468 1.826-1.585-.052-.214-.322-.627-.593-.908-.42-.433-.866-.618-1.771-.735-1.465-.19-2.354-.623-2.649-1.29l-.096-.218-.114.186c-.28.46-.374 1.117-.222 1.564.11.325.553.761.976.96.407.192 1.062.362 1.67.435.262.031.601.088.756.127.294.073.74.276.737.336-.002.02-.359.314-.795.656-2.574 2.016-4.082 3.217-4.064 3.235.041.04 5.455 1.374 5.549 1.367.052-.005.59-.295 1.196-.647zm14.64.253c.965-.07 1.76-.131 1.767-.136a2.646 2.646 0 0 0-.15-.36c-.333-.725-.483-1.546-.443-2.421.026-.55.024-.561-.076-.56-.056 0-.874-.034-1.818-.075-.943-.042-1.776-.068-1.85-.06-.115.013.037.132 1.11.869.683.47 1.243.866 1.244.88.002.016-.381.457-.85.982-.47.525-.854.966-.854.98 0 .04.046.038 1.92-.099zm18.542-1.18c2.677-.917 4.022-1.483 4.976-2.096.686-.44 1.579-1.151 1.992-1.585.489-.514.73-.896.904-1.433.146-.452.292-.747.506-1.028a5.64 5.64 0 0 0 .195-.269c.057-.092-.764-1.259-.86-1.222-.227.087-.563.126-1.006.115-1.011-.026-1.298-.01-1.664.091-.487.134-1.104.408-1.729.765-1.223.7-1.97 1.286-3.161 2.482-.725.728-2.48 2.621-2.51 2.707-.009.028 1.126 1.848 1.171 1.876.001 0 .535-.18 1.186-.404zm-14.499-.405c.08-.15.061-1.388-.021-1.47-.1-.099-.275-.008-.397.204-.223.39-.118 1.187.18 1.36.111.065.166.043.238-.094zm-8.635-.874c.243-.521.442-.972.442-1.002.001-.059-1.308-1.146-2.44-2.027-1.727-1.342-2.884-1.996-4.457-2.521-1.08-.36-1.717-.425-2.458-.251-.591.139-1.125.11-1.734-.096-.245-.082-.452-.143-.46-.136-.007.008-.12.317-.248.686l-.235.67.27.167c.463.286.82.727 1.19 1.472.242.485.75 1 1.435 1.453.7.463 1.916 1.068 2.656 1.32.735.252 2.017.571 3.24.807l1.582.307c.326.063.634.112.685.107.07-.006.193-.227.532-.956zm7.314.491c.064-.186.068-1.176.005-1.342-.073-.193-.186-.205-.338-.036-.173.195-.248.485-.218.853.043.545.419.903.55.525zm10.803-2.338c.92-.308 1.672-.573 1.672-.59 0-.017-.518-.091-1.15-.165a32.203 32.203 0 0 1-1.282-.165l-.133-.03.229-.332c.97-1.408 1.71-2.537 1.589-2.425l-.145.136-.301-.168-.3-.168-1.684.633c-.926.348-1.686.63-1.69.625-.004-.004.022-.465.058-1.024.035-.56.057-1.024.048-1.033-.012-.013-.772.814-1.365 1.485-.087.098-.084.1.305.34.823.507 1.432 1.146 1.848 1.942.224.43.443 1.026.495 1.35.017.106.052.177.082.166l1.724-.577zm-10.136.356c.13-.244.097-1.395-.045-1.537-.085-.085-.271.052-.386.287-.195.397-.135.95.137 1.26.096.11.232.105.294-.01zm-1.712-.973c.765-1.63 2.34-2.772 4.166-3.016.4-.053 1.377-.034 1.613.033l.107.03V30.844l-.605.93-.604.93-1.103-1.1c-.606-.606-1.103-1.08-1.103-1.054-.002.11-.327 2.168-.344 2.186-.01.01-.551-.106-1.2-.26-.65-.154-1.196-.266-1.213-.25-.026.026-.75 2.246-.75 2.302 0 .01-.451-.13-1.001-.312-.55-.182-1.01-.321-1.022-.31-.015.016 2.799 2.376 2.861 2.4.006.002.095-.177.198-.398zM8.128 32.794c.18-.55.22-.724.171-.74-.07-.024-.45-.321-.924-.722-.558-.473-1.143-.758-1.556-.758-.57 0-1.073.59-1.12 1.313-.02.302-.01.364.097.545.066.112.182.25.257.305.412.302 1.115.53 1.959.632.247.03.525.072.616.094.091.022.188.042.215.045.027.003.155-.318.285-.714zm37.63-.02c.284-.171.802-.449 1.15-.616l.633-.305.45-.746c1.156-1.92 1.624-2.964 1.997-4.445.233-.926.279-1.281.255-1.967-.021-.607-.033-.67-.226-1.209-.18-.5-.207-.63-.226-1.071l-.021-.503-.623-.174a8.557 8.557 0 0 0-.68-.173c-.03 0-.119.092-.195.203-.195.281-.635.686-1.031.948-.77.507-1.272 1.286-1.863 2.886-.551 1.491-.747 2.765-.959 6.234-.03.499-.046.935-.034.97.02.06.59.265.766.275.049.003.321-.135.606-.307zm6.607-.067c.149-.078.455-.197.68-.265 1.216-.363 1.543-.5 1.983-.829.328-.244.516-.614.473-.927-.098-.715-.731-1.348-1.287-1.286-.475.054-1.062.467-1.635 1.152-.405.483-.909 1.003-1.107 1.141l-.134.094.365.531c.201.292.372.531.379.531.007 0 .135-.064.283-.142zm-12.02-2.015c1.15-1.215 1.575-1.7 2.11-2.418.514-.686.722-1.033 1.17-1.943.571-1.16.789-1.934.732-2.598a31.253 31.253 0 0 1-.059-.958l-.028-.616-.676-.415c-.372-.228-.693-.415-.714-.415-.022 0-.171.086-.333.192a4.308 4.308 0 0 1-.666.334c-.963.371-1.587.983-2.543 2.493-.621.98-.977 1.78-1.472 3.31-.307.947-1.04 3.538-1.01 3.568.012.011.444.263.961.56l.94.539.3-.295c.164-.162.744-.764 1.287-1.338zm-31.197.63c-.339-.422-.61-.774-.601-.782.008-.008.695-.155 1.528-.327a94 94 0 0 0 1.521-.32c.005-.005-.48-.595-1.077-1.311-.597-.717-1.069-1.309-1.049-1.316.02-.007.5.062 1.065.154.566.092 1.062.167 1.103.167.044 0-.101-.197-.36-.486-.79-.885-1.248-1.688-1.372-2.406-.114-.66-.154-.805-.312-1.135-.268-.56-.574-.824-1.448-1.253-1.236-.606-1.764-1.023-2.04-1.614-.129-.275-.143-.35-.13-.666l.016-.357h-.24c-.507 0-.983.285-1.332.796-.671.981-.435 1.93.64 2.569.41.243.756.382 1.482.594.72.211 1.083.397 1.396.713.268.27.54.757.66 1.18.085.294.304.762.462.986.112.16.109.16-.484.063-.221-.036-.41-.058-.42-.048-.01.01.072.125.182.256.24.286.246.284-.544.148-.287-.049-.53-.081-.54-.071-.021.02-.02.02 1.341 1.655.853 1.022 1.013 1.238.943 1.266-.046.018-.468.11-.938.203-1.112.222-1.034.195-.945.331.072.11.07.112-.131.145-.334.055-.343.082-.097.266.123.093.398.319.61.502.387.334.77.548 1.345.751.17.06.325.11.345.112.02.002-.24-.342-.58-.764zm13.106.27c3.048-.581 4.165-.905 5.555-1.613 1.633-.83 2.254-1.358 2.73-2.32.208-.422.341-.617.623-.912l.191-.2-.214-.7-.213-.702-.162.024c-.373.054-1.113.015-1.396-.074-.223-.07-.421-.09-.924-.087-.763.003-1.198.105-2.252.525-1.305.52-2.103.982-3.462 2.007-.646.488-2.652 2.095-2.841 2.278-.052.05.863 2.036.938 2.036.027 0 .67-.118 1.427-.263zm29.036-.402c.108-.078.35-.328.54-.557.49-.593 1.063-1.157 1.378-1.358.15-.096.272-.196.272-.223 0-.031-.092-.04-.25-.024-.713.073-.936.08-.936.03 0-.029.031-.126.069-.216l.069-.165h-.644c-.642 0-.643 0-.618-.106l.207-.834.182-.727 1.672-1.947c.92-1.071 1.663-1.956 1.651-1.968-.01-.011-.846.003-1.856.032a58.72 58.72 0 0 1-1.851.038 1.714 1.714 0 0 1 .05-.327c.083-.394.216-.654.642-1.248.397-.556.775-1.296.883-1.73.189-.757-.111-1.495-.742-1.826l-.12-.063.018.295c.011.177-.012.42-.057.601-.108.434-.488 1.175-.885 1.727-.409.569-.594.951-.66 1.367-.055.345-.005.838.12 1.18l.147.404.073.202h.422c.232 0 .422.012.422.026 0 .015-.16.212-.356.438l-.355.412v.309c-.001.914-.484 2.808-1 3.927a3.37 3.37 0 0 0-.174.412c.006.005.47-.007 1.031-.028.56-.02 1.022-.033 1.025-.029.003.005-.159.446-.36.98-.264.702-.354.995-.324 1.055.057.112.088.106.315-.059zm-32.772-.02c.048-.063.274-.316.503-.564l.417-.45-.108-.221-.107-.221.229-.2.229-.198-.81-1.222c-1.543-2.324-2.255-3.209-3.32-4.125-1.392-1.195-2.175-1.61-3.204-1.694a5.792 5.792 0 0 1-.87-.14c-.19-.053-.367-.084-.392-.068-.025.015-.27.296-.545.623-.35.418-.49.619-.467.672.128.31.214.613.279.984.185 1.07.594 1.727 1.855 2.983 1.13 1.125 2.163 1.811 5.094 3.381a29.49 29.49 0 0 0 1.098.573c.018.001.071-.05.119-.113zm2.37-4.63c.543-.184 1.002-.35 1.019-.367.03-.031-.081-1.593-.12-1.696-.011-.029-.262-.088-.558-.133a7.336 7.336 0 0 1-.688-.128c-.178-.056-.158.054-.322-1.75-.187-2.041-.23-2.928-.203-4.1l.026-1.09-.205-.288c-.249-.35-.688-.763-1-.944-.349-.2-.72-.533-.955-.853a13.149 13.149 0 0 0-.226-.302c-.009-.009-.303.095-.654.231l-.638.247-.022.504c-.02.418-.053.592-.198 1.02-.318.94-.325 1.602-.03 2.812.328 1.343.749 2.376 1.504 3.691.59 1.028 2.17 3.482 2.242 3.482.02 0 .483-.151 1.027-.336zm11.271-.45c.188-.067.672-.17 1.096-.233 1.106-.164 1.595-.331 1.975-.675.258-.233.342-.412.34-.724a1.643 1.643 0 0 0-.42-1.038c-.256-.283-.45-.357-.85-.325-.518.041-1.132.423-2.048 1.272a4.14 4.14 0 0 1-.557.43c-.145.086-.264.186-.264.22 0 .086.344 1.195.37 1.195.012 0 .173-.055.358-.121zm-4.616-1.52c.527-.12 1.38-.111 1.903.021.232.059.556.104.748.104h.338l.252-.391c.802-1.246 1.37-2.35 1.69-3.283.608-1.775.705-2.734.379-3.745-.169-.524-.239-1.294-.151-1.67l.046-.2-.607-.191a9.21 9.21 0 0 0-.653-.191c-.027 0-.106.099-.177.22-.188.32-.666.765-1.098 1.022-.768.456-1.205.982-1.746 2.1-.876 1.812-1.097 2.72-1.51 6.203-.017.152-.074.152.586 0zm10.906-.574c2.083-3.339 2.642-4.485 3.104-6.367.32-1.3.34-2.126.073-2.873-.27-.754-.345-1.13-.32-1.613l.021-.436-.55-.189a40.057 40.057 0 0 1-.626-.219c-.058-.022-.11.038-.214.244-.172.344-.725.907-1.214 1.237-.77.52-1.303 1.404-1.88 3.117a12.596 12.596 0 0 0-.548 2.44c-.151 1.173-.356 4.48-.282 4.552.04.039 1.934.652 2.037.66.028.002.208-.247.4-.553zm-15.212-.19c.07-.176.375-.928.678-1.671 1.253-3.074 1.564-4.324 1.565-6.305 0-1.118-.036-1.282-.473-2.157-.364-.728-.454-1.044-.455-1.592v-.407l-.605-.08a18.96 18.96 0 0 0-.657-.079c-.028 0-.076.102-.107.226-.116.46-.378.858-.974 1.48-.758.79-1.022 1.291-1.32 2.514-.338 1.38-.434 2.452-.36 4.053.043.955.295 3.945.335 3.979.02.017 2.018.345 2.15.353.076.005.123-.061.223-.314zm-7.893-2.39c-.584-1.417-1.057-2.583-1.05-2.592.007-.009.297.186.644.434.348.247.636.446.64.442a3.111 3.111 0 0 0-.066-.339c-.053-.228-.077-.582-.08-1.137l-.004-.806.18-.522c.42-1.218.327-1.796-.458-2.862-.852-1.158-1.146-2.058-.903-2.77.11-.322.437-.662.825-.856l.327-.163-.232-.1c-.622-.267-1.651 0-2.138.553-.285.325-.407.803-.324 1.265.115.636.28.952 1.196 2.292.37.541.478.908.448 1.518-.018.365-.058.565-.197.972a4.64 4.64 0 0 0-.203.818c-.015.168-.038.305-.05.305-.012 0-.19-.119-.396-.264-.206-.145-.375-.246-.375-.225 0 .022.128.347.285.722.156.376.284.7.284.72 0 .021-.238-.068-.53-.198-.29-.13-.546-.23-.567-.223-.034.012.232.52 1.687 3.23l.276.513-.73-.535-1.747-1.285c-.561-.413-1.026-.73-1.034-.707-.008.023.05.3.13.614.08.315.145.594.145.62 0 .026-.237-.092-.526-.262-.289-.17-.535-.3-.548-.287-.012.012.011.14.053.283.061.21.13.312.36.532.277.263.288.269.379.187.09-.082.099-.08.27.062.098.08.173.167.167.194-.011.048.166.117.45.173.184.037.184.04.056-.46-.054-.21-.09-.388-.08-.398.01-.01.35.226.755.523.405.298.937.641 1.182.764.245.123.629.348.853.502.408.28 1.567 1.217 1.63 1.32.019.03.044.044.057.032.012-.013-.456-1.182-1.04-2.599zM45.77 23.54c.12-.192.356-.498.524-.68l.308-.332-.117-.053c-.064-.03-.117-.072-.117-.094 0-.023.176-.177.391-.344.46-.356.922-.814 1.136-1.125.48-.698.5-1.453.055-2.037-.122-.16-.564-.533-.632-.533-.02 0-.05.102-.067.225-.072.543-.577 1.277-1.417 2.061-.3.28-.612.614-.695.742-.321.501-.44 1.121-.335 1.738l.06.355.337.213c.186.116.34.212.344.212.004 0 .105-.156.225-.348zm-35.55-1.251l.423-.51-.333-.315a3.338 3.338 0 0 1-.567-.71c-.477-.81-.723-1.163-1.023-1.465-.682-.684-1.262-.698-1.869-.043-.337.365-.456.696-.367 1.028.145.54.648.966 1.834 1.55.655.324.866.453 1.114.685.17.157.32.286.335.288.015 0 .219-.228.452-.508zm34.348-.948c.128-.258.284-.445.805-.96.356-.352.747-.764.869-.915.422-.523.606-1.036.505-1.41-.112-.416-.714-.87-1.234-.932-.721-.085-1.247.596-1.588 2.055-.205.88-.272 1.078-.479 1.42a3.672 3.672 0 0 0-.176.313c-.004.018.248.193.561.388l.574.358c.003.001.076-.141.163-.317zm-18.04-2.584c.62-1.506 1.14-2.737 1.155-2.737.015 0 .167.332.339.737l.312.736.18-.275c.1-.15.261-.37.358-.488l.176-.213-.508-1.176c-.28-.647-.525-1.18-.544-1.185-.02-.005-.083.108-.142.251-.059.144-.13.257-.157.25-.027-.005-.085.08-.13.19l-.08.2-.108-.266a8.419 8.419 0 0 0-.324-.664c-.252-.465-.365-.86-.365-1.283 0-.416.1-.76.38-1.318.509-1.014.69-1.647.654-2.292-.046-.833-.572-1.352-1.526-1.507-.153-.025-.286-.037-.296-.027-.01.01.022.112.073.227.276.631.131 1.421-.496 2.71-.357.732-.475 1.18-.43 1.626.041.394.113.596.456 1.277.157.313.318.697.357.854.338 1.355.097 3.645-.59 5.629-.107.306-.194.602-.194.657 0 .166.243.91.283.866.02-.023.545-1.273 1.166-2.779zm23.524 2.346c.083-.176.31-.543.507-.817.367-.512.692-1.112.783-1.446.071-.26.065-.707-.012-.891-.08-.194-.366-.446-.644-.569-.261-.115-.783-.16-1.008-.086-.57.189-.892 1.053-.892 2.401 0 .36-.03.788-.07.998a2.965 2.965 0 0 0-.06.38c.012.01 1.176.34 1.221.346.013.002.092-.14.175-.316zm-14.995-3.221c.676-1.242 1.24-2.228 1.252-2.19a9.4 9.4 0 0 1 .1.37l.076.303.135-.35c.23-.599.624-1.38.852-1.69.211-.286.25-.415.18-.594-.025-.062-.146.12-.466.704l-.433.788-.122-.509a6.64 6.64 0 0 0-.138-.524c-.009-.01-.43.743-.936 1.672-.714 1.31-.928 1.668-.956 1.598-.02-.05-.166-.655-.323-1.346a31.536 31.536 0 0 0-.324-1.347c-.032-.075-.09-.006-.339.395-.201.326-.312.466-.337.425-.064-.103-.113.186-.107.622.005.308.041.515.155.877.188.6.258 1.088.22 1.54-.024.29-.006.464.099.937.07.32.14.58.155.58.015-.002.58-1.019 1.257-2.261zm8.348 1.293c.38-1.698 1.014-2.537 1.929-2.557l.272-.006.025-.19c.065-.512.123-1.222.101-1.244-.014-.014-.385.245-.825.574-.44.33-.816.6-.834.6-.019 0-.019-.155 0-.344.031-.319.028-.34-.046-.278-.098.081-.094.087-.159-.24a4.437 4.437 0 0 0-.198-.628c-.271-.678-.304-1.281-.101-1.86.053-.152.299-.576.545-.942.81-1.2 1.06-1.976.856-2.661-.186-.625-.831-1.08-1.672-1.177-.367-.043-.425-.009-.267.155.236.246.349.564.35.985 0 .662-.222 1.205-.92 2.242-.563.836-.666 1.134-.633 1.832.018.398.049.542.19.9.361.92.395 1.74.124 3.003-.053.244-.088.451-.078.46.01.01.321-.208.693-.484.372-.275.683-.493.692-.484.01.01-.044.647-.119 1.417-.074.769-.134 1.462-.134 1.54.001.133.004.136.045.035.023-.06.097-.351.164-.648zm-10.364-4.43a4.49 4.49 0 0 1 .375-.537c.824-1.038 1.14-1.753 1.03-2.337-.044-.236-.35-.558-.684-.72-.223-.109-.331-.13-.65-.132-.45-.002-.624.088-.865.446-.28.418-.403.94-.483 2.065-.028.391-.062.777-.077.856l-.026.145.609.196c.334.108.624.197.643.199.019.002.077-.08.128-.181zm-16.213-.097c.669-.263.619-.186.528-.81a7.321 7.321 0 0 1-.053-.835c-.002-.878-.195-1.641-.505-2.004-.318-.37-.848-.433-1.436-.17-.554.25-.773.642-.671 1.202.095.52.362 1.01 1.14 2.092.104.143.236.373.293.51.058.136.106.248.108.248l.596-.233zm24.732-2.575c.044-.085.278-.453.52-.818.243-.365.496-.781.561-.925.134-.293.266-.764.265-.946 0-.461-.353-.88-.878-1.042-.777-.24-1.257-.011-1.535.73-.149.399-.196.768-.215 1.693-.01.478-.032.904-.049.947-.026.064.049.105.41.226a41.458 41.458 0 0 1 .832.287.778.778 0 0 0 .09-.152zm-16.557-1.59c.533-1.134.687-1.77.548-2.269-.157-.557-.952-.91-1.634-.723-.737.2-.97 1.095-.71 2.72.038.235.07.506.07.603 0 .16.012.178.154.203.183.033 1.071.154 1.173.16.047.002.185-.238.4-.694z"/></svg>