<svg xmlns="http://www.w3.org/2000/svg" width="64" height="64"><path d="M30.082 62.943a31.055 31.055 0 0 1-16.654-6.123c-1.677-1.26-3.946-3.407-5.19-4.911C2.65 45.157.167 36.704 1.248 28.122a30.17 30.17 0 0 1 2.842-9.555c.71-1.465 1.168-2.277 1.971-3.502A31.252 31.252 0 0 1 17.925 4.387C25.035.733 33.304.008 41.11 2.354c3.252.978 6.654 2.706 9.44 4.795 2.224 1.667 4.613 4.053 6.278 6.273 6.473 8.625 7.977 20.124 3.942 30.144a31.126 31.126 0 0 1-14.53 15.979c-4.952 2.563-10.527 3.736-16.158 3.398zm-8.286-3.384c-.119-.393-.115-1.584.005-1.98.05-.168.093-.308.093-.312 0-.004-.146-.024-.325-.046-.179-.021-.716-.15-1.194-.287a50.801 50.801 0 0 0-.884-.25c-.07 0 .017.507.162.935.455 1.345.971 1.954 1.839 2.17.392.098.4.091.304-.23zm1.246.123c.434-.142.965-.68 1.114-1.128.132-.396.097-.707-.103-.925-.237-.257-.486-.324-1.199-.324-.654 0-.657.001-.613.14.207.645.206 1.622-.003 2.273-.046.145-.04.147.223.107.15-.023.41-.088.58-.143zm5.275.058c-.208-.539-.206-1.632.004-2.326.03-.099-.025-.109-.576-.108-.733 0-.995.065-1.222.302-.25.26-.278.592-.086 1.012.282.617.681.965 1.293 1.13.479.128.64.126.587-.01zm1.176-.11c.602-.287 1.055-.932 1.423-2.029.192-.573.213-.941.05-.891-.79.242-1.707.48-1.978.511-.24.028-.33.063-.308.12.207.538.251 1.768.082 2.248l-.095.268.258-.04c.142-.022.397-.106.568-.188zm9.215-7.391c.446-.613 1.945-2.184 2.016-2.113.062.06-.07.775-.231 1.255-.098.29-.42 1.017-.595 1.344-.043.08.826-.149 1.287-.338.886-.364 1.66-.89 2.393-1.628.548-.552.77-.928.77-1.306 0-.577-.312-.685-2.109-.728-1.508-.037-1.898-.107-3.194-.574-.512-.185-.975-.336-1.03-.336-.222 0-.465.49-.73 1.472-.435 1.614-.415 2.488.07 3.004.194.207.647.444.923.48.022.004.215-.236.43-.532zm11.937.381c.641-.186 1.494-.6 2.111-1.028 1.154-.797 3.854-3.569 3.663-3.76-.023-.023-.698.12-1.5.317-1.95.48-2.31.533-3.903.574-1.52.04-1.97.111-2.52.404-.797.425-1.291 1.14-1.343 1.944-.04.622.017.865.27 1.146.173.19.664.498.796.498.015 0 .214-.24.443-.533.468-.6 1.44-1.637 1.723-1.838l.186-.132-.043.364c-.052.44-.337 1.314-.597 1.827l-.188.374h.18c.099 0 .424-.07.722-.157zM17.43 50.48c.552-.158 1.484-.586 1.903-.873.978-.669 1.885-1.93 1.896-2.635.006-.382-.16-.593-.538-.688-.285-.072-.817-.05-.963.04-.04.025-.11.228-.157.451-.111.532-.35 1.135-.703 1.772l-.285.514-.108-.204c-.199-.374-.32-1.077-.284-1.646l.032-.525-.195.04c-.93.197-1.327.236-2.769.273l-1.582.04.008.528c.01.596.204 1.296.556 1.994.242.483.62.824 1.1.997.425.152 1.419.116 2.089-.077zm9.125-2.57c.867-.152 1.704-.48 2.348-.922.462-.317 1.241-1.101 1.55-1.56.854-1.27 1.791-3.333 1.507-3.317-.026.002-.466.218-.977.481l-.93.478-.045.354c-.084.682-.454 1.662-.883 2.34l-.173.274-.084-.15c-.201-.364-.297-.842-.298-1.492l-.002-.658-.436.149c-.24.082-.947.288-1.572.457-1.246.34-1.74.555-2.163.944-.67.619-.736 1.42-.17 2.081.49.574 1.2.739 2.328.541zm31.598-5.25c.422-.157.693-.386 1.053-.89.311-.438.65-1.12.65-1.311 0-.126-.037-.132-1.185-.174-1.04-.038-1.645-.098-1.985-.197-.082-.024-.106.046-.136.406-.038.459-.276 1.091-.48 1.275-.104.095-.116.094-.174-.013-.153-.287-.267-.933-.249-1.412l.02-.5-.371-.077c-.469-.098-.853-.049-1.07.138-.373.32-.137 1.19.498 1.836.43.438 1.211.832 2 1.008.363.081 1.096.036 1.429-.088zm-51.303-.713c.077-.03.034-.09-.187-.261-.397-.31-1.064-1.16-1.191-1.52-.102-.289-.114-.3-.307-.269-.11.018-.515.009-.9-.02-.384-.03-.963-.072-1.287-.094l-.59-.04.335.32c.184.174.707.564 1.16.865.938.62 1.636.911 2.382.99.256.028.47.054.476.058a.322.322 0 0 0 .11-.03zm1.169-.227c.43-.18.603-.413.603-.811 0-.44-.196-.72-.665-.95-.335-.165-.405-.176-1.072-.167-.392.004-.819.032-.948.062l-.236.053.312.233c.402.3.956.973 1.17 1.419.157.328.179.348.354.317.102-.017.319-.087.482-.156zm5.58-.796c-.526-.427-1.253-1.403-1.255-1.684 0-.06-.01-.109-.02-.109-.259 0-1.457.21-1.589.277-.358.185-.323.464.104.84.61.538 1.67.917 2.583.926l.49.004-.314-.254zm1.201.044c.451-.21.616-.466.606-.937-.009-.39-.257-1.262-.428-1.504-.132-.187-.222-.178-.87.088-.305.125-.772.287-1.039.36l-.484.13.287.206c.378.272 1.044 1.059 1.247 1.474.098.2.202.331.263.33.056 0 .244-.066.418-.147zm35.998-.322c.61-.332.9-.863.715-1.308-.203-.486-.513-.661-1.788-1.012-.488-.134-.93-.26-.983-.28-.078-.03-.104.034-.139.34-.042.374-.43 1.252-.56 1.266-.143.016-.308-.678-.32-1.355l-.014-.679-.827-.418c-.455-.23-.852-.42-.882-.422-.17-.01.197 1.373.579 2.182.568 1.203 1.88 1.938 3.36 1.883.448-.017.588-.049.86-.197zm-17.551-5.72c0-.332.747-1.552 1.192-1.946l.187-.165-.302-.039a18.216 18.216 0 0 1-1.162-.234c-.825-.189-.863-.192-.943-.084-.134.184-.275.924-.275 1.446 0 .45.014.502.19.716.28.34 1.113.57 1.113.306zm1.488-.112a4.126 4.126 0 0 0 1.62-.96c.366-.355.493-.62.384-.795-.126-.202-.35-.252-1.12-.253l-.76-.001v.15c0 .326-.454 1.145-.976 1.76l-.28.329.334-.042c.183-.023.542-.108.798-.188zm5.49-.102c.095-.452.88-1.695 1.225-1.936.126-.088.093-.095-.464-.095-1.012 0-1.675.217-2.014.66-.148.195-.174.288-.174.615 0 .3.028.417.124.523.17.189.431.315.77.372.479.081.488.078.534-.139zm1.056.044c.934-.242 1.953-.94 3.037-2.08.357-.376.466-.527.393-.54-.057-.012-.547.079-1.09.2a17.67 17.67 0 0 1-1.37.26c-.255.027-.383.068-.383.122 0 .328-.607 1.406-1.07 1.901l-.218.233h.166c.091 0 .332-.043.535-.096zm-31.17-1.42c0-.015-.047-.217-.104-.45-.138-.56-.144-2.121-.01-2.662l.093-.38-.625-.102a17.991 17.991 0 0 1-1.672-.411c-.576-.17-1.074-.29-1.108-.27-.161.1.24 1.461.735 2.49.434.906 1.086 1.498 1.886 1.713.323.087.805.13.805.072zm1.135-.065c1.095-.286 1.941-1.197 2.008-2.164.036-.527-.129-.811-.611-1.052-.311-.156-.442-.18-1.112-.212-.677-.03-.754-.024-.72.064.202.528.248 2.18.081 2.96-.054.256-.099.472-.099.48 0 .032.106.014.453-.076zm7.809-.234c-.18-.625-.127-2.554.086-3.11.044-.111.004-.115-.985-.088-.99.027-1.045.036-1.39.21-.67.34-.808.956-.398 1.79a2.727 2.727 0 0 0 2.433 1.52l.347.004-.093-.326zm1.531.037c.549-.267 1.06-.823 1.389-1.51.517-1.08.908-2.4.742-2.503-.034-.02-.533.1-1.108.267-.576.168-1.221.338-1.434.38a5.32 5.32 0 0 0-.387.081c0 .004.045.147.099.318.194.61.182 2.586-.02 3.11-.033.089-.008.098.173.062.117-.023.362-.115.546-.205zm24.37-6.21a9.246 9.246 0 0 1 1.179-1.561l.33-.344-.03.713c-.017.392-.072.86-.122 1.039-.085.3-.084.325.013.325.058 0 .308-.097.557-.216 1.105-.53 2.18-1.694 2.18-2.36 0-.576-.277-.69-1.799-.742-1.482-.05-1.749-.094-2.977-.5-.947-.311-1.03-.329-1.102-.23-.286.385-.427 2.566-.203 3.149.244.635.869 1.079 1.522 1.08.237.002.257-.014.451-.353zm10.124.19c.403-.13 1.13-.532 1.55-.855.807-.62 2.766-3.047 2.634-3.261-.015-.024-.607.105-1.315.286-1.514.388-1.908.445-3.395.494-1.584.052-1.876.138-2.403.7-.616.66-.635 1.712-.043 2.304.21.21.624.435.806.437.055 0 .134-.075.176-.17.144-.32.861-1.347 1.28-1.834.31-.36.432-.464.473-.403.127.19-.111 1.795-.352 2.365-.053.125.037.115.589-.063zM8.672 22.958c-.522-.547-1.105-1.522-1.105-1.85 0-.119-.045-.137-.433-.173-.37-.034-2.046-.351-2.374-.45-.25-.074-.074.18.528.76 1.044 1.004 1.769 1.495 2.589 1.751.419.131.608.172.865.186.148.009.146.002-.07-.224zm1.297.14c.632-.189.884-.772.572-1.325-.294-.52-.9-.753-1.951-.753h-.692l.263.274c.476.497 1.078 1.494 1.08 1.788 0 .14.289.145.728.015zm5.537-.264c-.39-.434-.848-1.19-.941-1.557l-.07-.27-.753.022c-.887.026-1.09.108-1.09.441 0 .166.073.268.424.604.67.638 1.706 1.103 2.482 1.113l.268.004-.32-.357zm1.398.24c.138-.062.327-.204.419-.313.15-.178.168-.25.168-.664 0-.547-.15-1.268-.305-1.458l-.11-.135-.707.194c-.39.107-.833.211-.987.231-.6.079-.585.058-.271.381.483.498 1.075 1.472 1.077 1.772 0 .148.382.144.716-.008zm8.676-.83c-.2-.624-.198-1.7.005-2.226.033-.084-.018-.11-.283-.146-.177-.025-.688-.15-1.136-.279-.463-.133-.838-.21-.871-.18-.122.113.274 1.315.644 1.958.307.532 1.026 1.004 1.542 1.011.121.002.137-.02.099-.137zm1.215-.054c.797-.348 1.31-1.388.925-1.876-.219-.278-.46-.36-1.163-.396-.621-.032-.649-.028-.605.084.21.545.214 1.609.008 2.25-.046.146-.042.148.254.104.166-.024.427-.099.58-.166zm5.053-.04c-.179-.519-.174-1.44.012-2.116l.04-.15-.676.033c-.76.037-1.075.137-1.245.397-.261.399-.023 1.165.502 1.614.267.228.858.447 1.222.453l.226.003-.081-.234zm1.087.015c.53-.266.885-.737 1.245-1.652.168-.426.302-1.013.25-1.096-.028-.046-.261-.002-.728.139-.378.113-.868.24-1.09.282l-.405.077.085.283c.113.375.111 1.521-.002 1.9l-.088.29.227-.041c.125-.023.353-.105.506-.182zm9.885-5.048c.392-.19.7-.504.883-.898.326-.7.08-1.221-.62-1.317-.242-.034-.288-.022-.321.078-.255.774-.8 1.82-.896 1.72-.092-.095-.247-1-.247-1.437v-.429l-.336-.04c-.185-.02-.675-.136-1.09-.256-.415-.12-.794-.217-.843-.217-.298 0 .327 1.75.82 2.296.493.546.851.683 1.728.662.506-.012.676-.042.922-.162zm5.874.087c.497-.175.882-.528 1.16-1.064.44-.845.707-1.819.498-1.819-.04 0-.334.075-.653.167-.506.146-.583.187-.618.326-.081.326-.385.99-.626 1.37l-.25.393-.072-.268c-.103-.382-.186-.924-.187-1.213v-.248l-.76.033c-.847.037-1.095.122-1.255.43-.328.634.338 1.645 1.27 1.93.282.085 1.21.063 1.493-.037zm-37.22-1.595c.076-.247.199-.57.274-.72l.138-.27.161.363c.088.2.196.481.238.626.043.145.099.264.125.264.133 0 .608-.448.781-.737.26-.433.31-.739.17-1.035-.151-.317-.479-.458-1.08-.462a8.84 8.84 0 0 1-2.543-.36c-.46-.134-.861-.222-.89-.196-.121.11.367 1.518.714 2.06.338.528.983.909 1.55.914l.226.002.137-.449zm6.225-.125c.096-.316.224-.67.285-.788l.112-.214.124.245c.069.135.175.413.236.617.062.205.13.394.152.42.022.027.171-.067.332-.208.336-.296.751-1.088.977-1.862.19-.655.164-.698-.329-.545-1 .31-1.624.425-2.525.463-1.049.044-1.247.09-1.462.346-.304.361-.154 1.049.337 1.539.345.346.817.541 1.338.554l.25.007.173-.574zm11.619-7.927c.341-.174.468-.283.666-.571.203-.294.25-.421.272-.727.026-.357.019-.38-.191-.59-.12-.12-.244-.218-.276-.218-.031 0-.172.141-.312.314-.43.529-1.273 1.24-1.363 1.15-.074-.074.107-.917.264-1.23.084-.168.154-.313.154-.323 0-.009-.245-.033-.543-.054-.353-.025-.836-.123-1.38-.281-.46-.134-.861-.222-.89-.195-.123.113.272 1.324.64 1.962.227.395.652.751 1.076.903.245.087.456.11.891.095.506-.018.617-.044.992-.235zm6.023.043c.18-.092.432-.272.558-.4.365-.366.915-1.62.958-2.183.02-.245.012-.246-.541-.088-.277.079-.33.123-.49.414-.184.33-1.133 1.328-1.518 1.595l-.21.145.025-.435c.02-.344.072-.53.25-.887l.223-.452-.832.035c-.954.04-1.221.132-1.405.484-.14.268-.1.589.127 1.007.369.676 1.011.987 1.97.954.46-.017.614-.05.885-.189z"/></svg>