<svg xmlns="http://www.w3.org/2000/svg" width="64pt" height="64pt" viewBox="0 0 64 64"><path d="M30.504 64.387c-4.688-.223-9.043-1.375-13.078-3.453A32.128 32.128 0 0 1 4.53 48.777c-3.77-6.336-5.246-13.8-4.207-21.23A32.39 32.39 0 0 1 4.477 15.71C8.723 8.492 15.69 3.17 23.68 1.05c1.855-.492 3.683-.805 5.77-.98 1.542-.134 4.327-.071 6.058.132C46.074 1.45 55.344 8 60.18 17.637c1.894 3.773 2.98 7.718 3.351 12.175.078.946.078 3.829 0 4.774-.375 4.465-1.46 8.402-3.351 12.176-4 7.968-11.106 13.922-19.551 16.386-3.234.946-6.887 1.387-10.125 1.239zm-5.48-1.852c.167-.11.425-.523.613-.992.394-.969.77-2.234 1.652-5.496.356-1.332.758-2.797.887-3.262.133-.469.234-.86.222-.867-.007-.012-.199.02-.421.074-.528.125-1.555.285-2.301.36l-.59.058-.094.242c-.172.45-.699 2.23-.902 3.02-.527 2.133-.64 3.363-.414 4.73.152.938.496 1.828.804 2.094a.442.442 0 0 0 .543.04zm-8.305-4.793c.324-1.062.66-2.12 1.015-3.176.371-1.117.676-2.05.676-2.07 0-.023-.308-.07-.687-.101a20.74 20.74 0 0 1-1.239-.16l-.699-.126-.14-.023-.192.672c-.105.375-.273.937-.375 1.258-.168.52-.187.62-.16.902.105 1.2 1.23 4.387 1.426 4.035.02-.035.187-.578.375-1.21zm8.254-6.058c1.507-.16 2.863-.391 4.02-.684 3.374-.86 5.335-1.52 7.491-2.527 5.055-2.368 8.028-5.793 8.735-10.063.195-1.203.218-2.64.05-3.605-.644-3.715-3.57-5.93-8.8-6.672-.774-.121-1.551-.25-2.324-.395-1.356-.242-2.051-.34-4.52-.61l-4.219-.456a83.368 83.368 0 0 0-2.164-.219c-1.992-.18-3.062-.414-3.93-.867-.71-.367-1.042-.797-1.085-1.398-.051-.711.238-1.34.945-2.051.98-.985 2.648-1.875 4.914-2.617 1.332-.438 1.969-.586 3.824-.915l1.824-.316 2.813-.172c2.758-.172 3.484-.191 4.547-.14.289.015 1.265.046 2.164.074 2.73.078 3.933.297 4.41.808.242.258.281.508.156.938-.11.383-.308.562-1.058.976-1.008.563-.922.684.25.372 1.632-.438 3.488-1.051 4.398-1.461 2.113-.95 3.125-2.536 3.125-4.899 0-1.152-.21-1.957-.672-2.59-.539-.738-1.512-1.172-3.289-1.472-2.664-.453-5.46-.403-10.832.191-3.539.387-6.07.774-7.937 1.211-2.387.563-5.395 1.656-7.547 2.746-2.34 1.18-4.285 3.168-5.489 5.606-1.308 2.652-1.609 5.066-.882 7.082.195.55.476 1.007.882 1.437.782.84 1.704 1.34 3.059 1.668.922.219 2.258.402 3.39.465.614.027.7.039 2.79.266.742.078 2.59.246 4.113.367 2.484.199 5.898.57 6.395.695.093.027.492.148.89.273 1.695.54 2.8 1.055 3.262 1.524.52.527.77 1.219.77 2.156 0 .48-.02.613-.126.93-.414 1.222-1.355 2.066-3.472 3.113-1.344.668-3.567 1.563-4.766 1.922-1.285.383-4.004.992-5.215 1.168-.86.125-2.218.191-3.222.152-.516-.02-1-.039-1.082-.047-.079-.011-.34-.03-.579-.05a21.194 21.194 0 0 1-2.28-.344 22.69 22.69 0 0 0-.817-.145 1.887 1.887 0 0 1-.414-.101c-.23-.086-.461-.168-.7-.238-1.41-.43-2.316-.97-3.667-2.16-.262-.235-.559-.497-.657-.583l-.183-.156-.38.293c-.577.461-1.82 1.758-2.19 2.285-.895 1.285-1.297 2.492-1.297 3.875 0 1.328.285 2.035 1.03 2.574 1.173.836 2.891 1.563 4.966 2.094l1.418.367c1.351.348 2.695.442 6.039.422 1.757-.011 2.55-.035 3.125-.097zM22.8 37.516c.949-2.914 1.715-5.313 1.699-5.325-.027-.03-2.496-.312-2.516-.293-.023.024-3.574 10.493-3.574 10.536 0 .05 2.246.398 2.496.39l.164-.008zm5.734 4.765a48.82 48.82 0 0 0 1.598-.422l.879-.25.523-1.632c1.254-3.895 2.211-6.899 2.203-6.907-.047-.035-2.808-.351-2.828-.324-.031.035-3.168 9.617-3.168 9.676 0 .047.02.039.793-.14zm7.395-15.047c.152-.39 2.832-8.414 2.816-8.43-.039-.034-2.809-.148-2.832-.116-.066.101-2.848 8.085-2.82 8.113.027.023 2.547.488 2.73.496.047.004.094-.024.106-.063zm-7.528-4.613c.801-1.906 1.45-3.473 1.438-3.48-.035-.04-2.895.386-2.95.437-.05.055-2.343 6.215-2.316 6.242.024.016 2 .25 2.2.258l.171.004zm2.817-11.875c.734-.101 1.343-.195 1.355-.207.008-.008.375-.805.817-1.77.75-1.64 1.574-3.558 1.78-4.156l.095-.258-.11-.09c-.14-.117-.511-.195-.914-.195a10.5 10.5 0 0 0-1.285.117c-.102.024-.332.504-1.789 3.708-.828 1.804-1.355 3.043-1.3 3.043.007 0 .612-.086 1.35-.192zm9.898-.984l1.332-.059.25-.637c.14-.347.563-1.343.942-2.21a67.14 67.14 0 0 0 .8-1.876c.106-.312.133-.878.051-.968-.101-.098-.695-.14-1.195-.086-.871.086-1.41.32-1.875.797-.336.347-.57.777-.813 1.476-.093.278-.304.824-.468 1.219-.297.723-.953 2.398-.953 2.437 0 .016.136.012.3-.007.164-.016.899-.055 1.63-.086zm0 0"/></svg>