<svg xmlns="http://www.w3.org/2000/svg" width="64pt" height="64pt" viewBox="0 0 64 64"><path d="M26.438 63.328C13.777 61.02 4.078 51.895.645 39.078-.242 35.77-.207 27.895.71 24.66 3.785 13.785 10.945 5.734 20.816 2.031c13.875-5.199 29.875-.144 38.141 12.051 12.145 17.914 3.105 42.25-18.02 48.52-2.953.875-11.374 1.3-14.5.726zm13.984-24.45c.23-.89.469-.921 5.715-.804 1.87.043 3.285-.031 3.152-.168-.238-.242-5.324-1.058-10.117-1.625-1.297-.156-2.738-.43-3.2-.617l-.831-.34 1.402-.027c2.508-.047 10.2-1.504 11.488-2.172.758-.39 2.23-.652 3.68-.652 2.355 0 3.23-.496 1.621-.918-1.156-.305-1.004-1.504.605-4.703l1.403-2.793H54.12c-.887 0-1.906.57-3.703 2.07-1.363 1.144-3.281 2.582-4.262 3.207l-1.777 1.133h-6.45c-3.55 0-6.57-.117-6.706-.258-.145-.137.097-.75.53-1.36 1.556-2.19.509-2.652-2.21-.98-.879.547-1.875.992-2.215.992-.34 0-1.328.375-2.2.836l-1.585.832-12.824-.511-1.047.824c-.578.453-1.168.828-1.324.828-.586 0-2.598 1.683-2.598 2.18 0 .953 2.129 1.382 8 1.609 14.926.586 16.172.758 13.355 1.832-.53.2-.96.64-.96.977 0 .464.464.609 1.94.609 1.517 0 2.18-.215 3.02-.996 1.125-1.051 3.004-1.258 5.637-.617l1.196.285-.797.324c-2.485 1.012-2.11 1.805.859 1.805h2.21l.212-.797zm0 0"/></svg>