<svg xmlns="http://www.w3.org/2000/svg" width="64" height="64"><path d="M30.078 62.943a31.062 31.062 0 0 1-16.654-6.123c-2.235-1.68-4.566-4.01-6.245-6.245-6.241-8.304-7.889-19.4-4.328-29.152 1.254-3.435 2.987-6.44 5.382-9.335.762-.92 2.942-3.1 3.857-3.856 3.71-3.064 7.798-5.156 12.281-6.286a31.112 31.112 0 0 1 21.533 2.332 32.94 32.94 0 0 1 4.642 2.871c2.224 1.667 4.612 4.054 6.278 6.273 5.598 7.46 7.517 17.074 5.228 26.191-1.125 4.482-3.225 8.591-6.285 12.296-1.242 1.503-3.563 3.699-5.22 4.938-5.867 4.385-13.098 6.539-20.47 6.096zM11.32 44.616c1.126-.53 2.259-1.598 3.216-3.03l.412-.617-.163-.159c-.156-.151-.167-.153-.235-.043-.742 1.193-1.448 2.042-2.212 2.66-.544.44-1.16.83-1.22.77-.018-.018.165-1.146.407-2.507.242-1.36.445-2.653.45-2.872.02-.752-.279-1.423-.632-1.423h-.18l.195.278c.19.27.196.298.188.884-.007.456-.133 1.294-.508 3.386a143.37 143.37 0 0 0-.499 2.87c0 .122.228.064.78-.197zm3.912-4.166c.261-.334.552-.975.878-1.939.202-.597.496-1.342.654-1.656.241-.48.328-.594.55-.722.257-.148.669-.272.669-.202 0 .019-.084.077-.186.13-.103.053-.187.12-.187.148 0 .028.222.07.492.093.27.022.612.084.76.137.23.083.335.085.733.02.256-.042.77-.073 1.141-.068.615.009.71.027 1.06.197.21.102.443.187.515.187.073 0 .169.045.213.1.348.439.468.52.767.52.276 0 .318-.022.58-.304.263-.283.335-.32 1.012-.53.652-.204.749-.252.921-.467.303-.377.637-.486 1.71-.559 1.47-.1 2.316-.327 2.316-.622 0-.139-.047-.148-.605-.126-.45.018-.5-.064-.23-.384.087-.103.147-.218.135-.257-.036-.11-.285-.207-.82-.318-.613-.127-1.113-.091-2.25.16-.944.208-1.157.218-1.843.087-.272-.052-.566-.08-.653-.06-.087.019-.743.061-1.459.095-2.46.114-3.124.207-3.764.532-.175.088-.325.215-.358.301-.065.171-.374.28-.798.28-.148 0-.437.044-.642.097-.3.078-.458.085-.816.033a11.545 11.545 0 0 0-1.017-.085c-.554-.02-.573-.016-.536.107.106.364.326.578.792.772.256.106.53.194.609.194.079 0 .183.026.23.056.16.101.027.72-.36 1.68-.53 1.314-.674 2.105-.435 2.394.093.112.119.11.222-.021zm-2.22-.571c.375-.474.984-1.558 1.096-1.95.166-.58.108-.872-.293-1.477a9.95 9.95 0 0 1-.667-1.267c-.353-.817-.426-.891-.87-.891a.62.62 0 0 1-.425-.156.65.65 0 0 0-.375-.155.905.905 0 0 1-.391-.121c-.14-.085-.223-.103-.276-.059-.172.144-1.14-.514-1.14-.775 0-.133-.259-.324-.806-.596a9.922 9.922 0 0 1-.993-.581 6.554 6.554 0 0 0-.694-.424c-.126-.058-.344-.253-.486-.434-.141-.18-.307-.387-.369-.46-.169-.2-1.01-.457-1.491-.457-.29 0-.471-.036-.645-.13-.174-.093-.3-.118-.45-.09-.124.024-.193.067-.17.105.023.036.276.174.564.306.649.298.998.546 1.195.848.354.542.586.693 1.314.858.592.133.793.243 1.356.737.286.25.582.45.768.515.254.09.32.148.411.357.06.138.21.328.333.422.124.095.225.217.225.273 0 .056.063.17.14.255.13.143.13.15.015.106-.344-.134-.344-.134-.219.192.064.165.158.381.209.48.114.217.084.316-.189.603l-.212.224.198.167a2.8 2.8 0 0 0 .454.295c.14.07.34.192.445.27.152.114.243.135.466.11.334-.038.766.07.926.23.065.065.192.358.281.652.166.543.266.664.435.524.051-.042.112-.06.134-.037.034.034-.133 1.109-.268 1.725-.032.148-.021.163.1.131.074-.02.238-.166.365-.325zM29.21 38.81a22.34 22.34 0 0 1 1.572-.954c.672-.354.674-.355 1.098-.32.233.02.656.078.94.129.283.05.892.137 1.352.192.461.055 1.159.14 1.551.19.392.05.957.09 1.254.09.298 0 .836.045 1.196.098.478.072.709.08.855.034.11-.035.52-.122.913-.195a15.933 15.933 0 0 0 1.644-.434c1.249-.406 1.916-.57 2.326-.57.187 0 .787.013 1.333.029.874.024 1.07.01 1.644-.116 1.548-.342 3.396-1.046 4.522-1.724.19-.114.64-.313.998-.44s1-.384 1.427-.57c1.093-.476 1.936-.795 2.503-.947 1.017-.272 2.247-.894 2.83-1.43.377-.348.391-.37.231-.37-.15 0-.166-.018-.131-.156.032-.128.016-.155-.09-.155-.093 0-.118-.028-.09-.1.03-.078.01-.091-.088-.06-.085.027-.139.008-.164-.058-.02-.054-.073-.091-.116-.083a.985.985 0 0 1-.28-.033c-.25-.06-.273-.192-.024-.142.098.02.208.004.248-.036.053-.053.07-.05.07.01 0 .057.05.07.166.04.104-.026.182-.013.212.036.037.06.07.059.15-.008.083-.069.112-.07.152-.005.039.063.079.064.187.006.126-.067.134-.062.095.061-.038.12-.029.127.083.068.098-.053.13-.048.145.021.015.064.142.007.457-.202.24-.16.575-.379.744-.488.4-.256 1.253-1.084 1.332-1.292.081-.213.079-.588-.004-.588a.866.866 0 0 0-.245.093c-.34.177-1.192.34-1.768.34-.447.001-.603.026-.776.126-.385.222-.735.365-1.752.714-.549.189-1.151.43-1.338.538-.303.173-.432.203-1.214.28-1.007.099-1.165.157-2.127.783-.814.53-.887.61-.887.973 0 .228-.033.318-.16.437-.137.13-.213.148-.555.139-.382-.01-.409 0-.799.287-1.189.877-3.878 1.947-4.394 1.748-.094-.037-.17-.095-.17-.13 0-.222-.524.159-.784.57-.15.238-.333.315-.333.14 0-.284.723-1.428 1.29-2.042.229-.248.57-.64.757-.87.498-.614 1.218-1.039 2.16-1.275.24-.06.265-.083.247-.234-.017-.152-.042-.166-.276-.162-.348.007-1.119.296-1.576.592-.207.133-.581.328-.832.434a3.737 3.737 0 0 0-.806.486c-.212.18-.523.362-.796.467a5.092 5.092 0 0 0-.594.263c-.081.05-.473.198-.87.328l-.723.235-1.022-.033-1.022-.033-1.178.283c-.648.156-1.332.301-1.52.323-1.148.135-2.348.526-3.45 1.123-.422.23-.99.455-1.15.457-.023 0-.06-.081-.082-.182-.05-.223-.189-.275-.587-.22-.419.057-.46-.048-.134-.35.222-.204.25-.257.193-.363-.088-.164-.413-.164-1.06.001-.976.25-2.19.772-2.444 1.053-.171.189-.059.248.466.248.27 0 .778.057 1.129.126.35.069.845.153 1.1.186.43.056.63.135.55.217-.02.018-.213.062-.43.097-.43.068-1.444.452-2.468.932-.355.167-.696.303-.758.303-.063 0-.156-.082-.209-.185-.137-.264-.685-.656-1.151-.823-.346-.124-.511-.143-1.207-.138-.715.005-.855.025-1.24.171-.354.135-.4.167-.248.172.102.003.507.027.899.053l.713.046.5.311c.334.208.598.324.794.351.39.054.509.125.692.416.085.134.154.255.154.268 0 .013-.109.096-.242.184-.26.173-.316.143-.316-.167 0-.177-.111-.287-.292-.287-.122 0-.142.032-.142.224 0 .207.157.92.228 1.035.04.066-.018.1 1.012-.587zm-7.032-.017c.234-.118.622-.376.86-.574l.435-.36-.279-.037c-.253-.034-.307-.016-.589.195-.374.279-.911.555-1.08.555-.187 0-.208-.097-.078-.354.065-.13.19-.433.277-.676l.158-.44-.538-.143c-.574-.152-1.39-.239-1.283-.136.035.033.335.149.667.258.333.11.605.223.605.253s-.098.276-.217.548c-.249.566-.25.571-.12.82.187.363.578.393 1.182.09zm21.905-.258a6.436 6.436 0 0 0 1.768-.717l.448-.27-.384-.017c-.31-.015-.443.01-.688.135-.403.204-1.06.423-1.133.377-.033-.02-.06-.075-.06-.121 0-.153-.224-.163-.846-.04-.336.067-.834.14-1.107.162a5.515 5.515 0 0 0-.98.192c-.266.083-.537.15-.601.15-.065 0-.137.032-.162.072-.06.098 2.151.023 2.72-.092.23-.046.417-.068.416-.048a.556.556 0 0 1-.093.158c-.183.242-.142.245.702.06zM9.35 35.684l.14-.097-.188-.175c-.104-.097-.188-.222-.188-.278 0-.104-.535-.633-1.786-1.764-.582-.526-.724-.626-.837-.59-.433.138-.793.21-1.06.21l-.303.001.042-.233c.114-.622.112-.662-.037-.882-.312-.459-1.343-1.15-2.4-1.608a9.73 9.73 0 0 1-.869-.424l-.286-.171.267-.02c.147-.01.478.025.735.078.461.095.47.095.644-.043.097-.077.178-.158.18-.182.007-.087-.978-.268-1.463-.268-.41 0-.53.023-.636.119-.13.117-.165.308-.092.499.065.168.55.462 1.39.838.85.382 1.691.904 2.038 1.264.205.214.208.225.14.498-.182.722-.02.97.638.97.21 0 .543-.043.74-.094l.36-.094.233.202c1.11.962 2.36 2.144 2.361 2.234.001.134.057.136.237.01zm39.328-1.981c.837-.36 1.572-.698 1.633-.754a.349.349 0 0 0 .112-.216c0-.09-.047-.114-.232-.113-.439.003-.72.105-.919.333-.196.225-1.278.778-1.956 1-.487.159-.811.335-.763.412.089.144.658-.033 2.125-.662zm-31.31.061c.112-.058.415-.131.673-.162.979-.118 1.292-.286 2.328-1.248l.494-.458-.236-.45c-.13-.247-.225-.46-.21-.474.046-.047.948.233 1.333.415.376.177.392.18.586.08.192-.1.195-.107.079-.194-.379-.285-1.275-.629-1.964-.755-.57-.104-.677.16-.35.87.23.499.268.424-.551 1.107-.63.525-.747.574-1.633.677-.305.036-.626.115-.77.191-.154.081-.32.12-.435.103-.465-.069-3.691-.93-4.528-1.21a45.306 45.306 0 0 0-2.41-.691c-1.29-.332-1.797-.488-2.608-.803-.167-.065-.174-.063-.093.04.143.182.261.26.49.326.12.033.368.175.553.314.185.138.375.237.424.218.049-.019.163.008.254.059.09.05.695.23 1.343.4s1.563.436 2.032.592c.469.157 1.625.48 2.569.717s1.732.449 1.752.469c.065.067.668-.025.878-.133zm5.22-1.544c1.122-.442 9.874-3.231 10.902-3.475.256-.06.605-.152.775-.204.171-.05.627-.172 1.014-.268.721-.18 1.029-.32.986-.45-.037-.113-.323-.122-.682-.022-.179.05-.465.11-.635.133-.17.022-.478.092-.683.154-.204.063-.581.162-.837.222-.651.151-2.52.728-6.45 1.991-1.86.598-3.479 1.116-3.598 1.153-.302.091-1.39.64-1.512.763-.112.112-.135.278-.04.278.035 0 .377-.124.76-.275zm6.033-.958c.819-.314 1.712-.627 1.985-.696.273-.069.817-.219 1.21-.334.392-.115 1.02-.28 1.395-.367a20.433 20.433 0 0 0 4.342-1.526c.41-.196.981-.435 1.271-.53.627-.204.782-.311.542-.371-.186-.047-.75.104-1.16.31a4.425 4.425 0 0 1-.622.24 2.4 2.4 0 0 0-.569.255c-.125.086-.46.224-.744.308-.284.084-.726.225-.982.313-.256.09-1.01.303-1.675.475s-1.344.37-1.51.442c-.165.07-.64.22-1.054.33-.812.217-3.1.97-3.286 1.082a3.48 3.48 0 0 1-.504.189c-.39.12-.717.321-.717.441 0 .158.687-.027 2.078-.561zm21.937-.388c-.395-1.114-.454-1.231-.623-1.232-.176 0-.19-.064.254 1.25l.327.972.146-.142.146-.142-.25-.706zm.857.448c-.001-.148-.396-1.297-.563-1.636-.112-.23-.175-.293-.272-.278-.153.024-.159 0 .22 1.056.168.47.306.905.306.967 0 .062.018.131.041.154.06.06.269-.146.268-.263zm.5-.794c-.353-1.044-.493-1.32-.67-1.32-.118 0-.146.024-.12.108.02.06.176.508.35.997.172.49.313.949.313 1.022 0 .128.006.127.166-.033l.166-.166-.205-.608zm.769.544c.104-.116.1-.146-.09-.729-.287-.874-.488-1.305-.626-1.341-.065-.017-.133-.006-.152.024-.019.03.062.314.18.63s.28.79.36 1.055c.08.264.162.48.182.48.02.001.086-.053.146-.12zm.566-.886c-.062-.18-.2-.53-.307-.776-.162-.375-.218-.449-.34-.45-.18-.001-.175.03.172.95.14.368.253.73.253.804 0 .13.007.128.168-.034l.168-.167-.114-.327zm-1.276-1.758c.733-.075 1.04-.134 1.295-.249.542-.245 1.021-.291 2.178-.21.656.045 1.637.055 2.73.028 1.663-.041 2.654.008 3.236.16.175.047.287.037.48-.04.14-.056.237-.126.219-.156-.063-.102-.862-.3-1.467-.364-.332-.035-1-.064-1.486-.064s-1.192-.03-1.569-.067a99.884 99.884 0 0 1-3.665-.432c-.871-.126-1.336-.112-3.173.096-1.051.119-1.732.117-2.314-.006-.525-.11-.957-.087-1.105.06-.167.168.023.281.582.35.27.033.772.102 1.113.152.34.051.818.093 1.06.094.456 0 .832.091.832.199 0 .034-.059.144-.13.244-.158.222-.116.394.084.341.076-.02.571-.081 1.1-.136zm7.927.024c.01-.058-.034-.133-.1-.168-.157-.085-.36.053-.301.205.053.14.373.11.401-.037zm-24.33-1.108c.108-.09.443-.849.56-1.269.061-.22.115-.701.132-1.178.023-.669 0-.97-.132-1.766-.088-.528-.16-1.044-.16-1.148 0-.104-.07-.32-.155-.48-.085-.16-.156-.383-.157-.496-.002-.197-.005-.2-.099-.08-.128.163-.082.95.132 2.25.178 1.086.198 1.91.06 2.568-.095.461-.412 1.207-.66 1.554l-.135.191.271-.043c.15-.024.304-.07.343-.103zm8.247-.712c.55-.116 1.364-.116 2.992 0 1.38.098 4.38.155 4.307.08-.065-.064-.952-.165-2.058-.234a65.986 65.986 0 0 1-1.613-.121 68.347 68.347 0 0 0-1.985-.133l-1.333-.072-.559.17c-.638.196-.899.316-.899.414 0 .08.477.036 1.148-.104zm-.703-.59l.228-.063-.314-.293c-.173-.161-.851-.935-1.507-1.72-.656-.784-1.359-1.584-1.562-1.776-.882-.839-2.032-1.323-3.322-1.4-.525-.031-.605-.023-.605.062 0 .339.74 1.339 1.144 1.548.786.406 1.45.84 1.604 1.05.11.147.115.197.05.451-.083.334-.048.429.307.818a2.7 2.7 0 0 1 .334.45c.093.178.124.193.424.193.178 0 .686-.072 1.128-.158l.804-.158.488.53c.269.292.507.53.53.53.023 0 .144-.03.27-.064z"/></svg>