<svg xmlns="http://www.w3.org/2000/svg" width="64pt" height="64pt" viewBox="0 0 64 64"><path d="M30.898 63.563a33.426 33.426 0 0 1-6.496-.922C14.027 60.098 5.532 52.52 1.898 42.559a31.519 31.519 0 0 1-.921-18.551A31.541 31.541 0 0 1 5.07 14.66c2.528-3.914 6.012-7.316 10.043-9.816C22.035.55 30.371-.961 38.465.602c4.832.933 9.547 3.046 13.418 6.02 2.086 1.6 4.187 3.663 5.746 5.644 6.496 8.27 8.48 19.164 5.293 29.078-3.25 10.12-11.453 18.047-21.7 20.976-3.308.946-7.038 1.395-10.324 1.242zm-13.62-14.415c4.382-.18 8.605-.52 13.843-1.12 8.508-.973 15.012-1.376 22.426-1.383 1.969 0 3.586-.016 3.586-.032 0-.015-.016-.101-.035-.187l-.032-.16-4.046.027c-3.5.023-5.856.086-7.98.203-5.278.293-8.97.606-13.622 1.145-4.707.547-8.41.867-12.266 1.07-3.968.203-8.875.203-11.304 0-.2-.02-.399-.035-.598-.05-.027 0-.133.07-.238.144-.176.14-.18.144-.067.172.293.066 2.39.187 3.98.242.891.027 5.087-.02 6.352-.07zM6.96 48.512c.094-.082.098-.125.062-.59L6.86 45.77c-.12-1.59-.257-3.18-.418-4.766-.226-2.309-1.222-9.043-1.82-12.305-.152-.812-.129-.75-.32-.75a.627.627 0 0 0-.172.012c.64 3.363 1.18 6.75 1.617 10.152.356 2.828.785 7.344.918 9.649.059.949.063.96.297.75zm52.098-2.547c.027-.504.015-.73-.032-.867-.035-.098-.043-.192-.023-.203.121-.04.242-.075.367-.102.188-.04.399-.105.473-.14.285-.15.625-.575.761-.958.063-.175.063-.187-.023-.187a.604.604 0 0 1-.168-.028c-.055-.02-.113.047-.21.247-.2.394-.477.636-.84.707-.669.136-1.145.43-1.536.945-.371.492-.52.906-.433 1.184.039.105.046.105.835.093l.797-.011zm-36.782.402c2.035-.031 4.828-.058 6.211-.066 1.38-.004 3.375-.035 4.43-.063 4.75-.14 6.777-.207 7.809-.261.609-.032 2.242-.059 3.62-.059 2.403-.004 2.528-.008 2.883-.11.204-.054.446-.132.543-.171.168-.07.16-.075-.343-.094-1.125-.04-4.73-.004-6.903.074-6.382.223-10.265.297-15.859.297-4.605 0-6.375-.035-9.555-.168-2.738-.117-5.672-.312-7.644-.516l-.328-.035.027.48c.012.266.043.497.059.513.015.023 1.128.07 2.464.113 1.344.043 2.575.086 2.739.094.785.035 6.562.02 9.847-.028zm29.13-1.992c.023-.125-.13-.18-.684-.242-.383-.043-.59-.043-.883 0-.317.05-.438.05-.7-.012a6.303 6.303 0 0 0-.605-.098 11.51 11.51 0 0 1-.64-.101 31.377 31.377 0 0 0-1.66-.25l-.282-.031-.016-.32-.015-.325h-.297l-.012.324-.011.32-.235-.019c-.32-.031-1.09-.144-1.562-.234-.215-.04-1.293-.125-2.387-.196a72.041 72.041 0 0 1-3.055-.242 18.218 18.218 0 0 0-1.379-.125c-.175 0-.55-.05-.832-.117-.465-.11-.547-.113-.922-.062-.324.042-.449.039-.605-.008a.846.846 0 0 0-.383-.04 1.356 1.356 0 0 1-.484-.046c-.371-.094-.766-.055-.766.078 0 .27.7.441 1.832.441.332 0 1 .043 1.492.094 1.735.184 2.278.223 2.942.203.375-.008.793.008.937.04.145.03.582.085.977.124.39.043.836.094.984.121.149.028.766.075 1.38.102.609.027 1.32.074 1.573.11l.47.058.015.156c.008.082.047.176.086.207.101.086.265-.023.265-.176 0-.129.004-.129.309-.097.172.02.578.054.906.078.328.027.895.094 1.254.152.48.07.883.102 1.45.102.495-.004.902.023 1.081.062.364.082.442.07.461-.031zm7.89-.984c.031-.04.039-.078.016-.09-.079-.047-3.079-.977-4.13-1.274-1.132-.32-2.265-.636-3.398-.949-1.273-.351-2.351-.648-2.402-.664-.047-.016-.082-.07-.082-.137 0-.23-.278-.289-.336-.074-.012.055-.05.09-.078.082-.032-.012-2.746-.762-6.028-1.668l-5.972-1.648v-.352c0-.246-.024-.367-.078-.426-.18-.175-.317-.015-.317.371 0 .254-.008.29-.086.262-.05-.011-1.926-.527-4.164-1.148-4.265-1.172-4.222-1.164-4.222-.914 0 .054.05.113.109.136.062.028 1.664.473 3.562 1l4.11 1.13.664.183.027.316c.028.356.063.438.2.438.124 0 .19-.145.19-.414 0-.192.016-.219.09-.2.048.016 2.036.563 4.423 1.223 8.074 2.227 7.558 2.078 7.558 2.172 0 .133.152.188.297.102.117-.067.363-.008 4.383 1.105a518.52 518.52 0 0 1 4.828 1.34c.644.18.754.191.836.098zm-9.367-.04c.144-.144-.024-.374-.2-.277-.144.082-.078.336.086.336.032 0 .079-.027.114-.058zm10.797-.203c0-.277-.067-.343-.477-.46-.34-.102-.676-.2-1.012-.31l-.629-.19v-.575l-.125.055c-.082.039-.12.098-.12.176 0 .101-.02.113-.126.09-.136-.036-.27-.094-.515-.227-.09-.055-.18-.074-.196-.05-.035.058-.347-.071-.347-.137 0-.036-.055-.083-.13-.114-.097-.047-.132-.047-.163.004-.055.09-.297-.015-.297-.133 0-.058-.055-.113-.156-.144-.13-.047-.153-.043-.176.035-.02.082-.043.09-.164.047-.114-.043-.14-.07-.117-.156.02-.086 0-.121-.102-.164-.18-.083-.219-.075-.219.035s-.043.12-.222.05c-.094-.035-.125-.078-.125-.19 0-.126-.032-.161-.176-.224-.067-.027-.133-.05-.192-.074a.417.417 0 0 0-.046.145c-.028.144-.028.144-.215.078-.172-.059-.188-.074-.168-.235.015-.164.004-.183-.168-.253a3 3 0 0 0-.2-.075c-.011 0-.019.078-.019.176 0 .164-.008.172-.121.149-.356-.09-.387-.118-.36-.325.028-.175.016-.203-.113-.27-.21-.109-.242-.089-.242.126s-.023.222-.281.12c-.168-.073-.172-.077-.149-.292.02-.207.012-.227-.113-.293-.203-.105-.246-.09-.25.086 0 .266-.05.309-.273.223l-.192-.079.016-.261c.016-.258.016-.262-.156-.344-.2-.094-.23-.074-.23.152 0 .274-.044.313-.266.223l-.188-.078.027-.281.032-.282-.235-.101-.23-.102-.035.274a1.718 1.718 0 0 1-.059.293c-.012.011-.125-.016-.246-.063l-.227-.086.028-.246c.015-.137.039-.277.05-.312.016-.063-.406-.286-.453-.243a2.489 2.489 0 0 0-.05.325c-.028.254-.047.297-.114.27-.07-.028-.144-.06-.218-.083l-.141-.05.055-.708-.207-.074a2.271 2.271 0 0 0-.246-.082c-.016 0-.036.106-.04.234 0 .125-.015.278-.039.332l-.027.102-.254-.113-.258-.11.055-.718-.207-.082c-.117-.047-.219-.075-.234-.063a2.24 2.24 0 0 0-.047.344c-.016.176-.043.316-.063.308-.086-.035-.176-.074-.27-.109l-.238-.09.063-.738-.211-.086a1.263 1.263 0 0 0-.242-.082c-.016 0-.04.14-.051.312-.012.172-.031.325-.047.34-.012.012-.144-.023-.285-.086l-.258-.105.031-.371.036-.367-.258-.11c-.145-.054-.27-.093-.278-.086-.023.114-.039.227-.046.34-.016.18-.051.324-.07.324-.02 0-.184-.062-.364-.144-.258-.117-.324-.164-.305-.23.016-.051.032-.208.04-.356l.015-.262-.223-.11c-.308-.152-.34-.144-.34.079 0 .098-.015.254-.035.34-.023.12-.047.148-.125.12a83.452 83.452 0 0 1-1.715-.722c-1.578-.672-1.628-.691-1.656-.582a.39.39 0 0 1-.562.246l-.145-.074-.133.297-.129.293-.203-.027c-.199-.028-1-.297-2.343-.79-.395-.144-1.094-.39-1.563-.554-.91-.313-1.082-.383-1.332-.567l-.16-.12v-1.497l-1.219-.508C23.508 28 16.051 25.598 10.88 24.863c-1.992-.281-3.953-.347-5.688-.191-.855.074-1.746.191-1.785.23-.011.012.04.23.121.477.164.496.375 1.394.47 1.969l.058.367.27-.027c1.058-.122 1.675-.145 3.648-.149 2.597-.004 4.07.09 6.203.39 2.742.384 4.418.813 7.707 1.97l2.097.738v1.133c0 1.058.008 1.136.09 1.183a.534.534 0 0 1 .172.211c.078.148.082.094.082-1.117 0-.703.008-1.277.016-1.277s1.765.625 3.902 1.39c2.14.762 4.238 1.512 4.664 1.664l.778.274v.57c0 .453.015.574.074.629.062.043.101.047.164.012.066-.04.086-.157.105-.575l.024-.523.222.18c.305.254.52.343 1.973.855l2.36.832c.886.313 1.167.387 1.43.399.28.007.687.144 3.194 1.043 4.067 1.46 5.45 1.94 7.942 2.77 3.77 1.253 8.45 2.745 9.09 2.898.422.101.465.097.465-.04zm-13.543-.175c.183-.098.09-.391-.13-.391-.206 0-.292.219-.14.363.09.09.14.094.266.028zm-29.067-.875c0-.41.016-.535.067-.535.035 0 .882.042 1.882.093 3.125.16 3.172.164 3.172.11 0-.125-2.37-.516-4.293-.711-.402-.043-.75-.075-.777-.075-.035 0-.05-.27-.05-.75 0-.625-.013-.757-.075-.808-.059-.047-.102-.05-.164-.016-.07.043-.082.164-.094.79-.012.667-.02.734-.101.734-.391-.02-.778-.047-1.168-.07-2.098-.141-3.286-.18-6.54-.208-3.222-.027-3.285-.023-3.285.067 0 .054.032.36.07.676.044.32.075.597.075.617 0 .02.062.015.129-.012.234-.09 1.418-.281 2.187-.36 1.13-.109 2.215-.171 3.84-.218 1.344-.04 1.918-.027 4.09.082l.668.035.012.535c.011.426.027.547.093.594.055.039.106.043.168.012.082-.043.094-.114.094-.582zm5.785.527c.063-.09.078-.281.078-1.074 0-1-.027-1.156-.195-1.156-.172 0-.2.156-.2 1.187 0 .84.013 1.004.075 1.074.106.098.152.094.242-.031zm20.184-.121c.168-.149.05-.453-.172-.453-.133 0-.281.136-.281.258 0 .234.277.351.453.195zm15.906-.332c-.254-.274-.676-.914-.894-1.352-.094-.18-.188-.32-.215-.312-.035.012-.047.144-.04.328.016.262.055.367.208.629.363.605.46.71.773.816.395.137.399.133.168-.11zm-17.71.047c.16-.239-.048-.516-.337-.446-.148.04-.242.239-.187.395.082.207.398.242.523.05zm-4.688-.653c.125-.132.086-.386-.078-.504-.118-.085-.149-.09-.286-.035-.363.149-.273.633.118.633a.36.36 0 0 0 .246-.09zm12.414.063c.094-.035.101-.227.008-.305-.145-.12-.348.117-.223.266.066.078.098.082.215.039zm8.355-.188c.117-.062.102-.074-.652-.433-.426-.2-1.168-.543-1.652-.766a420.868 420.868 0 0 1-8.403-3.937c-2.254-1.09-4.27-2.055-6.605-3.164-1.246-.59-1.43-.664-1.496-.606-.063.059-.032.133.234.559.164.265.328.508.363.535.032.027.516.246 1.07.484 1.934.832 5.016 2.196 6.137 2.711 2.461 1.133 4.086 1.84 8.489 3.711 1.265.54 2.316.973 2.343.973a.551.551 0 0 0 .172-.067zm.07-.41a88.524 88.524 0 0 0-1.894-1.023c-6.191-3.301-8.309-4.598-13.937-8.551-.844-.594-.989-.71-.895-.738l.113-.024-.101-.133c-.059-.066-.336-.257-.621-.421l-.516-.297-1.355.031c-.747.016-1.356.05-1.356.07 0 .024.145.278.324.575l.328.543h.727v.59c0 .69.031.788.191.597.09-.117.106-.195.106-.633v-.5l2.375 1.301a947.144 947.144 0 0 1 6.933 3.824c1.954 1.082 3.036 1.664 3.743 2.02.601.3 5.828 2.808 5.863 2.812.012.004 0-.015-.027-.043zm-11.035-.11c.067-.089.067-.12.008-.206a.25.25 0 0 0-.176-.098.251.251 0 0 0-.18.098c-.058.086-.058.117.013.21.039.055.113.102.167.102.051 0 .125-.047.168-.101zm11.106-.398a14.47 14.47 0 0 0-.785-.476c-.778-.453-1.551-.91-2.328-1.371l-.614-.352-.453-.265v-3.047l-.203-.18c-.332-.297-.68-.426-1.246-.46-.438-.028-.54-.056-.848-.212-.468-.234-1.058-.68-1.465-1.105l-.328-.344v.531l.352.32c.195.176.504.418.691.543.235.153.336.254.336.32 0 .087.012.09.07.04.063-.047.106-.047.223-.004l.14.062-.19.172-.196.172v2.016l1.344.804c1.34.801 1.71 1.008 1.812 1.008.028 0 .145.059.258.13.114.073.942.546 1.836 1.05 1.469.828 1.625.906 1.64.809.009-.055-.015-.133-.046-.16zm-18.813.164c.063-.035.051-.042-.046-.042-.067 0-.247-.083-.403-.172-.254-.157-.344-.18-.914-.25a17.287 17.287 0 0 1-1.098-.164 24.9 24.9 0 0 0-2.144-.32 9.095 9.095 0 0 1-.86-.122 31.693 31.693 0 0 0-1.035-.168c-.593-.082-1.523-.27-2.562-.511a19 19 0 0 0-1.317-.243c-1.18-.168-3.332-.715-3.828-.972-.398-.203-.632-.192-.722.035a.23.23 0 0 0 .027.234c.059.094.137.117.43.145a9.677 9.677 0 0 1 2.113.433c.54.176.86.242 1.723.367.77.118 1.53.258 2.289.418 1.312.286 2.379.48 2.98.532.203.015.637.097.961.172.324.078.793.152 1.035.168.242.02.7.09 1.012.152.805.172 1.863.351 2.09.355a.57.57 0 0 0 .27-.047zm6.27-.027c.11-.101.113-.203.008-.32-.164-.176-.414-.082-.414.156 0 .23.222.324.406.164zm4.121-.285c.105-.125.047-.242-.117-.242-.102 0-.156.023-.168.086-.02.101.074.23.168.23.031 0 .09-.035.117-.074zm-19.996-.074c.203-.203.035-.582-.25-.582-.133 0-.34.21-.34.343 0 .282.39.434.594.239zm28.68-.028c.02-.015-.078-.289-.211-.605-.184-.477-.36-.957-.52-1.45l-.34-1.05c-.058-.188-.062-.164-.066.383-.008.578 0 .597.238 1.289.34 1 .461 1.246.653 1.363.175.106.203.113.246.07zm-16.215-.468c.062-.121.062-.149 0-.27-.188-.328-.711-.086-.535.246.078.149.14.184.312.164a.26.26 0 0 0 .223-.14zm6.035-.016c0-.117-.02-.148-.133-.16-.101-.012-.14.008-.164.09-.043.129.055.254.191.23.079-.011.106-.05.106-.16zm-1.121-.227a.207.207 0 0 0-.067-.34c-.105-.05-.14-.038-.23.048-.09.09-.098.12-.047.23.063.129.242.168.344.063zm-25.563-.054c.157-.09.301-.32.301-.485 0-.21-.14-.464-.293-.546a.614.614 0 0 0-.715.086c-.418.378-.168 1.007.399 1.003.105.004.21-.02.308-.058zm35.461-3.274a.489.489 0 0 0-.164.024l-.144.039-.024 3.031.32.195.016-1.636c.004-.903.004-1.64-.004-1.653zm-17.175 3.149c.128-.102.156-.36.039-.469-.137-.137-.325-.14-.457-.008-.16.164-.16.336.003.469.16.125.27.125.414.008zm5.921-.258c.075-.11.004-.32-.109-.355-.242-.079-.418.14-.297.359.067.125.328.125.41 0zm-8.191-.332c.137-.133.129-.32-.02-.465-.148-.144-.265-.152-.437-.02-.25.196-.11.583.21.583a.395.395 0 0 0 .247-.098zm6.531-.168c.176-.176.074-.418-.18-.418-.28 0-.355.34-.105.484.121.075.152.067.285-.066zm11.625-.281c.164-.188.317-.383.457-.59.188-.274.227-.379.242-.606.04-.488.004-.507-.207-.128-.27.484-.632.988-.863 1.207l-.195.195.133.086a.63.63 0 0 0 .168.09c.015 0 .136-.114.265-.254zm-21.195-.145c.148-.07.184-.136.184-.304 0-.317-.387-.442-.59-.188-.125.152-.102.332.054.465.121.101.207.11.352.027zm7.793-.054c.058-.043.094-.13.094-.23 0-.27-.313-.388-.512-.192-.27.265.11.64.418.422zm-2.274-.668a.31.31 0 0 0 .031-.48c-.199-.204-.538-.056-.538.237 0 .141.187.34.316.34a.407.407 0 0 0 .191-.097zm-21.976-.57c.031-.032.047-.06.027-.06-.015 0-.558-.109-1.203-.238-1.055-.214-1.332-.254-2.773-.363l-2.364-.184c-.859-.07-5.199-.09-5.718-.027l-.325.043.032.211c.039.25.144.383.406.512.219.113.297.113.562.02.286-.094 1.422-.25 2.336-.321.727-.05.86-.043 2.782.121 1.804.156 3.539.29 4.457.34.648.039 1.726 0 1.78-.055zm19.668-.09c.11-.044.23-.286.191-.391-.062-.168-.18-.262-.336-.262a.326.326 0 0 0-.293.16.312.312 0 0 0-.004.324c.098.188.247.243.442.168zm13.324-.325v-.203l-.71-.441-.712-.438-.008-.726c-.035-3.422-.03-3.286-.148-3.41-.203-.212-.676-.403-1.113-.45-.653-.07-1.282-.449-2.227-1.351a10.87 10.87 0 0 1-.816-.86l-.344-.418-.02.246c-.011.204.008.278.118.426.265.348 1.402 1.414 1.824 1.7.344.238.41.3.336.331-.184.059-.586.254-.672.325-.074.058-.086.187-.098 1.062l-.011 1-.766-.535c-.68-.473-1.637-1.008-1.797-1.008-.105 0-.023.227.137.41.16.172 1.527 1.098 3.629 2.457 1.222.793 3.3 2.086 3.367 2.09.02 0 .035-.09.031-.207zm-28.039-.027c.094-.055.254-.559.21-.645-.026-.039-.16-.125-.304-.187l-.281-.13c-.008-.007.063-.108.164-.218a3.2 3.2 0 0 0 .352-.55c.199-.395.25-.465.355-.465.152 0 .258-.153.258-.372 0-.277-.09-.628-.18-.703-.078-.062-.078-.066-.61.364-.327.261-.347.289-.273.367.11.12.094.238-.07.52a1.464 1.464 0 0 1-.812.675c-.247.074-.274.074-.422 0-.102-.055-.145-.101-.125-.152a.632.632 0 0 0 .027-.172c0-.05.106-.195.242-.324.403-.387.746-1.22.746-1.84 0-.23.008-.258.102-.258.176 0 .437-.156.52-.305.16-.312.046-.691-.25-.832-.254-.12-.508-.09-.68.082-.07.07-.094.067-.266-.02-.312-.155-.676-.128-1.101.083-.47.23-.579.457-.356.71.106.122.324.106.55-.038.24-.157.532-.2.665-.106.187.14.152.934-.066 1.504l-.051.133-.172-.168c-.094-.094-.192-.168-.223-.168-.058 0-.058 0-.277.945-.149.66-.156.684-.285.7-.098.007-.172-.028-.285-.145-.172-.18-.493-.785-.59-1.105-.059-.2-.055-.215.054-.297.125-.094.125-.082-.074-.61-.125-.328-.242-.511-.324-.511-.09 0-.309.355-.418.683-.16.457-.156.555.027.688.082.058.149.144.149.191 0 .078.14.547.222.738.028.07.004.082-.238.082-.3 0-.332.024-.445.364-.082.234-.082.242.023.351.157.164.61.317.989.332.265.008.355.035.503.145.254.191.727.328 1.192.344.277.007.437.035.527.097.313.2 1.117.34 1.301.223zm33.54-.403l.46-.105v-.352c0-.261-.02-.367-.078-.414-.129-.109-.238.004-.266.274l-.023.238-.27.063c-.343.082-1.394.047-1.773-.059-.363-.098-.352-.102-.336.11l.016.18.394.081c.574.117 1.305.11 1.875-.016zm-32.602-.921l.015-.86-.351.32v.68c0 .371.02.692.039.711.02.016.09.024.156.02l.129-.016zm10.98.726c.14-.137.148-.32.008-.465-.133-.14-.324-.144-.469-.007-.145.136-.145.316-.004.464.133.141.317.145.465.008zm5.426-.637c.008-.097-.274-.593-1.239-2.136-2.761-4.438-3.32-5.414-5.527-9.719a429.956 429.956 0 0 0-2.39-4.594c-1.817-3.426-3.551-7.023-4.399-9.14l-.152-.387-.02.746c-.012.746-.012.746.168 1.258.555 1.601 2.422 5.36 4.852 9.742.293.54.539.98.539.996 0 .016.476.836 2.23 3.836 2.016 3.453 4.473 7.586 5.246 8.82.387.614.485.739.57.727.075-.012.11-.055.122-.149zm-.633.024a.278.278 0 0 0-.07-.117c-.09-.125-1.278-.13-1.414-.008-.051.043-.09.098-.09.121 0 .023.351.043.789.043.433 0 .785-.016.785-.04zm-1.762-.203c.13-.176.14-.215.14-.73v-.536h.325c.402 0 .406.028-.09-.808l-.363-.614-.688.028c-.593.02-1.191.03-1.785.03-.601 0-1.093.017-1.093.04 0 .02.117.086.265.144.246.11.313.114 1.13.098l.87-.016v2.192l.504.18c.273.097.54.175.578.18.043 0 .137-.083.207-.188zm15.856-2.059l-.14-.14.023.793c.023.738.03.8.128.886l.11.09.023-1.488zM18.53 34.484c.055-.136.035-3.664-.02-3.77a.18.18 0 0 0-.284-.034c-.04.039-.059.316-.059.925 0 .477-.008.868-.016.868-.015 0-.289-.059-.62-.121-1.095-.223-2.239-.36-4.016-.489-.852-.062-1.625-.172-4.387-.629-2.168-.359-3.441-.59-3.617-.656-.145-.058-.274-.094-.29-.082-.023.024.13.996.169 1.063.07.105.336.171.832.199.547.031.632.047 1.648.316.867.23 1.32.274 2.102.2.765-.067 1.097-.04 1.898.152.992.238 2.59.433 4.723.582.445.031.988.082 1.203.113l.394.055.012.633c.008.347.024.656.035.695.035.086.258.074.293-.02zM6.492 34.22c.207-.028 1.149-.047 2.102-.035 1.566.007 1.742.004 1.86-.075.148-.101.167-.277.042-.382-.137-.122-1.09-.207-2.355-.207-.946 0-2.368.085-2.426.14-.008.008.012.16.043.34l.058.328.153-.031c.082-.016.324-.05.523-.078zm47.29-.727v-.781l-.137-.055c-.075-.031-.391-.062-.75-.062-.543-.004-.641.008-.82.105-.329.176-.462.364-.462.668 0 .223.02.27.121.336a.553.553 0 0 0 .149.082c.015 0 .027-.14.027-.308 0-.348.043-.414.371-.547.196-.082.992-.114 1.106-.047.027.015.047.277.047.656v.625l.14.05c.07.028.149.052.168.052.02.004.04-.348.04-.774zm-19.41-1.683v-.465l-.157.008c-.102.007-.2 0-.297-.024l-.133-.035.11-.082a.759.759 0 0 1 .296-.121c.125-.024.18-.059.18-.117 0-.063-.422-.25-1.832-.797a75.651 75.651 0 0 0-1.875-.723c-.016 0-.035.078-.035.168 0 .16.008.168.406.324l.406.164-.289.02c-.316.016-.695-.102-.77-.234a.645.645 0 0 1-.015-.274c.02-.148.004-.219-.058-.277-.075-.082-.094-.082-.168-.008a.576.576 0 0 0-.125.266l-.028.191-.332-.121c-.625-.238-.742-.27-.933-.254-.141.012-.188.035-.188.105 0 .07.13.141.594.32.86.333.832.31.5.34l-.285.024 1.367.555 1.371.55.34-.023c.445-.035.562.008.582.238.012.145.043.188.176.243l.156.066v-.176c0-.144.016-.168.09-.144.676.25.648.234.648.445 0 .172.024.207.14.254l.145.055c.008.003.012-.204.012-.461zm10.69-2.575V26.68l-.261-.258c-.403-.402-1.086-.656-1.742-.66-.293 0-.602-.164-1.297-.676-.617-.457-2.215-2.043-2.95-2.922l-.101-.125v.281l-.004.27.484.527c.887.977 1.844 1.852 2.664 2.442.336.242.395.3.32.324-.292.101-.612.273-.773.41-.18.156-.183.16-.183.543 0 .348-.04.46-.121.336a.448.448 0 0 0-.13-.102c-.093-.05-.097-.043-.066.11.043.215.075.242.524.554l.386.27v1.125c0 1.125 0 1.129.122 1.273l.12.145v-.137c.005-.125.012-.133.098-.07.051.035.453.324.895.637.86.625.906.652.953.574.059-.098.398-.055.691.09.164.078.313.144.336.144.02.004.035-1.144.035-2.55zm-7.898 1.883l.406-.031-.312-.527a8.601 8.601 0 0 0-.352-.57c-.031-.024-.8-.02-1.957.015-1.047.027-1.89.07-1.867.086.02.015.355.156.75.312.39.153.742.301.777.328.032.028.059.145.059.266v.219l1.047-.04a44.92 44.92 0 0 0 1.45-.058zm12.824-.922v-.816l-.328-.313.02.883c.023.832.035.89.129.977.043.035.09.062.144.082.02.004.035-.363.035-.813zm-2.933.57a.405.405 0 0 0-.121-.097c-.09-.043-.098-.031-.098.125v.172l.121-.082c.07-.04.113-.094.098-.117zm2.343-.972v-.875l-.16-.07c-.246-.098-.906-.184-1.187-.149-.485.063-.77.172-1 .38-.242.218-.266.3-.11.46.141.148.192.14.192-.023 0-.36.66-.602 1.406-.524l.316.035v1.528l.184.054c.383.102.36.164.36-.816zm-20.718-.621c.324-.012.437.012.73.121.336.129.348.133.414.043a.439.439 0 0 0 .067-.145c0-.05-2.07-.902-2.176-.902-.02 0-.082.121-.145.27-.12.293-.097.285-.535.117-.215-.078-.226-.094-.37-.48l-.15-.391-.632-.246c-.352-.137-.645-.235-.66-.223-.012.012-.008.09.011.176.028.117.078.168.23.226.106.043.196.094.196.117.004.024.012.243.016.477 0 .242.02.45.035.465.016.02.289.129.61.25.484.18.628.215.925.215.473 0 .672.078.672.258 0 .105.035.152.164.203l.156.066.051-.598zm12.035-.7c-.012-.742-.04-1.199-.086-1.32l-.059-.199-.07.121c-.047.094-.066.399-.07 1.293 0 1.082.011 1.18.086 1.2.226.058.218.097.199-1.094zm.594-.386a.74.74 0 0 0-.2-.133c-.02-.004-.035.235-.035.527v.528l.184.152.183.149.012-.543.016-.551zm-8.957.883c3.722-.192 3.793-.196 3.793-.29a.349.349 0 0 0-.06-.113c-.058-.078-.12-.082-.75-.039-.382.032-1.233.075-1.898.102-.664.031-1.515.074-1.898.101a23.69 23.69 0 0 1-1.168.043c-.266 0-.48.02-.48.043 0 .04.46.243.566.25.023 0 .875-.039 1.895-.097zm7.492-.778v-.68h-.938v1.364h.934v-.684zm-9.82.34h.359V27.34l-.43.031c-.234.02-.484.035-.543.04-.105.003-.11.015-.11.554 0 .305.016.566.036.59.02.02.102.023.18.008.074-.02.304-.032.507-.032zm-5.06-.12c0-.141 0-.141.227-.052.102.043.188.078.2.078a.615.615 0 0 0 .015-.187c0-.18-.011-.195-.195-.25-.18-.059-.2-.082-.223-.29-.07-.523-.199-.62-.316-.233-.047.164-.098.23-.156.23-.051 0-.395-.113-.766-.242-.516-.188-.691-.23-.762-.195-.054.027-.093.066-.093.09 0 .1.226.245.566.37.34.122.371.145.371.266 0 .129.031.149.527.328.293.11.547.2.57.203.02 0 .036-.05.036-.117zm12.438.003c.18-.07.391-.164.47-.223.218-.152.452-.476.546-.75l.086-.246.289-.03c.152-.017.535-.036.84-.04l.55-.004.079-.152.082-.153-.942.04-.937.035v-7.727l-.156-.2c-.317-.429-.977-.784-1.754-.944-.508-.106-1.59-.145-2.035-.07l-.227.034-.594-.55c-.98-.899-1.543-1.575-2.539-3.028-1.394-2.035-2.828-4.695-3.96-7.36l-.188-.452-.02.629-.012.629.622 1.28c1.296 2.677 1.863 3.735 2.539 4.727 1.355 2 2.609 3.368 3.664 3.996l.27.16-.22.055c-.511.13-1.074.492-1.234.785-.05.102-.07.301-.07.68v.531l1.308 2.57c.567 1.102 1.133 2.2 1.707 3.294.688 1.285 1.438 2.601 1.477 2.601.02 0 .184-.054.36-.117zm-5.601.04l.402-.032v-1.207l-.476.027a8.24 8.24 0 0 0-.543.051c-.047.02-.063.18-.063.605v.586h.137c.074 0 .316-.015.543-.03zm-4.426-.114a.342.342 0 0 0 .055-.14c0-.032-.492-.25-.57-.25-.012 0 .003.066.038.152.043.125.282.332.391.335.02 0 .059-.046.086-.097zm5.719-1.172c0-.813-.016-1.207-.051-1.188a.7.7 0 0 0-.148.22c-.09.171-.098.284-.098 1.187v1h.297zm-4.535.73v-.433h-.211c-.114 0-.356.012-.543.031l-.332.031.011.192.016.191.52.211.527.211c.012-.145.02-.289.012-.434zm-5.817-.289c-.086-.113-.125-.132-.199-.093-.125.066-.113.113.043.175.234.094.273.07.156-.082zm4.004-4.953L26.73 17.7l.29-.031c.156-.02.351-.066.433-.098l.145-.058-.297-.114c-.54-.203-1.313-.187-1.844.04l-.172.074.2.058c.105.032.312.078.46.098l.266.035-.074 9.664.265.121c.145.063.282.114.313.114.031.003.043-1.66.031-4.946zm7.414 2.64c-.683-1.175-1.324-2.28-1.426-2.452l-.183-.317v2.891h.324c.363 0 .34-.027.457.527l.078.367.988.57c.543.313.989.563.997.555.007-.003-.547-.968-1.235-2.14zm-11.738 1.99c.015-.016-.04-.114-.117-.212-.254-.316-1.282-.61-1.282-.367 0 .11.176.215.692.406.527.2.648.227.707.172zm2.07-.095c.051-.07.078-.132.07-.136a26.209 26.209 0 0 0-1.335-.516c-.02 0-.036.086-.036.195 0 .153.02.196.086.196.047 0 .309.09.578.191.274.106.508.195.524.195.02 0 .07-.058.113-.125zm-1.617-.187a.578.578 0 0 0 .059-.352c-.02-.312-.145-.332-.375-.062l-.164.187.14.172c.164.207.23.215.34.055zm-1.992-.024c-.098-.175-.176-.203-.38-.132l-.19.062.218.082c.313.106.41.106.352-.004zm-.77-.19c-.023-.075.008-.102.196-.153.12-.035.222-.07.222-.086 0-.012-.074-.13-.168-.258-.14-.188-.16-.246-.105-.29a.376.376 0 0 0 .094-.183l.058-.234c.035-.113.055-.106-.996-.484l-.46-.165v.372l.655.234c.36.129.66.238.668.242.035.031-.168.363-.218.363a5.705 5.705 0 0 1-.622-.191c-.304-.11-.593-.195-.636-.195-.145 0-.149.078-.016.234.094.11.242.184.578.297.563.184.621.219.54.3-.122.122-.04.216.226.282.012.004.004-.035-.016-.086zm5.282-.032l.507-.035v-.215c0-.25.094-.238-1.035-.137a49.2 49.2 0 0 1-.937.074c-.102.004-.086.02.101.106.356.164.707.273.79.254.038-.008.296-.032.574-.047zm4.523-.367c1.379-.11 2.555-.207 2.61-.22.05-.01.148-.108.21-.226.133-.25.133-.277.024-.254-.051.008-.375.04-.73.07-1.438.11-4.688.391-4.84.415-.149.023-.157.039-.157.246v.215l.184-.024c.101-.015 1.312-.113 2.699-.222zm-7.52-.016l.11-.117-.48-.18c-.27-.105-.673-.258-.9-.351-.226-.09-.417-.16-.425-.153-.035.086-.066.18-.09.266-.07.246-.07.254.055.426.145.199.258.226.258.062 0-.066.023-.133.062-.187.055-.07.117-.055.602.129.297.117.578.21.62.214.044 0 .13-.047.188-.109zm-3.738-.043c0-.035-.055-.129-.12-.207-.09-.11-.134-.133-.173-.09-.097.094-.043.277.098.313.18.05.195.05.195-.016zm26.402-1.156v-1.07l-.144.078-.152.07v1.789l.129.102c.046.039.097.074.152.105.008 0 .016-.484.016-1.074zm-3.667.797c.171-.114.16-.309-.028-.45l-.148-.109v.32c0 .176.011.32.027.32a.905.905 0 0 0 .149-.081zm-23.157-.164c.024-.028-.008-.11-.062-.18-.078-.106-.262-.18-1.063-.434-.93-.289-1.113-.32-1.113-.195.008.18.219.29 1.09.563.93.292 1.098.328 1.148.246zm26.29-1.844c.077.039.132.039.226 0 .105-.047.113-.063.055-.137-.11-.125-.625-.344-1.016-.43-.523-.113-1.453-.078-1.855.075-.387.148-.715.449-.715.648 0 .14.16.379.25.379.027 0 .043-.098.043-.215 0-.156.027-.234.113-.312.3-.282 1.023-.426 1.734-.348.219.02.422.04.457.04.043.003.063.233.063.968v.969l.254.097.261.098.012-.945c.016-.938.016-.942.117-.887zm-28.579 1.539c-.004-.156-.164-.348-.261-.313-.118.043-.114.36.003.387.2.055.258.04.258-.074zm2.723-.192c.027-.292-.024-.496-.133-.519-.117-.02-.16.059-.203.344-.023.183-.012.254.062.347.125.168.243.09.274-.172zm2.621.07c1.2-2.98 2.914-8.347 4.355-13.648.329-1.21.344-1.293.368-1.949.011-.37.007-.648-.016-.605-.02.039-.242.75-.492 1.582-1.125 3.738-2.84 8.957-3.738 11.375-.372 1-.762 1.992-1.172 2.98-.016.035.004.063.05.063.04 0 .094.027.118.066.039.07.332.219.437.223.031 0 .074-.035.09-.086zm-7.902-.491a.537.537 0 0 0-.106-.27c-.133-.168-.238-.09-.238.168 0 .152.015.191.11.207.218.043.234.035.234-.105zm2.152.062c.062-.172-.18-.289-1-.5-.867-.219-1.043-.238-1.09-.125-.058.152.152.258.996.477.946.242 1.047.258 1.094.148zm2.574-.031c0-.035.012-.106.031-.16.024-.086-.066-.13-.937-.41-.531-.172-.973-.301-.984-.29-.012.012-.008.094.011.184.035.156.043.16.871.442.899.304 1.008.328 1.008.234zm-2.156-.567c0-.226-.024-.328-.082-.386-.078-.074-.09-.07-.18.031-.129.156-.12.465.012.652.152.207.238.102.242-.297zm-12.336.211c.008-.007-.016-.128-.059-.27a1.794 1.794 0 0 1-.078-.292c0-.016.258-.059.578-.094.317-.031.618-.082.668-.105.121-.059.106-.157-.043-.235-.105-.054-.218-.054-.652-.004-.723.075-.684.082-.746-.125-.04-.14-.106-.218-.273-.316-.122-.074-.223-.117-.223-.102 0 .016.101.348.226.743l.25.789c.02.066.055.074.18.054a.791.791 0 0 0 .172-.043zm7.203-.113c0-.172-.172-.398-.273-.363-.047.02-.07.101-.07.238 0 .18.015.215.109.23.219.04.234.036.234-.105zm-5.422-.203c0-.11-.043-.195-.148-.293-.086-.078-.176-.129-.2-.117-.054.035-.058.195-.011.406.027.137.047.152.2.152.148 0 .16-.011.16-.148zm7.543.07c.051-.058.047-.09-.035-.172-.074-.07-.3-.132-.902-.238-.922-.164-1.047-.172-1.137-.07-.133.16.07.25.91.387.438.074.8.144.809.152.058.05.297.012.355-.059zm-4.683-.136c0-.13-.032-.192-.118-.25-.164-.106-.23-.055-.23.171 0 .192.039.223.262.243.066.004.086-.04.086-.164zm5.062-.118c.086-.054.098-.609.012-.71-.098-.114-.145-.09-.227.093-.093.219-.09.418.008.547.082.121.11.129.207.07zm2.074-.09c.051-.101.047-.136-.004-.167-.078-.043-1.714-.446-1.742-.422a.485.485 0 0 0 .024.183l.03.168.716.18c.875.219.902.223.976.059zm-5.066-.05l.105-.09-.117-.102c-.094-.093-.226-.117-1.015-.187-.887-.082-.907-.078-1 .012-.094.09-.094.093-.004.175.07.059.289.098.902.157.445.039.844.078.883.09.039.007.086.019.101.023.02 0 .082-.035.145-.078zm-2.54-.203c.016-.032-.03-.106-.105-.176-.136-.117-.144-.117-1.175-.117-.875 0-1.051.008-1.149.074-.105.074-.105.082-.027.172.078.086.168.094 1.258.094.726 0 1.18-.02 1.199-.051zm2.934-.102c.137-.074.141-.484 0-.605-.082-.075-.093-.075-.168.027a.614.614 0 0 0-.03.535c.062.106.073.11.198.043zm2.114-.203c.039-.113.039-.164 0-.191-.059-.032-1.582-.286-1.73-.286-.071 0-.075.024-.024.172.027.09.062.168.074.172l1.594.281c.015.004.055-.066.086-.148zm-7.676-.316c-.066-.227-.242-.477-.305-.422-.105.113-.07.582.059.703.105.101.105.101.2.004.085-.078.089-.114.046-.285zm3 .05c0-.277-.164-.511-.3-.43-.083.055-.056.567.034.665.078.082.09.086.176.011.05-.05.09-.148.09-.246zm2.082-.05a1.22 1.22 0 0 1 .059-.168c.027-.063 0-.09-.106-.11-.21-.039-1.844-.183-1.867-.164-.012.012.008.09.043.176.066.18.031.172.996.266l.793.074c.031.004.07-.031.082-.074zm-5.992-.211c.238 0 .258-.008.308-.153.028-.082.047-.164.032-.175-.035-.036-1.575.136-1.618.18-.023.023.016.077.098.12.11.067.227.075.535.055.215-.016.508-.027.645-.027zm3.308-.106l.04-.16-.297-.035c-.387-.04-2.098-.047-2.098-.012 0 .016.047.094.101.168l.102.14.7.016c.386.008.859.02 1.054.028l.36.011zm-2.03-.527h.26l4.497-3.703a4107.415 4107.415 0 0 0 13.77-11.387l1.984-1.66V4.78l-.16.149c-3.125 2.879-10.883 9.074-20.008 15.992-.95.715-1.746 1.324-1.774 1.351-.035.032.16.04.56.016.335-.016.73-.031.87-.031zm32.753-6.754l-.172-.172v3.055l.16.168.157.16.015-1.52.016-1.523zm-5.394 2.383c0-.309-.008-.336-.172-.489l-.172-.168v1.243l.172-.133c.168-.125.172-.14.172-.453zm4.726-1.133c0-1.027.02-1.309.063-1.262.101.102.136.063.136-.137 0-.171-.02-.203-.183-.289-.645-.32-1.543-.464-2.657-.43-1.09.04-1.718.231-2.203.673-.293.265-.308.46-.054.754l.172.19v-.292c0-.262.015-.313.132-.426.168-.152.575-.344.977-.45.594-.16 2.031-.144 2.7.032l.179.047v2.656l.21.059c.118.035.266.094.337.129.047.027.101.05.156.066.02 0 .035-.59.035-1.32zm-11.812.3c.437-.097 1.23-.038 1.609.11l.305.121v-1.48l-.25-.106a4.005 4.005 0 0 0-.641-.183c-.36-.07-.43-.07-.777-.004-.207.039-.492.12-.637.183l-.254.11v1.5l.184-.094c.101-.05.308-.121.46-.156zm.91-6.257c-.012-2.43-.024-5.383-.024-6.563l-.004-2.156h-.347v.695c-.004 1.36-.047 7.157-.078 9.774l-.028 2.66h.496l-.02-4.41zm0 0"/></svg>