<svg xmlns="http://www.w3.org/2000/svg" width="64" height="64"><path d="M30.077 62.943c-5.97-.358-11.869-2.527-16.654-6.123-2.234-1.679-4.565-4.01-6.244-6.244C.877 42.19-.733 31.02 2.942 21.176c1.24-3.321 2.95-6.259 5.29-9.088.76-.918 2.94-3.097 3.858-3.856a31.393 31.393 0 0 1 5.675-3.779C24.9.748 33.326-.01 41.097 2.353a31.297 31.297 0 0 1 9.449 4.796c2.224 1.667 4.612 4.054 6.277 6.273 5.598 7.459 7.518 17.076 5.229 26.192-1.63 6.49-5.41 12.36-10.69 16.599-5.973 4.794-13.563 7.194-21.285 6.73zm-3.845-5.234v-2.885h-5.148v2.843c0 1.564.018 2.862.041 2.885.023.022 1.181.04 2.574.04h2.533V57.71zm5.458 0v-2.885h-4.776v5.769h4.776v-2.884zm5.458 0v-2.885h-4.776v5.769h4.776v-2.884zm5.83 0v-2.885h-5.147v5.769h5.148v-2.884zm-16.746-6.483V48.31l-2.559.017-2.558.016-.017 2.822c-.008 1.552-.002 2.857.014 2.9.023.06.596.077 2.575.077h2.545v-2.916zm5.458.001v-2.915h-4.776v5.83h4.776v-2.915zm5.458 0v-2.915h-4.776v5.83h4.776v-2.915zm5.816.015l-.016-2.9-2.559-.015-2.558-.017v5.832h5.149l-.016-2.9zm-16.732-6.466V41.86l-2.559.016-2.558.016-.017 2.822c-.008 1.552-.002 2.857.014 2.9.023.06.596.077 2.575.077h2.545v-2.915zm5.458 0v-2.915h-4.776v5.83h4.776v-2.915zm5.458 0v-2.915h-4.776v5.83h4.776v-2.915zm5.816-.015l.016-2.9h-5.149v5.832l2.558-.016 2.559-.017.016-2.9zm-16.732-6.467V35.41h-5.148v5.769h5.148v-2.885zm5.458 0V35.41h-4.776v5.769h4.776v-2.885zm5.458 0V35.41h-4.776v5.769h4.776v-2.885zm5.83 0V35.41h-5.147v5.769h5.148v-2.885zm-16.746-6.45V28.96h-5.148v5.768h5.148v-2.884zm5.458 0V28.96h-4.776v5.768h4.776v-2.884zm5.458 0V28.96h-4.776v5.768h4.776v-2.884zm5.83 0V28.96h-5.147v5.768h5.148v-2.884zM26.233 25.36v-2.916l-2.559.017-2.558.016-.017 2.822c-.008 1.552-.002 2.857.014 2.9.023.06.596.077 2.575.077h2.545v-2.916zm5.458 0v-2.916l-2.372.017-2.373.016-.016 2.9-.016 2.9H31.69V25.36zm5.443.017l-.016-2.9-2.372-.016-2.373-.017v5.832h4.778l-.017-2.9zm5.831 0l-.016-2.9-2.559-.016-2.558-.017v5.832h5.149l-.016-2.9zM26.232 18.91v-2.916l-2.559.016-2.558.016-.017 2.822c-.008 1.552-.002 2.857.014 2.9.023.06.596.078 2.575.078h2.545V18.91zm5.458 0v-2.915h-4.776V21.827h4.776V18.91zm5.458 0v-2.915h-4.776V21.827h4.776V18.91zm5.83 0v-2.915h-5.147V21.827h5.148V18.91zM26.233 12.43V9.544l-2.559.016-2.558.016-.017 2.87-.016 2.868h5.15v-2.885zm5.458 0V9.546h-4.776v5.769h4.776V12.43zm5.458 0V9.546h-4.776v5.769h4.776V12.43zm5.83 0V9.546h-5.147v5.769h5.148V12.43zM26.233 6.166V3.467h-5.148v5.396h5.148V6.165zm5.458 0V3.467h-4.776v5.396h4.776V6.165zm5.458 0V3.467h-4.776v5.396h4.776V6.165zm5.83 0V3.467h-5.147v5.396h5.148V6.165z"/></svg>