<svg xmlns="http://www.w3.org/2000/svg" width="64" height="64"><path d="M30.735 62.974c-3.534-.166-6.835-.852-9.964-2.071-10.598-4.13-18.105-13.714-19.534-24.935C1.052 34.513 1 33.643 1 32c0-1.644.052-2.514.237-3.97a30.813 30.813 0 0 1 8.557-17.665C16.78 3.215 26.614-.11 36.522 1.329c5.194.753 10.289 2.92 14.425 6.135 1.127.876 1.844 1.512 2.96 2.629 1.714 1.712 2.996 3.296 4.212 5.202 4.065 6.369 5.65 13.848 4.532 21.374a30.964 30.964 0 0 1-3.732 10.715 31.067 31.067 0 0 1-21.117 15.07c-2.18.42-4.918.621-7.067.52zm24.308-12.368a3.05 3.05 0 0 0-.238-.34l-.238-.315.118-.123.117-.122-.27-.142c-.307-.16-.627-.428-.627-.526 0-.036.048-.067.107-.068.058-.001.245-.029.415-.061l.308-.06-.4-.231a5.988 5.988 0 0 1-.673-.46l-.275-.229-.583.001c-.534.002-1.177.035-3.713.192-.887.055-.905.058-1.162.21-.238.14-.355.167-1.319.31l-1.057.156-1.03-.082c-.566-.045-1.471-.112-2.012-.147-.664-.044-1.094-.096-1.328-.16-.19-.054-.718-.175-1.175-.27-.868-.183-1.356-.223-3.439-.285-.706-.022-.85-.013-1.162.07l-.355.096-.19-.208c-.184-.2-.197-.206-.416-.18-.125.013-.238.044-.253.067-.02.034.416 1.44.486 1.565.009.017.203-.02.432-.083.501-.138.804-.142 1.15-.016.63.23.704.241 2.016.28 1.36.042 1.717.087 2.061.26.394.199.923.401 1.235.473.5.115 1.478.164 4.316.216 2.653.05 5.425.12 7.305.188 1.337.047 1.85.054 1.85.024zm-20.316-.472c.034-.13.062-.267.063-.302 0-.055-.405-.06-2.549-.03-1.402.018-2.554.038-2.559.043-.006.004.035.13.09.28l.1.27 2.397-.012 2.397-.012.061-.237zm-19.017-.026c.23-.054.47-.133.536-.176.097-.065.281-.082 1.02-.098.854-.017.972-.008 2.3.179l1.4.197.735-.35c.404-.193.82-.363.924-.379.104-.015.753-.013 1.442.006l1.252.034.172.194.172.194.229-.193c.212-.18.253-.194.591-.22.313-.023.416-.056.743-.236.664-.366.7-.38 1.162-.429.476-.05 1.517-.066 1.517-.023 0 .013-.032.101-.07.195-.04.094-.072.178-.072.188 0 .028.344.02.457-.01.076-.02.196-.226.474-.81.206-.432.38-.8.387-.818.007-.02-.075-.061-.183-.094a5.629 5.629 0 0 1-.258-.082c-.04-.015-.089.061-.142.22-.044.134-.112.256-.15.27-.038.015-.628-.021-1.311-.08-.875-.075-1.873-.118-3.377-.146l-2.134-.04-1.25.148c-1.059.126-1.284.14-1.46.093-.266-.07-.745-.07-1.467 0-.478.047-.742.044-1.612-.023-1.968-.15-1.987-.15-3.151-.009-.71.086-1.17.12-1.376.102l-1.28-.12c-.535-.052-1.393-.12-1.907-.153l-.934-.06-.559.131c-.725.171-1.563.28-1.996.258-.189-.01-.344-.01-.344-.001 0 .009.062.105.138.214.231.334.33.398.669.436.295.032.616.192.616.307 0 .023-.185.099-.412.168l-.413.126.115.086c.124.095.306.142.54.142.082 0 .199.035.26.078.094.065.107.106.086.264l-.025.186.577-.027 1.62-.077c.574-.027 1.076-.062 1.115-.077.092-.036 1.853-.126 2.358-.121.346.004.46.03 1.02.24.346.129.672.245.724.258.053.013.1.026.105.03.006.002.198-.039.427-.092zm19.569-3.234a.87.87 0 0 0 .296-.16l.117-.108v-4.093l-.107.029a.93.93 0 0 1-.19.029c-.077 0-.083.126-.083 1.962v1.962l-.148.03c-.081.016-.24.03-.35.03-.199 0-.203.003-.225.177a.604.604 0 0 0 0 .217c.025.045.422.002.69-.075zm-5.24-.142c-.013-.175-.03-.203-.134-.215a2.704 2.704 0 0 1-.225-.036l-.107-.024v-3.884l-.106-.023a2.782 2.782 0 0 0-.32-.036l-.214-.014-.012 2.018-.013 2.017.132.126c.141.136.54.264.833.27l.18.002-.014-.201zm3.53-.018l.13-.029V43.07h-2.514l.012 1.802.013 1.802.26.058c.263.058 1.817.046 2.1-.017zm-24.394-.566a74.56 74.56 0 0 0 2.304-.422c1.242-.245 1.724-.318 2.656-.4a73.823 73.823 0 0 0 1.374-.132l.236-.03-.947-.317a25.641 25.641 0 0 1-1.243-.443c-.337-.144-.408-.147-1.328-.07-.752.063-1.264.02-1.808-.15-.431-.136-.588-.123-.951.079-.392.217-.676.403-.653.426.01.01.474.082 1.032.16.558.079 1.037.15 1.063.158.026.009-.588.222-1.363.475-1.43.466-1.773.624-1.602.739.112.074.383.058 1.23-.073zm9.331-.414c.256-.238.435-.365.573-.405.11-.032.354-.12.54-.197l.341-.138.844.475.844.476.608-.49c.394-.317.745-.555.998-.676.215-.103.39-.203.39-.221 0-.018-.133-.048-.296-.065a2.317 2.317 0 0 1-.657-.2l-.362-.166-.563.4c-.31.219-.591.414-.625.434-.034.02-.301-.057-.618-.178l-.558-.213-1.512.422c-.832.232-1.532.428-1.557.437-.05.016 1.094.642 1.184.648.03.001.222-.153.426-.343zm26.884.198c.03-.029.03-.066 0-.107-.24-.328-.238-.32-.141-.39.146-.107.326-.077.741.123.722.35.998.209.639-.325l-.161-.24.22-.138c.137-.085.425-.188.755-.268.41-.1.533-.148.532-.207a3.699 3.699 0 0 0-.116-.56c-.014-.04-.162-.007-.485.107-.85.299-.841.295-.932.463-.086.159-.087.16-.306.113a.636.636 0 0 0-.382.012c-.121.044-.545.055-1.646.042-.816-.01-1.497-.004-1.515.014-.017.017.079.195.214.396.224.331.257.361.372.335.366-.083.622-.087.738-.011.096.062.124.13.15.362.036.315.034.314.447.349.298.025.82-.016.876-.07zm-18.63-.048c.125-.055.356-.114.513-.13l.284-.03.067-.25c.036-.137.058-.256.047-.264a8.61 8.61 0 0 0-.73.025 9.54 9.54 0 0 1-2.124-.089c-.28-.041-.525-.061-.542-.044-.06.06.132.547.254.643.177.139.729.221 1.566.234.35.005.48-.014.664-.095zm11.116-.048a3.77 3.77 0 0 0 .324-.117c.01-.008-.016-.07-.06-.135l-.156-.243-.08-.123.234.033c.129.019.554.17.945.338.686.293.73.305 1.21.331l.498.028.603-.42c.332-.231.604-.434.605-.452 0-.017-.113-.13-.253-.248l-.253-.217-.795.33c-1.025.426-1.14.434-1.786.125l-.456-.219h-1.863V45.874l.13-.018c.101-.014.65.037.821.076.015.003.164-.04.332-.096zm14.07-.687c.016-.042-.005-.144-.046-.225-.107-.209-.14-.349-.091-.38.023-.014.206.078.407.205l.365.23.772.035c.718.031.797.026 1.125-.072.193-.058.384-.122.423-.14.093-.047.12-.187.04-.21-.359-.106-.994-.23-1.161-.226-.212.004-.788-.116-1.647-.343-.257-.068-.56-.124-.673-.124-.152 0-.28-.044-.481-.166-.382-.23-.412-.223-.373.09.031.252.03.255-.112.305-.132.046-.152.038-.244-.09a.94.94 0 0 0-.288-.237c-.177-.09-.215-.092-.66-.037-.26.033-.498.075-.529.094-.078.048.352.542.622.712.142.09.276.135.405.136.357.001.717.117.929.297.212.182.298.204.842.216.28.006.35-.007.375-.07zm-19.029-2.932c.988-.146 1.782-.413 1.82-.612.013-.076-.005-.085-.12-.058-1.146.263-3.344.29-4.133.05a4.648 4.648 0 0 0-.237-.068c-.016 0 .044.584.062.606.006.007.147.043.314.079.413.09 1.695.091 2.294.003zm-3.288-.937c-.019-.82.022-1.098.35-2.406.444-1.764.499-2.163.537-3.912l.03-1.375.315-.102a4.829 4.829 0 0 1 3.703.274c.266.134.511.179.511.093 0-.093-.503-.487-.823-.644-.61-.299-.988-.373-1.904-.375-.684-.001-.864.014-1.186.102-.78.213-1.524.579-1.467.722.016.04.04.574.055 1.187.038 1.636-.045 2.254-.525 3.917a29.838 29.838 0 0 0-.32 1.18c-.07.317-.088 1.442-.028 1.789l.038.225h.73l-.016-.675zm6.161.592c.002-.045.02-.273.04-.505.067-.759 0-1.153-.395-2.323-.517-1.528-.523-1.571-.527-3.344l-.002-1.491-.148-.06-.148-.06-.035.507c-.045.657.007 2.312.093 2.95.09.661.167.983.45 1.857.269.835.35 1.401.304 2.114l-.029.438h.197c.154 0 .197-.018.2-.083zm-3.809-3.105l.013-1.079h-.76v2.185l.367-.014.368-.014.012-1.078zm1.814.012v-1.09h-.76v2.18h.76v-1.09zM5.479 37.285v-.877h-.427v1.754h.427v-.877zm3.225 0v-.877H8.23v1.754h.474v-.877zm3.178 0v-.877h-.427v1.754h.427v-.877zm3.225 0v-.877h-.474v1.754h.474v-.877zm3.404-.012l.013-.865h-.476v1.76l.225-.015.225-.014.013-.866zm3.273 0l.013-.865h-.476v1.76l.225-.015.225-.014.013-.866zm3.331.012v-.877h-.474v.846c0 .465.014.86.031.877.018.017.124.031.237.031h.206v-.877zm14.656 0v-.877h-.427v1.754h.427v-.877zm3.367 0v-.877h-.474v1.754h.474v-.877zm3.262-.012l.013-.865h-.476v1.76l.225-.015.225-.014.013-.866zm3.415 0l.013-.865h-.476v1.76l.225-.015.225-.014.013-.866zm3.189.012v-.877h-.474v.846c0 .465.014.86.031.877.018.017.124.031.237.031h.206v-.877zm3.214-.012l.013-.865h-.476v1.76l.225-.015.225-.014.013-.866zm3.189.012v-.877h-.474v.846c0 .465.014.86.031.877.018.017.124.031.237.031h.206v-.877zm-26.514-2.062v-1.09h-.759v2.18h.76v-1.09zm-28.315-.426v-.615l.747-.013.747-.013-.455-.344-.455-.343H3.724v1.375h-.996v.569h1.85v-.616zm3.225 0v-.617h.711c.392 0 .711-.016.71-.036 0-.02-.197-.18-.435-.355l-.434-.32H6.902v1.375h-.949v.569h1.85v-.617zm3.178 0v-.617h.711c.392 0 .71-.016.709-.036-.002-.02-.193-.18-.425-.355-.307-.232-.462-.32-.567-.32h-.144v-4.312l.747-.013.747-.013.014-.698.013-.699.71-.013.712-.013-.44-.273-.44-.274-.71.013-.712.013-.013.7-.014.698h-.614v-8.434l-.177-.03a3.589 3.589 0 0 1-.261-.053c-.08-.022-.083.32-.083 6.689v6.712h-.664v1.375h-.901v.569h1.802v-.617zm3.178 0v-.615l.747-.013.747-.013-.455-.344-.455-.343h-1.439v1.375h-.995v.569h1.85v-.616zm3.367 0v-.617h.712c.39 0 .71-.016.71-.036-.002-.02-.198-.18-.436-.355l-.434-.32H16.625v1.375h-.949v.569h1.85v-.617zm3.32 0v-.615l.744-.013.743-.013-.458-.344-.457-.343h-1.422l-.014.675-.013.676-.486.013-.486.014v.566H20.846v-.616zm3.32 0v-.615l.747-.013.747-.013-.454-.344-.455-.343h-1.438v1.375h-.996v.569H24.166v-.616zm3.368 0v-.615l.743-.013.744-.013-.458-.344-.458-.343h-.998V19.014l.546-.344.546-.344-.368-.203c-.202-.112-.392-.204-.42-.204-.067-.001-.579.33-.932.6l-.273.21v8.458l-.759-.015-.759-.015v1.428h-1l.014.273.014.273.913.012.913.013v-1.428l.32.014.32.014v7.064l-.245.014-.245.014-.016.283-.016.282h1.874v-.616zm10.292 0v-.617h.712c.391 0 .71-.016.709-.036-.002-.02-.192-.18-.424-.355-.308-.235-.46-.32-.566-.32h-.146v-4.312l.7-.013.699-.013.013-.7.013-.699h1.44l-.462-.284-.462-.285h-1.42v1.422h-.521v-8.434l-.178-.029a9.152 9.152 0 0 1-.26-.045c-.08-.016-.084.328-.084 6.687v6.705h-.664v1.375h-.901v.569h1.802v-.617zm3.178 0v-.615l.743-.013.744-.013-.458-.344-.457-.343H40.15v1.375h-.996v.569h1.85v-.616zm3.32 0v-.617h.712c.39 0 .71-.016.71-.036-.002-.02-.198-.18-.436-.355l-.434-.32H43.423v1.375h-.949v.569h1.85v-.617zm3.083 0v-.615l.738-.013.737-.013-.464-.345-.463-.345-.713.013-.712.013-.014.676-.013.676h-.946v.569h1.85v-.616zm3.32 0v-.615l.744-.013.743-.013-.458-.344-.457-.343h-1.426v1.375h-.996v.569h1.85v-.616zm3.368 0v-.615l.737-.013.738-.013-.462-.344-.462-.343h-.788v-6.706c0-3.708-.019-6.717-.041-6.731-.023-.014-.172-.002-.332.026l-.29.05-.013 3.672-.012 3.67-.166-.141-.166-.142-.724-.002-.723-.002v1.422h-.948v.571l.913-.012.913-.013.013-.701.013-.702.437.014.438.014v7.064l-.463.014-.462.013v.566h1.85v-.616zm3.32 0v-.617h.711c.392 0 .71-.016.71-.036 0-.02-.198-.18-.437-.356l-.436-.322-.713.013-.713.013-.013.676-.013.676h-.946v.569h1.85v-.617zm3.32 0v-.617h.711c.392 0 .711-.016.71-.036 0-.02-.19-.18-.423-.355l-.423-.32h-1.476v1.375h-.949v.569h1.85v-.617zm-25.63-3.488c-.034-.088-.695-.41-1.12-.548l-.404-.13-.013.451-.014.45-.2-.015c-.199-.016-.2-.015-.214.158l-.015.174.272.056c.149.031.385.094.524.14l.253.083v-.4c0-.45-.026-.435.407-.244l.21.093v1.609l.154.137.154.138.013-1.05c.007-.577.004-1.073-.007-1.102zm-4.986 1.546l.332-.134.024-.705.023-.704.309-.08.332-.086c.013-.003-.136-.087-.332-.187-.39-.2-.404-.199-.937.02l-.202.082v.967c0 .743.014.966.06.964.032-.001.208-.063.39-.137zm1.832-1.046h.326v-.768l.403.017c.222.009.402.006.401-.007a2.742 2.742 0 0 0-.32-.272l-.318-.249h-.364c-.529-.001-.514-.015-.514.477 0 .41-.003.422-.118.451-.102.026-.119.057-.119.22 0 .188.002.19.149.16.081-.015.294-.029.474-.029zm-18.267-1.066v-.878h-.474v1.755h.474v-.877zm3.262.011l-.013-.865-.225-.014-.225-.015v1.76h.476l-.013-.866zm3.236-.011v-.878h-.427v1.755h.427v-.877zm3.273-.003v-.88l-.225.015-.226.014-.013.865-.013.866h.477v-.88zm16.932.003v-.878h-.426v1.755h.426v-.877zm3.273-.003v-.88l-.225.015-.225.014-.013.865-.013.866h.476v-.88zm3.273.003v-.878h-.475v1.755h.475v-.877zm3.13-.003v-.88l-.225.015-.225.014-.013.865-.013.866h.476v-.88zM35.74 28.421c0-1.469-.001-1.492-.1-1.545-.1-.054-.828-.187-1.026-.187h-.107v3.075l.273.03c.15.016.38.047.51.068.13.022.285.042.344.045l.106.006v-1.492zm-5.964 1.305l.225-.003V26.628l-.344.027c-.189.015-.456.052-.592.082l-.25.055v3.057l.368-.06a5.03 5.03 0 0 1 .593-.063zm-13.814-1.282v-.71l.723-.013.724-.013-.444-.272-.444-.273H15.107v1.42l-.486.013-.486.013-.015.207c-.025.353-.067.338.938.338h.903v-.71zm3.215-.013l.013-.699h1.44l-.45-.283-.447-.283-.724-.002-.723-.001v1.422h-.949v.571l.913-.013.914-.012.013-.7zm3.177.001l.014-.698.709-.013.709-.013-.443-.272-.444-.273h-1.435v1.422h-.949v.571l.913-.013.913-.012.013-.699zm20.359.012v-.71l.71-.013.709-.013-.448-.274-.447-.274-.701.014-.701.013-.013.699-.013.7h-.946v.568h1.85v-.71zm3.177 0v-.71l.713-.013.712-.013-.438-.272-.439-.273H45.036v1.419l-.487.014-.486.013-.014.273-.014.272h1.854v-.71zm3.189.011l.013-.7.71-.023.711-.024-.45-.272-.452-.273H48.213v1.42l-.486.013-.486.013-.015.207c-.025.353-.066.338.937.338h.902l.013-.699zm-1.291-1.458c0-.19.021-.233.192-.387.24-.218.41-.502.451-.76.03-.188.024-.204-.128-.296l-.16-.098-.054.182c-.104.353-.32.652-.6.836-.117.076-.128.11-.128.383 0 .322.012.336.296.348.124.005.13-.005.13-.208zm-27.225-.066c0-.106.036-.16.16-.232.21-.125.407-.389.511-.69l.085-.245-.12-.106c-.16-.143-.257-.137-.257.014 0 .243-.3.662-.58.809-.119.062-.131.093-.131.328v.26h.166c.151 0 .166-.013.166-.138zM9.084 25.437v-1.11l-.43-.1a7.03 7.03 0 0 0-.475-.098c-.026 0-.044.48-.044 1.156v1.156l.368.046c.202.025.415.05.474.053l.107.007v-1.11zm46.706 1.055l.392-.054v-2.32l-.107.025-.474.105-.368.08v1.11c0 1.024.006 1.109.083 1.109.046 0 .26-.025.474-.055zm-38.826-.417a11.004 11.004 0 0 0-.073-.605 13.998 13.998 0 0 1-.055-.393l.43-.146c.367-.125.534-.152 1.204-.192.94-.056 1.296-.012 1.83.228.446.2.691.245.776.143.047-.057.035-.097-.066-.216-.399-.474-1.979-.837-3.138-.721-.82.082-1.729.362-2.079.64l-.14.112.087.325c.048.179.151.49.23.694l.142.37.433-.014.434-.014-.015-.211zm7.819-3.958v-4.193l-.251-.252c-.17-.17-.333-.411-.502-.741-.28-.548-.23-.53-.698-.268-.418.233-.432.257-.33.582.189.607.452 1.021.82 1.292l.202.148v7.625h.759v-4.193zm27.272.785V19.54l-.122-.08c-.275-.18-.514-.965-.485-1.592l.014-.306.305-.108c.561-.2 1.081-.26 2.02-.235.67.019.925.045 1.186.12.4.118.903.338 1.147.504.176.12.346.16.346.08 0-.077-.5-.51-.76-.658-.362-.206-1.02-.416-1.609-.513-.846-.14-1.97-.04-2.836.248-.41.137-.836.34-.995.473-.114.096-.117.06.066.8.148.598.728 1.521 1.013 1.612.092.03.094.086.094 3.203v3.173h.616v-3.36zm-7.591 3.088a8.046 8.046 0 0 0-.086-.712l-.083-.535.382-.12c1.015-.321 2.261-.231 3.372.244.21.09.418.163.463.163.134 0 .092-.122-.103-.298-.877-.792-2.775-1.031-4.187-.527-.436.155-.99.44-1.023.527-.027.069.28 1.08.397 1.305.065.127.078.13.468.13h.402l-.002-.177zM40.719 22.4c0-3.507.003-3.624.09-3.652.17-.054.577-.542.74-.89.19-.4.29-.747.248-.856-.026-.067-.37-.318-.436-.318-.014 0-.025.09-.025.202 0 .404-.46 1.16-.874 1.434l-.215.142v3.781l-.002 3.781h.474v-3.624zm-27.414.356c0-2.94.003-3.032.09-3.06.257-.081.758-.868.837-1.313.029-.164.02-.181-.152-.29l-.182-.116-.05.22c-.102.446-.489 1.021-.799 1.187l-.124.066v3.141c0 3.46-.024 3.175.273 3.19l.107.006v-3.031zm20.49 1.761v-.511l-.265-.26c-.538-.527-.872-1.06-1.06-1.692-.062-.209-.128-.344-.167-.344-.039 0-.105.136-.167.344-.195.649-.723 1.439-1.164 1.742l-.213.147v1.086h3.036v-.512zm14.893-1.17v-1.02l-.202-.128c-.226-.145-.968-.437-1.207-.476l-.157-.026v.879l-.19-.026-.189-.025v.184c0 .162.016.188.13.213.221.049.743.195.83.232.076.033.084-.004.084-.423 0-.518-.03-.496.407-.303l.21.092v.813c0 .769.005.818.102.922.057.06.121.11.143.11.021 0 .039-.459.039-1.019zm-27.557.025v-.899l-.315-.176c-.318-.178-1.015-.443-1.167-.444-.074 0-.083.052-.083.443v.444l-.189-.034c-.224-.041-.238-.031-.238.172 0 .133.02.162.13.186.072.015.307.076.522.135l.391.108v-.443c0-.244.02-.443.043-.443.024 0 .163.046.309.101l.265.102v.69c0 .684 0 .691.127.823.07.073.145.133.166.133.022 0 .039-.404.039-.898zm-5.049.666l.377-.137.024-.752.023-.751.25-.071c.136-.039.248-.083.248-.098s-.118-.077-.263-.137c-.288-.119-.368-.114-.793.045l-.272.101v.969c0 .532.007.968.015.968s.184-.062.391-.137zm27.637-.17l.368-.132v-1.498l.26-.054c.144-.03.262-.064.262-.077 0-.012-.13-.083-.288-.158l-.289-.136-.334.113a2.166 2.166 0 0 0-.4.168c-.09.076-.096 1.96-.005 1.928l.426-.154zm-12.675-1.243v-.63h.302c.337 0 .472-.08.362-.214-.045-.054-.167-.071-.504-.071h-.445v1.82l.142-.137.143-.136v-.632zm2.75-.014v-.901H32.71l.05.142c.048.14.053.142.4.142h.351v.626c0 .614.002.628.128.758.07.074.134.133.142.133.008 0 .015-.405.015-.9zm-15.756.379h.261l-.032-.457-.032-.456.44.032.44.032-.332-.215c-.313-.201-.351-.214-.664-.214-.554-.001-.54-.014-.556.489-.012.409-.02.434-.12.448-.09.013-.107.045-.107.208v.193l.22-.03c.122-.017.338-.03.482-.03zm27.507-.142h.297v-.85l.36-.014.36-.013-.275-.202c-.264-.193-.29-.201-.617-.201-.505 0-.492-.013-.492.48v.423l-.142.028c-.13.026-.143.045-.143.219v.19l.178-.03a3.74 3.74 0 0 1 .474-.03zm9.83-2.623l.214-.06v-1.03l.9-.204.973-.22c.068-.015-.065-.115-.46-.344-.149-.087-.161-.086-.877.043-.4.072-.827.152-.951.178l-.226.048v.977l-.13.032a13.05 13.05 0 0 0-.38.104l-.248.071v.694l.486-.115c.267-.063.582-.141.7-.174zm-46.007-.32v-.526l.13.027c.278.057 1.606.265 1.695.265.07 0 .015-.079-.228-.324l-.322-.324-.863-.178c-.474-.097-.91-.188-.97-.202-.105-.025-.106-.02-.106.468v.494l-.273-.034c-.529-.066-.492-.09-.476.302l.014.343.617.101c.339.056.654.104.7.107.074.005.082-.049.082-.52zm27.679-1.23c.027 0 .629.41.837.571l.13.1-.076-.181c-.041-.1-.147-.323-.234-.497-.148-.294-.187-.333-.552-.552-.216-.13-.526-.302-.69-.384l-.296-.148v1.658l-.526-.189c-.289-.103-.534-.188-.545-.188-.01 0-.02.112-.02.25v.249l.477.16c.261.09.694.27.96.404l.484.241.013-.746c.007-.411.024-.747.038-.747zm20.996 1.08l.652-.154v-1.05l.498-.11c.274-.061.498-.124.498-.14 0-.055-.577-.384-.673-.384-.054 0-.287.025-.517.056l-.42.055-.013.5-.013.5-.367.095-.368.096v.344c0 .19.016.345.035.345.02 0 .33-.069.688-.153zM6.241 19.27c-.005-.317.01-.5.04-.5.027 0 .448.065.936.144.488.079.905.137.927.13.022-.008-.104-.157-.28-.331l-.322-.318-.925-.192c-.508-.105-.94-.191-.96-.191-.02 0-.036.215-.036.479v.479l-.381-.034-.382-.034.014.348.014.347.664.1c.365.054.672.093.682.086.01-.007.014-.238.01-.513zm22.716.194c.274-.092.589-.19.7-.219l.201-.052v-.777c0-.715.007-.78.088-.805a7.096 7.096 0 0 1 1.062-.168c.098 0 .178-.018.178-.04 0-.02-.14-.151-.31-.29l-.308-.25-.46.083c-.39.07-.827.194-1.163.331-.075.03-.083.117-.083.855v.821l-.26.12-.262.119v.243c0 .176.017.237.06.22.032-.013.283-.099.557-.19zm4.41-1.285v-.829l.131.022c.347.058 1.166.166 1.176.155.006-.007-.066-.129-.161-.27-.12-.179-.217-.27-.315-.297-.127-.034-.78-.126-1.41-.2l-.224-.026-.013.84-.013.84-.486.014-.487.014v.515l.676.015c.372.008.778.02.901.025l.226.01v-.828zm-23.857.082c0-.02-.053-.236-.12-.481a3.744 3.744 0 0 1-.106-.457c.04-.034.767-.257 1.01-.31.43-.093 1.953-.082 2.358.018.46.113 1.016.337 1.315.53.143.091.287.166.32.166.126 0 .054-.141-.174-.34-.716-.627-1.712-.94-2.983-.94-1.021 0-1.92.192-2.65.564-.483.246-.472.228-.307.553.254.5.409.676.612.698.338.035.726.034.725-.001zm46.969-3.597c-.206-.157-.835-.448-1.258-.582a10.008 10.008 0 0 0-.487-.148c-.012 0-.023.245-.023.544v.545l-.154-.026a10.708 10.708 0 0 1-.237-.042c-.07-.013-.083.02-.083.205v.22l.51.128c.28.07.558.142.616.16.106.032.107.028.107-.475 0-.578-.038-.55.463-.33l.249.11v2.009l.177.154.178.154.013-1.28c.011-1.178.006-1.287-.071-1.345zm-42.1-.042c-.034-.087-.851-.486-1.254-.612-.612-.191-.579-.214-.579.4v.523l-.237-.031-.237-.032v.433l.272.053c.15.03.428.102.617.16l.344.108v-.513c0-.282.012-.513.027-.513s.186.066.38.147l.352.146v2.002l.154.16.154.158.013-1.27c.007-.699.004-1.292-.006-1.319zm21.74 2.363c0-.044-.057-.29-.126-.548-.079-.292-.11-.485-.081-.513.063-.063.676-.272 1.052-.358.44-.101 2.06-.144 2.577-.069.666.098 1.488.404 2.103.784.405.25.418.088.023-.277-.611-.566-1.561-.956-2.721-1.118-1.321-.183-3.101.125-4.176.723-.4.223-.414.26-.225.615.217.407.467.741.592.791.057.024.302.044.543.046.38.002.439-.008.439-.076zm14.513-.437l.403-.144.013-.874.013-.874.13-.05c.07-.028.225-.076.342-.106l.214-.056-.356-.164c-.329-.152-.372-.16-.574-.115-.12.027-.339.102-.486.167l-.268.119v1.146c0 1.07.006 1.144.083 1.12.046-.013.265-.09.486-.169zm-41.821-.19l.13-.05v-1.792l.368-.06.368-.062-.4-.188-.4-.189-.259.082a6.08 6.08 0 0 0-.466.17l-.207.089v2.324l.368-.137a53.6 53.6 0 0 0 .498-.187zm15.272-.498c1.001-.328 1.367-.385 2.479-.384.871.001 1.048.014 1.414.107.5.126 1.086.37 1.505.629.168.103.333.188.365.188.134 0 .04-.15-.275-.443-.802-.742-2.284-1.172-3.816-1.106-.963.04-1.86.233-2.63.562-.341.147-.761.419-.761.494 0 .07.165.423.243.521.028.036.184-.018.504-.174a9.25 9.25 0 0 1 .972-.394zm5.847-3.204c-.19-.21-1.398-.73-2.029-.875l-.13-.03v1.287l-.285-.032-.284-.032v.52l.4.08c.22.044.55.13.734.193l.334.114.013-.657.013-.657.427.174.427.175.012 1.255.013 1.256.2.173.202.172.012-1.519c.01-1.297.002-1.53-.059-1.597zM42 14.198V12.66l-.32-.187a6.16 6.16 0 0 0-1.383-.583 13.346 13.346 0 0 0-.463-.135c-.009 0-.016.29-.016.644v.645l-.284-.033-.285-.033v.507l.581.148c.32.08.63.163.688.183l.107.036v-.67c0-.368.012-.669.028-.669.015 0 .228.089.474.197l.446.196v2.471l.176.18c.096.1.192.18.213.18.021 0 .038-.692.038-1.539zm10.945 1.115l.249-.003v-1.057l.429.03c.236.017.42.015.407-.005a3.293 3.293 0 0 0-.35-.26c-.315-.215-.344-.225-.657-.224-.18 0-.408.014-.505.03l-.178.03v1.022l-.143.031c-.133.03-.142.045-.142.256v.223l.32-.035c.176-.02.433-.037.57-.038zm-42.284-.077l.367-.029v-1.046l.403.034c.222.018.404.023.404.011s-.142-.131-.315-.265c-.342-.264-.368-.27-.976-.212l-.32.03-.012.527-.014.527-.13.015c-.123.014-.13.028-.13.249v.234l.177-.022a14.9 14.9 0 0 1 .546-.052zm11.948-.252c.192-.075.412-.157.49-.182l.142-.045.013-1.119.013-1.119.261-.076c.144-.041.394-.104.557-.138.33-.07.328-.072-.295-.24l-.448-.119-.43.147c-.236.08-.488.177-.56.214l-.13.066v1.374c0 .756.009 1.374.02 1.374.01 0 .176-.062.367-.137zm12.197-.1l.459-.212v-2.057l.271-.102c.15-.056.331-.113.404-.128.072-.014.131-.04.131-.057s-.157-.109-.349-.204l-.349-.172-.412.138a5.775 5.775 0 0 0-.552.211l-.14.072v1.378c0 .758.018 1.37.04 1.362l.497-.228zm-9.43-1.46l.568-.034-.016-.707-.016-.706.61.026.609.027-.45-.218-.451-.218-.546.011c-.3.006-.583.023-.628.036-.074.022-.083.095-.083.638v.612l-.19.03-.19.03v.28c0 .266.005.278.107.253a7.46 7.46 0 0 1 .676-.06zm12.011.003l.582-.027v-1.41l.106.022c.165.034.916.086.89.061-.014-.012-.197-.13-.408-.26l-.385-.24-.493.023c-.78.035-.707-.036-.707.676 0 .648-.007.668-.24.668-.08 0-.092.036-.092.29 0 .256.01.285.083.257.046-.018.345-.045.664-.06zm-10.71-7.105c-.102-.122-.187-.02-.187.228 0 .236 0 .237-.13.197a1.755 1.755 0 0 0-.393-.041c-.233 0-.286.019-.482.18-.194.158-.268.187-.634.24-.353.051-.43.08-.526.19-.096.112-.111.18-.111.497v.368l.381.424c.21.233.422.43.471.438.055.01.12-.031.168-.103.072-.11.07-.132-.026-.355-.056-.131-.087-.263-.068-.294.066-.106.484-.02.902.188l.401.198v2.834l.13.015.13.015.013-2.578c.009-1.796-.003-2.598-.039-2.64zm11.576 2.621c0-1.84-.015-2.59-.053-2.628-.107-.107-.184-.01-.184.235 0 .236 0 .237-.13.197a1.755 1.755 0 0 0-.393-.041c-.234 0-.286.019-.484.18-.19.156-.27.188-.567.228-.634.083-.703.154-.703.726v.348l.392.431c.215.238.428.432.473.433.045 0 .116-.051.157-.115.07-.106.068-.131-.027-.352-.057-.131-.087-.263-.068-.294.065-.106.484-.02.901.188l.402.198v2.84h.284V8.943zm-14.04.226a2.92 2.92 0 0 0-.143-.31c-.098-.193-.294-.434-.613-.753-.258-.258-.512-.492-.565-.52-.052-.028-.21-.051-.352-.051-.283 0-.333.028-.848.47-.164.14-.37.285-.457.321-.129.054-.149.08-.104.133.075.09.52.309.628.309.049 0 .233-.075.409-.166.54-.28.77-.24 1.382.24.299.235.664.415.664.327zm11.526 0c0-.013-.063-.15-.141-.305-.095-.189-.296-.434-.618-.756-.262-.262-.517-.498-.567-.525-.122-.065-.553-.061-.679.006a4.57 4.57 0 0 0-.452.36c-.193.169-.425.337-.516.375-.133.056-.154.082-.11.135.075.09.52.309.629.309.048 0 .232-.075.408-.166.54-.28.77-.24 1.382.24.3.235.664.415.664.327z"/></svg>