<svg xmlns="http://www.w3.org/2000/svg" width="64pt" height="64pt" viewBox="0 0 64 64"><path d="M31.793 0C14.234 0 0 14.234 0 31.793 0 49.355 14.234 63.59 31.793 63.59c17.562 0 31.797-14.235 31.797-31.797C63.59 14.234 49.355 0 31.793 0zM19.617 18.824c.594.012 1.14.375 1.77.188.187.058.453-.02.515.21-.097.255-.425.274-.636.38-.438.023-.832-.106-1.215-.23-.238.1.215.921.41 1.073.23.168.164-.05.336.22-.172.23-.281.675-.305.831-5.012.297-11.094.774-14.91 1.149-.172-.457-.23-.95-.398-1.403-.13-.316-.45-.414-.715-.492-.446-.063-.914.023-1.352-.117-.21-.18-.437-.606-.5-.82 5.692-.418 11.406-.551 17-.989zm4.684.707c.91-.047 1.578.383 2.129 1.117-.23.106-.48.192-.664.383-.262-.426-.727-.707-1.344-.718.176-.278.16-.594-.121-.782zm-1.024.086c.215-.05.258.2.38.367.105.118.058.383-.083.453-.191.016-.402.118-.597.188-.348.215-.97.977-1.075 2.809-.039.902.008 1.73.04 2.593a7.55 7.55 0 0 0 .78-.308c.032.406.34.894.403 1.386-.2.2-.52.184-.77.301-.136.121-.453.125-.394.367.238.223.715.13.848.45-.016.183-.243.23-.391.277l-.281.063c-.676-.083-1.34-.32-2.012-.418.27-.977 1.063-6.196 1.336-6.813.297-.781.832-1.492 1.816-1.715zM2.344 21.148a.1.1 0 0 1 .097.051c.325 1.278.614 2.61 1.043 3.899.118.488.25 1.007.266 1.507l-.11.079c-.386-.137-.238-.582-.5-.86-.285-1.086-.636-2.172-.84-3.285-.019-.398-.05-.926-.046-1.336a.118.118 0 0 1 .09-.055zm25.398.02c1.297-.05 2.602.547 3.317 2.695.125.29.273 1.082-.036 1.32-.457.32-1.261.29-1.757.255-.72-.043-1.477-.47-1.477-.47-.191-.093-1.27-.745-1.559-.316-.25.383.278 1.524.348 1.696.055.109.16.304.11.472-.04.032-.137-.004-.2.032a3.605 3.605 0 0 1-.664-.532l.016.004c-.223-.207-.465-.406-.688-.629-.324-.254-.183-.75-.203-1.172 0-.546.145-1.175.363-1.683a2.833 2.833 0 0 1 2.43-1.672zm-4.215 1.625c.207-.012.414-.004.801.05.047.032.121.067.149.13.062.136-.204.828-.176 1.062-.371.457-.762 1.277-1.051 1.445.133-1.312.05-1.668-.223-1.843-.195-.16-.199-.094-.402-.176.016-.207.016-.418.086-.613.394-.012.605-.043.816-.055zm-3.324.23c.106.004.195.043.149.133-.059.254-.145.543-.207.82-.18.657-.598 3.403-1.293 3.75-1.543-.574-3.176-.964-4.778-1.292-.367.156-.383.214-.765.34-.301-.114.035-.333.187-.489.348-.37.285-.469.738-.664.91-.371 1.563-.484 2.383-.488.551-.067 1.082-.086 1.645-.168.504-.14.675-.172 1.074-1.043.137-.32.277-.652.605-.86a.667.667 0 0 1 .262-.039zm-14.672.641c.032-.012.063-.02.09 0 .16.094.129.309.172.469.117.969.25 1.543.387 2.515-.02.063-.098.13-.149.153-.101-.024-.273.058-.332-.102-.094-.129-.004-.316-.136-.39.011-.954-.168-1.614-.106-2.582a.623.623 0 0 1 .074-.063zm25.653 2.457c.066.024.058.113.101.242.031.207-.012.39.11.528.187.14 1 .464 1.214.355.075.016.145.082.106.184-.067.207-.469.312-.77.402-.27.031-.414-.039-.644-.11-.16-.042-.38.005-.54.102-.042.086-.042.16-.011.278-.016.12-1.035.199-2.262-.215-.152-.059-.379-.25-.23-.317.297-.093.472.059 1 .059.969.02 1.43-.55 1.437-.543.301-.32.055-.79.39-.961a.205.205 0 0 1 .099-.004zm-21.422.77c1.289.32 2.683.515 3.98.816.168.082.258.234.305.41-.055.219-.34-.043-.477.035-.457-.02-.437.72-.765.828-.168.032-.059-.253-.157-.39-.093-.098-3.28-.887-3.28-.887-.134-.058-.184-.027-.18.195-.231-.156-.145-.457-.051-.628a.769.769 0 0 1 .625-.38zm-3.102.64c.367.004.742.02 1.125.051.563.25.817.64 1.23 1.504.184.559.317 1.219.294 1.8-.024.16-3.598 3.907-3.965 4.235-.032.012-.063-1.398-.168-2.14-.285-2.606-.883-3.43-1.067-3.86-.25-.441-.757-1.012-1.57-.871-.008-.04-.094-.074-.078-.14.27-.102.566-.27.867-.301l-.023-.02c1.152-.156 2.234-.262 3.351-.258zm28.195.035c.489.004.977.079 1.446.247.297.093.574.222.847.382.192.254.266.555.532.797 1.761 1.238 3.625 2.305 5.394 3.457 0 0 .508.281.309.864 0 0 .027.382-.48.804-.669.461-1.157.692-2.973.817-1.43-.032-4.532-.239-4.617-.243-1.372-.03-2.657-.586-4.055-.656-.09.05-.285.028-.367.04-.215-.454-.692-.587-1.075-.907-.66-.168-1.195-.621-1.836-.89-.19-.255-.546-.25-.668-.548-.12-.105-.113-.273-.109-.41.07-.265.363-.441.563-.582.273-.203.636-.254.875-.488.093-.113.007-.277-.067-.36-.316-.206-.617-.218-.969-.269-.613-.07-2.085-.375-2.242-.476-.152-.11-.195-.368.016-.387 1.305-.137 2.637.457 3.98.14 1.075-.195 2.145-.421 3.125-.87.746-.274 1.559-.47 2.371-.462zm-20.203.832c.215-.023.43.04.52.137.3.203.473.613.23 1.047-.203.23-.496.332-.875.207a.865.865 0 0 1-.308-.234 1.088 1.088 0 0 1-.11-.774.649.649 0 0 1 .543-.383zm8.938.415c.203 0 .41.042.617.132.191.09.305.153.418.344.09.16-.027.445.188.54.402.128.828.124 1.25.16.117-.04.183.003.234.171 0 .176.043.531-.41.64-.176.012-.5-.027-.5-.429-.266-.082-.633-.164-.918-.086a2.92 2.92 0 0 1-.746.656c-.426.25-1.051.258-1.48.157-.173-.075-.36-.176-.473-.375-.051-.11-.157-.325-.125-.676.043-.246.226-.606.445-.77.16-.16.45-.324.851-.394.23-.043.446-.074.649-.07zm-21.902.417l.09.004c0 .317-.102.672-.122 1.028-.02.14.09.308.059.476-.086.403-.125 1.598-.106 2.34-.078 1.723.907 4.594 1.977 5.95-.04.038-.106.1-.148.1-.063-.007-.118-.023-.18.017.035.09.105.14.11.238-.098.09-.18.047-.259.039-.359-.387-1.23-2.043-1.582-3.645-.312-1.18-.324-2.3-.265-3.617.043-.945.129-2.027.425-2.93zm8.347.133c1.317.39 2.399.586 3.73.785.047.383-.074.657.864 1.008.887.367 8.41 2.149 8.879 2.27-.32.164-.406.476-.676.695-2.879-.644-5.855-1.375-8.773-1.926-.809-.148-1.493-.36-2.258-.59-.418-.109-.703-.375-1.54-1.28a2.283 2.283 0 0 1-.226-.962zm43.945 2.09c1.047.063 1.598.735 1.825 1.031.058.13.418.254.386.536-.25.02-.636.09-.925.128-1 .149-2.164.829-2.164.829-.227.015-.532.015-.91.039-.145-1.606-1.094-2.043-2.255-1.528a2.04 2.04 0 0 1 .665-.504c1.02-.402 2.367-.414 3.378-.53zm-50.722.102c.277-.02.562 1.086.648 2.46.082 1.38-.082 2.508-.355 2.524-.281.016-.574-1.09-.653-2.465-.082-1.379.079-2.504.36-2.523zm6.281.75c.113.008.23.105.281.242.203.469.14 1.105.22 1.539-.044.953-.08 1.898-.317 2.8-.16.548-.356.86-.606 1.298-.148-.004-.402.078-.394.027.535-1.02.687-2.367.683-3.457-.062-.828-.05-1.399-.097-2.133.02-.242.117-.324.23-.316zm18.05.785c.419-.004.774.015.97.078.535.227.808.73 1.043 1.203.242.504.183.274.25.852 0 0-1.196.199-1.598.363-.16.074-.059.422-.059.422-.675.672-1.875 3.176-2.113 3.398-.145-.71-.21-1.445-.383-2.113l.012.008c-.18-1.028-.926-3.614-1.68-3.446-.14.032-.265.22-.457.16.07-.347.434-.562.672-.632.2-.043 2.086-.285 3.344-.293zm16.505.008c.558.074.89-.016 1.445.203.137.273.156.648.168.965 1.125.18 2.215.472 3.273.457 1.192.09 2.52.129 3.774.05 1.144.004 2.004-.972 3.172-.96.77-.122 1.176-.075 1.949-.13.273.024.52.239.574.434.328 1.121.649 2.29.805 3.465.059.93.289 1.8.137 2.777-.028.196-.18.348-.286.457a2.627 2.627 0 0 1-.671.41c-.668.188-1.36.407-2.043.465-.125-.004-.29-.02-.38-.113-.269-.383-.656-.766-.991-1.215-.418-.324-.79-.37-1.305-.367-3.68.277-7.211.524-10.887.875-.336.04-.656.207-.957.418-.277.277-.426.574-.582 1.055-.094.32-.066.593-.504.867-.7.309-1.57.34-2.336.184-1.18-.79-5.285-3.418-6.418-4.317-.289-.144-2.105-1.246-3.066-2.36-.082-.16-.082-.277-.004-.366.914-.2 1.902-.29 2.8-.497.344-.02.712.098 1.04.254.394.313 1.12.34 1.562.176a.972.972 0 0 0 .54-.75c.64.067 5.468.488 7.077.047.852-.254 1.524-.5 1.813-1.156.16-.438.387-.828.3-1.328zm5.336.015a.72.72 0 0 1 .093.457c-.128.313-.168.313-.277.625l-.488-.011c.066-.274.11-.16.207-.43.152-.215.254-.477.465-.64zm-18.227 1.575c.102 0 .215.007.332.019.375.066.621.203.953.273.364.04.856.106 1.18.23-.098.013.055.173-.223.333-1.09-.094-1.992-.398-2.797-.184-.07-.187-.07-.273-.168-.441.13-.176.399-.23.723-.23zm-8.008.09c.07.077.043.199.063.324-.059.304-.164.648-.153 1 .063-.028.184-.008.153.105-.156.734-.14 1.48-.149 2.258.012 1.363.059 3.055.657 4.25.351.836.71.66 1.015 1.293.07.168.024.37-.101.39-.028.008-.246-.054-.254-.011.004.101.195.402.172.515-.102.145-.235.145-.368-.007-.918-1.153-2.05-4.215-1.48-8.645.05-.531.195-.984.348-1.41zm-11.05 1.21c.027-.054.222.176.28.235.262.328 1.817 1.226 1.817 1.226.25.164 2.598 1.414 3.606 1.746 1.168.535 3.863 1.29 4.16 1.313.023.558.191 1.508.191 1.508-3.18-.875-12.48-3.254-12.547-3.278.2-.254.317-.43.422-.699.387.152 5.578 1.48 5.578 1.48-1.652-.89-3.25-2.687-3.472-3.367-.035-.097-.047-.148-.035-.164zM5.165 37l.116.047c.074.613.059 1.133.032 1.75-.024.254-.137.473-.22.707-.011.039.083.027.067.082.485.012.977-.043 1.465-.113.695-.016 1.273-.301 1.914-.45.168.11-.129.211-.133.348-.11.113-1.289.379-1.754.48l-1.859.192c-.23-.055-.457-.059-.7-.105 0-.032-.093-.063-.07-.137.082-.024.149-.098.297-.11.157-.148.325-.328.43-.546.27-.684.414-1.415.414-2.145zm19.058.098c.277-.016.57 1.086.648 2.465.082 1.374-.078 2.503-.355 2.519-.282.016-.575-1.086-.653-2.457-.082-1.379.078-2.508.36-2.527zm4.48.718c.258.211.203.582.25.899.129 1.289.258 2.539.621 3.738.149.586.508 1.07.332 1.52-.078.156-.855.37-1.066-.075-.18-.328-.164-.71-.207-1.152-.13-1.68-.227-3.219-.086-4.812.047-.055.07-.121.156-.118zm24.59 2.91c.39-.003.77.044 1.102.208.253.214.414.457.16.664-.14.03-.5-.008-.774-.028a13.218 13.218 0 0 0-1.926.051l-6.921.629c-.918.105-1.54.09-2.18.281-.422.239-.41-.168-.258-.504.258-.398 1.098-.476 1.777-.523l7.88-.691c.355-.032.753-.083 1.14-.086zm6.324.59c.606-.054 1.434.403 1.219 1.528-.113.367-.328.593-1.8.902-1.813.348-3.657.75-5.548.945-2.656.368-5.383.575-8.054.832-2.91.375-5.641.625-8.551.625-.621-.02-1.297.028-1.953-.027-2.492-.203-3.754-.516-4.43-.969-.137-.12-.234-.304-.184-.48.196-.402.73-.54 1.438-.5 2.066-.04 3.203.215 5.52.5 1.507.137 2.812.09 4.246-.293.5-.09.707-.668 1.187-.816 3.816-.442 7.36-.801 11.281-1.028.692.004 1.117-.07 1.535.235.672.48 1.54.042 2.286-.012.668-.25 1.609-.203 1.796-1.012.063-.148-.05-.293.012-.43zm-33.558.434c.058-.027.515 2.219-.079 3.09.004.058-.152.152-.105.164 1.152.012 2.383-.191 3.48-.309-.011.309-.703.446-1.18.52-.882.078-3.308.164-3.277.156.766-.437.832-1.45.895-1.848.098-.55.129-.886.266-1.773zm0 0" fill="#211e1e"/></svg>