<svg xmlns="http://www.w3.org/2000/svg" width="64pt" height="64pt" viewBox="0 0 64 64"><path d="M31.852 0C14.258 0 0 14.262 0 31.852c0 17.593 14.258 31.851 31.852 31.851 17.593 0 31.851-14.258 31.851-31.851C63.703 14.262 49.445 0 31.852 0zm-5.91 1.297c.156.633.093 2.039.324 2.695.23.66 1.398 1.778.55 3.863-.128-.574-.53-1.382-.777-1.652-.422-.383-1.59-1.723-1.105-2.762.488-1.039.785-1.222 1.007-2.144zm12.988.195c-.114.637-.758 1.906-.813 2.598-.058.695.578 2.203-1.039 3.765.117-.578.086-1.5-.031-1.847-.234-.52-.774-2.2.098-2.957.867-.75 1.207-.801 1.785-1.559zm-6.075.067c-.359 1.285-.574 2.03.196 3.832.453 1.058 3.015 2.707 2.695 5.52-.254 2.206-.703 2.628-1.656 4.284-.137-1.445-.848-1.18-.973-2.988-2.054 1.438-1.64 3.375-.422 5.164-.57-.09-2.047.059-2.664.129-1.508-1.445-2.52-4.41-1.234-6.688.726-1.292.707-1.859.617-2.726.613.621 1.617 1.476 1.332 3.766.961-.934 1.14-3.29.457-5.489-.687-2.199.555-3.98 1.652-4.804zM20.391 3.797c.191 1.324.32 2.113 1.754 3.445.843.781 3.859 1.262 4.707 3.961.664 2.117.421 2.672.226 4.574-.71-1.261-1.258-.738-2.11-2.336-1.292 2.149-.12 3.762 1.72 4.903-.555.152-1.833.855-2.372 1.168-1.964-.7-4.109-2.977-3.863-5.582.145-1.477-.117-2-.55-2.762.812.316 2.054.715 2.726 2.922.504-1.242-.262-3.496-1.785-5.227C19.32 7.133 19.719 5 20.39 3.797zm24.773.75c-.86 1.031-1.332 1.644-1.367 3.601-.016 1.153 1.633 3.7.195 6.137-1.125 1.91-1.699 2.117-3.246 3.246.465-1.37-.297-1.449.324-3.148-2.457.48-2.883 2.414-2.5 4.547-.48-.313-1.875-.79-2.465-.977-.796-1.933-.511-5.031 1.59-6.59 1.188-.879 1.414-1.41 1.688-2.238.308.813.832 1.984-.356 3.96 1.258-.46 2.395-2.523 2.66-4.808.27-2.285 2.137-3.425 3.477-3.73zM13.961 6.395c.394.511.918 1.832 1.394 2.34.48.507 2.036 1.062 2.114 3.312-.356-.477-1.094-1.055-1.43-1.203-.543-.18-2.129-.93-2.11-2.078.02-1.149.204-1.438.032-2.371zm36.785.585c-.36.532-1.484 1.438-1.816 2.047-.34.614-.356 2.25-2.47 3.02.34-.485.645-1.356.685-1.723 0-.57.23-2.328 1.328-2.66 1.101-.336 1.437-.234 2.273-.684zM9.934 10.941c.714 1.133 1.136 1.801 2.988 2.434 1.086.375 4.039-.434 5.91 1.691 1.469 1.664 1.484 2.27 2.078 4.09-1.164-.863-1.46-.152-2.89-1.265-.31 2.488 1.425 3.504 3.57 3.797-.445.367-1.324 1.507-1.688 2.015-2.086.156-4.945-1.058-5.777-3.539-.473-1.406-.922-1.793-1.625-2.309.871-.039 2.156-.183 3.668 1.56-.043-1.337-1.672-3.063-3.766-4.024-2.093-.961-2.59-3.082-2.468-4.45zm44.125 1.266c.41-.02.8.035 1.136.098-1.203.593-1.902.953-2.726 2.726-.485 1.043 0 4.043-2.305 5.684-1.809 1.289-2.418 1.223-4.289 1.62.984-1.065.3-1.42 1.559-2.726-2.442-.562-3.606 1.047-4.121 3.149-.317-.48-1.391-1.469-1.852-1.883.062-2.09 1.57-4.82 4.125-5.387 1.441-.32 1.879-.746 2.465-1.398-.051.875-.055 2.183-1.946 3.508 1.333.093 3.243-1.332 4.415-3.313.878-1.484 2.308-2.02 3.539-2.078zm-48.93 3.734c.57.309 1.562 1.29 2.207 1.559.644.273 2.266.152 3.25 2.176-.516-.29-1.39-.524-1.754-.52-.566.059-2.348.02-2.793-1.039-.445-1.058-.375-1.39-.91-2.176zm51.398.551c.133-.027.246-.015.387 0 1.14.145 1.426.367 2.371.293-.55.34-1.914.715-2.469 1.137-.554.422-1.261 1.879-3.504 1.723.508-.301 1.184-.954 1.364-1.27.203-.453.914-1.68 1.851-1.883zM31.98 18.246c7.586 0 13.735 6.149 13.735 13.734 0 7.586-6.149 13.735-13.735 13.735-7.585 0-13.734-6.149-13.734-13.735 0-7.585 6.149-13.734 13.734-13.734zm-20.777 3.246a4.234 4.234 0 0 1 1.883.39c2.02.927 2.289 1.47 3.57 2.891-1.418-.316-1.39.438-3.148 0 .73 2.395 2.695 2.622 4.77 2.012-.258.516-.587 1.926-.712 2.531-1.84.997-4.953 1.055-6.722-.875-.996-1.09-1.551-1.242-2.403-1.43.786-.386 1.903-1.042 3.993-.062-.586-1.207-2.793-2.148-5.098-2.176-2.3-.027-3.61-1.753-4.059-3.05 1.114.742 1.79 1.18 3.735 1.004.863-.079 2.383-1.184 4.191-1.235zm42.727.684c-.403.773-.918 1.996-3.184 2.433 1.184.63 3.48.07 5.36-1.265 1.878-1.332 3.972-.692 5.097.097-1.34.055-2.133.11-3.605 1.395-.868.758-1.645 3.695-4.414 4.254-2.176.445-2.707.137-4.579-.258 1.329-.578.852-1.172 2.532-1.852-2-1.507-3.739-.543-5.067 1.168-.093-.566-.652-1.898-.906-2.464.902-1.88 3.406-3.735 5.973-3.215 1.453.297 1.992.058 2.793-.293zm6.363 5.617c.277-.016.535.047.777.195.989.59 1.153.914 2.047 1.235-.64.086-2.05-.13-2.726.03-.68.157-1.91 1.224-3.899.161.586-.066 1.457-.394 1.754-.617.316-.281 1.207-.953 2.047-1.004zM.91 28.246c.645.05 1.969.535 2.66.52.7-.016 2.145-.801 3.864.648-.586-.055-1.516.11-1.848.262-.496.285-2.117.976-2.957.195-.84-.785-.914-1.125-1.719-1.625zm49.774 1.98c.925.028 1.859.278 2.66.844 1.207.86 1.785.907 2.664.91-.684.543-1.649 1.434-3.899.91.825 1.055 3.168 1.489 5.422 1.04 2.262-.457 3.91.965 4.614 2.14-1.243-.492-1.961-.77-3.833-.195-1.101.34-3.015 2.695-5.78 2.078-2.165-.48-2.54-.957-4.09-2.078 1.449.016 1.269-.742 3.085-.68-1.215-2.191-3.191-1.968-5.097-.941.144-.563.164-2.043.16-2.664.996-.844 2.543-1.41 4.094-1.363zm-40.067.196c2.219.02 2.668.426 4.414 1.203-1.418.285-1.07.98-2.855 1.297 1.644 1.89 3.511 1.27 5.16-.129-.027.574.258 2.02.39 2.629-1.277 1.652-4.09 2.953-6.492 1.914-1.355-.586-1.937-.5-2.793-.324.555-.672 1.293-1.727 3.606-1.688-1.027-.86-3.375-.816-5.488.098-2.114.914-4.036-.129-4.97-1.137 1.321.223 2.09.332 3.802-.617 1.004-.559 2.398-3.273 5.226-3.246zm36.528 6.95c1.765.023 3.738.776 4.738 2.464.75 1.277 1.25 1.559 2.047 1.918-.844.219-2.055.644-3.899-.746.32 1.297 2.266 2.64 4.516 3.148 2.246.504 3.18 2.469 3.344 3.832-.934-.96-1.504-1.488-3.442-1.722-1.144-.137-3.863 1.23-6.136-.453-1.782-1.325-1.899-1.918-2.86-3.57 1.32.597 1.453-.15 3.086.648-.219-2.496-2.125-3.118-4.285-2.957.36-.45.984-1.77 1.234-2.336a5.507 5.507 0 0 1 1.657-.227zm-32.047 1.167c.351.004.754 0 1.234 0-1.184.84-.578 1.328-2.078 2.336 2.27 1.063 3.738-.254 4.676-2.207.207.539 1.058 1.742 1.425 2.242-.492 2.028-2.543 4.39-5.16 4.414-1.48.016-1.984.301-2.695.813.23-.844.504-2.117 2.629-3.02-1.29-.37-3.438.645-5 2.336-1.559 1.7-3.738 1.516-5 .977 1.297-.328 2.074-.512 3.246-2.078.691-.922.848-3.97 3.441-5.098 1.528-.664 2.22-.723 3.282-.715zm-8.02.941c.48-.046.965-.003 1.43.13-.563.187-1.348.703-1.594.976-.332.46-1.508 1.773-2.598 1.394-1.082-.378-1.328-.652-2.27-.777.606-.223 2.032-.324 2.661-.617.477-.227 1.152-.988 2.371-1.106zm51.625.067c.578.008 1.164.144 1.492.617.657.941.676 1.293 1.364 1.945-.621-.18-1.813-.941-2.5-1.07-.688-.129-2.254.344-3.637-1.43.562.18 1.492.207 1.851.133a4.9 4.9 0 0 1 1.43-.195zm-16.656 3.05c2.07.282 4.601 2.075 4.902 4.676.164 1.47.551 1.95 1.137 2.598-.863-.144-2.164-.285-3.281-2.305-.235 1.317.98 3.364 2.824 4.739 1.851 1.375 1.898 3.523 1.496 4.84-.465-1.254-.758-1.98-2.438-2.989-.988-.593-4.027-.426-5.421-2.89-1.09-1.934-.965-2.516-1.168-4.414.957 1.086 1.394.43 2.566 1.816.813-2.371-.66-3.684-2.695-4.414.511-.266 1.617-1.238 2.078-1.656zm-19.254.813c.41.406 1.637 1.153 2.176 1.461.37 2.059-.512 5.016-2.89 6.102-1.349.613-1.673 1.097-2.11 1.851-.137-.863-.442-2.113 1.136-3.797-1.324.184-2.87 1.973-3.605 4.157-.734 2.183-2.785 2.898-4.156 2.921 1.05-.828 1.644-1.34 2.078-3.25.258-1.117-.84-3.953 1.07-6.039 1.504-1.632 2.121-1.714 3.863-2.5-.738 1.246-.015 1.485-.972 3.02 2.504.047 3.344-1.758 3.41-3.926zm14.059 2.367c1.777 1.098 3.378 3.774 2.597 6.27-.445 1.41-.3 1.992-.035 2.824-.73-.48-1.879-1.14-2.078-3.441-.746 1.105-.445 3.48.684 5.484 1.128 2.012.289 4-.618 5.035.09-1.336.121-2.101-1.007-3.703-.66-.941-3.497-2.02-3.766-4.836-.211-2.215.125-2.726.715-4.547.433 1.383 1.093.985 1.59 2.727 1.71-1.832.918-3.664-.649-5.16.578-.035 1.973-.457 2.567-.653zm-8.637.36c.539.203 1.98.394 2.598.453 1.18 1.726 1.57 4.793-.165 6.754-.976 1.11-1.074 1.695-1.168 2.566-.472-.734-1.273-1.777-.52-3.96-1.136.71-1.804 2.995-1.589 5.292.215 2.293-1.387 3.774-2.629 4.348.617-1.184.992-1.88.613-3.797-.222-1.129-2.394-3.293-1.492-5.977.707-2.105 1.227-2.406 2.5-3.828-.168 1.442.61 1.32.36 3.117 2.304-.98 2.312-2.968 1.492-4.968zm-14.578 2.37c-.434.395-.93 1.177-1.04 1.524-.12.559-.706 2.239-1.85 2.34-1.145.098-1.462-.074-2.372.195.469-.449 1.754-1.097 2.21-1.625.454-.527.825-2.125 3.052-2.433zm36.656 0c.441.388 1.266.802 1.621.876.57.062 2.281.43 2.5 1.558.215 1.13.094 1.461.457 2.336-.492-.418-1.281-1.582-1.851-1.98-.575-.395-2.184-.606-2.727-2.79zm-28.379 6.04c-.23.539-.363 1.453-.324 1.816.117.555.293 2.301-.715 2.86-1.004.554-1.355.52-2.078 1.132.25-.597 1.129-1.703 1.332-2.367.2-.668-.121-2.254 1.785-3.441zm20.098 0c.25.535.808 1.25 1.105 1.46.492.282 1.914 1.313 1.656 2.434-.261 1.121-.492 1.387-.52 2.336-.28-.582-.515-2-.878-2.593-.36-.594-1.754-1.422-1.363-3.637zm-10.063 2.11c.008.59.27 1.5.453 1.816.336.465 1.18 1.972.489 2.89-.696.918-1.02 1.059-1.43 1.914-.02-.644.348-2.035.262-2.726-.09-.688-1.032-2.028.226-3.895zm0 0" fill="#211e1e"/></svg>