<svg xmlns="http://www.w3.org/2000/svg" width="64" height="64"><path d="M30.077 62.965c-6.074-.4-11.868-2.531-16.654-6.128-2.234-1.68-4.565-4.01-6.244-6.245-6.302-8.384-7.912-19.556-4.237-29.4 1.24-3.32 2.95-6.258 5.29-9.087.76-.918 2.94-3.097 3.858-3.857a31.393 31.393 0 0 1 5.675-3.778C24.323 1.063 32.04.132 39.257 1.875 43.96 3.01 48.073 5.079 51.88 8.222c.94.777 3.113 2.947 3.888 3.883 3.896 4.709 6.236 10.083 6.994 16.065 1.181 9.321-2.054 18.582-8.898 25.465-5.197 5.228-11.9 8.486-19.01 9.238-1.108.117-3.65.166-4.777.092zM5.623 35.172c1.169-.295 1.38-.366 1.38-.467 0-.052.112-.282.249-.511.28-.471.302-.595.124-.69-.1-.053-.124-.13-.124-.39 0-.178-.057-.519-.127-.758-.217-.745-.248-.976-.139-1.056.129-.094.175-.636.08-.936a1.842 1.842 0 0 0-.261-.477l-.186-.236.045-1.113c.034-.833.065-1.112.124-1.112.115 0 .464-.573.505-.829.065-.4-.027-.651-.36-.985-.221-.22-.303-.346-.28-.431.041-.16-.24-1.289-.35-1.397-.046-.047-.19-.092-.32-.1a.624.624 0 0 1-.43-.207c-.49-.484-.731-.486-.873-.01-.159.535-.163.685-.039 1.384.103.578.146.703.285.822l.163.14-.144.054a.27.27 0 0 1-.266-.031.575.575 0 0 0-.28-.085c-.37 0-2.273.815-2.196.94.02.034-.014.098-.076.143-.182.133-.048.392.318.617.306.189.32.192 1.077.182.423-.006.86-.028.974-.05l.206-.038.127.428c.144.482.156.682.061 1.024a.754.754 0 0 0-.011.403.77.77 0 0 1 .02.334l-.035.168-1.004.028c-1.267.036-1.346.066-1.372.532-.015.25-.051.36-.14.422-.167.117-.15.299.04.43.088.062.25.187.36.279.11.091.27.183.354.205.085.021.499-.033.92-.12.42-.087.816-.159.88-.159.065 0 .157.083.214.194.081.157.088.244.036.45-.035.14-.077.484-.093.763-.015.28-.049.542-.075.584-.026.042-.051.252-.057.466-.01.369-.028.414-.331.809-.177.23-.321.471-.321.536 0 .106.031.113.323.073.178-.024.64-.124 1.025-.222zm35.211-3.561c.073-.111.113-.358.138-.853.03-.596.016-.772-.102-1.224-.203-.778-.193-2.344.023-3.597.182-1.051.287-1.957.287-2.468 0-.517-.382-1.588-.643-1.805-.139-.115-.37-.06-.409.097a.989.989 0 0 1-.197.317c-.09.101-.216.264-.279.362a3.15 3.15 0 0 1-.309.382l-.194.203.032.572.032.572.289.317c.543.596.596 1.363.129 1.854-.134.14-.188.272-.22.534-.048.398.047.652.308.822.418.275.577 1.164.301 1.683-.137.26-.426.555-.716.735-.13.08-.17.154-.17.306 0 .204-.14.924-.216 1.11-.036.088.022.107.412.14.25.02.552.045.672.057.626.06.726.046.832-.116zm-32.969-.497c.218-.051.595-.118.838-.147.242-.03.901-.17 1.464-.313s1.219-.272 1.458-.288c.656-.042 1.097-.148 1.288-.31.153-.128.217-.14.559-.11.317.028.458.006.795-.123.226-.086.868-.244 1.427-.35.972-.185 1.465-.313 2.01-.52.16-.062.468-.096.877-.098.435-.002.75-.04 1.023-.122.217-.065.713-.179 1.103-.252.39-.073.865-.187 1.055-.252.19-.065.858-.176 1.486-.247 1.251-.14 1.453-.198 1.694-.484.413-.49.35-1.263-.115-1.44-.194-.074-2.19.372-3.34.746-.603.197-1.021.28-2.202.437-1.902.253-2.64.404-4.572.933-.88.241-1.837.467-2.127.5-.66.078-.942.133-1.644.322-.579.155-1.862.353-2.295.353-.136 0-.415.07-.62.154a3.629 3.629 0 0 1-.605.194c-.128.022-.232.06-.232.086 0 .025.058.177.129.338.098.221.124.388.108.69-.01.22-.006.398.01.397.018 0 .21-.043.428-.094zm19.275-.362c.01-.01-.075-.613-.174-1.249a11.696 11.696 0 0 0-.158-.806c-.05-.205-.115-.819-.143-1.364-.028-.546-.081-1.09-.118-1.21-.097-.312-.082-1.603.027-2.323.091-.608.287-1.447.417-1.791.144-.38-.445-1.096-.901-1.096-.216 0-.477.104-.503.2-.012.044-.085.337-.162.653l-.14.574.17.134c.34.267.436.803.226 1.261-.145.317-.396.564-.76.749-.259.13-.296.177-.361.45-.109.45-.028.685.27.787.5.173.777.664.698 1.241-.054.393-.191.636-.547.97-.297.278-.306.296-.257.527.075.355-.018 1.89-.136 2.245l-.049.146 1.296-.045c.713-.025 1.3-.049 1.305-.053zm14.93-.72c.75-.227 4.637-.826 7.031-1.085.485-.052.897-.095.915-.095.019 0 .034.052.034.115s.05.159.11.213c.1.092.164.083.813-.114.388-.118.734-.214.77-.214.035 0 .278-.125.54-.279.26-.153.64-.333.842-.4.363-.12.368-.12.495 0 .164.154.316.152.723-.01.18-.07.628-.182.995-.246.966-.17 1.225-.34 1.225-.807 0-.29-.188-.53-.484-.618-.2-.06-.369-.035-1.284.188-.58.14-2.004.408-3.164.593-1.16.185-2.273.364-2.475.398-.202.034-.635.06-.963.06-.594-.003-2.396.289-4.036.652-.358.08-.881.163-1.163.187l-.511.043v-.158c0-.1-.057-.195-.153-.258-.135-.089-.215-.091-.713-.02l-.561.079v.344c.001.19.057.569.124.841.068.273.123.56.123.636.001.178.032.176.767-.046zm14.653-.075l.696-.136-.061-.159c-.067-.173-.077-1.32-.014-1.655.034-.186.06-.21.238-.21.273 0 .735-.144 1.315-.41a5.647 5.647 0 0 1 1.015-.331c.49-.1.529-.12.547-.27.015-.13-.013-.17-.14-.202-.184-.047-.192-.073-.066-.212.078-.086.08-.12.01-.216-.073-.1-.162-.11-.729-.094-.355.01-.953.022-1.328.025l-.682.005-.114-.341c-.151-.454-.179-1.545-.041-1.614.22-.11.747-.231.779-.18.056.091 1.007.056 1.547-.057.473-.098.497-.111.527-.289.028-.163.062-.19.28-.217.191-.024.251-.06.266-.16.025-.177-.104-.269-.435-.307-.26-.031-.295-.017-.536.217-.309.3-.567.343-.567.094 0-.107.049-.18.155-.228.1-.045.155-.12.155-.214 0-.242-.243-.247-1.146-.02-.45.112-.87.185-.93.162-.093-.036-.103-.083-.062-.305.026-.144.044-.318.04-.387l-.038-.806c-.04-.904-.057-.961-.277-.961-.199 0-.28.078-.339.321-.029.122-.085.172-.205.186-.205.025-.381.317-.434.724-.021.158-.076.364-.122.456a.88.88 0 0 0-.082.341c.001.142.05.197.26.298.704.338.713 1.208.016 1.616l-.279.163v1.534l.243.066c.266.071.6.401.663.657.022.087.026.284.008.439-.04.354-.324.666-.742.814l-.296.105-.01.497a9.272 9.272 0 0 0 .001.59c.006.052.017.254.025.45.011.261.039.357.104.357.049 0 .402-.061.785-.136zm-17.614-.137a1.49 1.49 0 0 0 .475-.356c.483-.638.26-1.51-.428-1.67-.132-.03-.673-.053-1.201-.051a20.056 20.056 0 0 1-1.644-.062 22.337 22.337 0 0 0-1.424-.082c-.728-.014-.749-.018-1.209-.257l-.468-.243-1.582-.019c-1.394-.016-1.674-.036-2.357-.173-1.027-.206-.983-.183-1.005-.525-.016-.25-.043-.301-.204-.38-.103-.051-.42-.103-.706-.117l-.52-.023.04.208c.037.185.148 1.674.158 2.113.004.145.036.172.237.204.128.02.61.105 1.07.19 1.393.253 2.795.384 6.636.618 1.62.099 2.587.188 2.764.256.062.024.088.084.068.159-.096.367.69.494 1.3.21zM8.432 26.964c1.772-.508 2.51-.596 3.693-.44.647.086.715.085 1.198-.03.281-.068.617-.123.746-.123s.539-.098.91-.217c.421-.135 1.182-.3 2.01-.436 2.699-.441 5.49-.971 5.592-1.062.114-.102 1.038-.305 1.67-.367.244-.024.515-.097.654-.175.455-.255.685-.801.5-1.188-.09-.19-.117-.205-.339-.183a2.623 2.623 0 0 0-.576.16c-.26.105-.492.14-1.018.155-.804.023-1.703.183-4.156.74-2.838.643-3.487.774-3.832.774-.178 0-.612.07-.964.156-.868.21-1.175.206-1.352-.016-.134-.168-.148-.17-.778-.161-.353.005-1.241.096-1.975.203-1.287.186-3.175.499-3.212.531-.01.009.072.16.182.338.264.425.31.91.125 1.329-.07.158-.107.288-.083.288.025 0 .477-.124 1.005-.276zm33.696-.387c.164-.033.326-.214.255-.285-.077-.077 1.48-.265 2.736-.33a7.404 7.404 0 0 0 1.635-.251 13.24 13.24 0 0 1 1.457-.28c.346-.038.657-.09.691-.117.07-.053.57-.115 2.76-.34 1.983-.205 2.934-.353 3.719-.58.878-.255 1.177-.561.99-1.013-.127-.308-.334-.368-1.02-.297-.33.034-.624.077-.653.095-.03.018-.34.06-.692.092-.355.032-1.146.183-1.785.34-1.121.277-2.524.462-4.714.62-.29.022-.625.077-.745.124-.332.13-.972.2-3.101.342-1.075.071-2.023.151-2.109.178-.144.044-.163.1-.281.818l-.127.771.18.04a.619.619 0 0 1 .25.112c.04.041.139.056.226.034.086-.02.233-.054.328-.073zm-3.42-.109c.651-.197.92-.47.921-.93 0-.267-.184-.702-.367-.869-.125-.112-.475-.169-1.741-.282-.427-.039-2.423-.276-4.435-.528a389.824 389.824 0 0 0-4.108-.5c-.406-.039-.442-.053-.387-.155.182-.34-.1-.58-.75-.636-.543-.047-.679.026-.784.423-.09.34-.274 1.533-.241 1.566.011.011.435.048.943.082.927.061 1.616.148 2.939.369 1.495.25 2.045.318 2.977.369.573.03 1.064.09 1.216.145.224.082.962.186 2.304.325.346.036.388.055.388.177 0 .175.111.285.288.285.077 0 .162.039.19.086.04.073.123.111.328.154.017.004.16-.032.32-.08z"/></svg>