<svg xmlns="http://www.w3.org/2000/svg" width="64" height="64"><path d="M32 1C14.88 1 1 14.879 1 32c0 17.121 13.88 31 31 31 17.12 0 31-13.879 31-31C63 14.879 49.12 1 32 1zm3.162 4.756c.226-.029.467-.002.733.101l.443.164c.22.305.432.675.773.887.13 1.004.074 1.88-.386 2.71-.48.645-1.05 1.188-1.604 1.769-.369.387-.341 1.023-.941 1.217-.415.525-.083 1.353-.498 1.878.194.333-.091.59-.276.83-.452 1.466.463 2.765.223 4.258-.313.921.212 1.973-.443 2.766-.193.802.708 1.216.386 1.99.268.84-.782 1.585.057 2.213.681-.019 1.04-.793 1.767-.664.71-.553 1.578-.692 2.325-1.162.718.056.902-.82 1.547-.885.765.084.911-.958 1.603-1.05.36-1.216 1.605-.029 2.047-1.163.553.276.903-.403 1.217-.717.073-.295.386-.443.607-.609.6-.295 1.05-1.078 1.824-.773.692-.766 1.77-.61 2.489-1.328.635.147.996-.747 1.603-.333.747.038 1.106-.828 1.824-.828.857-.71 1.955-.849 3.043-.996.443-.443 1.19-.323 1.77-.277.211.341.662.204.828.555-.424.746-.146 1.794-1.105 2.32.055.692-.72 1.05-.72 1.715-.275.414-.7.729-1.161.83-.221.331-.617.589-.662.994-.802.831-1.725 1.365-2.766 1.605-.166-.046-.304-.158-.498-.11-.498.635-1.502.947-1.658 1.823-.333.221-.672.748-1.106.389-.258.11-.12.386-.277.55-.304.315-.479.719-.94.776-.386 1.022-1.475.59-2.046 1.326-.148.084-.369-.164-.553 0-.34.59-1.031.839-1.547 1.272-.553-.139-.693.397-1.107.61.24.69-.561.948-.829 1.437-.359.664-1.613 1.088-1.05 1.992.165.146.137.366.22.55.304.342.775.619.72 1.106.792.757 1.953 1.56 1.603 2.766.405.332.323.857.664 1.217-.064.368.44.498.496.83.599.756 1.08 1.555 1.273 2.486.158.387.379.748.444 1.164.663.58.679 1.418 1.103 2.1.553.893.332 2.165 1.494 2.763 1.042.673-.48 2.002.885 2.545.083.562.249 1.107.498 1.604.074.783-.204 1.713.441 2.267l-.054.664c-.857.397-.315 1.521-1.328 1.715-.618.12-1.033-.222-1.604-.222-.387-.849-1.52-.02-1.824-.942-.11-.387.045-.874-.443-1.105.074-.268-.082-.441-.276-.608-.47.093-.774-.404-1.217-.22-.525-.573-1.077-1.134-1.16-1.881-.369-.6-1.161-1.124-1.383-1.825-.59-.488-.422-1.289-.773-1.878.294-.526-.508-.738-.498-1.217-.664-.82-1.393-1.715-1.881-2.654-.258-.268-.277-.656-.332-.997-.95-1.05-1.778-2.147-2.156-3.43-.719-.33-1.077-1.159-1.824-1.435-.221.036-.425.285-.498.496.1.37-.368.526-.442.83-.258.664-.637 1.336-.61 2.047a3 3 0 0 0-.663 1.658c-.774 1.025-.895 2.324-1.604 3.373.056.342-.285.534-.387.829-.561 1.604-2.8 2.13-3.261 3.87-.47.536-.784 1.382-1.55 1.55l-.884.996c.028.331-.359.59-.607.718-.692.443-.804 1.27-1.494 1.713-.508.471-1.142.866-1.88.94-.442.37-.996.01-1.439-.11-.313.203-.56-.184-.717-.386-.277-.93.296-1.63.885-2.268.212-.543.018-1.244.387-1.713-.065-.543.627-.766.498-1.328 1.105-.766 1.317-2.092 2.045-3.096.543-.525.138-1.494.885-1.88.82-.692.055-2.038 1.05-2.655.387-.58.609-1.289.664-1.935.415-.664.305-1.55.72-2.213.055-.46.541-.818.275-1.326-.03-.553.276-1.18.166-1.77.138-.239-.01-.487-.166-.664l-.166-.166c-.913.036-1.299-1.15-2.211-1.104-.563-.129-1.172-.187-1.715-.388-.415-.499-1.05-.498-1.492-.94-1.033-.129-1.918-.635-2.932-.828-.313-.102-.69-.02-.94-.277-1.354-.055-2.598-.332-3.98-.332-.193-.112-.453-.212-.555-.444-.857-.238-1.796.057-2.543-.275-.396.027-.856.561-1.216.055-.747.248-1.087-.821-1.768-.442-.894.414-1.162-.746-1.992-.498-.727-.22-1.245-.82-1.715-1.437-.12-.49.139-.997.443-1.328.211.064.323-.102.444-.221a.8.8 0 0 1 .441-.775c.83-.268 1.704.232 2.543-.165.663.093 1.3.249 1.936.387.35-.544.987.148 1.328-.387.359-.102.819 0 1.105-.277.681.093 1.511.34 2.045-.22.663-.058 1.264.561 1.826.22h4.035c.608-.406.904.757 1.604.277.305-.36.82-.22 1.217-.332.387.194.82.287 1.271.332.47.01.848-.526 1.272-.056.489-.322.93.304 1.383-.166.793-.488.877-1.492.72-2.266.102-1.124.211-2.24.553-3.262.211-.554.018-1.292.387-1.771-.111-1.272.885-2.157.718-3.373.084-.333.47-.22.553-.553-.037-.322-.092-.793.166-1.05.323-.14.416-.47.444-.774.303-.304 1.04-.488.828-1.105.22-.193.028-.555.166-.776.378-.193.524-.58.607-.94.276-.432.848-.737.83-1.27.526-.526.884-1.135 1.492-1.495.405-.608.914-1.51 1.715-1.603.553-.436 1.08-1.01 1.756-1.096zm.365.924a1.794 1.794 0 0 0-.24.006c-.885.396-1.308 1.337-2.101 1.88-1.023.479-.664 1.64-1.604 2.211-.921.258-1.116 1.329-1.549 2.047-.359.147-.635.535-.773.885.046.912-.895 1.411-1.106 2.213-.027 1.226-.553 2.246-.83 3.371-.562.968-.11 2.36-.719 3.318.028 1.079-.525 2.074-.166 3.153a.768.768 0 0 0-.166.607c.295.784-.424 1.476-.884 2.047-.858.175-1.696.34-2.655.275-1.668-.737-3.825-.488-5.64-.22-.48-.968-.783.443-1.438.054-.7-.322-1.604-.44-2.322-.386-.313.535-.839.092-1.271.386-.37.139-.674-.22-.997-.386-.617.444-1.601-.001-2.1.718-.34.139-.728 0-.995-.22-.37.065-.59-.322-.83-.444-.25.341-.646.038-.94 0-.442.702-1.365.26-2.047.389-.285.285-.69.303-1.049.441-.525.148-.139.775-.332 1.108.295.7 1.05.478 1.604.662.47.341 1.215.01 1.713.277.488-.443.718.359 1.217.221.496-.405.886.286 1.382.057.692-.444.914.883 1.715.496.323.387.958.193 1.381.166.075.111.269.166.223.332.543.203.94-.414 1.326-.055 1.041.037 2.064.395 3.096.11.36.727 1.18.581 1.771.83.764.091 1.73.01 2.486.277.415.47 1.07.396 1.604.553.305.395.765.44 1.217.496.524.01.914.37 1.44.388.515.526 1.713.83 1.27 1.825.277.387-.386.635 0 .996.028.47-.027.911-.165 1.326.046.645-.508 1.05-.444 1.715-.865.368-.164 1.187-.552 1.713.221.83-.59 1.226-.553 1.99-.415.312-.332.839-.498 1.273-.635.616-.286 1.64-1.05 2.211-.084.175-.056.397-.222.555-.11.774-.644 1.382-.773 2.156-1.022.497-.562 1.694-1.383 2.32-.137.167.055.471-.166.61-.563.138-.498.747-.498 1.217-.12.312-.48.533-.553.882-.912.258-.562 1.229-.884 1.827l.664.056c.496-.138.544-.803 1.05-.886.489.119.57-.35.829-.608.792.203.599-.665 1.162-.885.654-.221.626-.94 1.105-1.328.803-.221.774-1.188 1.492-1.492-.147-.774.462-1.465 1.108-1.88.248-.82 1.373-1.291 1.105-2.323.157-.276.434-.47.776-.387.238-.073.247-.36.164-.553.801-1.105 1.438-2.284 1.714-3.593a.68.68 0 0 0 .166-.774c.387-1.152.774-2.287 1.16-3.43.987-.46.656-1.648 1.66-2.044.36-.268.608.258.94.054.295.664.986-.165 1.272.498-.028.415.415.47.498.83.543.359.323 1.032.607 1.493.738.895.693 2.166 1.772 2.875-.01.498.626.727.662 1.216-.064.59.525.922.664 1.438.903.535.404 1.723 1.326 2.21-.037 1.78 2.405 2.24 2.488 3.983-.11.664.571.913.94 1.326-.092.784.822.776 1.219 1.163.985.507 1.703 2.082 2.984 1.824.442-.239.692-.738.498-1.217.442-.627-.11-1.26-.166-1.879-.313-.47-.728-.904-.719-1.494a3.11 3.11 0 0 0-1.549-2.709c-.055-.239-.062-.516-.33-.664-.258-.996-.785-1.88-1.052-2.875-.535-.49-.165-1.383-.829-1.77.13-.876-.397-1.485-1.05-2.047.212-1.095-.48-1.952-1.106-2.763-.202-.516-1.023-.627-.885-1.272-.58-.876-.563-1.98-1.494-2.709-.369-.414-.146-1.07-.607-1.437-.719-.554.166-1.098.498-1.494.737-.46 1.244-1.345 1.99-1.88.72.029.793-1.152 1.604-.886 1.15-.627 2.045-1.594 3.04-2.432.738-.72 1.678-1.162 2.655-1.382.194-.13.22-.324.275-.498.682-.553 1.275-1.096 1.938-1.547.461.054.764-.296 1.16-.387.193-.36.47-.637.83-.832-.028-.552.579-.827.828-1.27.885-.433 1.652-1.41 2.545-1.935-.028-.304.248-.49.387-.72.027-.323.22-.847-.166-1.05-.452.193-1.024.285-1.549.164-.341.028-.533.389-.94.278-.635.037-.857.673-1.494.719-.506.553-1.362.48-1.933.996-.692.147-1.3.56-1.992.716-.443.332-.92.065-1.381.39-.7-.112-.996.755-1.604.884-.755-.24-.802.561-1.162.94-.607.22-.69.995-1.326 1.161-.857-.018-1.281.996-2.156.942-.609.423-1.365.506-2.047.773-.617.359-1.217.92-1.936.883-.755.701-1.631 1.134-2.488 1.604-.802.23-1.75.12-2.322-.553.166-.664-.082-1.437 0-2.211-.37-.442-.203-1.106-.332-1.66.267-.303.183-.737.275-1.106-.083-.525.416-1.02 0-1.492.222-1.234.157-2.571.885-3.594a1.414 1.414 0 0 1-.164-.83c.682-.58.414-1.54.387-2.267.267-.553.847-1.04.773-1.659.903-.46.25-1.567 1.217-1.992.166-.607.683-1.077.664-1.77.434-.377.322-.966.387-1.491-.09-.25-.299-.327-.534-.338zm-5.55 12.006l.277.277c.074.258-.276.34-.33.553-.166 1.382-.508 2.884-.223 4.257.102.442.102.976-.22 1.327.073.664.046 1.356.443 1.88-.231.7.414 1.189.387 1.88 0 .479.635.691.662 1.161.626.414.718 1.577 1.603 1.217.6-.073 1.042-.525 1.604-.664.664-.348 1.208-.996 1.992-1.05.801-.268 1.189-1.125 1.99-1.383.25-.47.829-.442 1.16-.828.637-.056 1.135-.462 1.66-.774.47 0 .792-.388 1.16-.61-.027-.184.186-.267.278-.386.58-.029.986-.461 1.437-.773.222.054.544-.14.664.164.056.147-.082.231-.166.332-.276-.13-.37.222-.554.332-.387.084-.69.414-1.104.441-.166.452-.664.59-.996.887-.801.193-1.41.856-2.267.94-.664.8-1.669.855-2.268 1.712-.645.277-1.169.84-1.879.996-.645.72-1.585.995-2.101 1.824.019.609.71.729 1.05 1.108.637.414 1.438.672 1.825 1.437.682.674 1.123 1.528 1.77 2.266.358.774 1.069 1.41 1.216 2.268.498.478 1.041.967 1.05 1.658.102.369.581.453.553.885.443.497.442 1.19.94 1.66.083.194-.138.257-.22.386-.618-.156-.509-.913-.997-1.273.018-.414-.441-.542-.441-.938-.59-.82-1.032-1.743-1.659-2.49-.175-.571-.812-.938-.886-1.547-.47-.719-1.05-1.52-1.77-1.99a2.324 2.324 0 0 0-1.271-.94c-.47-.792-1.27-1.042-2.045-1.216-.36.054-.838.036-.94.496.028.313-.415.425-.443.72-.055.664-.727 1.078-.719 1.77-.45 1.326-1.216 2.523-1.383 3.979-.395 1.52-1.418 2.775-1.658 4.37l-.332.663c.027.166-.037.284-.166.387-.25.082-.368-.138-.553-.221.028-.222.14-.46.332-.553.554-1.511 1.08-3.033 1.77-4.478.102-.609.248-1.19.387-1.772.129-.432.321-.827.386-1.27.193-.211.074-.544.332-.718.185-.886.544-1.77.553-2.656.211-.295.111-.57.057-.883-.36-.462-.996-.49-1.549-.61-.617-.415-1.383-.543-2.102-.718-.995.01-1.724-.627-2.765-.498-.387-.323-.92-.294-1.381-.442-.728.249-1.052-.488-1.715-.386-.83-.046-1.658-.103-2.377-.39-.194-.028-.444.084-.555-.165-.055-.157.083-.24.166-.33.71-.241 1.043.423 1.715.275 1.236-.211 2.065.562 3.207.553.913.506 2.203.092 3.041.773.913-.165 1.623.646 2.434.223.69.12 1.732.314 2.156-.387.139-.995-.672-1.595-.773-2.488-.341-.416-.452-.932-.553-1.44v-4.421c.295-.747.35-1.595.387-2.434.378-.58-.14-1.687.717-1.935zm1.271 12.867c-.21.012-.384.243-.55.402-.342.416.155.832.22 1.164.211.137.443.192.719.164.322-.267.847-.544.552-1.05-.065-.378-.478-.405-.718-.608a.347.347 0 0 0-.223-.072z" fill="#231f20"/></svg>