<svg xmlns="http://www.w3.org/2000/svg" width="64pt" height="64pt" viewBox="0 0 64 64"><path d="M30.89 64.387C21.118 63.949 12.29 59.3 6.427 51.5a32.647 32.647 0 0 1-4.235-7.578C-.16 37.91-.633 31.21.84 24.836a32.297 32.297 0 0 1 5.574-11.938c3.059-4.054 6.902-7.277 11.356-9.503C21.555 1.496 25.484.41 29.82.062c1-.082 3.793-.082 4.785 0 7.86.637 14.899 3.872 20.383 9.356 5.293 5.3 8.504 12.082 9.278 19.59.183 1.781.203 4.238.039 5.945l-.028.336h-.754c-.414 0-1.109.016-1.539.031l-.793.032.036-.118c.039-.16-.07-.297-.278-.336-.133-.027-.176-.07-.207-.199-.039-.156-.043-.156-.203-.094-.129.06-.156.094-.144.204.011.113-.004.129-.145.129-.32 0-.45.203-.34.539l.059.171.25-.027.246-.027-.028.433c-.03.465-.093.703-.242.922-.199.278-.617.121-.812-.308-.09-.2-.098-.203-.32-.2-.126.004-.293.02-.372.036l-.136.03.175.266.168.262h-.207a3.1 3.1 0 0 1-.57-.097c-.39-.11-.734-.133-.785-.051-.04.062.172.433.32.574.098.082.203.098.899.113.433.012.972-.004 1.195-.035.395-.05.426-.062.605-.266a1.87 1.87 0 0 0 .301-.496l.106-.28.383-.032c.542-.047 2.042-.309 2.585-.45l.461-.117v.122c0 .062-.054.507-.129.976C62.07 50.38 51.785 61.164 38.52 63.793c-2.458.488-5.223.703-7.63.594zm10.551-25.778a1.92 1.92 0 0 0 .918-.629c.223-.285.23-.37.059-.484-.105-.074-.121-.066-.398.23-.43.462-.91.622-1.48.504a.868.868 0 0 1-.47-.226l-.18-.168.208-.004c.226 0 .332-.086.308-.25l-.015-.113-3.067-.008c-3.582-.008-5.465-.113-9.574-.527-2.39-.243-2.98-.329-5.781-.825a203.109 203.109 0 0 0-3.016-.53c-.191-.032-.387-.087-.426-.126-.082-.066-.593-.094-.593-.027 0 .058.402.437.53.508.06.027.196.05.298.05.105 0 .425.047.715.102.289.055 1.34.246 2.335.422 1 .18 1.829.34 1.844.351.016.016-.031.145-.101.293-.121.246-.137.262-.297.243-.195-.02-.477.144-.574.34-.23.453.21.995.687.85a.762.762 0 0 0 .317-.214c.109-.129.132-.2.117-.394-.012-.227.015-.274.261-.622l.274-.375.27.024c.156.016.644.074 1.097.129 4.082.496 9.586.847 12.426.785l1.238-.02.309.305c.222.223.379.332.558.387.313.105.883.117 1.203.02zm9.993-.441c.203-.07.355-.184.613-.441.305-.313.355-.344.496-.317.586.102 4.14.102 4.465 0 .097-.031.097-.031.004-.187l-.094-.157-1.934-.007c-1.82-.008-2.32-.036-3.828-.204-.246-.023-.312-.015-.37.047-.052.067-.056.114-.016.203.05.102.109.125.496.176l.515.07c.106.016-.133.247-.406.383-.273.141-.758.184-1.078.098-.192-.05-.309-.137-.598-.437-.273-.282-.386-.368-.472-.352-.086.012-.118.05-.13.164-.011.121.044.211.258.453.567.633 1.27.805 2.079.508zm-4.586-.461c1.113-.086 1.34-.133 1.34-.293 0-.035-.04-.102-.086-.144-.082-.075-.168-.075-.985-.008-1.18.093-2.64.172-3.113.172-.383 0-.496.046-.496.199 0 .199.074.21 1.168.183.726-.023 1.449-.062 2.172-.109zm-6.91-1.121c.105-.09.097-.305-.012-.328-.043-.012-1.637-.028-3.528-.04-3.054-.023-4.074-.05-5.132-.16l-.305-.027-.086.184c-.047.101-.074.195-.063.207.04.039.926.11 2.102.164 1.86.082 2.04.086 4.57.074 1.809-.008 2.399-.027 2.453-.074zm7.937-.078c.64-.086 1.29-.25 1.492-.375.188-.113.403-.492.352-.617-.032-.082-.043-.082-.145-.016a.78.78 0 0 0-.254.36c-.027.085-.43.038-.578-.067a.718.718 0 0 1-.203-.258c-.062-.14-.082-.152-.234-.129a.81.81 0 0 0-.34.176c-.317.277-1.156.527-1.68.496-.187-.012-.34-.012-.34 0 0 .067.227.371.34.461.121.098.176.102.61.07.261-.02.703-.062.98-.101zm-2.188-.059c-.199-.418-.203-.422-.386-.383-.098.02-.805.043-1.574.051-1.364.008-1.77.035-1.688.121.04.035 1.242.153 2.188.215.535.031 1.48.027 1.46-.004zm-15.214-.293c.043-.101.066-.191.054-.203-.015-.012-2.308-.73-5.101-1.586-8.399-2.586-15.742-4.879-19.434-6.07-1.8-.582-1.988-.625-2.785-.664l-.605-.028 1.546.52c1.715.578 5.97 1.934 10.52 3.348l3.55 1.105c.31.098.56.195.56.215 0 .043.984.34 1.124.336.051 0 1.278.367 2.715.809l4.711 1.453c1.02.312 2.04.625 3.059.945a.76.76 0 0 0 .086-.18zm25.726-.07h.414v-.523c0-.286-.02-.524-.043-.524-.023 0-.601.125-1.277.273-.711.16-1.418.31-2.133.446-.488.094-.898.18-.914.191-.078.082 1.8.188 2.793.16.41-.011.93-.023 1.16-.023zm2.68-.031c.187-.024.226-.047.203-.11-.062-.156-.113-.738-.09-.984l.024-.258.683-.23c1.453-.504 2.7-1.223 3.477-2.004.984-.989 1.101-1.82.355-2.442a3.647 3.647 0 0 0-1.898-.824c-.73-.098-3.215-.05-4.36.078-.21.02-.265.047-.25.114.012.07.153.09 1.036.144 1.257.066 2.164.164 3.726.387.664.097 1.223.176 1.238.176.055 0 .485.43.547.554.192.367-.035.907-.636 1.524-.836.855-1.891 1.433-3.875 2.12-.399.141-1.016.333-1.371.434l-.653.184-.012.562-.015.56.168-.005c.234 0 .539-.156.75-.379.226-.238.328-.203.426.172.078.285.086.29.527.227zm-15.914-.973a.363.363 0 0 0 .09-.191c0-.051.035-.102.074-.118.105-.043.094-.226-.024-.421a1.148 1.148 0 0 1-.097-.18c0-.012.16-.055.36-.106.198-.046.527-.148.734-.23.312-.117.425-.195.707-.48.28-.29.336-.376.394-.614.031-.148.102-.379.152-.515l.094-.243-.261.036c-.145.02-.301.046-.352.058-.074.02-.086-.02-.086-.457v-.48l-.285.03c-.16.02-.445.063-.637.095l-.351.058-.012.524-.016.527-.508.152a17.09 17.09 0 0 0-.597.192c-.078.031-.082-.016-.082-.617 0-.493-.02-.653-.067-.649-.03 0-.32.04-.633.086l-.578.086-.011.707c-.008.422-.032.711-.059.711-.047 0-.648-.125-1.086-.227-.11-.023-.113-.046-.113-.5v-.476l-.137.027c-.074.012-.316.047-.535.082-.672.094-.621.063-.621.348 0 .137-.016.246-.04.246-.187 0-.948-.172-.925-.215.02-.027-.027-.035-.117-.02-.074.016-.434-.023-.79-.09-.359-.062-1.175-.206-1.82-.32a68.695 68.695 0 0 1-1.77-.328c-.327-.066-1.515-.277-2.64-.465a212.87 212.87 0 0 1-3.57-.64l-1.523-.281-.215-.403c-.692-1.285-1.532-2.726-2.012-3.445-.375-.559-1.094-1.309-1.535-1.606-.852-.562-1.676-.554-2.195.024-.239.262-.325.43-.45.894-.093.344-.105.567-.129 1.848l-.023 1.461-.129-.023c-.164-.04-9.219-1.743-10.902-2.055-3.063-.57-4.614-.79-5.68-.793-.816-.004-1.074.05-1.203.25-.152.234.05.5.601.781.184.094.25.098 1.22.067 1.452-.051 1.027-.118 6.91 1.128 9.495 2.016 12.898 2.715 16.37 3.36 4.47.832 12.532 2.543 15.282 3.242.574.148 1.113.277 1.195.29.266.042.543-.009.633-.122zm-20.41-.164c.175-.09.433-.36.379-.395-.27-.086-.54-.171-.817-.25-.73-.21-.824-.226-1.715-.28-.437-.024-.879-.052-1.316-.083l-.36-.035.301-.2c.164-.109.297-.21.297-.23 0-.035-.48-.203-.582-.203-.027 0-.07.137-.09.301-.015.164-.05.309-.066.32a16.18 16.18 0 0 1-1.031-.047c-3.117-.207-3.692-.234-4.442-.175-1.351.097-1.996.257-2.125.527-.05.121-.043.145.078.25.192.164.391.207 1.309.293 1.707.16 4.625.258 7.887.273 1.773.004 2.183-.007 2.293-.066zm27.18-.73c.546-.126.718-.27.593-.485l-.078-.137-.543.016c-.48.016-.555.031-.633.121a.393.393 0 0 0-.008.477c.094.133.125.133.668.008zm-3.426-.301c.285-.098.601-.164.832-.18.347-.023.398-.016.66.125l.277.145.031-.25a5.55 5.55 0 0 0 .032-.493c0-.32.175-.847.328-1.007.152-.149.39-.172.547-.055.156.117.324.098.324-.047 0-.29-.375-.43-1.281-.465l-.72-.027v-.445c0-.403-.003-.438-.097-.438-.148 0-1.101.148-1.152.18-.024.011-.043.234-.043.492 0 .371-.016.473-.086.531-.223.188-.461 1.067-.461 1.711v.379h.172c.098 0 .383-.07.637-.16zm-11.227-2.664c4.86-.856 16.938-2.582 18.89-2.7l.524-.027.461.527c.445.504.473.532.664.532.23 0 .227.023.117-.633a4.317 4.317 0 0 1-.058-.496c.008-.012.246-.035.523-.055l.508-.031.172.625.277-.031c.149-.02.278-.04.281-.047a1.313 1.313 0 0 0-.058-.274c-.047-.148-.07-.277-.059-.285.04-.039.797-.129.828-.098.016.016.078.16.137.313l.106.285.27-.015c.144-.008.276-.024.28-.032.008-.008-.043-.14-.11-.297-.05-.101-.089-.199-.128-.304 0-.016.242-.028.54-.028h.538l.156.325.164.328h.348c.285 0 .348-.016.313-.067-.106-.16-.22-.316-.328-.472-.258-.356-.329-.418-.626-.551-1.394-.64-3.167-.883-5.539-.758-2.355.121-3.91.352-11.144 1.648l-3.215.575c-2.043.363-4.898.879-7.5 1.347-.687.125-1.281.239-1.324.258-.09.031 2.715.55 3.047.555.12.008.547-.05.945-.117zm0 0"/></svg>