<svg xmlns="http://www.w3.org/2000/svg" width="64pt" height="64pt" viewBox="0 0 64 64"><path d="M31.793 0C14.234 0 0 14.234 0 31.793 0 49.355 14.234 63.59 31.793 63.59c17.562 0 31.797-14.235 31.797-31.797C63.59 14.234 49.355 0 31.793 0zM47.18 4.102l-.098.226c-1.453 2.024-4.184 3.594-5.512 6.055h-.191c.766-2.297 1.73-3.934 3.652-5.606.707-.539 1.512-.652 2.149-.675zm-2.242 4.23c1.667.016 3.035.816 4.324 1.73-1.547-.062-3.383-.769-5.45-.769-1.183-.047-.257-.8.387-.926.25-.035.496-.039.739-.035zm-3.75.93c-.313 1.398-1.204 2.953-1.317 4.457-.05.332-.129.062-.129.062-.023-1.398-.703-2.992.547-4.004.3-.261.5-.398.898-.515zm-21.57.547c2.55.261 5.202 2.113 6.089 4.613.098.41.727 1.574.48 2.437-.257-.422-.46-.87-1.125-1.57-1.125-1.215-2.093-3.273-3.042-3.848-.965-.523-2.403-1.632-2.403-1.632zm18.652 0c-1.422 2.574-.497 6.054-.098 8.812l-.29-.094c-1.948-2.312-1.359-5.922 0-8.336zm-3.172.96c-.653 3.836 2.472 6.293 2.21 9.97-.058.519-.453-.024-.675-.481-1.196-2.95-3.125-6.211-1.535-9.488zm8.46 0c1.426-.062 3.594.356 4.165 2.532.66.39 1.89.457 1.699 2.726 0 0-.293-.355-.543-.836-.18-.343-.215-.68-1.027-1.152-2.625.45-4.84-.242-7.34-.64.25-.391.691-.5 1.25-.579 1.965-.113 3.355.086 5.129.387l.191.031c-1.648-1.715-4.008-.976-6.184-1.539.536-.61 1.434-.754 2.082-.867.168-.023.372-.055.579-.062zm-27.05.063c4.012 1.04 8.117 3.855 10.125 7.695l-.063.094c-2-1.8-4.066-3.473-6.379-4.488-1.386-.637-2.566-2.274-3.718-3.235zm22.531.578c.184 1.762-.336 3.457-.289 5.258l-.129-.035c-.914-1.496-.746-3.668.129-4.934zM26.41 14.04c.836.21 1.43.745 1.54 2.112.01 1.118.167 1.938-.321 2.95.164-1.926-.969-3.325-1.219-5.063zm16.473.737c.914-.058 1.808.059 2.5.672a24.21 24.21 0 0 0 2.629 2.63c-.86-.216-1.715-1.106-2.63-1.509-1.546-.984-3.734-.41-5.51-.832h-.29c0-.351.41-.5.676-.578.793-.094 1.715-.328 2.625-.383zm-25.895.672c.504.043.98.117 1.313.192 2.738.347 5.203 1.32 7.406 2.98.965.59 1.777 1.59 2.05 2.629-.726-.102-1.25-.984-2.05-1.41-2.863-1.586-6.285-1.98-8.719-4.39zm14.742.031c1.563 1.852 3.582 3.985 4.97 6.06v4.968c.28-.051.456-.11.702-.195.075-2.141.344-5.41 1.989-6.282l1.507-.738-.578 1.125c2.36-.633 4.617 1.602 4.617 1.602-1.277.113-2.613-1.032-3.976-.32-.406.257-1.055.343-1.504.222-.828 1.316-1.46 2.7-1.574 4.2.504-.235 1.699-.65 2.66-.61 1.137.113 2.273.355 3.367 1.988-.656-.137-2.703-1.316-3.527-1.027-1.93.613-2.371.609-3.653 1.316.165.645.305 1.031.192 1.633-.524-.2-.918-.64-1.055-1.184-1.34.735-2.672 1.45-4.168 1.825-.406 1.136-1.11 1.644-2.117 1.957-.098-1.176 1.43-1.926.258-3.079.601-.093.996.13.96.836.321-.343.544-.746.641-1.125.036-2.132.594-2.715 1.157-3.109.64-.434 1.562-.684 2.273-.734-1.195 1.125-2.57 2.066-2.789 2.82-.258.762-.008.894-.289 1.539 1.07-1.02 2.57-1.738 3.785-2.211-.273-.703.262-3.246.61-4.234l.03-.16c-2.058-1.715-3.156-3.465-4.167-5.606-.149-.387-.348-1.027-.32-1.477zm-1.152 1.668c1.047 1.61 2.727 3.11 3.652 4.872-.398.023-.964-.032-1.472-.579-1.153-1.328-1.88-2.632-2.18-4.293zm-1.57.16h.062c.567 1.403 1.782 2.919 1.059 4.52.723 1.637 1.836 3.895.45 5.61-.466.21-.845.667-1.38.769.063-1.102 1.485-2.312.16-3.305v-.254c.278.024.508.239.77.352.187-.727.086-1.535-.29-2.148-.452.402-.609 1.234-1.12 1.507.398-1.375.52-3.37-.48-4.52v-.35l.573.35c.09-.835.258-1.753.196-2.53zm12.34.16c1.3-.128 2.574.134 3.554 1.184a9.954 9.954 0 0 0 1.989 2.309s-.22.156-1.282-.418c-1.062-.57-3.464-2.367-6.316-2.176-.688.043-.473-.18-.254-.324.738-.258 1.527-.5 2.309-.574zM9.39 17.98c2.265-.011 4.691 1.313 5.671 3.301-.933-.496-1.664-.433-2.21-.511-.88-.04-1.926.359-2.723 1.023-1.238.969-2.32 1.617-3.27 2.855.075-.761.543-1.78.993-2.34a5.8 5.8 0 0 1 3.335-2.53c-.828-.403-1.847-.415-2.82-.387-1.363.047-2.375.945-3.558 1.41l-.098-.094c1.125-1.602 2.781-2.602 4.68-2.727zm9.582 1.25c.863-.02 5.593.332 8.27 2.82.612.606 1.093 1.9.929 2.727-.985-1.386-1.961-2.718-4.23-3.144-2.11-.246-4.712-1.465-5.063-1.695-.453-.293-1.059-.645-1.059-.645s.504-.047 1.153-.063zm31.765.899c-.363 1.95-1.086 3.746-1.765 5.543 0 0-.641-1.442.226-3.942.196-.5.739-1.363 1.54-1.601zm3.27 1.121c.969 0 2 .281 2.914.578 0 0-2.61.262-3.43.48-.926.153-2.094 1.594-3.043 2.594h-.191c.172-.843.57-1.816 1.12-2.53.747-.845 1.657-1.122 2.63-1.122zm-5.801.48c.05 1.403-.328 3.23-.898 4.422l-.227.356c-.324-1.262-.355-2.918.29-3.817zm-2.34.032c.266.468.293 1.203.16 1.925l-.066 3.395c-.797-.45-.957-1.496-1.121-2.371-.172-.719.824-1.668 1.027-2.95zm-32.308.195c.308-.031.597-.012.8 0 .774.07 1.016.238 1.473.605.172.16.328.344.387.45.074.175-.336.144-.676-.032-.77-.304-1.55.055-2.016.13-2.16.617-3.203 2.73-4.394 4.519.039-1.387.46-2.7 1.41-4.04.836-1.187 2.09-1.546 3.016-1.632zm6.343 0c.532.035 1.055.156 1.668.32 1.528.313 2.938.871 4.422 1.313 1.328.547 2.164 2.02 2.727 3.203.133.32.054.645-.067 1.09l-.125-.223c-1.683-3.129-4.812-2.953-7.437-4.168-.95-.363-1.902-.855-2.79-1.281.505-.211 1.055-.3 1.602-.254zm35.067.672c.332-.008.668.02 1.12.062l1.028.258c-1.96.07-3.64.809-5.16 1.953h-.289c.195-1 1.598-1.996 2.273-2.144a4.568 4.568 0 0 1 1.028-.13zm-15.16.223c.437-.082.96.113 1.28.257 1.352.375 2.11 1.625 3.079 2.563.121.129.2.215.289.289-1.277-.047-2.539-1.277-3.945-1.793-.422-.273-1.075-.512-1.121-1.125a.926.926 0 0 1 .418-.191zm18.59.355a5.888 5.888 0 0 1 1.73.191l1.664.383c-1.762.403-3.625.043-5.703.867-1.137.426-2.028.305-2.918.352 1.473-1.043 3.426-1.754 5.226-1.793zm-43.497.445c.246-.066 1.528.082 2.02.48.23.235.433.47.64.708.188.023 1.043.379 1.125.48a2.94 2.94 0 0 1-.644.098c.297.371.492.8.77 1.184.152.05 1.16.144 1.218.226.063.086-.597.27-.832.29.27.37.61.706.899 1.089-1.008.09-1.532-.398-1.957-.805-2.325.965-5.832 2.375-5.832 2.375 1.246-1.246 2.785-3.105 5.414-3.047-.098-.25-.332-.652-.606-1.058-2.14-.074-4.242.844-5.644 2.246l-1.313 1.215c.137-.824.848-1.79 1.41-2.625 1.215-1.613 3.137-1.762 4.778-1.73-.567-.415-1.668-.61-2.535-.548.144-.238.597-.44 1.09-.578zm42.887 1.22c.461-.009.852.1 1.281.51.66.75 1.575 1.337 2.278 2.15-.891-.16-2.332-1.083-3.27-1.571l-2.629-.223c-1.422-.187-.312-.402.77-.675.597-.067 1.11-.184 1.57-.192zm-5.832.48c.168-.008.371.05.574.128-.023.266-.488.27-.672.48-1.761 2.34-2.07 5.384-1.859 8.43-.426-.507-.598-.956-.8-1.73-.708-2.133-.298-4.8 1.44-6.539.442-.383.81-.75 1.317-.77zm-31.539.191c1.86-.047 3.965.39 5.672 1.059.824.402 1.402 1.015 2.05 1.765.266.317.965 1.145.579 2.082l-.098.192c-1.898-2.813-4.844-3.618-7.21-4.23-.61-.141-1.356-.571-1.763-.802.254-.027.504-.054.77-.066zm30.031.129c-2.488 2.488-2.523 6.055-2.5 9.457-1.715-1.79-1.332-4.742-.578-6.828.574-1.137 1.762-2.438 3.078-2.63zm2.918.098c.375.277.067.832.192 1.12.25-.187.285-.46.449-.671h.285c1.398 2.488.578 6.601.578 6.601-.676-1.468-1.676-2.75-1.7-4.488-.983 1.629-.898 4.316-1.472 5.29 0 0-1.633-6.024 1.121-7.5zm1.985.578c.32-.024.855.168 1.218.382 1.64.985 2.59 2.637 2.887 4.297v.383c-.914-1.137-1.57-2.265-3.078-3.203-.43-.379-1.203-.934-1.316-1.574-.02-.188.097-.274.289-.285zM46.89 27.53c.16-.015.324-.023.48 0-2 2.09-2.855 5.067-2.242 8.078l-.098.098c-.86-1.34-1.136-2.672-1.023-4.168-.727 1.398-1.086 2.188-1.348 3.813-.988-3.157.586-5.555 1.7-5.93.226-.735 1.406-1.77 2.53-1.89zm-8.59.32c.414-.046.922.036 1.476.45.961.719 1.407 1.836 2.243 2.887-.454.027-1.055-.422-1.477-.676a38.91 38.91 0 0 1-3.172-2.434c.172-.008.516-.18.93-.226zm-15.703.13l.414 1.44c1.988.427 4.367.22 5.48 2.18.133.512.156.989 0 1.348l-.449.832c.066-.465.05-1.273-.223-1.539-1.297-1.238-2.93-1.02-4.453-1.699l-.289-.125c0 1.523-.074 3.82.129 4.773.078.383.02.582-.164.29a6.499 6.499 0 0 1-.672-1.57c-.312-1.411-.465-2.247-.351-3.849-.586-.3-1.829-1.183-1.829-1.183.989.05 1.715.281 1.989.351zm-4.328 1.796c.253-.035.566-.035 1.058.094.852.258 1.254 1.106 2.113 1.219-.117.164-.328.21-.449.258-1.21.261-1.91-.34-2.883-.899-1.46 2.274-3.37 4.399-5.257 6.41-.317.297-.442-.16-.45-.32.2-2.785 2.485-5.668 5.16-6.57.27-.082.454-.16.708-.192zm19.132.48c.664-.112 1.344.411 1.891.864 1.637 1.688 2.586 3.55 2.824 5.8-.43-.562-.765-1.269-1.156-1.698-.984-1.875-2.75-2.817-4.102-3.942-.43-.281-.015-.836.543-1.023zm-2.691.095l1.316.03c-1.203.938-2.691 1.743-4.394 2.118-.137.156-.328.586-.48.77.85.425 1.874.62 2.437 1.507-1.008.188-2.184-.105-3.207-.484-.324.527-.852.672-1.313.738.137-1.101 1.032-2.347 2.18-2.883.387-1.425 2.281-1.66 3.46-1.796zm-16.313 1.12c1.497.641 3 1.981 3.75 3.59l-.03.227c-1.692-.512-3.184-2.074-3.72-3.816zm7.79 1.028l-.516 1.41c.82.16 2.047.555 2.117 1.602.113.914.059 1.773-.578 2.148.66 1.528-.356 2.09-.898 2.278-.336.09-.887-.145-1.153-.418-.469-.458-.7-.598-1.25-1.442 0 0 1.098.23 2.18.129.91-.09.781-.504.32-.738a15.415 15.415 0 0 0-1.828-.739c.316-.316.973-.78 2.246-.93-.515-.6-.933-.698-1.57-1.023-.403.45-.969.832-1.445 1.055.097-.496.378-1.219.48-1.57-.258-.153-.574-.77-.574-.77.383-.015.793.137.96.196 0 0 .934-1.274 1.509-1.188zm10.32.031a.873.873 0 0 1 .285 0c1.137.153 1.957 1.469 2.535 2.438.938 1.898 1.172 3.375 1.41 5.351 0 0-2.902-3.691-4.265-6.218-.258-.536-.532-1.438.035-1.57zm-24.875.16c.168 1.766.469 3.649-.192 5.258-.125.258-.308.512-.543.543-.449-1.797-.91-4.59.735-5.8zm-2.5 1.477c.039.02.058.09.066.223.04.52 1.082 4.12 1.059 6.41l-.098.226c-.8-2.039-2.555-4.113-1.281-6.57 0 0 .152-.348.254-.289zm26.445.512c.317.008.606.258.64.8 0 0 .407 1.977.673 3.11.246 1.043 1.152 4.71 1.152 4.71-1.55-1.85-2.816-3.562-3.332-5.929-1.39 2.305-.316 4.574.512 6.7-1.48-1.313-2.766-4.024-2.465-6.86.168-1.129.812-1.309 1.824-.863-.164-1.043.465-1.68.996-1.668zm-18.496.16c1.977.023 3.73.562 5.355 1.41-.55.8-1.925.477-2.726.29-.914-.142-1.59-.876-2.629-.74-1.473 1.927-3.621 2.673-5.61 3.56-.284.058-.046-.407.098-.579a16.84 16.84 0 0 1 5.512-3.941zm12.34.832c1.133-.02 1.812 1.07 2.469 1.89-.676.028-1.485-.597-2.434-.64-.508-.024-.508.05-.898.035-.114-.539-.008-1.094.351-1.219.18-.054.352-.062.512-.066zm-23.492.195c.425 1.313 1.347 2.75 2.437 3.875.844.774 1.192 1.711 1.504 2.598.066.312-.098.414-.351.222-1.528-1.046-2.747-2.546-3.141-3.394-.399-.848-.45-3.3-.45-3.3zm17.082.574c-.207.594-.34.934-.48 1.602-.298 1.352-.9 2.844.19 4.168.09.176.032.234-.062.16-.469-.258-.984-1.02-1.152-1.41-.254-.613-.293-1.281-.195-2.082.23-.996.8-1.688 1.699-2.438zm-20.063.29c2.5.902 2.196 3.539 4.07 5.19.887.993 2.153 1.599 2.114 3.048-.403.125-.836-.2-1.313-.547-1.965-1.723-3.699-3.461-4.133-6.024-.152-.601-.488-.984-.738-1.668zm14.84 1.12c1.035-.066 2.059.258 3.11.32.14.036-.06.145-.16.196-.962.547-2.16.102-3.11.352-1.899 1.023-2.895 1.468-4.969 2.308-.46.18-1.277.512-1.601.512-.407-.125-.086-.648.289-.93 1.53-1.343 3.703-1.941 5.382-2.53a3.7 3.7 0 0 1 1.06-.227zm30.543.45c.906-.07 1.82.02 1.605 1.219-.078.59-.14 1.394.446 1.792-.336.301-1.09-.515-1.153-.93-.101-.398-.152-.812-.449-1.12-1.586 1.828-3.21 3.238-5.062 4.87.129-.745.176-1.444.703-2.241.766-1.364 1.742-2.715 3.047-3.493.254-.015.558-.074.863-.097zm-24.55.77c.25.324.429.964.511 1.41.215 1.492.312 3.683.289 3.847-.031.164-.18.094-.254.031-1.305-1.07-1.234-3.574-.547-5.289zm-21.923.128c.254.531.614 1.067.739 1.41 0 0 .722 1.118 1.312 1.989.676 1.004 2.922 1.918 4.36 3.3.234.375.3.829.289 1.313-1.551-.184-2.633-1.422-3.942-2.148-.926-.696-1.422-1.051-2.117-2.145-.648-1.129-.734-2.344-.64-3.719zm17.758.258c.387.688.781 1.426 1.281 2.05.387.473 1.336 1.473 1.793 1.923.7.789 1.372 1.601 2.02 2.437.148.219.816 1.09.93 1.41.707 1.328 1.414 2.774 2.886 3.524l.094.351c-2.062-.27-3.016-2.93-4.453-4.453l-1.156-.289c-.075 1.64.113 3.262-.383 4.84-.258-.395-.645-.867-.836-1.473-.563-1.386.039-4.242.484-4.136l1.09.066c-.195-.332-1.703-1.168-1.894-1.348-1.012 2.215-1.098 5.282-2.723 6.828-.027-.988-.121-1.542.098-2.628.12-.762.23-1.477.414-2.278-1.184 1.13-2.145 2.04-2.914 3.27-.211-.274-.5-.528-.641-.672.676-1.211 1.469-2.43 2.785-3.621-.746-.012-1.984.129-2.785-.035.742-.657 2.64-1.125 3.621-1.442-.387-.304-.687-.457-1.027-.738-.59-.398-.766-.68-.832-.8.355.027.789.062 1.218.16 1.231.363 1.149.402 2.243 1.058-1.114-1.727-1.313-4.004-1.313-4.004zm9.102 0c1.172.05 2.222 1.664 3.074 2.625-.398.352-.73-.66-1.215-.289l-2.34 1.766c-.078-.938.758-1.899 1.41-2.727-.277-.371-.949-.437-1.41-.254-1.156 1.426-1.175 3.305-1.765 4.965-.067.191-.215.414-.543.645-.461.207-.606-.239-.61-.645-.113-2.648 1.098-4.586 3.399-6.086zm15 .574c.215-.015.472.032.77.13-.868 1.3-1.438 2.425-2.567 3.687-.332.261-.508.199-.32-.067.796-.992.593-3.62 2.117-3.75zm-26.508.961c.309.008.648.047 1.027.13-2.308.679-3.902 1.495-4.777 1.921 1.344-.129 2.879.207 3.367.418-1.3.48-2.672.734-4.23 1.25 1.21.266 3.234 1.797 3.234 1.797-2.46 1.172-3.758-2.281-6.055.062l-.418.352c.07-.824.641-2.031 1.793-2.18-.097-.164-1.379-.047-1.214-.285.414-.824 1.148-.953 1.824-1.125-.375-.187-1.485-.395-1.09-.672 1.808-1.062 2.922-1.191 3.91-1.312 1.004-.141 1.7-.38 2.629-.356zm31.762 1.156c2.3-.273 4.738 2.102 5.226 3.11 0 0-2.84-2.254-4.648-2.149-1.078.043-2.535.582-3.844 1.09l-.195-.066c.648-1.262 2.504-1.89 3.46-1.985zm.355 1.793c1.809-.078 3.52 1.079 4.422 1.73 0 0-3.645-1.304-6.668-.831-.125.004-.406.039-.191-.13.57-.374.933-.429 1.668-.67.257-.071.507-.087.77-.099zM31.57 44.2c.254-.02.528-.004.801.031.598.778 1.563 1.438 2.5 1.54 1.02-.813 1.973-1.2 3.238-1.313.258-.027.543.32.543.32s1.618-.414 2.535.16c-.968.293-1.32.59-1.925.961-2.328 1.528-5.032 6.38-5.032 6.38.012-2.012.504-3.825 1.797-5.321-.379-.215-.785-.012-1.156.285-1.125 1.051-2.398 1.934-3.238 3.27.113-.825.312-1.676 1.058-2.563.438-.625 1.028-1.043 1.54-1.601-.364-.18-.782-.293-1.06-.516-.765.59-1.534 1.508-2.401 1.957.535-.727.976-1.691 1.378-2.469-.043-.293-.39-.265-.96-.129-1.395.504-3.747 3.516-4.36 2.918-.488-.46-.254-.683.192-1.152 1.41-1.129 2.765-2.61 4.55-2.758zm12.082.578c.567-.043 1.157.012 1.668.192-3.879.851-6.078 5.27-7.691 8.363-.824-3.137 1.016-5.75 3.43-7.625.703-.527 1.648-.867 2.593-.93zm2.309.801a2.76 2.76 0 0 1 1.508.45c-3.078.136-5.223 3.605-6.668 5.992-.434.652-.61 1.402-.832 1.667 0-2.949.906-6.234 3.843-7.597a4.884 4.884 0 0 1 2.149-.512zm4.07.031c.57 0 1.149.07 1.668.13 2.41.32 5.102 1.831 5.899 3.363 0 0-2.61-1.707-5.965-2.243-1.051-.214-2.387-.379-3.235-1.027a5.76 5.76 0 0 1 1.633-.223zm-1.73 1.059c.02.277-.106.5-.258.703-.504.574-2.383 2.059-3.012 2.406-2.008 1.356-3.398 3.621-3.398 3.621.297-1.8 1.816-4.468 2.695-5.32 1.074-1.101 2.488-1.234 3.973-1.41zm1.797.48c.347.012.832.133 1.215.254.949.38 2.128.57 2.695 1.508.66 1.274.969 2.7 1.441 4.04-.644-.513-.828-1.106-1.156-1.763-.426-.824-1.152-1.855-1.695-2.019-1.262-.375-2.696-1.527-2.887-1.766-.16-.195.035-.265.387-.254zm-38.559.254c.473-.054.95-.023 1.41.098.867.207 2.946 2.273 3.239 2.79.43.675.769 1.41.992 2.179l-1.637-1.602-.8 1.281c.003-.457.097-1.34.16-1.765-1.114-.883-3.508-1.938-4.645-2.5a3.293 3.293 0 0 1 1.281-.48zm37.211.098l.129.098c-.328 3.047-2.77 5.632-4.617 7.21.047-.66.336-1.386.547-2.019.394-1.117.992-2.039 1.472-2.789.555-.922 1.567-1.754 1.797-1.922.274-.168.504-.398.672-.578zm.867 1.121c.055.012.11.043.192.098.937.59 1.402 1.785 1.601 2.531.371 1.574.106 3.32-.097 4.871-.473-.894-.446-1.934-.606-2.883-.145-1.3-1.102-2.715-1.348-4.265 0-.262.086-.391.258-.352zm-19.074 2.98c.477-.027.937.008 1.379.098 2.18.598 2.676 2.844 2.95 4.742 0 0-1.403-2.214-1.954-2.851-.543-.766-2.336-1.223-3.656-1.633l-.094-.129c.414-.11.898-.2 1.375-.226zm-4.07.801a5.764 5.764 0 0 1 1.765.29c.715.304 1.336.53 1.41 1.41-.25.093-.433-.309-.707-.383-2.875-.559-5.753.488-8.398 2.02.27-.606.582-.919 1.187-1.446 1.207-1.176 2.965-1.926 4.743-1.89zm3.687.61c.957-.012 2.184.68 2.563 1.156.504.61.707 1.07 1.027 1.922l.191.992c-.925-1.727-2.34-2.887-4.039-3.75l-.125-.254c.121-.035.246-.066.383-.066zm-2.562 1.156c.578-.008 1.129.14 1.601.48l.578.32c-.086.458-.726.434-.93.673.274.14.54.078.801.129l.13.257c-1.622 2.352-5.676 3.395-5.676 3.395 1.023-1.254 1.718-2.676 3.27-3.461-1.895-.172-4.286 1.05-5.415.96 0 0 3.117-2.714 5.64-2.753zm2.754.32c2.113 1.153 4.093 3.297 4.52 5.512l.386 1.7c-1.137-1.41-1.621-3.27-3.27-4.778-.89-.832-1.199-1.66-1.636-2.434zm.289 1.664c.144.008.543.559.992 1.09.648 1.02 1.355 1.555.996 2.696-.387.925-.508 1.992-.93 2.98-.246-.871-.023-2.566 0-3.625l-.96-2.465c-.173-.512-.18-.68-.098-.676zm-.77.676c.328.016.492.848.45 1.442-.169 1.906-1.239 3.492-2.598 4.488l-.352.191c.621-1.32 1.363-2.433 1.54-4.199.148-.55.308-1.477.831-1.86.059-.03.082-.066.13-.062zm0 0" fill="#211e1e"/></svg>