<svg xmlns="http://www.w3.org/2000/svg" width="64pt" height="64pt" viewBox="0 0 64 64"><path d="M30.45 63.543c-4.731-.25-9.454-1.566-13.571-3.777C8.94 55.492 3.207 48.234.992 39.648A31.593 31.593 0 0 1 .36 27.031c.91-5.941 3.45-11.394 7.45-16 .75-.867 2.492-2.582 3.367-3.324C18.328 1.657 27.523-.98 36.886.328c7.555 1.059 14.676 4.93 19.716 10.707 6.5 7.45 9.136 17.375 7.18 27.04-1.938 9.597-8.325 17.816-17.243 22.198a32.547 32.547 0 0 1-16.09 3.27zm2.163-.91a.626.626 0 0 0 .176-.278c.023-.097.07-1.125.106-2.285.054-1.984.054-2.105-.028-2.195-.078-.086-1.082-.473-1.117-.43-.016.016.082 3.582.129 4.492.012.266.043.434.105.54.157.261.414.324.63.156zm-1.765-2.918c.113-.098.117-.352.015-1.024-.058-.398-.062-.57-.023-.84.058-.34.094-.421.262-.562.093-.078.093-.082-.008-.133a5.55 5.55 0 0 0-.477-.195l-.383-.145-.14.141c-.211.207-.23.55-.059.969.348.812.512 1.3.512 1.484 0 .219.07.387.16.387.031 0 .094-.04.145-.082zm3.367-.262c.02-.152.125-.508.23-.781.352-.926.36-1.266.047-1.73-.23-.348-.433-.47-1.789-1.07-1.176-.524-1.555-.747-1.652-.977-.074-.172-.07-.708.004-.872.027-.066-.075-.101-.54-.214a7.74 7.74 0 0 1-.902-.266l-.328-.133-.066.098c-.227.367-.293.972-.157 1.387.114.359.262.535.696.82.496.332.988.55 2.031.902 1.36.465 1.988.832 2.125 1.238.063.192.047.598-.05 1.243-.079.484-.024.668.183.64.125-.015.137-.035.168-.285zm1.015-3.875c.403-.36.567-.851.493-1.453-.055-.41-.168-.648-.426-.906-.39-.383-1.016-.625-2.254-.883-1.285-.262-1.941-.484-2.273-.777-.27-.23-.368-.407-.368-.645 0-.191.192-.562.328-.637.047-.027.075-.058.06-.07-.013-.008-.392-.117-.852-.242a20.17 20.17 0 0 1-1.141-.352c-.223-.09-.336-.113-.387-.078-.043.024-.168.211-.273.418-.188.363-.196.395-.196.84 0 .402.016.5.13.738.378.793 1.398 1.364 2.913 1.621 2.364.41 2.875.664 2.813 1.407-.027.343-.149.593-.356.734l-.168.113.114.07c.062.04.242.141.402.22.164.081.371.202.465.265l.168.121.289-.148c.156-.086.39-.246.52-.356zm-2.222-.629c.015-.125.043-.285.054-.355.02-.11 0-.133-.21-.223-.293-.129-.922-.3-1.079-.3-.109 0-.113.011-.085.23.015.12.066.254.105.293.062.066 1.07.57 1.152.582.016 0 .047-.106.063-.227zm2.883-2.554c.297-.211.683-.657.832-.961.12-.239.136-.332.14-.707 0-.391-.015-.457-.148-.692-.274-.492-.985-.992-1.899-1.328-.25-.094-1.992-.57-3.289-.898-.66-.164-1.304-.606-1.511-1.028-.274-.547-.02-1.308.636-1.96.125-.126.215-.235.2-.247-.52-.176-1.04-.344-1.559-.508-1.75-.562-1.605-.558-2.05-.074-.606.656-.864 1.676-.638 2.551.235.871 1.153 1.805 2.301 2.328.703.32 1.239.465 2.922.797 1.195.23 1.688.379 2.047.61.637.402.691 1.003.129 1.503-.121.11-.168.184-.129.2.293.105 1.688.542 1.746.546.043 0 .164-.058.27-.132zm-2.793-1.692c-.11-.105-1.434-.394-1.504-.328-.008.008-.004.207.011.43l.032.414.222.11c.121.058.453.167.739.237l.511.133.012-.48c.008-.266 0-.5-.023-.516zm3.715-2.465c.636-.468 1.097-1.039 1.3-1.613.164-.48.157-1.242-.02-1.738-.187-.512-.406-.848-.82-1.262-.316-.316-.453-.402-.976-.66-.754-.367-1.274-.512-2.895-.8-2.086-.376-3.093-.645-4.316-1.18-1.043-.458-1.781-.981-1.996-1.419a3.092 3.092 0 0 1-.176-.558c-.144-.68.05-1.23.602-1.73l.312-.282-.187-.031c-.828-.14-2.2-.477-2.676-.656l-.274-.098-.242.23c-.316.309-.605.887-.68 1.352-.062.414.004.934.176 1.398.672 1.832 3.239 3.395 7.29 4.438 2.3.594 3.054.992 3.464 1.812.11.22.16.395.176.641.023.297.008.367-.105.602-.145.289-.458.59-.77.742l-.2.094.216.05c.789.2 1.836.598 2.187.844.192.129.192.129.61-.176zM33.245 46.7c.016-.3.031-.734.031-.96 0-.423 0-.423-.144-.497-.082-.043-.48-.172-.89-.281l-.743-.211-.016.344c-.007.187 0 .668.016 1.066l.035.73.762.169c.418.093.8.171.84.175.066 0 .086-.082.11-.539zm4.508-4.535c1.266-.535 2.43-1.539 2.945-2.55.45-.88.45-1.876.004-2.551-.41-.622-.988-1.086-1.894-1.516-1.508-.73-2.688-.93-6.43-1.082-2.14-.086-2.934-.14-3.852-.27-1.984-.28-3.28-.851-3.656-1.605-.11-.227-.129-.754-.035-.926.094-.168.453-.352.945-.469.45-.11.457-.11.586-.02.621.43 2 .653 2.793.446.348-.086.703-.273.883-.46.207-.216.117-.255-.406-.184a3.007 3.007 0 0 1-.649.027c-.25-.035-.55-.2-.523-.277.031-.106.629-.23 1.094-.23.539-.005.597-.024.597-.188 0-.16-.687-.836-1.05-1.032-.477-.25-1.41-.367-1.852-.226-.102.031-.399.195-.656.36-.254.163-.528.312-.61.331-.078.024-.601.059-1.168.078-.64.028-1.12.07-1.285.117-.77.208-1.379.7-1.695 1.356-.164.336-.184.426-.2.844-.042.965.395 1.781 1.247 2.324.84.535 2.101 1.047 3.312 1.348 1.418.351 2.79.527 4.766.601 4.422.172 4.945.223 5.664.563.488.226.848.566 1.07 1.011.164.332.184.399.184.778 0 1.093-.738 2.047-2.063 2.668l-.441.21.398.16c.22.09.598.255.836.372.508.238.559.238 1.14-.008zm-4.363-1.34c.02-.164.047-1.023.062-1.914l.031-1.617-.48-.027a15.817 15.817 0 0 0-1.11-.036h-.628l.027.688c.023.375.047 1.129.062 1.668.016.547.036 1.035.047 1.09.02.082.082.117.262.16.254.062 1.488.277 1.621.285.063.004.086-.059.106-.297zm7.226-5.785c.371-.148.817-.344.985-.437.617-.34 1.23-1.051 1.449-1.676.14-.395.156-1.016.031-1.406a2.368 2.368 0 0 0-1.234-1.45c-.489-.234-.813-.293-1.844-.347-1.3-.067-1.309-.067-1.617-.297-.606-.453-1.114-.606-1.75-.524a2.586 2.586 0 0 0-1.16.418c-.508.336-.965.871-.84.996.031.028.367.067.75.094.379.02.77.063.86.09l.155.05-.109.118c-.121.129-.508.258-.762.258-.093 0-.308-.024-.484-.055-.402-.074-.488-.012-.285.195.367.38.996.555 1.832.52.668-.031 1.144-.156 1.644-.422l.348-.184.453.122c.594.156.836.296.938.546.097.247.097.372 0 .66-.137.383-.332.614-.786.91-.511.34-1.218.587-2.074.739-.879.152-.89.156-.426.203.891.078 2.235.52 2.899.95.164.1.305.19.32.19.016.005.332-.116.707-.26zm-6.945-6.531c.055-1.863.101-3.735.144-5.602v-.445h-2.879v.348c0 .191.055 2.566.122 5.28.07 2.712.12 5.052.12 5.204v.273l.407.028c.605.039 1.906.101 1.934.093.007-.007.074-2.335.152-5.18zM18.816 31.05c.883-.305 2.122-1.34 3.079-2.578.398-.512.484-.657.44-.723-.058-.094-.179-.043-1.077.438-.5.269-1.219.64-1.594.82-.656.312-.934.41-2.125.765-.582.176-.734.29-.734.551 0 .196.136.485.289.625.058.047.25.133.43.18.406.105.824.082 1.292-.078zm28.477-.028a.781.781 0 0 0 .46-.703c0-.308-.112-.375-1.179-.699-1.031-.316-1.523-.535-3.12-1.371-1-.527-1.196-.598-1.243-.469-.031.094.715 1.028 1.305 1.625.859.88 1.586 1.399 2.285 1.649.445.16 1.125.144 1.492-.032zm-32.027-1.476c.511-.121 1.406-.594 2.113-1.117.781-.582 1.43-1.13 1.875-1.582.523-.54.422-.633-.3-.278-.235.117-.634.328-.888.473-1.472.832-2.097 1.121-2.859 1.316-.84.211-1.758.137-2.195-.172a.7.7 0 0 0-.176-.097c-.059 0-.024.539.047.707.289.695 1.3 1.012 2.383.75zm35.582-.055c.324-.117.582-.3.742-.535.129-.187.219-.57.18-.773-.028-.13-.043-.137-.11-.079-.3.262-.887.391-1.555.352-.878-.047-1.644-.336-3.19-1.203-1.602-.89-1.938-1.031-1.938-.82 0 .109.793.867 1.511 1.441 1.157.926 2.067 1.469 2.797 1.66.461.125 1.149.106 1.563-.043zm-26.297-1.89c.75-.254 1.691-1.536 1.984-2.704.149-.601.008-.617-.484-.046-.621.722-1.172 1.156-2.07 1.652-.758.41-.907.605-.715.965.16.3.636.351 1.285.133zm16.441.097c.34-.09.488-.52.274-.785-.059-.07-.27-.21-.477-.316a7.241 7.241 0 0 1-2.07-1.543c-.578-.63-.66-.7-.711-.625-.102.14.086.789.402 1.418.406.808.977 1.472 1.438 1.675.195.086.715.22.89.227.035 0 .153-.023.254-.05zm-29.984-.574c.668-.086 1.23-.234 2.176-.582 1.191-.441 1.632-.621 2.312-.957.906-.45 1.211-.656 1.211-.836 0-.086-.023-.09-.352-.059-.378.032-.793.13-1.78.418-.778.22-.973.254-2.009.364-1.035.109-3.113.12-3.511.02a2.35 2.35 0 0 1-.871-.411c-.118-.102-.168-.117-.243-.078-.148.082-.27.387-.27.68.009.605.638 1.27 1.372 1.437.258.063 1.473.063 1.965.004zm44.742-.09c.375-.14.809-.5.992-.824.188-.328.211-.742.051-1.008-.152-.262-.227-.277-.441-.113-.266.203-.45.289-.832.387-.641.156-3.114.085-4.5-.133a13.54 13.54 0 0 1-1.172-.297c-1.215-.344-1.996-.473-1.996-.324 0 .3 1.238.945 3.312 1.718 1.125.422 1.57.551 2.176.633l.531.074c.082.008.477.012.875.004.606-.011.781-.03 1.004-.117zm-33.96-.824c.362-.11.694-.375.991-.781.102-.14.32-.438.489-.664.64-.864 1.117-2.153.87-2.356-.097-.078-.187-.023-.804.55-.582.536-.973.806-1.734 1.185-.676.34-.918.52-1.067.816-.183.355-.207.652-.066.914.226.41.687.531 1.32.336zm21.894.008a.865.865 0 0 0 .46-.457c.07-.184.063-.305-.027-.614-.113-.37-.441-.675-1.066-.972a7.568 7.568 0 0 1-1.934-1.328c-.304-.282-.566-.485-.62-.485-.38 0 .097 1.453.76 2.332.157.211.395.528.52.711.297.414.598.657 1 .79.391.136.649.14.907.023zm-14.579-1.074c.141-.192.09-.336-.289-.907-.386-.582-.828-1.43-.976-1.875-.117-.347-.113-.804 0-1.52.133-.82.129-1.968-.016-2.495a3.036 3.036 0 0 0-.219-.578 1.805 1.805 0 0 0-.835-.7c-.266-.093-.348-.105-.922-.082-.72.028-1.012.094-2.465.555-1.324.418-1.586.469-2.067.395-.226-.032-.703-.172-1.125-.325-.613-.226-.785-.27-1.074-.273-1.324-.02-.3 1.223 1.5 1.816a6.614 6.614 0 0 0 2.047.34c.371 0 .672.008.672.012s-.09.058-.2.12c-.359.2-.488.571-.284.829.23.29.992.566 1.726.625.672.059 1.125.332 1.637.992.875 1.145 1.945 2.442 2.406 2.922.258.277.371.309.484.149zm6.645.03c.195-.136 1.879-2.148 2.54-3.038.542-.73.968-.996 1.718-1.07.773-.083 1.48-.333 1.695-.61.219-.273.067-.68-.32-.879l-.18-.086.828-.027c.653-.027.926-.055 1.317-.152 1.691-.418 3.101-1.442 2.597-1.887-.082-.074-.175-.09-.5-.09-.351.004-.468.031-1.054.25-.36.129-.778.27-.934.305-.441.093-1 .035-1.695-.184-2.211-.687-2.457-.746-3.196-.746-.652-.004-.976.098-1.308.418-.266.254-.395.496-.524.984-.144.52-.14 1.606.008 2.555.063.441.09.805.074.984-.054.645-.476 1.516-1.293 2.668-.168.235-.187.41-.074.575.09.125.16.132.301.03zM7.082 23.903c1.48-.257 2.547-.558 4.375-1.238.813-.305.863-.328.773-.394l-.277-.22-.187-.14-1.614-.004c-1.82-.008-2.082-.035-3.71-.386-1.653-.364-2.29-.38-3.102-.075-.371.137-.7.457-.742.723-.051.289.09.687.316.934.223.242.84.601 1.184.687 1.035.273 1.879.305 2.984.113zm52.152.094c1.149-.129 1.903-.406 2.371-.867.329-.328.461-.785.313-1.117-.29-.676-1.617-.961-3.074-.664-.297.058-.754.16-1.024.222-1.34.305-3.105.43-4.535.317l-.437-.035-.176.148a5.973 5.973 0 0 1-.293.223c-.066.047-.106.093-.09.105.04.035 1.73.66 2.41.887.856.281 1.961.539 3.024.703.851.137.953.14 1.511.078zm-41.156-.164c.805-.168 1.39-.539 2.383-1.516.844-.828 1.363-1.507 1.363-1.78 0-.145-.078-.122-.539.148-1.219.73-2.547 1.242-4.738 1.824-.758.203-.965.367-.852.68.055.16.336.41.57.511.481.203 1.22.254 1.813.137zm29.73 0c.72-.148 1.204-.562 1.07-.906-.07-.184-.233-.258-1.23-.535-2.035-.575-3.078-.973-4.14-1.594-.707-.406-.801-.434-.758-.211.105.52 1.543 2.059 2.563 2.742.722.485 1.671.68 2.496.508zm-32.671-2.094c.812-.226 2.43-.96 3.715-1.687.753-.422.789-.461.617-.524a1.58 1.58 0 0 1-.266-.144l-.133-.098-.601.219c-1.07.383-1.758.5-2.969.5-.41 0-.96-.027-1.219-.059-.261-.035-.77-.062-1.133-.062-.609 0-.671.008-.867.12-.41.235-.554.72-.304 1.071.23.332.843.625 1.582.758.382.066 1.171.023 1.578-.094zm36.218-.008c.723-.164 1.274-.543 1.352-.933.04-.223-.086-.559-.277-.715-.297-.246-.852-.309-1.68-.2-1.797.243-3.254.118-4.695-.405l-.54-.2-.273.153c-.148.086-.254.168-.234.191.215.195 2.574 1.402 3.37 1.727 1.333.539 1.946.617 2.977.382zm-16.996-.125c.114-.093.118-.34.008-.457-.074-.078-.203-.085-2.043-.085-1.719 0-1.972.011-2.039.074-.098.101-.098.355.004.46.074.087.203.09 2.031.09 1.746 0 1.957-.007 2.04-.078zm-1.445-1.527c.773-.215 1.39-.8 1.637-1.555.129-.421.129-1.023-.012-1.421-.387-1.153-1.633-1.844-2.785-1.547-1.211.312-1.98 1.43-1.8 2.605a2.353 2.353 0 0 0 1.05 1.61 2.417 2.417 0 0 0 1.91.308zm0 0"/></svg>