<svg xmlns="http://www.w3.org/2000/svg" width="64" height="64"><path d="M30.743 62.973c-7.855-.334-15.137-3.525-20.675-9.06-3.99-3.989-6.802-8.933-8.15-14.332C1.264 36.953 1 34.782 1 32c0-2.782.263-4.953.919-7.58C3.762 17.03 8.398 10.466 14.763 6.23 20.816 2.201 27.986.422 35.171 1.165c10.256 1.061 19.25 7.093 24.165 16.207 3.108 5.762 4.297 12.552 3.343 19.101-1.373 9.43-7.005 17.688-15.307 22.445a31.063 31.063 0 0 1-16.629 4.055zm-2.378-6.562c4.732-.404 8.981-2.932 11.622-6.915.339-.511.407-.642.357-.689-.19-.176-2.837-1.823-2.853-1.775a9.73 9.73 0 0 1-.388.61 12.036 12.036 0 0 1-6.736 4.934c-1 .289-1.808.406-2.98.434-2.016.049-3.547-.256-5.355-1.065a7.852 7.852 0 0 0-.571-.24c-.032 0-1.74 2.84-1.74 2.893 0 .043.923.49 1.513.732 1.33.547 2.949.94 4.422 1.076.64.059 2.047.061 2.709.005zm-8.388-3.588c.464-.784.85-1.439.86-1.457.008-.017-.17-.152-.397-.3-.635-.412-1.159-.837-1.797-1.456-2.523-2.449-3.822-5.781-3.629-9.31a11.907 11.907 0 0 1 1.954-5.945c.19-.287.236-.39.194-.43-.03-.03-.678-.45-1.44-.937-1.086-.695-1.392-.87-1.424-.819l-.372.585c-1.148 1.805-1.903 3.893-2.245 6.215-.12.81-.12 3.195-.002 4.002.442 3.002 1.488 5.437 3.325 7.745.471.591 1.697 1.815 2.31 2.307.511.41 1.688 1.223 1.771 1.224.026 0 .428-.641.892-1.424zm21.049-5.156c.781-1.638 1.236-3.248 1.451-5.144.084-.734.071-2.483-.024-3.272-.375-3.128-1.566-5.886-3.566-8.263a18.944 18.944 0 0 0-1.803-1.817l-.279-.237 4.06-6.07c2.234-3.34 4.076-6.076 4.095-6.082.018-.006 1.622 3.096 3.563 6.894 1.942 3.797 3.538 6.883 3.546 6.858.013-.038-2.847-22.413-2.935-22.962-.026-.16-.042-.179-.14-.16-.219.042-24.131 6.791-24.116 6.807.012.012 16.656.567 17.159.572.089 0-.526.946-3.976 6.11a2476.74 2476.74 0 0 1-4.111 6.143c-.017.02-.263-.068-.547-.194-3.18-1.412-6.633-1.733-9.978-.927a15.412 15.412 0 0 0-7.263 4.051c-.554.549-1.388 1.498-1.388 1.58 0 .038 2.8 1.835 2.86 1.835.023 0 .167-.15.32-.334.628-.752 1.753-1.71 2.732-2.327.53-.333 1.595-.854 2.211-1.082.61-.225 1.741-.51 2.453-.617.697-.105 2.549-.121 3.203-.027 2.195.314 4.088 1.087 5.804 2.37.646.483 1.84 1.685 2.33 2.347 1.41 1.905 2.181 3.925 2.392 6.262.179 1.982-.203 4.181-1.04 5.981-.165.356-.189.439-.133.471.038.022.672.43 1.41.909.74.478 1.366.871 1.394.874.029.002.17-.245.316-.549z"/></svg>