<svg xmlns="http://www.w3.org/2000/svg" width="64pt" height="64pt" viewBox="0 0 64 64"><path d="M30.508 63.563c-3.625-.168-7.012-.872-10.219-2.122C9.414 57.2 1.707 47.348.262 35.84a31.767 31.767 0 0 1 1.133-13.387c.949-3.133 2.55-6.375 4.511-9.113A31.79 31.79 0 0 1 51.23 6.633c1.157.898 1.891 1.55 3.036 2.695 1.754 1.754 3.074 3.383 4.32 5.336 4.164 6.527 5.793 14.207 4.648 21.922a32.16 32.16 0 0 1-2.187 7.691c-4.383 10.239-13.832 17.477-24.8 18.996-1.915.266-4.005.375-5.74.29zm4.23-.454c1.52-.078 3.028-.277 3.375-.453.215-.105.32-.308.32-.605-.003-.153-.03-.332-.07-.395l-.062-.12-.082.105a.73.73 0 0 1-.246.175c-.235.098-1.301.297-1.996.38-.649.074-3.395.09-3.77.019l-.242-.047.488-.059c.598-.074 1.926-.277 1.91-.293-.031-.027-2.758-.27-3.566-.308-1.23-.067-2.164-.188-2.934-.375l-.308-.078-.192.187c-.11.102-.195.219-.265.348-.141.32-.059.75.183.972.457.418 4.387.708 7.457.547zm2.528-1.882c.293-.067.543-.13.55-.137.012-.008-.02-.117-.066-.246-.117-.367-.004-.762.32-1.067a1.33 1.33 0 0 0 .223-.277c.129-.242.05-.797-.094-.676-.062.047-.922.258-1.543.367-1.191.223-3.418.38-4.246.301-.207-.023-.37-.043-.363-.05.008-.012.281-.055.601-.098.645-.086 2.055-.36 2.157-.414.035-.02-.16-.051-.438-.07-.277-.02-.93-.075-1.449-.13a63.75 63.75 0 0 0-2.121-.167c-1.246-.075-2.082-.168-2.738-.31l-.399-.085-.055.098a3.377 3.377 0 0 1-.312.382c-.238.247-.262.293-.262.5 0 .27.047.372.293.63.098.109.223.273.278.363.085.164.117.175.648.304 1.512.371 1.992.442 4.566.692 1.942.187 3.235.27 3.7.23.117-.008.46-.07.75-.14zm.07-2.903l.367-.105.016-.227.015-.234-.597.039c-.332.02-2.137.039-4.02.039-1.879 0-3.347.016-3.258.035.582.129 5.114.543 6.387.586.52.02.61.008 1.09-.129zm-1.406-1c1.945-.07 2.023-.078 2.246-.285.324-.293.406-.55.258-.84-.051-.101-.106-.136-.16-.12-.204.066-.864.128-1.84.179-1.82.097-7.61.015-9.114-.125-.308-.035-.32-.031-.379.094-.113.253-.043.52.204.75.097.097.21.12.742.175 1.652.172 5.672.262 8.043.172zm1.242-1.793c.883-.086.879-.082.918-.289.015-.101.027-1.152.027-2.344.004-2.527.047-3.355.219-4.351.465-2.688 1.254-4.621 2.527-6.203.188-.223.606-.707.938-1.074.336-.368.738-.836.898-1.047 2.426-3.137 3.227-6.828 2.34-10.805-.703-3.188-2.457-5.762-5.117-7.531-1.715-1.137-3.895-1.93-5.91-2.149-.625-.07-2.012-.07-2.63 0-2.429.266-4.925 1.301-6.839 2.828-2.89 2.301-4.516 5.875-4.527 9.961a12.106 12.106 0 0 0 2.027 6.782c.46.695.871 1.21 1.598 2.011.324.356.738.828.91 1.051 1.293 1.61 2.047 3.488 2.527 6.316l.152.883.043 2.907c.024 1.605.055 2.921.067 2.937.168.164 8.242.262 9.832.117zm15.082-4.515c.125-.145.219-.266.207-.278-.047-.039-7.516-5.457-7.582-5.496-.086-.05-.39-.394 3.254 3.664l2.988 3.332.457-.484c.25-.266.555-.598.676-.738zm-36.777-3.621c.941-1.23 1.875-2.465 2.8-3.708 0-.015-1.609 1.356-3.578 3.04l-3.574 3.07.719.7c.543.523.73.679.773.636a646.95 646.95 0 0 0 2.86-3.738zm45.226-7.653c.133-.535.219-.965.195-.992-.05-.04-10.62-1.96-10.652-1.934-.012.012 10.106 3.86 10.195 3.875.016 0 .133-.425.262-.949zm-52.18-2.414c4.934-1.574 6.372-2.047 5.84-1.914-2.043.316-4.086.625-6.129.934-3.32.496-6.039.914-6.05.925-.02.016.273 1.766.316 1.903.012.043.055.05.129.031zm46.856-8.89c2.527-.106 4.605-.208 4.617-.215.02-.024-.234-1.93-.262-1.961-.015-.016-9.082 2.324-9.113 2.355-.031.028-.164.035 4.758-.18zm-41.145-.793c-.066-.055-10.445-6.5-10.5-6.52-.058-.023-.183.2-.507.848-.243.476-.422.886-.403.906.04.039 11.317 4.773 11.387 4.777.023.004.035-.004.023-.011zm33.91-12.227c1.973-1.434 3.586-2.625 3.59-2.645 0-.039-1.254-1.468-1.3-1.48-.036-.008-5.938 6.578-6.188 6.898l-.121.157.219-.157zM21.2 17.488c-1.36-1.894-8.074-11.047-8.11-11.058-.058-.024-1.452 1.218-1.452 1.293 0 .039 9.652 9.968 9.691 9.972.008 0-.05-.093-.129-.207zm19.403-8.156c1.472-3.117 2.691-5.68 2.703-5.695.015-.035-1.883-.696-1.903-.668-.03.054-3.554 12.097-3.527 12.066.02-.023 1.246-2.59 2.727-5.703zm-12.872.887c-.136-1.54-.277-3.078-.425-4.614-.004-.003-.446.075-.98.172-.727.137-.973.203-.97.25.012.145 2.766 8.903 2.782 8.856.011-.035-.172-2.13-.407-4.664zm0 0"/></svg>