<svg xmlns="http://www.w3.org/2000/svg" width="64pt" height="64pt" viewBox="0 0 64 64"><path d="M30.207 64.355c-6.184-.37-12.34-2.636-17.3-6.359-2.321-1.742-4.747-4.168-6.489-6.492-5.73-7.625-7.77-17.512-5.523-26.836a31.82 31.82 0 0 1 5.523-11.762c1.727-2.304 4.172-4.746 6.488-6.492 8.172-6.14 18.89-8.012 28.75-5.012a32.489 32.489 0 0 1 9.817 4.985c2.312 1.734 4.793 4.215 6.523 6.52a32.38 32.38 0 0 1 5.434 11.386c1.668 6.652 1.203 13.625-1.34 19.93-2.09 5.195-5.469 9.703-9.961 13.297-.965.77-3.074 2.175-4.23 2.82a32.28 32.28 0 0 1-17.692 4.015zm7.348-2.562c0-.117-.094-.168-1.04-.566a2.086 2.086 0 0 1-.507-.375l-.27-.278.313.035c.453.04 1.113.23 2.219.637.539.195.992.332 1.015.309.098-.098-.629-.621-1.48-1.059a28.924 28.924 0 0 1-1.106-.582l-.176-.11.383-.14c.215-.078.39-.168.39-.195 0-.098-.698-.145-1.456-.094l-.746.043.039-1.281c.086-2.621.18-5.16.293-7.696.062-1.433.101-2.695.086-2.804-.016-.11.031-.34.11-.547.12-.309.14-.5.16-1.578.023-1.492.183-2.778 1.187-9.473.047-.305.039-.406-.032-.48-.082-.086-.117-.082-.32.027-.195.105-.258.11-.453.043-.3-.11-.477-.047-.477.172-.007 1.629-.91 8.746-1.273 10-.078.285-.09.547-.059 1.289.02.515.012 1.414-.02 2-.077 1.46-.226 10.945-.175 11.156.074.293.602.813 1.031 1.016.5.238 1.504.52 2.317.644.023.004.047-.047.047-.113zm6.187-.906c0-.098-.164-.192-.836-.48-.656-.29-.758-.344-.707-.384.047-.035 3.23.07 3.59.118.273.043.336.03.336-.043 0-.067-.121-.121-.371-.176-1.106-.238-2.914-.75-2.809-.793.207-.059.414-.113.625-.152.422-.09.492-.122.39-.18-.214-.117-1.128-.125-1.82-.016-.984.157-.882.219-.968-.652-.2-2.004-.375-4.774-.563-8.672l-.105-2.242.137-.418c.164-.496.175-1.035.035-1.367-.13-.297-.133-.2.363-4.88.211-1.984.402-3.847.426-4.14l.043-.531h-.203c-.121 0-.207.035-.211.082l-.02.207c-.011.164-.277.215-.336.07-.023-.058-.113-.101-.222-.101-.168 0-.188.023-.22.273-.179 1.285-.624 5.977-.776 8.07-.051.782-.11 1.579-.125 1.774-.047.566.789 12.61.898 12.984.262.887.816 1.246 2.387 1.547.86.168 1.062.188 1.062.106zm-22.586-9.73c-.02-.036-.273-.22-.566-.415a8.156 8.156 0 0 1-.758-.55l-.227-.208 1.196.04c.652.023 1.582.081 2.062.124.477.051.89.067.918.043.153-.144-.5-.363-1.558-.523-.446-.07-.856-.129-.907-.129-.062 0-.046-.031.047-.102.082-.05.149-.124.149-.152 0-.031-.52-.07-1.153-.078-1.297-.023-1.37-.047-1.492-.5-.137-.523-.207-3.594-.176-7.77.032-4.19.032-4.257.172-4.671.133-.387.149-.551.16-2.094.016-1.754.07-2.36.426-4.77.215-1.437.586-3.445.738-3.933.13-.43.13-.867 0-.867a.117.117 0 0 0-.07.023.122.122 0 0 0-.027.07c0 .094-.227.203-.367.176-.043-.012-.13.063-.188.164a6.64 6.64 0 0 1-.137.207c-.046.067-.144-.164-.144-.351-.004-.172-.125-.418-.207-.418-.016 0-.05.347-.074.773-.106 1.992-.703 6.45-1.246 9.305-.23 1.21-.23 1.219-.122 1.57.094.297.118.832.172 3.805.098 5.926.297 9.015.63 9.883.093.234.421.601.706.773.227.145 1.727.621 1.961.629.067.004.102-.023.082-.055zm1.086-9.72c.246-.378.32-1.085.238-2.242-.09-1.246-.582-3.386-.957-4.152-.238-.473-.253-.496-.945-.953-.39-.258-.754-.461-.805-.45-.07.012-.125.145-.171.415l-.067.39.293.235c.16.129.344.265.402.312.13.09.122.121-.14.985-.11.359-.13.562-.106 1 .032.566.082.793.172.738.032-.016.07-.149.098-.29.023-.14.062-.257.086-.257.027 0 .129.469.226 1.047.215 1.273.48 2.508.563 2.594.031.035.062-.477.066-1.293.004-.743.024-1.504.047-1.7l.04-.351.308.648c.305.633.308.66.37 1.508.032.477.06 1.133.06 1.461 0 .328.02.598.035.598.02 0 .101-.11.187-.242zm20.008-6.906c.184-.254.36-.52.52-.789.16-.289.25-.379.406-.41.12-.031.312-.168.476-.348.73-.785.903-.957.993-.988.07-.023.078-.055.023-.11-.059-.062-.156-.058-.45.02a7.309 7.309 0 0 0-.507.145c-.113.043-.121.039-.043-.059.207-.258-.176-.183-1.852.363-.945.305-1.898.606-2.117.668-.222.055-.406.13-.406.16 0 .032.102.165.223.294.21.234.234.242.672.242h.449l-.032.453c-.011.21-.039.418-.085.621l-.051.172.23-.094c.223-.094.239-.094.352.043.09.113.133.129.191.074.106-.105.34-.093.438.02.105.125.168.078.574-.477zm-5.785.082c.191.024.437.063.55.082l.2.035.07-.41c.168-.953.168-1.082.035-1.082a.752.752 0 0 0-.308.121c-.18.121-.192.121-.418.008-.211-.101-.422-.195-.637-.281l-.402-.16-.035.152c-.028.11-.086.156-.192.156-.215 0-1-.168-1.668-.359-.441-.125-.648-.152-.89-.121-.196.027-.293.07-.258.105.035.032.375.188.758.348a10.32 10.32 0 0 0 2.042.574c.215.035.243.067.344.38.063.179.153.401.203.48.086.144.098.148.176.043.07-.094.14-.106.43-.07zm-12.461-1.242c.203-.168.465-.41.574-.531.43-.461 1.117-1.442 1.473-2.102.207-.383.472-.855.594-1.054.351-.598.277-.73-.278-.48-.488.222-.59.218-.555-.028.06-.406-.296-.203-1.402.8-.969.876-1.87 1.915-1.87 2.149 0 .145.241.086.745-.184.274-.14.512-.242.527-.226.016.015-.074.258-.199.531-.601 1.328-.43 1.816.39 1.125zm-6.649-.289c.122-.648.18-.57-1.054-1.297-1.293-.754-3.203-1.945-3.645-2.265-.273-.2-.293-.23-.226-.36.152-.297 1.36-1.406 2.765-2.539.797-.64 1.696-1.398 1.996-1.683.524-.497.633-.7.29-.543-.153.074-.16.066-.16-.125 0-.184-.016-.196-.176-.165-.102.02-.2.051-.297.082-.102.04-.114.024-.078-.093.023-.078.02-.137-.008-.137-.094 0-.793.57-2.207 1.805-1.575 1.367-2.676 2.215-3.309 2.55-.492.258-.898.704-1.023 1.125-.07.243-.063.278.109.524.262.371.426.48 1.094.703.719.25 2.594 1.074 4.41 1.957.762.363 1.41.668 1.434.672.023.004.062-.09.085-.211zm11.102-.98c.262-.082-.437-.43-1.168-.582-.637-.133-.934-.075-1.05.207-.032.078-.067.156-.09.238 0 .008.296.02.66.023.414.004.757.043.918.106.23.09.472.09.73.008zm2.727-.024c.226-.07.609-.246.855-.387.242-.14.45-.257.465-.257.078 0 .004.332-.11.472l-.132.172h.258c.14 0 .609-.101 1.042-.226.434-.13.805-.22.82-.196.016.016-.03.133-.109.266-.078.129-.128.246-.117.258.043.043 1.254-.414 1.727-.653.691-.347 1.152-.675 1.535-1.097.184-.203.324-.38.312-.39-.007-.009-.261.081-.562.198-.3.121-.73.266-.95.313l-.402.094-.07-.266c-.137-.54-.328-.945-.445-.945-.024 0-.082.113-.121.257-.121.403-.696.973-1.293 1.282a6.843 6.843 0 0 1-.535.265c-.016 0 .039-.195.12-.437.083-.238.15-.586.15-.778l.003-.34-.531.489c-.348.324-.696.578-1 .723-.258.132-.477.226-.496.207-.012-.012.02-.215.066-.442.05-.23.09-.523.09-.648v-.23l-.34.331c-.437.418-.863.63-1.922.934-.465.137-.875.273-.918.316-.144.145.086.227.715.246.496.02.715 0 1.031-.101.356-.113.403-.113.403-.028 0 .06-.13.227-.285.38-.231.218-.266.277-.176.304.242.063.535.035.922-.086zm17.796-.805c2.747-.804 4.516-3.468 3.942-5.953-.168-.742-.293-.898-1.32-1.71-.508-.403-.942-.731-.95-.72-.011.012.211.348.493.755.664.945 1.039 1.668 1.093 2.12.125 1-.293 2.329-.988 3.137-.508.59-1.54 1.239-2.379 1.496-.52.157-.738.168-.789.036-.023-.055-.145-.13-.281-.168-.2-.063-.301-.051-.59.047-.258.09-.527.12-1.07.12-.399 0-.723.016-.723.032 0 .062.664.683.855.8.286.176.668.227 1.43.2.434-.004.863-.07 1.277-.192zm-4.582-1.578c.204-.078.497-.242.649-.37.39-.333.664-.49 1.176-.692 1.015-.403 1.406-.68 1.652-1.153.137-.265.102-.386-.145-.464-.136-.043-.296.03-.734.363-.414.308-1.059.504-1.82.555-.633.039-.696.082-.469.324.074.078.133.16.133.18 0 .019-.137.097-.293.164-.379.168-1.535.363-2.496.418-.418.027-.762.07-.762.101 0 .192.621.555 1.164.68.524.12 1.492.07 1.945-.106zM40 29.152c.063-.078-.02-.129-.48-.3-.586-.223-1.383-.727-3.215-2.047-1.032-.739-1.313-.899-1.492-.828-.145.058-.114.402.066.707.168.289 1.016 1.093 1.55 1.476.391.281 1.298.727 1.743.856.715.21 1.703.28 1.824.136zm-14.754-.797c.918-.457 1.902-1.078 2.55-1.601.786-.64 1.642-1.41 1.642-1.484 0-.317-1.25-.118-2.223.363-.828.402-2.02 1.52-2.766 2.59-.504.718-.402.734.797.132zm16.598-.316L42.14 28l-.235-.238-.23-.239.996-.105c.547-.063 1.043-.125 1.098-.148.167-.067.113-.192-.153-.375-.273-.192-.363-.332-.254-.399.043-.023.469-.023.953 0 .813.035.891.031 1.09-.094.121-.07.207-.144.192-.16-.02-.023-.7-.234-1.512-.476a66.24 66.24 0 0 1-2.309-.746c-1-.356-1.101-.387-1.152-.305-.074.117.469.758 1.125 1.336.45.394.629.59.555.601-.176.035-1.309-.5-2.2-1.039-1.304-.793-1.19-.734-1.257-.629-.11.172.242.938.757 1.641.184.25.32.46.305.477-.055.054-1.164-.559-1.953-1.094-.937-.63-1.129-.688-1.164-.344-.012.152.055.277.3.582.669.8 1.52 1.457 2.29 1.754.367.137.46.145 1.277.117a21.612 21.612 0 0 0 1.184-.078zm7.832-.187c.504-.176.812-.579.953-1.243.11-.523.09-.824-.121-1.57-.352-1.266-.645-1.773-1.555-2.695-.504-.508-1.344-1.586-2.234-2.875-.215-.313-.95-1.809-1.14-2.344-.153-.406-.18-.594-.188-1.16-.004-.602.011-.715.16-1.031.21-.45.793-1.079 1.203-1.305.644-.352 1.687-.48 2.184-.274l.23.098.285-.316c.402-.446.836-.649 1.387-.649.695 0 1.578.39 1.984.88.211.26.39.257.39-.009 0-.109-.109-.273-.339-.504-1.223-1.203-3.094-1.453-3.754-.496-.133.188-.207.25-.281.22-.059-.028-.367-.06-.684-.075-1.726-.09-3.105.969-3.484 2.664-.39 1.746.633 3.906 3.324 7.02.938 1.085 1.293 1.652 1.645 2.578.242.64.308 1.12.21 1.586-.078.375-.097.41-.496.71-.503.38-.605.508-.55.727.035.145.074.164.316.164.152 0 .399-.043.555-.101zm-2.13-1.739c.06-.07.071-.277.044-.789-.043-.86-.195-1.582-.445-2.195-.47-1.129-1.774-2.02-3.66-2.496-.801-.2-1.645-.27-2.645-.215-.406.02-1.29.023-1.965.008-1.367-.035-2.004.027-2.832.289-.691.219-1.45.617-1.848.973l-.32.289-.598.02c-.5.01-.726.054-1.367.273-1.637.55-4.02 1.777-4.02 2.07 0 .336 1.169.043 3.477-.871.66-.254 1.27-.492 1.367-.512l.176-.043-.254.488c-.258.496-.34.95-.187 1.04.035.027.61-.32 1.273-.758a74.09 74.09 0 0 1 2.106-1.352c1.75-1.055 2.398-1.363 3.027-1.434l.387-.039-.48.262c-.583.313-.84.543-.727.656.058.059.367.035 1.37-.101 1.915-.266 2.4-.301 3.11-.227 1.309.133 2.453.535 3.215 1.137.7.547.86.887 1.129 2.394.121.688.203.98.297 1.086.152.172.254.184.37.047zM21.04 23.875c.273-.457.875-1.14 1.309-1.484.359-.293.699-.426 1.386-.563.559-.113 1.211-.32 1.317-.422.152-.144-.031-.285-.375-.285-.43 0-.5-.062-.367-.324.062-.113.086-.23.054-.262-.027-.027-.355.059-.73.2-.64.234-2.09.683-2.688.84-.316.077-.332.144-.12.413l.152.196-.25.367c-.34.5-.36.57-.188.57.113 0 .137.024.098.11-.024.062-.086.269-.137.468-.09.344-.09.36.04.465.187.148.26.106.5-.289zm-2.555-.383c.227-.312.536-1.34.403-1.34-.024 0-.29.047-.594.102-.719.14-1.098.09-1.41-.164-.13-.106-.274-.195-.32-.195-.11 0-.102.168.023.355.098.148.098.16-.008.16-.058 0-.926-.219-1.914-.488-1.027-.277-1.863-.473-1.945-.453-.106.039-.203.093-.293.16l-.156.125.64.207c.352.11 1.348.387 2.215.617 1.387.36 1.602.434 1.777.606.168.164.23.187.36.136.12-.047.187-.03.293.067.156.148.53.36.652.367.043.008.164-.11.277-.262zm33.7-.398c0-.211-.2-.703-.383-.957-.11-.149-.633-.711-1.156-1.242-.973-.989-2.387-2.637-2.766-3.23-.645-1.017-.617-2.169.074-2.778.238-.207.356-.258.715-.29.148-.011.195-.05.195-.144 0-.113-.047-.133-.363-.148-1.16-.059-2.004 1.261-1.64 2.597.144.547.273.782.785 1.465 1.187 1.567 2.187 2.688 2.96 3.305.606.48 1.243 1.117 1.375 1.367.086.156.204.195.204.055zm-48.188-.625c.438-.285 1.508-1.434 1.961-2.098.656-.96 1.316-2.414 1.309-2.879-.004-.117-.047-.097-.262.149-.703.797-2.598 3.46-3.145 4.437-.375.668-.355.723.137.39zm52.34-.532c.246-.746.402-2.296.324-3.273l-.043-.59-.14.16c-.09.102-.192.188-.301.258-.16.098-.16.106-.176 1.094-.012.992-.094 1.625-.219 1.703-.21.129-1.449-1.922-1.738-2.875-.047-.16-.184-.36-.348-.508-.28-.261-.675-.5-.675-.41 0 .027.117.219.261.43.14.207.254.43.254.496 0 .183.5 1.523.75 2.023.274.535.66 1.051 1.02 1.364.304.261.824.543.886.484.024-.023.086-.184.145-.355zM4.156 20.25c.735-1.414.926-1.695 1.606-2.352.312-.3.734-.71.937-.914.586-.582.48-.722-.265-.37-.59.277-1.125.679-1.653 1.234-.668.703-1.078 1.351-1.34 2.132-.148.438-.253 1.18-.203 1.446l.043.23.153-.156c.086-.086.41-.645.722-1.25zm24.274.883c.34-.153 1.656-.945 2.199-1.332.535-.383 1.258-1.16 1.531-1.653.367-.664.508-1.203.543-2.117.04-.933-.039-1.351-.402-2.12-.274-.579-.57-.993-1.125-1.579-.559-.594-1.121-1.004-1.363-1.004-.165 0-.18.016-.125.121.035.063.296.375.582.688.625.695 1.355 1.742 1.628 2.332.184.386.207.508.235 1.176.043 1.28-.219 1.964-1.086 2.84-.613.62-1.32 1.109-2.442 1.687l-.746.387-.875-.04c-.84-.042-1.351.016-1.351.149 0 .102.324.312.656.426.742.246 1.633.261 2.14.039zm-18.649-.2c0-.081-.379-.39-.629-.507-.113-.059-.21-.121-.21-.145 0-.023.12-.09.265-.148.258-.102.277-.102.355.012.122.18.493.332.778.332.18 0 .348-.059.543-.188l.281-.191.047.203c.023.113.11.258.191.328.29.234 1.11.016 1.653-.442.191-.164.203-.164.203-.042 0 .175.277.492.515.59.29.12 1.079.05 1.438-.122.266-.129.332-.136.703-.074.652.106 1.606.082 2.309-.062.636-.13 1.601-.442 1.965-.633l.195-.102-.195-.043c-.399-.094-1.125-.054-1.993.102-.98.176-1.418.199-1.8.094-.293-.086-.34-.184-.204-.45.122-.23.422-.433.735-.492l.219-.043-.157-.082c-.183-.101-.625-.117-.867-.027-.094.039-.351.254-.57.48-.414.43-.766.598-1.094.516-.324-.082-.32-.067-.258-1.477.028-.53.028-.949.004-.933-.02.023-.183.312-.367.644-.621 1.14-1.09 1.606-1.617 1.606-.203 0-.258-.032-.371-.215a.912.912 0 0 1-.133-.39c0-.09-.016-.165-.035-.165-.016 0-.153.133-.305.301-.457.5-1.059.68-1.309.402-.097-.11-.12-.234-.117-.597l.004-.465-.555.55c-.734.723-1.105.942-1.808 1.051-.512.078-.547.094-.547.239 0 .148.031.16.77.27.425.062.996.171 1.257.241.551.141.711.16.711.075zm45.793-1.406c-.066-.722-.226-1.554-.355-1.855-.137-.3-.985-1.125-1.356-1.317a1.301 1.301 0 0 0-.629-.128h-.37l.386.367c.21.203.598.55.852.777.41.36.476.45.566.774.121.437.512 1.375.684 1.671.207.34.265.266.222-.293zm-33.117-.664c.512-.066 1.188-.398 1.457-.707.207-.238.207-.238.82-.273.825-.04 1.286-.27 1.286-.64 0-.165.02-.18.23-.18.406 0 .734-.254.734-.567 0-.289-.398-.492-2.441-1.246-.66-.242-1.203-.426-1.219-.414-.043.047.176.355.492.695l.286.305h-.18c-.098 0-.777-.113-1.504-.262-.727-.14-1.402-.25-1.508-.238-.18.016-.148.047.445.48.348.25.813.563 1.024.688l.387.234h-.356a10.686 10.686 0 0 1-1.14-.125 25.11 25.11 0 0 0-1.313-.168c-.648-.058-.648-.02-.031.5.48.407.965.602 1.89.766.254.043.454.098.434.113-.11.11-1.34.203-2.773.203-1.801.004-2.106.032-2.079.188.047.23 1.403.629 2.403.71.687.055 1.992.028 2.656-.062zm-9.816-.273c.23-.2.582-.82.804-1.395.188-.48.625-2.437.567-2.5-.063-.062-.832 1.051-1.106 1.59-.48.953-.722 1.961-.574 2.352.055.136.121.129.309-.047zm-1.45-.27c.25-.289.43-.636.801-1.59.313-.789.883-2.418.883-2.52 0-.206-1.04.919-1.516 1.634-.308.469-.62 1.46-.66 2.097-.043.63-.008.762.164.668.125-.078.235-.18.328-.289zm45.036-.937c.12-.149.101-.278-.153-.903-.418-1.046-.972-1.75-1.61-2.043-.284-.128-.429-.152-.816-.14-.566.02-.683-.016-1.175-.36-.61-.433-1.043-.53-1.328-.296-.31.246-.16.664.554 1.582.489.62.746.695.649.191a1.095 1.095 0 0 0-.22-.43c-.3-.351-.394-.52-.394-.707 0-.156.024-.18.18-.18.266 0 .5.212.719.645.297.59.523.809 1 .969.226.07.582.242.789.379.371.246 1.086.945 1.363 1.344.156.222.227.214.442-.051zm-26.887-.348c.59-.277.82-.68.824-1.457 0-.7-.215-1.246-.894-2.262-.493-.73-.602-.859-.875-.996-.301-.148-.446-.156-.446-.02 0 .032.133.22.29.415.402.488.96 1.46 1.136 1.965.09.261.145.574.145.847.007.364-.024.47-.184.739-.106.175-.285.375-.398.441-.227.148-.29.246-.235.387.05.136.262.12.637-.059zm23.062-.133c-.004-.07-.09-.113-.984-.55-.535-.262-.824-.438-1.61-1-.453-.32-.59-.313-.59.054 0 .149.067.258.282.461.32.293 1.465.89 1.984 1.031.38.102.926.106.918.004zm-23.953-.515c.692-.485.473-1.934-.445-2.961-.57-.637-.973-.645-.504-.004.488.656.617.969.598 1.45-.008.23-.051.632-.086.89-.063.418-.059.488.043.597.136.149.21.153.394.028zM6.477 16.07c1.218-.613 4.59-3.133 4.59-3.425 0-.145-.083-.118-.856.25-1.07.507-1.746.949-3.766 2.44-.62.454-.828.696-.765.856.058.157.332.114.797-.12zm6.156-4.172c.832-.382 2.11-.851 2.164-.796.015.02-.016.082-.074.148-.082.11-.157.23-.211.36-.164.402-.028.417.39.042.903-.816 1.883-1.246 3.254-1.422.75-.093 2.961-.078 3.883.032 1.516.18 2.469.449 2.918.82.348.29.48.082.176-.273-.422-.504-1.074-.762-2.434-.961-2.715-.391-4.89-.313-6.816.254-2.203.64-4.48 1.777-4.266 2.12.063.11.121.094 1.016-.324zm14.836.165c.765-.184 1.695-.735 1.906-1.13.05-.09.031-.132-.07-.187-.114-.062-.176-.031-.434.195-.574.508-1.738.961-2.48.965-.246 0-.563.114-.563.2 0 .136 1 .109 1.64-.043zm-1.496-.391c.21-.11.73-.524 1.148-.91l.234-.219-.27-.3-.187.132-.191.137-.156-.188c-1.473-1.773-2.082-2.761-2.395-3.898a4.323 4.323 0 0 1-.105-2.028c.133-.71.308-1.113.707-1.593l.3-.368-.163-.042c-.38-.094-.942.542-1.239 1.394-.62 1.773.078 3.797 2.2 6.371l.558.672-.187.2c-.223.238-.528.644-.528.702 0 .063.051.055.274-.062zm3.949-1.488c.383-.399.48-.754.586-2.121.11-1.415.11-1.41-.305-1.731-.187-.148-.238-.227-.215-.324.14-.477.07-.742-.199-.742-.203 0-.305.195-.281.554.012.242-.012.317-.18.492-.289.301-.305.434-.121.833.3.652.387 1.214.305 2.054-.035.406-.086.79-.11.848-.03.078.008.14.141.207.102.059.191.101.195.101.008.004.09-.078.184-.171zm-1.172-.2c.453-.468.57-1.433.273-2.34-.152-.46-.296-.648-.296-.378 0 .082-.075.175-.192.246-.11.058-.195.152-.195.207-.008.398-.145 1.336-.23 1.531-.079.164-.18.316-.301.45l-.204.206.157.16c.117.133.215.164.449.164.258 0 .328-.03.539-.246zm-1.508-1.582C26.234 7 25.805 5.895 25.918 5.008c.082-.668.398-.988.973-.996.324 0 .347-.012.379-.184.074-.355.062-.363-.348-.363-1.152 0-1.75 1.043-1.45 2.52.192.976.66 1.867 1.485 2.855l.371.445.285-.36zm1.219-1.433c.168-.367.156-.692-.047-1.52-.113-.445-.203-.914-.203-1.031 0-.39.184-.86.45-1.164.144-.164.26-.309.26-.332 0-.074-.398-.04-.57.05-.246.133-.37.29-.488.622-.172.496-.133.945.164 1.855.207.625.274.922.274 1.254 0 .238.02.434.039.434.023 0 .078-.074.12-.168zm2.594-1.543c.453-1.344.375-2.528-.192-3.004-.281-.238-.707-.387-1.047-.363-.418.03-.37.175.094.32.442.129.66.308.828.683.188.415.203 1.024.063 1.981-.07.46-.113.86-.094.89.078.13.191-.038.348-.507zm-1.746-.528c.187-.472.238-.53.425-.53.176 0 .325.198.48.663.114.336.15.293.122-.176-.023-.52-.371-1.136-.645-1.136-.246 0-.543.605-.62 1.27-.051.456.038.425.238-.09zm-3.18-3.062c.445-.18.57-.207 1.117-.207.535 0 .672.031 1.117.207.282.117.54.187.567.172.105-.067.05-.227-.117-.387-.477-.441-1.926-.555-2.672-.207-.399.184-.637.383-.637.54 0 .132.05.12.625-.118zm0 0"/></svg>