<svg xmlns="http://www.w3.org/2000/svg" width="64pt" height="64pt" viewBox="0 0 64 64"><path d="M31.793 0C14.234 0 0 14.234 0 31.793 0 49.355 14.234 63.59 31.793 63.59c17.562 0 31.797-14.235 31.797-31.797C63.59 14.234 49.355 0 31.793 0zm23.09 27.102l-.399 1.945zm-53.438.156H9.75l-.55 4.105-1.802.18.329-2.617H6.125l-1.207 5.676h1.844l-.356 1.668H.957l.352-1.668h1.847l1.207-5.676H2.762l-.782 2.617-1.726-.18zm9.282 0h4.035l-.352 1.668h-1.152l-.39 1.832h3.206l.387-1.832h-1.152l.351-1.668h4.043l-.355 1.668h-1.121l-1.207 5.676h1.12l-.35 1.668h-4.044l.356-1.668h1.156l.46-2.176h-3.206l-.461 2.176h1.156l-.36 1.668H8.81l.359-1.668h1.121l1.203-5.676h-1.12zm9.695 0h8.414l-.617 3.367h-1.7l.231-1.7h-3.637l-.39 1.833h1.332l.195-.934h1.668l-.75 3.524H23.5l.2-.922h-1.333l-.46 2.176h3.765l.46-1.715h1.669l-.723 3.383h-8.574l.36-1.668h1.28l1.208-5.676h-1.286zm15.27 0h8.417l-.62 3.37h-1.7l.234-1.702h-3.636l-.39 1.832h1.331l.195-.93h1.668l-.746 3.52h-1.672l.2-.922h-1.328l-.465 2.176h3.765l.461-1.715h1.668l-.719 3.383h-8.578l.356-1.668h1.285l1.203-5.676H35.34zm9.343 0h3.258l2.234 6.61h.032l1.046-4.942h-1.601l.351-1.668h4.333l-.352 1.668h-.965L51.77 36.46h-2.211l-2.29-6.719h-.035l-1.03 4.856h1.663l-.355 1.672h-4.39l.355-1.672h.96l1.208-5.672h-.961zm9.973 0h5.113c2.852 0 3.445 2.262 2.992 4.375-.726 3.43-3.144 4.637-5.117 4.637h-4.902l.351-1.668h1.282l1.207-5.676h-1.282zm2.687 1.668l-1.203 5.676h1.649c1.425 0 2.672-.88 3.117-2.97.433-2.034-.63-2.706-1.559-2.706zm0 0" fill="#211e1e"/></svg>