<svg xmlns="http://www.w3.org/2000/svg" width="64" height="64"><path d="M30.735 62.974c-4.536-.213-8.636-1.266-12.569-3.23C8.894 55.118 2.54 46.192 1.237 35.969 1.052 34.512 1 33.643 1 31.998c0-1.644.052-2.513.237-3.969a30.812 30.812 0 0 1 8.557-17.665C16.78 3.215 26.614-.11 36.522 1.329c5.194.753 10.289 2.92 14.425 6.135 1.127.876 1.844 1.512 2.96 2.628 1.714 1.713 2.996 3.297 4.212 5.203 4.065 6.369 5.65 13.848 4.532 21.374a30.964 30.964 0 0 1-3.732 10.714c-4.785 8.333-13.147 14-22.587 15.308-1.87.26-3.904.362-5.597.283zm6.568-4.591c.033-1.226.073-2.243.09-2.26.016-.017 1.023-.194 2.236-.393 1.213-.2 2.237-.374 2.276-.389.04-.014-.82-.471-2.004-1.064l-2.075-1.039v-.154c-.001-.084-.033-.858-.071-1.718a139.61 139.61 0 0 1-.074-1.85l-.004-.284-.259.759-.258.758.055 1.423c.03.782.058 1.425.06 1.429.003.003.657.332 1.452.73l1.447.726-1.658.278c-.912.152-1.668.287-1.68.3-.012.012-.042.72-.067 1.574l-.046 1.553.174.782c.23 1.034.265 1.158.31 1.108.02-.022.064-1.044.096-2.27zm-.81.879l-.141-.636-.83-1.117c-.456-.615-.867-1.167-.912-1.226l-.083-.109-1.54.446c-.847.246-1.546.442-1.552.437-.007-.006.28-.635.637-1.397l.649-1.387-.187-1.237-.186-1.238-.166-.152a10.8 10.8 0 0 0-.32-.28c-.14-.115-.154-.119-.154-.036 0 .05.096.713.213 1.472l.214 1.38-.394.844-.394.844-.448.034c-.577.045-1.728-.031-2.31-.153a8.775 8.775 0 0 1-.933-.264 7.917 7.917 0 0 0-.525-.173c-.026-.003-.553.201-1.17.453-.618.252-1.133.458-1.144.458-.012 0 .125-.452.304-1.004l.326-1.004-.371-.383c-.66-.68-1.294-1.55-2.047-2.813-.19-.32-.352-.576-.358-.569-.006.007.044.988.111 2.18.068 1.193.113 2.177.101 2.188-.011.011-1.088-.188-2.392-.442-1.305-.255-2.382-.455-2.393-.444-.036.032.842.893 1.445 1.418 2.013 1.753 4.26 2.907 6.671 3.428 2.785.602 5.964.308 8.353-.772l.463-.21.79 1.062c.435.584.796 1.056.803 1.05a7.875 7.875 0 0 0-.13-.648zm-.585-3.468a8.34 8.34 0 0 1-.169-.64c0-.03.325-.176.722-.325.77-.288.918-.354.797-.356-.11-.003-2.44-.386-2.46-.405-.01-.01.03-.213.085-.452.057-.24.096-.442.088-.449-.04-.037-1.654-.462-1.675-.441-.014.013.08.412.209.886l.234.862-.377.692c-.207.381-.368.702-.357.712.01.01.388-.141.839-.338.45-.197.84-.358.864-.358.024 0 .334.277.69.615.355.337.653.607.662.598.009-.01-.06-.28-.152-.601zm-9.261-.897c.626-.256.837-.363.818-.413-.047-.122-.985-1.63-1.003-1.612-.01.01-.178.517-.374 1.128l-.386 1.201c-.02.064-.01.083.036.065.036-.013.445-.18.909-.37zm-12.424-1.138c-.222-.769-.42-1.414-.44-1.435-.02-.02-.094.184-.166.455l-.13.492.1.337c.082.275.185.451.558.955.252.34.464.612.47.605.007-.007-.17-.64-.392-1.41zm-.146 1.27l-.407-.542c-.55-.731-.776-.834-1.638-.744l-.29.03 1.172.657c.646.361 1.181.657 1.191.657.01 0-.003-.026-.028-.059zM12.46 53.38c.285 0 .338-.016.522-.157.183-.139.217-.197.313-.531.059-.206.101-.392.095-.413-.012-.033-1.463.988-1.578 1.11-.033.035.009.042.142.021a4.26 4.26 0 0 1 .506-.03zm23.636-2.039c.436-.482.82-.941.853-1.02.125-.288.398-1.223.339-1.157l-1.118 1.24c-.581.646-1.078 1.174-1.104 1.174-.04 0-3.205-.907-3.393-.972-.032-.011-.06.008-.06.044 0 .035.185.221.41.413l.408.35 1.382.409c.76.225 1.406.407 1.436.403.03-.004.411-.402.847-.884zm16.933-.009c.235-.188.862-.692 1.393-1.121l.967-.78-1.299-.461a162.98 162.98 0 0 0-1.397-.491c-.095-.03-.097-.021-.058.29.038.306-.03 2.492-.086 2.774-.014.071-.008.13.014.13s.232-.154.466-.341zm-8.729-.63l.034-.544-.35-.677-.351-.676-.32-.154c-.366-.176-.553-.232-.553-.166 0 .025.097.191.216.368.119.178.444.787.723 1.354.28.568.521 1.034.537 1.036.017.002.046-.242.064-.54zm2.47-2.242c-.007-.008-.232.067-.5.166l-.487.179-.563.7c-.458.569-.563.728-.563.853 0 .084-.014.303-.031.485l-.03.332 1.093-1.351c.602-.743 1.088-1.357 1.081-1.364zm-.872-.054c.348-.128.6-.243.561-.257-.039-.013-.807-.058-1.707-.1-.9-.043-1.708-.088-1.795-.102-.128-.02-.155-.01-.142.052.01.047.23.172.562.318.474.21.6.245.972.274.859.066.871.064 1.549-.185zm-38.32-2.99C8.746 45.415 9.7 45.4 9.7 45.38c-.002-.028-2.493-1.944-2.839-2.182-.08-.056-.157.032-.905 1.039-.45.605-.83 1.132-.844 1.17-.023.059.006.066.158.04.103-.016 1.141-.03 2.309-.03zm12-3.15c1.35-1.115 2.455-2.044 2.455-2.066 0-.033-4.89-5.365-5.43-5.92l-.156-.16-.316.105c-.174.058-.31.123-.302.146.008.022 1.094 1.21 2.414 2.638l2.646 2.867.245.269-2.005 1.656c-1.103.911-2.03 1.686-2.06 1.723-.03.036-.07.258-.089.492-.033.415-.032.425.055.35.049-.041 1.194-.987 2.544-2.1zm-2.909 1.414l.004-.242-.958-1.204c-.527-.663-1.877-2.357-3-3.765-6.336-7.942-8.19-10.274-8.207-10.325-.014-.045 6.574-5.703 7.076-6.076l.124-.093.154.178.155.179.167-.297.167-.296-.122-.145c-.305-.366-.452-.507-.503-.485-.057.023-7.837 6.634-8.04 6.831l-.109.106 2.742 3.44 6.513 8.168 3.77 4.73.032-.232c.017-.127.033-.34.035-.472zm35.382.198c.16-.22.29-.434.29-.476 0-.078-.222-.547-.26-.547-.01 0-.119.138-.24.308-.134.188-.242.296-.275.276-.03-.018-.682-.459-1.449-.98l-1.393-.947.41-.384.41-.383-.155-.237-.155-.237-.364.014c-.827.03-1.852-.413-2.63-1.14-.221-.208-.638-.696-.708-.83-.011-.022-.604.12-1.482.354-.451.12-.803.235-.782.256.035.035 2.765 1.512 2.795 1.512.007 0 .049-.116.093-.257l.08-.256.273.186c.51.348 1.523.753 1.882.753.06 0 .108.016.108.034 0 .019-.16.184-.356.368l-.356.333 1.976 1.34a242.8 242.8 0 0 0 1.987 1.339c.006 0 .141-.18.3-.4zm1.495-1.45c.374-.535.667-.984.65-1-.048-.045-2.518-.534-2.548-.505-.037.038 1.132 2.504 1.18 2.489.02-.007.344-.45.718-.985zm-14.978-.25c.017-.017-.884-2.187-.974-2.348-.02-.038-.05-.05-.065-.026a108.56 108.56 0 0 0-1.125 2.424c0 .028 2.135-.022 2.164-.05zm-4.189-1.391c.126-.694.218-1.271.207-1.283-.018-.018-1.377.808-2.135 1.296l-.182.118.894.562c.491.31.915.564.941.566.026.001.15-.565.275-1.26zm1.989.61l.118-.273-.408-.035c-.392-.034-1.119-.153-1.259-.207-.049-.019-.081.045-.122.244-.031.148-.038.287-.016.308.022.022.21.072.419.112.538.103.586.11.883.117l.267.006.118-.272zm9.286-.166l.094-.357c.04-.153.037-.157-.236-.294l-.276-.14-.029.155-.029.156-1.877-.307-1.877-.307-.243.243c-.133.134-.233.252-.221.262.015.014 2.947.513 4.608.785.019.003.058-.085.086-.196zm-6.475-.13c.698-.347.674-.32.57-.662l-.086-.284-.195.121a7.98 7.98 0 0 1-.597.313 9.531 9.531 0 0 0-.422.208c-.026.023.19.54.226.54.017 0 .244-.106.504-.236zm-21.685-.112c.203-.085.443-.364.505-.587.061-.22.061-.232 0-.453-.112-.402-.556-.694-.957-.63-.837.132-1.029 1.244-.283 1.637.206.11.52.123.735.033zm36.928-.383c.16-.219.29-.427.288-.462a1.508 1.508 0 0 0-.134-.318l-.132-.254-.438.602c-.24.33-.448.629-.461.662-.02.053.226.128.533.163.03.004.185-.173.344-.393zm-13.81-1.933c-.657-.282-1.207-.507-1.222-.5-.016.006.17.577.411 1.268.242.691.441 1.267.442 1.28.002.012.354-.328.784-.756l.78-.78-1.195-.512zm-8.053 1.614c.132-.082.24-.163.24-.18 0-.018-.09-.082-.2-.144a9.427 9.427 0 0 1-.51-.316c-.168-.113-.32-.189-.337-.17a3.11 3.11 0 0 0-.157.255l-.126.22.369.24c.203.132.394.241.425.242.03.002.164-.064.296-.147zm23.363-1.016c.355-.51.655-.952.667-.983.016-.04-.365-.137-1.283-.324a30.309 30.309 0 0 0-1.305-.25c0 .008.216.47.48 1.025.264.556.53 1.123.593 1.262.062.138.133.239.158.224.024-.015.334-.444.69-.954zm-23.878-.968a160.37 160.37 0 0 1 1.764-2.778c.017-.029-.163.021-.402.11-.238.09-.595.205-.793.255l-.359.092-1.363 1.362-1.363 1.362.77.55c.564.403.785.536.824.498.029-.029.444-.682.922-1.45zm20.04 1.299c.455-.216.47-.948.024-1.178-.464-.24-1 .073-1 .585 0 .509.505.816.976.593zm-2.956-.425c.15-.249.272-.468.272-.486 0-.018-.227-.025-.505-.017-.735.022-1.082-.069-1.921-.502-.053-.027.054.381.155.59.22.46.923.85 1.56.865.16.004.175-.012.439-.45zM27.9 38.285c.007-.007-.14-.659-.33-1.448l-.342-1.435-.273.02c-.15.01-.283.03-.295.041-.012.012.102.533.252 1.159.15.625.27 1.142.266 1.148-.01.015-2.515.297-2.632.297-.064 0-.246-.29-.696-1.114-.677-1.236-.604-1.162-1.072-1.076l-.177.033.715 1.304c.394.717.744 1.348.778 1.402l.062.098 1.865-.208a76.852 76.852 0 0 0 1.879-.22zm13.807.22c.159-.315.436-1.31.38-1.36-.044-.038-.526-.268-.535-.254a6.606 6.606 0 0 0-.093.439 4.809 4.809 0 0 1-.23.78c-.08.195-.128.362-.104.37.024.01.13.057.234.106.254.12.246.122.348-.08zM15.7 38.475a.857.857 0 0 0 .282-1.012c-.15-.358-.426-.546-.804-.546a.857.857 0 0 0-.788 1.222c.164.358.427.51.842.487.231-.013.327-.044.468-.151zm29.38-.41c.132-.029.24-.064.24-.078a7.4 7.4 0 0 0-.153-.458c-.148-.417-.154-.46-.154-1.168 0-.624.017-.791.11-1.113.156-.546.36-1.033.627-1.5.129-.225.234-.422.234-.438 0-.04-1.02-.034-1.242.008-.112.021-.286.127-.483.294-.17.143-.31.273-.312.29-.001.015.156.208.348.428l.351.4-.118.498-.118.497-.292-.017c-.24-.015-.33.003-.505.096-.533.285-.652 1.01-.244 1.475.204.232.71.34 1.025.22.09-.034.129-.03.144.013.137.397.227.604.261.604.023 0 .15-.023.282-.052zm11.648-.636l.262-.355-.147-.29c-.08-.161-.164-.273-.185-.25-.151.165-.814 1.117-.793 1.139.038.038.315.1.47.106.11.004.173-.053.393-.35zm-19.44.126c.264-.135.56-.482.633-.744.073-.26.04-.708-.067-.915-.099-.192-.367-.46-.56-.56-.236-.121-.706-.142-.969-.041-.631.24-.96.916-.75 1.543.103.312.437.662.736.772.276.101.72.076.977-.055zm20.93-1.375c.371-.53.668-.971.66-.98-.028-.026-2.575-.54-2.593-.522-.01.009.138.343.327.743l.599 1.268c.142.301.272.522.294.498.022-.024.343-.477.714-1.007zm-32.604.865c.155-.073.307-.307.307-.47 0-.148-.142-.383-.28-.465-.47-.277-.992.237-.739.727.135.26.425.345.712.208zm24.844-.18c.302-.147.57-.423.713-.735.156-.34.143-.943-.027-1.267-.166-.316-.545-.655-.846-.754-.712-.237-1.474.054-1.823.695-.178.326-.22.853-.097 1.223.116.347.486.73.855.883.381.159.844.142 1.225-.045zm-8.02-1.16l.026-1.01-.107.026c-.06.015-.625.217-1.258.448l-1.151.422.492.262c1.755.933 1.915 1.01 1.945.936.016-.04.04-.527.054-1.083zm11.927.753c.323-.196.43-.575.253-.89-.344-.612-1.253-.389-1.253.307 0 .528.558.853 1 .583zm-22.662-.742c1.277-.196 2.325-.61 3.025-1.194.147-.123.205-.207.205-.297 0-.153-.373-2.425-.403-2.455-.012-.012-.092.036-.177.105-.392.32-.817.569-1.273.745-1.399.54-2.614.418-3.37-.335-.226-.225-.51-.649-.46-.685l.199-.121.184-.11-.03-.286a1.548 1.548 0 0 0-.05-.304c-.023-.024-1.07.554-1.07.59 0 .09.4.842.56 1.053.954 1.258 2.89 1.487 4.711.557l.41-.21.026.173c.014.094.052.393.084.663l.058.492-.114.089c-.218.168-.932.513-1.353.654-1.278.426-2.744.497-3.942.191-.437-.111-1.13-.439-1.453-.686l-.23-.177.032.15c.018.081.07.281.115.444.08.286.09.3.364.45.99.54 2.48.73 3.952.504zm-6.85-.447c1.2-.133 2.188-.248 2.196-.256.022-.022-.99-3.742-1.03-3.784-.026-.03-2.402 2.424-3.58 3.697-.271.293-.272.296-.216.467.055.168.061.171.253.144.108-.015 1.178-.135 2.377-.268zm-9.461-1.445a594.367 594.367 0 0 0 2.93-1.044c.03-.02-1.86-3.863-1.895-3.851-.02.007-.659.93-1.419 2.051l-2.022 2.983c-.353.519-.612.932-.576.92.036-.014 1.378-.49 2.982-1.06zm6.818.777c.098-.107.183-.21.19-.227.013-.032-1.625-3.074-1.694-3.148-.036-.038-.571.094-.571.14 0 .014.28.54.623 1.17 1.037 1.908 1.232 2.26 1.254 2.26.011 0 .1-.087.198-.195zm19.098.094c.146-.055.265-.117.265-.136 0-.207-1.33-1.707-1.873-2.11a2.57 2.57 0 0 1-.261-.218 2.202 2.202 0 0 0-.242-.202l-.17-.124-.088.096c-.048.053-.158.14-.244.194l-.158.097.415.291c.548.383 1.637 1.477 1.886 1.893.104.175.193.318.197.32.005 0 .127-.045.273-.1zm17.495-.123c.066-.098.187-.268.27-.377l.149-.2-1.973-1.471c-1.085-.81-1.99-1.473-2.01-1.473-.021 0-.164.23-.317.51s-.325.593-.383.694l-.104.185-.119-.235c-.394-.778-1.455-1.59-2.522-1.929-.63-.2-.913-.242-1.612-.237-.837.005-1.379.135-2.115.505l-.502.252.063-.382c.096-.595.099-.585-.185-.711-.137-.061-.258-.103-.269-.093-.035.033-.236 1.364-.212 1.403.013.021.08.038.148.038.119 0 .115.009-.086.174-.342.283-.793.77-1.12 1.21-.295.397-.315.415-.528.443-.381.051-.335.062.281.066l.599.004.269-.351c.535-.699 1.21-1.253 1.944-1.595.652-.305.897-.353 1.784-.35.711.002.82.014 1.2.13 1.376.422 2.495 1.442 2.524 2.3.008.25.011.255.21.344.112.05.23.09.265.09s.26-.357.5-.793c.24-.437.443-.803.452-.813.016-.018 2.724 1.985 2.886 2.135.092.085.091.089-.06.302-.083.119-.151.234-.151.256 0 .037.336.127.527.14.042.004.131-.074.197-.171zM42.2 34.365c.138-.054.256-.104.262-.11.02-.02.393-2.46.378-2.476-.008-.008-.167.14-.352.328l-.338.342-.146.959c-.08.527-.146.98-.146 1.007 0 .07.06.061.342-.05zm.321-2.816l1.54-1.54-.117-.114-.678-.64-.56-.527-.272.343c-.149.19-.755.965-1.347 1.725l-1.077 1.38.462.456c.253.25.472.456.485.456.013 0 .717-.692 1.564-1.54zm-31.385 1.395c.369-.102.652-.468.65-.837a.881.881 0 0 0-1.271-.776c-.674.343-.6 1.338.117 1.594.224.08.278.082.504.019zm40.232-.838l-.032-.343-.245-.075a4.995 4.995 0 0 0-.648-.126c-.772-.1-1.551.17-2.187.759-.182.168-.324.313-.316.32.008.009.193-.048.41-.124 1.047-.37 2.032-.364 2.726.018l.291.16.017-.123a3.118 3.118 0 0 0-.016-.466zm-18.507.244c.122-.042.222-.088.222-.103s-.064-.126-.142-.248c-.21-.328-.334-.732-.365-1.191l-.028-.409-.282.172-.282.171.025.316c.04.519.393 1.367.568 1.367.035 0 .162-.034.284-.075zm12.544-.11c.888-.455.58-1.758-.417-1.758-.437 0-.775.262-.905.703-.112.38.1.854.469 1.049.232.122.621.125.853.006zm-21.789-.165c.214-.09.313-.246.313-.495 0-.172-.027-.234-.161-.368-.214-.214-.478-.226-.693-.031-.282.256-.262.646.043.852.187.125.28.133.498.042zm14.708-.117c.47-.214.735-.624.735-1.132 0-.36-.073-.553-.312-.817-.579-.64-1.568-.528-1.977.224-.175.321-.207.595-.11.93.201.69 1.027 1.085 1.664.795zm-24.564-.266l.172-.259-.16-.188a33.304 33.304 0 0 0-.741-.804l-.583-.615.535-.4a76.249 76.249 0 0 1 2.788-1.953c.535-.362.98-.664.99-.672.01-.007-.158-.216-.373-.464l-.39-.451-.173.074c-.095.04-.231.096-.303.122-.071.026-.13.061-.128.078 0 .017.094.136.207.264l.206.234-1.144.788c-1.985 1.367-2.82 2-2.915 2.207a.64.64 0 0 0-.056.213c0 .053.28.392.652.79l.93.997a3.6 3.6 0 0 0 .297.298c.01 0 .095-.116.19-.259zm17.363-.862c.585-.356 1.046-.664 1.026-.683-.064-.061-2.31-1.37-2.324-1.355-.008.008.028.578.08 1.267.052.689.095 1.29.095 1.335 0 .046.013.083.03.083.016 0 .508-.291 1.093-.647zm-5.337.017c.038-.07.018-.217-.084-.607-.13-.502-.136-.513-.253-.485a.603.603 0 0 0-.14.046c-.02.017.228 1.145.268 1.216.026.048.144-.048.21-.17zm-3.066-.667c2.447-.732 2.749-.832 2.736-.912-.008-.05-.21-.831-.447-1.737-.295-1.128-.447-1.635-.483-1.608-.028.022-1.22.887-2.648 1.923-1.428 1.036-2.597 1.901-2.597 1.923 0 .057.631 1.234.662 1.234.014 0 1.264-.37 2.777-.823zm-13.096-.117a.874.874 0 0 0 .097-1.46c-.16-.121-.218-.136-.519-.136-.3 0-.36.015-.519.136a.955.955 0 0 0-.356.693c0 .348.305.768.606.834.07.015.148.036.174.045.087.032.378-.031.517-.112zm23.086-.244c.027-.077.05-.157.052-.178.002-.02.11-.097.24-.171l.236-.135-.03-.288a1.566 1.566 0 0 0-.05-.308c-.011-.011-.322.15-.692.36-.655.37-.669.381-.56.45.263.169.682.408.717.41.021 0 .06-.062.087-.14zm16.041-.954c.099-.499.17-.916.157-.93-.018-.017-2.247.387-3.016.548-.153.032-.076.073 1.21.657a38.85 38.85 0 0 0 1.42.626c.028.003.13-.403.23-.901zm-13.827-.114c.473-.287.86-.533.861-.547.002-.034-2.321-1.39-2.343-1.368-.01.01.023.552.071 1.204.049.652.09 1.256.09 1.343l.002.158.23-.134c.126-.074.617-.37 1.09-.656zm7.25.035c.071-.102.064-.119-.154-.373a6.524 6.524 0 0 0-.586-.574c-1.244-1.066-2.57-1.583-4.072-1.587-.347-.001-.64.008-.653.02-.013.013.022.141.077.284l.1.261.648.027c.805.034 1.386.175 2.068.5.716.342 1.173.672 1.758 1.265l.521.53.11-.122a2.86 2.86 0 0 0 .184-.23zm1.344-1.312c.105-.676.174-1.244.155-1.262-.02-.017-.89-.184-1.934-.372a573.92 573.92 0 0 1-2.016-.363l-.118-.023.016-2.08.016-2.081-.277-.538-.277-.538-.035 2.181c-.02 1.2-.03 2.49-.024 2.866l.012.684 1.979.361c1.088.199 1.988.371 2 .383.012.012-.033.377-.1.812l-.122.79.256.236c.14.13.26.222.267.205.006-.017.097-.585.202-1.261zm-12.012.73c.458-.229.676-.585.676-1.105 0-1.133-1.411-1.65-2.15-.786-.175.204-.316.563-.316.802 0 .29.147.626.373.853.403.402.915.487 1.417.236zM25.89 27.03a4.67 4.67 0 0 1 1.072-1.577c.797-.799 1.637-1.232 2.854-1.473.455-.09 1.64-.077 2.146.023 1.82.36 3.251 1.378 3.918 2.786l.14.298-.318.185a8.538 8.538 0 0 0-.334.198c-.008.008.112.091.267.185l.281.171.397-.222.411-.23c.007-.005-.073-.233-.179-.506-.823-2.13-3.103-3.545-5.712-3.545-2.407 0-4.405 1.207-5.391 3.258l-.188.39.123.485c.068.267.136.506.151.531.016.025.066-.091.112-.259.046-.167.158-.482.25-.698zm-12.734-.607c1.92-.825 3.536-1.523 3.59-1.553.094-.05.007-.176-1.47-2.101-.863-1.127-1.583-2.05-1.6-2.051-.032-.003-.776 1.308-2.732 4.81a630.034 630.034 0 0 1-1.228 2.192c-.063.11-.101.201-.084.201.018 0 1.603-.674 3.524-1.498zm39.746.68c.062-.381.102-.72.089-.755-.014-.034-.977-.52-2.141-1.078l-2.117-1.016.03-.225.03-.224-.255-.146-.254-.146-.106.438c-.057.241-.105.483-.106.537-.002.083.327.257 2.144 1.131 1.18.569 2.152 1.038 2.158 1.044.017.014-.067.452-.091.477-.011.01-1.053-.097-2.315-.24s-2.309-.244-2.326-.224c-.017.02-.058.218-.09.44-.032.221-.07.461-.085.533-.03.15 0 .157.36.08.226-.049.237-.059.267-.237.037-.22-.008-.213.83-.118.326.038 1.276.144 2.11.238.835.093 1.55.177 1.59.186.038.01.092.013.118.007.026-.005.098-.32.16-.702zm5.975-.505l-.057-.579-.383-.607c-.21-.334-.438-.7-.506-.815-.124-.207-.133-.213-.742-.455-.108-.043-.064.17.102.497.24.473 1.59 2.59 1.628 2.552a5.867 5.867 0 0 0-.042-.593zm1.069-.997c.354-.872.638-1.59.632-1.597-.007-.007-.193.1-.414.235l-.402.247-.3.734-.301.734.03.427c.033.463.078.84.099.819.007-.008.302-.727.656-1.599zm-38.247.827v-.308h-.203c-.85 0-1.882-.689-2.276-1.52a3.27 3.27 0 0 1-.2-.507l-.032-.154h-.607l.03.154c.042.223.237.733.356.932.607 1.012 1.661 1.653 2.802 1.705.13.006.13.004.13-.302zm1.098.099c1.062-.37 1.921-1.344 2.154-2.442.096-.452.107-.43-.23-.43h-.297l-.055.288c-.168.886-.934 1.757-1.784 2.027a6.764 6.764 0 0 1-.424.123c-.124.027-.13.04-.13.319v.29l.217-.03c.12-.016.366-.082.55-.145zm23.596-.388c.287-.232.365-.369.387-.68.016-.225-.001-.327-.087-.504-.32-.662-1.333-.67-1.652-.01-.184.38-.114.82.174 1.094.229.218.388.277.707.259.243-.014.326-.042.471-.16zm12.965-2.074c.514-.055.566-.07.898-.269.23-.137.36-.19.372-.152.033.1.095.063.149-.091a1.35 1.35 0 0 0 .052-.173c0-.063-2.247.15-2.905.275-.672.13-.68.142-.217.346.44.194.434.194 1.651.064zm-9.18-1.317c.14-.662.247-1.212.237-1.222-.021-.021-3.137.84-3.241.895-.045.025.06.104.332.252 2.018 1.095 2.392 1.295 2.404 1.287.007-.005.128-.55.268-1.212zm-31.218.42c.064-1.154.838-2.105 1.98-2.434l.356-.103.014-.294.014-.295-.2.034c-.307.052-.825.24-1.123.408-.149.084-.454.336-.679.562-.339.34-.445.485-.627.857-.233.477-.364.994-.364 1.441v.263h.604l.025-.439zm6.06-.027c0-.244-.162-.862-.31-1.184-.282-.616-.862-1.215-1.503-1.552-.377-.198-.95-.354-1.302-.354h-.253v.569h.158c.258 0 .87.176 1.185.34.373.196.91.732 1.107 1.106.16.305.274.668.323 1.031l.03.226h.564v-.182zm19.606-.044c.014-.045.167-.819.34-1.718.174-.9.319-1.638.322-1.64.016-.012 3.638.678 3.656.696.011.01-.036.26-.103.553-.068.293-.112.544-.097.558.014.015.155-.01.313-.054l.288-.08.125-.55c.069-.302.144-.623.168-.713.023-.09.035-.17.026-.18-.024-.024-4.828-.92-4.842-.904-.007.008-.156.75-.33 1.65-.175.898-.321 1.638-.327 1.643a130.38 130.38 0 0 1-2.309-1 143.688 143.688 0 0 0-2.31-1.002c-.006.005.084.188.198.409l.208.4 2.292 1.007c1.261.554 2.307 1.007 2.325 1.008.018 0 .044-.037.057-.083zm-17.852-.58c.161-.261.301-.475.312-.475.01 0 .507.14 1.104.309.597.17 1.097.308 1.11.308.014 0 .361-.438.772-.972.411-.535.764-.972.783-.972.02 0 .217.083.44.185l.402.186.966-.75c.53-.413 1.06-.849 1.176-.968l.212-.218-.402.002h-.4l-.64.521c-.353.286-.665.52-.696.52-.03 0-.38-.149-.779-.331-.398-.183-.74-.332-.761-.332-.02 0-.327.405-.682.9-.355.496-.66.902-.678.902-.019 0-.554-.25-1.19-.557l-1.158-.558-.412.442-.413.442.173.344c.185.368.328.88.37 1.32.013.149.041.26.061.248.02-.013.169-.236.33-.497zm-9.16-.415c.081-.228.212-.511.29-.628l.142-.214-.106-.031a6.758 6.758 0 0 0-.628-.087 4.86 4.86 0 0 1-.54-.073 6.467 6.467 0 0 1-.083-.625c-.036-.333-.07-.638-.077-.677-.01-.053-.194-.102-.723-.192l-.71-.12-.57-1.24a36.331 36.331 0 0 0-.6-1.269c-.03-.029-3.088-.313-3.112-.289-.007.008.474.242 1.069.522l1.081.509.602 1.203c.583 1.168.608 1.208.865 1.402l.264.199.448-.03c.436-.028.449-.026.472.077.013.057.09.5.17.982.08.482.155.904.165.936.014.044.202.06.725.06h.707l.149-.415zm1.896-2.595c.332-.239.727-.407 1.027-.438l.26-.027.012-1.178.011-1.617.002-.437-.37-.243c-.32-.21-.47-.27-1.115-.446-.41-.112-.762-.22-.784-.238-.021-.02.138-.401.353-.85l.39-.814-.114-.113c-.212-.207-1.869-1.677-1.88-1.667a28.4 28.4 0 0 0 .315 1.156l.325 1.145-.336 1.045c-.184.575-.326 1.054-.315 1.065.011.011.485.091 1.052.179l1.032.158v.261c0 .282-.075 2.01-.12 2.762-.014.254-.015.462 0 .462.013 0 .128-.074.255-.165zm5.226-1.743c.295-.841.545-1.54.555-1.552.01-.013.31.126.668.308l.68.346c.018.008.249-.37.513-.837l.48-.852 1.369-.846c.752-.465 1.363-.852 1.356-.86-.007-.007-.722.164-1.588.38l-1.575.392-.406.699-.406.698-.409-.219-.752-.405-.344-.186-.235.24c-.295.304-.678.921-1.12 1.804-.371.745-.78 1.674-.78 1.775 0 .036.075.072.18.086.227.03.85.28 1.086.434.1.065.183.12.186.12.003.002.247-.684.542-1.525zm29.858-1.923c.044-.842.072-1.538.062-1.546-.01-.008-.524.297-1.144.678l-1.126.693 1.032 1.002 1.031 1.003.033-.15c.018-.081.068-.838.112-1.68zm-13.854-.83c.438-.594.787-1.09.776-1.1-.01-.01-.21.04-.444.11l-.425.13-.39.52-.39.52-.001.496c0 .276.017.476.04.45.021-.024.397-.531.834-1.126zm-1.384-.858c-.164-.325-.222-.389-.695-.76a9.416 9.416 0 0 0-.537-.406c-.012 0 .296.617.682 1.371l.703 1.372.013-.611.013-.612-.179-.354zm9.88.079c-.014-.072-.07-.568-.124-1.103-.17-1.691-.35-2.687-.67-3.689-.485-1.518-1.118-2.465-2.181-3.258-1.144-.854-2.545-1.525-3.845-1.843-1.515-.37-3.214-.383-4.906-.036l-.428.087-.375-.137-.376-.137-.711-1.141-.712-1.14-.03.515c-.016.283-.012.558.01.61.02.052.261.447.533.877l.495.782L36.92 5c.55.208 1.001.39 1.001.402 0 .019-.74.505-1.665 1.094-.024.015.01.516.078 1.153l.12 1.127.379.755c.208.415.385.755.393.755.009 0 .008-.059 0-.13-.016-.127-.347-3.283-.347-3.307 0-.006.084-.068.188-.136a.668.668 0 0 1 .415-.124c.575.002 1.808.251 2.465.498.17.064.317.117.324.117.008 0 .063-.203.123-.452.074-.307.129-.448.17-.439.095.02 3.711 1.954 3.713 1.984 0 .015-.325.152-.723.305-.397.153-.792.306-.876.34l-.152.064.256.486c.414.784.63 1.551.736 2.619l.078.78.027.258.158-.252c.356-.563.88-1.942 1.084-2.852l.105-.469.187.1c.7.373 1.46 1.207 3.09 3.395.53.71.976 1.292.99 1.292.016 0 .016-.059.002-.13zm-8.205-.542c.272-.082.484-.16.473-.17-.031-.032-3.411-1.053-3.428-1.037-.014.015.943.777 1.133.901.06.04.378.157.703.26l.61.191c.009.003.238-.062.51-.145zm-4.351-3.725c-.134-.255-.27-.505-.302-.557-.098-.16-2.681-1.872-2.869-1.902-.143-.023-.322.052-1.304.542-.626.312-1.146.56-1.154.553-.009-.008.207-.494.479-1.079l.495-1.064-.385-.724-.384-.724-.441-.236c-.243-.13-.45-.227-.463-.215-.012.011.203.448.476.97l.498.948-.824 1.773c-.453.976-.817 1.781-.81 1.79.009.009.314-.146.68-.343 1.057-.57 2.988-1.546 3.053-1.544.033 0 .818.511 1.744 1.135s1.7 1.135 1.719 1.137c.02 0-.075-.206-.208-.46zm4.977-1.273a50.47 50.47 0 0 0 1.187-.469c.012-.012-.548-.32-1.663-.915-.124-.066-.239-.108-.254-.092-.026.025-.49 1.812-.492 1.895 0 .02.01.036.025.036.014 0 .553-.205 1.197-.455zm-6.751-1.406a9.54 9.54 0 0 0 .12-.886c0-.073-.087-.141-.362-.279l-.362-.182.01-.731c.005-.45-.008-.713-.035-.684-.024.026-.199.256-.389.511-.24.323-.368.457-.421.442a7.322 7.322 0 0 0-.527-.075c-.248-.029-.514-.065-.59-.08-.128-.025-.107.01.248.398.214.234.39.442.39.462 0 .02-.14.26-.309.532-.17.273-.308.503-.308.512 0 .01.317-.122.706-.292l.706-.31.515.38c.283.21.531.383.55.385.02.002.045-.044.058-.103zM25.11 5.089c.21-.576.383-1.063.383-1.083 0-.035-1.33-.005-2.214.05l-.435.026.93 1.039c.512.57.935 1.033.941 1.027.006-.007.184-.483.395-1.059zm8.867-1.124l.516-.772.035-.579c.02-.318.023-.579.007-.579-.015 0-.337.47-.714 1.043l-.687 1.043-1.413.002-1.413.001.569.306.569.306h1.007l1.007.002.517-.773z"/></svg>