<svg xmlns="http://www.w3.org/2000/svg" width="80" height="80"><path d="M38.636 79.987a46.677 46.677 0 0 1-3.054-.224c-9.823-1.076-18.946-5.808-25.523-13.241A39.933 39.933 0 0 1 .086 37.395c.513-7.85 3.264-15.253 7.995-21.512a40.821 40.821 0 0 1 5.939-6.31A39.902 39.902 0 0 1 35.449.242C37.063.057 38.134 0 39.996 0c1.543 0 2.012.016 3.187.108a39.792 39.792 0 0 1 20.872 7.909 40.156 40.156 0 0 1 13.11 17.117 39.856 39.856 0 0 1 2.728 11.714c.089 1.126.107 1.675.107 3.147 0 1.985-.073 3.215-.295 5.002-1.223 9.836-6.083 18.863-13.66 25.373a40.022 40.022 0 0 1-11.007 6.716 39.618 39.618 0 0 1-15.149 2.913 89.551 89.551 0 0 1-1.253-.012zm1.987-7.744c.692-.024 1.813-.098 1.835-.12.021-.02-1.627-18.772-1.655-18.835-.039-.085-.15-.143-.274-.143-.11 0-.24.108-.264.217-.01.048-.713 18.725-.71 18.875.001.04.09.04 1.068.006zm-4.72-.172c0-.006.69-5.909 1.535-13.116.844-7.208 1.536-13.159 1.538-13.225.004-.158-.062-.257-.2-.298-.093-.028-.119-.026-.203.02a.355.355 0 0 0-.13.118c-.035.072-5.383 26-5.365 26.018.029.028 1.235.263 1.85.36.67.106.974.145.974.123zm10.839-.736c.583-.118 1.898-.433 1.926-.46.013-.014-7.344-27.134-7.378-27.199-.045-.083-.163-.16-.247-.16-.167 0-.287.127-.287.304 0 .067 5.148 27.305 5.214 27.59.008.033.035.06.06.06.026 0 .346-.06.712-.135zm-18.89-10.548c3.442-6.28 4.33-7.918 4.338-8.009.01-.1 0-.123-.083-.206-.111-.111-.238-.125-.348-.038-.039.03-2.496 3.256-5.462 7.168a3241.64 3241.64 0 0 1-5.442 7.17l-.052.058.342.248c.802.583 2.32 1.565 2.36 1.524.01-.01 1.966-3.573 4.346-7.915zm2.517 7.022l2.576-8.067c1.602-5.016 2.557-8.047 2.557-8.113 0-.227-.295-.36-.465-.21-.082.07-7.126 15.459-7.091 15.489.084.074 1.233.538 2.329.942.067.025.076.02.094-.041zm29.054-2.305a43.276 43.276 0 0 0 1.522-1.204l.093-.08-.188-.21c-.104-.114-3.666-4.11-7.917-8.878-4.25-4.767-7.786-8.725-7.857-8.795-.114-.112-.142-.127-.244-.126-.223 0-.362.229-.255.415.05.087 14.296 19.269 14.31 19.269.008 0 .248-.176.536-.391zM28.494 53.517c6.412-7.196 10.218-11.487 10.237-11.541.065-.194-.161-.42-.355-.355-.06.02-3.559 3.355-11.168 10.646a4760.168 4760.168 0 0 0-11.09 10.644c-.013.033 1.465 1.51 1.834 1.834.153.134.291.24.307.235.015-.005 4.621-5.163 10.235-11.463zm22.12 11.141a28.76 28.76 0 0 0 1.499-.672c.386-.186.486-.244.476-.28-.024-.094-6.72-12.205-6.786-12.275-.056-.058-.094-.073-.187-.073-.1 0-.133.015-.212.094-.083.083-.093.107-.08.194.017.122 4.898 13.155 4.926 13.155.011 0 .175-.064.364-.143zm14.763-4.072c.687-.852 1.324-1.723 1.286-1.757-.013-.011-2.526-1.779-5.585-3.928l-11.8-8.295a1747.4 1747.4 0 0 0-6.304-4.421c-.22-.118-.492.182-.36.398.051.085 22.351 18.465 22.387 18.452.011-.004.18-.206.376-.449zm-41.44-8.788c4.452-3.565 8.107-6.509 8.123-6.543a.298.298 0 0 0-.047-.329c-.062-.07-.096-.085-.193-.086-.114-.002-.474.23-8.88 5.728a3224.027 3224.027 0 0 0-8.797 5.766c-.032.03-.027.052.03.15.121.206.684 1.037 1.04 1.535l.347.486.142-.113 8.235-6.594zm-8.084.373c2.879-1.621 5.261-2.978 5.294-3.015.095-.108.083-.261-.03-.375-.065-.064-.115-.09-.174-.09-.046 0-.584.19-1.197.424a7090.994 7090.994 0 0 0-10.29 3.932c-.01.01.49 1.104.746 1.63l.255.525.081-.042c.045-.023 2.437-1.369 5.315-2.99zm49.737 1.154c.335-.631.704-1.375.688-1.387a8784.543 8784.543 0 0 1-6.21-2.81c-4.447-2.014-4.626-2.092-4.712-2.064-.202.067-.288.297-.165.44.047.054 10.076 6.299 10.128 6.306.007.001.13-.217.271-.485zm-52.304-5.257l13.107-3.631c4.429-1.228 8.084-2.248 8.122-2.268.207-.107.155-.483-.074-.531-.044-.01-5.233 1.014-13.487 2.66-10.575 2.11-13.417 2.685-13.423 2.718-.014.07.247 1.246.466 2.097.097.378.1.383.167.369.037-.008 2.343-.644 5.122-1.414zm57.9.91c.243-.886.5-1.957.473-1.984a4618.74 4618.74 0 0 0-10.648-2.29c-5.852-1.255-10.772-2.31-10.934-2.346-.25-.054-.305-.059-.373-.03-.243.103-.264.428-.035.524.07.03 21.3 6.625 21.36 6.636.008.002.079-.228.157-.51zm1.958-7.056c.03-.384.068-1.56.069-2.082v-.49l-.673.018c-.768.02-27.97.467-28.406.467h-.285l-.097.089c-.082.076-.096.105-.096.205 0 .1.014.129.096.205.063.057.124.088.174.088.042 0 1.173.066 2.514.147l3.997.24c5.707.34 12.162.728 16.842 1.011 2.993.181 5.532.33 5.644.333l.203.003.018-.233zm-57.23-.995c15.836-.595 14.697-.549 14.784-.6.24-.142.153-.492-.132-.529-.118-.015-22.835-.975-22.847-.965-.02.018-.038 1.597-.021 1.963l.02.44.203-.008 7.992-.3zm25.807-1.786c.068-.019 3.73-2.92 12.188-9.656 6.65-5.296 12.093-9.638 12.096-9.649.014-.039-1.073-1.328-1.668-1.98l-.158-.172-.13.118-11.39 10.517c-10.219 9.436-11.263 10.407-11.28 10.496-.021.118.049.268.15.32.081.04.071.04.192.006zm-6.45-.43c.066-.036.15-.183.151-.264 0-.044-.036-.103-.1-.165l-.1-.097-13.705-3.03a6010.796 6010.796 0 0 0-13.712-3.022c-.031.039-.395 2.1-.428 2.429l-.017.165 9.517 1.384a8533.645 8533.645 0 0 1 17.318 2.522c.828.124.966.134 1.075.077zm18.544-.409c14.097-1.58 17.999-2.02 18.008-2.029.013-.013-.12-.932-.198-1.372l-.094-.522a.955.955 0 0 0-.051-.198c-.018-.029-.168-.007-.791.114-.916.178-8.801 1.724-9.757 1.912-2.824.558-8.442 1.654-8.473 1.654-.056 0-.262.184-.262.234 0 .093.11.268.195.31a.57.57 0 0 0 .103.043c.01 0 .603-.065 1.32-.146zM49.37 37.09c5.015-1.285 22.326-5.717 22.516-5.764.139-.035.234-.072.234-.092 0-.08-.37-1.318-.604-2.018l-.255-.766-.284.102-18.884 6.8c-2.743.988-4.246 1.542-4.286 1.58a.302.302 0 0 0-.063.319c.03.071.179.18.252.184.014 0 .632-.155 1.374-.345zm-9.97.224a.3.3 0 0 0 .118-.133c.029-.068.266-3.786.936-14.642.494-8.002.89-14.559.88-14.569-.058-.058-2.907-.062-2.964-.004-.008.007.124 6.566.292 14.575.284 13.552.309 14.568.353 14.654.078.153.229.2.384.119zm-5.356-1.805a.305.305 0 0 0 .002-.327c-.032-.05-19.523-15.65-19.803-15.851-.042-.03-.084.014-.405.427-.755.97-1.647 2.245-1.601 2.287a6773.4 6773.4 0 0 0 10.65 6.736 9919.646 9919.646 0 0 1 10.696 6.762c.136.096.378.078.46-.034zm3.477-.114a.49.49 0 0 0 .06-.193c.001-.05-1.938-5.288-4.655-12.576a10873.38 10873.38 0 0 0-4.668-12.509c-.018-.029-1.342.524-2.001.837l-.244.115 5.507 12.123c3.029 6.668 5.533 12.152 5.565 12.187a.395.395 0 0 0 .297.13c.061-.006.092-.03.14-.114zM25.95 33.9a.372.372 0 0 0 .139-.263c0-.038-.033-.103-.074-.147-.048-.052-2.427-1.3-6.967-3.657a5510.378 5510.378 0 0 1-7.169-3.725l-.274-.146-.169.356c-.314.66-.943 2.144-.92 2.167.006.006 3.012 1.088 6.679 2.403 8.52 3.056 8.335 2.99 8.414 3.023.1.041.274.036.34-.011zm33.573-3.652c3.236-1.488 5.89-2.713 5.9-2.722.04-.041-.94-1.892-.993-1.871-.017.006-2.52 1.544-5.563 3.416-4.018 2.471-5.544 3.423-5.57 3.474-.045.084-.012.226.077.34.043.054.078.07.16.07.083 0 1.349-.573 5.989-2.707zm-26.241 1.4c.123-.055.159-.13.131-.269-.01-.048-2.569-3.585-6.42-8.875-3.523-4.837-6.42-8.81-6.44-8.831-.038-.041-.022-.053-.798.568-.365.291-.87.72-1.237 1.05l-.142.128 7.233 8.068 7.266 8.102a.728.728 0 0 0 .268.11.638.638 0 0 0 .139-.05zm9.568-1.429a.326.326 0 0 0 .13-.126c.03-.06 3.965-17.851 4-18.088.01-.059-2.069-.424-2.114-.371-.01.012-.563 4.148-1.227 9.191-1.06 8.04-1.204 9.18-1.174 9.25.031.077.18.182.262.184.02.001.075-.017.123-.04zm3.206-2.056c.04-.03 1.944-3.439 4.757-8.516 2.581-4.656 4.692-8.47 4.692-8.477 0-.045-2.278-1.094-2.406-1.108-.052-.006-.387.782-3.786 8.903-2.051 4.9-3.736 8.95-3.743 9.002-.017.116.033.218.121.244.105.031.293.006.365-.048zm4.514-.703c.07-.02.443-.376 1.573-1.502.815-.811 2.85-2.83 4.523-4.485 1.672-1.656 3.376-3.345 3.787-3.754l.746-.745-.12-.108a34.807 34.807 0 0 0-2.022-1.66c-.12-.087-.147-.098-.177-.066-.02.02-1.984 2.72-4.365 5.998-3.476 4.788-4.33 5.98-4.338 6.056-.015.14.116.285.261.29.022.002.082-.01.132-.024zm-13.944-3.844c.056-.06.077-.11.077-.18 0-.101-1.938-15.128-1.953-15.142-.023-.024-1.502.272-2.278.455l-.298.07.063.232 1.972 7.313 1.923 7.127a.477.477 0 0 0 .09.127c.064.068.096.081.201.081.106 0 .138-.013.203-.083z"/></svg>