<svg xmlns="http://www.w3.org/2000/svg" height="80" width="80"><path d="M38.908 79.985a39.883 39.883 0 0 1-21.07-6.684A40.235 40.235 0 0 1 6.7 62.16C1.852 54.89-.465 46.264.077 37.506a39.834 39.834 0 0 1 10.12-24.188A39.73 39.73 0 0 1 15 8.772C22.27 2.948 31.237-.13 40.535.004c1.434.021 2.152.06 3.493.194 8.378.83 16.271 4.302 22.591 9.938a40.09 40.09 0 0 1 11.075 16.44A40.145 40.145 0 0 1 79.75 44.48a39.75 39.75 0 0 1-6.447 17.681 40.128 40.128 0 0 1-17.43 14.566 40.065 40.065 0 0 1-16.965 3.258zm-3.164-13.91c.056-.31 3.35-22.036 3.344-22.054-.004-.013-1.357 4.37-3.006 9.74-1.65 5.37-3.006 9.768-3.014 9.772-.008.005-2.162-.751-4.788-1.68a601.643 601.643 0 0 0-4.79-1.684c-.02.007 12.166 5.987 12.208 5.99.016.002.037-.036.046-.084zm14.695-2.913c3.351-1.643 6.09-2.99 6.086-2.994-.004-.004-2.16.754-4.792 1.684-2.631.93-4.791 1.687-4.799 1.682-.008-.005-1.364-4.403-3.013-9.773-1.65-5.37-3.002-9.753-3.007-9.74-.005.015 3.163 20.893 3.345 22.042.01.065.03.098.052.093.019-.004 2.777-1.351 6.128-2.994zM33.798 50.786c2.84-4.952 5.163-9.01 5.163-9.018 0-.008-2.416 2.396-5.37 5.342-5.284 5.273-9.475 9.434-11.096 11.018-.454.443-.82.81-.814.814.014.01 6.781.84 6.883.843.066.003.363-.507 5.234-9zm21.058 8.585c1.9-.23 3.459-.423 3.465-.428.007-.005-.401-.414-.906-.909-1.614-1.58-6.046-5.98-11.302-11.22-2.81-2.802-5.084-5.053-5.054-5.001l5.183 9.034c2.82 4.918 5.134 8.941 5.143 8.942a981 981 0 0 0 3.471-.418zm-33.08-1.77c1.305-1.343 5.936-6.006 11.196-11.274a1062.84 1062.84 0 0 0 5.26-5.288c-.022 0-17.968 10.29-18.002 10.322-.013.011.164 1.561.393 3.444.229 1.882.416 3.445.416 3.472 0 .027.011.045.025.04.013-.005.334-.327.711-.716zm37.187.687c0-.019.187-1.58.416-3.47.232-1.91.407-3.445.394-3.458-.03-.028-17.933-10.296-17.985-10.315-.022-.008 2.36 2.391 5.294 5.33 5.443 5.454 9.984 10.029 11.176 11.259.366.377.674.686.685.686.011 0 .02-.014.02-.032zM18.148 51.73c-.93-2.632-1.684-4.792-1.674-4.802.01-.01 1.956-.613 4.325-1.34l9.754-2.997a564.88 564.88 0 0 0 5.423-1.68c-.03-.011-22.117 3.351-22.135 3.37-.008.007.076.196.187.419l2.999 6.117a1016.79 1016.79 0 0 0 2.806 5.704c.004-.004-.754-2.16-1.685-4.791zm45.214-1.69a2051.8 2051.8 0 0 0 2.819-5.766c-.005-.005 1.05.156-11.6-1.77-5.777-.88-10.524-1.598-10.548-1.598-.059.002-.268-.062 15.21 4.693a424.04 424.04 0 0 1 4.285 1.329c.01.01-.738 2.154-1.66 4.765-.923 2.61-1.684 4.77-1.692 4.8-.024.092.29-.543 3.186-6.454zM35.999 39.081c-.007-.006-4.398-1.357-9.76-3.003-5.36-1.646-9.755-3-9.765-3.01-.01-.01.743-2.17 1.674-4.801.931-2.631 1.69-4.787 1.685-4.791-.004-.004-1.282 2.592-2.84 5.77-3.42 6.976-3.167 6.455-3.153 6.469.007.006 4.128.637 9.16 1.403 5.03.766 9.987 1.521 11.014 1.68 1.79.275 2.01.307 1.985.283zm19.177-1.684c6.036-.918 10.98-1.675 10.986-1.682a1.003 1.003 0 0 0-.094-.231 3250.769 3250.769 0 0 0-5.897-12.01c-.004.004.753 2.16 1.683 4.792.93 2.632 1.684 4.793 1.674 4.803-.01.01-4.362 1.35-9.672 2.98-5.31 1.631-9.702 2.982-9.761 3.004l-.107.039.107-.012c.059-.007 5.045-.764 11.08-1.683zm-4.34-3.63c4.903-2.81 8.924-5.12 8.937-5.131.02-.019-.8-6.928-.827-6.957-.005-.007-.36.347-.79.786-1.497 1.533-5.728 5.796-11.06 11.142-2.956 2.964-5.33 5.362-5.274 5.33l9.015-5.17zm-17.892-.125c-5.303-5.315-9.554-9.596-11.071-11.15-.443-.454-.81-.82-.816-.814-.006.007-.2 1.572-.43 3.478-.35 2.875-.415 3.47-.385 3.489.187.115 17.965 10.309 17.982 10.31.013.002-2.363-2.39-5.28-5.313zm20.952-8.207a986.472 986.472 0 0 1 3.654-3.608c.418-.407.763-.75.767-.761.004-.012-.2-.046-.453-.077l-3.47-.421c-1.761-.215-3.017-.356-3.03-.342-.016.017-10.25 17.852-10.343 18.025-.008.015 2.234-2.217 4.983-4.96 2.75-2.743 6.3-6.278 7.892-7.856zm-20.083 3.798a3837.85 3837.85 0 0 0-5.174-9.007c-.017-.018-2.096.226-6.607.776-.195.024-.35.052-.347.063.004.011.32.323.701.694 1.215 1.182 9.259 9.173 12.974 12.89a481.856 481.856 0 0 0 3.595 3.577c.005-.005-2.309-4.052-5.142-8.993zm3.6-4.345a7467.524 7467.524 0 0 0-1.687-11.068c-.008-.006-12.261 6.009-12.28 6.028-.01.01.017.005.06-.012.252-.096 9.57-3.387 9.573-3.38.003.003 1.354 4.402 3.003 9.774 1.65 5.372 3.002 9.757 3.007 9.745.004-.013-.75-5.002-1.676-11.087zm6.534 1.256c1.631-5.31 2.974-9.663 2.984-9.673.01-.01 2.17.743 4.802 1.674 2.631.931 4.787 1.69 4.791 1.685.006-.005-8.99-4.423-12.008-5.898-.12-.059-.225-.101-.232-.094-.014.014-3.378 22.086-3.373 22.14.003.044-.294 1.006 3.036-9.834z"/></svg>