<svg xmlns="http://www.w3.org/2000/svg" height="80" width="80"><path d="M38.59 79.975a39.827 39.827 0 0 1-22.44-7.865A40.231 40.231 0 0 1 4.876 59.152c-4.98-9.13-6.2-19.83-3.412-29.907a40.052 40.052 0 0 1 5.497-11.8 40.233 40.233 0 0 1 14.124-12.7c.2-.108.694-.362 1.1-.565C29.05.748 36.798-.613 44.534.254a39.797 39.797 0 0 1 20.498 8.543 40.222 40.222 0 0 1 8.597 9.532 40.526 40.526 0 0 1 3.808 7.552 40.149 40.149 0 0 1 2.282 18.88c-1.347 11.416-7.611 21.737-17.163 28.278a40.167 40.167 0 0 1-10.008 4.95 40.135 40.135 0 0 1-13.958 1.986zm2.726-14.5a.551.551 0 0 0 .099-.088c.044-.056.042-.231-.004-.303a34.386 34.386 0 0 1-.528-1.621c-.002-.012-.013.027-.026.086-.012.059-.023.483-.023.941l-.002.834.095.098c.08.083.114.098.209.098.063 0 .143-.02.18-.045zm-2.79-.07c.18-.096.318-.412.199-.458-.03-.012-.035-.028-.016-.064.018-.032.014-.068-.011-.114-.051-.092-.048-.104.019-.087.057.015.057.012.039-.237-.061-.82-.208-1.413-.753-3.042-.325-.97-.336-1.008-.468-1.73-.158-.862-.28-1.33-.435-1.663l-.111-.239-.084.043a1.386 1.386 0 0 0-.092.049.578.578 0 0 0 .044.137c.135.344.213.825.3 1.848.066.77.077.834.318 1.93.336 1.523.4 2.1.322 2.915-.034.352-.017.465.088.6.135.17.432.222.64.112zm8.016-.16a.471.471 0 0 0 .266-.404c.01-.128.001-.155-.12-.353-.24-.393-.506-.878-.92-1.677-.526-1.015-.657-1.251-.965-1.743a13.14 13.14 0 0 0-.5-.722c-.016-.017-.225.084-.225.11 0 .013.041.105.09.204.245.49.518 1.26.875 2.473.356 1.21.556 1.782.677 1.934.202.256.51.322.822.178zm-10.968-.064c.126-.084.208-.175.2-.22-.041-.21-.04-.218.025-.218.055 0 .066-.02.092-.155.128-.661.108-.927-.142-1.937-.128-.516-.175-.82-.175-1.12v-.248h-.08l-.101-.002c-.011-.001-.043.074-.072.167-.044.15-.053.296-.068 1.203l-.016 1.032-.086.246a5.8 5.8 0 0 1-.196.483c-.1.21-.11.25-.097.378.02.188.087.297.23.373.146.077.385.085.486.018zm12.944-.328c.177-.102.309-.465.223-.614-.019-.033-.146-.28-.283-.55a9.316 9.316 0 0 0-.753-1.263c-.188-.262-.564-.714-.593-.714a.284.284 0 0 0-.09.054l-.069.054.128.274c.308.66.47 1.177.646 2.058l.104.523.11.099c.175.157.391.186.577.08zm-5.295-.198a.746.746 0 0 0 .162-.168c.11-.19.138-.818.05-1.18-.066-.278-.103-.371-.41-1.019a11.34 11.34 0 0 1-.676-1.716l-.368-1.153c-.27-.846-.49-1.375-.781-1.878a29.994 29.994 0 0 0-1.108-1.61 4.347 4.347 0 0 0-.317-.36l-.15-.147-.072.071-.071.072.095.105c.146.161.343.465.607.936.133.235.296.518.364.63.185.305.43.829.549 1.18.15.439.246.808.432 1.668.318 1.463.405 1.772.744 2.618.285.71.309.838.239 1.26-.04.242-.043.309-.016.394.075.234.262.381.487.383.101.001.147-.015.24-.086zm-9.94-.247c.123-.072.241-.273.345-.585.32-.953.367-2.016.173-3.895-.028-.28-.065-.648-.08-.818-.042-.445-.037-.43-.14-.411a.316.316 0 0 0-.104.033c-.009.009-.03.42-.048.915-.08 2.3-.248 3.165-.79 4.061-.083.137-.097.183-.097.323 0 .143.01.175.085.266a.6.6 0 0 0 .168.141c.106.049.385.032.488-.03zm17.243-.044c.27-.14.335-.435.135-.62a7.287 7.287 0 0 1-.15-.141c-.128-.126-.393-.58-.696-1.19-.334-.673-.505-.936-.96-1.479-.33-.395-.344-.407-.404-.37-.029.02-.053.045-.053.057 0 .013.115.216.257.45.359.597.464.835.737 1.659.47 1.42.608 1.656.973 1.662a.416.416 0 0 0 .16-.028zm-19.784-.694c.126-.036.193-.105.404-.416.52-.767.733-1.445.98-3.111.053-.354.133-.855.178-1.113.093-.53.09-.663-.014-.952-.084-.23-.097-.243-.201-.19a.454.454 0 0 0-.083.05l.04.137c.068.223.051.406-.069.772-.06.182-.21.685-.336 1.12-.267.92-.416 1.346-.618 1.77-.184.387-.392.7-.642.967-.258.276-.314.47-.203.71.06.132.13.196.263.244a.403.403 0 0 0 .301.012zm9.11-.271c.127-.036.273-.174.296-.282a.578.578 0 0 1 .041-.124c.016-.029.01-.2-.015-.469-.15-1.587-.63-3.162-1.71-5.627a38.97 38.97 0 0 1-.42-.99 8.21 8.21 0 0 0-.22-.51c-.094-.186-.352-.578-.421-.641-.043-.039-.053-.037-.12.017l-.072.06.097.147c.147.226.29.548.399.9.054.176.211.67.349 1.098.872 2.708 1.105 3.817 1.128 5.372.009.595.017.693.061.794.104.234.334.33.607.255zm-10.573-1.134a.875.875 0 0 0 .19-.156c.065-.076.069-.09.03-.117-.06-.043-.056-.05.065-.13.115-.076.182-.19.37-.633.22-.52.412-1.149.543-1.784.03-.147.133-.744.229-1.327l.174-1.058.307-.913c.324-.963.427-1.376.46-1.844l.017-.262h-.319l-.032.224c-.064.44-.234.895-.75 2.002-.32.685-.367.816-.678 1.864-.547 1.846-.77 2.349-1.487 3.347-.121.169-.145.322-.074.479.158.35.627.5.955.308zm24.54-.131c.218-.147.264-.354.14-.629a2.882 2.882 0 0 1-.13-.448c-.084-.398-.126-.506-.362-.92a20.231 20.231 0 0 0-2.395-3.347c-.384-.436-1.091-1.163-1.149-1.181a.095.095 0 0 0-.097.024c-.048.048-.068.015.227.368.837 1.001 1.733 2.379 2.359 3.625.487.97.597 1.276.638 1.764.023.277.096.564.162.64.14.162.444.213.607.104zm-2.022-.172a.465.465 0 0 0 .223-.397c0-.106-.04-.206-.245-.614a46.065 46.065 0 0 0-1.185-2.176c-.336-.572-.952-1.562-.984-1.582-.013-.008-.06.007-.105.034l-.08.048.16.361c.19.427.612 1.477.79 1.97.21.58.683 2.005.683 2.059 0 .064.061.182.125.24a.53.53 0 0 0 .618.057zm-5.05-.575a.57.57 0 0 0 .205-.128c.137-.137.21-.414.117-.45-.062-.023-.133-.172-.094-.196.064-.04-.681-1.635-1.25-2.678-.804-1.47-1.92-3.16-3.146-4.771a11.007 11.007 0 0 0-.405-.516.367.367 0 0 0-.088.059l-.075.06.095.14c.192.284.83 1.314 1.138 1.84 1.225 2.086 2.066 3.89 2.7 5.792.211.634.272.745.452.826.128.058.203.063.351.022zm8.861-.42a.496.496 0 0 0 .251-.3c.06-.197.007-.305-.413-.856-.607-.796-1.085-1.238-1.515-1.398-.185-.07-.403-.122-.423-.102a.33.33 0 0 0-.03.105c-.013.086-.008.094.102.148.304.148.602.487.847.963.154.301.49 1.094.49 1.158 0 .073.11.222.197.268a.51.51 0 0 0 .494.015zm-30.211-.446c.085-.072.143-.227.225-.606.084-.393.254-.874.457-1.295l.185-.381-.178.187c-.34.359-.684.855-1.012 1.46-.179.328-.196.454-.083.588.062.075.118.097.271.107.033.002.093-.024.135-.06zm9.966-.108a.564.564 0 0 0 .292-.29c.07-.154.067-.188-.038-.537-.214-.708-.287-1.288-.391-3.131-.042-.735-.045-.751-.131-.75-.04 0-.084.009-.1.02-.015.01-.06.297-.1.636l-.138 1.153c-.123 1.011-.15 1.614-.095 2.172.033.34.084.492.207.615.143.143.322.184.494.112zm8.56-.603c.087-.078.088-.082.088-.315v-.237l-.44-.805c-.822-1.5-1.098-1.977-1.487-2.561-.31-.468-.695-.993-.726-.992a.195.195 0 0 0-.08.04c-.049.036-.04.059.185.515.285.578.466.988.725 1.644.209.53.61 1.628.74 2.024.084.254.186.437.31.556.232.22.524.276.686.13zm4.415-.187a.465.465 0 0 0 .265-.469c-.044-.383-.523-1.317-1.14-2.216a280.26 280.26 0 0 0-1.174-1.686c-.01-.014-.172.085-.172.106 0 .01.15.33.332.712.638 1.332.914 2.007 1.067 2.607.042.168.077.353.077.412 0 .27.147.524.338.585a.619.619 0 0 0 .407-.05zm9.423-.198c.234-.124.346-.464.22-.668-.055-.09-.098-.134-.471-.48a15.57 15.57 0 0 1-.667-.715c-.508-.573-.486-.557-.62-.457-.05.037-.05.04.006.149.031.061.16.374.287.695.292.742.542 1.253.675 1.38.173.165.374.199.57.096zm-35.071-.387a.315.315 0 0 0 .122-.185c.035-.16.09-.307.293-.789.502-1.193.93-1.895 1.528-2.51.26-.268.262-.271.209-.32-.047-.042-.063-.044-.119-.014-.16.086-.566.416-.855.697-.625.605-1.09 1.227-1.615 2.16-.1.178-.217.383-.261.456-.106.177-.095.325.035.458.16.166.487.189.663.047zm5.415-.113c.19-.086.24-.183.33-.634.142-.716.323-1.225.89-2.51.328-.744.454-1.04.454-1.069 0-.02-.121-.08-.16-.08-.014 0-.163.207-.332.462-.17.254-.463.692-.653.972-.698 1.03-1.174 1.935-1.226 2.33-.056.423.314.703.697.529zm-3.522-.644a.43.43 0 0 0 .125-.157c.026-.059.243-.405.482-.77.24-.364.43-.665.426-.67-.013-.01-.931.702-1.168.906-.106.091-.22.184-.252.207-.043.03-.062.077-.071.177-.016.16.017.234.135.306a.29.29 0 0 0 .323.001zm28.388-.922a.49.49 0 0 0 .228-.575c-.068-.24-.296-.379-.564-.342l-.13.018-.067-.135c-.266-.524-1.38-1.995-1.826-2.413-.193-.18-.285-.231-.379-.208-.068.017-.1.135-.05.177.019.016.128.2.242.41.705 1.288 1.186 2.039 1.643 2.56.1.114.198.245.217.291a.583.583 0 0 0 .231.247c.095.053.338.037.455-.03zm-19.628-.119a.87.87 0 0 0 .148-.162c.067-.094.081-.147.1-.36.012-.137.052-.503.089-.813.238-1.99.258-3.415.063-4.466l-.033-.174-.019.376c-.064 1.256-.358 2.606-.938 4.301-.135.397-.245.763-.247.824a.61.61 0 0 0 .277.487c.104.056.147.063.305.053.125-.009.206-.03.255-.066zm21.88-.32c.238-.12.365-.292.365-.493 0-.19-.066-.28-.36-.502-.365-.275-.578-.45-1.41-1.16-.853-.725-1.014-.856-1.446-1.175-.35-.26-.782-.541-.828-.541-.015 0-.058.04-.095.088l-.067.088.252.236c.376.352.845.89 1.675 1.921 1.106 1.374 1.228 1.504 1.478 1.58a.735.735 0 0 0 .436-.042zm-33.955-.104c.155-.065.215-.138.373-.455.261-.523.651-1.071 1.327-1.865l.759-.899c.586-.697 1.854-1.95 3.008-2.974.484-.43 1.568-1.483 1.568-1.524 0-.012-.096.051-.214.14-.117.09-.386.273-.597.408-1.82 1.161-3.125 2.234-4.255 3.496a42.15 42.15 0 0 1-.985 1.032c-.727.741-1.046 1.106-1.311 1.502-.333.498-.388.66-.296.879.109.26.365.367.623.26zm36.239-.698c.178-.085.213-.287.092-.536-.074-.154-.12-.196-1.005-.917-1.458-1.187-2.07-1.64-2.933-2.175l-.224-.139-.05.06a.292.292 0 0 0-.052.077c0 .009.117.118.261.244.456.399.96.88 1.344 1.286.509.536 1.41 1.532 1.553 1.716.211.27.485.422.768.425.09 0 .195-.017.246-.041zm-30.485-.16c.055-.038.1-.08.1-.095 0-.014.143-.24.318-.502.454-.678.709-1.11.945-1.602.19-.394.318-.69.285-.657a7.506 7.506 0 0 0-.18.269c-.34.52-.803 1.063-1.498 1.763-.371.374-.434.45-.447.536a.307.307 0 0 0 .182.316c.125.054.182.049.295-.028zm32.954-.144c.38-.172.397-.651.03-.894a6.404 6.404 0 0 0-.93-.485c-.464-.201-.44-.196-.504-.096l-.054.085.188.218c.19.22.611.829.611.885 0 .07.14.227.247.28.14.07.268.073.412.008zm-11.553-.391a.537.537 0 0 0 .23-.336.593.593 0 0 0-.038-.262c-.048-.15-.159-.299-1.007-1.36-.524-.657-.968-1.194-.987-1.193a.229.229 0 0 0-.095.047l-.061.047.62 1.42c.34.782.632 1.45.65 1.484.094.192.458.272.688.153zm-28.641-.58a.426.426 0 0 0 .108-.144c.02-.049.23-.382.464-.742.496-.757.488-.745.435-.704l-.454.348c-.229.175-.5.391-.604.48-.103.09-.233.197-.288.239-.11.083-.169.232-.14.35.01.037.06.104.11.149.113.1.26.109.369.024zm15.566.005a.442.442 0 0 0 .248-.279c.054-.181.098-.666.097-1.064-.003-.651-.1-1.14-.456-2.28a75.929 75.929 0 0 1-.34-1.127 7.777 7.777 0 0 0-.23-.695c-.068-.146-.38-.486-.443-.484-.018 0-.054.03-.08.068-.049.066-.048.067.072.22.154.196.192.289.231.57.018.125.087.547.153.938.252 1.481.256 1.514.26 2.186.003.66-.015.8-.16 1.224-.054.16-.06.207-.038.324.069.36.376.54.686.4zm10.363-.234a.446.446 0 0 0 .212-.44c-.01-.102-.06-.206-.247-.513-.567-.927-1.258-1.792-2.638-3.3l-.362-.396-.078.057c-.044.03-.074.07-.067.086.006.017.142.23.3.473 1.089 1.664 1.675 2.697 2.063 3.634.13.314.192.388.385.46.13.047.283.026.432-.061zm-20.156.028a.524.524 0 0 0 .172-.088c.022-.024.156-.142.297-.262.578-.495 1.02-1.051 1.585-1.994.284-.475.48-.82.48-.85 0-.013-.035-.044-.078-.07l-.077-.045-.363.409c-.855.963-1.523 1.533-2.252 1.922-.14.075-.274.158-.299.185a.51.51 0 0 0-.07.19c-.048.25.055.482.262.591.123.065.175.066.343.012zm15.137-.323a.468.468 0 0 0 .19-.206c.061-.122.063-.138.03-.282-.096-.427-1.287-2.462-2.168-3.706-.467-.66-1.316-1.77-1.369-1.79-.01-.004-.05.02-.09.054l-.073.06.196.323c.601.989 1.369 2.455 1.826 3.485.3.677.713 1.706.713 1.776 0 .089.156.276.276.333.148.069.306.053.47-.047zm-2.99-.174a.712.712 0 0 0 .248-.243c.031-.06.034-.154.013-.537-.052-.973-.24-1.496-1.114-3.106-.18-.332-.416-.775-.523-.985-.221-.432-.351-.587-.612-.726l-.165-.088-.041.08a.55.55 0 0 0-.042.093.8.8 0 0 0 .132.11c.184.134.274.29.427.738.073.214.241.673.374 1.02.383 1.002.551 1.563.621 2.074.037.264.038.744.002.931a.567.567 0 0 0 .308.619c.123.056.285.064.372.02zm20.055-.208c.104-.075.219-.29.218-.411-.002-.315-.496-.748-1.655-1.451-.615-.374-2.417-1.36-2.484-1.36-.02 0-.108.162-.094.173l.41.312c1.684 1.271 2.755 2.195 2.828 2.439a.66.66 0 0 0 .309.338.581.581 0 0 0 .468-.04zm2.756-.525a.61.61 0 0 0 .287-.996c-.132-.157-2.04-1.388-3.311-2.137-.452-.267-1.783-1.012-1.807-1.012-.014 0-.153.245-.143.253l.344.257c.95.71 2.056 1.646 3.308 2.796.321.296.622.584.667.642a.628.628 0 0 0 .454.234.844.844 0 0 0 .201-.037zm-42.23-.2c.1-.044.254-.192.254-.242 0-.012.2-.17.445-.35.753-.557 1.386-1.07 2.976-2.413 1.986-1.678 3.275-2.604 4.538-3.263.19-.1.35-.184.356-.19.007-.005-.008-.05-.032-.102l-.045-.092-.195.083c-1.696.719-3.098 1.585-5.923 3.66-1.524 1.118-1.982 1.444-2.552 1.815-.25.163-.41.321-.47.463a.525.525 0 0 0 .245.65c.082.046.282.037.403-.018zm12.558-.02a.742.742 0 0 0 .155-.172l.221-.323c.46-.665.688-1.397.976-3.135.046-.273.12-.689.165-.924.095-.497.095-.742 0-.98-.089-.226-.09-.227-.188-.176a.28.28 0 0 0-.084.054c0 .007.018.081.04.166.022.085.04.195.04.243 0 .049-.102.405-.226.793-.125.387-.307.957-.405 1.267-.366 1.152-.691 1.788-1.154 2.252-.244.245-.312.413-.254.63.037.136.192.314.305.349a.61.61 0 0 0 .409-.044zm18.162-.194c.21-.095.302-.274.273-.53-.018-.163-.077-.23-.687-.792-.716-.66-1.308-1.144-1.78-1.456l-.154-.102-.053.064a.273.273 0 0 0-.054.085c0 .012.106.14.237.287.389.433.809 1.025 1.53 2.154.166.26.272.34.458.34.067 0 .17-.023.23-.05zm-26.187-.555c.1-.047.201-.162.527-.601.5-.675 1.142-1.393 1.808-2.022a45.23 45.23 0 0 1 1.502-1.373c.466-.383 1.229-.901 2.187-1.486.943-.577 1.34-.838 1.322-.869-.097-.165-.027-.182-.741.175-1.913.956-2.867 1.583-5.414 3.554-.684.529-.838.679-1.28 1.243-.155.2-.343.434-.416.522-.228.275-.253.4-.126.622.132.23.419.336.631.235zm29.48-.147a.744.744 0 0 0 .356-.297.551.551 0 0 0 .039-.206c0-.207-.077-.297-.698-.815a30.08 30.08 0 0 0-4.433-3.047l-.288-.163-.057.081c-.068.096-.094.065.298.359.796.597 1.75 1.393 2.495 2.08a33.146 33.146 0 0 1 1.685 1.695c.192.22.25.268.352.3.153.047.131.046.252.013zm9.73-.427a.426.426 0 0 0 .228-.249c.057-.137.051-.258-.018-.368a.585.585 0 0 1-.06-.113.534.534 0 0 0-.13-.103 2.66 2.66 0 0 1-.365-.357c-.322-.37-.39-.427-.822-.691a22.047 22.047 0 0 0-3.54-1.74 23.277 23.277 0 0 0-2.088-.68l-.156-.04-.025.067a.411.411 0 0 0-.025.087c0 .012.22.109.49.216 1.63.65 3.183 1.513 4.686 2.604.482.35.605.47.884.861.122.173.262.35.31.394a.498.498 0 0 1 .1.112c.029.087.361.087.531 0zm-32.703-.426a.617.617 0 0 0 .172-.16c.077-.109.08-.124.099-.534.034-.754.141-1.11.738-2.463.182-.415.332-.767.332-.784 0-.017-.035-.049-.078-.07l-.078-.041-.482.69c-.632.902-.778 1.132-.97 1.52-.254.514-.422 1.062-.437 1.426a.34.34 0 0 0 .065.244c.132.2.434.282.639.172zm16.7-.024a.455.455 0 0 0 .255-.432c0-.182-.07-.303-.237-.409a.43.43 0 0 0-.287-.077h-.165l-.337-.396c-.186-.217-.58-.697-.878-1.066-.582-.722-.989-1.203-1.269-1.502l-.176-.188-.073.071-.072.071.537.787c.313.459.69 1.056.904 1.43.444.776.681 1.13.949 1.414.35.371.571.449.849.297zm-4.776-.117a.668.668 0 0 0 .19-.093c.074-.057.087-.059.124-.022.037.037.043.017.057-.203.018-.278-.03-.443-.145-.505a.637.637 0 0 1-.155-.209c-.496-.955-1.443-1.989-2.437-2.66l-.3-.202-.054.065a.28.28 0 0 0-.055.085c0 .01.127.144.284.295.499.48.808.91 1.432 1.99.196.34.385.657.421.705.055.074.067.122.07.302.005.206.009.216.101.309.084.083.25.169.334.172a.792.792 0 0 0 .133-.029zm-23.758-.446c.103-.063.145-.117.257-.33.373-.707.829-1.14 2.267-2.15.347-.243.736-.522.866-.62.32-.243.417-.288.653-.306l.197-.014.017-.092c.01-.05.009-.1-.001-.11a1.3 1.3 0 0 0-.292-.018c-.317.001-.38.023-.93.328-.185.102-.607.328-.94.502-1.224.642-1.67.934-2.149 1.408a6.426 6.426 0 0 0-.674.828c-.083.126-.043.383.081.523.146.165.427.187.648.051zm46.168-.665a.747.747 0 0 0 .385-.376c.076-.154.084-.19.072-.34a.688.688 0 0 0-.243-.495c-.15-.138-.175-.15-.435-.22-.452-.122-1.2-.373-2.442-.82a94.755 94.755 0 0 0-1.636-.577c-.822-.267-2.08-.59-2.168-.556-.034.013-.12.304-.097.324.006.006.156.067.333.138.756.299 1.621.736 2.924 1.476 1.825 1.036 2.548 1.417 2.804 1.476a.892.892 0 0 0 .503-.03zm-9.53-.348c.202-.06.38-.206.457-.37a.68.68 0 0 0 .013-.547c-.057-.125-.319-.389-.444-.448-.147-.07-3.744-1.544-3.766-1.544-.023 0-.177.266-.16.279l1.042.797c.568.435 1.313 1.007 1.656 1.272.344.265.675.508.737.542.132.07.279.076.466.02zm-38.447-.95c.059-.027.27-.197.47-.378.821-.745 1.347-1.144 2.387-1.808 1.735-1.109 2.157-1.316 4.387-2.157 1.078-.406 1.1-.417 1.094-.502-.003-.04-.016-.084-.03-.097-.014-.014-.193.021-.437.087-2.069.557-3.292 1.043-5.886 2.34-1.081.54-1.308.677-1.757 1.066-.155.134-.4.342-.544.463-.327.273-.392.385-.345.59.05.217.197.377.387.422.131.031.158.029.274-.025zm29.944-.173c.25-.117.346-.325.28-.604-.024-.098-.055-.152-.11-.191a11.04 11.04 0 0 1-.585-.61c-1.16-1.267-1.445-1.477-3.505-2.587-.715-.385-1.06-.58-1.361-.764l-.154-.095-.053.064c-.03.035-.053.076-.052.09.001.054.476.41 1.13.85 1.162.783 1.65 1.167 2.288 1.805.45.449.588.616 1.129 1.36.382.525.5.652.658.71.132.047.182.043.335-.028zm-4.076-.42a.527.527 0 0 0 .303-.441c0-.251-.306-.785-.795-1.388-1.026-1.264-2.226-2.26-2.946-2.446-.256-.066-.283-.06-.283.063 0 .102.002.104.12.122.298.044.724.349 1.076.768.38.452.642.834 1.232 1.795.204.332.43.69.501.797.1.15.127.21.114.26-.036.144.133.398.31.468.091.036.275.037.368.002zm-5.322-.76c.152-.062.338-.337.34-.498 0-.036-.055-.217-.124-.402-.39-1.058-.787-1.865-1.265-2.563-.205-.3-.464-.63-.564-.72-.054-.048-.057-.048-.123 0-.038.027-.069.059-.07.07 0 .012.06.127.133.257.423.75.777 1.924.97 3.21.017.117.06.277.097.355.12.26.38.386.606.292zm28.053-.225c.13-.104.19-.23.19-.403 0-.234-.088-.345-.394-.498-.23-.115-.814-.303-1.376-.444-.829-.208-3.008-.626-3.05-.585-.008.009-.017.054-.019.1l-.004.085.63.222c1.386.488 2.477.915 2.925 1.144.24.124.324.182.38.263.148.217.517.276.718.116zM34.063 47.2c.248-.094.38-.448.248-.665-.03-.05-.05-.095-.044-.102.007-.006-.023-.048-.065-.093-.217-.232-.33-1.113-.315-2.441l.01-.77-.093-.014a.313.313 0 0 0-.1-.007c-.016.016-.25 1.084-.314 1.439-.117.638-.158 1.074-.143 1.515.014.442.048.604.186.89.068.14.11.194.182.23a.71.71 0 0 0 .448.018zm14.102 0a.567.567 0 0 0 .387-.578c-.031-.274-.185-.393-1.15-.881-.88-.447-1.893-.851-3.388-1.354-.441-.148-.81-.27-.82-.27-.019 0-.116.19-.103.201l.746.402c1.978 1.062 2.942 1.658 3.689 2.282.252.21.413.26.639.198zM31.46 47.01c.16-.098.222-.268.25-.676.045-.64.19-1.047.814-2.293l.434-.866-.067-.052c-.037-.028-.08-.05-.094-.05-.04.002-1.092 1.369-1.336 1.735a5.617 5.617 0 0 0-.565 1.072c-.098.272-.18.606-.183.74-.007.362.427.588.747.39zm-8.034-.082a.517.517 0 0 0 .218-.158c.061-.069.202-.177.313-.24.36-.207.697-.428 1.483-.972.497-.344.86-.575 1.02-.65.703-.327 1.593-.586 3.913-1.14l.581-.138-.023-.082a.37.37 0 0 0-.04-.098c-.018-.019-1.39.158-2.158.278-1.494.234-2.257.446-3.245.902-.924.426-1.606.802-2.095 1.154-.14.101-.315.223-.389.27-.175.114-.265.278-.243.447.044.342.332.526.665.427zm14.307-.267c.303-.084.445-.46.28-.741a1.708 1.708 0 0 1-.109-.282c-.178-.595-.64-1.21-1.825-2.428l-.452-.465-.08.048c-.045.026-.08.056-.08.066 0 .033.344.606.698 1.163.59.93.812 1.383.862 1.768.07.534.099.623.258.775.123.118.262.148.448.096zm17.295-.024c.23-.064.392-.25.361-.413-.023-.124-.198-.314-.355-.384-.145-.066-1.955-.564-2.706-.745a20.047 20.047 0 0 0-1.782-.348c-.495-.073-.51-.072-.511.054 0 .046.068.075.49.21.665.212 1.145.388 1.746.64.614.256 1.71.744 1.949.868.096.05.222.101.281.115.147.034.41.036.527.003zm-40.208-.657c.474-.083.814-.235 1.584-.71.747-.46 1.06-.612 1.637-.792 3.438-1.076 6.953-1.737 11.55-2.172.39-.037.886-.094 1.1-.127.466-.071 1.283-.084 1.604-.024.108.02.2.032.206.026a.58.58 0 0 0 .018-.13l.008-.12-.147-.033c-.659-.15-1.745-.167-3.165-.053-.48.039-1.023.078-1.207.087-.185.009-.746.063-1.248.12-.501.058-1.377.153-1.945.213-3.504.367-5.666.76-7.418 1.346-1.378.461-2.395 1.084-2.849 1.744-.163.237-.182.272-.265.493l-.065.173h.184c.101 0 .29-.019.418-.041zm43.255-.875a.539.539 0 0 0 .229-.421c0-.193-.164-.472-.248-.42-.053.033-.208-.01-.205-.057.005-.055-.313-.181-1.243-.493-2.133-.714-4.385-1.196-7.084-1.514-.765-.09-.742-.091-.756.026a.7.7 0 0 0-.007.093l.524.106c3.22.65 5.639 1.423 7.966 2.544.185.09.378.174.43.19a.52.52 0 0 0 .394-.054zm5.55-.342a.51.51 0 0 0 .239-.702c-.048-.092-.216-.24-.275-.241l-.368-.01c-.396-.01-.633-.07-1.722-.43-.941-.31-1.082-.336-2.466-.456l-.191-.017-.017.1a.326.326 0 0 0-.006.11c.005.005.273.075.596.154.881.217 1.256.358 2.045.767.77.4 1.393.67 1.72.748.159.038.33.029.444-.023zm-14.967-.031c.19-.072.311-.263.315-.495.005-.37-.149-.446-1.715-.844a29.925 29.925 0 0 0-4.414-.775c-.258-.027-.477-.042-.486-.033a.291.291 0 0 0-.032.1l-.016.085.368.085a32.38 32.38 0 0 1 4.016 1.2c.64.237 1.513.593 1.57.64.078.064.272.082.394.037zm16.902-1.116a.556.556 0 0 0 .173-.152c.14-.195.087-.5-.121-.682-.055-.048-.127-.087-.161-.087s-.133-.025-.22-.055a9.85 9.85 0 0 0-2.018-.469c-.63-.067-.676-.06-.676.105 0 .05.03.07.194.122.677.215 1.435.596 2.195 1.102.127.084.247.16.269.17.06.025.26-.004.365-.054zm-24.98-.558c.228-.068.375-.269.343-.468-.021-.133-.14-.347-.228-.412-.113-.083-1.072-.273-1.795-.355-.54-.062-1.29-.08-1.745-.042-.42.035-.714.084-.703.116a.506.506 0 0 1 .007.097v.076l.319.018c.852.048 1.893.32 3 .786.369.154.523.208.64.22a.828.828 0 0 0 .162-.036zm-25.262-.088a.578.578 0 0 0 .18-.18c.32-.491.989-.841 2.17-1.136.634-.158 1.635-.327 1.942-.327.156 0 .188-.02.188-.122 0-.061-.014-.093-.047-.103-.138-.04-.992-.076-1.521-.062-1.544.039-2.685.374-3.352.985-.268.246-.348.43-.285.654a.465.465 0 0 0 .252.3c.12.051.36.047.473-.01zm42.522-.114a.525.525 0 0 0 .27-.472c0-.225-.116-.359-.443-.51-.455-.21-1.02-.371-1.864-.53-.596-.113-2.278-.377-2.295-.36a.312.312 0 0 0-.019.099l-.007.088.885.302c1.709.582 2.292.834 2.801 1.208.267.197.33.228.453.228a.574.574 0 0 0 .22-.053zm3.47-.455c.254-.175.31-.5.121-.714a.683.683 0 0 0-.153-.13c-.153-.08-1.715-.53-2.645-.763-.62-.155-1.988-.46-2.067-.46-.021 0-.063.175-.046.192.011.011.183.08.383.153 1.104.405 2.94 1.216 3.742 1.654.248.135.28.146.42.139a.449.449 0 0 0 .244-.071zm-26.577-.03c.11-.04.272-.206.347-.352.16-.315.002-.75-.336-.92-.123-.062-.301-.04-.519.064-.286.137-.395.298-.395.585 0 .19.066.316.253.475.14.12.165.13.345.15.106.01.201.021.212.023.01.002.052-.009.093-.025zm12.234-.318a.506.506 0 0 0 .27-.39c.011-.096.025-.121.064-.121.08 0 .062-.031-.117-.205-.194-.188-.277-.227-.463-.22a1.529 1.529 0 0 1-.389-.066c-.792-.223-1.866-.286-2.817-.165-.278.035-.967.165-.988.186-.004.004 0 .05.01.1l.016.092.425-.012c.726-.021 1.182.046 2.44.357.446.11.828.2.85.2.02 0 .086.05.147.11.187.188.348.227.552.134zm-24.724-.768c.852-.385 1.806-.608 3.162-.74.239-.024.756-.036 1.516-.035.998 0 1.29.01 2.159.075 1.95.144 2.724.277 3.552.61.145.058.269.105.274.105a.485.485 0 0 0 .087-.173c-.072-.065-.724-.336-1.088-.453-.782-.253-1.436-.375-3.32-.62-1.573-.204-2.016-.238-3.086-.237-1.177.001-1.923.082-2.79.303-.697.178-1.166.368-1.296.526-.098.118-.109.218-.046.43.05.166.158.272.326.317.17.045.24.031.55-.108zm42.488.108c.465-.195.4-.817-.103-.987a3.453 3.453 0 0 1-.495-.273c-.49-.312-.556-.34-1.24-.538a23.503 23.503 0 0 0-4.572-.855c-.556-.049-1.837-.105-1.874-.082-.041.025-.034.202.008.202.083 0 .95.114 1.324.174 1.55.25 3.209.702 4.758 1.296.73.28.817.327 1.274.69.133.106.302.226.376.268a.657.657 0 0 1 .155.111c.03.049.266.045.389-.006zm-12.336-.092c.345-.176.371-.656.047-.855-.151-.092-1.086-.276-1.864-.366-.81-.093-3.22-.214-3.342-.167-.03.012-.045.047-.045.106v.088l.811.158c1.774.346 2.614.557 3.481.876l.443.162c.176.064.34.064.469-.003zm-11.402-.175c.162-.084.256-.283.235-.498-.024-.25-.237-.427-.514-.427-.08 0-.23-.02-.33-.044-.357-.084-1.093-.018-1.846.166-.583.142-1.737.481-1.75.514a.227.227 0 0 0 .005.105l.018.072.461-.018c.254-.01.588-.03.743-.044.704-.065 1.21-.083 1.55-.054.339.03.377.04.892.23.192.072.395.07.536-.002zm-25.853-.714c1.428-.645 3.272-1.116 5.235-1.336 1.31-.148 2.299-.189 4.52-.19 1.449 0 1.83.008 2.026.04.133.022.256.04.273.04.029 0 .1-.158.08-.178a3.086 3.086 0 0 0-.27-.076c-.258-.066-.522-.093-1.438-.148l-1.113-.067c-3.932-.239-6.597-.005-8.948.785-.912.307-.9.303-1.033.42-.108.094-.127.127-.14.235-.02.184.011.306.108.416.178.203.349.217.7.059zm20.58-.361a6.098 6.098 0 0 1 1.28-.428c.261-.055.432-.073.814-.083.568-.015.575-.016.683-.107.257-.217.246-.641-.022-.797-.162-.095-.272-.098-.628-.016a5.862 5.862 0 0 0-2.67 1.43l-.194.187.07.074.07.073.151-.097c.083-.053.284-.16.447-.236zm-1.69-.152c.119-.067.439-.239.712-.382.604-.316 1.073-.621 1.152-.75.139-.223.08-.535-.124-.668-.329-.214-.568-.125-.872.325-.154.228-.351.464-.734.878-.15.162-.33.36-.398.441l-.124.146.071.074c.04.041.078.07.087.066l.23-.13zm20.863-.035a.533.533 0 0 0 .239-.425c0-.209-.09-.331-.335-.452-.125-.061-.247-.077-1.657-.209a44.35 44.35 0 0 0-1.535-.13.304.304 0 0 0-.02.103l-.008.089 1.49.56c1.645.618 1.614.61 1.826.464zm-9.83-.11c.207-.164.249-.38.122-.624-.066-.128-.09-.149-.235-.207-.596-.239-1.577-.353-2.776-.324-1.306.032-2.147.216-2.55.557l-.093.08.076.063.077.063.151-.091c.535-.322 1.425-.287 3.291.129.266.06.656.142.868.184.314.062.393.087.426.135.065.093.19.135.375.125.138-.006.184-.022.268-.09zm-12.027-.202c.087-.327.252-.75.38-.98.187-.335.135-.59-.152-.74-.117-.062-.17-.075-.272-.065a.522.522 0 0 0-.396.265c-.059.106-.061.129-.045.45.015.306.09.862.15 1.102l.04.167c.015.065.03.074.119.074h.102l.074-.273zm17.267-.713a.408.408 0 0 0 .254-.254c.087-.209.026-.48-.136-.608-.196-.154-.49-.124-.675.068-.108.112-.12.117-.268.117-.193 0-1.002-.06-1.965-.146-.762-.068-1.578-.122-1.855-.122H45.5v.107c0 .06.005.108.012.108.006 0 .431.071.945.159.651.11 1.142.212 1.619.334.58.149.972.232 1.382.294.044.007.225.009.402.005.25-.006.349-.02.443-.062zm13.53-.284c.187-.078.338-.347.302-.538a.52.52 0 0 0-.223-.322c-.089-.06-.171-.076-.665-.134-1.239-.146-1.71-.112-2.24.161-.284.147-.3.168-.22.273l.047.06.228-.057c.296-.075.612-.058 1.05.055.307.079 1.085.368 1.297.481a.527.527 0 0 0 .424.021zm-32.304-.324l.044-.092-.73-.48c-1.322-.872-1.85-1.19-2.59-1.56a7.807 7.807 0 0 0-1.627-.62c-1.107-.309-1.721-.439-2.294-.485a31.32 31.32 0 0 1-.477-.04.805.805 0 0 0-.208.001c-.114.029-.247.17-.295.313a.465.465 0 0 0 .22.578c.108.063.139.069.312.056.14-.01.282.004.515.049.312.06.802.124 2.046.267.663.076.89.133 1.504.373.672.263 1.462.649 3.023 1.474.266.14.49.256.498.257.009 0 .035-.04.06-.09zm27.86-.258c.284-.108.398-.519.212-.763a.516.516 0 0 0-.588-.164.69.69 0 0 0-.195.161l-.106.125-.214-.055c-.703-.18-2.25-.365-2.89-.345-.265.009-.323.019-.387.067-.128.095-.105.225.04.225.037 0 .238.047.446.105 1.352.378 2.438.592 3.005.592.146 0 .25.014.3.04.09.047.27.052.377.012zm-21.997-.17c.35-.198 1.175-.602 1.511-.74a8.68 8.68 0 0 1 2.775-.647c.348-.026.446-.024.68.013.416.066.565.059.754-.037.17-.086.296-.247.296-.38a.587.587 0 0 0-.302-.481c-.144-.074-.385-.062-.502.025-.073.054-.11.058-.482.058-1.293 0-2.477.409-3.946 1.362-.435.283-1.1.76-1.1.79 0 .023.085.152.102.154.004 0 .1-.052.214-.116zm16.152-.054a.52.52 0 0 0 .237-.64c-.052-.124-.236-.281-.358-.304-.13-.025-1.437.054-2.05.123-.511.059-1.231.18-1.268.216-.013.012-.016.063-.006.114l.017.092.449.016c.526.018 1.097.099 2.005.284.692.14.86.158.974.099zm-25.353-.103c.013-.048.017-.096.008-.106-.023-.025-.802-.219-1.385-.344-1.928-.414-4.019-.674-7.002-.87-2.04-.135-2.398-.15-2.978-.12-.716.036-1.148.087-1.466.175-.138.038-.322.085-.408.105-.186.043-.236.083-.326.264-.11.22-.09.417.057.564a.545.545 0 0 0 .643.09c.299-.152.607-.214 1.62-.327.547-.062.706-.068 1.69-.068 3.95.001 6.83.205 9.096.642l.408.079c.01.002.03-.036.043-.084zm13.278-.034c.18-.022.572-.094.871-.159 1.498-.326 2.36-.444 3.254-.444.43 0 .748.03 1.621.149.65.09.688.092.823.053a.45.45 0 0 0 .332-.32c.073-.26-.007-.466-.228-.589l-.12-.067-1.2-.008c-1.143-.008-1.218-.005-1.546.052-.684.12-1.262.276-2.57.699a33.44 33.44 0 0 1-1.172.356c-.39.106-.433.123-.433.176 0 .05.023.143.037.143l.331-.04zm-5.23-.855c.306-.272.658-.58.783-.685.227-.19.676-.511.713-.511.06 0 .2-.149.241-.255.124-.325-.11-.684-.448-.684-.136 0-.329.088-.392.178a6.337 6.337 0 0 1-.221.273c-.275.325-.536.693-.97 1.373-.223.346-.41.645-.418.664-.012.032.09.138.136.14.012 0 .271-.222.576-.493zm-4.104.31c.029-.019.019-.057-.048-.19-.335-.664-.572-1.455-.95-3.18-.11-.502-.243-1.081-.295-1.288-.127-.509-.147-.696-.178-1.676a22.426 22.426 0 0 0-.041-.939c-.008-.051-.03-.266-.05-.477-.038-.42-.051-.453-.242-.608-.129-.104-.276-.106-.463-.009-.306.161-.354.337-.228.84.112.441.152.696.233 1.473.087.841.144 1.136.311 1.624.074.214.295.867.492 1.45.507 1.503.842 2.301 1.194 2.85.141.218.137.216.265.13zm1.952-.541c.544-1.379.736-2.136.7-2.749-.023-.371-.09-.595-.205-.673-.228-.157-.502-.138-.677.046-.127.133-.174.29-.131.44l.037.133c.004.015.033.082.066.148.167.344.112 1.41-.142 2.752-.036.193-.066.37-.066.393 0 .039.119.102.17.09.011-.002.123-.264.248-.58zm30.802.347a.602.602 0 0 0 .266-.245c.057-.11.047-.313-.023-.451-.177-.352-1.03-.701-1.957-.802-.334-.037-1.286-.037-1.685 0-.456.041-1.003.12-1.497.217l-.437.085.008.096.008.096.161-.003c.826-.017 1.777-.01 2.053.015 1.207.112 1.943.352 2.473.81.085.072.193.15.242.17a.607.607 0 0 0 .388.012zm-12.58-.929a.505.505 0 0 0 .212-.171c.06-.092.067-.122.05-.243-.032-.246-.128-.384-.323-.464-.092-.038-.147-.04-.402-.017-.163.015-.465.04-.671.057-.379.03-1.063.116-1.261.16l-.309.068c-.11.024-.313.075-.45.112l-.25.07.008.096.008.096.644.018c.735.02 1.254.083 2.146.262.284.057.405.048.599-.044zm5.75-.023a.54.54 0 0 0 .237-.298c.066-.239-.118-.556-.36-.623-.137-.037-1.863-.04-2.402-.002-.214.014-.552.045-.75.069-.423.049-1.4.218-1.426.246-.01.01-.012.059-.004.107l.013.087h.554c1.06.001 1.842.083 2.98.31.406.082.742.153.748.159.022.022.344-.02.41-.055zM39.004 35.7c.784-.65 1.295-.963 1.888-1.157.361-.118.445-.221.417-.513-.023-.238-.254-.401-.507-.359a.33.33 0 0 0-.146.059 2.711 2.711 0 0 1-.247.175c-.526.343-.995.816-1.589 1.603-.237.314-.245.328-.2.377.026.029.059.052.073.052.014 0 .154-.106.31-.237zm-8.68-.174a7.827 7.827 0 0 0-.533-.823c-1.464-1.965-4.04-3.58-8.137-5.1-1.427-.528-1.708-.613-2.473-.75-.475-.084-1.144-.086-1.393-.003-.375.125-.59.362-.554.609.032.207.286.469.458.47a.592.592 0 0 0 .346-.135c.106-.093.118-.094.654-.039.932.095 1.202.15 2.34.48 2.737.793 4.8 1.681 6.426 2.766.629.42 1.106.808 1.598 1.299.438.438.71.762.988 1.175l.166.25.08-.057c.078-.056.078-.057.034-.142zm-1.053-.087l.065-.07-.443-.435c-.964-.948-2.057-1.68-3.384-2.265-1.54-.68-3.28-1.106-5.228-1.283-.724-.066-2.404-.065-3.112.001a20.11 20.11 0 0 0-1.206.143c-.101.018-.304.189-.366.308a.592.592 0 0 0-.002.405c.05.121.237.281.352.303.063.012.263-.014.598-.078 1.21-.23 2.091-.313 3.316-.312 1.22 0 2.257.103 3.383.336 2.251.465 4.31 1.475 5.703 2.797.125.119.235.217.243.218.009 0 .045-.03.08-.068zm7.526-1.554c.384-.585.639-1.122.762-1.609.134-.528.136-.668.009-.818-.223-.265-.637-.242-.805.046-.066.113-.072.152-.092.58-.031.668-.14 1.052-.591 2.079-.38.865-.484 1.108-.475 1.116.005.004.044.025.087.048l.079.04.416-.593c.229-.327.503-.726.61-.889zM47.1 35.268c.205-.058.68-.21 1.056-.336 2.076-.698 2.936-.918 3.783-.967.27-.015.4-.005 1.033.082.586.08.839.101 1.32.113.578.013.598.012.72-.047a.489.489 0 0 0 .205-.185c.07-.108.079-.142.07-.285-.012-.207-.076-.299-.285-.41-.144-.077-.168-.082-.237-.052-.057.026-.39.034-1.364.036-1.201.003-1.31.007-1.623.062-.803.141-1.6.405-2.83.934-1.532.66-1.764.758-2.045.866-.292.111-.301.117-.285.185.022.094.033.11.074.11.02 0 .203-.048.408-.106zm-5.174-.494c.527-.264 1.4-.447 2.125-.446.287 0 .77.055.94.106.345.103.613-.1.584-.443-.016-.194-.094-.293-.275-.35-.13-.041-.188-.043-.556-.014-1.137.087-2.374.518-3.037 1.057-.067.055-.073.07-.046.122.04.076.052.075.265-.032zm-16.908-.27a.23.23 0 0 0 .006-.098c-.012-.04-.995-.304-1.725-.465-1.492-.33-2.79-.476-5.65-.635-.625-.035-.84-.019-1.513.11-.221.043-.514.098-.65.122-.287.051-.4.115-.474.264-.059.12-.067.349-.017.447.05.095.163.212.254.259.099.052.234.037.795-.087 1.106-.243 2.009-.336 3.781-.386 1.34-.039 1.768-.002 3.743.32 1.554.254 1.427.24 1.45.148zm39.127-.162a.63.63 0 0 0 .27-.336c.047-.176.01-.289-.154-.46-.145-.152-.146-.153-.445-.222-1.166-.268-1.403-.286-3.144-.23-1.644.052-2.402.136-3.189.352l-.21.058.015.093a.477.477 0 0 0 .023.102c.005.005.165-.027.357-.07l.348-.08 1.06.055c2.5.13 3.44.285 4.749.787.058.022.235-.005.32-.05zm-17.18-.45c1.086-.543 1.347-.654 1.741-.745.207-.047.459-.118.56-.157.167-.064.19-.082.248-.197.16-.316.003-.629-.341-.678a.326.326 0 0 0-.231.037c-.06.03-.115.072-.123.093-.008.02-.13.1-.273.175-.49.262-.893.54-1.664 1.151-.586.464-.538.415-.483.497.054.084.03.091.566-.177zm-8.413-.148c.35-.77 1.542-2.118 2.138-2.417.403-.202.529-.58.281-.845-.126-.134-.308-.18-.537-.134-.105.021-.452.341-.69.636-.244.301-.662.934-.865 1.31-.306.565-.571 1.232-.614 1.541l-.016.117h.104c.104-.001.105-.002.199-.208zm4.62-.745c.935-.236 1.39-.441 1.966-.89.232-.18.308-.297.309-.471 0-.23-.134-.388-.39-.463-.268-.078-.355-.022-.71.457-.275.371-.64.664-1.288 1.034-.214.123-.4.232-.413.243-.04.035.037.185.096.185.028 0 .221-.043.43-.095zm-10.418-.103l.06-.064-.095-.134c-.156-.216-.178-.298-.206-.754-.015-.23-.056-.77-.093-1.201-.132-1.559-.079-2.29.219-3.01.08-.194.092-.247.077-.35-.049-.327-.322-.533-.605-.457-.133.036-.31.194-.33.296l-.08.36c-.197.856-.167 1.509.134 2.884.067.302.185.86.264 1.24.08.385.17.746.203.814.056.116.33.44.372.44.01 0 .047-.029.08-.064zm9.046-.52c.485-.67.91-1.16 1.354-1.564.312-.284.528-.44 1.287-.927.611-.393 1.138-.795 1.243-.95.054-.079.061-.115.05-.258-.02-.269-.164-.43-.428-.478-.222-.042-.358.045-.61.387-.07.093-.319.335-.577.561-1.1.959-1.674 1.595-2.188 2.422-.18.289-.562 1.012-.562 1.062 0 .02.108.076.165.085.01.001.13-.151.266-.34zm-6.325.098a.966.966 0 0 0 .066-.037 1.021 1.021 0 0 0-.037-.176c-.057-.223-.038-.373.098-.77.06-.173.21-.645.336-1.048.293-.944.435-1.336.63-1.734.208-.427.393-.703.657-.979.12-.125.233-.267.252-.315.086-.215.01-.503-.166-.628-.072-.052-.121-.063-.28-.063-.212 0-.267.032-.401.228l-.214.309c-.45.645-.681 1.358-.938 2.896-.052.31-.137.793-.19 1.073-.052.28-.095.585-.095.678.001.223.123.596.195.596a.268.268 0 0 0 .087-.03zm-1.35-.284c0-.009-.033-.084-.073-.166-.096-.199-.096-.385-.001-1.13.04-.316.098-.805.128-1.085.09-.84.203-1.418.365-1.87.089-.25.283-.628.4-.782a.553.553 0 0 0 .052-.648c-.17-.3-.653-.305-.796-.008-.55 1.138-.613 1.587-.564 4.018.027 1.363.022 1.33.232 1.646l.101.151.078-.055c.043-.03.078-.063.078-.071zm22.59.032a26.626 26.626 0 0 1 2.173-.327c.338-.036.667-.047 1.395-.048 1.18 0 1.63.047 2.883.3.561.113.627.12.738.091a.554.554 0 0 0 .336-.244c.11-.212-.024-.605-.242-.709-.194-.092-3.198-.231-3.774-.174-.576.056-1.182.176-1.946.384-.497.136-2.052.609-2.076.631-.02.02.025.19.05.19.011 0 .22-.042.463-.094zm-6.002-.13c.59-.282 1.726-.562 2.903-.717.559-.073 1.519-.087 1.828-.027.219.042.342.027.47-.059.337-.228.296-.725-.072-.865-.173-.066-.833-.04-1.344.052-1.372.25-3.089.86-3.86 1.373-.342.227-.33.213-.255.293a.399.399 0 0 0 .073.067c.005 0 .12-.053.257-.118zm-3.293-.905c.582-.726.844-1.022 1.378-1.553.517-.516.746-.701 1.557-1.263.67-.465.832-.636.832-.882 0-.23-.206-.463-.44-.498a.324.324 0 0 0-.23.041c-.108.056-.815.712-1.516 1.409-.53.526-1.18 1.442-1.821 2.563a6.382 6.382 0 0 0-.285.529c0 .023.107.101.153.112.002 0 .17-.206.372-.458zm-19.546.42c0-.006-.112-.099-.248-.206a9.192 9.192 0 0 1-.49-.422c-1.443-1.353-2.921-2.41-4.52-3.231a38.764 38.764 0 0 1-1.18-.642c-1.046-.595-1.591-.85-2.128-.998-.308-.084-.378-.084-.544-.001-.265.132-.345.404-.195.66.094.158.223.226.56.291.63.123 1.265.37 2.641 1.034.236.114.629.3.873.415.632.295 2.064 1.146 3.363 1.997.655.43.98.629 1.45.891.409.228.418.232.418.213zm21.18-.34c.149-.088.438-.28.645-.426 1.354-.961 1.926-1.276 2.473-1.364.205-.033.286-.084.375-.236.077-.132.093-.33.036-.44a.516.516 0 0 0-.432-.296c-.143-.007-.266.03-.542.167-.468.232-.783.492-1.749 1.445-.457.45-.925.897-1.04.99a2.124 2.124 0 0 0-.207.183c0 .007.02.048.046.09.055.094.046.097.396-.112zM28.84 31.07l.063-.066-.07-.1c-.17-.237-.799-.968-1.177-1.366-.97-1.02-1.8-1.75-4.007-3.524-1.123-.902-1.845-1.499-2.297-1.897-.37-.327-.6-.427-.814-.356a.668.668 0 0 0-.324.271c-.123.237.045.578.329.67.056.017.24.143.41.278.7.56 1.47 1.124 2.71 1.986a86.197 86.197 0 0 1 2.428 1.743c.918.707 1.926 1.607 2.428 2.17.125.14.235.256.243.257.009 0 .044-.029.078-.066zm10.552-1.2c.866-.962 1.471-1.47 2.214-1.859.108-.056.225-.136.26-.177.126-.15.111-.47-.03-.64-.073-.085-.245-.187-.318-.187a.969.969 0 0 0-.4.166 7.84 7.84 0 0 1-.308.274c-.584.503-1.017 1.07-1.696 2.226l-.33.56.08.063c.042.035.08.063.082.063.003 0 .203-.22.446-.49zm7.323-.015c.1-.202.262-.482.362-.622.235-.33.928-1.026 1.55-1.558.266-.227.591-.517.724-.644.133-.128.267-.24.298-.25.04-.012.064-.054.087-.152.045-.197.039-.293-.03-.428a.461.461 0 0 0-.356-.255c-.271-.04-.342.01-.71.511-.13.177-.425.55-.657.83-.997 1.205-1.358 1.809-1.581 2.642-.073.272-.068.296.065.295.06 0 .088-.043.248-.369zm16.78.192a.505.505 0 0 0 .173-.168c.071-.111.078-.141.071-.313-.015-.358-.18-.467-.79-.523-.776-.071-1.514.013-3.172.364-1.287.271-1.914.352-2.553.33-.399-.015-.4-.014-.4.126 0 .057.019.065.234.104.687.126 1.583.126 2.904.001 1.08-.102 2.118-.108 2.634-.016.187.034.393.077.456.097.162.051.333.05.443-.002zm-21.066-.638c.64-.481 1.718-1.498 1.823-1.718a.665.665 0 0 0-.34-.899c-.219-.094-.413-.1-.59-.02-.13.06-.289.21-.289.275 0 .013-.017.042-.037.065-.021.023-.076.157-.123.297-.164.495-.617 1.35-1.014 1.913l-.147.21.115.118.115.117.136-.098c.075-.054.233-.171.351-.26zm-13.665.147c.063-.052.063-.052.013-.14a44.746 44.746 0 0 1-.28-.518c-.59-1.105-.614-1.143-1.386-2.092-2.042-2.512-3.188-3.772-4.357-4.788a1.005 1.005 0 0 1-.191-.203c-.015-.037-.074-.07-.184-.104-.282-.085-.473-.019-.608.21-.156.267-.03.566.354.84 2.212 1.583 4.523 3.97 6.285 6.492.137.196.258.355.27.355.011 0 .049-.023.084-.052zm9.274-.424c.358-.539.87-1.136 1.542-1.797.397-.39.433-.453.357-.633-.067-.162-.29-.233-.433-.14-.123.081-.942 1.352-1.263 1.96-.148.283-.425.899-.403.899.005 0 .095-.13.2-.289zm16.486.089c.845-.216 1.189-.316 1.956-.567.878-.287.989-.303 2.302-.333 1.172-.026 1.55-.06 1.985-.179.287-.078.289-.078.46-.033.16.041.324 0 .466-.117.12-.1.174-.217.174-.382 0-.207-.154-.415-.307-.415a.067.067 0 0 1-.058-.04c-.022-.057-.27-.103-.482-.09-.146.01-.268.046-.563.164-.587.236-.879.29-2.105.393-1.018.085-1.256.16-3.018.948-.28.126-.756.32-1.058.433-.302.112-.553.21-.56.215-.005.006-.002.048.008.093.013.058.034.083.07.083.03 0 .358-.078.73-.173zm-.234-1.249c.115-.103.22-.187.23-.187.012 0 .399-.177.86-.392 1.815-.847 2.637-1.154 3.478-1.3.4-.068.97-.07 1.26-.005.314.071.508.063.644-.027a.459.459 0 0 0 .214-.44c-.017-.207-.116-.319-.386-.438-.19-.084-.234-.093-.428-.088-1.275.03-3.388.865-5.07 2.002-.494.335-1.14.865-1.14.936 0 .033.08.127.108.127.01 0 .114-.084.23-.188zm-24.618-.18c0-.009-.089-.18-.198-.38-.551-1.013-1.052-2.087-1.25-2.68-.516-1.55-.802-3.242-.774-4.578.011-.518.014-.54.077-.626.052-.07.067-.127.074-.28.01-.225-.04-.351-.169-.43l-.227-.141c-.25-.157-.399-.12-.531.131l-.074.14.001.63c.003 1.321.249 2.66.766 4.172.44 1.287 1.011 2.428 1.882 3.76l.268.408.077-.055c.043-.03.078-.062.078-.071zm16.485-1.482c1.658-1.06 2.568-1.859 3.263-2.862.141-.204.182-.349.148-.529-.036-.192-.261-.363-.48-.364-.213-.001-.347.129-.567.548-.469.897-1.173 1.72-2.448 2.865l-.57.51.06.075a.304.304 0 0 0 .075.077c.009 0 .242-.143.519-.32zm-7.267-1.06c.666-.974.996-1.543 1.236-2.128.164-.402.16-.634-.012-.819a.468.468 0 0 0-.536-.11c-.212.09-.288.21-.342.544-.109.665-.314 1.248-.974 2.76-.204.47-.379.873-.388.897-.011.034.01.055.081.084l.097.038.245-.378c.135-.208.402-.608.593-.888zm-6.72 1.094c.043-.026.075-.053.071-.06a53.915 53.915 0 0 0-.097-.188c-.319-.612-.403-1.036-.529-2.67-.077-1.003-.087-1.28-.063-1.73.039-.744.076-1.025.36-2.722.109-.649.212-1.316.23-1.481.02-.188.046-.313.069-.332.048-.04.048-.241 0-.355-.054-.13-.265-.305-.386-.319-.272-.032-.421.077-.553.406-.088.222-.098.27-.11.585-.008.188-.056.844-.108 1.456-.123 1.457-.154 2.223-.12 2.892.034.654.075.962.243 1.855.242 1.289.298 1.514.48 1.95.099.236.388.759.42.759.008 0 .05-.02.093-.046zm19.236-.065c.095-.062.385-.241.646-.4.625-.38.857-.555 1.636-1.237 1.008-.883 1.37-1.175 2.17-1.751l.733-.53c.16-.114.417-.271.572-.348.34-.167.41-.244.43-.471a.489.489 0 0 0-.18-.446c-.31-.26-.783-.013-1.824.949-.2.184-.41.376-.47.426-.401.34-1.012.933-1.665 1.617-.943.989-1.137 1.17-1.82 1.715l-.549.436.054.076c.03.041.063.075.075.075.011 0 .098-.05.192-.111zm2.811-.348c.553-.252 1.16-.557 1.493-.748.616-.354 1.261-.64 2.388-1.06.383-.142.734-.282.779-.309.122-.075.211-.252.211-.42a.51.51 0 0 0-.503-.49.35.35 0 0 0-.202.05c-.039.027-.267.148-.506.268-.724.362-1.109.602-2.193 1.368-.324.229-.758.523-.964.655-.532.34-1.036.694-1.036.728 0 .034.076.149.099.149.008 0 .204-.086.434-.191zm-11.961-.124c.894-.713 1.69-1.791 2.472-3.346.178-.354.335-.66.35-.678.05-.062.01-.317-.07-.432-.087-.124-.191-.18-.384-.206-.248-.033-.482.137-.51.371a4.97 4.97 0 0 1-.174.57c-.599 1.701-1.149 2.735-1.91 3.591l-.158.178.062.066c.034.037.07.067.079.067.009 0 .118-.082.243-.181zm2.449-.358c.727-.46 1.335-.938 1.844-1.445.527-.525.737-.828 1.032-1.49.126-.283.037-.573-.213-.686a.497.497 0 0 0-.615.145c-.068.083-.081.128-.101.345-.02.208-.041.286-.13.473-.278.577-.96 1.42-1.89 2.336a7.158 7.158 0 0 0-.365.374c0 .016.112.138.127.138.006 0 .145-.086.31-.19zm-14.715-.108c.047-.016.084-.037.084-.047a3.6 3.6 0 0 0-.054-.218c-.076-.286-.176-1.48-.391-4.654-.05-.724-.07-1.238-.067-1.67.004-.667-.003-.707-.135-.828-.209-.189-.469-.185-.676.012-.15.143-.162.192-.155.676l.006.442.28 1.375c.347 1.693.339 1.652.455 2.42.161 1.07.244 1.506.379 1.992.062.227.167.53.182.53.004 0 .046-.014.092-.03zm20.607-.498c1.145-.728 1.99-1.377 2.674-2.06.584-.58.688-.717.703-.923.014-.19-.037-.32-.163-.416-.106-.08-.348-.14-.457-.113-.108.027-.281.195-.36.35-.337.665-1.362 1.825-2.511 2.84l-.522.461-.09.081.058.075c.033.041.074.07.093.062.018-.007.277-.167.575-.357zm-13.995.244c.034-.012.038-.077.027-.395a2.833 2.833 0 0 1 .057-.77c.039-.213.1-.582.138-.818.352-2.23.537-3.104.888-4.184.196-.603.551-1.418.8-1.837.165-.278.157-.502-.025-.684-.221-.221-.5-.22-.723.001-.099.1-.143.18-.253.462-.408 1.05-.669 2.13-.834 3.453-.089.706-.147 1.423-.231 2.83-.009.14-.028.381-.043.536-.049.503-.028 1.13.046 1.375.015.047.079.06.153.031zm4.817-.758c.153-.128.315-.26.362-.294.111-.082.15-.156.151-.288.002-.246-.259-.386-.475-.254-.048.03-.087.072-.087.094 0 .049-.02.08-.541.877-.22.335-.398.615-.398.623 0 .023.674-.494.988-.758zm-6.185.668c.012-.012.003-.115-.02-.23-.047-.221-.077-.588-.122-1.448-.066-1.286-.022-1.632.44-3.412.36-1.389.436-1.787.5-2.636.047-.631.104-.809.383-1.177.211-.278.228-.476.061-.728-.068-.104-.21-.187-.315-.187-.273 0-.504.215-.743.688-.18.359-.214.587-.272 1.887-.032.704-.06.93-.256 2.065-.208 1.203-.23 1.387-.246 2.092-.01.487-.005.7.028.939l.11.818c.083.631.134.901.22 1.173.065.207.069.212.139.195a.272.272 0 0 0 .093-.04zm-1.508-.131c.038-.016.034-.063-.034-.447a53.282 53.282 0 0 0-.403-2.012 3.914 3.914 0 0 1-.122-.858c-.039-1.046.274-2.456.891-4.008.29-.728.379-1.016.421-1.362.027-.217.025-.261-.015-.367a.488.488 0 0 0-.365-.309c-.232-.05-.409.029-.53.235-.07.118-.073.143-.075.473-.001.43-.059.694-.365 1.676-.204.653-.219.719-.323 1.422-.103.687-.11.778-.111 1.328-.002 1.095.184 2.035.79 3.99.071.227.09.26.14.26a.338.338 0 0 0 .1-.021zm-6.978-.68c0-.016-.117-.236-.26-.489a27.894 27.894 0 0 0-1.74-2.725 1.561 1.561 0 0 1-.177-.28c-.005-.028-.076-.09-.157-.14-.265-.157-.53-.102-.699.146a.338.338 0 0 0-.063.233c.006.221.105.393.429.738 1.08 1.156 1.953 2.017 2.408 2.377.221.175.259.195.259.14zm24.39-2.384c.33-.255.872-.693 1.204-.975.758-.644 1.175-.956 1.52-1.137.216-.113.29-.168.36-.265.159-.221.137-.489-.053-.66-.085-.078-.129-.095-.274-.11-.205-.023-.222-.015-.534.228-.313.244-.619.572-1.318 1.41a23.565 23.565 0 0 1-1.494 1.656l-.189.186.056.077c.03.043.07.072.089.065.018-.007.303-.221.634-.475zm-12.674-.064c.06-.418.179-.778.57-1.725.257-.624.313-.798.561-1.763.118-.457.258-.973.31-1.145.185-.608.467-1.234.748-1.666.08-.123.161-.27.18-.325.093-.282-.113-.586-.436-.644-.133-.024-.3.05-.419.186-.08.092-.086.107-.047.135.039.028.038.036-.01.08-.03.026-.054.069-.054.094 0 .028-.019.045-.046.043-.063-.005-.269.502-.422 1.04-.155.539-.254 1.064-.43 2.255-.145.984-.148 1-.36 1.71-.258.859-.349 1.272-.37 1.678l-.017.304.104-.009.103-.008.035-.24zm4.265-.273c.21-.258.413-.555.6-.882.092-.162.202-.353.244-.424.109-.183.108-.367-.001-.476-.067-.067-.1-.079-.216-.079-.23 0-.263.06-.43.763-.099.41-.218.738-.433 1.193a7.254 7.254 0 0 0-.158.344c0 .017.225-.234.393-.44zm6.187.01c.395-.3.585-.474 1.508-1.386.502-.495 1.012-.995 1.134-1.11.251-.237.338-.38.335-.55a.532.532 0 0 0-.275-.427c-.146-.079-.361-.074-.477.01-.092.067-.351.41-.737.972-.769 1.12-.93 1.352-1.155 1.65-.132.175-.349.445-.48.599l-.241.28.06.065c.034.036.072.065.085.065.013 0 .123-.075.243-.167zm-7.864-.966c.793-1.048 1.108-1.429 1.55-1.873.556-.558.965-.856 1.441-1.05.224-.091.34-.202.385-.368.058-.214-.066-.445-.29-.544-.236-.104-.434-.044-.828.25-.608.455-1.192 1.143-1.773 2.09-.261.425-1.16 2.021-1.16 2.06 0 .026.1.081.152.084.017.001.252-.29.523-.649zm5.508-.03c1.357-1.184 2.135-1.98 2.804-2.873.27-.36.33-.515.269-.698-.092-.277-.415-.434-.656-.32-.139.066-.209.158-.48.633-.331.582-.52.879-.903 1.418a35.397 35.397 0 0 1-1.687 2.128c-.04.046-.038.054.033.115.064.055.083.06.12.03.024-.018.25-.213.5-.432zm-1.462-.546c.201-.614.343-.908.715-1.482.382-.588.505-.804.601-1.053.11-.286.16-.51.16-.73 0-.217-.052-.33-.194-.417-.222-.136-.419-.125-.599.033-.155.136-.172.193-.172.58 0 .435-.043.592-.365 1.349-.348.818-.362.87-.452 1.665-.054.474-.054.524.005.54.132.034.13.035.301-.485zm-3.855-2.175c.204-.172.396-.396.664-.777.338-.478.5-.688.657-.846.14-.143.503-.385.791-.53a.48.48 0 0 0 .235-.217.6.6 0 0 0 .087-.218c0-.162-.141-.38-.3-.463a.659.659 0 0 0-.236-.038c-.131 0-.167.01-.18.047a.704.704 0 0 1-.07.122c-.047.07-.055.072-.098.034-.043-.039-.067-.02-.327.246a4.724 4.724 0 0 0-.363.41c-.113.165-.299.54-.494.997-.216.506-.377.81-.555 1.042l-.145.192.06.064c.034.036.075.065.091.065a.793.793 0 0 0 .183-.13z"/></svg>