<svg width="80" height="80" xmlns="http://www.w3.org/2000/svg"><path style="fill:#000;fill-opacity:1;fill-rule:evenodd;stroke:none;stroke-width:2.40524" d="M40.166 0c-10.238-.043-20.49 3.819-28.334 11.598-15.682 15.552-15.79 40.885-.234 56.57 15.552 15.682 40.886 15.792 56.568.234 15.687-15.552 15.79-40.885.238-56.57C60.626 3.991 50.404.042 40.166 0zm-5.521 11.723c.467-.028.908.28 1.035.75a1.015 1.015 0 0 1-.717 1.238 1.009 1.009 0 0 1-1.236-.719 1.008 1.008 0 0 1 .918-1.27zm6.074.535a1.698 1.698 0 0 1 1.734 1.256 1.695 1.695 0 0 1-3.28.867 1.698 1.698 0 0 1 1.546-2.123zm8.86.256c.467-.028.908.276 1.032.75a1.006 1.006 0 0 1-.716 1.232 1.01 1.01 0 0 1-1.24-.717 1.01 1.01 0 0 1 .923-1.265zm-5.102 2.04a1 1 0 0 1 1.021.74 1 1 0 0 1-.713 1.222.997.997 0 1 1-.309-1.96zm-16.188.258a3.157 3.157 0 0 1 3.229 2.344 3.163 3.163 0 0 1-2.245 3.865 3.164 3.164 0 0 1-3.86-2.248 3.162 3.162 0 0 1 2.876-3.96zm24.238 1.036a2.58 2.58 0 0 1 2.637 1.908 2.589 2.589 0 0 1-1.834 3.15 2.582 2.582 0 0 1-3.144-1.832 2.578 2.578 0 0 1 2.341-3.226zm-16.832.875a1.65 1.65 0 0 1 1.682 1.222 1.641 1.641 0 1 1-1.682-1.223zm9.409 2.38a1.693 1.693 0 1 1 .187 3.385 1.693 1.693 0 0 1-.187-3.384zm-22.297 1.399a1.702 1.702 0 0 1 .531 3.342 1.704 1.704 0 0 1-2.076-1.207 1.702 1.702 0 0 1 1.545-2.135zm5.558 1.879a1.012 1.012 0 0 1 .313 1.99 1.012 1.012 0 1 1-.313-1.99zm29.47.51a1.114 1.114 0 0 1 .35 2.188 1.113 1.113 0 1 1-.35-2.188zm5.946.332c.567-.032 1.1.34 1.25.912a1.225 1.225 0 0 1-.865 1.496 1.229 1.229 0 0 1-1.5-.873 1.227 1.227 0 0 1 1.115-1.535zm-21.554.484c.514-.028 1 .308 1.136.826a1.11 1.11 0 0 1-.789 1.36 1.113 1.113 0 1 1-.348-2.186zm4.546.496c.518-.028 1 .31 1.141.826a1.115 1.115 0 0 1-2.154.572 1.12 1.12 0 0 1 1.013-1.398zm-30.533.018a1.158 1.158 0 0 1 1.188.867 1.154 1.154 0 0 1-.824 1.418 1.161 1.161 0 1 1-.596-2.246c.077-.021.155-.035.232-.04zm20.487.445a2.225 2.225 0 0 1 2.27 1.648 2.226 2.226 0 0 1-1.577 2.711 2.223 2.223 0 0 1-2.713-1.578 2.222 2.222 0 0 1 2.02-2.781zm16.789.012a1.431 1.431 0 0 1 1.46 1.058 1.434 1.434 0 0 1-1.015 1.746 1.432 1.432 0 0 1-1.744-1.017 1.427 1.427 0 0 1 1.299-1.787zm-33.336 1.07a1.119 1.119 0 0 1 1.14.826c.157.592-.199 1.203-.79 1.36a1.113 1.113 0 0 1-.571-2.15 1.1 1.1 0 0 1 .22-.036zm9.875 1.254a2.018 2.018 0 1 1-1.84 2.533 2.024 2.024 0 0 1 1.84-2.533zm33.636.172a1.112 1.112 0 1 1 .129 2.22 1.112 1.112 0 0 1-.129-2.22zm-22.066.111a1.112 1.112 0 1 1 .122 2.222 1.112 1.112 0 0 1-.122-2.222zm15.59 1.04a3.716 3.716 0 0 1 3.789 2.75 3.702 3.702 0 1 1-4.527-2.63c.246-.067.493-.107.738-.12zm-11.354.65a1.943 1.943 0 0 1 1.98 1.437 1.94 1.94 0 0 1-1.376 2.367A1.944 1.944 0 0 1 44.1 31.4a1.939 1.939 0 0 1 1.761-2.425zm20.403.962a1.695 1.695 0 0 1 .527 3.328 1.698 1.698 0 0 1-2.074-1.204 1.697 1.697 0 0 1 1.547-2.123zM21.83 30.98a1.7 1.7 0 0 1 1.736 1.26 1.697 1.697 0 1 1-1.736-1.26zm-5.072.258a1.343 1.343 0 1 1 .15 2.682 1.343 1.343 0 0 1-.15-2.682zm23.611 1.266a1.695 1.695 0 1 1 .19 3.386 1.695 1.695 0 0 1-.19-3.386zm-11.902.455a1.113 1.113 0 1 1 .125 2.219 1.113 1.113 0 0 1-.125-2.219zm5.687.174a1.132 1.132 0 0 1 1.153.838 1.127 1.127 0 1 1-1.153-.838zm30.963 2.17a2.27 2.27 0 0 1 2.313 1.677 2.262 2.262 0 0 1-4.375 1.159 2.268 2.268 0 0 1 2.062-2.836zm-13.6.476c.471-.027.911.28 1.038.752a1.019 1.019 0 0 1-.723 1.237 1.014 1.014 0 0 1-1.236-.721 1.014 1.014 0 0 1 .922-1.268zm-33.44.432a2.499 2.499 0 0 1 .78 4.91 2.507 2.507 0 0 1-3.06-1.775 2.509 2.509 0 0 1 2.28-3.135zm40.99.883a1.113 1.113 0 0 1 .349 2.185 1.114 1.114 0 0 1-1.361-.789 1.114 1.114 0 0 1 1.011-1.396zm-32.57.795a3.169 3.169 0 0 1 3.23 2.35 3.162 3.162 0 0 1-2.247 3.86 3.163 3.163 0 0 1-3.86-2.242 3.17 3.17 0 0 1 2.245-3.869c.21-.055.422-.088.631-.1zm18.476.209c.47-.028.913.278 1.037.75a1.013 1.013 0 0 1-.723 1.236 1.009 1.009 0 0 1-1.232-.717 1.013 1.013 0 0 1 .918-1.27zm-4.936.037a1.7 1.7 0 0 1 1.734 1.26 1.703 1.703 0 0 1-1.209 2.072 1.695 1.695 0 1 1-.525-3.332zm9.25.574a1.7 1.7 0 0 1 1.734 1.258 1.706 1.706 0 0 1-1.207 2.076 1.7 1.7 0 0 1-2.07-1.205 1.698 1.698 0 0 1 1.543-2.129zm-15.125.031a1.113 1.113 0 1 1 .124 2.218 1.113 1.113 0 0 1-.124-2.218zm20.219.887a1.246 1.246 0 0 1 1.27.922 1.241 1.241 0 0 1-.883 1.515 1.241 1.241 0 1 1-.387-2.438zm3.992 2.89a2.69 2.69 0 0 1 2.746 1.993 2.693 2.693 0 0 1-1.91 3.285 2.69 2.69 0 0 1-3.285-1.91 2.693 2.693 0 0 1 2.449-3.367zm9.07.49c.468-.026.91.281 1.036.75a1.01 1.01 0 0 1-.72 1.233 1.009 1.009 0 1 1-.316-1.982zm-49.04.647a1.124 1.124 0 0 1 1.14.826c.156.597-.2 1.205-.791 1.366a1.116 1.116 0 1 1-.35-2.192zm33.445.041c.514-.028.997.309 1.136.826a1.115 1.115 0 0 1-.793 1.36 1.109 1.109 0 0 1-1.357-.793 1.11 1.11 0 0 1 1.014-1.393zm-7.424.721a1.7 1.7 0 0 1 1.734 1.256c.24.907-.3 1.838-1.205 2.076a1.703 1.703 0 0 1-2.072-1.209 1.694 1.694 0 0 1 1.543-2.123zm-9.549.268a1.423 1.423 0 0 1 .445 2.798 1.43 1.43 0 0 1-1.746-1.011 1.426 1.426 0 0 1 1.301-1.787zm-21.455.011c.47-.027.91.28 1.035.75a1.011 1.011 0 0 1-1.955.518 1.009 1.009 0 0 1 .92-1.268zm25.428.084c.47-.025.91.278 1.035.752a1.013 1.013 0 0 1-1.957.516 1.017 1.017 0 0 1 .922-1.268zm24.314 1.729c.468-.028.909.276 1.035.748a1.017 1.017 0 0 1-.718 1.236 1.009 1.009 0 1 1-.316-1.984zM49.225 47.87a3.16 3.16 0 1 1 .355 6.308 3.16 3.16 0 0 1-.355-6.308zm-33.33.184a1.428 1.428 0 0 1 .447 2.802 1.431 1.431 0 0 1-1.742-1.015 1.42 1.42 0 0 1 1.295-1.787zm12.408.162a1.205 1.205 0 1 1 .13 2.407 1.205 1.205 0 0 1-.13-2.407zm-7.479.592a1.698 1.698 0 0 1 1.735 1.257c.235.902-.3 1.834-1.207 2.077a1.696 1.696 0 1 1-.528-3.334zm12.742 1.218a2.5 2.5 0 0 1 .78 4.912 2.5 2.5 0 0 1-3.053-1.775 2.505 2.505 0 0 1 2.273-3.137zm31.46.307a1.434 1.434 0 0 1 1.462 1.057 1.428 1.428 0 0 1-2.762.73 1.429 1.429 0 0 1 1.3-1.787zm-8.878.348a1.786 1.786 0 0 1 1.823 1.32 1.785 1.785 0 0 1-1.264 2.18 1.78 1.78 0 0 1-2.176-1.266 1.784 1.784 0 0 1 1.262-2.18c.118-.03.237-.048.355-.054zm-16.271.601a1.338 1.338 0 0 1 1.371.998 1.34 1.34 0 1 1-2.594.688 1.343 1.343 0 0 1 1.223-1.686zm-22.41 3.885a1.21 1.21 0 0 1 1.234.898 1.202 1.202 0 0 1-.86 1.471 1.203 1.203 0 0 1-1.474-.857 1.209 1.209 0 0 1 1.1-1.512zm9.846.096a1.799 1.799 0 0 1 1.835 1.33c.25.96-.322 1.943-1.275 2.195a1.806 1.806 0 0 1-2.197-1.275 1.799 1.799 0 0 1 1.637-2.25zm14.843 1.455c.47-.025.913.28 1.037.754a1.012 1.012 0 0 1-.718 1.232 1.013 1.013 0 0 1-1.237-.719 1.014 1.014 0 0 1 .918-1.267zm10.15.46a1.427 1.427 0 0 1 .441 2.803 1.426 1.426 0 1 1-.44-2.802zm-5.163.169c.825-.046 1.599.493 1.82 1.32.25.95-.315 1.927-1.268 2.182a1.785 1.785 0 0 1-2.175-1.266 1.79 1.79 0 0 1 1.623-2.236zm-26.616.41a1.701 1.701 0 0 1 1.737 1.258 1.695 1.695 0 1 1-1.737-1.258zm11.133.469c.47-.028.911.279 1.037.748a1.02 1.02 0 0 1-.722 1.24 1.017 1.017 0 0 1-1.237-.723 1.015 1.015 0 0 1 .922-1.265zm25.69.023c.468-.028.91.279 1.035.75a1.017 1.017 0 0 1-.72 1.236 1.02 1.02 0 0 1-1.24-.722 1.008 1.008 0 0 1 .925-1.264zm-20.18.293a1.42 1.42 0 0 1 1.457 1.057c.2.757-.254 1.546-1.014 1.748a1.427 1.427 0 1 1-.443-2.805zm7.236 2.748c.468-.027.911.278 1.035.748a1.014 1.014 0 0 1-.718 1.236 1.01 1.01 0 1 1-.317-1.984zm-19.41.727a1.207 1.207 0 0 1 1.234.894 1.207 1.207 0 0 1-2.332.621c-.082-.322-.03-.649.123-.916a1.196 1.196 0 0 1 .975-.6zm29.822.203a1.433 1.433 0 0 1 1.46 1.062 1.43 1.43 0 0 1-1.016 1.742 1.43 1.43 0 0 1-1.744-1.013 1.43 1.43 0 0 1 1.3-1.791zm-15.107.545a2.503 2.503 0 0 1 2.553 1.855 2.503 2.503 0 0 1-1.774 3.057 2.502 2.502 0 0 1-3.054-1.776 2.5 2.5 0 0 1 2.275-3.136zm-7.615 1.097a1.7 1.7 0 0 1 1.736 1.26 1.703 1.703 0 0 1-1.205 2.074 1.705 1.705 0 0 1-2.074-1.209 1.694 1.694 0 0 1 1.543-2.125zm13.945.975c.56-.03 1.085.334 1.234.896a1.207 1.207 0 1 1-1.234-.896z"/></svg>