<svg xmlns="http://www.w3.org/2000/svg" width="80" height="80"><path d="M40 0A40 40 0 0 0 0 40a40 40 0 0 0 40 40 40 40 0 0 0 40-40A40 40 0 0 0 40 0zm-7.729 14.379l.95.58.36.998-.245.898-1.389 2.797-.857 2.778-.37 2.966.239 3.063.8 2.846 1.233 2.709 1.395 1.687 1.67 1.32 2.082.66 2.146.253 2.13-.278 1.939-1.035 1.675-1.387 1.328-1.136c4.087-2.382 9.433.815 8.811 5.527l-.287 1.832-1.56 2.56-2.012 2.17-2.354 1.696-2.781 1.1-3.01.548-2.041.395-1.734 1.058-1.393 1.545-.732 1.965-.037 2.194.638 1.873 1.196 1.66 1.662 1.322 1.884.623.944.574.488.914-.168 1.016-.732.717-1.078.234-2.09-.654c-3.601-1.347-6.048-5.059-6.196-8.856l.121-2.066.561-2.201 1.14-1.897 1.512-1.629 1.768-1.273 1.982-.715 2.133-.27 2.244-.36 2.106-.794 1.77-1.273 1.51-1.63 1.054-2.015.158-1.017-.445-1.116-.717-.748-1.068-.486-1.08.234-.94.678-1.947 1.764c-4.618 3.39-10.848 2.68-14.905-1.32l-1.62-2.25-1.66-3.303-.903-3.488-.258-3.59.461-3.576 1.082-3.471 1.566-3.287.823-.592 1.048-.041zm24.446.838c.585-.004 1.18.02 1.78.074l2.689.756.869.459.24 1.082-.281 1.105-.823.592-1.13-.088-2.32-.49-2.503.006-2.279.564-2.256 1.082-1.918 1.563-1.457 1.943-1.162 1.38-1.58.775-1.719.343-1.832-.299-.83-.666-.25-1.085.371-.981.822-.592 1.137.084 1.252.004.856-.807L46 19.79c2.903-3.094 6.618-4.545 10.717-4.572zM19.77 36.516l2.28.687 2.196 1.303 1.72 1.642 1.89 1.873 2.306 1.221 2.61.643.949.572.482.918-.168 1.016-.656.834-1.078.234-2.61-.643-2.421-1.129-2.07-1.392-1.89-1.873-1.923-1.678-2.25-.89-.955-.579-.477-.912.281-1.105.737-.711 1.047-.031z"/></svg>