<svg xmlns="http://www.w3.org/2000/svg" width="80" height="80"><path d="M39.998 0C24.269-.219 9.1 9.891 3.143 24.43c-6.22 14.283-3.002 32.025 7.901 43.167C21.534 78.89 38.818 83.008 53.29 77.738c15.001-5.096 26.063-19.831 26.658-35.68.996-15.406-7.935-30.805-21.74-37.682A39.876 39.876 0 0 0 39.998 0zM21.322 34.94c4.332-.236 6.806 5.74 3.578 8.637-2.896 3.23-8.873.755-8.637-3.577-.058-2.72 2.337-5.117 5.059-5.06zm12.45 0c4.331-.235 6.806 5.74 3.577 8.637-2.895 3.23-8.87.754-8.634-3.577-.058-2.718 2.336-5.116 5.057-5.06zm12.454 0c4.331-.234 6.803 5.741 3.576 8.637-2.895 3.23-8.871.754-8.635-3.577-.058-2.72 2.337-5.117 5.059-5.06zm12.45 0c4.331-.234 6.807 5.741 3.576 8.637-2.895 3.23-8.869.754-8.633-3.577-.058-2.718 2.336-5.116 5.057-5.06z" fill="#000000" fill-rule="evenodd"/></svg>
