<svg xmlns="http://www.w3.org/2000/svg" height="80" width="80"><defs><clipPath id="a"><path d="M369.689 564.061h53.89v53.891h-53.89v-53.891z"/></clipPath></defs><g clip-path="url(#a)" transform="matrix(1.4845 0 0 -1.4845 -548.805 917.353)"><path d="M402.709 580.23c.59-.135.682-.5-.184-.634-.865-.138-.726-.184-1.135-.593-.41-.41-.728-.503-1.866-.503-1.137 0-2.227-.774-3-.362-.774.41-.91.865-2.321.137-1.413-.731-1.501-.044-2.23.455-.727.5-1.273.819-2.183 1-.908.182-.908.913-1.274 1.454-.364.546-.41 1.003-.953 1.138-.546.136-.185.775.68.548.864-.228 2.593-1.14 2.914-1.913.316-.774.773-1.138 1.5-.862.727.272 1.316.5 1.726-.048a1.363 1.363 0 0 1 2.05-.09c.634.593 2.092.818 2.775.226.589-.452.77-.316 1.274-.136.498.184 1.636.32 2.227.184m3.096.047c.271.544 1.138.544.68-.09-.455-.637-.819-1.137-1.228-1.915-.41-.77-.819-1.226-3.18-1.679-2.369-.455-2.32-.323-2.73-.592-.41-.27-1.777-.868-4.323-.092-.864.273-1 .817 0 .774.953 0 1.954.136 2.546.41.594.27 1.547.135 2.32.135.774 0 1.502-.182 2.318.728 1.095.682 1.775 1.137 2.414 1.183.546.088.953.637 1.183 1.137m-16.876-4.23c-.685.365-.728-.408-.23-.684.503-.271.865-.587 1.502-.996.637-.412 1.729-.821 2.727-.683 1.004.135 1.368.5.958.724-.409.23-1.956 1.185-2.773 1.137-.821-.041-1.502.139-2.184.503m-4.642 10.235c.091.682.591.682.639 0 .043-.682.091-.958.589-1.59.501-.637.726-.958.685-2.323-.048-1.365-.048-2.912 1.179-2.912 1.23 0 2.231-.088 2.914-.996.68-.912 1.817-1.593 2.32-2.004.498-.41-.048-.592-.682-.455-.64.138-3.64 1.365-4.778 2.32-1.044.905-1.956 1.135-2.136 1.954-.184.82-.5 2.867-.73 3.319-.225.46-.089 2.005 0 2.687m-3.82 6.684c-.046.453-.364.635-.5-.089-.137-.728.318-1.46.091-2.322-.228-.863.5-2.184.955-2.73.455-.546.635-1.5.503-2.637-.139-1.137.409-2.64 1.135-3.82.728-1.18 2.366-2.459 1.956-1.774-.409.682-1.183 2.411-1.048 3.14.138.723-.226 1.906-.774 2.866-.541.955-.409 1.315-.453 1.952-.047.637-.366 2.047-1.094 2.957-.725.908-.68 2.138-.68 2.138s-.045-.138-.091.32m7.734 8.006c.273.682 1.137.182.682-.364-.457-.546-.5-.455-.639-1.547-.136-1.092-.409-1.822-1.183-2.275-.773-.455-1.27-1.226-1.228-2.047.045-.819 0-1.226-.134-1.681-.139-.458-.139-1.727.455-2.733.59-.998 1.226-2.679.998-3.589-.225-.91-.36-1.32-.225-1.866.134-.546.134-.227.134-1.094 0-.862-.409-.36-.5.139-.089.498-.544 2.366-1.138 3.137-.59.773-.273 1.59-.273 1.959 0 .359.273 1.044-.543 2.181-.819 1.133-1.138 2.867-.819 3.822.318.955 1.18 1.135 1.317 1.545.14.409.455 1.776 1.456 2.595 1.001.817 1.367 1.136 1.64 1.818m-1.682 3.272c.364.594.364 1.092-.455.548-.82-.548-2.411-2.409-3.185-3.232-.773-.817-.682-1.32-.728-2.228-.045-.91.319-1-.773-2.093-1.092-1.09-1.044-2.456-.637-3.09.409-.775.728-.863.775-.276.044.593.769 1.82 1.588 2.457.819.64 1.095 2.23 1.095 3.412 0 1.183.043 2.318 1 3.092.956.775.956.82 1.32 1.41m1.726-14.236c.046.5-.59.728-.682.091-.09-.635.093-1.865.366-2.548.273-.682-.182-2.912 1.41-3.592 1.18-.409 1.545-.364 1.818-.773.273-.41 1.226-.41 1.5-.817.272-.412.775-1.597 1.275-1.049.228.32-.91 1.32-1.14 2.136-.225.821-.452 1.006-1.726 1.322-.82.271-1.135.591-1.183 1.32-.046.727-.271 1.5-.953 2.136-.546.546-.728 1.274-.685 1.774m7.552 8.551c.498.271 1.727.364 1-.182-.727-.546-1.182-.5-1.455-1.092-.273-.59-.82-1.228-1.686-1.09-.36 0-.498-.093-.77-.502-.274-.408-.683-1.32-1.682-1.452-.546-.14-.819-.459-1.094-.955-.273-.503-.546-.96-1-1.23-.456-.274-.41-.183-.684-.592-.273-.41-.634-.776-.546-.048.091.732.728.732.683 1.503-.046.772.091 1.272 1.228 2.091.91.683 1.047 1.138 1.413 1.73.362.593 1.135.863 1.772.91.68.274 1.047.638 1.727.638.685 0 .594 0 1.094.271m-6.688-1.637c-.273-.364-.865-.412-.546.319.32.725 2.047 3.683 3.506 4.047 1.362.318 1.27.229 1.726.455.453.227 1.772-.273 2.182 0 .409.273 1.777.411 2.684-.182.91-.592.364-.455 1.183-.592.817-.134.774-.773 0-.773-.775 0-1.317.138-1.911-.046-.59-.182-1.408 0-2.002.23-.59.225-1.271.089-1.726 0-.455-.091-1.32-.184-1.547-.728-.23-.548-.32-1.092-1.731-1.504-1.406-.412-1.545-.862-1.818-1.226m14.555-11.872c.409.366 1.003 0 .275-.771-.728-.778-2.64-2.91-5.095-2.412-.82.27-1.775-.227-2.32.364-.547.592-1.275.865-1.136 1.27.134.412.316.412 1.228.412.908 0 1.456.227 1.954-.32.5-.545.637-.77 1.636-.092 1.003.685 1.91 1.005 2.457.912.548-.09.592.275 1 .637m3.231 2.14c0 .502.819 1.043.635.047-.18-1.004-.089-2.23-.319-2.869-.225-.639-.316-1.319-1.499-1.91-1.183-.592-1.638-.636-2.138-1.184-.499-.543-1.729-.817-1.136.046.59.866.954.773 1.318 1.774.364 1 .912 1.502 1.638 1.868.728.362 1.408 1.362 1.501 2.227m4.048-6.502c.275.268 1.14.045.366-.594-.775-.634-1.456-1.092-1.638-1.911-.184-.816-1.183-1.226-2.457-1.59-1.271-.364-2.002-.41-2.5-1.05-.5-.633-2.275-1.768-4.14-1.816-1.911-.043-3.048.089-3.683-.182-.64-.275-.776.455 0 .639.728.182 1.363.726 2.457 1.09 1.089.364 3.59.318 5.046.998 1.455.685 2.322 1.047 2.957 1.775.637.728 2.59 1.865 3.594 2.64h-.002m2.23 12.96c.181-.863 1.091-.542.588.456-.498 1.003-.725.862-.819 1.818-.088.955-.318 1.956-1.726 2.955-.319.321-1.09 1.415-1.502 1.96-.409.542-.91.77-2.138 1.134-1.226.364-2.546 1.05-3.683 1.501-1.138.458-2.275.592-2.912.592-.635 0-1 0-1.636.321-.639.314-2.368.498-5.187-.139-1.456-.316-1.865-.364-1.817-.685.041-.314 1.501-.04 2.545-.27 1.044-.226 1.638-.317 2.912-.137 1.272.184 2.637.225 3.365-.455.728-.68 1.23-.862 3.867-1.32 2.591-.407 3.365-.86 3.867-1.724.5-.867 1.363-2.825 2.364-3.503 1.001-.687 1.502-1.413 1.911-2.505m-2.867 1.506c-.228.541.273 1.226.682.227.408-1.003.817-1.228 1.183-1.506.362-.27.817-.948.546-1.724-.273-.773-.184-1.956-.093-2.323.093-.36.412-1.319 0-2.18-.409-.866-.819-1.687-.908-2.73-.09-1.045-.639-1.639-1.41-2.276-.773-.635-1.272-.956-1.729-1.909-.455-.955-.864-1.456-1.135-1.094-.275.37.498 1.094.635 1.595.138.5.457 1.547 1.137 2.318.685.773 1.454 1.32 1.822 2.732.36 1.452.726 3.137.68 4.41.228 1.318 0 1.546-.229 1.914-.226.36-.226 1.045-.45 1.41-.23.36-.506.59-.73 1.136m-1.864-.368c-.225.364.045.594.5 0 .453-.591.774-1 .958-1.818.18-.816 1.044-1.501.271-2.821-.776-1.32-1-2.045-1.137-2.502-.137-.453-.637-1.724-1.047-1.181-.364.5.091 1.18.362 1.638.277.458.366 1.183.23 1.636-.137.455-.137 1.183.182 1.777.316.587.316.587-.094 1.365-.409.769 0 1.542-.225 1.906m-3.139 1.23s-.409.685-.59-.227c-.183-.91-.227-1.502.226-2.137.455-.637 1.23-1.594.685-2.138-.546-.548-.82-1.456-.776-1.818.046-.366.046-1.87-.908-2.184-.957-.32-1.137-.639-1.23-1.003-.089-.362-1.09-1.137-.046-1.23.412.366.958.5 1.32.682.366.186.82.503 1.137 1.05.318.542.503.772.821 1.091.317.316.635.912.635 1.638 0 .728.045.953.184 1.273.134.32.36 1.272-.23 2.728-.363 1.367-1.228 2.275-1.228 2.275m-1.456 4.683c-.59.227-.409-.5-.045-.589.364-.093 1.228-.455 1.453-1.365.23-.776.82-.912 1.731-1.23.41-.09 1.23-1.227 1.32-1.639.09-.407.682-.862.544 0-.137.867-.5 1.913-.728 2.368-.226.455-.635 1.27-1.955 1.545-1.183.228-1.455.68-1.455.68s-.274 0-.865.23m-.819 4.915c-.273.093-.91-.594-.093-.637.821-.045 1.913.137 2.504-.546.592-.68 1.183-.953 2.137-1.137.957-.185 1.728-1.181 2.093-1.322.363-.134.591.184.045.912-.546.728-1.499 1.18-1.954 1.729-.455.546-.683.728-1.276.682-.59-.045-2.685.319-3.456.319m1.003.726c.591-.089 1.774.546.728.73-1.049.18-1.684.23-2.32.637-.64.407-1.459.817-3.595.364-1.638-.27-3.364-.594-4.459-.364-1.089.225-3.819-.682-4.638-1.456-.817-.773-1.545-1.82-2.5-2.32-.958-.5-1.092-.273-.685-.956.41-.68 1.137.913 2.138.913s2.184.543 3.868 1.544c1.638.908 3.048 1.09 4.23.956 1.182-.137 3.64 0 4.182.275.55.271 1.413.314 2.095.132.683-.182.365-.362.956-.455m-10.828-12.599c.23.41.321 1.274-.364.453-.68-.817-.769-1.18-1.454-1.59-.682-.41-.773-1.59-.318-2.182.455-.596.318-.639 0-1.552-.319-.905.5-2.36 1.772-1.999.958.184 1.322-.182 1.458-.5.134-.317.134-.952 1.138-.68.91.27 1.408.181 1.772.088.364-.089.412.323.867-.046.41-.225.546.458.136.731-.409.275-.59.452-1.003.275-.41-.182-.726-.182-1.044.09-.32.27-.594.724-1.502.954-.91.225-1.5.271-1.774 1.044-.273.774-.366 1.456-.592 1.684-.225.23-.273.591-.045.862.227.275.544.414.59.955.047.551.138 1.004.365 1.413h-.002m2.048.591c.139.364-.091.682-.455 0-.364-.685-.908-1.954.41-3.27.454-.23.454-.19.275.451.089.726.68.908.043 1.82-.273.544-.41.637-.273 1m1.591 1.181c-.045.14.045 1.183.728.182.68-.999 1.638-2.59 1.686-3.092.043-.502-.278-1.319-.187-1.817.093-.503-.453-1.502-1.226-1.549a11.675 11.675 0 0 1-1.772-.228c-.412-.089-.139.546.09.771.226.23.217.683 1.184.683.225 0 .68.775.27 1.46-.409.68-.27 1.044-.182 1.497.091.455.367 1.231-.59 2.093m1.09 2.23c-.365.276-.226.818.454.547.682-.271 1.32-.82 1.82-.82s1.228-.636 1.82-1.82c.591-1.18.546-1.773.273-2.408s-.273-.862.045-1.502c.32-.634.41-1.091-.59-2.411-1.002-1.317-1.048-1.408-1.048-1.865 0-.455-.546-.59-.59-.044-.044.544-.32 1.229.365 1.864.68.639.225 1.958.043 2.32-.179.366-.273 1.274.137 1.82.41.548.41 1.454-.865 2.138-1.27.683-1.547 1.183-1.547 1.454 0 .273.046.455-.318.728m25.648-6.738c0-14.88-12.064-26.944-26.946-26.944-14.883 0-26.945 12.064-26.945 26.944 0 14.882 12.062 26.946 26.945 26.946 14.882 0 26.946-12.064 26.946-26.946" fill-rule="evenodd"/></g></svg>