<svg xmlns="http://www.w3.org/2000/svg" width="80" height="80" viewBox="0 0 21.167 21.167"><path d="M9.618 21.153c-.885-.07-1.97-.304-2.746-.59-.992-.365-2.121-1.013-2.906-1.668-.492-.411-1.664-1.619-1.98-2.042a10.066 10.066 0 0 1-1.913-4.576c-.097-.67-.097-2.724 0-3.394.26-1.779 1.048-3.555 2.174-4.9.412-.493 1.62-1.662 2.045-1.979C5.659.984 7.188.35 8.913.084c.737-.112 2.582-.112 3.319 0 1.725.265 3.255.9 4.621 1.92.424.317 1.634 1.486 2.046 1.979.655.783 1.304 1.911 1.67 2.902.205.557.41 1.373.513 2.038.113.736.113 2.579 0 3.314-.265 1.723-.9 3.25-1.922 4.616-.317.423-1.488 1.63-1.981 2.042-.785.655-1.914 1.303-2.906 1.668a11.59 11.59 0 0 1-1.996.505c-.462.07-2.17.125-2.659.085zm1.015-.959c.12-.308.204-.824.147-.914-.021-.035-.128-.08-.237-.098a18.724 18.724 0 0 1-.539-.107c-1.068-.229-1.037-.24-1.161.409-.096.5-.068.529.639.676.2.042.435.092.522.113.088.02.254.039.37.041.19.004.215-.008.26-.12zm2.022-.087c.435-.038.46-.073.424-.576-.016-.223-.053-.435-.083-.471-.045-.054-.186-.06-.852-.034-1.02.04-1.016.038-.974.608.04.557.052.566.676.53.275-.017.639-.042.81-.057zm-4.482-.253c.131-.144.428-.783.4-.859-.033-.082-.112-.13-.836-.502-.395-.204-.649-.308-.726-.3-.138.017-.332.281-.49.669-.097.238-.098.257-.026.338.064.07 1.192.648 1.418.725.125.043.165.032.26-.071zm6.313-.378c.348-.114.679-.237.735-.273.129-.084.132-.234.011-.576a1.791 1.791 0 0 1-.09-.326c0-.037-.042-.09-.093-.117-.086-.046-.41.029-.794.183-.05.02-.238.081-.417.136-.326.1-.515.223-.515.336 0 .107.174.608.253.728.043.067.119.116.176.116.056 0 .386-.093.734-.207zm-8.456-.678c.315-.334.474-.558.474-.668 0-.111-.094-.212-.763-.819-.267-.242-.508-.397-.616-.397-.057 0-.213.127-.403.329-.262.28-.309.354-.309.492 0 .147.038.199.391.522.842.772.959.823 1.226.54zm10.559-.584c.7-.462.769-.53.697-.69a.878.878 0 0 0-.1-.17 4.165 4.165 0 0 1-.196-.281c-.126-.194-.166-.225-.275-.214-.07.008-.242.091-.384.185-.142.094-.426.282-.633.417-.474.31-.48.347-.162.826.276.416.315.414 1.053-.073zM4.237 17.179c.384-.252.494-.354.494-.46 0-.117-.843-1.38-.964-1.445-.114-.06-.212-.02-.633.26-.166.11-.313.24-.326.29-.016.063.1.3.365.739.214.355.42.682.458.725.11.128.295.094.606-.11zm13.89-.55c.18-.205.41-.462.512-.57.28-.298.27-.351-.127-.721-.166-.155-.333-.283-.371-.284-.07-.002-.39.31-.9.879-.366.408-.366.468.002.809.404.374.467.366.885-.112zM2.804 15.19c.223-.074.439-.176.48-.227.09-.11.088-.12-.314-1.227-.165-.453-.18-.478-.311-.49-.17-.017-.91.244-.945.333-.023.06.164.724.316 1.122a.992.992 0 0 1 .065.251c0 .069.233.373.286.373.01 0 .2-.06.423-.135zm16.353-.285c.177-.24.668-1.265.668-1.396 0-.125-.027-.144-.627-.447l-.21-.106-.093.125c-.191.255-.707 1.295-.707 1.425 0 .112.036.155.216.26.572.335.603.341.753.139zm-16.849-2.01l.164-.068-.034-.647a20.89 20.89 0 0 0-.064-.896l-.029-.25-.518.004c-.67.006-.66-.004-.62.677.038.642.104 1.112.167 1.188.072.086.722.08.934-.008zm17.572-.238c.038-.043.104-.232.146-.42.043-.187.109-.463.146-.613a1.84 1.84 0 0 0 .054-.474l-.014-.202-.273-.082a1.774 1.774 0 0 0-.497-.07l-.224.011-.1.438c-.055.24-.115.462-.133.491-.06.098-.109.647-.067.758.03.076.077.107.167.107.07 0 .218.03.33.065.278.088.383.085.465-.009zM2.125 10.55a.341.341 0 0 0 .105-.207c0-.059.03-.234.065-.39.25-1.09.249-1.184-.009-1.235-.068-.013-.26-.056-.426-.096-.357-.084-.484-.057-.518.111-.014.067-.053.234-.087.372-.135.548-.168.714-.193.982-.026.277-.024.28.114.353.078.04.188.074.245.076.058.002.176.03.264.064.228.088.321.082.44-.03zm17.966-.367c.02-.056.025-.446.01-.866-.033-.935-.011-.904-.614-.864-.296.02-.43.047-.47.098-.099.124-.05 1.517.06 1.694.014.022.24.04.5.04.453 0 .478-.005.514-.102zM2.426 8.276c.094-.07.76-1.41.76-1.529 0-.09-.242-.258-.646-.452-.167-.08-.234-.091-.305-.053-.102.054-.1.05-.496.838-.379.752-.376.792.082 1.051.365.207.484.235.605.145zm16.724-.288a.581.581 0 0 1 .206-.064.47.47 0 0 0 .212-.105l.131-.104-.111-.338c-.062-.186-.148-.46-.193-.61-.209-.705-.22-.717-.603-.596-.338.107-.603.216-.63.26-.012.018.007.122.042.23.034.108.098.319.142.469.278.952.3.994.514.954.091-.017.221-.06.29-.096zM3.428 6.051c.28-.288.962-1.043.996-1.101.019-.033.019-.1 0-.147-.055-.14-.656-.647-.767-.647-.09 0-.62.55-1.101 1.143-.145.177-.109.287.184.565.405.384.478.404.688.187zm14.754-.191c.517-.348.487-.298.347-.577a2.34 2.34 0 0 0-.18-.31.708.708 0 0 1-.088-.136 6.907 6.907 0 0 0-.25-.409c-.28-.435-.342-.448-.78-.154-.177.118-.34.25-.362.291-.03.057.039.205.28.594.177.285.332.548.346.586.039.11.249.318.32.318.037 0 .202-.092.367-.203zM5.322 3.998c.112-.08.297-.2.41-.265.284-.164.42-.3.395-.394-.045-.17-.504-.818-.58-.818-.095 0-.211.06-.566.296a5.5 5.5 0 0 1-.323.204 4.615 4.615 0 0 0-.329.227c-.196.143-.28.234-.28.305 0 .12.383.765.492.827.083.047.396-.106.78-.382zm11.43-.002c.165-.188.299-.367.299-.397 0-.03-.254-.306-.564-.612-.427-.42-.593-.556-.681-.556-.138 0-.707.56-.709.698-.001.093.618.752.97 1.033.12.097.257.176.303.176.047 0 .213-.148.382-.342zm-2.08-1.054c.046-.07.122-.207.168-.307.047-.1.113-.236.148-.302a.568.568 0 0 0 .063-.166c0-.069-.305-.25-1.36-.808-.164-.087-.246-.02-.504.417-.171.29-.218.406-.187.464.023.043.171.146.33.23.93.493 1.137.596 1.195.596.036 0 .102-.056.148-.124zM6.96 2.885l.715-.227c.337-.107.465-.18.465-.267 0-.174-.255-.88-.333-.922-.084-.044-.208-.012-1.28.337-.401.13-.432.154-.432.325 0 .153.134.626.226.798.065.122.13.117.64-.044zm5.593-.681c.061-.119.188-.756.172-.864-.016-.109-.227-.195-.743-.305a65.373 65.373 0 0 1-.558-.123c-.445-.1-.504-.06-.611.419-.114.51-.108.593.044.624.069.014.237.055.375.09 1.023.26 1.255.289 1.321.159zm-2.86-.067c.292-.013.564-.036.604-.052.061-.023.068-.084.044-.397a4.324 4.324 0 0 0-.072-.546l-.044-.177-.372.029c-.204.016-.57.029-.815.03-.598 0-.625.025-.625.61 0 .546.027.578.447.548.167-.012.542-.032.834-.045z"/></svg>