<svg xmlns="http://www.w3.org/2000/svg" width="80" height="80"><defs><clipPath id="a"><path d="M305.161 541.669h53.958v53.961h-53.958v-53.961z"/></clipPath></defs><g clip-path="url(#a)" transform="matrix(1.48264 0 0 -1.48255 -452.444 883.053)"><path d="M337.61 570.331a7.656 7.656 0 0 1 5.503-2.329c3.982 0 7.256 3.037 7.633 6.953l.001.04a.43.43 0 0 1-.43.428.414.414 0 0 1-.295-.122c-3.12-2.992-7.448-4.662-12.066-4.243l-.039.002a.432.432 0 1 1-.308-.729m13.346-4.861a.428.428 0 0 0 .531-.416.422.422 0 0 0-.08-.246c-1.407-1.967-3.68-3.233-6.25-3.233-3.469.021-6.568 2.335-7.438 5.797a.428.428 0 0 0 .664.455c3.79-2.672 8.371-3.392 12.573-2.357m-4.05-9.78a7.54 7.54 0 0 0-3.2-.7 7.666 7.666 0 0 0-7.372 9.762.427.427 0 1 0 .8.063c1.948-4.208 5.556-7.12 9.711-8.326a.433.433 0 0 0 .31-.41.43.43 0 0 0-.25-.39m-8.457-5.648c-3.917.378-6.952 3.651-6.952 7.635 0 2 .777 4 2.328 5.502a.428.428 0 0 0 .727-.308l-.003-.037c-.416-4.62 1.253-8.946 4.247-12.065a.43.43 0 0 0-.308-.729l-.04.002zm-10.149-.659c-1.967 1.406-3.233 3.682-3.233 6.253.021 3.466 2.336 6.565 5.797 7.435a.427.427 0 0 0 .531-.415.434.434 0 0 0-.077-.248c-2.669-3.79-3.389-8.373-2.356-12.572a.488.488 0 0 0 .011-.104.425.425 0 0 0-.673-.349m.008 14.275a.425.425 0 0 1 .25.388.437.437 0 0 1-.312.414 7.668 7.668 0 0 1-9.765-7.376c0-1.16.257-2.26.699-3.197a.429.429 0 0 1 .803.061c1.205 4.152 4.115 7.76 8.325 9.71m-1.636 3.31a7.673 7.673 0 0 1-5.506 2.33c-3.98 0-7.256-3.04-7.632-6.952v-.041a.428.428 0 0 1 .725-.307c3.12 2.992 7.446 4.662 12.064 4.243l.04-.002c.236 0 .426.194.426.43 0 .114-.044.22-.117.299m-13.345 4.86a.43.43 0 0 0-.531.416c0 .087.026.172.08.247 1.406 1.967 3.68 3.233 6.25 3.233 3.469-.021 6.568-2.334 7.438-5.8a.406.406 0 0 0 .01-.101.43.43 0 0 0-.427-.431.44.44 0 0 0-.246.08c-3.793 2.672-8.375 3.39-12.574 2.357m4.049 9.783c.94.44 2.04.699 3.199.699a7.667 7.667 0 0 0 7.374-9.766.428.428 0 0 0-.8-.061c-1.948 4.208-5.558 7.122-9.711 8.326a.43.43 0 0 0-.062.802m18.608 6.305a7.66 7.66 0 0 0 3.229-6.253c-.017-3.466-2.334-6.565-5.794-7.435a.429.429 0 0 0-.453.663 15.284 15.284 0 0 1 2.807 8.866c0 1.318-.164 2.593-.451 3.706-.007.032-.015.065-.015.103a.429.429 0 0 0 .677.35m-5.526-13.796a7.634 7.634 0 0 1 2.329 5.502c0 3.984-3.036 7.258-6.951 7.635l-.041.001a.431.431 0 0 1-.307-.729 15.343 15.343 0 0 0 4.245-12.062l-.002-.039a.43.43 0 0 1 .727-.308m13.843 9.233a.43.43 0 0 0 .802.062c.44-.94.699-2.04.699-3.2a7.667 7.667 0 0 0-9.766-7.373.428.428 0 0 0-.061.799c4.21 1.951 7.122 5.558 8.326 9.712m14.82-14.704c0 14.9-12.079 26.982-26.98 26.982-14.9 0-26.978-12.082-26.978-26.982 0-14.9 12.078-26.982 26.978-26.982 14.901 0 26.98 12.082 26.98 26.982" fill-rule="evenodd"/></g></svg>