<svg xmlns="http://www.w3.org/2000/svg" width="80" height="80"><defs><clipPath id="a"><path d="M47.209 685.738h52.336v52.333H47.209v-52.333z"/></clipPath></defs><g clip-path="url(#a)" transform="matrix(1.52858 0 0 -1.52867 -72.163 1128.269)"><path d="M71.679 726.872a3.093 3.093 0 1 1-6.187 0 3.093 3.093 0 0 1 6.187 0m9.803 0a3.092 3.092 0 1 1-6.183 0 3.092 3.092 0 1 1 6.184 0m7.93-5.733a3.093 3.093 0 1 1-6.186 0 3.093 3.093 0 0 1 6.186 0m3.001-9.322a3.095 3.095 0 0 1-3.095 3.093 3.092 3.092 0 0 1 0-6.184 3.095 3.095 0 0 1 3.095 3.09m-3-9.321a3.097 3.097 0 0 1-3.096 3.095 3.092 3.092 0 1 1 3.095-3.095m-7.93-5.732a3.092 3.092 0 1 1-6.184.003 3.092 3.092 0 0 1 6.183-.003m-9.803 0a3.093 3.093 0 0 1-6.186 0 3.093 3.093 0 0 1 6.186 0m-7.93 5.732a3.095 3.095 0 0 1-3.09 3.095 3.093 3.093 0 1 1 3.091-3.095m-3.053 9.322a3.093 3.093 0 0 1-6.186 0 3.093 3.093 0 0 1 6.186 0m3.053 9.322a3.093 3.093 0 1 1-6.186 0 3.093 3.093 0 0 1 6.186 0m35.965-9.322c0 14.492-11.763 26.255-26.255 26.255-14.49 0-26.252-11.763-26.252-26.255 0-14.492 11.762-26.253 26.252-26.253 14.492 0 26.255 11.76 26.255 26.253" fill-rule="evenodd"/></g></svg>