<svg width="80" height="80" xmlns="http://www.w3.org/2000/svg"><path style="fill:#000;fill-opacity:1;fill-rule:evenodd;stroke:none;stroke-width:2.94778" d="M40.105 0C18.018-.056.06 17.807 0 39.895-.059 61.985 17.805 79.94 39.898 80 61.986 80.059 79.941 62.2 80 40.105 80.056 18.015 62.2.062 40.105 0zm.942 10.338c.238.003.476.013.639.031.247.027.933-.002 1.054.23a.58.58 0 0 1 .018.547c-.112.204-.233 1.083-.602 1.319-.171.112-.362.103-.545.023l-.215 1.35c.383.05.746.157 1.073.387.36.265.304.698.24 1.076-.067.404.042.895-.203 1.258H42.5c-.298.43-.498.398-.902.091 0 0-.898-.415-1.01-.45-.442-.128-.774-.193-.479-.764.086-.166.202-.28.293-.446.091-.156.146-.3.246-.465.234-.368.173-.766.745-.687l.214-1.35c-.306-.12-.916-.262-1.128-.775-.346-.837-1.267-1.3-.075-1.365.167-.01.404-.013.643-.01zm-3.139.094c.17.002.331.026.389.101-.156.153-.475.172-.654.278-.239.13-.345.245-.627.316-.357.088-.365.071-.657.283-.28.207-.43.136-.58-.144l-.955.851c.085.558-1.297.2-1.61.2-.312.011-.5.271-.7.01l-1.287.814c.127.283-.087.737-.288.943-.283.289-.59-.096-.847-.258-.419-.277-.37-.293-.906-.402-.228-.044-.81-.214-.952-.385l-.552 1.203c.203-.083.384.116.54.213.178.103.333.17.516.295l1.096.469c.483.233.655.291.72.863.084.707-.702.658-1.3 1.006l.371 1.316c.224-.094.466-.088.684-.209.186-.106.37-.339.625-.265.324.1.058.825.162 1.586.15 1.047.784 2.357-.637 2.367l1.928.36.043-.034c.327-.242.75-.102 1.316-.229.619-.138.554-.083 1.106.332.214.16.336.151.539.26.139.071.185.166.183.268l2.748.514c-.57-.854.053-1.616.657-1.54v-.002h-.008l.361-1.38c-.611.172-.446-.904-.46-1.233-.01-.306-.086-.394-.214-.635l-1.185.733v-.004l-.006.004c.075.4.11.802.12 1.209.034 1.117-.63 1.258-1.378.748-.262-.183-.618-.139-.863-.48-.321-.451.138-.882.203-1.587.017-.194-.034-.509.033-.667.232-.08.284.089.531.097.222.006.455-.024.688-.01.573.035.581.197.672.686l1.185-.73v.001l.004-.002c-.147-.285-.005-.419.137-.646.218-.356.401-.88.941-.672l-.885-2.467c-.341.274-1.796-.886-2.074-1.13-.255-.215-.808-.61-.277-.91.148-.083.445-.114.637-.2.171-.074.321-.214.504-.285.247-.094.354-.05.625-.209.138-.083.396-.257.552-.23.218.035.247.347.326.51.284.574 1.042.684.416 1.538-.12.171-.188.358-.324.508-.067.083-.385.408-.385.408l.899 2.471-.014-.004v.002c.383.154 1.145.822 1.56 1.031.308.148 1.197.223.604 1.6-.306.707-.333.637-1.054.514-.534-.095-1.002-.115-1.518.039v.002h.008l-.361 1.38c.426.056 1.317.07 1.734.008.822-.136.8.016 1.121.63l.006-.003c.156.31.156.354.203.696.025.189.041.663-.05.816-.14.227-.921.572-1.192.584l.648 1.262c.029-.012.055-.016.084-.03 1.232-.568.58.776.524 1.163-.002.01-.001.032-.002.044l2.33 4.538v.001h.002c.333-.343.751-.672 1.265-.584.127.024.474.28.569.377.312.333-.142.187.828 1.024.241.21.253.345.12.637-.12.253-.134.477-.226.724-.067.186-.207.466-.257.637-.075.252-.168.465-.471.49h.006l-.49 1.14c.151.066.33.165.474.255.389.23.204.809-.066 1.062-.157.139-.383.15-.58.186-.235.048-.341.077-.54.15l-.71 1.658c.18-.05.358-.103.535-.164.183-.059.339-.16.504-.218.197-.074.4-.095.607-.145.197-.053.427-.179.61-.008.156.162.16.378.1.578-.051.144-.398.905-.468 1.02-.327.512-1.786.6-2.332.683-.146.02-.226.018-.299-.013l-.002-.002-1.664 3.869c.54-.106.725.5.83.896.059.221-.05.54-.085.788l.005.002v-.002l1.291.53c.112-.288.128-.314.12-.64-.006-.265.034-.483.357-.412.153.03.373.174.557.227.241.073.453.045.7.062.731.071.435.388.585.975.191.725.87 2.028-.512 1.892-.726-.07-.899.36-1.266-.015l-1.095.576-.002-.002-.002.002c.274.327.162.652-.156.879-.34.245-.761.066-1.157.066-.303 0-.943.036-1.226.092-.242.05-.362.066-.51-.135-.067-.097-.217-.292-.262-.392-.05-.142-.084-.47.033-.578.1-.1.367-.085.526-.135.174-.053.303-.153.48-.186.198-.038.369-.056.567-.092.276-.046.263-.03.52-.144.517-.244.685.03 1.187.623l1.095-.576.002.002.002-.002a7.184 7.184 0 0 1-.672-.867c-.268-.41-.009-.82.135-1.217l-.006-.002v.002l-1.29-.532c-.076.615-.05.942-.524 1.15-.873.393-1.043.243-1.957.626-.283.12-.447-.015-.547-.274a6.481 6.481 0 0 0-.254-.601c-.185-.37.192-.91.334-1.291l-1.289-.36v-.001h-.002a1.259 1.259 0 0 1-.191.472c-.249.369-.44.223-1.05.153-.222-.027-.45-.012-.675-.012l-.207 1.19c.374.028.777.043 1.139.099.312.044.8.012.814.44.017.315-.33.54-.572.658-.604.306-.321.152-.902.36-.325.119-.53.369-.877.372a.55.55 0 0 1-.157-.018l-.457 3.61c.127.144.22.3.176.443-.018.062-.147.206-.277.348l-.805 6.334c-.001-.002-.004 0-.006-.002 0 0 .208.523.258.635.244.586.438.635.246 1.316h.004c-.362 1.28-.292 1.616-1.164 1.447-1.026-.2-1.182.096-1.51-.21-.182-.172-.217-.357-.308-.569-.1-.227-.162-.386-.278-.607-.112-.213-.284-.395-.187-.643h.002c.221-.546 1.087-1.175 1.42-1.246.256-.056.568.03.847-.035.19-.044.504-.267.67-.088l.803-6.324a9.279 9.279 0 0 1-.418.425c-.257.23-.408.567-.715.764-.383.257-.709-.115-1.035-.271a11.777 11.777 0 0 0-.516-.225c-.241-.1-.342-.208-.213-.47.076-.168.172-.312.29-.462.13-.168.165-.297.271-.468.198-.31.384-.636.78-.692.51-.085.807-.112 1.22.203.114.088.298.23.44.389l.457-3.602c-.315-.09-.184-.498-.27-.81-.059-.18-.084-.288-.164-.46-.059-.14-.154-.33-.076-.474.1-.191.453-.195.756-.18l.154-1.216c-.51-.118-.178-.52-.28-1.274-.016-.118-.007-.544.026-.644.057-.185.347-.514.574-.61l.197-1.543a.773.773 0 0 1-.265-.154c-.25-.256-.399-.563-.56-.875-.166-.315-.576-.625-.475-.95.085-.3.43-.652.758-.673.218-.015.49.015.716.006.048-.001.11-.006.162-.01l.196-1.531a1.635 1.635 0 0 0-.385-.068c-.218-.01-.507.098-.701-.026-.263-.168-.43-.937-.354-1.215.1-.395.284-.77.475-1.132.1-.18.178-.322.299-.498.141-.207.1-.397.361-.471.184-.047.467-.007.729.072l.168-1.316c-.12-.07-.25-.148-.428-.186-.705-.153-.639-.201-1.113-.682h-.002l-1.053.883c.092.26-.097 1.12-.186 1.39h-.002c-.416 1.263-.283 1.585-1.748 1.132-.716-.219-1.129.15-1.297-.278l-.023-1.52-1.28.475-.001.002c-.1.732.034 1.516-.442 2.096-.156.195-.352.233-.591.254-.823.059-1.146.686-1.803-.184a4.453 4.453 0 0 0-.383-.464c-.182-.182-.378-.258-.275-.543.321-.885.228-.125.378-1.33h-.001l-1.403.27c-.13.444-.057.683-.638.704a22.35 22.35 0 0 1-1.346-.01c-.449-.015-.483-.36-.61-.74-.12-.354-.207-.834-.148-1.199.025-.153.007-.384.184-.484.2-.11.382.03.558.086.172.056.376.037.576.093.17.047.311.136.494.18.254.064.908.09 1.07.28.207.247-.057.801-.14 1.087l1.403-.267c.086-.699.616-.398 1.064-.325.494.08 1.125.066 1.629.07l-.088-1.408c-.4-.081-.814-.083-1.21-.136-.567-.075-.772.136-.737-.633.025-.401-.035-.966.049-1.326.106-.475.454-.193.873-.479.468-.327.525-.014.802.278.31.318.405.432.48.869.068.356.268.623.419.941.262.575-.304.563-.676.486l.09 1.409c.317.01.47.07.424.423l1.277-.476v-.06c.11-.555.38-.68.889-.737.256-.03.404-.125.638-.195.24-.074.452-.098.688-.145.352-.068.601-.143.797.016.09.074.17.195.242.398l1.057-.883c-.42-.424-.694-.5-.414-1.154h-.002c.224-.51 0-1.096.77-.99.562.074 1.024-.002 1.57.006l.251-1.979c-.024-.002-.036-.007-.062-.008-.369-.015-.752.157-1.147.192-.227.02-.452-.003-.68 0-.19.006-.574.086-.51-.186.092-.374 1.17-.94 1.49-1.216.12-.1.226-.205.347-.305l-.783-.932c-.292.236-.588.47-.903.666-.15.097-.291.31-.44.342-.441.1-.476-.388-.718-.848-.091-.17-.232-.39-.152-.576.083-.2.562-.635.746-.8l-1.162-.419c-.557.5-1.024.034-1.627-.293-.419-.226-.289-.524-.615-.955l-1.348.7c.115.513.313.624.025 1.187-.185.357-.383.525-.7.758-.354.265-.732.239-1.1.01-1.026-.649-.697-.367-1.057-1.174-.1-.227-.14-.376-.084-.629l-.004-.004-.002.004-.977-.814c-.225.222-.408.1-.677.255l.093 1.606c.944-.248.304 1.11.198 1.424-.067.197-.112.384-.17.57-.118.345-.212.784-.522 1.002-.235.16-.368.084-.609.066-.206-.015-.475.05-.688.067l.397 1.623c.475 0 1.028-.535 1.709.125.395.383.14.752.04 1.191-.04.207-.031.486-.015.701.091.861-.55.466-1.338.15-.177-.073-.329-.198-.484-.257-.39-.153-1.309.03-1.111-1.135.042-.25-.034-.336.133-.572.407-.613.498-.203 1.064-.203l-.395-1.623c-.291.035-.399.04-.49-.26a1.376 1.376 0 0 1-.033-.69c.067-.341.043-1.097.143-1.353.215-.537.913-.367 1.615-.639a4.69 4.69 0 0 1 .555-.187l-.096-1.606c-.507.295-.97.209-1.43.453-.604.322-.765.335-1.19-.24l-1.216 1.166.367.37c.1.103.238.347.238.497 0 .212-.112.41-.156.614-.142.663-.51.324-.982.238l-.914-.197c-.04-.008-.086-.008-.13-.012l-1.16 1.11 1.157-1.112c-.365-.03-.812 0-.533-1.08.138-.536.6-1.006.814-1.445.091-.183.183-.368.398-.39.124.105.133.372.227.528.294.477.449.654.672.877l1.215-1.164c-.187-.25-.184-.448-.31-.63-.151-.225-.469-.313-.372-.55.059-.138.349-.358.475-.44.215-.14.342-.254.539-.407l-.278-1.418c-.332.336-1.662 1.574-2.054 1.615-.51.056-.757-.45-1.117-.734a2.985 2.985 0 0 1-.457-.447c-.224-.278-.178-.409-.127-.739.075-.43.05-1.24.625-1.228.51.006 1.034.41 1.55.115.213-.124.429-.23.676-.254.467-.032.41.468.822 1.049.142.194.294.42.082.623l.28 1.418c.312-.244.75-.797 1.195-.664.236.077.337.252.647.29.268.033.545.079.816.132l.002-.002 1.584-.834c.034-.174.136-.501.232-.65.425-.614.093-1.034 1.178-1.497l-.371-1.318c-.557.321-.7-.07-.953-.424-.425-.587-1.32-.623-1.028-1.289l-1.154-.74c-.05.331-.122.52-.42.699-.347.215-1.296.749-1.6.354-.391-.513.033-.607.813-1.114.263-.159 1.12-.784 1.383-.752.118.2-.136.551-.178.81h.002l1.154.743a2.98 2.98 0 0 0 .21-.559c.041-.159.059-.516.2-.572l.551-1.203c.067-.304.57-.427.823-.51.171-.056.263-.155.427-.228.163-.071.334-.099.502-.155.363-.123.638-.44.815.13.13.436.27.51.426.863l1.289-.813c-.086-.12-.218-.657-.162-.799.066-.156.425-.162.722-.254.796-.244 1.07-.381 1.397.182.067.12.338.572.353.66l.955-.851c-.33-.593-.274-.494.852-.686.141-.023.254-.02.41-.053.135-.035.27-.05.418-.068.099-.009.279-.028.45-.025zm-11.28 10.953c.939.187.783 1.312.31 1.8l.001.003.004-.002.975.812c.045-.209.424-.773.629-.826.221-.056.452.023.674.03 1.126.061 1.425-.19 1.613.648l1.348-.7c-.127-.165-.298-.351-.168-.578.052-.085.257-.24.37-.328l-1.925-.361-.006-.002c-.247 0-1.496-.068-1.658-.133-.424-.17-.672-.757-.582-1.195l-1.584.832zm5.757.86 3.19.597v-.002l-3.188-.598-.002.002zm3.19.597c-.007.25-.321.551-.436.72-.141.209-.517.665-.71.834l1.16.42c.817-.73.922-1.827 1.497-.763.197.377.34.421.523 1.043.15.512-.211.67-.55.937l.78.932c.133-.112.283-.195.395-.295.213-.196.346-.272.434-.27l.234-1.843.006.007v-.003c-.1-.186-.264-.361-.322-.559-.092-.321-.066-.354-.262-.648h-.002l.002.003-2.75-.515zm3.333 1.722-.234 1.836c.144.01.159.235.199.479.366 2.067.242 1.668-.465 1.611l-.25 1.977c.038 0 .07-.004.108-.002.7.017.822-.025 1.17.62.297.546.418.768-.034 1.26l.008.003.002-.002 4.594.965c-.234-.734-.717-.654.377-1.788l-1.06-.757c-.107.224-.344.656-.544.797-.289.212-.772.05-1.105 0-.955-.142-.617-.398-1.006-1.008-.085-.124-.192-.272-.232-.416-.12-.412.188-.689.57-.717l-.084-1.252c-.458.138-.48-.308-.494-.637-.017-.542-.059-.485-.29-.924-.066-.135-.114-.338.018-.453.13-.115.68-.094 1.291-.35l-.65-1.263c-.274.015-.516.011-.77.14-.36.185-.717.616-1.119-.119zm2.54 1.243.607 1.183v-.008l-.606-1.177-.002.002zm.607 1.183c-.022.28.047.804-.239.897-.162.052-.306.068-.474.127-.144.056-.264.112-.42.156h.004l.084 1.252c.216-.015.387-.007.597-.065.204-.056.39-.093.602-.064.333.05.56.339.787.562.263.269.517.51.324.909l.002.002.002-.002 1.06.756-2.33-4.53zm1.95 6.32.003.002-4.598-.964c-.283.314-.594.541-.877.894l1.057.63c.616-.64 1.07-1.11 2.049-.977.156.023.468.096.625.134.247.062.345.073.423.332.113.348-.004.963-.136 1.305-.097.265-.495.637-.737.785-.338.2-.954.024-1.332-.035l.092 1.326c.78.127 1.16-.121 1.375 1.488.059.41.36.676.018 1.065-.313.354-.638.103-1.006-.018-.195-.062-.368-.147-.568-.15-.198-.003-.503.027-.68-.03-.448-.156-.604-.341-.418-.804.058-.16.155-.325.232-.484.076-.168.102-.354.184-.528.2-.436.341-.621.857-.539l-.091-1.326c-.425-.071-.693-.215-.956-.566-.312-.425-.3-.605.06-.979l-1.056-.629c-.343.433-.527.363-.75.235l-.168 1.314c.21.064.408.15.52.25.3.26.548.696.539 1.1-.006.445-.297.787-.395 1.226-.115.501-.157.866-.796.822-.1-.007-.196-.035-.291-.06l-.194 1.527c.621-.04 1.522-.177 1.29.6-.068.206-.096.356-.143.568-.042.216-.114.38-.17.58-.091.343-.158.735-.49.938-.188.111-.55.08-.825-.026l-.197 1.54c.035-.015.073-.04.104-.04.173-.009.338.11.486.19.306.183.8.163 1.275.75.333.418.2.617.094 1.055l1.29.359c.182-.483.233-.892.843-.906.92-.021.914-.299 1.353-.387h-.007l-.313-1.273c-.268.088-.362.142-.656.189-.846.139-.918.586-1.278.146-.135-.165-.19-.346-.347-.505-.098-.1-.368-.328-.412-.44-.103-.25.1-.407.207-.607.083-.142.164-.496.185-.658.025-.195.09-.549.14-.731.068-.254.126-.484.448-.404.319.077.31.166.715.177.247.01.566-.04.787.069.46.23.58.476.787.924.141.295.12.396 0 .693-.298.734.092.937-.574 1.147l.313 1.271 1.664-3.871c-.07-.032-.132-.089-.239-.176-.645-.528.084-1.25.364-1.361.202-.07.41-.129.617-.188l.713-1.658c-.022.008-.034.006-.059.016-.206.08-.406.103-.598.174-.153.065-.33.177-.486.248-.449.197-.61-.433-.758-.73-.093-.19-.144-.355-.215-.556-.085-.247-.074-.359.092-.568.554-.707.752-.764 1.574-.635.29.045.323.116.553.201.19.071.388.098.59.182l.504-1.127c-.365.02-.69-.327-1.299-.549-.737-.268-.667-.254-.894-.965l-.012-.001zm1.009 4.311.006-.002.71-1.652-.005-.002-.711 1.656zm.71-1.656.49-1.139-.503 1.13h-.004c.006.001.012.006.018.009zm-1.423 3.314-.742 1.725.005.004.745-1.73-.008.001zm-7.846 4.576-.006.002-.32 2.528.006.002.32-2.532zm-.32 2.532-.155 1.215c.11.005.238.006.307.011l.207-1.19a1.754 1.754 0 0 1-.36-.036zm-.155 1.215h-.005l-.246 1.923h.005l.246-1.923zm.672-5.286.338-2.66-.008.002-.336 2.656.006.002zm.532-4.187.423-3.338-.005-.002-.424 3.338.006.002zm.591-4.652.383-3.01h-.008l-.38 3.006c.002 0 .003.002.005.004zm.633-4.987.266-2.09h-.006l-.266 2.088.006.002zM22.42 24.82l-1.578 1.51.004.002 1.576-1.51-.002-.002zm12.508 8.27-3.012 1.12.002.003 3.01-1.123zm.343 20.037-.103.807.008-.008.101-.791-.006-.008zm9.215-42.092a.772.772 0 0 1 .287.002c.82.153.8.408 1.227 1.469.086.212.066.348-.043.545l.828.943c.27-.592.439-.916 1.008-.834.41.06.434.015.803-.098.289-.082.558-.041.847-.085.284-.041.414-.256.641-.309.471-.1.364.206.424.51.118.622.525.796.133 1.406-.112.171-.233.423-.354.576l1.043.692c.253-.363.543-.877 1.047-.774.255.05.505.109.766.129.233.023.568-.001.752.164.227.192.843 1.393.964 1.774.112.341-.067.441-.177.695l.004.006c0-.003 0-.004.002-.006l.859 1.512c0-.132.09-.281.125-.391.115-.342.196-.698.447-.984.192-.221.198-.18.496-.178.545.006.708-.133 1.176-.254.384-.094.746.253.717.621-.017.156-.29.878-.363 1.066l.003.002v-.002l.998.875c.145-.372.352-.731.481-1.119.183-.566.183-.664.879-.322.363.18.595.435.879.719.253.253.702.58.474.978-.106.183-.604.679-.779.832-.312.274-.518.49-.943.631-.413.139-.808-.219-1.008-.543h.002c-.295-.483-.233-.394-.059-.88.034-.106.043-.2.076-.294l-.002-.002-.001.004-.997-.877c-.166.406 0 .636-.453.907-.168.109-.34-.03-.511-.104-.185-.07-1.264-.303-1.538-.51l1.045 1.838c.523.041 1.215.143 1.358.547h-.002c.171.486.147.972.168 1.47a.46.46 0 0 1-.162.382l2.047 3.601c.258.009.327.006.613-.05.596-.121 1.459.015 1.494.699.017.304-.312.698-.504.922-.206.238-.162.15-.283.466-.017.048-.044.109-.068.168l1.716 3.022c.202-.185 1.046-.382 1.319-.438.427-.082 1.015-.353 1.433-.33.31.018.338.257.38.522.041.298.095 1.422-.016 1.664-.228.478-.304.978-.672 1.105-.222.074-.434-.139-.623-.23-.421-.224-.986.105-1.383.244l-.006 1.418c.568.146.963.003 1.514-.03.336-.026.427-.037.625.231.135.18.235.298.326.51h.002c.085.209.217.418.13.637a2.02 2.02 0 0 1-.324.505c-.376.422-.64.488-1.197.502-.787.006-.902.369-1.135.504-.465.274-.573-.763-.644-1.002-.12-.412-.651-.522-.197-1.134l-1.028-.625c-.548.442-.603.185-1.183.156-.622-.027-.625.242-1.112.386-.433.121-.634-.348-.843-.64-.272-.383-.383-.634-.041-1.049.339-.407.545-.469 1.076-.41.878.1.652.05 1.41.082.44.015.837-.016 1.078.441.127.25-.178.866-.38 1.034l1.023.625h.002c.252-.351.368-.851.896-.723l.006-1.418c-.615.213-.761-.608-.705-1.024.05-.41-.009-1.24.271-1.511l-.002-.002-.002.002h-.002l-5.378-4.375h-.002c-.353.269-.58-.148-1.245-.237-.6-.082-.837.225-1.156-.48-.132-.286-.267-1.075-.252-1.39.009-.222.076-.44.203-.62.172-.233.34-.215.62-.18.464.056 1.114.027 1.597.024l-.25-1.346h.002v-.002c-.612.024-.792-.285-1.385-.111-.227.064-.458.114-.675-.018-.454-.282-.433-.707-.274-1.158.075-.2.203-.33.283-.515.127-.292-.025-1.241.487-1.13.14.027.32.251.545.272.104.012.29.02.502.037l-1.047-1.842c-.008-.005-.03-.011-.035-.017a.202.202 0 0 1-.06-.147l-.858-1.513c-.3.657-.214.846-1.034.617-.27-.08-.377-.192-.71-.213-.97-.056-1.153-.14-1.663-1.072l-1.154.644c.058.102.114.199.186.297.345.487.11.681-.207 1.106-.12.156-.27.277-.399.427-.206.242-.23.215-.523.303-.224.077-.532.351-1.092.56-.56.204-.56-.519-.799-.82-.062-.075-.121-.132-.172-.195l-1.18.658c.184.22.365.531.424.668.16.368.42.797.14 1.18-.164.22-1.065.203-1.362.226-.257.027-.483.066-.745.069-.248 0-.496-.053-.738-.028-.283.039-.394.057-.556-.197-.033-.059-.077-.16-.13-.262-.054-.106-.116-.211-.136-.275-.147-.454.165-.781.348-1.152.306-.61.51-.434 1.105-.434.278 0 .5.098.717.098.212 0 .473-.147.65-.123.082.011.183.109.283.228l1.178-.658a.367.367 0 0 1-.076-.353h-.002v-.002c.035-.103.873-1.316 1.023-1.457.254-.242.34-.15.643-.186.257-.027.455-.086.703-.127.406-.07.561.174.715.445l1.148-.64c-.321-.572-.332-.766.051-1.326l-1.043-.69c-.162.204-.12.363-.361.555-.177.141-.37.306-.604.324-1.3.088-1.119-.057-1.888-.918l-.953.89-.002-.003-.004.004c.41.521.616.74.369 1.152-.25.401-.318.715-.672 1.074-.369.38-.952.177-1.447.168-1.135-.029-1.7-.12-1.16-1.08.086-.15.127-.45.203-.654h.004c.083-.21.186-.392.283-.592.185-.392.222-.817.79-.943l.808-.04c.358.086.606.636.826.91l.953-.888.002.002.004-.004c-.43-.471-.857-.68-.647-1.125l-.828-.943c-.34.566-.384.708-1.197.787-.566.05-.469-.206-.863-.486-.377-.26-.595-.318-.297-.813.286-.48.304-1.389.888-1.504zm5.637 6.783-3.006 1.68.002.002 3.006-1.678-.002-.004zm-4.184 2.338-2.966 1.658 2.966-1.656v-.002zm9.606-.797.094.164c.001.002.006.003.007.004l-.1-.175-.001.007zm1.14 2.006 1.364 2.4.004-.001-1.362-2.399h-.005zm1.364 2.4c-.21.181-.575.22-.846.225l.25 1.346c.372-.003.38-.067.656.184.177.155.213.283.319.486.297.572.084.69-.149 1.203-.085.191-.2.341-.261.535l1.296.37c.207-.369.168-.763.729-.749h.05l-2.044-3.6zm2.045 3.6 1.256 2.211c0-.002 0-.004.002-.006L60.1 27.365h-.006zm1.256 2.211c-.047.113-.104.224-.188.276-.177.106-.4-.02-.558-.096-.658-.336-.82-.074-1.557-.676-.336-.271.102-.672.267-.967l-1.296-.367a.835.835 0 0 1-.332.473l5.377 4.37-1.713-3.013zM47.113 11.312c.249-.035.253.05.453.07.148.022.333.017.418.136l-.28.253c-.455.413-.832-.126-.59-.459zm4.793 1.577c.213-.014.804.362.93.406.395.139.969.227.91.55-.133.068-1.262.054-1.451.016v-.002c-.319-.061-.594-.715-.453-.94.012-.019.034-.028.064-.03zm-19.07.972c.14-.007.292.043.572.055.248.003 1.12-.124 1.205.1.084.197-.066.367-.11.529-.117.462-.033.744-.388 1.68l1.17.31c.22-.533.141-.191.377-.943.354-1.117.53-.628.984-.348.304.186 1 .563 1.303.725.446.23.368.43.067.77-.407.453-.49.613-1.037.427-.092-.032-.204-.044-.3-.059-.173-.026-.435-.053-.591-.097-.2-.056-.307-.111-.526-.135-.227-.027-.403-.028-.277-.34l-1.17-.308c-.154.407-.673.27-1.006.209-.318-.066-.862-.062-1.095-.284-.242-.226-.263-.827-.157-1.113.107-.3.248-.667.487-.89.227-.216.353-.28.492-.288zm22.416.805a.342.342 0 0 1 .172 0s1.226.764 1.355.85c.345.224.906.482.85.754-.034.168-.285.114-.412.11-.516-.014-.596.172-.942.198-.403.033-.439-.255-.566-.54-.225-.532-.739-1.273-.457-1.372zm-32.533 1.438c.106.028.2.142.35.328.566.727-.914.947-1.397.53-.009-.235.1-.238.256-.38.126-.115.233-.186.369-.295.198-.156.315-.212.422-.183zm3.342.546a.358.358 0 0 1 .267.059c.212.159.5.722.55.979.068.27.043.339.208.578.126.186.233.342.197.584-.025.2-.142.366-.213.552h.002c-.067.21-.067.434-.353.428-.085 0-1.14-.267-1.262-.314-.51-.186-.56-.91-.943-1.364-.137-.156-.33-.296-.264-.517.05-.16.237-.317.37-.414.262-.177.34-.097.595-.176.224-.07.557-.355.846-.395zm6.664 1.196c.189.02.406.08.562.08.257 0 .836-.174.928.156.033.142-.085.855-.1 1.076-.017.283-.134.73-.24.992-.206.499-.235.4-.715.498-.176.033-.349.144-.455-.039-.136-.22-.205-1.208-.252-1.545-.025-.206-.173-.924-.13-1.066.049-.155.212-.173.402-.152zm19.156 1.513c.197.027.383.186.572.221v-.002c.852.148.603.163 1.19.317.931.241.393 1.02.293 1.457-.086.374-.158.75-.467 1.021-.28.254-.91.266-1.276.213-.326-.047-.335-.75-.463-1.049-.132-.31-.347-.84-.347-1.17 0-.257.12-1.055.498-1.008zm-33.2.323c.017.224-.262.597-.53.5-.06-.213.318-.515.53-.5zm31.276 1.47c.11-.004.217.052.332.227.124.177.128.333.184.539.253.908.347.853-.397 1.375-.15.103-.248.2-.39.314-.148.119-.305.157-.432.254-.272.21-.74-.167-.902-.388-.199-.266-.403-.546-.54-.856-.152-.353.125-.737.458-.855.173-.065.367-.094.558-.162.17-.059.34-.135.504-.188.252-.077.442-.253.625-.26zm12.863.118a.318.318 0 0 1 .145.013c.274.095 1.762 2.103 1.771 2.32.006.263-.93.216-1.12.22-.54.011-.652.007-.95-.427-.292-.415-.93-.876-.793-1.177.091-.21.496-.556.652-.721.096-.1.17-.209.295-.228zm-44.086.166a.713.713 0 0 1 .295.007c.142.042.75.583.88.721.395.41.574.47.196.965-.595.77-.672 1.165-1.353.752-.693-.413-1.403-.07-1.8-.6-.101-.139-.148-.352-.268-.535-.115-.18-.223-.384-.114-.594.103-.197.31-.244.532-.283.232-.04.415-.106.636-.15.268-.051.669-.235.996-.283zM60.85 22.95c.12.044.485.684.605.828.106.139.262.228.318.393.163.43.171.75-.12 1.139-.354.48-.106.662-.784.644-.236-.01-.475.006-.71 0-.54-.01-.526-.376-.753-.703-.525-.75-.142-.89.127-1.498.236-.542 1.093-.874 1.317-.803zm-45.252.735c.12.162.142.117.142.359-.006.233-.274.923-.363 1.156-.042.121-.09.238-.13.36-.122.33.04.925-.745.462l-.62 1.073c1.248.486 1.03.704.667 1.43-.299.595-.558 1.262-1.324 1.318-.304.02-1.02.173-.868-.37.042-.167.14-.29.229-.435.084-.141.447-1.063.615-1.379.159-.306.227-.744.68-.564l.619-1.073c-.524-.303-.235-.584.176-1.232.144-.227.261-.388.383-.615.123-.242.23-.49.539-.49zm29.25.035c.948.165 2.48-.342 2.244.537-.112.415-.438.527-.627.828l.709 1.228c.147-.21.504-.611.707-.75.283-.189.594-.634.922-.23.566.695.43 1.263.537 1.676.058.215.2.325.015.552-.324.41-.586.301-.996.463-.241.092-.827.316-1.02.434l.745 1.01c.502-.187.672-.01 1.24-.36.581-.354.742-.348.91.295.12.463.666.549.62 1.006-.017.189-.191.377-.303.527-.144.212-.167.294-.442.362-.12.03-.572.075-.716.078-.269.015-.369.115-.602.209-.516.21-.965-.782-1.283-1.133-.091-.1-.424-.383-.424-.383-.115-.297.273-.316.453-.357.253-.056.348-.17.545-.244l-.742-1.01c-.52.336-.385-.74-.39-.97-.006-.581-.149-.662.22-1.175l-.707-1.228c-.257.419-.278.677-.826.586-.516-.091-.87-.35-1.055-.397-.26-.065-.701-.065-1.07-.404-.249-.224-.305-.885-.01-1.04.139-.078 1.163-.14 1.346-.11zm6.85.174c.155-.02.23.038.437.076.327.05 1.493-.112 1.715.502.106.294.075.922-.163 1.146-.383.357-.673.27-1.162.34-.433.056-.865.06-1.316.129-.272.044-.37.08-.57-.133-.1-.109-.242-.31-.29-.451-.176-.478-.156-.675.26-.979.307-.227.534-.45.897-.58a.92.92 0 0 1 .191-.05zm-34.665.982c.06 0 .145.033.266.107.212.127.523.324.771.354.304.038.664 0 .815.322.15.303.066.614-.084.897-.18.341-.447.338-.795.267-.823-.168-1.862.265-1.535-.654.05-.139.067-.269.138-.416.059-.132.144-.218.2-.36.084-.243.045-.52.224-.517zm47.1.338c.231-.008.462-.01.533.004.516.088.594 1.308.535 1.715-.058.383-.572.271-.885.26-.241-.012-.842.002-1.02-.092-.745-.39-.791-.66-.388-1.381.127-.215.44-.416.688-.469.074-.015.305-.03.537-.037zm-31.778.254c.154-.014.361.08.727.285.81.46.421.719.787 1.24.11.156.277.254.233.463-.076.315-.848.032-1.166.105-.454.103-.47.307-1.041.313-.342.003-.929-.084-.758-.576.112-.316.253-.629.445-.903.416-.587.518-.905.773-.927zm11.407.957a.53.53 0 0 1 .162.015c.148.033.293.143.46.184.151.044.348.1.495.158.504.207.611.336.611.701-.017 1 .319 1.793-.55 1.99-.433.098-.656-.086-.93-.374-.157-.165-.51-.532-.59-.727-.17-.386-.025-.77-.006-1.18.015-.307.017-.74.348-.767zm-15.62.342c.169.054.321.326.489.455.218.17.466.324.687.486.31.235.502 1.085-.615 1.262-.312.052-.73.176-1.043.07-.282-.085-.582-.303-.49-.645.067-.262.298-.476.392-.777h-.001c.23-.743.414-.906.582-.851zm25.48.275c.09.011.168.095.237.316.213.684.348.65.192 1.028-.328.828-.781.692-1.227.787-.198.044-.261.157-.418.224-.44.192-.519-.433-.63-.687-.076-.183-.44-.583-.573-.766-.343-.475.475-.427.475-.427a20.87 20.87 0 0 0 1.394-.23c.218-.084.399-.264.55-.245zm-33.571.43c.255.006.51.22.88.283.171.032.41.096.575.158.33.115.95.154 1.183.305.369.239.283.76.075 1.088-.545.855-.683.203-2.387.527-.949.183-.523-.666-.809-1.332h.002c-.075-.186-.212-.369-.156-.572.05-.168.235-.287.377-.381a.446.446 0 0 1 .26-.076zm46.84.289c.241.04.604 1.05.71 1.289.151.339.199.252.284.662.083.374.212.493-.29.508-.766.023-.545-.307-.68-.834-.034-.115-.107-.21-.157-.325-.091-.23-.182-.507-.262-.74-.091-.289.105-.607.395-.56zm-50.498.297a.732.732 0 0 1 .183.01c.9.15 1.284-.241 1.815.61l.002-.001c.144.236.233 1.83.025 2.187l1.09.89c.198-.83 1.056-.348 1.996-.548.312-.065.78-.238.967.127.14.283.112 1.643-.616 1.81-.264.06-.952.07-1.22.018-.325-.062-.518-.295-.707-.555-.18-.25-.498-.51-.418-.85h-.002l-1.09-.892c-.109.186-.3.26-.51.283-.25.027-.498.082-.74.082-.496.003-.99.26-1.328-.123h-.006v.002h.002l-.703 2.248.91.102c.141-.513-.017-.79.666-.828.227-.015.483-.009.707-.031.237-.018.463-.08.701-.03.478.11.373.548.555.946.22.48.423.563.17 1.175l1.183.496c.042-.123.126-.28.205-.382.148-.195.184-.19.42-.213.183-.018 1.035-.074 1.147 0 .2.127.1.596.328.908.177.241.311.605.016.826-.136.095-.318.077-.489.098-.383.056-1.046.48-1.453.424-.333-.047-.56-.413-.474-.743.041-.147.113-.284.175-.431.076-.198.06-.313.121-.486l-1.18-.497h-.001c-.12.301-.192.85-.54.942-.17.05-.44-.045-.667-.04-.218.007-.468.026-.656-.107-.342-.23-.429-.558-.641-.867-.268-.395-.43-.663-.297-1.158l-.906-.104-.604 1.93c.363-.047.363.015.637.186.191.123.286.213.453.369.61.566-.152 1.047-.43 1.613-.212.422-.112.624-.953.719-.637.07-.712.489-1.207-.006l-.707.25.703-.25c-.548-.551-.1-.298-.58-1.082a.807.807 0 0 1-.093-.666h.002c.041-.212.176-.353.326-.51.362-.38.482-.029 1.277-.377.168-.074.403-.228.57-.246l1.307-4.178-1.244.381c.625.676.356.967.094 1.817h-.004c-.222.7-1.284.366-1.711.779-.127.124-.282.368-.438.4-.233.048-.396-.18-.46-.37-.092-.263.05-.371-.169-.669-.13-.182-.32-.299-.234-.552.115-.33.447-.724.61-1.051.232-.475.47-.611 1.005-.653.156-.015.666-.053.801-.033.183.021.38.2.502.332h.004l1.244-.383c-.222-.268-.62-.724-.498-1.078.135-.38.37-.736.475-1.146.095-.39.194-.791.582-.824zm47.394.431c.11 0 .221.022.324.051.192.065.412.067.61.082.657.06.448.28.666.81.494 1.2.005 1.18-1.221 1.333-.48.059-.693.24-1.111.343-.601.142-.978-.57-.43-1.213.26-.3.517-1.159.844-1.33a.637.637 0 0 1 .318-.076zm-29.824.477c.243-.02.47.024.633.224.162.2.155.451.1.696-.05.21-.113.524-.122.734 0 .18-.005.61-.09.766-.185.342-.886.312-1.252.424-.646.203-.579.44-1.109-.188-.268-.324-.38-.75-.574-1.115-.059-.115-.247-.442-.324-.528-.112-.135-.385-.363-.229-.564.127-.165.52-.094.711-.104l1.537-.195c.22-.05.476-.131.719-.15zm21.273.361c.104-.01.209-.007.297.002.58.068.464.187 1.197.172.236-.01.372-.04.55.144 0 0 .242.294.294.391.145.269.136.894-.025 1.15l1.119.625c.058-.288.192-1.038.596-.964.206.032.312.182.601.197.236.015.425.047.653.127.474.177.615.162 1.007.539.383.375.319.7.059 1.137h-.002c-.148.245-.141.323-.162.609-.017.245-.008.443-.313.473-.353.026-.978-.18-1.367-.203-.905-.045-.536-.004-.904-.653-.242-.415-.272-.801-.172-1.261l-1.121-.625c-.253.412-.348.471-.828.498-.304.017-1.034.102-1.24-.11 0 0-.446-.739-.504-.86-.298-.589-.694-.874-.018-1.304a.675.675 0 0 1 .283-.084zm-1.963 1.21c.253.063.44.311.536.567.291.778.105.312.447.957.507.955-1.049 1.099-1.39 1.196-.467.138-.587-.146-.823-.483-.103-.147-.175-.282-.283-.43-.106-.146-.242-.278-.203-.476.033-.183.398-.706.53-.871.234-.283.576-.362.915-.457a.527.527 0 0 1 .271-.004zm-3.166.763h.002l.221 1.375c.156.034.302.254.367.386.39.793.838 1.092.084 2.083-.174.226-.336.143-.601.14-.722-.012-1.416.033-2.153-.082-.297-.044-.22-.26-.115-.473.091-.18.128-.368.207-.539.46-.993.277-1.102.99-1.244.378-.073.816-.353 1.22-.271l-.222-1.375zm17.913.222c.283.036.458.121.55.4.042.116.043.273.076.397.034.118.066.23.096.356.127.522.173.417.223.703.085.457-.115.395-.469.36-.283-.03-.582.04-.838-.102-.239-.136-.127-.55-.133-.79 0-.471-.257-1.432.495-1.324zm-11.047 1.428c.508-.004.683.179.683 1.072 0 .357-.213.486-.431.737-.236.274-.41.398-.772.469-.368.07-.605-.1-.767-.416-.278-.546-.994-.792-.278-1.532.321-.333.525-.248.938-.283.25-.024.457-.046.627-.047zm-4.342 1.772a.531.531 0 0 1 .289.007c.469.127.605.015 1.03.31.217.144.53.451.655.68.186.349.002.738-.21 1.024l.71 1.086c.313-.425.787-1.228 1.208-1.242.993-.03.83.256 1.037.586.112.18.188.33.283.51.36.672-.1 1.188-.342 1.804-.39.996-.748-.11-1.64.303-.514.236-.514-.38-.712-.852-.277-.677-.24-.553.166-1.107h-.001l-.71-1.088c-.571.767-.807.626-1.24.399-.692-.357-.29.088-1.127-.88-.318-.368.084-.592.186-.937.075-.259.178-.534.418-.603zm14.715.185a.289.289 0 0 1 .123.006c.471.121.333.2 1.197.256.99.062.582.425.895 1.984.12.602-.323.628-.791.557-.26-.035-.956-.177-1.174-.283-.257-.13-.533-.565-.61-.83-.112-.392-.553-.53-.25-1.004.134-.199.333-.638.61-.686zm-56.356.053c.328.112.386 1.047.067 1.15h-.002c-.375.127-.274-.3-.248-.513.025-.186.034-.51.183-.637zm39.28 1.756c.262-.003.352-.024.57.135a.624.624 0 0 1 .23.457c-.003.309-.377.65-.574.857l.912.947c.212-.248.517-.74.885-.763.384-.024.923.21 1.135.543.198.304.348.972.318 1.337l4.983 1.456c.2.091.161.19.625.228 1.131.077.608.061 1.388.309.278.088.42.1.71.132.459.053.764.582.593 1.018l1.555.412c.641.086 1.046.002 1.656-.004.248-.006.573-.123.72.127.178.303-.134.699.462 1.268.212.2.388.207.261.56-.083.245-.608.729-.808.926-.33.321-.672.669-1.147.43l-.004.01.371 2.095c0-.003-.002-.004-.004-.008l.002.008c.207.587-.226.824-.273 1.33-.025.245-.026.471-.258.604-.363.218-.863.342-1.267.44-.213.052-.392.168-.596.242-.194.072-.273.007-.313-.1l-.947 1.867c.392.404.19.79.406 1.244.198.413.49.785.192 1.225l.861.892c.69-.699.484-.298 1.094-.248.156.01.383-.034.394.162.017.169-.09.255-.191.358-.112.12-.14.196-.225.32-.083.112-.998 1.192-.998 1.192-.227.123-.462-.33-.58-.493-.25-.333-.283-.382-.025-.73.136-.177.367-.396.53-.56l-.86-.893c-.106.165-.63.763-.787.834-.142.073-1.403.033-1.604-.006l-.207 1.352c.135-.016 1.291.1 1.406.144.339.127.459.634.606.932.164.339.513.712.156 1.062-.617.596-.868.733-1.605.725-.788-.006-.968.238-1.116-.305H58.9c-.12-.448-.509-1.577-.261-1.904.14-.177.523-.625.812-.654l.207-1.352c-.43-.094-.65-.658-.574-1.047l-1.541.684c.03.015.05.02.088.04.277.145.246.09.437.354.127.171.222.358.162.57-.085.28-.482.669-.736.801-.162.089-.51.11-.701.116-.127 0-.275-.012-.397 0-.377.02-.582.363-1.199-.592l-.64 1.062h-.002c.403.48.141.676-.086 1.121-.18.354-.228 1.601-1.065 1.227-.347-.16-.22-.163-.642-.166-.507-.01-.625-.449-.766-.85l-1.107.7v-.002l-.004.001c.34.616.239.706-.11 1.243-.224.345-.375.789-.728 1.025-.242.168-.906-.341-1.178-.447-.48-.195-.87-.085-1.127-.633-.177-.386-.243-1.09.143-1.365.115-.086.467-.213.617-.266.262-.094.335-.204.553-.307.297-.132.927-.586 1.27-.43l.003-.001c.324.14.426.93.56 1.18l1.108-.7v.002l.004-.002c-.067-.185-.145-.427-.227-.607-.085-.183-.263-.339-.257-.54.008-.185.043-.167.199-.236v-.001l-.004.002-.295-1.295c-.4.26-.567-.379-.764-.766-.147-.295-.586-.706-.539-1.074.042-.287.52-.71.752-.865v-.002l-.004.002-.715-1.106c-.216.305-.317.464-.605.723-.796.722-1.7-.286-1.771-.48-.145-.41.042-.737.05-1.188h-.006c.009-.313-.12-1.036.41-.936l.258-1.183c-1.05.02-.963-1.035-.689-1.227.15-.103.736-.122.951-.143.203-.017.92-.054 1.082-.025.427.098.41.73.625 1.045.425.634-.298.494-.887.379-.239-.05-.813-.039-1.082-.03l-.255 1.184c.147.036.325.157.472.207.53.197 1.607-.206 1.615.451.009.402.076.873-.17 1.221l.002.002.002-.002.717 1.106c.481-.32.72-.041 1.158.173.776.381 2.176.195 1.413 1.362-.251.39-.541.477-.936.666-.484.236-.356.11-.604.195-.256.088-.289.182-.48.309v.002l.004-.002.295 1.295c.403-.172.607-.16.842-.342.233-.183.26-.186.545-.26.162-.041.503-.19.644-.154.036.008.085.048.133.084l1.187-.528c-.2-.27-.403-.528-.3-.896.041-.16.164-.364.228-.541.084-.21.017-.512.324-.465.136.023.284.195.57.236.794.1.672.257 1.182.4.207.055.31.09.471.169h.002l1.537-.684.492-1.142c.142-.36.208-.89.592-1.036l-.451-1.244c-.384-.035-1.013-.889-1.283-1.086-.127-.09-.369-.196-.451-.32l-.854.95c.091.032.404.347.404.347.298.303 1.192.688 1.157 1.15-.017.16-.172.367-.248.518-.186.38-.152 1.466-1.036.959-.312-.177-.707-.386-1.06-.469-.28-.071-.958.156-.54-.793.171-.392.091-.817.344-1.191.172-.256.655-.634.979-.522l.852-.949c-.157-.227.041-.37.162-.531.206-.277.66-1.388 1.021-1.309.106.027.305.237.518.27.244.038.423-.016.677.105.363.174.32.866.393 1.193.059.272.295 1.12.168 1.32-.075.139-1.022.378-1.201.358l.45 1.244c.22-.082.474-.028.7-.129.263-.109.368-.167.58.059l.955-1.88c-.031-.097-.038-.222-.048-.323a1.84 1.84 0 0 0-.204-.672c-.16-.312-.327-1.067.051-1.285l-.814-.94v-.002c-.384.11-.867-.273-1.268-.4-.575-.174-.22-.763-.22-1.246.005-1.097.723-.99 1.22-1.324.156-.106.384-.188.56-.274.204-.094.467-.245.602.037.05.098.058.216.106.325.042.091.092.19.133.287.1.236.074.368.25.61.516.698.735.61-.297 1.376-.287.21-.75.508-1.084.611l.812.94c.348-.21.758-.396 1.112-.602.276-.156.552-.449.83-.552l.595-1.174c-.352-.175-.457-.69-.507-.809-.042-.085-.122-.16-.178-.246-.136-.212-.107-.452-.213-.67l-.285-.59c-.133-.297-.75-1.094.04-.994l-1.548-.412h-.004c-.135.333-.63.56-.928.754-.41.268-.51-.003-1.261.451-.398.239-.75-.324-1-.566-.516-.496-.618-.284-.573-1.116.009-.33-.18-1.494.446-1.209l-4.979-1.457h-.002c-.025.242-.489.809-.66 1.024-.189.239-.155.25-.438.398-.2.106-.488.05-.736.106-.701.16-.816-.5-.922-.735h-.002c-.298-.642-.742-.655-.398-1.04.262-.295.56-.575.816-.87l-.914-.945c-.191.188-.483.589-.672.725-.28.203-.88-.105-1.19-.143-.447-.065-.722.01-.907-.506-.106-.307-.126-.967-.016-1.273.12-.337.862-.23 1.166-.23.454 0 .939-.016 1.399-.024zm14.466 10.377.002.01.002-.002-.002-.008h-.002zm.002.01-.588 1.16c.315-.113.632.027.957.925l-.369-2.085zm-.588 1.16c-.003 0-.006.002-.01.004L62.4 51.7c.002.004.001.008.002.012l1.748-3.45zM53.88 58.139c.227.168.55.57.676.724l.642-1.06a3.595 3.595 0 0 0-.13-.19l-1.188.526zM25.865 36.906c.134-.005.262.046.422.266l.559.978c.12.384-.136.86-.307 1.2h.002l2.111 3.777c.331-.044.356.052.618.117.33.08.963-.04 1.267.195.277.222.177.967.135 1.286-.195 1.377-1.045.81-1.873 1.084-.227.074-.807.618-.934.123-.042-.148-.066-1.268-.04-1.424.041-.23.015-.357.17-.551.191-.253.268-.767.655-.83l-2.11-3.775c-.12.241-.247.239-.503.242-.749.011-1.21.23-1.316.224-.192 0-.332-.199-.442-.338-.162-.209-.162-.32-.197-.578h.002c-.033-.27-.1-.34-.197-.566-.095-.206-.353-1.08-.256-1.25.13-.216 1.375-.113 1.785-.115.177 0 .315-.06.45-.065zm-8.672.098c.173-.032.38.055.801.086.227.015.361.01.541.174.681.624.282 1.165.238 1.59-.025.233.051.44.018.681h-.002c-.067.486-.632.062-1.027.059-.51-.003-.71.053-1.14-.256-.278-.2-.727-.428-.556-.84.067-.156.202-.253.305-.389.13-.165.128-.31.234-.478.278-.444.416-.595.588-.627zm14.508.244c.241-.051.577.2.842.23.399.045 1.02-.013 1.453.004.52.015.601.268.707.725.136.592-.374 1.626-1.281 1.617-.466-.006-.623-.278-.895-.582a5.307 5.307 0 0 1-.6-.853c-.147-.295-.608-.633-.43-.97.052-.103.124-.154.204-.171zm-20.773.393c.34.015.277.223.394.482.095.215.267.326.364.523h.002c.094.198.198.51.128.72-.11.3-.285.303-.539.353-.554.103-.968.245-.8-.748.041-.269.016-.606.033-.877.017-.325.058-.465.418-.453zm11.043.127c.097-.014.18-.01.236.023.474.28.227 1.004.51 1.773h-.002c.156.413.901 1.018-.676 1.024-.36 0-.96.11-1.316.183-.622.14-.827-.13-.729-.734h.002c.075-.471.277-.684.307-1.209.033-.572.26-.598.763-.758.193-.062.613-.261.905-.302zm38.957.484a.529.529 0 0 1 .18.01c.503.112.163.751.435 1.146.218.3.417.803.37 1.178-.076.648-.59.408-1.03.322-.513-.1-.555-.197-1.25-.306-.737-.119-1.317.02-1.246-.36.025-.109.213-.369.27-.537.306-.837.375-1.206 1.136-1.197.248 0 .486.003.728-.082.164-.058.253-.154.407-.174zm-30.893.02c.427-.053.473.388.963.984.206.253.695.89.742 1.203.05.362-.04.466-.226.74-.224.322-.557.908-.985.961-.318.03-.459-.133-.736-.219-.274-.085-.567-.105-.855-.134-.178-.015-.478-.231-.575-.381-.067-.107-.113-.572-.2-.77-.134-.277-.354-.339-.296-.648.059-.304.189-.427.29-.684.111-.294.034-.465.39-.592.378-.133 1.108-.413 1.488-.46zm37.283.312c.106.017.274.16.395.207.236.094.918.05 1.01.799.033.333.16.713-.102.99-.233.248-.51.247-.758.412-.247.162-.573.43-.765-.006-.168-.374-.108-.624-.235-.95-.132-.331-.398-.5-.162-.895h.002c.127-.213.345-.607.615-.557zM13.61 39.658c.175.002.36.057.534.082.383.062.88-.064 1.14.19.348.341.136.638-.008.98h-.004c-.23.525-.595 1.648-1.242 1.203-.483-.336-.546-.165-.994-.318-.368-.127-.373-.654-.293-.979.075-.291.218-.67.395-.923a.528.528 0 0 1 .472-.235zm51.68.553c.047-.001.085.005.11.023 0 0 .129.39.185.493.085.164.176.267.268.414.115.189.092.362.142.56.042.17.165.358.094.541-.177.477-1.922.103-2.402.174-1.18.18-.675-1.165-.233-1.486.189-.133.304-.118.496-.192.222-.087 1.013-.518 1.34-.527zm-17.33.17a.696.696 0 0 1 .186.017c.554.113 1.439 1.058 1.798 1.5h.002c.384.472.298.644-.084 1.069-.212.239-.524.74-.822.834-.232.077-.39.084-.652.181-.313.115-.382.004-.53-.238-.108-.174-.165-.422-.2-.625-.043-.215-.29-1.137-.37-1.29-.247-.481-.015-.664.305-1.17.108-.173.205-.267.367-.278zm-30.879.49c.155.013.358.09.488.11.599.076 1.454-.139 1.407.873-.009.224-.228.952-.37 1.126h-.003c-.321.41-.685.152-1.192.327-.18.056-.384.097-.549.185-.438.245-.507.37-.92-.152-.156-.189-.22-.319-.11-.567.155-.344.279-.683.485-.996.107-.156.158-.34.258-.496h.004l.367-.398a.312.312 0 0 1 .135-.012zm16.623.22c.445.107.747.887.94 1.227.12.21.464.778.287 1.008-.228.289-.791-.034-1.034-.146-.4-.183-.757.01-1.146.07-.313.053-.994-.056-.844-.502.162-.504.899-1.151 1.303-1.496.181-.156.346-.195.494-.16zm-7.55.046c.803 0 1.367 1.011 1.03 1.724-.173.363-.418.59-.84.602-.488.003-.992.016-1.482.016-.843-.012-.744-.88-.941-1.307-.084-.183-.235-.269-.158-.496.115-.35.447-.242 1.072-.377.177-.035.41-.14.578-.158.2-.021.525-.007.74-.004zm-15.339.01c.066.003.15.014.26.035.15.026.34.145.42.277.086.139.066.441.016.61-.042.173-.141.278-.24.431-.084.13-.153.312-.313.377-.253.103-.318-.119-.353-.31-.05-.248-.14-1.049-.06-1.247.045-.121.073-.184.27-.174zm45.479.126c.278 0 .54.034.668.186.174.197.059.435-.008.656-.404 1.274.165 1.176-.63 1.801-.29.227-.707.45-1.055.55-.448.13-.292-.34-.73-.85-.856-.991-1.108-1.06-.143-1.9.533-.468.377-.454 1.134-.42.192.013.486-.022.764-.023zm12.59.756c.309.039.524.483.607.748.192.637-.117 1.176-.176 1.744-.033.342-.006.667-.808.479-.324-.077-.454-.602-.87-1.129-.179-.239-.512-.524-.462-.863.042-.236.545-.497.758-.582.158-.062.356-.104.504-.186.144-.083.26-.237.447-.21zm-46.557.053c.179.026.31.135.373.47.034.216.068.432.113.653.034.174.63 1.235-.113 1.662-.504.295-.653-.212-1.224-.127-.399.06-.865.06-1.15-.289l-1.284.447c.333.596.287.72.277 1.4-.006.57-.202.867-.332 1.368l.002.002.002.002 1.276.51c.075-.242.091-.307.2-.55.148-.311.14-1.033.253-1.21.182-.298.448.176 1.105.164.213-.003.47-.058.653.072.13.095.331.207.418.33.232.334.29.739.066 1.096-.191.31-.368.708-.772.693-.545-.015-.802-.106-1.318.13-.183.085-.327.182-.539.179-.038-.001-.066-.011-.098-.018l1.166 1.309c.232-.096.816-.432 1.084-.254.263.174.214.227.31.492l1.108-.77c-.129-.184-.227-.302-.156-.54.112-.351.274-.635.574-.856.198-.147.395-.082.614-.052.368.056 1.028-.169 1.332-.045.206.082.213.275.293.455.156.365.282.681.388 1.064h.002c.075.265.115.365-.137.51-.359.221-.768.252-1.175.258-.228.009-.38.08-.586.148-.566.174-.562-.206-.865-.51-.12-.12-.186-.288-.284-.43l-1.107.768c.075.207.157.375.23.573.153.4.545.58.395 1.095-.03.097-.06.18-.084.266v.002l1.041 1.166c.153-.237.322-.506.375-.658.233-.681.313-.49.879-.75.368-.171.728-.354 1.105-.498.284-.113.419-.054.47.244.132.734.871.963.116 1.638-.274.245-.56.572-.834.793-.548.441-.824.142-1.42.006l3.448 3.867c.165-.142.245-.173.492-.226l-.53-1.129c-.47.262-.602-.163-.714-.525-.106-.33-.52-.687-.412-.979.094-.25.49-.534.703-.7.984-.76.8-.31 1.375-.109.99.351.981.523.642 1.104-.203.339-.233.574-.658.748-.519.215-.481.216-.935.461l.53 1.129c.407-.078.81-.58 1.157-.29.253.207-.186.383.92 1.473.397.392.163.677-.182.983l.52 1.326h-.002l.002.002v.002l-1.656-.852 1.654.848-.002-.004-.518-1.32a3.14 3.14 0 0 1-.388.303l-1.998-2.245-.002.002 1.998 2.243c-.195.122-.406.19-.664.095-.168-.062-.322-.09-.475-.125-.24-.054-.475-.116-.709-.293-.27-.202-.602-.248-.723-.441l1.432.734-1.432-.736-1.398-.717v-.002c-.149.172-.515.046-.72.03l.38 1.537-.008-.002v.002c.462.22.382.607.639 1.046.141.25.198.35.033.622-.085.141-.29.354-.447.41h.004l.305 1.263h-.004c.17.254.041.693-.059.95-.115.297-.058 1.518-.68 1.1a10.775 10.775 0 0 0-.972-.598c-.183-.092-.305-.21-.467-.307-.177-.103-.39-.154-.385-.393.162-.1.446-.115.658-.162.242-.052.434-.124.649-.207.23-.08.421-.114.658-.174.273-.073.29-.25.598-.209l-.305-1.263c-.137.043-.508.044-.723.105-.289.086-1.066.293-1.287.381-.183.083-.46.292-.65.15l-.307-.521c-.118-.2-.23-.438-.168-.668.086-.365.707-1.19.975-1.537.17-.222.236-.334.56-.293.261.032 1.156.205 1.375.303l-.38-1.537c-.887-.055-1.172.129-1.803-.723-.213-.283-.616-.788-.489-1.145.076-.212.14-.42.215-.62.084-.216.183-.36.254-.596l-.004-.002-.002.004-1.484-.364c-.085.18-.198.415-.26.6-.141.39-.066.75-.865.844-.233.023-.487.223-.652.197-.325-.05-1.44-1.528-1.268-2.115l-.002-.002-.002.002-.988-.99c-.144.347-.266.579-.664.697l.154 1.318c.61-.088.517.22.75.627.147.259.404.533.58.816.545.876-1.309.814-1.707.823-.701.023-.497-.014-.928-.426-.177-.168-.574-.633-.48-.883.058-.142.182-.284.273-.408.142-.186.27-.169.485-.207.383-.065.727-.295 1.025-.342l-.154-1.318c-.369.109-.726.182-1.088.277-.486.124-.54.005-.848-.38a2.37 2.37 0 0 1-.27-.413c-.05-.115-.058-.507 0-.613l-.001-.002-.002.002-.861-.985c-.17.242-.34.692-.735.639-.292-.035-.5-.544-.598-.783-.066-.156-.168-.283-.253-.424-.1-.157-.107-.289-.22-.469-.19-.3-.354-.737-.228-1.088.084-.253.198-.204.424-.275.687-.23.8-.55 1.264.281.374.67.217.533.394.98.144.36.191.798-.05 1.137l.002.002.001-.002.862.985c.643-1.22.48-.717 1.826-.711 1.66.01 1.488.094 1.043 1.14l.004.004.002-.004.988.993.522-1.194c.198-.25.338-.17.58-.054.48.226.914.244 1.302.412.192.082.364.215.555.289.666.256.41.346.084 1.021l.004.002.002-.004 1.484.364c.157-.532.393-.261 1.239-.211 1.028.056 1.07.765 1.289 1.252.115.25.17.323.25.603.075.31-.005 1.174-.223 1.414l1.398.719c-.056-.091-.07-.211 0-.402.137-.369.085-.043.2-.582.041-.212.175-.328.332-.463.017-.016.025-.016.04-.03l-3.449-3.869a2.151 2.151 0 0 0-.462-.058c-.198 0-.593-.095-.446-.371.025-.047.127-.201.219-.344l-1.04-1.168c-.03.109-.059.22-.106.338-.107.259-.122.395-.42.398-.396.01-.623-.233-1.262-.357-.212-.041-.379-.13-.57-.221-.56-.245-.782-.119-.682-.867.084-.646-.066-1.17.254-1.35.156-.094.524-.015.746-.068.014-.003.08-.035.103-.045l-1.168-1.31c-.144-.03-.22-.11-.214-.243l-1.032-1.156-.005-.002c-.228.914-.354.39-.985.346-.454-.027-.111.055-.765-.057-.247-.044-.633-.015-.805-.06l.033 1.404h-.002v.002c.554.197.736.196 1.316.24.201.015.42.09.653.113.177.015.454.096.533.27.067.147-.008 1.28-.041 1.498-.097.645-1.126.316-1.834.26-.766-.053-1.034.394-1.291-1.024-.15-.86-.607-.736-.434-1.129.067-.162.293-.264.45-.326.217-.097.443.02.648.096l-.035-1.404h.004c-.404-.122-.369-1.03-.29-1.348.068-.292.348-.928.546-1.147.168-.188.277-.265.523-.295 0 0 1.126-.37 1.268-.425.277-.104.424-.023.566.218l1.283-.447c-.268-.321-.546-.607-.431-1.058h.004c.303-1.209.268-1.33 1.777-1.29.252.008.478-.047.656-.021zm-2.31 6.742.214.242h.004l-.218-.246v.004zm0-.004a.47.47 0 0 1 .027-.142c.067-.174.163-.342.219-.498l-1.272-.51 1.026 1.15zm1.382 1.557 1.938 2.17-1.936-2.172-.002.002zm2.977 3.34.69.773h.003l-.691-.775-.002.002zm1.44 5.428.007.001v-.001h-.008zm19.851-16.958c.63.065.42.773.844 1.813.198.492.242.95-.453.834-.269-.044-.68-.323-1.233-.24-.439.062-.796-.086-1.156-.324-.445-.29-.428-.6-.334-1.08.198-.967.618-.788 2.006-.99.128-.019.236-.022.326-.013zm6.178.838c.646.071.778-.063 1.011.635.136.41.174.866.442 1.217.162.212.778.741.586.992-.192.242-1.12.225-1.362.09-.474-.257-.913-.018-1.228-.432-.2-.268-.49-.715-.752-.892-.25-.17-.236-.296-.05-.52.438-.504.602-1.175 1.353-1.09zm-39.274.084c.042 0 .084.008.125.028.41.197.172.273 1.041.494.233.053.403.003.65.127.434.203.525.525.747.799.162.194.27.248.24.537-.017.182-.134.39-.264.523-.49.522-.787-.237-1.656-.326-.327-.04-.292-.145-.51-.266-.17-.091-.433-.041-.574-.2-.141-.154-.096-.36-.238-.536-.124-.15-.3-.285-.236-.498.08-.23.381-.678.675-.682zm19.674 1.43c.167-.018.428.2.613.258.349.094.739.057 1.092.057.554-.003.52.12.469.607-.067.693.424 1.17-.982 1.228l-.442 1.213c.198 0 .482.038.686.065.604.07.191.677.51 1.744.318 1.047.241 1.77-1.061 1.66-.354-.03-.601-.41-.846-.652l-1.209.523c.157.118.602.709.643.895.106.48-.323.623-.535.976-.286.478-.086.746-.903.457-.436-.156-.769-.213-1.07-.472-.295-.25-.304-.719-.44-1.096-.05-.15-.147-.415-.232-.545-.085-.13-.324-.36-.182-.498.118-.115.53-.016.698-.01.256.01.513.006.773.006.634.003.73-.115 1.248.285l1.21-.521c-.245-.239-.586-.61-.45-.979.168-.454.594-1.829 1.16-1.838l.44-1.213c-.269.015-.751-.023-.928-.226-.127-.147-.325-.55-.375-.736-.05-.21-.084-.891-.016-1.077.03-.073.073-.105.13-.11zm25.33.24c.118.033.339.268.43.362.15.15.306.233.434.363.389.39.399.336.177 1.17-.042.156-.066.151-.066.328-.006.257.085.81-.596.523-.934-.385-.961-.65-2.144-1.03l-.526 1.116c.141.032.993.384 1.112.47.326.229.645.376.984.58.478.297-.025.663-.244.964-.265.375-1.151 1.758-1.723 1.277-.315-.268-.588-.414-.738-.824-.118-.312.185-1.512.256-2.072.033-.256 0-.477.353-.395l.524-1.117c-1.374-.444-.241-.686.148-.974.227-.169 1.425-.797 1.62-.74zm-31.615.203c.501-.007.663.122.686 1.022.016 1.182-.597.872-1.54.887-.963.023-.859-.115-1.242-.563h.002c-.132-.148-.148-.273-.107-.47.067-.322.243-.506.49-.721.25-.213.771-.11 1.09-.125.25-.01.454-.027.621-.03zm23.047.229a.92.92 0 0 1 .228.023c.389.11.277.592.54.905.445.527.745.664.226 1.347a.799.799 0 0 1-.432.285c-.368.107-.778.18-1.162.249-.625.103-.738-.05-.744-.643-.008-.58-.116-.707-.242-1.154-.173-.617.967-1.01 1.586-1.012zm19.473 1.031c.27.017.606.151.39.664-.307.737-.327 1.91-.717 2.096-.097.05-1.083-.082-1.246-.111-1.694-.313-.312-1.236.504-2.073.248-.25.486-.48.842-.562a.902.902 0 0 1 .227-.014zm-56.086.069c.152-.002.332.095.53.203.404.224.715.192 1.11.38.349.172.774.144.906.58.116.387-.104.793-.425 1.008-.369.251-.763.228-1.182.311-.425.08-.736.386-1.12 0-.256-.271-.6-.551-.503-.961.086-.363.2-.782.312-1.139.093-.282.219-.381.372-.382zm18.771.793c.102-.004.185.039.191.2.009.186-.169.353-.275.495-.1.132-.2.339-.281.492-.2.368-.146.731-.611.932-.484.206-.71.253-1.235.306-.198.024-.48.154-.642.03-.13-.098-.2-.354-.278-.498h-.002c-.135-.26-.332-.955-.27-1.247.107-.51.776-.11 1.177-.31.702-.357.492-.218 1.244-.215.268 0 .42-.03.677-.11.083-.023.203-.072.305-.075zm21.97.171c.25-.004.484.017.509.123.041.171-.426.877-.416 1.502 0 .203.008.424.005.627-.008.51-.304.452-.693.59-.646.221-.716-.785-.816-1.058-.092-.257-.363-.64-.325-.963.017-.103.168-.467.168-.467.234-.271.626-.31.955-.313v.002c.098-.006.364-.038.614-.043zm-14.841 2.993c.138.006.243.091.258.334.033.483.46.653.334 1.187-.059.218-.279.94-.42 1.094-.156.156-.412.077-.594.015a1.575 1.575 0 0 0-.66-.12c-.434 0-.764-.117-1.082-.42-.207-.207-.681-.551-.596-.876.132-.495.566-.5.996-.533.207-.015.362-.077.54-.185.19-.118.32-.16.533-.243.142-.055.461-.263.691-.253zm28.416.011c.065.002.132.01.201.024.319.056.61-.037.85.119.033.28-.156.477-.268.724-.112.263-.127.42-.277.694-.097.18-.163.606-.397.592-.135-.012-.169-.153-.246-.256-.377-.549-.826-.67-.334-1.633.107-.208.276-.27.471-.264zm-20.625.362c.276.005.517.154.436.714-.067.408-.12.78-.075 1.192h.004c.15 1.4-1.123.482-1.62.65-.502.168-.511-.255-.59-.638-.084-.366-.264-.711-.051-1.047.14-.218.445-.525.693-.625.177-.068.378-.059.56-.1.058-.013.367-.152.643-.146zm7.535.53a.351.351 0 0 1 .14.005c.201.052.71.503.852.666.157.18.304.235.22.53-.051.185-.142.31-.192.54-.042.21-.147 1.105-.4 1.125-.131.012-.37-.194-.514-.25-.183-.077-.37-.106-.56-.191-.502-.227-.986-.127-1.263-.244-.297-.127-.259-.207-.254-.522.006-.53-.016-.894.307-1.203.395-.371.566-.086 1.217-.3.121-.043.297-.132.447-.155zM40.563 52.19c.103.007.207.031.31.047.637.106 1.709-.155 1.924.125.162.213.261.826.287 1.106.017.242.034.381-.147.564h-.001c-.13.13-.3.215-.483.215-.203.003-.935-.185-1.127-.285-.43-.23-.7-.238-1.181-.14-.172.032-.448.044-.534-.157-.075-.188.067-.34.157-.496.15-.254.268-.774.49-.91a.494.494 0 0 1 .304-.069zm24.251.311c.1 0 .189.017.254.06.157.113.057.538.518.907.333.26.553.528.262.949-.793 1.153-1.132.332-2.084.604-.48.132-.548-.478-.58-.817-.025-.28-.05-.284-.205-.496-.1-.142-.192-.397-.086-.55.1-.154.785-.244 1.04-.386.186-.106.583-.27.881-.271zm-27.947 1.543c.06.003.136.015.237.033.233.041.477.17.675.197.228.03.496.057.672.213.307.269-.211.514-.256 1.366h-.002c-.016.312-.032.39-.267.609-.398.375-1.326.562-1.762.887-.882.666-.831.105-.973-.223-.127-.286-.24-.38-.154-.729.067-.27.495-.829.672-1.103.118-.18.214-.362.34-.545.15-.218.256-.286.424-.463.17-.186.213-.252.394-.242zm9.408.648c.482.02.855.16.575.618-.263.424-.653 1.377-1.121 1.533-.1.036-1.164.011-1.276-.018-.575-.144-.25-.596-.385-.959-.12-.306-.56-.5-.177-.898h.002c.262-.28.791-.131 1.148-.178.16-.017.752-.117 1.234-.098zm-6.386.655a.667.667 0 0 1 .191.004c.278.044.44.116.744.119.404.015 1.255-.028 1.473.226.292.348.221 1.02.307 1.373.066.31.112.405-.008.721l.002.002.002-.002 1.025.719-1.027-.717c-.12.3-.556.675-.827.846-.495.315-.814.154-1.171-.223a5.69 5.69 0 0 1-.743-.935l-1.33.673c.157.296.352.72.41.832.198.36.89.634.641 1.026-.147.22-.687.726-.95.797-.206.058-1.391.013-1.692.013-.758 0-.664-.187-.977-.777-.096-.181-.197-.324-.262-.459l2.83-1.432-.002-.002-2.828 1.432c-.101-.21-.097-.396.295-.63.425-.257 1.53-.724 1.73-.866.178-.118.31-.35.614-.227h.002v-.002l1.512-.378.002-.002c-.263-.382-.683-.584-.457-1.149.041-.1.107-.178.142-.281.05-.124.04-.229.074-.356.057-.214.12-.322.278-.345zm-.037 2.13.002.003.001-.002h-.003zm-.002.003-1.512.38c.034.015.107.14.187.291l1.325-.671zm-8.116-1.797c.053.004.11.021.174.052.334.168.56.557.893.766.374.24.696.344.894.766.178.386.495.556.627 1.021.2.726-.587.563-1.006.596-.6.044-.56.565-1.084-.172h.002c-.177-.242-.566-.734-.68-.979-.083-.183-.164-.384-.267-.554-.13-.218-.23-.354-.115-.614.075-.176.17-.422.232-.601.069-.19.174-.294.33-.281zm16.598.144a.91.91 0 0 1 .326.12c.498.28.492 1.174 1.135 2.005.448.59-.37.508-.744.617-.389.119-.723.397-1.07.512-.616.2-.616-.355-.817-.709h-.004c-.274-.492-.445-.572-.058-1.094.218-.297.419-.644.623-.95.203-.317.337-.533.609-.5zm-3.867 2.305c.11 0 .225.01.342.017.687.053.665-.078 1.084.46h.004c.233.297.332.707.459 1.07.53 1.485-1.019.943-1.833 1.047-.624.085-.674.044-1.134-.36-.85-.745-.518-.76.24-1.857.219-.315.508-.38.838-.377zm-22.235.314c.363-.006.622.534.819.8.265.356.27.545-.154 1.081-.708.893-.27 1.63-1.735 1.135-.575-.189-.667-.156-.838-.766-.058-.218-.05-.462-.12-.666-.076-.212-.263-.377-.17-.572.094-.221.597-.675.83-.77.312-.118.396-.06.702-.1.213-.022.504-.136.666-.142zm34.784 1.262c.61.07.415.958.716 1.67h.002c.172.398.018.632-.261.935-.315.34-.72.15-1.139.221-.462.077-.634-.082-.95-.383-.376-.368-.042-.577.075-.937l.354-1.018c.389-.678.207-.323.888-.465a.989.989 0 0 1 .315-.023zm-15.776.701c.369.018.63.512.78.807.22.404.624.572.418 1.031l1.226.494c.156-.53.384-.485.914-.408.884.12 2.217-.38 1.813.695-.203.546-.708 1.297-1.239 1.43-.312.077-.937.063-1.226-.055-1.12-.462-.453-1.01-.262-1.662l-1.226-.492c-.313.69-.06 1.096-.96 1.408a.797.797 0 0 0-.25.147l5.335 1.34c.368-.54.363-.542.687-1.084.404-.673.601-.346 1.111-.16.222.082.392.21.588.287.207.085.419.155.59.296.45.375.193.425.043 1.32-.091.546-.017.946-.672 1.102-.235.053-.474.096-.701.172-.236.08-.383.168-.62.25-.294.1-.403.028-.571-.217l-1.159.557v-.002l-.003.002c.12.189.228.287.132.525-.191.508-.51.44-.92.516-.362.064-.893.293-1.232.055-.817-.587-.262-1.064-.236-1.465.016-.256.034-.384.086-.635l-1.073-.101h-.004c-.033.323-.1.704-.441.828-.34.124-.678-.115-.955-.274-.298-.17-.546-.226-.844-.412-.536-.336-.241-.566-.115-.808.413-.793.62-.521 1.15-.766.142-.065.283-.127.43-.197.442-.2.583.07.695.441.084.257.101.904.084 1.188l1.077.1c.15-.697.114-.992.539-.89.183.045.757.418.878.565.278.336.254.549.48.89.095.145.178.297.272.438l1.159-.555h.002a1.91 1.91 0 0 1-.262-.623c-.1-.44-.54-.842-.192-1.343h-.003l-5.334-1.338v-.002l-.772-.194v.002l.77.194c-.07.055-.135.11-.223.146-.273.113-.436-.095-.547-.34l-1.664-.418c.04.132.106.257.277.528.46.719.624 1.332-.379.77-.442-.252-.74.043-1.896-.364-.283-.094-1.046-.133-.928-.527.067-.225.142-.315.23-.512.109-.23.097-.407.124-.541.032-.162.122-.257.568-.264.707-.006 1.752-.228 1.879.338.068.296.082.436.123.568l.002.002 1.664.418a3.364 3.364 0 0 1-.16-.449c-.067-.23-.185-.352-.256-.54-.084-.24-.097-.335-.213-.565-.183-.36.243-.766.49-.992.272-.257.524-.682.922-.655zm-2.447 2.783-2.572-.644 2.572.646v-.002zm-9.05-.978c.686-.068.752.85 1.241 1.613.242.383.006.754-.388.852-.313.07-.831-.187-1.176-.246l-.725 1.22c.454.227 1.265.1 1.227 1.041-.067 1.58-.404.89-.979.707a5.314 5.314 0 0 1-.773-.341c-.354-.195-.53-.176-.44-.657.05-.265.06-.675.221-.902.233-.31.495.026.742.152l.725-1.22c-.2-.039-.95-.242-1.105-.336-.292-.171-.65-.554-.454-.916.552-1.009.505-.866 1.29-.846.306.006.367-.092.593-.121zm22.722.113c.311-.013.659.199 1.027.297.172.041.454.088.596.135.701.232.61 1.511-.324 1.68-.407.079-.887.079-1.291.138-.263.039-1.043-.031-1.282-.14l.168 1.308c.319.05.597.182.903.274.404.118.665.046 1.06.046.12 0 .463.045.326.243l-.382.195c-.283.16-.56.19-.807.332-.602.345-1.178.809-1.617.426-.292-.254-.041-.552.05-.826.107-.345.006-.755.465-.69l-.167-1.308c-.49-.213.043-.656.183-.895.186-.31.383-.58.574-.877.157-.24.331-.33.518-.338zm-30.832.508c.349-.01.76.352.654.71-.22.028-.368-.106-.51-.253-.12-.118-.304-.247-.289-.43a.433.433 0 0 1 .145-.027zm34.478 1.125c.054.005.117.018.19.035.298.062.35.042.63.172-.002.25-.504.566-.716.654-.286.124-.559.47-.934.479 0-.195.375-.867.48-1.1.1-.205.189-.257.35-.24zm-23.906 1.162c.236-.013.456.18.701.217.36.047.778-.147 1.106.006.318.153.374 1.137-.115 1.27-.257.064-.22.049-.448.173-.65.345-.614.03-1.513.324-.178.056-.375.142-.475-.064-.067-.148-.107-.996-.05-1.152.083-.224.36-.537.552-.678a.434.434 0 0 1 .242-.096zm3.5.123c.105-.005.271.033.53.129.503.186.83.294 1.36.395.34.061.906.327 1.048.654.215.507-.067.897-.268 1.33-.43.955-.66.724-1.465 1.102-.633.291-.752-.467-.902-.717-.127-.215-.434-.948-.51-1.196-.05-.15-.05-.681-.006-.832.122-.437-.103-.848.213-.865zm-1.527 2.703c.223-.016.37.073.492.32.133.26.298.523.283.815-.135.006-1.075-.183-1.316-.225-.47-.079-.814-.138-1.262-.271.042-.153.197-.142.342-.172.139-.027.294-.068.424-.127.232-.115.53-.211.787-.29.093-.027.175-.044.25-.05zm5.756.078a.73.73 0 0 1 .209.024c.289.073.545.297.884.383.192.044.67.295.858.398 1.317.722.049.693-.658.764-.42.042-.781.067-1.205.07-.349 0-.758.047-.985-.283-.141-.2-.035-.324.09-.48.279-.34.371-.855.807-.876z"/></svg>