<svg width="80" height="80" xmlns="http://www.w3.org/2000/svg"><path style="fill:#000;fill-opacity:1;fill-rule:evenodd;stroke:none;stroke-width:2.40521" d="M40.025 0C29.787-.007 19.548 3.89 11.732 11.697-3.894 27.303-3.915 52.64 11.697 68.27c15.607 15.627 40.94 15.643 56.567.033 15.632-15.608 15.649-40.936.04-56.57C60.5 3.918 50.265.006 40.026 0zM19.88 19.854l4.539.005-.004 4.534h-4.537l.002-4.54zm7.142 0 4.543.01-.003 4.538-4.541-.004.001-4.544zm7.147.011 4.537.002h.002l-.002 4.541-4.537-.004v-4.539zm7.143.004 4.543.002-.004 4.54-4.538-.005-.001-4.537zm7.148.004 4.539.004v4.537l-4.543-.002.004-4.539zm7.146.006h4.538l-.004 4.54h-4.537l.003-4.54zm-35.732 7.119 4.541.004h.002l-.008 4.535h-4.535v-4.539zm7.148.006 4.538.002-.004 4.54-4.54-.005.006-4.537zm7.143.006 4.541.004-.006 4.535h-4.537l.002-4.54zm7.148.004 4.536.004v4.537l-4.541-.004.005-4.537zm7.143.004 4.54.002-.005 4.539h-4.539l.004-4.541zm7.143.003 4.537.004v4.54l-4.54-.004.003-4.54zm-35.725 7.124 4.537.001-.002 4.54-4.543-.002.008-4.54zm7.143.001 4.535.006v4.54l-4.54-.005.005-4.54zm7.142.008 4.54.006-.003 4.533-4.537-.002v-4.537zm7.149.006h4.537v4.54l-4.541-.005.004-4.535zm7.142.004 4.541.002-.006 4.54h2.608l.004-4.536 4.537.002v4.537l-4.541-.002-2.608-.002h-4.537l.002-4.54zM19.867 41.29l4.537.002-.004 4.541h-4.537l.004-4.543zm7.143.004 4.539.006-.004 4.537-4.537-.004.002-4.539zm7.146.008 4.54.002-.003 4.539-4.54-.008.003-4.533zm7.145.002 4.539.002-.006 4.543-4.537-.004.004-4.541zm7.142.008 4.541.002-.004 4.537-4.539-.002v2.607l4.538.002.001 4.54-4.542-.007.003-4.535-.002-2.607h.002l.002-4.537zm7.149.003h4.535v4.54l-4.54-.002.005-4.538zm-35.729 7.12 4.535.002-.003 4.54h-4.538l.006-4.542zm7.14.004 4.54.005v4.537l-4.54-.003v-4.54zm7.147.003 4.538.004v4.54l-4.538-.003v-4.54zm7.145.006 4.54.004-.001 4.541-4.541-.004.002-4.54zm14.293.01 4.537.004L60.123 53l-4.539-.002.004-4.541zm-35.733 7.121 4.538.004-.002 4.54-4.54-.003.004-4.54zm7.147.008 4.537.002-.002 4.537L27 60.121l.002-4.535zm7.146.004h4.538l-.006 4.54h-4.535l.003-4.54zm7.141.004 4.543.002-.004 4.54-4.54-.003.001-4.54zm7.148.006 4.536.002v4.537h-4.537l.002-4.54zm7.145.002 4.54.005-.005 4.541-4.54-.003.005-4.543z"/></svg>