<svg width="80" height="80" xmlns="http://www.w3.org/2000/svg"><path style="fill:#000;fill-opacity:1;fill-rule:evenodd;stroke:none;stroke-width:2.40508" d="M39.998 0C17.913 0 0 17.91 0 40.002 0 62.088 17.913 80 39.998 80 62.086 80 80 62.088 80 40.002 80 17.911 62.086 0 39.998 0zm0 10.58c.866 0 1.723.04 2.566.111l-.712 8.143h-3.706l-.714-8.139a29.351 29.351 0 0 1 2.566-.115zm7.613.998a29.294 29.294 0 0 1 4.82 1.754l-3.45 7.41-3.485-1.265 2.115-7.899zm-15.23.002 2.117 7.897-3.48 1.267-3.454-7.412a29.265 29.265 0 0 1 4.817-1.752zm24.49 4.318a30.366 30.366 0 0 1 3.932 3.297l-5.78 5.78-2.837-2.383 4.685-6.694zm-33.746.004 4.686 6.698-2.834 2.38-5.784-5.779a29.788 29.788 0 0 1 3.932-3.299zm-7.227 7.223 6.7 4.691-1.858 3.207-7.406-3.457a29.58 29.58 0 0 1 2.564-4.441zm48.202 0a29.538 29.538 0 0 1 2.566 4.441l-7.406 3.455-1.858-3.205 6.698-4.691zm4.322 9.258c.435 1.633.733 3.323.885 5.053l-8.143.714-.64-3.65 7.898-2.117zm-56.846.006 7.899 2.115-.641 3.646-8.14-.714c.15-1.73.449-3.419.882-5.047zm7.258 9.463.64 3.648-7.896 2.117a29.526 29.526 0 0 1-.885-5.053l8.141-.712zm42.33 0 8.143.712a29.554 29.554 0 0 1-.885 5.053l-7.9-2.117.642-3.648zM20.74 48.98l1.858 3.21-6.7 4.687a29.886 29.886 0 0 1-2.564-4.44l7.406-3.457zm38.52 0 7.404 3.458a29.538 29.538 0 0 1-2.564 4.44l-6.7-4.689 1.86-3.209zm-34.283 6.043 2.834 2.381-4.686 6.696a29.94 29.94 0 0 1-3.932-3.295l5.784-5.782zm30.044.004 5.782 5.778a29.832 29.832 0 0 1-3.932 3.3l-4.685-6.699 2.835-2.379zM31.018 59.26l3.48 1.265-2.117 7.899a29.025 29.025 0 0 1-4.817-1.756l3.454-7.408zm17.962 0 3.452 7.408a28.87 28.87 0 0 1-4.82 1.756l-2.116-7.899 3.484-1.265zm-10.834 1.908h3.706l.712 8.143c-.843.074-1.7.109-2.566.109a28.6 28.6 0 0 1-2.566-.11l.714-8.142z"/></svg>