<svg xmlns="http://www.w3.org/2000/svg" height="80" width="80"><path d="M34.211 79.991l-.707-.117c-5.93-.984-11.688-3.373-16.614-6.892C9.424 67.65 4.016 59.986 1.519 51.205.06 46.078-.355 40.616.303 35.255 1.658 24.23 7.536 14.267 16.576 7.675a52.342 52.342 0 0 1 2.567-1.721 40.224 40.224 0 0 1 9.108-4.144C37.04-.92 46.59-.55 55.106 2.85a40.386 40.386 0 0 1 10.307 6.024c7.775 6.282 12.897 15.068 14.494 24.861l.093.574V46.124l-.107.653a40.162 40.162 0 0 1-9.107 19.564c-.96 1.123-2.416 2.63-3.419 3.54-4.252 3.859-8.984 6.656-14.296 8.45-1.997.674-3.86 1.144-6.166 1.554l-.627.111-6 .004c-3.3.001-6.03-.002-6.067-.009zm5.955-6.646l.056-.055-.124-.18a10.48 10.48 0 0 0-.421-.542c-.5-.605-.675-.9-.798-1.34-.031-.114-.11-.528-.175-.92-.126-.765-.196-1.05-.343-1.382-.102-.233-.12-.267-.504-.954-.495-.889-.68-1.364-.75-1.925-.016-.132-.014-.136.207-.47.269-.406.388-.554.56-.692.163-.13.223-.131.469-.008.15.074.273.173.562.45.42.403.609.519.935.574.255.043.5.01 1.065-.146.68-.186.913-.204 1.32-.103.277.07.477.185 1.025.591.138.103.35.233.47.29l.22.101.016.28c.062 1.033.148 1.535.534 3.113.327 1.34.441 1.963.489 2.661l.02.294.194.008c.197.008.378-.02 1.007-.15l.349-.071-.06-.134c-.141-.31-.152-.398-.157-1.253-.005-1.07-.024-1.143-.429-1.66-.449-.571-.472-.708-.316-1.861.05-.358.038-.732-.028-.973a9.79 9.79 0 0 1-.04-.15c0-.003.078-.02.175-.038.344-.064.644.018 1.193.329.193.11.391.219.44.244.177.09.493.148.95.176.743.045 1.054.129 1.304.349l.102.09-.087.16c-.177.327-.19.36-.173.426.02.083.224.205.348.208.123.004.177-.051.28-.282l.142-.321c.066-.149.207-.285.296-.285.07 0 .478.237.576.336.06.06.063.07.022.093-.025.014-.225.155-.445.312a12.28 12.28 0 0 0-3.118 3.236c-.239.36-.539.856-.539.891 0 .03.237-.013.392-.071.35-.131.63-.428 1.173-1.244.431-.65.626-.887 1.131-1.38.96-.936 1.593-1.329 2.144-1.331.18-.001.237.01.361.071.081.04.182.108.223.15l.075.079-.14.273c-.338.657-.673 1.081-1.523 1.926-.38.378-.68.687-.668.687.048 0 .966-.297 1.23-.398.276-.105.28-.108.583-.407.167-.166.66-.68 1.093-1.142 1.65-1.76 2.578-2.614 3.467-3.194l.22-.144.086.062c.048.033.23.173.406.31.418.328.588.442.836.56.19.091.224.099.445.099.183 0 .262-.012.331-.05l.091-.05-.158-.1a12.572 12.572 0 0 0-.57-.32c-.483-.256-.724-.41-.913-.585l-.137-.126.305-.06c.167-.034.67-.145 1.118-.247.767-.176 1.419-.316 1.47-.316.013 0 .023.185.023.412v.412l.194-.11c.243-.137.449-.291.786-.59l.266-.236-.127-.118c-.154-.145-.295-.404-.373-.69-.08-.292-.103-.976-.042-1.265.107-.505.347-.828 1.18-1.59.85-.776.992-.945 1.291-1.533.2-.393.29-.49.705-.772.767-.517.771-.522 1.801-1.695.986-1.122 1.436-1.53 1.832-1.664.206-.07.356-.07.781-.003.416.066.599.068.72.007a.458.458 0 0 0 .229-.344c.027-.185-.01-.207-.354-.216-.253-.007-.356-.031-.354-.083 0-.01.055-.053.122-.097.067-.044.252-.232.412-.418.412-.48.553-.576.722-.491.1.05.103.05.103.015 0-.057.205-.543.46-1.093.318-.683.43-.965.5-1.26.05-.21.07-.394.04-.394-.008 0-.497.43-1.087.954-1.434 1.274-2.652 2.32-2.813 2.417-.02.012-.167-.08-.386-.245-1.077-.805-2.282-1.48-3.994-2.237a5.164 5.164 0 0 1-.408-.192c-.057-.058.132-1.208.263-1.602.186-.555.437-.858.856-1.03.18-.074.163-.082-.053-.025-.213.055-.368.14-.801.433l-.377.256-.018-.215c-.035-.414-.174-.705-.675-1.408-.467-.654-.61-.937-.681-1.348-.017-.095-.04-.568-.053-1.052-.031-1.193-.096-1.6-.33-2.078l-.112-.23h.71l-.02-.14a4.13 4.13 0 0 1-.021-.446c0-.355.043-.504.195-.673.229-.253.436-.293 1.521-.29.773.003.907-.004 1.76-.09a75.666 75.666 0 0 1 4.35-.336c.76-.035 3.185-.018 3.668.025l.5.046.206.019v-.264c.001-.145.025-.414.054-.597.029-.184.052-.397.053-.474v-.14l-.1.015c-.055.009-2.002.02-4.327.023-4.236.007-4.556.013-5.787.11-.803.063-.916.082-1.304.216-.41.141-.555.146-.76.026-.188-.11-.193-.122-.134-.358.068-.273.064-1.074-.008-1.614-.027-.203-.04-.374-.029-.381.011-.007.11-.005.22.005.206.02.282-.004.282-.084 0-.055-.084-.089-.326-.13-.244-.043-.314-.095-.314-.232 0-.134.182-.283.614-.502.424-.215.554-.305.67-.463.069-.096.076-.126.076-.323 0-.12-.024-.349-.054-.508-.052-.283-.073-.787-.033-.787.022 0 .476-.378.928-.77.285-.248.287-.25.402-.234.144.02.404.128.584.243.198.126.498.406.857.797.47.514.766.725 1.103.786.08.015.15.022.157.016.021-.02-.216-.477-.35-.673-.181-.264-.604-.687-.93-.93a29.93 29.93 0 0 0-.973-.663c-.92-.605-1.24-.854-1.535-1.193l-.136-.156-.008-.312a2.155 2.155 0 0 0-.251-1.005c-.205-.417-.423-.68-1.229-1.48-.411-.41-.78-.8-.834-.883-.263-.409-.312-.74-.288-1.958.009-.432.004-.498-.046-.655-.082-.255-.18-.384-.568-.749-.64-.601-.721-.774-.944-2a15.083 15.083 0 0 0-.2-.939c0-.033.219-.044.393-.019.383.055.498.108 1.295.598.267.165.467.235.64.225l.136-.008-.478-.298c-.824-.513-1.238-.688-1.868-.79l-.35-.057-.275-.654c-1.074-2.563-2.002-4.375-2.8-5.473a1.042 1.042 0 0 1-.132-.213c0-.045.3-.578.501-.89.095-.147.377-.553.627-.904.25-.35.55-.789.666-.974a7.74 7.74 0 0 0 .672-1.362c.08-.229.227-.768.227-.829 0-.029-.814-.504-.876-.511-.059-.007-.068.014-.154.326-.459 1.677-1.13 2.901-2.833 5.17a44.466 44.466 0 0 0-1.123 1.54l-.208.304-.018-.233c-.01-.128-.028-2.22-.04-4.647-.013-2.428-.032-4.447-.042-4.488-.016-.061-.034-.073-.107-.073a.63.63 0 0 1-.224-.07c-.134-.07-.137-.07-.24-.025-.135.062-.336.271-.51.532a5.583 5.583 0 0 1-.256.353.725.725 0 0 0-.116.172c0 .074.183.279.458.513.34.29.425.386.516.586.164.361.202 1.247.106 2.46-.036.458-.05.94-.054 1.907-.005 1.417-.033 1.836-.175 2.663-.176 1.03-.502 1.84-.922 2.296l-.133.145-.185-.149c-.377-.303-.732-.49-1.649-.865-1.114-.457-1.558-.7-1.89-1.035-.396-.399-.577-.957-.545-1.678.03-.68.232-1.097.995-2.057.186-.235.396-.512.466-.616.438-.649.663-1.449.784-2.785l.095-1.053c.078-.874.143-1.251.27-1.568.113-.279.147-.464.108-.593-.02-.07-.035-.08-.118-.077-.345.01-.526.565-.529 1.62 0 .418-.005.46-.063.574-.19.378-.297.848-.415 1.83-.123 1.02-.218 1.437-.42 1.84-.142.286-.29.478-.701.91-.57.601-.764.889-.865 1.285-.089.348-.078.839.026 1.235.02.078.033.147.028.152a3.843 3.843 0 0 1-.401-.191c-.657-.338-1.094-.646-1.92-1.353-.77-.659-.934-.793-1.44-1.185-.853-.66-1.012-.823-1.113-1.138-.08-.256-.091-.734-.034-1.512.044-.584.045-.725.016-1.254-.091-1.674-.263-2.727-.597-3.67-.145-.409-.134-.247.101 1.428.22 1.57.236 1.737.238 2.52.002.772-.018.955-.16 1.536-.125.508-.148.684-.115.885.035.223.144.415.39.691.427.479.907.88 2.298 1.924.507.38 1.078.82 1.269.975.489.4.962.878 1.116 1.127.406.658.44 1.395.108 2.366-.134.393-.361.891-.862 1.894l-.43.857.001.687c0 1.975.144 3.491.425 4.492.073.258.073.263.018.227-.032-.02-.237-.145-.457-.277-1.19-.712-2.332-1.28-4.996-2.486-1.553-.703-2.173-.993-2.89-1.352-.706-.353-.874-.453-1.483-.886-1.357-.963-1.665-1.085-2.583-1.018-.47.034-.896.033-1.047-.002a1.136 1.136 0 0 1-.5-.27l-.111-.11.088-.109c.204-.252.284-.522.35-1.179.046-.47.13-.829.233-.997a4.25 4.25 0 0 1 .335-.387c.29-.306.429-.496.48-.653a3.35 3.35 0 0 0 .069-.374c.063-.454.091-.51.46-.93.191-.22.236-.29.357-.574.5-1.167.92-1.784 1.582-2.332l.196-.162.357.365c.975.996 1.744 2.227 2.409 3.855l.14.342.072-.149c.063-.129.108-.173.338-.337.269-.19.383-.32.412-.465.014-.069-.02-.133-.257-.48-.344-.504-.65-.93-1.424-1.987-1.722-2.348-2.407-3.41-3.07-4.756-.482-.98-.782-1.781-1.12-2.989l-.043-.157-.284.016c-.347.02-.537.074-.665.19l-.096.09.048.209c.068.292.28.932.416 1.25.204.48.577 1.187 1.042 1.973.61 1.032.799 1.369 1.02 1.82l.185.381-.184.193c-.356.376-.741.915-1.118 1.567-.114.198-.517.98-.895 1.74-.711 1.426-.944 1.861-1.255 2.344l-.182.283-.193.02a4.154 4.154 0 0 0-1.88.664l-.22.148-.767-.55c-1.079-.773-1.78-1.238-2.413-1.596-.128-.073-.233-.142-.233-.154 0-.012.054-.154.12-.316.18-.437.523-1.109.907-1.77.716-1.232.824-1.427 1.054-1.893.13-.264.271-.57.315-.68l.078-.2-.146-.02c-.102-.013-.215-.059-.377-.151a1.268 1.268 0 0 0-.32-.14c-.088-.01-.09-.006-.298.354-.115.2-.402.684-.638 1.075-.614 1.018-.821 1.384-1.204 2.128-.514 1-.706 1.27-1.607 2.24-1.042 1.126-1.233 1.42-1.539 2.376-.413 1.293-.518 1.556-.775 1.927-.076.11-.234.291-.351.4l-.212.2-.137-.081c-.425-.252-.792-.412-1.871-.813-.381-.142-.84-.328-1.02-.414l-.327-.156v-1.144l-.086-.014a1.175 1.175 0 0 1-.814-.612c-.26-.53-.272-1.27-.044-2.588.015-.085.01-.1-.03-.1-.096 0-.28.114-.399.245-.548.61-.616 2.247-.13 3.171.11.211.192.295.49.498.124.085.258.201.298.26.168.243.193.625.098 1.469-.055.491-.054.798.002.888.012.02.186.093.386.164.469.165.537.215.562.414.022.181.098.41.185.557.113.192.273.35.651.64.446.34.595.494.704.727.07.148.085.217.095.433.01.226.004.28-.059.467-.09.27-.22.489-.52.884-.617.81-.737.975-.875 1.21-.17.286-.303.598-.385.9-.046.17-.057.288-.059.636-.002.384.006.455.073.714l.074.287-.1.14c-.181.249-.387.504-.757.939-.664.779-.884 1.084-1.114 1.547-.321.645-.436 1.166-.436 1.98 0 .338-.008.46-.031.46-.071 0-.637-.298-.899-.472a18.055 18.055 0 0 1-.76-.556c-1.057-.812-1.546-1.076-2.157-1.161-.273-.039-.68-.012-.701.046-.028.071.078.289.202.414.15.152.34.215.83.276.398.05.563.094.805.216.428.215.834.5 1.594 1.117.616.5.805.648.974.76l.142.096a.66.66 0 0 1-.117.122c-.376.347-.573.785-.902 2.012-.335 1.247-.51 1.633-.904 2.002-.223.208-.58.397-.58.306a6.78 6.78 0 0 0-.27-.473c-.268-.444-.42-.75-.422-.847-.001-.08.145-.192.372-.284.118-.047.222-.098.23-.112.032-.05-.177-.415-.442-.768a5.146 5.146 0 0 1-.375-.57l-.106-.21v-.48c0-.447-.004-.487-.058-.577-.1-.164-.27-.377-.569-.71-.514-.573-.7-.859-.825-1.267a2.656 2.656 0 0 1-.088-.425l-.02-.2-.173-.097c-.432-.243-.727-.695-.945-1.449a18.757 18.757 0 0 1-.175-.689c-.179-.757-.16-.727-.216-.354-.026.176-.095.566-.154.867-.113.58-.176.979-.205 1.31-.017.201-.017.202.071.303.05.056.23.208.402.338.173.13.326.26.34.288a.369.369 0 0 1 .028.142c0 .15.102.499.203.698.13.257.274.451.622.842.163.183.365.432.447.552l.15.22.006.3c.01.483.083.711.444 1.363l.189.34-.082.18c-.112.247-.138.36-.138.596 0 .378.133.691.533 1.25.439.612.674.971.762 1.16.212.455.402 1.11.665 2.293.081.367.19.828.24 1.024.088.34.1.368.25.56.767.994 1.315 2.295 1.839 4.364.074.293.262 1.086.418 1.76.155.675.306 1.322.336 1.437.029.115.048.215.042.221-.028.027-.339-.254-.833-.75-.553-.559-.859-.812-1.107-.92-.151-.065-.487-.106-.513-.063-.02.03.205.362.423.624.276.332.787.806 1.077.999.358.238.596.336.868.357.202.015.214.02.222.082.03.25.202 1.003.406 1.789.253.975.397 1.594.398 1.707 0 .08.116.037-1.213.45-.513.16-.962.302-.996.315l-.063.024.09.075c.136.116.256.156.462.155.232 0 .42-.05.918-.24.441-.168.758-.261.98-.289l.15-.019.117.13c.338.378.72.838 1.183 1.424.283.36.641.804.796.987.33.393.976 1.046 1.25 1.265l.193.154-.046.08a3.47 3.47 0 0 1-.214.284l-.337.414c-.237.29-.341.51-.357.752-.008.131-.002.197.02.21.046.03.31-.185.462-.373.07-.087.229-.32.351-.519.322-.52.416-.642.481-.623.12.034.61.28.792.397.515.331.957.762 1.63 1.586 1.004 1.233 1.03 1.256 2.339 2.16.6.414.83.615 1.747 1.52.484.479.958.931 1.053 1.006a4.272 4.272 0 0 0 2.102.885l.169.022.158-.235c.577-.858 1.338-1.481 2.178-1.784l.166-.06.065-.204c.174-.551.183-1.07.03-1.7a15.881 15.881 0 0 0-.24-.81c-.283-.876-.35-1.186-.379-1.726-.012-.23-.008-.327.012-.327.016 0 .111.02.21.043.1.024.3.045.446.047l.262.003.088-.101c.121-.14.247-.39.425-.843.182-.463.227-.555.377-.766.119-.167.362-.357.458-.357.067 0 .62.527.89.85a7.769 7.769 0 0 1 1.193 2.053l.104.276-.324.324c-.528.53-.836.996-1.362 2.058a22.85 22.85 0 0 0-.774 1.68c-.165.403-.344.92-.325.938.007.007.115-.09.24-.215.397-.397.703-.915 1.19-2.012.56-1.263.915-1.818 1.426-2.223l.13-.104.114.448c.235.93.597 1.779 1.01 2.37l.113.162.019.334c.036.647.2 1.215.51 1.764.08.143.304.495.495.782.192.286.393.603.447.704l.098.184.253.01c.436.018.586.005.648-.058zm-11.081-2.102c-.715-.856-1.365-1.5-2.981-2.953-1.022-.918-1.946-1.774-2.037-1.886a50.469 50.469 0 0 0-1.726-1.817c-.532-.498-1.04-.877-1.548-1.154l-.23-.126.19-.27c.461-.655.86-.947 1.428-1.045l.244-.042.26.179c.9.62 1.595 1.286 3.126 2.995l.978 1.092.112.125.041-.1c.097-.23.02-.453-.27-.784-.241-.275-.315-.377-.355-.49-.024-.068-.08-.126-.208-.213-.249-.17-.552-.48-.95-.974-.406-.504-.811-.914-1.065-1.078-.169-.11-.179-.121-.133-.155.073-.053.286-.108.542-.14.324-.039.315-.04.346.075.037.135.168.33.282.417.203.155.56.28 1.106.387l.147.029.119.206c.516.893 1.04 1.412 1.64 1.63.361.13.65.17 1.15.158l.43-.01.175.294c.216.363.275.48.367.734.068.186.08.202.167.225.15.038.308-.022.525-.2.215-.175.26-.196.347-.163.053.02.07.062.12.314.033.16.132.525.222.811.202.645.235.777.272 1.087a2.27 2.27 0 0 1-.074.875l-.047.154-.36.184c-.934.477-1.53 1.022-1.915 1.751l-.13.245-.307-.367zm23.875-3.069a.663.663 0 0 1-.182-.164l-.09-.118.236-.086c.129-.047.319-.124.422-.17.465-.215 1-.401 1-.349 0 .013-.061.113-.135.224-.27.403-.706.71-1.01.71a.604.604 0 0 1-.241-.047zm-1.175-.59a8.8 8.8 0 0 1-.433-.21c-.286-.149-.543-.22-.792-.22H50.4v-.321c0-.53.106-.905.373-1.311.172-.262.406-.51 1.001-1.062.522-.483.78-.78.932-1.07.143-.271.17-.366.23-.834.03-.236.082-.513.114-.616.053-.168.074-.199.218-.316.227-.185.737-.517 1.399-.911.696-.415.959-.59 1.304-.867.443-.356.75-.727.978-1.18.116-.23.117-.233.056-.233-.097 0-.356.096-.508.19-.191.116-.367.269-.844.73a7.75 7.75 0 0 1-.59.528 2.478 2.478 0 0 1-.81.373c-.182.037-.187.037-.21-.018-.158-.377-.318-.555-.713-.795-.484-.295-.63-.394-.74-.504-.1-.101-.11-.122-.11-.25 0-.108.023-.183.106-.348.117-.23.13-.314.063-.414-.08-.12-.286-.322-.545-.533-.306-.25-.453-.411-.545-.599-.086-.175-.115-.334-.062-.334.147 0 .524-.066.693-.122.204-.067.45-.2.62-.336.08-.065.09-.087.104-.253.008-.1.051-.326.096-.503.044-.176.089-.4.099-.497l.018-.177.28-.183c.323-.21.515-.406.586-.598l.05-.135.252-.01c.61-.021.894-.217 1.406-.966.38-.556.62-.772.995-.895.033-.011.046-.068.058-.263.009-.137.036-.34.06-.45.025-.11.049-.329.053-.487.009-.341-.012-.315.43-.531l.298-.145.142.119c.388.325.908.683 1.997 1.378.861.55 1.376.927 1.826 1.34l.181.166-.048.127c-.125.335-.328.665-.9 1.468-.503.705-.715 1.089-.864 1.566l-.075.24.007.759c.011 1.194-.048 1.462-.728 3.269-.541 1.44-.675 1.955-.72 2.767l-.02.34.164.163c.09.09.163.177.163.195 0 .059-.152.268-.297.406-.201.194-.432.334-1.09.663-.64.32-.818.431-1.06.663l-.167.16-.226-.115a10.577 10.577 0 0 1-.713-.433c-.532-.348-.985-.586-1.233-.649-.173-.043-.387-.053-.387-.017 0 .041.149.229.263.332.166.15.336.25.874.522.544.274.756.418.917.621.102.129.107.143.064.174-.078.057-.757.334-1.558.636-.917.345-1.27.494-1.703.721-.182.095-.356.172-.387.171a.987.987 0 0 1-.23-.076zm-2.173-.62c-.132-.043-.456-.13-.72-.194l-1.107-.268a17.192 17.192 0 0 1-.973-.264l-.347-.112-.11-.32c-.254-.743-.588-1.269-.981-1.546l-.152-.106.015-.28c.064-1.245.044-1.981-.106-3.948-.125-1.648-.145-2.023-.146-2.71 0-1.005.051-1.3.425-2.445.326-.996.345-1.1.468-2.504.068-.77.136-1.254.221-1.57.054-.199.072-.212.547-.414.355-.15.73-.248 1.039-.27l.234-.016.027-.11c.06-.241.281-.85.43-1.19.173-.391.32-.677.791-1.533.345-.628.7-1.35.835-1.7.05-.128.1-.233.114-.233.055 0 .871.443 1.456.79.669.398 1.118.652 1.367.773.084.041.153.083.153.094 0 .011-.083.144-.184.295-.164.245-.39.527-1.11 1.381-.5.594-.862 1.162-1.04 1.638l-.05.13.062.05c.048.038.106.05.266.05.136 0 .223.012.26.039.054.037.061.03.182-.174.402-.68 1.047-1.41 2.074-2.34l.39-.355.955.008.955.008.29-.1c.158-.056.306-.1.327-.1.08 0 .311.14.422.256.294.307.468.909.468 1.624v.294l-.326.254c-1.024.797-2.113 1.494-4.167 2.666-.367.209-.672.384-.678.39-.028.024.102.09.232.117.285.061.722-.088 1.108-.378.161-.121.369-.343.395-.422.006-.016.107-.051.225-.08.482-.115.86-.31 1.539-.794.238-.17.504-.354.591-.41.147-.094.163-.098.206-.059.082.074.085.197.01.433-.037.12-.068.27-.068.334v.114l-.162.015a.866.866 0 0 0-.557.278c-.06.068-.195.3-.307.527-.11.225-.247.46-.306.526-.1.113-.116.122-.274.137-.466.046-.951.26-1.307.576-.392.35-.804 1.157-.98 1.923a.6.6 0 0 1-.074.192c-.053.061-.236.12-.525.169-.355.06-.58.133-.656.214-.056.06-.066.095-.066.247 0 .338.19.592.889 1.188.21.18.27.245.256.28-.237.552-.198.865.148 1.186.087.08.335.264.552.409.45.3.687.518.79.728.103.208.097.252-.041.293-.435.13-.814.474-1.097.995-.066.12-.24.514-.385.873-.27.668-.44 1.035-.529 1.14l-.05.059-.226-.285c-1.605-2.015-3.017-3.439-4.36-4.395-.363-.258-1.07-.706-1.116-.706-.03 0 .046.24.124.385.116.219.364.475.688.711.69.502.83.608 1.115.847.868.724 1.686 1.574 3.065 3.187.288.336.403.489.391.52-.091.244-.416.606-.867.965a6.147 6.147 0 0 0-.474.421l-.193.199v.743c0 .409-.009.742-.02.74a5.738 5.738 0 0 1-.26-.08zm-19.174-.817c-.09-.455-.21-.65-.618-.996l-.224-.191-.58.02c-.717.023-.75.014-.888-.23a.742.742 0 0 0-.21-.246c-.111-.077-.14-.084-.374-.093-.215-.007-.263-.018-.317-.066-.09-.081-.151-.232-.216-.525a2.239 2.239 0 0 0-.11-.367c-.112-.232-.39-.391-1.01-.579a4.416 4.416 0 0 1-.567-.206c-.189-.1-.35-.272-.438-.463-.056-.123-.075-.143-.124-.131-.493.115-1.151.152-1.399.079a.755.755 0 0 1-.437-.349l-.076-.135.17-.358c.2-.423.423-.967.71-1.742.457-1.236.771-1.933 1.104-2.453l.096-.151.154.077c.59.297 1.495.563 2.38.698.89.137 2.25.2 3.75.177l.988-.015.062.152c.205.503.487.997 1.147 2.006.65.992.927 1.49 1.14 2.04.092.238.247.717.247.764 0 .032-.27-.151-.486-.33a22.15 22.15 0 0 1-.794-.754c-.83-.817-1.084-1.021-1.56-1.26-.185-.092-.513-.22-.564-.22-.038 0 .016.25.085.393.12.248.362.463.972.867.3.2.624.432.718.518.202.183.38.415.442.579l.045.117-.12.156c-.146.189-.262.417-.443.872-.222.557-.393.846-.59 1.001-.098.076-.208.067-.443-.037a1.299 1.299 0 0 0-.25-.082l-.098-.016-.016-.257a2.477 2.477 0 0 0-.097-.537 3.526 3.526 0 0 1-.1-.423c-.018-.162-.02-.163-.302-.064l-.146.052-.008.26c-.004.156.015.432.049.69.076.587.094.987.054 1.195-.069.347-.239.55-.511.608-.18.039-.181.039-.198-.045zm14.922-.2a3.838 3.838 0 0 1-.096-.367c-.05-.241-.086-1.12-.047-1.12.048 0 .234.15.35.282.067.076.203.306.328.557.118.236.244.468.281.516.048.063.063.108.051.153-.028.113-.139.146-.492.146h-.319l-.056-.167zm-1.66-.098c-.205-.065-.337-.147-.622-.386-.41-.342-.626-.425-1.107-.422-.224 0-.402.026-.893.126-.584.119-.63.124-.96.114-.314-.01-.368-.02-.566-.098-.25-.098-.65-.357-1.103-.713-.678-.534-1.066-.76-1.49-.866-.19-.048-.273-.054-.546-.042a3.712 3.712 0 0 0-.39.032c-.068.017-.07.011-.131-.218-.215-.82-.603-1.757-1.095-2.64-.283-.507-.534-.914-1.127-1.822a31.948 31.948 0 0 1-.49-.762c-.007-.02.052-.014.18.018.77.195 1.498.158 2.063-.107.75-.352 1.193-.839 2.109-2.324.526-.853.777-1.225 1.05-1.55.354-.425.69-.708 1.096-.926.202-.109.608-.26.632-.234.008.007 0 .214-.016.46-.11 1.61-.426 2.89-1.298 5.244-.667 1.8-.882 2.454-1.065 3.235-.105.45-.11.506-.05.53a.294.294 0 0 0 .244-.026c.095-.066.135-.174.166-.442.016-.138.042-.298.058-.357.015-.058.22-.599.455-1.2.525-1.345.71-1.848.935-2.534.55-1.677.8-2.954.888-4.515l.018-.327.112-.066c.142-.083.444-.161.762-.197.157-.017.263-.043.294-.07.08-.073.225-.38.358-.76.184-.522.198-.544.375-.61.205-.078.52-.126 1.132-.176.513-.041.895-.096 1.032-.149.06-.022.081-.015.147.047.103.1.166.32.143.5-.028.215-.089.398-.289.869-.316.747-.358.903-.432 1.63-.08.788-.149 1.06-.322 1.286-.126.166-.363.281-.62.303-.106.009-.192.02-.192.025 0 .004.052.09.116.19.38.587.575 1.247.703 2.363.065.57.063 2.417-.005 3.778-.052 1.054-.07 2.936-.033 3.514.024.375.036.36-.226.275zm14.726-.381c0-.013.184-.213.408-.443.225-.23.433-.45.464-.49l.055-.074.2.158c.225.178.33.3.38.448.043.122.052.116-.295.203-.527.132-1.212.244-1.212.198zm-21.678-.231a2.574 2.574 0 0 0-.195-.42c-.16-.288-.237-.46-.273-.607l-.018-.077.235.013c.206.012.275.03.555.148.175.074.343.14.373.145.038.007.052.03.048.08-.008.127-.187.468-.319.61-.113.12-.286.238-.35.238-.013 0-.038-.058-.056-.13zm23.219-1.046c-.25-.128-.203-.305.199-.757.037-.042.1.063.1.165a.9.9 0 0 1-.082.269c-.045.098-.09.223-.1.277l-.018.097-.1-.051zm-.824-.865c-.13-.287-.148-.626-.054-1.026.047-.199.145-.466.385-1.04.125-.3.277-.709.337-.907.29-.96.529-2.288.711-3.947l.073-.654.197-.183c.173-.162.214-.22.34-.48.079-.163.194-.441.255-.617.23-.657.472-1.037.753-1.187l.119-.062.25.088c1.208.428 2.214.918 3.169 1.54.352.23.997.703 1.028.754.015.024-.2.277-.782.92-.212.235-1.402 1.442-2.644 2.681-1.242 1.24-2.47 2.49-2.73 2.778-.4.443-1.027 1.176-1.235 1.443-.031.04-.065.073-.075.073a.67.67 0 0 1-.097-.174zm-39.093-.443c-.811-.5-1.47-1.284-2.196-2.614l-.097-.178.102-.081c.144-.115.467-.281.671-.347.095-.03.413-.097.707-.148.631-.11.826-.166 1.146-.33.325-.168.575-.362 1.053-.819.741-.706.96-.884 1.324-1.073.386-.201.886-.327 1.301-.327h.157l-.016.196c-.022.26-.1.499-.449 1.377l-.4 1.014c-.06.154-.287.648-.506 1.099-.218.45-.397.83-.397.845 0 .025-.047.034-.373.07a1.993 1.993 0 0 0-.747.274c-.253.157-.51.412-.824.82a4.426 4.426 0 0 1-.265.324.976.976 0 0 1-.19-.102zm-2.809-3.177c-.312-.307-.496-.718-.61-1.358-.052-.292-.059-.425-.06-1.182-.001-.888.032-2.47.055-2.621.016-.109.146-.26.283-.33.057-.028.208-.089.336-.134.288-.101.371-.143.467-.232.124-.115.156-.198.127-.33a8.78 8.78 0 0 1-.074-.487c-.043-.335-.048-.564-.04-2.222.006-1.673-.01-2.397-.064-2.69l-.016-.083.29-.012c.345-.014.427-.046.452-.175.024-.129-.007-.493-.058-.686a7.837 7.837 0 0 0-.254-.656c-.336-.786-.367-.98-.262-1.617.133-.81.021-1.195-.718-2.474-.607-1.05-.778-1.522-.778-2.138 0-.268.064-.65.115-.682.062-.04.241-.02.359.039.08.04.26.206.533.494.466.488.55.55 1.233.913 1.114.593 1.468.829 1.746 1.166l.147.178v.952l.204.312c1.107 1.7 2.608 3.3 4.47 4.767l.42.33.226-.138c.26-.16.324-.231.28-.312-.057-.107-.173-.14-.423-.12a.961.961 0 0 1-.3-.01.762.762 0 0 1-.2-.195c-.361-.47-.714-.814-1.807-1.754-1.42-1.222-1.858-1.695-2.204-2.389-.258-.518-.347-.925-.251-1.153.058-.14.096-.175.447-.414.437-.296.578-.433.772-.75.194-.316.225-.348.532-.551.328-.217.77-.436 1.533-.761.962-.41 1.442-.678 1.808-1.013l.133-.122-.28.013c-.635.029-1.138.256-2.468 1.117-.353.228-.762.482-.91.565-.285.16-.592.294-.615.27-.033-.032.053-.413.127-.564.102-.211.242-.367.557-.622.468-.38.692-.67.738-.958.017-.106.021-.11.141-.125.722-.095 1.177-.305 1.593-.736.383-.397.647-.93.825-1.66a2.66 2.66 0 0 1 .076-.276c.006-.006.13.04.274.1.78.333 1.61.616 3.29 1.122 2.004.604 2.67.826 3.354 1.12a6.714 6.714 0 0 1 1.7 1.076c.197.177.203.186.142.208-.131.05-.997.265-1.69.42-.975.22-1.5.355-1.96.506-1.055.347-1.754.81-2.177 1.44a.926.926 0 0 0-.116.209c0 .051.166.112.307.112.22 0 .31-.072.849-.677.166-.186.21-.218.48-.349.627-.304 2.01-.712 3.25-.96.894-.178.992-.188 1.927-.185.894.003.781-.005 3.094.214.687.065.893.072 2.587.09 1.747.019 1.853.023 2.107.078.495.107.815.304 1.756 1.077.63.52.813.66 1.114.854.38.247.775.42 1.051.46.073.01.14.023.15.029.01.006-.015.11-.056.23-.115.341-.227.838-.4 1.782-.28 1.523-.465 2.092-.845 2.603l-.123.165.004.328c.007.61-.08.935-.457 1.707l-.27.551-.255.016c-1.284.08-1.858.168-2.43.369-.8.28-1.337.765-1.559 1.404l-.031.092-.412.1c-.63.155-1.044.238-1.435.286l-.358.045-.035.101c-.02.056-.047.224-.063.374-.04.398-.05.416-.302.6-.12.087-.339.283-.486.435-.4.413-.636.74-1.227 1.692-.505.815-.808 1.248-1.098 1.569l-.1.11-.387-.005c-.326-.003-.467-.02-.894-.102a4.351 4.351 0 0 0-.92-.107l-.413-.009-.188-.184c-.431-.423-.593-1.035-.541-2.047.01-.191.026-.6.037-.907.028-.82-.001-.909-.463-1.41a3.06 3.06 0 0 1-.349-.442 1.356 1.356 0 0 1-.134-.923c.036-.193.096-.313.278-.557.245-.329.294-.462.346-.93.055-.49.126-.625.601-1.126.264-.279.36-.404.44-.58.101-.221.12-.375.145-1.18.025-.802.048-.949.18-1.194.093-.17.305-.361.525-.475.103-.054.176-.109.176-.133 0-.08-.086-.333-.173-.505a4.951 4.951 0 0 0-.347-.52 7.323 7.323 0 0 1-.336-.48l-.077-.134v.101c0 .117.061.248.246.522.15.222.219.366.256.532.023.101.017.131-.05.267-.12.236-.264.381-.705.71a5.72 5.72 0 0 0-.43.34c-.013.02-.024.264-.025.542-.002.543-.03.733-.164 1.147-.107.328-.218.554-.596 1.214-.459.8-.572 1.08-.709 1.756-.012.061-.018.062-.258.052a1.77 1.77 0 0 1-.555-.112l-.31-.102-.02-.657c-.02-.674-.012-.819.057-1.067a.646.646 0 0 0 .03-.147 83.372 83.372 0 0 0-.194-.093 4.794 4.794 0 0 1-.865-.575 1.545 1.545 0 0 0-.186-.149c-.082.001-.738.398-.704.426.523.435.7.615.91.925.198.29.35.693.391 1.036.009.074.022.173.03.22l.013.087h-.157c-.21 0-.481-.073-.89-.238a4.407 4.407 0 0 0-.424-.153l-.086-.017.05.088c.084.146.514.566.785.765.139.103.498.346.798.54.702.453 1.084.741 1.343 1.013.376.394.568.752.649 1.21.037.21.04.385.027 1.18-.01.57-.006 1.026.01 1.173.053.465.157.751.35.962l.116.126-.093-.017a6.518 6.518 0 0 0-.467-.034c-.426-.02-.73.007-1.44.126-.924.155-1.358.189-1.67.13-.163-.031-.354-.12-.713-.33-.31-.181-.472-.221-1.053-.256-.599-.036-.813-.109-1.024-.347-.054-.061-.059-.094-.06-.405-.002-.962.205-1.759.854-3.29.475-1.122.642-1.622.746-2.236.063-.374.095-.92.068-1.17l-.02-.18h-.126c-.143 0-.286.04-.356.101-.038.033-.046.085-.046.284 0 .284-.058.779-.134 1.152-.127.617-.287 1.132-.728 2.332-.566 1.543-.797 2.39-.863 3.167-.01.108-.033.212-.052.23-.045.046-.896.082-1.397.06-.61-.027-.926-.141-1.228-.443a2.701 2.701 0 0 1-.22-.242c-.044-.064-.044-.062-.004.04.154.4.537.783.901.904.037.012-.011.047-.186.135-.308.155-.566.38-1.085.94-.894.968-1.117 1.088-2.3 1.246-.698.093-.963.18-1.253.409a1.155 1.155 0 0 0-.199.202c-.036.054-.075.098-.086.098-.01 0-.096-.075-.189-.167zm-1.111-3.63c0-.009-.048-.176-.107-.37a23.393 23.393 0 0 1-.294-1.194c-.224-1.004-.3-1.295-.48-1.84-.14-.424-.261-.892-.506-1.947-.29-1.253-.456-1.67-1.215-3.054-.56-1.019-.856-1.646-1.056-2.227-.167-.488-.316-1.214-.316-1.545 0-.125.007-.14.074-.165.53-.2.929-.592 1.233-1.21.177-.361.3-.708.533-1.494.363-1.225.6-1.759.953-2.15l.092-.103.102.052c.056.029.232.09.39.137.333.097.515.175.536.23.024.06-.117.981-.201 1.314-.188.742-.44 1.135-.88 1.37-.098.052-.164.095-.146.096.088.002.359-.13.615-.3.34-.223.522-.312.64-.313h.086v.143c0 .375.18.78.643 1.446.335.483.54.873.6 1.145.03.135.047.454.064 1.16.033 1.404.067 1.58.448 2.327.005.011-.155.02-.355.02h-.366l.016.087c.054.295.071 1.154.055 2.687-.018 1.71-.005 2.129.085 2.747.065.438.074.4-.11.452-.578.161-.964.547-1.124 1.122-.057.207-.066.954-.015 1.211a.54.54 0 0 1 .02.171c-.008.008-.014.006-.014-.004zm45.395-3.807c-.067-.033-.206-.158-.334-.3-.622-.688-.633-.695-1.681-1.236-.971-.5-1.375-.78-1.63-1.128-.09-.12-.094-.139-.094-.34 0-.41-.122-.916-.314-1.3-.25-.504-.605-.91-1.433-1.642-.596-.527-.887-.82-1.045-1.055-.098-.144-.195-.313-.195-.339 0-.006.14-.018.313-.027.844-.046 1.553-.286 2.31-.782.146-.096.501-.343.788-.55.287-.205.55-.386.583-.401.094-.043.22.032.366.218.15.192.294.27.529.29.143.01.196 0 .414-.084.385-.149.522-.122.505.1-.01.147-.074.176-.385.177-.361 0-.37.01-.368.431.002.395.044.54.331 1.165.103.223.212.492.242.598.07.249.07.553 0 .953-.143.817-.023 1.215.69 2.307.69 1.053.89 1.593.847 2.279-.015.246-.08.595-.122.664-.039.063-.196.064-.317.002zm-14.637-3.426c.04-.692.188-1.442.427-2.174.064-.197.273-.754.464-1.239.192-.484.393-1.009.447-1.167.113-.326.085-.313.379-.179.292.134.597.38.862.695l.102.122-.095.158a19.38 19.38 0 0 0-.702 1.412c-.464 1.028-.814 1.64-1.186 2.075-.171.2-.446.445-.63.56l-.086.056.018-.319zm7.418-3.291a9.19 9.19 0 0 1-.734-.396c-.245-.164-.507-.422-.626-.619a2.24 2.24 0 0 1-.238-.661l-.017-.114.275.184c.557.374 1.09.855 1.496 1.351.26.317.413.524.385.519l-.541-.264zm.515-1.334c-.642-.118-1.115-.448-1.54-1.077-.081-.12-.095-.128-.172-.114-.056.011-.128.066-.217.164-.11.122-.148.147-.22.147-.083-.001-.092-.012-.233-.295a12.386 12.386 0 0 0-.791-1.327 8.036 8.036 0 0 1-.29-.45c0-.01.328-.01.727 0 1.124.029 1.739.076 3.847.297 2.113.22 2.776.274 3.94.322l.42.017.054.176c.062.198.133.607.133.76 0 .097-.006.104-.148.17-.28.128-.594.11-.81-.047-.124-.09-.237-.306-.26-.5a.42.42 0 0 0-.028-.138c-.007 0-.177.125-.378.278-1.133.86-2.169 1.399-3.03 1.577-.245.05-.82.074-1.004.04zm-2.929-.199l-.72-.394c-.843-.461-1.455-.749-2.01-.944l-.209-.073.013-.322c.007-.178.028-.452.048-.61A1.494 1.494 0 0 0 48.97 41c-.031-.105.194-.108.85-.012.313.045.642.083.73.083h.162l.071.18c.109.273.296.611.625 1.127.323.506.52.887.623 1.2.066.2.142.554.123.572a1.717 1.717 0 0 1-.263-.13zm9.014-1.559a.657.657 0 0 0-.055-.175c-.07-.158-.055-.202.07-.202.17 0 .276.088.277.232.001.06-.019.1-.069.14-.091.071-.223.075-.223.005zm-40.202-.543c-.133-.047-.304-.177-.654-.497-.397-.362-.57-.481-1.48-1.017-1.107-.653-1.443-.877-1.735-1.162-.21-.206-.234-.252-.197-.39.076-.284.26-.582.782-1.26.61-.794.885-1.25 1.03-1.709.053-.165.062-.274.082-.96.026-.875.045-1.05.175-1.569.113-.448.234-.802.548-1.605.65-1.662.755-2.03.755-2.667 0-.312-.01-.404-.059-.56a1.746 1.746 0 0 0-.445-.712l-.185-.185.101-.432c.319-1.366.432-1.699.714-2.103l.106-.152.15.066c.486.214.936.488 1.887 1.146.794.55 1.17.786 1.59 1 .307.156.884.37 1 .371h.06l-.058-.096c-.165-.28-.494-.52-1.274-.93-.536-.283-.87-.492-1.547-.973-.523-.372-.957-.66-1.19-.79a.827.827 0 0 1-.17-.11c0-.01.067-.128.149-.265.222-.372.5-.969.876-1.876.604-1.457.994-2.164 1.472-2.666.214-.225.458-.435.628-.542l.071-.045.155.233c.302.455.884.968 1.539 1.358.163.097.699.386 1.19.642 1.196.624 1.583.861 2.044 1.252l.167.142-.211.324c-.475.726-.678 1.243-.71 1.809-.012.204-.004.342.027.509.024.126.044.238.044.25 0 .011-.071.016-.158.01-.319-.024-.659-.244-1.454-.942-.654-.574-1.063-.894-1.142-.894-.047 0 .003.29.098.567.207.606.57 1.02 1.489 1.698.304.224.553.414.553.422 0 .027-.303.364-.725.807-.23.242-.501.542-.6.667a3.166 3.166 0 0 0-.728 1.773 4.724 4.724 0 0 1-.035.295l-.259.178c-.139.096-.559.37-.933.609-1.28.816-1.762 1.155-2.268 1.59a7.985 7.985 0 0 0-.876.888l-.114.145.369.073c.75.148 1.264.387 2.202 1.022 1.08.73 1.55 1.006 1.96 1.151.078.028.136.062.129.077a4.42 4.42 0 0 0-.37 1.277c-.036.305-.029.296-.419.508-.26.14-.394.275-.416.417a.466.466 0 0 1-.033.123c-.01.014-.128.04-.264.058-.632.082-.971.319-1.613 1.126-.357.45-.64.725-.87.848l-.164.087v1.266l-.126.123c-.222.214-.44.281-.66.202zm26.553-.272c-.498-.278-.97-.595-1.225-.826l-.193-.174.097-.018c.053-.01.314-.011.58-.002.503.016.768.057 1.03.16l.146.058.007.514c.004.282-.003.513-.015.513a5.93 5.93 0 0 1-.427-.225zm12.796-.43a50.6 50.6 0 0 0-.974-.13c-1.939-.246-3.907-.41-7.186-.603-.52-.03-.95-.06-.955-.064a1.568 1.568 0 0 1-.05-.178c-.064-.261-.225-.57-.454-.869l-.358-.467c-.244-.317-.302-.439-.28-.584.032-.218.159-.385.496-.656.358-.287.457-.393.563-.6.125-.247.138-.435.073-1.008-.048-.416-.052-.523-.026-.675.059-.349.196-.537.573-.785.149-.098.321-.225.383-.282.062-.057.122-.1.133-.094.012.005.177.112.368.238.19.127.526.336.747.465.454.267 1.914 1.018 2.054 1.056.05.014.092.04.092.058 0 .017-.076.1-.17.184-.202.181-.254.29-.175.369.036.036.088.052.17.052.103 0 .14-.018.287-.136.194-.158.347-.236.463-.236.165-.002.711.36 1.733 1.146.907.699 1.57 1.132 2.018 1.318l.098.041.081-.166c.045-.092.118-.291.163-.444.045-.153.101-.314.124-.36.042-.08.042-.081-.061-.172-.31-.272-.687-.515-1.37-.883-.994-.535-1.414-.838-1.755-1.266l-.105-.132.27-.136c.503-.252.975-.622 1.432-1.12.12-.133.454-.529.742-.88.6-.737 1.106-1.27 1.464-1.542.201-.154.254-.182.274-.151.576.868.81 2.457.557 3.77a3.854 3.854 0 0 1-.294.921c-.127.283-.125.328.02.575.06.1.1.207.108.285l.013.124-.17.086c-.463.233-.855.6-1.047.98-.044.085-.042.093.087.492.293.905.369 1.668.228 2.294-.052.236-.02.222-.384.164zm-9.881-.853c-.056-.026-.2-.037-.487-.038-.305 0-.407-.01-.41-.034-.013-.126.02-.336.088-.553.043-.14.087-.318.097-.396l.019-.142.112.096c.17.147.423.5.551.77.176.371.175.363.03.297zm-2.76-.284c-.071-.015-.424-.019-.867-.009-.726.016-1.046-.002-1.259-.07a2.264 2.264 0 0 1-.36-.227c-.337-.247-.448-.312-.63-.37-.127-.042-.172-.043-.412-.014l-.27.032-.183-.093c-.1-.052-.443-.269-.761-.481a11.3 11.3 0 0 0-1.277-.746c-.705-.363-.986-.528-1.201-.706-.185-.154-.457-.477-.92-1.094-.455-.607-.839-1.032-1.1-1.219a7.102 7.102 0 0 0-.592-.34c-.508-.266-.473-.243-.809-.538-.324-.285-.69-.69-1.208-1.344-1.163-1.466-1.217-1.52-3.232-3.137-1.036-.831-1.66-1.349-2.12-1.76-.447-.4-1.176-1.13-1.438-1.438l-.198-.233.047-.526c.133-1.516.294-2.038.736-2.39.134-.106.211-.12.231-.042.008.029.076.093.151.143.362.237.675.322 1.537.417.627.07 1.004.14 1.374.259.934.3 1.67.69 3.48 1.853 1.74 1.118 2.165 1.345 4.24 2.275 2.01.9 2.977 1.436 3.86 2.139.062.05.14.401.14.639v.217l.207.012c.276.016.448.104.66.337.088.097.237.252.331.346.208.207.238.303.261.832l.016.36.13.142c.203.224.358.593.45 1.071.058.308.129.838.114.862-.02.032-.206.001-.311-.052-.134-.068-.403-.266-.68-.5a21.744 21.744 0 0 0-2.777-2.018c-.517-.31-1.37-.728-1.84-.9-.449-.166-.48-.175-.48-.144 0 .046.65.655.922.863.311.238.807.57 1.424.956.53.33 1.65 1.076 2.2 1.464.529.372 1.105.837 1.469 1.184l.294.28.143.357c.295.739.484 1.372.586 1.969.1.59.144 1.417.075 1.41a2.164 2.164 0 0 1-.153-.028zm-5.774-.264c-.69-.15-1.597-.262-3.2-.398-2.058-.175-3.007-.323-3.92-.614-.318-.1-.464-.18-.821-.446a9.489 9.489 0 0 0-.413-.292c-.301-.193-1.393-.586-2.62-.942-1.952-.568-2.473-.734-3.194-1.02-.271-.107-.35-.15-.338-.18.165-.428-.078-1.021-.625-1.524a4.8 4.8 0 0 0-.528-.408c-.003-.002.03-.074.072-.162.212-.436.154-.774-.188-1.088a6.186 6.186 0 0 0-.52-.392c-.545-.371-.784-.637-.795-.882-.004-.074.007-.085.134-.13.233-.083.412-.194.601-.371.295-.278.503-.634.822-1.408.193-.469.455-1.007.539-1.108l.06-.073.485.58c1.931 2.306 3.257 3.583 4.763 4.59.39.26.381.258.3.042a2.01 2.01 0 0 0-.461-.708c-.25-.266-.454-.433-1.02-.838-.592-.423-.763-.56-1.103-.892-.352-.343-.695-.743-1.27-1.482-.532-.685-.73-.924-1.1-1.325-.281-.303-.288-.313-.256-.387.073-.169.21-.32.494-.544.164-.13.319-.266.343-.304.024-.037.056-.067.07-.067.032 0 .937.755 1.582 1.319 1.328 1.163 2.227 2.018 5.685 5.415 3.048 2.994 4.754 4.526 6.662 5.981.101.077.167.139.145.137a9.667 9.667 0 0 1-.385-.079zm-25.616-1.213c-.052-.063-.25-.155-.505-.237-.4-.127-.363-.096-.431-.37-.052-.208-.061-.317-.062-.725 0-.42.007-.508.06-.705.16-.584.443-1.049 1.073-1.764.874-.991 1.042-1.211 1.231-1.616.164-.35.21-.62.202-1.182-.017-1.175-.009-1.359.065-1.554.116-.307.234-.47.654-.903.497-.514.709-.83.768-1.15.01-.056.034-.1.052-.1.058 0 .233.191.29.317.044.096.056.174.055.362-.002.394-.09.665-.606 1.842-.329.753-.442 1.067-.535 1.482-.108.488-.14.773-.244 2.13-.066.869-.16 1.39-.299 1.668-.044.087-.187.251-.419.48-.434.427-.505.555-.624 1.12-.098.467-.165.646-.289.773-.154.16-.362.222-.436.132zm32.18-1.576c-.39-.605-.606-1.15-1.055-2.67-.486-1.644-.742-2.292-1.13-2.858l-.08-.117.224.018c.669.056 1.15.243 2.01.78.727.455 1.005.589 1.47.713l.234.062-.006.304c-.018.894-.075 1.7-.153 2.158-.156.91-.534 1.487-1.117 1.705-.281.105-.264.11-.396-.095zm-21.697-1.506c-.363-.042-.704-.152-1.135-.365-.3-.148-.55-.31-1.24-.804-.87-.622-1.238-.836-1.745-1.014a3.53 3.53 0 0 1-.248-.092c-.022-.022.325-.422.547-.633.404-.383.79-.614 1.336-.798.365-.122.404-.127.404-.045 0 .113.132.344.275.482.079.077.311.239.523.365.43.256.553.352.673.527.081.118.083.126.052.244a.919.919 0 0 1-.134.255c-.168.224-.172.238-.107.367.094.187.224.325.512.548.445.345.593.532.656.827.016.078.03.147.03.154 0 .016-.163.01-.399-.018zm35.505-.084c-.09-.212-.08-.957.019-1.333.017-.068.04-.1.073-.1.074 0 .322.16.553.358.116.1.237.194.27.208.055.026.045.043-.205.353-.262.325-.43.493-.581.58l-.08.047-.048-.113zm-5.907-.344a60.73 60.73 0 0 0-1.09-.617c-.917-.508-1.486-.839-1.744-1.013l-.157-.106.014-.177c.019-.249.076-.395.3-.777.168-.283.306-.586.306-.67 0-.013-.02-.023-.045-.023-.08 0-.284.247-.527.64-.28.453-.507.71-.605.681-.13-.037-.77-.365-1.13-.58l-.373-.222-.017-.706a41.81 41.81 0 0 0-.065-1.44c-.05-.76-.055-1.318-.035-3.867.008-1.117 0-1.44-.053-2.36-.075-1.279-.067-1.746.037-2.254.197-.958.606-1.736 1.437-2.734.245-.294 1.236-1.382 1.272-1.396.062-.023 1.185 1.097 1.396 1.392.182.255.222.368.267.753.062.523.083.575.37.896.373.418.403.484.446.995.03.35.08.564.166.707.031.052.196.238.366.414.207.214.333.368.38.466.103.21.191.598.285 1.24.092.636.151.875.286 1.16.08.17.137.24.376.467.766.726.854.838.956 1.214.05.184.059.498.04 1.414-.017.88.07 1.06.797 1.627.481.376.76.686.703.78-.053.087-1.1 1.413-1.385 1.753-.85 1.015-1.595 1.72-2.366 2.236-.405.272-.349.262-.608.107zm-6.944-4.124c-1.631-.52-1.974-.635-2.32-.771-.614-.242-1.244-.58-1.553-.835-.076-.062-.087-.097-.178-.547-.193-.967-.336-1.936-.573-3.917l-.157-1.303.106-.23c.059-.127.232-.537.386-.91.434-1.06.64-1.461.943-1.838l.132-.163V19.012l.113.016c.699.101 1.316.323 1.82.654.278.183.76.667.952.958.56.844.861 1.897 1 3.493.06.707.06 2.545 0 4.268a97.22 97.22 0 0 0-.052 2.041l-.006.72-.613-.195zm-30.981-4.534c-.098-.128-.354-.43-.57-.673-.633-.709-.841-.99-1.058-1.426-.19-.381-.358-.975-.335-1.182l.008-.079.48.152c.78.248 1.372.483 2.119.845.255.123.47.23.475.235a.921.921 0 0 1-.103.192c-.325.53-.651 1.34-.764 1.896a1.948 1.948 0 0 1-.062.259c-.007.007-.093-.092-.19-.22zm11.36-4.598a3.313 3.313 0 0 1-.461-.369c-.307-.285-.523-.423-.726-.466-.085-.017-.086-.02-.048-.092.061-.118.323-.34.502-.426.21-.1.471-.172.923-.256.197-.037.368-.067.38-.067.039 0 .025.35-.021.532-.024.096-.102.31-.173.476a3.303 3.303 0 0 0-.22.744 1.252 1.252 0 0 1-.155-.076zm39.228 14.303c.212-.276.224-.772.03-1.362a28.094 28.094 0 0 0-.317-.84c-.313-.803-.39-1.039-.446-1.384a1.248 1.248 0 0 1-.012-.477.966.966 0 0 1 .057-.245.451.451 0 0 1 .16-.066c.33-.084.677-.419 1.144-1.103.426-.622.536-.728 1.138-1.087.444-.266.652-.525.653-.814 0-.224-.068-.442-.166-.526a.483.483 0 0 0-.1-.073c-.007 0-.106.123-.218.273-.548.735-1.24 1.475-2.52 2.69-.596.567-.698.676-.707.75-.015.14.02.79.057 1.008.07.431.201.902.483 1.733.273.808.42 1.313.465 1.6.01.067.025.13.032.142.019.032.168-.09.267-.219zm-5.62-5.642c.93-.348 1.68-.735 3.52-1.816 1.715-1.007 2.599-1.476 3.437-1.822l.384-.159-.089-.046a.946.946 0 0 0-.303-.059c-.212-.013-.22-.011-.602.14-.967.383-1.76.816-3.847 2.103-.735.452-1.331.798-1.509.875-.068.03-.256.108-.418.174-.544.222-.783.375-.95.604-.137.19-.116.19.377.006z"/></svg>