<svg xmlns="http://www.w3.org/2000/svg" width="64pt" height="64pt" viewBox="0 0 64 64"><path d="M30.438 63.98c-7.36-.394-14.043-3.105-19.606-7.953-.64-.562-2.3-2.222-2.863-2.863C4.203 48.84 1.71 43.82.609 38.328.18 36.188 0 34.332 0 32.004c0-2.172.14-3.79.512-5.816C1.55 20.52 4.094 15.284 7.957 10.858c.574-.656 2.23-2.312 2.875-2.875 3.98-3.468 8.531-5.847 13.535-7.07A32.255 32.255 0 0 1 38.95.758a31.765 31.765 0 0 1 13.031 6.25c1.012.812 1.594 1.336 2.637 2.375 1.254 1.258 2.024 2.14 3.028 3.48 6.222 8.305 8.007 19.207 4.765 29.117-2.941 8.993-9.808 16.293-18.597 19.778a31.936 31.936 0 0 1-9.641 2.183c-.797.055-2.957.079-3.734.04zm3.304-4.996c2.156-.195 4.473-1.078 6.031-2.297.395-.304 1.012-.94 1.23-1.261a4.47 4.47 0 0 0 .567-1.184c.117-.414.125-1.262.016-1.719-.469-2.023-2.266-4.218-5.055-6.183-1.023-.719-2.566-1.57-3.754-2.074-1.363-.575-3.316-1.051-3.785-.922a.675.675 0 0 0-.273.144c-.09.09-.098.117-.078.387.043.695.746 1.766 3.16 4.797 1.863 2.34 2.449 3.152 2.808 3.89.313.637.305.977-.02 1.126-.675.304-2.573-.395-4.425-1.63-2.008-1.34-3.379-2.847-4.34-4.777-1.023-2.047-1.57-4.476-1.66-7.363-.027-.914-.05-1.012-.246-1.094-.102-.039-.137-.039-.215.012-.105.07-.101.043-.258 1.11-.53 3.593-.617 7.23-.234 9.882.426 2.957 1.426 5.125 3.105 6.742 1.946 1.871 4.454 2.684 7.426 2.414zm-16.43-7.52c.704-.148 1.305-.495 1.907-1.1 1.133-1.141 2.004-3.169 2.418-5.63.218-1.3.254-1.746.25-3.394 0-1.586-.032-2.043-.219-3.164-.16-.961-.543-2.301-.8-2.809-.395-.781-.911-.566-1.61.668-.344.61-.785 1.598-1.38 3.094-.273.687-.683 1.715-.91 2.289-.855 2.145-1.46 3.312-1.886 3.64-.785.598-1.387-.96-1.387-3.609 0-3.265.86-5.836 2.739-8.187.437-.543 1.386-1.524 1.976-2.032a22.554 22.554 0 0 1 3.047-2.187c.598-.363.73-.55.527-.758-.109-.11-.144-.101-1.164.3-4.258 1.688-7.836 3.798-9.992 5.895-1.57 1.532-2.512 3.098-2.965 4.938-.246 1-.312 2.242-.168 3.234.336 2.301 1.512 4.41 3.492 6.262 1.426 1.332 3.141 2.29 4.57 2.547.376.07 1.235.07 1.556.004zm32.086-2.023c1.543-.273 2.782-.816 3.977-1.73.367-.281 1.137-1.047 1.473-1.461 1.265-1.57 2.113-3.656 2.422-5.953.097-.711.097-2.035.003-2.652-.23-1.493-.777-2.54-1.66-3.168-1.035-.739-2.691-.97-4.613-.641-2.746.469-5.941 1.96-8.375 3.918-1.055.848-2.156 2.047-2.305 2.504-.058.183-.058.21 0 .347.047.118.106.168.27.243.672.308 1.883.234 5.808-.352 2.63-.394 3.493-.492 4.348-.492.793 0 1.188.113 1.297.379.129.304-.05.633-.672 1.25-1.441 1.441-4.172 2.777-6.527 3.199-1.442.262-3.145.211-4.793-.137-1.653-.347-3.676-1.136-5.387-2.097-.465-.262-.613-.305-.766-.227-.105.055-.136.145-.101.285.027.114 1.27 1.114 2.406 1.938 3.762 2.73 7.406 4.48 10.137 4.86.66.093.683.093 1.668.081.73-.008 1.023-.027 1.39-.094zM33.86 40.043c.606-.2 1.348-.64 2.121-1.262.473-.379 1.243-1.136 1.352-1.328l.074-.133-.152.028c-.082.015-.48.113-.879.218-.902.239-1.184.29-1.54.27-.26-.016-.284-.027-.41-.164-.214-.23-.198-.344.15-1.18.112-.265.187-.508.179-.566-.008-.094-.035-.114-.227-.16-.277-.063-1.035-.036-1.355.05-.606.164-1.223.586-1.461.993-.36.613-.332 1.504.066 2.32.258.523.649.887 1.078.996.192.05.727.008 1.004-.082zm-7.355-3.363c-.281-1.067-.348-1.403-.348-1.7 0-.316.055-.464.219-.593.156-.121.371-.106.762.058.699.293.949.375 1.004.332.086-.074.148-.535.125-.96-.047-.91-.496-1.747-1.133-2.122-.555-.324-1.488-.285-2.258.094-.434.215-.727.484-.89.816-.122.243-.13.29-.126.637.004.297.024.438.11.688.273.797.953 1.808 1.847 2.761.395.414.825.758.84.672.008-.031-.062-.34-.152-.683zm16.363-1.14c2.973-1.138 6.035-2.731 8.102-4.208 2.355-1.684 3.84-3.367 4.664-5.293.941-2.191.972-4.559.094-6.781-.973-2.465-3.168-4.828-5.614-6.043-1.093-.547-1.898-.746-2.851-.715-.617.023-.899.086-1.356.3-2.015.942-3.46 4.122-3.793 8.352-.093 1.188-.031 3.137.137 4.27.18 1.21.555 2.605.867 3.223.395.777.903.566 1.598-.66.453-.794.805-1.61 1.879-4.333.808-2.054 1.023-2.558 1.422-3.359.605-1.223 1.004-1.625 1.41-1.414.379.195.707 1.176.828 2.465.059.656.023 2.48-.059 3.093-.28 2.036-.8 3.532-1.754 5.06-1.238 1.987-3.316 3.91-5.914 5.472-.468.281-.609.418-.609.582 0 .101.129.246.219.246.031 0 .363-.113.73-.258zm-4.41-3.083c.719-.172 1.305-.574 1.543-1.05.117-.243.129-.298.125-.622-.004-.523-.16-.973-.574-1.664-.543-.906-1.637-2.176-2.117-2.457l-.125-.074.027.152c.012.086.105.45.2.809.39 1.453.394 1.863.038 2.097-.152.102-.418.051-.953-.171-.574-.243-.742-.29-.793-.23-.078.1-.133.546-.11.94.028.489.102.77.313 1.208.18.375.551.789.844.937.418.215 1.008.262 1.582.125zm-25.766-2.242c2.641-.383 5.774-1.758 8.211-3.606 1.328-1.007 2.586-2.312 2.766-2.867.059-.195.059-.215-.004-.347-.14-.301-.71-.434-1.715-.399-1.012.04-1.578.11-5.426.676-2.015.297-3.367.398-3.945.297-.508-.086-.73-.29-.672-.61.094-.492.985-1.379 2.121-2.113 1.707-1.098 3.61-1.844 5.446-2.133.554-.09 2.12-.125 2.78-.062 2.18.203 4.716 1.043 6.981 2.316.282.156.555.293.61.305.25.05.437-.145.336-.344-.059-.113-.82-.738-1.805-1.476-2.004-1.5-3.887-2.68-5.79-3.622-2.081-1.03-3.76-1.566-5.448-1.738-.582-.058-1.938-.027-2.461.059-3.48.566-6.09 2.89-7.356 6.543-.832 2.414-.918 5.05-.218 6.765.277.68.746 1.301 1.27 1.672.538.387 1.386.676 2.202.758.528.055 1.453.02 2.117-.074zm17.875-1.98c.782-.15 1.414-.547 1.73-1.087.442-.75.2-2.14-.491-2.84-.356-.359-.543-.437-1.032-.437-.324.004-.449.024-.707.11-.796.277-1.847.98-2.773 1.863-.371.351-.738.804-.672.828.04.012.414-.078 1.363-.328.664-.172 1.227-.223 1.422-.121.32.164.36.41.145.93-.305.73-.367.929-.317.992.106.14.825.187 1.332.09zm9.735-3.083c.078-.082.11-.226.261-1.25.313-2.16.426-3.746.43-5.968 0-1.856-.043-2.543-.219-3.754-.433-2.996-1.421-5.125-3.148-6.782-1.27-1.218-2.836-1.992-4.652-2.296-3.707-.63-8.442 1.082-10.094 3.636-.77 1.196-.762 2.563.027 4.13 1.364 2.718 5.059 5.663 8.903 7.105 1.46.547 2.968.836 3.336.64.183-.097.222-.195.199-.504-.016-.222-.055-.34-.239-.71-.394-.801-.992-1.633-2.875-4-1.914-2.407-2.52-3.247-2.878-3.993-.309-.636-.278-1.011.097-1.117.778-.215 2.555.461 4.367 1.66 1.989 1.317 3.383 2.852 4.344 4.778 1.024 2.046 1.574 4.484 1.656 7.343.012.45.043.871.067.93.039.105.191.219.293.223.027 0 .086-.032.125-.07zm0 0"/></svg>