<svg xmlns="http://www.w3.org/2000/svg" width="64" height="64"><path d="M26.652 14.775l.747 1.857.115.343.453.227 1.125-.326 1.029-.754-.095-.025 2.117-1.714.561-.158.42-.406.029-.511.472-.599.635-.45.052-.193-.288-.077-1.823.241-3.235.475-1.069.13-1.024.346-.328.844s.18.871.107.75m-2.94.144l.518-.375.712-.328.184.462 1.39 2.544.238.275-.13.484-.368.21-.87-.234-.694-.494-1.103-.92-.976-.986-.364-.199-.11-.346.213-.04s1.386-.151 1.36-.053m-5.639 3.668l-.64-2.238.094.025.011-.419.145-.163.343-.115-.094-.025 2.288.714 1.277.65-.095-.025 1.922.936-.099-.026.656.273 1.075.604.963.671-.109.798-.13.484-.279.65.039.626.04.635-.13.484-3.547.083.098.026-1.774.043.102.028-1.003.25.102.027-.484-.13-.312-.392.187-1.092-.026.098-.17-1.289-.026.098-.092-.442s-.397-1.966-.332-1.847m10.172 1.072l.587-.256-.758 3.209-.196 1.503.026-.098-.374.625-.222.042-.356-.197-.413-1.561-.001-1.553-.112-.338.176-.264.365-.214.884-.59-.026.094s.541-.475.42-.402m7.221 1.62l-.936-.349.091.024-1.27-.656-1.475-.29-.382-.102-.265-.177.423-.822-.026.098 1.228-2.256-.026.098.294-.338.342-.115.755-.11.89.141.412.415.552.253-.098-.026 1.537.829 1.177 1.036.355.2.02.318-.175.261-.9 1.83.027-.098-.77.936-.629-.375-.77-.207s-.455-.636-.38-.519m-4.86-.783l-.556 1.301-.29 1.478-.303 1.885.14.657.253.586.5.446.866.642 1.035.386.494-.285.155-.578 1.348-1.19.64-.453.275-.648.743-.838 1.003-.25.13-.484-.213-.369-.266-.172-2.16-1.199-.992-.165-.46-.224-.77-.207s-1.667-.345-1.572-.32m10.198-7.932l-.657.136-.999.251.098.027-.63.037-.66.132-2.2.86.103.028-.249.14.026-.094-.39.308-.59.26-.415.403-.099-.026 1.439.803-.095-.026 1.954.832.646.278-.072-.124.577.571.361.194.312-.013.27-.24-.089-.437.176-.265.37-.213.614-.767.55-.89.186-1.085-.05-.949s-.608-.058-.487-.13m4.82 7.507l.308.394-1.114-.092-1.4-.172.098.026-1.066-.286-.945.063-1.165.097.095.026.007-.407.174-.27 1.795-2.83-.026.099.629-1.59-.095-.026.34-.12.35 1.023.325.71.026-.098 1.106 2.06.586 1.29s.046.224-.027.103m-3.633 3.893l-1.521-.1.026-.098-.853.083-.288-.077.275-.647.256-.56.42-.402-.099-.026.609-.352 1.38.264 1.406.167 1.552.002-.099-.026.895.138 1.501.192 1.499.199-.095-.026 1.766.368-1.18.928.094.025-.395.308.099.026-.177.265-.316.016-2.096-.663-1.599-.218-1.7.16s-1.45.03-1.36.054m-2.232 4.475l-.244.137-1.132-.404.095.025-.85.084-.29-.078-1.518-.508.095.026-.042-.222.052-.197.904-.681.577-.989.635-.45.292.079.114.343.837 2.29s.45.64.475.545m8.306-2.021l.051-.193m-9.163-.178l.714.811-.073-.12.236.27.257.583.556.254-.068-.124.996 1.305.069.12.025-.095.144.25.207.362.364.2.313-.018-.095-.025 1.618-1.018-.094-.025 1.072-.54-.095-.024.438-.09-.095-.025.318-.02-.099-.027 1.9-.524.504-1.11.025-.094-2.343-.526.094.025-2.516-.257-1.624-.127.099.026-2.16-.06.098.027-.411-.01-.396.312.09.434m6.345 4.909l-1.735-.878-.09-.025.484-.28-.095-.024.684-.239 1.179-.51 1.12-.734.467-.186.304.393.307.808.423.733.208.781.137.247-.176.261-.603-.06.098.026-.807.303-.875.182s-1.096-.917-1.03-.798m4.245-4.244l1.364-.461.236.266.213.37.234.686.487 1.269.209.368-.338.112-1.026.349.099.026-.493.282-.605-.057-.527-.348-.52-.763-.303-.807.305-.745s.763-.52.665-.547m-27.408 1.457l.527.348 1.177.627 1.133.401.022-1.234-.058-.947-.47-.953-.185-.459-1.957-.427-1.14.007.095.025-.823-.014.098.027-.27.235.087.445-.07-.128.293 1.217.136.66.822.014s.656.277.583.156m8.272 2.735l.554.246.628.379.604.057.285-1.063-.027.102.031-.51.208-.775-.026.095-.402-.42-.39-.105-1.653-1.164-1.46-1.116-1.563-.727-.269-.178-.314.022.027-.099-.023 1.234.067.537.198 1.196-.189 1.083.137.248.124-.072 1.89.3s1.657.755 1.563.73m5.035.523l-.178-.879 1.837.493 1.788.268 2.61.7.264.175-.104.39-.545.474.098.026-.558 1.297-.817 1.13-2.335-.937-.941-.358-.522-.76-.276-.904s-.392-1.244-.321-1.115m-9.77 1.308l-.453-.636-.106-.753 1.33.044 1.284.243 1.23.43-.363 1.354-.03.506-.204.367-.128.48-.392.313-.44.085-.459-.225s-1.341-2.328-1.268-2.208m-12.263-.59l3.504-.72-.095-.025 3.394.083.7.082.558-.162-.305-.39-.579-.155-.337-.297-1.466-.7-.775-.208.098.026-2.504-1.088-.53-.35-.378-.513-1.302-.556.102.027-.467.187.017.313.026-.095-.169 1.402-.853 3.183s1.482-.118 1.361-.045m7.124.458l-5.351.641-1.612.602-.777.205-.051.193.44 1.046.156.977.027-.098-.019 2.382-.085.698.041.631.026-.094.153.969-.072-.125.058.951.064.532.39.105.976-.561-.025.094 1.69-.896 1.404-1.382 1.477-1.262 3.26-2.125.493-.281.157-.586-.068-.533-.116-.339-.015-.73-.35-.612-.721-.395-.656.132s-1.02-.067-.894-.139m-1.127 9.225l-.144-.25.176-.26-.099-.027.64-.449.42-.402.156-.586.69-.641-.026.098 1.628-1.84-.025.094.052-.193-.091-.025.786-.62.145-.163-.094-.026.312-.017.173-.266.223-.045.158.56-.095-.025.29 1.216.156.978.278.897.4.833.176.873.366 1.342.334.297-.004.408.025-.095-.868.91.027-.098-.293.335-.835.396-.494.694.025-.094-1.07 1.682-.202.36-.22.046-.285-.494-1.407-2.447.066.119s-1.52-3.204-1.45-3.075m15.624 6.982l-.026.098m-6.303-6.243l.612 1.193-.072-.12.417 1.149.26.584.553.253.324 1.12.537 1.08.027-.098.32 1.115.016.32.265.177 1.875-.434-.094-.025 1.263-.07-.684-1.322-.466-2.512-.237-1.822-1.549-1.554-.334-.296-.939-.353-.946.055-.562.161-.516.38-.2.356-.033.514.237.266m-2.275-6.193l.564 1.387.06.535.26.584.396.835.277.905.193.052.122-.077.514-.377.684-.226-.098-.026.751-.11.25-.148.051-.19-.145-.245-1.061-1.423-1.096-1.327-.693-.497-1.031-.795.07.12-.268.24-.01.415s.286.49.21.368m3.344-2.423l-.233.87-.01.415.234.682-.102-.027.763 1.027-.07-.116.114.343.09.437.36.198.395-.308-.099-.026 1.302-1 1.24-1.528-.026.094.323-.432-.038-.63-.407-.417-.578-.155-1.63.288.026-.098-1.247.391s-.527.062-.407-.008m5.288 2.661l.196 1.6.228.69-.056.605-.895 2.552-.335-.293-.14-.248-.291-.078-.246.145-.189-.05-.024-.32-.184-.462-.026.099-.345-1.029-.127-1.067.258-.964.744-.838.546-.891-.026.098.172-.266.248-.136-.072-.125.564.978m.698.5l.44 1.045-.094-.025.382 1.658-.05.19.367-.206.006-.416.59-1.807.95-1.613-.873-.234-.944.059-.49.286-.253.552s.038.63-.031.51m7.82-3.699l-.308-.398-.506-.03-.39-.105-.438.093-.223.455-.644.86-.26.969.061.53.085.85.301.81.45.635.213.37.218-.044.148-.17.983-3.672m-3.973 11.363l.493.853.343-.114-.02-.318 1.138-4.25-.026.1-.012-.73.305-.744.077-.288-.025.095-.855-1.06-.662-1.008-.2-1.188-.115-.343-.386-.103-.147.171-.612.35.098.027-.383 1.036.025-.095-.684 1.782-.034.506-.42.406-.079.29.162.563.282.489-.068-.124.503 1.585.26.585-.072-.12.636 1.102s.548.665.478.545m9.804-7.625l-.616-.785-.027.099-.678-1.325-.83-1.15-1.2-.941-.462.184.095.025-.227 2.01-.439 1.637.026-.095-.07 1.019.363.202.438-.093 2.064.039.56-.167.659-.13.48.128.485-.283s-.69-.493-.621-.374m-5.25 2.212l-.217 1.19.026-.094-.439 1.637-.328.848-.066 1.015.057.952.579.155.49-.29.44-.085.533-.064-.099-.026.73-.016-.095-.025.892.137.273-.234-.025.094.361-1.35.682-1.377.309-1.153.624-1.182-.142-.24.095.025-1.29.169.026-.095-.845.082-2.399-.335-.296.334m6.815 1.624l-1.226.704.094.026-.245.145-.163-.15-.243-.271.179-.26.573-.99-.025.095.69-.637-.099-.027.246-.145-.095-.025 1.042-.033-.098-.026.441-.089.137.244-.078.291-.608.351.098.027-.718.743M2.055 23.98c-4.43 16.536 5.385 33.534 21.92 37.965 16.538 4.431 33.537-5.382 37.968-21.918 4.433-16.544-5.384-33.538-21.922-37.97C23.487-2.374 6.488 7.436 2.056 23.98" fill-rule="evenodd"/></svg>