<svg xmlns="http://www.w3.org/2000/svg" width="80" height="80"><path d="M38.528 79.986c-5.379-.22-10.396-1.409-15.173-3.594A40.17 40.17 0 0 1 2.921 55.038C.601 49.315-.352 43.165.116 36.93a39.83 39.83 0 0 1 7.922-20.97 40.491 40.491 0 0 1 8.173-8.112A39.831 39.831 0 0 1 34.26.4C36.248.113 37.882 0 40.013 0c1.695 0 2.68.05 4.228.212C54.796 1.317 64.468 6.6 71.173 14.922c6.696 8.314 9.764 18.894 8.577 29.585a39.844 39.844 0 0 1-8.567 20.58 37.274 37.274 0 0 1-2.937 3.256 37.536 37.536 0 0 1-3.266 2.929 39.88 39.88 0 0 1-22.92 8.688c-.703.038-2.853.054-3.532.026zm-1.521-9.855a2.063 2.063 0 0 0 1.536-1.362 2.36 2.36 0 0 0 .043-1.131 2.11 2.11 0 0 0-1.41-1.498 2.35 2.35 0 0 0-1.066-.029c-.377.09-.678.26-.97.55-.399.394-.592.814-.618 1.347-.031.625.16 1.127.595 1.56.41.41.857.593 1.458.598.14.001.334-.015.432-.035zm10.413-1.82a.817.817 0 0 0 .478-.428c.082-.164.09-.202.09-.421 0-.19-.013-.267-.058-.365a1 1 0 0 0-.434-.442c-.13-.064-.182-.074-.391-.074-.224 0-.254.007-.41.09-.54.294-.666.943-.266 1.38.271.295.6.382.99.26zm-18.042-.185c.764-.224 1.185-1.006.934-1.733a1.421 1.421 0 0 0-1.01-.89c-.719-.149-1.47.302-1.655.995-.047.177-.046.472.002.653.126.474.51.845 1.005.975.2.053.545.052.724 0zm24.193-3.294a1.4 1.4 0 0 0 .923-1.101 1.311 1.311 0 0 0-.227-1.02 1.328 1.328 0 0 0-.806-.547c-.213-.044-.598-.018-.783.053-.543.21-.925.818-.865 1.376.04.37.153.625.39.878.28.298.543.412.957.415.183 0 .291-.013.411-.054zM42.338 62.48a.65.65 0 0 0 .236-.157c.299-.297.26-.763-.087-1.042-.374-.3-1 0-1.06.51-.054.456.439.83.911.69zm-13.062-.554a.665.665 0 0 0 .388-.574.65.65 0 0 0-.178-.528.71.71 0 0 0-1.196.256c-.12.36.107.784.48.899.128.039.378.013.506-.053zM21.95 59.95c.198-.074.443-.3.541-.5.063-.127.075-.185.075-.365 0-.192-.009-.23-.092-.382a.905.905 0 0 0-.674-.487.63.63 0 0 0-.342.013c-.352.09-.57.307-.66.653-.174.682.503 1.31 1.152 1.068zm38.94-1.94c.22-.113.41-.411.41-.646a.81.81 0 0 0-.174-.446.712.712 0 0 0-1.178.14.727.727 0 0 0 .4.985c.146.054.4.038.542-.034zm-13.438-.149c.299-.095.522-.236.746-.47.342-.357.506-.764.506-1.254a1.78 1.78 0 0 0-1.799-1.787c-.665 0-1.248.376-1.555 1.004a1.812 1.812 0 0 0 .021 1.637c.149.296.48.622.784.77.125.062.305.13.401.15.252.057.627.036.896-.05zm5.904-.704c.253-.132.426-.45.385-.707-.055-.346-.377-.633-.71-.633a.816.816 0 0 0-.45.176.698.698 0 0 0-.044 1.037.7.7 0 0 0 .819.127zm-23.28-.434c.584-.17.996-.77.95-1.388a1.475 1.475 0 0 0-.396-.903c-.266-.264-.51-.375-.869-.395-.446-.025-.761.096-1.083.417-.216.217-.315.384-.385.655-.137.534.093 1.103.576 1.425a1.38 1.38 0 0 0 1.206.189zm-8.728-1.083c.257-.064.566-.234.77-.423.716-.66.785-1.713.162-2.458a1.855 1.855 0 0 0-.865-.585 1.842 1.842 0 0 0-.95-.027c-.62.168-1.162.71-1.326 1.323-.06.223-.06.622-.002.853.08.314.24.594.468.822.232.232.42.352.7.45.34.117.695.133 1.044.045zm29.26-2.211c.13-.061.3-.253.334-.377a.708.708 0 0 0-.678-.89c-.691.002-.982.904-.402 1.243a.875.875 0 0 0 .746.024zm15.188-.892c.36-.12.658-.383.832-.734.37-.75.026-1.584-.774-1.874-1.032-.374-2.061.528-1.81 1.587.119.503.543.938 1.039 1.064.185.047.5.028.713-.043zm-4.858-.042c.338-.087.66-.32.85-.61.477-.736.101-1.737-.764-2.037a1.389 1.389 0 0 0-1.141.127c-.288.184-.533.53-.615.866-.04.17-.041.532 0 .683.119.442.484.818.934.962a1.6 1.6 0 0 0 .736.01zm-22.45-.342a.7.7 0 0 0 .408-.578.711.711 0 0 0-.921-.736.705.705 0 0 0-.306 1.145.714.714 0 0 0 .82.17zm-6.22-1.381c.253-.076.438-.356.437-.662a.573.573 0 0 0-.18-.45c-.32-.338-.905-.235-1.105.194-.243.52.282 1.087.848.918zm-10.292-1.439c.196-.073.419-.278.515-.473.065-.13.075-.184.074-.379 0-.206-.009-.242-.092-.395a.921.921 0 0 0-.467-.42c-.138-.064-.178-.07-.386-.06-.285.015-.449.09-.627.288-.344.381-.282 1.011.131 1.325a.95.95 0 0 0 .852.114zm24.358-.002a.975.975 0 0 0 .493-.458c.05-.112.063-.185.063-.381 0-.225-.006-.256-.093-.426-.17-.331-.454-.482-.867-.46a.776.776 0 0 0-.555.228c-.484.436-.295 1.32.325 1.513.185.058.453.051.633-.016zm-33.82-.854c.293-.142.402-.542.244-.898a.538.538 0 0 0-.307-.315c-.197-.092-.367-.085-.58.024-.361.186-.498.611-.303.943.172.292.613.406.946.246zm43.909-1.086c.36-.183.474-.744.215-1.056-.13-.157-.267-.214-.516-.214-.189 0-.23.01-.36.082a.644.644 0 0 0-.335.462c-.045.33.18.668.521.78.108.034.356.007.475-.054zm-28.762-.605a.678.678 0 0 0 .226-.198c.07-.103.085-.15.094-.315.008-.167 0-.213-.061-.339a.677.677 0 0 0-.63-.396c-.2 0-.324.045-.466.17-.332.29-.322.802.021 1.033.173.116.262.14.486.13a.646.646 0 0 0 .33-.085zm42.171-1.069c.235-.116.36-.332.36-.624.003-.399-.244-.65-.636-.65-.327 0-.612.183-.683.435-.162.585.43 1.103.96.84zm-26.956-.682c.472-.12.89-.543 1.015-1.026.12-.462-.009-.912-.36-1.263-.556-.554-1.418-.572-1.955-.04a1.304 1.304 0 0 0-.371.638 1.096 1.096 0 0 0-.015.611c.172.81.905 1.28 1.686 1.08zm-9.927-.29c1.115-.344 1.742-1.49 1.415-2.587-.2-.67-.76-1.208-1.45-1.39a2.548 2.548 0 0 0-1.002-.014 2.066 2.066 0 0 0-1.535 1.487c-.075.27-.069.805.012 1.065.245.786.872 1.353 1.652 1.494.22.04.696.011.908-.054zm30.066-1.637c.717-.152 1.324-.72 1.554-1.456.054-.17.063-.256.063-.573 0-.43-.045-.618-.236-.987a2.152 2.152 0 0 0-.808-.806 1.903 1.903 0 0 0-.898-.24c-.615-.029-1.1.145-1.526.545-.455.428-.658.936-.634 1.59.01.274.024.36.093.556.24.687.832 1.22 1.517 1.37.217.046.656.047.875.001zm-42.243-.323a1.361 1.361 0 0 0 1.022-1.417c-.065-.784-.787-1.398-1.52-1.292-.886.127-1.454 1.016-1.172 1.834.226.653.987 1.052 1.67.875zm27.323-2.096a.892.892 0 0 0 .514-.272c.164-.177.203-.27.215-.512a.741.741 0 0 0-.046-.366.877.877 0 0 0-.832-.566.644.644 0 0 0-.38.086.97.97 0 0 0-.476.507c-.079.208-.064.482.035.651.134.227.405.426.644.474.157.03.152.03.326-.002zm5.4-1.504c.478-.124.862-.526.983-1.027a1.374 1.374 0 0 0-1.13-1.684c-.707-.102-1.392.403-1.52 1.123-.082.452.095.96.446 1.285.32.296.795.414 1.22.303zm-40.705-1.02c.338-.19.463-.613.275-.933-.263-.446-1.055-.41-1.272.059a.702.702 0 0 0 .018.568c.186.372.62.508.98.306zm12.294.025a.866.866 0 0 0 .346-.372.773.773 0 0 0-.01-.534c-.3-.586-1.283-.443-1.36.197-.037.318.166.625.492.747.136.05.395.032.532-.038zm6.544-.015a.912.912 0 0 0 .618-.478c.087-.163.086-.54-.002-.717a.89.89 0 0 0-.423-.427.684.684 0 0 0-.38-.087.632.632 0 0 0-.356.072.996.996 0 0 0-.433.441c-.083.181-.082.556.002.726a.94.94 0 0 0 .588.477.687.687 0 0 0 .386-.007zm-15.139-.737c.282-.072.452-.168.66-.374.702-.69.424-1.85-.525-2.192a1.884 1.884 0 0 0-.812-.05c-.23.05-.48.185-.648.348-.533.52-.527 1.437.015 1.942.363.338.818.451 1.31.326zm49.127-1.485a.823.823 0 0 0 .479-.428c.081-.164.09-.202.089-.421 0-.289-.052-.424-.24-.624-.303-.323-.842-.362-1.208-.087-.412.31-.465.944-.11 1.328.25.27.608.354.99.232zm-22.49-.372a2.097 2.097 0 0 0 1.539-1.366c.07-.202.083-.278.093-.582.013-.417-.039-.671-.207-1.01-.344-.693-1.031-1.108-1.835-1.108-.375 0-.622.06-.957.231-.203.104-.293.173-.503.381-.396.396-.58.8-.606 1.336-.02.417.068.764.29 1.14.116.197.528.608.725.723.461.27.962.357 1.46.255zm26.702-.98c.4-.206.494-.793.186-1.156-.293-.347-.908-.219-1.112.231-.16.354.036.808.41.945.135.05.4.04.516-.02zm-32.255-.297a.717.717 0 0 0 .476-.51c.084-.363-.23-.763-.631-.804a.74.74 0 0 0-.708.408.665.665 0 0 0-.006.535c.162.314.557.482.869.371zm-14.846-2.002c.228-.048.562-.21.769-.372.666-.527.882-1.493.504-2.265a1.903 1.903 0 0 0-1.21-.997c-.272-.074-.755-.062-1.018.025-.839.277-1.378 1.047-1.323 1.89.038.572.352 1.123.823 1.442.415.28.95.382 1.455.277zm38.413-1.054a.68.68 0 0 0 .401-.64.685.685 0 0 0-.696-.704.578.578 0 0 0-.5.245c-.113.15-.15.295-.135.532.01.154.028.22.09.32.087.14.251.268.388.302a.77.77 0 0 0 .452-.055zm-49.52-.453a1.32 1.32 0 0 0 .563-.378c.254-.273.388-.605.388-.955 0-.395-.12-.683-.4-.961a1.398 1.398 0 0 0-1.975.015c-.62.618-.49 1.628.27 2.121.15.098.401.196.567.22.145.023.428-.007.588-.062zm43.352-1.094c.397-.101.753-.31 1.038-.611.62-.656.747-1.545.331-2.337a2.258 2.258 0 0 0-.867-.849c-.721-.369-1.507-.332-2.161.102a1.987 1.987 0 0 0-.916 1.788c.031.725.443 1.363 1.118 1.73.453.246.948.306 1.457.177zm-23.865-.093a.782.782 0 0 0 .256-.146.699.699 0 0 0-.154-1.163c-.127-.061-.172-.07-.34-.06-.165.008-.213.022-.316.093-.313.215-.39.729-.157 1.05a.577.577 0 0 0 .312.228.573.573 0 0 0 .399-.002zM67.2 28.567c.461-.12.868-.5 1.004-.939.224-.723-.25-1.536-1.017-1.742a1.582 1.582 0 0 0-.697.013 1.48 1.48 0 0 0-.937.946c-.314.993.634 1.985 1.647 1.722zm-27.496-.321c.367-.083.687-.341.859-.692.342-.699.054-1.567-.627-1.894-.804-.385-1.713.087-1.903.987-.05.235-.05.352 0 .586.055.257.153.443.336.638.334.356.819.492 1.335.375zm7.47-3.444a.72.72 0 0 0 .194-1.1c-.248-.289-.634-.312-.926-.057a.694.694 0 0 0 .147 1.159.629.629 0 0 0 .586-.002zm-18.69-.324a.636.636 0 0 0 .316-.784c-.169-.494-.81-.638-1.182-.267a.631.631 0 0 0-.195.482c0 .28.163.508.441.613.13.048.49.023.62-.044zm33.66-.206a.935.935 0 0 0 .671-.68c.037-.147.04-.2.012-.346a.842.842 0 0 0-.508-.665c-.201-.094-.564-.1-.756-.011a.99.99 0 0 0-.441.432c-.062.126-.073.186-.074.377-.002.205.007.246.086.406a.92.92 0 0 0 .63.5.639.639 0 0 0 .38-.013zM22.2 24.005a.813.813 0 0 0 .37-.373.722.722 0 0 0-.318-.932c-.266-.132-.572-.062-.785.18-.337.382-.157.991.337 1.14a.684.684 0 0 0 .396-.015zm14.236-.403c.806-.167 1.432-.93 1.432-1.744 0-.718-.39-1.347-1.034-1.666a1.817 1.817 0 0 0-1.664-.003c-1.203.591-1.398 2.235-.363 3.046.476.373 1.016.495 1.63.367zm-19.514-.449a.72.72 0 0 0 .353-.964c-.34-.659-1.34-.427-1.34.31a.73.73 0 0 0 .553.696.88.88 0 0 0 .434-.042zm26.897-1.165a.975.975 0 0 0 .494-.458c.094-.208.09-.561-.008-.77a.94.94 0 0 0-.418-.426c-.108-.053-.167-.062-.407-.063-.254 0-.295.007-.415.071a.923.923 0 0 0-.293 1.374c.226.295.673.411 1.047.272zm17.248-2.162c.137-.041.349-.231.42-.377.126-.26.043-.63-.185-.825-.46-.392-1.097-.092-1.097.516 0 .097.013.217.03.267.12.352.468.528.832.419zm-19.183-1.463c.154-.077.333-.266.421-.445.053-.107.063-.17.064-.381 0-.224-.009-.271-.075-.406a.923.923 0 0 0-.478-.436 1.067 1.067 0 0 0-.678.041.902.902 0 0 0-.41.423c-.06.126-.072.188-.072.378 0 .189.012.251.07.373a.998.998 0 0 0 .586.51c.132.043.433.013.572-.057zm-6.832-.216a.895.895 0 0 0 .196-1.462.834.834 0 0 0-.602-.228.619.619 0 0 0-.36.093c-.7.355-.61 1.39.146 1.672.16.06.428.028.62-.075zm18.154-.704c.247-.065.453-.19.643-.39.355-.376.483-.821.373-1.302-.148-.65-.837-1.115-1.51-1.02-.799.113-1.327.787-1.209 1.543.125.802.946 1.365 1.703 1.169zM23.762 16.04c.372-.076.765-.363.954-.695.098-.173.191-.508.191-.688 0-.433-.311-.935-.726-1.17a1.803 1.803 0 0 0-.681-.192c-.591 0-1.18.467-1.335 1.055-.115.443.024.927.37 1.287.34.353.776.496 1.227.403zm17.415-2.918c.554-.145 1.063-.644 1.214-1.187a1.598 1.598 0 0 0-.037-.983 1.745 1.745 0 0 0-.835-.936c-.28-.136-.486-.189-.742-.188-.443 0-.847.174-1.18.505-.436.436-.604 1.05-.438 1.602.09.302.201.483.44.72.244.245.457.377.735.457.204.058.641.064.843.01zm7.105-.85c.15-.07.319-.24.381-.387a.802.802 0 0 0 .042-.257.62.62 0 0 0-.186-.468c-.289-.319-.746-.316-1.043.006a.626.626 0 0 0-.18.462c0 .188.052.323.18.462.22.238.533.31.806.182zm-16.294-.297a.663.663 0 0 0 .412-.365c.254-.59-.481-1.2-1.01-.837a.747.747 0 0 0-.292.523c-.052.505.376.832.89.68z"/></svg>