<svg xmlns="http://www.w3.org/2000/svg" width="80" height="80"><path d="M39.998 0C24.269-.218 9.102 9.893 3.144 24.431-3.077 38.714.142 56.456 11.045 67.598c10.491 11.29 27.774 15.41 42.246 10.14 15.001-5.095 26.063-19.83 26.657-35.68.996-15.406-7.936-30.804-21.74-37.682A39.874 39.874 0 0 0 39.999 0zm-1.996 18.935c1.24.155 3.15-.307 3.98.225l-1.655 19.928c-1.385-.045-.538-2.515-.957-3.609l-1.368-16.544zm-15.247 8.802l16.62 11.523c-.73 1.181-2.447-.79-3.603-.973L20.757 31.2l1.998-3.463zm34.488 0c.485 1.151 1.84 2.575 1.793 3.56l-18.082 8.535c-.654-1.224 1.908-1.724 2.646-2.635l13.643-9.46zm-18.2 12.433c.66 1.223-1.906 1.725-2.644 2.635l-13.644 9.458c-.486-1.151-1.84-2.575-1.793-3.56l18.081-8.533zm1.911 0L59.24 48.8c-.753.997-1.307 2.882-2.183 3.334L40.625 40.742l.33-.572zm-1.285.742c1.385.045.538 2.514.957 3.608L42 61.068c-1.24-.155-3.15.307-3.979-.226l1.648-19.93z" fill="#000" fill-rule="evenodd"/></svg>
