<svg xmlns="http://www.w3.org/2000/svg" width="64pt" height="64pt" viewBox="0 0 64 64"><path d="M30.824 63.984c-7.48-.308-14.332-3.039-19.965-7.953-1.156-1.008-2.816-2.75-3.859-4.047C-.04 43.223-1.93 31.266 2.055 20.7 5.422 11.773 12.684 4.75 21.703 1.695 26.352.121 31.243-.363 36.168.27c5.785.738 11.344 3.12 15.926 6.82a34.484 34.484 0 0 1 4.699 4.672 31.945 31.945 0 0 1 6.883 15.675c.234 1.625.308 2.747.308 4.563 0 1.445-.03 2.125-.152 3.32-1.117 10.856-7.734 20.407-17.555 25.332-4.687 2.352-10.222 3.543-15.453 3.332zm-4.129-5.601c.063-.028.114-.098.14-.188.067-.234 4.477-23.48 4.477-23.597 0-.364-.367-.547-.625-.309-.066.059-3.152 4.57-6.863 10.027-6.148 9.04-6.742 9.926-6.722 10.036.035.168.093.226.226.226.074 0 .16-.043.246-.129.074-.07 1.985-2.062 4.25-4.43 2.262-2.367 4.192-4.378 4.285-4.472.207-.203.34-.219.426-.05.055.097.043.8-.078 6.335-.074 3.422-.129 6.281-.113 6.352a.32.32 0 0 0 .105.183c.106.074.117.074.246.016zm10.887-.043l.102-.086-.141-6.367c-.137-6.313-.137-6.367-.063-6.442.063-.062.098-.07.196-.039.09.024 1.308 1.274 4.449 4.555 2.379 2.484 4.367 4.539 4.41 4.566.117.067.223.063.309-.015.12-.11.086-.262-.137-.59-.117-.168-3.152-4.633-6.746-9.914-3.594-5.285-6.586-9.66-6.648-9.719-.16-.148-.356-.148-.508.008-.086.086-.117.152-.117.258 0 .105 4.148 22.039 4.445 23.515.07.34.246.446.449.27zM9.945 46.797c.098-.063 3.246-2.2 6.992-4.746 3.747-2.551 8.13-5.531 9.739-6.63 1.61-1.093 2.976-2.034 3.035-2.089.238-.219.066-.645-.258-.645-.078 0-.793.126-1.586.278-.797.152-2.18.414-3.078.586-.894.172-5.547 1.058-10.336 1.969-8.2 1.558-8.707 1.66-8.793 1.75-.11.125-.11.183 0 .312l.09.105 6.348-.14c6.949-.152 6.523-.16 6.523.078 0 .137.067.07-4.816 4.73a1373.68 1373.68 0 0 0-4.235 4.051c-.14.153-.172.285-.09.41.086.133.235.125.465-.02zm44.586.012c.11-.149.059-.258-.261-.563l-4.602-4.398c-4.008-3.84-4.29-4.114-4.277-4.227a.19.19 0 0 1 .113-.168c.078-.035 1.398-.016 6.367.094 4.402.094 6.3.125 6.375.094.242-.09.203-.383-.059-.47-.187-.058-23.468-4.483-23.593-4.483-.133 0-.32.097-.371.195a.527.527 0 0 0-.04.215c0 .113.028.16.165.273.093.078 4.597 3.156 10.011 6.84 9.23 6.285 9.856 6.703 9.985 6.684.074-.008.16-.047.187-.086zm-24.8-15.641c.128-.137.117-.336-.02-.48-.09-.098-19.645-13.43-19.883-13.555-.203-.11-.445.062-.39.273.015.055 1.972 1.953 4.605 4.473 4.27 4.086 4.578 4.39 4.57 4.5-.023.238.348.23-6.496.082-6.8-.152-6.46-.152-6.515.059a.272.272 0 0 0 .164.308c.054.02 4.683.906 10.28 1.973 5.599 1.062 10.895 2.07 11.77 2.234 1.711.328 1.735.328 1.914.133zm16.695-2.074c6.441-1.227 11.758-2.246 11.812-2.266.211-.082.23-.363.035-.465-.05-.027-2.043 0-6.406.098-5.98.133-6.34.137-6.41.074-.113-.105-.09-.238.074-.41.078-.082 2.11-2.027 4.508-4.32s4.402-4.227 4.453-4.293c.113-.164.102-.305-.039-.383-.082-.047-.133-.05-.215-.02-.164.063-19.82 13.446-19.949 13.578a.35.35 0 0 0-.105.266c0 .223.226.414.449.379l11.793-2.238zm-15.227.61c.086-.087.113-.153.113-.259 0-.148-4.41-23.437-4.48-23.66-.074-.226-.379-.258-.473-.047-.027.063.004 2.012.102 6.414.129 5.907.133 6.328.07 6.395-.125.137-.238.09-.562-.235-.168-.164-2.133-2.21-4.364-4.546-2.234-2.336-4.097-4.266-4.14-4.293a.358.358 0 0 0-.152-.047c-.102-.004-.227.14-.223.261 0 .079 1.883 2.876 6.738 10.012 3.707 5.446 6.793 9.953 6.86 10.012.16.148.355.148.511-.008zm2.125.007c.059-.059 3.14-4.57 6.852-10.023 6.496-9.543 6.746-9.918 6.722-10.051-.03-.164-.168-.25-.316-.192-.05.02-2.059 2.094-4.465 4.606-4.12 4.308-4.379 4.57-4.492 4.558-.086-.007-.137-.039-.168-.113-.039-.082-.023-1.336.09-6.367.125-5.66.133-6.274.078-6.39-.078-.165-.25-.188-.387-.055-.093.09-4.562 23.558-4.535 23.796.027.215.156.34.36.34.124 0 .183-.023.261-.11zm0 0"/></svg>