<svg xmlns="http://www.w3.org/2000/svg" width="64" height="64"><path d="M30.86 62.976c-7.244-.296-13.884-2.94-19.34-7.703-1.12-.977-2.728-2.664-3.738-3.92-6.819-8.488-8.65-20.072-4.79-30.308 3.26-8.646 10.294-15.45 19.035-18.41 4.503-1.526 9.237-1.993 14.01-1.382 5.606.717 10.99 3.023 15.43 6.61a33.132 33.132 0 0 1 4.55 4.524 30.952 30.952 0 0 1 6.669 15.186c.226 1.574.3 2.662.3 4.42 0 1.4-.03 2.058-.15 3.217-1.08 10.516-7.491 19.77-17.003 24.54-4.541 2.278-9.905 3.434-14.974 3.226zm-4-5.424c.062-.029.112-.094.136-.181.064-.227 4.339-22.75 4.339-22.86 0-.353-.358-.53-.607-.3-.062.057-3.054 4.428-6.648 9.712-5.956 8.758-6.532 9.619-6.511 9.724.032.16.09.218.218.218.072 0 .154-.042.239-.124.07-.068 1.923-2 4.115-4.292 2.192-2.293 4.06-4.242 4.151-4.33.202-.198.332-.215.415-.053.05.097.042.775-.077 6.139-.073 3.316-.123 6.084-.111 6.152a.32.32 0 0 0 .105.18c.1.07.112.071.236.015zm10.547-.042l.1-.085-.136-6.166c-.135-6.114-.135-6.167-.062-6.24.06-.061.097-.068.191-.04.085.025 1.267 1.236 4.309 4.413 2.306 2.408 4.229 4.399 4.273 4.424.114.065.216.06.298-.014.118-.107.084-.254-.134-.572l-6.532-9.606c-3.482-5.12-6.38-9.356-6.442-9.413-.154-.146-.343-.143-.493.006-.083.083-.111.148-.111.25 0 .102 4.016 21.35 4.305 22.78.067.332.236.434.434.263zM10.634 46.33c.097-.062 3.145-2.133 6.774-4.602l9.435-6.418c1.56-1.06 2.883-1.973 2.94-2.026.23-.214.063-.625-.252-.625-.074 0-.765.12-1.535.268l-2.98.57L15.002 35.4c-7.944 1.51-8.438 1.609-8.519 1.698-.108.12-.107.175.001.301l.087.101 6.147-.135c6.732-.148 6.32-.153 6.32.078 0 .132.066.066-4.665 4.58a1071.146 1071.146 0 0 0-4.101 3.926c-.138.146-.168.277-.09.396.084.129.23.123.45-.017zm43.191.01c.107-.146.06-.25-.25-.546-.166-.157-2.171-2.075-4.457-4.263-3.886-3.717-4.156-3.984-4.146-4.092.008-.08.041-.13.108-.162.077-.036 1.358-.018 6.17.088 4.267.093 6.103.122 6.176.094.233-.089.197-.373-.059-.454-.18-.057-22.733-4.346-22.852-4.346-.13 0-.312.095-.362.189a.54.54 0 0 0-.039.207c0 .11.028.156.162.267.089.074 4.453 3.056 9.699 6.626 8.941 6.087 9.545 6.492 9.67 6.475.073-.01.154-.048.18-.083zM29.803 31.188c.121-.133.114-.325-.02-.466-.088-.094-19.032-13.01-19.263-13.133-.196-.105-.431.061-.377.267.013.051 1.91 1.893 4.46 4.333 4.14 3.958 4.438 4.252 4.427 4.36-.022.228.338.223-6.292.077-6.586-.145-6.259-.148-6.313.059a.262.262 0 0 0 .16.296c.054.021 4.536.881 9.96 1.911l11.402 2.167c1.66.317 1.681.318 1.856.129zm16.17-2.012c6.24-1.185 11.391-2.173 11.447-2.195a.247.247 0 0 0 .034-.45c-.05-.027-1.981.003-6.21.096-5.791.128-6.14.132-6.208.07-.11-.1-.088-.23.071-.395.079-.082 2.045-1.965 4.369-4.186 2.324-2.22 4.265-4.092 4.313-4.16.111-.156.097-.295-.038-.37-.08-.046-.127-.05-.21-.018-.156.06-19.199 13.024-19.322 13.154a.333.333 0 0 0-.105.256c0 .218.222.404.438.367.042-.008 5.182-.983 11.421-2.169zm-14.75.593c.084-.083.112-.147.112-.252 0-.143-4.275-22.704-4.343-22.921-.07-.22-.364-.248-.456-.045-.027.06.002 1.95.096 6.213.127 5.723.131 6.13.072 6.196-.122.134-.234.088-.548-.225-.163-.162-2.065-2.145-4.227-4.407-2.162-2.261-3.967-4.132-4.01-4.158a.372.372 0 0 0-.147-.047c-.1-.002-.219.137-.218.255.001.076 1.825 2.784 6.531 9.699 3.591 5.277 6.58 9.64 6.643 9.699.157.145.346.143.496-.007zm2.061.007c.054-.058 3.04-4.427 6.635-9.71 6.293-9.245 6.537-9.61 6.513-9.739-.03-.159-.163-.24-.305-.184-.05.02-1.996 2.028-4.325 4.463-3.992 4.174-4.242 4.427-4.353 4.416-.082-.008-.131-.04-.164-.11-.038-.08-.02-1.296.087-6.167.121-5.486.129-6.081.076-6.193-.074-.157-.242-.18-.374-.052-.089.085-4.421 22.822-4.393 23.05.026.211.152.33.348.33.123 0 .179-.023.255-.104z"/></svg>