<svg xmlns="http://www.w3.org/2000/svg" width="64pt" height="64pt" viewBox="0 0 64 64"><path d="M30.453 63.96C23.07 63.57 16.38 60.86 10.82 56c-.68-.594-2.246-2.164-2.84-2.844-3.937-4.504-6.472-9.754-7.507-15.562C.14 35.727 0 34.09 0 31.992c0-2.316.176-4.16.61-6.328A31.975 31.975 0 0 1 7.065 11.91c1.336-1.652 3.125-3.45 4.758-4.77A31.836 31.836 0 0 1 28.644.165C30.189 0 32.724-.05 34.11.054c5.059.387 9.504 1.723 13.727 4.13 2.512 1.433 4.68 3.097 6.809 5.226 4.91 4.918 8.003 11.102 9.011 18.004.235 1.594.313 2.754.313 4.578 0 1.824-.078 2.985-.313 4.578-.816 5.582-2.98 10.664-6.437 15.11-1.403 1.797-3.344 3.77-5.153 5.23-4.785 3.867-10.683 6.3-16.761 6.914-1.453.145-3.575.207-4.852.137zm3.879-5.183c1.805-.308 4.324-1.515 6.684-3.199 1.242-.887 1.933-1.5 2.261-2.012l.2-.312-.68-.04.176-.116c.742-.485 1.84-1.325 2.668-2.043.582-.5 1.441-1.344 1.562-1.54l.102-.163.808-.02c.84-.023 1.27-.078 1.934-.246 1.086-.273 1.734-.613 2.582-1.352.95-.832 1.687-1.93 2.207-3.289.375-.988.527-1.78.531-2.804.004-.973-.133-1.54-.527-2.2-.3-.507-.512-.652-.735-.496-.046.035-.226.387-.425.836-1.047 2.367-2.207 4.336-3.825 6.489a36.322 36.322 0 0 1-1.539 1.894l-.199.215.156-.242c.77-1.188 1.801-3.227 2.274-4.492.652-1.743 1.305-4.493 1.305-5.485 0-.59-.164-.824-.664-.937-.575-.13-1.32-.192-2.067-.168-1.836.058-3.531.554-5.832 1.715-1.004.507-1.691.898-3.129 1.777-1.37.836-1.894 1.137-2.476 1.41-1.375.656-2.48.945-3.614.953-1 .008-1.578-.183-2.437-.812a6.904 6.904 0 0 0-.473-.313c-.11-.062-.16-.101-.12-.086.284.09 1.952.125 2.948.059 2.39-.16 4.543-.852 6.309-2.024.672-.445 1.035-.75 1.613-1.343 1.281-1.313 2.164-2.723 2.84-4.532.328-.882.71-2.57.93-4.105.172-1.223.312-3.238.258-3.715l-.028-.238h-.2a.61.61 0 0 0-.327.082c-.074.047-.313.324-.535.62-.641.852-1.485 1.642-2.586 2.415-.29.207-.606.441-.696.52-.164.144-.168.144-.168.054-.003-.62-.183-2.16-.312-2.668a21.07 21.07 0 0 0-.508-1.531c-.266-.695-.453-.742-1.437-.355-.34.132-.762.292-.938.359-.414.152-.621.273-.77.453-.109.133-.124.14-.19.086a.528.528 0 0 0-.138-.086c-.035-.012-.433.102-.882.254-.45.148-1.215.39-1.703.527-1.043.305-1.196.371-1.36.614-.117.175-.148.289-.308 1.128a6.732 6.732 0 0 1-1.434 2.954 2.426 2.426 0 0 0-.293.421l-.102.204.149.039c.445.117.547.129.828.109.195-.012.414-.063.629-.145.184-.066.336-.117.34-.109.004.004.023.098.043.207l.035.195.355.016c1.438.05 3.825-.465 5.48-1.18.454-.195 1.298-.629 2.118-1.078.203-.11.32-.156.309-.12-.043.109-.102.347-.258 1.046-.086.379-.215.867-.281 1.082-.48 1.5-1.43 2.961-2.739 4.223-.843.816-1.715 1.367-3.105 1.96-1.508.645-2.817.907-4.707.934l-.985.016-.09.101a.354.354 0 0 0-.085.184c0 .23 1.027 1.625 1.546 2.102.204.183.211.199.102.168a6.506 6.506 0 0 0-.562-.102c-1.774-.258-3.582-.805-5.801-1.75-.399-.172-.77-.309-.828-.309-.254 0-.41.286-.317.59.067.219.188.348.824.86 1.508 1.21 2.43 2.218 3.883 4.25.274.382.586.691.739.726.058.016.093.047.082.07-.012.024-.032.079-.047.114-.016.05-.067.07-.18.07-.145 0-.188.027-.473.305-.52.504-.785.93-1.004 1.62-.195.614-.222.813-.222 1.727 0 2.114.469 4.172 1.297 5.723 1.113 2.082 2.52 3.16 4.379 3.356.468.05 1.332.015 1.855-.075zm-1.621-.539c-1.363-.133-2.273-.61-3.121-1.629-1.38-1.652-2.145-4.07-2.16-6.793 0-.644.011-.875.07-1.14.133-.621.398-1.192.746-1.586l.168-.195.36.585c.44.723.835 1.395 1.562 2.672 1.207 2.118 1.73 2.891 2.512 3.707.89.922 1.918 1.516 3.047 1.758.511.11 1.773.102 2.437-.02a10.375 10.375 0 0 0 2.336-.679c.191-.082.355-.145.363-.137.008.008-.176.145-.41.309-2.187 1.531-4.39 2.625-6.027 2.992-.63.14-1.387.203-1.883.156zm3.617-3.672a5.676 5.676 0 0 1-1.336-.453c-.574-.316-1.066-.734-1.629-1.394-.66-.774-1.07-1.41-2.457-3.828-.449-.778-.96-1.668-1.14-1.977-.18-.309-.317-.57-.305-.578.008-.012.148-.05.309-.086.421-.098 1.886-.098 2.511.004 1.66.258 3.707.789 8.016 2.074 2.328.692 3.691 1.024 5.168 1.25.305.047.594.094.644.106.086.015.07.039-.195.285a26.747 26.747 0 0 1-3.375 2.66c-1.652 1.105-2.965 1.652-4.512 1.883-.523.078-1.37.105-1.699.054zm10.867-5.32c-.078-.035-.093-.055-.047-.059.04 0 .141-.039.227-.082.145-.074.156-.074.121-.011a.601.601 0 0 1-.11.136c-.066.06-.09.06-.19.016zm1.922-1.047c1.973-2.289 3.934-5.383 5.035-7.926l.192-.445.07.129c.234.438.371 1.238.332 1.926a7.678 7.678 0 0 1-.476 2.273c-.465 1.23-.93 1.977-1.747 2.793-.925.926-1.605 1.301-2.87 1.582-.25.055-.567.114-.704.13l-.25.026zm-3.004.367c-.304-.035-1.675-.296-2.422-.464-.988-.22-2.164-.543-3.668-1.004-3.07-.946-4.62-1.364-6.21-1.684-1.41-.285-1.688-.32-2.594-.344-.899-.023-1.407.016-2.004.149-.406.09-.402.09-.727-.356a41.24 41.24 0 0 0-1.468-1.925c-.485-.579-1.442-1.563-1.961-2.008-.223-.196-.395-.352-.383-.352.012 0 .125.043.246.094 1.633.687 3.45 1.191 5.344 1.492.418.066.554.129 1.043.48 1.18.844 2.304 1.075 3.898.805 1.383-.238 2.723-.812 4.719-2.023 2.199-1.34 2.617-1.578 3.75-2.145 1.844-.926 3.222-1.379 4.71-1.55.837-.098 2.051-.051 2.66.101l.177.043v.29c0 .815-.543 3.167-1.121 4.85-.305.883-.551 1.458-1.063 2.458-.937 1.843-1.602 2.886-1.95 3.066-.105.055-.624.07-.976.027zM31.605 41.13c-.23-.016-.453-.05-.5-.078C30.97 40.98 30 39.789 30 39.699c0-.015.168-.023.367-.023.684 0 2.012-.153 2.75-.317 1.39-.308 3.2-1.109 4.356-1.93.93-.656 1.965-1.761 2.738-2.925.71-1.066 1.137-2.102 1.46-3.555.09-.398.18-.789.2-.87.035-.13.098-.188.512-.47.988-.675 2.156-1.695 2.664-2.332.27-.336.27-.34.203.532-.172 2.3-.648 4.726-1.207 6.128-.504 1.27-1.012 2.153-1.84 3.184-.75.934-1.324 1.469-2.219 2.063-1.52 1.015-3.316 1.644-5.367 1.89-.597.07-2.402.106-3.012.055zm2.856-9.75c.086-.07.36-.332.61-.582 1-1.012 1.742-2.192 2.519-4.008.238-.559.383-.742.683-.848l.899-.343c.387-.149.719-.258.734-.239.055.055.309.746.469 1.286.168.554.293 1.343.348 2.144.023.344.02.504-.008.535-.106.11-1.653.906-2.215 1.14-1.102.458-2.828.903-3.96 1.016l-.235.024zm-2.297-.055c0-.012.066-.113.148-.226.602-.825 1.036-1.914 1.247-3.145.035-.21.093-.418.132-.465.047-.058.258-.136.73-.27a43.5 43.5 0 0 0 2.009-.616c.09-.036-.621 1.363-.977 1.918-.922 1.437-1.816 2.265-2.906 2.69-.356.138-.383.15-.383.114zM22.7 56.31c.371-.164.621-.493.766-.996.082-.293.113-1.333.055-1.891a14.188 14.188 0 0 0-.625-2.938 16.66 16.66 0 0 0-1.88-3.77c-1.152-1.687-2.449-2.89-6.124-5.675-1.461-1.11-1.805-1.477-1.805-1.934.004-.52.441-.851 1.687-1.277.657-.223 1.801-.543 2.75-.766.348-.082.641-.16.657-.175.015-.012-.145-.125-.364-.25a48.85 48.85 0 0 1-2.691-1.797c-1.098-.828-2.223-1.867-2.676-2.473-.648-.875-1.18-2.086-1.39-3.172a21.52 21.52 0 0 1-.079-.422c0-.003.395.387.875.88 3.293 3.343 4.41 4.44 5.883 5.765 1.18 1.059 1.313 1.152 1.59 1.152.23-.004 1.305-.277 1.488-.383.02-.007 0-.054-.039-.097-.066-.078-.066-.082 0-.055.043.012.141.024.223.024.14 0 .145.007.129.117-.035.242.008.289.473.562 1.863 1.094 3.425 1.719 5.195 2.09 1.043.219 1.531.262 1.84.172l.156-.047-.023-.2c-.012-.124-.118-.413-.278-.769-.418-.941-.68-1.875-.847-3.02-.102-.69-.153-.831-.301-.831h-.106l.082-.086c.157-.168.203-.36.246-1.024.024-.351.055-.718.079-.816.02-.098.035-.273.035-.395.004-.18-.012-.234-.086-.3-.047-.043-.39-.2-.758-.344-2.523-1-5.07-2.512-8.215-4.875-.34-.258-.457-.293-.605-.184l-.11.082-.027-.132c-.047-.262-.34-.575-1.203-1.301a53.998 53.998 0 0 1-2.586-2.274c-.985-.918-.969-.914-1.363-.254-.57.961-1.207 2.438-1.528 3.547-.242.84-.328 1.282-.383 1.996l-.046.614-.461-.395c-.758-.64-1.121-.894-1.555-1.07-.715-.293-1.313.121-1.543 1.07-.438 1.785.05 5.602 1.172 9.09 1.824 5.703 4.012 9.883 7.347 14.05.832 1.04 1.493 1.786 2.243 2.536 1.496 1.492 2.691 2.371 3.617 2.66.367.113.828.106 1.11-.02zm-.953-.594c-.805-.258-1.898-1.078-3.281-2.461-2.192-2.188-4.414-5.195-6.074-8.219-1.27-2.312-2.457-5.14-3.387-8.07-.977-3.078-1.473-6.223-1.281-8.16.043-.461.12-.825.218-1.016.094-.18.254-.336.348-.336.258 0 .73.277 1.363.809.746.62.684.539.797 1.086.285 1.382.89 2.675 1.723 3.675.746.895 2.23 2.133 3.82 3.192.301.203.563.379.578.394.02.016-.12.067-.312.118-1.785.468-2.824.878-3.297 1.308-.555.512-.66 1.137-.3 1.813.167.308.745.855 1.542 1.457 4.73 3.554 5.992 4.86 7.348 7.605.699 1.426 1.031 2.469 1.277 4.028.086.546.121 1.664.063 2.007-.024.149-.09.364-.145.477-.164.344-.516.445-1 .293zm5.899-17.363c-1.301-.223-2.551-.594-3.684-1.098-.668-.297-1.707-.84-1.68-.883.008-.016.102-.047.203-.074.891-.223 2.63-.774 3.68-1.164.43-.164.79-.285.8-.278.009.012.06.266.11.567.156.926.426 1.879.73 2.582.087.191.153.355.153.363 0 .016-.184.008-.312-.015zm-8.575-2.594a86.027 86.027 0 0 1-1.84-1.66c-.71-.66-4.808-4.73-5.39-5.36l-.434-.465.028-.34c.086-1.148.418-2.374 1.007-3.738.2-.46.594-1.25.743-1.492l.078-.129.48.446c.75.703 1.508 1.37 2.406 2.12.985.82 1.122.962 1.122 1.157 0 .078-.079.371-.176.656-.344 1.031-.473 1.856-.473 3.074 0 1.047.113 1.653.504 2.653.316.816 1.176 1.988 2.156 2.933l.29.282-.114.023c-.168.035-.16.039-.387-.16zm1.668-.418c-.398-.207-1.254-1.07-1.843-1.856-.477-.64-.899-1.566-1.055-2.312-.2-.965-.133-2.371.156-3.383.113-.406.297-.926.32-.926.012 0 .368.254.793.563 1.211.879 1.399 1.012 2.07 1.449 1.903 1.246 3.887 2.293 5.5 2.91.173.067.329.13.34.145.012.011 0 .183-.027.379-.027.191-.05.476-.055.632-.003.446-.042.641-.136.704-.13.085-1.453.59-2.223.843-.379.125-1.094.344-1.594.485-1.789.507-1.937.53-2.246.367zm33.606 2.969c.27-.364.625-1.375 1.008-2.86.503-1.969.695-3.64.652-5.77-.02-1.195-.074-1.761-.238-2.648-.391-2.07-1.118-3.726-2.043-4.656-.852-.855-1.875-1.25-3.262-1.25-.512 0-1.184.07-1.54.164-.198.05-.331.176-.331.309 0 .058.14.379.316.71 1.457 2.786 2.348 5.399 2.766 8.094.121.782.238 1.715.305 2.434.054.625.066 2.797.015 3.758-.047.918-.058.898.817 1.293.234.105.57.285.746.398.254.164.355.207.488.207.152.004.176-.008.3-.183zm-.723-.72c-.14-.085-.43-.23-.644-.32l-.387-.167.035-.551c.047-.82.035-3.145-.02-3.754-.375-3.992-1.16-6.828-2.82-10.145l-.406-.808.105-.028c.254-.054 1.313-.07 1.668-.023 1.844.25 2.926 1.453 3.707 4.133.348 1.199.485 2.195.516 3.746.031 1.566-.066 2.851-.324 4.262-.242 1.308-.985 3.824-1.13 3.812a2.038 2.038 0 0 1-.3-.156zm-25.34-7.503a4.1 4.1 0 0 0 .34-.5c.414-.703 1.516-1.887 2.227-2.395.148-.109.41-.296.578-.418.168-.117.512-.335.765-.484.508-.297.746-.504.782-.684.027-.132.062-.144.136-.054.082.101.356.047.864-.176a26.086 26.086 0 0 1 3.207-1.129c.59-.168.761-.254.894-.445.184-.262.383-.973.387-1.387.004-.148.016-.266.031-.266.012 0 .043-.039.067-.09.039-.085.039-.085.066.032.07.297.176.484.527.95.504.663.524.67 1.18.605a25.92 25.92 0 0 1 1.379-.082c1.078-.043 1.316-.098 2.414-.536 1.094-.433 1.473-.652 1.625-.937.043-.078.043-.078.129 0 .062.058.137.078.289.074.258-.008 1.797-.46 2.004-.594.152-.097.152-.097.137-.32-.02-.273-.192-.57-.813-1.422-.875-1.191-1.687-2.137-1.879-2.183a.308.308 0 0 0-.195.02c-.102.046-.11.034-.192-.231-.03-.098-.03-.098.055-.024.043.04.082.059.082.043 0-.015-.05-.262-.117-.547-.063-.285-.188-.87-.277-1.3-.684-3.31-1.848-6.364-2.645-6.942-.34-.246-.594-.242-.848.012-.417.418-.667 1.238-1.18 3.914-.179.933-.226 1.25-.198 1.308.035.063.023.102-.04.18a.4.4 0 0 0-.078.203c0 .082-.02.063-.105-.105-.152-.313-.434-.492-.98-.63-1.637-.41-3.528-.401-5.579.02-1.367.286-3.011.86-4.289 1.5-.582.293-.586.332-.047 1.11a28.224 28.224 0 0 1 2.16 3.652c.696 1.426.676 1.387.852 1.52.16.12.16.125.086.191a.25.25 0 0 0-.078.152c0 .079-.02.086-.242.082-.211 0-.313.028-.68.192-1.707.758-2.664 1.078-3.68 1.226-.629.094-1.648.059-2.257-.074a7.35 7.35 0 0 1-1.82-.656c-.294-.148-.575-.273-.626-.273-.129 0-.281.167-.281.312 0 .191.66 1.555 1.227 2.535.808 1.406 1.324 2.078 1.714 2.254.121.055.149.082.121.129a.42.42 0 0 0-.039.164c0 .313 2.329 2.645 2.66 2.66.028 0 .106-.07.18-.156zm-.699-1.031c-.469-.434-1.059-1.043-1.035-1.063.008-.008.176 0 .371.02.191.02.73.047 1.195.062l.844.028-.176.199a6.267 6.267 0 0 0-.644.851l-.164.27zm-.156-2.117c-.707-.051-1.551-.145-1.723-.196-.203-.058-.422-.289-.785-.84-.469-.707-1.52-2.55-1.52-2.664 0-.011.176.047.387.13.434.167.95.312 1.48.417.505.102 1.973.102 2.477 0 1.043-.207 1.844-.473 3.235-1.086.355-.156.664-.273.691-.262.133.051.73 2.356.73 2.82 0 .177-.015.192-.71.602-.227.133-.61.387-.844.559-.633.465-.664.48-1.324.523a15.61 15.61 0 0 1-2.094-.003zm6.054-2.086c-.007-.028-.042-.211-.078-.407-.109-.586-.293-1.3-.496-1.918-.105-.32-.195-.586-.195-.593 0-.032.824-.332 1.262-.465.558-.172.96-.235 1.472-.239.766-.003 1.301.188 2.04.735.32.238.374.344.331.637-.054.335-.226.84-.3.878-.04.02-.301.102-.578.18-1.067.3-2.383.766-3.215 1.137-.164.074-.23.09-.243.055zm6.149-2.223c-.172-.23-.336-.492-.36-.578-.066-.242-.023-.528.34-2.34.391-1.93.82-4.195.887-4.668.024-.176.055-.324.063-.324.054 0 .98.465 1.296.652.868.508 1.786 1.203 2.415 1.824.39.39.41.434.562 1.336.148.883.34 2.614.34 3.106 0 .164-.016.203-.11.27-.18.124-.468.257-1.187.546-1.02.406-1.176.438-2.32.48-.528.024-1.078.055-1.22.079-.14.02-.284.039-.323.039-.043 0-.188-.16-.383-.422zm6.664-1.184a14.986 14.986 0 0 1-.098-.851 46.951 46.951 0 0 0-.18-1.551l-.023-.137.082.098c.043.055.324.418.617.805.582.765.93 1.277.895 1.312a9.751 9.751 0 0 1-.648.203c-.54.156-.63.172-.645.121zm-8.352-.52a5.137 5.137 0 0 0-1.402-.648 5.183 5.183 0 0 0-1.844-.078c-.527.078-1.004.2-1.707.434-.289.097-.562.18-.601.18-.055 0-.117-.102-.254-.403-.594-1.312-1.57-3.043-2.438-4.308-.254-.375-.32-.497-.277-.52.297-.187 1.703-.742 2.566-1.012 2.118-.66 4.282-.86 6.063-.554.703.117 1.074.23 1.2.355.1.098.108.133.108.422 0 .176-.054.633-.12 1.016-.266 1.558-.81 4.379-1 5.191-.028.11-.036.11-.294-.074zm5.934-5.542a11.846 11.846 0 0 0-2.504-1.528c-.32-.148-.586-.289-.594-.308-.02-.063.446-2.395.621-3.11.153-.617.418-1.296.508-1.296.082 0 .36.379.582.793.524.964 1.121 2.699 1.617 4.687.168.688.254 1.082.235 1.098-.008.008-.219-.145-.465-.336zM24.75 26.938c-.016-.028-.191-.29-.39-.59-.618-.918-1.473-2.5-2.005-3.707-.242-.551-.324-.684-.515-.825a4.131 4.131 0 0 1-.277-.23c-.118-.11-.133-.113-.247-.066-.066.027-.234.171-.37.324-.391.426-1.606 2.105-1.805 2.492-.09.172-.082.297.023.398.117.11 1.672.864 2.555 1.243.82.351 1.504.59 2.347.828.672.187.727.199.684.133zm-1.883-1.172c-.953-.356-2.976-1.293-2.996-1.387-.012-.067 1.297-1.883 1.477-2.047.07-.062.078-.062.152.023.043.047.172.301.285.56.367.82.938 1.937 1.524 2.976.023.047-.016.035-.442-.125zm-4.086-1.301c.18-.086.29-.211.61-.688.242-.359.55-.78 1.27-1.738.456-.61.51-.7.526-.867l.02-.192-.352-.41c-.918-1.07-1.265-1.633-1.66-2.683-.191-.512-.304-.719-.488-.88-.297-.257-.809-.312-1.285-.128-.563.215-1.594 1.09-2.363 2.008-.73.87-1.68 2.187-1.68 2.324 0 .144.055.2.59.566 2.25 1.547 3.804 2.528 4.254 2.692.261.093.359.093.558-.004zm-.578-.695c-.406-.215-1.515-.91-2.488-1.563-1.356-.914-1.55-1.055-1.527-1.117.03-.09.664-.945 1.101-1.492.527-.657 1-1.157 1.484-1.559.489-.41.852-.61 1.157-.637.34-.03.422.059.675.711.418 1.07.805 1.723 1.54 2.59l.386.461-.308.402a66.468 66.468 0 0 0-1.453 2.004 3.274 3.274 0 0 1-.239.325c-.023.011-.168-.043-.328-.125zm4.582-4.008a24.148 24.148 0 0 1 2.633-2.262c.645-.48 1.453-1.035 1.91-1.305.41-.242.777-.527.863-.668.2-.32.09-.582-.625-1.484-.46-.578-1.992-2.145-2.496-2.543-1.105-.883-2.336-1.434-3.023-1.36-.578.063-.922.32-1.195.891-.797 1.649-.668 4.496.37 8.207.34 1.219.38 1.297.63 1.297.132 0 .199-.055.933-.773zm-.812-.192c-.778-2.652-1.102-4.789-.977-6.457.086-1.14.406-2.066.785-2.258.332-.171.782-.093 1.489.247.878.425 1.5.902 2.558 1.968.64.64 1.156 1.23 1.602 1.82l.23.313-.11.09c-.058.05-.26.187-.448.3-1.575.95-3.395 2.364-4.73 3.677-.313.308-.384.359-.4.3zm0 0"/></svg>