<svg xmlns="http://www.w3.org/2000/svg" width="64" height="64"><path d="M37.055 52.558l1.198.298c5.148.826 7.81-6.195 3.7-9.002l-1.198-.696c-2.502-.799-4.2-.302-5.896 1.694l-.602 1.202-.404 1.3.102 1.302.302 1.202.696 1.198.9.9M23.759 12.96l-.9.301-.603.603-.301.697v.704l.301.697.403.603.6.395.9.106.7-.204.595-.497c.16-.215.274-.469.403-.704l.2-.897-.301-.802-.501-.595-.697-.407m24.394 4.998l-1.495-1.296c-3.8-2.5-8.901-2.297-12.4.697l-1.3 1.3-1.1 1.604c-1.597 2.395-1.8 6.802-.4 9.397l.9 1.698 1.1 1.303c2.8 2.7 6.299 3.797 9.998 2.799l1.8-.6 1.598-.903c3.401-2.798 4.6-5.401 4.4-9.8l-.4-1.796-.7-1.601-.795-1.499-1.206-1.303M20.26 36.356l1.3-.896c4.27-4.298 1.236-11.604-4.8-11.6l-1.401.097c-3.601.803-5.797 4-5.296 7.605l.297 1.299.501 1.096.697.998.998 1.006c2.004 1.499 4.103 1.898 6.502 1.1m5.202 11.498l.494-.904c.454-8.743-10.886.234-2.294 1.902l.998-.4M1 32c0 17.118 13.88 31 31.002 31C49.12 63 63 49.118 63 32 63 14.882 49.12 1 32.002 1 14.88 1 1 14.882 1 32" fill-rule="evenodd"/></svg>