<svg xmlns="http://www.w3.org/2000/svg" width="80" height="80"><path d="M38.554 79.986a39.943 39.943 0 0 1-12.59-2.527c-7.172-2.704-13.342-7.309-17.9-13.359a40.258 40.258 0 0 1-5.695-10.533A40.332 40.332 0 0 1 .107 43.021 33.087 33.087 0 0 1 0 39.991c0-1.333.022-1.969.106-3.057a40.036 40.036 0 0 1 3.307-13.11 56.701 56.701 0 0 1 1.606-3.23C7.795 15.61 11.494 11.365 15.991 8a40.194 40.194 0 0 1 13.11-6.479c7.74-2.19 15.896-2.012 23.47.515 7.741 2.582 14.426 7.36 19.297 13.792a40.315 40.315 0 0 1 5.754 10.613c2.398 6.651 2.998 13.842 1.73 20.745a40.274 40.274 0 0 1-4.136 11.771 39.82 39.82 0 0 1-15.81 16.021 54.19 54.19 0 0 1-3.037 1.519c-4.675 2.069-9.312 3.183-14.411 3.463a59.17 59.17 0 0 1-3.404.026zm4.053-20.503c9.323-.027 16.954-.054 16.958-.06.009-.009-.093-38.986-.102-38.995-.002-.003-2.167.008-4.81.023-3.037.018-10.192.021-19.444.01l-14.638-.018v.57c0 1.484-.08 32.113-.091 35.111l-.013 3.41h2.595c1.428 0 10.223-.023 19.546-.05z"/></svg>