<svg width="80" height="80" xmlns="http://www.w3.org/2000/svg"><path style="fill:#000;fill-opacity:1;fill-rule:evenodd;stroke:none;stroke-width:2.94791" d="M39.814 0C29.576.048 19.356 4.001 11.582 11.846c-15.547 15.692-15.425 41.019.264 56.566 15.689 15.55 41.021 15.433 56.568-.256 15.547-15.692 15.433-41.027-.262-56.574C60.308 3.808 50.052-.048 39.814 0zm-6.449 11.111 18.362 10.79-10.963 4.59-4.711-2.884.44 4.666-3.27 1.366-2.983-2.866 3.125-15.662zm-11.65 8.391 12.967 12.463-16.618 8.46 3.65-20.923zm33.35 1.152L68.022 36.6l-3.939 1.43.127-3.051-11.86 7.312L48 43.865l1.416-4.636 6.959-3.182-5.05-3.092 3.74-12.3zM36.84 24.871l18.117 11.092-16.363 7.473L36.84 24.87zm26.654 11.336-.734 17.967-10.367-4.072-.68-3.418-2.246 2.261-4.055-1.59 18.082-11.148zM14.127 38l3.543.8-.496 2.825 3.998-2.037 13.676 3.086-13.09 12.342L14.127 38zm23.066.193.295.655.53 5.584 1.64-.752 5.94 13.265-21.22 1.85 8.032-12.906 3.805-3.594-1.377-.31 2.355-3.792zm14.11 9.852 3.52 17.64-18.468-2.554 5.11-5.158 5.123-.446-1.453-3.257 6.168-6.225z"/></svg>