<svg xmlns="http://www.w3.org/2000/svg" width="80" height="80" viewBox="0 0 21.167 21.167"><path d="M8.532 21.007C4.772 20.23 1.47 17.356.44 13.614-.81 9.54.663 4.783 4.066 2.2 5.928.785 8.24-.11 10.601.01c2.672-.126 5.299 1.009 7.245 2.803 2.095 1.985 3.436 4.842 3.313 7.76.167 4.212-2.662 8.237-6.506 9.825-1.909.82-4.09.912-6.12.608zm.428-4.366c-.13-.612-1.122-1.6-1.204-2.539-.307-1.448-.356-2.99-.006-4.434.411-.812.356-1.408-.517-.894-1.298.568-2.338 1.76-2.477 3.201-.264 1.343.26 2.714 1.217 3.663.726.7 1.968 1.405 2.987 1.003zm5.23-.278c1.368-.644 2.314-2.115 2.201-3.645.066-1.343-.504-2.83-1.732-3.485-.92-.146.048.778.005 1.566-.066 1.665-.743 3.364-2.033 4.455-.541.575-1.854.863-1.695 1.384 1.057.23 2.283.271 3.254-.275zM8.633 6.941c1.888-.61 4.065-.296 5.636.941 1.05.557.2-1.364-.12-1.716-.768-1.131-1.722-1.802-3.489-1.666-1.882-.082-3.75 1.272-3.99 3.142.328.648.75-.472 1.963-.701z"/></svg>