<svg xmlns="http://www.w3.org/2000/svg" width="64" height="64"><path d="M39.798 41.014a2.46 2.46 0 0 0-2.463-2.46 2.46 2.46 0 1 0 0 4.921 2.46 2.46 0 0 0 2.463-2.46M55.408 32a2.463 2.463 0 0 0-2.462-2.46 2.463 2.463 0 0 0 0 4.923 2.46 2.46 0 0 0 2.461-2.463m-1.962-11.548a2.46 2.46 0 1 0-4.922 0 2.46 2.46 0 1 0 4.922 0m-.827 21.956a2.46 2.46 0 1 0-4.92-.002 2.46 2.46 0 0 0 4.92.002M45 50.028a2.46 2.46 0 1 0-4.92-.002 2.46 2.46 0 0 0 4.92.002m-10.404 2.788a2.46 2.46 0 1 0-4.924-.001 2.46 2.46 0 0 0 4.924.001M29.39 41.014a2.46 2.46 0 1 0-4.921 0 2.46 2.46 0 0 0 4.921 0m5.205-9.013a2.465 2.465 0 0 0-2.46-2.46 2.463 2.463 0 0 0 0 4.923 2.463 2.463 0 0 0 2.46-2.463m10.404 0a2.463 2.463 0 0 0-2.46-2.46A2.465 2.465 0 0 0 40.076 32a2.46 2.46 0 1 0 4.922 0m-5.2-9.011a2.462 2.462 0 1 0-4.925.002 2.462 2.462 0 0 0 4.924-.002M45 13.98a2.46 2.46 0 1 0-4.922 0 2.462 2.462 0 0 0 4.922 0m-10.404-2.788a2.46 2.46 0 1 0-4.924-.001 2.46 2.46 0 0 0 4.924 0M29.39 22.99a2.46 2.46 0 1 0-4.919 0 2.46 2.46 0 0 0 4.92 0M24.186 32a2.463 2.463 0 0 0-2.46-2.46 2.463 2.463 0 0 0 0 4.923 2.46 2.46 0 0 0 2.46-2.463m0-18.02a2.46 2.46 0 1 0-4.922 0 2.46 2.46 0 0 0 2.461 2.456 2.46 2.46 0 0 0 2.461-2.456m-7.619 7.614a2.462 2.462 0 1 0-4.923.002 2.462 2.462 0 0 0 4.923-.002M13.78 32.001a2.463 2.463 0 0 0-2.46-2.46 2.463 2.463 0 0 0 0 4.923 2.46 2.46 0 0 0 2.46-2.463m2.79 10.408a2.46 2.46 0 1 0-4.923 0 2.46 2.46 0 1 0 4.922 0m7.62 7.619a2.46 2.46 0 1 0-4.923 0 2.46 2.46 0 1 0 4.922 0M63 32C63 14.881 49.12 1 32.002 1 14.881 1 1 14.88 1 32.001 1 49.118 14.88 63 32.002 63 49.119 63 63 49.118 63 32.001" fill-rule="evenodd"/></svg>