<svg xmlns="http://www.w3.org/2000/svg" width="64" height="64"><path d="M22.915 39.351l5.12 4.167-.022.085 11.501-13.396-.023.086.226-9.53 7.898.068-.024.088-5.052-4.426-3.937 4.621-.089-.023.6 1.93-2.937.887S23 39.374 22.915 39.351m-.156-1.158l-6.694-2.818-3.234 6.862-.09-.023 19.951 8.602 3.343-6.925-.995-.453-2.975 1.717-.024.09-1.803-2.999-2.07 2.519-.023.085-6.43-5.541-.024.089m10.511-15.251l5.767-1.712-2.606-9.73-20.234 5.663-.089-.024 2.957 9.82-.11.066 3.245-.995-1.446-2.25-.086-.022 9.827-5.75-.086-.022s2.972 4.897 2.861 4.956M26.25 34.194l6.5-7.57-3.65-6.194-8.198 4.882-.086-.023s5.546 8.84 5.434 8.905m5.986 9.983l8.132-4.988-.023.085-3.098-5.114-6.34 7.333-.09-.024s1.527 2.645 1.419 2.708m8.083-2.024l-.055-1.88 1.32-.759-1.461-2.535.086.023.476-15.33 10.143.02-.413 20.652.023-.086s-10.208-.129-10.12-.105m-16.341 19.79c16.535 4.431 33.536-5.385 37.967-21.921 4.431-16.537-5.385-33.535-21.92-37.966C23.487-2.374 6.487 7.44 2.056 23.975c-4.431 16.536 5.384 33.538 21.92 37.969" fill-rule="evenodd"/></svg>