<svg width="80" height="80" xmlns="http://www.w3.org/2000/svg"><path style="fill:#000;fill-opacity:1;fill-rule:evenodd;stroke:none;stroke-width:2.93858" d="M40.13 0C18.04-.07.07 17.781 0 39.867-.075 61.961 17.773 79.927 39.87 80c22.09.07 40.06-17.776 40.13-39.867C80.075 18.042 62.22.073 40.13 0zM34.39 10.973c1.137.625 2.18 1.19 3.22 1.757l-3.365 4.12c-.987-.53-1.913-1.017-2.965-1.579l3.11-4.298zm6.3 1.23c3.115 2.842 6.169 5.637 9.248 8.44A882.56 882.56 0 0 1 48.621 23c-3.191-2.968-6.291-5.85-9.406-8.75.529-.732.972-1.345 1.474-2.047zm7.553 1.113c.873.465 1.68.894 2.535 1.346-.458.917-.87 1.736-1.328 2.658l-2.904-2.375c.558-.538 1.094-1.05 1.697-1.629zm-20.248.553c2.607 2.433 5.151 4.804 7.735 7.223-.515 1.169-1.028 2.325-1.58 3.574-3.257-2.794-6.395-5.487-9.592-8.234 1.184-.885 2.274-1.696 3.437-2.563zm24.762 1.47c1.758 1.15 3.403 2.23 5.107 3.339-.92 1.495-1.79 2.916-2.742 4.47-1.369-1.492-2.637-2.864-3.93-4.265.523-1.185 1.021-2.318 1.565-3.543zm-15.904.214c1.322.738 2.672 1.493 4.08 2.275l-2.51 3.068c-1.328-.781-2.628-1.546-4.012-2.363l2.442-2.98zm-15.45 2.781c.489.767.88 1.39 1.303 2.062-1.302 1.781-2.581 3.548-3.86 5.305l-2.081-1.703 4.638-5.664zm20.721.64c.452.42.82.764 1.223 1.126-1.746 1.98-3.426 3.887-5.116 5.812-.593-.373-1.092-.687-1.7-1.078 1.907-2 3.727-3.91 5.593-5.86zm-16.896.944c2.591 1.898 5.063 3.702 7.587 5.55-.467.867-.91 1.696-1.402 2.616a4626.096 4626.096 0 0 1-6.633-6.383c.15-.594.277-1.113.448-1.783zm33.08.252c1.152 1.128 2.204 2.163 3.306 3.25-.74.623-1.42 1.198-2.154 1.818-.91-.828-1.78-1.61-2.691-2.435.517-.885 1-1.713 1.539-2.633zm-14.828 1.637c1.295.908 2.529 1.77 3.822 2.677-1.546 1.47-2.998 2.85-4.52 4.293a4217.13 4217.13 0 0 1-2.826-2.668l3.524-4.302zm6.591 1.474c.67.323 1.288.62 1.928.92l-6.871 8.397c-.702-.485-1.317-.904-1.992-1.366 2.33-2.677 4.614-5.294 6.935-7.95zm-27.02.254c1.103.524 2.176 1.033 3.32 1.582-2.725 3.57-5.36 7.03-8.046 10.551-1.114-.788-2.162-1.522-3.299-2.33l8.026-9.803zm31.315.578c.72.902 1.37 1.722 2.06 2.586-.872 1.284-1.707 2.53-2.591 3.844a854.7 854.7 0 0 0-2.678-3.082c1.097-1.146 2.122-2.214 3.21-3.348zm-39.242.71c.89 1.016 1.696 1.944 2.602 2.982-1.208 1.328-2.376 2.609-3.633 3.996-.523-1.517-.996-2.889-1.48-4.299.837-.896 1.656-1.763 2.511-2.68zm20.29 1.085 4.526 3.707c-.482.967-.94 1.862-1.427 2.834-1.99-1.43-3.875-2.8-5.826-4.213l2.726-2.328zm22.894.25c1.78 1.205 3.453 2.346 5.187 3.522-.694 1.328-1.352 2.585-2.072 3.966l-5.225-4.275 2.11-3.213zm-31.018.168c1.978 1.905 3.877 3.732 5.828 5.615-.99.697-1.864 1.317-2.763 1.957a4319.17 4319.17 0 0 0-5.819-4.207l2.754-3.365zm23.51 3.639c1.554 1.06 3.07 2.103 4.635 3.176l-1.336 1.625c-1.992-.976-3.943-1.922-6.018-2.936 1-.682 1.843-1.26 2.719-1.865zM22.64 32.094c.89.364 1.703.702 2.611 1.072-1.496 2.219-2.91 4.326-4.385 6.506-.552-.84-1.03-1.566-1.568-2.389 1.116-1.742 2.219-3.447 3.342-5.19zm12.445.162c.934.57 1.816 1.102 2.766 1.676-2.199 1.96-4.271 3.81-6.44 5.74-.74-.4-1.45-.78-2.244-1.21l5.918-6.206zm6.268.006c.92.599 1.847 1.213 2.837 1.865-1.589 1.722-3.084 3.335-4.638 5.021l-1.676-2.64 3.477-4.246zm16.119.605c.743.697 1.393 1.308 2.072 1.951-1.892 2.462-3.744 4.869-5.637 7.328l-1.838-1.503 5.403-7.776zm6.627.076c1.025.556 2 1.085 2.912 1.578l-7.256 8.864c-.764-.935-1.42-1.753-2.084-2.578l6.428-7.864zm-51.147.211c2.404 2.53 4.744 4.99 7.145 7.514-.961.62-1.837 1.187-2.727 1.766l-7.1-7.098c.92-.752 1.76-1.43 2.682-2.182zm34.354.33c1.704 1.1 3.341 2.157 5.06 3.262-.85 1.255-1.653 2.43-2.523 3.71l-5.461-4.472c.96-.82 1.927-1.654 2.924-2.5zm-20.229.153c1.032.664 1.972 1.27 2.994 1.925l-4.049 3.922c-1.078-.323-2.135-.633-3.334-.986 1.505-1.669 2.917-3.228 4.39-4.861zm8.393 4.066c1.163 1.17 2.28 2.292 3.46 3.488l-2.69 2.29c-1.082-.988-2.087-1.908-3.145-2.866l2.375-2.912zm8.73.307c2.762 2.106 5.39 4.116 8.031 6.135l-1.654 2.02c-2.345-2.046-4.633-4.03-6.943-6.04.179-.684.355-1.322.566-2.115zm-2.734 1.37c.937 1.023 1.799 1.97 2.678 2.94-.467.884-.905 1.724-1.399 2.659a1095.1 1095.1 0 0 0-2.992-2.93l1.713-2.668zm-18.012.372c2.16 2.03 4.222 3.966 6.356 5.973-.867.682-1.668 1.309-2.532 1.994-1.892-1.675-3.713-3.27-5.564-4.899.587-1.037 1.137-2.007 1.74-3.068zm41.16.89c1.038 1.014 2.008 1.954 3.04 2.962a810.668 810.668 0 0 1-3.194 3.2c-1.208-.88-2.324-1.696-3.523-2.572 1.254-1.228 2.434-2.38 3.677-3.59zm-52.052.188c1.586 1.093 3.12 2.147 4.734 3.264-1.367 1.222-2.643 2.364-3.953 3.539-1.35-1.37-2.619-2.665-3.948-4.014 1.088-.96 2.105-1.857 3.166-2.789zm17.574.123c2.08 1.458 4.117 2.883 6.195 4.338l-1.549 1.893c-2.074-1.57-4.096-3.106-6.185-4.69.564-.564 1.027-1.03 1.539-1.54zm26.056 1.695c.297.87.553 1.611.786 2.29l-3.489 4.267-2.197-1.793c1.61-1.572 3.207-3.124 4.9-4.764zm-36.01.21 1.749 1.996c-1.99 2.16-3.897 4.237-5.79 6.29l-1.845-1.507c1.987-2.283 3.906-4.49 5.887-6.78zm18.881 1.23c.906.829 1.69 1.554 2.5 2.3-.825 1.426-1.608 2.763-2.408 4.141l-2.41-1.974c.764-1.472 1.52-2.921 2.318-4.467zm6.16.754 7.311 5.982c-1.037.811-1.962 1.527-2.918 2.268-2.315-2.02-4.563-3.978-6.879-6.002.87-.779 1.681-1.517 2.487-2.248zm14.714.646c2.092 1.599 4.126 3.161 6.189 4.742-.358.682-.67 1.28-1.012 1.924-2.4-1.496-4.704-2.922-7.047-4.377l1.87-2.289zm-37.616.676c.535.796.988 1.474 1.479 2.209-1.493 2.116-2.968 4.21-4.537 6.438-.494-1.352-.931-2.545-1.364-3.747 1.479-1.636 2.912-3.23 4.422-4.9zm8.239 1.33 2.173 1.514c-1.404 2.327-2.76 4.59-4.16 6.912-.785-.81-1.476-1.529-2.24-2.334 1.434-2.066 2.819-4.061 4.227-6.092zm25.802.18 1.471 3.508-5.37 6.556-2.132-1.748c2.019-2.782 3.977-5.486 6.031-8.316zm-30.941.244c.602.764 1.112 1.415 1.627 2.076l-3.59 4.383-1.674-.477 3.637-5.982zm9.748 1.375c1.04.97 2.016 1.875 3.033 2.818l-1.682 2.051c-1.278-.929-2.564-1.853-3.933-2.844.917-.717 1.735-1.361 2.582-2.025zm7.627.18c.749.864 1.447 1.678 2.182 2.527-1.499 2.219-2.965 4.384-4.493 6.652-.896-1.175-1.703-2.23-2.507-3.29l4.818-5.89zm17.553 1.695 3.007 2.459-5.58 6.822c-1.364-.537-2.676-1.048-4.125-1.62 2.284-2.616 4.485-5.128 6.698-7.661zm-28.018 2.303 2.12 1.726c-3.03 3.514-5.999 6.952-9.034 10.463-.488-.837-.905-1.565-1.264-2.191l8.178-9.998zm-16.488.05c2.49 2.36 4.897 4.637 7.324 6.938-.287.916-.564 1.792-.88 2.797-2.531-2.4-4.966-4.715-7.423-7.045.33-.899.635-1.737.979-2.69zm31.054.047c.74.47 1.434.924 2.168 1.397l-4.224 5.16c-.714-.453-1.384-.889-2.174-1.389l4.23-5.168zm-23.312 1.729c1.193.66 2.355 1.299 3.533 1.945l-1.908 2.33c-1.384-.949-2.733-1.879-4.182-2.88.926-.509 1.737-.949 2.557-1.395zm12.59.474c.849.961 1.61 1.826 2.424 2.754l-1.9 2.319c-.786-.832-1.55-1.64-2.32-2.46.615-.89 1.161-1.693 1.796-2.613zm13.28 1.768 5.73 4.69c-.423.734-.815 1.412-1.252 2.173a4081.515 4081.515 0 0 1-6.858-4.45 488.13 488.13 0 0 1 2.38-2.413zm-16.558 1.545c.79 1.026 1.49 1.933 2.225 2.896-1.62 1.564-3.186 3.079-4.77 4.604-.62-.62-1.145-1.148-1.765-1.756 1.455-1.936 2.853-3.796 4.31-5.744zm10.286 1.363c1.092.609 2.095 1.179 3.283 1.852-2.204 2.219-4.358 4.376-6.547 6.58-.876-.476-1.696-.93-2.516-1.371l5.78-7.06zm-4.118.07c.424.568.765 1.032 1.088 1.462l-5.361 6.552-1.633-1.344c2.001-2.262 3.92-4.424 5.906-6.67zm8.87 2.26 2.91 1.444-2.196 2.681c-1.11-.547-2.203-1.08-3.396-1.666.952-.87 1.794-1.642 2.682-2.459z"/></svg>