<svg xmlns="http://www.w3.org/2000/svg" width="80" height="80" viewBox="0 0 21.167 21.167"><path d="M8.435 20.986c-3.3-.696-6.226-2.992-7.558-6.104a8.739 8.739 0 0 1-.863-4.317A8.76 8.76 0 0 1 .83 6.34C2.245 3.013 5.49.52 9.08.047c1.775-.069 3.629-.171 5.286.593 3.55 1.313 6.26 4.671 6.753 8.42.077 1.819.166 3.719-.646 5.406-1.358 3.503-4.68 6.165-8.434 6.598-1.193.14-2.42.158-3.604-.078zm2.178-3.899L7.45 15.85l-.587 1.425 3.081 1.357zm4.572-1.49l-.302-1.372-2.847.665.336 1.351zm-10.427-1.89l1.589-7.499L4.9 5.897l-1.612 7.45zm5.41-.052l-.314-1.476-3.142 1.004.476 1.374zm4.724-2.659s-4.721-1.56-7.167-2.31l-.422 1.317 7.12 2.365zm3.07.524l-.057-3.35H16.46l.175 3.39 1.328-.04zM14.94 7.348l-.147-1.427-4.591.776.284 1.364zm-2.679-2.716l-.4-1.554-4.18 1.08.423 1.52z"/></svg>