<svg xmlns="http://www.w3.org/2000/svg" width="64pt" height="64pt" viewBox="0 0 64 64"><path d="M30.016 63.945c-6.168-.37-12.25-2.61-17.192-6.324-2.304-1.73-4.71-4.137-6.445-6.445-6.441-8.57-8.145-20.028-4.469-30.09 1.297-3.547 3.082-6.648 5.555-9.637.785-.949 3.035-3.199 3.984-3.98 2.969-2.457 6.153-4.293 9.633-5.559 8.77-3.18 18.574-2.36 26.668 2.223 2.57 1.457 4.574 2.992 6.797 5.203 2.57 2.559 4.308 4.918 5.918 8.035 4.234 8.192 4.687 17.984 1.23 26.57a32.143 32.143 0 0 1-15 16.496c-5.113 2.645-10.867 3.856-16.68 3.508zm-8.7-9.472c1.118-.207 2.098-1.13 2.399-2.254.453-1.707-.762-3.512-2.531-3.762-1.18-.168-2.356.387-3.02 1.414-.59.922-.59 2.277.004 3.215.668 1.05 1.937 1.613 3.148 1.387zm22.922-.118c1.239-.43 2.04-1.566 2.04-2.89 0-.871-.27-1.52-.9-2.156-1.648-1.664-4.487-.864-5.085 1.433-.262 1 .012 2.02.758 2.817.406.433 1.039.8 1.578.914.41.086 1.187.027 1.61-.118zm-11.687-6.289c1.242-.226 2.242-1.246 2.46-2.511.192-1.102-.292-2.27-1.218-2.953-1.375-1.012-3.379-.664-4.305.746-.37.562-.511 1.023-.52 1.683-.007 1 .415 1.871 1.192 2.457.719.543 1.52.739 2.39.578zm-11.227-6.554c.582-.125 1.024-.371 1.496-.836 1.227-1.211 1.227-3.067 0-4.293-.949-.946-2.242-1.164-3.465-.582-1.5.71-2.144 2.566-1.414 4.047a3.136 3.136 0 0 0 2.07 1.656c.481.117.786.117 1.313.008zm22.528.027c.562-.105 1.238-.465 1.628-.86a3.053 3.053 0 0 0 .583-3.46c-.368-.762-.915-1.262-1.711-1.555-1.782-.66-3.75.523-4.047 2.426-.313 2.015 1.55 3.828 3.547 3.45zM9.977 35.008c2-.313 3.156-2.496 2.28-4.317-.37-.773-.96-1.304-1.745-1.574-1.801-.62-3.719.547-4.012 2.442-.25 1.609.887 3.168 2.516 3.449.41.074.496.074.96 0zm45.507-.133a3.058 3.058 0 0 0 2.02-2.465c.285-1.969-1.477-3.734-3.422-3.433a3.088 3.088 0 0 0-2.34 1.722c-.246.492-.246.496-.246 1.297 0 .8.004.809.238 1.293.567 1.152 1.746 1.844 2.989 1.742.222-.02.566-.09.761-.156zm-33.84-6.523c1.372-.426 2.297-1.938 2.051-3.364-.28-1.644-1.836-2.789-3.445-2.539-2.48.387-3.48 3.39-1.715 5.156.828.829 1.957 1.098 3.11.747zm22.489.05c.762-.187 1.55-.851 1.922-1.609.902-1.848-.246-4.023-2.293-4.344-2-.308-3.79 1.5-3.45 3.488.313 1.82 2.016 2.918 3.82 2.465zm-11.551-6.484c.648-.082 1.535-.66 1.926-1.258.844-1.281.699-2.816-.367-3.883-1.758-1.757-4.746-.777-5.153 1.692-.215 1.281.496 2.613 1.696 3.191.464.223 1.078.356 1.445.313.086-.012.293-.035.453-.055zm-10.703-6.563c2.055-.808 2.578-3.464.992-5.023-1.91-1.883-5.148-.492-5.148 2.215 0 1.082.586 2.082 1.539 2.629.758.433 1.789.508 2.617.18zm22.41.032c.617-.219 1.27-.774 1.621-1.38.649-1.124.438-2.69-.488-3.616a3.053 3.053 0 0 0-5.133 1.386c-.363 1.368.348 2.864 1.656 3.485.723.343 1.602.39 2.344.125zm0 0"/></svg>