<svg xmlns="http://www.w3.org/2000/svg" width="64pt" height="64pt" viewBox="0 0 64 64"><path d="M30.004 63.941c-6.164-.37-12.25-2.605-17.2-6.32-1.734-1.297-4.09-3.531-5.386-5.101C3.133 47.336.73 41.508.078 34.723c-.105-1.075-.105-4.371 0-5.446.652-6.785 3.047-12.593 7.336-17.797 1.29-1.562 3.691-3.835 5.422-5.128C19.359 1.472 27.57-.73 35.715.215c6.105.707 11.777 3.117 16.61 7.062 1.03.84 3.394 3.18 4.21 4.172a32.41 32.41 0 0 1 3.828 5.719c4.848 9.227 4.848 20.437 0 29.664-1.558 2.969-3.293 5.309-5.758 7.773-1.738 1.743-3.03 2.81-4.937 4.079-5.758 3.832-12.66 5.68-19.664 5.257zm3.746-13.695c1.563-.133 3.352-.512 4.676-.988.668-.238 1.91-.832 2.015-.961.043-.05-.164-.465-.675-1.352-.41-.703-.754-1.289-.774-1.308-.015-.016-.12.023-.234.09-.863.5-2.04.918-3.375 1.191-6.293 1.293-12.828-1.559-16.13-7.043-1.214-2.012-2.062-4.613-2.062-6.316v-.536h-3.074v.637c0 .707.164 1.785.445 2.887 1.782 7.004 7.641 12.344 14.829 13.508 1.52.25 2.941.308 4.359.191zm9.078-3.324c1.035-.613 2.645-2.094 3.703-3.406 2.157-2.68 3.465-5.77 3.946-9.34.148-1.09.148-3.328 0-4.418-.45-3.309-1.606-6.156-3.551-8.75-1.11-1.477-3.004-3.285-4.145-3.961-.386-.227-.511-.274-.55-.211-.16.25-1.465 2.539-1.465 2.57 0 .024.195.149.43.282.546.304 1.562 1.175 2.261 1.933 3.16 3.445 4.582 7.973 3.93 12.524-.442 3.07-1.844 6.011-3.942 8.261-.668.719-1.656 1.559-2.187 1.867-.375.22-.492.317-.461.395.047.117 1.465 2.57 1.484 2.57.012 0 .258-.14.547-.316zM17.207 30.254c.078-1.79.953-4.356 2.133-6.254 3.512-5.664 10.297-8.406 16.719-6.762 1.015.262 1.964.61 2.453.903.199.12.394.222.43.222.117 0 1.57-2.578 1.5-2.66-.149-.18-1.458-.762-2.442-1.086-2.008-.66-3.543-.898-5.754-.89-1.695.007-2.7.113-4.101.445-4.43 1.05-8.223 3.629-10.872 7.39-1.761 2.508-3.027 5.954-3.136 8.532l-.04.883h3.079zm0 0"/></svg>