<svg xmlns="http://www.w3.org/2000/svg" width="64" height="64"><path d="M30.501 62.973c-7.153-.38-13.633-3.007-19.018-7.714-.659-.576-2.178-2.095-2.754-2.753-3.813-4.364-6.267-9.452-7.272-15.079-.322-1.806-.456-3.392-.457-5.425-.001-2.243.172-4.03.592-6.13a30.978 30.978 0 0 1 6.254-13.324 33.059 33.059 0 0 1 4.608-4.622A30.876 30.876 0 0 1 28.75 1.168c1.495-.158 3.95-.207 5.292-.104 4.904.374 9.21 1.67 13.3 4 2.434 1.388 4.531 2.998 6.594 5.064 4.757 4.763 7.755 10.75 8.733 17.439.226 1.544.302 2.67.302 4.435 0 1.766-.076 2.892-.302 4.436-.791 5.408-2.89 10.33-6.239 14.635-1.357 1.743-3.237 3.654-4.99 5.07-4.638 3.746-10.35 6.101-16.237 6.695-1.41.142-3.464.201-4.702.135zm3.76-5.024c1.746-.3 4.187-1.467 6.474-3.098 1.203-.858 1.872-1.453 2.189-1.948l.195-.304-.33-.02-.329-.018.17-.111c.717-.472 1.781-1.286 2.586-1.98.562-.484 1.393-1.304 1.512-1.491l.1-.158.783-.021c.812-.022 1.23-.075 1.874-.238 1.05-.266 1.68-.596 2.497-1.311.924-.806 1.636-1.866 2.138-3.184.366-.959.512-1.725.515-2.718.004-.944-.126-1.49-.507-2.131-.293-.493-.497-.63-.713-.479-.046.033-.22.372-.413.81-1.016 2.293-2.14 4.199-3.705 6.285-.41.547-1.194 1.511-1.491 1.835l-.193.209.153-.236c.745-1.152 1.744-3.127 2.202-4.352.63-1.687 1.263-4.35 1.263-5.311 0-.573-.16-.8-.644-.91-.554-.126-1.279-.185-2.002-.162-1.778.054-3.421.538-5.648 1.662-.974.492-1.64.87-3.032 1.72-1.327.81-1.837 1.1-2.398 1.367-1.334.634-2.404.916-3.503.924-.968.006-1.528-.18-2.36-.787a6.422 6.422 0 0 0-.457-.303c-.105-.06-.158-.1-.117-.086.277.09 1.89.122 2.858.058 2.314-.155 4.398-.824 6.11-1.96a8.262 8.262 0 0 0 1.563-1.3c1.24-1.272 2.098-2.64 2.75-4.391.319-.854.688-2.49.9-3.979.168-1.183.304-3.136.25-3.596l-.026-.23h-.192a.599.599 0 0 0-.32.08c-.07.043-.303.312-.518.598-.621.827-1.438 1.591-2.503 2.34-.283.2-.587.426-.676.504-.156.138-.162.14-.162.052-.003-.6-.178-2.091-.303-2.584a20.034 20.034 0 0 0-.492-1.485c-.257-.672-.436-.716-1.393-.343-.327.128-.736.284-.907.347-.401.148-.602.266-.746.441-.106.13-.121.136-.183.082a.513.513 0 0 0-.133-.081c-.035-.013-.42.097-.856.243-.436.147-1.178.378-1.65.514-1.012.292-1.157.357-1.315.592-.115.17-.145.279-.302 1.093a6.487 6.487 0 0 1-1.39 2.86c-.099.116-.225.3-.28.409l-.1.198.142.038c.433.113.53.126.803.107.19-.014.403-.062.611-.14.176-.065.324-.113.328-.108.005.006.024.097.043.201l.034.19.342.013c1.393.05 3.706-.447 5.311-1.142.438-.19 1.258-.607 2.051-1.043.197-.108.311-.153.298-.117-.04.103-.098.336-.25 1.014-.083.367-.206.838-.273 1.047-.465 1.453-1.383 2.87-2.65 4.093-.818.79-1.66 1.321-3.01 1.898-1.46.625-2.728.876-4.561.904l-.952.015-.085.097a.342.342 0 0 0-.086.18c0 .223.996 1.575 1.5 2.035.196.18.204.193.096.162a6.861 6.861 0 0 0-.542-.096c-1.72-.252-3.472-.781-5.62-1.698-.385-.164-.747-.3-.804-.3-.246 0-.395.28-.307.574.064.212.182.335.801.834 1.459 1.173 2.351 2.15 3.76 4.114.267.371.568.67.715.706.055.014.09.045.079.069a1.364 1.364 0 0 0-.044.11c-.017.048-.065.066-.176.066-.138 0-.18.027-.456.295-.505.49-.76.9-.974 1.57-.19.595-.215.789-.214 1.675 0 2.044.453 4.042 1.255 5.544 1.077 2.016 2.44 3.06 4.241 3.25.455.048 1.292.014 1.8-.074zm-1.57-.521c-1.321-.13-2.206-.59-3.027-1.576-1.334-1.603-2.078-3.947-2.09-6.584-.003-.624.01-.846.066-1.104.13-.603.388-1.153.723-1.538l.162-.185.348.566c.429.698.811 1.35 1.515 2.587 1.168 2.053 1.675 2.8 2.435 3.59.86.894 1.857 1.47 2.951 1.706.493.106 1.718.096 2.359-.018a10.054 10.054 0 0 0 2.264-.66c.187-.081.345-.141.353-.134.007.007-.171.142-.397.3-2.119 1.484-4.255 2.544-5.842 2.9-.607.136-1.342.196-1.82.15zm3.502-3.558a5.28 5.28 0 0 1-1.294-.44c-.557-.304-1.032-.71-1.578-1.35-.641-.75-1.036-1.364-2.382-3.707l-1.103-1.915c-.173-.299-.307-.552-.297-.562a2 2 0 0 1 .3-.083c.41-.094 1.828-.092 2.433.003 1.608.253 3.592.767 7.766 2.011 2.253.672 3.575.992 5.007 1.212.293.045.573.09.623.1.083.017.068.04-.19.277a25.823 25.823 0 0 1-3.27 2.58c-1.6 1.068-2.87 1.597-4.37 1.82-.507.076-1.329.103-1.645.054zm10.527-5.155c-.077-.034-.092-.051-.046-.053a.795.795 0 0 0 .221-.082c.14-.072.15-.072.116-.009a.592.592 0 0 1-.107.132c-.06.055-.085.056-.184.012zm1.863-1.013c1.91-2.218 3.812-5.214 4.876-7.678l.186-.43.067.125c.229.425.362 1.199.322 1.864a7.412 7.412 0 0 1-.461 2.202c-.448 1.193-.9 1.916-1.69 2.708-.897.897-1.555 1.259-2.784 1.531a8.25 8.25 0 0 1-.68.124l-.242.026.406-.472zm-2.91.358c-.296-.035-1.624-.29-2.348-.451-.957-.214-2.095-.525-3.553-.974-2.973-.913-4.475-1.32-6.016-1.631-1.365-.275-1.634-.31-2.515-.332-.87-.022-1.36.014-1.939.142-.394.087-.391.089-.704-.343a37.955 37.955 0 0 0-1.423-1.866c-.469-.561-1.398-1.513-1.9-1.946-.214-.186-.38-.338-.37-.338.012 0 .12.04.24.091 1.582.664 3.34 1.154 5.176 1.445.402.063.535.124 1.01.464 1.144.818 2.232 1.043 3.777.779 1.34-.23 2.636-.786 4.569-1.96 2.132-1.297 2.536-1.527 3.635-2.078 1.786-.894 3.121-1.333 4.564-1.502.808-.095 1.984-.049 2.576.1l.17.043v.278c0 .79-.527 3.07-1.087 4.7-.294.854-.534 1.411-1.027 2.38-.91 1.787-1.551 2.797-1.89 2.972-.1.052-.604.066-.945.027zm-14.054-7.205c-.223-.018-.442-.052-.486-.076-.13-.07-1.07-1.222-1.07-1.312 0-.012.16-.022.356-.022.662 0 1.947-.148 2.664-.306 1.346-.299 3.1-1.075 4.22-1.868.9-.637 1.902-1.71 2.652-2.836.688-1.034 1.1-2.035 1.413-3.442.087-.387.175-.767.195-.845.034-.124.094-.18.495-.454.958-.654 2.088-1.643 2.583-2.26.26-.325.26-.327.197.514-.167 2.23-.63 4.58-1.17 5.939-.488 1.228-.983 2.083-1.786 3.084-.725.904-1.281 1.422-2.148 2-1.472.98-3.211 1.592-5.197 1.828-.58.068-2.33.102-2.918.056zm2.766-9.447c.083-.067.349-.32.59-.564.97-.98 1.688-2.122 2.439-3.882.23-.54.374-.718.664-.823.104-.038.496-.188.87-.332.375-.145.695-.25.712-.232.053.054.297.725.453 1.246.162.54.286 1.302.338 2.079.023.333.02.488-.01.519-.101.106-1.6.878-2.143 1.104-1.066.443-2.741.872-3.837.983l-.229.023.153-.121zm-2.227-.055c0-.01.065-.11.145-.218.582-.797 1-1.853 1.206-3.045.035-.204.093-.407.128-.45.045-.056.253-.132.71-.26a47.54 47.54 0 0 0 1.945-.6c.087-.033-.603 1.32-.947 1.858-.891 1.393-1.758 2.196-2.815 2.607-.346.135-.372.142-.372.108zM22.99 55.558c.358-.158.601-.475.74-.965.08-.282.11-1.291.056-1.83a13.835 13.835 0 0 0-.607-2.848 16.124 16.124 0 0 0-1.822-3.65c-1.113-1.635-2.372-2.802-5.932-5.5-1.415-1.073-1.749-1.43-1.747-1.872.002-.503.426-.824 1.633-1.236a33.085 33.085 0 0 1 2.665-.744c.335-.079.622-.154.637-.168.015-.013-.143-.124-.352-.245-.518-.3-2.095-1.352-2.607-1.738-1.067-.804-2.155-1.81-2.593-2.398-.63-.845-1.144-2.018-1.347-3.071a21.653 21.653 0 0 1-.077-.408c0-.007.381.376.847.849 3.191 3.24 4.275 4.303 5.701 5.586 1.143 1.027 1.269 1.119 1.537 1.117.225-.002 1.267-.268 1.445-.37.017-.01 0-.053-.038-.096-.067-.077-.067-.078 0-.054a.804.804 0 0 0 .213.026c.137 0 .142.004.126.113-.034.232.007.28.457.544 1.808 1.058 3.32 1.665 5.036 2.024 1.01.211 1.483.255 1.78.167l.152-.046-.021-.192c-.013-.12-.115-.403-.269-.747-.407-.911-.661-1.816-.823-2.925-.098-.668-.147-.804-.29-.804h-.105l.081-.086c.153-.163.198-.348.239-.988a9.59 9.59 0 0 1 .074-.791 2.42 2.42 0 0 0 .037-.384c.001-.173-.014-.227-.084-.29-.047-.043-.377-.193-.733-.334-2.447-.97-4.914-2.435-7.958-4.724-.332-.25-.443-.283-.588-.176l-.107.08-.025-.13c-.047-.252-.328-.555-1.168-1.259a54.096 54.096 0 0 1-2.503-2.205c-.954-.888-.94-.885-1.32-.245-.553.93-1.17 2.361-1.48 3.435-.236.814-.318 1.241-.372 1.934l-.046.594-.446-.38c-.734-.623-1.087-.866-1.507-1.04-.69-.283-1.27.119-1.494 1.037-.425 1.733.052 5.43 1.134 8.808 1.77 5.525 3.889 9.574 7.12 13.61.807 1.008 1.447 1.731 2.173 2.457 1.447 1.445 2.607 2.297 3.504 2.576.354.11.803.102 1.074-.018zm-.925-.576c-.777-.248-1.839-1.045-3.178-2.382-2.123-2.12-4.276-5.034-5.883-7.963-1.23-2.241-2.38-4.98-3.282-7.819-.946-2.98-1.426-6.027-1.242-7.902.044-.447.12-.8.214-.986.088-.174.244-.325.338-.325.25 0 .704.27 1.32.785.72.602.66.52.77 1.05.276 1.34.864 2.594 1.671 3.562.722.867 2.158 2.067 3.698 3.091.293.195.547.367.563.381.017.015-.12.067-.304.115-1.73.452-2.738.852-3.192 1.268-.54.494-.642 1.102-.293 1.756.16.3.72.829 1.494 1.41 4.584 3.444 5.805 4.709 7.117 7.369.68 1.38 1.002 2.393 1.24 3.902.084.529.117 1.61.06 1.943a2.093 2.093 0 0 1-.14.463c-.16.334-.5.433-.97.282zm5.714-16.82a15.123 15.123 0 0 1-3.568-1.063c-.644-.285-1.651-.814-1.627-.854a.63.63 0 0 1 .198-.072c.861-.215 2.545-.75 3.565-1.13.417-.156.765-.275.775-.266.009.01.057.256.106.547.152.896.414 1.821.709 2.5.08.187.147.346.147.352 0 .016-.179.008-.305-.014zm-8.305-2.513a90.706 90.706 0 0 1-1.783-1.606c-.688-.64-4.656-4.584-5.223-5.193l-.418-.45.025-.33c.085-1.113.406-2.3.978-3.62.194-.448.574-1.213.717-1.445l.078-.127.465.434a55.49 55.49 0 0 0 2.33 2.051c.955.798 1.086.933 1.086 1.121 0 .075-.076.362-.169.638-.334.998-.457 1.797-.459 2.977 0 1.015.11 1.599.487 2.57.308.791 1.14 1.924 2.09 2.842l.282.273-.112.022c-.163.033-.153.037-.374-.157zm1.616-.403c-.385-.202-1.213-1.036-1.784-1.8-.463-.617-.874-1.517-1.023-2.238-.193-.934-.13-2.299.15-3.28.111-.391.287-.894.313-.894.01 0 .354.245.766.545 1.173.853 1.356.98 2.005 1.405 1.843 1.204 3.767 2.221 5.33 2.817.167.063.315.126.328.14.013.013.001.177-.026.366a5.575 5.575 0 0 0-.052.613c-.004.435-.041.623-.134.684-.126.082-1.408.569-2.153.817a43.29 43.29 0 0 1-1.542.469c-1.736.49-1.877.514-2.178.356zm32.557 2.876c.259-.352.604-1.334.973-2.77.492-1.909.676-3.53.636-5.591-.023-1.157-.073-1.707-.235-2.564-.378-2.006-1.08-3.61-1.977-4.512-.823-.83-1.816-1.209-3.16-1.21-.496 0-1.145.07-1.49.158-.194.05-.323.17-.323.3 0 .056.138.366.307.688 1.41 2.697 2.276 5.232 2.679 7.84.116.756.23 1.663.293 2.36.056.604.067 2.71.019 3.637-.046.89-.059.87.789 1.254.227.102.553.276.723.386.246.16.344.201.472.203.15.002.171-.011.294-.179zm-.703-.699a6.38 6.38 0 0 0-.622-.31l-.374-.161.032-.533c.047-.796.035-3.046-.02-3.636-.36-3.868-1.124-6.616-2.73-9.828l-.394-.786.103-.023c.245-.056 1.271-.071 1.615-.025 1.787.242 2.834 1.41 3.59 4.004.338 1.162.471 2.128.502 3.631.03 1.516-.065 2.76-.316 4.126-.233 1.27-.954 3.705-1.093 3.694a1.703 1.703 0 0 1-.293-.153zm-24.546-7.266c.07-.083.218-.302.328-.488.403-.68 1.469-1.826 2.156-2.318.147-.105.4-.286.56-.403.163-.116.497-.329.743-.472.491-.285.724-.488.759-.661.026-.128.057-.14.13-.052.082.097.346.044.837-.17a24.4 24.4 0 0 1 3.105-1.093c.572-.163.74-.246.87-.433.175-.254.368-.944.374-1.344.002-.142.015-.257.029-.257.013 0 .042-.039.064-.086.039-.084.04-.084.067.028.067.288.168.47.51.92.487.644.504.652 1.143.588.264-.026.865-.063 1.336-.081 1.041-.04 1.275-.092 2.337-.516 1.06-.422 1.426-.634 1.575-.91.04-.075.041-.075.124 0 .062.056.134.074.28.071.25-.005 1.742-.446 1.941-.574.147-.094.147-.095.132-.312-.02-.264-.184-.552-.787-1.375-.848-1.156-1.635-2.071-1.821-2.118a.332.332 0 0 0-.187.02c-.1.045-.107.036-.187-.224-.029-.095-.029-.095.052-.023.045.04.081.06.081.044s-.05-.255-.112-.53a91.382 91.382 0 0 1-.27-1.261c-.662-3.205-1.79-6.164-2.562-6.724-.329-.24-.576-.236-.822.01-.404.404-.644 1.202-1.143 3.795-.174.904-.22 1.21-.19 1.267.031.058.023.096-.038.173a.384.384 0 0 0-.078.197c0 .079-.02.059-.1-.101-.15-.303-.423-.478-.95-.61-1.585-.399-3.419-.392-5.403.02-1.326.275-2.921.832-4.158 1.453-.564.283-.566.321-.045 1.072a26.994 26.994 0 0 1 2.092 3.54c.676 1.379.655 1.341.826 1.471.154.118.156.122.083.187a.235.235 0 0 0-.074.148c0 .073-.02.08-.238.08-.203-.001-.3.026-.656.185-1.656.733-2.582 1.042-3.564 1.187-.61.09-1.597.057-2.188-.073a7.091 7.091 0 0 1-1.764-.635c-.285-.146-.557-.265-.605-.265-.127 0-.274.163-.274.303 0 .183.64 1.504 1.188 2.455.786 1.361 1.284 2.015 1.664 2.185.115.051.142.08.115.122a.366.366 0 0 0-.035.16c-.002.305 2.254 2.563 2.576 2.577.024.001.102-.066.174-.149zm-.679-1c-.452-.422-1.026-1.013-1.003-1.032.01-.007.17.002.36.02.188.02.71.047 1.158.061l.817.027-.17.193c-.264.302-.449.547-.623.827l-.161.258-.378-.354zm-.149-2.052c-.686-.049-1.504-.14-1.67-.188-.198-.056-.41-.282-.761-.814-.454-.686-1.471-2.471-1.471-2.58 0-.012.168.044.374.124.418.162.92.304 1.434.406.489.096 1.91.096 2.399 0 1.01-.2 1.786-.46 3.134-1.053.343-.15.643-.265.669-.256.129.05.708 2.285.708 2.734 0 .17-.016.184-.688.582-.221.13-.59.376-.819.544-.61.45-.643.462-1.281.506-.63.043-1.378.041-2.028-.005zm5.866-2.022a9.695 9.695 0 0 1-.077-.39 14.933 14.933 0 0 0-.482-1.858 21.92 21.92 0 0 1-.186-.578c0-.029.795-.323 1.22-.45.541-.164.93-.227 1.425-.23.743-.004 1.262.182 1.976.71.312.23.366.333.321.618-.05.325-.217.812-.29.851a6.65 6.65 0 0 1-.56.174c-1.034.29-2.31.742-3.113 1.102-.16.071-.224.085-.234.05zm5.954-2.151c-.167-.225-.323-.478-.346-.562-.064-.232-.024-.51.329-2.265.375-1.87.792-4.066.857-4.52.025-.174.052-.315.06-.315.052 0 .95.45 1.258.63.84.493 1.729 1.166 2.337 1.768.38.377.397.42.546 1.295.145.853.328 2.53.328 3.006 0 .16-.015.197-.105.26-.175.125-.455.254-1.151.532-.988.394-1.14.425-2.246.467-.513.02-1.045.053-1.18.074a3.86 3.86 0 0 1-.315.038c-.042 0-.184-.155-.372-.408zm6.455-1.149c-.01-.033-.053-.403-.095-.821a35.077 35.077 0 0 0-.174-1.504l-.02-.133.078.095c.044.052.313.403.598.78.563.741.901 1.237.867 1.27a8.06 8.06 0 0 1-.628.198c-.522.15-.61.167-.626.115zm-8.091-.501a4.922 4.922 0 0 0-1.359-.628 4.945 4.945 0 0 0-1.785-.077c-.51.075-.97.192-1.651.422a5.013 5.013 0 0 1-.584.172c-.053 0-.115-.098-.247-.39-.573-1.27-1.52-2.946-2.36-4.174-.247-.362-.31-.478-.27-.503.288-.183 1.65-.719 2.488-.98 2.05-.64 4.148-.832 5.873-.538.679.116 1.039.223 1.16.345.098.097.106.128.106.411 0 .169-.052.611-.116.984-.258 1.51-.785 4.242-.97 5.026-.026.11-.034.107-.285-.07zm5.749-5.371a11.42 11.42 0 0 0-2.423-1.478c-.31-.144-.57-.28-.577-.3-.02-.061.43-2.318.602-3.013.147-.597.405-1.256.492-1.256.078 0 .347.367.564.769.506.936 1.084 2.614 1.565 4.542.166.664.247 1.047.227 1.064-.007.006-.21-.142-.45-.328zM24.977 27.104a68.5 68.5 0 0 0-.379-.568c-.597-.89-1.427-2.426-1.941-3.595-.234-.531-.316-.662-.498-.797a3.689 3.689 0 0 1-.27-.223c-.113-.106-.128-.11-.239-.065-.065.027-.227.168-.36.314-.378.414-1.555 2.042-1.747 2.416-.086.167-.079.288.023.384.114.106 1.617.839 2.475 1.205.792.338 1.455.572 2.274.802.65.182.703.192.662.127zm-1.823-1.134c-.924-.346-2.886-1.253-2.903-1.342-.013-.067 1.254-1.826 1.43-1.984.066-.06.074-.06.146.021.041.048.167.292.278.543.354.796.907 1.878 1.475 2.884.024.043-.014.032-.426-.122zm-3.959-1.259c.173-.084.28-.204.59-.666.235-.35.533-.759 1.23-1.686.444-.59.496-.676.512-.84l.017-.184-.339-.396c-.89-1.038-1.226-1.583-1.609-2.603-.186-.495-.296-.693-.473-.848-.287-.252-.786-.303-1.246-.128-.546.208-1.544 1.056-2.289 1.946-.708.845-1.628 2.118-1.628 2.253 0 .14.053.19.57.546 2.18 1.499 3.687 2.452 4.122 2.608.256.093.35.092.543-.002zm-.56-.676c-.393-.205-1.47-.881-2.41-1.513-1.316-.886-1.503-1.022-1.482-1.082.03-.085.643-.914 1.068-1.444.51-.637.969-1.12 1.438-1.511.474-.396.825-.589 1.122-.616.327-.03.408.056.653.686.404 1.039.779 1.67 1.49 2.511l.377.447-.3.39a57.445 57.445 0 0 0-1.408 1.94 2.65 2.65 0 0 1-.233.315c-.02.012-.16-.044-.314-.123zm4.437-3.883c.841-.825 1.61-1.485 2.55-2.187a25.054 25.054 0 0 1 1.853-1.266c.395-.234.752-.51.836-.646.192-.31.085-.565-.608-1.44-.444-.56-1.93-2.075-2.417-2.463-1.072-.854-2.262-1.389-2.927-1.316-.56.062-.895.31-1.16.861-.77 1.598-.645 4.357.36 7.953.33 1.181.367 1.257.61 1.257.127 0 .193-.055.903-.753zm-.788-.185c-.752-2.567-1.065-4.64-.945-6.253.083-1.105.395-2.004.76-2.189.323-.164.759-.092 1.442.24.852.413 1.454.875 2.48 1.905a16.586 16.586 0 0 1 1.55 1.766l.224.3-.104.09a4.7 4.7 0 0 1-.436.29c-1.526.92-3.289 2.29-4.583 3.562-.302.297-.37.348-.388.29z"/></svg>