<svg width="80" height="80" xmlns="http://www.w3.org/2000/svg"><path style="fill:#000;fill-opacity:1;fill-rule:evenodd;stroke:none;stroke-width:2.40518" d="M39.754 0c-10.237.063-20.45 4.031-28.211 11.887-15.525 15.716-15.37 41.05.346 56.57 15.715 15.526 41.045 15.37 56.568-.346 15.525-15.715 15.37-41.049-.346-56.572C60.254 3.78 49.991-.063 39.754 0zm25.853 36.176a3.661 3.661 0 0 1 3.682 3.633 3.656 3.656 0 0 1-3.633 3.683 3.653 3.653 0 0 1-3.681-3.633l-5.504.034a3.653 3.653 0 0 1-3.631 3.681 3.656 3.656 0 0 1-3.684-3.635h-.004a3.656 3.656 0 0 1 3.635-3.681 3.652 3.652 0 0 1 3.682 3.633l5.504-.034a3.656 3.656 0 0 1 3.634-3.681zm-25.636.164a3.651 3.651 0 0 1 3.681 3.63h.002a3.656 3.656 0 1 1-7.314.051h-.004a3.65 3.65 0 0 1 3.635-3.681zm-12.819.074v.006a3.654 3.654 0 0 1 3.684 3.633h.002a3.663 3.663 0 0 1-3.633 3.683 3.656 3.656 0 0 1-3.684-3.634l-5.501.035a3.66 3.66 0 0 1-3.633 3.681 3.657 3.657 0 0 1-3.678-3.638 3.65 3.65 0 0 1 3.63-3.68 3.658 3.658 0 0 1 3.686 3.635l5.496-.04a3.65 3.65 0 0 1 3.631-3.68z"/></svg>