<svg xmlns="http://www.w3.org/2000/svg" width="80" height="80"><defs><clipPath id="a"><path d="M434.4 541.656h53.977v53.975H434.4v-53.975z"/></clipPath></defs><g clip-path="url(#a)" transform="matrix(1.48214 0 0 -1.4822 -643.842 882.84)"><path d="M454.382 587.23v.04l-.045.048V587.403l-.043.045v.174l.043.043v.044h.045l.043.04.088.048h.173l.088.043h.173l.13.043h.219l.13.045.13.04h.132l.13.045.13.04.13.048.132.04.13.046.13.087.132.043.13.088.13.04.13.09.177.088.085.088.13.086.046.087.085.043v.088l.043.04v.046l-.043.043h-.042l-.043.044h-.261l-.088-.044h-.088l-.087-.043-.086-.045-.088-.041-.088-.045-.042-.043-.088-.043-.13-.044-.086-.088-.088-.041-.088-.043-.087-.045-.13-.043-.087-.044-.13-.043-.088-.047-.131-.041h-.085l-.133-.045h-.216l-.131-.043h-.13l-.131.043h-.218l-.131.045h-.087l-.086-.045h-.131l-.044-.043-.043-.043-.043-.042-.043-.045-.045-.045v-.129l-.043-.085v-.349l.043-.088v-.524l-.043-.13V586.405l-.045-.088v-.261l-.042-.09v-.214l-.043-.133v-.304l.043-.042v-.043h.087l.043.043.045.042.043.043.043.045.043.084.044.047.04.085.046.088.045.133.043.085.087.13v.089l.043.126.043.09v.088l.045.128v.088l.043.045V587.142l-.043.045v.043zm22.983-13.102v-.043l-.043-.045-.045-.043-.043-.046-.042-.041-.045-.045-.043-.043h-.043l-.047-.045-.085-.041-.043-.087-.043-.043-.045-.047-.043-.086-.088-.085-.042-.087-.043-.088-.043-.088-.045-.087-.043-.043-.043-.043h-.089l-.04.043h-.046l-.043.043v.043l-.043.087v.045l-.045.088v.347l.045.043.043.085.043.046.045.043.085.045.045.04.086.046.088.044.085.045.045.043.086.04h.088l.087.048.088.04h.261l.043-.04.043-.047-.043-.041zm1.654-.654v.086l-.041.045V574.084l.041.088v.389l.043.088v.13l.045.133v.086l.043.13.042.09.045.084v.086l.045.044v.219l-.045.043v.087l-.045.043-.042.045v.045l-.043.085-.045.043-.043.043-.041.045h-.09l-.044.043-.086.045-.045.04-.086.047-.087.04-.088.044-.086.045-.086.043-.087.088-.088.085-.043.047-.087.086-.086.086-.047.087-.043.045-.087.088-.043.084v.044l-.043.09v.04l-.043.046.043.043v.043h.043v.042l.043-.042h.044l.086-.043.047-.043.086-.045.042-.041.088-.09.088-.044.087-.084.086-.088.086-.045.131-.087.087-.086.088-.045.13-.088.09-.041.084-.09.13-.042.09-.043h.086l.043-.045.086-.043.044-.041.086-.046.047-.041.084-.088.044-.045.043-.043.045-.087v-.086l.043-.045V575.522l-.043-.09-.045-.087-.043-.086-.087-.088-.041-.043-.047-.042v-.045h-.043l-.043-.043-.044-.043-.043-.043v-.045l-.043-.043V573.647l-.043-.087v-.043l-.045-.043-.041-.041h-.045v-.047h-.045l-.042.047h-.088l-.043.04zm2.09-5.745H481.193l.045.04.044.048h.041v.04l.047.045.041.045.045.043v.043l.043.088.043.04.044.09.043.088v.086l.045.087v.088l.043.043v.13l.045.045v.131l.041.043v.086l.044.044.043.043v.043h.043v.043l.047.045.041.043v.044l.045.043v.306l-.045.086v.045l-.04.043-.048.04v.046l-.043.042h-.043l-.044.045-.04-.045h-.046v-.042l-.043-.045v-.129l-.045-.043v-.088l-.043-.085v-.088l-.044-.088-.043-.087-.043-.131-.045-.086-.04-.13-.089-.088-.044-.131-.13-.13-.089-.131-.085-.087-.043-.086-.088-.088-.045-.044-.043-.045-.087-.041-.04-.043h-.179l-.04.043-.047.04-.04.046v.044l-.046.088v.043l-.04.086v.085l-.046.09v.175l.045.086v.174l.041.087V569.514l-.04.04v.048l-.046.04-.045.09-.042.043-.045.043-.086.045-.043.043-.088.086-.087.087-.088.088-.088.086-.085.085-.13.047-.089.086-.085.087-.088.086-.088.045-.084.088-.087.043-.09.042h-.043l-.087.043h-.043l-.043-.043-.045-.042v-.043h-.04v-.176h.04V570.516h.045v-.045l.043-.043v-.043h.043l.042-.047.045-.041v-.044h.043l.043-.043.047-.043.041-.045.046-.043.084-.045.045-.042.088-.045.043-.041.085-.088.088-.043.043-.088.088-.044.085-.088.047-.084.084-.132.045-.088.043-.13.044-.172.043-.131.045-.175v-.482l-.045-.128-.043-.086v-.13l-.044-.088-.043-.088-.045-.13-.043-.088-.04-.086-.048-.087-.04-.09-.045-.127-.045-.087-.043-.043-.043-.088-.04-.088-.048-.087v-.043l-.04-.088-.045-.043v-.09l-.043-.04v-.045l-.045-.086-.043-.043-.045-.045-.084-.042-.046-.043-.04-.045-.09-.086-.089-.043-.085-.045-.088-.042-.086-.045-.087-.045-.13-.088-.13-.041-.132-.043-.13-.044-.129-.086-.133-.045h-.086l-.132-.045-.086-.041-.045-.044-.087-.043-.04-.043-.046-.045-.043-.043v-.043l.043-.045v-.044l.045-.043.041-.043h.046l.086-.043.086-.043h.088l.087-.045.086-.043h.131l.087.043h.086l.133.045h.085l.088.043.131.086.087.043.086.089.131.086.087.088.086.087.088.086.087.13.088.088.088.129.087.132.088.13.041.132.043.087.043.043.045.086.044.045.041.04.047.047h.041l.043.043h.045l.043.043h.044l.043-.043h.045l.043-.043.045-.046v-.041l.041-.045v-.304l-.04-.086V565.248l.04-.087v-.174l.045-.09.042-.042v-.086l.045-.043.045-.045.041-.043.045-.046h.173l.043.046v.043l.043.045v.129l-.043.087v.088l-.043.088v.086l-.045.13-.04.13v.129l-.047.178V566.423l.046.174v.173l.086.176v.127l.043.087.043.047.047.043.041.087.046.04.041.046.043.043.045.045.043.043.045.044h.043l.044.043.041.045h.047l.041.043zm-4.57 2.96h-.219l-.086-.043h-.218l-.088-.045h-.088l-.042-.043-.088-.042-.043-.045-.086-.086-.045-.047v-.085l-.042-.086v-.088l.042-.13v-.131l.088-.131.043-.173v-.131l.043-.087.043-.131v-.13l.045-.131v-.304l.042-.088v-.479l.045-.086v-.09l.043-.085v-.131l.043-.087v-.088l.045-.086.043-.043.043-.087.044-.043.041-.088.047-.045.043-.041.043-.045h.045l.042.045h.043l.045.04v.046l.043.04.043.09v.088l.043.086v.263l.045.13V568.34l-.045.129v.175l-.043.088v.087l-.043.086v.043l-.043.088-.045.087-.043.086v.088l-.042.087-.045.088-.043.086v.045l-.043.085v.045l-.047.043v.174l.047.042.043.043.043.045h.087l.043.043h.045v.045h.043l.043.043h.043v.043l.045.044v.04l.042.048v.043l.043.043v.045l-.043.042v.043l-.042.045h-.045l-.043.043h-.043zm-3.744 1.435l.041-.041.047-.047.041-.043.044-.042v-.045l.041-.043V571.691h-.257l-.088.041h-.044l-.088.043-.088.045-.085.043-.086.043-.088.045-.088.042-.085.043-.09.047-.086.041-.087.088-.086.043-.088.087-.086.045-.087.088-.088.085-.088.086-.087.133-.086.085-.086.131-.088.09-.085.128-.088.086-.088.088-.087.089-.088.086-.088.043-.085.086-.086.045-.088.042-.088.043-.085.045-.088.043-.09.043h-.087l-.086.045-.086.043h-.087l-.086.044h-.045l-.088.043H469.009l-.047.043-.088.045H468.703l-.088.045h-.086l-.087.041h-.086l-.045.044h-.173l-.045.043h-.133l-.041.043-.044-.043h-.043l-.045-.043h-.129l-.089-.044h-.302l-.088.044-.043.043-.088.043-.087.043-.088.09-.088.085-.041.131-.087.131-.086.087-.09.086-.087.045-.086.086-.086.087-.088.086-.087.045-.086.086-.088.044-.089.088-.086.043-.088.045-.084.043-.044.043-.043.042-.088.045-.045.043h-.041l-.046.043-.041.047-.045.084-.045.044v.043l-.041.043v.131l.041.044.045.043.045.043h.087l.041-.043h.045l.088-.043h.043l.087-.044.088-.088.086-.043.087-.086.086-.087.131-.088.13-.086.088-.087.129-.086.132-.088.174-.088.13-.087.131-.043.13-.086.176-.088.128-.087.174-.043.132-.045.174-.043.132-.043h.304l.131-.043H469.094l.086-.044h.174l.087-.043h.088l.043-.045.086-.043.087-.045.09-.043.088-.087.085-.086.088-.088.088-.043h.086l.085-.043.088-.044h.045l.043-.041h.128l.047.041h.041l.047.044v.043l.041.043v.043l.044.09v.391l-.044.129V575.998l.044.088v.087l.045.086v.09l.043.085v.129l.043.045v.043h.043v.13l.045.045.041.043v.045h.044l.043.043.045.043h.131v-.043h.041v-.043l.046-.045v-.043l.041-.045v-.391l-.041-.088v-.608l-.046-.088v-.391l-.041-.086v-.218l-.045-.131v-.175l-.043-.041v-.133l-.043-.086V574.26l-.045-.09v-.349l.045-.043v-.042l.043-.088v-.043l.043-.043.045-.086.087-.045.041-.044.09-.088.043-.043.086-.043.087-.043.045-.085.088-.047.043-.088.085-.043.043-.085.086-.043.047-.09.041-.043.089-.043.041-.087.045-.041.043-.088.088-.045.044-.043.041-.044.047-.086.043-.045zm-4.224 4.616h.043l.088-.043h.087l.086.043h.047l.041.04h.044l.043.048.043.04v.09l.047.043v.131l-.047.04v.088l-.043.045-.087.088-.041.086-.088.044-.132.088-.088.04-.084.09-.088.043-.085.043-.047.043-.086.086-.086.047h-.045l-.087.043-.088.043-.043.042h-.087l-.041.045-.047.043h-.086l-.045.043h-.085l-.043.045h-.219l-.042.04H466.874l-.043.046h-.045l-.041.044h-.045l-.043.043-.085.045-.045.086-.045.043-.088.085-.086.09-.087.129-.088.087-.087.088-.084.088-.088.086-.09.042-.085.088-.088.045-.086.045h-.087l-.043.042h-.176v-.042h-.041v-.22l.041-.086.047-.088.041-.088.043-.087.045-.041.043-.088.087-.09.045-.041.086-.087.043-.045.043-.086.087-.043.086-.044.047-.045.084-.041.087-.045.045-.043.088-.043.087-.045.041-.042h.088l.045-.043h.086l.087-.043h.045l.041-.047h.088l.043-.041h.044l.043-.045.045-.043.086-.043h.045l.042-.042.043-.045.045-.045.045-.041.041-.047v-.041l.045-.044.043-.043.043-.088.042-.043.045-.045.045-.042.041-.045.047-.041.041-.043h.044l.043-.045.043-.043h.043l.045-.043h.045v-.045h.087v-.044h.041v.044h.088v-.044h.131v-.041h.044l.041-.047h.047l.041-.041zm-2.656-20.026v.218l-.04.133-.048.13v.086l-.04.13-.045.087-.04.13-.048.132-.04.086v.133l-.046.087v.127l-.045.09v.305l.045.13.045.086.041.088.047.088.041.13.085.13.047.086.084.134.047.129.041.13.087.132.045.086.088.131.043.128.042.088.045.088.041.087.047.088.041.088v.041l.045.043V560.94l-.045.041h-.04v.044l-.048.043-.04.043h-.046l-.085.043h-.22l-.04-.043-.048-.043-.043-.043-.088-.044-.04-.088-.045-.04-.04-.132-.048-.084-.04-.133-.09-.13-.042-.131-.087-.173-.045-.131-.04-.173-.048-.176-.043-.175-.043-.218-.044-.215-.04-.177v-.914l.04-.214.044-.265.043-.174.043-.216.047-.13.041-.176.045-.13.042-.132.045-.087.041-.084.045-.045.045-.042.041-.045h.132v.045l.041.087.047.084v.088l.041.132v.129zm2.396 11.754h.565l.09-.043h.128l.13-.045h.089l.13-.043.13-.044.13-.043h.132l.13-.045.13-.04h.089l.128-.048H470.967l.043.047h.043l.045.041h.044l.04.045v.13h-.04v.045l-.044.043-.045.041h-.086l-.045.047h-.086l-.085.041h-.177l-.086.046h-.392l-.088.043h-.259l-.09.043h-.261l-.041.045h-.087l-.088.043h-.088l-.043.043h-.085l-.09.043-.087.044h-.174l-.088.041h-.565l-.043-.04h-.043l-.044-.045-.043-.043v-.131l.043-.043v-.129l.044-.048v-.04l.043-.044v-.045H468.138l.042.045h.09l.04.043zm-2.002 2.35l.088.043.085.045.088.043.043.087.088.045.085.041.088.047.088.041.086.044.087.043.088.043.088.047.085.041.088.045.131.043h.085l.088.042.131.043h.087l.131.045h.173l.045-.045h.129l.045-.043h.042l.045-.042h.043l.043-.043h.043v-.045h.045v-.041h.044v-.218h-.044v-.088h-.045l-.043-.045h-.043l-.043-.045h-.132l-.129-.042-.088-.043h-.13l-.088-.045-.13-.043-.088-.041-.131-.045-.085-.043-.131-.087-.088-.045-.085-.043-.088-.043-.131-.086-.087-.045-.088-.042-.086-.09-.087-.043-.043-.043-.088-.087-.086-.041-.045-.047-.085-.043-.088-.086-.043-.044-.088-.043-.087-.041-.043-.088-.088-.047-.088-.043-.085-.043-.045-.087-.086-.043-.086-.088-.087-.041-.088-.046-.043-.088-.087-.084-.088-.045-.045-.087h-.043v-.041h-.043l-.044-.047h-.174l-.043.047h-.043v.041h-.045v.046h-.042v.041l-.043.045v.172l.043.046v.041h.042v.045l.088.086.086.087.088.086.087.088.086.047.088.084.087.087.045.086.086.088.088.087.085.043.088.088.043.087.088.045.085.086.088.086.088.045.087.087.043.043.088.086zm-9.621 10.404l.043-.043.045-.045v-.087l.043-.043h.044l.043-.043v-.045l.045-.043h.04v-.045l.048-.04.04-.045v-.04h.045l.043-.046v-.088l.043-.045.047-.04v-.086l.04-.09.046-.088.043-.042.042-.045h.131v.045l.043.042.045.088v.043l.043.088V580.873l-.043.088-.045.086-.043.087-.043.088-.088.043-.042.088-.088.042-.041.045-.09.045h-.043l-.085.041h-.047l-.041.047h-.175l-.045-.047-.043-.04v-.046l-.041-.045V581.31l.04-.088zm.785 2.875l.086-.09.087-.041.088-.087.086-.088.13-.088.088-.087.13-.088.129-.086.133-.043.087-.087.13-.088.13-.086.087-.043.09-.09.086-.04.087-.047.04-.041h.09v-.045l.042-.042.047-.045.04-.041v-.045l.045-.045v-.129h-.044v-.044H459.168l-.085.044h-.043l-.086.043-.09.045-.087.04-.13.046-.087.045-.13.086-.086.042-.132.086-.13.088-.09.045-.127.087-.131.086-.088.088-.132.087-.084.088-.088.04-.087.089-.086.087-.047.043-.041.088-.044.045-.043.04v.088l-.043.047v.131l.043.04v.045l.043.043h.132l.04-.043h.046l.043-.044.044-.041.088-.047.043-.041zm4.483-5.618l-.041-.04h-.047l-.043-.048-.042-.04-.045-.045-.043-.045-.088-.043-.043-.043-.043-.088-.087-.04-.045-.088-.086-.09-.045-.086-.085-.128-.088-.09-.043-.13-.088-.13-.085-.132-.043-.13-.09-.172-.043-.089-.044-.088v-.088l-.043-.085v-.088l.043-.043v-.043l.044-.045v-.04h.043l.045-.046h.045l.043.045h.043l.042.041.045.045.043.043.043.043.047.088.04.044.045.13.04.087.046.09.086.128.045.086.043.13.087.133.043.128.088.088.043.131.045.13.042.088.043.087.047.13.04.087v.043l.044.09v.087l-.043.041zm-7.314 2.395h-.04l-.048.041-.04.047-.045.041-.045.044-.088.088-.086.043-.043.088-.085.087-.09.088-.088.131-.085.085-.088.13-.086.131-.087.086-.086.133-.045.175-.088.13-.043.131-.044.127-.086.088-.045.087-.04.045-.046.088-.045.043h-.128l-.045-.043v-.045l-.04-.043v-.347l.04-.045v-.087l.045-.086.043-.13.043-.088.042-.088.09-.088.041-.13.088-.086.043-.132.087-.086.088-.133.045-.085.086-.13.042-.089.09-.087.041-.088.088-.084.044-.088.041-.044.045-.088.043-.04.043-.089v-.087l.047-.088v-.173l-.047-.043v-.13l-.043-.046v-.043l-.043-.044V579.744h-.045v-.088l-.04-.045v-.087l-.045-.043v-.088l-.04-.088V579.001h.04l.044-.043.041.043.088.045.09.043.041.043.044.045v.041l.043.044v.043l.043.088v.088l.043.043v.175l.045.045v.043l.043.041.045.044.044.043.041.045.047.041.084.047.045.086.043.085.042.088.043.045v.306l-.043.041-.042.044-.043.043-.045.045h-.043v.043zm4.31-3.7h.131l.087.042H459.343l.044.045H459.607v.043h.04v.042l.044.045v.045l-.043.041h-.041l-.047.047h-.041l-.09.041h-.607l-.131.044h-.869l-.088.043h-.132l-.086.045h-.349l-.041.045H456.906l-.088-.045h-.216l-.088-.045H456.343l-.088-.043-.09-.044h-.087l-.086-.04h-.129l-.09-.048h-.128l-.045-.04H455.339l-.043-.046h-.175l-.043-.045h-.088l-.087-.042h-.086l-.088-.043-.087-.045h-.131l-.086-.043-.087-.04-.131-.046-.088-.043-.041-.044-.09-.043-.042-.045-.043-.043v-.128l.043-.046.043-.044h.261l.088.044h.087l.086.045h.13l.135.041.086.045.128.043.088.043.129.045.089.043h.13l.087.044.087.043h.088l.043.045H456.037l.086-.045H456.557l.13-.043H457.517l.086.043h.957l.087.045h.218l.088.041zm.306-20.241l.088.043h.173l.041.045h.522l.088-.045h.132l.084-.043.088-.041h.045l.088-.047.087-.043h.218l.041-.042h.131l.045-.045.043-.043h-.043v-.045l-.045-.043v-.043l-.043-.044-.043-.043-.045-.043-.041-.045-.046-.043h-.041l-.045-.043H460.345l-.087.043h-.088l-.088.043h-.13l-.086.045h-.131l-.044.043h-.086v.043H459.083l-.043.044h-.086v.043l-.047.043v.088l.047.045v.042l.041.043h.045l.087.047.041.041h.09zm-3.353 13.014v.043l.043.045.045.043H456.255v-.043h.04v-.045h.046V569.774l-.086-.26-.133-.306-.087-.26-.043-.264-.088-.259-.041-.263-.047-.26-.043-.26-.042-.263v-.738l.042-.264v-.259l.043-.259.088-.265.043-.26.088-.305.087-.26.133-.263V564.245h-.045v-.043h-.088v-.044h-.175l-.043.044h-.041v.043h-.047v.043l-.129.304-.088.306-.088.306-.085.261-.045.304-.088.261v.261l-.043.263V567.38l.043.263.045.26.043.305.045.261.085.304.088.261.088.304.085.306.131.304zm-1.654 4.833l.04.088.048.087V575.216h-.047v.043h-.129l-.043-.043h-.042v-.044l-.045-.043-.043-.043-.043-.045-.088-.086-.043-.087-.042-.088-.045-.131-.086-.087-.045-.133-.086-.126-.087-.131-.088-.175-.088-.131-.085-.173-.088-.131-.086-.173-.088-.131-.09-.175-.083-.131-.088-.13-.087-.131-.131-.131-.043-.13-.087-.131-.088-.087-.088-.088-.043-.131-.085-.085-.045-.131-.043-.086-.043-.087-.043-.131-.045-.088v-.087l-.044-.088v-.086l-.043-.087v-.435l.043-.043v-.089l.044-.042V570.035l-.044-.043v-.13h-.043v-.086h-.043v-.088l-.045-.045v-.173l.045-.043v-.088l.043-.043v-.044l.043-.043h.044l.045-.043h.086l.043.043h.045l.042.087v.043l.043.088.043.088v.085l.045.088v.088l.043.086v.087l.043.043v.174l.045.044v.218l.042.042v.263l-.042.042V571.079l.042.045v.086l.045.045v.043l.043.044v.043l.043.043.043.045v.043l.045.04.044.09.043.045v.04l.043.089.045.088.043.085.04.13.09.089.088.13.043.175.086.129.086.176.132.13.088.175.087.174.086.173.088.174.13.175.086.174.088.175.088.173.042.13.088.174.043.13zm1.002-2.394l-.09-.043h-.085l-.043-.045h-.304v.045h-.045v.043l.045.041.043.047.044.043.043.042.04.043.047.045.087.086.087.045.088.043.086.043.086.087.132.043.088.088.086.043.13.044.088.088.086.043.085.043.088.045.088.042.044.043.086.041.045.047h.043l.045.043h.04l.047.043h.129l.043.045H456.947l.09-.045h.13l.087-.043.045-.043.088-.047.043-.04.087-.044.086-.042.043-.088.088-.043.087-.088.04-.044.089-.043.045-.043.043-.045.089-.043.04-.043h.046l.043-.044.045-.043h.087l.04-.043h.089l.043-.045h.132l.086-.043h.133l.04-.043h.088l.086-.045.09-.043h.087l.086-.042.088-.043.086-.047.085-.04.045-.044.043-.045.045-.043.043-.042v-.133l-.088-.045-.043-.04-.045-.045-.041-.043-.044-.043-.045-.045-.041-.043-.047-.043v-.173l.047-.045v-.043l.04-.043.046-.045.044-.044h.04l.046-.04.088-.046.043-.088.087-.043.045-.087.084-.088.088-.086.087-.13.045-.086.084-.133.047-.128.085-.135.043-.084.045-.132.045-.086.043-.13v-.304l-.043-.043h-.09l-.043.043-.044.043-.041.043-.088.044-.043.086-.045.045-.043.086-.085.087-.047.086-.084.088-.088.128-.044.09-.088.088-.088.13-.085.088-.086.086-.088.087-.086.086-.046.043-.041.088-.043.044-.047.043-.041.088-.045.043v.045l-.043.085-.044.045-.041.043v.088l-.045.043-.043.043-.045.044v.043l-.045.043-.041.043-.046.045-.041.043h-.045l-.043.043-.043.044h-.045l-.041.041-.046.045-.041.045h-.045l-.043.043-.086.045-.045.042h-.044l-.043.043-.045.045-.043.043-.045.041-.041.047-.087.043-.043.042-.045.043-.043.045-.045.043-.041.043-.046.045v.043l-.041.043h-.043l-.043.044h-.045l-.045.043h-.128l-.088.043h-.045l-.045-.043h-.128l-.045-.043h-.086l-.043-.044h-.043l-.087-.043h-.045l-.088-.043h-.041l-.09-.045h-.04l-.088-.043-.088-.043h-.044l-.086-.045h-.088l-.086-.043-.088-.042h-.043l-.088-.043-.086-.047h-.087l-.088-.04zm3.307-3.265l-.043.043-.088.088v.042l-.042.045-.043.045v.128l.043.045.042.043h.26l.044-.043.045-.044.043-.041.088-.045.045-.043.085-.09.041-.085.09-.088.088-.088.087-.128.086-.088.043-.13.088-.089.087-.13.086-.086.088-.132.087-.086.043-.13.088-.088.088-.086.041-.088.09-.044.042-.086.043-.043.041-.045.047-.087v-.043l.041-.043.044-.045h.045v-.041l.043-.047h.043l.045-.041h.349l.085.04h.174l.045.048h.173l.041.04h.481l.043-.04h.088l.043-.047h.043l.044-.041h.041l.047-.044h.043l.043-.043h.086l.087-.045h.09l.043-.043h.043l.087-.043.041-.045.088-.041.045-.044.087-.043.043-.088.088-.088.088-.128.041-.09.09-.13.042-.131.045-.086.041-.087.045-.043v-.088l.043-.088.044-.041v-.09l.043-.043v-.087l.045-.043.043-.043.043-.044h.043l.043-.043h.132l.043.043h.088v.044h.043v.043h.044v.043l.041.043v.045l.045.043v.089l.043.04v.132h.045v.088l.043.042.044.045v.045h.043v.04l.041.046h.047v.043l.041.043h.045l.043.042h.044l.043.045h.043l.045.043h.041l.045.043.043.047h.044l.045.04.043.044.043.044.045.043h.043l.041.045.046.043v.045h.043l.043.043.045.044h.043v.04h.043l.043.089.044.088.041.043.045.085.045.088.043.088.043.043.045.087.042.088.043.043v.043l.045.087.043.045h.045l.043.045h.173l.088-.045v-.088l.041-.044-.04-.043v-.043l-.046-.088v-.045l-.043-.085-.043-.088-.086-.088-.044-.085-.088-.088-.043-.086-.088-.086-.087-.087-.086-.088-.09-.088-.085-.087-.086-.088-.088-.043-.086-.088-.046-.085-.084-.043-.045-.086-.043-.045-.088-.087v-.043l-.044-.045-.043-.043-.045-.088v-.087l-.04-.043v-.088l-.046-.043v-.086l-.043-.044v-.043l-.043-.043-.044-.045-.043-.043v-.045l-.086-.041-.047-.044-.04-.041h-.044l-.044-.047-.043-.043-.088-.043h-.045l-.04-.045h-.176V562.983l.043-.041v-.045l.045-.043v-.045l.043-.043v-.044l.044-.043.041-.043v-.086l.045-.045.043-.041v-.046l.045-.043v-.088l.043-.043v-.043l.044-.087v-.219l.043-.041V561.679l-.043-.045v-.087l-.044-.043h-.088l-.043.043-.045.044-.04.043-.045.086-.088.088-.043.087-.09.088-.04.043-.045.088-.086.087-.043.043v.088l-.043.043-.045.089-.043.04v.089l-.044.043v.086l-.043.087V563.115l-.045.043v.394l-.04.128v.263l-.046.172-.043.175v.13l-.043.174-.046.174v.132l-.04.174-.048.13-.04.174-.044.13-.045.13-.043.13-.044.088-.043.088-.045.085-.04.045-.048.086-.084.045-.044.086-.086.042-.045.045-.086.043-.087.043-.088.047-.09.041h-.085l-.086.043h-.392l-.086-.043-.087-.04h-.088l-.088-.047-.13-.044h-.389l-.089.043h-.087l-.088.047-.13.041-.086.043-.088.044-.086.043-.089.088-.088.045-.086.087-.086.086-.087.086-.045.088-.088.132-.04.086-.046.128-.087.09-.043.13-.043.087-.047.09-.039.129-.046.085-.04.088-.046.09-.043.085-.09.086-.04.088-.045.088-.04.085-.09.088-.044.088-.088.087-.085.088-.088.04zm4.962 6.53v.175l.043.043v.043l.047.045V576l.041.043v.044h.044l.043.043.045.043h.129v-.043h.043v-.043l.044-.044v-.304l.043-.088v-.349l-.043-.13V573.955l-.044-.043v-.088l.044-.043v-.132l.043-.043.045-.043.043-.047.045-.084.041-.043.089-.087.088-.043.129-.045.087-.087.088-.043.041-.043.088-.045.044-.043.088-.043.041-.045.043-.042.088-.043.046-.045.041-.043.047-.043.041-.045.043-.043.047-.085.041-.047.044-.041.043-.043.045-.088.041-.043v-.087l.047-.045v-.045l.041-.041v-.087l-.041-.043v-.045h-.047l-.041-.043h-.088l-.044.043h-.088l-.043.045-.041.043-.047.042-.087.045-.041.04-.047.046-.043.045-.041.087-.045.043-.043.043-.044.045-.041.043-.047.04-.041.048-.088.043-.043.042-.087.043-.045.045-.088.043h-.087l-.084.043h-.304l-.133.045h-.347l-.087.043h-.263l-.086.042h-.131l-.087.045h-.041l-.088.043h-.045l-.087.043-.086.045h-.045l-.088.043h-.041l-.087.043H462l-.045.044h-.173l-.045.043H460.737v.045h-.044v.043l-.045.043v.349l.045.042v.088H460.913l.041-.043h.089l.041-.045h.088l.045-.042H461.651l.045-.045H462l.086-.043h.045l.087-.043h.041l.088-.047.045-.041h.173l.045-.043h.259l.088.043h.086l.044.04.086.048.088.043.045.043.041.045.087.042.047.045v.086l.041.088v1.697zm-3.004-11.58V563.636l-.04-.044v-.04l-.048-.046v-.088h-.043v-.043h-.042v-.043h-.174v.043H460.086l-.045.043v.045h-.045l-.043.043-.043.045-.045.041v.044l-.043.086-.043.043-.044.09-.04.087-.048.041-.043.088-.043.088-.045.087-.042.088-.045.041v.088l-.04.043-.046.043-.043.044-.043.045-.045.041-.043.047-.044.041H458.908l-.087-.04v-.048h-.043v-.257l.043-.047v-.04l.043-.046.044-.087v-.043l.043-.088.047-.04.041-.089.043-.087.087-.09.043-.086.088-.087.043-.129.086-.13.087-.133.088-.13.131-.174.087-.129.088-.177.086-.173.09-.13.085-.176.043-.129.043-.129.043-.134.045-.129v-.175l-.045-.04-.086-.046H459.343l-.086.045h-.652l-.045-.045v-.045h-.045V561.068l.045-.045.044-.04.088-.047.041-.043H459.43l.045-.043h.042l.045-.043h.043l.043-.043.047-.045.041-.04.044-.047.043-.04.088-.046.086-.045.045-.043.085-.043.088-.043.043-.087.088-.045.042-.04.043-.048.047-.084.041-.046.043-.04.045-.087.043-.047.042-.043v-.087l.045-.04.045-.089v-.045l.043-.04V559.196l.045-.046.041-.086.044-.084.043-.088.043-.087.088-.045.045-.088.085-.043.086-.087.045-.04.086-.048h.13l.045.047.043.041v.176l-.043.087v.087l-.045.088v.127l-.04.09v.087l-.045.041-.045.088v.09l-.043.085-.043.043-.045.086-.043.087v.043l-.043.088-.044.086-.04.046-.089.084-.045.088-.043.088-.043.044-.044.086-.04.088-.046.045-.043.087v.041l-.045.088v.043l-.045.043v.13l-.042.045V562.111l-.043.046v.129l-.045.045v.043l-.043.043-.04.044v.174l-.048.043v.043l.047.046v.086l.041.043v.045l.043.041v.045l.045.042v.045l.043.045.042.041v.047l.045.041.045.044v.043l.043.043.045.088.041.045.044.085.043.043.043.086v.045l.045.086v.046l.043.088v.304l-.043.041v.088l-.045.043-.086.087-.044.086-.04.047-.046.041-.088.043v.044h-.175v-.044l-.043-.043v-.695zm-.914-10.446h.088l.043-.043.087-.045h.088l.045-.043.04-.044h.088l.043-.04h.087l.046-.048h.043l.042.047h.086l.088.041h.045l.043.044.044.043h.086l.045.045.043.043.087.041h.045l.04.047h.089l.043.041h.045l.087.044h.172l.045-.044.043-.04v-.177l-.043-.043-.045-.044h-.043v-.04h-.088l-.041-.048h-.046l-.041-.04h-.045l-.043-.046h-.043l-.045-.045h-.041l-.045-.04h-.042l-.045-.045h-.043v-.043h-.045v-.045l-.043-.043v-.045h.043v-.04l.045-.045.043-.045.045-.04.042-.048.086-.04.045-.046.086-.04.086-.047.046-.084.088-.047.04-.04.044-.046.045-.043.043-.044.042-.088.045-.043v-.128H460.824l-.043.04h-.088l-.043.045h-.044l-.043.043h-.045l-.041.043-.047.047v.041l-.043.044-.043.043-.042.045-.043.041v.09l-.045.041-.041.087-.047.045v.041l-.043.047-.043.041v.045l-.044.044-.041.041v.045l-.045.043h-.043l-.045.045-.043.043h-.044l-.043.044h-.045l-.043.041-.041.045h-.047l-.085.045-.043.041h-.045l-.043.047-.043.041-.045.044v.043h-.041v.129h.04v.047h.177l.043-.047h.085l.088-.04zm6.182-2.7l.041.042.047.047.043.043h.042l.045.042h.174v-.042l.043-.043v-.088l-.043-.043v-.088l-.043-.085-.045-.088-.043-.088-.043-.085-.045-.088-.085-.045-.047-.086-.04-.044-.044-.043-.088-.043-.042-.045-.043-.043h-.047l-.086-.043h-.043l-.086-.043h-.044l-.088-.046h-.216l-.088-.041h-.173l-.088-.043-.13-.045h-.086l-.133-.043-.13-.043-.13-.045-.132-.043h-.128l-.176-.042-.13-.047-.13-.041-.13-.045-.089-.043-.132-.045-.129-.042-.086-.043-.087-.043h-.09l-.04-.045-.089-.043h-.043l-.044-.043-.088-.043h-.088v-.044H462l-.043.044h-.09v.043l-.04.043-.046.043-.042.045-.088.043-.043.043-.047.042-.085.088-.086.086-.088.089-.088.088-.085.086-.045.088-.086.087-.043.086-.087.088-.043.086-.045.085v.178l.045.042.043.043h.304l.087-.043.088-.042.086-.045.087-.088.088-.045.088-.085.043-.086.087-.088.086-.043.088-.09.043-.083.087-.045.086-.043.088-.043h.218l.131.043.087.043.086.045.088.084.085.046.088.043.088.043.086.088.085.043.09.043h.087l.086.044.088.04h.088l.085.046h.088l.086.045h.351l.13-.045h.347l.088.045h.086l.085.043h.045l.088.045.044.042h.086l.043.043.045.043.041.045.047.043.043.045.042.043.045.085.043.045.043.043zm-12.275 3.267l.043-.043.045-.047h.043l.042-.041.045-.044.043-.043h.043v-.045l.047-.043v-.045h-.047v-.043h-.261l-.043.043h-.088l-.13.045h-.088l-.13.043-.086.045h-.13l-.087.043-.132.044-.088.04h-.087l-.13.048-.087.043-.087.04-.043.048-.088.085-.04.043-.046.045-.043.088-.044.043v.173l.044.043h.043l.045.045h.172l.043.04h.044l.086-.04h.131l.087-.045h.045l.043-.043.045-.045.043-.042.044-.045h.041v-.041l.045-.043.043-.047h.045l.086-.041.043-.045h.044l.043-.043.043-.044h.045l.043-.041h.043l.044-.047h.09v-.041h.041zm3.7 5.134h.043l.045.043h.304l.043-.043h.042v-.04l.045-.048v-.043l-.045-.042v-.045l-.042-.086-.043-.088-.043-.043-.086-.087-.045-.086-.045-.088-.085-.087-.045-.043-.084-.088-.047-.088-.041-.085-.046-.088-.043-.043-.043-.088-.045-.085-.043-.045-.043-.084v-.305l.043-.09v-.043l.043-.088v-.13l.045-.086v-.088l.043-.13v-.088l.043-.13v-.217l.046-.133v-.347l-.046-.087v-.088l-.043-.043-.043-.043-.045-.087-.043-.043-.043-.045-.043-.086-.044-.043-.043-.087-.045-.088-.043-.086v-.045l-.043-.085V554.538l.043-.086.043-.13.045-.086.087-.09.086-.085.088-.088.086-.088.046-.087.088-.086.084-.088.088-.086.087-.087.045-.13.086-.089.043-.13.085-.088.045-.13.045-.13.043-.174.045-.13.04-.174.044-.217v-.654l.044-.219-.044-.216v-.871l-.043-.216v-.176l-.041-.218v-.175l-.045-.174-.043-.173v-.13l-.045-.174-.045-.133-.042-.085-.043-.088-.043-.088-.045-.086-.041-.044h-.045l-.045-.043H457.299l-.045.043h-.043v.044l-.041.043v.131l-.047.043v.349l.047.087v.088l.04.086v.13l.044.174v.436l.045.261v1.698l-.045.261-.043.261v.261l-.088.218-.041.174-.09.175-.087.131-.086.085-.13.088-.131.043-.086.088-.132.087-.131.043-.087.088-.086.043-.088.09-.087.04-.086.088-.043.043-.043.088-.045.042v.09l-.041.086v.086l.04.087.046.086.043.088.086.087.043.131.087.088.088.085.045.088.086.088.042.087.045.086.043.086.043.088.047.087.04.086.045.088v.087l.043.09V556.454l-.043.085v.131l-.044.132v.131l-.041.088-.047.087v.13l-.043.087v.043l-.043.087v.086l-.045.088v.306l.045.042v.043l.043.045.043.043.047.088.04.043.045.043.086.087.043.086.043.045.088.087.044.086.043.045.043.086.043.087.088.088.043.043.046.086v.045l.04.042.048.043v.047l.04.041zm6.617-4.003l.041-.088.045-.085.045-.088.085-.09.045-.128.043-.088.043-.131.086-.13.044-.13.045-.088.043-.13.045-.13.043-.175v-.131l.043-.132v-.127l-.043-.175v-.131l-.043-.173-.045-.133-.088-.13-.085-.086-.045-.088-.043-.085-.043-.088-.045-.088-.043-.043-.042-.044v-.043l-.045-.045v-.043l-.045-.043v-.043l-.04-.045-.044-.042v-.043l-.045-.047v-.041l-.043-.045-.042-.086-.045-.042-.045-.043-.04-.045-.048-.043-.043.043v.349l.043.043v.173l.047.088v.087l.041.088.045.088v.084l.045.132.042.086.043.088.045.13v.088l.043.13.041.13v.13l.045.132v.522l-.045.176v.173l-.04.13-.089.174-.043.13-.042.129-.045.09-.045.088v.085l-.04.088v.304H463.61l.045-.043.042-.045.043-.043.045-.087.043-.086zm4.31 1.61l.04-.088v-.13l.048-.088.04-.086v-.087l.045-.043.045-.088.043-.086v-.087l.043-.043.043-.088.045-.088.04-.085.046-.088.042-.088.045-.087.043-.086.045-.131.043-.13.087-.129.04-.132.048-.131.04-.088.046-.087.045-.086.042-.045.043-.086.043-.044.045-.043.04-.043v-.088l.046-.043.043-.045v-.085l.045-.088v-.088l.042-.087v-.131l.045-.129v-.348l.043-.176v-.13l.04-.131.048-.129.04-.13.047-.131.043-.087.088-.131.04-.088.046-.087.043-.043.044-.086.043-.045.045-.043.043-.044.043-.043.043-.043v-.043l.043-.045V551.143l-.043-.087v-.043l-.043-.045-.043-.043v-.043l-.043-.044h-.088l-.044.044-.088.043-.041.043-.045.088-.086.13-.046.088-.041.088-.088.089-.043.084-.045.088-.042.043v.087l-.045.088-.043.086-.045.088-.041.042v.088l-.045.088-.043.086v.087l-.043.133-.042.085-.045.129-.045.088v.13l-.041.131-.047.088-.041.13v.131l-.044.087-.043.086-.043.131v.087l-.045.131-.043.088-.045.13-.042.086-.045.131-.041.087-.045.131-.043.13-.086.088-.045.131-.085.132-.047.129-.084.173-.045.131-.09.13-.04.133-.045.128-.043.131-.045.132-.041.129-.044.131-.043.13v.131l-.043.087v.131l-.047.088V557.325l.046.043.043.042.043.045h.173l.045-.045.042-.042.046-.043v-.043l.043-.045v-.043l.045-.088.043-.085v-.088zm6.484 14.93v-.087l-.041-.085v-.131l-.047-.088v-.173l-.041-.045v-.088h-.044v-.042h-.176v.042l-.086.043h-.044v.045l-.041.045v.043l-.047.087v.304l.047.088V572.037l.041.045v.174l.044.044v.39l-.044.088v.392l-.041.13v.086l.041.132v.262l.044.13v.172l.041.132.045.175.088.174.045.173.087.219.088.175.041.173.09.174.085.173.041.133.088.13.045.13.086.13.044.13.043.088.045.13.043.088.045.088.041.043.044.087.045.043v.086l.041.045v.043l.047.044V577.392l-.047.043-.041.043h-.045l-.044.045H474.534l-.085-.045h-.306l-.088-.043h-.522v.043h-.041v.045l.041.043.045.045h.044l.088.042.088.045.085.043.131.043.088.045.126.043.133.043.088.043.132.044.131.04.126.046.088.043h.131l.087.045.088.043h.304l.045.044H475.84v1.916l-.041.173v.26l-.047.175v.088l-.043.13-.041.088-.044.086-.043.087-.045.043-.041.045-.047.043v.088l-.041.042v.171h.041l.047.048.041-.047h.045l.043-.041.085-.043.043-.045.047-.043.041-.042.088-.088.044-.043.088-.088.041-.043.045-.087.086-.088.046-.086.041-.044.045-.088.043-.086.043-.088v-.085l.045-.131v-.349l-.045-.13-.043-.088V579l.043-.128V578.043l-.043-.128-.043-.131-.045-.131-.041-.13-.087-.131-.09-.13-.088-.131-.085-.13-.043-.131-.086-.13-.09-.131-.041-.131-.087-.175-.045-.13-.088-.13-.041-.13-.045-.13-.044-.133-.086-.13-.043-.131-.045-.13-.043-.13-.044-.087-.043-.13-.088-.088-.041-.088-.047-.13-.041-.088-.044-.086v-.085l-.041-.045-.047-.088-.043-.086v-.046l-.041-.084v-.045l-.047-.088v-.13l-.041-.045v-.129l.041-.085v-.219l.047-.043v-.175l.041-.045v-.216l.043-.043V572.125l-.043-.088v-.173zm-3.002-15.8l-.045.13-.044.085-.042.088v.088l-.046.085-.04.09-.046.088-.043.041v.087l-.045.043-.042.088-.043.045v.087l-.045.041-.04.043-.046.088-.043.045-.045.087-.04.041-.045.088-.045.088-.04.045-.048.085-.04.045-.048.043-.04.043v.045l-.045.043v.042h-.045v.088l-.04.043v.61l-.046.088v.173l-.043.086v.09l-.045.04-.042.088v.088l-.045.09v.04l-.04.088V560.067l.04.085v.176l.045.044V560.85h-.131l-.043-.043-.043-.043-.045-.045-.043-.04-.044-.088-.04-.09-.048-.043v-.086l-.04-.087v-.088l-.044-.13v-.349l.043-.129v-.262l.041-.13.047-.175v-.173l.041-.176.087-.17.045-.178.043-.174.043-.173.045-.174.041-.175.045-.129.042-.132.045-.176.043-.128.045-.13.041-.089.045-.128.044-.088.041-.132.047-.086.041-.086.047-.088.086-.087.044-.045.086-.084.043-.088.086-.044.045-.088.085-.045.045-.043.088-.043.041-.043.046-.044h.086l.045-.04h.041l.047.04.041.044v.174l-.04.088-.048.085-.04.088zm2.219-1.698l-.041-.041-.047-.047-.043-.085-.042-.045-.045-.086-.043-.045-.043-.086-.045-.044v-.088l-.043-.043v-.088l-.043-.041V553.408l.043-.045v-.042l.043-.043.045-.043h.086l.045.043.042.043.043.042.088.045.043.086.043.047.087.085.045.04.045.089.086.088.086.043.042.087.088.043.045.045.088.086h.085l.043.045.088.042.088.043.085.047.088.04.088.044.13.045.088.043.086.042.13.088.088.043.086.088.13.043.088.042.088.088.086.045.087.088.09.042.085.043.043.043.088.088.043.043.043.045.043.044.046.04.04.046.044.043.045.043h.043l.043.045v.043h.045l.042.044h.043l.047.043H477.454l.04.045.044.043V556.019l-.043.043v.045h-.041l-.045.043-.043.043-.088.045h-.044l-.086.043H476.754l-.043-.043-.041-.045-.046-.043h-.043l-.043-.043-.043-.045-.045-.085-.043-.045-.043-.043-.044-.043-.041-.043-.045-.045-.045-.087-.043-.043-.087-.045-.043-.043-.088-.043-.043-.045-.088-.041-.087-.044-.086-.045-.088-.043-.085-.043-.088-.045-.086-.043-.09-.043-.085-.042-.088-.043-.088-.045-.085-.045-.045-.043-.086-.045-.045-.042h-.086l-.042-.043h-.043l-.045-.041h-.045l-.043-.047h-.13v-.043h-.088l-.041-.045-.045-.043h-.045l-.042-.042-.045-.043-.086-.088zm-1.044 15.67v.088h-.043v.043l-.047.042h-.041l-.044.045h-.088l-.043-.045h-.086v-.042h-.044l-.045-.043v-.045l-.041-.043-.047-.043v-.349l.047-.043v-.13l.041-.043v-.088l.045-.044v-.086l.044-.045v-.086l.041-.087.045-.131v-.131l.043-.132.045-.174.043-.173.044-.173.041-.217.047-.175.084-.218.047-.174.085-.218.088-.216.086-.176.086-.173.087-.218.088-.131.09-.173.085-.131.129-.131.088-.13.128-.088.088-.043.133-.044h.087l.084-.043H474.49l.047-.045h.043l.041-.041.047-.045v-.043l.041-.045v-.042l.044-.043v-.174l.041-.087v-.219l.047-.087v-.086l.043-.131v-.13l.043-.131v-.132l.045-.13v-.131l.041-.174v-.13l.045-.176.042-.128v-.176l.045-.13v-.174l.041-.13.047-.131v-.13l.043-.131v-.131l.044-.087.043-.088v-.086l.041-.087v-.086l.047-.088v-.13l.041-.088v-.088l.045-.086.043-.087.044-.086.043-.088.088-.087.041-.086.088-.088.086-.087.089-.09.129-.041.132-.088.131-.085.128-.088.133-.043.13-.088.129-.043.088-.087.13-.086.088-.045.086-.086.089-.044.088-.088.086-.086.087-.045.088-.085.043-.088.088-.086.041-.088.087-.087.045-.086.045-.131.086-.087.043-.088.044-.045.041-.043.088-.042h.045l.043-.043h.045l.083-.045h.088v.045h.045v.216l-.045.088-.041.087-.088.088-.087.13-.088.13-.129.087-.087.13-.086.13-.09.089-.128.13-.088.088-.089.086-.086.13-.088.088-.084.086-.088.087-.087.088-.086.084-.088.09-.089.044-.041.088-.088.043-.088.086-.087.044-.088.043-.088.088-.041.043-.087.043-.086.043-.045.087-.086.088-.087.043-.047.088-.084.087-.046.13-.086.13-.043.13-.045.133-.041.173-.088.175-.043.217-.044.218-.043.26v.26l-.045.263v.522l-.041.219v.216l-.047.218v.219l-.041.173v.173l-.043.174v.175l-.044.13-.043.13v.132l-.047.088-.041.087-.045.086-.042.045-.045.043-.041.043h-.219l-.044.042h-.26l-.087.045h-.088l-.086.04-.089.046-.088.045-.088.043-.084.087-.087.043-.045.088-.088.13-.085.088-.041.13-.045.174-.045.13-.043.174v.176l-.045.13v.174l-.042.13v.174l-.045.13v.176l-.041.13v.174l-.045.13v.13l-.043.13-.043.132-.047.13-.041.088-.044.13-.041.086-.088.088zm.609 11.012l-.131.043h-.304l-.175-.043h-.479l-.217-.04h-.261l-.306-.048h-.26l-.26-.04-.306-.045-.261-.045h-.261l-.261-.043-.261-.043-.22-.043h-.172l-.218-.045-.13-.04h-.263l-.13-.045h-.087l-.086-.043h-.088l-.085-.045-.088-.045h-.043l-.045-.043-.043-.043h-.046l-.042-.043v-.044l-.043-.04v-.179h.043v-.042h.087l.043.042h.045l.086.045h.087l.088.045h.087l.087.041.13.047h.131l.13.041h.131l.13.044h.48l.218-.044h.173l.174.044H470.965l.131.043h.305l.174.043h.175l.13.043h.174l.174.045h.218l.174.045.218.043.214.044.22.041h.219l.087.045h.086l.045.043h.043l.043.043.044.043v.13h-.044l-.043.047h-.131l-.043.041h-.175zm-5.137-15.41v-.172l.043-.043v-.086h.047v-.045h.041l.044-.045h.174l.043.045h.043l.087.045.045.04.088.046.085.087.086.04.088.048.088.084.085.088.043.046.088.04.088.089.087.045.045.04.086.045.086.045.046.04.086.048H470.227l.041-.047.045-.041.043-.045.045-.044.086-.041.044-.045.088-.043.088-.045h.085l.086-.041.047-.046.086-.041.087-.047.084-.084.088-.047.088-.085.085-.043.047-.086.041-.131.09-.087.041-.133.046-.13v-.174l.041-.13.045-.13.043-.174.045-.131.041-.131.045-.132v-.13l.044-.131.041-.131.045-.128v-.086l.043-.133.045-.085v-.133l.043-.087V562.417l.043-.043v-.129l.042-.045v-.042l.043-.045.047-.088.041-.043.045-.043.043-.044.044-.088.086-.041.047-.088.086-.087.087-.088.086-.086.086-.088.086-.13.087-.131.131-.132.088-.084.087-.088.088-.044.045-.086.084-.045.044-.086.043-.043.045-.044.043-.043.045-.045.041-.045v-.043l.044-.043h.043v-.043l.043-.044.047-.041v-.045l.041-.088.045-.043.087-.045v-.042l.043-.041.043-.047v-.216l-.043-.043h-.175l-.041.043-.047.042-.043.045-.087.043-.086.045-.043.088-.088.083-.087.045-.041.088-.088.088-.086.085-.089.086-.088.088-.088.088-.041.087-.087.086-.088.089-.088.086-.087.088-.086.04-.088.089-.086.087-.087.043-.086.045-.09.043-.085.045-.043.042-.045.043-.043.045h-.045l-.041.043-.044.045-.045.04h-.041v.088l-.045.045v.043l-.043.088v.173l-.045.086-.041.133v.128l-.046.13v.133l-.041.129v.392l-.047.13v.133l-.043.128v.13l-.041.176-.047.13-.041.133-.044.129-.043.13-.088.174-.088.13-.085.133-.129.173-.047.043-.086.043-.044.088-.088.045-.041.042-.045.045-.043.04-.087.09h-.043l-.045.042-.043.045-.086.043h-.044l-.043.044h-.131l-.045-.044h-.041l-.046-.043-.041-.045-.045-.041h-.045l-.086-.045-.043-.045-.087-.086-.045-.042-.088-.045-.043-.041-.085-.047-.088-.086-.041-.044-.09-.088-.087-.041-.041-.088-.088-.044-.045-.086-.043-.086-.044-.088-.043-.045-.043-.087-.045-.086-.041-.086-.047-.087v-.131l-.041-.088v-.087l-.044-.086-.041-.09v-.173l-.047-.088v-.13l-.043-.041v-.176l-.041-.044v-.086l-.047-.045-.041-.041v-.045l-.044-.043-.043-.044v-.042h-.176v.042l-.043.044-.044.088v.04l-.041.089v.13l-.047.133v.477l.047.086v.088l.041.087v.086l.044.045.043.087.043.045v.086l.043.043.045.043v.087l.045.045v.088l.043.04v.523l-.043.047v.173l-.045.04v.091l-.045.04v.046l-.043.043V565.549h-.043v.219h.043v.047l.043.04h.177l.041-.04h.047v-.087l.041-.047v-.043zm-19.892 11.32l.043.13v.173l.045.131v.173l.043.132.042.174.043.173v.176l.045.175v1.003l-.045.215-.085.175-.043.215-.088.261-.131.22-.13.216-.131.217-.175.218-.086.218-.132.176-.13.216-.087.173-.128.176-.09.173-.087.176-.043.173-.086.131-.045.13-.041.131-.047.13v.347l.047.088.04.043h.046l.086-.043.043-.043.087-.086.09-.088.086-.13.087-.174.086-.175.086-.175.132-.174.086-.216.088-.175.13-.219.088-.173.088-.216.085-.176.088-.175.088-.174.085-.128.043-.13.088-.088.045-.13.043-.132.043-.087.043-.129.087-.09.045-.13.043-.13v-.13l.043-.132.044-.13v-.304l.043-.176v-.173l-.043-.216v-.394l-.044-.216-.043-.262-.043-.175-.045-.173-.043-.176-.044-.128-.043-.129-.043-.09-.043-.13-.088-.045-.045-.086-.043-.043h-.042v-.044h-.043l-.045.044v.043l-.043.043v.349zm-4.31.347l-.043.088-.045.085-.043.088-.085.09-.045.085-.043.086v.088l-.045.088-.043.085v.567l.043.131.088.131.045.128.085.131.088.175.131.131.043.043V579.742l-.043.045h-.219l-.042-.045h-.043l-.088-.043-.088-.045-.086-.043-.087-.087-.088-.043-.045-.088-.085-.088-.043-.085-.045-.13-.043-.089v-.13l-.045-.086v-.524l.045-.13v-.129l.043-.133v-.086l.045-.128.043-.133.043-.13.042-.129.045-.09.043-.087.045-.043.043-.088.087-.043.043-.04h.043l.088-.045H444.022v.044l.043.041.043.043v.176l-.043.085v.088zm1.044-5.613h-.041l-.047-.043-.041-.045-.09-.043-.042-.044-.086-.043-.045-.045-.086-.041-.087-.047-.088-.041-.13-.044-.088-.043-.131-.045h-.128l-.176-.045h-.74l-.26.045-.132.045-.171.043h-.133l-.13.044-.088.088-.131.04-.085.046-.088.043-.041.044-.047.043-.041.045-.046.043v.129h.263l.085-.043h.045l.086-.045h.351v.045l.04.043v.044l.045.04v.307l-.044.133v.259l-.041.088v.436l.04.043v.043l.045.045v.04l.043.047h.131l.045.043h.087l.043-.043h.043l.043-.046v-.041l.043-.045v-.129l.045-.044V572.603l-.045-.088V572.344l-.043-.088v-.132l.043-.041v-.088l.045-.043v-.047l.043-.085.044-.043.043-.045h.045l.086-.041h.043l.089-.043h.217l.085.043.09.04.086.046.086.043.132.044.088.04.085.048h.086l.133.043.087.043h.086l.086.045h.304v-.045l.045-.043v-.131l-.045-.044-.043-.13zm-2.698-4.658l-.043-.043-.045-.047v-.041l-.043-.044-.044-.043v-.045l-.043-.041v-.047l-.045-.043v-.043l-.04-.044-.046-.043v-.045l-.043-.086v-.043l-.043-.043v-.044l-.042-.041-.045-.047v-.041l-.045-.045v-.043l-.04-.044v-.041l-.048-.045-.04-.045v-.043l-.045-.045v-.087l-.043-.041-.043-.045v-.045l-.047-.041v-.045l-.04-.043-.046-.044v-.041l-.04-.045-.047-.043-.04-.043v-.047l-.046-.041-.043-.044h-.045l-.045-.043h-.128l-.045.043h-.04l-.046.044h-.043v.041h-.043v.047h-.046v.086h-.04v.13h.04v.088l.046.041.086.131.086.132.045.133.087.085.086.129.045.132.088.131.087.086.041.13.086.131.047.088.086.132.044.084.088.132.086.088.045.131.085.085.043.088.086.129.045.089.087.088.043.086.088.087.088.084.041.088.087.045.09.088.043.087.086.043.085.088.088.087.088.041.087.045.13.086.09.047.086.041.13.044.087.086.13.043.131.045H444.237v-.045h.047v-.043h.041v-.045l.044-.041V568.906h.043v-.178h-.043V568.643h-.044v-.043h-.04l-.048-.045h-.04v-.043l-.176-.043-.088-.046-.129-.041-.13-.088-.086-.045-.133-.088-.087-.041-.086-.087-.088-.043-.087-.086-.088-.088-.088-.089-.085-.086-.086-.088-.043-.087-.09-.086-.04-.086-.088-.088-.047-.085-.04-.088zm3.962-7.575l-.043-.043v-.045h-.045v-.041h-.043l-.046-.046v-.043h-.041l-.045-.043h-.088l-.085-.045H445.59l-.131.045h-.088l-.13.043h-.131l-.13.043h-.174l-.089.046h-.088l-.084.04h-.088l-.087.046-.045.043-.088.043h-.085l-.043.045-.088.043-.043.044-.086.088-.044.04-.086.048-.045.084-.088.043-.043.089-.085.04-.088.089-.088.043-.089.044h-.041l-.088.043-.086.043h-.089l-.041.045h-.351l-.041-.045-.047-.043v-.13l.047-.041.041-.047.047-.041.043-.045.042-.044.086-.043.045-.043.088-.041.041-.088.089-.045.043-.043.086-.044h.086l.046-.043.043-.045.088-.043h.043l.045-.043.085-.045h.043l.088-.041.088-.046.087-.043.086-.043.131-.045.087-.043.129-.043.09-.043.13-.044.131-.041.13-.045h.129l.175-.045.131-.043h.434l.176-.043h.563l.047.043h.085l.045.043.043.045.043.045.043.04v.045l.045.043v.043l.041.043v.045l.044.043v.043l.043.046v.086l-.043.043-.044.043-.041.045H446.502v-.045h-.088l-.041-.043zm.304 18.238v.09l.041.04v.045l.047.088v.086l.041.044.044.042.045.044v.043h.174l.041-.043.046-.044.041-.042v-.393l-.04-.041v-.175l-.047-.045v-.131l-.04-.087V576.957l.04-.044v-.041l.046-.047v-.219l.041-.04V576.305l-.04-.09v-.173l-.047-.041v-.047l-.04-.043v-.175l-.044-.041v-.263l.043-.041V575.217l.041-.09v-.087l.046-.041.041-.088v-.09l.047-.128.043-.086.043-.087.045-.131.041-.086.044-.132.088-.088.043-.13.043-.088.087-.131.043-.087.043-.13.088-.085.045-.09.043-.085.044-.088.043-.088.043-.087.045-.043.041-.088.045-.041.043-.046.044-.086.045-.086v-.086l.043-.087.043-.088.041-.088v-.13l.045-.086V571.558l-.045-.13v-.172l-.084-.131-.043-.132-.089-.176-.088-.171-.04-.086-.089-.131-.043-.134-.044-.088-.088-.128-.043-.088-.045-.13-.043-.085-.043-.09-.042-.087v-.087l-.045-.131-.043-.088v-.518l.043-.088.045-.09v-.128l.042-.088.043-.087v-.088l.043-.088v-.086l.045-.087v-.084l.043-.088v-.479l-.043-.131-.045-.087v-.086l-.086-.133-.042-.085-.045-.088-.043-.088-.043-.087-.088-.088-.044-.086-.04-.043-.046-.086v-.046l-.043-.084-.043-.047-.047-.041v-.045l-.04-.042v-.045l-.047-.041v-.09l-.04-.043v-.263l-.044-.041v-.044l-.045-.041v-.047l-.043-.041-.043-.045-.045-.043-.044-.045h-.088l-.04-.042h-.132l-.042-.043h-.306l-.088-.045H445.46l-.043.045h-.089l-.043.043h-.088l-.086.042-.089.045-.086.043-.086.045-.088.04-.085.089-.088.044-.088.04-.043.046-.087.086-.043.047v.04l-.045.045v.043l.045.043.043.047.045.04.085.046h.088l.041.042h.351l.041-.042h.132l.043-.045h.043l.045-.041.043-.047h.044l.045-.043h.043l.088-.043.043-.044h.041l.044-.041h.043v-.047h.088v-.041h.175v.04h.086l.043.048h.045l.043.04.044.045.043.043.043.043.086.088.047.045.085.087.045.088.086.084.041.088.088.132.044.086.088.086.043.087.045.088.043.087.041.088.046.088.041.086v.087l.047.04v1.003l-.047.088V568.728l-.04.088v.173l-.047.09v.086l-.04.043V569.817l.04.045v.086l.046.088v.085l.041.086v.088l.047.047.043.087.043.084.045.047.041.04.044.088.043.045.045.084.043.088.043.088.045.085.042.088.043.09v.087l.043.129v.086l.045.13v.218l-.045.133v.129l-.043.13-.043.133-.042.173-.088.13-.088.174-.087.129-.04.177-.089.129-.043.13-.088.174-.087.13-.043.133-.045.13-.086.13-.045.087-.044.132-.04.086-.048.132-.04.086v.088l-.044.086v.087l-.043.045V575.17l-.045.047v.086l-.042.04-.043.048v.04h-.087v.045l-.046-.044h-.086l-.044-.041-.043-.047-.045-.041-.088-.086-.04-.047-.045-.083-.086-.088-.045-.132-.088-.086-.043-.088-.085-.086-.088-.087-.043-.09-.088-.086-.044-.041-.088-.087-.043-.045-.043-.043-.043-.045h-.089l-.04.045-.046.088v.128l.045.086V574.82l.041.046v.132l.044.04v.048l.045.04v.043l.043.047.043.04.043.046.045.04.087.048.045.04.043.045h.088l.084.086.087.045.045.043.088.045.086.04.085.088.088.047.088.084.087.047.088.085.041.043.09.086.042.09.045.04v.088l.043.086V577.48l.043.04v.176zm4.047 3.395l-.04.043h-.048v.045h-.043l-.042.043-.045.044h-.043v.043h-.043l-.045.045h-.043v.043H450.247l-.045.045-.043.041h-.043l-.045.044-.043.043h-.087v.043h-.04l-.046.045h-.045v.043h-.088l-.042.045-.043.043h-.043l-.045.042h-.043l-.045.043-.043.043h-.043v.045h-.042V582.18h.042v.086h.043v.045h.088v.043h.088l.043-.043h.043l.22-.13.171-.133.176-.13.173-.087.173-.13.176-.13.13-.129.176-.088.128-.132.086-.13.133-.132.085-.13.088-.13.088-.13.043-.132.044-.17.043-.134.043-.173v-.176l-.043-.173v-.131h-.043v-.043h-.044v-.044H451.507l-.043.044h-.042v.043h-.043V580.004l-.045.085v.088l-.045.09v.085l-.043.086-.043.045-.043.086-.044.044-.04.086-.046.045-.043.086-.045.043-.043.045-.087.085-.043.047-.045.041zm.74-4.003v.086l.043.087V577.698l.047.088V577.87l.04.04v.048h.045l.043.04h.133l.043-.04h.043l.044-.047.04-.041.048-.044.04-.041.046-.045v-.088l.04-.088v-.044l.045-.084V576.737l-.044-.128-.041-.131v-.871l-.045-.043v-.132l-.041-.088-.047-.041v-.086l-.041-.045-.044-.085-.086-.088-.045-.088-.043-.087-.045-.088-.043-.088-.044-.128-.041-.088-.09-.088-.041-.128-.047-.088-.041-.09-.044-.087-.043-.041-.086-.088-.045-.043-.086-.043-.044-.045-.088-.044h-.129l-.09.044-.087.045-.086.043-.13.043-.088.043-.086.045-.13.04-.088.047-.13.088-.086.043-.09.088-.088.04-.085.045-.043.088-.086.043-.045.088v.043l-.045.042v.043l.045.045v.043l.045.045h.04l.046.043h.306l.04-.043h.48l.088.043h.087l.088.044.088.043.085.043.045.045.088.088.086.043.087.087.086.086.086.129.045.089.087.129.04.132.048.174.04.13v.174l.044.173v.437l-.043.218zm1.48-11.623v.04h-.04l-.047.048h-.041l-.087.043-.045.042-.088.045-.086.043-.044.043-.088.045-.086.043-.086.043-.087.044-.086.043-.088.045-.044.043h-.086l-.045.043h-.088l-.043.045h-.087l-.045.04H451.29l-.043.045h-.045l-.043-.044h-.129l-.044-.041h-.043l-.086-.045-.047-.043-.043-.088-.043-.043-.085-.087-.047-.088-.086-.086-.087-.087-.043-.09-.088-.084-.086-.13-.087-.088-.131-.088-.088-.086-.087-.087-.086-.043-.086-.09-.088-.043-.085-.042-.09-.043h-.214l-.088.043v.042l-.045.043v.133l.045.044v.086l.04.088.048.088.085.085.043.088.086.084.043.09.088.13.087.088.086.086.088.132.089.086.129.086.088.132.087.086.088.087.086.086.043.088.043.088.042.087.045.045v.084l.045.09v.346l-.045.043V567.86l-.045.088V568.163l-.042.089v.261l-.043.13v.129l-.043.132V569.427l.043.087.043.043.042.043h.131l.088-.043.087-.043.043-.087.088-.088.045-.088.043-.087.044-.13.04-.087v-.13l.048-.086v-.131l.04-.132v-.394l.044-.126V567.25l.045-.088v-.259l.043-.045v-.043l.044-.044.04-.043h.048l.04-.045h.044l.045-.043h.13l.088-.045h.086l.089-.043.04-.043h.089l.086-.042.087-.045.09-.043.04-.043.089-.047.087-.041.043-.044.088-.086.088-.043.044-.043.088-.088.04-.044.087-.086.045-.045.044-.086.088-.045.086-.085.086-.088.044-.088.088-.043.043-.085.045-.045.04-.043.045-.088.045-.043v-.13h-.089l-.041.043h-.045l-.043.044h-.088l-.044.043-.086.043-.045.043-.041.045-.047.043-.041.045-.044.043-.045.042v.043h-.043v.088h-.043zm-3.22-10.317l-.09-.04h-.04l-.088-.048-.045-.04h-.086l-.043-.045-.043-.045h-.044l-.088-.043h-.043l-.045-.045h-.084l-.046-.043h-.04l-.089-.043H448.374l-.088-.043h-.131l-.085-.044-.043-.043-.047-.045-.04-.043h-.044l-.047-.043-.04-.086-.045-.044v-.04l-.043-.048v-.259h.043l.044-.045h.219l.043.045h.175l.041.043h.088l.087.043.086.042h.045l.086.045h.087l.045.043.088.043h.041l.09.047.04.041.088.044.088.043.087.043.088.043.086.043.087.045.088.043h.084l.047.044.087.043.086.043.043.043h.088l.043.045h.044v.043h.041l.047.045h.041v.044h.045v.088l-.045.041-.04.043h-.088l-.045.045h-.26l-.046-.045h-.088l-.04-.043zm.132-3.22h-.131v.04l-.046.048h-.041l-.045.04v.045l-.043.088v.045l-.045.043v.086l.045.044h.175l.086-.044h.086l.047-.043.085-.086.088-.045.04-.088.09-.044.042-.088.087-.041.045-.088.088-.087.04-.041.09-.088.04-.045.046-.043.088-.043.043-.043.089-.044h.04l.089-.045h.086l.045.045h.13l.088.044.128.043.178.043.173.043.13.045.215.04.177.089.174.044.218.043.215.045h.218l.173.043h.437l.173-.043h.218l.176-.045.175-.087.129-.041.087-.088.088-.045.088-.043.085-.043.088-.087.088-.045.086-.043.044-.088.04-.042.048-.043.04-.043.046-.047.045-.041v-.045l.043-.043V550.84l-.043-.043h-.131l-.047.043h-.041l-.087.04h-.043l-.047.045-.041.043-.088.045h-.044l-.041.04-.088.048-.043.043-.088.043-.044.042-.088.043-.086.045-.043.043-.087.045h-.09l-.086.044h-.173l-.086.043h-.697l-.133-.043h-.346l-.13-.044h-.132l-.088-.045h-.085l-.086-.043h-.088l-.045-.045h-.087l-.041-.043h-.09l-.041-.042-.045-.043-.043-.043v-.088l.043-.045v-.043l.045-.085.04-.043.09-.088.042-.088.087-.087.086-.045.047-.086.04-.043.09-.09v-.04l.04-.047h.046V550.1h.043v-.088h-.043v-.044h-.045v-.041h-.171v.04h-.047l-.041.045h-.045l-.087.043-.041.045-.045.043-.045.04-.041.048-.045.04-.087.045-.041.045-.047.043-.086.045-.045.04-.042.089-.086.044-.088.088-.043.043-.087.088-.086.085-.088.129-.086.09-.132.085-.088.088-.086.088-.09.087-.085.086-.088.086-.087.088-.084.044-.088.043-.088.045h-.085l-.088.043zm.041 6.965v-.043l-.04-.047-.048-.085-.04-.043-.047-.086-.04-.088-.046-.089-.088-.088-.043-.086-.087-.085-.086-.086-.088-.047-.086-.086-.132-.087-.086-.041-.087-.045-.133-.045-.129-.041h-.085l-.13-.047h-.133l-.088-.042h-.13l-.088-.045-.129-.041h-.086l-.089-.045-.086-.043h-.129l-.089-.043-.088-.046h-.04l-.089-.042-.087-.044-.088-.043-.043-.045h-.086l-.046-.041-.04-.043-.046-.047v-.126h.045v-.047l.041-.041h.046l.086-.047H447.241l.047.047h.084l.046.041.041.047.045.041.088.044.041.041h.044l.086.047.045.043.088.041h.087l.041.045h.09l.088.043h.085l.043.044h.086l.09.042h.302l.09.046h.216l.044.043h.086l.045.043.043.045h.045l.041.041.044.045.043.042.043.047.045.041v.045l.043.045.045.041.041.044.046.043.041.045.047.041.041.047v.086l.043.042.047.088.041.041.044.088v.045l.043.085v.047l.045.086V559.022l-.045.044-.043.041-.044.047-.04.043h-.131v-.131l.04-.044v-.129zm4.658-1.437v-.043l.043-.047.047-.041v-.044l.04-.043.045-.045.043-.041v-.045l.045-.043.04-.087v-.043l.046-.045v-.088h-.086l-.045.047-.087.04h-.041l-.047.046h-.043l-.041.043h-.047l-.041.044H454.163v-.044h-.043v-.043l-.044-.045v-.041l-.041-.047v-.041l-.047-.044v-.043l-.041-.043h-.045l-.041-.047h-.045l-.044-.041v.04h-.041v.091l-.047.087.047.04v.177l.04.13v.306l-.04.084v.087l-.047.045v.043h-.041l-.045.045v.045l-.043.043v.043h-.044l-.043.043v.044l-.043.04-.045.048v.04l-.043.046v.086l-.045.044v.52l.045.09V559.282l.043.088v.263l.045.043v.173l-.045.088v.087l-.043.086v.088l-.045.13-.041.088-.09.088-.042.128-.086.09-.132.127-.086.087-.131.133-.13.13-.176.129-.128.13-.133.133-.13.129-.174.089-.13.129-.131.132-.173.088-.131.13-.173.086-.133.088-.13.086-.176.086-.13.087-.13.045-.13.045-.13.043-.13.043h-.176l-.13.043h-.174l-.216.044h-.176l-.216.04h-.218l-.22.046h-.217l-.218.043h-.433l-.22.045H446.676l-.13-.045h-.216l-.088-.043-.131-.045-.085-.041-.133-.044-.132-.043-.127-.043-.133-.043-.13-.045-.131-.088-.13-.044-.133-.041-.127-.045-.13-.086-.088-.045-.132-.043h-.088l-.043-.044-.043-.041h-.044l-.088-.045h-.041l-.09-.043h-.173l-.041.043h-.045l-.043.045-.045.04v.088l.045.045v.045l.043.04.045.046.04.04.089.045.085.043.09.045.129.088.13.043.133.087.128.04.13.089.174.09.176.042.13.086.174.045.177.088.173.04.172.046.132.085h.174l.173.045.13.043h1.436l.264-.043h.218l.259-.045h.308l.26-.041.26-.044.217-.045.263-.041.218-.045.215-.088.218-.041.175-.087.176-.09.128-.088.13-.085.087-.086.132-.088.13-.088.088-.085.13-.086.087-.09.089-.087.086-.13.088-.087.087-.09.084-.085.088-.088.088-.085.044-.086.088-.045.04-.088.046-.087.045-.041.04-.043.047-.088.04-.047v-.041l.046-.044.04-.043.046-.043v-.043l.043-.045h.043l.046-.045h.129v.045l.045.045.043.043.043.043.044.087.043.088.045.088.04.084v.046l.048.086.04.043.045.045h.045l.04.04h.134v-.04h.04v-.045l.045-.043V561.199l-.044-.087v-.304l-.041-.131v-.218l-.047-.131v-.263l-.041-.084v-.262l-.045-.086v-.263l-.041-.088v-.218l-.045-.041.045-.086v-.218l.04-.088v-.045l.046-.086.04-.087.048-.133.04-.085.088-.086.043-.133.088-.128.088-.131.085-.132.088-.13zm.872 27.553l.041.088.047.085v.09l.041.086.044.086.043.087.045.086.041.088.045.087.086.088.045.088.087.087.13.086.088.086.13.088.131.044.172.088.174.086.218.043.218.089.174.088.218.084.173.088.176.085.175.088.173.088.131.085.13.088.13.09.132.085.13.086.088.088.087.087.088.045.086.086.041.086.045.043.086.089.046.041V588.404l-.046.043v.132l-.042.045V588.842l.042.041v.045l.046.041h.217l.087-.041h.088l.088-.045H460.213l.045-.041h.347l.045-.047h.042l.045-.043v-.087l-.045-.041-.042-.088-.045-.089-.088-.086-.13-.129-.088-.132-.127-.131-.13-.129-.133-.132-.13-.131-.13-.128-.133-.133-.13-.13-.128-.129-.175-.132-.13-.088-.174-.131-.13-.087-.176-.086-.175-.086-.174-.088-.173-.089-.219-.043-.173-.043h-.174l-.087-.043-.086-.045-.09-.041-.128-.044-.088-.043-.089-.045-.129-.043-.086-.088-.088-.087-.13-.041-.086-.088-.088-.09-.089-.085-.088-.088-.086-.086-.087-.087-.04-.131-.09-.088-.042-.087-.045-.131-.043-.043-.044-.086-.04-.044v-.041l-.048-.047-.04-.043h-.044l-.046.043V584.66l.046.088v.086l.043.087v.088zm11.142 3.264v-.52l-.04-.176v-.175l-.048-.216-.04-.176-.045-.173v-.218l-.088-.172-.043-.22-.045-.172-.043-.175-.043-.175-.044-.174-.04-.173-.048-.13-.043-.13-.043-.089v-.261l.043-.088v-.086l.043-.085.047-.09.085-.086.043-.087.043-.04.088-.09.045-.044.087-.045h.088l.041-.043h.043l.088.043h.044l.041.088.047.043v.088l.041.13.045.133v.171l.043.174.043.175v.218l.044.217v.479l.043.261v.523l-.043.26v.523l-.044.263v.26l-.043.22-.043.258h-.045v.045h-.04v.043h-.048l-.04.045-.045.041-.045.044h-.043l-.043-.044v-.086l-.04-.043v-.09l.04-.085v-.088zm-14.668-3.7h-.043v.044h-.045l-.085.045-.045.043h-.045l-.088.042-.085.045-.086.043-.088.045-.088.086-.085.044-.088.043-.086.043-.089.045-.043.086-.088.045-.043.042-.087.043-.045.043h-.041l-.045.045h-.086l-.045-.045h-.043l-.042-.043-.09-.043h-.041l-.043-.042-.045-.045-.085-.043-.045-.043h-.088l-.045-.045-.085-.043h-.043l-.088-.043h-.347l-.088-.044h-.13l-.088-.041h-.261l-.086-.045h-.13l-.088-.045h-.131l-.085-.043h-.176l-.043-.045h-.175l-.043-.042h-.043l-.046-.043-.041-.045v-.043h-.043v-.131l.043-.042v-.043h.087l.043-.045h.043l.088.045h.087l.084.043h.135l.085.042h.131l.173.043.131.045h.175l.131.043.173.043h.176l.173.045h.174l.173.043h.522l.131-.043h.175l.131-.045h.13l.131-.043.131-.043.13-.045.088-.043.086-.042.13-.043.088-.045.087-.043h.088l.084-.043h.047l.085-.045h.174l.045.045v.086l-.045.045v.043h-.043v.042h-.043l-.045.043h-.043v.045H451.989v.043h-.088zm10.709-4.134v.131l-.043.13-.045.131-.043.13-.046.131-.041.13-.088.174-.045.132-.041.131-.044.129-.043.173-.043.132-.045.131-.043.129-.045.132-.043.131v.522l.043.088v.173l.045.086v.045l.043.085v.088l.045.088.043.043v.087l.043.043.044.088v.045l.04.085.046.045.043.043.045.086.04.045.047.041.043.085.045.047.043.043v.045h.04l.048.043h.04l.045.043.043-.043h.045v-.043l.043-.045v-.131l.045-.085v-1.394l.043-.175V582.616l.04-.131v-.132l.045-.088v-.129l.043-.087v-.088l.045-.086v-.087l.04-.043v-.086l.048-.045v-.045l.043-.041v-.045l.043-.042v-.045h.044l.04-.043h.048l.04.043v.045l.046.042v.131l.045.088V582.832l-.045.131v.348l-.045.174v.306l-.041.173v.306l-.047.172v.132l-.041.174v.218l-.044.13v.219l-.043.085v.129l-.043.088V586.01l.043.045.043.043v.043l.044.045.088.042.04.043.09.088.043.043.043.088.088.085.043.043.086.09.045.086.042.087.045.088.043.086.043.087v.088l.045.086.04.086V587.622l-.04.043-.045.043-.043.044h-.043l-.045-.044-.087-.043-.086-.043-.088-.043-.086-.088-.132-.089-.088-.129-.128-.131-.131-.132-.132-.129-.084-.173-.133-.175-.128-.174-.131-.173-.088-.176-.132-.216-.088-.177-.128-.217-.088-.216-.131-.218-.085-.174-.09-.175-.13-.175-.086-.172-.043-.132-.088-.174-.087-.13-.045-.131-.041-.088-.045-.13-.043-.131v-.391l.043-.086.045-.088.04-.132.046-.084.042-.131.086-.13.09-.131.043-.175.087-.131.086-.173.047-.174.086-.175.085-.131.045-.173.088-.133.043-.128.043-.131.085-.13.045-.088v-.088l.043-.043v-.044l.045-.088.04-.043.047-.086.043-.044v-.043h.045l.043-.043.04-.045v.045h.048v.259l-.047.088v.087l-.041.088zm11.62 3.7l-.13.042-.13.045-.09.043h-.085l-.13.042h-.13l-.088.045h-.131l-.043.045H473.055l-.043.041h-.088l-.085.047h-.047l-.04.041h-.044l-.088.043-.043.042-.087.045-.088.045h-.088l-.085.041-.088.047-.086.041-.087.044-.088.043-.088.043-.087.045-.086.043h-.088l-.088.045h-1.391l-.132-.045h-.086l-.13-.043h-.088l-.088-.045-.086-.043-.088-.043-.042-.044-.043-.088-.088-.04-.043-.046-.043-.045-.045-.085-.042-.04-.045-.048-.043-.04-.045-.046-.045-.045-.04-.042-.044-.043-.087-.045-.043-.043-.045-.04-.088-.048-.042-.04-.086-.045-.045-.045h-.086l-.088-.088-.087-.043-.13-.086-.088-.132-.13-.086-.132-.13-.085-.13-.133-.13-.128-.132-.13-.13-.132-.13-.13-.132-.13-.13-.088-.129-.13-.132-.087-.088-.087-.088-.088-.084-.088-.087-.043-.045-.042-.045-.045-.086-.045-.087-.04-.088-.046-.086v-.087l-.043-.086v-.086l-.043-.09v-.301h.043v-.047h.043l.045.046v.041l.086.045.045.086.042.043.088.087.043.09.088.086.043.086.087.087.088.086.043.088.084.087.09.086.087.09.086.087.087.084.131.133.088.087.087.088.131.086.086.086.13.087.086.131.132.086.086.087.133.088.13.088.086.13.131.086.087.088.131.087.087.086.13.131.087.087.087.086.088.088.088.09.086.087.087.084.043.088.043.087.088.086v.088l.043.043.044.042.043.045.043.045h.045l.043.041h.218l.043-.04h.13l.086-.046h.088l.13-.045.086-.042.133-.043h.13l.176-.04.13-.048.174-.04.173-.046.174-.045.175-.042.175-.043.217-.045.173-.043.175-.04.172-.048.175-.04.176-.045.13-.045.174-.043.128-.045h.09l.13-.043.084-.043h.047l.086-.043h.087l.088-.044h.261l.043.044h.045l.043.043h.045l.042.043v.131l-.042.045-.045.044-.088.041-.043.047h-.13l-.088.041zm-39.83-15.496c0 14.884 12.101 26.987 26.99 26.987 14.932 0 26.986-12.103 26.986-26.987 0-14.93-12.054-26.987-26.987-26.987-14.888 0-26.989 12.056-26.989 26.987" fill-rule="evenodd"/></g></svg>