<svg version="1.1" viewBox="0 0 80 80" xmlns="http://www.w3.org/2000/svg"><path d="m40 0a40 40 0 0 0-40 40 40 40 0 0 0 40 40 40 40 0 0 0 40-40 40 40 0 0 0-40-40zm-2.8398 9.6035 9.6465 7.0098-1.6543 2.2793-9.6484-7.0098 1.6562-2.2793zm12.609 1.4727 5.9609 10.328-2.4375 1.4082-5.9629-10.328 2.4395-1.4082zm-24.727 2.3105 11.664 2.4805-0.58594 2.7539-11.664-2.4785 0.58594-2.7559zm35.645 4.1641 1.248 11.859-2.8027 0.29492-1.2461-11.859 2.8008-0.29492zm-22.34 1.4297 6.7871 4.9316-1.1641 1.6016-6.7871-4.9316 1.1641-1.6016zm-11.172 0.3125 0.58594 2.7539-11.666 2.4805-0.58398-2.7559 11.664-2.4785zm19.863 0.83203 4.1953 7.2656-1.7148 0.99023-4.1953-7.2656 1.7148-0.99023zm-17.098 1.3438 8.2051 1.7441-0.41211 1.9395-8.2051-1.7441 0.41211-1.9395zm24.574 3.2383 0.87695 8.3438-1.9707 0.20703-0.87695-8.3438 1.9707-0.20703zm-23.037 0.71094 0.41211 1.9395-8.2051 1.7441-0.41211-1.9395 8.2051-1.7441zm7.9043 0.089843 3.9746 2.8887-0.88281 1.2148-3.9766-2.8867 0.88476-1.2168zm-19.521 0.79102 1.6562 2.2793-9.6484 7.0078-1.6543-2.2773 9.6465-7.0098zm25.469 0.21094 2.457 4.2559-1.3027 0.75-2.457-4.2539 1.3027-0.75195zm-11.789 0.50195 4.8066 1.0215-0.3125 1.4707-4.8066-1.0215 0.3125-1.4707zm31.811 0.023437 2.6797 0.87109-3.6855 11.342-2.6777-0.87109 3.6836-11.342zm-31.729 2.7051 0.3125 1.4707-4.8066 1.0215-0.3125-1.4707 4.8066-1.0215zm16.734 0.10352 0.51367 4.8867-1.4961 0.1582-0.51367-4.8887 1.4961-0.15625zm-10.74 0.13086 2.5938 1.8848-0.75977 1.0469-2.5938-1.8848 0.75977-1.0469zm-13.332 0.16992 1.1641 1.6035-6.7871 4.9316-1.1641-1.6035 6.7871-4.9316zm17.443 0.54102 1.6035 2.7773-1.1211 0.64648-1.6035-2.7754 1.1211-0.64844zm-8.1543 0.31055 3.1348 0.66797-0.26953 1.2656-3.1348-0.66797 0.26953-1.2656zm22.021 0.32422 1.8848 0.61328-2.5918 7.9785-1.8848-0.61328 2.5918-7.9785zm-22.166 1.5879 0.26953 1.2656-3.1367 0.66797-0.26758-1.2656 3.1348-0.66797zm11.766 0.099609 0.33398 3.1895-1.2871 0.13476-0.33398-3.1895 1.2871-0.13477zm-17.193 0.21289 0.88281 1.2168-3.9746 2.8887-0.88476-1.2168 3.9766-2.8887zm9.6719 0.091797 1.6484 1.1973-0.46094 0.63476-1.6484-1.1973 0.46094-0.63477zm2.75 0.44531 1.0176 1.7656-0.67969 0.39062-1.0176-1.7637 0.67969-0.39258zm-5.4414 0.26563 1.9922 0.42187-0.16211 0.76758-1.9922-0.42383 0.16211-0.76562zm15.18 0.44531 1.4297 0.46484-1.5176 4.6738-1.4297-0.46484 1.5176-4.6738zm-7.4102 0.81445 0.21289 2.0254-0.7793 0.082031-0.21289-2.0254 0.7793-0.082031zm-7.9473 0.060547 0.16406 0.76758-1.9941 0.42188-0.16211-0.76562 1.9922-0.42383zm-3.8633 0.037109 0.75977 1.0469-2.5938 1.8848-0.75977-1.0469 2.5938-1.8848zm-16.912 0.29297 2.4395 1.4082-5.9629 10.328-2.4395-1.4082 5.9629-10.328zm32.156 0.46484 1.2305 0.40039-0.99024 3.0488-1.2305-0.40039 0.99024-3.0488zm-24.723 0.4375 1.7148 0.99023-4.1934 7.2656-1.7168-0.99219 4.1953-7.2637zm11.725 0.46875 0.46094 0.63477-1.6484 1.1973-0.46094-0.63476 1.6484-1.1973zm10.326 0.33594 0.74609 0.24219-0.62891 1.9395-0.74609-0.24414 0.62891-1.9375zm-17.404 0.49219 1.3008 0.75195-2.457 4.2559-1.3008-0.75195 2.457-4.2559zm40.324 0.5957 2.0938 1.8848-7.9805 8.8613-2.0938-1.8848 7.9805-8.8613zm-36.762 0.18164 1.1211 0.64844-1.6035 2.7754-1.1191-0.64648 1.6016-2.7773zm27.934 0.57812 1.4727 1.3242-5.6133 6.2363-1.4727-1.3262 5.6133-6.2344zm-25.203 0.029296 0.67773 0.39258-1.0176 1.7637-0.67969-0.39062 1.0195-1.7656zm14.646 0.54492 0.96094 0.86524-2.1445 2.3828-0.96094-0.86523 2.1445-2.3828zm-2.9473 0.048828 0.58398 0.52344-1.3633 1.5156-0.58398-0.52539 1.3633-1.5137zm7.2578 0.042969 1.1191 1.0059-3.2891 3.6523-1.1172-1.0059 3.2871-3.6523zm-18.775 1.7051 0.7793 0.082032-0.21289 2.0254-0.7793-0.082031 0.21289-2.0254zm-2.7402 0.55469 1.2871 0.13672-0.33594 3.1875-1.2852-0.13477 0.33398-3.1895zm13.791 0.19141 0.32031 0.7168-1.8613 0.82812-0.32031-0.7168 1.8613-0.82812zm-17.363 0.54883 1.4961 0.15625-0.51367 4.8867-1.4961-0.15625 0.51367-4.8867zm8.1777 0.52734 0.62891 1.9375-0.74609 0.24219-0.62891-1.9375 0.74609-0.24219zm11.898 0.078125 0.52539 1.1816-2.9297 1.3047-0.52539-1.1816 2.9297-1.3047zm-24.848 0.097656 1.9707 0.20703-0.87695 8.3438-1.9707-0.20703 0.87695-8.3438zm18.656 0.83789h2.0371v0.7832h-2.0371v-0.7832zm-4.0098 0.13476 1.3633 1.5137-0.58203 0.52539-1.3633-1.5137 0.58203-0.52539zm-3.4902 0.31641 0.99023 3.0488-1.2305 0.40039-0.99024-3.0508 1.2305-0.39844zm5.5098 0.042969 1.8613 0.82812-0.31836 0.7168-1.8613-0.83008 0.31836-0.71484zm12.082 0.4082 0.61133 1.373-4.4883 2-0.61133-1.375 4.4883-1.998zm-35.906 0.46094 2.8027 0.29297-1.248 11.859-2.8008-0.29297 1.2461-11.859zm26.654 0.79297h3.2051v1.2949h-3.2051v-1.2949zm-5.8906 0.044922 2.1445 2.3828-0.96094 0.86524-2.1445-2.3809 0.96094-0.86719zm-5.2129 0.3125 1.5195 4.6738-1.4316 0.46484-1.5176-4.6738 1.4297-0.46484zm8.1621 0.29102 2.9297 1.3047-0.52734 1.1816-2.9277-1.3047 0.52539-1.1816zm18.17 0.029297 0.80469 1.8086-7.6641 3.4121-0.80469-1.8086 7.6641-3.4121zm-29.951 2.1172 2.5918 7.9785-1.8828 0.61133-2.5938-7.9785 1.8848-0.61133zm7.1465 0.25976 3.2891 3.6523-1.1172 1.0059-3.2891-3.6523 1.1172-1.0059zm8.6836 0.21094h4.9141v1.5039h-4.9141v-1.5039zm22.494 0.30859 1.1465 2.5723-10.895 4.8496-1.1445-2.5723 10.893-4.8496zm-26.857 0.50976 4.4883 1.998-0.61133 1.373-4.4883-1.998 0.61133-1.373zm-6.6348 2.668 5.6133 6.2344-1.4727 1.3262-5.6133-6.2344 1.4727-1.3262zm-9.6797 0.70508 3.6836 11.342-2.6777 0.86914-3.6855-11.34 2.6797-0.87109zm21.877 0.003906h8.3887v1.9824h-8.3887v-1.9824zm-6.1738 0.94141 7.6641 3.4121-0.80664 1.8105-7.6641-3.4121 0.80664-1.8105zm-8.5566 4.582 7.9785 8.8613-2.0918 1.8848-7.9805-8.8613 2.0938-1.8848zm17.666 0.5293h11.926v2.8164h-11.926v-2.8164zm-8.8887 1.6133 10.895 4.8496-1.1465 2.5723-10.895-4.8496 1.1465-2.5723z"/></svg>
