<svg xmlns="http://www.w3.org/2000/svg" width="64" height="64"><path d="M23.68 39.883l.497.9-.098-.101.4.399h-.102l.802 1.002-.102-.098 1.002.798.4.298-.102-.102 1.104.705-.102-.102 1.699.802-.098-.101 1.996.403 1.597-.106h-.093l2.399-.501h-.102l1.402-.497h-.106l1.401-1.202-1.499.7-2.102.404v.098-.2l1.703-1.103h-.098l1.202-1.198h-.102l.7-1.3c1.754-3.632-1.092-8.215-5.202-7.6l-1.1.801v-.097l-.399.598v-.101l-.098.599.098.598.501.807-.102-.106.501.305h.498l.802-.505h-.098l.298-.5.101-.404h-.101v-.497l-.2-.094.497.298c1.597 1.178 1.366 3.217-.297 4.203l-1.398.098h.102l-.806-.098.101.098-1.397-.602-.802-.603-.595-.897-.302-.9v.098-1.5.103l.697-1.703.7-.798.705-.6v.102l.994-.602.803-.298 1.401-.305 1.296-.094.403-.102.599-.102h-.098l.497-.3h-.102l.2-.298-.297-.298-.404-.203.106.101-.301-.2.896.099.603.297.2.501-.098.505-.404.4h.102l-.603.097h.102-.497l.298.2 1.197.399 2.102 1.401 1.3 1.104.7 1.096.6 1.104-.999-.603.098.098-1.1-.6h.102l.799 1.602c1.174 2.43 1.213 3.926 0 6.302l-1.398 1.597h.098l-1.401 1.103h.101l-2.4 1.194h.099l-1.899.501h.102l-1.3.298.6.704.497 1.5-.098 1.502-.501 2-1.296 1.797h.098l-.302.204.9-1.503h-.101l.297-1.5-.195-1.499-.998-1.507-1.202-.994-1.601-.802-1.797-.7h.098l-2.298-.999h.098l-1.597-1.002-2-1.495-.302-1.108v.106-.998.098l.302-1.104c.266-2.697 1.205-2.235-.102-4.999l-.599-.403h.098l.102.204.301.802v1.401h.098l-.4.9h.099l-.298.298h.098l-.599.2.098.105-.395-.305-.4-.599-.203-.599v.098-.798.098l.203-1.1v.105l.697-1.307v.102l.9-1.3.799-1.1h-.098l.599-.896h-.098l.098-.9-.098-.904h.098l-.4.7h.099l-.897 1.503h.098l-.9.999-.897 1.1.995-2.6.5-.704h-.097l.802-1.296h-.105l.606-1.405c1.073-2.724.29-5.527-3.002-5.593h-.501l1.401-.2c8.205.826 2.455 10.185 2.795 13.895v1.3-.094l.505 1.8m-1.906 4.498l-.094-.102m9.895-12.2l.102-.098M26.08 42.783v-.101m-10.502-4.9v.101m8.4 8.799h.2m-8.095-11.198l-.505 2.399.102.098-.497-.799-.2-.896.098-.9-.501 1.096v1.1l.102 1.002.4.9 1.001 1.3 1.198 1.201h.102l2.2 2v-.106l2.697 1.703 2.9 1.198h.098-.697.098l-.599-.098-1.898-.501h-.102l-2.2-.799-1.8-.3h-.196.098l-1.5.402-1.902 1.096h.102l-1.3-1.695.803-.602-.102.101 2-1.1-1.3-1.005c-1.831-1.754-2.332-3.007-2.203-5.496l.399-1.1v.102l1.002-1.804 1.597-1.997h-.094l.6-.9c3.741-8.004-3.195-5.57-1.504-2.505v.102h-.098c-5.14-3.8 5.206-9.332 5.1-2.098l-.602 2.2h.098l-1.394 2.998h.094l-.196.102-1.499 3.702m2.995 3.993h-.196m.798 3.006l-.097.098-.204-.2.204.102v.098h.097l-.3-.6v.103l-.095-1.104.196-1.1-.196-1.096-.102.4-.203.293-.6.102-.696-.396-.403-.7v.097l-.2-1.702v-.998l-.297.399-.102.497.102 1.503v-.094l.098.094.2.7-.102.498-.298.203-.2-.101.102.101-.301-.297.098.599.301.5 1.096.6-.094-.102.094.102 1.002.598.6.701-.095-.102m21.392-18.197l-.2-.101-1.001-1.096 1.698.798-.094-.098 2.099.595 1.193.102h-.094l.897-.2.9-.297.603-.705.297-.704v-.094h-.101.101l.098.2v.297-.098.7l-.098.6-.7 1.002-.9.602.7.294.9.603.6.798.5.9-2.102-.7h-1.096l-1.499.4-.802.7v-.102l-.102.403v-.098h.203-.101l.301.4-.102-.102 1.1 1.397 1.5 2.403h2.102l1.902.501.896.498.701.704.2.998v.9l-.6-.7-.9-.7-1.002-.4-1.3-.098-1.4.098-1.496.297h.098l-.501.102-.896-2.497-.705-1.303-.795-.999-.9-.798-1.8-1.1.798-.301h-.098l1.1-.7v.097l1.198-.799-.803-.2-.798.2h.102l-1.3.298h.102l-1.805.403c-7.926-1.057-15.254 4.548-10.295 11.1l.799.701h-.098c-6.016-1.965-3.68-8.674.595-11.903l1.507-1.597-.106.098 1.3-1.902v.102l1.601-1.402 1.202-.399h1.499-.098v.102l-.904.4-.799.598-.798 1.202-.306 1.499h.204l1.401-.998 1.3-.501 1.3-.098h4.2-.102l-.098-.204-.301-.2m.399 3.402l-.2.098m-7.797-1.6l-.2.1m10.596-1.8h-.2m-11.598 18.4h-.2.103-1.7l-1.702-.496-1.5-.9-1.4-1.202-.999-1.002-.599-1.1h-.101.101l.497 1.503c3.77 7.82 16.613 3.245 12.202-5.002l-.106-.102v.2-.098l.407 1.702-.102 1.902-.403 1.198-.795 1.1-1.002.9h.098l-.497.298-.7.2-.6.101v.102l-.7-.403v.102l-.2-.306.102-.395.294-.4v.099l.301-.098.998.2-.297-.701-.497-.403h-.102l-.302-.102-.696.305-.701.4-.4.7-.101.493.102.509v.098l.696.5.501.2M43.48 22.18l1.096.404h1.1l1.3-.2-1.5-.102c-1.785-.653-1.86-1.55-.5-2.7h.101-.102 1.1l1.202.5.998.701 1.703 1.8.297-.696.497-.501.603-.302.501-.097-1.104-1.703-.7.297h-.795l.102.102-.9-.301v.102l-1.202-.9-1.8-.8h-1.199l-1.1.502-.704.697-.395.7-.102.7v.604l.403.5 1.198.795m10.498 5.3l-.102-.098c-1.021-1.593-3.59-3.12-2.297-5.503l.497-.4 1.3 3.003.904 3.201s-.404-.3-.302-.203m-3.202 2.403h-.297l-2.098.098-1.104.497v-.094h-.098 1.397l1.304.196 1.8.7 1.496 1.1 1.3 1.402v.098-2.999l-1.198-.599-1.3-.3-1.397-.099m-5.602 14.901l-.9-.305.7-1.6.098-1.602-.098-1.698 1.5.101 1.499.403 1.303.799 1.198 1.1.998 1.796 1.3-2.195h-.098l-.799-1.3-1.1-1.202-1.205-.896-1.695-.704-1.805-.501-3.996-.298v.196-.196.094c1.538 3.276-.43 7.582-3.5 9.202l-1.401.799h.102l-2.6.704 1.3.799.998 1.197.6 1.304.105 1.1-.106 1.1-.297.998 3.1-.904h-.102l.302-1.394-.2-1.401-.4-.803-.7-.798-.9-.7 1.699-.196 1.499-.701 1.6-1.104h-.101l1.503 1.006h-.106l1.304.196c3.985.325 6.827-4.423 2.2-6.2l-.9-.196.802.493.297.9-.097.803-.501.7-.701.603-.803.302s-.998.098-.896.2m-24.097 6.896l-.2-.7.102-.799.2-.705.599-.497.896-.599 1.006-.403v.102l.595-.297v.101l.799-.403h.101l.501-.196-2.4-.3h.103l-1.3-.208-2.904-.396H17.08l-.798.2-.705.403-.297.301v-.105l.9.9-.098-.102.799-.297.802-.102 1.5.4.896.402h.098l-2.099 1.5s3.003 1.902 2.901 1.8m5.7.102l-1.1-.7-.4-.498v-.603l.4-.505.602-.395.196-.102-.094.102 1.096-.102c1.785 1.288 1.276 2.165.501 3.903l-1.303 1.096 3.104.505h-.102l.599-.9.301-1.003c.388-1.933-.344-3.338-1.902-4.5l-.994-.4-1.006-.102-.999.305-.798.497-.501.6-.2.802v.7l.501.693.6.305 1.103.2h-.102s.396 0 .497.102m15.497.497l.701-.4-.497-.399-.599-.203s.395.9.395 1.002m-7.5-37.102v.102l-.097-.102.2.2m3.698-3.895l-1.3-.2-1.2.2-.796.403-.602.595-.302.704v.799l.4 1.296.3-.799.404-.7v.105l.595-.403h.505l.595.501.297.798v.701l-.395.9-.7.701h.101l-1.401.896h.102l-2.102.603-.2.102h.102l-2.102.595-.998.505-.9.696-.604.905v-1.202l-.297-1.002-.395-.9v.101l-.505-.9v.098l-.098-.098-.403-.603-.498-1.503-.2-1.49v.097l.2-2 .9-1.5-.997.999-.705 1.3-.497 1.804v1.894l-1.198-.497c-3.32-.614-7.37 1.253-7.5 4.998v.102-.102l.897-.9 1.1-.7 1.103-.4 1.398-.203 1.303.203 1.296.4 1.198.7c1.75 1.8 2.172 3.68 1.605 6.098v.106l-.501 1.593v-.102l-.102.803.102.904 1.698-3.002-.101.098.101-.098 1.398-2.302 1.6-1.698 1.9-1.3v.102l2.9-1.5v.095l1.202-.697 1.193-.2.603.2v.098l.302.7h.101l-.203.102v.102h.102l-.4.395h.098l-.9.603 2.004-1.202h-.102l.6-.598h-.102l.101-.4-.2-.297-.798-.302-.7-.2 1.597-1.404h-.098l.599-.897.301-1.197.098-.905-.4-.9-.598-.794-.9-.505v-.098l.101.2m5.198.798l2.196 1.6-.998-.097-.9-.403-.595-.599-.301-.7s.696.3.598.199M28.08 17.083l.297-1.3.603-1.2 1.1-1.5.896-1.5.2-.997-.098-1.202-2.896.2.293 1.002v.998l-.697 1.894h.102l-.203.106-.298.798v-.101l-.098.904.302.9.692 1.1m-2.896-6.803h.102l-1.801 1.1h.098l-2 .301 3.6-1.303m-14.796 24.6l-.5-1.197-.6-.998.2 2.7.599 2.501.799 2.596.2-1.899-.099-1.906m-1.699-6.795l.697-.301.6-.497.3-.705.2-.795-.098-.704-.301-.693-.599-.505-.599 2.9v-.101l.4.5v.2l-.302.501h.102l-.298.2v.102m3.7-10.701l.097-.2.298-.2h-.098l.9-1.002.501-.998v.102l1.601-1.6v.997h.098l-.599 1.597v.106l-.599 1.198-.904.998-1.397 1.201h.101L11.28 22.88v.106l2.004-3.703M23.48 38.086v-.105M63 32C63 14.876 49.12 1 32.002 1 14.877 1 1 14.876 1 32c0 17.117 13.877 31 31.002 31C49.12 63 63 49.117 63 32" fill-rule="evenodd"/></svg>