<svg xmlns="http://www.w3.org/2000/svg" width="80" height="80"><defs><clipPath id="a"><path d="M369.65 684.094h53.977v53.977H369.65v-53.977z"/></clipPath></defs><g clip-path="url(#a)" transform="matrix(1.25 0 0 -1.25 -435.884 936.527)"><path d="M395.055 693.312l1.097-.07-.07-2.351c.414-.011.828-.011 1.245 0l-.07 2.352a18.471 18.471 0 0 0-1.105 0l-1.097.069c-.364.036-.73.078-1.095.135l-1.082.2c-.359.082-.717.174-1.068.267l-1.046.338c-.349.124-.69.253-1.028.399l-1.004.458c-.329.166-.65.337-.973.524l-.933.575c-.306.205-.609.416-.899.638l-.86.69a21.8 21.8 0 0 0-.815.744l-.764.789a18.26 18.26 0 0 0-.713.839l-.666.873c-.214.3-.414.61-.609.922l-.55.953c-.174.324-.336.653-.494.986l-.426 1.015c-.13.34-.258.69-.365 1.037l-.302 1.06a14.13 14.13 0 0 0-.233 1.075l-.175 1.09a16.85 16.85 0 0 0-.096 1.095l-.038 1.102c0 .368.014.733.038 1.1l.096 1.099c.046.362.106.726.175 1.086l.233 1.075c.09.355.191.71.302 1.064l.365 1.037c.13.344.275.677.428 1.013l.491.986c.173.322.358.639.551.952l.61.92c.212.302.427.59.665.88l.713.835c.25.268.506.535.768.788l.811.744c.282.238.566.467.86.686l.9.64c.306.2.617.398.934.58l.971.524c.331.16.662.318 1.004.46l1.026.397c.344.12.693.234 1.05.33l1.066.268c.358.082.722.153 1.084.204l1.091.138c.37.033.733.055 1.1.066h1.103c.364-.011.731-.033 1.102-.066l1.086-.138c.366-.051.726-.122 1.084-.204l1.072-.267a17.9 17.9 0 0 0 1.05-.331l1.02-.397c.342-.142.676-.3 1.007-.46l.968-.524c.32-.182.631-.38.935-.58l.9-.64c.297-.22.577-.448.86-.686l.812-.744c.262-.253.522-.52.768-.788l.711-.835c.238-.29.458-.578.671-.88l.604-.92c.193-.313.378-.63.55-.952l.492-.986c.153-.336.3-.67.431-1.013l.364-1.037c.111-.354.213-.71.3-1.064l.237-1.075c.071-.36.127-.724.17-1.086l.101-1.098c.025-.368.036-.733.036-1.101l-.036-1.102a16.2 16.2 0 0 0-.102-1.095l-.169-1.09a16.405 16.405 0 0 0-.237-1.075l-.298-1.06a21.252 21.252 0 0 0-.366-1.037l-.43-1.015a13.133 13.133 0 0 0-.494-.986l-.549-.953a17.837 17.837 0 0 0-.606-.922l-.669-.873a15.54 15.54 0 0 0-.71-.84l-.769-.788a16.445 16.445 0 0 0-.815-.744l-.858-.69a21.243 21.243 0 0 0-.899-.638l-.935-.575a18.134 18.134 0 0 0-.968-.524l-1.007-.458a15.742 15.742 0 0 0-1.024-.4l-1.046-.337c-.355-.093-.71-.185-1.075-.267l-1.08-.2a19.274 19.274 0 0 0-1.087-.135l.213-2.345c.413.04.831.088 1.235.155l-.362 2.325 1.081.2.507-2.296c.408.084.808.19 1.21.302l-.642 2.26 1.046.339.784-2.222c.39.138.778.289 1.16.45l-.92 2.17 1.007.459 1.046-2.106c.371.185.735.378 1.1.59l-1.178 2.04.935.575 1.301-1.961c.345.227.687.473 1.018.722l-1.42 1.877.858.69 1.53-1.788c.315.27.624.55.922.842l-1.637 1.69.768.789 1.74-1.586c.28.307.548.624.806.948l-1.835 1.477.67.873 1.922-1.36c.24.343.467.692.69 1.043l-2.007 1.239.55.953 2.077-1.113c.198.367.378.738.556 1.115l-2.14.984.43 1.015 2.194-.851c.153.385.29.782.413 1.175l-2.24.713.297 1.06 2.285-.576c.102.405.193.81.27 1.22l-2.318.43.17 1.09 2.338-.29c.051.413.09.829.113 1.244l-2.35.142.036 1.102h2.352c0 .415-.01.83-.038 1.246l-2.35-.145-.102 1.098 2.34.286a30.34 30.34 0 0 1-.192 1.233l-2.317-.433-.237 1.075 2.285.575c-.102.402-.218.804-.342 1.2l-2.24-.711h-.003l-.364 1.037 2.194.846c-.149.386-.313.775-.484 1.15l-2.14-.983-.494.986 2.078 1.112c-.202.365-.408.727-.62 1.082l-2.007-1.242-.604.92 1.921 1.359c-.242.338-.493.67-.757.995l-1.835-1.474-.71.835 1.738 1.585a18.81 18.81 0 0 1-.87.896l-1.637-1.693-.813.744 1.53 1.786c-.315.27-.637.535-.97.782l-1.42-1.882-.899.64 1.304 1.963c-.35.232-.704.449-1.062.656l-1.177-2.04-.968.525 1.05 2.103c-.375.187-.753.362-1.137.524l-.92-2.167-1.02.397.783 2.219a23.47 23.47 0 0 1-1.19.378l-.643-2.266-1.072.267.506 2.3c-.409.094-.817.17-1.228.232l-.362-2.328-1.086.138.213 2.343c-.413.04-.829.062-1.246.076l-.069-2.353h-1.104l-.069 2.353a19.834 19.834 0 0 1-1.246-.076l.216-2.343-1.09-.138-.363 2.328a17.089 17.089 0 0 1-1.228-.231l.506-2.301-1.066-.267-.646 2.266c-.402-.116-.8-.24-1.186-.378l.782-2.22-1.026-.396-.92 2.167a20.666 20.666 0 0 1-1.135-.524l1.051-2.103-.97-.524-1.176 2.039c-.36-.207-.71-.424-1.06-.656l1.3-1.963-.899-.64-1.415 1.882a19.35 19.35 0 0 1-.973-.782l1.528-1.786-.81-.744-1.642 1.693a22.882 22.882 0 0 1-.866-.896l1.74-1.585-.714-.835-1.832 1.474a16.87 16.87 0 0 1-.753-.995l1.92-1.36-.61-.92-1.999 1.243a20.208 20.208 0 0 1-.626-1.082l2.074-1.112-.49-.986-2.137.983c-.173-.375-.34-.764-.484-1.15l2.192-.846-.365-1.037-2.243.712a21.262 21.262 0 0 1-.342-1.201l2.283-.575-.233-1.075-2.319.433c-.077-.411-.137-.82-.19-1.233l2.334-.286-.096-1.098-2.352.145c-.027-.416-.04-.831-.04-1.246h2.354l.038-1.102-2.352-.142c.022-.415.062-.831.113-1.244l2.335.29.175-1.09-2.319-.43c.078-.41.17-.815.27-1.22l2.282.576.302-1.06-2.243-.713c.127-.393.265-.79.416-1.175l2.192.85.426-1.014-2.134-.984c.171-.377.355-.748.553-1.115l2.074 1.113.551-.953-2-1.24c.217-.35.45-.7.69-1.041l1.92 1.359.665-.873-1.835-1.477c.258-.324.527-.641.811-.948l1.737 1.586.764-.79-1.637-1.69c.298-.29.61-.57.924-.841l1.528 1.788.86-.69-1.415-1.877c.328-.25.666-.495 1.013-.722l1.301 1.96.933-.574-1.175-2.04c.364-.212.726-.405 1.102-.59l1.046 2.106 1.004-.458-.92-2.17c.384-.162.77-.313 1.164-.451l.784 2.222 1.046-.338-.644-2.261c.402-.111.802-.218 1.206-.302l.506 2.296 1.082-.2-.36-2.325a18.65 18.65 0 0 1 1.237-.155l.218 2.345m27.96 17.798c-.002-14.528-11.78-26.306-26.308-26.306-14.532 0-26.308 11.778-26.308 26.306 0 14.53 11.776 26.31 26.308 26.31 14.528 0 26.306-11.78 26.306-26.31h.002zm0 0c-.002-14.528-11.78-26.306-26.308-26.306-14.532 0-26.308 11.778-26.308 26.306 0 14.53 11.776 26.31 26.308 26.31 14.528 0 26.306-11.78 26.306-26.31h.002z" fill="#fff" fill-rule="evenodd"/></g><path d="M38.544 79.98c-7.122-.277-13.843-2.345-19.817-6.097A40.17 40.17 0 0 1 6.692 62.157a40.469 40.469 0 0 1-3.813-7.227A40.185 40.185 0 0 1 .892 31.57C2.905 22.18 8.28 13.798 16.007 7.993a39.978 39.978 0 0 1 11.111-5.872A40.234 40.234 0 0 1 47.283.66 39.816 39.816 0 0 1 64.39 8.294a41.14 41.14 0 0 1 5.659 5.303 39.948 39.948 0 0 1 9.335 19.379c.741 4.184.814 8.534.215 12.724a39.795 39.795 0 0 1-6.003 16.023 40.234 40.234 0 0 1-11.358 11.532 39.724 39.724 0 0 1-19.137 6.63c-1.286.1-3.34.143-4.557.096zm2.388-9.804c-.019-.444-.09-2.91-.09-3.106v-.19H39.162v.075c0 .142-.079 2.675-.095 3.072l-.017.4h1.891l-.01-.251zm-3.733.054c.026-.162.32-3.432.31-3.443a4.849 4.849 0 0 0-.403-.054c-.216-.024-.579-.07-.807-.1a4.224 4.224 0 0 0-.425-.046c-.013.014-.55 3.472-.54 3.483.014.015.714.114 1.271.18l.56.065c.011.002.026-.037.034-.085zm6.403-.008c.64-.074 1.022-.131 1.047-.156.02-.02-.507-3.433-.534-3.466-.011-.012-.201.003-.422.034-.221.03-.579.075-.795.1a5.23 5.23 0 0 0-.402.053c-.01.01.291 3.445.308 3.495.006.02.049.027.113.02l.685-.08zm-9.74-2.191c.204-.923.372-1.697.373-1.719 0-.03-.188-.088-.789-.237-.434-.108-.798-.187-.809-.176-.01.011-.228.757-.483 1.658l-.477 1.681c-.01.035.074.066.468.17.78.203 1.236.312 1.292.306.047-.004.092-.18.425-1.683zm13.544 1.49c.964-.243.906-.225.906-.278 0-.056-.923-3.317-.947-3.344-.01-.011-.376.07-.814.18-.777.194-.797.201-.788.264.005.035.173.804.372 1.708.2.905.363 1.65.363 1.658 0 .033.155.001.908-.188zm-16.94-2.458c.316-.897.578-1.646.583-1.665.005-.022-.207-.115-.588-.26-.328-.125-.672-.26-.765-.302a.708.708 0 0 0-.18-.064c-.019.02-1.37 3.216-1.37 3.241 0 .014.126.077.278.14.404.17 1.38.538 1.428.54.03 0 .196-.441.615-1.63zm20.138 1.47c.45-.169 1.227-.48 1.246-.5.013-.012-1.338-3.211-1.37-3.244-.01-.011-.14.03-.289.092a28.7 28.7 0 0 1-.756.297c-.268.101-.487.194-.487.206 0 .012.26.761.58 1.666.351.997.592 1.644.613 1.644.019 0 .227-.072.463-.16zm-23.378-2.877l.781-1.577-.257-.135a66.032 66.032 0 0 1-.714-.386 6.612 6.612 0 0 0-.483-.25c-.03 0-1.74 2.96-1.746 3.021-.002.026.096.1.254.192.282.165 1.326.71 1.362.71.013.001.374-.708.803-1.575zm26.71 1.403c.35-.176 1.22-.653 1.26-.691.012-.012-.376-.71-.862-1.552l-.883-1.53-.276.156c-.151.086-.476.262-.72.391-.246.13-.45.24-.456.244-.012.012 1.56 3.155 1.578 3.155.008 0 .169-.078.359-.173zm-29.787-3.137l.974-1.471c.01-.017-.103-.112-.272-.228-.16-.109-.465-.325-.678-.48a4.747 4.747 0 0 0-.396-.272c-.127.154-2.1 2.792-2.1 2.809 0 .042 1.434 1.081 1.496 1.084.01 0 .45-.648.976-1.442zm33.036 1.201c.577-.391 1.128-.808 1.125-.849-.003-.035-1.949-2.636-2.065-2.76-.042-.045-.058-.038-.287.132-.134.099-.436.313-.67.476-.236.164-.425.307-.42.318.004.01.44.673.969 1.472.615.929.973 1.447.996 1.439.02-.007.177-.11.352-.228zm-35.833-3.357l1.143-1.34-.092-.081-.52-.475a30.29 30.29 0 0 0-.526-.476l-.099-.084-.5.518-1.232 1.271-.73.753.216.201c.428.398 1.182 1.07 1.19 1.06l1.15-1.347zm38.923.93c.2-.177.487-.44.636-.583l.27-.26-.158-.172c-.087-.094-.64-.667-1.228-1.274l-1.07-1.103-.298.282c-.164.155-.435.4-.603.547-.169.145-.304.28-.3.299.002.019.515.63 1.14 1.36 1.122 1.31 1.135 1.325 1.19 1.277l.421-.372zm-41.547-3.302c.662-.603 1.245-1.138 1.295-1.187l.09-.09-.415-.484a24.019 24.019 0 0 1-.524-.625.797.797 0 0 0-.125-.142 141.02 141.02 0 0 0-2.75 2.213c-.013.039 1.16 1.413 1.207 1.413.01 0 .56-.494 1.222-1.098zm44.124.713c.186-.213.456-.53.6-.706l.262-.32-.441-.357c-1.437-1.16-2.296-1.845-2.315-1.845-.013 0-.175.182-.362.406-.187.223-.42.497-.519.609-.098.111-.175.215-.171.23.01.032 2.564 2.368 2.59 2.368.01 0 .17-.173.356-.385zM17.516 55.92c.28-.198.508-.37.508-.382 0-.013-.138-.228-.306-.479-.168-.25-.37-.556-.447-.68-.095-.15-.152-.218-.175-.204a835.18 835.18 0 0 0-2.967 1.839c-.015.014.356.596.72 1.132l.305.447.927-.657 1.435-1.016zm47.773 1.018c.499-.753.6-.912.586-.925a218.839 218.839 0 0 0-3.014-1.85c-.004.004-.096.148-.204.32-.107.17-.31.48-.451.687-.19.28-.247.382-.22.398.02.012.669.47 1.443 1.02.774.549 1.416.994 1.426.989.01-.005.205-.293.434-.639zM14.87 53.495c.774-.414 1.412-.756 1.417-.76.018-.014-.73-1.486-.753-1.48-.046.011-3.155 1.447-3.173 1.464-.018.018.528 1.158.72 1.501l.103.184.14-.078c.076-.043.772-.417 1.546-.831zm52.362.093c.223-.447.406-.828.406-.847 0-.023-2.972-1.419-3.191-1.498-.009-.004-.083.136-.164.31-.081.175-.243.5-.359.724-.116.223-.214.417-.218.43-.005.016 3.065 1.687 3.114 1.694.003 0 .19-.365.412-.813zm-53.98-3.223c.89-.345 1.628-.635 1.64-.645.011-.01-.057-.23-.153-.49-.095-.26-.218-.61-.274-.778-.083-.252-.11-.303-.146-.29-.024.01-.775.25-1.668.534-.894.283-1.633.52-1.643.527-.021.012.247.814.463 1.387.076.2.138.368.138.373 0 .018.06-.005 1.643-.618zm55.252.322c.143-.378.487-1.395.487-1.438 0-.024-3.23-1.073-3.339-1.084-.013-.001-.076.152-.14.341-.063.19-.185.534-.27.767-.085.232-.146.43-.136.44.018.018 3.232 1.274 3.266 1.277.01 0 .07-.136.132-.303zm-56.3-3.692c.93-.234 1.696-.429 1.701-.432a3.258 3.258 0 0 0-.077-.366c-.047-.197-.126-.56-.176-.807-.049-.246-.1-.447-.112-.445-.093.015-3.462.641-3.466.644a41.074 41.074 0 0 0 .382 1.755c.01.04.026.075.037.075.01 0 .78-.19 1.711-.424zm57.406.065c.212-.885.328-1.482.288-1.482-.012 0-.773-.14-1.693-.312a85.992 85.992 0 0 0-1.723-.31c-.044 0-.059.038-.099.25-.026.137-.103.497-.172.798-.068.302-.12.552-.113.557.018.014 3.336.852 3.383.855.034.002.063-.078.13-.356zm-58.129-3.526c.897-.111 1.673-.21 1.726-.218l.096-.015-.032-.29a22.56 22.56 0 0 1-.064-.709 18.93 18.93 0 0 0-.045-.537l-.015-.118-.235.018c-.129.01-.92.059-1.76.11-.838.05-1.528.094-1.532.1-.013.015.035.646.097 1.26.047.465.069.602.098.602.02 0 .77-.091 1.667-.203zm58.74.129c.023-.114.119-1.117.14-1.473l.019-.316-.146-.016c-.274-.03-3.358-.206-3.379-.193-.011.007-.029.157-.039.332-.01.175-.042.537-.072.804-.03.267-.049.49-.043.496.011.01 3.336.433 3.445.438.044.001.063-.018.075-.072zm-57.114-4.21c.01-.3.025-.676.035-.832l.016-.285-1.688-.102c-.929-.056-1.726-.102-1.773-.101l-.083.001-.018.277c-.01.153-.025.573-.035.934l-.018.657h3.546l.018-.548zm57.322-.074c-.014-.835-.038-1.26-.07-1.255-.016.002-.811.05-1.769.108l-1.741.105.016.474c.009.26.023.635.032.832l.016.36 1.763-.008 1.764-.007-.01-.609zm-57.077-3.045c.025-.179.082-.536.128-.794a4.25 4.25 0 0 0 .07-.481c-.015-.015-3.465-.661-3.476-.651-.03.03-.299 1.82-.276 1.843.022.022 3.474.44 3.492.424.01-.01.038-.162.062-.341zm55.164.134a82.058 82.058 0 0 0 1.687-.213c.015-.015-.254-1.816-.276-1.848-.006-.01-3.461.64-3.474.653-.007.007.02.193.058.413.056.323.18 1.156.18 1.212 0 .007.033.007.074 0 .041-.007.829-.105 1.751-.217zM14.001 33.12c.042-.168.142-.524.221-.791.08-.268.142-.49.138-.493-.01-.01-3.334-1.065-3.355-1.065-.01 0-.06.137-.112.305-.103.33-.423 1.49-.414 1.498.018.014 3.344.846 3.39.848.047.002.065-.04.132-.302zm53.82-.115c.915-.231 1.668-.42 1.674-.42.026 0 .003-.11-.112-.534-.123-.452-.362-1.258-.378-1.275-.01-.01-3.347 1.046-3.364 1.063-.005.005.057.233.138.506.08.274.18.628.222.788.054.208.087.291.116.291.023 0 .79-.189 1.704-.42zm-52.76-3.086c.071-.179.212-.513.314-.743.101-.23.18-.422.176-.426-.043-.043-3.197-1.468-3.213-1.451-.03.033-.367.809-.555 1.28-.146.366-.162.422-.124.44.181.087 3.242 1.253 3.256 1.24.01-.008.076-.162.147-.34zm51.67-.272a64.885 64.885 0 0 0 1.622-.638c.015-.013-.006-.102-.051-.22a39.049 39.049 0 0 0-.636-1.49c-.01-.012-.694.288-1.52.666-1.732.796-1.702.781-1.702.803 0 .01.084.205.186.435s.245.567.318.75c.073.182.144.326.16.32l1.623-.626zm-1.76-3.058c2.075-1.11 1.862-.986 1.821-1.051-.02-.032-.217-.375-.437-.762-.22-.388-.416-.727-.437-.755-.034-.047-.13.007-1.518.867l-1.507.934c-.015.01.074.186.204.406.31.523.434.74.52.91l.071.143.168-.092 1.116-.6zm-48.475.332c.1-.182.285-.5.409-.708.124-.207.223-.379.219-.382-.036-.028-2.95-1.83-2.978-1.841-.023-.01-.12.129-.282.4-.286.478-.651 1.128-.664 1.179-.008.033 3.009 1.68 3.081 1.683.017 0 .114-.149.215-.331zm1.764-2.761c.108-.153.328-.447.49-.654l.295-.376-.152-.126c-.084-.069-.705-.569-1.38-1.11-1.209-.972-1.228-.985-1.272-.93-.297.38-.69.894-.867 1.139l-.22.304.17.122c1.122.803 2.692 1.907 2.713 1.907.015 0 .115-.124.223-.276zm45.152-.729l1.435-1.014c.016-.012-1.107-1.495-1.134-1.497-.012-.001-2.674 2.126-2.743 2.19-.012.013.097.173.244.357s.37.477.497.652c.126.174.24.317.253.318.012 0 .664-.452 1.448-1.006zm-42.717-2.157l.574-.592-1.214-1.255a63.898 63.898 0 0 0-1.24-1.263c-.032-.01-1.31 1.293-1.3 1.325.009.025 2.57 2.372 2.593 2.375.007.001.272-.265.587-.59zm40.492-.588a87.504 87.504 0 0 0 1.302-1.198c.01-.03-1.266-1.33-1.302-1.328-.017.002-.577.569-1.245 1.26l-1.213 1.256.575.595c.317.327.578.595.582.595.004 0 .59-.53 1.301-1.18zm-38.43-1.333c.302-.246.628-.505.866-.688l.167-.13-1.058-1.406c-.582-.774-1.068-1.407-1.08-1.407-.067 0-1.443 1.127-1.431 1.173.008.032 2.243 2.665 2.266 2.669.005 0 .127-.094.27-.21zm35.933-1.166a60.517 60.517 0 0 0 1.099-1.302c0-.053-1.399-1.171-1.445-1.155-.03.01-2.13 2.782-2.127 2.807.001.007.138.117.303.243.166.127.454.356.64.509.323.267.34.276.384.23.026-.027.542-.626 1.146-1.332zm-33.217-.823c.168-.109.476-.3.684-.425l.386-.23c.008-.005-1.722-3.018-1.753-3.053-.027-.03-1.539.884-1.585.958-.016.026 1.91 2.948 1.943 2.948.01 0 .157-.089.325-.198zm30.366-1.267c.8-1.2.97-1.471.94-1.498-.052-.048-.73-.475-1.172-.738-.332-.198-.382-.22-.41-.183-.065.09-1.749 3.02-1.739 3.028l.443.27c.239.144.543.334.677.422.134.088.253.161.264.162.01.001.46-.657.997-1.463zm-27.411-.38c.225-.107.555-.259.733-.337.179-.079.329-.155.334-.17.007-.02-1.332-3.214-1.36-3.245-.01-.01-.835.362-1.32.595l-.397.191.79 1.58c.434.869.794 1.58.8 1.58.006 0 .195-.087.42-.194zm24.353-1.381c.697-1.395.782-1.579.743-1.607-.14-.103-1.644-.777-1.669-.748-.012.014-1.31 3.063-1.368 3.214-.006.016.126.088.294.16.168.073.506.227.752.344.246.116.45.212.453.212.004 0 .361-.709.795-1.575zm-21.223.127c.245-.082.58-.187.744-.233.163-.046.306-.092.317-.102.019-.018-.916-3.351-.951-3.392-.022-.027-1.618.467-1.753.543-.038.021 1.12 3.333 1.167 3.333.017 0 .231-.067.476-.15zm17.978-1.51c.401-1.138.575-1.663.553-1.675-.09-.05-1.75-.575-1.763-.558-.013.018-.94 3.319-.943 3.36-.004.04.075.073.428.18.238.074.573.181.745.24.17.06.33.109.353.11.031.001.187-.409.627-1.656zm-14.87.684c.212-.045.57-.112.794-.149.225-.037.411-.07.414-.074.002-.004-.118-.79-.268-1.749l-.271-1.742-.163.018c-.189.021-1.041.179-1.43.264-.243.053-.265.063-.252.115.007.03.16.72.338 1.531.419 1.906.41 1.868.434 1.868.011 0 .193-.037.405-.082zm11.462-1.617c.205-.934.372-1.712.372-1.73-.002-.036-.028-.043-.543-.147-.707-.144-1.299-.238-1.3-.207 0 .003-.12.786-.269 1.738a96.777 96.777 0 0 0-.262 1.738c.004.004.226.045.493.09.267.046.613.112.77.147.156.036.303.065.326.067.033.002.115-.332.413-1.696zm-7.594 1.126l.63-.034v-.069c0-.038-.02-.833-.046-1.767l-.047-1.699h-.185c-.358 0-1.663.09-1.69.117-.008.008.265 3.036.304 3.372l.017.145.194-.015c.106-.009.477-.031.823-.05zm3.96.024c0-.018.072-.807.159-1.752.087-.946.154-1.723.15-1.728-.015-.016-.932-.083-1.405-.102l-.475-.019v.187c-.001.102-.019.753-.04 1.445-.021.692-.042 1.405-.045 1.584l-.006.324.607.033c.334.018.65.037.702.043.224.024.351.019.353-.015z"/></svg>