<svg version="1.1" viewBox="0 0 80 80" xmlns="http://www.w3.org/2000/svg"><path d="m40 0c-22.091 0-40 17.909-40 40s17.909 40 40 40 40-17.909 40-40-17.909-40-40-40zm8.9883 6.2559c1.1479 0.039221 2.2978 0.40888 3.2969 1.1348 2.6643 1.9357 3.2541 5.6658 1.3184 8.3301-1.9357 2.6643-5.6639 3.2521-8.3281 1.3164s-3.2559-5.662-1.3203-8.3262c1.2098-1.6651 3.1201-2.5204 5.0332-2.4551zm-18.217 0.14258c3.2932 0 5.9629 2.6697 5.9629 5.9629 0 3.2932-2.6697 5.9609-5.9629 5.9609s-5.9629-2.6678-5.9629-5.9609c0-3.2932 2.6697-5.9629 5.9629-5.9629zm32.59 10.32c2.5418-0.032045 4.9173 1.5763 5.7441 4.1211 1.0177 3.132-0.69611 6.496-3.8281 7.5137-3.132 1.0177-6.4941-0.69611-7.5117-3.8281-1.0177-3.132 0.69425-6.496 3.8262-7.5137 0.58724-0.1908 1.183-0.28557 1.7695-0.29297zm-47.283 0.38477c1.9131-0.065385 3.8234 0.78992 5.0332 2.4551 1.9357 2.6643 1.3439 6.3924-1.3203 8.3281-2.6643 1.9357-6.3925 1.3458-8.3281-1.3184-1.9357-2.6643-1.3439-6.3924 1.3203-8.3281 0.9991-0.72588 2.1471-1.0975 3.2949-1.1367zm53.133 16.697c0.58646 0.00736 1.1823 0.10216 1.7695 0.29297 3.1319 1.0176 4.8458 4.3817 3.8281 7.5137-1.0177 3.132-4.3817 4.8458-7.5137 3.8281s-4.8438-4.3817-3.8262-7.5137c0.82684-2.5448 3.2009-4.153 5.7422-4.1211zm-58.275 0.4707c0.58657 0.007397 1.1823 0.10216 1.7695 0.29297 3.132 1.0177 4.8438 4.3817 3.8262 7.5137-1.0177 3.132-4.3798 4.8457-7.5117 3.8281-3.132-1.0177-4.8458-4.3817-3.8281-7.5137 0.82684-2.5448 3.2023-4.1531 5.7441-4.1211zm52.568 16.705c1.9127-0.065842 3.8215 0.78997 5.0312 2.4551 1.9356 2.6642 1.3459 6.3924-1.3184 8.3281-2.6643 1.9357-6.3944 1.3459-8.3301-1.3184-1.9357-2.6643-1.3439-6.3924 1.3203-8.3281 0.9991-0.72588 2.1492-1.0972 3.2969-1.1367zm-47.012 0.37695c2.5413-0.031901 4.9153 1.5783 5.7422 4.123 1.0177 3.132-0.69425 6.4941-3.8262 7.5117-3.132 1.0177-6.496-0.6961-7.5137-3.8281-1.0177-3.132 0.69611-6.496 3.8281-7.5137 0.58725-0.19081 1.1831-0.28561 1.7695-0.29297zm32.736 10.324c3.2932 0 5.9629 2.6678 5.9629 5.9609s-2.6697 5.9629-5.9629 5.9629c-3.2932 2e-6 -5.9629-2.6697-5.9629-5.9629s2.6697-5.9609 5.9629-5.9609zm-17.801 0.14844c1.1476 0.039515 2.2958 0.41083 3.2949 1.1367 2.6643 1.9357 3.2579 5.662 1.3223 8.3262-1.9357 2.6643-5.6658 3.256-8.3301 1.3203s-3.2541-5.6658-1.3184-8.3301c1.2098-1.6652 3.1185-2.519 5.0312-2.4531z" fill="#de127a"/></svg>
