<svg xmlns="http://www.w3.org/2000/svg" width="80" height="80"><path d="M38.543 79.973a40.026 40.026 0 0 1-23.6-8.798 40.792 40.792 0 0 1-5.335-5.172 40.225 40.225 0 0 1-6.34-10.167 40.001 40.001 0 0 1 5.554-40.893 40.792 40.792 0 0 1 5.172-5.336 40.227 40.227 0 0 1 10.168-6.339 40.005 40.005 0 0 1 40.895 5.553 40.792 40.792 0 0 1 5.335 5.172 40.225 40.225 0 0 1 6.34 10.168 40.001 40.001 0 0 1-5.554 40.893 40.792 40.792 0 0 1-5.172 5.335c-7.594 6.51-17.475 9.957-27.463 9.584zm2.695-8.715a3.047 3.047 0 0 0-.091-.415 17.29 17.29 0 0 1-.47-2.687c-.066-.66-.066-2.256 0-2.915.203-2.03.678-3.786 1.503-5.562a16.447 16.447 0 0 1 4.652-5.887c3.866-3.056 8.775-4.223 13.585-3.231 2.523.52 4.96 1.66 6.932 3.243l.349.28.215-.444c.254-.524.62-1.354.62-1.401 0-.019-.172-.162-.382-.318a18.541 18.541 0 0 0-8.683-3.525c-.897-.116-1.367-.145-2.407-.145-1.01 0-1.483.027-2.313.132a18.494 18.494 0 0 0-11.618 6.229c-3.47 4.01-5.05 9.371-4.318 14.654.081.588.314 1.763.388 1.956l.025.068 1-.01c.55-.005 1.006-.015 1.013-.022zm5.145-.644a38.729 38.729 0 0 0 1.497-.356 7.018 7.018 0 0 0-.126-.394 9.879 9.879 0 0 1 1.781-9.525c.335-.4.97-1.023 1.362-1.338a12.641 12.641 0 0 1 1.42-.95c1.586-.882 3.53-1.324 5.306-1.208 1.403.091 2.59.404 3.81 1.004.916.45 1.621.937 2.415 1.666l.241.221.207-.261c.202-.256.714-.938.894-1.191l.09-.128-.078-.082c-.412-.436-1.487-1.236-2.242-1.668-1.403-.802-3.012-1.315-4.709-1.5-.585-.065-1.792-.066-2.36-.002-2.449.272-4.578 1.178-6.465 2.748-.147.123-.466.422-.71.665a10.774 10.774 0 0 0-1.53 1.876c-1.044 1.601-1.65 3.298-1.882 5.277-.066.564-.066 1.897 0 2.46.09.77.228 1.46.42 2.098.137.458.214.67.242.67.012 0 .2-.037.417-.082zm-18.085-2.117c2.166-2.904 3.402-6.27 3.655-9.952.047-.686.018-2.323-.054-2.984-.174-1.613-.517-3.097-1.036-4.492-1.481-3.974-4.196-7.26-7.777-9.41a17.914 17.914 0 0 0-3.717-1.702 18.451 18.451 0 0 0-9.946-.477 4.45 4.45 0 0 0-.415.107c-.027.027-.005 1.97.023 1.997.017.017.135-.002.342-.056a16.535 16.535 0 0 1 7.723-.15 16.438 16.438 0 0 1 6.055 2.687 16.416 16.416 0 0 1 6.685 10.975c.129.889.147 1.18.148 2.353.001 1.176-.017 1.46-.149 2.38a16.604 16.604 0 0 1-3.436 7.946c-.138.173-.251.322-.251.331 0 .02.77.384 1.297.613a29.646 29.646 0 0 1 .542.24c.003 0 .143-.182.31-.406zm25.629-.54a31.7 31.7 0 0 0 4.94-3.115c.424-.327 1.109-.887 1.109-.908 0-.038-.291-.3-.535-.483a4.55 4.55 0 0 0-1.108-.576 4.333 4.333 0 0 0-1.714-.177 4.035 4.035 0 0 0-3.476 3.212 5.064 5.064 0 0 0-.04 1.247c.052.42.231 1.052.298 1.052.014 0 .251-.114.526-.253zm-31.425-2.792c1.17-1.335 2.085-3.105 2.521-4.876.227-.922.321-1.643.342-2.617a11.262 11.262 0 0 0-.38-3.276 11.943 11.943 0 0 0-2.338-4.526c-3.047-3.672-8.082-5.145-12.658-3.703-.358.113-.394.13-.394.186 0 .135.385 1.816.426 1.861.01.011.202-.04.428-.114a9.875 9.875 0 0 1 7.73.647c.834.441 1.55.964 2.243 1.64a9.807 9.807 0 0 1 2.906 5.843c.097.756.08 1.844-.041 2.647-.303 2.003-1.22 3.9-2.565 5.301a2.43 2.43 0 0 0-.24.27c.29.237.959.745 1.333 1.014l.255.183.118-.128c.065-.07.206-.23.314-.352zm-5.99-5.047c.484-.547.803-1.18.962-1.91.071-.326.071-1.225 0-1.55a4.114 4.114 0 0 0-1.102-2.044 4.052 4.052 0 0 0-2.085-1.103c-.182-.037-.362-.048-.748-.048-.542 0-.738.028-1.176.165-.347.109-.338.055-.09.55a30.817 30.817 0 0 0 3.709 5.712c.181.222.34.404.352.404.013 0 .093-.079.179-.176zm51.032-18.57a18.83 18.83 0 0 0 3.055-.457l.34-.081v-.985c0-.542-.006-1.002-.014-1.023-.011-.03-.085-.018-.394.066-.727.197-1.66.364-2.613.468-.623.068-2.515.067-3.142 0-2.846-.31-5.264-1.168-7.562-2.684a16.404 16.404 0 0 1-7.212-11.735 14.789 14.789 0 0 1-.1-2.232c.02-1.073.099-1.845.29-2.835a16.493 16.493 0 0 1 3.03-6.812c.153-.202.339-.44.412-.528l.135-.16-.126-.065c-.533-.274-1.709-.786-1.749-.761-.054.033-.594.78-.917 1.267-1.624 2.449-2.675 5.379-2.967 8.276a20.616 20.616 0 0 0-.067 3.093c.24 3.536 1.417 6.797 3.477 9.635 3.203 4.414 8.192 7.166 13.69 7.552.452.031 1.985.033 2.434.002zm-.106-6.619c.846-.08 1.743-.263 2.552-.52.192-.062.357-.12.367-.129.026-.024-.313-1.573-.408-1.866l-.027-.084-.3.106c-.66.233-1.335.393-2.078.494-.515.069-1.863.07-2.388 0-1.75-.23-3.355-.87-4.707-1.88-2.162-1.614-3.542-3.995-3.887-6.708-.06-.467-.068-1.773-.014-2.206.154-1.247.457-2.285.97-3.33.421-.859.93-1.6 1.623-2.357l.275-.301-.208-.166a41.888 41.888 0 0 0-1.247-.93l-.13-.088-.093.09c-.158.15-.59.66-.836.987a11.885 11.885 0 0 0-1.797 10.82 12.086 12.086 0 0 0 1.79 3.412c.334.444.588.737.993 1.152a11.213 11.213 0 0 0 3.16 2.301 11.898 11.898 0 0 0 4.316 1.216c.43.04 1.601.032 2.074-.013zM24.21 32.002c2.716-.145 5.13-.786 7.488-1.988a18.302 18.302 0 0 0 6.985-6.207A18.544 18.544 0 0 0 41.4 9.85c-.051-.25-.105-.467-.12-.482-.052-.053-2.029-.079-2.029-.026 0 .005.036.151.08.325.489 1.955.597 4.269.292 6.293a16.308 16.308 0 0 1-1.552 4.947c-.843 1.695-1.754 2.961-3.097 4.307-.828.829-1.471 1.364-2.381 1.983a16.369 16.369 0 0 1-6.483 2.615 16.551 16.551 0 0 1-13.58-3.792c-.043-.038-.071.01-.405.692-.197.403-.395.82-.44.926l-.081.192.232.184a18.474 18.474 0 0 0 10.234 3.963 16.33 16.33 0 0 0 2.14.026zm42.805-4.905c.239-.042.614-.145.777-.213l.1-.042-.068-.154a37.05 37.05 0 0 0-.954-1.799 31.834 31.834 0 0 0-2.157-3.275c-.291-.386-1.04-1.316-1.077-1.34-.046-.028-.403.357-.59.636-.202.3-.374.65-.487.99-.161.485-.189.669-.189 1.265 0 .596.028.781.187 1.261a4.023 4.023 0 0 0 2.266 2.428c.295.121.776.246 1.081.28.292.032.815.014 1.111-.037zm-42.618-1.725a11.789 11.789 0 0 0 7.178-3.303 11.288 11.288 0 0 0 2.354-3.22c.59-1.18.968-2.438 1.156-3.84.054-.403.061-.564.061-1.443 0-1.048-.029-1.405-.176-2.18-.102-.534-.366-1.527-.422-1.585-.02-.022-1.076.18-1.657.317-.214.05-.297.08-.288.104.175.456.406 1.378.483 1.926.138.98.128 2.095-.026 3.022a9.843 9.843 0 0 1-3.561 6.103 9.904 9.904 0 0 1-5.209 2.122c-.41.043-1.486.043-1.885 0-2.275-.243-4.329-1.184-5.886-2.696-.29-.282-.313-.299-.348-.251-.02.027-.182.23-.359.448-.486.6-.814 1.037-.814 1.083 0 .032.596.565.936.837a11.949 11.949 0 0 0 6.692 2.582c.409.027 1.343.013 1.771-.026zm-.278-7.86a3.896 3.896 0 0 0 2.045-1.11c.355-.355.58-.665.775-1.073a4.05 4.05 0 0 0 .209-2.96c-.037-.116-.083-.217-.104-.225-.049-.018-1.45.676-2.125 1.053a32.108 32.108 0 0 0-3.958 2.617c-.61.476-.577.443-.525.523.055.084.418.397.639.55.48.335 1.149.588 1.785.676.279.038.965.01 1.259-.052z"/></svg>