<svg version="1.1" viewBox="0 0 80 80" xmlns="http://www.w3.org/2000/svg"><path d="m40 0.4966c-3.3069 0-6.5161 0.41326-9.586 1.1786l0.29516 0.077155s-0.02868 1.9678 0.58454 2.8875c0.82853 1.2427 2.3078-0.32779 3.6423 2.469 1.8913 3.9638-1.9763 3.936-1.3389 7.0307 0.39036 1.8951 3.4093 1.3798 3.8506 3.2637 0.40886 1.7454-1.7441 3.5007-1.4662 5.2716 0.25537 1.627 2.6133 2.2761 3.0982 3.85 0.61794 2.006-0.58646 6.6121-0.58646 6.6121s-0.69033-0.1391-1.3446-1.4794c-0.2997-0.61396 0.40307-2.6028-1.1671-3.96-1.359-1.1746-3.2297-1.6529-3.6828-3.391-0.40582-1.5568 1.6773-2.753 0.96265-4.2666-0.64331-1.3627-3.9611-1.7762-4.9811-3.7247-0.72457-1.3842 1.3661-2.9754-0.33374-4.8549-1.2145-1.3429-3.0718-1.418-4.1863-2.8451-0.51054-0.65379-0.34272-1.6776-0.83726-2.3435-0.33852-0.45589-1.021-0.88496-1.4719-1.1515-6.8866 3.6688-12.558 9.3119-16.257 16.18l1.1788-0.71175s1.3936 1.3891 2.4809 1.5894c1.4691 0.2706 1.3709-1.8826 4.3078-0.89307 4.1625 1.4025 1.4493 4.1589 4.1149 5.8561 1.6322 1.0392 3.3638-1.4868 5.0235-0.49186 1.5377 0.9218 1.3015 3.6883 2.7664 4.7218 1.3459 0.94952 3.4518-0.28882 4.9194 0.45907 1.8704 0.95319 4.3387 5.0227 4.3387 5.0227s-0.58082 0.39805-1.9986-0.06558c-0.64943-0.21237-1.5882-2.1012-3.6558-1.9193-1.7895 0.1575-3.4333 1.1685-4.9965 0.28354-1.4002-0.79265-0.80983-3.1219-2.3941-3.6629-1.4262-0.48702-4.0335 1.6064-6.1425 0.98179-1.4982-0.44369-1.1846-3.0515-3.7175-3.1402-1.8097-0.06333-3.1575 1.2161-4.9579 1.0223-0.82482-0.08878-1.4424-0.92126-2.2649-1.03-0.78242-0.10347-2.3081 0.3751-2.342 0.38577-0.88395 3.2826-1.364 6.7306-1.364 10.293 0 3.7737 0.54152 7.4186 1.5298 10.875l0.11189-0.4147s1.9671 0.04262 2.8918-0.56323c1.2494-0.81858-0.30934-2.3084 2.4983-3.6205 3.9793-1.8597 3.9201 2.0076 7.0202 1.3946 1.8983-0.37534 1.4074-3.3986 3.295-3.8249 1.7489-0.39501 3.4875 1.7704 5.2608 1.5065 1.6292-0.24249 2.2978-2.5946 3.8757-3.0669 0.50278-0.1505 1.1672-0.1859 1.8809-0.15431 2.1413 0.09478 4.7265 0.79277 4.7265 0.79277s-0.14558 0.68925-1.4913 1.3328c-0.61639 0.2948-2.5985-0.42311-3.9683 1.1361-1.1855 1.3494-1.6785 3.216-3.4204 3.6552-1.5602 0.39346-2.742-1.6998-4.2616-0.99726-1.3678 0.63244-1.8071 3.947-3.7637 4.9514-1.39 0.71352-2.9644-1.3896-4.8577 0.29512-1.3527 1.2038-1.4423 3.0595-2.8783 4.1625-0.65789 0.50529-1.6797 0.32866-2.3497 0.81784-0.33503 0.24463-0.69654 0.73368-0.98002 1.165 3.6448 6.4307 9.0336 11.742 15.534 15.279l-0.38776-0.68475s1.4281-1.3532 1.6591-2.4342c0.3121-1.4605-1.8441-1.423-0.77166-4.3303 1.5199-4.1206 4.1985-1.3304 5.9707-3.9465 1.0852-1.602-1.3908-3.4057-0.34918-5.0363 0.96508-1.5108 3.725-1.1962 4.7998-2.631 0.98736-1.3182-0.1912-3.4576 0.59804-4.9031 1.0059-1.8423 5.1451-4.1952 5.1451-4.1952s0.3821 0.59249-0.12154 1.9964c-0.2307 0.64306-2.1471 1.5277-2.0237 3.5992 0.10681 1.793 1.0717 3.4662 0.14276 5.0035-0.83208 1.377-3.1452 0.71956-3.731 2.2876-0.52726 1.4115 1.4925 4.0764 0.80832 6.1665-0.48597 1.4848-3.0846 1.0973-3.2449 3.6263-0.11454 1.807 1.1283 3.1903 0.88355 4.9842-0.11211 0.82186-0.96376 1.4147-1.0958 2.2336-0.07518 0.46632 0.03592 1.1145 0.15241 1.6453 3.3214 0.90618 6.8126 1.4004 10.422 1.4004 3.6178 0 7.1176-0.4956 10.446-1.4061-0.01494-0.62277-0.09674-1.8135-0.52666-2.4844-0.80584-1.2575-2.3125 0.28595-3.5959-2.5345-1.8191-3.9975 2.0474-3.898 1.4662-7.0037-0.35591-1.9018-3.3838-1.4434-3.7908-3.3351-0.37712-1.7526 1.8065-3.4689 1.5607-5.2445-0.2258-1.6314-2.5707-2.3235-3.0269-3.906-0.58144-2.0169 0.70607-6.5986 0.70607-6.5986s0.68776 0.15253 1.3176 1.5045c0.28852 0.61929-0.45149 2.5938 1.0938 3.9793 1.3374 1.1991 3.1996 1.7106 3.621 3.4565 0.3775 1.5639-1.7268 2.7229-1.0398 4.2493 0.61848 1.374 3.9272 1.8487 4.9117 3.8153 0.69933 1.397-1.4186 2.9487 0.24693 4.8588 1.19 1.3647 3.0459 1.4733 4.1341 2.9203 0.49859 0.66294 0.31245 1.6842 0.79482 2.359 0.13163 0.18416 0.3439 0.37737 0.57681 0.56516 6.4391-3.513 11.784-8.7695 15.419-15.13-0.48205-0.40799-1.116-0.86507-1.6899-0.99143-1.4588-0.32122-1.4359 1.835-4.3367 0.74455-4.1115-1.5455-1.3032-4.2066-3.9084-5.9949-1.5954-1.095-3.4147 1.37-5.039 0.31826-1.5049-0.9744-1.1722-3.7329-2.6005-4.8164-1.3122-0.99548-3.4612 0.17129-4.902-0.62688-1.8363-1.0173-4.1612-5.1713-4.1612-5.1713-1e-6 0 0.14883-0.09498 0.47265-0.12537 0.32381-0.0304 0.82165 0.0042 1.5221 0.2604 0.6417 0.23469 1.5137 2.155 3.5863 2.0446 1.7938-0.09555 3.4726-1.0484 5.0042-0.10995 1.372 0.84059 0.70216 3.1465 2.2667 3.742 1.4084 0.53603 4.0853-1.4648 6.1713-0.76769 1.4819 0.49521 1.0792 3.0894 3.6075 3.2655 1.8065 0.12586 3.1962-1.1066 4.9888-0.85063 0.82126 0.11724 1.41 0.97198 2.2282 1.1091 0.06919 0.01159 0.167-0.0015 0.24693 2e-3 1.1257-3.6687 1.7362-7.5628 1.7362-11.6 0-3.3359-0.41742-6.5732-1.196-9.6675-0.65783 0.03095-1.5973 0.13222-2.178 0.49958-1.2623 0.79849 0.27209 2.3129-2.5561 3.58-4.0085 1.7958-3.8875-2.0698-6.9971-1.5065-1.9041 0.34493-1.4626 3.3749-3.3567 3.771-1.7549 0.367-3.4583-1.8249-5.2358-1.5894-1.6329 0.21641-2.3386 2.5562-3.924 3.0032-2.0205 0.56976-6.5977-0.74261-6.5977-0.74261s0.15667-0.68771 1.5124-1.3097c0.62102-0.28491 2.5931 0.46659 3.9876-1.0705 1.2069-1.3304 1.7277-3.1899 3.4763-3.6012 1.5662-0.36847 2.7156 1.7429 4.2461 1.0647 1.3778-0.61048 1.8704-3.9166 3.8429-4.8897 1.4013-0.6912 2.9416 1.4363 4.8615-0.21796 1.3718-1.1819 1.4904-3.0363 2.9439-4.1162 0.66589-0.4947 1.6856-0.30278 2.3632-0.7812 0.14686-0.10368 0.3028-0.26702 0.45528-0.44172-3.409-6.637-8.6347-12.183-15.03-15.977-0.43201 0.47927-1.1229 1.3276-1.2713 2.0697-0.293 1.4645 1.8638 1.3996 0.82954 4.3207-1.466 4.14-4.1808 1.3846-5.9187 4.0236-1.0642 1.616 1.435 3.3864 0.41477 5.0305-0.94527 1.5232-3.7091 1.244-4.765 2.6927-0.97006 1.331 0.23784 3.4551-0.53245 4.9109-0.98173 1.8554-5.0911 4.2628-5.0911 4.2628s-0.38879-0.58796 0.09646-1.9983c0.22228-0.64603 2.1259-1.5546 1.9755-3.6243-0.13023-1.7914-1.1171-3.4523-0.20835-5.0016 0.81403-1.3877 3.135-0.76219 3.7001-2.3378 0.50877-1.4184-1.5441-4.0542-0.88742-6.1531 0.46653-1.491 3.0694-1.1398 3.1966-3.6706 0.090922-1.8083-1.1685-3.1737-0.94722-4.9707 0.10136-0.82325 0.9436-1.4285 1.0649-2.249 0.042127-0.28496-3.76e-4 -0.6683-0.061733-1.0473-3.7037-1.1489-7.6401-1.7688-11.721-1.7688z" fill="#d82827" stroke-width=".98765"/><path d="m40 0.4966c-21.82 0-39.509 17.687-39.509 39.503s17.689 39.503 39.509 39.503 39.509-17.687 39.509-39.503-17.689-39.503-39.509-39.503z" fill="none" stroke="#000" stroke-width=".98765"/></svg>
