<svg xmlns="http://www.w3.org/2000/svg" width="80mm" height="80mm" viewBox="0 0 80 80"><path d="M33.935 79.678c-3.99-.648-7.979-1.962-11.84-3.902-5.754-2.889-10.34-6.718-14.229-11.88-2.212-2.935-5.194-8.915-6.242-12.517C-1.154 41.837-.35 31.69 3.89 22.818 9.414 11.256 19.338 3.459 32.137.625 35.65-.152 43.884-.218 47.465.503 63.562 3.746 75.871 15.88 79.358 31.941c.856 3.945.856 12.142 0 16.087C75.93 63.82 63.864 75.94 48.224 79.301c-3.441.74-10.85.936-14.289.377zm.53-5.28c.882-.212 1.358-.475 1.416-.78.072-.373-.106-.46-.928-.457-.786.003-1.26.22-2.082.952-.924.823-.977.925-.4.777.367-.094 1.264-.315 1.994-.492zm4.696-8.568c-.067-5.019-.19-7.295-.409-7.527-.248-.266-1.057-.178-3.978.429-2.016.42-3.762.869-3.88.999-.117.13-.846 1.436-1.618 2.901-.772 1.466-1.49 2.785-1.597 2.931-.67.926-1.858 3.384-1.733 3.586.082.134.836.436 1.675.672 3.545 1 5.341 1.577 6.822 2.192 1.673.695 3.409 1.122 4.282 1.053.52-.042.53-.2.436-7.236zm5.551 5.853c1.244-.337 3.579-.922 5.189-1.3 1.61-.377 3.286-.799 3.725-.936.91-.285 3.282-.84 6.386-1.493 2.954-.621 2.943-.617 2.57-.99-.315-.316-1.966-.865-8.557-2.848a349.058 349.058 0 0 1-4.41-1.349c-1.696-.556-2.252-.352-4.77 1.753a957.838 957.838 0 0 1-3.526 2.934c-1.115.92-1.13.957-1.13 2.633 0 1.19.125 1.825.418 2.118.458.46.516.452 4.105-.522zm10.378-.674c0-.284-.12-.517-.266-.517-.147 0-.267.307-.267.682 0 .387.116.61.267.517.146-.09.266-.397.266-.682zm2.996-9.08c.25-.782.35-1.515.224-1.64-.126-.127-.858-.04-1.639.192-.777.23-1.72.424-2.095.43-.376.007-1.079.223-1.562.48-.866.463-.87.475-.352.945.29.262.984.594 1.543.737.56.143 1.377.353 1.816.467 1.15.297 1.557-.02 2.065-1.611zm-40.61-2.286l1.87-2.464c.172-.225 1.042-1.308 1.935-2.407 3.61-4.443 4.564-5.849 4.302-6.34-.403-.753-9.639-9.507-10.11-9.581-.237-.038-.55.022-.696.133-.318.24-1.804 2.486-3.188 4.819l-1.001 1.686.736 2.71c.405 1.49.832 3.13.95 3.642 1.517 6.662 2.599 9.859 3.333 9.859.171 0 1.012-.926 1.869-2.057zm39.742-.356c5.42-1.342 9.676-2.335 11.176-2.609.805-.147 1.823-.41 2.262-.585.881-.351.994-.314-6.785-2.248-1.537-.382-2.974-.77-3.193-.862-.22-.092-.998-.312-1.73-.487-.732-.176-2.288-.586-3.46-.91-2.255-.625-5.457-1.46-9.18-2.392a96.755 96.755 0 0 1-3.286-.876c-.564-.17-1.573-.317-2.244-.325l-1.22-.015-.049 1.199c-.027.66.115 1.464.315 1.788.326.529 3.946 3.448 6.85 5.524a91.75 91.75 0 0 1 2.828 2.155c.951.754 1.909 1.443 2.128 1.532.558.226 2.037-.01 5.588-.889zm-31.114.007a284.95 284.95 0 0 1 4.638-.954c1.171-.227 2.967-.592 3.992-.811a84.183 84.183 0 0 1 3.682-.686c1.098-.173 1.877-.435 1.963-.66.087-.227-.702-1.233-2.006-2.558a487.317 487.317 0 0 1-7.752-8.07c-4.43-4.705-9.399-9.715-9.518-9.596-.07.07-.04 1.544.065 3.276l.193 3.148 2.895 2.918c1.592 1.606 2.894 3.077 2.894 3.27 0 .512-1.049 2.053-3.043 4.47l-1.76 2.13.174 2.132c.095 1.173.225 2.222.288 2.332.168.293.526.256 3.295-.34zm12.754-10.65c0-1.741-.09-3.215-.2-3.275-.11-.06-.699.872-1.31 2.071l-1.11 2.181 1.105 1.222c.607.671 1.197 1.164 1.31 1.094.113-.07.205-1.552.205-3.293zm23.73-1.36c1.9-5.78 2.08-6.485 1.681-6.58-.185-.044-1.258.345-2.383.866-1.125.52-2.147.946-2.27.946-.124 0-.565.172-.98.383-.413.211-1.171.56-1.684.775-.512.215-1.889.835-3.06 1.378-1.17.543-2.624 1.204-3.23 1.468-.606.265-1.189.622-1.295.795-.308.499.433 1.596 1.181 1.75.699.142 2.236.56 4.772 1.296.785.228 1.633.414 1.885.414.251 0 .545.09.653.2.108.11.696.334 1.308.497 1.75.468 1.987.178 3.422-4.188zm4.217 1.415a59.755 59.755 0 0 0-.932-2.32 17.214 17.214 0 0 1-.512-1.285c-.278-.855-1.064-.401-1.306.755-.512 2.448-.471 2.558 1.405 3.817 1.007.676 1.763 1.03 1.822.854.055-.165-.16-.985-.477-1.821zM9.934 43.945a498.64 498.64 0 0 0 3.92-5.56 598.78 598.78 0 0 1 4.909-6.926c3.42-4.756 3.6-5.271 2.214-6.357-1.009-.791-1.065-.77-3.78 1.402-1.039.83-2.15 1.685-2.469 1.9-1.195.803-8.854 6.683-8.989 6.902-.077.125-.022 1.529.122 3.12.618 6.8.859 9.032 1 9.261.174.281.289.141 3.073-3.742zm26.263 3.212c0-.51-1.49-1.226-2.346-1.127-.705.082-.7.093.436.933 1.128.835 1.91.914 1.91.194zm8.978-3.712c.183-2.05.303-4.506.267-5.459l-.065-1.732-1.463.094c-2.418.155-2.618.358-4.528 4.599-.289.64-.176.894 1.449 3.244 1.142 1.652 2.017 2.642 2.487 2.816 1.452.538 1.495.457 1.853-3.562zm26.362 2.826c1.621-.426 3.084-.86 3.251-.962.317-.196.22-2.857-.28-7.722a227.91 227.91 0 0 1-.409-4.463c-.102-1.303-.277-2.064-.472-2.063-.17.001-1.328 2-2.572 4.441s-2.786 5.382-3.426 6.535c-.992 1.786-1.144 2.255-1.022 3.163.173 1.29.59 1.845 1.385 1.845.328 0 1.923-.348 3.545-.774zM59.69 41.39c1.433-.595 2.725-1.305 2.87-1.578.206-.384.013-1.074-.845-3.025-.612-1.39-1.285-2.673-1.497-2.848-.405-.337-6.253-.82-7.058-.584-.644.19-.909.774-1.384 3.059-.63 3.021-.596 3.168.97 4.233.754.512 1.499 1.06 1.657 1.217 1.123 1.117 1.55 1.079 5.287-.474zM36.563 36.96c1.775-.419 3.945-.906 4.823-1.082a54.866 54.866 0 0 0 2.927-.683 43.04 43.04 0 0 1 2.262-.548c.512-.103 1.152-.303 1.423-.445.478-.25.478-.267 0-.6-.636-.442-9.725-4.407-10.103-4.407-.509 0-6.488 6.422-6.488 6.97 0 .461 1.086 1.556 1.544 1.556.212 0 1.838-.343 3.612-.761zm-4.4-3.166c1.026-1.137 3.359-3.747 5.183-5.798 1.824-2.052 3.809-4.205 4.41-4.784.601-.58 1.093-1.252 1.093-1.496 0-.633-1.02-1.848-1.549-1.843-.516.004-2.71.74-3.105 1.041-.474.361-2.744.884-3.041.7-.392-.243-.36-.859.088-1.704.638-1.203 2.044-5.048 2.202-6.022.123-.762-.022-1.184-.829-2.401-.538-.812-1.136-1.476-1.33-1.476-.208 0-.42.46-.524 1.132-.095.623-.398 1.972-.673 2.998a89.864 89.864 0 0 0-.946 3.996 117.5 117.5 0 0 1-.678 3.064c-.127.513-.481 2.132-.786 3.597-.306 1.466-.661 3.024-.79 3.464-.13.44-.312 1.22-.405 1.732-.094.513-.273 1.172-.398 1.465-.206.483-.806 3.952-.806 4.657 0 .568 1.006-.242 2.883-2.322zm38.616-.653c1.058-1.137.793-1.407-3.582-3.662-1.756-.905-3.553-1.872-3.992-2.149-2.333-1.472-4.902-2.73-5.28-2.584-.81.311-8.688 6.42-8.497 6.588.298.265 4.127.742 8.589 1.07 2.933.216 9.981.972 12.03 1.29.104.017.433-.232.732-.553zm-41.356-1.949c.17-.732.442-2.17.604-3.196.281-1.775.267-1.893-.293-2.424-.324-.307-1.247-.833-2.052-1.167-.805-.335-2.182-.937-3.06-1.337-.878-.4-1.888-.82-2.244-.931-.356-.112-1.182-.488-1.836-.836-1.139-.606-1.907-.8-1.907-.483 0 .083.966 1.312 2.147 2.731 1.18 1.42 3.356 4.055 4.835 5.856 1.622 1.975 2.85 3.244 3.093 3.197.24-.047.527-.612.713-1.41zm-21.432.442c0-.531-.967-1.56-1.224-1.302-.086.086-.076.525.023.975.203.927 1.201 1.199 1.201.327zm38.19-2.817c.231-2.773-.026-3.332-.729-1.585-.286.713-.63 1.505-.763 1.76-.35.665-.299 1.734.09 1.891 1.074.434 1.211.233 1.402-2.066zm20.35-5.02c0-1.74-.11-3.366-.245-3.612-.262-.48-1.147-1.151-7.205-5.472-5.307-3.785-5.715-3.978-4.828-2.288 5.272 10.048 5.913 11.232 6.56 12.108.325.44 1.116 1.081 1.758 1.424.641.342 1.646.896 2.231 1.232 1.548.885 1.73.529 1.73-3.392zm-10.453-.59c-.246-.517-.565-.94-.708-.94-.143 0-.39.51-.55 1.132-.159.623-.333 1.268-.388 1.433-.054.166.037.437.204.604.226.226.503.102 1.096-.492.793-.794.794-.797.346-1.736zm-3.823-.075c.069-.111-.035-.98-.231-1.932a352.93 352.93 0 0 1-.682-3.42c-.18-.93-.477-1.747-.66-1.818-.184-.07-.684.053-1.112.275-.644.333-.922.825-1.62 2.87-.585 1.71-.758 2.553-.567 2.747.3.304 3.566 1.406 4.298 1.451.248.016.506-.063.574-.173zm-25.948-2.388c.449-.691.765-1.308.702-1.371-.195-.196-2.216 1.26-2.508 1.805-.268.503-.156.612.821.792.093.017.536-.535.985-1.226zm12.433-1.292c1.575-.698 2.135-.912 5.174-1.978.951-.333 1.85-.689 1.995-.79.147-.1.805-.338 1.464-.527 1.428-.411 5.051-1.874 5.521-2.23.502-.38.406-1.083-.372-2.728-.388-.82-.717-1.803-.732-2.183-.025-.655-.26-.766-4.542-2.141-3.158-1.015-4.635-1.375-4.913-1.2-.36.228-3.378 7.35-4.66 10.997-.283.806-.662 1.75-.842 2.098-.324.625-.238 1.366.158 1.366.112 0 .9-.308 1.749-.684zm-6.17-3.646c.088-.33.162-1.071.164-1.647.003-.954-.182-1.234-2.076-3.13-1.145-1.147-2.252-2.084-2.462-2.084-.483 0-9.376 5.893-9.493 6.29-.059.2 1.101.358 3.581.488 2.018.106 4.387.287 5.265.403.878.115 2.331.225 3.229.245 1.482.031 1.647-.02 1.792-.565zm26.627-4.19c.77-.293.928-1.071.217-1.074-.256 0-1.599-.364-2.983-.806-3.413-1.092-3.8-.83-1.183.805 2.169 1.355 2.778 1.52 3.949 1.075z"/></svg>