<svg xmlns="http://www.w3.org/2000/svg" width="80" height="80"><path d="M40 0A40 40 0 0 0 0 40a40 40 0 0 0 40 40 40 40 0 0 0 40-40A40 40 0 0 0 40 0zm-6.367 8.258a3.615 3.615 0 0 1 1.904.4c6.419 3.92-1.364 10.048-4.601 5.658-1.888-2.617.053-5.864 2.697-6.058zm15.064 2.252c4.727-.127 8.427 5.514 5.21 9.726-6.905 8.793-15.088-2.709-10.061-7.41 1.585-1.59 3.276-2.274 4.851-2.316zm11.592 5.424c.675-.047 1.417.143 2.186.654 5.25 4.023.082 9.38-3.938 6.603-2.843-2.388-1.173-7.054 1.752-7.257zm-36.53.584c1.524-.07 3.111.404 4.557 1.609 8.105 6.844-1.634 17.184-9.119 11.227-5.508-5.426-.878-12.589 4.563-12.836zm13.005.162c.993-.07 2.085.394 2.945 1.674 1.676 2.43-1.608 6.572-4.586 3.539-2.26-2.319-.545-5.058 1.64-5.213zm19.052 7.82c.718-.062 1.53.169 2.327.818 2.541 2.263-.582 6.18-3.184 4.248-2.592-2.06-1.296-4.88.857-5.066zm10.954 1.604c.442.005.915.112 1.402.347 3.668 1.616 1.38 7.326-1.809 6.108-4.375-1.517-2.691-6.494.407-6.455zm-25.002 1.732c3.501-.148 6.77 2.205 7.76 5.713 1.424 5.018-3.47 10.163-8.524 9.523-1.397-.102-2.785-.56-3.906-1.414-4.113-3.094-3.702-10.682 1.168-12.79a7.666 7.666 0 0 1 3.502-1.032zm17.359 4.291c3.79.161 7.7 3.568 6.953 7.758-.87 4.687-6.76 7.461-10.53 3.97-4.933-4.665-1.625-10.848 2.821-11.716.25-.02.503-.023.756-.012zm-46.738 3.576c.45-.02.945.037 1.482.192 4.451.59 3.58 7.18-.318 7.033-5.732.559-5.518-7.023-1.164-7.225zm12.515.399c.441.005.888.084 1.33.248 9.557 4.164-1.484 12.942-4.812 6.834-2.33-3.532.396-7.118 3.482-7.082zm41.313 9.326c2.958.07 5.494 3.117 4.383 6.107-1.035 2.647-4.96 5.376-7.48 2.903-3.253-2.15-2.308-8.358 1.812-8.848.43-.12.862-.172 1.285-.162zM40.97 46.816c1.564-.065 3.216.478 4.67 1.846 2.91 2.698 2.041 7.876-1.547 9.516-2.206 1.194-4.958 1.518-7.07-.336-4.642-5.174-.745-10.83 3.947-11.026zM24.26 47.992c4.386-.046 7.903 3.424 8.111 8.793-.09 7.506-8.937 9.214-13.451 6.623-4.188-2.924-4.538-9.482-.951-13.02 2.124-1.626 4.297-2.375 6.29-2.396zm30.219 1.13c3.41-.151 7.332 2.724 4.373 7.124-2.002 3.132-6.236 2.816-7.93-.582-1.442-4.478.903-6.426 3.557-6.543zm4.093 9.948c.502.043 1.029.265 1.551.717 2.593 1.542 2 6.224-1.394 6.035-1.153.043-2.434-.505-2.858-1.65-1.175-2.138.527-5.289 2.701-5.102zm-10.02.063c3.417-.2 6.054 4.807 3.198 7.23-1.835 1.87-4.211 1.485-5.91-.058-2.299-2.727-1.14-6.43 2.02-7.06.233-.063.465-.099.693-.112zm-11.648 2.353c2.43-.19 5.161 1.02 5.711 4.442.796 7.886-8.817 6.573-9.687 3.177-1.301-2.746-.282-6.724 2.96-7.455a6.182 6.182 0 0 1 1.016-.164z"/></svg>