<svg xmlns="http://www.w3.org/2000/svg" width="80" height="80"><path d="M37.288 79.906c-8.447-.585-16.464-3.836-23-9.328C-2.662 56.332-4.837 31.235 9.41 14.286 23.658-2.663 48.76-4.837 65.71 9.408c16.952 14.246 19.127 39.343 4.88 56.292-8.23 9.788-20.64 15.082-33.303 14.206zm7.165-15.564c-.52-6.087-.514-6.415.139-8.069.771-1.956 1.83-2.763 3.394-2.589 1.511.168 6.149 4.086 9.174 7.75 1.378 1.67 2.705 3.018 2.949 2.997.266-.023.481-.608.54-1.464.158-2.316 1.544-3.72 3.873-3.921.534-.046.958-.244.941-.44-.017-.194-.76-1.001-1.65-1.792-2.94-2.612-5.98-5.991-7.44-8.27-1.355-2.117-1.417-2.31-1.083-3.364.502-1.588 1.9-2.505 4.106-2.695 1.811-.156 7.985.29 10.573.762 3.24.593 3.462.515 2.078-.724-1.695-1.517-1.837-4.285-.328-6.392.825-1.151.91-1.434.47-1.56-.296-.085-3.086.066-6.2.336-6.443.558-9.115.292-10.355-1.03-.93-.992-.969-1.675-.194-3.355.957-2.071 3.093-4.6 6.698-7.926 1.79-1.652 3.332-3.155 3.425-3.34.096-.191-.35-.29-1.042-.23-1.55.134-3.175-1.232-3.63-3.052-.563-2.252-1.077-2.211-3.193.25-2.723 3.167-5.946 6.137-7.904 7.284-1.483.868-1.826.955-2.701.678-1.837-.58-2.438-1.682-2.725-4.996-.14-1.626-.152-4.453-.025-6.283.128-1.83.269-3.892.314-4.584.095-1.45-.074-1.49-1.78-.414-1.516.956-2.99.915-4.956-.138-.743-.398-1.463-.588-1.6-.422-.136.165-.106 2.69.068 5.61.357 5.99.153 8.43-.866 10.33-.896 1.673-1.88 1.795-4.428.55-1.815-.887-5.633-4.534-9.006-8.603-1.351-1.63-1.884-1.586-1.734.144.055.632-.11 1.538-.364 2.012-.393.73-.726.886-2.164 1.015-2.832.254-2.88.567-.419 2.753 1.823 1.62 3.007 2.798 6.307 6.276.18.19.788 1.087 1.35 1.993 1.407 2.266 1.398 3.78-.03 4.93-.925.745-1.473.888-4.336 1.136-1.867.162-4.97.131-7.212-.072a898.583 898.583 0 0 0-4.27-.38c-.331-.024-.293.357.36 3.572.246 1.207.204 1.922-.16 2.766-.27.625-.617 1.148-.77 1.162-.154.013-.26.241-.237.507.034.402 1.108.411 6.425.054 3.512-.235 7.048-.328 7.86-.205 4.047.614 4.528 4.104 1.138 8.27-1.742 2.141-4.018 4.445-5.935 6.008-.81.66-1.465 1.325-1.456 1.477.008.153.774.524 1.702.824 1.838.596 2.483 1.379 2.641 3.206.146 1.684.775 1.408 3.122-1.371 4.235-5.015 6.839-7.011 9.437-7.236 1.972-.171 2.5.297 3.346 2.966.598 1.89.588 5.204-.033 10.483-.417 3.547-.207 3.888 1.629 2.645 1.902-1.29 2.912-1.313 4.816-.114.871.549 1.654.915 1.739.814.085-.101-.09-3.04-.388-6.53z"/></svg>