<svg xmlns="http://www.w3.org/2000/svg" width="80" height="80"><path d="M36.236 79.9C21.113 78.55 7.261 67.945 2.306 53.547-3.18 38.8 1.129 21.033 12.875 10.522 24.298-.263 42.266-3.11 56.5 3.5 71.296 9.938 81.108 26.05 79.972 42.156c-.595 16.567-12.75 31.87-28.73 36.265-4.852 1.51-9.964 1.772-15.006 1.48zm.918-4.088c4.258-4.322-6.842-5.872-5.425-.628 1.36 1.378 3.716.906 5.425.628zm7.53-.16c1.12-1.323-7.692-1.734-4.21.228 1.396.12 2.847.143 4.21-.228zm5.672-.125c2.097-.83 7.897-2.154 6.301-4.673-3.157-1.24-11.139.466-8.376 4.798.682.367 1.403-.008 2.075-.125zM30.87 72.901c5.537-2.235.493-11.903-4.18-7.796-4.132.9-3.576 7.885.314 8.156 1.292-.045 2.601-.065 3.866-.36zm9.287-.83c2.522-.65 9.254.657 6.633-4.028-2.426-3.463-9.096-1.797-8.273 2.83-.147 1.32.405 2.093 1.64 1.198zm-18.89-1.433c.815-3.162-3.56-8.25-6.814-6.172-2.027 3.636 3.104 6.898 6.355 6.438l.46-.266zm34.266-1.635c3.449-.194 6.016-5.1 3.156-7.31-4.465-1.286-8.038 2.603-8.986 6.568 1.048 1.868 4.156 1.809 5.83.742zm7.94-.825c3.341-1.7 5.63-7.341.132-7.458-2.947.438-4.777 9.69-.525 7.695l.394-.237zm-15.011-2.944c.914-2.835-4.734-2.061-3.533-5.575.689-5.855-5.309-3.139-8.241-1.68-4.93-.279-3.965 7.655.747 6.193 3.686.145 7.415 1.735 11.027 1.062zm-23.469-.772c3.46-.703 6.432-9.067.937-7.1-2.367 1.5-9.514 1.499-8.292 5.015 1.328.852 2.133 3.248 3.985 2.771 1.147-.076 2.363-.034 3.37-.686zm-12.449-2.903c-.129-2.903 5.638-3.418 2.024-6.068-2.037-2.276-4.456-8.315-8.085-5.1-2.704 3.664 1.388 8.023 3.794 10.758.54.473 1.714 1.364 2.267.41zm56.89-1.728c3.852-1.848 3.995-7.093 5.677-10.628-.194-2.968-4.857 1.566-5.767 2.845-.412 2.635-1.791 5.372-1.865 7.742.583.376 1.331.11 1.955.041zm-15.5-.493c1.062-2.113 1.49-8.09-1.08-8.524-1.567 3.107-7.634 2.694-5.999 7.223.85 2.467 5.11 1.331 7.079 1.301zm11.017-1.006c1.157-2.47 2.689-7.576-.527-9.365-2.774 1.468-9.671 3.077-7.723 7.63 1.932 2.176 5.598 2.212 8.25 1.735zm-27.514-2.436c3.954-.707 2.99-4.44-.295-5.265-2.586-2.492-10.295-4.004-7.724 1.872.855 3.925 4.706 4.505 8.019 3.393zm-12.653-1.864c3.22-1.626-1.849-8.006-4.922-6.675-3.42-.402-9.328 1.946-4.712 5.403 2.775 1.695 6.499 2.088 9.634 1.272zm26.198-3.34c.597-3.099 3.034-8.817-.691-10.698-3.781-.793-5.359 4.557-9.601 3.931-4.881 1.956 1.748 6.148 4.413 6.686 1.76.279 4.338 1.237 5.88.08zM6.604 48.898c1.585-3.428-5.306-8.735-3.656-2.446.14 1.282 2.812 3.825 3.656 2.446zm64.97-.823c1.937-2.277 2.967-5.398 5.93-6.776-.638-2.967-5.712-1.448-8.036-2.881-2.069 1.155-1.981 4.363-4.898 4.85-1.147 3.771 4.255 5.494 7.004 4.807zm-10.633-.152c-.728-3.019 2.11-5.28 2.087-7.796-3.423-1.876-8.144-1.085-8.626 3.48-2.307 3.89 4.123 4.997 6.54 4.316zm-46.36-1.353c3.26-3.052-5.047-5.375-7.107-3.32-1.787 4.152 4.744 3.934 7.106 3.32zm11.65-.044c4.403-.603 6.236-6.02 2.084-8.045-4.272-1.784-7.514 5.332-4.482 7.951.706.535 1.631.373 2.398.094zm12.273-4.194c2.455-1.56 4.603-3.589 7.6-3.712.713-4.39-6.006-1.827-6.739-5.822-4.596.501-6.06 5.286-4.366 9.102.54 1.214 2.523.517 3.505.432zm-31.668-.365c1.179-3.24-.288-7.853 2.913-10.303 5.252-1.902-1.422-3.987-3.793-3.844-3.47 2.615 1.426 7.763-1.732 10.699-2.415 1.82.778 4.274 2.612 3.448zm12.692-1.4c5.073-1.052 1.78-5.757-1.984-5.2-2.393-4.494-9.743-1.53-6.897 3.375 1.756 3.151 5.977 2.206 8.881 1.826zm45.17-3.017c1.813-1.197 1.655-4.354 4.25-5.02-.673-2.799-5.855-4.187-8.725-4.549-2.086 2.831-4.54 7.893.594 9.277 1.246.306 2.609.58 3.88.292zm-9.883-.715c1.868-1.824.346-5.515 1.088-7.918-3.922.025-8.042-2.276-11.863-.884-4.068 2.87-.372 6.918 3.442 7.244 2.387.737 4.748 2.065 7.333 1.558zm20.916-.63c2.724-1.378-1.151-4.988-.517-7.571-2.23-4.697-5.87 2.312-2.973 4.75.25 1.903 1.179 3.854 3.49 2.822zm-44.87-.76c3.56-.902-1.041-6.04-2.687-7.137-2.653 2.266-7.533 3.12-10.614.738-3.074 1.874 2.883 5.915 5.332 6.377 2.604.587 5.344.304 7.97.021zm5.445-5.516c2.022-2.67 7.401.5 6.455-4.428 1.868-3.844-.064-8.578-4.553-5.239-2.908.449-6.14.469-7.17 3.54-5.341.562-.17 4.814 1.83 6.405.966.623 2.44.092 3.438-.278zm-12.52-2.62c5.004-1.135-4.272-7.32-5.745-3.02-2.788 4.136 3.622 3.428 5.745 3.02zm-12.029-.35c2.21-.261 2.346-3.393 4.351-4.58.714-5.23-8.399-3.094-8.512.777-.288 2.918 1.056 4.835 4.161 3.803zm58.011-.953c2.397-.974 4.732-2.385 1.04-3.98-1.01-1.538-1.232-5.67-3.987-3.153.498 3.244-6.831 4.856-2.088 7.409 1.47.458 3.944 1.29 5.035-.276zm-19.405.11c4.91.717 6.47-4.71 4.842-8.405-2.175-3.812-7.142-3.429-10.228-1.06-2.522 1.878.74 5.739.01 8.52 1.223 1.458 3.671 1.006 5.376.945zm10.057-2.923c1.74-2.862 7.435-7.895 2.706-10.505-4.448-1.052-6.053 3.572-5.045 7.137-.384 2.132-1.198 7.223 2.339 3.368zm-34.564-2.722c4.293.571 5.795-8.78 1.088-7.237-3.548.798-11.227 4.203-4.932 7.366 1.266.307 2.59.157 3.844-.13zm-8.653-1.613c-.522-3.64 1.141-7.066 5.331-6.077 3.654-.242-.7-7.712-3.041-3.347-1.508 3.16-6.249 4.75-6.917 7.768 1.516.019 3.482 2.388 4.627 1.656zm20.617-1.306c3.43-.683 3.063-5.592-.72-3.817-2.468-.363-6.81 2.515-2.663 3.88 1.107.256 2.284.204 3.383-.063zm7.002-4.195c2.323-.958 7.582-2.043 3.42-4.87-3.873.578-5.938-4.623-9.198-4.132-2.916 2.068-3.263 6.41 1.18 6.41 2.434-.276 2.703 4.279 4.598 2.592zm11.433.006c.735-2.017 5.055-2.413 1.368-4.324-2.96-.197-5.526-5.644-7.798-3.866.936 2.608 2.164 5.142 2.564 7.898 1.117.627 2.646.575 3.866.292zm-22.938-3.23c2.303-1.25.52-8.442-2.39-5.363-1.52 1.462-7.856.656-4.172 3.86 1.908 1.398 4.24 1.913 6.562 1.504z"/></svg>