<svg xmlns="http://www.w3.org/2000/svg" xml:space="preserve" width="80" height="80"><path d="M38.504 79.968a40.12 40.12 0 0 1-14.36-3.251 39.998 39.998 0 0 1-16.172-60.68A40.009 40.009 0 0 1 42.504.078a39.996 39.996 0 0 1 37.399 37.226 39.955 39.955 0 0 1-2.783 17.58A40.088 40.088 0 0 1 66.024 70.37a40.127 40.127 0 0 1-12.04 7.1 40.178 40.178 0 0 1-15.48 2.498zm-13.107-9.544c1.683-.187 3.497-1.057 5.302-2.543l.315-.26.205.028c.414.056 1.162.08 1.622.053.77-.045 1.272-.137 1.918-.348 1.9-.623 3.139-2.019 3.486-3.93.05-.277.059-.413.058-1.013-.001-.787-.037-1.077-.228-1.82-.487-1.903-1.766-3.984-3.595-5.854l-.385-.394.041-.086c.034-.07 3.028-5.301 3.044-5.318.002-.002.13.031.284.074.356.1.965.225 1.36.279.492.067 1.527.08 2.053.027 1.154-.119 2.294-.44 3.23-.91l.177-.089 1.153 2.805 1.164 2.832c.005.015-.138.102-.32.193-1.553.785-2.785 1.99-3.456 3.38a5.94 5.94 0 0 0-.45 3.894c.135.581.405 1.213.736 1.72.841 1.288 2.137 2.109 3.728 2.362.35.055 1.229.079 1.585.042l.445-.047.165-.018.075.127c.161.274.706 1.082.916 1.36.575.762 1.356 1.59 1.932 2.05 1.45 1.157 2.901 1.62 4.226 1.35.7-.142 1.314-.48 1.857-1.023 1.46-1.46 1.99-4.117 1.46-7.332l-.07-.422.084-.111c1.533-2.053 2.042-4.207 1.429-6.04-.249-.744-.635-1.349-1.23-1.927-.783-.762-1.797-1.297-3.053-1.612-.838-.21-1.579-.292-2.636-.29-1.338.003-2.574.166-4.034.532-.26.065-.49.119-.51.119-.027 0-1.847-3.097-3.107-5.285l-.041-.071.36-.369c1.529-1.567 2.436-3.546 2.638-5.754a3.88 3.88 0 0 1 .037-.327c.005-.004 1.348.172 2.986.392 1.637.22 2.992.4 3.01.4.027 0 .034.173.035.78.001.814.03 1.15.148 1.74.556 2.785 2.573 4.763 5.18 5.082.42.052 1.206.019 1.618-.068a5.473 5.473 0 0 0 1.726-.674c1.031-.64 1.874-1.67 2.395-2.926l.11-.267.465-.017c4.158-.154 6.993-1.748 7.483-4.21.062-.31.06-.964-.002-1.306-.258-1.404-1.31-2.787-2.956-3.889-.796-.532-1.92-1.086-2.956-1.456-.185-.066-.205-.08-.238-.17a8.466 8.466 0 0 0-.2-.446c-.848-1.788-2.124-3.084-3.569-3.624a4.56 4.56 0 0 0-1.698-.307c-1.158 0-2.274.401-3.328 1.197-1.78 1.345-3.174 3.65-4.056 6.708l-.154.534-1.638.016c-.9.009-2.3.018-3.11.02l-1.472.004-.03-.114c-.312-1.217-.736-2.176-1.388-3.14-.61-.901-1.528-1.825-2.403-2.419l-.258-.175.125-.163c.69-.9 3.565-4.623 3.588-4.648.023-.023.12.026.404.208.452.29 1.152.64 1.64.82 1.386.513 2.777.595 4.103.242 1.569-.417 2.907-1.511 3.606-2.947.914-1.876.627-4.056-.78-5.925l-.206-.274.187-.344c.238-.439.563-1.137.75-1.615 1.134-2.88 1.004-5.334-.36-6.775-.766-.81-1.818-1.196-3.137-1.15-1.765.06-3.759.961-5.713 2.583l-.284.235-.383-.042c-.459-.05-1.41-.055-1.823-.012-1.5.16-2.71.674-3.61 1.534-1.43 1.368-1.86 3.456-1.191 5.786.523 1.82 1.773 3.817 3.504 5.594.313.32.405.431.392.467-.01.026-.704 1.244-1.543 2.708-1.173 2.047-1.534 2.656-1.565 2.644a11.102 11.102 0 0 0-2.022-.387c-.471-.04-1.436-.02-1.898.04a9.667 9.667 0 0 0-2.836.824l-.304.144-1.157-2.812c-.636-1.547-1.16-2.82-1.163-2.83-.004-.01.146-.095.333-.19 2.248-1.147 3.708-3.05 3.997-5.21a7.071 7.071 0 0 0 .011-1.43c-.297-2.324-1.909-4.125-4.14-4.625a7.107 7.107 0 0 0-2.195-.109c-.467.057-.415.075-.589-.207-1.468-2.375-3.25-3.99-4.972-4.508-1.058-.317-1.985-.263-2.867.167-1.161.567-2.005 1.749-2.41 3.375-.331 1.337-.354 2.933-.065 4.688l.07.422-.083.112c-.592.792-1.066 1.665-1.342 2.471-.397 1.158-.446 2.377-.138 3.413.511 1.719 1.963 3.017 4.045 3.616 1.777.512 3.99.501 6.405-.031.234-.052.56-.13.722-.173.162-.043.314-.078.337-.078.026 0 .59.945 1.59 2.665.853 1.466 1.55 2.674 1.55 2.684 0 .01-.153.176-.34.368a9.423 9.423 0 0 0-2.645 5.76c-.014.174-.03.32-.035.325-.005.005-.854-.104-1.888-.243l-3.011-.403-1.134-.152v-.775c-.002-1.008-.069-1.535-.296-2.336-.622-2.188-2.24-3.828-4.29-4.345-.509-.129-.91-.17-1.492-.154a4.766 4.766 0 0 0-1.713.328c-1.427.533-2.601 1.736-3.276 3.358l-.111.266-.464.017c-2.828.105-5.048.862-6.359 2.17-1.542 1.538-1.576 3.583-.091 5.507.25.323.834.905 1.212 1.207.972.777 2.277 1.48 3.669 1.977.185.066.205.081.237.17.02.055.11.255.2.446.877 1.85 2.185 3.145 3.71 3.674a4.844 4.844 0 0 0 2.762.112c1.567-.396 3.08-1.6 4.244-3.376.8-1.221 1.444-2.677 1.936-4.384l.154-.533 2.29-.02c1.26-.01 2.662-.016 3.116-.013l.824.006.076.302a9.365 9.365 0 0 0 3.856 5.44c.121.079.135.096.106.136-.018.025-.859 1.116-1.869 2.424l-1.835 2.378-.113-.078c-.754-.519-1.793-.997-2.643-1.217-.661-.171-.964-.209-1.693-.21-.686-.001-.871.016-1.407.135-1.219.27-2.365.958-3.145 1.887a5.272 5.272 0 0 0-1.087 4.74c.207.819.606 1.62 1.176 2.363l.168.219-.187.345c-.962 1.77-1.518 3.663-1.518 5.163 0 1.398.401 2.501 1.198 3.293.547.544 1.167.863 1.963 1.011.16.03.334.059.386.064.205.022.88.017 1.106-.008z" style="fill:#000;stroke-width:.0266667"/></svg>