<svg xmlns="http://www.w3.org/2000/svg" width="80mm" height="80mm" viewBox="0 0 80 80"><path d="M36.254 79.956c-9.828-1.173-17.89-5.006-24.559-11.674-5.9-5.9-9.6-12.957-11.242-21.444-.604-3.124-.604-10.582 0-13.705C3.743 16.13 16.164 3.71 33.14.449c3.119-.599 10.586-.599 13.705 0C63.82 3.711 76.406 16.3 79.52 33.133c.64 3.458.64 10.247 0 13.705-2.726 14.734-13.005 26.591-27.083 31.242-3.823 1.263-6.87 1.769-11.324 1.88-2.193.055-4.38.053-4.86-.005zm6.599-8.962c2.703-.29 4.863-1.528 4.863-2.785 0-1.971-5.337-3.487-9.99-2.838-4.1.572-6.142 2.26-4.75 3.925.854 1.022 2.595 1.577 6.019 1.918.878.087 1.132.073 3.858-.22zm-11.638-7.457c1.638-.468 2.796-1.453 2.796-2.378 0-1.94-5.093-3.363-9.81-2.739-4.087.541-6.106 1.989-5.041 3.614.506.772 2.254 1.593 4.012 1.883 1.967.325 6.29.12 8.043-.38zm27.59-.1c1.532-.534 2.616-1.462 2.616-2.239 0-.575-1.145-1.637-2.258-2.095-3.457-1.42-10.426-.922-12.381.884-1.554 1.435.148 3.3 3.577 3.923 2.087.379 6.749.118 8.445-.474zm-43.84-6.53c1.828-.337 4.008-1.342 4.367-2.012.194-.364.189-.694-.02-1.197-.748-1.809-5.337-2.853-9.95-2.265-1.545.197-2.61.456-2.796.68-.441.532.412 2.826 1.686 4.534.375.502 4.526.662 6.714.26zm30.25-.577c1.938-.788 2.501-1.268 2.501-2.137 0-2.067-4.825-3.393-10.043-2.76-1.386.168-2.861.477-3.278.687-2.598 1.311-2.48 3.089.277 4.184 1.66.66 3.265.856 6.202.761 2.25-.073 3.042-.207 4.34-.735zm26.619.274c.668-.606 2.089-3.758 1.907-4.233-.202-.524-.513-.618-3.149-.956-3.914-.502-8.526.397-9.553 1.863-.591.845-.445 1.575.444 2.219 1.67 1.208 3.772 1.666 7.33 1.596 2.024-.04 2.633-.139 3.02-.49zm-40.648-7.03c1.513-.506 2.825-1.612 2.825-2.381 0-1.034-1.553-2.146-3.675-2.633-5.57-1.276-12.071.44-11.425 3.014.198.79 2.05 1.89 3.88 2.305 1.887.429 6.724.252 8.395-.306zm25.886.355c1.703-.315 2.7-.77 3.664-1.671.922-.863.864-1.325-.298-2.375-1.073-.969-1.856-1.236-4.881-1.667-1.678-.24-2.401-.217-4.472.135-2.425.413-3.184.714-4.303 1.704-1.553 1.373.17 3.19 3.675 3.874 1.62.315 4.908.316 6.615 0zm-41.367-7.091c1.791-.466 2.76-1.006 3.437-1.913.45-.605.469-.751.166-1.317-.833-1.557-3.372-2.358-7.474-2.358-3.26 0-5.1.392-6.364 1.356-1.295.987-1.49 1.509-.865 2.304.766.974 1.425 1.366 3.105 1.847 1.961.562 5.993.603 7.995.081zm28.625-.123c2.03-.627 3.446-1.77 3.337-2.695-.1-.838-1.667-1.934-3.446-2.407-1.795-.478-6.702-.483-8.265-.008-2.177.66-3.44 1.59-3.44 2.53 0 .892 1.332 2.012 2.93 2.463.787.222 1.543.445 1.68.495.137.051 1.443.102 2.902.112 2.01.015 3.05-.103 4.302-.49zm28.7-.09c1.47-.477 2.843-1.697 2.843-2.527 0-.83-1.496-1.956-3.246-2.442-1.892-.526-6.554-.55-8.46-.043-1.755.467-3.346 1.57-3.442 2.387-.108.908 1.125 1.955 3.12 2.649 1.507.525 2.02.577 4.802.488 1.963-.063 3.584-.252 4.383-.511zm-43.28-6.763c1.014-.211 2.08-.505 2.367-.653.932-.478 1.894-1.533 1.894-2.076 0-1.334-2.67-2.635-6.117-2.98-4.176-.418-9.083 1.19-9.083 2.976 0 .554.963 1.602 1.928 2.098 1.849.95 6.072 1.249 9.01.635zm27.435.003c2.136-.436 3.729-1.391 4.105-2.461.224-.637.164-.776-.62-1.433-2.137-1.79-7.636-2.4-11.354-1.26-7.342 2.252-.348 6.833 7.869 5.154zm-42.368-6.994c2.437-.446 3.922-1.153 4.47-2.13.33-.586.322-.721-.075-1.327-1.158-1.767-7.113-2.885-10.44-1.96-.838.234-2.6 3.81-2.284 4.635.098.254.812.515 2.063.754 2.583.493 3.698.498 6.266.028zm28.04.024c2.48-.468 3.303-.78 4.174-1.58 1.85-1.701-.2-3.384-4.923-4.041-4.402-.612-9.605.911-9.586 2.807.013 1.336 1.216 2.11 4.23 2.718 2.694.544 3.646.559 6.105.096zm28.632-.082c1.143-.24 2.072-.578 2.211-.803.286-.46-1.388-4.115-2.038-4.45-.777-.4-3.536-.54-5.455-.277-4.564.625-6.66 2.368-4.848 4.032.849.78 1.692 1.114 3.924 1.554 2.322.457 3.838.443 6.206-.056zm-41.58-7.04c2.67-.495 4.336-1.754 4.014-3.038-.629-2.504-8.908-3.478-13.25-1.557-2.542 1.124-2.483 2.752.143 3.967.486.225 1.383.507 1.994.627 1.608.315 5.393.315 7.098 0zm27.236.03c1.784-.339 3.581-1.256 4.02-2.053.34-.617.328-.732-.138-1.37-1.227-1.683-5.389-2.59-9.561-2.082-3.436.418-5.245 1.414-5.245 2.89 0 1.045 1.76 2.13 4.36 2.69.981.212 5.314.161 6.564-.076zm-12.17-7.37c2.547-.994 3.28-2.102 2.255-3.406C45.949 9.4 40.55 8.61 36.51 9.46c-2.738.576-3.994 1.442-3.994 2.754 0 1.011 1.86 2.16 4.236 2.614 1.843.353 6.933.109 8.223-.395z"/></svg>