<svg xmlns="http://www.w3.org/2000/svg" xml:space="preserve" width="80" height="80"><path d="M38.504 79.968a40.12 40.12 0 0 1-14.36-3.251 39.998 39.998 0 0 1-16.172-60.68A40.009 40.009 0 0 1 42.504.078a39.996 39.996 0 0 1 37.399 37.226 39.955 39.955 0 0 1-2.783 17.58A40.088 40.088 0 0 1 66.024 70.37a40.127 40.127 0 0 1-12.04 7.1 40.178 40.178 0 0 1-15.48 2.498zm-4.793-8.282c.108-.054.198-.208.314-.538a6.4 6.4 0 0 1 .261-.609c.189-.376.421-.91.642-1.476.089-.227.271-.635.405-.906.381-.773.593-1.237.918-2.015.166-.397.472-1.093.68-1.546l.739-1.612c1.1-2.404 1.705-3.886 1.757-4.308l.016-.134-.154-.048c-.25-.08-.696-.322-1.038-.565a55.303 55.303 0 0 0-.6-.42 5.549 5.549 0 0 1-.498-.392l-.451-.413c-.515-.472-1.399-1.617-1.743-2.259-.14-.259-.601-1.425-.668-1.686a8.718 8.718 0 0 1-.12-.692 9.202 9.202 0 0 0-.138-.764c-.06-.241-.07-.329-.066-.646.003-.255-.008-.415-.036-.524-.051-.198-.051-.325 0-.446.027-.065.04-.189.04-.38 0-.173.016-.334.04-.414a1.07 1.07 0 0 0 .04-.258c0-.07.019-.22.042-.335.023-.115.052-.347.063-.516.018-.27.04-.363.174-.773.084-.257.16-.535.167-.617l.014-.15-.19-.113a5.305 5.305 0 0 0-.597-.272 15.935 15.935 0 0 1-.9-.394 14.37 14.37 0 0 0-.893-.389c-.22-.084-.55-.223-.731-.309-.427-.202-.526-.204-.785-.012-.126.092-.535.575-.691.816-.365.562-.982 1.727-1.03 1.946-.014.066-.087.372-.162.68-.183.757-.208.901-.243 1.392-.054.744.008 1.55.164 2.136.044.165.115.496.158.735.097.538.17.795.346 1.203.2.469.202.588.01.763-.114.103-.222.159-.87.448-2.042.91-3.886 1.693-4.886 2.076-1.093.418-1.757.725-2.064.956-.16.12-.25.253-.223.329.055.151.615 1.517.715 1.742.211.477.472.952.786 1.434.173.265.417.69.565.983.256.509.312.595.61.93.083.094.225.304.318.468.252.449.337.573.545.792.105.11.282.338.394.507.277.417 1.034 1.274 1.527 1.73.117.109.322.318.454.466.132.148.416.413.63.59.215.176.485.406.6.51.439.4.765.635 2.236 1.614 1.204.8 1.371.9 2.077 1.229.277.13.605.29.73.359.318.173.417.19.6.097zm17.153-3.142c.117-.02.349-.039.515-.04.222 0 .379-.018.597-.067.236-.053.367-.066.658-.066.344 0 .383-.006.728-.106.212-.06.585-.14.89-.187.632-.098.829-.147 1.296-.318.196-.072.656-.222 1.023-.332.705-.213.988-.311 1.093-.38.104-.068.173-.244.173-.44 0-.38-.159-.839-.652-1.89a29.25 29.25 0 0 1-.535-1.267 425.566 425.566 0 0 1-1.888-4.814c-1.001-2.65-1.224-3.234-1.5-3.927-.167-.422-.329-.8-.36-.843a.604.604 0 0 0-.394-.208c-.198-.023-.446.03-1.013.22-.637.213-.76.228-1.884.232-.68.002-.858-.005-1-.04a17.472 17.472 0 0 0-.907-.154c-.403-.06-.8-.126-.88-.146-.158-.038-1.5-.574-1.737-.693-.16-.08-.661-.426-1.194-.823-.938-.699-1.543-1.276-1.976-1.884-.1-.14-.243-.314-.32-.387-.188-.183-.287-.324-.466-.667-.18-.344-.37-.626-.517-.77-.082-.08-.132-.105-.225-.116-.278-.031-.775.115-1.832.539-.374.15-.857.34-1.073.425-.622.242-.81.4-.873.733-.021.113-.01.264.054.784.044.355.11.765.147.912.082.323.576 1.57.779 1.966.098.19.242.406.434.648.159.2.344.445.413.546.16.239.313.39.77.773.207.173.43.369.494.437a.54.54 0 0 0 .26.163.44.44 0 0 1 .251.174c.138.163.294.265.63.411.144.062.41.2.594.308.184.106.466.247.627.313l.33.133c.083.036-.094.63-.377 1.261-.096.213-.222.525-.282.694-.06.168-.186.468-.28.666-.095.198-.214.48-.266.627-.133.381-.26.693-.68 1.67a51.156 51.156 0 0 0-.615 1.497c-.134.348-.353.91-.487 1.251-.263.668-.294.792-.226.923.08.153.284.239 1.767.74.29.099.647.232.792.297.144.065.36.14.48.17.12.027.32.085.446.128.125.042.347.098.493.124.146.025.403.092.572.148.17.057.413.116.546.132a6.36 6.36 0 0 1 1 .2c.264.075.336.085.512.073.182-.012.215-.007.306.05.094.058.126.063.396.056.211-.006.319.003.386.031.124.051.955.128 1.189.11.102-.008.46-.004.798.008 1.02.038 1.76.035 2-.008zm7.987-9.693c.843-.352 1.27-.57 1.813-.926.25-.163.58-.352.76-.434.642-.294 1.045-.508 1.248-.664.115-.087.325-.233.467-.325.705-.456.862-.567 1.063-.748a3.53 3.53 0 0 1 .464-.343c.16-.095.346-.24.529-.414.155-.147.36-.323.457-.39.095-.069.255-.215.353-.325.099-.11.262-.261.363-.336.1-.075.23-.199.289-.276.058-.077.246-.277.419-.446.792-.775 1.854-2.01 2.112-2.457a.967.967 0 0 1 .254-.312.63.63 0 0 0 .201-.244c.065-.136.395-.652.596-.934.047-.066.2-.354.338-.64.139-.286.33-.649.424-.806.204-.339.57-1.084.649-1.322.047-.144.05-.178.021-.24-.04-.083-.312-.227-.954-.502-.227-.097-.81-.357-1.293-.577-1.009-.459-1.153-.522-1.721-.752a11.464 11.464 0 0 1-.663-.293 6.649 6.649 0 0 0-.566-.241 5.86 5.86 0 0 1-.498-.208c-.098-.05-.391-.177-.651-.281a11.98 11.98 0 0 1-.666-.287c-.106-.053-.847-.379-1.647-.723-.8-.345-1.76-.77-2.135-.947-1.207-.567-1.93-.859-2.211-.892-.119-.014-.138-.008-.198.056-.037.04-.193.326-.348.637-.24.485-.307.595-.47.778a6.017 6.017 0 0 0-.371.48c-.101.147-.228.309-.282.36a5.69 5.69 0 0 0-.296.325 3.5 3.5 0 0 1-.417.403 3.523 3.523 0 0 0-.386.359c-.168.19-.193.207-1.234.867-.733.464-1.22.643-2.628.963-.69.157-.805.177-1.055.177-.155 0-.412.018-.572.041a1.88 1.88 0 0 1-.425.023 8.596 8.596 0 0 0-.627-.025c-.698-.01-.996-.059-2.466-.399-.37-.085-.728-.114-.792-.063-.025.02-.102.192-.17.383-.069.19-.188.472-.265.626a6.085 6.085 0 0 0-.24.56c-.054.154-.217.54-.36.856-.478 1.055-.589 1.379-.505 1.48.02.023.09.07.158.104.07.036.19.138.276.236.083.095.288.289.455.43.288.242.332.269.893.534 1.512.715 2.042.87 3.163.924.293.014.6.032.683.04.085.008.246-.003.373-.027.123-.022.386-.049.584-.059.43-.02.672-.078 1.59-.374.843-.271 1.032-.326 1.23-.358.305-.049.476.04.62.321.03.058.25.607.49 1.22.24.612.5 1.251.576 1.42.306.67.528 1.206.925 2.24.229.594.491 1.254.584 1.467.274.63.67 1.434.746 1.51.104.104.203.08.946-.23zm-45.254-.937c.065-.015.941-.355 1.946-.755l4.08-1.623c6.706-2.666 6.512-2.588 6.572-2.667.049-.066.055-.112.054-.36-.001-.317-.025-.447-.247-1.352l-.15-.613.006-.373a4.71 4.71 0 0 0-.024-.589.793.793 0 0 1 .013-.388c.024-.095.044-.264.044-.374 0-.11.019-.265.043-.345a.744.744 0 0 0 .023-.331c-.031-.29-.026-.325.115-.693.194-.508.257-.702.393-1.203.185-.68.288-.905.563-1.23.065-.076.167-.25.228-.386.182-.413.372-.697.719-1.075.094-.102.227-.266.296-.363.077-.11.194-.229.309-.314.102-.075.251-.213.333-.306.082-.093.342-.348.579-.566.403-.372.451-.408.769-.57.483-.248 1.008-.636 1.15-.851.114-.17.108-.307-.03-.665-.059-.156-.214-.574-.343-.927-.458-1.25-.755-1.949-.93-2.19-.094-.127-.197-.167-.436-.168-.42 0-1.316.176-2.061.406-1.285.395-3.141 1.647-3.594 2.423a6.878 6.878 0 0 1-.38.531 5.134 5.134 0 0 0-.397.587c-.065.125-.18.303-.255.397-.158.196-.221.315-.361.679-.166.431-.322.628-.61.768-.121.059-.127.06-.198.013-.152-.1-.953-.478-1.592-.751a33.058 33.058 0 0 0-2.453-.959c-.323-.108-.881-.318-1.24-.468-.36-.149-1.032-.424-1.495-.611-.653-.264-.88-.368-1.01-.464a.824.824 0 0 0-.206-.124c-.056 0-.267.343-.417.678-.258.575-.633 1.63-1.005 2.829-.274.882-.32 1.064-.319 1.288 0 .164-.017.258-.09.474-.13.382-.198.694-.232 1.078a4.29 4.29 0 0 1-.07.49c-.058.23-.11.669-.132 1.096-.01.206-.031.404-.046.44a2.573 2.573 0 0 0-.048.427c-.011.198-.031.423-.044.5-.013.08-.014.218 0 .32.014.117.01.256-.01.396-.024.168-.023.275.002.476.02.154.026.36.016.504-.023.329.025 1.316.077 1.564.024.117.045.378.05.627.008.37.02.472.094.776.048.2.096.49.111.676.032.393.06.508.28 1.161.105.312.212.704.28 1.019.222 1.049.525 1.843.76 1.997.133.086.252.094.52.034zM50.75 43.317c.147-.036.454-.084.681-.108.236-.024.512-.07.64-.108 1.138-.33 2.318-1.016 3.113-1.81.544-.543 1.051-1.174 1.244-1.547.06-.117.222-.377.359-.576.18-.262.33-.532.543-.972.162-.335.3-.613.305-.619.02-.02.472.1.834.221.476.159 1.381.507 1.882.723a186.2 186.2 0 0 0 3.585 1.453c.335.118 1.012.405 1.474.624.229.108.464.205.524.214.13.02.237-.026.34-.149.128-.152.334-.61.377-.838a.878.878 0 0 1 .155-.387c.166-.25.174-.269.22-.507a4.13 4.13 0 0 1 .13-.475c.136-.394.21-.646.416-1.445.273-1.05.28-1.08.452-1.947.087-.433.187-.91.224-1.062.058-.24.063-.295.039-.427-.024-.128-.02-.179.026-.338.072-.248.122-.739.124-1.213 0-.213.023-.585.05-.827.044-.388.046-.473.015-.72a13.11 13.11 0 0 1-.037-1.106c-.003-.763-.008-.847-.064-1.08a4.106 4.106 0 0 1-.084-.654 2.667 2.667 0 0 0-.119-.733 2.808 2.808 0 0 1-.12-.71c-.032-.467-.04-.506-.271-1.21a15.74 15.74 0 0 1-.307-1.08 10.137 10.137 0 0 0-.415-1.395c-.099-.255-.115-.28-.204-.317-.282-.118-1.075.12-2.622.789a46.34 46.34 0 0 1-3.615 1.374c-2.306.779-6.697 2.485-6.975 2.71-.053.043-.058.07-.054.283.005.283.03.429.186 1.09.17.712.19.846.225 1.485.059 1.048.005 1.72-.199 2.488l-.21.8c-.165.624-.254.849-.67 1.69a8.566 8.566 0 0 0-.283.603c0 .035-.055.096-.251.278a.914.914 0 0 0-.189.257c-.066.15-.358.493-.733.865-.127.125-.26.28-.295.343-.047.084-.13.16-.294.273a5.072 5.072 0 0 0-.481.392 6.1 6.1 0 0 1-.52.425 6.038 6.038 0 0 0-.489.392c-.183.169-.28.232-.576.376-.204.1-.38.203-.41.243-.09.114-.073.295.067.733.249.775.926 2.577 1.088 2.898.216.426.485.504 1.169.338zm-29.396-3.899c.038-.028.124-.158.19-.29.231-.46.907-1.516 1.214-1.898.097-.12.25-.283.341-.36.09-.077.285-.262.432-.41a2.52 2.52 0 0 1 .493-.41c.125-.075.31-.218.413-.318.245-.238.438-.366.87-.573a23.746 23.746 0 0 1 1.85-.743c1.004-.315 2.443-.508 3.134-.42.139.018.409.044.6.057.908.064.931.067 1.04.123.058.03.184.063.28.073a3.7 3.7 0 0 1 .844.18c.191.069.253.08.391.068.09-.008.215-.034.277-.059.107-.043.114-.055.183-.263.157-.48.598-1.507 1.076-2.509.44-.922.434-1.062-.052-1.409a6.904 6.904 0 0 1-.463-.366c-.43-.38-1.205-.843-1.576-.942a5.393 5.393 0 0 1-.587-.212c-.38-.162-.565-.218-.879-.261a1.22 1.22 0 0 1-.312-.084c-.093-.049-.129-.053-.298-.033a4.38 4.38 0 0 1-.524.01 24.978 24.978 0 0 0-.827-.01c-.432.002-.53.012-.787.072-.161.038-.45.084-.64.1-.428.039-.611.085-1.164.294-.71.268-.96.347-1.142.362l-.174.015-.113-.17a2.334 2.334 0 0 1-.218-.476c-.109-.317-1.33-3.367-1.842-4.6-.602-1.448-1.145-2.672-1.246-2.808-.146-.195-.348-.239-.642-.14a9.033 9.033 0 0 0-.7.332c-.3.153-.79.39-1.09.523-.903.405-1.248.592-1.815.982a9.06 9.06 0 0 1-.734.44c-.501.266-.633.35-.889.569a5.035 5.035 0 0 1-.503.36c-.39.242-.6.4-.717.544-.053.065-.22.201-.371.305a2.535 2.535 0 0 0-.444.377 2.815 2.815 0 0 1-.332.314c-.277.208-.913.805-1.099 1.03-.097.117-.36.392-.585.611-.224.22-.448.46-.498.534a2.23 2.23 0 0 1-.26.296 2.665 2.665 0 0 0-.336.427c-.092.146-.318.457-.501.692-.425.542-.686.925-.799 1.168-.078.17-.193.36-.623 1.037-.248.39-.886 1.83-.89 2.01-.007.213.255.423.778.627.155.06.529.224.83.363.3.139.972.436 1.493.66.52.225 1.276.56 1.68.748.403.187 1.063.48 1.466.653 1.035.442 1.448.63 2.049.932.486.244 1.046.49 2.551 1.122.323.135.779.336 1.014.447.826.39 1.006.436 1.183.307zm27.986-4.096c.09-.079.233-.193.317-.255.162-.118.22-.187.247-.298.009-.037.117-.193.24-.346.232-.29.707-1.05.707-1.132 0-.027.055-.17.123-.318a6.07 6.07 0 0 0 .41-1.142c.155-.602.264-1.56.229-2.028-.01-.135-.028-.45-.04-.7-.023-.45-.024-.457-.227-1.212a56.383 56.383 0 0 1-.52-2.038c-.021-.118-.018-.135.038-.187.18-.167 1.786-.874 3.973-1.75.8-.319 1.41-.577 2.14-.903.266-.119.65-.277.852-.35.482-.176.767-.316.92-.45.148-.131.223-.3.2-.449-.022-.128-.759-1.949-.899-2.218a14.32 14.32 0 0 0-.48-.775 10.41 10.41 0 0 1-.626-1.08c-.24-.487-.303-.582-.661-1.018a2.886 2.886 0 0 1-.25-.382c-.24-.445-.329-.577-.572-.854a9.459 9.459 0 0 1-.394-.48 8.602 8.602 0 0 0-.416-.496 21.986 21.986 0 0 1-.41-.466c-.417-.498-1.187-1.251-2.137-2.09-1.066-.943-1.135-.998-1.888-1.51l-.707-.481c-.342-.236-1.061-.64-1.818-1.022-.933-.471-1.502-.694-1.577-.619-.022.022-4.969 11.354-5.639 12.916l-.048.112.082.08c.045.043.285.185.533.314.317.165.506.282.63.392.098.085.335.262.525.392.496.338.76.552 1.095.891a9.672 9.672 0 0 1 1.745 2.474c.406.814.549 1.25.707 2.153.05.286.11.604.134.707.069.293.082 1.295.028 2.08-.06.869-.106 1.207-.228 1.693-.147.584-.194.887-.183 1.186.011.317.025.333.307.362.186.018.27.048.742.266.293.135.957.436 1.474.67.518.232.974.44 1.014.462.11.06.13.052.308-.101zm-9.147-3.868c.16-.053.514-.2.787-.326a22.78 22.78 0 0 1 1.59-.668c.436-.16.56-.219.638-.3.13-.137.153-.31.085-.67a6.97 6.97 0 0 1-.067-.577 3.16 3.16 0 0 0-.097-.614c-.146-.502-.624-1.698-.87-2.172a2.966 2.966 0 0 0-.289-.427c-.101-.122-.303-.379-.449-.57-.337-.441-.706-.798-1.244-1.204a14.071 14.071 0 0 1-.58-.458c-.102-.09-.187-.141-.253-.153a1.225 1.225 0 0 1-.273-.112c-.794-.433-1.55-.908-1.651-1.035-.08-.102-.07-.198.049-.433.057-.115.28-.658.495-1.206.668-1.704.92-2.32 1.093-2.678.092-.191.248-.563.346-.827.098-.264.262-.657.363-.873.21-.444.198-.416.576-1.394.408-1.055.404-1.085-.198-1.297a21.043 21.043 0 0 1-.742-.29 12.326 12.326 0 0 0-1.478-.519c-.154-.04-.436-.12-.627-.176a8.99 8.99 0 0 0-.536-.143 1.182 1.182 0 0 1-.284-.094.71.71 0 0 0-.276-.07 1.779 1.779 0 0 1-.304-.052 40.108 40.108 0 0 0-1.653-.32.903.903 0 0 1-.226-.072c-.091-.046-.136-.051-.337-.036-.197.015-.252.009-.369-.037-.103-.04-.198-.054-.386-.054-.17 0-.282-.014-.352-.043-.084-.035-.157-.04-.383-.026a1.534 1.534 0 0 1-.48-.027c-.301-.066-2.588-.086-3.143-.027-.215.023-.529.05-.697.06-.23.013-.387.04-.627.11-.271.077-.383.095-.733.113-.436.024-.443.025-.947.187-.307.098-.545.152-1.36.308-.46.088-.653.148-1.344.416-.967.374-1.04.442-.92.851.023.08.36.925.75 1.878 1.843 4.518 2.386 5.911 3.045 7.813.564 1.628.65 1.869.79 2.23.078.2.19.467.25.592.196.41.32.437.977.21.379-.13.43-.14.854-.178.248-.022.583-.064.743-.093.166-.03.406-.054.557-.054.146 0 .37-.014.5-.031.197-.026.273-.024.483.012.136.024.35.051.475.06.28.021.77.1 1.159.187.21.047.377.107.588.21.412.203.755.314.99.322.175.006.2.015.333.114.079.059.207.139.286.178.078.04.193.119.256.177a.852.852 0 0 0 .266.157c.09.031.231.115.346.207.107.084.343.256.524.38.274.188.438.334.96.854.498.495.663.677.785.867.085.132.247.336.36.453.259.27.284.306.508.756.216.433.359.627.515.7.172.082.485.057.853-.066z" style="fill:#000;stroke-width:.0266667"/></svg>