<svg xmlns="http://www.w3.org/2000/svg" width="80mm" height="80mm" viewBox="0 0 80 80"><path d="M36 79.914c-9.8-1.24-17.604-4.99-24.288-11.67-5.96-5.956-9.513-12.653-11.2-21.112-.683-3.43-.683-10.886 0-14.316 1.687-8.458 5.24-15.156 11.2-21.112C17.672 5.748 24.373 2.197 32.838.512c3.431-.683 10.893-.683 14.324 0 8.465 1.685 15.166 5.236 21.126 11.192 5.96 5.956 9.513 12.654 11.2 21.112.683 3.43.683 10.887 0 14.316-1.687 8.459-5.24 15.156-11.2 21.113-5.93 5.925-12.729 9.54-20.978 11.15-2.27.443-9.344.767-11.31.519zm.98-5.633c.676-.746.238-1.5-.872-1.5-.636 0-.817.136-.893.674-.058.414.095.812.398 1.033.652.477.763.46 1.367-.207zm7.448 0c.641-.708.27-1.46-.782-1.586-.51-.06-.807.091-1.043.533-.286.533-.246.688.287 1.12.782.632.91.627 1.538-.067zm-14.894-.286c.102-.166-.022-.507-.277-.758-.431-.425-.49-.42-.86.079-.312.421-.324.582-.052.754.487.309.97.278 1.189-.075zm22.078-.015c.108-.175-.034-.486-.316-.692-.437-.32-.547-.313-.747.044-.434.775.596 1.402 1.063.648zm-14.461-6.756c.576-.52.66-1.482.173-1.97-.784-.783-2.703-.033-2.703 1.057 0 .51.99 1.332 1.633 1.355.216.008.62-.19.897-.442zm7.546-.103c.401-.443.452-.716.244-1.307-.438-1.246-2.443-1.18-2.763.09-.366 1.458 1.49 2.354 2.52 1.217zm-15.192-.087c.728-.531.38-1.834-.49-1.834-1.203 0-1.773 1.345-.808 1.907.632.368.7.364 1.298-.073zm22.475-.418c.193-.36.17-.655-.075-.991-.692-.946-2.444-.035-2.027 1.053.246.64 1.75.595 2.102-.062zm-30.049-.314c0-.362-.184-.551-.535-.551-.607 0-.961.415-.706.827.318.514 1.241.309 1.241-.276zm37.19-.069c.068-.358-.09-.482-.618-.482-.534 0-.71.141-.71.57 0 .434.149.55.618.483.34-.049.66-.305.71-.57zm-21.644-6.12c.401-.372.73-.936.73-1.254 0-.665-1.158-1.93-1.768-1.93-.857 0-1.8.656-2.075 1.443-.253.724-.195.905.516 1.616.98.978 1.641 1.01 2.597.125zm7.056.272c.968-.5 1.301-1.625.737-2.486-.864-1.318-2.914-1.087-3.428.386-.257.738-.207.947.405 1.674.787.934 1.165 1.005 2.286.426zm-14.555-.604c.657-.594.639-1.226-.058-1.973-.879-.943-1.806-.773-2.45.449-.753 1.427 1.262 2.651 2.508 1.524zm22.07 0c.685-.62.634-1.627-.11-2.147-.84-.589-1.23-.541-2.02.247-.821.822-.832.983-.114 1.753.67.718 1.548.776 2.243.147zm-29.901-.377c.679-1.087-.641-2.216-1.54-1.317a1.096 1.096 0 0 0 0 1.544c.496.495 1.148.4 1.54-.227zm37.178-.01c.64-.707.27-1.459-.783-1.585-1.01-.121-1.542.878-.866 1.625.613.676 1.01.667 1.649-.04zm-44.842-.519c0-.742-.522-.99-1.025-.488-.503.502-.254 1.024.49 1.024.345 0 .535-.19.535-.536zm52.08-.053c.1-.523-.742-.928-1.128-.542-.4.399.01 1.185.561 1.079.264-.051.519-.293.566-.537zm-28.887-6.007c.487-.485.807-1.096.807-1.537 0-.804-1.337-2.343-2.035-2.343-.826 0-1.875.67-2.284 1.46-.522 1.009-.098 2.229.978 2.813 1.078.585 1.643.498 2.534-.393zm7.449 0c.943-.942 1.027-1.871.259-2.847-.731-.929-1.737-1.15-2.778-.613-1.522.787-1.688 2.652-.33 3.72.976.767 1.906.683 2.849-.26zm-14.85-.351c1.552-1.793-1.002-4.01-2.74-2.379-.351.33-.638.834-.638 1.121 0 1.877 2.15 2.677 3.379 1.258zm22.262-.127c.655-.832.55-1.621-.316-2.369-.834-.72-2.008-.614-2.684.244-.733.931-.723 1.592.032 2.296.881.82 2.25.741 2.968-.17zm-30.21.091c1.033-.755.33-2.633-.997-2.658-.64-.012-1.617 1.293-1.4 1.87.398 1.063 1.517 1.43 2.397.788zm37.121-.185c.304-.304.552-.738.552-.965 0-.57-.999-1.518-1.586-1.508-.83.015-1.448.697-1.448 1.593 0 1.383 1.46 1.9 2.482.88zm-44.947-.01c1.013-.541.286-2.391-.785-1.997-.945.348-1.145 1.16-.455 1.85.513.512.55.517 1.24.148zm52.258-.986c0-.673-.124-.81-.798-.887-1.18-.134-1.683.881-.85 1.714.661.66 1.648.165 1.648-.827zm-59.786.396c.237-.236.242-.422.021-.689-.602-.725-1.458-.219-1.13.67.159.433.685.443 1.109.02zm66.888-.02c.327-.888-.529-1.394-1.13-.669-.222.267-.216.453.02.69.424.423.95.413 1.11-.02zm-36.305-5.492c.687-.336 1.203-1.336 1.203-2.33 0-1.06-1.396-2.31-2.579-2.31-2.347 0-3.553 2.653-1.904 4.188 1.174 1.093 1.794 1.178 3.28.452zm7.12.209c1.111-.464 1.53-1.15 1.53-2.5 0-2.28-2.763-3.212-4.468-1.508-.716.715-.817.984-.682 1.816.192 1.184.61 1.724 1.703 2.2 1.029.448.822.449 1.917-.008zm-14.213-.888c1.773-2.253-1.016-4.95-3.112-3.009-.954.883-.975 2.137-.053 3.059.949.948 2.397.926 3.165-.05zm22.11-.08c.443-.443.806-1.073.806-1.4 0-.91-1.451-2.205-2.474-2.205-1.143 0-2.215 1.068-2.215 2.206 0 2.034 2.387 2.895 3.883 1.4zm-30.516.36c.245-.095.616-.5.824-.902.52-1.005-.057-2.415-1.095-2.675-1.007-.253-2.173.637-2.284 1.744-.128 1.272 1.316 2.307 2.555 1.832zm37.415-.183c.241-.184.586-.614.767-.953.597-1.12-.537-2.53-2.049-2.55-.161-.001-.565.25-.897.56-1.606 1.495.449 4.271 2.18 2.943zm-44.315-1.108c.346-.99-.061-1.678-1.064-1.798-1.335-.158-1.938.9-1.247 2.191.462.864 1.96.609 2.31-.393zm51.998.033c.377-.675.368-.79-.103-1.31-1.236-1.364-3.164-.15-2.405 1.515.448.982 1.911.862 2.508-.205zm-59.798-.08c.237-.52.228-.78-.04-1.102-.65-.784-1.938-.331-1.938.68a1.025 1.025 0 0 0 1.978.422zm66.657.35c.473-.472.409-1.51-.105-1.707-.764-.292-1.192-.182-1.495.384-.596 1.113.72 2.202 1.6 1.324zm-36.062-6.54c1.038-1.036 1.093-2.414.14-3.52-.552-.643-.884-.774-1.954-.774-1.07 0-1.402.131-1.955.774-1.46 1.697-.273 4.326 1.955 4.326.746 0 1.217-.209 1.814-.805zm7.449 0c.621-.62.806-1.057.806-1.905 0-3.007-4.567-3.413-5.123-.455-.48 2.559 2.492 4.184 4.317 2.36zm-15.044-.146c1.393-1.392.44-4.023-1.448-4.001-.882.01-1.506.416-1.967 1.282-.494.927-.387 1.621.393 2.548.9 1.07 2.058 1.135 3.022.171zm21.818.188c1.407-1.14 1.449-2.688.097-3.65-1.03-.733-1.968-.69-2.852.128-2.02 1.871.621 5.249 2.755 3.522zm-29.73-.44c.598-.466.811-1.35.524-2.173-.453-1.298-2.52-1.419-3.21-.187-1.012 1.81 1.056 3.627 2.686 2.36zm37.409-.165c1.092-1.206.25-3.042-1.394-3.042-1.331 0-1.974.798-1.778 2.206.184 1.323 2.24 1.865 3.172.836zm-45.157-.163c1.117-.782.462-2.603-.937-2.603-1.114 0-1.59 1.602-.752 2.528.558.616.895.631 1.69.075zm52.164-.277c.791-1.005.253-2.326-.948-2.326-.637 0-1.5.907-1.5 1.577 0 .476 1.009 1.455 1.498 1.455.217 0 .644-.318.95-.706zm7.478-.386c.353-.658-.416-1.723-1.163-1.611-.863.13-1.145 1.218-.486 1.877.59.589 1.248.483 1.65-.266zm-66.894 0c.228-.72-.304-1.664-.938-1.664-.742 0-1.217.708-1.015 1.512.136.542.349.693.977.693.557 0 .857-.167.976-.54zm30.36-6.2c1.396-1.395.395-3.745-1.586-3.726-1.012.009-1.626.383-2.105 1.282-.496.931-.39 1.44.485 2.314 1.03 1.028 2.258 1.078 3.207.13zm7.45-.054c1.72-1.855-.317-4.446-2.76-3.51-.63.242-1.327 1.705-1.149 2.414.46 1.832 2.655 2.448 3.909 1.096zm-15.047-.3c1.526-1.938-.878-4.192-2.673-2.506-.79.742-.813 1.586-.067 2.534.778.988 1.95.976 2.74-.028zm22.181-.094c.885-1.051.89-1.362.038-2.282-.907-.978-2.121-.98-2.89-.003-.75.954-.722 1.63.106 2.457.926.926 1.872.867 2.746-.172zm-30.135.116c.926-.837.342-2.852-.827-2.852-1.324 0-1.92 2.105-.814 2.88.775.542 1.016.538 1.641-.028zm37.578-.717c.404-.64-.216-1.806-1.075-2.022-1.64-.411-2.49 2.08-.966 2.834.744.37 1.48.076 2.041-.812zm-45.084.222c.732-.882-.344-2.238-1.3-1.636-.955.6-.615 2.036.483 2.036.266 0 .634-.18.817-.4zm51.87-.01c.195-.234.266-.704.166-1.102-.287-1.145-2.094-.792-2.094.41 0 1.004 1.286 1.466 1.928.693zm7.175-.866c0-.51-.127-.669-.48-.601-.589.113-.81 1.041-.319 1.344.515.318.8.054.8-.743zm-66.808.108c-.131-.916-1.054-.997-1.054-.092 0 .534.141.71.57.71.434 0 .55-.15.484-.618zm30.494-6.138c.865-.865.763-2.31-.21-2.958-.513-.342-1.666-.234-2.311.218-.744.52-.826 1.911-.157 2.65.557.616 2.1.667 2.678.09zm7.61-.318c1.352-1.719-1.158-3.873-2.791-2.395-.629.569-.654 1.954-.048 2.624.7.774 2.14.658 2.838-.229zm-14.987-.246c.395-.601.408-.799.094-1.386-.675-1.26-2.047-1.15-2.782.223-.207.387-.166.7.159 1.194.61.932 1.909.916 2.53-.03zm21.945.246c.658-.595.64-1.338-.047-2.025-.727-.727-1.26-.696-2.079.122-1.39 1.389.664 3.226 2.126 1.903zm-29.864-.44c.29-.767-.101-1.585-.758-1.585-.995 0-1.511 1.182-.818 1.875.53.528 1.322.383 1.576-.29zm37.108.187c.513-.512.517-.55.148-1.239-.587-1.096-2.384-.33-1.981.845.302.88 1.162 1.064 1.833.394zm-44.937-.421c.246-.777-.26-1.279-.82-.814-.313.26-.348.48-.14.87.367.684.731.663.96-.056zm52.155-.015c.108-.174-.035-.486-.316-.692-.437-.319-.547-.312-.747.044-.434.775.596 1.403 1.063.648zm-29.387-6.584c.604-.323.727-1.616.202-2.14-.76-.76-2.703-.042-2.703 1 0 .606.827 1.425 1.44 1.425.29 0 .767-.128 1.06-.285zm7.548-.148c.848-.848.299-2.323-.865-2.323-.82 0-1.736.701-1.736 1.33 0 1.185 1.743 1.85 2.601.993zm-15.026-.242c.733-.883-.343-2.238-1.3-1.637-.954.601-.614 2.037.484 2.037.266 0 .633-.18.816-.4zm22.025.069c.597-.597.397-1.572-.362-1.762-1.263-.317-2.114 1.165-1.031 1.795.642.374.994.365 1.393-.033zm-29.788-.838c-.105-.74-.913-.974-1.158-.336-.232.606.02.953.692.953.416 0 .532-.153.466-.617zm37.291.082c0-.65-.351-.902-.94-.676-.737.282-.544 1.212.25 1.212.5 0 .69-.149.69-.536zM37.11 7.436c.464-.559-.067-1.784-.773-1.784-.62 0-1.165.515-1.165 1.103 0 1.011 1.288 1.464 1.938.68zm7.43.021c.406-.488.152-1.417-.451-1.648-.601-.23-1.382.048-1.58.563-.431 1.123 1.253 2.023 2.032 1.085zm-14.954-.634c.151-.452-.713-.776-1.084-.405-.159.158-.2.43-.094.603.244.394 1.025.263 1.178-.198zm22.07 0c.15-.452-.714-.776-1.085-.405-.159.158-.2.43-.094.603.244.394 1.025.263 1.178-.198z"/></svg>