<svg xmlns="http://www.w3.org/2000/svg" xml:space="preserve" width="80" height="80"><path d="M38.504 79.968a40.12 40.12 0 0 1-14.36-3.251 39.998 39.998 0 0 1-16.172-60.68A40.009 40.009 0 0 1 42.504.078a39.996 39.996 0 0 1 37.399 37.226 39.955 39.955 0 0 1-2.783 17.58A40.088 40.088 0 0 1 66.024 70.37a40.127 40.127 0 0 1-12.04 7.1 40.178 40.178 0 0 1-15.48 2.498zm2.683-6.478c1.324-.106 2.634-.499 4.05-1.213 2.495-1.259 5.134-3.59 8.07-7.133a7.41 7.41 0 0 1 1.555-1.365c.57-.374 1.081-.601 1.655-.737.258-.06.35-.07.76-.07.54 0 .787.048 1.227.232.775.326 1.117.377 1.543.23.522-.18.942-.746 1.202-1.622.191-.644.472-2.06.587-2.961.189-1.482.213-3.26.065-4.76-.348-3.537-1.59-6.867-3.515-9.42-2.358-3.13-5.571-4.967-9.389-5.367-1.701-.178-4.12.029-5.336.455-.983.345-1.235.815-.795 1.48.162.246.568.633 1.07 1.02 3.866 2.988 5.985 6.855 6.342 11.578.052.692.051 2.058-.002 2.667-.29 3.337-1.633 6.5-4.017 9.46-1.624 2.015-4.065 4.16-6.115 5.373-.64.378-.901.562-1.152.808-.24.235-.327.386-.328.566-.003.599.98.902 2.523.779zm-9.628-4.146c.528-.107 1.744-.495 2.58-.824 5.48-2.156 9.841-6.519 11.455-11.456 1-3.064.911-6.137-.264-9.071a16.734 16.734 0 0 0-.988-1.982c-.996-1.666-2.19-3.047-2.922-3.378-.1-.046-.182-.06-.36-.06-.216-.002-.239.003-.347.079-.34.239-.567.82-.688 1.766-.431 3.357-1.612 6.129-3.625 8.513-1.628 1.928-4.032 3.648-6.43 4.6-3.395 1.35-7.353 1.49-11.533.413-1.86-.48-4.113-1.359-5.508-2.148-1.331-.754-1.885-.851-2.14-.375-.089.166-.08.56.02.87.273.84.985 1.902 1.868 2.786 2.4 2.403 6.11 3.949 11.933 4.975.864.152 1.416.323 2.103.654.442.212.732.386 1.038.622.488.378.874.835 1.109 1.316.187.383.256.65.338 1.313.075.608.37 1.094.786 1.3.382.189.923.219 1.575.087zm36.727-11.87c.162-.094.481-.403.644-.623.436-.588.9-1.548 1.15-2.381.398-1.315.553-2.639.5-4.26-.081-2.45-.789-5.479-2.127-9.102-.412-1.117-.548-2.478-.347-3.467.185-.91.653-1.663 1.329-2.137.88-.618 1.115-1.3.723-2.107-.22-.453-.526-.813-1.274-1.5a20.803 20.803 0 0 0-2.127-1.743c-3.025-2.159-6.443-3.454-10.026-3.801-.674-.066-2.374-.066-3 0-1.926.2-3.426.611-4.974 1.365-3.113 1.515-5.469 4.24-6.822 7.895-.247.667-.364 1.194-.364 1.64 0 .422.102.648.354.786.12.066.175.078.396.087.411.017.814-.082 1.509-.372 1.738-.724 3.33-1.129 5.127-1.303a19.472 19.472 0 0 1 2.174-.03c2.232.145 4.198.69 6.28 1.739 2.238 1.127 3.963 2.54 5.477 4.487 1.822 2.342 3.168 5.414 3.838 8.764a24.41 24.41 0 0 1 .485 4.146c.04 1.07.074 1.35.198 1.629.069.157.17.293.25.336.16.087.43.067.627-.048zm-42.102-3.822c1.114-.114 1.978-.274 2.871-.533 4.08-1.184 7.159-4.081 8.843-8.322.399-1.005.545-1.606.52-2.139-.014-.308-.057-.44-.189-.576-.147-.154-.268-.2-.556-.213-.433-.019-.805.08-1.756.47a17.38 17.38 0 0 1-3.56 1.03 14.05 14.05 0 0 1-2.293.219c-2.283.055-4.485-.397-6.707-1.377a24.338 24.338 0 0 1-1.72-.883c-2.379-1.388-4.258-3.274-5.753-5.775a24.591 24.591 0 0 1-1.097-2.122c-.893-2.029-1.532-4.374-1.828-6.714a21.741 21.741 0 0 1-.188-2.453c-.028-.94-.066-1.21-.214-1.512-.115-.234-.223-.31-.453-.324a.545.545 0 0 0-.336.064c-.217.102-.613.502-.843.852C10 24.75 9.49 26.534 9.414 28.62c-.102 2.808.558 5.99 2.139 10.3.165.449.308 1.065.379 1.634.062.495.042 1.42-.038 1.791-.205.941-.659 1.67-1.334 2.145-.59.413-.869.822-.902 1.32-.031.472.22 1.013.743 1.602.183.205.902.878 1.363 1.275 3.306 2.842 7.554 4.65 11.66 4.962l.493.038c.238.02 1.993-.008 2.267-.036zm7.36-12.937c.486-.033.96-.088 1.507-.174 1.24-.197 2.037-.538 2.23-.957a.794.794 0 0 0 0-.541c-.115-.304-.536-.782-.99-1.124-2.903-2.187-4.822-4.791-5.835-7.922-.41-1.267-.646-2.512-.752-3.967-.036-.499-.036-1.952 0-2.393.176-2.161.734-4.113 1.747-6.106 1.175-2.313 2.91-4.495 5.123-6.44 1.023-.899 2.354-1.888 3.273-2.431.644-.381.905-.564 1.153-.81.236-.234.33-.396.33-.569 0-.546-.795-.842-2.133-.794a7.926 7.926 0 0 0-1.813.245c-1.723.424-3.352 1.236-5.08 2.534-1.645 1.234-3.508 3.066-5.275 5.185-.695.833-1.186 1.29-1.898 1.765-.77.514-1.526.781-2.294.812-.557.023-.98-.063-1.53-.31-.366-.165-.613-.225-.923-.223-.423.004-.693.125-.997.45-.268.286-.481.698-.642 1.24-.193.651-.473 2.059-.586 2.946-.188 1.49-.214 3.35-.067 4.773.173 1.67.471 3.053.982 4.563 1.22 3.605 3.44 6.557 6.25 8.308 2.415 1.505 5.146 2.15 8.22 1.94zm5.633-3.317c.39-.163.662-.79.793-1.832.625-4.943 3.022-8.846 7.08-11.53 2.155-1.423 4.337-2.238 6.848-2.557.87-.11 1.264-.133 2.286-.132 1.754 0 3.254.186 5.055.625 1.976.482 4.342 1.386 5.82 2.224 1.285.727 1.832.842 2.105.441.322-.472-.092-1.568-1.077-2.856-.506-.66-1.27-1.393-2.09-2.002-2.384-1.772-5.83-3.01-10.759-3.863a7.074 7.074 0 0 1-1.974-.637c-.615-.296-1.05-.592-1.437-.979-.607-.606-.92-1.247-1.004-2.056-.1-.957-.436-1.434-1.146-1.624-.256-.069-.78-.062-1.17.014-.327.064-1.187.317-1.83.538a21.269 21.269 0 0 0-4.8 2.38c-3.694 2.454-6.382 5.873-7.55 9.603-.463 1.482-.68 3.126-.601 4.575.102 1.89.531 3.521 1.379 5.24.997 2.023 2.66 4.101 3.532 4.413.175.062.411.07.54.015z" style="fill:#000;stroke-width:.0266667"/></svg>