<svg version="1.1" viewBox="0 0 80 80" xmlns="http://www.w3.org/2000/svg"><path d="m40 0c-22.091 0-40 17.909-40 40s17.909 40 40 40 40-17.909 40-40-17.909-40-40-40zm-1.0879 7.1738 1.3945 3.2344-12.773 22.125-2.4473-1.4102 13.826-23.949zm4.0938 0 13.826 23.949-2.4473 1.4102-12.773-22.125 1.3945-3.2344zm-18.916 25.674 2.4453 1.4121-12.775 22.127-3.4961 0.41016 13.826-23.949zm33.738 0 13.826 23.949-3.4961-0.41016-12.775-22.127 2.4453-1.4121zm-43.416 24.67h25.551v2.8242h-27.654l2.1035-2.8242zm27.543 0h25.551l2.1035 2.8242h-27.654v-2.8242z"/></svg>
