<svg version="1.1" viewBox="0 0 80 80" xmlns="http://www.w3.org/2000/svg"><path d="m40 0c-22.091 0-40 17.909-40 40s17.909 40 40 40 40-17.909 40-40-17.909-40-40-40zm2.6699 6.3203c0.20354-0.025597 0.39288 0.017523 0.64062 0.11914 1.1632 0.47712 1.4932 1.9691 0.64258 2.9062-0.60041 0.66156-1.1136 0.78757-1.9004 0.46484-0.8161-0.33474-1.1757-1.0504-1-1.9922 0.1219-0.65336 0.27045-0.85381 0.89453-1.207 0.30159-0.1707 0.51912-0.26542 0.72266-0.29102zm5.9336 0.51758c0.28935-0.019876 0.60396 0.071087 0.92578 0.28125 0.62318 0.40694 0.67264 0.48589 0.68164 1.0801 0.009979 0.68639-0.23924 1.1599-0.76758 1.459-1.1034 0.62453-2.4775-0.63042-1.9902-1.8184 0.25639-0.6251 0.66814-0.96883 1.1504-1.002zm-9.9785 0.64062c0.78362 0.075438 1.2717 1.0247 0.94141 1.8301-0.13872 0.3382-0.37928 0.68716-0.53516 0.77539-0.48225 0.27295-1.297 0.083176-1.7344-0.4043-0.81826-0.91206 0.034635-2.3257 1.3281-2.2012zm-4.7891 0.4375c0.15767-0.015505 0.32782-0.001058 0.51172 0.042969 1.2312 0.29475 1.5416 2.0811 0.4668 2.6895-1.126 0.63733-2.5364-0.59369-2.0469-1.7871 0.23941-0.58367 0.59534-0.8988 1.0684-0.94531zm20.229 0.10352c0.10258 0.010773 0.21538 0.035605 0.34766 0.072266 0.84189 0.23333 1.2164 0.89416 0.98242 1.7383-0.10109 0.36477-0.38499 0.77881-0.63086 0.91797-0.56395 0.31919-1.6992 0.017046-2.0117-0.53516-0.32839-0.5802-0.12262-1.3714 0.48828-1.8789 0.30844-0.25626 0.51648-0.34677 0.82422-0.31445zm-25.959 0.0058594c0.13779-0.021466 0.28398-0.022838 0.43359 0 0.82095 0.12532 1.1683 0.48152 1.2637 1.293 0.17814 1.5155-2.0203 2.2779-2.7539 0.95508-0.52538-0.94734 0.092096-2.0978 1.0566-2.248zm19.838 2.8398c0.27135-0.032787 0.55515-0.002405 0.83398 0.10352 0.87609 0.3328 1.3774 1.4898 1.0215 2.3574-0.43 1.0484-1.8523 1.449-2.7715 0.78125-0.64184-0.46627-0.77506-0.76432-0.69336-1.5488 0.096195-0.92397 0.79533-1.595 1.6094-1.6934zm-5.2559 0.1582c0.10009 0.00715 0.19825 0.026128 0.29492 0.05664 1.1806 0.37263 1.2931 1.9579 0.18359 2.5859-0.97143 0.54982-2.0926-0.33862-1.9746-1.5645 0.061058-0.63434 0.79546-1.1282 1.4961-1.0781zm-18.248 0.58984c0.13616 0.006548 0.27373 0.0268 0.41211 0.060547 2.1651 0.52802 2.3235 3.8207 0.20703 4.3027-0.90429 0.20596-1.8232-0.045422-2.2109-0.60547-0.66291-0.95765-0.77912-1.4438-0.5332-2.2266 0.30637-0.9752 1.1719-1.5771 2.125-1.5312zm11.969 0.10156c0.17641-0.001471 0.35812 0.027941 0.54102 0.09375 0.94336 0.33946 1.3106 1.0905 1.0293 2.1055-0.19711 0.71121-0.32194 0.85937-0.92383 1.084-0.75942 0.28341-1.8584 0.018602-2.1641-0.52148-0.692-1.2226 0.28271-2.7514 1.5176-2.7617zm16.803 0.37305c0.079254 0.002526 0.1526 0.015343 0.2207 0.039062 0.99557 0.34676 1.3906 1.3542 0.83203 2.123-0.94698 1.3037-2.944 0.34158-2.5137-1.2109 0.13833-0.49915 0.90616-0.96886 1.4609-0.95117zm-22.426 0.10547c0.29693 0.048423 0.73383 0.30846 0.9707 0.57812 0.35239 0.4012 0.39514 0.61492 0.24024 1.1738-0.22982 0.82924-0.80008 1.1867-1.6777 1.0527-0.85884-0.1311-1.3698-0.97434-1.1055-1.8242 0.22409-0.72044 0.83494-1.1007 1.5723-0.98047zm27.373 0.039063c0.17208 0.007142 0.36941 0.045034 0.60156 0.10938 0.93232 0.25838 1.305 0.80829 1.166 1.7188-0.08039 0.52663-0.24702 0.73979-0.83789 1.0742-0.94029 0.5322-1.5237 0.35938-2.0742-0.61328-0.35635-0.62968-0.36119-0.80607-0.041016-1.3809 0.374-0.67141 0.66931-0.92963 1.1855-0.9082zm4.0879 0.63086c0.087036-9.05e-4 0.17612 0.009233 0.26562 0.029297 0.87564 0.19629 1.1115 0.44018 1.1602 1.1992 0.08276 1.2911-1.3488 2.0103-2.2461 1.1289-0.39601-0.38915-0.46809-0.59435-0.40039-1.1367 0.089092-0.71397 0.61145-1.2144 1.2207-1.2207zm-22.805 2.209c0.1621-0.00322 0.3314 0.016642 0.50391 0.064453 0.36477 0.10109 0.71986 0.28507 0.78906 0.4082 0.22387 0.39821 0.086356 1.6815-0.21484 2.0059-0.66789 0.7192-1.9519 0.60507-2.416-0.21484-0.6001-1.0603 0.20319-2.2411 1.3379-2.2637zm5.8242 0.14062c0.18506-0.014672 0.38836 0.002156 0.60742 0.050781 1.0954 0.24315 1.2962 2.06 0.29102 2.6289-1.1117 0.62919-2.3588-0.45848-2.002-1.7461 0.15688-0.56605 0.54835-0.88958 1.1035-0.93359zm19.904 0.082031c0.16615 0.00179 0.34428 0.03659 0.53125 0.11328 0.73482 0.3014 0.95396 0.6371 0.88477 1.3555-0.038351 0.39841-0.22561 0.63332-0.72852 0.91797-0.5733 0.32448-0.75914 0.3274-1.2246 0.023437-1.1954-0.78067-0.62591-2.4227 0.53711-2.4102zm-13.555 0.52539c0.20248-0.002186 0.39942 0.023158 0.53906 0.076172 0.66674 0.25314 0.87253 0.65243 0.75 1.4551-0.1387 0.90863-1.0226 1.4074-1.873 1.0586-0.81492-0.33423-1.0296-0.76384-0.79688-1.6035 0.15502-0.55932 0.31121-0.73321 0.80273-0.89844 0.16758-0.05633 0.37564-0.085704 0.57812-0.087891zm-32.586 0.38867c0.83057 0.11614 1.4304 1.372 0.875 2.1719-0.31165 0.44885-0.44476 0.52278-0.92383 0.52148-0.71315-0.001945-1.1472-0.38377-1.3574-1.1973-0.18115-0.70104 0.19914-1.241 1.0391-1.4727 0.12541-0.034592 0.24854-0.040029 0.36719-0.023438zm7.8789 0.13867c0.19678-0.002765 0.38729 0.034523 0.55664 0.11524 0.83421 0.39747 1.2835 1.7029 0.83203 2.416-0.13168 0.20802-0.50238 0.52683-0.82422 0.70898-1.4119 0.79911-2.9529-0.87523-2.127-2.3105 0.32341-0.56198 0.97217-0.92139 1.5625-0.92969zm30.135 0.12695c0.17681-0.010796 0.36114 0.0094 0.55273 0.0625 0.85843 0.2379 1.1843 0.83801 0.9375 1.7285-0.38665 1.3951-1.9305 1.5668-2.6504 0.29492-0.29144-0.51492-0.31504-0.7806-0.10742-1.1836 0.28665-0.5564 0.73714-0.86995 1.2676-0.90234zm-23.799 0.2207c0.13 0.016789 0.28979 0.05052 0.44531 0.09961 1.2275 0.38744 1.2916 1.9606 0.10742 2.6309-0.47787 0.27048-0.71704 0.27211-1.1797 0.00586-0.3188-0.18346-0.6676-0.4912-0.77539-0.68164-0.24188-0.42736 0.26173-1.854 0.67578-1.916 0.16653-0.024936 0.36972-0.083629 0.45312-0.13086 0.04172-0.023615 0.14344-0.024601 0.27344-0.007813zm-11 0.082032c0.1554-0.004127 0.32552 0.023506 0.51367 0.082031 0.73199 0.22769 1.0033 0.67582 0.86524 1.4336-0.13923 0.76416-0.98227 1.2435-1.6367 0.93164-0.68451-0.32624-0.92657-0.85909-0.70898-1.5586 0.18082-0.58134 0.5006-0.87629 0.9668-0.88867zm39.416 0.56055c0.084911 0.001966 0.16493 0.014739 0.23828 0.039062 0.27131 0.089968 0.62978 0.44441 0.86133 0.85352 0.31326 0.55347 0.33855 0.80998 0.12695 1.2207-0.14716 0.28565-0.39104 0.58979-0.54297 0.67578-0.33727 0.1909-1.1693 0.22727-1.4883 0.066406-0.46125-0.23257-0.94546-1.3467-0.78906-1.8184 0.182-0.54885 0.99937-1.0509 1.5938-1.0371zm5.4004 1.4961c0.086508 0.002564 0.1681 0.016449 0.24219 0.041016 0.62726 0.208 1.1907 1.2452 0.99609 1.832-0.08996 0.27131-0.44441 0.62782-0.85352 0.85938-0.55346 0.31326-0.80803 0.3405-1.2188 0.12891-1.1992-0.61778-1.2245-1.9333-0.050781-2.5977 0.31769-0.17981 0.62524-0.27136 0.88477-0.26367zm-49.938 0.78906c0.18898-0.001144 0.35621 0.029209 0.45508 0.091797 1.3275 0.84036 0.52827 3.0648-0.92773 2.582-0.65669-0.21776-1.1353-1.1302-0.94727-1.8086 0.11621-0.41933 0.29327-0.58328 0.83203-0.76758 0.18808-0.064311 0.39891-0.096512 0.58789-0.097656zm6.4102 0.42773c0.44455 0.056 1.13 0.80093 1.207 1.3105 0.14521 0.96059-1.0292 1.8449-1.873 1.4102-0.72163-0.37195-0.91464-0.80396-0.72266-1.6152 0.1773-0.7492 0.72812-1.1887 1.3887-1.1055zm6.1406 0.11719c0.22673-0.011411 0.43515 0.067042 0.75781 0.22852 0.85046 0.42561 1.1127 0.83103 1.168 1.8008 0.05286 0.92734-0.63648 1.7252-1.6973 1.9668-1.2954 0.29505-2.4315-0.99106-2.1602-2.4453 0.13542-0.72574 0.22971-0.83406 1.0566-1.2402 0.4031-0.198 0.64827-0.29914 0.875-0.31055zm-16.592 1.3125c0.67169-0.015754 0.88704 0.084172 1.2148 0.56445 0.53638 0.78587 0.31584 1.4591-0.61914 1.8906-1.2357 0.57028-2.3327-0.64946-1.6953-1.8867 0.26855-0.52128 0.32426-0.55018 1.0996-0.56836zm6.5098 0.62891c0.166-0.023363 0.36188 0.01349 0.64453 0.10352 0.89071 0.2837 1.2278 0.86657 0.99219 1.7168-0.22997 0.82979-0.67467 1.0897-1.5625 0.91406-0.59721-0.11816-0.72446-0.23178-0.92578-0.82031-0.26372-0.77094-0.18482-1.1063 0.39062-1.6543 0.15996-0.15232 0.29494-0.2364 0.46094-0.25977zm25.381 0.19531c0.19805-0.031694 0.42548 0.00795 0.77734 0.10547 1.4484 0.40142 1.7956 1.7598 0.76758 2.9961-0.27653 0.33256-0.50962 0.4198-1.0664 0.40234-0.93257-0.029238-1.4837-0.39708-1.7461-1.1641-0.26895-0.78623-0.054644-1.4385 0.66016-2.0117 0.23964-0.19217 0.40937-0.29643 0.60742-0.32812zm4.8262 0.083984c1.9055-0.069284 2.7093 2.0366 1.2109 3.1719-0.59873 0.45362-0.74839 0.47893-1.502 0.24219-0.46046-0.14466-0.94373-0.45305-1.0742-0.68359-0.32066-0.56655-0.23757-1.4914 0.19531-2.1543 0.32564-0.49864 0.42821-0.5492 1.1699-0.57617zm5.6191 0.015625c0.39726 0.018006 0.77977 0.12202 1 0.30469 1.083 0.89831 1.1797 2.5013 0.19141 3.1719-0.82065 0.55678-1.172 0.65003-1.8555 0.48828-1.6105-0.38112-1.8998-2.9227-0.42773-3.7559 0.28248-0.15988 0.69454-0.22699 1.0918-0.20898zm-29.811 0.72852c0.079571 0.007497 0.15584 0.025358 0.22852 0.056641 0.88254 0.37986 1.012 1.7631 0.20703 2.2188-0.4277 0.24208-1.3665 0.001681-1.5996-0.41016-0.09544-0.16868-0.15145-0.54728-0.12305-0.8418 0.055703-0.57855 0.73011-1.0759 1.2871-1.0234zm34.182 0.51563c0.1525-0.003733 0.31617 0.019575 0.49219 0.068359 0.57613 0.15967 1.1803 1.3058 0.99023 1.8789-0.19507 0.58827-1.0102 1.0567-1.7207 0.98828-0.44562-0.042898-0.61297-0.191-0.89648-0.79102-0.29052-0.61486-0.28715-0.84529 0.023437-1.377 0.29526-0.50542 0.65384-0.75638 1.1113-0.76758zm-19.326 0.42969c0.18687-1.79e-4 0.39155 0.031757 0.61523 0.09375 0.96595 0.2677 1.5116 1.0911 1.3633 2.0625-0.0819 0.53655-0.24438 0.73741-0.88086 1.0977-0.97744 0.55322-1.6853 0.34813-2.2598-0.65625-0.44472-0.7775-0.45502-0.97725-0.085937-1.7305 0.28598-0.58362 0.68744-0.86665 1.248-0.86719zm-27.809 1.1055c0.1725-8.13e-4 0.35819 0.037392 0.55273 0.11719 1.1211 0.45985 1.3263 1.4902 0.44727 2.2441-0.3949 0.33871-0.62082 0.38199-1.1816 0.22656-0.87068-0.2413-1.1535-0.72834-0.91797-1.5781 0.18101-0.65315 0.5821-1.0073 1.0996-1.0098zm23.555 0.076172c0.31234-0.023035 0.67421 0.082469 1.0605 0.32812 0.60631 0.38552 0.71121 0.67224 0.52734 1.4492-0.25242 1.0667-1.1442 1.4312-2.0527 0.83789-0.70629-0.46124-0.74223-0.55396-0.57227-1.4648 0.13314-0.71357 0.51654-1.112 1.0371-1.1504zm-18.037 0.99414c0.13523 0.010773 0.27431 0.043439 0.41602 0.10156 0.73482 0.3014 0.95396 0.63514 0.88476 1.3535-0.1102 1.1447-1.8527 1.4341-2.4355 0.4043-0.52798-0.93285 0.18815-1.9348 1.1348-1.8594zm34.93 0.11133c0.45825-0.009068 0.8914 0.12934 1.166 0.44727 0.71423 0.82686 0.83079 1.4497 0.44727 2.3848-0.43848 1.069-1.6216 1.449-2.6562 0.85352-0.94307-0.54272-1.2466-1.4805-0.82617-2.5488 0.27398-0.69618 1.1054-1.1216 1.8691-1.1367zm-20.119 0.77734c0.08883 0.002048 0.1757 0.017633 0.25977 0.046875 1.0667 0.37104 1.4172 1.4659 0.72266 2.2617-0.94076 1.0779-2.5606 0.41416-2.3867-0.97852 0.091017-0.72879 0.78248-1.3444 1.4043-1.3301zm-11.422 0.019531c0.067871 5.82e-4 0.13648 0.010286 0.20508 0.029297 0.17833 0.049424 0.43848 0.29233 0.57812 0.53906 0.32361 0.57176 0.1964 1.0279-0.37891 1.3535-0.67409 0.38153-1.4006-0.12273-1.3477-0.93555 0.036671-0.56347 0.46826-0.9904 0.94336-0.98633zm26.717 0.06836c0.10563 0.005047 0.21501 0.020316 0.32812 0.044922 1.0825 0.23548 1.6195 1.2007 1.3457 2.4219-0.16561 0.7388-1.1447 1.1697-2.0742 0.91211-1.0861-0.30103-1.4928-1.048-1.1562-2.1191 0.26893-0.85604 0.8172-1.2951 1.5566-1.2598zm-22.973 0.019531c1.4696 0.23265 1.4487 2.6468-0.023438 2.6816-1.0662 0.025212-1.7106-0.77857-1.4316-1.7852 0.14106-0.50898 0.91002-0.98276 1.4551-0.89648zm-16.047 0.13281c0.17118-0.001509 0.34965 0.024191 0.53125 0.082032 1.4391 0.45835 1.6235 2.3265 0.30469 3.0898-0.76753 0.44425-1.7797 0.16098-2.2246-0.625-0.66762-1.1795 0.19043-2.5363 1.3887-2.5469zm49.551 0.38281c0.17324-0.009098 0.36425 0.010396 0.57617 0.060547 0.88272 0.2089 1.3257 0.93662 1.0703 1.7578-0.22936 0.73735-1.063 1.2487-1.6953 1.0391-0.67896-0.22515-1.2137-1.2831-0.99609-1.9727 0.17794-0.56377 0.5252-0.85747 1.0449-0.88477zm4.9355 0.16992c0.18181-0.008796 0.37328 0.010388 0.56836 0.064453 0.64103 0.17766 1.3114 1.0236 1.4121 1.7793 0.0514 0.38566-0.58365 1.2929-1.1152 1.5938-0.5876 0.33258-1.9505-0.036294-2.2793-0.61719-0.72118-1.2742 0.14141-2.7587 1.4141-2.8203zm-19.299 0.96094c0.16603-0.007173 0.33983 0.00867 0.51758 0.050782 1.5954 0.37799 1.8627 2.4685 0.41992 3.2852-0.91129 0.51578-2.0881 0.093598-2.4512-0.87891-0.45783-1.2263 0.35147-2.4068 1.5137-2.457zm-4.1348 0.38672c0.23378-0.024091 0.48772 0.016948 0.74414 0.13672 0.77582 0.36238 1.0199 0.76232 0.9082 1.4863-0.26164 1.6961-2.5589 1.6896-2.7676-0.007812-0.10878-0.8847 0.41391-1.543 1.1152-1.6152zm-3.5723 0.23242c0.099398 0.003912 0.19861 0.020042 0.29492 0.048828 0.94517 0.28249 1.56 1.3798 1.2676 2.2617-0.23959 0.72252-1.36 1.3234-2.0898 1.1211-0.85094-0.23583-1.3677-1.2173-1.1172-2.1211 0.2165-0.78118 0.94874-1.3379 1.6445-1.3105zm-23.291 0.015625c0.15332 0.001041 0.32512 0.028151 0.51953 0.082031 0.87089 0.24136 1.2137 0.87418 0.89453 1.6523-0.33381 0.81385-0.76609 1.0284-1.6016 0.79688-0.80943-0.22432-1.1218-0.92765-0.78125-1.7617 0.21674-0.53083 0.50878-0.77266 0.96875-0.76953zm16.875 0.62891c0.3808-0.014398 0.87748 0.12698 1.1035 0.31445 0.57789 0.47933 0.75266 0.85109 0.69336 1.4668-0.07867 0.81718-0.45126 1.2697-1.2969 1.5762-0.64169 0.23254-0.85359 0.20415-1.3633-0.19141-0.54493-0.4229-0.61139-0.55021-0.67969-1.2949-0.09924-1.0826 0.51925-1.8324 1.543-1.8711zm-11.188 0.058594c0.23532 0.001249 0.46512 0.071942 0.65625 0.23047 0.62746 0.52042 0.80779 0.95466 0.64258 1.5508-0.19933 0.71922-1.0249 1.1666-1.7383 0.94141-0.64456-0.20344-0.88888-0.54665-0.95898-1.3457-0.066547-0.75851 0.69249-1.3807 1.3984-1.377zm31.82 0.41211c0.38915 0.033884 0.76397 0.17096 1.0254 0.40039 0.65742 0.57703 0.64992 0.5529 0.57812 1.4902-0.05152 0.67218-0.17925 0.88765-0.75195 1.2695-0.89744 0.59842-1.7102 0.54864-2.293-0.14258-0.76012-0.90156-0.59715-2.2788 0.33203-2.8047 0.31646-0.17912 0.72022-0.24678 1.1094-0.21289zm5.6602 0.054688c0.23018 0.026883 0.47218 0.11361 0.71094 0.26953 0.72646 0.47442 0.82946 0.72109 0.63867 1.5273-0.16169 0.68325-0.82838 1.2646-1.3887 1.2129-0.38336-0.035346-1.3044-0.51875-1.4375-0.75391-0.0645-0.11395-0.051103-0.55921 0.029297-0.99023 0.16291-0.87308 0.75674-1.3463 1.4473-1.2656zm-33.295 1.252c0.21854 0.004675 0.35539 0.15516 0.58594 0.5625 0.45057 0.79607 0.35898 1.2047-0.35938 1.6113-0.70891 0.40124-1.1609 0.21584-1.5566-0.64062-0.28156-0.60928-0.26469-0.72971 0.14453-1.0273 0.25482-0.18533 0.67379-0.39568 0.93164-0.4668 0.097578-0.026914 0.18106-0.04062 0.25391-0.039062zm-16.072 0.6875c0.18146 0.001894 0.35866 0.033935 0.51562 0.10156 0.62513 0.26935 0.88678 0.89381 0.68359 1.627-0.30558 1.1026-1.3448 1.3839-2.2715 0.61523-0.51034-0.4233-0.59033-0.95777-0.25-1.6719 0.19506-0.40928 0.77787-0.67756 1.3223-0.67188zm3.9395 0.44336c0.17384-0.001465 0.36172 0.03759 0.56055 0.11914 0.75185 0.30838 0.98688 0.68824 0.86719 1.4043-0.13119 0.78488-1.0679 1.3099-1.791 1.0039-0.74482-0.31517-0.90494-0.65241-0.70898-1.4805 0.15941-0.67366 0.55075-1.0425 1.0723-1.0469zm4.4707 0.26562c0.12151-0.002249 0.25155 0.006413 0.38867 0.027344 0.66099 0.1009 1.2905 0.84112 1.2578 1.4785-0.02772 0.53966-0.75774 1.2232-1.3887 1.3008-0.69306 0.085214-1.5302-0.54833-1.5449-1.1699-0.024728-1.0454 0.43652-1.621 1.2871-1.6367zm18.445 0.13281c0.17867 0.011977 0.33365 0.050924 0.44141 0.11914 0.19376 0.12266 0.51112 0.50301 0.70508 0.8457 0.75975 1.3423-0.47938 2.898-1.9375 2.4336-1.2787-0.40728-1.6597-1.8853-0.75586-2.9277 0.2684-0.30958 1.0108-0.50664 1.5469-0.4707zm33.439 0.34375c0.12461-0.009133 0.25404-0.006204 0.38867 0.007812 0.96583 0.10055 1.7855 1.3367 1.5938 2.4043-0.08201 0.4567-0.81306 1.1008-1.4824 1.3066-1.0247 0.31509-2.342-0.91126-2.1582-2.0098 0.17128-1.0237 0.78594-1.6451 1.6582-1.709zm-5.9844 0.099609c0.36876 0.035501 0.63628 0.22843 0.85742 0.61914 0.39374 0.69568 0.19582 1.3928-0.50781 1.791-1.0119 0.57274-2.139-0.36711-1.7852-1.4883 0.21333-0.67587 0.7063-0.99208 1.4355-0.92188zm-33.307 0.1875c0.37769 0.008871 0.72301 0.11037 0.91016 0.30078 0.64039 0.65155 0.78676 1.1448 0.57031 1.9258-0.24798 0.89475-0.75959 1.2729-1.623 1.1992-0.80872-0.068987-1.0028-0.18521-1.3652-0.81836-0.40394-0.70574-0.17752-2.0242 0.4043-2.3535 0.31556-0.1786 0.72582-0.26278 1.1035-0.25391zm-8.4609 0.095703c0.14129 0.002699 0.29203 0.024254 0.45117 0.06836 0.36477 0.10109 0.75488 0.3465 0.86719 0.54492 0.27354 0.4833-0.066 1.6342-0.5625 1.9062-0.67122 0.36772-1.3213 0.16254-1.6895-0.5332-0.5654-1.0685-0.055467-2.0052 0.93359-1.9863zm36.381 0.71484c0.22412-0.022835 0.4611 0.001037 0.70312 0.078125 1.5197 0.48404 1.7488 2.5093 0.37109 3.2891-1.4244 0.80621-2.9621-0.41798-2.5215-2.0078 0.22023-0.79464 0.77492-1.2909 1.4473-1.3594zm-5.2422 0.17969c0.11022 0.009117 0.22306 0.031002 0.34375 0.064453 0.94986 0.26325 1.5427 1.346 1.2461 2.2773-0.30955 0.97188-1.2476 1.4681-2.2207 1.1758-0.93691-0.2814-1.3276-0.9552-1.1797-2.0312 0.09535-0.69381 0.22391-0.88724 0.80273-1.2148 0.37629-0.21298 0.67714-0.29884 1.0078-0.27148zm-12.357 1.1582c0.42024 0.012092 0.83954 0.17201 1.1934 0.52539 0.28231 0.28196 0.52657 0.556 0.54297 0.60938 0.33098 1.0788 0.24265 1.575-0.41602 2.3008-0.96432 1.0625-2.8818 0.64491-3.3516-0.72852-0.49396-1.444 0.77054-2.7433 2.0312-2.707zm-23.783 1.1133c0.22719-0.010494 0.46818 0.028135 0.71484 0.12109 1.9505 0.73507 0.9405 3.6106-1.0723 3.0527-0.86157-0.23882-1.2786-0.97421-1.0645-1.8789 0.18623-0.787 0.7403-1.2634 1.4219-1.2949zm49.461 0.24805c0.11808 0.005487 0.24228 0.020887 0.37109 0.044922 0.64775 0.12086 0.85226 0.27119 1.1836 0.86719 0.64661 1.1631 0.26297 2.2154-0.96289 2.6348-1.4991 0.5128-2.7423-0.76697-2.25-2.3164 0.27108-0.85324 0.83166-1.2689 1.6582-1.2305zm-43.896 0.28516c0.35697 0.006614 0.83744 0.15062 1.0684 0.31836 1.7238 1.2522 0.33717 3.996-1.6465 3.2578-0.85096-0.31667-1.0939-0.65024-1.2168-1.6758-0.14124-1.1787 0.56235-1.9232 1.7949-1.9004zm11.082 0c0.13346 8.13e-4 0.27293 0.016922 0.41602 0.050781 1.8088 0.42804 1.7638 3.2664-0.052734 3.334-1.2847 0.047771-1.8704-0.40682-1.916-1.4844-0.047985-1.1335 0.6185-1.9061 1.5527-1.9004zm-4.9688 0.36133c0.22675-0.022579 0.45726 2.03e-4 0.67383 0.078125 1.8944 0.68165 1.602 3.386-0.36328 3.3594-1.2275-0.01664-1.9557-0.96676-1.7383-2.2676 0.10456-0.62557 0.74748-1.1022 1.4277-1.1699zm-15.75 0.17188c0.074796 0.003344 0.1453 0.016352 0.20898 0.039063 0.84136 0.30002 1.1131 0.80569 0.88281 1.6367-0.24947 0.90014-0.66154 1.1965-1.4746 1.0605-0.72734-0.12157-1.389-1.217-1.1094-1.8359 0.22541-0.49885 0.96861-0.92379 1.4922-0.90039zm-4.1152 0.18359c0.11993-0.001463 0.24433 0.018511 0.37109 0.060547 0.62958 0.20877 1.0179 0.95876 0.83594 1.6152-0.30606 1.1043-1.596 1.2047-2.1816 0.16992-0.47576-0.84059 0.13511-1.8355 0.97461-1.8457zm47.152 0.2793c0.25064 0.026541 0.52038 0.11615 0.80274 0.27344 0.6819 0.37985 0.74005 0.45189 0.93359 1.1309 0.3577 1.2549-0.96712 2.5819-2.1973 2.1992-0.83455-0.25959-1.4508-1.3641-1.2031-2.1562 0.32138-1.028 0.91214-1.5269 1.6641-1.4473zm-9.7598 0.58203c0.4789-0.021423 0.99034 0.15068 1.4609 0.54102 0.62401 0.51755 0.69038 0.67434 0.64258 1.5488-0.07538 1.379-1.7794 2.4017-2.8613 1.7168-0.64966-0.41126-1.196-1.5816-1.0254-2.1973 0.27721-1.0003 0.98503-1.5737 1.7832-1.6094zm25.346 0.28906c0.43615-0.036707 0.86953 0.045819 1.1641 0.25976 0.64282 0.46696 0.80007 0.84487 0.73047 1.752-0.05331 0.69452-0.17002 0.8795-0.81836 1.3047-1.019 0.66825-1.7208 0.54765-2.418-0.41602-0.63503-0.87772-0.57399-1.8092 0.16016-2.4434 0.30622-0.26451 0.74549-0.42032 1.1816-0.45703zm-30.479 1.877c0.20539-0.009482 0.37952 0.001729 0.47266 0.037109 0.40305 0.15311 1.116 1.0695 1.1797 1.5156 0.15015 1.0515-1.2959 2.2903-2.2891 1.9609-0.86696-0.28749-1.3413-1.3595-1.0566-2.3867 0.22787-0.8222 0.26894-0.86348 1.0312-1.0371 0.2185-0.049765 0.45672-0.080362 0.66211-0.089843zm18.877 0.080078c0.1061 0.003947 0.20665 0.021502 0.30078 0.050781 0.69722 0.21688 1.3204 0.91551 1.3965 1.5664 0.13722 1.1737-1.0248 2.1862-2.1914 1.9102-1.1795-0.27912-1.6096-1.0542-1.334-2.3984 0.12341-0.60185 1.0854-1.1565 1.8281-1.1289zm-40.678 0.10547c0.17182-6.1e-5 0.34376 0.025258 0.51172 0.078125 1.0622 0.33434 1.727 1.6199 1.334 2.5781-0.35173 0.85753-1.5044 1.4757-2.293 1.2305-1.1688-0.36358-1.745-2.3257-0.94922-3.2324 0.37072-0.4224 0.88104-0.65412 1.3965-0.6543zm12.258 0.23047c0.11154 0.004306 0.22791 0.017871 0.34766 0.042969 1.3686 0.28686 1.8593 1.8105 0.91797 2.8477-0.61587 0.67859-1.3468 0.76525-2.1328 0.25195-0.75464-0.49281-0.91328-0.91103-0.69336-1.8242 0.21116-0.87682 0.77979-1.3485 1.5605-1.3184zm4.6797 0.03711c0.17251-0.013479 0.35636-0.004662 0.54883 0.03125 0.98016 0.18289 1.5065 0.937 1.3535 1.9395-0.08137 0.53304-0.24548 0.73906-0.86524 1.0898-0.99093 0.56086-1.6996 0.39053-2.2246-0.53711-0.68238-1.2056-0.02006-2.4291 1.1875-2.5234zm29.41 0.41016c0.16386-0.019548 0.33841-0.004816 0.51953 0.042969 0.4735 0.12492 1.0782 0.94229 1.1055 1.4941 0.03906 0.78832-0.42792 1.3505-1.1992 1.4453-1.2579 0.15466-1.9843-0.77618-1.5391-1.9727 0.22218-0.59706 0.62171-0.95112 1.1133-1.0098zm-51.291 0.025391c0.15519-0.014631 0.30035 0.010762 0.41602 0.083984 1.0897 0.68982 1.043 2.1243-0.078125 2.4336-0.90323 0.24913-1.8187-0.70535-1.5254-1.5898 0.16161-0.48736 0.72192-0.88384 1.1875-0.92773zm9.1582 0.89258c0.30362-0.005737 0.61827 0.03947 0.84766 0.13672 0.60299 0.25564 1.1548 1.4677 0.95312 2.0957-0.22996 0.71594-1.2659 1.3136-1.9941 1.1504-0.84467-0.18935-1.3653-1.2719-1.0898-2.2656 0.12038-0.4344 0.34607-0.86294 0.50195-0.95117 0.18568-0.10509 0.47763-0.16028 0.78125-0.16602zm27.943 0.75391c0.095337 0.012176 0.18992 0.037905 0.28711 0.076172 0.80987 0.31888 1.4038 1.5047 1.1543 2.3066-0.42355 1.3617-2.2298 1.6069-3.0293 0.41211-0.65976-0.98596-0.42523-1.9873 0.59375-2.5293 0.41302-0.21968 0.70813-0.30215 0.99414-0.26562zm-41.732 0.45508c0.35172-0.056295 0.72689 0.00493 1.0801 0.22852 1.1653 0.7377 1.1228 2.3387-0.080078 3.0195-0.8612 0.48743-1.7382 0.19677-2.2773-0.75586-0.61899-1.0936 0.22218-2.3233 1.2773-2.4922zm52.555 0.61914c0.15363-0.014618 0.32032 0.002067 0.49609 0.050781 1.1142 0.30878 1.3183 1.8171 0.32227 2.3809-1.0272 0.58142-2.1597-0.36066-1.8047-1.502 0.17495-0.56244 0.52543-0.88584 0.98633-0.92969zm6.7656 0.11719c0.20248-0.007298 0.42625 0.022313 0.66992 0.089844 0.85664 0.23741 0.88087 0.26295 1.0098 1.0488 0.082 0.49996-0.3669 1.5653-0.75195 1.7832-0.09669 0.054727-0.52795 0.033555-0.95898-0.046875-0.98823-0.18439-1.4395-0.8855-1.1777-1.8301 0.18547-0.66924 0.60154-1.023 1.209-1.0449zm-24.504 0.13086c0.33556 0.026578 0.67588 0.12786 1.0039 0.31055 0.746 0.41548 1.0803 0.97975 1.1289 1.9082 0.11078 2.116-2.4192 3.1695-3.9297 1.6367-0.66375-0.67355-0.80163-1.3242-0.49023-2.3027 0.3326-1.0452 1.2804-1.6325 2.2871-1.5527zm-26.955 0.72852c0.16734-0.005371 0.35046 0.018911 0.54297 0.072266 0.79003 0.21895 0.9366 0.43693 0.82422 1.2324-0.09473 0.67049-0.8786 1.2452-1.5371 1.127-0.54175-0.097286-1.0583-1.0759-0.86914-1.6465 0.16394-0.49436 0.53705-0.76904 1.0391-0.78516zm16.639 0.076172c0.22299-0.019843 0.45492 0.013628 0.68359 0.10742 2.0888 0.85676 1.0173 3.8648-1.1348 3.1855-0.76546-0.2416-1.1267-0.96343-0.95117-1.9043 0.1481-0.79375 0.73338-1.3291 1.4023-1.3887zm24.445 0.20898c0.31373 0.004629 0.59207 0.13908 0.89648 0.40625 0.60559 0.53146 0.58598 0.49662 0.67188 1.3164 0.19319 1.8443-2.284 2.6389-3.1973 1.0254-0.55611-0.98253-0.36168-1.8757 0.51367-2.3711 0.45232-0.25601 0.80151-0.38158 1.1152-0.37695zm14.814 0.53125c0.69937 0.057949 0.8408 0.15517 1.2363 0.85156 0.36218 0.63768 0.40418 0.92555 0.22461 1.5234-0.52713 1.7551-2.9972 1.7162-3.5801-0.05664-0.19995-0.60814 0.3117-1.8092 0.91797-2.1523 0.2255-0.12763 0.76668-0.20202 1.2012-0.16602zm-59.404 0.027344c0.14295 4.86e-4 0.28334 0.031447 0.41406 0.09375 0.90088 0.42935 1.0337 1.2878 0.30078 1.9453-0.33538 0.3009-0.60111 0.3847-0.9668 0.30273-0.67937-0.15229-1.2312-1.1282-0.91797-1.623 0.28868-0.45601 0.74107-0.72021 1.1699-0.71875zm51.52 0.26367c0.20586 0.001848 0.42354 0.031422 0.64844 0.09375 1.371 0.37996 1.5051 2.5736 0.20312 3.3105-0.92288 0.52234-1.881 0.25956-2.4004-0.6582-0.78573-1.3882 0.1078-2.759 1.5488-2.7461zm-40.48 0.28906c0.13532-0.003065 0.28624 0.017236 0.45898 0.058593 0.68076 0.16298 0.93603 0.53811 0.86523 1.2734-0.05748 0.59707-0.93798 1.2342-1.4941 1.0801-0.55616-0.15414-0.98463-1.1538-0.72656-1.6953 0.23271-0.48825 0.49052-0.7076 0.89648-0.7168zm-4.0645 0.4707c0.17729-0.019408 0.37188-0.003952 0.58594 0.042968 0.95174 0.20861 1.5707 1.0544 1.4121 1.9336-0.18736 1.0387-0.88092 1.5362-1.8809 1.3496-1.1369-0.21212-1.6771-1.1477-1.2793-2.2168 0.25642-0.68906 0.63025-1.0512 1.1621-1.1094zm17.973 1.0957c0.59684 0.062137 0.7675 0.18992 1.1387 0.8457 0.55641 0.98308 0.3555 1.9369-0.51172 2.4277-0.84585 0.47874-1.661 0.17327-2.2344-0.83984-0.38627-0.68246-0.4086-0.88887-0.15234-1.4375 0.16454-0.35226 0.46979-0.73777 0.67773-0.85547 0.20795-0.11769 0.69534-0.18088 1.082-0.14062zm-28.045 0.77344c0.27038-0.012066 0.5312 0.0504 0.74414 0.20508 0.70354 0.51105 0.95622 1.1306 0.75586 1.8535-0.50942 1.8381-3.1478 1.4038-3.1934-0.52539-0.018967-0.80214 0.88223-1.497 1.6934-1.5332zm36.512 0.32812c0.13876-0.01111 0.2823-0.006574 0.42774 0.015625 0.54582 0.083317 0.73588 0.23976 1.123 0.92383 0.60628 1.0712 0.42291 1.716-0.66211 2.3301-1.2181 0.68942-2.1645 0.14846-2.4453-1.3984-0.17189-0.9467 0.58533-1.7933 1.5566-1.8711zm21.828 0.65039c0.10038-0.008085 0.19526-0.006293 0.27734 0.007812 0.60711 0.10432 1.3526 0.97577 1.4316 1.6719 0.1117 0.98487-0.81232 2.003-1.8398 2.0273-0.50656 0.011979-1.441-0.55564-1.7168-1.043-0.106-0.18723-0.12728-0.69397-0.046875-1.125 0.12155-0.65138 0.27195-0.85406 0.88867-1.2031 0.33816-0.1914 0.7047-0.31168 1.0059-0.33594zm-42.438 0.73242c0.13806 0.009587 0.29909 0.04414 0.49219 0.097656 1.093 0.30292 1.4113 1.3495 0.67188 2.2109-0.45672 0.53212-1.1688 0.57828-1.7617 0.11523-0.54466-0.42539-0.62956-0.99576-0.26172-1.7676 0.23752-0.49839 0.44519-0.68501 0.85938-0.65625zm-8.0234 0.16406c0.16049-0.008255 0.33382 0.00569 0.48242 0.046875 1.0817 0.29979 1.2513 1.5712 0.2832 2.1191-0.52833 0.29903-1.3297 0.059043-1.6406-0.49023-0.2331-0.41184 0.044956-1.34 0.47266-1.582 0.094895-0.053715 0.24185-0.085495 0.40234-0.09375zm24.078 0.09375c0.16813-0.002708 0.36295 0.020661 0.59766 0.064454 0.65506 0.12223 0.85405 0.26983 1.2109 0.90039 0.70588 1.2472-0.01596 2.537-1.4121 2.5254-1.3173-0.010957-2.1612-1.4449-1.5234-2.5898 0.36058-0.64732 0.62258-0.89226 1.127-0.90039zm-27.732 0.18164c1.4013 0.016585 1.9068 1.7177 0.71094 2.3945-0.60289 0.34123-1.5603 0.24568-1.7949-0.17969-0.30715-0.55681-0.30601-1.0909 0.005859-1.6328 0.32527-0.56522 0.37134-0.59043 1.0781-0.58203zm44.719 0.85938c0.18541-0.019112 0.38084 5.26e-4 0.58008 0.0625 0.79748 0.24806 1.1797 0.96833 0.95117 1.793-0.25161 0.90787-0.86426 1.2057-1.7793 0.86523-0.93407-0.34759-1.1822-0.77338-0.94726-1.6211 0.17689-0.63827 0.63909-1.0423 1.1953-1.0996zm-28.785 0.49609c0.11281 6.17e-4 0.22894 0.009841 0.34961 0.029297 0.50632 0.081638 0.83708 0.29661 1.1699 0.76172 0.56605 0.79097 0.64361 1.3564 0.30273 2.1875-0.36368 0.88666-1.073 1.2275-2.0918 1.0059-0.74469-0.16205-0.90282-0.28587-1.2969-1.0176-0.38902-0.72238-0.40769-0.94244-0.14258-1.6465 0.32784-0.87061 0.9193-1.3246 1.709-1.3203zm-7.5977 0.34961c0.10898 0.002937 0.22366 0.019994 0.3418 0.052735 0.5857 0.16232 0.97284 0.69726 0.96484 1.334-0.0034 0.27418-0.22031 0.52209-0.68164 0.7832-0.79554 0.45027-1.3555 0.21645-1.6328-0.68359-0.2569-0.83393 0.24497-1.5069 1.0078-1.4863zm40.068 0.95898c0.12874-0.012849 0.26182-0.008675 0.40039 0.017578 0.89846 0.17021 1.3872 0.97208 1.1875 1.9492-0.23783 1.1637-2.4514 1.2858-2.791 0.1543-0.3136-1.0448 0.30197-2.0312 1.2031-2.1211zm-44.473 1.0586c0.16091-0.011313 0.32915-9.04e-4 0.50391 0.03711 1.1484 0.24982 1.6799 1.2891 1.1875 2.3223-0.59711 1.2529-2.2185 1.2531-2.9277 0-0.61213-1.0815 0.10993-2.2802 1.2363-2.3594zm35.07 0.017578c0.14966 0.008005 0.3032 0.042372 0.45703 0.10547 0.79042 0.32422 1.0031 0.71814 0.82422 1.5273-0.29872 1.351-1.9525 1.682-2.6094 0.52148-0.57546-1.0167 0.28052-2.2103 1.3281-2.1543zm14.336 0.19531c0.097136-0.004061 0.19035 0.003507 0.2793 0.023437 0.96353 0.21589 1.5883 1.4168 1.293 2.4824-0.41121 1.4837-2.507 1.728-3.2695 0.38086-0.5666-1.0011-0.31903-1.9235 0.67578-2.5156 0.39784-0.23682 0.73008-0.35891 1.0215-0.37109zm-42.482 0.58203c0.132-0.002167 0.26935 0.017761 0.41016 0.064453 0.72364 0.23996 1.1144 1.116 0.81836 1.8379-0.13872 0.3382-0.34809 0.67025-0.46484 0.73633-0.44387 0.25122-1.5263-0.079108-1.791-0.54688-0.54023-0.95449 0.10336-2.0766 1.0273-2.0918zm32.385 0.37305c0.15506-0.008424 0.32425 0.015561 0.50391 0.072266 0.71776 0.22654 1.0592 0.82475 0.86719 1.5176-0.17954 0.6478-0.7403 1.0039-1.4707 0.93359-0.71089-0.068431-1.1329-0.83042-0.89062-1.6094 0.1788-0.57481 0.52507-0.88879 0.99023-0.91406zm-44.916 0.38672c0.15439-0.004597 0.32311 0.021886 0.50391 0.078125 1.2413 0.38612 1.4441 1.844 0.34375 2.4668-1.1619 0.65763-2.3425-0.4152-1.8613-1.6914 0.20833-0.55257 0.55051-0.83972 1.0137-0.85352zm20.408 1.0078c0.17228 4.02e-4 0.34849 0.036815 0.52539 0.10938 0.80728 0.33122 1.0292 0.76399 0.80469 1.5742-0.35873 1.2944-1.7835 1.4957-2.4355 0.34375-0.28152-0.49738-0.32011-0.79605-0.14844-1.1562 0.26632-0.5588 0.73706-0.8723 1.2539-0.87109zm22.064 1.1426c0.14496 0.014562 0.28823 0.053585 0.42578 0.11914 0.73966 0.35252 1.214 1.3624 1.0215 2.1758-0.4195 1.7727-3.2015 1.6204-3.4238-0.1875-0.14018-1.1401 0.96187-2.2094 1.9766-2.1074zm8.8398 0.33398c0.20969-0.022594 0.41782 0.018202 0.6875 0.11523 0.98164 0.35321 1.4353 1.2379 1.1543 2.252-0.25194 0.90905-0.8964 1.3737-1.7969 1.2969-0.83584-0.0713-0.99883-0.18238-1.4512-0.97461-0.54132-0.94808-0.27144-1.8678 0.71094-2.4238 0.27516-0.15574 0.48563-0.24303 0.69531-0.26562zm-34.631 0.25195c0.23577 0.032121 0.61733 0.27833 0.84766 0.54688 0.33871 0.3949 0.38198 0.62083 0.22656 1.1816-0.21559 0.77788-0.36267 0.90382-1.0664 0.92188-1.0208 0.026189-1.6666-0.56957-1.5508-1.4297 0.07793-0.57891 0.98521-1.2967 1.543-1.2207zm30.225 0.30664c0.38878-0.003174 0.76841 0.064458 0.98438 0.20117 1.3168 0.83362 0.9706 3.0424-0.52344 3.3379-0.78953 0.15614-2.0007-0.45186-2.1914-1.0996-0.18377-0.62405 0.23397-1.9615 0.69531-2.2227 0.24824-0.1405 0.64637-0.21362 1.0352-0.2168zm-37.604 0.26562c0.47623 0.030999 0.68846 0.1801 0.9707 0.68359 0.43707 0.77922 0.43555 1.0835-0.003906 1.6094-0.45379 0.54305-1.4384 0.57448-1.9277 0.060547-0.84501-0.88737-0.21494-2.4301 0.96094-2.3535zm-5.4336 0.17969c0.1811-0.024738 0.40004 0.012152 0.72266 0.10156 0.43895 0.12165 0.85267 0.3277 0.91797 0.45703 0.43317 0.85848 0.11006 2.2035-0.60352 2.5195-0.51292 0.22719-1.7799-0.31339-2.1133-0.90234-0.26122-0.46152 0.023034-1.3883 0.58398-1.9082 0.1689-0.15655 0.31109-0.24284 0.49219-0.26758zm29.15 0.11523c0.093464-0.006474 0.20641-0.003333 0.34766 0.00586 1.2281 0.079941 1.5818 1.7325 0.50195 2.3438-1.0534 0.59624-2.1051-0.78771-1.4375-1.8906 0.19955-0.32969 0.3075-0.43956 0.58789-0.45898zm-8.916 0.26172c0.15704-0.014808 0.3384-0.00342 0.55274 0.029297 1.2636 0.19289 1.5888 1.8166 0.48828 2.4395-1.1971 0.67756-2.366-0.23318-1.9551-1.5234 0.19883-0.62424 0.44295-0.90089 0.91406-0.94531zm4.5605 0.042969c0.088912 0.0075 0.18113 0.024658 0.27539 0.050781 0.75616 0.20958 1.065 0.86326 0.75977 1.6074-0.28898 0.70453-0.81947 0.91892-1.5938 0.64258-0.6473-0.23086-0.76688-0.46604-0.64453-1.2676 0.10546-0.69088 0.58074-1.0857 1.2031-1.0332zm9.002 0.57812c0.35955-0.044208 0.91745 0.028561 1.2383 0.16016 1.5192 0.62314 1.5963 2.7925 0.12891 3.623-0.54549 0.30875-0.88955 0.36724-1.3418 0.22656-1.5534-0.48319-2.1012-1.9866-1.1816-3.2422 0.42907-0.58586 0.59821-0.69897 1.1562-0.76758zm-23.199 1.4297c0.58631 0.091874 0.89681 0.81387 0.59375 1.5527-0.32328 0.7882-0.73947 1.0164-1.4473 0.79297-0.71467-0.22557-0.96049-0.65472-0.76953-1.3438 0.16555-0.59734 0.54379-0.8759 1.3555-1 0.093968-0.014367 0.18382-0.015078 0.26758-0.001954zm5.209 1.1406c0.15508-0.014215 0.34119-0.006072 0.56836 0.017579 0.80271 0.083569 1.2623 0.68506 1.1797 1.543-0.07543 0.78362-1.0228 1.2717-1.8281 0.94141-0.82147-0.33692-1.0328-0.77343-0.77148-1.5938 0.19852-0.62326 0.38633-0.86556 0.85156-0.9082zm10.951 0.033203c0.26005 5.26e-4 0.52898 0.075575 0.78711 0.24414 1.4866 0.97078 1.2638 2.9086-0.36914 3.2051-0.8639 0.15686-1.3759-0.087588-1.8281-0.87109-0.68649-1.1892 0.28327-2.5804 1.4102-2.5781zm17.762 0.52344c0.13172-0.009625 0.27072-8.82e-4 0.41406 0.03125 0.73897 0.16566 1.1084 0.94232 0.80274 1.6875-0.30161 0.73532-0.37874 0.78631-1.2266 0.81836-0.52819 0.01997-0.72224-0.087171-0.98242-0.54688-0.51344-0.90714 0.070115-1.9229 0.99219-1.9902zm-38.346 0.26367c0.17203-0.004211 0.35142 0.024362 0.53711 0.085937 0.24931 0.082675 0.64777 0.39195 0.88476 0.6875 0.9523 1.1875-0.1719 3.0644-1.5645 2.6113-1.2491-0.40642-1.7148-1.4348-1.1309-2.498 0.31248-0.56904 0.75735-0.87409 1.2734-0.88672zm33.076 0.67188c0.27643 0.005642 0.573 0.065927 0.87695 0.18555 0.79469 0.31274 1.2589 1.3132 1.0371 2.2344-0.1036 0.4302-0.32842 0.93437-0.5 1.1191-0.45331 0.48812-1.6894 0.51157-2.4277 0.046875-0.78447-0.49376-1.0088-1.205-0.71484-2.2656 0.23818-0.85942 0.89922-1.3372 1.7285-1.3203zm-7.0918 0.44141c0.24746 0.006686 0.49631 0.094461 0.7168 0.27734 0.2193 0.1819 0.44475 0.42494 0.50195 0.54102 0.63287 1.2839-0.93322 2.5337-2.1836 1.7422-0.44681-0.28286-0.51167-0.39971-0.51367-0.92773-0.003413-0.95512 0.73614-1.6529 1.4785-1.6328zm-19.189 0.61328c0.10766 0.009269 0.21334 0.041981 0.31055 0.10352 0.54789 0.34687 0.75856 0.83492 0.58594 1.3555-0.31675 0.9552-1.6687 1.145-2.1465 0.30078-0.40764-0.72022 0.49636-1.8246 1.25-1.7598zm9.3477 0.15234c0.23794-0.022111 0.48084 0.04051 0.86914 0.17578 1.4149 0.49292 2.0339 1.9743 1.3418 3.2168-1.0663 1.9141-3.6468 1.4769-4.1953-0.71094-0.24325-0.97026 0.15752-1.7846 1.1523-2.3477 0.36222-0.20502 0.5941-0.31187 0.83203-0.33398zm-4.957 1.1992c0.68905 0.066335 1.3501 1.1396 1.123 1.8242-0.20146 0.60756-1.0791 1.0912-1.6387 0.9043-0.85134-0.28429-1.2209-0.88199-1.0117-1.6367 0.21774-0.78563 0.74977-1.1666 1.5273-1.0918zm-8.3359 0.81836c0.39536-0.02586 0.7624 0.037175 0.99414 0.19336 0.62111 0.41861 0.59884 0.39129 0.81445 0.96289 0.73115 1.9383-2.1519 3.1283-3.1797 1.3125-0.39629-0.70016-0.28495-1.8602 0.20508-2.1348 0.3462-0.19399 0.77066-0.30812 1.166-0.33398zm19.809 0.7207c0.15207-0.013716 0.31238-0.007782 0.47852 0.017579 0.53098 0.081051 0.73858 0.2452 1.084 0.85547 0.36994 0.65355 0.38343 0.85789 0.099609 1.5215-0.18036 0.42171-0.45282 0.83743-0.60547 0.92383-0.9234 0.52264-2.182-0.010627-2.4707-1.0469-0.32707-1.1738 0.34958-2.1755 1.4141-2.2715zm5.9805 0.34961c0.093544 0.001795 0.18448 0.013858 0.27344 0.035156 0.80858 0.19358 1.2222 1.0005 0.94922 1.8574-0.28253 0.88705-0.71068 1.107-1.6465 0.84766-0.83435-0.23123-1.2381-0.90646-1.0605-1.7754 0.10956-0.53613 0.82957-0.97741 1.4844-0.96484zm-21.311 1.5938c0.12485-0.028322 0.24917-0.027391 0.36914 0.005859 0.53615 0.14859 0.98642 1.1518 0.74414 1.6602-0.30355 0.63692-0.83167 0.71036-1.5996 0.22266-0.66136-0.42001-0.66271-0.42005-0.44336-0.98242 0.18664-0.47852 0.55515-0.82129 0.92969-0.90625zm6.0762 0.30469c0.16551-0.012505 0.34528 0.004309 0.54297 0.048828 0.72704 0.16373 1.3852 0.84792 1.4727 1.5332 0.07301 0.57183-0.31013 1.3973-0.76953 1.6562-0.57458 0.3238-1.7683 0.1839-2.1367-0.25-0.58499-0.68902-0.69146-1.3606-0.32226-2.0234 0.3476-0.6241 0.71636-0.92733 1.2129-0.96484zm5.6738 0.22852c0.11062-0.005551 0.22538 0.002289 0.3457 0.023437 0.80378 0.14127 1.4055 0.82361 1.4668 1.666 0.08615 1.1839-0.95497 1.9871-2.2129 1.7051-1.7864-0.40048-1.2588-3.3113 0.40039-3.3945z"/></svg>
