<svg version="1.1" viewBox="0 0 80 80" xmlns="http://www.w3.org/2000/svg"><path d="m40.369-0.0058594c-9.3298-0.073973-18.692 3.0075-25.84 9.1348-11.714 9.412-17.142 25.76-13.432 40.312 3.767 16.558 19.128 29.484 36.059 30.51v0.001953c4.442 0.148 8.9383-0.11731 13.236-1.3203 15.931-4.074 28.324-18.891 29.467-35.301 1.399-14.712-6.208-29.726-18.832-37.389-6.1639-3.9257-13.402-5.8917-20.658-5.9492zm-0.007813 4.0645c4.0771-0.091347 8.2297 0.89786 12.02 3.0859 3.8923 2.2472 5.8015 5.1113 7.7598 8.8105-8.5881-6.942-20.813-12.434-27.758-0.29688-1.0842 1.8949-3.0699 5.281-1.75 8.3633l4.4258 2.5547c4.4988 2.6886 4.6271 8.2076 2.3711 12.115-1.4358 2.4868-6.402 6.8677-11.822 3.7383-2.3902-1.38-5.2212-3.4596-6.6055-7.9941-1.8617-6.0983-1.5462-12.897 1.8926-18.854 4.1772-7.2352 11.683-11.349 19.467-11.523zm11.715 20.164c0.98834-0.00379 2.0542 0.1079 3.209 0.375 6.2121 1.4369 11.944 5.1104 15.383 11.066 6.3653 11.025 2.5876 25.123-8.4375 31.488-3.8923 2.2472-7.327 2.4682-11.51 2.3145 10.306-3.9665 21.176-11.81 14.137-23.893-1.0989-1.8864-3.038-5.2972-6.3672-5.6953l-4.4258 2.5547c-4.5778 2.5518-9.4217-0.096308-11.678-4.0039-1.4358-2.4868-2.7465-8.978 2.6738-12.107 1.7926-1.035 4.0506-2.0882 7.0156-2.0996zm-42.986 10.33c-1.7179 10.908-0.36244 24.242 13.621 24.188 2.1832-0.0085 6.1078 0.01814 8.1172-2.666v-5.1113c0.07897-5.2404 4.7945-8.1094 9.3066-8.1094 2.8715 0 9.1484 2.1103 9.1484 8.3691 0 2.76-0.38429 6.2507-3.6191 9.7168-4.3504 4.6614-10.396 7.7891-17.273 7.7891-12.731 0-23.051-10.32-23.051-23.051 0-4.4944 1.5255-7.5795 3.75-11.125z"/></svg>
