<svg xmlns="http://www.w3.org/2000/svg" width="80mm" height="80mm" viewBox="0 0 80 80"><path d="M36.085 79.913c-9.852-1.25-17.706-5.012-24.381-11.68C3.872 60.407 0 51.054 0 39.962c0-11.094 3.872-20.446 11.704-28.27C19.535 3.867 28.897 0 40 0c11.103 0 20.465 3.868 28.296 11.692C76.128 19.517 80 28.87 80 39.962s-3.872 20.446-11.704 28.27c-5.872 5.867-12.812 9.56-20.922 11.136-2.398.465-9.29.798-11.29.544zm18.766-6.389c1.854-1.177 3.39-3.783 3.847-6.523.283-1.697.87-3.953 1.606-6.176.483-1.457.604-1.907 1.435-5.36C64.118 45.58 63.164 39 58.516 33.238c-2.725-3.378-8.22-7.774-8.22-6.576 0 .096.868 1.106 1.928 2.245 3.681 3.956 5.849 7.482 6.51 10.592 1.313 6.165.877 12.795-1.173 17.848-1.093 2.696-1.37 3.284-1.863 3.973-.539.75-2.393 1.815-4.498 2.581-2.948 1.074-4.887 5.027-3.692 7.53.464.969 1.998 2.237 3.192 2.636.963.323 3.262.021 4.151-.544zM24.483 70.52c.718-.159 1.567-.406 1.886-.549 1.013-.456 2.569-.92 3.915-1.17 1.914-.355 8.667-2.158 9.716-2.595.319-.132 1.167-.467 1.885-.744 5.444-2.1 8.593-4.429 11.27-8.336 2.365-3.454 4.107-8.688 4.097-12.314-.005-2.054-.419-2.91-.717-1.484-.232 1.108-.954 3.585-1.3 4.458-1.032 2.608-1.439 3.434-2.56 5.198-1.456 2.29-3.318 4.183-5.935 6.03-2.225 1.57-5.868 3.385-8.19 4.082-3.091.927-3.443 1.007-5.973 1.35-3.23.438-4.512.11-6.629-1.694-.869-.74-2.044-1.507-2.61-1.705-2.295-.799-5.155-.24-6.569 1.285-.613.66-.697 1.025-.697 3.034v2.283l1.236 1.235c1.808 1.806 4.067 2.321 7.175 1.636zM37.12 60.097c3.115-.531 5.137-1.196 8.176-2.69.998-.49 1.679-.976 1.513-1.078-.165-.102-1.439.103-2.83.456-5.494 1.395-9.906 1.48-13.589.264-2.148-.71-5.694-2.462-7.762-3.835-3.396-2.255-7.522-6.65-9.018-9.604-.39-.772-.458-1.373-.308-2.752.106-.97.254-2.352.33-3.069.109-1.034-.03-1.628-.668-2.868-1.712-3.325-4.13-4.195-6.92-2.489-1.81 1.107-2.828 2.908-2.644 4.679.25 2.415 1.207 3.698 7.285 9.771 7.672 7.667 9.924 9.563 13.469 11.342 3.796 1.905 8.66 2.607 12.966 1.873zm-7.711-5.72c-.004-.119-.69-.934-1.526-1.81-6.02-6.314-7.854-10.596-7.882-18.4-.016-4.255 1.117-9.19 3.054-13.307.685-1.456 2.304-2.98 3.46-3.257.398-.096 1.377-.479 2.175-.85 1.692-.79 3.114-2.668 3.64-4.809.306-1.237.274-1.474-.347-2.608-.942-1.721-3.297-2.957-5.169-2.713-3.25.423-5.075 2.878-6.262 8.42a46.897 46.897 0 0 1-.674 2.753l-.73 2.463c-1.508 5.072-2.162 8.149-2.499 11.749-.552 5.893.477 9.941 3.732 14.685 1.756 2.559 4.608 5.288 7.439 7.118 1.222.79 1.599.924 1.589.567zm43.635-5.696c1.64-.871 2.105-1.332 2.641-2.614.562-1.342.538-2.603-.081-4.365-.437-1.243-1.434-2.377-7.035-8-9.24-9.274-12.605-11.625-18.417-12.865-4.6-.98-9.884-.238-15.01 2.11-.916.42-1.667.868-1.667.994s-.196.23-.435.23c-.24 0-.435.13-.435.29 0 .359.778.383.996.03.088-.143.65-.326 1.25-.408.6-.081 2.72-.441 4.715-.799 3.534-.634 3.695-.638 6.427-.172 3.857.659 9.357 3.067 12.13 5.312 3.49 2.825 7.23 7.096 7.845 8.96.244.737.287 1.73.135 3.133-.324 3.01-.226 4.143.48 5.558 1.527 3.054 3.853 3.991 6.461 2.606zM22.745 38.15c.004-.887 2.01-6.51 3.127-8.765 2.177-4.394 7.826-8.995 13.604-11.08 3.636-1.312 5.442-1.74 9.08-2.152 1.643-.186 3.424.543 5.31 2.173 1.97 1.703 4.141 2.179 6.703 1.468 1.689-.468 2.669-1.597 2.91-3.351.676-4.91-3.85-7.77-9.295-5.875-2.246.781-3.35 1.098-5.628 1.615-6.443 1.46-9.397 2.39-13.247 4.168-2.924 1.351-4.754 2.588-6.555 4.429-1.963 2.006-3.396 4.232-4.794 7.446-1.314 3.02-2.384 10.431-1.507 10.431.16 0 .291-.228.292-.507z"/></svg>