<svg xmlns="http://www.w3.org/2000/svg" width="80" height="80"><path d="M32.694 79.167c-6.95-1.303-13.593-4.542-18.889-9.174 3.38-.46 7.506.133 9.912-2.918 3.188-3.028 1.353-7.497 1.165-11.249-.607-4.371 3.553-7.296 6.468-9.802 2.062-.894 7.823-5.144 2.723-5.702-9.836.722-19.992 6.009-24.447 15.076-1.36 2.77-1.352 5.882-1.339 8.891-6.16-8.767-9.8-19.87-7.68-30.57.473-3.67.973-.636 1.843 1.156 2.296 4.241 8.745 6.6 12.49 2.785 2.772-2.685 6.392-5.35 10.469-3.831 4.072-.24 8.622 5.647 11.908 2.747-1.14-3.948-4.813-6.563-7.732-9.248-5.76-5.084-13.917-6.556-21.336-5.3-1.746.725-6.445 3.768-3.94-.1C8.967 13.225 16.639 6.03 25.983 2.612c1.595 1.29-2.915 5.194-1.56 7.978.266 3.84 3.47 6.661 7.153 7.275 4.59.674 6.754 5.17 7.262 9.329.896 2.87-.995 7.844 2.838 8.81 2.848-3.734 3.768-8.66 4.353-13.235.567-7.49-1.8-15.725-7.802-20.6-2.023-.437-4.017-2.601-.5-2.093C46.8-.316 55.944 2.209 63.363 7.47c.683.543 4.894 3.538 1.895 2.743-4.17-.938-8.744 1.216-10.482 5.14-.58 3.764 1.3 7.599.345 11.306-2.049 4.755-6.827 7.411-10.764 10.4-1.404 4.643 6.296 1.767 8.743 1.27 7.771-2.277 15.148-7.745 17.964-15.514 1.05-1.717-.284-9.368 2.584-4.628 3.96 6.93 6.982 14.775 6.238 22.891-.318 1.902.367 6.283-1.387 6.687-.273-5.733-8.268-9.738-12.845-5.854-2.871 2.688-6.531 5.71-10.762 4.3-4.029-.694-7.44-3.792-11.535-3.842-1.39 3.499 3.658 6.433 5.84 8.933 6.456 5.599 15.93 9.426 24.296 5.943 1.192-.108 4.66-3.845 2.936-.784-3.82 8.768-11.356 15.65-19.85 19.87-1.747.917-6.38 2.702-2.766-.488 3.49-3.917 2.472-11.185-2.79-13.004-3.308-.732-6.92-1.946-8.274-5.418-2.029-4.08-1.428-8.86-2.79-13.014-3.704-1.078-4.171 5.919-5.236 8.562-.596 5.072-.947 10.458.693 15.361 1.723 4.195 4.172 8.476 8.532 10.376 1.299 2.402-6.582.702-8.925.8a27.69 27.69 0 0 1-2.33-.34z"/></svg>