<svg xmlns="http://www.w3.org/2000/svg" width="80" height="80"><path d="M38.867 79.995c-1.533-.062-2.576-.143-3.815-.297A40.018 40.018 0 0 1 .296 44.945C.077 43.182 0 41.895 0 39.997c0-1.37.02-1.954.106-3.06a39.928 39.928 0 0 1 3.937-14.486A40.018 40.018 0 0 1 35.052.296C36.815.077 38.102 0 40 0c1.37 0 1.954.02 3.06.106a39.935 39.935 0 0 1 14.487 3.937A40.013 40.013 0 0 1 79.703 35.05c.22 1.764.297 3.05.297 4.948 0 1.37-.02 1.954-.106 3.06a39.928 39.928 0 0 1-3.937 14.487 40.02 40.02 0 0 1-31.851 22.25c-.596.062-1.392.124-2.07.163-.488.028-2.74.055-3.169.038zm.216-9.226c0-.1-.03-1.02-.067-2.042a387.656 387.656 0 0 1-.067-1.945V66.7l-.371-.019a30.44 30.44 0 0 1-1.369-.11l-.458-.056c-4.674-.565-9.304-2.466-13.05-5.358a3.534 3.534 0 0 0-.381-.273c-.018-.002-.682.695-1.477 1.548-1.357 1.456-1.442 1.552-1.394 1.59a31.26 31.26 0 0 0 14.118 6.47c1.316.238 3.204.443 4.213.456l.303.004v-.182zm4.894-.036c3.846-.474 7.793-1.765 11.216-3.67a31.214 31.214 0 0 0 5.179-3.611c.475-.41.998-.88.998-.898 0-.017-3.099-2.9-3.117-2.9-.01 0-.162.128-.338.286a26.785 26.785 0 0 1-5.78 3.918 26.592 26.592 0 0 1-8.522 2.631c-.289.04-.53.076-.536.082-.005.005.022.935.062 2.067.039 1.131.07 2.085.07 2.12 0 .073-.041.074.768-.025zM18.847 59.6c.723-.78 1.345-1.449 1.382-1.488l.066-.072-.226-.252a26.927 26.927 0 0 1-6.646-14.537l-.05-.4-.418.019c-.23.01-1.19.044-2.131.076l-1.712.058.008.121c.035.518.238 1.861.423 2.791a30.97 30.97 0 0 0 3.85 9.976c1.046 1.75 2.527 3.725 3.806 5.077l.187.197.072-.075 1.388-1.491zm45.683-.493a31.227 31.227 0 0 0 4.87-8.823c1.015-2.842 1.648-6.065 1.761-8.975l.019-.479-.375.018c-.206.01-1.16.044-2.12.076-.96.033-1.75.065-1.757.072a5.146 5.146 0 0 0-.042.47 27.306 27.306 0 0 1-.491 3.735 26.827 26.827 0 0 1-5.01 11.01c-.156.204-.285.386-.285.405 0 .031 3.055 2.9 3.09 2.902.009 0 .162-.184.34-.41zm-23.33-.29a19.202 19.202 0 0 0 5.405-1.13c.032-.02-.049-.22-.455-1.112a47.816 47.816 0 0 0-.511-1.105c-.01-.01-.176.036-.37.101-1.05.353-2.352.63-3.516.75a16.746 16.746 0 0 1-5.77-.425c-.201-.051-.369-.09-.374-.084-.005.004-.2.519-.435 1.142l-.425 1.134.084.027c.162.052.816.216 1.19.3.794.176 1.947.34 2.818.399.487.033 1.857.035 2.36.003zm-8.637-2.872c.233-.621.421-1.13.418-1.132l-.383-.193c-2.755-1.378-5.154-3.62-6.755-6.313-.108-.182-.21-.326-.226-.32-.057.023-2.187.994-2.193 1a18.977 18.977 0 0 0 7.531 7.528c.495.271 1.118.577 1.158.566.014-.004.217-.515.45-1.136zm17.098.306c.88-.51 1.925-1.256 2.787-1.99a24.28 24.28 0 0 0 1.88-1.854 19.629 19.629 0 0 0 2.227-3.122c.272-.474.775-1.459.755-1.478a85.17 85.17 0 0 0-2.277-.848c-.004.004-.105.199-.226.432a16.06 16.06 0 0 1-3.035 4.161 15.352 15.352 0 0 1-1.957 1.686c-.387.28-1.016.693-1.357.888-.142.082-.26.158-.26.17 0 .02.907 2.026.975 2.158.033.062.027.064.488-.203zM23.524 45.862c.512-.233.936-.43.942-.435a4.75 4.75 0 0 0-.14-.489 16.682 16.682 0 0 1-.752-3.754c-.046-.513-.046-2.13 0-2.643.081-.912.231-1.821.442-2.676.067-.271.101-.461.086-.474-.04-.035-2.248-.85-2.263-.836-.029.029-.289 1.096-.39 1.6a18.982 18.982 0 0 0 .569 9.58c.076.233.161.486.19.563l.052.14.167-.075 1.097-.5zm34.822-.83c.023-.077.097-.365.165-.64a18.974 18.974 0 0 0-.188-9.774c-.126-.44-.405-1.3-.432-1.33a5.883 5.883 0 0 0-.448.193c-.9.41-1.763.805-1.772.814-.005.005.052.195.127.422.382 1.166.608 2.229.747 3.528.058.537.081 2.095.04 2.683a16.523 16.523 0 0 1-.463 2.962 5.48 5.48 0 0 0-.1.435c.012.01 2.243.845 2.265.847.01.001.037-.061.06-.14zM11.33 38.799a67.155 67.155 0 0 0 1.89-.078c.013-.008.032-.195.041-.416.1-2.223.638-4.962 1.408-7.178a27.827 27.827 0 0 1 2.366-5.082 32.267 32.267 0 0 1 1.994-2.887l.048-.06-1.382-1.29c-.76-.709-1.463-1.366-1.562-1.46l-.18-.171-.345.44a31.155 31.155 0 0 0-6.182 13.8 32.483 32.483 0 0 0-.45 4.06l-.019.405.253-.01 2.12-.073zm57.908-2.02c.975-.034 1.78-.069 1.79-.078.01-.01-.01-.24-.042-.51a31.12 31.12 0 0 0-7.295-16.604c-.39-.454-.913-1.026-.933-1.018-.01.004-.634.668-1.387 1.477l-1.445 1.55-.075.08.216.244a26.895 26.895 0 0 1 5.295 8.885 26.859 26.859 0 0 1 1.334 5.5c.031.244.062.471.07.504.012.059.017.06.355.045.19-.008 1.142-.042 2.117-.076zM25.316 32.37c1.104-2.204 2.803-4.232 4.801-5.732.463-.348 1.2-.84 1.581-1.056l.26-.147-.457-1.003c-.251-.552-.48-1.055-.507-1.118l-.051-.115-.332.193a18.521 18.521 0 0 0-3.934 3.015c-.77.767-1.341 1.43-1.964 2.28a19.763 19.763 0 0 0-1.74 2.907c-.131.28-.143.319-.102.335.105.04 2.231.84 2.237.841.004 0 .097-.18.208-.4zm30.31-1.137c.593-.27 1.083-.495 1.088-.5.014-.011-.242-.459-.515-.9a19.084 19.084 0 0 0-4.78-5.2 22.44 22.44 0 0 0-1.779-1.18c-.388-.227-1.602-.858-1.619-.842-.015.016-.848 2.25-.848 2.276 0 .013.197.124.438.245 2.227 1.123 4.237 2.827 5.77 4.89.277.373.758 1.103.964 1.464.082.142.16.254.176.249.014-.006.512-.231 1.105-.502zM36 23.823a16.446 16.446 0 0 1 7.99-.041l.521.127c.03.006.883-2.253.86-2.279-.032-.034-1.064-.289-1.608-.397-.606-.12-1.281-.219-1.982-.29-.681-.07-2.745-.07-3.425 0-1.598.163-2.96.452-4.368.926-.245.082-.455.16-.467.17-.013.012.204.518.48 1.126l.504 1.104.48-.155c.263-.085.72-.216 1.015-.29zm-13.854-3.965c.874-.8 1.923-1.61 3.065-2.372a26.849 26.849 0 0 1 11.392-4.264c.245-.031.452-.065.46-.075.02-.022-.13-4.213-.15-4.233a4.551 4.551 0 0 0-.519.046 31.164 31.164 0 0 0-15.97 6.764c-.657.536-1.637 1.395-1.642 1.44-.003.02 3.09 2.908 3.115 2.908.008 0 .12-.097.249-.214zm36.084-2.496l1.448-1.555.067-.072-.32-.254A31.161 31.161 0 0 0 41.55 8.778a10.46 10.46 0 0 0-.493-.017c-.011.009.135 4.23.148 4.245.005.006.189.021.407.033 3.143.17 6.377.953 9.35 2.26 1.874.826 3.992 2.09 5.527 3.3.178.141.331.254.341.25.01-.002.639-.672 1.399-1.487z"/></svg>