<svg version="1.1" viewBox="0 0 80 80" xmlns="http://www.w3.org/2000/svg"><path d="m40 0a40 40 0 0 0-40 40 40 40 0 0 0 40 40 40 40 0 0 0 40-40 40 40 0 0 0-40-40zm-2.957 4.2305c1.4564 0.019928 3.1745 0.26866 4.8516 0.86523 2.6742 0.95124 5.0117 2.9966 5.0117 4.5273-1e-6 1.7507-1.0455 2.8537-3.6699 4.3945-2.0076 1.1786-3.837 2.7231-5.3184 4.5371-2.1176 2.5932-4.9458 6.3691-6.3965 9.8496 0.29498-5.37 1.8124-10.477 4.1855-13.291 1.903-2.2561 3.9013-3.6804 3.8594-5.2812-0.047098-1.7983-2.7408-3.5504-5.8047-5.0977 0.62937-0.31479 1.8248-0.52383 3.2812-0.50391zm10.689 0.80078c1.4039-0.099964 4.7327 1.0594 7.375 3.4453 2.1066 1.9022 3.4823 4.6873 2.8965 6.1016-0.66995 1.6174-2.056 2.2351-5.0703 2.6543-2.3058 0.32066-4.5876 1.0472-6.6504 2.1562-2.9488 1.5854-7.0075 3.9938-9.6797 6.6543 2.3275-4.8483 5.6858-8.9865 8.9551-10.678 2.6215-1.3561 5.012-1.9073 5.5859-3.4023 0.64469-1.6795-1.1736-4.3297-3.4121-6.9316zm-18.277 1.9941c2.4702 0.11312 4.7882 1.0301 5.3008 2.2676 0.66994 1.6174 0.12605 3.035-1.709 5.4629-1.4037 1.8572-2.5033 3.9837-3.1777 6.2266-0.96406 3.2062-2.1323 7.7781-2.1406 11.549-1.7825-5.0741-2.3346-10.373-1.2188-13.881 0.89476-2.8126 2.1963-4.8925 1.5449-6.3555-0.73171-1.6434-3.8917-2.2333-7.3145-2.4902 0.922-1.0634 4.0969-2.5961 7.6523-2.7773 0.35433-0.018066 0.70962-0.018114 1.0625-0.0019532zm31.07 3.627c1.3353 0.44488 3.968 2.7904 5.4961 6.0059 1.2183 2.5636 1.4242 5.6637 0.3418 6.7461-1.2379 1.2379-2.7559 1.278-5.7012 0.51172-2.253-0.58615-4.6405-0.78798-6.9707-0.55274-3.3311 0.33629-7.9994 1.0061-11.486 2.4414 4.0057-3.5886 8.6899-6.1261 12.357-6.4375 2.9409-0.24969 5.3605 0.15578 6.4629-1.0059 1.2383-1.3049 0.57242-4.4485-0.5-7.709zm-39.939 2.293c1.2306-0.068464 2.2772 0.1502 2.8184 0.69141 1.2379 1.2379 1.278 2.7559 0.51172 5.7012-0.58615 2.253-0.78798 4.6405-0.55274 6.9707 0.33629 3.3311 1.0061 7.9994 2.4414 11.486-3.5886-4.0057-6.1261-8.6899-6.4375-12.357-0.24969-2.9409 0.15578-5.3605-1.0059-6.4629-1.3049-1.2383-4.4485-0.57242-7.709 0.5 0.44488-1.3353 2.7904-3.968 6.0059-5.4961 1.2818-0.60915 2.6971-0.96474 3.9277-1.0332zm49.609 7.7949c1.0634 0.922 2.5961 4.0969 2.7773 7.6523 0.14453 2.8346-0.85139 5.7775-2.2656 6.3633-1.6174 0.66995-3.035 0.12605-5.4629-1.709-1.8572-1.4037-3.9837-2.5033-6.2266-3.1777-3.2062-0.96406-7.7781-2.1323-11.549-2.1406 5.0741-1.7825 10.373-2.3346 13.881-1.2188 2.8126 0.89476 4.8925 2.1963 6.3555 1.5449 1.6434-0.73171 2.2333-3.8917 2.4902-7.3145zm-56.207 1.125c0.2152 0.014315 0.41306 0.057635 0.58984 0.13086 1.6174 0.66995 2.2351 2.056 2.6543 5.0703 0.32066 2.3058 1.0472 4.5876 2.1562 6.6504 1.5854 2.9488 3.9938 7.0075 6.6543 9.6797-4.8483-2.3275-8.9865-5.6858-10.678-8.9551-1.3561-2.6215-1.9073-5.012-3.4023-5.5859-1.6795-0.64468-4.3297 1.1736-6.9316 3.4121-0.099964-1.4039 1.0594-4.7327 3.4453-7.375 1.6644-1.8433 4.0053-3.1275 5.5117-3.0273zm37.607 9.6562c5.37 0.29498 10.477 1.8124 13.291 4.1855 2.2561 1.903 3.6804 3.9013 5.2812 3.8594 1.7983-0.047097 3.5504-2.7408 5.0977-5.8047 0.62959 1.2587 0.83181 4.7786-0.36133 8.1328-0.95124 2.6742-2.9966 5.0117-4.5273 5.0117-1.7507 0-2.8537-1.0455-4.3945-3.6699-1.1787-2.0076-2.7231-3.837-4.5371-5.3184-2.5932-2.1176-6.3691-4.9458-9.8496-6.3965zm-41.973 1.5723c1.7507 0 2.8537 1.0455 4.3945 3.6699 1.1786 2.0076 2.7231 3.837 4.5371 5.3184 2.5932 2.1176 6.3691 4.9458 9.8496 6.3965-5.37-0.29498-10.477-1.8124-13.291-4.1855-2.2561-1.903-3.6804-3.9013-5.2812-3.8594-1.7983 0.047098-3.5504 2.7408-5.0977 5.8047-0.62959-1.2587-0.83181-4.7786 0.36133-8.1328 0.95124-2.6742 2.9966-5.0117 4.5273-5.0117zm44.334 3.5098c4.8483 2.3275 8.9865 5.6858 10.678 8.9551 1.3561 2.6215 1.9073 5.012 3.4023 5.5859 1.6795 0.64469 4.3297-1.1736 6.9316-3.4121 0.099964 1.4039-1.0594 4.7327-3.4453 7.375-1.9022 2.1066-4.6873 3.4823-6.1016 2.8965-1.6174-0.66995-2.2351-2.056-2.6543-5.0703-0.32066-2.3058-1.0472-4.5876-2.1562-6.6504-1.5854-2.9488-3.9938-7.0075-6.6543-9.6797zm0.23828 5.6016c3.5886 4.0057 6.1261 8.6899 6.4375 12.357 0.24969 2.9409-0.15578 5.3605 1.0059 6.4629 1.3049 1.2383 4.4485 0.57242 7.709-0.5-0.44488 1.3353-2.7904 3.968-6.0059 5.4961-2.5636 1.2183-5.6637 1.4242-6.7461 0.3418-1.2379-1.2379-1.278-2.7559-0.51172-5.7012 0.58615-2.253 0.78798-4.6405 0.55274-6.9707-0.33629-3.3311-1.0061-7.9994-2.4414-11.486zm-43.707 2.7656c1.1948-0.043835 2.4467 0.60615 4.2676 1.9824 1.8572 1.4037 3.9837 2.5033 6.2266 3.1777 3.2062 0.96406 7.7781 2.1323 11.549 2.1406-5.0741 1.7825-10.373 2.3346-13.881 1.2188-2.8126-0.89476-4.8925-2.1963-6.3555-1.5449-1.6434 0.73171-2.2333 3.8917-2.4902 7.3145-1.0634-0.922-2.5961-4.0969-2.7773-7.6523-0.14453-2.8346 0.85139-5.7775 2.2656-6.3633 0.40435-0.16749 0.79704-0.25883 1.1953-0.27344zm41.783 2.498c1.7825 5.0741 2.3346 10.373 1.2188 13.881-0.89476 2.8126-2.1963 4.8925-1.5449 6.3555 0.73171 1.6434 3.8917 2.2333 7.3145 2.4902-0.922 1.0634-4.0969 2.5961-7.6523 2.7773-2.8346 0.14453-5.7775-0.85139-6.3633-2.2656-0.66995-1.6174-0.12605-3.035 1.709-5.4629 1.4037-1.8572 2.5033-3.9837 3.1777-6.2266 0.96406-3.2062 2.1323-7.7781 2.1406-11.549zm-3.793 4.127c-0.29498 5.37-1.8124 10.477-4.1855 13.291-1.903 2.2561-3.9013 3.6804-3.8594 5.2812 0.047096 1.7983 2.7408 3.5504 5.8047 5.0977-1.2587 0.62959-4.7786 0.83181-8.1328-0.36133-2.6742-0.95124-5.0117-2.9966-5.0117-4.5273 0-1.7507 1.0455-2.8537 3.6699-4.3945 2.0076-1.1787 3.837-2.7231 5.3184-4.5371 2.1176-2.5932 4.9458-6.3691 6.3965-9.8496zm-5.082 2.3613c-2.3275 4.8483-5.6858 8.9865-8.9551 10.678-2.6215 1.3561-5.012 1.9073-5.5859 3.4023-0.64469 1.6795 1.1736 4.3297 3.4121 6.9316-1.4039 0.099963-4.7327-1.0594-7.375-3.4453-2.1066-1.9022-3.4823-4.6873-2.8965-6.1016 0.66995-1.6174 2.056-2.2351 5.0703-2.6543 2.3058-0.32066 4.5876-1.0472 6.6504-2.1562 2.9488-1.5854 7.0075-3.9938 9.6797-6.6543zm-5.6016 0.23828c-4.0057 3.5886-8.6899 6.1261-12.357 6.4375-2.9409 0.24969-5.3605-0.15578-6.4629 1.0059-1.2383 1.3049-0.57242 4.4485 0.5 7.709-1.3353-0.44488-3.968-2.7904-5.4961-6.0059-1.2183-2.5636-1.4242-5.6637-0.3418-6.7461 1.2379-1.2379 2.7559-1.278 5.7012-0.51172 2.253 0.58615 4.6405 0.78798 6.9707 0.55274 3.3311-0.33629 7.9994-1.0061 11.486-2.4414z"/></svg>
