<svg xmlns="http://www.w3.org/2000/svg" width="80" height="80"><path d="M37.635 79.98c.023-.009.05-.008.061.003.01.01-.008.018-.042.017-.037-.002-.045-.01-.02-.02zm-1.02-.061a40.787 40.787 0 0 1-5.86-.933l-.652-.15-.049-.114c-.426-.988-.75-2.447-.785-3.528l-.01-.337 2.15-.008 2.15-.008.038.376c.077.743.265 1.378.6 2.026.282.546.57.943.993 1.364a4.902 4.902 0 0 0 2.145 1.283l.258.077-.24-.003a13.371 13.371 0 0 1-.738-.045zm10.146-.545a11.24 11.24 0 0 0-.89-.064l-.6-.023v-.395c0-1.125.455-2.152 1.324-2.983.807-.771 1.837-1.222 2.995-1.31l.296-.023v.1c0 .1.003.1.157.1h.158l.02.346c.068 1.16.24 2.121.546 3.066.063.192.108.355.1.363-.079.08-3.606.89-3.78.87l-.326-.047zm-8.752-.127c-1.744-.268-3.203-1.705-3.602-3.548a5.245 5.245 0 0 1-.088-.583l-.021-.275h.201v-.473l.41-.022c2.872-.157 5.473-1.287 7.415-3.223 1.54-1.535 2.525-3.448 2.832-5.499.053-.354.113-1.153.114-1.514v-.233h.349c1.7 0 3.282 1.162 3.95 2.902.193.505.317 1.198.317 1.773v.252l-.479.022c-2.453.11-4.733.963-6.642 2.483a14.196 14.196 0 0 0-1.387 1.352 9.854 9.854 0 0 0-1.381 2.1 9.286 9.286 0 0 0-.968 3.919l-.02.617-.355-.003a5.51 5.51 0 0 1-.644-.047zm1.794-.47c.046-1.114.21-1.984.55-2.907a11.86 11.86 0 0 1 .825-1.66c1.366-2.16 3.6-3.732 6.203-4.367.698-.17 1.604-.291 2.188-.291h.317v4.292l-.104.016a6.655 6.655 0 0 1-.39.034c-.853.055-1.9.424-2.652.934-1.443.98-2.271 2.498-2.271 4.166v.303H39.782zm-11.218-.364a45.039 45.039 0 0 1-2.66-.897c-.707-.265-1.708-.669-1.741-.702-.01-.01.037-.096.103-.192.807-1.172 2.158-1.925 3.633-2.024l.328-.023v.262l.137.01.136.01.007.16c.05 1.112.237 2.19.54 3.129.065.201.125.384.134.406.02.054.036.057-.617-.14zm22.873-.479c-.304-.933-.513-2.134-.514-2.94v-.217l2.156.008 2.156.008.023.33c.03.418.126.89.27 1.32.061.186.119.354.127.374.03.071-1.633.722-3.072 1.201a28.48 28.48 0 0 1-.984.317c-.017 0-.09-.18-.162-.4zm4.888-1.425a3.829 3.829 0 0 1-.115-.313 5.118 5.118 0 0 1-.23-1.179c-.007-.211-.004-.225.064-.234.066-.01.072-.027.072-.212v-.202l.409-.022c1.757-.094 3.308-.508 4.796-1.279 1.09-.564 1.913-1.176 2.795-2.078 1.247-1.277 2.087-2.757 2.516-4.439a8.657 8.657 0 0 0 .277-2.01l.019-.634.131.016c.072.009.225.025.34.035.826.077 1.714.441 2.421.993.259.203.784.734.784.794 0 .037-.59.725-1.113 1.299a63.29 63.29 0 0 1-2.532 2.53c-.366.334-.484.419-.868.63a10.89 10.89 0 0 0-2.873 2.26c-.348.389-.37.408-1.108.9a39.125 39.125 0 0 1-4.93 2.803c-.782.372-.827.39-.856.342zm-33.58-.332a40.057 40.057 0 0 1-3.36-1.804c-.022-.018.254-.437.525-.798 1.252-1.67 3.091-2.94 5.179-3.574.84-.255 2.035-.45 2.769-.45h.305v1.347c0 .876.011 1.346.032 1.346.02 0 .032.288.032.8v.799l-.168.017c-.093.01-.284.025-.425.036a5.547 5.547 0 0 0-3.99 2.285c-.114.162-.223.295-.24.294-.019 0-.314-.135-.658-.298zm-4.61-2.583l-.525-.346.396-.21a10.762 10.762 0 0 0 3.931-3.518c1.029-1.535 1.61-3.417 1.61-5.213v-.389l.12-.02c.488-.08 1.272.065 1.898.352.696.32 1.448.992 1.874 1.673a4.93 4.93 0 0 1 .724 2.51v.381h-.232c-1.105.002-2.608.295-3.801.741a10.832 10.832 0 0 0-3.902 2.512c-.529.529-.89.964-1.258 1.516-.133.198-.257.36-.276.359-.02-.001-.271-.158-.56-.348zm16.343-2.13v-2.16l.326-.02a5.784 5.784 0 0 0 2.377-.732c1.069-.611 1.922-1.603 2.312-2.687.183-.508.246-.846.265-1.418l.018-.537h4.672v.392c-.001 3.933-2.755 7.497-6.804 8.805-.95.307-2.142.516-2.95.516H34.5v-2.16zm21.638.005v-2.164l.329-.02c1.396-.08 2.86-.786 3.76-1.811a5.15 5.15 0 0 0 1.04-1.798c.135-.415.193-.772.215-1.31l.019-.457 2.327.009 2.328.008.011.176c.028.463-.106 1.637-.253 2.227a9.487 9.487 0 0 1-1.749 3.511c-.308.387-1.122 1.195-1.515 1.505a10.581 10.581 0 0 1-6.038 2.267l-.473.021zm-39.67.96a40.05 40.05 0 0 1-3.357-2.727c-.19-.173-.345-.334-.345-.356 0-.03.094-.046.329-.06 1.91-.111 3.713-1.288 4.53-2.956.311-.638.456-1.22.486-1.963l.018-.457h2.318c1.389 0 2.324.012 2.335.03.035.056-.046 1.303-.11 1.7-.446 2.73-2.167 5.136-4.726 6.605-.274.157-.987.514-1.022.512-.004 0-.209-.148-.457-.329zm12.444-4.194c-.087-1.7-.878-3.207-2.201-4.195-.692-.517-1.801-.93-2.498-.932-.081 0-.223-.01-.315-.02l-.169-.02V58.46h.233c.344 0 .95.058 1.38.13 2.83.478 5.35 2.38 6.727 5.08.736 1.441 1.074 2.75 1.167 4.527l.021.393h-.941c-.518 0-1.49.01-2.162.021l-1.221.021-.02-.398zm-16.627.224c0-.078-.014-.372-.032-.654-.149-2.336-.936-4.43-2.358-6.268-.352-.454-1.23-1.342-1.68-1.7-1.117-.883-2.404-1.528-3.703-1.853l-.353-.089-.166-.318a34.858 34.858 0 0 1-.963-2.113c-.241-.573-.265-.647-.229-.715.075-.14.748-.76 1.022-.941a4.945 4.945 0 0 1 2.179-.797 4.57 4.57 0 0 1 .408-.033c.136 0 .137.002.137.112 0 .112.002.113.14.113h.141l.022.376c.087 1.508.392 2.8.971 4.112 1.035 2.345 2.941 4.305 5.16 5.304 1.255.565 2.334.813 3.788.87l.588.022-.022.42c-.063 1.21-.484 2.139-1.343 2.96-.864.826-1.931 1.26-3.234 1.313l-.473.02v-.141zm21.67-.209c0-.482-.05-1.028-.147-1.615-.801-4.84-4.55-8.504-9.117-8.911a8.985 8.985 0 0 0-.625-.034c-.141 0-.313-.01-.381-.02l-.125-.021.02-.452c.011-.256.047-.57.082-.724.369-1.622 1.645-2.894 3.341-3.331.352-.091.849-.164 1.117-.164.126 0 .13.003.13.113 0 .111 0 .112.144.112h.144v.248c0 .582.14 1.605.32 2.344a11.241 11.241 0 0 0 2.34 4.573 13.758 13.758 0 0 0 1.385 1.342c1 .8 2.252 1.446 3.485 1.8.747.213 1.45.317 2.403.355l.557.023-.016.452c-.026.697-.146 1.167-.45 1.762-.532 1.044-1.545 1.879-2.726 2.247-.478.15-.84.209-1.408.232l-.473.019v-.35zm21.955.316l-.244-.01-.021-.472c-.119-2.548-.966-4.82-2.5-6.707a13.61 13.61 0 0 0-1.286-1.311 9.755 9.755 0 0 0-5.05-2.295c-.202-.029-.631-.06-.953-.071l-.585-.02v-.394c0-.654.123-1.163.433-1.791.407-.824 1.16-1.564 2.045-2.009a5.282 5.282 0 0 1 1.842-.495l.296-.022v.085c0 .08.009.085.155.085h.155l.038.569c.107 1.62.49 3.066 1.177 4.436 1.44 2.873 4.015 4.908 6.993 5.525a10.46 10.46 0 0 0 1.753.195l.573.023-.02.416c-.039.723-.165 1.22-.455 1.787-.42.82-1.172 1.554-2.043 1.992a5.45 5.45 0 0 1-1.145.393c-.26.052-.786.119-.865.108a6.948 6.948 0 0 0-.292-.017zm-5.298-.144a9.67 9.67 0 0 1-.034-.435c-.086-1.477-.934-3.022-2.165-3.94-.835-.624-1.893-.963-3.022-.97h-.12V58.45l.521.02c.817.03 1.565.148 2.271.36a9.723 9.723 0 0 1 3.106 1.637c.381.304 1.19 1.118 1.503 1.515a10.463 10.463 0 0 1 2.238 6.071l.02.505h-4.301zm-39.677-.848c-2.352-2.505-4.108-4.867-5.754-7.741-.367-.641-.57-1.02-.544-1.02.008 0 .206.065.441.146 1.17.4 2.406 1.166 3.35 2.075 1.602 1.543 2.683 3.66 3.005 5.89.056.384.127 1.198.11 1.25-.007.02-.28-.25-.608-.6zm60.11-2.626c-.206-.266-.8-.81-1.117-1.02a4.972 4.972 0 0 0-1.684-.728 8.032 8.032 0 0 0-1.183-.123h-.12v-4.21l.44.022c2.126.107 4.185.844 5.82 2.084.198.15.414.32.48.379l.122.105-.538.802c-.296.44-.724 1.054-.95 1.362-.484.657-1.117 1.475-1.142 1.474a.853.853 0 0 1-.129-.147zm-54.897-1.893c-1.321-.155-2.186-.411-3.274-.97a9.658 9.658 0 0 1-3.009-2.455 10.494 10.494 0 0 1-2.28-6.012l-.022-.416 2.161.008 2.16.009.024.329a5.472 5.472 0 0 0 1.543 3.4c.966.99 2.18 1.511 3.523 1.512h.376v4.616l-.553-.004c-.304-.003-.596-.01-.649-.017zm21.654 0c-2.094-.22-3.952-1.099-5.476-2.588-1.355-1.325-2.282-2.952-2.758-4.844-.163-.646-.252-1.256-.31-2.124l-.02-.296h4.321l.038.376c.192 1.92 1.283 3.563 2.907 4.376.651.327 1.212.466 1.995.495l.521.02v4.606l-.553-.005c-.304-.003-.603-.01-.665-.017zm21.467-.028c-3.509-.424-6.52-2.953-7.746-6.506-.345-1-.578-2.279-.578-3.176v-.207l2.156.008 2.156.009.022.341c.119 1.773 1.156 3.455 2.67 4.334.7.405 1.553.63 2.397.63h.376v4.616l-.553-.003a10.01 10.01 0 0 1-.9-.046zM73.96 60.44c-1.828-1.752-4.238-2.749-6.648-2.75h-.382l.019-.44c.02-.491.078-.818.216-1.233.453-1.36 1.661-2.455 3.163-2.865.273-.074.875-.172 1.072-.173h.085l.02.632c.012.349.043.82.068 1.048.225 2.012 1.16 4.005 2.59 5.523l.249.262-.074.13a.475.475 0 0 1-.09.129c-.01-.001-.139-.119-.289-.263zm.595-.957a9.037 9.037 0 0 1-1.273-1.873c-.682-1.323-.988-2.598-.988-4.11v-.522h4.68v.521c.001.54.028.813.118 1.187l.053.22-.138.342a37.27 37.27 0 0 1-1.192 2.603c-.526 1.053-.977 1.892-1.015 1.89-.011 0-.123-.117-.245-.258zm-58.04-1.815a4.4 4.4 0 0 1-1.918-.723c-.338-.23-.91-.81-1.154-1.17a4.978 4.978 0 0 1-.823-2.324l-.023-.248h.084c.083 0 .084-.005.084-.22v-.219l.57-.037c2.474-.164 4.58-.967 6.482-2.47.417-.33 1.339-1.26 1.66-1.676 1.33-1.717 2.018-3.594 2.081-5.677l.02-.633h.367c1.059 0 2.046.43 2.861 1.249.874.877 1.323 1.914 1.368 3.162l.019.515-.477.021c-2.767.121-5.371 1.22-7.324 3.092-1.93 1.848-3.043 4.358-3.043 6.86v.52l-.36-.005a8.267 8.267 0 0 1-.473-.017zm21.59-.014c-1.4-.179-2.664-1.123-3.317-2.48-.283-.588-.43-1.112-.47-1.684l-.02-.288h.201v-.44l.377-.022c2.956-.171 5.498-1.278 7.48-3.255 1.51-1.506 2.495-3.431 2.8-5.467.053-.357.113-1.154.114-1.519v-.237l.473.018c.531.02.84.084 1.305.269 1.708.678 2.838 2.432 2.838 4.404v.255h-.238c-.578 0-1.564.12-2.257.275-3.291.738-6.076 2.889-7.431 5.74a9.308 9.308 0 0 0-.931 3.867l-.02.6-.34-.004a6.136 6.136 0 0 1-.563-.032zm21.783.014a5.955 5.955 0 0 1-.368-.062c-1.263-.25-2.412-1.154-3.03-2.385a5.24 5.24 0 0 1-.497-1.818l-.023-.265h.084c.08 0 .083-.006.083-.192v-.192h.12c.28-.001 1.08-.07 1.47-.128 2.397-.353 4.533-1.4 6.211-3.044.694-.68 1.192-1.304 1.642-2.06.859-1.445 1.3-2.942 1.35-4.583l.019-.63.18.014c.814.067 1.478.26 2.109.612.791.443 1.504 1.194 1.866 1.968.29.62.387 1.073.387 1.807v.488l-.45.021c-1.479.071-3.032.457-4.352 1.081-3.622 1.715-5.968 5.207-5.969 8.886v.505l-.36-.006a8.27 8.27 0 0 1-.473-.017zm-41.76-.61a8.47 8.47 0 0 1 .935-3.693c1.18-2.351 3.38-4.16 6.048-4.97.838-.256 2.034-.45 2.768-.45h.305v1.347c0 .876.011 1.346.032 1.346.02 0 .032.288.032.8v.8l-.104.016a6.052 6.052 0 0 1-.393.031c-1.191.065-2.489.637-3.392 1.494-.651.619-1.066 1.264-1.336 2.08-.16.485-.224.882-.224 1.388v.411h-4.69zm21.676.096c.06-1.46.32-2.502.93-3.743.463-.94.989-1.667 1.777-2.454a9.768 9.768 0 0 1 3.072-2.111c1.215-.54 2.804-.9 3.99-.9h.313V52.24l-.072.014c-.04.008-.212.022-.383.032-.628.034-1.433.256-2.051.565-1.81.905-2.907 2.604-2.91 4.51l-.001.297h-4.686l.021-.504zm21.687.144c0-4.373 3.336-8.202 7.965-9.144.597-.121 1.335-.209 1.763-.209h.273l-.009 2.156-.009 2.156-.327.022c-1.646.109-3.256 1.025-4.15 2.362-.548.82-.785 1.543-.819 2.497l-.018.52h-4.672v-.36zM2.393 53.852c-.028-.066-.2-.568-.384-1.114a41.086 41.086 0 0 1-.85-2.879c-.1-.399-.101-.411-.042-.457.126-.097 1.294-.655 1.63-.78a10.63 10.63 0 0 1 3.241-.666l.516-.02.022 2.14c.012 1.178.015 2.15.005 2.159a2.56 2.56 0 0 1-.385.042 5.64 5.64 0 0 0-3.39 1.42l-.312.275zm75.352-.834l-.002-.264h.098c.112 0 .112-.007-.02.336l-.074.193-.003-.265zm-64.98-3.16v-2.16l.332-.02c1.412-.086 2.844-.782 3.775-1.834a4.815 4.815 0 0 0 1.238-3.1l.018-.473H22.8v.072c-.003.396-.076 1.37-.127 1.679-.552 3.358-2.977 6.152-6.407 7.382-.983.353-2.367.612-3.267.612h-.233v-2.159zm21.734.004v-2.164l.297-.02c1.92-.131 3.676-1.273 4.507-2.93a4.34 4.34 0 0 0 .476-1.86l.019-.489h4.68l-.02.57a8.442 8.442 0 0 1-.96 3.674c-1.582 3.098-4.92 5.186-8.574 5.363l-.425.02zm21.638-.005v-2.159l.332-.02c1.928-.118 3.745-1.31 4.542-2.98a4.55 4.55 0 0 0 .47-1.89l.018-.409H66.17v.185c-.001.309-.063 1.062-.115 1.402-.228 1.474-.904 2.994-1.872 4.216a12.518 12.518 0 0 1-1.54 1.54 10.542 10.542 0 0 1-4.812 2.128 10.48 10.48 0 0 1-1.468.146h-.227v-2.159zm21.606 0V47.7l.457-.02a5.73 5.73 0 0 0 .761-.085c.168-.036.314-.065.325-.065.023 0-.16.906-.34 1.68-.152.65-.39 1.547-.6 2.254l-.165.553h-.439zM.863 48.611c-.01-.04-.07-.334-.133-.654l-.116-.581.175-.333a9.674 9.674 0 0 0 .981-2.969c.058-.378.126-1.267.128-1.667v-.136h.349c1.044 0 2.077.444 2.87 1.234.37.37.648.762.886 1.25.323.662.466 1.236.5 2.005l.02.437-.477.022c-1.701.075-3.434.537-4.841 1.29-.318.17-.326.173-.343.102zm71.42-1.988c-.029-.876-.143-1.353-.506-2.108a5.195 5.195 0 0 0-1.1-1.556c-.46-.459-.812-.718-1.32-.971-.619-.31-1.112-.437-1.896-.493l-.521-.037V37.27h.216c.483 0 1.397.113 1.996.245a10.45 10.45 0 0 1 4.62 2.308c.467.405.698.667 1.032 1.171 1.021 1.54 1.642 3.416 1.784 5.396.019.247.032.532.033.634v.184h-4.318l-.019-.585zm-59.75.337l-.249-.011v-.12c0-.065-.014-.349-.032-.631-.148-2.33-.942-4.44-2.358-6.267-.355-.458-1.233-1.346-1.68-1.7-1.745-1.38-3.863-2.146-5.94-2.147h-.376v-.396c0-.676.137-1.237.45-1.847a4.41 4.41 0 0 1 2.003-1.94c.644-.317 1.2-.471 1.867-.516l.328-.022v.329H6.828l.022.345c.074 1.186.31 2.336.691 3.367.204.549.69 1.54.991 2.024 1.414 2.263 3.606 3.904 6.039 4.521.794.202 1.29.27 2.229.308l.557.022-.023.405c-.04.715-.164 1.23-.42 1.742a4.686 4.686 0 0 1-1.85 1.925 4.844 4.844 0 0 1-2.531.61zm21.686-.001l-.265-.01v-.328c0-.46-.052-1.014-.147-1.593a11.092 11.092 0 0 0-2.76-5.722c-1.282-1.402-3-2.447-4.793-2.916a9.296 9.296 0 0 0-2.213-.306c-.187 0-.313-.013-.313-.032 0-.018-.038-.032-.084-.032h-.085l.018-.425c.02-.46.074-.762.205-1.162.463-1.413 1.74-2.546 3.286-2.916.336-.08.796-.145 1.044-.145h.136v.32h.279l.02.409c.174 3.592 2.173 6.996 5.15 8.773 1.491.89 2.955 1.312 4.79 1.383l.541.021-.019.47c-.028.692-.148 1.163-.447 1.747-.792 1.55-2.526 2.533-4.343 2.464zm21.907-.022c-.014-.038-.07-.05-.24-.05h-.221l-.022-.44a12.07 12.07 0 0 0-.422-2.663c-.96-3.407-3.472-6.134-6.633-7.201a9.475 9.475 0 0 0-2.941-.499h-.377v-.393c0-.216.022-.519.05-.674.343-1.965 2.109-3.466 4.27-3.631l.296-.023v.265h.315l.02.313c.038.576.086 1.014.164 1.472.708 4.155 3.727 7.563 7.563 8.538.788.2 1.286.268 2.225.306l.557.022-.02.42c-.063 1.197-.48 2.127-1.319 2.934-.758.73-1.778 1.21-2.772 1.302-.115.01-.268.026-.34.035-.1.012-.138.004-.152-.033zm21.607-.567c-.074-2.35-.991-4.545-2.638-6.315-.14-.15-.388-.427-.553-.616-1.137-1.303-2.74-2.364-4.364-2.889a9.067 9.067 0 0 0-2.625-.456l-.622-.02.018-.436c.021-.482.078-.808.217-1.228.55-1.654 2.179-2.867 4.058-3.023l.261-.021.021.636c.057 1.658.327 2.8.979 4.13 1.096 2.24 3.007 4.018 5.42 5.043.541.23 1.38.5 1.966.63l.092.021-.023.439c-.03.591-.102 1.466-.18 2.186-.064.585-.275 2.114-.306 2.217-.03.1-.76.261-1.363.301l-.34.023zm-70.522.173c-.094-2.083-1.446-4.013-3.317-4.736-.47-.181-.893-.27-1.475-.312l-.52-.037v-4.615l.552.02c.626.023 1.24.106 1.803.244 3.483.852 6.219 3.765 7.048 7.504.141.639.244 1.51.245 2.076v.264H7.23zm21.7.047a5.72 5.72 0 0 0-.82-2.65c-.751-1.21-1.92-2.062-3.213-2.345a8.04 8.04 0 0 0-1.077-.125h-.073V36.843l.457.02a8.782 8.782 0 0 1 4.576 1.482c1.87 1.239 3.26 3.097 3.969 5.304.299.931.441 1.755.505 2.926l.02.376h-4.324l-.02-.361zm21.7.225a4.97 4.97 0 0 1-.032-.395c-.068-1.341-.808-2.836-1.84-3.72-.876-.749-1.786-1.121-2.948-1.205l-.52-.038v-4.604h.328c2.063.001 4.153.795 5.79 2.2 2.118 1.816 3.4 4.499 3.52 7.361l.02.473h-4.304l-.015-.072zM.362 45.843c-.109-.661-.276-2.25-.341-3.243L0 42.27H1.107l-.02.601c-.037 1.073-.248 2.111-.61 3.004l-.078.19zm15.533-4.422c-3.359-.407-6.27-2.742-7.598-6.094a10.625 10.625 0 0 1-.713-3.242l-.022-.393H11.9v.152c0 .429.179 1.201.404 1.752.274.67.636 1.221 1.147 1.745.97.996 2.184 1.512 3.553 1.512h.345v4.617l-.553-.004a10.01 10.01 0 0 1-.9-.045zm21.703 0c-3.852-.466-7.035-3.404-8.037-7.418-.158-.637-.245-1.23-.3-2.079l-.016-.232h4.319l.02.184c.087.845.256 1.451.588 2.114.725 1.444 2.004 2.452 3.516 2.772.173.036.497.069.81.08l.52.02v4.608l-.537-.004a9.805 9.805 0 0 1-.883-.045zm21.936.028l-.369-.046c-3.734-.453-6.943-3.454-7.916-7.403-.169-.686-.306-1.662-.306-2.188v-.184h4.318l.02.303c.054.818.386 1.817.844 2.541.43.68 1.11 1.336 1.798 1.736.705.41 1.409.605 2.292.637l.505.017v4.608l-.553-.005c-.304-.002-.589-.01-.633-.016zm20.02-.475c-2.22-.621-4.131-1.903-5.45-3.656-1.174-1.56-1.811-3.423-1.811-5.297v-.393l2.332.008 2.332.008.02.513c.05 1.287.57 2.408 1.551 3.344.327.312.844.69 1.17.855l.151.077.02.282c.072.96.09 1.329.116 2.278.027 1.016.014 2.094-.027 2.09-.011 0-.192-.05-.404-.11zm-62.975-4.91a81.375 81.375 0 0 0-.32-.047c-1.581-.231-3.017-1.589-3.481-3.29a7.639 7.639 0 0 1-.173-1.01c0-.014.035-.025.08-.025h.08v-.663l.472-.02c3.242-.136 6.36-1.72 8.287-4.211.578-.748 1.18-1.837 1.484-2.687.349-.976.56-2.124.56-3.054 0-.295 0-.296.08-.296.07 0 .08-.014.08-.113v-.112h.196c.108 0 .35.023.537.05 1.76.259 3.228 1.702 3.628 3.566.047.217.072.484.085.88l.018.57h-.243c-.381 0-1.019.06-1.556.145-4.09.657-7.419 3.4-8.609 7.096a8.479 8.479 0 0 0-.432 2.552l-.02.673-.336.004a4.619 4.619 0 0 1-.417-.008zm21.558-.015c-.771-.091-1.552-.437-2.194-.972-.89-.744-1.518-1.954-1.624-3.136l-.022-.249h.201v-.663l.441-.02a11.26 11.26 0 0 0 4.448-1.141c1.199-.585 2.023-1.17 2.952-2.1.844-.844 1.391-1.597 1.9-2.615a9.294 9.294 0 0 0 .998-3.664c.017-.25.032-.57.032-.71v-.252l.409.018c1.12.051 2.013.45 2.814 1.255.892.897 1.335 1.95 1.384 3.291l.018.5-.493.02c-4.32.179-8.174 2.795-9.696 6.582-.43 1.071-.64 2.087-.677 3.29l-.02.6-.323-.003a6.533 6.533 0 0 1-.548-.031zm1.666.002c-.03-.049.014-.951.07-1.41.121-1.013.375-1.851.86-2.836 1.241-2.527 3.667-4.43 6.572-5.158.746-.186 1.623-.307 2.236-.308h.344v4.288l-.072.02c-.04.01-.16.019-.27.02-.236 0-.866.104-1.179.194-1.536.445-2.783 1.466-3.418 2.8a4.681 4.681 0 0 0-.47 1.95l-.018.473h-2.317c-1.545 0-2.324-.01-2.338-.032zm20.116.011c-1.661-.178-3.087-1.352-3.668-3.019a5.843 5.843 0 0 1-.256-1.214c-.018-.197-.017-.2.061-.2.08 0 .08-.003.08-.3v-.3l.473-.02c4.284-.182 8.157-2.823 9.653-6.583.428-1.076.676-2.305.677-3.355v-.38l.216.022c1.032.098 1.825.389 2.6.951.283.206.836.785 1.035 1.085.505.76.7 1.42.7 2.355v.488l-.443.021c-2.835.135-5.481 1.29-7.427 3.24-1.86 1.864-2.9 4.276-2.9 6.727v.504l-.344-.005a7.885 7.885 0 0 1-.457-.017zm1.58-.563a7.6 7.6 0 0 1 .167-1.514c.547-2.714 2.377-5.081 4.985-6.45 1.328-.696 2.905-1.126 4.351-1.186l.489-.02v4.298l-.072.02c-.04.01-.147.019-.237.02-.227 0-.833.107-1.182.209a6.101 6.101 0 0 0-1.843.927 6.966 6.966 0 0 0-1.033 1.046 5.073 5.073 0 0 0-.847 1.821c-.06.26-.084.467-.098.878l-.019.537h-4.68zm-61.35.4c.01-.065.04-.321.067-.568.257-2.29.792-4.824 1.508-7.143.295-.954.225-.85.69-1.04 1.227-.503 2.651-.81 3.761-.81h.328l.023 2.136c.013 1.175.016 2.143.007 2.152a2.876 2.876 0 0 1-.395.043c-1.952.137-3.7 1.261-4.528 2.913a4.5 4.5 0 0 0-.504 1.965l-.02.473H.135l.016-.12zm17.969-.272c.002-2.282.97-4.547 2.676-6.26 1.152-1.155 2.48-1.971 4.071-2.5a10.486 10.486 0 0 1 2.813-.522l.505-.022v1.29c0 .839.011 1.29.032 1.29.02 0 .032.31.032.864v.863l-.168.017c-.093.01-.284.025-.425.036-.852.062-1.81.406-2.612.936a4.622 4.622 0 0 0-.787.664c-.472.472-.748.856-1.005 1.398-.307.646-.417 1.1-.442 1.818l-.019.521H18.12v-.393zm61.368-.285c-.326-.243-.809-.746-1.013-1.055-.331-.5-.53-.967-.655-1.538-.05-.226-.059-.392-.054-.988.002-.394.012-.72.016-.725.005-.004.278-.017.607-.027l.596-.019.15.712a40.044 40.044 0 0 1 .609 3.733c.007.04 0 .072-.012.072a1.87 1.87 0 0 1-.244-.165zm-66.722-7.186v-2.163l.233-.021c.995-.09 1.746-.313 2.489-.738.47-.268.795-.518 1.19-.914a4.82 4.82 0 0 0 1.432-3.199l.02-.36h4.663l-.014.344c-.056 1.418-.316 2.47-.908 3.679a8.73 8.73 0 0 1-1.715 2.416 9.737 9.737 0 0 1-2.71 1.971c-1.367.685-2.674 1.024-4.351 1.128l-.329.02zm21.734-.001V25.99l.217-.02c.694-.064 1.257-.194 1.785-.41 1.644-.672 2.815-2.006 3.196-3.642.045-.194.07-.442.082-.83l.018-.553h4.681l-.02.633a8.03 8.03 0 0 1-.438 2.509c-1.024 3.074-3.688 5.455-7.046 6.299-.688.172-1.3.263-2.178.322l-.297.02zm21.638-.005c0-2.102.002-2.164.06-2.164.402 0 1.264-.162 1.733-.326 2.118-.74 3.56-2.65 3.56-4.715v-.248h4.68v.184c0 .65-.114 1.528-.287 2.204-.406 1.584-1.22 2.996-2.42 4.197-1.77 1.77-4.119 2.813-6.749 2.998-.256.018-.49.033-.52.033-.054 0-.057-.123-.057-2.163zm21.64.444l.001-1.726.063.16c.243.616.986 3.179.935 3.225-.014.012-.243.032-.512.044l-.489.023.002-1.726zm-75.43-2.246c0-.086.65-1.699 1.044-2.588.316-.716 1.153-2.422 1.188-2.422.054 0 .387.288.635.548.481.506.862 1.16 1.072 1.84.137.445.196.817.218 1.381l.02.484-.494.02a11.466 11.466 0 0 0-3.154.583c-.23.077-.442.15-.473.162-.03.012-.056.008-.056-.008zM7.21 24.92c-.038-1.07-.34-2-.941-2.904a5.806 5.806 0 0 0-1.066-1.166l-.237-.186c-.03-.026.447-.867.964-1.698.327-.527 1.226-1.882 1.38-2.078l.058-.075.286.222c2.333 1.805 3.761 4.642 3.883 7.708l.02.505-1.343.008-1.343.009-.01.088-.01.088H7.228zm21.702.064c-.04-.906-.218-1.604-.608-2.382-.832-1.656-2.448-2.748-4.183-2.827l-.393-.017v-2.302c0-1.347.012-2.309.03-2.32.052-.032 1.097.046 1.51.112 3.743.604 6.825 3.635 7.708 7.58.147.655.27 1.718.273 2.349v.072h-2.693v.192h-1.625l-.02-.457zm21.7.196a4.452 4.452 0 0 1-.02-.382c0-.226-.107-.86-.195-1.167a6.282 6.282 0 0 0-.66-1.485c-.516-.813-1.328-1.536-2.161-1.926-.635-.297-1.12-.414-1.833-.443l-.473-.02v-4.645l.473.021c1.43.065 2.53.338 3.71.918 2.302 1.132 4.08 3.215 4.936 5.782.318.952.529 2.195.53 3.12v.296h-1.33c-1.31 0-1.33 0-1.33.064 0 .062-.022.064-.813.064h-.813l-.02-.197zm21.671-.276c-.12-2.846-2.353-5.137-5.009-5.137h-.334v-4.103h.232c.815 0 2.094.223 3.006.523 1.003.33 1.99.825 2.798 1.403.289.206.302.223.625.721a39.007 39.007 0 0 1 2.199 3.86c.658 1.32.712 1.452.753 1.86.019.185.044.534.056.777l.02.44h-1.286c-1.266 0-1.287.002-1.287.065 0 .062-.021.064-.877.064h-.877l-.02-.473zm-60.012-.108c-.11-2.267-.723-4.172-1.911-5.943-.62-.924-1.463-1.828-2.265-2.43-.145-.11-.264-.21-.265-.226-.002-.03.52-.726.544-.725.008 0 .094.127.19.28.43.689.853 1.215 1.49 1.854.843.844 1.597 1.396 2.583 1.89 1.391.697 2.805 1.04 4.291 1.04h.429l-.021.409c-.012.225-.044.53-.07.677-.239 1.328-1.12 2.468-2.408 3.113-.65.325-1.263.476-2.048.504l-.517.018-.022-.46zm21.683.113c0-1.575-.455-3.389-1.23-4.902a10.695 10.695 0 0 0-1.43-2.147 13.458 13.458 0 0 0-1.41-1.363c-1.156-.92-2.606-1.617-3.992-1.92a11.143 11.143 0 0 0-2.08-.228h-.254l.021-.457c.032-.702.126-1.087.406-1.674.447-.935 1.294-1.73 2.306-2.167a5.179 5.179 0 0 1 1.693-.398l.264-.02v.389h.28l.021.392c.201 3.557 2.097 6.833 5.01 8.657.421.264 1.257.68 1.694.842a9.27 9.27 0 0 0 3.121.614l.654.02-.017.467c-.024.654-.125 1.088-.38 1.628-.403.852-1.194 1.648-2.081 2.094-.631.318-1.281.477-2.059.503l-.537.019v-.35zm21.69-.129c-.079-1.695-.43-3.122-1.123-4.548-.564-1.164-1.19-2.05-2.07-2.936-1.533-1.54-3.447-2.525-5.505-2.833a13.172 13.172 0 0 0-1.443-.113h-.233v-.381c0-1.109.426-2.105 1.248-2.922.85-.844 1.827-1.276 3.15-1.393l.215-.019.01.153.009.153.15.01.15.01.018.279c.068.966.152 1.528.344 2.294a11.087 11.087 0 0 0 2.033 4.155c.358.463 1.265 1.373 1.727 1.732.82.638 1.889 1.234 2.79 1.555a9.597 9.597 0 0 0 3.182.56h.425v.185c0 .344-.069.916-.145 1.208-.415 1.6-1.781 2.841-3.549 3.226a5.047 5.047 0 0 1-.829.084l-.532.019-.022-.477zM16.42 19.746c-2.568-.192-4.792-1.343-6.467-3.345-.306-.366-.865-1.162-1.016-1.448l-.062-.117.093-.123a59.75 59.75 0 0 1 1.506-1.742c.379-.412 1.588-1.635 1.616-1.635.012 0 .048.083.08.184.416 1.325 1.464 2.544 2.695 3.133.653.312 1.163.435 1.923.462l.545.02v4.616l-.384.003a9.502 9.502 0 0 1-.53-.008zm21.512-.014c-3.148-.241-6.018-2.23-7.534-5.222-.635-1.252-1.028-2.652-1.108-3.943a9.73 9.73 0 0 0-.033-.425l-.016-.12H33.566l.018.152c.09.742.185 1.136.41 1.702.5 1.256 1.52 2.325 2.723 2.852a4.5 4.5 0 0 0 1.877.39h.425v4.649l-.377-.005a13.525 13.525 0 0 1-.71-.03zm21.86.013a9.697 9.697 0 0 1-1.985-.35c-3.853-1.162-6.598-4.793-6.85-9.06l-.022-.378h4.327l.022.28c.143 1.865 1.311 3.616 2.941 4.407.662.32 1.166.444 1.935.471l.545.02.01 2.316.009 2.316-.393-.005a13.57 13.57 0 0 1-.537-.016zm11.331-4.553a9.529 9.529 0 0 0-2.31-.699 11.686 11.686 0 0 0-1.63-.143h-.253l.019-.425c.031-.737.204-1.373.526-1.932.157-.273.398-.623.43-.624.034-.002 1.23 1.232 1.697 1.747.737.816 1.884 2.183 1.853 2.209a2.53 2.53 0 0 1-.331-.133zm-54.703-.864c-1.235-.19-2.251-.834-2.983-1.892-.29-.419-.593-1.102-.699-1.573l-.03-.136.325-.298c.368-.338.966-.86 1.26-1.102.185-.153.214-.165.512-.219 1.45-.26 2.946-.866 4.195-1.7a10.478 10.478 0 0 0 2.943-2.916l.217-.32.66-.315a40.715 40.715 0 0 1 3.505-1.465c.785-.285 1.585-.543 1.607-.52.036.041.184.658.218.915.02.138.034.436.034.662v.411l-.408.022c-1.732.09-3.238.478-4.695 1.205-2.846 1.422-4.895 3.973-5.525 6.88-.141.65-.18.977-.197 1.685l-.018.697-.42-.004a7.238 7.238 0 0 1-.501-.017zm1.709-.596c.03-.942.152-1.633.437-2.492.447-1.348 1.136-2.47 2.163-3.523 1.833-1.88 4.288-2.968 6.998-3.1l.457-.023v1.303c0 .848.012 1.303.032 1.303s.032.309.032.861v.86l-.376.02c-.759.04-1.467.232-2.204.6-1.523.76-2.545 2.093-2.822 3.682a5.114 5.114 0 0 0-.047.698v.428h-4.69zm19.814.567c-1.158-.194-2.26-.955-2.922-2.017a5.065 5.065 0 0 1-.7-2.042l-.021-.213.092-.01.091-.011.01-.34.008-.341.148-.02a3.17 3.17 0 0 1 .343-.021c.264 0 .98-.082 1.417-.16 3.328-.603 6.173-2.605 7.697-5.42.507-.934.9-2.102 1.04-3.083.023-.154.053-.28.068-.28a42.638 42.638 0 0 1 3.372.593c.358.079.661.144.673.144.036 0 .263.508.367.818a5 5 0 0 1 .251 1.465l.019.506h-.11c-.277.001-1.112.072-1.503.127a11.368 11.368 0 0 0-5.497 2.36c-.447.356-1.269 1.178-1.616 1.616-1.362 1.715-2.07 3.634-2.142 5.794l-.019.585-.404-.003a5.287 5.287 0 0 1-.662-.047zm1.846-.07c.002-.44.076-1.324.142-1.712.534-3.118 2.767-5.811 5.895-7.108 1.138-.472 2.718-.803 3.844-.805h.216v4.318l-.344.019c-1.968.108-3.83 1.336-4.626 3.052-.274.592-.407 1.166-.438 1.9l-.02.456h-4.67l.001-.12zm19.986.098a5.728 5.728 0 0 1-1.011-.281c-1.428-.602-2.493-1.997-2.719-3.56-.076-.526-.076-.529.013-.529.079 0 .08 0 .08-.32 0-.176.01-.32.023-.32l.553-.034c2.11-.131 4.05-.78 5.718-1.91l.35-.237.222.152c.123.084.23.163.238.177.01.014-.1.165-.243.336-1.036 1.246-1.73 2.641-2.065 4.147a7.814 7.814 0 0 0-.203 1.72l-.019.681-.42-.005a7.984 7.984 0 0 1-.517-.017zm1.725-.579c.07-2.12.814-3.99 2.256-5.666l.133-.155.332.252a42.028 42.028 0 0 1 2.663 2.22l.473.429-.18.23a4.748 4.748 0 0 0-1.006 2.894v.397h-4.69zm-27-7.321V4.265l.408-.04c.76-.073 1.307-.232 2.012-.583 1.44-.717 2.45-1.969 2.774-3.44a.694.694 0 0 1 .064-.199c.012-.008.532 0 1.156.017a40.736 40.736 0 0 1 3.482.224c.048 0-.12.859-.27 1.379a9.194 9.194 0 0 1-1.822 3.366c-.28.328-.972 1.006-1.281 1.254-1.744 1.4-3.845 2.199-6.115 2.323l-.409.022zm21.637-.002V4.26l.329-.022c.18-.011.501-.056.713-.099l.384-.078.705.361c.796.408 1.368.724 2.117 1.17.843.501 1.719 1.067 1.707 1.102-.019.058-.697.467-1.182.714a10.531 10.531 0 0 1-4.352 1.157l-.42.023zM16.18 7.839a48.89 48.89 0 0 1 2.067-1.43c.936-.602 2.299-1.408 2.329-1.378.029.029-.927.963-1.24 1.212a10.44 10.44 0 0 1-3.491 1.855c-.01 0 .141-.117.335-.26zm12.732-4.557a5.507 5.507 0 0 0-.204-1.367 1.779 1.779 0 0 1-.067-.279c.04-.04 1.799-.5 2.573-.672.57-.127 1.632-.332 1.646-.318.025.025.135.52.21.945.091.51.142 1.024.154 1.554l.009.385-1.338.008-1.339.009v.223h-1.625zm21.698.08c-.044-.752-.14-1.293-.32-1.786a.953.953 0 0 1-.067-.237c.022-.022 1.493.407 2.244.654.752.249 1.423.488 2.06.736l.392.153v.664h-2.656l-.01.072-.01.072-.807.009-.806.008zm-16.637.148a7.66 7.66 0 0 1-.03-.573 9.798 9.798 0 0 0-.267-2.028c-.047-.207-.078-.383-.07-.391.023-.023 1.278-.199 1.935-.271a46.19 46.19 0 0 1 2.436-.194c.861-.046.946-.045.946.019 0 .096-.22.71-.339.947-.631 1.254-1.922 2.187-3.363 2.43-.497.083-1.229.12-1.248.06zm21.683-.14v-.177l.104.044.357.152.252.109-.14.022a3.139 3.139 0 0 1-.356.024l-.217.002z"/></svg>