<svg xmlns="http://www.w3.org/2000/svg" width="80" height="80"><path d="M38.75 79.99c-5.809-.194-11.371-1.585-16.491-4.124A40.218 40.218 0 0 1 6.165 61.35a40.317 40.317 0 0 1-2.98-5.678C.631 49.676-.409 43.149.145 36.592a39.861 39.861 0 0 1 10.127-23.353c.657-.73 1.73-1.824 2.402-2.45a40.34 40.34 0 0 1 7.935-5.781 39.756 39.756 0 0 1 14.394-4.7 40.682 40.682 0 0 1 8.642-.145 39.752 39.752 0 0 1 17.76 6.043 40.34 40.34 0 0 1 9.003 7.81 39.99 39.99 0 0 1 7.597 13.485 40.165 40.165 0 0 1 1.86 15.798 39.834 39.834 0 0 1-9.282 22.487 41.497 41.497 0 0 1-3.822 3.948 40.164 40.164 0 0 1-10.556 6.854 39.834 39.834 0 0 1-14.446 3.383 64.95 64.95 0 0 1-3.01.02zm17.443-10.884c.129-.2 16.11-29.101 16.103-29.12-.005-.012-3.635-6.57-8.067-14.576L56.17 10.856l-16.173-.004-16.174-.004-8.067 14.576L7.689 40l.085.157c.071.132 15.404 27.835 15.899 28.726l.164.296h32.309zm-39.096-15.28c-4.2-7.59-7.637-13.81-7.637-13.823 0-.013 3.437-6.233 7.638-13.822l7.637-13.798h30.529l7.638 13.8c4.2 7.59 7.638 13.81 7.638 13.82 0 .01-3.437 6.23-7.637 13.82l-7.637 13.8H24.734zm24.212 7.602l9.073-5.684c4.705-2.948 8.618-5.399 8.695-5.446l.14-.087.001-.107c.001-.204-.757-21.302-.772-21.481l-.015-.181-9.604-5.096c-9.292-4.93-9.606-5.094-9.653-5.067-.043.025-17.506 10.962-18.151 11.368l-.255.16.006.091c.004.05.179 4.939.389 10.864.256 7.203.39 10.78.404 10.794a6865.91 6865.91 0 0 0 19.207 10.195c.01 0 .25-.145.535-.323zm-9.426-6.13c-4.85-2.575-8.82-4.694-8.823-4.71-.007-.033-.723-19.955-.717-19.958.026-.014 2.842-1.777 9.16-5.734l7.71-4.827.068-.042 8.826 4.682 8.827 4.683.006.133.362 9.982c.265 7.327.35 9.855.334 9.872-.012.013-.739.473-1.616 1.022l-8.428 5.279a2113.785 2113.785 0 0 1-6.864 4.29c-.015.004-3.996-2.098-8.845-4.673z"/></svg>