<svg xmlns="http://www.w3.org/2000/svg" width="80" height="80"><path d="M37.156 79.952C20.225 78.926 4.865 66 1.098 49.442-2.612 34.89 2.816 18.54 14.53 9.128 27.238-1.765 46.938-3.03 61.027 5.943c12.624 7.663 20.232 22.678 18.833 37.39-1.143 16.41-13.536 31.226-29.467 35.3-4.298 1.203-8.795 1.468-13.237 1.32zm15.68-9.13c6.817-1.104 14.007-5.26 16.127-12.178-2.626-.17-5.251 4.155-8.547 4.345-4.192 1.635-7.34-2.1-8.32-5.775-1.14-3.84-3.86-8.45-8.559-7.672-4.568.306-7.859 5.334-7.573 9.67 1.143 6.69 7.422 12.199 14.333 11.739.846-.015 1.7.002 2.539-.13zm-30.944-2.39c-1.73-2.766-4.147-5.45-5.04-8.78-1.632-4.556 3.072-7.241 6.789-8.185 3.435-1.06 7.205-3.807 6.388-7.886-.322-5.919-7.845-9.679-13.009-7.017-5.578 2.05-8.769 8.117-8.07 13.898.454 7.41 4.752 14.528 11.369 18.04.295.412 1.507.647 1.573-.07zm38.97-24.612c5.574-1.608 9.57-7.079 9.32-12.877-.194-7.868-4.51-16.038-11.863-19.388-2.959.178 2.19 4.147 2.394 5.843 2.041 3.177 2.285 8.332-2.107 9.635-3.368 1.641-8.271 2.36-9.368 6.61-1.157 4.536 2.284 8.665 6.403 10.07 1.67.592 3.52.514 5.22.107zM36.424 30.26c5.597-1.053 8.652-8.275 5.787-13.142-2.438-5.265-8.22-8.45-13.968-7.916-7.355.393-15.167 4.452-17.912 11.598 2.733.526 6.76-4.831 10.847-4.144 4.276-.072 5.311 4.99 6.85 8.035 1.167 3.512 4.502 6.443 8.396 5.57z"/></svg>