<svg version="1.1" viewBox="0 0 80 80" xmlns="http://www.w3.org/2000/svg"><path d="m25.896 2.5692c-20.672 7.7895-31.116 30.863-23.326 51.535 7.7895 20.672 30.863 31.116 51.535 23.326 20.672-7.7895 31.116-30.863 23.326-51.535-7.7895-20.672-30.863-31.116-51.535-23.326zm-1.0592 4.1018-0.25235 0.29963 1.755 1.4781-0.80402 5.2997-4.3192-3.5528 0.27192-1.7931c1.0758-0.62862 2.1927-1.2068 3.3487-1.7314zm4.9713-1.8399c1.5477-0.45022 3.1039-0.7991 4.6617-1.0386l7.7014 6.3359-0.6884 4.5486-10.164 3.8298-3.1862-2.6231zm-12.171 6.1578 7.3949 6.082-0.6124 4.0357-9.9864 3.763-3.2544-2.6767 0.89087-5.8834c1.6489-1.9477 3.5093-3.735 5.5675-5.3205zm20.907-7.5837c1.553-0.06194 3.1007-0.034424 4.6315 0.09986l-0.49927 3.3001zm7.4948 0.4757c4.019 0.67585 7.8861 2.018 11.446 3.95l-9.3029 3.5054-2.9104-2.3952zm-38.456 19.089 0.4967 0.40977-0.62461 4.1196-2.164 0.81541c0.62065-1.8399 1.39-3.6265 2.2919-5.3448zm-3.2133 8.5493 0.95039-0.35812 1.4016 1.1771-0.91646 6.0371-2.2649-1.8787c0.16297-1.6824 0.43938-3.3453 0.82945-4.9774zm5.7225-2.1563 3.6078-1.3595 8.6003 7.0763-0.52462 3.46-10.845 4.0867-2.5311-2.0977zm8.2775-3.1191 3.9386-1.4841 1.3794 1.1625-0.88409 5.835-4.6857-3.8552zm8.6869-3.2733 3.5292-1.3299 8.7484 7.1979-0.49543 3.2715-10.703 4.033-2.7348-2.2505zm8.3525-3.1473 3.9368-1.4834 1.4023 1.1789-0.90875 5.9966-4.7789-3.9307 0.07957 0.01176zm8.7107-3.2823 4.0099-1.511 8.2606 6.7952-0.59068 3.8939-10.778 4.0612-2.5867-2.1289zm8.601-3.241 3.9368-1.4834 1.1083 0.93068-0.87233 5.7554-4.4106-3.6291zm8.3598-3.1501 0.09321-0.03512c3.7361 2.6418 6.9987 6.0046 9.5652 9.9749l-8.1734 3.0798-3.0764-2.5309zm-57.71 29.957 1.9303 1.5999-0.48979 3.2256-1.0454 0.39393c-0.25792-1.7436-0.39036-3.4869-0.39507-5.2194zm3.9106 7.7914 3.7687-1.4201 8.4589 7.0168-0.55765 3.6769-9.206 3.4689c-1.3289-1.9511-2.4849-4.0553-3.4396-6.3033zm8.4329-3.1776 3.5695-1.345 1.5595 1.3138-0.83003 5.4744-4.5516-3.7763zm8.5334-3.2155 4.0209-1.5151 8.3341 6.8572-0.59 3.8958-10.522 3.9648-2.8825-2.3932zm8.7527-3.2981 3.5713-1.3457 1.3704 1.1554-0.83432 5.5073-4.3685-3.5948zm8.3086-3.1308 3.8454-1.449 8.3972 6.9086-0.57824 3.8162-10.191 3.8401-3.0789-2.5321zm8.6467-3.2582 3.5713-1.3457 1.3755 1.1577-0.84563 5.5825-4.3735-3.5971zm8.3141-3.1329 4.4285-1.6687 8.1974 6.7438-0.61784 4.0711-10.61 3.9978-3.0157-2.4807zm8.9721-3.3808 3.5713-1.3457 1.3908 1.1707-0.80561 5.3065-4.3863-3.609zm7.4168 2.8887c0.69907 2.0485 1.2134 4.1175 1.5371 6.1895l-2.2017-1.8106zm-61.736 35.525 3.765-1.4187 1.3173 1.1087-0.79745 5.2617c-1.573-1.2481-3.0456-2.6359-4.4064-4.1441zm8.4384-3.1797 4.5637-1.7197 7.8734 6.532-0.6409 4.2259-9.0507 3.4104c-1.4729-0.70938-2.898-1.5154-4.2667-2.4163zm8.9958-3.3897 3.6608-1.3794 1.0937 0.91951-0.809 5.3308-4.1609-3.4539zm8.0655-3.0392 4.8068-1.8113 7.5922 6.2455-0.70334 4.6418-9.9078 3.7334-3.3128-2.7486zm8.9721-3.3808 3.6627-1.3801 1.0273 0.86521-0.75968 5.0075-4.0997-3.3747zm7.9888-3.0103 4.7319-1.783 7.9433 6.5348-0.63592 4.1948-9.8366 3.7065-3.6655-3.0144zm9.2992-3.5041 3.6608-1.3794 1.0426 0.87821-0.82484 5.4328-4.1137-3.384zm8.0052-3.0165 3.9441-1.4862c0.03723 4.8077-0.87982 9.5284-2.6349 13.906l-2.8383-2.3368zm-45.001 32.92 3.3008-1.2438 1.4803 1.2476-0.25111 1.66c-1.5576-0.34038-3.0877-0.77902-4.5827-1.3163zm8.1679-3.0778 3.3026-1.2445 7.4916 6.2167c-3.8914 0.7229-7.7992 0.80507-11.591 0.28517zm8.2264-3.0998 3.8637-1.4559 1.4847 1.2481-0.92075 6.07-4.7222-3.9186zm8.7345-3.2912 3.7212-1.4022 6.4253 5.2868c-2.9494 2.3729-6.3122 4.3321-10.047 5.7395-0.54675 0.20602-1.0954 0.39576-1.6454 0.5741zm8.6358-3.2541 3.8619-1.4552 1.4304 1.2038-0.6986 4.6046c-0.28743 0.29112-0.5742 0.583-0.87209 0.86502l-4.0134-3.3007zm8.6687-3.2665 2.1402-0.80646c-0.78855 1.4701-1.6751 2.8874-2.6596 4.2415z"/></svg>
