<svg version="1.1" viewBox="0 0 80 80" xmlns="http://www.w3.org/2000/svg"><path d="m40 0c-22.091 0-40 17.909-40 40s17.909 40 40 40 40-17.909 40-40-17.909-40-40-40zm-0.71484 2.6191v2.9297c-4.4575 0.30757-7.9883 3.8391-8.2949 8.2969h-2.9316c0.31876-6.0467 5.18-10.907 11.227-11.227zm1.2559 0c6.0474 0.31868 10.908 5.1792 11.227 11.227h-2.9316c-0.30653-4.4584-3.8367-7.9902-8.2949-8.2969v-2.9297zm-12.482 12.48h2.9316c0.30663 4.4577 3.8375 7.9893 8.2949 8.2969v2.9297c-6.0466-0.31962-10.908-5.1798-11.227-11.227zm20.777 0h2.9316c-0.31868 6.0474-5.1792 10.908-11.227 11.227v-2.9297c4.4582-0.30668 7.9884-3.8385 8.2949-8.2969zm-30.93 0.26953c1.7893 0.011999 3.5968 0.42845 5.2832 1.2871l-1.4648 2.5391c-4.0143-1.9637-8.8393-0.67245-11.334 3.0352l-2.5371-1.4648c2.2685-3.491 6.1162-5.4229 10.053-5.3965zm44.014 0c3.9364-0.026125 7.7839 1.9062 10.053 5.3965l-2.5371 1.4648c-2.4951-3.7065-7.3202-4.9985-11.334-3.0352l-1.4648-2.5391c1.6863-0.85854 3.4939-1.2752 5.2832-1.2871zm-37.645 1.9141c5.0779 3.2997 6.8571 9.9394 4.1094 15.336l-2.5371-1.4648c1.9635-4.0143 0.67069-8.8374-3.0371-11.332l1.4648-2.5391zm31.275 0 1.4648 2.5391c-3.7072 2.4944-4.9995 7.318-3.0371 11.332l-2.5371 1.4648c-2.7465-5.3963-0.96788-12.037 4.1094-15.336zm-48.324 4.5703 2.5371 1.4648c-1.9624 4.0141-0.67008 8.8376 3.0371 11.332l-1.4648 2.5391c-5.0773-3.2994-6.8559-9.9396-4.1094-15.336zm65.373 0c2.7477 5.3965 0.96848 12.036-4.1094 15.336l-1.4648-2.5391c3.7078-2.4947 5.0006-7.3178 3.0371-11.332l2.5371-1.4648zm-33.314 6.293v2.9297c-4.4575 0.30757-7.9883 3.8391-8.2949 8.2969h-2.9316c0.31876-6.0467 5.18-10.907 11.227-11.227zm1.2559 0c6.0474 0.31868 10.908 5.1792 11.227 11.227h-2.9316c-0.30653-4.4584-3.8367-7.9902-8.2949-8.2969v-2.9297zm-15.322 4.0957 2.5391 1.4648c-3.3001 5.0767-9.9399 6.8567-15.336 4.1094l1.4648-2.5391c4.0138 1.9633 8.8369 0.67134 11.332-3.0352zm29.389 0c2.4947 3.7076 7.3177 4.9989 11.332 3.0352l1.4648 2.5391c-5.3965 2.7477-12.036 0.96849-15.336-4.1094l2.5391-1.4648zm-26.549 8.3848h2.9316c0.30663 4.4577 3.8375 7.9893 8.2949 8.2969v2.9297c-6.0466-0.31962-10.908-5.1798-11.227-11.227zm20.777 0h2.9316c-0.31868 6.0474-5.1792 10.908-11.227 11.227v-2.9297c4.4582-0.30668 7.9884-3.8385 8.2949-8.2969zm-31.131 0.26953c3.9365-0.026399 7.7842 1.9055 10.053 5.3965l-2.5371 1.4648c-2.4947-3.7076-7.3197-4.9989-11.334-3.0352l-1.4648-2.5391c1.6864-0.85866 3.4939-1.2751 5.2832-1.2871zm44.416 0c1.7893 0.011875 3.5969 0.42857 5.2832 1.2871l-1.4648 2.5391c-4.0138-1.9633-8.8369-0.67134-11.332 3.0352l-2.5371-1.4648c2.2688-3.4902 6.1144-5.4226 10.051-5.3965zm-50.785 1.9141 1.4648 2.5391c-3.7078 2.4947-5.0006 7.3178-3.0371 11.332l-2.5371 1.4648c-2.7477-5.3965-0.96849-12.036 4.1094-15.336zm57.154 0c5.0773 3.2994 6.8559 9.9396 4.1094 15.336l-2.5371-1.4648c1.9624-4.0141 0.67008-8.8376-3.0371-11.332l1.4648-2.5391zm-40.105 4.5703c2.7465 5.3963 0.96788 12.037-4.1094 15.336l-1.4648-2.5391c3.7072-2.4944 4.9995-7.318 3.0371-11.332l2.5371-1.4648zm23.057 0 2.5371 1.4648c-1.9635 4.0143-0.67069 8.8374 3.0371 11.332l-1.4648 2.5391c-5.0779-3.2997-6.8571-9.9394-4.1094-15.336zm-12.156 6.293v2.9297c-4.4582 0.30668-7.9884 3.8385-8.2949 8.2969h-2.9316c0.31868-6.0474 5.1792-10.908 11.227-11.227zm1.2559 0c6.0466 0.31962 10.908 5.1798 11.227 11.227h-2.9316c-0.30663-4.4577-3.8375-7.9893-8.2949-8.2969v-2.9297zm-30.15 4.0957c2.4951 3.7065 7.3202 4.9985 11.334 3.0352l1.4648 2.5391c-5.396 2.7473-12.036 0.96733-15.336-4.1094l2.5371-1.4648zm59.045 0 2.5371 1.4648c-3.2997 5.0779-9.9394 6.8571-15.336 4.1094l1.4648-2.5391c4.0143 1.9637 8.8393 0.67245 11.334-3.0352zm-41.377 8.3848h2.9316c0.30653 4.4584 3.8367 7.9902 8.2949 8.2969v2.9297c-6.0474-0.31868-10.908-5.1792-11.227-11.227zm20.777 0h2.9316c-0.31876 6.0467-5.18 10.907-11.227 11.227v-2.9297c4.4575-0.30757 7.9883-3.8391 8.2949-8.2969z" fill-opacity=".99234"/></svg>
