<svg xmlns="http://www.w3.org/2000/svg" width="80" height="80"><path d="M36.832 79.846c-7.025-.813-12.176-2.472-17.278-5.563-3.585-2.17-5.386-3.58-8.1-6.337C1.41 57.74-2.358 43.091 1.47 29.122c.938-3.424 2.994-7.862 5.221-11.272 2.335-3.576 7.608-8.831 11.229-11.191 2.999-1.955 7.72-4.15 10.911-5.075 13.475-3.9 27.896-.49 38.227 9.04 1.423 1.311 3.182 3.126 3.91 4.032 8.164 10.16 10.96 23.048 7.71 35.544-2.197 8.444-7.88 16.839-14.653 21.647-1.222.867-2.266 1.577-2.32 1.577-.054 0-.703.407-1.442.904-5.675 3.814-16.377 6.335-23.43 5.518zm5.618-9.496c1.352-1.262 1.702-2.832.972-4.37-.431-.906-2.22-2.182-3.06-2.182-.87 0-2.199.652-2.965 1.455-.607.637-.706.952-.725 2.324-.02 1.461.043 1.653.803 2.437.89.918 1.539 1.12 3.24 1.008.727-.048 1.308-.273 1.735-.672zm-23.432-6.314c.804-.868.865-1.456.278-2.69-.768-1.618-2.647-1.838-3.865-.452-1.081 1.23-1.052 2.183.103 3.337.798.797.988.872 1.839.724.578-.101 1.22-.46 1.645-.919zm45.293.495c.984-.342 1.3-.89 1.3-2.248 0-1.422-.909-2.285-2.408-2.285-1.438 0-2.409.87-2.409 2.158 0 1.158.336 1.786 1.21 2.26.843.457 1.266.478 2.307.115zM27.61 59.385c.47-.198 1.323-.763 1.895-1.254.869-.747 1.093-1.141 1.358-2.387.48-2.264.053-3.968-1.33-5.3-.587-.566-1.433-1.213-1.88-1.437-1.088-.547-3.293-.524-4.396.045-2.076 1.071-2.228 1.257-3.314 4.056-.777 2 .607 4.85 2.957 6.088 1.197.63 3.448.72 4.71.189zm29.143-.049c2.252-.736 3.79-2.845 3.787-5.193-.003-1.55-.33-3.587-1.848-4.633l-1.138-.784c-1.932-.507-3.402-.599-5.102 0l-1.048 1.013c-1.22 1.18-1.656 1.934-2.002 3.457-.69 3.028 2.095 6.4 5.386 6.523.393.014 1.277-.158 1.965-.383zm-15.629-5.961c.866-.394 1.316-1.763.905-2.753-.585-1.412-2.818-1.55-3.471-.214-.635 1.299-.565 1.969.273 2.63.882.694 1.356.764 2.293.337zM14.29 42.245c1.428-1.332 1.69-2.667.875-4.46-.357-.785-.764-1.197-1.563-1.583-1.308-.631-1.712-.645-2.967-.102-1.136.492-2.084 1.808-2.263 3.144-.162 1.208.685 2.793 1.8 3.368 1.176.607 3.275.42 4.118-.366zm55.825.276c2.667-1.624 2.305-5.304-.635-6.459-.995-.39-1.17-.392-2.303-.016-2.163.717-3.052 2.901-2.1 5.156.692 1.638 3.365 2.338 5.038 1.32zm-28.624-.267c2.252-1.264 2.441-4.007.374-5.41-.777-.528-1.14-.619-1.978-.495-1.45.214-2.141.726-2.71 2.013-.492 1.11-.492 1.127.001 2.24.352.794.783 1.274 1.47 1.636 1.24.653 1.703.656 2.843.016zm-11.872-1.317c.755-.904.633-2.054-.302-2.84-.636-.535-.953-.635-1.585-.501-1.146.243-1.677.817-1.677 1.812 0 1.367.679 2.081 1.988 2.09.837.007 1.214-.128 1.576-.561zm23.846.046c.593-.422.736-.713.736-1.492 0-1.318-.656-2.077-1.825-2.11-1.03-.03-1.662.382-2.015 1.31-.348.913-.043 1.889.742 2.375.915.567 1.475.547 2.362-.083zm-25.856-11c2.013-.889 3.233-2.778 3.338-5.165.077-1.76-1.077-3.883-2.589-4.765-.968-.565-1.479-.68-3.064-.695-1.696-.014-2.03.066-3.083.744-2.476 1.592-3.26 5.276-1.644 7.716.382.578 1.225 1.386 1.873 1.796.977.62 1.446.747 2.746.747.862 0 1.953-.17 2.423-.378zm29.053.07a6.571 6.571 0 0 0 3.036-2.69c.58-.974.698-1.458.675-2.756-.064-3.647-3.27-6.183-6.811-5.39-1.621.362-2.736 1.232-3.673 2.864-1.384 2.41-.888 4.93 1.38 7.013 1.225 1.125 3.911 1.602 5.393.959zM41.377 28.95c.975-.974.791-2.68-.353-3.27-1.058-.547-1.619-.48-2.383.282-.906.906-.808 2.524.194 3.192.501.334 2.135.203 2.542-.204zM18.765 18.189c.953-1.033.94-2.207-.039-3.253-.976-1.045-2.471-1.106-3.436-.142-.933.932-.909 2.562.052 3.456.383.357.868.713 1.077.792.688.26 1.637-.086 2.346-.853zm45.951.121c.8-.523 1.114-1.979.616-2.855-1.082-1.903-3.038-2.028-4.204-.268-.578.872-.639 1.139-.44 1.923.424 1.66 2.417 2.255 4.028 1.2zM42.03 14.417c2.843-1.98 1.735-5.961-1.504-6.477-2.975-.275-3.92 1.48-3.94 3.39 0 1.17.124 1.611.63 2.245 1.224 1.534 3.3 1.897 4.814.842z"/></svg>