<svg xmlns="http://www.w3.org/2000/svg" width="80" height="80"><path d="M38.91 79.995a98.956 98.956 0 0 1-.845-.037c-9.952-.472-19.315-4.625-26.378-11.702C4.83 61.384.73 52.344.09 42.683c-.476-7.184.96-14.292 4.171-20.658A40.112 40.112 0 0 1 24.808 2.988C31.056.418 37.938-.52 44.718.275c10.157 1.19 19.46 6.243 26.044 14.146a39.848 39.848 0 0 1 9.134 22.533A34.15 34.15 0 0 1 80 40.003c0 1.33-.02 1.932-.106 3.062a39.847 39.847 0 0 1-9.143 22.532C65.261 72.18 57.868 76.81 49.59 78.849c-2.483.612-4.866.961-7.564 1.109-.498.027-2.662.053-3.115.037zm1.57-35.519a4.458 4.458 0 0 0 2.023-.734 4.488 4.488 0 0 0 .53-7.061 4.494 4.494 0 0 0-5.025-.703 4.24 4.24 0 0 0-1.226.9 4.475 4.475 0 0 0-1.217 2.399c-.055.313-.06 1.114-.011 1.4a4.512 4.512 0 0 0 4.927 3.8z"/></svg>