<svg xmlns="http://www.w3.org/2000/svg" width="80" height="80"><path d="M38.751 79.99a40.195 40.195 0 0 1-9.847-1.544c-7.465-2.155-14.13-6.44-19.234-12.364a39.926 39.926 0 0 1-7.834-14.067 40.224 40.224 0 0 1-.021-23.96 39.975 39.975 0 0 1 8.157-14.48 36.338 36.338 0 0 1 1.816-1.921c.993-.989 1.74-1.67 2.726-2.485a39.952 39.952 0 0 1 16.277-8.104 40.316 40.316 0 0 1 11.84-.98A39.801 39.801 0 0 1 62.996 7.26a39.215 39.215 0 0 1 5.216 4.384 37.284 37.284 0 0 1 2.992 3.317 39.811 39.811 0 0 1 8.555 20.542c.177 1.584.242 2.79.242 4.5 0 1.184-.015 1.687-.076 2.628A39.76 39.76 0 0 1 74.92 59.54a40.35 40.35 0 0 1-5.065 7.096 47.5 47.5 0 0 1-2.57 2.629c-4.328 4.008-9.279 6.94-14.77 8.745-3.503 1.151-6.909 1.773-10.75 1.962a63.83 63.83 0 0 1-3.015.02zm.488-32.868c.58-2.051 1.586-3.99 2.93-5.645a18.087 18.087 0 0 1 1.835-1.909c2.546-2.218 5.616-3.541 8.931-3.85a16.317 16.317 0 0 1 3.143.019c4.31.45 8.283 2.702 10.91 6.186a15.845 15.845 0 0 1 1.739 2.91c.077.17.143.314.147.318.004.005.007-2.808.007-6.25v-6.26H39.695l-.068.219a15.697 15.697 0 0 1-2.82 5.289 15.76 15.76 0 0 1-8.193 5.315 15.943 15.943 0 0 1-5.805.428c-3.92-.44-7.477-2.299-10.097-5.276a15.927 15.927 0 0 1-2.586-4.063 5.066 5.066 0 0 0-.118-.26c-.005-.005-.008 2.934-.008 6.531v6.54l14.587-.005 14.587-.005z"/></svg>