<svg xmlns="http://www.w3.org/2000/svg" width="80" height="80"><path d="M40 0A40 40 0 0 0 0 40a40 40 0 0 0 40 40 40 40 0 0 0 40-40A40 40 0 0 0 40 0zM29.46 12.72c3.39 1.514 6.01 4.729 6.505 8.448.912 3.246 1.361 6.71 2.976 9.701 2.476.532 2.738-4.05 4.307-5.603.996-2.938 3.973-2.001 4.504.623a9.718 9.718 0 0 1 .463 6.441c1.09 2.36 4.817 1.03 7 1.424 1.522.1 7.19-.55 4.535 2.168-1.826 1.838-4.72 1.705-6.582 3.594-1.113.851-2.216 1.717-3.324 2.574 2.655.646 5.502.804 7.931 2.133.734 2.311-4.011 1.816-5.525 2.683-3.604 1.077.5 3.948 2.129 4.735 3.166 2.118 6.34 4.463 8.535 7.623.577 2.672-3.541 5.102-5.67 3.025-4.637-3.288-7.793-8.232-12.39-11.566-3.265-.478-1.392 3.893-.66 5.472 1.097 2.815 2.95 5.534 2.894 8.65-.518 2.802-4.025 3.19-5.524.934a23.986 23.986 0 0 1-.752-.72c-2.297-2.324-2.489-5.738-2.55-8.809.215-1.768-1.525-4.96-2.93-2.137-.594 1.224-2.332 5.142-2.775 1.701-1.002-3.336-3.984.24-4.864 1.836-2.044 2.694-3.892 5.603-6.35 7.94-2.21.412-4.56-2.653-4.413-4.865.925-2.919 3.805-4.58 6.037-6.44 2.162-1.85 4.984-3.029 6.646-5.406.875-2.652-3.032-2.811-4.49-4.068-2.26-.901-4.157-4.205-.543-4.65 2.343-.545 4.556-2.289 4.367-4.901.468-2.397 6.419-1.153 3.297-4.156-3.335-3.856-6.802-8.114-7.574-13.311.159-2.332 2.488-4.934 4.79-5.072z"/></svg>