<svg xmlns="http://www.w3.org/2000/svg" width="80" height="80"><path d="M22.309 75.972C10.006 69.68 1.673 57.852.201 44.598-.57 37.66.13 32.27 2.655 25.67c2.525-6.6 5.604-11.08 10.808-15.73 8.95-8 21.62-11.54 33.732-9.427 3.764.656 10.513 3.239 13.755 5.263 13.933 8.701 21.102 24.456 18.563 40.795-1.024 6.591-4.593 14.251-9.062 19.451C61.296 76.673 46.69 81.89 32.968 79.41c-2.692-.487-8.64-2.405-10.659-3.438zm10.386-.71c4.11.991 9.958 1.069 14.515.193 3.892-.748 3.808-.642 2.93-3.676l-1.025-3.546c-.15-.521-.475-1.612-.721-2.424-.247-.812-.33-1.567-.184-1.678.297-.225.32-.202 2.076 2.228.698.965 1.39 1.663 1.537 1.552.28-.213-.546-3.02-2.065-7.02-.495-1.302-2.031-5.428-3.415-9.17-1.383-3.74-2.67-7.184-2.86-7.65-.19-.468-.209-.907-.041-.977.167-.07 5.616 1.728 12.107 3.997 6.492 2.268 12.13 4.181 12.53 4.25 1.082.19.793-.333-.902-1.634-2.505-1.924-2.376-1.766-1.616-1.974.678-.185 5.144 1.023 8.074 2.184.865.343 1.695.53 1.845.417.483-.367 1.535-6.212 1.658-9.206.14-3.461-.126-6.33-.91-9.776-.624-2.748-1.116-3.242-2.43-2.441-.446.27-2.168.854-3.828 1.296-1.66.441-3.113.855-3.23.919-.487.264-2.304.523-2.387.339-.049-.11.795-.857 1.876-1.661 2.334-1.738 2.469-2.49.296-1.654-.837.321-1.894.627-2.35.68-.455.053-1.48.395-2.275.76-.795.364-2.489 1.022-3.764 1.461-2.715.936-5.722 2.044-6.314 2.325-.23.11-1.555.584-2.947 1.055-1.39.471-2.977 1.044-3.524 1.272-2.265.945-2.272.92-.916-3.25.68-2.096 2.285-6.547 3.564-9.893 2.237-5.85 3.615-10.55 3.304-11.27-.082-.19-.665.346-1.296 1.19-.632.843-1.314 1.75-1.517 2.016-.203.266-.427.331-.5.146-.166-.428.682-4.201 1.726-7.681l.807-2.688-2.03-.579c-5.157-1.47-12.286-1.368-18.368.262l-1.614.433.454.924c.25.508.978 2.726 1.618 4.93 1.7 5.848 1.544 6.402-.805 2.876-.746-1.12-1.44-2.069-1.54-2.107-.388-.148-.43.715-.083 1.687.2.557.756 2.136 1.237 3.508.721 2.056 2.36 6.48 3.101 8.368.095.241.378 1.049.628 1.794.25.745 1.04 2.839 1.756 4.653 1.293 3.281 1.9 5.493 1.471 5.37-.123-.035-5.518-1.966-11.988-4.29-6.47-2.326-12.04-4.22-12.377-4.21-.762.02-.828.662-.11 1.061.902.502 3.264 2.464 3.192 2.651-.037.098-2.374-.42-5.192-1.149L4.748 29.13l-.568 2.035c-.725 2.595-1.092 7.035-.86 10.407.252 3.687 1.313 8.292 1.967 8.542.291.112.617.106.725-.012.385-.425 9.234-2.63 9.22-2.297-.008.187-.771.896-1.696 1.576-2.706 1.99-2.484 2.381.743 1.308 1.167-.388 2.214-.67 2.326-.628.112.043.886-.23 1.721-.605 1.58-.712 2.816-1.18 7.413-2.813a171.088 171.088 0 0 0 4.54-1.685c3.3-1.305 6.071-2.144 6.171-1.869.054.15-1.751 5.558-4.013 12.019-2.261 6.46-4.14 12.077-4.176 12.48-.078.87.364 1.15.673.426.351-.822 2.494-3.345 2.757-3.244.437.167.081 1.998-1.1 5.649-.668 2.064-1.062 3.742-.923 3.932.134.183.53.38.882.44.351.06 1.317.272 2.145.472z"/></svg>