<svg xmlns="http://www.w3.org/2000/svg" viewBox="0 0 64 64"><path d="M48.955 59.32c9.107-5.776 14.656-15.098 15.244-25.612.277-4.962-.266-7.973-2.436-13.462-1.618-4.094-2.209-5.247-3.688-7.228C52.439 5.48 44.125.836 34.847.038 19.656-1.263 5.357 8.586 1.27 23.164-4.988 45.484 13.18 66.579 36.276 63.808c3.448-.414 9.801-2.66 12.678-4.487zM41.5 56.744c-2.999.265-5.242-.074-8.195-1.242-2.124-.837-3.238-1.551-5.003-3.2-2.192-2.05-2.31-2.234-3.572-5.424-1.137-2.877-1.304-3.617-1.28-5.765.042-4.557-1.692-7.232-4.078-6.289-2.147.849-3.247 3.582-3.17 7.886.076 4.508 1.136 6.944 4.599 10.574 2.097 2.19 4.912 4.03 8.568 5.597 2.746 1.174 2.995 1.349 2.11 1.477-3.548.507-7.057-.571-11.17-3.432-5.881-4.093-8.721-9.195-9.295-16.714-.243-3.173.716-6.188 2.67-8.406 1.314-1.498 1.77-1.792 4.32-2.8 2.406-.947 3.14-1.099 4.73-.958 1.573.134 2.15.401 3.548 1.646 2.425 2.15 3.37 4.615 2.81 7.311-.842 4.021-.812 5.913.12 8.282 1.17 2.969 2.719 4.348 6.939 6.182 4.656 2.025 6.758 2.135 11.143.582 2.256-.795 4.045-1.645 5.487-2.598 1.176-.78 2.221-1.383 2.32-1.337.456.198-1.956 3-3.878 4.502-2.643 2.07-6.903 3.877-9.723 4.126zm1.436-8.288c-2.487-.088-4.978-1.128-6.916-2.886-3.39-3.08-3.936-4.971-2.493-8.685 1.201-3.104 2.1-3.933 5.358-4.944 5.9-1.83 8.55-5.817 8.093-12.167-.133-1.867-.485-3.282-1.363-5.502-1.033-2.613-1.381-3.175-2.798-4.514-1.68-1.583-4.573-3.518-6.923-4.627-.748-.35-1.318-.73-1.27-.842.047-.115.838-.142 1.755-.064 3.265.277 8.88 3.366 11.496 6.331 1.602 1.808 3.708 6.783 4.01 9.462.457 4.057-1.158 9.13-3.869 12.144-.654.725-2.233 1.958-3.513 2.746-5.134 3.142-6.091 6.385-2.205 7.482 1.902.539 5.008-.442 7.932-2.505 2.767-1.947 3.736-3.128 4.965-6.025 1.722-4.067 2.216-9.945 1.213-14.471-.623-2.808.77-1.145 2.3 2.746 1.14 2.904 1.234 6.63.283 11.106-.785 3.67-1.996 5.97-4.818 9.11-3.757 4.19-7.528 6.234-11.237 6.105zM4.628 39.929c-2.253-9.014 2.053-18.257 9.954-21.38 5.442-2.152 10.187-1.634 14.993 1.641 2.167 1.475 4.662 2.219 5.864 1.744 1.345-.532 1.776-2.278 1.03-4.163-1.221-3.091-6.692-6.759-10.626-7.127-4.37-.406-10.496 1.402-14.929 4.407-1.165.792-2.196 1.406-2.287 1.367-.314-.137 1.395-2.657 2.79-4.112 2.535-2.64 9.046-5.167 13.977-5.424 3.95-.205 10.811 2.231 13.86 4.925 1.915 1.691 3.517 4.935 3.636 7.35.107 2.292-.75 5.307-2.031 7.145-1.324 1.9-3.125 2.71-6.086 2.743-2.547.028-4.132-.77-6.359-3.207-2.025-2.213-4.858-3.628-7.487-3.745-2.15-.096-5.916 1.356-8.754 3.377-4.09 2.915-5.914 6.79-6.27 13.32-.174 3.265-.64 3.68-1.275 1.139zm0 0"/></svg>