<svg xmlns="http://www.w3.org/2000/svg" width="80" height="80"><path d="M59.21 75.091c-7.38 4.05-15.905 5.637-24.367 4.536C12.888 76.772-2.487 56.798.37 34.844 3.226 12.89 23.2-2.486 45.155.37c21.955 2.855 37.33 22.829 34.473 44.783-1.652 12.698-9.218 23.791-20.418 29.938zm2.067-9.598c.405-1.291.254-9.614-.185-10.184-.645-.838-1.967-1.023-5.991-.837-5.52.256-5.48.247-6.089 1.334-.623 1.111-.433 9.73.234 10.599.251.328.877.688 1.39.8 1.342.293 9.428-.111 9.935-.497.235-.179.552-.726.706-1.215zm11.593-15.45c.17-1.948-.15-6.115-.504-6.576-.333-.431-6.862-.502-8.14-.088-.642.207-.832 1.306-.953 5.51-.099 3.423.257 3.66 5.377 3.586 2.798-.04 4.075-.776 4.22-2.433zm-30.02 20.82c-.035-1.05-.241-2.138-.458-2.419-.432-.56-4.147-.503-4.898.076-.664.51-.504 4.622.19 4.92.914.39 4.019.235 4.644-.233.375-.28.562-1.123.522-2.345zm-.283-10.348c.089-.373.199-1.964.244-3.535.063-2.185-.088-3.078-.641-3.797-.655-.85-1.04-.933-4.04-.857-1.823.046-3.602.305-3.954.576-.451.347-.68 1.464-.78 3.813-.176 4.167.117 4.984 1.773 4.934.672-.02 2.432-.02 3.91 0 2.877.038 3.236-.079 3.488-1.134zm15.255-15.221c.189-3.45-.022-4.813-.82-5.3-.508-.31-5.388-.453-6.899-.202-.488.081-1.026.316-1.194.522-.502.613-.608 7.59-.126 8.217.314.407 1.624.55 4.431.482 2.193-.052 4.086-.172 4.208-.265.121-.094.301-1.648.4-3.454zm14.855-8.553c.338-.553.36-6.429.029-7.428-.24-.72-1.021-.852-5.173-.87-2.81-.01-3.636.297-3.9 1.452-.315 1.37.03 6.874.466 7.44.316.41 1.515.56 4.026.503 3.59-.082 3.992-.179 4.552-1.097zm-45.96 26.002c.263-2.513-.027-6.725-.492-7.137-.257-.227-2.177-.358-4.268-.29-2.787.089-3.915.283-4.224.729-.448.644-.48 6.374-.043 7.576.142.391.57.79.949.886.826.209 7.391-.016 7.714-.265.124-.095.288-.77.364-1.499zm17.077-20.392c-.038-1.166-.258-2.364-.488-2.663-.484-.628-4.258-.73-5.03-.136-.567.437-.663 4.833-.12 5.538.44.57 5.07.426 5.434-.17.15-.247.243-1.403.204-2.569zm14.787-9.018c.252-.87.121-4.161-.18-4.553-.37-.48-2.87-.65-4.103-.278-1.058.32-1.31.873-1.271 2.786.044 2.167.6 2.654 3.03 2.653 2.32-.002 2.351-.01 2.524-.608zM33.426 45.457c.053-1.77.13-3.775.17-4.452.11-1.814-.209-3.3-.784-3.652-.723-.442-9.291-.6-10.512-.195-.564.187-1.118.578-1.237.872-.333.829-.419 9.435-.102 10.299.394 1.077.825 1.185 5.176 1.3 7.266.193 7.157.256 7.29-4.172zm14.257-14.919c-.04-4.261-.144-4.656-1.28-4.867-1.144-.212-5.486-.227-6.67-.024-1.27.218-1.445.78-1.455 4.636-.006 2.388.175 3.696.561 4.074.368.359 1.846.543 4.175.519 4.418-.046 4.706-.314 4.669-4.338zm13.792-10.003c.035-.665.108-1.867.161-2.673.111-1.683-.273-2.822-1.064-3.156-1.022-.43-5.812-.253-6.45.238-.411.317-.617 1.058-.588 2.115.025.895.048 2.324.051 3.176.005 1.292.138 1.62.806 1.98.82.443 6.035.286 6.667-.2.194-.15.382-.816.417-1.48zM16.26 46.637c.158-3.491.098-6.833-.128-7.126-.376-.489-1.738-.713-4.638-.765-2.397-.044-3.073.126-4.089 1.028-.512.454-.486 7.364.03 7.976.404.478 7.807.668 8.395.216.211-.163.405-.76.43-1.329zm15.884-15.772c.086-.37.12-1.65.078-2.843-.074-2.068-.12-2.178-.986-2.385-1.436-.343-3.995-.195-4.594.267-.52.4-.655 1.86-.41 4.41.11 1.14.12 1.147 2.022 1.493 1.637.298 2.893.24 3.565-.166.093-.056.24-.405.325-.776zm15.575-12.218c.499-1.724.176-9.848-.421-10.624-.53-.688-2.23-.89-6.833-.816-3.76.062-4.582.286-5.178 1.412-.5.943-.283 9.92.256 10.62.694.902 1.773 1.105 5.007.94 1.784-.09 3.845-.19 4.58-.222 1.37-.06 2.375-.567 2.59-1.31zM18.945 29.483c.031-3.089-.103-4.306-.537-4.858-.335-.425-5.894-.687-7.307-.344-1.296.315-1.501.88-1.533 4.229-.048 5.048.031 5.141 4.398 5.176 4.347.034 4.942-.468 4.98-4.203zM29.5 20.49c.094-.377.132-2.191.085-4.032-.077-3.038-.165-3.389-.945-3.802-1.012-.536-7.018-.174-7.86.475-.83.639-.8 7.868.035 8.391.617.387 7.695.284 8.22-.12.162-.125.372-.535.465-.912z"/></svg>