# Blender v2.79 (sub 0) OBJ File: ''
# www.blender.org
o Cone_Cone.001
v 0.000000 -1.000000 -1.000000
v 0.098017 -1.000000 -0.995185
v 0.195090 -1.000000 -0.980785
v 0.290285 -1.000000 -0.956940
v 0.382683 -1.000000 -0.923880
v 0.471397 -1.000000 -0.881921
v 0.555570 -1.000000 -0.831470
v 0.634393 -1.000000 -0.773010
v 0.707107 -1.000000 -0.707107
v 0.773010 -1.000000 -0.634393
v 0.831470 -1.000000 -0.555570
v 0.881921 -1.000000 -0.471397
v 0.923880 -1.000000 -0.382683
v 0.956940 -1.000000 -0.290285
v 0.980785 -1.000000 -0.195090
v 0.995185 -1.000000 -0.098017
v 1.000000 -1.000000 0.000000
v 0.995185 -1.000000 0.098017
v 0.980785 -1.000000 0.195091
v 0.956940 -1.000000 0.290285
v 0.923879 -1.000000 0.382684
v 0.881921 -1.000000 0.471397
v 0.831469 -1.000000 0.555571
v 0.773010 -1.000000 0.634394
v 0.707106 -1.000000 0.707107
v 0.634393 -1.000000 0.773011
v 0.555570 -1.000000 0.831470
v 0.471396 -1.000000 0.881922
v 0.382683 -1.000000 0.923880
v 0.290284 -1.000000 0.956941
v 0.195090 -1.000000 0.980785
v 0.098016 -1.000000 0.995185
v -0.000001 -1.000000 1.000000
v -0.098018 -1.000000 0.995185
v -0.195091 -1.000000 0.980785
v -0.290286 -1.000000 0.956940
v -0.382684 -1.000000 0.923879
v -0.471398 -1.000000 0.881921
v -0.555571 -1.000000 0.831469
v -0.634394 -1.000000 0.773010
v -0.707108 -1.000000 0.707106
v -0.773011 -1.000000 0.634393
v -0.831470 -1.000000 0.555570
v 0.000000 1.000000 0.000000
v -0.881922 -1.000000 0.471396
v -0.923880 -1.000000 0.382683
v -0.956940 -1.000000 0.290285
v -0.980785 -1.000000 0.195090
v -0.995185 -1.000000 0.098017
v -1.000000 -1.000000 0.000000
v -0.995185 -1.000000 -0.098016
v -0.980785 -1.000000 -0.195089
v -0.956941 -1.000000 -0.290284
v -0.923880 -1.000000 -0.382682
v -0.881922 -1.000000 -0.471395
v -0.831471 -1.000000 -0.555569
v -0.773012 -1.000000 -0.634392
v -0.707108 -1.000000 -0.707105
v -0.634395 -1.000000 -0.773009
v -0.555572 -1.000000 -0.831468
v -0.471399 -1.000000 -0.881920
v -0.382686 -1.000000 -0.923878
v -0.290288 -1.000000 -0.956939
v -0.195093 -1.000000 -0.980785
v -0.098021 -1.000000 -0.995184
vn 0.0000 -0.5142 -0.8577
vn 0.0000 1.0000 0.0000
vn 0.0840 -0.5142 -0.8535
vn 0.1673 -0.5142 -0.8412
vn 0.2490 -0.5142 -0.8207
vn 0.3282 -0.5142 -0.7924
vn 0.4043 -0.5142 -0.7564
vn 0.4765 -0.5142 -0.7131
vn 0.5441 -0.5142 -0.6630
vn 0.6065 -0.5142 -0.6065
vn 0.6630 -0.5142 -0.5441
vn 0.7131 -0.5142 -0.4765
vn 0.7564 -0.5142 -0.4043
vn 0.7924 -0.5142 -0.3282
vn 0.8207 -0.5142 -0.2490
vn 0.8412 -0.5142 -0.1673
vn 0.8535 -0.5142 -0.0840
vn 0.8577 -0.5142 0.0000
vn 0.8535 -0.5142 0.0840
vn 0.8412 -0.5142 0.1673
vn 0.8207 -0.5142 0.2490
vn 0.7924 -0.5142 0.3282
vn 0.7564 -0.5142 0.4043
vn 0.7131 -0.5142 0.4765
vn 0.6630 -0.5142 0.5441
vn 0.6065 -0.5142 0.6065
vn 0.5441 -0.5142 0.6630
vn 0.4765 -0.5142 0.7131
vn 0.4043 -0.5142 0.7564
vn 0.3282 -0.5142 0.7924
vn 0.2490 -0.5142 0.8207
vn 0.1673 -0.5142 0.8412
vn 0.0840 -0.5142 0.8535
vn 0.0000 -0.5142 0.8577
vn -0.0840 -0.5142 0.8535
vn -0.1673 -0.5142 0.8412
vn -0.2490 -0.5142 0.8207
vn -0.3282 -0.5142 0.7924
vn -0.4043 -0.5142 0.7564
vn -0.4765 -0.5142 0.7131
vn -0.5441 -0.5142 0.6630
vn -0.6065 -0.5142 0.6065
vn -0.6630 -0.5142 0.5441
vn -0.7131 -0.5142 0.4765
vn -0.7564 -0.5142 0.4043
vn -0.7924 -0.5142 0.3282
vn -0.8207 -0.5142 0.2490
vn -0.8412 -0.5142 0.1673
vn -0.8535 -0.5142 0.0840
vn -0.8577 -0.5142 0.0000
vn -0.8535 -0.5142 -0.0840
vn -0.8412 -0.5142 -0.1673
vn -0.8207 -0.5142 -0.2490
vn -0.7924 -0.5142 -0.3282
vn -0.7564 -0.5142 -0.4043
vn -0.7131 -0.5142 -0.4765
vn -0.6630 -0.5142 -0.5441
vn -0.6065 -0.5142 -0.6065
vn -0.5441 -0.5142 -0.6630
vn -0.4765 -0.5142 -0.7131
vn -0.4043 -0.5142 -0.7564
vn -0.3282 -0.5142 -0.7924
vn -0.2490 -0.5142 -0.8207
vn -0.1673 -0.5142 -0.8412
vn -0.0840 -0.5142 -0.8535
s 1
f 1//1 44//2 2//3
f 2//3 44//2 3//4
f 3//4 44//2 4//5
f 4//5 44//2 5//6
f 5//6 44//2 6//7
f 6//7 44//2 7//8
f 7//8 44//2 8//9
f 8//9 44//2 9//10
f 9//10 44//2 10//11
f 10//11 44//2 11//12
f 11//12 44//2 12//13
f 12//13 44//2 13//14
f 13//14 44//2 14//15
f 14//15 44//2 15//16
f 15//16 44//2 16//17
f 16//17 44//2 17//18
f 17//18 44//2 18//19
f 18//19 44//2 19//20
f 19//20 44//2 20//21
f 20//21 44//2 21//22
f 21//22 44//2 22//23
f 22//23 44//2 23//24
f 23//24 44//2 24//25
f 24//25 44//2 25//26
f 25//26 44//2 26//27
f 26//27 44//2 27//28
f 27//28 44//2 28//29
f 28//29 44//2 29//30
f 29//30 44//2 30//31
f 30//31 44//2 31//32
f 31//32 44//2 32//33
f 32//33 44//2 33//34
f 33//34 44//2 34//35
f 34//35 44//2 35//36
f 35//36 44//2 36//37
f 36//37 44//2 37//38
f 37//38 44//2 38//39
f 38//39 44//2 39//40
f 39//40 44//2 40//41
f 40//41 44//2 41//42
f 41//42 44//2 42//43
f 42//43 44//2 43//44
f 43//44 44//2 45//45
f 45//45 44//2 46//46
f 46//46 44//2 47//47
f 47//47 44//2 48//48
f 48//48 44//2 49//49
f 49//49 44//2 50//50
f 50//50 44//2 51//51
f 51//51 44//2 52//52
f 52//52 44//2 53//53
f 53//53 44//2 54//54
f 54//54 44//2 55//55
f 55//55 44//2 56//56
f 56//56 44//2 57//57
f 57//57 44//2 58//58
f 58//58 44//2 59//59
f 59//59 44//2 60//60
f 60//60 44//2 61//61
f 61//61 44//2 62//62
f 62//62 44//2 63//63
f 63//63 44//2 64//64
f 64//64 44//2 65//65
f 65//65 44//2 1//1
f 1//1 2//3 3//4 4//5 5//6 6//7 7//8 8//9 9//10 10//11 11//12 12//13 13//14 14//15 15//16 16//17 17//18 18//19 19//20 20//21 21//22 22//23 23//24 24//25 25//26 26//27 27//28 28//29 29//30 30//31 31//32 32//33 33//34 34//35 35//36 36//37 37//38 38//39 39//40 40//41 41//42 42//43 43//44 45//45 46//46 47//47 48//48 49//49 50//50 51//51 52//52 53//53 54//54 55//55 56//56 57//57 58//58 59//59 60//60 61//61 62//62 63//63 64//64 65//65
