# Blender v2.79 (sub 0) OBJ File: ''
# www.blender.org
o Cone
v 0.000000 -1.000000 -1.000000
v 0.098017 -1.000000 -0.995185
v 0.195090 -1.000000 -0.980785
v 0.290285 -1.000000 -0.956940
v 0.382683 -1.000000 -0.923880
v 0.471397 -1.000000 -0.881921
v 0.555570 -1.000000 -0.831470
v 0.634393 -1.000000 -0.773010
v 0.707107 -1.000000 -0.707107
v 0.773010 -1.000000 -0.634393
v 0.831470 -1.000000 -0.555570
v 0.881921 -1.000000 -0.471397
v 0.923880 -1.000000 -0.382683
v 0.956940 -1.000000 -0.290285
v 0.980785 -1.000000 -0.195090
v 0.995185 -1.000000 -0.098017
v 1.000000 -1.000000 0.000000
v 0.995185 -1.000000 0.098017
v 0.980785 -1.000000 0.195091
v 0.956940 -1.000000 0.290285
v 0.923879 -1.000000 0.382684
v 0.881921 -1.000000 0.471397
v 0.831469 -1.000000 0.555571
v 0.773010 -1.000000 0.634394
v 0.707106 -1.000000 0.707107
v 0.634393 -1.000000 0.773011
v 0.555570 -1.000000 0.831470
v 0.471396 -1.000000 0.881922
v 0.382683 -1.000000 0.923880
v 0.290284 -1.000000 0.956941
v 0.195090 -1.000000 0.980785
v 0.098016 -1.000000 0.995185
v -0.000001 -1.000000 1.000000
v -0.098018 -1.000000 0.995185
v -0.195091 -1.000000 0.980785
v -0.290286 -1.000000 0.956940
v -0.382684 -1.000000 0.923879
v -0.471398 -1.000000 0.881921
v -0.555571 -1.000000 0.831469
v -0.634394 -1.000000 0.773010
v -0.707108 -1.000000 0.707106
v -0.773011 -1.000000 0.634393
v -0.831470 -1.000000 0.555570
v 0.000000 1.000000 0.000000
v -0.881922 -1.000000 0.471396
v -0.923880 -1.000000 0.382683
v -0.956940 -1.000000 0.290285
v -0.980785 -1.000000 0.195090
v -0.995185 -1.000000 0.098017
v -1.000000 -1.000000 0.000000
v -0.995185 -1.000000 -0.098016
v -0.980785 -1.000000 -0.195089
v -0.956941 -1.000000 -0.290284
v -0.923880 -1.000000 -0.382682
v -0.881922 -1.000000 -0.471395
v -0.831471 -1.000000 -0.555569
v -0.773012 -1.000000 -0.634392
v -0.707108 -1.000000 -0.707105
v -0.634395 -1.000000 -0.773009
v -0.555572 -1.000000 -0.831468
v -0.471399 -1.000000 -0.881920
v -0.382686 -1.000000 -0.923878
v -0.290288 -1.000000 -0.956939
v -0.195093 -1.000000 -0.980785
v -0.098021 -1.000000 -0.995184
vn 0.0439 0.4468 -0.8936
vn 0.1313 0.4468 -0.8850
vn 0.2174 0.4468 -0.8678
vn 0.3014 0.4468 -0.8423
vn 0.3825 0.4468 -0.8087
vn 0.4599 0.4468 -0.7674
vn 0.5329 0.4468 -0.7186
vn 0.6008 0.4468 -0.6629
vn 0.6629 0.4468 -0.6008
vn 0.7186 0.4468 -0.5329
vn 0.7674 0.4468 -0.4599
vn 0.8087 0.4468 -0.3825
vn 0.8423 0.4468 -0.3014
vn 0.8678 0.4468 -0.2174
vn 0.8850 0.4468 -0.1313
vn 0.8936 0.4468 -0.0439
vn 0.8936 0.4468 0.0439
vn 0.8850 0.4468 0.1313
vn 0.8678 0.4468 0.2174
vn 0.8423 0.4468 0.3014
vn 0.8087 0.4468 0.3825
vn 0.7674 0.4468 0.4599
vn 0.7186 0.4468 0.5329
vn 0.6629 0.4468 0.6008
vn 0.6008 0.4468 0.6629
vn 0.5329 0.4468 0.7186
vn 0.4599 0.4468 0.7674
vn 0.3825 0.4468 0.8087
vn 0.3014 0.4468 0.8423
vn 0.2174 0.4468 0.8678
vn 0.1313 0.4468 0.8850
vn 0.0439 0.4468 0.8936
vn -0.0439 0.4468 0.8936
vn -0.1313 0.4468 0.8850
vn -0.2174 0.4468 0.8678
vn -0.3014 0.4468 0.8423
vn -0.3825 0.4468 0.8087
vn -0.4599 0.4468 0.7674
vn -0.5329 0.4468 0.7186
vn -0.6008 0.4468 0.6629
vn -0.6629 0.4468 0.6008
vn -0.7186 0.4468 0.5329
vn -0.7674 0.4468 0.4599
vn -0.8087 0.4468 0.3825
vn -0.8423 0.4468 0.3014
vn -0.8678 0.4468 0.2174
vn -0.8850 0.4468 0.1313
vn -0.8936 0.4468 0.0439
vn -0.8936 0.4468 -0.0439
vn -0.8850 0.4468 -0.1313
vn -0.8678 0.4468 -0.2174
vn -0.8423 0.4468 -0.3014
vn -0.8087 0.4468 -0.3825
vn -0.7674 0.4468 -0.4599
vn -0.7186 0.4468 -0.5329
vn -0.6629 0.4468 -0.6008
vn -0.6008 0.4468 -0.6629
vn -0.5329 0.4468 -0.7186
vn -0.4599 0.4468 -0.7674
vn -0.3825 0.4468 -0.8087
vn -0.3014 0.4468 -0.8423
vn -0.2174 0.4468 -0.8678
vn -0.1313 0.4468 -0.8850
vn -0.0439 0.4468 -0.8936
vn 0.0000 -1.0000 -0.0000
s off
f 1//1 44//1 2//1
f 2//2 44//2 3//2
f 3//3 44//3 4//3
f 4//4 44//4 5//4
f 5//5 44//5 6//5
f 6//6 44//6 7//6
f 7//7 44//7 8//7
f 8//8 44//8 9//8
f 9//9 44//9 10//9
f 10//10 44//10 11//10
f 11//11 44//11 12//11
f 12//12 44//12 13//12
f 13//13 44//13 14//13
f 14//14 44//14 15//14
f 15//15 44//15 16//15
f 16//16 44//16 17//16
f 17//17 44//17 18//17
f 18//18 44//18 19//18
f 19//19 44//19 20//19
f 20//20 44//20 21//20
f 21//21 44//21 22//21
f 22//22 44//22 23//22
f 23//23 44//23 24//23
f 24//24 44//24 25//24
f 25//25 44//25 26//25
f 26//26 44//26 27//26
f 27//27 44//27 28//27
f 28//28 44//28 29//28
f 29//29 44//29 30//29
f 30//30 44//30 31//30
f 31//31 44//31 32//31
f 32//32 44//32 33//32
f 33//33 44//33 34//33
f 34//34 44//34 35//34
f 35//35 44//35 36//35
f 36//36 44//36 37//36
f 37//37 44//37 38//37
f 38//38 44//38 39//38
f 39//39 44//39 40//39
f 40//40 44//40 41//40
f 41//41 44//41 42//41
f 42//42 44//42 43//42
f 43//43 44//43 45//43
f 45//44 44//44 46//44
f 46//45 44//45 47//45
f 47//46 44//46 48//46
f 48//47 44//47 49//47
f 49//48 44//48 50//48
f 50//49 44//49 51//49
f 51//50 44//50 52//50
f 52//51 44//51 53//51
f 53//52 44//52 54//52
f 54//53 44//53 55//53
f 55//54 44//54 56//54
f 56//55 44//55 57//55
f 57//56 44//56 58//56
f 58//57 44//57 59//57
f 59//58 44//58 60//58
f 60//59 44//59 61//59
f 61//60 44//60 62//60
f 62//61 44//61 63//61
f 63//62 44//62 64//62
f 64//63 44//63 65//63
f 65//64 44//64 1//64
f 1//65 2//65 3//65 4//65 5//65 6//65 7//65 8//65 9//65 10//65 11//65 12//65 13//65 14//65 15//65 16//65 17//65 18//65 19//65 20//65 21//65 22//65 23//65 24//65 25//65 26//65 27//65 28//65 29//65 30//65 31//65 32//65 33//65 34//65 35//65 36//65 37//65 38//65 39//65 40//65 41//65 42//65 43//65 45//65 46//65 47//65 48//65 49//65 50//65 51//65 52//65 53//65 54//65 55//65 56//65 57//65 58//65 59//65 60//65 61//65 62//65 63//65 64//65 65//65
