<svg version="1.1" viewBox="0 0 80 80" xmlns="http://www.w3.org/2000/svg"><path d="m40 0c-22.091 0-40 17.909-40 40s17.909 40 40 40 40-17.909 40-40-17.909-40-40-40zm-0.80078 5.5391v4.5527c-16.182 0.42408-29.127 13.622-29.127 29.908 0 5.1719 1.3059 10.033 3.6055 14.273l-3.9238 2.2656c-2.6965-4.9128-4.2344-10.549-4.2344-16.539 3e-7 -18.747 15.034-34.033 33.68-34.461zm1.6016 0c18.646 0.42839 33.68 15.714 33.68 34.461 0 5.9899-1.5378 11.626-4.2344 16.539l-3.9238-2.2656c2.2996-4.24 3.6055-9.1015 3.6055-14.273 0-16.287-12.945-29.484-29.127-29.908zm-26.322 50.117c5.2589 8.5677 14.71 14.271 25.521 14.271 10.81 0 20.26-5.7031 25.52-14.27l3.9258 2.2656c-6.0606 9.921-16.99 16.557-29.445 16.557-12.455 0-23.387-6.6351-29.447-16.557z"/></svg>
