<svg version="1.1" viewBox="0 0 80 80" xmlns="http://www.w3.org/2000/svg"><path d="m40 0c-22.091 0-40 17.909-40 40s17.909 40 40 40 40-17.909 40-40-17.909-40-40-40zm-1.248 4.5977v15.598h-15.82v-11.256a35.584 35.445 0 0 1 15.82-4.3418zm2.5957 0.025391a35.584 35.445 0 0 1 15.82 4.3379v11.234h-15.82v-15.572zm-21.014 5.8633v9.709h-9.832a35.584 35.445 0 0 1 9.832-9.709zm39.43 0.058594a35.584 35.445 0 0 1 9.709 9.6504h-9.709v-9.6504zm-50.861 12.248h11.432v15.818h-15.82v-0.55664a35.584 35.445 0 0 1 4.3887-15.262zm14.029 0h15.82v15.818h-15.82v-15.818zm18.416 0h15.82v15.818h-15.82v-15.818zm18.416 0h11.299a35.584 35.445 0 0 1 4.4727 15.818h-15.771v-15.818zm-55.25 18.416h15.82v15.82h-11.5a35.584 35.445 0 0 1-4.3203-14.457v-1.3633zm18.418 0h15.82v15.82h-15.82v-15.82zm18.416 0h15.82v15.82h-15.82v-15.82zm18.416 0h15.76a35.584 35.445 0 0 1-4.3164 15.82h-11.443v-15.82zm-49.365 18.416h9.9355v9.8887a35.584 35.445 0 0 1-9.9355-9.8887zm12.533 0h15.82v15.758a35.584 35.445 0 0 1-15.82-4.2812v-11.477zm18.416 0h15.82v11.377a35.584 35.445 0 0 1-15.82 4.3965v-15.773zm18.416 0h9.8457a35.584 35.445 0 0 1-9.8457 9.8184v-9.8184z"/></svg>
