<svg xmlns="http://www.w3.org/2000/svg" width="80" height="80" viewBox="0 0 21.167 21.167"><path d="M10.056 21.154a10.624 10.624 0 0 1-6.945-3.073C1.368 16.343.316 14.135.043 11.638a13.254 13.254 0 0 1-.001-2.115C.305 7.05 1.36 4.826 3.093 3.093 4.827 1.36 7.048.306 9.524.042c.52-.056 1.6-.056 2.103 0 1.966.214 3.723.893 5.261 2.034a10.59 10.59 0 0 1-6.832 19.079zm.45-2.554c.13-.084.164-.095.294-.097a2.37 2.37 0 0 0 .28-.022c.071-.011.232-.033.356-.05.149-.018.243-.042.274-.07.026-.023.139-.1.25-.171.225-.145.259-.178.33-.318.041-.083.074-.108.234-.18a6.29 6.29 0 0 1 .3-.128c.142-.052.24-.162.414-.463a8.34 8.34 0 0 1 .224-.365.858.858 0 0 0 .093-.16c0-.012-.04-.043-.09-.068-.09-.046-.092-.046-.164 0-.04.026-.145.137-.233.247-.19.24-.274.298-.427.298a.582.582 0 0 0-.279.086.796.796 0 0 1-.227.087c-.084 0-.584.24-.76.365a.995.995 0 0 1-.396.189c-.098.026-.135.025-.278-.012l-.164-.042-.163.091a.69.69 0 0 1-.24.093c-.042 0-.23-.058-.417-.129a4.067 4.067 0 0 0-.477-.154c-.108-.02-.184-.057-.346-.17l-.207-.147-.286.015c-.3.016-.514-.009-.642-.075a1.382 1.382 0 0 1-.215-.174c-.162-.154-.263-.213-.366-.213-.058 0-.078-.016-.114-.09-.06-.122-.159-.18-.392-.23-.274-.057-.345-.1-.497-.303-.157-.208-.262-.282-.766-.543l-.374-.193-.093.047c-.1.05-.243.198-.243.25 0 .045.074.136.315.39.115.122.227.248.247.28.021.032.142.114.268.181.126.068.27.148.317.178a.77.77 0 0 0 .235.079c.149.024.213.056.213.107 0 .015.037.063.081.106.07.067.092.076.155.063.066-.015.09-.002.22.116.198.179.446.34 1.01.657.26.147.52.298.574.336.082.056.169.081.481.139.462.084.843.128.946.109.054-.01.127.006.25.055.307.121.312.121.494.003zm4.192-1.45a.638.638 0 0 1 .22-.049c.102 0 .115-.007.152-.078.082-.16.374-.574.486-.69.093-.096.126-.117.17-.104.203.055.213.053.384-.108a6.25 6.25 0 0 0 .476-.567c.213-.281.335-.422.375-.432l.2-.06c.17-.053.17-.052.422-.624.094-.214.227-.474.294-.577.113-.171.125-.202.14-.37.01-.102.044-.308.077-.46.108-.488.078-.808-.084-.892a.538.538 0 0 0-.082-.037.983.983 0 0 0-.071.172c-.475 1.332-.474 1.33-.845 1.716-.153.16-.393.43-.533.602s-.325.375-.41.45c-.135.12-.157.15-.157.219a.502.502 0 0 1-.034.16c-.027.065-.054.087-.13.108-.137.037-.274.15-.479.396l-.333.4-.155.187-.178.013a5.832 5.832 0 0 1-.328.014h-.149l-.047.098c-.067.137-.063.243.009.276.031.014.08.077.11.14.03.063.076.126.104.14.071.037.27.015.396-.043zm-4.097-.327c.144-.015.149-.018.197-.113.106-.212.141-.24.441-.348a1.52 1.52 0 0 1 .419-.105c.135-.005.14-.007.297-.16.183-.179.214-.194.316-.159.065.023.08.019.137-.034.125-.118.418-.303.48-.303a.86.86 0 0 0 .251-.113c.156-.093.212-.114.31-.115.118-.002.119-.002.347-.238.223-.23.229-.24.258-.394.032-.171.1-.306.153-.306.018 0 .088-.05.155-.11.135-.121.154-.192.073-.273-.066-.065-.153-.046-.357.075-.178.106-.218.112-.285.046-.061-.062-.1-.06-.182.008-.259.212-1.146.801-1.207.801-.02 0-.124.053-.23.119a2.144 2.144 0 0 1-.246.134.188.188 0 0 0-.082.06c-.052.074-.149.11-.374.137-.229.028-.31.067-.364.177-.03.062-.036.064-.262.064-.505 0-1.125.065-1.446.151-.152.04-.203.022-.356-.128l-.12-.117-.165.024-.167.023-.393-.19a5.649 5.649 0 0 0-.495-.218c-.09-.026-.105-.025-.133.014-.03.041-.038.037-.11-.061a1.988 1.988 0 0 1-.25-.487c-.07-.186-.045-.15-.612-.906-.416-.556-.448-.604-.448-.698 0-.09-.014-.116-.129-.237l-.13-.135-.155.013a.5.5 0 0 0-.18.037c-.016.016.052.225.21.642.288.76.327.842.427.903.241.149.23.137.245.276.021.194.06.295.216.56.077.133.16.296.183.363.04.114.054.127.208.205.09.045.32.206.51.358.487.39.723.493 1.003.44.199-.038.52-.03.536.013.007.02.072.052.144.073.125.036.134.036.25-.014.159-.068.386-.104.448-.071.026.014.062.06.08.102.041.097.107.155.222.196.105.038.159.04.362.02zm-4.513-1.445c.017-.046-.016-.178-.116-.455-.1-.28-.108-.293-.485-.781-.4-.518-.502-.675-.502-.77 0-.042-.028-.155-.063-.251a1.322 1.322 0 0 1-.07-.3c-.009-.147-.055-.221-.209-.336-.139-.104-.19-.207-.156-.309.028-.078.007-.114-.31-.529a1.11 1.11 0 0 1-.172-.366c-.083-.27-.134-.379-.221-.483l-.06-.071.07-.235c.038-.13.092-.3.12-.378.125-.359.146-.472.166-.892.017-.354.03-.446.083-.607.035-.105.072-.268.083-.363.017-.15.033-.19.13-.327.062-.086.138-.214.17-.285.049-.112.068-.133.146-.155a.727.727 0 0 1 .12-.025c.017 0 .052-.022.079-.048.046-.047.047-.052.007-.118-.025-.043-.065-.073-.102-.077-.377-.045-1.272.564-1.57 1.067l-.1.17.05.189.05.19-.084.085c-.047.046-.085.108-.085.136 0 .029.061.168.137.311l.136.26-.094.185a1.346 1.346 0 0 1-.245.338l-.152.153.015.145c.023.206.08.444.122.508.032.05.031.067-.013.186-.045.119-.046.137-.014.2.054.104.216.232.465.367l.226.123-.007.096c-.007.089 0 .101.09.164a.811.811 0 0 1 .145.127c.049.062.061.182.022.206-.013.008-.024.05-.024.095 0 .09.059.148.26.256.11.06.121.074.121.147 0 .124.033.19.175.344.161.175.172.194.216.407.02.096.067.222.105.283.038.061.138.244.222.408.291.564.516.852.763.975.158.079.337.099.36.04zm-1.603-.17c.04-.042.059-.096.066-.187l.01-.129-.141-.096c-.133-.09-.268-.223-.268-.263a.4.4 0 0 0-.107-.093 1.162 1.162 0 0 1-.208-.21 4.942 4.942 0 0 0-.18-.224c-.065-.076-.077-.107-.077-.214 0-.069-.028-.227-.062-.353-.047-.174-.058-.258-.047-.353l.014-.125-.119-.043c-.143-.05-.156-.08-.177-.42-.017-.278-.056-.388-.144-.41-.079-.02-.181.07-.264.233l-.058.112.082.15c.113.207.185.44.275.895.136.692.152.73.464 1.087.22.254.317.392.37.533.04.104.048.11.17.136.228.048.338.041.4-.026zm6.209-.32c.212-.014.224-.018.28-.089a.837.837 0 0 1 .17-.146.592.592 0 0 0 .144-.122c.024-.04.04-.044.09-.024.102.038.15.027.244-.06.13-.117.203-.267.301-.62.104-.374.17-.543.245-.632.049-.058.065-.064.118-.044.12.045.23-.092.138-.17-.03-.024-.061-.024-.164 0a.497.497 0 0 1-.16.02c-.02-.007-.071.049-.135.146-.066.1-.126.164-.167.178-.097.031-.164.103-.29.313-.065.106-.141.204-.171.219a1.33 1.33 0 0 1-.258.054 7.7 7.7 0 0 0-.42.072c-.176.036-.245.04-.357.021a8.83 8.83 0 0 0-.806-.018l-.666.005-.179-.077a2.571 2.571 0 0 1-.619-.373c-.124-.102-.162-.153-.267-.364-.09-.183-.148-.268-.224-.33-.134-.11-.222-.255-.4-.662a4.295 4.295 0 0 0-.24-.476c-.126-.19-.133-.212-.133-.392 0-.122.02-.214.093-.418.108-.302.133-.417.111-.514-.016-.073-.07-.09-.152-.046a.408.408 0 0 1-.1.033c-.075.014-.44.239-.54.334-.16.148-.16.158-.11.65.013.124.008.162-.031.228l-.047.08.052.066c.029.036.078.147.11.246a.572.572 0 0 0 .355.406c.19.086.214.114.214.24.001.162.05.259.345.67.042.059.1.179.13.267a.703.703 0 0 0 .072.173c.011.007.043.06.071.118.072.148.261.313.664.577.421.278.507.3.91.238.278-.042.473-.023.557.055.083.077.183.1.488.118.197.01.322.029.37.053.039.021.087.032.107.024.02-.007.135-.02.257-.028zm4.856-.844a.75.75 0 0 0 .148-.12c.071-.075.096-.086.174-.08.071.004.097-.005.117-.04.048-.091.15-.184.304-.274.233-.137.348-.278.32-.39-.024-.094.028-.21.155-.344.064-.068.146-.175.181-.237.036-.061.106-.17.155-.243.05-.072.106-.185.125-.251.054-.186.167-.388.312-.557.163-.19.21-.33.207-.632-.002-.25-.028-.409-.095-.563a5.104 5.104 0 0 1-.133-.405c-.116-.396-.171-.529-.275-.66-.14-.178-.153-.21-.118-.314.026-.08.024-.1-.022-.189a.756.756 0 0 1-.066-.205.247.247 0 0 0-.087-.17c-.19-.17-.23-.217-.23-.275 0-.04-.029-.082-.09-.13-.15-.12-.692-.477-.75-.495-.096-.03-.184-.015-.232.042-.064.076-.05.14.043.198.228.14.23.142.26.26a.765.765 0 0 0 .095.21l.124.182a.697.697 0 0 0 .119.133c.033.027.125.106.204.176.137.122.144.133.16.268.009.078.055.228.103.337.164.372.165.376.135.689-.022.242-.02.293.011.37.03.071.13.585.133.684.002.071-.486 1.09-.587 1.223a1.561 1.561 0 0 0-.135.262c-.203.49-.286.591-.653.81-.118.07-.281.175-.363.233-.196.138-.196.176-.002.378.08.084.156.153.168.153.011 0 .05-.016.085-.034zm-2.733-.417c0-.043.192-.173.324-.219.093-.033.246-.054.495-.07.728-.046.775-.066 1.18-.502l.307-.331.246-.493.245-.492.017-.584c.009-.32.015-.6.015-.62l-.007-.32c-.004-.309-.017-.35-.155-.524-.062-.078-.073-.108-.06-.167.01-.04.022-.17.028-.292l.011-.22-.16-.205a5.31 5.31 0 0 0-.335-.382c-.096-.098-.175-.194-.175-.215 0-.02-.037-.119-.081-.218-.045-.1-.09-.225-.1-.277a.309.309 0 0 0-.08-.155c-.065-.06-.112-.168-.178-.407-.038-.14-.115-.26-.167-.26-.034 0-.108-.162-.108-.236 0-.067-.513-.393-.98-.622-.154-.076-.158-.08-.195-.213-.042-.151-.102-.192-.191-.13-.08.057-.14.041-.269-.072-.096-.084-.141-.107-.207-.107-.046 0-.09-.011-.099-.025a.541.541 0 0 0-.111-.085.342.342 0 0 1-.123-.13c-.014-.04-.043-.07-.066-.07-.022 0-.103.071-.178.158l-.138.157-.042-.056c-.117-.158-.146-.187-.182-.186a.551.551 0 0 0-.169.105c-.113.092-.136.101-.19.08-.112-.042-.426 0-.594.08a.698.698 0 0 1-.297.079c-.126.005-.152.014-.192.067-.036.049-.04.07-.018.096.071.086.651.176.884.137.079-.013.14-.013.154 0 .03.029.175.027.407-.005.182-.026.2-.024.365.036.214.077.216.078.415.225.089.066.197.131.24.145.06.02.09.054.135.15.047.1.072.127.13.139.123.024.225.092.424.282.107.102.224.192.26.201.043.01.102.064.167.15.055.075.129.165.163.201.035.037.07.104.078.15.01.053.04.1.085.132.038.027.076.07.084.095.008.025.05.066.093.092.068.04.09.077.145.246.036.11.088.224.116.254.028.03.048.075.044.099-.005.028.033.072.112.13.066.049.14.117.166.153a.456.456 0 0 0 .132.11c.047.026.09.063.096.083.006.02.033.266.059.548.047.509.08.74.121.848.017.044.008.076-.04.146-.052.076-.058.106-.046.208.044.364.045.438.003.502-.073.11-.133.324-.182.64-.048.31-.106.576-.136.624a1.322 1.322 0 0 1-.243.128c-.36.162-.687.353-.724.423-.055.106-.133.162-.424.301a1.879 1.879 0 0 0-.35.205c-.081.081-.118.218-.073.272.033.038.12.048.12.013zm-2.715-.762l.186-.123.182.016c.156.015.188.01.229-.026.058-.052.06-.125.005-.195-.04-.051-.048-.052-.189-.026-.181.034-.21.015-.233-.147-.023-.167-.062-.19-.165-.1-.08.07-.38.255-.437.27-.015.005-.047-.03-.07-.075a.557.557 0 0 0-.161-.163 3.372 3.372 0 0 1-.31-.255c-.22-.202-.369-.318-.408-.32-.097-.001-.46-.625-.46-.788 0-.042.046-.16.11-.276.098-.18.108-.212.095-.308-.019-.137.016-.206.175-.34.139-.117.223-.236.193-.274a.523.523 0 0 1-.048-.113c-.045-.14-.064-.146-.311-.1-.31.056-.427.163-.35.318.035.069.034.07-.041.095a.614.614 0 0 0-.181.132c-.087.088-.12.107-.192.107-.074 0-.092.01-.113.065a1.523 1.523 0 0 0-.062.841c.042.16.054.18.159.255.062.044.114.083.115.085l.02.384c.015.319.027.402.073.507.074.172.21.244.296.158.034-.034.05-.03.177.055.183.123.324.177.758.292.2.052.42.12.488.15.162.072.227.058.47-.101zm1.94-.373c.358-.052.68-.132.68-.167 0-.074.111-.151.285-.199.244-.066.28-.107.3-.346.023-.266.038-.297.14-.297.074 0 .087-.01.128-.104a.543.543 0 0 1 .132-.173c.068-.054.086-.085.086-.147a.93.93 0 0 1 .027-.184c.023-.093.02-.115-.026-.193l-.052-.089.118-.227c.149-.29.159-.333.108-.475-.035-.099-.037-.152-.018-.377.012-.144.016-.305.009-.359-.024-.171-.438-.737-.627-.855a1.652 1.652 0 0 1-.185-.139 2.107 2.107 0 0 0-.327-.201 1.624 1.624 0 0 1-.353-.234c-.202-.2-.312-.244-.363-.148-.047.087-.028.141.07.203.107.068.122.13.059.253-.066.127-.04.188.12.278a.65.65 0 0 1 .15.102c.005.012.036.022.07.022.047 0 .125.065.329.273.253.26.273.287.38.53.065.145.114.292.114.34.001.196-.016.352-.049.46a.535.535 0 0 0-.022.198c.01.056 0 .105-.032.158a1.083 1.083 0 0 0-.08.252.689.689 0 0 1-.11.273c-.193.26-.5.717-.562.836-.06.114-.082.136-.164.159-.36.098-.487.156-.534.242-.039.073-.272.183-.39.183-.087 0-.112.029-.112.129 0 .03.008.062.018.072.022.022.367-.002.683-.049zm-6.467-.34c.044-.027-.044-.536-.146-.84-.055-.165-.07-.246-.057-.288.014-.042-.003-.127-.064-.307-.052-.156-.077-.27-.068-.307.008-.032.087-.135.176-.23.167-.176.175-.193.232-.494.03-.153.147-.415.338-.755.115-.204.118-.212.093-.32-.028-.124-.02-.176.063-.444a1.33 1.33 0 0 0 .057-.314c0-.167.066-.248.262-.322.153-.057.19-.097.19-.206.001-.092.021-.115.131-.15.106-.034.183-.083.354-.223.098-.081.113-.104.102-.16-.009-.045 0-.077.032-.105.05-.046.284-.082.537-.083.19 0 .26-.035.28-.14.013-.065.023-.07.2-.098.299-.047.65-.26.65-.392 0-.065-.075-.134-.208-.19a.334.334 0 0 0-.214-.027c-.063.01-.151.018-.197.017-.18-.002-.338.053-.75.26-.255.129-.47.221-.531.23a.313.313 0 0 0-.257.224c-.027.093-.103.138-.236.139-.222 0-.33.071-.319.21.01.116-.001.147-.048.147-.062 0-.173.097-.227.198-.042.077-.053.083-.16.084a.482.482 0 0 0-.139.016c-.059.036-.218.308-.234.399a1.1 1.1 0 0 0 .001.254c.017.138.013.16-.031.207a.773.773 0 0 1-.201.117c-.173.073-.173.074-.15.356.01.104.017.261.019.348.001.144.009.168.082.255l.08.097-.053.191c-.065.23-.11.305-.197.326-.1.023-.12.049-.15.188-.025.106-.023.16.01.325.05.252.05.4-.001.507-.04.085-.04.085.047.248.084.155.087.166.053.231a.668.668 0 0 0-.036.264c0 .17.006.2.046.22.06.033.175.032.208 0 .02-.02.048.014.104.12.11.207.225.283.327.218zm5.946-.53c.065-.04.218-.171.34-.29l.223-.218-.017-.107c-.026-.17-.021-.242.023-.357.029-.075.045-.208.055-.435.01-.272.02-.336.057-.379.062-.072.055-.168-.018-.241-.049-.049-.058-.076-.046-.131.02-.095-.032-.386-.073-.401a.543.543 0 0 1-.116-.129c-.047-.066-.109-.122-.143-.131-.054-.014-.06-.027-.06-.132 0-.17-.069-.29-.193-.34a1.871 1.871 0 0 0-.727-.086c-.293.042-.426.033-.5-.036-.054-.05-.085-.06-.173-.054-.097.006-.114.017-.175.108-.054.08-.083.101-.136.101-.1 0-.195.105-.32.353-.06.12-.147.26-.193.311-.094.105-.104.167-.035.23.047.041.052.041.172-.015.069-.031.24-.135.383-.23l.26-.172.36-.015.36-.015.154.104c.17.115.396.373.488.556.078.157.132.481.132.792 0 .23-.004.254-.06.32a.285.285 0 0 0-.063.134l-.006.124c-.005.087-.063.159-.27.333a1.275 1.275 0 0 0-.231.243c-.046.084-.046.088-.003.134.025.028.101.06.178.076.073.015.15.037.17.048.056.032.078.027.203-.052zm-1.054-.136a.18.18 0 0 0 .08-.098l.02-.086c.005-.015.063-.047.13-.07.066-.025.12-.052.12-.061 0-.105-.115-.162-.387-.19-.22-.023-.276-.045-.385-.153-.075-.075-.075-.077-.003-.297l.079-.25c.02-.07.024-.071.15-.064a.493.493 0 0 0 .177-.016.578.578 0 0 1 .108-.036c.063-.014.166-.097.166-.133 0-.038-.122-.168-.225-.239a.42.42 0 0 1-.133-.148c-.03-.074-.085-.135-.123-.137-.01 0-.039.04-.064.09a.756.756 0 0 1-.18.194c-.237.183-.333.33-.239.367.063.024.04.082-.042.099-.124.026-.248.107-.294.191-.037.069-.038.094-.013.202.06.259.28.596.429.658.048.02.128.07.178.109.17.134.302.154.451.068zm-2.997-1.7c.008-.029.014-.262.015-.517.001-.565.013-.626.142-.734a.758.758 0 0 0 .16-.202c.167-.33.26-.399.572-.416.192-.01.197-.012.242-.09.052-.087.191-.167.431-.248.224-.076.37-.157.428-.237.07-.099.17-.096.381.01.107.055.2.084.261.084.106 0 .114-.013.126-.214l.006-.107.112.004c.06.002.255.048.432.103.177.055.373.101.436.103l.115.004-.006-.078a.643.643 0 0 0-.063-.19c-.107-.211-.281-.325-.44-.289-.063.014-.154.005-.313-.029-.356-.077-.483-.083-.564-.025-.12.085-.35.145-.748.194-.577.071-.714.12-.816.292-.1.17-.389.437-.53.49a.968.968 0 0 0-.215.117c-.05.04-.133.098-.186.131-.094.058-.1.07-.208.414a6.125 6.125 0 0 0-.22.87c-.018.12-.007.138.155.244.048.03.079.068.073.087a.65.65 0 0 0-.012.128c-.001.077.01.1.058.125.093.047.16.038.176-.023zm10.416-.455c.077-.082.176-.445.156-.571a15.22 15.22 0 0 0-.131-.587 7.246 7.246 0 0 1-.133-.665c-.015-.152-.026-.184-.082-.231-.114-.096-.148-.225-.13-.487.017-.252.026-.232-.146-.352-.115-.081-.174-.155-.341-.43-.158-.259-.192-.294-.685-.707-.377-.316-.744-.693-.744-.766 0-.015-.032-.034-.072-.042-.04-.008-.076-.021-.08-.03a.667.667 0 0 0-.191-.006c-.163.007-.186.014-.22.066-.037.056-.036.063.008.124.035.046.083.07.177.09.168.033.243.074.225.121-.008.021.026.101.081.188.053.083.096.18.096.214 0 .042.03.092.092.15l.273.26.18.172.007.184c.007.161.013.185.054.193.086.016.315.19.413.313a.949.949 0 0 1 .136.237.65.65 0 0 0 .131.212.58.58 0 0 1 .145.27c.066.222.104.297.2.4.07.075.08.107.117.356.073.495.193.97.322 1.27.026.061.056.111.068.111.01 0 .044-.026.074-.058zM3.366 7.3c.033-.021.12-.096.195-.166.074-.07.157-.127.183-.127.037 0 .07-.042.132-.173.097-.2.156-.268.32-.375a.448.448 0 0 0 .146-.14c.05-.123.143-.153.406-.135.217.016.237.013.283-.032.058-.058.062-.115.013-.18-.05-.065-.046-.073.057-.104.05-.015.12-.05.155-.077.057-.045.062-.063.062-.229v-.18l.079.016c.05.009.094.003.123-.018.04-.03.042-.042.012-.147-.031-.112-.03-.115.033-.17.036-.03.086-.056.111-.056.025 0 .063-.027.085-.06a.39.39 0 0 1 .143-.105c.058-.025.105-.057.105-.07 0-.061.145-.184.302-.255.139-.064.176-.092.19-.145.026-.1.011-.15-.08-.262-.07-.084-.1-.102-.166-.102-.117 0-.223.06-.223.127 0 .071-.076.14-.233.213-.153.071-.213.124-.254.222-.045.106-.239.177-.53.193-.166.01-.22.021-.22.046 0 .068-.123.33-.185.396a.81.81 0 0 1-.184.129c-.246.124-.338.213-.573.555-.124.182-.241.371-.26.42a7.06 7.06 0 0 1-.288.635c-.071.143-.13.274-.13.29 0 .03.088.106.12.106.007 0 .04-.018.072-.04zm11.77-1.105c.058-.046.063-.06.048-.16a2.42 2.42 0 0 0-.118-.373 1.623 1.623 0 0 1-.114-.41c-.013-.169-.107-.364-.209-.437-.046-.033-.105-.046-.203-.046-.209 0-.236-.014-.27-.127a2.63 2.63 0 0 0-.306-.594c-.138-.182-.199-.209-.426-.191-.105.008-.22.008-.255-.001-.036-.01-.207-.156-.394-.338-.248-.24-.365-.337-.467-.383l-.136-.063-.147.048c-.142.046-.15.046-.254.005a1.601 1.601 0 0 1-.224-.117c-.136-.086-.181-.082-.336.03a.4.4 0 0 1-.24.083c-.124.01-.158 0-.361-.1a1.182 1.182 0 0 0-.29-.109c-.093 0-.187.12-.404.514-.099.18-.197.34-.219.352-.055.035-.112-.023-.304-.31-.09-.132-.18-.247-.202-.255-.119-.046-.355.044-.576.22a.532.532 0 0 1-.16.098.792.792 0 0 0-.161.049c-.133.05-.238.13-.582.437-.234.208-.444.323-.592.323-.093 0-.1.006-.283.244a6.322 6.322 0 0 1-.384.447c-.194.2-.374.456-.403.572-.011.045 0 .073.044.115.052.049.065.052.104.023.06-.042.427-.355.607-.516a1.52 1.52 0 0 1 .365-.231 1.59 1.59 0 0 0 .328-.2c.118-.11.124-.11.274-.057.105.037.12.036.313-.014.111-.029.293-.09.405-.137.327-.137.642-.239.83-.268.117-.018.306-.081.573-.192.63-.262.797-.288.913-.14.04.052.082.076.15.084.079.01.11 0 .212-.073a.668.668 0 0 1 .14-.085c.011 0 .073.038.137.084.15.107.313.144.79.178.378.027.604.07.697.13.028.018.1.077.162.13.298.258.805.61 1.113.774.2.106.202.109.243.24.063.2.287.632.373.72.09.09.114.094.2.027z"/></svg>