<svg xmlns="http://www.w3.org/2000/svg" width="80" height="80"><path d="M40 0A40 40 0 0 0 0 40a40 40 0 0 0 40 40 40 40 0 0 0 40-40A40 40 0 0 0 40 0zm-2.498 5.094a3.332 3.332 0 0 1 3.334 3.332 3.332 3.332 0 0 1-3.334 3.332 3.332 3.332 0 0 1-3.332-3.332 3.332 3.332 0 0 1 3.332-3.332zM49.85 6.543a3.332 3.332 0 0 1 1.2.252 3.332 3.332 0 0 1 1.805 4.353 3.332 3.332 0 0 1-4.355 1.805 3.332 3.332 0 0 1-1.803-4.355 3.332 3.332 0 0 1 3.153-2.055zm-24.215 1.91a3.332 3.332 0 0 1 3.054 2.057 3.332 3.332 0 0 1-1.804 4.353 3.332 3.332 0 0 1-4.354-1.802 3.332 3.332 0 0 1 1.803-4.354 3.332 3.332 0 0 1 1.3-.254zm34.974 4.123a3.332 3.332 0 0 1 2.307.975 3.332 3.332 0 0 1 0 4.713 3.332 3.332 0 0 1-4.71 0 3.332 3.332 0 0 1 0-4.713 3.332 3.332 0 0 1 2.403-.975zm-44.652 3.531a3.332 3.332 0 0 1 2.307.977 3.332 3.332 0 0 1 0 4.71 3.332 3.332 0 0 1-4.713 0 3.332 3.332 0 0 1 0-4.71 3.332 3.332 0 0 1 2.406-.977zm52.283 6.17a3.332 3.332 0 0 1 3.053 2.057 3.332 3.332 0 0 1-1.803 4.355 3.332 3.332 0 0 1-4.353-1.804 3.332 3.332 0 0 1 1.802-4.354 3.332 3.332 0 0 1 1.301-.254zM9.947 26.893a3.332 3.332 0 0 1 1.201.252 3.332 3.332 0 0 1 1.805 4.355 3.332 3.332 0 0 1-4.355 1.803 3.332 3.332 0 0 1-1.803-4.354 3.332 3.332 0 0 1 3.152-2.056zm61.627 7.277a3.332 3.332 0 0 1 3.332 3.332 3.332 3.332 0 0 1-3.332 3.334 3.332 3.332 0 0 1-3.332-3.334 3.332 3.332 0 0 1 3.332-3.332zM8.426 39.164a3.332 3.332 0 0 1 3.332 3.334 3.332 3.332 0 0 1-3.332 3.332 3.332 3.332 0 0 1-3.332-3.332 3.332 3.332 0 0 1 3.332-3.334zm61.773 7.28a3.332 3.332 0 0 1 1.203.253 3.332 3.332 0 0 1 1.803 4.354 3.332 3.332 0 0 1-4.353 1.804 3.332 3.332 0 0 1-1.805-4.355 3.332 3.332 0 0 1 3.152-2.057zm-58.39 4.613a3.332 3.332 0 0 1 3.054 2.058 3.332 3.332 0 0 1-1.802 4.354 3.332 3.332 0 0 1-4.354-1.803 3.332 3.332 0 0 1 1.803-4.355 3.332 3.332 0 0 1 1.299-.254zm52.332 6.172a3.332 3.332 0 0 1 2.308.976 3.332 3.332 0 0 1 0 4.711 3.332 3.332 0 0 1-4.713 0 3.332 3.332 0 0 1 0-4.71 3.332 3.332 0 0 1 2.405-.977zm-44.653 3.53a3.332 3.332 0 0 1 2.307.977 3.332 3.332 0 0 1 0 4.713 3.332 3.332 0 0 1-4.711 0 3.332 3.332 0 0 1 0-4.713 3.332 3.332 0 0 1 2.404-.976zm34.926 4.124a3.332 3.332 0 0 1 3.055 2.056 3.332 3.332 0 0 1-1.803 4.354 3.332 3.332 0 0 1-4.355-1.803 3.332 3.332 0 0 1 1.804-4.353 3.332 3.332 0 0 1 1.3-.254zm-24.117 1.912a3.332 3.332 0 0 1 1.203.252 3.332 3.332 0 0 1 1.803 4.355 3.332 3.332 0 0 1-4.354 1.803 3.332 3.332 0 0 1-1.804-4.353 3.332 3.332 0 0 1 3.152-2.057zm12.201 1.447a3.332 3.332 0 0 1 3.332 3.332 3.332 3.332 0 0 1-3.332 3.332 3.332 3.332 0 0 1-3.334-3.332 3.332 3.332 0 0 1 3.334-3.332z"/></svg>