<svg version="1.1" viewBox="0 0 80 80" xmlns="http://www.w3.org/2000/svg"><path d="m40 0c-22.091 0-40 17.909-40 40s17.909 40 40 40 40-17.909 40-40-17.909-40-40-40zm-0.80078 5.5391v4.5527c-16.182 0.42408-29.127 13.622-29.127 29.908 0 5.1719 1.3059 10.033 3.6055 14.273l-3.9238 2.2656c-2.6965-4.9128-4.2344-10.549-4.2344-16.539 3e-7 -18.747 15.034-34.033 33.68-34.461zm1.6016 0c18.646 0.42839 33.68 15.714 33.68 34.461 0 5.9899-1.5378 11.626-4.2344 16.539l-3.9238-2.2656c2.2996-4.24 3.6055-9.1015 3.6055-14.273 0-16.287-12.945-29.484-29.127-29.908v-4.5527zm-1.6016 8.8984v4.5527c-11.267 0.41975-20.229 9.6378-20.229 21.01 0 3.5511 0.88291 6.8871 2.4277 9.8164l-3.9355 2.2715c-1.9407-3.6024-3.0449-7.7188-3.0449-12.088 0-13.833 11.049-25.137 24.781-25.562zm1.6016 0c13.732 0.42565 24.781 11.73 24.781 25.562 0 4.3691-1.1042 8.4855-3.0449 12.088l-3.9355-2.2734c1.5443-2.929 2.4277-6.264 2.4277-9.8145 0-11.372-8.9618-20.59-20.229-21.01v-4.5527zm-1.6016 9.0801v4.5508c-6.2591 0.41038-11.17 5.5641-11.17 11.932 0 1.8998 0.4493 3.6858 1.2285 5.2773l-3.9336 2.2715c-1.1729-2.2668-1.8477-4.8295-1.8477-7.5488 1e-6 -8.8284 6.9956-16.059 15.723-16.482zm1.6016 0c8.727 0.42292 15.723 7.654 15.723 16.482 0 2.7193-0.67472 5.282-1.8477 7.5488l-3.9336-2.2715c0.77922-1.5916 1.2285-3.3775 1.2285-5.2773 0-6.3675-4.9108-11.521-11.17-11.932v-4.5508zm-10.756 23.152c2.1427 3.2022 5.7915 5.3008 9.9551 5.3008 4.1629 0 7.8123-2.0974 9.9551-5.2988l3.918 2.2617c-2.9479 4.556-8.0643 7.5898-13.873 7.5898-5.8088-1e-6 -10.925-3.0338-13.873-7.5898l3.918-2.2637zm-7.8379 4.5254c3.7173 5.9074 10.277 9.834 17.793 9.834 7.5157 0 14.076-3.9255 17.793-9.832l3.9395 2.2734c-4.5194 7.2625-12.571 12.111-21.732 12.111-9.1621 0-17.215-4.8483-21.734-12.111l3.9414-2.2754zm-7.7285 4.4609c5.2589 8.5677 14.71 14.271 25.521 14.271 10.81 0 20.26-5.7031 25.52-14.27l3.9258 2.2656c-6.0606 9.921-16.99 16.557-29.445 16.557-12.455 0-23.387-6.6351-29.447-16.557l3.9258-2.2676z"/></svg>
