<svg xmlns="http://www.w3.org/2000/svg" width="80" height="80"><g transform="translate(0 16)"><path d="M40-16A40 40 0 0 0 0 24a40 40 0 0 0 40 40 40 40 0 0 0 40-40 40 40 0 0 0-40-40zm0 2.363a4.182 4.364 0 0 1 4.182 4.364A4.182 4.364 0 0 1 40-4.908a4.182 4.364 0 0 1-4.182-4.365A4.182 4.364 0 0 1 40-13.637zm0 11.092a4.182 4.364 0 0 1 4.182 4.363A4.182 4.364 0 0 1 40 6.182a4.182 4.364 0 0 1-4.182-4.364A4.182 4.364 0 0 1 40-2.545zm0 11.09a4.182 4.364 0 0 1 4.182 4.363A4.182 4.364 0 0 1 40 17.273a4.182 4.364 0 0 1-4.182-4.365A4.182 4.364 0 0 1 40 8.545zm0 11.092A4.182 4.364 0 0 1 44.182 24 4.182 4.364 0 0 1 40 28.363 4.182 4.364 0 0 1 35.818 24 4.182 4.364 0 0 1 40 19.637zm9.46 5.455a4.364 4.182 30 0 1 2.374.605 4.364 4.182 30 0 1 1.687 5.803 4.364 4.182 30 0 1-5.869 1.44 4.364 4.182 30 0 1-1.687-5.803 4.364 4.182 30 0 1 3.496-2.045zm-19.226.183a4.182 4.364 60 0 1 3.801 2.043 4.182 4.364 60 0 1-1.687 5.803 4.182 4.364 60 0 1-5.87-1.44 4.182 4.364 60 0 1 1.688-5.802 4.182 4.364 60 0 1 2.068-.604zm28.832 5.362a4.364 4.182 30 0 1 2.373.605 4.364 4.182 30 0 1 1.688 5.803 4.364 4.182 30 0 1-5.87 1.44 4.364 4.182 30 0 1-1.689-5.803 4.364 4.182 30 0 1 3.498-2.045zm-38.437.183a4.182 4.364 60 0 1 3.803 2.043 4.182 4.364 60 0 1-1.69 5.805 4.182 4.364 60 0 1-5.869-1.441 4.182 4.364 60 0 1 1.688-5.803 4.182 4.364 60 0 1 2.068-.604zm48.04 5.364a4.364 4.182 30 0 1 2.374.603 4.364 4.182 30 0 1 1.69 5.805 4.364 4.182 30 0 1-5.872 1.44 4.364 4.182 30 0 1-1.687-5.805 4.364 4.182 30 0 1 3.496-2.043zm-57.646.183a4.182 4.364 60 0 1 3.803 2.041 4.182 4.364 60 0 1-1.687 5.805 4.182 4.364 60 0 1-5.871-1.44 4.182 4.364 60 0 1 1.689-5.804 4.182 4.364 60 0 1 2.066-.602z"/><ellipse cx="40" cy="24"/></g></svg>