<svg version="1.1" viewBox="0 0 80 80" xmlns="http://www.w3.org/2000/svg"><path d="m40 0c-22.091 0-40 17.909-40 40s17.909 40 40 40 40-17.909 40-40-17.909-40-40-40zm6.377 9.0371 2.0781 2.9004 3.4043-1.0723-2.1172 2.873 2.0723 2.9043-3.3867-1.125-2.1211 2.8691 0.023437-3.5684-3.3848-1.1328 3.4023-1.0801 0.029297-3.5684zm-14.092 1.0508 3.3262 3.0312 3.9141-2.2188-1.8535 4.0996 3.3184 3.0371-4.4707-0.49609-1.8633 4.0957-0.91016-4.4062-4.4707-0.50586 3.9102-2.2266-0.90039-4.4102zm-12.604 8.1973 1.9434 3.3711 3.8066-0.79883-2.6035 2.8906 1.9355 3.373-3.5527-1.584-2.6113 2.8848 0.4082-3.8691-3.5508-1.5918 3.8066-0.80664 0.41797-3.8691zm34.088 1.8398-0.7168 4.6133 4.1602 2.1152-4.6094 0.74414-0.72461 4.6113-2.1328-4.1523-4.6094 0.73242 3.291-3.3105-2.123-4.1582 4.166 2.1094 3.2988-3.3047zm7.7969 0.21289 2.3027 2.8047 3.3809-1.3164-1.9551 3.0566 2.2969 2.8086-3.5117-0.91602-1.9629 3.0527-0.21289-3.623-3.5098-0.92188 3.3789-1.3223-0.20703-3.623zm-26.643 3.1094 2.1113 4.9434 5.3555-0.47266-4.0488 3.5371 2.1035 4.9473-4.6152-2.7578-4.0547 3.5293 1.1953-5.2402-4.6074-2.7676 5.3535-0.48047 1.207-5.2383zm-10.639 10.273-1.375 4.5176 3.8672 2.7129-4.7227 0.08789-1.3848 4.5156-1.543-4.4629-4.7227 0.078125 3.7695-2.8477-1.5352-4.4668 3.873 2.7051 3.7734-2.8398zm30.26 0.25781-0.38672 5.8047 5.3965 2.1719-5.6406 1.4277-0.39648 5.8047-3.0996-4.9238-5.6445 1.4141 3.7246-4.4688-3.0898-4.9297 5.4023 2.1602 3.7344-4.4609zm9.4766 1.2051 3.7051 3.1484 4.1465-2.541-1.8516 4.4961 3.6973 3.1582-4.8477-0.37109-1.8613 4.4922-1.1445-4.7246-4.8477-0.38086 4.1406-2.5508-1.1367-4.7266zm-53.941 5.5488 2.1797 2.9746 3.5059-1.1465-2.1562 2.9922 2.1738 2.9785-3.5117-1.125-2.1602 2.9883-0.015625-3.6875-3.5098-1.1328 3.502-1.1543-0.007813-3.6875zm27.262 1.6504-0.67774 5.7559 5.2578 2.4336-5.6816 1.1328-0.68945 5.7539-2.834-5.0547-5.6855 1.123 3.9316-4.2578-2.8242-5.0586 5.2637 2.4219 3.9395-4.25zm25.541 7.6172 1.5332 3.2266 3.543-0.45117-2.5957 2.4531 1.5254 3.2305-3.1367-1.7109-2.5996 2.4492 0.65625-3.5117-3.1328-1.7168 3.543-0.45898 0.66406-3.5098zm-46.594 0.51367 3.4961 3.7227 4.625-2.166-2.459 4.4746 3.4883 3.7285-5.0156-0.95508-2.4688 4.4688-0.64062-5.0645-5.0137-0.9668 4.6191-2.1758-0.63086-5.0664zm34.781 1.582 0.42383 4.793 4.6895 1.0879-4.4297 1.8848 0.41602 4.7949-3.1621-3.6289-4.4316 1.877 2.4746-4.1289-3.1543-3.6348 4.6914 1.0781 2.4824-4.123zm-14.533 9.4336 1.7559 3.1309 3.5234-0.69531-2.4355 2.6387 1.75 3.1348-3.2617-1.502-2.4414 2.6328 0.41992-3.5645-3.2578-1.5078 3.5215-0.70312 0.42578-3.5645z"/></svg>
