<svg xmlns="http://www.w3.org/2000/svg" width="64pt" height="64pt" viewBox="0 0 64 64"><path d="M28.402 63.8C17.348 62.55 7.543 55.427 2.934 45.29c-3.875-8.52-3.91-17.813-.102-26.411C8.262 6.625 21.348-1.086 34.656.125c7.774.707 14.52 3.844 19.946 9.27 9.511 9.507 12.054 23.625 6.472 35.894C55.375 57.82 42.09 65.348 28.402 63.801zm9.918-6.277c1.825-.55 4.262-1.785 4.485-2.273.203-.445.863-.797 2.843-1.52 1.22-.44 1.707-.957 3.172-3.34.668-1.085 1.387-2.07 1.598-2.18.207-.112.75-.202 1.207-.202.648 0 .957-.13 1.414-.586.7-.7.723-1.016.16-2.02-.515-.918-.414-1.515.422-2.465.715-.812 1.406-2.359 1.406-3.14 0-.317-.242-1.125-.535-1.805l-.535-1.234-1.977.14-1.98.145-.746-.809c-.867-.941-1.54-1.168-2.512-.847-1.418.468-2.039 3.222-1.531 6.781.293 2.035.125 2.871-1.113 5.59-.809 1.773-1.364 2.449-2.004 2.449-.715 0-1.403.328-2.5 1.2-.824.648-1.18.804-1.86.804-1.043 0-1.464.289-2.422 1.684-.828 1.199-.863 1.675-.234 3.183.297.707.348.738 1.29.738.538 0 1.417-.132 1.952-.293zm-9.054-2.363c1.808-2.562 2.34-3.402 2.34-3.71 0-.473-1.954-2.259-3.2-2.93-.93-.497-1.398-.602-3.101-.704-1.106-.066-2.188-.218-2.41-.336-.563-.308-7.461-.234-8.047.09-1.078.59-1.332 1.72-.676 3.004.898 1.762 3.535 3.43 6.71 4.239.872.222 1.774.539 2 .699l.903.652c.535.387 3.645.68 4.258.402.187-.086.738-.718 1.223-1.406zm6.468-7.46c.641-.641 2.778-5.079 3.086-6.407.352-1.512.328-4.656-.047-5.496-.566-1.285-1.742-2.32-3.3-2.91-.793-.301-1.578-.496-1.743-.43-.167.063-.453.414-.64.777-.617 1.223-.84 1.36-2.188 1.36-1.382 0-2.062-.375-3.601-1.992-1.477-1.555-2.961-1.997-3.985-1.188-.765.602-1.722 2.594-1.722 3.586 0 1.148.37 3.527.718 4.621.422 1.309 1.012 1.793 2.418 1.961 1.438.172 1.649.29 2.504 1.414.563.742.934.992 2.137 1.438 1.293.476 1.637.722 2.996 2.156 1.32 1.39 1.633 1.62 2.2 1.617.437 0 .828-.172 1.167-.508zm-17.87-4.712c.745-.586.656-1.148-.352-2.215-.485-.511-.942-1.199-1.012-1.53-.074-.333-.309-.763-.523-.954-.508-.465-.504-1.562.015-3.836.578-2.547.906-3.312 1.586-3.695.902-.512.961-1.121.496-5.192-.137-1.195.11-1.98.617-1.98.399 0 .63-.52.805-1.8.215-1.602.414-1.99 1.188-2.313.875-.364 1.132-.844 1.14-2.11.012-1.101-.187-1.484-1.394-2.726-.899-.926-1.555-1.164-3.77-1.375-1.285-.121-1.55-.078-2.582.39-.629.29-1.758.98-2.508 1.536-1.168.867-1.41 1.156-1.715 2.05-.195.575-.355 1.598-.363 2.274-.008 1.117.043 1.277.547 1.672.516.406.547.503.422 1.468-.258 2.035-.652 3.828-.86 3.895-.64.215-1.081.875-1.433 2.14-.52 1.875-.504 3.16.039 3.899.723.973.426 2.473-.937 4.746-.372.625-.372.64.015 1.074.219.239 1.027.754 1.797 1.14.773.388 1.848 1.028 2.395 1.43 1.296.946 4.441 2.395 5.238 2.415.344.007.855-.172 1.148-.403zm35.8-9.613c.727-.371.793-.473.711-1.047-.047-.351-.148-.777-.227-.945-.175-.399 1.25-1.23 2.38-1.387l.8-.113-.058-1.395c-.043-1.008-.145-1.441-.368-1.566-.453-.254-.875-1.39-.882-2.379a5.737 5.737 0 0 0-.32-1.66 54.375 54.375 0 0 1-.72-2c-.457-1.348-.925-1.957-1.773-2.309-.555-.23-.98-1.105-.984-2.015 0-.61-1.567-2.692-3.23-4.301-1.388-1.34-1.985-1.754-3.477-2.426-.989-.445-2.07-.871-2.403-.945-.328-.078-1.562-.586-2.738-1.13-2.387-1.105-3.098-1.202-3.879-.527l-.535.461 1.977 2.063c1.902 1.988 2.011 2.066 2.976 2.164 1.961.207 5.352 2.977 6.121 5.008.117.304.38 1.387.586 2.41.41 2.05.95 3.11 1.8 3.55.794.41 1.024 1.72.43 2.473-.226.29-.656.868-.953 1.286l-.543.753.532 1.977c.648 2.426 1.175 3.676 1.804 4.309.434.43.567.46 1.325.289a8.189 8.189 0 0 0 1.648-.598zm-12.762-1.629c.227-.324.313-.945.313-2.312 0-1.778.183-2.563.68-2.895.12-.078.64-.148 1.156-.148 1.199-.004 1.879-.266 2.187-.844.352-.656.305-2.547-.086-3.293-.468-.906-1.812-1.984-2.824-2.27-.766-.214-.976-.195-1.777.16-.5.223-1.305.766-1.79 1.215l-.878.809-1.746-.121c-1.606-.113-1.785-.172-2.23-.7-.747-.89-.942-1.85-.567-2.792.285-.715.285-.899-.012-2.07-.441-1.758-.414-2.067.297-3.59.574-1.227.617-1.457.55-3.11-.081-2.07-.362-2.61-1.788-3.414-.782-.445-1.114-.5-2.883-.5-1.8.004-2.121.063-3.172.582-1.687.836-1.848 1.16-1.45 2.91.259 1.14.278 1.586.095 2.317-.22.86-.2.953.394 1.851 1.168 1.77 1.625 2.887 1.625 3.973.004.691-.098 1.113-.308 1.289-.594.492-.891 1.367-.887 2.629 0 2.586.773 3.828 2.52 4.062 2.706.36 3.152.516 4.011 1.407 1.094 1.132 1.512 1.37 3.14 1.797 1.235.32 1.532.507 3.067 1.93.934.866 1.777 1.573 1.875 1.573.098 0 .316-.199.488-.445zm0 0"/></svg>