<svg xmlns="http://www.w3.org/2000/svg" width="64pt" height="64pt" viewBox="0 0 64 64"><path d="M27.082 63.727c-10.469-1.786-19.25-8.278-23.824-17.61C.957 41.426 0 37.285 0 32.023c0-5.257.957-9.398 3.258-14.09C7.324 9.638 15.125 3.259 23.96.997 29.047-.3 34.789-.332 39.734.914c8.95 2.254 16.864 8.649 20.957 16.934C63.04 22.602 64 26.715 64 32.023c0 5.313-.96 9.426-3.309 14.18-4.597 9.309-13.504 15.828-23.968 17.543-2.114.348-7.563.336-9.641-.02zm4.715-5.364c.066-.468.094-6.543.062-13.504l-.058-12.648-9.133 5.277a5274.874 5274.874 0 0 1-11.684 6.742L8.43 45.7l1.05 1.585c1.348 2.04 4.18 5 6.313 6.598 4.176 3.137 9.965 5.238 14.64 5.312l1.243.024zM56.785 42.98c1.578-3.64 2.25-6.886 2.246-10.855-.004-3.21-.398-5.71-1.343-8.559-.66-1.98-1.989-4.886-2.235-4.886-.39 0-23.285 13.37-23.086 13.484C54.11 44.77 55.473 45.527 55.75 45.13c.148-.211.617-1.18 1.035-2.149zm-24.887-24.5V5.035h-1.253c-5.91.004-13.122 3.176-17.774 7.82-1.707 1.704-4.066 4.75-4.121 5.317-.02.18 4.297 2.805 11.512 7.004a4032.826 4032.826 0 0 0 11.586 6.73c.03.012.05-6.031.05-13.426zm0 0"/></svg>