<svg xmlns="http://www.w3.org/2000/svg" width="80" height="80"><path d="M34.977 79.856c-2.524-.35-6.217-1.248-8.338-2.029-2.193-.807-6.446-2.868-7.801-3.78a1268.82 1268.82 0 0 1-2.39-1.613c-.813-.55-2.893-2.42-4.623-4.157C6.452 62.884 3.163 57.262 1.357 50.38-.977 41.49-.297 32.587 3.37 24.055c1.082-2.52 3.515-6.718 4.545-7.845.145-.158.483-.611.753-1.008.27-.396 1.801-2.024 3.404-3.617 4.09-4.066 8.149-6.756 13.218-8.759C33.338-.354 41.89-.858 50.327 1.354c3.377.886 5.762 1.88 9.688 4.041 1.055.58 3.57 2.267 4.656 3.123 1.9 1.496 6.609 6.405 7.666 7.993.55.824 1.19 1.724 1.425 2.002.532.628 3.024 5.603 3.73 7.445 4.48 11.696 2.87 25.826-4.121 36.138-.564.831-1.083 1.568-1.154 1.637-.071.07-.556.696-1.078 1.392-1.14 1.52-4.801 5.147-6.72 6.654-4.388 3.45-10.066 6.089-16.093 7.48-2.13.492-3.55.634-7.184.718-2.491.058-5.266.003-6.165-.121zm7.919-7.819c.736-.362.718-.37-1.258-.543-1.103-.097-2.477-.25-3.053-.34-1.097-.171-3.35.338-4.179.945-.69.506 7.457.447 8.49-.062zm-10.939-2.274c.485-.246 1.107-.633 1.384-.86.484-.396.469-.407-.377-.276-3.277.505-3.412.497-5.167-.326-1.71-.8-3.395-.992-4.9-.556-.58.168-.59.194-.125.34.277.086.956.232 1.51.326.554.093 1.551.499 2.217.902 2.066 1.25 3.63 1.38 5.458.45zm13.966.138c2.247-.476 3.105-.47 4.303.031 1.3.544 3.124.366 4.984-.486.816-.375 1.44-.72 1.384-.766-.056-.046-1.177.023-2.492.155-2.19.22-2.53.192-4.058-.333l-1.668-.572-2.359.458c-2.868.557-3.983.534-5.883-.12-.804-.277-1.74-.504-2.08-.504-.608 0-3.176 1.244-2.978 1.443.056.056.594-.034 1.197-.2 1.507-.414 2.543-.341 3.727.264 2.005 1.024 3.378 1.17 5.923.63zm-7.476-3.3c3.393-1.17 4.592-1.312 6.218-.735.405.144.373.058-.165-.44-.987-.915-2.474-1.05-4.742-.435l-3.261.887c-1.758.48-2.367.463-3.91-.103-6.86-2.517-7.38-2.577-10.148-1.182-.993.5-1.806.96-1.806 1.02 0 .06.595-.069 1.321-.286.936-.279 1.946-.359 3.464-.273 1.808.102 2.457.27 4.152 1.07 4.265 2.016 4.393 2.023 8.877.477zm16.417-.111c.778-.406 1.746-.632 3.138-.734l2.013-.147-1.006-.464c-1.584-.728-3.067-.784-4.607-.174-2.583 1.024-3.916 1.1-6.591.372l-.63-.171.675.545c.37.3 1.164.774 1.761 1.054 1.42.667 3.657.546 5.247-.281zm-18.17-3.237c.786-.396 2.108-.866 2.938-1.045l1.51-.325-1.132-.21c-1.28-.238-2.061-.126-3.973.57-1.781.646-3.042.608-4.835-.147-.822-.347-1.923-.629-2.446-.627l-.951.002 1.343.626c.74.345 1.645.837 2.014 1.095 1.729 1.212 3.218 1.228 5.533.061zm15.764-.577l2.433-.828 1.933.742c2.932 1.127 4.232 1.055 6.594-.366 1.45-.871 1.758-1.149 1.342-1.21-.298-.044-1.228.21-2.069.564-2.015.85-2.728.814-4.815-.238-2.272-1.146-3.12-1.13-6.416.126-2.875 1.094-3.917 1.208-5.811.633-.68-.207-1.338-.377-1.463-.378-.442-.006.673.986 1.702 1.513 1.389.71 3.331.545 6.57-.558zm-29.964-1.448c1.624-.827 2.061-.953 2.597-.749.932.355 1.008.086.108-.38-1.019-.527-1.302-.505-3.056.233-1.744.735-2.593.783-3.933.222-1.076-.45-3.051-.51-3.457-.104-.179.18.023.26.649.26.5 0 1.626.34 2.503.756.878.415 1.83.756 2.116.756.285 0 1.398-.447 2.473-.994zm14.119-1.422c2.754-.9 4.106-.9 6.34-.005 1.362.546 2.08.696 2.898.603 1.024-.115 3.667-1.11 3.446-1.297-.056-.047-.959.027-2.006.164-1.898.25-1.91.247-4.026-.716-2.776-1.263-3.833-1.268-7.09-.037-3.287 1.242-4.034 1.338-5.8.74-1.446-.488-1.447-.488-1.002.014 1.39 1.567 3.58 1.728 7.24.534zm26.034-.274c1.555-.428 3.657-1.434 3.935-1.883.124-.202.052-.248-.225-.142-.225.086-1.673.411-3.218.722l-2.808.565-3.084-.805c-3.387-.885-5.293-1.01-6.43-.421-.407.211-.742.41-.742.44 0 .032.765.059 1.7.06 1.347.004 2.19.195 4.088.93 3.308 1.28 3.903 1.326 6.784.534zM18.48 57.057c.96-.485 1.945-.881 2.187-.881.243 0 1.49.352 2.774.782 2.64.886 3.884.894 5.748.038l1.132-.52-2.39.039c-2.281.037-2.481-.005-4.367-.906-2.622-1.253-3.313-1.23-5.586.189-1.936 1.207-2.61 1.336-4.51.857-.779-.197-1.23-.199-1.558-.008-.396.23-.403.27-.049.277.227.004.907.232 1.51.506 1.672.76 3.064.658 5.109-.373zm46.317-.749l1.006-.62-1.887-.01c-1.468-.009-2.187-.15-3.234-.639-1.626-.758-2.512-.787-3.805-.127-1.507.77-1.408.955.441.822 1.431-.102 1.928-.02 3.202.528 1.914.823 2.997.835 4.277.046zm-16.456-.02c.894-.464 2.741-2.088 2.741-2.412 0-.124-.79.172-1.755.659-.966.487-2.112.885-2.549.885-.453 0-1.573-.432-2.616-1.008-1.295-.716-2.123-1.008-2.857-1.008-1.034 0-3.057.654-3.057.988 0 .097.829.17 1.842.162 1.76-.015 1.912.032 3.436 1.055 1.335.896 1.796 1.07 2.827 1.07.677 0 1.572-.176 1.988-.392zM34.865 54.29c.684-.345 1.584-.902 2-1.24l.754-.612-1.51.353c-2.111.494-3.42.454-6.094-.186l-2.32-.555-1.398.964c-.77.53-1.364 1-1.32 1.044.043.043.771-.108 1.619-.335 1.452-.39 1.603-.387 2.633.04 3.32 1.378 3.846 1.427 5.636.527zm22.017-.904c2.558-.561 3.244-.538 5.061.17 1.117.436 1.239.438 2.539.027.77-.243 2.233-.44 3.356-.45l1.991-.02-1.258-.464a7.996 7.996 0 0 0-4.459-.275c-.772.18-1.133.113-2.064-.384-.62-.33-1.507-.601-1.969-.601-.744 0-7.357 2.053-7.692 2.388-.315.316 2.316.087 4.495-.39zm-40.93-.394c1.738-.383 1.952-.383 2.906 0 .567.227 1.194.412 1.393.412.611 0 3.095-1.008 3.706-1.504.564-.457.53-.459-1.555-.075-2.084.385-2.151.381-3.07-.147-1.185-.683-2.128-.681-4.266.008-1.522.49-1.809.514-2.708.216-1.047-.346-2.683-.224-3.14.234-.18.18.104.26.916.26.733 0 1.487.19 2 .504 1 .61 1.416.62 3.818.092zm35.117-1.58c1.169-.567 2.471-1.039 2.894-1.048.422-.01.994-.116 1.271-.235.35-.15-.01-.222-1.189-.234-1.33-.014-2.11.15-3.648.762-1.653.658-2.216.765-3.622.686-1.413-.079-1.909-.244-3.271-1.09-2.192-1.359-4.145-1.489-7.555-.501-1.296.375-3.036.741-3.866.814-2.265.2-2.494.493-.548.701 1.333.143 2.137.07 3.815-.352 3.142-.79 5.012-.72 6.836.25 2.476 1.318 3.097 1.49 4.996 1.38 1.42-.083 2.173-.302 3.887-1.133zM22.057 49.34c1.655-.69 2.086-.77 3.442-.644.853.08 1.834.209 2.18.287.346.079.024-.154-.715-.517-1.878-.921-2.92-1.008-4.516-.376-1.745.691-3.094.665-5.29-.103-2.834-.991-5.359-.73-7.586.785-1.016.691-.705.747 1.247.223 2.192-.59 3.902-.478 5.788.378 2.09.947 3.113.94 5.45-.033zm43.746-.392c.83-.354 2.243-.843 3.14-1.086l1.628-.442-1-.167c-.744-.125-1.676.028-3.642.596-3.089.894-4.753.96-6.729.264-.788-.277-1.945-.49-2.573-.475-.628.016-.915.085-.638.153.277.069 1.183.415 2.013.77 3.458 1.478 5.056 1.558 7.801.387zm-13.832-.444c.48-.201.873-.4.873-.441 0-.042-.878-.104-1.95-.139a354.943 354.943 0 0 1-3.39-.126c-1.128-.05-1.534.038-1.886.405-.433.45-.43.462.054.327 1.395-.391 1.85-.402 2.894-.071 1.496.475 2.348.487 3.405.045zm-15.587-.915c1.186-.419 1.869-.499 3.374-.396l1.887.13-.693-.602c-1.062-.922-2.202-1.023-4.342-.387-1.607.477-2.045.515-3.296.284-.793-.147-1.508-.202-1.588-.121-.301.302 1.912 1.585 2.771 1.606.22.005 1.07-.226 1.887-.514zm-18.731-1.46c.482-.18.232-.28-1.371-.54-1.475-.24-2.026-.441-2.222-.809-.665-1.244-3.035-1.44-5.048-.42-1.573.798-1.375.96.988.806 2.09-.135 2.252-.109 2.962.483.413.344.92.696 1.128.783.464.194 2.76-.001 3.563-.303zm49.971-.005c.666-.263 1.988-.561 2.939-.663l1.728-.185-.85-.358c-1.433-.603-2.778-.67-4.26-.21-.758.234-2.454.562-3.768.727l-2.391.301 1.132.413c1.575.574 3.98.563 5.47-.025zm-37.163-1.086c1.793-.893 2.021-1.072 1.46-1.147-.367-.05-1.103.098-1.637.328-1.968.847-2.319.877-3.796.323-1.51-.565-3.222-.532-5.226.103-.995.315-.979.32 1.384.447 1.504.08 2.718.287 3.272.557 1.352.658 2.233.54 4.543-.61zm19.237.304c1.868-.644 2.658-.634 4.574.054 1.424.511 1.682.532 3.072.244.835-.172 1.89-.486 2.346-.696l.829-.382-.755.134c-2.86.51-3.767.47-5.138-.226-1.725-.875-3.093-.883-4.953-.031-1.174.538-1.792.65-3.57.65-1.183 0-2.096.055-2.03.122.144.144 2.575.563 3.51.605.358.016 1.31-.197 2.115-.474zm-5.317-1.684c2.283-.564 2.637-.713 2.139-.903-.367-.14-1.614-.116-3.239.062-2.425.265-2.797.246-4.53-.234-4.423-1.225-5.01-1.314-6.803-1.036-2.989.464-3.116.683-.486.837 1.852.108 2.943.34 4.899 1.04 3.097 1.107 4.343 1.143 8.02.234zm-23.757-.826c2.116-.41 3.918-.822 4.005-.916.086-.094-1.848-.099-4.297-.01l-4.454.161-2.434-.882c-2.65-.96-4.007-1.091-5.154-.497-.408.21-.742.41-.742.44 0 .032.708.066 1.573.077 1.343.018 1.918.192 3.945 1.197 1.304.647 2.673 1.176 3.04 1.176.369 0 2.401-.335 4.518-.746zm51.219-.158l1.258-.606-1.258.18c-2.052.293-2.97.208-4.4-.407-1.939-.836-3.82-.678-6.299.529-1.591.774-1.769.92-1.145.936.407.011 1.555-.209 2.553-.49l1.813-.509 2.355.627c2.59.689 3.217.657 5.123-.26zM60.14 40.788c1.146-.543 1.914-.75 2.562-.688.701.067.865.014.675-.215-.51-.616-1.591-.605-3.422.035-2.205.771-3.185.793-5.478.118-2.314-.68-4.218-.704-5.66-.068l-1.133.498 2.139-.099c1.804-.084 2.415 0 3.9.53 2.54.905 4.34.874 6.417-.111zm-14.708.014c.58-.28 1.243-.72 1.474-.977.41-.452.375-.455-1.145-.104-1.405.325-1.746.319-3.292-.06-2.366-.58-4.417-.417-5.426.433l-.764.644 1.676-.11c1.014-.067 2.272.038 3.186.266 2.094.521 3.068.5 4.291-.092zm-12.889-1.934c.715-.367 1.867-.803 2.559-.97 1.257-.302 1.257-.302.55-.586-1.068-.426-1.763-.35-3.58.398l-1.655.68-2.313-.81c-1.272-.445-2.653-.808-3.068-.805-.947.006-2.642.467-2.642.718 0 .104.424.214.943.244 1.55.09 2.315.313 4.192 1.224 2.07 1.005 2.905.99 5.014-.093zm-13.867-.763c1.235-.67 2.244-1.58 1.753-1.58-.155 0-.916.238-1.693.529-1.66.622-2.397.571-5.527-.38-2.459-.748-3.864-.768-5.41-.079l-.881.393 1.567.02c1.054.014 2.124.238 3.271.685 3.871 1.51 4.797 1.564 6.92.412zm30.455-.738c.38-.193.692-.388.692-.432 0-.045-.829-.029-1.842.036-1.386.09-2.036.018-2.63-.29-1.387-.718-3.405-.397-4.302.685-.265.32-.128.317 1.015-.018 1.196-.35 1.441-.35 2.59.013.697.22 1.438.454 1.646.518.539.167 2.02-.101 2.83-.512zm21.698-.225c.501-.382 1.015-.89 1.142-1.128.21-.39.098-.383-1.154.079-1.366.503-1.413.504-3.403.049-1.907-.436-2.083-.438-3.2-.038-1.549.556-2.118.534-3.392-.134-1.569-.823-3.672-.769-5.463.14-1.815.922-2.162 1.29-1.007 1.07 4.18-.799 4.113-.798 5.612-.04 1.462.741 1.522.743 4.257.118 1.33-.305 1.528-.289 2.642.213 1.525.686 2.772.583 3.966-.329zm-29.436-2.251c2.865-.996 4.375-1.096 6.328-.42 1.608.556 1.564.145-.104-.96-1.629-1.08-3.565-1.065-6.759.054l-2.336.819-1.24-.441c-2.283-.811-5.254-.367-6.332.947-.35.426-.333.448.251.307 1.933-.468 3.683-.46 5.159.026 2.047.673 2.162.665 5.033-.332zm-26.136-.696l1.546-.543 2.538.722c2.47.704 2.585.713 4.368.372l1.83-.35-2.139-.164c-1.461-.112-2.617-.371-3.649-.819-2.035-.882-3.74-.884-5.473-.005-1.335.677-2.45.724-5.473.228-.862-.141-.857-.133.252.382 2.374 1.102 3.477 1.133 6.2.177zm55.247-.164c1.965-1.248 1.724-1.678-.348-.623-.953.485-1.967.432-3.624-.189-1.144-.428-1.683-.496-2.714-.341-.708.106-2.193.267-3.3.357l-2.013.163 1.006.46c.844.385 1.414.437 3.523.317 1.778-.101 2.812-.044 3.523.195 1.654.557 2.674.469 3.947-.34zm-39.937-1.534c1.625-.793 3.564-1.262 5.213-1.262 1.657 0 .838-.423-1.173-.605-1.709-.155-2.105-.097-4.086.594-2.556.893-3.679.937-6.617.263-2.725-.625-3.142-.614-1.888.053 3.462 1.842 6.126 2.14 8.55.957zm25.675-.544c1.517-.711 1.74-.751 2.76-.494.61.154 1.484.27 1.942.258.796-.02.767-.053-.678-.743-1.97-.942-3.475-.971-5.193-.1-1.137.577-1.518.638-3.515.567-1.232-.044-2.24-.055-2.239-.024.001.133 1.718.937 2.643 1.237 1.282.416 2.224.262 4.28-.701zm-14.22-.29c.9.027 2.156.067 2.793.089 1.182.04 2.392-.42 2.986-1.136.498-.601.236-.66-1.008-.228-1.098.381-1.31.378-4.783-.068-.992-.128-1.25-.057-1.95.532-.946.797-1.063 1.266-.24.967.311-.114 1.302-.184 2.202-.156zm28.876-1.089c.915-.58.655-.782-.66-.512-1.117.23-1.326.192-2.372-.422-.63-.37-1.28-.673-1.441-.673-.6 0-1.99.818-2.366 1.393l-.389.594.87-.363c1.094-.458 2.14-.464 2.779-.016 1.012.708 2.461.708 3.579 0zm-54.371-.228c.85-.559.726-.88-.234-.605-1.304.374-2.134.278-3.48-.405-1.536-.78-2.525-.667-3.865.439-1.106.912-1.046 1.098.188.581 1.23-.515 2.171-.48 3.479.131 1.235.577 2.91.516 3.912-.141zm12.45-1.126c1.819-.862 2.178-.898 3.871-.388.673.203 1.266.326 1.318.274.052-.052-.406-.388-1.017-.746-1.37-.804-2.84-.85-4.247-.13-1.132.578-1.738.625-3.67.288-1.58-.275-3.305-.05-4.222.552-.943.619-.666.721.694.257 1.082-.369 1.268-.362 2.873.107 2.303.672 2.553.66 4.4-.214zm15.184-.772c2.225-.721 4.5-.733 6.54-.034.83.284 1.545.479 1.59.433.221-.22-.662-1.163-1.567-1.672-1.666-.938-4.511-.965-7.47-.072-3.142.948-5.284.96-7.463.042-1.39-.586-1.536-.607-1.241-.186.46.657 1.487 1.44 2.485 1.895 1.19.54 4.845.333 7.126-.406zm20.165-.541c2.245-.793 2.345-.805 4.278-.526 1.088.157 2.025.24 2.08.183.25-.248-1.858-.871-3.419-1.01-1.431-.128-2.047-.046-3.728.497-2.304.745-3.456.804-5.41.279-.761-.205-2.12-.364-3.02-.354l-1.635.017 1.635.353c.9.194 2.259.578 3.02.852 2.012.726 3.52.655 6.2-.291zm-43.872-.735c1.613-.709 1.97-.775 3.565-.656l1.772.133-1.007-.472c-1.306-.612-2.714-.606-4.53.02-1.914.659-2.594.635-4.466-.153-1.924-.81-3.39-.735-5.089.26-.648.381-1.136.735-1.084.787.052.052.712-.07 1.466-.271 1.994-.531 2.786-.462 4.392.384 1.818.957 2.743.951 4.98-.032zm11.417-2.393c.898-.503 2.105-1.058 2.683-1.233l1.05-.32-.735-.289c-.88-.346-1.872-.161-3.47.645-1.44.726-2.115.741-4.184.092-1.966-.617-3.382-.627-4.696-.032l-1.006.456 1.761.135c1.053.081 2.37.393 3.272.775 2.188.928 3.346.878 5.325-.23zm13.705.008c.778-.322 2.193-.67 3.145-.773 1.422-.153 1.596-.217.976-.358-1.446-.328-3.204-.228-4.868.278l-1.675.51-2.12-.636c-2.539-.76-3.346-.781-4.674-.122l-1.007.5 1.51-.112c.998-.074 1.851.02 2.517.275 3.847 1.481 3.702 1.47 6.196.438zm17.088-.008c2.37-1.15 3.142-1.332 4.675-1.095.677.105 1.276.148 1.332.096.055-.052-.398-.32-1.007-.597-1.477-.67-2.942-.642-4.595.09-2.29 1.014-2.678 1.026-4.86.146-2.615-1.054-3.7-.965-5.822.478-.857.582-1.558 1.1-1.558 1.153 0 .051.765-.186 1.699-.527 2.354-.86 3.153-.82 5.184.259.944.5 2.02.91 2.393.91.373 0 1.525-.41 2.559-.913zm-43.775-.99c.356-.182.808-.525 1.005-.762.326-.393.302-.41-.27-.205-.345.124-1.137.2-1.76.17-5.106-.25-5.755-.214-6.325.356l-.553.553 1.363-.13c.816-.08 1.969.02 2.873.247 1.573.394 2.57.332 3.667-.229zm9.595-2.244c1.557-.406 5.06-1.904 4.879-2.086-.063-.063-1.17.135-2.46.44-3.261.772-5.213.718-9.122-.253-2.524-.626-3.536-.77-4.503-.642-1.337.177-2.89.86-3.425 1.506-.407.49-.308.493.827.018 1.464-.613 3.528-.466 6.843.488 3.34.96 4.862 1.076 6.96.529zm34.597.101c.968-.365 2.911-1.516 2.78-1.646-.058-.059-1.02.067-2.137.28-2.012.382-2.049.38-3.719-.25-1.705-.643-3.961-.823-5.023-.4-.395.156-.188.266.953.506.8.168 2.16.632 3.02 1.03 1.655.767 2.962.92 4.126.48zm-15.024-.797c1.523-.559 2.316-1.11 1.263-.877-.346.076-1.592.212-2.769.301-1.795.136-2.377.079-3.625-.358-1.846-.647-3.732-.658-5.056-.03l-1.007.476 1.636.024c1.01.015 2.357.263 3.523.65 2.165.718 3.7.67 6.035-.186zm-21.23-3.058l1.229-.639-2.14.05c-1.875.045-2.336-.038-3.745-.671-1.814-.816-2.82-.802-4.964.069l-1.23.5 2.08.013c1.833.012 2.254.107 3.524.792 1.232.665 1.63.76 2.73.652.708-.07 1.84-.415 2.516-.766zm30.084-.177c2.321-.835 3.116-1.01 4.275-.945 1.54.087 1.645-.145.316-.701-1.221-.511-2.004-.443-4.633.403-2.952.95-3.954.946-7.22-.026-3.346-.996-5.719-.969-7.879.09l-1.384.678 1.51-.166c3.226-.354 4.89-.184 7.424.757 3.184 1.184 4.075 1.173 7.59-.09zm-23.57.44c.968.025 2.23.062 2.803.083 1.081.04 2.274-.432 2.85-1.126.503-.607.191-.69-.89-.239-.968.405-1.279.403-4.775-.042-1.136-.144-1.355-.09-2.076.518-.947.797-1.063 1.266-.24.967.31-.114 1.358-.186 2.327-.161zm2.545-2.847c1.32-.627 1.243-.83-.257-.674-1.18.122-1.677.016-3.625-.774-1.241-.503-2.478-.915-2.749-.915-.27 0-1.155.229-1.965.508-1.77.61-2.854.677-4.524.28-1.016-.24-1.467-.228-2.385.063l-1.133.359 1.21.025c.664.014 1.74.267 2.388.563 1.438.656 2.39.673 4.87.088l1.908-.45 1.984.641c2.386.772 3.147.823 4.278.286zm19.347-.465c1.082-.322 3.27-1.605 3.074-1.802-.065-.065-1.003.113-2.084.397-2.648.694-4.246.66-6.332-.134-2.112-.805-4.029-.746-6.2.19l-1.475.637 2.54-.123c2.226-.107 2.698-.053 3.827.432 2.383 1.027 4.19 1.136 6.65.403zm-13.638-2.376c1.4-.68 1.404-.937.01-.55-.532.149-1.647.27-2.477.27-1.21.002-1.784-.15-2.894-.761-.761-.42-1.884-.991-2.496-1.27-2.422-1.1-6.137-1.024-8.33.171-2.027 1.105-1.956 1.37.182.682 2.655-.852 4.745-.734 7.373.417 3.593 1.574 4.325 1.785 5.913 1.704.932-.047 1.973-.301 2.719-.663zm9.263-.53c1.385-.26 4.096-1.245 3.916-1.425-.054-.054-1.187.03-2.517.186-2.247.266-2.548.246-4.25-.276-2.246-.688-3.238-.707-4.999-.095l-1.364.474 2.14.15c1.176.083 2.478.291 2.893.463.415.173 1.208.405 1.762.517.553.112 1.02.216 1.035.23.016.016.638-.085 1.384-.225zm-7.35-3.307c.887-.4 1.562-.779 1.5-.841-.063-.063-1.14.016-2.396.174-2.124.269-2.386.25-3.79-.262-1.869-.682-3.216-.697-4.637-.052l-1.096.498 1.58.006c.9.003 1.985.183 2.517.416 2.915 1.28 3.61 1.287 6.323.062z"/></svg>