<svg xmlns="http://www.w3.org/2000/svg" width="64pt" height="64pt" viewBox="0 0 64 64"><path d="M28.402 63.8C17.348 62.55 7.543 55.427 2.934 45.29c-3.875-8.52-3.91-17.813-.102-26.411C8.262 6.625 21.348-1.086 34.656.125c7.774.707 14.52 3.844 19.946 9.27 9.511 9.507 12.054 23.625 6.472 35.894C55.375 57.82 42.09 65.348 28.402 63.801zm1.602-7.128c3.215-1.05 5.664-3.54 6.64-6.738.352-1.153.403-1.7.305-3.305-.066-1.098-.265-2.313-.465-2.824-1.648-4.207-5.675-6.86-9.945-6.547-2.477.183-4.129.855-5.992 2.437-2.89 2.461-4.09 6.7-2.942 10.41 1.594 5.165 7.352 8.215 12.399 6.567zm16.59-2.5c.91-.281 2.207-1.48 2.652-2.461.438-.957.488-2.844.106-3.762-1.047-2.492-4.141-3.66-6.52-2.453-1.723.875-2.621 2.313-2.621 4.211 0 1.34.398 2.371 1.262 3.27 1.394 1.457 3.023 1.832 5.12 1.195zM12.719 42.5c1.383-.578 2.156-1.871 2.027-3.402-.246-2.989-3.902-4.196-5.816-1.918-1.508 1.789-.965 4.289 1.136 5.242 1 .453 1.707.473 2.653.078zm39.414-3.012c2.383-.62 4.297-2.21 5.36-4.453.589-1.242.636-1.496.636-3.441 0-1.867-.063-2.235-.54-3.254-2.5-5.332-9.53-6.465-13.413-2.164-1.524 1.687-2.063 3.164-2.055 5.617.008 1.719.066 2.023.64 3.203 1.801 3.695 5.544 5.488 9.372 4.492zm-16.16-5.633c2.496-1.542 2.992-5.125 1.004-7.242-.747-.793-2.418-1.62-3.27-1.625-3.617-.004-6.02 3.817-4.406 7 1.234 2.442 4.34 3.309 6.672 1.867zm-18.637-3.964c1.406-.637 2.934-2.11 3.605-3.477.485-.992.555-1.36.555-3.031 0-1.664-.07-2.035-.547-3a7.577 7.577 0 0 0-3.554-3.477c-1.11-.52-1.528-.61-2.903-.605-1.305 0-1.82.097-2.742.52-4.79 2.199-5.832 8.35-2.008 11.808 1.051.95 1.875 1.379 3.246 1.691a7.07 7.07 0 0 0 4.348-.43zm17.148-8.41c4.727-1.231 7.125-6.47 4.977-10.86-.656-1.34-2.316-2.914-3.8-3.613-1.013-.473-1.4-.54-3.169-.54-1.894 0-2.09.04-3.367.692-1.621.82-2.738 2.004-3.605 3.813-.56 1.168-.622 1.484-.61 3.105.012 1.594.086 1.95.64 3.106 1.704 3.55 5.25 5.257 8.934 4.296zm14.723-1.461c1.855-1.38 1.953-3.72.223-5.27-1.36-1.219-3.016-1.145-4.457.2-.586.546-.836.972-.953 1.609-.547 2.996 2.808 5.234 5.187 3.46zm0 0"/></svg>