<svg xmlns="http://www.w3.org/2000/svg" width="64pt" height="64pt" viewBox="0 0 64 64"><path d="M32 64c17.668 0 32-14.332 32-32S49.668 0 32 0 0 14.332 0 32s14.332 32 32 32zm.047-39.785c5.105 0 9.242-4.14 9.242-9.242 0-5.106-4.137-9.246-9.242-9.246a9.247 9.247 0 0 0-9.246 9.246c0 5.101 4.14 9.242 9.246 9.242zm0-3.555a5.688 5.688 0 0 0 5.687-5.687 5.689 5.689 0 1 0-11.379 0 5.689 5.689 0 0 0 5.692 5.687zm-17.09 20.637c5.105 0 9.246-4.137 9.246-9.242a9.247 9.247 0 0 0-9.246-9.246c-5.105 0-9.242 4.14-9.242 9.246a9.24 9.24 0 0 0 9.242 9.242zm0-3.555a5.688 5.688 0 0 0 5.688-5.687 5.689 5.689 0 0 0-5.688-5.692 5.689 5.689 0 0 0-5.687 5.692 5.688 5.688 0 0 0 5.687 5.687zm34.105 3.555a9.24 9.24 0 0 0 9.243-9.242c0-5.106-4.137-9.246-9.242-9.246a9.247 9.247 0 0 0-9.247 9.246c0 5.105 4.141 9.242 9.246 9.242zm0-3.555a5.688 5.688 0 0 0 0-11.375 5.689 5.689 0 0 0-5.69 5.688 5.689 5.689 0 0 0 5.69 5.687zM32.047 58.23a9.24 9.24 0 0 0 9.242-9.242c0-5.105-4.137-9.246-9.242-9.246a9.247 9.247 0 0 0-9.246 9.246c0 5.106 4.14 9.242 9.246 9.242zm0-3.554a5.688 5.688 0 0 0 5.687-5.688 5.691 5.691 0 0 0-5.687-5.691 5.689 5.689 0 1 0 0 11.379" fill-rule="evenodd" fill="#231f20"/></svg>