<svg xmlns="http://www.w3.org/2000/svg" width="64pt" height="64pt" viewBox="0 0 64 64"><path d="M32 64c17.621 0 32-14.379 32-32C64 14.379 49.621 0 32 0 14.379 0 0 14.379 0 32c0 17.621 14.379 32 32 32zm8.223-28.387l-.875 2.742 18.382-.027a26.55 26.55 0 0 0-.902-13.598zm-9.141 5.293l-2.879.016 5.711 17.473a26.491 26.491 0 0 0 12.648-5.06zm-7.86-7.058l-.902-2.73L7.465 41.944a26.563 26.563 0 0 0 8.723 10.47zm4.286-9.653l2.32-1.703-14.89-10.781a26.568 26.568 0 0 0-7.262 11.527zm10.508 1.09l2.336 1.68 5.652-17.492a26.573 26.573 0 0 0-13.207-3.344zm0 0" fill-rule="evenodd"/></svg>