<svg xmlns="http://www.w3.org/2000/svg" width="64" height="64"><path d="M30.906 62.98A30.959 30.959 0 0 1 7.195 50.584a30.083 30.083 0 0 1-3.105-5.096C1.264 39.685.35 33.156 1.457 26.685c1.293-7.559 5.42-14.421 11.525-19.166a31.09 31.09 0 0 1 13.943-6.11 31.662 31.662 0 0 1 8.641-.207c1.781.205 3.618.581 5.331 1.094A30.994 30.994 0 0 1 56.806 13.41a30.953 30.953 0 0 1 5.911 14.352 31.487 31.487 0 0 1-.408 10.766 30.916 30.916 0 0 1-6.773 13.645 31.333 31.333 0 0 1-8.62 7 30.953 30.953 0 0 1-16.01 3.806zm-5.865-8.688l.115-.017.037-.688.06-1.163.023-.475.174-.04c.346-.082.962-.142 1.25-.123.155.01.598.07.983.131.546.088 1.532.19 1.562.162.027-.025.329-1.663.329-1.784 0-.18-.055-.3-.298-.662-.23-.342-.23-.346-.167-1.3.055-.854.11-1.303.196-1.637.063-.243.052-.297-.197-.997-.2-.563-.613-2.134-.727-2.768l-.053-.293.2-.77c.162-.626.225-.816.34-1.03.274-.51.452-1.195.626-2.418.046-.323.14-.844.207-1.158.067-.314.132-.658.144-.765.02-.185.018-.197-.051-.218a1.289 1.289 0 0 0-.271-.024c-.17 0-.229.017-.411.12l-.213.118-.29-.04c-.194-.029-.594-.04-1.226-.035l-.938.006-.39-.188c-.735-.357-1.026-.332-1.33.116-.371.547-.741 1.494-1.036 2.655-.21.83-.28 1.283-.282 1.84l-.002.475.137.35c.076.191.392 1.104.703 2.029.588 1.75.825 2.396 1.037 2.823l.126.254-.075.237c-.558 1.763-1.132 4.17-1.564 6.563-.08.44-.091.556-.059.577.063.038.463.132.678.158.182.022.41.015.653-.021zm18.57-2.47c.099-.041.11-.058.11-.171 0-.239.123-.846.22-1.079.154-.374.207-.74.308-2.13.067-.925.067-2.04 0-2.53-.054-.386-.054-.388-.375-.869-.181-.27-.35-.579-.389-.712-.034-.114.112-.242.525-.459.213-.111.45-.26.526-.33l.138-.126.037-.58c.058-.907-.006-1.31-.433-2.698-.261-.847-.314-1.055-.413-1.617-.093-.53-.156-1.19-.226-2.369-.091-1.525-.093-1.849-.016-2.3.193-1.12.757-2.854 1.466-4.514.271-.634.383-.842.61-1.14.298-.39.287-.356.278-.879-.016-.93.174-1.47.974-2.769.61-.989.764-1.308.876-1.798.094-.416.078-.66-.07-1.072-.071-.196-.15-.39-.177-.43-.102-.157-.603-.244-1.036-.181-.351.051-.35.05-.35.203 0 .073-.042.482-.095.909-.052.427-.095.831-.095.897a.254.254 0 0 1-.078.199c-.07.07-.103.077-.35.077-.46 0-.434-.023-1.061.968-.413.65-.583.882-.693.94-.068.037-.083.034-.133-.028-.125-.154-.266-.867-.317-1.6-.04-.579-.1-.738-.354-.954-.187-.16-.25-.264-.25-.423 0-.065.045-.383.1-.707.107-.645.111-.934.016-1.003-.099-.073-.319-.085-.548-.03-.463.111-.867.04-.976-.171-.085-.163-.064-.478.06-.934.123-.444.13-.501.075-.66a.566.566 0 0 0-.282-.346c-.332-.17-.38-.045-.443 1.174-.065 1.272-.11 1.515-.413 2.3-.068.177-.073.237-.076.888-.002.778.007.857.228 1.823l.149.65v.62c.002.702-.021.812-.235 1.143-.183.283-.189.339-.144 1.385.019.446.014.752-.019 1.141-.111 1.338-.02 1.951.575 3.863.251.809.274.96.23 1.551l-.025.346-.275-.007-.275-.007-.017.137c-.082.661-.048 1.18.147 2.278l.133.745-.001.872c-.002 1.14-.013 1.2-.531 2.895-.117.38-.241.865-.278 1.078-.036.214-.174.966-.307 1.673a51.238 51.238 0 0 0-.254 1.416c-.012.126-.009.133.1.168.183.06.808-.01 1.049-.118.17-.076.227-.086.493-.081.432.007.683.055.816.156.323.246.494.804.658 2.141.073.596.085.649.211.925l.133.293-.013.444c-.038 1.306-.018 1.456.194 1.529.154.052.456.05.587-.005zM49 49.69l.632-.118.445-.337.445-.336.152-.886c.127-.744.156-.992.182-1.552.036-.802.016-1.008-.174-1.747-.168-.65-.193-.926-.147-1.634.039-.61.099-.937.23-1.251l.092-.225-.063-.49c-.067-.517-.09-.651-.266-1.583-.163-.857-.237-1.539-.24-2.204-.004-.651 0-.67.362-1.49.358-.814.44-1.149.556-2.267.095-.912.097-.921.284-1.145.243-.293.26-.339.27-.756.006-.203.04-.519.077-.703.076-.387.09-.59.044-.636-.067-.066-.427-.103-.618-.063-.17.036-.187.048-.337.255-.185.252-.538.564-.942.83-.355.236-.405.25-.57.155-.43-.249-.377-.237-1.151-.25-.514-.008-.719 0-.752.027-.06.05-.13.384-.207 1-.035.279-.064.523-.064.542 0 .02-.186.295-.413.613-.511.715-.824 1.18-.918 1.365-.065.128-.07.172-.055.429.01.157.063.543.117.857.109.636.149 1.208.104 1.481-.043.258.016.414.57 1.514l.471.933.033.335c.035.363.021.606-.056 1.001-.103.522-.033.838.324 1.474l.15.267-.034.294c-.019.162-.102.623-.185 1.025l-.15.73-.257.132c-.14.072-.28.153-.311.18-.08.07-.071.299.027.68.077.296.08.348.06.734-.028.509-.101.81-.265 1.09-.14.242-.17.336-.246.785-.073.438-.092.773-.046.82.026.025.253.037.757.037h.72l.27.1c.148.056.312.102.364.103.053.002.38-.05.728-.115zM20.546 47.7a.36.36 0 0 0 .128-.08c.012-.02.005-.539-.016-1.153-.028-.846-.028-1.23 0-1.577.042-.538.084-.72.276-1.185.168-.408.241-.801.168-.901l-.146-.194a.651.651 0 0 1-.108-.554.57.57 0 0 1 .165-.211c.158-.127.245-.314.27-.58.028-.296.037-.293-.732-.293-.35 0-.71-.013-.799-.027l-.161-.027-.02.16c-.023.2-.074.3-.275.541-.15.18-.159.201-.159.374 0 .1.044.432.098.738.118.67.112.761-.083 1.254-.078.198-.142.393-.141.434 0 .099.114.293.327.557l.176.217.021.316c.02.29.014.35-.08.725l-.102.409.212.31c.116.17.313.417.439.55.249.264.32.29.542.197zm11.51-2.627l.85-.295-.019-.105c-.01-.058-.082-.326-.159-.596-.076-.27-.154-.571-.173-.67-.066-.359-.071-.878-.018-1.69.062-.937.05-.9.428-1.452l.256-.374-.081-.443-.22-1.172c-.249-1.305-.301-1.818-.302-2.929 0-.407.023-1.15.05-1.649.061-1.07.046-1.802-.054-2.606a8.867 8.867 0 0 1-.07-1.078c0-.487.008-.561.118-1.062.252-1.153.366-1.74.386-1.993l.022-.264-.103-.117c-.214-.243-.226-.247-.89-.278a8.139 8.139 0 0 1-.752-.06c-.251-.054-.753-.193-.801-.223-.066-.04-.006-.237.221-.729.361-.78.388-1.008.182-1.538a3.294 3.294 0 0 1-.133-.398c-.016-.087.057-.419.319-1.443l.696-2.727.356-1.396.04-.729c.063-1.1 0-1.5-.507-3.187-.282-.938-.317-1.098-.317-1.434 0-.375.06-.611.237-.913.16-.275.212-.447.218-.714.007-.29-.11-.495-.518-.906-.726-.73-1.542-1.08-2.138-.915-.139.039-.378.248-.547.48-.068.091-.137.152-.174.152-.077 0-.223-.075-.868-.442-.44-.25-.784-.414-.87-.414-.041 0-.098.153-.078.213.01.031.082.201.159.378.186.427.203.556.171 1.303-.028.667-.087.965-.197.986-.029.005-.421-.133-.872-.306-.867-.334-1.207-.45-1.33-.45-.108 0-.148.101-.129.329.01.107.031.552.049.988.034.857.081 1.203.276 2.027.226.954.266 1.207.3 1.906.048 1.003.088 1.177.474 2.092.459 1.086.538 1.4.562 2.242.016.54.012.61-.05.812-.091.302-.223.43-.676.662-.556.284-.757.522-.876 1.04-.044.192-.051.423-.045 1.57l.007 1.344-.114.542c-.133.634-.169 1.14-.11 1.546.037.25.15.726.383 1.598.056.21.11.508.122.665l.02.284.141.04c.189.055.72.12 1.604.2.401.035.764.072.806.082.042.01.16.093.261.185.276.249.306.255 1.398.257l.942.003.168.117c.092.064.307.224.477.356l.31.239v.296c0 .41.069.77.24 1.246.405 1.125.489 1.42.489 1.717 0 .082-.042.301-.093.488a3.956 3.956 0 0 0-.153 1.316c.015.347.04.492.168.993.124.485.153.65.164.952l.015.364-.164.508c-.397 1.232-.528 1.932-.495 2.648.024.54.113 2.687.113 2.768 0 .03.011.056.024.056.014 0 .407-.132.875-.293zm-18.977-.706c.096-.026.226-.07.29-.098l.115-.052.02-.496c.047-1.249.054-2.23.02-2.951l-.037-.773.097-.147c.238-.36.26-.435.297-1.055.04-.687.032-.73-.232-1.178-.307-.518-.319-.565-.35-1.37-.026-.644-.022-.764.056-1.539.072-.722.084-.995.086-1.942.002-1.08.004-1.103.066-1.102.035 0 .27.022.523.047.492.049.865.059 1.052.028.105-.018.12-.032.15-.155.114-.451.138-1.648.052-2.53-.196-2.012-.64-3.933-1.286-5.558-.542-1.364-.547-1.39-.52-2.66.03-1.34-.05-2.096-.263-2.523-.109-.217-.117-.219-.726-.145-.5.06-.874.039-1.371-.08a2.36 2.36 0 0 0-.432-.063h-.168l-.02.119c-.035.214-.021.854.027 1.221.14 1.07.413 2.051.92 3.307.538 1.33.6 1.598.602 2.585 0 .375-.006.96-.015 1.3l-.016.618.136.207c.075.113.157.276.182.362.053.178.062.48.016.51a.567.567 0 0 0-.082.19c-.061.213-.274.538-.615.944l-.26.31.008 1.862c.006 1.497 0 1.89-.035 2-.07.221-.256.359-.741.547-.502.196-.717.308-.752.394-.014.036-.129.804-.255 1.707l-.229 1.643.148.28c.103.194.148.318.147.403 0 .068-.044.38-.099.694l-.099.57-.013 1.657-.013 1.656.08.17a.909.909 0 0 0 .137.22c.03.026.284.094.563.15l.507.1.254.248c.14.136.304.273.365.304.206.106 1.387.15 1.713.064zm23.566-1.669l.16-.034v-.153a5.56 5.56 0 0 0-.095-.647c-.156-.815-.183-1.301-.086-1.558.02-.052.166-.32.326-.594.332-.569.449-.855.49-1.196.015-.132.05-.753.077-1.381.082-1.883.11-2.31.153-2.338.038-.024.222-.08.487-.15.073-.02.142-.06.153-.09.012-.03.02-.369.02-.753-.002-.815-.018-.901-.273-1.446a2.621 2.621 0 0 1-.21-.589c-.034-.199-.031-.248.032-.502.04-.155.085-.44.101-.632.017-.193.067-.644.111-1.002.146-1.182.173-1.529.193-2.473.025-1.22.013-1.302-.256-1.815-.318-.607-.38-.815-.38-1.294 0-.342.014-.455.104-.824.14-.57.152-.838.07-1.534-.075-.642-.075-.644.132-1.13.084-.198.133-.368.143-.493.023-.287-.066-.778-.342-1.879-.163-.651-.268-1.143-.304-1.433l-.056-.442.09-.343c.05-.188.097-.41.105-.493.013-.141.008-.152-.077-.186-.118-.046-.778-.018-1.219.052l-.336.054-.524-.102c-.29-.056-.551-.097-.583-.09-.078.014-.101.116-.105.459a2.447 2.447 0 0 1-.084.602c-.095.37-.37 1.073-.593 1.518l-.16.317.019.319c.01.199.071.562.16.967.078.357.158.76.177.897.056.407.04 1.16-.031 1.56-.035.192-.085.52-.111.73-.027.209-.085.585-.129.835s-.088.55-.098.668c-.022.27.048.63.2 1.025.214.55.329.921.41 1.322.094.458.225.806.51 1.362.437.85.493 1.344.359 3.192-.044.615-.022 1.4.05 1.743.087.417.26.802.614 1.366.033.052 0 .372-.196 1.877l-.236 1.814-.193.24c-.392.488-.428.608-.485 1.61-.045.782-.032.922.135 1.443.132.414.307.786.52 1.105.328.494.588.62 1.06.52zm16.435-1.855c.291-.049.39-.051.853-.019.537.038.695.024.838-.07.159-.103.133-.507-.068-1.082-.194-.554-.228-.72-.238-1.152-.014-.636.013-1.85.043-1.976.02-.083.078-.158.202-.264.213-.182.246-.283.248-.763 0-.338-.003-.359-.131-.67-.13-.314-.133-.332-.132-.683 0-.477.058-.732.242-1.07.23-.42.264-.497.336-.76.063-.227.069-.338.084-1.765.032-3.014.031-3.038-.192-4.646a8.026 8.026 0 0 1-.07-1.158c-.004-.602.003-.698.073-1 .05-.209.079-.432.08-.602 0-.25-.008-.286-.116-.495-.137-.264-.344-.463-.54-.517a1.324 1.324 0 0 0-.34-.028l-.204.01-.057.19a3.695 3.695 0 0 0-.094.46c-.052.389-.086.505-.17.59-.065.064-.108.076-.287.076-.188 0-.219-.01-.3-.09a.577.577 0 0 1-.124-.214c-.061-.222-.038-.686.064-1.27.028-.161.07-.259.19-.437.195-.288.207-.351.252-1.399l.053-1.213c.025-.585-.009-.63-.514-.662a1.15 1.15 0 0 0-.52.065l-.268.081-.161-.078a9.495 9.495 0 0 1-.415-.222c-.275-.156-.459-.221-.5-.18-.015.016-.042.319-.06.674-.048.979-.03.926-.829 2.487-.302.59-.333.73-.371 1.694-.035.859-.09 1.122-.365 1.714-.207.448-.237.569-.16.646.074.074.217.068.969-.043.357-.053.828-.105 1.046-.115.477-.023.532.002.572.26.023.143.015.272-.05.81l-.022.178.25.136c.904.495 1.336.994 1.368 1.58.017.322-.072 1.552-.135 1.856-.027.131-.119.465-.204.74-.192.626-.25.964-.276 1.629l-.02.523.102.285c.206.571.207.585.115 1.736-.114 1.428-.144 1.637-.412 2.927-.244 1.177-.375 1.914-.43 2.41-.052.464-.046.53.07.7.1.148.29.282.36.255a5.56 5.56 0 0 1 .365-.069zm-36.14-1.017c.04-.01.078-.05.085-.086.093-.49.173-.683.364-.873a1.33 1.33 0 0 1 .665-.339c.284-.06.956-.057 1.437.006.582.076 1.217.024 1.61-.133.17-.068.18-.118.13-.613-.033-.337-.032-.542.011-1.304.093-1.64.097-1.931.036-2.502-.065-.61-.052-.984.044-1.256.135-.383.356-.6.694-.683.188-.047.22-.066.27-.16.129-.253.053-.75-.236-1.547-.33-.91-.326-.886-.328-2.447-.002-1.185-.01-1.415-.071-1.903-.105-.84-.114-1.147-.06-1.887.051-.713.08-.837.255-1.126.187-.308.19-.335.159-1.284a50.096 50.096 0 0 1-.029-1.222c0-.353.004-.373.12-.627.167-.374.245-.696.245-1.022 0-.246-.01-.287-.09-.414-.111-.173-.552-.595-.708-.678l-.115-.06-.503.122c-.432.105-.567.124-.947.135-1.06.03-2.313-.297-3.08-.804-.376-.249-.412-.294-1.05-1.304-.221-.35-.704-.925-.907-1.08-.144-.11-.293-.154-.403-.12-.099.032-.159.202-.159.45 0 .203.01.23.219.61.448.818.731 1.436.958 2.094.412 1.194.568 2.181.631 3.993.035 1.005.006.839.401 2.29.558 2.05.558 2.049.87 2.62.43.783.538 1.083.604 1.687.05.458.015 1.49-.067 1.988-.083.498-.08.754.014 1.262.094.512.176 1.237.176 1.56 0 .233-.002.242-.087.275-.06.023-.208.025-.468.007-.844-.06-1.17-.004-1.391.242-.144.16-.173.272-.207.806-.032.5-.017.58.138.776.061.076.12.19.133.253.012.064-.01.459-.048.877-.09.985-.09 1.488-.001 1.834.08.316.07.521-.05.936a2.456 2.456 0 0 0-.091.444l-.005.148.174.037c.193.04.547.052.659.022z"/></svg>