<svg xmlns="http://www.w3.org/2000/svg" width="64pt" height="64pt" viewBox="0 0 64 64"><path d="M23.387 8.598c.058-.036.117-.07.18-.11.777-.465.425-.754 1.206-1.222.176-.106.356-.215.536-.32 1.054-.633 2.949-.91 3.253.148.16.55-1.039.511-1.375.965-.507.687-.417 2.492-1.152 2.933-1.11.664-2.586-.191-3.98.645-.797.476-1.16 1.707-.727 2.43.563.937 2.195 1.636 2.211 1.66.281.468.375 1.003-.008 1.261-.758.516-1.3 1.29-1.968 1.918-.051.047-.118.07-.18.106-1.477.89-1.461-.5-2.89-.719-1.06-.16-2.098-.316-2.848-1.563-.145-.246-.293-.488-.438-.734-.773-1.285.27-4.394 1.344-5.039.89-.535 1.785-1.07 2.676-1.605 1.23-.743 2.515.23 4.16-.754zm-5.461 15.976c-.871.524-2.172-.683-3.375.035l-.18.11c-.871.523-.262 2.894-1.644 3.726-.18.106-.36.215-.536.32-.597.36-1.738-.687-2.308-.605-.828.113-1.356 1.008-2.14 1.285a1.06 1.06 0 0 1-1.263-.488c-.543-.902-.46-2.14.149-2.582 3.5-2.535-.36-5.016 2.687-6.844.239-.14.477-.285.715-.426.598-.359 1.91.176 2.305.606.723.785.875 2.016 1.648 2.746.34.316.536.18.934-.062.062-.036.121-.07.18-.106.437-.262.343-.953 1.457-1.621.418-.25.894-.125 1.152.305.219.367.438.73.66 1.097.43.715.309 2.059-.262 2.399-.058.035-.117.07-.18.105zm20.07-14.285c-1.02-1.695-3.379-.773-4.781-3.11-.074-.12-.145-.245-.219-.367-.254-.421-.207-.625.207-.87.445-.266 1.695.394 2.137.671 1.008.64.937.278 2.12.102 2.08-.313 2.114 1.351 3.227 3.203.07.121.145.246.22.367.769 1.285 2.394.344 3.843-.066.563-.156 1.285.527 1.703 1.219l.328.55c.657 1.094 1.14 4.047.125 4.657-.176.109-.355.214-.535.32-.234.144-3.488.535-3.953.539-1.402.012-2.375-.567-3.324-2.149-.508-.847-.164-3.507-1.098-5.066zM20.262 24.422c-.203-.34-.219-1.367.234-1.637.117-.07.234-.14.356-.215 1.082-.648 2.082.246 2.8-.183.118-.075.239-.145.356-.215 1.836-1.102-.328-3.79 1.277-4.75.809-.488 1.77-.29 2.305.605.27.45-.121 1.012.566 2.153.035.062.07.12.11.183.691 1.153 2.254.926 3.007 2.18.63 1.05-.101 3.547-1.14 4.172-.117.07-.238.14-.356.215-.726.433-3.086-.696-3.609-1.57-.34-.567.168-.93-.238-1.602-.153-.258-.461-.223-.754-.047-.547.328-.578 1.844-1.125 2.172l-.176.105c-1.059.637-2.64.055-3.285-1.02l-.328-.546zm13.12-5.637c-1.089-1.82-3.194-1.285-4.198-2.957-.223-.367-.442-.734-.66-1.098-.208-.343.062-1.671 0-2.312-.16-1.563-.946-.945.163-2.27.407-.484 1.114-.644 1.735-.742.863-.136 2.46.719 3.125 1.567.422.539.805 1.437 1.207 2.02.695.995 1.066.546 1.418 1.132l.879 1.465c.445.738.383 1.515-.301 1.922-.488.293-.8-.016-1.29.277-.296.176-.41.906-.276 1.16 1.101 2.113 2.054 5.742.222 6.84-.058.04-.117.074-.176.11-.417.25-.898.124-1.156-.305a4.538 4.538 0 0 0-.11-.184c-1.124-1.879.806-4.324-.468-6.441-.035-.063-.074-.125-.11-.184zM22.435 35.32c-2.825 1.696-3.575-3.3-5.793-3.996-2.36-.734-6.106 4.106-7.168 1.813-.407-.88.77-1.457 1.523-1.91.059-.036.121-.07.18-.106 1.906-1.144 2.476.504 5.16-1.11.531-.316 1.05-1.374 2.168-2.046.238-.145.476-.285.715-.43.597-.355 2.093.164 2.62.574.278.215 2.083 2.41 2.161 2.536.07.125.145.246.219.367.578.965-.723 1.254-.711 2.281.012.918-.02 1.395-1.074 2.027zM14.41 49.852c-.66-1.098-2.45-.438-3.367-1.965-.621-1.04-2.39-2.047-1.867-3.114.742-1.503 1.125 1.446 3.5 1.387.422-.012.656-.605 1.07-.644.3-.028.723.39.906.703.649 1.078.348 2.449.606 2.875.035.058.008.16.043.222.469.786 1.43 1.133 2.129.715.496-.3.965-1.578 1.699-2.02.062-.034.121-.07.18-.105.558-.336 1.675.367 1.949.824.625 1.04.082 1.383 1.117 3.067.71 1.156.945 1.922-.152 2.582l-.18.105c-1.559.938-2.559-.742-3.871-1.105-1.582-.438-2.375-.406-3.57-2.399-.098-.16.066-.699-.196-1.128zm2.344-5.395c-.914.55-2.649-1.328-4.406-1.441-1.598-.106-3.375.613-4.465-1.203-.254-.426-.512-.856-.77-1.282-.535-.89-.707-2.347.371-2.215 1.051.13 2.383 2.555 3.364 1.965.18-.105.359-.215.535-.32 1.64-.984-1.606-3.27.453-4.504.555-.336.98.02 1.738-.176.79-.203.739-.566 1.625-1.097.574-.344 3.176 1.648 3.473 2.148.039.063.074.121.11.184.421.699-.4 2.98-.93 3.3-.122.07-.239.141-.36.211-1.164.703-1.523-.328-2.687.371-.22.133-.309.7-.098 1.055.5.832 1.605.656 2.211 1.66.074.125.148.246.219.367.254.422.207.625-.203.872-.059.035-.122.07-.18.105zm30.527-23.55c.551.917.192 1.53.453 1.968l.328.55c.586.97 1.45.794 2.036 1.766.144.247.293.489.437.735.453.754.227 2.355-.328 2.687-.59.352-1.453-.738-2.012-1.25-1.047-.953-.36-1.492-.722-2.09l-.328-.55c-.356-.594-1.434-.633-2.086-.243-.762.457-1.012 2.352-2.086 2.997-.121.07-.239.14-.36.214-1.093.657-2.765.243-3.457-.914-.539-.89-.277-4.316.52-4.793l.355-.214c.867-.52 1.785-.079 2.403-.446.754-.453.632-.879 1.566-1.437.773-.465 2.762.156 3.281 1.02zM29.81 32.636c-.727.437-2.801.164-3.243-.543-.293-.473.465-1.098.29-1.621-.329-.977-1.41-1.692-.622-2.168 1.383-.828 2.825 2.789 5.012 1.476.36-.215.57-.176.84-.492.09-.105.105-.594.195-.7.27-.316.532-.245.887-.46.55-.328 1.035.11 1.375.672.36.601-.059 1.113.453 1.969.875 1.457 2.68 1.23 3.406 2.437l.328.55c.684 1.138-.671 3.395-2.07 4.231-.18.11-.515.336-.734.278-.887-.235-2.793-.086-3.813-1.782-.668-1.117.36-3.043-.48-4.441-.578-.969-1.09.152-1.824.594zm2.62 7.144c-2.648 2.293-5.324-1.785-6.507-1.074-.238.14-.473.285-.711.426-1.703 1.023 1.64 4.746-.684 6.14-.18.106-.359.215-.535.32-1.305.786-3.476-.527-4.3-1.902a18.14 18.14 0 0 0-.22-.367c-.495-.824-.761-2.031-.027-2.472l.356-.215c.82-.492 1.34-.059 2.472-.735.176-.109.356-.215.536-.324.836-.5.351-2.7 1.753-3.543.122-.07.239-.144.36-.215 1.23-.738 2.328.188 3.324.836.637.414 4.777 2.614 4.184 3.125zm25.563-9.117c-.027.492-.832.5-1.25.75-1.023.613-3.097-.715-3.828-1.934l-.441-.734c-1.285-2.14.89-4.582.257-5.633-.07-.125-.144-.246-.218-.367-1.293-2.156-2.086-1.957-1.516-4.254.43-1.726-1.488-3.656-.45-4.281.38-.227 1.606 1.059 1.923 1.586.144.246.293.488.437.734.535.89.094 1.367.235 1.602.363.601 1.011.472 1.527 1.328.645 1.078-.508 2.797.262 4.074.605 1.008 1.523 1.324 2.074 2.246.965 1.606 1.059 3.707.988 4.883zm-12.832 8.95c.43.718-.336 1.445-1.058 1.878-.547.328-2.762-.637-3.418-.437-.93.28-1.567 1.215-2.496 1.5-.637.195-1.286-.117-1.774-.93-.074-.121-.144-.246-.219-.367-.297-.492-.441-.54-.37-1.024.038-.277.472-.285.71-.425 1.531-.918 3.184 1.078 4.711.16 1.688-1.012 1.281-2.032.777-3.649-.191-.62-1.668-3.582-1.945-4.367-.152-.422.027-1.262.52-1.558.175-.106.355-.211.535-.32.941-.567 3.344-.493 3.887.405l.878 1.465c1.082 1.805-.918 4.457-1.73 6.02-.29.558.66 1.097.992 1.648zm1.25-9.966c-.191-.46.13-.578.531-.816.817-.492 1.586 2.195 3.063 2.578.836.219 2.945.156 3.445.985.035.062.074.125.11.183.957 1.594-.625 3.406-.094 4.293.074.121.144.242.219.363.671 1.121 1.195 1.188 1.785 2.168.676 1.125-.063 3.028-1.356 3.805-.12.07-.238.14-.36.215-1.519.91-5.019-.684-6.136-2.543-1.304-2.172 3.367-4.387 2.016-6.445-1.055-1.606-2.48-3.012-3.223-4.786zM25.488 50.922c-.597-.828-1.922-1.184-2.652-2.395-.18-.304-.816-.695-.547-.914 1.68-1.363 1.313 1 3.238.551 1.938-.457 1.563.574 2.543 2.207.075.121.145.242.22.363.476.797 3.733.965 4.847 2.82.148.243.293.489.441.731.606 1.016.07 2.45-.863 3.012-1.535.918-4.871.785-5.574-.39-.114-.184-.223-.368-.332-.552-.586-.976-.395-4.156-1.32-5.433zm7.84-2.711c-2.219.602-3.785.969-5.082-1.188-.07-.12-.144-.242-.219-.363-.707-1.183-.98-2.62-.289-3.316.739-.739 1.774-1.258 2.813-1.367 2.441-.258 4.199 1.324 5.988 4.304.43.715-1.16 2.512-.312 3.926l.437.73c1.613 2.688 5.887 2.934 6.441 3.856.098.164.02.484-.136.582-1.547.926-6.782-.383-7.348-1.32l-.328-.547c-.242-.406.047-2.348-1.129-4.309-.035-.058-.07-.12-.11-.18-.296-.496-.265-.937-.726-.808zm18.149-2.926c.492-.293 1.441-.43 1.8.168.035.059.07.121.11.18.254.43.07 1.203-.344 1.453-.059.035-.117.074-.18.105-.988.508-2.238.672-2.976 1.504-.883 1-.395 2.762-1.387 3.36l-1.25.75c-.637.383-1.387-.293-1.77-.93-.296-.496-.007-.691-.37-1.023-.95-.872-1.598-.043-2.9-.047-.757 0-2.065-.54-2.472-1.215-.254-.426-.511-.852-.77-1.281-.722-1.204-.163-3.387 1.317-4.278.238-.14.477-.285.715-.426 1.258-.757 3.902.028 4.613 1.215.657 1.09.606 1.977 1.563 2.47.449.23 1.98.136 2.312-.063.297-.176.594-.356.89-.536.388-.23.47-1.027 1.099-1.406zm-3.008 14.149C33.316 68.527 13.66 63.617 4.566 48.469-4.527 33.316.383 13.66 15.531 4.566 30.684-4.527 50.34.383 59.434 15.531c9.093 15.153 4.183 34.809-10.965 43.903" fill-rule="evenodd"/></svg>