<svg xmlns="http://www.w3.org/2000/svg" width="64" height="64"><path d="M33.473 62.967c5.118-.24 9.992-1.714 14.463-4.371a32.478 32.478 0 0 0 4.061-2.903c.957-.807 2.3-2.108 3.077-2.98 3.187-3.576 5.452-7.663 6.75-12.177.604-2.106.961-4.176 1.138-6.601.05-.706.05-3.18 0-3.886-.18-2.472-.54-4.534-1.17-6.703a31.01 31.01 0 0 0-6.081-11.343 32.726 32.726 0 0 0-3.828-3.808C47.131 4.22 41.27 1.75 35.146 1.144 33.928 1.023 33.426 1 32.008 1s-1.918.023-3.138.144a30.875 30.875 0 0 0-14.525 5.361 31.826 31.826 0 0 0-6.135 5.612 31.26 31.26 0 0 0-5.27 9.06c-2.587 6.93-2.587 14.68.001 21.631a31.236 31.236 0 0 0 5.27 9.058 32.429 32.429 0 0 0 3.922 3.923 31.113 31.113 0 0 0 11.338 6.02 31.481 31.481 0 0 0 10.002 1.158zm-6.1-8.884v-3.154h2.644v3.886h3.377V57.236h-6.02v-3.153zm9.087-1.14l.008-4.005H40.8l.008 1.935.009 1.935-1.203.008-1.203.009-.008 2.062-.008 2.063h-1.943l.008-4.006zm-16.031.216v-1.752H24.156v3.504H20.429v-1.752zm23.408-3.488c.005-1.471.012-2.676.016-2.677.003-.001 1.199.004 2.657.01l2.652.014v.613c0 .336-.01.915-.02 1.286l-.022.674H47.22v.616c0 .34-.01.963-.021 1.386l-.021.77-1.675-.008-1.676-.008.01-2.676zm-30.13-.621v-.892h3.504V45.96H20.524v3.982h-6.817v-.892zm16.92-.05c-.006-.006 0-1.123.012-2.482l.024-2.473 2.332.023 2.332.023.02-.22c.012-.121.021-.812.022-1.534v-1.314h2.747l-.012.98-.012.979 1.176.028 1.176.028-.021.765c-.012.421-.021 1.129-.021 1.573v.807h-6.084v.998c0 .55-.01 1.194-.021 1.433l-.021.435-1.819-.02c-1-.01-1.824-.024-1.83-.03zm-7.3-1.59v-1.195h2.135v-3.982h2.548v6.371h-4.682v-1.195zm26.44-3.393v-1.274h1.561V40.99H54.1v4.3h-4.333v-1.274zM9.44 41.835v-2.66h1.88V41.564h3.662v2.931H9.44v-2.66zm8.41-.112v-1.56h2.548v-1.784h2.347l.02 1.104c.012.607.022 1.703.022 2.436v1.332l-.565.01c-.311.005-1.422.012-2.47.016l-1.903.007v-1.56zm24.05-.414v-1.147H43.97v-3.089H41.899v-2.804h7.04v2.93l-1.075.009-1.075.008-.008 2.62-.008 2.62h-4.874v-1.147zm-11.15-1.306v-1.37H33.522v2.74H30.75v-1.37zm-4.005-3.942l-.008-2.46h4.651v-5.288h4.651v2.74h2.548v6.943h-2.261v-1.975l-3.767.008-3.767.008-.009 1.251-.008 1.25-1.011-.008-1.011-.008-.008-2.46zm24.892 1.593a51.25 51.25 0 0 1-.02-1.56l-.001-1.06h2.548V33.25h2.39V38.123l-1.028.009c-.565.005-1.666.012-2.448.016l-1.42.008-.02-.502zm-39.163-1.8l.008-2.27h4.3l.008 2.27.009 2.27h-4.334l.009-2.27zM6.73 34.477v-1.8h3.568v3.6H6.73v-1.8zm12.423-.494v-2.23H20.907v1.72h3.249v2.74h-5.002v-2.23zm21.407-3.281v-1.625h3.218v3.249H40.56v-1.624zm-15.513-2.724v-3.456h4.173v3.344l-1.155.008-1.155.009-.008 1.776-.008 1.776h-1.847v-3.457zm27.332.637v-2.182h4.3v1.975h-1.943v1.174c0 .645-.01 1.182-.021 1.194-.012.012-.542.021-1.179.021H52.38v-2.182zm-42.432.51v-1.163H7.56v-3.185h5.288V30.288H9.948v-1.163zm36.968.892c-.63-.01-1.243-.026-1.361-.036l-.215-.018V26.71l-1.283.021c-.705.011-2.131.03-3.17.042l-1.887.02V22.325h2.867v1.688h4.62v-1.689l1.154.009 1.155.008.008 3.823c.005 2.102 0 3.842-.008 3.866-.014.035-.088.04-.375.024-.197-.01-.874-.027-1.505-.036zm-28.728-.547l-1.869-.02v-3.971l-.884-.009-.884-.008.013-3.034.013-3.034h-1.45c-.798 0-1.495-.01-1.55-.02l-.1-.02V18.17c.001-.65.013-1.2.027-1.224.022-.033.699-.035 3.668-.008 2.003.018 3.648.039 3.656.047.008.008.004.691-.01 1.518l-.023 1.504-.819-.022-.818-.022-.022 1.98c-.012 1.09-.018 1.986-.013 1.99.005.005 1.144.022 2.532.037 1.387.015 2.531.036 2.541.046.01.01.009 1.246-.004 2.747l-.022 2.727h-1.056c-.582 0-1.898-.01-2.926-.02zm13.55-5.649v-1.879h1.879v1.752h2.994v.982c0 .54-.01.992-.021 1.004-.012.011-1.108.02-2.437.02h-2.416v-1.879zm19.909-1.115V21.05H54.928V24.363H51.647v-1.657zm-30.454-2.66V18.12h2.772v3.855h-2.772v-1.927zm5.519-2.296l.008-3.714 2.525.004 2.524.005v-1.882h2.241c1.233 0 2.33.009 2.438.02l.196.02-.009 1.167-.008 1.166-1.012.008-1.011.009.008 1.425.008 1.425 1.012.008 1.011.009v2.834h-3.44V18.12h-3.059v1.65c0 .909-.01 1.661-.02 1.673-.012.012-.787.021-1.721.021h-1.7l.009-3.714zm13.913 1.007v-1.275h-1.943V15.093h5.32v4.938h-3.377v-1.274zm5.893-2.119v-2.66h3.058l.008 1.856.008 1.855 1.633.009 1.632.008v.775c0 .426-.01.784-.02.796-.013.012-1.439.021-3.17.021h-3.149v-2.66zm-28.988-3.6v-2.181h3.622l.02.215c.012.118.02.38.021.581 0 .202.01.57.021.82l.021.454H23.168v2.294H17.53v-2.182zm21.088-1.544v-1.56l-2.174-.009-2.174-.008-.009-.98-.008-.979H40.784V13.055h-2.166v-1.561zM25.43 9.965V8.501l.788-.009.789-.008V7.018l1.266-.008 1.266-.008v4.428H25.43V9.965z"/></svg>