<svg xmlns="http://www.w3.org/2000/svg" width="64" height="64"><path d="M28.513 62.806c-10.709-1.21-20.205-8.111-24.672-17.931C.087 36.62.052 27.617 3.742 19.29 9.004 7.418 21.68-.052 34.574 1.12c7.528.685 14.066 3.723 19.323 8.98 9.212 9.212 11.678 22.885 6.27 34.774-5.52 12.138-18.392 19.429-31.654 17.931zm5.14-5.99c4.316-.706 7.384-4.903 6.698-9.163-.712-4.417-4.944-7.499-9.265-6.746-3.421.596-6.054 3.265-6.67 6.764-.722 4.099 2.402 8.433 6.587 9.14 1.284.216 1.358.217 2.65.005zm17.55-16.529c2.19-.653 4.137-2.33 5.117-4.404.487-1.032.614-1.578.672-2.889.084-1.918-.177-3.025-1.063-4.514-2.763-4.639-8.82-5.411-12.622-1.61-1.447 1.448-2.229 3.167-2.344 5.157-.145 2.5.567 4.39 2.317 6.151 2.1 2.115 5.17 2.932 7.924 2.11zm-33.453-.413c2.785-.744 5.005-2.841 5.833-5.51.35-1.128.366-3.557.03-4.601-.802-2.495-2.855-4.63-5.184-5.39-4.293-1.4-8.96 1.025-10.313 5.358-.62 1.989-.41 4.13.603 6.114.52 1.02 2.304 2.81 3.311 3.323 1.79.914 3.947 1.18 5.72.706zm16.392-16.301c4.487-.951 7.365-5.691 6.083-10.016-.475-1.604-.954-2.41-2.091-3.526-4.363-4.278-11.48-2.53-13.388 3.29-.39 1.19-.428 3.373-.08 4.559.627 2.133 2.403 4.22 4.367 5.13 1.78.825 3.156.977 5.11.563z"/></svg>