<svg xmlns="http://www.w3.org/2000/svg" width="64" height="64"><path d="M27.237 62.737c-10.141-1.731-18.65-8.02-23.082-17.06C1.928 41.134 1 37.12 1 32.026c0-5.095.928-9.109 3.155-13.654 3.94-8.037 11.496-14.217 20.058-16.405C29.14.707 34.702.677 39.491 1.884c8.673 2.185 16.34 8.38 20.304 16.406C62.07 22.895 63 26.88 63 32.025c0 5.144-.93 9.13-3.205 13.734-4.454 9.017-13.082 15.333-23.22 16.995-2.047.336-7.326.326-9.338-.017zm26.57-18.447c-.114-.296-21.232-36.926-21.617-37.495-.205-.303-.404-.048-1.599 2.041-.75 1.313-5.696 9.889-10.992 19.057L9.971 44.564h21.97c18.813 0 21.955-.04 21.866-.274zm-35.091-4.954c.11-.295 13.264-22.949 13.3-22.905.019.022 2.985 5.159 6.593 11.414 3.607 6.255 6.597 11.438 6.645 11.519.047.08-5.92.145-13.259.145-7.754 0-13.317-.072-13.279-.173z"/></svg>