<svg xmlns="http://www.w3.org/2000/svg" width="64" height="64"><path d="M27.726 62.812c-5.666-.806-11.638-3.498-15.793-7.12C4.773 49.451.99 41.29 1 32.108c.006-5.19.876-9.078 3.022-13.515C9.278 7.73 19.966.986 31.905 1c5.188.006 9.075.876 13.51 3.023 9.328 4.515 15.64 13.011 17.29 23.277.343 2.126.398 6.702.107 8.794a31.503 31.503 0 0 1-14.148 22.133c-3.513 2.26-7.446 3.736-11.996 4.502-1.903.32-6.942.367-8.942.083zm5.618-4.92c.356-.148.897-.597 1.202-.996.456-.599.555-.922.56-1.834.006-.927-.085-1.228-.554-1.843-1.834-2.408-5.563-1.18-5.563 1.834 0 2.28 2.224 3.73 4.355 2.84zm-11.157-3.277c.93-.633 1.39-1.345 1.49-2.311.198-1.901-1.509-3.608-3.41-3.41-2.803.292-3.778 4.075-1.457 5.653.988.672 2.448.701 3.377.068zm22.89.05c2.565-1.564 1.696-5.512-1.273-5.782-1.18-.108-2.469.542-2.985 1.505-.515.962-.48 2.487.077 3.304.892 1.307 2.876 1.769 4.181.973zM13.98 46.168c1.825-1.36 1.686-4.154-.262-5.258-.933-.529-1.866-.551-2.924-.07-2.313 1.05-2.237 4.653.12 5.645.744.313 2.458.136 3.066-.317zm19.854-.213c2.177-1.623 1.261-5.188-1.436-5.592-1.146-.172-2.44.432-3.054 1.425-.583.943-.604 2.532-.044 3.282 1.164 1.56 3.117 1.94 4.534.885zm19.2.53c1.32-.5 2.194-2.127 1.921-3.582-.155-.828-1.05-1.904-1.862-2.24-.802-.332-2.347-.153-3.06.355-1.171.834-1.574 2.774-.854 4.116.655 1.222 2.492 1.865 3.854 1.35zm-29.294-6.18c.268-.197.69-.656.94-1.02.587-.855.529-2.513-.12-3.423-.84-1.18-2.764-1.586-4.128-.872-.806.422-1.553 1.749-1.548 2.75.01 2.331 3.014 3.918 4.856 2.564zm19.642.115c1.714-.864 2.231-3.192 1.027-4.624-.672-.798-1.432-1.16-2.434-1.16-1.084 0-2.074.509-2.647 1.36-.384.571-.447.87-.387 1.853.086 1.386.495 2.049 1.615 2.615 1.006.509 1.753.497 2.826-.044zm-32.664-5.639c1.402-.955 1.841-2.25 1.27-3.748-.93-2.437-4.27-2.716-5.536-.463-.55.98-.496 2.609.114 3.442.888 1.211 2.943 1.592 4.152.77zm46.042-.126c1.692-1.204 1.692-3.865.002-5.125-.647-.483-2.05-.648-2.957-.349-1.835.606-2.561 3.211-1.349 4.836.934 1.25 3.012 1.559 4.305.638zm-23.096-.069c2.017-1.36 1.866-4.346-.272-5.381-.458-.222-1.083-.403-1.39-.403-.306 0-.932.181-1.389.403-2.917 1.412-1.865 5.82 1.39 5.82.727 0 1.193-.124 1.661-.439zm-10.022-5.76c2.008-1.159 1.962-4.156-.082-5.35-.825-.482-2.212-.503-3.084-.046-1.754.918-2.07 3.632-.585 5.02 1.035.966 2.477 1.11 3.751.375zm20.15-.12c1.84-1.211 1.63-4.313-.355-5.255-2.175-1.032-4.534.386-4.534 2.726 0 1.284.557 2.168 1.752 2.782 1.05.54 2.058.458 3.137-.252zm-29.957-5.398c2.017-1.36 1.866-4.346-.272-5.381-1.022-.495-1.733-.504-2.769-.033-2.145.975-2.306 4.05-.282 5.414.896.604 2.427.604 3.323 0zm39.802-.076c.626-.456 1.402-1.893 1.402-2.597s-.776-2.14-1.402-2.597c-.818-.596-2.404-.636-3.34-.085-2.038 1.2-1.973 4.415.11 5.477.846.431 2.507.33 3.23-.198zm-19.816-.244c1.682-1.198 1.683-3.871.002-5.125-1.131-.843-3.243-.608-4.142.46-1.347 1.602-.908 3.991.904 4.916.876.446 2.426.327 3.236-.25zM22.34 14.862c1.702-1.269 1.711-3.926.019-5.132-.886-.63-2.236-.713-3.246-.198-2.228 1.137-2.246 4.283-.031 5.505.868.479 2.499.391 3.258-.175zm22.579.14c2.028-1.035 2.211-3.936.338-5.333-.779-.58-2.79-.58-3.568 0-1.848 1.377-1.721 4.164.24 5.275.95.538 2.009.559 2.99.058zm-11.11-3.251c1.251-.933 1.655-2.843.885-4.185-.422-.736-1.809-1.517-2.683-1.51-.834.006-2.154.65-2.54 1.238-1.074 1.641-.506 3.96 1.155 4.714.83.376 2.517.24 3.184-.257z"/></svg>