<svg xmlns="http://www.w3.org/2000/svg" width="64pt" height="64pt" viewBox="0 0 64 64"><path d="M26.484 63.645c-5.308-.965-10.472-3.32-14.55-6.641-2.024-1.645-4.891-4.711-6.317-6.758-2.281-3.266-4.16-7.648-5.031-11.715-.68-3.16-.785-8.496-.23-11.738 1.21-7.105 4.363-12.973 9.73-18.102 4.262-4.074 9.527-6.847 15.402-8.105 3.16-.68 8.492-.785 11.735-.23 7.097 1.21 12.968 4.367 18.086 9.718 4.113 4.305 6.804 9.414 8.125 15.414.652 2.98.761 8.59.222 11.746-1.215 7.11-4.367 12.973-9.734 18.102-4.258 4.074-9.516 6.84-15.399 8.11-3.011.648-9.027.745-12.039.199zM56.133 41.37c2.746-6.02 2.48-14.48-.656-20.738-4.164-8.317-12.47-14.145-21.047-14.774-7.325-.535-13.754 1.47-19.176 5.985-2.39 1.988-5.012 5.8-6.223 9.05-1.945 5.215-1.11 10.18 2.281 13.532 1.536 1.523 2.883 2.375 4.934 3.125 1.149.418 1.66.476 4.219.48 3.238.008 3.996-.164 6.508-1.468 1.695-.88 3.324-2.36 5.23-4.75 2.027-2.547 3.836-3.848 6.727-4.84.883-.305 1.672-.38 3.914-.375 2.441.004 2.98.066 4.117.48 5.48 1.988 8.715 6.73 8.36 12.262-.094 1.46-.536 3.64-1.036 5.12-.27.794 1.184-1.636 1.848-3.089zm0 0"/></svg>