<svg xmlns="http://www.w3.org/2000/svg" width="64" height="64"><path d="M34.471 4.597a27.983 27.983 0 0 0-2.402-.107v9.157c.54 0 1.075.026 1.604.072l.798-9.122zm5.299 1.009a27.737 27.737 0 0 0-2.336-.574l-1.786 8.981c.53.106 1.05.236 1.56.384l2.562-8.791zm5 2.022a27.955 27.955 0 0 0-2.18-1.017l-3.504 8.46c.5.207.985.435 1.456.68l4.228-8.123zm4.509 2.96a27.813 27.813 0 0 0-1.939-1.423l-5.087 7.613c.45.301.88.62 1.294.952l5.732-7.142zm3.845 3.783a27.846 27.846 0 0 0-1.623-1.775l-6.475 6.475c.382.383.742.78 1.084 1.186l7.014-5.886zm3.034 4.46a28.006 28.006 0 0 0-1.246-2.058l-7.614 5.088c.3.45.576.909.832 1.374l8.028-4.404zm2.105 4.966a28.02 28.02 0 0 0-.821-2.261l-8.46 3.504c.206.5.388 1.004.548 1.51l8.733-2.753zm1.096 5.28a27.733 27.733 0 0 0-.365-2.377l-8.98 1.787c.104.53.184 1.06.242 1.588l9.103-.997zm.044 5.394c.069-.792.106-1.592.107-2.402h-9.158c0 .54-.025 1.075-.071 1.604l9.122.798zm-1.009 5.3c.222-.765.415-1.543.573-2.337l-8.98-1.786c-.106.53-.236 1.05-.384 1.56l8.791 2.562zm-2.023 4.999c.367-.706.708-1.431 1.018-2.179l-8.46-3.504c-.207.5-.435.984-.68 1.455l8.122 4.228zm-2.96 4.51c.498-.621.974-1.266 1.424-1.94l-7.614-5.087c-.3.45-.619.88-.95 1.295l7.14 5.731zm-3.782 3.844a27.819 27.819 0 0 0 1.774-1.623l-6.474-6.475c-.383.382-.78.742-1.186 1.084l5.886 7.014zm-4.46 3.034a28.05 28.05 0 0 0 2.057-1.246l-5.087-7.614c-.45.3-.909.576-1.374.832l4.404 8.028zm-4.966 2.105c.758-.24 1.513-.512 2.26-.821l-3.503-8.46c-.5.206-1.004.388-1.51.548l2.753 8.733zm-5.281 1.096c.79-.087 1.583-.207 2.377-.365l-1.786-8.98c-.53.104-1.06.184-1.588.242l.997 9.103zm-5.393.044c.792.069 1.592.106 2.402.107v-9.157c-.54 0-1.076-.026-1.605-.072l-.797 9.122zm-5.3-1.009a27.72 27.72 0 0 0 2.337.574l1.786-8.981c-.53-.106-1.05-.236-1.56-.384l-2.562 8.791zm-5-2.022c.706.366 1.432.707 2.18 1.017l3.504-8.46c-.5-.207-.984-.435-1.455-.68l-4.228 8.123zm-4.508-2.96c.62.497 1.265.973 1.938 1.423l5.088-7.613c-.45-.301-.88-.62-1.295-.952l-5.731 7.142zm-3.846-3.783c.512.61 1.052 1.202 1.624 1.775l6.475-6.475a18.736 18.736 0 0 1-1.084-1.186l-7.015 5.886zm-3.033-4.46c.383.697.797 1.384 1.246 2.058l7.614-5.088c-.3-.45-.576-.909-.832-1.374l-8.028 4.404zm-2.105-4.966c.24.759.512 1.513.821 2.261l8.46-3.504c-.207-.5-.388-1.004-.548-1.51l-8.733 2.753zm-1.096-5.28c.087.79.207 1.582.365 2.377l8.98-1.787c-.105-.53-.184-1.06-.242-1.588l-9.103.997zm-.044-5.394c-.07.792-.106 1.592-.107 2.402h9.157c0-.54.026-1.075.072-1.604l-9.122-.798zm1.009-5.3a27.703 27.703 0 0 0-.574 2.337l8.981 1.786c.106-.53.235-1.05.384-1.56L5.606 24.23zm2.022-4.999a27.968 27.968 0 0 0-1.017 2.179l8.46 3.504c.207-.5.435-.984.68-1.455L7.628 19.23zm2.96-4.509c-.497.62-.973 1.265-1.423 1.938l7.613 5.088c.301-.45.62-.88.952-1.295l-7.142-5.731zm3.783-3.845a27.82 27.82 0 0 0-1.775 1.623l6.475 6.475c.383-.382.78-.742 1.186-1.084l-5.886-7.014zm4.46-3.034c-.698.383-1.384.797-2.058 1.246l5.088 7.614c.45-.3.909-.576 1.374-.832L18.83 7.842zm4.966-2.105c-.759.24-1.513.512-2.261.821l3.504 8.46c.5-.206 1.004-.388 1.51-.548l-2.753-8.733zm5.28-1.096c-.79.087-1.582.207-2.377.365l1.787 8.98a18.67 18.67 0 0 1 1.588-.242l-.997-9.103zM32 63c17.118 0 31-13.882 31-31C63 14.882 49.118 1 32 1 14.882 1 1 14.882 1 32c0 17.118 13.882 31 31 31" fill="#231f20" fill-rule="evenodd"/></svg>