<svg xmlns="http://www.w3.org/2000/svg" width="64" height="64"><path d="M23.655 9.328l.173-.104c.755-.453.415-.731 1.17-1.185l.518-.311c1.022-.613 2.857-.883 3.154.144.154.534-1.008.497-1.33.934-.493.666-.409 2.417-1.117 2.841-1.077.647-2.508-.184-3.857.626-.771.463-1.125 1.653-.704 2.353.546.91 2.127 1.585 2.142 1.61.271.452.362.97-.01 1.223-.73.498-1.26 1.248-1.904 1.856-.05.046-.116.07-.174.104-1.434.861-1.419-.487-2.802-.697-1.023-.156-2.034-.308-2.758-1.515l-.426-.71c-.747-1.244.264-4.259 1.302-4.882.864-.52 1.73-1.038 2.593-1.557 1.194-.717 2.438.226 4.03-.73zm-5.288 15.48c-.845.507-2.107-.666-3.272.034l-.172.103c-.846.508-.254 2.806-1.595 3.611l-.519.312c-.579.347-1.683-.667-2.234-.59-.802.114-1.313.978-2.075 1.246-.39.137-.923.029-1.223-.472-.526-.876-.444-2.074.145-2.5 3.391-2.457-.347-4.86 2.604-6.63l.691-.415c.579-.348 1.851.17 2.235.589.699.76.845 1.953 1.597 2.66.327.307.517.173.905-.06l.173-.104c.42-.252.333-.923 1.409-1.57.405-.242.868-.12 1.117.295l.64 1.064c.415.692.298 1.992-.253 2.323l-.173.104zm19.44-13.84c-.985-1.642-3.27-.748-4.63-3.013l-.212-.354c-.246-.409-.2-.605.199-.844.433-.26 1.645.382 2.072.651.974.618.91.267 2.054.096 2.015-.301 2.048 1.312 3.124 3.105l.213.355c.748 1.246 2.32.331 3.724-.064.545-.154 1.247.51 1.65 1.181l.32.532c.634 1.059 1.105 3.921.121 4.512l-.519.312c-.227.136-3.38.516-3.832.52-1.358.012-2.298-.548-3.218-2.08-.494-.823-.16-3.4-1.066-4.91zm-17.179 13.69c-.198-.33-.21-1.322.226-1.584l.345-.207c1.05-.63 2.019.236 2.714-.181l.346-.208c1.778-1.067-.318-3.67 1.235-4.602.784-.47 1.714-.278 2.234.59.26.432-.116.98.547 2.084l.106.177c.67 1.116 2.183.896 2.914 2.112.61 1.017-.097 3.436-1.103 4.04l-.345.208c-.704.422-2.99-.673-3.499-1.52-.329-.548.166-.9-.227-1.553-.149-.248-.448-.213-.731-.044-.53.319-.56 1.784-1.09 2.103l-.173.103c-1.025.616-2.556.051-3.18-.987l-.319-.532zm12.713-5.46c-1.057-1.762-3.099-1.246-4.07-2.865l-.64-1.064c-.198-.331.061-1.618 0-2.24-.152-1.514-.915-.914.16-2.198.393-.468 1.078-.624 1.681-.72.836-.132 2.383.698 3.027 1.52.408.523.78 1.392 1.17 1.954.673.966 1.034.532 1.373 1.097l.852 1.42c.43.716.369 1.467-.292 1.864-.473.284-.777-.017-1.25.267-.286.172-.396.877-.266 1.125 1.066 2.045 1.99 5.562.215 6.627-.057.034-.115.07-.173.103-.404.243-.868.121-1.117-.294l-.106-.177c-1.092-1.82.777-4.19-.455-6.242l-.106-.177zM22.734 35.216c-2.738 1.644-3.463-3.197-5.614-3.87-2.286-.713-5.913 3.977-6.943 1.756-.395-.852.746-1.412 1.476-1.851l.173-.103c1.849-1.11 2.4.489 5-1.072.512-.308 1.016-1.334 2.101-1.985l.692-.415c.578-.347 2.026.16 2.539.556.267.207 2.017 2.334 2.09 2.456l.213.355c.561.935-.7 1.215-.688 2.208.011.89-.02 1.354-1.04 1.965zm-7.776 14.078c-.638-1.064-2.372-.426-3.259-1.905-.603-1.005-2.319-1.983-1.81-3.015.72-1.457 1.09 1.4 3.392 1.342.406-.01.634-.587 1.037-.622.289-.026.698.379.878.68.628 1.045.336 2.372.585 2.785.035.06.008.157.041.216.456.76 1.385 1.1 2.062.692.483-.289.936-1.526 1.649-1.954l.173-.104c.54-.325 1.623.354 1.888.797.606 1.009.08 1.34 1.083 2.973.687 1.118.916 1.86-.15 2.499l-.172.103c-1.511.907-2.48-.719-3.753-1.071-1.532-.424-2.3-.393-3.458-2.322-.093-.156.065-.677-.186-1.094zm2.273-5.225c-.886.532-2.568-1.289-4.269-1.399-1.55-.1-3.268.595-4.324-1.164l-.746-1.241c-.519-.865-.685-2.274.359-2.146 1.019.125 2.309 2.475 3.26 1.904l.518-.311c1.588-.954-1.558-3.167.437-4.365.539-.323.95.02 1.683-.169.767-.197.717-.547 1.575-1.062.556-.333 3.075 1.597 3.366 2.081l.106.178c.407.677-.389 2.887-.903 3.196l-.346.207c-1.13.68-1.475-.32-2.606.359-.21.126-.299.678-.093 1.021.484.806 1.557.634 2.142 1.609l.213.355c.245.409.199.604-.2.843l-.172.104zm29.571-22.817c.536.892.187 1.486.44 1.908l.32.532c.565.941 1.403.771 1.968 1.713l.426.71c.439.73.22 2.28-.318 2.603-.57.343-1.407-.716-1.95-1.21-1.015-.924-.349-1.444-.698-2.026l-.32-.532c-.344-.574-1.389-.613-2.02-.234-.737.442-.98 2.276-2.022 2.901l-.346.208c-1.061.637-2.68.236-3.351-.883-.52-.865-.268-4.182.503-4.646l.346-.207c.84-.504 1.731-.074 2.327-.432.729-.437.614-.85 1.516-1.392.752-.452 2.678.15 3.18.987zM29.875 32.618c-.701.422-2.71.159-3.139-.528-.285-.456.45-1.061.28-1.57-.317-.946-1.367-1.638-.6-2.098 1.337-.803 2.733 2.702 4.855 1.428.345-.207.552-.169.812-.477.087-.102.102-.573.189-.675.26-.31.514-.24.86-.447.531-.32 1.004.105 1.33.649.35.583-.057 1.08.44 1.908.847 1.41 2.596 1.19 3.3 2.362l.32.533c.661 1.102-.655 3.287-2.008 4.1-.172.103-.5.322-.71.266-.858-.227-2.707-.082-3.693-1.725-.649-1.082.346-2.95-.467-4.304-.562-.936-1.055.15-1.769.578zm2.54 6.921c-2.564 2.22-5.156-1.73-6.302-1.043l-.691.415c-1.648.989 1.591 4.595-.662 5.948l-.52.311c-1.262.758-3.364-.513-4.163-1.844l-.213-.355c-.48-.798-.738-1.97-.028-2.396l.346-.208c.793-.476 1.3-.056 2.394-.713l.518-.311c.81-.487.343-2.618 1.701-3.434l.347-.208c1.191-.715 2.257.181 3.221.808.619.403 4.628 2.532 4.052 3.03zm24.765-8.833c-.028.478-.806.484-1.21.727-.991.594-3.002-.693-3.711-1.874l-.426-.71c-1.246-2.076.861-4.442.25-5.459l-.212-.355c-1.254-2.088-2.022-1.895-1.469-4.12.416-1.674-1.443-3.542-.436-4.146.37-.222 1.555 1.024 1.862 1.536l.426.71c.519.863.089 1.323.227 1.552.35.584.979.457 1.477 1.286.628 1.046-.49 2.708.254 3.948.586.977 1.475 1.282 2.01 2.173.934 1.557 1.026 3.595.958 4.732zm-12.432 8.67c.418.695-.323 1.4-1.024 1.82-.53.318-2.676-.616-3.311-.425-.903.272-1.52 1.177-2.42 1.453-.616.188-1.244-.112-1.717-.9-.07-.119-.142-.237-.213-.355-.287-.48-.425-.524-.36-.99.038-.271.461-.277.692-.416 1.48-.889 3.082 1.046 4.562.157 1.636-.981 1.243-1.968.755-3.534-.188-.604-1.619-3.472-1.888-4.23-.146-.41.027-1.223.505-1.51l.518-.311c.913-.548 3.24-.478 3.765.395l.851 1.418c1.048 1.746-.888 4.317-1.673 5.83-.28.541.638 1.065.958 1.597zm1.212-9.654c-.187-.448.125-.56.513-.792.794-.477 1.538 2.13 2.97 2.5.807.209 2.852.149 3.335.953l.107.178c.925 1.542-.606 3.3-.091 4.156.07.119.142.237.213.355.65 1.084 1.159 1.148 1.73 2.099.653 1.09-.064 2.933-1.316 3.685l-.345.207c-1.472.884-4.865-.66-5.947-2.463-1.263-2.104 3.263-4.25 1.953-6.242-1.022-1.557-2.403-2.918-3.122-4.636zM25.692 50.331c-.58-.802-1.863-1.145-2.568-2.32-.177-.295-.793-.675-.532-.886 1.627-1.32 1.27.97 3.138.532 1.876-.44 1.514.558 2.463 2.138l.213.355c.461.77 3.616.933 4.696 2.73.141.237.284.474.426.71.588.982.067 2.373-.837 2.916-1.484.89-4.716.761-5.4-.379a375.48 375.48 0 0 1-.32-.532c-.567-.945-.384-4.028-1.279-5.264zm7.594-2.628c-2.147.586-3.668.94-4.922-1.148l-.212-.354c-.687-1.144-.95-2.54-.28-3.21.713-.716 1.716-1.218 2.725-1.325 2.364-.25 4.068 1.282 5.8 4.17.417.693-1.125 2.432-.303 3.801l.425.71c1.562 2.601 5.703 2.842 6.24 3.735.094.158.02.47-.134.562-1.497.898-6.57-.37-7.116-1.278l-.32-.532c-.234-.391.047-2.274-1.091-4.17l-.107-.178c-.288-.479-.257-.905-.705-.783zm17.582-2.832c.477-.286 1.396-.417 1.743.16l.106.178c.248.413.07 1.163-.332 1.406-.057.034-.113.072-.173.103-.96.49-2.17.648-2.885 1.457-.854.967-.382 2.676-1.342 3.252l-1.21.727c-.617.37-1.346-.282-1.717-.9-.288-.48-.008-.67-.36-.991-.918-.843-1.545-.04-2.808-.044-.733-.002-2-.525-2.393-1.177l-.745-1.242c-.7-1.167-.162-3.28 1.276-4.144l.691-.415c1.218-.73 3.78.03 4.47 1.178.634 1.057.584 1.915 1.511 2.393.436.224 1.92.132 2.24-.06l.865-.52c.373-.223.453-.995 1.063-1.361zm-2.916 13.705c-14.675 8.81-33.72 4.052-42.528-10.624-8.81-14.675-4.052-33.72 10.624-42.528 14.675-8.81 33.72-4.052 42.528 10.624 8.81 14.675 4.052 33.72-10.624 42.528" fill-rule="evenodd"/></svg>