<svg xmlns="http://www.w3.org/2000/svg" width="64pt" height="64pt" viewBox="0 0 64 64"><path d="M27.008 63.719c-6.813-1.145-12.547-4.063-17.45-8.883C3.25 48.633 0 40.87 0 32.012c0-8.86 3.25-16.621 9.559-22.82C15.766 3.085 23.3 0 32 0c8.7 0 16.234 3.086 22.441 9.191C60.75 15.391 64 23.152 64 32.011c0 8.704-3.086 16.243-9.188 22.454-4.949 5.039-10.91 8.117-17.914 9.254-2.316.375-7.656.375-9.89 0zm4.902-6.625l.86-.594 3.328-.02c3.738-.02 5.23-.19 5.23-.597 0-.149-.383-.375-.851-.5-.47-.125-1.008-.367-1.204-.54-.28-.25-.648-.284-1.914-.179-1.226.102-1.652.066-1.957-.164-.355-.266-.175-.297 1.813-.316 1.215-.008 2.887-.09 3.715-.176 1.27-.133 1.617-.102 2.246.215 1.406.699 2.508.343 1.847-.598-.336-.48-.246-.523 1.473-.742 1.195-.153 1.457-.375.836-.707-.445-.239-1.215-.203-3.895.18-2.265.324-9.464.831-11.765.831-1.418 0-1.992.075-2.164.282-.313.379-.149.449 1.39.613 1.707.18 2.098.297 1.844.55-.187.188-1.273.31-6.863.763-1.266.101-2.512.246-2.766.32-1.148.332.352 1.035 2.633 1.23.758.063 1.703.29 2.11.5 1.117.582 2.933.426 4.054-.351zm4.344.437c.234-.234-.375-.523-1.106-.527-.746-.004-1.441.3-1.441.629 0 .246 2.293.148 2.547-.102zM25.25 54.664c.809-.086 1.234-.219 1.234-.39 0-.157.301-.286.75-.32.508-.044.754-.161.754-.364 0-.258-.597-.305-4.113-.313-2.488-.007-4.273-.093-4.516-.222-.218-.117-.859-.266-1.418-.328-.562-.063-1.347-.274-1.753-.465-.403-.192-.786-.301-.844-.242-.258.257.21.746 1.543 1.609 1.422.922 1.441.926 3.238.945.996.012 1.855.067 1.91.121.14.137 1.746.121 3.215-.03zm1.031-2.703c2.817.129 11.051.105 12.04-.035 1.53-.223 1.745-.38 1.437-1.051l-.242-.54-3.758.056c-5.38.078-7.004.004-7.281-.328-.34-.41.308-.614.914-.29.613.329 1.742.118 2.226-.421.371-.407.367-.422-.02-.72-.331-.25-.757-.273-2.507-.136-2.281.18-4.777.16-10.195-.074-3.172-.14-3.504-.121-3.793.2-.211.23-.614.35-1.192.35-.906 0-1.078.18-.57.602.215.176 1.808.274 5.668.336 2.953.05 5.445.168 5.543.262.375.371-.164.61-1.442.625-1.632.027-2.343.207-2.343.594 0 .52 1.273.808 2.906.656.828-.074 2.004-.113 2.61-.086zm22.203-.594c1.059-.402.989-1.047-.144-1.293-1.254-.277-.227-1.015 1.144-.828.5.07 1.09.02 1.38-.113l.507-.23-.644-.669c-.762-.785-1.293-.836-2.82-.277-.81.297-1.848.418-4.372.52-3.222.128-4.414 0-4.414-.489 0-.332.813-.472 3.395-.601 1.53-.075 2.523-.207 2.566-.34.156-.473-.66-1.11-1.73-1.348-.598-.133-1.122-.344-1.16-.465-.126-.375 1.468-.558 5.257-.605 4.258-.05 6.926-.242 7.274-.524a.729.729 0 0 0 .25-.496c0-.254-.422-.277-2.86-.183-10.203.406-14.836.66-15.258.832-.199.082-.332.297-.296.472.054.282.343.317 2.074.258 1.66-.062 2.054-.02 2.277.25.223.27.223.375-.004.653-.242.289-.691.312-3.746.222-1.91-.058-4.445-.031-5.633.055-2.976.223-4.406.027-5.343-.719-1.32-1.058-1.692-1.234-1.895-.91-.105.168-.102.484.004.766.281.746.223 1.027-.316 1.496-.754.656-.329 1.039.992.89 1.433-.164 8.054-.14 10.441.032 1.586.113 2.008.207 2.008.445 0 .234-.3.312-1.305.355-1.765.067-2.328.207-2.039.497.153.152 1.914.257 5.356.316 4.593.082 5.12.125 5.062.414-.054.266-.297.316-1.312.27-1.121-.055-1.25-.02-1.25.332 0 .543.941.824 2.789.843.84.008 1.707.09 1.93.184.558.242 1.18.238 1.835-.012zm-26.68-4.32c.204-.54-.906-1.309-1.69-1.176-.512.086-.653.04-.653-.21 0-.177-.23-.532-.512-.794-.445-.41-.652-.46-1.652-.375-1.067.09-3.535-.222-6.004-.762-.574-.125-1.188-.171-1.36-.105-.5.191-.597.723-.187 1.02.3.218.324.324.121.57-.207.25-.144.39.375.824.707.598.934.633 1.48.219.548-.414.915-.371 1.508.18.829.769 1.528.898 5.082.914 2.91.011 3.383-.028 3.493-.305zm31.532-.203c.285-.2.434-.48.394-.75-.054-.371-.21-.442-1.109-.492-1.707-.102-2.465.62-1.309 1.25.723.39 1.458.39 2.024-.008zm-5.05-.395c.171-.445-.337-.883-1.173-1.02-.855-.136-1.187.36-.64.962.425.468 1.64.507 1.812.058zM32.8 44.547c.222-.098.765-.207 1.207-.234.656-.047.812-.137.863-.508.074-.516.258-.485-2.809-.453-1.82.02-2.203-.032-2.507-.34-.34-.34-.871-.36-8.438-.29-7.344.063-8.933.176-7.726.551.195.059.52.2.722.309.235.125 1.137.145 2.407.05a53.25 53.25 0 0 1 7.937.024c1.676.14 1.957.223 2.508.727l.62.566 2.407-.11c1.324-.062 2.59-.194 2.809-.292zM8.91 42.426c.374-.14.417-.7.077-1.04-.363-.363-1.367-.308-1.367.071 0 .84.55 1.254 1.29.969zm43.343-.524c.422-.304.84-.414 1.457-.382.477.023.957-.008 1.066-.079.414-.257-.254-.906-1.664-1.613-1.36-.683-1.601-.738-3.949-.86-2.457-.128-2.504-.14-2.617-.632-.102-.445-.234-.508-1.113-.55a17.786 17.786 0 0 1-2.157-.282c-.918-.184-1.328-.176-1.96.031-.442.145-.77.363-.731.48.039.122.758.266 1.598.32.836.056 1.582.161 1.656.235.07.07-.305.344-.84.598-.875.422-1.328.477-4.68.57-3.664.102-3.71.11-3.777.555-.04.293.062.496.3.582.204.07.61.352.907.625.582.54.543.54 3.121-.035l1.453-.324.793.5c.742.464 1.051.511 4.668.683 4.637.219 5.68.153 6.469-.422zm-33.566.012c.343-.129 2.453-.148 5.921-.059 8.871.235 7.98.27 8.059-.308.039-.277.246-.692.46-.926.349-.375.356-.445.079-.68-.242-.199-1.168-.234-4.043-.156-2.176.059-4.035.02-4.46-.094-.403-.109-2.282-.21-4.18-.226-3.184-.024-3.477-.059-3.743-.422-.265-.36-.558-.395-3.57-.422-1.805-.016-3.691-.094-4.191-.176-.754-.117-.997-.074-1.407.262-.64.523-.418.715 1.16 1.016.95.18 1.434.18 2.028.004.586-.176.883-.176 1.207-.004.64.343.527.574-.422.843-1.074.305-1.348.536-.953.786.164.101.465.191.672.191.203 0 .597.184.883.406.476.38.707.399 3.242.285 1.5-.066 2.965-.21 3.258-.32zm5.87-3.3c.407-.153.407-.563 0-1.18-.507-.778-.203-.977 1.301-.836 1.106.105 1.387.207 1.692.629.203.277.46.503.574.503.113 0 .367.208.563.454.347.445.414.453 5.144.445 2.633 0 4.906-.078 5.05-.168.427-.266-.116-.73-.862-.73-.36 0-.754-.122-.88-.27-.613-.738 8.294-.863 12.145-.168 3.281.59 5.512.586 6.7-.012.71-.36.91-.574.96-1.043.094-.824-.39-1.113-1.86-1.12-.773 0-1.534-.15-2.089-.4-.726-.331-1.312-.398-3.45-.398-1.464 0-2.628.086-2.694.196-.07.109-.02.394.109.632.262.493.602.497-3.824-.039-1.149-.14-2.922-.18-4.461-.101-2.254.113-2.621.086-3.102-.23-.504-.329-1.383-.364-11.367-.423-5.953-.035-11.035-.011-11.297.055-.555.14-.62.61-.12.89.331.188.331.204-.02.34-.2.079-1.247.094-2.32.036-3.083-.172-4.56.265-4.06 1.203.368.687 1.278.914 3.09.777 2.895-.222 4.297-.422 4.586-.656.153-.129 1.43-.293 2.836-.375l2.559-.145v.532c0 .613.59.922 1.773.922.41 0 .926.129 1.149.285.222.152.672.32 1 .37.324.048.652.099.726.118.075.016.278-.027.45-.094zm19.126-4.575c.77-.285 3.015-.863 4.25-1.098.379-.07.722-.242.77-.379.1-.308.905-.269-6.774-.332-8.114-.066-14.196.145-15.547.54-1.035.296-1.422.824-.766 1.027.2.058 3.617.082 7.59.05 5.43-.046 7.402 0 7.926.192.937.336 1.64.336 2.55 0zm-31.114-.621c.848-.355 4.442-.406 7.086-.105.934.109 1.758.132 1.832.05.075-.082.196-.422.266-.761l.129-.618-2.164-.285c-2.32-.304-3.653-.328-8.985-.156-3.379.105-4.629.34-4.464.82.093.274 1.113.293 2.52.047l.866-.152-.273 1.46h1.234c.676 0 1.555-.136 1.953-.3zm12.207-.703c0-.59-.496-.899-1.172-.73-.703.175-.757 1.062-.082 1.312.649.242 1.254-.04 1.254-.582zm32.153.676c.312-.082.449-.274.449-.614 0-.812-.379-1.277-1.469-1.785-1.676-.777-2.508-.605-2.367.496.07.559-.254.817-1.043.82-.71.005-.672.575.066.95.516.262 3.543.351 4.364.133zm-20.356-2.387c.586-.086 1.176-.047 1.516.094.62.257 1.2.093 2.031-.567.621-.492.52-.601-.746-.8-.555-.09-1.258-.36-1.566-.602-.461-.363-.782-.434-1.832-.395-.95.036-1.352-.035-1.594-.273-.692-.691-.168-.809 3.41-.766 3.355.043 7.41-.191 7.664-.445.18-.184-.09-.559-.402-.559-.149 0-.317-.18-.371-.398-.133-.496-.852-.527-2.485-.102-1.465.383-2.254.383-2.676 0-.273-.25-.574-.27-1.62-.125-.989.137-1.493.11-2.176-.117-.743-.25-1.192-.262-2.711-.074-1.567.2-3.426.258-6.582.21-.938-.015-1.747.364-1.332.626.152.098.539.18.855.18.32 0 .695.16.836.355.2.27.648.375 1.93.45 1.367.081 1.68.163 1.734.445.105.554-.695.62-4.422.363-3.492-.242-6.98-.082-7.398.336-.117.12-.075.469.12.93.266.64.395.738.981.738.371 0 1.024.12 1.453.27.528.183 1.903.28 4.266.296 1.918.012 3.54.074 3.598.133.144.14 6.25-.023 7.52-.203zm10.676-.192c.55-.05 1.633-.007 2.406.094 1.121.145 1.461.125 1.692-.101.226-.227.238-.387.054-.793-.129-.282-.336-.508-.457-.508-.125 0-.488-.281-.812-.629-.563-.602-.617-.617-1.434-.402-.465.12-2.156.261-3.758.312-1.601.05-2.933.098-2.96.106-.211.047.078.507.804 1.28l.852.911 1.304-.094c.72-.05 1.754-.129 2.309-.175zm-33.754-.828c1.399-.113 1.598-.183 1.95-.68.214-.3.335-.605.265-.675-.168-.168-4.457-.164-5.84.004-1.047.125-1.066.137-1.004.75.047.504.172.644.66.754.332.074 1.008.097 1.508.054.496-.043 1.602-.132 2.461-.207zm-6.094-.355c.293-.356.09-.879-.398-1.035-.484-.153-.785.031-.785.48 0 .715.754 1.07 1.183.555zm49.641-.563c.242-.128.34-.37.3-.726-.054-.457-.195-.559-.964-.715-.5-.102-1.531-.191-2.3-.207l-1.395-.023-.032.804c-.015.442.059.86.164.93.313.2 3.825.148 4.227-.063zm-34.875-1.921c.613-.118.805-.25.805-.551a.467.467 0 0 0-.403-.469 1.717 1.717 0 0 1-.703-.344c-.207-.183-1.273-.312-3.363-.41-1.68-.078-3.055-.215-3.055-.3 0-.368.953-.786 1.797-.79 1.238-.004 1.55-.222 1.305-.918-.176-.492-.363-.582-1.899-.894-1.379-.282-2.03-.313-3.41-.16-.941.101-1.922.273-2.183.382-.457.196-.461.22-.121.594.19.215.68.442 1.078.504 1.414.227 1.625.305 1.625.602 0 .16-.02.304-.051.316-.027.012-1.18.086-2.563.16-1.382.078-2.632.215-2.777.305-.543.336.188.566 2.285.719 1.606.117 2.227.242 2.477.496.308.32.168.336-2.38.226-1.491-.066-3.07-.039-3.51.059-.599.129-.677.183-.302.21.278.02.817.153 1.203.298.543.207 2.141.25 7.024.195 3.476-.04 6.68-.14 7.121-.23zm28.46-.547c.349-.16 1.165-.317 1.817-.348.875-.043 1.239-.152 1.403-.414.172-.277.156-.402-.07-.543-.473-.293-2.516-.434-5.305-.367-2.203.05-2.618.113-2.809.414-.305.488.047.992.902 1.293.97.34 3.301.32 4.063-.035zm-6.663-1.989c.262-.578.855-.648 7.144-.847 3.29-.102 4.317-.2 4.496-.418.333-.399.024-.63-1.14-.848-.914-.172-2.93.02-5.23.496-.88.18-1.079-.39-.387-1.11 1.105-1.155.539-1.327-3.29-1.003-1.738.144-3.265.18-3.734.082-1.133-.238-8.922-.156-9.597.102-.309.117-.524.328-.477.464.129.391 1.527.516 5.969.547 4.238.028 5.691.156 5.652.504-.012.11-.266.23-.562.27-.664.082-1.426.562-1.704 1.078-.296.558.094.926 1.094 1.015.461.043.996.09 1.192.11.203.023.449-.172.574-.442zm-13.61-.125c1.141-.109 2.352-.359 2.875-.59.625-.277 1.286-.39 2.145-.37 1.395.035 2.203-.165 2.086-.512-.133-.399-2.133-.52-5.059-.309-1.547.113-2.898.211-3.011.215-.11.008-1.555-.05-3.211-.125-4.461-.203-5.446.09-4.602 1.379l.336.515 3.238-.007c1.782 0 4.121-.09 5.203-.196zm-6.582-3.047c.442.004 1.887.051 3.211.098 2.84.102 3.309.035 3.309-.484 0-.344-.188-.383-2.055-.422a67.84 67.84 0 0 0-3.515.02l-1.457.062-.211-.602c-.176-.507-.344-.62-1.09-.73-1.172-.176-2.516.191-2.656.726-.094.356-.204.387-.832.254-.832-.18-1.668-.172-5.52.051-1.746.102-2.82.246-2.867.387-.117.348.95.476 4.129.492 1.613.008 3.113.098 3.336.2.226.105 1.488.132 2.91.062 1.379-.067 2.867-.121 3.308-.113zm30.247-.601c.328-.129.55-.363.55-.586 0-.86-2.593-.742-3.375.148-.308.352-.39.579-.242.668.3.188 2.383.028 3.067-.23zm-8.696-1.422c1.23-.633.883-1.715-.433-1.336-.344.098-.965.125-1.383.059-1.016-.164-2.18.07-2.18.437 0 .16.184.473.402.692.325.324.668.402 1.758.398.742 0 1.57-.113 1.836-.25zm-5.52-.348c.329-.328-.296-.804-1.058-.804-1.305 0-2.203-.367-2.547-1.032l-.316-.613-1.84.164a39.024 39.024 0 0 1-5.152.114c-.387-.02-3.559-.036-7.047-.036-5.551-.004-6.375.036-6.61.313-.21.258-.492.293-1.414.183a5.495 5.495 0 0 0-2.246.184c-1.222.36-1.613.688-1.34 1.133.153.246 1.204.3 6.559.332 3.508.02 8.184.121 10.39.23 4.505.215 12.344.11 12.622-.168zm11.239-1.125c.422-.164.406-.746-.031-1.12-.325-.278-1.489-.856-3.563-1.77-1.558-.688-3.035-.989-5.418-1.114-2.93-.152-3.812-.328-4.406-.886-.379-.356-.68-.426-1.738-.399-.703.016-1.867-.109-2.582-.28-1.157-.278-2.47-.427-7.676-.872-1.66-.14-1.793.168-.434.992.72.438 1.172.555 2.153.57 2.14.032 3.234.243 3.312.637.09.477-1.203 1.016-2.156.899-.395-.047-.988.011-1.32.125-.329.117-2.309.261-4.399.32-2.48.07-3.82.184-3.867.328-.098.293 3.852.57 7.164.504 5.227-.102 15.121.02 15.566.188.641.242 2.672.312 3.332.117.473-.14.641-.059 1.305.652.68.727.906.836 2.067 1 1.683.234 2.3.258 2.691.11zm-37.238-1.836c-.055-.277-.274-.351-1.067-.351-.789 0-1.011.074-1.066.351-.055.301.098.352 1.066.352.973 0 1.125-.05 1.067-.352zm9.773-2.476c.281-.281.281-.348.016-.566-.5-.415-2.348-.88-3.832-.961-1.762-.102-3.578.441-3.676 1.097-.055.364.07.43 1.004.531.586.063 1.336.153 1.668.196.332.043 1.48.066 2.55.05 1.485-.023 2.028-.105 2.27-.347zm24.559-.871c.316-.375.02-.844-.989-1.57-.91-.657-1.644-.696-2.66-.149-.629.336-1.133.399-3.144.399-1.492 0-2.45.082-2.532.218-.074.117.079.442.34.719l.473.504 3.008-.133c1.91-.09 3.195-.062 3.512.066.734.301 1.722.274 1.992-.054zM35.21 10.953c.863-.012 1.004-.07 1.004-.418 0-.383.137-.402 3.144-.402 1.727 0 3.203-.059 3.278-.137.258-.258-.117-.547-.864-.668-1.14-.187-1.648-.453-1.648-.863 0-.207-.18-.54-.398-.738-.36-.325-.66-.352-2.77-.235-2.258.121-2.41.102-3.3-.37-.833-.446-1.18-.5-3.126-.5-1.941 0-2.25.05-2.742.437-.453.355-.832.437-2.082.453-1.187.011-1.758.125-2.535.5l-1.004.488 1.203.14c2.121.255 3.16.891 1.95 1.188-.247.059-.368.195-.286.313.402.582 5.164 1.16 7.766.945.773-.063 1.86-.121 2.41-.133zm-13.387-.226c1.031-.723.078-1.247-1.836-1.004-1.23.152-1.633.363-1.472.777.207.543 2.62.707 3.308.227zm0 0"/></svg>