<svg xmlns="http://www.w3.org/2000/svg" width="64" height="64"><path d="M28.513 62.806c-10.709-1.21-20.205-8.111-24.672-17.931C.087 36.62.052 27.617 3.742 19.29 9.004 7.418 21.68-.052 34.574 1.12c7.528.685 14.066 3.723 19.323 8.98 9.212 9.212 11.678 22.885 6.27 34.774-5.52 12.138-18.392 19.429-31.654 17.931zm6.012-30.522V9.497H28.45l.129 13.995c.07 7.697.128 17.95.128 22.786v8.792h5.818V32.284zM20.271 50.347l-.057-18.112-.056-18.083h-4.895l.128 8.58c.07 4.72.129 12.902.129 18.181v9.6l2.376-.069c1.306-.038 2.375-.081 2.375-.097zm27.442-18.16v-18.23h-4.849v7.903c0 4.346.059 12.55.13 18.23l.128 10.326H47.713v-18.23z"/></svg>