<svg xmlns="http://www.w3.org/2000/svg" width="64" height="64"><path d="M32 63c17.071 0 31-13.929 31-31C63 14.929 49.071 1 32 1 14.929 1 1 14.929 1 32c0 17.071 13.929 31 31 31zm7.967-27.498l-.848 2.655 17.807-.028c.85-4.35.574-8.9-.872-13.17L39.967 35.502zm-8.856 5.127l-2.787.015 5.53 16.927a25.713 25.713 0 0 0 12.254-4.9L31.111 40.629zm-7.613-6.837l-.875-2.647-14.39 10.49a25.72 25.72 0 0 0 8.447 10.141l6.818-17.984zm4.15-9.354l2.247-1.65-14.423-10.444a25.72 25.72 0 0 0-7.035 11.167l19.211.927zm10.179 1.057l2.263 1.627 5.476-16.944a25.713 25.713 0 0 0-12.795-3.24l5.056 18.557z" fill-rule="evenodd"/></svg>