<svg xmlns="http://www.w3.org/2000/svg" width="64pt" height="64pt" viewBox="0 0 64 64"><path d="M25.516 57.078c-.782.129-1.621-.144-2.313-.531-.191-.106.172-.402.262-.606.422-.953.816-1.57 1.55-1.414.669.145 1.258.836.93 1.578-.144.325-.082.918-.43.973zm-7.79-3.902c-.496-.512-.734-1.281-.792-1.992-.024-.293.293-.594.574-.668 2.078-.54 2.453-.782 5.351.496.453.199 1.243.117 1.356.601.242.996.496.977 0 2.098-.055.129-.113.258-.172.39-.7 1.59-2.738 1.122-4.355.407-.899-.395-1.313-.664-1.961-1.332zm-3.601-1.82c-.309-.274-.852-.66-.68-1.04.715-1.554.809-1.605 2.512-.484.387.254.238.512.043.95-.059.132-.113.261-.172.39-.191.437-.277.543-.734.61-.348.054-.703-.192-.969-.427zm14.754 5.82c-1.027-.453-3.145-2.856-2.742-3.774.058-.129.117-.257.172-.39.199-.45.394-.524.84-.328.132.058.261.113.39.171.387.172 3.66 3.325 4.078 3.899.125.172-.172.39-.258.586-.203.457-.668.637-1.12.437-.454-.199-.907-.398-1.36-.601zm-7.621-14.098c.367.371.836 1.781.582 2.356-.887 2.011-2.703 5.101-4.461 4.328-.645-.29-1.293-.575-1.942-.86-2.703-1.191-3.222-2.18-4.832-3.765-.605-.594-1.558-2.246-1.101-3.282.812-1.84 6.934-1.367 9.402-.28.258.116.516.23.774.343.836.367 1.027.605 1.578 1.16zm10.36 12.266c-.68-.301-1.817-1.668-1.622-2.114.418-.949 3.762-3.234 5.11-2.64.363.16 1.16 3.152.843 3.867l-.515 1.172c-.446 1.008-2.735.191-3.817-.285zm-5.548-4.778c-.285.649-2.133.223-2.953-.14-.39-.172-.777-.34-1.164-.512-.469-.207-.855-1.215-.648-1.687.543-1.235 2.234-3.207 3.297-2.739 1.12.492 1.773 4.387 1.468 5.078zm1.715.84c.055-.117.106-.238.16-.36.188-.421.88-.69 1.297-.507l.543.238c.418.188.586.618.399 1.04-.079.183-.16.363-.239.542-.187.422-.879.692-1.3.508-.606-.265-1.118-.875-.86-1.46zm11.672 5.242c-.809-.355-.621-1.296-.281-1.988.176-.36.515-.472 1.035-.242.191.086.387.172.582.258.445.195.523.39.324.84a4.245 4.245 0 0 0-.086.195c-.289.66-.945 1.215-1.574.937zm-2.344-1.675c-.277-.121-.761-.899-.539-1.403.278-.633 1.133-.664 1.79-.375.234.102.402.66.238 1.035-.059.13-.118.262-.172.391-.235.527-.864.55-1.317.352zM7.753 41.086c-.308-.188-.64-.363-.874-.633-.098-.113-.121-.312-.047-.433.344-.54.648-1.204 1.25-1.461.34-.145.754.238 1.035.488.324.289.602.746.371 1.266l-.164.367c-.195.445-.492.527-.988.664-.2.058-.402-.145-.582-.258zm20.622 3.617c1.523-1.02 2.602-1.34 4.648.23 1.332 1.024 2.004 1.102.825 3.778-.055.125-.114.254-.168.379-.57 1.289-1.602 1.797-2.817 1.258l-1.707-.75c-1.258-.555-3.226-1.922-2.738-3.028.207-.46 1.281-1.418 1.957-1.867zm11.453 7.024c-.32.73-1.668.812-2.594.402-.308-.137-.867-.074-.922-.406-.144-.875-.222-.485.043-1.086.235-.535 2.012-1.762 3-1.328.063.027.125.054.184.082.61.27.578 1.675.29 2.336zM9.336 38.52c-.305-.329-.41-.856-.34-1.297.11-.692.375-1.407.848-1.922 1.25-1.371 2.402-5.145 5.16-3.926 1.555.688.777 1.945 1.039 2.938.383 1.44.902.714.68 3.074-.121 1.316-.313 2.191-1.836 2.355-.492.051-3.02.125-3.34-.015-.32-.141-.637-.282-.957-.422-.66-.293-.809-.301-1.254-.785zm18.906 5.546c-1.82.727-2.851 1.54-5.496.371-.238-.105-.406-.664-.238-1.039l.258-.586c.332-.75 2.875-1.914 3.433-2.027.621-.125 1.602-.879 2.344-.55.766.34 1.16 1.57.777 2.44-.027.067-.058.13-.086.196-.312.707-.285.91-.992 1.195zm7.098 5.461c-.504-.222-.461-1.578-.453-1.597.172-.39 1.152-.426 1.703-.18.45.195.523.39.324.84a2.948 2.948 0 0 1-.086.195c-.266.602-.695 1.094-1.293.828a4.245 4.245 0 0 1-.195-.086zm11.668 3.024c-1.051 1.094-2.93 2.902-4.656 2.14-1.274-.562-1.813-2.718-1.23-4.039.14-.324.866-1.015 1.183-1.109 1.074-.316 3.008-.07 4.398.543.067.027.133.059.195.086.547.242.68.773.625 1.207-.05.426-.218.863-.515 1.172zm-28.27-11.516c-1.133-.5-1.82-2.414-1.343-3.492.109-.246.218-.496.332-.746.191-.434.906-.715 1.34-.524.73.325 1.992 2.524 1.69 3.204l-.573 1.304c-.196.438-.637.61-1.075.418l-.37-.164zM7.2 35.246c-.746-.969-2.18-5.648-.965-6.488 1.27-.88 4.88 3.238 4.59 3.89-.383.868-2.164 2.688-2.87 2.93-.263.09-.583-.113-.755-.332zm40.235 7.52c.558 1.797.808 1.418-.746 4.23-1.008 1.824-3.356 1.29-5.11 1.395-1.14.066-1.223.14-2.137-.262-.625-.274-1.254-.55-1.879-.828-.53-.235-2.222-1.625-2.59-2.285-.5-.891-.812-2.23-.242-3.524.375-.851 1.016-1.75 1.555-2.508.457-.644.84-1.402 1.492-1.847 1.262-.871 2.957-2.063 4.293-1.07 3.22 2.398 4.367 3.511 5.364 6.699zM26.078 32.152c.86 1.125 1.41 2.356 1.961 3.664.273.657.477 1.016.086 1.903-.2.457-.29.96-.488 1.418-.153.343-1.086.789-1.426.933-.738.313-1.383.606-2.184.625a2.474 2.474 0 0 1-1.707-.664c-1.648-1.574-1.988-4.843-.793-7.554.059-.13.118-.258.172-.391.278-.625 1.336-1.742 2.028-1.438l1.164.516c.707.313.722.387 1.187.988zm6.7 11.176c-.243.149-.52.383-.794.309-1.093-.297-2.129-1.125-1.71-2.075.081-.183.163-.367.246-.55.257-.586 1.5-.875 2.214-.559.121.055.243.106.364.16.507.223.695 1.395.53 1.77-.25.562-.476.707-.85.945zm18.503 4.117c.227.168.543.875.434 1.121-.184.414-.078.332-.54.696-.527.414-1.855 1.047-2.628.703-.746-.328-1.113-1.16-.844-1.77l.258-.586c.234-.527.203-.64.625-.89.48-.278.906-.297 1.617.015.73.325.383.18 1.078.711zm-31.39-13.36c-.383.872-1.563 1.407-2.328 1.071-.622-.273-1.133-1.113-.844-1.77.504-1.136 1.68-2.523 2.761-2.046.13.058.258.113.387.172.856.375.418 1.68.024 2.574zm-9.067-3.452c-.386-.168-.418-1.153-.176-1.707.032-.063.059-.13.09-.196.2-.457.664-.636 1.117-.437.778.344.965.652 1.493 1.355.168.23-.23.524-.348.782-.336.765-1.39.55-2.176.203zm24.88 7.922c-.384.586-1.411 1.656-2.528 1.16l-.375-.164c-2.406-1.063-3.39-2.235-4.172-3.973-.14-.316.164-.723.418-.953.648-.59 3.996-.887 5.004-.441.437.191.875.382 1.308.578 1.344.59 1.258 2.383.344 3.793zm-12.821-9.887c-1.168 2.055-8.961 4-9.16-.383-.11-2.457 1.152-2.066 2.664-2.945.511-.297 2.629-1.352 3.215-1.094.125.059.253.113.378.168 1.551.684 3.704 2.848 2.903 4.254zm-9.79-2.012c-1.347.516-2.812 1.79-4.948.848-.063-.027-.125-.059-.192-.086-1.082-.477-1.133-2.223-.965-2.988.27-1.25 1.078-2.325 1.594-3.496.031-.067.012-.145.043-.211.402-.957 1.828-.594 2.813-.16 1.109.492 2.761 4.101 2.277 5.203-.235.527-.168.714-.621.89zm38.47 19.473c-1.168-1.02-2.254-2.172-3.11-3.469-.312-.476-.473-1.027-.258-1.512.028-.066.055-.132.086-.195.285-.652 3.938-1.527 4.313-1.363.062.031.129.058.191.086 1.508.664 2.606 3.558 1.945 5.054-.199.458-.402.91-.601 1.368-.188.422-1.297.824-1.488.742-.73-.324-.418-.133-1.078-.711zM26.983 31.832c.07-.637.235-1.059.625-1.566.262-.348.766-.594 1.313-.352.613.27 1.547 1.781 1.226 2.508-.21.476-1.675 1-2.152.789l-.387-.168c-.554-.246-.68-.723-.625-1.211zm9.23-.098c-.417.493-4.054 1.938-4.464 1.758-.066-.027-.129-.058-.195-.086-1.262-.558.023-3.187 1.054-3.965.7-.53 1.793-.453 2.457-.16.196.086.391.172.582.258.594.262 1.391.898 1.125 1.508-.117.258-.375.469-.558.687zm-9.124-1.918c-.399.899-1.07.692-1.985.29-.757-.336-1.144-.926-1.378-1.555-.168-.442-.137-.746.125-1.34.191-.434 1.457-.758 2.07-.488.258.117.52.23.777.343 1.211.536.922 1.54.39 2.75zm12.617 5.09c-.414.367-1.043.473-1.594.461-.425-.008-.808-.285-1.164-.515-.543-.348-1.039-1.329-.758-1.965.418-.942 1.325-1.512 2.329-1.07.257.113.515.23.777.343.71.313 1.062.633 1.101 1.184.036.566-.265 1.183-.691 1.562zm10.688 3.649c-.442.96-2.274.347-3.313-.114-.437-.191-.875-.386-1.312-.578-.575-.254-1.344-1.015-1.086-1.605.402-.903 4.175-2.207 5.808-1.488.125.058.25.113.375.167.422.184.582.262.586.708.008.757-.422 1.457-.683 2.167-.094.262-.262.489-.375.743zM17.672 23.082c-.43.973-1.242 1.734-1.996 1.543-1.25-.316-1.942-1.559-1.387-2.813l.164-.37c.309-.696 1.45-1.56 2.098-1.274.058.027.12.055.183.082.633.277 1.332 1.941.938 2.832zm24.676 12.184c-.368-.317-.633-.77-.782-1.23a2.55 2.55 0 0 1 .102-1.731c.266-.606 1.73-.97 2.238-.711.692.355 2.145 1.144 1.727 2.093-.086.188-.082.329-.164.516-.313.703-1.242 1.555-1.828 1.637-.465.062-.938-.262-1.293-.574zm-14.914-8.809c-.02-.281.074-.695.343-.781a2.691 2.691 0 0 1 1.809.101c.793.34 2.332 2.84 1.98 3.633-.199.457-.68.863-1.203.633-1.168-.516-2.867-2.473-2.93-3.586zM52.78 38.926c-.668-.297-1.238-1.153-.976-1.746.386-.883 1.832-1.602 2.898-1.133.387.172.426.004.649.504.187.422 0 .504-.223 1-.078.183-.16.367-.242.55-.18.41-1.403 1.133-1.926.903a3.573 3.573 0 0 0-.18-.078zM30.508 14.762c1.418 2.12.637 1.601.539 3.504-.067 1.336.02 2.054-.602 3.46-.937 2.13-2.687 3.254-4.285 3.938-1.16.496-2.066.02-3.644-.676-.262-.117-.52-.23-.778-.343-2.027-.895-4.418-3.13-3.562-5.07 1.078-2.442 8.36-7.5 10.152-6.708.063.028.129.059.192.086 1.382.61 1.335.836 1.988 1.809zm-18.219 5.011c-.855-.187-.52.004-1.25-.316-.258-.113-.633-.102-.777-.344-.235-.394-.235-.515-.043-.953.027-.062.058-.129.086-.195.332-.75 2.308-2.59 2.933-2.848 1.301-.539 2.45-.37 4.18.395.129.058.258.113.39.172.653.289 1.208.945.926 1.574-.054.129-.113.262-.172.39-.808 1.832-4.71 2.47-6.273 2.125zm31.637 5.575c-.297 1.449-1.086 7.21-3.422 6.18-.324-.145-.649-.286-.973-.43-.984-.434-2.574-3.094-2.265-3.797.113-.262.23-.52.343-.781.54-1.215 4.23-3.258 5.196-2.836.441.195 1.215 1.214 1.12 1.664zm-10.637 2.52c-1.008-.442-2.781-1.813-2.465-2.528.508-1.152 4.883-2.578 5.324-1.926.473.7.54 2.836 0 4.05l-.082.188c-.32.723-1.074.97-1.656.711-.375-.164-.75-.328-1.125-.496zm23.715 10.94c-1.55.344-1.121-4.288-.629-5.406.059-.129.113-.257.172-.39.2-.45.394-.524.84-.328.675.3.879 5.847-.383 6.125zm-10.207-5.773c-1.434-1.023-3.113-4.508-2.418-6.09.605-1.367 3.121-1.187 4.637-.52l1.164.516c1.53.676 2.53 1.625 1.86 3.149l-.517 1.172c-.66 1.488-2.546 2.84-3.988 2.203a3.962 3.962 0 0 1-.738-.43zm8.672 1.367c-.489 1.114-2.196.664-3.32.168-.13-.058-.258-.117-.387-.172-.453-.199-.637-.668-.434-1.125l.95-2.144c.199-.457.945-.746 1.398-.547.066.027.129.055.195.086 1.113.492 2.09 2.625 1.598 3.734zM31.457 21.195c.262-.75.363-1.562.734-2.265.121-.227.422-.305.664-.38.442-.136.516-.238.95-.046.89.394 2.101 2.601 1.86 3.152-.454 1.024-2.786 1.567-3.56 1.227-.062-.031-.128-.059-.195-.086-.465-.207-.558-.508-.71-1.016-.063-.203.187-.383.257-.586zm-16.855-7.258c-.067-.027-.13-.058-.196-.085-.375-.165-.625-.692-.52-.926.364-.824 1.466-1.688 2.223-1.352.27.121 1.157 1.051.926 1.574-.027.067-.058.13-.086.196-.273.62-1.59.93-2.347.594zm22.593 7.739c.012-.668.996-1.082 1.66-1.133.708-.05 1.446.352 1.942.86.324.327.238.511.043.949l-.258.585c-.414.946-1.3 1.29-2.242.875-1.238-.546-1.16-1.066-1.145-2.136zm-18.582-6.102c-.699-.308-1.316-2.937-.976-3.715.226-.511 2.418-2.656 3.199-2.308.184.078.562.039.547.238-.13 1.7.363 3.621-.461 5.488-.125.282-1.586.614-1.945.457-.122-.054-.243-.109-.364-.16zm36.875 15.11c-.418-.188-.82-1.301-.734-1.493.332-.753 1.414-1.238 2.242-.875l.582.258c.453.2.742.95.54 1.403-.259.59-1.481 1.21-2.048.96-.195-.085-.386-.171-.582-.253zM40.344 19.8c-.426-.594-.692-1.645-.196-2.184 1.399-1.531 2.141-2.414 4.57-3.203 1.637-.527 4.114-2.133 5.626-.453.793.875 2.101 5.219.676 8.453-1.141 2.578-3.387 2.938-5.907 1.824-.066-.031-.133-.058-.195-.086-.723-.32-3.86-3.347-4.574-4.351zm16.566 6.613c-.55 1.246-2.394 1.508-3.668.945-.129-.058-.258-.113-.387-.172-.843-.37-.875-.156-1.382-1.074-.422-.77-.153-1.23.195-2.011.496-1.133 2.137-3.254 3.102-2.829 1.77.782 3.035 3.11 2.312 4.75-.059.13-.117.262-.172.391zM26.324 11.125c-.52 1.176-2.254 2.145-3.402 1.637l-.188-.082c-.941-.414-.609-2.157-.148-3.207.086-.188.168-.375.25-.563.277-.633.91-1.168 1.516-.902l.187.082c.89.394 2.207 2.082 1.785 3.035zm11.992 8.016c-.351.375-.789.738-1.293.828-.351.062-.718-.18-.972-.43-.899-.89-1.63-1.941-2.418-2.93-.356-.449-.926-.816-1.012-1.382-.121-.774.016-1.086.387-1.926.027-.067.054-.13.086-.196.43-.976 2.273-1.761 3.23-2.07.727-.23 1.727-.437 2.29.078 1.394 1.282 1.89 3.555.843 5.965-.059.133-.062.29-.133.418-.312.563-.57 1.172-1.008 1.645zm-5.355-8.891c-.23.52-.457 1.04-.688 1.563-.308.695-.785 1.515-1.464 1.214-.262-.113-.52-.226-.778-.34-1.226-.542-3.894-3.183-2.972-4.75.605-1.03 1.347-1.625 2.363-1.863.406-.097 2.629-.187 3.062.004.13.055.258.113.387.172.988.434.445 3.195.09 4zm21.723 9.64c-.153.344-.371.63-.852.856-.312.145-.797.035-1.055-.21-.683-.645-.793-1.364-.3-2.474.05-.117.105-.238.156-.355.18-.41.37-.477.82-.277.063.027.129.054.192.086.933.41 1.328 1.722 1.039 2.375zm-9.5-8.718c-.086.191-.172.383-.254.574-.61 1.383-1.88 2.852-2.957 2.578-.727-.183-2.618-4.375-2.29-5.12.145-.321.286-.638.426-.958.914-2.078 5.856 1.152 5.075 2.926zm-7.637-3.817c.351.325.93.97.746 1.383-.422.957-1.055 1.328-1.797 1.516-.348.086-.812-.106-1.035-.395-.41-.527-.527-1.21-.695-1.84-.114-.421-.149-.683.086-1.218.027-.059.05-.117.078-.176.265-.602.484-.34 1.066-.371.137-.008.254.113.379.168.484.215.879.672 1.172.933zm10.672 4.762c-.211.477-.77.824-1.403.547-.68-.3-1.171-1.027-.93-1.574.204-.457.684-.863 1.208-.633l.582.258c.633.277.75.926.543 1.402zM19.082 61.27C2.922 54.137-4.402 35.246 2.73 19.082 9.863 2.922 28.754-4.402 44.918 2.73c16.16 7.133 23.484 26.024 16.352 42.188-7.133 16.16-26.024 23.484-42.188 16.352" fill-rule="evenodd"/></svg>