<svg xmlns="http://www.w3.org/2000/svg" width="64pt" height="64pt" viewBox="0 0 64 64"><path d="M27.082 63.727c-10.469-1.786-19.25-8.278-23.824-17.61C.957 41.426 0 37.285 0 32.023c0-5.257.957-9.398 3.258-14.09C7.324 9.638 15.125 3.259 23.96.997 29.047-.3 34.789-.332 39.734.914c8.95 2.254 16.864 8.649 20.957 16.934C63.04 22.602 64 26.715 64 32.023c0 5.313-.96 9.426-3.309 14.18-4.597 9.309-13.504 15.828-23.968 17.543-2.114.348-7.563.336-9.641-.02zm27.43-19.04C54.39 44.38 32.594 6.57 32.195 5.98c-.21-.312-.418-.046-1.648 2.11-.777 1.355-5.883 10.207-11.348 19.672L9.262 44.969h22.68c19.417 0 22.66-.04 22.57-.282zM18.289 39.57c.113-.3 13.691-23.687 13.727-23.64.02.023 3.082 5.324 6.804 11.78 3.727 6.458 6.813 11.81 6.86 11.892.05.082-6.11.148-13.684.148-8.004 0-13.746-.074-13.707-.18zm0 0"/></svg>