<svg xmlns="http://www.w3.org/2000/svg" width="64" height="64"><path d="M28.513 62.806c-10.709-1.21-20.205-8.111-24.672-17.931C.087 36.62.052 27.617 3.742 19.29 9.004 7.418 21.68-.052 34.574 1.12c7.528.685 14.066 3.723 19.323 8.98 9.212 9.212 11.678 22.885 6.27 34.774-5.52 12.138-18.392 19.429-31.654 17.931zm9.611-6.082c1.766-.531 4.129-1.727 4.344-2.199.197-.432.836-.773 2.755-1.472 1.181-.43 1.654-.929 3.073-3.236.647-1.055 1.343-2.006 1.545-2.114.202-.108.729-.196 1.17-.196.63 0 .927-.123 1.371-.567.676-.676.7-.986.153-1.958-.498-.887-.399-1.465.411-2.387.691-.788 1.36-2.284 1.36-3.043 0-.304-.233-1.09-.518-1.747l-.518-1.195-1.916.137-1.916.137-.722-.783c-.842-.911-1.493-1.13-2.436-.819-1.374.454-1.975 3.12-1.48 6.568.282 1.973.12 2.783-1.08 5.416-.783 1.719-1.32 2.374-1.943 2.374-.693 0-1.356.317-2.42 1.158-.797.63-1.144.781-1.8.781-1.014 0-1.42.282-2.349 1.63-.8 1.163-.835 1.626-.226 3.084.287.687.338.716 1.248.716.522 0 1.374-.128 1.894-.285zm-8.773-2.287c1.753-2.485 2.265-3.298 2.265-3.596 0-.458-1.89-2.188-3.098-2.836-.899-.483-1.353-.586-3.004-.684-1.07-.063-2.12-.21-2.334-.326-.546-.298-7.229-.224-7.795.087-1.045.573-1.292 1.668-.657 2.914.87 1.706 3.426 3.319 6.5 4.102.847.216 1.72.522 1.94.68l.872.63c.52.374 3.532.658 4.126.389.182-.083.716-.695 1.185-1.36zm6.267-7.23c.618-.618 2.69-4.918 2.99-6.205.341-1.463.316-4.511-.044-5.325-.551-1.244-1.69-2.247-3.202-2.82-.766-.29-1.525-.477-1.686-.415-.162.062-.44.4-.618.753-.6 1.184-.817 1.319-2.121 1.319-1.34 0-2-.365-3.49-1.933-1.43-1.503-2.867-1.931-3.86-1.15-.74.582-1.667 2.514-1.667 3.476 0 1.113.358 3.416.697 4.475.405 1.27.98 1.736 2.342 1.9 1.39.165 1.596.282 2.423 1.372.545.717.904.958 2.073 1.39 1.25.461 1.584.701 2.902 2.09 1.278 1.346 1.58 1.569 2.129 1.568.425-.001.804-.167 1.132-.495zm-17.312-4.563c.723-.568.636-1.112-.343-2.145-.468-.494-.909-1.162-.98-1.483-.07-.32-.297-.737-.504-.925-.495-.447-.491-1.511.012-3.715.563-2.468.88-3.207 1.538-3.58.875-.496.932-1.085.48-5.03-.131-1.155.107-1.918.599-1.918.386 0 .61-.502.777-1.745.209-1.55.402-1.925 1.154-2.24.844-.352 1.095-.816 1.105-2.04.008-1.069-.182-1.44-1.352-2.643-.872-.897-1.505-1.128-3.653-1.331-1.243-.118-1.5-.079-2.5.378-.611.28-1.705.95-2.43 1.487-1.133.84-1.366 1.118-1.66 1.986-.189.555-.347 1.546-.353 2.203-.008 1.08.043 1.235.529 1.617.5.395.529.491.41 1.424-.249 1.974-.632 3.708-.834 3.775-.62.206-1.048.847-1.388 2.073-.503 1.814-.49 3.06.04 3.776.696.943.41 2.396-.909 4.597-.363.607-.363.622.015 1.04.21.233.993.73 1.74 1.105.747.374 1.79.997 2.32 1.384 1.256.918 4.301 2.322 5.072 2.34.335.007.832-.167 1.115-.39zm34.68-9.313c.704-.359.77-.455.69-1.013-.047-.339-.146-.751-.219-.917-.17-.386 1.21-1.191 2.304-1.344l.776-.108-.057-1.35c-.04-.976-.14-1.398-.357-1.52-.437-.244-.846-1.345-.855-2.304a5.474 5.474 0 0 0-.31-1.606 58.36 58.36 0 0 1-.696-1.94c-.442-1.305-.895-1.895-1.717-2.236-.536-.222-.95-1.068-.953-1.95-.002-.593-1.517-2.61-3.13-4.167-1.343-1.298-1.922-1.702-3.367-2.351-.96-.431-2.008-.844-2.328-.918-.32-.073-1.513-.564-2.652-1.091-2.315-1.07-3-1.164-3.76-.512l-.517.446 1.913 1.998c1.845 1.926 1.949 2.001 2.883 2.099 1.9.198 5.184 2.882 5.932 4.848.112.295.367 1.347.566 2.337.4 1.988.919 3.01 1.745 3.438.77.398.99 1.665.418 2.397-.22.281-.635.84-.924 1.244l-.525.733.513 1.912c.63 2.35 1.139 3.563 1.748 4.173.42.42.549.448 1.284.283a8.188 8.188 0 0 0 1.595-.58zm-12.363-1.575c.221-.316.302-.917.302-2.243 0-1.72.18-2.481.66-2.802.117-.078.622-.144 1.121-.145 1.162-.004 1.819-.257 2.118-.817.341-.637.295-2.467-.08-3.19-.456-.878-1.76-1.924-2.738-2.198-.742-.207-.948-.189-1.723.154-.484.214-1.264.743-1.733 1.175l-.853.786-1.69-.119c-1.555-.11-1.728-.164-2.16-.678-.724-.86-.914-1.794-.55-2.704.277-.69.276-.87-.01-2.007-.427-1.703-.403-1.999.288-3.475.557-1.19.596-1.412.533-3.014-.078-2.004-.351-2.526-1.733-3.309-.757-.428-1.08-.484-2.795-.48-1.743.003-2.054.06-3.07.562-1.635.81-1.791 1.123-1.405 2.82.251 1.105.268 1.535.09 2.244-.21.833-.19.924.383 1.793 1.13 1.712 1.574 2.797 1.576 3.849.001.668-.098 1.077-.302 1.246-.574.477-.86 1.325-.859 2.55.003 2.502.75 3.708 2.44 3.933 2.624.348 3.057.5 3.89 1.364 1.058 1.097 1.464 1.329 3.04 1.74 1.195.31 1.485.493 2.971 1.87.906.839 1.724 1.526 1.818 1.526.093 0 .305-.194.471-.431z"/></svg>