<svg xmlns="http://www.w3.org/2000/svg" width="64pt" height="64pt" viewBox="0 0 64 64"><path d="M63.727 36.18C66.02 18.766 53.582 2.566 36.157.273 18.73-2.023 2.566 10.41.272 27.824c-2.293 17.418 10.102 33.61 27.532 35.903C45.23 66.023 61.434 53.594 63.727 36.18zm-31.668-4.145a.122.122 0 0 1-.04-.02.202.202 0 0 0 .008-.042c.016 0 .032 0 .047-.008.004.015.012.027.016.043-.012.008-.02.02-.031.027zm-3.344-2.656c-6.516-6.567-8.762-18.484 2.351-26.524-4.765-.117-11.441 2.668-13.39 3.743-9.906 11-1.805 26.273 10.855 27.765-8.258 4.168-20.289 2.621-24.5-10.433-1.582 4.496-.996 11.71-.574 13.894 7.395 12.82 24.426 9.836 29.758-1.742 1.41 9.145-3.778 20.105-17.492 20.074C19.508 59.055 26.55 60.723 28.758 61c14.476-3.074 16.898-20.191 7.539-28.844C45.426 33.641 54.25 41.965 49.98 55c3.926-2.707 7.692-8.89 8.633-10.902 1.555-14.723-13.98-22.317-25.101-16.082 4.234-8.227 14.875-14.047 25.957-5.961-1.364-4.57-6.078-10.059-7.703-11.578-13.52-6.024-25.543 6.402-23.051 18.902" fill-rule="evenodd"/></svg>