<svg xmlns="http://www.w3.org/2000/svg" width="64pt" height="64pt" viewBox="0 0 64 64"><path d="M32 64c17.672 0 32-14.328 32-32S49.672 0 32 0 0 14.328 0 32s14.328 32 32 32zM17.598 45.793a.83.83 0 1 0-1.383.922.83.83 0 1 0 1.383-.922zm8.66-5.281a.833.833 0 0 0-1.153-.227.826.826 0 0 0-.226 1.149.83.83 0 0 0 1.379-.922zm14.531-11.48a.83.83 0 1 0 .003 1.658.83.83 0 0 0-.003-1.659zm9.969-10.333a.829.829 0 0 0 0 1.656.827.827 0 1 0 0-1.656zm-10.723.188a1.186 1.186 0 1 0 .005 2.372 1.186 1.186 0 0 0-.005-2.372zm-9.972 5.539a1.186 1.186 0 1 0-.003 2.372 1.186 1.186 0 0 0 .003-2.372zm17.707-.39a1.186 1.186 0 1 0 0 0zm-9.243 13.968a1.185 1.185 0 1 0 .004 2.37 1.185 1.185 0 0 0-.004-2.37zM16.492 27.758a1.186 1.186 0 1 0 .005 2.372 1.186 1.186 0 0 0-.005-2.372zm2.164-8.59a1.186 1.186 0 1 0-.002 2.372 1.186 1.186 0 0 0 .002-2.372zm13.801-5.871a1.186 1.186 0 1 0-.003 2.372 1.186 1.186 0 0 0 .003-2.372zm17.672 26.5a1.186 1.186 0 1 0 .005 2.372 1.186 1.186 0 0 0-.005-2.372zm-16.492 4.465c-.657 0-1.184.531-1.184 1.183a1.184 1.184 0 1 0 2.367 0c0-.652-.527-1.183-1.183-1.183zM13.324 36.18a1.186 1.186 0 1 0 0 0zm17.07-3.297a1.186 1.186 0 1 0-.002 2.372 1.186 1.186 0 0 0 .003-2.372zM45 47.129c-.656 0-1.184.531-1.184 1.184a1.184 1.184 0 1 0 2.368 0c0-.653-.528-1.184-1.184-1.184zM24.027 12.14c-.656 0-1.183.53-1.183 1.187a1.183 1.183 0 1 0 2.367 0c0-.656-.527-1.187-1.184-1.187zm1.118 38.062a1.186 1.186 0 1 0 .005 2.372 1.186 1.186 0 0 0-.005-2.372zM42.09 10.066a1.184 1.184 0 1 0 0 2.368 1.183 1.183 0 1 0 0-2.368zm-5.238 41.977a1.186 1.186 0 1 0-.003 2.372 1.186 1.186 0 0 0 .003-2.372zM9.828 23.906a1.185 1.185 0 1 0 .004 2.37 1.185 1.185 0 0 0-.004-2.37zm44.45 7.453a1.186 1.186 0 1 0 0 0zm-7.79-10.683a.476.476 0 1 0 0 .953.477.477 0 0 0 0-.953zm-17.836-9.86a.476.476 0 1 0 0 .952.476.476 0 0 0 0-.952zm.008 3.954a.478.478 0 0 0-.476.476.476.476 0 1 0 .477-.477zm7.465 8.296a.476.476 0 1 0 0 .954.476.476 0 1 0 0-.953zm12.074 4.07a.476.476 0 1 0-.001.954.476.476 0 0 0 .001-.953zm-7.965 4.852a.48.48 0 1 0 0 0zm3.243-.91a.476.476 0 1 0-.002.952.476.476 0 0 0 .002-.952zm-10.48 9.004a.476.476 0 1 0-.002.952.476.476 0 0 0 .001-.952zm-5.65-3.57a.48.48 0 0 0 0 .957.476.476 0 0 0 .477-.477c0-.265-.21-.48-.476-.48zM14.063 34.02a.476.476 0 1 0-.001.954.476.476 0 0 0 .002-.954zm4.418-11.04a.476.476 0 1 0 0 .952.476.476 0 0 0 0-.952zm-1.675 1.504a.476.476 0 1 0 .477.477.473.473 0 0 0-.477-.477zm8.28-1.789a.476.476 0 1 0 0 .953.477.477 0 0 0 0-.953zm12.727-1.23a.476.476 0 1 0-.001.954.476.476 0 0 0 .002-.954zM29.867 18.8a.829.829 0 0 0 0 1.656.83.83 0 0 0 .832-.828.83.83 0 0 0-.832-.828zm.899 3.71a.475.475 0 0 0-.473.477.477.477 0 1 0 .473-.477zm19.207-5.6a.476.476 0 1 0-.001.954.476.476 0 0 0 0-.955zm-5.028 36.253a.476.476 0 1 0-.001.954.476.476 0 0 0 .001-.954zm-23.984-18.66a.476.476 0 1 0-.001.952.476.476 0 0 0 0-.952zm12.629 7.52a.476.476 0 1 0-.001.951.476.476 0 0 0 0-.952zm12.015-7.848a.48.48 0 0 0 0 .957.476.476 0 0 0 .477-.477c0-.265-.21-.48-.477-.48zm-8.222 1.722a.476.476 0 1 0-.001.954.476.476 0 0 0 0-.954zm4.687-.554a.476.476 0 1 0 0 .953.477.477 0 1 0 0-.953zm-13.183-4.285a.476.476 0 1 0-.001.952.476.476 0 0 0 0-.952zm-7.305-20.063a.48.48 0 1 0-.002.959.48.48 0 0 0 .002-.959zm17.813-1.625a.476.476 0 1 0-.002.952.476.476 0 0 0 .002-.952zm-12.438 2.793a.478.478 0 0 0-.477.477.476.476 0 1 0 .477-.477zm16.52 11.95a.48.48 0 0 0 0 .956.476.476 0 0 0 .476-.476c0-.266-.21-.48-.476-.48zm-5.063-.716a.476.476 0 1 0-.001.952.476.476 0 0 0 .001-.952zm-1.473 4.34a.475.475 0 0 0-.476.473.48.48 0 1 0 .957 0 .476.476 0 0 0-.48-.473zm5.625-1.625a.48.48 0 1 0 0 0zm11.844 3.274a.476.476 0 1 0-.001.954.476.476 0 0 0 .001-.954zM44.117 15.98a.478.478 0 0 0 0 .957.477.477 0 0 0 .477-.48.476.476 0 0 0-.477-.477zM32.27 8.316a.48.48 0 0 0-.477.48c0 .263.215.474.477.474a.477.477 0 0 0 0-.953zm3.89 5.883a.477.477 0 1 0 0 .953.476.476 0 1 0 0-.953zm-6.765-8.316a.476.476 0 1 0-.002.952.476.476 0 0 0 .002-.952zm-1.301 21.039a.476.476 0 1 0-.001.952.476.476 0 0 0 0-.952zM34.676 8.46a.48.48 0 1 0 0 0zm-17.094 3.187a.476.476 0 1 0-.001.954.476.476 0 0 0 .001-.954zm20.059 7.38a.476.476 0 0 0-.477.476.477.477 0 1 0 .953 0 .478.478 0 0 0-.476-.477zm-8.774 34.886a.476.476 0 1 0 0 .953.477.477 0 1 0 0-.953zm-14.12-31.516a.476.476 0 1 0 .477.477.473.473 0 0 0-.478-.477zm4.608-5.203a.478.478 0 0 0-.476.477.476.476 0 1 0 .477-.477zm.457-5.273a.477.477 0 0 0-.476.48.476.476 0 1 0 .953 0 .48.48 0 0 0-.477-.48zm4.418-1.688a.476.476 0 1 0 0 .952.476.476 0 0 0 0-.952zm12.926-.636a.473.473 0 0 0-.472.476c0 .262.21.477.472.477a.477.477 0 0 0 0-.953zm4.52 29.465a.476.476 0 1 0-.001.951.476.476 0 0 0 0-.952zm-4.614-21.739a.476.476 0 1 0 0 .952.476.476 0 0 0 0-.952zm-2.671-1.66a.476.476 0 1 0-.001.954.476.476 0 0 0 0-.954zm-9.121 13.73a.476.476 0 1 0-.001.954.476.476 0 0 0 0-.953zm15.316 7.493a.476.476 0 1 0-.001.954.476.476 0 0 0 0-.954zM29.488 35.87a.476.476 0 1 0 0 .952.476.476 0 0 0 0-.952zm13.082-3.047a.476.476 0 1 0 0 .952.476.476 0 0 0 0-.952zm-9.16-3.082a.477.477 0 0 0-.476.48.476.476 0 1 0 .953 0 .48.48 0 0 0-.477-.48zm-5.285-7.976a.478.478 0 1 0 .004.957.478.478 0 0 0-.004-.957zm13.117-7.868a.475.475 0 0 0-.476.473.477.477 0 1 0 .477-.473zm-.508 3.461a.48.48 0 1 0-.002.959.48.48 0 0 0 .002-.959zM34.195 6.73a.478.478 0 0 0 0 .957.477.477 0 0 0 .477-.48.476.476 0 0 0-.477-.477zm2.395.805a.478.478 0 0 0-.477.477.478.478 0 0 0 .957 0 .48.48 0 0 0-.48-.477zm-9.223-.797a.476.476 0 1 0-.001.952.476.476 0 0 0 .001-.952zm1.754 1.793a.48.48 0 0 0-.48.477.48.48 0 0 0 .957 0 .478.478 0 0 0-.477-.477zm5.813 3.848a.476.476 0 1 0-.002.952.476.476 0 0 0 .002-.952zm3.761 1.504a.478.478 0 0 0-.476.476c0 .262.215.477.476.477a.478.478 0 0 0 .477-.477.478.478 0 0 0-.477-.476zm-11.16 10.105a.478.478 0 1 0 .004.957.478.478 0 0 0-.004-.957zm-5.402-1.742a.832.832 0 0 0-.832.828.83.83 0 0 0 1.66 0 .829.829 0 0 0-.828-.828zm1.12 3.145a.476.476 0 1 0 0 .953.477.477 0 0 0 0-.953zM7.997 41.402a.48.48 0 1 0 0 0zm46.3-22.492a.476.476 0 1 0 0 .952.476.476 0 0 0 0-.952zm-6.456-.355a.48.48 0 0 0 0 .957.478.478 0 0 0 0-.957zm-1.785 12.492a.476.476 0 1 0-.002.952.476.476 0 0 0 .002-.952zM14.672 25.66a.477.477 0 1 0 0 .953.476.476 0 1 0 0-.953zm1.527-4.469a.476.476 0 1 0 0 .953.477.477 0 1 0 0-.953zm1.875-5.52a.477.477 0 0 0-.476.481.476.476 0 1 0 .953 0 .48.48 0 0 0-.477-.48zm6.801.02a.476.476 0 0 0-.477.477.477.477 0 1 0 .954 0 .478.478 0 0 0-.477-.477zm1.738-1.171a.477.477 0 0 0 0 .953.476.476 0 1 0 0-.953zM32.7 27.2a.476.476 0 1 0-.001.954.476.476 0 0 0 .001-.955zm-1.953.847a.477.477 0 1 0 0 .953.476.476 0 1 0 0-.953zm14.02-9.703a.829.829 0 0 0 0 1.656.827.827 0 1 0 0-1.656zm-13.641-1.067a.48.48 0 0 0 0 .957.476.476 0 0 0 .477-.476c0-.266-.211-.48-.477-.48zm-7.316.727a.476.476 0 1 0-.002.952.476.476 0 0 0 .002-.952zm21.175 10.781a.476.476 0 0 0-.476.477.477.477 0 1 0 .953 0 .478.478 0 0 0-.477-.477zm.223-6.203a.478.478 0 0 0-.477.477.476.476 0 1 0 .477-.477zm-11.762 1.969a.476.476 0 1 0 0 .952.476.476 0 0 0 0-.952zm5.653 2.71a.476.476 0 1 0-.002.953.476.476 0 0 0 .002-.952zM18.18 33.646a.476.476 0 1 0-.001.954.476.476 0 0 0 0-.954zm4.351-1.22a.476.476 0 1 0-.001.953.476.476 0 0 0 .001-.952zM20 31.872a.832.832 0 0 0-.828.832.83.83 0 1 0 .828-.832zm3.8 4.453a.478.478 0 0 0 0 .957.477.477 0 0 0 .477-.48.476.476 0 0 0-.476-.477zm12.774-11.418a.476.476 0 1 0-.001.952.476.476 0 0 0 .001-.952zm-10.23 9.567a.48.48 0 0 0 0 .957.476.476 0 0 0 .476-.477c0-.266-.21-.48-.476-.48zm16.707-6.368a.476.476 0 1 0-.001.952.476.476 0 0 0 0-.952zm2.969-1.05a.476.476 0 1 0-.002.952.476.476 0 0 0 .002-.952zm7.84-5.403a.478.478 0 0 0 0 .957.477.477 0 0 0 .476-.48.476.476 0 0 0-.477-.477zM38.292 11.484a.478.478 0 0 0 0 .957.48.48 0 0 0 0-.957zm1.66.774a.476.476 0 1 0-.001.952.476.476 0 0 0 .001-.952zm4.656-2.852a.475.475 0 0 0-.472.477c0 .262.21.476.472.476a.48.48 0 0 0 .48-.476.48.48 0 0 0-.48-.477zM41.336 7.95a.476.476 0 0 0-.473.48c0 .262.211.473.473.473a.476.476 0 1 0 0-.953zm-9.29 28.156a.476.476 0 1 0-.001.954.476.476 0 0 0 .002-.954zm-1.917 3.801a.476.476 0 1 0 0 .953.477.477 0 0 0 0-.953zm-11.57-26.02a.476.476 0 1 0-.002.953.476.476 0 0 0 .002-.952zm.195-4.71a.477.477 0 1 0 0 .953.476.476 0 1 0 0-.953zm27.824 7.418a.476.476 0 1 0-.001.954.476.476 0 0 0 .001-.954zm1.395 5.636a.476.476 0 1 0-.002.952.476.476 0 0 0 .002-.952zm-6.09-6.511a.477.477 0 0 0-.477.48.476.476 0 1 0 .953 0 .48.48 0 0 0-.476-.48zm-9.606-4.469a.476.476 0 1 0 0 .952.476.476 0 0 0 0-.952zm-.75-5.02a.48.48 0 0 0-.48.477.48.48 0 0 0 .957 0 .478.478 0 0 0-.477-.477zm-1.234 3.665a.476.476 0 1 0-.001.954.476.476 0 0 0 .001-.954zm-9.309 4.503a.827.827 0 1 0 0 1.657.829.829 0 0 0 0-1.657zm1.211-5.21a.476.476 0 1 0-.001.954.476.476 0 0 0 .001-.954zm-1.093 15.5a.476.476 0 1 0-.002.951.476.476 0 0 0 .002-.951zm-.063 4.156a.477.477 0 0 0-.477.48.476.476 0 1 0 .954 0 .48.48 0 0 0-.477-.48zm-4.988 4.07a.478.478 0 0 0-.477.477.476.476 0 1 0 .477-.477zm17.074-.566a.476.476 0 1 0-.001.952.476.476 0 0 0 .001-.952zm-10.277-2.309a.476.476 0 1 0-.002.952.476.476 0 0 0 .002-.952zm13.082 7.422a.476.476 0 1 0-.002.952.476.476 0 0 0 .002-.952zm21.047.41a.477.477 0 0 0 0 .953.476.476 0 1 0 0-.953zm-4.891 9.82a.477.477 0 0 0 0 .953.476.476 0 1 0 0-.953zM38.773 33.47a.478.478 0 0 0-.476.476.478.478 0 0 0 .957 0 .48.48 0 0 0-.48-.476zM26.914 17.44a.477.477 0 0 0-.477.48.476.476 0 1 0 .954 0 .48.48 0 0 0-.477-.48zm.098 2.664a.48.48 0 0 0-.48.477.48.48 0 0 0 .956 0 .478.478 0 0 0-.476-.477zm8.36 10.88a.476.476 0 1 0-.002.951.476.476 0 0 0 .001-.952zm-4.122-.325a.478.478 0 0 0 0 .957.48.48 0 0 0 0-.957zm3.121 5.309a.477.477 0 0 0 0 .953.476.476 0 1 0 0-.953zm8.473-14.547a.478.478 0 1 0 .004.957.478.478 0 0 0-.004-.957zm-.332-2.457a.476.476 0 1 0-.001.952.476.476 0 0 0 0-.952zm-8.254-1.027a.478.478 0 0 0 0 .957.477.477 0 0 0 .476-.48.476.476 0 0 0-.476-.477zm-9.446 9.347a.478.478 0 0 0 0 .957.477.477 0 0 0 .477-.48.476.476 0 0 0-.477-.477zm1.063-2.246a.476.476 0 1 0-.001.952.476.476 0 0 0 .001-.952zm-4.266 2.121a.476.476 0 1 0 0 .952.476.476 0 0 0 0-.952zm.914-10.73a.478.478 0 0 0-.476.476.476.476 0 1 0 .477-.477zm5.192 12.539a.476.476 0 1 0-.001.954.476.476 0 0 0 0-.954zm-3.317 5.02a.477.477 0 1 0 0 0zm14.567-27.02a.478.478 0 0 0-.477.476.478.478 0 0 0 .957 0 .48.48 0 0 0-.48-.476zm4.312 6.851a.476.476 0 1 0-.001.954.476.476 0 0 0 .001-.954zm-4.382 2.543a.475.475 0 0 0-.477.473.477.477 0 1 0 .477-.473zm-4.852 6.34a.476.476 0 1 0 0 .953.477.477 0 1 0 0-.953zm3.895 7.14a.476.476 0 1 0-.002.953.476.476 0 0 0 .002-.952zm-5.524-8.445a.476.476 0 1 0-.001.952.476.476 0 0 0 .001-.952zm-8.11-14.175a.48.48 0 0 0 0 .957.476.476 0 0 0 .477-.477c0-.266-.21-.48-.476-.48zm10.384 3.12a.48.48 0 0 0-.481.477.48.48 0 0 0 .957 0 .478.478 0 0 0-.477-.476zM26.09 31.212a.83.83 0 1 0 .002 1.659.83.83 0 0 0-.002-1.66zm.387-22.715a.832.832 0 0 0-.829.832.83.83 0 1 0 .828-.832zM24.19 20.06a.476.476 0 1 0-.001.954.476.476 0 0 0 .001-.954zm15.754 14.867a.476.476 0 1 0 0 .952.476.476 0 0 0 0-.952zm1.094-10.172a.476.476 0 0 0-.477.476.477.477 0 1 0 .954 0 .478.478 0 0 0-.477-.476zm10.234-2.926a.476.476 0 1 0-.001.954.476.476 0 0 0 .001-.954zM37.711 31.73a.477.477 0 0 0-.477.48.476.476 0 1 0 .953 0c0-.265-.21-.48-.476-.48zM45.52 13.97a.477.477 0 1 0 0 .953.477.477 0 0 0 0-.953zm-5.13 8.62a.476.476 0 1 0 0 .953.476.476 0 0 0 0-.952zm-6.003 16.083a.478.478 0 0 0 0 .957.477.477 0 0 0 .476-.48.476.476 0 0 0-.476-.477zm-2.832-.52a.48.48 0 1 0 .005.959.48.48 0 0 0-.005-.959zm4.015-4.586a.475.475 0 0 0-.476.473.477.477 0 1 0 .477-.473zM21.738 19.492a.473.473 0 0 0-.476.477.476.476 0 1 0 .477-.477zm-2.234 6.809a.476.476 0 1 0-.001.954.476.476 0 0 0 0-.954zm15.332-6.059a.48.48 0 1 0 0 0zm.23 6.98a.476.476 0 1 0-.001.954.476.476 0 0 0 .001-.953zm-2.765-8.136a.476.476 0 1 0 0 .953.477.477 0 1 0 0-.953zm-2.36-5.813a.48.48 0 0 0 0 .957.478.478 0 0 0 0-.957zm-.867 3.47a.476.476 0 1 0-.001.951.476.476 0 0 0 .001-.952zM17.312 35.847a.477.477 0 1 0-.129.664.477.477 0 0 0 .13-.664zm10.079 7.851a.477.477 0 1 0-.79.528.477.477 0 0 0 .79-.528zm-8.72-2.129a.483.483 0 0 0-.663-.133.478.478 0 1 0 .664.133zm-2.62 8.903a.483.483 0 0 0-.664-.133.478.478 0 1 0 .664.133zM8.19 34.266a.477.477 0 1 0-.133.664.476.476 0 0 0 .133-.664zm3.297 4.629a.477.477 0 1 0-.129.664.477.477 0 0 0 .13-.664zm3.477 3.945a.477.477 0 1 0-.793.531.482.482 0 0 0 .664.133.478.478 0 0 0 .129-.664zm1.262 5.469a.477.477 0 1 0-.793.532.477.477 0 0 0 .793-.532zm-9-11.227a.483.483 0 0 0-.665-.133.478.478 0 1 0 .665.133zm21.808 9.05a.474.474 0 0 0-.66-.128.477.477 0 1 0 .66.129zm-8.137.677a.478.478 0 1 0-.132.664.482.482 0 0 0 .132-.664zm8.872 9.496a.482.482 0 0 0-.665-.133.478.478 0 1 0 .665.133zm-9.887-3.442a.483.483 0 0 0-.664-.133.483.483 0 0 0-.133.665.478.478 0 0 0 .797-.532zM16.43 31.336a.476.476 0 1 0-.79.533.476.476 0 0 0 .79-.533zm4.199 19.45a.478.478 0 0 0-.66-.134.471.471 0 0 0-.133.66.477.477 0 0 0 .793-.527zm1.851 5.01a.483.483 0 0 0-.664-.132.483.483 0 0 0-.132.664.478.478 0 0 0 .796-.531zM12.055 32.739a.476.476 0 1 0-.793.528.477.477 0 0 0 .793-.528zm9.32 16.207a.482.482 0 0 0-.664-.133.478.478 0 1 0 .664.133zm.262-4.199a.478.478 0 0 0-.793.531.477.477 0 1 0 .793-.531zm.836-5.394a.479.479 0 0 0-.66-.133.477.477 0 1 0 .66.133zm-11.864 1.253a.477.477 0 1 0-.79.528.477.477 0 0 0 .79-.528zm10.278-3.867a.483.483 0 0 0-.664-.133.478.478 0 1 0 .664.133zm8.172 13.492a.473.473 0 0 0-.66-.128.477.477 0 1 0 .531.793.477.477 0 0 0 .129-.665zm-6.36 1.168a.474.474 0 0 0-.66-.132.474.474 0 0 0-.133.66.47.47 0 0 0 .66.133.474.474 0 0 0 .133-.66zm6.348-9.855a.477.477 0 1 0-.793.531.483.483 0 0 0 .664.133.478.478 0 0 0 .129-.664zm-1.742 12.668a.479.479 0 0 0-.66-.133.477.477 0 1 0 .66.133zm.32 1.926a.474.474 0 0 0-.66-.133.482.482 0 0 0-.133.664.476.476 0 1 0 .793-.531zm-3.754-12.07a.482.482 0 0 0-.664-.13.473.473 0 0 0-.129.66.474.474 0 0 0 .66.133.482.482 0 0 0 .133-.664zm.152 2.667a.478.478 0 1 0-.132.664.483.483 0 0 0 .132-.664zM11.336 43.07a.477.477 0 1 0-.794.53.477.477 0 0 0 .794-.53zm1.793-1.78a.477.477 0 1 0-.129.664.478.478 0 0 0 .129-.665zm2.336-1.821a.483.483 0 0 0-.664-.133.483.483 0 0 0-.133.664.478.478 0 0 0 .797-.531zm1.402-1.73a.477.477 0 1 0-.793.53.483.483 0 0 0 .664.133.478.478 0 0 0 .13-.664zm1.965.245a.477.477 0 1 0-.794.53.477.477 0 0 0 .794-.53zm2.586 16.2a.477.477 0 1 0-.79.535.477.477 0 0 0 .79-.535zM20.16 43.195a.483.483 0 0 0-.664-.133.473.473 0 0 0-.129.66.477.477 0 0 0 .793-.527zm-2.07.606a.483.483 0 0 0-.664-.133.483.483 0 0 0-.133.664.478.478 0 0 0 .797-.531zm-9.91-4.32a.483.483 0 0 0-.664-.133.478.478 0 1 0 .664.132zm10.617 10.98a.477.477 0 1 0-.129.664.478.478 0 0 0 .129-.664zm7.402-2.969a.477.477 0 1 0-.129.66.481.481 0 0 0 .13-.66zm1.442 1.047a.473.473 0 0 0-.66-.129.477.477 0 1 0 .66.129zM14.504 31.727a.477.477 0 1 0-.133.664.479.479 0 0 0 .133-.664zm-2.676-1.934a.478.478 0 1 0-.133.664.483.483 0 0 0 .133-.664zm13.336 23.848a.477.477 0 1 0-.793.53.482.482 0 0 0 .664.134.478.478 0 0 0 .13-.664zM28.7 38.926a.477.477 0 0 0-.793.527.479.479 0 0 0 .664.133.473.473 0 0 0 .13-.66zm-5.027 3.336a.477.477 0 1 0-.794.53.477.477 0 0 0 .794-.53zm2.469-3.98a.477.477 0 1 0-.133.664.476.476 0 0 0 .133-.665zm-1.633.57a.477.477 0 1 0-.793.532.477.477 0 0 0 .793-.532zm-5.031-8.891a.483.483 0 0 0-.665-.133.478.478 0 1 0 .665.133zm-2.918 11.375a.481.481 0 0 0-.664-.133.478.478 0 1 0 .664.133zm1.117 10.77a.477.477 0 1 0-.79.528.477.477 0 0 0 .79-.529zm5.543 1.34a.477.477 0 1 0-.793.531.473.473 0 0 0 .66.128.47.47 0 0 0 .133-.66zm-3.762-8.16a.477.477 0 1 0 0 0zm-9.3-10.716a.477.477 0 1 0-.794.53.477.477 0 0 0 .793-.53zm20.038 10.051a.477.477 0 1 0-.129.664.478.478 0 0 0 .13-.664zM25.34 56.238a.474.474 0 0 0-.66-.133.477.477 0 1 0 .66.133zm-2.145-7.226a.477.477 0 1 0-.793.531.482.482 0 0 0 .664.133.478.478 0 0 0 .13-.664zm2.41-3.73a.478.478 0 0 0-.66-.134.483.483 0 0 0-.133.664.477.477 0 1 0 .793-.531zm-6.625 2.952a.474.474 0 0 0-.66-.132.478.478 0 0 0-.133.66.471.471 0 0 0 .66.133.47.47 0 0 0 .133-.66zm-4.195-1.804a.483.483 0 0 0-.664-.133.483.483 0 0 0-.133.664.483.483 0 0 0 .664.133.483.483 0 0 0 .133-.664zm-1.863-1.563a.483.483 0 0 0-.664-.133.478.478 0 1 0 .664.133zm6.406-5.086a.477.477 0 1 0-.793.53.477.477 0 0 0 .793-.53zm8.649 11.934a.478.478 0 1 0-.133.664.483.483 0 0 0 .133-.664zm-17.864-7.149a.477.477 0 1 0-.133.664.475.475 0 0 0 .133-.664zm1.762-8.992a.477.477 0 1 0-.133.664.476.476 0 0 0 .133-.664zm19.523 22.074a.478.478 0 0 0-.793.532.477.477 0 1 0 .793-.531zM9.618 37.246a.822.822 0 0 0-1.15-.23.83.83 0 0 0 .922 1.379.826.826 0 0 0 .227-1.149zm3.484 10.066a.477.477 0 1 0-.794.53.477.477 0 0 0 .794-.53zm8.539-6.222a.826.826 0 0 0-1.149-.227.826.826 0 1 0 .918 1.375.826.826 0 0 0 .23-1.148zm30.609 4.289a.476.476 0 1 0-.672.676.476.476 0 0 0 .676 0 .483.483 0 0 0 0-.676zm.46-16.262a.476.476 0 0 0-.675 0 .483.483 0 0 0 0 .676.483.483 0 0 0 .676 0 .476.476 0 0 0 0-.676zm-4.218 20.106a.476.476 0 0 0-.676 0 .476.476 0 0 0 0 .675.476.476 0 0 0 .676 0 .476.476 0 0 0 0-.675zm-9.27-1.586a.476.476 0 0 0-.675 0 .48.48 0 0 0 0 .675.483.483 0 0 0 .676 0 .476.476 0 0 0 0-.675zm1.579 1.496a.48.48 0 0 0-.676 0 .48.48 0 0 0 0 .676.475.475 0 0 0 .672 0 .48.48 0 0 0 .004-.676zm5.574-10.91a.48.48 0 0 0-.676 0 .475.475 0 0 0 0 .672.48.48 0 0 0 .676.003.483.483 0 0 0 0-.675zm3.89 5.425a.476.476 0 0 0-.675 0 .476.476 0 0 0 0 .676.48.48 0 0 0 .676 0 .476.476 0 0 0 0-.676zm5.876-3.308a.48.48 0 0 0-.676 0 .48.48 0 0 0 .004.676.476.476 0 1 0 .672-.676zM40.598 54.367a.48.48 0 0 0-.676.004.472.472 0 0 0 0 .672.472.472 0 0 0 .672 0 .48.48 0 0 0 .004-.676zM14.582 14.29a.479.479 0 0 0-.676.676.476.476 0 0 0 .676 0 .476.476 0 0 0 0-.676zm21.973 31.738a.472.472 0 0 0-.672 0 .472.472 0 0 0 0 .672.472.472 0 0 0 .672 0 .472.472 0 0 0 0-.672zm3.34-3.28a.483.483 0 0 0-.676 0 .476.476 0 0 0 0 .675.476.476 0 0 0 .676 0 .476.476 0 0 0 0-.676zm3.484 3.273a.483.483 0 0 0-.676 0 .476.476 0 0 0 0 .675.476.476 0 0 0 .676 0 .48.48 0 0 0 0-.675zm10.144-6.84a.483.483 0 0 0-.675 0 .483.483 0 0 0 0 .675.476.476 0 0 0 .675 0 .476.476 0 0 0 0-.675zM50.59 26.55a.476.476 0 0 0-.676 0 .476.476 0 0 0 0 .677.483.483 0 0 0 .676 0 .48.48 0 0 0 0-.676zM40.082 50.825a.472.472 0 0 0-.672 0 .476.476 0 1 0 .676 0zm6.727-14.449a.483.483 0 0 0-.676 0 .476.476 0 0 0 0 .676.476.476 0 0 0 .676 0 .476.476 0 0 0 0-.676zm-1.024 13.96a.476.476 0 0 0-.676 0 .483.483 0 0 0 0 .677.48.48 0 0 0 .676-.004.472.472 0 0 0 0-.672zm2.89-7.429a.483.483 0 0 0-.675 0 .483.483 0 0 0 0 .676.476.476 0 0 0 .676 0 .476.476 0 0 0 0-.676zm-.905 8.672a.476.476 0 0 0-.676 0 .483.483 0 0 0 0 .676.483.483 0 0 0 .676 0 .476.476 0 0 0 0-.676zM55.707 36.5a.476.476 0 1 0-.672.676.476.476 0 0 0 .676 0 .48.48 0 0 0 0-.676zm-18.219 4.988a.828.828 0 1 0-1.172 1.172.828.828 0 1 0 1.172-1.172zm17.235-6.43a.472.472 0 0 0-.672 0 .48.48 0 0 0-.004.676.483.483 0 0 0 .676 0 .476.476 0 0 0 0-.675zm-4.864 2.848a.476.476 0 0 0-.675 0 .483.483 0 0 0 0 .676.476.476 0 0 0 .675 0 .476.476 0 0 0 0-.676zm-1.312-8.726a.476.476 0 1 0-.676.67.476.476 0 0 0 .676-.67zm.605 2.383a.476.476 0 1 0-.675.67.476.476 0 0 0 .675-.67zm1.395 16.144a.476.476 0 0 0-.676 0 .48.48 0 0 0 0 .676.48.48 0 0 0 .676 0 .476.476 0 0 0 0-.676zm3.828-5.84a.476.476 0 1 0-.673.676.476.476 0 0 0 .673-.676zm-.395 3.297a.476.476 0 0 0-.675 0 .48.48 0 0 0 0 .676.483.483 0 0 0 .675 0 .48.48 0 0 0 0-.676zM42.38 50.52a.483.483 0 0 0-.676 0 .476.476 0 1 0 .672.675.48.48 0 0 0 .004-.675zm8.156-16.958a.476.476 0 1 0-.672.676.476.476 0 0 0 .672-.675zm-5.812 2.934a.476.476 0 0 0-.676 0 .476.476 0 0 0 0 .676.48.48 0 0 0 .676 0 .483.483 0 0 0 0-.676zm3.425 2.988a.472.472 0 0 0-.671 0 .472.472 0 0 0 0 .672.48.48 0 0 0 .675.004.483.483 0 0 0 0-.676zM31.633 42.45a.832.832 0 0 0-1.176 0 .828.828 0 1 0 1.172 0zm18.988 7.489a.476.476 0 1 0-.676.671.476.476 0 1 0 .676-.672zm-3.426-5.5a.476.476 0 1 0-.675.671.48.48 0 0 0 .675.004.483.483 0 0 0 0-.675zm-4.941-1.754a.476.476 0 0 0-.676 0 .476.476 0 0 0 0 .675.48.48 0 0 0 .676 0 .483.483 0 0 0 0-.675zm-.899-1.7a.476.476 0 0 0-.675 0 .476.476 0 1 0 .672.676.48.48 0 0 0 .003-.676zm2.696-2.742a.476.476 0 1 0-.672.676.483.483 0 0 0 .676 0 .48.48 0 0 0-.004-.676zm1.187 6.356a.476.476 0 1 0-.675.67.476.476 0 0 0 .675-.67zm7.422-1.516a.476.476 0 0 0-.676 0 .476.476 0 1 0 .672 0zm-.883-11.496a.479.479 0 0 0-.675.676.476.476 0 0 0 .675 0 .476.476 0 0 0 0-.676zm.98 2.602a.48.48 0 0 0-.675 0 .476.476 0 0 0 0 .675.476.476 0 0 0 .676 0 .48.48 0 0 0 0-.675zm4.708 1.156a.476.476 0 1 0-.672.676.476.476 0 0 0 .676 0 .476.476 0 0 0 0-.676zm-.188-4.196a.475.475 0 1 0-.672.672.475.475 0 1 0 .672-.672zm-7.28 14.262a.836.836 0 0 0-1.177 0 .832.832 0 0 0 0 1.176.832.832 0 0 0 1.176-1.176zm1.648-6.957a.483.483 0 0 0-.676 0 .483.483 0 0 0 0 .676.476.476 0 0 0 .676 0 .476.476 0 0 0 0-.676zM37.37 48.801a.476.476 0 0 0-.676 0 .483.483 0 0 0 0 .676.48.48 0 0 0 .676 0 .476.476 0 0 0 0-.676zm-1.195-4.887a.48.48 0 0 0-.676 0 .48.48 0 0 0 0 .676.48.48 0 0 0 .676 0 .48.48 0 0 0 0-.676zm-.293 3.59a.48.48 0 0 0-.676 0 .483.483 0 0 0 0 .676.476.476 0 0 0 .676 0 .476.476 0 0 0 0-.676zm9.613-6.86a.472.472 0 0 0-.672 0 .476.476 0 1 0 .676 0zm2.191-7.343a.476.476 0 1 0-.672.676.476.476 0 0 0 .672-.676zm5.54 3.605a.476.476 0 0 0-.676 0 .476.476 0 0 0 0 .676.48.48 0 0 0 .676 0 .483.483 0 0 0 0-.676zm-4.082-.926a.476.476 0 1 0-.672.676.476.476 0 0 0 .672-.676zm-7.747 9.008a.476.476 0 0 0-.675 0 .476.476 0 1 0 .672 0zm9.207-15.898a.476.476 0 0 0-.675 0 .483.483 0 0 0 0 .676.48.48 0 0 0 .675-.004.472.472 0 0 0 0-.672zm-2.687 17.93a.476.476 0 1 0 .004.672.475.475 0 0 0 0-.672zm-2.633-4.61a.476.476 0 1 0-.676.672.476.476 0 1 0 .676-.672zm11.63-13.844a.476.476 0 1 0-.677.672.476.476 0 0 0 .676-.672zM42.472 52.72a.476.476 0 0 0-.676 0 .483.483 0 0 0 0 .676.483.483 0 0 0 .676 0 .476.476 0 0 0 0-.676zm-1.008-5.543a.476.476 0 1 0-.672.676.476.476 0 0 0 .672-.676zm13.82-8.574a.476.476 0 1 0-.676.67.476.476 0 0 0 .676-.67zm-3.734-3.192a.856.856 0 0 0-1.207.004.853.853 0 1 0 1.207-.004zm-8.625 19.524a.472.472 0 0 0-.672 0 .472.472 0 0 0 0 .671.472.472 0 0 0 .672 0 .472.472 0 0 0 0-.671zm14.957-21.79a.476.476 0 1 0-.672.676.476.476 0 0 0 .672-.675zM39.074 44.642a.831.831 0 0 0-1.172 1.175.831.831 0 0 0 1.172-1.175zM57.86 27.313a.476.476 0 1 0-.934-.188.476.476 0 1 0 .934.188zm-4.648-.133a.831.831 0 0 0-1.629-.324.832.832 0 0 0 .656.976c.446.09.883-.2.973-.652zM7.984 23.914a.475.475 0 1 0-.934-.184.476.476 0 1 0 .934.184zm5.446-1.73a.48.48 0 0 0-.375-.563.482.482 0 0 0-.563.375.478.478 0 1 0 .938.188zm16.922 26.539a.477.477 0 1 0 0 0zm25.043-22.09a.476.476 0 0 0-.375-.559.474.474 0 0 0-.563.371.48.48 0 0 0 .375.563.482.482 0 0 0 .563-.375zm1.027-3a.47.47 0 0 0-.375-.559.473.473 0 0 0-.559.371.472.472 0 0 0 .375.563.473.473 0 0 0 .559-.375zm-40.895-3.664a.476.476 0 1 0-.934-.188.476.476 0 1 0 .934.188zm-6.8 7.687a.476.476 0 0 0-.375-.558.474.474 0 0 0-.563.37.478.478 0 1 0 .938.188zm-2.254 6.145a.478.478 0 1 0-.937-.188.478.478 0 0 0 .937.188zm26.199 21.828a.476.476 0 0 0-.375-.559.476.476 0 1 0-.188.934.474.474 0 0 0 .563-.375zM9.539 20.535a.477.477 0 1 0-.934-.19.477.477 0 0 0 .934.19zm40.945 3.3a.476.476 0 1 0-.934-.188.476.476 0 1 0 .934.188zm6.098 1.888a.48.48 0 0 0-.375-.563.478.478 0 1 0 .375.563zM8.645 32.359a.476.476 0 1 0-.934-.188.476.476 0 1 0 .934.188zm7.62-14.234a.478.478 0 1 0-.936-.188.478.478 0 0 0 .937.188zM6.798 28.77a.476.476 0 0 0-.375-.56.476.476 0 1 0-.188.934.475.475 0 0 0 .563-.374zm45.953-4.387a.476.476 0 0 0-.375-.559.47.47 0 0 0-.559.375.476.476 0 1 0 .934.184zm-41.86-5.875a.478.478 0 1 0-.937-.188.476.476 0 0 0 .375.559.472.472 0 0 0 .563-.371zM34.384 48.82a.478.478 0 1 0-.937-.188.478.478 0 0 0 .937.188zM7.574 30.457a.476.476 0 1 0-.934-.188.476.476 0 1 0 .934.188zm5.77-2.559a.478.478 0 1 0-.938-.188.478.478 0 0 0 .938.188zm-2.563.098a.476.476 0 1 0-.934-.188.477.477 0 1 0 .934.188zm20.914 23.629a.478.478 0 1 0-.563.379.481.481 0 0 0 .563-.379zm1.621 1.715a.476.476 0 1 0-.934-.188.476.476 0 1 0 .934.188zm-2.296.082a.475.475 0 1 0-.934-.184.476.476 0 1 0 .934.184zM13 20.316a.478.478 0 1 0-.938-.188.478.478 0 0 0 .938.188zm19.43 29.547a.476.476 0 0 0-.375-.558.482.482 0 0 0-.563.375.482.482 0 0 0 .375.562.48.48 0 0 0 .563-.379zM14.027 24.488a.48.48 0 0 0-.379-.562.476.476 0 0 0-.558.375.48.48 0 0 0 .375.562.48.48 0 0 0 .562-.375zm-2.914-1.933a.478.478 0 1 0-.936-.188.478.478 0 0 0 .936.188zm-1.675 7.66a.476.476 0 0 0-.376-.559.476.476 0 1 0-.187.934.478.478 0 0 0 .563-.375zm22.664 17.433a.476.476 0 0 0-.375-.558.476.476 0 1 0-.188.933.48.48 0 0 0 .563-.375zM13.84 29.875a.476.476 0 1 0-.934-.188.476.476 0 1 0 .934.188zm34.629-18.23a.477.477 0 1 0 .066.672.478.478 0 0 0-.066-.672zm-.032 1.933a.478.478 0 1 0-.605.739.478.478 0 0 0 .605-.739zM36.813 6.04a.474.474 0 0 0-.672.066.477.477 0 1 0 .672-.066zm14.066 7.566a.478.478 0 1 0-.606.74.478.478 0 0 0 .606-.74zm.012 1.989a.472.472 0 0 0-.668.062.481.481 0 0 0 .062.676.48.48 0 0 0 .672-.07.47.47 0 0 0-.066-.668zm2.082.933a.477.477 0 1 0-.605.738.477.477 0 1 0 .605-.738zm-7.364-4.32a.474.474 0 0 0-.672.066.477.477 0 1 0 .672-.066zm2.891 3.238a.477.477 0 1 0-.606.737.477.477 0 0 0 .606-.737zm-12.82 35a.476.476 0 1 0-.41.532.472.472 0 0 0 .41-.532zm-.992 7.266a.476.476 0 1 0-.41.531.47.47 0 0 0 .41-.531zM16.69 14.328a.476.476 0 1 0-.945.121.476.476 0 1 0 .945-.121zm23.344 41.84a.473.473 0 0 0-.531-.414.478.478 0 0 0-.414.531c.031.266.273.45.535.414a.473.473 0 0 0 .41-.531zm.035-3.129a.476.476 0 1 0-.945.121.477.477 0 1 0 .945-.12zm-3.265 3.422a.476.476 0 1 0-.946.121.476.476 0 1 0 .946-.121zm-1.75-3.613a.479.479 0 0 0-.535-.414.47.47 0 0 0-.41.53.476.476 0 1 0 .945-.117zm.453 2.207a.475.475 0 0 0-.531-.414.476.476 0 1 0 .531.414zM14.676 16.813a.474.474 0 0 0-.535-.41.47.47 0 0 0-.41.53.477.477 0 0 0 .945-.121zm23.543 34.144a.482.482 0 0 0-.535-.414.477.477 0 1 0 .535.414zM12.977 17.961a.47.47 0 0 0-.532-.41.476.476 0 1 0 .121.945.476.476 0 0 0 .41-.535zM44.46 52.14a.474.474 0 0 0-.535-.41.473.473 0 0 0-.41.53.476.476 0 1 0 .945-.12zM12.828 15.398a.476.476 0 0 0-.535-.41.473.473 0 0 0-.41.532.476.476 0 1 0 .945-.122" fill-rule="evenodd" fill="#231f20"/></svg>