<svg xmlns="http://www.w3.org/2000/svg" width="64" height="64"><path d="M32 63c17.118 0 31-13.882 31-31C63 14.882 49.118 1 32 1 14.882 1 1 14.882 1 32c0 17.118 13.882 31 31 31zM18.046 45.362a.803.803 0 1 0-1.336.892.803.803 0 0 0 1.336-.892zm8.391-5.115a.803.803 0 1 0-1.336.892.803.803 0 0 0 1.336-.892zm14.078-11.122a.803.803 0 1 0 0 1.605.803.803 0 1 0 0-1.605zm9.658-10.012a.803.803 0 1 0 0 1.606.803.803 0 1 0 0-1.606zm-10.387.185a1.148 1.148 0 1 0 0 2.296 1.148 1.148 0 0 0 0-2.296zm-9.663 5.363a1.148 1.148 0 1 0 0 2.296 1.148 1.148 0 0 0 0-2.296zm17.153-.376a1.148 1.148 0 1 0 0 2.295 1.148 1.148 0 0 0 0-2.295zm-8.951 13.53a1.148 1.148 0 1 0 0 2.297 1.148 1.148 0 0 0 0-2.296zm-21.346-9.924a1.148 1.148 0 1 0 0 2.296 1.148 1.148 0 0 0 0-2.296zm2.094-8.323a1.148 1.148 0 1 0 0 2.296 1.148 1.148 0 0 0 0-2.296zm13.369-5.686a1.148 1.148 0 1 0 0 2.296 1.148 1.148 0 0 0 0-2.296zm17.121 25.672a1.148 1.148 0 1 0 0 2.296 1.148 1.148 0 0 0 0-2.296zm-15.978 4.324a1.148 1.148 0 1 0 0 2.295 1.148 1.148 0 0 0 0-2.295zM13.906 36.05a1.148 1.148 0 1 0 0 2.296 1.148 1.148 0 0 0 0-2.296zm16.538-3.195a1.148 1.148 0 1 0 0 2.297 1.148 1.148 0 0 0 0-2.297zm14.15 13.8a1.148 1.148 0 1 0 0 2.296 1.148 1.148 0 0 0 0-2.296zM24.276 12.762a1.148 1.148 0 1 0 0 2.295 1.148 1.148 0 0 0 0-2.295zm1.084 36.873a1.148 1.148 0 1 0 0 2.296 1.148 1.148 0 0 0 0-2.296zM41.774 10.75a1.148 1.148 0 1 0 0 2.296 1.148 1.148 0 0 0 0-2.296zM36.7 51.417a1.148 1.148 0 1 0 0 2.295 1.148 1.148 0 0 0 0-2.295zM10.521 24.159a1.148 1.148 0 1 0 0 2.295 1.148 1.148 0 0 0 0-2.295zm43.06 7.221a1.148 1.148 0 1 0 0 2.296 1.148 1.148 0 0 0 0-2.296zM46.037 21.03a.46.46 0 1 0 0 .923.462.462 0 1 0 0-.923zm-17.28-9.552a.462.462 0 1 0 0 .924.462.462 0 0 0 0-.924zm.008 3.83a.463.463 0 1 0 0 .926.463.463 0 0 0 0-.926zm7.23 8.04a.462.462 0 1 0 0 .923.462.462 0 0 0 0-.924zm11.698 3.941a.462.462 0 1 0 0 .924.462.462 0 0 0 0-.924zm-7.717 4.702a.463.463 0 1 0 0 .925.463.463 0 0 0 0-.925zm3.141-.883a.462.462 0 1 0 0 .923.462.462 0 0 0 0-.923zm-10.151 8.721a.463.463 0 1 0 0 .926.463.463 0 0 0 0-.926zm-5.472-3.456a.462.462 0 1 0 0 .925.462.462 0 0 0 0-.925zm-12.87-2.415a.463.463 0 1 0 0 .925.463.463 0 0 0 0-.925zm4.28-10.695a.461.461 0 0 0-.462.462.461.461 0 1 0 .461-.462zm-1.625 1.456a.462.462 0 1 0 0 .925.462.462 0 0 0 0-.925zm8.025-1.732a.461.461 0 1 0-.002.922.461.461 0 0 0 .002-.922zm12.328-1.19a.462.462 0 1 0 0 .923.462.462 0 0 0 0-.923zm-7.697-2.584a.804.804 0 1 0 .002 1.609.804.804 0 0 0-.002-1.61zm.87 3.597a.461.461 0 1 0 0 .922.461.461 0 0 0 0-.922zm18.606-5.427a.462.462 0 1 0 0 .925.462.462 0 0 0 0-.925zm-4.87 35.12a.463.463 0 1 0 .001.926.463.463 0 0 0-.002-.926zM21.304 34.426a.463.463 0 1 0 0 .925.463.463 0 0 0 0-.925zm12.234 7.285a.462.462 0 1 0 0 .923.462.462 0 0 0 0-.923zm11.642-7.602a.462.462 0 1 0 0 .924.462.462 0 0 0 0-.924zm-7.966 1.668a.462.462 0 1 0 0 .925.462.462 0 0 0 0-.925zm4.542-.538a.462.462 0 1 0 0 .924.462.462 0 0 0 0-.924zm-12.773-4.15a.462.462 0 1 0 0 .924.462.462 0 0 0 0-.924zm-7.077-19.436a.463.463 0 1 0 0 .927.463.463 0 0 0 0-.927zm17.257-1.576a.462.462 0 1 0 0 .924.462.462 0 0 0 0-.924zm-12.049 2.707a.463.463 0 1 0 .002.925.463.463 0 0 0-.002-.925zM43.12 24.36a.462.462 0 1 0 .001.924.462.462 0 0 0-.001-.924zm-4.904-.694a.462.462 0 1 0-.002.923.462.462 0 0 0 .002-.923zm-1.427 4.203a.461.461 0 1 0 0 .923.461.461 0 0 0 0-.923zm5.447-1.572a.463.463 0 1 0 0 .927.463.463 0 0 0 0-.927zm11.474 3.17a.462.462 0 1 0 0 .924.462.462 0 0 0 0-.924zM43.74 16.482a.463.463 0 1 0 0 .926.463.463 0 0 0 0-.926zM32.262 9.057a.462.462 0 1 0 0 .924.462.462 0 0 0 0-.924zm3.766 5.697a.462.462 0 1 0 0 .924.462.462 0 0 0 0-.924zm-6.553-8.055a.462.462 0 1 0 0 .923.462.462 0 0 0 0-.923zm-1.26 20.38a.463.463 0 1 0 0 .927.463.463 0 0 0 0-.926zM34.592 9.2a.462.462 0 1 0-.002.923.462.462 0 0 0 .002-.924zm-16.56 3.084a.462.462 0 1 0 0 .924.462.462 0 0 0 0-.924zm19.432 7.15a.462.462 0 1 0 .001.924.462.462 0 0 0 0-.923zM28.967 53.23a.462.462 0 1 0 0 .924.462.462 0 0 0 0-.924zM15.284 22.698a.462.462 0 1 0 .463.462.462.462 0 0 0-.463-.462zm4.467-5.04a.462.462 0 1 0-.001.924.462.462 0 0 0 0-.924zm.44-5.107a.462.462 0 1 0 0 .923.462.462 0 0 0 0-.923zm4.283-1.637a.463.463 0 1 0 0 .926.463.463 0 0 0 0-.926zm12.523-.617a.463.463 0 0 0 0 .926.463.463 0 0 0 0-.926zm4.377 28.544a.462.462 0 1 0 0 .924.462.462 0 0 0 0-.924zm-4.47-21.06a.462.462 0 1 0 0 .924.462.462 0 0 0 0-.924zm-2.587-1.606a.462.462 0 1 0 0 .924.462.462 0 0 0 0-.924zm-8.835 13.3a.463.463 0 1 0 0 .926.463.463 0 0 0 0-.926zm14.835 7.257a.462.462 0 1 0 0 .924.462.462 0 0 0 0-.924zm-10.749-.984a.463.463 0 1 0 .001.927.463.463 0 0 0 0-.927zm12.673-2.95a.462.462 0 1 0 0 .924.462.462 0 0 0 0-.925zm-8.876-2.984a.462.462 0 1 0 .001.924.462.462 0 0 0 0-.924zm-5.117-7.727a.462.462 0 1 0-.001.923.462.462 0 0 0 0-.923zm12.707-7.625a.462.462 0 1 0 0 .925.462.462 0 0 0 0-.925zm-.495 3.356a.463.463 0 1 0 0 .925.463.463 0 0 0 0-.925zM34.128 7.522a.462.462 0 1 0 0 .924.462.462 0 0 0 0-.924zm2.32.777a.462.462 0 1 0 0 .924.462.462 0 0 0 0-.924zm-8.936-.772a.462.462 0 1 0-.001.923.462.462 0 0 0 0-.923zm1.698 1.738a.462.462 0 1 0-.002.924.462.462 0 0 0 .002-.924zm5.632 3.726a.463.463 0 1 0 0 .925.463.463 0 0 0 0-.925zm3.645 1.457a.463.463 0 1 0 0 .926.463.463 0 0 0 0-.926zm-10.81 9.792a.461.461 0 1 0-.002.922.461.461 0 0 0 .001-.922zm-5.236-1.69a.805.805 0 0 0-.804.804c0 .445.36.802.804.802a.804.804 0 0 0 0-1.607zm1.087 3.046a.462.462 0 1 0 0 .923.462.462 0 0 0 0-.923zM8.745 41.11a.463.463 0 1 0 0 .925.463.463 0 0 0 0-.925zm44.854-21.79a.462.462 0 1 0-.001.924.462.462 0 0 0 .001-.924zm-6.254-.344a.462.462 0 1 0 0 .925.462.462 0 0 0 0-.925zm-1.73 12.1a.462.462 0 1 0 0 .924.462.462 0 0 0 0-.924zm-30.403-5.22a.462.462 0 1 0 0 .925.462.462 0 0 0 0-.925zm1.483-4.327a.462.462 0 1 0-.001.924.462.462 0 0 0 0-.924zm1.813-5.346a.463.463 0 1 0 .001.926.463.463 0 0 0 0-.926zm6.589.02a.462.462 0 1 0-.001.923.462.462 0 0 0 .001-.924zm1.683-1.137a.463.463 0 1 0 .001.925.463.463 0 0 0 0-.925zm5.898 12.282a.462.462 0 1 0 0 .924.462.462 0 0 0 0-.924zm-1.894.821a.462.462 0 1 0 0 .924.462.462 0 0 0 0-.924zm13.583-9.4a.803.803 0 1 0 0 1.605.803.803 0 1 0 0-1.605zm-13.214-1.03a.463.463 0 1 0 0 .925.463.463 0 0 0 0-.926zm-7.09.703a.462.462 0 1 0 .001.924.462.462 0 0 0 0-.924zm20.515 10.445a.462.462 0 1 0-.001.924.462.462 0 0 0 .001-.924zm.218-6.01a.462.462 0 1 0 0 .924.462.462 0 0 0 0-.925zM33.4 24.781a.462.462 0 1 0-.002.924.462.462 0 0 0 .002-.924zm5.475 2.627a.462.462 0 1 0 0 .923.462.462 0 0 0 0-.923zM18.61 33.593a.461.461 0 1 0 0 .922.461.461 0 0 0 0-.922zm4.216-1.18a.462.462 0 1 0-.001.923.462.462 0 0 0 0-.923zm-2.45-.536a.805.805 0 1 0 0 1.609.805.805 0 0 0 0-1.61zm3.681 4.314a.462.462 0 1 0 .001.923.462.462 0 0 0-.001-.923zm12.375-11.064a.461.461 0 1 0-.002.923.461.461 0 0 0 .002-.923zm-9.912 9.27a.462.462 0 1 0 0 .924.462.462 0 0 0 0-.924zm16.186-6.172a.462.462 0 1 0 0 .924.462.462 0 0 0 0-.924zm2.876-1.017a.462.462 0 1 0 0 .924.462.462 0 0 0 0-.924zm7.594-5.23a.462.462 0 1 0 0 .924.462.462 0 0 0 0-.925zm-15.08-9.851a.462.462 0 1 0 0 .924.462.462 0 0 0 0-.924zm1.607.747a.462.462 0 1 0 0 .924.462.462 0 0 0 0-.924zm4.513-2.762a.462.462 0 1 0 0 .923.462.462 0 0 0 0-.923zm-3.171-1.41a.462.462 0 1 0 .003.925.462.462 0 0 0-.003-.925zm-9 27.274a.462.462 0 1 0-.001.924.462.462 0 0 0 0-.924zm-1.857 3.682a.462.462 0 1 0 .002.924.462.462 0 0 0-.002-.924zM18.978 14.452a.462.462 0 1 0 0 .925.462.462 0 0 0 0-.925zm.188-4.563a.462.462 0 1 0-.001.923.462.462 0 0 0 .001-.923zm26.956 7.185a.462.462 0 1 0 0 .924.462.462 0 0 0 0-.924zm1.35 5.461a.463.463 0 1 0 .002.925.463.463 0 0 0-.002-.925zm-5.899-6.306a.462.462 0 1 0 0 .925.462.462 0 0 0 0-.925zM32.27 11.9a.461.461 0 1 0-.002.921.461.461 0 0 0 .002-.922zm-.73-4.863a.462.462 0 1 0 0 .923.462.462 0 0 0 0-.923zm-1.194 3.548a.462.462 0 1 0-.001.925.462.462 0 0 0 0-.925zm-9.018 4.363a.803.803 0 1 0-.003 1.606.803.803 0 0 0 .003-1.606zM22.5 9.9a.461.461 0 1 0-.001.923.461.461 0 0 0 .001-.923zm-1.058 15.017a.462.462 0 1 0-.001.923.462.462 0 0 0 0-.923zm-.061 4.027a.462.462 0 1 0 0 .925.462.462 0 0 0 0-.925zm-4.832 3.941a.462.462 0 1 0 0 .924.462.462 0 0 0 0-.924zm16.541-.55a.462.462 0 1 0 0 .925.462.462 0 0 0 0-.925zm-9.957-2.234a.462.462 0 1 0 0 .924.462.462 0 0 0 0-.924zm12.675 7.188a.462.462 0 1 0 .001.924.462.462 0 0 0-.001-.924zm20.387.399a.463.463 0 1 0 0 .926.463.463 0 0 0 0-.926zm-4.738 9.513a.463.463 0 1 0-.001.925.463.463 0 0 0 0-.925zM38.563 33.423a.461.461 0 1 0-.001.923.461.461 0 0 0 .001-.923zM27.072 17.897a.462.462 0 1 0 0 .925.462.462 0 0 0 0-.925zm.094 2.58a.462.462 0 1 0 0 .924.462.462 0 0 0 0-.924zm8.1 10.538a.462.462 0 1 0-.001.924.462.462 0 0 0 .001-.924zm-3.992-.311a.461.461 0 1 0 0 .923.461.461 0 0 0 0-.923zm3.022 5.142a.462.462 0 1 0 0 .924.462.462 0 0 0 0-.924zm8.21-14.092a.462.462 0 1 0 0 .924.462.462 0 0 0 0-.924zm-.324-2.38a.461.461 0 1 0-.002.922.461.461 0 0 0 .002-.923zm-7.994-.996a.462.462 0 1 0-.001.924.462.462 0 0 0 0-.924zm-9.15 9.055a.462.462 0 1 0 0 .925.462.462 0 0 0 0-.925zm1.028-2.178a.462.462 0 1 0 0 .924.462.462 0 0 0 0-.924zm-4.134 2.057a.461.461 0 1 0 0 .923.461.461 0 0 0 0-.923zm.888-10.396a.462.462 0 1 0 0 .924.462.462 0 0 0 0-.924zm5.028 12.146a.462.462 0 1 0 0 .925.462.462 0 0 0 0-.925zm-3.214 4.864a.462.462 0 1 0 0 .925.462.462 0 0 0 0-.925zM38.75 7.751a.462.462 0 1 0 0 .924.462.462 0 0 0 0-.924zm4.175 6.636a.462.462 0 1 0-.002.923.462.462 0 0 0 .002-.923zM38.68 16.85a.462.462 0 1 0 0 .925.462.462 0 0 0 0-.925zm-4.7 6.143a.462.462 0 1 0 .002.924.462.462 0 0 0-.001-.924zm3.772 6.917a.463.463 0 1 0 0 .926.463.463 0 0 0 0-.926zm-5.351-8.181a.463.463 0 1 0 0 0zm-7.855-13.73a.461.461 0 1 0 0 .922.461.461 0 0 0 0-.922zm10.056 3.02a.463.463 0 1 0 .001.926.463.463 0 0 0-.001-.926zm-8.327 20.218a.802.802 0 1 0 0 1.606.803.803 0 1 0 0-1.606zm.376-22.006a.805.805 0 1 0 .004 1.61.805.805 0 0 0-.004-1.61zm-2.215 11.2a.462.462 0 1 0 0 .925.462.462 0 0 0 0-.924zm15.26 14.403a.462.462 0 1 0 0 .924.462.462 0 0 0 0-.924zm1.059-9.852a.462.462 0 1 0 0 .924.462.462 0 0 0 0-.924zm9.915-2.837a.462.462 0 1 0 0 .923.462.462 0 0 0 0-.923zM37.533 31.74a.462.462 0 1 0 0 .925.462.462 0 0 0 0-.925zm7.563-17.207a.463.463 0 1 0 0 .926.463.463 0 0 0 0-.926zm-4.968 8.35a.463.463 0 1 0 .002.925.463.463 0 0 0-.002-.926zm-5.815 15.582a.462.462 0 1 0 0 .924.462.462 0 0 0 0-.924zm-2.744-.504a.463.463 0 1 0 .002.926.463.463 0 0 0-.002-.926zm3.89-4.445a.46.46 0 1 0-.001.922.46.46 0 0 0 0-.922zm-13.4-13.633a.462.462 0 1 0-.002.923.462.462 0 0 0 .002-.923zm-2.165 6.596a.463.463 0 1 0 .003.926.463.463 0 0 0-.003-.926zm14.852-5.868a.462.462 0 1 0 0 .924.462.462 0 0 0 0-.924zm.224 6.762a.463.463 0 1 0 0 .925.463.463 0 0 0 0-.925zm-2.677-7.884a.463.463 0 1 0 .002.925.463.463 0 0 0-.002-.925zm-2.287-5.63a.463.463 0 1 0 0 .927.463.463 0 0 0 0-.927zm-.84 3.359a.461.461 0 0 0-.46.462.461.461 0 1 0 .923 0 .462.462 0 0 0-.463-.462zM17.773 35.729a.462.462 0 1 0-.769.513.462.462 0 0 0 .769-.513zm9.763 7.603a.462.462 0 1 0-.77.513.462.462 0 0 0 .77-.513zm-8.448-2.06a.463.463 0 1 0-.77.515.463.463 0 0 0 .77-.514zm-2.54 8.625a.462.462 0 1 0-.769.512.462.462 0 0 0 .77-.512zM8.936 34.195a.463.463 0 1 0-.769.516.463.463 0 0 0 .77-.516zm3.195 4.486a.461.461 0 1 0-.768.51.461.461 0 0 0 .768-.51zm3.367 3.82a.463.463 0 1 0-.769.516.463.463 0 0 0 .769-.515zm1.222 5.3a.462.462 0 1 0-.769.511.462.462 0 0 0 .769-.511zM8 36.924a.463.463 0 1 0 0 0zm21.127 8.768a.461.461 0 1 0-.768.512.461.461 0 0 0 .768-.512zm-7.883.655a.462.462 0 1 0-.768.515.462.462 0 0 0 .768-.515zm8.594 9.199a.462.462 0 1 0-.768.512.462.462 0 0 0 .768-.512zM20.26 52.21a.462.462 0 1 0-.769.512.462.462 0 0 0 .77-.512zm-3.343-20.853a.463.463 0 1 0-.769.516.463.463 0 0 0 .77-.516zm4.066 18.838a.461.461 0 1 0-.767.513.461.461 0 0 0 .767-.513zm1.794 4.857a.462.462 0 1 0-.769.514.462.462 0 0 0 .769-.514zm-10.1-22.34a.463.463 0 1 0-.77.514.463.463 0 0 0 .77-.513zm9.029 15.703a.461.461 0 1 0-.769.513.462.462 0 1 0 .769-.513zm.254-4.068a.462.462 0 1 0-.768.512.462.462 0 0 0 .768-.512zm.81-5.226a.463.463 0 1 0-.77.514.463.463 0 0 0 .77-.514zM11.28 40.335a.462.462 0 1 0-.769.511.462.462 0 0 0 .769-.51zm9.954-3.745a.463.463 0 1 0-.77.515.463.463 0 0 0 .77-.515zm7.92 13.073a.461.461 0 1 0-.768.512.461.461 0 0 0 .767-.512zM22.99 50.79a.463.463 0 1 0-.769.514.463.463 0 0 0 .769-.514zm6.15-9.545a.462.462 0 1 0-.768.513.462.462 0 0 0 .768-.513zm-1.69 12.272a.461.461 0 1 0-.768.512.461.461 0 0 0 .768-.512zm.312 1.864a.462.462 0 1 0-.769.513.462.462 0 0 0 .769-.513zM24.124 43.69a.463.463 0 0 0-.769.514.461.461 0 1 0 .769-.514zm.148 2.584a.463.463 0 1 0-.77.514.463.463 0 0 0 .77-.514zm-12.29-3.55a.462.462 0 1 0-.768.512.462.462 0 0 0 .769-.512zM13.72 41a.463.463 0 1 0-.769.517.463.463 0 0 0 .77-.517zm2.26-1.763a.463.463 0 1 0-.769.515.463.463 0 0 0 .77-.515zm1.362-1.676a.462.462 0 1 0-.77.513.462.462 0 0 0 .77-.513zm1.902.236a.463.463 0 1 0-.769.516.463.463 0 0 0 .77-.516zm2.504 15.696a.462.462 0 1 0-.768.514.462.462 0 0 0 .768-.514zM20.53 42.845a.462.462 0 1 0-.77.512.462.462 0 0 0 .77-.512zm-2.005.588a.463.463 0 1 0-.77.513.463.463 0 0 0 .77-.513zm-9.602-4.187a.462.462 0 1 0-.767.514.462.462 0 0 0 .767-.514zm10.289 10.64a.461.461 0 1 0-.769.51.461.461 0 0 0 .769-.51zm7.17-2.88a.463.463 0 1 0-.769.515.463.463 0 0 0 .77-.514zm1.396 1.018a.462.462 0 1 0-.768.515.462.462 0 0 0 .768-.515zM15.052 31.736a.462.462 0 1 0-.768.513.462.462 0 0 0 .768-.513zm-2.595-1.874a.462.462 0 1 0-.767.514.462.462 0 0 0 .767-.514zm12.921 23.103a.463.463 0 1 0-.77.516.463.463 0 0 0 .77-.516zm3.426-14.257a.462.462 0 1 0-.768.513.462.462 0 0 0 .768-.513zm-4.87 3.233a.461.461 0 1 0-.768.511.461.461 0 0 0 .768-.51zm2.39-3.855a.462.462 0 1 0-.768.513.462.462 0 0 0 .768-.513zm-1.581.552a.463.463 0 1 0-.77.514.463.463 0 0 0 .77-.514zm-4.876-8.613a.461.461 0 1 0-.768.512.461.461 0 0 0 .768-.512zM17.04 41.044a.462.462 0 1 0-.768.513.462.462 0 0 0 .768-.513zm1.084 10.431a.462.462 0 1 0-.768.515.462.462 0 0 0 .768-.515zm5.368 1.302a.46.46 0 1 0-.767.513.46.46 0 0 0 .64.126.459.459 0 0 0 .127-.64zm-3.645-7.908a.462.462 0 1 0-.77.514.462.462 0 0 0 .77-.514zM10.84 34.49a.462.462 0 1 0-.768.513.462.462 0 0 0 .768-.513zm19.413 9.739a.462.462 0 1 0-.77.513.462.462 0 0 0 .77-.513zM25.548 55.48a.463.463 0 1 0-.77.513.463.463 0 0 0 .77-.513zm-2.077-7a.463.463 0 1 0-.769.515.463.463 0 0 0 .769-.514zm2.334-3.613a.462.462 0 1 0-.769.514.462.462 0 0 0 .769-.514zm-6.417 2.859a.462.462 0 1 0-.768.513.462.462 0 0 0 .768-.513zM15.32 45.98a.462.462 0 1 0 0 0zm-1.803-1.515a.463.463 0 0 0-.77.514.463.463 0 0 0 .77-.514zm6.208-4.927a.462.462 0 1 0-.77.514.462.462 0 0 0 .77-.514zM28.1 51.1a.463.463 0 0 0-.77.514.463.463 0 0 0 .77-.514zM10.8 44.175a.463.463 0 1 0-.768.516.463.463 0 0 0 .768-.516zm1.705-8.711a.463.463 0 1 0-.768.516.463.463 0 0 0 .768-.516zm18.913 21.383a.462.462 0 1 0-.767.514.462.462 0 0 0 .767-.514zm-21.1-19.767a.803.803 0 1 0-1.335.893.803.803 0 1 0 1.336-.893zm3.376 9.753a.463.463 0 1 0-.77.517.463.463 0 0 0 .77-.517zm8.272-6.026a.803.803 0 1 0-1.335.891.803.803 0 0 0 1.335-.891zm29.654 4.156a.46.46 0 1 0 0 .653.462.462 0 0 0 0-.653zm.446-15.756a.462.462 0 1 0-.002.653.46.46 0 0 0 0-.653zm-4.089 19.478a.462.462 0 1 0-.654.654.462.462 0 0 0 .654-.654zm-8.98-1.537a.462.462 0 1 0-.653.653.462.462 0 0 0 .654-.653zm1.528 1.45a.462.462 0 1 0-.653.653.462.462 0 0 0 .653-.653zm5.4-10.57a.462.462 0 1 0-.652.655.462.462 0 0 0 .652-.655zm3.77 5.255zm5.693-3.203a.462.462 0 1 0-.654.654.462.462 0 0 0 .654-.654zm-15.06 13.59a.463.463 0 1 0-.653.655.463.463 0 0 0 .653-.656zm-25.2-38.826a.462.462 0 1 0-.653.653.462.462 0 0 0 .653-.653zm21.286 30.744a.463.463 0 1 0-.653.655.463.463 0 0 0 .653-.655zm3.233-3.176a.462.462 0 1 0 .002 0zm3.377 3.171a.463.463 0 1 0-.655.655.463.463 0 0 0 .655-.655zm9.83-6.626a.463.463 0 1 0-.002.654.462.462 0 0 0 0-.654zm-2.845-12.236a.462.462 0 1 0-.654.652.462.462 0 0 0 .654-.652zM39.831 50.235a.46.46 0 1 0-.653.653.462.462 0 0 0 .655-.653zm6.514-13.996a.461.461 0 1 0-.653.654.462.462 0 1 0 .653-.654zm-.99 13.523a.461.461 0 1 0-.653.652.461.461 0 0 0 .653-.652zm2.8-7.195a.461.461 0 1 0-.654.651.461.461 0 0 0 .654-.65zm-.878 8.399a.463.463 0 1 0-.654.655.463.463 0 0 0 .654-.655zm7.69-14.605a.462.462 0 1 0 .002 0zm-17.65 4.83a.804.804 0 1 0 0 1.136.801.801 0 0 0 0-1.136zm16.696-6.228a.462.462 0 1 0 .001 0zm-4.712 2.76a.462.462 0 1 0 .001 0zm-1.273-8.457a.463.463 0 0 0-.653.654.461.461 0 1 0 .653-.654zm.587 2.31a.463.463 0 1 0 0 .653.462.462 0 0 0 0-.654zm1.352 15.64a.462.462 0 1 0-.654.654.462.462 0 0 0 .654-.653zm3.71-5.658a.462.462 0 1 0-.654.653.462.462 0 0 0 .654-.653zm-.384 3.194a.463.463 0 1 0-.654.656.463.463 0 0 0 .654-.656zm-11.24 5.19a.463.463 0 1 0-.654.656.463.463 0 0 0 .654-.656zm7.904-16.428a.462.462 0 1 0-.653.654.462.462 0 0 0 .653-.654zm-5.633 2.842a.462.462 0 1 0-.653.654.462.462 0 0 0 .653-.654zm3.32 2.894a.461.461 0 1 0-.652.653.462.462 0 1 0 .654-.653zm-16 2.872a.804.804 0 1 0-.003 1.137.802.802 0 0 0 0-1.137zm18.395 7.254a.462.462 0 1 0-.654.653.462.462 0 0 0 .654-.653zm-3.32-5.328a.463.463 0 1 0-.652.656.463.463 0 0 0 .652-.656zm-4.786-1.698a.463.463 0 1 0-.654.655.463.463 0 0 0 .654-.655zm-.871-1.646a.462.462 0 1 0-.655.654c.18.181.473.181.654 0a.461.461 0 0 0 0-.654zm2.614-2.656a.462.462 0 1 0-.654.652.462.462 0 0 0 .654-.652zm1.148 6.154a.462.462 0 1 0 .001 0zm7.19-1.466a.462.462 0 1 0-.001.653.46.46 0 0 0 0-.653zM51.16 31.6a.462.462 0 1 0-.653.653.462.462 0 0 0 .653-.653zm.948 2.52a.461.461 0 1 0 .001 0zm4.562 1.119a.462.462 0 1 0 .003 0zm-.181-4.065a.463.463 0 0 0-.653.652.462.462 0 1 0 .653-.652zm-7.057 13.817a.805.805 0 1 0-1.136 1.14.805.805 0 0 0 1.136-1.14zm1.599-6.739a.462.462 0 1 0-.654.653.462.462 0 0 0 .654-.653zM37.203 48.276a.46.46 0 1 0-.653.653.462.462 0 1 0 .654-.653zm-1.158-4.733a.462.462 0 1 0-.655.652.462.462 0 0 0 .655-.652zm-.284 3.477a.463.463 0 1 0-.653.655.463.463 0 0 0 .653-.655zm9.315-6.647zm2.123-7.113a.463.463 0 1 0-.654.654.463.463 0 0 0 .654-.654zm5.363 3.494a.462.462 0 1 0-.654.652.462.462 0 0 0 .654-.652zm-3.953-.896a.463.463 0 1 0 .001 0zm-7.506 8.724a.463.463 0 0 0-.655.654.461.461 0 1 0 .653-.654zm8.922-15.403a.463.463 0 1 0 0 .654.462.462 0 0 0 0-.654zm-2.603 17.37a.463.463 0 1 0 .001 0zm-2.553-4.465a.462.462 0 1 0 .001 0zm11.265-13.41a.46.46 0 1 0-.653.652.463.463 0 0 0 .653-.653zM42.146 52.07a.462.462 0 1 0-.654.653.462.462 0 0 0 .654-.653zm-.976-5.369a.462.462 0 1 0-.654.654.462.462 0 0 0 .654-.654zm13.387-8.308a.463.463 0 1 0-.654.656.463.463 0 0 0 .654-.656zm-3.617-3.089a.826.826 0 1 0 .001 0zm-8.355 18.911a.462.462 0 1 0-.652.654.462.462 0 0 0 .652-.654zm14.49-21.107a.461.461 0 1 0-.653.652.461.461 0 0 0 .653-.652zM38.854 44.246a.805.805 0 0 0-1.138 0 .805.805 0 0 0 1.138 1.138.804.804 0 0 0 0-1.138zM57.053 27.46a.461.461 0 1 0-.905-.18.461.461 0 0 0 .905.18zm-4.506-.128a.804.804 0 1 0-1.577-.312.804.804 0 0 0 1.577.312zM8.736 24.168a.461.461 0 1 0-.907-.18.463.463 0 0 0 .907.18zm5.274-1.68a.462.462 0 1 0-.905-.18.462.462 0 0 0 .905.18zm16.392 25.713a.463.463 0 0 0-.907-.18.462.462 0 0 0 .907.18zm24.26-21.4a.462.462 0 1 0-.907-.181.462.462 0 0 0 .907.181zm.998-2.906a.462.462 0 1 0-.544.364c.251.05.494-.114.544-.364zm-39.617-3.552a.462.462 0 1 0-.907-.18.462.462 0 0 0 .907.18zm-6.59 7.45a.462.462 0 1 0-.906-.181.462.462 0 0 0 .906.18zm-2.184 5.95a.462.462 0 1 0-.905-.182.462.462 0 0 0 .905.183zm25.38 21.15a.461.461 0 1 0-.906-.18.462.462 0 0 0 .907.18zm-22.407-34a.462.462 0 1 0-.907-.181.462.462 0 0 0 .907.18zm39.665 3.198a.461.461 0 1 0-.904-.181.461.461 0 0 0 .904.181zm5.906 1.828a.462.462 0 1 0-.906-.182.462.462 0 0 0 .906.182zM9.375 32.346a.463.463 0 1 0-.907-.179.463.463 0 0 0 .907.18zm7.382-13.789a.463.463 0 1 0-.907-.18.463.463 0 0 0 .907.18zM7.584 28.872a.462.462 0 1 0-.905-.18.462.462 0 0 0 .905.18zm44.518-4.25a.462.462 0 1 0-.906-.181.462.462 0 0 0 .906.18zM11.55 18.928a.463.463 0 1 0-.908-.18.463.463 0 0 0 .908.18zm22.758 29.365a.461.461 0 1 0-.906-.18.462.462 0 1 0 .906.18zM8.338 30.505a.461.461 0 1 0-.905-.182.461.461 0 0 0 .905.182zm5.588-2.479a.462.462 0 1 0-.907-.18.462.462 0 0 0 .907.18zm-2.481.094a.463.463 0 1 0 0 0zm20.259 22.893a.461.461 0 1 0-.908-.18.462.462 0 1 0 .908.18zm1.573 1.66a.462.462 0 1 0-.906-.182.462.462 0 0 0 .906.181zm-2.226.08a.462.462 0 1 0-.907-.182.462.462 0 0 0 .907.183zM13.592 20.682a.463.463 0 1 0-.907-.179.463.463 0 0 0 .907.18zm18.825 28.626a.463.463 0 1 0-.908-.179.463.463 0 0 0 .908.179zM14.588 24.722a.462.462 0 1 0-.907-.179.462.462 0 0 0 .907.18zm-2.824-1.873a.462.462 0 1 0-.906-.181.462.462 0 0 0 .906.18zm-1.621 7.421a.462.462 0 1 0-.544.364.462.462 0 0 0 .544-.364zm21.955 16.89a.462.462 0 1 0-.906-.18.462.462 0 0 0 .906.18zm-17.69-17.22a.46.46 0 0 0-.363-.542.463.463 0 1 0 .363.542zm33.547-17.658a.462.462 0 1 0-.585.715.462.462 0 0 0 .585-.715zm-.032 1.873a.459.459 0 0 0-.65.063.462.462 0 1 0 .649-.063zM36.66 6.85a.462.462 0 1 0-.587.712.462.462 0 0 0 .587-.712zm13.628 7.33a.462.462 0 1 0 .063.65.461.461 0 0 0-.064-.65zm.012 1.925a.462.462 0 1 0 .065.65.461.461 0 0 0-.065-.65zm2.015.908a.462.462 0 1 0-.586.715.462.462 0 0 0 .586-.715zm-7.133-4.19a.462.462 0 1 0-.586.716.462.462 0 0 0 .586-.715zm2.8 3.14a.462.462 0 1 0-.588.714.462.462 0 0 0 .588-.714zM35.566 49.867a.463.463 0 1 0-.917.12.463.463 0 0 0 .917-.12zm-.961 7.039a.462.462 0 1 0-.4.517.462.462 0 0 0 .4-.517zM17.17 14.881a.461.461 0 1 0-.915.115.461.461 0 0 0 .915-.115zm22.615 40.53a.462.462 0 1 0-.916.117.462.462 0 0 0 .916-.117zm.035-3.029a.462.462 0 1 0-.917.116.462.462 0 0 0 .917-.116zm-3.165 3.315a.462.462 0 1 0-.917.116.462.462 0 0 0 .917-.116zm-1.697-3.502a.462.462 0 1 0-.917.115.462.462 0 0 0 .917-.115zm.442 2.138a.463.463 0 0 0-.917.117.463.463 0 0 0 .917-.117zM15.218 17.288a.463.463 0 1 0-.919.118.463.463 0 0 0 .919-.118zm22.806 33.076a.463.463 0 1 0-.917.118.463.463 0 0 0 .917-.118zM13.572 18.4a.462.462 0 1 0-.916.116.462.462 0 0 0 .916-.116zm30.5 33.11a.462.462 0 1 0-.915.117.462.462 0 0 0 .916-.116zM13.429 15.919a.463.463 0 0 0-.918.117.464.464 0 0 0 .918-.117" fill="#231f20" fill-rule="evenodd"/></svg>