<svg xmlns="http://www.w3.org/2000/svg" width="64" height="64"><path d="M28.513 62.806c-10.709-1.21-20.205-8.111-24.672-17.931C.087 36.62.052 27.617 3.742 19.29 9.004 7.418 21.68-.052 34.574 1.12c7.528.685 14.066 3.723 19.323 8.98 9.212 9.212 11.678 22.885 6.27 34.774-5.52 12.138-18.392 19.429-31.654 17.931zm3.228-11.178c-.066-.4-.121-1.442-.122-2.316l-.002-1.588-.922-.114c-.506-.063-1.653-.283-2.547-.49-5.893-1.365-10.479-6.116-11.766-12.189-.531-2.507-.287-6.095.582-8.538.166-.467.302-.88.302-.92 0-.039-.95-.547-2.111-1.13l-2.111-1.058-.5 1.397c-1.555 4.34-1.656 8.855-.298 13.253 1.188 3.846 4.073 7.92 7.302 10.314 3.299 2.445 7.612 4.037 11.076 4.088l1.237.018-.12-.727zm5.436.13c5.72-1.437 10.966-5.804 13.537-11.267 1.547-3.288 2.252-7.425 1.852-10.868-.125-1.073-.443-2.694-.706-3.602-.548-1.891-1.731-4.567-1.977-4.47-.708.284-3.888 2.435-3.824 2.588l.57 1.37c.77 1.854 1.101 3.327 1.217 5.417a15.655 15.655 0 0 1-5.02 12.411c-2.274 2.11-4.407 3.244-7.38 3.92l-1.502.343v1.478c0 .812.055 1.881.123 2.375l.123.898.798-.122c.439-.067 1.424-.279 2.19-.47zm-18.02-29.51c5.942-7.817 17.09-8.653 24.022-1.8l1.576 1.558 1.956-1.27 1.957-1.27-1.01-1.235c-1.887-2.304-5.118-4.576-8.284-5.826-3.1-1.223-7.492-1.67-10.764-1.095-4.423.778-8.11 2.69-11.258 5.837-1.376 1.375-3.34 3.91-3.158 4.075.125.114 3.945 2.024 4.066 2.034.067.006.47-.448.896-1.008z"/></svg>