<svg xmlns="http://www.w3.org/2000/svg" width="64pt" height="64pt" viewBox="0 0 64 64"><path d="M30.621 63.969c-9.39-.426-18.039-4.907-23.86-12.371A31.999 31.999 0 0 1 .11 29.246c.43-5.238 2.2-10.351 5.11-14.797C9.64 7.707 16.395 2.9 24.176.957a32.105 32.105 0 0 1 14.883-.16c6.617 1.512 12.726 5.187 17.148 10.316 4.074 4.723 6.648 10.375 7.5 16.473.215 1.539.293 2.723.293 4.445 0 1.762-.078 2.946-.305 4.532-1.152 8.066-5.304 15.32-11.707 20.457a32.01 32.01 0 0 1-9.625 5.273 32.035 32.035 0 0 1-11.742 1.676zm-8.605-6.614c.734-.398 1.047-.632 1.668-1.23 1.918-1.855 4.218-5.27 6.132-9.102C31.703 43.25 33 39.574 33.41 36.852c.11-.735.09-.954-.16-1.68-.11-.32-.258-.738-.324-.926l-.13-.34-.335 1.008c-.5 1.508-2.055 5.488-3.066 7.863-1.918 4.485-4.012 8.102-7.06 12.176-.589.79-.769 1.082-.862 1.41-.09.305-.078.524.05.883.059.172.114.313.118.313.004 0 .172-.09.375-.204zm18.347-.609c.125-.086.266-.2.313-.25.11-.121.23-.363.304-.617.07-.23.07-.316.036-2.488-.032-1.63-.008-2.524.097-3.762.125-1.54.38-3.215.707-4.703l.102-.473.715-.023c3.054-.094 6.41-.649 8.96-1.48 1.157-.38 2.352-.907 2.973-1.313.297-.2.735-.578.992-.867l.153-.168-.227-.2c-.316-.28-.465-.343-.832-.34-.351 0-.386.008-1.336.352-3.457 1.25-6.386 1.89-9.648 2.117-.89.063-1.242.063-1.242.012 0-.059.297-1.059.554-1.86.211-.648.235-.71.293-.69 1.297.41 2.325.55 2.961.398.172-.04.817-.282.817-.305 0-.031-.403-.512-.602-.723a2.683 2.683 0 0 0-.336-.304c-.074-.051-.527-.27-1.008-.489l-1.043-.468-.171-.079.117-.316c.062-.176.414-1.121.785-2.105.367-.98.66-1.79.648-1.801-.008-.008-.25.14-.53.332-1.216.828-1.38.972-1.727 1.531-.231.371-.61 1.047-.766 1.36-.059.12-.117.218-.133.218-.043 0-1.176-.562-2-.992-1.598-.828-2.629-1.457-3.363-2.047a2.631 2.631 0 0 0-.426-.281c-.164-.078-.21-.082-.586-.082a3.281 3.281 0 0 0-.86.11c-.25.058-.46.109-.468.116-.02.02.316.66.45.864.605.894 2.218 2.133 4.25 3.273.362.203 1.995 1.027 2.112 1.067.016.003-.035.175-.109.382-.281.758-.523 1.512-.879 2.723l-.07.238h-.715c-.73 0-1.906-.035-3.71-.113a35.728 35.728 0 0 0-1.036-.035c-.02.02 1.129 1.074 1.3 1.191.239.164.446.242.926.36.641.152 1.43.27 2.36.355.222.02.41.043.418.047.004.008-.059.332-.137.723a40.964 40.964 0 0 0-.742 5.285c-.05.734-.05 2.43 0 2.996.11 1.21.293 2.055.57 2.617.192.387.489.867.535.867.016 0 .13-.07.254-.16zM11.47 48.684c.222-.094.312-.153.422-.278.285-.316.375-.61.48-1.527.441-4.016 1.23-7.36 2.48-10.531l.165-.418.285.812c.336.965.531 1.485.84 2.258.32.797.785 1.898.816 1.93.031.03.41-1.395.457-1.72.063-.437.078-.905.04-1.269-.032-.265-.188-.93-.61-2.597l-.57-2.242.632-1.258c.348-.696.942-1.852 1.32-2.578.38-.723.688-1.32.688-1.325 0-.011-.316.11-.977.368a6.248 6.248 0 0 0-.75.351c-.304.195-.746.727-1.3 1.555-.117.176-.219.316-.23.316-.009 0-.048-.14-.087-.316a113.055 113.055 0 0 1-.742-3.41c-.316-1.578-.734-4.09-.734-4.407 0-.082.074-.16.5-.535 2.613-2.316 5.304-4.27 10.867-7.886a209.84 209.84 0 0 0 1.809-1.18c.054-.04-.028-.043-.684-.024-1.488.04-1.816.086-2.383.329-2.691 1.148-6.21 3.449-9.676 6.335-.363.301-.664.547-.672.547-.043 0-.113-1.082-.148-2.382a60.21 60.21 0 0 1 0-2.532c.016-.847.023-1.55.02-1.554-.028-.028-.79.257-.915.343-.41.286-.699.918-.816 1.813-.164 1.246-.172 3.848-.016 5.594l.032.351-.27.25c-1.613 1.504-3.004 2.953-4.027 4.207-.961 1.176-1.781 2.41-2.067 3.13-.097.237-.378 1.206-.378 1.3 0 .043.5.039.734-.004.355-.066.77-.328 1.121-.703.098-.106.426-.492.723-.86 1.261-1.554 3.16-3.667 4.238-4.718.21-.203.187-.239.27.355.308 2.238.886 5.055 1.562 7.606l.277 1.047-.168.355c-1.515 3.242-2.785 7.473-3.168 10.578-.12.945-.132 1.203-.132 2.18 0 .914.007 1.043.07 1.332.11.496.305 1.129.351 1.129.024 0 .168-.055.32-.117zm7.8-4.97c.465-.276.641-.405 1.34-.968.938-.754 1.258-1.035 2.012-1.777.594-.582 1.442-1.489 1.738-1.864a.621.621 0 0 1 .13-.136c.007 0 .034.168.058.379.152 1.445.316 2.297.515 2.672.067.12.47.652.5.656.036.004.43-.653.508-.848.215-.535.285-1.195.262-2.484-.02-.899-.05-1.38-.156-2.188l-.04-.297.43-.609a53.396 53.396 0 0 0 2.977-4.754l.34-.61 1.512-.007c2.101-.016 3.656-.149 5.628-.492l.438-.075.441.286c1.922 1.242 3.793 2.097 6.09 2.78.313.095 1.406.376 1.531.395.043.004.27.047.504.094.235.047.614.113.848.149.23.039.465.074.52.082l.097.015v.871c0 .567.016.953.043 1.102.04.23.266 1.16.285 1.184.02.02.47-.188.61-.278.066-.043.172-.156.234-.25.191-.289.238-.504.344-1.496.054-.504.097-.922.097-.934 0-.011.708-.019 1.57-.019 1.825 0 2.653-.063 4.145-.309 1.125-.187 2.832-.586 3.426-.8l.43-.153-.137-.195c-.246-.352-.5-.598-.742-.719-.43-.215-.738-.226-1.836-.074-1.465.207-3 .316-4.461.32-1.113 0-2.004-.031-2.074-.074-.106-.066.492-2.965.953-4.621.281-1.012.809-2.59 1.191-3.574.028-.07.04-.067.742.25 1.086.484 3.497 1.629 4.614 2.187.21.106.386.18.386.168 0-.054-.648-1.449-.757-1.625-.23-.39-.594-.699-1.54-1.32a18.982 18.982 0 0 0-2.003-1.156c-.367-.192-.672-.348-.676-.352-.02-.016.508-1.223 1.43-3.262.285-.629.515-1.152.515-1.16 0-.027-1.34.594-1.496.696-.226.144-.406.351-.722.832-.352.527-.575.918-.95 1.64-.16.317-.308.567-.328.563-.02-.008-.328-.125-.687-.266-2.25-.883-4.766-1.621-6.953-2.039a7.455 7.455 0 0 1-.66-.145c-.032-.023.288-.41.843-1.015 1.625-1.774 3.508-3.016 6.281-4.145.25-.101.47-.195.48-.21.036-.032-.202-.633-.355-.91-.289-.516-.617-.696-1.082-.587-.39.09-2.328 1.176-3.55 1.989-1.149.765-1.977 1.441-2.887 2.351-.676.68-1.223 1.32-1.621 1.902l-.235.336-.308-.02c-1.774-.112-3.094-.058-3.867.165-.297.086-1.11.398-1.13.437-.007.012.048.153.126.313.195.41.433.605.898.738.227.067.371.082 1.09.121.723.04 1.941.13 1.992.149.028.008-.031.148-.156.379-.984 1.855-1.586 3.441-1.672 4.406-.016.21.078 1.066.125 1.113.008.008.184-.094.387-.226.558-.364.668-.528 1.62-2.434.657-1.305.95-1.852 1.368-2.555.238-.398.273-.441.355-.441.153 0 1.77.281 2.43.422a37.404 37.404 0 0 1 5.922 1.793c.426.168.512.21.492.254a42.283 42.283 0 0 0-1.008 2.922c-.539 1.78-.91 3.328-1.187 4.976-.07.406-.137.75-.145.762-.023.02-.39-.035-1.011-.16-1.586-.317-3.164-.82-4.82-1.543-.544-.235-1.516-.703-1.516-.73 0-.012.187-.075.414-.145 1.183-.352 2.734-1.016 3.164-1.356a2.58 2.58 0 0 0 .324-.328c.254-.328.918-1.316.89-1.324-.015-.004-.62.16-1.343.363-2.441.692-3.766 1.035-5.129 1.336l-.687.152-.536-.332a69.99 69.99 0 0 1-1.293-.832l-.757-.5-1.059-.18a25.754 25.754 0 0 0-1.074-.171c-.004.008.18.262.41.566.41.543.754.899 1.637 1.696l.183.168-.12.02c-.208.03-1.395.148-1.895.183-.72.05-2.606.082-2.606.039 0-.016.121-.285.274-.598 1.93-4.016 3.273-8.309 3.734-11.945.04-.297.078-.547.09-.559.012-.012.277-.11.594-.219 1.613-.566 3.144-.953 4.59-1.16l.601-.086.375-.304c.207-.168.434-.356.504-.414l.129-.114-.153-.246c-.27-.433-.546-.62-1.066-.726-.832-.168-2.766.183-4.91.894-.274.09-.508.164-.52.164-.015 0 .008-.62.043-1.062.02-.211-.082-1.04-.144-1.223-.031-.082-1.555 1.336-1.582 1.465-.008.05-.055.41-.102.805-.05.394-.105.734-.125.754-.02.023-.3.156-.62.296-3.29 1.457-7.04 3.766-9.63 5.926-.453.375-1.43 1.223-1.418 1.235.004.003.305.03.664.058.727.059 1.086.04 1.563-.082.398-.101.66-.246 1.512-.82a52.412 52.412 0 0 1 5.484-3.266c.902-.465 2.035-1 2.062-.976.036.039-.273 1.52-.566 2.71a41.211 41.211 0 0 1-3.082 8.516l-.43.871h-.117c-.164 0-1.062-.086-1.683-.164-.833-.101-1.165-.082-1.493.094-.195.102-.258.16-.437.426l-.168.242.32.207c.676.434 1.203.637 2.172.836.234.05.426.094.434.098.004.003-.184.324-.418.707-.465.757-1.688 2.613-1.711 2.59a7.703 7.703 0 0 1-.16-.563c-.286-1.098-.672-2.106-1.254-3.285-1.047-2.117-2.422-4.028-4.711-6.547-.778-.856-.992-1.008-1.426-1.004-.375.004-.688.187-1.328.777l-.246.23.55.505c.692.629 1.926 1.875 2.383 2.398 1.203 1.383 2.024 2.613 2.793 4.192a22.095 22.095 0 0 1 1.758 5.07l.074.347-.175.223c-1.02 1.3-2.364 2.852-3.79 4.375-.726.774-.824.895-1 1.246-.253.508-.308.946-.199 1.625.028.196.059.352.067.352.007 0 .14-.074.297-.168zm0 0"/></svg>