<svg xmlns="http://www.w3.org/2000/svg" width="64" height="64"><path d="M27.237 62.737c-10.141-1.731-18.65-8.02-23.082-17.06C1.928 41.134 1 37.12 1 32.026c0-5.095.928-9.109 3.155-13.654 3.94-8.037 11.496-14.217 20.058-16.405C29.14.707 34.702.677 39.491 1.884c8.673 2.185 16.34 8.38 20.304 16.406C62.07 22.895 63 26.88 63 32.025c0 5.144-.93 9.13-3.205 13.734-4.454 9.017-13.082 15.333-23.22 16.995-2.047.336-7.326.326-9.338-.017zm4.565-5.196c.064-.455.091-6.341.06-13.082l-.056-12.255-8.846 5.112a8695.14 8695.14 0 0 1-11.32 6.533l-2.474 1.422 1.017 1.535c1.309 1.977 4.052 4.844 6.117 6.395 4.045 3.035 9.654 5.071 14.181 5.146l1.204.02.117-.826zm24.21-14.905c1.53-3.527 2.18-6.668 2.174-10.514-.003-3.11-.384-5.535-1.303-8.294-.639-1.917-1.925-4.732-2.164-4.732-.378 0-22.555 12.951-22.365 13.061C53.42 44.371 54.74 45.103 55.008 44.72c.145-.207.596-1.144 1.004-2.083zm-24.11-23.734V5.877h-1.214c-5.725.004-12.713 3.079-17.22 7.578-1.653 1.649-3.94 4.6-3.992 5.15-.017.175 4.163 2.717 11.152 6.784 6.148 3.578 11.2 6.512 11.226 6.522.027.009.049-5.845.049-13.009z"/></svg>