<svg xmlns="http://www.w3.org/2000/svg" width="80" height="80"><path d="M34.787 79.752c-8.396-1.067-16.9-5.226-22.945-11.222C6.075 62.81 2.384 56 .622 47.83-.145 44.276-.217 36.36.486 32.86c1.671-8.323 5.312-15.218 11.127-21.073C23.225.094 40.943-3.268 55.999 3.364 70.653 9.82 80 24.1 80 40.031c0 10.784-4.209 20.83-11.94 28.499-6.17 6.12-14.589 10.182-23.317 11.249-2.5.306-7.444.292-9.956-.027zm1.84-7.311c.372-.373.402-3.13.035-3.356-.801-.495-2.252.874-2.252 2.124 0 1.1 1.509 1.938 2.216 1.232zm8.118-3.729c.66-.353 1.056-1.94.75-3.006-.527-1.836-2.246-2.607-3.517-1.58-1.098.889-.926 3.925.256 4.524.749.379 1.866.407 2.51.062zm-9.202-.88c0-.704-.738-.626-.839.089-.065.456.02.569.378.5.262-.05.461-.304.461-.589zm-3.148-1.129c.634-.633.636-1.06.01-1.626-.649-.586-1.596-.346-1.983.502-.628 1.376.868 2.228 1.973 1.124zm6.693-.271c.648-.716.643-2.422-.01-2.898-.265-.195-.676-.353-.912-.353-.693 0-1.993 1.378-1.993 2.114 0 1.45 1.944 2.208 2.915 1.137zm11.292-1.315c.276-.202.416-.566.363-.941-.166-1.168-1.724-.807-1.724.398 0 .5.25.778.77.851.078.011.343-.128.59-.308zM24.065 64.07c.99-.513 1.186-1.158.515-1.701-.48-.389-.618-.398-1.23-.082-.38.196-.848.546-1.04.779-.308.37-.279.482.234.897.703.569.635.564 1.52.107zm37.433-1.43c.16-.501-.463-1.725-.878-1.725-1.1 0-1.436 1.443-.49 2.106.633.442 1.152.298 1.368-.38zm-32.441-.35c.304-.213.689-.842.856-1.4.287-.955.267-1.045-.36-1.626-.781-.723-1-.748-1.827-.207-.835.546-.874 2.185-.073 3.037.648.69.69.695 1.404.196zm25.328-.902c.373-.592-.693-2.038-1.426-1.934-.765.109-.86 1.267-.162 1.964.596.596 1.2.585 1.588-.03zm-12.923-.442c0-1.047-.618-1.491-1.264-.908-.828.75-.458 1.632.685 1.632.47 0 .58-.136.58-.724zm-19.474-.327c.761-.714.818-2.329.096-2.715-.848-.453-1.712-.3-2.265.403-1.422 1.805.513 3.867 2.17 2.312zm15.919.137c.733-.513 1.288-1.808 1.288-3.003 0-.698-.185-1.086-.782-1.644-.43-.401-1.038-.73-1.351-.73-1.999 0-3.16 3.771-1.63 5.298.596.597 1.685.632 2.475.08zm23.336-2.367c.657-.724.81-3.174.265-4.228-.343-.662-.559-.795-1.293-.795-.728 0-.929.12-1.152.692-.328.838-.117 3.986.3 4.488.427.514 1.342.437 1.88-.157zm-9.504-.292c.418-.418.38-1.837-.06-2.201-.263-.219-.498-.227-.864-.031-.723.386-.902 1.191-.426 1.917.444.677.885.78 1.35.315zm15.308-.986c.81-1.31.337-3.265-.66-2.732-.498.266-.909 1.332-.772 2.007.177.88 1.06 1.327 1.432.725zm-47.665-.68c.358-.395.367-.523.066-.934-.298-.408-.441-.433-1.005-.176-.615.28-.873 1.017-.49 1.4.313.312 1.012.17 1.429-.29zm7.316-.33c.691-.314 1.301-1.508 1.074-2.1-.224-.583-1.71-1.388-2.563-1.389-1.144-.001-1.882.628-1.882 1.605 0 1.567 1.826 2.588 3.371 1.884zm28.951-.32c.075-.194-.016-.56-.202-.814-.327-.447-.354-.447-.863.013-.402.363-.46.555-.244.815.368.443 1.137.435 1.31-.014zm-11.154-.412c.699-.698.997-1.57.997-2.912 0-.903-.136-1.254-.681-1.76-1.653-1.53-3.905.925-3.247 3.54.381 1.521 1.94 2.122 2.93 1.132zm9.492-2.14c.49-1.026.212-2.7-.469-2.83-.901-.172-2.024 3.736-1.162 4.044.53.19 1.198-.308 1.63-1.215zm-31.41-1.252c1.503-1.36.264-4.666-1.74-4.642-1.313.016-2.044 1.08-2.044 2.977 0 1.07.102 1.337.693 1.802.807.636 2.31.57 3.09-.137zm-5.043-.768c0-.826-.843-.753-.962.084-.062.428.044.563.44.563.392 0 .522-.16.522-.647zm30.477-.719c0-.403-.666-1.15-1.025-1.15-.267 0-.32 1.088-.066 1.342.31.31 1.091.172 1.091-.192zm-10.125-.194c.433-.433.373-1.448-.097-1.628-.594-.228-1.457.738-1.248 1.397.186.586.872.704 1.345.231zm18.181-.702c.658-.352.866-1.611.495-2.985-.44-1.622-.625-1.813-1.479-1.516-1.217.424-1.574 1.796-.891 3.428.539 1.289.99 1.546 1.875 1.073zm6.915-.74c.552-.576.672-.885.544-1.396-.256-1.016-.834-1.057-1.674-.117-.844.945-.91 1.293-.347 1.855.537.537.66.509 1.477-.343zm-34.925.094c.741-.519.706-.915-.138-1.538-.74-.547-1.442-.465-2.023.234-.396.476-.176 1.054.531 1.395.767.37.988.358 1.63-.09zm-10.82-.553c.102-.721-.608-1.027-1.143-.493-.535.535-.228 1.243.494 1.141.366-.052.597-.282.648-.648zm25.507-.502c.136-.67.088-.818-.267-.818-.602 0-1.36.902-1.172 1.393.28.73 1.252.342 1.439-.575zm-28.481.058c.175-.21.405-.86.512-1.443.348-1.905-.617-2.621-1.526-1.131-1.033 1.692-.139 3.962 1.014 2.574zm35.52-.892c.353-.659-.074-1.242-.909-1.242-.725 0-1.165.694-.833 1.315.33.615 1.397.57 1.742-.073zm-24.556-.853c.71-.71.766-1.1.255-1.788-.337-.453-.415-.46-1.067-.103-.878.48-1.31 1.56-.849 2.116.46.555.947.489 1.661-.225zm-5.64-1.254c.387-.848.11-1.4-.703-1.4-.796 0-1.602.643-1.602 1.277 0 .929 1.892 1.03 2.305.123zm41.528-.032c.507-1.332.116-3.89-.609-3.981-.923-.117-1.806 3.442-1.043 4.205.627.626 1.367.525 1.652-.224zm9.2-.475c.674-.675.844-2.075.315-2.604-.166-.166-.725-.302-1.241-.302-1.508 0-2.633 1.747-1.872 2.906.558.852 1.944.852 2.797 0zm-33.62-.37c1-.997 1.028-2.428.068-3.387-.865-.864-1.772-1.096-2.284-.584-.575.575-.704 2.648-.235 3.77.5 1.196 1.383 1.269 2.452.201zm7.236.115c.227-.496.206-.698-.103-1.006-.505-.505-.684-.488-1.232.117-.44.485-.44.52 0 1.006.605.669.992.635 1.335-.117zm5.997-.075c.153-.102.43-.606.614-1.12.3-.837.286-.987-.13-1.446-.95-1.05-2.149-.423-2.149 1.123 0 1.306.81 2.008 1.665 1.443zm-36.218-.754c.053-.374-.05-.563-.306-.563-.432 0-.984.846-.722 1.108.333.333.95.006 1.028-.545zm15.911-.183c.412-.495.144-1.135-.476-1.135-.511 0-.933.808-.656 1.256.228.369.774.31 1.132-.12zm-5.053-.54c.685-.87.659-1.206-.142-1.835-1.18-.928-2.19-.472-2.19.988 0 1.53 1.395 2.037 2.332.847zm-14.127-.481c.724-1.589-.243-2.462-1.422-1.285-.565.565-.608.724-.352 1.285.395.868 1.378.867 1.774 0zm6.44-.385c.84-.997.862-2.097.054-2.626-.766-.502-1.792-.094-2.317.92-.482.932-.455 1.213.189 1.898.738.784 1.296.733 2.075-.192zm10.79-.345c1.011-1.265.891-3.159-.2-3.159-.91 0-1.666 1.143-1.481 2.241.355 2.115.613 2.256 1.682.918zm17.973.675c.934-.624 1.033-2.44.184-3.377-.636-.702-1.455-.557-2.302.407-1.016 1.156-1.189 1.79-.693 2.546.324.495.614.616 1.469.612.585-.002 1.19-.087 1.342-.188zm14.359-2.217c.194-.772-.249-1.37-.69-.93-.319.319-.093 1.578.285 1.578.133 0 .315-.291.405-.648zm-7.813-.232c.514-.784.292-2.273-.395-2.64-.659-.352-2.088-.319-2.608.06-.237.174-.499.728-.58 1.23-.209 1.284.508 1.978 2.043 1.978.924 0 1.202-.113 1.54-.628zm-12.058-.493c.434-.505.575-.979.575-1.937 0-1.108-.11-1.378-.857-2.125-.986-.986-2.153-1.133-3.5-.443-1.105.565-1.193.768-1.022 2.355.252 2.346 1.05 3.096 3.103 2.916.83-.073 1.276-.274 1.7-.766zm16.705-.91c.15-.28.238-.816.194-1.19-.061-.536-.229-.696-.793-.76-1.451-.167-2.208 1.438-1.168 2.477.58.58 1.287.37 1.767-.527zm11.274.723c.478-.478.368-1.659-.183-1.953-.604-.323-1.268-.091-1.308.457-.104 1.447.716 2.27 1.491 1.496zm-53.61-1.07c.499-.6.077-1.439-.679-1.348-.75.09-1.224.71-.996 1.302.196.51 1.265.54 1.675.046zm48.774-.267c.627-.956.755-2.704.236-3.222-.62-.62-1.462-.518-2.211.268-.894.94-1.081 1.841-.583 2.804.334.646.556.782 1.274.782.65 0 .974-.159 1.284-.632zm-40.893-.572c.628-.546.598-2.217-.046-2.561-.87-.465-2.98-.32-3.543.242-.595.594-.662 1.82-.124 2.266.884.734 2.898.762 3.713.053zm8.006-.184c.742-.384 1.12-1.193.956-2.052-.068-.357-.362-.478-1.308-.538-1.502-.095-2.175.404-2.175 1.614 0 1.292 1.096 1.715 2.527.976zm19.02-.99c.675-.675.845-2.076.316-2.604-.49-.49-1.438-.347-2.102.316-.799.798-.826 1.976-.059 2.513.768.538 1.125.494 1.845-.226zm-37.986-1.552c.7-.44 1.272-1.296 1.575-2.352.2-.693.146-.895-.375-1.415-.832-.832-2.716-.847-3.93-.032-.977.657-1.129 1.216-.73 2.695.436 1.62 1.9 2.087 3.46 1.104zm33.5-.48c1.024-.716 1.055-3.409.053-4.41-.64-.64-1.9-.627-2.975.028-.835.508-.846.54-.74 2.009.136 1.878.839 2.757 2.205 2.757.5 0 1.155-.173 1.458-.385zm-17.62-.26c1.311-.917 1.626-2.846.643-3.932-.667-.736-1.655-.557-3.047.55-1.784 1.42-1.909 1.825-.919 3 .537.638.838.775 1.707.775.58 0 1.308-.177 1.616-.393zm30.782-.485c.426-.513.114-1.639-.456-1.639-.988 0-1.433 1.264-.612 1.741.592.345.705.334 1.068-.102zm-37.123-.07c.52-.346.669-2.06.234-2.722-1.036-1.58-3.065.238-2.55 2.286.133.53.304.628 1.097.625.517-.002 1.066-.087 1.219-.189zm19.494-.31c0-.32-.168-.504-.462-.504-.64 0-.845.268-.513.669.418.503.975.408.975-.166zm31.542.062c.14-.657-.222-2.097-.632-2.507-.313-.312-.416-.305-.774.053-1.07 1.068-.71 2.895.57 2.895.503 0 .772-.142.836-.44zm-35.392-.792c.68-1.01.737-1.947.158-2.585-.575-.635-1.218-.576-1.803.167-.748.95-.933 2.334-.391 2.932.616.68 1.358.493 2.036-.514zm16.85-.43c.194-.77-.22-1.142-1.16-1.045-1.2.125-.828 1.701.402 1.701.43 0 .64-.181.759-.656zm12.452-.374c.357-.665.103-1.738-.411-1.738-.79 0-1.364.516-1.364 1.225 0 .387.075.78.167.872.363.363 1.338.145 1.608-.359zm-41.583-1.852c.561-.675.212-1.27-.745-1.27-.898 0-1.225.457-.911 1.273.18.47 1.265.468 1.656-.003zm24.551-.22c.311-.226.404-.501.29-.857-.393-1.24-1.878-.726-1.56.54.182.722.58.821 1.27.317zm-9.185-.17c.37 0 .464-.976.136-1.424-.274-.375-.424-.397-.98-.143-1.072.487-.79 2.02.307 1.674.185-.058.426-.106.537-.106zm-19.89-.472c0-.603-.636-1.137-1.13-.947-.386.148-.521.944-.213 1.252.093.092.433.168.756.168.407 0 .588-.145.588-.473zm15.339-.376c.387-.466.085-1.164-.504-1.164-.332 0-.477.179-.477.587 0 .93.462 1.202.98.577zm21.436-.907c0-.607-.367-.837-1.01-.634-.562.178-.702 1.27-.186 1.454.501.18 1.196-.296 1.196-.82zm-32.725-.741c1.357-1.356.699-3.14-1.158-3.14-1.143 0-2.137.919-2.132 1.97.005.964.22 1.31 1.01 1.625 1.032.411 1.508.316 2.28-.455zm7.474.17c.173-.138.315-.63.315-1.092 0-1.088-.71-1.535-1.682-1.059-.885.434-1.198.99-1 1.778.23.913 1.451 1.106 2.367.374zm22.974-.345c.894-.752 1.521-1.834 1.521-2.625 0-.76-1.56-2.252-2.353-2.252-.353 0-.953.268-1.334.595-.595.512-.707.826-.797 2.237-.09 1.417-.032 1.715.427 2.173.713.713 1.588.669 2.536-.128zm9.441.1c.684-.975.361-2.964-.48-2.964-.566 0-1.394 1.26-1.394 2.123 0 1.392 1.132 1.9 1.874.84zm-24.591-.523c.83-.883.97-2.023.325-2.666-.765-.765-1.705-.673-2.57.252-.757.81-.918 1.668-.47 2.506.386.72 2.003.665 2.715-.092zm20.058-.16c.557-.616.317-1.023-.604-1.023-.745 0-1.11.48-.859 1.133.203.526.936.47 1.463-.11zM46.5 23.154c0-.625-.638-.897-1.137-.483-.456.378-.492 1.171-.06 1.326.51.183 1.197-.3 1.197-.842zm16.372-.842c0-.625-.388-.917-.944-.712-.334.122-.43.87-.147 1.152.092.092.375.168.63.168.32 0 .461-.186.461-.608zm-11.742-.205c.209-.333.177-.532-.134-.843-.568-.567-1.474-.075-1.474.8 0 .542.1.626.668.558.367-.044.79-.276.94-.515zm-32.576-.326c1.339-.692.811-2.723-.636-2.447-1.215.232-1.88 2.02-.951 2.56.59.343.722.334 1.587-.113zm40.897-.524c.531-.203.544-1.82.016-2.022-.458-.176-1.803.34-1.96.751-.06.16-.015.546.1.858.213.57.985.743 1.844.413zm5.768-.136c.744-.392.945-.748.762-1.347-.205-.668-.556-.872-1.508-.876-1.169-.006-1.497 1.106-.593 2.009.589.588.618.593 1.339.214zm-23.129-.876c.43-.656.306-1.603-.21-1.603-.672 0-1.425.795-1.425 1.503 0 1.16.904 1.215 1.635.1zm-8.802-1.969c.718-.717.805-1.778.201-2.445-.515-.568-.93-.58-1.743-.047-1.314.86-1.38 2.057-.153 2.723.907.492.981.482 1.695-.23zm19.206-.816a.993.993 0 0 0-.313-.82c-.32-.265-.502-.248-1.02.09-.731.48-.814 1.03-.205 1.37.583.326 1.447-.034 1.538-.64zm-23.456-1.434c.694-.596.698-.616.398-2.048-.451-2.146-.854-2.633-2.177-2.633-1.557 0-2.42.728-2.42 2.04 0 1.216.546 2.595 1.172 2.96.834.483 2.269.333 3.027-.319zm8.997-2.31c.339-.883-.669-1.658-1.316-1.012-.328.328-.323.447.045 1.008.43.655 1.02.657 1.27.004zm17.338.208c.534-.608.749-1.42.559-2.117-.164-.604-2.565-1.982-3.441-1.975-1.24.01-1.249 3.28-.012 4.218.627.476 2.434.397 2.894-.126zm-4.888-.757c.06-.42-.046-.564-.414-.564-.518 0-.91.627-.652 1.043.264.427.982.104 1.066-.48zm-15.32-.312c.575-.575.703-2.468.202-2.97-.807-.806-1.943.269-1.956 1.85-.013 1.577.786 2.087 1.754 1.12zm11.652-.349c.106-.154.162-.835.126-1.513-.078-1.472-.731-2.117-1.33-1.313-.522.704-.75 2.595-.366 3.057.337.405 1.226.274 1.57-.23zm-7.16-2.318c.402-.28.551-.603.497-1.07-.102-.882-1.2-1.054-1.95-.305-.624.623-.645.861-.124 1.382.5.5.856.498 1.577-.007z"/></svg>