<svg xmlns="http://www.w3.org/2000/svg" width="80" height="80"><path d="M34.913 79.825C24.173 78.368 14.466 72.72 7.8 64.051 4.56 59.834 1.816 53.722.556 47.913.085 45.741 0 44.557 0 40.168c0-4.427.083-5.567.572-7.835C3.35 19.44 11.276 9.32 22.93 3.784c9.141-4.341 19.988-4.98 29.704-1.747 6.555 2.18 13.034 6.438 17.363 11.409a42.074 42.074 0 0 1 9.514 19.276c.705 3.496.634 11.455-.133 15.028-1.534 7.138-4.571 13.296-9.254 18.76-5.457 6.37-14.343 11.414-22.868 12.983-2.63.483-9.806.677-12.344.332zm17.383-9.434c3.915-.752 6.651-2.293 6.492-3.657-.129-1.095-.932-1.183-6.22-.68-3.788.36-5.128.397-6.527.18-6.18-.958-12.33-4.954-17.938-11.655-2.193-2.62-2.459-2.274-.79 1.026 2.588 5.113 5.786 8.838 9.872 11.496 4.877 3.173 9.959 4.28 15.111 3.29zm-28.84-4.951c.677-1.353.537-2.619-.679-6.11-1.55-4.452-1.992-6.788-1.999-10.57-.013-6.521 1.901-11.677 5.774-15.554 3.419-3.422 6.397-4.595 10.97-4.319 1.727.105 2.555.072 2.45-.097-.289-.468-2.119-1.259-3.852-1.665-2.557-.599-4.627-.379-6.928.737-3.925 1.904-6.87 5.058-9.22 9.873-4.241 8.691-4.026 18.908.564 26.75 1.294 2.21 2.15 2.49 2.92.955zm29.432-4.669c1.114-.235 3.022-.8 4.239-1.255 5.929-2.216 11.198-6.962 13.5-12.16 1.271-2.868 1.321-5.293.11-5.293-.487 0-.884.474-2.134 2.539-2.177 3.596-3.024 4.749-5.06 6.89-3.124 3.283-6.166 5.27-9.895 6.46-3.109.993-4.867 1.222-10.7 1.393-3.228.094-5.406.257-5.442.408-.085.346 1.548.851 4.116 1.274 2.758.454 8.525.323 11.266-.256zM44.54 57.63c.623-.275 1.133-.663 1.133-.861 0-.23-.857-.658-2.342-1.17-5.829-2.01-7.781-3.456-9.494-7.027-.721-1.502-.903-2.218-1.013-3.977-.163-2.604.28-4.01 1.643-5.204 1.937-1.698 3.689-1.873 5.36-.536 1.876 1.5 2.655 1.651 3.56.69 1.275-1.355.807-4.325-.893-5.66-1.206-.947-3.356-1.579-5.37-1.579-2.449 0-4.586.95-6.469 2.876-3.152 3.224-4.439 7.93-3.33 12.18 1.384 5.304 6.647 10.003 12.145 10.842 1.408.215 3.93-.07 5.07-.574zm-30.196-1.245c.354-.796.632-2.287.856-4.59.658-6.763 1.618-10.895 3.401-14.64 2.465-5.177 6.16-8.77 11.835-11.505 1.14-.55 2.071-1.09 2.071-1.2 0-.336-1.978-.229-3.634.196-1.958.502-5.052 2.033-7.224 3.575-4.77 3.384-9.048 9.492-11.29 16.118-1.366 4.039-1.124 8.812.603 11.877 1.265 2.247 2.432 2.305 3.382.17zm38.692.695c8.737-2.836 15.446-11.155 17.103-21.205.436-2.638.344-6.798-.183-8.342-.675-1.98-2.26-3.26-3.136-2.534-.296.246-.365 1.245-.363 5.273.004 6.667-.52 10.003-2.206 14.02-1.58 3.764-4.877 7.405-8.716 9.624-2.867 1.657-4.641 2.818-5.039 3.296-.282.34-.241.395.294.395.342 0 1.353-.237 2.246-.527zm-5.183-4.372c2.49-.662 4.895-2.15 7.187-4.445 3.733-3.739 5.293-7.253 5.508-12.408.1-2.427.03-3.286-.418-5.055-.63-2.496-2.068-5.45-3.649-7.5-1.889-2.451-6.352-6.382-7.246-6.382-.846 0 .25 2.138 3.368 6.57 3.577 5.087 4.72 8.01 4.712 12.055-.008 4.34-1.506 7.895-4.686 11.122-1.597 1.62-2.463 2.272-3.967 2.985-2.227 1.056-4.834 1.53-6.248 1.138-1.125-.311-2.74-.334-2.922-.041-.31.501 1.735 1.744 3.522 2.14 1.09.242 3.608.148 4.84-.179zm-2.232-4.71c4.758-1.212 8.598-8.036 7.654-13.603-1.247-7.358-9.272-13.328-16.032-11.928-1.459.303-2.905 1.183-2.538 1.546.114.113 1.208.558 2.43.988 5.7 2.006 7.654 3.413 9.237 6.654 2.06 4.221 1.657 8.049-1.054 9.98-1.98 1.412-3.09 1.369-5.186-.204-1.553-1.165-2.333-1.26-3.206-.389-.608.608-.76 1.274-.635 2.787.272 3.295 4.806 5.32 9.33 4.169zM11.349 33.38c3.281-6.505 9.532-11.295 17.606-13.493 1.482-.403 2.695-.522 5.451-.533 4.166-.015 5.8.32 9.599 1.969 3.2 1.389 5.505 2.17 5.824 1.973.383-.236-2.172-2.377-4.263-3.57-3.685-2.105-7.521-3.063-12.258-3.06-3.386.002-5.162.247-8.312 1.146-4.467 1.275-8.64 3.665-11.528 6.603-2.095 2.13-2.48 2.63-3.381 4.38-.617 1.197-.718 1.692-.73 3.561-.01 1.48.094 2.304.33 2.588.476.575.68.383 1.662-1.564zm51.193-3.998c-.217-1.581-1.79-6.131-2.824-8.169-3.1-6.106-8.151-10.572-14.052-12.422-1.634-.512-2.394-.591-5.563-.58-4.123.015-5.718.419-6.665 1.687-.492.66-.495.71-.068 1.181.51.561 2.155.868 6.971 1.299 3.774.337 6.254 1.067 8.876 2.613 4.69 2.764 8.323 6.938 12.51 14.373.372.66.744 1.2.827 1.2.083 0 .077-.532-.012-1.182z"/></svg>