<svg xmlns="http://www.w3.org/2000/svg" width="64pt" height="64pt" viewBox="0 0 64 64"><path d="M28.402 63.8C17.348 62.55 7.543 55.427 2.934 45.29c-3.875-8.52-3.91-17.813-.102-26.411C8.262 6.625 21.348-1.086 34.656.125c7.774.707 14.52 3.844 19.946 9.27 9.511 9.507 12.054 23.625 6.472 35.894C55.375 57.82 42.09 65.348 28.402 63.801zm6.203-31.507V8.773h-6.27l.134 14.446c.074 7.945.133 18.527.133 23.52v9.074h6.003zm-14.71 18.645l-.06-18.696-.058-18.668h-5.054l.132 8.86c.075 4.87.133 13.316.133 18.765v9.91l2.453-.07c1.348-.039 2.454-.082 2.454-.102zM48.219 32.19V13.375h-5.004v8.156c0 4.489.058 12.957.133 18.82l.132 10.657h4.739zm0 0"/></svg>