<svg xmlns="http://www.w3.org/2000/svg" width="64pt" height="64pt" viewBox="0 0 64 64"><path d="M27.008 63.719c-6.813-1.145-12.547-4.063-17.45-8.883C3.25 48.633 0 40.87 0 32.012c0-8.86 3.25-16.621 9.559-22.82C15.766 3.085 23.3 0 32 0c8.7 0 16.234 3.086 22.441 9.191C60.75 15.391 64 23.152 64 32.011c0 8.704-3.086 16.243-9.188 22.454-4.949 5.039-10.91 8.117-17.914 9.254-2.316.375-7.656.375-9.89 0zm5.77-6.067c.062-.304.167-1.093.242-1.754.074-.664.265-1.46.421-1.773.204-.39.25-.883.164-1.605-.07-.57-.164-3.25-.21-5.958-.149-8.593-.336-11.632-.743-11.93-.37-.273-.492-1.316-.152-1.316.117 0 .203-.668.203-1.605 0-.883-.082-1.606-.183-1.606-.18 0-.31-1.03-.54-4.265-.113-1.559-.293-1.88-.668-1.18-.675 1.258-1.066 5.055-1.074 10.363-.008 3.57.051 4.532.297 5.016.29.57.547 2.91.66 6.023.028.774-.086 2.028-.258 2.79-.257 1.156-.269 1.515-.054 2.207.242.777.398 1.863.707 4.937.203 1.977.273 2.207.7 2.207.257 0 .417-.18.487-.55zm-4.008.035c.066-.175.12-.624.12-1.003 0-.38.09-.688.2-.688.11 0 .203-.45.203-1.004 0-.55-.094-1.004-.203-1.004-.309 0-.262-3.558.05-3.66.325-.11.29-3.957-.038-4.156-.122-.078-.262-1.016-.317-2.129a110.358 110.358 0 0 0-.332-4.254c-.18-1.742-.172-2.91.02-5.117.183-2.055.191-3.016.039-3.414-.27-.695-.625-.715-.625-.028 0 .29-.14 1.075-.317 1.747-.261 1.011-.297 2.003-.199 5.847.067 2.547.2 5.848.297 7.34.098 1.488.187 4.531.2 6.758.019 3.82.167 5.082.593 5.082.102 0 .242-.14.309-.316zm8.593-1.992c.094-.332.207-1.504.25-2.61.043-1.1.137-2.46.211-3.015.106-.828.059-1.101-.258-1.488-.5-.617-.77-.43-.91.633-.074.547-.281.988-.566 1.219-.66.539-.778 2.27-.195 2.933.332.383.417.75.417 1.774 0 1.207.028 1.28.438 1.222.29-.043.5-.27.613-.668zm-11.351-1.562c-.07-.914-.043-1.953.054-2.305.188-.644-.058-2.047-.394-2.258-.25-.156-.332-4.398-.09-4.57.383-.266.7-1.262.7-2.191 0-1.262-.407-3.54-.66-3.704-.298-.19-.317-8.164-.02-8.355.382-.246.953-1.68.93-2.328a670.61 670.61 0 0 0-.157-3.637c-.094-2.11-.031-4.457.215-7.855.27-3.727.297-4.996.12-5.5-.124-.36-.226-1.14-.226-1.739 0-2.082-1.101-3.074-1.593-1.433-.137.46-.422 1.07-.633 1.355-.348.477-.363.672-.172 2.227.348 2.848.57 10.195.355 11.742-.109.773-.27 3.617-.359 6.324-.2 6.004-.371 8.39-.656 8.977-.145.293-.168 1.273-.07 2.91.078 1.355.132 4.562.124 7.129-.02 4.312.125 5.558.48 4.152.2-.793.767-.547.966.414.367 1.778.57 2.309.89 2.309.282 0 .309-.215.196-1.664zm-5.871 1.012c.066-.25.226-2.532.355-5.067.23-4.539.149-6.523-.266-6.523-.125 0-.16.203-.09.492.07.27-.042 1.738-.253 3.262-.246 1.808-.344 3.394-.278 4.578.051 1.008 0 2.156-.12 2.59-.118.43-.169.855-.11.949.203.328.637.164.762-.281zm21.3-1.907c.067-.304.258-.914.426-1.355.172-.442.383-1 .477-1.238.11-.29.027-.836-.254-1.66-.36-1.055-.383-1.297-.156-1.72.332-.62.14-4.511-.301-6.12-.246-.907-.266-1.536-.106-3.512.215-2.66.23-3.41.157-6.567-.04-1.632-.13-2.226-.368-2.464-.285-.286-.343-.282-.625.043-.171.195-.468.832-.656 1.414-.191.578-.508 1.14-.707 1.25-.55.293-.828 1.28-.57 2.027.172.488.14.867-.14 1.797-.333 1.105-.337 1.207-.02 1.691.257.395.304.746.203 1.524-.14 1.078.258 4 .55 4 .094 0 .172.668.172 1.48 0 .906.125 1.781.325 2.254.21.504.285 1.082.215 1.68-.094.797.328 5.097.566 5.777.16.457.691.262.812-.3zm-23.05-2.285c.05-.703.109-1.937.129-2.742.023-.953.128-1.516.3-1.625.168-.102.336-.93.457-2.25.11-1.148.293-2.512.407-3.027.347-1.57-.325-7.204-.91-7.657-.153-.113-.141-.195.035-.265.324-.133.324-.813 0-.922-.192-.067-.235-1.016-.184-4.082.078-4.617-.227-8.54-.77-9.914-.222-.567-.425-1.754-.5-2.938-.168-2.64-.226-2.886-.714-2.886-.391 0-.403.12-.387 3.863.008 2.168-.078 4.172-.195 4.562-.313 1.047-.254 5.555.105 7.782.172 1.085.293 2.894.27 4.062-.02 1.16.07 3.465.203 5.121.133 1.653.308 5.403.386 8.328.157 5.625.34 6.801.957 6.18.192-.188.352-.813.41-1.59zm3.789 1.477c.422-.293.691-1.727.476-2.512-.113-.41-.293-.746-.398-.746-.27 0-.238-1.356.035-1.445.309-.102.305-4.977-.004-5.164-.137-.086-.289-1.465-.394-3.563-.176-3.48-.25-3.875-.711-3.875-.57 0-.528 4.629.078 7.926.14.781.172 2.488.086 4.851-.16 4.418-.032 5.133.832 4.528zm23.472-.746c.192-.5.414-.907.496-.907.372 0 .848-1.968.825-3.41-.016-.828-.055-3.629-.09-6.222-.035-2.594-.133-4.926-.219-5.18-.184-.559-.781-.516-.89.062a6.726 6.726 0 0 1-.266.891l-.188.492-.476-.59c-.809-1.008-.914-.543-.684 2.98.133 1.99.14 3.49.024 4.04-.137.625-.106 1.23.105 2.148.16.715.29 2.297.293 3.586 0 3.082.402 3.867 1.07 2.11zm4.907-3.868c0-.37.09-.843.195-1.043.11-.203.238-1.617.285-3.148.05-1.531.156-3.871.234-5.203.168-2.82.032-3.957-.468-3.863-.27.054-.383.472-.567 2.07-.258 2.266-.453 3.152-.742 3.34-.285.187-.309 8.172-.027 8.36.12.077.285.323.367.542.148.399.152.399.437.012.157-.215.286-.696.286-1.067zm-14.383-.046c.351-.333.828-.602 1.058-.602.907-.004 1.485-1.64 1.075-3.027-.114-.38-.418-1.664-.68-2.86-.441-2.015-.465-2.36-.285-4.918.27-3.843.336-8.433.136-9.27-.324-1.331-.542-7.214-.316-8.433.176-.933.152-1.398-.117-2.469-.184-.726-.328-1.62-.328-1.984.008-.996-.664-4.773-.848-4.773-.086 0-.16-.227-.16-.504 0-.77-.574-.617-.938.25-.433 1.027-.535 8.324-.132 9.66.5 1.66.25 6.984-.54 11.523-.18 1.02-.183 1.828-.015 3.246.121 1.036.223 2.254.223 2.711 0 .453.12 1.024.273 1.27.473.758.754 3.39.727 6.8-.032 3.926-.028 3.981.113 3.981.062 0 .398-.273.754-.601zm-21.63-.594c-.112-.828-.058-1.133.317-1.809.254-.445.532-.812.621-.812.09 0 .164-.63.164-1.403s-.078-1.406-.171-1.406c-.09 0-.27-2.098-.391-4.668-.121-2.566-.324-5.523-.453-6.57-.125-1.051-.246-4.031-.27-6.625-.043-4.926-.23-6.18-.73-4.918-.254.64-.434 3.5-.43 6.824 0 1.106-.004 2.867-.012 3.914-.027 3.004-.004 3.594.227 5.621.414 3.668.633 8.887.398 9.598-.195.601-.125 1.95.153 2.894.054.196.238.352.406.352.254 0 .285-.176.172-.992zm-2.198-2.246c.222-.707-.125-9.285-.387-9.45-.332-.21-.309-6.617.027-6.73.297-.098.364-5.066.07-5.066-.097 0-.21-1.036-.253-2.301-.043-1.438-.164-2.39-.313-2.543-.504-.5-.75.816-.828 4.441-.039 1.934-.117 4.551-.168 5.817-.05 1.27.004 3.195.125 4.28.117 1.087.262 4.024.324 6.528.059 2.504.153 4.754.203 5 .125.614 1.008.63 1.2.024zm41.441-.625c.008-.137.055-1.434.094-2.883.043-1.45.172-2.887.289-3.192.121-.316.156-1.046.086-1.683-.082-.734-.016-1.594.195-2.488.356-1.528.418-3.172.129-3.461-.105-.11-.215-2.735-.25-6.055-.055-5.137-.102-5.906-.395-6.195-.507-.512-.769-.168-.769 1.015 0 .59-.094 1.106-.207 1.14-.27.095-.324 3.774-.059 3.95.176.113.543 2.95.461 3.543-.015.113-.074 1.555-.129 3.211-.054 1.656-.175 3.059-.273 3.117-.277.172-.3 7.489-.023 7.578.128.047.23.5.23 1.051 0 .531.055 1.113.121 1.285.145.38.473.422.5.067zm-4.715-8.48c.235-2.454.192-9.638-.062-10.673a3.583 3.583 0 0 1-.004-1.738c.254-1.105-.176-3.945-.594-3.945-.2 0-.258.52-.254 2.156 0 1.188-.008 2.926-.02 3.863-.011.938.02 3.29.07 5.219.052 1.934.11 4.55.134 5.82.035 2.078.066 2.25.297 1.707.144-.332.336-1.414.433-2.41zm-3.531-1.24c0-.769.379-2.085.664-2.292.086-.063.2-.605.242-1.203.75-9.93.774-10.477.559-12.395-.13-1.183-.149-2.375-.043-3.03.215-1.376-.3-5.009-.766-5.372-.433-.34-.656-.145-.656.574 0 .856-.586 2.774-1.031 3.375-.32.438-.387 1.016-.48 4.063-.083 2.742-.044 3.707.167 4.215.207.5.278 2.027.29 6.316.007 3.113.074 5.844.148 6.074.074.23.304.414.52.414.312 0 .386-.144.386-.738zm-22.785-.917c.195-.95.465-9.809.32-10.465-.086-.375-.113-1.71-.062-2.965.05-1.25 0-2.675-.114-3.168-.172-.742-.152-.925.11-1.12.258-.188.289-.434.164-1.317-.203-1.41-.207-3.285-.016-4.305.121-.629.082-.871-.164-1.074-.258-.219-.36-.215-.57.012-.14.152-.688.746-1.211 1.316l-.953 1.04-.004 1.765c-.004.972-.086 2.113-.184 2.539-.11.472-.094 1.992.04 3.914.12 1.726.206 3.683.19 4.344-.015.664.06 1.52.173 1.906.18.625.617 3.504.914 6.023.058.496.199 1.153.316 1.453.258.684.914.746 1.05.102zm29.12-1.64c.067-.266.071-1.102.009-1.856-.063-.754-.164-3.856-.227-6.89-.137-6.622-.148-6.704-.867-6.247-.23.145-.504 3.11-.45 4.84.005.168.036 2.379.071 4.918.047 3.395.137 4.762.336 5.168.344.691.96.727 1.129.066zm-12.007-3.84c.219-.618.281-2.313.285-7.715.004-11.325.04-10.809-.699-10.524-.223.086-.336.36-.336.828 0 .387-.223 1.153-.496 1.696l-.5.996.309 4.453c.168 2.45.34 5.133.382 5.96.176 3.454.371 5.231.57 5.165.114-.04.333-.426.485-.86zm3.43.14c.039-.258-.04-.723-.168-1.035-.176-.43-.176-.836-.004-1.668.258-1.242-.066-4.54-.469-4.797-.32-.2-.281-5.422.04-5.531.28-.094.32-1.45.042-1.45-.105 0-.219-.648-.25-1.437-.062-1.535-.344-1.937-.793-1.133-.18.32-.27 1.543-.297 3.977-.023 1.93-.105 4.055-.18 4.723-.195 1.66.227 5.921.743 7.578.363 1.168.484 1.36.847 1.304.27-.035.45-.23.489-.53zm-13.367-2.883c.093-1.355.132-3.937.09-5.734-.047-1.8-.012-3.598.081-4 .122-.547.079-.887-.175-1.348-.258-.472-.325-1.035-.282-2.422.075-2.593-.074-3.441-.617-3.59-.785-.214-1.07.426-1.218 2.77-.11 1.695-.07 2.352.199 3.277.375 1.293.547 4.434.496 8.985-.043 3.351.05 4.152.52 4.62.542.548.726.036.906-2.558zm2.855-3.664c-.012-1.336-.094-2.015-.254-2.066-.293-.102-.328-3.059-.035-3.059.113 0 .203-.129.203-.289 0-.16.149-.375.332-.476.262-.149.344-.563.387-2.016.031-1.008.11-1.914.172-2.02.062-.101.054-.964-.016-1.914-.11-1.437-.187-1.722-.453-1.671-.18.035-.352.265-.387.511-.035.246-.133.45-.218.45-.56 0-1.106 4.91-1.106 9.937 0 3.016.047 3.488.39 4.07.22.367.524.63.696.594.246-.047.3-.422.29-2.05zm16.246-4.898c.043-.067 0-1.285-.094-2.707-.132-2.04-.246-2.668-.53-2.985-.349-.386-.364-.3-.466 2.684-.058 1.695-.082 3.14-.054 3.207.062.148 1.039-.02 1.144-.2zm0 0"/></svg>