<svg xmlns="http://www.w3.org/2000/svg" width="80" height="80"><path d="M34.878 79.81C16.53 77.297 2.331 62.819.188 44.44c-.392-3.372-.149-9.143.521-12.33C4.095 16 15.959 4.133 32.231.579 34.51.08 35.596 0 40.047 0c4.45 0 5.536.08 7.816.578 16.29 3.56 28.002 15.276 31.559 31.576.498 2.28.578 3.367.578 7.82 0 4.452-.08 5.539-.578 7.82-3.541 16.227-15.408 28.13-31.433 31.528-2.916.619-10.186.89-13.11.489zm24.306-13.724c.43-.761.78-1.442.78-1.514 0-.071-2.807-.129-6.24-.128l-6.24.002-.587 1.03c-.323.565-.55 1.062-.504 1.104.127.115 11.657 1.057 11.846.967.09-.043.516-.7.945-1.461zm-16.502.222c.094-.5.135-.938.091-.974-.103-.085-16.61-.9-18.141-.895-1.153.003-1.172.017-1.337.95-.092.52-.226 1.144-.297 1.387-.122.415.457.441 9.692.441h9.822l.17-.909zm1.631-4.704c1.38-1.005 2.515-1.89 2.524-1.965.023-.185-28.202-1.101-28.381-.922-.078.077.237.773.699 1.546.56.936 1.009 1.41 1.348 1.423.28.01 4.706.393 9.837.85 5.13.457 9.81.846 10.397.864.952.03 1.345-.168 3.576-1.796zm17.92-2.09c0-.187-1.25-2.64-1.346-2.64-.043 0-5.113-.966-11.267-2.148l-11.188-2.148-1.33 1.314c-.73.722-1.277 1.366-1.213 1.43.11.11 24.962 4.233 25.904 4.297.242.017.44-.03.44-.104zm6.224-5.351a73.71 73.71 0 0 1-.314-2.492c-.093-.85-.24-1.656-.328-1.791-.095-.146-4.77-.369-11.506-.549l-11.346-.302-1.19 1.337c-.668.75-1.064 1.381-.9 1.437.16.054 5.915.807 12.788 1.672 6.874.865 12.597 1.586 12.72 1.603.12.017.155-.395.076-.915zm-42.941-.567c4.696-.541 8.57-1.018 8.608-1.06.038-.042.42-.854.849-1.805.767-1.7.77-1.727.216-1.599-.31.072-5.016.564-10.459 1.095l-9.896.964v3.696l1.072-.153c.589-.085 4.913-.597 9.61-1.138zm-1.197-8.213c.316-.825.58-1.686.587-1.914.017-.546-10.923-7.4-11.386-7.134-1.187.685-4.969 3.757-4.808 3.906.374.346 14.569 6.784 14.8 6.712.129-.04.492-.746.807-1.57zm27.536-.016c.452-.918.774-1.718.715-1.777-.129-.128-24.884 1.099-25.026 1.24-.054.055-.17.46-.259.9l-.16.802 2.238.033c1.23.018 5.244.11 8.919.205 3.675.095 8.047.194 9.716.22l3.034.047.823-1.67zM72.02 44.2l.725-2.334-8.47-.069-8.47-.07-.511.634a13.7 13.7 0 0 0-.935 1.352l-.425.719 7.995 1.021c4.397.562 8.303 1.034 8.68 1.05.65.029.724-.09 1.411-2.303zm-27.282-2.223c1.2-.687 1.878-1.246 1.512-1.246-.072 0-8.154-2.503-17.962-5.564l-17.831-5.564L9.19 30.87c-.697.697-1.215 1.309-1.152 1.36.077.064 32.217 9.629 35.255 10.492.052.015.702-.32 1.444-.745zm18.756-7.3c0-1.248-.085-2.272-.189-2.274-.541-.01-24.911 2.35-24.99 2.42-.052.046.27.543.714 1.104l.808 1.02h23.657v-2.27zm8.705 1.45a112.5 112.5 0 0 1-.636-2.207c-.293-1.04-.57-2.012-.618-2.159-.06-.188-.744-.188-2.31 0l-2.224.268-.568 2.018c-.313 1.11-.572 2.103-.576 2.207-.004.104 1.577.189 3.514.189 2.705 0 3.498-.073 3.418-.315zm-39.464-3.604c3.675-.217 6.852-.42 7.06-.45.208-.03-.87-.719-2.396-1.53l-2.773-1.473-6.051.284c-3.328.156-6.477.283-6.997.281-.52-.002-.945.086-.945.194 0 .108.802.903 1.782 1.766 1.633 1.438 1.86 1.559 2.71 1.446.511-.068 3.935-.301 7.61-.518zm22.224-.891c1.402-.704 2.449-1.365 2.327-1.47-.121-.103-3.624-1.188-7.785-2.41a6521.78 6521.78 0 0 1-14.245-4.205c-3.674-1.09-6.795-1.98-6.933-1.977-.365.008-1.274 1.328-.993 1.44.186.075 24.748 9.772 25.012 9.875.038.015 1.215-.55 2.617-1.253zm-30.796-4.255v-.963l-3.845-1.42c-2.115-.78-3.963-1.418-4.108-1.417-.144 0-.757.505-1.362 1.122-1.08 1.1-1.088 1.123-.494 1.273.334.084 2.592.696 5.018 1.36 2.427.665 4.498 1.163 4.602 1.109.104-.055.189-.534.189-1.064zm40.587-4.314c-1.267-2.525-1.273-2.532-2.082-2.39-.447.078-4.603.705-9.235 1.395-4.633.69-8.47 1.3-8.528 1.358-.058.058.669.566 1.615 1.128l1.72 1.022 8.89.01 8.89.01-1.27-2.533zm-19.66-2.366c0-.059-.614-.63-1.363-1.271l-1.362-1.165-11.668-.626c-6.417-.344-11.745-.538-11.839-.431-.358.405-1.58 2.85-1.476 2.954.24.24 27.707.774 27.707.539zm11.666-7.84l-.936-1.892H42.387c-7.389 0-13.434.059-13.434.13 0 .071.255.524.567 1.006.387.597.769.883 1.198.898.516.017 25.062 1.606 26.534 1.717.368.028.288-.273-.496-1.859z"/></svg>