<svg xmlns="http://www.w3.org/2000/svg" width="80" height="80"><path d="M31.557 79.111C19.428 76.492 9.169 68.282 3.807 56.904-7.172 33.606 6.625 6.181 31.974.915c5.873-1.22 10.148-1.22 16.02 0 21.673 4.502 35.682 25.77 31.156 47.301-4.525 21.53-26.101 35.536-47.593 30.895zm1.84-7.04c-.768-1.753-1.574-3.155-1.79-3.115-4.302.79-7.593 1.73-7.593 2.167 0 .799 7.337 3.69 10.362 4.083.23.03-.21-1.38-.979-3.134zm8.094-1.67c0-2.672-.194-4.858-.432-4.858-1.032 0-5.595 2.034-5.595 2.494 0 .28.663 2.019 1.474 3.866 1.232 2.808 1.725 3.357 3.013 3.357 1.523 0 1.54-.053 1.54-4.858zm8.427 3.62c3.618-.945 8.45-3.46 8.434-4.389-.008-.412-.498-2.662-1.09-5-1.018-4.023-1.187-4.28-3.15-4.777-1.81-.459-2.562-.238-5.909 1.74-3.79 2.238-3.83 2.29-3.472 4.472.2 1.215.366 3.799.37 5.742.005 3.076.142 3.493 1.06 3.225.58-.17 2.271-.626 3.757-1.014zm-29.04-10.452c.097-2.255 0-4.1-.215-4.1-.716 0-7.794 1.926-8.063 2.194-.146.145 1.074 1.634 2.71 3.309 4.194 4.29 5.332 4.003 5.567-1.403zm43.136 2.054l1.656-1.741-2.522-1.017c-1.387-.56-2.604-.935-2.704-.834-.303.305 1.157 5.334 1.55 5.334.2 0 1.11-.784 2.02-1.742zM28 66.07c2.01-.51 2.622-.923 2.366-1.596-.19-.5-.645-2.103-1.01-3.563-.475-1.904-.97-2.655-1.748-2.655-2.604 0-2.99.598-2.99 4.62 0 2.135.15 3.882.335 3.882.185 0 1.556-.31 3.047-.688zm10.93-3.63c2.21-.953 2.562-1.357 2.562-2.948v-1.844h-4.52c-2.775 0-4.52.248-4.52.642 0 .354.305 1.864.678 3.358.752 3.009.686 3 5.8.793zm31.06-4.232l1.248-2.174-3.003-3.636-3.002-3.636-3.632 3.114c-4.597 3.942-4.425 4.845 1.344 7.082 2.288.887 4.528 1.57 4.978 1.518.45-.052 1.38-1.073 2.066-2.268zm-23.978.655c.205-.334.085-.607-.266-.607-.35 0-.638.273-.638.607 0 .334.12.607.266.607.146 0 .433-.273.638-.607zm-30.078-1.905l5.134-1.298-.415-3.409c-.576-4.73-1.196-6.142-2.692-6.142-1.42 0-6.275 3.9-8.31 6.675-1.26 1.715-1.283 1.932-.402 3.648.514 1.003 1.074 1.824 1.243 1.824.17 0 2.618-.584 5.442-1.298zm36.648-2.28c.976-1.087.96-1.3-.297-3.995-1.098-2.355-1.547-2.788-2.595-2.504-.697.188-1.73.346-2.295.351-.948.008-1.455 1.477-1.887 5.474-.09.83.907 1.152 5.382 1.736.363.048 1.124-.43 1.692-1.062zm-25.306.021c.175-.286.156-1.905-.043-3.598-.31-2.631-.58-3.133-1.861-3.457-.825-.209-1.583-.295-1.686-.192-.102.103-.032 1.893.155 3.977.31 3.451.465 3.79 1.729 3.79.763 0 1.53-.234 1.706-.52zm14.819-1.226c0-.626.153-1.925.34-2.885l.342-1.746-6.067-.187c-6.721-.208-6.559-.323-5.69 4.059l.377 1.898h5.349c4.828 0 5.349-.111 5.349-1.14zm31.703-5.362c.452-1.936.826-4.404.83-5.484l.01-1.964-1.958.977c-1.078.538-2.686 1.848-3.575 2.911l-1.616 1.933 2.44 2.878c1.343 1.583 2.578 2.741 2.744 2.574.166-.168.672-1.89 1.124-3.825zm-10.83-2.426c-.24-.242-7.713 1.545-8.111 1.94-.108.106.244 1.049.78 2.095l.976 1.902 3.302-2.843c1.816-1.564 3.19-2.956 3.053-3.094zm-51.14-1.321c-.424-.132-2.076-.73-3.671-1.33l-2.901-1.09.307 1.627c.17.895.486 2.818.705 4.274l.398 2.646 2.966-2.944c1.795-1.782 2.662-3.04 2.196-3.183zm32.601-2.6l.887-3.435-2.548-3.067c-2.857-3.439-2.267-3.422-9.261-.267l-3.466 1.562v4.068c0 2.237.19 4.258.421 4.491.232.233 3.27.347 6.751.253l6.33-.171.886-3.435zm4.295 1.916c-.355-.669-.771-1.215-.925-1.215-.154 0-.28.546-.28 1.215 0 .687.401 1.214.925 1.214.738 0 .795-.245.28-1.214zm-22.299-2.167v-2.775L24.466 40.1c-1.077.75-2.051 1.431-2.165 1.514-.113.083-.027.718.192 1.411.283.899.905 1.26 2.164 1.26 1.697 0 1.767-.11 1.767-2.773zm31.994 1.529l2.163-.57-3.368-6.9c-2.423-4.964-3.569-6.74-4.085-6.336-.394.31-1.436 2.411-2.316 4.67l-1.598 4.106 1.943 3.183c2.112 3.458 1.624 3.334 7.261 1.847zm-41.387-2.103c1.048-.799 1.085-1.117.395-3.473-.418-1.426-1.573-4.574-2.566-6.996-1.502-3.66-2.051-4.419-3.257-4.494-.798-.05-1.78-.119-2.185-.152-.924-.077-2.706 4.69-3.385 9.051l-.516 3.32 4.578 1.809c5.29 2.088 5.404 2.104 6.936.935zm49.531-.32c1.037-.375 2.826-2.125 4.401-4.308 2.455-3.402 2.613-3.844 2.11-5.898l-.545-2.22-6.88-.173c-3.784-.095-7.116.065-7.404.356-.56.564 5.263 12.874 6.09 12.874.264 0 1.267-.284 2.228-.631zm-42.55-4.48c2.006-1.332 2.138-1.64 2.745-6.41l.638-5.01-2.679.37c-1.473.204-3.96.37-5.527.37h-2.848l2.454 6.074c1.349 3.34 2.6 6.057 2.781 6.038.18-.02 1.277-.664 2.436-1.433zm24.57-6.165c-.126-.127-1.238.05-2.473.394l-2.244.625 1.374 1.703 1.375 1.702 1.098-2.097c.604-1.154.995-2.201.87-2.327zm-13.98-3.242c-1.705-1.718-2.935-2.532-3.272-2.164-.297.323-.721 2.28-.941 4.35l-.4 3.761 3.672-1.597 3.673-1.597-2.732-2.753zm11.586.176c5.386-1.307 6.27-2.338 5.272-6.148-.416-1.59-1-2.83-1.295-2.753-.296.077-3.115 1.116-6.263 2.31-3.15 1.192-6.11 2.3-6.581 2.461-.616.211-.202.968 1.478 2.702 1.284 1.325 2.562 2.409 2.841 2.409.279 0 2.326-.442 4.548-.981zM66.3 24.244h4.15l-.984-1.918c-1.043-2.032-6.137-7.8-6.89-7.8-.847 0-6.69 9.113-6.276 9.789.266.434 1.398.544 3.133.304 1.494-.206 4.584-.375 6.867-.375zm-40.068-2.97c1.506-.406 1.324-.605-3.292-3.589-2.687-1.737-5.14-3.159-5.452-3.159-.311 0-1.55 1.098-2.753 2.44-2.147 2.395-2.168 2.467-1.165 4.01 1.005 1.545 1.103 1.564 6.045 1.15 2.762-.233 5.74-.616 6.617-.852zm16.163-4.384c3.315-1.303 6.358-2.585 6.763-2.848.536-.347.6-1.347.239-3.653-.274-1.747-.67-3.348-.878-3.559-.21-.21-3.051-.513-6.315-.671l-5.935-.288-1.909 5.802c-1.05 3.192-1.909 6.39-1.909 7.11 0 1.153.228 1.257 1.959.891 1.077-.228 4.67-1.48 7.985-2.784zm14.92-1.561l2.192-3.145-2.661 1.626c-1.756 1.074-2.668 2.058-2.68 2.893-.016 1.067.593 2.414.87 1.923a261.27 261.27 0 0 1 2.278-3.297zm-26.593-3.545c.872-2.834 1.498-5.153 1.39-5.153-.898 0-8.705 3.317-9.816 4.17L20.88 11.89l3.827 2.482c2.105 1.365 3.962 2.5 4.128 2.523.166.023 1.015-2.277 1.887-5.111zm24.322-1.126c1.092-.804 1.088-.852-.146-1.518-1.782-.961-1.957-.887-1.957.831 0 1.723.484 1.88 2.103.687z"/></svg>