<svg xmlns="http://www.w3.org/2000/svg" height="80" width="80"><path d="M38.525 79.986c-3.906-.167-7.473-.804-10.992-1.961-5.434-1.788-10.27-4.62-14.57-8.535a55.26 55.26 0 0 1-2.527-2.534C7.878 64.13 5.86 61.185 4.201 57.86c-1.746-3.5-2.862-6.87-3.59-10.837-.54-2.946-.735-6.442-.533-9.597a39.858 39.858 0 0 1 9.526-23.438A40.006 40.006 0 0 1 29.64 1.344C32.267.64 34.836.23 37.768.048c.907-.057 3.335-.065 4.213-.015 1.979.113 3.65.31 5.395.635 9.41 1.757 17.864 6.842 23.88 14.366a39.85 39.85 0 0 1 7.193 13.903 40.24 40.24 0 0 1 1.087 17.167 39.915 39.915 0 0 1-4.496 13.205c-3.936 7.134-10.02 12.957-17.298 16.556-4.93 2.439-10.083 3.783-15.695 4.095a63.56 63.56 0 0 1-3.522.026zm.588-19.171a8193.72 8193.72 0 0 0 3.083-6.838l.036-.085-.709-.522c-.568-.419-.716-.516-.742-.489-.018.019-1.098 1.3-2.4 2.846l-2.367 2.813v4.558c0 2.961.01 4.543.027 4.514.014-.024 1.397-3.083 3.072-6.797zm7.85.987l1.863-5.295.026-.61c.075-1.809-.027-3.97-.28-5.915-.527-4.057-1.779-7.25-3.566-9.099l-.3-.31.054.132c.12.29.508 1.39.673 1.906 1.134 3.551 1.547 6.633 1.183 8.838a6.21 6.21 0 0 1-.532 1.746 4.177 4.177 0 0 1-.758 1.119l-.249.26v6.273c0 3.45.005 6.267.01 6.261.007-.006.85-2.394 1.875-5.306zm-3.79-1.97c.507-2.866.921-5.223.921-5.238 0-.015-.27-.162-.598-.326l-.598-.3-.333.666-.332.666-.027 1.873c-.016 1.03-.03 3.085-.033 4.566-.004 2.498.011 3.383.059 3.328.01-.013.433-2.368.94-5.234zm-13.431.347l5.033-2.412.307-.28c1.184-1.08 2.694-2.702 3.751-4.03 2.4-3.014 3.814-5.834 4.198-8.366.063-.42.112-1.048.101-1.299l-.008-.192-.199.445a33.525 33.525 0 0 1-2.494 4.527c-1.306 1.967-2.563 3.334-3.873 4.21-.929.622-1.765.917-2.728.963l-.363.018-4.408 4.424a693.026 693.026 0 0 0-4.38 4.414c.017-.005 2.295-1.095 5.063-2.422zm26.86 1.94c-.02-.048-1.217-3.212-2.66-7.031a1423.14 1423.14 0 0 0-2.644-6.965c-.017-.02-1.717.224-1.74.249-.005.006.133 1.672.307 3.703l.317 3.692 3.209 3.22a398.287 398.287 0 0 0 3.227 3.218c.01 0 .003-.039-.017-.086zm-28.177-6a806.806 806.806 0 0 0 4.345-3.047c.035-.033.015-.113-.168-.664-.114-.344-.21-.626-.213-.626l-.72.24-.715.239-.281.274a664.057 664.057 0 0 0-3.867 3.791c-1.817 1.795-2.936 2.956-2.723 2.825l4.342-3.031zm-3.515-2.195c3.863-1.46 7.03-2.663 7.04-2.672.016-.017-.235-1.71-.257-1.733-.007-.007-1.672.13-3.7.303l-3.688.316-2.964 2.952c-3.37 3.36-3.501 3.49-3.474 3.49.01 0 3.18-1.195 7.043-2.656zm34.222 1.968c-.048-.07-1.425-2.042-3.06-4.381l-2.97-4.253-.63.206c-.434.143-.63.218-.628.244.002.02.104.341.226.713l.224.676 1.207 1.242c2.361 2.43 5.627 5.682 5.705 5.682a.461.461 0 0 0-.074-.129zm3.527-.485c-.009-.015-1.104-2.297-2.432-5.07l-2.416-5.045-.3-.331a41.565 41.565 0 0 0-2.02-2.017c-3.965-3.656-7.765-5.726-10.985-5.985a6.57 6.57 0 0 0-.607-.021l-.235.009.354.156c.533.236 1.776.856 2.362 1.177 1.643.903 3.037 1.833 4.204 2.804.525.437 1.424 1.338 1.776 1.78.926 1.164 1.378 2.228 1.428 3.355l.016.368 4.427 4.424c2.435 2.433 4.431 4.423 4.436 4.423.005 0 .002-.012-.008-.027zm-35.39-6.664c5.005-.288 8.794-1.4 11.21-3.291.383-.3.931-.827.817-.785a36.142 36.142 0 0 1-2.884.971c-1.756.506-3.233.805-4.771.963-.574.059-2.072.067-2.552.014-1.436-.16-2.478-.55-3.282-1.226a4.333 4.333 0 0 1-.337-.309l-.084-.096h-6.267c-3.447 0-6.256.01-6.242.023.014.012.677.251 1.474.531a10287.353 10287.353 0 0 1 8.957 3.155c.115.043.25.06.625.077.597.027 2.678.01 3.336-.027zm40.386-4.715c-.014-.013-3.103-1.412-6.864-3.11-5.031-2.27-6.848-3.077-6.87-3.056a34.44 34.44 0 0 0-.527.704l-.499.673.072.07c.039.04 1.32 1.122 2.845 2.407l2.774 2.335h4.548c2.616 0 4.536-.01 4.521-.023zm-41.961-.603l.299-.6-.671-.337-.671-.338-1.502-.023c-2.094-.034-7.717-.04-8.04-.01-.246.022-.258.026-.16.048.099.022 10.36 1.85 10.42 1.857.014.001.16-.268.325-.597zm10.658-.376a13.31 13.31 0 0 0-.561-.265c-2.926-1.336-5.575-3.051-7.237-4.685-1.255-1.234-1.987-2.403-2.241-3.579-.063-.291-.112-.842-.089-.988l.016-.096-1.5-1.505c-3.888-3.905-7.39-7.376-7.351-7.287.197.456 4.817 10.047 4.87 10.111.223.27 1.253 1.33 1.767 1.817 4.247 4.035 8.255 6.256 11.668 6.464.445.028.677.032.658.013zm-9.76-1.6l.523-.71-.076-.074c-.042-.04-1.318-1.119-2.836-2.396l-2.76-2.322-4.55.002c-4.192.001-4.542.005-4.463.044.047.024 3.133 1.42 6.857 3.101l6.776 3.061c.003.002.24-.316.528-.706zm8.633-2.243c-1.07-2.81-1.741-5.568-1.923-7.908-.034-.443-.034-1.65 0-2.029.095-1.044.298-1.832.655-2.543a4.31 4.31 0 0 1 .755-1.097l.212-.222-.007-6.258-.007-6.258-1.866 5.31-1.866 5.31-.016.364c-.026.574-.018 2.538.013 3.155.278 5.576 1.606 9.749 3.847 12.09.14.146.258.266.263.266.004 0-.022-.081-.06-.18zm29.85-1.357c.062-.02-.236-.08-1.542-.311l-5.268-.934-3.65-.648-.29.582c-.16.32-.29.594-.29.609 0 .014.305.176.678.358l.68.332 1.998.025c2.468.03 7.578.022 7.684-.013zM37.05 36.014c.241-.542.833-1.733 1.131-2.28 2.38-4.353 4.874-6.901 7.256-7.41.171-.038.411-.063.674-.073l.408-.015 4.43-4.435 4.429-4.435-.2.09c-.11.05-2.393 1.142-5.076 2.428l-4.876 2.339-.28.255a61.261 61.261 0 0 0-2.29 2.313c-3.4 3.753-5.408 7.425-5.722 10.463-.052.505-.08 1.14-.05 1.106.013-.015.088-.17.166-.346zm4.134-.873a34.269 34.269 0 0 1 4.93-1.418c3.494-.694 6.079-.501 7.693.572.267.177.69.531.762.637l.038.056 6.28-.007 6.28-.007-1.92-.676a19157.691 19157.691 0 0 1-7.739-2.725l-.98-.344-.894-.025a36.765 36.765 0 0 0-5.134.227c-3.877.453-6.914 1.498-8.93 3.073-.458.358-1.001.872-.864.819l.478-.182zm-13.635-2.623c.336-.112.615-.207.62-.212.005-.004-.096-.328-.226-.72l-.235-.712-1.195-1.23c-2.613-2.685-5.515-5.58-5.686-5.672-.027-.015.032.092.133.237 1.17 1.689 5.95 8.512 5.962 8.512.008 0 .29-.091.627-.203zm2.081-.773c.449-.068.82-.126.823-.13a456.28 456.28 0 0 0-.31-3.706l-.317-3.701-3.205-3.213c-1.762-1.767-3.21-3.207-3.217-3.2-.01.01 4.508 11.995 5.212 13.827.075.195.105.246.147.246.028 0 .419-.055.867-.123zm22.516-1.597l3.572-.305 3.22-3.22a758.477 758.477 0 0 0 3.218-3.225c-.01-.017-14.088 5.324-14.096 5.348-.008.027.225 1.634.248 1.702.007.021.051.027.138.018l3.7-.318zm-3.785-2.189l.69-.23.413-.403.904-.883c3.75-3.67 5.856-5.79 5.581-5.625a3504.356 3504.356 0 0 0-8.728 6.094c-.028.025.385 1.277.422 1.277.014 0 .338-.103.718-.23zm-6.756-3.675l2.381-2.826.001-4.556c0-2.506-.004-4.551-.01-4.545-.036.036-6.163 13.643-6.165 13.692-.003.048.131.158.685.567.379.28.698.505.708.501.01-.004 1.09-1.279 2.4-2.833zm-4.157 1.06l.33-.66.023-1.48c.031-1.982.04-7.85.012-8.112a.776.776 0 0 0-.034-.198c-.008.009-1.87 10.472-1.87 10.512 0 .015 1.15.594 1.182.596.015 0 .175-.295.357-.658z"/></svg>