<svg xmlns="http://www.w3.org/2000/svg" width="64" height="64"><path d="M34.071 62.934c-3.42-.494-6.992-.119-10.306-1.212-2.452-.563-4.658-1.643-6.861-2.786-6.807-3.767-12.24-10.163-14.659-17.58-1.68-4.537-1.24-9.534-1.097-14.287.573-4.493 2.58-8.717 5.01-12.52C12.903 4.62 25.674-.815 37.497 1.511c3.435.543 6.678 1.785 9.75 3.413 6.3 3.51 11.315 9.326 13.912 16.057 1.209 2.98 1.93 6.204 1.83 9.49.121 4.096-.072 8.331-1.751 12.082-.577 1.972-1.649 3.548-2.497 5.368-3.068 4.292-6.789 8.352-11.481 10.87a26.798 26.798 0 0 1-6.118 2.597c-2.228.727-4.773 1.163-7.072 1.545zm-13.66-11.117c3.638-2.356 7.01-6.455 6.578-11.028-1.847-3.575-6.033.466-7.68 2.368-1.563 2.048-3.097 4.445-2.876 7.16-.303 2.506 2.454 2.491 3.978 1.5zm26.696.102c1.449-2.89-.551-6.157-2.257-8.515-1.519-2.174-6.262-6.31-7.91-2.402-.12 4.666 3.18 8.888 7.129 11.06.939.448 2.213.652 3.038-.143zm-13.813-6.946c1.576-2.039 1.774-6.056-.149-7.874-3.095.25-2.94 5.073-1.846 7.275.34.732 1.32 1.33 1.995.599zm-9.9-7.66c2.366.207 5.994-3.818 1.974-4.115-2.266-.577-8.376 2.204-5.074 4.202 1.002.41 2.09.096 3.1-.087zM44.6 36.137c1.344-2.91-3.522-4.429-5.849-4.22-4.186.887.928 4.56 3.114 4.47.91.083 1.872.098 2.735-.25zm-23.447-5.809c3.688-1.675-.21-5.603-2.671-6.308-2.832-1.475-6.258-1.803-9.339-1.073-3.311 2.253 1.281 5.738 3.691 6.473 2.658 1.106 5.473 1.683 8.319.908zm27.393-.095c2.788-.873 6.25-2.009 7.413-4.966.205-3.721-4.897-2.66-7.27-2.44-2.715.855-6.033 1.915-7.325 4.72-.764 3.697 4.272 3.227 6.605 2.801l.577-.115zM28.35 28.207c1.299-2.788-1.332-6.293-4.048-7.114-2.775 1.152.018 5.262 1.696 6.555.647.443 1.591 1.232 2.352.56zm7.905-.957c1.932-1.048 5.555-5.372 2.552-6.71-2.656.527-5.998 4.312-4.348 6.85.575.285 1.253.136 1.796-.14zm-3.143-5.275c2.765-2.82 2.352-7.13 2.071-10.743.108-3.05-3.987-6.239-5.565-2.428-1.516 2.872-1.037 6.299-.857 9.416.533 1.896 1.747 5.024 4.351 3.755z"/></svg>