<svg id="SVGRoot" width="80px" height="80px" version="1.1" viewBox="0 0 80 80" xmlns="http://www.w3.org/2000/svg"><path d="m38.598 79.975c-8.659-0.30527-16.875-3.3561-23.63-8.7747-2.3515-1.8862-4.5544-4.1109-6.4281-6.4916-4.5903-5.8326-7.4679-12.845-8.2902-20.201-0.46245-4.1375-0.27968-8.3881 0.53438-12.428 1.9249-9.5518 7.2695-18.051 15.08-23.979 3.6061-2.7374 7.7649-4.8894 12.07-6.2461 8.9457-2.8189 18.636-2.4133 27.277 1.1418 9.3936 3.8646 17.02 11.222 21.222 20.474 1.9863 4.3731 3.1581 9.0401 3.4778 13.85 0.45888 6.9062-0.85733 13.775-3.823 19.95-2.4257 5.0507-5.8406 9.4906-10.112 13.147-3.4373 2.9423-7.4164 5.3148-11.622 6.9297-5.0034 1.9211-10.382 2.8185-15.756 2.629zm19.359-7.4223c0.32246-0.0333 0.38415-0.04767 0.49269-0.11475 0.30301-0.18732 0.39049-0.59426 0.19213-0.8937-0.1277-0.19278-0.27134-0.25392-0.7102-0.30232-3.3215-0.36634-6.3038-1.7604-8.6749-4.055-1.1794-1.1414-2.1122-2.421-2.8659-3.9316-0.82135-1.646-1.2892-3.2882-1.4892-5.227-0.04617-0.44754-0.0463-2.1426-2.67e-4 -2.5869 0.25148-2.4238 0.94372-4.4656 2.1926-6.4671 0.42057-0.67404 0.59728-1.0824 0.72418-1.6735 0.0803-0.37404 0.08663-1.1564 0.01263-1.5534-0.44216-2.3702-2.7119-3.8834-5.0609-3.374-0.51246 0.11114-1.0998 0.37288-1.5429 0.68763-0.30569 0.21712-0.73163 0.63894-0.94195 0.93284-0.19246 0.26895-0.4573 0.73373-0.76361 1.3401-1.147 2.2707-1.8116 4.7192-1.9781 7.2876-0.04111 0.63429-0.01771 2.2896 0.04061 2.8731 0.44633 4.4661 2.3227 8.4856 5.4026 11.573 1.9343 1.9392 4.2386 3.4177 6.8347 4.3852 1.6697 0.6223 3.4931 1.0073 5.3802 1.1359 0.48717 0.03315 2.3154 0.0095 2.7556-0.03646zm-24.918-28.42c1.5956-0.19527 2.9518-1.2862 3.4779-2.7977 0.17764-0.51032 0.21322-0.74195 0.21322-1.3883 0-0.49291-0.0084-0.6115-0.05921-0.84508-0.14998-0.68837-0.40506-1.2089-1.1212-2.288-1.3669-2.0597-3.1554-3.8481-5.2318-5.2314-2.3536-1.5681-5.1021-2.6048-7.9045-2.9817-0.96671-0.13-1.4503-0.16004-2.5635-0.15924-1.0764 7.74e-4 -1.5168 0.02718-2.427 0.14553-3.4962 0.45463-6.8857 1.9432-9.6012 4.2167-2.0305 1.7-3.6067 3.6968-4.7938 6.0732-0.29261 0.58576-0.32579 0.66663-0.33539 0.81742-0.00631 0.09204 0.00474 0.21211 0.0221 0.26682 0.04341 0.13136 0.20032 0.30229 0.3331 0.36276 0.14901 0.06787 0.38215 0.06472 0.53528-0.0073 0.13402-0.06301 0.16395-0.09627 0.53579-0.59636 0.71214-0.95774 1.6953-1.969 2.6227-2.6978 1.7271-1.3571 3.7593-2.3266 5.8541-2.7929 1.4356-0.31954 2.8539-0.42091 4.3072-0.30783 3.9201 0.305 7.5539 2.1753 10.065 5.1802 0.67678 0.80995 1.2357 1.6557 1.8143 2.7454 0.37554 0.70729 0.8444 1.229 1.4693 1.6348 0.52005 0.33776 1.1586 0.57166 1.7736 0.64962 0.25431 0.03225 0.75518 0.03278 1.0142 0.0011zm12.094-6.4004c4.4712-0.33094 8.5978-2.1912 11.798-5.3187 2.962-2.8944 4.8905-6.6782 5.4701-10.732 0.16225-1.1349 0.21747-2.1538 0.18225-3.3627-0.10434-3.5816-1.2995-7.1822-3.3572-10.114-0.19735-0.28121-0.24759-0.33546-0.36976-0.39928-0.37685-0.19686-0.81888 0.00773-0.91156 0.42177-0.04055 0.18121-0.01468 0.27797 0.21261 0.79323 0.61357 1.3913 0.99981 2.9265 1.1552 4.5916 0.04489 0.4811 0.0447 1.911-3.21e-4 2.4002-0.24815 2.6963-1.14 5.1319-2.6546 7.2495-2.2949 3.2086-5.7767 5.356-9.6448 5.9487-0.87783 0.1345-1.2568 0.15838-2.5603 0.16137-1.1633 0.0027-1.2256 0.0054-1.5055 0.06486-2.1066 0.44782-3.5312 2.3235-3.3731 4.4412 0.04382 0.58713 0.16611 1.0274 0.43766 1.5758 0.62473 1.2616 1.8688 2.1326 3.2941 2.3063 0.23347 0.02844 1.2882 0.01279 1.8269-0.02702z" stroke-width=".026669"/></svg>
