<svg id="svg" xmlns="http://www.w3.org/2000/svg" xmlns:xlink="http://www.w3.org/1999/xlink" width="400" height="400" viewBox="0, 0, 400,400"><g id="svgg"><path id="path0" d="M184.425 2.443 C 16.086 16.390,-59.249 220.764,59.994 340.006 C 164.016 444.028,341.721 402.172,387.934 262.763 C 432.504 128.316,324.996 -9.203,184.425 2.443 M208.000 102.400 L 208.000 166.400 203.200 166.400 L 198.400 166.400 198.400 102.400 L 198.400 38.400 203.200 38.400 L 208.000 38.400 208.000 102.400 M188.800 128.800 L 188.800 192.800 184.000 192.800 L 179.200 192.800 179.200 128.800 L 179.200 64.800 184.000 64.800 L 188.800 64.800 188.800 128.800 M335.200 184.000 L 335.200 188.800 271.200 188.800 L 207.200 188.800 207.200 184.000 L 207.200 179.200 271.200 179.200 L 335.200 179.200 335.200 184.000 M166.400 196.800 L 166.400 201.600 102.400 201.600 L 38.400 201.600 38.400 196.800 L 38.400 192.000 102.400 192.000 L 166.400 192.000 166.400 196.800 M361.600 203.200 L 361.600 208.000 297.600 208.000 L 233.600 208.000 233.600 203.200 L 233.600 198.400 297.600 198.400 L 361.600 198.400 361.600 203.200 M220.800 271.200 L 220.800 335.200 216.000 335.200 L 211.200 335.200 211.200 271.200 L 211.200 207.200 216.000 207.200 L 220.800 207.200 220.800 271.200 M192.800 216.000 L 192.800 220.800 128.800 220.800 L 64.800 220.800 64.800 216.000 L 64.800 211.200 128.800 211.200 L 192.800 211.200 192.800 216.000 M201.600 297.600 L 201.600 361.600 196.800 361.600 L 192.000 361.600 192.000 297.600 L 192.000 233.600 196.800 233.600 L 201.600 233.600 201.600 297.600 " stroke="none" fill="#000000" fill-rule="evenodd"></path></g></svg>