<svg xmlns="http://www.w3.org/2000/svg" width="64pt" height="64pt" viewBox="0 0 64 64"><path d="M28.559 63.824C16.152 62.563 4.929 53.43 1.426 41.383c-4.02-12.488.691-27.137 11.246-34.895 10.07-7.808 24.851-8.691 35.715-1.98 11.168 6.484 17.496 20.207 15.117 32.937-1.871 11.582-10.66 21.594-21.828 25.02-4.215 1.379-8.711 1.816-13.117 1.36zM41.457 53.38c4.34-.492 3.02-5.914 1.207-8.336-1.258-1.711-5.16-5.902-2.023-7.027 1.922 1.054 4.843 4.312 6.386.933.715 3.149 5.551 3.938 4.887-.172.73-4.375-4.266-2.27-5.07-1.101-.461-2.625-3.711-3.848-4.098-6.008 1.336-1.941 8.14-3.098 5.277-5.918-3.222-1.23-4.925 3.297-7.953 2.328-1.324-1.86 4.512-5.719.953-5.953-1.445.941-4.668 5.172-4.539.988.078-3.543 2.598-6.894 1.286-10.453-2.208-3.543-6.54.602-5.426 3.746-.004 2.887 1.203 5.942.07 8.723-2.883 3.574-2.898-3.715-3.863-5.395-.762-4.46-6.738-2.859-5.867 1.278-.36 3.437 4.054 4.695 4.675 7.695-1.324.102-5.593-3.309-4.941.445 3.34 1.887-1.102 3.211-2.742 1.618-2.172-1.61-7.254-2.575-7.762 1.105-.383 1.781.719 3.055 2.234 3.848 3.864.84 7.727-2.055 11.594-.801 1.871 1.914-3.097 6.207 1.563 6.937 1.601-1.398 3.437-3.457 4.336-.257 1.968 2.09 2.734-4.485 4.183-.676.637 3.883-.36 8.672 2.918 11.601.758.59 1.711 1.243 2.715.852zm-8.543-.77c.918-2.101 1.074-6.46-1.047-7.457-2.238 1.516-4.308 6.477-1.055 7.922.704.192 1.598.14 2.102-.465zM18 50.402c3.18-2.379-4.742-3.39-1.629-.101.496.25 1.102.367 1.629.101zm4.39-2.125c1.868-2.879-3.328-8.437-4.343-3.05-.77 2.539 2.363 4.535 4.344 3.05zm2.84-3.941c1.829-2.922-3.253-5.707-3.109-1.578.293 1.148 1.988 2.562 3.11 1.578zm-5.25-18.188c.954-3.023-2.859-6.316-5.648-7.222-4.18-.41-2.41 5.625.605 6.078 1.575.527 3.364 1.598 5.043 1.144zm24.887-5.863c1.66-1.726 5.551-3.758 4.133-6.5-3.402-1.152-6.887 2.945-5.945 6.18.468.617 1.16.816 1.812.32zm0 0"/></svg>