<svg xmlns="http://www.w3.org/2000/svg" width="64pt" height="64pt" viewBox="0 0 64 64"><path d="M30.348 7.012V27.75h3.457V11.637l4.203.597 1.054.297.899.297 1.055.3 1.05.446 1.051.301 1.051.445.902.598.903.45 1.05.593 1.805 1.195.75.746.902.746 2.25 2.239.602.746 1.203 1.789.45.894.6.895.302.894.453.899.148 1.043.301.894.148 1.043.153 1.047v1.043-1.344l-.153-1.19-.148-1.345-.152-1.191-.598-2.387-.902-2.39-.602-1.043-.45-1.192-.753-1.047-.602-1.043-.75-1.043-.75-.898-.902-1.043-1.652-1.64-1.051-.747-1.05-.894-1.055-.746-2.102-1.196-1.203-.593-2.403-.895-1.351-.3-1.203-.446-1.352-.152-1.351-.297h-4.207m3.304 49.976V36.25h-3.457v16.113l-4.203-.597-1.055-.297-1.05-.149-.903-.449-1.05-.297-2.102-.894-.902-.598-1.051-.45-2.707-1.788-.75-.746-.902-.598-1.5-1.492-.75-.895-.602-.746-.602-.894-.601-.746-.45-.895-.6-1.043-.454-.894-.598-1.793-.152-1.043-.149-1.043-.152-1.047-.148-.895.148 1.196.152 1.34.149 1.195.152 1.191.598 2.387.902 2.39.453 1.043.598 1.192.602 1.047 1.504 2.086.75.898.75 1.043.902.895.902.746 1.051.894.902.746 1.051.746 1.05.598 2.407 1.191 3.606 1.344 1.351.297 1.352.152 1.351.297h1.352l1.504.149 1.351-.149M31.098 0l-1.653.148-1.8.149-1.504.3-1.801.298-1.656.597-1.5.446-1.653.597-1.652.746-1.352.746-3.007 1.79-2.704 2.09-2.402 2.386-1.05 1.344L6.16 12.98l-.902 1.34-.903 1.492-1.5 2.985-.753 1.64-.598 1.493-.902 3.28L.3 27.005 0 30.285v3.43l.148 1.64.153 1.793.3 1.641.903 3.281.598 1.64.753 1.493.75 1.64.75 1.493.903 1.344.902 1.492 1.203 1.34 1.051 1.195 2.402 2.387 2.704 2.09 1.503 1.043 1.504.746 1.352.746 3.305 1.492 1.5.445 1.656.45 1.8.296 1.505.301 1.8.149 1.653.148h1.804l3.305-.297 1.652-.3 1.801-.298 1.504-.449 1.652-.445 1.653-.746 4.508-2.238 4.054-3.133 1.356-1.196 1.199-1.191 1.05-1.195 1.055-1.34 1.051-1.492.75-1.344.903-1.492.75-1.64.753-1.493.45-1.64.601-1.641.602-3.282.3-1.793.149-1.64v-3.43l-.148-1.64-.301-1.641-.301-1.793-.3-1.64-.602-1.641-.45-1.492-.753-1.641-.75-1.492-.903-1.492-.75-1.493-3.156-4.027-1.2-1.191-1.355-1.196-2.703-2.09-1.351-.894-1.504-.895-3.004-1.492-1.653-.598-1.652-.445L39.66.895l-1.8-.297-1.653-.301L32.902 0h-1.804" fill-rule="evenodd"/></svg>