<?xml version="1.0" encoding="UTF-8" standalone="no"?>
<!-- Created with Inkscape (http://www.inkscape.org/) -->

<svg
   width="178.68172mm"
   height="178.68161mm"
   viewBox="0 0 178.68172 178.68161"
   version="1.1"
   id="svg5"
   inkscape:version="1.1.2 (0a00cf5339, 2022-02-04)"
   sodipodi:docname="gobo00136.svg"
   xmlns:inkscape="http://www.inkscape.org/namespaces/inkscape"
   xmlns:sodipodi="http://sodipodi.sourceforge.net/DTD/sodipodi-0.dtd"
   xmlns="http://www.w3.org/2000/svg"
   xmlns:svg="http://www.w3.org/2000/svg">
  <sodipodi:namedview
     id="namedview7"
     pagecolor="#ffffff"
     bordercolor="#666666"
     borderopacity="1.0"
     inkscape:pageshadow="2"
     inkscape:pageopacity="0.0"
     inkscape:pagecheckerboard="0"
     inkscape:document-units="mm"
     showgrid="false"
     inkscape:zoom="0.69664703"
     inkscape:cx="301.4439"
     inkscape:cy="477.28618"
     inkscape:window-width="1846"
     inkscape:window-height="1016"
     inkscape:window-x="0"
     inkscape:window-y="0"
     inkscape:window-maximized="1"
     inkscape:current-layer="layer1" />
  <defs
     id="defs2" />
  <g
     inkscape:label="Layer 1"
     inkscape:groupmode="layer"
     id="layer1"
     transform="translate(-5.5102588,-3.021004)">
    <path
       id="path417"
       style="fill:#000000;stroke-width:0.196317"
       d="M 94.851085,3.021004 A 89.340903,89.340903 0 0 0 5.5102588,92.361819 89.340903,89.340903 0 0 0 94.851085,181.70262 89.340903,89.340903 0 0 0 184.19198,92.361819 89.340903,89.340903 0 0 0 94.851085,3.021004 Z m -8.659047,9.712332 c 5.362651,0.105722 12.313724,1.659247 15.751782,3.71584 0.32393,0.193765 1.11902,0.640969 1.76687,0.993472 8.90075,4.843007 18.48943,17.254417 14.79363,19.148597 -0.36228,0.185683 -0.71151,0.41912 -0.77607,0.518784 -0.50862,0.785489 -1.98459,-0.02804 -3.82435,-2.107726 -0.63933,-0.722711 -1.25254,-1.414489 -1.36234,-1.53718 -0.1098,-0.12269 -0.8756,-1.024565 -1.70168,-2.004198 -4.60638,-5.462621 -9.11667,-8.768339 -13.411366,-9.829281 -1.213391,-0.299749 -4.574703,-1.086535 -5.496882,-1.286798 -4.851173,-1.053501 -15.192215,0.668955 -18.043929,3.005724 -0.117494,0.09628 -0.699458,0.497847 -1.293316,0.892246 -3.151341,2.092905 -6.381544,6.081607 -8.977293,11.085405 -0.55459,1.069075 -1.244149,2.066311 -1.75497,2.537168 -2.309358,2.128693 -4.508172,-0.391458 -3.792527,-4.34697 1.515559,-8.376694 6.734733,-14.75898 14.819266,-18.121764 3.713509,-1.544644 4.414571,-1.721082 9.907119,-2.493459 1.00566,-0.141418 2.158521,-0.194257 3.396056,-0.16986 z m 2.616924,13.626025 c 9.240545,0.135416 15.919358,3.51313 23.926998,11.928954 2.96741,3.11868 3.80981,5.334742 2.57437,6.771026 -1.17059,1.360884 -2.59953,0.739943 -6.39721,-2.779498 -10.611403,-9.833977 -24.540578,-11.898041 -31.918467,-4.729635 -0.117241,0.113911 -0.868152,0.780877 -1.668696,1.481965 -0.800543,0.701088 -2.692306,2.499607 -4.203949,3.996512 -1.51164,1.496907 -2.951276,2.799691 -3.198973,2.895296 -1.301185,0.502199 -1.845749,0.340374 -2.685559,-0.797922 -1.108913,-1.503049 -0.109319,-5.236579 2.263783,-8.455828 1.06058,-1.438732 4.01184,-4.311308 4.429407,-4.311308 0.06517,0 0.528262,-0.34093 1.029132,-0.75728 4.487578,-3.730304 8.006949,-5.047225 13.965745,-5.226561 0.639963,-0.01926 1.267383,-0.02475 1.883419,-0.01572 z m 0.356209,10.089631 c 2.195863,-0.06599 4.539706,0.397542 7.091192,1.384957 6.682207,2.585976 16.124667,13.101839 13.736507,15.298171 -0.98844,0.909051 -2.3271,0.268551 -5.51378,-2.638395 -8.83508,-8.059538 -14.80218,-8.943071 -23.050428,-3.412929 -7.573484,5.077746 -7.688305,-2.052263 -0.124615,-7.737659 2.459586,-1.848799 5.037871,-2.809307 7.861124,-2.894145 z m 47.172189,0.192866 c 4.99344,0.05255 10.84254,1.145703 15.17662,3.40181 4.57144,2.379653 9.86633,7.145567 13.38255,12.045134 2.02067,2.815637 4.52004,9.969699 4.56092,13.055095 0.0107,0.809802 0.0926,1.525799 0.18175,1.591241 0.40632,0.298116 -0.82586,7.041249 -1.76532,9.660572 -1.12649,3.140812 -3.89253,7.004884 -5.42787,7.582752 -2.4653,0.927883 -2.8854,-0.758004 -1.33012,-5.341208 1.29483,-3.815755 1.36929,-4.073278 2.15604,-7.459671 0.56035,-2.411916 0.0172,-7.448874 -1.06364,-9.861872 -0.24181,-0.53987 -0.50591,-1.202445 -0.58665,-1.472379 -0.14522,-0.485541 -1.04897,-2.290733 -1.52031,-3.036399 -1.36009,-2.151656 -6.47914,-7.528211 -7.94932,-8.349233 -0.45888,-0.256267 -0.83434,-0.539986 -0.83434,-0.630746 0,-0.09077 -0.19878,-0.252246 -0.44172,-0.358891 -0.24294,-0.106648 -0.7152,-0.360166 -1.04945,-0.563264 -3.74163,-2.273549 -9.38025,-3.549592 -17.45229,-3.948966 -4.66041,-0.23058 -5.47406,-0.448871 -6.01605,-1.615398 -1.44653,-3.113373 3.55907,-4.766138 9.9792,-4.698577 z m -93.718539,3.768754 c 4.536631,0.06072 8.438763,0.959636 9.750677,2.77068 1.74331,2.406572 0.594971,2.779973 -9.907502,3.221595 -2.429478,0.102165 -4.112209,0.371243 -6.284451,1.00536 -0.539872,0.15759 -1.334957,0.384825 -1.766855,0.504596 -3.403997,0.94394 -9.297328,4.798843 -9.321999,6.09772 -0.0016,0.08535 -0.166208,0.394553 -0.365411,0.687111 -0.409853,0.60192 -1.566593,2.543625 -2.129966,3.575121 -1.275438,2.335244 -2.451526,7.535539 -2.405271,10.635253 0.08164,5.471464 2.430705,11.199425 6.494191,15.836128 5.201339,5.935059 6.049157,7.442293 4.757242,8.458511 -1.407298,1.106984 -4.729192,-0.02303 -7.399472,-2.517232 -3.824509,-3.572316 -7.18091,-8.266423 -8.857669,-12.388305 -0.285502,-0.70183 -0.598934,-1.452749 -0.696696,-1.668696 -1.575592,-3.480318 -2.139466,-10.547186 -1.211646,-15.190045 1.118368,-5.596373 4.294796,-11.167229 8.081602,-14.173949 0.914038,-0.725745 3.661723,-2.537553 3.848125,-2.537553 0.05816,0 0.475021,-0.248178 0.926372,-0.551376 3.774204,-2.535372 10.655917,-3.84299 16.488729,-3.764919 z m 86.186399,4.873422 c 11.11743,-0.100756 24.9322,8.333294 27.3851,16.718787 0.11055,0.377915 0.37639,1.305506 0.59087,2.061331 2.194,7.732342 0.34221,18.905202 -3.36577,20.306177 -2.48734,0.939778 -3.3125,-0.892653 -2.30481,-5.119584 2.2479,-9.429012 1.10544,-14.500456 -4.54443,-20.173128 -3.68162,-3.696487 -8.23018,-5.770016 -16.84341,-7.678226 -5.33196,-1.181266 -5.3043,-1.172755 -6.00301,-1.892238 -2.18017,-2.244984 0.14816,-4.178379 5.08546,-4.223119 z m -37.719438,1.332809 c 3.916846,-0.09682 8.050582,2.290419 12.027898,7.1188 4.94861,6.007499 3.03933,9.561539 -2.34777,4.370358 -6.70272,-6.458991 -12.368119,-5.447678 -17.584579,3.139158 -0.370111,0.609229 -0.943538,1.293883 -1.274146,1.521458 -4.452793,3.065034 -3.971344,-5.950891 0.608507,-11.395601 2.608298,-3.100848 5.523653,-4.678868 8.57009,-4.754173 z m -37.23662,2.284871 c 1.762187,0.01156 3.182677,0.31497 4.090069,0.936724 3.389387,2.322448 1.653543,4.532377 -4.387613,5.585456 -1.565626,0.272916 -3.117765,0.583861 -3.449354,0.690944 -0.33159,0.107076 -0.746241,0.194784 -0.921388,0.194784 -0.480561,0 -3.812248,1.145415 -5.167897,1.776824 -7.393169,3.443432 -10.567318,12.156125 -7.578151,20.799655 0.531543,1.537025 0.836349,2.261518 2.10811,5.006089 3.051821,6.586085 3.358661,7.523101 2.760328,8.436271 -1.883558,2.874671 -10.00322,-5.731475 -12.473429,-13.220737 -3.672922,-11.135689 0.454099,-21.731072 10.256041,-26.331046 5.356506,-2.513767 10.886473,-3.900391 14.763284,-3.874964 z m 76.918468,6.36804 c 2.06463,0.01453 4.57847,0.476159 6.8573,1.424833 6.56903,2.734695 10.32578,7.603662 10.3726,13.443894 0.0359,4.475793 -2.46702,11.628962 -4.388,12.54053 -2.06147,0.978227 -2.58936,-0.651078 -1.47314,-4.547121 0.55338,-1.931553 0.6013,-5.933299 0.0935,-7.835817 -1.18078,-4.424354 -4.0968,-7.313737 -9.46425,-9.378365 -5.48961,-2.111612 -6.03655,-2.422879 -6.27678,-3.572053 -0.28728,-1.37422 1.62418,-2.094589 4.27872,-2.075901 z m -37.255106,3.052503 c 2.49112,-0.04371 4.720357,1.316835 6.958906,4.165605 0.48589,0.618335 1.31456,1.667542 1.84164,2.33165 3.69138,4.651067 1.00798,6.515411 -3.706653,2.57513 -4.503418,-3.763778 -8.188172,-3.122498 -10.693918,1.86118 -0.425804,0.846881 -1.01081,1.725858 -1.299836,1.953203 -0.289018,0.227343 -0.623839,0.410122 -0.744241,0.40567 -4.047085,-0.142054 -0.776992,-10.107064 4.059395,-12.370285 1.265985,-0.592425 2.452379,-0.902286 3.584707,-0.922153 z m -34.559499,0.410271 c 2.998152,-0.01225 5.392368,0.642364 6.246876,2.089705 0.746995,1.265229 -0.163291,1.862753 -3.893753,2.555575 -1.295694,0.240633 -2.841694,0.593969 -3.435551,0.785268 -0.593864,0.1913 -1.388947,0.409078 -1.766855,0.483891 -7.988515,1.581449 -11.061572,8.278078 -8.058207,17.560038 0.64477,1.992671 0.739725,2.905151 0.352756,3.389156 -2.065606,2.583611 -8.096245,-5.379773 -9.182046,-12.124889 -0.526138,-3.268416 1.242309,-7.509769 4.045208,-9.701596 4.020064,-3.143635 10.694651,-5.016731 15.691572,-5.037148 z m 65.224935,3.538312 c 6.99597,-0.197704 12.47811,2.542545 14.08423,7.385284 1.27391,3.84106 -1.20767,11.50018 -4.23309,13.064681 -1.76339,0.911885 -2.19944,-0.232408 -1.39531,-3.661393 1.78327,-7.604207 -1.57,-11.199076 -11.15634,-11.960013 -4.30911,-0.34204 -4.61074,-0.3869 -5.26452,-0.784501 -1.77037,-1.076616 -0.36123,-2.737045 2.90871,-3.427501 1.74664,-0.368809 3.44187,-0.570933 5.05632,-0.616557 z m -59.495309,4.671352 c 6.217919,0.09317 9.681663,3.169897 3.183252,4.277185 -9.132797,1.556157 -11.694681,4.945383 -8.512191,11.262166 0.918276,1.822631 1.119203,2.120393 3.335092,4.944357 1.915624,2.441297 2.26565,3.396989 1.497686,4.091985 -2.827392,2.558747 -12.958859,-8.623332 -13.757158,-15.183907 -0.56336,-4.629792 3.982354,-8.299228 11.440845,-9.234962 0.979678,-0.122908 1.924199,-0.170134 2.812474,-0.156824 z m 53.962769,2.742306 c 6.64181,0.03769 10.5174,2.952414 10.02445,7.668641 -0.39097,3.740599 -2.1655,7.098214 -4.0245,7.614577 -0.92649,0.257342 -0.87444,0.264129 -1.46126,-0.197468 -0.75132,-0.590977 -0.7966,-1.000573 -0.33474,-3.027963 1.1166,-4.901501 -1.29025,-7.37637 -7.52447,-7.736508 -6.74503,-0.389654 -5.12885,-3.935145 1.9555,-4.289837 0.4669,-0.02338 0.92223,-0.03395 1.36502,-0.03144 z m -45.180258,4.327414 c 5.927431,0.197332 7.379852,4.047926 1.730428,4.587765 -0.782809,0.0748 -1.4233,0.196727 -1.4233,0.270703 0,0.07396 -0.439933,0.29255 -0.977367,0.485809 -3.732563,1.342244 -3.732832,4.041712 -7.67e-4,9.172845 1.168234,1.606169 1.478488,2.785651 0.887644,3.376501 h -3.83e-4 c -1.26024,1.260242 -4.300377,-0.917027 -8.446241,-6.048257 -5.230922,-6.474164 -1.279192,-12.161941 8.229986,-11.845366 z m 23.473327,6.068579 c 1.014496,0.04175 2.403851,0.953872 4.217371,2.738472 2.32084,2.283804 2.72232,2.467252 4.49078,2.050212 4.26778,-1.006438 5.3903,0.35937 3.74232,4.553255 -0.88264,2.246193 -0.64063,3.103879 1.32362,4.690908 2.02176,1.633504 2.33957,2.567601 1.24577,3.661387 -0.51208,0.512077 -1.19383,0.692714 -4.31976,1.145694 -2.69203,0.390097 -3.63343,1.022574 -3.63343,2.440531 0,0.76838 -0.47828,1.75291 -1.08243,2.22813 -1.17132,0.92135 -2.39186,0.4485 -4.687091,-1.81594 -2.125079,-2.096557 -2.620126,-2.273287 -4.980399,-1.777967 -4.041243,0.848077 -5.310636,-0.762937 -3.688616,-4.68131 1.100001,-2.657321 0.970404,-3.116136 -1.383806,-4.897577 -3.27602,-2.478991 -2.390408,-4.088241 2.567845,-4.666752 3.347701,-0.390603 3.761052,-0.702869 4.220052,-3.185171 0.313797,-1.697044 0.953277,-2.525624 1.967774,-2.483872 z m 65.808521,11.11608 c 2.73819,-0.242574 9.36243,6.851061 11.82389,13.086519 2.75325,6.97465 1.81991,16.34492 -2.2611,22.70071 -0.31198,0.48589 -0.65675,1.08605 -0.76609,1.33396 -1.93265,4.38118 -11.57617,9.82888 -19.03779,10.7545 -6.4522,0.8004 -10.81152,-0.44856 -10.33081,-2.95971 0.24958,-1.30373 1.38345,-1.74455 5.31437,-2.06517 5.47118,-0.44623 10.64545,-1.94042 13.81199,-3.98884 6.72265,-4.34886 10.43287,-15.84628 7.48114,-23.18307 -0.0901,-0.22388 -0.44218,-1.15773 -0.7822,-2.07551 -0.34004,-0.91778 -1.06293,-2.50796 -1.60658,-3.53371 -0.54364,-1.02576 -1.3278,-2.510231 -1.74231,-3.298658 -0.41451,-0.788434 -1.15423,-2.006943 -1.64416,-2.707793 -1.65456,-2.366861 -1.79921,-2.920452 -0.9766,-3.743063 0.19118,-0.191181 0.43299,-0.295072 0.71625,-0.320165 z m -8.18513,0.842783 c 3.27571,0 8.1091,7.624719 9.33351,14.723776 2.04871,11.87846 -6.51804,22.6274 -20.10564,25.22714 -3.80165,0.72737 -6.09837,0.11734 -6.91712,-1.83702 -0.75626,-1.80521 0.2349,-2.46417 5.80708,-3.86001 6.83167,-1.71136 12.16409,-5.35551 13.82771,-9.44969 2.0785,-5.11521 1.52081,-11.93468 -1.4697,-17.971831 -2.33254,-4.708939 -2.48027,-6.832365 -0.47584,-6.832365 z m -29.41997,0.289107 c 0.95388,-0.156143 2.91595,1.000562 5.13914,3.592375 5.74133,6.693294 5.1154,11.433654 -1.76992,13.403234 -4.18656,1.19759 -8.80053,0.25632 -8.80053,-1.79523 0,-0.47782 0.9052,-1.53146 1.34009,-1.5598 6.87984,-0.44872 8.71962,-3.89075 5.0011,-9.356109 -1.80948,-2.659535 -1.86376,-4.128325 -0.90988,-4.28447 z m 10.00604,1.141861 c 2.33056,0.217184 7.35033,5.501984 8.61495,9.268298 2.56582,7.64155 -0.86648,12.4852 -9.3914,13.2541 -4.25944,0.38418 -6.91176,-0.0521 -7.52485,-1.23772 -0.63794,-1.23362 0.17406,-1.77263 3.88915,-2.58126 8.76729,-1.90832 10.29909,-5.44475 5.72272,-13.212304 -2.40969,-4.089998 -2.76505,-5.20749 -1.73886,-5.465041 0.12956,-0.03252 0.27292,-0.04055 0.42829,-0.02607 z m 13.01484,5.176327 c 0.23856,-0.009 0.53027,0.0513 0.87729,0.17062 3.44618,1.184731 5.73557,8.442001 4.46775,14.162441 -0.5084,2.29393 -1.07589,3.42343 -2.68096,5.33507 -1.5805,1.88239 -6.20922,3.88927 -10.66133,4.62266 -7.10999,1.17123 -11.36796,-1.56613 -4.99688,-3.21239 11.37262,-2.93863 14.57373,-7.03751 12.65249,-16.20116 -0.73264,-3.4944 -0.69212,-4.837731 0.34164,-4.877241 z m -73.312671,1.160254 c 1.228702,-0.0125 1.954758,1.136877 1.177519,3.698967 -0.913688,3.01189 0.14059,5.39714 3.018377,6.82892 0.853477,0.42461 1.142521,0.45294 4.640295,0.45591 4.581582,0.004 5.202406,0.21881 5.202406,1.79906 0,1.1155 -2.100006,2.20644 -4.809772,2.49883 -10.891698,1.17524 -16.719934,-2.89296 -14.33384,-10.00566 1.114801,-3.32311 3.525252,-5.259937 5.105015,-5.276027 z m -31.679924,0.680207 c 1.51092,0.13228 2.526442,1.5527 1.847376,4.43209 -0.155544,0.65955 -0.370501,1.71967 -0.477755,2.35581 -0.107258,0.63615 -0.385642,2.17276 -0.618476,3.41446 -1.432613,7.64012 3.535594,15.7474 12.182402,19.88019 3.883164,1.85598 6.115027,2.48879 12.956935,3.67366 2.882277,0.49914 4.732341,1.04014 5.502634,1.60965 2.059768,1.52285 -0.420427,3.34117 -4.913682,3.60234 -1.025759,0.0596 -2.174207,0.13507 -2.552124,0.16794 -0.377908,0.0329 -1.547007,-0.01 -2.598134,-0.0951 -19.127357,-1.54934 -31.633717,-17.04131 -27.065319,-33.52691 1.032188,-3.72478 3.793531,-5.68421 5.736143,-5.51414 z m -11.231875,0.6342 c 1.931228,-0.11493 3.084049,1.46638 1.809034,4.16944 -0.254655,0.53987 -0.846508,1.77667 -1.315557,2.74844 -3.178216,6.58458 -2.509468,15.92498 1.518009,21.20226 4.277137,5.60441 8.322707,8.75371 14.123335,10.99453 2.715059,1.04885 2.688226,1.04024 4.496891,1.45014 3.984707,0.90304 5.391143,1.03439 11.576965,1.08166 6.397591,0.0489 7.075239,0.14739 8.108054,1.1802 1.6523,1.6523 -2.904209,4.13432 -8.298621,4.52028 -6.940465,0.49657 -10.969108,0.0838 -16.914337,-1.73349 -6.545862,-2.00085 -9.496612,-3.89658 -14.594575,-9.3753 -6.710541,-7.21175 -7.130402,-7.94757 -8.943936,-15.67624 -1.218277,-5.19187 1.155905,-14.95584 4.474269,-18.39937 1.362593,-1.41398 2.801733,-2.0936 3.960469,-2.16255 z m 22.564977,0.86924 c 0.995633,0.0474 1.554966,1.06542 1.101601,3.17175 -1.608374,7.47253 -1.301379,9.96233 1.756501,14.24757 1.969216,2.7596 4.318205,4.20706 9.728821,5.99534 4.662302,1.54094 5.520817,2.07722 5.223496,3.26185 -0.147381,0.58721 -0.869165,0.96742 -2.360408,1.24309 -7.26378,1.34278 -17.734484,-3.70233 -20.537004,-9.89561 -1.693303,-3.74202 -1.550639,-10.0516 0.308279,-13.64635 1.497437,-2.89572 3.498614,-4.43865 4.778714,-4.37764 z m 9.820077,0.7082 c 1.157483,-0.0374 1.780142,1.21877 0.914102,4.06438 -0.661732,2.1743 -0.51589,4.72279 0.34279,5.98767 2.602361,3.83343 6.815325,5.59678 13.335765,5.58239 3.683266,-0.008 4.410965,0.13907 4.862687,0.98312 0.749539,1.40053 -1.288102,2.45669 -6.06513,3.14376 -13.779976,1.98195 -21.759401,-3.99005 -18.481424,-13.83193 1.230683,-3.69504 3.603022,-5.88133 5.09121,-5.92939 z m 49.167956,10.44737 c 1.30336,0.16567 1.57861,2.69044 -0.21549,6.27947 -1.23266,2.46585 -3.5283,4.73375 -5.49845,5.43246 -3.55365,1.2603 -7.873673,-0.62148 -10.632615,-4.63147 -3.093504,-4.49625 -0.250477,-7.18914 3.688615,-3.49384 3.60862,3.38526 6.58923,3.05102 9.42635,-1.0575 1.29737,-1.87875 2.44956,-2.62853 3.23159,-2.52912 z m 4.51989,7.28214 c 0.41721,-0.0494 0.7529,0.16453 1.00153,0.64532 1.79207,3.46548 -3.98113,12.47592 -9.31436,14.53706 -3.93949,1.52248 -8.16784,-0.0357 -12.557066,-4.62688 -6.433563,-6.72962 -5.317197,-11.53485 1.268776,-5.46122 6.3344,5.8416 11.62314,5.50894 15.72156,-0.98887 1.64908,-2.61452 2.9617,-3.99679 3.87956,-4.10541 z m -27.880568,10.56125 c 0.78017,-0.10554 1.785302,0.47662 3.542145,1.9463 2.375523,1.98724 7.426953,4.9242 9.892563,5.75187 3.06652,1.02939 7.16157,0.49723 10.11155,-1.31402 0.5145,-0.3159 0.98412,-0.574 1.0437,-0.574 0.0596,0 0.39762,-0.22086 0.75153,-0.49079 0.3539,-0.26994 0.69728,-0.4908 0.76264,-0.4908 0.0654,0 0.63102,-0.30933 1.25728,-0.68711 6.2985,-3.79941 4.2818,3.66664 -2.10044,7.776 -2.00628,1.2918 -2.23377,1.41084 -3.42483,1.79485 -6.12927,1.9761 -14.227435,-0.72209 -19.002192,-6.33161 -4.325431,-5.08165 -4.819697,-6.06128 -3.558632,-7.05324 0.229587,-0.18059 0.46463,-0.29227 0.724686,-0.32745 z m 40.137748,4.52488 c 1.59919,0.14994 1.84099,2.7437 0.30291,5.60425 -3.84359,7.14838 -11.40713,12.37355 -19.59685,13.5386 -5.24235,0.74575 -10.2418,-0.21896 -16.317391,-3.14874 -7.491777,-3.61271 -12.876691,-9.75807 -10.692388,-12.20273 1.272307,-1.42396 3.160103,-0.76291 7.280991,2.55021 5.117221,4.11415 8.105276,5.59564 13.011028,6.45124 6.66118,1.16174 14.02733,-1.73202 19.87103,-7.80629 4.02163,-4.18031 4.52828,-4.64168 5.37342,-4.89489 0.28262,-0.0847 0.53879,-0.11306 0.76725,-0.0916 z m 5.88683,5.47886 c 1.12627,0.004 1.76645,1.63493 1.04332,4.57895 -2.78724,11.34746 -9.73217,17.62327 -22.5922,20.41507 -10.86413,2.3585 -22.805746,-1.44563 -30.204939,-9.62222 -4.57062,-5.05083 -5.728244,-7.40402 -4.412153,-8.9681 1.509393,-1.79381 2.662358,-1.25191 7.463122,3.50802 3.197611,3.17041 4.275181,4.02873 7.718486,6.14565 5.580544,3.43092 13.484144,4.16247 21.594974,1.99883 6.31922,-1.68571 12.52561,-7.38568 16.29241,-14.96305 1.0511,-2.11442 2.22099,-3.09607 3.09698,-3.09315 z" />
  </g>
</svg>
