<svg version="1.1" viewBox="0 0 80 80" xmlns="http://www.w3.org/2000/svg"><path d="m40 0a40 40 0 0 0-40 40 40 40 0 0 0 40 40 40 40 0 0 0 40-40 40 40 0 0 0-40-40zm0.0038 1.8519c0.76927 3.5044 0.91505 7.1428 0.83912 10.712-0.0079 3.5962-0.3512 7.1503-0.5903 10.683-0.28321 3.555-0.50878 7.0513-0.49767 10.591 0.0016 3.5359 0.19677 7.0853 0.3184 10.666-0.84048-3.4806-1.4165-7.0214-1.7015-10.608-0.31008-3.585-0.19318-7.2214 0.05265-10.77 0.09294-1.7823 0.28725-3.5689 0.44562-5.3418 0.20584-1.7727 0.37135-3.521 0.54404-5.2953 0.34648-3.5408 0.59983-7.0502 0.5903-10.637zm-13.449 1.1806-0.27773 18.311c-0.05711 6.0939-0.08958 12.185-0.02797 18.276-0.0032 3.0422 0.06493 6.089 0.09853 9.1437 0.0155 3.0549 0.05598 6.1121 0.03591 9.1668 0.0032 6.1019-0.2868 12.25-1.1921 18.299 0.06943-3.058 0.11502-6.1026 0.02343-9.1494-0.05376-3.0469-0.14065-6.0864-0.28916-9.1381-0.26117-6.1049-0.48591-12.188-0.55557-18.311-0.02797-6.1162 0.08958-12.235 0.44562-18.34 0.32758-6.1064 0.89827-12.201 1.7419-18.259zm6.7595 0.5846c-1.0131 2.7874-2.0997 5.5652-2.6506 8.4203-0.28007 1.4262-0.41414 2.8717-0.54393 4.3405l-0.35276 4.404c-0.34648 5.8675-0.39724 11.799-0.42253 17.703-0.03137 2.9552 0.05711 5.9004 0.05265 8.8776-0.0016 2.9694-0.02797 5.9386-0.13316 8.9064-0.17269 5.934-0.57965 11.86-1.227 17.761l-0.1561-17.773-0.16789-8.872c-0.08512-2.9488-0.16551-5.928-0.17349-8.9007 0.01247-5.945 0.14502-11.876 0.68291-17.83 0.14582-1.5051 0.37774-2.9504 0.57878-4.4271 0.20112-1.4736 0.48346-2.9679 0.88538-4.4271 0.40518-1.461 0.99155-2.8509 1.6088-4.2075 0.62043-1.355 1.298-2.6779 2.0197-3.9758zm15.521 0.44573c1.135 3.5076 1.8014 7.1583 2.1702 10.834 0.32274 3.6786 0.39029 7.3703 0.27773 11.036-0.08175 3.6659-0.31602 7.3333-0.52669 10.978-0.21053 3.65-0.50575 7.2894-0.46297 10.955-0.6679-3.6246-0.7184-7.3216-0.81024-10.984l-0.0038-10.972c-0.0033-3.6516 0.07393-7.2928-0.02797-10.921-0.06384-3.6326-0.34111-7.2494-0.6137-10.926zm8.0847 0.41659c0.38122 5.8373 0.52167 11.691 0.42823 17.541-0.02797 2.9267-0.13081 5.8501-0.26038 8.7733-0.12802 2.933-0.35714 5.8293-0.45715 8.7385-0.24212 5.8139-0.4604 11.654-0.38794 17.443l0.14457 4.3519c0.06161 1.4531 0.12284 2.8849 0.32992 4.2997 0.40677 2.8349 1.337 5.6196 2.1933 8.4146-0.65212-1.3106-1.2579-2.6462-1.8056-4.0106-0.54616-1.3628-1.0623-2.757-1.3947-4.2132-0.33227-1.4546-0.53988-2.9389-0.67138-4.3984-0.13161-1.4642-0.29398-2.8973-0.37025-4.3867-0.26272-5.8864-0.12923-11.732 0.12722-17.587 0.14257-2.9251 0.34682-5.852 0.56721-8.7503l0.57866-8.7272zm-22.258 0.01134c-0.64896 3.3841-1.3784 6.6699-1.551 10-0.10303 1.6652-0.14064 3.3555-0.18524 5.0523-0.05488 1.7063-0.15769 3.4112-0.24303 5.1158-0.23585 3.3999-0.45881 6.8264-1.0127 10.22-0.53981 3.3968-1.35 6.6941-1.9214 10.064 0.06161-3.419 0.54261-6.8306 0.82759-10.197 0.12957-1.6873 0.22519-3.3759 0.28366-5.0696 0.05265-1.6905 0.03591-3.4017 0.06943-5.0987 0.05038-1.6999 0.08062-3.3944 0.16203-5.0927 0.0728-1.7078 0.15255-3.4311 0.39936-5.1566 0.45738-3.4696 1.6123-6.7852 3.1714-9.8384zm19.7 0.19049c0.6157 5.9038 0.62436 11.883 0.34727 17.801-0.11535 2.9599-0.29666 5.9178-0.44562 8.8776-0.17103 2.96-0.37494 5.9114-0.50934 8.8602-0.66008 11.808-1.0012 23.62-1.3542 35.481-0.55402-5.9102-0.83957-11.844-0.88538-17.778-0.0728-5.9356 0.09071-11.872 0.39354-17.801 0.34179-5.9325 0.83712-11.821 1.3658-17.726 0.2848-2.9521 0.50137-5.891 0.69443-8.8429 0.22633-2.9504 0.32354-5.9057 0.39354-8.872zm-30.643 0.16252c-0.34807 5.722-0.25524 11.431-0.19677 17.141 0.1064 5.7107 0.17817 11.433 0.19084 17.154-0.02003 11.446-0.17424 22.892-0.8912 34.335-0.73756-11.444-0.91373-22.886-0.95493-34.33 0.02003-5.722 0.02343-11.444 0.21412-17.177 0.1821-5.7265 0.57417-11.483 1.6378-17.124zm37.767 2.4132c-0.11717 2.9519-0.319 5.8668-0.49767 8.7794-0.1663 2.914-0.35415 5.8161-0.47461 8.7272-0.15686 2.906-0.24454 5.8173-0.35869 8.7329-0.10092 2.9155-0.18411 5.8362-0.35321 8.785-0.59836-2.8935-0.92446-5.8267-1.0938-8.7676-0.18052-2.9424-0.16551-5.8913-0.04033-8.8368 0.16003-2.9425 0.42748-5.8842 0.8912-8.7964 0.4511-2.9109 1.055-5.801 1.9272-8.6229zm-16.91 0.43341c0.97027 4.1928 1.523 8.4898 1.713 12.801 0.16317 4.3118 0.07057 8.6221-0.19677 12.906-0.24379 4.2831-0.63396 8.562-1.0012 12.824-0.36262 4.2657-0.83409 8.5235-0.92594 12.813-0.2848-2.1336-0.32868-4.2933-0.37608-6.4413-0.05488-2.1511 0.0038-4.299 0.04033-6.4469l0.46297-12.842c0.15051-4.2752 0.38915-8.5303 0.43991-12.79 0.07616-4.2578 0.0038-8.5223-0.15644-12.824zm-5.1218 0.64844c-1.0463 3.8382-1.8526 7.6999-2.5348 11.574-0.65055 3.8764-1.1582 7.7744-1.4699 11.69-0.34334 3.9127-0.48648 7.839-0.5324 11.777-0.0155 3.9395 0.05375 7.8893 0.24885 11.864-0.90375-3.8764-1.4635-7.8394-1.6898-11.823-0.25006-3.9841-0.18052-7.9883 0.13316-11.974 0.34807-3.9822 0.94688-7.9463 1.8982-11.829 0.93074-3.8859 2.2263-7.6897 3.9467-11.279zm-19.358 0.16782c-0.85314 2.3583-1.4768 4.7601-1.8519 7.2165-0.42736 2.4423-0.67709 4.9135-0.86233 7.3847-0.35589 4.9479-0.35793 9.9121-0.28366 14.896 0.04256 4.9857 0.1699 9.9972-0.04033 15.018-0.1019 2.5071-0.24885 5.0235-0.61918 7.5291-0.19945 1.2505-0.46509 2.4883-0.82759 3.7038-0.36273 1.2061-0.85428 2.4164-1.6551 3.3914 1.2029-2.208 1.4354-4.737 1.5857-7.1934 0.15209-2.4677 0.10303-4.9585 0.08062-7.4482l-0.37027-14.977c-0.04256-5.008 0.03591-10.058 0.69443-15.064 0.64114-4.9763 1.7372-10.029 4.1493-14.456zm-7.263 2.5927c-0.84842 4.291-1.4356 8.5926-1.8519 12.9-0.39119 4.3099-0.57787 8.6233-0.52087 12.946 0.0155 4.3277 0.22958 8.6924 0.06943 13.085-0.15052 4.3749-0.63991 8.8236-2.0834 12.969 0.7455-4.3133 0.73265-8.6493 0.64239-12.975-0.13471-4.3277-0.42491-8.6709-0.48043-13.062-0.023434-4.3938 0.2532-8.8028 0.94329-13.143 0.66322-4.3432 1.7397-8.624 3.2814-12.72zm54.053 1.5104c-0.17084 2.5705-0.41561 5.0957-0.63082 7.6217-0.20448 2.5262-0.422 5.0409-0.57878 7.5638-0.19012 2.5199-0.3156 5.0462-0.46297 7.5755-0.13607 2.5326-0.24606 5.0719-0.44562 7.639-0.56978-2.5135-0.86085-5.0749-0.99533-7.639-0.14741-2.5657-0.10205-5.1343 0.05821-7.6969 0.19465-2.5626 0.50107-5.1176 1.0012-7.639 0.49064-2.5215 1.1349-5.0175 2.0545-7.4251zm1.632 1.0874c0.10092 4.2801 0.08618 8.5545-0.04611 12.819-0.10092 4.2687-0.35075 8.5288-0.50934 12.772-0.19012 4.2453-0.28876 8.4796-0.17349 12.709 0.07181 2.1131 0.18445 4.2302 0.41089 6.337 0.18369 2.1146 0.54896 4.203 1.0302 6.2908-1.6921-3.9509-2.48-8.2616-2.882-12.535-0.4147-4.2895-0.38995-8.5968-0.23131-12.876 0.19805-4.2801 0.52031-8.5341 0.91441-12.784 0.37645-4.2513 0.87476-8.4948 1.4873-12.732zm-26.783 4.4502c1.2187 4.5 1.4885 9.2333 1.4236 13.883-0.05375 4.6664-0.47809 9.2911-0.70596 13.889-0.26741 4.5919-0.29073 9.1955-0.12174 13.796 0.19316 4.5998 0.54905 9.2023 1.1632 13.808-1.3185-4.4573-2.17-9.0659-2.61-13.71-0.46531-4.6441-0.51842-9.3335-0.27773-13.993 0.269-4.655 0.76613-9.2537 1.1111-13.849 0.30226-4.5934 0.53028-9.2053 0.0155-13.826zm-33.844 0.78726c-0.30071 3.2907-0.66242 6.5498-0.83341 9.7976-0.17897 3.2512-0.11615 6.4655 0.00378 9.7515 0.077256 3.2591 0.25959 6.5456 0.10417 9.8615-0.085118 3.2891-0.39822 6.6529-1.3369 9.8267 0.18524-3.305 0.092942-6.5377-0.092942-9.8093-0.089578-1.6399-0.17617-3.2547-0.30101-4.8962-0.079524-1.6383-0.19163-3.2904-0.2027-4.9366-0.085118-3.2749-0.042559-6.645 0.43991-9.931 0.45579-3.2923 1.2066-6.5195 2.2165-9.6646zm63.804 0-0.35869 10.88c-0.10092 3.6136-0.20259 7.2233-0.21998 10.834-0.05254 3.6089-0.02646 7.2127 0.01134 10.828l0.19087 10.88c-0.83579-3.5535-1.3491-7.1681-1.6783-10.799-0.34017-3.6326-0.4531-7.2853-0.43406-10.932 0.05481-3.6453 0.24152-7.2917 0.64817-10.915 0.3958-3.6231 0.96672-7.232 1.8404-10.776zm-24.573 0.02268c0.69334 2.3916 1.0643 4.8878 1.2385 7.3903 0.12957 2.5024 0.17269 4.9804 0.15051 7.4829-0.04256 4.9937-0.43519 9.959-0.75816 14.902-0.34648 4.943-0.63676 9.8721-0.5671 14.798 0.04256 2.4613 0.14144 4.9219 0.42823 7.3673 0.22633 2.4582 0.70294 4.8803 1.4121 7.2686-2.1495-4.5254-2.9474-9.6033-3.2987-14.578-0.36228-5.0035-0.15051-10.019 0.18524-14.983l1.198-14.833c0.27694-4.9449 0.75548-9.8785 0.01247-14.815zm-33.248 0.50953c-0.13316 3.7118 0.0683 7.4036 0.19084 11.106l0.19677 5.5557c0.03137 1.8583 0.10417 3.7155 0.12174 5.5674 0.05711 3.7054 0.05488 7.4353-0.28366 11.169-0.35948 3.7324-1.095 7.4255-2.3091 10.955 0.34009-3.7196 0.69066-7.3782 0.75234-11.054 0.10303-3.669 0.02003-7.3624 0.06943-11.071 0.0683-3.7132 0.11086-7.4036 0.23147-11.123 0.1663-3.7086 0.30819-7.4463 1.0302-11.106zm59.817 0.9609h0.0038c-0.0012 0.01134 0.0012 0.02268 0 0.0446 0.24341 3.1705 0.71998 6.289 0.92019 9.4854 0.21695 3.2099 0.10092 6.4197 0.0038 9.6011-0.08164 1.5908-0.14514 3.1837-0.26042 4.7744-0.12322 1.5782-0.24794 3.1497-0.31258 4.6992-0.15988 3.0977 0.21695 6.2126 0.48614 9.4272-1.2393-2.9583-2.0573-6.1476-2.1759-9.4272-0.07937-1.6318 0.0076-3.2384 0.10432-4.8323 0.08391-1.5861 0.21884-3.1685 0.33601-4.7514 0.13607-1.5782 0.3311-3.1665 0.4514-4.7397 0.10848-1.5766 0.17916-3.1486 0.21998-4.7283 0.05934-3.1366-0.05934-6.34 0.22564-9.5085-1e-3 -0.01134-0.0038-0.02268-0.0038-0.0446zm-10.353 0.52635c-0.36852 3.9618-0.61245 7.904-0.77551 11.84-0.13418 3.9365-0.17424 7.8673-0.01512 11.794 0.12322 3.9271 0.44279 7.8458 0.89702 11.754 0.48595 3.9032 1.0882 7.7997 1.9271 11.69-1.5258-3.6768-2.6253-7.5449-3.3566-11.47-0.75506-3.9271-1.1554-7.9168-1.3137-11.91-0.12019-3.9951-0.0038-7.994 0.42827-11.962 0.40843-3.9698 1.1391-7.9029 2.2108-11.737zm12.934 6.2735c0.70755 1.9769 1.1822 4.0147 1.5336 6.0709 0.36058 2.056 0.56166 4.1368 0.67712 6.2213 0.08391 2.0829 0.08731 4.1705-0.07522 6.25-0.15194 2.0814-0.43303 4.1584-0.94911 6.1922-0.18522-2.0894-0.27328-4.1519-0.37004-6.2096l-0.30124-6.1518-0.30086-6.1578c-0.09978-2.0576-0.20297-4.1168-0.21431-6.2153zm-73.106 0.57337c-0.24224 2.3315-0.35914 4.6168-0.2371 6.8869 0.1008 2.2713 0.38794 4.5511 0.57292 6.8635 0.1663 2.3204 0.36183 4.6115 0.49185 6.9447 0.049287 1.1633 0.10417 2.3315 0.075026 3.5012-0.023434 1.165-0.05488 2.3396-0.29508 3.484-0.015517-2.3237-0.42054-4.6006-0.72919-6.8926-0.33072-2.2825-0.65838-4.6002-0.92594-6.8986-0.26745-2.2998-0.49748-4.6316-0.41671-7.0026 0.077256-2.371 0.58883-4.72 1.4642-6.8869zm16.326 0c0.10753 3.5408 0.36432 7.0626 0.5671 10.591 0.19004 3.525 0.3884 7.0645 0.46879 10.602 0.1064 3.5376 0.05375 7.0883-0.16785 10.637-0.26588 3.5471-0.72469 7.0861-1.5683 10.544l0.03591-10.597-0.06943-10.561c-0.0079-3.5314 0.0079-7.0581 0.05261-10.602 0.09521-3.5361 0.17504-7.0952 0.68291-10.614zm17.969 8.3742c0.57303 3.4838 0.56128 7.0237 0.59613 10.533l-0.17349 10.51c-0.05375 3.4965-0.21302 6.9757-0.19083 10.452-0.03137 3.4775 0.13709 6.9527 0.31246 10.481-1.0478-3.3746-1.6012-6.8979-1.8751-10.423-0.23585-3.5329-0.22198-7.06-0.04592-10.568 0.15364-3.5076 0.43696-7.0184 0.70596-10.504 0.27055-3.4918 0.62391-6.97 0.67126-10.481zm20.545 0h0.0038c0.44951 2.9393 1.1305 5.7984 1.5452 8.7676 0.42891 2.9646 0.53104 5.9597 0.64817 8.9181 0.02268 1.4846 0.07181 2.9672 0.06388 4.4502-0.01512 1.472-0.03931 2.9305 0.0038 4.3693 0.06047 2.876 0.65467 5.7352 1.1516 8.6981-1.4055-2.6338-2.4328-5.524-2.7778-8.5707-0.18849-1.5116-0.20898-3.0162-0.22005-4.5027-0.02343-1.4767 0.0035-2.9546 0.01247-4.4331 0.02797-1.472 0.11086-2.9558 0.12174-4.4214 0.0016-1.469-0.03591-2.9368-0.10417-4.404-0.16003-2.9219-0.51312-5.8993-0.45144-8.872zm-25.319 5.3183c0.02797 3.0581-0.03137 6.0845-0.06943 9.1089-0.02343 3.0233-0.0683 6.0387-0.04592 9.0572-0.01247 3.0169 0.04592 6.0278 0.08062 9.0511 0.04702 3.0232 0.11536 6.0508 0.10417 9.1089-0.74855-2.9662-1.2196-5.9881-1.5394-9.022-0.33227-3.0344-0.46811-6.0864-0.49185-9.1381 0.01247-3.0533 0.13191-6.1079 0.45144-9.1437 0.30694-3.0358 0.77128-6.0546 1.5105-9.0224z"/></svg>
