<svg xmlns="http://www.w3.org/2000/svg" width="64" height="64"><path d="M31.923 56.138l-.821-.006-.82-.21-.82-.007-.82-.211-.923-.11-1.639-.421-.921-.314-1.74-.525-1.433-.625-1.637-.627-1.43-.83-1.228-.622-1.123-.725-.92-.519-.714-.517-.51-.515-.1-.308-.101-.103.001-.205.104-.101 1.026.007.514-.098.72-.097 1.234-.4.72-.096.515-.303.72-.301.618-.2 1.857-1.214.722-.506.517-.507.619-.405 1.138-1.117.518-.712.517-.507.416-.61.518-.713.416-.61.416-.816.627-1.428.417-.815.108-.715.315-.919.108-.715.212-.817.006-.818.11-.92-.095-.922.006-.818-.199-.82-.095-.922-.303-.718-.199-.82-.3-.923-.605-1.437-.404-.822-.508-.72-.507-.72-.406-.617-.508-.72-.507-.72-2.343-2.372-.612-.413-.613-.414-.61-.619-.613-.414-.716-.312-.511-.311-.716-.313-1.843-.628-.717-.108-.513-.106-.82-.006v-.205l.932-.913.722-.506 2.062-1.212 1.135-.708 1.441-.602 1.34-.706 1.543-.5 1.647-.601 1.645-.397.72-.097 1.645-.396.924-.095 2.463.019.923.109.821.006.923.11 2.458.633.922.314 1.638.421 1.534.728 1.432.625 1.329.727 1.227.623 1.021.622.816.62.715.517.815.825-.104.101.102.103-.205-.001-.104.101-.615-.004-.514.098-.72.097-1.852.6-.72.3-.516.304-1.857 1.213-.722.506-2.792 2.741-.52.712-.414.61-1.038 1.425-.313.714-.417.815-.313.714-.417.815-.314.714-.211.817-.11.92-.212.817-.11.92-.108.715-.11.92.096.922-.006.818.596 2.46.303.719.199.82.404.821.302.719.406.617.404.821.508.72.509.516.508.72 2.75 2.783.612.414.612.414.613.414.716.313.612.414.615.21.716.312 1.842.628.616.004.614.21.821.006.102.103-.002.205-.827.812-.722.506-.826.607-1.031.606-1.236.605-1.34.705-1.545.705-1.543.5-1.647.6-.823.199-.926.3-.924.095-.823.198-.924.095-.821-.006-1.85.19m-.804-55.05l-1.54.091-3.288.384-3.29.793-1.544.5-1.441.603-3.09 1.408-1.341.91-1.444.808-2.479 2.027-1.342 1.116-1.138 1.116-1.036 1.22-1.037 1.424-1.868 2.646-.73 1.529-.833 1.426-.525 1.53-.73 1.53-.32 1.532-.846 3.267-.115 1.534-.116 1.738L1 33.494l.385 3.277.296 1.537.796 3.28.603 1.642.605 1.437.706 1.54.81 1.439 1.827 2.674 1.118 1.338 1.017 1.236 2.342 2.371 1.224 1.033 1.327.93 1.327.932 1.532.932 1.534.728 2.864 1.25 1.74.525 1.435.42 1.638.422 3.281.435 1.744.115 1.642.013 1.54-.09 1.746-.09 1.645-.396 1.542-.295 1.645-.397 3.087-.999 1.443-.807 1.545-.705 1.443-.807 2.683-1.82 1.343-1.116 2.275-2.233 1.14-1.322 1.035-1.22.934-1.322 1.664-2.852.73-1.53.627-1.427.525-1.53.527-1.736.32-1.532.423-1.633.218-1.636.114-1.534.013-1.636-.09-1.74.014-1.637-.296-1.537-.295-1.742-.398-1.64-1.002-3.077-1.413-3.08-.81-1.439-1.827-2.674-.913-1.337-3.463-3.505-1.325-1.136-2.654-1.862-1.43-.83-3.068-1.455-1.432-.625-1.536-.524-3.278-.843L32.864 1l-1.746.089" fill-rule="evenodd"/></svg>