<svg id="SVGRoot" width="80px" height="80px" version="1.1" viewBox="0 0 80 80" xmlns="http://www.w3.org/2000/svg"><path d="m38.598 79.975c-6.1557-0.21703-12.127-1.8266-17.508-4.7192-6.2354-3.352-11.501-8.3248-15.205-14.361-3.3854-5.5158-5.3624-11.726-5.7947-18.201-0.46101-6.9054 0.8499-13.761 3.8142-19.948 2.3964-5.0016 5.8143-9.4587 10.04-13.092 7.9596-6.8451 18.25-10.268 28.75-9.5619 7.5345 0.50649 14.7 3.1013 20.801 7.5327 4.115 2.989 7.6918 6.8159 10.394 11.121 1.8065 2.8779 3.2689 6.0361 4.2605 9.2007 1.5063 4.8076 2.0938 9.7288 1.7605 14.748-0.54302 8.177-3.5653 15.925-8.7176 22.348-2.2666 2.8259-5.0039 5.4127-7.963 7.5252-7.176 5.1231-15.807 7.7188-24.631 7.4077zm3.802-2.5719c4.8911-0.3321 9.4162-1.5148 13.801-3.6074 0.54666-0.26084 0.74264-0.35982 1.4001-0.70712 3.2904-1.738 6.4943-4.1306 9.1228-6.8124 1.4044-1.4329 2.8292-3.1353 3.8592-4.6111l0.05808-0.08333-0.87228-0.61011c-0.47976-0.33555-0.88613-0.61009-0.90305-0.61009-0.01689 0-0.18785 0.21601-0.37984 0.48004-1.0607 1.4586-2.1253 2.697-3.5095 4.0824-1.8256 1.8272-3.3843 3.1052-5.4952 4.5058-4.8466 3.2156-10.45 5.1881-16.242 5.7177-0.84004 0.07686-1.353 0.10732-2.0669 0.12326-0.3447 0.0079-0.72574 0.02052-0.84674 0.02872l-0.22003 0.0142v2.1638l0.84676-0.01705c0.46572-0.0095 1.1168-0.03551 1.4468-0.05792zm-23.351-7.6631c0.33089-0.47435 0.60154-0.87038 0.60144-0.88007-1.11e-4 -0.0095-0.04466-0.04766-0.09911-0.08428-0.21454-0.14472-1.2972-0.96441-1.673-1.2668-1.6854-1.356-3.4152-3.042-4.8036-4.682-4.6602-5.5046-7.5138-12.26-8.2115-19.44-0.068021-0.70012-0.11963-1.5317-0.13478-2.1735-0.00789-0.33736-0.021148-0.72439-0.029355-0.86007l-0.014204-0.24669h-2.1637l0.017202 0.84674c0.12136 5.999 1.7893 12.065 4.7869 17.408 2.5417 4.5307 6.0998 8.5832 10.233 11.654 0.71735 0.53306 0.85096 0.62578 0.87185 0.60503 0.0095-0.0095 0.28916-0.40641 0.62006-0.88077zm22.244 0.55517c5.6081-0.25732 10.906-1.988 15.534-5.0746 1.7168-1.1451 3.0524-2.2429 4.5639-3.7516 0.87-0.86835 1.2603-1.2905 1.8887-2.0429 0.64704-0.77468 1.5136-1.9255 1.4762-1.9605-0.04924-0.04608-1.7454-1.2242-1.7619-1.2238-0.0095 2.66e-4 -0.09643 0.11126-0.19183 0.24669-1.2198 1.7328-3.0857 3.725-4.8538 5.1826-3.8301 3.1574-8.3053 5.2164-13.175 6.0616-1.3757 0.23881-3.122 0.4018-4.3138 0.40267l-0.35338 2.69e-4v2.1868l0.30003-2.68e-4c0.16502 0 0.56405-0.01263 0.88675-0.02714zm-18.126-6.4328c0.32489-0.46545 0.59071-0.8572 0.59071-0.87056 0-0.01263-0.01578-0.03014-0.03393-0.03724-0.06108-0.02351-1.0904-0.80336-1.4862-1.1261-3.1158-2.5409-5.6115-5.656-7.4033-9.2407-1.8487-3.6986-2.8556-7.7122-2.9621-11.808l-0.01752-0.67339h-2.1867l0.018465 0.66005c0.20234 7.2485 2.8888 14.023 7.7141 19.453 0.42514 0.47841 1.8776 1.9325 2.3569 2.3596 0.72907 0.64964 1.6325 1.3794 2.3854 1.9267 0.29385 0.21362 0.37836 0.26326 0.40271 0.23651 0.01689-0.01862 0.29664-0.41467 0.62153-0.88012zm17.912-0.72792c1.3879-0.05161 3.0625-0.29518 4.5071-0.65559 4.8913-1.2203 9.2365-3.9859 12.407-7.897 0.26235-0.32361 0.78369-1.0084 0.87111-1.1443l0.04514-0.07012-0.88086-0.6166c-0.48446-0.33913-0.88994-0.61594-0.90105-0.61514-0.01105 8e-4 -0.1119 0.13029-0.22396 0.28777-0.6825 0.95898-1.7836 2.1854-2.7565 3.0701-3.0769 2.7981-6.8506 4.605-10.947 5.2416-0.81856 0.1272-1.6019 0.19798-2.6745 0.24162l-0.42004 0.01704v2.1841l0.2867-0.0142c0.15766-0.0079 0.46671-0.02099 0.68674-0.0292zm-13.829-5.1059c0.33797-0.48379 0.61451-0.88457 0.61451-0.89062 0-6e-3 -0.20702-0.16707-0.46003-0.3578-1.9096-1.4394-3.5196-3.1374-4.8337-5.0979-1.8758-2.7983-3.0515-6.0165-3.4252-9.3754-0.05539-0.49845-0.09453-1.0607-0.12389-1.7801l-0.01704-0.42004h-2.1806l0.01263 0.19335c0.0063 0.10634 0.01878 0.41537 0.02651 0.68672 0.04877 1.7103 0.37481 3.6944 0.90714 5.5204 0.38961 1.3364 0.87925 2.5789 1.524 3.867 1.5011 2.9991 3.6017 5.601 6.2108 7.6931 0.34658 0.2779 1.097 0.84087 1.1209 0.84087 0.0047 0 0.28618-0.39582 0.62417-0.8796zm14.238-2.0946c3.9876-0.37607 7.6976-2.2331 10.371-5.1913 0.40268-0.44556 0.96332-1.1412 1.1387-1.4129l0.04577-0.07103-1.7741-1.2406-0.06045 0.07796c-0.0333 0.04288-0.16737 0.21597-0.29806 0.38465-1.0296 1.3288-2.344 2.497-3.7777 3.3571-1.8851 1.131-3.9276 1.7788-6.1459 1.9491-0.19729 0.01515-0.47632 0.02754-0.62006 0.02754h-0.26137v2.1952l0.48199-0.0181c0.26509-0.0099 0.67014-0.03584 0.9001-0.05752zm-10.126-3.7781 0.61995-0.88515-0.07844-0.06051c-0.85785-0.66203-1.1779-0.93662-1.6894-1.4495-1.9501-1.9551-3.2547-4.4178-3.7864-7.1472-0.13778-0.70699-0.24309-1.6803-0.24309-2.2455v-0.26136h-2.1952l0.01799 0.48085c0.12247 3.2622 1.2106 6.3438 3.1789 9.003 0.69328 0.93662 1.7072 1.9973 2.6571 2.7795 0.26266 0.2163 0.85596 0.66764 0.88014 0.66955 0.0095 8e-4 0.29748-0.39685 0.63845-0.88368zm24.628-12.736c-0.19153-4.8542-2.5157-9.3036-6.3762-12.207-0.18588-0.1398-0.34236-0.25418-0.34771-0.25418-0.01736 0-1.2396 1.7551-1.2382 1.778 7.41e-4 0.01215 0.09296 0.08751 0.20496 0.16739 0.67014 0.47806 1.7914 1.5326 2.3552 2.2149 1.3706 1.6589 2.3032 3.4875 2.8112 5.5121 0.24767 0.98706 0.41398 2.2026 0.41436 3.0286v0.23335h2.1949l-0.01862-0.47337zm7.1495-0.18668c-0.03235-1.2711-0.17913-2.5427-0.44422-3.847-1.1307-5.5633-4.2754-10.525-8.8305-13.934-0.39187-0.29323-0.49206-0.35683-0.51778-0.32866-0.0625 0.0684-1.2133 1.7278-1.2122 1.7479 6.16e-4 0.01121 0.14157 0.12223 0.31337 0.24662 0.99099 0.71771 2.1107 1.7198 2.9791 2.6664 3.1426 3.4251 5.0559 7.7476 5.466 12.349 0.03267 0.36696 0.09233 1.4496 0.09438 1.7135 3.32e-4 0.04368 0.06992 0.04667 1.0846 0.04667h1.0842zm7.1726 0.04001c-0.05398-1.8347-0.24079-3.5129-0.57982-5.2071-1.398-6.9862-5.2049-13.253-10.758-17.71-0.4017-0.3224-0.99356-0.77232-1.3241-1.0065l-0.17728-0.12562-0.60946 0.87287c-0.33521 0.48008-0.61298 0.88636-0.61726 0.90284-0.0047 0.01648 0.04372 0.06388 0.10669 0.10533 0.16142 0.10627 0.80427 0.59046 1.1679 0.87964 1.8762 1.4921 3.5664 3.2348 5.0181 5.1741 3.1802 4.2482 5.1094 9.3834 5.5156 14.681 0.0423 0.55134 0.08002 1.3637 0.08033 1.7268l2.53e-4 0.32669h2.1951l-0.01815-0.62005zm7.149-0.18668c-0.083487-4.0123-0.85686-8.1003-2.2589-11.941-1.5377-4.2123-3.849-8.1604-6.7597-11.547-1.9913-2.3168-4.1725-4.3093-6.7244-6.1424l-0.13652-0.098021-0.6103 0.87145c-0.33565 0.4793-0.6137 0.88477-0.61789 0.90106-0.0047 0.01629 0.09185 0.10023 0.21336 0.18656 0.98807 0.70187 2.1393 1.6312 3.1679 2.5573 0.49873 0.44904 1.9411 1.8914 2.3902 2.3901 2.8802 3.1988 5.0632 6.6899 6.6371 10.614 1.5602 3.89 2.4324 8.1146 2.5121 12.168l0.01673 0.84674h2.187zm-48.512-7.3873c0.40301-0.53462 0.71981-0.89421 1.2875-1.4615 0.6025-0.60199 0.88083-0.84649 1.4553-1.2783 2.2585-1.6978 4.9438-2.6537 7.7674-2.7652l0.43338-0.01711v-2.1785l-0.18003 1.34e-4c-0.56063 3.87e-4 -1.5786 0.09545-2.3136 0.21606-3.8467 0.63124-7.3242 2.6452-9.8038 5.6776-0.40098 0.49039-0.64306 0.83159-0.61205 0.86261 0.04545 0.0454 1.7198 1.2158 1.7407 1.2167 0.01105 4.8e-4 0.11174-0.12215 0.22508-0.2725zm-5.8847-4.0811c0.45596-0.64501 1.2441-1.5752 1.9335-2.282 3.3576-3.4425 7.8711-5.6478 12.641-6.1768 0.66773-0.07403 1.3213-0.12117 1.6804-0.12117 0.13494 0 0.31908-0.0077 0.40925-0.01714l0.16393-0.01714v-2.161l-0.66007 0.01679c-3.4513 0.08783-7.0524 1.0528-10.169 2.7249-2.9726 1.5948-5.5616 3.8172-7.5777 6.5046-0.24466 0.32613-0.38848 0.54007-0.37326 0.55528 0.0565 0.05651 1.7273 1.2191 1.7518 1.219 0.0142 0 0.10464-0.11052 0.20002-0.24539zm-5.9739-3.9586c0.03661-0.05427 0.21554-0.29721 0.39749-0.53986 2.5746-3.4336 5.8646-6.2036 9.6968-8.1643 3.7599-1.9237 7.8177-2.9592 12.075-3.0813l0.6334-0.01816v-2.1859l-0.60673 0.018291c-3.2612 0.098352-6.2492 0.63812-9.2076 1.6633-3.8157 1.3223-7.2276 3.3303-10.321 6.0744-0.49714 0.44099-1.8343 1.7757-2.2966 2.2923-0.75915 0.84842-1.6854 2.0043-2.1519 2.6852l-0.0857 0.12504 0.87357 0.61377c0.48047 0.33757 0.88558 0.61424 0.90024 0.61483 0.0142 5.88e-4 0.05666-0.04334 0.09327-0.0976zm-5.5809-4.4949c1.0564-1.4555 2.1361-2.7113 3.5261-4.1013 1.5087-1.5087 2.7611-2.5735 4.4683-3.7988 5.6435-4.0506 12.66-6.3952 19.569-6.5388l0.82009-0.017044v-2.1785l-0.44671 1.499e-4c-0.47411 1.579e-4 -1.3322 0.034752-1.9935 0.080377-8.1087 0.55937-15.81 3.7253-21.944 9.021-1.387 1.1975-2.7608 2.5764-3.9646 3.9795-0.66146 0.77094-1.5612 1.9188-2.0623 2.6312l-0.12499 0.17769 0.8731 0.61389c0.48022 0.33764 0.88511 0.61458 0.89979 0.61543 0.0142 8.46e-4 0.18553-0.21735 0.37972-0.48489z" stroke-width=".026669"/></svg>
