<svg xmlns="http://www.w3.org/2000/svg" width="80" height="80"><path d="M40.001-16C17.91-16 0 1.908 0 23.999 0 46.089 17.909 64 40.001 64 62.091 64 80 46.09 80 23.999 80 1.908 62.09-16 40.001-16ZM7.757 21.387a2.614 2.614 0 1 1 .005 5.224 2.614 2.614 0 0 1-.005-5.224zm7.348 0a2.613 2.613 0 1 1 .003 5.226 2.613 2.613 0 0 1-.003-5.226zm7.347 0a2.613 2.613 0 1 1 .003 5.226 2.613 2.613 0 0 1-.003-5.226zm7.35 0a2.614 2.614 0 1 1-.005 5.228 2.614 2.614 0 0 1 .005-5.228zm7.344 0a2.613 2.613 0 1 1-.002 5.226 2.613 2.613 0 0 1 .002-5.226zm7.345 0a2.614 2.614 0 1 1 0 5.226 2.61 2.61 0 0 1-2.61-2.612 2.612 2.612 0 0 1 2.61-2.614zm7.347 0a2.613 2.613 0 1 1 .003 5.226 2.613 2.613 0 0 1-.003-5.226zm7.348 0a2.614 2.614 0 1 1 0 5.228 2.614 2.614 0 0 1 0-5.228zm7.347 0a2.614 2.614 0 1 1 0 5.224 2.614 2.614 0 0 1 0-5.224zm7.347 0a2.614 2.614 0 1 1-.004 5.228 2.614 2.614 0 0 1 .004-5.228z" style="fill:#000;fill-opacity:1;fill-rule:nonzero;stroke:none" transform="translate(0 16)"/></svg>