<svg xmlns="http://www.w3.org/2000/svg" xml:space="preserve" width="80" height="80"><path d="M39.903.17C61.898.115 79.777 17.91 79.831 39.903c.053 21.994-17.74 39.873-39.735 39.927C18.102 79.884.222 62.09.17 40.096.116 18.102 17.91.223 39.903.17Z" style="fill:#0a0a0d;fill-opacity:1;fill-rule:evenodd;stroke:#1f1917;stroke-width:.337234;stroke-linecap:butt;stroke-linejoin:miter;stroke-miterlimit:10;stroke-dasharray:none;stroke-opacity:1"/><path d="M65.724 29.76c.167 0 .309 3.019.315 6.742.01 3.723-.118 6.743-.285 6.743-.167 0-.31-3.018-.316-6.742-.01-3.723.119-6.743.286-6.743zM52.443 43.383c.118-.117 2.354 1.916 4.993 4.543 2.639 2.626 4.683 4.852 4.566 4.97-.118.118-2.354-1.916-4.993-4.542-2.639-2.626-4.684-4.852-4.566-4.97zM49.851 52.516c-.001.166-3.018.31-6.741.32-3.724.01-6.743-.119-6.744-.286.002-.167 3.02-.309 6.742-.316 3.724-.009 6.743.119 6.743.286zM19.487 42.183c.168.001.31 3.02.321 6.742.01 3.723-.119 6.743-.286 6.743-.167 0-.31-3.018-.32-6.741-.01-3.724.118-6.743.285-6.744zM27.045 52.993c.167 0 .31 3.018.32 6.74.01 3.725-.118 6.744-.285 6.744-.167 0-.31-3.018-.321-6.741-.009-3.724.12-6.743.286-6.743zM41.97 57.338c.167 0 .31 3.018.32 6.741.01 3.723-.118 6.743-.285 6.744-.168-.001-.31-3.02-.32-6.742-.01-3.723.118-6.743.285-6.743zM31.67 35.561c.167.001.31 3.02.32 6.743.01 3.723-.119 6.743-.285 6.743-.167 0-.31-3.019-.32-6.742-.01-3.723.118-6.743.285-6.744zM48.977 19.943c.167.001.31 3.02.32 6.742.01 3.723-.119 6.743-.286 6.744-.167-.001-.31-3.02-.32-6.742-.01-3.723.119-6.743.286-6.744zM12.803 30.235c.167 0 .31 3.018.32 6.741.01 3.723-.119 6.743-.285 6.743-.167 0-.31-3.018-.321-6.741-.009-3.724.12-6.743.286-6.743zM16.43 26.08c.167.002.31 3.02.32 6.742.01 3.723-.118 6.743-.286 6.744-.166 0-.308-3.019-.316-6.742-.009-3.723.12-6.743.286-6.743zM50.98 53.801c.168.001.31 3.019.321 6.742.01 3.723-.119 6.743-.286 6.743-.167-.001-.31-3.018-.316-6.742-.009-3.723.119-6.743.286-6.743zM26.712 29.692c.167.001.31 3.019.32 6.742.01 3.723-.118 6.743-.285 6.743-.167 0-.31-3.018-.32-6.742-.01-3.723.119-6.743.285-6.743zM38.658 19.78c.167 0 .31 3.018.32 6.741.01 3.723-.119 6.743-.286 6.744-.166-.001-.31-3.02-.32-6.742-.01-3.723.119-6.743.286-6.743zM32.227 15.382c.167 0 .31 3.019.32 6.742.009 3.723-.12 6.743-.286 6.744-.167-.001-.31-3.02-.32-6.742-.01-3.723.118-6.743.286-6.744zM43.161 24.222c.167 0 .31 3.019.32 6.742.01 3.723-.118 6.743-.285 6.743-.167 0-.31-3.018-.316-6.742-.01-3.723.119-6.743.286-6.743zM22.114 17.463c.167 0 .31 3.018.321 6.742.009 3.722-.12 6.742-.286 6.743-.167-.001-.31-3.02-.317-6.742-.009-3.723.12-6.743.286-6.744zM28.684 10.446c.167.001.31 3.02.32 6.742.01 3.723-.118 6.743-.285 6.744-.167-.001-.31-3.02-.32-6.742-.01-3.724.118-6.743.285-6.744zM41.13 33.827c.166 0 .309 3.019.315 6.742.01 3.723-.119 6.742-.285 6.743-.168-.001-.31-3.019-.32-6.742-.01-3.722.118-6.742.285-6.743z" style="fill:#fff;fill-opacity:1;fill-rule:evenodd;stroke:#fff;stroke-width:.66385;stroke-linecap:butt;stroke-linejoin:miter;stroke-miterlimit:10;stroke-dasharray:none;stroke-opacity:1"/><path d="M43.815 61.927c.084.145-2.46 1.778-5.68 3.647-3.219 1.87-5.898 3.269-5.982 3.124-.084-.144 2.46-1.777 5.68-3.647 3.22-1.869 5.899-3.268 5.982-3.124zM36.23 31.09c.167.002.31 3.02.32 6.743.01 3.723-.118 6.742-.285 6.742-.167 0-.31-3.018-.32-6.74-.01-3.724.118-6.744.285-6.744zM53.138 15.1c.166 0 .309 3.019.315 6.742.01 3.723-.118 6.743-.285 6.743-.167 0-.31-3.018-.32-6.742-.01-3.723.118-6.743.285-6.743zM44.29 45.047c.167 0 .31 3.019.32 6.742.01 3.723-.118 6.743-.285 6.743-.167 0-.31-3.019-.316-6.742-.01-3.723.119-6.743.286-6.743zM68.458 33.561c.167.001.31 3.02.32 6.742.01 3.724-.118 6.743-.285 6.744-.167-.001-.31-3.018-.32-6.742-.01-3.723.118-6.743.285-6.744zM64.825 43.562c.167 0 .31 3.018.32 6.741.01 3.723-.119 6.743-.286 6.744-.166-.001-.31-3.019-.32-6.742-.01-3.723.119-6.743.285-6.743zM59.623 33.43c.167.001.31 3.02.32 6.742.01 3.723-.119 6.742-.286 6.743-.167 0-.309-3.018-.315-6.742-.01-3.723.118-6.743.285-6.743zM50.18 33.13c.168 0 .31 3.019.321 6.742.01 3.722-.119 6.742-.285 6.743-.167 0-.31-3.019-.32-6.742-.01-3.723.118-6.743.285-6.743z" style="fill:#fff;fill-opacity:1;fill-rule:evenodd;stroke:#fff;stroke-width:.66385;stroke-linecap:butt;stroke-linejoin:miter;stroke-miterlimit:10;stroke-dasharray:none;stroke-opacity:1"/><path d="M37.955 37.17c-.001.167-3.018.31-6.741.317-3.724.009-6.743-.12-6.743-.286 0-.167 3.018-.31 6.741-.32 3.723-.01 6.743.119 6.743.286zM35.03 63.111c-.001.167-3.019.31-6.742.32-3.723.01-6.743-.118-6.743-.285 0-.167 3.018-.31 6.742-.317 3.723-.009 6.743.12 6.743.286zM66.435 57.361c-.001.168-3.018.31-6.741.32-3.724.01-6.743-.118-6.744-.285.002-.168 3.02-.31 6.742-.321 3.723-.01 6.743.119 6.743.286zM31.314 30.215c-.002.167-3.02.31-6.742.32-3.723.01-6.743-.118-6.744-.285.001-.168 3.02-.31 6.742-.321 3.723-.01 6.743.12 6.744.286zM46.157 34.781c-.001.167-3.019.31-6.742.32-3.723.01-6.742-.118-6.743-.285.001-.167 3.019-.31 6.742-.321 3.723-.01 6.743.12 6.743.287zM57.659 50.087c-.002.167-3.019.31-6.742.32-3.723.01-6.743-.118-6.743-.286.001-.166 3.018-.31 6.741-.32 3.724-.01 6.743.119 6.744.285zM55.939 44.26c-.002.166-3.019.31-6.742.32-3.723.01-6.743-.12-6.743-.286.001-.167 3.019-.31 6.742-.32 3.723-.01 6.742.119 6.743.286zM61.408 40.624c-.001.167-3.019.31-6.741.32-3.724.01-6.744-.119-6.744-.286.002-.166 3.019-.309 6.742-.32 3.723-.01 6.742.119 6.743.285zM59.654 63.209c-.002.166-3.02.31-6.742.32-3.723.01-6.743-.119-6.743-.286.001-.167 3.019-.31 6.741-.32 3.724-.01 6.743.118 6.744.286zM36.684 46.027c.118-.118 2.354 1.915 4.993 4.542 2.639 2.626 4.684 4.852 4.566 4.97-.118.118-2.354-1.915-4.993-4.542-2.64-2.626-4.683-4.852-4.566-4.97zM35.893 51.237c.118-.118 2.353 1.916 4.992 4.542 2.64 2.627 4.684 4.853 4.566 4.97-.118.12-2.353-1.915-4.992-4.54-2.64-2.627-4.684-4.854-4.566-4.972zM38.394 60.308c.117-.118 2.353 1.916 4.992 4.542 2.64 2.626 4.684 4.852 4.566 4.97-.118.119-2.353-1.915-4.992-4.542-2.64-2.626-4.684-4.852-4.566-4.97zM27.898 48.502c.117-.118 2.353 1.916 4.992 4.542 2.64 2.626 4.684 4.852 4.566 4.97-.118.119-2.353-1.916-4.992-4.542-2.64-2.626-4.684-4.851-4.566-4.97zM21.675 40.255c.118-.12 2.353 1.914 4.992 4.54 2.64 2.627 4.684 4.853 4.566 4.971-.117.119-2.353-1.915-4.992-4.541-2.64-2.627-4.684-4.853-4.566-4.97zM20.09 35.322c.118-.118 2.354 1.916 4.993 4.542 2.64 2.627 4.684 4.852 4.567 4.97-.118.12-2.354-1.915-4.993-4.541-2.64-2.627-4.684-4.852-4.566-4.971zM16.853 43.02c.118-.118 2.353 1.916 4.992 4.542 2.64 2.626 4.684 4.852 4.566 4.97-.117.118-2.353-1.915-4.992-4.541-2.64-2.627-4.684-4.853-4.566-4.97zM54.835 21.942c.118-.118 2.353 1.916 4.993 4.542 2.639 2.626 4.683 4.853 4.566 4.97-.118.12-2.354-1.914-4.993-4.541-2.639-2.626-4.683-4.852-4.566-4.97zM14.993 52.754c.118-.118 2.353 1.916 4.993 4.542 2.638 2.626 4.683 4.852 4.565 4.97-.118.119-2.353-1.915-4.992-4.541-2.64-2.627-4.684-4.852-4.566-4.97zM9.01 41.346c.119-.119 2.354 1.915 4.994 4.541 2.638 2.627 4.683 4.853 4.565 4.97-.118.119-2.353-1.915-4.992-4.541-2.64-2.626-4.684-4.853-4.566-4.97ZM61.447 36.297c.118-.118 2.354 1.915 4.993 4.542 2.639 2.626 4.684 4.852 4.566 4.97-.118.118-2.353-1.915-4.992-4.542-2.64-2.626-4.685-4.852-4.567-4.97zM37.456 9.436c.117-.118 2.353 1.916 4.992 4.542 2.64 2.627 4.684 4.852 4.566 4.97-.118.12-2.354-1.915-4.992-4.542-2.64-2.625-4.684-4.852-4.566-4.97ZM28.702 53.804c.118-.118 2.353 1.916 4.992 4.542 2.64 2.626 4.684 4.852 4.567 4.97-.118.119-2.354-1.915-4.993-4.542-2.639-2.626-4.684-4.852-4.566-4.97z" style="fill:#fff;fill-opacity:1;fill-rule:evenodd;stroke:#fff;stroke-width:.66385;stroke-linecap:butt;stroke-linejoin:miter;stroke-miterlimit:10;stroke-dasharray:none;stroke-opacity:1"/><path d="M42.45 42.108c.118-.118 2.353 1.916 4.992 4.542 2.64 2.626 4.684 4.853 4.566 4.97-.117.119-2.353-1.915-4.992-4.54-2.64-2.628-4.684-4.854-4.567-4.972zM50.493 48.303c.118-.119 2.353 1.915 4.992 4.542 2.64 2.626 4.684 4.852 4.566 4.97-.117.118-2.353-1.915-4.992-4.542-2.639-2.626-4.684-4.852-4.566-4.97zM20.832 39.172c.083.144-2.46 1.777-5.68 3.646-3.22 1.87-5.898 3.269-5.982 3.124-.084-.144 2.459-1.777 5.679-3.647 3.22-1.869 5.899-3.267 5.983-3.123zM46.445 25.922c.083.144-2.46 1.778-5.68 3.647-3.22 1.87-5.899 3.268-5.983 3.124-.083-.144 2.46-1.778 5.68-3.647 3.22-1.87 5.899-3.268 5.983-3.124zM45.247 19.347c.084.145-2.46 1.777-5.68 3.647-3.22 1.87-5.898 3.269-5.982 3.124-.084-.145 2.46-1.777 5.68-3.647 3.22-1.87 5.898-3.268 5.982-3.124zM25.054 48.817c.084.144-2.46 1.776-5.68 3.646-3.22 1.869-5.898 3.268-5.982 3.124-.084-.144 2.46-1.778 5.679-3.647 3.22-1.87 5.9-3.268 5.983-3.123zM27.997 54.44c.083.144-2.46 1.777-5.68 3.647-3.22 1.869-5.898 3.268-5.982 3.123-.084-.144 2.46-1.778 5.679-3.647 3.22-1.87 5.899-3.268 5.983-3.123zM23.11 26.47c.084.143-2.46 1.777-5.679 3.646-3.22 1.87-5.899 3.269-5.983 3.124-.084-.144 2.46-1.777 5.68-3.646 3.22-1.87 5.898-3.269 5.982-3.125zM63.374 25.431c.085.145-2.459 1.777-5.679 3.647-3.22 1.869-5.899 3.268-5.982 3.124-.084-.144 2.459-1.778 5.679-3.647 3.22-1.87 5.9-3.268 5.982-3.124zM69.101 45.8c.084.145-2.459 1.777-5.68 3.647-3.22 1.869-5.898 3.268-5.982 3.124-.084-.144 2.46-1.777 5.68-3.647 3.22-1.87 5.899-3.268 5.982-3.124zM64.797 20.654c.084.144-2.46 1.777-5.68 3.647-3.219 1.87-5.898 3.268-5.982 3.124-.084-.145 2.46-1.778 5.68-3.647 3.22-1.87 5.898-3.268 5.982-3.124zM69.28 30.354c.084.145-2.46 1.778-5.68 3.647-3.22 1.87-5.898 3.269-5.982 3.124-.084-.144 2.46-1.777 5.68-3.646 3.218-1.87 5.898-3.27 5.982-3.125zM42.446 48.72c.083.145-2.46 1.778-5.68 3.648-3.22 1.87-5.899 3.268-5.983 3.124-.084-.145 2.46-1.777 5.68-3.647 3.22-1.87 5.9-3.268 5.983-3.124zM23.34 34.503c.084.144-2.459 1.777-5.679 3.646-3.22 1.87-5.9 3.27-5.983 3.125-.084-.145 2.46-1.777 5.68-3.646 3.22-1.87 5.899-3.27 5.982-3.125zM25.675 16.901c.084.145-2.46 1.778-5.68 3.647-3.219 1.87-5.899 3.268-5.982 3.124-.084-.144 2.459-1.777 5.679-3.646 3.22-1.87 5.9-3.269 5.983-3.125zM61.04 16.787c.085.144-2.459 1.777-5.678 3.647-3.22 1.869-5.9 3.268-5.983 3.124-.084-.145 2.46-1.777 5.68-3.647 3.219-1.87 5.898-3.269 5.982-3.124zM66.738 27.39c.084.144-2.46 1.777-5.68 3.647-3.22 1.869-5.898 3.267-5.982 3.123-.084-.144 2.46-1.777 5.68-3.647 3.22-1.869 5.898-3.268 5.982-3.124zM30.199 19.1c.083.145-2.46 1.778-5.68 3.647-3.22 1.87-5.9 3.268-5.983 3.125-.084-.145 2.46-1.778 5.68-3.647 3.22-1.87 5.898-3.269 5.983-3.125zM39.366 16.373c.083.144-2.46 1.777-5.68 3.646-3.22 1.87-5.898 3.269-5.982 3.125-.084-.145 2.459-1.778 5.679-3.647 3.22-1.87 5.899-3.269 5.983-3.124zM57.69 22.445c.085.145-2.459 1.778-5.679 3.648-3.22 1.869-5.899 3.267-5.982 3.123-.084-.144 2.46-1.777 5.68-3.647 3.219-1.869 5.898-3.268 5.982-3.124z" style="fill:#fff;fill-opacity:1;fill-rule:evenodd;stroke:#fff;stroke-width:.66385;stroke-linecap:butt;stroke-linejoin:miter;stroke-miterlimit:10;stroke-dasharray:none;stroke-opacity:1"/><path d="M69.092 51.708c.084.144-2.46 1.777-5.68 3.646-3.219 1.87-5.898 3.268-5.982 3.124-.084-.144 2.46-1.777 5.68-3.647 3.22-1.869 5.898-3.268 5.982-3.123zM52.454 12.912c.085.145-2.46 1.777-5.679 3.647-3.22 1.869-5.899 3.269-5.983 3.124-.083-.145 2.46-1.778 5.68-3.647 3.22-1.87 5.898-3.268 5.982-3.124zM32.237 42.478c.084.144-2.46 1.777-5.679 3.646-3.22 1.87-5.9 3.268-5.983 3.124-.083-.144 2.46-1.778 5.68-3.647 3.22-1.87 5.898-3.268 5.982-3.123zM45.71 9.206c.085.143-2.459 1.777-5.679 3.646-3.22 1.87-5.899 3.268-5.982 3.124-.084-.144 2.46-1.777 5.679-3.647 3.22-1.87 5.899-3.268 5.983-3.123zM32.385 26.429c.084.144-2.46 1.777-5.679 3.647-3.22 1.869-5.9 3.268-5.983 3.123-.084-.144 2.46-1.777 5.68-3.646 3.22-1.87 5.898-3.268 5.982-3.124zM39.62 26.64c.084.145-2.459 1.778-5.679 3.648-3.22 1.869-5.899 3.268-5.982 3.123-.084-.144 2.459-1.777 5.679-3.647 3.22-1.869 5.899-3.268 5.982-3.123zM56.278 36.919c.04.162-2.873.975-6.5 1.815-3.628.84-6.6 1.39-6.637 1.226-.039-.162 2.873-.975 6.5-1.815 3.628-.84 6.6-1.39 6.637-1.226zM48.226 35.344c.084.145-2.459 1.777-5.679 3.647-3.22 1.869-5.899 3.269-5.983 3.124-.084-.144 2.46-1.777 5.68-3.647 3.22-1.87 5.899-3.268 5.982-3.124zM56.426 54.09c.084.145-2.46 1.777-5.68 3.647-3.22 1.869-5.899 3.268-5.983 3.124-.083-.144 2.46-1.777 5.68-3.647 3.22-1.87 5.899-3.268 5.983-3.124z" style="fill:#fff;fill-opacity:1;fill-rule:evenodd;stroke:#fff;stroke-width:.66385;stroke-linecap:butt;stroke-linejoin:miter;stroke-miterlimit:10;stroke-dasharray:none;stroke-opacity:1"/><path d="M42.088 8.812c.117-.118 2.353 1.916 4.992 4.542 2.64 2.626 4.684 4.852 4.566 4.97-.117.12-2.353-1.915-4.992-4.541-2.639-2.627-4.684-4.853-4.566-4.97ZM31.81 9.884c.118-.118 2.354 1.916 4.993 4.542 2.639 2.627 4.684 4.852 4.566 4.97-.118.119-2.353-1.915-4.992-4.542-2.64-2.626-4.684-4.851-4.566-4.97ZM41.391 45.52c.084.145-2.46 1.778-5.68 3.647-3.22 1.87-5.899 3.269-5.982 3.124-.084-.144 2.46-1.777 5.68-3.646 3.219-1.87 5.898-3.269 5.982-3.125zM38.767 58.46c.083.144-2.46 1.777-5.68 3.647-3.22 1.87-5.899 3.268-5.983 3.124-.083-.145 2.46-1.778 5.68-3.647 3.22-1.87 5.898-3.268 5.983-3.124zM54.895 64.197c.084.145-2.46 1.777-5.68 3.647-3.22 1.87-5.899 3.269-5.982 3.124-.084-.144 2.459-1.777 5.68-3.646 3.219-1.87 5.898-3.269 5.982-3.125zM50.902 27.916c.117-.118 2.353 1.916 4.992 4.543 2.639 2.626 4.683 4.851 4.566 4.97-.118.118-2.354-1.916-4.992-4.542-2.64-2.626-4.684-4.852-4.566-4.97zM25.416 13.647c.167 0 .31 3.018.32 6.742.01 3.723-.119 6.742-.285 6.743-.167-.001-.31-3.019-.32-6.742-.01-3.723.118-6.743.285-6.743zM47.628 23.166c-.002.167-3.019.31-6.742.32-3.723.01-6.743-.118-6.743-.285.001-.167 3.018-.31 6.741-.32 3.724-.01 6.743.118 6.744.285z" style="fill:#fff;fill-opacity:1;fill-rule:evenodd;stroke:#fff;stroke-width:.66385;stroke-linecap:butt;stroke-linejoin:miter;stroke-miterlimit:10;stroke-dasharray:none;stroke-opacity:1"/><path d="M35.605 57.713c.167.001.31 3.02.32 6.742.01 3.724-.119 6.743-.285 6.744-.167-.001-.31-3.02-.32-6.742-.01-3.723.118-6.743.285-6.744z" style="fill:#fff;fill-opacity:1;fill-rule:evenodd;stroke:#fff;stroke-width:.66385;stroke-linecap:butt;stroke-linejoin:miter;stroke-miterlimit:10;stroke-dasharray:none;stroke-opacity:1"/></svg>