<svg id="SVGRoot" width="80px" height="80px" version="1.1" viewBox="0 0 80 80" xmlns="http://www.w3.org/2000/svg"><path d="m38.598 79.975c-6.1557-0.21703-12.127-1.8266-17.508-4.7192-6.2354-3.352-11.501-8.3248-15.205-14.361-3.3854-5.5158-5.3624-11.726-5.7947-18.201-0.46101-6.9054 0.8499-13.761 3.8142-19.948 2.3964-5.0016 5.8143-9.4587 10.04-13.092 7.9596-6.8451 18.25-10.268 28.75-9.5619 7.5345 0.50649 14.7 3.1013 20.801 7.5327 4.115 2.989 7.6918 6.8159 10.394 11.121 1.8065 2.8779 3.2689 6.0361 4.2605 9.2007 1.5063 4.8076 2.0938 9.7288 1.7605 14.748-0.54302 8.177-3.5653 15.925-8.7176 22.348-2.2666 2.8259-5.0039 5.4127-7.963 7.5252-7.176 5.1231-15.807 7.7188-24.631 7.4077zm-7.6422-4.975c2.6283-0.52217 5.1474-1.492 7.4572-2.8711 4.1497-2.4775 7.5038-6.2588 9.4677-10.674 1.6249-3.6529 2.2922-7.6271 1.9477-11.601-0.0262-0.3026-0.05697-0.48976-0.10574-0.64353-0.14314-0.45109-0.49745-0.85389-0.93526-1.0633-0.31968-0.15293-0.47444-0.18719-0.82675-0.18304-0.50755 6e-3 -0.89863 0.17459-1.2713 0.54813-0.15498 0.15529-0.23118 0.25882-0.31421 0.4267-0.19505 0.39438-0.19278 0.37592-0.21538 1.7551-0.03235 1.9765-0.18898 3.454-0.5492 5.1825-1.394 6.6888-5.2302 12.578-10.785 16.556-1.1979 0.85798-2.5231 1.6445-3.8804 2.303-0.3667 0.17791-0.70873 0.34392-0.76007 0.36888l-0.09343 0.04545 0.13336-0.01594c0.07339-0.0095 0.40199-0.06928 0.73032-0.13462zm-1.1009-5.101c3.3787-1.3337 6.2999-3.5774 8.4765-6.5104 2.2283-3.0027 3.5274-6.5609 3.7777-10.347 0.03582-0.54167 0.01673-2.4604-0.02762-2.7733-0.10322-0.72877-0.77195-1.2116-1.4737-1.064-0.40833 0.08588-0.76488 0.3969-0.90851 0.79253-0.05161 0.14204-0.05524 0.2155-0.06029 1.2179-0.0047 1.0461-0.0273 1.5191-0.10811 2.3202-0.47684 4.7317-2.4437 9.1627-5.6526 12.734-0.38537 0.42893-1.3179 1.3527-1.746 1.7297-0.72794 0.64096-1.4985 1.2397-2.2677 1.762-0.23913 0.16238-0.42853 0.29523-0.42088 0.29523 0.0079 0 0.19268-0.07054 0.41117-0.15687zm-1.1229-4.7326c0.60395-0.37524 1.2005-0.81036 1.7735-1.2936 0.42833-0.36118 1.2965-1.2293 1.6577-1.6576 2.0352-2.4133 3.2228-5.3037 3.462-8.426 0.01578-0.19728 0.02746-0.67732 0.0273-1.0668-2.68e-4 -1.0717-0.07544-1.9113-0.19472-2.1702-0.08191-0.17802-0.26001-0.35484-0.44524-0.44221-0.12626-0.05956-0.18195-0.06909-0.40003-0.06851-0.21016 5.6e-4 -0.27481 0.01121-0.37915 0.06251-0.19819 0.09745-0.35622 0.25384-0.45099 0.44633-0.09927 0.20168-0.09532 0.10867-0.06376 1.4906 0.02778 1.2161-0.02068 2.0095-0.18916 3.1069-0.39867 2.5953-1.3576 5.0831-2.7959 7.2539-0.66048 0.9968-1.3067 1.8006-2.1644 2.692l-0.37058 0.38519 0.16002-0.09011c0.08806-0.04955 0.25603-0.14977 0.37337-0.2226zm36.669-13.505c-1.4819-2.5523-3.669-4.5815-6.3187-5.8624-1.5654-0.7567-3.1093-1.1923-4.9606-1.3994-0.41775-0.04675-1.9197-0.06362-2.4197-0.02718-0.95657 0.06969-1.1797 0.12534-1.403 0.34974-0.18184 0.18281-0.25182 0.34443-0.265 0.61208-0.0095 0.1857-8.05e-4 0.25418 0.04608 0.37874 0.07859 0.20836 0.25681 0.39943 0.47099 0.50487 0.2013 0.09909 0.10858 0.09513 1.4903 0.06365 1.5071-0.03434 2.6163 0.06458 4.0566 0.36175 2.8895 0.5962 5.6528 1.9292 7.9179 3.8198 0.37427 0.31238 1.0225 0.90175 1.2793 1.1631 0.08759 0.0891 0.16369 0.16201 0.16922 0.16201 0.0047 0-0.02304-0.057-0.06344-0.12668zm4.4859-1.5441c-0.77754-1.9615-1.8572-3.7604-3.247-5.4098-0.47567-0.56457-1.6054-1.6985-2.1667-2.1747-2.9664-2.5169-6.503-4.0789-10.258-4.5305-0.90847-0.10926-1.1626-0.12201-2.4136-0.12109-1.4257 1e-3 -1.6318 0.01788-1.9255 0.15734-0.63956 0.30372-0.89185 1.0985-0.54194 1.7071 0.08586 0.14937 0.30984 0.37706 0.45386 0.46142 0.24675 0.14454 0.28166 0.14832 1.4268 0.15435 1.3598 0.0071 2.0943 0.05812 3.2803 0.22771 4.2581 0.6088 8.265 2.4602 11.561 5.3417 0.41133 0.35959 1.369 1.3054 1.7722 1.7503 0.6744 0.74411 1.4046 1.672 1.9464 2.4736 0.13099 0.19384 0.24281 0.34787 0.2484 0.34229 0.0063-0.0055-0.05571-0.1764-0.13636-0.37958zm-40.688-0.22362c1.5507-0.07408 1.8386-0.15184 2.3084-0.6235 0.62773-0.63027 0.71668-1.556 0.22079-2.2974-0.22587-0.33769-0.56658-0.59212-0.96844-0.72318-0.21148-0.06897-0.22426-0.06985-1.1207-0.07679-1.0029-0.0077-1.3827-0.02224-2.1336-0.08121-5.1449-0.40411-10.046-2.2573-14.173-5.3592-3.0163-2.2671-5.5276-5.141-7.3746-8.4392-0.21645-0.38653-0.7401-1.4157-0.99737-1.9602l-0.11347-0.24002 0.016413 0.13334c0.032038 0.26043 0.25242 1.3149 0.38729 1.8535 1.4801 5.9102 5.2066 11.018 10.414 14.273 3.382 2.1145 7.2818 3.3366 11.294 3.5391 0.62276 0.03142 1.5977 0.03199 2.2402 0.0013zm45.925-0.18971c-0.32303-1.8544-0.83443-3.5903-1.5632-5.3059-0.42392-0.99799-1.1608-2.3961-1.7696-3.3575-1.3407-2.1172-3.1165-4.106-5.0952-5.7059-2.6319-2.1281-5.7104-3.679-8.9475-4.5076-2.5949-0.6642-5.2609-0.88539-7.8941-0.65495-0.68955 0.06035-0.98883 0.18334-1.3633 0.56028-0.26489 0.26663-0.43608 0.58645-0.50646 0.94619-0.07717 0.3943-0.02683 0.73654 0.16879 1.1461 0.0999 0.20927 0.15672 0.28814 0.33774 0.46919 0.17728 0.17727 0.26452 0.24078 0.47042 0.34242 0.37819 0.18669 0.50686 0.20356 1.5553 0.20387 1.2022 3.47e-4 2.1123 0.05686 3.258 0.20231 5.1474 0.65346 9.964 2.7473 13.948 6.0633 0.69097 0.57512 1.0978 0.94924 1.8412 1.6932 1.3178 1.3188 2.3569 2.5854 3.3711 4.1092 0.77913 1.1706 1.53 2.5132 2.0686 3.699 0.07149 0.15734 0.13446 0.2816 0.13999 0.27612 0.0047-0.0055-0.0032-0.0862-0.01957-0.1794zm-45.686-7.5997c0.43496-0.03008 0.62549-0.0815 0.84701-0.22853 0.24584-0.16317 0.4219-0.4152 0.50029-0.71614 0.1698-0.65195-0.23432-1.316-0.90806-1.4921-0.13052-0.0341-0.26186-0.0383-0.7579-0.02423-1.2439 0.03529-2.7567-0.07834-4.1471-0.31149-5.9585-0.99917-11.36-4.469-14.732-9.4637-0.16275-0.24104-0.2959-0.4318-0.2959-0.4239s0.070703 0.19312 0.15719 0.41159c0.83546 2.1119 2.0224 4.0512 3.5069 5.7296 0.35309 0.39923 1.152 1.2009 1.5816 1.587 3.8915 3.498 9.069 5.2901 14.248 4.9318zm-1.0585-6.4807c0.86489-0.06074 1.1056-0.12261 1.323-0.33992 0.05966-0.05967 0.14188-0.1719 0.18272-0.24941 0.06692-0.12708 0.07418-0.16713 0.07402-0.40761-2.68e-4 -0.22831-0.0095-0.28588-0.0655-0.40003-0.0928-0.19002-0.3116-0.39545-0.49969-0.4693-0.14062-0.05522-0.18713-0.05966-0.51464-0.04905-0.89343 0.0289-2.4664 0.0085-2.9336-0.03792-4.2443-0.42232-8.024-2.1702-11.051-5.1108-0.40271-0.39116-0.40693-0.387-0.10416 0.10301 0.64808 1.0491 1.2483 1.8059 2.1403 2.6989 1.159 1.1602 2.3022 1.9918 3.7348 2.7168 2.421 1.2252 4.9784 1.7375 7.7143 1.5453zm4.1002-3.6358c0.49731-0.13437 0.93814-0.49712 1.1543-0.94985 0.18337-0.3841 0.18678-0.40906 0.19433-1.425 0.0095-1.2208 0.05618-2.0559 0.17382-3.0802 0.98242-8.5546 5.9707-16.129 13.45-20.422 0.51394-0.29504 1.6284-0.8725 2.1895-1.1345 0.31574-0.14742 0.30425-0.14743-0.45337-5.224e-4 -2.1621 0.41926-4.08 1.0727-6.0673 2.0672-1.0675 0.53422-2.0004 1.0852-2.8936 1.7091-5.7665 4.0277-9.4417 10.347-10.054 17.288-0.12121 1.3745-0.12121 2.8543 2.69e-4 4.1547 0.0576 0.61806 0.17013 0.90599 0.48811 1.2494 0.28473 0.30752 0.60083 0.48992 0.99113 0.57191 0.20727 0.04354 0.61372 0.02998 0.82679-0.02759zm6.9751-1.2025c0.3925-0.10157 0.74017-0.44148 0.87171-0.85227 0.0142-0.04414 0.02904-0.57606 0.03314-1.1868 0.0079-1.1345 0.02778-1.5302 0.12231-2.4135 0.45475-4.2489 2.1342-8.3088 4.8099-11.628 0.8779-1.0889 2.0151-2.2444 3.1094-3.1596 0.43571-0.36439 1.2726-0.99392 1.7535-1.319 0.19384-0.13104 0.34787-0.24281 0.34228-0.2484-0.0063-0.00552-0.1764 0.055742-0.37959 0.13629-4.2692 1.6922-7.7857 4.8344-9.9807 8.9181-1.597 2.9712-2.3992 6.4404-2.2693 9.8134 0.03898 1.0105 0.07355 1.1932 0.27896 1.4731 0.29991 0.40856 0.81786 0.59312 1.3083 0.46621zm6.2639-0.86704c0.18014-0.06739 0.38133-0.24397 0.47398-0.41598 0.10937-0.20308 0.1321-0.37299 0.10243-0.76935-0.03961-0.53064-0.03267-1.8496 0.01262-2.4535 0.14962-1.9859 0.58367-3.8086 1.3497-5.669 0.23575-0.57251 0.8213-1.7384 1.1396-2.269 0.78087-1.3018 1.5988-2.3636 2.6971-3.501 0.34894-0.36138 0.35721-0.3626-0.29929 0.04386-1.1929 0.73855-2.4235 1.8023-3.3565 2.9015-1.9903 2.3447-3.177 5.1874-3.453 8.2715-0.0767 0.85778-0.04277 2.3976 0.06818 3.0973 0.06108 0.38508 0.31383 0.68568 0.66711 0.79353 0.13794 0.04209 0.44673 0.02667 0.59776-0.02983z" stroke-width=".026669"/></svg>
