<svg xmlns="http://www.w3.org/2000/svg" width="80" height="80"><path d="M38.827 79.995a42.462 42.462 0 0 1-3.813-.297 39.867 39.867 0 0 1-10.787-2.92c-4.207-1.812-8.028-4.301-11.458-7.466a56.93 56.93 0 0 1-2.255-2.272C5.059 61.072 1.587 53.775.416 45.814a40.896 40.896 0 0 1-.299-8.917 39.846 39.846 0 0 1 9.595-23.025 41.4 41.4 0 0 1 4.196-4.19C22.573 2.22 33.93-1.154 45.32.352a39.747 39.747 0 0 1 14.565 4.936 40.203 40.203 0 0 1 16.607 18.314 39.857 39.857 0 0 1 2.765 8.7 40.337 40.337 0 0 1-.202 16.376 39.874 39.874 0 0 1-8.685 17.36 41.89 41.89 0 0 1-4.044 4.085 40.633 40.633 0 0 1-5.794 4.22 42.01 42.01 0 0 1-5.403 2.704c-4.19 1.706-8.432 2.652-13.043 2.91-.499.028-2.83.055-3.26.038zM40.98 69.85c.514-.018.69-.033.706-.06.03-.047.245-.944.331-1.375a29.98 29.98 0 0 0 .518-4.586l.019-.548.066.062c.117.11.606.694.849 1.014.756.999 1.486 2.288 1.921 3.396l.105.268.086-.187c.277-.607.43-1.739.464-3.443l.017-.851.112.177c.187.297.413.773.522 1.104.201.603.32 1.436.28 1.968-.01.159-.008.25.009.25.048 0 .422-.415.554-.614.268-.405.511-1.02.624-1.583l.06-.299.158.296c.37.692.828 1.754.974 2.264.042.143.083.26.092.26.017 0 .023-.047.095-.743.062-.604.062-1.782 0-2.324-.109-.95-.333-1.75-.677-2.413-.066-.128-.114-.238-.107-.246.037-.036.931.44 1.386.74.506.332.856.622 1.349 1.119.902.909 1.433 1.733 1.976 3.064l.042.102.196-.098c1.032-.519 2.514-1.421 3.605-2.195.642-.455 1.86-1.402 1.881-1.462.005-.013-.082-.143-.191-.291-.658-.887-1.54-1.789-2.32-2.37-.131-.098-.222-.179-.202-.179.08 0 .536.057.779.097 1.035.17 2.282.63 3.242 1.199.127.075.24.136.253.136.055 0 1.517-1.52 1.517-1.578 0-.039-.341-.608-.635-1.06-.78-1.2-1.934-2.657-3.021-3.813l-.337-.358h.17c.095 0 .31.012.481.027 1.462.125 3.039.507 4.35 1.056.211.088.391.16.4.16.021 0-.066-.257-.128-.38-.339-.67-1.087-1.603-2.196-2.736-.349-.357-.405-.425-.337-.41 1.126.257 1.955.712 2.742 1.506l.316.319v-.295c0-.162-.018-.394-.041-.515-.09-.475-.37-1.126-.689-1.604l-.16-.24.087.019c.151.033 1.152.379 1.53.528.201.08.562.242.803.363.24.12.437.213.437.207 0-.034-.652-.816-.95-1.14-1.025-1.116-2.198-1.94-3.262-2.294a4.135 4.135 0 0 1-.332-.119c-.02-.02.403-.175.792-.29a8.647 8.647 0 0 1 3.79-.24 9.34 9.34 0 0 1 2.04.59c.14.061.266.11.28.11.047 0 .383-1.134.62-2.086.247-.993.466-2.127.604-3.129.073-.53.17-1.435.156-1.449-.017-.017-.657-.108-1.043-.15-.509-.053-1.83-.045-2.317.014a8.98 8.98 0 0 0-.499.072l-.108.023.108-.094c.528-.458 1.372-.987 2.083-1.305.522-.233 1.302-.502 1.737-.598l.155-.034-.003-.813a30.986 30.986 0 0 0-.02-1.11l-.017-.296-.337-.09a28.585 28.585 0 0 0-2.102-.424c-1.204-.185-2.913-.338-3.784-.339h-.322l.08-.084c.099-.105.637-.566.887-.76.945-.735 2.315-1.525 3.404-1.963.182-.073.337-.139.344-.146.024-.023-.36-.178-.611-.247-.696-.189-1.986-.311-3.299-.313l-.539-.001.189-.124c.28-.183.747-.402 1.112-.523a5.15 5.15 0 0 1 1.791-.266c.234.005.425.001.425-.008 0-.039-.46-.454-.62-.56-.406-.269-1.03-.518-1.567-.626-.153-.03-.29-.06-.305-.064-.036-.01.791-.428 1.28-.646.51-.228.885-.373 1.262-.487l.307-.093-.118-.017c-.718-.107-2.042-.156-2.705-.1-1.062.088-1.832.28-2.592.65-.444.215-.429.245-.155-.302a8.433 8.433 0 0 1 3.02-3.39c.35-.23 1.158-.65 1.52-.79.125-.05.239-.1.252-.112.026-.025-.369-.779-.78-1.486a29.95 29.95 0 0 0-2.726-3.94c-.155-.188-.238-.27-.26-.254l-.356.27c-.854.648-1.68 1.46-2.236 2.2-.232.31-.228.315-.16-.213.153-1.175.573-2.39 1.212-3.506l.185-.322-.606-.597a34.024 34.024 0 0 0-.795-.763l-.19-.168-.422.254c-1.35.813-2.939 2.022-4.23 3.218-.176.162-.381.35-.457.416l-.136.121.018-.363c.075-1.49.525-3.386 1.133-4.777.066-.152.116-.277.11-.277-.007 0-.093.03-.191.068-.636.24-1.659 1.03-2.847 2.2-.278.273-.505.486-.505.473 0-.08.149-.619.232-.843.28-.75.804-1.53 1.391-2.07l.223-.205h-.3c-.165 0-.4.018-.523.041-.478.091-1.083.346-1.548.652l-.275.18c-.035.02.033-.212.223-.77.206-.604.463-1.23.683-1.663.115-.226.19-.4.166-.387a7.265 7.265 0 0 0-.357.275c-1.558 1.253-2.61 2.607-3.055 3.932l-.116.347-.04-.095c-.185-.436-.413-1.286-.501-1.869a8.69 8.69 0 0 1 .606-4.693c.066-.154.12-.284.12-.29 0-.033-1.353-.424-2.143-.62-1.355-.334-3.214-.651-4.289-.732l-.246-.018-.016.078c-.026.125-.09.592-.129.93-.022.192-.034.642-.034 1.188 0 .836.02 1.129.107 1.65l.016.093-.1-.108c-.44-.48-1.007-1.407-1.347-2.201a9.888 9.888 0 0 1-.55-1.643l-.03-.115-.45.001c-.516.001-1.73.044-1.748.061-.023.024-.12.393-.224.857-.333 1.475-.548 3.17-.621 4.878a58.88 58.88 0 0 1-.035.741c-.005.058-.04.027-.258-.22a14.882 14.882 0 0 1-1.619-2.25 18.892 18.892 0 0 1-.903-1.811 4.241 4.241 0 0 0-.152-.348c-.048-.056-.216.409-.317.876-.14.651-.214 1.486-.238 2.67l-.017.873-.119-.185c-.519-.802-.795-1.795-.794-2.853 0-.249-.009-.452-.02-.452-.044 0-.425.427-.549.613-.27.41-.505 1.006-.622 1.588l-.06.296-.15-.283c-.352-.656-.748-1.564-.934-2.14a3.606 3.606 0 0 1-.112-.39c-.001-.041-.005-.042-.024-.009-.034.061-.108.785-.14 1.365-.085 1.585.193 3.154.734 4.144.06.109.101.205.093.214-.025.024-.76-.348-1.114-.563-1.53-.93-2.715-2.304-3.445-3.99a4.617 4.617 0 0 1-.173-.433c0-.019-.008-.034-.017-.034-.032 0-.853.439-1.33.71a29.71 29.71 0 0 0-3.328 2.21c-.592.453-1.024.813-1.02.85.004.049.443.622.756.987.511.598 1.21 1.26 1.728 1.639.284.208.281.203.112.184-1.464-.17-2.627-.545-3.83-1.238-.172-.1-.324-.18-.337-.18-.054 0-1.519 1.519-1.519 1.575 0 .048.39.686.756 1.233a29.48 29.48 0 0 0 2.857 3.593l.387.416-.368-.018c-1.424-.072-3.17-.472-4.575-1.05-.534-.22-.493-.212-.445-.077.228.648.927 1.569 2.2 2.897l.508.531-.226-.05c-.932-.204-1.87-.741-2.613-1.497l-.293-.298.015.391c.015.409.067.659.215 1.054.1.267.319.688.501.966.09.138.152.25.136.25-.063 0-1.17-.381-1.574-.542a12.964 12.964 0 0 1-.84-.378c-.226-.113-.403-.192-.394-.176.027.047.17.23.38.488a12.516 12.516 0 0 0 1.77 1.772c.613.49 1.416.946 2.021 1.147l.336.111c.065.022-.003.052-.447.199-2.053.679-4.136.6-6.121-.232a8.73 8.73 0 0 0-.312-.127c-.013-.003-.072.147-.13.332a30.172 30.172 0 0 0-1.112 5.013c-.076.571-.156 1.314-.142 1.327.016.017.523.09.935.137.816.09 2.362.053 2.917-.071.056-.012.101-.018.101-.012 0 .03-.598.483-.903.684a8.944 8.944 0 0 1-1.345.733c-.403.178-1.268.476-1.616.556l-.213.049.015 1.092c.011.88.021 1.096.051 1.115.048.03.938.245 1.384.334 1.368.275 3.116.473 4.575.519l.56.017-.061.067c-.263.285-1.084.932-1.706 1.344-.807.536-1.812 1.074-2.597 1.39l-.36.145.102.053c.591.304 2.105.503 3.84.506h.525l-.19.125c-.272.18-.732.397-1.104.52-.601.201-1.148.282-1.812.268-.226-.004-.411 0-.411.009 0 .042.455.446.64.566.462.303.946.485 1.772.667l.107.024-.467.236c-.835.422-1.533.717-2.101.889l-.306.093.157.02c.62.076.915.098 1.532.113 1.59.039 2.762-.178 3.807-.704.166-.083.302-.145.302-.136 0 .008-.085.19-.19.404a8.565 8.565 0 0 1-2.348 2.951 9.892 9.892 0 0 1-2.204 1.292c-.141.057-.266.112-.278.122-.044.037.719 1.413 1.294 2.336.68 1.09 1.697 2.497 2.37 3.277l.076.088.335-.255c.925-.707 1.707-1.474 2.287-2.245l.203-.27-.019.23c-.097 1.193-.566 2.605-1.263 3.805l-.163.28.334.337c.443.447 1.203 1.155 1.252 1.166.068.016 1.01-.57 1.723-1.07a31.454 31.454 0 0 0 3.153-2.57l.35-.326.01.128c.01.152-.038.767-.093 1.181-.169 1.265-.573 2.736-1.057 3.844-.06.138-.103.25-.096.25.006 0 .106-.036.22-.08.621-.24 1.655-1.043 2.815-2.186.278-.274.505-.487.505-.474 0 .08-.148.619-.232.842a5.558 5.558 0 0 1-1.379 2.059l-.235.217h.3c.344 0 .639-.049.99-.165a5.699 5.699 0 0 0 1.357-.708c.04-.025.014.067-.206.718-.22.654-.477 1.278-.713 1.741a4.344 4.344 0 0 0-.186.387c.024 0 .673-.53.973-.795.51-.452 1.078-1.06 1.466-1.571.413-.545.833-1.325 1.009-1.875.057-.179.11-.325.119-.325.022 0 .28.776.36 1.08.087.337.166.756.22 1.182.056.425.062 1.378.014 1.818a9.385 9.385 0 0 1-.674 2.592c-.061.14-.107.258-.103.262.04.04 1.419.436 2.146.617 1.32.328 3.16.642 4.29.732.274.021.244.058.305-.38.096-.69.109-.91.108-1.797 0-.873-.018-1.141-.11-1.675-.016-.09-.01-.087.15.108.837 1.012 1.437 2.24 1.833 3.748.022.083.045.116.09.124.107.021.745.018 1.445-.007zm-6.909-2.546c-.379-.442-.69-1.422-.82-2.589-.135-1.199-.105-3.064.075-4.761l.02-.181-.238-.27a3.692 3.692 0 0 1-.237-.285c0-.009.235-.015.522-.015h.521l.873-.84c.48-.463.949-.916 1.04-1.007l.168-.167.03-.73c.016-.4.035-.77.043-.818l.013-.09.302.278.387.356.086.08.386-.322.432-.357c.04-.032.097-.003.475.248l.43.284.907-.284.908-.284 1.306-.716c1.093-.6 1.312-.71 1.347-.682.094.078.434.632.604.983.473.98.687 1.914.719 3.133.018.71 0 .696.249.205.485-.956.909-2.365 1.172-3.898a.296.296 0 0 1 .027-.101c.006 0 .069.025.14.056.373.16.902.63 1.187 1.052.295.439.554 1.07.678 1.648.126.59.15.868.151 1.707 0 .44-.007.81-.017.82-.024.024-.435.08-1.073.146-2.075.216-4.026.202-5.713-.04-.26-.038-.498-.075-.53-.083-.049-.012-.087.03-.26.292a7.214 7.214 0 0 0-1.128 2.981c-.075.521-.034 1.517.084 2.054l.024.108-.12-.135a9.255 9.255 0 0 1-.69-.919 7.483 7.483 0 0 1-1.03-2.344 5.85 5.85 0 0 1-.178-1.528l-.001-.505-.123.135c-.228.252-.675.809-.934 1.166-1.118 1.534-1.818 3.052-2.07 4.487a6.935 6.935 0 0 0-.053 1.544c.018.154.027.285.02.292-.006.006-.056-.04-.11-.104zm20.744-3.832c-1.236-.325-2.929-1.696-4.82-3.905-.267-.313-.69-.821-.699-.843a2.537 2.537 0 0 0-.23-.021 14.22 14.22 0 0 1-.374-.03l-.145-.016.367-.369.368-.369.026-1.324c.015-.728.028-1.38.028-1.449v-.124l-.554-.605c-.554-.605-.554-.605-.465-.612.05-.004.28-.017.513-.029.233-.011.432-.03.442-.04.01-.01.04-.257.066-.548.026-.291.053-.535.059-.54.006-.007.234-.057.507-.113l.497-.102.445-.853.445-.854.416-1.425.416-1.426.15.018c.479.058 1.173.279 1.739.552.796.385 1.451.854 2.148 1.54l.317.31-.053-.19c-.277-1.003-1-2.418-1.87-3.664l-.204-.29.099-.041c.285-.12.523-.159.977-.16.502-.002.707.031 1.2.194.53.176 1.165.54 1.738.996.26.208 1.24 1.183 1.24 1.235 0 .043-.521.715-.955 1.23-1.036 1.233-2.305 2.492-3.358 3.332-.186.149-.808.612-.88.656-.018.01.116.639.194.911.433 1.511 1.308 2.773 2.516 3.628.2.142.239.179.185.179-.147 0-.642-.058-.937-.11-1.602-.283-2.954-.972-3.969-2.022a8.5 8.5 0 0 0-.27-.273c-.036 0 .092 1.234.185 1.793.437 2.614 1.41 4.587 2.801 5.678.075.058.147.116.16.127.049.041-.267.02-.46-.032zm-23.483-4.142c-1.79-1.384-3.412-2.987-4.518-4.465-.422-.562-.33-.52-.868-.401a7.498 7.498 0 0 0-2.431 1.04c-.62.422-1.255 1.054-1.636 1.63l-.124.186-.008-.125c-.01-.163.06-.7.147-1.127.237-1.161.757-2.293 1.446-3.148.095-.119.317-.355.491-.525l.318-.308-.346.019c-.19.01-.578.048-.86.084-2.863.37-5.095 1.388-6.248 2.85-.088.112-.167.21-.174.217-.008.008-.007-.081.003-.198.054-.669.628-1.683 1.577-2.787.672-.782 1.932-1.973 3-2.837l.232-.189.02-.372c.01-.205.026-.372.035-.372.009 0 .186.169.394.376l.378.376 1.441.017 1.442.018.593-.547.593-.547.017.174c.01.095.018.27.02.39.002.118.011.277.02.353l.017.138.542.048c.298.026.549.058.557.07.008.013.054.233.104.49.05.257.104.482.12.499.017.017.395.222.84.455l.808.423 1.428.419c.786.23 1.438.428 1.45.44.047.046-.105.727-.266 1.193-.342.986-.942 1.925-1.773 2.774-.207.212-.332.358-.305.358.025 0 .206-.053.403-.118.968-.32 2.077-.896 3.23-1.68l.45-.305.055.14c.114.284.148.498.149.936 0 .293-.013.49-.045.651-.155.771-.575 1.583-1.22 2.358-.313.375-1.102 1.154-1.168 1.151-.024 0-.173-.1-.33-.223zm6.249-8.842c-.193-.994-.256-1.846-.181-2.443.015-.124.023-.23.017-.236a5.128 5.128 0 0 0-.318-.128c-.976-.373-1.81-.893-2.651-1.655l-.295-.267-.209.004c-.419.007-.85.196-1.31.572l-.15.122.09-.16c.19-.339.688-1.002.898-1.196l.068-.063-.165-.227c-.136-.188-.174-.225-.22-.21-.156.046-.6.22-.855.334-.557.25-1.168.638-1.5.955-.145.136-.138.124.165-.325.485-.72 1.169-1.497 1.565-1.779.083-.059.146-.12.14-.135l-.164-.378a8.045 8.045 0 0 1-.66-2.86l-.027-.49-.114-.117c-.304-.313-.948-.567-1.458-.575-.102-.001-.106-.003-.044-.029.207-.084.907-.199 1.394-.229l.3-.018.028-.165c.016-.09.036-.214.045-.275l.017-.11-.373-.165c-.857-.382-1.652-.598-2.219-.603-.27-.002-.197-.029.359-.13.725-.134 1.187-.174 1.808-.156.298.008.578.022.622.031l.08.017.095-.265a9.627 9.627 0 0 1 .687-1.4c.312-.507.66-.958 1.047-1.356l.188-.195v-.238c-.002-.478-.179-.887-.621-1.439-.041-.051-.063-.086-.048-.077.407.234.775.498 1.152.826l.29.252.214-.153.213-.153-.104-.288c-.334-.924-.752-1.67-1.195-2.131-.075-.078-.127-.142-.116-.142.042 0 .82.543 1.11.773.38.304.864.778 1.058 1.037l.157.211c.002.005.13-.048.283-.116.988-.44 2.214-.715 3.184-.716h.21l.181-.183c.296-.3.475-.717.541-1.26.017-.132.034-.244.039-.25.005-.004.041.129.08.296.072.304.14.795.17 1.237l.015.232.255.035c.14.02.26.03.265.025.026-.029.214-.427.301-.636.294-.709.487-1.493.498-2.022l.003-.163.037.15c.231.945.327 2.447.187 2.917-.01.03.052.065.236.132 1 .367 1.998.983 2.734 1.689l.222.213h.236c.47.001.892-.173 1.377-.569l.15-.122-.09.16a6.75 6.75 0 0 1-.865 1.16l-.13.134.149.203c.081.111.163.206.181.21.044.01.433-.128.795-.282.598-.255 1.226-.636 1.579-.959.18-.166.185-.168.122-.063-.45.749-1.272 1.718-1.777 2.095-.106.078-.187.156-.18.172l.14.313c.416.932.642 1.904.7 3.013l.02.351.17.168c.29.286.794.49 1.329.539.235.021.213.036-.172.121-.33.073-.735.128-1.1.149l-.305.017-.04.265-.04.265.31.148c.758.362 1.56.592 2.211.635l.283.019-.202.046c-.26.059-.748.143-1.091.187-.296.038-1.36.048-1.619.015l-.163-.022-.1.278c-.056.153-.21.498-.342.767a8.259 8.259 0 0 1-1.362 1.979l-.208.225.002.234c.005.43.23.96.567 1.335.051.057.087.11.08.116-.04.04-.704-.424-1.112-.776l-.295-.256-.208.151c-.115.083-.21.165-.21.182-.001.018.054.182.122.365.277.749.75 1.586 1.121 1.984.09.095.155.174.145.174-.022 0-.348-.218-.662-.443-.59-.42-1.18-.954-1.488-1.345a2.657 2.657 0 0 0-.175-.212 9.977 9.977 0 0 1-1.355.526 8.686 8.686 0 0 1-2.03.326c-.337.018-.349.02-.44.101-.138.121-.306.38-.404.625-.076.186-.11.337-.189.813l-.017.108-.037-.121c-.09-.299-.155-.72-.213-1.409l-.016-.18-.203-.03a4.34 4.34 0 0 1-.268-.046c-.06-.015-.075.005-.196.263-.372.797-.596 1.58-.644 2.256l-.019.267-.073-.378zm-17.003-2.552a1.944 1.944 0 0 1-.3-.029c-.014-.014-.105-.72-.152-1.175a25.812 25.812 0 0 1-.127-2.297c-.022-1.317.034-2.32.183-3.31.03-.201.062-.415.07-.477l.014-.112-.328-.218a7.336 7.336 0 0 0-2.157-.947c-.597-.147-.782-.171-1.442-.184-.604-.012-.944.016-1.428.117l-.081.017.108-.098c.207-.19.812-.636 1.105-.815.948-.578 1.875-.917 2.923-1.07.126-.018.47-.034.763-.035l.534-.002-.116-.103c-1.357-1.2-2.913-2.156-4.347-2.673a9.644 9.644 0 0 0-1.401-.362c-.32-.052-1.198-.069-1.577-.03l-.202.02.127-.118c.348-.325 1.214-.628 2.21-.772.744-.107 1.032-.123 2.217-.123 1.146 0 1.488.016 2.59.118l.51.048.273-.239c.151-.13.281-.238.29-.238.009 0 .016.24.017.534l.001.533.997 1.031.997 1.03.477.02.823.037.346.017-.353.387a8.238 8.238 0 0 0-.352.401c0 .007.157.2.35.429.193.229.35.423.35.433 0 .01-.127.204-.283.433l-.284.416.286.912.286.913.715 1.305c.69 1.261.712 1.307.667 1.358-.098.109-.552.389-.942.581-.243.12-.582.259-.849.347-.786.26-1.408.363-2.344.39l-.606.018.377.193c.952.49 2.214.885 3.673 1.154.198.037.366.073.373.08.027.027-.185.412-.332.606-.849 1.116-2.494 1.664-4.649 1.55zm38.647-1.292v-.534l-.999-1.033-.998-1.034-.126-.002c-.07-.002-.44-.017-.823-.034l-.696-.031.32-.353c.175-.194.335-.373.355-.398.033-.041 0-.092-.307-.456-.19-.225-.345-.423-.345-.44 0-.016.124-.216.276-.444l.275-.413-.275-.883a18.03 18.03 0 0 0-.33-.991c-.028-.06-.355-.661-.725-1.337l-.673-1.229.09-.076c.359-.303 1.083-.677 1.726-.893.757-.254 1.44-.368 2.337-.39l.63-.014-.105-.064c-.352-.216-1.173-.563-1.83-.774-.625-.201-1.657-.448-2.39-.572-.056-.01-.102-.024-.102-.032s.05-.113.113-.233c.49-.944 1.619-1.622 3.067-1.842a9.9 9.9 0 0 1 1.698-.08l.417.024.032.21c.138.91.224 2.077.243 3.303.02 1.34-.03 2.254-.182 3.283l-.07.475-.015.11.266.177a7.154 7.154 0 0 0 2.731 1.104c.599.111 1.614.102 2.205-.02a.907.907 0 0 1 .209-.03c.015.016-.458.406-.713.587-.822.585-1.852 1.058-2.736 1.257a5.743 5.743 0 0 1-1.417.158l-.526.003.135.125c.367.339 1.069.883 1.602 1.241 1.427.96 2.776 1.543 4.07 1.763.362.061 1.172.083 1.604.042l.215-.02-.13.121c-.072.067-.25.182-.396.255-1.192.598-3.306.787-6.195.554a33.683 33.683 0 0 1-.725-.065l-.203-.023-.274.24a3.38 3.38 0 0 1-.292.242c-.01 0-.017-.24-.018-.534zM24.261 34.056c-1.039-.153-2-.665-3-1.596-.273-.255-.786-.804-.786-.842 0-.01.152-.214.338-.45 1.416-1.81 3.085-3.472 4.556-4.534.307-.221.307-.222.291-.316-.314-1.867-1.311-3.488-2.757-4.483-.198-.136-.2-.138-.108-.138.173 0 .789.081 1.128.15 1.549.31 2.886 1.026 3.815 2.042.103.114.196.208.206.21.025.004.004-.313-.061-.916-.205-1.91-.749-3.682-1.518-4.945-.365-.6-.898-1.218-1.376-1.595l-.216-.17.216.016c.66.048 1.646.606 2.79 1.58.693.592 1.757 1.706 2.63 2.754l.387.464.236.016c.13.01.302.024.383.032l.147.016-.38.376-.38.376-.016.75-.032 1.438-.015.689.558.608c.532.578.555.608.48.615-.043.004-.275.017-.515.028a3.51 3.51 0 0 0-.453.038c-.01.01-.038.255-.064.546a6.582 6.582 0 0 1-.061.543 7.049 7.049 0 0 1-.51.115l-.495.101-.445.854-.445.854-.415 1.422c-.367 1.26-.421 1.423-.468 1.423-.129 0-.753-.145-1.048-.244-1.053-.353-2.003-.952-2.92-1.842l-.335-.323.052.185c.261.944.909 2.23 1.757 3.488l.315.466-.1.042c-.232.098-.53.15-.907.16a5.135 5.135 0 0 1-.459-.003zm29.575-2.354c-.002-.168-.049-.93-.058-.939-.005-.004-.254-.03-.553-.056l-.545-.048-.025-.124-.1-.488c-.04-.201-.087-.38-.104-.398a16.504 16.504 0 0 0-.838-.457l-.808-.424-1.442-.423-1.441-.423.008-.12c.014-.2.137-.714.25-1.048.06-.173.21-.522.333-.774a7.47 7.47 0 0 1 1.453-2.034c.192-.197.331-.358.309-.358-.023 0-.168.04-.322.09-.97.309-2.153.918-3.317 1.71l-.45.305-.057-.152a2.426 2.426 0 0 1-.152-.79c-.05-.952.36-2.013 1.169-3.027.212-.267.7-.778 1.037-1.086l.235-.215.277.21c1.778 1.342 3.7 3.263 4.747 4.744.213.301.144.284.687.166a7.113 7.113 0 0 0 2.875-1.369 6.532 6.532 0 0 0 1.207-1.31l.112-.172.01.09c.025.252-.132 1.199-.293 1.759-.265.924-.737 1.847-1.301 2.547a7.645 7.645 0 0 1-.486.52l-.31.304h.141c.231 0 .967-.077 1.444-.151 2.7-.42 4.756-1.4 5.855-2.793a8.54 8.54 0 0 1 .175-.218c.008-.007.007.079 0 .192-.051.702-.7 1.808-1.762 3-.6.675-1.67 1.68-2.705 2.541l-.337.28-.024.373-.024.373-.38-.376-.38-.376-.957-.018a98.108 98.108 0 0 0-1.455-.016l-.498.001-.585.54c-.322.296-.592.54-.6.54-.008 0-.015-.047-.015-.102zm-16.924-6.007c-.442-.599-.852-1.56-1.034-2.425a7.985 7.985 0 0 1-.174-1.56l-.017-.594-.106.188c-.476.84-.939 2.254-1.216 3.715a8.08 8.08 0 0 1-.105.51c-.021.02-.471-.234-.63-.356a3.906 3.906 0 0 1-.362-.341c-.603-.643-.971-1.537-1.128-2.743-.037-.286-.052-1.805-.018-1.839.048-.048 1.449-.197 2.433-.26.67-.041 2.33-.041 2.91 0 .741.054 1.56.153 1.96.236.066.014.087-.008.292-.318a7.676 7.676 0 0 0 .979-2.252c.206-.87.232-1.782.073-2.607l-.05-.256.134.148c.21.233.568.72.777 1.058.777 1.255 1.163 2.628 1.112 3.955l-.01.27.125-.135c.069-.074.235-.269.369-.432 1.545-1.883 2.492-3.856 2.69-5.607.03-.27.02-1.148-.017-1.379l-.015-.094.124.135c.226.248.457.765.607 1.363.196.784.27 1.476.288 2.714a23.389 23.389 0 0 1-.101 2.732 18.95 18.95 0 0 0-.052.65c0 .067.048.138.244.359l.244.275H46.167l-.928.894c-.51.491-.98.944-1.042 1.006l-.113.113-.033.804c-.018.442-.043.804-.056.804-.012 0-.165-.13-.339-.289a61.813 61.813 0 0 0-.374-.34l-.059-.052-.4.335c-.22.185-.413.344-.431.355-.02.012-.206-.096-.458-.264l-.426-.284-.93.293c-.869.275-.953.307-1.293.495-.807.448-2.152 1.183-2.19 1.198-.027.01-.085-.046-.183-.178z"/></svg>