<svg xmlns="http://www.w3.org/2000/svg" width="64" height="64"><path d="M28.002 62.868c-.161-.108-.638-.198-1.059-.2-.421-.001-1.258-.144-1.859-.316-.601-.172-1.446-.4-1.876-.507a7.696 7.696 0 0 1-1.337-.473c-.305-.154-.68-.28-.834-.28-.154 0-.433-.085-.62-.19-.187-.104-.753-.37-1.258-.59-.504-.22-.972-.488-1.039-.596-.066-.109-.25-.197-.408-.197-.377 0-2.547-1.378-4.393-2.788-1.995-1.525-5.167-4.764-6.161-6.29-.258-.397-.556-.776-.662-.841-.105-.066-.395-.538-.643-1.05-.249-.51-.509-.973-.578-1.027-.221-.173-1.733-3.296-3.062-7.601-1.328-4.305-1.231-9.12-.922-10.884.161-.92.112-2.817 1.228-6.68 1.116-3.864 2.199-4.936 2.91-6.057.361-.57.657-1.083.657-1.14 0-.13 1.478-2.126 2.247-3.034 1.338-1.58 3.26-4.165 8.884-7.21 5.624-3.045 9.108-3.468 12.693-3.828 2.838-.286 7.666.144 10.224.91.592.176 1.34.392 1.664.479.323.086.85.27 1.174.407 1.593.678 2.009.861 2.641 1.166 3.953 1.904 8.568 5.624 10.87 8.763.318.432.688.903.823 1.046.134.143.244.32.244.394 0 .073.22.39.49.704.269.315.489.66.489.768 0 .109.203.471.451.806.249.334.603.918.788 1.296.185.379.409.821.497.984.46.848.612 1.195.612 1.393 0 .12.117.498.261.838.428 1.016.744 1.949.942 2.783.768 3.235.82 3.688.896 7.866.079 4.352 0 5.184-.763 8.063-.473 1.786-.805 2.772-1.524 4.523-.488 1.189-1.325 2.83-1.715 3.362-.245.334-.445.664-.445.732 0 .119-1.167 1.902-1.375 2.1-.057.055-.406.497-.775.984-1.307 1.72-3.453 3.787-5.58 5.374-1.184.884-2.329 1.715-2.544 1.846-.473.29-3.952 1.997-4.5 2.21-.216.083-.725.296-1.132.474-.408.177-.909.322-1.114.322-.205 0-.42.076-.477.17-.057.092-.516.225-1.02.294-.503.07-1.011.206-1.13.303-.338.278-2.234.43-6.575.526-2.504.056-4.122.016-4.305-.107zm7.917-5.684c.964-.124 1.84-.312 1.947-.42.107-.107.416-.195.687-.195.429 0 1.229-.235 2.658-.781 1.073-.41 3.324-1.463 4.116-1.924 3.447-2.01 7.948-6.603 9.395-9.586.21-.432.448-.816.529-.852.08-.036.147-.217.147-.403 0-.186.102-.44.227-.566.287-.288 1.126-2.644 1.316-3.692.079-.437.218-.916.31-1.066.727-1.181.665-10.34-.075-11.082-.117-.118-.213-.546-.213-.95 0-.405-.081-.786-.18-.848-.1-.062-.243-.396-.319-.743-.076-.346-.206-.766-.288-.931-.083-.166-.31-.7-.505-1.187-.886-2.21-4.361-7.276-4.993-7.276-.102 0-.459.288-.793.64-.334.35-1.387 1.445-2.341 2.43-.954.987-1.735 1.873-1.735 1.97 0 .096.198.398.44.67 1.42 1.596 3.112 4.583 4.062 7.17 1.522 4.145 1.6 9.433.208 14.085-.19.631-1.345 3.036-2.049 4.26a5.936 5.936 0 0 1-.677.899c-.23.246-.418.545-.418.664s-.644.87-1.431 1.668c-2.25 2.284-5.212 4.227-7.864 5.161-.538.19-1.155.417-1.37.506-1.192.49-6.742 1.275-7.84 1.109a86.92 86.92 0 0 0-2.546-.313c-.976-.107-2.017-.288-2.312-.4a3.608 3.608 0 0 0-1.071-.205c-.295 0-.63-.095-.745-.211-.116-.116-.508-.183-.871-.148l-.661.064.893.442c.492.244 1.027.443 1.19.443.164 0 .36.063.437.14.228.229 1.949.842 2.372.846.215.002.744.13 1.174.286.43.156 1.223.294 1.761.306.538.012 1.155.101 1.37.198.484.216 3.712.122 6.058-.178zm-15.304-2.908a.752.752 0 0 0-.49 0c-.134.054-.024.099.245.099.27 0 .38-.045.245-.1zm-3.522-8.393c.726-.842 1.32-1.598 1.32-1.68 0-.082-.484-.761-1.077-1.509-1.068-1.347-3.227-5.343-3.227-5.974 0-.18-.076-.412-.17-.514-.485-.538-1.186-4.66-1.186-6.972 0-2.247.535-5.507 1.146-6.98.09-.217.324-.792.52-1.28.197-.486.56-1.214.807-1.618.246-.403.448-.783.448-.844 0-.228 1.67-2.37 2.723-3.492 2.058-2.193 5.974-4.743 8.371-5.45 3.222-.95 5.172-1.26 7.887-1.258 2.058.003 4.886.324 5.737.651.303.117.804.213 1.113.213.31 0 .618.088.684.196.14.227 1.275.271 1.267.05-.005-.147-.673-.467-2.343-1.121a18.007 18.007 0 0 1-1.22-.522c-.187-.097-.556-.176-.82-.176-.263 0-.727-.103-1.03-.23-1.944-.806-9.548-.806-11.9 0-.323.111-1.372.447-2.332.747-5.882 1.839-11.788 6.837-14.494 12.265-.405.811-.82 1.64-.923 1.842-1.03 2.015-1.884 6.396-1.884 9.662 0 1.825.065 2.475.53 5.26.176 1.048 1.005 3.731 1.361 4.402.107.202.43.898.719 1.547.703 1.585 2.507 4.287 3.672 5.501l.948.989 1.016-1.087a108.88 108.88 0 0 0 2.337-2.618zm18.443 1.255c.753-.136 1.523-.326 1.71-.422.186-.097.48-.176.654-.176.173 0 .593-.146.932-.323.34-.178.778-.404.974-.503 1.611-.81 2.19-1.223 3.59-2.574 1.372-1.322 3-3.532 3-4.071 0-.092.147-.462.327-.822.611-1.226.652-1.338.652-1.808 0-.258.132-.845.293-1.305.58-1.65.264-6.755-.514-8.306a1.771 1.771 0 0 1-.17-.658c0-.174-.133-.573-.294-.888-2.235-4.348-2.24-4.353-3.179-3.55-.334.287-1.055.902-1.6 1.368-.547.465-.994.937-.994 1.048 0 .111.3.571.667 1.022.884 1.087 2.268 3.805 2.268 4.453 0 .284.1.616.223.74.146.146.222 1.239.222 3.198 0 1.959-.076 3.05-.222 3.198-.123.123-.223.42-.223.66 0 .24-.124.687-.275.993-.152.306-.392.822-.535 1.147-.338.767-1.503 2.382-2.354 3.263-1.322 1.367-4.279 3.126-5.26 3.127-.274 0-.591.094-.705.208-.289.29-.966.354-3.932.37-1.59.007-2.593.089-2.593.21 0 .107.374.203.831.21.458.01 1.14.138 1.517.288.795.316 2.92.274 4.99-.097zm-13.643-5.665c.783-.729 1.422-1.439 1.419-1.579-.004-.14-.35-.715-.772-1.278-.42-.563-1-1.555-1.288-2.204a37.05 37.05 0 0 0-.724-1.555c-.81-1.522-.795-6.177.03-8.573 1.079-3.138 3.72-6.183 6.368-7.345.43-.188.935-.427 1.122-.53.187-.103.545-.187.795-.187s.625-.13.834-.289c.296-.225 1.062-.29 3.462-.295 1.695-.003 3.082-.08 3.082-.17 0-.283-2.559-.674-4.501-.689-1.825-.014-3.424.21-4.855.68-1.003.329-3.994 1.775-4.307 2.082-.142.14-.339.254-.436.254-.28 0-2.926 2.743-2.926 3.034 0 .143-.116.358-.259.477-.243.203-.84 1.343-1.576 3.008-.174.395-.317.899-.317 1.12 0 .22-.076.447-.168.504-.177.11-.472 2.761-.472 4.246 0 1.881.624 5.57 1.008 5.955.12.12.219.372.219.558 0 .374.6 1.61.831 1.714.081.036.147.188.147.338 0 .442 1.222 2.055 1.554 2.051.168-.001.946-.599 1.73-1.327z"/></svg>