<svg xmlns="http://www.w3.org/2000/svg" width="80" height="80"><path d="M40.001 0C17.911 0 0 17.908 0 39.999 0 62.089 17.91 80 40.001 80 62.092 80 80 62.09 80 39.999 80 17.908 62.092 0 40.001 0zm-.719 5.148l2.453.147L38.3 31.634a8.622 8.622 0 0 0-2.237.88l3.22-27.366zm14.277 2.07l2.182 1.132-14.17 23.193c-.448-.07-.892-.137-1.357-.137-.308 0-.599.06-.899.091l-.149-.048L53.56 7.22zm-26.324.53l7.61 25.58c-.63.508-1.207 1.082-1.675 1.748L24.932 8.613l2.303-.866zm38.675 7.519l1.532 1.92-22.61 15.583a8.471 8.471 0 0 0-1.368-.718l-.557-.504L65.91 15.267zm-51.089.895L32.31 36.587c-.332.761-.522 1.59-.623 2.445l-.023.028L13.07 17.889l1.751-1.727zm57.771 12.04l.62 2.377-25.75 4.808a8.62 8.62 0 0 0-1.62-1.842l26.75-5.343zm-65.493.094l24.497 11.647c0 .03-.01.058-.01.089 0 .714.111 1.396.273 2.06l-.058.273L6.203 30.586l.896-2.29zm41.04 8.334l26.442 5.963-.402 2.425-25.451-6.077c-.102-.807-.279-1.587-.59-2.31zm.675 3.665l22.244 16.588-1.354 2.057-21.308-16.307a8.536 8.536 0 0 0 .418-2.338zM5.42 42.866l26.924.674a8.558 8.558 0 0 0 1.36 2.098l.01.035-28.182-.35-.112-2.457zm42.484 1l13.703 24.428-2.073 1.332-12.963-23.809a8.565 8.565 0 0 0 1.333-1.951zm-13.68 2.359c.464.447.985.826 1.537 1.162l.266.364-25.89 11.144-1.1-2.202 25.188-10.468zm10.922.868l2.538 27.392-2.432.367-2.136-26.729a8.55 8.55 0 0 0 2.03-1.03zm-8.208.914c.403.166.831.289 1.265.39l.81.473-19.116 20.705-1.903-1.561 18.944-20.007zm5.163.43L33.16 74.832l-2.371-.653 9.017-25.56c.138.005.269.04.408.04.651 0 1.279-.088 1.888-.222z" fill="#231f20"/></svg>