<svg xmlns="http://www.w3.org/2000/svg" width="80" height="80"><path d="M39.999 0C17.909 0 0 17.908 0 39.999 0 62.089 17.91 80 39.999 80 62.09 80 80 62.09 80 39.999 80 17.908 62.091 0 39.999 0zM38.28 5.74l4.27 1.567-2.7 19.346L38.28 5.74zm8.193 1.567l2.063 1.366-5.665 16.73 3.602-18.096zM32.697 9.863l2.741.273 1.058 10.81-3.799-11.083zm-4.847.144l2.498.233 3.71 11.875-6.208-12.108zm23.25.304l2.14 1.412-6.696 12.546 4.555-13.958zm-26.53 1.05l7.051 13.72-9.46-13.173 2.41-.547zm30.966 1.997l1.422 1.597-6.527 7.11 5.105-8.707zM19.75 15.965l14.735 17.066-19.825-15.158 5.09-1.908zm40.176.319l1.166 3.075-15.476 11.976 14.31-15.051zm6.679 2.756l.635 2.119-16.112 9.01L66.604 19.04zm-49.191 4.558l6.894 5.3-9.544-4.452 2.65-.848zm49.403 1.27l.53 2.757-13.463 4.027 12.933-6.783zm-54.7 1.593l13.983 6.507-13.986-4.465.003-2.042zm-1.87 4.36l17.556 5.71-18.551-2.12.994-3.59zm56.783.198l-.531 2.012h-9.542l10.073-2.012zm5.51 5.087l-1.164 3.923-24.323-3.166 25.487-.757zM8.296 37.38l20.23 2.265-21.5 1.552 1.27-3.817zm43.466 3.073l18.71 3.044-.793 2.68-17.917-5.724zM22.61 42.785l-11.025 3.817.496-2.71 10.529-1.107zm13.677 1.696L17.84 64.625l-1.49-5.227 19.936-14.917zm20.1.07l11.488 4.49-1.03 2.25-10.458-6.74zm-30.168.21l-13.89 7.247.54-3.002 13.35-4.244zm4.237.993L14.659 56.885l-.354-2.802 16.15-8.329zm20.072 1.554l13.958 12.65-3.712.954-10.246-13.604zm5.368.23l9.069 5.786-2.283 1.546-6.786-7.332zm-8.197.208l11.07 16.167-3.827.603-7.243-16.77zm-2.739 1.227l7.654 16.922-2.529.443-5.125-17.365zm-8.038 1.023l-6.36 17.066-1.698-.848 8.058-16.218zm1.802 2.33L34.59 70.454l-1.38-2.118 5.513-16.008zm2.65.105v19.614l-2.969-1.166 2.969-18.448zm-9.648 1.804l-5.722 9.117-.744-1.696 6.466-7.42zm12.556 2.615l2.71 9.893-2.118.213-.592-10.106z" fill="#231f20"/></svg>