<svg xmlns="http://www.w3.org/2000/svg" width="80" height="80"><path d="M33.077 79.397C16.58 76.432 4.31 64.563.486 47.87-.16 45.053-.162 35.213.48 32.378c.53-2.335 1.353-5.25 1.787-6.338C7.32 13.404 17.37 4.4 29.91 1.278c8.552-2.13 16.72-1.599 24.63 1.6 6.012 2.431 10.345 5.346 14.537 9.777 8.303 8.778 12.356 21.53 10.465 32.927-.84 5.055-2.201 9.354-4.016 12.675l-1.25 2.283c-.916 1.672-4.172 5.803-6.066 7.698-4.843 4.847-11.249 8.582-17.658 10.297-6.002 1.606-11.756 1.89-17.475.862zm18.518-8.911c2.186-1.669 4.499-4.782 4.507-6.068.006-.892-.881-1.97-5.732-6.965-4.256-4.382-5.891-5.851-6.326-5.684-.732.281-.766-.012.497 4.375 1.255 4.358 2.05 7.166 2.442 8.627 2.084 7.763 2.025 7.69 4.612 5.715zm-8.746-.192c.294-.244.473-.715.397-1.047-.23-1.009-2.244-9.607-2.822-12.046-.84-3.546-.828-3.521-1.69-3.521-.603 0-2.11 1.506-6.026 6.029-2.872 3.316-5.393 6.207-5.601 6.425-1.14 1.193-1.886 2.437-1.72 2.867.175.458 3.65 1.378 6.458 1.71 2.707.321 10.47.027 11.004-.417zM28.241 59.225c3.165-3.147 5.91-6.001 6.102-6.343.448-.8-.458-1.209-1.554-.7-.978.454-1.984.845-10.972 4.262-5.882 2.236-7.41 2.95-7.496 3.5-.21 1.365 5.085 4.99 7.303 5 .647.002 2.306-1.432 6.617-5.719zm36.254 2.055c1.464-1.669 3.322-6.568 3.516-9.273.087-1.21.1-2.215.03-2.233-.072-.018-2.584-.245-5.584-.505-10.013-.867-16.257-1.27-16.746-1.083-.773.297-.207 1.153 1.707 2.58 2.055 1.534 2.22 1.662 9.577 7.403 3.04 2.372 5.733 4.313 5.986 4.313.252 0 .934-.541 1.514-1.202zm-49.733-6.7a905.526 905.526 0 0 1 8.11-3.018c9.902-3.632 10.198-3.761 10.315-4.52.087-.57-.128-.753-1.056-.9-.641-.1-2.67-.422-4.508-.714-1.839-.293-5.401-.857-7.917-1.253a729.516 729.516 0 0 1-7.71-1.26c-3.388-.58-3.486-.55-3.957 1.226-.274 1.034.412 5.895 1.172 8.306.49 1.554 1.658 3.345 2.182 3.345.102 0 1.618-.545 3.37-1.211zm55.392-10.36c1.63-1.745 3.016-7.83 2.37-10.403-.378-1.51-1.098-1.32-10.067 2.648-.87.386-4.829 2.09-8.796 3.79-5.824 2.493-7.213 3.219-7.213 3.767 0 .648.408.688 8.972.864 4.935.102 10.057.221 11.382.265 2.247.073 2.474.01 3.352-.93zm-36.066-1.384c.096-.154.065-.452-.067-.661-.486-.77-22.297-15.959-22.915-15.959-1.042 0-1.568 1.902-1.55 5.612.016 3.582.584 5.422 1.79 5.8.34.106 5.044 1.31 10.454 2.677 5.409 1.366 9.908 2.557 9.998 2.648.276.275 2.105.182 2.29-.117zm11.285-1.656c1.528-.871 2.845-1.584 2.928-1.584.082 0 .57-.294 1.083-.654.514-.36 1.647-1.048 2.517-1.53a844.49 844.49 0 0 0 5.63-3.177c2.226-1.265 4.68-2.655 5.454-3.09 4.54-2.544 6.861-3.966 6.861-4.202 0-.946-3.071-4.207-5.447-5.783-1.856-1.23-2.698-1.175-3.925.263-.56.655-3.563 3.943-6.674 7.306a2853.506 2853.506 0 0 0-8.875 9.635c-4.443 4.86-4.334 5.543.448 2.816zm-4.938-5.105c.328-1.259.729-2.685.889-3.169.16-.484.468-1.514.684-2.288.969-3.476 3.965-13.895 4.44-15.445.29-.942.527-2 .527-2.35 0-1.676-4.6-5.228-6.948-5.366l-1.32-.077-.092 15.492c-.05 8.52-.005 15.718.1 15.994.34.886 1.068-.296 1.72-2.79zm-5.929 2.007c.163-.425-12.425-23.46-13.37-24.466-.626-.666-1.315-.252-2.37 1.426-2.043 3.246-3.021 7.476-1.96 8.47a596.26 596.26 0 0 0 3.78 3.409c4.75 4.26 5.75 5.161 9.5 8.562 3.333 3.023 4.087 3.466 4.42 2.599zm13.683-7.816a3821.126 3821.126 0 0 0 6.967-8.708c3.16-3.954 3.29-4.544 1.72-7.84-1.203-2.53-2.305-3.649-3.098-3.148-.3.19-1.81 3.43-3.356 7.203-1.546 3.773-3.113 7.53-3.48 8.352-.37.82-.67 1.589-.67 1.707 0 .202-.157.58-1.515 3.666-1.985 4.509-.846 4.1 3.432-1.232zm-13.175-1.497c.003-4.519-1.107-20.66-1.446-21.02-.672-.712-6.023 2.612-6.469 4.02-.175.55 1.954 6.41 6.88 18.937.62 1.573 1.033.799 1.035-1.937z"/></svg>