<svg xmlns="http://www.w3.org/2000/svg" width="64pt" height="64pt" viewBox="0 0 64 64"><path d="M27.773 63.863c-.168-.11-.66-.203-1.093-.207-.434 0-1.297-.148-1.918-.324a60.641 60.641 0 0 0-1.938-.523c-.445-.11-1.066-.329-1.379-.489-.316-.16-.703-.289-.863-.289-.156 0-.445-.09-.637-.195-.195-.11-.777-.383-1.3-.61-.52-.226-1.004-.503-1.07-.617-.071-.113-.259-.203-.423-.203-.39 0-2.629-1.422-4.535-2.879-2.058-1.574-5.336-4.918-6.36-6.492-.265-.41-.573-.8-.683-.867-.11-.066-.406-.555-.664-1.082s-.523-1.008-.598-1.063c-.226-.18-1.789-3.402-3.16-7.847-1.37-4.442-1.27-9.414-.949-11.235.164-.949.113-2.906 1.266-6.894 1.152-3.988 2.27-5.094 3.004-6.254.37-.586.675-1.117.675-1.176 0-.133 1.528-2.195 2.32-3.133 1.384-1.629 3.368-4.296 9.173-7.441C22.445.903 26.043.465 29.742.09c2.93-.293 7.914.152 10.555.941.613.184 1.383.407 1.719.496.332.086.879.278 1.21.418 1.645.7 2.075.89 2.727 1.203 4.082 1.965 8.844 5.805 11.223 9.047.324.446.707.934.847 1.078.137.149.25.332.25.407 0 .078.23.406.508.73.278.324.504.68.504.793 0 .11.211.485.465.828.258.348.625.95.816 1.34.188.39.418.848.512 1.016.473.875.629 1.234.629 1.437 0 .125.125.516.27.867.445 1.047.77 2.008.972 2.872.793 3.34.848 3.808.926 8.12.082 4.493 0 5.352-.785 8.32-.488 1.845-.832 2.864-1.574 4.673-.504 1.226-1.368 2.918-1.77 3.469-.254.343-.46.683-.46.753 0 .125-1.204 1.965-1.419 2.172-.058.055-.422.512-.8 1.012-1.352 1.777-3.567 3.91-5.762 5.55-1.223.911-2.403 1.77-2.625 1.903-.489.3-4.078 2.063-4.645 2.281-.222.086-.75.309-1.168.493-.422.18-.937.332-1.152.332-.211 0-.434.078-.492.172-.059.097-.532.234-1.051.304-.52.074-1.043.215-1.168.313-.348.289-2.305.445-6.785.543-2.586.058-4.258.02-4.446-.11zm8.172-5.867c.996-.129 1.899-.32 2.012-.434.11-.109.43-.199.707-.199.441 0 1.27-.246 2.746-.808 1.106-.422 3.43-1.508 4.246-1.985 3.559-2.078 8.207-6.816 9.7-9.894.218-.45.46-.844.546-.883.082-.035.153-.223.153-.414 0-.191.105-.453.234-.586.293-.297 1.16-2.727 1.356-3.809.082-.453.226-.945.32-1.101.75-1.219.687-10.672-.074-11.442-.121-.12-.223-.562-.223-.98 0-.418-.082-.809-.188-.875-.101-.063-.25-.406-.328-.766-.078-.36-.21-.789-.297-.96-.085-.172-.32-.723-.52-1.227-.913-2.281-4.503-7.508-5.155-7.508-.106 0-.473.297-.817.656-.343.364-1.433 1.496-2.418 2.512-.984 1.02-1.789 1.934-1.789 2.031 0 .102.203.414.453.696 1.465 1.644 3.211 4.73 4.192 7.398 1.57 4.281 1.652 9.738.215 14.539-.196.652-1.387 3.137-2.114 4.398-.148.258-.46.672-.699.926-.238.258-.433.567-.433.688 0 .12-.665.898-1.477 1.722-2.32 2.356-5.379 4.364-8.117 5.329-.555.195-1.192.43-1.414.52-1.23.507-6.957 1.315-8.09 1.144a86.491 86.491 0 0 0-2.629-.32c-1.008-.114-2.082-.298-2.387-.415a3.711 3.711 0 0 0-1.105-.21c-.305 0-.653-.098-.77-.22-.12-.12-.523-.187-.898-.152l-.684.067.922.457c.508.25 1.059.457 1.23.457.169 0 .372.062.45.144.234.235 2.012.867 2.449.871.223.004.766.137 1.21.297.446.16 1.263.305 1.817.317.559.011 1.192.105 1.414.203.5.222 3.832.125 6.254-.184zm-15.797-3.004a.794.794 0 0 0-.503 0c-.141.059-.028.106.25.106.277 0 .39-.047.253-.106zm-3.636-8.66c.75-.871 1.363-1.652 1.363-1.734 0-.086-.5-.785-1.113-1.559-1.102-1.39-3.328-5.516-3.328-6.168 0-.184-.079-.422-.176-.531-.5-.555-1.227-4.809-1.227-7.195 0-2.32.555-5.684 1.184-7.207.094-.223.336-.817.539-1.317.203-.504.578-1.258.832-1.672.254-.418.46-.808.46-.87 0-.24 1.724-2.45 2.813-3.606 2.125-2.266 6.168-4.895 8.641-5.625 3.324-.98 5.34-1.301 8.14-1.301 2.126.004 5.044.336 5.922.672.313.12.833.222 1.149.222.32 0 .637.09.707.2.145.234 1.316.28 1.309.05-.004-.148-.696-.48-2.418-1.156-.5-.195-1.067-.437-1.262-.539-.192-.098-.574-.18-.844-.18-.273 0-.75-.105-1.062-.238-2.008-.832-9.86-.832-12.286 0-.335.117-1.418.461-2.41.774-6.07 1.894-12.168 7.054-14.96 12.66-.419.836-.844 1.691-.954 1.898-1.062 2.082-1.941 6.606-1.941 9.977 0 1.883.066 2.554.547 5.43.18 1.078 1.035 3.851 1.402 4.542.113.207.445.926.742 1.598.727 1.637 2.59 4.426 3.793 5.676l.977 1.023 1.05-1.125a114.43 114.43 0 0 0 2.41-2.699zm19.039 1.293c.777-.14 1.57-.336 1.765-.434.192-.101.496-.183.676-.183.176 0 .61-.149.961-.332.352-.184.805-.418 1.004-.52 1.664-.836 2.262-1.261 3.707-2.656 1.418-1.363 3.098-3.645 3.098-4.203 0-.094.152-.477.336-.848.632-1.265.672-1.383.672-1.867 0-.266.136-.871.304-1.348.598-1.703.274-6.972-.531-8.574a1.808 1.808 0 0 1-.176-.68c0-.18-.137-.59-.304-.914-2.305-4.488-2.31-4.496-3.282-3.664-.343.293-1.086.93-1.652 1.41-.563.481-1.024.97-1.024 1.083 0 .113.31.59.688 1.054.914 1.121 2.344 3.93 2.344 4.598 0 .293.101.637.226.762.153.152.23 1.28.23 3.3 0 2.024-.077 3.153-.23 3.305-.125.125-.226.434-.226.68 0 .246-.13.707-.285 1.023-.157.317-.407.852-.555 1.184-.348.793-1.55 2.46-2.43 3.37-1.363 1.411-4.414 3.227-5.43 3.227-.28 0-.609.098-.726.215-.297.301-.996.367-4.059.383-1.64.008-2.675.09-2.675.215 0 .113.386.21.859.219.469.008 1.176.14 1.562.297.82.324 3.016.28 5.153-.102zm-14.082-5.848c.808-.75 1.465-1.484 1.465-1.629-.004-.144-.364-.738-.797-1.32a14.368 14.368 0 0 1-1.332-2.273 35.98 35.98 0 0 0-.746-1.606c-.836-1.57-.82-6.375.03-8.847 1.114-3.243 3.84-6.383 6.575-7.582.441-.196.965-.442 1.156-.551.196-.106.563-.192.82-.192.258 0 .645-.132.864-.297.305-.234 1.094-.3 3.57-.304 1.75-.004 3.184-.082 3.184-.176 0-.293-2.64-.695-4.645-.71-1.886-.017-3.535.214-5.015.698-1.035.34-4.121 1.832-4.446 2.153-.144.144-.347.261-.449.261-.289 0-3.02 2.832-3.02 3.13 0 .148-.12.37-.265.495-.254.207-.867 1.383-1.629 3.102-.18.41-.328.93-.328 1.156 0 .23-.078.465-.172.524-.184.113-.488 2.847-.488 4.382 0 1.942.644 5.746 1.039 6.145a.94.94 0 0 1 .226.578c0 .383.622 1.66.86 1.77.082.035.152.191.152.347 0 .457 1.262 2.121 1.606 2.117.171 0 .976-.617 1.785-1.37zm0 0"/></svg>