<svg id="SVGRoot" width="80px" height="80px" version="1.1" viewBox="0 0 80 80" xmlns="http://www.w3.org/2000/svg"><path d="m38.598 79.975c-7.4494-0.26264-14.58-2.5548-20.76-6.6739-7.421-4.9457-13.005-12.251-15.802-20.673-2.0671-6.2247-2.5684-12.866-1.4643-19.401 0.81091-4.8001 2.5666-9.5448 5.087-13.748 3.939-6.5682 9.6368-11.85 16.473-15.269 1.9148-0.95779 3.8127-1.7281 5.8025-2.3552 8.9454-2.8189 18.635-2.4133 27.276 1.1418 6.6786 2.7477 12.535 7.2969 16.858 13.096 4.6261 6.2047 7.329 13.522 7.841 21.228 0.18981 2.8567 0.08159 5.6165-0.33313 8.4953-0.83721 5.8113-2.9891 11.417-6.2753 16.346-4.3829 6.5748-10.663 11.753-17.913 14.769-5.3156 2.2112-11.03 3.2474-16.79 3.0443zm2.0285-2.7563c2.2219-0.75395 3.9935-4.9942 4.4021-10.536 0.05697-0.77298 0.08238-2.0352 0.06108-3.0345-0.08964-4.2041-1.0587-8.1184-2.55-10.3-0.90299-1.3208-1.9391-1.9212-2.9468-1.7077-1.0284 0.21792-2.0459 1.2758-2.8481 2.9611-1.2741 2.6765-1.948 6.6026-1.8371 10.701 0.09817 3.6266 0.76494 6.8271 1.9041 9.14 0.78216 1.588 1.6984 2.547 2.6897 2.8154 0.29148 0.07891 0.83176 0.05997 1.1249-0.03945zm-0.84011-4.7721c-0.6369-0.1373-1.2062-0.89425-1.6375-2.1774-0.41328-1.2296-0.66544-2.7361-0.76546-4.5737-0.03898-0.71746-0.01578-2.4941 0.04167-3.1602 0.27-3.1409 0.99121-5.2796 1.9943-5.9137 0.31678-0.20026 0.71852-0.22388 1.0481-0.06161 0.37432 0.18428 0.76687 0.65849 1.0625 1.2836 0.54 1.1418 0.88506 2.7436 1.0623 4.9317 0.04482 0.55351 0.04466 2.8378-2.69e-4 3.3736-0.0887 1.0585-0.18806 1.8258-0.32735 2.5292-0.44698 2.2571-1.1968 3.6119-2.0897 3.7756-0.18654 0.03425-0.19794 0.03393-0.38851-0.0063zm-23.802-5.4051c2.5187-0.23529 5.8561-2.0634 9.1475-5.0107 0.51532-0.46143 1.8476-1.7937 2.3091-2.309 2.8036-3.1308 4.5953-6.3051 4.975-8.814 0.05682-0.37521 0.06329-1.0999 0.01263-1.3868-0.14772-0.83437-0.55258-1.4077-1.2172-1.7237-0.61823-0.29388-1.4259-0.34557-2.4486-0.1567-2.1727 0.40127-5.0252 1.975-7.742 4.2713-2.2967 1.9412-4.4542 4.3811-5.8899 6.6611-1.9373 3.0765-2.642 5.7563-1.908 7.2559 0.07181 0.14668 0.18908 0.33536 0.26064 0.4193 0.53105 0.62298 1.394 0.89673 2.5009 0.79333zm1.5735-3.7955c-0.41723-0.10869-0.72208-0.4243-0.81008-0.83872-0.40333-1.8994 2.7594-6.2879 6.624-9.1914 0.72383-0.54382 1.4457-0.99529 2.1335-1.3344 0.77817-0.38363 1.2841-0.54232 1.806-0.56646 0.51188-0.02367 0.81262 0.06958 1.0661 0.33059 0.24274 0.24998 0.32912 0.5409 0.30748 1.0356-0.02273 0.51977-0.17736 1.0203-0.5519 1.7868-1.1763 2.4073-3.9929 5.4885-6.7214 7.3528-0.98717 0.67453-1.9852 1.1737-2.7469 1.3739-0.30833 0.08104-0.88918 0.10795-1.1068 0.05126zm47.578 3.7571c1.0611-0.20302 1.6922-0.8513 1.8831-1.9343 0.08317-0.47222 0.03204-1.2868-0.12468-1.9851-0.71982-3.2072-3.6965-7.4871-7.5589-10.868-1.6353-1.4316-3.39-2.6375-5.0405-3.4641-1.5036-0.75308-2.6397-1.1139-3.8062-1.2088-0.67034-0.05454-1.2403 0.03522-1.7276 0.27205-0.45406 0.22067-0.72504 0.49141-0.94718 0.94633-0.07165 0.14667-0.15419 0.36269-0.18342 0.48003-0.30788 1.2347 0.07339 2.9704 1.1061 5.0359 0.87106 1.7422 2.1445 3.5632 3.7606 5.378 0.71605 0.80405 1.9639 2.0303 2.8378 2.7887 2.405 2.0871 4.9798 3.637 7.1073 4.2784 0.57709 0.17396 1.0516 0.26889 1.6535 0.33085 0.20225 0.02083 0.8276-0.0095 1.04-0.04971zm-3.6463-3.774c-2.0622-0.4348-5.4239-3.0271-7.8547-6.057-1.2111-1.5096-2.0605-3.0326-2.2731-4.0758-0.06313-0.30979-0.0707-0.74891-0.01641-0.95283 0.11505-0.43236 0.42634-0.72398 0.86465-0.81021 0.24487-0.04818 0.73306-0.01908 1.0449 0.06226 2.0457 0.53366 5.2109 2.9785 7.534 5.8193 1.258 1.5383 2.1055 2.989 2.4016 4.1106 0.08396 0.31813 0.116 0.82125 0.06707 1.0556-0.0909 0.4358-0.38895 0.74875-0.81991 0.861-0.2094 0.05454-0.65694 0.04842-0.94808-0.01294zm-45.158-18.135c3.2019-0.08792 5.9639-0.58525 8.2514-1.4858 1.8017-0.70927 3.0855-1.6569 3.5738-2.6379 0.18484-0.37138 0.22928-0.5595 0.22928-0.97047 0-0.41096-0.04451-0.59909-0.22928-0.97047-0.42266-0.8492-1.4726-1.6989-2.9111-2.3559-2.3182-1.0588-5.4801-1.6865-8.8807-1.7633-3.4312-0.07739-6.5128 0.33209-9.1409 1.2147-0.82168 0.27594-1.7954 0.71508-2.4227 1.0927-0.89184 0.53678-1.5731 1.1983-1.8836 1.8292-0.16506 0.33531-0.22744 0.5967-0.22744 0.9531 0 0.35586 0.062339 0.61775 0.22647 0.95115 1.1119 2.2589 5.9898 3.9862 11.695 4.1412 0.38871 0.01057 0.73074 0.02088 0.76008 0.02293 0.02935 0.0021 0.46137-0.0074 0.96009-0.02116zm-1.9202-2.4717c-3.359-0.16068-5.959-0.93591-6.6784-1.9913-0.26678-0.39137-0.26678-0.87101 0-1.2624 0.67533-0.99074 2.9141-1.7098 6.105-1.9608 0.68036-0.05352 2.8817-0.04517 3.5737 0.01357 3.294 0.27959 5.5097 1.0564 6.0305 2.1144 0.08507 0.17273 0.09011 0.19862 0.09011 0.46408 0 0.26546-0.0047 0.29135-0.09011 0.46408-0.55484 1.127-3.1171 1.9592-6.6172 2.1493-0.43726 0.02374-1.9853 0.02957-2.4136 0.0092zm50.845 2.4717c1.8074-0.05064 3.3007-0.2085 4.8271-0.51026 3.7272-0.73685 6.3956-2.161 7.0659-3.7711 0.11458-0.27515 0.16055-0.50803 0.16055-0.81277 0-0.30475-0.04593-0.53762-0.16055-0.81277-0.80058-1.923-4.4529-3.5566-9.1526-4.0937-1.8942-0.21647-3.987-0.25361-5.9808-0.10613-3.457 0.25571-6.671 1.1574-8.5657 2.4031-0.81339 0.53477-1.4236 1.1822-1.6742 1.7764-0.50353 1.1939 0.08964 2.4046 1.6924 3.4539 2.1853 1.4308 5.9699 2.3611 10.054 2.4716 0.3887 0.01057 0.73674 0.02082 0.7734 0.02292 0.03661 0.0021 0.46871-0.0074 0.9601-0.02123zm-1.9202-2.47c-0.08065-0.0054-0.3447-0.02249-0.58673-0.03813-0.83377-0.05386-1.7647-0.17275-2.5159-0.32131-2.0202-0.39952-3.3247-1.0451-3.6906-1.8265-0.06629-0.14142-0.07402-0.18777-0.07402-0.43817 0-0.24897 0.0079-0.29718 0.0726-0.43476 0.37607-0.80264 1.7498-1.467 3.8352-1.8549 3.1453-0.585 7.1285-0.43164 9.6936 0.3732 1.6687 0.52357 2.5313 1.2768 2.3858 2.0831-0.21636 1.199-2.4846 2.0975-6.0795 2.4082-0.46229 0.03996-2.6456 0.07529-3.0403 0.04919zm-33.056-10.172c0.55438-0.06298 1.0563-0.25427 1.3868-0.52849 1.5199-1.2612 0.84614-4.5935-1.702-8.4178-2.5131-3.7717-6.4735-7.4064-10.087-9.2581-1.3832-0.70873-2.4533-1.0854-3.5588-1.2527-0.37457-0.05669-1.0997-0.06335-1.3868-0.01278-0.82277 0.14502-1.3864 0.53773-1.7073 1.1895-0.42567 0.86463-0.37623 2.1189 0.14488 3.6759 0.64893 1.9388 1.9934 4.1925 3.7869 6.3479 1.1244 1.3514 2.7175 2.9442 4.0663 4.0658 3.3568 2.7912 6.9089 4.4347 9.0573 4.1906zm-3.392-3.8145c-0.73549-0.1545-1.7166-0.626-2.7953-1.3433-1.6015-1.065-3.4448-2.7616-4.8409-4.4557-1.5819-1.9194-2.5331-3.7405-2.5331-4.8493 0-0.4453 0.09816-0.72298 0.3378-0.95569 0.25054-0.24328 0.54202-0.3297 1.0357-0.30703 0.5206 0.02391 1.0272 0.18024 1.7868 0.55143 3.4967 1.7086 7.9443 6.5312 8.7227 9.4584 0.08538 0.32074 0.11552 0.80303 0.06597 1.0546-0.08617 0.43759-0.37932 0.74918-0.81461 0.86562-0.19425 0.05197-0.67216 0.04258-0.96507-0.01895zm24.043 3.7764c2.4778-0.37355 5.6189-2.1459 8.7647-4.9455 0.49906-0.44413 1.8881-1.8332 2.3505-2.3506 2.8034-3.1367 4.5795-6.287 4.9613-8.7993 0.06313-0.41525 0.06329-1.1276 3.63e-4 -1.4478-0.107-0.5444-0.29178-0.91168-0.62822-1.2481-0.33644-0.33643-0.70374-0.5213-1.2481-0.62822-0.49874-0.09796-1.3066-0.05356-2.0462 0.11243-4.0827 0.91625-9.7309 5.4199-13.059 10.412-1.9254 2.8886-2.8144 5.5726-2.3966 7.2359 0.07086 0.28235 0.27966 0.70778 0.44875 0.91453 0.33658 0.41156 0.92058 0.69639 1.6035 0.78205 0.26542 0.03328 0.90614 0.01389 1.2487-0.03769zm1.2019-3.7582c-0.41854-0.12094-0.71104-0.43028-0.80028-0.84634-0.0475-0.22144-0.0142-0.76184 0.06408-1.0634 0.19871-0.7587 0.69944-1.7611 1.3715-2.7455 1.2811-1.8765 3.2245-3.892 5.1416-5.3323 1.2743-0.95738 2.4869-1.6162 3.427-1.862 0.30702-0.08025 0.81464-0.1106 1.046-0.06253 0.45272 0.09409 0.782 0.42512 0.87699 0.88165 0.04687 0.22521 0.01578 0.73701-0.06376 1.0401-0.66059 2.527-4.1238 6.5743-7.5131 8.7803-0.85424 0.55598-1.7391 0.97889-2.4269 1.16-0.31021 0.08167-0.91976 0.10885-1.1231 0.05008zm-11.731-0.2941c1.1992-0.25423 2.3465-1.6073 3.2131-3.7891 0.66558-1.6759 1.1414-3.8241 1.3586-6.1338 0.10842-1.1526 0.1463-2.3526 0.11726-3.7127-0.09296-4.3557-1.1313-8.3823-2.7159-10.531-0.27377-0.37132-0.80812-0.89878-1.1113-1.0969-0.57556-0.37621-1.1524-0.49343-1.7377-0.35311-1.7132 0.41071-3.2747 3.0899-4.072 6.9869-0.59566 2.9114-0.72149 6.3818-0.34426 9.494 0.34605 2.8549 1.0888 5.3536 2.0847 7.0138 0.31474 0.52467 0.57527 0.86476 0.95188 1.2426 0.49425 0.49585 0.88812 0.74184 1.3882 0.86693 0.22884 0.05726 0.62985 0.06317 0.8674 0.01278zm-0.70738-4.8517c-0.23099-0.0763-0.34334-0.1515-0.59569-0.3987-0.72728-0.71244-1.3262-2.5227-1.5899-4.8059-0.13115-1.1359-0.18374-2.8352-0.12373-4.0004 0.15608-3.0277 0.81745-5.4474 1.7379-6.3587 0.55346-0.54799 1.2069-0.54736 1.756 0.00174 0.8171 0.81708 1.4258 2.778 1.6669 5.3703 0.14172 1.523 0.12121 3.4396-0.05303 4.9737-0.25791 2.2708-0.87071 4.1188-1.6024 4.8324-0.32491 0.31686-0.49979 0.4019-0.84938 0.41305-0.14788 0.0047-0.28102-0.0058-0.3467-0.02759z" stroke-width=".026669"/></svg>
