<svg xmlns="http://www.w3.org/2000/svg" width="80" height="80"><path d="M40 0A40 40 0 0 0 0 40a40 40 0 0 0 40 40 40 40 0 0 0 40-40A40 40 0 0 0 40 0zm0 5.746a2.186 2.186 0 0 1 2.186 2.186A2.186 2.186 0 0 1 40 10.117a2.186 2.186 0 0 1-2.186-2.185A2.186 2.186 0 0 1 40 5.746zm-6.688.701a2.186 2.186 0 0 1 2.159 1.73 2.186 2.186 0 0 1-1.684 2.594 2.186 2.186 0 0 1-2.592-1.683 2.186 2.186 0 0 1 1.684-2.594 2.186 2.186 0 0 1 .434-.047zm13.44.002a2.186 2.186 0 0 1 .37.045 2.186 2.186 0 0 1 1.683 2.594 2.186 2.186 0 0 1-2.592 1.683 2.186 2.186 0 0 1-1.684-2.593 2.186 2.186 0 0 1 2.223-1.729zM26.916 8.52a2.186 2.186 0 0 1 2.037 1.297 2.186 2.186 0 0 1-1.107 2.885 2.186 2.186 0 0 1-2.885-1.107 2.186 2.186 0 0 1 1.107-2.887 2.186 2.186 0 0 1 .848-.187zm26.014.002a2.186 2.186 0 0 1 1.002.186 2.186 2.186 0 0 1 1.107 2.887 2.186 2.186 0 0 1-2.885 1.107 2.186 2.186 0 0 1-1.107-2.885 2.186 2.186 0 0 1 1.883-1.295zm-31.84 3.35a2.186 2.186 0 0 1 1.83.9 2.186 2.186 0 0 1-.484 3.053 2.186 2.186 0 0 1-3.053-.482 2.186 2.186 0 0 1 .484-3.053 2.186 2.186 0 0 1 1.223-.418zm37.666.002a2.186 2.186 0 0 1 1.377.416 2.186 2.186 0 0 1 .484 3.053 2.186 2.186 0 0 1-3.053.482 2.186 2.186 0 0 1-.484-3.053 2.186 2.186 0 0 1 1.676-.898zm-42.67 4.484a2.186 2.186 0 0 1 1.545.561 2.186 2.186 0 0 1 .162 3.086 2.186 2.186 0 0 1-3.086.162 2.186 2.186 0 0 1-.162-3.086 2.186 2.186 0 0 1 1.54-.723zm47.674 0a2.186 2.186 0 0 1 1.695.723 2.186 2.186 0 0 1-.162 3.086 2.186 2.186 0 0 1-3.086-.162 2.186 2.186 0 0 1 .162-3.086 2.186 2.186 0 0 1 1.39-.56zM40 17.747a2.186 2.186 0 0 1 2.186 2.185A2.186 2.186 0 0 1 40 22.117a2.186 2.186 0 0 1-2.186-2.185A2.186 2.186 0 0 1 40 17.746zm6.5.97a2.186 2.186 0 0 1 .58.105 2.186 2.186 0 0 1 1.404 2.754 2.186 2.186 0 0 1-2.754 1.403 2.186 2.186 0 0 1-1.404-2.754 2.186 2.186 0 0 1 2.174-1.508zm-12.922.088a2.186 2.186 0 0 1 2.11 1.51 2.186 2.186 0 0 1-1.403 2.753 2.186 2.186 0 0 1-2.754-1.402 2.186 2.186 0 0 1 1.403-2.754 2.186 2.186 0 0 1 .644-.107zm18.527 2.812a2.186 2.186 0 0 1 1.377.416 2.186 2.186 0 0 1 .483 3.053 2.186 2.186 0 0 1-3.053.482 2.186 2.186 0 0 1-.482-3.052 2.186 2.186 0 0 1 1.675-.899zm15.616.164a2.186 2.186 0 0 1 1.943 1.092 2.186 2.186 0 0 1-.799 2.986 2.186 2.186 0 0 1-2.986-.8 2.186 2.186 0 0 1 .8-2.985 2.186 2.186 0 0 1 1.042-.293zm-55.596.002a2.186 2.186 0 0 1 1.195.291 2.186 2.186 0 0 1 .801 2.985 2.186 2.186 0 0 1-2.986.8 2.186 2.186 0 0 1-.8-2.986 2.186 2.186 0 0 1 1.79-1.09zm15.672.004a2.186 2.186 0 0 1 1.83.9 2.186 2.186 0 0 1-.484 3.053 2.186 2.186 0 0 1-3.053-.484 2.186 2.186 0 0 1 .484-3.053 2.186 2.186 0 0 1 1.223-.416zm28.951 4.377a2.186 2.186 0 0 1 1.83.9 2.186 2.186 0 0 1-.482 3.053 2.186 2.186 0 0 1-3.055-.484 2.186 2.186 0 0 1 .484-3.053 2.186 2.186 0 0 1 1.223-.416zm-33.531.236a2.186 2.186 0 0 1 1.377.416 2.186 2.186 0 0 1 .484 3.053 2.186 2.186 0 0 1-3.053.485 2.186 2.186 0 0 1-.484-3.053 2.186 2.186 0 0 1 1.676-.9zm47.25 1.504a2.186 2.186 0 0 1 2.11 1.512 2.186 2.186 0 0 1-1.403 2.754 2.186 2.186 0 0 1-2.754-1.404 2.186 2.186 0 0 1 1.402-2.754 2.186 2.186 0 0 1 .645-.108zm-60.871.002a2.186 2.186 0 0 1 .582.106 2.186 2.186 0 0 1 1.402 2.754 2.186 2.186 0 0 1-2.754 1.404 2.186 2.186 0 0 1-1.402-2.754 2.186 2.186 0 0 1 2.172-1.51zM40 29.746a2.186 2.186 0 0 1 2.186 2.186A2.186 2.186 0 0 1 40 34.117a2.186 2.186 0 0 1-2.186-2.185A2.186 2.186 0 0 1 40 29.746zm5.05 1.58a2.186 2.186 0 0 1 1.378.414 2.186 2.186 0 0 1 .484 3.053 2.186 2.186 0 0 1-3.053.484 2.186 2.186 0 0 1-.484-3.052 2.186 2.186 0 0 1 1.676-.899zm-10.2.17a2.186 2.186 0 0 1 1.83.899 2.186 2.186 0 0 1-.485 3.054 2.186 2.186 0 0 1-3.052-.484 2.186 2.186 0 0 1 .484-3.053 2.186 2.186 0 0 1 1.223-.416zm24.91.418a2.186 2.186 0 0 1 2.111 1.51 2.186 2.186 0 0 1-1.404 2.754 2.186 2.186 0 0 1-2.754-1.403 2.186 2.186 0 0 1 1.402-2.754 2.186 2.186 0 0 1 .645-.107zm-39.256.28a2.186 2.186 0 0 1 .582.105 2.186 2.186 0 0 1 1.402 2.754 2.186 2.186 0 0 1-2.754 1.402 2.186 2.186 0 0 1-1.402-2.754 2.186 2.186 0 0 1 2.172-1.508zM8.182 34.462a2.186 2.186 0 0 1 .154.012 2.186 2.186 0 0 1 1.945 2.402 2.186 2.186 0 0 1-2.402 1.945 2.186 2.186 0 0 1-1.945-2.402 2.186 2.186 0 0 1 2.248-1.957zm63.7 0a2.186 2.186 0 0 1 2.184 1.957 2.186 2.186 0 0 1-1.945 2.402 2.186 2.186 0 0 1-2.402-1.945 2.186 2.186 0 0 1 1.945-2.402 2.186 2.186 0 0 1 .219-.012zm-23.534 1.16a2.186 2.186 0 0 1 2.109 1.51 2.186 2.186 0 0 1-1.402 2.754 2.186 2.186 0 0 1-2.754-1.403 2.186 2.186 0 0 1 1.402-2.755 2.186 2.186 0 0 1 .645-.106zm-16.649.28a2.186 2.186 0 0 1 .799.103A2.186 2.186 0 0 1 33.9 38.76a2.186 2.186 0 0 1-2.754 1.404 2.186 2.186 0 0 1-1.402-2.754 2.186 2.186 0 0 1 1.955-1.508zm29.15 2.402a2.186 2.186 0 0 1 2.186 2.185 2.186 2.186 0 0 1-2.185 2.186 2.186 2.186 0 0 1-2.186-2.186 2.186 2.186 0 0 1 2.186-2.185zm-41.408.29a2.186 2.186 0 0 1 2.186 2.186 2.186 2.186 0 0 1-2.186 2.186 2.186 2.186 0 0 1-2.185-2.186 2.186 2.186 0 0 1 2.185-2.185zm29.123 2.409a2.186 2.186 0 0 1 .58.105 2.186 2.186 0 0 1 1.403 2.754 2.186 2.186 0 0 1-2.754 1.403 2.186 2.186 0 0 1-1.402-2.754 2.186 2.186 0 0 1 2.173-1.508zm-40.466.162a2.186 2.186 0 0 1 2.183 1.957 2.186 2.186 0 0 1-1.945 2.402 2.186 2.186 0 0 1-2.402-1.945 2.186 2.186 0 0 1 1.945-2.402 2.186 2.186 0 0 1 .219-.012zm63.869.002a2.186 2.186 0 0 1 .154.01 2.186 2.186 0 0 1 1.945 2.402 2.186 2.186 0 0 1-2.402 1.945 2.186 2.186 0 0 1-1.945-2.402 2.186 2.186 0 0 1 2.248-1.955zm-40.086.111a2.186 2.186 0 0 1 2.11 1.51 2.186 2.186 0 0 1-1.403 2.754 2.186 2.186 0 0 1-2.754-1.402 2.186 2.186 0 0 1 1.402-2.754 2.186 2.186 0 0 1 .645-.108zm27.877 3.434a2.186 2.186 0 0 1 .799.103 2.186 2.186 0 0 1 1.404 2.754 2.186 2.186 0 0 1-2.754 1.405 2.186 2.186 0 0 1-1.404-2.754 2.186 2.186 0 0 1 1.955-1.508zm-39.29.275a2.186 2.186 0 0 1 2.11 1.51 2.186 2.186 0 0 1-1.402 2.754 2.186 2.186 0 0 1-2.754-1.404 2.186 2.186 0 0 1 1.402-2.754 2.186 2.186 0 0 1 .645-.106zm24.85.42a2.186 2.186 0 0 1 1.83.9 2.186 2.186 0 0 1-.484 3.053 2.186 2.186 0 0 1-3.053-.484 2.186 2.186 0 0 1 .485-3.053 2.186 2.186 0 0 1 1.222-.416zm-10.263.172a2.186 2.186 0 0 1 1.377.416 2.186 2.186 0 0 1 .484 3.053 2.186 2.186 0 0 1-3.053.482 2.186 2.186 0 0 1-.484-3.052 2.186 2.186 0 0 1 1.676-.899zm5.236 1.574a2.186 2.186 0 0 1 2.186 2.186 2.186 2.186 0 0 1-2.186 2.185 2.186 2.186 0 0 1-2.186-2.185 2.186 2.186 0 0 1 2.186-2.186zm-30.82.57a2.186 2.186 0 0 1 2.11 1.51 2.186 2.186 0 0 1-1.403 2.754 2.186 2.186 0 0 1-2.754-1.404 2.186 2.186 0 0 1 1.402-2.754 2.186 2.186 0 0 1 .645-.105zm60.904.003a2.186 2.186 0 0 1 .799.103 2.186 2.186 0 0 1 1.402 2.754 2.186 2.186 0 0 1-2.754 1.404 2.186 2.186 0 0 1-1.402-2.754 2.186 2.186 0 0 1 1.955-1.507zm-13.486 2.777a2.186 2.186 0 0 1 1.377.416 2.186 2.186 0 0 1 .484 3.053 2.186 2.186 0 0 1-3.053.484 2.186 2.186 0 0 1-.484-3.053 2.186 2.186 0 0 1 1.676-.9zm-33.47.234a2.186 2.186 0 0 1 1.831.9 2.186 2.186 0 0 1-.484 3.053 2.186 2.186 0 0 1-3.053-.482 2.186 2.186 0 0 1 .484-3.053 2.186 2.186 0 0 1 1.223-.418zM12.179 53.85a2.186 2.186 0 0 1 1.943 1.091 2.186 2.186 0 0 1-.8 2.985 2.186 2.186 0 0 1-2.985-.799 2.186 2.186 0 0 1 .799-2.986 2.186 2.186 0 0 1 1.043-.291zm55.49.002a2.186 2.186 0 0 1 1.197.289 2.186 2.186 0 0 1 .8 2.986 2.186 2.186 0 0 1-2.985.799 2.186 2.186 0 0 1-.801-2.985 2.186 2.186 0 0 1 1.789-1.09zm-15.297 1.263a2.186 2.186 0 0 1 1.83.9 2.186 2.186 0 0 1-.484 3.053 2.186 2.186 0 0 1-3.053-.482 2.186 2.186 0 0 1 .484-3.053 2.186 2.186 0 0 1 1.223-.418zm-24.369.174a2.186 2.186 0 0 1 1.377.414 2.186 2.186 0 0 1 .482 3.053 2.186 2.186 0 0 1-3.052.484 2.186 2.186 0 0 1-.483-3.053 2.186 2.186 0 0 1 1.676-.898zm18.648 2.809a2.186 2.186 0 0 1 2.11 1.51 2.186 2.186 0 0 1-1.403 2.753 2.186 2.186 0 0 1-2.753-1.404 2.186 2.186 0 0 1 1.402-2.754 2.186 2.186 0 0 1 .644-.105zm-12.888.091a2.186 2.186 0 0 1 .8.104 2.186 2.186 0 0 1 1.403 2.754 2.186 2.186 0 0 1-2.754 1.404 2.186 2.186 0 0 1-1.404-2.754 2.186 2.186 0 0 1 1.955-1.508zm6.529.965a2.186 2.186 0 0 1 2.186 2.186 2.186 2.186 0 0 1-2.186 2.185 2.186 2.186 0 0 1-2.186-2.185 2.186 2.186 0 0 1 2.186-2.186zm-24.193.12a2.186 2.186 0 0 1 1.695.722 2.186 2.186 0 0 1-.162 3.086 2.186 2.186 0 0 1-3.086-.162 2.186 2.186 0 0 1 .162-3.086 2.186 2.186 0 0 1 1.39-.56zm47.65 0a2.186 2.186 0 0 1 1.545.56 2.186 2.186 0 0 1 .162 3.086 2.186 2.186 0 0 1-3.086.162 2.186 2.186 0 0 1-.162-3.086 2.186 2.186 0 0 1 1.541-.723zm-4.96 4.484a2.186 2.186 0 0 1 1.83.9 2.186 2.186 0 0 1-.485 3.053 2.186 2.186 0 0 1-3.053-.482 2.186 2.186 0 0 1 .484-3.053 2.186 2.186 0 0 1 1.223-.418zm-37.73.002a2.186 2.186 0 0 1 1.378.416 2.186 2.186 0 0 1 .484 3.053 2.186 2.186 0 0 1-3.053.482 2.186 2.186 0 0 1-.484-3.053 2.186 2.186 0 0 1 1.676-.898zm31.944 3.35a2.186 2.186 0 0 1 2.037 1.296 2.186 2.186 0 0 1-1.107 2.887 2.186 2.186 0 0 1-2.885-1.11 2.186 2.186 0 0 1 1.107-2.884 2.186 2.186 0 0 1 .848-.19zm-26.158.003a2.186 2.186 0 0 1 1.002.186 2.186 2.186 0 0 1 1.107 2.885 2.186 2.186 0 0 1-2.885 1.109 2.186 2.186 0 0 1-1.107-2.887 2.186 2.186 0 0 1 1.883-1.293zm19.802 2.069a2.186 2.186 0 0 1 2.159 1.73 2.186 2.186 0 0 1-1.684 2.594 2.186 2.186 0 0 1-2.592-1.684 2.186 2.186 0 0 1 1.684-2.593 2.186 2.186 0 0 1 .433-.047zm-13.228.002a2.186 2.186 0 0 1 .37.045 2.186 2.186 0 0 1 1.683 2.593 2.186 2.186 0 0 1-2.592 1.684 2.186 2.186 0 0 1-1.684-2.594 2.186 2.186 0 0 1 2.223-1.728zm6.582.699a2.186 2.186 0 0 1 2.186 2.185A2.186 2.186 0 0 1 40 74.254a2.186 2.186 0 0 1-2.186-2.186A2.186 2.186 0 0 1 40 69.883z"/></svg>