<svg xmlns="http://www.w3.org/2000/svg" width="64" height="64"><path d="M50.428 51.667L38.146 27.664l3.215 17.824-7.049-3.517c.13 1.596.258 3.193.387 4.789l-12.966 4.996 28.695-.09zm-38.084-.895L36.39 38.5l-17.824 3.215 3.516-7.047-4.787.386-4.996-12.965.046 28.684zm1.075-38.48l12.272 24.043-3.205-17.865 7.039 3.558-.388-4.788 12.967-4.996-28.685.048zm38.227 1.41L27.602 25.975l17.824-3.216-3.517 7.048 4.788-.387 5.005 12.924-.056-28.642zM31.925 1C42.467.907 52.816 6.628 58.312 15.63c6.232 9.76 6.25 23.079-.04 32.815-5.597 9.182-16.29 14.924-27.034 14.532-11.09-.127-21.761-6.834-26.75-16.727-4.951-9.313-4.56-21.148.918-30.152 5.275-8.91 15.234-14.84 25.607-15.064L31.925 1z" fill="#010101" fill-rule="evenodd"/></svg>