<svg xmlns="http://www.w3.org/2000/svg" width="64" height="64"><path d="M26.455 62.651c-10.261-1.96-18.577-8.38-22.856-17.645C1.582 40.636 1 37.73 1 32.011c0-4.266.12-5.513.748-7.827C4.14 15.389 9.975 8.244 18.052 4.22c13.222-6.584 29.611-2.805 38.486 8.875C70.124 30.976 61.27 56.45 39.48 62.179c-3.255.855-9.78 1.092-13.024.472zm5.8-4.976c2.795-.83 4.693-1.934 6.939-4.035 1.616-1.513 2.367-2.554 3.367-4.667 1.244-2.629 1.288-2.836 1.288-6.158 0-2.995-.116-3.722-.9-5.65-1.663-4.091-1.053-7.118 1.434-7.118 2.237 0 4.2 2.07 5.665 5.975 1.535 4.088 1.448 6.66-.38 11.162-1.107 2.725-2.987 5.384-5.724 8.095-2.056 2.037-2.218 2.282-1.376 2.082 3.377-.804 6.155-3.025 8.84-7.067 3.844-5.784 4.582-11.39 2.422-18.37-.91-2.944-2.847-5.32-5.397-6.624-1.72-.879-2.235-.982-4.89-.98-2.505 0-3.221.128-4.602.818-1.372.684-1.795 1.129-2.613 2.747-1.417 2.802-1.392 5.36.075 7.588 2.188 3.325 2.836 5.038 2.84 7.506.004 3.09-.9 4.883-4.05 8.04-3.475 3.483-5.326 4.329-9.832 4.494-2.315.085-4.229-.042-5.867-.388-1.338-.282-2.493-.453-2.566-.38-.34.341 2.83 2.006 5.097 2.677 3.117.923 7.6 1.034 10.23.253zM28.01 50.72c2.208-.964 4.081-2.787 5.2-5.06 1.96-3.983 1.776-5.883-.844-8.714-2.19-2.368-3.296-2.794-6.589-2.545-5.967.451-9.776-2.195-11.625-8.078-.544-1.731-.733-3.133-.733-5.442 0-2.72.115-3.355.914-5.064.948-2.025 2.868-4.8 4.591-6.636.547-.582.926-1.127.842-1.211-.084-.084-.805.171-1.602.568-2.845 1.414-6.8 6.196-8.105 9.8-.796 2.198-.922 7.43-.24 9.952 1.033 3.817 4.296 7.811 7.812 9.562.845.42 2.708.97 4.14 1.22 5.747 1.004 7.762 3.585 4.652 5.959-1.52 1.16-4.67 1.383-8.038.568-3.184-.77-4.48-1.488-6.618-3.661-3.002-3.052-5.54-8.171-6.248-12.604-.44-2.75-1.102-.757-1.093 3.292.007 3.023 1.249 6.415 3.701 10.105 2.013 3.03 3.924 4.666 7.582 6.492 4.88 2.435 9.003 2.937 12.301 1.497zm31.476-21.327c-1.181-8.921-8.35-15.715-16.584-15.715-5.667 0-9.757 2.159-12.92 6.819-1.427 2.101-3.41 3.658-4.662 3.658-1.402 0-2.412-1.416-2.412-3.382 0-3.22 3.621-8.474 7.034-10.204 3.793-1.924 9.958-2.477 15.02-1.348 1.332.297 2.477.484 2.545.416.235-.236-2.202-1.896-3.975-2.708-3.224-1.477-9.991-1.436-14.523.089-3.636 1.223-8.946 5.86-10.734 9.374-1.121 2.204-1.411 5.7-.656 7.916.715 2.102 2.562 4.515 4.374 5.716 1.868 1.238 3.78 1.328 6.458.302 2.304-.882 3.446-2.166 4.588-5.156 1.036-2.713 3.082-4.997 5.41-6.039 1.903-.852 5.814-.885 9.088-.075 4.726 1.17 7.748 4.01 10.393 9.768 1.322 2.877 1.889 3.085 1.556.569z"/></svg>