<svg xmlns="http://www.w3.org/2000/svg" width="64pt" height="64pt" viewBox="0 0 64 64"><path d="M33.484 55.871c12.024-.734 21.649-10.363 22.387-22.387h-4.539c-.723 9.524-8.328 17.13-17.848 17.844zm22.387-25.355C55.133 18.492 45.508 8.867 33.484 8.129v4.539c9.52.723 17.125 8.328 17.848 17.848zM30.52 8.129C18.488 8.867 8.863 18.492 8.133 30.516h4.539c.719-9.52 8.32-17.125 17.848-17.848zM8.133 33.484c.73 12.024 10.355 21.653 22.387 22.387v-4.543c-9.524-.715-17.13-8.32-17.848-17.844zM32 64c17.668 0 32-14.332 32-32S49.668 0 32 0 0 14.332 0 32s14.332 32 32 32" fill-rule="evenodd"/></svg>