<?xml version="1.0" encoding="UTF-8" standalone="no"?>
<svg
   width="64pt"
   height="64pt"
   viewBox="0 0 64 64"
   version="1.1"
   id="svg4"
   sodipodi:docname="gobo00131.svg"
   inkscape:version="1.1.2 (b8e25be833, 2022-02-05)"
   inkscape:export-filename="C:\Users\tahj\privat\Nextcloud\Transfer\QLCplus\gobo6.png"
   inkscape:export-xdpi="72"
   inkscape:export-ydpi="72"
   xmlns:inkscape="http://www.inkscape.org/namespaces/inkscape"
   xmlns:sodipodi="http://sodipodi.sourceforge.net/DTD/sodipodi-0.dtd"
   xmlns="http://www.w3.org/2000/svg"
   xmlns:svg="http://www.w3.org/2000/svg">
  <defs
     id="defs8" />
  <sodipodi:namedview
     id="namedview6"
     pagecolor="#ffffff"
     bordercolor="#666666"
     borderopacity="1.0"
     inkscape:pageshadow="2"
     inkscape:pageopacity="0.0"
     inkscape:pagecheckerboard="0"
     inkscape:document-units="pt"
     showgrid="false"
     inkscape:zoom="4.9264142"
     inkscape:cx="45.875152"
     inkscape:cy="44.860215"
     inkscape:window-width="1366"
     inkscape:window-height="705"
     inkscape:window-x="-8"
     inkscape:window-y="-8"
     inkscape:window-maximized="1"
     inkscape:current-layer="svg4" />
  <path
     style="fill:#a0a0a0;stroke:none;stroke-width:0.105611"
     d=""
     id="path96"
     transform="scale(0.75)" />
  <path
     id="path14572"
     style="stroke:#000000;stroke-width:0.75px;stroke-linecap:butt;stroke-linejoin:miter;stroke-opacity:1;fill-rule:evenodd"
     d="m 52.005494,51.475164 c -6.308718,0.563476 -11.739162,1.767362 -16.473378,1.59099 -1.469457,-0.132582 -6.379449,-2.429546 -6.629127,-4.47466 -0.98383,-3.175654 15.065129,-2.741446 8.220116,-11.60097 -5.730697,-7.386555 -22.971479,13.617822 -14.849242,19.191319 8.703956,6.05182 27.555068,0.486136 29.731631,-4.706679 z m -38.551699,1.2311 C 14.09461,44.61873 8.9324503,32.856306 15.165303,28.701475 c 0.910281,-0.890175 3.201725,2.4302 4.937342,5.907333 1.37407,2.752812 2.119844,5.8663 3.520481,5.224886 C 37.735875,32.758032 17.448896,16.391296 10.560298,19.930921 0.0341433,25.948623 6.973671,43.8749 13.453795,52.706264 Z m 31.82003,-1.836933 c -2.69137,-2.413831 -9.568121,-6.65068 -10.516993,-3.430016 -1.391767,2.908044 5.753996,3.71156 10.516993,3.430016 z M 16.536564,34.462244 c -3.155408,-0.839414 -2.839557,6.541281 -2.644905,10.391712 3.000028,-3.353879 5.008219,-9.698813 2.644905,-10.391712 z M 32.231019,29.14237 c -5.326447,-2.861297 -8.308586,-7.396456 -6.473225,-8.617306 3.082892,-2.163238 6.499772,4.424189 6.473225,8.617306 z m 17.312017,-8.162206 c -2.98968,3.867266 -4.215101,7.502505 -2.462604,8.286965 2.850873,1.449636 2.373141,-4.773722 2.462604,-8.286965 z M 12.890625,12.65625 C 31.169333,8.9043808 39.173435,18.920636 42.46875,17.109375 54.105711,5.6106901 21.977982,-0.12579983 12.890625,12.65625 Z m 11.15625,2.203125 C 35.59375,22.75 35.137803,27.32586 38.625,32.8125 56.140625,63.0625 66.348624,27.742084 51.890625,12.375 54.016443,52.472229 41.531935,28.521245 40.125,22.921875 39.227464,20.948047 37.287184,16.042729 24.046875,14.859375 Z M 63.11,31.996 C 63.11,14.816 49.183,0.886 32,0.886 14.816,0.887 0.887,14.817 0.887,31.997 c 0,17.18 13.93,31.116 31.113,31.116 17.184,0 31.11,-13.937 31.11,-31.117" />
</svg>
