<svg id="SVGRoot" width="80px" height="80px" version="1.1" viewBox="0 0 80 80" xmlns="http://www.w3.org/2000/svg"><path d="m36.891 79.94c-0.48419-0.028914-1.1775-0.090646-1.5406-0.13734-4.5986-0.59019-9.0618-1.9445-13.163-3.9941-5.8142-2.906-10.819-7.163-14.588-12.409-3.6414-5.0681-6.0701-11.055-7.0189-17.303-0.19569-1.2885-0.47425-3.9074-0.54295-5.1043-0.064999-1.1319-0.048351-2.1031 0.060367-3.5275 0.87951-11.519 6.3789-21.955 15.249-28.937 4.8393-3.8092 10.522-6.4392 16.608-7.6858 1.1581-0.23723 2.0186-0.36617 4.0111-0.60104l2.0363-0.24003 2.0452 3.0938e-4c1.9089 2.8914e-4 2.1053 0.0069394 2.9456 0.099623 1.1642 0.12841 1.6362 0.19292 2.661 0.36367 7.4478 1.241 14.096 4.0602 19.485 8.2627 7.1861 5.6039 12.062 13.528 13.992 22.741 0.65633 3.1327 0.96097 6.6752 0.84331 9.8062-0.11914 3.1726-0.52335 6.053-1.2485 8.8985-2.8645 11.24-10.071 20.274-20.207 25.331-4.7715 2.3807-9.9679 3.8388-15.821 4.4394-0.75917 0.07792-4.4885 0.07648-5.8071-0.0029zm5.4763-18.783 2.264-5.4791-2.2883-5.5397c-1.2585-3.0468-2.3005-5.5265-2.3156-5.5104-0.03793 0.04061-4.4498 11.009-4.448 11.059 7.52e-4 0.02197 0.98656 2.4842 2.1907 5.4717 1.2041 2.9874 2.2075 5.478 2.2298 5.5347 0.03822 0.09701 0.04242 0.09845 0.07195 0.02313 0.01723-0.04395 1.0502-2.5455 2.2954-5.559zm-15.66-4.5859 5.4221-2.2533 2.3507-5.5465c1.2929-3.0506 2.3463-5.5501 2.3409-5.5544-0.0058-0.0043-2.4677 1.0414-5.4719 2.3238-3.0042 1.2824-5.4752 2.3366-5.4912 2.3425-0.02475 0.0091-4.7127 10.921-4.7127 10.969 0 0.03007 0.07904-0.0029 5.5621-2.281zm32.315 2.2225c-0.01303-0.03846-1.0644-2.5066-2.3378-5.4848l-2.3153-5.4148-5.4693-2.333c-3.0081-1.2832-5.4794-2.323-5.4917-2.3106-0.01636 0.01639 4.4755 10.976 4.5286 11.049 0.01303 0.01784 11.038 4.5584 11.075 4.5613 0.01795 0.0014 0.02258-0.02891 0.01013-0.06737zm-29.058-16.554c3.0061-1.2198 5.4654-2.2269 5.4651-2.2379-3.19e-4 -0.01099-2.4689-1.0203-5.4858-2.243l-5.4852-2.223-3.3275 1.3363c-1.8301 0.73499-4.3224 1.7349-5.5383 2.2221-1.216 0.48716-2.2108 0.89579-2.2108 0.90807 0 0.02597 11.051 4.4723 11.091 4.4621 0.01448-0.0038 2.4858-1.0049 5.492-2.2247zm31.496-0.06514 5.4021-2.1679-0.16006-0.06721c-0.7382-0.31001-10.898-4.3783-10.944-4.3824-0.04517-4e-3 -9.8528 3.9518-10.844 4.3737l-0.17958 0.07646 11.003 4.4619 0.16021-0.06328c0.08816-0.0348 2.5911-1.0388 5.5623-2.2312zm-24.63-5.4995c-1.88e-4 -0.0055-1.0581-2.4791-2.3509-5.497l-2.3505-5.487-5.4777-2.3366c-3.0127-1.2851-5.4845-2.3297-5.4929-2.3214-0.02143 0.02141 4.6621 11.074 4.6984 11.088 0.01636 0.0062 2.4788 1.0335 5.4719 2.2829 5.1723 2.1591 5.5026 2.2955 5.5017 2.2715zm12.062-2.2805 5.479-2.2852 2.3377-5.5277c1.2858-3.0402 2.3306-5.5348 2.3218-5.5436-0.0087-0.0088-2.5089 1.037-5.5558 2.3239l-5.5399 2.3398-2.1408 5.1393c-1.1775 2.8266-2.2072 5.2978-2.2883 5.4916-0.08107 0.19377-0.13521 0.35111-0.12001 0.34965 0.01506-0.0014 2.493-1.031 5.5064-2.2878zm-6.5045-4.6382 2.2435-5.4301-2.279-5.5155c-1.2534-3.0335-2.2882-5.5248-2.2996-5.5361-0.01158-0.01142-0.02649-0.01315-0.03359-4e-3 -0.03199 0.0412-4.4044 10.936-4.4195 11.012-0.01013 0.05134 0.86725 2.2826 2.1922 5.5747 1.215 3.019 2.2196 5.5064 2.2323 5.5276 0.01303 0.02119 0.04502-0.01478 0.07166-0.07992s1.058-2.562 2.292-5.5485z" stroke-width=".039989"/></svg>
