<svg xmlns="http://www.w3.org/2000/svg" width="64pt" height="64pt" viewBox="0 0 64 64"><path d="M28.64 63.832c-6.925-.73-13.663-3.875-18.788-8.766C2.867 48.395-.848 38.36.164 28.88c1.2-11.258 7.883-20.828 17.93-25.68 15.918-7.691 35.02-1.039 42.699 14.864 6.402 13.261 3.008 29.019-8.3 38.496-6.536 5.476-15.364 8.168-23.852 7.273zm.313-7.96c.5-.505.5-.81-.012-1.317-.296-.297-.503-.38-.765-.301-.778.234-1.012 1.121-.442 1.687.426.426.739.41 1.22-.07zm7.34.062c.434-.438.352-1.079-.191-1.485-.344-.254-.489-.277-.762-.133-1 .536-.707 1.883.418 1.938.113.008.351-.137.535-.32zm-14.398-2.176c.398-.281.496-1.16.164-1.492-.418-.418-1.418-.141-1.618.453-.128.383.157.96.559 1.12.496.2.488.2.895-.081zm21.285 0c.254-.18.36-.418.36-.817 0-.48-.075-.593-.52-.78-.622-.263-1.036-.102-1.258.484-.188.496.043 1.148.437 1.25.512.132.617.117.98-.137zm-13.528-1.324c.188-.153.383-.512.438-.793.082-.414.02-.594-.313-.93-.449-.45-.894-.52-1.449-.227-.46.243-.586.45-.59.961-.008 1.028 1.149 1.625 1.914.989zm6.235-.114c.218-.218.394-.582.394-.812 0-.496-.656-1.211-1.113-1.211-1.152 0-1.68 1.09-.969 1.996.438.555 1.149.566 1.688.027zm-11.914-1.953c.332-.336.394-.512.308-.926-.125-.636-.367-.882-.984-1.007-.707-.141-1.367.414-1.367 1.148 0 1.133 1.222 1.605 2.043.785zm17.793.09c.449-.445.414-1.21-.075-1.7-.707-.706-1.757-.355-1.953.657-.21 1.098 1.23 1.844 2.028 1.043zm-25.641-1.129c.176-.176.32-.465.32-.644 0-.426-.554-.965-.992-.965-.812 0-1.234 1.02-.676 1.64.352.387.946.375 1.348-.03zm33.129-.035c.726-1.035-.473-2.14-1.36-1.254-.605.606-.203 1.613.645 1.613a.848.848 0 0 0 .715-.359zm-19.707-2.422c.66-.86.144-2.25-.902-2.445-1.454-.274-2.422 1.176-1.614 2.414.5.765 1.938.781 2.516.031zm7.262.02c.53-.567.578-1.27.12-1.914-.394-.551-.949-.707-1.757-.493-.492.133-.672.293-.902.809-.243.539-.258.715-.09 1.117.5 1.211 1.73 1.438 2.629.48zm-17.856-.055c.485-.484.504-1.035.063-1.598-.239-.3-.48-.422-.848-.418-.715.004-1.09.348-1.188 1.086-.074.547-.027.676.356.977.582.457 1.129.441 1.617-.047zm27.633.113c.187-.152.383-.511.437-.793.082-.414.02-.593-.312-.93-.406-.406-1.113-.542-1.492-.288-.266.175-.551.777-.551 1.164 0 .46.703 1.132 1.184 1.132.218 0 .546-.129.734-.285zM43.3 43.254c.676-.899.293-2.2-.723-2.473-1.492-.402-2.562.899-1.86 2.262.415.8 2.044.934 2.583.21zm-31.504.164a1 1 0 0 0 .297-.645c0-.464-.531-1.023-.969-1.023-.441 0-.969.563-.969 1.035 0 .809 1.016 1.2 1.64.633zm11.27-.145c.597-.636.538-1.582-.137-2.187-.567-.508-.848-.559-1.61-.293-1.015.355-1.34 1.672-.61 2.465.325.347.54.426 1.185.426.632 0 .859-.079 1.171-.41zm30.57 0c.547-.832-.469-1.847-1.301-1.3-.45.293-.574 1.16-.215 1.52.356.355 1.223.234 1.516-.22zm-38.344-1.261c.41-.317.52-.89.281-1.457-.277-.664-.84-.84-1.636-.508-.555.234-.57.266-.524 1.012.043.691.106.796.59 1.043.535.265.863.242 1.289-.09zm17.559-.051c.777-.367 1.23-1.36 1.003-2.188-.175-.625-.906-1.351-1.523-1.507-.469-.118-1.773.441-1.98.847-.532 1.043-.258 2.246.64 2.793.649.399 1.113.41 1.86.055zm17.46-.05c.72-.72.098-2.099-.949-2.099-.547 0-1.148.684-1.148 1.305 0 .953 1.41 1.485 2.097.793zm-22.707-2.7c.602-.602.739-1.426.368-2.207-.336-.703-.95-1.063-1.836-1.063-.528 0-.746.106-1.215.59-.465.477-.574.715-.574 1.242 0 .762.527 1.637 1.129 1.872.687.27 1.617.082 2.128-.434zm11.477-.023c.418-.422.488-.61.488-1.325 0-.754-.054-.886-.593-1.379-.489-.445-.72-.543-1.309-.543-.594 0-.816.094-1.293.543-.516.489-.574.633-.574 1.38 0 .702.066.902.441 1.25.61.57.985.706 1.719.628.43-.043.785-.222 1.121-.554zM19.27 37.004c.507-.508.648-1.113.398-1.715-.27-.656-.746-.96-1.496-.96-.852 0-1.563.698-1.563 1.534 0 1.317 1.739 2.063 2.66 1.14zm27.57-.055c.547-.59.629-.902.41-1.574-.383-1.148-1.73-1.438-2.613-.555-.438.438-.48.57-.403 1.168.18 1.348 1.723 1.914 2.606.961zm-37.3-.469c.398-.359.37-.937-.06-1.34-.445-.413-.847-.417-1.257-.003-.895.894.379 2.195 1.316 1.343zm46.41-.25c.226-.402.218-.468-.095-.886-.414-.555-.761-.637-1.277-.297-.465.305-.535 1.055-.133 1.457.403.402 1.211.258 1.504-.274zM13.53 36c.446-.563.422-1.113-.062-1.598-.48-.484-1.031-.504-1.598-.062-.309.246-.426.484-.426.883 0 1.125 1.403 1.648 2.086.777zm38.617.125c.153-.168.317-.555.368-.863.074-.473.023-.614-.352-.907-.96-.753-2.125-.117-2.031 1.114.062.828 1.453 1.277 2.015.656zm-18.523-.484c.73-.332 1.625-1.274 1.953-2.059.5-1.2.168-3.039-.723-3.98-1.597-1.7-4.042-1.747-5.57-.114-.996 1.067-1.37 2.262-1.07 3.43.351 1.379 1.047 2.242 2.262 2.809.64.3 2.406.253 3.148-.086zm-9.285-1.575c.281-.058.726-.316.984-.578.399-.394.477-.605.477-1.261 0-.653-.086-.887-.5-1.36-.461-.523-.578-.57-1.383-.57-.777 0-.93.058-1.34.504-.922 1.012-.687 2.484.492 3.086.633.32.586.316 1.27.18zm16.437-.078c.332-.113.653-.418.922-.875.364-.62.39-.77.235-1.343-.485-1.797-2.942-2.036-3.614-.348-.144.36-.261.773-.261.914 0 .457.629 1.3 1.168 1.566.625.309.875.325 1.55.086zm11.477-4.101c.101-.125.195-.492.203-.817.023-.77-.527-1.265-1.25-1.125-1.086.211-1.406 1.383-.57 2.086.418.352.55.387.957.246.261-.093.558-.27.66-.39zM13.53 29.87c.41-.52.426-1.039.055-1.492-.723-.867-2.14-.39-2.14.719 0 1.144 1.39 1.66 2.085.773zm5.809-.328c.465-.59.566-1.102.328-1.676-.332-.8-1.363-1.176-2.145-.777-.968.496-1.191 1.562-.5 2.387.364.43.528.496 1.2.496.652 0 .836-.07 1.117-.43zm27.707-.207c.937-1.395-.727-3.02-2.168-2.117-.617.383-.84 1.207-.531 1.957.273.652.578.804 1.523.758.715-.036.844-.102 1.176-.598zm-37.57-.098c.418-.293.46-.82.105-1.324-.469-.672-1.684-.262-1.684.566 0 .872.84 1.274 1.579.758zm46.39-.105c.34-.485.317-.867-.07-1.254-.625-.625-1.613-.223-1.613.656 0 .914 1.171 1.328 1.683.598zm-28.629-1.008c.61-.313 1.043-1.25.926-2.004-.125-.805-1.07-1.633-1.867-1.629-.652 0-1.422.445-1.73.996-.512.926-.087 2.352.812 2.715.531.215 1.36.18 1.86-.078zm11.34.066c.203-.093.54-.414.742-.714.313-.454.356-.66.262-1.286-.09-.586-.234-.843-.695-1.222-.692-.57-1.38-.621-2.168-.157-.653.387-.918.91-.918 1.797 0 .532.101.762.547 1.203.441.446.672.551 1.203.551.36 0 .82-.078 1.027-.172zm-5.406-2.558c.547-.395.867-1.32.683-1.973-.085-.297-.207-.617-.273-.71-.531-.75-1.996-.958-2.785-.391-1.195.851-.844 2.976.555 3.363.609.172 1.343.055 1.82-.29zM15.406 24.16c.184-.207.293-.555.281-.922-.042-1.515-2.304-1.593-2.304-.078 0 1.145 1.305 1.793 2.023 1zm34.856-.02c.781-.734.23-2.07-.852-2.07-1.02 0-1.55 1.293-.844 2.047.45.477 1.2.488 1.696.024zm-27.27-1.003c.606-.606.676-1 .305-1.715-.781-1.512-2.98-.938-2.98.777 0 .309.167.66.468.985.668.714 1.461.699 2.207-.047zm20.18-.024c.5-.496.558-.64.476-1.14-.109-.68-.32-.965-.953-1.293-.933-.48-2.218.379-2.218 1.48 0 .754.789 1.524 1.558 1.524.438 0 .703-.133 1.137-.57zm-31.477-.82c.465-.305.528-.941.13-1.379-.552-.61-1.669-.16-1.669.672 0 .3.13.559.36.719.453.316.683.316 1.18-.012zm41.75.02c.188-.145.309-.434.309-.747 0-.93-1.059-1.28-1.64-.543-.368.473-.298.95.19 1.293.423.297.743.293 1.141-.007zm-24.086-2.81c.86-.858.555-2.124-.617-2.589-1.504-.59-2.672 1.418-1.504 2.59.653.648 1.473.648 2.121 0zm7.418 0c.86-.858.598-1.952-.625-2.585-.558-.29-1.39.047-1.816.734-.34.551-.34.582-.07 1.293.297.782.625 1 1.504 1.02.386.008.667-.121 1.007-.461zm-17.8-.362c1.085-1.02-.434-2.672-1.606-1.75-.312.246-.441.496-.441.851a1.21 1.21 0 0 0 2.047.899zm27.78-.004c1-1.075-.491-2.653-1.648-1.746-.886.699-.375 2.097.77 2.097.36 0 .664-.12.879-.351zm-30.624-2.883c.43-.43.347-.918-.219-1.34-.414-.312-.484-.316-.887-.094-.535.301-.664 1.016-.261 1.457.363.403.953.395 1.367-.023zm33.078.066a1 1 0 0 0 .297-.644c0-.465-.531-1.024-.969-1.024-.176 0-.469.145-.644.32-.18.18-.325.47-.325.645 0 .43.559.969.996.969.192 0 .485-.121.645-.266zm-25.258-.773c.457-.457.488-.73.16-1.367a1.147 1.147 0 0 0-2.183.53 1.17 1.17 0 0 0 2.023.837zm17.711.058c.523-.41.559-1.062.09-1.66-.691-.879-2.086-.297-2.086.88 0 .519.648 1.116 1.21 1.116.2 0 .552-.148.786-.336zm-11.832-2.039c.613-.78.059-1.98-.914-1.98-.555 0-1.184.684-1.184 1.285 0 1.098 1.414 1.566 2.098.695zm6.078.09c.223-.21.371-.539.371-.816 0-.582-.644-1.254-1.207-1.254-.23 0-.597.18-.816.398-1.117 1.118.5 2.754 1.652 1.672zM22.082 12c.336-.402.14-1.262-.348-1.535-.402-.223-.468-.215-.886.094-.555.414-.637.761-.297 1.277.297.457 1.207.555 1.531.164zm21.266.04c.265-.27.242-1.18-.04-1.411-.324-.27-1.222-.266-1.394.004-.215.34-.176 1.398.055 1.492.386.156 1.183.105 1.379-.086zm-14.23-2.462c.335-.512.253-.863-.29-1.27-.367-.273-.504-.296-.84-.144-.484.223-.683.875-.437 1.418.254.559 1.199.555 1.566-.004zm7.19.129c.395-.355.376-.84-.054-1.297-.438-.465-.734-.469-1.211-.02-.438.41-.469.731-.121 1.223.3.43.969.473 1.387.094zm0 0"/></svg>