<svg version="1.1" viewBox="0 0 80 80" xmlns="http://www.w3.org/2000/svg"><path d="m40.001 0a40 40 0 0 0-22.535 6.956c0.02343-6e-3 0.04929-0.02343 0.06943-0.02343 0.07952 6e-3 0.14348 0.06943 0.16778 0.25456 0.06943 0.51928-0.60588 0.33159-0.65974 0.08062a40 40 0 0 0-17.043 32.732 40 40 0 0 0 40 40 40 40 0 0 0 40-40 40 40 0 0 0-40-40zm-2.3438 0.17367c0.25981-0.12352 1.0575 0.16596 0.65974 0.78707-0.31715 0.49128-1.5124-0.38613-0.65974-0.78707zm-1.9213 1.4584c0.07952-0.0627 0.19968-0.07057 0.34727 0.02343 0.24896 0.16003 0.29946 0.4308-0.01776 0.58448-0.48848 0.24001-0.56993-0.42075-0.32993-0.60765zm14.873 0.31828c0.20471 0.07952 0.21691 0.30728 0.06943 0.4167-0.39467 0.29005-0.53542-0.59726-0.06943-0.4167zm-4.514 0.12745c0.08735 0.0091 0.1262 0.07616 0.04592 0.23135-0.08512 0.16362-0.30506 0.22878-0.47461 0.22576-0.56343-0.01474 0.16472-0.48659 0.42823-0.45726zm-19.277 0.44562c0.14816 0.02343 0.27168 0.13988 0.3241 0.41088 0.21245 1.1205-1.8071 0.46062-0.7929-0.26049 0.14582-0.10417 0.32051-0.1739 0.46879-0.1505zm17.026 0.03477c0.10749 0.0091 0.18936 0.04929 0.2083 0.13898 0.06161 0.2857-0.65547 0.64832-0.88538 0.36451-0.20093-0.25097 0.35532-0.52949 0.67709-0.50352zm-8.3337 0.30676c0.11758-0.03806 0.24269-0.03806 0.34716 0.02343 0.42476 0.24738 0.11199 0.61986-0.40506 0.57878-0.57889-0.04815-0.29508-0.48772 0.05824-0.60183zm18.212 0.34727c0.28211 0.1008 0.17772 0.48716 0.06384 0.55557-0.46297 0.27259-0.62153-0.75513-0.06384-0.55557zm-26.141 0.05265c0.65705-0.16271 0.82177 1.5565-0.17953 1.117-0.23619-0.10749-0.45783-0.59389-0.13304-0.92023 0.11199-0.11199 0.21873-0.1736 0.31258-0.19677zm13.345 0.04592c0.06943-0.01776 0.16094-0.01474 0.28355 0.02343 0.25131 0.07952 0.31738 0.39713 0.26049 0.55557-0.31212 0.86535-1.0265-0.44717-0.54404-0.57878zm5.3183 0.06943c0.19227 0.02117 0.36398 0.12888 0.46297 0.31828 0.68313 1.3075-2.2973 0.82626-1.0533-0.13898 0.18456-0.14257 0.39811-0.20146 0.5903-0.17931zm-14.74 1.0995c0.10417-0.0028 0.19552 0.03704 0.26643 0.16203 0.41527 0.73083-1.6103 0.31526-0.61348-0.06384 0.12586-0.04815 0.24303-0.09521 0.34716-0.09853zm1.5741 0.27761c0.13898-0.04815 0.29598-0.04479 0.37033 0 0.76545 0.44683-0.65637 1.2302-0.63657 0.29508 3e-3 -0.14907 0.12711-0.24647 0.26609-0.29508zm15.515 0.23139c0.14132 0.06047 0.24144 0.17715 0.22576 0.3009-0.07166 0.60856-1.3104 0.15175-0.70026-0.26049 0.1505-0.10303 0.33318-0.1008 0.4745-0.04033zm-8.9759 0.18524c0.34886-0.13161 0.69402 0.44819 0.35298 0.70025-0.25513 0.18872-0.9632-0.46724-0.35298-0.70025zm9.711 0.50934c0.13482 0.05375 0.2157 0.21366 0.1505 0.31828-0.29307 0.47238-0.64171-0.51471-0.1505-0.31828zm-11.858 0.31258c0.70419-0.16146 0.8237 1.9363-0.33563 1.1459-0.27259-0.18872-0.24738-0.66128 0-0.92594 0.12242-0.13036 0.23494-0.19677 0.33563-0.21982zm-2.7316 0.25456c0.07726-0.03704 0.1804-0.02343 0.31828 0.06943 0.11411 0.07725 0.20293 0.68718-0.28355 0.61929-0.23407-0.03251-0.26609-0.57753-0.03477-0.68872zm12.882 0.07503c0.05375-0.05038 0.15141-0.03919 0.30676 0.08735 0.03704 0.03137 0.20146 0.21298 0.09853 0.34145-0.3221 0.39958-0.56589-0.27818-0.40506-0.42823zm4.1436 0.27202c0.48659 0.2504-0.17035 1.1196-0.49184 1.007-0.38345-0.13629 0.0091-1.2559 0.49184-1.007zm-21.795 0.32992c0.10863-0.01777 0.23317 0.02343 0.35298 0.13304 0.60697 0.54854-0.84396 0.72815-0.60765 0.09294 0.05038-0.13482 0.14639-0.2092 0.25456-0.22576zm-10.608 0.39936c0.70339 0.27886-0.70766 0.67999-0.34145 0.09853 0.06497-0.1064 0.21302-0.14907 0.34145-0.09853zm20.099 0.26049c0.1064-3e-3 0.21839 0.03364 0.27762 0.18524 0.6323 1.6038-2.2905 0.23472-0.52658-0.13304 0.04142-0.0091 0.1428-0.04929 0.24896-0.05265zm-2.5869 0.28914c0.10303-0.02117 0.22107-0.0018 0.30676 0.05265 0.76073 0.47684-0.61079 0.99514-0.50923 0.1505 0.01474-0.11411 0.09967-0.18108 0.2027-0.2027zm-4.4158 0.04592c0.0627-0.02683 0.14873-0.01247 0.24896 0.07503 0.12352 0.10863 0.18433 0.46565-0.16778 0.46879-0.26518 6e-3 -0.26756-0.46096-0.08062-0.54393zm1.8924 0.07503c0.24738-0.07616 0.73937 0.31076 0.43988 0.61347-0.42714 0.42793-1.2037-0.37562-0.43988-0.61347zm16.43 0.1736c1.3662-0.23619-0.28623 1.9197-0.52087 0.52669-0.07952-0.47249 0.16237-0.46497 0.52087-0.52669zm7.7781 0.05265c0.29946-0.09184 0.87283 0.47192 0.35298 0.70025-0.4531 0.20123-1.0978-0.46879-0.35298-0.70025zm-36.436 0.0291c0.12208 0.02684 0.22164 0.11086 0.23135 0.25456 0.04256 0.71806-1.2183 0.24806-0.61918-0.1736 0.11736-0.08175 0.26575-0.10863 0.38772-0.08062zm38.171 0.08735c0.3277 0.11086 0.33507 0.72021 0.08735 0.87967-0.34716 0.2281-1.2129-0.3839-0.52669-0.79289 0.18222-0.10863 0.33061-0.12352 0.43988-0.08735zm-34.856 0.54975c0.0683-0.01247 0.15141 0.02117 0.24303 0.11592 0.20448 0.21211-0.13841 0.60833-0.37619 0.43405-0.15198-0.11199-0.07057-0.51581 0.13304-0.54975zm15.278 6e-3c0.1253-0.02117 0.27202 0.02343 0.36462 0.09853 0.60697 0.49902-0.58244 0.91259-0.5903 0.18524-0.0016-0.17662 0.09967-0.26284 0.22576-0.28355zm-6.6612 0.19677c0.04929-0.0019 0.1019 0.02117 0.16766 0.06384 0.51358 0.33181-0.71348 0.46062-0.31258 0.02343 0.04929-0.05488 0.09517-0.08512 0.14457-0.08735zm-18.427 0.7986c0.05598 3e-3 0.10976 0.03024 0.1561 0.05824 0.57058 0.34293-0.65974 0.53822-0.31258 0.02343 0.04143-0.06161 0.09967-0.08398 0.1561-0.08062zm16.361 0.12152c0.78605-0.20123 0.31379 1.1697-0.26643 0.61347-0.2868-0.27436 0.03137-0.55179 0.26643-0.61347zm17.142 0.24303c0.12598 0.0091 0.23551 0.08062 0.30676 0.21982 0.57058 1.1172-1.6448 0.5793-0.70026-0.09294 0.12677-0.09071 0.26756-0.13773 0.39354-0.12745zm-2.9052 0.04592c0.14692 0.01776 0.27111 0.08848 0.32992 0.2083 0.48659 0.99669-1.6587 0.53599-0.78707-0.08735 0.14098-0.1008 0.3102-0.13807 0.45715-0.12152zm-9.5954 0.37037c0.10417-3e-3 0.19586 0.04815 0.26643 0.21423 0.41527 0.97609-1.6103 0.42286-0.61347-0.08062 0.12586-0.06384 0.24303-0.12889 0.34716-0.13304zm-18.021 0.01247c0.10303-2e-3 0.21189 0.04256 0.28948 0.10976 0.68461 0.59098-0.99616 0.94899-0.55557 0.06943 0.06384-0.12745 0.16385-0.17749 0.26609-0.17953zm-5.4283 0.17953c0.43039-0.11343 0.45458 1.0647-0.2083 0.65974-0.18993-0.11736-0.17099-0.35555 0-0.52669 0.07726-0.07729 0.14692-0.11668 0.2083-0.13304zm6.1461 0.27202c0.04815-0.03477 0.11199-0.03806 0.19083 0.01247 0.03024 0.01776 0.20414 0.40427-0.11592 0.43987-0.22107 0.02684-0.22073-0.34693-0.07503-0.45144zm4.1206 0.01247c0.33677 0.05934 0.49801 0.5615 0.22576 0.81595-0.24235 0.22814-1.2585-0.22632-0.61348-0.70025 0.14166-0.10417 0.27561-0.13539 0.38772-0.11592zm-2.5406 0.08735c0.13482 0.02117 0.25781 0.09407 0.31258 0.2027 0.5595 1.0886-1.4594 0.67383-0.70026-0.08735 0.1064-0.10526 0.25274-0.1375 0.38772-0.11592zm-8.5942 0.56144c0.05265-6e-3 0.11758 0.0091 0.19677 0.05265 0.32947 0.18222 0.38881 0.63653 0.17931 0.78707-0.49086 0.34939-0.7444-0.78741-0.37619-0.83915zm48.017 0.17953c0.41202 0.16328 0.23317 0.78023-0.13304 0.74081-0.30585-0.03137-0.39308-0.95012 0.13304-0.74081zm-6.007 0.22576c0.54359 0.16003 0.05598 0.99023-0.28355 0.61918-0.30271-0.3297-0.06943-0.72078 0.28355-0.61918zm2.0834 0.05265c0.40809-6e-3 0.72108 0.47638 0.49767 0.84498-0.19318 0.31862-1.5599-0.0683-0.92594-0.65974 0.14098-0.1318 0.29217-0.18365 0.42823-0.18524zm-40.06 0.05824c0.05488-0.03704 0.13686-0.03591 0.24303 0.03024 0.30449 0.18365 0.13595 0.58826-0.19677 0.54404-0.16528-0.02343-0.21211-0.46319-0.04592-0.57292zm10.973 0.2083c0.12832-0.07952 0.70094 0.0091 0.52669 0.43405-0.18399 0.44214-1.1083-0.07393-0.52669-0.43405zm17.842 0.16774c0.32845-0.01474 0.70116 0.1914 0.625 0.61347-0.15376 0.86848-1.7285 0.01776-0.92023-0.52658 0.08062-0.05375 0.18581-0.08175 0.29508-0.08735zm-3.5765 0.21423c0.17897 0.1019 0.2524 0.31356 0.14457 0.45144-0.36621 0.46599-0.68827-0.75245-0.14457-0.45144zm22.252 0.2027c0.16596 0.04369 0.31537 0.144 0.34145 0.30094 0.15523 0.93187-1.4558 0.20384-0.78707-0.26049 0.09854-0.0683 0.27973-0.08398 0.44562-0.04033zm-36.581 0.18513c0.08735-0.03919 0.20327-0.04143 0.31828 0 0.82256 0.29508-0.57553 1.1085-0.48032 0.22576 0.01247-0.11199 0.07503-0.1869 0.16203-0.22576zm-2.3785 0.09294c0.2326 0.07057 0.37415 0.51917 0.3241 0.8912-0.06493 0.35332-0.93815-0.52858-0.58448-0.82177 0.09408-0.07839 0.18278-0.09294 0.26049-0.06943zm11.858 0.12152c0.10526-0.01776 0.19408 0.0091 0.28355 0.13898 0.95413 1.3804-2.2826 0.67833-0.65974 0 0.14726-0.06161 0.27077-0.12208 0.37619-0.13898zm-13.236 0.22576c0.52824 0.01776 0.40004 1.2257-0.35298 0.86232-0.32792-0.15523-0.11917-0.67765 0.08735-0.78707 0.10303-0.05375 0.19083-0.07726 0.26609-0.07503zm43.417 0.06384c0.04592-0.04592 0.12004-0.05488 0.22576 6e-3 0.16687 0.09408 0.23585 0.32308 0.06943 0.4167-0.31492 0.17371-0.43296-0.28389-0.29508-0.42241zm-4.3114 0.06943c0.24896-0.03137 1.0952 0.46531 0.39936 0.92023-0.50092 0.32486-1.3296-0.79814-0.39936-0.92023zm-47.737 0.53138c0.05711 0.02343 0.11615 0.07393 0.18524 0.16203 0.09854 0.12352 0.20146 0.23676-6e-3 0.39354-0.66151 0.50057-0.57919-0.71798-0.17953-0.55557zm4.6354 0.12152c0.46599 0.16653-0.07616 0.67463-0.30094 0.46879-0.1728-0.15701 3e-3 -0.57348 0.30094-0.46879zm-8.9528 0.12152c0.05711 0.0091 0.11792 0.05152 0.2027 0.10417 1.0253 0.62916-1.0814 0.71851-0.39354-6e-3 0.07839-0.08289 0.13361-0.10749 0.19084-0.09853zm36.448 0.1561c0.25656-0.05038 0.49109 0.15523 0.52658 0.19083 0.89389 0.88133-1.4851 1.2564-0.87968 0.08735 0.02684-0.05265 0.09631-0.22878 0.35298-0.27761zm-23.658 0.25456c0.34247 0.1372 0.35937 0.78885 0.07503 0.9491-0.4373 0.24413-1.1511-0.53081-0.52669-0.87967 0.18792-0.10526 0.33718-0.11524 0.45144-0.06943zm39.214 0.4167c0.1363-0.08289 1.0259 0.09071 0.65974 0.65391-0.30887 0.47226-1.5393-0.12152-0.65974-0.65391zm-12.963 0.08625c0.05824-0.02684 0.13807-0.02684 0.21423 0 0.54998 0.19465-0.3819 0.73846-0.31828 0.1505 0.0091-0.07393 0.04592-0.12477 0.10417-0.1505zm-18.64 0.45715c0.38828-0.07729 0.51483 0.03137 0.52669 0.35309 0.04143 1.0395-1.804-0.10303-0.52669-0.35309zm7.3612 0.16203c0.41693 0.07952-0.31828 1.1704-0.52087 0.30093-0.0683-0.29489 0.0728-0.19261 0.26609-0.26049 0.11199-0.03806 0.19499-0.05152 0.25456-0.04033zm-27.281 0.01247c0.07839 0.02343 0.16328 0.07503 0.26049 0.16203 0.29183 0.26306 0.28982 0.97598-0.32992 0.93176-0.56041-0.04033-0.48043-1.2567 0.06943-1.0938zm59.163 0.39924c0.12564 0.01777 0.22723 0.08848 0.28355 0.2027 0.52144 1.0585-1.5878 0.52658-0.70026-0.08735 0.14344-0.09967 0.29096-0.13395 0.41671-0.11592zm-3.8775 0.22576c0.13127 6e-3 0.2524 0.05824 0.31828 0.19117 0.55791 1.1172-1.9206 0.64541-0.70029-0.08735 0.11199-0.06607 0.25063-0.10976 0.3819-0.10417zm-13.108 0.1214c0.04702-0.03251 0.12238-0.02684 0.21982 0.06384 0.09967 0.09184 0.22666 0.17628 0.01776 0.31246-0.29666 0.19261-0.37921-0.27818-0.23732-0.37619zm-24.515 0.10413c0.06497-0.04256 0.15791-0.03591 0.28914 0.05265 0.20954 0.13773 0.2933 0.71821-0.16774 0.65974-0.23642-0.03024-0.31715-0.58403-0.12152-0.71182zm33.982 0.25456c0.04815-0.04702 0.1262-0.06161 0.23729 0 0.13773 0.07952 0.24594 0.21982 0.04592 0.37037-0.30664 0.23169-0.42937-0.22935-0.28355-0.37037zm-31.535 0.05265c0.50171 0.04369-0.03806 1.3973-0.54404 0.68872-0.27259-0.38189 0.06494-0.51346 0.26609-0.61347 0.11736-0.05711 0.20618-0.08175 0.27762-0.07503zm-17.142 0.29508c0.07839-0.05824 0.2027-0.04479 0.36462 0.09853 0.17424 0.15557 0.22723 0.35827 0.04033 0.49766-0.49555 0.37203-0.63959-0.42052-0.40506-0.59612zm24.254 0.31828c0.1008 0.07616 0.13429 0.2261 0.06384 0.44562-0.13954 0.43575-1.2493-0.12352-0.52658-0.43405 0.19408-0.08289 0.36228-0.08735 0.46297-0.01247zm-5.2605 0.23728c0.11792 0.04033 0.21423 0.14189 0.23729 0.27202 0.14257 0.81474-1.1555 0.37003-0.61348-0.17367 0.11883-0.11883 0.25834-0.1392 0.37619-0.09853zm6.5048 0.08062c0.03137-0.05375 0.11592-0.06161 0.27202 0.04033 0.10303 0.06607 0.19734 0.17394 0.17371 0.23732-0.17447 0.48961-0.53811-0.11468-0.44562-0.27761zm32.663 0.16766c0.06494-0.02343 0.13214-0.02343 0.2027 0.03477 0.41202 0.34414-0.94933 0.54215-0.39936 0.09853 0.06943-0.05601 0.1318-0.10863 0.19677-0.13304zm-50.099 0.1505c0.07166-0.02003 0.14873-6e-3 0.22576 0.04033 0.52299 0.31212-0.59152 0.67629-0.39354 0.12152 0.03251-0.09071 0.0963-0.14257 0.16774-0.16203zm-3.9701 0.33563c0.65815-2.69e-4 -0.31692 1.6797-0.65392 0.64239-0.06497-0.19677 0.04929-0.42196 0.26609-0.52669 0.1671-0.08175 0.29364-0.11558 0.38772-0.11592zm18.311 0.06384c0.06607 1e-3 0.14816 0.03024 0.25456 0.09854 0.18399 0.11702 0.35412 0.26193 0.22576 0.4745-0.48255 0.79455-0.94329-0.57987-0.48032-0.57296zm-29.816 0.16774c0.055977-0.0011 0.12836 0.02003 0.21982 0.08062 0.19768 0.13157 0.3399 0.27493 0.22576 0.4745-0.41066 0.7184-0.837-0.54774-0.44562-0.55557zm38.518 0.06943c0.15141 0.03364 0.26733 0.14994 0.28914 0.38772 0.09853 1.0285-1.6508 0.32588-0.78707-0.26049 0.15912-0.10863 0.34618-0.16116 0.49767-0.12745zm-2.5753 0.29508c0.07839-0.02343 0.17662 0.0024 0.28355 0.11592 0.12533 0.12836 0.1496 0.50776-0.21982 0.49196-0.36239-0.01777-0.29867-0.53845-0.06384-0.60765zm9.2189 0.67126c0.18849 0.06834 0.24303 0.32297 0.14457 0.45144-0.49623 0.64651-0.81988-0.69088-0.14457-0.45144zm-34.938 0.09853c0.1129-0.05598 0.26306-0.05598 0.39936 0.03477 0.69734 0.46731-0.55289 0.98618-0.58448 0.27761-6e-3 -0.14189 0.0728-0.25634 0.18524-0.31258zm52.015 0.03024c0.08735 0.01247 0.17984 0.07166 0.23135 0.13304 0.34716 0.41357-0.61506 0.52454-0.44562 0.01776 0.04256-0.12533 0.12654-0.16237 0.21423-0.1505zm-62.224 6e-3c0.12945 0.01474 0.24235 0.08398 0.3009 0.2027 0.39622 0.79546-1.4578 0.45356-0.70026-0.08735 0.12598-0.09071 0.2699-0.13093 0.39936-0.11592zm39.497 0.28914c0.06943 0.0012 0.14582 0.02343 0.2083 0.07503 0.77328 0.61963-0.99737 0.56634-0.39354-6e-3 0.05038-0.04815 0.11558-0.07057 0.18524-0.06943zm15.845 0.01776c0.89234 0.29182-0.53081 1.4096-0.51505 0.34145 0.0016-0.22992 0.24413-0.4288 0.51505-0.34145zm9.6011 0.50348c0.09294-0.0091 0.17715 0.01777 0.24303 0.11592 0.59745 0.89222-1.4078 0.60383-0.52669 0 0.09071-0.06161 0.19117-0.1064 0.28355-0.11592zm-0.83916 0.05265c0.06943-0.01247 0.15232 0.01247 0.24303 0.10976 0.11592 0.12855 0.02343 0.53924-0.24303 0.44562-0.28536-0.1019-0.2092-0.51872 0-0.55557zm-12.448 0.02343c0.07503-0.0683 0.20059-0.08398 0.38201 0.01776 0.20773 0.11736 0.35994 0.33832 0.06384 0.55557-0.46138 0.33642-0.67263-0.36957-0.44562-0.57292zm-33.942 0.09853c0.57753-0.05152 1.118 1.1015 0.80442 1.4179-0.43103 0.43428-1.7015-0.82078-1.0533-1.3137 0.08175-0.0627 0.16619-0.09744 0.24897-0.10413zm9.462 0.03477c0.44426 0.07166 0.72603 0.82313 0.18524 0.98966-0.64194 0.19643-0.66767-0.77921-0.65974-0.78707 0.1606-0.1739 0.32645-0.22632 0.4745-0.2027zm18.479 0.32988c0.06161-0.03591 0.14907-0.03364 0.26609 0.03024 0.41357 0.22164 0.05824 0.68763-0.24896 0.5671-0.15678-0.06161-0.2018-0.49041-0.01776-0.59612zm-0.89702 0.31828c0.16831-0.0091 0.31828 0.03919 0.41089 0.1736 0.98104 1.4216-2.3116 0.91766-0.92023 0 0.15523-0.1019 0.34111-0.16562 0.50934-0.1736zm7.066 0.01776c0.79399 0.28211-0.49714 1.175-0.52087 0.34145-3e-3 -0.17269 0.22935-0.44448 0.52087-0.34145zm-8.536 0.63082c0.07503-0.02343 0.16328-0.01247 0.26049 0.05824 0.46743 0.33272-0.13988 0.7334-0.37619 0.5671-0.20448-0.14491-0.10863-0.54975 0.11592-0.625zm-35.864 0.45715c0.25513-0.08398 0.7808 0.12533 0.52087 0.61347-0.34089 0.64182-1.41-0.32187-0.52087-0.61347zm2.8184 0.04033c0.04702-0.02343 0.11502-0.01776 0.2027 0.04033 0.04929 0.03137 0.16865 0.43307-0.13898 0.39354-0.16653-0.02117-0.20418-0.36451-0.06384-0.43405zm-8.7794 0.05824c0.098535-0.03364 0.2196-0.02343 0.35298 0.05265 0.60856 0.34705-0.24628 0.97443-0.52669 0.73499-0.23763-0.20327-0.12386-0.68604 0.1736-0.78707zm61.449 0.01247c0.05265-0.05598 0.14816-0.05598 0.29508 0.05824 0.14726 0.11592 0.28155 0.21302 0.12152 0.39354-0.35177 0.39576-0.57451-0.2812-0.41671-0.45144zm-4.7627 0.04592c0.14098-0.03251 0.31088 0.01247 0.42823 0.11592 0.50564 0.44717-0.63967 0.87608-0.67126 0.21982-0.0091-0.19352 0.1019-0.30316 0.24303-0.33563zm-25.736 0.28355c0.4615-0.06493-0.01247 1.2811-0.43406 0.56139-0.11736-0.19968 0.01776-0.33038 0.17371-0.4398 0.1064-0.07729 0.19442-0.11233 0.26049-0.12152zm34.926 0.05265c0.05934-0.01776 0.12945 6e-3 0.2083 0.08062 0.17749 0.1728-0.07503 0.54249-0.3241 0.41088-0.14041-0.07616-0.06384-0.44214 0.11592-0.49184zm-52.393 0.42823c0.09854-9.72e-4 0.18634 0.03251 0.23732 0.10976 0.45167 0.70048-1.1114 0.54045-0.52669 0 0.07952-0.07393 0.19027-0.10863 0.28948-0.10976zm45.617 0.32992c0.09631 0.03251 0.1561 0.12598 0.1561 0.3241 0 0.77966-1.2778 0.07503-0.52658-0.26049 0.14098-0.06384 0.27402-0.09521 0.37037-0.06384zm-14.566 0.1561c0.05375-0.03137 0.12979-0.03364 0.22576 0.03024 0.08175 0.05375 0.18849 0.42982-0.11592 0.44562-0.24001 0.01247-0.27111-0.38144-0.10976-0.47461zm-9.2768 0.45144c0.06048-0.02003 0.13127-0.01776 0.21423 0.03024 0.47393 0.27111-0.10303 0.61986-0.29508 0.46297-0.16653-0.13898-0.1019-0.43126 0.08062-0.49184zm14.798 0.17931c0.75472-0.09853-0.13841 1.9559-0.69444 0.85068-0.14098-0.2868-0.26643-0.3176 0.26609-0.65974 0.18074-0.11736 0.32051-0.17692 0.42823-0.19117zm-37.744 0.18524c0.04369-0.01474 0.09853-0.01247 0.1561 0.02343 0.341 0.20618-0.07503 0.48825-0.21423 0.36462-0.12499-0.11199-0.07393-0.33979 0.05824-0.38771zm1.7593 0.12152c0.297 0.09407 0.29239 0.69141 0.04033 0.81024-0.3932 0.18222-0.90734-0.37392-0.4398-0.70025 0.16831-0.11668 0.30037-0.14166 0.39924-0.10976zm18.033 0.22576c0.41368 0.14726-0.10863 0.76095-0.29508 0.32992-0.07839-0.17896 0.04592-0.41871 0.29508-0.32992zm-28.664 0.07503c0.09294-0.03137 0.21657 0.0025 0.3588 0.14457 0.04143 0.04256 0.28771 0.55288-0.2083 0.58448-0.44917 0.02343-0.42982-0.63687-0.15051-0.72917zm15.261 0.11592c0.7893 0.31054-0.38133 1.1488-0.4398 0.3009-0.01474-0.19643 0.23551-0.38356 0.4398-0.3009zm4.4849 0.1505c0.08289-0.06384 0.20977-0.07166 0.37619 0.03024 0.08398 0.05038 0.28211 0.30192 0.03477 0.47461-0.52647 0.3709-0.66019-0.31212-0.41088-0.50352zm-20.539 0.27761c0.73533 0.7371-1.3865 0.67584-0.43405 0.09294 0.15701-0.09744 0.36096-0.16419 0.43405-0.09294zm10.886 0.15599c0.10976-0.0018 0.22307 0.02683 0.27762 0.13898 0.44694 0.92223-1.6049 0.42823-0.52087-0.08735 0.03364-0.01776 0.13361-0.05038 0.24303-0.05265zm-17.703 0.65391c0.099669 0.04143 0.16619 0.14816 0.16778 0.3241 0.00907 0.72735-1.1193 0.10417-0.52669-0.26609 0.12598-0.07839 0.25959-0.09967 0.3588-0.05824zm71.836 0.13304c0.90084-0.13104 0.82736 2.0537-0.44562 1.4005-0.37415-0.19318-0.38201-0.89638 0-1.1864 0.16778-0.12836 0.31692-0.19529 0.44562-0.21423zm-12.68 0.04033c0.08062-0.03806 0.18849-0.03024 0.31828 0.05824 0.04929 0.03137 0.20448 0.68816-0.28355 0.625-0.29005-0.03806-0.27886-0.56982-0.03477-0.6829zm-11.447 0.35298c0.07839-0.03137 0.18343 0.01247 0.31258 0.18524 0.15678 0.21245 0.12654 0.3167-0.06384 0.4167-0.46127 0.24122-0.48255-0.50753-0.24885-0.60183zm-10.394 0.01247c0.0627 6e-3 0.12477 0.03919 0.19677 0.09294 0.90016 0.66722-1.0052 0.5838-0.39354-6e-3 0.07057-0.0683 0.13452-0.09294 0.19677-0.08735zm2.8878 0.3009c0.0683-0.01777 0.12443 3e-3 0.19117 0.10976 0.64337 1.0302-1.5323 0.43742-0.43405 0 0.09854-0.03919 0.17481-0.09294 0.24303-0.10976zm6.7365 0.09294c0.07729 0.01776 0.15557 0.08062 0.21423 0.12745 0.54359 0.43262-0.76882 0.59733-0.44562 0.01776 0.07616-0.13539 0.15376-0.16294 0.23135-0.14457zm-15.267 0.60765c0.58146 0.20739-0.1019 0.82445-0.37619 0.56139-0.15678-0.14907-0.01247-0.69927 0.37619-0.56139zm7.6103 0.06943c0.24828 0.04815 0.35132 0.53508 0.1505 0.65391-0.28211 0.16944-0.71091-0.25565-0.4398-0.52658 0.10976-0.11086 0.20652-0.14348 0.28948-0.12745zm16.401 0.03477c0.90814 0.29239-0.72187 1.316-0.55557 0.26049 0.03477-0.21895 0.32565-0.33352 0.55557-0.26049zm16.864 0c0.04592-0.04479 0.1194-0.05711 0.22576 6e-3 0.20886 0.12208 0.20327 0.44551 0.04592 0.49766-0.2913 0.09744-0.41077-0.36878-0.27202-0.50348zm-5.6948 0.24885c0.07616-0.0627 0.18456-0.07166 0.3241 0.01247 0.22198 0.13482 0.31726 0.60028-0.05265 0.70025-0.42566 0.11524-0.49857-0.52424-0.27202-0.71182zm-64.243 0.37619c0.42612 0.09967 0.45892 1.301-0.075026 1.4295-0.62266 0.14907-0.45881-1.5563 0.075026-1.4295zm10.284 0.08062c0.34391 0.13448 0.1064 0.55243-0.14457 0.52087-0.23317-0.03024-0.25781-0.6761 0.14457-0.52087zm34.232 0.01776c0.21245 0.07503 0.21366 0.31938 0.06943 0.42241-0.44887 0.31851-0.55122-0.59355-0.06943-0.42241zm-42.101 0.05824c0.11558-0.01474 0.24144 0.01776 0.3588 0.11592 0.49445 0.41202-0.4903 0.96982-0.75816 0.64821-0.21635-0.26049 0.052651-0.71775 0.39936-0.76386zm15.602 0.52669c0.73117-0.0627-0.33945 1.741-0.69443 0.6829-0.09294-0.27739 0.02683-0.39822 0.26049-0.52658 0.18524-0.09853 0.32958-0.14726 0.43406-0.1561zm-19.896 0.08735c0.069432 0.02683 0.13864 0.08958 0.2083 0.1505 0.72581 0.64809-1.0537 0.53924-0.43405-0.08735 0.082888-0.08289 0.15587-0.09071 0.22576-0.06384zm54.291 0.03477c0.08848-0.05375 0.22398-0.0087 0.40506 0.23139 0.03591 0.04479 0.21839 0.19465 0.06943 0.35298-0.5894 0.6287-0.74058-0.4232-0.47461-0.58448zm-4.2884 0.05824c0.0683 0.01777 0.15141 0.06943 0.26049 0.16766 0.15678 0.14098 0.29576 0.21298 0.19083 0.39354-0.4895 0.84864-0.93187-0.68884-0.45144-0.56139zm-33.792 0.22576c0.30506 0.11256 0.45367 0.72962-0.07503 0.71182-0.29073-0.0087-0.5409-0.33295-0.26049-0.61347 0.11668-0.11649 0.23407-0.13595 0.33563-0.09854zm45.874 0.24885c0.0683-0.0627 0.17424-0.07057 0.3241 0.01776 0.22198 0.13002 0.34202 0.38658 0.06943 0.54975-0.44346 0.26518-0.59756-0.37932-0.39354-0.5671zm-36.818 0.17371c0.06943-0.01247 0.15319 0.0091 0.24303 0.07503 0.43742 0.3297-0.2157 0.73767-0.42823 0.45715-0.12477-0.16619-0.02343-0.49275 0.18524-0.5324zm-20.145 0.03477c0.13663-0.01776 0.26159 0.02343 0.36462 0.17953 0.87642 1.3313-2.0708 0.80824-0.78707 0 0.13773-0.08735 0.28589-0.16237 0.42241-0.17953zm65.6 0.10976c0.06607 0.04033 0.12118 0.12677 0.19118 0.22576 0.53251 0.75759-1.2422 0.37842-0.46879-0.16203 0.13104-0.09185 0.21098-0.10303 0.27762-0.06384zm-55.459 0.09184c0.07839 0.0091 0.15466 0.05824 0.21423 0.10413 0.74172 0.56891-0.92737 0.68502-0.44562 0.01247 0.07166-0.1008 0.15319-0.1253 0.23139-0.11592zm12.014 0.2027c0.33631 0.20361 0.33408 0.95526-0.17953 0.98966-0.52938 0.03591-0.72894-0.70543-0.26609-0.96063 0.18108-0.1008 0.33352-0.09744 0.44562-0.03024zm9.9654 0.27202c0.06384 0.0091 0.12598 0.05375 0.19084 0.10413 0.5578 0.44853-0.83568 0.51562-0.39354-6e-3 0.07166-0.08398 0.13864-0.10863 0.2027-0.09854zm-33.259 6e-3c0.089578 0.03364 0.17035 0.12533 0.23135 0.19117 0.51517 0.55648-0.87552 0.5454-0.50923-0.05265 0.090712-0.15084 0.18815-0.17246 0.27762-0.13898zm21.552 0.2027c0.48739 0.04256-0.17371 1.42-0.54404 0.60183-0.13629-0.30415 0.03704-0.42298 0.26049-0.5324 0.12084-0.05824 0.21389-0.07503 0.28355-0.06943zm-7.6855 0.09853c0.08289-0.03251 0.18547-0.03251 0.29508 0.02343 0.45635 0.22957-0.03024 0.9855-0.38201 0.70025-0.26015-0.21155-0.16328-0.62455 0.08735-0.72335zm-8.1947 0.04033c0.04256-0.03919 0.28245-0.07503 0.39354 6e-3 0.12061 0.09071 0.17772 0.18199 0.17931 0.23732 0.0091 0.55614-0.99616 0.16094-0.57292-0.24303zm39.456 0.08735c0.02684 0.02343 0.04479 0.07839 0.09294 0.12745 0.44044 0.44842-0.7698 0.34213-0.23732-0.08062 0.07952-0.06384 0.11826-0.07056 0.14457-0.04592zm-32.281 0.2606c0.45658 0.14257-0.39777 0.7464-0.31828 0.1505 0.02117-0.14257 0.1804-0.1914 0.31828-0.1505zm13.571 0.08062c0.0683-0.0325 0.16203-0.02683 0.28355 0.05265 0.48179 0.31235-0.02343 0.7808-0.28948 0.61929-0.17481-0.10417-0.1979-0.5736 6e-3 -0.67126zm17.443 0.05824c0.05265-0.03024 0.12711-0.01776 0.22576 0.06943 0.21064 0.1869 0.19442 0.40038-0.10976 0.4398-0.22701 0.03137-0.27436-0.42377-0.11592-0.50923zm-9.8671 6e-3c0.07393-6e-3 0.14873 0.01247 0.21982 0.06384 0.45008 0.32165-0.27996 0.835-0.50349 0.43405-0.1307-0.23169 0.06048-0.47741 0.28355-0.49766zm-33.155 0.34727c0.38983 0.23139-0.18724 1.1097-0.41089 0.90855-0.18849-0.16619-0.00296-0.41088 0.012473-0.56139 0.00605-0.04369 0.017764-0.25187 0.040329-0.28355 0.098535-0.0963 0.25891-0.1242 0.3588-0.06384zm53.886 0.26609c0.0728-6e-3 0.16653 0.01474 0.28355 0.07503 0.27584 0.14098 0.39097 0.4429 0.21982 0.67126-0.51883 0.68649-1.0152-0.70596-0.50352-0.74652zm-57.292 0.41088c0.1739 0.01474 0.33956 0.08398 0.42823 0.17371 1.111 1.1189-1.9757 1.1284-0.92012 0 0.13482-0.14423 0.31794-0.18724 0.49185-0.17371zm3.918 0.27202c0.35041 0.09408-0.026835 0.52144-0.19117 0.4167-0.20002-0.13157-0.092942-0.49143 0.19117-0.4167zm-0.86233 0.05265c0.063838 5.36e-4 0.14907 0.03024 0.25456 0.09854 0.17772 0.11411 0.3325 0.26374 0.21982 0.47461-0.43285 0.80979-0.92359-0.57673-0.47461-0.57292zm9.5028 0.07503c0.05934-0.04256 0.14314-0.04033 0.26049 0.05265 0.10417 0.08398 0.23317 0.2504 0.04592 0.36454-0.39331 0.24356-0.48357-0.28982-0.30672-0.4167zm46.131 0.32992c0.30653 0.17897 0.14816 0.84822-0.2083 0.94328-0.45636 0.12352-0.95088-0.63384-0.26609-0.91441 0.21514-0.08848 0.37237-0.08848 0.4745-0.03024zm-48.357 0.03477c0.06497 2e-3 0.12979 0.03024 0.18524 0.06384 0.60047 0.35007-0.70989 0.63588-0.36462 0.04592 0.05038-0.08512 0.11468-0.11199 0.17953-0.10976zm32.825 0.03477c0.3317-0.01777 0.59756 0.21839 0.44562 0.63082-0.20293 0.55156-1.5605-0.05598-0.78707-0.52669 0.11086-0.0672 0.23082-0.09744 0.34145-0.10417zm-22.026 0.11849c0.07952-0.03024 0.17772-0.03024 0.23732 6e-3 0.3596 0.22307-0.3427 0.56623-0.37037 0.1793-6e-3 -0.09184 0.05375-0.155 0.13304-0.18524zm10.996 0.43987c0.61741 0.05824-0.01474 1.8539-0.60765 0.7986-0.22342-0.39788 0.02684-0.57662 0.26049-0.70025 0.14314-0.07616 0.25902-0.1064 0.34727-0.09853zm31.806 0.3241c0.20293-0.01776 0.6072 0.06607 0.26643 0.52087-0.3568 0.47552-0.98732-0.413-0.26643-0.52087zm-10.452 6e-3c0.20418 0.11256 0.2848 0.36239 0.17371 0.50348-0.46263 0.57685-0.79803-0.84921-0.17371-0.50348zm-39.112 0.26049c0.08848 0.01474 0.17806 0.06943 0.22576 0.11592 0.42479 0.40261-0.623 0.51505-0.44562 0.01776 0.04369-0.12118 0.13127-0.14782 0.21982-0.13304zm-14.509 0.06384c0.037041-0.02684 0.094075-0.02117 0.1736 0.03477 0.19318 0.13629 0.17213 0.54136-0.10976 0.43987-0.11199-0.03919-0.17515-0.39474-0.063838-0.47461zm71.987 0.43405c0.97564-0.16562-0.14098 2.5318-0.82177 0.92593-0.12533-0.3009-0.01247-0.4697 0.26643-0.65974 0.23203-0.16116 0.41614-0.24269 0.55557-0.26643zm-68.468 0.32992c0.059341-0.01474 0.13214 0.01474 0.21982 0.10417 0.014741 0.01474 0.17281 0.42868-0.21423 0.3588-0.21279-0.03919-0.18256-0.42286-0.00605-0.46297zm-3.646 0.02343c0.12889 0.02003 0.24953 0.09294 0.30676 0.13898 0.85896 0.67508-1.1768 0.87574-0.67127 0.02343 0.094075-0.15678 0.23551-0.18365 0.36462-0.16203zm54.612 0.66556c0.18278 0.1019 0.27739 0.28646 0.1505 0.45144-0.51044 0.66242-0.82404-0.82872-0.1505-0.45144zm-3.4202 0.08062c0.0381 3e-3 0.25188 0.0683 0.28355 0.10413 0.0627 0.06047 0.03477 0.36764 0.02343 0.39924-0.27493 0.79085-1.1847-0.53508-0.30676-0.50352zm-17.408 0.04033c0.09185-0.03704 0.20293-0.03024 0.31258 0.05265 0.71159 0.52624-0.64348 0.77271-0.49767 0.1736 0.02683-0.10749 0.09408-0.18936 0.18524-0.22576zm31.992 0.28344c0.50878 0.04929 0.86335 0.07393 0.96646 0.35298 0.22489 0.61181-0.57965 1.0953-0.96646 0.61347-0.25513-0.31862-0.70362-1.0218 0-0.96645zm-58.074 0.02343c0.66231 0.01776 0.39354 1.4036-0.47461 1.007-0.48179-0.22341-0.19174-0.76643 0.13304-0.92023 0.13361-0.0627 0.24681-0.08958 0.34145-0.08735zm22.68 0.8333c0.67081-0.04592 0.18399 1.4247-0.44562 0.91441-0.25838-0.2092-0.27145-0.59972 0.08735-0.79289 0.14604-0.07839 0.26306-0.11501 0.3588-0.12152zm-14.156 0.35298c0.36364 0.1064 0.48962 0.89086 0.09294 1.0417-0.30415 0.11736-0.96411-0.43798-0.52658-0.87385 0.16362-0.16419 0.31277-0.20327 0.43406-0.16766zm25.603 0.13304c0.3915 0.13773-0.01776 0.52669-0.19118 0.41088-0.18256-0.12208-0.05152-0.49657 0.19118-0.41088zm-18.693 0.18524c0.11615-0.0091 0.23226 0.03137 0.34727 0.13898 0.24503 0.22992 0.21635 0.50655-0.04033 0.68872-0.64662 0.4548-1.076-0.34077-0.66556-0.66556 0.12511-0.09854 0.24269-0.1541 0.3588-0.16203zm19.156 0.08062c0.04929-0.05265 0.14514-0.04702 0.28948 0.08735 0.10526 0.09744 0.21211 0.12677 0.12152 0.26609-0.32804 0.51225-0.55927-0.19442-0.41088-0.35298zm13.837 0.01247c0.10753 0.01777 0.19499 0.08398 0.24896 0.19677 0.47707 1.0142-1.5073 0.52231-0.61347-0.09294 0.13157-0.09071 0.25747-0.12061 0.36462-0.10417zm-19.775 0.10976c0.08512 6e-3 0.16687 0.05711 0.23732 0.10976 0.691 0.51649-1.0319 0.79746-0.49767 0.04592 0.08848-0.1242 0.17572-0.16362 0.26049-0.1561zm-37.327 0.36451c0.069432 0.02684 0.1372 0.08289 0.19117 0.1505 0.66076 0.83836-1.0297 0.28268-0.38772-0.13898 0.057111-0.03806 0.12711-0.03919 0.19677-0.01247zm1.5336 0.1505c0.05265-0.05038 0.14166-0.05824 0.27762 0.01247 0.19352 0.09854 0.18199 0.33563 0.069432 0.4167-0.32354 0.22935-0.5053-0.27761-0.34727-0.42823zm68.926 0.36451c0.08062-0.01776 0.15825-3e-3 0.22576 0.06384 0.36296 0.36296 0.03364 0.7876-0.4398 0.49766-0.25308-0.15587-0.02684-0.50753 0.21423-0.56139zm-57.167 0.17371c0.21457-6e-3 0.37751 0.34168 0.5903 0.7755 0.07952 0.23472-0.03591 0.15466-0.18524 0.1561-0.23113-0.01474-0.21211-0.09184-0.31828-0.1561-0.11086-0.0672-0.7314-0.22553-0.3241-0.64239 0.08735-0.08958 0.16562-0.13157 0.23729-0.13304zm-10.342 0.08062c0.18872 0 0.17424 0.20213 0.26609 0.27202 0.13954 0.10753 0.18365 6e-3 0.28355 0.1505 0.43103 0.61358-0.39452 0.67822-0.5324 0.38201-0.064934-0.14257-0.16506-0.15882-0.21423-0.27795-0.049287-0.14725-0.47049-0.52658 0.19677-0.52658zm62.519 0.1561c0.42937-0.11199 0.4531 1.066-0.2083 0.65974-0.19174-0.11883-0.1728-0.35245 0-0.52658 0.07726-0.07726 0.14692-0.11702 0.2083-0.13304zm-68.771 0.25456c-0.029103 3e-3 0.91819 0.2391 0.52669 0.91441-0.57987 1.0063-1.9942-0.76386-0.52669-0.91441zm10.909 0.43987c0.0683-0.03364 0.15769-0.02343 0.26643 0.06384 0.16506 0.13482 0.20739 0.5519-0.19677 0.54404-0.28177-6e-3 -0.2735-0.50519-0.06943-0.60765zm2.2223 0.06384c0.05934-0.02683 0.13777-0.02343 0.2083 6e-3 0.53731 0.21691-0.37672 0.71628-0.31828 0.1505 0.0091-0.07729 0.05038-0.13104 0.10976-0.1561zm12.361 0.27761c0.37898 0.09744 0.48224 0.69746 0.19083 0.8912-0.33764 0.22523-1.3957-0.3306-0.65392-0.78707 0.18309-0.1132 0.33665-0.13663 0.46297-0.10413zm26.616 0.08062c0.0728-1e-3 0.16472 0.02683 0.28355 0.09853 0.21245 0.12836 0.36991 0.36866 0.26049 0.55557-0.50473 0.87219-1.0511-0.64696-0.54393-0.65391zm-15.689 6e-3c0.10303-0.03024 0.23978 0.02117 0.39924 0.2027 0.0683 0.07726 0.28536 0.71216-0.24885 0.70025-0.47899-0.01247-0.4604-0.81126-0.1505-0.90284zm-16.048 0.01777c0.06161-0.02343 0.14672 3e-3 0.24896 0.12152 0.03704 0.0381 0.20561 0.24503-0.03024 0.33563-0.38167 0.14491-0.40552-0.38242-0.21982-0.45715zm-8.4263 0.28355c0.07839-0.05375 0.2456-0.03251 0.36462 0.08735 0.7241 0.74474-1.0984 0.41716-0.36462-0.08735zm64.178 0.09853c0.11702-0.01247 0.23317 0.02343 0.30672 0.14457 0.45647 0.74172-1.2363 0.62602-0.61347 0 0.07166-0.07166 0.18959-0.13248 0.30676-0.14457zm-16.407 6e-3c0.47865 0.18849 0.24738 0.78023-0.13304 0.74081-0.2456-0.02683-0.40586-0.95447 0.13304-0.74081zm-51.668 0.01776c0.71035-0.07503 0.4466 1.5339-0.49767 0.93758-0.2933-0.18365-0.12208-0.62972 0.13304-0.79289 0.14189-0.09071 0.26306-0.13395 0.36462-0.14457zm55.489 0.32981c0.11433 0.05375 0.18872 0.15735 0.19677 0.27761 0.06384 0.92873-1.4851 0.16506-0.61348-0.26643 0.14994-0.07166 0.30237-0.06493 0.41671-0.01247zm-49.173 0.08735c0.13954 0.02117 0.2747 0.1019 0.31258 0.3241 0.22016 1.2695-1.6302 0.38144-0.65403-0.26049 0.05934-0.03919 0.2018-0.08289 0.34145-0.06384zm36.923 0.58448c0.0672 0.0091 0.13104 0.03591 0.16203 0.10417 0.51649 1.1489-1.5971 0.20327-0.35298-0.08625 0.05152-0.01247 0.1242-0.02343 0.19118-0.01776zm11.684 0.10976c0.06943-0.02684 0.15557-0.01247 0.26643 0.06384 0.47079 0.31367-0.1008 0.67765-0.3241 0.53822-0.17715-0.10863-0.15107-0.52533 0.05824-0.60183zm-52.431 0.02343c0.04479-0.03024 0.11411-0.03024 0.2027 0.0291 0.13304 0.08735 0.23732 0.39297-0.06384 0.4167-0.21514 0.01776-0.27293-0.35589-0.13898-0.44562zm50.436 0.1505c0.17715-0.0022 0.35355 0.0683 0.46297 0.28355 0.73219 1.4374-2.223 0.79712-0.92023-0.13304 0.1019-0.0728 0.27996-0.14816 0.45715-0.1505zm-21.476 0.1736c0.15051-0.04256 1.147 0.07057 0.78707 0.78707-0.4344 0.85582-2.1801-0.38926-0.78707-0.78707zm4.6992 0.44562c0.0627-0.04592 0.15175-0.04815 0.27762 0.03477 0.28827 0.18849 0.30316 0.59522-0.08621 0.63082-0.29364 0.02343-0.3794-0.52824-0.19083-0.66556zm-40.06 0.08062c0.17749-0.1064 1.0565 0.17069 0.65392 0.78707-0.25981 0.39622-1.5209-0.28154-0.65392-0.78707zm-3.7443 0.06943c0.077256-0.02684 0.17481-0.01247 0.28948 0.06943 0.30751 0.21873-0.16237 0.74663-0.40506 0.57878-0.16653-0.11524-0.11433-0.56634 0.11592-0.64821zm69.054 0.19677c0.08735-0.0017 0.19083 0.05152 0.31258 0.19117 0.18222 0.21389-0.09185 0.78873-0.43988 0.50348-0.22576-0.18433-0.13595-0.6894 0.12745-0.69443zm-6.2561 0.13898c0.46732-0.02117 0.04479 1.2962-0.43406 0.625-0.17156-0.23944 0.02343-0.43137 0.17371-0.52669 0.10526-0.0672 0.19374-0.09517 0.26049-0.09854zm-40.937 0.57292c0.49914 0.01776 0.32388 1.209-0.34727 0.86232-0.34213-0.17606-0.19442-0.64227 0.09294-0.79289 0.09967-0.05375 0.18343-0.07166 0.25456-0.06943zm-20.903 0.06384c0.74765-0.04592 0.73231 1.7485-0.36462 1.198-0.40091-0.19968-0.21714-0.909 0-1.0533 0.1372-0.09408 0.25781-0.13807 0.36462-0.14457zm23.814 0.07503c0.05375-0.02117 0.12511-0.01777 0.21423 0.03477 0.32958 0.19643-0.07057 0.54774-0.24303 0.43987-0.13898-0.08735-0.13338-0.40809 0.03024-0.47461zm33.3 0.26643c0.76859-0.32331 0.1739 1.1202-0.26049 0.43405-0.22667-0.35801 0.09854-0.3661 0.26049-0.43405zm-37.605 0.05824c0.0672-0.0683 0.17156-0.08289 0.3241 0 0.14604 0.07952 0.23407 0.43084 0.06943 0.54975-0.4316 0.3091-0.59499-0.34527-0.39354-0.54975zm49.196 0.1505c0.06494-0.04592 0.15678-0.04256 0.28355 0.05824 0.17103 0.13807 0.15678 0.36621 0.01776 0.44562-0.40529 0.227-0.49445-0.36387-0.30094-0.50348zm-63.838 0.51505c0.075026-0.0627 0.1849-0.0728 0.3241 0.03024 0.19197 0.13807 0.22376 0.39554 0.098535 0.47461-0.55636 0.35411-0.64776-0.31715-0.42241-0.5036zm18.346 0.46297c0.0683-0.02117 0.14994-8.06e-4 0.23729 0.08735-0.0016-0.0016 0.13104 0.50462-0.24303 0.4398-0.27561-0.04929-0.19854-0.46799 6e-3 -0.52658zm27.559 6e-3c0.05598-0.01474 0.144 0.02117 0.3241 0.13304 0.97621 0.60296-1.0546 0.77229-0.47461 0.0291 0.06607-0.08398 0.09407-0.14816 0.1505-0.16203zm9.2885 0.08735c0.13898 0.07952 0.24212 0.42925 0.06943 0.54975-0.51649 0.35982-0.54011-0.8209-0.06943-0.54975zm-38.843 6e-3c0.09744 0.01474 0.18278 0.09408 0.21982 0.27761 0.15376 0.75449-1.1479 0.27024-0.52658-0.1736 0.09744-0.06943 0.20886-0.1197 0.30676-0.10417zm-8.785 0.03477c0.39486 0.0091 0.74754 0.45715 0.5324 0.81024-0.24088 0.39622-1.543-0.07503-0.92023-0.65391 0.12208-0.11346 0.256-0.15969 0.38772-0.1561zm62.16 6e-3c0.06493-3e-3 0.1392 0.03477 0.2027 0.13898 0.11411 0.19174 0.1262 0.38299-0.24303 0.30676-0.2913-0.05934-0.1541-0.43564 0.04033-0.44562zm-16.494 0.03477c0.07503-0.0325 0.18108-0.02003 0.3241 0.07503 0.08848 0.05824 0.24122 0.64462-0.2027 0.58448-0.27943-0.03806-0.34716-0.56082-0.12152-0.65973zm-51.774 0.12745c0.39845-0.0019-0.11086 1.2477-0.40506 0.52669-0.08285-0.20448-0.021166-0.31299 0.17931-0.43991 0.097439-0.06047 0.16887-0.08621 0.22576-0.08735zm28.444 0.19665c0.34247 0.12352 0.13954 0.69322-0.16766 0.66556-0.28389-0.02343-0.39958-0.86656 0.16766-0.66556zm-3.8658 0.48032c0.58169 0.07726 0.3633 1.4355-0.43406 1.1053-0.5372-0.22341-0.29632-0.86376 0.13304-1.0474 0.11649-0.05038 0.21782-0.06943 0.30094-0.05824zm-12.101 0.09185c0.32263 0.16865 0.30071 0.83352-0.08621 0.91441-0.40888 0.08289-0.95058-0.5643-0.35309-0.87967 0.18222-0.09517 0.33227-0.09071 0.4398-0.03477zm26.366 0.05265c0.33114 0.03704 0.64942 0.47831 0.47461 0.7755-0.21548 0.37248-1.43-0.02117-0.79289-0.65974 0.09631-0.0963 0.20796-0.12836 0.31828-0.11592zm14.925 0.08062c0.28827-0.05488 0.60274 0.14098 0.65392 0.41088 0.23139 1.2092-1.7078 0.52779-0.92012-0.26609 0.07952-0.07952 0.17012-0.12654 0.26609-0.14457zm-10.498 0.09294c0.33049 0.15016 0.39172 0.80801 0.10976 0.97802-0.4025 0.24088-1.2049-0.51705-0.52658-0.92593 0.16797-0.09967 0.30653-0.1019 0.41671-0.05265zm-21.644 0.03477c0.24088 0.08512 0.10303 0.4596-0.11592 0.4398-0.20595-0.02003-0.27584-0.5793 0.11592-0.4398zm-24.393 0.37662c0.22667-0.09854 0.74126 0.04815 0.52087 0.52658-0.2205 0.48179-1.2562-0.20977-0.52087-0.52658zm59.318 0.13898c0.03704-0.05711 0.11615-0.0728 0.24885 0.01247 0.13482 0.08735 0.22342 0.19945 0.15051 0.31828-0.25422 0.41852-0.51112-0.15735-0.39936-0.32981zm8.5072 6e-3c0.05824-0.02684 0.1372-0.02117 0.21423 6e-3 0.54854 0.19643-0.38144 0.74001-0.31828 0.1505 0.0091-0.07389 0.04592-0.1307 0.10417-0.1561zm-32.628 0.08062c0.0627-0.04033 0.15701-0.01247 0.28948 0.1561 0.04369 0.05375 0.11086 0.15678 0.04592 0.23135-0.40763 0.48009-0.52412-0.26552-0.33563-0.38772zm25.146 0.02343c0.78741-0.17246 0.69444 1.6308-0.30676 1.169-0.27739-0.12677-0.40684-0.70709-0.08735-0.96063 0.14816-0.11758 0.2812-0.18365 0.39354-0.2083zm-59.522 0.05824c0.066068-0.06161 0.17606-0.0683 0.3241 0.03024 0.17303 0.11086 0.35154 0.36821 0.069432 0.54404-0.43285 0.27236-0.59299-0.38828-0.39354-0.57292zm5.2431 0.19665c0.68034-0.18365 0.8463 1.3874-0.19118 0.98384-0.27728-0.10749-0.37574-0.56343-0.13304-0.78707 0.11615-0.10863 0.22701-0.17069 0.3241-0.19677zm9.4041 0.13304c0.06048-0.03806 0.14423-0.02684 0.24897 0.05824 0.13304 0.10976 0.24269 0.42041-0.08735 0.49184-0.31726 0.07057-0.34504-0.43685-0.16203-0.54975zm39.244 0.24896c0.0627 0.0061 0.14423 0.03806 0.24303 0.10413 0.14434 0.09631 0.27077 0.29186 0.15051 0.44562-0.45076 0.57416-0.83534-0.59915-0.39354-0.54975zm-44.354 0.2083c0.08289-0.03024 0.18256-0.02343 0.27202 0.02343 0.63396 0.32834-0.43039 0.83643-0.42241 0.2027 0.0024-0.12208 0.0672-0.19465 0.1505-0.22576zm21.737 0.27761c0.07839-0.02683 0.1739-0.01474 0.28355 0.05824 0.43428 0.29005-0.16094 0.74606-0.40506 0.58448-0.19499-0.1307-0.11524-0.56128 0.12152-0.64239zm-8.6633 0.11592c0.2027 0.0728 0.18993 0.35835 0.01776 0.44562-0.41516 0.21245-0.45322-0.60081-0.01776-0.44562zm-1.8346 0.24303c0.74474-0.18634 1.0553 1.7615-0.2027 1.1458-0.31054-0.1505-0.43205-0.6064-0.13898-0.92011 0.12095-0.12745 0.23494-0.19911 0.34145-0.22576zm41.383 0.72917c0.06607-0.04033 0.16744-0.03364 0.30094 0.06943 0.13002 0.1019 0.12329 0.31571-0.01247 0.39354-0.38515 0.21748-0.48704-0.34225-0.28948-0.46297zm-65.448 0.09853c0.61884 0.07166 0.014741 1.5812-0.60765 0.94328-0.29946-0.3091-0.18074-0.68861 0.26643-0.87385 0.14189-0.05934 0.25309-0.07952 0.34145-0.06943zm51.071 0.03477c0.15376-0.01247 0.29508 0.0672 0.42823 0.34145 0.8257 1.7006-2.5415 0.72592-0.92023-0.13304 0.17269-0.09071 0.3382-0.19529 0.49196-0.2083zm7.4191 0.17931c0.28914-0.0728 0.57228 0.1019 0.63664 0.42241 0.21064 1.0555-1.7031 0.48447-0.92023-0.26049 0.08958-0.08398 0.18724-0.1375 0.28355-0.16203zm-5.5848 0.82177c0.05711-0.03806 0.13841-0.03024 0.24303 0.05824 0.15859 0.13482 0.23351 0.27943-6e-3 0.39354-0.35188 0.16653-0.40832-0.33877-0.23732-0.45144zm-19.555 0.09854c0.08175 0.0091 0.18399 0.05265 0.30676 0.14457 0.20739 0.15701 0.43878 0.27909 0.18524 0.59612-0.69186 0.85839-1.0667-0.80328-0.49196-0.74081zm-16.835 0.20835c0.08175-0.0091 0.16203 0.01776 0.23732 0.05824 1.0808 0.55636-1.0188 0.84539-0.46879 0.09184 0.06943-0.09631 0.1493-0.14098 0.23139-0.1505zm44.861 0.38772c0.398 0.14257-0.02343 0.52926-0.19117 0.4167-0.17447-0.11592-0.07166-0.50878 0.19117-0.4167zm-61.317 0.08062c0.11558-0.02683 0.25422-0.0091 0.36462 0.04592 0.83991 0.43428-0.72032 1.0854-0.59031 0.18524 0.021166-0.13161 0.10976-0.20418 0.22576-0.23139zm42.457 0.28355c0.05488-0.06493 0.15587-0.07839 0.31258 0.01247 0.18524 0.10749 0.2261 0.26518 0.12152 0.39354-0.3568 0.43262-0.59881-0.2092-0.43405-0.40506zm3.7443 0.1505c0.07839-0.0061 0.16922 0.02683 0.26049 0.10976 0.4596 0.41761-0.26934 0.67293-0.48032 0.42241-0.15466-0.17953-0.01474-0.51671 0.21982-0.5324zm12.651 0.41088c0.0728-0.02683 0.16419-0.0018 0.26609 0.10976 0.09967 0.10749 0.17628 0.42748-0.16778 0.46297-0.36731 0.03806-0.31749-0.49286-0.09853-0.57295zm8.7733 0.03024c0.15969 0.03024 0.30169 0.11199 0.34145 0.19117 0.45008 0.90004-1.4859 0.64227-0.78707-0.08735 0.10976-0.11411 0.2857-0.13482 0.44562-0.10413zm-47.219 0.04592c0.20202 0.17481 0.09967 0.79478-0.30676 0.63657-0.2569-0.10303-0.17572-0.50507 0-0.61918 0.13361-0.08512 0.23944-0.07503 0.30676-0.01776zm18.027 0.05824c0.05488 0.02683 0.09967 0.09967 0.14457 0.13898 0.41191 0.3709-0.62568 0.42332-0.33575-0.03477 0.07503-0.12061 0.13595-0.13214 0.19118-0.10417zm17.547 0.08062c0.04369-0.06047 0.12979-0.0728 0.28355 0.01776 0.1253 0.07393 0.23135 0.18365 0.15051 0.31828-0.2747 0.46127-0.56442-0.15285-0.43406-0.33563zm-48.379 0.04592c0.08625 6e-3 0.18724 0.04479 0.30094 0.12745 0.38367 0.27739 0.26106 0.67909 6e-3 0.83915-0.84173 0.52556-0.9115-1.0157-0.30672-0.96645zm23.751 0.17931c0.06161 0.0061 0.14348 0.03364 0.24303 0.09853 0.16094 0.10303 0.33261 0.18668 0.18524 0.39936-0.43666 0.63241-0.86233-0.54034-0.42823-0.49766zm-3.808 0.10976c0.46913-0.18547 0.82177 0.02003 0.90273 0.48614 0.20123 1.168-1.151 1.2484-1.3253 0.48614-0.1064-0.46588-0.01776-0.79962 0.42241-0.97227zm12.5 0.31828c0.07503-0.0024 0.1671 0.02683 0.28355 0.09294 0.14669 0.08289 0.38156 0.33506 0.18524 0.5903-0.57405 0.74474-0.99647-0.66578-0.46879-0.6829zm20.863 0.24303c0.11502-0.01474 0.23082 0.03024 0.31258 0.16203 0.46274 0.74485-1.2172 0.64821-0.61347 0 0.07166-0.07726 0.18611-0.1485 0.30094-0.16203zm-8.7272 0.23732c0.11086-0.02343 0.21604 0.01776 0.31258 0.18524 0.6577 1.1411-1.8679 0.7481-0.65403 0 0.1197-0.07503 0.23113-0.16181 0.34145-0.18524zm16.465 0.03024c0.49219-0.12677 0.5061 1.2523-0.23732 0.76968-0.15678-0.1019-0.16003-0.45344 0-0.61347 0.08958-0.08958 0.1671-0.13807 0.23732-0.1561zm-38.061 0.13293c0.0672-3e-3 0.14726 0.02117 0.24303 0.07503 0.31681 0.17749 0.4062 0.52076 0.14457 0.70611-0.63789 0.45492-0.85707-0.75872-0.38772-0.78125zm41.308 0c0.20709 0.0728 0.15848 0.44112-0.03477 0.46879-0.27168 0.04033-0.36935-0.61291 0.03477-0.46879zm-59.144 0.14457c0.26877 0.09071 0.48168 0.58191 0.16774 0.6829-0.32645 0.10417-0.76141-0.26968-0.43988-0.61347 0.08398-0.08958 0.18256-0.09967 0.27202-0.06943zm11.748 0.72917c0.13954 0.0061 0.26786 0.02343 0.27762 0.03024 0.16203 0.07952 0.27818 0.1962 0.05824 0.35298-0.10303 0.0728-0.13988 0.24144-0.32992 0.29508-0.32154 0.09185-0.62402-0.31613-0.35298-0.60765 0.05934-0.06497 0.20773-0.07393 0.34727-0.06943zm13.334 0.24896c0.28355 0.09967 0.29632 0.48818 0.09854 0.63082-0.66095 0.48493-0.80049-0.87967-0.09854-0.63082zm2.3727 0.01776c0.0672 0.0026 0.13505 0.03137 0.18524 0.06384 0.56252 0.35321-0.67463 0.59465-0.37037 0.04592 0.04815-0.08512 0.11792-0.11256 0.18524-0.10976zm13.218 0.42823c0.19711 0.04592 0.34572 0.18634 0.38772 0.42241 0.23619 1.3217-2.1294 0.50194-1.0533-0.26049 0.22194-0.15848 0.46845-0.20773 0.66556-0.16203zm-17.726 0.17931c0.30101 0.11736 0.34304 0.45076 0.10976 0.625-0.57541 0.42793-0.78348-0.88493-0.10976-0.625zm20.967 0.25456c0.14605 0.03477 0.26227 0.15285 0.30676 0.38201 0.24715 1.271-1.7776 0.40676-0.78707-0.26049 0.15935-0.10749 0.33438-0.15678 0.48032-0.12152zm-52.911 0.01776c0.22901 0.07616 0.24356 0.51637 0.05265 0.59612-0.31088 0.13002-0.68884-0.3046-0.35298-0.52658 0.12477-0.08289 0.22455-0.09521 0.30094-0.06943zm27.443 0.21423c0.07952-0.0728 0.20505-0.08958 0.37619 0.01247 0.22198 0.13161 0.32308 0.36454 0.06943 0.54975-0.52076 0.3839-0.68593-0.3438-0.44562-0.56128zm9.4737 0.26609c0.22542 0.02117 0.42691 0.30932 0.30094 0.52087-0.1615 0.26786-0.96143 7.75e-4 -0.52087-0.4398 0.0683-0.0683 0.14491-0.08735 0.21982-0.08062zm-26.419 0.69443c0.42623 0.13595 0.70766 0.83341 0.24885 1.0533-0.60531 0.29152-1.2819-0.509-0.70026-0.96063 0.15175-0.11826 0.30933-0.13777 0.45144-0.09294zm46.773 0.18524c0.0672-0.03137 0.15935-0.01776 0.27202 0.07503 0.13954 0.11256 0.23528 0.51819-0.13898 0.51505-0.31379-0.0024-0.33363-0.49634-0.13304-0.5903zm-30.95 0.08735c0.06493-0.01247 0.15051 1.43e-4 0.26049 0.04592 0.2157 0.09184 0.36508 0.37022 0.26049 0.55557-0.42725 0.76681-0.9778-0.51694-0.52087-0.60194zm8.322 0.10417c0.905 0.44528-0.54763 1.1682-0.55557 0.32992-3e-3 -0.20414 0.30989-0.45042 0.55557-0.32992zm-22.68 0.53823c0.05824 0.0091 0.1242 0.04592 0.19677 0.11592 0.36935 0.3503-0.1541 1.0365-0.29508 1.0127-0.37305 0.04479-0.31133-1.1915 0.09854-1.1285zm38.571 0.05824c1.0016 0.51671-0.74742 1.4318-0.71182 0.34145 0.0087-0.28086 0.42812-0.48727 0.71182-0.34145zm-20.024 0.07503c0.13482 0.04256 0.28623 0.19049 0.17371 0.36462-0.31526 0.49275-0.73465-0.54359-0.17371-0.36462zm26.123 0.08062c0.05934-0.0627 0.15735-0.06607 0.31258 0.05824 0.14726 0.11592 0.2747 0.21782 0.12745 0.39354-0.39701 0.4754-0.6165-0.26193-0.43988-0.45144zm-48.508 0.08062c0.07503-0.03477 0.17213-0.01474 0.30094 0.08062 0.12208 0.09071 0.17012 0.69386-0.21982 0.61929-0.28982-0.05375-0.30653-0.59692-0.08062-0.70025zm45.715 0.03477c0.17371-3e-3 0.33563 0.05488 0.42823 0.18524 0.87162 1.2251-1.9836 0.95247-0.92023 0 0.13161-0.11649 0.31817-0.18165 0.49196-0.18524zm-50.25 0.56139c0.2868 0.20384 0.51135 0.91932 0.38772 1.0417-0.57844 0.67833-0.92862-0.81281-0.68291-1.0301 0.09854-0.08621 0.19945-0.07952 0.29508-0.01247zm35.412 0.01776c0.12352 0.05824 0.21604 0.18581 0.21982 0.32992 0.01776 0.70362-1.1063 0.22523-0.61348-0.26609 0.11502-0.11501 0.2699-0.12174 0.39354-0.06384zm-29.133 0.17371c0.36723-0.06493 0.48784 1.0665-0.1736 0.63657-0.17897-0.11736-0.14582-0.36508 0-0.52669 0.06048-0.06607 0.12118-0.1008 0.1736-0.10976zm-2.3438 0.34716c0.65524 3e-3 -0.10863 1.6777-0.63657 0.72917-0.18074-0.32656 0.06493-0.51773 0.26609-0.61929 0.15644-0.07952 0.27671-0.11086 0.37033-0.10976zm17.489 0.33563c0.19465 0.1064 0.26193 0.3046 0.14457 0.44562-0.48795 0.59121-0.75793-0.78337-0.14457-0.44562zm5.7526 0.19677c0.25097 0.08848 0.32229 0.55356 0.12745 0.67708-0.27584 0.17749-0.95069-0.26609-0.43405-0.61347 0.11917-0.07952 0.22308-0.09294 0.30676-0.06384zm30.898 0.06943c0.11411-6e-3 0.21839 0.03024 0.27762 0.12745 0.54998 0.90016-1.4724 0.62447-0.61348 0 0.09744-0.07166 0.22164-0.12095 0.33563-0.12745zm-35.447 0.25456c0.04815-0.03024 0.11849-0.02683 0.21982 0.03477 0.14582 0.09071 0.23385 0.38514-0.05824 0.4167-0.22489 0.02003-0.30672-0.36137-0.16203-0.45144zm18.797 0.14457c0.07616-0.0011 0.15791 0.03591 0.25456 0.09294 1.3075 0.74874-1.3515 1.021-0.46879 0.03024 0.0728-0.08062 0.13864-0.12061 0.21423-0.12152zm12.593 0.10976c0.12329 0.05375 0.20093 0.18108 0.12745 0.38772-0.15198 0.42612-1.121 0.04033-0.52658-0.35298 0.1064-0.07057 0.27618-0.08848 0.39924-0.03477zm4.8901 0c0.04815-0.05038 0.1327-0.05711 0.26049 0.02343 0.05152 0.03364 0.19945 0.13248 0.06943 0.28914-0.29958 0.3625-0.47518-0.16294-0.32992-0.31258zm2.4538 0.13304c0.1197 0.04033 0.21366 0.14132 0.23139 0.27202 0.08848 0.66094-1.0366 0.25097-0.61347-0.17371 0.11649-0.11736 0.26227-0.13864 0.38201-0.09854zm-13.913 0.27202c0.14816 0.05711 0.24504 0.2326 0.17371 0.37037-0.31212 0.59423-0.71246-0.5829-0.17371-0.37037zm-42.827 0.24896c0.13304 0.05375 0.21536 0.20773 0.15051 0.31246-0.31367 0.50878-0.64182-0.50923-0.15051-0.31246zm5.4922 0.04033c0.09071 0.01776 0.16203 0.09517 0.2027 0.26609 0.17606 0.7529-1.346 0.22901-0.52669-0.17367 0.12443-0.0627 0.23385-0.10863 0.3241-0.09184zm18.415 0.54393c0.16184-0.09517 0.76938 0.15084 0.4398 0.61347-0.32645 0.45647-1.0881-0.23135-0.4398-0.61347zm-15.255 0.06943c0.0728 0.0087 0.15523 0.04479 0.24897 0.12152 0.21457 0.17269 0.29421 0.47181 0.02343 0.67138-0.74943 0.55186-0.77766-0.84732-0.27202-0.79289zm39.085 0.18524c0.12711 0.01474 0.23729 0.08512 0.29508 0.2083 0.48493 1.0411-1.5513 0.52813-0.70026-0.08735 0.13395-0.09631 0.27796-0.13663 0.40506-0.12152zm-14.208 0.1505c0.12677 0.04592 0.27675 0.21366 0.1736 0.37037-0.31681 0.48636-0.72985-0.56679-0.1736-0.37037zm-27.946 0.15611c0.44169 0.06607-0.01776 1.1449-0.50934 0.65403-0.27259-0.27236 0.07952-0.54192 0.26609-0.61347 0.1019-0.04033 0.17984-0.05038 0.24303-0.04033zm13.779 0.33563c0.04256-0.06493 0.13395-0.08398 0.28914 0 0.14434 0.07616 0.25781 0.24212 0.17371 0.37033-0.28861 0.44089-0.59106-0.17572-0.46297-0.37033zm-26.187 0.18524c0.12768-0.01247 0.256 0.02343 0.3241 0.08735 0.54359 0.5025-0.98494 0.94733-0.625 0.10413 0.050383-0.11826 0.17337-0.17862 0.3009-0.19117zm31.187 0.04592c0.63373 0.22489-0.45356 0.84237-0.36462 0.17371 0.01474-0.12352 0.22198-0.22432 0.36462-0.17371zm16.551 0.2083c0.04143-0.04479 0.12564-0.03251 0.26643 0.09294 0.12533 0.11411 0.21782 0.12027 0.12745 0.26609-0.25566 0.41482-0.5174-0.22542-0.39354-0.3588zm-26.609 0.08735c0.30192 0.06384 0.56778 0.4102 0.31828 0.65974-0.23619 0.23619-1.2379-0.23139-0.61348-0.61347 0.09185-0.05598 0.19443-0.0672 0.29508-0.04592zm37.559 0.22576c0.07057 3e-3 0.15198 0.05265 0.23732 0.16774 0.24413 0.33699-0.25838 0.68672-0.48032 0.3588-0.09854-0.14638 0.03024-0.53709 0.24303-0.52669zm-14.185 0.06943c0.07839 0.0091 0.15017 0.06161 0.2027 0.11592 0.34236 0.35166-0.78148 0.4802-0.44562 0.01776 0.07952-0.10976 0.16472-0.14314 0.24303-0.13304zm-42.74 0.07503c0.27674 0.02117 0.47057 0.41054 0.31828 0.64821-0.18849 0.29791-1.0842-0.08062-0.61348-0.52658 0.1008-0.09517 0.20293-0.12832 0.29508-0.12152zm7.3847 0.10976c0.10417 0.01474 0.19049 0.08062 0.2083 0.24303 0.1019 0.92087-1.3302 0.22251-0.52658-0.1736 0.09071-0.04479 0.21389-0.08398 0.31828-0.06943zm14.277 0.4977c0.05598 0.0029 0.11199 0.03024 0.16778 0.05824 0.61181 0.33665-0.65346 0.55938-0.31258 0.01776 0.03806-0.06047 0.08958-0.07839 0.14457-0.07503zm-1.7999 0.07503c0.10303 0.02117 0.19318 0.09631 0.17953 0.28355-0.06384 0.81462-1.3384-0.01247-0.4398-0.26609 0.03704-0.01247 0.15701-0.03919 0.26049-0.01776zm16.679 0.01247c0.08062-0.0061 0.16476 0.02683 0.22576 0.07503 0.57855 0.45983-0.64821 0.70966-0.41671 0.06943 0.03477-0.09631 0.11086-0.1392 0.19084-0.14457zm6.5569 0.09853c0.11736-0.04929 0.21457-0.02117 0.26049 0.26049 0.07057 0.44044 0.48882 0.23494 0.4398 0.52658-0.08289 0.49936-0.83288 0.64303-1.0533 0.08735-0.09967-0.24235 0.13104-0.77868 0.35298-0.87385zm-16.922 0.3588c0.16528 0.04592 0.30876 0.14548 0.33563 0.29508 0.18872 1.0444-1.6302 0.35445-0.78707-0.26049 0.1008-0.0728 0.28593-0.08062 0.45144-0.03477zm-7.396 0.13898c0.45189 0.07057 0.22432 1.3079-0.41089 0.83915-0.30438-0.22489-0.0627-0.67126 0.17371-0.78707 0.09294-0.04592 0.17269-0.0627 0.23729-0.05265zm39.913 0.07503c0.46577-0.06493 0.01776 1.2686-0.43406 0.56128-0.11592-0.18074 0.02117-0.32142 0.17371-0.43405 0.1064-0.07616 0.19374-0.11792 0.26049-0.12745zm-37.738 0.09853c0.25063-0.02343 0.54461 0.26374 0.48032 0.49196-0.09967 0.35007-1.0091 0.13036-0.70026-0.35298 0.05824-0.09185 0.13629-0.13104 0.21982-0.13898zm13.623 0.14457c0.16328 0.06493 0.20954 0.27349 0.04592 0.37033-0.35634 0.2092-0.45356-0.53353-0.04592-0.37033zm18.357 0.06943c0.60531 0.21536-0.48402 0.84664-0.37619 0.17931 0.02003-0.12677 0.23203-0.23135 0.37619-0.17931zm-42.687 0.77543c0.11324 0.01474 0.20561 0.08175 0.24303 0.19117 0.25656 0.75906-1.298 0.36073-0.61348-0.09294 0.12511-0.08289 0.25724-0.11377 0.37037-0.09853zm24.318 0.40506c0.11792-0.01776 0.24896 0.02003 0.3241 0.09294 0.51192 0.47998-0.71976 0.7913-0.57878 0.14457 0.03137-0.14669 0.13686-0.22016 0.25456-0.23732zm-17.049 0.33563c0.08398 0.02003 0.18309 0.07839 0.29508 0.17931 0.13157 0.12208 0.24681 0.5166 0.02343 0.66556-0.81674 0.53667-0.90889-0.99692-0.31828-0.84497zm-11.152 0.23733c0.481-0.03024 0.06493 1.3799-0.4398 0.63664-0.16797-0.24235 0.01776-0.41886 0.17931-0.52669 0.10753-0.07393 0.19174-0.1064 0.26049-0.10976zm18.253 0.63664c0.13482 0.05375 0.21064 0.2157 0.1505 0.31258-0.2868 0.46285-0.67508-0.5231-0.1505-0.31258zm-8.2294 0.8333c0.08958-0.0016 0.3399 0.06161 0.19084 0.35298-0.16831 0.30426-0.20202 0.46981-0.3588 0.57292-0.16003 0.10749-0.92851 0.59522-1.2327-0.22576-0.25838-0.70362 0.43696-0.68449 1.4005-0.70025zm25.568 6e-3c0.09071 0.0013 0.1719 0.02343 0.22576 0.08062 0.35177 0.36462-0.88784 1.1555-0.86815 0.34727 6e-3 -0.2261 0.36923-0.43228 0.64239-0.42823zm-23.739 0.08735c0.35926 0.22307 0.23528 1.0244-0.26049 1.0706-0.59579 0.05375-0.87162-0.77596-0.26609-1.0533 0.23169-0.10413 0.40684-0.09184 0.52669-0.01776zm16.071 0.3241c0.04929-0.04142 0.12945-0.03704 0.24885 0.05824 0.14582 0.11411 0.22992 0.21714 0.04592 0.36462-0.30316 0.24001-0.44449-0.29768-0.29508-0.42241zm-4.4331 0.02343c0.13841 0.06161 0.23082 0.19911 0.1736 0.44562-0.14423 0.63241-1.3399-0.09294-0.60765-0.4398 0.11645-0.05598 0.29542-0.0672 0.43405-6e-3zm-24.833 0.4167c0.07616 0.0091 0.17337 0.05152 0.28948 0.13898 0.21536 0.16184 0.39924 0.33775 0.18524 0.59612-0.60868 0.73219-1.0075-0.80722-0.47461-0.73499zm6.4413 0.26609c0.34886 0.20448 0.39388 0.77966-0.05824 0.89702-0.55168 0.14725-0.49207-1.2218 0.05824-0.89702zm26.112 0.31828c0.05152-0.03251 0.12004-0.03704 0.2083 0.01776 0.08958 0.05375 0.18792 0.41614-0.10976 0.4398-0.23887 0.01776-0.25456-0.35816-0.09854-0.45715zm-6.2617 0.19117c0.04033-0.05265 0.11467-0.06493 0.23135 6e-3 0.1728 0.10417 0.2326 0.2857 0.12152 0.39354-0.28771 0.27818-0.47438-0.24054-0.35298-0.39936zm9.2307 0.85068c0.09294-0.04479 0.20384-0.01474 0.34145 0.13304 0.17749 0.19027-0.1197 1.2212-0.53822 0.90284-0.15319-0.11649-0.08062-0.90095 0.19677-1.0359zm-14.804 0.34727c0.07839-0.04369 0.19374-0.03806 0.34727 0.05824 0.37078 0.23472 0.2018 0.77172-0.25456 0.70025-0.25188-0.03919-0.328-0.62749-0.09294-0.75804zm-7.286 0.32981c0.4073 0.13304-0.05934 0.69825-0.27202 0.38771-0.12061-0.17572-0.0091-0.4782 0.27202-0.38771zm-8.2642 0.23146c0.06607-0.06161 0.17246-0.07725 0.31828 0 0.20123 0.10749 0.23385 0.36451 0.04033 0.49766-0.41123 0.28298-0.55772-0.31303-0.3588-0.49766zm23.172 0.85068c0.77846-0.17715-0.03024 2.0136-0.61347 0.93746-0.16978-0.31053-0.02117-0.54661 0.17931-0.70025 0.18108-0.13841 0.32274-0.21189 0.43406-0.23729zm13.525 0.12745c0.04479-0.03477 0.1129-0.03477 0.2083 0.02343 0.14582 0.08848 0.24001 0.31412-6e-3 0.39354-0.24972 0.08062-0.33654-0.3139-0.2027-0.4167zm-34.752 0.27202c0.06161-0.02684 0.14491-4.83e-4 0.24885 0.12152 0.06943 0.07952 0.08625 0.29096-0.03477 0.34145-0.37328 0.15935-0.398-0.38647-0.21423-0.46297zm23.537 1.6726c0.05375-0.03251 0.12979-0.03251 0.23139 0.03477 0.23944 0.15859 0.09854 0.65448-0.19677 0.54975-0.15701-0.05598-0.19586-0.48602-0.03477-0.58448zm-1.2153 0.12152c0.10863-0.01247 0.227 0.02003 0.29508 0.07503 0.43587 0.34572-0.64239 0.71114-0.52658 0.12152 0.02343-0.12352 0.12329-0.18399 0.23135-0.19677zm-11.604 0.43405c0.09517-0.02343 0.21805 6e-3 0.37033 0.12152 0.47865 0.36318-0.15557 0.9333-0.44562 0.70025-0.24001-0.19374-0.21064-0.752 0.07503-0.82177zm9.1842 0.08062c0.08398-3e-3 0.17572 0.02684 0.26049 0.09853 0.51819 0.43987-0.3362 0.83768-0.56128 0.45715-0.15319-0.25656 0.04815-0.54661 0.30094-0.55557zm-11.627 0.21982c0.13214-0.0014 0.26106 0.06161 0.36462 0.1505 1.0079 0.87185-1.3943 1.2025-0.73499 0.08735 0.1019-0.17212 0.23819-0.23585 0.37037-0.23732zm6.5974 0.3009c0.55962-0.1019 0.46822 1.211-0.27762 0.84498-0.32947-0.16328-0.23944-0.5239 0-0.70607 0.1064-0.08062 0.1979-0.12443 0.27762-0.13898zm8.2064 0.43405c0.28827 0.03704 0.20002 0.48527-6e-3 0.52087-0.24269 0.04143-0.37316-0.56982 6e-3 -0.52087z"/></svg>
