<svg xmlns="http://www.w3.org/2000/svg" width="80" height="80"><path d="M40.001 0C17.911 0 0 17.908 0 39.999 0 62.089 17.91 80 40.001 80 62.092 80 80 62.09 80 39.999 80 17.908 62.092 0 40.001 0zM35.37 9.445l.253 2.893 2.526 1.433-2.676 1.134-.582 2.844-1.903-2.189-2.888.324 1.499-2.488-1.203-2.645 2.83.653 2.144-1.959zm15.17 2.412l1.002 2.726 2.812.719-2.283 1.797.185 2.898-2.414-1.617-2.704 1.07.795-2.794-1.85-2.235 2.9-.114 1.557-2.45zm-30.414 7.945l4.265 4.176 5.859-1.147-2.655 5.348 2.9 5.217-5.907-.874-4.067 4.371-.992-5.887-5.414-2.515 5.29-2.767.72-5.922zm30.94 4.34l5.814 3.1 5.834-3.034-1.154 6.48 4.695 4.616-6.52.911-2.941 5.887-2.883-5.92-6.507-.977 4.74-4.57-1.078-6.493zm-12.976.84l2.673 1.767 2.969-1.202-.853 3.088 2.06 2.452-3.199.142-1.696 2.718-1.126-2.999-3.108-.772 2.506-1.997-.226-3.196zM15.504 37.41l.461 3.305 2.987 1.486-3.002 1.457-.491 3.298-2.318-2.4-3.288.553 1.567-2.944-1.54-2.958 3.283.58 2.341-2.377zm35.747 2.361l.825 2.678 2.673.835-2.29 1.61.032 2.801-2.242-1.68-2.655.896.909-2.65-1.673-2.248 2.801.043 1.62-2.285zm-15.856.083l1.235 3.1 3.252.735-2.566 2.128.309 3.32-2.822-1.776-3.065 1.319.822-3.235-2.199-2.505 3.328-.22 1.706-2.866zm25.378 3.103l2.381 2.228 3.179-.704-1.382 2.946 1.653 2.807-3.235-.398-2.159 2.438-.615-3.197-2.989-1.3L60.46 46.2l.314-3.243zm-16.011 4.607l4.24 5.044 6.547-.646-3.485 5.586 2.64 6.029-6.391-1.58-4.925 4.369-.469-6.568-5.674-3.33 6.1-2.478 1.417-6.426zm-15.912 9.41l1.235 3.1 3.25.734-2.564 2.131.309 3.32-2.822-1.779-3.065 1.319.822-3.235-2.202-2.505 3.331-.218 1.706-2.867z" fill="#000000"/></svg>
