<svg xmlns="http://www.w3.org/2000/svg" width="80" height="80"><path d="M35.465 79.928c-13.091-1.413-25.37-10.085-31.437-22.2C1.19 52.058-.006 46.818 0 40.074c.008-8.536 2.056-15.304 6.756-22.327C14.167 6.672 26.586 0 39.789 0c10.996 0 20.643 4.01 28.433 11.815C76.187 19.797 80 28.938 80 40.053c0 4.921-.346 7.082-1.982 12.382-3.175 10.281-10.599 18.756-20.725 23.661-5.338 2.585-9.917 3.701-15.843 3.86-2.517.068-5.21.055-5.985-.028zm1.062-7.918c.126-.397.038-.953-.196-1.235-.937-1.133-2.723-.165-2.28 1.235.161.507.53.723 1.238.723s1.077-.216 1.238-.723zm12.612-.748c.481-.77-.262-1.706-1.354-1.706-.906 0-1.32.986-.803 1.912.406.728 1.648.61 2.157-.206zm-19.685-.618c1.146-1.27-.632-2.935-1.84-1.724-.612.615-.517 1.604.194 2.02.847.494.95.476 1.646-.296zm13.728-.243c.719-.277.718-1.683-.001-2.282-1.098-.914-2.473.857-1.54 1.983.468.567.718.615 1.54.299zm13.92-2.77c.543-.655.359-1.6-.405-2.083-.456-.288-.765-.222-1.32.282-.87.79-.894 1.034-.172 1.759.69.692 1.347.707 1.898.042zm-4.629-1.895c-.085-.733-.324-.972-1.065-1.057-.788-.091-.998.058-1.196.85-.177.708-.076 1.08.388 1.42.944.692 2.013 0 1.873-1.213zm-19.171.13c1.397-1.3 1.312-3.34-.194-4.611-.91-.768-1.359-.911-2.355-.749-1.775.289-2.6 1.267-2.6 3.082 0 1.2.193 1.675.947 2.326 1.27 1.096 2.991 1.076 4.202-.049zm9.367-.522c.704-1.319-.457-2.483-1.772-1.777-.766.411-.89 1.399-.257 2.034.634.636 1.62.511 2.029-.257zm-16.956-.449c.65-.651.503-1.627-.31-2.063-.586-.314-.87-.27-1.409.218-.818.744-.836.997-.121 1.714.661.663 1.267.707 1.84.131zm-4.76-1.073c.515-1.442-1.832-2.344-2.558-.983-.528.99.754 2.312 1.733 1.786.366-.197.737-.558.825-.803zm27.802-.407c.39-.296.616-.945.616-1.762 0-1.025-.176-1.373-.854-1.683-1.194-.545-2.626-.099-3.02.942-.79 2.08 1.502 3.84 3.258 2.503zm5.01-1.14c.686-.688.583-1.506-.257-2.036-1.316-.831-2.722 1.224-1.467 2.144.817.599 1.032.585 1.724-.108zm7.154.149c.987-.99.027-2.66-1.289-2.24-.887.282-1.2 1.12-.74 1.983.41.767 1.395.892 2.029.257zm-22.18-.353c.752-.755.508-2.013-.437-2.251-1.105-.278-1.604.044-1.604 1.036 0 .845.596 1.638 1.232 1.638.213 0 .577-.19.81-.423zm-11.76-1.397c.966-1.382-.645-2.827-1.829-1.64-.613.615-.518 1.604.194 2.02.876.512 1.04.474 1.635-.38zm39.824.038c.48-1.513-1.562-2.345-2.413-.984-.266.426-.24.744.095 1.148.67.808 2.041.711 2.318-.164zm-44.54-2.787c0-1.23-.434-1.578-1.604-1.283-.602.152-.86.462-.86 1.034 0 1.062.257 1.288 1.467 1.288.869 0 .997-.134.997-1.039zm28.253.547c.922-.703.786-1.924-.244-2.183-.474-.12-1.028-.113-1.233.014-.503.312-.471 1.713.05 2.237.524.524.657.518 1.427-.068zm6.98-.54c.702-.705 1.029-1.386 1.029-2.146 0-1.415-1.658-3.178-2.989-3.178-2 0-3.32 1.279-3.337 3.235-.009 1.017.22 1.487 1.072 2.206 1.467 1.239 2.913 1.198 4.225-.118zm-43.387.368c.634-.403.385-1.82-.405-2.302-.518-.316-.765-.233-1.315.439-1.13 1.38.204 2.827 1.72 1.863zm20.313-.416c.126-.205.132-.761.014-1.236-.156-.622-.457-.862-1.083-.862-.626 0-.927.24-1.083.862-.28 1.123.046 1.61 1.083 1.61.461 0 .942-.169 1.069-.374zm10.359-.14c.235-.284.32-.843.189-1.255-.185-.584-.473-.72-1.347-.635-.736.072-1.151.322-1.23.743-.26 1.373 1.501 2.219 2.388 1.148zM29.226 56.65c1.126-.791 1.08-2.77-.08-3.532-1.118-.735-1.886-.56-2.77.628-.603.811-.65 1.102-.304 1.864.34.749 1.339 1.465 2.186 1.567.102.012.538-.225.968-.527zm32.749.125c1.001-1.004.022-2.657-1.321-2.23-1.189.379-.75 2.654.511 2.654.213 0 .578-.19.81-.424zm-22.99-2.582c0-.912-1.075-1.502-1.847-1.015-.846.535-.942 1.35-.241 2.052.514.516.679.527 1.338.088.413-.275.75-.781.75-1.125zm29.633-.023c.274-.717-.523-1.56-1.473-1.56-1.214 0-1.61 1.33-.675 2.268.616.618 1.788.232 2.148-.708zm-18.86-1.272c.471-.884-.155-1.701-1.303-1.701-1.11 0-1.599 1.656-.686 2.326.74.542 1.492.306 1.989-.625zm-28.752-.138c.304-.305.553-.69.553-.857 0-.322-.988-1.412-1.28-1.412-.596 0-1.536.829-1.536 1.354 0 1.344 1.308 1.873 2.263.915zm-4.853-.708c1.277-1.955-.89-4.128-2.84-2.847-1.706 1.12-.828 3.757 1.252 3.757.679 0 1.181-.288 1.588-.91zm25.395.008c1.603-1.127.692-3.688-1.312-3.688-1.23 0-1.896.769-1.896 2.187 0 1.811 1.66 2.587 3.208 1.5zm19.723-.228c.6-.602.522-1.603-.156-1.984-.81-.454-1.823-.114-2.08.698-.416 1.314 1.251 2.274 2.236 1.286zm-30.886-.841c.62-.749.021-1.7-1.16-1.843-.982-.12-1.484.65-1.137 1.746.257.811 1.657.87 2.297.097zm-20.648-.008c.848-.327.724-2.157-.165-2.44-1.342-.427-2.322 1.226-1.32 2.23.48.481.699.512 1.485.21zm16.682-1.065c.122-1.26-.618-1.769-1.717-1.179-1.276.685-.554 2.592.902 2.383.507-.073.738-.414.815-1.204zm9.37.711c.75-.288.708-1.8-.06-2.197-1.294-.667-2.645.856-1.646 1.858.606.607.872.66 1.706.34zm35.405-.483c.296-.554.227-.844-.331-1.405-.799-.8-1.645-.634-1.968.387-.467 1.474 1.574 2.377 2.3 1.018zm-19.077-.079c.604-.605.522-1.934-.134-2.187-1.572-.604-2.614.533-1.695 1.85.597.854 1.203.966 1.83.337zm4.052-.257c1.938-.739 1.293-3.91-.796-3.91-1.38 0-2.193.885-2.06 2.244.073.75.384 1.235.987 1.539 1.061.535.838.52 1.869.127zm-8.914-1.077c.296-.555.225-.845-.348-1.42-.573-.574-.863-.646-1.416-.349-.717.385-.855.935-.483 1.909.303.79 1.8.698 2.247-.14zm17.241-.335c.704-1.32-.457-2.483-1.772-1.777-.765.41-.89 1.398-.256 2.034.633.635 1.618.51 2.028-.257zM19.73 47.24c1.239-1.242-.337-2.865-1.704-1.754-.667.542-.723.752-.373 1.407.452.847 1.417 1.008 2.077.347zm4.509-1.19c.277-1.108-.208-1.663-1.314-1.505-.94.134-1.281 1.134-.647 1.9.685.828 1.706.621 1.96-.396zm16.275.245c.259-.165.417-.679.352-1.142-.095-.675-.33-.843-1.175-.843s-1.08.168-1.175.843c-.113.8.41 1.441 1.175 1.441.194 0 .564-.135.823-.3zm9.744-.766c.482-1.523-1.556-2.424-2.306-1.02-.288.54-.28.86.03 1.236.634.764 2.007.634 2.276-.216zm-14.44-.828c0-1.27-.928-1.967-1.73-1.298-.573.476-.755 1.828-.307 2.277.138.138.653.204 1.144.147.726-.085.893-.296.893-1.126zm-24.833.332c.838-1.014-.319-2.568-1.557-2.092-1.281.493-.864 2.605.514 2.605.34 0 .81-.231 1.043-.513zm4.872-.93c.142-1.22-.692-1.918-1.667-1.394-1.316.706-.637 2.623.853 2.409.466-.067.745-.415.814-1.015zm53.865-.19c.123-1.26-.618-1.768-1.716-1.178-1.276.685-.555 2.592.901 2.383.508-.073.739-.414.815-1.204zm-9.45.414c.697-.843.107-2.019-.949-1.891-1.193.144-1.796 1.092-1.174 1.844.578.699 1.565.72 2.123.047zm-30.433-1.27c.47-1.487-1.551-2.434-2.28-1.068-.542 1.015-.084 1.791 1.056 1.791.694 0 1.064-.219 1.224-.723zm24.613.168c.304-.305.553-.69.553-.857 0-.453-1.045-1.412-1.539-1.412-1.213 0-1.708 1.831-.661 2.443.835.488 1.006.47 1.647-.174zm10.059-.857c.903-.905.895-1.927-.022-2.846-.95-.954-2.353-.773-3.236.419-.586.79-.622 1.05-.246 1.765.242.461.615.955.828 1.098.716.48 1.966.276 2.676-.436zm-18.025-.07c1.138-1.142-.618-3.088-1.856-2.057-1 .832-.422 2.48.87 2.48.31 0 .753-.19.986-.424zm-21.569-.656c.127-.205.133-.762.014-1.236-.156-.623-.457-.863-1.082-.863-.626 0-.927.24-1.083.863-.281 1.123.046 1.609 1.083 1.609.46 0 .942-.168 1.068-.373zm11.622-1.267c1.118-1.21 1.162-3.115.098-4.251-.592-.632-1.145-.817-2.44-.817-1.447 0-1.774.14-2.403 1.025-1.621 2.283-.259 4.942 2.545 4.966 1.002.008 1.553-.223 2.2-.923zm36.61.56c.126-.205.13-.77.008-1.257-.178-.713-.407-.864-1.174-.775-.967.112-1.382.899-1 1.897.225.588 1.825.688 2.165.136zm-30.52-1.019c.157-1.113-.828-1.903-1.754-1.406-.645.346-.897 1.733-.405 2.227.138.138.653.204 1.144.147.642-.075.928-.347 1.015-.968zm-22.213-1.773c.986-1.464.985-1.738-.012-3.226-.687-1.026-1.033-1.214-2.387-1.304-1.323-.087-1.725.046-2.436.804-1.125 1.202-1.14 3.033-.032 4.215 1.476 1.576 3.62 1.36 4.867-.49zm-10.544.27c.634-.636.509-1.623-.258-2.035-.375-.2-.76-.365-.855-.365-.293 0-1.28 1.09-1.28 1.412 0 .453 1.044 1.412 1.538 1.412.238 0 .623-.19.855-.423zm45.654-.148c.686-.688.583-1.506-.257-2.036-1.315-.831-2.722 1.224-1.467 2.144.817.599 1.032.585 1.724-.108zm13.005.358c.847-.326.724-2.156-.165-2.44-1.342-.427-2.322 1.227-1.32 2.23.479.481.699.512 1.485.21zm-18.525-1.269c1.001-1.004.022-2.657-1.32-2.23-1.19.379-.751 2.654.51 2.654.213 0 .578-.19.81-.424zm10.861.154c.4-.256.598-.923.517-1.736-.063-.63-1.414-.935-1.995-.451-1.279 1.064.084 3.08 1.478 2.187zM26.864 36.16c.62-.75.022-1.7-1.159-1.844-.983-.118-1.484.65-1.138 1.746.257.812 1.657.871 2.297.098zm37.575.135c.522-.523.554-1.925.05-2.237-.204-.126-.758-.133-1.231-.014-1.039.262-1.196 1.738-.245 2.293.8.468.922.464 1.426-.042zm-21.216-.655c.126-.206.13-.772.008-1.259-.178-.713-.406-.863-1.177-.774-.793.092-.975.306-1.066 1.258-.102 1.065-.034 1.148.947 1.148.582 0 1.161-.168 1.288-.373zM31.24 34.07c0-.889-.153-1.076-.956-1.169-.77-.09-.999.061-1.178.774-.3 1.199.08 1.693 1.199 1.563.78-.09.935-.283.935-1.167zm28.116-.047c1.542-1.547 1.19-3.993-.721-5.014-1.302-.696-2.558-.483-3.659.621-1.094 1.098-1.292 2.24-.637 3.682.822 1.808 3.539 2.193 5.017.71zm-21.774-.146c.482-1.522-1.556-2.424-2.306-1.02-.288.541-.28.86.031 1.236.633.765 2.006.634 2.275-.216zm9.95-.532c1.536-1.08.615-3.694-1.297-3.682-1.165.007-1.637.326-1.946 1.318-.343 1.104.073 2.195.976 2.56 1.096.444 1.392.418 2.267-.196zm-35.547-1.098c.085-.879-.05-1.167-.633-1.353-1.372-.436-2.35 1.212-1.328 2.237.803.805 1.843.337 1.96-.884zm10.491.386c.275-1.099-.206-1.664-1.281-1.505-1.839.273-1.64 2.413.224 2.413.598 0 .893-.254 1.057-.908zm49.45.349c.597-.722.04-1.69-1.069-1.854-1.075-.16-1.556.406-1.281 1.505.265 1.059 1.599 1.257 2.35.349zm-19.563-1.736c0-.876-.157-1.077-.91-1.165-1.232-.144-1.913.693-1.38 1.693.286.535.672.719 1.345.64.79-.09.945-.281.945-1.168zm-10.939-.731c.304-.305.553-.691.553-.858 0-.453-1.045-1.412-1.539-1.412-1.212 0-1.708 1.832-.661 2.443.835.488 1.006.47 1.647-.173zm-22.791-.376c.539-1.409-1.626-2.556-2.33-1.235-.207.386-.28.952-.163 1.257.288.753 2.203.736 2.493-.022zm16.245-.434c.157-1.114-.395-1.6-1.5-1.321-.647.162-.906.461-.906 1.045 0 1.071.31 1.342 1.395 1.215.633-.074.928-.348 1.011-.94zm27.895.452c.617-.746.001-1.735-1.08-1.735-1.083 0-1.699.99-1.081 1.735.254.308.74.56 1.08.56.34 0 .826-.252 1.08-.56zm5.47-1.055c.277-1.108-.207-1.662-1.314-1.505-1.502.214-1.318 2.413.202 2.413.657 0 .943-.234 1.112-.908zm-38.748-.664c1.007-1.01 1.068-1.51.317-2.586-.612-.875-2.53-1.088-3.255-.361-.724.727-.512 2.65.36 3.264 1.074.754 1.571.692 2.578-.317zm-5.061-.36c.725-1.595-1.338-2.807-2.16-1.269-.47.884-.465.93.19 1.587.797.8 1.515.684 1.97-.317zm25.284-.178c.54-1.012-.755-2.31-1.764-1.77-.78.42-.912 1.404-.273 2.044.638.641 1.62.509 2.037-.274zm-37.162-1.27c.654-.655.66-.703.188-1.586-.63-1.183-2.451-.641-2.451.73 0 .67.67 1.412 1.277 1.412.238 0 .681-.25.986-.555zm42.947-.38c.29-.758-.412-1.889-1.173-1.889-.892 0-1.543.881-1.276 1.726.357 1.128 2.037 1.24 2.449.163zm-13.526-.771c0-1.481-1.811-1.988-2.499-.7-.35.655-.294.866.373 1.407.912.74 2.126.337 2.126-.707zm-24.858-.967c.116-.305.043-.871-.163-1.257-.705-1.321-2.869-.174-2.33 1.235.29.757 2.205.775 2.493.022zm19.02.341c.849-.326.725-2.156-.163-2.44-1.444-.459-2.424 1.516-1.128 2.273.753.44.626.423 1.292.167zm28.869 0c.848-.326.725-2.156-.164-2.44-1.343-.427-2.322 1.227-1.321 2.23.48.482.699.513 1.485.21zm-5.051-.698c.334-.404.36-.722.095-1.147-.851-1.362-2.893-.53-2.414.983.277.876 1.65.973 2.319.164zm-36.498-.61c.315-.52.233-.768-.437-1.32-.95-.78-2.168-.406-2.168.666 0 1.459 1.837 1.92 2.605.654zm28.164-.353c.315-.52.233-.768-.437-1.32-.949-.78-2.168-.406-2.168.666 0 1.459 1.837 1.92 2.605.654zm-19.667-.263c.127-.205.133-.762.014-1.236-.155-.62-.457-.863-1.077-.863-1.083 0-1.838 1.217-1.219 1.965.489.59 1.948.676 2.282.134zm13.718-1.216c0-.94-.118-1.06-1.051-1.06-.735 0-1.089.193-1.174.64-.22 1.145.225 1.71 1.255 1.591.818-.094.97-.277.97-1.17zm-6.579-2.03c-.09-.944-.26-1.148-.952-1.148-.973 0-1.658.88-1.338 1.718.14.362.627.577 1.311.577 1.017 0 1.082-.076.98-1.147zm-17.162.429c1.364-.732.423-2.76-1.062-2.288-.806.257-.98 1.547-.299 2.23.513.513.513.513 1.361.058zm39.211-.42c1.151-1.648.331-3.452-1.57-3.452-1.047 0-2.106 1.066-2.106 2.119 0 1.056 1.06 2.118 2.112 2.118.651 0 1.213-.282 1.564-.784zm-43.663-.488c.913-.352.697-1.856-.303-2.107-1.109-.28-1.605.044-1.605 1.047 0 1.23.6 1.563 1.908 1.06zm30.393-1.408c1.411-1.583.94-3.92-.994-4.923-1.474-.765-3.272-.111-4.015 1.459-.641 1.356-.654 1.614-.137 2.753.502 1.104 2.318 2.04 3.474 1.79.484-.104 1.237-.59 1.672-1.079zm5.299.492c.633-.635.509-1.623-.257-2.034-1.315-.706-2.476.458-1.772 1.777.41.768 1.395.893 2.029.257zm-26.51-1.518c0-.94-.118-1.06-1.051-1.06-.735 0-1.089.193-1.174.64-.22 1.145.226 1.71 1.255 1.591.818-.094.97-.277.97-1.17zm8.163.468c1.456-1.372.653-3.47-1.327-3.47-1.944 0-2.776 2.131-1.38 3.532.91.91 1.693.893 2.707-.062zm5.673-1.068c1.067-1.07-.385-2.988-1.537-2.03-.52.434-.687 1.8-.27 2.218.373.375 1.346.273 1.807-.188zm17.105-1.077c.452-.72-.05-1.787-.923-1.96-.548-.108-1.678.796-1.678 1.342s1.13 1.45 1.678 1.342c.294-.059.71-.384.923-.724zm-34.882-1.011c.565-.905.036-1.725-1.112-1.725-1.136 0-1.61.878-1.033 1.912.402.72 1.646.612 2.145-.187zm9.549-1.927c.304-.305.553-.691.553-.858 0-.453-1.045-1.412-1.54-1.412-1.1 0-1.665 1.588-.854 2.401.574.575 1.18.532 1.84-.131zm-4.037-.832c.2-.374.264-.939.143-1.255-.31-.81-2.37-.586-2.532.275-.277 1.463 1.699 2.273 2.389.98zm24.833-1.261c0-.855-.166-1.083-.86-1.181-1.126-.16-1.898.83-1.391 1.78.248.465.66.644 1.307.57.79-.092.944-.283.944-1.17zM47.435 8.65c0-.941-.117-1.059-1.056-1.059-.845 0-1.08.168-1.175.843-.134.95.48 1.5 1.527 1.366.528-.068.704-.356.704-1.15zm-8.287.202c.704-1.319-.456-2.483-1.772-1.777-.765.411-.89 1.399-.256 2.034.634.636 1.619.511 2.028-.257z"/></svg>