<svg xmlns="http://www.w3.org/2000/svg" width="80" height="80"><path d="M38.2 79.984a40.126 40.126 0 0 1-9.467-1.576c-7.286-2.123-13.912-6.38-18.934-12.163C2.461 57.795-.973 46.797.24 35.623a39.878 39.878 0 0 1 8.838-20.991 41.837 41.837 0 0 1 4.788-4.913 40.029 40.029 0 0 1 15.414-8.266A40.324 40.324 0 0 1 44.667.27a39.802 39.802 0 0 1 20.535 8.673 35.603 35.603 0 0 1 3.023 2.732c2.119 2.118 3.781 4.165 5.357 6.594 4.77 7.353 6.97 16.027 6.3 24.838-.769 10.127-5.372 19.553-12.92 26.459a39.912 39.912 0 0 1-17.841 9.408c-2.247.524-4.295.82-6.854.988-.568.037-3.443.054-4.067.023zm-8.636-4.936a3.77 3.77 0 0 0 2.835-2.465c.141-.403.189-.662.205-1.12a3.378 3.378 0 0 0-.377-1.766 3.58 3.58 0 0 0-.77-1.058c-.513-.502-1.111-.82-1.853-.984-.376-.083-1.105-.083-1.49 0-1.57.343-2.709 1.521-2.983 3.086a4.73 4.73 0 0 0 .002 1.229c.226 1.37 1.237 2.548 2.546 2.967.627.2 1.242.237 1.885.111zm21.635.004c1.51-.296 2.653-1.444 2.98-2.995.07-.325.068-1.108-.001-1.43a3.734 3.734 0 0 0-1.029-1.916 3.75 3.75 0 0 0-5.354-.006 3.77 3.77 0 0 0-.685 4.327c.176.354.388.647.69.954a3.74 3.74 0 0 0 3.399 1.066zm-18.373-9.887a3.111 3.111 0 0 0 1.724-.912 3.05 3.05 0 0 0 .904-1.797c.23-1.519-.695-3.031-2.161-3.528-.337-.115-.596-.153-1.027-.153-.448 0-.649.03-1.017.15a3.228 3.228 0 0 0-2.166 3.693 3.255 3.255 0 0 0 2.89 2.587c.269.024.543.011.853-.04zm14.828-.002a3.242 3.242 0 0 0 2.601-2.623c.05-.289.05-.795 0-1.085a3.236 3.236 0 0 0-3.307-2.685c-.375.015-.624.06-.943.17-.6.208-1.15.615-1.539 1.14-1.036 1.396-.753 3.42.625 4.468a3.226 3.226 0 0 0 2.563.615zm-34.656-4.014a3.825 3.825 0 0 0 1.96-1.064 3.698 3.698 0 0 0 1.028-1.97 4.6 4.6 0 0 0 .004-1.31 3.729 3.729 0 0 0-1.044-1.996 3.69 3.69 0 0 0-1.955-1.056c-.335-.068-1.133-.067-1.447.002-1.37.302-2.443 1.265-2.85 2.56-.24.76-.235 1.574.013 2.328.351 1.068 1.235 1.97 2.307 2.352.214.076.636.177.85.204.205.025.927-.007 1.134-.05zm55.834-.024c1.483-.351 2.569-1.498 2.868-3.025.07-.355.063-1.014-.013-1.38a3.749 3.749 0 0 0-.932-1.818 3.733 3.733 0 0 0-2.798-1.212 3.643 3.643 0 0 0-2.638 1.108 3.736 3.736 0 0 0-1.028 1.922 4.198 4.198 0 0 0 0 1.44c.34 1.6 1.53 2.745 3.138 3.018.342.057 1.05.031 1.403-.053zM44.724 56.51c.598-.121 1.181-.54 1.524-1.096.556-.9.439-2.077-.282-2.846-.459-.49-.958-.725-1.599-.756a2.762 2.762 0 0 0-.515.018 2.433 2.433 0 0 0-1.948 1.795c-.075.286-.069.87.012 1.16a2.44 2.44 0 0 0 1.565 1.655c.399.135.81.158 1.243.07zm-9.13-.001a2.75 2.75 0 0 0 .771-.313c.183-.111.515-.42.647-.602.524-.723.61-1.67.225-2.45a2.079 2.079 0 0 0-.462-.639 2.322 2.322 0 0 0-1.695-.7c-.46 0-.853.11-1.26.355-.192.115-.58.501-.715.71-.877 1.365-.164 3.203 1.403 3.613.308.08.768.091 1.086.026zM21.6 55.636c.873-.2 1.668-.78 2.107-1.54.456-.79.558-1.813.264-2.66a3.234 3.234 0 0 0-2.546-2.156c-.342-.057-.915-.038-1.225.04-1.229.306-2.103 1.159-2.433 2.37-.065.24-.071.305-.072.774-.001.447.006.544.059.754a3.275 3.275 0 0 0 2.73 2.469c.254.036.853.009 1.116-.051zm37.292.038a3.166 3.166 0 0 0 1.807-.928c.628-.636.94-1.393.937-2.282a3.172 3.172 0 0 0-1.825-2.898 3.006 3.006 0 0 0-1.555-.316c-1.186.055-2.19.712-2.724 1.781a3.036 3.036 0 0 0-.34 1.474c.001.861.317 1.63.918 2.237a3.239 3.239 0 0 0 2.782.932zm-30.198-5.056a2.428 2.428 0 0 0 1.712-1.688c.052-.183.06-.275.06-.632 0-.486-.031-.634-.212-1.013-.369-.773-1.08-1.255-1.989-1.348-.243-.025-.63.028-.923.127-.73.244-1.264.803-1.518 1.586-.068.21-.075.265-.076.648-.001.36.007.448.06.633.21.733.752 1.33 1.457 1.608.428.168.963.197 1.429.08zm22.882.052a2.484 2.484 0 0 0 1.513-.903 2.35 2.35 0 0 0 .495-1.429 2.293 2.293 0 0 0-.332-1.266c-.145-.248-.536-.643-.789-.794a2.38 2.38 0 0 0-3.256.76c-.139.216-.238.45-.316.747-.068.258-.062.833.013 1.111.192.721.702 1.32 1.362 1.6.18.076.449.153.643.184.138.022.5.016.667-.01zm-14.05-1.323c.389-.082.73-.342.89-.678a1.24 1.24 0 0 0-.219-1.425c-.655-.694-1.802-.437-2.118.476-.046.132-.053.207-.045.43.015.365.098.573.33.821.31.333.726.467 1.162.376zm4.914-.012c.946-.249 1.268-1.427.578-2.115a1.236 1.236 0 0 0-1.803.028 1.251 1.251 0 0 0 .008 1.746c.324.33.778.457 1.217.341zm-8.49-3.142c.344-.101.615-.342.775-.688a.94.94 0 0 0 .096-.412c.023-.42-.101-.737-.402-1.02-.274-.256-.522-.345-.922-.329-.23.01-.28.021-.465.11-.387.186-.644.531-.714.956-.086.527.2 1.066.696 1.313.316.156.575.176.937.07zm12.208.016c.366-.099.654-.334.814-.667.31-.642.061-1.362-.58-1.682-.193-.096-.233-.106-.472-.116-.21-.008-.298 0-.444.046a1.246 1.246 0 0 0-.888 1.204c0 .55.338 1.02.867 1.206.165.057.506.062.703.009zm-19.144-4.56c.759-.151 1.452-.742 1.734-1.476a2.22 2.22 0 0 0 .151-.962 2.292 2.292 0 0 0-.706-1.581 2.383 2.383 0 0 0-2.534-.525c-.4.158-.77.437-1.031.782a2.394 2.394 0 0 0-.469 1.68c.171 1.422 1.46 2.363 2.855 2.083zm26.343-.014a2.5 2.5 0 0 0 .768-.339c1.237-.83 1.407-2.583.354-3.647-1.057-1.07-2.84-.888-3.674.374a2.28 2.28 0 0 0-.385 1.308 2.363 2.363 0 0 0 1.633 2.253c.434.141.849.158 1.304.05zm-20.269-.205c.425-.108.78-.496.876-.96a1.279 1.279 0 0 0-.667-1.38c-.633-.323-1.395-.059-1.714.595-.101.206-.103.213-.102.52 0 .262.01.337.062.467.169.427.558.734 1.016.8.174.026.3.016.53-.042zm13.956.001c.219-.066.34-.137.51-.302.183-.175.297-.364.354-.585.166-.645-.19-1.3-.828-1.525a1.401 1.401 0 0 0-.778-.003 1.27 1.27 0 0 0-.868 1.378c.075.489.42.888.901 1.043.154.05.536.046.709-.006zm-28.045-.392a3.051 3.051 0 0 0 1.602-.872c.324-.323.457-.505.64-.875.221-.451.315-.876.314-1.431 0-.874-.312-1.63-.928-2.253-1.624-1.642-4.406-1.088-5.281 1.05a3.222 3.222 0 0 0 .749 3.55 3.213 3.213 0 0 0 2.904.831zm42.55.017c1.345-.222 2.392-1.283 2.631-2.666.078-.45.028-1.042-.128-1.527-.252-.78-.861-1.487-1.617-1.871a3.29 3.29 0 0 0-2.485-.174c-.92.3-1.694 1.074-2.024 2.024a3.236 3.236 0 0 0 .225 2.598c.549.974 1.482 1.563 2.639 1.667.16.014.505-.01.76-.051zm-52.23-1.221a3.756 3.756 0 0 0 2.945-3.24c.194-1.594-.703-3.198-2.163-3.868-.537-.246-.924-.327-1.57-.327-.555 0-.711.023-1.174.175a3.783 3.783 0 0 0-2.536 2.9c-.056.29-.049 1.126.012 1.415.282 1.332 1.214 2.392 2.476 2.817.238.08.489.138.81.187.195.03.966-.008 1.2-.06zm62.912-.467a3.652 3.652 0 0 0 2.2-1.1 3.698 3.698 0 0 0 1.027-1.93 3.96 3.96 0 0 0-.056-1.662c-.514-1.942-2.478-3.153-4.436-2.735-1.486.317-2.656 1.539-2.924 3.054-.056.319-.056.92 0 1.248.088.506.311 1.061.606 1.503.186.28.613.719.898.924.51.368 1.218.645 1.818.71.207.022.64.016.867-.012zm-27.501-2.182c.307-.116.593-.405.714-.721.081-.214.099-.565.039-.778a1.263 1.263 0 1 0-2.47.518c.133.801.953 1.27 1.717.981zm-9.245.044c.573-.154.994-.75.93-1.317a1.31 1.31 0 0 0-1.059-1.156c-.368-.068-.82.083-1.101.367-.663.67-.385 1.8.514 2.092.184.06.523.066.716.014zm4.676-1.685c.325-.127.595-.397.725-.725.051-.13.06-.205.061-.478 0-.31-.003-.332-.085-.507a1.272 1.272 0 0 0-1.566-.667c-.213.074-.29.122-.466.286-.707.662-.397 1.85.558 2.133.177.052.59.03.773-.042zm-8.51-1.812c1.569-.369 2.32-2.24 1.442-3.592a2.361 2.361 0 0 0-1.906-1.09c-.96-.048-1.82.472-2.24 1.353a2.346 2.346 0 0 0 .176 2.365c.144.215.39.465.597.606.58.396 1.244.519 1.93.358zm16.902.054a2.413 2.413 0 0 0 1.986-1.766c.083-.306.083-.878 0-1.185-.273-1.018-1.127-1.721-2.164-1.784a2.372 2.372 0 0 0-2.442 1.788c-.112.447-.085.985.07 1.406a2.38 2.38 0 0 0 2.55 1.54zm-8.293-3.182c.801-.205 1.413-.796 1.675-1.617.061-.191.076-.29.086-.606.016-.475-.038-.735-.233-1.133-.443-.902-1.435-1.44-2.414-1.31a2.4 2.4 0 0 0-1.878 1.382c-.14.302-.187.493-.206.836a2.378 2.378 0 0 0 2.004 2.493c.272.045.692.026.966-.045zM26.386 28.22a3.248 3.248 0 0 0 2.546-2.666c.04-.244.033-.813-.012-1.073a3.207 3.207 0 0 0-.95-1.763 3.211 3.211 0 0 0-1.432-.802c-.292-.078-.343-.083-.792-.085-.527-.001-.697.028-1.162.198a3.42 3.42 0 0 0-1.276.89 3.157 3.157 0 0 0-.794 2.024c-.038.916.311 1.79.97 2.43.51.494 1.106.777 1.888.897.166.026.808-.006 1.014-.05zm27.882-.01c1.218-.283 2.135-1.171 2.444-2.369.093-.36.117-.986.051-1.343a3.212 3.212 0 0 0-1.24-2.026 3.047 3.047 0 0 0-1.815-.647 3.16 3.16 0 0 0-2.43.957 3.145 3.145 0 0 0-.93 2.272c0 .833.306 1.61.872 2.212a3.25 3.25 0 0 0 2.008 1.005c.208.026.819-.01 1.04-.062zm-13.961-5.06a3.142 3.142 0 0 0 1.643-.901c.415-.418.693-.907.842-1.478.084-.324.114-.929.063-1.28-.166-1.15-.996-2.155-2.108-2.551-.381-.136-.636-.178-1.08-.18-.911-.002-1.671.313-2.309.955a3.17 3.17 0 0 0-.842 1.476 3.597 3.597 0 0 0-.051 1.298 3.256 3.256 0 0 0 2.767 2.701c.243.034.827.013 1.075-.04zm-20.282-2.023a3.766 3.766 0 0 0 1.963-1.03c.5-.497.827-1.07.998-1.75.477-1.888-.554-3.832-2.377-4.483-.462-.165-.73-.207-1.29-.206-.452 0-.54.009-.803.072a3.755 3.755 0 0 0-1.926 1.112c-.484.512-.787 1.1-.944 1.83-.084.394-.083 1.097.002 1.5a3.793 3.793 0 0 0 3.257 2.994c.267.034.84.014 1.12-.039zm40.644-.001c1.57-.302 2.734-1.481 3.03-3.073.06-.324.06-.94.001-1.274a3.8 3.8 0 0 0-2.996-3.073c-.325-.067-1.102-.067-1.424-.001a3.833 3.833 0 0 0-2.889 2.58c-.139.44-.163.609-.163 1.147 0 .41.01.53.062.766.158.712.47 1.3.97 1.824a3.734 3.734 0 0 0 2.209 1.134c.31.045.88.03 1.2-.03zM40.44 13.712a3.801 3.801 0 0 0 2.801-2.532c.13-.393.181-.72.182-1.164 0-.445-.05-.764-.185-1.173-.53-1.604-2.096-2.675-3.769-2.579a3.678 3.678 0 0 0-2.483 1.123c-.34.342-.546.632-.73 1.027-.265.565-.348.955-.347 1.616.002.666.085 1.034.37 1.631.523 1.094 1.535 1.856 2.761 2.079.269.048 1.14.031 1.4-.028z"/></svg>