<svg xmlns="http://www.w3.org/2000/svg" width="64" height="64"><path d="M55.381 40.272l-23.214-8.383 24.712-.09-.056 1.13-.162 1.033-.057 1.13-.325 2.065-.261 1.14-.27.934-.367 1.04m-10.75 12.957L32.07 31.996l19.11 15.834-1.473 1.6-2.382 1.944-.892.754-1.8 1.1m-12.268 3.479l-2.26-.113-1.033-.163-1.13-.056 4.128-24.38 4.48 24.232-1.015.247-1.122.149-2.048.084M19.82 53.426l-.942-.474-.844-.581-.951-.68-3.198-2.946-.648-.794 18.734-15.849-12.15 21.324M7.15 32.096l24.713-.092-23.033 8.537-.451-1.008-.74-3.047-.298-2.244-.042-1.025-.149-1.122m23.65-31.028l-1.639.067-1.63.273-1.531.165-1.728.379-1.523.37-3.03 1.15-4.52 2.34-2.585 1.952-1.187 1.075-1.293.976-2.258 2.453-.966 1.475-.973 1.271-.76 1.468-.867 1.369-.654 1.565-.555 1.46-.654 1.565L2 23.997l-.685 3.311-.244 1.549-.03 1.745-.04 1.54.067 1.639.174 1.737.272 1.63.37 1.524.272 1.63.477 1.622.575 1.515.78 1.507.574 1.515 1.756 2.8L7.4 50.653l.976 1.293 1.074 1.187 1.181 1.285 1.173 1.08 1.27.974 1.476.966 1.27.973 4.401 2.282 1.663.547 3.114.898 1.655.343 1.548.244 3.293.275 3.277-.134 1.63-.273 1.736-.173 1.523-.37 3.243-.954 1.408-.674 1.515-.575 1.506-.78 2.8-1.756 1.186-1.074 1.293-.977 1.285-1.181 2.16-2.346 1.072-1.377 1.734-2.738 1.52-2.935.654-1.566.898-3.114.342-1.656.449-1.557.275-3.294-.067-1.638.03-1.746-.165-1.532-.544-3.26-.953-3.244-1.15-3.03-.78-1.507-2.633-4.2-1.075-1.187-1.18-1.285-1.075-1.187L52.13 8.5l-1.27-.973-1.271-.974-1.475-.965-1.37-.868-1.564-.653-1.467-.76-1.557-.45-1.459-.556-1.663-.547-1.548-.244-1.754-.236L32.438 1l-1.638.067" fill-rule="evenodd"/></svg>