<?xml version="1.0" encoding="UTF-8" standalone="no"?>
<!-- Created with Inkscape (http://www.inkscape.org/) -->

<svg
   xmlns:dc="http://purl.org/dc/elements/1.1/"
   xmlns:cc="http://creativecommons.org/ns#"
   xmlns:rdf="http://www.w3.org/1999/02/22-rdf-syntax-ns#"
   xmlns:svg="http://www.w3.org/2000/svg"
   xmlns="http://www.w3.org/2000/svg"
   xmlns:sodipodi="http://sodipodi.sourceforge.net/DTD/sodipodi-0.dtd"
   xmlns:inkscape="http://www.inkscape.org/namespaces/inkscape"
   id="SVGRoot"
   width="80px"
   height="80px"
   version="1.1"
   viewBox="0 0 80 80"
   sodipodi:docname="gobo00116.svg"
   inkscape:version="0.92.3 (2405546, 2018-03-11)">
  <defs
     id="defs19" />
  <sodipodi:namedview
     pagecolor="#ffffff"
     bordercolor="#666666"
     borderopacity="1"
     objecttolerance="10"
     gridtolerance="10"
     guidetolerance="10"
     inkscape:pageopacity="0"
     inkscape:pageshadow="2"
     inkscape:window-width="640"
     inkscape:window-height="480"
     id="namedview17"
     showgrid="false"
     inkscape:zoom="6.475"
     inkscape:cx="-19.831637"
     inkscape:cy="46.081705"
     inkscape:current-layer="SVGRoot" />
  <metadata
     id="metadata2">
    <rdf:RDF>
      <cc:Work
         rdf:about="">
        <dc:format>image/svg+xml</dc:format>
        <dc:type
           rdf:resource="http://purl.org/dc/dcmitype/StillImage" />
        <dc:title></dc:title>
      </cc:Work>
    </rdf:RDF>
  </metadata>
  <path
     style="fill:#000000;stroke-width:0.0400091"
     d="M 36.912138,79.940576 C 34.404645,79.785632 31.304586,79.186104 28.408719,78.296081 20.289958,75.800838 13.153125,70.80054 8.0946378,64.063366 4.1527815,58.813386 1.5708744,52.641598 0.58084924,46.102422 0.38497048,44.80863 0.10672359,42.188961 0.03815201,40.992982 -0.02681411,39.85992 -0.01017742,38.887778 0.09857631,37.461969 0.63276112,30.458486 2.8641184,23.832745 6.6396667,18.038997 8.7745012,14.763 11.654831,11.548599 14.663064,9.0850196 20.03053,4.6893567 26.265408,1.8325836 33.138208,0.61985188 33.57421,0.54291784 34.84731,0.37197786 35.967318,0.23998593 L 38.003696,3.2403106e-7 40.04896,8.3244513e-6 C 42.05778,1.5324819e-5 42.113474,0.00220844 43.174657,0.12056166 49.267787,0.80037837 55.184202,2.639224 60.10713,5.3832411 66.932498,9.18767 72.278196,14.751011 75.726391,21.638424 c 2.326067,4.646083 3.703569,9.621699 4.142653,14.963499 0.03165,0.385021 0.07953,1.308961 0.106395,2.053201 0.164626,4.559851 -0.501365,9.396409 -1.906815,13.847635 -1.429386,4.527037 -3.713001,8.869722 -6.561082,12.477015 -4.412366,5.588562 -10.170254,9.743824 -17.048348,12.303174 -3.572976,1.329514 -7.450091,2.215165 -11.554994,2.639519 -0.70141,0.0725 -1.035685,0.08114 -2.96119,0.0765 -1.281468,-0.0031 -2.522927,-0.02701 -3.030872,-0.05839 z m 5.348831,-12.356617 c 0.348468,-0.05477 0.656084,-0.09977 0.683595,-0.100005 0.02751,-4e-4 0.05002,-0.01744 0.05002,-0.03826 0,-0.02082 -0.47862,-0.843065 -1.063603,-1.827216 -1.104212,-1.857694 -1.45022,-2.489319 -1.386382,-2.530805 0.02062,-0.0134 0.179636,-0.117739 0.353378,-0.231865 0.173738,-0.114126 1.873518,-1.100025 3.777283,-2.190891 1.903766,-1.090861 3.466806,-1.999277 3.473425,-2.018698 0.0066,-0.01942 -0.368728,-0.693836 -0.834104,-1.498694 -0.805676,-1.39341 -0.850257,-1.461221 -0.932403,-1.418171 -0.113277,0.05937 -11.81874,6.782692 -11.958215,6.868501 l -0.107217,0.06596 1.43159,2.39959 1.431592,2.39959 0.616407,0.105794 c 0.592511,0.101689 0.678718,0.105966 2.223733,0.110278 1.528511,0.0043 1.638395,-4e-4 2.240901,-0.09511 z m 3.194605,-0.421814 c 0.65187,-0.07885 2.440801,-0.563906 3.58144,-0.971091 0.812643,-0.290096 2.729418,-1.06262 2.792147,-1.125323 0.01825,-0.01824 -2.736056,-4.771115 -2.815096,-4.857776 -0.048,-0.05263 -1.393597,0.698845 -5.66986,3.166459 l -0.550742,0.317804 0.07573,0.125571 c 0.04166,0.06906 0.467992,0.800606 0.947417,1.625649 1.136489,1.955783 1.03546,1.801891 1.168654,1.780206 0.06058,-0.0099 0.272225,-0.03754 0.470305,-0.0615 z m -10.475653,-0.06862 c -0.0089,-0.0165 -0.496849,-0.815719 -1.084352,-1.776037 l -1.068185,-1.74604 -1.449027,0.821743 c -0.796964,0.45196 -1.561572,0.883807 -1.699127,0.959667 -0.137556,0.07586 -0.25,0.149771 -0.249877,0.164256 0.0011,0.130519 3.24487,1.209408 4.521595,1.503907 0.398533,0.09193 1.064738,0.138872 1.028973,0.0725 z m -5.313786,-3.737964 c 1.179174,-0.662771 2.164545,-1.224673 2.189714,-1.24867 0.03389,-0.03231 -0.311821,-0.655826 -1.332786,-2.403754 -0.758201,-1.298068 -1.40035,-2.40025 -1.426997,-2.449293 -0.04736,-0.08716 -0.117538,-0.0496 -3.129008,1.675056 -1.694308,0.970323 -3.08726,1.770185 -3.095451,1.777474 -0.03436,0.03058 0.970375,1.765464 1.075418,1.856913 0.160591,0.139807 1.156457,0.731142 2.360849,1.401846 0.561226,0.312536 1.03791,0.584394 1.0593,0.604131 0.02139,0.01973 0.06502,0.02586 0.09695,0.01361 0.03193,-0.01225 1.022837,-0.564542 2.202012,-1.227312 z m 23.856715,0.842448 c 0.07481,-0.02495 0.190044,-0.09592 0.256071,-0.157728 0.06603,-0.0618 0.318128,-0.199931 0.560225,-0.30696 0.278556,-0.123147 0.682611,-0.356947 1.100443,-0.636758 0.601894,-0.403069 1.283992,-0.927097 1.311667,-1.007693 0.0098,-0.02868 -2.75644,-4.702851 -2.82544,-4.774115 -0.02006,-0.02072 -3.367134,1.833961 -3.438579,1.905384 -0.0063,0.0063 0.575916,1.044547 1.293732,2.307298 0.717817,1.262754 1.358787,2.390421 1.424381,2.505927 0.131673,0.231872 0.125511,0.228676 0.3175,0.164645 z M 36.155194,59.590443 c 10.204379,-5.862172 10.853076,-6.229887 10.90194,-6.179745 0.06265,0.06429 0.78141,1.243386 1.599727,2.62429 0.550221,0.928497 1.019262,1.683645 1.042311,1.678108 0.02305,-0.0055 0.775436,-0.439623 1.671965,-0.96463 l 1.630047,-0.954567 -0.08123,-0.137623 C 52.622136,55.151694 42.354323,37.283688 42.354323,37.270014 c 0,-0.06682 1.535853,-0.966282 6.162478,-3.608983 2.916173,-1.6657 5.349399,-3.057995 5.407174,-3.093989 l 0.105038,-0.06544 -1.255096,-2.160114 c -0.716816,-1.233688 -1.275913,-2.154665 -1.303628,-2.14741 -0.04211,0.01102 -2.620138,1.499531 -7.495315,4.327661 -0.7483,0.434096 -2.134858,1.238129 -3.081239,1.786741 -0.94638,0.548612 -2.633435,1.526593 -3.749011,2.173293 -1.115575,0.6467 -2.022394,1.185782 -2.015153,1.19796 0.01491,0.02507 3.717449,6.469613 4.165048,7.249566 l 0.290998,0.507074 -0.426375,0.278243 c -0.234506,0.153032 -1.740904,1.020046 -3.34755,1.926693 -1.606646,0.906648 -2.933892,1.660423 -2.949436,1.675064 -0.01555,0.01464 0.63134,1.115559 1.437519,2.446489 0.902639,1.490182 1.53929,2.585155 1.657119,2.850077 l 0.191341,0.430199 -0.348344,0.232616 c -0.191589,0.127939 -1.401768,0.832484 -2.689285,1.565654 -1.287518,0.733175 -2.365682,1.355832 -2.395921,1.383681 -0.04589,0.04226 0.158484,0.433231 1.235936,2.364372 1.29514,2.32131 1.438019,2.573752 1.456727,2.573752 0.0056,0 1.242084,-0.707746 2.747842,-1.572767 z m 22.467291,1.002641 c 0.341589,-0.273547 0.701054,-0.606744 0.916956,-0.849949 0.195315,-0.220012 0.637601,-0.688036 0.98286,-1.040055 0.503726,-0.513587 1.341459,-1.483762 1.493348,-1.729439 0.02394,-0.03871 -1.779515,-3.185471 -1.894514,-3.305649 -0.01858,-0.01941 -0.189712,0.05482 -0.386643,0.167705 -1.104917,0.633361 -4.293955,2.511436 -4.303563,2.534433 -0.01283,0.03074 2.578709,4.669977 2.609706,4.671741 0.011,6.4e-4 0.272837,-0.201326 0.58185,-0.448787 z M 25.11312,57.47728 c 1.658517,-0.949202 3.038949,-1.74734 3.067625,-1.773637 0.05424,-0.04974 0.06434,-0.03144 -2.401522,-4.354605 -0.462325,-0.810551 -0.825129,-1.48877 -0.806232,-1.507155 0.0189,-0.01838 0.197686,-0.103994 0.397307,-0.190242 0.378177,-0.163397 5.137117,-2.963472 5.138485,-3.023395 0.0018,-0.07992 -6.3826,-11.06802 -6.424881,-11.057722 -0.02561,0.0062 -0.796395,0.434364 -1.712863,0.951391 -1.201862,0.678034 -1.662285,0.957122 -1.651888,1.001303 0.02356,0.100124 3.772261,6.584888 4.052411,7.01015 l 0.257615,0.391052 -0.170978,0.07341 c -0.09404,0.04037 -0.270016,0.115682 -0.391065,0.167353 -0.121049,0.05166 -1.953715,1.10073 -4.072591,2.331251 -3.729807,2.166053 -3.85077,2.239997 -3.798117,2.321746 0.02991,0.04644 1.266536,2.177046 2.748055,4.73468 1.481519,2.557635 2.707053,4.650245 2.723411,4.650245 0.01636,0 1.38671,-0.776621 3.045228,-1.725827 z m -5.240463,1.315805 c -0.04355,-0.0715 -0.938668,-1.588083 -1.989147,-3.370177 -1.050479,-1.782094 -2.115067,-3.58634 -2.36575,-4.009439 l -0.455788,-0.769268 -0.219398,0.107566 c -0.120669,0.05916 -0.219399,0.123862 -0.219399,0.143783 0,0.0716 0.494438,1.17823 0.762777,1.70721 0.527543,1.039954 1.13679,1.988112 2.596071,4.040212 0.71598,1.006841 0.876826,1.206671 1.376482,1.71009 0.311172,0.313516 0.571971,0.57003 0.579553,0.57003 0.0076,0 -0.02185,-0.0585 -0.0654,-0.130007 z m 43.617217,-3.920206 c 0.418984,-0.596511 0.978449,-1.593164 1.330459,-2.370124 0.12958,-0.286015 0.384959,-0.819559 0.567512,-1.185659 0.497736,-0.99818 0.613583,-1.020733 -1.775326,0.34563 -1.084132,0.620085 -1.981012,1.137284 -1.993069,1.149333 -0.02825,0.02824 1.420559,2.590848 1.464785,2.590848 0.01835,0 0.200885,-0.238513 0.405639,-0.530028 z m -4.959042,-2.282032 c 0.412666,-0.244797 0.750301,-0.455168 0.750301,-0.467492 0,-0.02598 -0.07225,-0.149944 -3.987003,-6.84098 -1.628347,-2.783146 -3.017805,-5.161011 -3.087685,-5.284139 l -0.127056,-0.223875 0.407744,-0.174045 c 0.224263,-0.09573 1.173884,-0.621969 2.110273,-1.169431 0.936393,-0.547461 1.985791,-1.160439 2.331998,-1.362172 0.346207,-0.201734 0.629821,-0.379517 0.630253,-0.395075 8.41e-4,-0.03 -2.551582,-4.589842 -2.599169,-4.643371 -0.02069,-0.02327 -10.115716,5.710625 -10.20019,5.793633 -0.0082,0.0081 2.176475,3.874635 4.854941,8.592287 l 4.869934,8.577546 1.647678,-0.978899 c 0.906225,-0.538396 1.985315,-1.17919 2.397981,-1.423987 z m -26.757161,1.040275 c 1.371962,-0.76218 2.035774,-1.151853 2.03279,-1.193299 -0.0024,-0.03385 -0.559653,-1.018421 -1.238259,-2.187935 -1.179937,-2.033511 -1.237424,-2.124095 -1.316102,-2.073797 -0.04525,0.02893 -0.919608,0.553181 -1.943019,1.165006 -1.023412,0.611824 -1.88578,1.135631 -1.916375,1.164013 -0.04681,0.04343 0.133939,0.384912 1.140459,2.154621 0.657846,1.156657 1.197706,2.103038 1.199685,2.103074 0.002,4e-5 0.92035,-0.509222 2.040821,-1.131683 z m 30.968854,-3.446813 c 1.122452,-0.625129 2.03756,-1.151253 2.033574,-1.16917 -0.004,-0.01791 -1.411371,-2.453697 -3.127522,-5.412852 -1.988339,-3.428496 -3.142391,-5.380283 -3.181247,-5.380283 -0.03353,0 -0.943215,0.503813 -2.021501,1.119582 l -1.960524,1.119584 0.127003,0.224292 c 1.835094,3.240926 6.054727,10.634738 6.069389,10.635038 0.011,4.01e-4 0.938377,-0.511062 2.060828,-1.136191 z M 14.150951,48.950244 c -0.0644,-0.114226 -0.202699,-0.366083 -0.307326,-0.559677 -0.104626,-0.193595 -0.196852,-0.345371 -0.204946,-0.337278 -0.0081,0.0081 0.07652,0.287691 0.188036,0.62134 l 0.202752,0.606632 0.11929,-0.06166 0.11929,-0.06166 z m 5.034059,-2.70707 c 1.859748,-1.082621 3.393349,-1.980204 3.408002,-1.994629 0.03405,-0.03352 -3.383271,-5.828805 -3.431783,-5.819809 -0.03183,0.0059 -6.698833,3.720051 -6.725561,3.746772 -0.0057,0.0057 0.01571,0.108594 0.04765,0.228576 0.03194,0.119982 0.05829,0.323861 0.05855,0.45306 4.05e-4,0.19937 0.0091,0.227712 0.05782,0.187334 0.07048,-0.05846 -0.121909,-0.366756 1.583753,2.537913 1.692745,2.882671 1.561082,2.664152 1.593616,2.644911 0.01463,-0.0087 1.548207,-0.901511 3.407955,-1.984128 z m 47.385495,1.704581 c 0.109812,-0.08071 0.478352,-1.445776 0.732398,-2.712802 0.30317,-1.512012 0.455223,-2.914345 0.489321,-4.512817 0.04332,-2.030725 -0.126419,-3.841844 -0.567964,-6.060319 -0.09634,-0.484025 -0.18758,-0.992552 -0.202758,-1.130059 -0.01519,-0.137507 -0.04344,-0.250013 -0.06279,-0.250013 -0.01935,0 -0.579749,0.31246 -1.245333,0.694356 -0.665588,0.381896 -2.209556,1.265939 -3.431048,1.964539 -1.221491,0.698599 -2.236083,1.284269 -2.254646,1.301489 -0.02426,0.0225 5.441476,9.524152 6.184207,10.750633 0.07702,0.127186 0.08139,0.128762 0.185506,0.06705 0.05864,-0.03476 0.136539,-0.08518 0.173098,-0.112058 z m -31.759211,-3.73578 c 1.298522,-0.759368 2.38615,-1.404042 2.416951,-1.432607 0.04728,-0.04385 -0.274474,-0.61166 -2.065314,-3.644725 -2.26098,-3.829319 -2.448918,-4.149749 -2.438897,-4.158271 0.0035,-0.003 0.204502,-0.09389 0.4466,-0.201962 0.242097,-0.108074 1.916771,-1.05249 3.721496,-2.098702 1.804726,-1.046212 5.622261,-3.257141 8.483412,-4.913178 2.86115,-1.656036 5.226978,-3.034303 5.257398,-3.062817 0.06093,-0.05712 0.08621,-0.0058 -0.605316,-1.22979 l -0.356683,-0.63134 -0.126887,0.07625 c -0.06979,0.04194 -2.550346,1.471906 -5.512349,3.177705 -4.908449,2.826745 -6.047828,3.469009 -6.154034,3.469009 -0.05774,0 -0.508491,-0.718363 -1.725607,-2.750144 -0.622735,-1.039555 -1.145536,-1.890099 -1.161779,-1.890099 -0.01625,0 -2.611188,1.477855 -5.76654,3.284123 -3.155353,1.806267 -5.802301,3.317575 -5.882106,3.35846 l -0.1451,0.07433 -0.258007,-0.388304 c -0.141904,-0.213567 -0.794502,-1.315353 -1.450218,-2.448412 -0.655716,-1.13306 -1.215604,-2.084956 -1.244196,-2.115324 -0.04368,-0.04639 -0.397953,0.144728 -2.216748,1.195856 l -2.164762,1.251072 0.07251,0.124214 c 0.03988,0.06831 0.942828,1.613808 2.006554,3.434426 l 1.934047,3.310214 0.124836,-0.07493 c 0.06866,-0.04121 1.016194,-0.593153 2.105632,-1.226529 1.089439,-0.633374 2.10517,-1.238704 2.257181,-1.345176 0.152012,-0.106473 0.290109,-0.193586 0.306883,-0.193586 0.01678,0 0.187822,0.274514 0.38011,0.610032 0.638565,1.114216 6.865853,11.88906 6.923509,11.979489 l 0.05665,0.08886 0.209911,-0.123743 c 0.115449,-0.06805 1.272336,-0.745039 2.570859,-1.504407 z M 15.237101,38.67728 c 3.325287,-1.976395 3.129575,-1.856763 3.118981,-1.906527 -0.0098,-0.04619 -3.881435,-6.681077 -3.946186,-6.762698 -0.05889,-0.07423 -0.350962,0.512781 -0.554064,1.113576 -0.786623,2.326892 -1.226029,4.628739 -1.393464,7.299701 -0.04381,0.69886 -0.05417,1.900783 -0.01639,1.900783 0.01302,0 1.269033,-0.740175 2.791123,-1.644835 z m 44.496943,-3.289353 c 0.356143,-0.205674 1.998075,-1.152984 3.648739,-2.105132 1.650664,-0.952149 3.006329,-1.735539 3.012587,-1.740866 0.0063,-0.0053 -0.06772,-0.295584 -0.16439,-0.645013 -0.120468,-0.435455 -0.266059,-0.8342 -0.462778,-1.267485 -0.157859,-0.347687 -0.386111,-0.905717 -0.507228,-1.240065 -0.168652,-0.465569 -0.300305,-0.741914 -0.562274,-1.180239 -0.189292,-0.316719 -0.364174,-0.566839 -0.391573,-0.560029 -0.06849,0.01702 -7.755775,4.353588 -7.814511,4.408339 -0.0359,0.03346 0.270137,0.609852 1.260507,2.374006 0.719357,1.281394 1.313652,2.329949 1.320655,2.330122 0.007,1.6e-4 0.304126,-0.167964 0.660266,-0.373638 z M 59.51564,27.338621 c 2.137932,-1.20634 3.887151,-2.206302 3.887151,-2.222141 0,-0.01584 -0.146863,-0.273891 -0.326359,-0.573452 -0.220021,-0.367194 -0.464955,-0.703845 -0.751735,-1.033236 -0.233958,-0.26872 -0.616231,-0.731595 -0.849497,-1.02861 -0.233266,-0.297016 -0.58157,-0.720038 -0.774007,-0.94005 -0.192442,-0.220011 -0.353847,-0.404784 -0.358685,-0.410607 -0.01032,-0.01243 -7.270799,4.062012 -7.311392,4.103011 -0.01513,0.01528 0.534091,0.996076 1.220491,2.179535 0.942871,1.625649 1.26376,2.147727 1.312444,2.135318 0.03544,-0.009 1.813657,-1.00343 3.951589,-2.209768 z M 29.032546,26.397039 c 2.826169,-1.630476 5.144526,-2.970082 5.151905,-2.976899 0.01359,-0.01255 -1.978948,-3.573207 -2.031184,-3.629727 -0.01944,-0.02103 -10.323422,5.811276 -10.43493,5.906422 -0.0078,0.0067 2.15761,3.664708 2.169348,3.664708 0.0035,0 2.318691,-1.334026 5.144861,-2.964504 z m -11.478192,-0.17393 c 1.006905,-0.590299 1.830736,-1.091224 1.830736,-1.113167 0,-0.05064 -1.093511,-2.027922 -1.12045,-2.025985 -0.03998,0.0029 -0.835957,1.069821 -1.159494,1.554208 -0.494087,0.73973 -0.976384,1.554411 -1.286074,2.172395 -0.15154,0.302397 -0.275527,0.561122 -0.275527,0.574946 0,0.01382 0.04052,-5.72e-4 0.09004,-0.03199 0.04952,-0.03142 0.913867,-0.540103 1.920772,-1.130403 z m 26.485863,-2.144884 c 3.023347,-1.743164 5.656078,-3.276121 5.850508,-3.406568 0.194435,-0.130447 0.358204,-0.231194 0.363935,-0.223879 0.0057,0.0073 0.440485,0.773837 0.966116,1.703386 0.525632,0.929549 0.974108,1.689307 0.996613,1.688353 0.06659,-0.0028 6.796569,-3.936551 6.80801,-3.979329 0.0058,-0.02153 -0.163938,-0.186073 -0.377104,-0.36565 -0.213166,-0.179578 -0.594655,-0.511092 -0.847757,-0.736699 -0.967801,-0.862667 -1.995142,-1.63334 -3.021215,-2.266401 -0.547296,-0.337667 -2.596956,-1.410645 -2.694687,-1.410645 -0.02265,0 -0.893204,0.487858 -1.934562,1.084132 -3.803046,2.177596 -6.452335,3.694874 -9.996632,5.725185 -2.03792,1.167399 -3.619466,2.097373 -3.616905,2.126797 0.0042,0.04793 1.775957,3.097645 1.868592,3.216345 0.02225,0.0285 0.06241,0.04339 0.08927,0.03309 0.02685,-0.0103 2.522473,-1.444955 5.545821,-3.188121 z M 26.070983,21.236804 c 2.826374,-1.630456 5.141619,-2.967027 5.144991,-2.970156 0.005,-0.0046 -2.137645,-3.621077 -2.166461,-3.656635 -0.0384,-0.04737 -0.887762,0.320342 -1.404747,0.608161 -2.781707,1.54865 -5.114268,3.223296 -6.99126,5.019326 -0.366957,0.351129 -1.2284,1.294733 -1.2284,1.345559 0,0.04725 1.46775,2.618213 1.494727,2.618213 0.0068,0 2.324774,-1.33401 5.15115,-2.964468 z m 16.787663,-2.915656 c 3.893301,-2.269882 7.092099,-4.139824 7.108438,-4.155427 0.03916,-0.03739 -2.000268,-0.720897 -2.690778,-0.901808 -0.710994,-0.186277 -2.08802,-0.481726 -2.541566,-0.545307 l -0.360689,-0.05056 -3.520872,2.020677 c -1.93648,1.111373 -4.349205,2.494498 -5.361612,3.073613 -1.012407,0.579114 -1.846751,1.057231 -1.854097,1.062483 -0.0073,0.0053 0.449829,0.831051 1.015949,1.835111 0.63837,1.132203 1.047764,1.818483 1.077902,1.806922 0.02673,-0.01025 3.234025,-1.875818 7.127325,-4.145699 z m -5.786759,-3.490368 4.309953,-2.490131 -0.944332,-0.02548 c -1.672075,-0.04512 -2.929366,0.06247 -4.988642,0.426919 -0.706384,0.125013 -2.146508,0.421103 -2.998522,0.616498 -0.421423,0.09665 -1.660668,0.525466 -1.660668,0.574647 0,0.06242 1.900379,3.386139 1.936512,3.386913 0.01966,4.2e-4 1.975225,-1.119792 4.345699,-2.489364 z"
     id="path837"
     inkscape:connector-curvature="0" />
</svg>
