<svg xmlns="http://www.w3.org/2000/svg" width="80" height="80"><path d="M38.296 79.987a40.966 40.966 0 0 1-2.72-.21c-6.905-.765-13.45-3.312-19.175-7.46a40.146 40.146 0 0 1-7.608-7.26A40.112 40.112 0 0 1 .202 44.134C.048 42.67 0 41.684 0 39.974c0-1.366.017-1.917.094-2.96.756-10.31 5.588-20.067 13.347-26.953a40.124 40.124 0 0 1 15.47-8.505A40.246 40.246 0 0 1 38.208.021c.843-.042 3.633-.017 4.407.04 5.46.395 10.354 1.71 15.095 4.058a39.967 39.967 0 0 1 12.638 9.786 40.045 40.045 0 0 1 8.43 16.241c.629 2.48.98 4.71 1.175 7.481.045.633.063 3.458.027 4.205-.271 5.654-1.667 11.021-4.168 16.022-3.457 6.913-8.76 12.632-15.329 16.53a44.162 44.162 0 0 1-4.187 2.166 40.318 40.318 0 0 1-14.451 3.428c-.475.023-3.148.03-3.55.01zm4.347-11.13V63.87h-5.28v9.974h5.28v-4.987zM25.187 64.9a644.543 644.543 0 0 0 2.915-4.031l-2.138-1.554c-2.12-1.538-2.132-1.547-2.177-1.49-.17.22-5.788 7.973-5.793 7.996-.006.029 4.219 3.118 4.252 3.109.01-.003 1.334-1.816 2.94-4.03zm34.684 2.516a256.433 256.433 0 0 0 2.128-1.555c.028-.028-.511-.785-2.89-4.06l-2.929-4.029c-.002-.002-.945.68-2.097 1.516-1.15.837-2.114 1.536-2.14 1.554-.04.03.254.445 2.881 4.064a566.237 566.237 0 0 0 2.94 4.031c.007 0 .955-.685 2.107-1.521zM13.374 51.439a603.46 603.46 0 0 0 4.712-1.54c.018-.016-1.577-4.972-1.61-5.006-.015-.014-9.379 3.01-9.452 3.052-.02.01.2.722.647 2.097.372 1.144.737 2.269.81 2.5.076.236.15.42.167.42.018 0 2.144-.685 4.726-1.523zm58.08 1.303l.815-2.5c.519-1.588.736-2.286.714-2.298-.104-.058-9.44-3.066-9.456-3.046-.024.027-1.61 4.908-1.613 4.967-.002.028 1.247.446 4.69 1.566 2.582.84 4.714 1.528 4.738 1.53.031 0 .062-.06.113-.219zM17.296 32.625c.447-1.376.806-2.508.799-2.515-.018-.018-9.406-3.07-9.445-3.07-.017 0-.05.056-.072.126-.43 1.318-1.566 4.83-1.57 4.856-.005.024 1.433.503 4.727 1.575a817.27 817.27 0 0 0 4.741 1.535c.005-.003.373-1.13.82-2.507zm51.43.829c2.34-.76 4.261-1.39 4.27-1.398.016-.014-1.588-4.984-1.618-5.014-.012-.012-9.4 3.032-9.454 3.065-.016.01.289.987.748 2.401l.815 2.509.04.123.473-.153c.26-.083 2.386-.773 4.726-1.533zm-42.79-12.745c1.13-.82 2.08-1.513 2.112-1.538.06-.045.059-.045-2.836-4.03l-2.93-4.033c-.033-.046-.189.061-2.151 1.49a483.845 483.845 0 0 0-2.138 1.56c-.032.03 5.823 8.084 5.86 8.061.016-.01.954-.689 2.083-1.51zm33.187-2.51c1.599-2.2 2.908-4.009 2.908-4.019 0-.01-.96-.716-2.134-1.57-1.988-1.446-2.138-1.55-2.17-1.503l-2.931 4.037a916.369 916.369 0 0 0-2.89 3.99c.149.13 4.277 3.098 4.29 3.084.01-.01 1.327-1.82 2.927-4.02zm-16.48-7.055V6.157h-5.28v9.974h5.28v-4.987z"/></svg>