<svg xmlns="http://www.w3.org/2000/svg" width="80" height="80"><path d="M34.041 79.55c-3.26-.507-4.54-.848-8.263-2.203-2.372-.863-3.056-1.196-6.505-3.17C11.303 69.62 4.518 60.932 1.75 51.743.557 47.779.308 46.343.067 42.056c-.631-11.228 3.216-21.474 11.186-29.789C15.363 7.98 21.263 4.13 26.48 2.33c7.513-2.592 15.211-3.025 22.68-1.276 7.034 1.646 13.528 5.3 18.975 10.674 4.926 4.86 7.704 9.388 10.11 16.483 2.651 7.568 2.04 16.906-.127 24.06-.608 1.958-.773 2.348-2.388 5.627-4.818 9.782-14.609 17.833-25.105 20.644-5.65 1.514-11.167 1.849-16.585 1.008zm4.497-9.234l.1-3.254-.98-.012c-.955-.012-3.599-.607-6.078-1.368-4.106-1.26-10.274-5.796-12.68-9.324-.58-.851-1.048-1.199-1.446-1.074-1.031.326-4.862 2.715-4.862 3.033 0 .74 2.051 3.471 4.207 5.602 5.167 5.106 11.377 8.266 18.473 9.402 3.314.53 3.151.68 3.266-3.005zm7.122 2.757c6.281-.998 12.707-4.33 17.333-8.986 3.576-3.598 5.144-6.182 3.754-6.182-.168 0-1.28-.582-2.472-1.293l-2.167-1.293-.903 1.205c-1.512 2.02-5.18 5.365-7.25 6.613-3.55 2.14-8.97 3.925-11.914 3.925h-.967v3.14c0 3.278.174 3.649 1.582 3.374.387-.076 1.739-.302 3.004-.503zm24.335-19.13c1.89-4.64 2.342-6.639 2.604-11.543.167-3.114.078-4.752-.38-7.044-.884-4.414-2.623-9.149-3.36-9.149-.205 0-.999.396-1.765.88-.765.485-1.524.881-1.684.881-.161 0-.637.322-1.059.715-.554.517-.68.883-.459 1.32 2.762 5.451 3.128 13.365.902 19.524-1.488 4.117-1.555 3.808 1.141 5.286 1.315.721 2.564 1.315 2.777 1.321.213.006.79-.98 1.283-2.191zm-55.93.424c1.318-.783 2.395-1.556 2.395-1.717 0-.162-.26-.908-.578-1.658-2.66-6.283-2.523-14.84.333-20.845.557-1.17.038-1.793-2.697-3.235-2.71-1.43-2.497-1.56-4.058 2.465-2.738 7.055-2.851 15.013-.318 22.365.964 2.797 1.62 4.05 2.12 4.05.225 0 1.487-.641 2.804-1.425zm49.766-28.195c2.867-1.594 3.615-2.158 3.61-2.723-.015-1.578-6.96-8.515-10.349-10.336-2.99-1.607-5.383-2.734-6.897-3.249-2.4-.816-8.103-1.723-8.477-1.348-.177.177-.276 1.655-.22 3.283l.103 2.96 2.11.263c2.796.349 6.137 1.451 9.08 2.996 2.58 1.354 6.868 5.124 8.482 7.457.547.79 1.047 1.437 1.112 1.437.064 0 .715-.333 1.446-.74zM19.887 24.27c3.972-4.96 12.072-9.303 17.394-9.327 1.648-.008 2.035-.668 2.035-3.476 0-3.573-.092-3.624-4.85-2.69-3.95.775-5.155 1.176-8.83 2.937-3.442 1.65-7.294 4.48-9.704 7.134-1.746 1.922-3.34 4.044-3.34 4.446 0 .346 4.966 3.287 5.35 3.167.139-.043 1.014-1.029 1.945-2.19z"/></svg>