<svg xmlns="http://www.w3.org/2000/svg" width="80" height="80"><path d="M38.907 79.995a59.371 59.371 0 0 1-1.92-.106c-11.895-.935-22.57-6.938-29.494-16.585a40.618 40.618 0 0 1-5.136-9.778A39.725 39.725 0 0 1 .198 36.083C1.388 24.2 7.688 13.606 17.558 6.9a40.805 40.805 0 0 1 7.054-3.814A39.78 39.78 0 0 1 47.442.707 39.967 39.967 0 0 1 62.802 7.13a40.138 40.138 0 0 1 9.046 8.682 38.928 38.928 0 0 1 3.952 6.375 37.064 37.064 0 0 1 1.635 3.734c2.427 6.438 3.14 13.278 2.1 20.109-1.154 7.565-4.457 14.663-9.477 20.364a46.863 46.863 0 0 1-3.122 3.176 40.173 40.173 0 0 1-19.296 9.703c-1.78.348-3.594.571-5.574.684-.48.028-2.733.054-3.16.037zm2.12-5.346c6.443-.207 12.513-2.139 17.895-5.695.49-.323 1.297-.888 1.36-.95.018-.019-.703-.022-2.16-.01-1.202.008-9.375.045-18.161.082-17.16.07-19.995.087-19.976.12.023.036 1.427.97 1.934 1.285 5.765 3.585 12.413 5.383 19.108 5.168zm-2.435-13.386c13.455-.058 25.538-.112 26.851-.121l2.387-.016.06-.073c.096-.115.695-.945.966-1.337.502-.726 1.543-2.39 1.513-2.42-.01-.009-53.239.21-58.42.24a92.187 92.187 0 0 0-2.128.025c-.024.024.604 1.035 1.144 1.843.366.549.736 1.071 1.132 1.597l.276.366h.877c.482 0 11.886-.047 25.342-.104zm3.315-12.326c17.133-.073 31.33-.135 31.55-.138l.398-.007.125-.507c.16-.653.318-1.39.434-2.027.123-.677.211-1.268.193-1.286-.008-.008-14.623.047-32.479.122-30.359.127-36.64.157-36.658.176-.022.022.22 1.366.38 2.102.097.449.272 1.18.39 1.626l.026.1 2.246-.015c1.235-.008 16.263-.074 33.395-.146zm6.161-12.417c14.683-.024 26.701-.049 26.708-.055.018-.015-.126-1.152-.228-1.795-.1-.632-.354-1.953-.386-2.005-.017-.026-7.05-.02-34.153.029-18.772.034-34.14.07-34.149.079-.035.035-.29 1.385-.408 2.163a33.317 33.317 0 0 0-.202 1.596v.067l8.061-.017c4.434-.01 20.074-.038 34.757-.062zm-6.987-12.478c13.377-.023 25.58-.041 27.116-.04 1.968 0 2.793-.01 2.793-.03 0-.035-.406-.778-.727-1.331a32.796 32.796 0 0 0-1.148-1.834l-.43-.646H67.35c-1.112 0-42.623.068-52.926.087l-3.133.006-.14.2c-.23.328-.914 1.396-1.186 1.854-.374.628-.982 1.73-.982 1.78 0 .008-.017.008 32.097-.046zm.44-12.324c8.295-.036 15.75-.065 16.568-.065.818 0 1.487-.01 1.486-.02 0-.027-.845-.59-1.453-.968a34.36 34.36 0 0 0-8.667-3.866 34.267 34.267 0 0 0-14.922-.893A34.108 34.108 0 0 0 22.826 10.1c-.867.504-2.448 1.522-2.627 1.692-.017.016 1.13.019 3.107.008 1.723-.01 9.92-.047 18.215-.082z"/></svg>