<svg xmlns="http://www.w3.org/2000/svg" width="64pt" height="64pt" viewBox="0 0 64 64"><path d="M28.008 63.79c-7.215-.962-13.125-3.97-18.625-9.466-3.828-3.832-5.938-7.136-7.602-11.91C-4.562 24.211 6.661 4.574 25.723.516c4.41-.942 11.504-.559 15.828.847 5.43 1.77 9.07 4.047 13.265 8.297 4.239 4.29 6.57 8.215 8.157 13.73 1.375 4.77 1.367 12.755-.012 17.212-4.191 13.507-15.227 22.363-29.078 23.34-1.711.12-4.356.05-5.875-.153zM17.715 31.894V11.156h-2.902V52.63h2.902zm5.387-.028V11.11l-3.11.258-.105 20.63-.11 20.632h3.325zm4.976.028V11.156h-2.902V52.63h2.902zm5.387 0V11.156h-2.899V52.63h2.899zm5.39 0V11.156h-2.902V52.63h2.902zm5.391 0V11.156h-2.902V52.63h2.902zm5.29.101l-.11-20.629-3.11-.258v41.52h3.325zm0 0"/></svg>