<svg xmlns="http://www.w3.org/2000/svg" width="80" height="80"><path d="M35.19 79.928C20.98 78.394 7.93 68.365 2.627 54.907c-2-5.078-2.591-8.6-2.624-14.766-.02-3.614.143-6.16.45-7.516 1.929-8.506 5.26-14.902 10.61-20.365C17.311 5.875 24.985 1.9 33.811.475c10.113-1.632 21.034.99 29.554 7.096 2.831 2.029 7.832 7.188 9.798 10.108 5.087 7.555 7.628 17.584 6.617 26.115-1.206 10.188-4.89 17.989-11.662 24.694-7.54 7.468-16.243 11.197-26.765 11.469-2.615.067-5.389.054-6.163-.03zm-9-15.238c1.426-2.478 3.203-5.495 3.948-6.705.745-1.21 1.355-2.28 1.355-2.378 0-.098.515-1.02 1.144-2.049.63-1.029 1.324-2.185 1.543-2.569.248-.434.714-.668 1.233-.62.459.042 1.864.176 3.123.297 1.34.13 2.948.053 3.875-.183.871-.223 1.796-.437 2.055-.475.406-.06 2.248 3.049 9.585 16.183 1.336 2.391 1.686 2.554 3.228 1.504 4.077-2.775 6.942-5.533 9.866-9.498 1.126-1.526 3.978-7.275 4.51-9.092.911-3.105 1.332-4.952 1.552-6.804l.235-1.983-1.34-.214c-.737-.118-5.302-.307-10.145-.42-11.44-.268-10.98-.186-11.457-2.038-.614-2.389-1.348-3.72-3.01-5.46-1.527-1.599-1.865-2.442-1.249-3.112.3-.326.901-1.39 3.483-6.166.683-1.263 1.356-2.456 1.495-2.65.244-.338.536-.862 3.151-5.653.637-1.166 1.297-2.271 1.467-2.456.548-.595.33-1.513-.483-2.039-.865-.56-4.891-2.078-7.132-2.69-6.755-1.845-15.543-1.267-22.05 1.448-3.486 1.455-3.422 1.376-2.523 3.148.427.84 1.274 2.403 1.883 3.472a890.938 890.938 0 0 1 3.731 6.625c.518.923 1.707 3.013 2.642 4.644.935 1.631 1.7 3.142 1.698 3.357-.001.215-.73 1.106-1.62 1.98-1.87 1.84-2.406 2.765-2.988 5.159-.232.952-.577 1.93-.766 2.173-.242.31-1.624.442-4.648.442-2.366 0-7.18.105-10.698.232l-6.396.233v1.092c0 1.382.849 5.796 1.603 8.336 1.416 4.772 4.362 9.772 8.096 13.743 2.438 2.592 6.244 5.69 6.991 5.69.231 0 1.587-2.027 3.013-4.504z"/></svg>