<svg id="SVGRoot" width="80px" height="80px" version="1.1" viewBox="0 0 80 80" xmlns="http://www.w3.org/2000/svg"><path d="m38.598 79.975c-4.8995-0.17273-9.6437-1.2154-14.133-3.106-3.2527-1.3699-6.3964-3.2238-9.1742-5.4102-3.9637-3.1199-7.3224-6.9746-9.8513-11.306-1.025-1.7556-1.8416-3.4308-2.6149-5.3647-2.9104-7.2778-3.5937-15.412-1.9457-23.162 2.788-13.11 12.112-24.057 24.626-28.916 6.1714-2.3959 12.852-3.2216 19.455-2.4048 7.1254 0.88145 13.898 3.6851 19.573 8.1024 5.132 3.9947 9.2266 9.1786 11.901 15.068 2.8241 6.2179 4.0021 13.084 3.4208 19.938-0.92725 10.932-6.297 20.968-14.899 27.846-7.4697 5.9724-16.786 9.0528-26.358 8.7154zm-6.439-6.2659c2.8474-0.13257 5.5145-0.67198 8.1285-1.6442 2.1251-0.79035 4.233-1.9075 6.0709-3.2174 2.7979-1.9942 5.1978-4.5398 7.0098-7.4354 0.26307-0.42042 0.71873-1.2004 0.70737-1.2108-0.0047-0.0032-0.15782 0.15482-0.3411 0.35277-0.55785 0.60228-1.5216 1.5072-2.2833 2.144-2.3021 1.9244-4.9107 3.455-7.7443 4.5438-2.2501 0.8646-4.7896 1.4557-7.214 1.679-1.3037 0.1201-3.1485 0.14503-4.3338 0.05839-2.7379-0.19991-5.2483-0.74324-7.7208-1.6709-1.1222-0.42107-1.7411-0.7005-3.1029-1.401-0.40634-0.209-0.65603-0.26441-1.1908-0.26422-0.36128 0-0.46147 0.0095-0.65339 0.06139-0.50848 0.13746-0.89196 0.35834-1.2542 0.72242-0.3628 0.36467-0.58859 0.75339-0.72512 1.2483-0.07938 0.28772-0.08522 0.98942-0.01105 1.2871 0.14535 0.58126 0.46901 1.1066 0.90228 1.4641 0.30493 0.25162 1.7344 0.94914 2.9115 1.4206 3.4451 1.38 7.2312 2.0301 10.844 1.862zm2.7469-9.4512c1.2143-0.10432 2.1954-0.2639 3.2937-0.53585 4.5933-1.1374 8.5873-3.7771 11.419-7.5473 0.26381-0.35118 0.72765-1.0199 0.82324-1.1868 0.02888-0.05052 0.04372-0.06092-0.55234 0.38985-3.5903 2.7154-7.8764 4.4075-12.384 4.8889-0.87708 0.09374-1.1982 0.11142-2.2953 0.12688-1.9696 0.02778-3.583-0.12104-5.405-0.49838-1.3352-0.27656-2.8993-0.72782-3.2448-0.93618-0.34552-0.20838-0.73488-0.3055-1.1228-0.28006-0.30668 0.02004-0.49994 0.07323-0.79808 0.21959-0.44562 0.21864-0.80976 0.64451-0.97742 1.1431-0.10337 0.30725-0.12042 0.73918-0.04166 1.0541 0.1029 0.41187 0.33862 0.80128 0.63906 1.0559 0.1362 0.11552 0.82188 0.43823 1.5216 0.71627 2.0734 0.82398 4.1609 1.287 6.4306 1.4263 0.54032 0.03314 2.1343 0.01105 2.6936-0.03646zm34.123-1.7755c0.3744-0.10116 0.77907-0.31357 1.0905-0.57221 0.30145-0.25036 0.42522-0.43733 0.83953-1.2684 2.2032-4.4194 3.1057-9.2173 2.6561-14.121-0.66847-7.2906-4.3612-14.01-10.139-18.449-0.93388-0.71754-2.1916-1.5497-3.1143-2.0605l-0.18631-0.10313 0.38633 0.37081c3.5674 3.4242 6.0447 7.5047 7.3998 12.188 1.6813 5.8116 1.3761 12.023-0.86712 17.643-0.33341 0.83533-0.84467 1.9442-1.0687 2.3179-0.15451 0.25768-0.25064 0.47755-0.32279 0.73795-0.04924 0.17754-0.05792 0.27863-0.05792 0.67549 0 0.39432 0.0095 0.49843 0.05682 0.67138 0.14488 0.52214 0.3954 0.94602 0.76701 1.2978 0.38014 0.35984 0.81242 0.58932 1.3199 0.70068 0.31383 0.06881 0.9313 0.05429 1.2401-0.0292zm-7.9184-6.1074c0.41164-0.10378 0.7893-0.33738 1.0405-0.64365 0.20973-0.25566 0.75901-1.5433 1.1191-2.6234 0.71083-2.1321 1.031-4.1081 1.0347-6.3871 0.0016-1.0131-0.01862-1.411-0.11789-2.3068-0.4279-3.8621-1.986-7.5748-4.4545-10.614-1.0089-1.2422-2.2967-2.4764-3.5819-3.4327-0.46051-0.34268-1.2486-0.88108-1.1991-0.81924 0.01689 0.02108 0.21516 0.28436 0.44067 0.58505 1.4601 1.947 2.5935 4.0189 3.4345 6.2786 0.84838 2.2796 1.3135 4.4283 1.5274 7.0556 0.05318 0.65277 0.04356 2.8904-0.01578 3.572-0.12042 1.3947-0.29108 2.5109-0.56644 3.7033-0.26875 1.1639-0.64822 2.4216-0.81308 2.695-0.3274 0.54284-0.37956 1.1913-0.14267 1.7743 0.17718 0.43603 0.57276 0.84572 1.0098 1.0458 0.37804 0.17307 0.88089 0.21906 1.284 0.11742zm-25.298-0.24095c2.0538-0.11412 4.0129-0.58781 5.8864-1.4232 1.6558-0.73839 3.3573-1.8892 4.6057-3.115l0.40235-0.39508-0.2736 0.16018c-2.5504 1.4932-5.371 2.3785-8.3806 2.6303-1.0262 0.08587-2.5398 0.0612-3.627-0.0591-1.4233-0.1575-3.2501-0.56175-3.7657-0.83331-0.25924-0.13653-0.5081-0.18138-0.76545-0.13798-0.60946 0.1028-1.0427 0.60817-1.0427 1.2163 0 0.3388 0.12547 0.63757 0.36461 0.86863 0.11521 0.11132 0.16792 0.1374 0.50212 0.24852 1.519 0.50506 2.8185 0.74719 4.5605 0.84974 0.33674 0.01982 1.0847 0.01499 1.5335-0.0099zm-16.236-2.2702c-0.99068-0.92582-2.1319-2.1856-2.9757-3.2847-1.1209-1.4601-1.9847-2.8516-2.8174-4.5384-0.59003-1.1953-1.0012-2.1913-1.4147-3.4269-2.023-6.0449-1.8567-12.638 0.46769-18.548 0.37621-0.95647 0.8874-2.0781 1.1364-2.4935 0.26512-0.44229 0.36886-0.78472 0.38999-1.2874 0.0221-0.52583-0.06218-0.92659-0.28674-1.3646-0.78783-1.5362-2.7803-1.9576-4.1341-0.8745-0.34762 0.27812-0.46901 0.44908-0.83764 1.1796-1.6462 3.2625-2.5251 6.4941-2.7923 10.267-0.043085 0.60848-0.043716 2.5188-0.00107 3.1336 0.19294 2.7797 0.7044 5.1829 1.6375 7.6939 0.58747 1.581 1.4362 3.303 2.3399 4.7475 1.5547 2.4852 3.5335 4.7092 5.8154 6.5362 1.092 0.87431 2.0563 1.5268 3.5735 2.4181 0.15672 0.09204 0.14125 0.06785-0.10069-0.15824zm34.962-2.7687c0.20345-0.06284 0.37707-0.17291 0.52381-0.33211 0.09564-0.1038 0.12705-0.17656 0.2824-0.65451 0.40293-1.2398 0.65786-2.5306 0.76647-3.881 0.04182-0.52005 0.04119-1.8599-0.0012-2.3868-0.06518-0.81068-0.17704-1.5708-0.33952-2.3068-0.59366-2.689-1.8118-5.1291-3.601-7.2134-0.29367-0.34211-0.99771-1.0642-0.9365-0.9605 1.0987 1.861 1.8482 3.7133 2.3092 5.7071 0.67768 2.931 0.66484 6.0453-0.03693 8.934-0.19155 0.78858-0.27548 1.0643-0.40183 1.3201-0.15056 0.30483-0.19074 0.52264-0.14614 0.7925 0.06613 0.40014 0.32113 0.74168 0.68276 0.91431 0.21748 0.10381 0.25217 0.11151 0.52392 0.11636 0.13667 0.0024 0.26007-0.01373 0.37449-0.04907zm-29.923-1.208c-1.848-2.4652-3.195-5.1624-4.0451-8.1-0.65382-2.2591-0.9729-4.5284-0.97363-6.9242-7.89e-4 -2.6409 0.36384-5.0141 1.163-7.5693 0.09611-0.30756 0.19797-0.59162 0.2262-0.63126 0.08554-0.12013 0.23313-0.45248 0.28258-0.63634 0.06297-0.23427 0.06344-0.72357 6.79e-4 -0.96007-0.24548-0.92634-1.0785-1.5359-2.0316-1.4867-0.50059 0.02583-0.90114 0.20803-1.2697 0.57757-0.22752 0.22813-0.22941 0.23117-0.44984 0.721-1.8632 4.1402-2.3194 8.5711-1.3325 12.943 1.062 4.7054 3.7725 8.9 7.6114 11.779 0.35788 0.26837 1.233 0.88096 1.2587 0.88104 0.0032 8e-6 -0.19516-0.26726-0.44004-0.59393zm4.0239-3.4542c-1.0615-1.7877-1.8688-3.8972-2.2932-5.9926-0.62609-3.0913-0.50492-6.1988 0.3619-9.2807 0.03709-0.13201 0.12073-0.34803 0.18585-0.48004 0.07339-0.14888 0.12957-0.30836 0.14804-0.42003 0.09753-0.59075-0.31116-1.2128-0.89718-1.3654-0.42582-0.11088-0.85684 0.0014-1.164 0.30331-0.15104 0.14851-0.15151 0.14922-0.31211 0.64204-1.0561 3.2396-1.0998 6.6001-0.12815 9.854 0.73718 2.4688 2.1136 4.8253 3.8671 6.6205 0.20416 0.20901 0.37468 0.38003 0.37896 0.38003 0.0047 0-0.06202-0.11753-0.14725-0.26117zm4.826-17.728c0.42544-0.26442 1.5723-0.85502 2.146-1.1051 3.336-1.4542 6.968-1.9535 10.556-1.4512 1.2437 0.1741 2.7181 0.5259 3.1762 0.75786 0.37999 0.1924 0.74474 0.20467 1.0992 0.03698 0.17578-0.08315 0.44029-0.3219 0.53422-0.48219 0.27655-0.47187 0.20966-1.0696-0.16432-1.4686-0.122-0.13014-0.15951-0.15144-0.44005-0.24978-2.0321-0.71232-4.3496-1.0125-6.5473-0.84812-3.4421 0.2575-6.6936 1.5788-9.3443 3.7971-0.37453 0.31343-1.2446 1.1394-1.1501 1.0917 0.02194-0.01105 0.08238-0.04652 0.13431-0.07873zm-3.357-4.0805c1.6545-1.248 3.4432-2.2753 5.3636-3.0807 4.6477-1.9491 9.7371-2.446 14.714-1.4364 1.2145 0.24636 2.8878 0.72965 3.2448 0.93715 0.22682 0.13184 0.39593 0.19804 0.62778 0.24576 0.98086 0.20186 1.9417-0.35933 2.279-1.3311 0.06771-0.1949 0.07402-0.24679 0.07433-0.60004 3.15e-4 -0.36556-0.0047-0.39946-0.0827-0.62034-0.11774-0.3311-0.2299-0.5069-0.48931-0.76726-0.22463-0.22545-0.23096-0.22943-0.6934-0.43705-0.90886-0.40803-1.7573-0.72955-2.5736-0.97534-3.9411-1.1866-8.0979-1.1626-12.009 0.06941-2.3258 0.7326-4.4658 1.8518-6.3926 3.3431-1.7488 1.3537-3.3244 3.0599-4.5277 4.9031l-0.13052 0.19981 0.11979-0.09086c0.06581-0.04997 0.27988-0.21162 0.47556-0.35922zm-3.2735-5.7564c2.5882-2.5539 5.5191-4.4965 8.8432-5.8613 4.5271-1.8587 9.5408-2.4652 14.375-1.739 2.6816 0.40286 5.2447 1.1907 7.7341 2.3772 0.21268 0.10138 0.49752 0.25123 0.63294 0.33301 0.28763 0.17367 0.60196 0.29376 0.93184 0.35599 0.34615 0.06531 0.89915 0.04132 1.2164-0.05276 0.49103-0.1456 0.84598-0.35546 1.1942-0.70603 0.36643-0.36894 0.58493-0.74864 0.72312-1.2566 0.08554-0.31441 0.08664-1.0012 0.0016-1.3068-0.16734-0.60534-0.47351-1.0917-0.9078-1.4422-0.32461-0.26196-1.7535-0.9553-2.9661-1.4393-2.3053-0.92009-4.7819-1.5153-7.2541-1.7435-0.91135-0.084116-1.4036-0.10517-2.4402-0.10438-1.1111 8.459e-4 -1.8324 0.037955-2.8136 0.14477-4.733 0.51522-9.2339 2.2906-13.012 5.1327-2.391 1.7985-4.3751 3.895-6.0439 6.3857-0.35232 0.52591-1.1326 1.8039-1.1326 1.855 0 0.0066 0.12799-0.12305 0.28438-0.28812 0.1564-0.16506 0.44144-0.45509 0.6334-0.64451z" stroke-width=".026669"/></svg>
