<svg xmlns="http://www.w3.org/2000/svg" xml:space="preserve" width="80" height="80"><path d="M41.823.211c21.97 1.006 38.972 19.64 37.966 41.612-1.006 21.97-19.64 38.972-41.612 37.966C16.207 78.783-.795 60.149.211 38.177 1.217 16.207 19.851-.795 41.823.211Z" style="fill:#0a0a0d;fill-opacity:1;fill-rule:evenodd;stroke:#1f1917;stroke-width:.337232;stroke-linecap:butt;stroke-linejoin:miter;stroke-miterlimit:10;stroke-dasharray:none;stroke-opacity:1"/><path d="M43.675 43.046c.009-.165.022-.328.035-.493-.081-.78-.382-1.526-.47-2.302-.102-.91.092-1.945-.31-2.78-.46-.956-1.622-1.298-2.453-1.833-.162-.104-.289-.238-.44-.35-.746-.555-1.52-1.115-2.526-1.346-.295-.067-.617-.128-.883-.057-.947.25-1.741.902-2.355 1.631l-.673.824c-.935.86-2.21 1.33-2.53 2.72-.003.026-.004.05-.009.075-.003.027-.004.051-.008.076-.005.04-.014.081-.018.123l-.003.057c.003.094.009.19.013.285.095.39.172.762.317 1.145.177.467.425.909.58 1.38.23.7.29 1.451.599 2.13.292.64.625.9 1.079 1.37.301.31.585.64.905.927.364.327 1.006.939 1.51 1.054.105.027.828-.315 1.003-.364.292-.08.59-.068.904-.067l1.358.155c.434.001.878.004 1.26-.204.671-.363.954-1.564 1.328-2.218.184-.322.452-.599.777-.802.264-.166.622-.3.807-.548.113-.152.152-.388.204-.589zm1.476.251c-.172.75-.424 1.212-1.037 1.583-.319.192-.654.338-.913.6-.387.39-.625.858-.914 1.332-.898 1.472-1.718 1.707-3.49 1.27-.552-.136-1.104-.342-1.662-.38-.412-.026-.773.145-1.166.156-.513.018-1.114-.301-1.509-.526-.469-.269-.893-.585-1.317-.905-.409-.31-.833-.573-1.164-.978-.717-.88-.864-1.941-1.245-2.926-.264-.687-.59-1.36-.774-2.063-.468-1.776.476-2.899 1.898-3.758.59-.356 1.172-.693 1.673-1.15.783-.71 1.556-1.853 2.681-2.125.293-.07.58-.148.893-.139.121.027.243.051.364.076 1.337.112 2.418.84 3.493 1.356l1.027.482.187.027c.22.072.435.186.63.297.761.434 1.399 1.286 1.617 2.147.05.194.206.63.162.82.049.18.096.468.052.663.004.08.013.159.022.238l.121.78.322 1.44c.035.225.138.534.085.767.003.114.004.228.009.342-.002.023-.005.045-.005.067l-.003.057c-.003.027-.004.052-.009.077a5.488 5.488 0 0 0-.004.066c-.002.052-.005.103-.005.154-.004.05-.009.102-.018.152z" style="fill:#fff;fill-opacity:1;fill-rule:evenodd;stroke:#1f1917;stroke-width:.337232;stroke-linecap:butt;stroke-linejoin:miter;stroke-miterlimit:10;stroke-dasharray:none;stroke-opacity:1"/><path d="m29.504 39.02.171.6c.43.895 1.106 1.654 1.542 2.539.511 1.04.722 2.353 1.558 3.174.956.941 2.484.853 3.7 1.134.238.054.446.16.675.229 1.123.341 2.284.676 3.579.522.38-.046.79-.112 1.076-.31 1.019-.701 1.686-1.817 2.105-2.946l.448-1.268c.745-1.424 2.062-2.527 1.849-4.317a.703.703 0 0 1-.023-.094.69.69 0 0 1-.022-.094c-.009-.05-.022-.102-.03-.153a.463.463 0 0 0-.023-.07l-.136-.333c-.28-.425-.53-.834-.866-1.227-.41-.48-.894-.9-1.28-1.395-.574-.733-.966-1.602-1.623-2.277-.62-.638-1.129-.806-1.869-1.17-.492-.24-.97-.51-1.473-.716-.572-.234-1.598-.687-2.246-.61-.137.018-.851.73-1.04.862-.312.22-.672.333-1.046.466l-1.682.397c-.517.183-1.046.37-1.413.78-.642.72-.465 2.269-.631 3.207a2.902 2.902 0 0 1-.582 1.286c-.243.31-.613.622-.726.996-.07.23-.018.527.009.788zm-1.865.332c-.115-.966-.013-1.624.56-2.326.296-.366.632-.683.829-1.103.294-.63.377-1.29.518-1.976.44-2.136 1.314-2.766 3.61-3.004.715-.074 1.46-.064 2.14-.258.502-.142.857-.501 1.32-.684.604-.237 1.454-.117 2.02-.018.673.12 1.313.314 1.954.515.62.193 1.236.324 1.803.665 1.229.741 1.858 1.94 2.731 2.95.609.704 1.283 1.366 1.803 2.122 1.316 1.915.672 3.653-.653 5.284-.549.675-1.098 1.326-1.5 2.082-.627 1.18-1.06 2.87-2.281 3.675-.318.209-.627.424-1.003.546l-.466.066c-1.638.437-3.235.035-4.735-.12l-1.428-.136c-.079.018-.157.03-.235.047a4.313 4.313 0 0 1-.875-.085c-1.092-.19-2.214-.932-2.842-1.863-.142-.21-.513-.66-.543-.907-.135-.194-.315-.516-.345-.767l-.129-.273a389.72 389.72 0 0 0-.477-.877l-.998-1.575c-.135-.253-.393-.576-.429-.877-.052-.135-.104-.27-.157-.403-.008-.027-.013-.055-.022-.082-.009-.022-.013-.047-.022-.07a.71.71 0 0 1-.022-.094c-.009-.026-.013-.055-.022-.082-.018-.061-.04-.123-.059-.185-.017-.063-.03-.126-.046-.188z" style="fill:#fff;fill-opacity:1;fill-rule:evenodd;stroke:#1f1917;stroke-width:.780631;stroke-linecap:butt;stroke-linejoin:miter;stroke-miterlimit:10;stroke-dasharray:none;stroke-opacity:1"/><path d="m48.101 39.47-.39-.65c-.786-.916-1.82-1.595-2.61-2.498-.927-1.06-1.589-2.536-2.828-3.238-1.42-.805-3.187-.22-4.705-.166-.296.01-.573-.048-.864-.057-1.427-.048-2.896-.076-4.368.513-.433.173-.893.38-1.167.703-.976 1.144-1.409 2.664-1.544 4.123-.045.544-.086 1.087-.129 1.63-.427 1.907-1.627 3.617-.812 5.654.018.035.04.068.057.102.018.036.04.069.057.103.026.057.055.114.083.17.018.027.031.05.046.076l.265.348c.463.412.887.813 1.404 1.17.633.435 1.334.775 1.943 1.235.904.681 1.64 1.578 2.623 2.164.93.554 1.579.591 2.563.786.653.128 1.3.295 1.956.378.746.095 2.094.304 2.83.009.156-.063.77-1.126.95-1.34.298-.357.685-.603 1.082-.877l1.852-.994c.549-.378 1.112-.765 1.414-1.362.528-1.048-.168-2.812-.269-3.966a3.536 3.536 0 0 1 .28-1.694c.188-.44.524-.923.539-1.399.01-.291-.149-.623-.258-.923zm2.086-.976c.44 1.097.526 1.904.076 2.908-.234.523-.529 1-.628 1.557-.147.832-.035 1.633.014 2.484.155 2.647-.674 3.663-3.296 4.665-.815.311-1.694.535-2.431.976-.546.326-.85.86-1.337 1.219-.634.47-1.671.596-2.367.657-.828.072-1.64.045-2.456.009-.789-.031-1.555.009-2.328-.215-1.677-.483-2.793-1.695-4.137-2.605-.936-.636-1.936-1.2-2.786-1.926-2.148-1.834-1.939-4.08-.895-6.412.431-.966.872-1.903 1.106-2.917.365-1.585.34-3.706 1.523-5.035.308-.346.603-.695 1.006-.959l.527-.222c1.787-1.03 3.79-1.059 5.6-1.35l1.72-.29.261-.13c.341-.101.713-.144 1.055-.175 1.342-.12 2.894.397 3.924 1.294.233.202.812.615.924.894.22.186.532.508.646.793l.238.28.836.88 1.668 1.535c.24.256.644.554.78.896l.311.424.051.09c.018.026.031.05.046.076.018.035.04.068.057.102l.051.09c.045.066.085.133.128.2.035.068.075.136.113.205z" style="fill:#fff;fill-opacity:1;fill-rule:evenodd;stroke:#1f1917;stroke-width:.885081;stroke-linecap:butt;stroke-linejoin:miter;stroke-miterlimit:10;stroke-dasharray:none;stroke-opacity:1"/><path d="m26.004 44.387.666.625c1.211.8 2.63 1.243 3.843 2.028 1.422.92 2.675 2.41 4.34 2.813 1.908.462 3.758-.798 5.497-1.36.339-.11.678-.134 1.018-.22 1.667-.415 3.375-.867 4.884-2.034.444-.343.907-.734 1.118-1.197.751-1.647.75-3.547.427-5.28l-.39-1.928c-.135-2.346.69-4.72-.924-6.807-.036-.03-.067-.067-.1-.1-.031-.035-.067-.067-.1-.1l-.153-.17c-.026-.022-.052-.048-.078-.072l-.421-.316c-.671-.322-1.294-.648-2.01-.89-.876-.294-1.798-.456-2.655-.788-1.27-.489-2.416-1.284-3.748-1.638-1.258-.333-2.021-.163-3.224-.063-.798.067-1.6.088-2.388.208-.894.136-2.521.339-3.276.922-.16.124-.52 1.556-.657 1.864-.227.51-.594.923-.963 1.37l-1.813 1.762c-.511.619-1.036 1.252-1.187 2.041-.265 1.386 1.121 3.198 1.618 4.5.244.64.326 1.348.236 2.052-.073.57-.301 1.24-.162 1.796.085.34.377.671.602.982zm-2.091 1.818c-.87-1.125-1.235-2.029-1.047-3.34.098-.681.282-1.332.213-2.007-.104-1.011-.496-1.902-.835-2.87-1.053-3.01-.429-4.458 2.274-6.483.84-.63 1.782-1.178 2.49-1.93.524-.557.7-1.275 1.144-1.852.58-.752 1.737-1.24 2.522-1.54.934-.356 1.883-.593 2.838-.823.923-.222 1.796-.522 2.763-.52 2.1.005 3.79 1.04 5.645 1.65 1.292.426 2.636.75 3.858 1.309 3.09 1.414 3.589 4.08 3.15 7.122-.18 1.259-.381 2.489-.317 3.74.1 1.953.827 4.398-.101 6.326-.242.501-.468 1.003-.848 1.44l-.536.432c-1.727 1.78-4.034 2.474-6.033 3.407l-1.894.904-.26.236c-.36.23-.776.402-1.162.55-1.512.582-3.478.495-4.966-.202-.336-.157-1.142-.443-1.364-.73-.316-.142-.783-.411-1.008-.703a66.198 66.198 0 0 0-.368-.247l-1.257-.74-2.436-1.228c-.361-.216-.927-.428-1.198-.779l-.5-.388c-.03-.026-.06-.058-.089-.086-.026-.027-.052-.048-.078-.072-.035-.031-.066-.067-.1-.1l-.088-.087-.213-.19a41.966 41.966 0 0 0-.2-.199z" style="fill:#fff;fill-opacity:1;fill-rule:evenodd;stroke:#1f1917;stroke-width:.885081;stroke-linecap:butt;stroke-linejoin:miter;stroke-miterlimit:10;stroke-dasharray:none;stroke-opacity:1"/><path d="M50.574 31.016c-.327-.174-.652-.348-.978-.524-1.675-.557-3.482-.633-5.153-1.172-1.96-.633-3.9-1.99-5.984-1.938-2.386.057-4.164 2.12-6.029 3.327-.363.235-.754.37-1.126.578-1.828 1.013-3.693 2.081-5.097 3.927-.413.542-.835 1.148-.938 1.758-.364 2.17.236 4.403 1.162 6.336l1.064 2.143c.897 2.714.676 5.761 3.229 7.705.05.027.099.057.149.086.049.027.098.058.148.087l.233.15.114.06.595.239c.89.168 1.723.354 2.64.412 1.122.07 2.257-.026 3.367.09 1.647.176 3.242.749 4.918.746 1.583-.005 2.427-.446 3.808-.94.917-.331 1.853-.608 2.74-.996 1.006-.443 2.855-1.193 3.558-2.116.148-.195.12-1.991.184-2.396.106-.67.408-1.27.7-1.913l1.575-2.64c.406-.887.822-1.795.752-2.77-.124-1.713-2.323-3.404-3.317-4.777a5.177 5.177 0 0 1-.923-2.336c-.094-.693-.035-1.552-.374-2.161-.207-.373-.655-.67-1.017-.965zm1.885-2.792c1.376 1.047 2.089 1.994 2.28 3.592.1.832.089 1.654.383 2.426.44 1.156 1.18 2.077 1.883 3.109 2.185 3.204 1.907 5.102-.63 8.33-.79 1.003-1.723 1.945-2.318 3.052-.44.819-.42 1.717-.761 2.534-.444 1.066-1.65 2.004-2.478 2.603-.984.713-2.025 1.29-3.074 1.86-1.015.552-1.945 1.179-3.083 1.48-2.468.654-4.78-.026-7.15-.16-1.652-.094-3.332-.052-4.943-.323-4.075-.689-5.5-3.664-5.943-7.375-.184-1.535-.335-3.043-.805-4.493-.732-2.263-2.355-4.906-1.871-7.463.126-.665.234-1.326.542-1.959l.494-.675c1.469-2.635 3.96-4.176 6.014-5.902l1.94-1.657.231-.36c.351-.383.785-.716 1.192-1.012 1.594-1.16 3.93-1.676 5.898-1.325 1.895.335 3.6 1.07 5.457 1.585l3.247.674c.493.14 1.224.212 1.653.538l.71.299c.043.026.087.05.13.073.04.018.077.04.115.061.05.027.1.058.149.086.044.027.088.05.131.073.103.053.207.104.31.156l.297.173z" style="fill:#fff;fill-opacity:1;fill-rule:evenodd;stroke:#1f1917;stroke-width:.885081;stroke-linecap:butt;stroke-linejoin:miter;stroke-miterlimit:10;stroke-dasharray:none;stroke-opacity:1"/><path d="m27.173 55.621 1.38.208c2.221-.048 4.395-.724 6.603-.793 2.591-.078 5.465.707 7.911-.235 2.804-1.079 4.038-4.275 5.737-6.496.332-.432.737-.758 1.09-1.16 1.737-1.975 3.495-4.03 4.379-6.812.26-.818.503-1.714.366-2.48-.487-2.727-2.142-5.119-4.058-7.018l-2.169-2.09c-2.21-2.835-3.239-6.54-7.087-7.763l-.212-.04-.213-.04-.34-.08a2.001 2.001 0 0 0-.161-.022c-.268-.008-.538-.022-.806-.03-1.125.177-2.192.31-3.303.628-1.36.392-2.663.99-4.028 1.318-2.026.49-4.16.487-6.144 1.2-1.875.675-2.687 1.554-4.114 2.726-.947.779-1.94 1.504-2.826 2.34-1.006.949-2.879 2.62-3.32 4.012-.094.294.699 2.411.795 2.918.158.84.055 1.679-.018 2.564l-.75 3.795c-.105 1.223-.214 2.476.282 3.602.872 1.976 4.194 3.05 5.953 4.256a6.507 6.507 0 0 1 2.083 2.378c.404.781.7 1.824 1.357 2.402.404.355 1.06.518 1.614.712zm-1.052 4.108c-2.074-.66-3.32-1.479-4.224-3.293-.469-.943-.804-1.922-1.479-2.712-1.01-1.183-2.279-1.963-3.548-2.887-3.945-2.872-4.42-5.239-2.779-10.139.51-1.523 1.219-3.034 1.454-4.598.176-1.157-.228-2.213-.17-3.325.075-1.45 1.107-3.074 1.834-4.134.866-1.26 1.854-2.385 2.856-3.506.969-1.083 1.807-2.22 3.027-3.059 2.648-1.819 5.676-1.99 8.54-2.836 2-.588 3.972-1.349 5.997-1.71 5.12-.908 8.068 2.014 10.164 6.225.868 1.743 1.684 3.465 2.855 4.984 1.825 2.371 4.868 4.816 5.377 8.052.132.842.284 1.67.186 2.55l-.299 1.01c-.625 3.744-2.925 6.625-4.629 9.54-.533.928-1.066 1.856-1.598 2.786l-.122.523c-.253.604-.626 1.182-.984 1.704-1.397 2.049-3.948 3.65-6.428 4.067-1.733.294-3.193.242-4.91.27l-2.228.161-4.134.576c-.643.04-1.54.267-2.185.062l-.968-.054c-.062-.009-.125-.022-.186-.031a2.001 2.001 0 0 0-.162-.022l-.212-.04c-.063-.009-.125-.022-.187-.031-.144-.018-.29-.035-.433-.054l-.425-.078z" style="fill:#fff;fill-opacity:1;fill-rule:evenodd;stroke:#1f1917;stroke-width:.885081;stroke-linecap:butt;stroke-linejoin:miter;stroke-miterlimit:10;stroke-dasharray:none;stroke-opacity:1"/><path d="M45.307 18.133c-.562.064-1.124.128-1.686.19-2.595.757-4.935 2.234-7.507 3.01-3.02.908-6.641.89-9.22 2.767-2.954 2.149-3.397 6.292-4.693 9.436-.254.611-.628 1.122-.917 1.706-1.418 2.866-2.835 5.834-2.998 9.38-.048 1.042-.052 2.171.35 3.029 1.43 3.049 4.128 5.338 6.976 6.966l3.205 1.77c3.49 2.636 5.864 6.665 10.769 6.89.087-.01.175-.013.262-.022.086-.01.175-.014.262-.022l.424-.014c.066-.009.132-.017.197-.022l.956-.217c1.267-.563 2.478-1.054 3.682-1.778 1.474-.89 2.816-2 4.317-2.817 2.226-1.213 4.734-1.88 6.84-3.342 1.99-1.383 2.667-2.672 3.975-4.498.867-1.213 1.804-2.377 2.583-3.637.883-1.432 2.556-3.986 2.637-5.76.018-.374-1.58-2.611-1.852-3.176-.45-.937-.594-1.954-.785-3.017l-.313-4.695c-.262-1.469-.527-2.976-1.465-4.142-1.646-2.047-5.886-2.263-8.332-3.126a7.92 7.92 0 0 1-3.195-2.138c-.722-.79-1.396-1.922-2.352-2.394-.585-.29-1.408-.275-2.12-.329zm-.057-5.156c2.644.12 4.366.692 5.997 2.538.85.96 1.551 2.005 2.592 2.72 1.56 1.071 3.295 1.589 5.077 2.275 5.538 2.132 6.84 4.763 6.455 11.036-.12 1.949-.476 3.947-.26 5.858.158 1.414.964 2.528 1.246 3.853.369 1.727-.334 3.958-.854 5.433-.62 1.753-1.427 3.385-2.251 5.017-.797 1.577-1.424 3.176-2.592 4.546-2.538 2.97-6.042 4.124-9.14 6.02-2.163 1.319-4.241 2.834-6.506 3.895-5.728 2.679-10.111.174-13.898-4.112-1.568-1.774-3.07-3.54-4.923-4.956-2.89-2.211-7.235-4.126-8.85-7.766-.421-.947-.86-1.873-1.022-2.938.009-.427.022-.853.03-1.28-.443-4.595 1.352-8.703 2.436-12.664.334-1.257.668-2.516 1-3.775-.008-.217-.012-.434-.021-.652.107-.79.364-1.585.62-2.312.996-2.846 3.488-5.53 6.27-6.8 2.678-1.228 5.464-1.785 8.25-2.754l4.674-1.977c.742-.252 1.724-.799 2.548-.761l1.153-.241c.077-.009.154-.013.23-.022.065-.009.131-.018.196-.022.087-.01.175-.013.262-.022.077-.01.154-.014.23-.022.175-.027.35-.05.525-.074l.524-.04z" style="fill:#fff;fill-opacity:1;fill-rule:evenodd;stroke:#1f1917;stroke-width:.885081;stroke-linecap:butt;stroke-linejoin:miter;stroke-miterlimit:10;stroke-dasharray:none;stroke-opacity:1"/></svg>