<svg xmlns="http://www.w3.org/2000/svg" width="64pt" height="64pt" viewBox="0 0 64 64"><path d="M29.848 63.96c-13.41-.644-25.641-10.792-28.813-23.847C-2.152 28.227 2.184 14.7 11.91 7.11c9.27-7.671 22.945-9.312 33.758-4.046 11.406 5.304 19.039 17.769 18.281 30.382-.41 12.078-8.285 23.48-19.46 28.082-4.606 2.043-9.65 2.645-14.641 2.434zm16.804-20.28v-6.922c-3.754-1.88-7.507-3.762-11.265-5.637-.004 1.797 0 3.594-.004 5.387l6.453 3.23v7.883l-6.453 3.23v5.391c3.758-1.883 7.512-3.762 11.27-5.64V43.68zm-18.03-14.735c.444-1.394-.724-1.789-1.778-2.254l-4.676-2.367v-7.898c2.152-1.09 4.305-2.18 6.453-3.27V7.75c-3.758 1.902-7.512 3.805-11.27 5.71v13.83l11.266 5.706c.004-1.351.004-2.703.004-4.05zm0 0"/></svg>