<svg xmlns="http://www.w3.org/2000/svg" xml:space="preserve" width="80" height="80"><path d="M38.6 79.975a39.796 39.796 0 0 1-22.64-8.013A40.114 40.114 0 0 1 3.064 55.375a40.095 40.095 0 0 1-.152-30.38A40.176 40.176 0 0 1 19.586 5.597a40.602 40.602 0 0 1 6.214-3A40.065 40.065 0 0 1 42.695.09a39.79 39.79 0 0 1 21.334 7.93c.815.611 1.86 1.47 2.628 2.156.41.367 1.724 1.614 1.825 1.733.035.04.237.253.448.471 1.498 1.547 3.083 3.526 4.371 5.457a40.254 40.254 0 0 1 4.063 7.854 39.781 39.781 0 0 1 2.358 9.588c.976 8.287-.633 16.626-4.61 23.891a40.197 40.197 0 0 1-18.587 17.264 39.969 39.969 0 0 1-17.926 3.54zm11.139-11.75a29.996 29.996 0 0 0 4.97-2.151c.609-.335 1.023-.578.987-.578-.015 0-.177.029-.36.065a902.7 902.7 0 0 1-14.608 2.721.43.43 0 0 0-.173.068c-.06.05.029.05 4.29.051l4.35.001.544-.176zm-14.397-.367 3.219-1.016c.917-.288 2.213-.698 2.88-.91l4.534-1.435a12281.754 12281.754 0 0 0 5.947-1.882 21185.688 21185.688 0 0 0 11.373-3.6c.016 0 .704-.864.965-1.214a30.636 30.636 0 0 0 1.86-2.794c.324-.555.743-1.328.727-1.344-.007-.007-.72.295-1.582.673-.863.377-2.079.905-2.702 1.173-2.5 1.072-5.44 2.36-15.575 6.82-2.882 1.269-6.02 2.645-6.974 3.06-2.736 1.188-4.978 2.188-5.53 2.465-.283.142-.658.36-.75.438l-.067.055.061.001c.034 0 .76-.22 1.614-.49zm-.715-.569a8.71 8.71 0 0 0 .427-.235c.132-.077.702-.406 1.267-.73 1.129-.648 1.215-.713 1.192-.885a.578.578 0 0 0-.103-.223c-.049-.066-.792-.993-1.65-2.06-.86-1.068-2.755-3.435-4.213-5.261-3.9-4.886-7.38-9.234-9.838-12.295-3.139-3.908-4.103-5.113-4.224-5.28-.116-.16-.312-.373-.343-.373-.023 0 .011.127.058.216a809.91 809.91 0 0 1 3.44 5.49c1.09 1.754 2.181 3.5 2.423 3.881.242.381.97 1.546 1.617 2.587a2933.07 2933.07 0 0 0 2.652 4.254c3.869 6.192 6.64 10.64 6.71 10.77a.865.865 0 0 0 .154.207c.096.08.163.071.431-.063zm-5.69 0c-.27-.533-1.83-3.723-2.397-4.9a613.778 613.778 0 0 0-3.173-6.494c-.535-1.078-2.014-4.085-3.287-6.68-1.273-2.597-3.001-6.12-3.84-7.828a3557.64 3557.64 0 0 1-2.433-4.96c-1.283-2.624-1.594-3.25-1.623-3.268-.05-.032-.023.13.052.303.043.098.104.268.137.378.032.11.08.242.106.293.026.051.12.297.207.547.088.249.37 1.023.627 1.72.257.697.607 1.66.778 2.143.17.482.548 1.538.84 2.347.291.809.796 2.22 1.122 3.137.325.917.71 1.973.853 2.347.398 1.032.572 1.505.786 2.133.234.688.863 2.42 2.908 8.001a17325.74 17325.74 0 0 1 2.8 7.649l.074.195.616.409a28.02 28.02 0 0 0 3.243 1.866c.59.292 1.597.758 1.648.761a.45.45 0 0 0-.044-.099zm12.154-3.806c.06-.021.479-.253.93-.516l1.82-1.059c1.15-.667 3.16-1.838 6.734-3.92 1.379-.804 3.233-1.881 4.12-2.394a707.716 707.716 0 0 0 3.948-2.3c2.178-1.276 4.043-2.367 6.907-4.039 1.84-1.075 3.353-1.96 3.36-1.967.007-.006.013-.158.013-.336 0-.374-.002-.381-.325-.871a62.075 62.075 0 0 1-.805-1.316c-.418-.695-.642-1.044-.684-1.063-.078-.036.28-.298-4.346 3.192-3.58 2.7-6.443 4.86-11.814 8.908-1.438 1.083-3.37 2.541-4.294 3.24-2.59 1.958-5.266 3.977-5.417 4.087-.14.101-.33.295-.33.335 0 .065.04.07.183.02zm.032-.937c.352-.317 1.535-1.514 1.596-1.614.066-.107.069-.16.016-.263-.045-.087-5.913-4.836-14.121-11.428-3.995-3.208-5.51-4.43-5.77-4.656-.237-.207-.473-.357-.53-.338-.016.005.09.141.239.302.29.315 17.84 17.832 18.095 18.061.085.076.175.139.202.139.026 0 .15-.092.273-.203zm4-3.683c.035-.026 1.067-.989 2.292-2.14 3.64-3.425 4.779-4.494 6.547-6.15 4.298-4.021 5.509-5.157 9.708-9.107.117-.11.284-.26.37-.332.186-.155.31-.337.31-.455 0-.093-.095-.237-.253-.386-.055-.05-.285-.3-.512-.553-.755-.846-1.252-1.287-1.447-1.287-.102 0-.196.094-.671.667-.225.271-1.124 1.345-1.998 2.387-.874 1.041-4.39 5.236-7.812 9.32a2793.017 2793.017 0 0 1-6.347 7.561c-.171.184-.26.306-.308.422-.039.092-.038.098.007.098.026 0 .077-.02.113-.046zm-.223-.815c.03-.033.088-.12.13-.193.138-.246.5-.767.777-1.119.323-.41.394-.538.37-.667-.02-.105-.156-.236-.32-.307-.213-.093-.741-.35-2.216-1.08a20344.308 20344.308 0 0 0-10.374-5.134c-.807-.4-1.779-.88-2.16-1.067-.381-.186-1.422-.701-2.313-1.144-.89-.442-1.656-.811-1.7-.82-.121-.024-.102.034.06.183.152.141.315.257 1.053.75.268.178.976.653 1.574 1.056a510.32 510.32 0 0 0 2.82 1.877c5.13 3.392 7.504 4.926 9.68 6.254l1.267.773c.628.384 1.194.698 1.255.698.024 0 .067-.027.097-.06zm-28.835-2.104c-.353-1.46-.726-2.963-.932-3.756a35.725 35.725 0 0 1-.242-1.014c-.067-.3-.336-1.399-.598-2.44a477.61 477.61 0 0 1-.84-3.4c-1.15-4.749-2.312-9.374-2.37-9.433-.008-.007-.008.05 0 .13.007.078.226 2.938.487 6.356l.474 6.214.254.76a29.391 29.391 0 0 0 3.05 6.454c.397.63 1.026 1.552 1.046 1.533a51.71 51.71 0 0 0-.329-1.404zm31.888-2.47c.038-.04.336-.475.663-.966 1.07-1.609 4.328-6.454 5.64-8.388.705-1.041 1.972-2.92 2.813-4.173a181.302 181.302 0 0 1 1.766-2.6c.268-.366.42-.647.42-.777a.24.24 0 0 0-.072-.168 9.675 9.675 0 0 0-.674-.497c-.33-.23-.702-.5-.827-.599-.408-.324-.487-.352-.591-.206-.034.047-.417.8-.851 1.673-.435.873-1.147 2.289-1.584 3.147-.64 1.257-2.62 5.18-6.568 13.014-.273.543-.323.742-.135.54zm-.716-.304c.126-.067.215-.243.433-.856.297-.836.308-.896.178-1.014-.066-.06-1.478-.414-4.073-1.02l-2.854-.67c-.47-.11-1.291-.294-1.827-.41-2.318-.5-4.719-1.039-5.533-1.243-.49-.123-.867-.176-.867-.122 0 .063.34.247.76.413.132.052 1.26.479 2.507.948 3.1 1.168 5.208 1.924 9.11 3.271.948.328 1.752.61 1.787.63.061.032.254.099.299.102a.23.23 0 0 0 .08-.029zm.99-4.326c.08-.08.13-.244.203-.676.086-.508.056-.76-.1-.831-.037-.018-.51-.035-1.228-.045-1.084-.016-2.62.002-5.727.069-.69.014-1.938.038-2.774.052-1.455.024-1.694.039-1.694.107 0 .033.183.097.374.13.18.033 2.84.346 5.134.605a4310.565 4310.565 0 0 1 5.715.65c.019 0 .063-.026.098-.061zm1.074-1.197c.077-.15.195-.447.263-.66.068-.212.226-.65.35-.973.125-.323.285-.749.355-.947.07-.198.201-.552.292-.787.929-2.392 1.951-5.22 2.921-8.08.269-.792.527-1.548.574-1.68a2.04 2.04 0 0 0 .1-.39c.012-.135.006-.16-.05-.216-.071-.071-1.657-.621-1.72-.597-.075.029-.136.185-.208.528-.04.195-.247 1.153-.46 2.128-.212.975-.493 2.278-.624 2.894-.13.616-.406 1.876-.613 2.8-.207.924-.417 1.89-.466 2.147-.083.429-.206 1.014-.455 2.16-.052.242-.13.56-.171.707a5.38 5.38 0 0 0-.119.536 2.97 2.97 0 0 1-.078.374c-.05.142-.08.33-.052.33.012 0 .085-.123.161-.274zm-16.329-.58c.05-.05.055-.086.053-.367a26.777 26.777 0 0 0-.047-1.033 157.41 157.41 0 0 1-.111-2.36c-.037-.902-.097-2.186-.133-2.854-.036-.667-.078-1.561-.094-1.986-.029-.791-.04-.92-.08-.92-.032 0-.046.123-.107.946-.029.396-.089 1.104-.132 1.574-.143 1.521-.21 2.328-.28 3.32a54.582 54.582 0 0 1-.134 1.573c-.123 1.148-.16 1.88-.096 1.957.05.061.343.146.658.19.313.044.429.035.503-.04zm3.46-.241c.233-.047.428-.1.455-.125.096-.086.052-.371-.113-.738-.072-.159-.356-.893-.851-2.203-.203-.535-.594-1.55-.87-2.253-.274-.704-.57-1.478-.657-1.72-.18-.502-.389-1.007-.425-1.029-.046-.028-.023.217.043.455.036.132.08.342.096.467s.064.38.106.568c.043.188.168.834.279 1.437.11.602.238 1.252.282 1.445.045.193.194.87.332 1.506.214.981.339 1.505.493 2.066.065.235.182.253.83.124zm-7.184-.352c.052-.065.14-.403.257-1.001.065-.333.311-1.5.546-2.593.234-1.093.482-2.275.55-2.627.067-.352.157-.778.2-.946.042-.17.108-.475.147-.68.04-.206.111-.56.16-.787.05-.228.186-.93.303-1.56.24-1.298.557-2.94.656-3.408.066-.31.088-.633.044-.633-.013 0-.044.075-.07.167a6.212 6.212 0 0 1-.147.433 44.31 44.31 0 0 0-.429 1.28c-.34 1.055-1.816 5.44-2.105 6.254-.526 1.484-1.813 5.327-1.813 5.416 0 .056.013.132.03.168.048.106.124.136 1.143.46.294.092.482.113.527.057zm12.727-.564a26394.445 26394.445 0 0 1 5.716-.74c.543-.072.54-.07.53-.408-.005-.233-.196-1.222-.247-1.283a.205.205 0 0 0-.082-.053c-.031-.01-1.386.42-3.51 1.116a382.566 382.566 0 0 1-3.718 1.205c-.416.117-.661.265-.556.335.07.047.452.012 1.867-.172zm-2.51-.22c.42-.225.798-.463.868-.546.154-.184.083-.294-.505-.772a116.151 116.151 0 0 1-2.707-2.381c-.447-.426-.65-.539-.552-.308.057.136 2.473 4.058 2.522 4.096.072.055.136.04.375-.088zm29.369-2.188a50.484 50.484 0 0 1-.684-1.902c-.107-.315-.305-.88-.44-1.253-.135-.374-.441-1.262-.68-1.974-.24-.711-.48-1.413-.533-1.56-.054-.147-.33-.945-.613-1.773-.283-.83-.781-2.263-1.107-3.187a5268.39 5268.39 0 0 1-3.868-11.055l-1.094-3.128-.112-.314-.27-.225a30.01 30.01 0 0 0-4.125-2.872c-.542-.312-1.306-.723-1.32-.71-.004.005.04.111.098.236a173.76 173.76 0 0 0 1.615 3.48c.454.953.886 1.865.96 2.027.075.16.346.725.602 1.253a3796.84 3796.84 0 0 1 8.66 18.255c.553 1.18 1.454 3.082 2.003 4.225l.997 2.079.007-.67.008-.67zm-44.33 1.354a.755.755 0 0 0 .123-.207c.076-.202.275-.61 1.972-4.062.877-1.782 2.06-4.195 2.628-5.36a874.973 874.973 0 0 1 3.815-7.759c.467-.922.56-1.144.472-1.117-.036.012-.263.35-.805 1.2-.19.298-.713 1.1-1.163 1.782-.45.682-1.48 2.254-2.292 3.493a749.319 749.319 0 0 1-1.787 2.72c-.172.257-.777 1.193-1.347 2.08-.57.888-1.295 2.016-1.612 2.507-1.037 1.604-1.698 2.68-1.926 3.137-.13.261-.133.271-.093.348.064.125.21.241.78.623.739.495 1.056.692 1.113.693.028 0 .083-.035.123-.078zm19.068-1.706c1.371-.837 2.15-1.3 2.482-1.472.125-.065.29-.179.367-.253.117-.112.14-.15.14-.226 0-.106-.085-.3-.25-.57a10.9 10.9 0 0 1-.21-.362c-.097-.176-.242-.347-.295-.347a.509.509 0 0 0-.14.127c-.405.457-.802.888-1.65 1.789l-1.299 1.382c-.185.197-.364.41-.397.473-.06.113-.058.203.005.203.017 0 .578-.335 1.247-.744zm-1.865.01c.073-.203.127-.375.12-.383a82.46 82.46 0 0 0-2.352-.392 102.95 102.95 0 0 0 2.092 1.15c.003-.002.066-.17.14-.374zm7.546-4.453c.192-2.04.367-3.917.39-4.174.023-.257.059-.584.08-.727a3.85 3.85 0 0 0 .039-.46c0-.308-.056-.347-.617-.426-.393-.056-.5-.053-.575.017-.05.047-.062.087-.063.207-.002.273.326 9.242.34 9.31.013.062.016.063.036.013.011-.03.178-1.722.37-3.76zm-7.287 2.766a9.244 9.244 0 0 1-.048-.28c-.018-.113-.04-.206-.051-.206-.026 0-1.258.427-1.302.452-.033.018.891.094 1.26.104l.156.004zm-22.234-.023c.045-.038.139-.143.208-.233.147-.19 5.95-7.343 7.09-8.738.425-.52 2.008-2.465 3.517-4.32 4.597-5.651 5.432-6.677 5.511-6.768.042-.048.076-.112.076-.142 0-.053-.002-.053-.087.007-.047.033-.933.901-1.968 1.928a731.3 731.3 0 0 1-3.52 3.468 4598.998 4598.998 0 0 0-10.375 10.192c-1.45 1.427-2.51 2.493-2.53 2.54-.03.07-.026.095.023.195.08.16 1.836 1.941 1.914 1.941.032 0 .095-.031.14-.07zm19.51-.005a305.24 305.24 0 0 1-.15-.498 4.587 4.587 0 0 0-.16-.479c-.015-.015-.024.029-.024.11 0 .073-.008.312-.018.531l-.017.398.192-.01c.164-.007.19-.014.178-.052zm8.289-.288a3.202 3.202 0 0 0-.073-.548c-.037-.17-.105-.579-.15-.906-.159-1.139-.621-4.034-.811-5.077-.051-.279-.106-.633-.123-.787a5.134 5.134 0 0 0-.068-.447c-.08-.36-.155-.407-.51-.323-.412.098-.977.21-1.055.21-.105 0-.233.13-.233.236 0 .093.601 1.785.954 2.685.132.337.375.985.539 1.44.164.454.482 1.283.705 1.84.561 1.402.682 1.712.682 1.746 0 .06.084.19.115.18.022-.008.03-.086.028-.249zm-9.638-.752c.12-.504.215-.92.21-.926-.011-.01-.883 1.548-.897 1.601-.008.035.425.28.452.255.009-.008.115-.427.235-.93zm3.075.13.551-.463-.072-.083c-.718-.824-.949-1.082-.965-1.082-.024 0-.712.555-.969.78-.1.088-.177.17-.173.18.017.042 1.043 1.148 1.06 1.14.009-.004.265-.216.568-.471zm3.112-1.847c.001-.02-.588-.376-.598-.362-.003.004-.116.565-.251 1.247l-.258 1.294c-.007.029.239-.445.546-1.054.308-.608.56-1.115.561-1.125zm20.936 1.551c0-.056-.161-.343-.374-.666a100.46 100.46 0 0 1-.84-1.32c-.67-1.07-.684-1.09-5.031-8.135a4891.175 4891.175 0 0 0-9.816-15.826c-.853-1.368-1.476-2.342-1.508-2.357-.087-.038-.46.169-1.807 1.002-.25.155-.613.37-.807.478-.468.26-.603.362-.612.464-.012.12.137.346.571.869.213.255.766.948 1.231 1.54 1.75 2.232 2.214 2.82 5.635 7.15 1.929 2.443 4.4 5.575 5.491 6.961 1.091 1.386 2.621 3.324 3.4 4.307.78.983 1.944 2.46 2.587 3.28 1.682 2.147 1.88 2.385 1.88 2.253zm-28.882-.861c.728-.669 2.893-2.87 3.098-3.149.08-.111.1-.23.038-.23-.02 0-.834.464-1.807 1.03-.973.567-1.894 1.098-2.047 1.18-.153.083-.32.19-.37.237-.083.078-.091.098-.078.194.024.18.35.765.558 1.002.134.153.172.137.608-.264zm5.899-.304a8.922 8.922 0 0 0-.088-.606c-.02-.02-.4.017-.391.038.137.337.542 1.22.547 1.195a9.969 9.969 0 0 0-.068-.627zm-2.118-.474a4.07 4.07 0 0 0 .399-.217c-.01-.01-1.357.145-1.369.157a3.826 3.826 0 0 0-.026.298l-.02.29.305-.16c.167-.089.487-.254.711-.368zm4.898-.25c.008-.014-.002-.07-.022-.128-.038-.11-1.343-2.47-1.736-3.142-.313-.536-.363-.608-.45-.65-.072-.034-.108-.02-.76.285-.448.21-.701.343-.734.387-.099.13-.005.27.396.59.132.105.475.395.761.643a82.294 82.294 0 0 0 1.827 1.531c.117.094.273.225.346.29.212.188.336.252.372.193zm-2.932-.643c.055-.09-.133-.196-1.293-.729a13.504 13.504 0 0 1-.587-.283.847.847 0 0 0-.178-.081c-.066-.001-.192.138-.285.316-.209.397-.107.5.543.55.125.01.527.07.893.133.694.119.88.138.907.094zm-7.56-1.156c.242-.081.662-.219.933-.307.489-.157 1.305-.441 4.04-1.404.778-.274 1.694-.593 2.035-.709.643-.217.952-.356.952-.425 0-.087-.281-.062-1.227.108-.234.042-.534.09-.666.106s-.414.059-.627.096c-.213.037-.579.096-.813.131-.235.036-.697.107-1.027.16l-.88.135c-.154.022-.4.063-.547.09a9.547 9.547 0 0 1-.507.08c-.132.016-.54.077-.906.136-.778.125-1.28.202-1.467.227-.185.024-.304.084-.324.163-.024.096.008.323.096.673.043.17.086.369.096.442.025.179.112.406.167.44.07.043.2.016.672-.142zm-19.186-.301c.057-.039.182-.139.277-.222.201-.176.428-.356 3.52-2.802 3.32-2.624 3.197-2.527 4.668-3.694 4.712-3.74 9.018-7.155 9.28-7.36.17-.13.607-.48.974-.774.367-.295 1.003-.799 1.413-1.12.411-.32.831-.657.934-.748.102-.09.432-.35.733-.576 1.168-.878 3.379-2.656 3.385-2.723.001-.01-.01-.02-.023-.02-.023 0-2.481 1.493-4.202 2.552a7183.421 7183.421 0 0 0-16.401 10.062 751.586 751.586 0 0 1-3.987 2.442c-.316.188-.874.53-1.24.76-.367.23-.823.51-1.014.622a3.97 3.97 0 0 0-.447.296c-.181.167-.192.142.626 1.438.4.633.809 1.294.91 1.47.1.176.213.353.252.393.09.095.205.096.342.004zm44.921-.081c0-.025-.334-.382-.741-.794a138240.73 138240.73 0 0 0-14.8-14.948 642.633 642.633 0 0 0-3.67-3.692c-.043-.033-.088-.045-.13-.035-.087.022-2.012 1.934-2.034 2.02a.267.267 0 0 0 .01.136c.028.073 2.151 1.813 9.204 7.543 2.12 1.722 4.316 3.51 4.88 3.974a682.25 682.25 0 0 0 3.32 2.693c2.206 1.779 3.178 2.571 3.522 2.87.148.129.37.276.419.277.011 0 .02-.02.02-.044zm8.691-5.307a29.193 29.193 0 0 0-1.075-2.834c-.213-.483-.712-1.528-.724-1.516-.004.004.112.541.258 1.194.308 1.37 1.7 7.535 1.71 7.566.004.011.01-.845.014-1.903l.007-1.924zm-14.987 1.97c-.053-.083-.36-.308-.736-.539-.203-.124-1.113-.7-2.022-1.282a7919.73 7919.73 0 0 0-8.707-5.56c-1.318-.839-3.712-2.366-4.64-2.96a80.321 80.321 0 0 1-.715-.46c-.306-.202-.34-.213-.43-.146-.058.044-.482.67-1.03 1.521-.157.243-.186.4-.092.5.034.036.404.234.824.441 1.628.804 9.813 4.81 13.107 6.415a265.27 265.27 0 0 1 3.76 1.854c.316.177.52.26.637.262.063.001.07-.005.044-.045zm-17.133-.193c1.365-.028 3.429-.07 4.588-.092 2.86-.056 3.266-.077 3.266-.175 0-.06-.876-.165-5.427-.653-.337-.036-1.057-.108-1.6-.158-.542-.051-1.31-.129-1.707-.173a113 113 0 0 0-2.596-.269c-.055 0-.091.018-.111.055-.016.03-.04.266-.055.526-.037.659-.004.971.105 1.002.024.007.272.007.55 0 .28-.007 1.623-.035 2.987-.063zm12.721-.56c-.043-.07-.624-.296-1.853-.72-.433-.149-1.333-.47-2-.712a192.018 192.018 0 0 0-3.147-1.115 649.654 649.654 0 0 1-4.454-1.553c-3.291-1.16-3.687-1.295-3.73-1.27-.07.043-.248.423-.36.77a10.93 10.93 0 0 1-.22.606c-.2.492-.154.584.337.67.124.022 1.786.388 3.693.814 1.907.426 5.01 1.111 6.894 1.523 2.851.624 3.755.824 4.494.995.108.026.363.02.346-.008zM14.18 27.122l.94-.45a352.6 352.6 0 0 1 3.28-1.566c.76-.356 1.386-.655 4.76-2.274l1.6-.767 1.948-.933c2.38-1.142 2.815-1.35 3.96-1.894a460.006 460.006 0 0 0 3.48-1.667l.747-.36.747-.36c.146-.07.782-.375 1.413-.68.63-.304 1.765-.844 2.52-1.2.756-.356 1.662-.788 2.014-.96 2.074-1.012 4.098-1.986 4.386-2.11.305-.133.454-.225.454-.281 0-.012-.263-.022-.584-.022h-.584l-.027.078a.273.273 0 0 1-.09.119c-.035.023-.381.149-.77.28-.387.13-1.443.498-2.345.816-.902.318-2.194.769-2.871 1.001-.677.232-1.397.485-1.6.56-.203.077-.76.275-1.236.44-1.576.547-2.516.876-5.6 1.959-1.68.59-3.894 1.365-4.921 1.724a4387.664 4387.664 0 0 0-7.254 2.54l-1.36.475-.208.264c-.75.95-1.624 2.261-2.318 3.478-.29.51-1.061 1.99-1.061 2.038 0 .028.018.02.58-.248zm12.445-13.006c.603-.14 1.876-.44 2.83-.665 2.18-.516 3.512-.826 4.28-.997.33-.074 1.14-.26 1.8-.415l1.327-.311a.549.549 0 0 0 .187-.079c.058-.048-.002-.05-2.608-.05l-2.668-.001-.386.122a29.224 29.224 0 0 0-4.053 1.653c-.872.433-1.908.998-1.829.998.014 0 .518-.115 1.12-.255z" style="fill:#000;stroke-width:.0266689"/></svg>