<svg xmlns="http://www.w3.org/2000/svg" width="64" height="64"><path d="M30.94 62.981a14.568 14.568 0 0 1-1.487-.101c-.797-.083-.852-.091-1.584-.242-.417-.086-1.514-.295-2.439-.465l-1.681-.308-.749-.22c-.6-.176-.904-.279-1.524-.514-.71-.269-.907-.355-2.351-1.025a81.53 81.53 0 0 1-2.262-1.085l-.685-.354-.646-.502c-.617-.48-.678-.521-1.356-.932-.668-.406-.746-.46-1.35-.926-.625-.482-.659-.512-1.283-1.125-.365-.358-.871-.83-1.173-1.093-.487-.423-.581-.516-1.116-1.1a24.783 24.783 0 0 1-2.079-2.583A79.715 79.715 0 0 0 6.2 49.04c-.504-.688-.575-.795-.945-1.43a50.115 50.115 0 0 1-.782-1.4c-.358-.67-.402-.764-.712-1.525a72.585 72.585 0 0 0-.64-1.516c-.295-.67-.322-.745-.573-1.535-.26-.817-.27-.859-.634-2.424l-.37-1.593-.235-1.594-.236-1.593.013-.898c.012-.834.01-.951-.037-1.642L1 31.147l.252-2.453.252-2.453.231-.878a32.03 32.03 0 0 0 .38-1.603l.15-.725.583-1.525c.54-1.415.61-1.584.954-2.318.204-.435.536-1.108.738-1.495.317-.609.485-.897 1.236-2.12l.869-1.416 1.005-1.277 1.006-1.276 1.123-1.131c1.383-1.394 2.137-2.086 3.134-2.881.596-.475.818-.635 1.992-1.44l1.322-.904 1.467-.776 1.468-.777.806-.324c.86-.345 1.715-.643 3.066-1.07.674-.214.927-.283 1.594-.438l.792-.184 1.634-.24 1.635-.239 1.407-.088c.775-.048 1.538-.096 1.696-.107a15.2 15.2 0 0 1 1.105.001c.744.018.89.027 1.636.105.813.084.832.087 2.462.386 2.254.413 2.982.565 4.004.834l.845.222.67.281c.9.377 2.139.952 2.945 1.368.364.188 1.037.516 1.497.73l.836.39.7.475c1.484 1.008 1.998 1.38 3.325 2.411l1.3 1.01.57.563.57.562 1.567 1.95c1.414 1.76 1.611 2.015 2.022 2.606l.454.655.778 1.45.778 1.45.33.807c.18.444.469 1.126.64 1.516.295.668.329.757.574 1.52.257.8.265.834.638 2.427l.377 1.615.243 1.648.243 1.65.05.81.049.812-.037 1.641-.037 1.642-.148.782c-.133.705-.157.865-.236 1.622-.078.753-.103.926-.242 1.672-.15.806-.161.856-.38 1.593-.22.744-.243.809-1.107 3.063l-.882 2.303-.431.701c-.306.498-.54.91-.806 1.42l-.376.718-.505.714c-.36.509-.796 1.083-1.521 2.004l-1.017 1.291-1.137 1.138c-1.483 1.483-2.214 2.15-3.055 2.786-.831.63-1.873 1.38-2.671 1.928-.657.45-.71.482-1.42.856-.827.437-1.564.767-2.99 1.34-.87.35-1.664.628-3.059 1.07-.815.259-.84.265-2.449.636-1.609.37-1.634.376-2.422.491l-.797.117-1.703.106c-.936.058-1.762.105-1.836.103l-.796-.019zm-3.576-11.817c1.721-.106 3.164-.198 3.207-.203l.078-.01.177-.42.178-.42-.607-6.348a1059.69 1059.69 0 0 0-.617-6.36c-.006-.006-2.205 1.841-4.887 4.104l-4.876 4.115-.179.418-.178.418.062.072 2.208 2.45 2.147 2.377h.079c.043 0 1.487-.086 3.208-.193zm14.945-2.37l2.169-2.517-.026-.062a156.62 156.62 0 0 1-.16-.397l-.135-.334-4.917-3.989c-2.758-2.236-4.92-3.977-4.923-3.963-.01.057-1.112 12.468-1.112 12.532 0 .05.055.162.225.454l.225.387 3.162.205c1.739.113 3.198.204 3.242.202l.081-.003 2.17-2.516zm-24.29-4.546l.393-.157 4-4.791c4.38-5.246 4.154-4.975 4.142-4.987a576.5 576.5 0 0 0-4.186-.375l-6.258-.551c-1.144-.1-2.119-.184-2.167-.185-.13-.003-.84.287-.86.352-.016.055-.409 6.425-.4 6.496.005.038.554.529 2.464 2.202a386.775 386.775 0 0 0 2.469 2.153c.006 0 .187-.07.403-.157zm30.903-2.182l2.394-2.189c.02-.02-.012-.604-.18-3.276a204.88 204.88 0 0 0-.22-3.265 7.946 7.946 0 0 0-.423-.186l-.409-.172-6.253.594c-3.439.326-6.26.597-6.27.6-.01.004 1.813 2.188 4.052 4.854l4.07 4.848.413.178c.227.098.423.178.435.178.012 0 1.088-.973 2.39-2.164zM20.24 30.277c3.426-.324 6.246-.588 6.266-.588.023 0 .032-.01.026-.028-.006-.014-1.866-2.198-4.133-4.852l-4.123-4.825-.412-.178a6.81 6.81 0 0 0-.436-.179c-.018 0-4.419 4.003-4.756 4.326l-.056.054.197 3.145c.108 1.73.204 3.197.212 3.26l.014.116.418.176c.325.137.433.175.486.169l6.297-.596zm30.39.352l.388-.158.006-.107c.003-.058.066-1.53.139-3.273l.132-3.167-.07-.07c-.04-.039-1.15-1.016-2.47-2.17l-2.398-2.1-.404.161-.405.162-4.004 4.875c-2.202 2.682-4 4.88-3.993 4.886.01.011 12.473 1.116 12.612 1.118.055.001.192-.045.466-.157zM30.21 20.175l.561-6.294-.155-.386a6.778 6.778 0 0 0-.17-.402c-.014-.014-6.61-.428-6.619-.415-.006.009-3.75 4.23-4.068 4.588l-.28.314.231.395.231.395 4.848 4.055c2.666 2.23 4.85 4.053 4.854 4.05.004-.004.259-2.839.567-6.3zm8.837 2.264c2.65-2.197 4.838-4.014 4.862-4.037.024-.022.123-.226.219-.452.149-.35.171-.417.15-.445a646.95 646.95 0 0 0-2.207-2.452l-2.182-2.417h-.092c-.248.002-6.46.401-6.475.417-.034.035-.35.805-.351.854 0 .068 1.187 12.5 1.197 12.533.005.016.018.02.034.01.014-.009 2.194-1.814 4.845-4.01z"/></svg>