<svg xmlns="http://www.w3.org/2000/svg" width="64" height="64"><path d="M30.608 62.982c-4.247-.154-8.544-1.269-12.476-3.235a31.425 31.425 0 0 1-7.108-4.87 41.35 41.35 0 0 1-1.938-1.936c-1.415-1.561-2.456-2.97-3.714-5.025a29.724 29.724 0 0 1-2.068-4.093c-1.989-4.83-2.716-10.285-2.08-15.597.424-3.541 1.447-6.962 3-10.032 1.323-2.615 2.744-4.725 4.534-6.734 5.38-6.034 13.05-9.835 20.97-10.39.707-.05 1.706-.08 2.23-.067 1.9.047 2.727.091 3.601.19 5.724.653 11.298 2.991 15.875 6.66a29.175 29.175 0 0 1 2.514 2.254c1.727 1.726 3.071 3.433 4.496 5.71 3.647 5.828 5.202 13.104 4.31 20.165-.461 3.646-1.567 7.186-3.207 10.27-.929 1.746-1.717 3.01-2.701 4.332-.924 1.241-1.698 2.133-2.866 3.3-.751.752-1.2 1.168-1.874 1.74-5.184 4.401-11.755 7.032-18.275 7.317-1.407.062-2.335.074-3.223.041zm-9.502-11.127a8.255 8.255 0 0 0 5.202-2.398c1.316-1.312 2.129-2.98 2.373-4.87.053-.414.053-1.531 0-1.945a5.311 5.311 0 0 0-.046-.316c-.005-.017-.186.092-.5.302-2.224 1.481-4.191 2.468-5.86 2.94-1.104.31-2.086.353-2.767.119-.729-.251-1.174-.821-1.304-1.67-.04-.258-.04-.84 0-1.152.235-1.815 1.34-4.244 3.201-7.032.146-.218.259-.402.25-.407a4.289 4.289 0 0 0-.346-.045 8.997 8.997 0 0 0-2.24.074c-3.398.578-6.124 3.256-6.742 6.624-.11.606-.123.76-.124 1.566 0 .765.01.948.092 1.5.438 2.964 2.173 5.174 4.844 6.17.75.28 1.686.478 2.535.539a13.45 13.45 0 0 0 1.432.001zm23.435-.029c2.014-.219 3.618-.916 4.83-2.099a6.9 6.9 0 0 0 1.5-2.128c.732-1.578.989-3.71.664-5.505a8.712 8.712 0 0 0-.517-1.717 8.356 8.356 0 0 0-4.386-4.383 8.14 8.14 0 0 0-3.219-.65c-.456 0-1 .034-1.06.066-.016.01.056.134.219.376 2.53 3.766 3.678 6.933 3.137 8.649-.292.925-1.055 1.404-2.233 1.402-1.818-.002-4.53-1.154-7.677-3.26a14.273 14.273 0 0 0-.55-.36c-.018 0-.076.452-.106.828-.03.371-.013 1.128.033 1.51a8.188 8.188 0 0 0 2.425 4.945 7.96 7.96 0 0 0 2.094 1.507c.957.48 1.947.75 3.129.857.221.02 1.432-.006 1.717-.038zM21.237 28.578a5.3 5.3 0 0 0 .336-.048l.057-.015-.263-.393c-1.827-2.735-2.922-5.148-3.162-6.97a5.884 5.884 0 0 1-.011-1.107c.149-1.064.784-1.699 1.842-1.841a5.738 5.738 0 0 1 1.107.01c1.827.239 4.216 1.325 7.027 3.193.154.102.282.183.285.18.013-.012.045-.257.068-.507.033-.372.028-1.171-.01-1.541a8.243 8.243 0 0 0-1.644-4.177 7.865 7.865 0 0 0-.833-.932 8.114 8.114 0 0 0-3.19-1.931 7.84 7.84 0 0 0-2.54-.402 7.585 7.585 0 0 0-1.884.205 8.286 8.286 0 0 0-5.577 4.424 8.272 8.272 0 0 0-.79 2.689c-.047.364-.053 1.42-.011 1.8a8.26 8.26 0 0 0 2.385 4.992c1.417 1.416 3.244 2.249 5.286 2.41.25.019 1.255-.006 1.522-.039zm23.118 0a8.259 8.259 0 0 0 2.68-.787 8.305 8.305 0 0 0 4.522-6.034c.11-.649.146-1.585.085-2.25-.169-1.859-.748-3.37-1.775-4.63a9.01 9.01 0 0 0-1.03-1.024c-1.168-.933-2.62-1.512-4.254-1.697-1.128-.128-2.173-.07-3.175.177a8.293 8.293 0 0 0-5.01 3.617 9.96 9.96 0 0 0-.67 1.303 8.291 8.291 0 0 0-.528 4.23c.018.136.039.263.046.282.01.028.098-.023.458-.265 2.9-1.948 5.355-3.066 7.233-3.296a5.521 5.521 0 0 1 1.088.01c1.006.163 1.576.713 1.77 1.707.057.291.053.96-.009 1.36-.232 1.513-.994 3.336-2.302 5.511-.305.506-.74 1.19-1 1.568l-.134.197.071.015c.292.062 1.447.066 1.934.006z"/></svg>