<svg xmlns="http://www.w3.org/2000/svg" width="64" height="64"><path d="M28.01 62.767c-3.396-.476-6.369-1.364-9.385-2.803-6.44-3.073-11.475-8.117-14.58-14.605-7.34-15.34-.958-33.723 14.296-41.177 15.452-7.55 33.994-1.207 41.484 14.193 8.75 17.987-1.358 39.245-20.844 43.843-3.312.781-7.731 1.002-10.97.549zM47.949 50.03l-4.193-4.654-23.766.137-4.765 4.553zM19.14 44.536V20.512l-5.315-4.745-.093 33.835.216.107zm29.887-28.767l-4.517 4.967v23.849l4.517 4.65zm-.953-.833l-33.364.104 5.351 4.906 23.653.032z"/></svg>