<svg xmlns="http://www.w3.org/2000/svg" width="64" height="64"><path d="M32.479 23.484c1.487-.169 2.098 1.665 1.348 2.765-.687 1.583.354.227.568-.585.552-1.003.964-2.11.821-3.271.756-.763 1.946-.429 2.895-.33 1.041.493 1.785.831.5-.122-1.186-.817-2.49-1.603-3.971-1.51-1.385-.12-1.165-1.926-.8-2.908.415-1.617-.28.047-.676.646-.635 1.113-.726 2.364-.959 3.543-1.01.473-2.4.288-3.407-.124-1.426-.945.254.385.826.727a9.52 9.52 0 0 0 2.856 1.169m9.444-2.998c1.094-.04 1.958.922 1.642 2.006-.141 1.054-.38 2.102.248.522.399-1.122.719-2.293.71-3.482-.28-.782 1.28-1.065 2.01-.954.585-.326 2.74.997 1.71.161a7.486 7.486 0 0 0-4.13-1.524c-1.228.576-1.892-1.164-1.643-2.142.184-1.048.37-1.889-.193-.416-.406 1.295-1.053 2.593-.765 3.922-.995 1.073-2.741.753-3.968.273-.022.04 1.566.966 2.229 1.11.666.337 1.399.597 2.149.525m-17.107-3.68c1.03.551.788 2.001-.137 2.59-1.29 1.25.003.477.684-.246.903-.635 1.58-1.504 2.189-2.343 1.145.07 2.36.807 2.875 1.907-.347-1.533-1.294-3.158-2.874-3.679-.635-1.02.445-2.193 1.153-3.017.5-.477-1.303.77-1.65 1.196-.777.595-1.22 1.312-1.693 2.094-1.131-.057-2.277-.8-2.874-1.772.49 1.256 1.122 2.57 2.327 3.271m20.53 15.397c.992.77 1.046 2.164.185 3.054-.177.517-2.376 1.721-1.417 1.443 1.707-1.125 3.693-2.116 4.653-3.952 1.5-.285 2.573.989 3.559 1.908.612 1.721.391.298.032-.707-.522-.825-.712-1.757-1.42-2.456-.402-.907-1.824-.914-1.839-2.036.14-1.41 1.446-2.408 2.405-3.385-1.505.874-3.043 1.843-4.3 3.016-.408.84-1.237 1.567-2.132.799-1.01-.342-1.734-1.285-2.383-2.074-.414-1.275.297 1.045.605 1.442.59.947.911 2.557 2.051 2.948m-.273 11.31c1.06-.75 2.402.01 2.591 1.192.37 1.688.672.903.197-.358-.218-1.198-.504-2.515-1.282-3.423.626-1.157 1.966-1.752 3.185-2.044 1.157-.101-1.433-.262-1.954 0-.998.144-1.992.212-2.737.954-.901.673-1.74-.438-2.127-1.234-.426-1.074-.787-1.783-.416-.191.207 1.249.328 2.699 1.31 3.605-.316 1.017-1.407 1.82-2.501 2.044-1.8.237-.2.391.795.216 1.017-.145 2.023-.262 2.939-.761zm-27.1-23.437c.598 1.025-.347 1.974-1.379 2.048-1.886.267-.23.296.807.268.992.15 1.724-.467 2.604-.545.938.641 1.1 2.151 1.116 3.271.313-1.244.695-2.823.137-4.088-.905-.862.413-2.027 1.369-2.044 1.866-.328-.12-.285-.971-.273-.925-.167-1.825.64-2.575.421-.845-.732-1.105-1.936-1.108-3.01-.095 1.316-.428 2.708 0 3.952zm10.402 17.85c1.278.193 1.03 1.533.693 2.42-1.036 1.19-.408.661.402-.103.39-.975 1.359-1.527 1.369-2.59 1.187-.385 2.704.46 3.421 1.226-.853-1.209-1.845-2.535-3.325-2.882-1.28-.42-.404-2.017.001-2.85.543-.706-1.242 1.132-1.522 1.646-.695.735-.414 2.116-1.817 1.634-.572-.013-2.57-1.646-1.79-.8.7.889 1.484 1.877 2.568 2.298m-15.466-7.085c.752.584.623 1.565-.21 2.118-1.574 1.098.319.113 1.036-.316.856-.237 1.061-1.873 2.035-.997.634.243 1.613 1.764 1.519 1.648-.2-1.101-.738-2.29-1.505-3.135-1.292-.427-.3-1.707.36-2.266.995-.868-1.175.488-1.603.81-.681.505-1.111 1.596-2.042.639-.782-.667-1.615-2.241-.88-.388.393.633.67 1.49 1.29 1.887zm23.541 2.316c.627.65.733 1.567-.086 2.13-1.314.942-1.172.95.249.258.82-.296 1.705-.853 2.027-1.57 1.36-.034 2.24 1.403 2.737 2.453-.207-1.196-.714-2.312-1.232-3.407-.71-.426-1.527-1.39-.697-2.168.27-.592 2.333-1.625.835-.966-1.16.365-2.215.917-2.875 1.908-.936.26-1.843-.878-2.327-1.636-.61-1.25.263 1.395.523 1.847.325.348.372.988.846 1.151zm-15.055 14.58c1.159.374.642 1.838 0 2.453.728-.603 1.756-1.526 1.779-2.589.906-.235 1.971.23 2.6.955-.56-1.142-1.757-1.96-2.861-2.441-.338-.754.229-1.503.535-2.193-.638.687-1.59 1.7-1.779 2.725-.972.174-1.801-.322-2.463-.953.528.809 1.323 1.66 2.189 2.043zm15.055-6.54c1 .245.712 1.323.195 1.928.354-.153 1.323-1.313 1.448-2.064.746-.455 2.663 1.327 1.642.136-.491-.846-1.627-.972-2.053-1.538.08-.975.93-2.308-.195-.76-.805.521-.441 1.926-1.584 1.344-1.424-.696-1.251-.646-.216.427.17.254.502.385.763.527zm-3.285-26.98c.855.267.828 1.115.274 1.771-.042.423 1.23-1.3 1.355-1.895.533-.604 2.588 1.178 1.75.249-.577-.729-1.342-1.273-2.147-1.488.032-1.083.92-2.488-.332-.935-.55.603-.531 1.997-1.605 1.266-1.489-.818-.864-.29.02.623.222.148.437.304.684.409m4.928 34.474c.794.663.293 1.698-.548 2.044-.9.776 1.315-.427 1.642-.817.637-1.256 1.792-.312 2.376.457.611 1.482.081-.653-.305-1.105-.072-.965-1.675-1.07-1.125-2.065.206-.703 1.993-1.758.405-.909-1.067.084-1.429 1.694-2.445 1.305-.877-.31-1.714-2.395-1.053-.51.154.635.444 1.307 1.053 1.6zm1.094-22.347c.94.428.794 1.496.137 2.181-.308.419 1.195-1.102 1.369-1.636.081-.963 1.217-1.067 1.934-.487 1.273 1.28.536.189-.24-.553-.336-1.009-2.035-.557-1.83-1.802.152-1.149 1.199-1.994-.187-.652-.94.475-.552 2.041-1.572 1.859-.676.16-2.465-1.545-1.36-.407.6.54.878 1.367 1.749 1.497zm-16.287 3.27c1.165.372 2.051 1.524 1.564 2.746-.295.98-1.076 1.694-1.564 2.569 1.2-.92 2.211-2.363 3.285-3.543.452-.763.316-1.925 1.156-2.279 1.743-.22 3.485.707 4.729 1.87.54.615-.791-1.267-1.169-1.643-.646-.883-1.447-1.584-2.363-2.148-.734-.619-2.075-.323-2.477-1.375-.66-1.47.642-2.89 1.26-4.18-.088-.25-1.35 1.169-1.775 1.709-.846 1.08-2.027 2.227-1.961 3.685-1.427.741-3.153-.138-4.417-.933-1.292-1.252-1.053-.735-.06.381 1.051 1.26 2.229 2.562 3.792 3.141zm5.612 18.532c.75.831 1.177 2.043.35 2.984-.213.393-2.343 1.629-1.273 1.206 1.444-.531 2.87-1.393 3.934-2.555.195-1.111 1.498-.26 2.053.11.875.761 1.785 1.7 2.19 2.752-.53-1.97-1.282-4.154-2.987-5.425-1.003-.598-.975-1.86-.22-2.635.121-.614 2.224-1.594 1.389-1.478-1.515.69-3.257 1.413-4.204 2.861-.324.973-1.68-.092-2.191-.6-.917-.585-1.589-1.52-1.915-2.534.397 1.515 1.184 2.958 1.916 4.36.297.357.415.918.957.954m-12.18-8.04c1.402.425 2.327 2.126 1.369 3.407-.048.645-1.62 2.16-1.108 2.057 1.46-1.62 3.244-3.172 3.845-5.327.038-1.106 1.701-.688 2.446-.46 1.203.34 2.429.877 3.185 1.902.621.263-.84-1.38-1.22-1.717-.905-1.16-1.938-2.385-3.354-2.858-1.332.06-2.42-1.384-1.878-2.628.166-1.133 1.043-2.101 1.505-3.095-1.4 1.211-2.5 2.69-3.533 4.199-.63.674-.284 2.35-1.646 2.069-1.282.15-2.312-.723-3.443-1.09-.66-.804-1.717-1.745-.583-.267 1.04 1.49 2.5 2.703 4.004 3.673l.41.137M33.712 1c-4.718-.205-9.487.608-13.826 2.478-3.368 1.237-6.263 3.478-8.975 5.77-1.773 1.444-2.971 3.444-4.488 5.129-1.512 2.508-2.956 5.122-3.874 7.909C1.352 25.8.913 29.57 1.044 33.273c.198 4.115 1.119 8.194 2.93 11.903 2.502 5.613 6.918 10.219 12.07 13.497a28.564 28.564 0 0 0 5.984 2.625c4.342 1.635 9.118 2.048 13.707 1.48 3.73-.57 7.512-1.458 10.75-3.466 1.558-.664 2.933-1.705 4.317-2.657 1.654-1.476 3.35-2.949 4.837-4.577 1.47-2.105 3.082-4.101 4.172-6.444 1.885-4.09 3.2-8.558 3.081-13.098.277-3.83-.607-7.66-1.873-11.26-.931-2.613-2.356-5.01-3.85-7.332-1.453-1.96-3.07-3.77-4.906-5.375-2.369-2.065-5.097-3.73-7.96-5.024-3.41-1.356-6.91-2.35-10.592-2.545" fill-rule="evenodd"/></svg>