<svg version="1.1" viewBox="0 0 80 80" xmlns="http://www.w3.org/2000/svg"><path d="m40-2.822e-6c-25.94-0.98492-46.789 27.354-38.213 51.821 6.7297 25.056 39.952 36.643 60.799 21.193 21.959-13.833 23.2-48.996 2.2696-64.342l-3.253-2.3248-2.6213-1.5445c0.47882 2.2586 1.0488 4.6992 1.7 7.5583 0.53347 0.5642 0.44897-4.3354 0.60664-0.70482 2.7614 1.3578-0.76706-2.8566-1.0881-4.7179 2.7965 2.2568 1.7856 5.7098 4.5394 7.8432 0.78207 1.1489 0.73356-3.8665 0.88109-0.56925-1.5589 1.5096 2.228 4.3884 0.81722 1.4711 1.2536-0.76692-0.08872-2.9515 1.6425-1.2425-1.7104-0.05185-1.5484 3.4687-0.10872 2.7782 0.26219 2.8619-2.8796 0.05923-3.7461-1.4431 1.502 2.394-0.98049 0.30995-1.6009-0.19128 1.3389-1.8765-1.7267-3.4384-1.2534-2.3545-1.6156-0.18594 2.8069 2.7689-0.59719 1.5795-1.1065 0.98981 2.4705 1.6975 0.04534 2.8644-1.1366 1.2236-0.71972 3.0153-1.5293 0.34341-0.82588-2.3283 1.5394 0.65926 0.08849-1.9224-0.91953-0.79048-0.51214 2.4311-1.1929-0.28844-0.22422-2.7249-1.5262-2.439-1.1982-4.8795-1.9734-1.9497-1.9944 1.3768-0.91514 2.1655-0.29328-2.2668 0.88715-2.6536 0.49366 0.09355-1.342 2.017 1.4488 0.16955 0.95051 2.9388 1.9268 1.9004 0.94834 5.0286 3.482 6.3216-1.5721-0.24383 0.5099 3.7601-1.1054 1.1693-1.5003-2.2396-1.4443-7.0825-3.458-8.0094 0.67902 2.9553 2.4572 5.3479 1.9858 7.714 1.9711 1.9385-1.0648-2.8345 1.1483 0.2661 0.1236 2.7388-2.1858-2.0222-1.7467 0.87006-1.4563 0.02762-3.4206-3.5095-2.8149-3.7057 1.016-0.28581 2.0291 5.4722 2.7493 1.7532-0.6193-1.545-1.7474-7.5826-1.224-2.5238 1.4528 3.5749-3.036-4.0228-0.86762-1.1007 0.80007-2.3265 0.04931-5.1593-1.4574-7.5897-1.8883-0.87363 2.0584-0.8989 0.07478-1.9775-0.73708 1.7401-2.4333 1.3555-2.392 1.9182 1.2226 1.3461-0.56459 2.4369 0.73884 4.5781 1.3279 1.7382-1.9705 4.5587-0.36712 1.444-0.95703-0.91108-1.7951-1.2752-0.60018-1.1387-1.7586-2.5282 1.7381 0.95698-0.26729-1.289-1.4984-1.8454-0.42359 2.81-2.6681 0.76384 1.6506-0.49784-2.4154-1.8917-0.61883-1.7533 0.02714-0.67683 3.4839 1.7363 1.7598-0.79357-1.1607-2.6111 0.10141-0.4915 0.8242 0.02994-0.27945-2.0058-1.3101-2.7673-1.203-2.421 0.49858-1.0695-2.3316-2.9738-1.7039-0.58495-0.52815 2.1206 0.0051-3.8763-1.4262-1.0925 0.46523 2.5317-0.93031 1.9296-0.6467 0.09365-0.34348 0.52694-0.73546-0.91071-0.55032 1.107-1.4653-3.1839-0.44806 1.7782 0.76849 2.8559 0.73463-0.1999-0.48981 3.6033 1.5046 3.7426-0.42047-1.3481-1.8343-4.7801-0.08977-1.7355 0.14576 1.6402 4.1447 3.4245 0.65977 2.2508-1.4623 0.3438 2.4729 7.0053 0.2075 4.1573-0.81422-0.97447-0.71124-4.6796-2.3495-4.4244 1.3139 3.3166 0.52696 7.1475 2.4245 10.325 0.23567 3.1311 3.9572-0.63382 1.4565 1.7022-0.43437 2.8596 3.3387 5.1192 3.5936 7.838 0.96527 4.2127 0.26264-2.1637 0.46521-0.38581 0.37453-0.45394 0.69445-2.5126 1.1386 0.08604 1.3759 1.0683 0.57994 1.5827-1.0344 1.1658 1.4469 0.28192 1.6944 2.5849 1.9149 3.8074 0.89943-0.62304-1.0703-5.9176 1.1387-1.9892 3.5873 1.4622-1.1691-1.4682-1.5974-3.3229-0.23758-1.7723-2.2614-4.4965-1.5405-1.0232-0.03608 0.79856-0.3296-3.2866-1.0068-1.7084-0.60337 0.67782 0.52294-3.1338 0.87184-3.0123-1.4818-0.87371-1.9623-1.8191-1.3162-2.3885-0.87626-2.7645-0.65042 2.0202-0.73331-0.81205-1.1102-1.1259-3.456-5.7944-1.0126-2.2161 2.8832 3.3219-0.93234-7.0882 0.53651-2.5177 1.9488-2.2548-1.9727-3.6343-1.4076-4.0698-0.11233-0.13592 0.80588-3.4008 0.75284-0.59 2.1311 2.3277 0.89183 6.242 2.2806 9.6054 1.385-0.82458 0.87746 3.3091 1.6079 0.28151-0.81522-2.704 2.2815 0.89478 4.1957 0.52436 2.02 1.2565-6.4753-2.1326-3.2224 1.8738 0.27303 1.5383 3.4823 5.0947 2.9582 1.5008-0.28808 2.3655 0.41531 2.6326 1.8275 4.5503 0.11466 1.7937-1.398-2.4201-2.1545-0.44174-0.25911-2.1389-2.9215-4.5363-1.9348-0.85611 0.36627 1.744 2.1401 3.7235 3.6148 4.6508 1.5414 0.10467 2.5879-0.19516 0.99502-1.5679 2.017-0.78811-1.5505-6.4882-0.04267-5.9669 1.8778 1.8986 0.35612 6.9967 2.533 7.0317 2.3207-2.1028 0.25409-1.478 0.81747-4.3937 0.31278-3.0308 0.72421 4.7084 1.0256 1.6027-0.44551-2.6023 1.1883 0.61164 1.1246 0.781-1.5894 0.95726-1.5688 4.2578-2.4326 2.31-0.16627 0.77986-1.0207 2.8818 0.79937 1.0635 1.195-1.9964 6.5371-1.0893 3.5555-4.5714-1.5563-1.3991 1.2526 1.926-1.4868 0.76457 2.2928-0.54681-2.218-3.5137-1.7972-5.3263-0.41712 0.03636-0.42188 1.9335-0.9174 0.0793 0.40938-1.4721-1.5891-6.2687-2.4363-3.3812-1.6581-0.58152-1.6624-3.1201-0.0072-0.67743 1.6453-3.0826 2.2017 2.5992 4.0585 3.4904 0.26946 1.2257 1.1611-2.959 0.66182 0.41217-0.0074 3.0213 2.0499 2.8187 3.0057 5.2103 2.4513 2.7473 0.4117-3.3666 0.95967-4.8543-0.3641-2.4-2.0571-4.6867-2.1285-7.1818 2.568 0.44826 0.70766-2.7592 0.96192-2.8495 0.41558-2.5636-2.1171 2.6106-1.1396-0.90575-1.9437-1.1497-4.9162-4.1096-3.9013-0.0097 0.62618 1.8904 2.1872 4.7963 2.6607 2.4413-1.3151 1.9492 0.67894 2.678 0.73075 5.1307-0.67268-2.3224-2.3444-1.6369-2.1701-3.9744-1.0362-1.9983-1.3392-2.0871-1.824-0.0361-0.26218-1.1056 0.5768-4.357-0.98228-4.7173 0.55395-1.2362 1.6422-3.1008 3.1748-0.78549 2.1107 1.1104 1.9412 2.2742 2.2786 0.05768 0.87657-0.03665 2.6914 2.6981 2.0215 5.9231 2.1579 3.3341 1.8463-2.6211 1.4251-3.5219 2.0954 2.4007-0.80361-3.6274 1.4659-1.0049 1.6379 0.84609-2.188 5.963-0.42529 8.0933-0.03676 2.9489 0.18895 0.74638 0.97803 0.16066-0.82211 1.7452 1.8921 8.125 1.9768 5.8333-0.5081-0.31069 0.52675-3.3422-0.94443-3.9162 2.0322 1.5158-1.4089-6.3342 0.48166-2.238 1.0496 2.4765 0.76201 5.2485 1.0871 7.7661 0.21446 0.95336 1.334 1.8583 0.8168 3.907-1.0304-1.6132-0.92074-4.8915-1.4075-1.6082-0.01859 2.526-0.0033 1.8521 0.73959 2.3113-0.13376 1.9846 1.7164 6.1321 0.4794 6.8341-0.56361-3.2289-1.4792-6.3111-2.4272-9.3867-2.0571 0.71527 1.2895 4.3745-0.83841 2.1783-0.17551 1.6355-0.66115-2.6691-1.1868-0.38844-0.27086 1.6248 0.82361 5.0429 0.40166 1.5251 0.63461-2.1484 0.38787 3.164 1.2884 4.0829 1.5398 1.9127-0.17992 1.286 2.5274 2.7842 1.4286 1.2089-0.19825 4.0428-0.42007 1.1302-2.1602 2.1185 1.4473 3.5855 0.23736 5.6407-0.91991-1.1036-1.5921 1.3721-2.2268 0.20287 0.9662 1.8078-0.42731-0.71329-0.57194 0.98718-1.1032-2.2358-1.9968 1.3293-2.4588-0.24852-3.3701 0.37751 2.4237 2.6888-0.8165 2.9313-0.37107-1.6511-1.818-3.8631-3.2803-1.9094 0.51755 1.4977-4.5523-0.5817-1.6758 1.5935 2.7095 0.0575 3.2451 5.6233 5.3139 4.2247-1.001-5.3265 2.0788 3.652-0.58718 1.0282-1.5993-1.3094-0.63944 3.2369-1.4702 0.3986-1.1451-1.8616-1.6809-4.9863-3.6741-5.149 1.7445 1.8606 1.2251 4.2027 3.2263 6.179-1.4041 0.7156-2.7929-0.74568-2.2311-1.5625 1.3183 3.636 0.26415-3.1698-0.75103-1.6377-0.78385-2.4817-4.0629-2.5681-2.548 0.50934 0.87973 2.2075 4.4839 3.8502 1.9503 4.3184-1.382-0.06571 0.8285-1.1478-0.85007-1.4938-0.72411-1.1139-3.8787-2.47-1.9571 0.43382 0.45937 2.0611 0.39819-3.1314 0.86101-0.46014-0.4332 1.4885 1.1021 3.2747 1.4255 2.6796 0.32405 1.7367-1.8281 0.88506-0.95789 0.58446-0.25587-1.3841-1.1525-2.6686-0.76878-0.13994-1.0446-1.2416-6.211 3.2213-2.7029 0.55162 0.15382-0.62773-3.1227 1.3554-3.9863 1.676 0.52748-1.3374 6.9607-3.0175 2.3502-2.3014-1.685-0.70045 2.4345 0.38446 1.1321-1.2149-1.4259-0.40589 4.3373-0.11094 2.0414-1.6797-0.22687-2.6795-2.5745-5.931-4.7955-3.1091 1.6272 1.5589 2.4606 6.1737 0.28983 2.2492-2.1033-1.4693 1.9773 2.7421 0.28525 4.0313 0.89641-1.0946-0.6061 0.90322-0.14974-1.2239-0.78489 0.38606-2.0296-5.287-3.9967-4.3782-1.4779 1.6341-0.68408 0.76018-0.59523-0.41202-2.2126 1.0111-2.2925 4.7489 0.87233 3.6622 0.82945-0.6712-0.9857-3.2969-0.46338-0.91522-1.9396-0.18479 1.7786-3.5613 1.0958-0.39348 0.67019-0.38095 0.60794-1.7216 1.1302 0.40105 1.793 3.08-0.82772 1.7101-2.5452 1.2063 1.0775 1.4718-3.4158-1.313-1.3082 1.3846-1.5021-0.86367-0.24002 3.2197-3.3936 1.5376-1.5914 1.7457 0.91331 0.69722 0.85318 0.82759 1.6533-0.34039 3.7786 0.85126 0.64461 1.3095-1.448-0.05434-2.5421 1.5256-0.86794 0.44733 1.5568 1.4083 1.8395 0.4711 1.1624-0.27997 0.87393 0.68559 6.618 2.6564 4.8947 0.51959 0.52973-1.8403 4.1584-0.03161 0.65872-0.04619 1.9082 3.3368-4.8462 0.15307-5.5314 1.6105 2.5288 2.5903-2.6954-1.8094-4.2401-0.58517-3.5599 0.72966 5.6492-2.4373 0.16073-0.92322-2.5247 0.4655-3.5288 1.4262-5.3032 1.3951 1.2496-1.8354 8.156-1.5881 6.5111-2.782-2.167 1.6075-3.2366-2.2308-2.0087-0.22277 2.2488 0.94311 2.514-1.8537 1.4154-1.8106 1.6735 0.50523 4.3118 0.20232 3.3956-1.3123-1.5567 1.5898-0.48012 0.81219-0.35887-0.44419-0.79877 1.8901-1.586 1.4316-1.9767 0.30982 1.2013-1.3102-1.7763 1.0614-0.90657-1.1548 0.43398-0.83402-0.79272-5.0465 1.3856-3.4325-0.3033 0.87263-1.5308-0.88877-0.36236 0.9264 1.6175 0.04524 0.47925-2.7938 1.2565-1.8935-1.39-3.3681 1.8053 3.1788 1.5965-0.41684-0.91204-1.8373-2.8328-7.9078-0.27373-3.6894 1.4869 1.0543 0.7091 4.196 2.0729 3.1701 0.87041 1.5135-0.3253-4.077 1.0179-0.33656 0.7107 2.3549-0.23408-3.4845-1.8993-3.9242-0.1766-2.4444-1.665-3.0344-0.70971-0.26634 1.501 0.60926 2.1305 4.3283 0.96994 3.4924-2.1062-2.3763-0.95163-5.2693-2.4962-7.701-0.86724-2.9446-0.28451 3.9381-0.89659-0.11051-0.31827-2.0435-2.2508-5.9278-1.8775-2.4275-1.9782-0.35548-3.2305 0.4594-1.1254 0.55559-2.1714 0.90162 0.08641 1.5321-0.4411 2.752 1.7474 2.8514 3.6246-2.975 2.8546 1.3867-0.16578-0.02283-1.1562-1.336-0.2219 0.53725 1.3334-1.6063 2.2108 0.79712 0.67427 0.07898-1.0061 2.5331-1.8616-2.2719-3.517-0.02985 0.78224 1.4992 2.2669 3.2094 2.5785 1.4821 0.18159 1.2004 1.9505 5.8042 0.77069 2.0969-1.5821-1.5071-4.025-2.7412-4.4483-5.1502-0.36765 0.3059-1.4497-1.919-1.5224-0.85119-2.7953-2.5517-1.5267 3.5575 0.80325 3.7698-1.4541-0.1219-2.4506-1.3429-2.5578-1.2701-2.2498-1.6738 1.2154 3.3488 1.5711 4.4867 1.2849 1.8531 3.8754 5.4231 3.2845 6.2932-2.1614-1.4368-3.5809-0.7693-4.4453-4.3177-1.7851-2.8036 2.3625 3.4373-0.08631 3.2711 0.96037 1.27 3.9354 7.1401 2.014 2.6383-1.5764-1.8708-1.1718-3.8575 0.10727-0.67223 0.24586 3.5287 3.5541-1.3529 2.232 1.2598 0.03576 3.9097-5.9483-0.62797-4.4251-1.7465 0.88326 1.6275 3.0539 3.4421 0.99081 0.68012-1.9166-2.6428-0.9747-2.5559-2.9258-4.9271-2.2912-1.5983 2.7598 3.4238-0.0116 2.2255 1.252 1.2613 2.4784 3.197-0.0036 1.7403 0.26859 1.597-1.832 5.0405-0.73503 1.5716 1.3088-3.678-0.14292 0.18027-0.73068 1.342 0.03014 0.01461 0.8955-3.5329-2.3476-5.1161-0.58491-2.3309 3.4251 3.0303 0.95402-0.3502 1.1155-1.5335 2.063 6.0156 2.1836 1.7093 0.76122-3.5804-0.64711 2.1131-0.56588-1.1782 0.92835-1.5071-4.1605-3.01-0.44205-1.7107 1.9982 0.21979 0.61818-2.2458 1.7002-3.1034 0.64438-1.1338-0.45441-4.3833-0.8049-2.9867 0.36699-1.3667-2.8212-3.945-3.2241-4.8478-0.73453 0.99102 3.8005 4.6903 1.8032 3.4765-1.4243-1.5799-2.3351-3.241-2.4706-4.3997-1.946-1.4252 1.2864 0.73726-0.74568-1.0808-0.23014 0.14124-2.4431-0.53366-2.4142 0.10297-1.8044-2.7128-2.6431 0.89566-2.6059 2.3446 0.20958-1.7173-0.64294-1.03-2.5269-0.30997 0.79644 1.9199 1.9266 3.9886 0.84273 0.94558 0.20874-2.5758 0.8084 3.5459 1.8151 3.8617 0.63363 1.3034 0.73994-0.11303 1.6289 1.9448 0.62418-1.498-1.5119-4.5359-1.2888-6.0753 1.0746-1.2171 0.64905 5.1773 2.2141 5.5234 0.54474 1.0457 3.9136 1.6298 2.0971-1.046 0.29763-2.4316-3.0918-5.4943-2.9136-2.2682-0.52989-1.8434 1.5844-2.1705-0.51887-3.1649-0.35745-1.3812-1.1549-3.5627 0.3718-0.74624 2.001-1.3128 0.85786 2.3648 3.007 3.3346 0.33072-1.3958 0.35098-3.5091 0.68639-1.5903-0.4647 0.99438 0.7291 4.4529 1.0752 4.5012 1.4789 1.4606 0.57402 3.6223-0.1549 2.0177-0.35164-3.6362-0.93388 4.157-1.3432 0.78392-4.0238-1.7066 1.6701 2.9899 1.5495 4.4628 1.7808 0.92041 3.1026 5.4768 0.91498 1.8552-0.75077-1.4766-3.216-5.3287-2.3384-1.737 1.6107 1.4012 1.1404 4.8645 2.7341 5.462 1.7472 0.2962 4.5039 0.83748 1.0186 0.42368 1.6894 0.70714 3.083 0.67692 4.1866 1.2821-1.5336 0.17381-6.2914-1.9548-2.8215 0.0657 0.95743 0.98394-2.3383-1.2055-1.1722 0.49047-1.6826-0.91802-2.9575-1.965-0.58373-0.8599 0.66283-0.61069-0.7135-0.15945-1.1277-0.94497-1.9451-1.2691-2.1339-6.1538-3.4754-6.7303 0.77534 2.0853 0.09419 1.5105-1.3171 0.17215-0.60891-1.195-1.2679 0.9927-1.2095 1.4556 0.05336 1.3819 2.234 2.4624 0.43002 2.4159-0.66331-2.3035-0.92943-1.4534-1.3408-1.0384 0.04952-1.8915-1.939-2.7838-0.37309-2.5259 0.56607 1.8239 0.19994-1.0103-1.0584-1.0156-0.09758-1.1649-2.3019-1.8173-2.1606-2.2575-0.01588-0.49174-2.269 0.52532-2.0137-0.95224 2.3371 0.63777-1.4631-3.7091-0.47557-1.0134 0.08344-2.0387-3.5322-3.755-2.0875-0.73554-0.22548 1.9341 0.91254 2.4753 1.7101 2.4591-2.3944 2.9405 2.477 2.8964 2.9196 5.5452 1.0183 1.7909 0.50473 5.5803 3.7436 2.9855 1.5419-1.1196 3.0259-0.94395 0.63317 0.12809-2.9715 0.82697-2.3238 2.4295 0.1156 3.2502 1.5986 0.71378 4.6861 0.93839 2.4477-1.1587 1.2294 2.046 1.9402 1.7891 4.2319 2.4131 1.5383 0.89781-3.6219-0.24144-1.2322 0.69583 2.4815 0.65447 6.6192-0.49573 7.9857 0.71807-4.8777 0.09579 2.3281 0.87644 2.8447 0.37009-2.5047-2.6033 3.0832 1.6718 3.9571 1.2981-2.0048 1.0122-3.2442-0.14311-4.6748-0.07357 1.9765 2.1108-2.4546-1.4697-4.1603-0.94407-1.3871-0.53265 0.93549 2.4721-1.8375 1.5024-1.9418-0.73695 2.3804-0.01906 0.87567-1.871-2.5849-0.88014-5.7296 1.7171-6.2912 1.7092-1.1589-0.76232-1.7717 1.6623-1.2336-0.64097 0.9009-0.86201 5.8016-0.80303 2.3107-1.6149-2.1017-1.4925-5.3814-1.8439-3.356 0.45327-0.6603-0.63712-3.189-3.0921-4.2173-2.3564-1.0064-1.6538-4.1395-0.54909-4.2962-1.01-2.3632-1.3317 1.6664 3.0619-0.95611 1.0948-1.1925 0.69632-2.9107-0.76604-1.5906-0.66858-0.03483-1.1411 1.0918-0.88328 2.5987-1.4581 1.7854 1.1143 2.931-0.28097 4.1034 0.88878-2.2602-1.5525-1.03-4.5217-2.5815-5.6543-0.43384-0.17339 1.4734 3.7717-0.1019 3.1686-0.19554-3.4595-0.41148-2.3362-0.81792-0.08339 0.0049-1.7137-0.82561-2.9687-1.9059-3.0723-1.9107-1.6386 3.5412 3.8898-0.05407 0.84828-1.6341-0.94113-1.3988-0.25321-0.86665 2.1173-1.3415 0.07165-1.1627-4.8112-0.24755-6.2897-2.2184-1.5128-2.1175-1.7087-4.7882-3.278 0.40683-0.42588-1.2787-1.5516-0.50769-0.37873-0.90679 0.1714 2.966 2.5214-0.20939 2.3174 0.29324 2.2001 1.8389 3.2098 0.68389 0.60754 0.78739 1.0198 0.97314 1.4118 0.6927-0.48485 1.2151 1.6923 3.1146 2.3867 1.8705 3.8376-1.2954-2.9248-1.9958 3.1095-0.07318 2.7808 0.97701 2.175-0.04508-4.8671 0.9113-1.3398-0.25832 1.778 0.44059-0.39865 0.66236 1.9224-0.646-0.20427-0.85255 1.9597-1.9275 0.03997-2.2831-0.39646-3.7008-1.8889-2.6058-0.0685-1.297 0.67292-2.8412-2.5701-1.9769-2.1228 0.56345-1.9071-1.8481-0.99615-0.08078-2.3258 0.48097-1.5152-0.88966-5.2438-0.71058-1.68 1.0989 1.873-0.67437 2.4046-0.60943-0.28665-1.3029 1.1613-1.0349-0.99884-0.494-2.2159-0.7809 2.0572-2.0346 0.17187-0.75087 2.5658-0.20965 0.77568-1.7489-1.7615-0.25525 0.76929 1.0723 1.9081 0.31345 3.3478-0.26348 0.58482-0.79714 1.3025-1.3705-1.7324-1.6182-1.8751 0.6241-1.5432 0.01825-0.26544-0.59269-1.5277-0.94633-0.93285 1.3077 1.0325-0.33751-1.1277 2.8854-1.6119-1.7676-6.2359 1.0256-6.1258-0.24998 2.2272 1.3848 2.832 0.27691 5.4834-0.71821 1.7451 1.6374 0.43901 0.36953-0.35798 1.7674-1.3601 0.81268 2.288-0.57732 2.1594 0.86473 1.4551 3.2275-2.1642 3.439-1.8164 0.30419-1.4452-0.16023-4.0987-1.466-2.9895-1.7855-2.4377-1.7709-2.5028-0.050194-3.0971 2.1619-0.21374 0.60754-3.7469-0.21455-5.3451-1.6894-0.37036-1.9468-2.1742 0.16668-0.33892-0.7911-0.72627-3.9141-4.8044-2.3275-1.223-1.2003 0.58876 2.609 1.8333 1.9031 3.1731-0.78405-2.3728-1.9705 3.3078-2.0895-0.021902-0.49406-2.1105-0.93567-1.3159-1.1857-0.992-0.61185-2.6386-1.4406-0.37862-1.5549-0.90281-0.098143-2.2666 0.27574-0.69451 1.6361-0.98278-0.88296-2.7431-4.2277 2.421-3.5516-1.3702-0.82817-0.72681-0.29296-7.8885 0.87149-4.1072-0.75499 2.4366 4.281 2.3541 0.73396 1.4678-1.0101-3.1087 0.39991-1.5665 0.8598-0.58095-0.68139-1.9006 2.9859 3.0788 1.3492-0.29168-0.64242-2.2864-2.7946-3.9029-3.9153-4.6082 0.32305-0.92471 0.024504-0.85669 1.2331 0.14997-1.0636-1.0532-1.4522-5.8344 0.2849-3.7976-1.2172 1.1308 1.6334 2.5017 0.28546 2.9346 1.469 0.7099 0.46795-3.3972 1.2731-0.17507 1.8876 0.65954 0.077889-1.3677 0.57947-1.1299 0.019249-1.6294-0.50101-3.1233 0.43708-1.0595-0.46491 2.3089 2.6011 3.1499 1.4134 0.13603 0.024013-2.8968 2.4661-0.12566 0.05386 0.39084 1.3923 1.3611 1.3954-1.2211 1.2994 1.0031-2.1526 0.32504 1.3925 2.8419-0.27664 0.59787 1.1858 0.0712 5.2892-1.8066 4.6224 1.0733 1.6803-0.01397 0.29438 3.9803 2.345 2.8532-1.464-0.51878 1.8691-1.3743 0.14293 0.09232 0.51761 1.4668 1.0356-1.3099 0.87595 1.1366-0.22477 1.6134 3.0083 3.7958 1.45 0.79641 0.51159-1.7735-2.9529-3.4592-1.9193-4.8324-2.3102-0.73438-0.92483-3.2798-3.1852-4.3604-0.27574-1.5349-1.9968-3.1428 0.25985-0.92967 1.6449 3.396 0.05327-2.4209-1.4853-2.7622 1.3002 2.5102-1.3053 0.9684-1.6594-0.98051-1.3097-1.1521-3.7756-5.8137-1.2008-2.173 1.874 2.7737-0.83751-2.2538-1.2733-3.2852-1.0048-0.02238-0.61584-1.7832-1.2388-2.3158 1.565 1.1448 0.79671 0.81892 0.43805-0.1513 1.2841 1.0929 2.2956 3.2368 3.1683 3.5109-1.5932-2.3449 1.7228 1.0529 1.5109-1.3163 0.1202 1.9775 1.5229-2.0529 0.61154 0.8794-3.1628 0.01363 0.12762 4.8726 0.138 1.6298 0.45394 3.2678 0.94244 5.2084 2.4243 8.1148 0.95908 0.56104 4.4363 0.83353 1.9424 2.0323-2.3299-1.5821-0.09141 2.0191 0.39104 1.8993-1.1644 1.265 0.73496 3.2299-0.01764 0.69169 0.6504-2.9772 2.2358 7.9162 1.8266 3.1808-0.89369-1.6964 0.02478-7.2684 0.74866-2.6974-0.15636 2.37-0.81122-2.8396-0.56162 1.0349 0.41057 3.3634 1.3644 2.3415 0.94537-0.12018 0.2 1.7381 2.2288 6.1312 2.7372 5.8825-1.6178-1.6 0.85683-3.9775-1.2607-5.4174-1.0267 0.26714 0.88891-3.3513 1.1414-3.2277 1.941 0.47031 6.8584 1.3682 2.2676 1.175-4.3956-2.1279-1.674 4.7806 0.66977 5.5662-0.0045-2.3608 0.76846-2.2474 0.42669 0.10756-0.99508-0.02434 1.7056 2.899 1.2324 2.0315 1.5605-1.0455-1.1451 2.0238 1.862 1.7742 0.2194-0.82276 3.0803-1.0522 0.71971-2.8093-1.5896-1.346-4.3645-6.5616-1.3716-2.722 1.532 0.6922 4.2449 6.1232 2.7756 1.5581-1.267-2.5514-1.2818-5.3079-3.5305-7.4832-1.1971-2.0821 2.2208 2.3273 2.6538 1.2939-1.283 1.4471 2.0111 1.5814-0.28716 1.9591 0.93516 1.0679 0.96399 5.725 1.5506 1.7444-8.49e-4 -1.545-0.43918-3.1623 0.65312-2.781 0.40735-1.6431 1.4602 4.6692 0.46512 3.515-0.44727 2.5584 0.9055 0.67087-0.19045 3.6725 1.0345 0.56952 1.8235-0.74359 0.81924 0.96453 1.7002 2.0294 1.3163-7.3158 0.39339-3.537-1.2771-0.89347 2.2361-4.3245 1.126-1.0679 0.09542 2.6497-0.72953 4.5816 0.5303 6.2851 0.8936 1.995 3.7544 0.57654 1.727 0.39376-0.71181-2.2697 1.3402 0.87563 0.74149-1.8723-0.74038-0.83911-0.51639 0.32773-0.82623-1.3932-2.5146-0.14356-0.3243-2.1058-1.5609-4.7459-0.73844-0.75831-0.92359-4.6656-1.1895-2.0248-0.48533-1.0227-3.2924-1.3464-0.74905-2.1446-1.6558 0.0352-1.4149-2.3608-3.4896-2.3139-1.388 2.204 3.4247 2.3093 0.23888 2.9408-0.39161-0.99914-1.7514-6.3673-1.7414-3.0963-1.2758 0.95621 1.7646 1.0652 0.29822 1.9507-1.4811-1.8424-0.3051-4.9043-3.6374-5.8942-0.7692-0.30666-0.3466-0.5812-0.77294 0.25346-0.44149-1.2156-1.8944-2.9855 0.28321-1.2163-2.4408-4.0464-1.3792 3.8694 0.08352 4.957 0.95619-0.15107 0.54025 1.8762 1.2569 0.83173 0.81558 3.052-1.4913 0.214-1.7419 0.23944 0.75749 0.29317-3.5921-2.8232-0.99889-1.575 2.0068 2.1409-0.77593-3.0575-0.53504-4.2404-0.70067-2.5928-2.1326-5.35-1.7532-6.2798 1.4472 1.4612 1.3951 2.7419 2.4405 4.4659 1.4359-0.02013-0.97935-0.97661 1.3062-1.1471-0.81939 1.7104 0.03831 1.4134 0.34825 1.0213-0.55309 2.8576 3.257 3.1372 4.3602 5.6332-0.92224-2.0238-2.3533-5.8495-2.1042-7.726 0.10416 1.5991 1.9817 4.2059 1.403 4.4574 0.42232 3.1433 1.3351 1.7117 0.75495-0.45144-0.35455-2.0406 0.13692-3.9393 0.41123-6.2504 0.0061 1.1761 0.43265 5.8605 0.89858 2.123 0.0067-1.9409-1.2541-5.1389-2.3239-5.6356 1.5676 3.4143-2.8986 1.5172-1.578 4.687 2.2903-0.53547-1.8867 2.6897-1.463-0.52586-0.77874-1.751-0.93264-2.8016-0.97234-0.88652-0.538-1.5956-2.1387-1.6258-0.50203-3.2811 0.39247-3.1889 1.7019 4.1392 2.3859 0.34262 1.4977-1.2806-2.6259 3.2272 0.17682 3.6893-0.67383-1.7307 2.3104-2.7649 1.632-3.0977-0.34603-2.4542-0.63758-3.6276 0.76507-2.0796-0.75325-1.5305-3.0783-6.9487-0.80717-3.1826 2.4493-0.87354-0.70869 1.9397 1.1077 3.4351 0.02747 1.3978 2.3521 6.42 1.6497 2.3923 0.34086-0.74721 0.23666-3.1272-0.14192-1.0706-1.6303-2.4157 2.234-6.6652-1.5813-7.0531-2.0738-0.5846-2.567-3.0804-2.0902-4.309-0.70597-2.6283 1.025-0.63785 1.282 0.076695 0.37224 0.71594 0.7947-0.88477 0.30366-0.89593 2.2338-0.30736 2.5602 2.0108 2.8142-1.0786 2.009-0.188 5.3427-2.6941 6.303-2.1448-1.4753 0.65608-4.6893 1.8631-1.0312 0.87465 2.9468-0.64376 5.2943-2.8722 8.4718-0.47907 1.9591-0.20774 4.7508 2.0705 1.189 1.1693-3.3317-2.4035-6.8739-0.77125-10.439-0.19857-3.5043 1.9431 3.2819-0.29611 2.1366 1.7408-0.74839-0.85977-2.4922-1.4018-2.916 0.91047 3.4022 0.67956-4.4022-1.1801-3.1206 1.8953-0.16457 2.3818-0.19038 3.2156-0.70756 4.1739 0.69242 1.5513 1.3336 5.2613 2.1825 1.5594-0.03315-1.8787 1.859-5.146 0.82887-1.5365-0.57644 2.893-2.1662 4.923 0.08324 7.8156 2.8736 3.6713-4.0295-2.5684-2.4561-1.1484-1.272 1.3964-0.13306 6.532 0.03357 9.3145-1.3478-1.3303-0.18892-7.1489-1.6056-2.6219-0.71142-1.9143-0.99921 5.0188 0.32569 5.8549 2.1799 1.6149 0.81764-0.30718 1.3234-0.41319 1.0745 0.89837 1.1272 3.2117 1.1702 0.15081-0.31144 3.7706 3.5835 5.0567 5.581 7.2409-0.57147-2.4596-1.2766-3.696-0.79645-6.3419-0.99888 0.23428-3.011 5.8132-1.783 1.8631 1.1654-2.6813-1.2946-4.9148-2.7717-7.6133-0.44068-2.2392 2.8077 2.7315 2.6557 3.9784 1.4852-1.0352-2.4484-5.9842-0.95558-7.4646-0.91038 2.3326 3.3378 6.5619 1.6257 6.8088 1.7726 1.53-0.07138-3.9719-0.36308-5.0499-1.3861-1.3878-0.81366-4.6729-0.36228-1.392 0.96447 1.6709 3.7891 2.0643 1.2917 2.1222-0.71223-1.4304 0.63245 5.6765 0.68068 1.5863 2.3881-0.4958 1.2902-2.9061 1.4921-6.0207 0.36926-0.60644-0.54779-3.1122 0.0979-3.6891-0.20695-3.6129-4.2625-1.0166-2.1323 1.4894 1.1727 4.2198-0.9507-1.0827-0.72141-2.3717-3.7698 1.3977-0.21274 0.26287 0.28364-1.4747 0.42406 0.2294 1.73-1.2953 2.487 0.67005-0.06828-1.3039 0.1602-2.7126-0.94092-3.5598 0.68383-1.1017-0.69051-2.1755 0.49906-4.002-0.11708-2.1162-0.93369 4.0492-2.708 0.81305-3.182 0.32584 2.9019 6.6781-0.94238 5.4736 2.5231-1.6784-3.1381-6.4909 0.32371-6.6938 1.5201-0.57801 1.4977 0.79206 2.3069-1.4746 1.2127-0.10444 0.47232 2.1295 1.285-0.62431 0.358 0.99321-0.14158 0.27985 0.08731 1.9171 0.43312-1.5747 0.74778-3.0012 1.2571-2.5221 0.03378-1.6875 2.8129 3.0152 1.686-0.34265 1.23-0.26867 0.37272 1.8793 1.7594 0.73456 2.0093 0.88109 0.64617 3.588 2.4341 1.3126 2.1807-1.2437 2.426 3.1723 2.4892 0.49409 1.02 1.0132 1.1149 2.8879 1.0207 0.27391-1.1334-2.414-1.4512-3.8665 0.55749-1.362-0.48953 2.2811 1.5833 3.8758 1.7047 1.845 0.11518-1.1931 3.0041 0.58871 2.0029-2.376-0.87104-1.9623-0.93492-3.0359 0.30472-0.7429 0.68815 2.0912 0.09547 2.7262 1.7178 2.3917-0.30836 1.4891-1.3086 2.4086 0.1775 1.1103 0.43839-0.31164 0.47591-2.8952 1.0651-0.44991-0.2182 3.6873 3.2419 1.5129 0.95589 0.62747 1.3039 2.4697-1.7266-0.68693-0.09557-0.68831-0.5556-1.1623-2.3807-3.0532-0.034113-2.6501 1.5798-3.4352-5.9961-2.5926-7.1204-4.3103-3.7325-1.1425-7.6503-1.655-11.532-1.7279zm14.312 8.3046c-0.60467 0.55985 0.5948 0.359 0 0zm-1.8403 0.48043c-0.54218 1.1104 1.1905-0.62316 0 0zm-8.889-2.2859c-0.48765 1.3313 0.91379-0.27182 0 0zm-2.8647-0.2778c-0.49947 2.7475-0.14102 3.3931-0.18332 6.6816 1.4971-1.2171 2.301 0.73616 1.3375-2.0858-0.9166-1.3413-0.96865-3.0469-1.1541-4.5958zm-0.23169 0.6137c0.03685-0.95056-0.24172 0.23394 0 0zm-0.05594-0.32354c0.63891-0.93271-0.29503-0.48894 0 0zm-3.1309 2.3091c-0.34744-0.2531 0.20852 0.51554 0 0zm-0.35831-0.2487c-0.26153 0.24559 0.33395 0.11205 0 0zm2.743 6.6552c-0.22698 0.69971 0.42662 0.01032 0 0zm0.13342 3.8545c-0.33768 1.2098 0.62166 1.5832 0 0zm-0.2487 1.3079c0.85222 1.5521 0.39826 3.9839 0.36771 5.4522 0.42606 2.8361 1.8855 5.2442 3.7744 5.6131 0.29447-1.2428 0.61155-3.6487 0.65501-0.52684 0.17538 2.0609 5.3929 5.992 3.9406 3.3942-0.91377 0.09355 0.74629-1.5959-0.70898-2.7187 0.57192-0.71794 0.29693-2.6115 0.7873-0.01793-0.05634 2.3471 0.802-1.0108 0.72603 1.6905-1.0067 2.4129 4.9704 7.1669 1.4127 3.4667 2.2405-0.67435 1.878 3.3809 0.80103 1.9575 0.70132 1.7403 2.4807 5.1232 1.0069 4.3158 1.7205 0.5218 3.1483 4.3944 4.2385 3.3325-0.89189-0.24983-2.5589-2.0748 0.04202-1.5769 1.0488-1.2065-3.1733-5.9965-1.7668-1.4451 0.47098 2.6599-1.0644-2.2596-0.60266 0.5482-0.70122-0.94022-2.0374-3.3022-1.7887-5.1606 2.0793 2.2855-0.5301-3.1601-1.3649-4.1241-1.5993-2.1105-2.9882-5.0382-4.3834-7.6745-0.71045-0.22334 0.59538-2.6022-0.776-1.3774 0.36598 2.1305-1.39 4.4763-0.89076 1.0366 0.58317-2.3314-0.62816-5.0499-1.9656-5.6007 0.55847 0.41465-2.9944-1.2464-1.787-1.7098-0.25524-1.9592-1.7431-3.022-0.7918-0.06653 0.25316 1.9892 0.52793 3.0874 1.5796 3.3244-0.38621 1.0943 0.8777 7.2229-0.0011 6.3399-0.16101-2.9282-0.37207-6.6044-2.5039-8.4725zm0.16252 5.8566c-0.18414 1.5229 0.95208 3.8896 0.15001 0.61253l-0.12535-0.57826-0.01134-0.03402zm0.17916 2.3438c-0.5627-0.59958 0.1965 1.5446 0 0zm-0.05594 0.52076c-0.82838 2.3583 1.2558 2.787 0 0zm-0.15005 1.4642c-0.6581-1.3536 0.10368-4.1981-1.3848-1.1939-0.938 2.315 0.88046 5.5819 0.82852 2.0841-0.55338-2.0984 0.89558 0.42053 0.55631-0.89019zm-0.04498 0.4457c-0.87673 1.7781 1.172 4.1057 0.63795 4.5546 1.6836 2.5265 5.0249 5.8149 7.8594 4.9994-1.4325 1.8785 1.2899 0.85405 1.935 1.4769 0.11362-1.2888-0.82507-2.7474 0.3089-1.9681-0.20062-1.6002-0.87858-2.2076-1.0017-0.70063-1.4103-1.9792-1.5019-6.4862-3.4884-2.8258 0.0643-2.1882-2.5649-1.763-2.8825-4.1678-1.1419-2.5568-3.6673-1.2982-2.7401 1.1024-0.97623-0.43516 0.12592-1.8572-0.62854-2.4709zm-0.51517 1.9099c-0.83523 1.8466 1.3005 2.0249 0 0zm-0.2487 0.90821c-0.57186-0.25542 0.1687 1.3199 0 0zm-0.29443-0.45692c-0.51532 1.608 0.2071 1.3731-0.0053-6.6e-4zm-0.02268 1.2964c-0.23317 0.97443 0.62185 0.04635 0 0zm0.23169 0.12775c-0.81514 0.06377 0.49373 3.7455 0.29217 4.8467 0.14205 0.21411-1.2641 6.2476-0.95524 5.8149 0.26391-0.01536 1.1653 2.6626 0.43241 0.0068-0.0737-2.3414 0.11973-0.347 1.006-0.08421 0.15587-1.9343-0.76544-4.343 0.31609-4.7989-0.94252-1.0499 0.75788-3.6769-0.51317-2.7314 0.78117-0.6288-0.0317-4.1815-0.57822-3.0539zm0.65962-6.7247c0.24715 0.07726-0.1564-0.93997 0 0zm-3.3972 3.6575c0.69681 1.924 1.2006-0.51377 0 0zm-4.514-12.118c0.35554-0.63608-0.85131-0.55304 0 0zm0.79845 0.56105c1.3021 1.3109 0.04631-1.0027 0 0zm-2.8068-13.75c-0.26444-0.17473-0.44705 0.73001 0 0zm-2.4017 0.8511c-0.629 1.4168 1.3106 2.3885 0.49643 0.53214 1.7481 0.91883 0.22589-1.0705-0.49643-0.53214zm0.34168 2.0718c-0.17316 1.8618 1.757 1.6442-0.0099 0.00163zm3.3161 5.8452c-0.20594 0.89512 0.29541 0.07982 0 0zm0.36511 2.5349c1.0024 2.7153 1.9186 1.3727 0.36078-0.51478-1.0323-2.0933-0.28641-0.76615-0.36078 0.51478zm4.1206 20.788c0.96386 1.8093 0.69533 4.5017 1.8844 3.5735-0.35195 2.8796 2.4387-0.03172 0.06403-0.81359 0.29246-0.98374 0.0148-3.3283-0.92424-1.2323 1.1284-0.87001-1.7484-3.2936-1.0242-1.5276zm0.83878 4.7457c-0.07704 0.66678 0.53536 0.81264 0 0zm1.0538 0.7873c1.7573 1.7928-2.0277-3.4368-0.0023-8e-4zm0.68873 2.7142c0.30927 0.43052 0.68897 2.1968 0.37003-0.09517 0.04808-0.93363-0.0057 0.10964-0.37003 0.09517zm-0.25513 1.1343c-1.6323 1.177 0.60568 2.456-1.8052 0.91063-2.6867 1.9703 2.4334-0.28893 0.49774 1.9163-0.71796 2.0723 1.8958 5.0332 1.5343 1.3574 0.13868-1.3971 0.53145-2.8815-0.22683-4.1844zm-7.3091-2.448c0.20176 2.6494-2.6595 1.1954-2.9192 1.5127 1.3272 0.73165 3.5825 1.716 2.7624 0.18768 1.8033 1.9842 0.65868-1.1076 0.15683-1.7004zm-11.233-3.831c-0.24182 1.1315 0.52697 0.04272 0 0zm0.08958 0.48043c-0.4407 1.6672 0.78491 2.5049 0 0zm0.17916 0.45133c0.54889 2.3606 1.6442-0.59965 0.01005 0.0071zm0.59019 1.018c0.0041 0.11052 0.28388 0.27243 0 0zm0.11188 0.13871c0.3811 1.4239 1.614 2.6984 1.8078 1.7884 0.76468 1.5207 4.4427 4.3926 5.1022 1.6907-2.2677-1.3799-5-1.2007-6.91-3.4791zm1.713 2.5117c-0.47597 1.0843-0.93914-1.8251-1.2702-0.46799-1.271-3.5325-1.6377-0.22415 0.75896 0.8002 0.46292 1.1876 2.2845 4.7687 0.8747 1.4717-0.38511-2.2101 2.3294 3.3846 1.0401 2.2077 2.3425 2.4338-1.0903-3.7788-1.4036-4.0116zm1.3832 3.7212c0.36948-0.55388-0.81207-0.66081 0 0zm-4.0684-6.8695c-0.05941-3.6074-1.4547-0.44332 0 0zm-8.7038-7.9168c-0.87947 0.5088 0.73432 0.37094 0 0zm0.20259 0.1973c0.49807 1.365-1.8368-0.63417-0.45163 1.7858-0.0029 2.0982-4.3031-3.0593-3.0944-0.50678 0.33082 1.859-0.86437 3.2385-0.55259 0.8931-0.36296-0.8189-3.3363-1.6878-1.4024-0.37491-0.16512 2.1346 4.3575 5.9542 3.4657 1.7716-0.51511 1.6859 2.0276 2.7767 1.4682 1.3537-0.74685 0.07139-0.61027 0.2262-1.0709-1.5242 3.1704 0.49485 2.2176 3.136-0.24898 2.7051-0.4942-0.56322-0.38641 3.1561-0.71345 0.47358-1.732-1.8754-0.11058 4.0978 1.8675 3.7929 2.2117 1.3216 0.64358 6.1867 3.2191 5.0997-1.1731 1.7818 3.1583 6.4854 3.123 3.0786 3.1167-1.1369-1.1491-4.4756-1.9154-6.5142-1.3903-1.4793-1.1649-4.5329 0.36509-2.1353 2.4693 3.0114-0.44618-3.0077-0.40975-4.4693-1.5152-1.9341-0.39459-5.8419-2.8304-4.3815 0.50955 1.8724 2.4477 6.2488 0.34724 4.8283 1.203-1.2221-0.8867-4.4684-1.166-5.8763zm6.1574 18.64c-1.2792 0.5373 0.96658 1.5335 1.149 0.57538 1.503 2.2791 0.71352-2.9072-1.0603-0.5609l-0.07824-0.01134zm-12.124-7.726c0.4777-0.18981-0.31501-0.3868 0 0zm1.0068 0.80408c0.93926 0.84873-0.26143-0.59002 0 0zm2.8647 0.68873c0.29017-0.78529-0.55735-0.77952 0 0zm-0.00378-1.0303c1.1044 0.3965-0.47618-0.95849 0 0zm0.87911 8.2525c0.9386 1.2902-0.014455-1.8542 0 0zm0.19049-0.75257c0.026441-0.06741-0.040432-0.08198 0 0zm-0.011339-0.05594c-0.73424-1.1979-1.7999-1.2477 0 0zm1.4583 1.5509c0.51888 3.0529 1.2401-3.6367-0.04815-0.98665 0.27728 0.2534-0.25158 0.81733 0.04815 0.98665zm-0.13342 3.1367c-1.0909 0.71918 0.03659 2.1299 0 0zm1.1165 2.448c2.6107 0.75103 0.34218-3.3156-0.04985-0.57351l0.03898 0.57304zm0.17348 0.19049c0.03922 0.63959 0.43021 0.93178 0 0zm0.16782 0.65403c-0.22534 1.4868 0.667 1.6544 0 0zm-0.19049 1.823c-0.0338 2.8981 0.75877-1.1064 1.2973 1.4156 1.2926 2.5332-1.8311-1.2232-0.96507 1.5625 1.9351 0.33185 2.7543 0.27058 1.7186-2.0549-0.39886-0.51787-1.3656-1.5687-2.0508-0.92326zm2.4363 3.2988c0.01689 0.90853 2.2144 0.2457-1.5e-4 0.0042zm0.31258-8.2007c0.50544 0.93222 0.76733-0.42651 0 0zm1.0247 0.75257c1.6636 0.61916 2.9932 2.5502 2.0125-0.42599 0.41725-1.9286-1.8911-4.8174-1.289-1.1203-0.55638 2.9166 0.15467-1.869-0.91822 0.69705-0.05765 0.26872-0.08141 0.68345 0.19477 0.8492zm3.4086 3.4665c-0.64224 1.7022 0.9689 2.6235 0.26445 0.38976 1.2651 2.6436 1.1576 0.99706-0.26617-0.39168zm1.3948 2.118c-0.0943 0.59853 0.89443 0.08499 0 0zm0.31787 0.24303c0.45184 0.66958 0.57914-0.83693 0 0zm-0.39308-9.2654c1.2497 2.7358 2.1054-2.9645 2.6208-1.0547-1.8598 0.68355 0.11045 3.5379-0.06437 4.0797-0.57261-2.1637 0.60219-2.8356 0.45564-0.3213 0.58022 1.7214 1.7225 1.2108 2.7542 3.2063 0.90581 2.9601 1.3859-3.6042 1.5714-0.20065 0.81334 2.0035 3.1515 0.32059 1.1601-0.28194 1.8002-0.33255-2.5165-0.87284-1.3452-2.5016-0.7055-1.304-2.4212-1.8918-0.75232-0.44407-1.9637 0.92114-2.1507-6.7863-4.934-6.2198 0.21652 2.6277-7.8e-4 2.2622-1.2526 2.2006 0.74888 0.79381-1.9985-0.58221-1.6957 0.87079 0.60382-0.28736 1.5116-0.35623 1.4821 0.66662zm6.4526 7.8242c-0.25538-0.45824-0.15389 0.1495 0 0zm1.7014-15.805c3.0961 1.6006 0.34932-0.83104 0 0zm8.2585 15.226c0.39798-1.4464-0.52042-1.1543 0 0zm0.13871-0.75816c0.33442 0.75594 0.10961-1.2886 0 0zm0.12775 0.22073c-0.66475 1.7283 2.0052 1.3166 0.0019 0.0087zm1.9213-2.0892c0.11989-0.78456-1.2435-2.2619 0 0zm0.48043 0.16782c0.83886 2.5436 3.8351 5.0958 1.7666 1.2671 0.05485-0.31506-1.5629-0.48954-1.7666-1.2671zm1.1343-9.1381c0.5298 0.13067-0.70707-1.0611 0.0079 7.6e-4zm1.0762 0.72346c0.60599 0.89965 0.04231-0.69112 0 0zm4.1319 12.64c-0.31641 0.55844 0.4673 0.94057 0 0zm0.75257 1.3253c1.3517 2.3036 1.0508-0.99489 0 0zm1.7883 0.42219c0.62423 1.3389 0.83692-1.8454-0.91255-1.7572 0.69803 0.38782 0.71828 1.054 0.91255 1.7572zm2.5289-0.29557c0.56879-0.32442-0.9659-0.19794 0 0zm1.8057-0.13342c2.1277 1.1874 0.37647-2.4192 0 0zm-1.4005-4.2476c0.82699 0.11552 2.7005 0.14845 0.41536-0.438-0.08129 0.25634-1.0764-0.01465-0.41536 0.438zm8.322 0.18482c2.5637 2.5069 1.3188-2.7222 1.0412-3.3858-1.7172-1.0559 1.2624 2.1677-1.0492 1.3968-0.086-0.12561-2.067-0.81724-0.51314 0.66535-0.09039 0.53385 0.57858 0.83349 0.52114 1.3236zm2.8069 1.8924c0.78029-0.26786-0.80669-0.63118 0 0zm0.50394-4.6123c1.9004 2.8422 1.4032 0.02298-0.05285-0.87616-0.58072 0.27904-0.23508 0.56552 0.05285 0.87616zm-9.9715-28.693c-0.21982 2.061 1.4957 2.0152 0 0zm-3.4434-21.175c0.08891 0.18386 0.05954-0.0098 0 0zm6.5917 4.4388c-0.41567 0.77658 0.60826 0.38446 0 0zm-0.10092 0.15005c-0.10312-0.22061-0.07749 0.25364 0 0zm-0.05594-0.05594c0.0015-0.03322-0.0209 0.01275 0 0zm-15.342-11.517c0.0075 0.12768 0.09904-0.028424 0 0zm-6.0709 2.3902c-1.0802 1.9348-2.9267-0.97273-3.572 2.5137 1.1362 2.6225-2.8201-1.0226-1.6587 2.2485 2.174 2.4362 1.4107 0.52032 1.9651-0.16247-0.15693-1.8458 0.50936-3.9084 0.31747-2.2257-0.49175 3.4627-0.16904-2.9934 2.7874-0.94564 1.5458-1.7495 0.16237 0.12085 0.16075-1.4284zm-2.963 0.42778c-0.42644 0.85289 0.37295-0.054401 0 0zm26.343 0.22527c-0.72062 1.8367 1.3879 2.3082 0 0zm-36.795 0.089578c-0.15398 1.7687 7.4717 2.3626 2.8774 2.0414-2.8348-1.3053-3.3004 0.37751-1.9617 2.5744 0.76835 1.5635 3.0207 3.7834 2.5996 0.69782-0.46738 2.4357 0.62703 2.6962 1.7935 4.8507-0.27943 0.97246-1.3784-2.5466-2.1955-0.74249-0.36475-2.6732-2.8622-4.1055-2.5795-1.4063-0.10509-0.93012-0.48643-4.4418-1.7554-4.5576-0.18478-1.2021-1.9592-3.2037 0.23982-2.1746 0.3295 3.5104 0.29515-1.4985 0.98184-1.2833zm7.8821 0.72346c0.03132 0.94001 0.9248 0.057706 0 0zm8.2411 0.15572c0.65122 1.2959-0.54163 1.5405 0 0zm4.9249 0.34168c-0.34881 1.7368 0.92864 0.93863 0 0zm-0.32921 1.3195c-0.56941 1.8348 2.4623 2.6721 0.54168 0.68651-0.85708 0.75854-0.24336-0.78434-0.54168-0.68651zm1.4352 1.8519c-1.3798 1.5131 2.734 4.9721 0.78494 1.7126-0.41235-0.51749-0.615-1.0982-0.78494-1.7126zm13.826 0.06728c-0.13009 1.9261 2.0874 1.4629 0.4895 0.72365 0.6872 0.06693-0.56373-0.56914-0.4895-0.72365zm-42.136 0.0038c2.6933 0.81296 2.2722 6.6705 4.6396 6.178-2.3374-0.76724 0.37749-4.9691-0.31764-2.2732-1.4652 0.99337 2.2542 3.1729 1.6867 0.66719 0.77483 1.7742 0.73255 6.7021-0.05185 2.3669-1.4507-1.9224-1.0227 0.64444-0.62621 0.65503 0.68741 1.5629 0.02058 3.9206-1.1223 0.92634-0.94297-1.3469-4.4898-6.6496-1.5695-2.9031 2.2739 2.7313-2.1505-4.1224-2.0055-4.5362-0.22712-0.14882-0.71974-0.77628-0.63326-1.081zm38.972 0.2778c-0.04283 1.0946 1.0975-0.13067 0 0zm5.0753 0.93176c-0.89122 1.0788 1.2988 0.0066 0 0zm-0.01134 0.9956c-0.48943 1.634 1.9695 3.2347 0 0zm-17.165 0.10092c-1.0729 0.63159 1.9749 1.5996 0 0zm1.1864 0.01134c-0.18118 1.9844 1.919 4.4722 0.84664 1.2266-0.29266-0.38648-0.29925-1.0832-0.84664-1.2266zm-2.0197 0.20826c0.41346 1.2508 0.52826 2.9006-0.34523 0.99763-1.5336-0.29629 0.47779 4.3896 1.96 5.406 1.3835 0.99798 2.6779 4.7845 2.5231 0.707 0.16363-1.6698-2.9336-7.4554-1.6725-2.8212 0.90044 0.9562 1.3037 2.3048-0.1255 2.1508 0.9597-1.9384-0.7293 0.27767-0.37607-2.3009-0.49971-1.7244-0.4907-2.9987-1.9639-4.1393zm-14.028 0.54424c0.81399 0.49336-0.7014 0.39923 0 0zm-16.262 0.59019c2.015 1.5577 3.13 3.5781 4.2977 5.268 1.1956-0.81142-1.1208-1.0715-0.46364-2.3685-0.93776-4.2172 2.6468 2.3083 4.0402 3.0811 1.8127 3.1778-4.0981-4.6376-0.91068 0.14632 1.2505 2.2758 2.4527 2.9053 3.0314 4.6509-2.1368-0.62385-4.0956-7.2985-4.7078-5.3562 2.2032 1.5448-1.0337 3.8491 0.43352 2.0062 0.16906-2.4492-2.5398-1.8264-2.1411-0.76991-0.1073-1.9186-1.5677-4.9896-3.0772-4.6225-0.64769-1.7329 0.91761 5.3124-0.4644 1.6244-0.70341-1.1253-0.25844-2.5171-0.0379-3.6597zm48.716 1.2963c-0.13566 2.6292 2.3423 1.2639 0 0zm-7.859 0.4054c-0.37249 0.65459 0.74553 0.42773 0 0zm-9.9888 2.8242c-1.0916 0.20438 1.3883 0.84143 0 0zm26.153 0.8164c-0.99996 1.3134 1.2163 0.79812 0 0zm-14.566 0.74024c0.21414 1.2522 0.45308 4.3409-0.17119 4.0322-0.17037-1.2671-0.0014-2.8586 0.17119-4.0322zm-38.352 2.0197c0.74355 0.83665 1.179 2.7698 2.165 1.2332-0.02697 2.3671 2.5918 5.4158 2.4292 1.1982 0.55378 1.192-0.39987 3.7459 1.0285 5.165-0.19029-0.32298 2.5573 3.7683 0.15316 2.923 0.03404-1.225-0.63156-2.4288-0.90636 0.01061 0.29457 2.7858-1.573-1.4854-3.6255-0.53092-3.6497-1.7307 2.6932 0.42375 3.3146-0.3274 0.25998-1.5902-1.7164-6.7612-2.9799-5.0889-0.20501 2.9976-0.74743-1.1024 0.22019-1.2568-1.1368-0.59418-1.5136-2.102-1.7988-3.3261zm-6.4239 0.21393c0.27596 0.63568 0.68985 1.2978 0 0zm0.57897 1.3485c0.34129 2.4219 1.3262 0.79858-0.00174 0.0015zm-3.4955 0.44573c1.242 1.3436 4.3975 4.5802 4.5299 5.654-1.0834-1.2097-3.2335-3.9325-1.1525-0.72162 1.2458 2.2827 2.4547 2.9165 3.0302 4.6521-2.1436-0.61526-4.0952-7.302-4.7138-5.3535 2.1989 1.5414-1.0274 3.8467 0.43414 2.0093 0.16743-2.4604-2.5351-1.8213-2.1464-0.77493-0.8943-1.7471-1.2685-6.2523-0.091401-2.1468 1.623 1.7564 0.963-0.74039 0.55616-0.71017-0.38161-0.70221-0.4132-1.6838-0.44627-2.6083zm69.523 0.6193c1.3673 1.3177 2.9211 8.2976 1.0729 3.3587-0.15354-1.0533-1.4623-2.351-1.0729-3.3587zm-65.131 0.17349c0.10035 1.3967 1.3245 0.98948 0 0zm-0.23736 0.23169c-0.13117 0.02617 0.20489 0.20438 0 0zm59.416 0.14438c-1.3619 0.39812 1.1755 0.83096 0.47778 2.38 0.4413 1.4793 0.16978 5.1091 0.70769 1.6262-0.02373-1.4701 1.5032 2.7604-0.36425 3.1191-0.19293 1.6114 1.4049 2.8198 0.41293 3.2051 3.0764 0.80366-1.5943-3.2351 0.91984-4.4848 0.12706-2.5238 0.14449-5.2856-2.154-5.8455zm-57.64 0.12208c-0.48075 1.8664 1.7854 2.2302 0.46088 0.4533-0.20619-0.06391-0.24546-0.41883-0.46088-0.4533zm-0.66522 0.68313c-0.01768 0.19103 0.28059 0.2246 0 0zm1.0303 1.4236c-0.22453 0.80383 1.5208 0.96298 0 0zm14.011 0.89706c1.5666 1.5449 2.7699 1.756 0.35759 0.12778l-0.35831-0.12775zm37.936 1.1979c-0.07835 1.5881 1.0124 0.1776 0 0zm-9.9715 0.07824c-0.01963 2.0267 2.0986 3.6463 0.68319 1.2551-0.24467-0.39722-0.37155-0.9146-0.68319-1.2551zm18.05 0.46924c-0.79096 2.6167-1.0547 3.0659 0.86846 5.5464 0.31795-0.84537 0.94732-3.7586-0.86846-5.5464zm-28.872 1.1748c1.1849 2.5486 2.4535 1.6754 0.0072 0.0037zm34.046 0.63048c1.4006 0.24415 0.28418 4.9312 0.93358 1.8805 0.39902 3.4013 0.40746 7.0855 0.05531 10.621-0.61481 2.2889-0.68394-3.5257-0.42809-4.4815-0.40238-2.705-0.55676-5.3301-0.5608-8.0199zm-32.096 0.82759c-1.0036 1.7648 3.549 3.5616 0.67884 0.78148l-0.43455-0.66522-0.24303-0.11528zm-43.485 0.42782c0.68894 1.4785-0.33215 1.0431 0 0zm72.301 1.0941c-0.84877 1.2191 0.92313 1.908 0 0zm-24.607 1.2096c-0.49766 1.7272 3.0374 6.2356 1.2963 2.2895-0.7675-0.52613-0.87143-1.5315-1.2963-2.2895zm-0.64844 0.06728c-0.70876 0.6109 0.9639 1.9132 0 0zm-8.4898 0.27213c0.45048 2.3961-0.46714 6.2259 1.714 4.1704 2.3931-0.34616 1.1655 3.5044 3.0628 4.1262-2.4178-1.2437 2.4462 3.5221-0.70587 2.8635 2.8273 0.48826 1.1673-1.8045 0.73652-2.3095 3.3414 2.3126-2.3671-5.1647 1.0462-2.0342-0.68361-0.79639-1.2301-3.4539-2.3969-2.5704-1.1626-0.76026-2.3202-3.1508-2.7749-2.1709-0.41504-0.60055 0.29522-1.4042-0.6818-2.075zm14.306 0.27214c-0.84302 0.73711 0.93446 1.7959 0 0zm-0.01134 1.8924c-0.01014 1.7018 1.587 3.1338 0.32642 0.44938l-0.33034-0.45129zm16.06 1.1632c-2.1285 0.8887 2.1123 5.0784 0.8535 0.95978-0.07743-0.44864-0.43529-0.81008-0.8535-0.95978zm-55.848 0.34735c0.14502 3.1922 1.2787 5.7828 2.6164 7.5176 0.52295-1.7525 0.47816 2.5216 0.73931-0.65962-0.96646-3.0471 0.51612-1.4711 0.29372 0.69699-1.0253 1.6437-0.83131 7.2603 1.5015 4.0135-1.3091-1.4182-2.2085-3.1195-0.08003-0.7921 1.1689 2.3824 3.9091 0.08442 1.9104-1.9313-1.3463-4.3326 1.1195 5.254-1.5382 1.6364 1.3041-1.0586 0.57184-4.0645-1.1034-5.534-0.54791-3.6932-0.51487 3.5038-0.73344-0.4238 0.78791-1.5147-2.6892-3.4918-2.2301-2.0079-0.44069-1.2205-1.8965-2.9691 0.28324-1.2109 0.31583-1.0779-1.0287-1.2218-1.6594-1.3048zm46.437 0.02268c-3.0041-0.38731-1.269 2.9169-2.9332 1.1547 0.16383 2.9781 1.9024 1.7274 1.2463-0.36875 0.73316-0.29637 4.652 0.92622 1.6945-0.78312zm-6.8 0.0038c0.03022 1.2577 0.7851 0.44268 0 0zm2.7721 0.0446c-1.7757 0.2578 1.5984 0.72227 0 0zm-19.051 0.21393c-0.63705 2.4935 0.8436 1.1869 0 0zm6.8982 0.2264c1.3012 2.1962 1.2675 0.80474 2.1403 2.909 2.5949 0.3209 1.3514 2.5864 2.1916 4.0115-4.2962 0.03278 0.87511 2.3293-0.18167 3.477 1.3736 1.1295 2.0617 4.6179 1.4077 0.88761 0.28222-1.6599 1.1686 4.6989 2.6328 4.0939 0.45342 1.6371 0.67084-2.2201 0.35229-2.1551 1.6334-0.51327-1.3311-5.0603 0.16942-3.9466-0.39033-3.306-2.1454 1.2163-1.9907 0.78755 0.02396-1.7174-1.9273 1.1655-1.265-1.6316 0.10315-1.6962 1.166 1.838 0.9239-0.3506 0.37213-0.16938 1.5573-3.3915-0.87799-1.7383-0.0089 1.1876-0.52545 1.4191-0.80604 2.8356-2.3057-1.8238-0.96312-1.2494-0.17134-0.97768-0.1166-1.8307-0.29695-2.9261 0.50983-4.5649-2.5953-1.2976-2.3432-3.1777-5.0351-3.6372zm5.9957 0c-1.2473 1.566 2.9841 3.0611 0.63684 0.79979 0.84695-0.55351-0.7344-0.46964-0.63684-0.79979zm17.906 0.11188c-1.7844 1.2346 3.4719 7.4891 2.7178 4.8892 1.9111 0.29333 0.03332 7.8837 3.2362 4.7264 1.3945-0.72838-0.57748-1.7553 1.2854-0.94559-2.0064-0.5585-2.7906-3.7253-3.5907-3.5181-0.44651-1.8715-2.6592-3.9225-3.6486-5.1519zm-11.192 0.12775c-2.006 0.08832 0.98009 3.8377 0.08018 0.31002l-0.08958-0.30691zm-4.028 0.02268c-0.26455 0.66288 1.5053 0.85908 0 0zm13.496 0.06728c-3.2834 0.27129-4.4083 2.67-1.9727 5.0521-0.18308 0.86804-0.87829-1.6822-1.9325-0.70827-0.49315-0.24773 0.83256-1.442-0.24055-1.3555-0.15118-2.9427-2.7993 0.69607-1.3808 0.80916 0.17098-2.5832 0.55617 2.8426 1.8221 3.1752 0.59716 0.89272 2.497 0.56337 2.2268 2.6871 0.51771 1.951-1.8837-3.2255-1.6797 0.19119 1.2626 3.1456-0.10799-2.2929 1.136 0.9622 0.62754 1.6882 0.88347-1.2549 0.89502 0.89369 1.3171 3.2354-2.5166-2.8932-3.9141-1.5283 1.4358 1.9334-0.55808 2.782 1.0604 3.9996-0.27893 4.2213 1.9292-2.6344 1.2964 1.2478 1.9635 1.012 3.1908-0.97268 3.1421-1.4391 1.2453 2.7689 1.6545-0.59012 0.74161-1.8865 1.2333-1.5727-2.2648-3.1253-0.29416-2.6938-1.7589 0.37617-2.4622-4.7574-0.55044-1.8799 1.3098 0.98009 4.4492 6.9027 3.3586 2.1285-1.144-2.2889-2.4117-5.3039-2.5465-6.5602 0.04356 1.3586-0.43756 5.0596-0.94907 2.4696-0.54948 2.0026-0.9968-3.2426 0.1319-0.74536 0.09955-1.6928-0.58177-1.9529 0.55191-2.53-0.2202-0.66721 0.07588-2.1774-0.90228-2.2892zm-25.151 0.08958c-1.1622 0.68536-3.6364 2.7373-1.093 4.135-3.3754 0.04302 2.3603 5.6187 0.28959 1.4228-0.08346-0.17079 2.0779 1.5973 1.757-0.51535-0.35057 3.7973 2.5031-0.65371 0.31599-2.3366-0.14528-0.82114-0.32548-2.7273-1.2696-2.7058zm-18.727 0.41659c-1.3348 2.4537 1.829 5.2207 3.8314 4.2472-0.5463-2.408-2.5888 0.63285-1.9755-2.2754-0.50339-0.76255-1.346-1.2257-1.8559-1.9718zm37.212 0.37645c-0.15213 1.1113 1.4505-0.24227 0 0zm-6.6148 0.12208c-0.59511 0.66142 1.0251 0.81909 0 0zm2.4712 0.01134c-0.54081 3.3501 4.7209 2.5316 3.7473 1.0565-2.3046 3.4653-2.127-0.50785-3.7473-1.0565zm-7.8242 0.2778c-1.0673 0.5053 3.064 1.6625 0.29802 0.18167l-0.30124-0.17916zm2.0661 0.23736c0.55975 1.9957 3.6918 2.8629 0 0zm-27.732 0.45689c-1.0174 0.35311 0.5533 1.7377 0 0zm-18.849 0.2264c-1.2945 0.63346 2.0427 3.35 0.26413 0.37123-0.055649-0.11722-0.047229-0.41126-0.26413-0.37123zm-0.76375 0.15005c-1.1443 1.069 1.0065 2.1409 0 0zm43.515 0.20259c-2.0336 0.61509 1.7844 4.4007 0.9799 2.7265-1.8186-1.3006 0.68012-2.6154-0.21276-0.49061 1.7632 0.1751-0.12447-2.4502-0.76714-2.2359zm14.034 0.36511c-4.4046 0.56125 2.2475 7.8664 0.0743 2.3512-0.3709-3.0545 2.272 6.8582 2.1263 2.5566-0.11489-1.8793-2.3823-2.9415-2.2006-4.9079zm-10.176 0.75593c-0.40199 0.97342 1.2295-0.39041 0 0zm18.751 0.30691c-0.91251 1.6297 2.8268 7.2833 2.2899 2.6716-0.26886-1.1416-1.4417-1.9629-2.2899-2.6716zm-16.714 0.06728c-3.4033 0.71011 4.5984 2.4993 0.87392 0.67726l-0.58071-0.5387-0.29557-0.13342zm4.271 0.64284c-0.17666 3.5284 2.1806 5.6864 3.9794 8.4913 2.0654 3.4466 0.1179-3.1686-0.98782-4.258 0.16598-2.336-0.8566-1.7816-0.4432-0.66877-1.016-0.91122-0.75966-3.3069-2.5484-3.5645zm-25.18 0.01134c-0.43319 1.5691 3.1685 3.7718-0.72449 2.926 1.1541-0.55507 3.6898 3.9085 2.1547 0.32846 1.4412 1.4414 0.85818 3.6374 3.1815 4.4007-1.652-2.6194-1.7024-5.8174-4.6186-7.663zm-17.385 0.39308c-0.07095 2.3991 3.2427 3.3418 1.815 3.6885 1.7723 3.2314 1.8963-2.7589-0.47741-2.3618 2.0003 0.50099-1.2128-0.99324-1.3376-1.3267zm38.541 0.35831c-0.02569 0.17266-1.3936 2.8061 0.50137 1.1999 0.18188-0.40219 0.35276-1.5851-0.50137-1.1999zm-13.519 0.73465c-1.6059 1.055-0.44581 3.0768 0.21554 1.0626-0.98232-1.1951 2.0997 1.4194 0.3327-0.51688 0.14613 0.02797-0.82399-0.49144-0.54824-0.54567zm-7.7086 0.22527c-0.22524 1.1539 0.8442 0.74594 0 0zm-28.172 0.10092c0.79442 1.235 1.4668 3.2856 0.87388 3.874 0.044481 1.3642 2.2445 2.4847 0.44139 2.4155-0.68144-2.3322-0.91446-1.4235-1.3404-1.0385-0.22969-2.5302-1.7434-2.0972 0.10987-2.1197-0.94876-1.2324-0.11024-1.3215-0.084729-3.1312zm50.689 0.0038c-0.40234 1.0044 0.2476 1.3189 0.84602 2.0018-0.02587-0.76941-0.18768-1.5073-0.84602-2.0018zm-31.494 0.07862c0.31173 2.5418 3.675 1.4294 0.53414 0.60015 0.0075-0.24472-0.26424-0.68263-0.53414-0.60015zm34.174 0.23169c-0.3077 1.2631 1.0929 1.7335 0 0zm-21.905 0.57897c-0.88048 0.70585 1.608 0.48365 0 0.0047zm7.4017 0.31787c0.08753 1.4103-2.1056-0.15188-1.4307 2.1638 0.21552-0.87397 2.6008-0.8806 1.4307-2.1638zm2.3323 0.06728c-3.2909 0.14527 0.24764 1.34 0 0zm2.448 0.11188c-0.83327 1.0353 1.2544 0.24163 0 0zm20.244 0.08958c-1.3372 0.6954 2.6861 1.1751 0 0zm-6.6321 0.411c0.21362 2.4891 1.902 2.3311 0 0zm-12.952 0.15002c-2.0618 0.41094 2.8761 4.8759 1.249 1.8833-1.9428-0.73614-0.03039-1.2526-1.249-1.8833zm24.034 0.0038c-0.71771 1.2389 1.8554 4.0717 0.50699 1.0808 0.32147-0.73047-0.54991-0.54308-0.50699-1.0808zm-32.831 0.02268c-1.799 2.5256 2.9452 2.2735 0.83352 0.27477-0.0054 2.1294-0.27149 1.9425-0.83352-0.27477zm16.28 0.15686c-0.49491 1.1567 1.4762 1.0601 0 0zm-30.343 0.03402c-0.62817 0.78392 1.3695-0.06664 0 0zm29.254 0.37078c-1.0744 1.0507 0.81489 3.7971 0.03137 0.56091 0.80489 0.81818 1.2235 3.9907 2.3026 5.5475 1.1481 3.1134 1.2794-0.33981 1.1258-1.0224 0.18595 0.70777 0.05534-2.8445 0.50741 0.10741-1.3778 3.3547 2.9986 2.364 3.2796 3.7386 1.1609 2.8335-0.27244-3.5668-2.0696-3.8449-2.0092-1.6934-3.0101-4.3458-5.1772-5.0872zm-11.661 0.04498c-1.0135-0.34817 0.04069 0.80729 0 0zm-0.02268 0.72906c-4.4777-0.22505 2.694 4.3871 0.3365 0.45233 0.22269-0.46998-0.24812-0.26984-0.3365-0.45233zm26.546 0.2487c-1.0298 2.3188 0.92555 4.945 0.9568 1.276-0.58944-0.38521-0.6457-0.7633-0.9568-1.276zm2.4942 0.06728c-0.23258 1.1306 1.4675 2.785 0 0zm-14.422 0.2264c-0.81903 0.11364 0.5893 0.9821 0 0zm0.50953 0.02268c-0.08156 1.3879 4.746 5.9336 2.2025 2.2165-0.76374-0.81888-1.5886-1.4743-2.2025-2.2165zm16.725 0.19692c-1.3501 1.7981 3.0637 3.4334 0.51754 0.66481-0.54649-0.10772-0.534-0.21436-0.51754-0.66481zm-24.52 0.78167c-0.36295 1.4222 0.47848 0.94825 0 0zm23.583 0c-1.43 0.05259 0.11802 1.6724 0 0zm-54.075 0.11184c-1.74 1.042 0.4334 3.8705 1.8309 1.4284 1.8069-1.2113-1.2682-1.1304-1.8309-1.4284zm51.044 0.33034c-1.5211 1.9969 0.77413 4.1052 1.8163 1.9209-0.85894-2.827-1.2231-0.27677-1.8577 0.5115-0.38134-0.80051 0.79087-1.7693 0.04134-2.4324zm3.4607 0.11188c-0.70327 2.0733 2.373 1.7664 0 0zm-1.493 0.15686c-0.40311 1.3022 1.8487 0.54621 0 0zm-60.516 0.86233c0.0088 1.8691 1.0492 0.80711 0 0zm38.428 0.26646c0.39265 2.5655 1.8015-0.11239 0 0zm5.6944 0.77494c-1.0346 0.38264 0.10671 0.95199 0 0zm-1.3484 0.02268c-0.72813 1.3344-0.74461 5.8383 0.83303 4.0168 0.66401 1.3726-0.11146-2.7845 0.68987-0.28819 0.27192 1.5829-2.3561 1.8558 0.53311 1.526 1.9459-1.4928-1.9247-4.4546-1.68-1.4728-1.562-1.3761 0.53652-1.9015 1.4519-1.8811-0.88138-1.7137-2.8809 0.75058-1.485-1.586l-0.33034-0.30691zm-3.0904 0.28347c-0.93648 1.0576-0.18974 2.6456 1.0542 3.3021-0.40377-1.0827-0.67276-2.2351-1.0542-3.3021zm11.111 0.23736c-0.94749 2.2679 1.0468 1.901 0 0zm-56.612 0.03402c0.92566 0.19617-0.14031 0.93306 0 0zm11.441 0.12208c-0.99484 0.53221 1.1247-0.04515 0 0zm-3.8832 0.2487c-3.0042 0.44736-0.83961 1.4249-0.0062-8.4e-4zm47.567 0.01134c0.20122 1.9679 1.8819 2.3509 0 0zm-8.6289 0.15686c-0.55096 0.70958 0.59354 0.87632 0 0zm-37.09 0.02268c-2.5014 1.4452-0.44206 0.41426 0.54333 0.76305-1.7043 2.6382 1.7279-1.1783-0.54333-0.76305zm22.547 0.41659c-0.54364 0.46822 0.58186 0.67247 0 0zm14.914 0.39308c-1.4584 1.3781 2.2065 3.0912 0 0zm-42.687 0.0038c0.94167 1.5445-0.37095 1.9091 0 0zm3.2986 0.10092c-0.38624 1.43 0.51823 0.70679 0 0zm-0.4401 0.87351c-0.86696 0.46176 0.68236 0.46908 0 0zm49.695 0.10092c-1.4686 1.0983 0.16226 2.2866 0 0zm-5.1275 0.0446c0.14499 0.86713 3.8158 0.71499 0.6501 1.6759-2.4371 1.8927 4.4161-1.1334 0.3654-1.5449 0.24357 0.21559-1.2663-0.37468-1.0155-0.13096zm-45.424 0.08958c-2.0239 0.86946 0.05612 1.3397 0 0zm36.506 0.07824c-0.1931 1.3853 0.71075-0.20387 0 0zm0.75816 0.19047c-0.59589 1.5982 1.1116 4.0216 0.2836 1.0015l-0.22073-0.69995-0.06728-0.30691zm-20.782 0.20826c-0.83615 1.2414 1.0893 1.6163 0 0zm24.179 0.53868c-0.69328 1.2632 1.8069 1.3823-0.0063-1e-3zm-14.752 0.28876c-1.2009 0.69892 0.8128 1.8009 0 0zm1.2847 0.04498c-0.21558 2.0121 1.5474 0.43045 0 0zm-10.891 0.42778c-0.21754 1.1807 1.6198 1.8645 0 0zm25.62 0.25966c-0.39199 0.91451 1.5932 0.38325-9.1e-4 -4e-5zm-24.903 0.06728c0.68871 1.9519 2.0891 1.658 0 0zm24.729 0.73465c-2.3989 0.97919 4.0121 1.1653 5.4e-4 -0.0038zm2.2976 0.04498c-1.4802-0.01084 1.165 0.81167 0 0zm-30.417 1.3082c0.72388 0.78722-0.9813 0.20422 0 0zm27.958 0.07824c-0.60691 1.086 1.8963 1.1403 0 0zm-5.7874 1.4178c-1.8903 2.3295 1.1381-0.1844 0 0zm1.661 0.59578c-1.9687 1.2342 0.1765 1.0698 0 0zm-2.4423 0.94854c-0.59729 1.6726 1.8894 2.1779 0 0zm13.768 1.7073c-1.9883-0.48009-1.9435 1.8674-0.74439 0.22668-0.46592 0.33247 1.6735 0.32128 0.74439-0.22668zm-34.567 7.5173c1.104 1.7605 0.90591 1.1197 1.799 1.5527 1.6143-0.72966 4.5272 1.6382 1.8887 1.3668 0.72932-2.2015-2.6242 1.0258-3.2271-1.646 0.32489-0.15168-1.2438-1.4356-0.46067-1.2735z"/></svg>
