<svg xmlns="http://www.w3.org/2000/svg" xml:space="preserve" width="80" height="80"><path d="M40 .152C62.004.152 79.848 17.996 79.848 40c0 22.004-17.844 39.848-39.848 39.848C17.996 79.848.152 62.004.152 40 .152 17.996 17.996.152 40 .152z" style="fill:#0a0a0d;fill-opacity:1;fill-rule:evenodd;stroke:#1f1917;stroke-width:.303641;stroke-linecap:butt;stroke-linejoin:miter;stroke-miterlimit:10;stroke-dasharray:none;stroke-opacity:1"/><path d="M16.257 16.723c8.486-9.214 22.511-11.668 33.812-5.143 11.36 6.558 16.238 20.035 12.393 32.038.169-1.302.243-2.609.228-3.91.135-10.054-5.023-19.884-14.348-25.268-10.456-6.037-23.135-4.742-32.085 2.283ZM72.03 31.077c3.736 11.957-1.152 25.329-12.452 31.853-11.36 6.559-25.47 4.045-33.943-5.286a27.914 27.914 0 0 0 3.272 2.152c8.64 5.145 19.732 5.592 29.058.208C68.42 53.968 73.639 42.341 72.03 31.077ZM31.713 72.2c-12.223-2.743-21.36-13.662-21.36-26.71 0-13.118 9.232-24.08 21.55-26.753a27.844 27.844 0 0 0-3.5 1.757c-8.775 4.91-14.71 14.293-14.71 25.06 0 12.073 7.46 22.407 18.02 26.646" style="fill:#fff500;fill-opacity:1;fill-rule:evenodd;stroke:none;stroke-width:1.40574"/><path d="M63.743 63.277c-8.487 9.215-22.512 11.668-33.812 5.144-11.36-6.559-16.238-20.036-12.393-32.04a27.863 27.863 0 0 0-.228 3.91c-.135 10.055 5.023 19.885 14.348 25.27 10.455 6.036 23.134 4.742 32.085-2.284zM48.287 7.8c12.223 2.742 21.36 13.661 21.36 26.71 0 13.117-9.232 24.08-21.55 26.752a27.929 27.929 0 0 0 3.5-1.757c8.775-4.91 14.71-14.293 14.71-25.061 0-12.073-7.461-22.406-18.02-26.644ZM7.97 48.924C4.233 36.967 9.121 23.594 20.422 17.07c11.359-6.559 25.47-4.045 33.942 5.286a27.969 27.969 0 0 0-3.271-2.152c-8.64-5.144-19.733-5.592-29.058-.209C11.58 26.032 6.361 37.66 7.97 48.924" style="fill:#fff;fill-opacity:1;fill-rule:evenodd;stroke:none;stroke-width:1.40574"/></svg>