<svg xmlns="http://www.w3.org/2000/svg" width="80" height="80"><path d="M30.587 79.34c-8.991-2.73-17.292-8.29-22.94-15.818-8.3-11.092-10.057-26.6-4.22-39.189C9.872 9.346 25.974-1.194 42.45.11c9.611.49 18.84 4.724 25.561 11.573 6.28 5.985 10.923 13.933 11.657 22.688 1.275 10.494-1.075 21.62-7.8 29.971-7.462 10.083-19.955 16.027-32.495 15.641-2.931-.026-5.907-.029-8.786-.642zm5.662-12.078c-7.533-3.654-13.643-12.013-11.763-20.65 1.205-5.517 5.485-10.297 10.71-12.324 3.133-1.65 5.882 5.35 7.549 2.979-.582-4.928-7.237-7.135-11.262-4.745-6.569 3.529-12.539 10.265-11.951 18.153.391 9.272 7.443 18.833 17.13 19.662 1.817.058 3.636-.022 5.454-.027l-5.867-3.048zm23.727-5.567c3.572-2.51 6.59-6.144 7.87-10.345-1.445-1.379-4.78 3.802-6.881 4.65-5.36 4.296-13.094 5.608-19.301 2.354-5.337-2.581-10.384-8.372-9.108-14.647.136-3.559 4.997-3.904 5.787-5.903-3.458-3.319-8.531 1.695-9.096 5.406-1.28 8.023 3.933 16.547 11.392 19.606 6.16 2.102 13.551 2.067 19.337-1.121zm-.172-11.948c7.875-6.29 9.832-18.855 4.354-27.279-.999-1.77-6.479-7.006-4.254-1.946 2.892 5.921 4.19 13.075 1.248 19.242-3.172 6.974-11.477 12.145-19.177 10.049-4.91-.643-3.246-6.926-5.519-8.872-2.681 3.315-.915 9.131 2.771 11.106 4.099 2.666 9.35 1.625 13.861.843 2.409-.613 4.733-1.636 6.716-3.143zM13.03 42.92c1.615-8.454 9.246-15.996 18.04-16.408 5.103.297 10.332 2.902 13.157 7.228 2.755 3.369-1.653 6.348-1.73 9.032 4.169-.81 6.539-5.99 4.728-9.804-3.11-7.088-11.323-11.424-18.948-10.792-7.328.827-13.641 6.174-16.882 12.605-1.508 3.844-1.747 8.226-.861 12.235 1.462 2.459 2.322-3.235 2.496-4.096zm36.974 1.155c4.189-4.514 5.772-11.253 4.704-17.244C51.795 14.318 35.09 7.133 24.262 14.53c-3.969 2.8 4.964.728 6.792.958 7.736.002 16.684 3.993 18.806 12.031 1.587 5.41 1.06 12.47-3.835 16.027-1.625.747-9.16-1.39-6.005 1.974 3.236 1.631 7.37 1.1 9.983-1.445z"/></svg>