<svg xmlns="http://www.w3.org/2000/svg" width="64pt" height="64pt" viewBox="0 0 64 64"><path d="M29.34 63.91c-1.29-.137-3.281-.414-3.363-.465-.047-.027-.352-.101-.684-.16a14.792 14.792 0 0 1-1.113-.25c-1.54-.43-2.41-.695-2.688-.82a2.878 2.878 0 0 0-.508-.172c-.328-.059-.355-.484-.097-1.531.422-1.692.523-1.477-1.582-3.36a334.288 334.288 0 0 1-2.399-2.16c-1.015-.933-1.91-1.71-2.152-1.87-.25-.165-.106-.192-3.024.507-.52.121-.683.351-.808 1.105-.117.743-.09.684-.383.774-.18.054-.434-.156-1.469-1.23-.691-.715-1.254-1.337-1.254-1.38 0-.043.137-.253.305-.46.191-.243.344-.598.414-.97.059-.32.18-.82.262-1.109.086-.289.156-.726.156-.976 0-.43-.039-.488-.644-1.024-.356-.312-.926-.82-1.27-1.132-.344-.313-.965-.868-1.383-1.235-.418-.37-.812-.719-.875-.781-.847-.82-2.289-2.012-2.492-2.063-.363-.093-.422-.226-1.234-2.925-.137-.446-.465-1.926-.465-2.086 0-.242.488.027 1.437.8.59.481 1.13.876 1.196.876.12 0 1.152-.27 2.425-.63 1.278-.363 2.223-.624 2.735-.761.285-.074.656-.184.828-.238.168-.059.656-.207 1.082-.329 1.234-.363 1.34-.414 1.406-.71l.164-.68c.489-1.903.524-2.59.149-2.8-.082-.048-.582-.481-1.114-.962-.527-.48-1.27-1.152-1.64-1.492a248.98 248.98 0 0 0-1.45-1.297 166.39 166.39 0 0 1-1.359-1.21c-.656-.587-.754-.606-1.676-.372-.343.086-.906.223-1.25.305-.347.078-.753.199-.902.265-.297.137-.535.649-.683 1.485-.153.867-.52 2.504-.614 2.754a5.336 5.336 0 0 0-.164.8c-.043.309-.117.641-.164.735-.05.09-.14.508-.207.926-.062.418-.14.796-.172.847-.027.047-.14-.047-.246-.215-.437-.691-.508-6.23-.105-8.46.168-.919.191-.97.504-1.098.257-.11.347-.23.44-.582.063-.246.153-.563.204-.703.05-.141.117-.442.152-.668.036-.227.118-.637.184-.907.105-.433.098-.543-.07-.847-.211-.39-.18-.992.082-1.61.082-.191.254-.625.383-.964.226-.61.44-1.102 1.054-2.422.324-.696 1.5-2.793 1.89-3.368.126-.183.255-.3.29-.265.101.101.074.71-.05 1.027-.063.16-.204.707-.313 1.215-.32 1.48-.582 2.64-1.059 4.688-.258 1.09-.223 1.375.188 1.687.19.145.414.324.492.398.074.07.492.418.926.774.867.707 1.16.781 1.917.496.211-.078.758-.246 1.215-.367 1.059-.29 2.106-.586 2.89-.82.34-.106 1.169-.34 1.845-.528.672-.187 1.312-.41 1.422-.5.187-.152.28-.5.722-2.695.137-.676.098-.754-.836-1.574-.316-.278-.781-.7-1.039-.934a195.539 195.539 0 0 0-1.96-1.758c-.821-.734-1.696-1.52-1.942-1.746a5.615 5.615 0 0 0-.61-.508c-.16-.086-1.582.192-2.609.516-.57.18-.824.184-.824.016 0-.301 2.969-3.95 3.36-4.125.058-.028.273.007.48.078.398.136.566.105 2.558-.461.426-.121 1.008-.285 1.29-.367 1.492-.415 2.03-.567 2.738-.77a175.51 175.51 0 0 1 1.37-.383c.704-.187.782-.297 1.044-1.52.097-.452.226-1.007.285-1.234.191-.71.148-.925-.274-1.347l-.394-.391.289-.227c.242-.19 1.184-.593 3.148-1.34.934-.35 1.063-.296.97.419l-.055.414 1.027.804c.566.442 1.133.918 1.265 1.055.278.297.891.34 1.516.106.211-.083.852-.27 1.418-.422.57-.153 1.242-.34 1.5-.418.254-.078.79-.23 1.184-.34.398-.113 1.05-.293 1.445-.406.398-.114.867-.235 1.039-.27.172-.035.457-.152.629-.258.266-.16.328-.277.387-.703.035-.281.152-.762.257-1.066L34.418 0l.559.012c1.789.031 5.918.949 8.296 1.84.399.148.887.32 1.086.375.34.101.618.336.618.523 0 .047-.114.14-.254.203-.157.07-.32.29-.426.559-.16.422-.16.453.031.699.113.14.402.43.649.648.242.215.726.66 1.074.985.344.328.687.593.765.593.075 0 .364-.074.645-.164l.508-.168.215-.734c.324-1.09.332-1.09 1.289-.46.453.296.855.589.902.648.102.136.008.82-.25 1.832-.113.437-.176.89-.14 1.004.035.113.35.425.703.695.351.27.71.558.796.644.215.211.922.746 1.16.883.157.09.45.04 1.348-.226 1.508-.446 1.59-.446 2.09.09.984 1.046 1.41 1.726 1.078 1.726-.055 0-.355.094-.672.215-.468.172-.61.285-.777.613-.266.52-.258.613.082.977.613.656 2.121 1.957 2.332 2.011.277.07.98-.168 1.258-.425.215-.2.219-.2.433.03.243.263 1.164 1.954 1.61 2.966.164.367.36.808.433.976.38.844.743 1.875 1.184 3.348.129.426.3.992.379 1.258.191.62.07.87-.461.96-.211.036-.59.13-.84.212-.254.078-.531.144-.621.144-.09.004-.332.051-.543.11-.332.09-.406.171-.582.64-.11.297-.23.746-.27 1.004-.042.254-.136.695-.21.977-.079.285-.235.957-.352 1.492-.516 2.398-.625 2.87-.793 3.46-.309 1.095-.29 1.134 1.05 2.25.66.552 1.313 1.044 1.454 1.098.258.098.898-.027 2.027-.39.84-.274.883-.07.446 2.133-.34 1.703-.875 3.504-1.063 3.574-.176.066-.316-.028-1.164-.793-.41-.367-.84-.707-.957-.75-.129-.047-.473-.008-.844.09a24.71 24.71 0 0 1-1.347.312c-.829.168-1.336.43-1.375.715-.016.11-.094.453-.176.766-.078.312-.239.996-.356 1.52l-.425 1.905c-.122.524-.31 1.372-.422 1.88a58.765 58.765 0 0 1-.34 1.456c-.098.391-.102.586-.02.739.063.113.563.562 1.11.996.55.433 1.027.86 1.058.945.07.172 0 .285-.66 1.078-.469.559-2.73 2.84-3.437 3.465-.59.523-3.082 2.395-3.188 2.395-.207 0-.207-.375.012-1.258.156-.64.195-.965.12-1.04-.097-.097-1.394.259-2.023.555a5.02 5.02 0 0 1-.52.192c-.843.265-1.753.633-1.886.762-.082.082-.172.351-.199.601-.05.445-.04.465.566 1.024 1.016.937 1.016.925-.113 1.476-.531.258-1.07.469-1.2.469-.23 0-.5-.2-1.448-1.074-1.332-1.22-1.582-1.344-2.188-1.098-.133.055-.719.2-1.308.328-.59.129-1.164.309-1.282.402-.203.164-.308.532-.707 2.47-.25 1.218-.293 1.25-1.82 1.394-.918.086-.95.035-.7-1.032.227-.96.16-1.222-.288-1.128-.18.035-.532.156-.778.261-.25.11-.5.196-.554.196-.055 0-.246.066-.426.148-.176.082-.695.273-1.149.426-.992.332-1.007.344-1.28.926-.243.511-.196.5-1.61.351zm-.672-3.387c.426-.125 1.008-.289 1.289-.37.285-.079.75-.215 1.035-.298.281-.082.934-.265 1.445-.41.508-.144 1.254-.36 1.649-.48.398-.121.848-.242 1-.27.441-.09.687-.445.848-1.222.082-.395.218-1.051.312-1.457.09-.407.129-.825.086-.934-.043-.105-.355-.441-.695-.742-.34-.3-.989-.88-1.438-1.281a114.58 114.58 0 0 0-1.558-1.387 557.015 557.015 0 0 0-2.594-2.309c-.238-.21-.45-.191-1.895.172-1.28.32-1.78.52-1.867.73-.043.114-.203.786-.351 1.493a52.41 52.41 0 0 1-.407 1.804c-.074.282-.187.77-.25 1.083-.062.308-.21.984-.332 1.492-.351 1.472-.48 2.273-.398 2.484.039.106.508.55 1.039.984.531.434 1.082.887 1.223 1.004.312.262.714.243 1.859-.086zm15.719-5.207c.523-.148 1.09-.32 1.261-.379.172-.058.543-.167.825-.242.285-.078.867-.238 1.293-.36l1.445-.41c.367-.105.926-.26 1.238-.35.309-.09.617-.231.68-.317.062-.086.191-.516.289-.957.094-.438.242-1.035.324-1.324.215-.743.192-1.102-.082-1.34a336.208 336.208 0 0 1-3.277-2.922c-.176-.227-2.871-2.555-3.02-2.61-.175-.062-.82.047-1.984.344l-.899.223c-.21.047-.449.152-.527.23-.078.082-.246.602-.375 1.157-.129.558-.293 1.293-.371 1.632-.426 1.848-.566 2.461-.773 3.399-.125.566-.293 1.3-.371 1.633-.18.75-.176.757 1.417 2.03 1.348 1.071 1.22 1.048 2.907.563zm-21.66-.476c.12-.117.246-.457.324-.887.066-.387.172-.91.234-1.164.254-1.05.43-1.918.43-2.137 0-.199-.059-.23-.371-.23-.207 0-.496.066-.649.148-.148.082-.691.29-1.203.461-2.277.762-2.426.86-2.426 1.57 0 .372.067.465.801 1.157 1.063.996 1.492 1.36 1.68 1.418.238.078.957-.125 1.18-.336zm15.308-3.867c.07-.098.153-.344.184-.543.035-.203.129-.696.21-1.09.286-1.363.477-2.266.532-2.5.047-.211.016-.23-.356-.23-.222 0-.44.035-.484.074-.082.082-1.234.492-1.8.64-.192.051-.4.145-.462.203a.398.398 0 0 1-.25.114c-.078 0-.367.093-.644.214-.375.16-.531.293-.613.532-.22.629-.16.734.98 1.793.602.558 1.188 1.066 1.305 1.129.277.144 1.207-.079 1.398-.336zm-21.703-1.528c.227-.074.809-.238 1.293-.363.48-.125 1.152-.312 1.496-.418.559-.168 1.082-.316 2.684-.766 1.41-.398 1.758-.52 1.902-.668.09-.09.246-.554.348-1.035.105-.48.254-1.11.336-1.398.242-.856.23-.883-.805-1.8a161.264 161.264 0 0 1-1.473-1.325c-.285-.262-.98-.887-1.547-1.395-.57-.507-1.218-1.093-1.445-1.304a18.366 18.366 0 0 0-.82-.703c-.418-.333-.621-.348-1.297-.106-.14.05-.7.195-1.238.316-.54.122-1.059.262-1.149.31-.11.058-.246.44-.394 1.097-.121.55-.286 1.261-.364 1.57-.144.559-.34 1.43-.78 3.453-.122.567-.27 1.215-.329 1.442-.16.648-.2 1.02-.11 1.136.094.13 2.122 1.774 2.497 2.028.27.183.437.172 1.195-.07zM52.32 45.86c.305-.125.395-.242.528-.656.086-.273.191-.73.23-1.016.035-.28.133-.777.215-1.093.082-.32.187-.864.234-1.211.078-.567.067-.633-.109-.688-.105-.035-.25-.015-.316.043-.07.055-.567.246-1.106.422-.539.18-1.125.39-1.305.473-.18.082-.37.148-.425.148-.309 0-1.075.457-1.211.723-.301.578-.23.703 1.054 1.934 1.328 1.269 1.352 1.277 2.211.921zm-20.402-.308a100.31 100.31 0 0 1 2.738-.793c.426-.121 1.004-.285 1.29-.371 1.152-.34 2.35-.66 2.476-.66.215 0 .644-.395.7-.645.237-1.027.589-2.734.589-2.871.004-.145-.195-.36-1.023-1.129-.094-.086-.844-.754-1.665-1.484-.82-.73-1.933-1.73-2.472-2.22-1.38-1.257-1.344-1.245-2.559-.956-1.824.43-2.078.496-2.176.601-.132.137-.527 1.278-.527 1.524 0 .11-.094.598-.207 1.086-.117.488-.305 1.332-.422 1.867-.12.54-.281 1.234-.355 1.547-.496 1.996-.567 2.383-.465 2.57.113.211 2.437 2.102 2.683 2.184.18.062.688-.031 1.395-.25zm-21.531-.465c.316-.234.449-.582.675-1.773.38-1.973.489-2.692.426-2.754-.101-.102-1.675.37-2.5.75-.18.082-.375.148-.437.148-.063 0-.41.121-.77.266-.586.23-.68.308-.824.675-.207.528-.125.739.512 1.32.277.25.797.731 1.152 1.071.621.582.668.606 1.074.555.235-.032.547-.149.692-.258zm37.222-4.758a66.886 66.886 0 0 1 1.446-.414c.398-.105 1.304-.363 2.011-.57a98.04 98.04 0 0 1 1.86-.524c.312-.082.808-.246 1.105-.363.489-.191.547-.25.606-.59.031-.203.125-.582.203-.836.23-.773.398-2.004.297-2.183-.051-.094-.399-.434-.766-.758a88.334 88.334 0 0 1-1.137-1.02 48.909 48.909 0 0 0-1.03-.93c-.313-.273-.985-.882-1.497-1.347a41.681 41.681 0 0 0-1.516-1.328l-.582-.48-1.12.265c-1.778.422-2.192.566-2.325.813-.121.222-.375 1.312-.652 2.777-.082.445-.172.84-.2.883-.023.039-.187.742-.363 1.562-.18.817-.39 1.746-.472 2.059-.278 1.054-.254 1.117.699 1.875.469.37 1.031.828 1.254 1.02.625.538.664.542 2.18.09zm-22.164-.195c.098-.051.297-.14.442-.196.281-.109.36-.328.668-1.828.078-.394.215-1.02.3-1.386.192-.828.204-1.309.032-1.368-.07-.023-.5.094-.953.258-.454.168-1.286.465-1.848.66-.563.196-1.11.399-1.215.457-.18.098-.601.801-.601 1.008 0 .094.957 1.051 2.058 2.063.457.418.766.511 1.117.332zm15.696-4.004c.285-.207.312-.297.632-1.879.11-.54.247-1.164.305-1.39.223-.86.098-1.575-.226-1.31-.07.055-.29.15-.489.208-.586.172-2.5.847-2.851 1.004-.18.082-.38.148-.442.148-.172 0-.523.63-.523.942 0 .21.258.52 1.21 1.421l1.216 1.149.449-.043c.246-.027.57-.137.719-.25zm-20.828-1.863c.195-.059.68-.203 1.078-.317.675-.195 1.082-.308 2.968-.836.41-.117.957-.273 1.211-.347.258-.078.66-.196.899-.258.492-.133.855-.528.86-.926 0-.148.093-.61.202-1.027.114-.414.235-.977.27-1.242.062-.477.054-.497-.395-.891-1.566-1.387-4.277-3.817-4.363-3.91-.438-.477-1.715-1.492-1.871-1.492-.277 0-1.692.304-1.887.406-.09.047-.39.117-.664.156-.82.117-.933.352-1.406 2.84-.063.308-.176.82-.258 1.133-.086.308-.25 1.004-.367 1.543-.121.539-.309 1.363-.418 1.832-.32 1.363-.3 1.468.394 2.05.325.274.618.52.645.547.324.336 1.195.961 1.414 1.02.27.07.91-.035 1.688-.281zm35.632-3.63c.157-.167.285-.402.285-.523 0-.21.23-1.343.575-2.797.093-.386.14-.808.105-.941-.058-.238-.074-.238-.5-.102a25.3 25.3 0 0 0-1.16.407c-.398.148-.91.332-1.137.41-.742.254-1.32.473-1.508.574-.234.125-.417.762-.304 1.059.047.125.605.703 1.242 1.289l1.16 1.062.48-.066c.344-.047.555-.149.762-.371zm-20.98-.027c.312-.086.914-.254 1.34-.375.425-.12 1.078-.304 1.445-.41 1.98-.55 2.992-.84 3.406-.98.258-.086.543-.157.637-.157.426 0 .605-.335.918-1.73.312-1.39.363-1.844.227-2.031-.043-.059-.727-.684-1.52-1.387-.797-.707-1.5-1.332-1.563-1.39-.062-.06-.457-.41-.875-.786a616.051 616.051 0 0 1-1.59-1.422c-.82-.734-.828-.742-1.288-.68-.258.036-.7.126-.98.204-.286.078-.806.2-1.157.265-.817.157-1.02.372-1.211 1.29-.082.39-.25 1.156-.371 1.69a252.825 252.825 0 0 0-.774 3.505 8.04 8.04 0 0 1-.234.926c-.148.386-.25 1.214-.18 1.437.035.106.399.465.805.79.41.327.77.628.797.671.031.04.262.238.516.441.511.403.628.415 1.652.13zm-21.246-.468c.27-.102.414-.567.804-2.586.063-.313.176-.848.25-1.188.207-.918.118-.969-1.03-.578-3.388 1.152-3.552 1.242-3.552 1.969 0 .336.094.457 1.02 1.324.562.523 1.105 1.023 1.215 1.105.203.16.8.141 1.293-.046zm36.937-4.75c.367-.106 1.04-.293 1.496-.418a108.44 108.44 0 0 0 1.496-.426c.368-.11.903-.266 1.188-.344a256.12 256.12 0 0 1 2.398-.664c.536-.14.711-.43.961-1.598.098-.453.235-1.097.309-1.425.125-.582.125-.61-.117-.828-.137-.13-.922-.829-1.746-1.555-.82-.73-1.52-1.356-1.547-1.387a53.62 53.62 0 0 0-1.032-.933c-.539-.485-1.19-1.075-1.445-1.313-.418-.395-.676-.512-.98-.441-1.477.336-3 .738-3.07.808-.09.09-.239.664-.54 2.078-.215 1.008-.539 2.457-.675 3.04-.34 1.417-.52 2.214-.625 2.765-.114.59-.11.605.175.914.164.172.778.7 1.368 1.168 1.19.953 1.078.926 2.386.559zm-21.383-.489c.149-.113.301-.336.336-.5.04-.164.141-.625.23-1.02.09-.398.192-.905.227-1.132.036-.227.133-.664.22-.969.081-.304.124-.66.093-.785l-.059-.23-1.058.351c-.582.195-1.203.422-1.383.504-.18.082-.375.149-.438.149-.058 0-.261.066-.445.148-.187.078-.496.203-.687.273-.403.149-.688.688-.586 1.098.035.137.422.59.859 1 1.594 1.492 1.469 1.406 1.969 1.36.246-.024.574-.137.722-.247zm15.2-3.742c.222-.117.332-.445.605-1.797.125-.62.313-1.468.414-1.875.153-.617.16-.765.043-.86-.14-.116-.719-.046-.918.114-.11.082-.664.285-2.273.824-1.094.368-1.39.633-1.39 1.243 0 .433.144.597 1.843 2.093.539.473.574.489 1.035.418.262-.039.55-.11.64-.16zm-21.278-1.785c.313-.086 1.235-.344 2.047-.57a88.64 88.64 0 0 0 1.805-.516c.183-.055.668-.2 1.078-.312 1.633-.454 2.184-.637 2.273-.754.13-.172.438-1.184.442-1.45 0-.12.09-.562.203-.976.133-.508.172-.817.105-.938-.05-.093-.457-.492-.898-.882a21.865 21.865 0 0 1-.91-.82c-.059-.063-.942-.856-1.961-1.762-1.024-.907-2.024-1.801-2.219-1.985-.488-.45-.683-.48-1.566-.242a30.24 30.24 0 0 1-1.328.324c-.762.153-1.196.426-1.262.793-.031.164-.156.735-.281 1.274a201.729 201.729 0 0 0-.735 3.296 29.34 29.34 0 0 1-.258 1.079c-.078.285-.19.812-.253 1.171-.063.36-.157.766-.207.907-.086.222-.047.308.289.64.21.215.828.746 1.367 1.184 1.09.887 1.066.883 2.27.539zm15.153-3.773c.918-.274 1.656-.485 3.972-1.133 1.395-.39 2.192-.625 2.762-.813l.566-.183.18-.66c.102-.364.223-.891.274-1.172.046-.286.152-.743.226-1.016l.14-.496-.616-.582c-.524-.496-1.235-1.14-3.961-3.567a90.332 90.332 0 0 1-1.703-1.546c-.336-.329-1.047-.239-3.106.39l-.723.223-.14.516c-.074.28-.219.886-.317 1.34-.101.452-.332 1.495-.511 2.316-.18.82-.395 1.75-.477 2.058-.238.938-.465 2-.465 2.18 0 .098.336.453.746.793 2.168 1.8 1.961 1.71 3.153 1.352zm-21.52-.399c.508-.219.606-.402.777-1.453.051-.313.145-.773.207-1.027.313-1.274.442-1.989.387-2.133-.07-.184-.258-.156-1.094.168-.312.117-.984.36-1.496.535-1.62.55-1.87.695-2.007 1.145-.067.218-.094.48-.059.582.062.195 2 2.035 2.367 2.246.293.171.383.164.918-.063zM32.86 9.61c.086-.164.223-.68.301-1.144.078-.465.238-1.281.352-1.82.117-.54.21-1.036.215-1.102 0-.207-.391-.258-.747-.094-.187.086-.546.227-.804.317-2.805.96-2.824.972-3.043 1.39-.274.532-.203.68.8 1.64 1.528 1.47 1.587 1.5 2.325 1.263.304-.102.492-.243.601-.45zm0 0"/></svg>