<svg xmlns="http://www.w3.org/2000/svg" width="80" height="80"><path d="M31.557 79.111C19.428 76.492 9.169 68.282 3.807 56.904-7.172 33.606 6.625 6.181 31.974.915c5.873-1.22 10.148-1.22 16.02 0 21.673 4.502 35.682 25.77 31.156 47.301-4.525 21.53-26.101 35.536-47.593 30.895zm11.492-12.955c-.772-.838-2.225-2.69-3.23-4.113l-1.824-2.589-1.628 1.982c-.895 1.09-2.678 2.833-3.962 3.875-2.297 1.864-2.315 1.91-1.15 2.973.65.593 2.024 2.4 3.053 4.017l1.87 2.938 4.138-3.78 4.137-3.778-1.404-1.525zm18.694-2.283c.006-2.255.193-4.812.416-5.683.397-1.553.333-1.591-3.352-1.983-2.066-.219-4.434-.55-5.263-.733l-1.507-.335-.05 5.506-.049 5.505 1.858.049c1.021.027 3.078.401 4.57.832 1.491.43 2.859.818 3.04.862.18.043.332-1.766.337-4.02zM24.631 60.15c.008-1.544.25-3.832.539-5.085l.525-2.277H14.536l-.35 3.796c-.192 2.087-.513 4.342-.713 5.01-.344 1.152-.066 1.219 5.39 1.29l5.753.073.015-2.807zm22.786-1.744c-.244-5.05-1.853-9.262-4.491-11.76l-1.374-1.3-.41 1.65c-.646 2.593.146 8.061 1.57 10.844 1.425 2.78 3.49 5.272 4.372 5.272.318 0 .462-2.04.333-4.706zm-13.47-.996c1.777-2.347 2.991-5.64 3.596-9.753l.442-3.006-2.014 1.551c-4.517 3.48-7.125 8.401-7.133 13.46l-.003 2.318 1.81-1.298c.995-.714 2.48-2.186 3.302-3.272zm26.83-6.383c0-.3-1.468-1.898-3.26-3.549-3.191-2.939-8.033-5.015-11.696-5.015-1.637 0-1.637.22-.003 2.447 1.626 2.217 5.12 4.698 8.147 5.786 2.618.941 6.811 1.145 6.811.33zm7.747-3.015c1.208-.956 3.097-2.203 4.198-2.77l2.001-1.033-2.642-2.543c-1.454-1.4-3.207-3.353-3.896-4.343l-1.253-1.8-2.372 2.16c-1.304 1.187-3.18 2.64-4.168 3.228l-1.798 1.07 3.652 3.813c2.01 2.097 3.75 3.845 3.867 3.885.118.04 1.203-.71 2.41-1.667zm-39.267-1.516c1.59-.816 3.525-2.167 4.298-3.003l1.406-1.519-1.913-.423c-4.13-.915-10.47 1.092-14.008 4.434-1.237 1.169-1.467 1.7-.904 2.092 1.347.938 8.076-.019 11.12-1.58zm-10.99-10.583c-1.48-1.431-3.13-3.278-3.667-4.104l-.976-1.502-2.302 2.096c-1.267 1.153-3.144 2.534-4.172 3.07l-1.869.974 3.752 4.1 3.752 4.1 4.086-3.066 4.086-3.066-2.69-2.602zM56.06 37.75c1.434-.642 3.522-1.947 4.64-2.9 1.83-1.558 1.92-1.776.904-2.178-3.548-1.405-10.086.199-14.428 3.54-2.864 2.204-2.9 2.27-1.447 2.711 2.304.702 7.45.117 10.331-1.173zm-21.784-1.335c-3.061-4.333-8.546-7.313-13.46-7.313h-2.38l1.497 1.974c3.02 3.98 8.892 6.974 13.915 7.096l1.698.04-1.27-1.797zm4.304-3.213c.326-6.291-.882-10.38-4.273-14.465l-1.732-2.085-.423 2.829c-.675 4.504.46 8.73 3.522 13.114.991 1.42 2.028 2.58 2.303 2.58.275 0 .547-.887.603-1.973zm6.653.14c2.743-2.28 5.207-7.238 5.706-11.484.366-3.11.336-3.2-.857-2.556-3.884 2.095-7.988 9.371-7.988 14.162 0 2.16.41 2.145 3.139-.123zm20.197-9.554c.357-2.255.814-4.51 1.016-5.01.311-.77-.506-.916-5.29-.94l-5.658-.03-.366 3.537c-.202 1.945-.536 4.213-.742 5.04l-.374 1.503h10.765l.649-4.1zm-37.8-2.835c0-2.478.15-4.9.334-5.384.26-.683-.49-.972-3.37-1.3-2.039-.233-4.359-.673-5.156-.979-1.438-.55-1.45-.522-1.45 3.301 0 2.121-.17 4.71-.377 5.755-.369 1.856-.326 1.9 1.958 1.97 1.285.04 3.15.28 4.143.535 3.936 1.01 3.918 1.027 3.918-3.898zM48 12.097c-.622-.835-1.835-2.612-2.696-3.948-.86-1.336-1.644-2.523-1.74-2.638-.098-.115-1.35 1-2.782 2.478-1.433 1.478-3.249 3.124-4.034 3.658l-1.43.97 3.104 4.206 3.103 4.206 3.803-3.707 3.803-3.707L48 12.097z"/></svg>