<svg version="1.1" viewBox="0 0 80 80" xmlns="http://www.w3.org/2000/svg"><path d="m40 0a40 40 0 0 0-40 40 40 40 0 0 0 40 40 40 40 0 0 0 40-40 40 40 0 0 0-40-40zm-2.2859 1.875c0.55546 0 0.71783 0.60474 0.71783 1.2847 0 1.6756 0.02268 1.6737 0.02268 3.3508 0 1.6771 0.07824 1.6751 0.07824 3.3507 0 0.67977-0.21166 1.4816-0.76938 1.4816-0.57451 0.12322-0.62152-0.01134-1.1921-0.01134-0.55549 0-0.79289-0.79063-0.79289-1.4699 0-1.6757-0.03402-1.6736-0.03402-3.3508 0-1.6772-0.12775-1.6751-0.12775-3.3507 0-0.67977 0.39868-1.0415 0.95527-1.0415 0.57005 0 0.56891-0.24303 1.1401-0.24303zm6.4122 2.6332c0.66972 0 0.66858 0.19692 1.3368 0.19692 0.55772 0 0.72906 0.39981 0.72906 0.97768 0 1.5156 0.28347 1.5152 0.28347 3.0326 0 0.57897-0.46811 1.1748-1.0247 1.1748-0.66968-0.05594-0.65513-0.23169-1.3253-0.23169-0.55432 0-0.90262-0.36398-0.90262-0.94295 0-1.5173 0.17916-1.5168 0.17916-3.0324 0-0.57787 0.16895-1.1749 0.72342-1.1749zm-15.724 0.64284c0.55436 0 1.0527 0.56218 1.0527 1.14 0 1.2101 0.20259 1.2106 0.20259 2.4191 0 0.57787-0.65962 0.88584-1.2153 0.88584-0.48156-0.11301-0.5118-0.07824-0.98437-0.07824-0.55436 0-0.97768-0.2264-0.97768-0.80408 0-1.2084-0.23169-1.209-0.23169-2.4191 0-0.57787 0.65513-1.0359 1.2095-1.0359 0.47147 0 0.47034-0.10092 0.94295-0.10092zm25.197 1.0941c1.4682 0 1.4644 0.36511 2.9341 0.36511 0.55432 0 1.2268 0.35944 1.2268 0.93735 0 1.4808-0.0038 1.4823-0.0038 2.963 0 1.4808-0.17916 1.4823-0.17916 2.9631 0 1.4824-0.18482 1.4791-0.18482 2.963 0 1.484 0.35831 1.4865 0.35831 2.9688 0 0.57787-0.66072 1.227-1.2153 1.227-1.4698 0-1.4807-0.39981-2.9457-0.30691-1.4761 0.08958-1.4602 0.4054-2.9284 0.4054-0.55436 0-0.97209-0.74697-0.97209-1.3253 0-1.4807-0.12775-1.4822-0.12775-2.963 0-1.4793-0.05594-1.4806-0.05594-2.963s0.17348-1.4849 0.17348-2.9688c0-1.4824 0.15005-1.4792 0.15005-2.963 0-0.57787 0.27327-1.2732 0.82759-1.2732 1.4682 0 1.4719-0.02268 2.94-0.02268zm-34.868 3.7096c1.8688 0 1.8681 0.4054 3.7386 0.4054 0.76375 0 1.3426 0.1973 1.3426 0.77608 0 1.3114-0.12208 1.3087-0.12208 2.6216 0 0.57787-0.48489 1.3138-1.25 1.3138-1.8656-0.18029-1.8408-0.52076-3.7096-0.52076-0.76379 0-1.198-0.21393-1.198-0.79289 0-1.3129-0.411-1.3102-0.411-2.6216 0-0.57787 0.84551-1.1806 1.6088-1.1806zm11.418 1.8346c1.4682 0 1.4659 0.16252 2.9341 0.16252 0.55436 0 1.2096 0.35151 1.2096 0.93176 0 1.9275-0.11188 1.9269-0.11188 3.8545 0 0.57783-0.5454 1.1806-1.0997 1.1806-1.4682 0-1.4866 0.2162-2.9515 0.13871-1.4745-0.07824-1.4486-0.50953-2.9168-0.50953-0.55546 0-0.8567-0.23169-0.8567-0.81081 0-1.9275-0.4054-1.9269-0.4054-3.8545 0-0.58014 0.70551-0.76938 1.2616-0.76938 1.4682 0 1.4659-0.32354 2.9341-0.32354zm-16.522 2.691c0.37494 0 0.52072 0.52412 0.52072 1.018 0 1.3953 0.25437 1.3926 0.25437 2.7895 0 1.3953-0.04498 1.3957-0.04498 2.7894 0 0.49612-0.41213 0.65403-0.7873 0.65403-0.45579 0.10092-0.39754 0.42222-0.8511 0.42222-0.37759 0-0.60138-0.58123-0.60138-1.0763 0-1.3937-0.30124-1.3941-0.30124-2.7894 0-1.3968 0.41663-1.3942 0.41663-2.7895 0-0.49385 0.11188-0.81077 0.48602-0.81077 0.45242 0 0.45019-0.20826 0.90262-0.20826zm27.304 0.79289c1.2463 0 1.2493 0.25437 2.4942 0.25437 1.2449 0 1.2421-0.08958 2.4885-0.08958 0.44233 0 0.89702 0.45356 0.89702 1.0303 0 1.929-0.31258 1.9269-0.31258 3.8545 0 0.57787-0.14212 0.98437-0.58456 0.98437-1.2433 0-1.2437 0.06728-2.4885 0.06728-1.2448 0-1.2379-0.04498-2.4827-0.12208-1.2496-0.06728-1.2537-0.08958-2.5-0.08958-0.44014 0-0.94858-0.2555-0.94858-0.83318 0-1.9275 0.08958-1.9253 0.08958-3.8545 0-0.57677 0.41659-0.89706 0.8567-0.89706 1.2432 0 1.2437-0.30124 2.4885-0.30124zm25.232 0.01134c0.96422 0 0.96086 0.01134 1.9271 0.01134 0.55546 0 0.98996 0.28347 0.98996 0.86229 0 1.6186 0.11188 1.6149 0.11188 3.235 0 0.57787-0.53754 1.0706-1.0941 1.0706-0.96423 0.08958-0.96872 0.11528-1.9329 0.11528-0.55432 0-1.2442-0.60811-1.2442-1.1863 0-1.6203 0.15572-1.6165 0.15572-3.2351 0-0.5801 0.53422-0.87351 1.0874-0.87351zm-42.173 2.8125c0.57787 0 0.94295 0.58233 0.94295 1.0706 0 1.2781 0.30691 1.2799 0.30691 2.5581 0 0.48602-0.67191 0.68313-1.25 0.68313-1.9242 0-1.9242 0.06728-3.8484 0.06728-0.57787 0-0.82204-0.24757-0.82204-0.73465 0.07824-1.2766-0.11528-1.2915-0.11528-2.5696 0-0.48829 0.35944-1.0415 0.93735-1.0415 1.9242 0 1.9242-0.02268 3.8484-0.02268zm8.3916 1.9446c0.66972 0 0.66858 0.11528 1.3368 0.11528 0.55772 0 0.92057 0.50507 0.92057 1.0012 0 1.3937 0.35264 1.394 0.35264 2.7894 0 1.3953-0.22602 1.3942-0.22602 2.7895 0 0.49612-0.48043 1.1402-1.0359 1.1402-0.66972 0.02268-0.67867-0.1973-1.3485-0.1973-0.5555 0-1.0012-0.44796-1.0012-0.94295 0-1.3953 0.03402-1.394 0.03402-2.7893 0-1.3954 0.15572-1.3958 0.15572-2.7895 0-0.49612 0.25437-1.1165 0.81081-1.1165zm30.174 1.5336c1.4254 0 1.4278 0.49721 2.8532 0.49721 1.4254 0 1.4219-0.0446 2.8473-0.0446 0.55436 0 1.0303 0.27214 1.0303 0.85114 0 1.7215-0.01134 1.716-0.01134 3.4375 0 0.5801-0.45802 1.0012-1.0124 1.0012-1.4223 0-1.4177-0.15572-2.8415-0.15572-1.4223 0-1.4251 0.48043-2.8474 0.48043-1.427 0-1.4278-0.56442-2.8531-0.54986-1.4253 0.01134-1.4218 0.31787-2.8472 0.31787-0.55432 0-0.78726-0.51403-0.78726-1.0941 0-1.7215-0.49166-1.716-0.49166-3.4375 0-0.57787 0.7246-0.97768 1.279-0.97768 1.4222 0 1.4178-0.14438 2.8415-0.14438 1.4222 0 1.425-0.17916 2.8473-0.17916zm-55.81 1.4873c0.68763 0 1.1748 0.43674 1.1748 1.1401 0 1.3208 0.28347 1.3181 0.28347 2.6389 0 1.3225-0.022678 1.3266-0.022678 2.6506 0 1.3225-0.4401 1.3208-0.4401 2.6447 0 0.70328-0.31484 1.4237-1.0012 1.4237-0.82986-0.10092-0.81527-0.33601-1.6437-0.33601-0.68763 0-1.4989-0.38522-1.4989-1.0874 0-1.3208 0.48043-1.3223 0.48043-2.6448 0-1.3223-0.4401-1.3207-0.4401-2.6447 0-1.3225 0.12775-1.3224 0.12775-2.6447 0-0.70332 0.64394-1.0012 1.331-1.0012 0.82869 0 0.82536-0.13871 1.6552-0.13871zm39.395 0.48602c1.4207 0 1.4209 0.49166 2.8416 0.49166 1.4206 0 1.4224-0.33034 2.8415-0.33034 0.6193 0 1.1401 0.39195 1.1401 0.72906 0 1.1309-0.05594 1.1337-0.05594 2.2628 0 0.33941-0.46252 0.37645-1.0818 0.37645-1.4176 0-1.4184 0.28876-2.8358 0.28876-1.4206 0-1.4299-0.1939-2.8474-0.10092-1.4285 0.08958-1.4151 0.33034-2.8357 0.33034-0.6193 0-0.85669-0.55769-0.85669-0.89702 0-1.1292-0.49166-1.132-0.49166-2.2628 0-0.33714 0.72906-0.37078 1.3485-0.37078 1.419 0 1.4182-0.52076 2.8357-0.52076zm-33.977 0.87351c1.4586 0 1.4597 0.20826 2.9168 0.20826 0.55546 0 1.0124 0.50508 1.0124 1.2037 0 2.3329 0.20826 2.3317 0.20826 4.6645 0 0.69992-0.66522 1.3948-1.221 1.3948-1.4571 0.03402-1.4582-0.07824-2.9169-0.07824-0.55546 0-0.822-0.6137-0.822-1.3137 0-2.3329-0.18482-2.3316-0.18482-4.6645 0-0.69878 0.45133-1.4121 1.0068-1.4121zm14.636 1.36c0.77611 0 1.2037 0.08958 1.2037 0.35264 0 1.2115 0.0038 1.2101 0.0038 2.4248 0 0.2642-0.43228 0.42778-1.2096 0.42778-1.7612-0.08958-1.7617-0.07824-3.5244-0.07824-0.77611 0-1.2095-0.08958-1.2095-0.35264 0-1.2146-0.13871-1.2132-0.13871-2.4248 0-0.2642 0.57224-0.2487 1.3485-0.2487 1.7626 0 1.7631-0.10092 3.5244-0.10092zm39.683 3.4723c1.2733 0 1.273 0.21393 2.5464 0.21393 1.2733 0 1.2698-0.20259 2.5463-0.20259 1.2749 0 1.2773 0.17348 2.5521 0.17348 0.55436 0 1.0594 0.18142 1.0594 0.69995 0 1.7278-0.06728 1.727-0.06728 3.4549 0 0.5174-0.43564 0.87351-0.98996 0.87351-1.2734 0-1.2731 0.32354-2.5464 0.32354-1.2749 0-1.2672-0.38076-2.5406-0.44573-1.278-0.06728-1.2831-0.01134-2.558-0.01134v0.0038c-0.55546 0-1.198-0.22867-1.198-0.74697 0-1.7279 0.15572-1.7271 0.15572-3.4549 0-0.51966 0.48602-0.88587 1.0415-0.88587zm-24.862 0.27213c1.7358 0 1.7324 0.01134 3.4665 0.01134 1.7358 0 1.7381 0.14438 3.4724 0.14438 0.55772 0 0.88584 0.54427 0.88584 1.1227 0 0.59242-0.01134 0.59242-0.01134 1.1864 0 0.57787-0.31598 1.111-0.87351 1.111-1.731 0-1.7281-0.34168-3.4608-0.34168-1.7357 0-1.7422 0.39977-3.478 0.34697-1.7374-0.05594-1.7307-0.23169-3.4665-0.23169v0.0038c-0.55436 0-1.2385-0.31371-1.2385-0.89143 0-0.59356 0.14438-0.59356 0.14438-1.1863 0-0.57787 0.53977-0.87351 1.0941-0.87351 1.7327 0 1.7339-0.4054 3.4666-0.4054zm-12.257 1.6146c1.2369 0 1.2358 0.38749 2.4711 0.38749 0.53981 0 1.1459 0.16895 1.1459 0.6193 0 1.2718-0.35831 1.2746-0.35831 2.5463 0 1.2733-0.03402 1.2731-0.03402 2.5464 0 1.2749 0.13342 1.273 0.13342 2.5464 0 1.2765 0.13871 1.2788 0.13871 2.5521 0 0.45133-0.4838 1.0247-1.0247 1.0247-1.2337 0-1.2316-0.4054-2.4654-0.4054-1.2369 0-1.2358 0.23169-2.4712 0.26646-1.2369 0.03402-1.2358 0.02268-2.4711 0.02268h-0.0038c-0.53977 0-0.90262-0.46252-0.90262-0.9138 0-1.2718-0.17916-1.2747-0.17916-2.5464 0-1.2733 0.08958-1.2689 0.08958-2.5406 0-1.2765 0.1973-1.2787 0.1973-2.5521 0-1.2765-0.38749-1.2788-0.38749-2.5521 0-0.45019 0.64057-0.73465 1.1806-0.73465 1.2338 0 1.2375 0.10092 2.4711 0.10092 1.2369 0 1.2358-0.37078 2.4712-0.37078zm29.121 0.05594c1.2702 0 1.2704 0.20259 2.5406 0.20259 0.74584 0 1.4584 0.56328 1.4584 1.3426 0 1.0504-0.02268 1.0504-0.02268 2.1008 0 1.0504-0.16782 1.0493-0.16782 2.1007 0 1.0516 0.0446 1.0549 0.0446 2.1065 0 0.78057-0.56218 1.4353-1.3079 1.4353-1.2669 0-1.2646 0.0038-2.5348 0.0038-1.2701 0-1.2704-0.07824-2.5406-0.05594-1.2702 0.01134-1.2704 0.07824-2.5406 0.07824-0.74588 0-1.2963-0.68313-1.2963-1.4642 0-1.0482-0.2778-1.0504-0.2778-2.1007 0-1.0516 0.44573-1.0493 0.44573-2.1008 0-1.0516-0.11528-1.0549-0.11528-2.1065 0-0.77944 0.49835-1.5394 1.2442-1.5394 1.2686 0 1.2663 0.34697 2.5348 0.34697 1.2702 0 1.2704-0.35264 2.5406-0.35264zm-38.254 2.9399c0.55546 0 1.0762 0.68876 1.0762 1.2674v0.98328c0 0.57787-0.52076 1.3369-1.0762 1.3369-1.3968 0-1.3967-0.35264-2.7953-0.35264-1.3984 0-1.3967 0.11528-2.7951 0.11528-1.4001 0-1.391 0.04498-2.7896 0.11188-1.4047 0.07824-1.4125 0.05594-2.8125 0.05594-0.55432 0-0.89702-0.68986-0.89702-1.2674 0-0.49275-0.044978-0.49275-0.044978-0.98437 0-0.57787 0.38972-0.76379 0.94295-0.76379 1.3968 0 1.3951-0.42219 2.7951-0.42219 1.397 0 1.3969 0.07824 2.7953 0.07824 1.4016 0 1.401 0.30691 2.8011 0.30691 1.4 0 1.4008-0.46921 2.8009-0.46921zm25.88 0.45133c0.46361 0 0.56105 0.80968 0.56105 1.4526 0 1.6962 0.14438 1.6935 0.14438 3.3913 0 1.6962 0.03402 1.6936 0.03402 3.3914 0 0.64167-0.25324 0.93735-0.71783 0.93735-0.72569-0.06728-0.75147 0.11188-1.4757 0.11188-0.46588 0-0.89147-0.40654-0.89147-1.0471 0-1.6978 0.07862-1.6951 0.07862-3.3913 0-1.6977-0.01134-1.7009-0.01134-3.3971 0-0.64284 0.35604-1.3543 0.822-1.3543 0.72346 0 0.72683-0.08958 1.4525-0.08958zm-6.8117 1.0941c0.5555 0 0.80408 0.67308 0.80408 1.2385 0 1.8767 0.06728 1.8733 0.06728 3.7501 0 0.56445-0.29557 0.78171-0.8511 0.78171-1.4571-0.07824-1.4698 0.12775-2.9284 0.12775-0.55436 0-1.1748-0.34508-1.1748-0.90825 0-1.8767-0.03402-1.8735-0.03402-3.7501 0-0.56555 0.65513-0.9138 1.2095-0.9138 1.4586 0 1.454-0.32354 2.9109-0.32354zm32.194 1.5336c1.419 0 1.4167 0.2899 2.8357 0.2899 1.4191 0 1.4241 0.05594 2.8415 0.05594 0.55546 0 0.92613 0.17349 0.92613 0.57337 0 1.335 0.24303 1.3344 0.24303 2.6679 0 0.40091-0.6193 0.60138-1.1748 0.60138-1.4176 0-1.4167 0.20826-2.8358 0.17916-1.419-0.03402-1.4166-0.14438-2.8357-0.14438-0.55432 0-1.0359-0.23623-1.0359-0.63608 0-1.3336 0.24303-1.3328 0.24303-2.6679 0-0.39868 0.2385-0.92057 0.79289-0.92057zm-61.96 2.6217c1.5441 0 1.5447 0.44014 3.0904 0.44014 0.84774 0 1.5858 0.71896 1.5858 1.9387 0 1.4713 0.14438 1.4687 0.14438 2.9398 0 1.2211-0.88357 2.2281-1.7303 2.2281-1.5425 0-1.542 0.07824-3.0846 0.07824-1.5441 0-1.5478 0.02268-3.0904-0.07824-1.5505-0.08958-1.5463-0.30124-3.0904-0.30124-0.84777 0-1.742-0.70555-1.742-1.9271 0-1.4713 0.011339-1.4743 0.011339-2.9457 0-1.2195 0.87688-2.0197 1.7247-2.0197 1.5425 0 1.542-0.26646 3.0845-0.26646 1.5442 0 1.5448-0.08958 3.0905-0.08958zm52.072 2.7432c0.76825 0 0.76489 0.14438 1.5336 0.14438 0.55546 0 0.92616 0.42109 0.92616 1.0012 0 2.0287-0.02268 2.0265-0.02268 4.0567 0 0.57787-0.31258 1.2211-0.86792 1.2211-0.76935 0.14438-0.79958 0.07824-1.5683 0.07824-0.55546 0-1.1459-0.71787-1.1459-1.2963 0-2.0305-0.06728-2.0281-0.06728-4.0567 0-0.5801 0.65403-1.1459 1.2096-1.1459zm-9.8441 0.21393c1.2369 0 1.24 0.1973 2.4769 0.1973 0.89589 0 1.8809 0.11188 1.8809 0.62489 0 1.8213-0.44014 1.8204-0.44014 3.6401 0 0.51853-0.52186 1.1459-1.4179 1.1459-1.2369 0.13342-1.2631 0.02268-2.5 0.02268-0.89593 0-1.6899-0.65067-1.6899-1.1689 0-1.8197-0.22527-1.8188-0.22527-3.6402 0-0.5174 1.0191-0.82204 1.9156-0.82204zm18.722 1.2847c1.2765 0 1.2773 0.28876 2.5521 0.28876 0.45133 0 0.92616 0.2264 0.92616 0.71783 0 1.0359-0.08958 1.0348-0.08958 2.0719 0 1.037-0.15005 1.0382-0.15005 2.0775 0 1.0393 0.03402 1.0348 0.03402 2.0718 0 0.49052-0.27213 0.72906-0.72346 0.72906-1.275 0-1.2714-0.0076-2.5464-0.05594-1.2764-0.0446-1.283 0.07824-2.558 0.07824-0.45129 0-0.89702-0.2676-0.89702-0.75816 0-1.0359-0.07824-1.0348-0.07824-2.0718s0.22527-1.0381 0.22527-2.0776c0-1.0393-0.22527-1.0348-0.22527-2.0718 0-0.49052 0.52076-0.93176 0.97209-0.93176 1.2749 0 1.2772-0.07824 2.5521-0.07824zm-48.179 0.27214c0.53864 0 1.1401 0.38526 1.1401 0.92057 0 1.4634 0.08958 1.4591 0.08958 2.9225 0 1.4651-0.36511 1.465-0.36511 2.9284 0 0.53641-0.33941 0.82759-0.88024 0.82759-1.7042 0.15686-1.6898 0.34697-3.3971 0.34697-0.53977 0-0.71783-0.63834-0.71783-1.1748 0-1.4634-0.23736-1.4634-0.23736-2.9283 0-1.4634-0.30124-1.4591-0.30124-2.9225 0-0.53531 0.7156-0.72906 1.2559-0.72906 1.7072 0 1.707-0.19163 3.4144-0.19163zm6.8291 0.83322c1.4587 0 1.454 0.02268 2.911 0.02268 0.55432 0 1.0415 0.56891 1.0415 1.1458 0 1.8356-0.29444 1.8335-0.29444 3.6691s0.02268 1.8393 0.02268 3.675c0 0.57783-0.21166 1.0706-0.76935 1.0706-1.4571 0.06728-1.4523 0.05594-2.911 0.05594-0.55546 0-0.86792-0.55659-0.86792-1.1342 0-1.8356-0.13342-1.8336-0.13342-3.6691 0-1.8356 0.2608-1.8336 0.2608-3.6691 0-0.57674 0.18482-1.169 0.74138-1.169zm12.182 0.15005c1.2828 0 1.2882 0.35264 2.5695 0.35264 0.50171 0 0.99556 0.2264 0.99556 0.80408 0 1.3241-0.02268 1.325-0.02268 2.6506 0 1.3272-0.34168 1.3292-0.34168 2.6564s0.32921 1.3234 0.32921 2.6505c0 0.57787-0.45806 0.8164-0.96086 0.8164-1.2813 0-1.294 0.53977-2.5753 0.48602-1.286-0.05594-1.2751-0.411-2.558-0.411-0.50171 0-1.0415-0.31371-1.0415-0.89143 0-1.3255-0.02268-1.3207-0.02268-2.6448 0-1.3272 0.26646-1.3275 0.26646-2.6563 0-1.3256-0.22527-1.3292-0.22527-2.6564 0-0.57783 0.52189-0.93172 1.0247-0.93172 1.2828 0 1.2808-0.22527 2.5637-0.22527zm-32.206 4.4388c0.55549 0 0.91498 0.71787 0.91498 1.2964 0 1.5283-0.16782 1.5273-0.16782 3.0557 0 1.5283 0.18482 1.5289 0.18482 3.0556 0 0.57787-0.38186 1.2442-0.93735 1.2442-1.7532-0.05594-1.7422-0.2778-3.4954-0.2778-0.55546 0-0.72346-0.38862-0.72346-0.96649 0-1.5268-0.14438-1.5273-0.14438-3.0556 0-1.5285-0.20826-1.5274-0.20826-3.0558 0-0.57783 0.52076-1.0068 1.0762-1.0068 1.7533 0 1.748-0.28876 3.5014-0.28876zm39.921 0.48043c1.5205 0 1.5179 0.4054 3.0384 0.4054 1.5235 0 1.5221 0.10092 3.044 0.10092 1.522 0 1.5263-0.31787 3.0499-0.31787 0.89366 0 1.7594 0.81417 1.7594 1.7766 0 1.2988-0.13871 1.3014-0.13871 2.5985 0 1.2988 0.21393 1.2999 0.21393 2.5985 0 1.3003-0.41659 1.2982-0.41659 2.5984 0 0.96313-0.52412 1.9503-1.4178 1.9503-1.5205 0-1.5237-0.18482-3.0441-0.18482-1.5236 0-1.5164-0.12775-3.0383-0.19049-1.5252-0.06728-1.5263-0.01134-3.0499-0.01134-0.89366 0-1.8403-0.59356-1.8403-1.5568 0-1.2972 0.31825-1.2999 0.31825-2.5985 0-1.2986-0.19049-1.2982-0.19049-2.5985 0-1.2986-0.06728-1.2982-0.06728-2.5984 0-0.96309 0.8892-1.9618 1.7824-1.9618zm24.382 2.8125h1.1402c0.55546 0 0.78167 0.74584 0.78167 1.3253 0 1.1053-0.04498 1.1098-0.04498 2.2165 0 0.57787-0.17349 1.2096-0.72906 1.2096-0.57001 0.01134-0.5756-0.13342-1.1459-0.13342-0.55546 0-1.1109-0.49835-1.1109-1.0762 0-1.1065 0.17916-1.111 0.17916-2.2165 0-0.5801 0.37532-1.3253 0.93176-1.3253zm-7.6681 1.5164c1.9512 0 1.951 0.27213 3.9006 0.27213 0.55546 0 1.0124 0.33034 1.0124 0.90821 0 1.5647-0.18482 1.5678-0.18482 3.1309 0 1.5663 0.17349 1.5645 0.17349 3.1309 0 1.5663 0.06728 1.5703 0.06728 3.1366 0 0.5801-0.52632 0.79849-1.0818 0.79849-1.9481 0.12548-1.932 0.4054-3.8832 0.4054-0.55546 0-1.0124-0.62379-1.0124-1.2038 0-1.5631 0.12662-1.5661 0.12662-3.1309 0-1.5647-0.38745-1.5629-0.38745-3.1309 0-1.5663 0.15005-1.5645 0.15005-3.1309 0-0.57787 0.56668-1.1863 1.1227-1.1863zm-45.662 0.08958c1.5995 0 1.5991 0.10092 3.2003 0.10092 1.5995 0 1.6007 0.13871 3.2003 0.13871 0.51963 0 0.93735 0.2899 0.93735 0.86792 0 1.221-0.05594 1.2227-0.05594 2.4421 0 1.2211 0.07824 1.2228 0.07824 2.4423 0 0.57787-0.44124 0.91384-0.96086 0.91384-1.5997 0-1.6006 0.31787-3.2003 0.34168-1.6011 0.02268-1.6008-0.13871-3.2003-0.13871-0.5174 0-1.0124-0.53868-1.0124-1.1165 0-1.2194-0.21393-1.2211-0.21393-2.4423 0-1.2195 0.45688-1.2211 0.45688-2.4421 0-0.57787 0.2521-1.111 0.76938-1.111zm-7.0199 0.46252c1.2606 0 1.2568 0.0446 2.5174 0.0446 0.55546 0 0.97205 0.35944 0.97205 0.93735 0 1.3271-0.01134 1.3248-0.01134 2.6505 0 1.3287-0.08958 1.3308-0.08958 2.6563 0 1.3304 0.15686 1.3276 0.15686 2.6564 0 1.3287 0.01134 1.3318 0.01134 2.6621 0 0.57787-0.46811 1.1459-1.0247 1.1459-1.2575 0.19049-1.2742 0.17349-2.5349 0.17349h-0.0038c-0.55546 0-1.0762-0.74138-1.0762-1.3196 0-1.3271-0.01134-1.3291-0.01134-2.6563s0.13871-1.3292 0.13871-2.6564c0-1.3287-0.06728-1.3275-0.06728-2.6563 0-1.3304-0.2608-1.3275-0.2608-2.6563 0-0.57787 0.72906-0.97764 1.2847-0.97764zm26.581 3.7095c0.62376 0 0.92613 0.60028 0.92613 1.0247 0 1.5585 0.11188 1.5551 0.11188 3.1136 0 0.42105-0.4121 0.75256-1.0359 0.75256-1.3588 0-1.3569 0.16252-2.7141 0.16252-1.3606 0-1.3597-0.24416-2.72-0.23169-1.3606 0.01134-1.3597 0.12775-2.7201 0.12775-0.62602 0-1.1806-0.38859-1.1806-0.81077 0-1.5585 0.2487-1.5551 0.2487-3.1136 0-0.42442 0.30577-1.0012 0.93176-1.0012 1.3572 0 1.3553 0.31258 2.7142 0.31258 1.3604 0 1.3595 0.06728 2.72 0.06728 1.3605 0 1.3596-0.39981 2.72-0.39981zm-16.858 6.3834c1.1245 0 1.1241 0.17916 2.2454 0.17916 1.1245 0 1.1284-0.02268 2.2513-0.02268 0.55432 0 0.94854 0.08958 0.94854 0.52635 0 0.29103 0.14438 0.29103 0.14438 0.5846 0 0.43228-0.53977 0.66522-1.0941 0.66522-1.1229 0-1.1154 0.08958-2.234-0.0038-1.1339-0.08958-1.1383-0.15686-2.2628-0.15686-0.55436 0-1.0527-0.06728-1.0527-0.50394 0-0.2933-0.02268-0.2933-0.02268-0.5846 0-0.43341 0.52745-0.68313 1.0818-0.68313zm20.192 1.904c0.52522 0 0.69995 0.71114 0.69995 1.4178 0 1.5347-0.05594 1.5327-0.05594 3.0673 0 1.5379 0.31258 1.5367 0.31258 3.073 0 1.5378-0.08958 1.541-0.08958 3.0788 0 0.70664-0.31371 1.5105-0.83878 1.5105-1.6565 0.19503-1.6868 0.02268-3.345 0.02268h-0.0038c-0.52635 0-0.94295-0.82763-0.94295-1.5336 0-1.5347 0.01134-1.5384 0.01134-3.073 0-1.5378-0.06728-1.5353-0.06728-3.0731 0-1.5362 0.11188-1.5352 0.11188-3.073 0-0.70664 0.36511-1.0594 0.89143-1.0594 1.6582 0 1.6548-0.35831 3.316-0.35831zm8.4029 0.60142c1.6107-0.0076 1.6128 0.02268 3.2235 0.02268 0.49389 0 0.71224 0.49725 0.71224 1.0762 0 1.0662 0.08958 1.0639 0.08958 2.1297 0 1.0673 0.33034 1.0639 0.33034 2.1297 0 0.57783-0.64061 0.86792-1.1342 0.86792-1.6108 0-1.6129 0.32354-3.2235 0.32354-1.6108 0-1.6071-0.26646-3.2178-0.26646-0.49275 0-0.65962-0.34168-0.65962-0.92057 0-1.0661-0.35264-1.0684-0.35264-2.1355 0-1.0661 0.05594-1.0639 0.05594-2.1297 0-0.5801 0.46811-1.0941 0.96086-1.0941 1.6107 0 1.6071 0.0013 3.2177-0.0038zm-26.829 2.1991c1.5695 0 1.5687 0.26646 3.1367 0.26646 1.5711 0 1.5656-4.53e-4 3.1366 0.02268 1.5712 0.02268 1.5715 0.0446 3.1425 0.0446 0.55436 0 1.2211 0.38858 1.2211 0.96646 0 1.929-0.08958 1.9327-0.08958 3.8602 0 0.57674-0.5801 0.85669-1.1343 0.85669-1.5678 0-1.5672-0.08958-3.1366-0.08958-1.5695 0-1.5656 0.54986-3.1367 0.54986-1.5711 0-1.5714-0.43451-3.1424-0.43451-0.55546 0-1.0997-0.30918-1.0997-0.88584 0-1.9275 0.36511-1.9312 0.36511-3.8602 0-0.57783 0.17916-1.2964 0.73465-1.2964z"/></svg>
