<svg xmlns="http://www.w3.org/2000/svg" width="64pt" height="64pt" viewBox="0 0 64 64"><path d="M28.05 63.742c-1.132-.137-2.5-.36-3.034-.496-2.028-.508-2.606-.672-3.098-.867-.277-.11-.918-.34-1.418-.508-1.313-.445-3.375-1.445-4.594-2.223-.578-.367-1.097-.671-1.156-.671-.055 0-.719-.43-1.477-.957-2.082-1.45-6.46-5.926-7.785-7.954C4.11 47.95 2.902 45.81 2.41 44.598a22.84 22.84 0 0 0-.55-1.262c-.102-.195-.184-.453-.184-.578 0-.125-.13-.512-.285-.863A5.937 5.937 0 0 1 1 40.648a36.74 36.74 0 0 0-.441-1.925c-.743-2.875-.747-10.676-.004-13.567.183-.726.41-1.636.504-2.027.097-.39.285-1.027.425-1.418.141-.39.317-.89.395-1.113.394-1.141 2.371-4.883 3.441-6.52 1.532-2.336 4.957-5.933 7.367-7.734 1.012-.754 1.981-1.438 2.145-1.512.168-.074.668-.363 1.113-.644.711-.446 2.196-1.184 3.442-1.708.222-.093.738-.316 1.144-.496.407-.175.88-.324 1.051-.324.172 0 .367-.09.438-.203.066-.11.37-.203.668-.207.3-.004.773-.137 1.05-.297.278-.16.887-.293 1.356-.297.465-.004.894-.086.953-.18.117-.19 4.71-.53 6.293-.468 3.406.137 7.504.676 7.863 1.031.117.121.402.219.629.219.414.004 1.781.418 2.742.836l1.215.523c3.645 1.567 8.61 5.106 10.59 7.551.406.5 1 1.187 1.32 1.527.32.34.809.977 1.09 1.422.277.442.656.926.84 1.078.18.153.328.367.328.485 0 .113.211.492.465.836.836 1.12 2.613 5.093 3.183 7.109 1.84 6.488 1.86 12.438.063 18.43-1.012 3.375-2.953 7.3-4.703 9.52-.438.554-.996 1.402-1.434 1.987-.433.583-1.312 1.336-2.32 2.325-1.008.984-2.023 1.922-2.262 2.082-.234.156-.922.652-1.523 1.097-1.14.844-1.492 1.063-3.004 1.891-1.817.988-3.223 1.652-3.496 1.652-.156 0-.344.063-.422.141-.5.5-5.02 1.637-7.926 1.992-2.828.344-4.668.344-7.527 0zm8.4-5.68c.82-.132 1.464-.734 11.155-10.398 8.575-8.55 10.31-10.375 10.43-10.965.403-1.93.477-7.183.102-7.047-.23.082-28.73 28.473-28.73 28.618 0 .156 5.902-.016 7.042-.208zm1.948-19.703C51.29 25.5 55.718 20.961 55.718 20.617c0-.5-.515-1.66-.82-1.851-.105-.063-.191-.293-.191-.508 0-.219-.07-.395-.156-.395s-.328-.316-.535-.703c-.207-.387-.543-.851-.743-1.031-.34-.313-1.425.73-18.945 18.23L15.742 52.918l.778.652c1.058.887 3.98 2.39 4.3 2.211.14-.082 8.051-7.922 17.578-17.422zm-9.02-9.082C45.11 13.621 47.79 10.875 47.575 10.61c-.347-.425-2.695-1.902-3.758-2.363l-.87-.379-3.77 3.73c-2.074 2.055-9.992 9.95-17.602 17.544L7.738 42.945l.356.778c.742 1.625 2.316 3.914 2.699 3.914.074 0 8.437-8.262 18.586-18.36zm-9.233-9.132c7.765-7.77 14.12-14.235 14.12-14.368 0-.562-3.84-.52-6.726.082-.652.133-2.203 1.602-11.266 10.657-9.148 9.14-10.527 10.597-10.64 11.242-.074.406-.184 2.039-.242 3.625-.102 2.707-.086 2.887.265 2.887.223 0 6.024-5.657 14.489-14.125zm0 0"/></svg>