<svg xmlns="http://www.w3.org/2000/svg" width="64pt" height="64pt" viewBox="0 0 64 64"><path d="M30.492 63.988c-5.203-.254-10.152-1.73-14.73-4.402a35.691 35.691 0 0 1-2.453-1.59c-3.047-2.172-5.735-4.922-7.739-7.922-1.36-2.035-2.289-3.734-3.09-5.633C1.156 41.297.352 37.926.086 34.418a34.617 34.617 0 0 1 0-4.848c.289-3.78 1.195-7.37 2.707-10.707a38.039 38.039 0 0 1 2.062-3.851c1.82-2.942 4.25-5.668 7.036-7.895.84-.668 1.41-1.086 2.289-1.676a31.182 31.182 0 0 1 3.61-2.093 31.776 31.776 0 0 1 9.67-3.04 28.234 28.234 0 0 1 3.388-.292c.68-.024.933-.02 1.902.011 1.938.063 2.23.082 3.227.207 6.02.746 11.84 3.282 16.558 7.215.844.7 1.453 1.262 2.297 2.117 1.59 1.606 2.742 3.047 4.047 5.051 1.09 1.68 1.86 3.11 2.598 4.824 1.27 2.954 2.105 6.297 2.406 9.625.101 1.137.117 1.5.117 2.938 0 1.402-.008 1.687-.098 2.742a31.554 31.554 0 0 1-2.566 10.152 36.236 36.236 0 0 1-1.164 2.34 44.188 44.188 0 0 1-2.117 3.407c-2 2.82-4.543 5.359-7.422 7.402a32.77 32.77 0 0 1-9.403 4.617c-2.398.73-4.753 1.145-7.402 1.305-.469.027-2.863.043-3.336.02zm-8.62-7.09c2.581-.414 4.62-.816 5.878-1.164 1.21-.336 1.828-.62 1.934-.89.03-.09.03-.102-.004-.172-.145-.305-.97-.649-2.434-1.016-2.531-.633-7.05-1.36-13.121-2.117-.75-.094-1.371-.168-1.375-.168-.02 0 .156.172.55.543a27.373 27.373 0 0 0 5.43 3.965c.606.34 2.227 1.14 2.32 1.148.012 0 .38-.058.821-.129zm29.855-5.972a27.405 27.405 0 0 0 3.976-5.278c.399-.691.977-1.8.953-1.828-.043-.043-6.058.66-9.14 1.07-8.215 1.09-12.786 2.06-13.22 2.797-.066.11-.066.145 0 .258.415.703 4.661 1.63 12.192 2.653 1.793.246 4.703.617 4.864.62.086 0 .093-.003.375-.292zm-44.43-9.219c1.129-.125 2.605-.3 4.223-.5 8.382-1.043 13.683-2.012 15.183-2.777.254-.133.383-.23.445-.344.043-.078.047-.098.024-.168-.07-.246-.606-.52-1.57-.809-2.532-.761-8.348-1.699-16.415-2.648-1.523-.18-4.324-.492-4.414-.492-.03 0-.015.234.059.937.242 2.301.793 4.621 1.61 6.778.046.117.05.12.117.109l.738-.086zM59.27 29.879a27.165 27.165 0 0 0-1.578-7.27 8.241 8.241 0 0 0-.165-.441c-.004-.008-1.816.2-2.78.312-8.118.961-13.817 1.887-16.345 2.649-.82.246-1.359.504-1.504.715-.273.394.649.832 2.829 1.343 3.312.778 9.714 1.723 17.703 2.606.793.086 1.52.168 1.613.18.242.027.234.03.227-.094zM9.07 19.96c5.801-.64 11.086-1.356 14.649-1.988 3.789-.668 5.812-1.266 5.972-1.762.094-.273-.437-.59-1.55-.926-2.262-.683-7.239-1.52-14.004-2.36a104.43 104.43 0 0 1-1.317-.163l-.191-.024-.254.266a27.47 27.47 0 0 0-4.262 5.734c-.199.356-.73 1.371-.73 1.399 0 .011-.117.023 1.687-.176zm41.907-7.629c-1.567-1.535-3.536-2.996-5.61-4.168a32.008 32.008 0 0 0-1.965-1c-.43-.2-.28-.195-1.336-.023-3.855.617-6.222 1.156-7.265 1.644-.29.137-.45.254-.516.38-.066.124-.047.19.106.335.386.379 1.773.805 4.136 1.277 2.746.551 6.692 1.149 11.52 1.743l1.176.144a.525.525 0 0 0 .086.012 5.89 5.89 0 0 0-.332-.344zm0 0"/></svg>