<svg xmlns="http://www.w3.org/2000/svg" width="64" height="64"><path d="M28.746 62.836c-6.711-.708-13.237-3.753-18.202-8.492C3.776 47.882.18 38.16 1.16 28.977 2.322 18.07 8.796 8.799 18.529 4.097c15.418-7.447 33.925-1.005 41.364 14.4 6.204 12.85 2.912 28.113-8.043 37.295-6.328 5.304-14.88 7.911-23.104 7.044zm.302-7.712c.485-.486.483-.78-.01-1.274-.287-.287-.488-.365-.742-.29-.755.224-.98 1.083-.427 1.635.412.412.713.394 1.179-.071zm7.11.061c.422-.422.342-1.044-.185-1.436-.331-.247-.473-.271-.738-.13-.967.519-.685 1.823.406 1.878.108.006.34-.135.517-.312zM22.21 53.076c.387-.27.481-1.122.16-1.444-.406-.406-1.373-.136-1.567.438-.126.371.152.932.54 1.087.482.194.474.195.867-.08zm20.622 0c.246-.172.347-.402.347-.788 0-.467-.073-.576-.505-.759-.6-.251-1.001-.096-1.217.472-.181.478.04 1.11.424 1.21.496.128.597.114.951-.135zm-13.106-1.28c.18-.15.372-.497.425-.77.077-.402.019-.576-.305-.9-.435-.434-.867-.502-1.402-.22-.446.235-.57.436-.573.932-.006.996 1.113 1.574 1.855.958zm6.04-.11c.21-.21.383-.566.383-.788 0-.48-.637-1.172-1.08-1.172-1.115 0-1.629 1.056-.94 1.932.424.538 1.115.55 1.636.028zm-11.544-1.892c.324-.325.382-.496.302-.897-.124-.618-.358-.857-.956-.977-.684-.137-1.324.401-1.324 1.114 0 1.097 1.185 1.552 1.978.76zm17.239.088c.434-.434.402-1.174-.071-1.648-.686-.686-1.705-.344-1.894.635-.205 1.065 1.192 1.786 1.965 1.013zm-24.84-1.094c.171-.172.312-.453.312-.625 0-.413-.54-.937-.965-.937-.786 0-1.193.991-.652 1.59.34.374.914.362 1.304-.028zm32.096-.034c.701-1.003-.461-2.074-1.32-1.216-.586.587-.196 1.563.625 1.563a.825.825 0 0 0 .695-.347zm-19.095-2.349c.64-.83.143-2.178-.872-2.368-1.41-.265-2.349 1.14-1.563 2.34.485.74 1.875.757 2.435.028zm7.035.022c.518-.55.561-1.233.119-1.855-.382-.536-.92-.687-1.703-.476-.477.128-.65.283-.874.78-.236.522-.25.693-.088 1.083.486 1.173 1.676 1.392 2.546.468zm-17.296-.054c.469-.468.49-1.002.06-1.548-.23-.294-.466-.41-.82-.407-.694.007-1.056.337-1.152 1.052-.071.531-.026.657.347.95.562.442 1.092.427 1.565-.047zm26.769.11c.18-.15.372-.497.425-.77.078-.402.019-.575-.305-.899-.393-.393-1.079-.526-1.446-.281-.257.171-.531.753-.531 1.127 0 .447.68 1.097 1.147 1.097.21 0 .529-.123.71-.273zm-3.18-3.58c.651-.87.282-2.13-.702-2.395-1.448-.39-2.483.87-1.8 2.19.4.775 1.978.904 2.501.205zm-30.521.158a.97.97 0 0 0 .285-.625c0-.449-.513-.992-.937-.992-.429 0-.937.545-.937 1.005 0 .783.982 1.161 1.589.612zm10.917-.141c.58-.617.523-1.532-.131-2.117-.55-.492-.825-.542-1.562-.285-.984.344-1.299 1.62-.588 2.388.314.338.522.413 1.145.413.614 0 .833-.077 1.136-.4zm29.616.002c.53-.807-.454-1.791-1.262-1.262-.436.286-.555 1.126-.21 1.472.347.346 1.186.226 1.472-.21zM15.816 41.7c.395-.307.503-.864.273-1.414-.269-.643-.814-.812-1.585-.49-.54.226-.556.256-.51.98.044.671.101.773.573 1.008.518.26.836.238 1.25-.084zm17.01-.05c.752-.356 1.192-1.318.97-2.121-.167-.605-.878-1.308-1.473-1.458-.454-.114-1.718.426-1.92.82-.516 1.009-.25 2.175.62 2.706.63.384 1.08.398 1.803.054zm16.915-.05c.696-.696.092-2.03-.92-2.03-.529 0-1.111.661-1.111 1.263 0 .92 1.363 1.436 2.03.768zm-22-2.613c.584-.583.717-1.381.358-2.139-.324-.683-.922-1.029-1.777-1.029-.514 0-.724.101-1.18.571-.449.462-.554.69-.554 1.201 0 .74.511 1.588 1.093 1.816.664.26 1.564.076 2.06-.42zm11.118-.025c.406-.406.475-.591.475-1.282 0-.73-.055-.858-.575-1.334-.472-.433-.698-.527-1.269-.527-.573 0-.79.092-1.252.526-.5.472-.558.61-.558 1.336 0 .682.068.873.43 1.21.592.553.953.685 1.665.61.415-.044.762-.217 1.084-.54zm-19.192-2.114c.493-.492.629-1.078.386-1.663-.262-.633-.722-.928-1.449-.928-.826 0-1.515.675-1.515 1.484 0 1.278 1.685 2.001 2.578 1.107zm26.71-.052c.53-.572.61-.876.395-1.526-.368-1.115-1.676-1.392-2.53-.537-.423.422-.467.55-.389 1.132.175 1.305 1.667 1.855 2.524.93zm-36.135-.454c.384-.348.36-.91-.057-1.298-.432-.403-.822-.405-1.22-.006-.866.866.368 2.126 1.277 1.304zM55.2 36.1c.218-.39.21-.457-.09-.86-.4-.537-.739-.616-1.238-.29-.452.297-.518 1.023-.129 1.413.39.39 1.171.248 1.457-.263zm-41.092-.224c.43-.546.41-1.08-.06-1.548-.468-.47-1.002-.49-1.548-.06-.3.236-.411.467-.411.853 0 1.092 1.356 1.599 2.02.755zm37.411.119c.146-.161.305-.537.353-.835.075-.46.023-.593-.34-.88-.929-.73-2.057-.11-1.967 1.08.06.8 1.408 1.238 1.954.635zm-17.948-.467c.71-.323 1.575-1.235 1.893-1.997.485-1.161.163-2.942-.698-3.856-1.548-1.643-3.917-1.691-5.396-.11-.966 1.034-1.328 2.193-1.039 3.326.341 1.333 1.016 2.17 2.193 2.72.62.29 2.328.243 3.047-.083zM24.578 34c.273-.055.704-.306.957-.56.383-.382.459-.585.459-1.222 0-.632-.084-.86-.485-1.316-.444-.506-.557-.553-1.337-.553-.755 0-.902.056-1.298.489-.895.98-.669 2.405.475 2.988.612.312.57.306 1.229.174zm15.925-.073c.323-.113.633-.408.891-.85.354-.603.379-.743.229-1.3-.47-1.744-2.847-1.973-3.502-.337-.14.349-.254.748-.254.886 0 .442.61 1.258 1.134 1.516.606.299.849.313 1.502.085zm11.119-3.976c.1-.12.188-.475.197-.79.02-.745-.513-1.225-1.213-1.09-1.05.203-1.36 1.34-.551 2.021.405.34.534.374.928.236.252-.087.54-.257.639-.377zm-37.513-.014c.396-.503.413-1.008.05-1.445-.698-.841-2.07-.38-2.07.697 0 1.108 1.345 1.607 2.02.748zm5.628-.316c.45-.574.547-1.068.316-1.626-.322-.777-1.321-1.139-2.076-.753-.94.481-1.156 1.514-.484 2.314.35.415.508.48 1.16.48.633 0 .81-.067 1.084-.415zm26.84-.202c.909-1.351-.704-2.928-2.1-2.054-.598.374-.814 1.172-.514 1.897.262.632.558.78 1.476.735.692-.034.815-.097 1.138-.578zm-36.397-.094c.406-.285.447-.795.104-1.285-.455-.65-1.632-.254-1.632.548 0 .845.814 1.237 1.528.737zm44.942-.104c.327-.468.306-.84-.07-1.216-.604-.605-1.562-.214-1.562.638 0 .885 1.135 1.287 1.632.578zm-27.735-.974c.59-.306 1.01-1.214.896-1.942-.122-.782-1.037-1.581-1.807-1.58-.635.001-1.38.43-1.677.966-.497.896-.083 2.278.787 2.63.515.208 1.318.175 1.8-.074zm10.984.062c.199-.09.523-.401.722-.69.302-.442.342-.641.252-1.245-.085-.569-.227-.818-.672-1.185-.673-.555-1.336-.603-2.1-.152-.632.373-.893.882-.893 1.741 0 .512.102.735.531 1.165.43.43.653.531 1.165.531.348 0 .796-.074.995-.165zm-5.236-2.477c.53-.382.841-1.28.662-1.912-.082-.288-.201-.599-.266-.69-.511-.725-1.931-.924-2.698-.378-1.157.824-.817 2.884.538 3.26.59.164 1.304.05 1.764-.28zm-17.211-1.428c.18-.2.283-.535.273-.893-.042-1.47-2.233-1.545-2.233-.077 0 1.11 1.266 1.737 1.96.97zm33.768-.02c.755-.71.221-2.004-.826-2.004-.988 0-1.503 1.251-.816 1.982.435.464 1.161.474 1.642.022zm-26.416-.973c.584-.584.652-.968.294-1.661-.756-1.462-2.888-.905-2.888.755 0 .3.162.64.453.952.648.694 1.418.677 2.14-.046zm19.548-.02c.482-.482.54-.62.46-1.107-.106-.657-.311-.935-.923-1.251-.903-.467-2.15.365-2.15 1.434 0 .73.765 1.476 1.512 1.476.421 0 .68-.13 1.101-.551zm-30.495-.794c.453-.297.511-.913.127-1.337-.535-.591-1.616-.155-1.616.651 0 .29.124.539.347.695.44.307.662.306 1.142-.01zm40.445.015c.184-.139.3-.416.3-.72 0-.903-1.025-1.242-1.588-.526-.359.456-.29.92.184 1.253.409.287.72.285 1.104-.007zm-23.331-2.72c.83-.83.538-2.058-.598-2.506-1.458-.575-2.59 1.373-1.457 2.506.63.63 1.425.63 2.055 0zm7.187 0c.832-.832.575-1.892-.606-2.502-.544-.281-1.349.044-1.761.712-.33.532-.331.562-.068 1.251.288.754.607.97 1.458.986.375.007.648-.118.977-.447zm-17.247-.352c1.05-.987-.418-2.586-1.555-1.692-.301.237-.427.479-.427.822 0 1.052 1.22 1.587 1.982.87zm26.915-.002c.968-1.04-.48-2.57-1.598-1.69-.86.677-.364 2.032.745 2.032.348 0 .645-.119.853-.342zM16.63 16.746c.415-.415.337-.89-.212-1.3-.403-.3-.47-.306-.86-.088-.518.29-.643.982-.253 1.412.353.39.921.38 1.325-.024zm32.044.064a.97.97 0 0 0 .286-.625c0-.449-.514-.992-.938-.992-.172 0-.453.141-.625.313-.171.172-.312.453-.312.625 0 .413.539.937.964.937.187 0 .468-.116.625-.258zm-24.47-.75c.443-.442.474-.708.155-1.324a1.111 1.111 0 0 0-2.115.516 1.132 1.132 0 0 0 1.96.808zm17.158.06c.506-.399.54-1.033.087-1.609-.671-.854-2.02-.288-2.02.848 0 .505.627 1.084 1.172 1.084.192 0 .534-.145.76-.323zM29.9 14.14c.593-.754.057-1.916-.885-1.916-.537 0-1.147.66-1.147 1.242 0 1.064 1.368 1.518 2.032.674zm5.886.088c.215-.203.362-.522.362-.789 0-.565-.627-1.215-1.172-1.215-.222 0-.577.172-.788.383-1.082 1.083.482 2.67 1.598 1.62zm-13.395-1.604c.325-.39.137-1.222-.336-1.486-.39-.218-.456-.211-.859.09-.537.4-.617.739-.29 1.238.289.44 1.173.535 1.485.158zm20.6.037c.259-.259.235-1.14-.036-1.366-.314-.26-1.185-.257-1.352.006-.208.33-.171 1.354.052 1.444.374.151 1.15.102 1.336-.084zM29.206 10.28c.325-.496.248-.837-.278-1.23-.355-.264-.49-.287-.816-.138-.467.212-.662.847-.423 1.372.246.54 1.162.538 1.517-.004zm6.97.124c.38-.344.36-.813-.054-1.254-.424-.451-.712-.457-1.174-.022-.423.397-.454.708-.118 1.188.29.415.938.457 1.346.088z"/></svg>