<svg xmlns="http://www.w3.org/2000/svg" width="80" height="80"><path d="M35.21 79.89c-6.068-.655-13.266-3.414-18.412-7.06-3.006-2.129-7.575-6.7-9.656-9.662C4.185 58.963 2.034 54.04.663 48.345c-.887-3.687-.884-12.84.006-16.589C3.394 20.278 9.66 11.592 19.476 5.677c1.545-.93 3.737-2.05 4.87-2.488a348.31 348.31 0 0 0 2.766-1.079c1.06-.425 4.986-1.328 7.6-1.747 6.773-1.087 15.574.313 22.506 3.58 5.433 2.56 11.86 7.933 15.327 12.813 5.618 7.906 8.276 17.933 7.232 27.277-1.954 17.48-13.528 30.715-30.658 35.055-2.622.665-10.805 1.136-13.908.802zm.505-13.722c1.829-7.336 2.618-11.328 2.37-11.978-.116-.303-.536-.551-.932-.551-1.097 0-1.636 1.7-2.295 7.235-.324 2.718-.717 5.815-.874 6.883-.59 4.02.606 2.921 1.73-1.589zm11.132-.202c-.322-1.591-.793-3.547-1.047-4.346-.254-.798-.726-2.405-1.049-3.57-1.124-4.057-2.225-5.46-3.142-4.001-.265.42-.23 1.02.121 2.118.692 2.16 3.798 10.231 4.22 10.967.194.337.352.84.352 1.118 0 .461.71.965 1.005.714.069-.058-.139-1.408-.46-3zm-4.28 1.938c.789-2.06-1.246-10.807-2.431-10.457-.41.121-.394.552.132 3.604.217 1.261.396 3.194.398 4.294.003 2.432.236 3.118 1.059 3.118.346 0 .725-.252.842-.559zm9.721-1.552c0-1.647-.97-3.78-3.414-7.507-2.122-3.234-3.287-4.24-3.268-2.824.005.34.475 1.412 1.046 2.383.57.97 1.369 2.479 1.775 3.353l1.148 2.47c.584 1.257 2.037 3.177 2.403 3.177.17 0 .31-.474.31-1.052zm-21.144-2.955c1.01-2.09 2.635-7.605 2.331-7.91-.081-.081-.449-.052-.816.065-1.36.432-3.036 4.497-3.389 8.22-.269 2.837.386 2.705 1.874-.375zm23.598-2.645c-2.244-4.526-4.678-8.529-5.86-9.64l-.879-.826-.667.825c-.606.748-.62.917-.155 1.82.283.546.716 1.207.965 1.469.248.26.687.817.976 1.237.29.42 2.03 2.862 3.87 5.428 3.915 5.46 4.556 5.345 1.75-.313zM32.57 52.333c0-.623-.198-.812-.85-.812-.637 0-1.258.556-2.467 2.206-.888 1.213-1.765 2.39-1.949 2.614-.61.746-2.48 3.901-2.48 4.185 0 .154 1.742-1.444 3.872-3.55 2.701-2.67 3.874-4.076 3.874-4.643zm-10.902 5.68c3.083-2.03 7.285-6.375 6.717-6.946-.72-.721-3.48 1.082-7.172 4.689-1.888 1.844-3.433 3.637-3.433 3.984 0 .753.365.591 3.888-1.728zm42.53 1.05c-.11-.555-1.505-1.397-4.867-2.937-.872-.399-2.598-1.519-3.837-2.489-3.146-2.462-4.229-2.308-2.252.321 1.587 2.11 3.75 3.608 6.946 4.81 2.65.998 4.171 1.11 4.01.295zm-45.704-5.175c2.416-1.416 5.307-3.163 6.424-3.883 1.117-.719 2.162-1.307 2.322-1.307.16 0 .581-.322.936-.715.928-1.028.212-1.708-1.225-1.164-1.202.455-13.381 8.986-13.39 9.379-.011.517.59.235 4.933-2.31zM65.82 55.09c.298-.483-.426-.907-3.672-2.152-3.807-1.46-6.355-2.225-6.6-1.98-.656.658 1.803 2.032 6.248 3.492 2.955.97 3.743 1.096 4.024.64zm4.426-2.991c0-.979-9.2-4.571-14.51-5.666-3.205-.661-4.028-.694-4.349-.173-.423.685.744 1.417 3.407 2.135 6.376 1.72 11.577 3.18 13.516 3.79 1.514.477 1.936.459 1.936-.086zM43.23 50.496c1.957-.84 4.007-2.903 4.947-4.975.969-2.138.955-5.602-.033-7.839-1.927-4.368-7.285-6.881-11.574-5.429-5.362 1.816-8.293 7.226-6.63 12.241.702 2.121 3.13 4.967 5.088 5.966 1.776.905 6.135.925 8.202.036zm-26.164-.786c1.328-.22 3.248-.828 4.268-1.35 1.806-.927 3.114-2.255 2.541-2.58-.53-.303-7.144 1.534-8.98 2.493-3.293 1.72-2.543 2.217 2.171 1.437zm54.746-3.453c.244-.396-1.653-1.579-3.326-2.074-.678-.2-4.204-.447-7.835-.547-5.195-.144-6.602-.087-6.602.265 0 .992 5.845 1.954 12.139 1.998 1.942.013 3.847.161 4.235.328.943.406 1.155.41 1.39.03zm-50.184-2.37c4.168-.544 5.447-.947 5.215-1.645-.206-.62-1.648-.844-3.604-.56-.969.14-3.266.433-5.106.651-4.742.564-8.54 1.389-9.153 1.989-.46.45.04.487 4.05.301 2.516-.117 6.385-.448 8.598-.737zm43.388-2.961c5.653-.349 6.78-.54 6.44-1.089-.24-.39-19.06-.424-19.3-.034-.095.154-.06.464.078.688.512.83 2.034 1.147 4.632.962 1.452-.103 5.12-.34 8.15-.527zm-40.81-1.07c1.558-.434 1.71-1.16.353-1.677-2.617-.995-12.985-1.483-13.207-.621-.151.586 4.062 2.065 6.605 2.32 3.797.378 4.822.375 6.25-.023zM62.5 36.908c1.311-.402 4.944-1.954 7.002-2.992.811-.409.287-.928-.897-.888-.613.02-1.946.31-2.963.644-1.017.333-3.328.829-5.136 1.1-3.307.498-5.049 1.237-5.049 2.141 0 .664 4.877.66 7.043-.005zm-34.71-.447c.29-.758.15-.86-2.79-2.03a237.244 237.244 0 0 1-3.17-1.28c-4.252-1.808-11.31-4.572-11.679-4.572-.753 0-.544.595.497 1.416.93.734 7.136 3.878 7.654 3.878.139 0 .752.22 1.362.49 1.26.554 5.417 2.2 6.215 2.46 1.045.338 1.69.216 1.911-.362zm25.88-.954c.616-.536 7.373-4.81 7.604-4.81.29 0 5.986-3.69 6.22-4.03.776-1.124-.685-.643-5.111 1.683-10.775 5.662-11.855 6.312-11.855 7.135 0 .667 2.38.683 3.141.022zm-27.086-3.553c0-.279-1.112-1.51-2.47-2.735-1.778-1.604-3.233-2.545-5.194-3.36-3.962-1.644-4.906-1.51-2.988.423 1.644 1.656 2.95 2.522 6.602 4.376 3.89 1.974 4.05 2.025 4.05 1.296zm4.853-.732c.07-.495-.755-1.484-2.794-3.35a345.1 345.1 0 0 1-6.6-6.264c-2.039-1.99-3.852-3.618-4.029-3.618-.718 0 .207 2.29 1.69 4.181 1.619 2.067 8.51 8.713 9.836 9.488 1.006.588 1.777.41 1.897-.437zm25.605-2.66c5.918-4.29 7.719-7.342 2.785-4.718-4.346 2.31-7.535 4.787-8.451 6.562-1.22 2.365.739 1.727 5.666-1.845zm-6.796.987c.833-1.213 1.7-2.523 1.926-2.912.226-.388 1.277-2.135 2.336-3.882 2.845-4.695 3.472-5.883 3.234-6.122-.26-.26-2.488 2.174-5.925 6.475-3.968 4.965-5.264 7.273-4.647 8.274.566.917 1.62.29 3.076-1.833zm-12.4.28c.564-1.488-.492-6.565-2.865-13.78-.192-.582-.546-2.17-.787-3.53-.242-1.358-.587-2.43-.768-2.38-.46.125-.381 7.483.114 10.675.662 4.274 1.792 8.19 2.615 9.069.969 1.033 1.282 1.023 1.69-.054zm7.015-3.628c.24-1.701.575-4.046.747-5.21.532-3.61.82-10.277.428-9.883-.194.194-.78 2.259-1.3 4.588-.522 2.33-1.107 4.848-1.301 5.596-.619 2.391-.812 7.552-.306 8.163.778.94 1.274.008 1.732-3.254zm-12.01 1.954c.604-.604.533-1.302-.419-4.12-.91-2.698-3.287-6.325-5.31-8.106-1.347-1.186-1.947-1.393-1.947-.673 0 .243 1.11 2.665 2.465 5.381 1.356 2.717 2.465 5.17 2.465 5.45 0 .502 1.684 2.492 2.108 2.492.119 0 .406-.19.638-.424zm8.262-7.144c-.04-3.784-.229-6.03-.62-7.377-.512-1.765-1.363-3.043-1.76-2.645-.088.088-.262 2.135-.389 4.55-.27 5.144.221 9.095 1.322 10.645 1.251 1.761 1.511.833 1.447-5.173zm8.187 3.51c.447-.778 1.073-2.445 1.393-3.707.32-1.262.73-2.869.912-3.57.409-1.577.431-3.49.04-3.49-1.672 0-4.638 7.813-4.638 12.217 0 1.304 0 1.305.74.633.408-.37 1.106-1.307 1.553-2.084z"/></svg>