<svg version="1.1" viewBox="0 0 80 80" xmlns="http://www.w3.org/2000/svg"><path d="m40 0c-22.091 0-40 17.909-40 40s17.909 40 40 40 40-17.909 40-40-17.909-40-40-40zm-3.2109 7.5039a6.9348 6.9348 0 0 1 0.49219 0 6.9348 6.9348 0 0 1 6.6875 7.1719 6.9348 6.9348 0 0 1-7.1738 6.6895 6.9348 6.9348 0 0 1-6.6875-7.1738 6.9348 6.9348 0 0 1 6.6816-6.6875zm15.791 3.3711a6.9348 6.9348 0 0 1 4.3223 1.4707 6.9348 6.9348 0 0 1 1.1953 9.7344 6.9348 6.9348 0 0 1-9.7344 1.1953 6.9348 6.9348 0 0 1-1.1953-9.7344 6.9348 6.9348 0 0 1 5.4121-2.666zm-30.096 3.0605a6.9348 6.9348 0 0 1 5.7031 3.0566 6.9348 6.9348 0 0 1-1.873 9.627 6.9348 6.9348 0 0 1-9.627-1.873 6.9348 6.9348 0 0 1 1.873-9.627 6.9348 6.9348 0 0 1 3.9238-1.1836zm40.924 8.8379a6.9348 6.9348 0 0 1 6.5234 5.0234 6.9348 6.9348 0 0 1-4.7559 8.5762 6.9348 6.9348 0 0 1-8.5762-4.7539 6.9348 6.9348 0 0 1 4.7539-8.5781 6.9348 6.9348 0 0 1 2.0547-0.26758zm-49.15 4.9512a6.9348 6.9348 0 0 1 2.5215 0.41602 6.9348 6.9348 0 0 1 4.1445 8.8887 6.9348 6.9348 0 0 1-8.8887 4.1445 6.9348 6.9348 0 0 1-4.1445-8.8887 6.9348 6.9348 0 0 1 6.3672-4.5605zm50.465 10.924a6.9348 6.9348 0 0 1 2.5234 0.41797 6.9348 6.9348 0 0 1 4.1426 8.8887 6.9348 6.9348 0 0 1-8.8867 4.1445 6.9348 6.9348 0 0 1-4.1445-8.8887 6.9348 6.9348 0 0 1 6.3652-4.5625zm-48.562 4.9512a6.9348 6.9348 0 0 1 6.5215 5.0215 6.9348 6.9348 0 0 1-4.7539 8.5781 6.9348 6.9348 0 0 1-8.5781-4.7559 6.9348 6.9348 0 0 1 4.7559-8.5781 6.9348 6.9348 0 0 1 2.0547-0.26562zm40.729 8.8359a6.9348 6.9348 0 0 1 5.7051 3.0566 6.9348 6.9348 0 0 1-1.873 9.627 6.9348 6.9348 0 0 1-9.627-1.8711 6.9348 6.9348 0 0 1 1.8711-9.627 6.9348 6.9348 0 0 1 3.9238-1.1855zm-30.293 3.0586a6.9348 6.9348 0 0 1 4.3223 1.4707 6.9348 6.9348 0 0 1 1.1953 9.7344 6.9348 6.9348 0 0 1-9.7344 1.1953 6.9348 6.9348 0 0 1-1.1953-9.7344 6.9348 6.9348 0 0 1 5.4121-2.666zm15.398 3.3809a6.9348 6.9348 0 0 1 0.49023 0 6.9348 6.9348 0 0 1 6.6895 7.1738 6.9348 6.9348 0 0 1-7.1738 6.6875 6.9348 6.9348 0 0 1-6.6875-7.1738 6.9348 6.9348 0 0 1 6.6816-6.6875z" fill="#e54132"/></svg>
