<svg xmlns="http://www.w3.org/2000/svg" width="80" height="80"><path d="M40 0C17.907 0 0 17.909 0 40.001 0 62.092 17.907 80 40 80c22.091 0 40-17.908 40-39.999C80 17.91 62.091 0 40 0zM24.796 10.324c7.751 0 14.035 6.283 14.035 14.034 0 7.75-6.284 14.036-14.035 14.036-7.752 0-14.037-6.286-14.037-14.036 0-7.751 6.285-14.034 14.037-14.034zm30.628 0c7.75 0 14.034 6.283 14.034 14.034 0 7.75-6.283 14.036-14.034 14.036s-14.037-6.286-14.037-14.036c0-7.751 6.286-14.034 14.037-14.034zm-30.628 29.91c7.751 0 14.035 6.282 14.035 14.034 0 7.75-6.284 14.037-14.035 14.037-7.752 0-14.037-6.286-14.037-14.037 0-7.752 6.285-14.034 14.037-14.034zm30.628 0c7.75 0 14.034 6.282 14.034 14.034 0 7.75-6.283 14.037-14.034 14.037s-14.037-6.286-14.037-14.037c0-7.752 6.286-14.034 14.037-14.034z" fill="#231f20"/></svg>