<svg xmlns="http://www.w3.org/2000/svg" width="64pt" height="64pt" viewBox="0 0 64 64"><path d="M38.7 63.781c2.015-2.164 4.62-3.941 6-6.707 2.527-4.418 2.991-10.73-.891-14.52-3.793-4.03-11.493-2.195-13.04 3.184-1.046 3.586.532 8.082-2.351 10.957-2.023 2.653-5.54 2.825-8.52 2.27-1.464-.668-5.035-3.633-2.808-.102.617 1.34 5.191 5.024 1.594 3.414C9.719 58.484 2.676 50.391 0 40.867c2.234 1.418 4.07 4.094 6.762 5.113 4.66 2.325 11.488 2.32 14.73-2.406 3.266-4.644-.297-11.926-5.824-12.234-3.133-.684-6.969.683-9.41-2.067-3.313-2.757-3.27-8.109-.567-11.293-.453-2.21-5.933 4.938-4.41.692C4.95 9.914 12.648 3.113 21.5.372c1.566-.927 3.215.085.887.792-4.89 3.766-8.282 10.54-6.262 16.785 1.383 4.813 7.3 7.117 11.508 4.637 2.844-1.414 4.367-4.684 4.047-7.844-.145-3.176.34-6.82 3.187-8.687 2.336-1.762 5.817-1.825 8.406-.645 1.184 1.149 3.352 1.93 1.739-.441-1.246-1.336-5.2-5.907-.86-4.082 9.594 4.148 16.934 13.156 19.145 23.574 1.242 6.46.922 13.352-1.625 19.46-3.77 9.907-12.547 17.72-22.688 20.079l-.226-.047zm21.128-19.433c3.352-2.907 3.442-7.797 3.695-11.938-.039-3.52.137-7.644-2.683-10.2-2.445-3.019-6.055-4.937-9.774-5.687-4.43-.875-9.93 1.04-11.363 5.79-1.453 4.726 2.3 10.582 7.36 10.23 2.93.422 6.476-.52 8.699 2.031 3.258 2.73 3.273 8.051.785 11.301-.445 2.063 2.965-1.14 3.281-1.527zm0 0"/></svg>