<svg id="SVGRoot" width="80px" height="80px" version="1.1" viewBox="0 0 80 80" xmlns="http://www.w3.org/2000/svg"><path d="m38.881 79.995c-2.1737-0.081521-3.862-0.25112-5.7506-0.57758-8.774-1.5167-16.825-5.9644-22.823-12.609-7.2927-8.078-10.95-18.662-10.214-29.556 0.582-8.6053 3.9342-16.77 9.5807-23.336 4.1757-4.8552 9.514-8.6783 15.425-11.047 2.9323-1.1749 5.9714-1.9954 9.0544-2.4446 5.301-0.77224 10.677-0.49025 15.828 0.83016 5.2691 1.3508 10.273 3.8119 14.584 7.1737 2.4668 1.9235 4.7458 4.1736 6.6853 6.6008 6.3516 7.9483 9.4122 17.908 8.6298 28.084-0.63603 8.273-3.8173 16.099-9.1433 22.492-1.5303 1.837-3.2982 3.605-5.1351 5.1354-5.4913 4.575-12.068 7.5874-19.063 8.7312-1.5039 0.24594-2.8977 0.39646-4.4788 0.48368-0.53002 0.02921-2.7188 0.05561-3.1794 0.03841zm-17.957-17.292v-3.622h-7.2436v7.244h7.2436zm11.335 0v-3.622h-7.2159v7.244h7.2159zm11.363 0v-3.622h-7.2435v7.244h7.2435zm11.335 0v-3.622h-7.2159v7.244h7.2159zm11.363 0v-3.622h-7.2436v7.244h7.2436zm-45.397-11.35v-3.6082h-7.2436v7.2164h7.2436zm11.335 0v-3.6082h-7.2159v7.2164h7.2159zm11.363 0v-3.6082h-7.2435v7.2164h7.2435zm11.335 0v-3.6082h-7.2159v7.2164h7.2159zm11.363 0v-3.6082h-7.2436v7.2164h7.2436zm-45.397-11.35v-3.622h-7.2436v7.244h7.2436zm11.335 0v-3.622h-7.2159v7.244h7.2159zm11.363 0v-3.622h-7.2435v7.244h7.2435zm11.335 0v-3.622h-7.2159v7.244h7.2159zm11.363 0v-3.622h-7.2436v7.244h7.2436zm-45.397-11.35v-3.6082h-7.2436v7.2164h7.2436zm11.335 0v-3.6082h-7.2159v7.2164h7.2159zm11.363 0v-3.6082h-7.2435v7.2164h7.2435zm11.335 0v-3.6082h-7.2159v7.2164h7.2159zm11.363 0v-3.6082h-7.2436v7.2164h7.2436zm-45.397-11.35v-3.622h-7.2436v7.244h7.2436zm11.335 0v-3.622h-7.2159v7.244h7.2159zm11.363 0v-3.622h-7.2435v7.244h7.2435zm11.335 0v-3.622h-7.2159v7.244h7.2159zm11.363 0v-3.622h-7.2436v7.244h7.2436z" stroke-width=".027648"/></svg>
