<svg xmlns="http://www.w3.org/2000/svg" width="64pt" height="64pt" viewBox="0 0 64 64"><path d="M30.41 63.95c-9.363-.43-18.34-5.216-23.98-12.696C1.816 45.227-.496 37.524.09 29.949.527 17.516 9.332 6.082 20.969 1.9 27.168-.364 34.102-.56 40.477 1.073c11.882 3.145 21.418 13.692 23.191 25.88 1.996 11.671-3.207 24.108-12.867 30.933-5.824 4.273-13.192 6.425-20.39 6.062zm-3.254-4c3.582-1.173 4.594-6.427 1.594-8.759-2.914-2.843-8.555-.671-8.563 3.489-.41 3.258 2.81 6.168 6.012 5.46l.461-.035zm13.871 0c3.73-1.216 4.528-6.77 1.317-9.005-2.969-2.402-8.242-.32-8.25 3.66-.559 3.293 2.742 6.262 5.949 5.536l.477-.036zm-25.453-8.641c3.739-1.196 4.578-6.704 1.406-8.977-2.832-2.383-7.671-.605-8.312 3.059-.84 3.476 2.707 7.039 6.203 6.07zm36.89.043c4.005-1.16 4.696-7.301 1.032-9.32-3.027-1.954-7.52.093-7.91 3.714-.578 3.79 3.297 6.883 6.879 5.606zm5.009-14.243c3.93-.472 5.765-6.039 2.773-8.714-2.594-2.918-8.055-1.446-8.742 2.43-.992 3.452 2.457 7.136 5.969 6.284zm-49.07-.039c4.132-.508 5.742-6.5 2.406-8.984-2.735-2.656-8.067-.863-8.457 3.008-.754 3.48 2.582 6.726 6.05 5.976zm6.98-14.543c3.777-1.007 4.894-6.511 1.77-8.882-2.9-2.77-8.235-.63-8.528 3.351-.52 3.668 3.293 6.707 6.758 5.531zm37.035.008c3.555-1.031 4.754-6.012 2.066-8.558-2.82-3.165-8.816-1.067-8.898 3.234-.367 3.66 3.39 6.488 6.832 5.324zm-25.715-8.582c3.805-.812 5.203-6.195 2.254-8.726-2.68-3.02-8.289-1.118-8.691 2.87-.72 3.633 2.898 6.876 6.437 5.856zm13.7.035c4.038-.668 5.437-6.441 2.245-8.945-2.77-2.727-8.132-.848-8.472 3.016-.07 1.414-.14 2.875.883 4 1.214 1.601 3.379 2.437 5.343 1.93zm0 0"/></svg>