<svg xmlns="http://www.w3.org/2000/svg" width="64pt" height="64pt" viewBox="0 0 64 64"><path d="M34.148 63.953c-3.527-.508-7.214-.121-10.636-1.25-2.532-.582-4.809-1.695-7.082-2.875C9.402 55.938 3.793 49.336 1.297 41.68-.437 36.996.016 31.84.164 26.934c.594-4.637 2.664-9 5.172-12.926C12.3 3.762 25.484-1.852 37.688.55c3.546.562 6.894 1.844 10.062 3.523 6.504 3.621 11.684 9.625 14.363 16.574 1.246 3.079 1.992 6.407 1.887 9.797.125 4.23-.074 8.602-1.805 12.473-.597 2.035-1.703 3.664-2.578 5.539-3.168 4.434-7.008 8.621-11.851 11.223-1.875 1.093-4.118 2.07-6.317 2.68-2.297.75-4.926 1.203-7.3 1.593zM20.051 52.48c3.754-2.433 7.234-6.664 6.789-11.386-1.906-3.688-6.227.484-7.93 2.445-1.613 2.113-3.195 4.59-2.969 7.39-.312 2.59 2.536 2.575 4.11 1.551zm27.554.106c1.497-2.984-.566-6.356-2.328-8.79-1.57-2.245-6.465-6.515-8.168-2.48-.12 4.817 3.286 9.176 7.36 11.414.972.465 2.285.676 3.136-.144zm-14.257-7.172c1.629-2.105 1.832-6.25-.153-8.129-3.195.258-3.035 5.238-1.906 7.512.352.754 1.363 1.371 2.059.617zm-10.22-7.906c2.442.215 6.188-3.942 2.04-4.25-2.34-.594-8.648 2.277-5.238 4.34 1.035.422 2.156.097 3.199-.09zm21.888-1.215c1.39-3.004-3.633-4.57-6.036-4.355-4.32.914.958 4.707 3.215 4.613.938.086 1.93.101 2.82-.258zm-24.203-5.996c3.808-1.73-.215-5.781-2.754-6.512-2.926-1.523-6.461-1.86-9.641-1.105-3.418 2.324 1.32 5.922 3.809 6.68 2.742 1.14 5.648 1.738 8.585.937zm28.277-.098c2.879-.902 6.453-2.074 7.652-5.125.211-3.844-5.054-2.746-7.504-2.52-2.8.884-6.226 1.977-7.562 4.872-.79 3.816 4.41 3.332 6.82 2.89zm-20.844-2.09c1.34-2.879-1.375-6.496-4.18-7.343-2.863 1.187.02 5.43 1.75 6.765.668.457 1.645 1.27 2.43.578zm8.16-.988c1.992-1.082 5.735-5.547 2.633-6.93-2.742.547-6.191 4.454-4.488 7.075.594.293 1.293.14 1.855-.145zm-3.246-5.445c2.856-2.914 2.426-7.36 2.137-11.09.113-3.149-4.113-6.441-5.742-2.508-1.567 2.965-1.07 6.504-.887 9.719.55 1.957 1.805 5.187 4.492 3.879zm0 0"/></svg>