<svg xmlns="http://www.w3.org/2000/svg" width="80" height="80" viewBox="0 0 21.167 21.167"><path d="M10.226 21.16a10.6 10.6 0 0 1-7.764-3.788A10.576 10.576 0 0 1 .048 11.62 9.438 9.438 0 0 1 0 10.583c0-.41.012-.672.048-1.036a10.577 10.577 0 0 1 3.545-6.912 10.592 10.592 0 0 1 13.837-.122c.405.343.882.82 1.224 1.223a10.62 10.62 0 0 1 2.404 5.334c.03.202.05.384.075.66a10.522 10.522 0 0 1-.04 2.096 10.595 10.595 0 0 1-2.542 5.723c-.32.366-.756.796-1.12 1.105a10.593 10.593 0 0 1-7.205 2.507zm.55-1.988c.339-.016.66-.055.952-.117.052-.01.178-.04.28-.066 1.196-.303 2.139-.692 3.333-1.375.65-.373 1.192-.762 1.31-.942.022-.033.024-.04.021-.071-.01-.127-.189-.165-.516-.11-.386.064-1.109.207-1.617.318a6.695 6.695 0 0 1-1.243.174c-.545.03-1.668.033-1.977.003a3.167 3.167 0 0 1-.495-.091c-.47-.118-.773-.256-.95-.434a.48.48 0 0 1-.155-.46c.086-.317.572-.794 1.195-1.172.159-.097.99-.499 1.263-.612.294-.121.571-.36.694-.595.062-.12.074-.216.04-.322-.096-.291-.44-.693-.85-.993a3.286 3.286 0 0 0-.49-.293c-.154-.074-.204-.085-.404-.085-.21 0-.33.018-.517.08a2.398 2.398 0 0 0-.364.154c-.384.192-.53.295-.98.688a6.675 6.675 0 0 0-.898.925 9.528 9.528 0 0 0-.62.86c-.409.658-.643 1.288-.7 1.878-.012.135-.01.425.007.533.033.23.088.418.178.605.359.745 1.157 1.235 2.356 1.445.4.07.752.093 1.146.075zM4.83 16.78c.063-.033.098-.093.098-.172 0-.076-.03-.205-.113-.495a11.038 11.038 0 0 1-.17-.684c-.073-.352-.095-.67-.089-1.245.004-.39.012-.558.044-.943.046-.57.117-1.041.221-1.474.023-.094.07-.3.106-.457.036-.158.082-.353.103-.435.227-.88.551-1.706.964-2.453.09-.163.117-.223.142-.317a.541.541 0 0 0 .017-.182.523.523 0 0 0-.016-.18c-.067-.246-.223-.453-.487-.649-.258-.19-.642-.324-1.022-.356a1.608 1.608 0 0 0-.53.056c-.21.052-.35.12-.516.253-.09.072-.322.306-.402.406-.293.367-.472.787-.593 1.4A9.975 9.975 0 0 0 2.45 9.89c-.01.137-.015.935-.007 1.161.016.401.029.54.075.816.02.113.048.291.064.396.074.478.148.84.278 1.355.138.546.275.971.45 1.396.335.815.719 1.363 1.17 1.672.143.098.274.133.352.094zm9.044-.423c.163-.012.237-.036.31-.097.09-.076.1-.13.039-.21-.059-.077-.185-.154-.41-.248a5.841 5.841 0 0 0-1.51-.391 2.182 2.182 0 0 0-.325 0 .755.755 0 0 0-.223.063.481.481 0 0 0-.093.072c-.073.073-.106.148-.122.28-.013.107.006.154.105.258a.554.554 0 0 0 .205.146c.17.072.55.125.985.136.167.004.953-.002 1.039-.009zm2.832-1.972c.125-.018.25-.053.401-.112.732-.288 1.16-.88 1.433-1.985.083-.336.135-.647.154-.917.022-.313.035-.879.03-1.34a6.06 6.06 0 0 0-.066-.959c-.11-.88-.236-1.448-.487-2.206a9.217 9.217 0 0 0-.66-1.562c-.207-.382-.385-.625-.546-.749-.08-.062-.112-.066-.165-.023a.23.23 0 0 0-.078.119c-.012.073-.005.128.066.528.23 1.289.3 1.89.329 2.867.008.272.008.864 0 1.02-.032.594-.121.948-.357 1.413a2.885 2.885 0 0 1-.48.704c-.251.26-.506.396-.74.397a.478.478 0 0 1-.216-.048c-.215-.101-.35-.305-.733-1.098l-.232-.476a9.31 9.31 0 0 0-.375-.67c-.267-.425-.52-.67-.777-.753-.094-.031-.198-.025-.34.02a1.42 1.42 0 0 0-.531.294c-.221.2-.559.627-.66.835-.125.256-.139.691-.033 1.008.038.112.084.217.182.412.157.314.275.501.456.727a8.825 8.825 0 0 0 1.708 1.647c.207.148.577.382.619.391.027.006.05.018.104.055.082.055.19.104.43.195.285.109.62.219.722.238.067.013.216.03.326.037.123.008.432.003.516-.01zM5.718 13.16c.062-.046.137-.159.305-.456.24-.425.42-.721.532-.88a11.251 11.251 0 0 1 1.374-1.541c.064-.051.408-.28.541-.362.234-.143.617-.36 1.005-.568.234-.127.516-.282.769-.424a10.736 10.736 0 0 1 .542-.29c.011-.004.07-.046.129-.09.118-.09.204-.145.351-.225.383-.21.922-.647 1.438-1.163.272-.272.444-.468.618-.702.568-.765.868-1.423.918-2.011.01-.114.004-.326-.01-.42-.063-.404-.243-.746-.563-1.068-.273-.275-.452-.385-.92-.565-.589-.226-.942-.307-1.62-.369a7.816 7.816 0 0 0-.835-.035 9.58 9.58 0 0 0-4.018.869c-.542.254-.839.432-1.242.746-.552.429-.832.694-.88.837-.02.059 0 .158.036.177.054.03.41-.036.856-.157a13.2 13.2 0 0 1 1.932-.344c.513-.04 1.37-.039 2.038.003.447.027.757.072 1.083.154.285.072.417.122.543.205.048.033.125.08.17.104.106.058.177.112.265.2.111.11.203.236.276.379.072.14.084.21.08.468-.004.188-.01.244-.041.346-.047.154-.168.323-.376.523-.269.26-.644.485-1.44.863-.458.217-1.629.803-1.88.94-.891.49-1.511 1.292-1.892 2.449-.154.47-.24.889-.316 1.551a3.2 3.2 0 0 0-.034.51.49.49 0 0 0 .02.18c.027.081.06.119.155.171.038.021.059.02.092-.005zm2.082-.105c.237-.053.523-.249.885-.605.23-.227.387-.41.513-.598.117-.175.176-.312.194-.447.013-.102-.003-.14-.103-.244a.558.558 0 0 0-.167-.131c-.028-.012-.044-.013-.169-.013a.691.691 0 0 0-.216.018c-.5.118-1.078.548-1.354 1.01a1.482 1.482 0 0 0-.168.41.443.443 0 0 0 .089.348c.036.052.159.18.203.212.07.052.176.066.293.04zm7.704-3.229c.2-.099.348-.364.467-.837.064-.255.098-.446.168-.934.153-1.072.157-1.313.025-1.41-.117-.087-.254-.003-.428.261-.182.277-.348.65-.521 1.169-.107.32-.166.54-.197.739-.025.16-.041.244-.062.323a.544.544 0 0 0 0 .277c.042.169.086.278.132.326a.504.504 0 0 0 .156.081c.142.051.167.052.26.005zM9.188 6.121a.604.604 0 0 0 .329-.137.175.175 0 0 0 .055-.085.56.56 0 0 0 0-.261.644.644 0 0 0-.158-.286 1.722 1.722 0 0 0-.616-.305c-.24-.066-.933-.067-1.204-.003-.13.032-.251.136-.25.217 0 .029.013.062.033.082.125.124.891.487 1.54.73.147.055.173.06.271.048z"/></svg>