<svg xmlns="http://www.w3.org/2000/svg" height="64" width="64"><path d="M30.759 62.995l-.559-.03c-2.3-.12-4.703-.54-6.985-1.221a31.469 31.469 0 0 1-12.388-7.065 44.124 44.124 0 0 1-1.614-1.611c-1.437-1.556-2.656-3.201-3.911-5.285-1.62-2.687-2.79-5.613-3.516-8.781a31.573 31.573 0 0 1-.773-7.835c.034-1.1.077-1.737.181-2.684.4-3.61 1.434-7.126 3.021-10.27 1.323-2.622 2.75-4.742 4.545-6.756 4.49-5.04 10.618-8.559 17.207-9.885a28.394 28.394 0 0 1 6.82-.551c1.884.067 2.126.083 3.136.21 5.63.704 11.156 3.08 15.657 6.73a31.232 31.232 0 0 1 3.952 3.839c1.14 1.33 2.196 2.81 3.208 4.495 3.174 5.288 4.651 11.697 4.171 18.104a30.725 30.725 0 0 1-2.174 9.314 32.188 32.188 0 0 1-1.47 3.066 61.377 61.377 0 0 1-1.317 2.203c-3.302 5.137-8.245 9.234-14.069 11.66a30.48 30.48 0 0 1-10.1 2.325c-.361.021-2.732.043-3.022.028zm-1.757-7.809c.038-.012.237-.103.442-.201l.371-.18.167.001c.154.001.188.01.446.117.33.136.355.143.54.143.16 0 .311-.055.456-.17.198-.156.219-.35.082-.75a2.66 2.66 0 0 1-.097-.345c-.02-.152.049-.278.298-.543.215-.227.252-.29.213-.362-.071-.133-.545-.215-.804-.138-.236.07-.469.286-.522.484a.32.32 0 0 1-.075.127c-.029.028-.09.123-.137.21-.09.176-.165.252-.275.283-.08.022-.099.019-.331-.054-.32-.1-.543-.063-.847.14-.335.224-.56.545-.56.795.001.184.126.382.279.443.07.027.267.028.354 0zm-2.3-.065c.178-.09.23-.246.19-.559-.045-.33-.146-.521-.332-.622-.087-.047-.157-.064-.37-.089-.312-.036-.418-.078-.498-.2-.047-.07-.056-.106-.055-.22.001-.117.015-.165.101-.353.136-.295.149-.436.057-.624-.12-.247-.133-.253-.369-.153a.411.411 0 0 1-.155.043.5.5 0 0 1-.098-.146.51.51 0 0 0-.111-.157 3.055 3.055 0 0 1-.259-.227 1.607 1.607 0 0 0-.35-.27c-.122-.06-.142-.064-.292-.053-.275.019-.412.105-.462.29-.035.132.006.326.146.685l.121.312.131.08c.267.165.292.183.273.2-.01.01-.157.056-.328.1-.386.102-.51.149-.667.25a.405.405 0 0 0-.17.176c-.09.186-.02.306.258.444.186.092.272.104.727.105.464 0 .589.023.777.143.113.071.124.089.193.307.09.283.086.28.549.44l.403.14.25.002c.22.002.26-.003.34-.044zm8.064-.27a.575.575 0 0 0 .284-.26c.088-.162.09-.346.006-.542-.034-.078.29-.109.432-.04.106.05.147.089.366.343.314.366.39.411.69.41.317 0 .451-.072.87-.464.136-.128.369-.323.517-.433.267-.199.368-.294.392-.372.024-.073-.029-.2-.196-.477a8.033 8.033 0 0 1-.296-.544 2.073 2.073 0 0 0-.217-.368c-.146-.164-.347-.219-.65-.177l-.117.016.004-.097c.003-.098.003-.098-.086-.128-.085-.029-.092-.028-.139.016-.078.073-.107.159-.145.43-.04.285-.033.528.018.65l.032.077-.109.093c-.202.172-.35.21-.573.144-.092-.028-.125-.03-.181-.009-.064.023-.085.017-.301-.08a2.463 2.463 0 0 0-.297-.118c-.103-.02-.255.024-.516.151-.21.102-.268.142-.4.275-.325.324-.437.718-.316 1.11.056.18.19.34.346.415.091.043.127.048.29.042.151-.007.206-.018.292-.062zm7.824-1.589a.374.374 0 0 0 .207-.263c.034-.179-.098-.518-.372-.962a3.282 3.282 0 0 1-.143-.244c-.003-.012.054-.043.127-.07.239-.087.368-.233.344-.39-.017-.115-.077-.223-.267-.479a9.027 9.027 0 0 1-.204-.282.231.231 0 0 0-.106-.079c-.062-.02-.084-.017-.155.018a2.654 2.654 0 0 1-.216.093c-.362.136-.465.317-.328.574.033.061.13.216.216.344.17.253.246.423.245.553 0 .045-.026.185-.057.31a1.623 1.623 0 0 0-.058.445c-.001.2.003.225.055.313.086.146.184.188.422.179.151-.006.208-.018.29-.06zm-21.64-1.514c.215-.113.342-.512.231-.728a1.733 1.733 0 0 0-.161-.228 1.293 1.293 0 0 1-.147-.211c-.083-.197.01-.423.268-.652.259-.23.34-.321.408-.459.15-.305.124-.674-.063-.886-.23-.261-.667-.28-.983-.041-.274.207-.427.641-.323.915.06.155.056.226-.017.326-.117.161-.17.188-.695.347-.183.056-.196.057-.765.06-.664.002-.671.003-.839.192-.127.143-.172.254-.161.402.011.151.085.25.248.335.335.172.802.089 1.091-.195.097-.095.111-.103.147-.078.021.016.158.127.304.247.725.6 1.175.802 1.457.654zm7.649-.167c.218-.058.54-.276.656-.442.147-.213.09-.431-.142-.543-.464-.225-1.072-.07-1.263.32-.145.297-.06.562.212.662.102.037.401.039.537.003zm16.243-1.244c.191-.05.387-.145.471-.229.044-.043.137-.192.214-.341.284-.55.45-.583.877-.177.181.173.254.227.416.307.315.157.524.188.72.108.091-.038.268-.208.46-.443.088-.109.204-.241.258-.295l.098-.099-.137-.16c-.144-.169-.26-.371-.26-.454 0-.068.05-.182.12-.272.112-.141.134-.205.123-.353-.02-.263-.207-.56-.4-.634-.196-.075-.438.002-.673.214-.191.173-.392.476-.392.592 0 .028.03.126.065.217.058.147.062.173.04.228-.03.072-.143.124-.305.141-.146.015-.227-.038-.37-.243-.162-.23-.256-.31-.366-.31-.234 0-.58.263-.923.702a.674.674 0 0 1-.203.175c-.152.082-.38.326-.459.492-.173.363-.116.682.144.811.129.064.293.072.482.023zm-11.745-.115a.794.794 0 0 0 .412-.28c.135-.204.13-.391-.02-.913-.086-.293-.129-.605-.084-.605.013 0 .203.05.422.113.514.145.736.184.989.171.319-.016.54-.115.81-.365.425-.39.587-.875.4-1.193-.135-.231-.502-.396-.838-.376-.251.014-.394.117-.568.409-.188.314-.296.393-.542.393-.18 0-.287-.036-.64-.213-.325-.163-.475-.21-.612-.194a.524.524 0 0 0-.329.169c-.065.061-.117.091-.173.1-.179.027-.31.172-.41.45-.07.201-.072.286-.013.614.062.344.047.43-.146.82-.13.261-.187.414-.188.51-.001.04.322.198.568.28.355.116.73.16.962.11zm6.637-.174c.113-.034.183-.095.204-.179a1.03 1.03 0 0 0-.038-.279 3.974 3.974 0 0 1-.105-.928c.001-.245.008-.29.072-.497.06-.193.07-.258.07-.434.001-.193-.004-.217-.07-.359-.09-.192-.206-.298-.385-.354-.275-.084-.963-.12-1.109-.058-.1.043-.168.137-.243.336-.034.091-.085.222-.113.29-.14.337-.047.6.237.675.16.042.247-.005.554-.302.234-.226.345-.317.364-.297a.958.958 0 0 1 .04.106c.066.199.034.383-.15.858-.135.345-.17.475-.17.647 0 .306.178.651.393.765.092.048.303.053.449.01zm-14.23-1.807a2.99 2.99 0 0 0 .287-.127c.51-.256.714-.27 1.558-.105.237.046.485.084.551.084.295 0 .316-.186.074-.667a2.085 2.085 0 0 1-.109-.233c.004-.003.08-.025.169-.05.198-.054.255-.082.34-.17.078-.079.196-.366.196-.477a.433.433 0 0 0-.061-.186c-.146-.26-.136-.344.07-.561.139-.147.142-.154.212-.394.107-.363.09-.495-.074-.632a.839.839 0 0 0-.384-.147.394.394 0 0 0-.126.028c-.102.043-.473.395-.527.5-.025.05-.062.095-.083.102-.06.018-.195.16-.228.24-.017.039-.043.186-.057.327-.037.377-.089.429-.424.424-.251-.004-.38-.047-.746-.246-.408-.223-.467-.241-.83-.253-.61-.019-.742.065-.741.472 0 .582.121 1.627.21 1.813.117.249.427.36.723.258zm-10.691-.394a.61.61 0 0 0 .378-.565c.01-.2-.031-.33-.137-.44-.106-.109-.181-.153-.489-.286a3.862 3.862 0 0 1-.278-.129c-.007-.007.001-.02.019-.03.116-.065.346-.25.388-.31.068-.101.052-.19-.07-.376-.22-.341-.247-.464-.156-.737.035-.105.064-.217.064-.248 0-.082-.097-.259-.252-.462a1.47 1.47 0 0 1-.169-.269 2.431 2.431 0 0 1-.065-.37c-.05-.432-.107-.611-.228-.724-.047-.044-.075-.052-.19-.052-.128 0-.137.003-.204.076a.513.513 0 0 0-.096.165c-.03.1-.036.567-.01.827l.015.157-.254.011c-.377.018-.59.094-.713.255-.051.068-.059.096-.058.214a.59.59 0 0 0 .36.547c.067.03.233.077.369.104.277.056.348.085.428.18.12.143.284.536.321.77.012.072.035.302.053.512.05.597.108.85.237 1.028.166.229.447.287.737.152zm4.565-.416c.126-.036.178-.093.225-.244a.829.829 0 0 1 .068-.171c.014-.018.136-.105.27-.194.279-.183.365-.264.51-.479.128-.192.173-.314.24-.652.06-.308.168-.636.262-.804.034-.062.152-.23.26-.372.227-.298.35-.535.377-.726.048-.339-.101-.792-.343-1.043-.257-.267-.548-.284-.806-.048-.11.1-.117.104-.206.09-.13-.02-.244.017-.319.102-.083.096-.106.188-.106.435 0 .315.048.606.154.947.16.515.186.685.133.864-.052.175-.248.315-.529.379-.15.034-.16.03-.243-.153-.05-.112-.074-.23-.113-.58-.032-.276-.087-.397-.259-.57-.35-.348-.916-.48-1.283-.3-.458.225-.523.857-.126 1.22a.812.812 0 0 0 .464.226c.063.005.222-.006.352-.025.222-.03.238-.03.276.004.13.118.125.252-.022.508-.124.216-.14.313-.123.716.023.5.16.776.433.873.116.042.298.04.454-.003zm24.073-.523c.284-.14.34-.268.368-.832.034-.706.075-1.053.138-1.176.063-.121.225-.134.423-.033.095.048.109.075.152.295.065.33.17.449.396.449.108 0 .14-.009.189-.05.052-.045.058-.065.061-.192l.005-.192c.002-.078.3-.34.433-.383.093-.029.143.004.233.155.108.182.195.258.343.302.376.109.745-.145.838-.576a.973.973 0 0 0-.054-.539c-.068-.144-.248-.315-.366-.347-.154-.041-.283.013-.574.243-.292.23-.273.223-.63.217-.249-.005-.325.001-.4.03a.283.283 0 0 1-.1.026 1.247 1.247 0 0 1-.038-.159c-.038-.18-.023-.251.071-.348l.066-.068-.065-.133c-.201-.408-.993-.862-1.504-.862-.213 0-.337.063-.396.201-.039.092-.036.164.015.328.041.133.041.14.006.16-.122.069-.192.201-.295.558-.107.374-.163.47-.272.47-.127 0-.365-.22-.654-.605-.56-.743-.854-1.008-1.116-1.008-.17 0-.3.168-.374.486-.032.136-.032.155 0 .263.02.07.098.214.198.366.246.372.278.442.279.602 0 .145-.023.202-.174.435-.154.239-.154.348.003.526.15.17.264.19.596.104.25-.065.335-.064.476.002.18.083.243.143.324.304.13.262.46.732.614.874.172.16.262.196.471.19a.592.592 0 0 0 .314-.083zm6.873-1.401c.062-.049.089-.126.107-.31.018-.17.033-.197.152-.256.163-.083.247-.097.666-.116.493-.022.586-.046.724-.184.115-.115.146-.21.146-.455 0-.285-.11-.687-.274-1.002-.1-.193-.213-.293-.498-.44a.843.843 0 0 1-.21-.14c-.03-.045-.052-.16-.095-.498-.027-.215-.069-.309-.179-.397-.141-.113-.254-.16-.39-.16-.153-.002-.256.048-.38.182-.17.185-.24.41-.227.735.008.19.013.208.11.402.099.196.103.211.116.433.018.289.05.39.17.538.126.153.16.221.16.32 0 .115-.06.167-.35.312a3.38 3.38 0 0 0-.314.171c-.159.118-.192.292-.095.503.076.165.2.327.285.368.102.05.308.047.376-.006zm-16.471-.185c.11-.215-.056-.691-.34-.97-.181-.178-.274-.216-.55-.225a3.868 3.868 0 0 1-.297-.018c-.102-.016-.232-.148-.435-.442-.302-.435-.463-.568-.687-.567a.419.419 0 0 0-.225.06c-.15.082-.213.17-.225.312-.015.186.073.338.367.629.33.327.783.64 1.347.929.422.216.774.348.936.351.065.002.082-.007.109-.059zm2.385-1.79c.116-.05.201-.123.33-.286.172-.216.245-.276.398-.328.208-.071.341-.062.596.042.116.047.26.096.32.108.208.04.68-.02.767-.099.11-.1-.025-.268-.37-.464-.316-.18-.854-.407-1.047-.443a.24.24 0 0 1-.078-.021c0-.004.02-.058.043-.12.058-.157.16-.243.365-.311.214-.071.264-.122.263-.267-.001-.13-.055-.32-.112-.392a1.003 1.003 0 0 0-.238-.15c-.21-.102-.259-.155-.259-.28 0-.087.058-.178.242-.38.197-.216.223-.27.206-.445-.04-.424-.436-.736-.888-.698-.426.035-.717.4-.718.898 0 .127-.002.13-.058.13-.143.001-.363.162-.44.323-.071.145-.082.218-.102.649a4.125 4.125 0 0 1-.104.817c-.096.467-.129.898-.085 1.106a.762.762 0 0 0 .55.613.794.794 0 0 0 .419-.003zm-9.311-.37c0-.212.146-.427.654-.965.29-.306.499-.564.57-.702l.04-.078-.264-.013c-.296-.016-.722.013-.906.06a2.501 2.501 0 0 0-.328.128c-.33.154-.468.126-.612-.125-.1-.174-.086-.233.1-.435.08-.086.09-.108.078-.164-.016-.08-.072-.141-.22-.242-.143-.1-.172-.134-.204-.249a3.142 3.142 0 0 0-.146-.341c-.123-.253-.265-.445-.33-.445-.02 0-.25.099-.511.219-.446.205-.487.22-.692.25-.453.063-.892.028-1.09-.087-.074-.044-.101-.08-.179-.243a1.188 1.188 0 0 0-.394-.484c-.14-.104-.204-.112-.255-.035-.033.051-.034.066-.001.254.018.109.09.37.158.581.136.42.144.458.22 1.014.093.691.168 1.006.26 1.098.056.056.199.05.355-.013.15-.06.31-.154.703-.407.423-.273.57-.346.756-.38.307-.054.491-.03.516.069.02.077-.066.233-.26.477-.172.215-.354.471-.354.496 0 .038.479.288.887.462.609.261 1.075.407 1.31.41l.139.001v-.111zm-9.654-.553a7.16 7.16 0 0 0 .426-.284c.563-.395.874-.738.972-1.069.014-.045.032-.297.041-.558.017-.469.027-.538.118-.822.007-.022-.011-.058-.051-.098-.057-.057-.076-.063-.194-.063-.086 0-.256.032-.5.093a3.38 3.38 0 0 1-.467.093c-.225 0-.497-.128-.902-.425a3.949 3.949 0 0 0-.406-.266.993.993 0 0 0-.524-.106l-.113.014.029.095c.04.134.153.289.338.465.249.238.596.473 1.26.854.117.067.212.127.212.134a.92.92 0 0 1-.15.1c-.41.243-.683.583-.782.972-.05.197-.05.289.002.547.074.36.111.395.411.379.143-.008.218-.023.28-.055zm25.697-1.426c.385-.087.503-.094.845-.051.404.05.706.038.83-.031.15-.084.178-.14.175-.337a3.668 3.668 0 0 0-.048-.612c-.034-.127-.065-.141-.332-.155a4.714 4.714 0 0 1-.362-.032c-.302-.046-1.043-.016-1.52.063-.584.096-.738.2-.735.494.003.25.196.535.448.66.168.085.324.085.7 0zm-30.392-.349c.11-.081.198-.162.285-.262l.073-.084-.031-.106a.62.62 0 0 1-.025-.183c.006-.073.013-.08.141-.133a.741.741 0 0 0 .186-.109c.348-.347.351-.352.352-.647 0-.284-.064-.55-.202-.826-.242-.484-.639-.858-.91-.858-.08 0-.104.011-.17.078-.104.103-.134.242-.12.552.014.275.038.361.124.448l.066.066-.07.054c-.039.03-.136.108-.216.174-.2.167-.275.215-.573.373-.24.126-.265.135-.33.116a.93.93 0 0 0-.201-.02c-.162 0-.277-.043-.558-.209-.331-.196-.469-.19-.63.027-.183.25-.272.579-.23.862.047.328.177.546.387.654a.454.454 0 0 0 .269.06c.247-.001.415-.104.592-.363.122-.177.172-.21.31-.2.142.01.332.098.742.341.373.222.445.254.563.255a.251.251 0 0 0 .176-.06zm18.464-.053c.222-.101.503-.46.503-.643a.824.824 0 0 0-.053-.207c-.065-.173-.068-.275-.012-.365.061-.099.116-.124.31-.143.095-.01.213-.036.262-.057.165-.073.766-.695.912-.944a.26.26 0 0 0 .045-.204.58.58 0 0 0-.336-.48c-.264-.118-.524-.086-1.49.186a2.694 2.694 0 0 1-.441.089l-.172.012-.092.112c-.25.307-.368.825-.32 1.406.012.134.02.307.021.382 0 .076.01.141.02.145a.81.81 0 0 1 .072.211c.086.33.184.471.38.544.102.038.248.022.391-.044zm21.638-.221a.523.523 0 0 0 .26-.23.446.446 0 0 0 .036-.19c0-.105-.012-.148-.077-.27-.212-.395-.23-.442-.239-.631-.01-.227.031-.385.127-.48.038-.037.168-.117.291-.176.151-.074.26-.144.338-.218.268-.252.834-1.033 1.05-1.448.105-.2.112-.252.064-.47a1.444 1.444 0 0 1-.03-.246c-.001-.151-.037-.258-.108-.326-.05-.049-.077-.057-.168-.056-.312.006-.823.361-1.546 1.076-.21.207-.387.373-.392.367-.025-.025-.002-.373.039-.598.085-.464.04-.702-.174-.926-.077-.08-.107-.098-.166-.098-.104 0-.154.089-.271.476a4.146 4.146 0 0 1-.135.395c-.076.15-.214.23-.698.404-.347.126-.477.193-.57.296-.06.066-.076.101-.076.163 0 .139.082.196.4.28.22.059.345.11.345.14 0 .011-.029.036-.064.055-.283.155-.583.396-.722.58a1.256 1.256 0 0 0-.228.636c0 .1.008.124.06.176.08.08.178.084.619.028.28-.036.422-.037.564-.007l.107.023-.01.083c-.052.377.471.99.998 1.169a.571.571 0 0 0 .376.023zm-6.433-1.764l.14-.091.133.062a.693.693 0 0 0 .228.065c.084.004.103-.004.151-.06.03-.035.081-.107.112-.16.033-.057.08-.106.114-.119.095-.036.236-.003.367.086.118.08.123.081.31.081.383 0 .777-.173.933-.41.193-.294.03-.613-.428-.837a1.31 1.31 0 0 0-.44-.138c-.295-.05-.38-.087-.441-.197-.069-.123-.061-.187.033-.281.118-.119.13-.135.148-.216.022-.101-.005-.186-.115-.354-.138-.21-.146-.25-.105-.542.043-.302.029-.388-.083-.502-.097-.1-.227-.153-.329-.134-.04.008-.167.06-.281.115-.352.172-.486.163-.693-.048-.225-.23-.59-.822-.69-1.121a2.696 2.696 0 0 1-.074-.383c-.04-.313-.065-.416-.125-.537-.135-.27-.592-.511-.731-.385-.068.06-.093.168-.08.342.028.382.386 1.308.672 1.74.057.085.17.234.252.33.167.197.197.254.167.31-.052.098-.333.26-.648.374-.214.077-.273.134-.252.247.007.04.059.187.115.327.081.203.102.278.102.374 0 .104.008.129.057.178.08.08.225.14.34.137.053 0 .183-.033.297-.074.239-.087.277-.09.357-.022.188.158.14.356-.228.94-.293.465-.34.616-.231.745.063.075.192.116.432.137.131.01.177.024.224.063.082.07.128.062.29-.042zm-19.273-.82c.285-.143.387-.655.215-1.08-.034-.084-.044-.134-.03-.148a.668.668 0 0 1 .211-.02c.2 0 .216.004.636.152.26.092.356.101.506.05.229-.078.484-.44.504-.714.014-.206-.046-.317-.299-.55-.31-.287-.382-.43-.302-.609.022-.049.13-.185.24-.302.151-.162.2-.227.2-.27 0-.118-.106-.2-.379-.293a1.832 1.832 0 0 0-.287-.072c-.305-.038-.658.14-.776.393-.058.124-.06.2-.01.31.053.113.142.192.305.27l.138.065-.153.174c-.22.25-.505.526-.653.632-.17.122-.317.179-.628.244-.473.099-.602.15-.818.324-.325.263-.442.532-.325.753.054.103.208.253.357.347.228.143.659.346.74.347.042 0 .143.013.222.028.167.031.279.022.386-.031zm-11.49-.299a.844.844 0 0 0 .064-.098c.108-.192.122-.234.122-.37 0-.119-.01-.158-.082-.3a3.313 3.313 0 0 0-.248-.385c-.219-.293-.258-.367-.443-.837-.186-.472-.286-.675-.414-.846a.937.937 0 0 0-.397-.305l-.085-.03-.068.228a1.216 1.216 0 0 0-.06.282l.009.056h-.363c-.408 0-.58.025-.736.11a.374.374 0 0 0-.209.288c-.036.243.147.315.807.315h.315l.17.082c.312.151.615.383.922.705.175.184.286.358.34.537.096.317.159.493.194.542.045.064.121.076.162.026zm2.879-.029c.05-.033.147-.133.215-.221.227-.292.29-.365.37-.43.07-.056.095-.064.21-.064.123 0 .15.01.476.176l.345.176h.169a.57.57 0 0 0 .273-.048c.252-.116.357-.3.485-.853.132-.568.222-.708.622-.962.313-.198.35-.273.212-.427a1.95 1.95 0 0 0-.548-.361.966.966 0 0 0-.326-.039c-.202 0-.228.005-.356.066a1.124 1.124 0 0 0-.423.364.965.965 0 0 0-.19.52c-.01.102-.024.167-.04.173-.015.004-.087-.05-.16-.12l-.135-.13-.096-.302a1.816 1.816 0 0 0-.119-.317.262.262 0 0 0-.1-.015c-.23-.001-.245-.11-.047-.333a.341.341 0 0 0 .079-.158c.009-.057.055-.139.145-.26.143-.192.173-.278.139-.403-.055-.198-.155-.272-.426-.314-.33-.051-.41-.121-.51-.442-.12-.392-.204-.497-.485-.613-.304-.125-.361-.162-.449-.29l-.034-.05-.11.05c-.059.028-.166.108-.238.178-.339.33-.33.768.018.974.033.02.06.04.06.047a.413.413 0 0 1-.075.084.549.549 0 0 0-.174.363c0 .086.01.106.08.173.09.086.178.115.579.195.306.06.447.126.606.281.097.094.121.132.14.219.022.11.002.242-.069.44a.555.555 0 0 0-.032.14.345.345 0 0 1-.054.136c-.066.104-.215.41-.215.44 0 .012.072.115.16.229.26.334.263.338.219.354-.484.17-.779.366-.867.577a.655.655 0 0 0 .013.423.991.991 0 0 0 .305.374c.128.082.235.081.358 0zm22.441-.278a.663.663 0 0 0 .146-.096c.19-.168.184-.29-.036-.711-.172-.329-.245-.532-.197-.548.12-.04.446-.231.558-.328.142-.123.623-.648.782-.852.18-.232.225-.386.159-.544-.017-.04-.04-.13-.051-.202-.063-.388-.364-.686-.81-.8a2.102 2.102 0 0 0-.765 0c-.337.088-.51.265-.533.542-.013.163.042.3.143.354.058.032.104.037.276.03.423-.019.525-.015.56.02.052.053.07.168.04.257-.06.173-.242.28-.724.425-.16.049-.323.105-.364.125-.079.04-.215.203-.283.34-.156.316-.099.757.164 1.251.32.601.646.858.935.737zm-30.277-.16a.642.642 0 0 0 .378-.23c.047-.07.057-.108.056-.211-.001-.141-.044-.243-.179-.419-.099-.13-.174-.162-.416-.183-.24-.02-.345-.07-.385-.187-.027-.077-.026-.092.01-.166.034-.07.07-.097.267-.199.177-.092.252-.145.337-.238.243-.265.377-.528.377-.74a.961.961 0 0 0-.16-.466c-.16-.227-.389-.346-.864-.445-.148-.03-.498-.112-.777-.181-.618-.153-.779-.165-.862-.068-.042.048-.05.075-.04.132.01.064.001.08-.078.158-.102.099-.121.162-.084.271.052.152.26.318.66.528.28.146.327.18.457.333.19.222.185.196.186 1.03 0 .702.003.741.046.87a.792.792 0 0 0 .117.22c.167.194.545.27.954.191zm25.193-.696c.045-.031.149-.133.23-.225.155-.177.349-.323.476-.359.108-.03.263-.026.496.012.38.062.557-.006.744-.288.244-.367.256-.735.028-.9-.17-.124-.455-.138-.71-.036-.172.069-.238.067-.393-.011a.734.734 0 0 0-.244-.075c-.214-.02-.294.06-.43.429-.102.274-.17.408-.251.495-.078.083-.095.073-.184-.108-.108-.22-.129-.338-.15-.853-.023-.547-.04-.66-.118-.816-.158-.311-.536-.409-1.216-.313-.801.112-1.129.13-1.532.084-.292-.033-.28-.027-.254-.117.011-.043.017-.166.013-.275a.832.832 0 0 0-.254-.595c-.223-.241-.501-.366-.79-.353-.146.006-.176.014-.245.066-.109.083-.143.176-.13.353.008.122.027.177.122.362.17.332.748 1.204.907 1.368.267.273.598.37 1.268.372.211 0 .295-.01.502-.06.339-.084.423-.094.552-.067a.74.74 0 0 1 .5.458c.017.052.046.229.064.393.064.566.151.728.535.99.2.136.337.157.464.07zm17.652-2.798c.068-.042.152-.156.274-.372.085-.152.14-.2.258-.227.132-.029.188-.012.337.102.068.053.157.108.196.124.04.015.2.088.358.16.456.213.68.235.908.091a.922.922 0 0 0 .264-.287c.052-.1.084-.376.105-.889.012-.293.026-.546.032-.562.02-.057.01-.614-.013-.725-.035-.17-.132-.357-.229-.445-.122-.11-.27-.17-.513-.21-.242-.04-.411-.021-.487.055-.07.07-.055.232.056.569.11.334.147.602.09.649a.48.48 0 0 0-.075.144 1.111 1.111 0 0 1-.13.23 1.041 1.041 0 0 0-.132.257c-.054.163-.106.229-.208.262-.085.028-.156.02-.502-.062-.38-.09-.94-.19-1.12-.203-.406-.028-.631.158-.656.542-.008.13-.003.167.043.266.143.312.561.571.923.572.118 0 .168-.009.221-.041zm-29.561-.142l.058-.013-.066-.124a8.368 8.368 0 0 0-.23-.383 5.786 5.786 0 0 1-.225-.382c-.094-.192-.076-.232.239-.538.14-.137.27-.278.288-.315.058-.117.042-.219-.08-.502-.17-.396-.18-.514-.075-.925.065-.254.074-.39.036-.539-.056-.216-.108-.291-.386-.563-.334-.326-.367-.376-.394-.601-.04-.317-.058-.356-.28-.58-.17-.174-.267-.218-.439-.196a8.365 8.365 0 0 1-.287.029c-.195.016-.243.046-.28.177-.036.134-.008.464.063.736.102.394.208.618.422.896.53.689.554.73.638 1.138.066.318.123.457.235.579.044.047.063.08.047.085-.245.07-.411.21-.492.416-.04.104-.048.16-.048.361 0 .202.009.264.055.404.14.423.436.727.804.826.115.03.295.037.397.014zm24.736-.13a.831.831 0 0 0 .394-.45c.017-.052.04-.187.05-.298.029-.295.08-.355.34-.392l.152-.022.247.116c.136.064.288.125.338.137.122.027.353-.012.674-.114.188-.06.264-.12.384-.303.101-.155.119-.252.066-.372-.043-.097-.122-.168-.385-.347-.231-.158-.272-.218-.271-.401 0-.143.005-.155.163-.454.145-.275.164-.323.173-.445.012-.165-.016-.242-.15-.416-.14-.182-.218-.234-.365-.245a.367.367 0 0 0-.236.047l-.114.056-.11-.094a1.061 1.061 0 0 0-.21-.138c-.178-.08-.263-.036-.614.315-.286.286-.36.422-.36.668 0 .158.005.174.093.332.192.346.215.403.225.575.009.153.005.169-.067.316-.065.13-.13.21-.413.5-.486.5-.555.617-.556.936 0 .27.08.446.24.52.099.045.187.037.312-.027zm-33.822-.804c.431-.062.701-.407.567-.725-.06-.144-.265-.3-.444-.339-.037-.008-.068-.019-.068-.024 0-.006.027-.033.06-.06.054-.046.322-.403.309-.412a4.9 4.9 0 0 0-.177-.051c-.23-.065-.373-.055-.466.034-.062.058-.08.064-.243.072-.37.018-.58.21-.498.459.04.117.166.207.444.315.441.171.483.284.237.643l-.059.086.078.008.098.011a1.4 1.4 0 0 0 .162-.017zm-5.148-.845a.348.348 0 0 0 .196-.227c.012-.042.035-.226.05-.41.039-.457.087-.544.299-.544.127 0 .209.085.344.36.145.296.215.39.333.447a.297.297 0 0 0 .194.034c.144-.017.304-.091.357-.167.04-.056.046-.086.041-.246-.008-.291.01-.306.43-.327.165-.008.327-.025.36-.038.033-.013.127-.091.21-.174.25-.25.239-.348-.064-.575-.285-.214-.351-.338-.299-.557a.373.373 0 0 1 .274-.277c.06-.018.234-.047.387-.065.381-.044.494-.09.706-.287.228-.21.166-.343-.209-.443-.26-.07-.46-.091-.728-.08-.297.012-.383-.005-.402-.08-.02-.084.008-.224.083-.406.083-.2.085-.198-.153-.2a.559.559 0 0 0-.546.345c-.037.083-.044.088-.127.088a.55.55 0 0 1-.184-.043c-.118-.052-.206-.047-.215.013-.009.063.093.241.292.513.14.191.181.263.194.34.026.163.017.34-.022.421-.074.156-.234.162-.653.028-.304-.097-.37-.109-.41-.07-.016.017-.033.002-.064-.057-.065-.126-.152-.197-.257-.209-.184-.02-.404.126-.744.496-.363.396-.435.461-.545.502-.456.167-.56.225-.635.355-.085.145-.066.397.044.57.132.207.431.272.682.148a.415.415 0 0 1 .127-.05c0 .006-.014.057-.031.113-.093.306.029.65.268.759.111.05.305.05.417 0zm17.44-.218c.261-.106.522-.301.597-.448a.441.441 0 0 0 .04-.182c0-.134.064-.212.224-.272.229-.087.545-.022.866.177.177.111.304.14.482.112.203-.033.472-.17.506-.26.041-.106-.307-.676-.628-1.027-.258-.281-.405-.345-.85-.367-.349-.017-.421-.036-.563-.148-.107-.085-.15-.184-.191-.44a1.142 1.142 0 0 0-.07-.27c-.096-.164-.383-.246-.578-.165-.14.059-.183.12-.286.413a.89.89 0 0 0-.058.383c0 .28.052.429.265.756.167.26.19.323.171.498-.014.143-.08.252-.243.411-.07.068-.148.166-.174.217-.103.206-.12.465-.038.576.087.116.293.13.528.036zm11.911-.094c.17-.104.172-.351.004-.627a.564.564 0 0 1-.06-.117c0-.01.065-.03.145-.043a1.43 1.43 0 0 1 .41.001c.146.014.308.02.36.012.189-.029.351-.185.469-.454l.044-.1-.063-.147c-.08-.19-.104-.297-.08-.36.01-.028.088-.123.172-.211.084-.088.173-.2.197-.247a4.84 4.84 0 0 1 .191-.31c.172-.26.23-.368.273-.516l.033-.109h-.078c-.186 0-.492.119-.696.269-.064.047-.22.19-.346.317-.456.458-.674.63-.767.607-.03-.008-.085-.077-.16-.201a1.294 1.294 0 0 0-.574-.533 2.49 2.49 0 0 0-1.113-.296c-.236 0-.365.024-.503.095-.265.135-.386.402-.337.746.02.143.022.146.161.279.158.15.303.25.71.486.154.088.335.2.404.246l.124.085-.186.013c-.207.014-.248.026-.316.087-.063.056-.06.089.026.215.232.344.715.717 1.055.815.177.05.416.05.501-.002zm6.807-1.647a.564.564 0 0 0 .134-.128c.047-.068.05-.093.05-.314.001-.319.047-.4.303-.53.138-.07.34-.068.646.005.424.1.6.07.942-.159.202-.134.527-.457.662-.655.274-.405.351-.74.231-1.01-.1-.227-.13-.277-.296-.489-.204-.26-.289-.391-.327-.504-.036-.105-.055-.12-.256-.198-.293-.115-.485-.09-.564.076-.03.062-.03.088-.01.191a.59.59 0 0 1 .006.233c-.011.061-.03.28-.041.486-.027.455-.066.608-.192.745a.39.39 0 0 1-.189.122c-.127.038-.325.04-.371.005a.977.977 0 0 1-.12-.206.918.918 0 0 0-.146-.231c-.068-.058-.207-.086-.336-.068-.51.073-.512.073-.64.17a.471.471 0 0 1-.174.092c-.15 0-.382-.257-.349-.388a.708.708 0 0 1 .115-.175c.056-.067.135-.185.175-.261.04-.077.13-.21.197-.294.133-.165.157-.217.136-.3-.028-.112-.597-.616-.897-.793-.25-.15-.35-.176-.667-.177-.256 0-.306.006-.587.077-.693.175-1.048.402-1.048.672 0 .241.273.502.528.502.154 0 .279-.044.655-.229.185-.09.352-.164.372-.164.047 0 .1.171.1.32 0 .163-.06.232-.31.361-.257.132-.333.197-.394.337-.09.208-.06.396.078.486.075.05.27.045.43-.01a.395.395 0 0 1 .134-.033c.006.006.01.092.008.19-.003.18-.016.236-.2.903a1.485 1.485 0 0 0-.064.488c-.002.254-.001.262.06.362.05.082.088.115.2.171.125.063.157.07.328.073l.19.003.036-.114c.094-.3.205-.387.38-.297.036.019.201.166.366.326.4.39.532.45.716.33zm-28.777-.203c.342-.087.43-.156.637-.51.063-.107.15-.24.193-.295.14-.176.374-.247.55-.165.04.019.215.176.385.348.42.422.582.523.766.477a.506.506 0 0 0 .26-.263c.025-.094.018-.141-.068-.504a2.531 2.531 0 0 1-.066-.407c-.002-.156.023-.196.195-.312.051-.035.127-.095.168-.134.07-.067.074-.077.056-.143-.015-.055-.011-.093.015-.163a.687.687 0 0 0-.031-.474c-.158-.325-.676-.595-1.077-.564-.278.023-.474.139-.573.34-.057.115-.059.132-.069.526-.006.224-.015.41-.02.414a2.917 2.917 0 0 1-.083.046c-.1.055-.384.277-.5.392-.15.15-.25.16-.548.058a.398.398 0 0 0-.238-.025c-.306.05-.53.135-.731.279-.483.344-.447.905.07 1.081.19.065.447.064.71-.002zM34.656 28.3c.256-.126.499-.45.615-.82.029-.092.05-.225.056-.365.015-.28-.03-.447-.167-.62-.383-.485-1.526-.932-2.383-.932-.294 0-.412.03-.722.188-.57.29-1.086.742-1.268 1.11-.129.26-.094.457.122.703.095.107.29.207.443.226.147.019.369-.018.739-.123.444-.126.465-.127.676-.051.266.096.3.101.708.107.357.005.383.008.466.056.128.072.17.173.17.399 0 .209-.008.202.242.194a.585.585 0 0 0 .303-.072zm17.98-.23c.072-.022.231-.106.37-.195.353-.227.412-.25.623-.25.207 0 .254.02.562.24.236.168.362.228.483.228.11 0 .192-.04.277-.137.135-.154.23-.43.2-.586-.046-.244-.195-.364-.698-.564-.303-.12-.398-.177-.523-.312-.13-.14-.178-.255-.226-.542-.053-.313-.209-.571-.387-.643a3.568 3.568 0 0 0-.633-.115c-.167 0-.273-.042-.37-.145-.187-.197-.432-.24-.639-.113-.185.115-.27.153-.364.166-.152.02-.223.05-.278.116-.043.05-.053.083-.052.18 0 .159.086.363.333.789.109.188.213.383.232.434.018.051.043.224.055.383.036.47.106.69.278.866a.73.73 0 0 0 .756.2zm-27.293-1.707c.103-.043.203-.136.313-.29.143-.2.3-.276.708-.341a.658.658 0 0 0 .184-.05c.034-.025.032-.033-.028-.12-.264-.384-.989-.744-1.494-.743-.097 0-.194.003-.216.007-.08.012-.127-.297-.064-.418.044-.084.138-.15.342-.24.244-.106.377-.199.515-.36.2-.231.342-.494.442-.817.092-.297.1-.267-.076-.34-.208-.086-.59-.176-1.015-.24a6.538 6.538 0 0 1-1.098-.24c-.63-.188-.783-.226-.962-.237-.145-.01-.189-.005-.248.026-.144.075-.128.235.05.5.12.18.447.559.71.823.198.199.492.422.556.422.075 0-.014.125-.292.414-.297.307-.327.364-.272.53.037.108.127.236.337.477.245.28.263.343.132.471-.122.119-.116.187.027.335.108.113.113.115.326.163.119.027.258.049.31.05.078 0 .105.012.155.064.15.157.47.232.658.154zm-13.16-.65c.24-.106.188-.329-.152-.646-.144-.135-.45-.37-.481-.37-.04 0-.016-.056.085-.203.089-.13.103-.165.103-.252 0-.135-.062-.206-.243-.278a1.76 1.76 0 0 1-.207-.097c-.066-.04-.089-.08-.047-.08.055 0 .215-.095.26-.154.078-.103.093-.233.057-.481-.036-.247-.026-.275.097-.275.072 0 .08.006.112.09a.602.602 0 0 0 .248.29c.165.079.377.014.566-.172l.102-.1-.028.106a.852.852 0 0 0-.027.154c0 .317.327.565.635.482.264-.071.253-.383-.025-.7-.09-.102-.093-.11-.063-.155.043-.066.19-.172.454-.328.32-.188.324-.192.324-.37 0-.17.018-.215.107-.26.083-.044.183-.028.292.044.052.035.13.061.21.072.069.01.183.036.254.06.103.032.141.036.192.019.111-.04.133-.147.062-.305a.458.458 0 0 1-.041-.13c0-.078.235-.271.577-.472.184-.109.4-.241.479-.296.226-.155.311-.324.215-.43a.553.553 0 0 0-.32-.143c-.128 0-.222.06-.446.289-.24.245-.272.259-.65.278-.387.019-.582.096-.818.323-.194.186-.253.216-.439.215a.698.698 0 0 1-.16-.01.726.726 0 0 1 .025-.18.566.566 0 0 0 .01-.287c-.053-.251-.209-.38-.478-.396a.98.98 0 0 0-.244.014.628.628 0 0 0-.332.24c-.095.168-.047.422.12.633.035.044.06.08.054.08-.005 0-.064-.024-.131-.053-.149-.066-.324-.088-.372-.048-.054.044-.025.206.083.457.052.122.095.247.095.278 0 .031-.02.098-.045.149a.236.236 0 0 1-.14.134c-.089.04-.109.04-.313.018a4.077 4.077 0 0 0-.295-.024c-.076 0-.077 0-.077-.089a.394.394 0 0 0-.302-.379c-.17-.032-.369.076-.479.26-.089.15-.09.268-.005.502.058.157.104.388.078.388-.006 0-.073-.029-.15-.064-.175-.083-.363-.102-.497-.05-.321.122-.311.58.021.939.116.124.217.18.547.304.247.092.27.134.27.498 0 .194.033.36.07.36.007 0 .069-.03.138-.065.165-.084.275-.1.333-.047.06.054.073.096.1.328.014.112.034.228.045.257a.354.354 0 0 0 .152.17c.064.028.335.002.435-.042zm28.078-.437c.157-.03.29-.1.347-.186.042-.062.047-.09.038-.202-.013-.166-.11-.37-.361-.762-.295-.458-.277-.403-.309-.928-.044-.733-.103-1.05-.216-1.172-.03-.032-.077-.06-.103-.06-.075 0-.25.196-.297.332a1.242 1.242 0 0 1-.114.226c-.066.1-.074.126-.074.248 0 .127.007.146.098.286.247.378.264.498.161 1.114-.064.384-.078.663-.04.8.04.144.175.263.345.303.11.026.392.026.525.001zm-10.972-.703c.227-.024.978-.142.992-.157.005-.005-.032-.053-.084-.107a9.104 9.104 0 0 1-.26-.294 2.938 2.938 0 0 0-.523-.507 1.13 1.13 0 0 1-.287-.312c-.166-.247-.196-.258-.332-.125-.053.053-.116.096-.139.096-.074 0-.115.049-.127.152-.01.086-.004.107.05.174.195.243.19.391-.026.625-.16.176-.183.214-.154.269.03.056.111.095.303.143.275.07.309.072.587.043zm-12.286-.185c.04-.056.1-.116.131-.132.11-.056.462-.158.545-.158.046 0 .207.041.357.092.467.157.895.216 1.117.155a.447.447 0 0 0 .255-.222c.055-.114.048-.39-.013-.553-.04-.105-.079-.155-.261-.331-.24-.233-.27-.288-.226-.432a.766.766 0 0 1 .225-.33c.036-.028.142-.088.234-.134.206-.103.298-.178.298-.242 0-.069-.13-.173-.362-.288-.369-.182-.665-.199-.875-.048-.14.1-.155.14-.105.282.038.11.038.126.009.282a6.569 6.569 0 0 0-.054.362c-.062.524-.172.73-.435.817-.168.056-.255.034-.638-.16-.317-.16-.346-.171-.469-.171-.112 0-.143.009-.218.062a.732.732 0 0 0-.167.195c-.095.157-.104.272-.041.475a.768.768 0 0 0 .33.444c.245.171.264.173.363.035zm18.12-.735c.56-.057 1.088-.159 1.249-.24a.554.554 0 0 0 .15-.135c.136-.179.092-.289-.179-.44-.065-.036-.123-.083-.13-.103-.032-.1.037-.27.206-.505a.838.838 0 0 0 .133-.687c-.037-.136-.18-.256-.433-.362-.275-.115-.335-.153-.5-.316-.15-.146-.185-.16-.43-.16-.179 0-.27.028-.343.104-.05.052-.06.083-.068.192-.01.161.049.347.271.852.174.395.222.537.222.662v.086l-.217.036c-.705.114-1.034.446-.798.802.074.111.184.217.239.23.083.02.337.013.627-.016zm12.989-.022c.104-.068.136-.168.136-.425v-.232l.08-.076a.634.634 0 0 1 .416-.186c.098 0 .153.018.384.129.265.127.271.13.445.13.224 0 .27-.031.393-.26.143-.265.276-.32.619-.257.233.043.346.032.523-.048.36-.164.42-.335.328-.936-.147-.94-.21-1.106-.47-1.233-.274-.134-.808-.036-.904.165-.05.105-.043.168.052.461.081.25.086.28.085.504-.001.307-.046.462-.137.472-.081.01-.176-.085-.402-.4-.292-.405-.397-.499-.608-.546-.2-.045-.31.027-.519.34a2.84 2.84 0 0 1-.19.255 1.78 1.78 0 0 1-.51.324 2.326 2.326 0 0 0-.54.267c-.191.145-.292.45-.295.891-.002.38.066.59.212.65.17.07.8.078.902.011zm-3.91-1.416c.88-.1 1.469-.62 1.434-1.27-.018-.353-.22-.603-.58-.721-.155-.05-.532-.06-.73-.017-.422.09-1.084.385-1.219.542-.11.128-.157.275-.157.48 0 .38.188.765.449.917.14.083.447.109.803.069zm-13.069-1.047c.024-.028.01-.086-.094-.387a17.093 17.093 0 0 0-.202-.56.896.896 0 0 1-.07-.232c.019-.048.121-.084.427-.15l.3-.066.181.052c.285.083.382.067.496-.08.13-.165.127-.24-.014-.33a.655.655 0 0 1-.138-.113c-.084-.107-.017-.29.23-.622.148-.2.228-.368.228-.481v-.064l.202.01c.122.008.32.04.504.084.37.089.534.108.667.078.177-.04.448-.248.478-.365.02-.082-.04-.168-.16-.229-.138-.07-.18-.082-.485-.142-.3-.059-.529-.15-.651-.257a1.244 1.244 0 0 1-.199-.273 2.428 2.428 0 0 0-.468-.613c-.171-.163-.253-.214-.349-.216-.066-.002-.14.062-.14.121 0 .016-.06.086-.133.155a.95.95 0 0 0-.187.233c-.048.098-.066.17-.136.556a.747.747 0 0 1-.177.387c-.1.111-.15.135-.361.175-.36.068-.496.152-.568.353-.07.197-.14.338-.183.38a.598.598 0 0 1-.18.08c-.42.127-.436.133-.504.201-.053.053-.085.119-.136.283-.112.363-.125.39-.184.414-.102.04-.39.005-.782-.094-.425-.107-.618-.132-.748-.097-.218.06-.384.349-.283.494.083.119.28.167.76.188.36.015.391.02.437.062.086.081.152.235.206.482.03.133.067.269.083.301.078.15.233.24.461.267.128.015.15.003.288-.169.13-.16.167-.189.274-.216.104-.026.134-.014.398.164.243.164.288.185.504.228.245.05.372.052.408.008zm-9.702-.863c.14-.081.286-.254.516-.606.184-.28.245-.355.419-.514.265-.243.442-.452.539-.635l.078-.148-.047-.038a.227.227 0 0 0-.137-.038c-.126 0-.144-.04-.077-.172.037-.074.044-.107.027-.117-.04-.025-.366-.1-.625-.144a6.591 6.591 0 0 0-1.28-.065c-.266.017-.345.032-.713.134-.228.063-.526.15-.663.193-.23.073-.25.084-.285.151-.107.206.043.513.32.653.301.152.585.042.665-.258l.025-.09.186.011c.403.025.823.238.946.478.084.165.053.26-.212.654-.215.318-.258.454-.17.54.092.093.34.098.488.011zm18.756-.736c.23-.06.364-.134.513-.28.144-.14.2-.24.2-.353 0-.107-.11-.212-.413-.393-.247-.148-.417-.288-.468-.386a.394.394 0 0 1-.03-.065c0-.017.175-.123.473-.286.167-.092.352-.2.411-.238.129-.086.483-.42.483-.457 0-.017-.034-.026-.1-.026-.232 0-.464-.19-.562-.458-.158-.435-.198-.536-.252-.644-.069-.136-.184-.273-.268-.316-.074-.038-.19-.038-.412.001l-.18.031c-.03 0-.175.164-.193.219-.028.086-.017.144.074.365.09.217.09.287.004.43a.746.746 0 0 1-.417.314c-.226.074-.64.066-1.16-.022-.495-.084-.807-.093-.932-.029-.12.062-.185.14-.268.32-.1.217-.135.36-.15.627-.016.317.03.596.123.737a.443.443 0 0 0 .346.166c.136-.001.25-.064.477-.262.241-.21.342-.263.504-.262.152 0 .323.06.431.148.17.14.244.447.173.724l-.045.177c-.008.032.007.052.068.086.106.058.347.13.553.164.253.041.804.024 1.017-.032zm-23.375-1.256a.44.44 0 0 0 .118-.112c.1-.148.004-.37-.271-.63l-.16-.152.14-.045c.38-.124.617-.338.657-.592l.013-.08-.183-.05c-.1-.027-.24-.054-.311-.058l-.128-.009-.014-.093a.577.577 0 0 1 .076-.388c.146-.274.167-.322.178-.401.025-.189-.204-.493-.439-.582a1.919 1.919 0 0 0-.526-.104 1.346 1.346 0 0 0-.49.125.802.802 0 0 0-.465.6.425.425 0 0 0 .009.25c.046.16.162.262.444.393.367.169.476.23.544.3l.065.066-.103.052a2.64 2.64 0 0 0-.583.418c-.116.127-.135.203-.066.266.054.049.25.072.465.056l.181-.015-.013.072c-.067.357.087.633.41.739.122.04.363.026.452-.026zm9.529-.143c.36-.093.701-.347.752-.558.03-.123.013-.218-.076-.434-.119-.288-.13-.426-.046-.588a.457.457 0 0 1 .38-.25c.04 0 .162.019.272.042.419.086.56.041.673-.212.055-.124.04-.186-.105-.438-.172-.3-.162-.365.075-.525a.564.564 0 0 0 .18-.17c.042-.084.047-.263.014-.445-.05-.263-.166-.385-.382-.4-.15-.009-.279.027-.487.134-.216.113-.279.175-.33.33a.745.745 0 0 1-.096.194c-.071.085-.208.133-.348.12-.108-.008-.123-.016-.255-.144-.114-.11-.162-.141-.264-.17-.357-.105-.582-.12-.762-.053-.101.038-.117.052-.156.144a.52.52 0 0 0 .005.426c.032.069.136.196.3.367.296.31.355.409.355.601 0 .15-.008.162-.264.419-.158.159-.196.232-.197.379-.001.142.02.184.175.347.145.152.213.289.194.39a.487.487 0 0 1-.12.186c-.103.113-.106.119-.077.17.017.03.08.08.141.112.13.068.259.075.449.026zm22.124-.134c.178-.055.206-.079.24-.202.043-.16.098-.251.173-.287.105-.05.19-.023.353.112l.144.12.197-.007c.256-.008.348-.032.364-.096.007-.027.01-.173.005-.325-.008-.322-.037-.414-.205-.672-.353-.54-.774-.63-1.06-.226-.028.04-.034.04-.213.005-.399-.077-.61-.035-.741.147-.127.174-.152.293-.166.79a7.155 7.155 0 0 1-.024.49c-.01.036.005.056.07.096.156.1.245.119.491.11.156-.007.274-.024.373-.055zm-2.747-.448c.143-.106.17-.22.088-.38-.026-.05-.202-.249-.403-.453a4.83 4.83 0 0 1-.413-.462.427.427 0 0 1-.036-.348c.028-.072.127-.168.246-.236.292-.168.3-.184.316-.672.01-.29.021-.398.046-.445a.555.555 0 0 1 .19-.155c.18-.106.213-.158.18-.282a.692.692 0 0 0-.204-.314c-.135-.096-.422-.13-.709-.085-.21.033-.262.056-.42.19-.175.146-.256.185-.398.189-.098.002-.108-.002-.185-.09-.159-.183-.399-.412-.494-.472l-.097-.062.254-.227c.288-.256.401-.403.441-.574a.635.635 0 0 0-.04-.399c-.057-.11-.247-.26-.49-.385-.426-.219-.482-.278-.602-.632a1.42 1.42 0 0 0-.111-.253c-.1-.15-.27-.194-.513-.13-.354.091-.511.283-.511.619v.126l-.208-.02c-.184-.016-.217-.014-.294.021a2.1 2.1 0 0 0-.51.393c-.32.35-.228.565.251.584.111.005.202.017.202.027 0 .01-.043.184-.095.386-.166.644-.128.87.144.86a.803.803 0 0 0 .399-.158c.112-.098.151-.198.185-.474.036-.292.084-.41.2-.494.136-.098.402-.164.67-.164.233 0 .318.068.25.2a3.241 3.241 0 0 1-.189.263 1.525 1.525 0 0 0-.17.254.662.662 0 0 0 .042.222c.083.266.066.414-.056.494a2 2 0 0 1-.264.107c-.349.122-.392.163-.408.387-.012.173 0 .226.08.316.096.109.229.13.547.086.136-.018.292-.033.345-.033.087 0 .104.008.16.078.036.042.102.149.147.236l.083.16.119.022c.554.108.535.101.647.212.057.056.135.164.174.24.038.076.087.16.11.188.038.047.039.059.013.156-.055.207-.044.25.106.402.073.075.181.216.239.313.208.348.42.586.61.683.1.052.256.045.336-.015zm-8.967-3.15c.165-.063.342-.237.381-.378.075-.269-.098-.521-.43-.628l-.11-.035.064-.05c.035-.028.107-.113.16-.189.054-.075.115-.157.136-.181.038-.044.038-.045-.007-.056a3.377 3.377 0 0 0-.235-.037.833.833 0 0 0-.322.002 2.288 2.288 0 0 1-.341.03c-.17.001-.222.01-.293.047-.144.077-.211.227-.184.41.026.174.153.273.521.406.362.13.415.272.216.568-.044.066-.076.129-.07.14.022.034.382 0 .514-.05zm-15.507-.208c.074-.058.088-.176.049-.403a1.094 1.094 0 0 1-.024-.193c.019-.019.163.048.393.183.288.168.41.214.571.212.167-.001.28-.064.333-.185.039-.087.04-.106.016-.268-.033-.218-.023-.233.13-.2.06.013.193.059.296.102.172.072.204.096.438.323.3.29.42.359.596.34.186-.018.382-.14.456-.283.073-.142.002-.37-.197-.624l-.101-.13.223-.076c.368-.123.476-.179.51-.262.073-.173.022-.302-.176-.442-.213-.15-.196-.23.12-.563.343-.361.406-.523.317-.815-.07-.23-.291-.494-.53-.635-.326-.19-.768-.237-.993-.105-.152.088-.183.23-.093.418.047.098.29.36.47.505l.088.071-.201.166c-.415.34-.484.541-.283.822l.07.1-.108.05a.517.517 0 0 1-.238.051c-.113 0-.15-.01-.31-.096-.373-.197-.413-.215-.515-.231a.804.804 0 0 0-.176-.008c-.064.007-.077.02-.127.125a.666.666 0 0 1-.476.406c-.136.04-.252.02-.318-.052-.07-.078-.365-.22-.53-.256-.188-.04-.316-.123-.363-.235-.03-.07-.03-.197-.001-.406.004-.03-.023-.055-.112-.1-.375-.187-.84-.134-.965.109-.06.115-.05.222.034.404l.06.125-.106.004c-.142.007-.31.09-.375.187a.291.291 0 0 0-.021.292.64.64 0 0 0 .253.222c.026.006.047.016.047.021 0 .006-.054.086-.122.179-.265.368-.302.553-.148.74.09.11.19.152.284.12.093-.03.211-.136.333-.297.115-.152.275-.322.305-.322.011 0 .044.035.073.077.08.119.446.492.62.632.151.122.37.243.438.243a.192.192 0 0 0 .087-.042zm11.004-.583c.092-.057.09-.183-.009-.488a3.754 3.754 0 0 1-.093-.334c-.036-.191.027-.321.183-.376.063-.021.076-.018.168.046.055.039.21.168.345.288.347.31.479.412.597.468.193.09.262.048.276-.17.007-.114.001-.144-.047-.226-.143-.244-.881-.91-1.262-1.138-.03-.018-.032-.041-.01-.234.047-.435-.058-.673-.269-.605l-.1.035c-.014.006-.032-.02-.045-.066-.026-.097-.078-.154-.139-.154-.26 0-.3.934-.057 1.292l.055.08-.06.043c-.227.162-.455.46-.525.688-.057.184-.056.399.001.518.087.178.273.287.596.347.174.033.328.028.395-.014zm-3.783-1.963c.044-.022.139-.098.21-.17.15-.146.191-.249.155-.382-.028-.101-.076-.167-.27-.37-.126-.133-.16-.182-.16-.23 0-.05.06-.125.355-.436.335-.354.362-.378.47-.41.17-.05.368-.043.644.025.163.04.294.06.415.06.169.002.187-.003.356-.087.346-.17.452-.412.283-.644-.118-.164-.386-.291-.61-.291-.132 0-.183.022-.41.181-.14.1-.174.113-.256.112-.13-.003-.212-.033-.44-.16a2.09 2.09 0 0 0-.249-.123 3.725 3.725 0 0 1-.295-.128c-.293-.138-.39-.149-.539-.062-.193.113-.204.192-.049.36.133.143.159.189.159.276 0 .037.02.106.044.155l.044.087-.067.135a.862.862 0 0 1-.128.194 2.318 2.318 0 0 1-.355.204c-.319.157-.301.136-.272.315.02.12-.017.197-.133.283-.15.11-.192.165-.204.266-.02.175.125.368.424.565l.304.201c.067.045.16.095.207.11.105.034.26.02.367-.036zm9.535-.75a.37.37 0 0 0 .096-.304c-.022-.097-.168-.232-.344-.315a5.73 5.73 0 0 0-.518-.189c-.345-.11-.37-.12-.449-.207a1.017 1.017 0 0 1-.218-.401c-.066-.225-.171-.315-.448-.387-.174-.045-.289-.032-.471.052-.122.056-.165.066-.244.057-.149-.017-.167-.047-.137-.222.013-.08.025-.18.025-.223 0-.084-.06-.198-.118-.228-.044-.023-.325-.053-.468-.05-.186.003-.37.164-.429.376a.804.804 0 0 0 0 .352c.017.058.555.743.89 1.132a.293.293 0 0 0 .125.068c.113.03.187.005.364-.126.168-.124.207-.135.354-.102.096.021.138.048.264.163.118.108.192.156.354.227l.458.202c.334.147.515.195.704.189.131-.005.156-.012.21-.064z"/></svg>