<svg xmlns="http://www.w3.org/2000/svg" width="64" height="64"><path d="M28.667 62.83C16.65 61.609 5.777 52.76 2.38 41.089c-3.892-12.096.67-26.286 10.896-33.802 9.755-7.566 24.076-8.421 34.6-1.917 10.818 6.28 16.946 19.575 14.642 31.906-1.81 11.22-10.325 20.92-21.146 24.24-4.081 1.334-8.438 1.76-12.705 1.316zm12.494-10.12c4.203-.475 2.924-5.73 1.17-8.076-1.217-1.655-5-5.716-1.959-6.808 1.86 1.024 4.69 4.18 6.187.906.693 3.05 5.375 3.816 4.73-.166.712-4.239-4.128-2.198-4.91-1.067-.445-2.545-3.595-3.729-3.97-5.82 1.296-1.88 7.886-3 5.114-5.735-3.123-1.19-4.772 3.195-7.706 2.256-1.283-1.8 4.37-5.541.924-5.766-1.398.911-4.522 5.008-4.396.957.074-3.433 2.515-6.68 1.244-10.127-2.14-3.433-6.334.584-5.256 3.628-.003 2.797 1.165 5.758.068 8.453-2.791 3.46-2.807-3.599-3.741-5.227-.738-4.323-6.53-2.772-5.686 1.239-.346 3.327 3.928 4.547 4.53 7.455-1.282.098-5.42-3.205-4.787.43 3.237 1.828-1.068 3.11-2.655 1.566-2.107-1.56-7.027-2.492-7.519 1.07-.373 1.727.696 2.96 2.164 3.727 3.74.815 7.485-1.989 11.23-.774 1.813 1.854-3 6.014 1.513 6.72 1.554-1.355 3.332-3.349 4.2-.25 1.91 2.025 2.65-4.342 4.056-.652.615 3.758-.35 8.4 2.827 11.237.734.57 1.654 1.203 2.628.824zm-8.277-.745c.892-2.036 1.04-6.26-1.013-7.222-2.17 1.465-4.173 6.274-1.023 7.671.683.187 1.55.137 2.036-.45zm-14.448-2.137c3.083-2.304-4.593-3.287-1.576-.1.48.242 1.066.358 1.576.1zm4.255-2.06c1.81-2.788-3.224-8.173-4.21-2.954-.743 2.46 2.29 4.393 4.21 2.953zm2.75-3.817c1.77-2.83-3.15-5.529-3.011-1.53.283 1.114 1.928 2.483 3.01 1.53zM20.356 26.33c.922-2.93-2.772-6.117-5.473-6.995-4.05-.396-2.335 5.448.587 5.89 1.523.508 3.259 1.544 4.886 1.105zm24.109-5.679c1.607-1.672 5.377-3.642 4.003-6.298-3.295-1.114-6.672 2.856-5.76 5.988.454.598 1.124.792 1.757.31z"/></svg>