<svg xmlns="http://www.w3.org/2000/svg" width="64pt" height="64pt" viewBox="0 0 64 64"><path d="M30.395 63.898a32.848 32.848 0 0 0-1.61-.148 34.502 34.502 0 0 1-1.672-.152l-.87-.098-.868-.2c-.852-.195-.89-.206-3.305-.948l-2.437-.754-.867-.45a93.902 93.902 0 0 0-1.473-.746c-1.988-.972-3.121-1.636-4.34-2.55-.621-.465-.765-.586-1.941-1.63-1.137-1.007-1.328-1.187-1.828-1.706a16.95 16.95 0 0 1-1.137-1.29 17.822 17.822 0 0 0-1.149-1.308l-.574-.602-.488-.71c-.445-.653-.524-.774-.883-1.438a68.686 68.686 0 0 0-.84-1.496c-.797-1.379-1.191-2.129-1.582-3.008-.336-.758-.355-.805-.59-1.55a46.04 46.04 0 0 0-.543-1.606c-.296-.828-.304-.844-.5-1.668a27.426 27.426 0 0 1-.597-3.281c-.09-.77-.11-1.012-.2-2.54L0 32.33l.05-.919c.036-.68.048-1.137.048-1.754v-.84l.152-.793c.082-.433.21-1.191.29-1.68.14-.863.147-.91.35-1.66.114-.421.297-1.16.407-1.636l.203-.871.32-.75c.18-.41.473-1.121.657-1.578.3-.758.359-.887.675-1.493.192-.363.54-1.046.778-1.515l.43-.86.91-1.433.906-1.434 1.726-1.937c1.664-1.867 1.746-1.957 2.332-2.516.567-.539.7-.652 1.93-1.644 1.305-1.055 1.328-1.075 1.992-1.508a44.871 44.871 0 0 1 3.024-1.766c.644-.344.855-.445 2.246-1.062 1.41-.625 1.605-.703 2.37-.98l.837-.302 1.722-.406c1.348-.32 1.895-.441 2.497-.55l.77-.141.89-.051c.703-.04 1.066-.07 1.722-.152L31.062 0h.829c1.265 0 1.957.05 4.132.3l1.739.2 1.726.398 1.73.399.75.297c.614.246.903.347 1.575.554l.82.25.844.442c.465.242 1.137.582 1.492.754.356.176 1 .5 1.43.726l.781.407 2.031 1.523c2.012 1.504 2.04 1.523 2.684 2.098.602.535.734.664 1.805 1.785l1.156 1.207.5.73c.324.473.668.946.973 1.332.312.395.648.852.98 1.34.473.688.535.79.906 1.477.473.879 1.02 2 1.508 3.097l.356.801.492 1.559c.449 1.43.508 1.629.691 2.398.153.64.235 1.035.344 1.668.078.457.215 1.219.3 1.692l.16.859.099 1.707c.125 2.098.132 2.754.05 4.258l-.047.91-.308 1.64c-.41 2.169-.602 2.989-.953 4.122a50.083 50.083 0 0 1-1.14 3.277c-.27.684-.34.836-.626 1.379-.18.34-.523 1.012-.766 1.496-.406.813-.472.934-.89 1.598-.426.68-.512.797-1.496 2.11l-1.047 1.386-1.14 1.281c-1.052 1.18-1.184 1.324-1.755 1.867-.652.621-1.117 1.012-2.55 2.133-.633.496-.664.52-1.442.988-.437.266-1.11.688-1.488.934-.543.355-.844.535-1.422.844-.676.367-.844.445-2.285 1.086L43.03 62l-.843.242c-.47.133-1.22.356-1.668.496-.649.203-1 .301-1.665.457l-.84.203L32.93 64l-.864-.004h-.859zm1.832-16.097c8.03-.07 14.664-.133 14.738-.133h.14l-1.25-1.234-.835.011c-.461.004-6.684.059-13.833.117-7.144.06-12.996.114-13.003.122l-.625.632-.606.614h.336c.188 0 6.91-.059 14.938-.13zm-14.801-3.59l-.067-13.754-.054-12.125-.528-.52a16.554 16.554 0 0 0-.535-.511c-.012.012.059 29.363.07 29.527l.008.145 1.117-1.133zm30.351-12.102c-.043-7.464-.082-13.957-.082-14.425 0-.47-.004-.856-.011-.856-.012 0-.266.258-.57.567l-.555.566.132 27.719 1.157 1.14.004-.57c.003-.313-.032-6.676-.075-14.14zm-15.57 11.602c5.352-.043 9.973-.078 10.262-.078l.531-.004-1-.988-1-.985h-.531c-.293 0-4.34.028-8.992.067l-8.461.07-.985.992a87.28 87.28 0 0 0-.984 1.008c-.004.004.32.008.715.004.39-.004 5.093-.043 10.445-.086zM22.18 41.035l.16-.172-.027-8.812-.028-8.817-1.008-.992a115.69 115.69 0 0 0-1.007-.988c-.004.004.09 21.598.093 21.617 0 .004 1.559-1.57 1.817-1.836zm21.5-9.191c-.024-5.996-.047-10.903-.051-10.907-.004-.003-.453.442-.996.993l-.985 1 .012 2.133c.004 1.171.02 5.183.031 8.917l.02 6.786 1.004.992c.55.547 1.004.992 1.008.992.004-.004-.016-4.91-.043-10.906zm-10.953 6.832c2.851-.024 5.187-.043 5.191-.047a505.12 505.12 0 0 0-3.227-3.176c-.011-.004-1.25.012-2.754.035l-2.734.047-1.195 1.207c-.66.66-1.367 1.38-1.574 1.594l-.38.39.743-.007c.41 0 3.078-.024 5.93-.043zm-5.25-3.004l.976-.988v-5.375l-1.316-1.297c-.723-.715-1.446-1.422-1.602-1.578l-.285-.278v11.77l.625-.633 1.602-1.621zm11.27-3.817l-.005-5.98-.949.957c-.523.527-1.242 1.258-1.602 1.621l-.648.664V34.7l.855.844c.47.46 1.184 1.168 1.586 1.566.403.399.739.727.746.727.008 0 .016-2.691.016-5.98zm-6.259-3.351l2.102-.035.887-.899c.488-.492 1.195-1.21 1.57-1.59l.683-.695h-.671c-.918 0-10.977.078-10.98.086-.005.004.718.723 1.608 1.598l1.618 1.593.539-.011c.297-.008 1.488-.028 2.644-.047zm.106-6.227l8.172-.066.847-.856c.465-.472.91-.921.985-1.003l.14-.145h-.629c-.347 0-4.945.035-10.222.082-5.274.043-9.883.078-10.242.078l-.653.004 1.004.988 1 .989.711-.004c.39 0 4.39-.028 8.887-.067zm.273-4.836l12.715-.105 1.242-1.258-.078-.004c-.14-.008-29.726.348-29.738.36-.004.003.246.261.558.57l.57.558 1.009-.007c.554-.004 6.73-.059 13.722-.114zm0 0"/></svg>