<svg xmlns="http://www.w3.org/2000/svg" width="64" height="64"><path d="M28.325 62.81c-2.913-.301-5.714-1.105-8.384-2.241-5.657-2.453-10.617-6.577-13.992-11.736-4.877-7.347-6.232-16.804-3.833-25.268 1.184-4.33 3.502-8.309 6.226-11.823C13.747 5.903 21.193 1.725 29.216 1.133 36.27.442 43.551 2.314 49.384 6.301c5.87 3.937 10.324 10.044 12.448 16.716 1.369 4.315 1.304 8.932 1.019 13.433-.462 2.865-1.224 5.596-2.432 8.25-3.624 8.001-10.828 14.297-19.194 16.944-3.117.94-6.428 1.522-9.735 1.35-1.053-.042-2.126.018-3.165-.184zm-7.757-9.834c4.734-3.043 8.67-7.706 9.628-13.382.51-1.431.336-3.772-1.102-1.478-1.4 2.4-1.605 5.407-3.375 7.675-1.739 3.085-4.786 5.008-7.709 6.824-.43 1.583 1.962.894 2.558.36zm-1.86-4c1.417-2.613 1.761-5.887 3.77-8.29 1.887-2.582 4.312-4.87 7.25-6.215.334-2.472-4.086.079-5.023 1.235-4.365 3.236-7.235 8.582-7.244 14.02.375.501.989-.614 1.246-.75zm31.17-2.64c-1.579-2.614-5.228-2.006-7.5-3.77-3.52-1.743-6.1-4.866-7.907-8.284-2.58.1.777 4.796 2.048 5.972 3.28 3.65 8.086 6.343 13.079 6.226l.28-.144zm3.596-.702c.128-3.11-2.981-5.415-4.939-7.556-2.908-2.443-6.358-4.023-10.157-4.415-3.358-.707 1.261 2.929 2.697 2.381 4.906 1.53 9.234 5.17 11.451 9.854.327.184.938.55.948-.264zM36.05 30.502c4.626-2.462 8.538-6.67 9.93-11.794.662-1.519 1.445-6.616-.954-3.291-1.227 3.807-2.558 7.905-5.708 10.638-1.047 1.846-5.351 2.464-4.704 4.493.455.207.986.122 1.436-.046zm-9.292-.206c-1.056-2.813-5.447-2.138-7.645-4.048-3.31-1.845-5.81-4.828-7.564-8.108-2.284-.495-.294 3.426.824 4.306 3.253 4.49 8.458 7.532 13.994 8.018l.391-.168zm3.92-1.378c-.886-3.533-3.856-6.143-6.585-8.361-2.839-1.849-6.226-2.888-9.607-3.205-.406 2.19 4.486 2.501 6.285 3.58 3.701 1.678 6.801 4.836 8.684 8.5.337 1.082 1.449.342 1.222-.514zm5.153-4.468c.978-5.55 4.991-10.313 9.995-12.775.89-2.56-3.446-.43-4.281.766-4.317 3.245-7.494 8.186-7.889 13.624-.222 1.975 2.206-.908 2.175-1.615z"/></svg>