<svg xmlns="http://www.w3.org/2000/svg" xml:space="preserve" width="80" height="80"><path d="M40 .152C62.004.152 79.848 17.996 79.848 40c0 22.004-17.844 39.848-39.848 39.848C17.996 79.848.152 62.004.152 40 .152 17.996 17.996.152 40 .152z" style="fill:#0a0a0d;fill-opacity:1;fill-rule:evenodd;stroke:#1f1917;stroke-width:.303643;stroke-linecap:butt;stroke-linejoin:miter;stroke-miterlimit:10;stroke-dasharray:none;stroke-opacity:1"/><path d="M40.001 17.344v-7.86c16.85 0 30.515 13.665 30.515 30.516 0 16.85-13.665 30.516-30.515 30.516v-7.861c12.51 0 22.656-10.145 22.656-22.656 0-12.51-10.146-22.655-22.656-22.655zm0 7.86v7.86a6.936 6.936 0 0 1 0 13.872v7.86c8.17 0 14.795-6.626 14.795-14.796 0-8.17-6.625-14.796-14.795-14.796zM40 33.065v13.87a6.936 6.936 0 0 1 0-13.87z" style="fill:#fff;fill-opacity:1;fill-rule:evenodd;stroke:none;stroke-width:1.40575"/><path d="M40 17.344v7.86c-8.17 0-14.796 6.626-14.796 14.796 0 8.17 6.626 14.795 14.796 14.795v7.86c-12.51 0-22.656-10.145-22.656-22.656 0-12.51 10.145-22.655 22.656-22.655z" style="fill:#fff;fill-opacity:1;fill-rule:evenodd;stroke:none;stroke-width:1.40575"/><path d="M40 9.484C56.85 9.484 70.516 23.15 70.516 40c0 16.85-13.666 30.516-30.516 30.516C23.15 70.516 9.484 56.85 9.484 40 9.484 23.15 23.149 9.484 40 9.484z" style="fill:none;stroke:#fff;stroke-width:1.19546;stroke-linecap:butt;stroke-linejoin:miter;stroke-miterlimit:10;stroke-dasharray:none;stroke-opacity:1"/></svg>