<svg xmlns="http://www.w3.org/2000/svg" width="64pt" height="64pt" viewBox="0 0 64 64"><path d="M48.129 44.031c-10.844.016-21.688.032-32.527.051l-8.118 4.676c16.254-.02 32.508-.04 48.762-.063-2.707-1.554-5.41-3.11-8.117-4.664zm9.008 3.07C48.984 33.044 40.832 18.985 32.68 4.93c.07 3.164-.102 6.398.117 9.523 5.41 9.324 10.816 18.652 16.223 27.98 2.707 1.555 5.414 3.11 8.117 4.669zm-50.586.07c8.094-14.085 16.187-28.167 24.277-42.253-.05 3.164.14 6.394-.062 9.523L14.664 42.496l-8.113 4.676zM31.926 0C21.609-.082 11.508 5.266 5.684 13.758c-6.645 9.387-7.551 22.43-2.254 32.637C8.375 56.398 18.883 63.363 30.04 63.94c10.003.707 20.144-3.699 26.534-11.414 7.035-8.304 9.313-20.304 5.778-30.601C58.809 10.879 48.773 2.262 37.312.449 35.535.125 33.727.04 31.927 0zm0 0" fill-rule="evenodd" fill="#010101"/></svg>