<?xml version="1.0" encoding="UTF-8" standalone="no"?>
<!-- Created with Inkscape (http://www.inkscape.org/) -->

<svg
   width="179.99986mm"
   height="180.00038mm"
   viewBox="0 0 179.99986 180.00038"
   version="1.1"
   id="svg5"
   inkscape:version="1.1.2 (0a00cf5339, 2022-02-04)"
   sodipodi:docname="gobo00137.svg"
   xmlns:inkscape="http://www.inkscape.org/namespaces/inkscape"
   xmlns:sodipodi="http://sodipodi.sourceforge.net/DTD/sodipodi-0.dtd"
   xmlns="http://www.w3.org/2000/svg"
   xmlns:svg="http://www.w3.org/2000/svg">
  <sodipodi:namedview
     id="namedview7"
     pagecolor="#ffffff"
     bordercolor="#666666"
     borderopacity="1.0"
     inkscape:pageshadow="2"
     inkscape:pageopacity="0.0"
     inkscape:pagecheckerboard="0"
     inkscape:document-units="mm"
     showgrid="false"
     inkscape:zoom="0.69664703"
     inkscape:cx="343.07187"
     inkscape:cy="405.51382"
     inkscape:window-width="1846"
     inkscape:window-height="1016"
     inkscape:window-x="0"
     inkscape:window-y="0"
     inkscape:window-maximized="1"
     inkscape:current-layer="layer1" />
  <defs
     id="defs2" />
  <g
     inkscape:label="Layer 1"
     inkscape:groupmode="layer"
     id="layer1"
     transform="translate(-14.054956,-40.970625)">
    <path
       id="path1112"
       style="fill:#000000;stroke-width:0.687935"
       d="M 393.27734,154.84961 A 340.15748,340.15748 0 0 0 53.121094,495.00781 340.15748,340.15748 0 0 0 393.27734,835.16602 340.15748,340.15748 0 0 0 733.43555,495.00781 340.15748,340.15748 0 0 0 393.27734,154.84961 Z M 359.125,220.27539 c 8.84147,-0.25665 24.27028,16.18679 28.82617,34.20508 3.89171,15.39135 0.61894,27.13009 -13.20508,47.36523 -14.30527,20.93959 -14.38122,23.4597 -1.29882,44.08399 9.74388,15.36118 9.29687,22.36593 -2.46094,38.50976 -6.63279,9.107 -7.55761,10.74848 -10.73047,19.02735 -1.36212,3.55415 -3.39702,7.50457 -4.52148,8.77929 -8.26481,9.369 -17.63963,-1.55865 -18.89258,-22.02343 -0.72533,-11.84693 -1.72887,-14.38317 -8.96485,-22.65625 -15.58895,-17.82325 -20.09192,-26.80373 -19.12109,-38.12891 0.89709,-10.46507 4.15961,-15.35363 27.50586,-41.21094 19.82078,-21.95265 21.59557,-26.37769 18.42773,-45.95312 -2.24868,-13.89558 -2.26098,-14.09375 -1.05859,-17.52344 1.05956,-3.02229 3.01853,-4.40275 5.49414,-4.47461 z m 138.12109,28.63672 c 8.91492,-0.13261 17.56575,16.89335 12.68164,37.11719 -4.26829,17.67391 -13.25125,26.57866 -36.27734,35.95508 -13.28315,5.40901 -14.85949,6.26164 -17.85351,9.66992 -3.59925,4.09719 -4.64653,8.17418 -4.24805,16.52539 1.23023,25.78395 -1.88478,30.68691 -24.8086,39.05078 -6.12944,2.23638 -9.77659,4.29609 -16.80859,9.49805 -2.14545,1.58709 -4.70284,3.16047 -5.68359,3.49609 -11.64718,3.98513 -17.7985,-6.92852 -11.32617,-20.09375 8.56539,-17.42272 8.83048,-19.48835 4.57617,-35.61719 -6.17488,-23.40989 -0.5914,-35.5432 20.12695,-43.74219 1.81259,-0.71729 3.60365,-1.55511 3.98047,-1.86132 0.75564,-0.61414 1.51232,-0.82969 15.79297,-4.51172 30.00106,-7.73529 31.91005,-8.50345 38.91015,-15.63672 4.3036,-4.38546 6.83876,-8.94094 9.86329,-17.72266 2.91447,-8.46215 7.02198,-12.06668 11.07421,-12.12695 z m -263.66015,17.56055 c 4.0894,-0.18615 9.96959,1.42602 17.3457,5.1914 24.0211,12.26235 32.36937,29.62709 30.52734,63.49219 -1.33657,24.57243 0.10339,27.51733 19.85547,40.5918 19.01519,12.58667 19.74805,14.05649 19.74805,39.61914 0,15.57713 0.15782,18.30327 1.28906,22.30859 2.81334,9.96098 2.41484,13.91974 -1.61328,16.00195 -6.71906,3.47328 -13.46678,-1.24044 -21.04883,-14.70312 -6.26949,-11.13211 -8.11507,-12.69868 -20.51562,-17.42188 -19.02106,-7.24482 -25.72452,-11.68266 -32.57617,-21.56835 -7.84255,-11.31542 -9.62207,-24.20631 -5.91602,-42.83008 4.60928,-23.1627 6.19662,-42.95672 4.00391,-49.90039 -2.22969,-7.06079 -5.00424,-12.40143 -8.95508,-17.23243 -11.47165,-14.02721 -11.14122,-23.13931 -2.14453,-23.54882 z m 371.27929,72.69531 c 3.01713,-0.24347 5.04392,1.45329 6.70508,5.03906 2.69473,5.81682 1.7076,12.61843 -3.08008,21.20313 -10.11738,18.14141 -24.09381,24.44643 -47.83593,21.58007 -22.43294,-2.70829 -24.44712,-2.84413 -28.23828,-1.91992 -5.32971,1.29933 -8.29922,3.98946 -11.28516,10.22266 -6.07861,12.6892 -9.82624,17.38864 -15.875,19.91015 -5.0521,2.10603 -12.03843,2.00649 -24.55078,-0.35156 -4.68968,-0.88395 -7.86042,-1.02749 -13.51172,-0.61133 -18.78626,1.38331 -20.83226,0.91103 -23.92188,-5.53125 -3.01372,-6.28418 2.37803,-13.87573 12.44336,-17.51757 1.87208,-0.67737 3.80372,-1.66643 4.29102,-2.19727 0.48726,-0.5308 1.16129,-0.96484 1.49805,-0.96484 2.99115,0 7.88414,-8.85489 12.11328,-21.91797 7.9734,-24.62851 23.7331,-30.53138 55.39843,-20.75195 37.72381,11.6505 47.9691,11.71646 63.20313,0.4082 5.62241,-4.17351 9.62936,-6.35615 12.64648,-6.59961 z m -439.19726,33.18555 c 1.53101,-0.0261 3.13738,10e-4 4.81641,0.0879 24.19472,1.24533 34.46614,10.01867 56.37695,48.15429 10.67276,18.57585 16.99273,22.06516 39.49414,21.80664 14.59913,-0.16788 19.7426,4.40685 30.33398,26.98243 2.74866,5.85875 8.17347,13.90922 13.25586,19.67187 7.50881,8.51388 8.45875,14.54356 2.73828,17.38281 -4.40651,2.18714 -15.55852,-1.34096 -21.28125,-6.73242 -5.2835,-4.97764 -15.12169,-6.5376 -27.35351,-4.33984 -33.60303,6.03757 -51.61279,-7.9729 -65.55078,-50.99024 -1.94856,-6.01391 -4.4915,-12.9243 -6.66407,-18.10547 -0.70195,-1.67402 -1.27734,-3.20461 -1.27734,-3.40039 0,-7.35866 -16.48892,-21.6476 -33.22656,-28.79492 -20.61999,-8.80515 -14.62728,-21.33066 8.33789,-21.72265 z m 389.53125,39.66992 c 8.03209,0.34871 18.24761,5.60768 29.8418,15.40625 1.45005,1.22551 2.94179,2.47454 3.31445,2.77539 1.32366,1.06877 7.29916,6.94611 11.8457,11.65234 19.36078,20.0408 28.48428,24.0336 50.23633,21.98438 11.85951,-1.11727 16.94459,3.07292 13.77148,11.3457 -2.05492,5.35744 -14.07603,14.86929 -21.2871,16.84375 -14.27936,3.90981 -28.3621,-0.33332 -47.41016,-14.28125 -20.47998,-14.99652 -24.25665,-15.69696 -40.10742,-7.45898 -17.30525,8.99387 -21.01838,8.54842 -38.4668,-4.59961 -8.49275,-6.39958 -14.46623,-9.85082 -22.52539,-13.01953 -16.83942,-6.62098 -14.34148,-19.94165 3.625,-19.33008 19.37673,0.65956 19.65651,0.58187 29.44141,-8.13868 10.5329,-9.38721 14.75604,-11.6401 24.41406,-13.02734 1.05597,-0.15168 2.1592,-0.20216 3.30664,-0.15234 z M 407.1875,441.24023 c 2.55364,0.0713 5.07286,1.8767 8.05859,5.42774 3.37251,4.01106 3.37253,4.01083 6.83008,3.53125 12.4636,-1.72864 14.28038,-0.90238 16.52735,7.51758 1.31168,4.91508 3.11342,6.8296 7.36328,7.82422 9.09898,2.12946 11.92542,6.13185 8.89843,12.5996 -1.79531,3.836 -1.67733,5.77517 0.44922,7.32618 9.64619,7.03551 11.17431,12.72408 4.78907,17.83008 -4.08666,3.26789 -4.39314,4.46139 -2.38477,9.24023 3.38113,8.0451 2.21743,11.90553 -3.9082,12.97461 -8.2091,1.43263 -9.02665,2.06525 -9.78516,7.55664 -1.17642,8.51671 -3.90847,10.17449 -11.85742,7.19531 -4.51945,-1.69383 -6.56607,-0.97138 -8.90235,3.14649 -0.77393,1.3641 -2.44538,3.47322 -3.71289,4.68554 -3.90674,3.73663 -7.03717,2.73448 -13.0332,-4.16992 -3.63636,-4.18722 -4.66042,-4.40952 -10.31641,-2.24219 -8.21635,3.14843 -12.36561,0.9388 -13.91601,-7.41211 -0.95361,-5.13634 -1.72884,-6.02963 -5.70117,-6.5664 -11.00573,-1.48709 -15.06481,-6.19945 -11.60938,-13.47852 2.61939,-5.51788 2.22301,-8.01225 -1.62109,-10.17773 -8.37746,-4.7192 -9.3986,-11.43688 -2.41602,-15.89453 3.89572,-2.48701 4.15723,-3.99404 1.68555,-9.68555 -3.84545,-8.85487 -1.27771,-14.2994 6.76172,-14.33984 4.07703,-0.0206 5.23325,-1.28867 6.1582,-6.74805 1.44639,-8.53701 5.55892,-10.97776 13.4082,-7.96094 4.6557,1.78938 5.65093,1.46957 9.97071,-3.20703 3.12266,-3.3806 5.71003,-5.0439 8.26367,-4.97266 z m 104.11523,43.67969 c 3.10227,0.13093 6.76383,1.59016 10.83204,4.3711 12.3476,8.44051 16.38415,9.31184 31.63281,6.82812 17.78252,-2.8964 28.69256,0.62836 37.20508,12.02148 9.22242,12.34338 10.84174,15.69927 16.14453,33.47461 8.82417,29.57938 15.84089,39.49478 32.30273,45.65235 15.75111,5.89175 18.0424,14.38572 5.2168,19.33789 -21.4464,8.28083 -41.95252,-4.06021 -58.96289,-35.48438 -12.93638,-23.89818 -15.11213,-25.61083 -31.54102,-24.8457 -18.30342,0.85244 -24.98062,-4.48347 -36.32226,-29.02148 -1.55581,-3.36601 -4.71426,-8.81794 -7.01758,-12.11524 -8.03558,-11.50325 -9.00098,-13.80909 -6.9668,-16.62109 1.83158,-2.53195 4.3743,-3.72859 7.47656,-3.59766 z m -338.34961,14.35742 c 12.65577,-0.33138 26.06789,5.04303 42.71485,16.30664 22.38082,15.14321 28.00272,16.10243 43.76758,7.45899 16.491,-9.04158 24.38718,-8.31548 41.96289,3.86133 6.14006,4.25397 16.1732,10.06771 20.98242,12.1582 9.69485,4.21417 12.84242,6.48253 13.49609,9.72461 1.53604,7.61836 -3.34702,10.39929 -19.04883,10.84766 -15.25736,0.43562 -16.38504,0.88359 -29.71093,11.83984 -4.71273,3.8747 -10.48236,8.02668 -12.82227,9.22656 -6.69317,3.43219 -15.60486,3.27818 -24.76562,-0.42969 -6.77842,-2.74363 -26.08445,-14.90007 -31.28907,-19.70117 -4.4567,-4.11118 -22.44457,-19.72891 -24.75585,-21.49414 -8.83886,-6.75057 -18.64348,-9.34504 -30.61133,-8.09961 -19.6189,2.0417 -20.8505,1.91602 -24.79493,-2.55664 -5.55208,-6.29567 -3.98366,-11.40759 5.55469,-18.09765 10.0908,-7.07755 19.47694,-10.78718 29.32031,-11.04493 z M 501.42969,535.75 c 4.20888,0.12652 10.45114,5.58843 16.91211,16.33398 5.49241,9.13474 6.21264,9.66855 20.36523,15.04493 29.54253,11.22281 34.83521,23.82853 26.60352,63.3789 -6.27372,30.1426 -4.6847,40.75441 8.36718,55.85547 7.10657,8.22236 8.65901,13.67423 4.69727,16.50195 -8.15486,5.82063 -27.40199,-2.19213 -38.11328,-15.86718 -9.20523,-11.75233 -10.57287,-17.65719 -9.96289,-42.99805 0.61444,-25.52625 -0.90769,-29.03547 -15.45313,-35.63086 -13.64961,-6.18916 -19.29907,-14.80213 -18.19726,-27.74414 1.19939,-14.08826 1.21698,-21.8648 0.0645,-29.18945 -1.66811,-10.60148 0.50792,-15.81207 4.7168,-15.68555 z m -30.33008,38.54883 c 1.92145,-0.0971 3.93109,0.65258 5.95508,2.29297 3.26899,2.64937 4.23957,6.95882 4.38281,19.44922 0.15609,13.61555 0.61083,14.70873 10.96484,26.30273 22.55509,25.25643 21.1221,36.55303 -8.89453,70.12109 -19.6639,21.99062 -24.54082,34.60809 -19.42969,50.26172 2.05584,6.29636 1.81223,12.51186 -0.59374,15.13282 -8.1083,8.83271 -27.84159,-10.63916 -31.70313,-31.28321 -2.02719,-10.83742 1.00774,-21.15539 10.5625,-35.90625 16.32461,-25.2023 17.06826,-30.37717 6.52734,-45.48047 -10.34385,-14.82089 -10.50712,-21.68335 -0.8457,-35.6289 8.42578,-12.16199 9.65459,-14.41591 12.41992,-22.79297 2.62233,-7.94386 6.4271,-12.25511 10.6543,-12.46875 z m -145.75586,2.53515 c 4.12378,-0.0892 8.7982,0.31579 14.08984,1.19141 5.45701,0.90285 9.78992,1.06805 19.60157,0.74414 23.20471,-0.76615 27.66852,10.11963 8.23437,20.08008 -3.48138,1.78431 -7.21909,3.71389 -8.30664,4.28906 -5.04938,2.67031 -9.16194,8.78456 -11.54883,17.16797 -4.06469,14.27633 -5.89224,18.32312 -10.58398,23.44922 -9.00744,9.84128 -18.96356,10.70341 -48.72266,4.22266 -5.2565,-1.14471 -12.52326,-2.59704 -16.14844,-3.22852 -3.62517,-0.63148 -8.39676,-1.46369 -10.60156,-1.84766 -16.51287,-2.87565 -29.82563,0.85892 -41.6582,11.6836 -1.19156,1.09005 -3.62886,2.78886 -5.41602,3.77539 -4.69059,2.58928 -10.68282,1.26861 -12.64062,-2.78516 -0.40506,-0.83868 -1.06402,-1.75515 -1.46289,-2.03711 -3.57277,-2.52378 0.18539,-20.10755 5.64453,-26.41211 1.90314,-2.19787 8.17289,-7.89843 8.6875,-7.89843 0.20548,0 1.49946,-0.83361 2.875,-1.85352 9.53879,-7.07233 20.22608,-9.20179 37.23633,-7.41797 30.93924,3.24457 38.66236,0.21151 46.69336,-18.33984 4.24245,-9.79994 11.65601,-14.51569 24.02734,-14.78321 z m 97.34961,12.32618 c 1.69246,0.18587 3.10118,1.10308 4.56641,2.69922 4.5547,4.96161 3.69886,11.26583 -2.73243,20.1289 -6.55075,9.02771 -7.13996,14.00531 -3.23242,27.34375 3.41163,11.64559 3.07486,28.66696 -0.625,31.59375 -0.24986,0.19763 -1.59338,1.89479 -2.98633,3.77344 -1.39298,1.87865 -4.53167,4.86365 -6.97461,6.63281 -7.40662,5.36379 -10.69741,6.6588 -34.63671,13.625 -25.75427,7.49435 -36.45132,15.78073 -41.66993,32.2832 -1.29452,4.09361 -2.56484,6.58533 -4.49218,8.80274 -8.37868,9.63957 -22.25564,-9.37083 -19.70118,-26.99024 2.55167,-17.60005 7.68088,-23.14303 34.91602,-37.73828 24.60844,-13.1876 24.96896,-13.78667 23.98242,-39.8789 -0.44034,-11.64605 3.80076,-16.93134 19.88477,-24.7793 8.75505,-4.27189 14.76134,-7.67545 21.29883,-12.06836 5.97144,-4.01256 9.58158,-5.73752 12.40234,-5.42773 z"
       transform="scale(0.26458333)" />
  </g>
</svg>
