<svg xmlns="http://www.w3.org/2000/svg" width="64" height="64"><path d="M33.437 55.126c11.648-.714 20.973-10.039 21.686-21.687h-4.397c-.698 9.224-8.065 16.59-17.29 17.286v4.4zm21.686-24.564C54.41 18.914 45.085 9.59 33.437 8.876v4.397c9.224.699 16.59 8.066 17.29 17.29h4.396zM30.563 8.876C18.913 9.589 9.588 18.914 8.878 30.562h4.397c.7-9.223 8.062-16.59 17.29-17.289V8.876zM8.878 33.439c.71 11.648 10.035 20.973 21.687 21.687v-4.401c-9.224-.695-16.59-8.062-17.29-17.286H8.877zM32 63c17.118 0 31-13.882 31-31C63 14.882 49.118 1 32 1 14.882 1 1 14.882 1 32c0 17.118 13.882 31 31 31" fill-rule="evenodd"/></svg>