<svg xmlns="http://www.w3.org/2000/svg" width="64pt" height="64pt" viewBox="0 0 64 64"><path d="M32.496 23.207h.422l.281.14.426.141.14.14.141.282.14.145.145.28v.845l-.144.562-.281.563-.141.562v.14l.14-.14v-.14l.426-.563.282-.703.422-.844.425-1.27v-1.265l.282-.281.285-.14h.562l.285-.141.703.14h.708l.285.14.422.141.566.282.14.14h.141-.14v-.14l-.426-.422-.703-.422-.848-.563-.848-.421-.847-.282h-.992l-.422-.14h-.282l-.144-.141-.14-.281-.141-.14-.141-.282v-.984l.422-1.688v-.281l-.14.14v.141l-.282.563-.426.703-.422.984-.28.844v.422l-.145.28v.845l-.141.28h-.14l-.141.142h-.282l-.285.14h-1.129l-.707-.14-.28-.141h-.427l-.28-.281-.282-.141h-.145l-.14-.14.14.14 1.133.844.848.562.847.282.422.28.426.141h.422l.285.141m9.746-3.094h.281l.426.14.567.282.14.14.14.282.142.14v1.548l-.141.562-.14.422v.14l.14-.14.281-.563.567-1.687.14-.984.14-.422v-.844l-.14-.14.14-.282v-.14h.286l.14-.141.567-.281h1.695l.422.14h.281l.848.422v-.14h-.14l-.422-.422-.707-.422-.848-.422-.988-.281-.848-.282h-.707l-.281.14h-.285l-.422-.14-.286-.281-.14-.281-.14-.14-.141-.423v-1.265l.14-.563v-.422l.14-.14v-.141l-.14.14v.141l-.281.563-.848 2.531v.422l-.144.422.144.281v.563l-.425.421-.282.141h-.285l-.281.14h-1.555l-.281-.14h-.281l-.285-.14-.422-.141-.141-.14.14.14.423.281.707.422.847.281.848.422.566.14.282.141h.847m-17.66-3.797l.285.141.281.563.141.14v.703l-.14.282-.282.421-.426.422-.28.422-.427.281v.141l.141-.14.566-.282.567-.562.707-.563 1.129-1.125.14-.281v-.14l.426-.423h.422l.14.141h.286l.847.422.422.281.426.422.281.563.141.14v-.14l-.14-.563-.282-.562-.848-1.407-.566-.562-1.129-.563-.144-.14v-.282l-.141-.28.14-.141v-.282l.145-.281.14-.422.423-.562.425-.422.282-.422h.14v-.14l-.14.14h-.14l-.427.422-.703.422-1.273 1.265-.282.14-.14.423-.145.14-.14.282v.14l-.282.282h-.425l-.282-.141h-.14l-.848-.422-.566-.422-.563-.562-.144-.282.425.985.422.844.426.562.848.844.281.14m21.191 15.895l.286.281.28.422.141.281.141.422v.563l-.281.562-.422.703-.566.563-1.13.844-.144.14h.145l.28-.14.708-.422.848-.563 1.976-1.406.281-.422.426-.281.422-.844.145-.14h1.129l.28.14.427.281.28.14.282.282.426.281.847.844.141.422.281.563h.145l-.145-.141-.14-.703-.282-.985-.28-.421-.286-.563-.14-.562-.422-.422-.567-.844-.281-.281-.426-.14-.281-.282-.426-.281-.14-.282v-.28l-.141-.282.14-.281.141-.422.14-.282.426-.703 1.696-1.687-.281.14-.707.422-.848.563-1.98 1.406-.422.281-.282.422-.285.281-.281.563-.14.14h-.989l-.426-.28-.281-.141-.426-.14-1.695-1.688-.14-.422v-.14l-.141-.142.14.141.14.703.427.844.422.984.566.985.281.562.285.422.282.281.421.14m-.28 11.677l.28-.14.426-.142h.848l.14.141.282.14.144.282.422.422.281 1.125.286.422v.281-.984l-.286-.844-.14-.844-.281-.984-.141-.422-.285-.563-.422-.422v-.14l.14-.281.141-.141.14-.281.286-.14.281-.282.567-.285.562-.422h.285l.422-.14.285-.141h.703-.14l-.14-.141h-1.415l-.848.14-.988.141-.422.14h-.426l-.421.282-.141.14-.426.286-.566.281-.14-.14h-.282l-.281-.141-.426-.426-.281-.562-.426-.563-.14-.562-.141-.422-.141-.14v.28l.14.563.141.844.14.988.427 1.265.28.563.427.422v.281l-.285.281-.141.282-.281.14-.141.281-.566.422-.707.282-.282.14h-.425l-.282.14h-.285l-.281.141h1.555l.847-.14.989-.14.566-.141.281-.141.426-.14.281-.141M17.52 19.69l.14.282v.843l-.14.282-.286.28-.28.142-1.27.421h-.707l.14.141h2.262l.703-.14h.426l.14-.141.282-.14.144-.141h.703l.567.843.426 1.692v.843l.14-.14v-.563l.14-.566.141-.844V21.52l-.14-.282v-.281l-.14-.281-.286-.281v-.704l.145-.28.421-.423.567-.281.566-.14.422-.141h.426l.14-.14h-2.261l-.707.14h-.422l-.567.281h-.14l-.14.14h-.286l-.562-.562-.145-.281-.281-.563-.14-.562-.141-.703v-.563l-.141 1.125v.844l-.145.844.145.422v.562l.14.281m10.739 18.426l.847.422.141.281v.844l-.14.426-.145.562-.422.422-.14.281-.141.141h.14l.141-.14.281-.422.567-.422.847-1.41.282-.141.14-.422v-.14l.145-.282v-.281h.14l.282-.14h.28l1.134.28 1.129.563.425.422v.14h.141l-.14-.14-.286-.422-.847-1.125-.707-.562-.282-.141-.28-.281-.286-.14h-.281l-.848-.423v-.14l-.14-.141v-.844l.14-.422.281-.562.145-.422.281-.422h.14-.14l-.988.984-.426.563-.563.703-.425.844v.422l-.14.14h-1.13l-1.695-.843-.426-.422.707.984 1.414 1.406.848.422m-15.965-7.312l.14.28.282.142v.28l.14.141v.282l-.14.14v.282l-.988.984-.426.14v.141h.144l.422-.281 1.13-.563.566-.421.28-.141.145-.281.282-.282v-.14l.14-.14h.281l.426.14.281.281.426.281.422.422.567.844v.14h.14l-.14-.14v-.422l-.282-.562-.285-.704-.562-1.125-.426-.421-.281-.141-.426-.422v-.281l.14-.14v-.141l.145-.282.281-.422.848-.843h.14-.14l-.426.14-.562.422-.567.281-.566.422-.281.14-.141.282-.281.281v.141h-.145l-.14.14h-.141l-.422-.14-.426-.281-.707-.703-.562-.844.28.984.282.563.426.703.14.281.141.14.14.282.286.14m24.297 2.391l.144.282.282.28v.282l.14.14v.282l-.14.14v.282l-.848.844-.426.28-.422.141v.141h.14l1.13-.562.707-.282.707-.422.426-.421.28-.141v-.281l.142-.14h.425l.422.14.426.28.848.845.28.422.282.562v.14l.14.141v-.28l-.14-.423-.281-.703-.14-.703-.426-.703-.141-.422-.14-.281-.282-.14-.145-.282-.28-.14-.141-.282-.141-.14-.14-.282v-.14l.14-.282v-.14l.14-.282 1.13-1.125.425-.14.14-.14h-.14l-.14.14-.426.14-1.414.563-.703.422-.145.28-.281.142-.14.28-.282.282-.285.14h-.14l-1.27-.843-.426-.563-.281-.421-.285-.563.285 1.125.562 1.406.285.422.282.563.28.14M21.052 48.246l.281.14.426.423v.703l-.14.281-.141.422-.145.281-.281.281h.14l.286-.422.421-.28.282-.423.425-.562.141-.281v-.141l.14-.14v-.423h.286l.281-.14 1.27.422.425.281.422.422v-.14l-.28-.282-.282-.422-.848-.844-.285-.14-.14-.14-.282-.142h-.14l-.286-.14-.14-.14h-.14l-.142-.141v-.141l-.14-.281v-.14l.14-.142v-.421l.141-.422.281-.282.145-.28v-.141.14h-.145l-.28.281-.282.422-.426.422-.281.563-.14.14-.141.282v.28l-.145.141v.141h-.988l-.422-.14-.285-.282-.422-.14-.426-.422.566.843.422.282.848.843.285.141h.14m15.54-6.75l.285.14.14.141h.141l.14.282v.562l-.14.14-.14.423-.141.14-.14.281.988-.984.14-.422.282-.422.14-.14v-.282h.707l.426.141.281.14.426.141.14.282h.141l-.426-.563-.703-.703-.285-.14-.281-.282h-.426l-.281-.281h-.14v-.567l.14-.421.426-.844h-.145l-.422.562-.281.422-.426.422-.14.426v.281h-.141v.14h-.14v.141h-.286l-.422-.14-.285-.14-.422-.142-.28-.14-.286-.285.426.566.422.281.285.422.422.281.28.141M33.2 13.645l.285.14.141.14h.14v.282h.141v.563l-.14.14-.141.422-.14.14-.141.282.562-.563.848-1.265v-.281l.14-.141h.145l.281-.14.282.14.847.281.285.14.282.282-.426-.562-.703-.704-.285-.14-.282-.281h-.28l-.145-.141h-.141l-.14-.14h-.141v-.704l.566-1.125h-.144l-.563.563-.566.843-.141.422-.14.14v.282h-.141l-.145.14h-.14l-.422-.14-.285-.14-.422-.141-.282-.14-.285-.282.426.563.707.703.422.28.281.142m5.086 35.585l.145.282.28.281v.562l-.14.141v.14l-.566.563-.281.14-.285.282h-.141.285l.848-.422.422-.281.566-.422.707-.703h.14l.422.14.286.141.988.985.14.421.141.141-.14-.14v-.422l-.141-.422-.707-1.407-.14-.14-.141-.281h-.145l-.281-.141-.14-.14-.141-.282v-.422l.14-.14v-.141l.282-.422.285-.14.562-.563h.14-.28l-.282.14-.425.282-1.13.562-.14.282-.566.562h-.141l-.426-.14-.281-.141-.707-.703-.14-.282-.282-.421.281.843.14.563.427.844.14.14.282.14.14.141m1.133-23.066l.281.281.281.14v.142l.145.14v.563l-.285.562-.281.422-.141.14v.141l.14-.14.141-.282.848-.843.281-.422.145-.281.14-.141v-.281l.14-.14v-.142l.142-.14h.847l.426.14.422.282.566.562h.14v.14-.14l-.28-.281-.286-.422-.847-.844-.14-.28-.282-.142h-.14l-.286-.14h-.281l-.426-.422v-.988l.285-.422.282-.563h.14v-.14l-1.27 1.265-.285.567-.28.28v.563h-.141v.141h-.567l-.281-.14h-.426l-.847-.563-.282-.14v-.141l.567.703.422.422.285.422.28.28.282.141h.14l.286.141M22.605 29.54l.567.281.422.282.566.562.14.422v1.125l-.14.281-.14.422-.286.422-.14.281-.848 1.125-.14.281h.14l.14-.28.708-.563.707-.844 1.695-1.969.14-.562.282-.422.145-.422v-.422l.14-.14v-.141l.563-.281h1.132l1.27.421.566.282.422.14.426.282.281.28.426.282.281.281.14.282h.142l-.141-.141-.422-.703-.707-.844-.426-.562-.422-.422-.425-.563-.563-.422-.566-.28-.422-.423-.848-.281-.566-.14-.426-.141-.281-.282-.14-.28-.282-.282v-1.266l.14-.425.141-.282.14-.422.282-.421.426-.704.422-.843h-.141l-.14.28-.708.563-.707.844-.847.985-.703.988-.286.562-.28.422-.142.422v.703h-.14l-.285.14-.14.141h-1.13l-.426-.14-.566-.14-.422-.141-.426-.282-.422-.14-.847-.563-.848-.844v.141l.567.703.703.844.847.984.993.844.421.422.567.281.422.281.425.141m5.793 19.129l.563.844.144.281.141.422v.562l-.566 1.125-.282.141-.285.281-.562.422-.426.281-.14.141h.14l.14-.14.708-.141.847-.563.848-.422.988-.703.848-.844v-.14l.144-.281.141-.141h.563l.144.14h.281l.422.282.285.14.707.563.563.703.285.281.281.422.282.281.14.422.145.141v.14-.28l-.285-.563-.282-.985-.425-1.125-.563-.984-.426-.562-.281-.282-.281-.422-.285-.14-.989-.985v-.28l-.14-.282.14-.281v-.282l.14-.421.286-.282.14-.28.989-.985.566-.282.141-.14v-.14l-.14.14h-.286l-1.41.703-.992.562-.848.563-.847.844-.141.281v.281h-.14l-.282.14h-.285l-.848-.421-.281-.281-1.414-1.125-.281-.422-.14-.281-.282-.422-.145-.282-.14-.28v-.141.28l.285.704.422.844.425 1.125.563.984.285.563.563.843.425.141m-12.574-8.297l.563.281.425.282.282.28.285.423.14.281.141.422v.422l-.281.843-.145.282-.14.422-.282.421-.425.563-.422.703-.14.14h.14l.848-.843 1.695-1.969.847-1.125.282-.422.14-.562.145-.281.14-.422v-.282l.141-.14v-.145l.281-.14h1.414l.848.285.567.14.421.282.567.14.847.563.282.281.285.422.281.14.14.141v-.14l-.14-.141-.426-.703-.847-.844-.848-1.129-.563-.422-.425-.562-.563-.422-.566-.281-.426-.282h-.422l-.566-.14-.422-.281-.285-.141-.282-.422-.14-.281-.14-.422v-.422l.14-.422v-.422l.14-.422.282-.421.14-.422.848-1.407.145-.14v-.14l-1.84 1.827-.848 1.125-.703 1.125-.426.422-.422 1.266v.281l-.285.281-.281.14H14.69l-.847-.28-.563-.14-.847-.563-.567-.141-.281-.422-.426-.281-.562-.563.14.14.422.704.707.984.988.985.989.844.566.421.426.422.562.285.426.141M33.766 0h-3.532L28.68.14l-1.836.282-1.555.281-1.695.422-1.555.422-1.695.703-1.555.563-1.555.703-1.41.843-1.554.985-1.274.984-1.41.984-2.543 2.254-1.133 1.407-.988 1.265-1.129 1.266-.988 1.547-.707 1.406-.848 1.547-1.414 3.094-.422 1.547-.566 1.69-.567 3.376L0 31.086v1.687l.281 3.375.567 3.375.566 1.692.422 1.547.707 1.687.707 1.547.707 1.406.848 1.547 1.976 2.813 2.262 2.531 1.129 1.125 1.414 1.27 1.27.984 2.828 1.969 1.41.703 1.554.843 1.696.563 3.11 1.125 1.694.422 3.391.562 1.695.141h3.391l1.695-.14 3.39-.563 1.556-.422 1.695-.422 1.555-.562 1.695-.703 1.41-.844 1.555-.703 1.414-.985 1.414-.843 2.543-2.254 1.27-1.266 1.273-1.125 1.976-2.813.989-1.265 1.695-3.094.707-1.547.566-1.547.563-1.687.426-1.55.422-1.688.285-1.688.14-1.687v-1.688L64 31.227l-.281-3.375-.285-1.829-.422-1.546-.426-1.692-.563-1.687-.566-1.407-.707-1.687-.848-1.406-.847-1.547-.848-1.406-1.129-1.407-.988-1.265-1.133-1.266-1.27-1.125-1.273-1.27-1.41-.984-1.274-.984-1.414-.844-3.105-1.688-3.11-1.124-1.695-.563-1.554-.422L35.46.141 33.766 0" fill-rule="evenodd"/></svg>