<svg width="80" height="80" xmlns="http://www.w3.org/2000/svg"><path style="fill:#000;stroke-width:.0147245" d="M39.16 79.997A40.018 40.018 0 0 1 5.45 60.17 40.025 40.025 0 0 1 .058 42.284 32.733 32.733 0 0 1 0 40.002c0-1.036.01-1.43.058-2.282a39.988 39.988 0 0 1 3.166-13.465A40.014 40.014 0 0 1 42.636.087a39.994 39.994 0 0 1 26.5 12.5c1.405 1.477 2.93 3.395 4.123 5.182a40.007 40.007 0 0 1 6.58 18.574c.118 1.285.161 2.257.161 3.659 0 1.892-.098 3.417-.339 5.241a40.008 40.008 0 0 1-38.145 34.733c-.37.016-2.028.03-2.355.021zm3.063-3.171c4.006-.181 8.016-1.037 11.604-2.477 3.548-1.424 6.625-3.344 9.35-5.834a47.452 47.452 0 0 0 1.607-1.599c.585-.632 1.044-1.176 1.264-1.494 1.824-2.642 2.89-5.855 3.173-9.563.062-.804.106-2.238.07-2.238-.008 0-.071.017-.141.037-.48.139-.884.524-1.332 1.268-.14.235-.286.509-.756 1.426-.342.667-.5.944-.799 1.406-.123.19-.432.691-.685 1.112-.5.83-.752 1.23-1.095 1.744a26.685 26.685 0 0 1-3.875 4.63c-2.165 2.052-4.666 3.69-7.503 4.908-.198.086-.43.177-.515.203-2.25.697-4.787 1.45-6.096 1.808-4.57 1.253-7.685 1.694-10.985 1.555-1.917-.08-3.865-.432-6.32-1.14-.89-.257-1.719-.526-4.01-1.3-1.229-.414-1.657-.538-2.01-.585-.301-.04-.418.004-.391.148.01.058.154.192.538.507 1.732 1.42 4.135 2.741 6.656 3.662a29.46 29.46 0 0 0 5.294 1.388c1.567.263 3.04.4 4.815.448.324.009 1.807-.005 2.142-.02zm-2.311-5.64c2.871-.099 5.377-.645 7.62-1.663 1.558-.706 3.098-1.78 4.358-3.041 1.88-1.88 2.87-3.868 2.51-5.035a1.377 1.377 0 0 0-.038-.115 2.404 2.404 0 0 0-.268.243c-2.37 2.318-5.532 3.816-9.39 4.45-.989.163-1.88.256-3.07.32-.46.025-2.272.025-2.746 0-2.544-.134-4.65-.448-6.888-1.028-4.407-1.14-9.6-3.127-12.02-4.598-.637-.388-.964-.548-1.315-.644a1.071 1.071 0 0 0-.348-.04c-.196-.002-.21 0-.296.04a.557.557 0 0 0-.31.418l-.008.072.145.16c1.22 1.354 4.387 3.823 7.611 5.936 2.5 1.639 4.72 2.872 6.293 3.493.331.131.37.144.695.222 2.529.609 5.126.89 7.465.81zm-5.08-7.95c2.44-.152 4.464-.807 5.76-1.863l.174-.14v-.07c-.006-.692-.706-1.208-1.952-1.439-.265-.05-.356-.05-.677-.011a9.41 9.41 0 0 1-1.318.068c-.666 0-1.17-.031-1.804-.11-2.338-.287-4.636-1.09-6.753-2.358a20.203 20.203 0 0 1-3.238-2.417 33.758 33.758 0 0 1-1.716-1.738c-.743-.81-1.354-1.457-2.59-2.747-1.429-1.489-1.96-2.066-2.49-2.702-.925-1.11-1.579-2.146-2.14-3.393a2.535 2.535 0 0 0-.255-.471c-.433-.619-.868-1.038-1.3-1.256a1.22 1.22 0 0 0-.556-.154l-.172-.007.045.167c.312 1.166.932 3.041 1.47 4.445 1.037 2.7 2.243 5.178 3.516 7.22 1.088 1.746 2.14 3.102 3.346 4.31.714.715 1.267 1.19 1.974 1.694.873.623 2.01 1.244 3.107 1.694 1.851.76 3.878 1.2 5.949 1.292.343.015 1.28.007 1.62-.014zm8.533-2.467c1.659-.192 4.728-1.463 7.458-3.09 2.072-1.233 3.722-2.536 4.66-3.678 1.408-1.716 2.258-3.812 2.48-6.122a13.984 13.984 0 0 0-.345-4.667 7.441 7.441 0 0 0-.16-.557c-.004-.007-.03-.01-.056-.007-.271.034-1.617.295-1.64.319-.01.009-.041.149-.071.31a22.498 22.498 0 0 1-.77 3.012c-.885 2.58-2.133 4.323-4.188 5.849-.833.618-1.9 1.27-3.383 2.07l-.328.176-.145.292c-.478.96-1.243 1.985-2.416 3.237a33.353 33.353 0 0 1-1.894 1.835c-.135.116-.27.421-.273.614-.002.172.067.277.227.35.178.079.479.1.844.057zM56.1 59.564a53.223 53.223 0 0 0 3.308-3.337c3.151-3.502 5.023-6.745 5.865-10.16.465-1.887.638-3.837.569-6.415-.017-.624-.032-.86-.075-1.194a13.025 13.025 0 0 0-1.778-5.087c-1.188-1.98-2.97-3.802-5.075-5.185-.423-.278-1.093-.677-1.11-.661-.004.003.037.083.09.178.4.727.824 1.599 1.136 2.342 1.661 3.949 2.212 8.082 1.708 12.828-.157 1.481-.363 2.747-.838 5.139-.188.952-.198 1.007-.22 1.317-.121 1.643-.235 2.284-.542 3.048-.13.326-.298.681-.777 1.656a106.119 106.119 0 0 0-2.058 4.395 163.71 163.71 0 0 0-.678 1.554c-.009.024.12-.089.475-.418zM13.185 57.53c0-.004-.125-.241-.277-.527-3.896-7.288-5.503-11.328-6.069-15.254a23.586 23.586 0 0 1-.21-2.227c-.023-.45-.023-1.91 0-2.414.07-1.488.217-3.095.357-3.887.04-.227.14-.797.22-1.267.429-2.467.677-3.655 1.054-5.042.618-2.279 1.688-5.01 2.743-7.001 2.082-3.935 5.032-7.237 9.052-10.133.433-.313.547-.415.724-.653a1.5 1.5 0 0 0 .202-.381c.03-.103.03-.24 0-.297-.037-.072-.101-.102-.22-.102-.215 0-.4.076-.957.39a37.276 37.276 0 0 0-6.376 4.54 36.75 36.75 0 0 0-2.798 2.785c-3.812 4.272-6.36 9.25-7.67 14.982a26.3 26.3 0 0 0-.405 2.127 43.346 43.346 0 0 0-.413 4.49 37.9 37.9 0 0 0 .03 2.968c.26 4.281 1.452 7.767 3.678 10.755a18.106 18.106 0 0 0 1.82 2.084c1.5 1.497 3.123 2.704 5.39 4.009.102.058.125.069.125.055zm27.338-1.937c.92-.031 2.433-.118 2.687-.155a3.197 3.197 0 0 0 1.857-.92c.218-.216.38-.415.566-.699.305-.462.503-.863.922-1.87.081-.194.227-.536.325-.758.221-.506.324-.76.383-.95.04-.129.046-.17.047-.324 0-.158-.002-.183-.033-.24a.791.791 0 0 0-.257-.265c-.118-.08-.58-.331-.6-.324-.006.003-.112.09-.234.194-.709.606-1.358 1.04-2.122 1.421a8.131 8.131 0 0 1-2.894.836 12.12 12.12 0 0 1-1.627 0 12.33 12.33 0 0 1-2.162-.415 24.318 24.318 0 0 1-1.198-.389l-.112-.042-.035.037a7.346 7.346 0 0 1-.556.458c-.626.464-1.43.89-2.313 1.228a13.759 13.759 0 0 1-2.118.61.603.603 0 0 0 .076.104c.441.54 1.081 1.018 1.852 1.386 1.351.646 3.187 1.006 5.513 1.082.337.011 1.647.008 2.033-.005zm-12.105-3.638c.13-.009.244-.02.254-.026.011-.006-.06-.081-.197-.208a18.965 18.965 0 0 1-1.784-1.926 16.616 16.616 0 0 1-3.64-9.26c-.066-.92-.036-2.118.072-2.799.012-.073.01-.076-.098-.263-.955-1.642-2.154-4.29-3.016-6.663a4.358 4.358 0 0 0-.124-.32c-.013 0-.23.383-.322.569-.673 1.353-1.169 3.288-1.378 5.379a21.119 21.119 0 0 0-.106 2.525c.01.798.041 1.337.114 2.01.222 2.053.715 3.91 1.482 5.58.737 1.604 1.668 2.803 2.89 3.725 1.615 1.217 3.712 1.818 5.853 1.677zm6.239-2.413c.548-.094 1.354-.462 2.228-1.018.122-.077.264-.166.316-.197.282-.17.668-.506.871-.758.194-.241.349-.54.412-.798.016-.067.034-.2.039-.295l.009-.173h-.19c-.774 0-1.55-.21-2.288-.62-.796-.442-1.588-1.095-2.895-2.388l-.266-.263-.124.084a3.43 3.43 0 0 1-1.02.433c-.763.177-1.693.146-2.623-.088l-.242-.061c-.035-.009-.062.113-.062.286 0 .267.08.532.277.912.496.954 1.751 2.331 3.428 3.759.584.497 1.304 1.053 1.477 1.14.155.077.378.093.653.046zm33.872-1.365c.548-.135 1.166-.894 1.648-2.022 1.023-2.398 1.432-6.177 1.135-10.498-.105-1.527-.334-3.435-.538-4.476-.453-2.308-1.117-4.308-2.054-6.183a18.642 18.642 0 0 0-2.825-4.19 24.179 24.179 0 0 0-1.392-1.393 18.853 18.853 0 0 0-5.117-3.247c-2.34-1.008-4.996-1.62-7.41-1.706l-.281-.01-.01.048a.917.917 0 0 0-.01.153c.001.359.29.7.974 1.146.299.194.42.266 1.31.777.839.481 1.21.7 1.694 1.001 2.371 1.476 4.294 3.223 5.892 5.352 2.505 3.337 4.368 8.025 5.533 13.921.669 3.386 1.094 7.166 1.247 11.094.005.138.013.255.016.261.007.012.058.004.188-.028zM49.216 46.51c.828-.198 1.553-1.388 2.048-3.358.27-1.076.434-2.25.466-3.335.016-.54-.02-.756-.185-1.088-.418-.844-1.604-1.643-3.387-2.282-.334-.119-.916-.302-.963-.302-.008 0-.01.071-.004.18a65.838 65.838 0 0 1 0 6.327l-.008.23.141.297c.286.602.818 1.653 1.435 2.835.223.426.28.526.305.526.016 0 .085-.013.153-.03zm-6.907-.646c.567-.286.997-.539 1.358-.797.747-.534 1.228-1.098 1.406-1.646a1.4 1.4 0 0 0 .076-.466 1.24 1.24 0 0 0-.024-.375 2.111 2.111 0 0 0-.169-.484 3.11 3.11 0 0 0-.355-.503c-.698-.801-2.155-1.474-3.202-1.478-.235 0-.338.024-.418.098-.139.131-.1.341.176.979l.2.46c.357.822.407 1.361.187 2.024-.102.312-.254.6-.526 1-.154.23-.255.424-.29.568a.668.668 0 0 0 .022.398c.123.243.536.405 1.043.41l.137.002zm-6.772-3.748c.5-.105 1.004-.328 1.518-.672.647-.433 1.21-1.013 1.44-1.485a.39.39 0 0 0 .054-.231c0-.114-.002-.123-.044-.167-.12-.128-.302-.173-1-.25-.886-.099-1.145-.156-1.498-.332-.545-.27-.9-.669-1.286-1.438a6.095 6.095 0 0 0-.23-.427 1.092 1.092 0 0 0-.323-.315c-.07-.037-.096-.042-.213-.042a.394.394 0 0 0-.247.055c-.192.095-.437.352-.61.642l-.062.103-.024.343a13.76 13.76 0 0 0-.008 1.536c.09 1.032.34 1.755.767 2.205.194.205.442.362.7.442.103.033.155.044.331.076.02.003.153.004.295 0 .205-.004.295-.013.44-.043zm-22.553-1.646c-.03-2.586.167-5.14.562-7.306.638-3.492 1.77-6.312 3.557-8.856.362-.516.637-.88 1.382-1.826 1.253-1.593 1.646-2.026 3.66-4.041a91.666 91.666 0 0 0 3.11-3.225c.993-1.077 1.658-1.693 2.545-2.358.572-.43.983-.7 2.062-1.353 1.307-.792 1.72-1.077 2.363-1.632.179-.155.84-.811.84-.835 0-.007-.06-.014-.132-.014-.517 0-1.704.294-3.116.772-3 1.013-6.42 2.593-9.18 4.24-1.86 1.108-2.909 1.898-4.166 3.137-2.622 2.586-4.902 6.196-6.132 9.711-.468 1.338-.75 2.57-.875 3.814a13.692 13.692 0 0 0 0 1.73c.104 1.116.325 2.166.698 3.312.573 1.762 1.588 3.76 2.695 5.312.068.095.126.173.13.173.003 0 .002-.34-.004-.755zm14.991-.073c.004-.043.012-.19.017-.328.019-.55.07-1.422.118-1.995.203-2.436.622-3.984 1.453-5.365.485-.808 1.091-1.56 2.032-2.52l.276-.282.022-.389c.065-1.143.086-1.893.086-3.017 0-1.008-.012-1.483-.057-2.098-.031-.44-.04-.516-.062-.511-.036.007-.495.288-.737.45-1.49 1.003-2.99 2.415-4.31 4.059a25.664 25.664 0 0 0-2.518 3.798c-.327.596-.92 1.8-.92 1.868 0 .044.17.627.28.967.268.817.551 1.508.905 2.208.849 1.676 1.85 2.733 2.952 3.118.145.05.376.112.423.113.028 0 .033-.009.04-.076zm28.154-.339c.52-.276.717-1.2.554-2.598a18.85 18.85 0 0 0-.398-2.085c-.592-2.384-1.546-4.5-2.713-6.014-.583-.757-1.266-1.42-1.933-1.873l-.198-.134-.327-.044c-1.899-.254-3.493-.387-5.047-.42-.396-.008-1.135.01-1.39.033l-.102.01.009.156c.034.617.451 1.232 1.114 1.642.072.045.288.16.481.255.529.264.857.467 1.338.828 1.987 1.496 3.669 3.937 4.742 6.883l.107.295.16.086c1.8.967 2.974 1.968 3.418 2.914.03.063.063.114.074.114a.497.497 0 0 0 .11-.048zm18.674-1.626c.308-.254.585-.787.751-1.447.119-.472.193-.979.246-1.686a30.97 30.97 0 0 0 0-2.157 32.367 32.367 0 0 0-.18-2.003c-.476-3.866-1.65-7.974-3.069-10.74-.396-.772-.73-1.314-1.364-2.21a42.322 42.322 0 0 0-5.92-6.679c-2.25-2.049-4.622-3.747-7.11-5.091-.39-.21-1.307-.667-1.694-.844-2.84-1.298-5.664-2.076-8.578-2.365-1.44-.143-2.776-.013-4.312.42a14.277 14.277 0 0 0-4.002 1.885c-.837.579-1.46 1.188-1.52 1.485-.015.07 0 .078.13.065a31.82 31.82 0 0 1 1.384-.074c.564-.019 2.36-.01 2.85.015.528.026.85.046 1.266.076 5.175.373 9.814 1.681 13.408 3.782 1.599.935 2.967 1.988 4.16 3.203 1.454 1.48 2.411 2.393 4.821 4.594 1.539 1.405 2.067 1.903 2.625 2.472 1.57 1.603 2.356 2.794 2.853 4.323.267.823.374 1.127 1.154 3.305.915 2.555 1.362 4.082 1.658 5.662.254 1.354.343 2.716.252 3.82-.012.146-.022.28-.022.3v.034l.06-.034c.033-.019.102-.069.153-.111zm-34.722-.542c.148-.086.271-.228.67-.773.464-.636.642-.83.97-1.058a2.77 2.77 0 0 1 .588-.288c.356-.11.786-.155 1.21-.123.353.026.659.023.784-.008.2-.049.335-.145.405-.287.039-.08.04-.094.04-.283a.788.788 0 0 0-.056-.36c-.06-.18-.197-.468-.244-.519-.039-.041-.612-.421-.855-.566-.819-.49-1.545-.782-2.167-.873a3.126 3.126 0 0 0-.738 0c-.25.043-.49.138-.692.274-.122.082-.356.319-.44.447-.313.472-.462 1.027-.48 1.782-.01.469.018.8.109 1.244.12.587.374 1.183.582 1.36.105.09.197.1.314.031zm-5.9-3.788c.159-.143.462-.42.672-.613.913-.84 1.164-1.028 1.553-1.16.266-.09.312-.093 1.028-.089.671.005.782-.001 1.064-.057.476-.094 1.005-.35 1.292-.627l.105-.1.997-1.957.998-1.957-.036-.03a2.663 2.663 0 0 0-.477-.22 4.32 4.32 0 0 0-.64-.145c-.193-.03-.268-.033-.744-.034-.553 0-.66.006-1.142.075-1.263.18-2.784.668-4.483 1.44-.337.154-.818.387-.818.397l-.043.314c-.222 1.552-.267 3.059-.12 3.924.062.356.154.648.267.838.06.1.197.263.223.263.008 0 .144-.118.304-.262zm-12.985-5.105c.682-1.245 1.741-2.821 2.728-4.06a24.794 24.794 0 0 1 1.923-2.167c1.838-1.853 3.676-3.123 5.632-3.89 1.78-.699 3.525-1.24 4.788-1.483.694-.134 1.167-.19 2.08-.245.834-.05 1.011-.09 1.484-.327.285-.144.46-.208.81-.296 1.149-.29 3.224-.533 6.236-.73.851-.057 2.097-.125 2.584-.142.329-.011.39-.019.39-.047a.522.522 0 0 0-.046-.116c-.26-.529-1.319-1.064-2.877-1.454-1.784-.447-4.145-.743-7.326-.916-1.341-.073-3.122.058-4.726.348-4.61.834-8.576 2.92-11.048 5.812a12.068 12.068 0 0 0-2.711 5.577 11.864 11.864 0 0 0-.226 2.313c-.01.764.014 1.258.093 1.946.025.208.025.21.05.169l.162-.292zm35.757-2.273c.118-.057.148-.16.1-.343-.082-.317-.381-.726-1.052-1.438-.897-.953-2.345-2.205-3.809-3.295-2.653-1.974-5.137-3.287-6.862-3.626-.511-.1-.824-.127-1.516-.126-.644 0-.894.019-1.443.104-1.76.273-3.668 1.018-5.449 2.13-1.013.633-2.017 1.44-2.648 2.13-.154.17-.155.17-.272.209-.094.03-.13.05-.174.098-.05.053-.057.07-.057.131 0 .102.057.211.171.33.283.292.768.5 1.171.5.129 0 .137-.003.407-.11.152-.06.415-.156.585-.213 2.01-.674 4.198-.946 6.222-.774 2.53.216 4.86 1.122 6.834 2.658.108.084.295.235.415.335l.218.183.29.02c1.02.07 2.045.21 3.138.427.49.097.842.175 1.746.386 1.218.285 1.448.328 1.738.322.15-.004.187-.01.247-.038z"/></svg>