<svg xmlns="http://www.w3.org/2000/svg" width="64" height="64"><path d="M28.949 62.808c-5.023-.656-8.66-1.819-12.33-3.944-.5-.29-3.272-2.203-3.632-2.508-.13-.11-.327-.2-.44-.2a.2.2 0 0 1-.203-.196c0-.107-.132-.196-.293-.196-.161 0-.271-.082-.244-.182.027-.1-.218-.388-.543-.638-1.088-.836-3.684-3.776-4.687-5.31-.3-.458-.71-1.077-.912-1.374-.619-.912-2.231-4.285-2.742-5.736-.962-2.737-1.091-3.291-1.713-7.372-.374-2.457-.256-5.087.41-9.105.48-2.895 1.913-6.757 3.493-9.416.32-.54.662-1.157.759-1.373.097-.216.362-.56.589-.766.227-.206.413-.474.413-.597 0-.122.524-.793 1.164-1.49.64-.696 1.168-1.325 1.172-1.398.01-.16 1.242-1.34 2.939-2.81 1.485-1.287 3.35-2.57 4.988-3.432a81.78 81.78 0 0 0 1.458-.781c.774-.443 2.59-1.182 2.903-1.182.194 0 .41-.057.48-.127.236-.238 2.183-.84 2.735-.847.302-.004.742-.115.977-.246 1.38-.774 11.406-.777 12.77-.003.234.133.613.242.842.242.46 0 2.251.515 2.782.799.186.1.449.182.583.182.282 0 3.056 1.313 5.142 2.434 1.349.724 4.37 3.12 5.895 4.674 2.897 2.952 4.706 5.381 5.883 7.898 1.386 2.962 1.976 4.451 1.984 5.002.002.162.135.547.296.856.16.31.292.887.292 1.285 0 .398.085.808.189.913.274.275.651 3.787.652 6.067 0 2.215-.389 5.79-.661 6.071-.1.103-.184.544-.187.981-.004.437-.133 1.015-.286 1.285-.154.27-.283.69-.287.934a2.095 2.095 0 0 1-.184.785c-.097.187-.467 1.047-.821 1.91-2.446 5.962-7.58 11.825-12.97 14.813l-1.953 1.08c-1.702.936-5.646 2.244-7.911 2.622-3.782.632-6.163.739-8.791.396zm5.079-8.577c0-.722-.096-1.622-.214-1.999s-.291-1.568-.385-2.647c-.431-4.932-.544-5.944-.746-6.673-.119-.43-.216-1.423-.217-2.21 0-1.505-.383-2.788-.83-2.788-.408 0-.734.421-.734.948 0 .263-.094.841-.21 1.285a103.95 103.95 0 0 0-1.253 5.319 110.894 110.894 0 0 1-.682 3.04 63.89 63.89 0 0 0-.492 2.158c-.171.81-.398 1.78-.503 2.158-.236.845-.558 2.629-.487 2.7.028.028.276-.126.552-.343.275-.218.585-.396.69-.396.103 0 .298-.132.432-.294.168-.204.616-.294 1.459-.294 1.308 0 2.14.31 2.87 1.071.246.257.515.425.598.373.084-.052.152-.685.152-1.408zm6.056-.256c0-.217.424-.808.941-1.313 1.134-1.106 2.623-1.58 3.696-1.173.342.13.69.17.771.087.193-.194-.07-.61-2.185-3.462a338.773 338.773 0 0 1-2.206-3 40.617 40.617 0 0 0-.944-1.258c-1.073-1.366-1.657-2.158-2.284-3.098-.36-.54-.801-1.102-.98-1.25-.179-.148-.325-.357-.325-.464 0-.236-1.117-1.552-1.519-1.79-.598-.355-.873 1.047-.343 1.75.157.21.29.619.293.909.003.29.094.582.201.65.108.066.199.358.202.648.004.29.133.749.286 1.018.154.27.286.712.293.981.007.27.142.662.3.871.157.21.287.624.287.92 0 .297.087.595.195.661.107.067.195.334.195.594 0 .26.122.762.271 1.116.391.93 1.292 3.821 1.292 4.147 0 .153.131.53.292.84.16.308.292.719.293.911.002.467.585 1.342.804 1.206.096-.06.174-.285.174-.501zM22.432 52.87c.101-.31.384-1.012.85-2.109.09-.216.392-.894.67-1.508.277-.613.504-1.163.504-1.22 0-.058.23-.615.51-1.239.592-1.316.91-2.042 1.314-2.996.16-.378.518-1.189.796-1.802.278-.614.505-1.163.505-1.222 0-.058.308-.766.684-1.573.825-1.768.872-2.269.216-2.269-.299 0-.696.266-1.098.736-.347.404-1.567 1.706-2.712 2.893-1.145 1.187-2.424 2.555-2.84 3.04-.695.809-1.939 2.157-4.733 5.131-.573.61-1.042 1.159-1.042 1.22 0 .06.67.105 1.488.1 1.36-.006 1.567.047 2.407.623.823.563 1.575 1.682 1.575 2.343 0 .34.788.21.906-.148zm27.615-6.418c0-.9.117-1.495.403-2.046.415-.799 1.512-1.785 1.987-1.785.321 0 .735-.388.735-.688 0-.12-.373-.374-.83-.566-.456-.192-1.094-.464-1.416-.606a60.62 60.62 0 0 0-1.172-.496 8.517 8.517 0 0 1-.88-.414 4.811 4.811 0 0 0-.585-.29 70.908 70.908 0 0 1-2.93-1.229c-3.067-1.408-7.429-3.214-7.815-3.236-.903-.05-.72.685.43 1.736 1.305 1.19 5.235 4.86 7.176 6.698.813.77 1.874 1.75 2.357 2.176.484.427 1.187 1.052 1.563 1.39.376.337.75.616.83.62.08.002.147-.566.147-1.264zm-35.484-2.198c.982-.72 1.83-1.37 1.883-1.442.054-.073.45-.367.88-.653.43-.286 1.704-1.226 2.832-2.088 1.128-.863 2.403-1.803 2.833-2.088.43-.286 1.058-.75 1.397-1.03.339-.281.976-.77 1.416-1.088.826-.596 1.036-1.208.486-1.42-.172-.067-.81.031-1.416.217-.606.186-1.85.565-2.762.842-.914.277-2.276.7-3.028.939-.752.24-1.895.591-2.54.781-.645.19-1.315.417-1.49.504-.175.087-.637.218-1.028.292-.39.073-.758.212-.817.308-.058.095-.36.173-.67.173-.31 0-.612.081-.673.18-.06.098-.461.238-.89.311-.429.073-.978.295-1.22.493-.43.352-.431.363-.05.488 2.02.662 2.74 1.733 2.726 4.053-.005.845.07 1.537.168 1.537s.98-.59 1.963-1.31zm40.273-8.801c-1.02-1.702-.862-3.458.437-4.841.685-.73.36-.822-1.932-.547-1.006.12-2.708.282-3.783.36-1.074.076-2.069.212-2.21.302-.141.09-1.196.244-2.344.343-1.148.099-2.879.26-3.846.356a66.63 66.63 0 0 1-2.183.193c-.235.01-.565.156-.734.326-.497.499-.078.92 1.189 1.196 1.174.256 2.577.572 3.78.85 2.066.48 3.505.811 4.2.966 1.11.249 3.286.746 4.883 1.116 1.326.307 3.072.611 3.178.554.029-.016-.257-.544-.635-1.174zm-42.004-1.85c2.78-.307 5.245-.606 6.545-.793.698-.101 2.278-.284 3.51-.406 2.562-.254 3.132-.42 3.13-.91-.002-.392-1.793-1.045-2.847-1.039-.332.002-.668-.062-.749-.143-.16-.161-2.098-.604-3.337-.762-.43-.055-1.059-.226-1.397-.38a3.769 3.769 0 0 0-1.307-.28c-.38 0-.746-.088-.813-.196-.066-.108-.491-.196-.945-.196-.453 0-.997-.122-1.209-.271-.212-.15-.78-.318-1.264-.374-.786-.093-1.975-.322-3.284-.634l-.451-.108.5.739c.275.406.5.85.5.987s.088.249.195.249c.11 0 .195.546.195 1.245 0 1.358-.359 2.32-1.114 2.983-.872.766-.447.796 4.142.29zm26.177-4.32c.067-.109.314-.198.55-.198.235 0 .679-.133.987-.294.308-.162.722-.293.921-.293.199 0 .65-.122 1.003-.271.988-.417 1.995-.71 2.439-.71a.947.947 0 0 0 .645-.295c.133-.161.535-.294.891-.294.357 0 .703-.088.77-.196.066-.108.313-.197.548-.197.235 0 .68-.133.988-.294.307-.162.795-.294 1.084-.294.288 0 .608-.076.71-.17.102-.094.713-.325 1.358-.513 1.54-.449 2.83-.953 2.832-1.106 0-.068-.268-.177-.596-.243-.353-.07-.969-.505-1.514-1.068-1.088-1.125-1.543-2.525-1.157-3.554.366-.973-.033-1.114-1.025-.362-.465.353-1.088.818-1.384 1.034-2.578 1.876-5.604 4.14-5.815 4.351-.142.142-.323.258-.402.258-.08 0-.318.163-.53.361-.212.198-1.218.962-2.235 1.698-2.266 1.638-2.808 2.157-2.659 2.547.13.338 1.396.42 1.591.102zm-11.818-.985c0-.15-4.977-4.918-6.84-6.553-.766-.673-5.268-4.862-5.986-5.57-.33-.325-.31-.396-.366 1.278-.035 1.064-.156 1.588-.488 2.127-.488.794-1.825 1.856-2.336 1.856-.18 0-.387.059-.46.131-.142.144.42.85.677.85.088 0 .668.227 1.289.505.62.278 1.392.621 1.714.763a220.8 220.8 0 0 1 1.715.77c.62.281 1.19.512 1.267.512.076 0 .623.23 1.215.51.593.28 1.385.643 1.761.806.376.163.837.375 1.023.47.187.097.462.175.611.175.15 0 .382.133.515.294.134.162.4.295.592.295.192 0 .775.21 1.295.467 2.248 1.11 2.29 1.122 2.558.764.134-.179.244-.382.244-.45zm10.467-3.184a252.13 252.13 0 0 0 3.896-4.161c1.18-1.29 2.32-2.527 2.535-2.747 2.906-2.979 3.841-4.083 3.591-4.242-.149-.095-.818-.174-1.487-.175-.811-.002-1.401-.117-1.772-.346-.773-.477-1.713-1.611-1.87-2.256-.196-.812-.657-.651-1.125.392l-.88 1.95c-.254.56-.462 1.082-.462 1.16 0 .08-.272.725-.603 1.435-.332.71-.672 1.467-.756 1.683-.085.216-.385.88-.667 1.474-.283.595-.514 1.144-.514 1.22 0 .077-.23.65-.51 1.273-.28.623-.645 1.442-.81 1.82-.166.377-.42.92-.565 1.207-.145.286-.264.661-.264.833 0 .173-.087.313-.195.313-.107 0-.195.221-.195.49 0 .382.1.491.45.491.313 0 .99-.558 2.203-1.814zm-8.087.833c-.054-.424-1.305-4.671-1.792-6.08-.22-.638-1.035-3.307-1.467-4.806-.186-.648-.46-1.455-.61-1.795-.148-.34-.27-.798-.27-1.018 0-.22-.087-.455-.195-.522-.107-.067-.195-.34-.195-.608 0-.267-.192-.858-.427-1.312l-.426-.826-.19.687c-.527 1.9-2.652 3.17-4.574 2.735-.402-.092-.807-.09-.899.001-.133.135.782 1.582 1.681 2.658.09.108.358.473.595.812.237.338.659.912.937 1.275.28.362 1.809 2.424 3.4 4.582 1.59 2.158 3.073 4.126 3.295 4.373.542.605 1.22.512 1.137-.155zm3.535-.882c.086-.432.235-1.26.331-1.84.095-.581.267-1.15.382-1.266.115-.115.209-.571.209-1.014 0-.442.078-.888.174-.99.177-.19.557-1.912.733-3.325.054-.431.224-1.063.377-1.403.153-.34.279-.93.279-1.312s.088-.75.195-.816c.108-.066.196-.433.196-.815a3.8 3.8 0 0 1 .28-1.313c.288-.638.5-2.481.284-2.481-.066 0-.331.154-.588.343-.944.693-1.363.834-2.483.834-1.187 0-1.977-.284-2.714-.972-.235-.221-.53-.402-.656-.402-.245 0-.24.08.3 4.708.17 1.457.389 3.399.487 4.316.462 4.31.916 7.76 1.104 8.399.042.142.274.23.515.196.336-.048.474-.244.595-.847z"/></svg>